<svg xmlns="http://www.w3.org/2000/svg" viewBox="0 0 97.66 36.58"><defs><style>.cls-1{fill:#040000;}.cls-2{fill:#231815;}.cls-3{fill:#c18b4f;}</style></defs><title>bosyu_bg2</title><g id="レイヤー_2" data-name="レイヤー 2"><g id="レイヤー_1-2" data-name="レイヤー 1"><polygon class="cls-1" points="1.7 35.87 10.11 27.36 1.03 18.02 10.17 9.97 1.82 2.28 95.75 2.28 87.15 9.67 96.65 19.07 87.15 28.32 95.77 35.87 1.7 35.87"/><path class="cls-2" d="M3.63,3h90.2L87.27,8.63l-1.16,1,1.09,1.09,8.43,8.35-8.42,8.21-1.1,1.07,1.15,1,6.63,5.8H3.39l6.73-6.8,1-1-1-1L2.05,18.06l8-7,1.18-1L10.07,8.92,3.63,3M0,1.58,9.11,10,0,18l9.11,9.38L0,36.58H97.66L88.2,28.29l9.46-9.21L88.2,9.71l9.46-8.13Z"/><polygon class="cls-3" points="97.66 35 0 35 9.11 25.78 0 16.41 9.11 8.39 0 0 97.66 0 88.2 8.13 97.66 17.5 88.2 26.72 97.66 35"/></g></g></svg>