<svg xmlns="http://www.w3.org/2000/svg" viewBox="0 0 222.41 44.28"><defs><style>.cls-1{fill:#040000;}.cls-2{fill:#231815;}.cls-3{fill:#c18b4f;}</style></defs><title>bosyu_bg</title><g id="レイヤー_2" data-name="レイヤー 2"><g id="レイヤー_1-2" data-name="レイヤー 1"><polygon class="cls-1" points="6.49 34.87 1.44 25.69 5.91 17.49 1.29 9.96 219.88 2.33 215.1 9.9 220.97 19.09 215.75 28.52 221.06 35.89 2.41 43.53 6.49 34.87"/><path class="cls-2" d="M218.56,3.08l-3.82,6.06-.47.76.48.76,5.4,8.46-4.8,8.66-.43.79.52.73,4.27,5.93L3.55,42.78,7,35.5l.3-.65-.34-.63-4.7-8.53,4.09-7.5.39-.72-.42-.7L2.53,10.63l216-7.55m2.63-1.51L.05,9.3l5,8.21L.63,25.69,5.69,34.9,1.28,44.28l221.13-7.73-5.82-8.08,5.21-9.41L215.94,9.9l5.25-8.33Z"/><polygon class="cls-3" points="222.35 34.98 1.22 42.7 5.64 33.33 0.57 24.12 5.03 15.94 0 7.72 221.13 0 215.89 8.32 221.74 17.49 216.54 26.89 222.35 34.98"/></g></g></svg>