<svg xmlns="http://www.w3.org/2000/svg" viewBox="0 0 120.26 143.05"><defs><style>.cls-1{fill:#1d3033;stroke:#1d3033;stroke-linecap:round;stroke-linejoin:round;stroke-width:.66px}.cls-2{fill:#f1c8dd}.cls-3{fill:#b2deed}.cls-4{fill:#f7e5d7}.cls-5{fill:#fff}.cls-6{fill:#55513f}.cls-7{fill:none}</style></defs><g id="レイヤー_2" data-name="レイヤー 2"><g id="レイヤー_3" data-name="レイヤー 3"><path class="cls-1" d="M119.92 104.73c.13 7.77-1.13 17.41-8.74 21.51-5.77 3.07-5.82-1.33-5.46-5.72a5.22 5.22 0 0 0 .72-1.61 37.77 37.77 0 0 0-.34 6.07c.54 4.77 7.67-1.13 9-2.89a23.57 23.57 0 0 0 3.9-10.69c.9-7.39-.46-14.85-2.36-22a104.48 104.48 0 0 0-3.41-12 64.46 64.46 0 0 0-3.61-8 214.47 214.47 0 0 0-14.87-24.2 65.45 65.45 0 0 0-4-5.38.43.43 0 0 0 .15-.29c8.15 9 15.18 20.64 20.28 31.51 4.67 10.16 8.54 22.46 8.74 33.69z"/><path class="cls-1" d="M116.61 89.43c1.9 7.12 3.26 14.58 2.36 22a23.57 23.57 0 0 1-3.92 10.69c-1.28 1.76-8.41 7.66-9 2.89a37.77 37.77 0 0 1 .34-6.07 4.89 4.89 0 0 0 .23-1.49c0-.36-.49-.38-.62-.08a.93.93 0 0 1-.1.26v-.18c0-.69 1.1-.69 1.08 0-.1 4.41-.54 11.56 5.43 6.25a17.81 17.81 0 0 0 5.59-10.61c1.51-9.38-.66-18.46-3-27.51-2.41-9.45-6.74-17.81-11.63-26.19-3.93-6.72-8-13.77-13.18-19.61a.24.24 0 0 0 .1.1.4.4 0 0 0 .41 0 65.45 65.45 0 0 1 4 5.38 214.47 214.47 0 0 1 14.87 24.2 64.46 64.46 0 0 1 3.61 8 104.48 104.48 0 0 1 3.43 11.97z"/><path class="cls-2" d="M115 85.58c2.34 9 4.51 18.13 3 27.51a17.81 17.81 0 0 1-5.51 10.58c-6 5.31-5.53-1.84-5.43-6.25 0-.69-1-.69-1.08 0v.18c-2.15 5.49-10 7.77-15.58 6.36-1.11-1.57-2.26-3.08-3.31-4.57-1.87-2.64-3.18-6.1-5.66-8.25a.58.58 0 0 0-.19-.1c.54-2.21 1.06-4.38 1.62-6.51 1.69-6.36 3.9-13.87 3.64-20.51a.28.28 0 0 0-.08-.2.25.25 0 0 0-.16-.16 47.52 47.52 0 0 0-10.53-3.36 34.94 34.94 0 0 0 14.1-7.4 6.5 6.5 0 0 0 .61-.7c1.7.06 3.46-2.07 4.28-3.3a5 5 0 0 0 .13-5.72c-1.84-2.64-6.38-2.64-8.38-.25a.28.28 0 0 0-.13-.11 77 77 0 0 1-20.94-12.4c-4.85-3.87-11.2-8-14.17-13.59 0-.08.05-.15.07-.23a.38.38 0 0 0-.41-.49l-.08-.84c13.36-1.27 26.79-.59 39.32 4.48 5.13 5.84 9.25 12.89 13.18 19.61 4.92 8.41 9.25 16.77 11.69 26.22z"/><path class="cls-1" d="M105.85 119.14c0-.54.08-1 .1-1.54a.93.93 0 0 0 .1-.26c.13-.3.62-.28.62.08a4.89 4.89 0 0 1-.23 1.49 5.22 5.22 0 0 1-.72 1.61c.03-.46.08-.92.13-1.38z"/><path class="cls-1" d="M106 117.6c0 .49-.08 1-.1 1.54-2.21 4.46-10.33 6.43-15.1 5.33-.13-.18-.26-.33-.38-.51 5.58 1.41 13.38-.87 15.58-6.36z"/><path class="cls-1" d="M105.85 119.14c0 .46-.1.92-.13 1.38-2.59 4-9.92 5.46-14.64 4.41-.12-.15-.23-.31-.33-.46 4.77 1.1 12.89-.87 15.1-5.33zM84.83 136.31a4.1 4.1 0 0 0 0-.49.37.37 0 0 0 0-.16 15.42 15.42 0 0 0 5.59 1.06 7.66 7.66 0 0 0 3.49-.62c.82-.46.82-1 1.23-1.74 0-.05 0-.1.1-.1a.38.38 0 0 0 .54 0s.08.05.1.08c1.64 2.23-2.87 3.48-4.18 3.59-1.79.13-5.15.25-6.94-1a2.6 2.6 0 0 0 .07-.62z"/><path class="cls-1" d="M90.06 124.67a10.13 10.13 0 0 0 1 .26 30.38 30.38 0 0 1 4.72 9 .32.32 0 0 1 0 .28.37.37 0 0 0-.54 0c-3.39-5.05-6.72-10.36-9.93-15.54-.89-1.46-1.69-3-2.61-4.41-.46-.74-1.2-1.41-1.69-2.17.05-.21.1-.41.13-.62 1.3 1 4 5.93 4.64 7 1.18 1.72 2.41 3.46 3.64 5.23a.61.61 0 0 1-.18-.05c-.36-.13-.59.46-.26.61a7.21 7.21 0 0 0 1.1.44l-.02-.03z"/><path class="cls-1" d="M95.21 134.24a.37.37 0 0 1 .54 0 .38.38 0 0 1-.54 0zM94.85 63.18a5 5 0 0 1-.13 5.72c-.82 1.23-2.58 3.36-4.28 3.3a1.87 1.87 0 0 0 .28-.59c2.36-1 4.62-3.64 4.39-6.22-.39-4-6.08-4.85-8.41-2h-.08a.36.36 0 0 0-.15-.43c2-2.42 6.53-2.42 8.38.22z"/><path class="cls-3" d="M95.21 134.24s-.08 0-.1.1c-.41.72-.41 1.28-1.23 1.74a7.66 7.66 0 0 1-3.49.62 15.42 15.42 0 0 1-5.59-1.06.36.36 0 0 0-.62 0c-4.66 6.77-12.79 7-19 2-.28-.21-.75 0-.72.3-3.67 1.49-7 3.62-11.23 3-3.28-.51-7.17-2.23-8.71-5.31-.05-.1-.13-.18-.21-.18a.26.26 0 0 0-.31-.18c-2.53.28-4.89 1.28-7.38 1.85a24.26 24.26 0 0 1-11.79.17c-1.25-2.53 1.08-7.25 2.77-10.61a.42.42 0 0 0 .28-.59c.36-.66.64-1.28.87-1.77 2.61-5.76 6.23-11 8.87-16.73a63.3 63.3 0 0 0 10.56-1 20 20 0 0 0-1.94 6.2 57.93 57.93 0 0 0-1.24 6.3.43.43 0 0 0 0 .74c4.33 2.08 9 2.64 13.72 3.41 5.89 1 11.68 2.13 17.68 2.18a.57.57 0 0 0 .59-.62A93.09 93.09 0 0 0 81 112.12c.49.76 1.23 1.43 1.69 2.17.92 1.44 1.72 2.95 2.61 4.41 3.21 5.18 6.54 10.49 9.93 15.54z"/><path class="cls-1" d="M95.11 65.39c.23 2.58-2 5.2-4.39 6.22a2 2 0 0 0 .26-.89A9 9 0 0 0 93.21 69c1.13-1.46 2.08-3.88.56-5.41a4.71 4.71 0 0 0-6.63.05l-.44-.28c2.3-2.82 8.02-1.92 8.41 2.03z"/><path class="cls-4" d="M93.77 63.62c1.52 1.53.57 3.95-.56 5.41A9 9 0 0 1 91 70.72c.39-2.56-1.79-5.59-3.84-7a4.71 4.71 0 0 1 6.61-.1z"/><path class="cls-1" d="M91.08 124.93a10.13 10.13 0 0 1-1-.26s-.2-.33-.3-.49a3.11 3.11 0 0 0 1 .31c.07.13.22.29.3.44zM87.14 63.67c2 1.46 4.23 4.49 3.84 7a4.51 4.51 0 0 0-1 .89 3.85 3.85 0 0 0 .18-2.84 10 10 0 0 0-3.31-4.85.14.14 0 0 0 .13-.07.61.61 0 0 1 .16-.13zM90.8 39.37a.41.41 0 0 1 0 .18.38.38 0 0 1-.15-.16.42.42 0 0 0 0-.2 1 1 0 0 0 .15.18z"/><path class="cls-1" d="M90.85 39.55a.43.43 0 0 1-.15.29l-.18-.18a.42.42 0 0 0 .18-.29.38.38 0 0 0 .15.18zM90.72 71.61a1.87 1.87 0 0 1-.28.59 3.06 3.06 0 0 1-.51-.1.25.25 0 0 1-.18-.23c0-.05.08-.08.08-.13a.26.26 0 0 1 .1-.13 4.51 4.51 0 0 1 1-.89 2 2 0 0 1-.21.89zM90.37 124c.12.18.25.33.38.51a3.11 3.11 0 0 1-1-.31c-.1-.18-.23-.33-.33-.51a5.58 5.58 0 0 0 .95.31zM90.67 39.19a.42.42 0 0 1 0 .2c-.13-.12-.23-.25-.36-.38a.31.31 0 0 0-.44 0l-.3-.35c.3.1.61.23.89.35a.57.57 0 0 1 .13.16z"/><path class="cls-1" d="M90.26 39.37q-.2-.19-.36-.39a.31.31 0 0 1 .44 0c.13.13.23.26.36.38a.42.42 0 0 1-.18.29 3 3 0 0 1-.31-.34s.03.06.05.06zM90.67 39.19s0-.05 0 0zM90.52 39.68l.18.18a.4.4 0 0 1-.41 0 .24.24 0 0 1-.1-.1.25.25 0 0 0 .33-.08z"/><path class="cls-1" d="M90.21 39.34a3 3 0 0 0 .31.34.25.25 0 0 1-.33.1l-.1-.1s-.1-.13-.15-.18a.36.36 0 0 1-.08-.31c.14.03.22.1.35.15zM90.49 39c-.28-.12-.59-.25-.89-.35-1.23-1.64-1.77-3.75-3.1-5.39a.2.2 0 0 0 0-.23.11.11 0 0 0 .1 0 13.81 13.81 0 0 1 1.95 3.15A19.23 19.23 0 0 0 90.49 39zM90.44 72.2a6.5 6.5 0 0 1-.61.7 34.94 34.94 0 0 1-14.15 7.35 16 16 0 0 0-1.59-.3A48.58 48.58 0 0 0 86 74.64c1.57-.9 3-1.61 3.77-2.77a.25.25 0 0 0 .18.23 3.06 3.06 0 0 0 .49.1z"/><path class="cls-1" d="M90.21 39.34c-.13-.05-.25-.12-.41-.18 0-.07 0-.12.1-.18q.16.2.36.39s-.02-.03-.05-.03zM90.37 124a5.58 5.58 0 0 1-1-.31c-1.23-1.77-2.46-3.51-3.64-5.23-.67-1-3.34-6-4.64-7 0-.15.07-.28.12-.43a.58.58 0 0 1 .19.1c2.48 2.15 3.79 5.61 5.66 8.25 1.05 1.5 2.2 3.01 3.31 4.62zM90.11 68.77a3.85 3.85 0 0 1-.18 2.84.26.26 0 0 0-.1.13.24.24 0 0 0 0 .1C89 73 87.55 73.74 86 74.64A48.58 48.58 0 0 1 74.09 80l-.82-.16a.5.5 0 0 1 .28-.28A123.13 123.13 0 0 0 85.6 74c2.51-1.41 5.41-3.3 3.25-6.74-.77-1.23-1.79-2.23-2.58-3.43a.44.44 0 0 0 .53.07 10 10 0 0 1 3.31 4.87zM90 39.65l.1.1c-12.53-5.07-26-5.74-39.32-4.48-.84.07-1.66.15-2.51.25-14.12 1.57-25.61 8-36.52 16.64a.36.36 0 0 0-.23-.44c9.66-9.17 23.55-15.79 36.75-17a138.52 138.52 0 0 1 20-.61 63.75 63.75 0 0 1 21 4.89 2.34 2.34 0 0 0 .73.65zM89.7 124.16c.1.16.2.34.3.49a7.21 7.21 0 0 1-1.1-.44c-.33-.15-.1-.74.26-.61a.61.61 0 0 0 .18.05c.13.18.26.35.36.51z"/><path class="cls-1" d="M89.88 39.47c.05.05.1.13.15.18a2.34 2.34 0 0 1-.66-.67l.43.18a.36.36 0 0 0 .08.31zM89.83 71.74c0 .05 0 .08-.08.13a.24.24 0 0 1 0-.1z"/><path class="cls-1" d="M89.9 39c-.05.06-.1.11-.1.18l-.43-.18a5.37 5.37 0 0 1-.49-.66 3.26 3.26 0 0 1 .72.31zM89.13 12.66a.93.93 0 0 0 0-.23.27.27 0 0 0-.08-.16 1.8 1.8 0 0 0-.18-.2.28.28 0 0 1 .49.08c2 6.76-.8 14-2.52 20.5a.6.6 0 0 1-.15.31.76.76 0 0 0-.2-.26.24.24 0 0 0-.28-.05 2 2 0 0 0-.49-.23v-.1c.93-6.59 3.21-12.53 3.18-19.2a.53.53 0 0 0 .23-.46z"/><path class="cls-1" d="M89.6 38.63a3.26 3.26 0 0 0-.72-.31 11.35 11.35 0 0 1-.77-1.46 29.47 29.47 0 0 0-1.84-3.41.39.39 0 0 0 .23-.21c1.33 1.64 1.87 3.76 3.1 5.39z"/><path class="cls-4" d="M88.85 67.28c2.15 3.44-.74 5.33-3.25 6.72a123.13 123.13 0 0 1-12 5.49.5.5 0 0 0-.28.28c-6.08-1.08-12.36-1.51-18.33-2.41a.26.26 0 0 0-.2.05h-.13a.35.35 0 0 0 0 .62 19.05 19.05 0 0 1-.69 5.54.26.26 0 0 0-.23-.16c-4.43 0-8.84.18-13.25.31-5.9.15-11.71-1.41-17.61-1.64a.6.6 0 0 0-.85-.64c-3.23 1.51-7.17-.39-9-3.2-1.93-3 2-7.1 4.92-4.8a.56.56 0 0 0 .9-.38c5.15.72 11.27-6.54 14.43-9.49A69.59 69.59 0 0 0 50.89 37.7c2.44 5.69 9.1 9.8 13.56 13.66 6.38 5.54 13.38 10.18 21.66 12.33a.27.27 0 0 0 .13.16c.82 1.2 1.84 2.2 2.61 3.43zM72 68.59c2.54-.15 2.18-3.9 2-5.59-.2-1.84-.77-5.74-3.12-6.1-4.41-.69-2.31 9.23.61 11.2a.46.46 0 0 0 .51.49zm-31.85 2.46c2.21-.2 6.61-2.92 5.31-5.56a.39.39 0 0 0-.46-.21c-1.11.34-1.21 1.08-1.93 2a5.38 5.38 0 0 1-3.18 1.87c-2.58.59-4.87-1.13-6.81-2.53a.65.65 0 0 0-.88.87 9.15 9.15 0 0 0 7.95 3.56z"/><path class="cls-1" d="M89.09 12.43a.93.93 0 0 1 0 .23.53.53 0 0 1-.33.46v-.9a.18.18 0 0 1 0-.15 1.8 1.8 0 0 1 .18.2.27.27 0 0 1 .15.16zM88.88 38.32a5.37 5.37 0 0 0 .49.66 63.75 63.75 0 0 0-21-4.89 138.52 138.52 0 0 0-20 .61c-13.2 1.18-27.09 7.8-36.75 17a.3.3 0 0 0-.29 0 1.26 1.26 0 0 0 .05-.33c18.29-20 53.33-23.18 77.5-13.05z"/><path class="cls-1" d="M69.17 1.18a.34.34 0 0 0 0-.26c3.85.79 7.67 3 11 4.92 3 1.74 6.34 3.56 8.67 6.23a.18.18 0 0 0 0 .15v.9a.56.56 0 0 1-.41 0c-3.54-1.9-6.61-4.61-10.15-6.56-3-1.69-6.41-3-9.17-5.13a.25.25 0 0 0 .06-.25z"/><path class="cls-3" d="M88.8 13.12c0 6.67-2.25 12.61-3.18 19.2v.1C73.86 26.73 60.79 25.91 47.87 28c-12.61 2-27.64 7.2-36.81 16.63C6.39 37.75 4.42 30 1.37 22.43A81.36 81.36 0 0 1 13.42 8.17a.25.25 0 0 0 .12 0C21.06 4.64 30.21 4.23 38.36 3c10.22-1.52 20.17-1 30.45-1.49a.33.33 0 0 0 .26-.13c2.76 2.08 6.15 3.44 9.17 5.13 3.54 2 6.61 4.66 10.15 6.56a.56.56 0 0 0 .41.05z"/><path class="cls-5" d="M88.11 36.86a11.35 11.35 0 0 0 .77 1.46c-24.17-10.13-59.21-6.95-77.57 13a14.79 14.79 0 0 0-.15-5.56c8.64-9.1 22.63-13.94 34.68-16.35a69.83 69.83 0 0 1 40.3 4 .19.19 0 0 0 .13 0 29.47 29.47 0 0 1 1.84 3.45z"/><path class="cls-1" d="M87.14 63.67a.61.61 0 0 0-.21.18.14.14 0 0 1-.13.07l-.33-.3s.08 0 .13-.1.07-.08.1-.13zM86.47 63.62l.33.3a.44.44 0 0 1-.53-.07c0-.05-.08-.08-.08-.13a.37.37 0 0 0 .28-.1z"/><path class="cls-1" d="M86.7 63.39s-.08.07-.1.13 0-.11 0-.16.07.03.1.03z"/><path class="cls-1" d="M86.47 62.93a.36.36 0 0 1 .15.43 1.47 1.47 0 0 0-.28-.18.1.1 0 0 0-.07 0 1.07 1.07 0 0 1 .2-.25zM86.42 32.7a.76.76 0 0 1 .2.26.11.11 0 0 1-.1 0 .26.26 0 0 0-.13-.23c-.07-.05-.18-.08-.25-.13a.24.24 0 0 1 .28.1z"/><path class="cls-1" d="M86.47 63.62a.37.37 0 0 1-.28.1.36.36 0 0 1 0-.43.39.39 0 0 1 .08-.1.1.1 0 0 1 .07 0 1.47 1.47 0 0 1 .28.18v.16c0 .06-.1.09-.15.09zM86.52 33a.2.2 0 0 1 0 .23.87.87 0 0 0-.13-.15s.11-.02.13-.08z"/><path class="cls-1" d="M86.37 33.09h-.16L86 33a.24.24 0 0 1 .15-.34c.07.05.18.08.25.13a.26.26 0 0 1 .13.23c-.03.04-.11.04-.16.07zM86.47 84c.26 6.64-2 14.15-3.64 20.51-.56 2.13-1.08 4.3-1.62 6.51a.28.28 0 0 0-.25 0 1 1 0 0 0-.28.1.17.17 0 0 0-.11.21 2.4 2.4 0 0 0 .39.74 93.09 93.09 0 0 1-3.85 12.61.59.59 0 0 0 0-.23 25.51 25.51 0 0 0 1.21-4.31c.33-1.9.74-3.72 1.25-5.59.92-3.43 1.8-6.87 2.69-10.3s1.49-7.13 2.31-10.69c.49-3 1.61-6.2 1.64-9.18a.47.47 0 0 0 .28-.66.28.28 0 0 1-.02.28z"/><path class="cls-1" d="M86.37 33.09a.87.87 0 0 1 .13.15.39.39 0 0 1-.23.21c-.08-.16-.19-.28-.29-.44a.41.41 0 0 0 .18.05zM86.47 62.93a1.07 1.07 0 0 0-.2.23c-.08 0-.16 0-.19.07-2.63-.69-5-2.18-7.56-3.15a34.8 34.8 0 0 1-6.89-4C67 52.85 62.76 49 58.45 45.37c-2.35-2-6.17-4.9-7.43-8a5.16 5.16 0 0 0 .21-.49c3 5.59 9.32 9.72 14.17 13.59a77 77 0 0 0 20.94 12.4.28.28 0 0 1 .13.06zM85.78 83.92a.36.36 0 0 1 .59-.15.47.47 0 0 1-.28.66h-.26l-.17-.07v-.39-.1zM86.39 83.82s0-.03 0 0z"/><path class="cls-1" d="M86.21 83.61a.25.25 0 0 1 .16.16.36.36 0 0 0-.59.15 46.84 46.84 0 0 0-11.53-3.39c.46-.07 1-.15 1.46-.28a47.52 47.52 0 0 1 10.5 3.36zM86.19 63.72c0 .05 0 .08.08.13a.27.27 0 0 1-.13-.16zM86.27 63.16a.39.39 0 0 0-.08.1.15.15 0 0 0-.11 0c.03-.1.11-.1.19-.1zM86 33c.1.16.21.28.29.44a.19.19 0 0 1-.13 0 69.83 69.83 0 0 0-40.3-4c-12.05 2.41-26 7.25-34.68 16.35a.13.13 0 0 0 0-.06.53.53 0 0 0 .15-.67c6.61-7.2 16.43-10.4 25.35-13.69 8.15-3 16.79-3.69 25.4-3.51 4.1.08 8.33-.05 12.33.85a61.35 61.35 0 0 1 11.39 4.17.51.51 0 0 0 .2.12z"/><path class="cls-1" d="M86.19 63.26a.36.36 0 0 0 0 .43s-.08-.12-.13-.17a.19.19 0 0 1 .07-.29.15.15 0 0 1 .06.03zM86 33l.18.07A.41.41 0 0 1 86 33z"/><path class="cls-1" d="M86 63.52s.07.12.13.17c-8.28-2.15-15.28-6.79-21.66-12.33C60 47.5 53.33 43.39 50.89 37.7a2.84 2.84 0 0 0 .13-.38c1.26 3.15 5.08 6 7.43 8C62.76 49 67 52.85 71.63 56.11a34.8 34.8 0 0 0 6.89 4c2.52 1 4.93 2.46 7.56 3.15a.19.19 0 0 0-.08.26zM85.62 32.42a2 2 0 0 1 .49.23.24.24 0 0 0-.11.35.51.51 0 0 1-.16-.11.73.73 0 0 1-.22-.47zM85.85 84.48h.26c0 3-1.15 6.21-1.64 9.18-.82 3.56-1.41 7.18-2.31 10.69s-1.77 6.87-2.69 10.3c-.51 1.87-.92 3.69-1.25 5.59a25.51 25.51 0 0 1-1.22 4.31.68.68 0 0 0-.13-.18c3.31-12.87 7.23-26.74 8.8-40z"/><path class="cls-1" d="M85.75 83.92v.49c-7.93-3.16-16.23-3.7-24.48-5 0-.13.07-.28.12-.41a.29.29 0 0 0 0-.16c4 .54 8.12.93 12.15 1.59a.59.59 0 0 0 .49.16.71.71 0 0 0 .23-.06 46.84 46.84 0 0 1 11.49 3.39zM85.62 32.42a.73.73 0 0 0 .18.46 61.35 61.35 0 0 0-11.43-4.25c-4-.9-8.23-.77-12.33-.85-8.61-.18-17.25.52-25.4 3.51C27.72 34.58 17.9 37.78 11.29 45v-.07a1.53 1.53 0 0 1-.18-.29C20.23 35.19 35.26 30 47.87 28c12.92-2.09 25.99-1.27 37.75 4.42zM84.24 136.54a1.51 1.51 0 0 1-.21-.23.51.51 0 0 1 .57-.74.61.61 0 0 0 .18.05.37.37 0 0 1 0 .16 4.1 4.1 0 0 1 0 .49 2.6 2.6 0 0 1-.1.64 2.1 2.1 0 0 1-.44-.37z"/><path class="cls-1" d="M84.78 135.62a.61.61 0 0 1-.18-.05.51.51 0 0 0-.57.74 1.51 1.51 0 0 0 .21.23c-1.13 3.13-5.87 5.41-8.77 5.41-3.53 0-7.69-1-10.15-3.54.18-.3-.1-.79-.48-.64a3.38 3.38 0 0 0-.44.18c0-.3.44-.51.72-.3 6.25 5 14.38 4.74 19-2a.36.36 0 0 1 .66-.03z"/><path class="cls-1" d="M84.24 136.54a2.1 2.1 0 0 0 .49.41c-.75 3-4.92 5.26-7.69 5.64-4 .54-9.31-.64-12.08-3.84a2.51 2.51 0 0 0 .31-.26v-.08c2.51 2.59 6.67 3.59 10.2 3.59 2.9 0 7.64-2.33 8.77-5.46z"/><path class="cls-6" d="M85.68 84.41c-1.57 13.22-5.49 27.09-8.8 40a.53.53 0 0 0-.41-.18A130.72 130.72 0 0 1 51 120.47c.64-5.28 2.23-10.07 3.58-15.17a.15.15 0 0 0 0-.16c2.34-.74 4.52-2 5.28-4.43a.42.42 0 0 0-.3-.54.53.53 0 0 0-.39-.51 8.23 8.23 0 0 0-2.9-.66c1.82-6.48 2.85-13.22 4.93-19.63 8.25 1.34 16.55 1.88 24.48 5.04zM74.11 98.25c1.11.36 1.52-1.28.47-1.7a26.43 26.43 0 0 0-5.34-1.38 24 24 0 0 0 .26-3.38c0-.62-1-.77-1.08-.16-.2 1.11-.46 2.21-.71 3.31a22.58 22.58 0 0 0-5.41.1.64.64 0 0 0 0 1.23c1.66.28 3.3.47 5 .67-.7 2.92-1.44 5.87-2 8.84a1 1 0 1 0 1.9.26c.33-3 1.15-5.92 1.74-8.87a31 31 0 0 1 5.17 1.08z"/><path class="cls-1" d="M81.09 111.47c0 .21-.08.41-.13.62a2.4 2.4 0 0 1-.39-.74.17.17 0 0 1 .11-.21A1 1 0 0 1 81 111a.28.28 0 0 1 .25 0c-.09.19-.11.32-.16.47zM45.71 119.57a2.28 2.28 0 0 0 .26-.46c1.36.39 2.74.77 4.13 1.13v.18c0 .62.82.62.92 0a130.72 130.72 0 0 0 25.45 3.72.53.53 0 0 1 .41.18l-.07.25a.16.16 0 0 0 .25.18.57.57 0 0 1-.59.62c-6 0-11.79-1.23-17.68-2.18-4.69-.77-9.39-1.33-13.72-3.41a.43.43 0 0 1 0-.74 3.41 3.41 0 0 0-.05.46.35.35 0 0 0 .64.18 1.4 1.4 0 0 0 .05-.11z"/><path class="cls-1" d="M77 124.55a.59.59 0 0 1 0 .23.16.16 0 0 1-.25-.18l.07-.25a.68.68 0 0 1 .18.2zM74.09 80a16 16 0 0 1 1.59.3c-.51.13-1 .21-1.46.28-.23 0-.49-.07-.72-.1a.58.58 0 0 1-.23-.64zM69.09 96.17l.15-1a26.43 26.43 0 0 1 5.34 1.38c1 .42.64 2.06-.47 1.7a31 31 0 0 0-5.2-1.08c.09-.33.09-.67.18-1z"/><path class="cls-1" d="M74.22 80.53a.71.71 0 0 1-.23.06.59.59 0 0 1-.49-.16c.23.03.5.08.72.1zM74.06 63c.16 1.69.52 5.44-2 5.59a.46.46 0 0 1-.49-.49 1.55 1.55 0 0 0 .44.23c.2.11.33-.1.3-.28 2.75-.41 1.36-10.15-1.17-10.74-3.67-.74-2.16 8.61.51 10.54a.41.41 0 0 0-.08.25c-2.92-2-5-11.89-.61-11.2 2.33.36 2.9 4.26 3.1 6.1z"/><path class="cls-1" d="M71.12 57.31c2.53.59 3.92 10.33 1.17 10.74a.25.25 0 0 0-.1-.18 3.09 3.09 0 0 1-.31-.25.32.32 0 0 1 .16 0c3.07 0 1.07-10.94-1.59-9.87-1.67.67-1 4.28-.64 5.54.36 1.43.84 3.38 2.07 4.36a.44.44 0 0 0-.25.23c-2.63-1.96-4.18-11.31-.51-10.57zM73.27 79.79a.58.58 0 0 0 .23.64c-4-.66-8.13-1.05-12.15-1.59a.41.41 0 0 0-.74-.15c-1.92-.26-3.84-.56-5.72-1 0-.11 0-.18-.07-.29a.26.26 0 0 1 .2-.05c5.89.93 12.17 1.36 18.25 2.44z"/><path class="cls-1" d="M70.45 57.72c2.66-1.07 4.66 9.82 1.59 9.87a.32.32 0 0 0-.16 0c-1.23-1-1.71-2.93-2.07-4.36-.31-1.23-1.03-4.84.64-5.51zM72.29 68.05c0 .18-.1.39-.3.28a1.55 1.55 0 0 1-.44-.23.41.41 0 0 1 .08-.25 1.69 1.69 0 0 0 .41.23.69.69 0 0 0 .25-.03z"/><path class="cls-1" d="M72.29 68.05a.69.69 0 0 1-.25 0 1.69 1.69 0 0 1-.41-.23.44.44 0 0 1 .25-.23 3.09 3.09 0 0 0 .31.25.25.25 0 0 1 .1.21zM68.5 95c-.26-.05-.54-.07-.79-.1.25-1.1.51-2.2.71-3.31.13-.61 1.08-.46 1.08.16a24 24 0 0 1-.26 3.38c-.24-.01-.51-.06-.74-.13zM69.24 95.17l-.15 1c-.26 0-.54-.1-.79-.13a6.81 6.81 0 0 0 .2-1c.23.03.5.08.74.13zM69.17 1.18a.25.25 0 0 1-.1.2c-.06 0-.11-.08-.16-.1a.18.18 0 0 1-.1-.18c0-.13.08-.23.26-.21a.07.07 0 0 1 .07 0 .34.34 0 0 1 .03.29z"/><path class="cls-1" d="M13.65 7.58c-.21.16-.41.31-.62.49a.39.39 0 0 1 .05-.69c8.1-4.23 18.23-4.92 27.15-6.18C49.94-.16 59.09.41 68.81.69a.31.31 0 0 1 .33.23.07.07 0 0 0-.07 0c-.18 0-.29.08-.26.21-4 .15-8-.44-12-.41-11.15.05-21.63 2-32.58 3.84a38.71 38.71 0 0 0-10 2.77s-.08-.07-.13 0-.33.15-.45.25z"/><path class="cls-1" d="M68.91 1.28s.1.08.16.1a.33.33 0 0 1-.26.13C58.53 2 48.58 1.48 38.36 3c-8.15 1.21-17.3 1.62-24.82 5.13a.25.25 0 0 1-.12 0c.25-.25.51-.48.77-.74a.15.15 0 0 0 0-.13 38.71 38.71 0 0 1 10-2.77C35.18 2.71 45.66.74 56.81.69c4 0 8 .56 12 .41a.18.18 0 0 0 .1.18zM69.09 96.17c-.08.33-.13.67-.18 1-.26 0-.54-.1-.79-.13 0-.33.12-.66.18-1 .25.03.53.08.79.13zM67.71 94.94c.25 0 .53 0 .79.1a6.81 6.81 0 0 1-.2 1 4.62 4.62 0 0 0-.82-.07c.07-.34.15-.7.23-1.03z"/><path class="cls-1" d="M68.3 96c-.06.34-.13.67-.18 1-.28 0-.59-.07-.87-.1.07-.33.15-.64.23-1a4.62 4.62 0 0 1 .82.1z"/><path class="cls-1" d="M68.12 97c.25 0 .53.08.79.13-.59 3-1.41 5.87-1.74 8.87a1 1 0 1 1-1.9-.26c.54-3 1.28-5.92 2-8.84.26.1.57.1.85.1z"/><path class="cls-1" d="M67.48 96c-.08.33-.16.64-.23 1-1.65-.2-3.29-.39-5-.67a.64.64 0 0 1 0-1.23 22.58 22.58 0 0 1 5.41-.1c-.03.27-.11.63-.18 1zM64.66 138.36a1 1 0 0 1-.18-.23c0-.07-.08-.1-.08-.18a3.38 3.38 0 0 1 .44-.18c.38-.15.66.34.48.64v.08a2.51 2.51 0 0 1-.31.26z"/><path class="cls-1" d="M64.66 138.36l.3.39c-3.3 2.87-8.69 4.53-13 3.3-3.12-.92-7.46-2.51-8.33-6a3 3 0 0 0 .39-.13l.05-.05c.79 3.23 6.74 5.46 9.61 5.85 3.77.33 7.77-1.31 10.98-3.36z"/><path class="cls-1" d="M64.48 138.13a1 1 0 0 0 .18.23c-3.21 2-7.21 3.69-10.95 3.34-2.87-.39-8.82-2.62-9.61-5.85a.38.38 0 0 0 .15-.44c.08 0 .16.08.21.18 1.54 3.08 5.43 4.8 8.71 5.31 4.21.67 7.56-1.46 11.23-3 0 .1.03.16.08.23zM60.76 79.36l-.41-.08.23-.54c.26 0 .51.08.77.1a.29.29 0 0 1 0 .16c0 .13-.07.28-.12.41-.16-.03-.32-.03-.47-.05z"/><path class="cls-1" d="M60.76 79.36h.44c-2.08 6.46-3.11 13.2-4.93 19.64a3.46 3.46 0 0 0-.46 0c.8-2.9 1.16-6 2-9 .49-2 1.23-3.87 1.74-5.87.45-1.47.62-3.31 1.21-4.77zM60.61 78.69a.41.41 0 0 1 .74.15c-.26 0-.51-.07-.77-.1 0-.03.03-.03.03-.05zM60.58 78.74l-.23.54A63.34 63.34 0 0 1 55 78.2c-.05-.15-.07-.28-.13-.43 1.87.41 3.79.71 5.71.97z"/><path class="cls-1" d="M60.35 79.28l.41.08c-.59 1.46-.74 3.3-1.18 4.79-.51 2-1.25 3.87-1.74 5.87-.87 3-1.23 6.1-2 9h-.48c1-4 1.66-8.1 2.92-12 .72-2.56 1.1-5.31 2.07-7.74zM59.61 100.12a.42.42 0 0 1 .3.54c-.76 2.43-2.94 3.69-5.28 4.43A.32.32 0 0 0 54 105a1.51 1.51 0 0 0-.12.31 16.75 16.75 0 0 1-2 .51c-.84.18-1.72.34-2.56.49a.54.54 0 0 0-.95-.15 3.35 3.35 0 0 0-.21.36 63.3 63.3 0 0 1-10.56 1 .51.51 0 0 0-.25-.62 78.07 78.07 0 0 0 12.56-1.31c2.79-.56 8.56-1.54 9.48-4.89a.67.67 0 0 0 .22-.58z"/><path class="cls-1" d="M59.43 100.63a.54.54 0 0 1-.61 0 .55.55 0 0 0-.18-.08.42.42 0 0 1 .23-.51.3.3 0 0 1 .13 0h.51a.33.33 0 0 1 .16.05.67.67 0 0 1-.24.54z"/><path class="cls-1" d="M59.61 100.12a.33.33 0 0 0-.16-.05h-.51a.3.3 0 0 0-.13 0 6.2 6.2 0 0 0-2.64-.59c0-.13.08-.28.1-.41a8.23 8.23 0 0 1 2.95.57.53.53 0 0 1 .39.48zM58.79 100.66a.54.54 0 0 0 .61 0c-.92 3.35-6.69 4.33-9.48 4.89a78.07 78.07 0 0 1-12.56 1.31.54.54 0 0 0-.31 0h-2.41a.42.42 0 0 0 0-.31.44.44 0 0 1 0-.15c3.82-.31 7.64-.51 11.43-1a.8.8 0 0 0 .62.44.23.23 0 0 0 .28-.16.7.7 0 0 0 0-.38c1.23-.18 2.46-.36 3.66-.62s9.39-3.46 8.18-4a.19.19 0 0 1-.15-.15.55.55 0 0 1 .13.13z"/><path class="cls-4" d="M58.76 100.73c1.21.54-6.87 3.75-8.18 4s-2.43.44-3.66.62a10.69 10.69 0 0 0-.54-1.69 5.24 5.24 0 0 1 .33-3.13.27.27 0 0 0 0-.15 38.28 38.28 0 0 1 3.84-.34c1.52 0 3.23-.31 4.87-.25a.52.52 0 0 0 .47 0 5.78 5.78 0 0 1 2.66.74.19.19 0 0 0 .21.2z"/><path class="cls-1" d="M58.81 100a.42.42 0 0 0-.23.51 5.78 5.78 0 0 0-2.66-.74.5.5 0 0 0 .23-.28v-.08a6.2 6.2 0 0 1 2.66.59z"/><path class="cls-6" d="M60.35 79.28c-1 2.43-1.31 5.18-2.1 7.69-1.26 4-2 8-2.92 12-1 0-2.08.1-3.1.18-.41 0-.8 0-1.21.1 1.49-3.59 1.75-7.49 2.72-11.23.82-3.13 2-6.61 1.28-9.87 1.77.49 3.54.85 5.33 1.13z"/><path class="cls-1" d="M55.81 99a3.46 3.46 0 0 1 .46 0c0 .13-.07.28-.1.41h-1a1.3 1.3 0 0 0 0-.13 1.37 1.37 0 0 0 0-.28h.51zM56.17 99.45v.08a.5.5 0 0 1-.23.28 1.49 1.49 0 0 0-.47 0 .46.46 0 0 1-.23-.36z"/><path class="cls-1" d="M55.92 99.81a.52.52 0 0 1-.47 0 1.49 1.49 0 0 1 .47 0zM55.45 99.79c-1.64-.06-3.35.23-4.87.25a38.28 38.28 0 0 0-3.84.34.44.44 0 0 0-.44-.39 32.54 32.54 0 0 1 4-.33.6.6 0 0 0 .49 0c1.2 0 2.89-.21 4.48-.23a.46.46 0 0 0 .18.36z"/><path class="cls-1" d="M55.3 99a1.37 1.37 0 0 1 0 .28 1.3 1.3 0 0 1 0 .13c-1.59 0-3.28.2-4.48.23a.48.48 0 0 0 .18-.21.44.44 0 0 0 0-.15c.41 0 .8-.08 1.21-.1 1.01-.06 2.04-.18 3.09-.18zM54.86 78.18a.32.32 0 0 0 .13 0c.75 3.26-.46 6.74-1.28 9.87-1 3.74-1.23 7.64-2.72 11.23a7.41 7.41 0 0 0-1 .07.43.43 0 0 1 0-.35c.12-.36.25-.72.38-1.08.54.23.77-.65.23-.88.92-3 1.25-6.2 2.18-9.27.38-1.26.77-2.52 1.1-3.77a.26.26 0 0 0 .1-.13.22.22 0 0 0 0-.28 19.05 19.05 0 0 0 .69-5.54s0 .05.08.05.06.08.11.08z"/><path class="cls-1" d="M54.86 78.18h-.15c-.05 0-.05 0-.08-.05a5.82 5.82 0 0 0 0-.59.1.1 0 0 1 .13 0c0 .11.05.18.07.29s.08.28.13.43a.32.32 0 0 1-.1-.08zM54.61 77.48s.07-.07.13 0a.1.1 0 0 0-.13 0zM54.63 105.09a.15.15 0 0 1 0 .16c-1.35 5.1-2.94 9.89-3.58 15.17s-.31-.08-.44-.13c.26-4.71 2.11-10.63 3.72-15.12a.74.74 0 0 0 .3-.08zM54.61 77.51a5.82 5.82 0 0 1 0 .59.35.35 0 0 1 0-.62z"/><path class="cls-1" d="M54.3 105.22a2 2 0 0 1-.38.1A1.51 1.51 0 0 1 54 105a.32.32 0 0 1 .59.08.74.74 0 0 1-.29.14z"/><path class="cls-1" d="M53.92 105.32a2 2 0 0 0 .38-.1c-1.61 4.49-3.46 10.41-3.72 15.12-.18 0-.33-.07-.48-.1a40.82 40.82 0 0 1 3.82-14.92zM53.94 83.64a.22.22 0 0 1 0 .28.26.26 0 0 1-.1.13 2 2 0 0 1 .1-.41z"/><path class="cls-1" d="M22.59 82.53a.43.43 0 0 0 .26-.38c5.9.23 11.71 1.79 17.61 1.64 4.41-.13 8.82-.36 13.25-.31a.26.26 0 0 1 .23.16 2 2 0 0 0-.1.41c-1.85 2.3-8.46 1.1-11 1.15h-1.21a.21.21 0 0 0-.31-.06l-.07.06c-6.46 0-12.72-1.41-19.1-2.36a.14.14 0 0 1-.15-.08 3.91 3.91 0 0 0 .59-.26z"/><path class="cls-5" d="M53.84 84.05c-.33 1.25-.72 2.51-1.1 3.77-.93 3.07-1.26 6.22-2.18 9.27-4.26-1.79-9.15-5.94-9.74-10.81a4.77 4.77 0 0 1 .74-.64.28.28 0 0 0 0-.41h1.21c2.61-.08 9.23 1.12 11.07-1.18z"/><path class="cls-6" d="M51.89 105.83a16.75 16.75 0 0 0 2-.51 40.82 40.82 0 0 0-3.82 14.92c-1.39-.36-2.77-.74-4.13-1.13a17.9 17.9 0 0 0 1.31-5.2 38 38 0 0 1 2-7.36.58.58 0 0 0 0-.23c.92-.15 1.8-.32 2.64-.49z"/><path class="cls-1" d="M50.89 36.11a.38.38 0 0 1 .41.49c0 .08 0 .15-.07.23-.06-.08-.11-.18-.16-.26-.15-.28-.64-.07-.54.24a1.39 1.39 0 0 0 .16.35 75.4 75.4 0 0 1-13.31 21.33 70.92 70.92 0 0 1-7.92 7.87A106.62 106.62 0 0 0 37 58.08a92.65 92.65 0 0 0 13.61-21.79.31.31 0 0 1 .28-.18z"/><path class="cls-1" d="M50.84 36.78l-.15.38a1.39 1.39 0 0 1-.16-.35c-.1-.31.39-.52.54-.24 0 .08.1.18.16.26a5.16 5.16 0 0 1-.21.49 3.8 3.8 0 0 1-.18-.54z"/><path class="cls-1" d="M50.84 36.78a3.8 3.8 0 0 0 .18.54 2.84 2.84 0 0 1-.13.38 3.93 3.93 0 0 1-.2-.54zM50.58 120.34c.13 0 .29.08.44.13-.1.57-1 .57-.92 0v-.18c.15-.02.3.03.48.05zM51 99.3a.44.44 0 0 1 0 .15.48.48 0 0 1-.18.21h-.49a.53.53 0 0 1-.33-.29 7.41 7.41 0 0 1 1-.07z"/><path class="cls-1" d="M50.69 37.16a3.93 3.93 0 0 0 .2.54 69.59 69.59 0 0 1-17.63 25.94c-3.16 3-9.28 10.21-14.43 9.49a.34.34 0 0 0-.11-.26c1.75.51 4.18-1.05 6.21-2.66a2.75 2.75 0 0 1 .41-.31 36.77 36.77 0 0 0 4.12-3.54 70.92 70.92 0 0 0 7.92-7.87 75.4 75.4 0 0 0 13.31-21.33z"/><path class="cls-2" d="M50.81 35.27l.08.84a.31.31 0 0 0-.28.18A92.65 92.65 0 0 1 37 58.08a106.62 106.62 0 0 1-7.51 8.28c-.48.46-1 .9-1.51 1.31S26.41 69 25.34 69.9a2.75 2.75 0 0 0-.41.31c-2.31 1.61-4.57 2.61-6.44 2.28h-.13c-2.82-2.41-6.79.2-7.15 3.56L8 75.79a145.39 145.39 0 0 1 3.82-23.63c10.91-8.61 22.4-15.07 36.52-16.64.81-.1 1.66-.18 2.47-.25z"/><path class="cls-1" d="M50.43 97.53a2.54 2.54 0 0 0 .13-.44c.54.23.31 1.11-.23.88a2.46 2.46 0 0 0 .1-.44zM50.74 99.66a.6.6 0 0 1-.49 0h.49z"/><path class="cls-1" d="M50.56 97.09a2.54 2.54 0 0 1-.13.44c-4-1.56-9.41-6.46-9.82-11l.21-.2c.59 4.82 5.48 8.97 9.74 10.76z"/><path class="cls-1" d="M50.43 97.53a2.46 2.46 0 0 1-.13.41c-4.43-1.85-9.35-6.18-9.89-11.25l.2-.21c.39 4.59 5.87 9.52 9.82 11.05z"/><path class="cls-3" d="M50.3 97.94c-.13.36-.26.72-.38 1.08a.43.43 0 0 0 0 .35c-2.93.21-5.77.49-8.69 1-.36.05-.28.67.07.64 1.52-.13 3-.33 4.54-.51a5.77 5.77 0 0 0-.43 3 4.17 4.17 0 0 0 .61 2c-3.79.49-7.61.69-11.43 1-2.23-5.2 1.74-15.5 5.82-19.81.59 5.07 5.46 9.4 9.89 11.25z"/><path class="cls-1" d="M46.3 100a.37.37 0 0 0-.33.21.87.87 0 0 0-.1.25c-1.51.18-3 .38-4.54.51-.35 0-.43-.59-.07-.64 2.92-.49 5.76-.77 8.69-1a.53.53 0 0 0 .33.29 32.54 32.54 0 0 0-3.98.38zM49.33 106.32a.58.58 0 0 1 0 .23 38 38 0 0 0-2 7.36 17.9 17.9 0 0 1-1.31 5.2c-.15 0-.31-.07-.46-.13 1.31-4 1.28-8.86 3.3-12.56.14-.02.29-.07.47-.1z"/><path class="cls-1" d="M49.33 106.32c-.18 0-.36.08-.52.1l-.64.11a3.35 3.35 0 0 1 .21-.36.54.54 0 0 1 .95.15z"/><path class="cls-1" d="M48.17 106.53l.64-.11c-2 3.7-2 8.54-3.3 12.56h-.08a.37.37 0 0 0-.41.13 57.93 57.93 0 0 1 1.21-6.36 20 20 0 0 1 1.94-6.22zM46.56 105.4c.13 0 .26 0 .36-.05a.7.7 0 0 1 0 .38.23.23 0 0 1-.28.16.8.8 0 0 1-.62-.44 3.83 3.83 0 0 0 .51 0z"/><path class="cls-1" d="M46.92 105.35c-.1 0-.23 0-.36.05a5.64 5.64 0 0 1-.2-5 2.68 2.68 0 0 1 .41 0 .27.27 0 0 1 0 .15 5.24 5.24 0 0 0-.33 3.13 10.69 10.69 0 0 1 .48 1.67zM46.74 100.38a2.68 2.68 0 0 0-.41 0 2.49 2.49 0 0 1-.46 0 .87.87 0 0 1 .1-.25.37.37 0 0 1 .33-.21.44.44 0 0 1 .44.46z"/><path class="cls-1" d="M46.53 105.4a3.83 3.83 0 0 1-.51 0 4.17 4.17 0 0 1-.61-2 5.77 5.77 0 0 1 .43-3 2.49 2.49 0 0 0 .46 0 5.64 5.64 0 0 0 .23 5zM46 119.11a2.28 2.28 0 0 1-.26.46 1.61 1.61 0 0 0-.35-.12l.15-.47c.12.02.28.08.46.13z"/><path class="cls-1" d="M45.36 119.45a1.61 1.61 0 0 1 .35.12 1.4 1.4 0 0 1-.1.16.35.35 0 0 1-.64-.18 3.41 3.41 0 0 1 .05-.46.37.37 0 0 1 .41-.13h.08zM45.46 65.49c1.3 2.64-3.1 5.36-5.31 5.56a9.15 9.15 0 0 1-7.95-3.61.65.65 0 0 1 .88-.87C35 68 37.31 69.69 39.89 69.1a5.38 5.38 0 0 0 3.18-1.87c.72-.87.82-1.61 1.93-2a.39.39 0 0 1 .46.26zM43.69 135.62a.44.44 0 0 1 .56-.23.38.38 0 0 1-.15.44s0 .05-.05.05a3 3 0 0 1-.39.13v-.1a.37.37 0 0 1 0-.29z"/><path class="cls-1" d="M44.25 135.39a.44.44 0 0 0-.56.23c-5.77 1.34-13 4.18-18.79 1.9a.44.44 0 0 0 0-.15l-.08-.16a24.26 24.26 0 0 0 11.79-.17c2.49-.57 4.85-1.57 7.38-1.85a.26.26 0 0 1 .26.2z"/><path class="cls-1" d="M43.69 135.64a.37.37 0 0 0 0 .29v.1c-5.43 2.08-13.28 4.2-18.84 1.74a.3.3 0 0 0 .08-.21c5.79 2.26 12.99-.56 18.76-1.92zM40.74 85.87a.15.15 0 0 0-.23-.13 6.21 6.21 0 0 1 .72-.51h.38a.28.28 0 0 1 0 .41 4.77 4.77 0 0 0-.74.64 1.74 1.74 0 0 1 0-.39l-.13-.02zM41.61 85.23h-.38s.05 0 .07-.06a.21.21 0 0 1 .31.06z"/><path class="cls-1" d="M40.77 85.89a1.74 1.74 0 0 0 0 .39l-.21.2a3.59 3.59 0 0 1 0-.46 1 1 0 0 0 .18-.15s.03 0 .03.02z"/><path class="cls-1" d="M40.56 86a1 1 0 0 1-.18.15 1.27 1.27 0 0 1 0-.28.38.38 0 0 1 .13-.1.15.15 0 0 1 .23.13 1 1 0 0 1-.18.1z"/><path class="cls-1" d="M40.56 86a3.59 3.59 0 0 0 0 .46l-.2.21a3 3 0 0 1 0-.52 1 1 0 0 0 .2-.15z"/><path class="cls-2" d="M41.23 85.23a6.21 6.21 0 0 0-.72.51c-.08 0-.13 0-.13.1C37 88.53 35.51 93 34.15 97c-.82 2.48-3 8.15-.13 10a.46.46 0 0 0 .42.31c.69 0 1.41.08 2.1.08a120.8 120.8 0 0 0-9.61 18.12 31.24 31.24 0 0 1-4.72-1.1 9.67 9.67 0 0 1-3-1.74c-.51-.46-.62-1.26-1.1-1.67v-.26c.05-.43-.61-.43-.66 0 0 0-.88 8.23-3.46 4.18-1.39-2.23-2.18-5.28-3-7.71-2.31-7-2.62-14.36-3.13-21.61A127.9 127.9 0 0 1 8 75.79l3.25.26a6.17 6.17 0 0 0 0 1.13c.64 4.58 6.69 7.07 10.74 5.61a.14.14 0 0 0 .15.08c6.37.95 12.63 2.33 19.09 2.36z"/><path class="cls-1" d="M40.51 85.74a.38.38 0 0 0-.13.1c0-.08.05-.1.13-.1zM40.38 86.17a3 3 0 0 0 0 .52c-4.08 4.28-8 14.61-5.82 19.76h-.15a.55.55 0 0 0-.31.13c-1.93-2-.05-7.38.56-9.41 1.13-3.51 2.77-8.48 5.72-11z"/><path class="cls-1" d="M40.38 85.84a1.27 1.27 0 0 0 0 .28c-3 2.52-4.59 7.49-5.69 11-.61 2-2.49 7.46-.56 9.41a.46.46 0 0 0-.13.47c-2.92-1.87-.69-7.54.13-10 1.38-4 2.87-8.47 6.25-11.16zM37.08 107.48a3.26 3.26 0 0 1-.54 0 2.84 2.84 0 0 0 .25-.39.54.54 0 0 1 .26-.2 1.07 1.07 0 0 0 .31 0 .51.51 0 0 1 .25.62z"/><path class="cls-1" d="M37.61 107.48c-2.64 5.74-6.26 11-8.87 16.73-.23.49-.51 1.11-.87 1.77a.35.35 0 0 0-.28-.3h-.11c2.69-6.28 6.39-12.25 9.62-18.22zM37.36 106.86a1.07 1.07 0 0 1-.31 0 .54.54 0 0 1 .31 0z"/><path class="cls-1" d="M36.54 107.45a3.26 3.26 0 0 0 .54 0c-3.23 6-6.93 11.94-9.62 18.22-.18 0-.36-.1-.53-.13a120.8 120.8 0 0 1 9.61-18.09zM37.05 106.86a.54.54 0 0 0-.26.2 2.84 2.84 0 0 1-.25.39c-.69 0-1.41 0-2.1-.08a.46.46 0 0 1-.42-.31.2.2 0 0 1 .11.06.35.35 0 0 0 .51-.21c.8 0 1.59-.02 2.41-.05z"/><path class="cls-1" d="M34.13 106.58a.55.55 0 0 1 .31-.13h.15a.44.44 0 0 0 0 .15.42.42 0 0 1 0 .31.35.35 0 0 1-.51.21.2.2 0 0 0-.11-.06.46.46 0 0 1 .16-.48zM27.85 126a.42.42 0 0 1-.28.59c.1-.17.18-.38.28-.59z"/><path class="cls-1" d="M27.26 126.19a3.13 3.13 0 0 1 .2-.49h.11a.35.35 0 0 1 .28.3c-.1.18-.18.39-.28.59a1.53 1.53 0 0 1-.49.08 2.6 2.6 0 0 1 .18-.48z"/><path class="cls-1" d="M27.05 126.7a1.53 1.53 0 0 0 .49-.08c-1.69 3.36-4 8.08-2.77 10.61-.13 0-.28-.07-.41-.1a.18.18 0 0 0-.13 0c-1.07-2.1 1.75-7.74 2.36-9.36.16-.33.28-.71.46-1.07zM27.46 125.7a3.13 3.13 0 0 0-.2.49h-.57c.06-.18.13-.36.21-.57.2-.02.38.03.56.08z"/><path class="cls-1" d="M27.26 126.19a2.6 2.6 0 0 0-.21.51 6 6 0 0 1-.61 0 4.83 4.83 0 0 1 .25-.58c.21.04.41.07.57.07z"/><path class="cls-1" d="M27.05 126.7c-.18.36-.3.74-.46 1.1-.61 1.62-3.43 7.26-2.36 9.36a.16.16 0 0 0 0 .3 5.62 5.62 0 0 0 .61.29.33.33 0 0 1-.56 0c-1.9-3 .67-7.26 1.79-10.08.13-.3.26-.64.39-1a6 6 0 0 0 .59.03zM26.9 125.57c-.08.21-.15.39-.21.57-2.76-.26-7.69-1.85-8.61-4.29v-.74c.48.41.59 1.21 1.1 1.67a9.67 9.67 0 0 0 3 1.74 31.24 31.24 0 0 0 4.72 1.05z"/><path class="cls-1" d="M26.69 126.14a4.83 4.83 0 0 0-.25.58 14 14 0 0 1-5.85-1.87 10.32 10.32 0 0 1-2.56-2.1v-.9c.97 2.44 5.9 4.03 8.66 4.29zM24.34 137.31a2.45 2.45 0 0 0 .56.23.3.3 0 0 1-.08.21 5.62 5.62 0 0 1-.61-.29.16.16 0 0 1 0-.3l.08.15z"/><path class="cls-1" d="M24.85 137.39a.44.44 0 0 1 0 .15 2.45 2.45 0 0 1-.56-.23l-.08-.15a.18.18 0 0 1 .13 0c.13 0 .28.08.41.1s.07.08.1.13zM22.05 82.15a.4.4 0 0 0-.07.64c-4.05 1.46-10.1-1-10.74-5.61a6.17 6.17 0 0 1 0-1.13c.36-3.36 4.33-6 7.15-3.56-.25.05-.36.48 0 .56a1.79 1.79 0 0 0 .49.08.56.56 0 0 1-.9.38c-2.95-2.3-6.85 1.82-4.92 4.8 1.82 2.81 5.76 4.71 9 3.2a.6.6 0 0 1 .85.64h-.64a.32.32 0 0 0-.22 0z"/><path class="cls-1" d="M22.57 82.53a3.91 3.91 0 0 1-.59.26.4.4 0 0 1 .07-.64.32.32 0 0 1 .16 0h.64a.43.43 0 0 1-.26.38zM24.93 70.21c-2 1.61-4.46 3.17-6.21 2.66a.11.11 0 0 0 0-.1 2 2 0 0 0-.31-.28h.13c1.82.33 4.08-.67 6.39-2.28z"/><path class="cls-1" d="M18.72 72.87a.34.34 0 0 1 .11.26 1.79 1.79 0 0 1-.49-.08c-.34-.08-.23-.51 0-.56a2 2 0 0 1 .31.28.11.11 0 0 1 .07.1zM17.77 121.09a.81.81 0 0 0-.12 1.07c-.21 1.87-.64 4.79-1.59 5.1-1.8.56-3.54-4.23-4-5.33a56.49 56.49 0 0 1-3.49-11.54c0-.2-.08-.41-.1-.61-.87-4.59-1.05-9.43-1.47-14.12A120.35 120.35 0 0 1 6.6 81a112 112 0 0 1 4.64-28.38c.18-.15.34-.28.52-.41A145.39 145.39 0 0 0 8 75.79a127.9 127.9 0 0 0-.08 19.87c.51 7.25.82 14.64 3.13 21.61.82 2.43 1.61 5.48 3 7.71 2.58 4 3.46-4.23 3.46-4.18.05-.43.71-.43.66 0v.26A.26.26 0 0 0 18 121a.12.12 0 0 0-.13 0c-.07 0-.1 0-.1.09z"/><path class="cls-1" d="M18.08 121.8v.9a3.69 3.69 0 0 1-.38-.56c.05-.43.1-.82.12-1.07 0 0 0-.08.08-.11a.12.12 0 0 1 .13 0 .26.26 0 0 1 .13.1c-.05.21-.08.46-.08.74z"/><path class="cls-1" d="M17.65 122.19a3.69 3.69 0 0 0 .38.56c-.13 2.31-.54 5.18-2.87 4.9-3.59-.41-6.23-12.31-6.77-14.69C4 93.56 4.29 71.9 10.7 53c.18-.13.34-.28.52-.41A112 112 0 0 0 6.6 81 120.35 120.35 0 0 0 7 95.66c.41 4.69.59 9.53 1.46 14.15 0 .2.08.41.1.61a56.49 56.49 0 0 0 3.5 11.58c.46 1.1 2.2 5.89 4 5.33.94-.33 1.38-3.27 1.59-5.14z"/><path class="cls-1" d="M17.77 121.09c0 .25-.07.64-.12 1.07a.81.81 0 0 1 .12-1.07zM14.19 7.3a.15.15 0 0 1 0 .13c-.26.26-.52.49-.77.74a.24.24 0 0 1-.23 0c.3-.26.58-.51.89-.8s.08-.04.11-.07z"/><path class="cls-1" d="M14.19 7.3h-.08l-.43.23c.12-.1.28-.2.41-.3s.1.02.1.07zM13.65 7.58l.43-.23c-.31.29-.59.54-.89.8a.23.23 0 0 1-.19-.08c.24-.18.44-.33.65-.49zM13.19 8.15a.24.24 0 0 0 .23 0 81.36 81.36 0 0 0-12 14.26c0-.06-.05-.13-.08-.18A.29.29 0 0 0 1 22c2.91-5.26 7.57-9.9 12.19-13.85z"/><path class="cls-1" d="M13 8.07a.23.23 0 0 0 .16.08C8.57 12.1 3.91 16.74 1 22a.34.34 0 0 0-.44.41c0 .18.08.36.1.54a.46.46 0 0 1-.33-.64C2.91 16.56 8.06 11.89 13 8.07zM11.26 52.57c-.18.13-.34.28-.52.41a.19.19 0 0 1 .06-.2.42.42 0 0 0 .36-.31c0-.16 0-.31.07-.46l.34-.34a.36.36 0 0 1 .23.44c-.2.18-.36.31-.54.46zM11.55 51.67l-.34.34a1.33 1.33 0 0 0 0-.34.3.3 0 0 1 .34 0zM11.16 45.78a14.79 14.79 0 0 1 .15 5.56 5.75 5.75 0 0 0-.64.69v-5.92A.43.43 0 0 0 11 46a1 1 0 0 1 .16-.22zM11.29 45a.53.53 0 0 1-.15.67.43.43 0 0 0-.26-.23 3.44 3.44 0 0 1 .41-.44z"/><path class="cls-1" d="M10.67 52a5.75 5.75 0 0 1 .64-.69 1.26 1.26 0 0 1-.05.33.28.28 0 0 0-.2.23 2.47 2.47 0 0 0-.11.36 2.34 2.34 0 0 0-.15.49.4.4 0 0 1-.54-.29c.11-.09.26-.24.41-.43zM10.57 45.11a2.84 2.84 0 0 1 .49-.49 1.53 1.53 0 0 0 .18.29v.07a3.44 3.44 0 0 0-.41.44.45.45 0 0 0-.64.2.37.37 0 0 1 .13-.3z"/><path class="cls-1" d="M11.26 51.67a1.33 1.33 0 0 1 0 .34 1.23 1.23 0 0 0-.26.25 2.47 2.47 0 0 1 .11-.36.28.28 0 0 1 .15-.23z"/><path class="cls-1" d="M11.21 52c0 .15-.05.3-.07.46a.42.42 0 0 1-.36.31 2.34 2.34 0 0 1 .15-.49 1.23 1.23 0 0 1 .28-.28zM11.16 45.73v.05A1 1 0 0 0 11 46a.43.43 0 0 1-.31.15v-.2a.7.7 0 0 0 .47-.24.13.13 0 0 1 0 .02z"/><path class="cls-1" d="M10.88 45.42a.43.43 0 0 1 .26.23.7.7 0 0 1-.47.24.48.48 0 0 1-.41-.18v-.08a.45.45 0 0 1 .62-.21zM11.06 44.62a2.84 2.84 0 0 0-.49.49C5.68 39 3.27 30.35 1.09 22.81a2.27 2.27 0 0 1 .26-.35C4.42 30 6.39 37.75 11.06 44.62zM10.78 52.78a.19.19 0 0 0-.06.2c-.36.26-.77-.15-.46-.49a.4.4 0 0 0 .52.29zM10.67 46.11V52c-.15.16-.3.31-.43.46a16.12 16.12 0 0 1 0-6.74.45.45 0 0 0 .43.39z"/><path class="cls-1" d="M10.67 45.91v.2a.45.45 0 0 1-.41-.38.48.48 0 0 0 .41.18zM10.57 45.11l-.2.21a.37.37 0 0 0-.13.3.09.09 0 0 0 0 .08C4.93 39.45 2.21 31 .7 23a.41.41 0 0 0 .39-.18C3.27 30.35 5.68 39 10.57 45.11z"/><path class="cls-1" d="M10.24 45.62v.08a.09.09 0 0 1 0-.08zM1.09 22.81A.41.41 0 0 1 .7 23c0-.18-.07-.36-.1-.54A.34.34 0 0 1 1 22a.29.29 0 0 1 .25.21c0 .05.05.12.08.18a2.27 2.27 0 0 0-.26.35z"/><path class="cls-7" d="M10.35 19.52c7.59 0 20.71-5.52 31.07-6.21 11-.69 23.48-1.38 34.53.69"/><path class="cls-5" d="M10.35 19.94c9.72.74 19.64-4.25 29.22-5.52 12.23-1.61 24.24.47 36.38.17a.59.59 0 0 0 .15-1.16c-10.68-4-25.39-2-36.53-.9-10 1-19.44 5-29.33 6.59-.5.08-.33.79.11.82z"/><path class="cls-7" d="M44.18 5.71c1.38 2.08 1.38 13.81 2.07 18.65a9.53 9.53 0 0 1 2.08-2.76"/><path class="cls-5" d="M44.15 5.73v.34a1 1 0 0 0-.48.84c.3 3 .38 6 .53 9 .14 2.71-.26 6.25.8 8.79a1.32 1.32 0 0 0 2.53 0 8.08 8.08 0 0 1 1.34-2.8c.35-.5-.35-1.21-.85-.85a19.51 19.51 0 0 0-2.69 2.37c.74.42 1.47.85 2.2 1.28.39-2.81-.3-6-.51-8.79-.23-3.12-.36-6.3-1.43-9.27a1 1 0 0 0-.94-.72l-.42-.24h-.07zM82.05 47.32c-4.62.15-5.39-9.54-.46-6 1.38 1.08 3.84 6.77.15 6.31"/><path class="cls-7" d="M82.05 47.32c-4.62.15-5.39-9.54-.46-6 1.38 1.08 3.84 6.77.15 6.31"/><path class="cls-5" d="M82.31 46.87a12.84 12.84 0 0 1-1.83-.64 3.88 3.88 0 0 1-1.37-1.82c-.32-.8-.83-2.89.29-3.34 1.49-.62 2.78 1.74 3.21 2.76a5.82 5.82 0 0 1 .5 2.29c0 1.07-.93.72-1.58 1.14a.44.44 0 0 0-.09.67 1.7 1.7 0 0 0 2.44-.51 3.84 3.84 0 0 0 0-3.2c-.6-1.86-2.08-4.3-4.37-4.14-2 .14-2 2.65-1.67 4.05.37 1.69 2.35 4.61 4.44 3.64a.52.52 0 0 0 0-.9zM88.82 47.63c-1.85-.16-2.46-4.62-.16-4.16 1.7.31 2.31 3.85.16 4"/><path class="cls-7" d="M88.82 47.63c-1.85-.16-2.46-4.62-.16-4.16 1.7.31 2.31 3.85.16 4"/><path class="cls-5" d="M89 47.49c-.9-.71-2.07-2.33-1-3.46.74-.8 1.57.8 1.7 1.3.25 1-.43 1.33-1 2a.22.22 0 0 0 0 .34c1.27.88 2-1 2-2A2.61 2.61 0 0 0 88.24 43c-2.65.05-1.44 5.59.63 4.84.13 0 .22-.23.09-.33z"/></g></g></svg>