<svg xmlns="http://www.w3.org/2000/svg" viewBox="0 0 141.41 150.08"><defs><style>.cls-1{fill:#1d3033;stroke:#1d3033;stroke-linecap:round;stroke-linejoin:round;stroke-width:.66px}.cls-2{fill:#e98d4b}.cls-4{fill:#2e5731}.cls-5{fill:#308d3a}.cls-6{fill:#818e30}.cls-7{fill:#ec7b7b}</style></defs><g id="レイヤー_2" data-name="レイヤー 2"><g id="レイヤー_3" data-name="レイヤー 3"><path class="cls-1" d="M139.73 40.71a.32.32 0 0 0 .33-.41 11.22 11.22 0 0 1 .9.92.43.43 0 0 1-.52.67 21.36 21.36 0 0 1-4.1-3.33c-1-.9-2-1.8-2.92-2.74 0-.16 0-.31.05-.44 2 1.69 3.87 3.41 5.95 5.13.05.12.13.2.23.2h.08zM134 52.27c3.9 2.43 7.79 7.51 6 12.28-2.59 6.76-8.23 9.48-13.33 13.89-.16-.08-.34-.15-.49-.21 2-2.3 5.23-3.3 7.36-5.69 2.64-2.94 5.48-5.53 6.18-9.63.64-3.8-2.8-8-5.77-10.33a2.22 2.22 0 0 0 .05-.31z"/><path class="cls-1" d="M139.52 39.81a1.9 1.9 0 0 1 .51.44.32.32 0 0 1-.33.41h-.08c-.08 0-.16-.13-.23-.2-.13-.36-.26-.72-.41-1.11a2.64 2.64 0 0 1 .54.46z"/><path class="cls-1" d="M140 40.25a1.9 1.9 0 0 0-.51-.44c-2.33-7.23-6.61-18.28-15-20.2 0-.08 0-.15-.06-.23 9.2 1.56 13.35 13.05 15.57 20.87zM133.91 52.58c3 2.35 6.41 6.53 5.77 10.33-.7 4.1-3.54 6.69-6.18 9.63-2.13 2.39-5.31 3.39-7.36 5.69a4.14 4.14 0 0 0-.43-.2c3.15-3.38 7.27-5.51 10.22-9.2 5.08-6.38 2.31-11-2.43-16.12a.28.28 0 0 0 .41-.13zM139.42 40.48c.07.07.15.12.23.2-.1 0-.18-.08-.23-.2zM139 39.37c.15.39.28.75.41 1.11-2.08-1.72-4-3.44-5.95-5.13 0-.15 0-.31.05-.44 1.23.93 2.39 1.9 3.54 2.88.65.53 1.32 1.02 1.95 1.58z"/><path class="cls-1" d="M139.52 39.81a2.64 2.64 0 0 0-.51-.44c-2.85-7.69-6.2-16.48-14.43-19.45v-.31c8.33 1.92 12.61 12.97 14.94 20.2z"/><path class="cls-2" d="M139 39.37c-.64-.56-1.31-1-1.95-1.58-1.15-1-2.31-1.95-3.54-2.88v-.07a.24.24 0 0 0-.38-.21l-.07-.07c-.29-.24-.62.25-.39.51a1.12 1.12 0 0 0 .21.18c-.47 1.36-.75 2.79-1.08 4.18-.44 1.79-1.13 3.46-1.56 5.22A22.63 22.63 0 0 0 128 42.3a13.36 13.36 0 0 0-2.75-2.52c.18-1.56.26-3.15.29-4.76a79.75 79.75 0 0 0-1-15.1c8.27 2.97 11.62 11.76 14.46 19.45z"/><path d="M133.5 52.68c4.74 5.07 7.51 9.74 2.43 16.12-3 3.69-7.07 5.82-10.22 9.2a34.86 34.86 0 0 0-10.28-2.82c.79-1.18 1.48-2.62 2.33-3.64 1.23 1.23 2.25 2.77 3.84 3.51a.59.59 0 0 0 1.1-.29c.72-8.1 2.18-17.14.72-25.24v-.06a57.83 57.83 0 0 0 1.72-9c.54.77 1.2 1.46 1.77 2.16a8.49 8.49 0 0 0 3 2.84c.31.1.69-.13.59-.43a.3.3 0 0 0 .25-.13 12.17 12.17 0 0 0 1.39-2.85c.1.64.2 1.26.31 1.85.41 2.66.36 5.41.79 8a.3.3 0 0 0 0 .38l.08.08s.05 0 .05.08a.13.13 0 0 0 .13.24zm-2.11 3.13c.26-1.52 1.7-8.36-1.4-7.77-2.57.48-.54 7.33.59 8.46.25.28.79-.11.53-.41a.3.3 0 0 0 .28-.28z" fill="#f7e5d7"/><path class="cls-1" d="M135.14 85.21a.55.55 0 0 0 .05-.72.54.54 0 0 1 .54.77c-2.21 4.53-6.31 8.33-10.49 11a.42.42 0 0 1-.28.11 1.86 1.86 0 0 0-.1-.39.28.28 0 0 0-.51-.1.61.61 0 0 1 .12-.64c3.34-3.36 6.92-6.33 9.92-10a.55.55 0 0 0 .75-.03z"/><path class="cls-1" d="M135.19 84.49a.55.55 0 0 1-.05.72.55.55 0 0 1-.69.1c.18-.2.33-.43.51-.64a.33.33 0 0 1 .23-.18z"/><path class="cls-1" d="M115.14 75.59c.11-.12.18-.25.29-.38A34.86 34.86 0 0 1 125.71 78a.46.46 0 0 0 .66.64l.26-.23a29.54 29.54 0 0 1 8.51 6s.05 0 .05.08a.33.33 0 0 0-.26.15c-.18.21-.33.44-.51.64-2.92-1.84-5.53-4.07-8.66-5.64a47.74 47.74 0 0 0-10.9-3.64 2.64 2.64 0 0 0 .28-.41zM134.24 46.24c.26 2 .59 4.1-.23 6-.1-.08-.23-.16-.33-.23.48-3.54-.57-7.95-1.11-11.41a8.68 8.68 0 0 0 .34-1.38 42.31 42.31 0 0 1 1.33 7.02zM134 52.27a2.22 2.22 0 0 1-.1.31c-.1-.06-.18-.13-.28-.18a1.88 1.88 0 0 0 .05-.33c.11.04.24.12.33.2z"/><path class="cls-1" d="M133.63 52.37c.1.05.18.12.28.18a.28.28 0 0 1-.41.1c-.05 0-.08-.08-.13-.1s0-.06-.05-.08 0-.31-.08-.46a.26.26 0 0 1 .33 0 .27.27 0 0 0 .11 0 1.88 1.88 0 0 1-.05.36z"/><path class="cls-1" d="M132.57 40.63c.54 3.46 1.59 7.87 1.11 11.41a.27.27 0 0 1-.11 0 .26.26 0 0 0-.33 0c-.43-2.64-.38-5.39-.79-8-.11-.59-.21-1.21-.31-1.85a9.74 9.74 0 0 0 .43-1.56zM133.14 34.63a.24.24 0 0 1 .38.21v.07a3.08 3.08 0 0 1-.38-.28zM133.22 35.12a2.39 2.39 0 0 0-.26-.21.88.88 0 0 1 0-.15.32.32 0 0 1 .1-.13 3.08 3.08 0 0 0 .38.28c0 .13 0 .29-.05.44 0-.08-.1-.15-.17-.23zM133.37 52.58s.08.07.13.1a.13.13 0 0 1-.13-.1z"/><path class="cls-1" d="M133.47 35.35c0 .13 0 .28-.05.44a4 4 0 0 1-.31-.29 2 2 0 0 1 .11-.38c.07.08.17.15.25.23z"/><path class="cls-1" d="M133.11 35.5a4 4 0 0 0 .31.29 33.12 33.12 0 0 1-.51 3.41c-.1-.31-.21-.62-.34-.93v-.05c.16-.9.36-1.82.54-2.72zM133.24 52c0 .15 0 .3.08.46l-.08-.08a.3.3 0 0 1 0-.38zM133.22 35.12a2 2 0 0 0-.11.38 1 1 0 0 1-.25-.25 1.22 1.22 0 0 1 .1-.34 2.39 2.39 0 0 1 .26.21z"/><path class="cls-1" d="M133 34.91a1.22 1.22 0 0 0-.1.34 1.12 1.12 0 0 1-.21-.18c-.23-.26.1-.75.39-.51l.07.07a.32.32 0 0 0-.1.13.88.88 0 0 0-.05.15zM132 40.63a10.82 10.82 0 0 0 .18 1.49 12.17 12.17 0 0 1-1.43 2.88.3.3 0 0 1-.25.13c0-.06 0-.08-.05-.13a4 4 0 0 1-.23-.34c.43-1.76 1.12-3.43 1.56-5.22.33-1.39.61-2.82 1.08-4.18a1 1 0 0 0 .25.25c-.18.9-.38 1.82-.59 2.72a.24.24 0 0 0-.43.05 7.12 7.12 0 0 0-.09 2.35z"/><path class="cls-1" d="M132.91 39.2a8.68 8.68 0 0 1-.34 1.38c-.07-.58-.15-1.15-.2-1.66a2.69 2.69 0 0 0 .15-.67v.05c.18.28.29.59.39.9z"/><path class="cls-1" d="M132.57 40.6a9.74 9.74 0 0 1-.43 1.49 10.82 10.82 0 0 1-.18-1.49c.15-.56.28-1.13.41-1.69.05.54.13 1.09.2 1.69z"/><path class="cls-1" d="M132.37 38.89c-.13.56-.26 1.13-.41 1.69a7.12 7.12 0 0 1 .13-2.36.24.24 0 0 1 .43-.05 2.69 2.69 0 0 1-.15.72zM130 48c3.1-.59 1.66 6.25 1.4 7.77a.3.3 0 0 1-.28.28 3 3 0 0 1-.15-.26v-.13c.18-1.13 1.13-7.18-.59-7.18-2.08-.21-.56 6.82.39 7.77l.07-.18a.45.45 0 0 0 .23 0c.26.3-.28.69-.53.41-1.09-1.11-3.12-7.96-.54-8.48z"/><path class="cls-1" d="M130.42 48.5c1.72 0 .77 6 .59 7.18v.13a2.77 2.77 0 0 1-.31-.62c.16-1 .28-2 .34-3a8.54 8.54 0 0 0-.11-2.26c0-.25-.43-1.38-.77-.69-.51 1.1-.18 2.74 0 3.87a15.73 15.73 0 0 0 .49 2.13 1.58 1.58 0 0 1-.05.38.46.46 0 0 0 .28.52l-.07.18c-.95-1-2.47-8.03-.39-7.82z"/><path class="cls-1" d="M131 55.83a3 3 0 0 0 .15.26.45.45 0 0 1-.23 0zM130.88 49.88a8.54 8.54 0 0 1 .11 2.26c-.06 1-.18 2-.34 3a15.73 15.73 0 0 1-.49-2.13c-.23-1.13-.56-2.77 0-3.87.29-.64.67.49.72.74zM131 55.81l-.08.26a.46.46 0 0 1-.28-.52 1.58 1.58 0 0 0 .05-.38 2.77 2.77 0 0 0 .31.64zM125.22 40.12a1.56 1.56 0 0 0 0-.31A13.36 13.36 0 0 1 128 42.3a22.63 22.63 0 0 1 2.23 2.35.1.1 0 0 0 0 .08.29.29 0 0 0 .31.39c.1.3-.28.53-.59.43a8.49 8.49 0 0 1-3-2.84c-.57-.7-1.23-1.39-1.77-2.16a2.55 2.55 0 0 0 .04-.43z"/><path class="cls-1" d="M130.45 45s.05.07.05.13a.29.29 0 0 1-.31-.39.1.1 0 0 1 0-.08 4 4 0 0 0 .26.34zM40.91 142.6c.44-.23.85-.44 1.28-.62 6.39 4.28 16.89 4.21 24.12 4.72 7.46.54 15 1.23 22.43 1.28 7.08.05 14.2-.82 21.25-1.46 5.92-.54 12.05-.82 17.69-2.92a.1.1 0 0 0 0 .07.2.2 0 0 0 .36-.1.37.37 0 0 1 0 .62c-4.84 2.41-10.25 3-15.58 3.69-7.77 1-15.92 2.07-23.74 1.84-8.28-.25-16.56-.84-24.76-1.77-3.2-.35-6.41-.71-9.56-1.3-4.38-.82-9.1-2.75-13.56-2.8-2.13 0-1.13-3 .28-2.56a12.09 12.09 0 0 0-1.13.79c-.41.34.11.9.52.7a2.18 2.18 0 0 1 .4-.18z"/><path class="cls-1" d="M128.09 143.39a.28.28 0 0 1 0 .18.59.59 0 0 0-.21 0c-1.61-1.23-1.12-6.08-1.07-7.84.13-4.21 0-8.31-.21-12.54-.2-6.48.18-13.15-.56-19.43-.39-2.56-1.44-4.89-1.49-7.43a.69.69 0 0 0 .41.13c2.26 7.3 2.46 14.17 2.51 21.84 0 5 .36 10 .11 14.91-.16 2.95-1.16 7.49.51 10.18z"/><path class="cls-1" d="M127.88 143.52a.59.59 0 0 1 .21 0 .2.2 0 0 1-.36.1.1.1 0 0 1 0-.07.69.69 0 0 1 .13 0zM127.88 143.52h-.07a.69.69 0 0 0-.13 0c-3.38-4-1.62-13.2-1.87-17.95 0-1.05-.1-2.12-.1-3.17-.13-4.67.05-9.33-.24-14-.23-4.13-1.71-8.28-1.23-12.38 0-.08.06-.13.11-.18a.68.68 0 0 0 .2.36c0 2.54 1.1 4.87 1.49 7.43.74 6.28.36 13 .56 19.43.18 4.23.34 8.33.21 12.54-.05 1.84-.54 6.69 1.07 7.92z"/><path class="cls-4" d="M125.73 79.64c3.13 1.57 5.74 3.8 8.66 5.64-3 3.67-6.58 6.64-9.92 10a.61.61 0 0 0-.12.64s-.11.1-.11.18c-.48 4.1 1 8.25 1.23 12.38.29 4.67.11 9.33.24 14h-.9c0-5.87-2.62-12-5.72-16.71-7.46-11.11-21.89-16.31-34.86-16.46a62.71 62.71 0 0 0 10.51-2.82.11.11 0 0 0-.08.1c-.25 1.33 1 2.56 1.9 3.46a.59.59 0 0 0 .82 0c1.1-1.08 2.18-2.15 3.18-3.31.49-.59 1-1.18 1.38-1.76s.82-1.82 1.46-2.08a1.46 1.46 0 0 0 .7-.59 55.87 55.87 0 0 0 3.35 8.15.53.53 0 0 0 .9 0c1.9-4.25 4-8.72 5.2-13.33a5 5 0 0 0 1.31-1.13 47.74 47.74 0 0 1 10.87 3.64z"/><path class="cls-1" d="M126.14 78.23c.15.06.33.13.49.21l-.26.23a.46.46 0 0 1-.66-.64 4.14 4.14 0 0 1 .43.2z"/><path class="cls-4" d="M125.81 125.65c.25 4.75-1.51 13.95 1.87 17.95-5.68 2.1-11.77 2.4-17.68 2.92-7 .64-14.17 1.51-21.25 1.46-7.48 0-15-.74-22.43-1.28-7.23-.51-17.73-.44-24.12-4.72 5.9-2.59 12-2.95 18.13-5a.7.7 0 0 0 .46-.84s.07-.08.1-.1a66.24 66.24 0 0 0 2.79-6.13 19 19 0 0 0 1.77-5.28 28.13 28.13 0 0 1 4.9 3.59c6.25 5.71 10.87 10.94 18.89 14.3 6.33 2.64 15.74 3 21.94-.33 6.36-3.36 12.2-9.46 13.41-16.69a19.6 19.6 0 0 0 .23-3h.9c-.01 1.03.04 2.1.09 3.15z"/><path class="cls-1" d="M124.58 19.92a79.75 79.75 0 0 1 1 15.1c0 1.61-.11 3.2-.29 4.76a.72.72 0 0 0-.23-.12c-.15-.08-.36.1-.25.25a7.36 7.36 0 0 0 .41.62 57.83 57.83 0 0 1-1.72 9c0-.3-.1-.58-.15-.87 0-.1-.08-.15-.18-.13 1.59-4.46 1.59-8.79 1.64-13.48a74.89 74.89 0 0 0-1.39-15c-.74-4-1.36-8.63-4.07-11.81C113.09 1 99.94-.2 91.23 2.23A29.34 29.34 0 0 0 83 6.59a33.27 33.27 0 0 0-3.33 2.05.35.35 0 0 1-.08 0c-2.05 1.23-4.28 2.72-4.92 4.49a.83.83 0 0 0-.28 0c1.46-3.26 4.77-4.44 7.61-6.46 4.38-3.16 8.41-5.18 13.79-6 7-1 16.2.06 21.76 4.85 3.87 3.31 5.92 8.41 7 13.84a5 5 0 0 0-.66-.1c-.21 0-.23.31 0 .36a7.19 7.19 0 0 1 .69.3z"/><path class="cls-1" d="M125.22 40.09a2.55 2.55 0 0 1 0 .41 7.36 7.36 0 0 1-.41-.62c-.11-.15.1-.33.25-.25a.72.72 0 0 1 .23.12 1.56 1.56 0 0 1-.07.34zM124.55 96.28a.68.68 0 0 1-.2-.36.28.28 0 0 1 .51.1 1.86 1.86 0 0 1 .1.39.69.69 0 0 1-.41-.13zM123.37 20.07a74.89 74.89 0 0 1 1.39 15c-.05 4.69-.05 9-1.64 13.48a.23.23 0 0 0-.26.21v.87a47.23 47.23 0 0 1-1.36 4.76c-.9 2.23-2.18 4.28-3 6.54a63.4 63.4 0 0 1-4.07 8.87.33.33 0 0 0-.52.25 5.35 5.35 0 0 1-.07.7A32 32 0 0 1 104.12 81a1 1 0 0 0-.41-.38.84.84 0 0 0-.49-.16 35.38 35.38 0 0 0 12.18-14.3c3.79-8.28 8.23-17.3 8.49-26.56a86.49 86.49 0 0 0-.8-16.86c-.51-2.95-.82-6.72-2-9.82a10.66 10.66 0 0 0-1.43-2.84c-5.36-7.54-16.51-9.54-25.2-7.9A43.58 43.58 0 0 0 83 6.59a29.34 29.34 0 0 1 8.28-4.36C99.94-.2 113.09 1 119.3 8.26c2.7 3.18 3.33 7.81 4.07 11.81zM124.81 122.5a19.6 19.6 0 0 1-.23 3c-1.21 7.23-7 13.33-13.41 16.69-6.2 3.3-15.61 3-21.94.33-8-3.36-12.64-8.59-18.89-14.3a28.13 28.13 0 0 0-4.9-3.59c0-.18 0-.39.08-.56a.21.21 0 0 0-.38-.11 2.26 2.26 0 0 0-.18.39 69.64 69.64 0 0 0-9.49-4.16 11.58 11.58 0 0 1-5-3.48c-3.39-4.38-5-11.31-1.62-16.07h.1c-1.74 2.13-1.66 4.66-1.4 7.46a14.84 14.84 0 0 0 1.53 5.69c2.21 4.1 5.21 5.64 9.59 6.89a28.2 28.2 0 0 1 7.46 3.39c6.18 4 9.87 10.53 16.25 14.35 7.15 4.31 13.56 6.41 22 5.05 4.69-.77 7.31-1.56 10.9-4.66a38.3 38.3 0 0 0 6.72-7.31 13.89 13.89 0 0 0 2.18-8.33c-.46-21.56-20.71-33.53-40.55-33.74a4.38 4.38 0 0 0 .61-.12c13 .15 27.4 5.35 34.86 16.48 3.09 4.69 5.71 10.84 5.71 16.71zM124.53 19.61v.31a7.19 7.19 0 0 0-.82-.28c-.18-.05-.16-.39 0-.36a5 5 0 0 1 .66.1c.13.08.13.15.16.23z"/><path class="cls-1" d="M124.17 123.17a13.89 13.89 0 0 1-2.17 8.33 38.3 38.3 0 0 1-6.74 7.36c-3.59 3.1-6.21 3.89-10.9 4.66-8.43 1.36-14.84-.74-22-5.05-6.38-3.82-10.07-10.38-16.25-14.35a28.2 28.2 0 0 0-7.46-3.39c-4.38-1.25-7.38-2.79-9.59-6.89a14.84 14.84 0 0 1-1.53-5.69c-.26-2.8-.34-5.33 1.4-7.46l.18.1c-2.66 4.43-1.53 11.79 2.11 15.35 2.82 2.75 6 3.26 9.53 4.69a33.61 33.61 0 0 1 11.74 8c5.41 5.62 11 11.08 18.76 13.28 6.26 1.79 15.08 2.28 20.82-1.54 8.43-5.64 13.53-13.84 10.76-24.17a31 31 0 0 0-8.53-14.87c-8.59-8-19.64-11.43-31.22-12a.12.12 0 0 1-.08 0 3.09 3.09 0 0 0 .56-.11h.06c19.84.22 40.09 12.19 40.55 33.75z"/><path class="cls-5" d="M123.09 22.74a86.49 86.49 0 0 1 .8 16.86c-.26 9.26-4.7 18.28-8.49 26.56a35.38 35.38 0 0 1-12.18 14.25 1.32 1.32 0 0 0-1.35.9 49.12 49.12 0 0 1-33.58 6.54c-14.72-2.47-18.77-20.2-19.51-33l.41.64c3.18 5 6.67 10.84 12.2 13.38 9.2 4.2 22.51-.57 29.81-6.67a.38.38 0 0 0 .16-.3 26.52 26.52 0 0 0 10.92-10.46 9.07 9.07 0 0 0 1.12-4.39c3.54 2.23 13.85 1 15.92.65a.5.5 0 0 0 .31-.72c-2.38-4.69-5.31-10.64-10.87-11.1a16.6 16.6 0 0 0 3.9-2.36c5.92-5 6.61-12.71 6.51-20a.89.89 0 0 0-.23-.52l2.2-.1c1.13 3.1 1.44 6.89 1.95 9.84z"/><path class="cls-1" d="M123.45 49.58c1.46 8.1 0 17.14-.72 25.24a.59.59 0 0 1-1.1.29 2.29 2.29 0 0 1 .23.1.4.4 0 0 0 .38-.67l-.1-.1c0-7.77 1.41-16.46 1-23.91.13-.31.21-.62.31-.95z"/><path class="cls-1" d="M123.3 48.65c0 .29.1.57.15.87v.06c-.1.33-.18.64-.28 1a17.79 17.79 0 0 0-.11-1.82.47.47 0 0 1 .06-.19c.1-.07.15-.02.18.08z"/><path class="cls-1" d="M123.17 50.53c.38 7.45-1 16.14-1 23.91-.23-.2-.43-.41-.64-.62-.33-7 .51-14.2 1.08-21.24v-.08c.17-.67.39-1.31.56-1.97z"/><path class="cls-1" d="M123.06 48.71a17.79 17.79 0 0 1 .11 1.82c-.18.66-.39 1.3-.59 2 .07-1 .15-2 .23-2.92.08-.34.19-.61.25-.9z"/><path class="cls-6" d="M122.83 116.4c2.77 10.33-2.33 18.53-10.76 24.17-5.74 3.82-14.56 3.33-20.82 1.54-7.76-2.2-13.35-7.66-18.76-13.28a33.61 33.61 0 0 0-11.74-8c-3.51-1.43-6.71-1.94-9.53-4.69-3.64-3.56-4.77-10.92-2.11-15.35 2.44 1.15 4.9 2.26 7.39 3.23 5.87 2.31 11.79 4.46 17.53 7.15 4 1.87 8.3 3.87 12.69 4.69a11.85 11.85 0 0 0 2.53 5.49c2.75 3.18 8.82 6.12 12.33 2.43 5-5.2-6.46-17.89-12.07-13a2.62 2.62 0 0 0-.9.39c-9.18-5.82-20.43-7.9-29.84-13.2-1.89-1.08-3.82-2.06-5.79-3a12 12 0 0 1 5.43-4.59 18.31 18.31 0 0 1 4-1.31c1.13-.26 2.31-.18 3.38-.51.7.25 1.44.49 2.18.69a37.7 37.7 0 0 0 15.03.29.12.12 0 0 0 .08 0c11.58.54 22.63 3.92 31.22 12a31 31 0 0 1 8.53 14.86z"/><path class="cls-1" d="M123.12 48.5a.47.47 0 0 0-.06.19c-.1.28-.17.56-.25.87v-.87a.23.23 0 0 1 .31-.19zM122.81 49.58c-.08 1-.16 1.94-.23 2.92v.08a109.35 109.35 0 0 1-5 12.48 49.36 49.36 0 0 1-3.08 5.71V70a.29.29 0 0 0-.12-.25 63.4 63.4 0 0 0 4.07-8.87c.82-2.26 2.1-4.31 3-6.54a47.23 47.23 0 0 0 1.36-4.76zM121.53 74.54v-.72c.21.21.41.42.64.62l.1.1a.4.4 0 0 1-.38.67 2.29 2.29 0 0 0-.23-.1.92.92 0 0 1 0-.26 1.32 1.32 0 0 0-.13-.31zM121.55 74.82a.92.92 0 0 0 0 .26c-1.59-.74-2.61-2.28-3.84-3.51a2 2 0 0 1 .33-.44 28.36 28.36 0 0 0 3.44 3.41 1.32 1.32 0 0 1 .07.28z"/><path class="cls-1" d="M121.5 73.82v.72a28.36 28.36 0 0 1-3.44-3.41c-.13-.15-.25-.25-.38-.38-.13.13-.23.25-.34.38h-.05c-1.41 1.54-2.28 3.51-3.59 5.13a11.45 11.45 0 0 0 .28-1.44c.31-.41.59-.82.84-1.2a20 20 0 0 1 2.41-3.26.6.6 0 0 1 .77 0c1.27 1.11 2.35 2.34 3.5 3.46z"/><path class="cls-2" d="M122.58 52.58c-.57 7-1.41 14.25-1.08 21.24-1.15-1.12-2.23-2.35-3.41-3.46a.6.6 0 0 0-.77 0 20 20 0 0 0-2.41 3.26c-.25.38-.53.79-.84 1.2a23.89 23.89 0 0 0 .43-4 49.36 49.36 0 0 0 3.08-5.71 109.35 109.35 0 0 0 5-12.53z"/><path class="cls-5" d="M121.14 12.92l-2.2.1a.84.84 0 0 0-.69-.18C112.5 14 105.81 14.05 102 19.18a17.38 17.38 0 0 0-2.64 5.1c-1.46-2.59-3.15-5.85-5.77-7.23-4.15-2.18-9.25-2.39-13.81-3.13-1.59-.26-3.18-.49-4.8-.69a16 16 0 0 1 4.54-4.54.35.35 0 0 0 .08 0c1-.56 1.89-1.1 2.56-1.54l.84-.56a43.58 43.58 0 0 1 11.46-4.41c8.69-1.64 19.84.36 25.25 7.9a10.66 10.66 0 0 1 1.43 2.84z"/><path class="cls-1" d="M119.63 47a.5.5 0 0 1-.31.72c-2.07.33-12.38 1.58-15.92-.65a3.19 3.19 0 0 0 0-1c3.1 2.61 12.87 1.69 15.81 1.2-3-5.92-4.69-10.3-11.17-11a5.53 5.53 0 0 0 .74-.33c5.54.41 8.47 6.36 10.85 11.06zM119.17 13.54c.1 7.28-.59 15-6.51 20a16.6 16.6 0 0 1-3.9 2.36 9 9 0 0 0-2.74.18c-.08 0 0 .1 0 .13l1.2.3a13.23 13.23 0 0 1-6.61.77 2.07 2.07 0 0 0 .31-.38 17.58 17.58 0 0 0 2.34-.34c3.53-.64 7.74-2.07 10.35-4.69 4.44-4.43 5-12.4 4.82-18.32-5 1.1-11.66 1.1-15.2 5.17a23.37 23.37 0 0 0-3.33 6.62.18.18 0 0 0 0-.13c-.18-.31-.36-.62-.51-.92a17.38 17.38 0 0 1 2.64-5.1c3.79-5.13 10.48-5.21 16.23-6.34a.84.84 0 0 1 .69.18.89.89 0 0 1 .22.51z"/><path class="cls-7" d="M118.68 46.81c-.43.08-.87.13-1.31.18a40.92 40.92 0 0 1-7.66.28 11.72 11.72 0 0 1-6.46-2.36 20.61 20.61 0 0 0-3.25-7.28 1.47 1.47 0 0 0 .59-.36 13.23 13.23 0 0 0 6.61-.77c3 .75 5.51 1.29 7.64 4a26.37 26.37 0 0 1 2.31 3.87c.41.75.79 1.52 1.18 2.26.12.1.22.13.35.18z"/><path class="cls-1" d="M117.37 47c.44-.05.88-.1 1.31-.18-.13-.05-.23-.08-.33-.13-.39-.74-.77-1.51-1.18-2.26a26.37 26.37 0 0 0-2.31-3.87c-2.13-2.76-4.61-3.3-7.64-4a7.08 7.08 0 0 0 .77-.28c6.48.72 8.12 5.1 11.17 11-2.94.49-12.71 1.41-15.81-1.2a5.44 5.44 0 0 0-.13-1.13 11.72 11.72 0 0 0 6.46 2.36 40.92 40.92 0 0 0 7.69-.31zM118.45 13.54c.18 5.92-.38 13.89-4.82 18.32-2.61 2.62-6.82 4-10.35 4.69a17.58 17.58 0 0 1-2.34.34 1 1 0 0 0-.56-1.49 2.42 2.42 0 0 1-1-1 7.75 7.75 0 0 0 7.46.61c5.3-2 9-5.33 10.12-11.07.54-2.62 2.82-9.84-1.43-9.15-3 .48-6.82.79-9.38 2.54s-9.39 13-6.77 17.07a5.52 5.52 0 0 1-.62-.41c-.41-2.36.16-5.49 1.11-8.38a.3.3 0 0 0 .1-.31 23.37 23.37 0 0 1 3.33-6.62c3.49-4.04 10.15-4.04 15.15-5.14zM117.71 70.75c.13.13.25.23.38.38h-.72c.11-.13.21-.25.34-.38zM118.09 71.13a2 2 0 0 0-.33.44 4 4 0 0 0-.41-.41z"/><path class="cls-1" d="M117.35 71.16a4 4 0 0 1 .41.41c-.85 1-1.54 2.46-2.33 3.64h-.49c-.49 0-.56.69-.13.79a5 5 0 0 1-1.31 1.18 4 4 0 0 0 .18-.82c1.39-1.69 2.26-3.66 3.67-5.2zM117.37 71.13z"/><path class="cls-7" d="M115.48 14.82c4.25-.69 2 6.53 1.43 9.15-1.15 5.74-4.82 9.03-10.12 11.03a7.75 7.75 0 0 1-7.46-.61c-2.62-4 4.2-15.33 6.77-17.07s6.38-2.02 9.38-2.5z"/><path class="cls-1" d="M115.14 75.59a2.64 2.64 0 0 1-.28.36c-.43-.1-.36-.84.13-.79h.49c-.16.18-.23.31-.34.43zM114.5 70v.77a3.67 3.67 0 0 1-.36.57c0-.41.06-.82.06-1.26a3.14 3.14 0 0 1 .18-.31.29.29 0 0 1 .12.23z"/><path class="cls-1" d="M114.14 71.34a3.67 3.67 0 0 0 .36-.57 23.89 23.89 0 0 1-.43 4c-.2.31-.43.62-.64 1a22.58 22.58 0 0 0 .71-4.43zM114.2 70.06l-.06.08a3.29 3.29 0 0 1-.35.54 5.35 5.35 0 0 0 .07-.7.33.33 0 0 1 .52-.25 3.14 3.14 0 0 0-.18.33z"/><path class="cls-1" d="M114.2 70.08c0 .44 0 .85-.06 1.26a5.19 5.19 0 0 1-.53.79c.07-.46.15-.94.18-1.43a3.29 3.29 0 0 0 .35-.54s.03-.05.06-.08z"/><path class="cls-1" d="M113.61 72.13a5.19 5.19 0 0 0 .53-.79 22.58 22.58 0 0 1-.74 4.46 4.53 4.53 0 0 0-.59 1.13c-.08.15 0 .28.18.31-1.26 4.12-3.28 8.09-4.82 12.17-.1-.26-.2-.54-.31-.79 1.93-5.57 4.8-10.62 5.75-16.49z"/><path class="cls-1" d="M114 74.85a11.45 11.45 0 0 1-.28 1.44 8.07 8.07 0 0 1-.64.67c.11-.36.21-.75.31-1.13.22-.36.45-.67.61-.98zM113.79 70.7c0 .49-.11 1-.18 1.43a35.85 35.85 0 0 1-9.26 9.56 1 1 0 0 0-.21-.72 32 32 0 0 0 9.65-10.27zM113.09 77a8.07 8.07 0 0 0 .64-.67 4 4 0 0 1-.18.82c-.1.05-.23.1-.33.16a.45.45 0 0 1-.23 0c0-.08.05-.18.08-.26s.02-.05.02-.05z"/><path class="cls-1" d="M113.22 77.29c.1-.06.23-.11.33-.16-1.17 4.61-3.3 9.08-5.2 13.33a.53.53 0 0 1-.9 0 55.87 55.87 0 0 1-3.35-8.15 1 1 0 0 0 .15-.33c1.31 2.33 2.18 5 3.33 7.48a5.1 5.1 0 0 0-.2.59h.46a.24.24 0 0 0 0 .13.69.69 0 0 0 0-.13h.46c-.07-.2-.15-.38-.23-.59 1.54-4.08 3.56-8 4.82-12.17a.45.45 0 0 0 .33 0z"/><path class="cls-1" d="M112.81 77a4.53 4.53 0 0 1 .59-1.13c-.1.38-.2.77-.31 1.13s0 .18-.08.26-.28-.13-.2-.26z"/><path class="cls-2" d="M113.61 72.13c-1 5.9-3.82 10.92-5.75 16.54a24.06 24.06 0 0 0-3.51-7 35.85 35.85 0 0 0 9.26-9.54z"/><path class="cls-1" d="M108 36.22a7.08 7.08 0 0 1-.77.28l-1.2-.3s-.08-.13 0-.13a9 9 0 0 1 2.74-.18 5.53 5.53 0 0 1-.74.33zM108.17 89.46c.08.21.16.39.23.59h-.46c.06-.2.13-.38.23-.59z"/><path class="cls-1" d="M108.17 89.46c-.1.21-.15.39-.23.59h-.1a6.21 6.21 0 0 1-.26-.59 4.91 4.91 0 0 1 .28-.79c.14.25.21.53.31.79zM107.94 90.05a.69.69 0 0 1 0 .13.24.24 0 0 1 0-.13z"/><path class="cls-1" d="M107.86 88.67a4.91 4.91 0 0 0-.28.79c-1.15-2.51-2-5.15-3.33-7.48a.33.33 0 0 0 0-.21 24.06 24.06 0 0 1 3.61 6.9z"/><path class="cls-1" d="M107.58 89.46a6.21 6.21 0 0 0 .26.59h-.46a5.1 5.1 0 0 1 .2-.59zM104.35 81.69v-.07zM102.66 82.82a4.41 4.41 0 0 1-.64.36 1 1 0 0 0 0-.85 19.41 19.41 0 0 0 2.1-1.33 1 1 0 0 1 .21.72.22.22 0 0 0-.33.26c-.47.28-.88.56-1.34.84z"/><path class="cls-1" d="M104.3 81.67v.07c-.13.08-.23.16-.33.21a.22.22 0 0 1 .33-.28z"/><path class="cls-1" d="M104.25 82a1 1 0 0 1-.15.33c-.06-.13-.08-.23-.13-.36s.2-.13.33-.21a.33.33 0 0 1-.05.24z"/><path class="cls-1" d="M96.59 89.2a5 5 0 0 0 .38.41l.41-.41c1.87-1.72 4.23-4 5.28-6.41.46-.28.87-.56 1.31-.87 0 .13.07.23.13.36a1.46 1.46 0 0 1-.7.59c-.64.26-1.05 1.54-1.46 2.08s-.89 1.17-1.38 1.76c-1 1.16-2.08 2.23-3.18 3.31a.59.59 0 0 1-.82 0c-.87-.9-2.15-2.13-1.9-3.46a.11.11 0 0 1 .08-.1l.18-.08a.18.18 0 0 1 .12 0c.93.41 1.39 1.51 2 2.35-.15.19-.3.35-.45.47zM103.71 80.57a1 1 0 0 1 .41.38 19.41 19.41 0 0 1-2.12 1.36 1.06 1.06 0 0 1-.1-1l1.35-.9a.84.84 0 0 1 .46.16zM103.38 46a3.19 3.19 0 0 1 0 1 3 3 0 0 1-.64-.56 11.5 11.5 0 0 0-.07-1.31 2.1 2.1 0 0 0 .71.87z"/><path class="cls-1" d="M103.25 44.91a5.44 5.44 0 0 1 .13 1.13 2.1 2.1 0 0 1-.69-.85 5 5 0 0 0-.11-.66.22.22 0 0 1 .11 0c.2.15.38.28.56.38z"/><path class="cls-1" d="M103.25 44.91c-.18-.1-.36-.23-.56-.36a.22.22 0 0 0-.11 0 18.11 18.11 0 0 0-3-6.77 1.09 1.09 0 0 0 .49-.13 20.61 20.61 0 0 1 3.18 7.26zM101.87 81.31a1.32 1.32 0 0 1 1.35-.9zM102.76 46.5a3 3 0 0 0 .64.56 9.07 9.07 0 0 1-1.12 4.39 26.52 26.52 0 0 1-10.92 10.46.54.54 0 0 0-.49-.54v-.08c4.46-2.33 9.53-6.71 11.28-11.46a11.59 11.59 0 0 0 .61-3.33z"/><path class="cls-1" d="M102.69 45.19a11.5 11.5 0 0 1 .07 1.31 2 2 0 0 1-.53-1.77.29.29 0 0 1 .35-.2 5 5 0 0 1 .11.66z"/><path class="cls-2" d="M102 83.18a4.41 4.41 0 0 0 .64-.36c-1 2.41-3.41 4.69-5.28 6.41a2.41 2.41 0 0 1-.33-.44c.84-.74 1.69-1.51 2.48-2.33a10.65 10.65 0 0 0 2.49-3.28z"/><path class="cls-1" d="M102.58 44.53a.29.29 0 0 0-.35.2 2 2 0 0 0 .53 1.77 11.59 11.59 0 0 1-.61 3.33c-1.75 4.75-6.82 9.17-11.28 11.46l-.15-.85c3.71-2 7.4-4.84 9.53-8.56 3-5.33 1.46-9.63-1.46-14.4a.18.18 0 0 1 0-.11.85.85 0 0 0 .77.39 18.11 18.11 0 0 1 3.02 6.77zM89.51 110.74c5.61-4.85 17 7.84 12.07 13-3.51 3.69-9.58.75-12.33-2.43a11.85 11.85 0 0 1-2.53-5.49l.48.08c.67 4.41 6.36 9.23 10.85 8.69 9.84-1.33-1.72-18-8.33-13.25V111s.07-.07.1-.13 0-.2-.15-.18-.11.02-.16.05zM102 82.33a1 1 0 0 1 0 .85 32.17 32.17 0 0 1-4.23 2.13c-.92.38-1.87.74-2.84 1.1a.21.21 0 0 0-.18.08 62.71 62.71 0 0 1-10.51 2.82h-1.16a.14.14 0 0 0-.1.23 37.7 37.7 0 0 1-15.08-.31c-.74-.2-1.48-.44-2.18-.69a3 3 0 0 0 .39-.13.3.3 0 0 0 .2-.36 13.65 13.65 0 0 0 1.8.49 39.26 39.26 0 0 0 11.3.36c7.97-.67 15.9-2.62 22.59-6.57z"/><path class="cls-1" d="M102 82.31c-6.66 4-14.59 5.9-22.56 6.57a39.26 39.26 0 0 1-11.3-.36 13.65 13.65 0 0 1-1.8-.49.18.18 0 0 0-.12-.15 3.19 3.19 0 0 0-1.13-.29C52.4 82.74 48.53 66.7 48.29 54.06c.16.26.34.54.49.8.74 12.79 4.79 30.52 19.51 33a49.12 49.12 0 0 0 33.58-6.54 1.06 1.06 0 0 0 .13.99zM89.72 111.38c6.61-4.75 18.17 11.92 8.33 13.25-4.49.54-10.18-4.28-10.85-8.69a2.38 2.38 0 0 0 .26 0 .28.28 0 0 0 .31-.28 2.52 2.52 0 0 0 .1.46 10.57 10.57 0 0 0 3.36 5c1.87 1.62 8.59 5 9.71.69.7-2.79-1.35-6-3.28-7.81-2.3-2.21-4.74-3.23-7.79-2a.5.5 0 0 1-.67-.31c.16-.23.34-.46.52-.69z"/><path class="cls-1" d="M97.66 114c1.93 1.84 4 5 3.28 7.81-1.12 4.36-7.84.93-9.71-.69a10.57 10.57 0 0 1-3.36-5 2.52 2.52 0 0 1-.1-.46 3.35 3.35 0 0 1 0-1.41 2 2 0 0 1 .36.18.53.53 0 0 0 .51-.92c-.18-.08-.33-.18-.51-.26a7.82 7.82 0 0 1 1.07-1.62.5.5 0 0 0 .67.31c3.05-1.15 5.49-.13 7.79 2.06zM98.71 34a5.52 5.52 0 0 0 .62.41 2.42 2.42 0 0 0 1 1 1 1 0 0 1 .56 1.49 3.76 3.76 0 0 1-2-.41.61.61 0 0 0-.51-.92c0-.59-.05-1.18-.05-1.77a3.75 3.75 0 0 0 .38.2z"/><path class="cls-1" d="M98.94 36.48a3.76 3.76 0 0 0 2 .41 2.07 2.07 0 0 1-.31.38 5.68 5.68 0 0 1-1-.28.42.42 0 0 0-.46-.16c-.13-.05-.23-.13-.36-.18a.31.31 0 0 0 .13-.17z"/><path class="cls-7" d="M98.79 37.48c2.92 4.77 4.51 9.07 1.46 14.4-2.13 3.72-5.82 6.51-9.53 8.56-.62-3.84-1.52-7.63-1.49-11.56 0-5.48 4.59-8.22 8-11.61a.1.1 0 0 0 0-.07 11.21 11.21 0 0 0 1.26-.49 1.06 1.06 0 0 0 .23.66.18.18 0 0 0 .07.11z"/><path class="cls-1" d="M99.59 37a5.68 5.68 0 0 0 1 .28 1.47 1.47 0 0 1-.59.36c-.13-.21-.26-.44-.41-.64z"/><path class="cls-1" d="M99.53 37.76a.85.85 0 0 1-.77-.39.4.4 0 0 1 .34-.56 4.19 4.19 0 0 0 .46.16c.15.21.28.44.43.64a1.09 1.09 0 0 1-.46.15zM99.92 25.33a.3.3 0 0 1-.1.31 2.81 2.81 0 0 1 .1-.31zM99.23 24.81l.15-.53c.15.3.33.61.51.92a.18.18 0 0 1 0 .13 2.81 2.81 0 0 0-.1.31.36.36 0 0 1-.57-.06c0-.07-.1-.18-.15-.25a3.3 3.3 0 0 1 .16-.52z"/><path class="cls-2" d="M102 83.18a10.65 10.65 0 0 1-2.49 3.28c-.79.82-1.64 1.59-2.48 2.33-.59-.84-1-1.94-2-2.35a.18.18 0 0 0-.12 0c1-.36 1.92-.72 2.84-1.1a32.17 32.17 0 0 0 4.25-2.16z"/><path class="cls-1" d="M99.25 25.58a.36.36 0 0 0 .57.06c-.95 2.89-1.52 6-1.11 8.38a3.75 3.75 0 0 1-.33-.26 29.52 29.52 0 0 1 .72-8.43c.05.07.1.18.15.25zM99.56 37a4.19 4.19 0 0 1-.46-.16.42.42 0 0 1 .46.16zM99.38 24.28l-.15.53a27.91 27.91 0 0 0-4.46-6.2c-2.36-2.25-4.54-2.43-7.69-2.95-6.62-1.05-13.23-2.23-19.92-2.66-4.54-.3-9.15-.1-13.69-.3a60.93 60.93 0 0 0-14.4.77c-1.8.35-5.23.76-6.72 1.84-1.31 1-2.23 3.82-3 5.26a79.38 79.38 0 0 0-4.77 12.35c-1.69 5.69-3.89 12.41-3.56 18.35 2.26-1.43 4.18-3.92 6.44-5.56 3.66-2.64 7.46-5.07 10.79-8.15a.12.12 0 0 0 0 .13c0 .1.13.18.18.28-5.41 4.87-11.38 9.38-17.12 13.82-.38.3-.9-.11-.9-.52-.18-9.71 3.33-20.32 7.41-29 1.36-2.92 2.18-6.51 5.23-8.07s7.48-1.82 10.71-2a159.73 159.73 0 0 1 30.51 1c-.15.34.33.64.51.31l.18-.28c1.62.2 3.21.43 4.8.69 4.56.74 9.66.95 13.81 3.13 2.66 1.38 4.35 4.64 5.81 7.23z"/><path class="cls-1" d="M99.23 24.81a3.3 3.3 0 0 0-.13.52c-2.13-3.44-4.38-7.72-8.77-8.56-2-.39-3.92-.67-5.87-1a163.13 163.13 0 0 0-17.3-2.15c-10-.46-20.79-1.26-30.63 1-8.61 2-11.84 19-13.56 26.53a36.28 36.28 0 0 0-1.31 8.15c0 .29 5.13-3.69 5.46-4 3.54-2.9 7.54-5.2 11-8.23a.41.41 0 0 1 .36-.1.46.46 0 0 0-.2.59c-3.33 3.08-7.13 5.51-10.79 8.15-2.26 1.64-4.18 4.13-6.44 5.56-.33-5.94 1.87-12.66 3.56-18.35a79.38 79.38 0 0 1 4.79-12.33c.72-1.44 1.64-4.31 3-5.26 1.49-1.08 4.92-1.49 6.72-1.84a60.93 60.93 0 0 1 14.4-.77c4.54.2 9.15 0 13.69.3 6.69.41 13.3 1.59 19.92 2.64 3.15.52 5.33.7 7.69 2.95a27.91 27.91 0 0 1 4.41 6.2zM98.43 35.53a.61.61 0 0 1 .51.92 1.14 1.14 0 0 1-.43-.28l-.05-.05c0-.21-.03-.41-.03-.59z"/><path class="cls-1" d="M98.94 36.45a.31.31 0 0 1-.2.15l-.26-.15v-.36l.05.05a1.14 1.14 0 0 0 .41.31zM98.74 36.63c.13 0 .23.13.36.18a.4.4 0 0 0-.34.56 1.06 1.06 0 0 1-.23-.66zM98.74 36.63l-.21.08a.51.51 0 0 1 0-.21zM98.48 36.5a.51.51 0 0 0 0 .21 11.21 11.21 0 0 1-1.26.49c.16-.26-.15-.54-.43-.42a16.71 16.71 0 0 0-2 1.13c-10 2.36-18.33-2.82-25-11-1.39-1.69-3.29-3.61-1.49-5.43 2.41-2.44 10-2.46 12.94-1.51 6.1 2 10.13 5.74 14.1 10.68a19.13 19.13 0 0 0 3 3.08c0 .59 0 1.18.05 1.77a.32.32 0 0 0-.13 0l-.28.08C96.94 34.35 96 32.38 95 31.1c-3.11-4-6.69-7.87-11.51-9.77A16.88 16.88 0 0 0 72 20.94c-.79.26-3.46.65-3.84 1.67s2.72 4.69 3.28 5.39a28 28 0 0 0 12 9.1c4.92 1.74 9.92 1.13 14.66-.82l.36.23z"/><path class="cls-1" d="M98.46 36.12v.36l-.36-.23a2 2 0 0 0 .36-.13zM98.43 35.53v.56a2.15 2.15 0 0 1-.44-.46l.28-.08a.32.32 0 0 1 .16-.02z"/><path class="cls-1" d="M98.46 36.09a2 2 0 0 1-.34.13 6.65 6.65 0 0 1-.59-.46 1.76 1.76 0 0 0 .49-.16 2.15 2.15 0 0 0 .44.49z"/><path class="cls-5" d="M99.1 25.33a29.52 29.52 0 0 0-.72 8.43 19.13 19.13 0 0 1-3-3.08c-4-4.94-8-8.71-14.1-10.68-2.94-.95-10.53-.93-12.94 1.51-1.8 1.82.1 3.74 1.49 5.43 6.63 8.15 15 13.33 25 11a17.17 17.17 0 0 0-6.56 8c-1.9 4.74.44 11.25 1.13 16a.6.6 0 0 0 .15.31c-8.33 5.38-23.25 9.66-31.14 2.59C50 57.32 46.14 45.63 39.25 37a.51.51 0 0 0-.75 0 .41.41 0 0 0-.36.1c-3.48 3-7.48 5.33-11 8.23-.33.28-5.46 4.26-5.46 4A36.28 36.28 0 0 1 23 41.14c1.72-7.53 5-24.55 13.56-26.53 9.84-2.23 20.61-1.43 30.63-1a163.13 163.13 0 0 1 17.3 2.15c2 .31 3.92.59 5.87 1 4.36.85 6.64 5.13 8.74 8.57z"/><path class="cls-1" d="M98 35.63a1.76 1.76 0 0 1-.49.16c-.12-.11-.23-.24-.33-.34-3.64-4-5.77-9-10.66-11.84a18.08 18.08 0 0 0-14.43-2.08c-.72.18-4.18.62-2.92 2.49C76 34.2 85.46 39.5 97.53 35.79a6.65 6.65 0 0 0 .59.46c-4.74 2-9.74 2.56-14.66.82a28 28 0 0 1-12-9.1c-.56-.67-3.74-4.31-3.33-5.36s3-1.41 3.84-1.67a16.88 16.88 0 0 1 11.49.39c4.82 1.9 8.4 5.79 11.51 9.77 1.03 1.28 1.97 3.25 3.03 4.53z"/><path class="cls-7" d="M97.2 35.45c.1.1.21.23.33.34C85.46 39.5 76 34.2 69.19 24c-1.26-1.87 2.2-2.31 2.92-2.49a18.08 18.08 0 0 1 14.43 2.08c4.89 2.89 7.02 7.86 10.66 11.86z"/><path class="cls-1" d="M97.38 89.23l-.41.41a5 5 0 0 1-.38-.41zM97.38 89.23h-.79c.15-.12.3-.28.46-.41a2.41 2.41 0 0 0 .33.41zM96.3 37.53c-.51.15-1 .28-1.49.38a16.71 16.71 0 0 1 2-1.13c.28-.12.59.16.43.42zM97.25 37.2a.1.1 0 0 1 0 .07c-3.38 3.39-8 6.13-8 11.61 0 3.93.87 7.72 1.49 11.56l-.72.39c-.64-4.28-2-9.41-1.36-13.41.69-4.33 4.31-7.53 7.64-9.89z"/><path class="cls-1" d="M94.79 37.91c.49-.1 1-.23 1.49-.38-3.33 2.36-7 5.56-7.64 9.89-.69 4 .72 9.13 1.36 13.41l-.28.15c.1.05.2.08.33.13 0 .21 0 .39.08.56.18-.1.38-.17.56-.28a.12.12 0 0 0-.13 0c-.36.26-.71.52-1.1.75a.6.6 0 0 1-.15-.31c-.69-4.77-3-11.28-1.13-16a17.17 17.17 0 0 1 6.61-7.92zM94.92 86.41l-.18.08a.21.21 0 0 1 .18-.08zM90.15 62.44a.73.73 0 0 1-.62-.25c.39-.23.74-.49 1.1-.75a.12.12 0 0 1 .13 0 .37.37 0 0 1 .16 0v-.1a.54.54 0 0 1 .49.54l-.85.46a.92.92 0 0 1-.41.1z"/><path class="cls-1" d="M90.51 62.37l.85-.46a.38.38 0 0 1-.16.3c-7.3 6.1-20.61 10.87-29.81 6.67-5.53-2.54-9-8.41-12.2-13.38l-.41-.64c0-.59-.08-1.16-.08-1.7a86.71 86.71 0 0 0 9 12.26c2.57 2.82 7 3.69 10.59 4 4.77.48 8.25-1.41 12.66-2.85 3-1 6.51-2.18 9.13-4.18a.92.92 0 0 0 .43-.02zM90.87 61.37v.1a.37.37 0 0 0-.16 0c.06-.1.11-.1.16-.1z"/><path class="cls-1" d="M90.87 61.29v.08c-.05 0-.1 0-.13.05zM90.72 60.44l.15.85-.18.1-.64-.28a1.66 1.66 0 0 0 0-.28z"/><path class="cls-1" d="M90.05 61.11l.64.28c-.18.11-.38.18-.56.28-.03-.17-.05-.35-.08-.56zM90 60.83a1.66 1.66 0 0 1 0 .28c-.13 0-.23-.08-.33-.13zM89.67 110.68c.1 0 .2.11.15.18s-.08.08-.1.13v-.18c-.21.13-.41.26-.59.39a.48.48 0 0 1 .12-.26.75.75 0 0 1 .24-.18s.12-.05.18-.08z"/><path class="cls-1" d="M89.72 110.81v.19c-.18.23-.36.46-.52.69a.54.54 0 0 1-.07-.48c.18-.14.38-.27.59-.4zM89.51 62.19a.73.73 0 0 0 .62.25c-2.62 2-6.16 3.23-9.13 4.18-4.41 1.44-7.89 3.33-12.66 2.85-3.64-.36-8-1.23-10.59-4a86.71 86.71 0 0 1-9-12.26 2.36 2.36 0 0 1 0-.38.38.38 0 0 0-.46-.38c-1-1.57-1.95-3.11-2.9-4.62-2.2-3.13-4-7.3-6.41-10.25a.45.45 0 0 0-.48-.58.51.51 0 0 1 .75 0C46.14 45.63 50 57.32 58.37 64.78c7.89 7.07 22.81 2.79 31.14-2.59zM89.49 110.76a.75.75 0 0 0-.24.18.48.48 0 0 0-.12.26l-.34.31a.31.31 0 0 0-.15-.34 2.62 2.62 0 0 1 .85-.41z"/><path class="cls-1" d="M89.13 111.2a.54.54 0 0 0 .07.48 7.82 7.82 0 0 0-1.07 1.62 4.89 4.89 0 0 0-.51-.26 4.21 4.21 0 0 1 .84-1.2.33.33 0 0 0 .33-.33zM87.92 113.76a1.57 1.57 0 0 1 .21-.46c.18.08.33.18.51.26a.53.53 0 0 1-.51.92 2 2 0 0 0-.36-.18 2.18 2.18 0 0 1 .15-.54zM88.26 111.33a.72.72 0 0 1 .33-.18.31.31 0 0 1 .15.34 2.06 2.06 0 0 0-.33.33.25.25 0 0 1-.18 0 2.24 2.24 0 0 0-.36-.21 1.42 1.42 0 0 1 .39-.28z"/><path class="cls-1" d="M88.46 111.84a2.06 2.06 0 0 1 .33-.33.33.33 0 0 1-.33.33zM88.59 111.15a.72.72 0 0 0-.33.18 25 25 0 0 0-5.52-2.62c-4-1.59-7.94-3.28-11.89-5-1.28-.57-2.56-1-3.87-1.52a.62.62 0 0 0-.76-.28c-1.31-.49-2.64-1-3.95-1.52-2.67-1.1-4.92-2.71-7.44-4-.69-.35-1.35-.71-2-1A2.73 2.73 0 0 1 53 95c2 .94 3.9 1.92 5.79 3 9.37 5.25 20.62 7.33 29.8 13.15zM88.28 111.79a.25.25 0 0 0 .18 0 4.21 4.21 0 0 0-.84 1.2 6.36 6.36 0 0 0-.59-.28 3.61 3.61 0 0 1 .89-1.18 2.24 2.24 0 0 1 .36.26z"/><path class="cls-1" d="M88.26 111.33a1.42 1.42 0 0 0-.34.25c-6.48-3.87-13.84-6.18-21-8.94a.49.49 0 0 0 0-.47c1.31.47 2.59 1 3.87 1.52 4 1.74 7.9 3.43 11.89 5a25 25 0 0 1 5.58 2.64zM87.62 113a4.89 4.89 0 0 1 .51.26 1.57 1.57 0 0 0-.21.46l-.49-.26a2 2 0 0 1 .19-.46zM87.43 113.5l.49.26a2.18 2.18 0 0 0-.15.54 2.33 2.33 0 0 0-.49-.26 2.23 2.23 0 0 1 .15-.54z"/><path class="cls-1" d="M87.28 114a2.33 2.33 0 0 1 .49.26 3.35 3.35 0 0 0 0 1.41.22.22 0 0 0-.18-.21 2.12 2.12 0 0 1-.41-.12 3.35 3.35 0 0 1 .1-1.34z"/><path class="cls-1" d="M87.18 115.68a1 1 0 0 1 0-.3 2.12 2.12 0 0 0 .41.12.22.22 0 0 1 .18.21.28.28 0 0 1-.31.28 2.38 2.38 0 0 1-.26 0 1.06 1.06 0 0 0-.02-.31zM87.62 113a2 2 0 0 0-.19.46l-.56-.3c0-.16.1-.29.16-.44a6.36 6.36 0 0 1 .59.28zM86.87 113.2l.56.3a2.23 2.23 0 0 0-.15.52 4.74 4.74 0 0 0-.54-.29c.03-.17.08-.35.13-.53z"/><path class="cls-6" d="M87.92 111.58a3.61 3.61 0 0 0-.89 1.18c-6.8-3.36-14.03-5.54-21.03-8.38a8.24 8.24 0 0 1 1-1.69c7.08 2.71 14.44 5.02 20.92 8.89z"/><path class="cls-1" d="M87.28 114a3.35 3.35 0 0 0-.1 1.34 3.45 3.45 0 0 1-.51-.13 5.13 5.13 0 0 1 .07-1.52 4.74 4.74 0 0 1 .54.31zM87.18 115.68a1.06 1.06 0 0 1 0 .26l-.48-.08v-.25a1.81 1.81 0 0 0 .48.07z"/><path class="cls-1" d="M87.18 115.38a1 1 0 0 0 0 .3 1.81 1.81 0 0 1-.49-.07 2.17 2.17 0 0 1 0-.36 3.45 3.45 0 0 0 .49.13zM87 112.76c-.06.15-.11.28-.16.44-6.56-3.44-14.25-5.77-21-8.67l.08-.15c7.08 2.84 14.31 5.02 21.08 8.38z"/><path class="cls-1" d="M86.87 113.2c-.05.18-.1.36-.13.53-6.74-3.61-14-6-21-9a1.71 1.71 0 0 1 .07-.18c6.81 2.88 14.5 5.21 21.06 8.65z"/><path class="cls-6" d="M86.74 113.73a5.13 5.13 0 0 0-.07 1.52c-7.33-2-14.43-5.82-21.53-9.08.2-.48.4-1 .64-1.46 6.97 3.03 14.22 5.41 20.96 9.02z"/><path class="cls-1" d="M86.69 115.61v.25C82.33 115 78.05 113 74 111.17c-5.74-2.69-11.66-4.84-17.53-7.15-2.49-1-5-2.08-7.39-3.23a1.55 1.55 0 0 1 .21-.33.12.12 0 0 0 0-.08c3.8 1.67 7.64 3.1 11.56 4.61l2.88 1.13c-.23.67.84 1.13 1.15.49 2.53 1 5.05 2 7.53 3.21a73 73 0 0 0 7.46 3.18c2.28.79 4.44 2.17 6.82 2.61z"/><path class="cls-1" d="M86.67 115.25a2.17 2.17 0 0 0 0 .36c-2.38-.44-4.54-1.82-6.82-2.59a73 73 0 0 1-7.38-3.23c-2.48-1.18-5-2.21-7.53-3.21a2.85 2.85 0 0 1 .18-.41c7.12 3.26 14.22 7.08 21.55 9.08zM83.56 89.43a3.09 3.09 0 0 1-.56.11.14.14 0 0 1 .1-.23h1.15a4.38 4.38 0 0 1-.61.12zM74.62 13.18c.64-1.77 2.87-3.26 4.92-4.49A16 16 0 0 0 75 13.23a1.58 1.58 0 0 0-.38-.05z"/><path class="cls-1" d="M74.62 13.18a1.58 1.58 0 0 1 .38.05l-.18.28c-.18.33-.66 0-.51-.31a.83.83 0 0 1 .31-.02zM66.39 102.43c-.18-.08-.36-.13-.54-.23a1.56 1.56 0 0 1 .15-.2.26.26 0 0 1 .18-.13l.76.28a.49.49 0 0 1 0 .47 3.4 3.4 0 0 1-.55-.19z"/><path class="cls-1" d="M67 102.64a8.24 8.24 0 0 0-1 1.69 2.44 2.44 0 0 0-.41-.18.18.18 0 0 0-.15.33l.41.18c-.24.49-.44 1-.64 1.46-.21-.1-.39-.2-.59-.28a14 14 0 0 1 1.84-3.46 3.4 3.4 0 0 0 .54.26zM66.19 101.87a.62.62 0 0 1 .76.28zM64.8 88.18c-.41-.15-.82-.36-1.23-.54a5.53 5.53 0 0 1 1.46 0 10.89 10.89 0 0 0 1.25.44.3.3 0 0 1-.2.36 3 3 0 0 1-.39.13c-.27-.13-.58-.26-.89-.39zM66.19 87.9a.18.18 0 0 1 .12.15 10.89 10.89 0 0 1-1.25-.44 3.19 3.19 0 0 1 1.13.29z"/><path class="cls-1" d="M65.85 102.2c.18.1.36.15.54.23a14 14 0 0 0-1.84 3.46 4.7 4.7 0 0 0-.57-.25 13.67 13.67 0 0 1 1.87-3.44zM66.19 101.87a.26.26 0 0 0-.19.13 1.56 1.56 0 0 0-.16.2 70.7 70.7 0 0 1-9.48-4.36c-8.82-4.92-18.92-7.84-27.56-13a3 3 0 0 0 0-.44c2 1.21 4.56 1.9 6.76 2.82l.24.08 1 .46a.1.1 0 0 1 .07 0c5 2.49 10.2 4.61 15.2 7.1a1.09 1.09 0 0 1-.08.15c-.15.41.49.65.7.31a.76.76 0 0 1 .07-.13c.7.34 1.36.7 2 1 2.52 1.34 4.77 3 7.44 4 1.35.7 2.68 1.19 3.99 1.68z"/><path class="cls-1" d="M65.85 104.53a1.71 1.71 0 0 0-.07.18l-.41-.18a.18.18 0 0 1 .15-.33 2.44 2.44 0 0 1 .41.18zM65.19 124.47a1 1 0 0 0-.23-.12 2.26 2.26 0 0 1 .18-.39.21.21 0 0 1 .38.11c0 .17 0 .38-.08.56-.07-.05-.18-.1-.25-.16z"/><path class="cls-1" d="M65.19 124.47c.07.06.18.11.25.16a19 19 0 0 1-1.77 5.28 66.24 66.24 0 0 1-2.79 6.09s-.05.07-.1.1a.43.43 0 0 0-.11-.26c1.08-3.84 3.33-7.47 4.52-11.37zM64.55 105.89c.2.08.38.18.59.28a2.85 2.85 0 0 0-.18.41l-1.15-.46a3.26 3.26 0 0 1 .2-.48 4.7 4.7 0 0 1 .54.25zM64.8 88.18c.31.13.62.26.92.36-1.07.33-2.25.25-3.38.51a18.31 18.31 0 0 0-4 1.31A12 12 0 0 0 53 95c-.13 0-.26-.13-.41-.18 1.86-3.82 7.78-6.36 12.21-6.64z"/><path class="cls-1" d="M65 124.35a1 1 0 0 1 .23.12c-1.16 3.9-3.44 7.49-4.52 11.41a.57.57 0 0 0-.2-.23 16.22 16.22 0 0 1 1.85-5.56c.8-1.92 1.64-3.87 2.64-5.74zM65 87.61a5.53 5.53 0 0 0-1.46 0c-12.15-5.92-15.76-21.3-15.71-34.27.15.23.28.46.43.69C48.53 66.7 52.4 82.74 65 87.61zM64.93 106.58c-.31.64-1.38.18-1.15-.49z"/><path d="M65.85 102.2a13.67 13.67 0 0 0-1.85 3.44c-1.66-.77-3.36-1.49-5-2.13-10.58-4.08-20.6-10.72-31.52-13.72a9.38 9.38 0 0 0 1.33-4.94c8.64 5.15 18.74 8.07 27.56 13a70.7 70.7 0 0 0 9.48 4.35z" fill="#fff"/><path class="cls-1" d="M64 105.64a3.26 3.26 0 0 0-.2.48L60.9 105c-3.92-1.51-7.76-2.94-11.56-4.61 0-.13-.15-.21-.25-.1q-2.46-1-4.87-2.26c-5.54-2.82-11-6.1-17-7.79a2.82 2.82 0 0 0 .26-.44c10.92 3 20.94 9.64 31.48 13.72 1.66.63 3.36 1.35 5.04 2.12zM63.57 87.64c.41.18.82.39 1.23.54-4.43.28-10.35 2.77-12.25 6.59a.84.84 0 0 0-.33-.16C53.4 92 56 90.36 58.57 89.2a17.37 17.37 0 0 1 5-1.56zM41.63 141.57a.91.91 0 0 1-.13-.08 1.81 1.81 0 0 0-.33-.2c5.33-3.51 12.74-4.1 18.76-5.69a.75.75 0 0 1 .54.05.77.77 0 0 0 0 .26.24.24 0 0 0 .34.23.7.7 0 0 1-.46.84c-6.11 2.05-12.23 2.41-18.13 5a4.46 4.46 0 0 1-.59-.41z"/><path class="cls-1" d="M60.67 135.88a.43.43 0 0 1 .11.26.24.24 0 0 1-.34-.23.77.77 0 0 1 0-.26.57.57 0 0 1 .23.23zM53 95a2.73 2.73 0 0 0-.21.3l-.35-.18a1.4 1.4 0 0 1 .15-.3c.11 0 .24.08.41.18z"/><path class="cls-1" d="M52.4 95.07l.35.18a.76.76 0 0 0-.07.13c-.21.34-.85.1-.7-.31a1.09 1.09 0 0 0 .08-.15 3.23 3.23 0 0 1 .34.15z"/><path class="cls-1" d="M52.55 94.77a1.4 1.4 0 0 0-.15.3 3.23 3.23 0 0 0-.34-.15 1 1 0 0 1 .16-.31.84.84 0 0 1 .33.16z"/><path class="cls-1" d="M52.22 94.61a1 1 0 0 0-.16.31c-5-2.49-10.2-4.61-15.2-7.1C42 90.1 47.17 92.2 52.22 94.61zM49.09 100.28c.1-.11.28 0 .25.1a1.63 1.63 0 0 1-.25-.1zM48.93 100.69h-.1c-.1 0 .16-.23.23-.34a1.63 1.63 0 0 0 .25.1.12.12 0 0 1 0 .08 1.55 1.55 0 0 0-.21.33z"/><path class="cls-1" d="M49.09 100.28c-.07.11-.15.21-.23.34-7.25-3.46-14.33-7.39-21.91-10l.3-.43c6 1.69 11.46 5 17 7.79q2.39 1.27 4.84 2.3zM48.29 54.06c-.15-.23-.28-.46-.43-.69v-.59a.38.38 0 0 1 .36-.38c.15.25.31.51.48.76 0 .54.06 1.11.08 1.7-.15-.26-.33-.54-.49-.8zM48.7 53.16c-.17-.25-.33-.51-.48-.76a.38.38 0 0 1 .46.38 2.36 2.36 0 0 0 .02.38z"/><path class="cls-1" d="M48.22 52.4a.38.38 0 0 0-.36.38v.59c-3.13-5.1-6-10.37-9.36-15.37.11-.08.18-.18.28-.26a.35.35 0 0 0 .13-.2c2.39 2.95 4.21 7.12 6.41 10.25.95 1.5 1.9 3.04 2.9 4.61zM40.91 142.6a2.18 2.18 0 0 0-.38.18c-.41.2-.93-.36-.52-.7a12.09 12.09 0 0 1 1.13-.79 1.81 1.81 0 0 1 .33.2.91.91 0 0 0 .13.08 4.46 4.46 0 0 0 .56.41 24 24 0 0 0-1.25.62z"/><path class="cls-1" d="M38.91 37.53a.35.35 0 0 1-.13.2c-.1.08-.17.18-.28.26 0-.1-.13-.18-.18-.28a.12.12 0 0 1 0-.13.46.46 0 0 1 .2-.59.45.45 0 0 1 .39.54zM28.71 83.85c2.23 1.2 4.54 2.3 6.84 3.38-2.2-.92-4.79-1.61-6.76-2.82a2 2 0 0 0-.08-.56zM28.81 84.85a9.38 9.38 0 0 1-1.33 4.94 3 3 0 0 0-.59-.15 9.51 9.51 0 0 0 1.38-5.1z"/><path class="cls-1" d="M28.79 84.41a3 3 0 0 1 0 .44l-.54-.31a3.26 3.26 0 0 0-.05-.82.41.41 0 0 1 .28 0l.23.13a2 2 0 0 1 .08.56z"/><path class="cls-1" d="M28.71 83.85l-.23-.13a.41.41 0 0 0-.28 0 5.81 5.81 0 0 0-.28-1.46c-1.06-3.89-4.46-5.33-8.16-5.77a.58.58 0 0 0-.53 0 19 19 0 0 0-2.72-.12.49.49 0 0 0-1 0h-.42c-2.76.18-17 3.69-13.68 8.51 1.1 1.49 5.74.92 7.41 1.28a19.73 19.73 0 0 1 9.07 4.28c2.2 1.85 3.69 4.62 6.66 2.39a6.56 6.56 0 0 0 1-1 .52.52 0 0 0 .44 0c-.82 1.62-2.33 3.08-4.1 2.36-2.34-1-3.59-2.87-5.72-4.25a18.35 18.35 0 0 0-9.3-3.28C5 86.56 1 86.85.44 84.33a3.87 3.87 0 0 1 1.87-4.22c5.13-3.57 13.33-5.77 19.45-3.9 4.03 1.23 6.51 4.2 6.95 7.64z"/><path class="cls-1" d="M28.27 84.54a9.51 9.51 0 0 1-1.38 5.1 1.39 1.39 0 0 0-.33-.1.46.46 0 0 0-.54.64 4 4 0 0 1-1 1 .69.69 0 0 1 .18-.62c3.62-3.92 3.16-10.22-1.43-12.53a.52.52 0 0 0-.75-.33 9.29 9.29 0 0 0-1.53-.41c-.46-.08-.93-.16-1.41-.21 0-.13-.06-.25-.08-.38a.54.54 0 0 0-.21-.29c3.7.44 7.1 1.88 8.16 5.77a5.81 5.81 0 0 1 .28 1.46.4.4 0 0 0-.13.72l.18.1z"/><path class="cls-1" d="M28.2 83.69a3.26 3.26 0 0 1 .05.82l-.18-.1a.4.4 0 0 1 .13-.72zM26.89 89.64a3 3 0 0 1 .59.15 2.82 2.82 0 0 1-.26.44 4.69 4.69 0 0 0-.61-.18c.1-.13.2-.28.28-.41z"/><path class="cls-1" d="M27.22 90.23l-.3.43-.47-.15c0-.13.06-.25.08-.36a.29.29 0 0 0 .08-.1 4.69 4.69 0 0 1 .61.18z"/><path class="cls-1" d="M26.45 90.51l.47.15a8.46 8.46 0 0 1-.72 1 .41.41 0 0 1-.23.18 5.45 5.45 0 0 0 .48-1.33zM26.56 89.54a1.39 1.39 0 0 1 .33.1c-.08.13-.18.28-.28.41s0 0-.05 0 0-.12 0-.2a.15.15 0 0 0-.28-.08c-.1.16-.18.31-.28.44a.46.46 0 0 1 .56-.67z"/><path class="cls-1" d="M26.61 90.05a.29.29 0 0 1-.08.1.24.24 0 0 0 0-.13s.05.03.08.03z"/><path class="cls-1" d="M26.28 90.43a.32.32 0 0 1-.26-.25c.1-.13.18-.28.28-.44a.15.15 0 0 1 .28.08v.2a.24.24 0 0 1 0 .13 2.78 2.78 0 0 1-.23.31z"/><path class="cls-1" d="M26.53 90.15c0 .11-.05.23-.08.36a.88.88 0 0 1-.15-.05 2.78 2.78 0 0 0 .23-.31z"/><path class="cls-1" d="M26.3 90.46a.88.88 0 0 0 .15.05 5.45 5.45 0 0 1-.45 1.28.52.52 0 0 1-.44 0 5.13 5.13 0 0 0 .69-1.28zM26.28 90.43l-.08.08s.05-.02.08-.08z"/><path class="cls-1" d="M26.22 90.54a5.13 5.13 0 0 1-.69 1.28.83.83 0 0 1-.54-.59 4 4 0 0 0 1-1 .32.32 0 0 0 .26.25c0 .01 0 .03-.03.06z"/><path class="cls-6" d="M23.74 78.08c4.59 2.31 5.05 8.61 1.43 12.53a.69.69 0 0 0-.18.62c-3.71 2.82-9.2-3.79-12.76-4.92a20.32 20.32 0 0 0-5.38-1A23.55 23.55 0 0 1 3.28 85c-4.71-.69.8-4.46 1.23-4.74a30.51 30.51 0 0 1 9.77-3.21 11.53 11.53 0 0 1 1.18-.15 30.4 30.4 0 0 0-.51 3c0 .61.82.66 1 .15a11.43 11.43 0 0 0 .53-3.23 14.19 14.19 0 0 1 2.36.13 7.89 7.89 0 0 0-.1 3.28.53.53 0 0 0 1 .13 4.78 4.78 0 0 0 .36-3.26c.48.05.95.13 1.41.21a9.29 9.29 0 0 1 1.53.41.5.5 0 0 0-.3.33 9.35 9.35 0 0 0-.34 2.41.49.49 0 0 0 .82.36 2.72 2.72 0 0 0 .52-2.74z"/><path class="cls-1" d="M25 91.23a.83.83 0 0 0 .54.59 6.56 6.56 0 0 1-1 1c-3 2.23-4.46-.54-6.66-2.39a19.73 19.73 0 0 0-9.03-4.33c-1.67-.36-6.31.21-7.41-1.28-3.34-4.82 10.92-8.33 13.68-8.51h.42c0 .18-.06.38-.08.56a11.53 11.53 0 0 0-1.18.15 30.51 30.51 0 0 0-9.77 3.21c-.43.28-5.94 4-1.23 4.74a23.55 23.55 0 0 0 3.57.28 20.32 20.32 0 0 1 5.38 1c3.56 1.19 9.05 7.8 12.77 4.98zM23.74 78.08a2.72 2.72 0 0 1-.57 2.77.49.49 0 0 1-.82-.36 9.35 9.35 0 0 1 .34-2.41.5.5 0 0 1 .3-.33 5.67 5.67 0 0 1 .75.33z"/><path class="cls-1" d="M23.74 78.08a5.67 5.67 0 0 0-.75-.33.52.52 0 0 1 .75.33zM19.43 77a4.44 4.44 0 0 1 .62.1 4.78 4.78 0 0 1-.36 3.26.53.53 0 0 1-1-.13 7.89 7.89 0 0 1 .1-3.28 3.81 3.81 0 0 1 .64.05z"/><path class="cls-1" d="M19.43 77a3.81 3.81 0 0 0-.59 0 .86.86 0 0 1 .05-.23.45.45 0 0 1 .34-.34 4.53 4.53 0 0 1 .53 0 .54.54 0 0 1 .21.29c0 .13.05.25.08.38a4.44 4.44 0 0 0-.62-.1zM19.23 76.41a.58.58 0 0 1 .53 0 4.53 4.53 0 0 0-.53 0z"/><path class="cls-1" d="M19.23 76.41a.45.45 0 0 0-.34.34.86.86 0 0 0-.05.23 14.19 14.19 0 0 0-2.36-.13 3.09 3.09 0 0 0 0-.51 19 19 0 0 1 2.75.07z"/><path class="cls-1" d="M16 76.88a4.87 4.87 0 0 0-.54 0c0-.18 0-.38.08-.56h1a3.09 3.09 0 0 1 0 .51 2.58 2.58 0 0 0-.54.05zM16.51 76.29h-1a.49.49 0 0 1 1 0z"/><path class="cls-1" d="M16 76.88a2.58 2.58 0 0 1 .48 0 11.43 11.43 0 0 1-.48 3.2c-.18.51-1 .46-1-.15a30.4 30.4 0 0 1 .51-3 4.87 4.87 0 0 1 .49-.05z"/></g></g></svg>