<svg xmlns="http://www.w3.org/2000/svg" viewBox="0 0 102.42 145.99"><defs><style>.cls-1{fill:#1d3033;stroke:#1d3033;stroke-linecap:round;stroke-linejoin:round;stroke-width:.66px}.cls-2{fill:#b5a666}.cls-3{fill:#dc6785}.cls-5{fill:#f7e5d7}.cls-6{fill:#fff}.cls-8{fill:#dacd95}.cls-9{fill:none}</style></defs><g id="レイヤー_2" data-name="レイヤー 2"><g id="レイヤー_3" data-name="レイヤー 3"><path class="cls-1" d="M76.18 99.62v-.43c6.41-.23 11.9 9.33 14.51 14a47.44 47.44 0 0 1 5.69 17.25c.49 3.51 1.44 7.56-.74 10.61a.44.44 0 0 1-.33.21.68.68 0 0 0-.49-.59h-.13c1.46-8.92-.87-18.87-5.43-26.61-2.9-5-7.1-12.38-13.13-13.79.02-.27.05-.47.05-.65zM91.79 57.84a.77.77 0 0 0 .15-.36c8.85 5.26 15.77 26.48 3.62 31.61a.37.37 0 0 1-.36 0 5 5 0 0 0 .2-.62c8.1-9 4.54-22.5-3.79-30.17a2.13 2.13 0 0 0 .18-.46z"/><path class="cls-2" d="M91.61 58.25c8.33 7.67 11.89 21.2 3.79 30.17a19 19 0 0 0-.12-10.63.27.27 0 0 0-.52.15 17.71 17.71 0 0 1-1.59 13.12c-2.48 4.46-6.2 4.62-10.46 4 3.77-2.2 7.23-5.3 7.44-9 .33-6.51-7.51-10.79-13.36-12.64l.67-.3c4.74-2.28 11.41-6 13-11.36a3.58 3.58 0 0 0 .05-1.92.66.66 0 0 0 .36-.28c.25-.38.51-.85.74-1.31z"/><path class="cls-1" d="M82 95.52a6.25 6.25 0 0 0 .69-.41c4.26.57 8 .41 10.46-4a17.71 17.71 0 0 0 1.59-13.12.27.27 0 0 1 .52-.15 19 19 0 0 1 .12 10.63 2.2 2.2 0 0 1-.2.23.25.25 0 0 0 0 .39 14.61 14.61 0 0 1-2.26 4.36c-2.66 3.48-7.64 4.71-11.35 2.35.17-.12.3-.2.43-.28z"/><path class="cls-1" d="M95.2 88.65a2.2 2.2 0 0 0 .2-.23 5 5 0 0 1-.2.62.25.25 0 0 1 0-.39zM70.39 115.18a4.62 4.62 0 0 0 0-.48c6.31 11.28 10.72 22 24.25 25.89a.5.5 0 0 0 .62.62.75.75 0 0 1-.88.77 3.59 3.59 0 0 1-.41-.11.34.34 0 0 0-.43-.33 4 4 0 0 0-.46.13c-12-3.23-18.79-14.72-22.89-25.89.12-.19.17-.39.2-.6z"/><path class="cls-1" d="M95.33 141.23a.5.5 0 0 1-.62-.62h.13a.68.68 0 0 1 .49.62z"/><path class="cls-3" d="M89.28 114c4.56 7.74 6.89 17.69 5.43 26.61-13.53-3.95-17.94-14.61-24.25-25.91a.41.41 0 0 1 .18 0h.28a.31.31 0 0 0 .16.13c1.25.23 2.28-2.06 2.74-2.93.56-1.07 1.36-3.07.44-4.17a25.1 25.1 0 0 0 1.89-7.59C82.18 101.6 86.38 109 89.28 114z"/><path class="cls-1" d="M93.63 30.49c3.72 6.49 9.46 19.66-.51 23.41 0-.13 0-.26.08-.41 12.63-6.87-3.59-29.15-9.74-34.92C78.67 14 73 9.53 66 9.14c0-.15 0-.31.07-.46C78.13 9.32 88 20.7 93.63 30.49zM81.69 143a.67.67 0 0 0 .08-.3 11.47 11.47 0 0 0 7.1.77c1.53-.36 2.84-1.34 4.28-1.77.31.07.59.15.89.2a.41.41 0 0 1-.05.18c-.92 2-4.33 2.62-6.3 2.69a9.57 9.57 0 0 1-6.13-1.46.53.53 0 0 0 .13-.31z"/><path class="cls-1" d="M93.61 141.56a.34.34 0 0 1 .43.33c-.3 0-.58-.13-.89-.2a4 4 0 0 1 .46-.13z"/><path class="cls-2" d="M89.94 27.75c5 7.18 10.87 18.07 3.36 25A16.22 16.22 0 0 0 91.51 43c-.06-.1-.23 0-.18.1 2.3 5.36 1.2 10.54-1.41 15.46a8.36 8.36 0 0 0-5.36-3.79c1-4.28.46-13.28-4-15.61a9.1 9.1 0 0 0 0-11.72c-.08-.1-.26 0-.18.15 4.85 7.72-2.82 16.54-11.07 14.28a12.47 12.47 0 0 0 2.36-3.77c3.48-9-1.21-17.37-8.26-21.71a.5.5 0 0 0 .21-.2 25.52 25.52 0 0 0 2.35-6.51c10.49 1.69 18.1 9.61 23.97 18.07z"/><path class="cls-1" d="M93.3 52.79c7.51-7 1.62-17.86-3.36-25-5.87-8.46-13.48-16.38-24-18.12 0-.16.06-.31.11-.49C73 9.53 78.67 14 83.46 18.57c6.15 5.77 22.37 28.05 9.74 34.92.05-.23.07-.49.1-.7z"/><path class="cls-1" d="M92.71 53.31c-.13.12-.23.2-.36.3s0 .44.18.46a17.62 17.62 0 0 1-1.15 3.16c-.23.05-.44.33-.26.56-.25.49-.54 1-.82 1.49a5.49 5.49 0 0 0-.38-.77c2.61-4.92 3.71-10.1 1.41-15.46 0-.1.12-.2.18-.1a16.22 16.22 0 0 1 1.79 9.84 3.61 3.61 0 0 1-.59.52z"/><path class="cls-1" d="M93.3 52.79c0 .23 0 .47-.1.7l-.59.3a1.65 1.65 0 0 0 .1-.48 3.61 3.61 0 0 0 .59-.52zM93.2 53.49c0 .15 0 .28-.08.41a3.12 3.12 0 0 1-.49.17h-.1a2.55 2.55 0 0 0 .08-.28z"/><path class="cls-1" d="M92.63 54.07a3.12 3.12 0 0 0 .49-.17 16.68 16.68 0 0 1-1.18 3.58 2.9 2.9 0 0 0-.33-.2.68.68 0 0 0-.23-.05 17.62 17.62 0 0 0 1.15-3.16z"/><path class="cls-1" d="M92.61 53.79a2.55 2.55 0 0 1-.08.28c-.2 0-.36-.3-.18-.46s.23-.18.36-.3a1.65 1.65 0 0 1-.1.48zM91.79 57.84a2.13 2.13 0 0 1-.18.41 3.44 3.44 0 0 0-.44-.41v-.05l.26-.56a.68.68 0 0 1 .23.05 2.9 2.9 0 0 1 .33.2.77.77 0 0 1-.2.36z"/><path class="cls-1" d="M91.17 57.84a3.44 3.44 0 0 1 .44.41c-.23.46-.49.93-.74 1.39a.66.66 0 0 1-.36.28 4.79 4.79 0 0 0-.21-.64c.28-.49.57-1 .82-1.49.03 0 .03.03.05.05zM91.38 57.23l-.26.56c-.18-.23.03-.51.26-.56zM90.51 59.92a3.58 3.58 0 0 1-.05 1.92c-1.59 5.36-8.26 9.08-13 11.36l-.67.3c-.43-.12-.87-.25-1.28-.35a34.55 34.55 0 0 0 5-2.77c3.2-2.16 9.79-5.33 9.2-10.13-.38-2.59-3.94-4.25-5.2-5.38v-.12a8.36 8.36 0 0 1 5.36 3.79c-.08.15-.16.28-.23.43a.69.69 0 0 0 .87.95z"/><path class="cls-1" d="M90.3 59.28a4.79 4.79 0 0 1 .21.64.69.69 0 0 1-.82-1c.07-.15.15-.28.23-.43a5.49 5.49 0 0 1 .38.79zM76.79 73.5c5.85 1.85 13.69 6.13 13.36 12.64-.21 3.67-3.67 6.77-7.44 9-.51 0-1-.13-1.58-.2 4.48-2.54 9.12-6.15 8.2-10.79S80.72 75.55 76 73.89q.42-.19.79-.39z"/><path class="cls-1" d="M89.71 60.25c.59 4.8-6 8-9.2 10.13a34.55 34.55 0 0 1-5 2.77L74.9 73a.52.52 0 0 0-.62.69 53.16 53.16 0 0 1-12.41 3.23c-2.35.36-4.89 1.21-7.27.9-2.54-.31-5.13-.74-7.69-1-3-.34-5.95-.59-8.92-.82-2-.16-4.34.07-6.23-.62A2 2 0 0 0 32 75c5.41 1.23 11.58.39 17 1.13a46.45 46.45 0 0 0 18.43-1.26 51 51 0 0 0 16.16-7.47c3.51-2.38 7-7.07 2.15-10.84-1.08-.79-1-.64-1.31-1.56a.16.16 0 0 0 .08-.13c1.26 1.13 4.82 2.79 5.2 5.38z"/><path d="M93.15 141.69c-1.44.43-2.75 1.41-4.28 1.77a11.47 11.47 0 0 1-7.1-.77 1.1 1.1 0 0 0 0-.41.26.26 0 0 0-.39-.23c-.74.41-1.3 1.1-2.1 1.51a9.8 9.8 0 0 1-3.92.82c-2.15.13-3.9-.56-5.9-1a.24.24 0 0 0-.33-.23c-1.1.23-2.1.87-3.26 1.13a23.48 23.48 0 0 1-5.56.28 13.68 13.68 0 0 1-5.15-1.07c-.28-.16-.92-1.13-1.36-.9h-.05-.08c-4.74 2.33-9.41 2.17-14.28.35a.18.18 0 0 0-.25.13 24 24 0 0 1-6.77 1.11 27.67 27.67 0 0 1-7-1.41c3.41-1.23 6.74-3 8.79-3.95 9.15-4.15 22.15-12.1 23.71-23.17a1 1 0 0 0 .26.1.37.37 0 0 0 .49-.23l1.94-.26c1 1.92 2.46 4 4.44 4.8a.68.68 0 0 0 .38.15c2.39.15 4.26-2.23 4.8-4.51 4.18 11.3 10.95 22.76 22.97 25.99z" fill="#f1c8dd"/><path class="cls-1" d="M89.33 84.12c.92 4.64-3.72 8.25-8.2 10.79h-.08a.25.25 0 0 0-.28.2c-1.7.93-3.34 1.72-4.62 2.34v-.08a.46.46 0 0 0-.41-.44c4.08-2.56 11.51-4.71 12.72-10s-4.39-8.77-9.36-11a.21.21 0 0 0-.23-.1h-.05c-1.31-.61-2.59-1.1-3.64-1.51.25-.1.51-.23.77-.36 4.77 1.59 12.35 5.65 13.38 10.16z"/><path class="cls-3" d="M79.1 75.89c5 2.25 10.56 5.82 9.36 11s-8.64 7.46-12.72 10a.42.42 0 0 0-.48.44 24.79 24.79 0 0 1-2.06 9.53 11.11 11.11 0 0 0-7.15-1.07c0-.64-.15-1.31-.23-2a26 26 0 0 0-.82-4.4c-.11-.28-.57-.23-.52.08.13 1.31.29 2.64.36 4a13.4 13.4 0 0 0 .16 2.43 32.36 32.36 0 0 0-9.64 2.82 11.36 11.36 0 0 0-1.46-3.07c-.77-1.51-1.36-3.08-2.08-4.56a.41.41 0 0 0-.28-.54C46.68 99 41.86 98.8 37.7 95.27c-5.33-4.54.88-12.49 6.1-15.74-.35 1.43.9 3.07 2.23 3.59 2.13.87 4.28-.44 6-1.72.9 1.9 2.52 3.77 4.62 4.18s3.64-1.21 4.41-3c1.18 1.7 3.46 3.31 5.63 2.85s3.21-2.64 3.49-4.74A7.81 7.81 0 0 0 75.9 82a.43.43 0 0 0 .36-.28 5.2 5.2 0 0 0-1.08-4.41c1.36.38 3.77.08 3.95-1.33 0 .02 0-.07-.03-.09z"/><path class="cls-5" d="M85.74 56.56c4.84 3.77 1.36 8.44-2.15 10.84a51 51 0 0 1-16.08 7.46 46.45 46.45 0 0 1-18.43 1.26c-5.46-.74-11.63.1-17-1.13a3.33 3.33 0 0 0 .36-.56.31.31 0 0 0-.34-.46c-1.66.28-3.05 1.51-4.74 1.92a6.3 6.3 0 0 1-5.69-1.64c-1.61-1.72-3.74-5-1.77-6.87 4.39 3.56 10.59 4.31 15.84 6 1 .3 1.44-1.13.59-1.57-4.3-6.1-5-13.15-8.22-19.68h.1c7.1 1.51 16.89-.92 21.5-6.74a6.75 6.75 0 0 0 .93.56c5.35 2.77 12.89 1.16 17.53-3a11 11 0 0 0 11.63-3 18.29 18.29 0 0 1 2.92 6.79c.57 2.67.52 5.46 1.18 8.1a.36.36 0 0 0 .54.16c.27.92.22.77 1.3 1.56zm-8.61 4.33c1.56-2.12 3.38-14.81-2.08-12.86-2.13.74-1.82 4.58-1.64 6.28s.67 6 2.74 6.53a.54.54 0 0 0 .98.05zM50.06 65.2c.94-3.15 1.56-14.2-3.41-11.77-4.28 2.16-.33 12.62 2.59 12.49a.53.53 0 0 0 .61-.21 1.4 1.4 0 0 0 .16-.1.33.33 0 0 0 .05-.41z"/><path class="cls-1" d="M80.18 39.54a5.12 5.12 0 0 0 .36-.43c4.48 2.33 5 11.33 4 15.61a.27.27 0 0 0-.15 0c-.06 0-.08.05-.06.08s.06.18.08.23a.36.36 0 0 1-.54-.16c-.66-2.64-.61-5.43-1.18-8.1a18.29 18.29 0 0 0-2.9-6.77 5.16 5.16 0 0 0 .39-.46z"/><path class="cls-1" d="M84.51 54.87a.16.16 0 0 1-.08.13s-.05-.16-.08-.23 0-.08.06-.08a.27.27 0 0 1 .15 0v.12zM82 95.52c-.15.08-.28.16-.43.23a6.59 6.59 0 0 1-.75-.51.14.14 0 0 1-.07-.13l.36-.2c.53.07 1.07.15 1.58.2a6.25 6.25 0 0 1-.69.41zM81.38 142.56c-.18 0-.34.2-.26.35-2.31 2.64-9.18 2.41-11.64.77 0-.07.05-.15.08-.23a.18.18 0 0 0 0-.13c2 .47 3.75 1.16 5.9 1a9.8 9.8 0 0 0 3.92-.82c.8-.41 1.36-1.1 2.1-1.51a.26.26 0 0 1 .39.23 1.1 1.1 0 0 1 0 .41 2.44 2.44 0 0 0-.24-.1.27.27 0 0 0-.25.03z"/><path class="cls-1" d="M81.69 143a.53.53 0 0 1-.13.26 1.51 1.51 0 0 1-.38-.26c-.05 0-.05-.05-.08-.08a1.45 1.45 0 0 0 .26-.35.27.27 0 0 1 .15 0 2.44 2.44 0 0 1 .24.1.67.67 0 0 1-.06.33z"/><path class="cls-1" d="M81.56 143.28c-1.56 3-10.12 2.9-12.28.75a1.38 1.38 0 0 0 .18-.34c2.46 1.64 9.33 1.87 11.64-.77 0 0 0 .05.08.08a1.51 1.51 0 0 0 .38.28zM80.84 95.24a6.59 6.59 0 0 0 .75.51 35 35 0 0 1-5.41 2.36 4.64 4.64 0 0 0 0-.66c1.28-.62 2.92-1.41 4.62-2.34a.14.14 0 0 0 .04.13zM81.05 94.91h.08l-.36.2a.25.25 0 0 1 .28-.2z"/><path class="cls-1" d="M81.36 142.59a1.45 1.45 0 0 1-.26.35c-.1-.15.08-.33.26-.35zM80.13 38.93c-.36 0-.7.28-.54.64a10.51 10.51 0 0 1-10.9 2.82 5.11 5.11 0 0 0 .57-.57c8.25 2.26 15.92-6.56 11.07-14.28-.08-.12.1-.25.18-.15a9.1 9.1 0 0 1 0 11.72.71.71 0 0 0-.21-.11.37.37 0 0 0-.17-.07z"/><path class="cls-1" d="M80.18 39.54a5.16 5.16 0 0 1-.39.41 1.47 1.47 0 0 0-.18-.28.2.2 0 0 1 0-.1 8.3 8.3 0 0 0 .54-.64.37.37 0 0 1 .17 0 .71.71 0 0 1 .24.13 5.12 5.12 0 0 1-.38.48zM79.59 39.57c-.16-.36.18-.64.54-.64a8.3 8.3 0 0 1-.54.64z"/><path class="cls-1" d="M79.61 39.67a1.47 1.47 0 0 1 .18.28 11 11 0 0 1-11.63 3 5.3 5.3 0 0 0 .53-.53 10.51 10.51 0 0 0 10.9-2.82.2.2 0 0 0 .02.07zM74.9 76.94a.27.27 0 0 0-.28-.12.19.19 0 0 1 .15-.05 11.94 11.94 0 0 0 2.31-.13 17.65 17.65 0 0 1 1.77-.82 2.77 2.77 0 0 0 .26.1v.13c-.18 1.41-2.59 1.71-3.95 1.33a2.47 2.47 0 0 1-.26-.44zM79.1 75.86a2.77 2.77 0 0 1-.26-.1.21.21 0 0 1 .26.1zM76.46 48.31c3.41 1.15 1.51 10.23.18 12.33a.43.43 0 0 0 0-.49 2 2 0 0 1-.18-.26 18.43 18.43 0 0 0 1.54-6.3 7.38 7.38 0 0 0-.54-4c-.69-1.18-2.13-1.49-2.64 0a12.21 12.21 0 0 0 1.56 10.3c-.07.16-.12.31-.2.47-2.44-1.57-3.85-13.36.28-12.05z"/><path class="cls-1" d="M76.64 60.64c1.33-2.1 3.23-11.18-.18-12.33-4.13-1.28-2.72 10.48-.28 12a.46.46 0 0 0 0 .48c-2.07-.51-2.59-4.89-2.74-6.53s-.49-5.54 1.64-6.28c5.46-2 3.64 10.74 2.08 12.86a.54.54 0 0 1-.93 0 .41.41 0 0 0 .41-.23z"/><path class="cls-1" d="M77.46 49.64a7.38 7.38 0 0 1 .54 4 18.43 18.43 0 0 1-1.62 6.3 12.21 12.21 0 0 1-1.56-10.3c.51-1.49 1.95-1.18 2.64 0z"/><path class="cls-6" d="M78.82 75.76a17.65 17.65 0 0 0-1.77.82 11.94 11.94 0 0 1-2.31.13.19.19 0 0 0-.15.05c-.28 0-.56.36-.28.59a4.08 4.08 0 0 1 1.28 3.92 9 9 0 0 1-5.38-1.46c-.06 0-.13-.08-.18-.1a.24.24 0 0 0-.36 0 .5.5 0 0 0-.23.38c-.15 1.9-.82 4.18-3 4.39-2 .2-3.61-1.49-5-2.75a.1.1 0 0 0-.07 0l-.06-.05a.19.19 0 0 0-.3 0 .41.41 0 0 0-.08.13c-.95 1.64-2 3.31-4.18 2.7-1.77-.52-2.95-2.24-4-3.7l.33-.25c.26-.21-.13-.59-.38-.39l-.36.28a.3.3 0 0 0-.33.26 11.87 11.87 0 0 1-3.36 1.77 3.13 3.13 0 0 1-4.05-3.49 9.06 9.06 0 0 1 1.85-.85.6.6 0 0 0 .43-.43 60.91 60.91 0 0 0 7.85.9c6.76.15 14.25-1.8 20.58-4.54.92.59 2.2 1.08 3.51 1.69z"/><path class="cls-1" d="M76.56 60.15a.43.43 0 0 1 0 .49l-.33-.21s-.08 0-.1-.07.13-.31.2-.47a2 2 0 0 0 .23.26z"/><path class="cls-1" d="M76.28 60.43l.33.21a.41.41 0 0 1-.41.23.46.46 0 0 1 0-.48s.06.02.08.04zM70.28 80.3a.3.3 0 0 0 0-.16.47.47 0 0 0-.1-.33 9 9 0 0 0 5.38 1.46c0 .1 0 .21-.08.28l.39-.28h-.31a4.08 4.08 0 0 0-1.28-3.92c-.28-.23 0-.62.28-.59a.24.24 0 0 0 0 .33 2.26 2.26 0 0 0 .54.2 5.2 5.2 0 0 1 1.08 4.41.43.43 0 0 1-.36.28 7.81 7.81 0 0 1-5.67-1.33 2.17 2.17 0 0 0 .13-.35zM76.18 98.11v1.08a4.61 4.61 0 0 0-.51 0 6 6 0 0 0 .06-1 .61.61 0 0 0 .33 0 .69.69 0 0 0 .12-.08zM76.18 99.62v.57a5.29 5.29 0 0 0-.54-.13 7.92 7.92 0 0 0 0-.85 4.61 4.61 0 0 1 .51 0c.05.11.03.26.03.41zM76 73.89c-.26.13-.52.26-.77.36l-.62-.25a.55.55 0 0 1-.33-.34l1.23-.53c.41.1.85.23 1.28.35q-.37.21-.79.41zM76.15 97.45a4.64 4.64 0 0 1 0 .66.69.69 0 0 1-.13 0 .61.61 0 0 1-.33 0 .63.63 0 0 1-.1-1.11.72.72 0 0 0 .15-.11.46.46 0 0 1 .41.44zM75.61 100.06a5.29 5.29 0 0 1 .54.13 25.1 25.1 0 0 1-1.89 7.59c-.15-.15-.31-.31-.49-.46a24.55 24.55 0 0 0 1.84-7.26z"/><path class="cls-1" d="M75.9 81.27l-.39.28c0-.07 0-.18.08-.28zM75.74 96.93a.72.72 0 0 1-.15.11.63.63 0 0 0 .13 1.12 6 6 0 0 1-.06 1c-.4.08-.61.77-.07.85a24.55 24.55 0 0 1-1.87 7.2 5.63 5.63 0 0 1-.54-.36 24.79 24.79 0 0 0 2.06-9.53.42.42 0 0 1 .5-.39z"/><path class="cls-1" d="M75.66 99.21a7.92 7.92 0 0 1 0 .85c-.61-.06-.4-.77 0-.85zM75.51 73.15l-1.23.53a.52.52 0 0 1 .62-.68zM74.9 76.94a2.47 2.47 0 0 0 .28.38 2.26 2.26 0 0 1-.54-.2.24.24 0 0 1 0-.33.27.27 0 0 1 .28.12l-.02.03zM74.61 74l.57.23C68.85 77 61.36 78.94 54.6 78.79a60.91 60.91 0 0 1-7.85-.9c.13-.46-.2-1-.77-.85a13.85 13.85 0 0 0-1.3.51c-1.49-.23-3-.46-4.46-.64-3-.36-5.85-.3-8.64-1.36.05-.07.12-.12.18-.2 1.89.65 4.24.46 6.24.65 3 .23 5.94.48 8.92.82 2.56.28 5.15.71 7.69 1 2.38.31 4.92-.54 7.27-.9a53.16 53.16 0 0 0 12.41-3.23.55.55 0 0 0 .32.31zM74.26 107.78c.92 1.1.12 3.1-.44 4.17-.46.87-1.49 3.16-2.74 2.93a.31.31 0 0 1-.16-.13.32.32 0 0 0 .23-.13l.06-.05c1.48-1.33 3.48-4.82 2.61-6.36a.74.74 0 0 0 .44-.43z"/><path class="cls-1" d="M73.74 107.29c.18.15.34.31.49.46a.74.74 0 0 1-.44.43 2.22 2.22 0 0 0-.79-.64.54.54 0 0 1 0-.26c0-.12.1-.23.15-.36a5.63 5.63 0 0 0 .54.36z"/><path class="cls-1" d="M73.82 108.21c.87 1.54-1.13 5-2.61 6.36a.54.54 0 0 0-.13-.74c.38-.75 1.2-1.47 1.51-2.08.59-1.13 1.54-3 0-3.79a10.79 10.79 0 0 0-6.3-1.16l-.23-.38a12.07 12.07 0 0 1 6.94 1.1.64.64 0 0 0 .82.69z"/><path class="cls-1" d="M73.79 108.16a.64.64 0 0 1-.82-.69 2.22 2.22 0 0 1 .82.69z"/><path class="cls-1" d="M73.2 106.9c0 .13-.1.24-.15.36a.54.54 0 0 0 0 .26 12.07 12.07 0 0 0-6.92-1.15v-.54a11.11 11.11 0 0 1 7.07 1.07z"/><path class="cls-6" d="M72.61 108c1.52.79.57 2.66 0 3.79-.31.61-1.13 1.33-1.51 2.08a.42.42 0 0 0-.16-.11 11.77 11.77 0 0 0-4-.38 9.27 9.27 0 0 0-.61-6.51 10.79 10.79 0 0 1 6.28 1.13z"/><path class="cls-1" d="M63.36 16.34c7 4.34 11.74 12.69 8.26 21.71a12.47 12.47 0 0 1-2.36 3.77 6.91 6.91 0 0 1-.77-.25.21.21 0 0 0-.13 0 13 13 0 0 0 3.18-5.15c1.69-5.51-.39-10.61-3.41-15.15-6.33-9.15-21.84-10.77-28.3-.69a.14.14 0 0 0-.13-.08c5.64-8.62 15.59-8.8 23.1-4.5a.4.4 0 0 0 .56.34z"/><path class="cls-1" d="M68.13 21.24c3 4.54 5.1 9.64 3.41 15.15a13 13 0 0 1-3.18 5.15.64.64 0 0 0-.72.69A16.6 16.6 0 0 1 56 46.62 14.83 14.83 0 0 1 50 45c.3-.46-.44-1.05-.82-.59l-.08.08a11.93 11.93 0 0 1-3.51-3.36c-1.92-2.8-4.15-8.51-.69-10.59a4.58 4.58 0 0 0-.08.77c-3 4.15 1.23 10.89 4.87 12.76a14.28 14.28 0 0 0 11 1.28c8.66-3 13.63-11.5 8.92-20.27-5.86-10.94-21.35-15.5-29.68-4.38a.44.44 0 0 0-.1-.15c6.46-10.08 21.97-8.46 28.3.69zM71.08 113.83a.54.54 0 0 1 .13.74l-.06.05a.32.32 0 0 1-.23.13.25.25 0 0 1 0-.13 1.29 1.29 0 0 1 .16-.79z"/><path class="cls-1" d="M70.31 114.11A.47.47 0 0 0 70 114a14.52 14.52 0 0 0-3.29-.15 4.86 4.86 0 0 0 .23-.51 11.77 11.77 0 0 1 4 .38.42.42 0 0 1 .16.11 1.29 1.29 0 0 0-.21.79.25.25 0 0 0 0 .13h-.28a.41.41 0 0 0-.18 0v-.29a.4.4 0 0 0-.12-.35z"/><path class="cls-1" d="M70 114.57l-.44-.08s0-.13.06-.18A.36.36 0 0 1 70 114a1.82 1.82 0 0 1 .3.11.4.4 0 0 1 .13.3v.26a.23.23 0 0 0-.36-.08.08.08 0 0 0-.07-.02z"/><path class="cls-1" d="M70.44 114.67a2.36 2.36 0 0 0-.36-.11.23.23 0 0 1 .36.11zM70.39 115.18c0 .21-.08.41-.13.62-.11-.28-.21-.57-.31-.85a1 1 0 0 0 0-.28 2.36 2.36 0 0 1 .36.11 4.62 4.62 0 0 1 .08.4zM69.8 80.35a1.12 1.12 0 0 1-.21-.18.32.32 0 0 1 0-.41.53.53 0 0 1 .39 0s.12.08.18.1a.47.47 0 0 1 .1.33.3.3 0 0 1 0 .16 2.17 2.17 0 0 1 0 .41 3 3 0 0 1-.46-.41z"/><path class="cls-1" d="M70 115c.1.28.2.57.31.85-.54 2.28-2.41 4.66-4.8 4.51a.68.68 0 0 1-.38-.15 1.15 1.15 0 0 0 .23.1.55.55 0 0 0 .69-.39 1.05 1.05 0 0 0 .08-.18c1.92-.38 3.41-2.89 3.87-4.74zM69.8 80.35a3 3 0 0 0 .43.36c-.28 2.1-1.18 4.28-3.49 4.74s-4.45-1.15-5.63-2.85a3.44 3.44 0 0 1 .12-.41c3.36 4.16 8.1 3.93 8.57-1.84zM70 114a.47.47 0 0 1 .3.11 1.82 1.82 0 0 0-.3-.11z"/><path class="cls-2" d="M69.62 25.06c4.71 8.77-.26 17.3-8.92 20.27a14.28 14.28 0 0 1-11-1.28c-3.64-1.87-7.87-8.61-4.87-12.76 0 4.07 5.84 5.89 9.15 4.23a.53.53 0 0 0-.38-1c-3.34.85-7.49-.3-8.1-4.05A.35.35 0 0 0 45 30c-6.3 3.23-.59 11.33 3.8 14.77-3.61 4.23-9.2 5.56-14.56 6.15-5.82.64-18.43-2.43-15.94-10.84 4.13 9 21.07-3.15 20.74-11.66a.27.27 0 0 0-.54 0c-.8 8-15 19-20.28 9.12a.33.33 0 0 0-.61.26c.05.31.13.59.2.87-2.92 6.43 3.57 11.64 9.41 13.25a.38.38 0 0 0 0 .28c2 6.49 2.62 14.08 7.46 19.13-4.58-1.23-9.15-1.93-13.3-4.49-4.41-2.72-7.66-8.64-7-13.79h-.08c-2.54 4.08 1 9.33 3.61 12.49a15 15 0 0 0 1.31 1.33c-2.69.69 0 6.13.9 7.48a6.77 6.77 0 0 0 5.28 3c1.87.08 4.64-.38 6.18-1.8 2.79 1.06 5.64 1 8.64 1.36 1.46.18 3 .41 4.46.64-5.29 2.41-12.56 9.93-10 15.74a8.77 8.77 0 0 0 .85 1.46 20.42 20.42 0 0 1-2.82 0 5 5 0 0 1-2-.49c-.28-.13-.46-.28-.72-.43a7.52 7.52 0 0 0 2.16-4.44c0-.2-.23-.23-.34-.1C30.09 92 28.6 94 25.66 95.5a16.77 16.77 0 0 1-4.28 1.28c4.89-5.23.92-12-3.57-16.41-4.2-4.1-8.07-7.87-10.76-13.22-3.11-6.1-3-13.56-2.41-20.2 1.05-12.18 7.51-24.3 18.84-29.76 2.05 3 4.12 5.92 6.33 8.74a6.29 6.29 0 0 0-.57 6.07c.16.31.54.05.49-.2-.79-5.44 4.38-10.64 9.79-10.49a.41.41 0 0 0 .41-.56c8.33-11.17 23.82-6.61 29.69 4.31z"/><path class="cls-1" d="M70.05 114.59v-.05a.08.08 0 0 1 0 .05zM70 79.68a.53.53 0 0 0-.39 0 .24.24 0 0 1 .39 0zM70 114.57v.05a.24.24 0 0 0-.08.26c-.41 1.9-1.9 4.41-3.87 4.74.08-.2.15-.43.23-.69 1.77-.56 2.79-2.82 3.25-4.51z"/><path class="cls-1" d="M70 114.62a1 1 0 0 1 0 .28.24.24 0 0 1 0-.28zM69.59 80.17a1.12 1.12 0 0 0 .21.18c-.47 5.77-5.21 6-8.57 1.84a1.08 1.08 0 0 0 .11-.28.18.18 0 0 0-.05-.15.1.1 0 0 1 .07 0c1.34 1.26 2.9 3 5 2.75 2.23-.21 2.9-2.49 3-4.39a.5.5 0 0 1 .23-.38.32.32 0 0 0 0 .43zM70 114a.36.36 0 0 0-.36.31s0 .13-.06.18a18.92 18.92 0 0 0-3.2-.13.44.44 0 0 0-.11-.25.26.26 0 0 0 .38-.1.24.24 0 0 0 0-.13A14.52 14.52 0 0 1 70 114zM69 143.66c-.08-.2.15-.41.35-.36a1.67 1.67 0 0 0 .18 0 .18.18 0 0 1 0 .13c0 .08-.05.16-.08.23a1.38 1.38 0 0 1-.18.34 2.53 2.53 0 0 1-.28-.31.12.12 0 0 1 .01-.03z"/><path class="cls-1" d="M69.51 143.35a1.67 1.67 0 0 1-.18 0c-.2-.05-.43.16-.35.36-2.49 2-12.67 2-14.69-.36a.45.45 0 0 0-.49-.69h.05c.44-.23 1.08.74 1.36.9a13.68 13.68 0 0 0 5.15 1.07 23.48 23.48 0 0 0 5.56-.28c1.16-.26 2.16-.9 3.26-1.13a.24.24 0 0 1 .33.13z"/><path class="cls-1" d="M69 143.74a2.53 2.53 0 0 0 .28.31c-1.3 1.84-6.66 1.64-8.25 1.56-2-.1-5.74-.15-7.1-2.05l.23-.13a.33.33 0 0 0 .13-.13c2 2.31 12.2 2.36 14.69.36a.12.12 0 0 0 .02.08zM68.69 42.39a5.3 5.3 0 0 1-.53.53.69.69 0 0 1-.49-.66 7.65 7.65 0 0 0 .72-.69.21.21 0 0 1 .13 0 6.91 6.91 0 0 0 .77.25 5.11 5.11 0 0 1-.6.57z"/><path class="cls-5" d="M69.56 114.49c-.46 1.69-1.48 4-3.25 4.51a7.59 7.59 0 0 0 0-4.64 18.92 18.92 0 0 1 3.25.13z"/><path class="cls-1" d="M67.64 42.23a.64.64 0 0 1 .72-.69 7.65 7.65 0 0 1-.72.69zM67.64 42.26a.69.69 0 0 0 .49.66C63.49 47.13 56 48.74 50.6 46a6.75 6.75 0 0 1-.93-.56c.11-.13.23-.28.34-.43a14.83 14.83 0 0 0 6 1.67 16.6 16.6 0 0 0 11.63-4.42zM66.26 1.73a.58.58 0 0 1 .74.57 47.46 47.46 0 0 1-.9 6.38 4.5 4.5 0 0 0-.64 0 41.85 41.85 0 0 0 1-5.71l.21-.08a.75.75 0 0 0-.18-.13v-.43c-.13.05-.28.07-.41.12s-.13-.07-.18-.12a.58.58 0 0 1 0 .18c-4.49 1.38-9.38 3-13.28 5.58a.45.45 0 0 0-.13-.28s0-.07-.08-.1c3.67-3.26 9.26-4.62 13.85-5.98zM66.31 106.83a9.27 9.27 0 0 1 .61 6.51 4.1 4.1 0 0 0-.48 0c0-.92.07-1.92.07-2.92a8.48 8.48 0 0 0-.53-3.36v-.23a.51.51 0 0 1 .33 0zM66.92 113.34a4.86 4.86 0 0 1-.23.51h-.23a.26.26 0 0 0-.08-.36.15.15 0 0 1 0-.11 4.1 4.1 0 0 1 .54-.04z"/><path class="cls-1" d="M66.69 113.85a.24.24 0 0 1 0 .13.26.26 0 0 1-.38.1.8.8 0 0 0 .2-.21zM66.57 2.86l-.21.08a.59.59 0 0 0 0-.21.75.75 0 0 1 .21.13zM66.41 113.47a.26.26 0 0 1 .08.36zM66.36 114.36a7.59 7.59 0 0 1 0 4.64 2.28 2.28 0 0 1-.59.11c.56-1.47.33-3.18.31-4.75h.33zM55.06 109.24a.23.23 0 0 0 .39-.15V109a38.88 38.88 0 0 1 9.55-2.61.45.45 0 0 0 .25.51s0 .08.06.13a.41.41 0 0 0 .64 0 8.48 8.48 0 0 1 .53 3.36c0 1-.07 2-.07 2.92a.15.15 0 0 0-.13 0 1.37 1.37 0 0 0-.28 0 14.44 14.44 0 0 1 0-2.79c0-1.62.2-4-2-3.49a70.82 70.82 0 0 0-8.89 2.46.33.33 0 0 0-.44 0 .33.33 0 0 1 .07-.39h.13a.7.7 0 0 0 .19.14z"/><path class="cls-1" d="M66.46 113.85a.8.8 0 0 1-.2.21.07.07 0 0 1-.05 0 .69.69 0 0 0-.05-.13h.33zM66.44 113.36a.15.15 0 0 0 0 .11c0-.06-.07-.08-.1-.11a.15.15 0 0 1 .1 0z"/><path class="cls-1" d="M66.08 113.72a1.61 1.61 0 0 1-.1-.36h.33s.08 0 .1.11v.38h-.28a.69.69 0 0 1-.05-.13zM66.41 2.3v.43c-.13-.13-.26-.2-.39-.31.11-.05.26-.07.39-.12zM66 2.42c.13.11.26.18.39.31a.59.59 0 0 1 0 .21c-.2.05-.41.13-.61.2a6.57 6.57 0 0 0 0-.66c.09-.03.22-.03.22-.06z"/><path class="cls-1" d="M65.18 9.47a.32.32 0 0 0 .15.06 3.45 3.45 0 0 1 .56.1 25.52 25.52 0 0 1-2.35 6.51.5.5 0 0 1-.21.2l-.54-.3a.38.38 0 0 1 0-.23c1-4.29 2.59-8.26 3-12.67.2-.07.41-.15.61-.2a41.85 41.85 0 0 1-1 5.71.46.46 0 0 0-.22.82zM66.23 114.11a.44.44 0 0 1 .11.25H66v-.12a1.13 1.13 0 0 0 .23-.13zM66.31 106.8a.51.51 0 0 0-.28 0 3.15 3.15 0 0 0 0-.43zM66.31 119c-.08.26-.15.49-.23.69a2.15 2.15 0 0 1-.62 0 3.13 3.13 0 0 0 .21-.46H65.69s.06-.05 0-.07a2.28 2.28 0 0 0 .62-.16zM66.26 114.06zM66.26 113.36H66a1.37 1.37 0 0 1 .26 0zM66 114.24l-.13.08a.31.31 0 0 1-.1 0 1.69 1.69 0 0 1 .13-.31.17.17 0 0 1 .28 0 1.13 1.13 0 0 1-.18.23z"/><path class="cls-1" d="M66.13 113.85a.69.69 0 0 1 .05.13.17.17 0 0 0-.28 0 1.69 1.69 0 0 0-.13.31.48.48 0 0 1-.23-.41l.54-.16a.69.69 0 0 0 .05.13zM66 9.14c0 .18-.08.33-.11.49a3.45 3.45 0 0 0-.56-.1.32.32 0 0 1-.15-.06c.05-.25.13-.53.18-.79a4.5 4.5 0 0 1 .64 0c.08.15.05.32 0 .46zM66.05 105.83v.54a3.16 3.16 0 0 0-.28-.39.14.14 0 0 0-.1 0 1.78 1.78 0 0 1 .38-.15zM66.08 106.37s-.03-.03 0 0z"/><path class="cls-1" d="M66.08 106.39a3.15 3.15 0 0 1 0 .43.32.32 0 0 0-.18 0 1.85 1.85 0 0 0-.23-.36v-.08a1.11 1.11 0 0 1 .43-.07zM66.08 113.72l-.54.16a.49.49 0 0 1 .44-.52 1.61 1.61 0 0 0 .1.36zM66.08 119.69a1.05 1.05 0 0 1-.08.18.55.55 0 0 1-.69.39 1.15 1.15 0 0 1-.23-.1.6.6 0 0 1-.08-.65 3.06 3.06 0 0 0 .51.26 2.15 2.15 0 0 0 .57-.08zM66 114.36c0 1.57.25 3.28-.31 4.75a.39.39 0 0 1-.15 0 2 2 0 0 1-.34-.23 6.85 6.85 0 0 0 .39-2.77 6.46 6.46 0 0 1 .1-1.72s.1 0 .15-.07a.3.3 0 0 0 .16.04z"/><path class="cls-1" d="M65.77 106a3.16 3.16 0 0 1 .28.39 1.11 1.11 0 0 0-.43.07c0-.15-.05-.33-.08-.48a.21.21 0 0 1 .13 0 .14.14 0 0 1 .1.02zM66 106.85v.23c0 .05-.08-.15-.13-.2a.32.32 0 0 1 .13-.03zM66 114.26v.1a.3.3 0 0 1-.13 0zM66 2.42s-.13 0-.2.06a.58.58 0 0 0 0-.18c.07.05.2.07.2.12zM66 113.31a.49.49 0 0 0-.44.52 37.37 37.37 0 0 1-4.43.87 2.12 2.12 0 0 0-.33-.34.49.49 0 0 0-.16 0c.72-.12 1.41-.23 2.11-.38.94-.21 2.25-.82 3.25-.67z"/><path class="cls-6" d="M64 107c2.18-.46 2 1.87 2 3.49a14.44 14.44 0 0 0 0 2.79c-1-.15-2.29.46-3.28.67-.7.15-1.39.26-2.11.38a.13.13 0 0 0-.15 0h-.1c-.67.11-1.36.21-2 .34a11.19 11.19 0 0 1-1.69-2.23c-.54-1-.9-2-1.49-3A70.82 70.82 0 0 1 64 107z"/><path class="cls-1" d="M65.85 106.88c.05.05.07.13.13.2a.41.41 0 0 1-.64 0s0-.08-.06-.13a.44.44 0 0 0 .31 0 .8.8 0 0 1 .26-.07zM65.54 105.85h-.18a1.26 1.26 0 0 1-.33.05 13.4 13.4 0 0 1-.21-2.46c-.07-1.33-.23-2.66-.36-4 0-.31.41-.36.52-.08a26 26 0 0 1 .84 4.49c.08.64.21 1.31.23 2a1.78 1.78 0 0 0-.38.1.16.16 0 0 0-.13-.1z"/><path class="cls-1" d="M65.57 106.44v.08a1.85 1.85 0 0 1 .23.36.8.8 0 0 0-.26.05.44.44 0 0 1-.31 0 5.43 5.43 0 0 1-.17-.53l.35-.08zM65.77 114.29a.31.31 0 0 0 .1 0c-.05 0-.1.07-.15.07s.03-.05.05-.07zM65.8 2.48a6.57 6.57 0 0 1 0 .66A121.44 121.44 0 0 0 52 8.81a.36.36 0 0 1-.52-.34c.08.06.18.11.26.16a.52.52 0 0 0 .77-.57c3.91-2.61 8.8-4.2 13.29-5.58z"/><path class="cls-1" d="M65.77 114.29v.12A9.44 9.44 0 0 1 63 115c-.49.08-1 .13-1.46.2a2.76 2.76 0 0 0-.41-.43 37.37 37.37 0 0 0 4.43-.87.48.48 0 0 0 .21.39zM65.75 119.23h-.08a.12.12 0 0 0 0-.05s.05.05.08.05zM65.72 119.11v.07a.15.15 0 0 1-.12-.05.39.39 0 0 0 .12-.02z"/><path class="cls-1" d="M65.69 119.18a.12.12 0 0 1 0 .05 5.84 5.84 0 0 1-.69.18s0-.1.07-.13a.58.58 0 0 1 .41-.18h.11a.15.15 0 0 0 .1.08zM65.67 119.26a3.13 3.13 0 0 1-.21.46 3.06 3.06 0 0 1-.51-.26 5.84 5.84 0 0 0 .72-.2zM65.67 105.93a.21.21 0 0 0-.13 0v-.11a.16.16 0 0 1 .13.11z"/><path class="cls-5" d="M65.72 114.41a6.46 6.46 0 0 0-.1 1.72 6.85 6.85 0 0 1-.39 2.77c-1.54-1-2.46-2.44-3.71-3.72.48-.07 1-.12 1.46-.2a9.44 9.44 0 0 0 2.74-.57z"/><path class="cls-1" d="M65.62 106.44v0zM65.54 106c0 .15 0 .33.08.48h-.05l-.11-.15-.35.08v-.16a.31.31 0 0 1 .26-.2 1.17 1.17 0 0 1 .17-.05zM65.23 118.9a2 2 0 0 0 .34.23h-.11a.58.58 0 0 0-.41.18 2.44 2.44 0 0 0 .18-.41z"/><path class="cls-1" d="M65.54 105.85v.15a1.17 1.17 0 0 0-.2.05.31.31 0 0 0-.26.2 1.06 1.06 0 0 1 0-.31 1.26 1.26 0 0 0 .33-.05zM65.39 8.68c0 .26-.13.54-.18.79a.46.46 0 0 1 .18-.79zM65.11 106.37a5.43 5.43 0 0 0 .17.53.45.45 0 0 1-.25-.51zM65.23 118.9a2.44 2.44 0 0 1-.18.41s-.07.08-.07.13c-1.72-.94-2.87-2.74-3.92-4.23a2.54 2.54 0 0 0 .49 0c1.22 1.25 2.14 2.72 3.68 3.69z"/><path class="cls-1" d="M65.08 106.21v.16H65a.19.19 0 0 1 .08-.16z"/><path class="cls-1" d="M65.08 106.21a.19.19 0 0 0 0 .16 38.88 38.88 0 0 0-9.61 2.63 2 2 0 0 0-.08-.31A32.36 32.36 0 0 1 65 105.9a1.06 1.06 0 0 0 .08.31zM65 119.46a.6.6 0 0 0 .08.65c-2-.85-3.44-2.88-4.44-4.8l.44-.08c1 1.49 2.15 3.29 3.92 4.23zM62.82 16l.54.3a.4.4 0 0 1-.54-.3z"/><path d="M65.75 3.14c-.39 4.41-2 8.38-3 12.67a.38.38 0 0 0 0 .23c-7.51-4.34-17.46-4.16-23.1 4.43a.32.32 0 0 0-.18 0c-3-.15-6.64 1.67-8.84 4.31-3.03-4.67-6.31-9.23-9.63-13.64 4.95.36 9.82 2.13 14.77 1.85h.05a.54.54 0 0 0 .59-.21c1.4-1.92 3.59-11.66 6.32-11.23 1.82.29 3.74 2.52 5.05 3.69a25.88 25.88 0 0 0 3.71 3.23.36.36 0 0 0 .52.34 121.44 121.44 0 0 1 13.74-5.67z" fill="#f3ed64"/><path class="cls-1" d="M61.52 115.18a2.54 2.54 0 0 1-.49 0 3.16 3.16 0 0 1-.31-.41l.36-.07a2.76 2.76 0 0 1 .44.48zM60.9 82.32a.22.22 0 0 0-.06-.1.25.25 0 0 1 0-.26s.08-.07.08-.13a.38.38 0 0 1 .3-.05l.06.05a.18.18 0 0 1 .05.15 1.08 1.08 0 0 1-.11.28 3.44 3.44 0 0 0-.12.41.85.85 0 0 1-.2-.35zM60.93 81.73a.19.19 0 0 1 .3 0 .38.38 0 0 0-.3.05z"/><path class="cls-1" d="M60.9 82.32a.85.85 0 0 0 .21.28c-.77 1.77-2.36 3.41-4.41 3s-3.7-2.3-4.62-4.2a1.31 1.31 0 0 0 .28-.2c2.23 4 6.26 6.1 8.49 1.15zM60.7 114.82a1.07 1.07 0 0 0-.31.06 1.48 1.48 0 0 0-.08-.13.33.33 0 0 1 0-.34h.25a.49.49 0 0 1 .16 0 2.12 2.12 0 0 1 .33.34l-.36.07z"/><path class="cls-1" d="M61 115.23l-.44.08a4.14 4.14 0 0 1-.2-.43 1.07 1.07 0 0 1 .31-.06 3.16 3.16 0 0 0 .33.41zM60.88 81.78c0 .06 0 .08-.08.13a.41.41 0 0 1 .08-.13zM60.82 82.22a.22.22 0 0 1 .06.1c-2.23 5-6.26 2.9-8.49-1.15a2.39 2.39 0 0 1 .26-.21c1 1.46 2.2 3.18 4 3.7 2.15.61 3.23-1.06 4.18-2.7a.25.25 0 0 0-.01.26z"/><path class="cls-1" d="M60.39 114.88a4.14 4.14 0 0 0 .2.43l-1.94.26a.41.41 0 0 0 0-.44c.53-.07 1.12-.13 1.74-.25zM60.59 114.36h-.15a.13.13 0 0 1 .15 0z"/><path class="cls-1" d="M60.31 114.75a1.48 1.48 0 0 1 .08.13c-.62.07-1.21.18-1.77.25a.07.07 0 0 0 0-.07c-.1-.11-.18-.21-.28-.31.67-.13 1.36-.23 2-.34a.33.33 0 0 0-.03.34z"/><path class="cls-1" d="M57.88 115.08a.31.31 0 0 1 .28-.31h.15c.1.1.18.2.28.31a.07.07 0 0 1 0 .07.41.41 0 0 1 0 .44c-.13 0-.26 0-.39.05a.41.41 0 0 1-.32-.56z"/><path class="cls-1" d="M57.88 115.08a.41.41 0 0 0 .38.54c.13 0 .26 0 .39-.05a.37.37 0 0 1-.49.23 1 1 0 0 1-.26-.1c.08-.49-.56-.72-.72-.33-1.64-1.13-2-3.87-2.61-5.57a.25.25 0 0 1 .08-.3.18.18 0 0 0 .26.1l.18-.08c.59 1 .95 2 1.49 3a11.19 11.19 0 0 0 1.69 2.23h-.15a.31.31 0 0 0-.24.33z"/><path class="cls-1" d="M57.18 115.34c.16-.39.8-.16.72.33a2 2 0 0 1-.72-.33z"/><path class="cls-1" d="M57.18 115.34a2 2 0 0 0 .72.36c-1.56 11.07-14.56 19-23.71 23.17-2 .92-5.38 2.72-8.79 3.95-.26-.06-.54-.13-.8-.21s-.38.31-.15.41l.15.08c-3.74 1.25-7.48 1.69-9.68-.46a.73.73 0 0 1-.06-1 3.53 3.53 0 0 0 0 .46.24.24 0 0 0 .47 0c0-.25.05-.51.05-.77a.66.66 0 0 1 .64.21c3.56 3.64 15.33-2.28 18.92-4 9-4.28 19.81-11.56 22.19-22.07a.19.19 0 0 1 .05-.13z"/><path class="cls-3" d="M57.18 115.34a.19.19 0 0 0 0 .1c-2.43 10.56-13.27 17.79-22.24 22.07-3.59 1.72-15.36 7.64-18.92 4a.66.66 0 0 0-.64-.21c.64-8.17 1.56-16.12 5.84-23.32 4.72-8 13.2-16.36 22.74-17.38a13.89 13.89 0 0 0 7.39.82 14.2 14.2 0 0 0 1.27 3.58 14.39 14.39 0 0 0 2.23 4h-.13a.33.33 0 0 0-.07.39.25.25 0 0 0-.08.3c.59 1.78.97 4.52 2.61 5.65z"/><path class="cls-1" d="M55.47 109v.08a.23.23 0 0 1-.39.15 1.23 1.23 0 0 1 .39-.23z"/><path class="cls-1" d="M55.11 108.88a.8.8 0 0 1 .28-.16 2 2 0 0 1 .08.31 1.23 1.23 0 0 0-.41.21.7.7 0 0 1-.21-.21.58.58 0 0 1 .26-.15z"/><path class="cls-1" d="M55.39 108.72a.8.8 0 0 0-.28.16 55 55 0 0 1-3.49-7.51.36.36 0 0 0 .23-.28c.72 1.48 1.31 3 2.08 4.56a11.36 11.36 0 0 1 1.46 3.07zM55.11 109.49l-.18.08a.18.18 0 0 1-.26-.1.33.33 0 0 1 .44.02z"/><path class="cls-1" d="M55.11 108.88a.58.58 0 0 0-.26.15 14.39 14.39 0 0 1-2.23-4.03 14.2 14.2 0 0 1-1.25-3.54.49.49 0 0 0 .2 0 55 55 0 0 0 3.54 7.42zM54.29 143.3a.33.33 0 0 1-.13.13l-.23.13a1.39 1.39 0 0 1-.23-.41.46.46 0 0 1-.08-.13.36.36 0 0 1 .13-.38.45.45 0 0 1 .54.66zM45.19 30.83a2 2 0 0 0 .25-.26s.06-.05.06-.08c.61 3.75 4.76 4.9 8.1 4.05a.53.53 0 0 1 .38 1c-3.31 1.66-9.12-.16-9.15-4.23z"/><path class="cls-1" d="M53.7 143.15a1.39 1.39 0 0 0 .23.41c-4.36 2.28-10.1 2.77-14.38.05.1-.05.1-.15.08-.26a15.3 15.3 0 0 0 14.07-.2z"/><path class="cls-1" d="M53.67 142.64h.08a.36.36 0 0 0-.13.38.46.46 0 0 0 .08.13 15.3 15.3 0 0 1-14.07.2.31.31 0 0 0-.39-.23h-.1a.18.18 0 0 1 .25-.13c4.87 1.82 9.54 2.01 14.28-.35zM52.49 80.73a.28.28 0 0 0-.25-.13l.36-.28c.25-.2.64.18.38.39l-.33.25z"/><path class="cls-1" d="M52.49 80.73l.16.23a2.39 2.39 0 0 0-.26.21 1.72 1.72 0 0 0-.12-.21 1.55 1.55 0 0 0 .22-.23zM51.9 8.06a2.08 2.08 0 0 1 .41-.38s0 .08.08.1a.45.45 0 0 1 .13.28.52.52 0 0 1-.77.57c-.08-.05-.18-.1-.26-.16a.72.72 0 0 1 .11-.15 3.48 3.48 0 0 1 .3-.26z"/><path class="cls-1" d="M52.24 80.94c-.08.06-.18.11-.26.18L51.9 81a.24.24 0 0 1 0-.1l.33-.26a.28.28 0 0 1 .25.13 1.55 1.55 0 0 1-.24.17zM52.36 81.17a1.31 1.31 0 0 1-.28.2.94.94 0 0 1-.1-.23c.08-.07.18-.12.26-.18a1.72 1.72 0 0 1 .12.21zM52.31 7.68a2.08 2.08 0 0 0-.41.38C50 6.55 43.86.4 42.37 1c-2.9.9-4.41 8.54-6.18 11.21a.52.52 0 0 0-.28-.13 1.37 1.37 0 0 1-.28 0C37.55 9 38.37 1 42.44.35 44 .12 45.93 2.07 47 3a38.44 38.44 0 0 1 5.31 4.68zM52.21 80.6l-.33.26a.3.3 0 0 1 .33-.26z"/><path class="cls-1" d="M52.08 81.37c-1.77 1.28-3.92 2.59-6 1.72-1.38-.49-2.63-2.09-2.28-3.56a2.87 2.87 0 0 1 .34-.18c-.44 1.46.82 3.1 2.38 3.64 1.95.49 3.9-.69 5.46-1.85a.94.94 0 0 0 .1.23z"/><path class="cls-1" d="M51.9 81l.08.15c-1.56 1.16-3.51 2.34-5.46 1.85-1.56-.54-2.82-2.18-2.38-3.64a1.37 1.37 0 0 1 .33-.18 3.13 3.13 0 0 0 4.05 3.49 11.87 11.87 0 0 0 3.36-1.77.24.24 0 0 0 .02.1zM51.9 8.06a3.48 3.48 0 0 0-.3.26.72.72 0 0 0-.11.15 25.88 25.88 0 0 1-3.71-3.23c-1.31-1.17-3.23-3.4-5.05-3.69-2.72-.43-4.92 9.31-6.36 11.23a.54.54 0 0 1-.59.21h.13a.46.46 0 0 0 .28-.82C38 9.5 39.47 1.86 42.37 1 43.86.4 50 6.55 51.9 8.06z"/><path class="cls-1" d="M51.57 100.55a.41.41 0 0 1 .28.54c-.07-.13-.13-.29-.2-.41s-.44-.11-.41.1 0 .13 0 .2a23.94 23.94 0 0 1-6.4-1.2.39.39 0 0 0-.42-.26h-.35c-2.93-1-5.85-2.51-7.56-4.48a.37.37 0 0 0-.29-.34A5.47 5.47 0 0 1 35 91.32c0-5 6.22-12.28 10.94-13.56l.82.13a.6.6 0 0 1-.43.43 9.06 9.06 0 0 0-1.85.85v-.1c0-.26-.26-.41-.41-.18a1.55 1.55 0 0 0-.26.64c-5.22 3.25-11.43 11.2-6.1 15.74 4.15 3.53 8.97 3.73 13.86 5.28z"/><path class="cls-1" d="M51.62 101.37a.49.49 0 0 1-.2 0 1 1 0 0 1-.08-.44v-.2c0-.07.31-.28.41-.1s.13.28.2.41a.36.36 0 0 1-.33.33zM51.29 101a1 1 0 0 0 .08.44 13.89 13.89 0 0 1-7.37-.84h.46a.51.51 0 0 0 .42-.77 23.94 23.94 0 0 0 6.4 1.2zM47.11 53.61C51.42 52 50.44 62.18 49.49 65a1.59 1.59 0 0 1-.53-.18c.69-2.56 2.23-12.23-1.44-11-3.1 1-1.46 9.43 1.41 11a2.51 2.51 0 0 1-.13.41.39.39 0 0 0 0 .15c-2.71-1.08-5.07-10.59-1.69-11.77z"/><path class="cls-1" d="M49.49 65c.95-2.79 1.93-13-2.38-11.36-3.38 1.18-1 10.69 1.67 11.74a.57.57 0 0 0 .46.57c-2.92.13-6.87-10.33-2.59-12.49 5-2.43 4.36 8.62 3.41 11.77a.36.36 0 0 0-.31-.18.8.8 0 0 1-.26-.05zM49.19 44.36c.38-.46 1.12.13.82.59a6.13 6.13 0 0 1-.9-.51z"/><path class="cls-1" d="M50.06 65.2a.33.33 0 0 1-.05.41 1.4 1.4 0 0 1-.16.1c.08-.18.15-.33.21-.51z"/><path class="cls-1" d="M50.06 65.2c-.08.18-.13.33-.18.46a1.1 1.1 0 0 1-.61.21.57.57 0 0 1-.46-.57 1.14 1.14 0 0 0 1 0h-.38a1.21 1.21 0 0 0 .12-.38.8.8 0 0 0 .26 0 .36.36 0 0 1 .25.28zM49.26 45.13c-.15-.1-.28-.21-.43-.33a2.48 2.48 0 0 0 .28-.36A6.13 6.13 0 0 0 50 45c-.11.15-.23.3-.34.43a3 3 0 0 1-.4-.3z"/><path class="cls-1" d="M49.37 65.35h.38a1.14 1.14 0 0 1-1 0 .39.39 0 0 1 0-.15 2.51 2.51 0 0 0 .13-.41 1.59 1.59 0 0 0 .53.18 1.21 1.21 0 0 1-.04.38zM49.85 65.71a.53.53 0 0 1-.61.21 1.1 1.1 0 0 0 .61-.21zM49.26 45.13a3 3 0 0 0 .41.28c-4.61 5.82-14.4 8.25-21.5 6.74h-.1a1 1 0 0 0-.07-.25.42.42 0 0 0-.74 0c-5.84-1.61-12.33-6.82-9.41-13.25a3.39 3.39 0 0 0 .16.59c-2.73 5.76 5.06 11.55 10.34 12.3 6.28.72 16.91-.87 20.91-6.41z"/><path class="cls-1" d="M48.83 44.8c.15.12.28.23.43.33-4 5.54-14.63 7.13-20.91 6.41C23.07 50.79 15.28 45 18 39.26a5.6 5.6 0 0 0 .33.82c-2.49 8.41 10.12 11.48 15.94 10.84 5.33-.59 10.92-1.92 14.56-6.12zM49.11 44.44a2.48 2.48 0 0 1-.28.36C44.44 41.36 38.73 33.26 45 30a.35.35 0 0 1 .47.46v-.18a.27.27 0 0 0-.54 0 .93.93 0 0 0 0 .23c-3.46 2.08-1.23 7.79.69 10.59a11.93 11.93 0 0 0 3.49 3.34zM47.52 53.82c3.67-1.26 2.13 8.41 1.44 11-2.9-1.57-4.54-9.95-1.44-11zM45.93 77.76c-.41-.08-.84-.13-1.25-.21A13.85 13.85 0 0 1 46 77c.57-.18.9.39.77.85z"/><path class="cls-1" d="M44.68 77.55c.41.08.84.13 1.25.21C41.21 79 35 86.27 35 91.32a5.47 5.47 0 0 0 1.25 3.38h-.13l-.61.07a8.77 8.77 0 0 1-.85-1.46C32.12 87.48 39.39 80 44.68 77.55zM45.47 30.31v.18c0 .05 0 .05-.06.08a2 2 0 0 1-.25.26 4.7 4.7 0 0 1 0-.52l-.3.18a.93.93 0 0 1 0-.23.27.27 0 0 1 .61.05z"/><path class="cls-1" d="M45.21 30.31a4.7 4.7 0 0 0 0 .52l-.36.43a4.58 4.58 0 0 1 .08-.77zM42.68 100.11l-.85-.38a16.8 16.8 0 0 1 2.26-.21c.26.1.49.18.75.26a.51.51 0 0 1-.42.77h-.46c-.44-.11-.87-.26-1.28-.44z"/><path class="cls-1" d="M44.44 99.52a.39.39 0 0 1 .42.26c-.26-.08-.49-.16-.75-.26zM44.14 79.35a2.87 2.87 0 0 0-.34.18 1.55 1.55 0 0 1 .26-.64c.15-.23.44-.08.41.18v.1a1.37 1.37 0 0 0-.33.18zM42.68 100.11c.41.18.84.33 1.28.49-9.54 1-18 9.41-22.74 17.38-4.28 7.2-5.2 15.15-5.84 23.32a.54.54 0 0 0-.28.11 56.42 56.42 0 0 1 2.81-18.23c2-5.59 6.62-11.2 10.8-15.28 3.79-3.69 8.58-7.3 13.97-7.79zM36.53 95c1.71 2 4.63 3.48 7.56 4.48a16.8 16.8 0 0 0-2.26.21 18.26 18.26 0 0 1-5.72-4.18.15.15 0 0 1 .11 0 .43.43 0 0 0 .31-.51z"/><path class="cls-1" d="M41.83 99.73l.85.38c-5.39.49-10.18 4.1-14 7.79-4.18 4.08-8.82 9.69-10.8 15.28a56.42 56.42 0 0 0-2.81 18.23.6.6 0 0 0-.24.2c-.43-9.94 1.47-20 7.8-28 4.95-6.14 11.15-12.73 19.2-13.88zM30.27 26.26c.49.13 1.1-.51.77-1 2.08-2.67 5.62-4.54 8.46-4.34a.76.76 0 0 1-.08.11c-.1.15.16.31.26.15s.18-.26.28-.38a.41.41 0 0 1-.41.56c-5.41-.15-10.58 5.05-9.79 10.49.05.25-.33.51-.49.2a6.29 6.29 0 0 1 .57-6.05l.13.15a.39.39 0 0 0 .3.11z"/><path class="cls-1" d="M39.83 20.55a.44.44 0 0 1 .1.15c-.1.12-.18.25-.28.38s-.36 0-.26-.15a.76.76 0 0 0 .08-.11c.08-.12.16-.25.23-.38a.14.14 0 0 1 .13.11z"/><path class="cls-1" d="M39.7 20.47c-.07.13-.15.26-.23.38-2.84-.2-6.38 1.67-8.46 4.34a3.54 3.54 0 0 0-.33-.46c2.2-2.64 5.87-4.46 8.84-4.31a.32.32 0 0 1 .18.05zM39.63 143.33c0 .11 0 .21-.08.26a1.47 1.47 0 0 1-.28-.18h-.05a.21.21 0 0 1-.08-.29h.1a.31.31 0 0 1 .39.21z"/><path class="cls-1" d="M39.55 143.61c-4.56 2.57-10.28 1.33-14.87-.56a2 2 0 0 0 .31-.13c4.75 1.61 9.36 2.64 14.31.46a1.47 1.47 0 0 0 .25.23z"/><path class="cls-1" d="M39.22 143.41h.05c-5 2.18-9.56 1.15-14.31-.46a1.76 1.76 0 0 0 .44-.15 27.67 27.67 0 0 0 7 1.41 24 24 0 0 0 6.77-1.11.21.21 0 0 0 .05.31zM18.12 38.23a.4.4 0 0 0-.21.18 1.39 1.39 0 0 0-.1.26c-.07-.28-.15-.56-.2-.87a.33.33 0 0 1 .61-.26c5.28 9.92 19.48-1.13 20.28-9.12a.27.27 0 0 1 .54 0c.33 8.51-16.61 20.68-20.74 11.66a3.62 3.62 0 0 1 .28-.82 2.6 2.6 0 0 1 .13-.36.49.49 0 0 0-.59-.67zM35.81 95.16c-.11-.12-.21-.28-.31-.41l.61-.07h.13c.02 0 .18.23.29.34a.43.43 0 0 1-.31.48.15.15 0 0 0-.11 0zM20.35 66.92c0-.1-.05-.18-.15-.18h-.08a1.91 1.91 0 0 0-.9.1 15 15 0 0 1-1.31-1.33C15.3 62.35 11.76 57.1 14.3 53h.08c-.69 5.15 2.56 11.07 7 13.79 4.15 2.56 8.72 3.26 13.3 4.49a16.2 16.2 0 0 0 1.21 1.12c.28.23.84-.1.56-.46-.05 0-.08-.13-.13-.18.85.44.39 1.87-.59 1.57-5.25-1.69-11.45-2.44-15.84-6a1.71 1.71 0 0 1 .41-.36c.02.03.05-.03.05-.05z"/><path class="cls-1" d="M35.58 71.58l.56.16a.34.34 0 0 1 .15.07c.05 0 .08.13.13.18.28.36-.28.69-.56.46a16.2 16.2 0 0 1-1.21-1.12c.35.07.62.15.93.25zM36.53 95c-.11-.11-.19-.23-.29-.34a.37.37 0 0 1 .29.34z"/><path class="cls-1" d="M35.58 71.58c-.31-.1-.62-.18-.93-.25-4.84-5-5.43-12.64-7.46-19.13a.38.38 0 0 1 0-.28 8.11 8.11 0 0 0 .85.21c3.26 6.53 3.96 13.58 8.25 19.68a.34.34 0 0 0-.15-.07zM36.19 12.17a.46.46 0 0 1-.28.82h-.18a.49.49 0 0 1-.36-.49 4.87 4.87 0 0 0 .54 0z"/><path class="cls-1" d="M36.19 12.17l-.28.35a4.87 4.87 0 0 1-.54 0 .48.48 0 0 1 .1-.26.89.89 0 0 0 .16-.25 1.37 1.37 0 0 0 .28 0 .52.52 0 0 1 .28.16zM35.81 95.16l.3.39a10.68 10.68 0 0 1-4.25.2 3.48 3.48 0 0 1-2.49-1.28c.11-.1.21-.2.31-.31 1.32 1.41 4.15 1.31 6.13 1z"/><path class="cls-1" d="M35.73 13c-4.95.28-9.82-1.49-14.77-1.85-.15-.23-.33-.44-.51-.67 5 .16 9.9 1.93 14.92 2a.49.49 0 0 0 .36.52zM35.5 94.75c.1.13.2.29.31.41-2 .31-4.77.41-6.13-1a2.56 2.56 0 0 0 .28-.3c.26.15.44.3.72.43a5 5 0 0 0 2 .49 20.42 20.42 0 0 0 2.82-.03z"/><path class="cls-1" d="M35.63 12a.89.89 0 0 1-.16.25.48.48 0 0 0-.1.26c-5-.1-9.89-1.87-14.92-2a3.38 3.38 0 0 0-.25-.36c-.08.11-.13.24-.21.34a1.46 1.46 0 0 0-.36 0l.21.28-.21.36a2.63 2.63 0 0 1 .49 0c3.36 4.61 6.72 9.56 10.1 14.2-.15.2-.28.43-.41.64-2.21-2.82-4.28-5.77-6.33-8.74a.54.54 0 0 1 .18-.1c.48-.23.15-1.08-.36-.87l-.36.15c-1.31-1.87-2.59-3.74-3.87-5.61a.67.67 0 0 1 .56-1c5.37.2 10.69 1.55 16 2.2zM31.42 74.84l-.34-.08c-.25-.1-.46.28-.28.46-2.77 1.72-5.94 2.13-8.87.18-1.61-1.25-5.17-6.92-2.41-8.3a2.48 2.48 0 0 0 .36.28c-2 1.84.16 5.15 1.77 6.87a6.3 6.3 0 0 0 5.69 1.64c1.66-.41 3.06-1.64 4.72-1.89a.31.31 0 0 1 .34.46 3.33 3.33 0 0 1-.4.54 2.8 2.8 0 0 1-.58-.16zM20.55 97.55c.31-.26.57-.51.83-.77a16.77 16.77 0 0 0 4.28-1.28c2.94-1.5 4.43-3.5 6.12-6.18.11-.13.36-.1.34.1A7.52 7.52 0 0 1 30 93.86a2.19 2.19 0 0 0-.41-.16.29.29 0 0 0-.36.26 1.19 1.19 0 0 0 .18.51 11.5 11.5 0 0 1-2.48 1.82A14.14 14.14 0 0 1 22.4 98a19.19 19.19 0 0 1-2.13.21.79.79 0 0 1-.41-.13 1.36 1.36 0 0 0 .34-.23 2.12 2.12 0 0 0 .56 0 .11.11 0 0 0 0-.21h-.31s.05 0 .08-.06z"/><path class="cls-1" d="M31.42 74.84A2.8 2.8 0 0 0 32 75a2 2 0 0 1-.28.36 3 3 0 0 1-.7-.31c.11-.05.21-.13.34-.2z"/><path class="cls-1" d="M31.06 75a3 3 0 0 0 .7.31c-.06.08-.13.13-.18.2a5.34 5.34 0 0 1-.72-.28h-.05a1.05 1.05 0 0 0 .25-.23z"/><path class="cls-1" d="M30.86 75.27a5.34 5.34 0 0 0 .72.28C30 77 27.27 77.43 25.4 77.35a6.77 6.77 0 0 1-5.28-3c-.9-1.35-3.59-6.79-.9-7.48a1.73 1.73 0 0 0 .28.26c-2.76 1.38.8 7.05 2.41 8.3 2.93 1.95 6.1 1.54 8.87-.18s.05.02.08.02z"/><path class="cls-1" d="M31.06 75a1.05 1.05 0 0 1-.25.18c-.18-.18 0-.56.28-.46l.34.08c-.16.11-.26.2-.37.2zM31 25.24c.33.51-.28 1.15-.77 1a6 6 0 0 1 .77-1.05v.05z"/><path class="cls-1" d="M30.22 25.29c.15-.21.31-.38.46-.56a3.54 3.54 0 0 1 .33.46 6 6 0 0 0-.74 1.07.39.39 0 0 1-.33-.18l-.13-.15c.13-.21.26-.44.41-.64z"/><path class="cls-1" d="M30.68 24.73c-.15.18-.31.35-.46.56-3.38-4.64-6.74-9.59-10.1-14.2.28 0 .56 0 .84.05 3.36 4.41 6.64 8.97 9.72 13.59zM29.68 94.16c-.1.11-.2.21-.31.31a1.19 1.19 0 0 1-.18-.51.29.29 0 0 1 .36-.26 2.19 2.19 0 0 1 .41.16 2.56 2.56 0 0 1-.28.3zM28 51.9a1 1 0 0 1 .11.23 8.11 8.11 0 0 1-.85-.21.42.42 0 0 1 .74-.02zM24.94 143a2 2 0 0 1-.31.13l-.15-.08c-.23-.1-.08-.46.15-.41s.54.15.8.21a1.76 1.76 0 0 1-.43.15z"/><path class="cls-1" d="M23.2 16.75a2.33 2.33 0 0 1-.26-.38l.36-.15c.51-.21.84.64.36.87a.54.54 0 0 0-.18.1c-.08-.13-.18-.26-.28-.41z"/><path class="cls-1" d="M23.2 16.78c.1.15.2.28.28.41C12.15 22.65 5.69 34.77 4.64 47c-.59 6.64-.7 14.1 2.41 20.2 2.69 5.35 6.56 9.12 10.76 13.22 4.49 4.41 8.46 11.18 3.57 16.41a12.64 12.64 0 0 0-1.31.2c3.23-2.23 3.46-6.48 2-9.84-1.51-3.59-4.92-6.25-7.76-8.89a34.1 34.1 0 0 1-8.7-12.56c-3.79-10.23-2.07-25.56 3-35 2.64-4.74 9.3-11.96 14.59-13.96z"/><path class="cls-1" d="M19.86 97.11a2 2 0 0 0-.36.39.14.14 0 0 0 .11.2.19.19 0 0 1 .12 0c-.1.08 0 .21.13.31-3.53 2.28-9.1.82-11.3-2.43a.26.26 0 0 1-.05-.18 3.19 3.19 0 0 0 .69 0c3.08 2.82 11.74 3.66 12.71-2.31a10.6 10.6 0 0 0-2.46-8.72 6.81 6.81 0 0 0-.28-1.23c-.05-.1-.18-.1-.2 0s-.11.31-.16.46a27.5 27.5 0 0 0-2.07-2.12c-2.93-2.67-5.93-5.31-8.13-8.62a35.1 35.1 0 0 1-5.77-21.94c.77-13.43 6.59-29.07 20.1-34.55a2.33 2.33 0 0 0 .26.38C17.91 18.78 11.25 26 8.64 30.7c-5.1 9.48-6.82 24.81-3 35a34.1 34.1 0 0 0 8.72 12.51c2.84 2.64 6.25 5.3 7.76 8.89 1.44 3.36 1.21 7.61-2 9.84z"/><path class="cls-2" d="M19.45 84.37a10.6 10.6 0 0 1 2.46 8.72c-1 6-9.63 5.13-12.71 2.31 5.31-.54 11.1-5.46 10.25-11.03z"/><path class="cls-1" d="M21.38 96.78c-.26.26-.52.51-.83.77h-.92a1.08 1.08 0 0 0 .28.11l-.18.07a.19.19 0 0 0-.12 0 .14.14 0 0 1-.11-.2 2 2 0 0 1 .36-.39l.21-.13a12.64 12.64 0 0 1 1.31-.23zM20.45 10.47c.18.23.36.44.51.67-.28 0-.56-.05-.84-.05l-.28-.39c.05-.07.1-.17.15-.25a.89.89 0 0 1 .46.02zM20.32 97.73a.41.41 0 0 0 .13-.1h.31a.11.11 0 0 1 0 .21 2.12 2.12 0 0 1-.56 0 .53.53 0 0 0 .12-.11z"/><path class="cls-1" d="M20.55 97.55s-.05.06-.08.06a2 2 0 0 0-.51.05 1.08 1.08 0 0 1-.28-.11c.26.02.57.02.87 0zM20.2 10.11a3.38 3.38 0 0 1 .25.36.89.89 0 0 0-.46 0c.08-.12.13-.25.21-.36zM20.45 97.63a.41.41 0 0 1-.13.1 1 1 0 0 1-.38 0 2 2 0 0 1 .51-.1zM20.2 66.74c.1 0 .15.08.15.18a1.21 1.21 0 0 1-.23-.18z"/><path class="cls-1" d="M19.5 67.1a1.73 1.73 0 0 1-.28-.26 1.91 1.91 0 0 1 .9-.1 1.21 1.21 0 0 0 .23.18l-.08.1a1.71 1.71 0 0 0-.41.36 2.48 2.48 0 0 1-.36-.28zM20.32 97.73a.53.53 0 0 1-.12.1 3.63 3.63 0 0 1-.47-.08l.18-.07a1 1 0 0 0 .41.05zM20.12 11.09a2.63 2.63 0 0 0-.49 0l.21-.36z"/><path class="cls-1" d="M20.2 97.83a1.36 1.36 0 0 1-.34.23c-.15-.1-.23-.23-.13-.31a3.63 3.63 0 0 0 .47.08zM20 10.45c0 .08-.1.18-.15.25l-.21-.28a1.46 1.46 0 0 1 .36.03zM19 83.89a3.15 3.15 0 0 1 .41.48c.85 5.57-4.94 10.49-10.25 11a.87.87 0 0 1-.15-.13.32.32 0 0 0-.54.15h-.4c-6.23-.13-8.89-5.36-7.28-11 .08-.33.62-.28.59.08a4.93 4.93 0 0 0 0 .54c-.05-.05-.12 0-.1.08a.61.61 0 0 1 .1.18C1 90.45 3.2 95.68 9.53 94.37A13.78 13.78 0 0 0 15.1 92a.06.06 0 0 1 .05 0 3.47 3.47 0 0 0 2.41-3.15c.69-1.72.71-3.46 1.25-5.21a.8.8 0 0 1 .19.25z"/><path class="cls-1" d="M19 83.89a.8.8 0 0 0-.23-.29c.05-.15.1-.3.16-.46s.15-.1.2 0a6.81 6.81 0 0 1 .28 1.23 3.15 3.15 0 0 0-.41-.48zM18.27 38.67a1.52 1.52 0 0 1-.15-.44.49.49 0 0 1 .59.67 2.6 2.6 0 0 0-.13.36 2 2 0 0 1-.31-.59z"/><path class="cls-1" d="M18.58 39.26a3.62 3.62 0 0 0-.28.82 5.6 5.6 0 0 1-.33-.82c.1-.18.2-.38.3-.59a2 2 0 0 0 .31.59z"/><path class="cls-1" d="M18.27 38.67c-.1.21-.2.41-.3.59a3.39 3.39 0 0 1-.16-.59 1.39 1.39 0 0 1 .1-.26.4.4 0 0 1 .21-.18 1.52 1.52 0 0 0 .15.44zM1.33 85.17v-.11C5 88.88 13.17 94 17.17 88.55c.1-.15.44-.13.41.1v.16a8.88 8.88 0 0 1-.44 1 7.4 7.4 0 0 1-2 2.2.06.06 0 0 0-.05 0c-4.13 1.23-12-3.82-13.8-6.72.01-.05.01-.1.04-.12z"/><path class="cls-1" d="M17.12 89.76a8.88 8.88 0 0 0 .44-1A3.47 3.47 0 0 1 15.15 92a7.4 7.4 0 0 0 1.97-2.24zM15.1 141.41a.54.54 0 0 1 .28-.11c0 .26 0 .52-.05.77a.24.24 0 0 1-.47 0 3.53 3.53 0 0 1 0-.46.6.6 0 0 1 .24-.2z"/><path class="cls-2" d="M1.3 85.27c1.77 2.9 9.67 8 13.8 6.72a13.78 13.78 0 0 1-5.57 2.38C3.2 95.68 1 90.45 1.3 85.27z"/><path class="cls-1" d="M9.2 95.4a3.19 3.19 0 0 1-.69 0 .32.32 0 0 1 .54-.15.87.87 0 0 0 .15.15zM1.33 85.17v.1a.61.61 0 0 0-.1-.18s.05-.13.1-.08v.13z"/><path class="cls-8" d="M14.29 33.55c-4.28 1.87-3.21-6.95.27-8 6.15-1.61 2.67 6.41.26 8.29"/><path class="cls-9" d="M14.29 33.55c-4.28 1.87-3.21-6.95.27-8 6.15-1.61 2.67 6.41.26 8.29"/><path class="cls-8" d="M14.29 32.93c-1.71.1-1.87-.89-1.77-2.43s1-3.74 2.67-4.16c2.25-.55 2.06 1.33 1.57 2.89S15.11 32 14.12 33.4c-.54.74.45 1.43 1.12 1.12 2-.93 3.45-4.62 3.63-6.67.26-2.91-2.24-4-4.79-3.15s-3.61 4.23-3.58 6.63 2 4.48 4.23 2.66a.63.63 0 0 0-.44-1.06zM22.58 34.88c-2.41-.26-1.61-7 1.34-5.88 2.13 1.07.26 5.08-.81 5.88"/><path class="cls-9" d="M22.58 34.88c-2.41-.26-1.61-7 1.34-5.88 2.13 1.07.26 5.08-.81 5.88"/><path class="cls-8" d="M22.71 34.4c-1.7-.51-1-4 .09-4.77 1.49-1 1.48 1.63 1.25 2.38a7.45 7.45 0 0 1-.94 1.76c-.23.35-.6.66-.57 1.11a.58.58 0 0 0 .42.55c2.44.66 4.36-8.39-.31-7-2.49.73-3.14 6.82-.07 7 .58 0 .66-.82.13-1z"/></g></g></svg>