<svg xmlns="http://www.w3.org/2000/svg" viewBox="0 0 131.44 143.84"><defs><style>.cls-1{fill:#d85112}.cls-2{fill:#f1ec68}.cls-3{fill:#1d3033;stroke:#1d3033;stroke-linecap:round;stroke-linejoin:round;stroke-width:.66px}.cls-4{fill:#736e54}.cls-5{fill:#f7e5d7}.cls-6{fill:#dece89}.cls-7{fill:#b5a666}.cls-8{fill:#985564}.cls-9{fill:#f1a92e}.cls-11{fill:#cb99a6}.cls-12{fill:none}</style></defs><g id="レイヤー_2" data-name="レイヤー 2"><g id="レイヤー_3" data-name="レイヤー 3"><path class="cls-1" d="M131.34 40.31c.44 3.89-.74 7.64-.36 11.53.31 3.21.49 5.59-.51 8.61-.87 2.57-2.67 5.77-5.59 6.16a.24.24 0 0 1-.25-.31l.23.08c3.08-.62 5.69-6.92 5.85-9.54 0-2.46-.47-4.92-.47-7.38 0-2.92 1.08-6.3.47-9.07-1.23.61-2.16 3.53-3.39 2.15-.46-.61-.3-3.69-.3-4.61-.16-2.77-.47-5.39-.62-8.15-.15-1.54.31-4.62-.62-5.54-2.61 3.54-1.38 8.77-4.3 12.61-2.15 3-5.15 5.49-7.56 8.38a4.46 4.46 0 0 0-.13-1c1.18-1.28 2.41-2.49 3.54-3.64 2.94-3 5.07-6.1 5.82-10.31a16 16 0 0 1 2.12-6.33.61.61 0 0 1 1.11.16c1.2 2.87.66 6.69.92 9.76.18 2.18.15 4.33.3 6.51.21 3.23 2 .18 2.7-.41a.61.61 0 0 1 1.04.34zM131 65.81c.54 1.9.29 4.46-1.61 5.49a.48.48 0 0 1-.59-.16 2.38 2.38 0 0 1-.46-1.3.87.87 0 0 0 .51 0 3 3 0 0 0 .31 1.13 1.5 1.5 0 0 0 .38-.15c1.49-.8 1.72-3.54 1.28-5-1.56.15-2.33 1.46-2.33 3a1.76 1.76 0 0 0-.18 1 .7.7 0 0 1-.44-.59c-.13-2 .85-3.51 2.95-3.57a.14.14 0 0 1 .18.15z"/><path class="cls-1" d="M130.88 65.84c.44 1.41.21 4.15-1.28 5 0-.13 0-.26-.08-.39 1.18-.52 1.46-2.36 1.36-3.52 0-.18.08-.92-.26-.77a1.67 1.67 0 0 0-1 1 4.3 4.3 0 0 0-.38 1.95c-.05-.18-.08-.33-.13-.51a.24.24 0 0 0-.41-.06 1.2 1.2 0 0 0-.15.36c0-1.6.77-2.9 2.33-3.06zM130.73 40.31c.61 2.77-.47 6.15-.47 9.07 0 2.46.47 4.92.47 7.38-.16 2.62-2.77 8.92-5.85 9.54l-.23-.08.08-.08c6.18-4.51 4.59-10.1 4.94-16.69.13-2.36.9-5 .65-7.36-.13-1.15-1.13.77-1.67 1.21-2.77 2.23-2.31-7.23-2.33-7.43-.21-2.49-.52-5-.49-7.49 0-4.18-1.25 1.26-1.43 2.21a16.36 16.36 0 0 1-3.59 8.15c-2 2.38-4.77 4.82-6.82 7.53a7.38 7.38 0 0 0 0-1.05c2.41-2.89 5.41-5.41 7.56-8.38 2.92-3.84 1.69-9.07 4.3-12.61.93.92.47 4 .62 5.54.15 2.76.46 5.38.62 8.15 0 .92-.16 4 .3 4.61 1.18 1.31 2.11-1.61 3.34-2.22z"/><path class="cls-1" d="M130.88 66.86c.1 1.16-.18 3-1.36 3.52-.1-.41-.18-.82-.28-1.24v-.05a4.3 4.3 0 0 1 .38-1.95 1.67 1.67 0 0 1 1-1c.38-.2.26.54.26.72zM130.32 42c.25 2.36-.52 5-.65 7.36-.35 6.59 1.24 12.18-4.94 16.69l-.08.08a.76.76 0 0 0-.87-.8c-.44.05-.9.1-1.31.13a24.86 24.86 0 0 0 1.8-3.2c.56-1.11 1-2.49 0-3.46-.56-.57-.38-1.88-.51-2.65a5.69 5.69 0 0 0-1.15-2.46 2.55 2.55 0 0 0-3.8-.48c-3.23 2.28-3.3 7.87-1.3 10.89a8.88 8.88 0 0 0 1 1c-5.61-1.41-8.59-6.77-7.13-13.56a8.9 8.9 0 0 1 .41-1.36l1.57-1.75c.13.08.33.08.38-.1a8.41 8.41 0 0 0 .26-2.13c2.05-2.71 4.77-5.15 6.82-7.53a16.36 16.36 0 0 0 3.59-8.15c.18-.95 1.48-6.39 1.43-2.21 0 2.49.28 5 .49 7.49 0 .2-.44 9.66 2.33 7.43.53-.44 1.53-2.36 1.66-1.23zM129.6 70.79zM129.52 70.4c0 .13 0 .26.08.39-.18-.08-.3-.16-.48-.26a2.7 2.7 0 0 0 .4-.13z"/><path class="cls-1" d="M129.57 70.79a1.5 1.5 0 0 1-.38.15 3 3 0 0 1-.31-1.13.54.54 0 0 0 .36-.56v-.11c.1.42.18.83.28 1.24a2.7 2.7 0 0 1-.43.13c.18.12.3.2.48.28z"/><path class="cls-1" d="M129.24 69.25a.54.54 0 0 1-.36.56 3 3 0 0 1 0-1.2l-.31.64v-.39a1.2 1.2 0 0 1 .15-.36.24.24 0 0 1 .41.06c0 .18.08.33.13.51v.05z"/><path class="cls-1" d="M128.88 68.61a3 3 0 0 0 0 1.2.87.87 0 0 1-.51 0 1.76 1.76 0 0 1 .18-1v.39z"/><path class="cls-2" d="M123.81 58.76c2.33 1.11-.62 5.05-2 6.75h-.1a1.47 1.47 0 0 0-.13-.57c.92-1.2 2.18-2.1 2.69-3.66.44-1.31-.31-1.21-.64-2.44a19.14 19.14 0 0 0-.87-2.92c-.82-2-2.31-3.23-3.9-.82a7.52 7.52 0 0 0-1.23 3.41 8.27 8.27 0 0 0 .34 3.36c.12.3 1.58 2.43 1.58 2.61.7-.85 1.65-.31 2 .46a1.94 1.94 0 0 0-.38.54 2.15 2.15 0 0 1-.62 0l-.1-.07c-4-1.23-4.46-7.39-2.15-10.61 3.04-4.5 5.35.73 5.51 3.96z"/><path class="cls-2" d="M121.78 65.51c1.41-1.7 4.36-5.64 2-6.75-.16-3.23-2.47-8.46-5.54-4-2.31 3.22-1.85 9.38 2.15 10.61l.1.07a12.75 12.75 0 0 1-2-.3 8.88 8.88 0 0 1-1-1c-2-3-1.93-8.61 1.3-10.89a2.55 2.55 0 0 1 3.8.48 5.69 5.69 0 0 1 1.15 2.46c.13.77 0 2.08.51 2.65.95 1 .54 2.35 0 3.46a24.86 24.86 0 0 1-1.8 3.2c-.21-.02-.45.01-.67.01z"/><path class="cls-1" d="M124.65 66.15L124 66c-.56.13-1.13.23-1.67.31a.49.49 0 0 0-.34-.23 3.7 3.7 0 0 0 .54-.59c.41 0 .87-.08 1.31-.13a.76.76 0 0 1 .81.79zM124.65 66.2v.02h-.02l.02-.02z"/><path class="cls-1" d="M124.63 66.25a.69.69 0 0 1-.49.36 11.36 11.36 0 0 1-1.69.31v-.21a.64.64 0 0 0-.16-.46c.54-.08 1.11-.18 1.67-.31l.67.23z"/><path class="cls-2" d="M123.6 58.84c.33 1.23 1.08 1.13.64 2.44-.51 1.56-1.77 2.46-2.69 3.66-.38-.77-1.33-1.31-2-.46 0-.18-1.46-2.31-1.58-2.61a8.27 8.27 0 0 1-.34-3.36 7.52 7.52 0 0 1 1.23-3.41c1.59-2.41 3.08-1.21 3.9.82a19.14 19.14 0 0 1 .84 2.92z"/><path class="cls-3" d="M122.45 67c0 13.17 2 30.09-6.41 41-.31.44-1.26.41-1.15-.3.64-5.18 1.1-10.36 1.53-15.54a8.36 8.36 0 0 0 1-.74.44.44 0 0 0 .1-.15c-.38 5.51-1.33 10.86-2 16.43.77-1.7 2-1.54 2.77-3.54a28 28 0 0 0 1.71-5.85 94.43 94.43 0 0 0 1.69-11.22c.62-6.67 0-13.36 0-20a4.56 4.56 0 0 0 .76-.09z"/><path class="cls-2" d="M121.78 65.51h.69a3.7 3.7 0 0 1-.54.59.5.5 0 0 0-.38 0 .66.66 0 0 0 .1-.38s.08-.16.13-.21z"/><path class="cls-1" d="M121.65 67a6.93 6.93 0 0 1-.77 0v-.33a.33.33 0 0 1 .06-.23.5.5 0 0 0 .23-.1h.1a.11.11 0 0 0 .11 0h.1a7.06 7.06 0 0 0 .77-.1.64.64 0 0 1 .16.46v.3a4.56 4.56 0 0 1-.76 0z"/><path class="cls-1" d="M122.27 66.3a7.06 7.06 0 0 1-.77.1.13.13 0 0 0 .08 0 1.45 1.45 0 0 0 .35-.31.49.49 0 0 1 .34.21z"/><path class="cls-2" d="M121.93 66.07a1.45 1.45 0 0 1-.35.31.13.13 0 0 1-.08 0H121.29a.72.72 0 0 0 .33-.36.5.5 0 0 1 .31.05z"/><path class="cls-3" d="M116.42 105.16c.64-1 1.28-2.08 1.9-3.1a29.35 29.35 0 0 0 1-3.92 71 71 0 0 0 1.76-11c.41-6.69-.07-13.31-.23-20a6.93 6.93 0 0 0 .77 0c0 6.69.62 13.38 0 20A94.43 94.43 0 0 1 120 98.31a28 28 0 0 1-1.69 5.85c-.77 2-2 1.84-2.77 3.54.64-5.57 1.59-10.92 2-16.43a.62.62 0 0 0 .06-.59c0-1 .1-2 .12-3 .09-6.92.68-13.68 1.28-20.68a2.49 2.49 0 0 0 .46.05c-.81 12.76-1.55 25.42-3.04 38.11zm0 0l-.51.82-.1.13c.1-.1.28-.33.59-.69 0-.06.02-.16.02-.24z"/><path class="cls-2" d="M121.68 65.51h.1s-.1.07-.1.12z"/><path class="cls-2" d="M121.68 65.51v.12a4.26 4.26 0 0 0-.31.33l-.35-.23a.81.81 0 0 1 .18-.26 2.85 2.85 0 0 0 .48.04z"/><path class="cls-2" d="M121.68 65.51a2.85 2.85 0 0 1-.51 0 1.94 1.94 0 0 1 .38-.54 1.47 1.47 0 0 1 .13.54zM121.65 65.66a.66.66 0 0 1-.1.38.63.63 0 0 0-.51.26.51.51 0 0 1-.08-.51l.35.23a4.26 4.26 0 0 1 .34-.36z"/><path class="cls-2" d="M121.55 66a.72.72 0 0 1-.33.36.25.25 0 0 1-.18-.1.63.63 0 0 1 .51-.26zM121.4 66.43a.11.11 0 0 1-.11 0z"/><path class="cls-1" d="M121.19 9a15.67 15.67 0 0 1-1.31 9.18.26.26 0 0 1-.43 0v-.13a.59.59 0 0 1 .23-.05v.05a.09.09 0 0 1 0-.08.84.84 0 0 1 .2-.05 1.32 1.32 0 0 1-.12-.31c.61-2.77 1.56-5.56 1-8.48l-.44.15v-.09c-.13-.59.77-.85.87-.19zM121.27 66.43h-.08a.07.07 0 0 0 .08 0z"/><path class="cls-4" d="M120.88 67.09c.16 6.69.64 13.31.23 20a71 71 0 0 1-1.76 11 29.35 29.35 0 0 1-1 3.92c-.62 1-1.26 2.07-1.9 3.1 1.49-12.69 2.23-25.35 3-38.12a8.24 8.24 0 0 0 1.43.1z"/><path class="cls-2" d="M121.22 66.4a.68.68 0 0 1-.21 0 .19.19 0 0 1 .08-.15.25.25 0 0 0 .13.15zM121.17 66.43a.5.5 0 0 1-.23.1v-.08a.68.68 0 0 0 .23-.02zM121.17 65.48a.81.81 0 0 0-.18.26l-.44-.29a2.15 2.15 0 0 0 .62.03zM119.17 65.43c0 .18-.36 0-.67-.28a12.75 12.75 0 0 0 2 .3l.44.29a.51.51 0 0 0 .08.51.19.19 0 0 0-.08.15 5.82 5.82 0 0 1-1.18 0 1.16 1.16 0 0 1-.59-.97z"/><path class="cls-2" d="M121 66.45v.08c0 .08-.13 0-.18.08a1.1 1.1 0 0 1-1-.16 5.82 5.82 0 0 0 1.18 0z"/><path class="cls-1" d="M120.94 66.53a.33.33 0 0 0-.06.23v.33a8.24 8.24 0 0 1-1.41 0v-.43a.3.3 0 0 0 0-.16.48.48 0 0 0 .29 0 1.1 1.1 0 0 0 1 .16s.12-.08.18-.13zM120.73 9.09c.59 2.92-.36 5.71-1 8.48a7.15 7.15 0 0 1-.29-.77c.13-.89.44-1.82.62-2.69a13.52 13.52 0 0 0 .2-4.87z"/><path class="cls-1" d="M120.29 9.24a13.52 13.52 0 0 1-.2 4.87c-.18.87-.49 1.8-.62 2.69-.79-2.51-.33-4.74.52-7.38v-.08z"/><path class="cls-1" d="M120 9.34v.08c-.85 2.64-1.31 4.87-.52 7.38v.67c-1.25-2.92-.77-4.9.39-8.08l.15-.05z"/><path class="cls-1" d="M120 9.34l-.15.05c-1.16 3.18-1.64 5.16-.39 8.08a4.87 4.87 0 0 0 0 .54c-1.36-3.08-1-5.62.23-8.67.01-.2.31-.18.31 0zM119.76 17.57a1.32 1.32 0 0 0 .12.31.84.84 0 0 0-.2.05c.02-.13.05-.23.08-.36z"/><path class="cls-1" d="M119.76 17.57c0 .13-.06.23-.08.36a.06.06 0 0 0-.05 0c-.08-.18-.16-.34-.21-.49s0-.44 0-.67a7.15 7.15 0 0 0 .34.8zM119.76 66.45a.48.48 0 0 1-.29 0c-.07-.36-.56-.36-.79-.07a9.42 9.42 0 0 1-6.41-3.92 13 13 0 0 1-1.87-10.69l1.38-1.54a8.9 8.9 0 0 0-.41 1.36c-1.46 6.79 1.52 12.15 7.13 13.56.31.28.62.46.67.28a1.16 1.16 0 0 0 .59 1.02z"/><path class="cls-1" d="M119.68 17.93a.09.09 0 0 0 0 .08v-.05a.06.06 0 0 1 0-.03zM119.42 17.47c0 .15.13.31.21.49a.59.59 0 0 0-.23.05 4.87 4.87 0 0 1 .02-.54zM119 67a1.28 1.28 0 0 1-.46-.08v-.3a.41.41 0 0 1 .1-.23 4.29 4.29 0 0 0 .79.07.3.3 0 0 1 0 .16v.43A2.49 2.49 0 0 1 119 67z"/><path class="cls-1" d="M118.68 66.38c.23-.29.72-.29.79.07a4.29 4.29 0 0 1-.79-.07z"/><path class="cls-3" d="M118.55 66.91a1.28 1.28 0 0 0 .45.09c-.61 7-1.2 13.77-1.36 20.71 0 1-.07 2-.12 3a.46.46 0 0 0-.16-.23 4.12 4.12 0 0 0-.77-.67c.63-7.64 1.14-15.26 1.96-22.9z"/><path class="cls-1" d="M118.68 66.38a.41.41 0 0 0-.1.23v.3c-6.13-1-10-6.58-9.3-13.84a.4.4 0 0 0 .64-.2c.07-.26.15-.51.2-.77l.31-.33a13 13 0 0 0 1.87 10.69 9.42 9.42 0 0 0 6.38 3.92z"/><path class="cls-3" d="M117.53 90.68a.62.62 0 0 1-.06.59c.03-.18.03-.39.06-.59z"/><path class="cls-3" d="M117.37 90.45a.46.46 0 0 1 .16.23c0 .2 0 .41-.06.59a.44.44 0 0 1-.1.15 8.36 8.36 0 0 1-1 .74c0-.28 0-.59.08-.89.13-.11.26-.21.39-.34a2.12 2.12 0 0 0-.34-.33 7.52 7.52 0 0 0 0-.82 4.12 4.12 0 0 1 .87.67z"/><path class="cls-3" d="M116.89 90.93c-.13.13-.26.23-.39.34a5 5 0 0 1 0-.67 2.12 2.12 0 0 1 .39.33zM116.6 89.78a7.52 7.52 0 0 1 0 .82l-.15-.13c-1.87-1.52-5.61-1.85-7.87-2.23v-.52c2.56.28 5.79.37 8.02 2.06z"/><path class="cls-3" d="M116.55 90.6a5 5 0 0 0 0 .67.43.43 0 0 1-.1.07v-.87z"/><path class="cls-3" d="M116.37 91.39v-.08a.43.43 0 0 0 .1-.07c0 .3 0 .61-.08.89a9.82 9.82 0 0 1-3.39 1.44c-1.67.39-3.38.93-5.08 1.16-.46.07-.58-.34-.48-.7a.18.18 0 0 1 0-.15.37.37 0 0 1 .15-.2c1.1-.85 2.67-1 4-1.23a11.43 11.43 0 0 0 4.15-1.54 3.57 3.57 0 0 1 .63.48zM116.42 105.18v.26c-.31.36-.49.59-.59.69l.1-.13z"/><path class="cls-3" d="M116.4 91.34a3.57 3.57 0 0 0-.56-.48 6 6 0 0 0 .56-.44zM116.4 91.37zM116.4 90.45z"/><path class="cls-3" d="M116.37 90.45a6 6 0 0 1-.56.44c-2-1.54-5-1.72-7.28-2.21a2.42 2.42 0 0 0 0-.48c2.23.4 5.97.73 7.84 2.25z"/><path class="cls-1" d="M115.71 20.93c.25 3.13.64 6.28.58 9.43-.05 2.82-.89 5.46-1 8.26a.58.58 0 0 1-1 .33 1.19 1.19 0 0 1 .2.08c.49.15.67-.52.31-.77.08-2.28 1-4.2 1-6.53a59.21 59.21 0 0 0-.49-9.57.78.78 0 0 0 0-.48c0-.23 0-.49-.08-.72a5.1 5.1 0 0 0-2.28 2.54c.1-.57.21-1.11.28-1.59a5 5 0 0 1 1.75-1.36.53.53 0 0 1 .73.38z"/><path class="cls-1" d="M115.32 22.13a59.21 59.21 0 0 1 .49 9.57c0 2.33-1 4.25-1 6.53a3.23 3.23 0 0 1-.49-.41c.41-3.41 1.28-6.64 1.1-10.15-.05-1.36-.15-2.72-.3-4.07a7.53 7.53 0 0 0 .2-1.47z"/><path class="cls-1" d="M115.37 27.67c.18 3.51-.69 6.74-1.1 10.15-3.08-3-2.36-9.25-1.28-12.87a8 8 0 0 1 1.48-2.82c.42-.51.7-.66.8-.48a2.61 2.61 0 0 1 0 .48 7.53 7.53 0 0 1-.25 1.47c.2 1.4.3 2.71.35 4.07z"/><path class="cls-1" d="M115.19 20.93c0 .23 0 .49.08.72-.1-.18-.38 0-.8.48A8 8 0 0 0 113 25c-1.08 3.62-1.8 9.92 1.28 12.87 0 .21 0 .39-.08.59-2.69-1.59-3.25-7.3-2.3-11.79a12.55 12.55 0 0 0 1-3.05v-.1a5.1 5.1 0 0 1 2.29-2.59z"/><path class="cls-1" d="M114.78 38.26c.36.25.18.92-.31.77a1.19 1.19 0 0 0-.2-.08.53.53 0 0 1-.07-.3v-.21a2.48 2.48 0 0 0 .39.21h.15a1.34 1.34 0 0 1 0-.36z"/><path class="cls-1" d="M114.76 38.23a1.34 1.34 0 0 0 0 .36h-.15a2.48 2.48 0 0 1-.39-.21c0-.2 0-.38.08-.59a3.23 3.23 0 0 0 .46.44zM114.17 38.62a.53.53 0 0 0 .07.3c-3.48-1.35-4.38-7-3.38-11.81a.41.41 0 0 0 .69 0c.11-.15.23-.33.34-.51-1 4.49-.39 10.2 2.3 11.79 0 .1-.02.15-.02.23zM113.94 45.15a7.38 7.38 0 0 1 0 1.05c-.18.26-.39.52-.57.77 0-.33 0-.69-.07-1 .25-.3.46-.56.64-.82zM113.42 47c.18-.25.39-.51.57-.77a8.41 8.41 0 0 1-.26 2.18c0 .18-.25.18-.38.1l.15-.17c-.02-.44-.05-.88-.08-1.34z"/><path class="cls-1" d="M113.81 44.13a4.46 4.46 0 0 1 .13 1c-.18.26-.39.52-.59.77 0-.36 0-.74-.1-1.13.17-.21.38-.44.56-.64zM113.5 48.31l-.15.17a.29.29 0 0 1-.08-.1 4.71 4.71 0 0 1-.23-.79c.13-.21.26-.41.38-.62.03.49.06.93.08 1.34z"/><path class="cls-1" d="M113.81 44.13c-.18.2-.39.43-.56.66a10.42 10.42 0 0 0-.83-3.12c0-.21.08-.39.13-.59a3.59 3.59 0 0 1-.46.05.8.8 0 0 0-.13-.21 1.55 1.55 0 0 1 0 .23l-.46.08a2.46 2.46 0 0 1 .33.59c-.53 2.61-1.2 5.33-1.74 8a10.75 10.75 0 0 0-.79 3.13v.08a.27.27 0 0 1-.16-.28c.16-4 1.49-8.08 2.28-12a.61.61 0 0 1 1.1-.15 8.38 8.38 0 0 1 1.29 3.53zM113.35 45.92c0 .36.05.72.07 1s-.25.41-.38.62a6.07 6.07 0 0 1-.2-1c.16-.16.33-.39.51-.62zM113.27 48.38a.29.29 0 0 0 .08.1l-1.57 1.75a12.29 12.29 0 0 1 1.22-2.64 4.71 4.71 0 0 0 .27.79zM111.66 17.16c1.53 1 1.84 2.64 1.59 4.36 0 .1 0 .2-.06.33a6.65 6.65 0 0 0-.77 1c.52-2.12.62-4.3-1.07-5.2l-.26.26c0-.05-.1-.05-.13 0s0 .08 0 .1a.59.59 0 0 1 .7-.85z"/><path class="cls-1" d="M113.25 44.79c0 .39.07.77.1 1.13-.18.23-.34.46-.51.69-.06-.38-.11-.77-.16-1.15a7.21 7.21 0 0 1 .57-.67z"/><path class="cls-1" d="M113.25 44.79a7.21 7.21 0 0 0-.57.67 13 13 0 0 0-.49-2.64c.08-.38.16-.77.23-1.15a10.42 10.42 0 0 1 .83 3.12zM113.19 21.88c-.07.48-.18 1-.28 1.59v.1a12.7 12.7 0 0 0-1 3.05c-.11.18-.23.36-.34.51a.41.41 0 0 1-.69 0v-.21l.23-.07v0l.3-.08a1.64 1.64 0 0 1-.18-.38c.29-.92.72-2.16 1-3.39v-.05a6.65 6.65 0 0 1 .96-1.07zM112.84 46.61a6.07 6.07 0 0 0 .2 1 12.29 12.29 0 0 0-1.26 2.64l-1.38 1.54a12.47 12.47 0 0 1 .64-1.93 17.82 17.82 0 0 1 1.8-3.25z"/><path class="cls-1" d="M111.89 26.62a12.7 12.7 0 0 1 1-3.05 12.55 12.55 0 0 1-1 3.05zM112.84 46.61a17.82 17.82 0 0 0-1.8 3.23 12.47 12.47 0 0 0-.64 1.93l-.31.33c.46-1.51.82-3.08 1.16-4.64a21.42 21.42 0 0 1 1.43-2c.05.38.1.77.16 1.15zM111.35 17.7c1.69.9 1.59 3.08 1.07 5.2v.05a12.35 12.35 0 0 0-1.23 2.93 1.45 1.45 0 0 1-.15-.46v-.06c.66-2.43 2.48-5.56.1-7.1a1 1 0 0 0 0-.25v-.05z"/><path class="cls-1" d="M112.68 45.46a21.42 21.42 0 0 0-1.43 2c.33-1.54.64-3.1.94-4.64a13 13 0 0 1 .49 2.64zM112.55 41.08c0 .2-.08.38-.13.59a1.36 1.36 0 0 0-.33-.54 3.59 3.59 0 0 0 .46-.05z"/><path class="cls-1" d="M112.42 41.67c-.07.38-.15.77-.23 1.15a4.2 4.2 0 0 0-.41-1c0-.23.08-.46.13-.67a.65.65 0 0 0 .18 0 1.36 1.36 0 0 1 .33.52zM112.4 23c-.31 1.23-.74 2.47-1 3.39a2.35 2.35 0 0 1-.2-.44 12.35 12.35 0 0 1 1.2-2.95z"/><path class="cls-5" d="M115.81 90.91a11.43 11.43 0 0 1-4.15 1.54c-1.31.28-2.88.38-4 1.23a.37.37 0 0 0-.15.2 15.69 15.69 0 0 0 1-5.18c2.35.49 5.35.67 7.3 2.21z"/><path class="cls-1" d="M112.09 41.13a.65.65 0 0 1-.18 0 1.55 1.55 0 0 0 0-.23.8.8 0 0 1 .18.23zM111.91 41.15c0 .21-.08.44-.13.67a2.46 2.46 0 0 0-.33-.59zM111.78 41.82a4.2 4.2 0 0 1 .41 1c-.3 1.54-.61 3.1-.94 4.64a12 12 0 0 0-1.25 2.36c.58-2.67 1.25-5.39 1.78-8zM111.37 26.34a1.64 1.64 0 0 0 .18.38l-.3.08a4.56 4.56 0 0 1 .12-.46z"/><path class="cls-1" d="M111.37 26.34a4.56 4.56 0 0 0-.12.46h-.08c0-.11-.1-.24-.15-.34a4.92 4.92 0 0 1 .18-.59 2.35 2.35 0 0 0 .17.47zM111.12 18.26c2.38 1.54.56 4.67-.1 7.1-.67-2.36.25-4.64.1-7.1zM111.22 26.83v0zM111.17 25.88a4.92 4.92 0 0 0-.18.59l-.13-.28a4.81 4.81 0 0 1 .16-.79 1.45 1.45 0 0 0 .15.48z"/><path class="cls-1" d="M111.12 18.26c.15 2.46-.77 4.75-.1 7.1v.06a4.81 4.81 0 0 0-.16.79c-1.13-2.82 0-5.13.16-8a.35.35 0 0 0 .1.05zM111 26.49c.05.1.1.23.15.34l-.23.07c.02-.15.08-.28.08-.41zM111.12 18a1 1 0 0 1 0 .25.35.35 0 0 1-.08-.05v-.25l.08.05z"/><path class="cls-1" d="M111.09 18V18.23c-.06 0-.08-.05-.08-.08v-.1c0-.03.06-.14.08-.05z"/><path class="cls-1" d="M111 18.19c-.16 2.89-1.29 5.2-.16 8a2.57 2.57 0 0 0 0 .72h.1v.13c-1.13-3-.59-5.87.13-8.92-.13.02-.07.04-.07.07z"/><path class="cls-1" d="M110.86 26.21l.13.28c0 .13 0 .26-.08.41h-.1a2.57 2.57 0 0 1 .05-.69zM111.25 47.46c-.34 1.56-.7 3.13-1.16 4.64l-.59.64c.16-1 .34-1.92.54-2.9a12 12 0 0 1 1.21-2.38z"/><path class="cls-1" d="M109.5 52.74l.59-.64c0 .26-.13.51-.2.77a.4.4 0 0 1-.64.2V53a10.75 10.75 0 0 1 .79-3.13c-.2.95-.38 1.92-.54 2.87z"/><path class="cls-3" d="M100.3 84.47a.47.47 0 0 0-.77.18.52.52 0 0 1 .44-.77c2.74-.28 6.74-.43 8.1 2.52a4.39 4.39 0 0 1 .36 1.25h-.16c-.54-.08-.66.84-.13.95l.39.07a15.69 15.69 0 0 1-1 5.18.18.18 0 0 0 0 .15c-.39 1.13-.77 2.18-1.08 3a.63.63 0 0 1-.59.47c-2 .23-5 .89-6.59-.64a.4.4 0 0 1 .26-.67.12.12 0 0 1 0 .05.41.41 0 0 0 .59 0c1.51.21 4.92.93 5.23-.07a50.19 50.19 0 0 0 1.41-4.82c.44-2.15.95-5.31-1.92-6a30.88 30.88 0 0 0-4.41-.39 1.46 1.46 0 0 0 0-.36.27.27 0 0 0-.13-.1z"/><path class="cls-3" d="M108.5 88.22a2.42 2.42 0 0 1 0 .48l-.39-.07c-.53-.11-.41-1 .13-.95h.16c.08.18.08.32.1.54z"/><path class="cls-6" d="M104.84 85.4c2.87.66 2.36 3.82 1.92 6a50.19 50.19 0 0 1-1.41 4.82c-.31 1-3.72.28-5.23.07a.14.14 0 0 0 .08-.15c.38-1.67-.18-3.56-.08-5.31a29.6 29.6 0 0 0 .31-5.79 30.88 30.88 0 0 1 4.41.36z"/><path class="cls-3" d="M105.3 43.84a2.65 2.65 0 0 1-.46.39c-2.54-1.33-4.34-3.95-7-5.26a32.62 32.62 0 0 1-6.44-3.51.38.38 0 0 1-.1-.46 11.54 11.54 0 0 0 1.85.15c4.56 2.29 10.1 4.36 12.89 8.82.28.44-.23.8-.61.62a3.7 3.7 0 0 0 .43-.57c.16-.23-.18-.46-.36-.28l-.18.15z"/><path class="cls-3" d="M105.5 44a1.09 1.09 0 0 1-.18-.19l.18-.15c.18-.18.52.05.36.28a3.7 3.7 0 0 1-.43.57l-.23-.13c.1-.1.2-.23.3-.38z"/><path class="cls-3" d="M105.32 43.84a1.09 1.09 0 0 0 .18.19c-.1.12-.2.25-.33.38a1.16 1.16 0 0 1-.33-.18 2.65 2.65 0 0 0 .46-.39zM100.89 62.94a.3.3 0 0 1 0 .13.41.41 0 0 0 .11-.07c.21 0 .41.07.62.1v-.51l.25-.18c-.1 0-.2 0-.3-.05-.49-3.48-2.39-9.07-4.82-11.23.46-.46 1.07-1.23 1.53-1.69 1.83-2 5.08-3 6.9-5l.23.13c-2.25 2.25-8.79 4.77-7 7.41a25 25 0 0 1 4 11.12c.08.54-.51.79-1 .74-2.71-.41-5.56-.56-8-1.87a.35.35 0 0 1-.15-.15 3.54 3.54 0 0 0 0-.46.41.41 0 0 1 .36-.2 50.87 50.87 0 0 1 7.13 1c.09.27.11.53.14.78z"/><path class="cls-3" d="M104.84 44.23a1.16 1.16 0 0 0 .33.18c-1.82 2-5.07 3-6.9 5-.46.46-1.07 1.23-1.53 1.69 2.43 2.16 4.33 7.75 4.82 11.23l-.77-.15c-.54-3.72-1.9-7.92-4.54-10.59a.7.7 0 0 1 0-1c2.61-2.51 5.75-4.1 8.59-6.36zM97.38 13.83c.08-.15-.08-.36-.31-.26l-.59.29a144 144 0 0 0-50.73 12c-14.43 6-23.22 16.17-30.63 29 0-.43.05-.84.11-1.25 10.35-21.1 32.88-32.51 56.13-37.5l.18.07a.24.24 0 0 0 .33-.18 145.76 145.76 0 0 1 29.66-3 .79.79 0 0 1 .41 1.44l-.64-.51c-.15-.13-.36.1-.26.25a2.48 2.48 0 0 1 .21.39c-1.64 0-3.28 0-4.92.12.33-.23.64-.48 1-.71a.16.16 0 0 0 .05-.15z"/><path class="cls-3" d="M101.94 14.42c4.51 4.41-6.66 11.56-12.79 13-.41-.23-.82-.43-1.23-.64 5.18-1.46 17.64-7.51 13.69-12.25a.48.48 0 0 0 .33-.11z"/><path class="cls-3" d="M101.61 14.52a.09.09 0 0 1-.08 0h-.28a2.48 2.48 0 0 0-.21-.39c-.1-.15.11-.38.26-.25l.64.51a.48.48 0 0 1-.33.13zM101.86 62.35l-.25.18a1.55 1.55 0 0 1 0-.23c.05.03.15.03.25.05z"/><path class="cls-3" d="M101.61 14.52c4 4.74-8.51 10.79-13.69 12.25l-1-.46c4.1-2.1 17.53-5.87 14.33-11.76h.28a.09.09 0 0 0 .08-.03zM101.61 62.56v.51c-.21 0-.41-.08-.62-.1z"/><path class="cls-3" d="M101.61 62.53L101 63h-.15c0-.25 0-.51-.1-.79l.77.15a1.55 1.55 0 0 0 .09.17z"/><path class="cls-4" d="M101.25 14.55c3.2 5.89-10.23 9.66-14.33 11.76A15.32 15.32 0 0 0 81.28 25q7.69-4.85 15-10.34c1.72-.06 3.33-.11 4.97-.11z"/><path class="cls-3" d="M101 63a.41.41 0 0 1-.13.1.3.3 0 0 0 0-.13l.13.03zM99.61 95.34a.59.59 0 0 0-.15-.74c-.44-2.66.31-5.92.49-8.64v-.18a.09.09 0 0 0 0-.12v-.11a3.14 3.14 0 0 0 0-.53 3.46 3.46 0 0 0 .46 0 29.6 29.6 0 0 1-.31 5.79c-.1 1.75.46 3.64.08 5.31a.14.14 0 0 1-.08.15 3.27 3.27 0 0 0-.61-.05 2.64 2.64 0 0 1-.44-.51.56.56 0 0 0 .56-.37z"/><path class="cls-3" d="M100.3 84.47a.27.27 0 0 1 .1.18 1.46 1.46 0 0 1 0 .36 3.46 3.46 0 0 1-.46 0 .48.48 0 0 1-.44-.29.47.47 0 0 1 .8-.25zM92.41 34.75l-.31-.16a.55.55 0 0 0-.69.18.19.19 0 0 0-.11.18.19.19 0 0 1 0-.36 21.69 21.69 0 0 1 6.59-.46l1.11.67a.37.37 0 0 0 .57-.28c.13 0 .26.07.36.12.41.18.41 1-.13.87a33.13 33.13 0 0 0-4.46-.38h-2.2a7.23 7.23 0 0 1-.73-.38zM99.94 85.63a.09.09 0 0 1 0 .12z"/><path class="cls-3" d="M100 85a3.14 3.14 0 0 1 0 .53.61.61 0 0 0-.48-.43c0-.13.05-.26.07-.39a.48.48 0 0 0 .41.29zM100.12 96.26a.41.41 0 0 1-.59 0 .12.12 0 0 0 0-.05 3.27 3.27 0 0 1 .59.05z"/><path class="cls-3" d="M99.94 85.52V85.93a.6.6 0 0 1-.57.39h-.13c0-.21.08-.41.11-.62a2.18 2.18 0 0 1 .11-.61.61.61 0 0 1 .48.43zM99.46 94.6a.59.59 0 0 1 .15.74 3 3 0 0 1-.15-.74z"/><path class="cls-3" d="M99.35 86.32a.6.6 0 0 0 .57-.39c-.18 2.72-.93 6-.49 8.64a.67.67 0 0 0-.39-.13h-.43a13.34 13.34 0 0 1 0-3.64c.18-1.48.33-3 .56-4.48zM99.48 34.18a.44.44 0 0 1 .1.34l-.49-.16c-2.49-2.23-6.18-3.89-9.07-5.59-.7-.41-1.39-.79-2.11-1.15a8.06 8.06 0 0 0 1.26-.21c.41.21.85.47 1.26.7 3.13 1.82 6.64 3.25 9.05 6.07z"/><path class="cls-3" d="M98.76 95.09a2.37 2.37 0 0 1-.15-.65H99a.67.67 0 0 1 .39.13 3 3 0 0 0 .15.74.56.56 0 0 1-.57.39 6.18 6.18 0 0 1-.21-.61zM99.07 34.36l.49.16a.37.37 0 0 1-.57.28l-1.07-.64a5.54 5.54 0 0 1 1.15.2zM99.46 85.09a2.18 2.18 0 0 0-.11.61 49.1 49.1 0 0 1-9.15-1l.23-.38c3 .31 6 .49 8.94.74a.15.15 0 0 1 .09.03z"/><path class="cls-3" d="M99.33 85.7c0 .21-.08.41-.11.62A25.83 25.83 0 0 1 90 85c0-.11.12-.21.18-.34a49.1 49.1 0 0 0 9.15 1.04z"/><path class="cls-7" d="M90 85a25.83 25.83 0 0 0 9.22 1.28c-.23 1.49-.38 3-.56 4.48a13.34 13.34 0 0 0 0 3.64c-2.59 0-5.15.18-7.72.39-1.28-2-2.87-3.79-4-5.69a.18.18 0 0 0-.3 0l-.13-.1a17.75 17.75 0 0 0 2.56-3 .33.33 0 0 0 .41-.16z"/><path class="cls-3" d="M99 95.73c-2.51 0-5 .12-7.53.18l-.31-.54c2.56-.13 5-.28 7.56-.28a6.18 6.18 0 0 0 .28.64z"/><path class="cls-8" d="M97.87 39c2.63 1.31 4.43 3.93 7 5.26-2.8 2.26-6 3.85-8.59 6.36a.7.7 0 0 0 0 1c2.64 2.67 4 6.87 4.54 10.59a50.87 50.87 0 0 0-7.13-1 .41.41 0 0 0-.36.2 5.75 5.75 0 0 0-.1-1.25c-.51-2.47-2.23-4.77-4.77-5.21a7.29 7.29 0 0 0-.05-3.41 16.3 16.3 0 0 0-.69-3.12c1.74 1.66 3.59 3.22 5.38 4.74.34.25.92.23 1-.26a14.36 14.36 0 0 0-1.1-9.06c-.15-.33-.61-.07-.56.24a27.52 27.52 0 0 1 .67 7.35c-2.59-2.41-5.23-4.71-7.72-7.17a.48.48 0 0 0-.15-.11.7.7 0 0 0 0-.18A24.37 24.37 0 0 0 77.31 35c-.23-.16-.44.18-.28.36 2.17 2.69 4.3 5.35 6.25 8.2-6.59-.51-11.72-4.46-17.92-6.2a3.46 3.46 0 0 0-1-.77.22.22 0 0 0-.33.23 26 26 0 0 0 2.12 3.92c.54.95 1.23 2.54 2.26 3.18C63.23 42.85 58 42.77 52.93 41c9.13-4.61 18.07-9.53 26.74-15 6.72 1 12.46 4.64 18.2 8.1a21.69 21.69 0 0 0-6.59.46.19.19 0 0 0 0 .36.38.38 0 0 0 .13.51A32.62 32.62 0 0 0 97.87 39z"/><path class="cls-3" d="M98.61 94.44a2.37 2.37 0 0 0 .15.65c-2.56 0-5 .15-7.56.28-.1-.18-.23-.36-.33-.54 2.59-.21 5.13-.41 7.74-.39zM99.07 34.36a5.54 5.54 0 0 0-1.15-.2c-5.74-3.46-11.48-7.05-18.2-8.1.23-.15.48-.31.71-.49a15.68 15.68 0 0 1 5.82 1.31.5.5 0 0 0 .31.74 4.76 4.76 0 0 0 1.38 0c.72.36 1.41.74 2.11 1.15 2.84 1.7 6.53 3.36 9.02 5.59zM94.05 99.67c1.82 2.69 4.53 6 3.64 9.49a21.24 21.24 0 0 1-1 3.1c0-.1 0-.23-.08-.33a.28.28 0 0 0-.41-.21 9.92 9.92 0 0 0 .88-4.64c-.21-2-1.36-3.33-2.34-4.82a7.85 7.85 0 0 0-.69-2.59zM97 13.83a3.26 3.26 0 0 1-.54 0l.59-.29c.23-.1.39.11.31.26z"/><path class="cls-3" d="M97.38 13.83a.16.16 0 0 1-.08.13c-.33.23-.64.48-1 .71a4.86 4.86 0 0 0-.66 0c.46-.31.92-.59 1.38-.87zM96.58 130.74a2.14 2.14 0 0 0 .72-2.08.41.41 0 0 0-.36-.28c0-.28 0-.59.08-.89a66.23 66.23 0 0 0-.85-14.08c.11-.2.18-.41.28-.61 1.72 7.59 1.85 16.76-.43 24.14-.38 1.21-1 2.39-1.33 3.62a.79.79 0 0 0-.26-.13h-.05c.49-3.31 1.62-6.43 2.2-9.69z"/><path class="cls-3" d="M97.3 128.66a2.14 2.14 0 0 1-.72 2.08 11.49 11.49 0 0 0 .31-2 1.7 1.7 0 0 0 0-.41.41.41 0 0 1 .41.33z"/><path class="cls-7" d="M96.17 113.41a66.23 66.23 0 0 1 .83 14.08c0 .3 0 .61-.08.89a.28.28 0 0 0-.18 0c-.66.26-.87.74-1.38 1.28a7.88 7.88 0 0 1-2.62 1.77c-1.79.9-3.79.95-5.64 1.54-1.58-2.05-3.43-4.66-5.76-5.74a26 26 0 0 0 11.2-8 26.41 26.41 0 0 0 3.63-5.82z"/><path class="cls-3" d="M97.05 107.08a9.92 9.92 0 0 1-.88 4.64.37.37 0 0 0-.2.39 48.16 48.16 0 0 1-2.92 5.07c-4.77 7.69-12.46 9.84-20.77 12a20.45 20.45 0 0 1-1.92-6.12c0-.44-.08-.87-.13-1.31 0-.08-.18-.1-.2 0s-.23.62-.41 1.16c0-.36-.05-.72-.08-1.1a.37.37 0 0 1 0-.23 8.22 8.22 0 0 0 1-.13.93.93 0 0 1 .1.2c.59 1.85 1.13 3.69 1.64 5.54s3.72.28 4.66 0c3.44-1.15 7.11-2.33 10-4.56 3.56-2.74 7.79-7.56 8.84-12.1a8.05 8.05 0 0 0-1.21-6.82 4.48 4.48 0 0 0 .08-1.46c1.04 1.5 2.19 2.88 2.4 4.83zM97 13.83c-.46.28-.92.56-1.38.87h-1c.59-.31 1.18-.59 1.79-.87a3.26 3.26 0 0 0 .59 0zM96.66 112.26c2.56 9.56 2.31 19.53-1.74 28.55a.47.47 0 0 0-.23-.25c.28-1.23 1-2.41 1.33-3.62 2.28-7.38 2.15-16.55.43-24.14a4 4 0 0 0 .21-.54z"/><path class="cls-3" d="M96.76 128.38a.28.28 0 0 1 .18 0 1.7 1.7 0 0 1 0 .41c-1.28 3-6.18 4.51-9.33 4.72-.15-.18-.28-.36-.44-.54 1.85-.59 3.85-.64 5.64-1.54a7.88 7.88 0 0 0 2.62-1.77c.46-.54.67-1.02 1.33-1.28z"/><path class="cls-3" d="M96.89 128.79a11.49 11.49 0 0 1-.31 2 11.81 11.81 0 0 1-3.53 2.18 13.3 13.3 0 0 1-5 1.26c-.13-.18-.23-.34-.36-.49a.49.49 0 0 1-.13-.18c3.15-.26 8.05-1.79 9.33-4.77zM96.45 112.8c-.1.2-.17.41-.28.61 0-.41-.12-.84-.2-1.25a2.19 2.19 0 0 0 .2-.44.28.28 0 0 1 .41.21c0 .1 0 .23.08.33a4 4 0 0 1-.21.54zM96.48 13.86c-.61.28-1.2.56-1.79.87a140.25 140.25 0 0 0-46.58 10.94C40 29.08 32.55 33.44 26.58 40c-4.49 4.9-7.74 10.48-11.48 15.87v-.92c7.41-12.87 16.2-23 30.63-29a144 144 0 0 1 50.75-12.09zM95.64 14.7a4.86 4.86 0 0 1 .66 0Q89 20.18 81.28 25a6.48 6.48 0 0 0-1.46 0c-.51 0-.74.87-.15 1C71 31.47 62.06 36.39 52.93 41a3.8 3.8 0 0 1-.54-.18.44.44 0 0 0-.2 0c1.82-.92 3.61-1.87 5.35-2.82 13.08-6.92 25.61-15.76 38.1-23.3z"/><path class="cls-3" d="M96 112.16c.08.41.15.84.2 1.25a26.41 26.41 0 0 1-3.61 5.82 26 26 0 0 1-11.2 8 6.66 6.66 0 0 0-.67-.26.43.43 0 0 0-.46.69 54.42 54.42 0 0 1-7.79 2.13.58.58 0 0 1-.67-.25 12.54 12.54 0 0 1-1.61-3.7 20.42 20.42 0 0 0 .2-2.69 20.45 20.45 0 0 0 1.92 6.12c8.31-2.18 16-4.33 20.77-12a48.16 48.16 0 0 0 2.92-5.11z"/><path class="cls-7" d="M94.63 103.72a8.05 8.05 0 0 1 1.21 6.82c-1 4.54-5.28 9.36-8.84 12.1-2.92 2.23-6.59 3.41-10 4.56-.94.31-4.12 2-4.66 0s-1-3.69-1.64-5.54a.93.93 0 0 0-.1-.2 37.83 37.83 0 0 0 7.94-2A30.47 30.47 0 0 0 92 109a12.12 12.12 0 0 0 2.63-5.28z"/><path class="cls-3" d="M96 112.11a.37.37 0 0 1 .2-.39 2.19 2.19 0 0 1-.2.44zM94.69 14.73h1c-12.49 7.54-25 16.38-38.1 23.22-1.74.95-3.53 1.9-5.35 2.82a.21.21 0 0 0-.15.08c-11.93 6-24.9 11.25-37.25 16.23 0-.16-.16-.26-.31-.29.08-.12.18-.23.26-.35a.62.62 0 0 0 .31-.36c14.27-5.77 28.47-11.62 42.06-18.84 12.77-6.85 24.56-16.03 37.53-22.51zM86.79 134a5.11 5.11 0 0 0 1.26.18c1.77 2.35 3.31 5.53 6.33 6.25 0 .15 0 .33-.08.51a.28.28 0 0 0 .51.13 1 1 0 0 0 .11-.26.88.88 0 0 1-.75 1.34c-3-.13-4.92-3.05-6.45-5.31a95.13 95.13 0 0 0-7.46-9.12v-.06c0-.06.33-.1.49-.17 2.07 1.23 3.87 4 5.64 6a.37.37 0 0 0 .28.46.27.27 0 0 0 .15 0z"/><path class="cls-3" d="M94.69 140.56a.47.47 0 0 1 .23.25 1 1 0 0 1-.11.26.28.28 0 0 1-.51-.13c0-.18 0-.36.08-.51h.05a.79.79 0 0 1 .26.13zM94.46 64.45c1.84 1.85.1 6.34-1.11 8.13-1.79 2.61-1.66 5.18-1.76 8.2a8.73 8.73 0 0 1-1.18 3.54 1 1 0 0 1-.29 0 11.6 11.6 0 0 0 1.16-3.51c.25-1.64-.59-3.43-.34-4.87s1.93-3.07 2.47-4.41a14.79 14.79 0 0 0 1.17-4.74c.11-2-.59-2.33-2.1-1.59.13-.31.26-.61.39-1a1.52 1.52 0 0 1 1.59.25zM94.71 102.26a4.48 4.48 0 0 1-.08 1.46 4.83 4.83 0 0 1-.4-.66 4.17 4.17 0 0 0-.08-1.77 7.18 7.18 0 0 0 .56.97z"/><path class="cls-3" d="M92.48 65.17c1.51-.74 2.21-.43 2.1 1.59a14.79 14.79 0 0 1-1.17 4.74c-.54 1.34-2.24 3.08-2.47 4.41s.59 3.23.34 4.87a11.6 11.6 0 0 1-1.16 3.51h-.41c1.88-3.51-.43-7 1.67-10.31 1.36-2.07 2.79-4.61 2.67-7.2-.18-2.84-5.34 2-5.59 2.23-2.64 2.46-5.85 6-9.41 7.79a7.19 7.19 0 0 0-1.79 0c2.89-1.26 5.87-4.15 7.79-5.72 1.72-1.38 3.41-3.15 5.23-4.51a.37.37 0 0 0 .38.21 2.81 2.81 0 0 0 1.82-1.61z"/><path class="cls-6" d="M96.58 130.74c-.59 3.28-1.71 6.38-2.2 9.69-3-.72-4.56-3.9-6.33-6.25a13.3 13.3 0 0 0 5-1.26 11.81 11.81 0 0 0 3.53-2.18z"/><path class="cls-3" d="M94.71 102.26a7.18 7.18 0 0 1-.56-1 6 6 0 0 0-.87-1.87.53.53 0 0 1 .72.18v.05c0 .05 0 0 0 0a7.85 7.85 0 0 1 .71 2.64zM93.64 51.92c-.18-.18-.36-.33-.54-.49a27.52 27.52 0 0 0-.67-7.35c-.05-.31.41-.57.56-.24a14.36 14.36 0 0 1 1.11 8.95c-.11.49-.69.51-1 .26-1.79-1.52-3.64-3.08-5.38-4.74a7.19 7.19 0 0 0-.8-1.62.18.18 0 0 0-.33.08 4.4 4.4 0 0 0 0 .51c-.74-.69-1.43-1.44-2.1-2.18 0-.05-.08-.1-.1-.13h.18a.69.69 0 0 0 .48-.18c1.75 1.85 5.41 5.16 7.9 7.33a1.67 1.67 0 0 1 0 .31l.33-.08.26.23a1.54 1.54 0 0 0 0-.31 3.06 3.06 0 0 1 .38-.1zM94.23 103.06a4.83 4.83 0 0 0 .4.66A12.12 12.12 0 0 1 92 109a30.47 30.47 0 0 1-13.49 10.53 37.83 37.83 0 0 1-7.94 2c-.29-.31-.88-.26-1 .13a24.43 24.43 0 0 1-10.1-.75c-3.89-1.2-5.43-4-7.51-6.71.06-.26.13-.52.18-.77 1.56 2.25 2.79 5.12 5.77 6.3a28.9 28.9 0 0 0 13.07.93 29.44 29.44 0 0 0 22.32-15.23 8.11 8.11 0 0 0 .93-2.37z"/><path class="cls-3" d="M94.12 101.26a4.17 4.17 0 0 1 .08 1.77A11.12 11.12 0 0 1 93 100a.53.53 0 0 1 .26-.62 6 6 0 0 1 .86 1.88z"/><path class="cls-9" d="M94.05 66.76c.12 2.59-1.31 5.13-2.67 7.2-2.1 3.31.21 6.8-1.67 10.31-.17 0-.25.18-.23.34 0 0-.07 0-.12.05-5 3.59-9.08 7.07-15.08 8.94-6.79 2.13-14.79 2.08-21.86 1.95-6.79-.13-15.38 0-21-4.51-2.77-2.23 0-5-.64-7.38a8.29 8.29 0 0 0-2.7-3.49 5.26 5.26 0 0 0 2.75-.79.19.19 0 0 0 .1 0 159.71 159.71 0 0 0 26 1.46 97 97 0 0 0 12.49-1c2.41-.36 7.53-.23 9.76-1.92a18.85 18.85 0 0 0 9.1-4.26c.21-.15 0-.41-.23-.31A57.8 57.8 0 0 1 79.62 77a.43.43 0 0 0-.16-.13l-.41-.08c3.56-1.79 6.77-5.34 9.41-7.79.25-.24 5.41-5.08 5.59-2.24z"/><path class="cls-3" d="M94 99.62v-.05a.53.53 0 0 0-.72-.18c-.18-.31-.41-.64-.64-1a12.15 12.15 0 0 0-.82-2 .58.58 0 0 1 .51.31A15.12 15.12 0 0 1 94 99.62zM93.94 52.2a3.06 3.06 0 0 0-.38.1 2.33 2.33 0 0 0 .08-.38zM94.23 103.06a8.11 8.11 0 0 1-.88 2.33A29.44 29.44 0 0 1 71 120.62a28.9 28.9 0 0 1-13-.93c-3-1.18-4.21-4-5.77-6.3a.44.44 0 0 1 0-.16.59.59 0 0 0-.69-.71 3.85 3.85 0 0 0-.61-.67 9.47 9.47 0 0 0 1.23.77c1.23 1.56 2 3.38 3.67 4.82a14.31 14.31 0 0 0 8.17 2.87 31.2 31.2 0 0 0 10.23-1.08l.28-.08c7.66-2.28 21.56-10.4 17.63-19.63a.59.59 0 0 0 .54-.74 1.61 1.61 0 0 0-.1-.36c.23.33.46.66.64 1a.53.53 0 0 0-.22.58 11.12 11.12 0 0 0 1.23 3.06z"/><path class="cls-3" d="M93.64 51.92a2.33 2.33 0 0 1-.08.38l-.31.08a2.3 2.3 0 0 0-.28-.23c0-.23.1-.46.13-.69.18.13.36.28.54.46z"/><path class="cls-3" d="M93.56 52.3a1.54 1.54 0 0 1 0 .31l-.26-.23zM93.2 60.05a5.75 5.75 0 0 1 .1 1.25.42.42 0 0 0 0 .46 10 10 0 0 1-.41 2.41 6.29 6.29 0 0 0-1 .43c1.77-3.53.62-8-3.61-9.3a1 1 0 0 0 .2-.46c2.52.44 4.21 2.74 4.72 5.21z"/><path class="cls-3" d="M93.3 61.33a3.54 3.54 0 0 1 0 .46.42.42 0 0 1 0-.46zM93.25 52.38l-.33.08a1.67 1.67 0 0 0 0-.31 2.3 2.3 0 0 1 .33.23zM92.41 34.75a7.23 7.23 0 0 0 .74.35 11.54 11.54 0 0 1-1.85-.1.19.19 0 0 1 .11-.18c.33-.05.66-.05 1-.07zM93.1 51.43c0 .23-.08.46-.13.69-2.49-2.17-6.15-5.48-7.9-7.33a.81.81 0 0 0 .16-.64.48.48 0 0 1 .15.11c2.49 2.46 5.13 4.74 7.72 7.17zM91.07 96.7a.7.7 0 0 1 .7-.28 12.15 12.15 0 0 1 .82 2 1.61 1.61 0 0 1 .1.36.59.59 0 0 1-.54.74 10.08 10.08 0 0 0-1.15-2 .57.57 0 0 1 .07-.82zM92.87 64.2c-.13.36-.26.66-.39 1a2.65 2.65 0 0 0-.41.21 10.07 10.07 0 0 0-1.2.77 11.87 11.87 0 0 0 1-1.49 6.29 6.29 0 0 1 1-.49z"/><path class="cls-3" d="M90.82 66.17h.05a10.07 10.07 0 0 1 1.2-.77 2.65 2.65 0 0 1 .41-.21 2.81 2.81 0 0 1-1.82 1.62.37.37 0 0 1-.38-.21c.18-.17.36-.3.54-.43z"/><path class="cls-4" d="M92.17 99.52c3.93 9.23-10 17.35-17.63 19.63l-.28.08v-.13a.61.61 0 0 0 .36-.92 11.93 11.93 0 0 1-1.69-4.82 31.78 31.78 0 0 0 3.33-1.36c3.2-1.51 16.86-7.41 15.48-12.61a.48.48 0 0 0 .43.13z"/><path class="cls-3" d="M92.41 34.75h-1a.55.55 0 0 1 .69-.18zM90.35 95.42a.46.46 0 0 0 .26.41c.12.26.28.51.43.79a.57.57 0 0 0 0 .77 10.08 10.08 0 0 1 1.15 2 .48.48 0 0 1-.43-.13 2.84 2.84 0 0 0-.13-.38.27.27 0 0 0-.25-.18c-.9-1.57-1.57-3.26-2.47-4.82a34.58 34.58 0 0 1-2.35-4.72.19.19 0 0 1 0-.2.18.18 0 0 1 .3 0c1.11 1.9 2.7 3.74 4 5.69a.62.62 0 0 0-.51.77zM88.23 55.33c4.23 1.25 5.38 5.77 3.61 9.3a9.77 9.77 0 0 0-1.2.72 9.43 9.43 0 0 0 .59-1 6.57 6.57 0 0 0 .71-3.64c-.33-2.72-2-3.82-4.22-5.07a.48.48 0 0 1-.16-.64c.08.15.16.33.23.48a.2.2 0 0 0 .36 0z"/><path class="cls-5" d="M91.94 60.71a6.57 6.57 0 0 1-.71 3.64 9.43 9.43 0 0 1-.59 1c-.92.69-1.74 1.44-2.13 1.77-4.2 3.39-8.3 8.41-13.76 9.59a.62.62 0 0 0-.49.56l-.43.08a124.92 124.92 0 0 1-16.9 1.74c-8.4.34-17-1.51-25.4-.51a2 2 0 0 0 .31-.85c0-.25-.13-.43-.38-.38a15.87 15.87 0 0 0-2.34.82 5.64 5.64 0 0 1-3.18-.1A8.69 8.69 0 0 1 21 74.81c-1.77-2.51-1.85-7.25 1.87-7.64a.8.8 0 0 0 .28-.13 15.12 15.12 0 0 0 4.18 6 .9.9 0 0 0 1.56.56A45.65 45.65 0 0 0 33 68.45c.26-.38.54-.79.82-1.28 0 .41 0 .85-.05 1.28a.69.69 0 0 0 1.28.36c2.49-4.25 5.39-8.25 7.77-12.58 2.1-3.85 5.18-8.57 5.69-13v-.08l3.41-1.66a.39.39 0 0 0 .16.15 26 26 0 0 0 16.48 3 .36.36 0 0 0 .12-.64.84.84 0 0 0 .29.12c.35.13.64-.23.58-.59-.12-.69-.56-1-1-1.59-.56-.71-1-1.48-1.54-2.23-.25-.35-.48-.77-.74-1.17A32.88 32.88 0 0 0 84.41 45s.07.08.1.13c.67.74 1.36 1.49 2.1 2.18.1 1.44.51 2.87.67 4.31a14.78 14.78 0 0 0 .28 3.38.48.48 0 0 0 .16.64c2.2 1.25 3.89 2.36 4.22 5.07zM81.05 61c.54-1.92 0-13.12-4.1-10.64-2.08 1.23-1.23 4.49-.56 6.31.43 1.2 1.89 4.59 3.66 4.59a.59.59 0 0 0 1-.26zm-25.51 9.1a.57.57 0 0 0 .65-.69c-.34-2.39-.59-13-5.26-11.08-2.28.93-.92 4.95-.38 6.51.61 1.82 2.1 5.62 4.51 5.57a.61.61 0 0 0 .48-.29z"/><path class="cls-3" d="M67.18 113.67a.46.46 0 0 0 0-.36v-.1c9.38-1.8 18.76-8.18 24.06-14.31.06-.07.13-.1.19-.07a4 4 0 0 0 .23.41.42.42 0 0 0 .15.15c1.38 5.2-12.28 11.1-15.48 12.61a31.78 31.78 0 0 1-3.36 1.34c-.13-.47-.92-.49-1 0a1.09 1.09 0 0 0 0 .31 32.91 32.91 0 0 1-9.17 1.43.52.52 0 0 0-1 0 19.75 19.75 0 0 1-9.56-2.46 8.37 8.37 0 0 0-1.24-1.15c.11 0 .18-.06.18-.13 3.85 2.92 9.8 3.23 15.33 2.41a.38.38 0 0 0 .62-.1zM91.77 96.39a.7.7 0 0 0-.7.28c-.15-.28-.31-.53-.43-.79a.4.4 0 0 0 .25.05h.62a2.83 2.83 0 0 1 .26.46z"/><path class="cls-3" d="M91.61 99a2.84 2.84 0 0 1 .13.38.42.42 0 0 1-.15-.15 4 4 0 0 1-.23-.41.27.27 0 0 1 .25.18zM91.2 95.37l.31.54h-.62a.4.4 0 0 1-.25-.05l-.26-.41a.62.62 0 0 1 .52-.59c.1.14.2.33.3.51z"/><path class="cls-7" d="M91.36 98.83c-.06 0-.13 0-.19.07-5.3 6.13-14.68 12.51-24.06 14.31-.41-.82-.85-1.62-1.31-2.39L61 98.29a.09.09 0 0 0 0-.08 5.06 5.06 0 0 0-.23-.87 68.93 68.93 0 0 0 9.13-.87v.15a.45.45 0 0 0-.46.46c.1 3.57 2.18 9.23 6.74 7.28 1.92-.84 4.49-2.48 5.1-4.64.54-1.89-1.43-4.17-2.33-5.61 0-.08-.13-.15-.18-.15A25 25 0 0 0 86.51 89l.08.08a.19.19 0 0 0 0 .2 34.58 34.58 0 0 0 2.3 4.72c.9 1.57 1.57 3.26 2.47 4.83z"/><path class="cls-3" d="M91.84 64.66a11.87 11.87 0 0 1-1 1.49h-.05c-.18.13-.36.26-.54.41a.86.86 0 0 1 0-.13 2.3 2.3 0 0 1 .36-1 9.77 9.77 0 0 1 1.23-.77zM90.35 95.44l.26.41a.46.46 0 0 1-.26-.41zM90.41 84.32l-.23.38a2 2 0 0 1-.24 0c.06-.13.13-.23.18-.36a1 1 0 0 0 .29-.02z"/><path class="cls-3" d="M90.61 65.4a2.3 2.3 0 0 0-.36 1 .86.86 0 0 0 0 .13c-1.82 1.36-3.51 3.13-5.23 4.51-1.92 1.57-4.9 4.46-7.79 5.72-1 .1-2.08.33-3 .51a.62.62 0 0 1 .49-.56c5.46-1.18 9.56-6.2 13.76-9.59.39-.28 1.21-1.03 2.13-1.72zM90.18 84.7c-.06.13-.13.23-.18.34a.8.8 0 0 1-.21-.05v-.13c0-.02 0 0 0 0s.1-.13.15-.18a2 2 0 0 0 .24.02z"/><path class="cls-3" d="M89.94 84.65s-.07.13-.15.18a.38.38 0 0 0-.25-.2 2.7 2.7 0 0 0 .17-.34h.41c-.05.13-.12.23-.18.36zM89.79 85a.8.8 0 0 0 .21 0l-.49.84a.33.33 0 0 1-.41.16c.23-.31.46-.62.67-1a.2.2 0 0 0 .02 0z"/><path class="cls-3" d="M89.79 84.86v.13c0 .06-.05 0-.08 0s.06-.08.08-.13z"/><path class="cls-3" d="M88.84 85.65a.28.28 0 0 1 .1-.2c.21-.26.39-.52.57-.77a.3.3 0 0 0 .2.28h.08a.2.2 0 0 1 0 .1c-.21.33-.44.64-.67 1a.48.48 0 0 1-.28-.41z"/><path class="cls-3" d="M89.79 84.83s0 .07-.08.1a.3.3 0 0 1-.2-.28v-.05a.38.38 0 0 1 .28.23z"/><path class="cls-3" d="M89.71 84.29a2.7 2.7 0 0 1-.17.34h-.06c-.02-.16.06-.34.23-.34zM89.51 84.63v0z"/><path class="cls-3" d="M89.48 84.63v.05c-.18.25-.36.51-.57.77a.28.28 0 0 0-.1.2 30.89 30.89 0 0 1-19.79 9.9c-2.87.36-5.82.61-8.76.77a112.22 112.22 0 0 1-17.41-.47C38.73 95.39 32.42 94 30 90.47c-2-2.77.93-4.3.16-6.61-.41-1.36-1.87-2.56-2.74-3.69h.71a8.29 8.29 0 0 1 2.7 3.49c.66 2.43-2.13 5.15.64 7.38 5.61 4.51 14.2 4.38 21 4.51 7.07.13 15.07.18 21.86-1.95 6-1.87 10.13-5.35 15.08-8.94 0-.01.02-.03.07-.03z"/><path class="cls-3" d="M88.84 85.65a.48.48 0 0 0 .23.39 17.75 17.75 0 0 1-2.56 3A25 25 0 0 1 78.77 94a.38.38 0 0 0-.54.2 39.5 39.5 0 0 1-8.35 2.31 68.93 68.93 0 0 1-9.13.87c-.08-.31-.18-.61-.28-.92a.22.22 0 0 0-.18-.1c2.94-.16 5.89-.41 8.76-.77a30.89 30.89 0 0 0 19.79-9.94zM88.38 51.43a7.29 7.29 0 0 1 .05 3.41 2.14 2.14 0 0 0-.43-.07 22.55 22.55 0 0 0-1-7.11 5.06 5.06 0 0 0 .67.65 16.3 16.3 0 0 1 .71 3.12z"/><path class="cls-3" d="M88 54.77a2.14 2.14 0 0 1 .43.07 1 1 0 0 1-.2.46l-.23-.07a2.42 2.42 0 0 0 0-.46zM79.67 77.45a.33.33 0 0 0 0-.46A57.8 57.8 0 0 0 88 73.37c.18-.1.44.16.23.31a18.85 18.85 0 0 1-9.1 4.26 3.42 3.42 0 0 0 .49-.44s.05-.02.05-.05z"/><path class="cls-3" d="M88 55.23l.26.07-.08.15a.2.2 0 0 1-.36 0c-.07-.15-.15-.33-.23-.48a.37.37 0 0 1 .41-.23 2.42 2.42 0 0 1 0 .49zM87.92 26.77c.41.21.82.41 1.23.64a8.06 8.06 0 0 1-1.26.21c-.38-.18-.77-.39-1.18-.54a6.74 6.74 0 0 0 1.21-.31zM87.56 133.51a.49.49 0 0 0 .13.18c.13.15.23.31.36.49a5.11 5.11 0 0 1-1.26-.18l-.36-.41-.07-.08c0-.15.1-.25.28-.33l.48-.18c.16.15.29.33.44.51z"/><path class="cls-3" d="M87 47.66a22.55 22.55 0 0 1 1 7.11.37.37 0 0 0-.41.23 14.78 14.78 0 0 1-.28-3.41c-.16-1.44-.57-2.87-.67-4.31a2.08 2.08 0 0 0 .36.38z"/><path class="cls-3" d="M87 47.66a2.08 2.08 0 0 1-.41-.38 4.4 4.4 0 0 1 0-.51.18.18 0 0 1 .33-.08 7.19 7.19 0 0 1 .8 1.62 5.06 5.06 0 0 1-.72-.65zM86.71 27.08c.41.15.8.36 1.18.54a4.76 4.76 0 0 1-1.38 0 .5.5 0 0 1-.31-.74 4.67 4.67 0 0 1 .51.2zM87.12 133l-.48.18c-.18.08-.28.18-.28.33-1.77-1.94-3.57-4.76-5.64-6a6.11 6.11 0 0 0 .64-.26c2.33 1.06 4.18 3.67 5.76 5.75z"/><path class="cls-3" d="M86.92 26.31l1 .46a6.74 6.74 0 0 1-1.21.31 4.67 4.67 0 0 0-.51-.23.42.42 0 0 1 .18-.23c.16-.1.33-.2.54-.31zM86.43 133.56l.36.41a.27.27 0 0 1-.15 0 .37.37 0 0 1-.28-.46z"/><path class="cls-3" d="M86.92 26.31c-.21.11-.38.21-.54.31a.42.42 0 0 0-.18.23 15.68 15.68 0 0 0-5.82-1.31 8.45 8.45 0 0 0 .9-.53 15.32 15.32 0 0 1 5.64 1.3zM85.07 44.79a.69.69 0 0 1-.48.18h-.18a.56.56 0 0 1 .1-.66h.08a.56.56 0 0 1 .67-.11.81.81 0 0 1-.19.59z"/><path class="cls-3" d="M84.18 43.61h-.9c-2-2.85-4.08-5.51-6.25-8.2-.16-.18 0-.52.28-.36A24.37 24.37 0 0 1 85.18 44a.7.7 0 0 1 0 .18.56.56 0 0 0-.67.11 1.53 1.53 0 0 0-.18-.29c.08-.1.13-.23.21-.33a1.89 1.89 0 0 1-.36-.06z"/><path class="cls-3" d="M84.59 43.64c-.08.1-.13.23-.21.33l-.2-.36a1.89 1.89 0 0 0 .41.03zM84.56 44.28h-.08s.06-.02.08 0z"/><path class="cls-3" d="M84.56 44.26h-.36c0-.11.13-.23.18-.34a1.53 1.53 0 0 1 .18.34z"/><path class="cls-3" d="M84.2 44.31h.31a.56.56 0 0 0-.1.66 32.88 32.88 0 0 1-18.15-6.4h-.05a5.49 5.49 0 0 0-.57-.82c5.13 2.9 12.21 6.38 18.1 6.56.07.13.15.23.23.36.11-.13.16-.26.23-.36z"/><path class="cls-3" d="M84.18 43.61l.2.36c0 .11-.13.23-.18.34a2.08 2.08 0 0 1-.43 0l-.46-.69c.28-.01.56-.01.87-.01z"/><path class="cls-3" d="M84.2 44.31c-.07.1-.12.23-.2.33-.08-.13-.16-.23-.23-.36a2.08 2.08 0 0 0 .43.03zM83.28 43.59l.46.69c-5.89-.18-13-3.66-18.1-6.56-.1-.13-.2-.23-.28-.33 6.2 1.74 11.33 5.69 17.92 6.2zM79 94.11c.9 1.44 2.87 3.72 2.33 5.61-.61 2.16-3.18 3.8-5.1 4.64-4.56 2-6.64-3.71-6.74-7.28a.45.45 0 0 1 .46-.46.5.5 0 0 1 .49.34c.92 2.84 1.64 8.35 6 6 1.23-.67 4.1-2.18 4-3.9s-1.39-3.2-2.1-4.58a.58.58 0 0 1 0-.34c.18 0 .36-.13.54-.2s.02.06.12.17zM80.38 25.54c-.23.18-.48.34-.71.49-.59-.13-.36-1 .15-1a6.48 6.48 0 0 1 1.46 0 8.45 8.45 0 0 1-.9.51zM80.72 127.49c-.16.07-.34.12-.49.17a.43.43 0 0 1 .46-.69 6.66 6.66 0 0 1 .67.26 6.11 6.11 0 0 1-.64.26zM77 50.38c4.12-2.48 4.64 8.72 4.1 10.64a.59.59 0 0 1-1 .26 1.79 1.79 0 0 0 .59-.13.34.34 0 0 0 0-.54s-.08-.08-.08-.1c.7-2.16 0-9.87-2.64-9.87-3.46.28-.74 8.58 1.9 10a.5.5 0 0 0 .18.65c-1.77 0-3.23-3.39-3.66-4.59-.67-1.83-1.52-5.09.61-6.32z"/><path class="cls-3" d="M78 50.64c2.64 0 3.34 7.71 2.64 9.87-.15-.16-.3-.29-.43-.44.64-1.33.28-3.54 0-4.82a10.3 10.3 0 0 0-.85-2.89c-.41-.8-1.58-2-2.12-.54-.64 1.69.07 3.92.82 5.51a9.83 9.83 0 0 0 2.1 2.74 1.84 1.84 0 0 1-.26.46.31.31 0 0 0 0 .1c-2.67-1.41-5.39-9.71-1.9-9.99zM80.69 60.61a.34.34 0 0 1 0 .54 1.79 1.79 0 0 1-.59.13.5.5 0 0 1-.18-.65 1.31 1.31 0 0 0 .59.21 2.63 2.63 0 0 0 .15-.33s.01.07.03.1z"/><path class="cls-3" d="M80.61 60.51a2.63 2.63 0 0 1-.15.33 1.31 1.31 0 0 1-.59-.21.31.31 0 0 1 0-.1 1.84 1.84 0 0 0 .26-.46c.18.15.33.28.48.44z"/><path class="cls-7" d="M80.36 99.08c.1 1.72-2.77 3.23-4 3.9-4.33 2.33-5-3.18-6-6a.5.5 0 0 0-.49-.34v-.15a39.5 39.5 0 0 0 8.35-2.31.58.58 0 0 0 0 .34c.78 1.36 2.04 2.95 2.14 4.56z"/><path class="cls-3" d="M80.23 55.25c.23 1.28.59 3.49 0 4.82a9.83 9.83 0 0 1-2.1-2.74c-.75-1.59-1.46-3.82-.82-5.51.54-1.46 1.71-.26 2.12.54a10.3 10.3 0 0 1 .8 2.89zM78.38 77.5a.21.21 0 0 1 .11-.1c.38-.13.76-.26 1.13-.41a.33.33 0 0 1 0 .46 3.42 3.42 0 0 1-.49.44 3.57 3.57 0 0 1-.56.07.29.29 0 0 1-.19-.46z"/><path class="cls-3" d="M79.46 76.86a.43.43 0 0 1 .16.13c-.37.15-.75.28-1.13.41a.21.21 0 0 0-.11.1C69.64 79.14 60.85 80.32 52 80c-6.72-.15-14.51-.92-20.79-.92a1.39 1.39 0 0 0 .33-.46c8.36-1 17 .85 25.4.51A124.92 124.92 0 0 0 73.8 77.4l.43-.08a.66.66 0 0 0 .67.72 9.89 9.89 0 0 0 4.15-1.26z"/><path class="cls-7" d="M94.69 14.73c-13 6.48-24.76 15.66-37.58 22.48-13.59 7.22-27.79 13.07-42.06 18.84a.18.18 0 0 0 0-.16c3.74-5.39 7-11 11.48-15.87 6-6.56 13.43-10.92 21.53-14.33a140.25 140.25 0 0 1 46.63-10.96z"/><path class="cls-3" d="M78.59 78a3.57 3.57 0 0 0 .56-.07c-2.23 1.69-7.35 1.56-9.76 1.92a97 97 0 0 1-12.49 1 159.71 159.71 0 0 1-26-1.46.19.19 0 0 1-.1 0 1.37 1.37 0 0 0 .33-.31c6.28 0 14.07.77 20.79.92 8.89.31 17.68-.87 26.42-2.51a.29.29 0 0 0 .25.51z"/><path class="cls-3" d="M77.23 76.81a7.19 7.19 0 0 1 1.79 0A9.89 9.89 0 0 1 74.9 78a.66.66 0 0 1-.67-.72c.92-.14 1.98-.37 3-.47zM78.77 94c-.18.07-.36.15-.54.2a.38.38 0 0 1 .54-.2zM74.59 118.18a.61.61 0 0 1-.36.92.55.55 0 0 1-.67-.13 7.28 7.28 0 0 1-1.69-5.3c.36-.1.7-.21 1-.33a11.93 11.93 0 0 0 1.72 4.84z"/><path d="M74.23 119.1v.13A31.2 31.2 0 0 1 64 120.31v-.08a.22.22 0 0 0 .23-.23c.08-.67-.54-1.2-.85-1.79a6.79 6.79 0 0 1-.71-3.11 32.91 32.91 0 0 0 9.17-1.43 7.28 7.28 0 0 0 1.69 5.3.55.55 0 0 0 .7.13z" fill="#fff"/><path class="cls-3" d="M72.9 113.34c-.33.12-.67.23-1 .33a1.09 1.09 0 0 1 0-.31c.1-.51.87-.49 1-.02zM68.08 14.5a22.1 22.1 0 0 1 3.69 1.3c.1 0 .16.16.1.23l-.51.11c-11.89-4.87-30.66 2.3-39.42 11.09-3.36 3.39-7.36 6.36-10.43 10-4.13 4.87-5.82 10.31-6.28 16.41a3.8 3.8 0 0 0-.36.69.58.58 0 0 0-.29-.41s-.07 0-.1-.05A27.91 27.91 0 0 1 18.4 40c2.7-4.26 6.67-7.05 10.18-10.49 2.85-2.77 5.56-5.84 9.05-7.82a65 65 0 0 1 9.25-4 54.1 54.1 0 0 1 11.23-3.05 39.23 39.23 0 0 1 6.82-.69 8.5 8.5 0 0 1 1.43.21 1 1 0 0 0 1.44.3.82.82 0 0 1 .28.04z"/><path class="cls-3" d="M71.36 16.14l.51-.11a.24.24 0 0 1-.33.18zM70.57 121.49a8.22 8.22 0 0 1-1 .13c.12-.39.71-.44 1-.13zM70.36 123.13a20.42 20.42 0 0 1-.2 2.69 13.48 13.48 0 0 1-.39-1.77c.13-.72.26-1.46.36-2.2.08.43.15.84.23 1.28z"/><path class="cls-3" d="M70.23 121.82c0 .44.11.87.13 1.31-.08-.44-.15-.85-.23-1.28-.1.74-.23 1.48-.36 2.2 0-.36-.1-.72-.15-1.1.18-.54.33-1 .41-1.16s.18-.05.2.03zM70.16 125.82c-.21 1.08-.47 2.18-.7 3.28a.74.74 0 0 1-.74.57 35.11 35.11 0 0 1-4.95-.59.61.61 0 0 0-1.1-.46l-.13.21c-4.71-1.1-9.69-3.31-11.56-7.18a4 4 0 0 0 .18-.64c2.56 4.9 13 8.1 17.56 7.95.33-1.62.72-3.23 1-4.9a13.48 13.48 0 0 0 .44 1.76z"/><path class="cls-3" d="M69.62 123c0 .38.1.74.15 1.1-.33 1.67-.72 3.28-1 4.9-4.56.15-15-3-17.56-7.95a3.3 3.3 0 0 0 .13-.71c2.05 3.79 6.92 5.69 10.82 6.79a19.12 19.12 0 0 0 6 1.15c-.03-.2.84-3.49 1.46-5.28z"/><path class="cls-7" d="M69.54 121.85c0 .38 0 .74.08 1.1-.59 1.84-1.49 5.13-1.49 5.25a19.12 19.12 0 0 1-6-1.15c-3.9-1.1-8.77-3-10.82-6.79a8.12 8.12 0 0 0 .15-1.41 25.58 25.58 0 0 1 .54-4.66c2.08 2.76 3.62 5.51 7.51 6.71a24.43 24.43 0 0 0 10.1.75.37.37 0 0 0-.07.2z"/><path class="cls-3" d="M69.51 43.56c.06.36-.23.72-.58.59a.84.84 0 0 1-.29-.12.1.1 0 0 0-.07 0h-.06c-1-.64-1.72-2.23-2.26-3.18a26 26 0 0 1-2.12-3.92.22.22 0 0 1 .33-.23 3.46 3.46 0 0 1 1 .77l-.26-.08c-.1 0-.18.11-.1.18q.57.54 1.23 1.08h.05c.26.4.49.82.74 1.17.51.75 1 1.52 1.54 2.23.34.49.73.82.85 1.51z"/><path class="cls-3" d="M52.32 41.26l.61-.31c5.08 1.82 10.3 1.9 15.51 3a.25.25 0 0 0 .13 0 .36.36 0 0 1-.12.64 26 26 0 0 1-16.48-3 .39.39 0 0 1-.16-.15 3.61 3.61 0 0 1 .51-.18z"/><path class="cls-3" d="M68.59 44a.25.25 0 0 1-.13 0h.06a.1.1 0 0 1 .07 0zM63.75 3a.37.37 0 0 0-.18-.36C65 3.12 65.83 5 66.31 6.37c.82 2.31 1.15 4.72 1.82 7.07a.87.87 0 0 1-.28 1 7.72 7.72 0 0 0-1.54-.44v-.07c-.8-2.08-.64-4.33-1.15-6.46-.36-1.41-1.49-2.77-1.64-4.18a.46.46 0 0 0 .23-.29z"/><path class="cls-3" d="M67.85 14.42a13.11 13.11 0 0 0-1.44-.3.16.16 0 0 1 0-.11 7.72 7.72 0 0 1 1.44.41zM67.8 14.44a1 1 0 0 1-1.44-.3 13.11 13.11 0 0 1 1.44.3zM66.8 113.49v-.21l.36-.07v.1a.46.46 0 0 1 0 .36c-.21 0-.41.08-.62.08a2 2 0 0 1-.36-.36l.49-.08c.05.08.1.13.13.18z"/><path class="cls-3" d="M66.54 113.75c.21 0 .41-.06.62-.08a.38.38 0 0 1-.62.1zM67.11 113.21l-.36.07-1-2.46c.51.77.95 1.57 1.36 2.39zM66.75 113.28v.21s-.08-.1-.13-.18.1-.03.13-.03z"/><path class="cls-3" d="M66.75 113.28h-.08a37.87 37.87 0 0 1-6.28-16 .39.39 0 0 0 .26 0l.33.87a.09.09 0 0 1 0 .08 54.08 54.08 0 0 0 1.71 6.56 45.18 45.18 0 0 0 3 5.92zM66.18 113.39a2 2 0 0 0 .36.36c-5.53.82-11.48.51-15.33-2.41 0-.08.08-.16 0-.21a6.38 6.38 0 0 0-.49-.67.49.49 0 0 1 .44.08c4.51 3.03 9.74 3.69 15.02 2.85z"/><path class="cls-7" d="M66.26 14v.07c-.31 0-.67-.07-1-.1a2.41 2.41 0 0 0-.38 0C54.39 12.62 41.81 17.44 34 23.39c-10.51 8-19.07 17-20.1 30.27-1.49-.38-3.54.21-5 .13a20.29 20.29 0 0 1-6.54-1.49C1.9 43.44 1 35.85 4.66 27.39c1.31-3 3.06-5.82 4.49-8.77s5.54-5 7.92-7.17C22.79 6.22 31.86 4 39.29 2.76c7.13-1.21 17.08-2.26 23.94.56a.33.33 0 0 0 .24 0c.15 1.41 1.28 2.77 1.64 4.18.51 2.13.35 4.38 1.15 6.5z"/><path class="cls-3" d="M66.67 113.31l-.49.08c-2-2.13-3.25-5.64-4.2-8.33-.82-2.31-2-5.1-1.9-7.69a1.05 1.05 0 0 0 .31 0 37.87 37.87 0 0 0 6.28 15.94zM65.64 37.72a5.49 5.49 0 0 1 .57.82Q65.55 38 65 37.46c-.08-.07 0-.2.1-.18l.26.08c.08.13.18.23.28.36z"/><path class="cls-3" d="M61 98.29l4.76 12.48a45.18 45.18 0 0 1-3-5.92A54.08 54.08 0 0 1 61 98.29zM64.93 13.93a39.23 39.23 0 0 0-6.82.69 54.1 54.1 0 0 0-11.23 3.05 65 65 0 0 0-9.25 4c-3.49 2-6.2 5.05-9.05 7.82C25.07 33 21.1 35.77 18.4 40a27.91 27.91 0 0 0-3.92 13.84 2 2 0 0 0-.59-.21c1-13.22 9.59-22.25 20.1-30.27 7.82-5.92 20.4-10.74 30.94-9.43zM62.19 115.1h.51a6.79 6.79 0 0 0 .71 3.11c.31.59.93 1.12.85 1.79a.22.22 0 0 1-.23.23c-.92 0-1.38-1.1-1.69-1.84a8.1 8.1 0 0 1-.67-3.31 4.27 4.27 0 0 0 .52.02z"/><path class="cls-7" d="M66.18 113.39c-5.28.84-10.51.18-15-2.85a.49.49 0 0 0-.44-.08c-1.72-2.46-3.66-4.61-5-7.38-.64-1.3-1.2-5.23-2.71-6.25 1.79.2 3.56.31 5.2.38 0 0-.08.05-.08.08a4.07 4.07 0 0 0-.26 1.31s-.05 0-.05.05c-.25 3.25 1.7 6.12 3.16 8.87a.48.48 0 0 0 .38.23c2.13-.21 4.61-.87 5.54-3s-.16-5.15-.85-7.36h4c-.07 2.59 1.08 5.38 1.9 7.69.96 2.67 2.19 6.18 4.21 8.31z"/><path class="cls-4" d="M64 120.23v.08a14.31 14.31 0 0 1-8.25-2.87c-1.64-1.44-2.44-3.26-3.67-4.82a19.75 19.75 0 0 0 9.56 2.46 8.1 8.1 0 0 0 .67 3.31c.34.74.8 1.87 1.69 1.84z"/><path class="cls-3" d="M62.67 128.61a.61.61 0 0 1 1.1.46 4.41 4.41 0 0 1-.59-.12c-.2 0-.41-.08-.64-.13z"/><path class="cls-3" d="M63.77 129.07c-2.46 8.33-9.51 15.25-18.73 14.33a.66.66 0 0 1-.57-1c.92-2 2.46-3.56 3.44-5.51a.36.36 0 0 1 .15-.2 1.37 1.37 0 0 0 0 .28.31.31 0 0 0 .31.23c-.69 1.8-2.23 3.08-3.1 4.87H45l.15.28-.15.39a2.36 2.36 0 0 0 .38 0 2 2 0 0 1 .18.31l.13-.28c5.28.43 10.25-2.51 13.58-6.49h.34a.64.64 0 0 0 .48-1c.16-.2.29-.43.44-.64 1.23-1.82 1.67-3.79 2.61-5.71a4.41 4.41 0 0 0 .63.14zM63.75 3a.46.46 0 0 1-.28.36 1.46 1.46 0 0 1 0-.72h.05a.37.37 0 0 1 .23.36z"/><path class="cls-6" d="M31.94 27.23c8.76-8.79 27.53-16 39.42-11.09-23.25 5-45.78 16.4-56.13 37.5.46-6.1 2.15-11.54 6.28-16.41 3.07-3.64 7.07-6.61 10.43-10z"/><path class="cls-3" d="M1.77 52.07c-.39-.15-.67.41-.41.67a5.91 5.91 0 0 0 .64.56.6.6 0 0 1-.79-.53c-1-9.28-2-17.46 2.13-26.15C7.13 18.83 10.23 13.8 17.61 9a54.67 54.67 0 0 1 23.71-8c7-.65 15.68-1.65 22.2 1.58h-.05a1.46 1.46 0 0 0 0 .72.33.33 0 0 1-.24 0C56.37.5 46.42 1.55 39.29 2.76 31.86 4 22.79 6.22 17.07 11.45c-2.38 2.17-6.51 4.3-7.92 7.17S6 24.39 4.66 27.39C1 35.85 1.9 43.44 2.36 52.3zM62.54 128.82c.23.05.44.1.64.13-.94 1.92-1.38 3.89-2.61 5.71-.15.21-.28.44-.44.64a.71.71 0 0 0-.48-.23L59 135c1.31-1.95 2.26-4.06 3.54-6.18zM62.19 115.1a4.27 4.27 0 0 1-.52 0 .52.52 0 0 1 1 0zM61 98.21l-.33-.87h.1a5.06 5.06 0 0 1 .23.87z"/><path class="cls-3" d="M60.47 96.42c.1.31.2.61.28.92h-.1l-.34-.87c0 .28.06.56.08.87a1.05 1.05 0 0 1-.31 0 9.17 9.17 0 0 1 .11-1 .09.09 0 0 1 .1-.1.22.22 0 0 1 .18.18z"/><path class="cls-3" d="M60.31 96.47l.34.87a.39.39 0 0 1-.26 0c-.02-.34-.05-.59-.08-.87zM60.13 135.3a.64.64 0 0 1-.48 1h-.34c.28-.3.54-.64.82-1zM60.29 96.32a.09.09 0 0 0-.1.1 9.17 9.17 0 0 0-.11 1c-1.36 0-2.72.07-4 0v-.07a.36.36 0 0 0-.34-.26c-2.35-.08-4.74-.18-7.12-.1a.36.36 0 0 0-.36.25c-1.64-.07-3.41-.18-5.2-.38a1.28 1.28 0 0 0-.57-.26c-.07-.18-.18-.25-.33-.15a.62.62 0 0 0-.26.25 25.09 25.09 0 0 1-7.56-2c.08-.51-.67-.87-1-.51A12.46 12.46 0 0 1 31.6 93c-1.05-.85-3.15-2.47-3.05-4.11a13.75 13.75 0 0 0-1.69-8.79 2.91 2.91 0 0 0 .52 0c.87 1.13 2.33 2.33 2.74 3.69.77 2.31-2.16 3.84-.16 6.61 2.46 3.54 8.77 4.92 12.92 5.38a112.22 112.22 0 0 0 17.41.54z"/><path class="cls-3" d="M58.57 135.66c.18-.23.33-.46.46-.66l.62.07a.71.71 0 0 1 .48.23c-.28.36-.54.72-.82 1a8.67 8.67 0 0 1-1.25 0c.18-.18.36-.41.51-.64z"/><path class="cls-7" d="M51 121.64c1.87 3.87 6.85 6.08 11.56 7.18-1.28 2.12-2.23 4.23-3.51 6.18-3.72-.41-7.23-1.67-9.51-4.82a.11.11 0 0 0-.1-.08 49.1 49.1 0 0 0 .18-6.64.76.76 0 0 0 .67-.33 7.79 7.79 0 0 0 .71-1.49z"/><path class="cls-3" d="M58.06 136.35a8.67 8.67 0 0 0 1.25 0c-3.33 4-8.3 6.92-13.58 6.49a5.38 5.38 0 0 1 .36-.67 14.88 14.88 0 0 0 10.35-4 12.13 12.13 0 0 0 1.62-1.82zM59 135c-.13.2-.28.43-.46.66-3-.23-7.74-2-9.2-4.51a5.82 5.82 0 0 1 0-.59v-.46a.11.11 0 0 1 .1.08c2.36 3.15 5.87 4.41 9.56 4.82z"/><path class="cls-3" d="M58.57 135.66c-.15.23-.33.46-.51.69-2.87-.2-7-1.64-8.77-3.92 0-.43.05-.84.08-1.28 1.46 2.54 6.15 4.28 9.2 4.51z"/><path class="cls-6" d="M58.06 136.35a12.13 12.13 0 0 1-1.62 1.77 14.88 14.88 0 0 1-10.35 4c.89-1.59 2.07-3 2.84-4.64a.62.62 0 0 0-.13-.72 20.41 20.41 0 0 0 .49-4.38c1.71 2.33 5.9 3.77 8.77 3.97z"/><path class="cls-3" d="M56 97.39c.69 2.21 1.85 5.1.85 7.36s-3.41 2.79-5.54 3a.48.48 0 0 1-.38-.23c-1.46-2.75-3.41-5.62-3.16-8.87l.05-.05a2 2 0 0 0 0 .36.33.33 0 0 0 .13.28c.18 2.87 1.9 5.74 3.36 8.07 6.51-.92 5.87-4 4.33-9.92a.73.73 0 0 0 .36 0zM56.19 69.43a.57.57 0 0 1-.65.69.49.49 0 0 0 .11-.28c-.28-1.47-.64-12-4.31-10.8-2.48.93 1.23 10.54 3.72 10.85h.08a.54.54 0 0 0 .4.28.61.61 0 0 1-.48.31c-2.41 0-3.9-3.75-4.51-5.57-.54-1.56-1.9-5.58.38-6.51 4.67-1.92 4.92 8.6 5.26 11.03z"/><path class="cls-7" d="M55.65 99a12.07 12.07 0 0 1 .38 5.07c-.43 1.85-2.66 2.36-4.25 2.69-.72.16-1.87-2.61-2.16-3.1a15.85 15.85 0 0 1-1.43-4.33.4.4 0 0 0 .46-.38c.08-1.72 2.92-1.11 4.08-1.13h2.2c.74 0 .64.75.72 1.18z"/><path class="cls-3" d="M54.93 97.39h.74c1.54 5.9 2.18 9-4.33 9.92-1.46-2.33-3.18-5.2-3.36-8.07a.25.25 0 0 0 .21.1 15.85 15.85 0 0 0 1.43 4.33c.29.49 1.44 3.26 2.16 3.1 1.59-.33 3.82-.84 4.25-2.69a12.07 12.07 0 0 0-.38-5.08c-.08-.44 0-1.29-.72-1.23s-1.46 0-2.2 0c-1.16 0-4-.59-4.08 1.13a.4.4 0 0 1-.46.38c-.08-.26-.1-.49-.16-.74s-.15-.08-.18 0a4.07 4.07 0 0 1 .26-1.31s0-.05.08-.08c.64 0 1.23 0 1.82.05 1.59.12 3.23.17 4.92.19z"/><path class="cls-3" d="M56 97.32v.07a.73.73 0 0 1-.36 0h-.74c-1.69 0-3.33-.07-4.92-.13-.59 0-1.18-.05-1.82-.05a.36.36 0 0 1 .36-.25c2.38-.08 4.77 0 7.12.1a.36.36 0 0 1 .36.26zM55.65 69.79zM55.65 69.79h-.51a.72.72 0 0 1-.08-.26 2.63 2.63 0 0 1-.05-.49.92.92 0 0 0 .36.23.52.52 0 0 1 .28.52zM55.14 69.84h.51a.49.49 0 0 1-.11.28.54.54 0 0 1-.4-.28z"/><path class="cls-3" d="M55.65 69.79a.52.52 0 0 0-.28-.47.92.92 0 0 1-.36-.23c-.21-1.56-.28-3.1-.62-4.64-.23-1.18-.72-4.56-2.2-4.84-1.87-.39-.15 4.56.1 5.23.56 1.38 1.38 3.36 2.72 4.25a2.63 2.63 0 0 0 .05.49.72.72 0 0 0 .08.26h-.08c-2.49-.31-6.2-9.92-3.72-10.85 3.66-1.23 4.03 9.33 4.31 10.8z"/><path class="cls-3" d="M54.39 64.45c.34 1.54.41 3.08.62 4.64-1.34-.89-2.16-2.87-2.72-4.25-.25-.67-2-5.62-.1-5.23 1.48.28 1.97 3.66 2.2 4.84zM52.32 41.26a3.61 3.61 0 0 0-.44.23.53.53 0 0 1 .16-.67.21.21 0 0 1 .15-.08.44.44 0 0 1 .2 0 3.8 3.8 0 0 0 .54.18zM51.52 112.52a.59.59 0 0 1 .69.71.44.44 0 0 0 0 .16 9.28 9.28 0 0 0-.69-.87z"/><path class="cls-3" d="M51.44 113.46c-.07-.12-.18-.25-.25-.36a.54.54 0 0 0 0-.33s.05-.07.08-.1a.47.47 0 0 1 .25-.15 9.28 9.28 0 0 1 .64.87c0 .25-.12.51-.18.77a5.49 5.49 0 0 0-.54-.7zM52 40.82a.53.53 0 0 0-.16.67l-3.41 1.66a.36.36 0 0 0-.65-.1c-.07.18-.18.39-.25.56-10.84 5.21-21.94 10-33.15 14.51.13-.3.23-.64.36-.95a.16.16 0 0 0 0-.1c12.4-5 25.37-10.23 37.26-16.25z"/><path class="cls-3" d="M51.44 113.46a5.49 5.49 0 0 1 .54.7 25.58 25.58 0 0 0-.54 4.66 8.12 8.12 0 0 1-.15 1.41c-.1-.18-.2-.36-.28-.54a.25.25 0 0 0-.33-.13c.2-2.07-.08-4.33.76-6.1zM52.11 112.62a9.47 9.47 0 0 1-1.23-.77 1.54 1.54 0 0 0-.2-.18 1.92 1.92 0 0 0-.23-.2l-.08-.08a.38.38 0 0 1 0-.18c.21.1.44.18.64.26H51a8.37 8.37 0 0 1 1.11 1.15z"/><path class="cls-3" d="M50.37 111.39l.08.08a.53.53 0 0 0 .12.15.27.27 0 0 0 .11 0 1.54 1.54 0 0 1 .2.18 3.85 3.85 0 0 1 .61.67.47.47 0 0 0-.25.15s-.05.08-.08.1a.68.68 0 0 0-.66-.49c-.36-.35-.72-.74-1.11-1.1a.33.33 0 0 1 0-.51 8.8 8.8 0 0 0 .92.54.38.38 0 0 0 .06.23zM51.16 121a4 4 0 0 1-.18.64c-.15-.33-.28-.69-.41-1a6.53 6.53 0 0 0 .11-1 .25.25 0 0 1 .33.13c.08.18.18.36.28.54a3.3 3.3 0 0 1-.13.69z"/><path class="cls-3" d="M51.19 113.1c.07.11.18.24.25.36-.84 1.77-.56 4-.76 6.1a.37.37 0 0 0-.26.39c0 .2.1.41.15.59a6.09 6.09 0 0 1-.54 1.59 7.4 7.4 0 0 1-.56-.56c1.05-2.49 0-5.64 1.18-8a4.06 4.06 0 0 0 .36-.26.46.46 0 0 0 .18-.21zM50.42 110.75a.48.48 0 0 1 .33-.29 6.38 6.38 0 0 1 .49.67v.21c0 .08-.07.13-.18.13a4.15 4.15 0 0 0-.69-.52.34.34 0 0 1 .05-.2zM51.16 112.77a.54.54 0 0 1 0 .33L51 113c.09-.13.11-.18.16-.23z"/><path class="cls-3" d="M51 113l.16.15a.46.46 0 0 1-.18.26 4.06 4.06 0 0 1-.36.26A2.06 2.06 0 0 1 51 113zM51.16 112.77s-.07.1-.13.16c-.18-.21-.35-.44-.53-.65a.68.68 0 0 1 .66.49z"/><path class="cls-3" d="M46.5 114.92a1.38 1.38 0 0 0-.44-.56 14.88 14.88 0 0 0 4.21-2 .45.45 0 0 1 .23-.11c.18.21.35.44.53.65a2.06 2.06 0 0 0-.38.67 18.46 18.46 0 0 1-4.08 2 1.1 1.1 0 0 0-.07-.65zM51 111.47c-.2-.08-.43-.16-.64-.26a.33.33 0 0 1 0-.26 4.15 4.15 0 0 1 .64.52zM50.57 120.59c.13.36.26.72.41 1a7.79 7.79 0 0 1-.71 1.49.76.76 0 0 1-.67.33v-.38a.36.36 0 0 0-.71-.11 9.71 9.71 0 0 1-2-2.87c-.31-.64-1.1-3.3-1.82-3.48a1.08 1.08 0 0 1-.43-.21l1.1-.43c1.16 2 1.72 4.58 3.44 6.3 0 0 0 .1-.08.16s.13 0 .21 0a3.19 3.19 0 0 0 .38.36c.1-.16.2-.31.31-.46s.12 0 .18 0l-.11-.1a6.09 6.09 0 0 0 .5-1.6zM50.45 111.47a1.92 1.92 0 0 1 .23.2.27.27 0 0 1-.11 0 .53.53 0 0 1-.12-.2zM50.68 119.56a6.53 6.53 0 0 1-.11 1c0-.18-.1-.39-.15-.59a.37.37 0 0 1 .26-.41zM50.75 110.46a.48.48 0 0 0-.33.29 16.32 16.32 0 0 1-3.54-4.28c.26-.41 0-1.11-.54-1.06h-.07c-.64-1.17-1.23-2.35-1.69-3.4-.75-1.47-1.06-4.05-2.06-5.23a3.75 3.75 0 0 0 .47 0c1.51 1 2.07 5 2.71 6.25 1.39 2.82 3.3 4.97 5.05 7.43z"/><path class="cls-6" d="M50.5 112.28a.45.45 0 0 0-.23.11 14.88 14.88 0 0 1-4.21 2 1.2 1.2 0 0 0-1.36-.08 1.12 1.12 0 0 0-.51.62c-.67.18-1.31.39-1.95.62v-.05a2.74 2.74 0 0 1 .05-.28.58.58 0 0 0-.49-.67 14.19 14.19 0 0 1-.56-1.82c-.44-1.64-.52-3.51-1.41-5 .82.51 2 .23 2.89 0a16.32 16.32 0 0 0 3.62-1 12.5 12.5 0 0 0 3.1 3.87.33.33 0 0 0 0 .51c.34.43.7.82 1.06 1.17z"/><path class="cls-3" d="M50.42 110.75a.34.34 0 0 0-.08.2 3 3 0 0 0-.51-.33.34.34 0 0 0-.41 0 12.5 12.5 0 0 1-3.1-3.87l.36-.16a.71.71 0 0 0 .2-.17 16.32 16.32 0 0 0 3.54 4.33z"/><path class="cls-3" d="M50.34 111a.33.33 0 0 0 0 .26 8.8 8.8 0 0 1-.92-.54.34.34 0 0 1 .41 0 3 3 0 0 1 .51.28zM50.14 122.28h-.18a.76.76 0 0 0 .07-.13z"/><path class="cls-5" d="M50.65 113.62c-1.15 2.36-.13 5.51-1.18 8a10.38 10.38 0 0 1-1.47-2.21c-.28-.59-1.61-3-1.46-3.69v-.08a18.46 18.46 0 0 0 4.11-2.02z"/><path class="cls-3" d="M50 122.18a.76.76 0 0 1-.07.13c-.23 0-.46.07-.69.1a.27.27 0 0 1-.13-.13 2.4 2.4 0 0 0 .33-.66 7.4 7.4 0 0 0 .56.56z"/><path class="cls-3" d="M50 122.31c-.11.15-.21.3-.31.46a3.19 3.19 0 0 1-.38-.36c.19-.03.42-.08.69-.1zM49.6 123.46a49.1 49.1 0 0 1-.18 6.64.5.5 0 0 0-.62-.13c.21-2.23.39-4.43.39-6.69a.53.53 0 0 0 .41.18z"/><path class="cls-3" d="M49.19 123.28l-.3-.31a.36.36 0 0 1 .71.11v.38a.53.53 0 0 1-.41-.18zM49.37 131.15c0 .44 0 .85-.08 1.28a3.41 3.41 0 0 1-.59-1.05c0-.46.08-.9.1-1.36a.5.5 0 0 1 .62.13v.46a5.82 5.82 0 0 0-.05.54zM49.47 121.62a2.4 2.4 0 0 1-.33.66c-1.72-1.72-2.28-4.25-3.44-6.3a3 3 0 0 1 .47-.18l.4-.16v.08c-.15.67 1.18 3.1 1.46 3.69a10.38 10.38 0 0 0 1.44 2.21z"/><path class="cls-3" d="M49.27 122.41h-.21c-.08 0 .08-.11.08-.16a.27.27 0 0 0 .13.16zM49.16 123.28c0 2.26-.18 4.46-.39 6.69a.58.58 0 0 0-.3.64 2.2 2.2 0 0 0 .2.72c-.13 1.74-.25 3.49-.28 5.26a.56.56 0 0 0-.36.1 19.71 19.71 0 0 1 .08-6.18c.25-2.48.41-5 .66-7.48a.11.11 0 0 1 .06-.11zM48.8 136.81a.62.62 0 0 1 .13.72c-.77 1.67-2 3.05-2.84 4.64a6.49 6.49 0 0 1-.77 0c.87-1.79 2.41-3.07 3.1-4.87a.35.35 0 0 0 .33-.23 1.6 1.6 0 0 0 .05-.26z"/><path class="cls-3" d="M48.7 131.38a3.41 3.41 0 0 0 .59 1.05 20.41 20.41 0 0 1-.49 4.38.55.55 0 0 0-.38-.15c.03-1.79.15-3.54.28-5.28zM48.8 130c0 .46 0 .9-.1 1.36a2.2 2.2 0 0 1-.2-.72.58.58 0 0 1 .3-.64z"/><path class="cls-3" d="M48.42 136.66a.55.55 0 0 1 .38.15 1.6 1.6 0 0 1 0 .21.35.35 0 0 1-.33.23.31.31 0 0 1-.31-.23 1.37 1.37 0 0 1 0-.28.56.56 0 0 1 .36-.1zM34.43 68.43c0-.05 0-.08.07-.13l.62.15V67.2c2.18-3.82 4.9-7.33 7-11.36 1.85-3.23 3.23-6.77 5.08-10.15a9.85 9.85 0 0 0 .92-2.36 1.86 1.86 0 0 0 .34-.18v.08c-.51 4.43-3.59 9.15-5.69 13-2.37 4.33-5.27 8.33-7.77 12.58a.69.69 0 0 1-1.28-.36c0-.43 0-.87.05-1.28.26-.43.49-.9.72-1.36a8.82 8.82 0 0 0 0 1.16.07.07 0 0 0 0 .07c-.23.36-.41.72-.62 1.08l.6.15z"/><path class="cls-3" d="M48.11 43.33c-.18.08-.38.18-.56.28.07-.17.18-.38.25-.56a.36.36 0 0 1 .65.1 1.86 1.86 0 0 1-.34.18zM48 99.24a.33.33 0 0 1-.13-.28 2 2 0 0 1 0-.36c0-.08.18-.11.18 0s.08.48.16.74a.25.25 0 0 1-.21-.1s0 .02 0 0z"/><path class="cls-3" d="M47.55 43.61c.18-.1.38-.2.56-.28a9.85 9.85 0 0 1-.92 2.36c-1.85 3.38-3.23 6.92-5.08 10.15-2.07 4-4.79 7.54-7 11.36 0-.54 0-1.08.1-1.62 4.16-7.33 8.79-14.3 12.34-21.97zM46.34 105.41c.54 0 .8.65.54 1.06-.2-.36-.41-.7-.61-1.06z"/><path class="cls-3" d="M46 106.18c-.12-.23-.25-.46-.35-.66.2 0 .43-.08.64-.11.2.36.41.7.61 1.06a.71.71 0 0 1-.2.17l-.36.16c-.15-.21-.25-.41-.34-.62zM45.68 116l-1.1.43a1 1 0 0 1-.44-.66c.74-.23 1.56-.51 2.36-.8a1.1 1.1 0 0 1 .07.72l-.4.16a3 3 0 0 0-.47.18zM46.27 105.41c-.21 0-.44.06-.64.11l-.57-1.13a34.27 34.27 0 0 1-2.43-5.72 7.51 7.51 0 0 0-.13-1.89c1 1.18 1.31 3.76 2.06 5.23.44 1.05 1.07 2.23 1.71 3.4zM46.06 114.36a1.38 1.38 0 0 1 .44.56c-.8.29-1.62.57-2.36.8a1.23 1.23 0 0 1 0-.8c.69-.17 1.31-.38 1.92-.56z"/><path class="cls-3" d="M46 106.18c.11.21.21.41.34.62a16.32 16.32 0 0 1-3.62 1c-.92.18-2.07.46-2.89 0s0 0 0-.06-.11-.07-.16-.07c-.23-.23 0-.62.26-.74a12.39 12.39 0 0 1 2.1-.44.26.26 0 0 0 .33 0c.23 0 .46 0 .69-.1.85-.24 1.72-.54 2.62-.72.06.05.19.33.33.51zM45.32 142.12a6.49 6.49 0 0 0 .77 0 5.38 5.38 0 0 0-.36.67 1.09 1.09 0 0 1-.31 0 1.69 1.69 0 0 0-.23-.41c.05-.08.08-.18.13-.26zM45.73 142.84l-.13.28a2 2 0 0 0-.18-.31 1.09 1.09 0 0 0 .31.03zM44.7 114.28a1.2 1.2 0 0 1 1.36.08c-.61.18-1.23.39-1.87.54a1.12 1.12 0 0 1 .51-.62z"/><path class="cls-3" d="M45.19 142.4a1.69 1.69 0 0 1 .23.41 2.36 2.36 0 0 1-.38 0zM45.32 142.12c0 .08-.08.18-.13.28l-.15-.28zM44.19 114.92a1.23 1.23 0 0 0 0 .8l-1.56.46a4.9 4.9 0 0 0-.23-.46.71.71 0 0 1-.11-.21c.59-.2 1.23-.41 1.9-.59zM44.14 115.75a1 1 0 0 0 .44.66 10.9 10.9 0 0 1-2.29.64.26.26 0 0 0 .26-.2 1 1 0 0 0 0-.64zM43 96.83a3.75 3.75 0 0 1-.47 0l-.05-.08v-.1a1.28 1.28 0 0 1 .52.18zM42.11 96.73h.26a5.86 5.86 0 0 0 .26 1.92v.21c-.16 2.43-.21 4.84-.23 7.28a.23.23 0 0 1-.08.18 1.12 1.12 0 0 1-.33 0l-.08-.08c-1.05-1.72-.87-3.84-.64-5.74.1-.9-.05-3.08.59-3.9a.53.53 0 0 0 .25.13z"/><path class="cls-3" d="M42.5 96.78a7.51 7.51 0 0 1 .13 1.89 5.86 5.86 0 0 1-.26-1.92.24.24 0 0 0 .13.03zM42 116.46a.22.22 0 0 0 0-.11 3.84 3.84 0 0 0 .52-.12 1 1 0 0 1 0 .64.26.26 0 0 1-.26.2 1.18 1.18 0 0 1-.31 0c.05-.25.05-.43.05-.61z"/><path class="cls-3" d="M42.35 115.75a4.9 4.9 0 0 1 .23.46 3.84 3.84 0 0 1-.52.12c0-.25.1-.51.16-.79a.71.71 0 0 0 .13.21zM42.47 96.7s.05 0 .05.08a.09.09 0 0 0-.05-.08z"/><path class="cls-3" d="M42.47 96.67a.09.09 0 0 1 0 .08.24.24 0 0 1-.13 0v-.13s0-.05.05-.05.06.05.08.1z"/><path class="cls-3" d="M42.11 96.73a.53.53 0 0 1-.28-.06.62.62 0 0 1 .26-.25c.15-.1.26 0 .33.15l-.05.05v.13c-.08.03-.15 0-.26-.02zM41.78 114.54a.58.58 0 0 1 .49.67 2.74 2.74 0 0 0-.05.28 4.53 4.53 0 0 1-.44-.95zM42.24 117.05h-.33a.12.12 0 0 1 0-.08 1.18 1.18 0 0 0 .33.08z"/><path class="cls-3" d="M41.63 115.67c-.16-.28-.26-.57-.39-.85a.45.45 0 0 1 .54-.28 4.53 4.53 0 0 0 .44.95v.05l-.57.23v-.08zM42 106.39a1.12 1.12 0 0 0 .33 0 .26.26 0 0 1-.33 0z"/><path class="cls-3" d="M42.22 115.54c-.06.28-.11.54-.16.79a.08.08 0 0 1-.08 0 4.75 4.75 0 0 1-.33-.59z"/><path class="cls-3" d="M42.06 116.33a.22.22 0 0 1 0 .11l-.06-.08a.08.08 0 0 0 .06-.03zM42 116.44c0 .18-.08.36-.11.54a1.49 1.49 0 0 1-.51-.36 1.21 1.21 0 0 0 0-.18c.13 0 .31 0 .51-.1.11.05.11.07.11.1z"/><path class="cls-9" d="M41.88 106.31l.08.08a12.39 12.39 0 0 0-2.1.44c-.28.12-.49.51-.26.74a.13.13 0 0 0-.08.13 32.08 32.08 0 0 0 .8 5.82 11.45 11.45 0 0 0 .62 2.3 71.41 71.41 0 0 1-3.31 8.54c-1.77 4-2.9 4.12-7.18 4.53-4.74.47-9.33.77-13.33 3.59.67-.48 1.77-7.33 2.28-8.92a74.21 74.21 0 0 1 5.36-11.86c3-5.75 7.38-10.67 9.48-16.92a.15.15 0 0 0 0-.11 25.09 25.09 0 0 0 7.56 2c-.64.82-.49 3-.59 3.9-.21 1.9-.38 4.02.67 5.74z"/><path class="cls-3" d="M41.93 117a.12.12 0 0 0 0 .08 3.44 3.44 0 0 1-.57 0c0-.13.08-.28.1-.41a1.49 1.49 0 0 0 .47.33z"/><path class="cls-3" d="M41.32 117.05a3.44 3.44 0 0 0 .57 0c-.95 4-2.92 7.82-4 11.81a.82.82 0 0 1-.56.59c-6.84 1.57-15.12-.07-20.48 5.28-.41.42-1.31.16-1.23-.51a58.12 58.12 0 0 1 5.92-19.38c3.51-7.1 8.54-13.25 11.64-20.55a.61.61 0 0 1 .13-.16 6 6 0 0 0 1 .51.15.15 0 0 1 0 .11c-2.17 6.25-6.5 11.25-9.55 16.95a74.21 74.21 0 0 0-5.36 11.86c-.51 1.59-1.61 8.44-2.28 8.92 4-2.82 8.59-3.12 13.33-3.59 4.28-.41 5.41-.58 7.18-4.53a71.41 71.41 0 0 0 3.31-8.54.67.67 0 0 0 .1.23c-.51.26-.16.95.28 1z"/><path class="cls-3" d="M42 116.36c-.2 0-.38.08-.51.1a6.38 6.38 0 0 0 .13-.66 4.75 4.75 0 0 0 .38.56zM41.24 114.82v.08c-.08.31-.18.62-.28.92a11.45 11.45 0 0 1-.62-2.3 32.08 32.08 0 0 1-.8-5.82.13.13 0 0 1 .08-.13v.05c0 .05.08.08.13.08.89 1.49 1 3.36 1.41 5a14.19 14.19 0 0 0 .56 1.82.45.45 0 0 0-.48.3zM41.63 115.69v.08c0 .02 0 0 0 0a.18.18 0 0 0 0-.08z"/><path class="cls-3" d="M41.63 115.67a.18.18 0 0 1 0 .11 3.59 3.59 0 0 0-.51.2h-.05a.67.67 0 0 1-.1-.23c.1-.3.2-.61.28-.92v-.08c.12.35.22.64.38.92z"/><path class="cls-3" d="M41.09 116a3.59 3.59 0 0 1 .51-.2 6.38 6.38 0 0 1-.13.66h-.18a2.09 2.09 0 0 1-.25-.44s.02-.02.05-.02zM41.47 116.46a1.21 1.21 0 0 1 0 .18l-.13-.15s.06-.03.13-.03z"/><path class="cls-3" d="M41.29 116.49l.13.15c0 .13-.08.28-.1.41-.44-.1-.79-.74-.28-1a2.09 2.09 0 0 0 .25.44zM39.76 107.64v.06c0 .06-.08-.06-.13-.08s0 0 0-.05.1 0 .13.07z"/><path class="cls-8" d="M36.19 57.23c.05-.47-.61-.49-.77-.11a27.17 27.17 0 0 0-1.36 6.33c-.74 1.18-1.28 2.54-2.1 3.67a54.92 54.92 0 0 1-4.2 5 49.51 49.51 0 0 1-3.82-6.87c-1-2.3-1.56-4.74-2.54-7-.12-.28-.48-.08-.43.18A34.9 34.9 0 0 0 22.81 66c-4.69-1.07-5.12 4.54-4.1 8-1.48-2.41-3.18-6.72-2.13-9.28 0 0 0-.05.05-.07a.61.61 0 0 0 .06-.13.11.11 0 0 1 0-.08s0-.08.05-.13a.4.4 0 0 0-.61-.49 2.57 2.57 0 0 0-.49.62A30.77 30.77 0 0 0 12 68.79c-.18-3.7 1.1-7.23 2.4-10.67 11.21-4.51 22.31-9.3 33.15-14.51-3.59 7.67-8.18 14.64-12.31 22 .23-2.82.67-5.56.95-8.38z"/><path class="cls-3" d="M34.81 62.4h-.08a5.56 5.56 0 0 0-.67 1 27.17 27.17 0 0 1 1.36-6.33c.16-.38.82-.36.77.11-.28 2.82-.72 5.56-.95 8.35-.25.44-.51.92-.76 1.39a8.82 8.82 0 0 1 0-1.16 5.51 5.51 0 0 0 .59-3.23.21.21 0 0 0-.26-.13zM34.48 67c.25-.47.51-1 .76-1.39-.05.54-.07 1.08-.1 1.62-.23.36-.43.71-.64 1.1h-.07V67.1a.07.07 0 0 1 .05-.1z"/><path class="cls-3" d="M34.71 63.3c0-.31.07-.59.1-.87a.21.21 0 0 1 .28.16 5.51 5.51 0 0 1-.59 3.23c0-.85.1-1.67.21-2.46zM35.14 67.2v1.25l-.62-.15c.19-.39.39-.74.62-1.1z"/><path class="cls-3" d="M34.73 62.46s.05-.06.08 0c0 .28-.08.56-.1.87a14 14 0 0 1-.8 2c0-.61.08-1.23.15-1.85a5.56 5.56 0 0 1 .67-1.02zM34.5 68.3s0 .08-.07.13v-.16z"/><path class="cls-3" d="M34.71 63.33c-.11.79-.16 1.61-.21 2.46-.23.46-.46.93-.72 1.36 0-.64.08-1.25.13-1.87a14 14 0 0 0 .8-1.95zM34.45 67v1.23l-.6-.15c.15-.32.37-.68.6-1.08zM33.3 94.16c.3-.36 1.05 0 1 .51a6 6 0 0 1-1-.51z"/><path class="cls-3" d="M34.06 63.45c-.07.62-.12 1.24-.15 1.85a37 37 0 0 1-5.66 7.64c-.16-.28-.34-.53-.49-.82a54.92 54.92 0 0 0 4.2-5c.82-1.12 1.36-2.49 2.1-3.67z"/><path class="cls-3" d="M33.91 65.3c0 .62-.1 1.23-.13 1.87-.28.49-.56.9-.82 1.28a45.65 45.65 0 0 1-4.05 5.13.9.9 0 0 1-1.56-.58 3.65 3.65 0 0 0 .43.35c.29.21.59-.15.47-.43a37 37 0 0 0 5.66-7.62z"/><path class="cls-3" d="M25.25 78.86a.61.61 0 0 0 0 .23c0 .23 0 .49.05.72a13.4 13.4 0 0 1-3.35-1.62 41.18 41.18 0 0 1-2.85-3.59 3.16 3.16 0 0 1-.36-.56c-1-3.46-.59-9.07 4.1-8a9.62 9.62 0 0 0 .36 1 .8.8 0 0 1-.28.13c-3.72.39-3.64 5.13-1.87 7.64a8.69 8.69 0 0 0 4.89 3.31 5.64 5.64 0 0 0 3.18.1 15.87 15.87 0 0 1 2.34-.82c.25-.05.4.13.38.38a2 2 0 0 1-.31.85 2.4 2.4 0 0 0-.46.05c-.36 0-.56.59-.2.72a5.26 5.26 0 0 1-2.75.79c-.28-.28-.54-.51-.79-.74s-.8.08-.56.43a1 1 0 0 1 .12.26 3.93 3.93 0 0 1-.46-.08 5.81 5.81 0 0 0-.26-1 .21.21 0 0 0 0-.13.48.48 0 0 0-.92-.07z"/><path class="cls-3" d="M31.17 79.09a1.37 1.37 0 0 1-.33.31c-.36-.13-.16-.67.2-.72a2.4 2.4 0 0 1 .46-.05 1.39 1.39 0 0 1-.33.46zM28.25 72.94c.12.28-.18.64-.47.43a3.65 3.65 0 0 1-.43-.35.6.6 0 0 1 .08-.52.56.56 0 0 1 .15-.23 1 1 0 0 1 .18-.18c.15.29.33.54.49.82zM27.38 80.17a2.91 2.91 0 0 1-.52 0 1 1 0 0 0-.12-.26c-.24-.35.25-.71.56-.43s.51.46.79.74c-.23-.03-.48-.03-.71-.05z"/><path class="cls-3" d="M27.43 72.5a.6.6 0 0 0-.08.52 15.12 15.12 0 0 1-4.18-6 .52.52 0 0 0-.15-1 .93.93 0 0 1-.21 0A34.9 34.9 0 0 1 21 58.38c0-.26.31-.46.43-.18 1 2.28 1.57 4.72 2.54 7a49.51 49.51 0 0 0 3.82 6.87 1 1 0 0 0-.18.18.56.56 0 0 0-.18.25zM26.4 80.06a8.46 8.46 0 0 1-.1 3.94.52.52 0 0 1-.85.23c-3.3-3.85-7.41-7.1-9.1-12a18.38 18.38 0 0 1-1.25-5.31c.23-.3.43-.61.66-.92-.18 2.54 1.34 6.51 2 7.92 1.88 3.62 5.11 6.28 7.51 9.38v.62a2.23 2.23 0 0 1 .43-.1.39.39 0 0 1 .08.1v-.16l.41-.1c-.11-.15-.21-.31-.34-.46a9.18 9.18 0 0 0 .01-3.2 3 3 0 0 0 .54.06z"/><path class="cls-3" d="M25.86 80c-.15 0-.3-.08-.43-.1a1 1 0 0 0-.16 0c0-.23 0-.49-.05-.72a.61.61 0 0 1 0-.23 4.83 4.83 0 0 0 .87.23 5.81 5.81 0 0 1 .26 1 3 3 0 0 1-.49-.18zM25.91 83.14c.13.15.23.31.34.46l-.41.1a4.5 4.5 0 0 0 .07-.56zM26.09 79a.21.21 0 0 1 0 .13 4.83 4.83 0 0 1-.87-.23.48.48 0 0 1 .87.1z"/><path class="cls-3" d="M25.86 80a9.18 9.18 0 0 1 .05 3.18l-.53-.77c0-.84-.06-1.72-.11-2.56a1 1 0 0 1 .16 0c.13.03.28.09.43.15z"/><path class="cls-3" d="M25.91 83.14a4.5 4.5 0 0 1-.07.56.2.2 0 0 0-.11.06 4.66 4.66 0 0 0-.41-.52 8.48 8.48 0 0 0 .06-.87z"/><path class="cls-3" d="M25.84 83.7v.16a.39.39 0 0 0-.08-.1.2.2 0 0 1 .08-.06zM25.32 83.24a4.66 4.66 0 0 1 .41.52 2.23 2.23 0 0 0-.43.1c.02-.21.02-.41.02-.62z"/><path class="cls-3" d="M25.38 82.37a8.48 8.48 0 0 1-.06.87c-2.4-3.1-5.63-5.76-7.51-9.38-.71-1.41-2.23-5.38-2-7.92.29-.39.54-.77.82-1.16-1 2.56.65 6.87 2.13 9.28a8.86 8.86 0 0 0 .36 1 7.7 7.7 0 0 0 2.85 3.12c1.1 1.4 2.3 2.76 3.41 4.19zM23 66.09a.52.52 0 0 1 .15 1 9.62 9.62 0 0 1-.36-1 .93.93 0 0 0 .21 0z"/><path class="cls-3" d="M19.07 74.6a41.18 41.18 0 0 0 2.85 3.59 7.7 7.7 0 0 1-2.85-3.12 8.86 8.86 0 0 1-.36-1 3.16 3.16 0 0 0 .36.53zM16.15 63.86a.4.4 0 0 1 .61.49c0 .05-.05.08-.05.13a.45.45 0 0 0-.74-.31 3 3 0 0 0-.31.31 2.57 2.57 0 0 1 .49-.62z"/><path class="cls-3" d="M16 64.76c-.28.28-.54.62-.82.95a4.05 4.05 0 0 1 .46-1.23 3 3 0 0 1 .31-.31.45.45 0 0 1 .74.31.11.11 0 0 0 0 .08.49.49 0 0 0-.11.2c-.28.39-.53.77-.82 1.16a3.36 3.36 0 0 1 .24-1.16z"/><path class="cls-3" d="M16.69 64.56a.61.61 0 0 1-.06.13l-.05.07a.49.49 0 0 1 .11-.2zM15.2 65.71c.28-.33.54-.67.82-.95a3.36 3.36 0 0 0-.26 1.16c-.23.31-.43.62-.66.92a5.3 5.3 0 0 1 .1-1.13z"/><path class="cls-3" d="M15.66 64.48a4.05 4.05 0 0 0-.46 1.23c-1.08 1.31-2.1 2.77-3.1 4.13 0-.36-.08-.7-.1-1a30.77 30.77 0 0 1 3.66-4.36zM14.46 55.25a.12.12 0 0 1 0-.08.8.8 0 0 0 .2-.21.64.64 0 0 0 .16-.56 3.8 3.8 0 0 1 .36-.69c-.06.41-.08.82-.11 1.25-.25.46-.51.92-.77 1.41a1.8 1.8 0 0 0-.21.08.22.22 0 0 1-.15-.08 6.45 6.45 0 0 1 .52-1.12z"/><path class="cls-3" d="M15.2 65.71a5.3 5.3 0 0 0-.1 1.15c-1 1.44-2 2.85-3.1 4.26a.7.7 0 0 1-1.16-.31c-.66-4.51.72-8.59 2.62-12.58a.58.58 0 0 0 .43.07c-1.54 3.54-3 7.49-2.53 11.36-.13.2-.29.41-.44.61l.54.08a2.74 2.74 0 0 0 0 .28c.05-.07.13-.15.2-.25s.31 0 .46.05c0-.21-.05-.39-.07-.59 1.05-1.36 2.07-2.84 3.15-4.13zM15.12 54.92v.92a.54.54 0 0 1-.1.18c-.21.08-.41.16-.62.26.21-.44.47-.9.72-1.36z"/><path class="cls-3" d="M15 56.07a.54.54 0 0 0 .1-.18.18.18 0 0 1 0 .16zM15 56.07h.08a.62.62 0 0 1-.31.36c.05-.13.12-.26.23-.36z"/><path class="cls-3" d="M15 56.07c-.08.1-.15.23-.23.34a.7.7 0 0 1-.49.05c.05-.05.05-.11.08-.13.2-.1.4-.18.64-.26zM14.87 54.33a.64.64 0 0 1-.16.56.8.8 0 0 1-.2.21c.1-.26.23-.51.36-.77z"/><path class="cls-3" d="M14.58 53.92a.58.58 0 0 1 .29.41c-.13.26-.26.51-.36.77a10.9 10.9 0 0 1 0-1.28l.07.1zM14.38 57.23a1.25 1.25 0 0 1-.3.12c.15-.2.3-.38.43-.59.15 0 .31.13.31.29z"/><path class="cls-3" d="M14.79 57.07a.16.16 0 0 1 0 .1c-.13.31-.23.65-.36.95-.1.05-.23.08-.33.13a.17.17 0 0 1-.15 0c.13-.36.28-.72.43-1.05zM14.25 56.46a.7.7 0 0 0 .49-.05c-.08.12-.18.23-.26.35a.3.3 0 0 0-.36.13 4.34 4.34 0 0 0-.25.54l-.23.44a.15.15 0 0 1-.23-.18c.15-.41.33-.79.51-1.2a.94.94 0 0 0 .23-.1c0 .07.05.07.1.07zM14.48 55.15a.12.12 0 0 0 0 .08v-.08z"/><path class="cls-3" d="M13.84 54.53a3.61 3.61 0 0 1 .05-.87 2 2 0 0 1 .59.21 10.9 10.9 0 0 0 0 1.28 2.2 2.2 0 0 1-.67.41 7 7 0 0 1 .03-1.03zM14.48 56.76c-.13.21-.28.39-.43.59l-.18.08a4.34 4.34 0 0 1 .25-.54.3.3 0 0 1 .36-.13z"/><path class="cls-3" d="M14.46 55.23a6.45 6.45 0 0 0-.46 1.1.58.58 0 0 1-.21-.49.8.8 0 0 1 0-.26 2.2 2.2 0 0 0 .67-.41s-.03.03 0 .06zM14.07 58.25c.1 0 .23-.08.33-.13-1.3 3.44-2.58 7-2.4 10.67l-.64.87c-.44-3.87 1-7.82 2.53-11.36a.17.17 0 0 0 .18-.05zM14.35 57.23c-.15.33-.3.69-.43 1.05a.58.58 0 0 1-.43-.07c0-.11.1-.21.15-.34s0 0 .07 0a5.36 5.36 0 0 0 .34-.49 1.25 1.25 0 0 0 .3-.15zM14.33 56.33s0 .08-.08.13-.1 0-.13-.05a1.8 1.8 0 0 1 .21-.08zM14.12 56.41a.94.94 0 0 1-.23.1.29.29 0 0 1 .08-.18.22.22 0 0 0 .15.08z"/><path class="cls-3" d="M14.05 57.35a5.36 5.36 0 0 1-.34.49h-.07l.23-.44zM13.89 56.51c-.18.41-.36.79-.51 1.2a.15.15 0 0 0 .23.18c0 .13-.1.23-.15.34a.94.94 0 0 1 .18-1.62zM13.89 53.66a3.61 3.61 0 0 0-.05.87c-3.31.59-8.41.08-11.48-1.66a.2.2 0 0 0 0-.1v-.47a20.29 20.29 0 0 0 6.53 1.49c1.46.08 3.51-.51 5-.13z"/><path class="cls-3" d="M13.84 54.53a7 7 0 0 0-.05 1c-1.67.65-4.43.13-5.87-.12A14.32 14.32 0 0 1 2 53.3a.43.43 0 0 0 .34-.43c3.09 1.74 8.19 2.25 11.5 1.66zM12.1 69.84c0 .2.05.38.07.59-.15 0-.3 0-.46-.05z"/><path class="cls-3" d="M12.1 69.84l-.39.54a.8.8 0 0 0-.25 0 5.46 5.46 0 0 1-.1-.69l.64-.87c0 .32.05.66.1 1.02z"/><path class="cls-3" d="M11.71 70.38c-.07.1-.15.18-.2.25a2.74 2.74 0 0 1 0-.28.8.8 0 0 1 .2.03zM11.36 69.66a5.46 5.46 0 0 0 .1.69l-.54-.08c.15-.2.31-.41.44-.61zM2.38 52.77a.2.2 0 0 1 0 .1 3.58 3.58 0 0 1-.57-.34 3.62 3.62 0 0 0 0-.46l.59.23c-.04.16-.02.31-.02.47z"/><path class="cls-3" d="M1.79 52.53a3.58 3.58 0 0 0 .57.34.43.43 0 0 1-.36.43 5.91 5.91 0 0 1-.66-.56c-.26-.26 0-.82.41-.67a3.62 3.62 0 0 1 .04.46z"/><path class="cls-11" d="M83.36 36.31c-2.77 0-6.31-6.31-1.69-5.54 1.69.46 4.92 5.85 2 5.39"/><path class="cls-12" d="M83.36 36.31c-2.77 0-6.31-6.31-1.69-5.54 1.69.46 4.92 5.85 2 5.39"/><path class="cls-11" d="M83.63 35.84c-.35-.25-.83-.29-1.21-.51a6 6 0 0 1-1.37-1.23c-.36-.43-1.58-2.28-.62-2.66 1.28-.5 2.22.83 2.82 1.72a6.18 6.18 0 0 1 .84 1.78c.2.68 0 .41-.59.61a.63.63 0 0 0-.15 1.15 1.41 1.41 0 0 0 2-.48 2.82 2.82 0 0 0-.19-2.43c-.82-1.82-2.29-3.86-4.49-3.73s-2.08 2.26-1.4 3.73c.56 1.21 2.78 4 4.39 3a.55.55 0 0 0 0-.94zM87.82 33.54c.92.62 2-.77.92-2.15-1.84-2.47-4 1.69-.92 2.77"/><path class="cls-12" d="M87.82 33.54c.92.62 2-.77.92-2.15-1.84-2.47-4 1.69-.92 2.77"/><path class="cls-11" d="M88.72 34.44c1.14-1 1.35-2.07.27-3.3a1.82 1.82 0 0 0-2.3-.69c-1.84.94-.86 4.67 1.25 4.13a.45.45 0 0 0 .26-.65c-.44-.71-1.32-.88-1.36-1.85a1.32 1.32 0 0 1 .38-.94c.77-.79 2.22 1.34 1 1.89l1 .26c-.09-.13-.17-.26-.25-.39a1.27 1.27 0 1 0-.2 1.54z"/></g></g></svg>