<svg xmlns="http://www.w3.org/2000/svg" viewBox="0 0 142.54 143.67"><defs><style>.cls-1{fill:#ec9d1b}.cls-2{fill:#f3ed64}.cls-3{fill:#1d3033;stroke:#1d3033;stroke-linecap:round;stroke-linejoin:round;stroke-width:.66px}.cls-4{fill:#957884}.cls-5{fill:#8c4289}.cls-6{fill:#ebd494}.cls-7{fill:#9068a2}.cls-9{fill:#f7e5d7}.cls-11{fill:#fff}.cls-12{fill:none}</style></defs><g id="レイヤー_2" data-name="レイヤー 2"><g id="レイヤー_3" data-name="レイヤー 3"><path class="cls-1" d="M142.34 103.26a.72.72 0 0 1-.31 1.16c-2.82 1-5.36 1.89-5.56 5.38-.08 1.28-.21 2.54-.41 3.79a.82.82 0 0 1-1.21.49 6.41 6.41 0 0 1-2.53-3.13c-2-4.12-6.08-2.12-8.9-.66a.76.76 0 0 1-1.13-.67c.16-2.69 2.8-6.38 1.21-8.87A19.69 19.69 0 0 1 121 96a.67.67 0 0 1 .49-.87c2.61-.39 4.2.2 6.48 1.61a.33.33 0 0 1 .13.13 3.64 3.64 0 0 0-.41.87l-.13-.28c-1.66-1.18-3.77-2.36-5.89-1.67.48 2.59 3.07 4.49 3.3 7 .21 2.08-1.58 4-1.87 6-.13.07-.28.12-.41.2a2.24 2.24 0 0 1 .36.21 2.08 2.08 0 0 0 0 .43c.13-.05.25-.13.41-.2a3.24 3.24 0 0 0 .36.2 1.18 1.18 0 0 1 .07-.41c1.93-1 4.64-2.28 6.69-1.46 2.29.85 2.36 3.82 4 5.2a.58.58 0 0 1 0 .23 2.44 2.44 0 0 0 .24-.1 1.85 1.85 0 0 0 .53.31 3.27 3.27 0 0 0 .11-.56c.1-.06.2-.08.3-.13l-.25-.16c.25-1.94.2-4.74 1-6 1.05-1.64 2.8-1.85 4.67-2.54a1.84 1.84 0 0 1 .25.21c0-.1.06-.23.08-.33a3.47 3.47 0 0 0 .41-.16 2.38 2.38 0 0 0-.28-.26c0-.13.08-.26.1-.39l-.41.16c-1.89-1.49-5.38-3-6.23-4.9-.61-1.43 0-5.2.18-7.38l.39-.28-.36-.21a2.23 2.23 0 0 0 0-.36 2.55 2.55 0 0 0-.28.21l-.36-.21a2.63 2.63 0 0 1-.05.49c-2.54 1.87-5.71 5.41-6.59 8l-.15-.41a.84.84 0 0 0 .23-1.33 20.46 20.46 0 0 1 6.9-7.25.63.63 0 0 1 .95.53c-.11 2.54-1.57 7.39.84 9.26 1.74 1.35 3.8 2.38 5.54 3.86z"/><path class="cls-1" d="M141.85 103.75a3.47 3.47 0 0 1-.41.16c.05-.13.08-.29.13-.42a2.38 2.38 0 0 1 .28.26zM141.67 103.08c0 .13-.08.26-.1.39a2.06 2.06 0 0 1-.31-.23z"/><path class="cls-1" d="M141.57 103.47c0 .13-.08.29-.13.42a1.46 1.46 0 0 1-.33.12c-.21-.15-.46-.33-.72-.48.28-.11.56-.21.87-.31a2.06 2.06 0 0 0 .31.25zM141.44 103.91c0 .1-.05.23-.08.33a1.84 1.84 0 0 0-.25-.21 1.46 1.46 0 0 0 .33-.12z"/><path class="cls-1" d="M141.26 103.24c-.31.1-.59.2-.87.31-2.1-1.34-5.43-2.75-6-5s-.13-4.66.12-7l.72-.54c-.15 2.18-.79 6-.18 7.38.83 1.85 4.32 3.36 6.21 4.85zM140.39 103.55c.26.15.51.33.72.48-1.87.69-3.62.9-4.67 2.54-.82 1.23-.77 4-1 6a3.79 3.79 0 0 1-.77-.84c.13-1.92.18-4.39 1.31-5.62a9.8 9.8 0 0 1 4.41-2.56z"/><path class="cls-2" d="M134.37 98.52c.59 2.28 3.92 3.69 6 5a9.8 9.8 0 0 0-4.43 2.53c-1.13 1.23-1.18 3.7-1.31 5.62-1.23-1.67-1.74-4.21-3.9-4.67-2.38-.51-4.48.23-6.58 1.21.61-1.82 1.84-3.9 1.43-5.62a7.7 7.7 0 0 0-.95-2.56c-.46-.74-.92-1.49-1.41-2.26 1.49-1 2.77-.87 3.87.31a.49.49 0 0 0 .31.1c0 .06 0 .13-.08.18-.28.72.9 1.21 1.23.54a21.3 21.3 0 0 1 5.92-7.43c-.23 2.39-.69 4.77-.1 7.05z"/><path class="cls-1" d="M135.67 112.7c-.1 0-.2.07-.3.13s0-.18 0-.29zM135.6 90.68l-.39.28a2.8 2.8 0 0 0 0-.49z"/><path class="cls-1" d="M135.42 112.54v.29a5 5 0 0 0-.64.25.5.5 0 0 1-.21-.13c0-.38.1-.79.13-1.25a3.79 3.79 0 0 0 .72.84z"/><path class="cls-1" d="M135.37 112.83a3.27 3.27 0 0 1-.11.56 1.85 1.85 0 0 1-.53-.31 5 5 0 0 1 .64-.25zM135.26 90.11a2.23 2.23 0 0 1 0 .36l-.26-.15a2.55 2.55 0 0 1 .26-.21z"/><path class="cls-1" d="M135.24 90.47a2.8 2.8 0 0 1 0 .49l-.72.54a4.56 4.56 0 0 0 .08-.9c.13-.1.28-.2.41-.28zM134.62 90.11l.36.21c-.13.08-.28.18-.41.28a2.63 2.63 0 0 0 .05-.49zM134.73 113.08a2.44 2.44 0 0 1-.24.1.58.58 0 0 0 0-.23.5.5 0 0 0 .24.13zM134.65 111.7c0 .46-.08.87-.13 1.25-1.59-1.38-1.66-4.35-4-5.2-2-.82-4.76.49-6.69 1.46a3.69 3.69 0 0 1 .26-1c2.1-1 4.2-1.72 6.58-1.21 2.24.49 2.75 3 3.98 4.7z"/><path class="cls-1" d="M134.57 90.6a4.56 4.56 0 0 1-.08.9 21.3 21.3 0 0 0-5.92 7.43c-.33.67-1.51.18-1.23-.54 0 0 0-.12.08-.18a.43.43 0 0 0 .41 0l.15.41c.88-2.62 4.02-6.15 6.59-8.02z"/><path class="cls-3" d="M134.44 75.2c1.85 2.3-3.64 3.74-4.89 3.89a37.1 37.1 0 0 1-6.41.1h-1.51c.07-.31.13-.64.18-1 3.53.18 11.66.7 12.22-2.38a.4.4 0 0 0 .44-.49s-.03-.07-.03-.12z"/><path class="cls-3" d="M134.09 75.43c-.06-.16-.08-.34-.13-.49a.27.27 0 0 1 .33.08c.05 0 .1.12.15.18s0 .07 0 .12a.4.4 0 0 1-.44.49.84.84 0 0 0 .09-.38z"/><path class="cls-3" d="M134.44 75.2c-.05-.06-.1-.13-.15-.18a.27.27 0 0 0-.33-.08c-.15-.64-.33-1.28-.54-1.9a.34.34 0 0 0 .23-.43c-.28-1.18-.56-2.39-.84-3.57a33.56 33.56 0 0 1 1.63 6.16zM134.09 75.43a.84.84 0 0 1-.06.38.44.44 0 0 1-.36-.28c0-.08 0-.13-.07-.21s.18-.2.25-.3l.08-.08c.07.15.07.33.16.49z"/><path class="cls-3" d="M133.39 73c.21.62.39 1.26.54 1.9l-.08.08c-.07.1-.18.2-.25.3a74.82 74.82 0 0 0-15.74-24.71c-.2-.43-.41-.89-.64-1.33a.38.38 0 0 0-.66.05c-1.36-1.36-2.82-2.64-4.34-3.89-6-5-15.91-13.95-24.12-14.18.52-.15 1-.28 1.49-.44 5.2.7 13.63 7 17 9.21 9.87 6.81 19.32 16.27 24.58 27.45.51 1.8 1.05 3.59 1.67 5.36a.38.38 0 0 0 .55.2zM133.67 75.53a.44.44 0 0 0 .36.28c-.56 3.08-8.69 2.56-12.22 2.38 0-.35.1-.71.12-1.07 1.67-.13 3.95.28 4.87.25a16.29 16.29 0 0 0 4.88-.53 4.06 4.06 0 0 0 1.92-1.52c.02.08.05.13.07.21z"/><path class="cls-3" d="M133.62 72.61a.34.34 0 0 1-.23.43 9.67 9.67 0 0 0-.33-1c-.64-2.2-1.23-4.46-1.82-6.69a32.41 32.41 0 0 1 1.51 3.52.68.68 0 0 0 0 .12c.31 1.23.59 2.44.87 3.62z"/><path class="cls-3" d="M133.06 72.09a9.67 9.67 0 0 1 .33 1 .38.38 0 0 1-.53-.23c-.62-1.77-1.16-3.56-1.67-5.36a44.09 44.09 0 0 1 1.87 4.59z"/><path class="cls-3" d="M133.06 72.09a44.09 44.09 0 0 0-1.87-4.64c-.44-1.54-.87-3.08-1.31-4.61.49.84 1 1.71 1.36 2.58.59 2.21 1.18 4.47 1.82 6.67z"/><path class="cls-4" d="M133.6 75.32a4.06 4.06 0 0 1-1.92 1.52 16.29 16.29 0 0 1-4.88.53c-.92 0-3.2-.38-4.87-.25A29.91 29.91 0 0 0 122 73c-.33-8.1-.72-14.95-4.1-22.36a74.82 74.82 0 0 1 15.7 24.68z"/><path class="cls-3" d="M132.75 68.92a32.41 32.41 0 0 0-1.51-3.52c-1.59-5.92-3.28-11.84-6.18-17.25-.87-1.64-2.23-3.15-2.69-4.92-.54-1.95-.49-4.33-.79-6.36-.8-5.25-1.59-10.48-2.18-15.76-.44-4.13-2-8.43-2.28-12.53h.18a.21.21 0 0 0 .23-.18c.74 5 2.1 9.92 2.76 15 .49 3.69 1 7.38 1.59 11.07.39 2.51.23 6.46 1.13 8.61 2.16 5.13 5.13 9.51 6.77 14.9 1.13 3.6 2.07 7.27 2.97 10.94z"/><path class="cls-3" d="M125.06 48.15c2.9 5.41 4.59 11.33 6.18 17.25-.41-.87-.87-1.74-1.36-2.58-.61-2.21-1.28-4.41-2.08-6.57-1.82-5-5.53-9.63-6.45-14.91s-1.41-10.51-2-15.72c-.72-5.69-2.26-11.35-2.62-17.07a2.12 2.12 0 0 0 .44 0c.25 4.1 1.84 8.4 2.28 12.53.59 5.28 1.38 10.51 2.18 15.76.3 2 .25 4.41.79 6.36.41 1.8 1.77 3.31 2.64 4.95z"/><path class="cls-3" d="M129.88 62.82c.44 1.53.87 3.07 1.31 4.61-5.26-11.18-14.71-20.64-24.58-27.43-3.39-2.26-11.82-8.51-17-9.21l1.18-.38c3.38.56 6.71 2.64 9.4 4.33a114.86 114.86 0 0 1 13.33 9.33c6.16 5.19 12.26 11.49 16.36 18.75zM128.8 132.33a.43.43 0 0 0-.23-.26 1.47 1.47 0 0 0 .26-.23c.28-.28.67.13.44.44-.13.15-.26.33-.41.49a.43.43 0 0 0-.06-.44z"/><path class="cls-3" d="M128.8 132.33a.43.43 0 0 1 .06.44c-.16.18-.29.33-.47.51a.59.59 0 0 1-.35 0h-.11a6.93 6.93 0 0 0 .87-.95z"/><path class="cls-3" d="M128.39 133.28c.18-.18.31-.33.47-.51a.8.8 0 0 1-.47.51zM128 132.59a4.6 4.6 0 0 0 .56-.52.43.43 0 0 1 .23.26 6.93 6.93 0 0 1-.87.95c-.18-.05-.38-.08-.59-.15a5.66 5.66 0 0 0 .67-.54z"/><path class="cls-3" d="M128.57 132.07a4.6 4.6 0 0 1-.56.52c-1.74-.49-3.46-1.41-5.2-2.1-2.18-.88-6.46-.93-8.18-2.49-1.41-1.26-1.74-5-2.31-6.84-1.66-5.26-3.46-10.44-4.79-15.77A77 77 0 0 0 103.27 92a1.45 1.45 0 0 0 .36-.08c4.21 8.33 5.92 18 8.85 26.79 1.64 5 1.87 8.92 7.89 10.18 2.95.59 5.46 2 8.18 3.22z"/><path class="cls-5" d="M127.8 56.25c.8 2.16 1.47 4.36 2.08 6.57-4.1-7.26-10.2-13.56-16.38-18.77a114.86 114.86 0 0 0-13.33-9.33c-2.69-1.69-6-3.77-9.4-4.33a20.31 20.31 0 0 0 7.3-4c5.28-4.59 8.18-12.38 5.41-18.59 2.18.13 4.36 0 6.56.08s4.41.56 6.64.64c.36 5.72 1.9 11.38 2.62 17.07.64 5.21 1.12 10.56 2 15.72s4.7 9.92 6.5 14.94z"/><path class="cls-3" d="M128 133.31a.59.59 0 0 0 .35 0c-6.48 7-19.86 9.72-30.68 8a.34.34 0 0 0-.28-.54c-.92 0-1.82-.07-2.74-.07a24.82 24.82 0 0 1-7.33-3 28.14 28.14 0 0 1-13.08-19.25 67.81 67.81 0 0 1-.87-12c0-2.67.13-5.33.21-8 0-.57-.13-1.93-.16-3.11.23-.28.44-.56.65-.87.17 12.33-1.9 25.92 6.48 36.3 8.23 10.2 20 10.87 32 8.77 4.56-.83 11.61-2.82 15.3-6.31z"/><path class="cls-1" d="M128.06 96.83a.84.84 0 0 1-.23 1.33l-.18-.43a3.64 3.64 0 0 1 .41-.9z"/><path class="cls-3" d="M127.34 133.13c.21.07.41.1.59.15-3.69 3.49-10.74 5.48-15.3 6.31-12 2.1-23.81 1.43-32-8.77-8.38-10.38-6.31-24-6.48-36.3.12-.2.23-.38.33-.59 1.33 14.95-2.51 33.94 13.74 42.37 10.44 5.46 29.26 4.77 39.12-3.17z"/><path class="cls-1" d="M127.83 98.16a.43.43 0 0 1-.41 0 1.77 1.77 0 0 1 .23-.48z"/><path class="cls-3" d="M128 132.59a5.66 5.66 0 0 1-.67.54 119.21 119.21 0 0 1-11.92-3.49c-2.25-.79-2.92-3.31-3.35-5.41-1.13-5.56-3.31-10.84-4.69-16.35a147.73 147.73 0 0 0-4.49-15.79 1.64 1.64 0 0 0 .38-.1 77 77 0 0 1 4.26 13.43c1.33 5.33 3.13 10.51 4.79 15.77.57 1.79.9 5.58 2.31 6.84 1.72 1.56 6 1.61 8.18 2.49 1.75.66 3.47 1.58 5.2 2.07z"/><path class="cls-1" d="M127.65 97.7a1.77 1.77 0 0 0-.23.48.49.49 0 0 1-.31-.1c-1.1-1.18-2.38-1.28-3.87-.31.49.77 1 1.52 1.41 2.26a7.7 7.7 0 0 1 .95 2.56c.41 1.72-.82 3.8-1.43 5.62l-1.08.54c.29-2 2.08-3.9 1.87-6-.23-2.56-2.82-4.46-3.3-7 2.12-.69 4.23.49 5.89 1.67zM124.14 108.24a3.69 3.69 0 0 0-.26 1l-.43.21c-.16-.08-.28-.16-.44-.23v-.41z"/><path class="cls-1" d="M123.88 109.21a1.18 1.18 0 0 0-.07.41 3.24 3.24 0 0 1-.36-.2zM123.45 109.42c-.16.07-.28.15-.41.2a2.08 2.08 0 0 1 0-.43c.13.07.25.15.41.23zM123.06 108.78v.41a2.24 2.24 0 0 0-.36-.21c.08-.08.23-.13.36-.2z"/><path class="cls-3" d="M122 73a29.91 29.91 0 0 1 0 4.15h-.48a17.85 17.85 0 0 0-.13-2c-.41-3.77.56-7.56-.2-11.33A77.46 77.46 0 0 0 117 49.77c.29.26.54.51.82.79C121.24 58 121.63 64.87 122 73z"/><path class="cls-3" d="M121.93 77.12c0 .36-.07.72-.12 1.07h-.41v-1c.2-.05.36-.05.53-.07zM121.81 78.19c0 .34-.11.67-.18 1a2.42 2.42 0 0 1-.41 0c.07-.31.13-.59.18-.93z"/><path class="cls-3" d="M121.4 78.19c-.05.34-.11.62-.18.93a1.4 1.4 0 0 1-1.1-.64.43.43 0 0 1-.06-.18 2.55 2.55 0 0 0 .13-.51v-.06a2.05 2.05 0 0 1 1.23-.56c.03.36 0 .69-.02 1.02z"/><path class="cls-3" d="M121.32 75.22a17.85 17.85 0 0 1 .13 2 2.05 2.05 0 0 0-1.23.56 33.33 33.33 0 0 0 .43-11.56c-.71-5.69-2.48-11.2-4.12-16.66a.3.3 0 0 1 0-.23c.15.16.33.31.48.49a77.46 77.46 0 0 1 4.11 14.12c.76 3.72-.21 7.51.2 11.28zM121.22 79.12a2.42 2.42 0 0 0 .41 0 10.86 10.86 0 0 1-5.21 7 46.9 46.9 0 0 1-12.79 5.71 4.34 4.34 0 0 0-.25-.54c-.18-.33-.8-.1-.64.29l.15.43c-6 1.48-12.12 1.51-16.28-2a5 5 0 0 0 .67 0c5.15 3.56 13.84 1.54 19.15-.15 4.87-1.54 10.28-3.87 13.38-8.1a8 8 0 0 0 1.41-2.64z"/><path class="cls-6" d="M120.65 66.17a33.33 33.33 0 0 1-.43 11.56v.06c0 .06 0 0-.07.07a.52.52 0 0 0-.06.44 12.07 12.07 0 0 1-3.15 5.61c-6.2 6-19.92 9.51-28.35 6.15 8-.92 13.79-11.2 14.64-18.63a17.1 17.1 0 0 0 8.61-18.77c-.13-.51-.87-.28-.79.23 1.76 9.26-4.77 15.69-12.77 18.77a1.5 1.5 0 0 0-.26.15c-.79-2.84.06-6.94-.41-9.84A77.08 77.08 0 0 0 93.69 47c-.13-.39-.75-.24-.62.18a91.5 91.5 0 0 1 3.08 13.12h-.16c0-.28-.17-.59-.51-.56-10.82.41-18.63-7.61-18.89-18.33a.41.41 0 1 0-.82 0 21.78 21.78 0 0 0 1.46 8c-.46 1.79-.92 3.61-1.36 5.43a8.78 8.78 0 0 0-.3 2c-4.8-6-7.28-13.94-3.21-21.15 3.69-.18 7.33-1.69 11-3.07 1.64-.62 3.18-1.05 4.66-1.49 8.21.23 18.1 9.23 24.12 14.18 1.52 1.25 3 2.53 4.34 3.89a.3.3 0 0 0 0 .23c1.69 5.57 3.46 11.05 4.17 16.74z"/><path class="cls-3" d="M120.12 78.48a1.4 1.4 0 0 0 1.1.64 8 8 0 0 1-1.41 2.77c-3.1 4.23-8.51 6.56-13.38 8.1-5.31 1.69-14 3.71-19.15.15a11 11 0 0 0 1.28-.08c8.43 3.36 22.15-.18 28.35-6.15a12.07 12.07 0 0 0 3.15-5.61.43.43 0 0 0 .06.18z"/><path class="cls-3" d="M120.12 77.86l.07-.07a2.55 2.55 0 0 1-.13.51.52.52 0 0 1 .06-.44zM117 49.77c-.15-.18-.33-.33-.48-.49a.38.38 0 0 1 .66-.05c.23.44.44.9.64 1.33-.27-.28-.52-.56-.82-.79zM117.5 8.19a.16.16 0 0 1 0 .21c.03-.08 0-.13 0-.21zM116.71 8.17c0-.13.18-.23.33-.26a3.82 3.82 0 0 1 .36.21.06.06 0 0 1 .06.05v.21a.21.21 0 0 1-.23.18h-.18a2.12 2.12 0 0 1-.44 0 .61.61 0 0 1 0-.23.17.17 0 0 1 .1-.16zM117.48 8.14a.06.06 0 0 0-.06-.05 3.82 3.82 0 0 0-.36-.21.42.42 0 0 1 .42.26z"/><path class="cls-7" d="M115.42 129.64a119.21 119.21 0 0 0 11.92 3.49c-9.86 7.94-28.68 8.63-39.16 3.17-16.25-8.43-12.41-27.42-13.74-42.37a9.32 9.32 0 0 0 .72-7.61c4.94 1.23 12 2.41 17 .74a15.29 15.29 0 0 1-5.36 2.16l-.13-.08a.44.44 0 0 0-.58.21h-.13A.35.35 0 0 0 86 90l.66.07c4.16 3.49 10.33 3.46 16.28 2a147.73 147.73 0 0 1 4.49 15.79c1.38 5.51 3.56 10.79 4.69 16.35.38 2.12 1.05 4.64 3.3 5.43z"/><path class="cls-3" d="M117 7.88c-.15 0-.31.13-.33.26-4.28-1.2-9-.9-13.51-.87a2.42 2.42 0 0 0-.31-.57c4.27-.38 10.35-.97 14.15 1.18z"/><path class="cls-3" d="M116.71 8.14a.17.17 0 0 0-.06.15.61.61 0 0 0 0 .23c-2.23-.08-4.41-.61-6.64-.64s-4.38 0-6.56-.08c-.1-.2-.18-.38-.28-.56 4.49 0 9.26-.3 13.54.9zM102.56 70.76a.27.27 0 0 0-.16.16L102 72a13.56 13.56 0 0 1-3.44.94.58.58 0 0 1-.51-.15.46.46 0 0 0 .05-.41 3.89 3.89 0 0 1-.13-.54 1.5 1.5 0 0 1 .26-.15c8-3.08 14.53-9.51 12.77-18.77-.08-.51.66-.74.79-.23a17.1 17.1 0 0 1-8.61 18.77 2.87 2.87 0 0 0 0-.41.37.37 0 0 0-.44-.41.17.17 0 0 0-.15.08c-.01-.03-.06-.01-.03.04zM103.27 92a1.64 1.64 0 0 1-.38.1l-.15-.43c-.16-.39.46-.62.64-.29a4.34 4.34 0 0 1 .25.54 1.45 1.45 0 0 1-.36.08zM103.48 7.83c2.77 6.21-.13 14-5.41 18.59a20.31 20.31 0 0 1-7.3 4 9.76 9.76 0 0 0-1.7-.15c9.72-1.95 17.69-14.15 13.64-22.43.29-.01.51-.01.77-.01z"/><path class="cls-3" d="M103.2 7.27c.1.18.18.36.28.56h-.77a6 6 0 0 0-.49-.9.6.6 0 0 1 .39-.18h.28a2.42 2.42 0 0 1 .31.52zM102.66 71.71a6.11 6.11 0 0 1-.66.29l.38-1a.27.27 0 0 1 .16-.16.14.14 0 0 0 .1-.07.17.17 0 0 1 .15-.08.37.37 0 0 1 .44.41 2.87 2.87 0 0 1 0 .41c-.23.02-.39.12-.57.2z"/><path class="cls-3" d="M102.71 7.81c4.05 8.28-3.92 20.48-13.64 22.43H89a7.83 7.83 0 0 0-1.08.07.69.69 0 0 0-.36.21c-5.2 1.1-9.94 4.18-15 4.56a.62.62 0 0 0-1.13-.23l-.15.28a11.57 11.57 0 0 1-5.69-1.59.57.57 0 0 0-.67-.38.53.53 0 0 1 .7-.28c8.15 2.92 16-1.36 23.86-3.67 5.66-1.69 10.87-6.3 12.61-12.07 2.08-7-1.77-16-10.48-15.43A16.6 16.6 0 0 0 79 9.06a.57.57 0 0 0-.54-.3C82 3.48 89-.52 95.05 1.6a13.12 13.12 0 0 1 7.17 5.31.55.55 0 0 0 .39.9z"/><path class="cls-3" d="M102.89 6.7h-.28a.6.6 0 0 0-.39.18 13.12 13.12 0 0 0-7.17-5.28C89-.52 82 3.48 78.44 8.76a.22.22 0 0 0-.11 0c-.2.05-.41.1-.64.18 4.82-7.64 15.46-12.2 23-5.07a12.09 12.09 0 0 1 2.2 2.83zM102.66 71.71c.18-.08.36-.18.54-.28-.85 7.43-6.59 17.71-14.64 18.63a21.5 21.5 0 0 1-1-.43c8.1-.85 13.44-10.85 15.1-17.92zM102.71 7.81h-.1a.55.55 0 0 1-.39-.9 6 6 0 0 1 .49.9zM102.66 70.69a.14.14 0 0 1-.1.07c-.03-.05.02-.07.1-.07z"/><path class="cls-3" d="M102 72a6.11 6.11 0 0 0 .64-.26c-1.64 7.07-7 17.07-15.07 17.92-.26-.13-.52-.26-.77-.41a15.29 15.29 0 0 0 5.36-2.16 9.19 9.19 0 0 0 2.07-.92.46.46 0 0 0 0-.77C98 81.94 100.22 76.86 102 72z"/><path d="M91.64 1.71c8.71-.59 12.56 8.48 10.48 15.43-1.74 5.77-7 10.38-12.61 12.07-7.82 2.31-15.71 6.59-23.86 3.67a.53.53 0 0 0-.7.28h-.18C52.55 38.85 40.45 47.74 29.94 56.1a143.72 143.72 0 0 0-15.79 15c-2.56 2.77-5.26 5.38-7.69 8.25C5 81.09 4 84 1.67 84.83 7.59 74.38 17.81 65 26.38 56.87c11.38-10.84 23.94-19.1 37-27.61a.44.44 0 0 0 .21-.51.36.36 0 0 0 .51-.1c1.41-2.75 2.82-5 5.36-6.85A36.26 36.26 0 0 1 76 18.44c2.48 6 11.89 9.31 13.17 2.16a.41.41 0 0 0-.74-.34c-1.75 2.65-3.92 3.52-6.51 2.59-5.54-1.23-5.59-8-3.8-12.12.11-.26.23-.49.34-.72a1.66 1.66 0 0 0 .35-.13.52.52 0 0 0 .19-.82 16.6 16.6 0 0 1 12.64-7.35z" fill="#9e7642"/><path class="cls-9" d="M98.58 72.91A13.56 13.56 0 0 0 102 72c-1.8 4.89-4 10-7.72 13.4a.49.49 0 0 0-.41-.13 49.25 49.25 0 0 1-10.28.88c-3-.16-5.94-.82-8.94-.77a6.18 6.18 0 0 0-2.23-2.23 7.07 7.07 0 0 0-7.67.38A65.26 65.26 0 0 0 57.57 76c-2.49-2.34-4.74-5-7.3-7.23 3.79-11.39 10.28-22.15 19.43-29.9-2 6.87 0 15.64 6.07 19.41a2.56 2.56 0 0 0 .36.72.27.27 0 0 0 .48 0 1.42 1.42 0 0 0 0-.16.16.16 0 0 0 .2-.26.53.53 0 0 1-.12-.15c.33-1.41.3-3 .59-4.38.2-1 .46-1.92.56-2.9 3.2 6.51 9.66 11 17.66 9.74.28 0 .38-.26.38-.49h.16c.18 1.15.33 2.33.46 3.49.28 2.79-.64 6.38.49 9 .18.43.77.3 1 0a.58.58 0 0 0 .59.02zm-10 3c3.74 2.77 6.2-8.71 4.15-11.17-1.77-2.1-4.26.9-4.82 2.41-1 2.59-1 6.25.49 8.66 0 .08.1.08.15.08zM66 58.66c.74-1.82.2-5.74-2.62-4.2-3.35 1.84-5 6.95-4.51 10.59a.58.58 0 0 0 .62.48.93.93 0 0 0 .67.85c.76.31 1.51-.41 2-.92a23.6 23.6 0 0 0 3.84-6.8z"/><path class="cls-3" d="M98.12 72.35a.46.46 0 0 1-.05.41.6.6 0 0 1-.08-1 3.89 3.89 0 0 0 .13.59z"/><path class="cls-3" d="M98 71.81a.6.6 0 0 0 .08 1c-.2.33-.79.46-1 0-1.13-2.59-.21-6.18-.49-9-.13-1.16-.28-2.34-.46-3.49a91.5 91.5 0 0 0-3.08-13.12c-.13-.42.49-.57.62-.18A77.08 77.08 0 0 1 97.58 62c.47 2.87-.38 7 .42 9.81zM96.76 141.12a16.85 16.85 0 0 1-2.07-.43c.92 0 1.82 0 2.74.07a.34.34 0 0 1 .28.54 9.39 9.39 0 0 1-.95-.18z"/><path class="cls-3" d="M97.71 141.3a.43.43 0 0 1-.28.16c-13.79.87-27.73 3-41.52 1.15-6.77-.92-22-1-26-8-1-1.71.13-3.82 1.67-4.71.56-.34 2.82-1.23 4.13-1.93a4.06 4.06 0 0 0 1.38.39.32.32 0 0 0 .18 0c-.67.9-2.77 1-3.79 1.49-2.57 1.23-4.54 3.46-1.52 5.61 4.44 3.16 9.05 3.82 14.31 4.75 8.12 1.4 16 2.53 24.3 2.23 8.74-.34 17.48-1.23 26.24-1.29a9.39 9.39 0 0 0 .9.15zM77.54 49.08a.36.36 0 0 0-.26.25 1 1 0 0 1 0 .16 21.78 21.78 0 0 1-1.46-8 .41.41 0 1 1 .82 0c.26 10.72 8.07 18.74 18.89 18.33.34 0 .51.28.51.56s-.1.47-.38.49c-8 1.28-14.46-3.23-17.66-9.74a5.19 5.19 0 0 0 .08-.9 4.82 4.82 0 0 0 0-.76.42.42 0 0 0-.54-.39z"/><path class="cls-3" d="M94.69 140.69a16.85 16.85 0 0 0 2.07.43c-8.76.06-17.5.95-26.24 1.29-8.28.3-16.18-.83-24.3-2.23-5.26-.93-9.87-1.59-14.31-4.75-3-2.15-1.05-4.38 1.52-5.61 1-.49 3.12-.59 3.79-1.49a.34.34 0 0 0 .2-.36c.49-1.31.29-4.15.54-5.33 1.62-8 5.82-14.74 9.41-21.92 1.1-2.23 2.82-4.64 3.61-7l.39.23c-3 9.33-9.85 17.13-12.07 26.81-.54 2.39 0 5.93-1.31 8.1-.67 1.13-10.15 3.7-3.92 6.9 9 4.61 21.58 5.69 31.52 5.79 9.69.06 19.41-1.04 29.1-.86z"/><path class="cls-5" d="M94.69 140.69c-9.72-.18-19.41.92-29.1.79-9.94-.1-22.53-1.18-31.52-5.79-6.23-3.2 3.25-5.77 3.92-6.9 1.28-2.17.77-5.71 1.31-8.1 2.22-9.68 9.09-17.48 12.07-26.81 3.13 1.85 7.07 2.67 9.79.8a.16.16 0 0 0 .1-.16h.1c1.13 2.39 3.31 4.1 6.18 3.36a5.75 5.75 0 0 0 5.92-2.44c0 1.18.16 2.54.16 3.11-.08 2.64-.16 5.3-.21 8a67.81 67.81 0 0 0 .87 12 28.14 28.14 0 0 0 13.08 19.25 24.82 24.82 0 0 0 7.33 2.89z"/><path class="cls-3" d="M93.82 85.78a2.91 2.91 0 0 0 .48-.41.46.46 0 0 1 0 .77 9.19 9.19 0 0 1-2.07.92 13 13 0 0 0 1.59-1.28z"/><path class="cls-3" d="M94.3 85.37a2.91 2.91 0 0 1-.48.41c-5.46 2.1-13.18.67-18.92 0a1.49 1.49 0 0 0-.23-.43c3 0 6 .61 8.94.77a49.25 49.25 0 0 0 10.28-.88.49.49 0 0 1 .41.13z"/><path class="cls-3" d="M93.82 85.78a13 13 0 0 1-1.64 1.28c-5 1.67-12.08.49-17-.74-.08-.18-.16-.36-.26-.54 5.72.67 13.44 2.1 18.9 0zM91.82 64.87c2.76.69.33 12.25-2.95 10.53l-.21.21a5.13 5.13 0 0 1-.18-.64.64.64 0 0 1 .54-.16c3 .56 4.62-9 2.64-9.38-3.48-.61-3.79 6.57-3.18 9.57a.51.51 0 0 0-.15.3c-.97-2.87-.74-11.43 3.49-10.43z"/><path class="cls-3" d="M88.87 75.4c3.28 1.72 5.71-9.84 2.95-10.53-4.23-1-4.46 7.56-3.49 10.4a.64.64 0 0 0 .23.62s-.13 0-.15-.08C87 73.4 87 69.74 87.92 67.15c.56-1.51 3-4.51 4.82-2.41 2.05 2.46-.41 13.94-4.15 11.17.08 0 .15-.1.13-.18s0 0 0-.08z"/><path class="cls-3" d="M91.66 65.43c2 .36.41 9.94-2.64 9.38a.64.64 0 0 0-.54.16c-.61-2.97-.3-10.15 3.18-9.54zM89.56 30.77c-.49.16-1 .29-1.49.44h-.15a.43.43 0 0 1-.36-.69c.33-.08.67-.13 1-.18a3.93 3.93 0 0 0 .44-.1h.07a9.76 9.76 0 0 1 1.7.15l-1.18.38h-.03zM76.49 18.24c.48-.23.25-.87-.21-1a10.23 10.23 0 0 1 .54-5.36 12.08 12.08 0 0 1 .67-1.48 7.61 7.61 0 0 0 1-.39c-.11.23-.23.46-.34.72-1.79 4.07-1.74 10.89 3.8 12.12 2.59.93 4.76.06 6.51-2.59a.41.41 0 0 1 .74.34c-1.33 7.15-10.74 3.89-13.2-2.16a3.26 3.26 0 0 0 .48-.2z"/><path class="cls-3" d="M89 30.24a3.93 3.93 0 0 1-.44.1c-.33.05-.67.1-1 .18a.69.69 0 0 1 .36-.21 7.83 7.83 0 0 1 1.08-.07zM88.69 75.71c0 .08 0 .15-.13.18a.64.64 0 0 1-.23-.62 3.4 3.4 0 0 0 .21.46l.12-.1s.03.05.03.08z"/><path class="cls-3" d="M88.66 75.61l-.12.1a3.4 3.4 0 0 1-.21-.46.51.51 0 0 1 .15-.3 5.13 5.13 0 0 0 .18.66zM88.56 90.06a11 11 0 0 1-1.28.08c-.18-.13-.38-.28-.56-.44a4.94 4.94 0 0 0 .87-.07c.3.15.64.3.97.43zM87.92 31.21h.15c-1.48.44-3 .87-4.66 1.49-3.72 1.38-7.36 2.89-11 3.07a1.46 1.46 0 0 1 .16-.3.55.55 0 0 0 .07-.39c5-.38 9.77-3.46 15-4.56a.43.43 0 0 0 .28.69z"/><path class="cls-3" d="M86.72 89.7h-.59a.39.39 0 0 1 0-.35c.25 0 .48-.08.71-.13.25.15.51.28.77.41a4.94 4.94 0 0 1-.89.07z"/><path class="cls-3" d="M86.72 89.7c.18.16.38.31.56.44a5 5 0 0 1-.67 0 3.65 3.65 0 0 1-.43-.35l-.05-.06zM86.66 89.14l.13.08c-.23 0-.46.1-.71.13a.44.44 0 0 1 .58-.21z"/><path class="cls-3" d="M86.13 89.7l.05.06a3.65 3.65 0 0 0 .43.35L86 90a.35.35 0 0 1 0-.67h.13a.39.39 0 0 0 0 .37zM79 9.06a.52.52 0 0 1-.19.82 1.66 1.66 0 0 1-.35.13c.16-.33.33-.64.54-.95z"/><path class="cls-3" d="M78 9.55c.15-.26.33-.54.49-.79a.57.57 0 0 1 .54.3c-.19.31-.36.62-.54.95a7.61 7.61 0 0 1-1 .39 6.4 6.4 0 0 1 .51-.85zM78.33 8.78a.22.22 0 0 1 .11 0c-.16.25-.34.53-.49.79-.26.1-.51.18-.77.26a6.83 6.83 0 0 1 .51-.83c.23-.12.44-.17.64-.22zM78 49.44a4.82 4.82 0 0 1 0 .76c-.18-.36-.34-.74-.49-1.12a.42.42 0 0 1 .49.36zM77.56 50.26c-.12-.26-.23-.52-.33-.77a1 1 0 0 0 0-.16.36.36 0 0 1 .26-.25c.15.38.31.76.49 1.12a5.19 5.19 0 0 1-.08.9z"/><path class="cls-3" d="M77.18 9.81c.26-.08.51-.16.77-.26a6.4 6.4 0 0 0-.46.85 6.12 6.12 0 0 1-.8.3c.16-.3.31-.59.49-.89zM77.56 50.26l.39.84c-.1 1-.36 1.92-.56 2.9-.29 1.41-.26 3-.59 4.38-.18-.18-.36-.38-.52-.56-.15-2.51.93-5.05 1.28-7.56z"/><path class="cls-3" d="M76.69 10.7a6.12 6.12 0 0 0 .8-.3 12.08 12.08 0 0 0-.67 1.48 10.23 10.23 0 0 0-.54 5.36.47.47 0 0 0-.38 0l-.28.12a7.43 7.43 0 0 1 0-4 16.41 16.41 0 0 1 1.07-2.66zM77.23 49.49c.1.25.21.51.33.77-.35 2.51-1.43 5.05-1.28 7.56a15.6 15.6 0 0 1-.71-.9 8.78 8.78 0 0 1 .3-2c.44-1.82.9-3.64 1.36-5.43z"/><path class="cls-3" d="M77.18 9.81c-.18.3-.33.59-.49.89-6.23 2.36-12.48 3.59-18 7.74.08-.17 0-.35-.28-.38h-.51a.45.45 0 0 1 .13-.49C63 12.52 71 10.7 77.69 9a6.83 6.83 0 0 0-.51.81zM76.74 58.61a.56.56 0 0 0 .06-.21.53.53 0 0 0 .12.15.16.16 0 0 1-.2.26.88.88 0 0 0 .02-.2z"/><path class="cls-3" d="M76.8 58.38a.56.56 0 0 1-.06.21 2.31 2.31 0 0 1-.43-.31 2.42 2.42 0 0 1 0-.46c.13.18.31.38.49.56z"/><path class="cls-3" d="M76.74 58.59a.88.88 0 0 1 0 .15l-.33-.15a.7.7 0 0 1 0-.31 2.31 2.31 0 0 0 .33.31z"/><path class="cls-3" d="M76.36 58.61l.33.15a1.42 1.42 0 0 1 0 .16.27.27 0 0 1-.48 0 2.56 2.56 0 0 1-.36-.72 5 5 0 0 0 .56.31l-.05.1zM76.28 17.24c.46.1.69.74.21 1a4.41 4.41 0 0 1-.21-1z"/><path class="cls-3" d="M75.8 17.93a3.8 3.8 0 0 1-.18-.54l.28-.12a.47.47 0 0 1 .38 0 4.41 4.41 0 0 0 .21 1 3.26 3.26 0 0 1-.48.2 2.55 2.55 0 0 1-.21-.54zM76.36 58.59a5 5 0 0 1-.56-.31 5.29 5.29 0 0 1-.13-.54 6.34 6.34 0 0 0 .67.54.7.7 0 0 0 .02.31z"/><path class="cls-3" d="M76.28 57.82a2.42 2.42 0 0 0 0 .46 6.34 6.34 0 0 1-.67-.54 6.84 6.84 0 0 1-.05-.79c.24.28.44.58.72.87z"/><path class="cls-5" d="M76.69 10.7a16.41 16.41 0 0 0-1 2.72 7.43 7.43 0 0 0 0 4c-3.69 1.67-7.49 3.52-10 6.59a.55.55 0 0 0-.23-.1 103.53 103.53 0 0 0-36.78 0A62.09 62.09 0 0 1 36.94 21c7-1.72 14.3-1.54 21.4-2.26a.29.29 0 0 0 .28-.23c5.59-4.22 11.84-5.45 18.07-7.81z"/><path class="cls-3" d="M65.59 24.93a.06.06 0 0 0 .06-.05.56.56 0 0 0 .17-.26c2.41-3.28 5.85-4.85 10-6.67a2.55 2.55 0 0 0 .18.51 36.26 36.26 0 0 0-6.49 3.36c-2.54 1.82-3.95 4.1-5.36 6.85a.36.36 0 0 1-.51.1.44.44 0 0 0-.15-.23.14.14 0 0 1 0-.18A11.12 11.12 0 0 1 64.93 25h.18a.52.52 0 0 0 .48-.07z"/><path class="cls-3" d="M75.62 17.39a3.8 3.8 0 0 0 .18.54c-4.13 1.82-7.57 3.39-10 6.67a.54.54 0 0 0-.15-.62c2.48-3.07 6.28-4.92 9.97-6.59zM75.64 57.74a5.29 5.29 0 0 0 .13.54c-6.1-3.77-8-12.54-6.07-19.41a6.83 6.83 0 0 1 .74-.61c-2.26 6.56.18 15.1 5.18 19.45z"/><path class="cls-3" d="M75.57 56.92a6.84 6.84 0 0 0 .05.79c-5-4.35-7.44-12.89-5.18-19.45a1.46 1.46 0 0 1 .23-.21.45.45 0 0 0 .08-.61 13.35 13.35 0 0 1 .84-1.64 6.52 6.52 0 0 0 .77 0c-4.07 7.2-1.59 15.1 3.21 21.12zM75.16 86.32a9.32 9.32 0 0 1-.72 7.61c0-.36 0-.71-.1-1.05a8.84 8.84 0 0 0 0-6.76c.28.05.53.12.82.2z"/><path class="cls-3" d="M74.9 85.78c.1.18.18.36.26.54-.29-.08-.54-.15-.8-.2a2.76 2.76 0 0 0-.33-.64.27.27 0 0 1 .25-.13h.39a1.49 1.49 0 0 1 .23.43z"/><path class="cls-3" d="M74.67 85.35h-.39a.27.27 0 0 0-.25.13c-1-1.72-3-2.8-6-2.49-8.53 1-8.63 13.79-1.51 14.48a4.85 4.85 0 0 0 1.05.36c-2.87.74-5.05-1-6.18-3.36a8.71 8.71 0 0 1-.56-5.71 9.14 9.14 0 0 1 3.62-5l.35.23c.18.1.31-.1.18-.25a.61.61 0 0 0-.18-.21 7.07 7.07 0 0 1 7.67-.38 6.18 6.18 0 0 1 2.2 2.2z"/><path class="cls-3" d="M74.36 86.12a8.84 8.84 0 0 1 0 6.76v-.25a.23.23 0 0 0-.44-.06c-.1.29-.2.6-.28.88a.08.08 0 0 0 .13.07 1.9 1.9 0 0 0-.23 1 5.66 5.66 0 0 1-5.44 2.87.2.2 0 0 0-.17-.18 7.65 7.65 0 0 1-3-1.15c3.39 1.2 6.85.79 8.54-2.72 1.28-2.64 1.66-7.12-1.28-8.89-7.52-4.56-13.41 7.38-7.34 11.55-.15 0-.26.26-.13.36a7.6 7.6 0 0 0 1.77 1.13C59.37 96.78 59.47 84 68 83c3-.31 5 .77 6 2.49a.33.33 0 0 0 .15.58 1.25 1.25 0 0 0 .21.05zM74.44 93.93c-.1.21-.21.39-.33.59v-1.1c.1-.18.18-.36.26-.54.02.34.04.69.07 1.05z"/><path class="cls-3" d="M74.36 86.12a1.25 1.25 0 0 1-.18-.06.33.33 0 0 1-.15-.58 2.76 2.76 0 0 1 .33.64zM74.08 93.42a5.36 5.36 0 0 1-.59 1 1.9 1.9 0 0 1 .23-1 .08.08 0 0 1-.13-.07c.08-.28.18-.59.28-.88a.23.23 0 0 1 .44.06v.25c0 .07-.13.46-.23.64z"/><path class="cls-3" d="M74.08 93.42v1.1c-.21.31-.42.59-.65.87a5.47 5.47 0 0 1 0-.92 5.36 5.36 0 0 0 .65-1.05z"/><path d="M72.16 84.4c2.94 1.77 2.56 6.25 1.28 8.89-1.69 3.51-5.15 3.92-8.54 2.71h-.05c-6.07-4.17-.18-16.11 7.31-11.6z" fill="#42beec"/><path class="cls-3" d="M73.49 94.47a5.47 5.47 0 0 0 0 .92 5.75 5.75 0 0 1-5.92 2.44 1.4 1.4 0 0 0 .34-.08.31.31 0 0 0 .17-.41 5.66 5.66 0 0 0 5.41-2.87zM71.59 35.8a4.86 4.86 0 0 1-.66 0c.12-.23.25-.43.38-.64.44 0 .87 0 1.28-.05a.55.55 0 0 1-.07.39 1.46 1.46 0 0 0-.16.3 6.52 6.52 0 0 1-.77 0zM72.59 35.08c-.41 0-.84.05-1.28.05l.15-.28a.62.62 0 0 1 1.13.23z"/><path class="cls-3" d="M70.93 35.77a4.86 4.86 0 0 0 .66 0 13.35 13.35 0 0 0-.84 1.64.55.55 0 0 0-.46-.31c.2-.43.41-.89.64-1.33zM71.31 35.13c-.13.21-.26.41-.38.64a12.12 12.12 0 0 1-5.54-1.61.49.49 0 0 0 .23-.62 11.57 11.57 0 0 0 5.69 1.59zM70.75 37.44a.45.45 0 0 1-.08.61 1.46 1.46 0 0 0-.23.21c.1-.26.2-.54.31-.82z"/><path class="cls-3" d="M70 37.87c.11-.25.18-.48.29-.74a.55.55 0 0 1 .46.31c-.11.28-.21.54-.31.82a6.83 6.83 0 0 0-.74.61c.07-.33.2-.64.3-1z"/><path class="cls-6" d="M70.93 35.77c-.23.44-.44.9-.64 1.36a.52.52 0 0 0-.26.08C58.8 44.33 51.19 58 48.52 70.86c-.61-1.38-1.43-2.71-2-4.15a.53.53 0 0 0 0-.36C44 61.79 42.09 55.59 38.22 52c8.78-6.44 18.2-12.18 27.14-17.82a12.12 12.12 0 0 0 5.57 1.59z"/><path class="cls-3" d="M70.29 37.13c-.11.26-.18.49-.29.74-9.07 6.26-17 19.35-20.3 30.53a.3.3 0 0 0-.23.46s.05.08.08.1c-.28.9-.51 1.8-.69 2.64-.11-.25-.21-.51-.34-.77C51.19 58 58.8 44.33 70 37.21a.52.52 0 0 1 .29-.08z"/><path class="cls-3" d="M70 37.9c-.1.33-.23.64-.3 1-9.15 7.75-15.64 18.51-19.43 29.92l-.27-.31a.25.25 0 0 0-.26-.08C53 57.25 60.93 44.16 70 37.9zM68.05 97.34a.31.31 0 0 1-.17.41 1.4 1.4 0 0 1-.34.08 4.85 4.85 0 0 1-1.05-.36 7.6 7.6 0 0 1-1.77-1.13c-.13-.1 0-.36.13-.36h.05a7.65 7.65 0 0 0 3 1.15.2.2 0 0 1 .15.21zM63.41 54.46c2.82-1.54 3.36 2.38 2.62 4.2a23.6 23.6 0 0 1-3.87 6.8c-.46.51-1.21 1.23-2 .92a.93.93 0 0 1-.67-.85.61.61 0 0 0 .61-.38c.7 2.69 5.31-5.9 5.62-7.36.69-3.64-1.54-4.15-3.8-1.38-1.71 2.23-2.4 5.69-2.4 8.46h.07a1.57 1.57 0 0 0-.1.69.58.58 0 0 1-.62-.48c-.48-3.67 1.19-8.78 4.54-10.62zM65.67 24a.54.54 0 0 1 .15.62.77.77 0 0 0-.17.26.06.06 0 0 1-.06.05.52.52 0 0 1-.48.1h-.18a9.24 9.24 0 0 1 .74-1.03z"/><path class="cls-3" d="M62 56.41c2.26-2.77 4.49-2.26 3.8 1.38-.31 1.46-4.92 10.05-5.62 7.36 0 0 .06-.05.06-.1 0-.21.07-.41.1-.62l.07.08c0-.11.29.23.42.33-.18.18.07.1 0 0l.07-.08a9.19 9.19 0 0 0 1.41-1.64 26.83 26.83 0 0 0 2.46-4.25 5 5 0 0 0 .64-2.13c0-2.74-2.41-1-3.18.36-1.38 2.33-1.51 4.77-1.89 7.33a.35.35 0 0 0-.59.15c0 .08-.05.16-.08.26h-.07c-.05-2.74.64-6.2 2.4-8.43zM65.65 24.88a.77.77 0 0 1 .17-.26.56.56 0 0 1-.17.26zM65.62 33.54a.49.49 0 0 1-.23.62c-.08 0-.16-.08-.23-.13a.71.71 0 0 1-.23-.26.66.66 0 0 1 0-.61.57.57 0 0 1 .69.38zM25.3 25.11c1.13-.38 2.26-.8 3.36-1.23a103.53 103.53 0 0 1 36.78 0 .55.55 0 0 1 .23.1 9.24 9.24 0 0 0-.74 1c-1.69-.34-3.39-.59-5.05-.77a.35.35 0 0 0-.28-.51 8.2 8.2 0 0 0-2.87.23c-11.39-.75-22.38 1.18-33.92 1.87.85-.18 1.67-.41 2.49-.69z"/><path class="cls-3" d="M65.39 34.16C56.42 39.82 47 45.56 38.22 52a2.33 2.33 0 0 0-.36-.34c8.89-6.17 17.48-12.74 27.07-17.84a.71.71 0 0 0 .23.26c.07 0 .15.03.23.08zM64.59 83.6c.06 0 .11-.1.18-.1a.61.61 0 0 1 .18.21c.13.15 0 .35-.18.25l-.35-.23a.55.55 0 0 1 .17-.13zM65.36 56.74a5 5 0 0 1-.64 2.13 26.83 26.83 0 0 1-2.46 4.25 9.19 9.19 0 0 1-1.41 1.64l-.07.08c-.13-.1-.47-.44-.42-.33l-.07-.08c.38-2.56.51-5 1.89-7.33.82-1.33 3.18-3.1 3.18-.36z"/><path class="cls-3" d="M65 33.16a.66.66 0 0 0 0 .61c-9.59 5.1-18.18 11.67-27.07 17.84a3.92 3.92 0 0 0-.31-.28.27.27 0 0 0-.41.33c0 .11.13.21.18.31a9.55 9.55 0 0 1-.9.62v-.05a.1.1 0 0 0-.2 0 1.55 1.55 0 0 0 0 .23l-2.05 1.39c-7.26 4.89-13.41 11.2-19.43 17.5-2.59 2.7-5.46 5.26-7.79 8.13-1.08 1.26-3.49 5.79-5.62 5.72a4.09 4.09 0 0 1 .39-.7C4 84 5 81.09 6.46 79.37c2.43-2.87 5.13-5.48 7.69-8.25a143.72 143.72 0 0 1 15.79-15c10.51-8.36 22.61-17.25 34.83-22.92.08-.04.13-.07.23-.04zM64.77 83.5c-.07 0-.12 0-.18.1a125.42 125.42 0 0 1-14.45-14.43 1.43 1.43 0 0 1 .13-.38c2.56 2.25 4.81 4.89 7.3 7.23a65.26 65.26 0 0 1 7.2 7.48z"/><path class="cls-3" d="M64.59 83.6a.55.55 0 0 0-.17.13A45.13 45.13 0 0 1 50 69.71a3.8 3.8 0 0 1 .18-.54A125.42 125.42 0 0 0 64.59 83.6z"/><path class="cls-6" d="M64.93 25a11.12 11.12 0 0 0-1.49 3.33.14.14 0 0 0 0 .18.49.49 0 0 0-.54-.05 131 131 0 0 0-24.2 15.38c2.13-9 12.43-17.23 21-19.48a.37.37 0 0 0 .18-.13c1.66.19 3.36.44 5.05.77z"/><path class="cls-3" d="M38.3 45.21a.83.83 0 0 0 .23-.41c0-.31.12-.64.2-.95a131 131 0 0 1 24.2-15.38.49.49 0 0 1 .54.05.28.28 0 0 0 .15.23.44.44 0 0 1-.21.51C50.32 37.77 37.76 46 26.38 56.87 17.81 65 7.59 74.38 1.67 84.83A3 3 0 0 1 1 85c1.2-3.89 5.2-7.74 7.74-10.68a209 209 0 0 1 27.17-27.19c.77-.64 1.57-1.28 2.36-1.92z"/><path class="cls-3" d="M63.47 28.52a.44.44 0 0 1 .15.23.28.28 0 0 1-.15-.23z"/><path class="cls-7" d="M61.36 94.47h-.1a.19.19 0 0 0-.23-.18c-6.3 2.16-12.17-3.56-14.35-8.84-2.34-5.61-1.87-11.69-.85-17.48a10 10 0 0 0 2.46 4.38.42.42 0 0 0 .82 0c.25-.9.54-1.79.82-2.69a45.13 45.13 0 0 0 14.46 14 9.14 9.14 0 0 0-3.62 5 8.71 8.71 0 0 0 .59 5.81z"/><path class="cls-3" d="M51.6 93.17a.54.54 0 0 0-.64-.41 14.65 14.65 0 0 1-5.08-7c-2.18-5.82-2-12.76-.25-18.66a6.07 6.07 0 0 0 .15.92c-1 5.79-1.49 11.87.85 17.48 2.18 5.28 8 11 14.35 8.84a.19.19 0 0 1 .23.18.16.16 0 0 1-.1.16c-2.72 1.87-6.66 1-9.79-.8a4.53 4.53 0 0 0 .2-.59.18.18 0 0 0 .08-.12zM60.8 64.87c.05.07-.2.15 0 0zM60.29 64.43c0 .21-.08.41-.1.62 0 0 0 .07-.06.1a1.94 1.94 0 0 1-.07-.46l-.44.15c0-.1.05-.18.08-.26a.35.35 0 0 1 .59-.15z"/><path class="cls-3" d="M60.06 64.69a1.94 1.94 0 0 0 .07.46.61.61 0 0 1-.61.38 1.57 1.57 0 0 1 .1-.69zM58.65 24.11q-1-.12-1.92-.15a8.2 8.2 0 0 1 2.87-.23.35.35 0 0 1 .28.51c-.41-.05-.82-.1-1.23-.13z"/><path class="cls-3" d="M58.65 24.11c.41 0 .82.08 1.23.13a.37.37 0 0 1-.18.13c-8.54 2.25-18.84 10.51-21 19.48a11.71 11.71 0 0 0-.95.71c.46-5 4.62-9.61 8.21-12.76 2.92-2.54 8.41-7.07 12.69-7.69zM58 18.37a.39.39 0 0 1-.18-.33h.51c.26 0 .36.21.28.38a.43.43 0 0 1-.61-.05z"/><path class="cls-3" d="M58.62 18.47a.29.29 0 0 1-.28.23c-7.1.72-14.4.54-21.4 2.26a62.09 62.09 0 0 0-8.28 2.92c-1.57.28-3.1.61-4.59 1 3.46-1.15 6.92-3 10.38-4C42.09 18.83 50 18.6 58 18.37a.43.43 0 0 0 .62.1zM56.73 24q1 0 1.92.15c-4.28.62-9.77 5.15-12.66 7.69-3.59 3.16-7.75 7.7-8.21 12.72a5.6 5.6 0 0 0-.59.46.5.5 0 0 1-.15-.46 10.94 10.94 0 0 1 .41-2.08c.72.23 1-.82.46-1.2a.35.35 0 0 0-.08-.05c1.57-4.23 4.92-7.66 8.39-10.53C49 28.34 52.8 24.93 56.73 24z"/><path class="cls-3" d="M57.83 18a.39.39 0 0 0 .18.33c-8 .23-15.92.46-23.56 2.54-3.46.94-6.92 2.82-10.38 4-.76.18-1.51.38-2.25.61a.62.62 0 0 1-.18.06.82.82 0 0 1-.21 0 1.06 1.06 0 0 0-1.23.46.47.47 0 0 1 .26-.8c6.33-1.61 12-4.95 18.48-6A92.62 92.62 0 0 1 57.83 18z"/><path class="cls-4" d="M22.81 25.83c11.54-.69 22.53-2.62 33.92-1.87-3.93 1-7.69 4.38-10.51 6.74-3.47 2.87-6.82 6.3-8.39 10.56a148.9 148.9 0 0 1-12.38-9.18c-1.82-1.56-4.76-3.48-3.89-6 .41-.08.79-.18 1.18-.26z"/><path class="cls-3" d="M51 93.65l-.43-.31c.05-.12.13-.28.18-.41a.35.35 0 0 1 .23-.2c.08 0 .13.1.2.15s.28.18.44.26a.18.18 0 0 1 0 .12 4.53 4.53 0 0 1-.2.59z"/><path class="cls-3" d="M51.6 93.14c-.16-.08-.31-.18-.44-.26s-.12-.1-.2-.15a.54.54 0 0 1 .64.41zM50.55 93.34l.43.31c-.79 2.41-2.51 4.82-3.61 7-3.59 7.18-7.79 13.92-9.41 21.92-.25 1.18-.05 4-.54 5.33a.51.51 0 0 0-.28-.39 1.52 1.52 0 0 1-.49-.25c.23-1.57 0-3.34.41-4.87 2.59-10.67 9.08-19.23 13.49-29.05z"/><path class="cls-3" d="M51 92.73a.35.35 0 0 0-.23.2c0 .13-.13.29-.18.41a11.4 11.4 0 0 1-3.28-3.2 22.49 22.49 0 0 1-2.59-5.61.29.29 0 0 0 .28-.44c-.31-.72-.62-1.46-.92-2.18a28 28 0 0 1 1.32-15.12c.05.08.12.15.17.23h.06c-1.75 5.9-1.93 12.84.25 18.66A14.65 14.65 0 0 0 51 92.73zM50.14 69.17a3.8 3.8 0 0 0-.18.54c-.16-.23-.28-.49-.41-.72a2.6 2.6 0 0 1 .15-.56.25.25 0 0 1 .26.08l.31.28a1.43 1.43 0 0 0-.13.38z"/><path class="cls-3" d="M49.55 69c.13.23.25.49.41.72-.28.9-.57 1.79-.82 2.69a.42.42 0 0 1-.82 0 .57.57 0 0 0 .13.16c.25.23.74 0 .61-.36a4.23 4.23 0 0 0-.2-.57c.14-.85.41-1.75.69-2.64zM49.7 68.43a2.6 2.6 0 0 0-.15.56s0-.07-.08-.1a.3.3 0 0 1 .23-.46z"/><path class="cls-3" d="M48.7 72.27c0-.2.11-.41.16-.64a4.23 4.23 0 0 1 .2.57c.13.36-.36.59-.61.36a.57.57 0 0 1-.13-.16.35.35 0 0 1 0-.23c0-.15 0-.28.07-.43.08.18.18.35.31.53z"/><path class="cls-3" d="M48.86 71.63c0 .23-.11.44-.16.64-.13-.18-.23-.35-.36-.53 0-.29.13-.57.18-.88.13.26.23.52.34.77z"/><path class="cls-3" d="M48.52 70.86c-.05.31-.13.59-.18.88a17.46 17.46 0 0 1-2.18-4.59.61.61 0 0 0 .34-.44c.59 1.44 1.41 2.77 2.02 4.15z"/><path class="cls-3" d="M48.34 71.74c0 .15-.05.28-.07.43a.35.35 0 0 0 0 .23 10 10 0 0 1-2.44-4.4c.05-.28.1-.57.16-.82a.55.55 0 0 0 .17 0 17.46 17.46 0 0 0 2.18 4.56z"/><path class="cls-4" d="M47.27 90.14a11.4 11.4 0 0 0 3.28 3.2c-4.41 9.82-10.9 18.38-13.46 29.05-.36 1.53-.18 3.3-.41 4.87-2.84-1.54-4.89-6.64-6-9.33-2.25-5.44-2-11.9-1.46-17.64.77-9 3.08-20.66 9.23-27.71a41.15 41.15 0 0 0 6.02 11.82.62.62 0 0 0 .21.13 22.49 22.49 0 0 0 2.59 5.61z"/><path class="cls-3" d="M46.45 66.35a.53.53 0 0 1 0 .36c-.08-.18-.16-.38-.23-.59a.31.31 0 0 0-.59 0c-3-4.3-4.49-9.94-7.8-14a2.92 2.92 0 0 1 .34-.23c3.92 3.7 5.83 9.9 8.28 14.46z"/><path class="cls-3" d="M46 66.51a.3.3 0 0 0-.26-.18.73.73 0 0 1-.1-.13.31.31 0 0 1 .59 0c.07.21.15.41.23.59a.61.61 0 0 1-.34.44 3.48 3.48 0 0 1-.1-.44.68.68 0 0 1-.02-.28z"/><path class="cls-3" d="M46.16 67.15a.55.55 0 0 1-.17 0c0-.16 0-.33.07-.49a3.48 3.48 0 0 0 .1.49z"/><path class="cls-3" d="M45.68 66.89a1.63 1.63 0 0 1 0-.54h.1a.3.3 0 0 1 .26.18.68.68 0 0 0 0 .2c0 .16-.05.33-.07.49a.52.52 0 0 1-.31-.1v-.16l.02-.07z"/><path class="cls-3" d="M46 67.2c-.06.25-.11.54-.16.82a6.07 6.07 0 0 1-.15-.92.52.52 0 0 0 .31.1zM45.68 66.2a.73.73 0 0 0 .1.13h-.1zM45.68 66.89a.19.19 0 0 0 0 .13h-.06c0-.08-.12-.15-.17-.23a1.25 1.25 0 0 1 .07-.26.25.25 0 0 1 .21-.18 1.63 1.63 0 0 0-.05.54z"/><path class="cls-3" d="M45.68 66.17v.18a.25.25 0 0 0-.21.18 1.25 1.25 0 0 0-.07.26 29.23 29.23 0 0 1-4-7.08l-.54-1.15a1 1 0 0 0 .33-.51.3.3 0 0 0-.13-.34 1 1 0 0 0-.69-.18c-.87-1.74-1.79-3.43-2.79-5.12l.3-.23c3.31 4.05 4.83 9.69 7.8 13.99zM45.68 66.94v.16a.19.19 0 0 1 0-.16zM44.47 83.83a18.8 18.8 0 0 1-.47-1.92c.3.72.61 1.46.92 2.18a.29.29 0 0 1-.28.44 6.2 6.2 0 0 1-.17-.7z"/><path class="cls-3" d="M44.47 83.83a6.2 6.2 0 0 0 .21.7.62.62 0 0 1-.21-.13 41.15 41.15 0 0 1-6.07-11.77c.15-.2.33-.41.51-.61s-.08-.75-.38-.52a2.71 2.71 0 0 0-.41.36c-2-6.12-2.95-12.79-2.08-18.32a1.7 1.7 0 0 1 .28-.21c0 2 .18 4.13.41 6.26a.29.29 0 0 0-.1.07.49.49 0 0 0 .23.9 61.52 61.52 0 0 0 7.59 23.22.1.1 0 0 1 .02.05z"/><path class="cls-3" d="M44 81.91a18.8 18.8 0 0 0 .41 1.87 61.52 61.52 0 0 1-7.59-23.22.43.43 0 0 0 .23-.08 2.17 2.17 0 0 1 .56-.3 58.56 58.56 0 0 0 1.23 7.38A99.22 99.22 0 0 0 44 81.91z"/><path class="cls-5" d="M45.4 66.79A28 28 0 0 0 44 81.91a99.22 99.22 0 0 1-5.16-14.35 58.56 58.56 0 0 1-1.23-7.38 17 17 0 0 1 2.11-1.11 4.9 4.9 0 0 0 1.1-.51l.54 1.15a29.23 29.23 0 0 0 4.04 7.08z"/><path class="cls-3" d="M41.06 57.71a.3.3 0 0 1 .13.34 1 1 0 0 1-.33.51c-.08-.15-.13-.31-.21-.46l.26-.13a2.43 2.43 0 0 0-.28.1c-.08-.18-.18-.36-.26-.54a1 1 0 0 1 .69.18z"/><path class="cls-3" d="M40.91 58l-.26.13a2.43 2.43 0 0 1 .26-.13z"/><path class="cls-3" d="M40.65 58.1c.08.15.13.31.21.46a4.9 4.9 0 0 1-1.1.51 17 17 0 0 0-2.11 1.11c0-.16 0-.31-.07-.47zM40.65 58.1l-3.07 1.59v-.1a14.45 14.45 0 0 1 3.05-1.52s0 .03.02.03z"/><path class="cls-3" d="M40.37 57.53c.08.18.18.36.26.54a14.45 14.45 0 0 0-3.05 1.52c0-.21 0-.41-.08-.59a6.67 6.67 0 0 1 2.87-1.47zM38.24 72.2a1.25 1.25 0 0 1-.12-.34 2.71 2.71 0 0 1 .41-.36c.3-.23.64.26.38.52s-.36.41-.51.61a1.31 1.31 0 0 1-.16-.43zM38.73 43.85c-.08.31-.15.64-.2.95a.83.83 0 0 1-.23.41.82.82 0 0 1-1.08-.16 5.6 5.6 0 0 1 .59-.46 11.71 11.71 0 0 1 .92-.74z"/><path class="cls-3" d="M38.24 72.2a1.31 1.31 0 0 0 .16.43c-6.15 7.05-8.46 18.74-9.23 27.71-.51 5.74-.79 12.2 1.46 17.64 1.13 2.69 3.18 7.79 6 9.33a1.82 1.82 0 0 1-.48.41c-2.08-1.18-4.74-6-5.49-7.56a29 29 0 0 1-2.53-10.36c-.54-7.13.66-14.17 2.3-21.1 1.15-4.7 3.82-12.99 7.81-16.5z"/><path class="cls-9" d="M37.58 52.41c1 1.69 1.92 3.38 2.79 5.12A6.67 6.67 0 0 0 37.5 59c-.26-2-.51-3.93-1-5.85.39-.26.74-.51 1.08-.74z"/><path class="cls-3" d="M.69 85.81A.4.4 0 0 0 1 86s0 .07-.05.1c-.13.28-.67.18-.62-.15.49-5.11 4.57-8.5 7.67-12.27a174.63 174.63 0 0 1 17.07-18.14C29 51.9 33 48.38 37.19 45.05a.82.82 0 0 0 1.08.16c-.79.64-1.59 1.28-2.36 1.92A209 209 0 0 0 8.64 74.38C6.1 77.32 2.1 81.17.9 85.06c-.31.08-.36.49-.21.75zM37.86 51.61a2.33 2.33 0 0 1 .36.34 2.92 2.92 0 0 0-.34.23 1.58 1.58 0 0 0-.28-.39zM38.12 71.86a1.25 1.25 0 0 0 .12.34c-4 3.51-6.66 11.76-7.79 16.5-1.64 6.93-2.84 14-2.3 21.1a29 29 0 0 0 2.53 10.36c.75 1.56 3.41 6.38 5.49 7.56l-.51.25c-2.49-1.15-4.23-4.43-5.31-6.64-2.85-5.66-3.56-12.4-3-18.63.8-9.64 2.65-24.2 10.77-30.84zM37.91 41.31c.56.38.26 1.43-.46 1.2a10.61 10.61 0 0 1 .38-1.25.35.35 0 0 1 .08.05z"/><path class="cls-3" d="M37.6 51.79a1.58 1.58 0 0 1 .28.39l-.3.23c-.08-.16-.18-.28-.26-.44a2.27 2.27 0 0 0 .28-.18z"/><path class="cls-3" d="M37.6 51.79a2.27 2.27 0 0 1-.28.18c0-.1-.13-.2-.18-.31a.27.27 0 0 1 .41-.33 3.92 3.92 0 0 1 .31.28zM37.65 60.18a2.17 2.17 0 0 0-.56.3.43.43 0 0 1-.23.08c0-.33-.08-.64-.13-1l.77-.56c0 .18 0 .38.08.59-.26.15-.49.33-.72.48l.72-.36c.02.16.05.29.07.47z"/><path class="cls-3" d="M37.58 59.69l-.72.36c.23-.15.46-.33.72-.48zM37.32 52c.08.16.18.28.26.44-.34.23-.69.48-1 .74a2.83 2.83 0 0 0-.13-.56 9.55 9.55 0 0 0 .87-.62zM20.63 26.24h.11l.82-.13c-.87 2.49 2.07 4.41 3.89 6a148.9 148.9 0 0 0 12.38 9.18 10.61 10.61 0 0 0-.38 1.25h-.05c-3.74-1.43-7-4.15-10-6.71a40.27 40.27 0 0 1-5.64-5.28c-.82-1-2.21-2.54-1.8-4a1 1 0 0 1 .24-.55.56.56 0 0 0 .43.24zM37.42 128a.34.34 0 0 1-.2.36 1.39 1.39 0 0 0 .2-.36zM36.17 127.72a1.82 1.82 0 0 0 .48-.41 1.52 1.52 0 0 0 .49.25.51.51 0 0 1 .28.39 1.39 1.39 0 0 1-.2.36.32.32 0 0 1-.18 0 4.06 4.06 0 0 1-1.38-.39zM37.5 59l-.77.59c-.23-2.13-.38-4.23-.41-6.26a1.62 1.62 0 0 1 .23-.18c.45 1.92.69 3.85.95 5.85zM36.86 60.56a.49.49 0 0 1-.23-.9.29.29 0 0 1 .1-.07c.05.33.08.64.13.97z"/><path class="cls-3" d="M36.42 52.59a2.83 2.83 0 0 1 .13.56 1.62 1.62 0 0 0-.23.18v-.67a.29.29 0 0 0 .1-.07z"/><path class="cls-3" d="M36.32 52.66a.48.48 0 0 1-.15.11 1.55 1.55 0 0 1 0-.23.1.1 0 0 1 .2 0v.05a.29.29 0 0 1-.05.07z"/><path class="cls-3" d="M36.32 52.66v.67a1.7 1.7 0 0 0-.28.21c.05-.26.08-.49.13-.75a.48.48 0 0 0 .15-.13z"/><path class="cls-3" d="M36.17 52.79c-.05.26-.08.49-.13.75a132.58 132.58 0 0 0-11.46 9.51C18.74 68.48 11.43 74.3 6.84 80.86 5.36 83 3.9 85.65 1.08 86H1a1.88 1.88 0 0 1 .25-.46c2.13.07 4.54-4.46 5.62-5.72 2.33-2.87 5.2-5.43 7.79-8.13 6-6.3 12.17-12.61 19.43-17.5z"/><path class="cls-1" d="M29.43 16.88c.07-.15.12-.33.2-.49a1.49 1.49 0 0 0 .36-.05 2.43 2.43 0 0 0-.2-.28 3.7 3.7 0 0 1 .2-.52 4.68 4.68 0 0 1-.67.05c-1.28-1.33-3.56-3.05-3.56-4.4 0-1.8 3-3.9 4.51-5.52h.67a4.17 4.17 0 0 1-.26-.46 3.19 3.19 0 0 0 .26-.38 2.69 2.69 0 0 0-.49 0c-.07-.13-.15-.25-.23-.38-.1.13-.18.25-.28.36a25.94 25.94 0 0 0-5.59 1c-5 1.18-2.13.23-5.64-1.87-3.66-2.29-3.07 3.2-3.05 6.53a.61.61 0 0 0-.64.08c-.21-2.12-1.08-8 2.31-8 1.48 0 3.18 1.35 4 2.53.72 1 8.08-1.07 9.67-1 .56 0 1.1.72.69 1.25a48.12 48.12 0 0 1-3.74 3.82c-2.54 2.85 1 4.67 2.66 6.69a.82.82 0 0 1-.61 1.3c-2.43.25-6.9-.9-8.72 1.2a38.13 38.13 0 0 0-3 4.51.83.83 0 0 1-1.43 0A10.78 10.78 0 0 1 15 18.6c-.44-2.36-2-2.56-4.26-2.85a.85.85 0 0 1-.59-1.43 30.9 30.9 0 0 1 4.85-3.8.4.4 0 0 1 0 .18.59.59 0 0 0 .33.52c-1.16 1-2.77 1.77-3.95 2.94l-.67-.07c.08.18.16.36.24.56a3.48 3.48 0 0 0-.24.28 1.43 1.43 0 0 1 .36.06 2.74 2.74 0 0 1 .23.53 4 4 0 0 1 .47-.46c5.48.75 2.76 2.69 5.25 6.64-.08.1-.13.23-.2.33h.43c.08.13.18.26.28.41a3.66 3.66 0 0 0 .26-.41h.46c-.08-.12-.15-.25-.23-.38 1.23-2 2.38-4.26 4.43-5.08 1.85-.61 4.39 0 6.57-.12z"/><path class="cls-1" d="M30.94 4.81a3.19 3.19 0 0 1-.26.38 1.53 1.53 0 0 1-.23-.41 2.69 2.69 0 0 1 .49.03zM30.68 5.19a4.17 4.17 0 0 0 .26.46h-.64z"/><path class="cls-1" d="M30.45 4.78a1.53 1.53 0 0 0 .23.41l-.38.46c-.43 0-.84.06-1.25.08a8.44 8.44 0 0 0 .92-1 4.61 4.61 0 0 1 .48.05z"/><path class="cls-1" d="M30.45 4.78a4.61 4.61 0 0 0-.51 0c.1-.11.18-.23.28-.36.08.11.16.23.23.36zM30 15.52a3.7 3.7 0 0 0-.2.52c-.16-.16-.29-.31-.47-.47a4.68 4.68 0 0 0 .67-.05zM29.79 16.06a2.43 2.43 0 0 1 .2.28 1.49 1.49 0 0 1-.36.05 1.66 1.66 0 0 1 .16-.33z"/><path class="cls-1" d="M29.79 16a1.66 1.66 0 0 0-.16.33 4.2 4.2 0 0 1-.61.06c-.31-.29-.64-.59-1-.93.46 0 .9.05 1.33.05.15.22.28.37.44.49zM29.63 16.39c-.08.16-.13.34-.2.49l-.43-.43a4.2 4.2 0 0 0 .63-.06zM29.94 4.76a8.44 8.44 0 0 1-.92 1C26.79 6 24.63 6.6 22.43 7a2.36 2.36 0 0 1-1.87-.26c-.52-.36-3.46-4-3.9-1.74a53.42 53.42 0 0 0-.36 5.66.55.55 0 0 1-.18.44.79.79 0 0 0-.46-.72c0-3.33-.61-8.82 3.05-6.53 3.51 2.1.69 3.05 5.64 1.87a25.94 25.94 0 0 1 5.59-.96z"/><path class="cls-1" d="M29 5.73c.41 0 .82-.08 1.25-.08-1.51 1.62-4.51 3.72-4.51 5.52 0 1.35 2.28 3.07 3.56 4.4-.43 0-.87 0-1.33-.05-1.51-1.3-3.33-2.87-3-4.58.43-2.29 2.43-3.62 4.03-5.21zM29 16.45c-2.18.12-4.72-.49-6.57.12-2.05.82-3.2 3.08-4.43 5.08a6.56 6.56 0 0 1-.44-.82c1.21-1.94 2.36-3.79 4.49-4.94 1.59-.85 3.87-.49 5.92-.34.41.31.74.61 1.03.9z"/><path class="cls-2" d="M29 5.73c-1.6 1.59-3.6 2.92-4 5.21-.31 1.71 1.51 3.28 3 4.58-2-.15-4.33-.51-5.92.34-2.13 1.15-3.28 3-4.49 4.94-.66-1.51-.84-3.07-1.56-4.64-.56-1.2-2-1.66-3.46-1.87 1-.89 2.15-1.64 3.23-2.46a.85.85 0 0 0 .33-.69.55.55 0 0 0 .18-.44 53.42 53.42 0 0 1 .35-5.7c.44-2.28 3.38 1.38 3.9 1.74a2.36 2.36 0 0 0 1.87.26c2.2-.4 4.36-1 6.57-1.27z"/><path class="cls-3" d="M24.07 24.88c1.49-.39 3-.72 4.59-1-1.1.43-2.23.85-3.36 1.23-1.23.18-2.46.38-3.64.59a.46.46 0 0 0-.23-.1.32.32 0 0 1 .18-.05.62.62 0 0 0 .18-.06 17.08 17.08 0 0 0 2.21-.61z"/><path class="cls-3" d="M25.3 25.11c-.82.28-1.64.51-2.49.72H21.63a.32.32 0 0 1 .06-.15v-.05c1.15-.14 2.38-.34 3.61-.52zM21.79 25.49c.74-.23 1.49-.43 2.25-.61a17.08 17.08 0 0 1-2.25.61zM21.63 25.9h1.11c-.39.08-.77.18-1.18.26a.35.35 0 0 1 .07-.26z"/><path class="cls-1" d="M21.53 41c.49 0 1 .59.62 1.08-.88 1.2-3.95 3.15-3.77 4.71.33 3 2.41 5.29 3.18 8.11a.77.77 0 0 1-.75 1 31.3 31.3 0 0 1-5.35-.9c-2.82-.66-4.23.74-5.9 2.92A.86.86 0 0 1 8 57.69c-1.23-2.9-.61-5.36-3.89-6.92A2.26 2.26 0 0 1 2.59 49c-.64-2.16 2.49-4.21 4-5.36-.05.31-.1.57-.15.8a.45.45 0 0 0 .08.38c-1.52 1.31-3.8 2.74-2.86 4.64.24.49 3.06 1.18 3.54 1.9.77 1.18.75 3.51 1.26 5.2l-.23.31c.13 0 .26.08.38.1.08.18.16.33.23.49l.29-.36c.17 0 .33.08.51.13a3.17 3.17 0 0 1-.18-.57c3.79-4.76 5.18-2 10.56-1.61a2.58 2.58 0 0 0 .08.26l.15-.24h.53a1.82 1.82 0 0 0-.15-.54l.15-.21a.71.71 0 0 1-.2 0c-.69-2.23-2.44-4.18-2.85-6.49-.64-3.2 1.46-3.1 3.26-5.41a2.74 2.74 0 0 1 .51 0c-.07-.13-.15-.29-.23-.41a2.74 2.74 0 0 0 .23-.31 2.74 2.74 0 0 0-.43-.08l-.15-.28a2.68 2.68 0 0 1-.23.26c-1.82 0-4.11.92-5.52.33-2.58-1-1.87-2.82-3.28-5-3.53-5.1-3.89 2.36-4.64 6.25a.7.7 0 0 0-.33.15l-.31.26c.34-2.72.26-8.23 2.87-8.94 1.21-.34 2.47 1.12 3 2 1.26 2.35 1.23 5.35 5.59 4.58a12.19 12.19 0 0 1 3.46-.23z"/><path class="cls-3" d="M21.66 25.7v.05a.32.32 0 0 0-.06.15c-.2 0-.41 0-.61.06a1.56 1.56 0 0 1 .61-.23l.06-.03z"/><path class="cls-3" d="M21.63 25.73A1.56 1.56 0 0 0 21 26h-.64v-.08l1.05-.3a.46.46 0 0 1 .23.1l-.01.01zM21.63 25.9a.35.35 0 0 0-.07.21l-.82.13h-.11A1.39 1.39 0 0 1 21 26c.22-.07.43-.07.63-.1zM21.61 25.55a.32.32 0 0 0-.18.05.82.82 0 0 0 .18-.05z"/><path class="cls-1" d="M21.53 41.72a2.74 2.74 0 0 1-.23.31 2.4 2.4 0 0 1-.2-.39 2.74 2.74 0 0 1 .43.08z"/><path class="cls-1" d="M21.3 42c.08.12.16.28.23.41a2.74 2.74 0 0 0-.51 0 2.66 2.66 0 0 0 .28-.41z"/><path class="cls-3" d="M21.38 25.57l-1.05.3v.08L21 26a1.39 1.39 0 0 0-.39.28.56.56 0 0 1-.41-.28 1.06 1.06 0 0 1 1.18-.43z"/><path class="cls-1" d="M21.1 41.64a2.4 2.4 0 0 0 .2.39 2.66 2.66 0 0 1-.28.38 6.29 6.29 0 0 0-1.15.05c.3-.31.59-.56.82-.84a2.48 2.48 0 0 1 .38 0z"/><path class="cls-1" d="M20.92 41.36l.15.28a2.48 2.48 0 0 0-.38 0 2.68 2.68 0 0 0 .23-.28zM19.87 42.46a6.29 6.29 0 0 1 1.13-.05c-1.8 2.31-3.9 2.21-3.26 5.41.41 2.31 2.16 4.26 2.85 6.49-.28 0-.59-.06-.87-.11-1.06-2.71-3.06-5.15-2.72-8.2.15-1.38 1.64-2.48 2.82-3.51zM20.81 54.33l-.15.21a.86.86 0 0 0-.05-.23.71.71 0 0 0 .2.02zM20.66 54.56a1.82 1.82 0 0 1 .15.54h-.53c.1-.18.25-.36.38-.54z"/><path class="cls-1" d="M15.17 42c1.41.59 3.7-.36 5.52-.33-.23.28-.52.53-.82.84-3.05.16-6.33 1.08-7.54-2.74-.3-1-2.51-5.38-3.33-2.43a22.11 22.11 0 0 0-.64 2.79c-.18 1.05-.31 2.13-.54 3.18a.75.75 0 0 0-.54-.08C8 39.29 8.36 31.83 11.89 37c1.41 2.13.7 4 3.28 5zM20.66 54.54c-.13.18-.28.36-.38.51h-.23c-.08-.28-.18-.57-.28-.85.28 0 .59.08.87.11a.86.86 0 0 1 .02.23zM20.25 55.07l-.15.24a2.58 2.58 0 0 1-.08-.26zM19.74 54.2c.1.28.2.57.28.85-5.38-.44-6.77-3.15-10.56 1.61a8.1 8.1 0 0 1-.21-1c1.08-1.25 2.39-2.46 4-2.51 2.21-.15 4.33.72 6.49 1.05z"/><path class="cls-2" d="M19.84 42.46c-1.18 1-2.67 2.13-2.82 3.51-.36 3.08 1.64 5.52 2.72 8.23-2.16-.33-4.28-1.18-6.46-1.1-1.64 0-2.95 1.26-4 2.51-.3-2-.46-4.56-2-5.38-1.36-.72-3.41-1.72-1.62-3.51a13.34 13.34 0 0 0 2.44-2.54.62.62 0 0 0-.26-.92c.23-1 .36-2.13.54-3.18A22.11 22.11 0 0 1 9 37.29c.82-2.95 3 1.38 3.33 2.43 1.18 3.82 4.46 2.9 7.51 2.74z"/><path class="cls-1" d="M18 21.65c.08.13.15.26.23.38h-.46a2.14 2.14 0 0 0 .23-.38z"/><path class="cls-1" d="M18 21.65a2.14 2.14 0 0 1-.23.38h-.54a1.82 1.82 0 0 1-.23-.33c.18-.28.36-.59.56-.87a6.56 6.56 0 0 0 .44.82z"/><path class="cls-1" d="M17.79 22a3.66 3.66 0 0 1-.26.41c-.1-.15-.2-.28-.28-.41zM17.58 20.8c-.2.28-.38.59-.56.87-2.49-3.95.23-5.89-5.25-6.64a7.16 7.16 0 0 1 .79-.77c1.41.21 2.9.67 3.46 1.87.72 1.6.9 3.16 1.56 4.67zM17.25 22h-.43c.07-.1.12-.23.2-.33a1.82 1.82 0 0 0 .23.33z"/><path class="cls-1" d="M16.12 11.14a.85.85 0 0 1-.33.69c-1.08.82-2.2 1.57-3.23 2.46l-1.18-.13c1.18-1.17 2.79-2 3.95-2.94a.66.66 0 0 0 .79-.08z"/><path class="cls-1" d="M16.12 11.14a.66.66 0 0 1-.79.08s.05 0 .08-.05l.25-.47v-.28a.79.79 0 0 1 .46.72z"/><path class="cls-1" d="M15.66 10.42v.28l-.25.47s-.06.05-.08.05a.59.59 0 0 1-.33-.52.4.4 0 0 0 0-.18.61.61 0 0 1 .66-.1zM12.56 14.29a7.16 7.16 0 0 0-.79.77 3 3 0 0 0-.7-.07 1.14 1.14 0 0 0-.12-.34 4 4 0 0 1 .43-.49z"/><path class="cls-1" d="M11.77 15.06a4 4 0 0 0-.47.46 2.74 2.74 0 0 0-.23-.53 3 3 0 0 1 .7.07zM10.71 14.09l.67.07a4 4 0 0 0-.43.49c-.08-.2-.16-.38-.24-.56z"/><path class="cls-1" d="M11 14.65a1.14 1.14 0 0 1 .12.34 1.43 1.43 0 0 0-.36-.06 3.48 3.48 0 0 1 .24-.28zM9.64 57.23c-.18 0-.34-.1-.51-.13a2.81 2.81 0 0 1 .33-.44 3.17 3.17 0 0 0 .18.57z"/><path class="cls-1" d="M9.46 56.66a2.81 2.81 0 0 0-.33.44c-.13-.05-.34-.1-.52-.1s-.1-.26-.15-.41c.26-.31.51-.64.79-1a8.1 8.1 0 0 0 .21 1.07z"/><path class="cls-1" d="M9.13 57.1l-.29.36c-.07-.16-.15-.31-.23-.49.18.03.39.08.52.13zM7.23 50.23c1.56.82 1.72 3.38 2 5.38-.28.31-.53.64-.79 1-.51-1.69-.49-4-1.26-5.2-.48-.72-3.3-1.41-3.54-1.9-.94-1.9 1.34-3.33 2.88-4.69a.5.5 0 0 0 .92-.1 11.11 11.11 0 0 0 .33-1.41.62.62 0 0 1 .26.92 13.34 13.34 0 0 1-2.44 2.54c-1.77 1.74.28 2.74 1.64 3.46zM8.61 57c-.12 0-.25-.08-.38-.1l.23-.31c.05.12.1.25.15.41z"/><path class="cls-1" d="M7.23 44.1l-.23.23a8.74 8.74 0 0 0 .25-1.15.75.75 0 0 1 .54.08 11.11 11.11 0 0 1-.33 1.41.5.5 0 0 1-.92.1 5.87 5.87 0 0 1 .46-.41 1.21 1.21 0 0 0 0 .18z"/><path class="cls-1" d="M7.25 43.18A8.74 8.74 0 0 1 7 44.33a5.87 5.87 0 0 0-.46.41.45.45 0 0 1-.08-.38c0-.23.1-.49.15-.8l.31-.26a.7.7 0 0 1 .33-.12zM7.23 44.1l-.23.44a1.21 1.21 0 0 1 0-.18z"/><path class="cls-3" d="M1.28 85.53A1.88 1.88 0 0 0 1 86a.4.4 0 0 1-.31-.18 7 7 0 0 1 .21-.75 3 3 0 0 0 .72-.21 4.09 4.09 0 0 0-.34.67z"/><path class="cls-3" d="M.9 85.06a7 7 0 0 0-.21.75c-.15-.26-.1-.67.21-.75z"/><path class="cls-11" d="M66.72 89.52c0-.73-.74-1.84 1.84-2.21.37 2.21-.74 1.48-2.21 2.21"/><path class="cls-12" d="M66.72 89.52c0-.73-.74-1.84 1.84-2.21.37 2.21-.74 1.48-2.21 2.21"/><path class="cls-11" d="M67.41 88.9c-.12-.75.77-.78 1.34-.88l-.89-.51c.12.81 0 .83-.68 1a1.59 1.59 0 0 0-1.12.84.34.34 0 0 0 .2.5 3.3 3.3 0 0 0 2.24-.27c.87-.46.9-1.39.79-2.27a.75.75 0 0 0-.92-.7c-1.63.26-2.69 1-2.44 2.7.14 1 1.65.57 1.48-.41zM108.16 57.26c4.25-9.18-7.56-2.29-.91 0"/><path class="cls-12" d="M108.16 57.26c4.25-9.18-7.56-2.29-.91 0"/><path class="cls-11" d="M108.37 57.38c.74-1.06 1.67-3.36.79-4.6-.6-.85-1.78-.59-2.57-.2a3.37 3.37 0 0 0-1.89 2.54c-.12 1.13 1.49 3 2.65 2.49a.38.38 0 0 0 .22-.53c-.43-.81-1.84-.7-1.92-1.85a2.28 2.28 0 0 1 1.16-1.77c.41-.28 1.32-.72 1.72-.19.78 1-.36 2.93-.6 3.93a.24.24 0 0 0 .44.18zM101.35 53.63c-2.73-.46-4.54-5.46-2.73-8.18 4.09-5.45 5.91 5 3.18 7.72"/><path class="cls-12" d="M101.35 53.63c-2.73-.46-4.54-5.46-2.73-8.18 4.09-5.45 5.91 5 3.18 7.72"/><path class="cls-11" d="M101.42 53.37c-2.11-.76-3-3.44-3-5.46 0-1.11 1.51-4.58 3-3.17 1 .93 1.13 2.84 1.15 4.11a10.63 10.63 0 0 1-1 4.26c-.08.2.18.34.34.26 1.82-.93 1.77-4 1.6-5.72-.14-1.49-.68-4-2.49-4.25-2.29-.35-3.55 2.74-3.66 4.51-.15 2.47 1.28 5.69 4 6 .32 0 .34-.44.07-.53z"/></g></g></svg>