<svg xmlns="http://www.w3.org/2000/svg" xmlns:xlink="http://www.w3.org/1999/xlink" viewBox="0 0 1025 1025"><defs><style>.cls-1,.cls-2,.cls-4,.cls-7,.cls-8{fill:#fff;}.cls-1,.cls-10,.cls-12,.cls-14,.cls-16,.cls-19,.cls-21,.cls-23,.cls-24,.cls-4,.cls-6,.cls-8{stroke:#231815;}.cls-1,.cls-14,.cls-16,.cls-19,.cls-21,.cls-23,.cls-24,.cls-4,.cls-6{stroke-linecap:round;}.cls-1,.cls-14,.cls-16,.cls-19,.cls-4,.cls-6{stroke-linejoin:round;}.cls-1,.cls-10,.cls-12,.cls-19,.cls-21,.cls-23,.cls-8{stroke-width:6px;}.cls-3{fill:#231815;}.cls-4,.cls-6{stroke-width:4px;}.cls-5{fill:#fae7e1;}.cls-6{fill:#999;}.cls-7{stroke:#000;opacity:0;}.cls-10,.cls-12,.cls-21,.cls-23,.cls-24,.cls-7,.cls-8{stroke-miterlimit:10;}.cls-9{fill:#c181d7;}.cls-10{fill:#db3a4b;}.cls-11{fill:#754c24;}.cls-12{fill:#404040;}.cls-13{fill:#cc926f;}.cls-14{fill:#3c210c;stroke-width:7px;}.cls-15,.cls-16{fill:#ff0;}.cls-16{stroke-width:5px;}.cls-17{clip-path:url(#clip-path);}.cls-18{fill:#b3b3b4;}.cls-19,.cls-23,.cls-24{fill:none;}.cls-20{fill:#7e4b5e;}.cls-22{fill:#4c82e5;}.cls-24{stroke-width:8px;}</style><clipPath id="clip-path"><path class="cls-1" d="M299.5,704.5s-29-17-33-18-74,13-94-54,26-93,26-93,12,38,25,53,44,20,44,20l55.13,69Z"/></clipPath></defs><title>cha_201</title><g id="レイヤー_2" data-name="レイヤー 2"><g id="レイヤー_11" data-name="レイヤー 11"><g id="レイヤー_15" data-name="レイヤー 15"><path class="cls-2" d="M588.5,580.5s-20,41,0,68,45,37,66,29,30-29,30-49-43-54-52-55S588.5,580.5,588.5,580.5Z"/><path class="cls-3" d="M588.81,580.89s.11-.09.08,0l-.06.15-.12.3-.22.61-.44,1.21c-.29.81-.57,1.63-.83,2.45-.52,1.64-1,3.28-1.49,4.94-.92,3.31-1.68,6.66-2.29,10a83.94,83.94,0,0,0-1.36,20.2,50.25,50.25,0,0,0,4.81,18.95l1.13,2.13,1.26,2a43.92,43.92,0,0,0,2.91,3.91c1.08,1.29,2.11,2.62,3.23,3.87l3.4,3.7a82.25,82.25,0,0,0,15.31,12.54c1.37.89,2.83,1.6,4.24,2.42s2.93,1.36,4.38,2.06c1.52.52,3,1.15,4.52,1.6l2.3.62c.38.1.77.22,1.15.31l1.17.2a37.82,37.82,0,0,0,18.47-.79,39.24,39.24,0,0,0,16-9.33,44.59,44.59,0,0,0,10.42-15.71,59.64,59.64,0,0,0,4-19l.06-1.22c0-.2,0-.43,0-.6l0-.49c0-.34,0-.66,0-1l-.17-1a7.1,7.1,0,0,0-.23-1l-.28-1.07c-.24-.71-.49-1.43-.77-2.15a47.9,47.9,0,0,0-4.67-8.45,109.94,109.94,0,0,0-13-15.42,161.12,161.12,0,0,0-15.27-13.56c-2.69-2.08-5.43-4.1-8.26-5.87a34.39,34.39,0,0,0-4.27-2.31c-.33-.11-.69-.26-1-.35a3.77,3.77,0,0,0-1-.17l-1.15-.09c-.38,0-.81,0-1.22,0a93.35,93.35,0,0,0-10.15.79q-5.11.63-10.25,1.39c-3.43.5-6.84,1-10.26,1.63l-5.12.87-2.56.44-1.28.23C589.49,580.81,588.93,581,588.81,580.89Zm-.62-.78a13.52,13.52,0,0,1,1.46-.44l1.26-.33,2.51-.67q2.52-.66,5.06-1.27,5.06-1.24,10.15-2.38c3.39-.77,6.8-1.48,10.25-2.09a96,96,0,0,1,10.51-1.42c.46,0,.89-.08,1.38-.07l1.45,0a7.75,7.75,0,0,1,1.62.21c.53.12,1,.28,1.48.43a37.41,37.41,0,0,1,5,2.34,95.38,95.38,0,0,1,9,5.69,160.2,160.2,0,0,1,16.42,13.34,115.92,115.92,0,0,1,14.35,15.83,54.07,54.07,0,0,1,5.67,9.55c.38.89.73,1.79,1.07,2.71l.43,1.43a9.89,9.89,0,0,1,.38,1.47L688,626c.08.51.1,1.06.15,1.59l0,.8c0,.27,0,.47,0,.71v1.37a65.84,65.84,0,0,1-3.86,21.66,51.9,51.9,0,0,1-12,18.94,46.64,46.64,0,0,1-4.29,3.77c-.73.62-1.55,1.11-2.33,1.66a25.18,25.18,0,0,1-2.4,1.55l-2.51,1.37a27.6,27.6,0,0,1-2.59,1.2c-.88.36-1.72.79-2.63,1.09l-2.74.89c-.45.14-.9.31-1.37.42l-1.4.3-2.82.59c-1,.12-1.9.21-2.86.31a19.54,19.54,0,0,1-2.86.19h-2.86a9.72,9.72,0,0,1-1.43-.06l-1.42-.14c-.94-.1-1.9-.15-2.83-.31l-2.78-.54-1.39-.28c-.46-.12-.91-.26-1.36-.39l-2.7-.79c-1.79-.57-3.49-1.33-5.24-2-1.66-.82-3.35-1.59-5-2.49s-3.19-1.84-4.7-2.88a86.28,86.28,0,0,1-16.31-14.31l-3.45-4.12c-1.13-1.39-2.15-2.85-3.23-4.27a48.28,48.28,0,0,1-3.08-4.59l-1.36-2.45-1.16-2.53a54.36,54.36,0,0,1-4-21.4,81.47,81.47,0,0,1,3.11-21,93.86,93.86,0,0,1,3.35-10c.63-1.63,1.32-3.24,2.05-4.83.36-.8.74-1.59,1.13-2.37l.59-1.17.31-.59.15-.29.08-.14A1.14,1.14,0,0,1,588.19,580.11Z"/><path class="cls-4" d="M580.5,574.5s-50-10-58-9,21,48,23,50,49-23,50-27-.49-12-.49-12Z"/><path class="cls-5" d="M590.5,590.5s13,6,25,0,13-19,10-28-19-27-35-25-30,21-27,28,11,13,16,13,13-2,14,0S590.5,590.5,590.5,590.5Z"/><path class="cls-3" d="M590.78,590.39c.05,0,0-.14,0-.12l.19.05.36.09.74.17,1.47.29c1,.19,2,.31,3,.43a42.66,42.66,0,0,0,5.85.24c1-.08,1.93-.1,2.87-.27a25.8,25.8,0,0,0,2.79-.48,25,25,0,0,0,5.23-1.86l1.23-.61,1.15-.72a22.7,22.7,0,0,0,2.17-1.58,18.71,18.71,0,0,0,3.44-3.95,22.39,22.39,0,0,0,3.16-10.1,30.54,30.54,0,0,0-.08-5.57c-.13-.93-.25-1.87-.47-2.79a15,15,0,0,0-.8-2.66,35,35,0,0,0-6.23-10,39.56,39.56,0,0,0-9.07-7.66,27.39,27.39,0,0,0-10.88-4,19.8,19.8,0,0,0-5.55.1,24.89,24.89,0,0,0-5.29,1.57,35.07,35.07,0,0,0-9.45,6,39.63,39.63,0,0,0-7.3,8.52,26,26,0,0,0-2.35,4.77,10.61,10.61,0,0,0-.57,2.25,4.1,4.1,0,0,0,0,1.56.82.82,0,0,0,0,.14l.13.28.26.58c.17.38.41.75.6,1.13.45.74.93,1.47,1.46,2.19a25.79,25.79,0,0,0,3.69,3.92,18.47,18.47,0,0,0,4.39,2.86c.38.2.74.3,1.12.46a7.43,7.43,0,0,0,1,.25,7.72,7.72,0,0,0,1.22.09c.46,0,.94,0,1.42,0l6.07-.25a28.12,28.12,0,0,1,3.28.07,9.23,9.23,0,0,1,1.92.41,3.91,3.91,0,0,1,1.21.71,2.67,2.67,0,0,1,.59.76,3.86,3.86,0,0,1,.23.76,2.07,2.07,0,0,1,0,.62v.53l-.13.89c-.13.55-.26,1.09-.43,1.59-.33,1-.7,2-1.1,2.95s-.84,1.89-1.28,2.82c-.22.46-.45.92-.69,1.37l-.36.68-.18.34-.09.17C590.82,590.55,590.86,590.44,590.78,590.39Zm-.56.22a.83.83,0,0,1,0-.27l0-.13.05-.19.09-.37.18-.74.34-1.48c.24-1,.45-2,.65-2.95s.38-2,.49-2.92c.07-.48.09-.94.12-1.39v-.63l-.05-.22c0-.07,0-.18,0-.14s0,0,0,0a.72.72,0,0,0,.1.18c0,.06,0,0-.13,0a7.23,7.23,0,0,0-1.08,0,24.49,24.49,0,0,0-2.79.33c-1.94.31-3.93.73-6,1-.53.07-1.07.14-1.61.19a12.82,12.82,0,0,1-1.82.06,12.6,12.6,0,0,1-3.71-.75,24.11,24.11,0,0,1-6-3.28,28,28,0,0,1-4.92-4.62c-.36-.45-.72-.89-1.06-1.35s-.67-.94-1-1.44-.61-1-.87-1.52l-.4-.8-.19-.4c-.07-.15-.15-.39-.22-.58a9.88,9.88,0,0,1-.4-4.45,16.63,16.63,0,0,1,.9-3.63,27.1,27.1,0,0,1,3.17-6,42.57,42.57,0,0,1,8.93-9.47,35.59,35.59,0,0,1,11.46-6.16,24.81,24.81,0,0,1,6.53-1.1,22.58,22.58,0,0,1,6.54.75,36.29,36.29,0,0,1,11.37,5.47,64,64,0,0,1,9.39,8.06,53.74,53.74,0,0,1,7.78,9.82,26.93,26.93,0,0,1,3.37,12.6,24.06,24.06,0,0,1-.83,6.67,21.05,21.05,0,0,1-2.87,6.22,21.55,21.55,0,0,1-4.71,5,24.25,24.25,0,0,1-2.86,1.83l-1.49.78c-.51.22-1,.41-1.55.62a27,27,0,0,1-12.87,1.5,32.83,32.83,0,0,1-6.17-1.38c-1-.33-2-.71-2.92-1.13-.48-.2-.94-.44-1.4-.68l-.69-.37-.34-.19-.17-.1A1.1,1.1,0,0,1,590.22,590.61Z"/><path class="cls-5" d="M610.5,563.5s1,13-21,13"/><path class="cls-3" d="M610.5,563.5a11,11,0,0,1-1.58,6.85,14.76,14.76,0,0,1-5.35,5.06l-.81.49c-.27.15-.55.26-.83.4l-1.7.77c-1.16.4-2.33.82-3.52,1.14s-2.39.58-3.59.78l-3.62.51a3,3,0,0,1-.85-6,3.47,3.47,0,0,1,.64,0l.21,0,3.25.25c1.09.06,2.15,0,3.25,0s2.13-.18,3.2-.3l1.56-.33c.26-.06.53-.1.79-.18l.74-.25a12.62,12.62,0,0,0,5.43-3.25A10.3,10.3,0,0,0,610.5,563.5Z"/><path class="cls-6" d="M514,568s8-3,14,0,12,16,13,22,8,13,6,20-7,19-14,15a41.93,41.93,0,0,1-20-28c-3-15-1-27,2-29"/><rect class="cls-7" x="0.5" y="0.5" width="1024" height="1024"/><ellipse class="cls-8" cx="680.5" cy="553.5" rx="117.5" ry="108.5"/><path class="cls-9" d="M414,776a151.77,151.77,0,0,0-9,60l25,21s49-13,91-13,96,20,96,20l34-9s-10-64-19-85"/><path class="cls-3" d="M414,776a132.12,132.12,0,0,0-4,14.71q-1.63,7.44-2.54,15c-.18,1.25-.32,2.5-.43,3.76s-.26,2.52-.35,3.78c-.15,2.52-.36,5-.37,7.56-.18,5.05,0,10.08.35,15.1l-.59-1.18L418.77,845l12.66,10.32-2-.45c7.76-2.09,15.49-3.93,23.31-5.59s15.67-3,23.57-4.29,15.83-2.27,23.83-2.92a224.49,224.49,0,0,1,24.09-.92,177.19,177.19,0,0,1,24.08,2.15l6,.94,5.91,1.11c2,.35,3.93.78,5.88,1.21s3.93.81,5.87,1.29c7.8,1.79,15.52,3.88,23.18,6.18s15.23,4.77,22.79,7.56l-1.56-.07c5.67-1.47,11.36-2.88,17-4.3l17.06-4.27-1.57,2.4c-1-7.16-2.12-14.35-3.27-21.51s-2.4-14.32-3.67-21.47-2.7-14.26-4.22-21.36l-1.2-5.3-1.32-5.28c-.45-1.76-1-3.49-1.47-5.24s-1.15-3.44-1.73-5.17a145.45,145.45,0,0,1,7.13,20.64c2,7,3.72,14.09,5.35,21.19s3.15,14.22,4.59,21.36,2.82,14.28,4,21.48l.32,1.87-1.89.53-16.94,4.73c-5.65,1.58-11.29,3.17-17,4.7l-.75.21-.81-.28a439.74,439.74,0,0,0-45.47-12.92c-1.91-.47-3.85-.83-5.77-1.25s-3.85-.82-5.79-1.15l-5.8-1.06-5.82-.89a195.72,195.72,0,0,0-23.34-2.11,217.4,217.4,0,0,0-23.5.76c-7.84.64-15.69,1.47-23.5,2.58s-15.61,2.38-23.37,3.86-15.54,3-23.17,4.9l-1.16.28-.84-.73L416.23,848l-12.3-10.74-.58-.5v-.68a132.33,132.33,0,0,1,.29-15.43c.14-2.57.47-5.12.74-7.66.16-1.28.37-2.54.55-3.81s.38-2.54.62-3.8A149.83,149.83,0,0,1,409,790.45,122.19,122.19,0,0,1,414,776Z"/><path class="cls-5" d="M350.5,686.5s-28,19-32,24,0,30,8,35,23,3,31-2,21-31,21-31Z"/><path class="cls-3" d="M350.48,686.8c-.08.19,0,.23-.19.41l-.39.46c-.25.31-.52.6-.78.9-.53.59-1.05,1.18-1.6,1.75-1.06,1.16-2.17,2.25-3.27,3.36-2.21,2.2-4.48,4.3-6.78,6.35-1.15,1-2.3,2-3.47,3a30.2,30.2,0,0,1-3.59,2.81c-2.54,1.64-5.59,2.7-7.9,4.5-.54.43-1.19.9-1.59,1.29a2.75,2.75,0,0,0-.9,1.05,12.49,12.49,0,0,0-1,3.78,43,43,0,0,0,0,8.86,47,47,0,0,0,1.7,8.88,26.9,26.9,0,0,0,3.75,8.06,8.79,8.79,0,0,0,3.16,2.76c.32.16.63.35,1,.49l1,.38a18.73,18.73,0,0,0,2.1.61,26.68,26.68,0,0,0,8.83.29,39.63,39.63,0,0,0,8.58-2.06,35.11,35.11,0,0,0,4-1.7,17.74,17.74,0,0,0,3.46-2.17l.69-.58.71-.73.7-.73.68-.83c.93-1.06,1.8-2.27,2.67-3.45a78.73,78.73,0,0,0,4.73-7.64c1.43-2.67,2.7-5.43,4-8.17.65-1.37,1.31-2.74,2-4.09.33-.69.7-1.35,1-2,.17-.34.33-.68.52-1a2.18,2.18,0,0,1,1-.71l.76,4.17a2.07,2.07,0,0,0-.45-1.19l-.71-.92c-.47-.61-.95-1.23-1.45-1.82a43.93,43.93,0,0,0-3.2-3.34,25.23,25.23,0,0,0-3.5-2.85,33.68,33.68,0,0,1-3.53-2.63,41.22,41.22,0,0,1-3.17-3.38c-1-1.19-2.09-2.44-3.14-3.72C354.86,692.64,352.72,689.94,350.48,686.8Zm0-.6a64.91,64.91,0,0,1,7.53,4.56c1.28.88,2.57,1.8,3.86,2.78a42.5,42.5,0,0,1,3.83,3.12,49.51,49.51,0,0,1,3.47,3.87,32.84,32.84,0,0,0,3.5,3.65,47.84,47.84,0,0,0,3.8,3.16c.67.49,1.35,1,2.05,1.43l1,.7a2.35,2.35,0,0,0,1.3.44h0l.72,4.16a2.47,2.47,0,0,1,0,1.35c-.17.35-.37.69-.55,1-.37.69-.73,1.39-1.12,2.07-.77,1.36-1.59,2.7-2.43,4-1.71,2.63-3.53,5.19-5.33,7.77s-3.62,5.15-5.56,7.7a33.36,33.36,0,0,1-7,7.19,28.19,28.19,0,0,1-9.34,3.67,43.36,43.36,0,0,1-9.61,1,35.64,35.64,0,0,1-9.51-1.3,20.86,20.86,0,0,1-4.48-1.88,8.68,8.68,0,0,1-2-1.46,14.28,14.28,0,0,1-1.64-1.86,22.72,22.72,0,0,1-2.45-4.12,42.51,42.51,0,0,1-1.83-4.37c-.55-1.47-1-3-1.45-4.49s-.83-3-1.16-4.58a47.44,47.44,0,0,1-1.23-9.54,17.35,17.35,0,0,1,.64-5.28,5.47,5.47,0,0,1,.29-.75,4.73,4.73,0,0,1,.39-.78,8.8,8.8,0,0,1,.93-1.25,25.72,25.72,0,0,1,1.74-1.9c2.32-2.27,4.17-5,6.53-7a26.25,26.25,0,0,1,3.82-2.69c1.31-.84,2.66-1.63,4-2.41,2.7-1.55,5.45-3,8.3-4.34,1.42-.65,2.84-1.31,4.31-1.9.72-.31,1.46-.6,2.21-.87l1.12-.41.57-.19A4,4,0,0,1,350.52,686.2Z"/><path class="cls-2" d="M445.5,592.5s-24,4-35,10-45,55-54,58-15,22-6,38,20,19,39,14,54-41,56-50"/><path class="cls-3" d="M445.58,593c-5.66,1.43-11.29,3-16.83,4.75-2.78.86-5.5,1.85-8.19,2.85a58.66,58.66,0,0,0-7.71,3.47,13.55,13.55,0,0,0-1.65,1,6.5,6.5,0,0,0-.73.56c-.25.21-.5.39-.75.62-1,.9-2,1.87-3,2.9-1.93,2.05-3.8,4.24-5.64,6.46-3.7,4.44-7.31,9-10.9,13.61L379.32,643c-3.68,4.6-7.42,9.14-11.54,13.59-1,1.11-2.08,2.21-3.24,3.3a33.53,33.53,0,0,1-3.9,3.25c-.45.27-.81.53-1.33.81l-.88.41-.66.28a4.49,4.49,0,0,0-1.06.55,9.65,9.65,0,0,0-2.14,2,19.11,19.11,0,0,0-3.1,6.37,27.51,27.51,0,0,0-1.15,7.5,30.76,30.76,0,0,0,3.4,14.91c.27.57.64,1.16,1,1.75s.67,1.19,1,1.74c.74,1.11,1.47,2.24,2.29,3.24a23.33,23.33,0,0,0,5.45,5.21c4.07,2.71,9.18,3.67,14.6,3.24,1.35,0,2.72-.27,4.09-.41s2.75-.43,4.12-.76l2.07-.45c.69-.15,1.26-.35,1.89-.51l1.88-.66,1.88-.79a87.77,87.77,0,0,0,14.51-8.76c4.66-3.37,9.19-7,13.55-10.81s8.54-7.85,12.58-12c2-2.09,4-4.24,5.79-6.48.9-1.13,1.79-2.27,2.59-3.45a14.26,14.26,0,0,0,2-3.69l1,.22a15.68,15.68,0,0,1-1.73,4.23c-.7,1.32-1.52,2.56-2.34,3.8-1.67,2.45-3.46,4.8-5.31,7.1a167.9,167.9,0,0,1-11.88,13.13,173.8,173.8,0,0,1-13.14,12q-3.46,2.82-7.18,5.39a67.37,67.37,0,0,1-7.83,4.75l-2.12,1c-.74.31-1.47.61-2.23.9s-1.58.54-2.31.73l-2.2.58c-1.45.41-3,.68-4.46,1s-3,.56-4.62.67a44.28,44.28,0,0,1-4.77.26,35.71,35.71,0,0,1-4.9-.45,26.92,26.92,0,0,1-9.47-3.49,30.84,30.84,0,0,1-7.47-6.55,41.88,41.88,0,0,1-2.9-3.83c-.47-.65-.84-1.33-1.27-2s-.83-1.31-1.22-2A38.54,38.54,0,0,1,341.8,681a36.18,36.18,0,0,1,1.37-9.81,27.89,27.89,0,0,1,4.59-9.29,17.63,17.63,0,0,1,4.24-3.93,13.54,13.54,0,0,1,2.85-1.42l.2-.07.09,0h0l.05,0a.28.28,0,0,1,.12,0c.12-.06.36-.23.54-.34a24,24,0,0,0,2.85-2.34c.49-.45,1-.93,1.48-1.42s1-1,1.48-1.48c3.94-4,7.73-8.46,11.56-12.84l11.44-13.29c3.87-4.41,7.75-8.83,11.82-13.15,2.05-2.14,4.15-4.26,6.39-6.31,1.11-1,2.28-2,3.53-3,.32-.24.67-.47,1-.71a9,9,0,0,1,1.07-.69,17.71,17.71,0,0,1,2.2-1.08,64.1,64.1,0,0,1,8.6-3c2.87-.81,5.77-1.46,8.66-2.05A175.94,175.94,0,0,1,445.42,592Z"/><path class="cls-2" d="M495.5,572.5S438,590.06,433.74,592.78,425.5,753.5,400.5,767.5c0,0,17,19,86,26s163-19,164-19-20-150-28-172-29-49-29-49"/><path class="cls-3" d="M495.65,573q-14.58,4.69-29.12,9.53c-4.84,1.62-9.68,3.24-14.5,4.91s-9.66,3.33-14.35,5.18l-1.73.71c-.32.12-.52.25-.77.36l-.36.18-.18.09c-.05,0-.19.12.05-.06l.09-.11,0,0,0,.07a2.92,2.92,0,0,0-.11.32c-.07.25-.13.53-.19.82-.12.57-.22,1.18-.32,1.8-.35,2.46-.6,5-.84,7.52-.46,5.07-.84,10.16-1.22,15.25l-2.27,30.57c-1.62,20.39-3.47,40.78-6.41,61.13-1.51,10.17-3.25,20.33-5.78,30.44a114.78,114.78,0,0,1-4.8,15.1,48.35,48.35,0,0,1-3.73,7.44,20.11,20.11,0,0,1-6.61,6.86h0l1.05-6.28.41.37c.15.16.4.34.59.51.4.35.86.68,1.32,1,.88.7,1.93,1.31,2.88,2s2.05,1.22,3.1,1.8l3.22,1.68c2.22,1,4.4,2.08,6.71,3s4.59,1.77,6.92,2.6a207.54,207.54,0,0,0,28.95,7.43c9.83,1.94,19.83,3.21,29.83,4.31l7.47.55c2.49.17,5,.42,7.49.42l7.52.15c1.25,0,2.5.08,3.76.07l3.77-.09a490.55,490.55,0,0,0,60.26-5.14c2.5-.32,5-.72,7.5-1.12l7.49-1.2c5-.87,10-1.71,14.94-2.68,10-1.86,19.86-4,29.73-6.25l7.39-1.75,3.75-.91c.51-.12,1-.22,1.54-.3l.39,0c-1.36-.34-4.87,4.54-3.31,2.9a.86.86,0,0,0,0,.22V774c0-.53-.08-1.16-.14-1.77-.48-5-1.1-10-1.71-15.06q-1.87-15.12-3.92-30.23c-2.7-20.16-5.61-40.28-8.61-60.39-1.5-10.05-3.06-20.1-4.75-30.11q-1.26-7.51-2.66-15c-1-5-1.94-10-3.19-14.81-.31-1.21-.65-2.41-1-3.55l-1.31-3.51c-.43-1.18-1-2.32-1.45-3.48s-1-2.3-1.56-3.44c-2.13-4.56-4.52-9-7.07-13.41s-5.21-8.69-8-12.93-5.65-8.45-8.64-12.53l.78-.62a270.76,270.76,0,0,1,17.66,25c2.71,4.33,5.28,8.76,7.61,13.34.59,1.14,1.18,2.28,1.7,3.46s1.12,2.31,1.61,3.52l1.47,3.59c.47,1.25.86,2.49,1.22,3.73,1.42,5,2.53,9.95,3.62,14.94s2.09,10,3.07,15c1.95,10,3.77,20,5.54,30.06,3.52,20.06,6.7,40.17,9.81,60.3q2.31,15.09,4.48,30.22c.71,5.06,1.42,10.08,2,15.23.07.66.14,1.3.19,2a6.78,6.78,0,0,1,0,.73,3.35,3.35,0,0,1,0,.45c1.55-1.56-1.95,3.43-3.4,3.1l-.08.06a1.27,1.27,0,0,1-.32.13l-3.65.93L639,780.86c-9.93,2.4-19.9,4.66-29.93,6.66-5,1-10,1.93-15.07,2.87l-7.56,1.29c-2.52.44-5,.87-7.58,1.23a462.15,462.15,0,0,1-61.25,5.75l-3.86.1c-1.28,0-2.57,0-3.86,0l-7.74-.13c-2.58,0-5.17-.23-7.75-.4l-7.75-.53c-10.22-1.1-20.44-2.3-30.58-4.31a215.12,215.12,0,0,1-30.1-7.81c-2.46-.88-4.93-1.73-7.36-2.77s-4.83-2.11-7.23-3.23l-3.54-1.88c-1.17-.65-2.32-1.37-3.48-2.06s-2.29-1.48-3.41-2.36c-.56-.42-1.12-.84-1.68-1.33-.28-.25-.55-.45-.85-.74s-.53-.47-1-.95l-3.26-3.54,4.31-2.74h0a12.56,12.56,0,0,0,3.94-4.06,41.64,41.64,0,0,0,3.3-6.15,109.27,109.27,0,0,0,4.87-14c2.72-9.64,4.73-19.59,6.5-29.57,3.5-20,5.94-40.27,8.15-60.55l3.16-30.47c.53-5.08,1.05-10.17,1.67-15.26.31-2.55.64-5.09,1.09-7.67.11-.65.24-1.3.4-2,.08-.34.17-.68.28-1,.06-.18.13-.38.22-.59a2.71,2.71,0,0,1,.58-.88,1.22,1.22,0,0,1,.45-.31l.25-.12.5-.24a8.79,8.79,0,0,1,1-.43l1.84-.7c4.86-1.75,9.73-3.26,14.62-4.8s9.77-3,14.66-4.49q14.67-4.41,29.39-8.68Z"/><path class="cls-5" d="M458.5,589.5s33,44,41,44,48-61,48-61Z"/><path class="cls-3" d="M458.5,589.5l11.73,12.84c3.88,4.28,7.85,8.48,11.82,12.63a167.28,167.28,0,0,0,12.29,11.77,36,36,0,0,0,3.18,2.38A9.48,9.48,0,0,0,499,630c.11.06.21.09.3.13a1,1,0,0,0,.23.06c.13.05.13,0-.07,0s-.29,0-.26,0h0l.07,0,.2-.12.27-.18a13.72,13.72,0,0,0,1.31-1.08c.93-.85,1.88-1.82,2.8-2.83,3.68-4.1,7.17-8.66,10.59-13.23s6.77-9.25,10.1-13.95c6.63-9.38,13.18-18.9,19.64-28.41l4.1,6.13c-7.16,1.27-14.31,2.47-21.53,3.58s-14.5,2.14-21.91,3.17l-22.68,3-11.68,1.6Zm0,0,42.69-10.68c7.42-1.81,15-3.61,22.59-5.33s15.29-3.36,23-4.92l9.25-1.89-5.15,8q-9.45,14.68-19.64,28.81c-3.42,4.71-6.92,9.37-10.55,14A159.55,159.55,0,0,1,509,630.87a46.52,46.52,0,0,1-3.46,3.17,19.23,19.23,0,0,1-2.15,1.53c-.19.13-.42.25-.66.38a6.86,6.86,0,0,1-.76.36l-.43.18-.54.16a3.5,3.5,0,0,1-.59.13,6,6,0,0,1-.74.07,6.35,6.35,0,0,1-2.19-.36,14.16,14.16,0,0,1-1.47-.65,17,17,0,0,1-2.22-1.44,37.47,37.47,0,0,1-3.56-3.07,136.9,136.9,0,0,1-11.71-13.28A318.92,318.92,0,0,1,458.5,589.5Z"/><path class="cls-10" d="M422.5,691.5H639.07v18s-90.57,34-135.57,28-85.32-14.84-85.32-14.84Z"/><path class="cls-3" d="M442.5,713.5a156.19,156.19,0,0,0,17.39,2.92c5.82.7,11.66,1.15,17.51,1.39,2.92.16,5.84.15,8.76.24s5.85,0,8.77-.06c5.85-.16,11.69-.41,17.51-1s11.66-1.1,17.48-1.83,11.62-1.56,17.42-2.43,11.55-2,17.26-3.33a112.3,112.3,0,0,0,16.9-4.94,56,56,0,0,1-8,3.85c-1.37.56-2.76,1.08-4.16,1.56s-2.81,1-4.22,1.43c-5.66,1.78-11.41,3.24-17.2,4.49A297.22,297.22,0,0,1,512.77,721c-5.92.48-11.86.71-17.8.74-3,0-5.94-.11-8.9-.21s-5.94-.31-8.89-.64a158.6,158.6,0,0,1-17.61-2.56A104.87,104.87,0,0,1,442.5,713.5Z"/><path class="cls-11" d="M577.5,727.5s42,62,94,59,66-59,66-59-59,1-87-29"/><path class="cls-3" d="M577.71,727.36a252,252,0,0,0,17.69,19.22,200.93,200.93,0,0,0,19.6,17c1.7,1.32,3.49,2.52,5.24,3.78s3.55,2.43,5.39,3.53,3.68,2.21,5.52,3.31c.92.56,1.88,1,2.82,1.54s1.88,1,2.85,1.49l2.89,1.41,2.95,1.29,1.47.64,1.51.56c1,.37,2,.77,3,1.12a70.84,70.84,0,0,0,12.54,3,57,57,0,0,0,12.93.25,58.39,58.39,0,0,0,6.43-.87c2.09-.52,4.23-.9,6.27-1.63s4.06-1.45,6.07-2.25l2.9-1.42c1-.46,1.88-1,2.82-1.57A63.66,63.66,0,0,0,709,770.16a86.51,86.51,0,0,0,16-19.92,95.7,95.7,0,0,0,5.79-11.43c.85-1.95,1.62-3.95,2.34-5.95s1.38-4.08,1.86-6l2.59,3.26c-4.08.08-8-.15-12-.41s-7.91-.73-11.83-1.31a154.73,154.73,0,0,1-23.26-5.2c-3.79-1.21-7.54-2.54-11.21-4.09a104.51,104.51,0,0,1-10.7-5.33,80.66,80.66,0,0,1-9.82-6.76,64.51,64.51,0,0,1-8.42-8.35l.36-.34a77.64,77.64,0,0,0,9.16,7.19,93.61,93.61,0,0,0,10.1,5.66,120.09,120.09,0,0,0,21.75,7.75c3.73,1,7.51,1.8,11.3,2.51s7.61,1.33,11.44,1.79,7.68.84,11.53,1.15,7.75.45,11.5.5l3.48,0-.89,3.22c-.65,2.3-1.38,4.36-2.18,6.48s-1.66,4.18-2.62,6.2a99.55,99.55,0,0,1-6.42,11.79A78.28,78.28,0,0,1,711,772.56a68.55,68.55,0,0,1-23.69,12c-2.12.67-4.3,1.08-6.45,1.56l-3.28.51c-1.09.21-2.19.3-3.29.41a75.5,75.5,0,0,1-13.28.21l-3.32-.31c-1.11-.08-2.2-.32-3.3-.48-2.22-.28-4.38-.84-6.56-1.3a85.59,85.59,0,0,1-12.68-4.29,88.35,88.35,0,0,1-11.86-6.18c-1.92-1.14-3.76-2.4-5.59-3.66s-3.61-2.6-5.33-4-3.46-2.78-5.15-4.22-3.32-2.94-4.91-4.48c-3.23-3-6.29-6.22-9.23-9.52a142.61,142.61,0,0,1-15.78-21.16Z"/><path class="cls-12" d="M597,552l-59,21s27,179,30,184,96-5,100-8-33-149-36-164-26-37-26-37Z"/><path class="cls-12" d="M465,585,443,758l-48-20s33-115,35-126,0-27,0-27Z"/><path class="cls-13" d="M404.5,834.5,433.84,856S420.5,877.5,418.5,881.5l-18-7S398.5,845.5,404.5,834.5Z"/><path class="cls-3" d="M404.45,834.26c2.34,1.24,4.82,2.66,7.36,4.17s5.16,3.12,7.78,4.82,5.27,3.47,7.85,5.36,5,4,7.39,6.07l1.27,1.14-.84,1.1c-1.51,2-3,3.94-4.49,6s-2.81,4.09-4.08,6.22-2.48,4.29-3.6,6.5-2.22,4.48-3.13,6.64l-.52,1.24-1.53-.44c-1.56-.45-3.1-.91-4.64-1.4s-3.06-1-4.59-1.53c-3-1.06-6.09-2.1-9.11-3.2l-1.48-.53-.16-1.69a93.63,93.63,0,0,1-.4-10.3,101.17,101.17,0,0,1,.67-10.28,71.41,71.41,0,0,1,1.87-10.2,45.65,45.65,0,0,1,1.66-4.95c.37-.8.74-1.59,1.13-2.37A23.59,23.59,0,0,1,404.45,834.26Zm.1.48c-.26.91-.32,1.65-.51,2.29-.14.83-.3,1.65-.46,2.45-.2,1.66-.45,3.28-.53,4.94-.25,3.3-.35,6.62-.34,10s.05,6.65.12,10l.24,10-1.64-2.22c3,1.24,5.93,2.53,8.89,3.8,1.47.66,2.95,1.28,4.41,2s2.91,1.39,4.36,2.1l-2,.8c1.4-2.23,2.87-4.17,4.27-6.24s2.79-4.12,4.09-6.23,2.54-4.26,3.69-6.46,2.22-4.45,3.32-6.69l.43,2.24a81.52,81.52,0,0,1-7.27-4.7c-2.31-1.7-4.56-3.52-6.83-5.4s-4.54-3.86-6.88-5.95S407.1,837.09,404.55,834.74Z"/><path class="cls-14" d="M401.5,875.5s-40,25-41,32,6,12,11,13,57-10,58-14-7-24-9-25-17.43-6-17.43-6"/><path class="cls-13" d="M602.5,856.5l46.61-12.93,8.39,37.93h-27S608.5,855.5,602.5,856.5Z"/><path class="cls-3" d="M602.26,856.55c3.27-1,6.77-2.13,10.36-3.43L624,848.94c4-1.4,8-2.86,12.28-3.93s8.43-1.92,12.5-2.7l1.46-.29.17,1.27c.45,3.22,1,6.42,1.58,9.6.31,1.58.67,3.16,1,4.74s.75,3.15,1.16,4.71c.81,3.14,1.74,6.25,2.66,9.36s1.86,6.22,2.71,9.35l.66,2.43-2.7.11c-4.5.19-9,.3-13.5.43s-9,.21-13.5.15l-1.26,0-.78-.93-6.05-7.2q-3.06-3.6-6.17-7.14c-2.09-2.35-4.2-4.67-6.4-6.89-1.11-1.09-2.22-2.18-3.42-3.15a15,15,0,0,0-1.85-1.34,7.72,7.72,0,0,0-1-.51l-.52-.18A2.35,2.35,0,0,1,602.26,856.55Zm.48-.1c.23-.09.3-.26.39-.29s.43,0,.64,0a6.32,6.32,0,0,1,1.25.28,14.2,14.2,0,0,1,2.3,1,37.6,37.6,0,0,1,4.17,2.57A86.85,86.85,0,0,1,619,866.1c1.19,1.08,2.38,2.16,3.54,3.26l3.42,3.38c2.26,2.28,4.42,4.6,6.56,7l-2-.95c4.5-.06,9,0,13.5.15s9,.24,13.5.43l-2,2.54c-.55-3.19-1-6.4-1.49-9.62s-.94-6.42-1.53-9.6c-.29-1.6-.6-3.19-.94-4.77s-.67-3.16-1.06-4.74c-.77-3.14-1.66-6.26-2.61-9.36l1.63,1c-3.7,1.37-7.24,2.73-10.81,3.76a112.92,112.92,0,0,1-11,2.53l-5.84,1.1c-2,.37-4,.76-6.1,1.19C611.5,854.27,607.24,855.26,602.74,856.45Z"/><path class="cls-14" d="M630.5,881.5s1,11,3,16,50,16,52,10-7-15-11-19-16.37-7.68-17.19-7.84S630.5,881.5,630.5,881.5Z"/><path class="cls-15" d="M464.5,615.5s8,6,5,12a7.46,7.46,0,0,1-9,4Z"/><path class="cls-3" d="M464.5,615.5a14.57,14.57,0,0,1,5.12,4,10.68,10.68,0,0,1,1.72,3,7.64,7.64,0,0,1,.37,3.79,8.13,8.13,0,0,1-.54,1.91,12.26,12.26,0,0,1-.88,1.63,8.61,8.61,0,0,1-6.53,3.92,10.25,10.25,0,0,1-1.92,0,10,10,0,0,1-1.95-.42h0a1.87,1.87,0,0,1-1.23-2.29,86.3,86.3,0,0,1,2.85-8.45c.54-1.32,1.06-2.6,1.58-3.77S464.05,616.51,464.5,615.5Zm0,0c-.22,1.65-.4,3.21-.56,4.69l-.42,4.23a67.93,67.93,0,0,1-1.15,7.55l-1.26-2.3a8.21,8.21,0,0,0,1.09.15,7.71,7.71,0,0,0,1.18,0,5.72,5.72,0,0,0,2.12-.66,5.66,5.66,0,0,0,1.7-1.49,8,8,0,0,0,.69-1,4.92,4.92,0,0,0,.44-1,7.14,7.14,0,0,0-.61-4.94A26.44,26.44,0,0,0,464.5,615.5Z"/><path class="cls-15" d="M466.5,628.5s10-6,12,3-4,10-8,9-4-9-4-9"/><path class="cls-3" d="M466.5,628.5a12.57,12.57,0,0,1,4.58-2.76,9,9,0,0,1,2.88-.45,6.32,6.32,0,0,1,3.11.92,6.67,6.67,0,0,1,2.28,2.42,10.3,10.3,0,0,1,1.07,2.84,12.39,12.39,0,0,1,.15,6,7.46,7.46,0,0,1-1.69,3.05,7,7,0,0,1-3,1.79,9.23,9.23,0,0,1-3.14.3,12,12,0,0,1-1.48-.22,5.83,5.83,0,0,1-.72-.18,4.5,4.5,0,0,1-.77-.27,4.87,4.87,0,0,1-2.54-2.31,8.6,8.6,0,0,1-.92-2.77,14.15,14.15,0,0,1,.19-5.32,27.68,27.68,0,0,0,1.69,4.75c.68,1.41,1.69,2.64,2.57,2.67a2.67,2.67,0,0,0,.45.07,4.9,4.9,0,0,0,.54,0,7.51,7.51,0,0,0,1.06,0,6.82,6.82,0,0,0,1.9-.37,3.16,3.16,0,0,0,2-2.28,10.22,10.22,0,0,0,0-4.17,5.7,5.7,0,0,0-1.46-3.46,3.89,3.89,0,0,0-1.61-.87,8.21,8.21,0,0,0-2.21-.22A20.59,20.59,0,0,0,466.5,628.5Z"/><path class="cls-15" d="M475.5,636.5s-3,14,6,13,5-13,2-14"/><path class="cls-3" d="M475.5,636.5a32.3,32.3,0,0,0,1.48,8.32,4.38,4.38,0,0,0,1.86,2.39,4.49,4.49,0,0,0,2.89.23,4.26,4.26,0,0,0,2.58-1.28,5.29,5.29,0,0,0,1.15-3,13.54,13.54,0,0,0-.23-3.93,11.11,11.11,0,0,0-.58-2,4,4,0,0,0-1.15-1.76,3.59,3.59,0,0,1,2.06,1.13,9.69,9.69,0,0,1,1.49,1.89,11.35,11.35,0,0,1,1.55,4.63,7.73,7.73,0,0,1-1.27,5.31,6.91,6.91,0,0,1-2.24,2,8.69,8.69,0,0,1-2.66.92,9.7,9.7,0,0,1-2.76.09,6.62,6.62,0,0,1-2.85-1.06,6.26,6.26,0,0,1-2-2.24,8.55,8.55,0,0,1-.87-2.53,13.68,13.68,0,0,1,.1-4.79A16,16,0,0,1,475.5,636.5Z"/><path class="cls-15" d="M483.5,644.5s-2,10,8,8,1-11-1-12"/><path class="cls-3" d="M483.5,644.5a15.45,15.45,0,0,0,1,3.65,4.42,4.42,0,0,0,1.87,2.26,6.14,6.14,0,0,0,.59.25,5.61,5.61,0,0,1,.62.16,7.85,7.85,0,0,0,1.46,0,6.83,6.83,0,0,0,.78-.06l.82-.15a8,8,0,0,0,1.57-.37,3.63,3.63,0,0,0,1.94-1.13,1.44,1.44,0,0,0,.23-.85,4.73,4.73,0,0,0-.23-1.39,15.88,15.88,0,0,0-1.47-3.2,21.25,21.25,0,0,0-2.15-3.19,9.67,9.67,0,0,1,3.62,1.89,11.54,11.54,0,0,1,2.85,3.18,6.59,6.59,0,0,1,.88,2.29,4.86,4.86,0,0,1-.32,2.92,5.29,5.29,0,0,1-1.9,2.22,8.56,8.56,0,0,1-2.23,1.07,11.56,11.56,0,0,1-2.19.46,10.43,10.43,0,0,1-2.25.1,9,9,0,0,1-2.36-.43c-.4-.17-.79-.36-1.17-.55a6.63,6.63,0,0,1-1-.79,6,6,0,0,1-1.83-4.33A8.52,8.52,0,0,1,483.5,644.5Z"/><path class="cls-15" d="M492.5,646.5s9-13,15-4-11,10-11,10"/><path class="cls-3" d="M492.5,646.5a17.4,17.4,0,0,1,2.4-4.26,14,14,0,0,1,3.76-3.49,8.78,8.78,0,0,1,2.64-1.08,6.9,6.9,0,0,1,3.16.05,7.34,7.34,0,0,1,2.77,1.49,10.65,10.65,0,0,1,1.91,2.15,10.46,10.46,0,0,1,1.27,2.62,6.16,6.16,0,0,1,.11,3.34,5.74,5.74,0,0,1-1.76,2.83,8.44,8.44,0,0,1-2.43,1.5,15.7,15.7,0,0,1-5,1.11,18.89,18.89,0,0,1-4.87-.26c1.53-.56,3-1,4.44-1.65a22.1,22.1,0,0,0,3.92-2,4,4,0,0,0,2-2.41,4.53,4.53,0,0,0-1-2.87,5.69,5.69,0,0,0-2.45-2.24,4.73,4.73,0,0,0-3.31.21,17.27,17.27,0,0,0-3.8,2.09C495,644.5,493.77,645.49,492.5,646.5Z"/><path class="cls-15" d="M506.5,640.5s9-13,15-4-11,10-11,10"/><path class="cls-3" d="M506.5,640.5a17.4,17.4,0,0,1,2.4-4.26,14,14,0,0,1,3.76-3.49,8.78,8.78,0,0,1,2.64-1.08,6.9,6.9,0,0,1,3.16.05,7.34,7.34,0,0,1,2.77,1.49,10.65,10.65,0,0,1,1.91,2.15,10.46,10.46,0,0,1,1.27,2.62,6.16,6.16,0,0,1,.11,3.34,5.74,5.74,0,0,1-1.76,2.83,8.44,8.44,0,0,1-2.43,1.5,15.7,15.7,0,0,1-5,1.11,18.89,18.89,0,0,1-4.87-.26c1.53-.56,3-1,4.44-1.65a22.1,22.1,0,0,0,3.92-2,4,4,0,0,0,2-2.41,4.53,4.53,0,0,0-1-2.87,5.69,5.69,0,0,0-2.45-2.24,4.73,4.73,0,0,0-3.31.21,17.27,17.27,0,0,0-3.8,2.09C509,638.5,507.77,639.49,506.5,640.5Z"/><path class="cls-15" d="M519.5,633.5s9-13,15-4-11,10-11,10"/><path class="cls-3" d="M519.5,633.5a17.4,17.4,0,0,1,2.4-4.26,14,14,0,0,1,3.76-3.49,8.78,8.78,0,0,1,2.64-1.08,6.9,6.9,0,0,1,3.16.05,7.34,7.34,0,0,1,2.77,1.49,10.65,10.65,0,0,1,1.91,2.15,10.46,10.46,0,0,1,1.27,2.62,6.16,6.16,0,0,1,.11,3.34,5.74,5.74,0,0,1-1.76,2.83,8.44,8.44,0,0,1-2.43,1.5,15.7,15.7,0,0,1-5,1.11,18.89,18.89,0,0,1-4.87-.26c1.53-.56,3-1,4.44-1.65a22.1,22.1,0,0,0,3.92-2,4,4,0,0,0,2-2.41,4.53,4.53,0,0,0-1-2.87,5.69,5.69,0,0,0-2.45-2.24,4.73,4.73,0,0,0-3.31.21,17.27,17.27,0,0,0-3.8,2.09C522,631.5,520.77,632.49,519.5,633.5Z"/><path class="cls-15" d="M528.5,625.5s9-13,15-4-11,10-11,10"/><path class="cls-3" d="M528.5,625.5a17.4,17.4,0,0,1,2.4-4.26,14,14,0,0,1,3.76-3.49,8.78,8.78,0,0,1,2.64-1.08,6.9,6.9,0,0,1,3.16.05,7.34,7.34,0,0,1,2.77,1.49,10.65,10.65,0,0,1,1.91,2.15,10.46,10.46,0,0,1,1.27,2.62,6.16,6.16,0,0,1,.11,3.34,5.74,5.74,0,0,1-1.76,2.83,8.44,8.44,0,0,1-2.43,1.5,15.7,15.7,0,0,1-5,1.11,18.89,18.89,0,0,1-4.87-.26c1.53-.56,3-1,4.44-1.65a22.1,22.1,0,0,0,3.92-2,4,4,0,0,0,2-2.41,4.53,4.53,0,0,0-1-2.87,5.69,5.69,0,0,0-2.45-2.24,4.73,4.73,0,0,0-3.31.21,17.27,17.27,0,0,0-3.8,2.09C531,623.5,529.77,624.49,528.5,625.5Z"/><path class="cls-16" d="M285.5,718.5s5,11,11,12,59-51,56-54-10-10-13-10S285.5,718.5,285.5,718.5Z"/><path class="cls-2" d="M299.5,704.5s-29-17-33-18-74,13-94-54,26-93,26-93,12,38,25,53,44,20,44,20l55.13,69Z"/><g class="cls-17"><path class="cls-18" d="M189.5,597.5l118.74,98.29s-12.84,12.55-11.79,11.63S180.5,700.5,178.5,700.5s-24-127-24-130,6-12,7-9S189.5,597.5,189.5,597.5Z"/><path class="cls-3" d="M189.71,597.29c9.88,8.2,20,16.18,30.21,24s20.53,15.56,30.59,23.54c5.07,3.95,10,8,15,12.07s9.88,8.18,14.73,12.37c9.77,8.3,19.33,16.86,29,25.31l.06.06a1.51,1.51,0,0,1,.14,2.13.57.57,0,0,1-.11.11l-7.47,6.91c-1.25,1.14-2.48,2.32-3.7,3.49l-.88.86s-.06.06,0,0c-2.77-3.34-1.1-.72-1.58-1.55-.71.14.33,2.72.25,1.81l.08,0-.19,0-.58-.09c-.81-.12-1.66-.21-2.49-.29-3.36-.37-6.75-.6-10.13-.85s-6.76-.5-10.15-.67c-13.54-.85-27.1-1.29-40.67-1.69s-27.14-.69-40.7-1.15L181,703.29l-2.48-.08c0-.06.32.15-1-.2-1.14-.58-.87-.61-1.14-.82a3.08,3.08,0,0,1-.28-.4l-.15-.25c-.11-.23-.19-.42-.24-.55-.12-.3-.19-.54-.27-.78-.15-.46-.27-.9-.39-1.33-.47-1.72-.86-3.38-1.24-5-1.52-6.68-2.88-13.33-4.22-20-5.44-26.63-10.05-53.39-14.08-80.25-.95-6.73-1.88-13.45-2.63-20.24l-.14-1.29-.06-.66,0-.35v-.2l0-.3a6.09,6.09,0,0,1,.35-1.8,10.85,10.85,0,0,1,.56-1.37,23.75,23.75,0,0,1,2.9-4.65,14.88,14.88,0,0,1,1.93-2.08,5.49,5.49,0,0,1,1.48-1,2.38,2.38,0,0,1,1.57-.12,2.15,2.15,0,0,1,.9.53,2.46,2.46,0,0,1,.43.66l.12.3c0,.06,0,.07.05.11l.1.19c.08.13.11.25.2.41l.64,1c.42.7.91,1.4,1.37,2.1C172.84,576,181.25,586.78,189.71,597.29Zm-.42.42c-4.39-5.26-8.63-10.5-13-15.69s-8.75-10.38-13-15.71c-.52-.69-1.06-1.33-1.58-2l-.78-1.07c-.13-.19-.28-.47-.41-.7l-.2-.37-.1-.18h0a.27.27,0,0,0,.08.13.81.81,0,0,0,.36.22c.29.08.39,0,.33.05a3.61,3.61,0,0,0-.57.5,12.2,12.2,0,0,0-1.38,1.77,20.84,20.84,0,0,0-2.16,4.16,8.29,8.29,0,0,0-.32,1,2,2,0,0,0-.09.7l.41,2.25,4,19.93c2.6,13.31,5,26.66,7.48,40l7.12,40.05c1.21,6.66,2.43,13.33,3.79,19.92.34,1.64.69,3.29,1.08,4.85.1.39.2.78.3,1.12l.14.43c0,.06,0,.07,0,0l-.06-.11s-.05-.08-.2-.27.06-.15-1-.72c-1.29-.33-.87-.12-.86-.18l2.61.14,10.17.65c13.54.91,27.07,2.07,40.61,3.13s27.06,2.14,40.61,2.94L293,705.9c.85.06,1.7.12,2.57.21l.68.08.43.09a.9.9,0,0,1,.24.08c0-.9,1.06,1.74.28,1.91-.5-.82,1.07,1.91-1.65-1.49l.12-.15.91-1,3.55-3.66,7.07-7.33.09,2.3c-10.12-7.93-20.35-15.76-30.38-23.83-5-4-10-8.13-14.95-12.21s-9.86-8.26-14.69-12.51c-9.73-8.4-19.22-17.05-28.78-25.6S199.2,605.89,189.29,597.71Z"/></g><path class="cls-19" d="M299.5,704.5s-29-17-33-18-74,13-94-54,26-93,26-93,12,38,25,53,44,20,44,20l55.13,69Z"/><path class="cls-16" d="M375.5,727.5s14,9,20,11,7-4,9,0-25,26-29,26-15.1-22-15.1-22Z"/><path class="cls-5" d="M489,591s-27,4-85,0-118-34-118-44,32-42,33-46-14-109-14-109l64-63H615s50,112,49,109,0,60,0,60-58,75-132,81"/><path class="cls-3" d="M489,591.3A225.51,225.51,0,0,1,465.29,594c-2,.14-4,.25-6,.35s-4,.21-6,.28c-4,.16-8,.21-11.94.3q-12,.15-23.91-.2c-4-.07-8-.25-11.94-.41s-8.05-.44-12.05-.84a225.91,225.91,0,0,1-23.88-3.62c-7.89-1.63-15.71-3.55-23.43-5.87A200.79,200.79,0,0,1,302,564.62a111.91,111.91,0,0,1-10.24-6.78,40.48,40.48,0,0,1-4.83-4.17,17.82,17.82,0,0,1-2.23-2.73,10,10,0,0,1-.5-.87,6.8,6.8,0,0,1-.44-1,6.67,6.67,0,0,1-.32-1.23q0-.36-.06-.72a4.79,4.79,0,0,1,0-.57c0-.35.07-.72.12-1.06l.23-.92a15.39,15.39,0,0,1,.57-1.7,27,27,0,0,1,1.41-3c1-1.87,2.15-3.59,3.31-5.28,2.34-3.34,4.82-6.5,7.37-9.6,5.07-6.19,10.41-12.11,15.59-18.07,1.28-1.49,2.57-3,3.74-4.49.28-.37.59-.75.82-1.11a5,5,0,0,0,.34-.51l.14-.23c.06-.09,0-.05,0-.08s0-.12,0-.17a2.07,2.07,0,0,0,0-.26v-.34c0-.43,0-.92-.06-1.4-.24-3.87-.66-7.84-1.07-11.77-1.69-15.75-3.6-31.51-5.64-47.25s-4.05-31.49-6.28-47.2l-.08-.5.37-.36,32.06-31.43,31.89-31.61.31-.31H369c10.25,0,20.5-.16,30.75-.24l30.75-.31,61.5-.7c20.5-.19,41-.42,61.5-.5s41-.26,61.5-.27h0l1.94,0,.88,1.85q9.63,20.33,19,40.77l9.39,20.43,9.31,20.47,9.26,20.46c.78,1.7,1.59,3.4,2.2,5.14l.22.64a3.59,3.59,0,0,1,.15.5l0,0-.14-.22c.78-2.88-12.61,4.59-6.9,3.11a2.07,2.07,0,0,0,.09.27c0,.1.08.19.12.29a4.7,4.7,0,0,0,.55.84c-.07.34,2.91,2.14,4.43,1,2.19-1.46,1.27-1.15,1.81-1.71a2.65,2.65,0,0,0,.19-.47,1.24,1.24,0,0,0,.06-.22,1.16,1.16,0,0,0,0-.16c0-.06,0-.06,0-.05a2.13,2.13,0,0,0-.13.45c-.18.8-.34,1.73-.48,2.64a42.78,42.78,0,0,0-.41,5.55l-.16,5.61c-.16,7.47-.34,15-.33,22.46s0,15,.14,22.48h0v.73l-.45.64A168.14,168.14,0,0,1,653,514.88c-2.25,2.47-4.55,4.9-6.93,7.25s-4.75,4.7-7.23,7a228.16,228.16,0,0,1-31.76,24.52,182.6,182.6,0,0,1-35.89,17.93l-4.75,1.63c-1.6.51-3.21,1-4.82,1.42l-2.41.7-2.44.58c-1.63.37-3.24.8-4.89,1.1A125.2,125.2,0,0,1,532,579.3l0-.6a151.05,151.05,0,0,0,19.3-4.08A165.86,165.86,0,0,0,569.76,568a201,201,0,0,0,34.18-19.08c5.39-3.7,10.6-7.65,15.72-11.72l3.8-3.1,3.74-3.17c2.48-2.13,5-4.26,7.37-6.47a378.09,378.09,0,0,0,27.7-27.78l-.45,1.37h0c-.17-15-.65-30-1.08-45l-.13-5.64c0-1.89-.09-3.77-.27-5.69-.08-1-.19-1.91-.25-3,0-.28,0-.54,0-1a3.67,3.67,0,0,1,0-.39c0-.05,0-.22.06-.33a3.1,3.1,0,0,1,.09-.31,2.86,2.86,0,0,1,.23-.55c.55-.58-.37-.3,1.86-1.78,1.53-1.17,4.55.66,4.49,1a4.88,4.88,0,0,1,.6.92c.06.12.11.24.16.37s0,.11.11.35c5.73-1.45-7.67,6.05-6.91,3.13l-.19-.29-.07-.12-.84-1.39a54.45,54.45,0,0,1-2.5-5.09L648,412.79l-9.12-20.56-9-20.62q-9-20.61-17.7-41.35l2.82,1.83h0c-20.5,0-41-.16-61.5-.27s-41-.31-61.5-.5l-61.5-.7-30.75-.31c-10.25-.08-20.5-.24-30.75-.24l.75-.31-32.11,31.39L305.7,392.72l.29-.86c4.54,31.43,9.29,62.8,13.53,94.31.5,4,1,7.88,1.37,11.92,0,.51.09,1,.1,1.57l0,.4a5.5,5.5,0,0,1-.21,1.77,4.65,4.65,0,0,1-.26.61l-.23.41c-.16.3-.31.51-.46.74-.31.48-.61.87-.92,1.31-1.23,1.65-2.5,3.2-3.77,4.74-5.08,6.15-10.23,12.15-15.07,18.36-2.43,3.09-4.77,6.23-6.91,9.45-1.05,1.61-2.05,3.24-2.9,4.87a24.33,24.33,0,0,0-1.09,2.43,11,11,0,0,0-.35,1.13l-.12.53,0,.42a.62.62,0,0,0,0,.17v0c0,.05,0,.09.07.2a1.82,1.82,0,0,0,.17.35,4.42,4.42,0,0,0,.26.41,12.72,12.72,0,0,0,1.59,1.81,36.46,36.46,0,0,0,4.3,3.45,89.7,89.7,0,0,0,9.95,5.83,214.25,214.25,0,0,0,21.49,9.25q11,4.11,22.16,7.68a273.13,273.13,0,0,0,45.64,10.65c3.88.54,7.73,1,11.67,1.29s7.88.73,11.82,1c7.89.64,15.78,1.09,23.68,1.53,4,.18,7.91.37,11.86.47q3,.12,5.94.18c2,0,4,.09,5.93.09,7.91.07,15.85.06,23.75-.51Z"/><path class="cls-20" d="M662,434s-67-52-82-59-211-46-211-46l37-58L744,385s-6,39-9,43S662,434,662,434Z"/><path class="cls-3" d="M662,434a173.62,173.62,0,0,1-17.34-9.95c-5.57-3.57-11-7.34-16.31-11.24-10.62-7.82-21.28-15.59-32.1-23-2.72-1.84-5.42-3.7-8.16-5.45-1.36-.89-2.73-1.77-4.1-2.58s-2.74-1.7-4.06-2.34l-1-.52a5.61,5.61,0,0,0-1-.46c-.62-.22-1.19-.47-2-.7s-1.47-.47-2.24-.69l-2.33-.65c-3.12-.86-6.3-1.66-9.49-2.44-12.76-3.11-25.66-6-38.54-8.77s-25.8-5.63-38.71-8.39l-38.75-8.28c-25.83-5.53-51.67-11-77.47-16.75l-4.06-.9,2.24-3.37h0l9.12-14.58,9.17-14.56,18.45-29,1.31-2.07L407,268l42.21,14.36,42.16,14.52,84.32,29L744.32,384l.81.28-.13.83c-1.58,9.69-3.32,19.33-5.34,28.93-.52,2.4-1.06,4.8-1.66,7.19-.32,1.19-.63,2.38-1,3.57-.19.59-.38,1.18-.61,1.78a7.55,7.55,0,0,1-.92,1.81l-.27.26-.25.17a3.69,3.69,0,0,1-.49.24,8.62,8.62,0,0,1-.93.33,18.24,18.24,0,0,1-1.84.45c-1.22.25-2.44.44-3.66.61-2.44.34-4.88.59-7.32.82-9.77.87-19.56,1.34-29.34,1.77S671.79,433.79,662,434Zm0,0q14.68-.57,29.34-1.44c9.77-.59,19.55-1.24,29.27-2.27,2.43-.27,4.85-.56,7.25-.94,1.21-.19,2.4-.4,3.58-.66.58-.13,1.16-.27,1.72-.45a8.11,8.11,0,0,0,.79-.3,1.67,1.67,0,0,0,.52-.32,6.5,6.5,0,0,0,.69-1.47c.21-.55.38-1.12.55-1.7.34-1.16.63-2.34.92-3.52.55-2.37,1-4.76,1.52-7.16,1.86-9.58,3.38-19.26,4.85-28.92l.68,1.11L574.31,330l-84.68-28-42.34-14L405,274l3.63-1.28-18.55,29-9.33,14.44-9.38,14.42h0l-1.82-4.27c26,4.63,52,9.65,77.91,14.8s51.82,10.54,77.67,16.17c12.91,2.88,25.81,5.79,38.71,9,3.23.81,6.45,1.63,9.7,2.54l2.43.7c.82.24,1.66.52,2.49.78s1.75.62,2.67,1a7.76,7.76,0,0,1,1.26.61l1.19.64c1.64.84,3,1.76,4.49,2.66s2.86,1.82,4.25,2.76c2.81,1.84,5.52,3.77,8.25,5.67,10.86,7.68,21.45,15.62,32,23.61q7.89,6,15.32,12.65A152.33,152.33,0,0,1,662,434Z"/><path class="cls-5" d="M660,439s0-48,25-58,47-4,52,26-21,76-38,84-37,6-37,6"/><path class="cls-3" d="M659.7,439a95,95,0,0,1,.26-17,91.16,91.16,0,0,1,3.26-16.88,53.6,53.6,0,0,1,7.55-15.86,32.93,32.93,0,0,1,6.23-6.65,26,26,0,0,1,3.87-2.57c.68-.38,1.39-.71,2.1-1l1.08-.44,1-.36a54.52,54.52,0,0,1,17.12-3.35,37.17,37.17,0,0,1,17.09,3.37A31,31,0,0,1,732,389.79a44.31,44.31,0,0,1,3.83,7.75,58.68,58.68,0,0,1,2.49,8.27,55.92,55.92,0,0,1,1.11,17.35,72.67,72.67,0,0,1-1.23,8.6c-.55,2.84-1.26,5.63-2.07,8.4a120.29,120.29,0,0,1-6,16.18,111.85,111.85,0,0,1-8.23,15.18,86,86,0,0,1-10.82,13.66,47.91,47.91,0,0,1-6.82,5.79,24.51,24.51,0,0,1-4.09,2.29c-1.37.58-2.73,1.11-4.12,1.58A60.28,60.28,0,0,1,687.6,497a67.53,67.53,0,0,1-8.57,1.06A73.67,73.67,0,0,1,662,497.3a.32.32,0,0,1-.25-.35.31.31,0,0,1,.3-.25h0a103.11,103.11,0,0,0,16.61-1.7c2.72-.52,5.4-1.14,8-1.9a69.18,69.18,0,0,0,7.68-2.72c1.24-.53,2.45-1.12,3.63-1.72a23.74,23.74,0,0,0,3.12-2.07,42.46,42.46,0,0,0,5.72-5.45,99.23,99.23,0,0,0,9.67-13.09,140.54,140.54,0,0,0,14.31-29.56,103.31,103.31,0,0,0,4-15.89,53.33,53.33,0,0,0,.51-16.24,41.27,41.27,0,0,0-5-15.57,27.73,27.73,0,0,0-5.11-6.34,23.56,23.56,0,0,0-6.84-4.32c-.62-.27-1.27-.46-1.9-.7s-1.3-.37-1.95-.55-1.32-.27-2-.38-1.33-.19-2-.24a35.75,35.75,0,0,0-8.07.28,65.19,65.19,0,0,0-15.56,4.51l-.94.39-.85.39c-.57.27-1.13.55-1.67.87a25.22,25.22,0,0,0-3.13,2.11,31,31,0,0,0-5.38,5.53,55.8,55.8,0,0,0-7.44,14.2c-3.8,10.27-5.87,21.32-7.23,32.46h0a.3.3,0,0,1-.34.26A.29.29,0,0,1,659.7,439Z"/><path class="cls-3" d="M712,409a44.63,44.63,0,0,0-7.22,2.76,35.16,35.16,0,0,0-6.23,3.84,33.13,33.13,0,0,0-2.67,2.32,31.47,31.47,0,0,0-2.29,2.63,28.41,28.41,0,0,0-2,2.86c-.29.49-.54,1-.81,1.52a10.31,10.31,0,0,0-.75,1.57l-.69,1.62-.56,1.69c-.44,1.11-.65,2.32-1,3.47-.54,2.38-1,4.81-1.36,7.3-.7,5-1.07,10.1-1.45,15.42a45.77,45.77,0,0,1-2.77-23.83,34.28,34.28,0,0,1,2.34-8.08,15.19,15.19,0,0,1,1-1.94c.36-.63.68-1.28,1.07-1.88a28.34,28.34,0,0,1,2.67-3.4,24,24,0,0,1,6.76-5.24,26.05,26.05,0,0,1,7.88-2.67A22.21,22.21,0,0,1,712,409Z"/><path class="cls-21" d="M459,329l-83,87s-63.71,6.19-63.35,9.1,7.93,78.23,7.93,78.23S366,497,382,481s8-55,8-55l88-97Z"/><path class="cls-22" d="M741,374s50-29,69-29,72,26,76,26,23-5,37-11,25-20,26-15-25,55-39,68-56,41-77,43-92-30-92-30Z"/><path class="cls-3" d="M741,374q13.13-8,26.8-15.06A221,221,0,0,1,796,346.44c2.47-.82,5-1.58,7.53-2.16a30.37,30.37,0,0,1,8-.82,75.37,75.37,0,0,1,15.43,3c10,2.84,19.61,6.44,29.16,10.21,4.78,1.88,9.53,3.82,14.27,5.76s9.51,3.94,14.14,5.6l.83.27.66.17s0,0,0,0l.34,0a6.3,6.3,0,0,0,.77-.08c1.13-.16,2.36-.42,3.56-.68,2.43-.54,4.87-1.19,7.3-1.87,4.86-1.37,9.7-2.91,14.44-4.62,2.38-.85,4.73-1.76,7.06-2.71a52.23,52.23,0,0,0,6.61-3.14,98.6,98.6,0,0,0,12.18-8.58l3.07-2.4a31.18,31.18,0,0,1,3.55-2.4l.59-.29a6,6,0,0,1,.69-.29,4.84,4.84,0,0,1,.92-.24l.57-.08a5,5,0,0,1,.77,0,3.28,3.28,0,0,1,.89.22,3,3,0,0,1,.89.47,4.42,4.42,0,0,1,.74.69,7.65,7.65,0,0,1,.43.67c.06.11.12.24.17.35l.09.26c.06.18.11.36.16.55a5.91,5.91,0,0,1,.11,1.12,10.4,10.4,0,0,1-.46,2.66c-.2.71-.41,1.37-.63,2a143.83,143.83,0,0,1-6.34,14.37c-4.59,9.27-9.55,18.31-15,27.12-2.73,4.4-5.55,8.75-8.61,13-1.53,2.12-3.13,4.2-4.85,6.24-.85,1-1.76,2-2.7,3-.5.48-1,1-1.49,1.44l-1.49,1.31c-4,3.46-8.07,6.65-12.27,9.68-2.08,1.54-4.23,3-6.34,4.48s-4.27,2.9-6.46,4.27a258.69,258.69,0,0,1-27,15.26l-3.56,1.62-1.78.81-1.82.73-3.65,1.46-3.75,1.27c-1.23.46-2.55.75-3.84,1.1l-1.94.5c-.66.14-1.35.22-2,.33a26.23,26.23,0,0,1-4.13.45,18.09,18.09,0,0,1-2.09,0c-.69,0-1.38-.05-2-.15a97,97,0,0,1-15.43-3.16c-5-1.38-9.91-3-14.78-4.63-9.74-3.34-19.29-7.14-28.77-11.06s-18.86-8.06-28.17-12.41l-.7-.33V426c.14-8.77.34-17.5.55-26.17Zm0,0,.63,26.17c.21,8.66.41,17.26.55,25.83l-.69-1.08c18.84,7.88,37.9,15.4,57.29,21.63,4.85,1.55,9.72,3,14.62,4.25a92,92,0,0,0,14.68,2.71c.61.07,1.2.07,1.79.09a12.74,12.74,0,0,0,1.75,0,22.5,22.5,0,0,0,3.47-.46c.59-.12,1.18-.18,1.76-.33l1.77-.48c1.18-.34,2.36-.6,3.53-1.05l3.5-1.24,3.47-1.44,1.73-.72,1.71-.8,3.41-1.61a254,254,0,0,0,26.24-15.25c2.12-1.38,4.2-2.83,6.31-4.24s4.16-2.89,6.18-4.41c4.1-3,8.08-6.11,11.81-9.38L907.9,411l1.26-1.24c.82-.87,1.63-1.76,2.41-2.71,1.57-1.88,3.09-3.86,4.55-5.9,2.92-4.08,5.66-8.34,8.31-12.65,5.28-8.65,10.26-17.54,14.79-26.6a141.79,141.79,0,0,0,6.11-13.69c.2-.56.38-1.12.53-1.64.06-.24.14-.52.18-.73l.05-.27,0-.13c0-.08,0,0,0,0s0,.12,0,.17a.16.16,0,0,0,0,.09l0,0a.42.42,0,0,0,.06.14.93.93,0,0,0,.18.26,1.67,1.67,0,0,0,.38.37,3,3,0,0,0,.47.25c.17.07.36.08.42.11a1,1,0,0,0,.3,0,.33.33,0,0,0,.1,0c.08,0,0,0,0,0a.51.51,0,0,0-.19.08,1.58,1.58,0,0,0-.27.13,26.82,26.82,0,0,0-2.8,1.9l-3,2.32a97,97,0,0,1-13,9,60.1,60.1,0,0,1-7.28,3.36c-2.43,1-4.87,1.86-7.32,2.7q-7.35,2.55-14.86,4.56c-2.51.66-5,1.3-7.6,1.84-1.31.26-2.58.53-4,.7a8.65,8.65,0,0,1-1.13.11l-.62,0a6.73,6.73,0,0,1-1-.11c-.31-.06-.42-.11-.64-.16l-.56-.17-1-.34c-2.52-.94-4.86-1.94-7.24-2.95l-7.06-3.05q-7-3.06-14.09-6T840.3,355c-4.75-1.83-9.53-3.57-14.35-5.09a72.55,72.55,0,0,0-14.58-3.28c-4.73-.34-9.71,1-14.53,2.36-9.69,2.95-19.08,7.06-28.38,11.29S750,369.16,741,374Z"/><path class="cls-3" d="M876,385c-5,3-10.15,5.7-15.41,8.21S850,398,844.5,400.07a166.07,166.07,0,0,1-33.88,9.06,114.16,114.16,0,0,1-17.64,1.3c-1.48-.05-3-.06-4.45-.13s-3-.2-4.43-.33l-8.69-.8L740.66,406a3,3,0,0,1,.55-6l.13,0,34.58,4.68,8.64,1.17c1.44.2,2.84.33,4.26.5s2.84.2,4.26.31a110.65,110.65,0,0,0,17.16-.53A163.93,163.93,0,0,0,844,398.66q8.26-2.73,16.28-6.14C865.62,390.25,870.9,387.79,876,385Z"/><path class="cls-22" d="M746,308s13-25,63-35,75-3,76,0-128.52,92.52-128.52,92.52S744,360,744,356,746,308,746,308Z"/><path class="cls-3" d="M746,308a40.45,40.45,0,0,1,5.69-7.86c1-1.25,2.25-2.34,3.38-3.51s2.4-2.19,3.66-3.23,2.53-2,3.85-3l4-2.79,4.19-2.52c.69-.44,1.41-.82,2.13-1.2l2.17-1.13,2.17-1.14c.73-.36,1.49-.67,2.23-1l4.47-2,4.58-1.73c1.53-.57,3.05-1.17,4.62-1.61,3.12-.94,6.22-2,9.4-2.74s6.33-1.63,9.52-2.23c6.36-1.3,12.77-2.42,19.23-3.28,3.22-.44,6.46-.8,9.71-1.11s6.51-.5,9.78-.62a138.6,138.6,0,0,1,19.73.53,66.66,66.66,0,0,1,10,1.76c.84.24,1.68.5,2.54.83a13.64,13.64,0,0,1,2.78,1.37l.41.3.21.17.26.25a3.88,3.88,0,0,1,.5.58,4.33,4.33,0,0,1,.31.51l.13.26a2,2,0,0,1,.13.34,3.32,3.32,0,0,1,.07,1.47,5.3,5.3,0,0,1-.17.57,4,4,0,0,1-.2.41l-.12.2-.13.2-.09.13-.19.23c-.21.25-.4.45-.57.63-.7.69-1.33,1.24-2,1.79-5.1,4.27-10.27,8.07-15.47,12s-10.4,7.68-15.67,11.42q-15.76,11.26-31.64,22.35t-31.92,21.93C779,352.67,768.32,360,757.53,367l-.91.6-.88-.43a61,61,0,0,1-7.23-4,27,27,0,0,1-3.39-2.59,13,13,0,0,1-1.56-1.71,5.06,5.06,0,0,1-1.06-2.67v-.33l0-.25,0-.51.07-1,.14-2,.27-4,.55-8.06,1.16-16.05C745.12,318.6,745.59,313.29,746,308Zm0,0c0,5.4,0,10.79-.08,16.14l-.18,16L745.52,356a2.27,2.27,0,0,0,.51,1,9.7,9.7,0,0,0,1.2,1.2,24.32,24.32,0,0,0,3.08,2.14,57.59,57.59,0,0,0,6.92,3.51l-1.79.17,31.41-22.62,31.47-22.52c10.5-7.49,21-15,31.45-22.53L865.41,285c5.16-3.81,10.41-7.64,15.23-11.62.58-.49,1.16-1,1.62-1.45l.24-.26h0l0,.08,0,.07s-.1.18-.13.27a3.23,3.23,0,0,0-.12.43,2.69,2.69,0,0,0,.07,1.32l.06.2.06.14a1,1,0,0,0,.15.24,1,1,0,0,1,.1.14l0,0,0,0-.08-.05a8.48,8.48,0,0,0-1.56-.75c-.64-.25-1.33-.47-2-.68a62.44,62.44,0,0,0-9.05-1.75A133.91,133.91,0,0,0,851,270.5a256.56,256.56,0,0,0-38.11,3.89c-12.58,2.2-25.05,5.26-36.66,10.61L774,286c-.73.33-1.45.66-2.15,1.05l-4.22,2.26-4.09,2.49c-1.35.85-2.64,1.8-4,2.7s-2.52,2-3.79,2.94L754,299c-.61.52-1.2,1.06-1.77,1.63A40.1,40.1,0,0,0,746,308Z"/><path class="cls-22" d="M306,249,744,385v12.89s8-.89,11-6.89,1-21-2-27a17.11,17.11,0,0,0-9-8s19-173-137-214-240,8-269,70c0,0-21,1-27,9S306,249,306,249Z"/><path class="cls-3" d="M306,249l220.25,66.2,219,65.62,3,.91,0,3.27.13,12.89-5-4.47h0c.06.1.33.13.53.18s.45.07.68.09a10.9,10.9,0,0,0,1.4,0,9.87,9.87,0,0,0,2.67-.59,8.07,8.07,0,0,0,2.25-1.3,6.66,6.66,0,0,0,1.55-1.92,14.37,14.37,0,0,0,1.11-5.43,35.59,35.59,0,0,0-.26-6.25,45,45,0,0,0-1.15-6.21,27.61,27.61,0,0,0-2-5.67,12.26,12.26,0,0,0-1.43-2.16,14.1,14.1,0,0,0-1.88-1.74,12.83,12.83,0,0,0-2.23-1.32,10.81,10.81,0,0,0-1.18-.48l-.58-.17-.27-.06s-.09,0-.12,0-.08,0,0,0l-3.13-4.88h0c.22-2.75.36-5.78.44-8.7s.1-5.91.09-8.87c0-5.92-.29-11.85-.69-17.76a267,267,0,0,0-4.76-35.2c-4.78-23.18-13-45.74-25.39-65.79a164.47,164.47,0,0,0-21.63-27.86,171.28,171.28,0,0,0-13-12,168.26,168.26,0,0,0-14.25-10.47c-4.94-3.24-10.08-6.16-15.32-8.92l-4-2-2-1-2-.91-4.06-1.81-4.12-1.66-2.07-.84-2.09-.76-4.18-1.53c-2.82-.92-5.63-1.89-8.48-2.72-5.67-1.72-11.54-3.12-17.34-4.62-2.9-.78-5.84-1.39-8.76-2.06s-5.84-1.36-8.78-2l-8.83-1.74c-1.47-.27-2.94-.6-4.41-.84l-4.44-.73c-11.81-2.09-23.73-3.45-35.67-4.42l-9-.6-9-.29c-3-.14-6,0-9,0l-4.49,0-4.48.18a249.09,249.09,0,0,0-35.64,3.82,202.78,202.78,0,0,0-34.51,9.53,161.07,161.07,0,0,0-31.83,16.26,146.45,146.45,0,0,0-14.29,10.78,137.41,137.41,0,0,0-12.72,12.59A128.71,128.71,0,0,0,339,212.44l-.28.58-.62,0h0c-4.58,2.09-9.09,3.62-13.26,5.33A58.73,58.73,0,0,0,319,221a13.83,13.83,0,0,0-3.91,2.91,20.25,20.25,0,0,0-2.53,4.79c-.42.95-.72,2-1.12,3s-.7,2.14-1,3.25C309,239.46,307.81,244.13,306,249Zm0,0a32.72,32.72,0,0,1-2.31-7.34,42.11,42.11,0,0,1-.82-7.62,34.19,34.19,0,0,1,.73-7.91,21.5,21.5,0,0,1,3.53-8.29,15.87,15.87,0,0,1,3.7-3.49,21.7,21.7,0,0,1,3.93-2.14,31.85,31.85,0,0,1,7.84-2.14,40.07,40.07,0,0,1,7.72-.36,31.92,31.92,0,0,1,7.62,1.25h0l-.9.6a131.45,131.45,0,0,1,19.72-30.63,142,142,0,0,1,12.78-13.07A150.31,150.31,0,0,1,384,156.62a164.33,164.33,0,0,1,32.26-17.14,203,203,0,0,1,35.07-10.26,252.66,252.66,0,0,1,36.25-4.39l4.56-.25,4.56-.08c3,0,6.09-.18,9.12-.08l9.13.17,9.11.48c12.13.82,24.24,2,36.23,4l4.51.68c1.5.23,3,.53,4.49.8l9,1.63c3,.57,5.94,1.25,8.92,1.86s6,1.22,8.89,2c5.9,1.44,11.8,2.76,17.71,4.46,3,.82,5.86,1.78,8.79,2.7l4.35,1.51,2.17.76,2.14.84,4.3,1.67,4.23,1.82,2.12.91,2.08,1,4.17,2c5.49,2.8,10.89,5.76,16.09,9.08a171.45,171.45,0,0,1,15.06,10.75,177.79,177.79,0,0,1,13.81,12.36,172.5,172.5,0,0,1,23.1,28.92C729.48,235.59,738.31,259,743.6,283a256.44,256.44,0,0,1,5.27,36.46c.46,6.13.64,12.27.64,18.42,0,3.08-.08,6.15-.22,9.24s-.33,6.1-.7,9.36h0l-3.13-4.88a4,4,0,0,1,.37.16l.27.14.5.26c.33.18.62.36.93.55q.88.56,1.71,1.17a24.23,24.23,0,0,1,3.07,2.74,20.48,20.48,0,0,1,4.3,7,42.07,42.07,0,0,1,1.75,7.11c.36,2.33.64,4.65.78,7a52.46,52.46,0,0,1,0,7.09,20.87,20.87,0,0,1-1.79,7.51,16.28,16.28,0,0,1-2.41,3.43,21.59,21.59,0,0,1-3.08,2.68,31.85,31.85,0,0,1-3.42,2.12c-.59.33-1.19.62-1.81.92-.31.16-.63.3-1,.45a8.63,8.63,0,0,1-1.12.45h0l-5,.58,0-5.05.13-12.89,3.07,4.18-219-70.38Z"/><path class="cls-3" d="M352,217c30,5.77,59.86,12.41,89.58,19.51,7.43,1.78,14.87,3.54,22.27,5.44s14.83,3.73,22.22,5.65c14.8,3.84,29.53,7.93,44.26,12.09,14.67,4.35,29.34,8.69,43.84,13.71l5.44,1.87,5.4,2c3.59,1.33,7.2,2.59,10.77,4l10.73,4.09,10.66,4.28q21.27,8.66,42,18.42c13.81,6.59,27.53,13.39,40.79,21-13.87-6.43-27.88-12.48-42-18.3l-10.58-4.34-10.63-4.22L626.15,298l-10.69-4.06c-14.29-5.27-28.63-10.47-43.1-15.16s-29.06-9.09-43.7-13.33-29.33-8.36-44-12.38-29.46-8-44.18-12C411,233.08,381.45,225.19,352,217Z"/><path class="cls-20" d="M306,249l-47,70s-65,92,9,152c0,0,10-44,22-55,0,0-6.4,31.78,23.3,44.89,0,0,2.7-81.89,38.7-100.89l125,5s9,23,59,33l-10-25s55,10,63,25c0,0-2-29-4-46s-28.5-30.24-28.5-30.24Z"/><path class="cls-3" d="M306,249l-34.41,53.25-8.52,13.17L258.82,322c-1.38,2.2-2.68,4.46-4,6.74q-3.77,6.85-6.94,14c-2.1,4.77-4,9.63-5.65,14.56a137.85,137.85,0,0,0-6.61,30.31,108.72,108.72,0,0,0-.41,15.41l.32,3.84.15,1.91c.08.64.19,1.27.28,1.9l.57,3.79c.19,1.27.53,2.5.79,3.75a81.52,81.52,0,0,0,11.94,27.91,100.56,100.56,0,0,0,20.78,22.33l-5.29,1.83c1.12-5,2.37-9.8,3.72-14.67s2.82-9.67,4.46-14.46a146.82,146.82,0,0,1,5.63-14.25,68.48,68.48,0,0,1,3.67-7,32.5,32.5,0,0,1,5.2-6.68l8.16-7.78-2,11.28c-.06.34-.14.92-.2,1.41s-.1,1-.14,1.54c-.08,1-.11,2.1-.11,3.15a45.37,45.37,0,0,0,.41,6.28A38.65,38.65,0,0,0,297.17,441a32.52,32.52,0,0,0,7.33,9.67,40,40,0,0,0,10.42,6.59l-5.63,3.54c.19-4.87.56-9.52,1-14.25s1.07-9.41,1.78-14.09a220.65,220.65,0,0,1,6-27.88,123.15,123.15,0,0,1,11-26.78,70.18,70.18,0,0,1,8.77-12.07A45.86,45.86,0,0,1,350,356.13l1-.55,1.2.05,62.5,2.4,62.5,2.54,2.61.1,1.34,2.71.26.53.43.76c.3.5.67,1,1,1.54l1.15,1.52c.4.5.85,1,1.26,1.48a18.27,18.27,0,0,0,1.35,1.44l1.39,1.41c1,.87,2,1.79,3,2.63s2.12,1.67,3.24,2.44l3.4,2.28c2.39,1.36,4.73,2.79,7.26,3.95s5.07,2.29,7.63,3.38c1.27.57,2.63.95,3.94,1.44l4,1.38c2.72.76,5.41,1.57,8.14,2.3l8.27,1.89L532,399.61l-9.93-25-2.88-7.24,7.59,1.47c5.81,1.13,11.43,2.41,17.1,3.85s11.26,3,16.84,4.85A134.34,134.34,0,0,1,577.26,384a59.88,59.88,0,0,1,8,4.63c.65.46,1.3.92,1.94,1.47l.95.78.93.89a18.93,18.93,0,0,1,3.38,4.35l-7.41,2.13c-.49-7.38-1-14.79-1.61-22.17s-1.2-14.77-2-22.09l-.14-1.37c-.05-.45-.12-.75-.17-1.14a10.82,10.82,0,0,0-.24-1.1,9.05,9.05,0,0,0-.31-1.1,20.94,20.94,0,0,0-2-4.32,38.8,38.8,0,0,0-6.42-7.87,69.49,69.49,0,0,0-8.19-6.73q-2.19-1.54-4.47-3c-1.5-.93-3.11-1.87-4.58-2.64l.57.22q-31-9.24-62-18.64l-62.2-18.89-62.47-19.12Zm0,0,62.4,17,62.78,17.26,63.05,17.49q31.59,8.76,63.21,17.74l.29.08.28.14c1.83.92,3.44,1.85,5.11,2.85s3.28,2,4.87,3.12a77.51,77.51,0,0,1,9.12,7.27,45.91,45.91,0,0,1,7.74,9.25,27.81,27.81,0,0,1,2.73,5.74,13.59,13.59,0,0,1,.48,1.57c.13.54.29,1.06.37,1.62s.2,1.14.26,1.61l.17,1.4c.9,7.44,1.61,14.86,2.26,22.28s1.25,14.83,1.81,22.27l1.31,17.39-8.72-15.26a16.2,16.2,0,0,0-4.81-4.68,50.94,50.94,0,0,0-6.94-3.91,128.11,128.11,0,0,0-15.59-6c-5.37-1.7-10.83-3.2-16.35-4.54s-11.1-2.57-16.59-3.58l4.71-5.77,10.07,25L543.1,404l-8-1.79-8.7-2c-2.88-.77-5.75-1.61-8.63-2.42l-4.25-1.46c-1.41-.52-2.85-.92-4.23-1.54-2.78-1.16-5.6-2.23-8.3-3.64s-5.38-2.83-8-4.35l-3.84-2.55c-1.27-.87-2.48-1.86-3.71-2.78s-2.37-2-3.55-3.06c-.57-.55-1.12-1.12-1.68-1.68s-1.11-1.11-1.63-1.73-1.05-1.2-1.56-1.83l-1.47-1.95c-.46-.7-.93-1.37-1.37-2.11a19.85,19.85,0,0,1-1.33-2.57l3.95,2.81L414.32,367l-62.49-2.6,2.21-.5c-7.25,3.85-13,10.66-17.43,18.24A118.69,118.69,0,0,0,326.31,407a212.72,212.72,0,0,0-6,26.75q-1.11,6.8-1.86,13.66c-.5,4.54-.91,9.19-1.12,13.65L317,467l-5.35-2.4a47.61,47.61,0,0,1-12.5-8.1,43.63,43.63,0,0,1-5.07-5.62,42.46,42.46,0,0,1-3.91-6.45A46.18,46.18,0,0,1,286,430.12a53.27,53.27,0,0,1-.41-7.35c0-1.23.08-2.45.19-3.68.05-.62.12-1.23.2-1.86s.16-1.19.31-2l6.2,3.5a25.56,25.56,0,0,0-4,5,62.22,62.22,0,0,0-3.38,6.2,140.21,140.21,0,0,0-5.55,13.46c-1.65,4.61-3.15,9.3-4.55,14s-2.7,9.51-3.85,14.24L270,476.91l-4-3.35a106.69,106.69,0,0,1-21.73-24.11A87.35,87.35,0,0,1,232,419.34c-.24-1.33-.58-2.65-.76-4l-.52-4c-.08-.67-.18-1.34-.24-2l-.13-2-.24-4a112.67,112.67,0,0,1,.76-16.13,125.71,125.71,0,0,1,2.86-15.82c1.31-5.19,2.9-10.3,4.7-15.32s3.9-9.92,6.17-14.73,4.77-9.51,7.45-14.1c1.37-2.29,2.75-4.56,4.23-6.78s3-4.39,4.54-6.58l9.09-13.06Z"/><path class="cls-20" d="M310,253s-23-10-65-4-59,66-59,66,25-12,50-6,32,16,32,16"/><path class="cls-3" d="M310,253a95.26,95.26,0,0,0-19.4-3.59,161.33,161.33,0,0,0-19.66-.55c-6.54.18-13.07.84-19.55,1.66l-4.85.71-1.22.18-1.15.24-2.3.48a47.65,47.65,0,0,0-8.83,3.16,58.36,58.36,0,0,0-15.41,10.85,88.39,88.39,0,0,0-12.21,14.78,133.49,133.49,0,0,0-9.53,16.87q-2.12,4.38-3.93,8.9c-1.18,3-2.36,6.09-3.29,9.07l-3.87-3.26c1.84-.83,3.54-1.46,5.34-2.09s3.55-1.2,5.36-1.71,3.61-1,5.43-1.4,3.67-.77,5.52-1a91.28,91.28,0,0,1,11.19-1,68,68,0,0,1,11.23.67l2.78.42,2.75.63c1.85.37,3.61.93,5.38,1.45.89.25,1.77.55,2.64.86l2.62.92c1.72.69,3.45,1.32,5.13,2.11a61,61,0,0,1,9.72,5.31,39.8,39.8,0,0,1,4.38,3.37,22.65,22.65,0,0,1,3.73,4,34.59,34.59,0,0,0-8.75-6.36,67.85,67.85,0,0,0-9.91-4.29c-1.68-.64-3.42-1.11-5.14-1.65s-3.47-.94-5.23-1.33-3.51-.83-5.25-1.07l-2.62-.43-2.65-.22a75.14,75.14,0,0,0-10.61-.06,85.2,85.2,0,0,0-10.53,1.47,96.74,96.74,0,0,0-10.3,2.67c-1.69.53-3.37,1.11-5,1.74s-3.32,1.32-4.79,2l-5.58,2.69,1.71-5.95a132.3,132.3,0,0,1,7.2-19,126,126,0,0,1,9.95-17.68,93.87,93.87,0,0,1,13.18-15.64,60.84,60.84,0,0,1,17.18-11.49,52.34,52.34,0,0,1,9.93-3.22l2.58-.42,1.29-.21,1.25-.13,5-.5c1.67-.2,3.34-.25,5-.37s3.34-.25,5-.26l5-.08c1.67,0,3.34.07,5,.1a134.61,134.61,0,0,1,19.94,2A81,81,0,0,1,310,253Z"/><ellipse class="cls-3" cx="533.5" cy="445" rx="17.5" ry="32"/><path class="cls-23" d="M498,408s32-26,48-28"/><path class="cls-20" d="M478,360c-17,35,26,96,26,96h-3C386,442,345,345,345,345"/><path class="cls-3" d="M478,360a41.38,41.38,0,0,0-2.95,12.43,58.61,58.61,0,0,0,.35,12.7,109,109,0,0,0,6.6,24.54,202.19,202.19,0,0,0,10.85,23.09c2,3.74,4.21,7.4,6.42,11s4.54,7.24,6.94,10.64l3,4.21-5.19.06-3,0h-.17l-.16,0-6.27-.85c-2.08-.31-4.18-.5-6.25-.94-4.13-.84-8.3-1.51-12.38-2.61l-6.15-1.52L463.55,451l-3-.9-3-1-6-2.12-5.85-2.42-2.93-1.21-2.87-1.35c-1.91-.91-3.83-1.78-5.72-2.72l-5.61-3c-1.88-.95-3.68-2.06-5.51-3.12s-3.65-2.12-5.39-3.31l-5.3-3.47-5.14-3.69a193.4,193.4,0,0,1-36.37-34.84,190.39,190.39,0,0,1-14.49-20.53A146.23,146.23,0,0,1,345,345c1.86,3.73,4,7.29,6.2,10.82s4.51,7,6.91,10.34c1.17,1.7,2.44,3.34,3.66,5s2.52,3.27,3.81,4.89c2.6,3.21,5.24,6.39,8,9.47s5.61,6,8.51,9l4.41,4.33L391,403c3.1,2.7,6.22,5.39,9.47,7.91l2.4,1.92,2.47,1.84c1.66,1.21,3.26,2.5,5,3.62a201.25,201.25,0,0,0,43.34,23l5.79,2.07,2.89,1,2.94.9,5.88,1.8,6,1.52c4,1.1,8,1.78,12,2.62,2,.46,4,.71,6.06,1.05l6.09,1-.33,0,3,0-2.21,4.27a207.09,207.09,0,0,1-13.1-22.62,178,178,0,0,1-10.1-24.05c-1.35-4.14-2.55-8.34-3.49-12.6a95.78,95.78,0,0,1-1.82-13,55.9,55.9,0,0,1,.61-13.05A39.89,39.89,0,0,1,478,360Z"/><line class="cls-24" x1="305.5" y1="249.5" x2="533.5" y2="315.08"/></g></g></g></svg>