<svg xmlns="http://www.w3.org/2000/svg" viewBox="0 0 144.2 147.23"><defs><style>.cls-1{fill:#1d3033;stroke:#1d3033;stroke-linecap:round;stroke-linejoin:round;stroke-width:.66px}.cls-2{fill:#3e3f3f}.cls-3{fill:#c92c1f}.cls-4{fill:#cf6260}</style></defs><g id="レイヤー_2" data-name="レイヤー 2"><g id="レイヤー_3" data-name="レイヤー 3"><path class="cls-1" d="M122.41 91.91c11.89 1.57 22.19 14 20.68 26.07-1.46 11.87-14.56 15.2-24.71 16.33-3.36.36-10.23 1.79-13.28-.08a4.91 4.91 0 0 0 .39-.41c5 2.31 13.56.13 18.74-1 4-.92 8.71-2.23 12.27-4.82a13.47 13.47 0 0 0 4-4.43c8.28-15.46-8.61-32.68-24.14-31-10.87 1.19-19.36 1.8-26.48-7.71a60.77 60.77 0 0 1-7.61-13.63 41.56 41.56 0 0 1-2.16-6.08c0-.23-.48-1.71-.87-3a.68.68 0 0 0 .41.23h.18c.33 1.33.62 2.77.74 3.15a74.64 74.64 0 0 0 5.85 13.13.59.59 0 0 0 .43.77c3.46 5.84 8 11.09 13.26 12.76 7.12 2.28 15.07-1.19 22.3-.28z"/><path class="cls-1" d="M143.09 118c1.51-12.1-8.79-24.5-20.68-26.07-7.23-1-15.18 2.56-22.3.31-5.31-1.67-9.8-6.92-13.26-12.76a.61.61 0 0 0 .36 0 33.14 33.14 0 0 0 6.85 8.48c8.66 7.41 18.27 2.59 28.35 3.36 5.71.44 11.74 4.18 15.27 8.59 6.59 8.1 9.85 21.84-.18 28.91-4.79 3.36-10.4 5-16.14 5.77-5.13.67-11.74 2.56-16.56 0a1.36 1.36 0 0 0 .3-.34c3.05 1.87 9.92.44 13.28.08 10.15-1.15 23.25-4.48 24.71-16.33zM139.53 78.92a1.67 1.67 0 0 0 .82 1.23A6 6 0 0 1 141 82c-.1-.57-.2-1.13-.33-1.7a1.09 1.09 0 0 0 .38.18 3.93 3.93 0 0 0-.59-1.22v-.06c-1.13-5.81-2.51-11.4-4.1-17-2.15-7-7.59-13.76-9.53-20.48l.28-.36C130 47.57 134 53.56 136.3 60a109.51 109.51 0 0 1 5.15 22c.08.53-.77.61-.92.12-1.72-5.51-10.61-9.4-16.23-9.17-6.1.23-8.25 5.74-11 10.28-.34.54-1.34.18-1.08-.47.13-.3.26-.64.41-1a.69.69 0 0 0 .44-1.08c.12-.28.25-.59.38-.87a2.47 2.47 0 0 0 .05.38c0 .28.46.21.46 0V78.7c1.59-3.31 3.87-6.64 7.33-7.15 5-.75 11.33 1.3 15.41 4.28l.79.59.11.18c.08.13.18.16.28.1a16.88 16.88 0 0 1 1.62 1.3 1.9 1.9 0 0 0 .03.92z"/><path class="cls-2" d="M116.36 92.55c15.53-1.71 32.42 15.51 24.14 31a13.47 13.47 0 0 1-4 4.43l-.05-.07c4.31-7.69 2.05-15.23-6-19-8.66-4.08-14.84 5.66-22.1 8.25a.5.5 0 0 0 .26 1l.26-.07c.2 6.46-1.59 12.66-6.15 17.27-.21-.3-.83-.25-.9.16a6.48 6.48 0 0 0-.08.77.3.3 0 0 0 0 .46 53.18 53.18 0 0 0 .13 7.25c-1.57-1.43-3.15-.43-4 1.64a9.58 9.58 0 0 1-2.51-3.76c-.13-.31-.52-.26-.72-.11A23 23 0 0 0 92 144c.17-1.35.28-2.77.38-4.12a.44.44 0 0 0 0-.21 12.18 12.18 0 0 0 7.31-1.41.28.28 0 0 0-.21-.51c-13.79 5.2-21-11.48-20.17-23a.61.61 0 0 0 .05-.53c0-.29 0-.54.08-.8a.23.23 0 0 0-.44-.08c-4.74-10.61-4.71-21.5-5.69-32.88-.82-9.75-1.69-19-.79-28.71a15.71 15.71 0 0 0 2.69-4 12.52 12.52 0 0 1 2.51 6.64.54.54 0 0 0 1 .12 19.06 19.06 0 0 0 1.46-10.4 7.92 7.92 0 0 0 2.82-.23.23.23 0 0 0 .13.1c3.54 1.33 5.72 3.77 8 6.74 1.41 1.85 3 4.54 5.2 5.41h.08a.67.67 0 0 0 1.2.2c1.21-1.72 2.36-3.49 3.75-5.1a32.66 32.66 0 0 1 4.12-3.85 17.81 17.81 0 0 0 4.39 1.18.67.67 0 0 0 .82-.64c0-2.74-1.31-9.51-4.13-12.51.87-.33 1.72-.74 2.61-1a.47.47 0 0 0 .16-.79.76.76 0 0 0 .08-.16 26.06 26.06 0 0 0 .53-5.51c.11-2 .34-3.58 2.23-4.92 3.41-2.41 5.18 2.79 5.74 4.54 1 3 1.54 6.1-.07 9.05a13.65 13.65 0 0 0-1.97 4.38 30.28 30.28 0 0 1-1.69-4.69 31.39 31.39 0 0 1-2.16-7 .22.22 0 1 0-.43 0c-.36 2.79 1 5.35 1.92 7.94.64 1.87.54 4.08 2.36 5.26.33.23.79-.21.56-.54a29.64 29.64 0 0 1 2.13-4.8 24.64 24.64 0 0 1 4.1.39c0 .49-.12 1-.15 1.51a24.64 24.64 0 0 1-3.49 3.66c-1.41 1.21-3.25 2.16-4.3 3.69a.43.43 0 0 0 .49.62l.35-.13a34.09 34.09 0 0 0 4.18 2.21 33 33 0 0 1-5.23 1c-.3 0-.59.31-.48.61.18.59.28 1.21.43 1.77-1 .36-2 .9-3.05 1.26a.27.27 0 0 0-.2.28l-.26-.07a.4.4 0 0 0-.56-.49c-2.23 1.18-4 3.2-5.75 4.94a23 23 0 0 1-3.64 2.91c-1.3.8-2.66.85-4 1.34-5.12-2.41-15.69-11.28-18.71-2.52-.13.39.26.69.59.69.08.24.18.54.31.88a.32.32 0 0 0 0 .13.18.18 0 0 0 0 .15.23.23 0 0 0 .08.18c.39 1.26.82 2.74.87 3a41.56 41.56 0 0 0 2.16 6.08 60.77 60.77 0 0 0 7.61 13.63c7.09 9.48 15.58 8.87 26.45 7.66z"/><path class="cls-1" d="M141 80.45a1.09 1.09 0 0 1-.38-.18 7.66 7.66 0 0 0-.21-1 3.93 3.93 0 0 1 .59 1.18z"/><path class="cls-1" d="M140.66 80.27c.13.57.23 1.13.33 1.7a6 6 0 0 0-.62-1.82.45.45 0 0 0 .29.12z"/><path class="cls-1" d="M140.45 79.23a7.66 7.66 0 0 1 .21 1 .45.45 0 0 1-.29-.12 6.28 6.28 0 0 0-.82-1.23 1.9 1.9 0 0 1 0-.93 7.22 7.22 0 0 1 .95 1.18l-.05.1z"/><path class="cls-1" d="M140.45 79.17a7.22 7.22 0 0 0-.95-1.17.86.86 0 0 1 0-.35c-.33-1.49-.67-3-1-4.41-.54-2.21-1.05-4.39-1.64-6.57-2.31-8.66-8.51-16-10.36-24.6a3.27 3.27 0 0 1 .29-.39c1.94 6.72 7.38 13.46 9.53 20.48 1.62 5.61 3 11.2 4.13 17.01zM139.53 78.92a6.28 6.28 0 0 1 .82 1.23 1.67 1.67 0 0 1-.82-1.23z"/><path class="cls-2" d="M138.53 73.23c.33 1.46.67 2.92 1 4.41a.86.86 0 0 0 0 .35 16.88 16.88 0 0 0-1.56-1.36.23.23 0 0 0 .23-.3c-1.38-5.15-4.36-9.77-7.25-14.18-.85-1.28-7.77-12.63-9.41-12.27 0 0 .1-.08.08-.13v-.23a.33.33 0 0 0-.13-.26.42.42 0 0 0-.28-.46 52.17 52.17 0 0 1-5-2.18 19.06 19.06 0 0 0 3.77-3 14.43 14.43 0 0 0 2.46-2.84 9.25 9.25 0 0 0 .44 3.79.4.4 0 0 0 .49.25c0 .06 0 .11-.06.16a.54.54 0 0 0 1 .41 36.5 36.5 0 0 1 2.25-3.33c1.85 8.63 8.05 15.94 10.36 24.6.56 2.18 1.08 4.34 1.61 6.57z"/><path class="cls-1" d="M120.89 49.7a1.72 1.72 0 0 0 .29-.11.36.36 0 0 0 .23-.31.33.33 0 0 1 .13.26v.23s0 .1-.08.13c1.64-.36 8.56 11 9.41 12.27 2.89 4.41 5.87 9 7.25 14.18a.23.23 0 0 1-.23.3 4.73 4.73 0 0 0-.39-.28c-2.79-4.41-4.92-9.15-7.82-13.49s-6.43-8.4-9.28-12.84v-.12a1.83 1.83 0 0 0 .49-.22z"/><path class="cls-1" d="M137.55 76.35a4.73 4.73 0 0 1 .39.28c-.1.06-.2 0-.28-.1z"/><path class="cls-3" d="M137.53 76.33l-.79-.59c-4.08-3-10.39-5-15.41-4.28-3.46.51-5.74 3.84-7.33 7.15 0-7.87-.69-15.77-1-23.58a.2.2 0 0 0-.2-.21l-.26-.77c.85-.28 1.7-.64 2.57-.9a.44.44 0 0 0 .28-.51c-.13-.53-.18-1.1-.28-1.64a20.9 20.9 0 0 0 5.28-1.12V50c2.85 4.44 6.33 8.46 9.28 12.84s5.07 9.08 7.86 13.49z"/><path class="cls-1" d="M108.82 117.49v.52l-.26.07a.5.5 0 0 1-.26-1c7.26-2.59 13.44-12.33 22.1-8.25 8.07 3.79 10.33 11.33 6 19 0 .15-.3.05-.25-.11 2.23-5.71 2.56-12.66-3.52-16.35a13.05 13.05 0 0 0-7-2.18 10.9 10.9 0 0 1 2.23-.51h.18c.28 0 .39-.46.08-.54a6.57 6.57 0 0 0-4.92.72l-.85.31c-4.82 2-7.95 6.46-13 8.15a.29.29 0 0 0-.54.13z"/><path class="cls-4" d="M132.68 111.42c6.08 3.69 5.75 10.64 3.52 16.35 0 .16.2.26.25.11l.05.07c-3.56 2.59-8.27 3.9-12.27 4.82-5.18 1.18-13.72 3.36-18.74 1a20.1 20.1 0 0 0 3.31-5.66 37.5 37.5 0 0 0 8-8.18c3.1-4 4.15-9 8.89-10.74a13.05 13.05 0 0 1 6.99 2.23z"/><path class="cls-1" d="M119.51 29.52c0-.18 0-.36-.07-.54 2 .9 4.69-.46 6.59.7 2.53 1.51 3.46 4.92 4.48 7.45a.69.69 0 0 1-.15.62 40.75 40.75 0 0 0-3.23 3.56v-.1c-.18-.36-.7-.08-.64.28a3.86 3.86 0 0 0 .12.57 36.5 36.5 0 0 0-2.25 3.33.54.54 0 0 1-1-.41s0-.1.06-.16.25-.15.28-.35 0-.39 0-.59a13.1 13.1 0 0 1 3-4.26c.56-.56 2.72-2 2.36-3a22.08 22.08 0 0 0-1.46-3.48 5.22 5.22 0 0 0-5.31-2.95c-1.15.08-1.87.23-2.61-.26-.12-.15-.14-.28-.17-.41z"/><path class="cls-2" d="M129 36.62c.36 1-1.8 2.44-2.36 3a13.1 13.1 0 0 0-3 4.26c0-1-.18-1.87-.2-2.82 0-1.31.07-2.62.15-3.93a.47.47 0 0 0-.43-.46 24.71 24.71 0 0 0-4.29-.25 8.88 8.88 0 0 0 .9-5.13c-.05-.46-.13-.9-.2-1.36.74.49 1.46.34 2.61.26a5.22 5.22 0 0 1 5.31 2.95 22.08 22.08 0 0 1 1.51 3.48z"/><path class="cls-1" d="M125.69 108.52a.09.09 0 0 0-.08 0 8.05 8.05 0 0 0-2.33.33 6.57 6.57 0 0 1 4.92-.72c.31.08.2.52-.08.54h-.18a9.53 9.53 0 0 0-2.25-.15zM126.82 41.67a3.27 3.27 0 0 0-.29.39 3.86 3.86 0 0 1-.12-.57c-.06-.36.46-.64.64-.28v.1z"/><path class="cls-1" d="M125.69 108.52a9.53 9.53 0 0 1 2.25.21 10.9 10.9 0 0 0-2.23.51 9.24 9.24 0 0 0-2.48.36 6.29 6.29 0 0 1 2.38-1 .09.09 0 0 1 .08-.08z"/><path class="cls-1" d="M123.28 108.88a8.05 8.05 0 0 1 2.33-.33 6.29 6.29 0 0 0-2.38 1 8.4 8.4 0 0 0-1.79.7 9.44 9.44 0 0 1 1.82-1.44zM123.66 43.88v.59c0 .21-.13.33-.28.35a4.91 4.91 0 0 1 .28-.94zM123.23 109.6a9.24 9.24 0 0 1 2.48-.36c-4.74 1.72-5.79 6.69-8.89 10.74a37.5 37.5 0 0 1-8 8.18c.1-.26.17-.52.28-.77 3.48-3.28 7.1-7 9.17-11.23 1.16-2.31 2.69-5 5-6.54-.07 0-.07-.02-.04-.02z"/><path class="cls-1" d="M123.15 37.57v-.41a22.14 22.14 0 0 0-4.44-.33l.15-.38a24.71 24.71 0 0 1 4.29.25.47.47 0 0 1 .43.46c-.08 1.31-.18 2.62-.15 3.93 0 .95.2 1.87.2 2.82a4.91 4.91 0 0 0-.3.94.4.4 0 0 1-.49-.25 9.25 9.25 0 0 1-.44-3.79 10.3 10.3 0 0 0 .57-1c.12-.25.23-.48.33-.74a.29.29 0 0 0-.28-.38c.08-.4.1-.76.13-1.12z"/><path class="cls-1" d="M123.05 38.65a.29.29 0 0 1 .28.38c-.1.26-.21.49-.33.74v-.79zM122.38 109.19l.85-.31a9.44 9.44 0 0 0-1.82 1.44 10.74 10.74 0 0 0-1.29.75c-3.51 2.38-6.51 5.33-10.56 6.69a1.86 1.86 0 0 0-.1-.39c4.97-1.72 8.1-6.21 12.92-8.18zM122.74 37.16a1.46 1.46 0 0 0 0 .36 24.64 24.64 0 0 0-4.1-.39.81.81 0 0 1 .15-.33 22.14 22.14 0 0 1 4.44.33v.41a4.5 4.5 0 0 0-.49-.38z"/><path class="cls-1" d="M123.15 37.54h-.44a1.46 1.46 0 0 1 0-.36 4.5 4.5 0 0 1 .44.36z"/><path class="cls-1" d="M123.15 37.57c0 .36-.05.72-.1 1.08a.2.2 0 0 0-.23.07 2.51 2.51 0 0 1-.26.31c0-.51.1-1 .15-1.51.16.02.29.02.44.05z"/><path class="cls-1" d="M123.05 38.65V39a5.5 5.5 0 0 1-.54.9 4.56 4.56 0 0 1 .08-.82 2.51 2.51 0 0 0 .26-.31.2.2 0 0 1 .2-.12z"/><path class="cls-1" d="M122.48 39.88A5.5 5.5 0 0 0 123 39v.79a10.3 10.3 0 0 1-.57 1c0-.32.03-.6.05-.91z"/><path class="cls-1" d="M122.48 39.88v.9a14.43 14.43 0 0 1-2.48 2.84 19.06 19.06 0 0 1-3.77 3l-.33-.15c-.28-.16-.51.25-.26.43l-.35.13a.43.43 0 0 1-.49-.62c1-1.53 2.89-2.48 4.3-3.69a24.64 24.64 0 0 0 3.49-3.66 4.56 4.56 0 0 0-.11.82zM121.41 110.32a8.4 8.4 0 0 1 1.79-.7c-2.26 1.52-3.79 4.23-5 6.54-2.07 4.18-5.69 8-9.17 11.23.1-.34.2-.69.31-1 1.51-1.69 3.17-3.28 4.58-5.07 2-2.59 3.26-5.49 5.08-8.15a18.5 18.5 0 0 1 2.31-2.8s.07-.05.1-.05z"/><path class="cls-1" d="M121.18 48.8a.42.42 0 0 1 .28.46.45.45 0 0 0-.52-.1 1.49 1.49 0 0 1 0-.36 5.29 5.29 0 0 1-.54.13 34.32 34.32 0 0 1-4.51-2.16l.28-.15a52.17 52.17 0 0 0 5.01 2.18z"/><path class="cls-1" d="M121.05 49.21a.18.18 0 0 0-.11-.05.45.45 0 0 1 .52.1.36.36 0 0 1-.23.31c-.1-.11-.16-.18-.34.13a1.83 1.83 0 0 1-.48.18.38.38 0 0 1 .13-.47l.33.16a1.06 1.06 0 0 1 0-.31s.13-.03.18-.05z"/><path class="cls-1" d="M121.23 49.57a1.72 1.72 0 0 1-.29.11c.13-.29.19-.22.29-.11zM120.94 49.16a.18.18 0 0 1 .11.05h-.13c-.05 0 0 0 0-.08zM121 48.8a1.49 1.49 0 0 0 0 .36l-.49-.23a5.29 5.29 0 0 0 .49-.13z"/><path class="cls-1" d="M120.43 48.93l.49.23a2.54 2.54 0 0 0-.28.16.15.15 0 0 1-.11 0 5 5 0 0 0-.69-.28c.16.01.36-.04.59-.11zM120.92 49.18v.08a1.47 1.47 0 0 1-.28.08 2.54 2.54 0 0 1 .28-.16zM120.92 49.26a1.06 1.06 0 0 0 0 .31l-.33-.16a1.47 1.47 0 0 0 .33-.15z"/><path class="cls-4" d="M120.07 111.09a10.74 10.74 0 0 1 1.29-.75 18.5 18.5 0 0 0-2.31 2.8c-1.82 2.66-3 5.56-5.08 8.15-1.41 1.79-3.07 3.38-4.58 5.07a15.29 15.29 0 0 0 .12-8.58c4.05-1.36 7.05-4.31 10.56-6.69z"/><path class="cls-1" d="M120.59 49.36h-.06a.15.15 0 0 0 .06 0zM120.48 49.39h.06a.38.38 0 0 0-.13.47 20.9 20.9 0 0 1-5.28 1.14c0-.15 0-.33-.08-.48a23.9 23.9 0 0 0 5.43-1.13z"/><path class="cls-1" d="M119.79 49.11a5 5 0 0 1 .69.28 23.9 23.9 0 0 1-5.43 1.13.1.1 0 0 1 0-.08v.08a2.87 2.87 0 0 1-.41 0 2.38 2.38 0 0 1 .11.38.28.28 0 0 0-.11.13.21.21 0 0 0 .13 0c.08.41.1.88.21 1.29-.13 0-.26.07-.39.12-.15-.56-.25-1.18-.43-1.77-.11-.3.18-.58.48-.61a33 33 0 0 0 5.15-.95zM120.43 48.93c-.23 0-.43.12-.64.18a34.09 34.09 0 0 1-4.18-2.21l.31-.13a34.32 34.32 0 0 0 4.51 2.16zM118.46 36.49a.31.31 0 0 0-.18.28 12 12 0 0 0-2.12 4.59 2.94 2.94 0 0 1-.26-.39 13.65 13.65 0 0 1 1.95-4.41c1.61-3 1.05-6 .07-9-.56-1.75-2.33-6.95-5.74-4.54-1.89 1.34-2.12 2.9-2.23 4.92a26.06 26.06 0 0 1-.53 5.51.76.76 0 0 1-.08.16.32.32 0 0 0-.28-.11.58.58 0 0 0-.23 0 .3.3 0 0 1-.06-.26c.47-2.74-.69-7.56 1.39-9.84 1.43-1.59 4.15-2.84 6-1.05a13.44 13.44 0 0 1 3.25 6.65.24.24 0 0 1-.13-.05.28.28 0 0 0-.33.44 3.12 3.12 0 0 0 .64.56c.07.46.15.9.2 1.36a8.88 8.88 0 0 1-.9 5.13 1.52 1.52 0 0 0-.28 0 .44.44 0 0 0-.15.05z"/><path class="cls-1" d="M119.48 29.52c0 .13 0 .26.08.41a3.12 3.12 0 0 1-.64-.56.28.28 0 0 1 .33-.44.24.24 0 0 0 .13.05c.05.18.08.36.1.54zM118.74 36.8a.81.81 0 0 0-.15.33.31.31 0 0 1-.31-.3 1.47 1.47 0 0 0 .18-.28.44.44 0 0 1 .15-.05 1.52 1.52 0 0 1 .28 0zM118.43 36.52a1.47 1.47 0 0 1-.18.28.31.31 0 0 1 .18-.28z"/><path class="cls-1" d="M118.25 36.83a.31.31 0 0 0 .31.3 29.64 29.64 0 0 0-2.13 4.8l-.3-.46a12 12 0 0 1 2.12-4.64z"/><path class="cls-1" d="M115.79 41.83a1.19 1.19 0 0 0 0 .28.3.3 0 0 0 .59.1c0-.1 0-.2.07-.28.23.33-.23.77-.56.54-1.82-1.18-1.72-3.39-2.36-5.26-.9-2.59-2.28-5.15-1.92-7.94a.22.22 0 1 1 .43 0 31.39 31.39 0 0 0 2.16 7.05 30.28 30.28 0 0 0 1.67 4.68 4.09 4.09 0 0 0-.08.83z"/><path class="cls-1" d="M116.43 41.9c0 .08-.05.18-.07.28a.3.3 0 0 1-.59-.1 1.19 1.19 0 0 1 0-.28 1.06 1.06 0 0 0 .28.28 4.77 4.77 0 0 1 .06-.67zM115.92 46.77l-.31.13c-.25-.18 0-.59.26-.43l.33.15z"/><path class="cls-1" d="M116.13 41.42a4.77 4.77 0 0 0-.06.67 1.06 1.06 0 0 1-.28-.28 4.09 4.09 0 0 1 .08-.8 2.94 2.94 0 0 0 .26.41zM114.59 52.85c.15 0 .28-.08.41-.1a1.76 1.76 0 0 1-.1-.41c-.11-.41-.13-.88-.21-1.29a2.28 2.28 0 0 0 .44 0c.1.54.15 1.11.28 1.64a.44.44 0 0 1-.28.51c-.87.26-1.72.62-2.57.9-.3.11-.61.21-.92.29a.3.3 0 0 1-.38-.34.27.27 0 0 1 .2-.28c1.05-.36 2-.9 3.05-1.26a1.8 1.8 0 0 0 .08.34zM115.05 50.52c0 .15 0 .33.08.48a2.28 2.28 0 0 1-.44 0 .2.2 0 0 0 0-.1c.1-.15.2-.31.3-.43a.06.06 0 0 0 .06.05z"/><path class="cls-1" d="M115.05 50.52a.06.06 0 0 1-.08 0v-.08a.1.1 0 0 0 .08.08zM114.9 52.34a1.76 1.76 0 0 0 .1.41c-.13 0-.26.07-.41.1.1-.16.2-.34.31-.51z"/><path class="cls-1" d="M115 50.52c-.1.12-.2.28-.3.43a2.38 2.38 0 0 0-.11-.38 2.87 2.87 0 0 0 .41-.05zM114.9 52.34c-.11.17-.21.35-.31.51a1.8 1.8 0 0 1-.08-.39c.13-.05.26-.07.39-.12zM114.67 51a.2.2 0 0 1 0 .1.21.21 0 0 1-.13 0 .28.28 0 0 1 .13-.1zM113.69 79.25l-.23.54c-1.28-8.13-1.13-16.56-.87-24.76a.21.21 0 0 1 .23-.21.2.2 0 0 1 .2.21c.29 7.81 1 15.71 1 23.58-.15.23-.23.44-.33.64z"/><path class="cls-1" d="M113.69 79.25c.1-.2.18-.41.31-.62v1.49c0 .26-.43.33-.46 0a2.47 2.47 0 0 1-.05-.38z"/><path class="cls-3" d="M113.46 79.79c-.13.28-.26.59-.38.87 0 0-.06-.08-.08-.13-2.38-2.36-5-2.92-8.25-2.31a10.09 10.09 0 0 0-4.59 2.36c-1.57 1.42-1.77 2.13-2.1 1.42a.49.49 0 0 0 .1-.23c1.36-6 3-12.25 3-18.45 3.82-2 7.46-7 9.74-9.31a.69.69 0 0 0 .1-.12l.26.07a.3.3 0 0 0 .38.34c.31-.08.62-.18.92-.29l.26.77a.21.21 0 0 0-.23.21c-.26 8.24-.41 16.67.87 24.8z"/><path class="cls-1" d="M113.08 80.66a.69.69 0 0 1-.44 1.08c.13-.34.28-.74.44-1.08z"/><path class="cls-1" d="M97.39 82.09a.48.48 0 0 0 .67 0c.33.67.53 0 2.1-1.46a10.09 10.09 0 0 1 4.59-2.36c3.23-.61 5.87 0 8.25 2.31 0 0 .08.08.08.13-.16.36-.31.74-.44 1.08a.65.65 0 0 1-.67-.18c-4.35-4.21-10.25-2-13.17 2.61a.67.67 0 0 1-1.13 0c-1-1.9-1.54-4-2.61-5.92-2.77-4.87-5.62-1.67-7.69 1a.56.56 0 0 1-.16.12l-.3-.51c.58-1 2.87-3.79 4.2-4 3.41-.49 4.72 3.41 6 6.59v.08a.5.5 0 0 0 .28.51zM97.75 63.33a.52.52 0 0 0-.31-.41c-.18-.08-.36-.15-.54-.25 1.39-.49 2.75-.54 4-1.34a23 23 0 0 0 3.74-2.95c1.8-1.74 3.52-3.76 5.75-4.94a.4.4 0 0 1 .56.49.69.69 0 0 1-.1.12c-2.28 2.26-5.92 7.28-9.74 9.31v-.29c0-.12-.21-.15-.23 0s-.08.33-.11.49a5.88 5.88 0 0 1-4 .54.64.64 0 0 1-.47-.41 3.44 3.44 0 0 0 1 .2c.37.01.5-.28.45-.56zM110.67 48a.67.67 0 0 1-.82.64 17.81 17.81 0 0 1-4.39-1.18h.08c.28-.23-.08-.59-.38-.46a1 1 0 0 0-.36.21 7.64 7.64 0 0 1-2.39-1.67 1.3 1.3 0 0 0 .18-.46v-.13c1.62 1.87 3.77 2.54 6.77 3V48l.1-.07.54.07a2.7 2.7 0 0 0 0-.46l.21-.15H110c-.2-2.69-1.76-8.87-4.25-11.56a7.3 7.3 0 0 0 .82-.31c2.79 2.92 4.05 9.69 4.1 12.48z"/><path class="cls-1" d="M110.18 47.34l-.21.15v-.18c.08 0 .13.03.21.03zM110 47.49a2.7 2.7 0 0 1 0 .46l-.51-.07a5.48 5.48 0 0 1 .51-.39z"/><path class="cls-1" d="M110 47.31v.18a5.48 5.48 0 0 0-.48.39.14.14 0 0 1-.1 0v-.64a5.27 5.27 0 0 1 .58.07z"/><path class="cls-1" d="M110 47.31a5.27 5.27 0 0 0-.64-.1c-.28-3.89-2.23-11.81-6.33-12.25h.1a.37.37 0 0 0 .31-.44 3.15 3.15 0 0 1 1.67.7c-.08 0-.1.12-.16.2a.37.37 0 0 0 .42.54l.38-.13c2.46 2.61 4.02 8.79 4.25 11.48zM109.51 117.78a15.29 15.29 0 0 1-.12 8.58 14.41 14.41 0 0 0-1.29 1.54 19.39 19.39 0 0 0 1.11-10 1.76 1.76 0 0 0 .3-.12zM109.21 117.88a2.2 2.2 0 0 1-.36.13v-.52l.54-.15a1.86 1.86 0 0 1 .1.39 1.76 1.76 0 0 1-.28.15zM109.05 19.83c.34 0 .64.46.31.75-1.59 1.35-3.54 2.51-4.82 4.18h-.23c1-2.11 3.26-2.9 4.74-4.49-3-.72-6.66.61-9.79 2.41a.53.53 0 0 0-.08-.49 15.62 15.62 0 0 1 9.87-2.36zM109.36 47.85a.14.14 0 0 0 .1 0l-.1.07z"/><path class="cls-1" d="M109.21 117.88a19.39 19.39 0 0 1-1.11 10 6.22 6.22 0 0 0-.51.64.18.18 0 0 0 .15.28 20.63 20.63 0 0 1-2.76 4.77c-.49-.23-.9.41-.59.72a13.76 13.76 0 0 1-1.59 1.56 3.15 3.15 0 0 0 0-.43.43.43 0 0 0 0-.16c4.56-4.61 6.35-10.81 6.15-17.27a2.2 2.2 0 0 0 .26-.11zM106.05 35c-.16-.13-.31-.23-.46-.34a5.89 5.89 0 0 1 3.23-1.1.33.33 0 0 0 .51.08.47.47 0 0 1-.16.79c-.89.31-1.74.72-2.61 1a4.43 4.43 0 0 1-.51-.43zM109.36 117.34l-.54.15a.29.29 0 0 1 .54-.15zM109.33 47.21v.64c-3-.46-5.15-1.13-6.77-3a.57.57 0 0 0-.46-.58 11.35 11.35 0 0 1-1.31-2.59c-.87-2.41-1.46-6.41 1.75-7.08a.55.55 0 0 0 .41.36c-3.85 1-2 6.59-.39 8.87s4.13 3 6.74 3.38z"/><path class="cls-1" d="M109.31 33.6a.33.33 0 0 1-.51-.08.58.58 0 0 1 .23 0 .32.32 0 0 1 .28.08zM109.39 126.36c-.11.34-.21.69-.31 1-.39.36-.8.72-1.18 1.08.08-.21.13-.39.2-.57a14.41 14.41 0 0 1 1.29-1.51z"/><path class="cls-1" d="M109.08 127.39c-.11.25-.18.51-.28.77-.31.23-.62.43-1 .64h-.11a1.68 1.68 0 0 1 .16-.33c.43-.36.84-.72 1.23-1.08z"/><path class="cls-1" d="M107.85 128.8c.33-.21.64-.41 1-.64a20.1 20.1 0 0 1-3.31 5.66l-.49-.23a20.63 20.63 0 0 0 2.76-4.77c-.01 0 .01 0 .04-.02z"/><path class="cls-2" d="M103 34.93c4.1.44 6 8.36 6.33 12.25-2.61-.41-5.07-1.12-6.74-3.38s-3.46-7.87.39-8.87z"/><path class="cls-1" d="M80.29 25.45a5.24 5.24 0 0 1-1.74 1.43.37.37 0 0 1-.56-.23 24.8 24.8 0 0 1-.11-5.71 2.05 2.05 0 0 0 .23.2 17.38 17.38 0 0 0 .2 5.33c.67-.57 1.9-1.05 2.54-1.62-1.36 1.34 8.15 5.49 9.77 4.9s2.79-2.95 4-3.95a33.81 33.81 0 0 1 4.15-2.8.38.38 0 0 0 .41-.29c3.13-1.8 6.74-3.13 9.79-2.41-1.48 1.59-3.77 2.38-4.74 4.49h-.15a8.21 8.21 0 0 1 2.56-3.11c3.79-2.89-5.67.72-6 .77a27.31 27.31 0 0 0-3.16 1.87c-2.3 1.62-5 6.36-8.17 5.95a19.48 19.48 0 0 1-8.21-3.72c-.68-.62-.76-.98-.81-1.1zM107.9 128.49a1.68 1.68 0 0 0-.16.33.18.18 0 0 1-.15-.28 6.22 6.22 0 0 1 .51-.64c-.07.18-.12.36-.2.57 0 0-.03 0 0 .02z"/><path class="cls-2" d="M100.77 22.42c.28-.05 9.74-3.66 6-.77a8.21 8.21 0 0 0-2.56 3.11c-.38 0-.36.53 0 .58 2.79.39.33 1.31-1 2.62-2 1.95-4 3.95-6.1 5.79-5.72 5-12.1 1.33-18.18 4.21-.25.15-.13.59.16.56s.69 0 1.07 0a.16.16 0 0 0 0 .23 3 3 0 0 0 1 .72c.61.39 1.18.82 1.74 1.23a17.93 17.93 0 0 0 2.51 1.57c-.79.15-1.61.3-2.41.48a18.39 18.39 0 0 0-3.51.87.2.2 0 0 0 0 .36.18.18 0 0 0 0 .13 24.38 24.38 0 0 1-1.12 8.15 14.48 14.48 0 0 0-3-5.82.53.53 0 0 0-.79.1 32.83 32.83 0 0 1-2.39 4.18.29.29 0 0 0-.3.21.18.18 0 0 0 0 .12c-2.07 1.56-3.23 3.92-4.63 6.1-1.57 2.46-2.29-1-2.59-2.23-.36-1.51-.65-3-1.13-4.51a.4.4 0 0 0-.57-.23 50 50 0 0 1-5.4 3.46 36 36 0 0 0-.62-9.49 3.41 3.41 0 0 0 .59-.49c.36-.31-.08-.82-.46-.61a36.23 36.23 0 0 0-3.41 2 11 11 0 0 0-1.87 1.23c.72-.82 1.41-1.69 2.13-2.54A11.86 11.86 0 0 0 56 40.9c0-.07 0-.18-.1-.18a.13.13 0 0 0 0-.25 11.09 11.09 0 0 0-2.41-.62c-.59-.13-1.18-.28-1.74-.36a12.4 12.4 0 0 0 6-8.64h.31c.28 0 .28-.36.08-.44s-.23-.07-.34-.12a.31.31 0 0 0-.56-.21 16.49 16.49 0 0 0-9.8-.82 24.72 24.72 0 0 0-5 2.23c-4.38 2.2-8-.56-11.36-3s2.54-1.26 4-1.31a25.48 25.48 0 0 0 6.56-1.26c2.67-.82 5.08-2.2 7.74-3.05 3.29-1 6.69-1.3 10-2.41a.44.44 0 0 0 .36-.46 63.13 63.13 0 0 1 7.77-8.08c2.62-2.23 5.28-3.89 8.82-3a24.91 24.91 0 0 0 4.61 1.16 6.68 6.68 0 0 0 5.5-1.88C87.7 7 88.85 5.84 90 4.63c3.9-4 8.72-3.07 13.49-2.07a7.38 7.38 0 0 0-1.44.48 21.66 21.66 0 0 0-4.41 2.21.44.44 0 0 0-.15.61c.51.77.71 1.62 1.2 2.36a18.15 18.15 0 0 1-3.2.46.44.44 0 0 0-.39.64.33.33 0 0 0 .05.28 16.82 16.82 0 0 1 1.26 2.23c.72 1.51-.26.9-1.51.85a23 23 0 0 0-5.1.46 12.44 12.44 0 0 0-8 5 .16.16 0 0 0 .13.25 1.32 1.32 0 0 0 0 .16 15.48 15.48 0 0 0 .82 4 13.65 13.65 0 0 1-4.36-2.11c0-.33-.46-.31-.49 0v.08a.32.32 0 0 0-.05.41 24.8 24.8 0 0 0 .15 5.72.37.37 0 0 0 .56.23 5.24 5.24 0 0 0 1.74-1.43c0 .12.13.48.92 1.07a19.48 19.48 0 0 0 8.21 3.72c3.18.41 5.87-4.33 8.17-5.95a27.31 27.31 0 0 1 3.16-1.87zM74.78 16a.45.45 0 0 0-.23-.82c-3.74-.3-8.3-.9-10.12 3.05a.41.41 0 0 0-.18.49.35.35 0 0 0 .64.28v-.05c3.59.81 6.99-.95 9.89-2.95z"/><path class="cls-1" d="M104.31 25a1.72 1.72 0 0 1 .23-.28h2.36a.44.44 0 0 1 .31.74c-4.23 4.13-7.9 8.56-13.15 11.35-3.41 1.85-8.59 1.65-12.79 1.59a1.29 1.29 0 0 0-1.1 0H79.1c-.33 0-.41-.41-.16-.56 6.08-2.88 12.46.76 18.18-4.21 2.12-1.84 4.07-3.84 6.1-5.79 1.33-1.31 3.79-2.23 1-2.62-.39-.05-.41-.56 0-.58a1.46 1.46 0 0 1-.1.23.13.13 0 1 0 .23.12s-.07.07-.04.01zM106.05 35a4.43 4.43 0 0 0 .49.48 7.3 7.3 0 0 1-.82.31 1.8 1.8 0 0 0-.36-.33c.21-.16.44-.31.67-.46z"/><path class="cls-1" d="M105.36 35.42a1.8 1.8 0 0 1 .36.33l-.38.13a.37.37 0 0 1-.42-.54c.06-.08.08-.15.16-.2a1.23 1.23 0 0 1 .28.28z"/><path class="cls-1" d="M105.57 34.62c.15.11.3.21.46.34-.23.15-.46.3-.67.46a1.23 1.23 0 0 0-.28-.28 1.86 1.86 0 0 1 .49-.52zM105.13 47.29c-.1-.06-.23-.11-.33-.18a1 1 0 0 1 .36-.21c.3-.13.66.23.38.46h-.08a1.46 1.46 0 0 1-.33-.07zM105.1 134.23a1.36 1.36 0 0 1-.3.34 1.43 1.43 0 0 1-.28-.13c-.06 0-.11-.05-.13-.13.2-.23.41-.49.59-.72l.49.23a4.91 4.91 0 0 1-.37.41z"/><path class="cls-1" d="M105.57 34.62a1.86 1.86 0 0 0-.49.52 3.15 3.15 0 0 0-1.67-.7.44.44 0 0 0-.51-.38h-.03a3.55 3.55 0 0 1 2.7.56zM105.13 47.29a1.46 1.46 0 0 0 .33.12 32.66 32.66 0 0 0-4.12 3.85c-1.39 1.61-2.54 3.38-3.75 5.1a.67.67 0 0 1-1.2-.2.48.48 0 0 0 .46-.7l-.13-.15c1.93-3.1 4.8-6.61 8.08-8.2.1.07.2.12.33.18zM105 133.59c-.18.23-.39.49-.59.72-.33-.31.08-.95.59-.72z"/><path class="cls-2" d="M102.41 45.44a7.64 7.64 0 0 0 2.39 1.67c-3.28 1.59-6.15 5.1-8.08 8.2-.87-1.15-2.1-2.08-3-3.18s-1.89-2.41-2.89-3.61c3.23 1 8.48.56 10.4-2.34h.08a1.53 1.53 0 0 0 1.1-.74z"/><path class="cls-1" d="M104.52 134.44a1.43 1.43 0 0 0 .28.13 12.93 12.93 0 0 1-2 1.76 3.8 3.8 0 0 0 0-.46 13.76 13.76 0 0 0 1.59-1.56c.02.08.07.1.13.13zM98.29 5.4c-.13.08-.29.16-.39.23a2.48 2.48 0 0 1 .23.36V6a12.88 12.88 0 0 0 1 2.1 2.33 2.33 0 0 0-.44.1c-.49-.74-.69-1.59-1.2-2.36a.44.44 0 0 1 .15-.61A21.66 21.66 0 0 1 102.08 3a7.38 7.38 0 0 1 1.44-.48l.35.07a.19.19 0 0 0 .23-.07 1.17 1.17 0 0 1 .59.33c.21.18-.07.49-.3.36-.46-.23-2.34.69-2.77.9a21.29 21.29 0 0 0-3.1 1.64c-.08-.09-.16-.22-.23-.35zM104.54 24.76a1.72 1.72 0 0 0-.23.28h-.15a1.08 1.08 0 0 1 .15-.28z"/><path class="cls-1" d="M104.31 25v.07A.13.13 0 1 1 104 25a1.46 1.46 0 0 0 .1-.23h.18a1.08 1.08 0 0 0-.15.28zM61.63 16.89a.35.35 0 0 0-.31-.49c3.82-5 9.23-10.33 15.33-8.59 4.48 1.28 8 .41 11.28-2.92a23.63 23.63 0 0 1 3.87-3.33c3.61-2.44 8.63-.72 12.25.61a.22.22 0 0 1 .07.39 1.88 1.88 0 0 0-.58 0c-4.79-1-9.61-1.9-13.54 2.07C88.85 5.84 87.7 7 86.44 8.2a6.68 6.68 0 0 1-5.51 1.87 24.91 24.91 0 0 1-4.61-1.16c-3.54-.89-6.2.77-8.82 3A63.13 63.13 0 0 0 59.73 20a.47.47 0 0 0-.2-.41 29.71 29.71 0 0 1 1.95-2.49.33.33 0 0 0 .15-.18z"/><path class="cls-1" d="M104.1 2.56a.19.19 0 0 1-.23.07l-.35-.07a1.88 1.88 0 0 1 .58 0zM103.41 34.44a.37.37 0 0 1-.31.44h-.1a.55.55 0 0 1-.41-.36l.43-.08a1.93 1.93 0 0 1 .39 0z"/><path class="cls-1" d="M103.41 34.44a1.93 1.93 0 0 0-.41 0l-.43.08a.36.36 0 0 1 .23-.47h.1a.44.44 0 0 1 .51.39zM98.16 146c0-.05 0-.05-.08-.07.9-2.39 2.39-3 3.74-1.36v.59l.31-.08s0 .06.08.08v-.1c.13 0 .23-.08.36-.1-.13-.18-.23-.34-.36-.49v-7.72a3.9 3.9 0 0 0 .59-.41 63.27 63.27 0 0 1-.18 8.82.4.4 0 0 1-.74.21c-1.59-2.11-2.9-.64-3.52 1.18a.48.48 0 0 1-.71.28 8.83 8.83 0 0 1-3-4c.12-.1.23-.21.36-.31a9.11 9.11 0 0 0 2.51 3.62.88.88 0 0 0 0 .15l.18-.08a.86.86 0 0 0 .28.21c0-.13.07-.26.13-.39a.19.19 0 0 0 .05-.03z"/><path class="cls-1" d="M102.8 135.87a3.8 3.8 0 0 1 0 .46 3.9 3.9 0 0 1-.59.41v-.43a7 7 0 0 0 .59-.44z"/><path class="cls-1" d="M102.75 135.44a3.15 3.15 0 0 1 0 .43 7 7 0 0 1-.54.44v-.62c.15-.13.28-.25.44-.41a.43.43 0 0 1 .1.16zM102.8 34.08a.36.36 0 0 0-.23.47c-3.21.67-2.62 4.67-1.75 7.08a11.35 11.35 0 0 0 1.31 2.59.45.45 0 0 0-.28 0l-.33.15a9.79 9.79 0 0 1-1.29-2.59c-.94-2.9-1.23-7.08 2.57-7.7zM102.62 145c-.13 0-.23.07-.36.1v-.59c.13.1.23.26.36.49z"/><path class="cls-1" d="M102 44.8l-.13.08a3.57 3.57 0 0 1-.38-.49l.33-.15a.45.45 0 0 1 .28 0c.15.2.31.41.46.58V45a1.3 1.3 0 0 1-.18.46 2.76 2.76 0 0 1-.46-.51s.08-.13.08-.15zM102.26 135.69c-.18.18-.36.36-.54.52a6.48 6.48 0 0 1 .08-.77c.07-.41.69-.46.9-.16-.16.16-.29.28-.44.41zM102.59 44.82c-.15-.17-.31-.38-.46-.58a.57.57 0 0 1 .46.58zM102.26 145.05v.1s0-.05-.08-.08a.12.12 0 0 0 .08-.02z"/><path class="cls-1" d="M102.26 144.46v.59a.12.12 0 0 1-.08 0 3.22 3.22 0 0 0-.33-.51v-.57a4.4 4.4 0 0 1 .41.49z"/><path class="cls-1" d="M102.26 136.74v7.72a4.4 4.4 0 0 0-.46-.49 53.18 53.18 0 0 1-.13-7.25.32.32 0 0 0 .46.13.42.42 0 0 0 .13-.11z"/><path class="cls-1" d="M102.26 136.31v.43a.42.42 0 0 1-.13.11.32.32 0 0 1-.46-.13 4.07 4.07 0 0 1 0-.49c.18-.16.36-.34.54-.52zM102 44.93a2.76 2.76 0 0 0 .46.51 1.53 1.53 0 0 1-1.15.74h-.05a3.69 3.69 0 0 0 .43-.92 2.47 2.47 0 0 1 .31-.33zM101.85 144.56a3.22 3.22 0 0 1 .33.51l-.31.08c0-.15-.02-.38-.02-.59zM102 44.8s0 .08-.08.13zM101.9 44.88a2.47 2.47 0 0 0-.28.28.14.14 0 0 0 0-.15z"/><path class="cls-1" d="M101.9 44.88l-.23.18a.31.31 0 0 0-.46-.24.72.72 0 0 0-.15.11 4.39 4.39 0 0 1 .49-.54 3.57 3.57 0 0 0 .35.49zM101.8 144v.57c-1.35-1.59-2.84-1-3.74 1.36a1.53 1.53 0 0 1-.33-.29c.92-2.1 2.5-3.1 4.07-1.64zM101.72 136.23a4.07 4.07 0 0 0 0 .49.3.3 0 0 1 0-.46s-.02-.03 0-.03z"/><path class="cls-1" d="M101.67 45.06a.14.14 0 0 1 0 .15c-.28.28-.51.49-.3 0l.3-.23z"/><path class="cls-1" d="M100.7 45.83a.58.58 0 0 1 .12-.72c.06 0 .11-.08.13-.13s0 0 .08 0a.72.72 0 0 1 .15-.11.31.31 0 0 1 .46.24l-.3.23c-.21.46 0 .25.3 0a3.69 3.69 0 0 1-.43.92.66.66 0 0 1-.51-.43zM101 63.44a.59.59 0 0 0-.16.1c0-.16.08-.34.11-.49s.23-.1.23 0v.29a.61.61 0 0 0-.18.1z"/><path class="cls-1" d="M101 63.44a.61.61 0 0 1 .18-.08c0 6.2-1.64 12.46-3 18.45a.49.49 0 0 1-.1.23 6.42 6.42 0 0 1-.36-.79c1.21-5.95 2.64-11.87 3.28-17.81z"/><path class="cls-1" d="M100.82 63.54a.59.59 0 0 1 .16-.1c-.62 5.94-2 11.86-3.28 17.81-.08-.26-.21-.59-.36-1 1.02-5.54 2.23-11.18 3.48-16.71zM101 45c0 .05-.07.08-.13.13a.58.58 0 0 0-.12.72C98 48.67 93.78 48.75 90.39 48s0 0-.06-.07-.15-.18-.23-.26c2 0 4 .39 6-.05S99.29 46 101 45z"/><path class="cls-1" d="M100.7 45.83a.66.66 0 0 0 .48.35c-1.92 2.9-7.17 3.39-10.4 2.34-.1-.15-.23-.33-.36-.49 3.36.72 7.58.64 10.28-2.2zM99.85 8.17a.46.46 0 0 1-.2.77 21.73 21.73 0 0 1-3.65.61 1.74 1.74 0 0 0-.2-.3.35.35 0 0 0-.13-.11A15.17 15.17 0 0 0 99 8.61a2.09 2.09 0 0 0 .21.23c0-.1.05-.18.08-.28s.17 0 .25-.06c-.08-.05-.13-.13-.2-.18l.07-.25a2.21 2.21 0 0 0-.25 0 12.88 12.88 0 0 1-1-2.1 1.21 1.21 0 0 1 .36-.23 8.31 8.31 0 0 0 1.33 2.43zM78.83 115.11a.65.65 0 0 0 .41-.31c-.82 11.49 6.38 28.17 20.17 23a.28.28 0 0 1 .21.51 12.18 12.18 0 0 1-7.31 1.41.63.63 0 0 0-1-.2 14 14 0 0 1-7.36-5 .32.32 0 0 0-.26-.53h-.19c-4-5.21-6-12.9-5-18.9a.31.31 0 0 0 .33.02z"/><path class="cls-1" d="M99.54 8.5c-.08 0-.15 0-.25.06a2 2 0 0 1 0-.24c.12.05.17.13.25.18zM99.41 8.07l-.07.25c0-.07-.11-.12-.18-.2a2.21 2.21 0 0 1 .25-.05z"/><path class="cls-1" d="M99.34 8.32a2 2 0 0 0 0 .24h-.29a4.73 4.73 0 0 1-.28-.39 2.33 2.33 0 0 1 .44-.1c.02.13.08.18.13.25zM98.67 22.5l.49-.31a.53.53 0 0 1 .08.49c-.15.11-.3.18-.46.29l-.71-.11c.17-.12.38-.25.59-.38z"/><path class="cls-1" d="M99.29 8.56c0 .1-.06.18-.08.28a2.09 2.09 0 0 1-.21-.23c.11-.03.21-.03.29-.05zM99 22.09a.32.32 0 0 1 .21.1l-.49.31c-5.7-.75-12.92-3.44-6-8.92h.18a.09.09 0 0 1 0 .08c-.95 1-2.66 2.38-2.59 3.95a3.21 3.21 0 0 0 2 2.61A21.22 21.22 0 0 0 99 22.09zM99.23 22.7a.38.38 0 0 1-.41.29c.11-.11.26-.18.41-.29z"/><path class="cls-3" d="M96.83 64.08a5.88 5.88 0 0 0 4-.54c-1.25 5.53-2.46 11.17-3.48 16.76 0-.15-.11-.31-.18-.49-2.51-6.12-6.87-7.3-10.56-1.48a88.31 88.31 0 0 1-5.21-11.59c-.28-.74-.58-2.66-1.07-4.31a14 14 0 0 0 4.12-.66 14.27 14.27 0 0 0 4.45-1.67.68.68 0 0 0 .18-.2c2.59 1.43 5.21 3.2 7.28 3.77a.64.64 0 0 0 .47.41z"/><path class="cls-1" d="M98.72 8.22a4.73 4.73 0 0 0 .28.39 15.17 15.17 0 0 1-3.33.53.38.38 0 0 0-.54.18.44.44 0 0 1 .39-.64 18.15 18.15 0 0 0 3.2-.46zM80.88 24.93c-.64.57-1.87 1.05-2.54 1.62a17.38 17.38 0 0 1-.2-5.33 1.06 1.06 0 0 0 .26.2c-.11 2-.13 4.75 2.33 3.16.36-.23.66.2.51.53-.62 1.39 6.59 3.85 7.36 4.05 3.07.72 4.82-2.84 7-4.56a26.67 26.67 0 0 1 2.44-1.72l.71.11a33.81 33.81 0 0 0-4.1 2.89c-1.23 1-2.54 3.44-4 3.95s-11.13-3.56-9.77-4.9zM98.52 5.79a1.21 1.21 0 0 0-.36.23V6c.05-.2.1-.38.16-.59a2 2 0 0 0 .2.38zM98.65 22.5c-.21.13-.42.26-.59.38-2.82-.38-6.13-1.07-8-3.3s.46-4.74 2.31-6a1.62 1.62 0 0 1 .31 0c-6.95 5.48.32 8.17 5.97 8.92zM98.29 5.4c-.06.21-.11.39-.16.59a2.48 2.48 0 0 0-.23-.36c.1-.07.26-.15.39-.23zM98.08 145.9l.08.07a.19.19 0 0 1-.1.05.32.32 0 0 0 .02-.12z"/><path class="cls-1" d="M98.08 145.9a.32.32 0 0 1 0 .12l-.41.18c-.06 0-.08 0-.11-.07a2 2 0 0 1 .21-.52 1.53 1.53 0 0 0 .31.29zM95.62 9.58a1.58 1.58 0 0 0 .38 0c.8 1.11 1.34 2.34 2 3.52a.41.41 0 0 1-.36.61 44.85 44.85 0 0 0-4.79-.13c.05-.13-.08-.23-.21-.15a2.43 2.43 0 0 0-.28.2 14.08 14.08 0 0 0-3.1.54c-2.85.85-4.64 2.49-7 4.13a.25.25 0 0 0-.31.15.16.16 0 0 1-.13-.25 12.44 12.44 0 0 1 8-5 23 23 0 0 1 5.1-.46c1.25 0 2.23.66 1.51-.85a16.82 16.82 0 0 0-1.26-2.23.33.33 0 0 1-.05-.28.45.45 0 0 0 .39.23z"/><path class="cls-1" d="M98.06 146c-.06.13-.08.26-.13.39a.86.86 0 0 1-.28-.21zM97.7 81.25a6.42 6.42 0 0 0 .36.79.48.48 0 0 1-.67 0c-.1-.2-.18-.43-.28-.66.07-.38.15-.75.23-1.13.15.41.28.75.36 1zM97.23 63.36a1.78 1.78 0 0 0 .52 0c0 .28-.08.57-.44.54a3.44 3.44 0 0 1-1-.2.67.67 0 0 1 0-.57 4.38 4.38 0 0 0 .92.23z"/><path class="cls-1" d="M97.75 63.33a1.78 1.78 0 0 1-.52 0 4.38 4.38 0 0 1-.84-.26.77.77 0 0 1 .44-.41h.07c.18.1.36.17.54.25a.52.52 0 0 1 .31.42zM97.75 145.61a2 2 0 0 0-.21.52 9.11 9.11 0 0 1-2.54-3.62l.15-.13a1 1 0 0 0-.23 0 2.6 2.6 0 0 1-.1-.25l-.21.15a1 1 0 0 1-.23 0l.08.2a20.26 20.26 0 0 0-2.64 2.54c0-.28.1-.59.13-.9a23 23 0 0 1 2.56-2.28c.2-.15.59-.2.72.11a9.58 9.58 0 0 0 2.52 3.66zM97.65 146.2l-.18.08a.88.88 0 0 1 0-.15c.1.05.12.07.18.07zM97.16 79.81c.07.18.13.34.18.49-.08.38-.16.75-.23 1.13-1.28-3.18-2.59-7.08-6-6.59-1.33.26-3.62 3.1-4.2 4-.11-.18-.21-.36-.31-.54 3.69-5.79 8.05-4.61 10.56 1.51zM97.11 81.43c.1.23.18.46.28.66a.5.5 0 0 1-.28-.58z"/><path class="cls-1" d="M96.9 62.67h-.07a.77.77 0 0 0-.44.41c-4.72-1.82-14.59-10.51-17.48-3.25 0-.08-.13-.13-.2-.08s-.05 0-.05 0v.08a.26.26 0 0 0-.07.18.67.67 0 0 0-.1.23v.05c0-.05.15.13.33.53-.33 0-.72-.3-.59-.69 2.98-8.74 13.55.13 18.67 2.54zM96.85 55.46a.48.48 0 0 1-.46.7.41.41 0 0 1 .08-.41c.07-.13.15-.26.25-.41z"/><path class="cls-1" d="M89.78 48.11a5.29 5.29 0 0 0 1 .38c1 1.2 1.89 2.43 2.89 3.61s2.18 2 3 3.18c-.1.15-.18.28-.25.41a.41.41 0 0 0-.08.41h-.08c-2.23-.87-3.79-3.56-5.2-5.41-2.23-3-4.41-5.41-8-6.74a.23.23 0 0 1-.13-.1 1.34 1.34 0 0 0 .47-.11c2.6.55 4.53 2.26 6.27 4.26 0 0 .05.08.11.11zM96.39 63.1a.67.67 0 0 0 0 .57c-2.07-.57-4.69-2.34-7.28-3.77a.5.5 0 0 0-.43-.75 5.5 5.5 0 0 0-.69.11c-3.49-1.82-6.8-2.7-8.59 1a1.12 1.12 0 0 0-.4-.36c2.8-7.31 12.67 1.38 17.39 3.2z"/><path class="cls-3" d="M98.06 22.88a26.67 26.67 0 0 0-2.44 1.72c-2.2 1.72-4 5.28-7 4.56-.77-.2-8-2.66-7.36-4.05.15-.33-.15-.76-.51-.53-2.46 1.59-2.44-1.13-2.33-3.16a12.26 12.26 0 0 0 5 2.28.47.47 0 0 0 .56-.56c-.43-1.51-.49-3.41-1.36-4.72a.27.27 0 0 0-.25-.15c2.33-1.64 4.12-3.28 7-4.13a14.08 14.08 0 0 1 3.1-.54c-1.85 1.24-4.15 3.77-2.31 6s5.08 2.9 7.9 3.28z"/><path class="cls-1" d="M95.62 9.58h-.1a.45.45 0 0 1-.39-.23.38.38 0 0 1 .54-.18.35.35 0 0 1 .13.11 1.74 1.74 0 0 1 .2.3 1.58 1.58 0 0 1-.38 0zM95.16 142.38l-.15.13a1.42 1.42 0 0 1-.08-.18 1 1 0 0 1 .23.05z"/><path class="cls-1" d="M94.93 142.33a1.42 1.42 0 0 0 .08.18c-.13.1-.24.21-.36.31-.06-.15-.13-.28-.18-.44a1.06 1.06 0 0 1 .15-.15c.1.05.21.05.31.1z"/><path class="cls-1" d="M94.83 142.08a2.6 2.6 0 0 0 .1.25c-.1-.05-.21-.05-.31-.1zM91.13 144.89c-.12.16-.28.34-.41.49l.39.23v.18s0-.07.1-.12.31.17.46.25c0-.33.11-.67.16-1a20.26 20.26 0 0 1 2.64-2.54c0 .16.12.29.18.44a19.49 19.49 0 0 0-3 3.25c-.26.34-1 .41-1.05-.15a16.39 16.39 0 0 1 .59-6.18.84.84 0 0 1 .13-.25c.33.07.67.15 1 .2a.44.44 0 0 1 0 .21c-.1 1.35-.21 2.77-.38 4.12-.27.29-.52.57-.81.87z"/><path class="cls-1" d="M94.62 142.23a1.06 1.06 0 0 0-.15.15l-.08-.2a1 1 0 0 0 .23.05zM92.7 13.58a1.62 1.62 0 0 0-.31 0 2.43 2.43 0 0 1 .28-.2c.13-.08.26 0 .21.15s-.1.05-.18.05zM92.31 139.69c-.35-.05-.69-.13-1-.2a.63.63 0 0 1 1 .2zM92 144c0 .31-.08.62-.13.9-.23.26-.44.51-.62.75 0 0-.08-.06-.1-.06v-.72c.27-.28.52-.56.85-.87z"/><path class="cls-1" d="M91.83 144.92c0 .33-.11.67-.16 1-.15-.08-.31-.18-.46-.25.18-.24.39-.49.62-.75zM91.21 145.67c0 .05-.08.07-.1.12v-.18l.1.06zM90.72 145.38c.13-.15.29-.33.41-.49v.72zM90.37 48c.13.16.26.34.36.49a5.29 5.29 0 0 1-1-.38c-.06 0-.11-.08-.11-.13a.22.22 0 0 1 .21-.31h.2c.08.08.16.18.23.26s.11.07.11.07z"/><path class="cls-1" d="M90.08 47.67h-.2a.22.22 0 0 0-.21.31c-1.74-2-3.64-3.69-6.17-4.21a5.84 5.84 0 0 0 .69-.18 11.32 11.32 0 0 1 5.89 4.08zM88.65 59.15a.5.5 0 0 1 .43.75c-.38-.23-.77-.44-1.12-.64a5.5 5.5 0 0 1 .69-.11z"/><path class="cls-1" d="M80.11 61.82a5.1 5.1 0 0 0-.2-.59 34.36 34.36 0 0 0 4.82-1 23.59 23.59 0 0 1 3.23-1c.35.2.74.41 1.12.64a.68.68 0 0 1-.18.2 14.27 14.27 0 0 1-4.46 1.67 14 14 0 0 1-4.12.66 4 4 0 0 0-.21-.58zM86.91 78.89l.3.51a.61.61 0 0 1-.36 0c-.15-.26-.3-.52-.43-.77v-.13a1 1 0 0 1 .16-.21c.12.24.22.42.33.6zM86.47 42.08l-1.08.16a17.93 17.93 0 0 1-2.51-1.57c-.56-.41-1.13-.84-1.74-1.23a3 3 0 0 1-1-.72.16.16 0 0 1 0-.23h1.16a11.16 11.16 0 0 1 1.56 1 18 18 0 0 0 4 2.18.5.5 0 0 1 .23.84c0-.23-.12-.46-.38-.43a.39.39 0 0 0-.15 0z"/><path class="cls-1" d="M86.16 42.54a5.3 5.3 0 0 1-.77-.3l1.08-.16h.08a.39.39 0 0 1 .15 0c.26 0 .38.2.38.43a.52.52 0 0 1-.49.13 2.08 2.08 0 0 1-.43-.1z"/><path class="cls-1" d="M86.16 42.54a2.08 2.08 0 0 0 .41.11.52.52 0 0 0 .49-.13.35.35 0 0 1-.26.31c-.79.2-1.69.51-2.61.76a9.48 9.48 0 0 0-1-.12.26.26 0 0 0-.21.41 7.92 7.92 0 0 1-2.87.23V44a.32.32 0 0 0-.61 0 .2.2 0 0 1 0-.36 18.39 18.39 0 0 1 3.5-.92c.8-.18 1.62-.33 2.41-.48a5.3 5.3 0 0 0 .75.3zM86.42 78.69c.13.25.28.51.43.77a.59.59 0 0 1-.43-.77zM86.6 78.33a1 1 0 0 0-.16.21v.13a74.64 74.64 0 0 1-5.85-13.13c-.12-.38-.41-1.82-.74-3.15a3.93 3.93 0 0 0 .49 0c.49 1.65.79 3.57 1.07 4.31a88.31 88.31 0 0 0 5.19 11.63z"/><path class="cls-2" d="M88 59.26a23.59 23.59 0 0 0-3.23 1 34.36 34.36 0 0 1-4.82 1 5 5 0 0 0-.54-.95c1.75-3.75 5.06-2.87 8.59-1.05z"/><path class="cls-1" d="M83.5 43.77a1.34 1.34 0 0 1-.47.11.26.26 0 0 1 .21-.41 9.48 9.48 0 0 1 1 .12 5.84 5.84 0 0 1-.74.18zM83.67 134a.32.32 0 0 1 .26.53 3.69 3.69 0 0 1-.43-.53z"/><path class="cls-1" d="M49 105.86l.15-.52a.46.46 0 0 0-.28-.58 45.09 45.09 0 0 1 .18-10.46h.08a.51.51 0 0 0 .61-.2c-.15 1.51-.25 3-.28 4.53-.13 9.8 2.44 21 9.72 28.15 7.07 6.94 15 7 24.3 7.18a3.69 3.69 0 0 0 .43.53.28.28 0 0 1-.26.13c-4.33.13-9 .38-13.45-.39a.68.68 0 0 0-.8-.15 18.59 18.59 0 0 1-8.2-3.72 35.82 35.82 0 0 1-12.28-20.56c-.15-.81-.3-1.66-.41-2.46.2-.48.38-1 .49-1.48zM83.34 22.73a2.56 2.56 0 0 1-.56-.15 15.48 15.48 0 0 1-.82-4 1.32 1.32 0 0 1 0-.16.07.07 0 0 0 .1 0l.21-.15a.27.27 0 0 1 .25.15c.87 1.31.93 3.21 1.36 4.72a.47.47 0 0 1-.56.56 12.26 12.26 0 0 1-5-2.28v-.48a12.3 12.3 0 0 0 4.68 2.2c0 .08.05.15.07.23a.52.52 0 0 0 .18-.18l.29.08a2.58 2.58 0 0 1-.08-.26.62.62 0 0 0 .18-.18z"/><path class="cls-1" d="M83.6 22.81a.62.62 0 0 1-.18.18c0-.08 0-.18-.08-.26zM83.42 23a2.58 2.58 0 0 0 .08.26l-.29-.08a1.3 1.3 0 0 0 .21-.18z"/><path class="cls-1" d="M83.42 23a1.3 1.3 0 0 1-.21.18 2.21 2.21 0 0 1-.25-.05 5.14 5.14 0 0 0-.18-.56 2.56 2.56 0 0 0 .56.15c.03.09.05.19.08.28zM83.21 23.19a.52.52 0 0 1-.18.18c0-.08 0-.15-.07-.23a2.21 2.21 0 0 0 .25.05z"/><path class="cls-1" d="M82.78 22.58a5.14 5.14 0 0 1 .18.56 12.3 12.3 0 0 1-4.56-2.2 3.39 3.39 0 0 0 0-.44 13.65 13.65 0 0 0 4.38 2.08zM82.32 18.27l-.21.15a.07.07 0 0 1-.1 0 .25.25 0 0 1 .31-.15zM81.24 38.49h-1.1a1.29 1.29 0 0 1 1.1 0zM78.6 53.39a7 7 0 0 0-.2-1v-.08a24.38 24.38 0 0 0 1.12-8.15.18.18 0 0 1 0-.13l.61.13a19.06 19.06 0 0 1-1.46 10.4.54.54 0 0 1-1-.12 12.52 12.52 0 0 0-2.51-6.64l.28-.52a13 13 0 0 1 2.64 6c-.1.28-.2.56-.33.84.15.06.31.08.43.13a.3.3 0 0 1 0 .16.69.69 0 0 0 0-.13 2.42 2.42 0 0 1 .46.13 9.84 9.84 0 0 0-.1-1zM80.32 62.43a3.93 3.93 0 0 1-.49 0l-.15-.56a2.08 2.08 0 0 0 .43 0 4 4 0 0 1 .21.56zM80.16 44v.1l-.61-.1a.32.32 0 0 1 .61 0zM80.11 61.82a2.08 2.08 0 0 1-.43 0c-.05-.21-.11-.39-.16-.57a1.74 1.74 0 0 1 .39-.05 5.1 5.1 0 0 1 .2.62z"/><path class="cls-1" d="M79.91 61.23a1.74 1.74 0 0 0-.39.05c-.08-.31-.18-.56-.26-.79l.13-.21a5 5 0 0 1 .52.95zM79.68 61.85l.15.56h-.18a.68.68 0 0 1-.41-.23.23.23 0 0 1-.08-.18.3.3 0 0 0 0-.15.32.32 0 0 1 0-.13.44.44 0 0 1 .41-.44c0 .18.06.36.11.57zM79.09 113.75a1.14 1.14 0 0 1-.16-.36.23.23 0 0 1 .44.08c0 .26-.05.51-.08.8a.11.11 0 0 0 0-.08 3.14 3.14 0 0 1-.2-.44zM79.37 60.28l-.13.21a3.7 3.7 0 0 0-.24-.59 1.12 1.12 0 0 1 .37.38zM79.29 114.27a.61.61 0 0 1-.05.53 4.53 4.53 0 0 1 .05-.53z"/><path class="cls-1" d="M79.27 114.19a.11.11 0 0 1 0 .08 4.53 4.53 0 0 0-.05.53.65.65 0 0 1-.41.31c.08-.46.16-.92.26-1.36a3.14 3.14 0 0 0 .2.44zM79.24 60.49c.08.23.18.48.26.79a.44.44 0 0 0-.41.44c-.13-.34-.23-.64-.31-.88a.48.48 0 0 0 .44-.28s.02-.05.02-.07z"/><path class="cls-1" d="M78.5 60a.26.26 0 0 1 .07-.18c.06-.05.08-.08.11-.08a.3.3 0 0 1 .2.08 3.7 3.7 0 0 1 .28.59v.07a.48.48 0 0 1-.44.28c-.18-.4-.28-.61-.33-.53s-.08 0 0-.05a.67.67 0 0 1 .11-.18zM79.11 61.85a.3.3 0 0 1 0 .15.18.18 0 0 1 0-.15zM78.68 114.39a5.27 5.27 0 0 1 .23-1 1.14 1.14 0 0 0 .16.36c-.1.44-.18.9-.26 1.36a.31.31 0 0 1-.28 0 2.8 2.8 0 0 1 .15-.72z"/><path class="cls-1" d="M78.93 113.39a5.27 5.27 0 0 0-.23 1c-4.9-9.25-5.51-19.76-5.85-30.24-.59-9.49-2.87-22.38-.89-31.87l.49-.46c-.9 9.71 0 19 .79 28.71.98 11.36.95 22.25 5.69 32.86zM78.88 59.85a.3.3 0 0 0-.2-.08c.07-.05.15 0 .2.08zM78.6 53.41a9.84 9.84 0 0 1 .1 1 2.42 2.42 0 0 0-.46-.13 9 9 0 0 0 .36-.87zM78.65 59.74s-.05 0-.11.08 0-.05 0-.08.09 0 .11 0z"/><path class="cls-1" d="M78.68 114.39a2.8 2.8 0 0 0-.13.69.45.45 0 0 1-.36-.28C72.76 104.5 73 93.66 72 82.35c-.8-9.43-3.23-20.32-.64-29.68l.54-.39c-2 9.49.3 22.38.89 31.87.38 10.48.99 20.99 5.89 30.24zM78.6 53.39a9 9 0 0 1-.36.85.08.08 0 0 0-.08 0 4.15 4.15 0 0 0-.1-1c.13-.31.23-.62.34-.92a7 7 0 0 1 .2 1.07zM77.93 20.42c0-.31.52-.33.49 0s0 0-.08 0a.29.29 0 0 0-.41.08z"/><path class="cls-4" d="M78.19 114.8a.45.45 0 0 0 .36.28c-1 6 1 13.69 5 18.9-9.28-.18-17.23-.24-24.3-7.18-7.28-7.15-9.85-18.35-9.72-28.15 0-1.51.13-3 .28-4.53a.59.59 0 0 0 .08-.59C50.69 86 53 78.43 54.38 71a110.67 110.67 0 0 0 2.15-23.45.48.48 0 0 0 0-.49c0-.79-.05-1.61-.1-2.41a70.87 70.87 0 0 1 .87 9.21c-.34.16-.1.72.23.59a11.47 11.47 0 0 0 2.38-1.18c.36-.2 3-2.41 3.23-1.72.9 2.8 1.13 5.64 2.46 8.29a.38.38 0 0 0 .59.07 70.21 70.21 0 0 0 4.9-7 .1.1 0 0 0 .08 0 1.1 1.1 0 0 0 .28-.2c-2.64 9.29-.21 20.21.55 29.64 1 11.31.76 22.15 6.19 32.45z"/><path class="cls-1" d="M78.16 20.73v.46a2.05 2.05 0 0 1-.23-.2c0-.13 0-.26.05-.41a.29.29 0 0 1 .41-.08h.08a3.39 3.39 0 0 1 0 .44 1.25 1.25 0 0 1-.31-.21z"/><path class="cls-1" d="M78.4 20.91v.51a1.06 1.06 0 0 1-.26-.2v-.46a1.25 1.25 0 0 0 .26.15zM78.4 52.26v.08c-.11.3-.21.61-.34.92a13 13 0 0 0-2.64-6l.08-.15a.38.38 0 0 0-.18 0c-.08-.11-.18-.21-.26-.31 0 .13-.13.23-.18.36h-.18s.08.08.11.13a23.24 23.24 0 0 1-2.28 3.79V51c0-.2-.13-.28-.29-.28a32.83 32.83 0 0 0 2.39-4.18.53.53 0 0 1 .79-.1 14.48 14.48 0 0 1 2.98 5.82zM78.24 54.26a.69.69 0 0 1 0 .13.3.3 0 0 0 0-.16.08.08 0 0 1 0 .03z"/><path class="cls-1" d="M78.16 54.23c-.12 0-.28-.07-.43-.13.13-.28.23-.56.33-.84a4.15 4.15 0 0 1 .1.97zM77.93 20.5c0 .15 0 .28-.05.41a.32.32 0 0 1 .05-.41zM75.5 47.08l-.08.15-.1-.12a.38.38 0 0 1 .18-.03zM75.42 47.23l-.28.52c-.1-.16-.23-.31-.33-.44l.07-.15a2.28 2.28 0 0 1 .44 0zM75.32 47.11a2.28 2.28 0 0 0-.44 0c.05-.13.13-.23.18-.36.08.15.18.25.26.36z"/><path class="cls-1" d="M74.81 47.31c.1.13.23.28.33.44a15.71 15.71 0 0 1-2.69 4v-.61-.06a23.24 23.24 0 0 0 2.36-3.77zM74.55 15.14a.45.45 0 0 1 .23.82c-2.9 2-6.3 3.8-9.92 3a3.16 3.16 0 0 1 .21-.33c3.2.59 6.3-.75 8.94-2.67.18 0 .36 0 .54.05a2.26 2.26 0 0 1-.13-.33.38.38 0 0 1 .13-.1.38.38 0 0 1-.18 0l-.13-.28a4.06 4.06 0 0 1-.36.26c-3.53-.31-7.2-.85-9 2.66h-.18a.86.86 0 0 0-.23 0c1.78-3.98 6.34-3.38 10.08-3.08zM74.88 47.16l-.07.15c0-.05-.08-.08-.11-.13z"/><path class="cls-1" d="M74.42 15.68a2.26 2.26 0 0 0 .13.33c-.18 0-.36 0-.54-.05a2 2 0 0 0 .41-.28zM74.55 15.58a.38.38 0 0 0-.13.1v-.13a.38.38 0 0 0 .13.03z"/><path class="cls-1" d="M74.42 15.68A2 2 0 0 1 74 16c-.2 0-.43 0-.66-.05a4.07 4.07 0 0 0 .53-.38h.49s.04.06.06.11zM74.37 15.55h-.49a4.06 4.06 0 0 0 .36-.26zM73.88 15.53a4.07 4.07 0 0 1-.53.38 19.31 19.31 0 0 0-3.87-.13 5.35 5.35 0 0 0-4.18 2.46h-.46c1.84-3.56 5.51-3.02 9.04-2.71z"/><path class="cls-1" d="M73.35 15.91c.23 0 .46 0 .66.05-2.64 1.92-5.74 3.26-8.94 2.67.07-.13.15-.26.23-.39a11.87 11.87 0 0 0 8.05-2.33zM72.58 138.67c-.26 0-.49-.08-.75-.11-.8-1.3-2-2.3-2.64-3.76a.49.49 0 0 1 .25-.67l.8.15a.46.46 0 0 1 .1.18c.72 1.77 2.36 2.9 3.08 4.67a.58.58 0 0 1-.57.74c-1.38-.18-2.77-.15-4.1-.46a3.64 3.64 0 0 0 0-.56 26 26 0 0 0 3.39.35 1.6 1.6 0 0 0 .1.23c.08-.07.15-.15.2-.2a2.23 2.23 0 0 1 .36.05.72.72 0 0 0-.13-.28l.29-.28a1.77 1.77 0 0 0-.38-.05z"/><path class="cls-1" d="M73 138.72l-.29.28a1.07 1.07 0 0 0-.12-.33 1.77 1.77 0 0 1 .41.05zM72.7 139a.72.72 0 0 1 .13.28 2.23 2.23 0 0 0-.36-.05c.08-.08.16-.15.23-.23z"/><path class="cls-1" d="M72.58 138.67a1.07 1.07 0 0 1 .12.33c-.07.08-.15.15-.23.23a1 1 0 0 0-.3 0 6.48 6.48 0 0 0-.34-.64c.26 0 .49.03.75.08zM72.09 51.62c-.18.18-.36.36-.56.54v-.1l.54-.82A.15.15 0 0 0 72 51l.23-.31c.16 0 .31.08.29.28v.16zM72.5 51.16v.61l-.49.46a1.72 1.72 0 0 1 .13-.62z"/><path class="cls-1" d="M72.47 139.23c0 .05-.12.13-.2.2a1.6 1.6 0 0 1-.1-.23 1 1 0 0 1 .3.03zM72.24 50.72L72 51a.2.2 0 0 0-.1 0 .18.18 0 0 1 0-.12.29.29 0 0 1 .34-.16zM71.78 51.39v-.11c0-.08.13-.16.18-.23a.15.15 0 0 1 .11.23l-.54.82a5.67 5.67 0 0 1 .2-.67zM72.09 51.64a1.72 1.72 0 0 0-.13.62l-.54.39c0-.16.07-.33.13-.49s.36-.34.54-.52z"/><path class="cls-1" d="M71.91 51.05a.2.2 0 0 1 .1 0c-.05.07-.13.15-.18.23a.61.61 0 0 1 0-.18zM71.83 138.56a6.48 6.48 0 0 1 .34.64 26 26 0 0 1-3.39-.35.4.4 0 0 0 0-.18.74.74 0 0 0-.16.12 2.64 2.64 0 0 1-.44-.12 4 4 0 0 1 0 .46s-.08 0-.1.08h.1a6.88 6.88 0 0 0 0 1.46 5.17 5.17 0 0 1-.59-.23 16.11 16.11 0 0 1 .1-1.82.59.59 0 0 1 .75-.59 15.59 15.59 0 0 0 3.46.48z"/><path class="cls-1" d="M70.71 52.64a.26.26 0 0 0 .33.26 70.21 70.21 0 0 1-4.9 7 .38.38 0 0 1-.59-.07c-1.33-2.65-1.56-5.49-2.46-8.29-.23-.69-2.87 1.52-3.23 1.72a11.47 11.47 0 0 1-2.38 1.18c-.33.13-.57-.43-.23-.59 0 .15.26.18.26 0v-.13A50 50 0 0 0 63 50.21a.4.4 0 0 1 .57.23c.48 1.49.77 3 1.13 4.51.3 1.26 1 4.69 2.59 2.23 1.4-2.18 2.56-4.54 4.63-6.1a.61.61 0 0 0 0 .18c-.13.18-.26.34-.41.52s-.41.43-.62.64a.23.23 0 0 0-.07.18s-.14.02-.11.04z"/><path class="cls-1" d="M71.81 51.28v.11c-.15.13-.25.26-.38.39.12-.16.25-.32.38-.5z"/><path class="cls-1" d="M71.47 52.21c-.15.23-.3.46-.43.69a.26.26 0 0 1-.33-.26c.23-.28.46-.57.69-.82s.23-.26.38-.39a5.67 5.67 0 0 0-.2.67v.1a.1.1 0 0 1-.11.01z"/><path d="M69.48 15.78a19.31 19.31 0 0 1 3.87.13 11.87 11.87 0 0 1-8 2.33 5.35 5.35 0 0 1 4.13-2.46z" fill="#edc851"/><path class="cls-1" d="M71.47 52.21a.1.1 0 0 0 .06 0c-.06.16-.08.33-.13.49a1.1 1.1 0 0 1-.28.2.1.1 0 0 1-.08 0c.13-.23.28-.46.43-.69zM70.78 52.44c.21-.21.41-.44.62-.64-.23.25-.46.54-.69.82a.23.23 0 0 1 .07-.18zM70.22 134.28l-.8-.15a.68.68 0 0 1 .8.15z"/><path class="cls-2" d="M69.17 134.8c.59 1.46 1.84 2.46 2.64 3.76a15.59 15.59 0 0 1-3.46-.48.59.59 0 0 0-.75.59 16.11 16.11 0 0 0-.1 1.82 7.16 7.16 0 0 1-3-2.59c0-.13 0-.26.08-.39 0-.38-.46-.64-.67-.28a.35.35 0 0 1 0 .08.41.41 0 0 0-.36.52.31.31 0 0 0 0 .1 8.57 8.57 0 0 0-.74 3.51c-2.08-2.49-2.74-5.84-2.85-9 0-.43-.71-.56-.77-.1-5.36 2.07-13.23 3.94-15.56-3.18-2.15-6.64 2.67-15.13 5-21.82.11.8.26 1.65.41 2.46a35.82 35.82 0 0 0 12.28 20.56 18.59 18.59 0 0 0 8.2 3.72.49.49 0 0 0-.35.72z"/><path class="cls-1" d="M68.81 138.67a.4.4 0 0 1 0 .18s-.07 0-.13-.06a.74.74 0 0 1 .13-.12zM68.78 141.28c.11.41-.28.92-.74.75a7.47 7.47 0 0 1-3.84-2.62 6 6 0 0 1 .12-.74 6.89 6.89 0 0 0 3.23 2.53 3.26 3.26 0 0 0 0 .41l.29-.28c.1 0 .2.08.3.1s0-.2-.07-.33l.25-.25a1.2 1.2 0 0 1-.28-.13 6.88 6.88 0 0 1 0-1.46 3.41 3.41 0 0 0 .59.15 5.89 5.89 0 0 0 .15 1.87z"/><path class="cls-1" d="M68.78 138.85a3.64 3.64 0 0 1 0 .56 3.41 3.41 0 0 1-.59-.15v-.11c0-.03 0 0 0 0l.46-.34c.06.04.08.04.13.04zM68.63 138.79l-.46.34a4 4 0 0 0 0-.46 2.64 2.64 0 0 0 .46.12zM68.37 140.85l-.25.25a1.63 1.63 0 0 1 0-.38 1.2 1.2 0 0 0 .25.13zM68.12 141.1c0 .13 0 .23.07.33s-.2-.07-.3-.1c.11-.08.11-.15.23-.23zM68.14 139.15v.11h-.1s.08-.08.1-.11z"/><path class="cls-1" d="M68.12 141.1c-.08.08-.16.15-.23.23l-.34-.13v-.71a5.17 5.17 0 0 0 .59.23 1.63 1.63 0 0 0-.02.38z"/><path class="cls-1" d="M67.55 141.2l.34.13-.29.28a3.26 3.26 0 0 1-.05-.41zM67.5 140.49v.71a6.89 6.89 0 0 1-3.23-2.53 5.71 5.71 0 0 0 .13-.74 7.16 7.16 0 0 0 3.1 2.56zM64.84 18.19h.46c-.08.13-.16.26-.23.39l-.41-.08a1.35 1.35 0 0 1 .18-.31z"/><path class="cls-1" d="M64.66 18.55l.41.08a3.16 3.16 0 0 0-.21.33 2.93 2.93 0 0 1-.41-.07.36.36 0 0 1-.23-.18c0-.18.13-.33.18-.49a.86.86 0 0 1 .23 0h.18a1.35 1.35 0 0 0-.15.33z"/><path class="cls-1" d="M64.86 19v.05a.35.35 0 0 1-.64-.28.36.36 0 0 0 .23.18 2.93 2.93 0 0 0 .41.05zM64.17 137.46a.27.27 0 0 0-.33-.15.35.35 0 0 0 0-.08c.21-.36.72-.1.67.28 0 .13 0 .26-.08.39l-.23-.39a.05.05 0 0 0-.03-.05z"/><path class="cls-1" d="M64.45 137.9a5.71 5.71 0 0 1-.13.74A3.63 3.63 0 0 1 64 138c.05-.18.13-.36.18-.54zM64.4 18.19c-.05.16-.13.31-.18.49a.41.41 0 0 1 .18-.49z"/><path class="cls-1" d="M64.32 138.64a6 6 0 0 0-.12.74 2.84 2.84 0 0 1-.44-.74A6.55 6.55 0 0 1 64 138a3.63 3.63 0 0 0 .32.64z"/><path class="cls-1" d="M64 138a6.55 6.55 0 0 0-.2.67 3.42 3.42 0 0 1-.26-.72 3.59 3.59 0 0 1 .31-.62.27.27 0 0 1 .33.15c-.09.16-.18.34-.18.52zM63.76 138.67a2.84 2.84 0 0 0 .44.74 32.83 32.83 0 0 0-.49 3.28.47.47 0 0 1-.8.33 12 12 0 0 1-3.91-9.71 3.82 3.82 0 0 0 .36-.21.15.15 0 0 0 .1-.12 12.48 12.48 0 0 0 3.23 9.2 2.74 2.74 0 0 0 0 .51l.36-.15a.44.44 0 0 0 .13.15v-.2c.1-.06.23-.08.33-.13a2.42 2.42 0 0 1-.31-.33 14.48 14.48 0 0 1 .56-3.36z"/><path class="cls-1" d="M63.5 138a3.42 3.42 0 0 0 .26.72 14.48 14.48 0 0 0-.49 3.36 2.71 2.71 0 0 1-.51-.57 8.57 8.57 0 0 1 .74-3.51zM63.81 137.33a3.59 3.59 0 0 0-.31.62.31.31 0 0 1 0-.1.41.41 0 0 1 .31-.52z"/><path class="cls-1" d="M63.27 142a2.42 2.42 0 0 0 .31.33c-.1 0-.23.07-.33.13a3.46 3.46 0 0 1 .02-.46z"/><path class="cls-1" d="M62.76 141.46a2.71 2.71 0 0 0 .51.57 3.46 3.46 0 0 0 0 .46.5.5 0 0 0-.13 0 1.94 1.94 0 0 1-.39-.36 5.78 5.78 0 0 1 .01-.67z"/><path class="cls-1" d="M63.25 142.49v.2a.44.44 0 0 1-.13-.15.5.5 0 0 1 .13-.05zM63.12 142.54l-.36.15a2.74 2.74 0 0 1 0-.51 1.94 1.94 0 0 0 .36.36z"/><path class="cls-1" d="M59.53 132.54a.32.32 0 0 0-.39-.15c.06-.46.77-.33.77.1.11 3.16.77 6.51 2.85 9a5.78 5.78 0 0 0 0 .72A12.48 12.48 0 0 1 59.5 133a.38.38 0 0 0 .03-.46zM61 16.76a3.76 3.76 0 0 0 .28-.36.35.35 0 0 1 .31.49.4.4 0 0 0-.15.18.29.29 0 0 1-.16 0 4.18 4.18 0 0 0-.61.05zM61.48 17.09a.4.4 0 0 1 .15-.18.33.33 0 0 1-.15.18zM61.32 17.12a.29.29 0 0 0 .16 0 29.71 29.71 0 0 0-1.95 2.49.37.37 0 0 0-.41-.08c.46-.74 1-1.51 1.59-2.33a4.18 4.18 0 0 1 .61-.08z"/><path class="cls-1" d="M39 20.06c0 .08 0 .26.2.54l.85.08s.08.05.1.08c.41.2.82.41 1.21.64 1.2.53 2.43 1.05 3.66 1.56a.34.34 0 0 1 .21.31 2.88 2.88 0 0 0-.31.13 1 1 0 0 1-.23.07c-2.72-.38-4.95-1.87-7.41-3.07-.43-.23-.23-1 .26-.95 4.69.36 9.46 1.1 14-.59 3.23-1.21 6.23-2.57 9.74-2.46a3.76 3.76 0 0 1-.28.36c-4.13-.18-7.92 2.51-12.18 3.38a35.55 35.55 0 0 1-9.66-.08c-.11-.06-.16-.06-.16 0z"/><path class="cls-1" d="M48.84 20.14c4.26-.87 8-3.56 12.18-3.38l-.31.41c-4.71.41-8.71 3.38-13.46 3.69a55.76 55.76 0 0 1-7.2-.18 5.15 5.15 0 0 0-.87-.62 35.55 35.55 0 0 0 9.66.08zM59.73 20c-.07.08-.15.16-.2.23-.21.26-.51.11-.64-.13l.36-.12c.1-.16.2-.29.28-.41a.47.47 0 0 1 .2.43z"/><path class="cls-1" d="M59.53 20.24c0-.07.13-.15.2-.23a.44.44 0 0 1-.36.46c-3.28 1.11-6.68 1.39-10 2.41-2.66.85-5.07 2.23-7.74 3.05a25.48 25.48 0 0 1-6.56 1.26c-1.41 0-7.23-1-4 1.31s7 5.17 11.36 3a24.72 24.72 0 0 1 5-2.23 16.49 16.49 0 0 1 9.8.82 1.75 1.75 0 0 0-.13.28c-6.36-1.54-8.05-1.74-14.38 1.59-4.1 1.84-3.23 2.2-7.36.07a56.1 56.1 0 0 1-7.56-5.43c7 .21 10.69.46 17.33-2.74 4.64-2.36 9.1-2.11 13.69-3.75.18.24.5.39.71.13z"/><path class="cls-2" d="M60.71 17.17c-.59.82-1.13 1.59-1.59 2.33-4.64 1.46-9.38 1.87-13.86 3.77A.34.34 0 0 0 45 23c-1.23-.51-2.46-1-3.66-1.56-.39-.23-.8-.44-1.21-.64 0 0-.08-.05-.1-.08a55.76 55.76 0 0 0 7.2.18c4.77-.35 8.77-3.32 13.48-3.73z"/><path class="cls-1" d="M59.53 132.54a.38.38 0 0 1 0 .44 2 2 0 0 1 0-.44zM59.53 19.58c-.08.12-.18.25-.28.41l-.36.12a.33.33 0 0 1 0-.33c.06-.1.13-.18.18-.28a.37.37 0 0 1 .46.08zM59.09 132.82a3.15 3.15 0 0 1 0-.43.32.32 0 0 1 .39.15 2 2 0 0 0 0 .44.15.15 0 0 1-.1.12 3.82 3.82 0 0 1-.36.21 4.28 4.28 0 0 1 .07-.49z"/><path class="cls-1" d="M59.14 132.39a3.15 3.15 0 0 0 0 .43c-8 4.21-17.32 2.87-16.48-7.53.54-6.77 3.82-12.77 5.77-19.13a10.51 10.51 0 0 0 .15 1.21c-2.3 6.69-7.12 15.18-5 21.82 2.33 7.12 10.2 5.25 15.56 3.18z"/><path class="cls-1" d="M59.09 132.82a4.28 4.28 0 0 0-.05.49c-4.33 2.49-12 4.36-15.35-.62-3.23-4.74-2-10.87.13-16.68a.31.31 0 0 0 .07-.21c1.41-3.92 3.23-7.66 4.31-10.74a.31.31 0 0 1 0-.1c0 .41.08.79.13 1.2-2 6.36-5.23 12.36-5.77 19.13-.79 10.4 8.51 11.71 16.53 7.53zM59.09 19.5c-.05.1-.12.18-.18.28a.33.33 0 0 0 0 .33c-4.59 1.64-9 1.39-13.69 3.75-6.64 3.2-10.3 2.95-17.33 2.74a56.1 56.1 0 0 0 7.54 5.4c4.13 2.13 3.26 1.77 7.36-.07 6.33-3.33 8-3.13 14.38-1.59l-.15.31c-3-.46-6.23-1.39-9.18-.34s-5.56 2.95-8.56 3.69c-3.54.9-9.36-5-11.79-7a.55.55 0 0 1 .38-.94c6.1.18 11.2-.18 16.82-2.57a.79.79 0 0 0 .25.05.24.24 0 0 0 .29-.25c4.48-1.92 9.22-2.29 13.86-3.79zM57.89 30.52v-.25c0-.07.23.07.34.12s.2.47-.08.44h-.31c-.11 0 .05-.2.05-.31z"/><path class="cls-1" d="M57.35 30.06a.31.31 0 0 1 .56.21 5.66 5.66 0 0 0-.56-.21zM57.53 30.45l-.36-.08a1.75 1.75 0 0 1 .13-.28 5.66 5.66 0 0 1 .56.21v.25z"/><path class="cls-1" d="M57.89 30.52v.28a2.68 2.68 0 0 0-.43-.05 1.76 1.76 0 0 0 .1-.3z"/><path class="cls-1" d="M57.43 30.75a2.68 2.68 0 0 1 .43.05 12.4 12.4 0 0 1-6 8.64 2.87 2.87 0 0 0-.64-.08c3.08-1.64 5.31-5.51 6.21-8.61zM56.79 43.7a.31.31 0 0 0-.47.33l-.23.15a.27.27 0 0 0-.25.18v.1a4.87 4.87 0 0 1 0 .54c-.39.28-.75.51-1.13.77-.95.64-2 1.61-3.1 1.79a.35.35 0 0 1-.39-.51 3.65 3.65 0 0 1 .41-.56 1.3 1.3 0 0 1 .21-.18 11 11 0 0 1 1.87-1.23 36.23 36.23 0 0 1 3.41-2c.38-.21.82.3.46.61a3.41 3.41 0 0 1-.59.49 1.37 1.37 0 0 0 0-.28.25.25 0 0 0-.2-.2z"/><path class="cls-1" d="M56.94 44.18a36 36 0 0 1 .62 9.49.31.31 0 0 0-.13 0 46.85 46.85 0 0 0-.75-9.39 1.35 1.35 0 0 0 .26-.1zM57.43 53.75a.31.31 0 0 1 .13 0v.1c0 .18-.26.15-.26 0a.69.69 0 0 1 .13-.1zM57.53 30.45a1.76 1.76 0 0 1-.1.3l-.43-.07.15-.31z"/><path class="cls-1" d="M57.43 53.75a.69.69 0 0 0-.13 0 70.87 70.87 0 0 0-.87-9.21.68.68 0 0 0 .25-.21 46.85 46.85 0 0 1 .75 9.42zM57 30.68l.41.07c-.9 3.1-3.13 7-6.23 8.61h-.62l.05-.05c3.31-2.2 4.79-5.25 6.39-8.63z"/><path class="cls-1" d="M56.68 44.36a.68.68 0 0 1-.25.21v-.08-.05c0-.05 0-.28-.08-.41a4.48 4.48 0 0 0 .47-.33.25.25 0 0 1 .1.18 1.37 1.37 0 0 1 0 .28 1.35 1.35 0 0 1-.24.2zM56.79 43.7a4.48 4.48 0 0 1-.47.33.31.31 0 0 1 .47-.33zM56.53 47a.48.48 0 0 1 0 .49 1.34 1.34 0 0 0 0-.49zM56.53 47.57A110.67 110.67 0 0 1 54.38 71c-1.38 7.43-3.69 15-4.54 22.53a.55.55 0 0 0-.23-.31l-.39-.22c.75-5.15 2-10.23 3.13-15.38a.64.64 0 0 0 .31-.92s0-.08-.08-.11c.08-.33.13-.69.21-1 1.82-9 3.36-18.33 3.38-27.61l.31-.33s.03-.06.05-.08z"/><path class="cls-1" d="M56.53 47.52h-.05l-.31.33v-1.18a.54.54 0 0 1 .38.23 1.34 1.34 0 0 1-.02.62z"/><path class="cls-1" d="M56.43 44.59c0 .8.1 1.62.1 2.41a.54.54 0 0 0-.38-.23 18.42 18.42 0 0 0 0-2c.1-.08.2-.13.31-.23z"/><path class="cls-1" d="M56.12 44.8a3.14 3.14 0 0 1-.33.23 4.87 4.87 0 0 0 0-.54v-.1l.25-.18a.3.3 0 0 1 .31.26v.13c-.03.07-.13.12-.23.2z"/><path class="cls-1" d="M56.32 44c0 .13.06.28.08.41a.3.3 0 0 0-.31-.26zM55.74 47.59v-.66l.12-.08a.75.75 0 0 1 .29-.08v1.18c-.15.18-.31.34-.46.49v-.82zM55.71 48.44c.15-.15.31-.31.46-.49 0 9.28-1.56 18.56-3.38 27.61-.08.33-.13.69-.21 1a4.35 4.35 0 0 0-.61-.71c1.13-5.39 2.07-10.8 2.77-16.23a1.6 1.6 0 0 1 0-.21v-.1c.48-3.62.82-7.23.97-10.87z"/><path class="cls-1" d="M56.12 44.8a18.42 18.42 0 0 1 0 2 .75.75 0 0 0-.29.08l-.12.08v-1.9a3.14 3.14 0 0 0 .41-.26zM56.09 44.18l-.25.18a.27.27 0 0 1 .25-.18zM51.22 39.72a5.65 5.65 0 0 0 .62-.28c.56.08 1.15.23 1.74.36a11.09 11.09 0 0 1 2.41.62.13.13 0 0 1 0 .25 8.29 8.29 0 0 1-5.18-.79.27.27 0 0 0 .15 0c.04-.08.16-.11.26-.16zM55.92 40.72c.07 0 .15.11.1.18a11.86 11.86 0 0 1-2.1 2.9c-.72.85-1.41 1.72-2.13 2.54a1.3 1.3 0 0 0-.21.18c-.13 0-.28-.13-.2-.26.69-1 1.41-1.92 2.15-2.87a14 14 0 0 1 2.33-2.64.09.09 0 0 1 .06-.03z"/><path class="cls-1" d="M55.74 46.93v.66c-.88.69-1.82 1.54-2.8 2.43a10.14 10.14 0 0 0-1.23-.02 25.58 25.58 0 0 1 4.03-3.07z"/><path class="cls-1" d="M55.74 47.62v.82c-2.82 3-5.77 5.77-8.1 9.23a1 1 0 0 1-1.72-.31 4.52 4.52 0 0 0 1.34-.18.32.32 0 0 0 .12-.54s-.05-.08-.1-.1a39.44 39.44 0 0 1 4.26-5.08 6.33 6.33 0 0 0 1.95-.8.3.3 0 0 0-.15-.56 1.71 1.71 0 0 0-.39 0c.97-.94 1.91-1.79 2.79-2.48z"/><path class="cls-2" d="M55.71 48.44a110.3 110.3 0 0 1-1 10.87.18.18 0 0 0-.25-.16c-1.41.54-2.08 1.41-3.36 2.26a8.36 8.36 0 0 1-5.1 1.05c-3.2-.2-6.18-1.69-9.36-2a.47.47 0 0 0-.36.79 28.22 28.22 0 0 1-2.15 2c-.07-.64-.15-1.31-.18-2a.42.42 0 0 0-.72-.31c-1.17 1.18-2.15 2.52-3.28 3.72a22.1 22.1 0 0 1 1.13-5.2.38.38 0 0 0-.15-.36 31.33 31.33 0 0 0-4.26-2.23 28.74 28.74 0 0 1-4.71-3.52c.48-1 .89-2.1 1.33-3.17a19.6 19.6 0 0 1 4.43-6.52c.47-.48-.12-1.1-.66-.87-3.87 1.67-5.05 6.64-6.59 10.36-1.23-3-.9-6.82-.18-9.82a10.09 10.09 0 0 1 2.36-4.66c1.61-1.64 3.48-.41 5 .64v.05l.07.18c2.08 3.13 4.49.77 7.34 1.18 2.69.41 1.71 6.82 1.46 8.51-.21 1.31-1.08 3.13-1.23 4.61s-.05 0-.08 0c-.49.33-.9.77-1.39 1.07a38.85 38.85 0 0 1-3.45-10.2.31.31 0 0 0-.59 0 17 17 0 0 0 3 11.64.83.83 0 0 0 .9.36 2.68 2.68 0 0 0 1.69-1.51.29.29 0 0 0 .36.12A2.25 2.25 0 0 0 37 54.08a18.28 18.28 0 0 0 4.48 2.08 18 18 0 0 0 4.41 1.2 1 1 0 0 0 1.72.31c2.33-3.46 5.28-6.23 8.1-9.23z"/><path class="cls-1" d="M54.76 59.31v.1a1.6 1.6 0 0 0 0 .21 1.67 1.67 0 0 0 0-.31z"/><path class="cls-1" d="M37.13 61c.12-.23-.21-.51-.39-.3a3.94 3.94 0 0 1-.49.51.47.47 0 0 1 .36-.79c3.18.33 6.16 1.82 9.36 2a8.36 8.36 0 0 0 5.18-1.05c1.28-.85 2-1.72 3.36-2.26a.18.18 0 0 1 .25.16 1.67 1.67 0 0 1 0 .31c-.82 2.74-4.39 4.44-7.1 4.44a28.7 28.7 0 0 1-10.82-2.57 1.93 1.93 0 0 0 .29-.45zM52.38 50.59c.2-.18.38-.36.56-.54a1.71 1.71 0 0 1 .39 0 .3.3 0 0 1 .15.56 6.33 6.33 0 0 1-1.95.8z"/><path class="cls-1" d="M52.94 50.05c-.18.18-.36.36-.56.54a9.47 9.47 0 0 1-1.49.18c.26-.28.54-.54.82-.79a10.14 10.14 0 0 1 1.23.07zM52.66 76.69a.64.64 0 0 1-.31.92c.08-.33.16-.69.23-1 .03 0 .05.05.08.08z"/><path class="cls-3" d="M47.64 64.08c2.71 0 6.28-1.7 7.1-4.44C54 65.07 53.1 70.48 52 75.87c-2.44-2.18-6.59-.49-8.77 2.2-2-5-3.89-10.69-7-15.1a.25.25 0 0 0-.36 0v-.08a7.5 7.5 0 0 0 1-1.33 28.7 28.7 0 0 0 10.77 2.52z"/><path class="cls-1" d="M51.79 76.74c.05-.31.13-.59.18-.87a4.35 4.35 0 0 1 .61.71c-.07.34-.15.7-.23 1a.55.55 0 0 1-.59 0l-.15-.07c.08-.28.13-.51.18-.77zM52.38 50.59l-.85.85a6.47 6.47 0 0 1-1.46.16 8.44 8.44 0 0 1 .84-.85 9.47 9.47 0 0 0 1.47-.16z"/><path class="cls-1" d="M51.76 77.58a.55.55 0 0 0 .59 0C51.25 82.76 50 87.84 49.22 93a3.78 3.78 0 0 0-.56-.34c.54-4.17 1.44-8.38 2.41-12.66l.54-2.48zM52 75.87c0 .28-.13.56-.18.87-3-2.82-7.85.43-9 4.18-.24-.29-.47-.57-.72-.85a6.07 6.07 0 0 1 1-1.69c.1.1.33 0 .25-.18a.69.69 0 0 0 0-.13c2.03-2.69 6.18-4.38 8.65-2.2z"/><path class="cls-1" d="M51.79 76.74c0 .23-.1.49-.18.74-2-1.18-3.79-1.38-5.67.26a7.33 7.33 0 0 0-2 2.38 8.83 8.83 0 0 0-.54 1.57 7.71 7.71 0 0 0-.66-.77c1.2-3.75 6-7 9.05-4.18zM51.71 50c-.28.25-.56.51-.82.79-4.54.23-9.23-2.05-12.61-4.48V46a29.09 29.09 0 0 0 7.23 3.44 25 25 0 0 0 6.2.56zM51.2 39.36a2.87 2.87 0 0 1 .64.08 5.65 5.65 0 0 1-.62.28c-.23-.07-.48-.12-.71-.18a.29.29 0 0 1 .07-.2c.21 0 .42 0 .62.02z"/><path class="cls-1" d="M51.22 39.72c-.1.05-.23.08-.33.13a.27.27 0 0 1-.15 0 .51.51 0 0 1-.16-.11.39.39 0 0 1-.07-.23c.23.09.49.14.71.21zM38.28 46.29c3.38 2.43 8.07 4.71 12.61 4.48a8.44 8.44 0 0 0-.84.85c-4.08.11-8.82-2.64-11.77-5a.89.89 0 0 0 0-.33zM50.05 51.62a6.47 6.47 0 0 0 1.46-.16 39.44 39.44 0 0 0-4.26 5.08 2.58 2.58 0 0 0-.74-.56A33.86 33.86 0 0 1 50 51.64z"/><path class="cls-1" d="M50.51 39.34h.07a.29.29 0 0 0-.07.2.39.39 0 0 0 .07.23.48.48 0 0 1-.18-.07.2.2 0 0 1 .11-.36z"/><path class="cls-2" d="M38.25 46.59c3 2.41 7.69 5.16 11.77 5A33.86 33.86 0 0 0 46.51 56a14.65 14.65 0 0 0-3.87-1.18c-1.77-.49-3.51-1.18-5.31-1.65.26-.94.36-2 .49-2.71a23.88 23.88 0 0 0 .43-3.87z"/><path class="cls-1" d="M49.84 93.53a.59.59 0 0 1-.08.59c.03-.21.05-.41.08-.59z"/><path class="cls-1" d="M49.15 93.66c0-.23.05-.47.07-.67l.39.23a.55.55 0 0 1 .23.31c0 .18-.05.38-.08.59a.51.51 0 0 1-.61.2h-.08c.03-.23.05-.43.08-.66z"/><path class="cls-1" d="M49.22 93c0 .2 0 .44-.07.67l-.59-.26a6.42 6.42 0 0 1 .1-.75 3.78 3.78 0 0 1 .56.34zM48.89 104.76a.46.46 0 0 1 .28.58l-.15.52a.22.22 0 0 1 0-.13c-.08-.33-.1-.64-.13-.97z"/><path class="cls-1" d="M48.56 93.4l.59.26c0 .23 0 .43-.08.64l-.59-.18c.03-.23.05-.49.08-.72zM48.48 94.12l.59.18a45.09 45.09 0 0 0-.18 10.46.46.46 0 0 0-.64.2 54.44 54.44 0 0 1 .23-10.84z"/><path class="cls-1" d="M48.38 106.16c-.05-.41-.1-.79-.13-1.2a.46.46 0 0 1 .64-.2c0 .33 0 .64.1 1a.22.22 0 0 0 0 .13c-.13.48-.31 1-.49 1.51a10.51 10.51 0 0 1-.12-1.24zM30 90.91a4.39 4.39 0 0 1 .82-.07 35.57 35.57 0 0 0 2.74 2.59c.39.35-.1.89-.54.69-.28-.13-.53-.29-.76-.41a.36.36 0 0 0-.16-.59c-.28 0-.54-.07-.82-.07A13.77 13.77 0 0 1 29 90.78c-.26-.33-.23-1 .28-1.07a30.74 30.74 0 0 1 9.94.41c3 .54 6.62 1 9.41 2.53a6.42 6.42 0 0 0-.1.75c-4.44-2-13.43-3.77-18.35-3.18a4 4 0 0 0-.29-.31 1.26 1.26 0 0 1-.1.36 1.88 1.88 0 0 0-.33 0l.23.31c0 .1 0 .21-.08.31a1.09 1.09 0 0 1 .39.02z"/><path class="cls-1" d="M48.56 93.4c0 .23-.05.49-.08.72-5.77-1.72-11.61-3.85-17.71-3.28a4.18 4.18 0 0 1-.56-.62c4.92-.59 13.91 1.23 18.35 3.18z"/><path class="cls-2" d="M48.25 105a.31.31 0 0 0 0 .1c-1.08 3.08-2.9 6.82-4.31 10.74a.44.44 0 0 0-.12-.28c-5.36-5.49-12.46-13.89-21-12.82-5.1.62-8.38 4.62-9.92 9.21a21.1 21.1 0 0 0 5.53 21.45c-1.1-.46-2.15-1-3.23-1.59v-.23a.2.2 0 1 0-.39 0v.23a.44.44 0 0 0-.1.69 18.78 18.78 0 0 0 0 3c0 1.87-3.59-2.31-3.87-2.77-1.44-2.54-1.46-5.69-1.46-8.51 0-5.2 1.84-10.1 2.69-15.15a.48.48 0 0 0-.15-.46c.15-.1.33-.2.48-.31a.35.35 0 0 0-.28-.64 11 11 0 0 0-3.89 1.87c5-8.79 13.81-14 23.91-15.74a.17.17 0 0 0 .16-.07c.23.12.48.28.76.41.44.2.93-.34.54-.69a35.57 35.57 0 0 1-2.74-2.59c6.1-.57 11.94 1.56 17.71 3.28a54.44 54.44 0 0 0-.32 10.87z"/><path class="cls-1" d="M47.05 56.85a1.49 1.49 0 0 1 .2-.31l.1.1a.32.32 0 0 1-.12.54 4.52 4.52 0 0 1-1.34.18.79.79 0 0 1 .13-.64l.08-.13z"/><path class="cls-1" d="M47.25 56.54a1.49 1.49 0 0 0-.2.31l-.95-.26.41-.61a2.58 2.58 0 0 1 .74.56z"/><path class="cls-1" d="M46.51 56l-.41.61a45.78 45.78 0 0 1-8.92-3l.15-.47c1.8.47 3.54 1.16 5.31 1.65A14.65 14.65 0 0 1 46.51 56z"/><path class="cls-1" d="M46.1 56.59l-.08.13a.79.79 0 0 0-.13.64 18 18 0 0 1-4.41-1.2A18.28 18.28 0 0 1 37 54.08a2.32 2.32 0 0 0 .18-.46 45.78 45.78 0 0 0 8.92 2.97zM44.92 23.4a2.88 2.88 0 0 1 .31-.13.24.24 0 0 1-.29.25.79.79 0 0 1-.25-.05 1 1 0 0 0 .23-.07zM20.36 134.16a17 17 0 0 1-1.92-.75h-.08a21.1 21.1 0 0 1-5.53-21.45c1.54-4.59 4.82-8.59 9.92-9.21 8.56-1.07 15.66 7.33 21 12.82a.44.44 0 0 1 .12.28c0 .08 0 .13-.07.21a.42.42 0 0 1-.62.07C38 111.91 30.51 102.58 23 104.34a11.58 11.58 0 0 0-8.89 10.1c-1.41 9.82 3.94 21.18 14.76 22a.36.36 0 1 1 0 .72 15.41 15.41 0 0 1-5-.62 4 4 0 0 0 1.1-.12h.05a.22.22 0 0 0 0-.33c-1.08-1.08-2.85-1.29-4.26-1.75-.1 0-.23-.07-.33-.1s-.07-.06-.07-.08z"/><path class="cls-1" d="M43.82 116c0-.08 0-.13.07-.21a.31.31 0 0 1-.07.21zM43.35 81.94l.08-.25.13.15a.2.2 0 0 1-.21.31.07.07 0 0 1-.07 0 1.13 1.13 0 0 1 .07-.21z"/><path class="cls-1" d="M43.43 81.69l-.08.25a7.29 7.29 0 0 1-.74-.49 2.28 2.28 0 0 1 .16-.53 7.71 7.71 0 0 1 .66.77z"/><path class="cls-1" d="M43.35 81.94a1.13 1.13 0 0 0-.07.18 2.86 2.86 0 0 1-.75-.28c0-.13.06-.26.08-.39a7.29 7.29 0 0 0 .74.49z"/><path class="cls-1" d="M42.53 81.84a2.86 2.86 0 0 0 .75.28 3.66 3.66 0 0 1-.21.51.67.67 0 0 1-1.23-.18 2.92 2.92 0 0 1-.05-1 6.14 6.14 0 0 0 .74.39zM43.25 78.2c.08.15-.15.28-.25.18s0-.08.1-.13.08-.1.1-.15a.69.69 0 0 1 .05.1z"/><path class="cls-1" d="M43.1 78.22c-.05 0-.1.08-.1.13-3.36-4.33-5-10.25-7.21-15.2a.23.23 0 0 1 0-.26.25.25 0 0 1 .36 0c3.13 4.41 5 10.13 7 15.1.03.13-.03.18-.05.23zM42.77 80.92a2.28 2.28 0 0 0-.16.53c-.25-.17-.51-.38-.77-.56a4.94 4.94 0 0 1 .21-.82c.25.28.48.56.72.85z"/><path class="cls-1" d="M42.61 81.45c0 .13 0 .26-.08.39a6.14 6.14 0 0 1-.74-.41 2 2 0 0 1 .05-.54c.26.18.52.39.77.56z"/><path class="cls-3" d="M43 78.38a6.07 6.07 0 0 0-1 1.69c-2.31-2.49-5.54-5-8.72-3.33-2.87 1.56-6 5-6.28 8.48a9.79 9.79 0 0 0-14-3.61C10 83.4 5.8 88.68 5.37 93c-1.72-5.46.41-11.79 1.79-17.1a58.42 58.42 0 0 1 8.77-19.1.44.44 0 0 0 .07-.24 25.47 25.47 0 0 0 3.29-2.66 8.37 8.37 0 0 0 .61 1.15.69.69 0 0 0 1.18 0c.13-.25.26-.51.41-.77a12.18 12.18 0 0 0 1.33 1.47c-.82 7.84.18 16.76 3.62 23.88a.3.3 0 0 0 .56-.23 93.41 93.41 0 0 1-3.82-23.35 19.48 19.48 0 0 0 4.46 3c1.64.85 2.77.26 1.92 2.39A8.36 8.36 0 0 0 29 66c.08.46.64.48.92.25a19.43 19.43 0 0 0 3.36-3.82c.08.52.15 1.06.21 1.57 0 .25.33.54.56.33a14.23 14.23 0 0 0 1.77-1.49v.08a.23.23 0 0 0 0 .26C38 68.13 39.64 74.05 43 78.38z"/><path class="cls-1" d="M41.84 80.89a2 2 0 0 0-.05.54C39.48 79.94 37.05 77 34.61 78c-3.51 1.46-5.45 5-6.43 8.48-.15.52-1 .59-1.1 0a.12.12 0 0 0 .05 0 .27.27 0 0 0 .41-.33c-.15-.33-.33-.64-.49-1 .23-3.51 3.41-6.92 6.28-8.48 3.18-1.72 6.41.84 8.72 3.33a4.94 4.94 0 0 0-.21.89zM40.05 20.68l-.85-.08c-.18-.28-.25-.46-.2-.54h.18a5.15 5.15 0 0 1 .87.62zM39.18 20.06H39s.05-.06.18 0zM37.84 42.16a15.82 15.82 0 0 1 .44 3.84c-.23-.12-.44-.25-.67-.38a12 12 0 0 0-.05-1.39c-1.23-8.43-5.92-1.07-9-4.64a.39.39 0 0 0 .1-.53c-.08-.13-.18-.23-.26-.34a.71.71 0 0 1 .31.16c2.75 2.71 7.78-2.18 9.13 3.28z"/><path class="cls-1" d="M38.28 46v.31a5.86 5.86 0 0 1-.69-.51v-.18c.25.08.46.21.69.38z"/><path class="cls-1" d="M38.28 46.26a.89.89 0 0 1 0 .28c-.23-.18-.46-.39-.66-.56v-.26a5.86 5.86 0 0 0 .66.54zM38.25 46.57a23.88 23.88 0 0 1-.43 3.85c-.13.72-.23 1.77-.49 2.71-.28-.1-.56-.15-.84-.23a30.64 30.64 0 0 0 1.1-6.9c.2.18.41.39.66.57z"/><path class="cls-1" d="M36.31 53.54a6.92 6.92 0 0 0 .69.54 2.25 2.25 0 0 1-1.23 1.25.29.29 0 0 1-.36-.12 3.26 3.26 0 0 0 .23-1.08.28.28 0 0 0-.33-.28c.15-1.48 1-3.3 1.23-4.61.25-1.69 1.23-8.1-1.46-8.51-2.85-.41-5.26 1.95-7.34-1.18l-.07-.18c.13.08.23.18.36.26a.38.38 0 0 0 .46-.06c3.13 3.57 7.82-3.79 9.05 4.64a12 12 0 0 1 .05 1.39.17.17 0 0 0-.18.28c.05 0 .13.1.18.16a30.64 30.64 0 0 1-1.1 6.91h-.13a.28.28 0 0 0-.26.46c.08 0 .13.13.21.15z"/><path class="cls-1" d="M37.59 45.75V46c-.05-.06-.13-.11-.18-.16a.17.17 0 0 1 .18-.28zM37.33 53.15l-.15.47-.77-.39c0-.11.05-.18.08-.29.28.06.56.11.84.21z"/><path class="cls-1" d="M36.41 53.23l.77.39a2.32 2.32 0 0 1-.18.46 6.92 6.92 0 0 1-.69-.54c.02-.1.07-.21.1-.31zM36.87 61a2.15 2.15 0 0 1-.28.44.63.63 0 0 1-.23-.08.21.21 0 0 1-.11-.1 3.94 3.94 0 0 0 .49-.51c.18-.21.51.07.39.3a1 1 0 0 0-.26-.05z"/><path class="cls-1" d="M37.13 61a1.93 1.93 0 0 1-.31.49l-.23-.07a2.15 2.15 0 0 0 .28-.44 1 1 0 0 1 .26.02zM36.59 61.44l.23.07a7.5 7.5 0 0 1-1 1.33A14.23 14.23 0 0 1 34 64.33c-.23.21-.54-.08-.56-.33-.06-.51-.13-1-.21-1.57a3 3 0 0 0 .33-.51c0 .54.16 1.13.21 1.59l-.23.23a.91.91 0 0 1 .25.11.27.27 0 0 1 0 .15l.1-.1a2.31 2.31 0 0 1 .28.1v-.33a18.85 18.85 0 0 0 2.42-2.23z"/><path class="cls-1" d="M36.59 61.41a18.85 18.85 0 0 1-2.41 2.23c0-.16 0-.31-.08-.47a28.22 28.22 0 0 0 2.15-2 .21.21 0 0 0 .11.1.63.63 0 0 0 .23.14zM36.41 53.21c0 .1-.08.21-.1.28s-.13-.1-.21-.15a.28.28 0 0 1 .26-.46h.13c-.03.12-.06.22-.08.33zM35.26 54.26a2.08 2.08 0 0 1 .05-.41.28.28 0 0 1 .33.28 3.26 3.26 0 0 1-.23 1.08v-.08a2.64 2.64 0 0 1-.1-.82z"/><path class="cls-1" d="M35.26 54.28a2.64 2.64 0 0 0 .1.82v.08a2.68 2.68 0 0 1-1.69 1.51.83.83 0 0 1-.9-.36 17 17 0 0 1-3-11.64.31.31 0 0 1 .59 0 38.85 38.85 0 0 0 3.45 10.2 1.8 1.8 0 0 1-.56.26l.9.39c-.1-.21-.23-.44-.34-.65.49-.3.9-.74 1.39-1.07h.08a2.08 2.08 0 0 0-.05.41zM34.18 63.67V64a2.31 2.31 0 0 0-.28-.1 1.94 1.94 0 0 1 .28-.23z"/><path class="cls-1" d="M33.84 54.92c.11.21.24.44.34.65l-.9-.39a1.8 1.8 0 0 0 .56-.26zM34.18 63.67a1.94 1.94 0 0 0-.26.23.24.24 0 0 0-.13 0 .8.8 0 0 0 0-.34c.1-.1.23-.2.33-.31.01.11.03.26.06.42zM34.1 63.18c-.1.11-.23.21-.33.31-.05-.46-.16-1-.21-1.59.11-.15.21-.33.31-.48a1.55 1.55 0 0 0-.36-.08v-.13l-.07.1a1.78 1.78 0 0 0-.36-.1c0 .15 0 .33.05.49A33.23 33.23 0 0 1 30 65.43v-.77c1.13-1.2 2.11-2.54 3.28-3.72a.42.42 0 0 1 .72.31c0 .62 0 1.29.1 1.93z"/><path class="cls-1" d="M33.92 63.9l-.1.1a.27.27 0 0 0 0-.15.24.24 0 0 1 .1.05zM33.87 61.44c-.1.15-.2.33-.31.48 0-.2-.05-.38-.05-.56a1.55 1.55 0 0 1 .36.08zM33.77 63.51a.8.8 0 0 1 0 .34.91.91 0 0 0-.25-.11z"/><path class="cls-1" d="M33.56 61.92a3 3 0 0 1-.33.51c0-.23-.08-.48-.1-.71l.31-.39h.07c0 .21.03.39.05.59zM33.51 61.23v.1h-.07zM33.08 61.23a1.78 1.78 0 0 1 .36.1l-.31.39c-.03-.16-.03-.34-.05-.49z"/><path class="cls-1" d="M33.13 61.72c0 .23.07.48.1.71a19.43 19.43 0 0 1-3.36 3.82c-.28.23-.84.21-.92-.25a8.36 8.36 0 0 1 .59-4.59c.85-2.13-.28-1.54-1.92-2.39a19.48 19.48 0 0 1-4.46-3 5.67 5.67 0 0 1-.06-.72.13.13 0 0 0-.25 0 1.84 1.84 0 0 0 0 .42 12.18 12.18 0 0 1-1.33-1.47 2.1 2.1 0 0 1 .23-.48 19.3 19.3 0 0 0 9 5.56c-.57 2-1.64 3.92-1.36 5.87a3.19 3.19 0 0 1-.26.26l.34.07a1.06 1.06 0 0 0 0 .31c.07-.08.18-.15.25-.23l.26.08a1 1 0 0 1 0-.29 33.23 33.23 0 0 0 3.15-3.68zM31.79 93.43a5.75 5.75 0 0 1-.56-.41c.28 0 .54 0 .82.07a.36.36 0 0 1 .16.59 2.45 2.45 0 0 1-.42-.25z"/><path class="cls-1" d="M32.21 93.68a.17.17 0 0 1-.16.07c-10.1 1.75-18.87 7-23.91 15.74a11.48 11.48 0 0 0-1.46 1.34c4.51-9 14.91-17.64 25.11-17.43a2.45 2.45 0 0 0 .42.28z"/><path class="cls-1" d="M31.79 93.43c-10.2-.21-20.6 8.38-25.11 17.43a11.27 11.27 0 0 0-1.57 2.07c4.08-9.74 14.59-21 26.12-19.91a5.75 5.75 0 0 0 .56.41zM30.9 59.08a.38.38 0 0 1 .15.36 22.1 22.1 0 0 0-1.13 5.2c-.18.21-.38.39-.56.57-.28-2 .79-3.9 1.36-5.87a19.3 19.3 0 0 1-9-5.56 3.23 3.23 0 0 1 .21-.47 28.74 28.74 0 0 0 4.71 3.52 31.33 31.33 0 0 1 4.26 2.25zM30.21 90.22a4.18 4.18 0 0 0 .56.62 4.39 4.39 0 0 0-.82.07 2.3 2.3 0 0 1-.23-.28 1.26 1.26 0 0 0 .1-.36 2.6 2.6 0 0 1 .39-.05zM29.92 89.91a4 4 0 0 1 .29.31 2.6 2.6 0 0 0-.39 0 1.26 1.26 0 0 0 .1-.31zM30 65.43a1 1 0 0 0 0 .29l-.26-.08a1.12 1.12 0 0 0 .26-.21z"/><path class="cls-1" d="M29.92 64.66v.77a1.12 1.12 0 0 1-.23.21l-.3-.08a.8.8 0 0 1-.08-.33c.23-.18.43-.36.61-.57zM29.72 90.63a2.3 2.3 0 0 0 .23.28 1.09 1.09 0 0 0-.31 0c.03-.07.05-.18.08-.28zM29.82 90.27a1.26 1.26 0 0 1-.1.36l-.23-.31a1.88 1.88 0 0 1 .33-.05z"/><path class="cls-1" d="M29.74 65.64c-.07.08-.18.15-.25.23a1.06 1.06 0 0 1 0-.31zM29.44 65.56l-.34-.07a3.19 3.19 0 0 0 .26-.26.8.8 0 0 0 .08.33zM28.59 39a.39.39 0 0 1-.1.53 3.17 3.17 0 0 1-.26-.33c-.13-.13-.26-.25-.38-.38a.6.6 0 0 1 .48-.16c.08.12.18.22.26.34z"/><path class="cls-1" d="M28.23 39.21a3.17 3.17 0 0 0 .26.33.38.38 0 0 1-.46.06c-.13-.08-.23-.18-.36-.26s0 0 0-.05a.59.59 0 0 1 .21-.46c.12.17.22.25.35.38zM28.33 38.67a.6.6 0 0 0-.48.16c-2.1-2-3.92-2-5.36-1a.55.55 0 0 0-.2-.23c-.06 0-.13-.08-.18-.13 1.94-1.33 4.3-1.13 6.22 1.2zM21.34 52.9c-.31-.21-.8.1-.54.46a3.39 3.39 0 0 0 .2.28.69.69 0 0 1-.15.31 7.48 7.48 0 0 1-.41-.8C22 49.41 23.16 44.44 27 42.77c.54-.23 1.13.39.66.87a19.6 19.6 0 0 0-4.43 6.52c-.44 1.07-.85 2.12-1.33 3.17l-.54-.43s0-.03-.02 0z"/><path class="cls-1" d="M27.85 38.83a.59.59 0 0 0-.21.46c-1.54-1-3.41-2.28-5-.64a10.09 10.09 0 0 0-2.36 4.66c-.72 3-1.05 6.82.18 9.82-.13.31-.23.6-.36.85-.07-.2-.17-.41-.25-.61a3.7 3.7 0 0 0 .28-.28.3.3 0 0 0-.28-.51l-.28.07c-1.39-4.43-.36-11.38 2.3-14.22h.11a.46.46 0 0 0 .56-.61c1.39-1.04 3.21-.99 5.31 1.01zM27.05 85.94a4.33 4.33 0 0 1 0-.72c.16.31.34.62.49 1a.27.27 0 0 1-.41.33.12.12 0 0 1-.05 0 2.74 2.74 0 0 1-.03-.61z"/><path class="cls-1" d="M27.05 85.94a2.74 2.74 0 0 0 0 .51c-2.39-2.28-5-5.48-8.64-5.28a10.06 10.06 0 0 0-6.82 3.31 18.32 18.32 0 0 0-4 6.66c-.51 1.54-.59 3.23-1.36 4.62-.07-.18-.15-.39-.23-.57.78-10.27 12.31-21.68 21.05-9.25z"/><path class="cls-1" d="M27.05 85.22a4.33 4.33 0 0 0 0 .72C18.31 73.51 6.78 84.92 6 95.19c-.2-.54-.38-1-.56-1.59a.25.25 0 0 0 0-.28c0-.07-.05-.15-.07-.23C5.8 88.68 10 83.4 13 81.61a9.79 9.79 0 0 1 14.05 3.61zM23 55.9l.18.15A93.41 93.41 0 0 0 27 79.4a.3.3 0 0 1-.54.23C23 72.51 22 63.59 22.82 55.75zM23.05 135.69a14.49 14.49 0 0 1-2.66-1.51c.1 0 .23.08.33.1 1.41.46 3.18.67 4.26 1.75a.22.22 0 0 1 0 .33 13.27 13.27 0 0 1-1.93-.67z"/><path class="cls-1" d="M25 136.36h-.05a4 4 0 0 1-1.1.12 14.42 14.42 0 0 1-3.41-1.61c.87.28 1.77.56 2.66.79a13.27 13.27 0 0 0 1.9.7zM23 55.9l-.16-.15a1.84 1.84 0 0 1 0-.42.13.13 0 0 1 .25 0 5.67 5.67 0 0 0 .06.72zM22.49 37.83a.46.46 0 0 1-.56.61h-.11a3.64 3.64 0 0 1 .67-.61z"/><path class="cls-1" d="M21.64 37.8a3 3 0 0 1 .47-.36c.05.05.12.08.18.13a.55.55 0 0 1 .2.23 3.64 3.64 0 0 0-.67.59c-.2-.08-.41-.13-.61-.23a2.23 2.23 0 0 1 .43-.36zM21.93 53.33a3.23 3.23 0 0 0-.21.47l-.54-.54a1 1 0 0 0 .16-.33h.05z"/><path class="cls-1" d="M22.11 37.44a3 3 0 0 0-.47.36c-4.22-1.95-4.84-6.64-4.87-10.8a1.87 1.87 0 0 0 .11-.59.42.42 0 0 1 .33.31 46.84 46.84 0 0 0 .92 5.61 8.6 8.6 0 0 0 3.98 5.11zM21.21 38.19c.2.1.41.15.61.23-2.66 2.84-3.69 9.79-2.3 14.22a2.91 2.91 0 0 0-.67.21 17.07 17.07 0 0 1-.08-10.18 15.07 15.07 0 0 1 1.05-2.56 7.53 7.53 0 0 1 1.39-1.92zM21.18 53.26l.54.54a2.1 2.1 0 0 0-.23.48 6.35 6.35 0 0 1-.49-.64 2.18 2.18 0 0 0 .18-.38z"/><path class="cls-1" d="M21.49 54.28c-.15.26-.28.52-.41.77a.69.69 0 0 1-1.18 0 8.37 8.37 0 0 1-.61-1.15c.18-.15.33-.34.51-.51.08.2.18.41.25.61s-.1.23-.15.36h.39a1.39 1.39 0 0 0 .2.36c.05-.13.13-.23.18-.36h.41l-.23-.36a.69.69 0 0 0 .15-.31 6.35 6.35 0 0 0 .49.59zM21.18 53.23a2.18 2.18 0 0 1-.18.38 3.39 3.39 0 0 1-.2-.28c-.26-.36.23-.67.54-.46a1 1 0 0 1-.16.36zM21.64 37.8a2.23 2.23 0 0 0-.43.39c-3.59-1.41-5-5.49-5-9.23a9.72 9.72 0 0 0 .56-1.96c.03 4.16.65 8.85 4.87 10.8z"/><path class="cls-1" d="M20.85 54l.23.38h-.41a2.58 2.58 0 0 0 .18-.38zM20.39 134.18a14.49 14.49 0 0 0 2.66 1.51c-.89-.23-1.79-.51-2.66-.79a.35.35 0 0 0-.08-.05 14.53 14.53 0 0 1-1.87-1.44 17 17 0 0 0 1.92.75l.03.02z"/><path class="cls-1" d="M20.85 54a2.58 2.58 0 0 1-.18.38h-.41a4 4 0 0 1-.18-.36c.13-.25.23-.54.36-.85a7.48 7.48 0 0 0 .41.83z"/><path class="cls-1" d="M20.67 54.36c-.05.13-.13.23-.18.36a1.39 1.39 0 0 1-.2-.36zM20.39 134.9a14.42 14.42 0 0 0 3.41 1.61 15.37 15.37 0 0 1-4.64-1.36 14 14 0 0 1-4-2.17 5 5 0 0 0 0-.67 17.44 17.44 0 0 0 5.15 2.54.35.35 0 0 1 .08.05z"/><path class="cls-2" d="M21.21 38.19a7.53 7.53 0 0 0-1.39 1.92 15.07 15.07 0 0 0-1.05 2.56l-.15-.05a.27.27 0 0 0-.28-.28c-6.54-.26-9.46 11.82-9.2 16.71a.85.85 0 0 0 1.25.72 30.32 30.32 0 0 0 3.54-1.87C9.67 63.54 7.29 70 5.42 76.84a54 54 0 0 0-2 9.23c-2.21-11.51-.9-23.46 2.49-34.91a78.72 78.72 0 0 1 6.76-15.72A50.59 50.59 0 0 0 16.18 29c0 3.7 1.44 7.78 5.03 9.19z"/><path class="cls-1" d="M20.26 54.36h-.36c.05-.13.1-.23.15-.36a4 4 0 0 0 .21.36zM19.64 53c-.05-.11-.07-.23-.12-.34l.28-.07a.3.3 0 0 1 .28.51 3.7 3.7 0 0 1-.28.28 1.35 1.35 0 0 1-.16-.38z"/><path class="cls-1" d="M19.8 53.36c-.18.17-.33.36-.51.51a4.43 4.43 0 0 1-.26-.54l.61-.35a1.35 1.35 0 0 0 .16.38z"/><path class="cls-1" d="M19.52 52.64c.05.11.07.23.12.34l-.61.35a3.12 3.12 0 0 1-.18-.48 2.91 2.91 0 0 1 .67-.21z"/><path class="cls-1" d="M9.93 58.18l-.18.08a.63.63 0 0 0 .18.12 4.58 4.58 0 0 0 0 .67c.17-.08.35-.13.53-.23l.29.23v-.36c2.82-1.23 5.43-3.64 8.25-5.33a4.43 4.43 0 0 0 .26.54A25.47 25.47 0 0 1 16 56.56a.47.47 0 0 0-.79-.3c-.46.54-.87 1.07-1.28 1.64a30.32 30.32 0 0 1-3.54 1.87.85.85 0 0 1-1.25-.72c-.26-4.89 2.66-17 9.2-16.71a.27.27 0 0 1 .28.28.3.3 0 0 1-.28.31c-5.26.41-7.31 9.82-7.54 14.81-.28.18-.56.31-.87.44z"/><path class="cls-1" d="M19 53.33c-2.82 1.69-5.43 4.1-8.25 5.33v-.92c2.8-1.38 5.13-3.92 8.05-4.89a3.12 3.12 0 0 0 .2.48z"/><path class="cls-2" d="M18.62 42.62l.15.05a17.07 17.07 0 0 0 .08 10.18c-2.92 1-5.25 3.51-8 4.89.23-5 2.28-14.4 7.54-14.81a.3.3 0 0 0 .23-.31z"/><path class="cls-1" d="M18.44 133.41a14.53 14.53 0 0 0 1.87 1.44 17.44 17.44 0 0 1-5.15-2.54v-.54c1.08.57 2.13 1.13 3.23 1.59 0 .03.02.05.05.05zM4.6 93.66a.47.47 0 0 0 .72.1A5.4 5.4 0 0 0 5.78 96a.18.18 0 0 0 .31 0c0-.08.07-.16.12-.23.26.69.54 1.36.82 2s-.61 1.18-.94.54C-.84 85.79-.89 70.2 2.63 56.54a79.37 79.37 0 0 1 6.86-18.43c2.11-3.79 6-8.08 7.13-12.25a.17.17 0 0 1 .33.05 2.62 2.62 0 0 1-.07.51.43.43 0 0 0-.52.31c0 .23-.05.46-.07.69-1.46 3.31-5.92 10.15-6.95 12.74-7 14.51-10.71 34.37-5.69 50.7a9.75 9.75 0 0 0 .95 2.8z"/><path class="cls-1" d="M16.77 27a9.72 9.72 0 0 1-.59 2 9.54 9.54 0 0 1 .11-1.54 6.54 6.54 0 0 0 .38-1 .37.37 0 0 1 .21 0 1.87 1.87 0 0 1-.11.54z"/><path class="cls-1" d="M16.67 26.42a6.54 6.54 0 0 1-.38 1c0-.23.05-.46.07-.69a.37.37 0 0 1 .31-.31zM16.29 27.42a9.54 9.54 0 0 0-.11 1.58 50.59 50.59 0 0 1-3.51 6.48 78.72 78.72 0 0 0-6.76 15.68c-3.39 11.45-4.7 23.4-2.47 34.91a15.92 15.92 0 0 0 .21 4.79c-5-16.33-1.28-36.19 5.69-50.7 1.03-2.59 5.49-9.43 6.95-12.74z"/><path class="cls-1" d="M16 56.56a.44.44 0 0 1-.07.24 58.42 58.42 0 0 0-8.77 19.14C5.78 81.25 3.65 87.58 5.37 93a.77.77 0 0 0 0 .26 62.32 62.32 0 0 1-1.23-4.18C4 84.3 5.88 77.92 6.78 74.61a48.7 48.7 0 0 1 8.3-17.43c.31-.18.62-.41.92-.62z"/><path class="cls-1" d="M15.08 57.18c-.38.26-.77.49-1.15.72.41-.57.82-1.1 1.28-1.64a.47.47 0 0 1 .79.3c-.3.21-.61.44-.92.62zM14.93 132.75a.82.82 0 0 0 .26.23 32.93 32.93 0 0 1-.13 4.43c0 .1-.11.18-.21.13-9.66-5.92-7.2-19.25-3.92-28.38.31-.18.59-.38.9-.56a.48.48 0 0 1 .15.46c-.85 5-2.69 10-2.69 15.15 0 2.82 0 6 1.46 8.51.28.46 3.9 4.64 3.87 2.77a18.78 18.78 0 0 1 0-3 3.56 3.56 0 0 0 .31.26z"/><path class="cls-1" d="M15.16 132.31a5 5 0 0 1 0 .67.82.82 0 0 1-.26-.23v-.59z"/><path class="cls-1" d="M15.13 131.77v.54l-.23-.15v-.44a.58.58 0 0 1 .23.05z"/><path class="cls-1" d="M14.93 131.72a.59.59 0 0 0-.23.05v-.23a.2.2 0 1 1 .39 0v.23a.58.58 0 0 0-.16-.05z"/><path class="cls-1" d="M14.93 132.16v.59a3.56 3.56 0 0 1-.31-.26c0-.23.05-.49.08-.72a.59.59 0 0 1 .23-.05z"/><path class="cls-1" d="M14.7 131.77c0 .23 0 .49-.08.72a.44.44 0 0 1 .08-.72zM13.93 57.9c.38-.23.77-.46 1.15-.72a48.7 48.7 0 0 0-8.3 17.43C5.88 77.92 4 84.3 4.11 89.12c-.25-1-.49-2-.67-3.05a54 54 0 0 1 2-9.23C7.29 70 9.67 63.54 13.93 57.9zM7.37 111a13.27 13.27 0 0 1 .77-1.44 11 11 0 0 1 3.86-1.91.35.35 0 0 1 .28.64c-.15.11-.33.21-.48.31a.47.47 0 0 0-.77.21c-.05.12-.08.23-.13.35a14.22 14.22 0 0 0-4.77 4.41c-.36.56-1.41.18-1.13-.48 0-.06 0-.08.06-.13l.56.23v.07c0 .07 0-.05.06-.07l.53.23A25.19 25.19 0 0 1 7.37 111z"/><path class="cls-1" d="M11.06 108.81a.47.47 0 0 1 .77-.21c-.31.18-.59.38-.9.56.07-.16.07-.23.13-.35zM10.8 57.77v.92a.59.59 0 0 1-.29.13c-.18-.13-.38-.28-.56-.44v-.2c.29-.13.57-.26.85-.41z"/><path class="cls-1" d="M10.78 58.69v.36l-.29-.23a.59.59 0 0 0 .29-.13zM10.49 58.82c-.18.1-.36.15-.53.23a4.58 4.58 0 0 1 0-.67c.15.16.35.31.53.44zM9.93 58.18v.2a.63.63 0 0 1-.18-.12zM8.14 109.52a13.27 13.27 0 0 0-.77 1.48 8.22 8.22 0 0 0-1.69 2.23c.31-.77.64-1.57 1-2.33a11.48 11.48 0 0 1 1.46-1.38z"/><path class="cls-1" d="M7.37 111a25.19 25.19 0 0 0-1.16 2.46l-.53-.23A8.22 8.22 0 0 1 7.37 111zM6 95.19c.08.18.16.39.23.57s-.07.15-.12.23a.18.18 0 0 1-.31 0 5.4 5.4 0 0 1-.46-2.23.18.18 0 0 0 .1-.16c.16.54.34 1.05.56 1.59zM6.68 110.86c-.39.76-.72 1.56-1 2.33l-.59-.19a11.27 11.27 0 0 1 1.59-2.14zM5.68 113.19l-.06.07c-.06.07 0-.05 0-.07zM5.44 93.32a.25.25 0 0 1 0 .28c0-.07 0-.17-.08-.25a.77.77 0 0 1 0-.26c.03.08.06.16.08.23z"/><path class="cls-1" d="M5.34 93.35c0 .08 0 .18.08.25a.18.18 0 0 1-.1.16 2.82 2.82 0 0 1 .02-.41z"/><path class="cls-1" d="M4.11 89.17c.36 1.41.77 2.79 1.23 4.18a2.82 2.82 0 0 0 0 .41.47.47 0 0 1-.72-.1 28.84 28.84 0 0 1-.95-2.8 15.92 15.92 0 0 1-.21-4.79c.18 1 .42 2.05.67 3.05zM3.65 90.86a28.84 28.84 0 0 0 .95 2.8 9.75 9.75 0 0 1-.95-2.8z"/></g></g></svg>