<svg xmlns="http://www.w3.org/2000/svg" viewBox="0 0 149.31 143.04"><defs><style>.cls-1{fill:#1d3033;stroke:#1d3033;stroke-linecap:round;stroke-linejoin:round;stroke-width:.66px}.cls-2{fill:#dc6665}.cls-3{fill:#cfc338}.cls-4{fill:#80632c}.cls-5{fill:#f4af20}.cls-6{fill:#f7e5d7}.cls-8{fill:#d93933}.cls-9{fill:#972123}.cls-10{fill:none}.cls-11{fill:#f7ee95}</style></defs><g id="レイヤー_2" data-name="レイヤー 2"><g id="レイヤー_3" data-name="レイヤー 3"><path class="cls-1" d="M128.85 77.12c.23 0 .46.07.69.12 10 8.23 23.92 22.25 18.05 36.22a.38.38 0 0 1-.59.18c.08-.13.13-.25.2-.38a.22.22 0 0 0-.28-.31c2.64-15.4-9-25.61-18.61-35.83 0-.06-.07-.08-.07-.11l.59.11z"/><path class="cls-1" d="M146.87 113.31a1.12 1.12 0 0 0 0-.31.22.22 0 0 1 .28.31c-.07.13-.12.25-.2.38a.41.41 0 0 1-.13-.31z"/><path class="cls-2" d="M128.31 77.12c9.61 10.22 21.25 20.43 18.61 35.83-1.59.9-2.71 2.67-3.82 4.08a31.66 31.66 0 0 1-2.51 2.76c.87-10.94-1-21.63-8.15-30.34v-.06c-1.7-4.64-3.77-9.2-6.82-12.84a16.28 16.28 0 0 0 2.28.41 3.13 3.13 0 0 0 .36.05s.03.05.05.11z"/><path class="cls-1" d="M146.92 113a1.12 1.12 0 0 1 0 .31v.07c-2.69 2.72-4.15 6.18-7.41 8.62v-1a1 1 0 0 1 .18-.18.44.44 0 0 0 .87 0c0-.31.05-.59.05-.9a31.66 31.66 0 0 0 2.49-2.92c1.11-1.38 2.23-3.15 3.82-4z"/><path class="cls-1" d="M146.87 113.33a.41.41 0 0 0 .13.31 51.37 51.37 0 0 1-3.49 5.08 12.6 12.6 0 0 1-4.07 4v-.79c3.28-2.42 4.74-5.88 7.43-8.6zM142.69 60.4a.57.57 0 0 1-.15.75.63.63 0 0 0-.39-.8.53.53 0 0 0-.18-.05 69.62 69.62 0 0 1-4.4-8.38c-1.1-2.56-1.44-5-2.87-7.43a59.6 59.6 0 0 0-11.79-14c-2.21-2-4.8-4.74-7.75-5.36l.77-.15c6.33 1.72 12.13 9.15 15.92 13.84 5.15 6.31 7.33 14.38 10.84 21.58z"/><path class="cls-1" d="M142 60.3a.53.53 0 0 1 .18.05.63.63 0 0 1 .39.8.59.59 0 0 1-.85-.15c0-.05-.07-.1-.1-.16a14.6 14.6 0 0 1-.54-.82c.28.1.59.18.92.28z"/><path class="cls-1" d="M141.59 60.86c0 .06.08.11.1.16a.59.59 0 0 0 .85.15.58.58 0 0 1-.57.36 39.42 39.42 0 0 1-6-.74c-1.95-.34-4.07-.54-5.74-1.64a2 2 0 0 0-.13-.31.23.23 0 0 0-.18-.15.48.48 0 0 1 .49-.62c2 0 4 .79 6 1.15 1.54.26 3.1.44 4.61.82.21.29.39.57.57.82zM142 60.3c-.3-.1-.61-.18-.92-.26-3.77-5.92-5.25-12.92-9.3-18.55s-10.28-13.56-17.13-16.13a.27.27 0 0 1-.18-.15h.06l.66-.08c3 .62 5.54 3.39 7.75 5.36a59.6 59.6 0 0 1 11.79 14c1.43 2.46 1.77 4.87 2.87 7.43a69.62 69.62 0 0 0 4.4 8.38zM132.44 89.45c7.18 8.71 9 19.4 8.15 30.34a5.66 5.66 0 0 1-.49.49c0-2.48.7-4.77.49-7.41a47.3 47.3 0 0 0-1.43-8.58 43.33 43.33 0 0 0-6.49-14.15c-.08-.23-.15-.46-.23-.69z"/><path class="cls-1" d="M140.59 112.87c.21 2.64-.49 4.93-.49 7.41-.15.12-.28.28-.43.41-.08-5.56.48-10.69-1.08-16.22a57.92 57.92 0 0 0-5.3-12.64c-.21-.57-.41-1.13-.62-1.69a43.33 43.33 0 0 1 6.49 14.15 47.3 47.3 0 0 1 1.43 8.58zM140.1 120.31a5.66 5.66 0 0 0 .49-.49c0 .31 0 .59-.05.9a.44.44 0 0 1-.87 0c.15-.13.33-.29.43-.41z"/><path class="cls-1" d="M135.34 98.21c2.38 7.51 4.2 14.89 4.15 22.69-.21.18-.39.36-.59.54-.05-11.59-4.38-23.41-8.23-34.1-1.43-3.79-3-7.64-5.56-10.89.15 0 .31.08.46.1 3.05 3.64 5.12 8.2 6.82 12.84-.21-.23-.39-.46-.6-.69s-.35 0-.25.21c.59 1 1.18 1.94 1.72 2.92.74 2.17 1.41 4.33 2.08 6.38z"/><path class="cls-1" d="M139.49 120.9v1c-.2.15-.38.28-.59.41a4.75 4.75 0 0 0 0-.92c.2-.13.38-.31.59-.49zM139.46 122v.79a1 1 0 0 1-.28.18.63.63 0 0 1-.29.08 2.29 2.29 0 0 0 0-.64c.19-.18.37-.31.57-.41z"/><path class="cls-1" d="M139.16 122.92a1 1 0 0 0 .28-.18 5.16 5.16 0 0 1 0 .67.36.36 0 0 0-.46-.33.15.15 0 0 0-.08 0 .1.1 0 0 0 0-.13.63.63 0 0 0 .26-.03zM139.41 123.41v.64a.57.57 0 0 1-.57.54 4.47 4.47 0 0 0 .57-1.08v-.1z"/><path class="cls-1" d="M138.85 123.64a4.1 4.1 0 0 0 0-.51.15.15 0 0 1 .08 0 .36.36 0 0 1 .46.33v.1a4.47 4.47 0 0 1-.57 1.08.47.47 0 0 1-.47-.44 2.5 2.5 0 0 0 .5-.56zM138.87 122.36a2.29 2.29 0 0 1 0 .64.69.69 0 0 1-.61-.39 2.75 2.75 0 0 0 0-.48c.05 0 .08-.13.16-.18s.33-.31.51-.48a4.75 4.75 0 0 1-.06.89zM138.9 121.44c-.18.17-.33.33-.51.48s-.11.13-.16.18a101.52 101.52 0 0 0-13.63-45.83l.48.15c2.56 3.25 4.13 7.1 5.56 10.89 3.88 10.69 8.21 22.54 8.26 34.13z"/><path class="cls-1" d="M138.87 123a.1.1 0 0 1 0 .13 4 4 0 0 0-.59.28v-.8a.69.69 0 0 0 .59.39z"/><path class="cls-1" d="M138.87 123.13a4.1 4.1 0 0 1 0 .51 2.5 2.5 0 0 1-.52.51v-.1a4.5 4.5 0 0 0 0-.64 4 4 0 0 1 .52-.28zM127.39 130.43a.7.7 0 0 0 .23-.08c3.59-1.33 7.87-3.35 10.71-6.2a.47.47 0 0 0 .47.44c-1.08 1.51-3.26 2.66-4.7 3.43a24.5 24.5 0 0 1-6.91 2.85.34.34 0 0 1-.31-.57.53.53 0 0 0 .51.13z"/><path class="cls-1" d="M138.31 124.05v.1c-2.84 2.85-7.12 4.87-10.71 6.2a.5.5 0 0 0 .23-.28 2.6 2.6 0 0 0 .13-.36c1.82-.94 3.74-1.66 5.51-2.71s3.1-2.64 4.79-3.59a4.5 4.5 0 0 1 .05.64z"/><path class="cls-2" d="M138.26 122.61v.8c-1.69 1-3.12 2.59-4.79 3.59s-3.69 1.77-5.51 2.71c6.51-16.22.77-34.88-5.51-50.47a21.2 21.2 0 0 0 1-3.56 6.2 6.2 0 0 0 1.18.59 101.52 101.52 0 0 1 13.63 45.83.51.51 0 0 0 0 .51z"/><path class="cls-1" d="M138.23 122.13a2.75 2.75 0 0 1 0 .48.51.51 0 0 1 0-.48z"/><path class="cls-3" d="M141.05 60c-1.51-.38-3.07-.56-4.61-.82-2-.36-4-1.15-6-1.15a.48.48 0 0 0-.49.62.36.36 0 0 0-.48.43c1.51 5.46 1.69 11.28 3.59 16.61a16.36 16.36 0 0 0-3.67-.28 35.1 35.1 0 0 1-6.38-1 .39.39 0 0 0-.39.64h.08c-1.85 5.15-4.74 9.74-7 14.68-2.36-4-6.12-6.92-9.69-9.89a.48.48 0 0 0-.79.33.34.34 0 0 0-.34.26c-.48 3.28-1.51 6.51-1.79 9.81-4.59-3.92-7.92-9.43-13.25-12.28a20.2 20.2 0 0 0 3.72-1.71c-.54 2.23 3.89 2.71 5.22 2.94 3.23.54 7.69.21 9.9-2.64 3-3.94.67-11.53-4.85-9.71h-.07l-.46-1.11a.81.81 0 0 0 .51-.41c2.71-5.46 5.38-10.94 8.35-16.27a.52.52 0 0 0-.89-.54 114.24 114.24 0 0 0-8.31 14.53c-5.82-9.84-6.71-21.45-11.23-31.89-.23-.56-1.2-.15-1 .41A66 66 0 0 1 93 38.54c-6.56-3.69-13.35-6.26-20.4-8.9-3.72-1.41-7.51-3.2-11.43-3.87.18-.61-.72-.87-1.08-.38-1.16-1.53-2.57-2.87-3.87-4.3a20.41 20.41 0 0 1-3.82-6.28 16.7 16.7 0 0 0 3.51 1.28c2.92.87 5.82 1.85 8.82 2.46a.46.46 0 0 0 .56-.33c3.31-2.69 6.48-4.9 10.61-6.18a45.75 45.75 0 0 1 9-1.38c-.4.28-.79.61-1.12.89a11.44 11.44 0 0 0-3 3.28c-.44.16-.21.87.33.77 13.23-2.95 27.66.23 38.86 7.56a10.92 10.92 0 0 0-5.61 1.34c-.28.18-.21.69.12.69a.27.27 0 0 0 .18.15c6.85 2.57 13 10.38 17.13 16.13s5.49 12.65 9.26 18.53z"/><path class="cls-1" d="M134 76.14a3.71 3.71 0 0 0-.87-.36c-1.9-5.33-2.08-11.15-3.59-16.61a.36.36 0 0 1 .48-.43.52.52 0 0 0 .23.41.35.35 0 0 1 .08 0c2.56 5.28 2.33 11.43 4.49 16.89a.63.63 0 0 1-.57.87.62.62 0 0 0-.25-.77z"/><path class="cls-1" d="M134 76.14a.62.62 0 0 1 .2.77.75.75 0 0 1-.77-.28.82.82 0 0 1-.1-.21 6.2 6.2 0 0 1-.23-.69 3.71 3.71 0 0 1 .87.36s.03.03.03.05z"/><path class="cls-1" d="M133.41 76.63a.75.75 0 0 0 .77.28.58.58 0 0 1-.41.36 9.9 9.9 0 0 1-4.23 0c-.25-.23-.48-.43-.74-.64a.36.36 0 0 0-.56.41 3.13 3.13 0 0 1-.36-.05 16.28 16.28 0 0 1-2.28-.41c-.18-.23-.38-.49-.59-.72s-.59.06-.44.34a.15.15 0 0 1 .06.1 6.2 6.2 0 0 1-1.18-.59s0-.24.07-.36a.44.44 0 0 0 0-.26c2.71 1.36 7 1.2 9.92 1.59z"/><path class="cls-1" d="M123 74.81a.33.33 0 0 0-.28.26h-.08a.39.39 0 0 1 .39-.64 35.1 35.1 0 0 0 6.38 1 16.36 16.36 0 0 1 3.67.28 6.2 6.2 0 0 0 .23.69.82.82 0 0 0 .1.21c-2.93-.39-7.21-.23-9.92-1.59a.38.38 0 0 0-.49-.21zM132.67 90.14c.21.56.41 1.12.62 1.69-.54-1-1.13-2-1.72-2.92-.1-.18.13-.36.25-.21s.39.46.6.69v.06c.1.23.17.46.25.69zM130.13 58.84a2 2 0 0 1 .13.31.35.35 0 0 0-.08 0 .52.52 0 0 1-.23-.41.23.23 0 0 1 .18.1zM128.83 77.12l-.59-.11a.36.36 0 0 1 .56-.41c.26.21.49.41.74.64-.23 0-.46-.07-.69-.12zM122.21 80c.1-.23.18-.49.26-.72 6.28 15.59 12 34.25 5.51 50.47-.36.18-.69.36-1 .57a.08.08 0 0 0-.05 0 .43.43 0 0 1-.1-.51c3.12-9.51 2.74-19.25.38-28.89-1.62-6.69-4.1-13.3-5.26-20.12.05-.3.16-.56.26-.8z"/><path class="cls-1" d="M126.93 130.28c.36-.21.69-.39 1-.57a2.6 2.6 0 0 1-.13.36.5.5 0 0 1-.23.28.7.7 0 0 1-.23.08.53.53 0 0 1-.51-.13.08.08 0 0 1 .1-.02zM125.08 76.42l-.48-.15a.15.15 0 0 0-.06-.1c-.15-.28.24-.59.44-.34s.41.49.59.72c-.15 0-.31-.08-.46-.1zM123.06 75.42a3.81 3.81 0 0 1-.36-.3.33.33 0 0 1 .28-.26 1.8 1.8 0 0 0 .46.23.44.44 0 0 1 0 .26c0 .12 0 .25-.07.36a1.5 1.5 0 0 1-.31-.29zM123.47 75a1.8 1.8 0 0 1-.46-.23.38.38 0 0 1 .46.23z"/><path class="cls-1" d="M123.42 75.66a21.2 21.2 0 0 1-1 3.56c-.1-.28-.21-.53-.31-.79a26.5 26.5 0 0 0 .93-3 1.5 1.5 0 0 0 .38.23z"/><path class="cls-1" d="M122.7 75.12a3.81 3.81 0 0 0 .36.3 26.5 26.5 0 0 1-.93 3c-.15-.25-.64-.23-.58.1s.07.65.15 1c-1.62 3.79-4 7.51-5.51 11.25a7.11 7.11 0 0 0-.49-1c2.3-4.91 5.15-9.5 7-14.65z"/><path class="cls-1" d="M122.16 78.45c.1.26.21.51.31.79-.08.23-.16.49-.26.72-.08-.36-.18-.72-.25-1.08.05-.15.1-.3.17-.46l.03.03z"/><path class="cls-1" d="M122 78.88c.07.36.17.72.25 1.08-.1.28-.2.54-.31.82a11.33 11.33 0 0 1-.2-1.28c.04-.21.14-.41.26-.62z"/><path class="cls-1" d="M122 78.88c-.08.21-.18.41-.26.62-.08-.33-.1-.64-.15-1s.43-.35.58-.1c-.11.18-.17.33-.17.48zM114.88 24.75a.08.08 0 0 0-.07 0 .3.3 0 0 0-.31.13.28.28 0 0 0-.06.36c-.33 0-.4-.51-.12-.69a10.92 10.92 0 0 1 5.61-1.34 8.69 8.69 0 0 1 .87.57.42.42 0 0 0 .62-.28 2.55 2.55 0 0 1 .59.25.33.33 0 0 1-.08.59c-1.33.33-2.74 0-4.13.26-.64.13-1.25.28-1.87.41a7 7 0 0 0-1.05-.26zM115.29 90.73c-.13.25-.25.53-.36.79a5.46 5.46 0 0 0 .69-.1c.06.1.11.23.16.33 0-.13.1-.23.15-.36l.57-.07a3.2 3.2 0 0 0-.31-.57c1.56-3.74 3.89-7.46 5.51-11.25a11.33 11.33 0 0 0 .2 1.28c-1.56 3.82-3.79 7.41-5.3 11.2-.26.62-1.21.93-1.56.21-2.18-4.44-6.29-7.49-9.33-11.28a1.59 1.59 0 0 0-.06-.38.36.36 0 0 0-.43-.29.48.48 0 0 1 .79-.33c3.57 3 7.33 5.87 9.69 9.89-.15.31-.28.62-.41.93zM121.39 23.16a.47.47 0 0 1 0 .31 1.91 1.91 0 0 0-.44-.16c-3.61-4.59-14-7.07-19.48-8.12C95.22 14 88 13.34 81.66 15c.18-.18.39-.36.57-.57 7.69-1.79 15.89-.79 23.5 1.08 4.92 1.19 12.97 2.73 15.66 7.65z"/><path class="cls-1" d="M121 23.31a1.91 1.91 0 0 1 .44.16.42.42 0 0 1-.62.28 8.69 8.69 0 0 0-.87-.57 5.11 5.11 0 0 1 1.05.13zM120.52 138.94a4.66 4.66 0 0 1-2.26 3.67.72.72 0 0 1-1-.26 17.3 17.3 0 0 0-3.89-5.46c-1.52-1.41-3.65-3.54-5.82-3.79a1.9 1.9 0 0 1-.57-.16c.44-.23.85-.46 1.26-.71 3.61 2.23 7.38 5.33 9.3 9.1l-.18.15a2.93 2.93 0 0 0 .29.05c.07.15.15.31.23.46a2.43 2.43 0 0 0 .48-.38.3.3 0 0 0 .13 0v-.1a6 6 0 0 0 1.2-1.74.42.42 0 0 0 .52-.31 4.8 4.8 0 0 0 .07-.85.38.38 0 0 1 .24.33z"/><path class="cls-1" d="M119.06 133.17a14.18 14.18 0 0 1 1.2 5.46.32.32 0 0 0-.25 0l-.36.2a41 41 0 0 0-4.33-12.35 1.91 1.91 0 0 0 .3-.38 26.45 26.45 0 0 1 3.44 7.07z"/><path class="cls-1" d="M119.65 138.86l.36-.2a.32.32 0 0 1 .25 0 4.8 4.8 0 0 1-.07.85.42.42 0 0 1-.52.31.36.36 0 0 1-.3-.18 2.49 2.49 0 0 1-.16-.33 3.48 3.48 0 0 1 .44-.45zM121 23.31a5.11 5.11 0 0 0-1-.13c-11.2-7.33-25.63-10.51-38.86-7.56-.54.1-.77-.61-.33-.77a.59.59 0 0 0-.1.16.36.36 0 0 0 .56.43c.15-.12.28-.28.44-.43 6.33-1.67 13.56-1 19.84.18 5.38 1.05 15.82 3.53 19.45 8.12z"/><path class="cls-1" d="M119.37 139.61a.36.36 0 0 0 .3.18 6 6 0 0 1-1.2 1.74 7.11 7.11 0 0 0-.41-.72c.41-.51.72-1.07 1.15-1.53a2.49 2.49 0 0 0 .16.33zM119.65 138.86a3.48 3.48 0 0 0-.44.42c-1-2-1.25-4.44-2-6.54s-1.51-3.87-2.26-5.79c.13-.16.24-.29.34-.44a41 41 0 0 1 4.36 12.35z"/><path class="cls-1" d="M118.47 141.53v.1a.3.3 0 0 1-.13 0s.1-.05.13-.1z"/><path class="cls-1" d="M118.47 141.53c0 .05 0 .08-.08.08l-.71-.08a.78.78 0 0 0-.11-.2 4.79 4.79 0 0 0 .49-.52 7.11 7.11 0 0 1 .41.72zM114.73 126a.34.34 0 0 0 0 .28c.08.23.15.44.25.67a14.88 14.88 0 0 1-2.43 2.17.29.29 0 0 1-.36-.07 10 10 0 0 0 2.31-3.9.2.2 0 0 0-.11-.23c1.34-2 2.54-3.84 2.44-6.74-.18-5-3.2-6.08-6.74-8.64a.58.58 0 0 1-.21-.46.26.26 0 0 0 .49-.13v-.2c3.9 1.33 7.82 3.79 8 8.33a13.81 13.81 0 0 1-2.8 9 1.3 1.3 0 0 0-.1-.15.5.5 0 0 0-.69-.08.22.22 0 0 0-.05.15zM117.68 141.53l.71.08a2.43 2.43 0 0 1-.48.38c-.08-.15-.16-.31-.23-.46z"/><path class="cls-4" d="M119.21 139.28c-.43.46-.74 1-1.15 1.53a20.54 20.54 0 0 0-3.23-4.23c-1.67-1.77-4.15-3-5.72-4.87a15.33 15.33 0 0 0 3.08-2.66.29.29 0 0 0 .36.07A14.88 14.88 0 0 0 115 127c.75 1.92 1.59 3.82 2.26 5.79s.93 4.46 1.95 6.49z"/><path class="cls-1" d="M118.06 140.81a4.79 4.79 0 0 1-.49.52c-1.92-3.77-5.69-6.87-9.3-9.1.28-.16.56-.34.84-.52 1.57 1.85 4 3.1 5.72 4.87a20.54 20.54 0 0 1 3.23 4.23zM117.57 141.33a.78.78 0 0 1 .11.2 2.93 2.93 0 0 1-.29-.05z"/><path class="cls-5" d="M116.83 118.18c.1 2.9-1.1 4.79-2.44 6.74a.22.22 0 0 0-.28.08 18.76 18.76 0 0 1-6 5.64 1.21 1.21 0 0 0-1.59.82 24.59 24.59 0 0 1-8 2.28c-7.22.77-9.2-6.46-12.63-11.23a.42.42 0 0 0 .08-.64c-.77-.77-2.05-.64-3.08-.72a19.8 19.8 0 0 0-3.85.18c-.41.08-.41.77 0 .82 1 .21 2.08.28 3.13.41a17.43 17.43 0 0 1-4.61 8.85c-3.1 3.07-7.9 1.56-11.72 2.38a.17.17 0 0 0-.15.1c-3.82-1.2-5.79-4.94-8-8.28-4.18-6.35 7.74-13.4 12.38-15.33a.46.46 0 0 0 .31-.38c5.33 1.85 11.79.23 17.2-.54s11.76-1.92 16.33-5.25a15.22 15.22 0 0 0 2.26-1 22.4 22.4 0 0 0 1.59 2.38c.79 1.15 1.43 2.41 2.2 3.59a.58.58 0 0 0 .21.46c3.46 2.56 6.48 3.69 6.66 8.64z"/><path class="cls-1" d="M116.19 90.75a3.2 3.2 0 0 1 .31.57l-.57.07c.07-.2.16-.39.26-.64z"/><path class="cls-1" d="M115.7 89.8a7.11 7.11 0 0 1 .49 1c-.1.21-.18.44-.26.64a1.05 1.05 0 0 1-.31 0c-.1-.23-.23-.46-.33-.69.13-.33.26-.64.41-.95z"/><path class="cls-1" d="M115.93 91.39c-.05.13-.1.23-.15.36 0-.1-.1-.23-.16-.33a1.05 1.05 0 0 0 .31-.03zM115.16 25.13l-.66.08h-.06a.28.28 0 0 1 .06-.36 1.64 1.64 0 0 1 .38-.1 7 7 0 0 1 1.05.23zM115.32 126.51c-.1.15-.21.28-.34.44-.1-.23-.17-.44-.25-.67a.34.34 0 0 1 0-.28.22.22 0 0 1 .1-.13.5.5 0 0 1 .69.08 1.3 1.3 0 0 1 .1.15 1.91 1.91 0 0 1-.3.41zM115.62 91.42a5.46 5.46 0 0 1-.69.1c.11-.26.23-.54.36-.79.1.27.23.46.33.69z"/><path class="cls-1" d="M114.88 24.75a1.64 1.64 0 0 0-.38.1.3.3 0 0 1 .31-.13.08.08 0 0 1 .07.03zM114.39 124.92a.2.2 0 0 1 .11.23 10 10 0 0 1-2.31 3.9c0-.05-.1-.16 0-.23a11.13 11.13 0 0 1 .51-1.1 8.38 8.38 0 0 0 1.64-2.62 1.62 1.62 0 0 0 .05-.18z"/><path class="cls-1" d="M114.11 125a.22.22 0 0 1 .28-.08 1.62 1.62 0 0 1-.1.18 24.84 24.84 0 0 0-1.64 2.62 17.29 17.29 0 0 1-4.08 3.35 1.07 1.07 0 0 0-.51-.43 18.76 18.76 0 0 0 6.05-5.64z"/><path class="cls-1" d="M114.29 125.1a8.38 8.38 0 0 1-1.64 2.62 24.84 24.84 0 0 1 1.64-2.62zM112.65 127.72a11.13 11.13 0 0 0-.51 1.1v.23a15.33 15.33 0 0 1-3.08 2.66c-.15-.18-.3-.35-.43-.54 0 0-.05-.07-.11-.1a17.29 17.29 0 0 0 4.13-3.35zM103.45 64.07a8.93 8.93 0 0 1-.54-.9 114.24 114.24 0 0 1 8.31-14.53.52.52 0 0 1 .89.54c-3 5.33-5.64 10.81-8.35 16.27a.81.81 0 0 1-.51.41.94.94 0 0 1-1-.41 47.69 47.69 0 0 1-5.31-11.94.56.56 0 0 0 .64-.23 41.42 41.42 0 0 0 4.84 10.87c-.07.12-.12.28-.2.41h.46l.32.44c.07-.16.15-.31.23-.46h.54c-.12-.14-.22-.32-.32-.47zM110.06 108.8a.25.25 0 0 1 .31 0v.2a.26.26 0 0 1-.49.13.38.38 0 0 1 .18-.33z"/><path class="cls-1" d="M110.37 108.75a.25.25 0 0 0-.31 0c-.61-2.08-2.23-4.13-3.59-5.9l.26-.15.13-.08a13 13 0 0 1 2.07 2.57 7 7 0 0 1 1.44 3.56z"/><path class="cls-1" d="M110.06 108.8a.38.38 0 0 0-.18.28c-.77-1.18-1.41-2.44-2.2-3.59a22.4 22.4 0 0 1-1.59-2.38c.13-.08.26-.13.38-.21 1.36 1.77 2.98 3.82 3.59 5.9zM104 67.48s.05-.08.07-.13a.28.28 0 0 0-.23-.41c5.52-1.82 7.85 5.77 4.85 9.71-2.21 2.85-6.67 3.18-9.9 2.64-1.33-.23-5.76-.71-5.22-2.94a5.05 5.05 0 0 0 .51-.28.35.35 0 0 1 .25.18c.41.84 3.64 1.18 4.49 1.33 2.59.46 6.2.51 8.2-1.54a5.46 5.46 0 0 0 1.39-5.56c-.85-2.28-2.59-2.72-4.8-2.38.12-.21.25-.42.39-.62zM108.27 132.23c-.41.25-.82.48-1.26.71a.93.93 0 0 1-.57-.69c.75-.36 1.46-.77 2.15-1.18.06 0 .08.08.11.1.13.19.28.36.43.54-.3.18-.58.36-.86.52z"/><path class="cls-6" d="M108.4 70.45A5.46 5.46 0 0 1 107 76c-2 2-5.61 2-8.2 1.54-.85-.15-4.08-.49-4.49-1.33a.35.35 0 0 0-.25-.18c.61-.36 1.18-.72 1.69-1a24.42 24.42 0 0 0 7.84-6.94c2.22-.36 3.96.08 4.81 2.36z"/><path class="cls-1" d="M108.06 130.64a1.07 1.07 0 0 1 .51.43c-.69.41-1.4.82-2.15 1.18a1.26 1.26 0 0 1 0-.79c.58-.26 1.13-.54 1.64-.82z"/><path class="cls-1" d="M108.06 130.64c-.51.28-1 .56-1.59.82a1.21 1.21 0 0 1 1.59-.82zM107 101.62a.88.88 0 0 1-.18 1 7 7 0 0 0-.59-.49.15.15 0 0 0-.13-.05l.18-.1c-1.54-3.08-3.07-6.31-4.87-9.36a.88.88 0 0 0-.31-.53c-.61-1-1.25-2.08-2-3 .65.64 1.31 1.25 2 1.84 2.27 3.41 3.9 7.21 5.9 10.69z"/><path class="cls-1" d="M106.47 102.9c-.12.08-.25.13-.38.21a2 2 0 0 1-.28-.57.23.23 0 0 1 0-.2c.1-.08.2-.13.3-.21a.15.15 0 0 1 .13.05 7 7 0 0 1 .59.49l-.13.08zM106.42 132.25a.93.93 0 0 0 .57.69 21.59 21.59 0 0 1-8.57 2.39c-7.86.31-10.15-6.46-13.12-12.59a.69.69 0 0 0 .31-.13c2.26 3.67 4 9.33 8.12 11.31 3.18 1.38 8.27.43 12.69-1.67z"/><path class="cls-1" d="M106.47 131.46a1.26 1.26 0 0 0 0 .79c-4.38 2.1-9.51 3.05-12.69 1.67-4.15-2-5.86-7.64-8.12-11.31l.15-.07c3.43 4.77 5.41 12 12.63 11.23a24.59 24.59 0 0 0 8.03-2.31zM106.32 102l-.18.1a.33.33 0 0 0-.3.21c-.34.18-.69.38-1 .59a.6.6 0 0 0-.82-.34 2 2 0 0 1-.41.21 6.74 6.74 0 0 1 1.28-.87 4.45 4.45 0 0 0-.75-2.85c-.74-1.48-1.48-3-2.28-4.43-.2-.39-.43-.77-.66-1.15a.75.75 0 0 0 .33-.83c1.72 3.08 3.25 6.36 4.79 9.36z"/><path class="cls-1" d="M106.11 102.13c-.1.08-.2.13-.3.21a.33.33 0 0 1 .3-.21zM105.81 102.54a2 2 0 0 0 .28.57 15.22 15.22 0 0 1-2.26 1l.8-.64a.4.4 0 0 0 .13-.54c.36-.21.71-.41 1-.59a.23.23 0 0 0 .05.2zM103 91.37a5.72 5.72 0 0 0 0 .59l.46-.26a3.75 3.75 0 0 0 .33.26v-.46l.44-.24a4 4 0 0 1-.41-.33 6.85 6.85 0 0 1-.72-.59c.28-3.3 1.31-6.53 1.79-9.81a.34.34 0 0 1 .34-.26.54.54 0 0 0 .1.18l.39.46c.48 3.72-1.16 7.33-1.08 11a.83.83 0 0 1-1.23.71 26 26 0 0 1-2.21-1.74 24.73 24.73 0 0 0-4.1-5.05.29.29 0 0 0-.46.36c.13.21.26.41.41.62-2.61-2.75-5.07-5.69-7.74-8.28a.3.3 0 0 1-.08-.34 4.83 4.83 0 0 0 .62-.18c5.33 2.85 8.66 8.36 13.25 12.28a6.93 6.93 0 0 0-.1 1.08z"/><path class="cls-1" d="M105.65 80.53a1.59 1.59 0 0 1 .06.38l-.39-.46a.54.54 0 0 1-.1-.18.36.36 0 0 1 .43.26z"/><path class="cls-5" d="M104.06 99.08a4.45 4.45 0 0 1 .75 2.85 6.74 6.74 0 0 0-1.28.87c-9.64 5.2-22.69 6.74-33.53 5.87a65.26 65.26 0 0 0-.75-7.54 53.33 53.33 0 0 0 31.84-7.61c.23.38.46.76.66 1.15.83 1.44 1.57 2.93 2.31 4.41z"/><path class="cls-1" d="M104.76 102.93a.4.4 0 0 1-.13.54l-.8.64-.72.23a.44.44 0 0 1-.49-.21 2.16 2.16 0 0 0 .36-.2c.21-.13.41-.26.64-.39s.75-.41 1.14-.61z"/><path class="cls-1" d="M103.6 103.54c-.23.13-.43.26-.64.39a2.16 2.16 0 0 1-.36.2.44.44 0 0 1 .05-.54l.88-.79a2 2 0 0 0 .41-.21.6.6 0 0 1 .82.34c-.39.2-.76.41-1.16.61zM104.22 91.26l-.44.24a3.63 3.63 0 0 1 0-.57 4 4 0 0 0 .44.33zM103.48 67.61a4.08 4.08 0 0 1-.31.36.49.49 0 0 1-.23-.39c.2-.15.41-.33.61-.51l.13-.05a.1.1 0 0 0 .07 0 .28.28 0 0 1 .23.41c0 .05 0 .08-.07.13a2.25 2.25 0 0 0-.43.05z"/><path class="cls-1" d="M104 67.48c-.13.2-.26.41-.39.59h-.07a.51.51 0 0 1-.36-.1 4.08 4.08 0 0 0 .31-.36 2.25 2.25 0 0 1 .51-.13zM103.83 66.94s-.02 0 0 0zM103.78 91.5v.46a3.75 3.75 0 0 1-.33-.26c.13-.08.23-.13.33-.2z"/><path class="cls-1" d="M103.81 90.93a3.63 3.63 0 0 0 0 .57c-.1.07-.2.12-.3.2-.15-.1-.28-.23-.44-.33a6.93 6.93 0 0 1 .08-1 6.85 6.85 0 0 0 .66.56zM103.09 104.34l.72-.23c-4.57 3.33-11 4.48-16.33 5.25s-11.87 2.39-17.2.54a.47.47 0 0 0-.43-.64c4.65 1.36 12.41-.07 17.36-.69 4.38-.56 11.17-2.07 15.35-4.41a.44.44 0 0 0 .53.18zM103.78 67a.1.1 0 0 1-.07 0h.07zM103.45 64.07c.1.15.2.33.31.49h-.54c.08-.18.15-.34.23-.49z"/><path class="cls-3" d="M103.71 67h-.11l-.38.15a.37.37 0 0 0-.23.36 83.36 83.36 0 0 1-7.85 6.28c-2.61 1.77-5.4 2.54-8.23 3.72a25.44 25.44 0 0 0-2.61-1.44c.41-1.54.61-3.07 1-4.64s.87-3.07 1.2-4.66a.11.11 0 0 0-.05-.11A7.22 7.22 0 0 0 87.53 65c0-.11 0-.21-.13-.16a36.47 36.47 0 0 0-5.3 4.08c-1.59 1.28-3.69 2.33-5 3.92 2.13-8.2 4-18 2.15-26.27.54.18 1.07.36 1.61.51 3.21 1 6.41 1.95 9.59 3.1 2.41.85 4.25 2.49 6.48 3.36a47.69 47.69 0 0 0 5.31 11.94.94.94 0 0 0 1 .41z"/><path class="cls-1" d="M103.71 67l-.13.05s.1-.05.13-.05zM103.53 68.07h.07A24.42 24.42 0 0 1 95.76 75c-.51.31-1.08.67-1.69 1a.41.41 0 0 0-.51.28 20.2 20.2 0 0 1-3.72 1.71h-.1a.36.36 0 0 0-.52.23 5 5 0 0 1-.92.18s-.13-.07-.18-.13-.38-.23-.56-.33c5.25-1 12.22-6.18 15.61-10a.51.51 0 0 0 .36.13zM103.55 67.07c-.2.18-.41.36-.61.51a.37.37 0 0 1 .23-.36zM102.91 63.17a8.93 8.93 0 0 0 .54.9c-.08.15-.15.31-.23.49h-.54a2.85 2.85 0 0 1-.26-.41c.16-.34.34-.65.49-.98zM103 91.37c.16.1.29.23.44.33l-.44.3a5.72 5.72 0 0 1 0-.63zM103.22 64.56c-.08.15-.16.3-.23.46l-.31-.46z"/><path class="cls-1" d="M102.94 67.58a.49.49 0 0 0 .23.39c-3.39 3.81-10.36 9-15.61 10a2.85 2.85 0 0 0-.67-.38c2.83-1.18 5.62-2 8.23-3.72a83.36 83.36 0 0 0 7.82-6.29zM103.53 102.8l-.88.79a.44.44 0 0 0-.05.54c-4.18 2.34-11 3.85-15.35 4.41-5 .62-12.71 2-17.36.69A.4.4 0 0 0 70 109v-.28c10.84.82 23.89-.72 33.53-5.92zM97 51.36c-.31-.26-.64-.54-1-.8-.88-3.56-1.7-7.18-2.7-10.74a.71.71 0 0 0-.16-1.15s-.12-.08-.18-.1a66 66 0 0 0-2.25-6.85c-.23-.56.74-1 1-.41 4.52 10.44 5.41 22 11.23 31.89-.15.33-.33.64-.49 1a41.42 41.42 0 0 1-4.84-10.87.35.35 0 0 0 .1-.18c0-.13.08-.23.1-.34a.86.86 0 0 0-.23-.89 6.13 6.13 0 0 0-.58-.56z"/><path class="cls-1" d="M102.42 64.15a2.85 2.85 0 0 0 .26.41h-.46c.08-.13.13-.29.2-.41zM101.45 92.67a.75.75 0 0 1-.33.83c-.26-.49-.54-1-.82-1.44a.63.63 0 0 1 .84.08 6 6 0 0 1 .31.53z"/><path class="cls-1" d="M101.45 92.67a6 6 0 0 0-.31-.53.88.88 0 0 1 .31.53zM69.18 100.57c0-.18-.05-.36-.08-.54 10.67 0 22.07-2 31.14-8h.06c.28.49.56 1 .82 1.44a53.33 53.33 0 0 1-31.84 7.61 2.56 2.56 0 0 1-.1-.51z"/><path class="cls-1" d="M101.14 92.14a.63.63 0 0 0-.84-.08c-1.06-1.74-2.18-3.46-3.26-5.2.67.77 1.38 1.48 2.1 2.17v.06c.75.97 1.39 2 2 3.05z"/><path d="M100.3 92.06h-.06c-9.07 6-20.47 7.9-31.14 8-.15-1.2-.28-2.41-.36-3.61-.28-4.57-.2-8.77-1.64-13.18a.44.44 0 0 0-.41-.31v-.05c3.51.64 7.69 1.82 11.74 2.31a.88.88 0 0 1 0 .15c2.59 5.16 7.31 10.85 13.61 10.59a.66.66 0 0 0 .59-.46c2.08-4.92 1.08-11-2.94-14.61a3.66 3.66 0 0 0-1.44-2.44 5 5 0 0 0 .92-.18.3.3 0 0 0 .08.34c2.75 2.56 5.18 5.5 7.75 8.25 1.12 1.74 2.24 3.46 3.3 5.2z" fill="#fff"/><path class="cls-1" d="M99.14 89c-.72-.69-1.43-1.4-2.1-2.17-.15-.21-.28-.41-.41-.62a.29.29 0 0 1 .46-.36 24.73 24.73 0 0 1 4.1 5.05c-.69-.59-1.35-1.2-2-1.84-.02 0-.02-.06-.05-.06zM97.55 51.87a.86.86 0 0 1 .23.89c0 .11-.07.21-.1.34a.35.35 0 0 1-.1.18c-.2-.64-.39-1.28-.54-1.92a6.13 6.13 0 0 1 .51.51z"/><path class="cls-1" d="M96.5 52.12c-.13-.51-.28-1-.41-1.54.33.26.66.54 1 .8.15.64.34 1.28.54 1.92a.56.56 0 0 1-.64.23c-.23-.48-.36-.94-.49-1.41z"/><path class="cls-1" d="M96.5 52.12c.13.47.26.93.41 1.36-2.23-.87-4.07-2.51-6.48-3.36C87.25 49 84.05 48 80.84 47c-.54-.15-1.07-.33-1.61-.51a.41.41 0 0 0-.62-.2c-7.56-2.52-14.89-5.9-22.81-7a.44.44 0 0 0-.23-.31 2.07 2.07 0 0 0 .1-.33c7.07.31 13.87 3.79 20.38 5.84 3.89 1.51 17.38 4.89 20.43 7.61l.02.02z"/><path class="cls-1" d="M96.07 50.56c.13.51.28 1 .41 1.54-3-2.72-16.54-6.13-20.43-7.54-6.51-2.05-13.31-5.56-20.38-5.84a3.8 3.8 0 0 0 .18-.54c8.84.28 17.1 4.59 25.45 7.1 4.36 1.28 10.77 2.36 14.77 5.28z"/><path class="cls-2" d="M93.3 39.82c1 3.56 1.82 7.18 2.77 10.74-4-2.92-10.41-4-14.77-5.28-8.35-2.51-16.61-6.82-25.45-7.1a42.68 42.68 0 0 1 2.13-6c1-2 2.12-3.82 2.92-5.85 2.79 1.77 6 2.8 9.1 4C77.64 33.21 85.2 36 92.38 40a.72.72 0 0 0 .92-.18z"/><path class="cls-1" d="M93.56 76.32a.41.41 0 0 1 .51-.28 5.05 5.05 0 0 1-.51.28zM93.14 38.64a.71.71 0 0 1 .16 1.15c-.11-.41-.21-.84-.34-1.25.04.02.13.08.18.1zM61 26c0-.08 0-.13.07-.2s0 0 0-.06c3.92.67 7.71 2.46 11.43 3.87 7 2.64 13.84 5.21 20.4 8.9.13.41.23.84.34 1.25a.72.72 0 0 1-.92.15C85.2 36 77.64 33.21 70 30.28c-3.08-1.17-6.31-2.2-9.1-4A.56.56 0 0 0 61 26zM89.74 80.86c4 3.59 5 9.69 2.94 14.61a.66.66 0 0 1-.59.46c-6.3.26-11-5.43-13.61-10.59a.88.88 0 0 0 0-.15 2.49 2.49 0 0 0 .46 0c2.69 4.59 7.41 10.64 13.2 10.08 2.23-4.8.85-9.85-2.3-13.9a5.29 5.29 0 0 0-.1-.51z"/><path class="cls-1" d="M89.79 81.42c3.15 4 4.53 9.1 2.3 13.9-5.79.56-10.51-5.49-13.2-10.08a3.25 3.25 0 0 0 .51.05c2.54 3.64 5.8 8.61 10.54 9.33 1.87.28 2.21-.46 2.46-2.23a11.08 11.08 0 0 0-.28-5.12 27.4 27.4 0 0 0-2.41-5.1 3.82 3.82 0 0 0 .08-.75z"/><path class="cls-4" d="M92.12 87.27a11.08 11.08 0 0 1 .28 5.12c-.25 1.77-.59 2.51-2.46 2.23-4.74-.72-8-5.69-10.54-9.33 3.24.31 6.31.11 8.87-1.25a2.88 2.88 0 0 0 1.44-1.87 27.4 27.4 0 0 1 2.41 5.1z"/><path class="cls-1" d="M89.74 78h.1a4.83 4.83 0 0 1-.62.18.36.36 0 0 1 .52-.18zM89.79 81.42a3.82 3.82 0 0 1-.08.75c-.21-.44-.46-.88-.67-1.31a1.27 1.27 0 0 0-.13-.46.2.2 0 0 1 .29 0c.18.16.36.31.54.49a5.29 5.29 0 0 1 .05.53z"/><path class="cls-1" d="M89.74 80.86c-.18-.18-.36-.33-.54-.49a.2.2 0 0 0-.29 0 2.22 2.22 0 0 0-.1-.36A4.18 4.18 0 0 0 87 78.47a4.26 4.26 0 0 0 1.28 0 3.66 3.66 0 0 1 1.46 2.39zM89 80.86c.21.43.46.87.67 1.31a2.88 2.88 0 0 1-1.4 1.83c-2.56 1.36-5.63 1.56-8.87 1.25a2.13 2.13 0 0 0-.23-.33.4.4 0 0 0-.74.23c-4.05-.49-8.23-1.67-11.74-2.31a9.2 9.2 0 0 0-.92-.15 2.09 2.09 0 0 0 .21-.64c4.02.5 24.24 5.6 23.02-1.19z"/><path class="cls-1" d="M89 80.86c1.22 6.79-19 1.69-23 1.23a3 3 0 0 0 .2-.67c5.23-.2 10.74 2.16 16 2.18a12.4 12.4 0 0 0 4.59-.46c3.79-1.51-.31-4.28-2.31-5.2-6.1-2.72-11.92-5-18.61-5.49a3.68 3.68 0 0 0-.18-.59 35.45 35.45 0 0 1 10.2 1.82v.23a.45.45 0 0 0 .88.13v-.08a53.93 53.93 0 0 1 5.59 2.28c.66.34 2.25 1 3.66 1.7a.23.23 0 0 0 .08.41 3.76 3.76 0 0 0 .9.12A4.18 4.18 0 0 1 88.81 80a2.22 2.22 0 0 1 .1.36.13.13 0 0 0 0 .2z"/><path class="cls-1" d="M89 80.86l-.15-.26a.13.13 0 0 1 0-.2 1.27 1.27 0 0 1 .15.46zM88.3 78.42a4.26 4.26 0 0 1-1.28 0l-.62-.38a5.6 5.6 0 0 0 1.13-.04c.18.1.38.21.56.33s.16.04.21.09zM77.23 73.27l-.23-.08a2 2 0 0 1 .1-.38c1.31-1.59 3.41-2.64 5-3.92a36.47 36.47 0 0 1 5.3-4.08c.08 0 .18 0 .13.16a7.22 7.22 0 0 1-1.18 1.74.17.17 0 0 0-.31-.08 5.5 5.5 0 0 0-.94 1.44c-.88.77-1.8 1.48-2.7 2.18a21.69 21.69 0 0 1-4.61 3.23 2.13 2.13 0 0 0-.56-.21z"/><path class="cls-1" d="M86.86 77.58a2.85 2.85 0 0 1 .67.38 5.6 5.6 0 0 1-1.13.13l-.31-.15c.24-.16.52-.26.77-.36zM86.74 10.45a.43.43 0 0 0 .18-.54.93.93 0 0 1 .23 0c.43.08.38.62.1.82a15.38 15.38 0 0 1-1.67.85 13 13 0 0 0-1.69 1.2c-.59.52-1.13 1.08-1.66 1.64a8.11 8.11 0 0 0-.85.21c1.26-1.51 3.38-3.54 5.18-4.15a.32.32 0 0 1 .18-.03z"/><path class="cls-6" d="M84.48 77.94c2 .92 6.1 3.69 2.31 5.2a12.4 12.4 0 0 1-4.59.46c-5.28 0-10.79-2.38-16-2.18a16.67 16.67 0 0 0-.31-9c6.67.52 12.49 2.8 18.59 5.52z"/><path class="cls-1" d="M86.92 9.91a.43.43 0 0 1-.18.54.32.32 0 0 0-.18.05l-1.7.18A4.15 4.15 0 0 1 86.4 10a1.84 1.84 0 0 1 .52-.09z"/><path class="cls-1" d="M86.92 9.91a1.84 1.84 0 0 0-.52.05c-8.87 0-15.07 1.61-21.27 7.87a.27.27 0 0 0-.1-.11 1 1 0 0 0-.23-.12 24.49 24.49 0 0 1 21.6-8.21.63.63 0 0 1 .52.52zM86.86 77.58c-.25.1-.53.2-.79.33-1.41-.75-3-1.36-3.66-1.7A53.93 53.93 0 0 0 76.79 74a3.06 3.06 0 0 1 .1-.38.55.55 0 0 0 .39.1 3.39 3.39 0 0 0 .51-.2 37.7 37.7 0 0 1 5.74 2.33v.41c0 .38.59.49.67.1a1.21 1.21 0 0 1 0-.18 25.44 25.44 0 0 1 2.66 1.4zM86.38 78.09l.62.38a3.76 3.76 0 0 1-.9-.12.23.23 0 0 1-.08-.41zM86.35 66.73a.11.11 0 0 1 .05.11c-.33 1.59-.89 3.1-1.2 4.66s-.54 3.1-1 4.64a.81.81 0 0 0-.33-.15c.38-2.95.79-6.26 2.12-8.87a.07.07 0 0 1 0-.05 1.54 1.54 0 0 0 .36-.34z"/><path class="cls-1" d="M86.07 67.07a.07.07 0 0 0 0 .05l-.94.95a5.5 5.5 0 0 1 .87-1.44.17.17 0 0 1 .31.08 1.54 1.54 0 0 1-.24.36zM82.58 121.9a.43.43 0 0 0-.43.35c0 .11-.05.21-.08.31-1-.13-2.1-.2-3.13-.41-.41-.05-.41-.74 0-.82a19.8 19.8 0 0 1 3.85-.18c1 .08 2.31-.05 3.08.72a.42.42 0 0 1-.08.64 3.14 3.14 0 0 0-.23-.33 2.7 2.7 0 0 0-.26-.36c-.12-.18-.38.05-.3.23s0 0 0 .08c-.71-.08-1.46-.16-2.23-.21a.47.47 0 0 0-.19-.02z"/><path class="cls-1" d="M85.79 122.51l-.15.07a2.19 2.19 0 0 1-.31-.46h.23a3.14 3.14 0 0 1 .23.39zM85.3 122.15a2.19 2.19 0 0 0 .31.46.69.69 0 0 1-.31.13c-.1-.2-.2-.41-.31-.61a1.14 1.14 0 0 1 .28 0z"/><path class="cls-1" d="M85.27 122.15a1.14 1.14 0 0 0-.28 0v-.08c0-.08.18-.41.3-.23a2.7 2.7 0 0 1 .26.36h-.23z"/><path class="cls-1" d="M85 122.13c.11.2.21.41.31.61a4.64 4.64 0 0 1-2.13 0c0-.15 0-.33-.07-.49a.43.43 0 0 0-.34-.33c.76.08 1.51.13 2.23.21zM85.1 68.07l.94-.95C84.71 69.73 84.3 73 83.92 76a.86.86 0 0 0-.39-.18c.05-2.47.31-5.47 1.57-7.75zM84.86 10.68l1.7-.18c-1.8.61-3.92 2.64-5.18 4.15a3.53 3.53 0 0 0-.54.13.13.13 0 0 0-.1.07 11.44 11.44 0 0 1 3-3.28c.33-.28.72-.57 1.12-.89z"/><path class="cls-1" d="M86.4 10a4.15 4.15 0 0 0-1.54.72 45.75 45.75 0 0 0-9 1.38c-4.13 1.28-7.3 3.49-10.61 6.18a.37.37 0 0 0-.1-.41C71.33 11.57 77.53 10 86.4 10zM83.92 76a.81.81 0 0 1 .33.15 1.21 1.21 0 0 0 0 .18c-.08.39-.67.28-.67-.1v-.41a.86.86 0 0 1 .34.18z"/><path class="cls-6" d="M85.1 68.07c-1.26 2.28-1.52 5.28-1.57 7.74a37.7 37.7 0 0 0-5.74-2.33 21.69 21.69 0 0 0 4.61-3.23c.9-.7 1.82-1.41 2.7-2.18z"/><path class="cls-1" d="M83.17 122.74c.49 3.77-2.35 8-5 10.36s-6.66 2.38-10.12 1.82a.57.57 0 0 0-.49-.67c-.28 0-.59-.05-.84-.1 3.41.07 7.58.66 10.3-1.28 2.64-1.62 5.72-6.85 5.67-10.23.12.03.31.05.48.1z"/><path class="cls-1" d="M82.64 122.64h-.06l-.51-.08c0-.1.05-.2.08-.31a.43.43 0 0 1 .43-.35.47.47 0 0 1 .18 0 .43.43 0 0 1 .34.33c0 .16.05.34.07.49-.17-.03-.36-.05-.53-.08z"/><path class="cls-1" d="M82.64 122.64c0 3.38-3 8.61-5.67 10.23-2.72 1.94-6.89 1.35-10.3 1.28h-.13c-.33-.08-.64-.16-1-.26a.17.17 0 0 1 .15-.1c3.82-.82 8.62.69 11.72-2.38a17.43 17.43 0 0 0 4.61-8.85l.51.08zM81.38 14.65a8.11 8.11 0 0 1 .85-.21c-.18.21-.39.39-.57.57a5.53 5.53 0 0 0-.7.18z"/><path class="cls-1" d="M81.64 15c-.16.15-.29.31-.44.43a.36.36 0 0 1-.56-.43.59.59 0 0 1 .1-.16.13.13 0 0 1 .1-.07 3.53 3.53 0 0 1 .54-.13l-.44.54a5.53 5.53 0 0 1 .7-.18zM76.43 73l-.56-.15c0-8.79 3.41-17.25 2.56-26.2a.34.34 0 0 1 .18-.35c.21.07.41.12.62.2 1.87 8.25 0 18.07-2.15 26.27a1.73 1.73 0 0 0-.26.28s-.26.02-.39-.05zM78.89 85.24a2.49 2.49 0 0 1-.46 0 .4.4 0 0 1 .74-.23 2.13 2.13 0 0 1 .23.33 3.25 3.25 0 0 1-.51-.1z"/><path class="cls-1" d="M79.23 46.51c-.21-.08-.41-.13-.62-.2a.41.41 0 0 1 .62.2z"/><path class="cls-6" d="M78.43 46.66c.85 9-2.56 17.41-2.56 26.2a39.08 39.08 0 0 0-10.46-1.59.31.31 0 0 0-.41 0c-3.9-3-10.2-5-15.82-5.52a.32.32 0 0 0-.1-.2c-2.18-2.74-6.95-4.56-4.79-9 1.38-2.9 5.1-3.95 7.74-5.23v-.05a.4.4 0 0 0 .18-.46 54.3 54.3 0 0 1 3.51-11.08.56.56 0 0 0 0-.33c7.92 1 15.25 4.43 22.81 7a.34.34 0 0 0-.1.26zM67.49 56.79c1.23-2.15 2.59-5.23 1.43-7.67-1-2.23-3.33.49-4 1.49-1.54 2.18-2.92 5.44-2.3 8.15a.51.51 0 0 0 .74.34 1.3 1.3 0 0 0 1.64.43c1.13-.36 1.92-1.72 2.49-2.74z"/><path class="cls-1" d="M77.23 73.27a2.13 2.13 0 0 1 .56.21 3.39 3.39 0 0 1-.51.2.55.55 0 0 1-.39-.1 2.36 2.36 0 0 1 .11-.36zM77.1 72.81a2 2 0 0 0-.1.38.7.7 0 0 0-.18 0 1.73 1.73 0 0 1 .28-.38z"/><path class="cls-1" d="M77 73.19a2.36 2.36 0 0 0-.11.36.33.33 0 0 1-.07-.41.7.7 0 0 1 .18.05z"/><path class="cls-1" d="M76.89 73.55a3.06 3.06 0 0 0-.1.38l-.46-.15c0-.26.08-.51.1-.8.13.06.26.08.39.13a.33.33 0 0 0 .07.44zM76.33 73.81l.46.15v.08a.45.45 0 0 1-.88-.13v-.23a2.54 2.54 0 0 1 .42.13z"/><path class="cls-1" d="M76.43 73c0 .29-.07.54-.1.8a2.54 2.54 0 0 0-.44-.13v-.82zM75.87 72.86v.82a35.45 35.45 0 0 0-10.2-1.82c0-.15-.1-.31-.15-.44s-.05-.12-.13-.15a39.08 39.08 0 0 1 10.48 1.59zM69.85 109.26a.47.47 0 0 1 .43.64 3.74 3.74 0 0 1-.8-.26.37.37 0 0 1-.23-.2 2.6 2.6 0 0 1 .36-.13.18.18 0 0 0 .13 0 .11.11 0 0 1 .11-.05z"/><path class="cls-1" d="M61.59 132.61a3.93 3.93 0 0 0-1 .23 4.8 4.8 0 0 1-.51-.59c-.8-1-1.72-2.13-2.57-3.36a5.37 5.37 0 0 0 .41-.51c.16-.2-.12-.43-.33-.33a5 5 0 0 0-.49.28 15.15 15.15 0 0 1-2.2-4.49c-.77-3.1.95-5 3-6.92a5.18 5.18 0 0 0 2.67-1.51.5.5 0 0 0 0-.74 25.84 25.84 0 0 1 8.71-5.23.37.37 0 0 0 .23.2 3.74 3.74 0 0 0 .8.26.46.46 0 0 1-.31.38c-4.64 1.93-16.56 9-12.38 15.33 2.21 3.34 4.18 7.08 8 8.28a.36.36 0 0 0 .15.57c.49.12 1 .23 1.52.33a6.53 6.53 0 0 1-4.34-1.1.6.6 0 0 0-.28-1 2.14 2.14 0 0 0-1.08-.08zM69.89 109.23a.11.11 0 0 0-.08 0 .06.06 0 0 0-.08 0 .35.35 0 0 1-.38-.36.27.27 0 0 0 0-.15.47.47 0 0 1 .41-.16h.39v.44a.4.4 0 0 1-.26.23z"/><path class="cls-1" d="M70 108.67h-.39a33 33 0 0 0-.51-4.79.56.56 0 0 0-.13-.79q-.19-1.08-.36-2.16a.71.71 0 0 0 .39.21h.25a65.26 65.26 0 0 1 .75 7.53zM69.77 109.28a.18.18 0 0 1-.13 0 .06.06 0 0 1 .13 0z"/><path class="cls-1" d="M69.61 108.64a.47.47 0 0 0-.41.16 37.91 37.91 0 0 0-.64-4.49A1.49 1.49 0 0 0 69 104a.39.39 0 0 0 .08-.1 33 33 0 0 1 .53 4.74zM69.61 109.31a2.6 2.6 0 0 0-.36.13.6.6 0 0 1 0-.64.27.27 0 0 1 0 .15.35.35 0 0 0 .36.36zM69.18 100.57c0 .18 0 .36.07.56H69a.71.71 0 0 1-.39-.21c0-.18 0-.38-.08-.59A.55.55 0 0 1 69 100h.1c.03.21.05.39.08.57zM69 103.06a.56.56 0 0 1 .13.79c-.08-.28-.13-.54-.13-.79z"/><path class="cls-8" d="M69.2 108.8a.6.6 0 0 0 0 .64 25.84 25.84 0 0 0-8.71 5.23.53.53 0 0 0-.51-.16 15.15 15.15 0 0 1-18.87-14.38c-.33-11 10.48-15.81 19.35-11.56-2.25 1.29-4.3 3.41-4.4 6.13-.16 4.77 7.58 13.38 12.45 9.61a37.91 37.91 0 0 1 .69 4.49z"/><path class="cls-1" d="M68.92 49.12c1.16 2.44-.2 5.52-1.43 7.67-.57 1-1.36 2.38-2.54 2.74a1.3 1.3 0 0 1-1.64-.43.54.54 0 0 0 .38-.52c1.92 2 5.51-5.69 5.31-7.74-.82-6.59-6.69 3.41-5.92 7.54a.43.43 0 0 0 .05.21.79.79 0 0 0 .18.49.51.51 0 0 1-.74-.34c-.62-2.71.76-6 2.3-8.15.72-.98 3-3.7 4.05-1.47zM68.44 103.57a4.48 4.48 0 0 1-.11-.62.58.58 0 0 1 .64.11c0 .25.08.51.13.79a.39.39 0 0 1-.08.1 1.49 1.49 0 0 1-.46.36c-.05-.25-.07-.51-.12-.74z"/><path class="cls-1" d="M68.51 100.31a.63.63 0 0 0 .08.59q.17 1.08.36 2.16a.58.58 0 0 0-.64-.11 40.21 40.21 0 0 1-.82-6.53c-.05-2.23-.1-4.41-.28-6.59a42.35 42.35 0 0 0-1-6.36.43.43 0 0 1 .43-.54.44.44 0 0 1 .41.31c1.44 4.41 1.36 8.61 1.64 13.18.08 1.2.21 2.41.36 3.61H69a.55.55 0 0 0-.49.28zM69 50.84c.2 2-3.39 9.69-5.31 7.74s0-.05 0-.1-.08-.34-.11-.52h.11a1.41 1.41 0 0 0 1.61-.33 10.51 10.51 0 0 0 1.8-2.53c.85-1.52 2.26-4.05 1.05-5.74-1-1.47-3 2.64-3.3 3.28a11.25 11.25 0 0 0-1.29 5.3.48.48 0 0 0-.48.44c-.77-4.13 5.1-14.13 5.92-7.54z"/><path class="cls-1" d="M68.51 100.31c0 .21 0 .41.08.59a.63.63 0 0 1-.08-.59zM68.44 103.57c0 .23.07.49.12.74-4.87 3.77-12.56-4.84-12.45-9.61.1-2.72 2.15-4.84 4.4-6.13a3.42 3.42 0 0 1 .64.31h.06c-2.39 1.23-4.49 3.71-4.39 5.79.18 4.33 7 12.23 11.62 8.9z"/><path class="cls-1" d="M62 88.52a.48.48 0 0 0-.2-.54c1.92-.69 5-.64 5.36 1.82 0 .18-.18.38-.36.26-1-.82-1.92-1.75-3.41-1.36a7.51 7.51 0 0 0-3.18 1.61C58.52 91.75 57 93.6 57.8 95.9c1.38 4.13 5.74 9.21 10.46 7h.07a4.48 4.48 0 0 0 .11.62C63.82 106.9 57 99 56.82 94.7c-.1-2.08 2-4.56 4.39-5.79a.54.54 0 0 0 .74-.36zM68.15 49.36c1.21 1.69-.2 4.22-1.05 5.74a10.51 10.51 0 0 1-1.82 2.51 1.41 1.41 0 0 1-1.61.33h-.11a11.25 11.25 0 0 1 1.29-5.3c.28-.64 2.28-4.75 3.3-3.28z"/><path class="cls-8" d="M68.33 103h-.07c-4.72 2.16-9.08-2.92-10.46-7-.8-2.3.72-4.15 2.38-5.56a7.51 7.51 0 0 1 3.18-1.61c1.49-.39 2.36.54 3.41 1.36.18.12.36-.08.36-.26h.1c.18 2.18.23 4.36.28 6.59a40.21 40.21 0 0 0 .82 6.48z"/><path class="cls-1" d="M67.26 134.79c-.52-.1-1-.21-1.52-.33a.36.36 0 0 1-.15-.57c.31.1.62.18 1 .26h.13c.25 0 .56.07.84.1a.57.57 0 0 1 .49.67z"/><path class="cls-1" d="M67.26 134.79l.74.13c0 .15-.1.28-.34.33a7.46 7.46 0 0 1-5.5-1.05 7.29 7.29 0 0 0 .74-.49 6.53 6.53 0 0 0 4.36 1.08zM65.87 72.45a16.67 16.67 0 0 1 .31 9 5 5 0 0 0-.67 0 .41.41 0 0 0-.18 0c.88-2.87.51-6.23 0-9.08a2.74 2.74 0 0 1 .54.08zM66 82.09a2.09 2.09 0 0 1-.21.64l-.41-.08a.46.46 0 0 1-.36-.23c.13-.31.23-.61.33-.92a.41.41 0 0 1 .18 0 5 5 0 0 1 .67 0 3 3 0 0 1-.2.59z"/><path class="cls-1" d="M65.69 71.86a3.68 3.68 0 0 1 .18.59 2.74 2.74 0 0 0-.51 0v-.3a.34.34 0 0 0 .13-.28 1.1 1.1 0 0 1 .2-.01zM65 82.42a.46.46 0 0 0 .36.23l.41.08a.61.61 0 0 1 0 .18.84.84 0 0 1-1.62 0 1 1 0 0 0 .18-.18.46.46 0 0 0 0-.64c1.28-3.2.69-6.35.62-9.64a.15.15 0 0 0 .1 0 .92.92 0 0 0 .25.05.41.41 0 0 1 .16 0c.48 2.85.85 6.21 0 9.08a.65.65 0 0 0-.46.84z"/><path class="cls-1" d="M65.69 71.86a1.1 1.1 0 0 0-.25 0 .32.32 0 0 0-.16-.39c-.08 0-.13-.1-.2-.15s.07 0 .12 0h.21c.08 0 .1.08.13.15s.1.24.15.39z"/><path class="cls-1" d="M64.85 71.81v-.28a.44.44 0 0 1 0-.16.3.3 0 0 1 .21-.07c.07 0 .12.1.2.15a.32.32 0 0 1 .16.39h-.18v.28a.52.52 0 0 1-.36.23s-.08 0-.1-.08z"/><path class="cls-1" d="M65.26 71.84h.18a.34.34 0 0 1-.13.28c-.03-.12-.03-.21-.05-.28zM65.41 71.27H65a.31.31 0 0 1 .41 0zM65.31 72.12v.3a.41.41 0 0 0-.16 0 .92.92 0 0 1-.25-.05.52.52 0 0 0 .41-.25zM65.33 81.5c-.1.31-.2.61-.33.92a.65.65 0 0 1 .33-.92zM65.13 17.83a.37.37 0 0 1 .1.41l-.18.15a.36.36 0 0 1-.59-.38 1.31 1.31 0 0 1 .34.13 2.34 2.34 0 0 1 .33-.31z"/><path class="cls-1" d="M65.05 18.39l.18-.15a.46.46 0 0 1-.56.33c-3-.61-5.9-1.59-8.82-2.46a16.7 16.7 0 0 1-3.51-1.28c-.13-.34-.26-.69-.36-1.05a49.47 49.47 0 0 0 5.48 1.89c2.31.85 4.75 1.36 7 2.34a.36.36 0 0 0 .59.38z"/><path class="cls-1" d="M65.13 17.83a2.34 2.34 0 0 0-.33.31 1.31 1.31 0 0 0-.34-.13.2.2 0 0 1 .08-.13 1.16 1.16 0 0 1 .26-.28 1 1 0 0 1 .23.12.27.27 0 0 1 .1.11zM65 71.25h.08a.3.3 0 0 0-.21.07c.03-.02.13-.07.13-.07z"/><path class="cls-1" d="M65 71.25s-.1 0-.13.12a.52.52 0 0 0-.23.36 55.43 55.43 0 0 0-16.22-5.15h.23a.58.58 0 0 0 .53-.82c5.62.49 11.92 2.49 15.82 5.49zM65 72.35a.15.15 0 0 1-.1 0v-.1s.02.07.1.1z"/><path class="cls-1" d="M64.87 71.37a.44.44 0 0 0 0 .16v.28l-.21-.08a.52.52 0 0 1 .21-.36z"/><path class="cls-4" d="M64.85 72.37c.07 3.29.66 6.44-.62 9.64a.44.44 0 0 0-.28-.08c-3.67.16-7.31 1.49-11.13 1.62-3.17.1-6.43-.21-9.61.15.23-2.82.44-5.64.69-8.46.23-2.33 1-5.45.31-7.84a.76.76 0 0 0 .28-.54 85.94 85.94 0 0 1 9.15 1.64c3.8 1 7.31 3.1 11.1 3.87z"/><path class="cls-1" d="M64.85 72.27v.1h-.11c-3.79-.77-7.3-2.87-11.1-3.87a85.94 85.94 0 0 0-9.15-1.64.53.53 0 0 0-.1-.33 1.64 1.64 0 0 0-.23-.28c1.18 0 2.36.1 3.54.23a2.57 2.57 0 0 0 .62.08h.05a55.43 55.43 0 0 1 16.22 5.15.7.7 0 0 0 .26.56z"/><path class="cls-1" d="M64.85 71.81v.46a.7.7 0 0 1-.21-.54zM64.8 17.6a1.16 1.16 0 0 0-.26.28.2.2 0 0 0-.08.13c-2.25-1-4.69-1.49-7-2.34A49.47 49.47 0 0 1 52 13.78c-.08-.23-.16-.46-.23-.72a32.52 32.52 0 0 1 5.94 1.72c2.37.89 4.93 1.46 7.09 2.82zM64.23 82a.46.46 0 0 1 0 .64 1 1 0 0 1-.18.18.86.86 0 0 1 .06-.62c.07-.03.1-.09.12-.2z"/><path class="cls-1" d="M43.19 84.22a4.52 4.52 0 0 0 0-.52c3.18-.36 6.44 0 9.61-.15 3.82-.13 7.46-1.46 11.13-1.62a.44.44 0 0 1 .28.08c0 .07 0 .13-.07.2a.86.86 0 0 0-.06.62c-2.28 2.25-7 2.18-10 2.25a59.9 59.9 0 0 1-11-.38 4.4 4.4 0 0 0 .11-.48zM63.69 58.56a.54.54 0 0 1-.38.52.79.79 0 0 1-.18-.49l.41-.21a.78.78 0 0 0 .15.18z"/><path class="cls-1" d="M63.67 58.46v.1a.78.78 0 0 1-.15-.16l-.41.21a.43.43 0 0 1-.05-.21.48.48 0 0 1 .48-.44c.05.16.1.32.13.5zM62.39 133.3a5.73 5.73 0 0 1-.8-.69 2.14 2.14 0 0 1 1 .1.6.6 0 0 1 .28 1c-.15-.15-.33-.28-.48-.41z"/><path class="cls-1" d="M62.9 133.69a7.29 7.29 0 0 1-.74.49 4.81 4.81 0 0 1-.88-.64 5 5 0 0 1 1.11-.26c.15.15.33.28.51.41zM61.18 88.24a.54.54 0 0 1 .18-.1 2.5 2.5 0 0 1 .41-.16.48.48 0 0 1 .2.54 3.38 3.38 0 0 0-.74.36h-.06a3.42 3.42 0 0 0-.64-.31 7 7 0 0 1 .65-.33z"/><path class="cls-1" d="M61.59 132.61a5.73 5.73 0 0 0 .8.69 5 5 0 0 0-1.11.26 4.83 4.83 0 0 1-.71-.72 3.93 3.93 0 0 1 1.02-.23zM61.72 87.91s.05 0 .05.07a2.5 2.5 0 0 0-.41.16.54.54 0 0 0-.18.1c-9.59-6-20.5.26-20.92 11.89-.23 6.51 3.57 12 9.64 14.49 2.85 1 7.21 2.41 10 .61-.26.23-.52.44-.77.67l-1.18 1c-4 1-9.41-1.66-12.3-3.66-4.82-3.24-6.65-9.06-6.18-14.59a14.22 14.22 0 0 1 22.25-10.74z"/><path class="cls-1" d="M62 88.55a.54.54 0 0 1-.74.36 3.38 3.38 0 0 1 .74-.36zM61.28 133.56a4.81 4.81 0 0 0 .88.64c-1.11.59-2.49.9-3.59 1.59-1.87 1.15-3.67 2.43-5.57 3.51-1 .59-4.17 2.49-5.64 1.59a.45.45 0 0 0 .18-.1q.2-.16.39-.36c3.51.15 9.41-5.49 13.35-6.87zM61.18 88.24a7 7 0 0 0-.67.33c-8.87-4.25-19.68.59-19.35 11.56A15.15 15.15 0 0 0 60 114.51a.53.53 0 0 1 .51.16l-.69.56c-2.74 1.8-7.1.39-10-.61-6.07-2.52-9.87-8-9.64-14.49.5-11.63 11.41-17.91 21-11.89zM60.44 25.93a2.37 2.37 0 0 0-.41-.49c.36-.49 1.26-.23 1.08.38a.53.53 0 0 0-.18-.05c-.28 0-.46.34-.2.49l.18.1c-.8 2-2 3.87-2.92 5.85a42.68 42.68 0 0 0-2.13 6 7.13 7.13 0 0 0-.8 0c.57-4.38 3.21-8 5.23-11.92a1.57 1.57 0 0 0 .29.16c.07 0 .18-.05.1-.13s-.17-.32-.24-.39z"/><path class="cls-1" d="M61 26a.56.56 0 0 1-.1.28l-.18-.1c-.26-.15-.08-.51.2-.49a.53.53 0 0 1 .18.05v.06c0 .06-.05.12-.07.2zM60.34 26.08a.65.65 0 0 0 .1-.15c.07.1.15.2.23.33s0 .15-.1.13a1.57 1.57 0 0 1-.29-.16c.03-.07.06-.1.06-.15zM59.85 115.23l.69-.56a.5.5 0 0 1 0 .74 5.18 5.18 0 0 1-2.67 1.51l1.18-1c.28-.25.54-.46.8-.69zM60.57 132.84a4.83 4.83 0 0 0 .71.72c-3.94 1.38-9.84 7-13.35 6.87a7 7 0 0 0 .82-.9 5.59 5.59 0 0 0 1.77-.49 48.59 48.59 0 0 0 4.84-3c1.16-.74 3.28-2.54 5.18-3.23z"/><path class="cls-4" d="M60 132.25a4.8 4.8 0 0 0 .51.59c-1.9.69-4 2.49-5.18 3.23a48.59 48.59 0 0 1-4.84 3 5.59 5.59 0 0 1-1.77.49c1.36-1.56 2.41-3.56 3.69-5.1 1.59-1.92 3.46-3.59 5-5.54.9 1.2 1.82 2.36 2.59 3.33z"/><path class="cls-1" d="M60.44 25.93a.65.65 0 0 1-.1.15c-.16-.15-.31-.28-.47-.41l.16-.23a2.37 2.37 0 0 1 .41.49z"/><path class="cls-1" d="M60.34 26.08c0 .05 0 .08-.06.13a3.16 3.16 0 0 1-.56-.33c.05-.08.1-.13.15-.21.13.13.31.26.47.41z"/><path class="cls-1" d="M60.28 26.21c-2 3.88-4.66 7.54-5.23 11.92h-.38a.45.45 0 0 0-.33.13c-.18-4.25 3-9 5.38-12.4a3.16 3.16 0 0 0 .56.35zM60 25.41l-.16.23c-3.76-3.43-7-6.2-8.4-11.48a4.25 4.25 0 0 0 .87.64 20.41 20.41 0 0 0 3.82 6.28c1.33 1.46 2.74 2.8 3.87 4.33z"/><path class="cls-1" d="M51.18 13a.35.35 0 0 0-.33.54 3.71 3.71 0 0 0 .59.66c1.38 5.28 4.64 8 8.4 11.48 0 .08-.1.13-.15.21a18.12 18.12 0 0 1-9-12.87c-.1-.62.8-.92 1-.26a1.92 1.92 0 0 0 .11.31 3 3 0 0 0-.49-.1zM57.26 128.61a2.27 2.27 0 0 1-.21-.28 5 5 0 0 1 .49-.28c.21-.1.49.13.33.33a5.37 5.37 0 0 1-.41.51 1.18 1.18 0 0 1-.2-.28z"/><path class="cls-1" d="M57.26 128.61a1.18 1.18 0 0 0 .2.28c-1.56 2-3.43 3.62-5 5.54-1.28 1.54-2.33 3.54-3.69 5.1-.38.1-.77.16-1.16.28a52 52 0 0 1 9.65-11.2z"/><path class="cls-1" d="M57.05 128.33a2.27 2.27 0 0 0 .21.28 52 52 0 0 0-9.67 11.2 2.34 2.34 0 0 0-.71.26c-.08 0-.1.15-.05.23a1.25 1.25 0 0 0 .51.59.51.51 0 0 1-.67-.61c.59-2.49 3.1-5 4.8-6.82a25.93 25.93 0 0 1 5.58-5.13zM55.05 38.15a7.13 7.13 0 0 1 .8 0 3.8 3.8 0 0 1-.18.54 4.86 4.86 0 0 0-.67 0 4.93 4.93 0 0 1 .05-.54zM55.8 39.36a.56.56 0 0 1 0 .33 54.3 54.3 0 0 0-3.51 11.08.49.49 0 0 0-.44-.39c.11-3.8 1.7-7.39 3.31-10.82a.41.41 0 0 0 .31-.23 1.21 1.21 0 0 1 .33.03z"/><path class="cls-1" d="M55.8 39.36a1.21 1.21 0 0 0-.34 0 1.19 1.19 0 0 0 .08-.16v-.1a.44.44 0 0 1 .26.26zM55.67 38.72a2.07 2.07 0 0 1-.1.33.64.64 0 0 0-.57-.15v-.21a4.86 4.86 0 0 1 .67.03z"/><path class="cls-1" d="M55 38.9a.64.64 0 0 1 .59.15v.1a1.19 1.19 0 0 1-.08.16c-.26-.05-.51-.08-.77-.11h-.05a.49.49 0 0 1 .31-.3zM55.13 39.54a.55.55 0 0 1-.59-.21s0-.08.05-.11 0 0 .05 0c.26 0 .51.06.77.11a.41.41 0 0 1-.28.21z"/><path class="cls-1" d="M54.54 39.33a.55.55 0 0 0 .59.21c-1.61 3.43-3.2 7-3.31 10.82a.39.39 0 0 0-.15 0 2.42 2.42 0 0 0-.36.1c-.38-3.9 1.41-7.69 3.23-11.13zM55 38.69v.21a.49.49 0 0 0-.36.28.44.44 0 0 1-.15 0 .19.19 0 0 1 0-.13 5.81 5.81 0 0 1 0-.72.45.45 0 0 1 .33-.13h.38a4.93 4.93 0 0 0-.2.49z"/><path class="cls-1" d="M54.59 39.18s0 .08-.05.11a.21.21 0 0 1-.1-.18.44.44 0 0 0 .15.07zM54.39 39a.19.19 0 0 0 0 .13.51.51 0 0 1-.1-.85 5.81 5.81 0 0 0 .1.72zM52.26 50.77a.4.4 0 0 1-.18.46.7.7 0 0 0 .13-.26 1.94 1.94 0 0 0 .05-.2z"/><path class="cls-1" d="M52.26 50.77a1.94 1.94 0 0 1 0 .2.7.7 0 0 1-.13.26.52.52 0 0 1-.69-.23l.41-.16a3.54 3.54 0 0 1 0-.46.49.49 0 0 1 .41.39z"/><path class="cls-1" d="M52.08 51.23v.05c-2.64 1.28-6.36 2.33-7.74 5.23-2.16 4.46 2.61 6.28 4.79 9a.32.32 0 0 1 .1.2 9.92 9.92 0 0 0-1.23-.05 11.81 11.81 0 0 1-4.76-6.21C42.37 55 47.8 52.3 51.39 51a.52.52 0 0 0 .69.23zM52 13.78c.1.36.23.71.36 1.05a4.25 4.25 0 0 1-.87-.64c0-.25-.13-.54-.18-.82a4.6 4.6 0 0 0 .69.41z"/><path class="cls-1" d="M51.75 13.06c.07.26.15.49.23.72a4.6 4.6 0 0 1-.72-.44c0-.13 0-.25-.08-.38h.08a3 3 0 0 1 .49.1zM51.82 50.36a3.54 3.54 0 0 0 0 .46l-.41.16a.37.37 0 0 1 0-.16v-.36a2.42 2.42 0 0 1 .36-.1.39.39 0 0 1 .05 0z"/><path class="cls-9" d="M51.36 27a.87.87 0 0 1-.2 1.57c-3.21.82-7.36.89-10.2 2.66-3.18 2 0 7.74.69 10.18a.92.92 0 0 1-1.34 1c-5-2.25-5.45-2.66-7.27 2.8A88.67 88.67 0 0 1 29.7 54a.79.79 0 0 1-1.38 0 46 46 0 0 0-5.56-8.69c-2.57-3.33-2.62-4.74-6.44-1.56-3.38 2.82-6.66 5.71-11.15 6.41a.86.86 0 0 1-1-1.06 69.5 69.5 0 0 1 3.52-10.23c.66-1.56 4.28-6.3 1.3-7.18-1.51-.43-3-.87-4.53-1.28A.87.87 0 0 1 4.07 29a10.36 10.36 0 0 1 6.15-2.3 1 1 0 0 0 .9.64v.15a9.69 9.69 0 0 0-5.63 1.44l-.54-.16c0 .16.07.33.12.49a2.39 2.39 0 0 0-.35.36c.15.05.3.07.48.13s.08.33.13.48c.26-.07.51-.18.77-.25 1.77.51 3.67 1.07 5.56 1.51-2 5.59-5 11.15-6.46 17a3.78 3.78 0 0 1-.46.1l.36.36a3.92 3.92 0 0 0-.13.49 2 2 0 0 0 .54-.08c.1.1.21.2.31.31a1.61 1.61 0 0 1 .1-.36c5-.9 9.74-6.72 14-9.23 1.34 2.15 3.16 4.36 4.87 6.61a37.67 37.67 0 0 1 3.77 6l-.31.87a4.49 4.49 0 0 0 .64-.1 2.88 2.88 0 0 1 .13.31 2.37 2.37 0 0 0 .13-.34l.56-.07c-.1-.21-.18-.41-.28-.59 1.92-4.75 3.2-9.51 4.95-14.26 1.74.9 3.51 1.95 5.28 2.72a3.29 3.29 0 0 1 .25.75 4.13 4.13 0 0 1 .55-.41 2.41 2.41 0 0 0 .33.15c0-.1-.05-.21-.1-.34.17-.15.38-.28.56-.43-.26-.13-.54-.23-.79-.38-.88-2.72-2.7-7.11-1.54-8.72 1.43-2.13 7.66-3 10.91-3.74.24.13.47.31.7.46 0-.21 0-.44.08-.64l.33-.07-.31-.24c0-.2.05-.38.08-.58L50 27c-3.71-2.72-7.69-3.77-11.63-5.74C39.7 14.85 41.85 7.37 41.57.7a154.06 154.06 0 0 1-13.35 9.87c-1.33-1.57-2.16-4.25-3.49-6.4-1.33 2.4-2.13 5.89-2.95 8.83-4.53-.25-9.35-2.66-13.89-1.87 1.33 4.56 1.08 10.72 3.49 15l-.11.51a.47.47 0 0 0-.18 0 6.11 6.11 0 0 0-.87.08 3.23 3.23 0 0 1-.13-.57 109.47 109.47 0 0 0-2.81-14.86.66.66 0 0 1 .61-.82c3.62-.33 6.64.49 10.15 1.18 4.61.92 4.59-4.82 6.05-7.87a.75.75 0 0 1 1.28 0c1.92 3.54 2.1 6.61 6.36 3.54C34.91 5 38 2.65 41.06.19a.72.72 0 0 1 1.23.51c.05 5.75-1 11.23-2.28 16.82-1.1 5.05 7.74 6.82 11.35 9.48z"/><path class="cls-1" d="M51.26 13.34c.05.28.13.57.18.82a3.71 3.71 0 0 1-.59-.66.35.35 0 0 1 .33-.54c.03.13.06.25.08.38zM51.34 50.84a.37.37 0 0 0 0 .16c-3.59 1.3-9 4-8.2 8.45A11.81 11.81 0 0 0 48 65.66h-1.84c-2.21-1.8-4-5.72-3.59-7.72.79-3.92 5.15-6.43 8.79-7.41-.05.08-.02.18-.02.31z"/><path class="cls-9" d="M50.93 27.7l-.33.07v-.31zM50.7 26.88c0 .2-.05.38-.08.58A4.93 4.93 0 0 0 50 27z"/><path class="cls-9" d="M50.62 27.46v.31c-.24.05-.49.13-.78.18a8.52 8.52 0 0 0-1-.69c.4-.08.84-.16 1.22-.26a4.93 4.93 0 0 1 .56.46zM50.6 27.8c0 .2-.06.43-.08.64-.23-.15-.46-.33-.7-.46.29-.05.54-.13.78-.18z"/><path class="cls-1" d="M48 65.66a9.92 9.92 0 0 1 1.23.07.58.58 0 0 1-.53.82h-.28a2.7 2.7 0 0 0-.62-.08 4 4 0 0 1-1.59-.87c.49.01 1.1.03 1.79.06z"/><path class="cls-9" d="M50 27c-.38.1-.82.18-1.22.26C45.34 25.13 41.62 23.72 38 22a.86.86 0 0 1-.39-.92c1.31-5.95 3.31-12.2 3.28-18.33 0-.59-4.38 2.9-4.53 3-2.54 1.9-5.1 3.72-7.75 5.46a.73.73 0 0 1-1-.25c-.83-1.23-2.44-6.74-3.52-3.28q-.79 2.73-1.56 5.51a.72.72 0 0 1-.72.54c-1.94-.23-13.2-3-12.84-1 .67 3.82.44 9.53 3.33 12.45a1.17 1.17 0 0 1-.41 2 .63.63 0 0 0-.59-.57l.11-.51C9 21.83 9.22 15.67 7.89 11.11c4.54-.79 9.36 1.62 13.89 1.87.82-2.92 1.62-6.41 2.95-8.81 1.33 2.15 2.16 4.81 3.49 6.4A154.06 154.06 0 0 0 41.57.7c.28 6.67-1.87 14.15-3.2 20.59C42.31 23.26 46.29 24.31 50 27zM48.78 27.29a8.52 8.52 0 0 1 1 .69c-3.25.72-9.48 1.61-10.91 3.74-1.16 1.61.66 6 1.54 8.72-.42-.18-.83-.36-1.24-.57-1.1-2.84-2.74-6.92-.92-8.79 2.66-2.67 6.86-3.08 10.53-3.79z"/><path class="cls-1" d="M48.75 139.53a7 7 0 0 1-.82.9 2.6 2.6 0 0 1-.64-.13 2.94 2.94 0 0 1 .3-.49c.41-.12.78-.18 1.16-.28z"/><path class="cls-1" d="M47.29 140.3a2.6 2.6 0 0 0 .64.13q-.2.19-.39.36a.45.45 0 0 1-.18.1 1.25 1.25 0 0 1-.51-.59c0-.08 0-.21.05-.23a2.34 2.34 0 0 1 .71-.26 2.94 2.94 0 0 0-.32.49zM47.75 66.5a2.7 2.7 0 0 1 .62.08 2.57 2.57 0 0 1-.62-.08zM46.11 65.61a4 4 0 0 0 1.59.87c-1.18-.13-2.36-.21-3.54-.23a1.83 1.83 0 0 0-.46-.46h.13q1.08-.15 2.28-.18z"/><path class="cls-2" d="M48.78 27.29c-3.67.69-7.87 1.12-10.49 3.79-1.82 1.87-.18 6 .92 8.79-1.48-.72-3-1.49-4.4-2.25a.89.89 0 0 0-1.31.53c-1.59 4.44-3.08 9-4.62 13.44-2.28-4.31-5.51-8-8.23-12a.83.83 0 0 0-1.15-.3c-4.56 2.82-8.12 7.43-13.33 8.92 1.57-5.69 4.08-11.08 6.31-16.51a.87.87 0 0 0-.62-1.08l-4.28-1.18 3.51-1.15a.86.86 0 0 0 .77-1.13 1.17 1.17 0 0 0 .41-2c-2.89-2.92-2.66-8.63-3.33-12.45-.36-2 10.9.77 12.84 1a.72.72 0 0 0 .72-.54q.77-2.78 1.56-5.51c1.08-3.46 2.69 2.05 3.52 3.28a.73.73 0 0 0 1 .25c2.65-1.74 5.21-3.56 7.75-5.46.15-.12 4.53-3.61 4.53-3 0 6.13-2 12.38-3.28 18.33A.86.86 0 0 0 38 22c3.62 1.72 7.34 3.13 10.78 5.29z"/><path class="cls-1" d="M44.16 66.25a1.64 1.64 0 0 1 .23.28.53.53 0 0 1 .1.33l-.49-.07a.17.17 0 0 0-.28-.06l-.26-.18a.56.56 0 0 1 .31-.74 1.83 1.83 0 0 1 .39.44zM44 66.79l.51.07a.76.76 0 0 1-.28.54 5.1 5.1 0 0 0-.2-.59l-.03-.02zM44.21 67.4c.69 2.39-.08 5.51-.31 7.84-.25 2.82-.46 5.64-.69 8.46a8 8 0 0 0-.87.11c.26-5.39 1.36-12 1.46-16.26a.59.59 0 0 0 .41-.15z"/><path class="cls-1" d="M44 66.81a5.1 5.1 0 0 1 .2.59.59.59 0 0 1-.41.15 5.16 5.16 0 0 0 0-.67.7.7 0 0 0-.16-.1l.28.06.09-.03zM44 66.79l-.28-.06a.17.17 0 0 1 .28.06z"/><path class="cls-1" d="M43.83 66.86a5.16 5.16 0 0 1 0 .67.27.27 0 0 1-.15 0 1.6 1.6 0 0 1-.23-.1 2.87 2.87 0 0 1 .23-.64.7.7 0 0 1 .15.07z"/><path class="cls-1" d="M43.8 67.53c-.1 4.21-1.2 10.87-1.46 16.26h-.18c-.38.08-.38.72 0 .77h.15v.64a.49.49 0 0 0-.33-.13 3.93 3.93 0 0 0-.49 0A63.62 63.62 0 0 1 42.34 75c.33-2.36.23-5.33 1.08-7.64a1.6 1.6 0 0 0 .23.1.27.27 0 0 0 .15.07z"/><path class="cls-1" d="M43.67 66.73a2.87 2.87 0 0 0-.23.64c-1.13-.54-2-1.38-3.21-1.74a15.51 15.51 0 0 0-4-.51.06.06 0 0 0 0-.06 2.48 2.48 0 0 0-.23-.36 10.3 10.3 0 0 1 7.41 1.82.4.4 0 0 0 .26.18s-.02.03 0 .03z"/><path class="cls-1" d="M43.39 66.53l.26.18a.4.4 0 0 1-.26-.18zM43.7 65.79a.56.56 0 0 0-.31.74A10.3 10.3 0 0 0 36 64.71a2.85 2.85 0 0 0-.26-.41c2.26-.51 5.99-.23 7.96 1.49zM43.21 83.7a4.52 4.52 0 0 1 0 .52h-.85a1.87 1.87 0 0 1 0-.41 8 8 0 0 1 .85-.11zM43.19 84.22a4.4 4.4 0 0 1 0 .51c-.29 0-.54 0-.83-.1a1.84 1.84 0 0 1 0-.41z"/><path class="cls-1" d="M43.14 84.73c0 .36-.06.69-.08 1a.78.78 0 0 1-1 .72 1 1 0 0 0 .36-.29.58.58 0 0 0-.13-.94v-.64c.31.1.56.12.85.15z"/><path class="cls-1" d="M42.29 85.27a.58.58 0 0 1 .13.94 1 1 0 0 1-.36.29.66.66 0 0 1-.51-.57.27.27 0 0 1 0-.15v-.62a3.93 3.93 0 0 1 .49 0 .49.49 0 0 1 .25.11z"/><path class="cls-8" d="M43.42 67.4c-.85 2.31-.75 5.28-1.08 7.64a63.62 63.62 0 0 0-.87 10.12c-.92 0-1.82.34-2.74.41a9.37 9.37 0 0 1-2.64-.17.46.46 0 0 0 0-.34.53.53 0 0 0 .33-.54c.08-3.35-.08-6.71-.1-10.07 0-2.92.64-6.33 0-9.2 0 0 0-.08-.08-.1a15.51 15.51 0 0 1 4 .51c1.23.34 2.05 1.2 3.18 1.74z"/><path class="cls-1" d="M42.34 84.22a1.84 1.84 0 0 0 0 .41h-.15c-.38 0-.38-.69 0-.77h.18a1.87 1.87 0 0 0-.03.36zM35.45 86.09a9.85 9.85 0 0 0 6-.13.66.66 0 0 0 .51.57c-1.92 1.51-5.64 1-7.53-.13l-.06-.05A7.58 7.58 0 0 0 35 85a.35.35 0 0 0 .21-.07.65.65 0 0 0 .51.28l-.11.08c-.2 0-.38-.11-.58-.16a2.13 2.13 0 0 0 .18.41.73.73 0 0 0-.39.23 3.46 3.46 0 0 0 .56.23s.04.06.07.09z"/><path class="cls-1" d="M41.49 85.78a.27.27 0 0 0 0 .15 9.85 9.85 0 0 1-6 .13 4.1 4.1 0 0 1 .56-.61 9.37 9.37 0 0 0 2.64.17c.92-.07 1.82-.38 2.74-.41.04.16.06.36.06.57z"/><path class="cls-9" d="M41.24 40.82c-.18.15-.39.28-.56.43a9.5 9.5 0 0 0-.23-.81c.25.15.55.25.79.38zM40.68 41.25c0 .13.07.24.1.34a2.41 2.41 0 0 1-.33-.15 1.37 1.37 0 0 1 .23-.19z"/><path class="cls-9" d="M40.68 41.25a1.37 1.37 0 0 0-.23.19 5.05 5.05 0 0 1-.8-.34 11.73 11.73 0 0 0-.44-1.23c.41.21.82.39 1.24.57.1.3.17.56.23.81z"/><path class="cls-9" d="M40.45 41.44a4.13 4.13 0 0 0-.55.41 3.29 3.29 0 0 0-.25-.75 5.05 5.05 0 0 0 .8.34zM39.21 39.87a11.73 11.73 0 0 1 .44 1.23c-1.77-.77-3.54-1.82-5.28-2.72-1.75 4.75-3 9.51-4.95 14.26a11.51 11.51 0 0 0-.54-1c1.54-4.49 3-9 4.62-13.44a.89.89 0 0 1 1.31-.53c1.45.71 2.92 1.48 4.4 2.2z"/><path class="cls-1" d="M35.78 83.14c.08-.1.15-.23.23-.33a.29.29 0 0 0-.23-.41c-.05-5.64-.23-12.26.25-16.67a.41.41 0 0 0 .21-.58c.06 0 .08 0 .08.1.67 2.87 0 6.28 0 9.2 0 3.36.18 6.72.1 10.07a.53.53 0 0 1-.33.54.35.35 0 0 0-.49-.31 2 2 0 0 1-.43.16.44.44 0 0 1-.11-.23v-.05a2.33 2.33 0 0 0 .11-.31.29.29 0 0 0-.13-.33 6.11 6.11 0 0 0 .74-.85z"/><path class="cls-1" d="M36 65.73a.51.51 0 0 1-.43.06 4.41 4.41 0 0 1 .26-.59.35.35 0 0 1 0-.08h.33a.41.41 0 0 1-.16.61zM36.26 65.15a.09.09 0 0 0 0-.06.06.06 0 0 1 0 .06z"/><path class="cls-1" d="M36.21 65.09a.09.09 0 0 1 0 .06h-.33a.25.25 0 0 1 .33-.06z"/><path class="cls-1" d="M36 64.71a2.48 2.48 0 0 1 .23.36.25.25 0 0 0-.3 0h-.13a.48.48 0 0 1-.31-.15.41.41 0 0 1 .18-.67h.05a2.85 2.85 0 0 1 .28.46zM36.14 85.06a.46.46 0 0 1 0 .34l-.47-.11.11-.08a.5.5 0 0 0 .36-.15zM36.09 85.4a4.1 4.1 0 0 0-.56.61.12.12 0 0 0-.08 0c0-.15-.12-.31-.17-.46a2.05 2.05 0 0 0 .4-.23zM35.78 82.4a.29.29 0 0 1 .23.41c-.08.1-.15.23-.23.33v-.74z"/><path class="cls-1" d="M35.73 85.19a.65.65 0 0 1-.51-.28 2 2 0 0 0 .43-.16.35.35 0 0 1 .49.31.5.5 0 0 1-.41.13zM35.6 65.79a.51.51 0 0 0 .43-.06c-.48 4.41-.3 11-.25 16.67a.24.24 0 0 0-.13 0 4 4 0 0 1-.59.38c-.1-3.2-.1-6.43-.05-9.64.05-2.3-.23-5.07.59-7.35z"/><path class="cls-1" d="M35.47 65a.48.48 0 0 0 .31.15h.13a.35.35 0 0 0 0 .08 4.41 4.41 0 0 0-.26.59.46.46 0 0 1-.18-.11c-7-5.71-12.77-12.15-22.56-7.05-6.84 3.54-15.71 13.61-8.1 21.1 7.31 7.2 21.61 8.76 30.25 3.07a5.8 5.8 0 0 0 0 .59C31.4 86.8 24.29 87.7 17.58 86.6a.25.25 0 0 0-.18 0C10.22 85.34 3.56 81.88 2 76.78c-3.08-9.61 5-17.35 13.63-20.12 8.84-2.43 14.07 1.69 19.84 8.34zM35.78 82.68v.46a6.11 6.11 0 0 1-.69.82 3.26 3.26 0 0 1 0-.54 10 10 0 0 0 .69-.74z"/><path class="cls-1" d="M35.78 82.4v.28a10 10 0 0 1-.72.74 5.8 5.8 0 0 1 0-.59 4 4 0 0 0 .59-.38.24.24 0 0 1 .13-.05zM35.7 64.3h-.05a.41.41 0 0 0-.18.67c-5.77-6.62-11-10.74-19.84-8.31C7 59.43-1.08 67.17 2 76.78c1.54 5.1 8.2 8.56 15.38 9.77A.39.39 0 0 0 17 87a2 2 0 0 0 .1.44 5.72 5.72 0 0 1-.57-.11c-7.1-1.46-14-4.58-15.86-12.1-2.14-8.47 5.86-16.23 13.14-18.8 8.61-3.1 16.87.51 21.89 7.87zM35.62 85.27a2.05 2.05 0 0 1-.4.23 2.13 2.13 0 0 1-.18-.41c.2.07.38.15.58.18z"/><path class="cls-8" d="M35.42 65.68a.46.46 0 0 0 .18.11c-.82 2.28-.54 5-.59 7.4 0 3.21 0 6.44.05 9.64-8.64 5.69-22.94 4.17-30.25-3.07-7.61-7.49 1.26-17.56 8.05-21.13 9.79-5.1 15.61 1.37 22.56 7.05z"/><path class="cls-1" d="M35.5 86.06zM35.22 85.55c.05.15.12.31.17.46a3.46 3.46 0 0 1-.56-.23.73.73 0 0 1 .39-.23zM35.09 84a.29.29 0 0 1 .13.33 2.33 2.33 0 0 1-.11.31v-.11z"/><path class="cls-1" d="M35.11 84.63v.05a1.18 1.18 0 0 1-.1.3 1.3 1.3 0 0 1-.36.13.69.69 0 0 0-.21 1.21c-1.63 3.28-5.25 7-8.45 7.12-3.82.16-8.1-2.07-8.87-6a3.26 3.26 0 0 0 .49.1c1 3.43 5.63 5.92 9.17 5 4-1.2 5.84-5.46 8-8.25a.49.49 0 0 1 .08-.1 1.34 1.34 0 0 0 .26-.23v.53c-.03.09-.03.11-.01.14z"/><path class="cls-1" d="M35.09 84a1.34 1.34 0 0 1-.26.23.49.49 0 0 0-.08.1 10.19 10.19 0 0 1-2.3 1.67 7.94 7.94 0 0 1 2.2-2.13.41.41 0 0 1 .44.13z"/><path class="cls-1" d="M35.06 83.42a3.26 3.26 0 0 0 0 .54.41.41 0 0 0-.44-.08A7.94 7.94 0 0 0 32.45 86c-4 2.28-9.69 2.33-14.15 1.64a4.44 4.44 0 0 1-.36-.77.42.42 0 0 0-.36-.28c6.71 1.11 13.82.21 17.48-3.17zM34.65 85.11A1.3 1.3 0 0 0 35 85a7.58 7.58 0 0 1-.57 1.34.69.69 0 0 1 .22-1.23z"/><path class="cls-1" d="M32.45 86a10.19 10.19 0 0 0 2.3-1.69c-2.13 2.79-4 7.05-8 8.25-3.54.9-8.18-1.59-9.17-5 .23 0 .46.08.69.1 2.05 4 7.56 6.13 11.15 2.54a36.31 36.31 0 0 0 3.03-4.2z"/><path class="cls-8" d="M32.45 86a36.31 36.31 0 0 1-3 4.18c-3.59 3.59-9.1 1.46-11.15-2.54 4.46.7 10.12.65 14.15-1.64z"/><path class="cls-9" d="M29.42 52.64c.1.18.18.38.28.59l-.56.07a6.21 6.21 0 0 0 .28-.66z"/><path class="cls-9" d="M29.42 52.64a6.21 6.21 0 0 1-.28.66.77.77 0 0 1-.26 0c-.1-.26-.23-.51-.33-.77.1-.33.23-.64.33-1a11.51 11.51 0 0 1 .54 1.11z"/><path class="cls-9" d="M29.14 53.3a2.37 2.37 0 0 1-.13.34 2.88 2.88 0 0 0-.13-.31.77.77 0 0 0 .26-.03zM28.88 53.33a4.49 4.49 0 0 1-.64.1l.31-.87c.1.26.23.51.33.77z"/><path class="cls-9" d="M28.88 51.59c-.1.33-.23.64-.33 1a37.67 37.67 0 0 0-3.77-6c-1.71-2.25-3.53-4.46-4.87-6.61-4.28 2.51-9 8.33-14 9.23.08-.36.18-.72.28-1 5.21-1.49 8.77-6.1 13.33-8.92a.83.83 0 0 1 1.15.3c2.7 4.05 5.93 7.69 8.21 12z"/><path class="cls-1" d="M17.61 87.55a3.26 3.26 0 0 1-.49-.1A2 2 0 0 1 17 87a.39.39 0 0 1 .38-.46 1.21 1.21 0 0 1 .18 0 .42.42 0 0 1 .36.28 4.44 4.44 0 0 0 .36.77c-.21.04-.44-.02-.67-.04z"/><path class="cls-1" d="M17.58 86.6a1.21 1.21 0 0 0-.18 0 .25.25 0 0 1 .18 0z"/><path class="cls-9" d="M11.86 30.59a.87.87 0 0 1 .62 1.08c-2.23 5.43-4.74 10.82-6.31 16.51a6.9 6.9 0 0 1-1 .23c1.46-5.82 4.44-11.38 6.46-17-1.89-.44-3.79-1-5.56-1.51l1.51-.49z"/><path class="cls-9" d="M11.86 27.16a.86.86 0 0 1-.77 1.13l-3.51 1.15c-.72-.21-1.41-.39-2.12-.56a9.69 9.69 0 0 1 5.63-1.44v-.15a1.55 1.55 0 0 0 .77-.13z"/><path class="cls-9" d="M11.27 26.59a.63.63 0 0 1 .59.57 1.55 1.55 0 0 1-.74.13z"/><path class="cls-9" d="M11.27 26.59l-.15.7a1 1 0 0 1-.9-.64 6.11 6.11 0 0 1 .87-.08.47.47 0 0 1 .18.02zM7.58 29.44l-1.51.49-.9-.23c0-.16-.07-.34-.13-.49a1.46 1.46 0 0 1 .42-.33c.71.17 1.4.35 2.12.56zM6.17 48.18c-.1.33-.2.69-.28 1a.83.83 0 0 1-.41.05l-.41-.41a3.41 3.41 0 0 1 .1-.46 6.9 6.9 0 0 0 1-.18z"/><path class="cls-9" d="M6.07 29.93c-.26.07-.51.18-.77.25 0-.15-.07-.33-.13-.48zM5.89 49.23a1.61 1.61 0 0 0-.1.36c-.1-.11-.21-.21-.31-.31a.83.83 0 0 0 .41-.05zM5.48 49.28a2 2 0 0 1-.54.08 3.92 3.92 0 0 1 .13-.49zM4.92 28.72l.54.16a1.46 1.46 0 0 0-.42.33c-.04-.16-.04-.33-.12-.49zM5.17 48.41a3.41 3.41 0 0 0-.1.46l-.36-.36a3.78 3.78 0 0 0 .46-.1zM5 29.21c.06.15.08.33.13.49-.18-.06-.33-.08-.48-.13a2.39 2.39 0 0 1 .35-.36z"/><path class="cls-2" d="M11.94 69.52c-4.62.63 2.3-10.07 6.71-6.71 4.82 3.56-3.78 7.76-6.71 7.55"/><path class="cls-10" d="M11.94 69.52c-4.62.63 2.3-10.07 6.71-6.71 4.82 3.56-3.78 7.76-6.71 7.55"/><path class="cls-2" d="M11.94 69.08c-1.83 0-.21-2.46.28-3.17 1-1.49 3-3.33 5-3a2.66 2.66 0 0 1 2.15 2.18c.05 1-1.09 1.86-1.8 2.36-1.78 1.26-3.89 1.62-5.84 2.49a.51.51 0 0 0 0 .88c2.5 1.37 6.57-1.35 8.15-3.19a3.74 3.74 0 0 0-2.7-6.14c-2.85-.25-5.35 2.27-6.66 4.55-1 1.71-1.13 4.48 1.58 3.92.5-.1.37-.86-.11-.86z"/><path class="cls-11" d="M45.92 96.79c-3.36-1.05 1.67-8 4.4-5.66 3.15 2.3-3.15 7.76-4.2 5.24M75.7 25.05c-5.87 1.26-6.5-4.61-.42-5.45 6.3-.84 4 4.61-.21 5.87"/><path class="cls-10" d="M75.7 25.05c-5.87 1.26-6.5-4.61-.42-5.45 6.3-.84 4 4.61-.21 5.87"/><path class="cls-11" d="M75.57 24.59c-1.3.2-3.76.18-3.85-1.65s2.9-2.64 4.29-2.77c1.64-.16 3.2.47 2.18 2.25a5.32 5.32 0 0 1-1.79 1.71c-.64.4-1.47.47-1.77 1.22a.46.46 0 0 0 .21.52c.92.59 2.28-.58 3-1.14A5.77 5.77 0 0 0 79.67 22c.82-2.75-2.47-3.25-4.39-3.06-2.21.22-5.12 1.54-5 4.17s3.58 2.86 5.54 2.4c.61-.14.34-1-.26-.92zM81.58 28c-2.94.21-1.47-4.2 1-4.41 1.89-.42 3.78.84 2.52 3.15-.84 1.47-3.56 1.47-5 1.47"/><path class="cls-10" d="M81.58 28c-2.94.21-1.47-4.2 1-4.41 1.89-.42 3.78.84 2.52 3.15-.84 1.47-3.56 1.47-5 1.47"/><path class="cls-11" d="M81.69 27.79c-.78-.58-1.35-.66-1-1.79a2.84 2.84 0 0 1 2.57-1.94A1.49 1.49 0 0 1 85 25.35a2 2 0 0 1-1.57 2 30.09 30.09 0 0 1-3.43.55.32.32 0 0 0 0 .6c1.85.43 4.4.18 5.55-1.52 1.37-2-.21-3.93-2.32-4a3.8 3.8 0 0 0-3.83 3.12c-.26 1.31.95 3.19 2.34 2a.23.23 0 0 0 0-.36z"/></g></g></svg>