<svg xmlns="http://www.w3.org/2000/svg" viewBox="0 0 129.17 148.58"><defs><style>.cls-1{fill:#1d3033;stroke:#1d3033;stroke-linecap:round;stroke-linejoin:round;stroke-width:.66px}.cls-2{fill:#fff}.cls-3{fill:#6b6b6b}.cls-5{fill:#f7e5d7}.cls-6{fill:none}.cls-7{fill:#8bcecd}</style></defs><g id="レイヤー_2" data-name="レイヤー 2"><g id="レイヤー_3" data-name="レイヤー 3"><path class="cls-1" d="M128.72 126.45a.45.45 0 0 1-.1.69.44.44 0 0 0-.54-.61c-1.49-1.08-2.39-2.88-3.46-4.34s-2.36-2.59-3.36-4c-2.26-3.2-3.64-6.89-5.44-10.35a94.85 94.85 0 0 1-7.12-15.23.17.17 0 0 0 .08-.2l-.47-1.41a.29.29 0 0 1 .16.15c4.43 12.31 11.53 25.51 20.25 35.3z"/><path class="cls-1" d="M128.08 126.53a.44.44 0 0 1 .54.61.41.41 0 0 1-.41 0h-.06a4.49 4.49 0 0 1-.41-.29 1.8 1.8 0 0 0 .18-.2c.08-.07.08-.12.16-.12z"/><path class="cls-1" d="M128.21 127.14a.41.41 0 0 0 .41 0c-3.59 6.17-13.31 8.69-20 8.81a113.93 113.93 0 0 1-17.89-1.35 7 7 0 0 0-.54-.44c1.64.23 3.28.44 4.89.51 6 .39 12.08 1 18 .05a23.39 23.39 0 0 0 8.12-2.71c2.26-1.23 5.57-2.52 6.87-4.92.11.03.11.05.14.05z"/><path class="cls-1" d="M127.74 126.83a4.49 4.49 0 0 0 .41.29c-1.3 2.4-4.61 3.69-6.87 4.92a23.39 23.39 0 0 1-8.12 2.71c-6 .93-12 .34-18-.05-1.61-.07-3.25-.28-4.89-.51a3.75 3.75 0 0 0-1.16-.69.39.39 0 0 0-.51.41c-4.3-.72-8.69-1.67-12.89-1.8a.58.58 0 0 0 0-.41v-.1c15.79.18 39.45 9.64 52.03-4.77zM128.08 126.53c-.05 0-.1 0-.16.1a1.8 1.8 0 0 1-.18.2c-4.35-2.84-7.92-8.79-10-13.4-3.18-7-7-13.59-9.33-20.89a.18.18 0 0 0 .31 0 94.85 94.85 0 0 0 7.12 15.23c1.8 3.46 3.18 7.15 5.44 10.35 1 1.46 2.31 2.64 3.36 4s1.95 3.33 3.44 4.41z"/><path class="cls-2" d="M117.72 113.43c2.1 4.61 5.67 10.56 10 13.4-12.58 14.41-36.24 5-52.11 4.77-5.28-12.43-3.36-26.6-3.61-39.81-.2-14.07 2-28 1.41-42.06a77.08 77.08 0 0 1 15.45 11.15.29.29 0 0 0 .43-.05c.11.18.24.36.34.54a.29.29 0 0 0 .28.15l7 1.85a.68.68 0 0 0 .1.36.88.88 0 0 0-.07.23c-.16 3.35 2.72 8.07 3.92 11.1 2.33 5.92 4.79 11.76 7.56 17.48 2.35 7.3 6.12 13.92 9.3 20.89z"/><path class="cls-1" d="M108.7 92.56a.18.18 0 0 1-.31 0c-.15-.41-.28-.85-.41-1.26a.32.32 0 0 1 0-.23.26.26 0 0 1 .3 0l.47 1.36a.17.17 0 0 1-.05.13z"/><path class="cls-1" d="M108 91.28c.13.41.26.85.41 1.26-2.77-5.72-5.23-11.56-7.56-17.48-1.2-3-4.08-7.75-3.92-11.1a.88.88 0 0 1 .07-.23.43.43 0 0 0 .36.3c.15.44 1 2.39 1.2 3 3.08 8 6.18 16 9.44 24a.32.32 0 0 0 0 .25z"/><path class="cls-1" d="M108.31 91a.26.26 0 0 0-.3 0c-3.26-8-6.36-16-9.44-24-.15-.64-1-2.59-1.2-3a.27.27 0 0 0 .15 0 2.63 2.63 0 0 0 .48 0c2.2 2.77 3.13 7.51 4.36 10.61 2.06 5.47 4.11 10.9 5.95 16.39zM107.37 56.57a.37.37 0 0 0-.44.06c-.1.1-.2.17-.31.28a.46.46 0 0 1 0-.36c5.43-12-5.69-28.1-13.84-35.86-8.39-8-19-14.13-30.3-16.66C50.26 1.26 35.59.41 25 8.28 18.42 13.13 7.09 26.33 13.6 35a.27.27 0 0 1 0 .38s-.05 0-.08-.05a.42.42 0 0 0-.54 0c-6.56-6.39 1.29-19.43 6.52-24.35C30.11.82 44.26-1.3 58.43 1.41 73.48 4.31 88.55 12 98.14 24.23c6.56 8.38 14.61 22 9.58 33a.47.47 0 0 1-.35.31c.07-.18.12-.36.18-.54a.39.39 0 0 0-.18-.43z"/><path class="cls-1" d="M107.37 56.57a.39.39 0 0 1 .18.39c-.06.18-.11.36-.18.54a.52.52 0 0 1-.49-.13 2.66 2.66 0 0 0 .31-.49c.05-.1.13-.2.18-.31z"/><path class="cls-1" d="M107.37 56.57c-.05.11-.13.21-.18.31a2.66 2.66 0 0 1-.31.49.55.55 0 0 1-.26-.46c.11-.11.21-.18.31-.28a.37.37 0 0 1 .44-.06z"/><path class="cls-1" d="M106.88 57.37a.52.52 0 0 0 .49.13C106.08 61 101.7 63.8 98 64a2.58 2.58 0 0 0-.33-.41.43.43 0 0 0-.67.11.68.68 0 0 1-.1-.36.5.5 0 0 1 .34-.49 33.38 33.38 0 0 0 9.4-6 .55.55 0 0 0 .24.52z"/><path class="cls-2" d="M92.81 20.69c8.15 7.76 19.27 23.86 13.84 35.86a.46.46 0 0 0 0 .36 33.38 33.38 0 0 1-9.4 6 .5.5 0 0 0-.34.49l-7-1.85a.34.34 0 0 0 .33-.51c-.69-1.18-1.38-2.28-2.12-3.33a9.37 9.37 0 0 0-1.59-2.59q-.78-.86-1.59-1.62a39.66 39.66 0 0 0-7.33-6.5 66.5 66.5 0 0 0-21.15-9.87c-8.61-2.2-27.3-4.71-33.32 4.36a19.12 19.12 0 0 1-5-2.26 43.52 43.52 0 0 1-4.56-3.84.27.27 0 0 0 0-.38C7.09 26.33 18.42 13.13 25 8.28 35.59.41 50.26 1.26 62.51 4c11.33 2.56 21.91 8.74 30.3 16.69z"/><path class="cls-1" d="M97.37 64a.43.43 0 0 1-.36-.3.43.43 0 0 1 .67-.11A2.58 2.58 0 0 1 98 64a2.63 2.63 0 0 1-.49 0 .27.27 0 0 1-.14 0zM96.42 141.14a.37.37 0 0 1 .16.3c-.77 6.26-18.62 6.46-23 6.67-8.39.43-16.69-.26-25.05-.57-6-.23-12.17-.41-17.76-2.82a.38.38 0 0 1-.18-.12c.05 0 .05 0 .05-.08s0-.28.05-.44a.55.55 0 0 1 .39-.1 165.69 165.69 0 0 0 37.88 3c8.46-.31 19.38-.49 26.61-5.54a.76.76 0 0 0 .85-.3z"/><path class="cls-1" d="M89.58 134.47l1.18.16c.66.61 1.25 1.3 1.82 1.81a40.52 40.52 0 0 0 3.69 3.49.76.76 0 0 1 .15 1.21.44.44 0 0 0-.44 0 2.12 2.12 0 0 1-.43.28.85.85 0 0 1-.44-.33 35.35 35.35 0 0 0-3.51-3.64 18.84 18.84 0 0 1-2.84-3.08z"/><path class="cls-1" d="M96 141.11a.44.44 0 0 1 .44 0 .76.76 0 0 1-.87.25 2.12 2.12 0 0 0 .43-.25z"/><path class="cls-3" d="M95.11 141.06a.85.85 0 0 0 .44.33c-7.23 5.05-18.15 5.23-26.61 5.54a165.69 165.69 0 0 1-37.88-3 .55.55 0 0 0-.39.1A249.17 249.17 0 0 1 36.62 112l2.23.31c.23 0 .36-.15.36-.36a6.06 6.06 0 0 0 3.77.9.85.85 0 0 0 .25 0 3.23 3.23 0 0 0 2.18 1.15.46.46 0 0 0 .26-.07c11.74 4.25 22.35-3 25.14-14 0 11-.56 22 4 32.32a.41.41 0 0 0 .39.26.54.54 0 0 0 .36.21c4.43.46 8.79 1.12 13.15 1.71a18.84 18.84 0 0 0 2.84 3.08 35.35 35.35 0 0 1 3.56 3.55z"/><path class="cls-1" d="M90.76 134.63l-1.18-.16A7.17 7.17 0 0 0 89 134c.41.08.79.13 1.18.21a7 7 0 0 1 .58.42zM88.12 57.68c.74 1 1.43 2.15 2.12 3.33a.34.34 0 0 1-.33.51.29.29 0 0 1-.28-.15c-.1-.18-.23-.36-.34-.54a.26.26 0 0 0 0-.39l-.69-.71a35.45 35.45 0 0 0-11.48-11.95C72 44.53 66.41 41.14 60.61 39.4c-8.89-2.72-29.5-6.72-36.58 2.44l-.25.07a.76.76 0 0 0-.21-.28c2.52-4.15 10.13-5.41 14.43-5.49 9.38-.12 18.53.44 27.09 4.49 7.24 3.37 14.13 7.23 19.85 12.84a35.43 35.43 0 0 1 3.18 4.21z"/><path class="cls-1" d="M89 134l-.49-.07a.39.39 0 0 1 .51-.41 3.75 3.75 0 0 1 1.16.69c-.35-.1-.73-.15-1.18-.21z"/><path class="cls-1" d="M89.58 134.47l-.82-.13a.87.87 0 0 1-.16-.23.59.59 0 0 1 0-.2l.4.09a7.17 7.17 0 0 1 .58.47zM89.29 60.44a.26.26 0 0 1 0 .39c-.23-.39-.46-.75-.69-1.1zM23.83 42.32a.34.34 0 0 0 0-.2 3.11 3.11 0 0 1 .2-.25c22.1-7.36 48.73 1.38 64.57 17.89.23.35.46.71.69 1.1a.29.29 0 0 1-.43.05 77.08 77.08 0 0 0-15.41-11.18v-.28a.44.44 0 0 0-.82-.21 72.33 72.33 0 0 0-29.35-8.79 51.85 51.85 0 0 0-19.5 2.31.45.45 0 0 1-.23 0 .8.8 0 0 1 .15-.18.36.36 0 0 0 .13-.26z"/><path class="cls-1" d="M88.6 134.11a.87.87 0 0 0 .16.23c-4.36-.59-8.72-1.25-13.15-1.71a.54.54 0 0 1-.36-.21.51.51 0 0 0 .41-.31c4.2.13 8.59 1.08 12.89 1.8a.59.59 0 0 0 .05.2z"/><path d="M77.12 47.78A35.45 35.45 0 0 1 88.6 59.73C72.76 43.22 46.13 34.48 24 41.84c7.08-9.16 27.69-5.16 36.58-2.44 5.83 1.74 11.42 5.13 16.54 8.38z" fill="#57aeab"/><path class="cls-1" d="M77.61 47a39.66 39.66 0 0 1 7.33 6.51C79.22 47.86 72.33 44 65.07 40.63 56.51 36.58 47.36 36 38 36.14c-4.28.08-11.89 1.34-14.41 5.46-.05 0-.07 0-.13-.05s-.2-.07-.3-.1c6-9.07 24.71-6.56 33.32-4.36A66.5 66.5 0 0 1 77.61 47zM75.66 132.11a.51.51 0 0 1-.41.31.46.46 0 0 1 0-.61.37.37 0 0 1 .39-.21v.1a.58.58 0 0 1 .02.41z"/><path class="cls-1" d="M75.61 131.6a.37.37 0 0 0-.39.21c-4.66-9.8-3.79-22.1-3.77-32.69 0-6.1-.28-12.17-.07-18.25.05-2.07.18-4.12.38-6.2.28-2.69.54-5.41.75-8.1a.53.53 0 0 0 0-.67A160.73 160.73 0 0 0 73 49.47a2.58 2.58 0 0 1 .43.26c.64 14.05-1.61 28-1.41 42.06.23 13.21-1.69 27.38 3.59 39.81z"/><path class="cls-1" d="M75.25 132.42a.41.41 0 0 1-.39-.26c-4.61-10.27-4-21.32-4-32.32a21.53 21.53 0 0 0 .57-2.92.39.39 0 0 0-.59-.38c-.05-4.08 0-8.16.2-12.21 0-1 .05-2 .13-3.07a.41.41 0 0 0 .26-.39c-.21 6.08.1 12.15.07 18.25 0 10.59-.89 22.89 3.77 32.69a.46.46 0 0 0-.02.61zM73 49.47l-.39-.23a.44.44 0 0 1 .82.21v.28a2.58 2.58 0 0 0-.43-.26z"/><path class="cls-1" d="M73 49.47a160.73 160.73 0 0 1-.46 16.43.4.4 0 0 0-.26-.2 2.22 2.22 0 0 1-.31-.1c.31-5.36.57-10.74.59-16.15a.59.59 0 0 1 0-.21zM72.56 65.9a.53.53 0 0 1 0 .67c-.03-.23-.03-.43 0-.67z"/><path class="cls-3" d="M72.63 49.24a.59.59 0 0 0 0 .21c0 5.41-.28 10.79-.59 16.15-10.76-3.44-23.99-12.46-28.63-23.15 0 0 .05-.05.05-.08a.36.36 0 0 0-.3-.51l.12-1.41a72.33 72.33 0 0 1 29.35 8.79z"/><path class="cls-1" d="M72 66.16v-.56a2.22 2.22 0 0 0 .31.1.4.4 0 0 1 .26.2v.67a.51.51 0 0 1-.36.13H72a3.26 3.26 0 0 1 0-.54z"/><path class="cls-1" d="M72.15 66.7a.51.51 0 0 0 .36-.13c-.21 2.69-.47 5.41-.75 8.1-.2 2.08-.33 4.13-.38 6.2a.4.4 0 0 0-.23-.38c.23-4.61.51-9.2.79-13.79zM72 65.6v.56c-6.85-.74-13-5.72-18-10.16-3.82-3.36-9.45-7.69-10.89-13a5.25 5.25 0 0 0 .28-.59C48.05 53.14 61.28 62.16 72 65.6z"/><path class="cls-1" d="M72 66.16a3.26 3.26 0 0 0 0 .54c-7.36-.16-13.2-5.51-18.48-10.1-4.1-3.59-9.2-7.46-10.66-13a6.08 6.08 0 0 0 .33-.61C44.57 48.32 50.2 52.65 54 56c5 4.44 11.15 9.42 18 10.16zM70.79 97.66v-1.15a.39.39 0 0 1 .59.38 21.53 21.53 0 0 1-.57 2.92c0-.69 0-1.43-.02-2.15z"/><path class="cls-5" d="M71.94 66.7c-.28 4.59-.56 9.18-.79 13.79a.39.39 0 0 0-.31 0C59.69 82.9 50 85.51 38.39 83.8a48.91 48.91 0 0 1-15.89-5.75c-1.72-.89-3.34-2-4.95-3-5.87-3.84 1.45-11.12 3.61-13.61a.79.79 0 0 0 .18-.84c3.64-.16 6.85-3.23 9.54-5.46 4.05-3.33 9.25-6.77 11.92-11.49 1.46 5.49 6.56 9.36 10.66 13 5.28 4.54 11.12 9.89 18.48 10.05zm-5.61 1.79a.44.44 0 0 0-.39-.66c-2.23 0-4.1 1.69-6.4 1.84-2.59.18-3.88-2.23-6.16-2.56a.12.12 0 0 0-.15.15c.33 2.26 3.59 4 5.74 4.1 2.41.11 6.03-.79 7.36-2.87zM32 70.06c1.15-.16 7.15-2.44 5.54-4a1 1 0 0 0-1-.26c-1.59.59-2.82 1.85-4.49 2.33-2.51.75-5-1-5.89-3.23-.23-.53-1.1-.23-1.08.31.13 3.21 3.98 5.26 6.92 4.85z"/><path class="cls-1" d="M71.38 80.87a.41.41 0 0 1-.26.39 6.61 6.61 0 0 1 0-.77.4.4 0 0 1 .26.38z"/><path class="cls-1" d="M16.68 75.52a.17.17 0 0 0-.13.1c-.15.38-.31.77-.49 1.13a7 7 0 0 1-2.46-3.08 7.72 7.72 0 0 1 .56-5.67.54.54 0 0 0 .83-.66 2.64 2.64 0 0 1-.21-.54 43.93 43.93 0 0 1 5.15-6.54h.05a.46.46 0 0 0 .41.38 6 6 0 0 0 .95 0 .79.79 0 0 1-.18.84C19 63.93 11.68 71.21 17.55 75c1.61 1 3.23 2.16 4.95 3a48.91 48.91 0 0 0 15.89 5.8c11.58 1.71 21.3-.9 32.45-3.36a.39.39 0 0 1 .31 0 6.61 6.61 0 0 0 0 .77h-.05c-7.31 2.34-14.2 5.31-22 5.13-2.43 0-4.84-.15-7.25-.41.13-.41-.46-.77-.69-.33a.39.39 0 0 0-.62-.1c-.07.08-.15.15-.23.23a46.25 46.25 0 0 1-12.84-3.38c-2.47-.99-7.56-2.78-10.87-5.19a10.05 10.05 0 0 0 .4-1.41v-.08c-.07-.15-.22-.23-.32-.15z"/><path class="cls-2" d="M71.07 81.28h.05c-.08 1-.1 2-.13 3.07h-.18a.21.21 0 0 0-.2-.23c-4.46-.43-6.64 4.05-8.79 7.26-3.82 5.74-9.49 4.76-15.2 4-2.39-.28-9-.41-6.49-5.95.51-1.12 1.15-2.23 1.64-3.38 2.41.26 4.82.36 7.25.41 7.85.13 14.74-2.84 22.05-5.18z"/><path class="cls-3" d="M70.81 84.33H71c-.18 4-.25 8.13-.2 12.21a.32.32 0 0 0-.26.25c-1.49 5.41-3.61 10.54-8.17 14-3.37 2.64-10.5 3.21-15.22 2.59v-.08a50.53 50.53 0 0 1 .82-5.87.36.36 0 0 0 .36-.31c3.59 1.72 9.54-2.84 10.77-6 .15-.39-.41-.67-.69-.39-2.39 2.31-6.49 6.31-10.2 5.23-.41-2.43-1.44-4.87-3.9-5.74-1.41-.49-5.33-1.36-5.82.85a2.15 2.15 0 0 0 .21 1.36 7.68 7.68 0 0 0-1.54-1.08.42.42 0 0 0-.64.36 2.55 2.55 0 0 0 2 2.18 41.53 41.53 0 0 0-.43 5.84 2.94 2.94 0 0 0 .71 1.77c-5.74-1-16.61-3.79-9.12-12.48 3.53-4.1 7.66-7.8 10.81-12.18-1.3 2.51-2.07 4.46-1.84 5.95.25 1.87 2.1 3 6.48 3.69 3.39.51 8.82 2.85 12.18 1 5.54-3 7.13-11.71 13.38-13a.18.18 0 0 0 .12-.15z"/><path class="cls-1" d="M70.79 97.66v2.18c-2.79 11-13.4 18.3-25.14 14a.53.53 0 0 0 .18-.23.72.72 0 0 0 1.07.15c2.82.49 7.21 0 9.74-.15 7.97-.54 12.71-8.74 14.15-15.95z"/><path class="cls-1" d="M70.79 96.69v1c-1.44 7.21-6.18 15.41-14.13 16-2.53.18-6.92.64-9.74.15a.58.58 0 0 0 .23-.43c4.72.61 11.8.05 15.21-2.54 4.56-3.51 6.68-8.64 8.17-14a.32.32 0 0 1 .26-.25zM38.62 92.82c-.28-2.08 2.1-5.21 2.79-6.87a2.6 2.6 0 0 0 .39 0c-.49 1.15-1.13 2.26-1.64 3.38-2.49 5.54 4.1 5.67 6.49 5.95 5.71.74 11.38 1.72 15.2-4 2.15-3.21 4.33-7.69 8.79-7.26a.21.21 0 0 1 .2.23.18.18 0 0 1-.15.18c-6.25 1.34-7.84 10-13.38 13-3.36 1.8-8.79-.54-12.18-1-4.41-.59-6.26-1.74-6.51-3.61zM65.94 67.83a.44.44 0 0 1 .39.66c-1.36 2.08-4.95 3-7.36 2.87-2.15-.1-5.41-1.84-5.74-4.1a.12.12 0 0 1 .15-.15c2.28.33 3.57 2.74 6.16 2.56 2.3-.15 4.17-1.87 6.4-1.84zM48.26 106.53a4.93 4.93 0 0 0 0-.54c3.71 1.08 7.81-2.92 10.2-5.23.28-.28.84 0 .69.39-1.23 3.13-7.18 7.69-10.77 6a3.7 3.7 0 0 0-.12-.62zM48.33 107.1a.36.36 0 0 1-.36.31v-.33a.32.32 0 0 0 0-.16.88.88 0 0 0 .36.18z"/><path class="cls-1" d="M48.26 106.53a3.7 3.7 0 0 1 .07.57.88.88 0 0 1-.3-.16.31.31 0 0 0-.21-.31c-.06-.15-.11-.31-.16-.46a.34.34 0 0 1 .46-.18h.11a4.93 4.93 0 0 1 .03.54z"/><path class="cls-1" d="M48.21 106h-.11a.34.34 0 0 0-.46.18c-.64-1.93-.61-3.74-2.41-4.92-1-.7-5.35-1.72-6.2-.36-.54 1.23 1.9 4.33 2.23 5.17.49 1.13.87 3.57 1.72 5.34h-.59a18.58 18.58 0 0 1-1-3.1 15.1 15.1 0 0 0-1.72-3.93l-.33-.59a.36.36 0 0 0 .07-.53 3.69 3.69 0 0 0-.71-.77 2.15 2.15 0 0 1-.21-1.36c.49-2.21 4.41-1.34 5.82-.85 2.46.84 3.49 3.28 3.9 5.72zM47.82 106.61a.31.31 0 0 1 .21.31.09.09 0 0 1-.11 0 .49.49 0 0 1-.1-.31z"/><path class="cls-1" d="M48 106.92a.32.32 0 0 1 0 .16l-.08-.21a.09.09 0 0 0 .08.05zM47.59 107.1l-.23-.39a.28.28 0 0 1 .23-.15.42.42 0 0 0 .15.23s.1.07.15.07l.08.21v.33a.21.21 0 0 1-.2-.1 1.12 1.12 0 0 0-.18-.21z"/><path class="cls-1" d="M47.92 106.86c-.05 0-.1 0-.15-.07a.42.42 0 0 1-.15-.23.26.26 0 0 1 .18 0 .49.49 0 0 0 .12.3zM47.77 107.33a.21.21 0 0 0 .2.1 50.53 50.53 0 0 0-.82 5.87v.08c-.25 0-.48-.08-.71-.13a24.79 24.79 0 0 1 1.15-6.13 1.12 1.12 0 0 1 .18.21z"/><path class="cls-1" d="M47.8 106.61a.26.26 0 0 0-.18 0 .45.45 0 0 1 0-.41c.07.1.12.26.18.41z"/><path class="cls-1" d="M47.64 106.15a.45.45 0 0 0 0 .41.28.28 0 0 0-.23.15c-1.08-1.95-.74-4.64-3.31-5.46a9.18 9.18 0 0 0-3.1-.56c-2.18.07-1.1 2-.41 3.18a14.3 14.3 0 0 1 1.8 4.13c.48 1.75 1 4.72 3.15 5a.35.35 0 0 1 .21.1h-.08a.36.36 0 0 0-.44.33 2.27 2.27 0 0 1-1.64-1 .69.69 0 0 0-.61-1.05c-.85-1.77-1.23-4.21-1.72-5.34-.33-.84-2.77-3.94-2.23-5.17.85-1.36 5.18-.34 6.2.36 1.77 1.18 1.77 2.99 2.41 4.92z"/><path class="cls-1" d="M47.59 107.1a24.79 24.79 0 0 0-1.15 6.13c-.23 0-.46-.08-.67-.1a17.59 17.59 0 0 1 1.56-6.41z"/><path class="cls-5" d="M47.36 106.71a17.59 17.59 0 0 0-1.56 6.41.35.35 0 0 0-.21-.1c-2.15-.31-2.67-3.28-3.15-5a14.3 14.3 0 0 0-1.85-4.12c-.69-1.13-1.77-3.11.41-3.18a9.18 9.18 0 0 1 3.1.56c2.52.79 2.18 3.48 3.26 5.43z"/><path class="cls-1" d="M46.44 113.25c.23 0 .46.1.71.13a.58.58 0 0 1-.23.43 5.07 5.07 0 0 1-1.07-.25.4.4 0 0 0-.08-.41c.23.02.44.07.67.1z"/><path class="cls-1" d="M46.92 113.81a.72.72 0 0 1-1.07-.15v-.1a5.07 5.07 0 0 0 1.07.25zM45.77 113.15a.4.4 0 0 1 .08.41.09.09 0 0 1-.08 0 .79.79 0 0 1 0-.23.39.39 0 0 1 0-.18z"/><path class="cls-1" d="M45.85 113.56v.1c-.05 0-.05-.08-.08-.13a.09.09 0 0 0 .08.03z"/><path class="cls-1" d="M45.23 113.45a.36.36 0 0 1 .44-.33h.08a.39.39 0 0 0 0 .15.79.79 0 0 0 0 .23s0 .1.08.13a.53.53 0 0 1-.18.23.61.61 0 0 1-.18 0 .41.41 0 0 1-.24-.41z"/><path class="cls-1" d="M45.49 113.84a.61.61 0 0 0 .18 0 .46.46 0 0 1-.26.07 3.23 3.23 0 0 1-2.18-1.17.74.74 0 0 0 .36-.36 2.27 2.27 0 0 0 1.64 1 .41.41 0 0 0 .26.46z"/><path class="cls-1" d="M43 111.38a.69.69 0 0 1 .61 1.05 6.28 6.28 0 0 1-.61-1.05zM43.16 41.86a.36.36 0 0 1 .3.51s0 .05-.05.08a.69.69 0 0 0 0-.13c-.2-.46-.87-.1-.79.34a.82.82 0 0 0 .07.28 46.82 46.82 0 0 1-9.84 9.79C30 54.86 24.9 59.93 21 60.14a.71.71 0 0 0-1.05 0 .35.35 0 0 1 .29-.46c4.89-.67 8.38-4.57 12.07-7.46 4-3.13 7-6.85 10.59-10.31a.32.32 0 0 1 .26-.05z"/><path class="cls-1" d="M43.13 43a6.08 6.08 0 0 1-.33.61 3.33 3.33 0 0 1-.16-.71.82.82 0 0 1-.07-.28c-.08-.44.59-.8.79-.34a.69.69 0 0 1 0 .13 5.25 5.25 0 0 1-.23.59z"/><path class="cls-3" d="M43.28 40.45l-.12 1.41a.32.32 0 0 0-.23.1c-3.62 3.46-6.59 7.18-10.59 10.31-3.69 2.89-7.18 6.79-12.07 7.46a.35.35 0 0 0-.29.46h-.05a43.93 43.93 0 0 0-5.15 6.54c-.74-2.59.74-8.41 1.2-10.46a27.62 27.62 0 0 1 7.54-13.53.45.45 0 0 0 .23 0 51.85 51.85 0 0 1 19.53-2.29z"/><path class="cls-1" d="M42.75 112.09a4.25 4.25 0 0 1-.34-.71H43a6.28 6.28 0 0 0 .61 1.05.74.74 0 0 1-.36.36 4.54 4.54 0 0 1-.5-.7z"/><path class="cls-1" d="M43.23 112.79a.85.85 0 0 1-.25 0 6.06 6.06 0 0 1-3.77-.9.31.31 0 0 0-.26-.35h-.15a2.94 2.94 0 0 1-.71-1.77 41.53 41.53 0 0 1 .43-5.84h.44c.36 3.87-2.36 8.36 3.82 8.15a4.54 4.54 0 0 0 .45.71zM42.64 42.94a3.33 3.33 0 0 0 .16.71c-2.67 4.72-7.87 8.16-11.92 11.49-2.69 2.23-5.9 5.3-9.54 5.46a.78.78 0 0 0-.31-.46c3.87-.21 9-5.28 11.77-7.41a46.82 46.82 0 0 0 9.84-9.79z"/><path class="cls-1" d="M42.41 111.38a4.25 4.25 0 0 0 .34.71c-6.18.21-3.46-4.28-3.82-8.15H39a.43.43 0 0 0 .26-.11 14.67 14.67 0 0 1 0 4.08 4.14 4.14 0 0 0 .31 2.56c.59.88 1.79.93 2.82.93z"/><path class="cls-5" d="M42.39 111.38c-1 0-2.23 0-2.82-.93a4.14 4.14 0 0 1-.31-2.56 14.67 14.67 0 0 0 0-4.08h.05l.33.59a15.1 15.1 0 0 1 1.72 3.93 18.58 18.58 0 0 0 1.03 3.05z"/><path class="cls-1" d="M41.41 86a1 1 0 0 1-.28 0 .22.22 0 0 0-.05-.23c.23-.44.82-.08.69.33a2.6 2.6 0 0 1-.36-.1z"/><path class="cls-1" d="M41.13 85.92a1 1 0 0 0 .28 0c-.69 1.66-3.07 4.79-2.79 6.87-.23-1.49.54-3.44 1.84-5.95a6.79 6.79 0 0 0 .62-.82.17.17 0 0 0 .05-.1zM41.08 85.69a.22.22 0 0 1 .05.23H41c0-.07.05-.15.08-.23z"/><path class="cls-1" d="M41.13 85.92a.17.17 0 0 1-.05.13 6.79 6.79 0 0 1-.62.82c.16-.31.34-.61.52-1z"/><path class="cls-1" d="M40.75 85.9l-.49-.08c.08-.08.16-.15.23-.23a.39.39 0 0 1 .62.1c0 .08-.08.16-.1.23a.93.93 0 0 0-.26-.02z"/><path class="cls-1" d="M36.7 111.61a.51.51 0 0 0-1-.13 13.72 13.72 0 0 1-4.31-1.13c-1.74-.87-4.95-3.59-5.33-5.56-.46-2.46 1.69-4.54 3.13-6.23 3.69-4.38 7.92-8.23 11.53-12.66a.93.93 0 0 1 .23 0c-.18.34-.36.64-.52 1-3.12 4.35-7.25 8.1-10.78 12.15-7.49 8.69 3.38 11.43 9.12 12.48a1.36 1.36 0 0 0 .41.38c0 .21-.13.39-.36.36l-2.2-.27a.7.7 0 0 1 .05-.25.63.63 0 0 1 .03-.14z"/><path class="cls-1" d="M40.23 85.82l.49.08c-3.61 4.43-7.84 8.28-11.53 12.66-1.44 1.69-3.59 3.77-3.13 6.23.38 2 3.59 4.69 5.33 5.56a13.72 13.72 0 0 0 4.31 1.13c-.05.1-.08.23-.13.33-4.33-.79-10.08-2.56-10.13-7-.05-3.46 2.26-5.69 4.51-8.15 3.34-3.66 6.75-7.35 10.28-10.84z"/><path class="cls-2" d="M5.07 129c.07 0-3.34 2.38-3.34 1.44a56.67 56.67 0 0 1 .72-8.72 133.46 133.46 0 0 1 5.64-24.2C9.53 93.23 11.24 89.08 13 85c1.15-2.67 2.77-5 3.59-7.79 3.31 2.41 8.41 4.2 10.79 5.28a46.25 46.25 0 0 0 12.84 3.38C36.7 89.31 33.29 93 30 96.64c-2.25 2.46-4.56 4.69-4.51 8.15 0 4.46 5.8 6.23 10.13 7a117.93 117.93 0 0 0-4 14 .3.3 0 0 0-.26 0c-2.33 1.36-7.28.41-9.84.34a45.43 45.43 0 0 0-8.41.3A27.71 27.71 0 0 0 5.07 129z"/><path class="cls-1" d="M39.41 103.23a.36.36 0 0 1-.07.53l-.16-.3a3.11 3.11 0 0 0-.39-.9.1.1 0 0 1 0-.07 3.69 3.69 0 0 1 .62.74z"/><path class="cls-1" d="M39.34 103.76h-.05a1.42 1.42 0 0 0-.11-.33zM38.87 103.38l-.35-.15a2.6 2.6 0 0 0 0-.62.09.09 0 0 1 .15-.08 5.2 5.2 0 0 0 .41.9 1.42 1.42 0 0 1 .11.33.43.43 0 0 1-.26.11h-.1a3.31 3.31 0 0 0 .04-.49zM39 111.56a.31.31 0 0 1 .26.35 1.36 1.36 0 0 1-.41-.38s.05.03.15.03zM38.77 102.56a3.11 3.11 0 0 1 .39.9 5.2 5.2 0 0 1-.41-.9s.02-.03.02 0z"/><path class="cls-1" d="M38.93 103.92h-.44a3.19 3.19 0 0 0 0-.69l.35.15a3.31 3.31 0 0 1 .09.54z"/><path class="cls-1" d="M38.52 103.23a3.19 3.19 0 0 1 0 .69 2.55 2.55 0 0 1-2-2.18.42.42 0 0 1 .64-.36 7.68 7.68 0 0 1 1.54 1.08.1.1 0 0 0 0 .07.09.09 0 0 0-.15.08 2.6 2.6 0 0 1-.03.62zM37.57 66c1.61 1.61-4.39 3.89-5.54 4-3 .41-6.82-1.64-6.87-4.9 0-.54.85-.84 1.08-.31.92 2.18 3.38 4 5.89 3.23 1.67-.48 2.9-1.74 4.49-2.33a1 1 0 0 1 .95.31zM36.08 111.91l-.51-.1c0-.1.08-.23.13-.33.33 0 .66.1 1 .13a.63.63 0 0 0 0 .13.7.7 0 0 0-.05.25z"/><path class="cls-1" d="M35.7 111.48a.51.51 0 0 1 1 .13c-.34-.03-.7-.08-1-.13zM36.08 111.91l.54.08a249.17 249.17 0 0 0-5.95 32.09.45.45 0 0 0-.1.52c-.05.3-.49.28-.51-.08a59.73 59.73 0 0 1 1.33-18.07.81.81 0 0 0 .18-.1.33.33 0 0 0 0-.59 117.93 117.93 0 0 1 4-14z"/><path class="cls-1" d="M31.54 125.76a.33.33 0 0 1 0 .59.81.81 0 0 1-.18.1c0-.23.08-.46.13-.69z"/><path class="cls-1" d="M16.4 77a1.16 1.16 0 0 0 .2.16c-.82 2.74-2.44 5.12-3.6 7.84-1.77 4.13-3.48 8.28-4.92 12.53a133.46 133.46 0 0 0-5.64 24.2 56.67 56.67 0 0 0-.72 8.72c0 .94 3.41-1.44 3.34-1.44a27.71 27.71 0 0 1 7.94-2.59 45.43 45.43 0 0 1 8.41-.3c2.56.07 7.51 1 9.84-.34a.3.3 0 0 1 .26 0c-.05.23-.1.46-.13.69-2.72 1.59-7 .69-10 .69-7.9 0-13.51 1.49-20 6.08a.71.71 0 0 1-1.06-.59c-.35-9.59 1.49-19.9 4.26-29a121.42 121.42 0 0 1 4.61-13c2-4.69 4.87-9.13 6.82-13.84a1.42 1.42 0 0 0 .39.19zM30.67 144.08c0 .16 0 .29-.05.44s0 0-.05.08a.45.45 0 0 1 .1-.52zM24 41.84a3.11 3.11 0 0 0-.2.25 3.2 3.2 0 0 0 0-.13v-.05zM23.83 42.12a.34.34 0 0 1 0 .2h-.13a.15.15 0 0 0 .05-.13.09.09 0 0 0 0-.08z"/><path class="cls-1" d="M23.8 42a.1.1 0 0 1 0 .08.27.27 0 0 0 0-.08zM23.7 42.35h.13a.36.36 0 0 1-.13.26.8.8 0 0 0-.15.18.43.43 0 0 1-.23-.23h.15a.32.32 0 0 0 .21-.13s.02-.06.02-.08z"/><path class="cls-1" d="M23.8 42a.27.27 0 0 1 0 .13.09.09 0 0 1 0 .08s-.05 0-.05.05a.48.48 0 0 1-.41.21.4.4 0 0 1 0-.29.26.26 0 0 1 .23-.2l.2-.08v.05a.1.1 0 0 1 .03.05zM23.78 41.91V41.95z"/><path class="cls-1" d="M23.78 41.91a.72.72 0 0 0-.25-.18.14.14 0 0 1 .07-.1.76.76 0 0 1 .18.28zM23.75 42.22a.15.15 0 0 1-.05.13h-.05a.32.32 0 0 1-.21.13h-.15v-.05a.48.48 0 0 0 .41-.21s.03.02.05 0z"/><path class="cls-1" d="M23.75 41.91l-.2.08a.26.26 0 0 0-.23.2 1.5 1.5 0 0 1-.24.21.37.37 0 0 1-.23-.41 3.75 3.75 0 0 0 .47 0 2 2 0 0 1 .18-.31.72.72 0 0 1 .25.23z"/><path class="cls-1" d="M23.57 41.6a.14.14 0 0 0-.07.1.51.51 0 0 0-.57.11h-.05a.1.1 0 0 1 0-.08 2.75 2.75 0 0 1 .23-.33c.1 0 .2.08.3.1s.11.1.16.1z"/><path class="cls-1" d="M23.5 41.73a2 2 0 0 0-.18.31 3.75 3.75 0 0 1-.47 0 .08.08 0 0 1 0-.1h.05a.51.51 0 0 1 .6-.21zM23.29 42.53a.43.43 0 0 0 .23.23A27.62 27.62 0 0 0 16 56.29c-.46 2.05-1.94 7.87-1.2 10.46a7.59 7.59 0 0 0-.36.69c-1-1.07.05-4.66.13-5.92a33.18 33.18 0 0 1 1.31-7.13 27 27 0 0 1 7.05-11.81 2.65 2.65 0 0 0 .36-.05zM23.32 42.19a.4.4 0 0 0 0 .29.56.56 0 0 1-.21-.06 1.5 1.5 0 0 0 .21-.23z"/><path class="cls-1" d="M23.29 42.48v.05a2.65 2.65 0 0 1-.38 0l.17-.16a.56.56 0 0 0 .21.11zM22.78 42c-.21.18-.41.38-.62.59-3.82-.1-7.25-3.9-9.35-6.61a.45.45 0 0 1 .12-.72.8.8 0 0 1 .13.13.4.4 0 0 0 .49 0 43.52 43.52 0 0 0 4.56 3.84 19.12 19.12 0 0 0 5 2.26 2.75 2.75 0 0 0-.23.33.1.1 0 0 0 0 .08.24.24 0 0 0-.1.1z"/><path class="cls-1" d="M23.08 42.4l-.17.16a4.69 4.69 0 0 1-.75 0c.21-.21.41-.41.62-.59h.07a.37.37 0 0 0 .23.43z"/><path class="cls-1" d="M22.16 42.58a4.69 4.69 0 0 0 .75 0 27 27 0 0 0-7 11.81 33.18 33.18 0 0 0-1.31 7.13c-.08 1.26-1.13 4.85-.13 5.92a4.06 4.06 0 0 0-.26.51.15.15 0 0 1-.12-.1c-1.85-2.72 0-9 .74-11.87a29 29 0 0 1 7.33-13.4zM22.88 41.89a.08.08 0 0 0 0 .1h-.07a.24.24 0 0 1 .07-.1zM21 60.14a.78.78 0 0 1 .31.46 6 6 0 0 1-.95 0 .46.46 0 0 1-.41-.38.71.71 0 0 1 1.05-.08zM16.4 77a1.42 1.42 0 0 1-.34-.25c.18-.36.34-.75.49-1.13a.17.17 0 0 1 .13-.1l.28.15v.08a10.05 10.05 0 0 1-.36 1.41 1.16 1.16 0 0 1-.2-.16zM17 75.67l-.28-.15c.06-.08.21 0 .28.15z"/><path class="cls-1" d="M14.42 67.44a7.59 7.59 0 0 1 .36-.69 2.64 2.64 0 0 0 .21.54.54.54 0 0 1-.83.66 4.06 4.06 0 0 1 .26-.51zM13.47 35.3s0 .05.08.05a.4.4 0 0 1-.49 0 .8.8 0 0 0-.13-.13.42.42 0 0 1 .54.08z"/><path class="cls-6" d="M31.53 12.7c10.28-3.57 21-.63 31.46 3.14"/><path class="cls-7" d="M31.53 12.92c6.08.12 11.45-.83 17.57.24 4.73.82 9.1 3 13.89 3.33.71.05.82-.87.33-1.21C55.84 10 39.44 7 31.42 12.51a.22.22 0 0 0 .11.41z"/><path class="cls-6" d="M47.05 4.1A63.8 63.8 0 0 0 41 31.16"/><path class="cls-7" d="M46.21 3.6c-4.47 7.55-8 19-5.93 27.75a.72.72 0 0 0 1.38 0c1.12-4.17 1.22-8.53 2-12.77.94-4.9 2.88-9.47 4.31-14.22a1 1 0 0 0-1.79-.76z"/></g></g></svg>