<svg xmlns="http://www.w3.org/2000/svg" viewBox="0 0 124.73 146.7"><defs><style>.cls-1{fill:#1d3033;stroke:#1d3033;stroke-linecap:round;stroke-linejoin:round;stroke-width:.66px}.cls-2{fill:#957884}.cls-3{fill:#8c4289}.cls-4{fill:#9e7642}.cls-5{fill:#9068a2}.cls-6{fill:#ebd494}.cls-7{fill:#f7e5d7}.cls-9{fill:#fff}.cls-10{fill:none}</style></defs><g id="レイヤー_2" data-name="レイヤー 2"><g id="レイヤー_3" data-name="レイヤー 3"><path class="cls-1" d="M124.22 60.22c1.59 5.84-8.2 6.94-11.79 7.56h-.2a.44.44 0 0 0 0-.15c0-.28.07-.57.07-.85 3.16-.51 7.28-1.23 9.87-3.12 1.8-1.31 1.36-3.16.21-5a.83.83 0 0 0 .72-.72 8.06 8.06 0 0 1 1.12 2.28z"/><path class="cls-1" d="M103 83.08a12.13 12.13 0 0 1 .33-9.64.37.37 0 0 0 .44-.41.94.94 0 0 0-.06-.28 8.6 8.6 0 0 1 7-4.08 1.16 1.16 0 0 0 1.46-.66c9 .74 13 10.17 11.87 18.63-1.69 13.18-17.12 11.36-25.94 14.84a.66.66 0 0 1-.77-.28c.13-.15.23-.33.36-.51a.36.36 0 0 0-.18-.51c5.41-4.08 12.79-1.46 18.54-5.26 7.33-4.79 10.22-19.12.87-24.09-15.13-8-18.33 17.17-6.21 15.5a.45.45 0 0 1 .36.82c-3.69 2.34-6.82.18-8.43-3.43h.1a.54.54 0 0 0 .26-.64zM123.17 57.73a.23.23 0 0 1 0 .23 13.92 13.92 0 0 0-.85-1.21c-.64-3-3.64-5.56-5.33-8a38.56 38.56 0 0 0-4.69-5.82c-1.57-1.51-4.1-2.43-5.46-4-1.21-1.31-1.8-3.69-2.9-5.23-1.26-1.77-2.74-3.38-4.13-5.05C95.13 23 89.18 19.18 83.16 15.1A84.1 84.1 0 0 0 55.45 3C52.35 2.23 45-.33 42.48 1.8c-1.39 1.2-2.36 4.94-3.23 6.61-1.15 2.21-2.33 4.38-3.38 6.64-1.7 3.64-3.64 7.31-4.67 11.23-.43 1.66-.33 3.12-1.41 4.33s-4.08 2.31-5.64 3.33A121.26 121.26 0 0 0 5.7 49.14c-.57.49-1.11 1-1.62 1.46a5.72 5.72 0 0 0-.49.51.33.33 0 0 1 0-.46c5.72-5.74 11.69-11.4 18.43-15.94 1.59-1.08 3.13-1.87 4.79-2.79 3.95-2.21 3.21-4.54 4.39-7.74s2.61-6.34 4.1-9.44c1.74-3.61 3.28-7.38 5.1-10.92C41 2.64 41.71 1 43.2.64c4.71-1.1 10 1 14.53 2.21 14.56 4 31 12.05 41.14 23.63 2.15 2.46 5 5.13 6.44 8.15 1.74 3.69 4.87 5 7.48 7.74 3.95 4.13 9.48 9.63 10.38 15.36z"/><path class="cls-1" d="M121.53 57.47a2.69 2.69 0 0 1 .15.67.62.62 0 0 0 .75.54c1.15 1.84 1.59 3.69-.21 5-2.59 1.89-6.71 2.61-9.87 3.12.06-.33.08-.66.11-1 4.41-.77 12.92-2.48 7.87-8.33-1.88-2.15-3.67-4.38-5.57-6.51s-3.94-4.3-6.05-6.33a4.57 4.57 0 0 0-.41-.79c-.07-.18-.3-.08-.33.07-.72-.69-1.43-1.38-2.18-2a10.54 10.54 0 0 0-1-1.54c-.13-.18-.36 0-.29.21a.88.88 0 0 1 .13.28 87.36 87.36 0 0 0-7-5.59c-10-7.1-20.73-9.48-32-8.94.18-.23-.18-.46-.38-.31a3.92 3.92 0 0 0-.36.33 87.88 87.88 0 0 0-13 1.87 80.4 80.4 0 0 0-23.32 9.28.43.43 0 0 0-.74-.07 8.39 8.39 0 0 0-.64.84c-5.36 3.1-11 5.77-16.21 9.15C8.82 48.76.29 53.78 4.34 57.45A21.89 21.89 0 0 0 10 61c3.23 1.47 6.87 2.54 9.82 4.57v.92a.49.49 0 0 1-.62 0c-4.59-3-23.61-6.92-15.64-15.38a.36.36 0 0 0 .59.11c1.64-1.62 3.31-3.18 5-4.74h.08c5.51-3.85 11.82-6.77 17.53-10 9.13-5.21 18.48-9.05 28.86-10.82 9.57-1.61 19.85-2.44 29.17.85 9.05 3.17 16.92 8.92 23.84 15.48 4 3.77 7.41 7.87 11 11.94.26.31.56.62.87.93v.05a11.53 11.53 0 0 1 1.03 2.56z"/><path class="cls-1" d="M122.3 56.75a13.92 13.92 0 0 1 .85 1.21.83.83 0 0 1-.72.72c-.28-.41-.57-.8-.9-1.21a11.53 11.53 0 0 0-.92-2.66c.56.61 1.15 1.28 1.69 1.94z"/><path class="cls-1" d="M122.43 58.68a.62.62 0 0 1-.75-.54 2.69 2.69 0 0 0-.15-.67c.33.41.62.8.9 1.21zM122.3 56.75a46.05 46.05 0 0 0-1.69-1.94v-.05c-2.59-5.54-8.76-11.41-12.94-14.13a8.49 8.49 0 0 1-3-3.84 35.06 35.06 0 0 0-6.84-9.28A89.17 89.17 0 0 0 57.37 4.16c-6.69-1.7-13.23-5.18-17 3.38-3.07 6.87-7.14 13.1-8.94 20.46-1.08 4.51-5.36 5.15-8.84 7.59A126.43 126.43 0 0 0 9.26 46.43h-.08C8 47.32 6.8 48.22 5.7 49.14a121.26 121.26 0 0 1 18.45-15.2c1.56-1 4.44-2 5.64-3.33s1-2.67 1.41-4.33c1-3.92 3-7.59 4.67-11.23 1.05-2.26 2.23-4.43 3.38-6.64.87-1.67 1.84-5.41 3.23-6.61C45-.33 52.35 2.23 55.45 3a84.1 84.1 0 0 1 27.71 12.1c6 4.08 12 7.87 16.63 13.56 1.39 1.67 2.87 3.28 4.13 5.05 1.1 1.54 1.69 3.92 2.9 5.23 1.36 1.54 3.89 2.46 5.46 4a38.56 38.56 0 0 1 4.72 5.79c1.66 2.46 4.66 4.97 5.3 8.02z"/><path class="cls-2" d="M120.33 57.47c5 5.85-3.46 7.56-7.87 8.33.56-7-.44-15-3.75-21.17 2.11 2 4.11 4.15 6.05 6.33s3.69 4.36 5.57 6.51z"/><path class="cls-3" d="M120.58 54.76c-.31-.31-.61-.62-.87-.93-3.64-4.07-7.1-8.17-11-11.94-6.92-6.56-14.79-12.31-23.84-15.48-9.32-3.29-19.6-2.46-29.17-.85-10.38 1.77-19.73 5.61-28.86 10.82-5.71 3.28-12 6.2-17.53 10a126.43 126.43 0 0 1 13.28-10.77c3.48-2.44 7.76-3.08 8.84-7.59 1.8-7.38 5.87-13.61 8.92-20.48 3.79-8.56 10.33-5.08 17-3.38a89.17 89.17 0 0 1 40.5 23.35 35.06 35.06 0 0 1 6.84 9.28 8.49 8.49 0 0 0 3 3.84c4.13 2.72 10.31 8.59 12.89 14.13z"/><path class="cls-4" d="M116.92 70.83c9.35 5 6.46 19.3-.87 24.09-5.75 3.8-13.13 1.18-18.54 5.26a.3.3 0 0 0-.41.07l-.56.67a.46.46 0 0 0-.66.51v.21a101.16 101.16 0 0 1-11.46 10.81c-4.2 3.49-8.76 6.82-12.15 11.1a19.86 19.86 0 0 0-.33-2.35c4.26-4.08 7.51-9.74 11-14.43a75.44 75.44 0 0 1 8.77-9.41c.28.51 1.07.21 1.1-.33.18-3.23.46-5.85 2.59-8.41s4.66-3.26 7.2-4.87c1.61 3.61 4.74 5.77 8.43 3.43a.45.45 0 0 0-.36-.82c-12.08 1.64-8.88-23.56 6.25-15.53z"/><path class="cls-1" d="M115.71 139.21a2 2 0 0 0 .21-.33c.13-.25-.21-.54-.41-.33a1 1 0 0 1-.21.2c-.69-.69-1.57-1.12-2.31-1.87-1.31-1.33-2.23-3.15-3.46-4.59a57.13 57.13 0 0 0-6.13-6.12c-2-1.67-4.46-2.67-5.2-5-.92-2.87-.08-7.26-.33-10.33a55.42 55.42 0 0 0-1.34-8.48c.13-.18.28-.36.41-.57a36.57 36.57 0 0 1 1.69 10.69c-.1 5.56.7 9 5.36 13.12 4.39 3.88 9.36 8.77 12.49 13.67.35.59-.44 1.07-.9.69-.08-.08-.16-.13-.23-.21a1.94 1.94 0 0 0 .36-.54z"/><path class="cls-1" d="M115.53 139a1.67 1.67 0 0 1-.23-.23 1 1 0 0 0 .21-.2c.2-.21.54.08.41.33a2 2 0 0 1-.21.33 1.3 1.3 0 0 1-.18-.23z"/><path class="cls-1" d="M115.53 139a1.3 1.3 0 0 0 .18.23 1.94 1.94 0 0 1-.38.54 1.07 1.07 0 0 1-.23-.2 1.83 1.83 0 0 0 .43-.57z"/><path class="cls-1" d="M115.53 139a1.83 1.83 0 0 1-.43.57c-.13-.1-.23-.21-.36-.31a2.07 2.07 0 0 0 .54-.49 1.67 1.67 0 0 0 .25.23z"/><path class="cls-1" d="M115.1 139.55a1.07 1.07 0 0 0 .23.2c-2.69 3.41-8.54 2.16-13.23.39a1 1 0 0 0 0-1.18c4.82 1.79 10.66 3.1 13 .59z"/><path class="cls-1" d="M114.74 139.24c.13.1.23.21.36.31-2.34 2.51-8.18 1.2-13-.59a.8.8 0 0 0-.74-.31 44.79 44.79 0 0 1-6.08-2.84c-6.33-3.77-14.3-10.46-14-18.59.16-.16.34-.31.52-.47 1 8.75 7.89 15.15 15.45 19 3.85 1.9 13.05 6.72 17.49 3.49zM115.28 138.75a2.07 2.07 0 0 1-.54.49c-2.77-2.51-4.59-5.15-7.26-8-2.82-2.92-6.1-5.23-9-8-1.74-1.67-1.56-5.07-1.46-7.18a63.1 63.1 0 0 0-.92-13.17c.15-.18.28-.39.43-.56a55.42 55.42 0 0 1 1.34 8.48c.25 3.07-.59 7.46.33 10.33.74 2.33 3.23 3.33 5.2 5a57.13 57.13 0 0 1 6.13 6.12c1.23 1.44 2.15 3.26 3.46 4.59.72.78 1.6 1.21 2.29 1.9zM108.71 44.63c3.31 6.18 4.31 14.2 3.75 21.17l-.54.08a.86.86 0 0 0-.59.38c1.15-7.38-.62-15.55-3.1-22.09.18.15.33.31.48.46z"/><path class="cls-1" d="M112.35 66.8c0 .28 0 .57-.07.85a.44.44 0 0 1 0 .15 1.08 1.08 0 0 1-1-.89.06.06 0 0 0 0-.08 5.67 5.67 0 0 0 .1-.57.86.86 0 0 1 .59-.38l.54-.08c-.08.34-.1.67-.16 1z"/><path class="cls-1" d="M111.23 66.91a1.08 1.08 0 0 0 1 .89.43.43 0 0 1-.06.21 10 10 0 0 0-1.74-.08 3.59 3.59 0 0 0-.46 0 1.46 1.46 0 0 1 0-.66c1.92-8.23-.51-15.33-2-23.33a.12.12 0 0 1 0-.08 1.6 1.6 0 0 1 .26.26c2.48 6.54 4.25 14.71 3.1 22.09a.84.84 0 0 0-.1.57.06.06 0 0 1 0 .13z"/><path class="cls-1" d="M110.43 67.93a10 10 0 0 1 1.74.08 1 1 0 0 1-.64.64h-.82A1 1 0 0 1 110 68a3.59 3.59 0 0 1 .43-.07z"/><path class="cls-5" d="M114.74 139.24c-4.44 3.23-13.64-1.59-17.59-3.56-7.56-3.8-14.48-10.2-15.45-19 1.2-1.12 2.43-2.2 3.69-3.28a72.92 72.92 0 0 0 10.69-10.53 63.1 63.1 0 0 1 .92 13.22c-.1 2.11-.28 5.51 1.46 7.18 2.92 2.77 6.2 5.08 9 8 2.69 2.82 4.54 5.46 7.28 7.97z"/><path class="cls-1" d="M110.71 68.67h.82a1 1 0 0 1-.82 0zM111.33 66.26a5.67 5.67 0 0 1-.1.57.84.84 0 0 1 .1-.57z"/><path class="cls-6" d="M108 44c1.51 8 3.94 15.1 2 23.33a1.46 1.46 0 0 0 0 .66 8.38 8.38 0 0 0-6.66 3.44 7.31 7.31 0 0 0-1-1.9 4.27 4.27 0 0 1-.8-4.23c7.54-3.41 8.3-16.48 4.33-23.43.75.67 1.46 1.36 2.18 2a.12.12 0 0 0-.05.13z"/><path class="cls-1" d="M110 68a1 1 0 0 0 .69.69 8.6 8.6 0 0 0-7 4.08 4.34 4.34 0 0 0-.35-1.33A8.38 8.38 0 0 1 110 68zM108.23 44.17a1.6 1.6 0 0 0-.26-.26c0-.15.26-.25.33-.07a4.57 4.57 0 0 1 .41.79c-.15-.15-.3-.31-.48-.46zM105.79 41.86c4 7 3.21 20-4.33 23.43a5.14 5.14 0 0 1 .18-.56.22.22 0 0 0-.18-.29c6.84-3.3 7-17.09 3.72-23.12z"/><path class="cls-1" d="M105.18 41.32c-.18-.18-.39-.33-.57-.51a.88.88 0 0 0-.13-.28c-.07-.18.16-.39.29-.21a10.54 10.54 0 0 1 1 1.54z"/><path class="cls-1" d="M105.18 41.32c3.23 6 3.12 19.82-3.72 23.12a.22.22 0 0 0-.26.11 7.08 7.08 0 0 1-3.12.64.58.58 0 0 0 0-.66c-.08-.08-.13-.16-.21-.23a.09.09 0 0 1 .08 0c10.4-.15 9.87-16.69 6.71-23.48.13.18.34.32.52.5z"/><path class="cls-6" d="M104.61 40.81c3.16 6.79 3.69 23.33-6.71 23.48a.09.09 0 0 0-.08 0c-3.87-4.39-7.61-8.92-8.3-15-.06-.28-.47-.28-.47 0a23.49 23.49 0 0 0 3.52 10.92c-4.54-.1-9 0-13.28-1.84-5.72-2.47-7.23-8-8-13.62a.35.35 0 0 0-.69 0 15.14 15.14 0 0 0 .84 7.28c-1 2.36-2.87 5.49-2.66 8.13a29.43 29.43 0 0 1-5.87-16.51c-.26-5.25-.54-13.1 2.61-17.4 11.31-.54 22 1.84 32 8.94a87.36 87.36 0 0 1 7.09 5.62z"/><path class="cls-1" d="M103.72 73a.37.37 0 0 1-.44.41 4.73 4.73 0 0 1 .38-.69.94.94 0 0 1 .06.28z"/><path class="cls-1" d="M103 71.85a3.65 3.65 0 0 1 .31-.43 4.34 4.34 0 0 1 .35 1.33 4.73 4.73 0 0 0-.38.69.37.37 0 0 1-.41-.31 2.42 2.42 0 0 0-.21-.66c.11-.23.24-.47.34-.62z"/><path class="cls-1" d="M103.31 71.42a3.65 3.65 0 0 0-.31.43c-.87-2.61-3.18-3.2-2-6.38a2.44 2.44 0 0 0 .41-.18 4.27 4.27 0 0 0 .8 4.23 7.31 7.31 0 0 1 1.1 1.9z"/><path class="cls-1" d="M103 71.85c-.1.18-.23.39-.34.62-.48-1.46-1.48-2.51-2.12-4a3.59 3.59 0 0 1 .13-2.87 1.69 1.69 0 0 0 .36-.13c-1.21 3.18 1.1 3.77 1.97 6.38zM102.43 83.26c-.07-.16-.12-.31-.17-.46a.58.58 0 0 1 .23 0 .48.48 0 0 1 .46.31.54.54 0 0 1-.21.59h-.1a2.56 2.56 0 0 1-.21-.44z"/><path class="cls-1" d="M102.87 73.13a.37.37 0 0 0 .41.31 12.13 12.13 0 0 0-.33 9.64.48.48 0 0 0-.46-.31.58.58 0 0 0-.23 0 12 12 0 0 1-.62-2.41.49.49 0 0 0 0-.34 12.41 12.41 0 0 1 1.07-7.58 2.42 2.42 0 0 1 .16.69zM92.23 96.82a.2.2 0 0 0 0-.26c-1.31-6.56 4.44-11.69 10.2-13.28a2.56 2.56 0 0 0 .21.44c-2.54 1.61-5.2 2.44-7.2 4.87S93 93.77 92.85 97c0 .54-.82.84-1.1.33.15-.11.28-.26.43-.39a.16.16 0 0 0 .05-.12z"/><path class="cls-1" d="M102.43 83.26C96.67 84.87 90.92 90 92.18 96.54a.2.2 0 0 0-.13-.08 1.89 1.89 0 0 0-.66-.1 8.47 8.47 0 0 1 .89-6.59.35.35 0 0 0 .13-.26c2-3.64 6.1-6.56 9.82-6.69.08.18.13.28.2.44zM101.1 139.75a11.09 11.09 0 0 1-1-.46c.31-.15.59-.33.9-.51a1 1 0 0 1 .36-.13 6.81 6.81 0 0 0 .74.31 1 1 0 0 1 0 1.18z"/><path class="cls-1" d="M102.1 140.14a.57.57 0 0 1-.23.2c-14 8.49-31.58 4.26-47.06 4.28a.67.67 0 0 1-.59-.28c.23-.15.43-.31.67-.49 14.43-.76 33.32 4.21 46.19-4.1zM102.05 139a6.81 6.81 0 0 1-.74-.31.8.8 0 0 1 .74.31z"/><path class="cls-6" d="M101.64 80.39a12 12 0 0 0 .62 2.41c-3.72.13-7.77 3-9.82 6.69a.3.3 0 0 0 0-.16 11.17 11.17 0 0 0-1.74-3.1 24.14 24.14 0 0 0 10.84-5.56.47.47 0 0 0 .1-.28z"/><path class="cls-1" d="M101.05 65.47a1.69 1.69 0 0 1-.36.13 5.2 5.2 0 0 1 .51-1 .43.43 0 0 0 .26-.13.22.22 0 0 1 .18.29 5.14 5.14 0 0 0-.18.56 2.44 2.44 0 0 1-.41.15zM101.59 80.05a.49.49 0 0 1 0 .34.78.78 0 0 1 0-.34z"/><path class="cls-1" d="M78.29 86.59a9.9 9.9 0 0 0-2.31-1 49.51 49.51 0 0 0 11.84-1.08c4.64-1.1 8.72-3.26 13.18-4.74a.5.5 0 0 1 .59.25.78.78 0 0 0 0 .34.47.47 0 0 1-.13.28 24.14 24.14 0 0 1-10.84 5.56c-.15-.2-.33-.41-.51-.61s-.18 0-.13.1a3.49 3.49 0 0 1 .25.59 49.66 49.66 0 0 1-10.43 1.31 11.59 11.59 0 0 0-1.51-1zM101.2 64.55a.22.22 0 0 1 .26-.11.43.43 0 0 1-.26.13z"/><path class="cls-7" d="M102.66 72.47a12.41 12.41 0 0 0-1.07 7.58.5.5 0 0 0-.59-.25c-4.46 1.48-8.54 3.64-13.18 4.74A49.51 49.51 0 0 1 76 85.62a5.35 5.35 0 0 0-3.41-.1h-.61a103.86 103.86 0 0 1-11.15-1.23c-3.51-.59-6.16-2.31-9.26-3.56-3.69-5.16-5.38-10.46-3.92-17.49 1.9-9.05 7.87-16.61 13.72-23.48v4a22.93 22.93 0 0 0 7.79 17.94.29.29 0 0 0 .49-.17v-.05a18.66 18.66 0 0 0 1.36-4.23c.36-1.21.77-2.38 1.08-3.62 3.61 6.85 12.74 9.72 21 7.49A17.85 17.85 0 0 0 97 65.16a.83.83 0 0 0 .87 1 10.09 10.09 0 0 0 2.77-.52 3.59 3.59 0 0 0-.13 2.87c.67 1.49 1.67 2.49 2.15 3.96zm-6-3.51c.41-1-1.15-1.54-1.67-.7-1.92 2.95-6.81 4.1-8.66.41-.36-.71-1.66-.41-1.56.41.62 6.26 10 4.36 11.87-.08zM69.57 69a.56.56 0 0 0-.33-.79c-1.92-.39-3.28 1.33-4.82 2.3-3.51 2.23-6.43-1.28-9.35-2.77a.53.53 0 0 0-.7.72 10.08 10.08 0 0 0 8 4.82c2.31.06 6.23-2.28 7.2-4.28z"/><path class="cls-1" d="M101.31 138.65a1 1 0 0 0-.36.13c-.31.18-.59.36-.9.51-1.18-.49-2.18-1-3-1.36-7.61-3.76-16.71-11-16.38-20.25a3.59 3.59 0 0 1 .51-.46c-.25 8.13 7.72 14.82 14 18.59a44.79 44.79 0 0 0 6.13 2.84zM101.2 64.57a5.2 5.2 0 0 0-.51 1 10.09 10.09 0 0 1-2.77.52.83.83 0 0 1-.87-1 3.75 3.75 0 0 0 .33.26.47.47 0 0 0 .72-.21 7.08 7.08 0 0 0 3.1-.57zM100.05 139.29a11.09 11.09 0 0 0 1 .46c-12.87 8.31-31.76 3.34-46.19 4.1A11.84 11.84 0 0 0 56 143c14.7-.79 30.57 4.06 44.05-3.71z"/><path class="cls-1" d="M97.26 64.57a.68.68 0 0 1 .56-.25c.08.07.13.15.21.23a.58.58 0 0 1 0 .66.47.47 0 0 1-.72.21 3.75 3.75 0 0 1-.33-.26.85.85 0 0 1 .28-.59zM97.15 100.74a.65.65 0 0 1 .23-.49c.06 0 .08 0 .13-.07a.36.36 0 0 1 .18.51c-.13.18-.23.36-.36.51a1 1 0 0 1-.18-.43z"/><path class="cls-3" d="M97.05 137.93c.82.39 1.82.87 3 1.36C86.57 147.06 70.7 142.21 56 143a41.94 41.94 0 0 0 5-4.79 104.59 104.59 0 0 0 9-10.55 2 2 0 0 0 1.08-.26 2.52 2.52 0 0 0 1.12-1.69.87.87 0 0 0 .36-.18c2.69-2.67 5.36-5.31 8.1-7.85-.32 9.26 8.78 16.49 16.39 20.25z"/><path class="cls-1" d="M93.57 60.34a.35.35 0 0 0-.21-.1h-.79a23.49 23.49 0 0 1-3.52-10.92c0-.28.41-.28.47 0 .69 6.08 4.43 10.61 8.3 15a.68.68 0 0 0-.56.25 23.71 23.71 0 0 1-3.62-4.12v-.08zM97.51 100.18c-.05 0-.07 0-.13.07a.65.65 0 0 0-.23.49c-.12.17-.25.33-.38.48v-.07a.5.5 0 0 0-.2-.26l.56-.67a.3.3 0 0 1 .38-.04zM97.33 101.2a6.79 6.79 0 0 1-.41.59l-.15-.54c.13-.15.26-.31.38-.48a1 1 0 0 0 .18.43z"/><path class="cls-1" d="M97.26 64.57a.85.85 0 0 0-.23.59A17.85 17.85 0 0 1 93.1 61l.34-.08a.32.32 0 0 0 .2-.48 23.71 23.71 0 0 0 3.62 4.13zM96.92 101.79c-.13.21-.28.39-.41.57a4.25 4.25 0 0 0-.12-.62 2.22 2.22 0 0 0 .38-.49z"/><path class="cls-1" d="M96.39 101.74a6.59 6.59 0 0 1-.42.54 4.49 4.49 0 0 0-.1-.64 7.31 7.31 0 0 0 .64-.72.5.5 0 0 1 .2.26v.07a2.22 2.22 0 0 1-.32.49zM95 68.26c.52-.84 2.08-.3 1.67.7-1.87 4.48-11.25 6.38-11.89.12-.1-.82 1.2-1.12 1.56-.41 1.82 3.69 6.71 2.54 8.66-.41z"/><path class="cls-1" d="M95.85 101.43a.46.46 0 0 1 .66-.51 7.31 7.31 0 0 1-.64.72c0-.08-.02-.13-.02-.21zM96.39 101.74a4.25 4.25 0 0 1 .12.62c-.15.17-.28.38-.43.56a5.37 5.37 0 0 0-.11-.64 6.59 6.59 0 0 0 .42-.54z"/><path class="cls-1" d="M96 102.28a5.37 5.37 0 0 1 .11.64 72.92 72.92 0 0 1-10.69 10.53c-1.26 1.08-2.49 2.16-3.69 3.28v-.07a.51.51 0 0 0-.67-.46c5.17-4.41 10.61-8.56 14.94-13.92z"/><path class="cls-1" d="M95.87 101.64a4.49 4.49 0 0 1 .1.64c-4.3 5.36-9.74 9.51-14.94 13.92a.58.58 0 0 0-.2.18 73.19 73.19 0 0 0-8.54 8.35 5.22 5.22 0 0 0 0-1.18c3.39-4.28 7.95-7.61 12.15-11.1a101.16 101.16 0 0 0 11.43-10.81zM92.85 60.65c-.08-.13-.18-.28-.28-.41h.79a.35.35 0 0 1 .21.1v.08a.32.32 0 0 1-.2.48l-.27.1a2.6 2.6 0 0 0-.25-.35zM93.64 60.45v-.08.08z"/><path class="cls-1" d="M92.85 60.65a2.6 2.6 0 0 1 .25.36c-8.22 2.23-17.35-.64-21-7.49.07-.3.15-.64.2-1 3.24 7.26 11.53 9.31 20.55 8.13z"/><path class="cls-1" d="M71.91 51.37a.45.45 0 0 0-.29.26c-.05.15-.12.28-.18.43a15.14 15.14 0 0 1-.84-7.28.34.34 0 1 1 .69 0c.77 5.62 2.28 11.15 8 13.62 4.23 1.82 8.74 1.74 13.28 1.84.1.13.2.28.28.41-9 1.18-17.31-.87-20.51-8.1a6.63 6.63 0 0 0 .13-.67.42.42 0 0 0-.56-.51zM90.49 86.26h.18a11.17 11.17 0 0 1 1.74 3.1.3.3 0 0 1 0 .16.64.64 0 0 0-.13.26.48.48 0 0 1-.74-.21c-.44-1-.77-2.2-1.23-3.25zM92.31 89.77a.64.64 0 0 1 .13-.26.35.35 0 0 1-.13.26zM92.18 96.56a.2.2 0 0 1 0 .26 1.47 1.47 0 0 1 0-.26z"/><path class="cls-1" d="M91.54 96.82a3.07 3.07 0 0 1-.15-.46 1.89 1.89 0 0 1 .66.1.2.2 0 0 1 .13.08 1.47 1.47 0 0 0 0 .26.16.16 0 0 1 0 .1c-.15.13-.28.28-.43.39a4 4 0 0 1-.21-.47z"/><path class="cls-5" d="M91.54 89.56a.48.48 0 0 0 .74.21 8.47 8.47 0 0 0-.89 6.59c-3 0-6.31 5.07-7.77 6.87-1.1 1.36-2.26 2.71-3.44 4.1-.05-1-.15-2-.23-2.9a33.72 33.72 0 0 0-.28-4.05 8.75 8.75 0 0 0 4-6.89c0-2-1.67-4.28-3.87-5.9a49.66 49.66 0 0 0 10.48-1.28c.49 1.05.82 2.2 1.26 3.25z"/><path class="cls-1" d="M91.75 97.31a75.44 75.44 0 0 0-8.75 9.43c-3.54 4.69-6.79 10.35-11 14.43-.08-.33-.13-.64-.18-.92 2.67-3.46 5.08-6.92 7.67-10.28v.11c.07.53.92.38.92-.13a8.25 8.25 0 0 0 0-1.11c.46-.61.95-1.23 1.46-1.84 2-2.56 6.82-9.31 9.79-10.15a4 4 0 0 0 .09.46z"/><path class="cls-1" d="M91.39 96.36a3.07 3.07 0 0 0 .15.46c-3 .84-7.74 7.59-9.79 10.15-.51.61-1 1.23-1.46 1.84a9 9 0 0 0-.11-1.48c1.18-1.39 2.34-2.74 3.44-4.1 1.46-1.8 4.82-6.87 7.77-6.87zM90.49 86.26h-.18a3.49 3.49 0 0 0-.25-.59c0-.08 0-.15.13-.1s.36.41.51.61c-.08.05-.13.08-.21.08zM79.8 87.59c2.2 1.62 3.87 3.9 3.87 5.9a8.75 8.75 0 0 1-4 6.89 4.4 4.4 0 0 0-.13-.74.22.22 0 0 0-.35-.13c2.17-1.41 3.76-3.61 3.64-6-.31-2.52-2.47-4.57-4.93-5.87.62-.02 1.26-.05 1.9-.05z"/><path class="cls-1" d="M82.83 93.49c.12 2.41-1.47 4.61-3.64 6h-.06a8.26 8.26 0 0 1-7.07 1.23c-7.43-3.08-5.36-13 1.82-13.26.36 0 .74 0 1.13.06h.18a.16.16 0 0 1-.13.17c-3.13.59-6.1 1.88-6.64 5.41s2.36 7.36 6.15 7 9.74-4.41 6.54-8.75a11.55 11.55 0 0 0-5.33-3.79h2.12c2.46 1.36 4.62 3.44 4.93 5.93zM81.18 117.2a3.59 3.59 0 0 0-.51.46v-1a.46.46 0 0 1 .11-.28.58.58 0 0 1 .2-.18.51.51 0 0 1 .67.46v.07c-.13.16-.31.27-.47.47z"/><path d="M81.11 91.38c3.2 4.34-2.77 8.39-6.54 8.75s-6.66-3.44-6.15-7 3.51-4.82 6.64-5.41a.16.16 0 0 0 .13-.17h.59a11.55 11.55 0 0 1 5.33 3.83z" fill="#42beec"/><path class="cls-1" d="M80.83 116.38a.46.46 0 0 0-.11.28v1c-2.74 2.54-5.41 5.18-8.1 7.85a.87.87 0 0 1-.36.18 6.17 6.17 0 0 0 .08-1 73.19 73.19 0 0 1 8.49-8.31zM79.83 109.43a4.7 4.7 0 0 1 .46-.62 8.25 8.25 0 0 1 0 1.11c0 .51-.85.66-.92.13v-.11a2.29 2.29 0 0 1 .46-.51z"/><path class="cls-1" d="M80.18 107.33a9 9 0 0 1 .11 1.48 4.7 4.7 0 0 0-.46.62c0-.51-.08-1-.11-1.51z"/><path class="cls-1" d="M80.18 107.33l-.46.59c-.2-2.44-.36-4.8-.38-7.28a3.75 3.75 0 0 0 .33-.26 33.72 33.72 0 0 1 .28 4.05c.05.95.18 1.92.23 2.9zM79.72 107.92c0 .48.06 1 .11 1.51a2.29 2.29 0 0 0-.41.51 11.74 11.74 0 0 1-.21-1.43z"/><path class="cls-1" d="M79.72 107.92l-.51.59c-.13-1.36-.18-2.72-.23-4.08a23.55 23.55 0 0 1 0-3.56l.41-.23c-.03 2.48.13 4.84.33 7.28zM79.34 100.64l-.41.23a7.38 7.38 0 0 1 .15-1.23.14.14 0 0 1 0-.1h.06a.22.22 0 0 1 .35.13 4.4 4.4 0 0 1 .13.74 3.75 3.75 0 0 1-.28.23zM79.8 87.59h-1.9a15.79 15.79 0 0 0-2.33-1h2.72a11.59 11.59 0 0 1 1.51 1zM79.21 108.51a11.74 11.74 0 0 0 .21 1.43c-2.59 3.36-5 6.82-7.67 10.28a5.9 5.9 0 0 1-.1-.61c0-.23-.05-.44-.1-.67a79 79 0 0 1 7.66-10.43z"/><path class="cls-1" d="M79.13 99.54a.14.14 0 0 0 0 .1 7.38 7.38 0 0 0-.15 1.23 8.61 8.61 0 0 1-5 1.23 8.48 8.48 0 0 1-4.72-1.92 5.78 5.78 0 0 0 0-.72c0-.48-.77-.59-.82-.12a.07.07 0 0 1 0 .07 7.46 7.46 0 0 1-1.87-6.2 7.26 7.26 0 0 1 5-5.82l2.41.15c-7.18.29-9.25 10.18-1.82 13.26a8.26 8.26 0 0 0 6.97-1.26z"/><path class="cls-3" d="M79 104.43c0 1.36.1 2.72.23 4.08a79 79 0 0 0-7.66 10.43c-.69-5.54-1.72-11-2.31-16.56a.25.25 0 0 0-.13-.15c0-.69.08-1.36.1-2a8.48 8.48 0 0 0 4.72 1.92 8.61 8.61 0 0 0 5-1.23 23.55 23.55 0 0 0 .05 3.51z"/><path class="cls-1" d="M75.54 86.59c-.94 0-1.87 0-2.81-.1a.94.94 0 0 1-.36-.18.43.43 0 0 1 .1-.77.56.56 0 0 1 .1 0c1.13 0 2.28.07 3.41.1a9.9 9.9 0 0 1 2.31 1h-2.72zM77.9 87.62h-2.12a.69.69 0 0 1-.13 0 14.72 14.72 0 0 1-2.92-1.05c.94.08 1.87.1 2.81.1a15.79 15.79 0 0 1 2.36.95z"/><path class="cls-1" d="M75.65 87.54a.69.69 0 0 0 .13 0h-.59c0-.08 0-.13-.13-.16a6 6 0 0 0-3.59 0l-2.54-.23c-2.79-.26-9-.44-13.3-2a.23.23 0 0 0-.33-.21h-.08l-.39-.15v-.08c-.72-.8-1.39-1.59-2-2.36 4.28 3 13.17 3.59 17.2 4 .92.11 1.84.18 2.77.21a14.72 14.72 0 0 0 2.85.98z"/><path class="cls-1" d="M75.19 87.57H75c-.39 0-.77-.06-1.13-.06l-2.41-.15a6 6 0 0 1 3.59 0c.09.08.11.13.14.21zM72.57 85.52a5.35 5.35 0 0 1 3.41.1c-1.13-.03-2.28-.05-3.41-.1z"/><path class="cls-1" d="M72.73 86.49c-.93 0-1.85-.1-2.77-.21-4-.38-12.92-.92-17.2-4-.44-.54-.82-1.08-1.21-1.61 3.1 1.25 5.75 3 9.26 3.56A103.86 103.86 0 0 0 72 85.49h.61a.56.56 0 0 0-.1 0 .43.43 0 0 0-.1.77.94.94 0 0 0 .32.23zM72.06 51.78a1 1 0 0 1-.15-.41.42.42 0 0 1 .56.49 6.63 6.63 0 0 1-.13.67c-.1-.26-.2-.53-.28-.75z"/><path class="cls-1" d="M72.34 52.53c0 .33-.13.67-.2 1a2.76 2.76 0 0 1-.39-.71c.1-.34.21-.67.31-1 .08.18.18.45.28.71zM72.29 124.73a6.17 6.17 0 0 1-.08 1 .89.89 0 0 1-.82-.36 2.87 2.87 0 0 0 0-.67c.25-.36.54-.72.84-1.08a5.22 5.22 0 0 1 .06 1.11z"/><path class="cls-1" d="M72.26 123.55c-.3.36-.59.72-.84 1.08v-.33c0-.82-.1-1.67-.18-2.49a.35.35 0 0 0 .18-.11c.18-.15.36-.33.51-.48a19.86 19.86 0 0 1 .33 2.33zM71.39 125.35a.89.89 0 0 0 .82.36 2.52 2.52 0 0 1-1.12 1.69 2 2 0 0 1-1.08.26l.23-.31c.2-.31-.23-.72-.54-.52a4.7 4.7 0 0 0-.74.52 6.31 6.31 0 0 1-2-1.95 1.09 1.09 0 0 0 .08-.15c.21-.44-.28-.9-.64-.64a16.84 16.84 0 0 1-1.72-3.67c.13-.26.23-.51.34-.74a5.63 5.63 0 0 0 .68 1.8c-.33.34 0 .88.49.88 1.74 2.8 4.87 5.75 5.2 2.47zM72.06 51.78c-.1.36-.21.69-.31 1a3.82 3.82 0 0 1-.31-.75c.06-.15.13-.28.18-.43a.45.45 0 0 1 .29-.26 1 1 0 0 0 .15.44z"/><path class="cls-1" d="M71.93 121.17c-.15.15-.33.33-.51.48a.35.35 0 0 1-.18.11c0-.26 0-.52-.08-.77.21-.26.39-.52.59-.77.05.31.1.62.18.95zM71.75 52.81a2.76 2.76 0 0 0 .39.71c-.31 1.24-.72 2.41-1.08 3.62a18.66 18.66 0 0 1-1.36 4.23v.05s0-.05-.05-.1a2.43 2.43 0 0 1-.21-.31c.21-3.01 1.47-5.46 2.31-8.2z"/><path class="cls-1" d="M71.75 120.22c-.2.25-.38.51-.59.77v-.18a1.53 1.53 0 0 0 .43-.59.4.4 0 0 0-.15-.39c-.1 0-.21-.07-.31-.13a7.59 7.59 0 0 1 .44-.79c0 .23.07.44.1.67a5.9 5.9 0 0 0 .08.64zM71.44 52.06a3.82 3.82 0 0 0 .31.75c-.84 2.74-2.1 5.17-2.36 8.2a8.68 8.68 0 0 1-.61-.82c-.21-2.64 1.64-5.77 2.66-8.13z"/><path class="cls-1" d="M71.06 120.25a1.54 1.54 0 0 0 0-.36s0-.08.08-.11.21.08.31.13a.4.4 0 0 1 .15.39 1.53 1.53 0 0 1-.43.59 5.59 5.59 0 0 0-.11-.64zM71.55 118.94a7.59 7.59 0 0 0-.44.79H71c-.67-5.66-1.87-11.27-1.92-17a3.62 3.62 0 0 0 0-.46.25.25 0 0 1 .13.15c.62 5.5 1.65 10.98 2.34 16.52zM71.42 124.63a2.87 2.87 0 0 1 0 .67.57.57 0 0 1 0-.67z"/><path class="cls-1" d="M71.42 124.3v.33a.57.57 0 0 0 0 .67c-.33 3.28-3.46.33-5.2-2.51h.08a3.17 3.17 0 0 0 .66-.16 11.09 11.09 0 0 0 1.85 2.23c1.89 1.8 2-1 1.79-3.2a.65.65 0 0 0 .67.1c.05.87.1 1.72.15 2.54z"/><path class="cls-1" d="M71.16 121c0 .25 0 .51.08.77a.65.65 0 0 1-.67-.1v-.46a4.09 4.09 0 0 0 .62-.38l-.03.17z"/><path class="cls-1" d="M71.06 120.25a5.59 5.59 0 0 1 .08.59 4.09 4.09 0 0 1-.62.38v-.36c0-.13.18-.33.28-.49a.86.86 0 0 1 .26-.12zM71.11 119.73s-.08.06-.08.11a.28.28 0 0 0 0-.11zM71 119.89a1.54 1.54 0 0 1 0 .36.86.86 0 0 0-.31.12 2.31 2.31 0 0 1 .31-.48z"/><path class="cls-5" d="M68.93 87.13l2.54.23a7.26 7.26 0 0 0-5 5.82 7.46 7.46 0 0 0 1.87 6.2c-2.41 16.54-8.17 30.43-21.78 40.78-6.48 2.46-12.64.33-19.4-.44-8.23-.92-16.31-.41-24.35-2.53 3-2.93 7.33-3.88 11.25-5.28a.75.75 0 0 0 .38-1.13.49.49 0 0 0 .31-.21c3.08-4.66 5.59-9.51 9.05-13.94A82.34 82.34 0 0 1 35 105.41a24.49 24.49 0 0 0 .08 3.43.37.37 0 0 0 .74 0A63.79 63.79 0 0 1 42 87.57a.3.3 0 0 0 .05-.21c4.57 1.31 9.74.77 13.41-2a.39.39 0 0 0 .13-.31c4.41 1.64 10.55 1.82 13.34 2.08z"/><path class="cls-1" d="M71 119.84a2.31 2.31 0 0 0-.28.48 1.14 1.14 0 0 0-.31.13c0-.28-.07-.53-.07-.71a1.07 1.07 0 0 1 .64-.06.28.28 0 0 1 .02.16z"/><path class="cls-1" d="M71 119.73a1.07 1.07 0 0 0-.64.06.45.45 0 0 1 0-.18c-.56-4.8-1.46-9.59-1.48-14.41v-.2c.1-.77.18-1.56.23-2.33.03 5.79 1.23 11.4 1.89 17.06zM70.75 120.37c-.1.16-.2.34-.28.49v-.36a1.14 1.14 0 0 1 .28-.13z"/><path class="cls-7" d="M70.57 121.71c.18 2.23.1 5-1.79 3.2a11.09 11.09 0 0 1-1.85-2.23 19.92 19.92 0 0 0 2.39-1c.33-.16.69-.28 1.05-.44a.65.65 0 0 0 .18.41s.02.03.02.06z"/><path class="cls-1" d="M70.52 121.22v.46a.65.65 0 0 1-.18-.41.44.44 0 0 1 .18-.05zM70.52 121.22a.44.44 0 0 0-.15 0 .72.72 0 0 1 .07-.36c.06.14.06.23.08.36z"/><path class="cls-1" d="M70.47 120.86a.72.72 0 0 0-.07.36c-.36.16-.72.28-1.05.44a19.92 19.92 0 0 1-2.39 1 3.13 3.13 0 0 1-.33-.54c1.38-.43 2.61-1.15 3.84-1.64-.03.15 0 .25 0 .38z"/><path class="cls-1" d="M70.37 119.79c0 .18 0 .43.07.71-1.23.49-2.46 1.21-3.84 1.64a3.67 3.67 0 0 1-.31-.51c1-.49 2.1-.95 3.1-1.43a4.54 4.54 0 0 1 .98-.41z"/><path class="cls-3" d="M70.34 119.61a.45.45 0 0 0 0 .18 4.54 4.54 0 0 0-1 .41c-1 .48-2.07.94-3.1 1.43a9.2 9.2 0 0 1-.74-1.61.43.43 0 0 0-.33-.31 55.87 55.87 0 0 0 3.64-14.51c.07 4.8.97 9.61 1.53 14.41z"/><path class="cls-1" d="M69.5 127.55a1.49 1.49 0 0 1-.54-.2 4.7 4.7 0 0 1 .74-.52c.31-.2.74.21.54.52l-.23.31a.89.89 0 0 1-.51-.11zM68.91 61a2.59 2.59 0 0 1-.13-.77 8.68 8.68 0 0 0 .61.82 2.43 2.43 0 0 0 .21.31s.05.07.05.1a.4.4 0 0 1-.67-.18c.02-.12-.05-.22-.07-.28zM69.24 68.19a.56.56 0 0 1 .33.79c-1 2-4.89 4.36-7.2 4.28a10.08 10.08 0 0 1-8-4.82.53.53 0 0 1 .7-.72c2.92 1.49 5.84 5 9.35 2.77 1.58-.97 2.9-2.69 4.82-2.3z"/><path class="cls-1" d="M69.5 127.55a.89.89 0 0 0 .51.11 104.59 104.59 0 0 1-9 10.55A41.94 41.94 0 0 1 56 143c-.38 0-.77 0-1.15.06a.78.78 0 0 0-.59 1.25 26.84 26.84 0 0 1-3.26 1.95c-.92.47-1.77-.69-1.2-1.33a.47.47 0 0 0 .79.33 23 23 0 0 0 1.72-1.56 2.69 2.69 0 0 0 .87-.28.4.4 0 0 0 .08-.64 44 44 0 0 0 8.13-7.62c2.33-2.66 4.63-5.81 7.61-7.81a1.49 1.49 0 0 0 .5.2zM69 61.27a.4.4 0 0 0 .67.18.29.29 0 0 1-.49.17 22.93 22.93 0 0 1-7.79-17.94v-4c.15-.2.33-.41.51-.61s-.08-.92-.49-.69c.04-4.38.59-9.28 3.37-12.08h.38c-2.82 2.49-2.53 8-2.82 11.72-.76 8.98.24 16.33 6.57 22.98.02.06.09.16.09.27zM68.8 99.79c-.12-.13-.28-.28-.41-.41a.07.07 0 0 0 0-.07c0-.47.82-.36.82.12a5.78 5.78 0 0 1 0 .72c-.12-.1-.28-.23-.41-.36z"/><path class="cls-3" d="M69.21 100.15c0 .69 0 1.36-.1 2-.1 0-.18 0-.18.15-.05.87-.07 1.77-.07 2.64v.18a55.87 55.87 0 0 1-3.64 14.51c-.34-.1-.72.05-.7.46a4.78 4.78 0 0 0 .18.77 40.22 40.22 0 0 1-16.09 19.17.39.39 0 0 0-.11-.64c13.18-8.89 19.12-24 20.3-39.68.13.21.29.34.41.44z"/><path class="cls-1" d="M69.09 102.69c0 .77-.13 1.56-.23 2.33 0-.87 0-1.77.07-2.64 0-.13.08-.15.18-.15a3.62 3.62 0 0 1-.02.46zM68.78 60.19a2.59 2.59 0 0 0 .13.77C62.58 54.35 61.58 47 62.34 38c.29-3.69 0-9.23 2.82-11.72a2.36 2.36 0 0 1 .36 0c-3.15 4.3-2.87 12.15-2.61 17.4a29.43 29.43 0 0 0 5.87 16.51zM68.39 99.38c.13.13.29.28.41.41-1.18 15.66-7.12 30.79-20.3 39.68a.46.46 0 0 0-.36 0 14.41 14.41 0 0 1-1.53.66C60.22 129.81 66 115.92 68.39 99.38z"/><path class="cls-4" d="M67 125.4a6.31 6.31 0 0 0 2 1.95c-3 2-5.28 5.15-7.61 7.81a44 44 0 0 1-8.13 7.62c2.18-2.23 4.18-4.69 6.2-7A55.83 55.83 0 0 0 67 125.4z"/><path class="cls-1" d="M66.42 124.61c.36-.26.85.2.64.64a1.09 1.09 0 0 1-.08.15c-.18-.23-.36-.49-.54-.77zM66.6 122.14a3.13 3.13 0 0 0 .33.54 3.17 3.17 0 0 1-.66.16h-.08a10 10 0 0 1-.49-.88.26.26 0 0 1 .16-.12l.43-.21a3.67 3.67 0 0 0 .31.51zM52.45 142.42a3.37 3.37 0 0 0-.87-.18c2.08-2.67 4.51-5.1 6.69-7.64 2.82-3.23 5.33-6.64 8.07-9.92 0 0 0-.05.08-.05.18.28.36.54.54.77a55.83 55.83 0 0 1-7.54 10.35c-2 2.34-4 4.8-6.2 7l-.08-.08a2.51 2.51 0 0 0-.69-.25z"/><path class="cls-3" d="M66.42 124.61l-.08.05c-2.74 3.28-5.25 6.69-8.07 9.92-2.18 2.54-4.61 5-6.69 7.64-.74-.1-1.49-.1-2.23-.18-1.18-.13-2.36-.28-3.56-.33a13.84 13.84 0 0 0 2.76-1.57h.06a40.22 40.22 0 0 0 16.09-19.2 16.84 16.84 0 0 0 1.72 3.67z"/><path class="cls-1" d="M66.29 121.63l-.43.21a.26.26 0 0 0-.16.12 5.63 5.63 0 0 1-.7-1.76 2.19 2.19 0 0 0 .18-.46.43.43 0 0 1 .33.31 9.2 9.2 0 0 0 .78 1.58zM65.7 122a10 10 0 0 0 .49.88c-.46-.04-.82-.58-.49-.88zM65.16 26.3h-.38a3.92 3.92 0 0 1 .36-.33c.2-.15.56.08.38.31a2.36 2.36 0 0 0-.36.02z"/><path class="cls-1" d="M65.22 119.71a2.19 2.19 0 0 1-.18.46c-.11.23-.21.48-.34.74a4.78 4.78 0 0 1-.18-.77c-.02-.38.36-.53.7-.43zM61.37 39a2.44 2.44 0 0 1 0-.54c.41-.23.77.36.49.69s-.36.41-.51.61c0-.26 0-.51.02-.76z"/><path class="cls-6" d="M64.78 26.3C62 29.1 61.45 34 61.37 38.43 47 48.27 36.84 73.75 54.4 85.13h.08c-6 2.1-13.23 1.23-18.18-3-5.71-4.84-6.3-13.87-6.79-20.73a.28.28 0 1 0-.56 0c-.42 7.4.48 15.76 5.71 21.4-20.27-3.54-12.74-31.86-6.07-44.8a.47.47 0 0 0-.08-.54 80.4 80.4 0 0 1 23.32-9.28 87.88 87.88 0 0 1 12.95-1.88z"/><path class="cls-1" d="M53.89 84.31c.28.15.59.28.89.44a.25.25 0 0 1 0 .3 1.82 1.82 0 0 1-.3.11h-.08C36.84 73.75 47 48.27 61.32 38.45a2.44 2.44 0 0 0 0 .54c-5.3 4.56-9.28 10.69-12.23 16.79-4.74 10.46-4.66 18.79 2.23 26.15a5.72 5.72 0 0 0 2.41 2.3z"/><path class="cls-1" d="M61.37 39v.74C55.5 46.6 49.53 54.16 47.63 63.21c-1.46 7 .23 12.33 3.92 17.49-.15-.08-.3-.13-.48-.21s-.13 0-.13.08a3.55 3.55 0 0 0 .43 1.36c-6.89-7.36-7-15.69-2.23-26.15 2.95-6.1 6.93-12.23 12.23-16.78zM54.89 143.85c-.24.18-.44.34-.67.49a.78.78 0 0 1 .59-1.25c.38 0 .77-.06 1.15-.06a11.84 11.84 0 0 1-1.05.82z"/><path class="cls-1" d="M36 83a10.35 10.35 0 0 1-1.31-.18c-5.23-5.64-6.13-14-5.71-21.4a.28.28 0 1 1 .56 0c.49 6.86 1.08 15.89 6.79 20.73 5 4.21 12.13 5.08 18.18 3 .1 0 .23 0 .3-.11l.39-.15a1.89 1.89 0 0 0 .41.18.39.39 0 0 1-.13.31c-3.67 2.74-8.84 3.28-13.41 2a.5.5 0 0 0-.92-.31A15.45 15.45 0 0 1 36 84.18a8.38 8.38 0 0 1-.74-.72h1.18a.16.16 0 0 0 0-.31A3.33 3.33 0 0 1 36 83z"/><path class="cls-1" d="M55.6 85.08a1.89 1.89 0 0 1-.41-.18h.08a.23.23 0 0 1 .33.18zM52.76 82.31c.61.77 1.28 1.56 2 2.36 0 0 .05 0 0 .08-.3-.16-.61-.29-.89-.44l-.11-.08a26.49 26.49 0 0 1-2.41-2.3 3.55 3.55 0 0 1-.43-1.36s.08-.11.13-.08.33.13.48.21c.41.53.79 1.07 1.23 1.61zM54.48 85.16a1.82 1.82 0 0 0 .3-.11c-.07.08-.2.16-.3.11zM53.22 142.78a.4.4 0 0 1-.08.64 2.69 2.69 0 0 1-.87.28 8.07 8.07 0 0 0 .67-.64c.05-.05.13-.1.15-.18a.76.76 0 0 1 .13-.1z"/><path class="cls-1" d="M53.22 142.78a.76.76 0 0 0-.13.1 2.55 2.55 0 0 0-.28.18 8.72 8.72 0 0 1-.9 0 7.39 7.39 0 0 1 .54-.61 2.51 2.51 0 0 1 .69.28z"/><path class="cls-1" d="M53.09 142.88c0 .08-.1.13-.15.18h-.13a2.55 2.55 0 0 1 .28-.18zM52.94 143.06a8.07 8.07 0 0 1-.67.64 2 2 0 0 1-.54.05q.59-.34 1.08-.69z"/><path class="cls-1" d="M52.81 143.06q-.5.34-1.08.69a2.42 2.42 0 0 1-.46 0l.66-.75a8.72 8.72 0 0 0 .88.06z"/><path class="cls-1" d="M52.45 142.42a7.39 7.39 0 0 0-.54.61A8.69 8.69 0 0 1 51 143c.17-.25.38-.48.56-.74a3.37 3.37 0 0 1 .89.16z"/><path class="cls-1" d="M51.91 143l-.66.75c-.26 0-.49 0-.75-.05.16-.26.34-.49.52-.75a8.69 8.69 0 0 0 .89.05zM50.84 144.24c.3-.16.59-.31.87-.49a2 2 0 0 0 .54-.05 23 23 0 0 1-1.72 1.56.47.47 0 0 1-.79-.33.61.61 0 0 1 .26-.24c.3-.14.58-.3.84-.45z"/><path class="cls-1" d="M51.25 143.78a2.42 2.42 0 0 0 .46 0c-.28.18-.57.33-.87.49a3.47 3.47 0 0 1 .41-.49zM51 143c-.18.26-.36.49-.52.75-.59 0-1.15-.16-1.72-.23a54.04 54.04 0 0 1-4.1-.7.49.49 0 0 1-.41-.51 11.66 11.66 0 0 0 1.52-.56c1.2.05 2.38.2 3.56.33.74.08 1.49.08 2.23.18-.16.24-.37.47-.56.74zM51.37 81.93a26.49 26.49 0 0 0 2.41 2.3 5.72 5.72 0 0 1-2.41-2.3z"/><path class="cls-1" d="M51.25 143.78a3.47 3.47 0 0 0-.41.46c-.26.15-.54.31-.8.43a.61.61 0 0 0-.26.24.2.2 0 0 1 .06-.21c.2-.33.43-.64.66-1 .26.05.5.08.75.08zM46.45 141a.49.49 0 0 1 .07-.72s.06-.05.08-.05a14.41 14.41 0 0 0 1.53-.66.46.46 0 0 1 .36 0 .39.39 0 0 1 .11.64c-.54.31-1.08.62-1.65.92a.4.4 0 0 1-.5-.13z"/><path class="cls-1" d="M1.8 136.91c-.13 0-.23-.08-.36-.1 0 .12.08.28.1.41a4.84 4.84 0 0 0-.33.46l.51.15c.05.15.08.31.13.46.1-.1.18-.23.28-.33 8.23 2.59 16.54 2 25.05 2.67 6.69.51 12.89 3.51 19.25.33a.4.4 0 0 0 .57.04c.57-.3 1.11-.61 1.65-.92h-.06a13.84 13.84 0 0 1-2.76 1.57 6.11 6.11 0 0 0-.95 0 .58.58 0 0 0-.57.61c-5.48 1.69-10.84-.38-17.09-.79-8.87-.57-17.64-.34-26.2-2.95A.92.92 0 0 1 .57 137c3.1-3.93 8.41-5.54 13.1-6.57a.91.91 0 0 1 .33 0 .41.41 0 0 0 .46.34.75.75 0 0 1-.38 1.13c-3.92 1.4-8.23 2.35-11.25 5.28z"/><path class="cls-1" d="M46.58 140.19l-.08.05a.49.49 0 0 0-.07.72c-6.36 3.18-12.56.18-19.25-.33-8.51-.65-16.82-.08-25-2.67.23-.26.46-.51.7-.74 8 2.12 16.12 1.61 24.35 2.53 6.71.77 12.87 2.9 19.35.44z"/><path class="cls-1" d="M44.84 141.68a6.11 6.11 0 0 1 .95 0 11.66 11.66 0 0 1-1.52.56.58.58 0 0 1 .57-.56zM41.17 87.05a.5.5 0 0 1 .92.31 6.87 6.87 0 0 1-.92-.28z"/><path class="cls-1" d="M35.66 104.79l.15-.13a.5.5 0 0 0-.05-.79.52.52 0 0 0-.64-.08h-.07a34.4 34.4 0 0 1 6.1-16.76 6.87 6.87 0 0 0 .92.28.3.3 0 0 1-.05.21 63.79 63.79 0 0 0-6.25 21.27.37.37 0 0 1-.74 0 24.49 24.49 0 0 1-.08-3.43zM36.28 83.26c-.1-.08-.18-.16-.28-.23a3.33 3.33 0 0 0 .54.07.16.16 0 0 1 0 .31.44.44 0 0 1-.26-.15z"/><path class="cls-1" d="M36.46 83.41h-1.18l-.28-.2a10.37 10.37 0 0 0 1.26.05.44.44 0 0 0 .2.15z"/><path class="cls-1" d="M36.25 83.26a10.37 10.37 0 0 1-1.25-.05c-.12-.13-.23-.23-.33-.36A10.35 10.35 0 0 0 36 83c.07.1.15.18.25.26zM35.76 103.87a.5.5 0 0 1 .05.79l-.15.13c.03-.31.08-.61.1-.92zM35 104.56v-.72h.07a.52.52 0 0 1 .64.08c0 .31-.07.61-.1.92l-.69.62a7.92 7.92 0 0 1 .08-.9z"/><path class="cls-1" d="M35 83.21l.26.25c-10.48.29-14.79-7.51-15.4-17a.58.58 0 0 0 0-.92c-.41-9.82 2.95-21.2 7.31-27.33a6.38 6.38 0 0 0 .56-.31l.82-.46a.47.47 0 0 1 .08.54c-6.67 12.95-14.2 41.27 6.07 44.86.06.16.17.24.3.37zM35 104.56a7.92 7.92 0 0 0-.05.85 82.34 82.34 0 0 0-11.15 11.25c-3.46 4.43-6 9.28-9 13.94a.49.49 0 0 1-.31.21.57.57 0 0 0-.46-.34.28.28 0 0 1 0-.18c1.16-5.53 5-10.61 8.56-14.91s7.54-8.8 12.49-11.54c-.03.26-.08.49-.08.72z"/><path class="cls-1" d="M28.51 37.45l-.82.46a6.38 6.38 0 0 1-.56.31 8.39 8.39 0 0 1 .64-.84.43.43 0 0 1 .74.07zM19.82 65.55a.58.58 0 0 1 0 .92v-.92z"/><path class="cls-2" d="M27.13 38.22c-4.36 6.13-7.72 17.51-7.31 27.33-2.95-2-6.59-3.1-9.82-4.57a21.89 21.89 0 0 1-5.66-3.53c-4-3.67 4.48-8.69 6.58-10.08 5.16-3.37 10.85-6.05 16.21-9.15z"/><path class="cls-1" d="M14.46 130.81a.41.41 0 0 1-.46-.34.57.57 0 0 1 .46.34zM5.7 49.14c1.1-.92 2.28-1.82 3.48-2.66-1.69 1.56-3.36 3.12-5 4.74a.36.36 0 0 1-.59-.11 5.72 5.72 0 0 1 .49-.51c.51-.48 1.05-.97 1.62-1.46zM1.8 136.91l1 .31c-.24.23-.47.48-.7.74a2.46 2.46 0 0 1-.41-.13 4.69 4.69 0 0 0-.18-.61 2.51 2.51 0 0 1 .29-.31zM2.13 138c-.1.1-.18.23-.28.33-.05-.15-.08-.31-.13-.46a2.46 2.46 0 0 0 .41.13z"/><path class="cls-1" d="M1.44 136.81c.13 0 .23.07.36.1a2.51 2.51 0 0 0-.26.31c-.02-.13-.07-.29-.1-.41zM1.54 137.22a4.69 4.69 0 0 1 .18.61l-.51-.15a4.84 4.84 0 0 1 .33-.46z"/><path class="cls-9" d="M72.9 94.34c-2.21-1.48-1.48-2.58 1.1-3.34.74 1.84-.37 2.21-1.84 3.32"/><path class="cls-10" d="M72.9 94.34c-2.21-1.48-1.48-2.58 1.1-3.34.74 1.84-.37 2.21-1.84 3.32"/><path class="cls-9" d="M73.31 93.92c-.18-.22-1.11-1-.86-1.32a3.88 3.88 0 0 1 1.75-.85l-.93-.53c.6 1.62-.9 1.67-1.45 2.92-.1.24 0 .62.34.59a2.93 2.93 0 0 0 2.57-3.91.78.78 0 0 0-.93-.53c-1.16.34-2.58.8-3 2.09s.93 2.19 1.89 2.51c.62.21.89-.55.57-1zM40.11 51.69c3.92 2 5.09-5.34 3.2-7.79-3 1.32-4.58 5.34-3.2 7.33"/><path class="cls-10" d="M40.11 51.69c3.92 2 5.09-5.34 3.2-7.79-3 1.32-4.58 5.34-3.2 7.33"/><path class="cls-9" d="M40 51.76c1 2.08 3.56-.16 4.12-1.36a7.29 7.29 0 0 0-.33-6.78.56.56 0 0 0-.74-.19 7.13 7.13 0 0 0-3.6 3.9c-.45 1.2-.95 3.43.57 4.07a.2.2 0 0 0 .3-.17 16.13 16.13 0 0 1 .11-3.23 5.84 5.84 0 0 1 3.16-3.61l-.75-.2a6.35 6.35 0 0 1 .57 5 3.58 3.58 0 0 1-1.18 2.09c-.67.52-1.42.09-2.16.28a.14.14 0 0 0-.08.21zM31.93 52.59c-3.63-1.36-4.09-10 .91-10.44 4.54-.91 2.73 7.72.91 10"/><path class="cls-10" d="M31.93 52.59c-3.63-1.36-4.09-10 .91-10.44 4.54-.91 2.73 7.72.91 10"/><path class="cls-9" d="M32.07 52.46c-1.25-1.51-2.17-2.57-2.36-4.63s.6-4.55 2.87-5.12c4.81-1.21 1.66 7.39.87 9.25a.35.35 0 0 0 .55.43c1.82-1.53 2.2-5 2.18-7.2 0-2.46-1.29-3.84-3.74-3.52-2.63.35-3.74 3-3.84 5.36-.07 1.83.85 5.89 3.33 5.75a.19.19 0 0 0 .14-.32z"/></g></g></svg>