<svg xmlns="http://www.w3.org/2000/svg" viewBox="0 0 142.17 149.32"><defs><style>.cls-1{fill:#1d3033;stroke:#1d3033;stroke-linecap:round;stroke-linejoin:round;stroke-width:.66px}.cls-2{fill:#cf6260}.cls-3{fill:#493d58}.cls-4{fill:#fff}.cls-5{fill:none}</style></defs><g id="レイヤー_2" data-name="レイヤー 2"><g id="レイヤー_3" data-name="レイヤー 3"><path class="cls-1" d="M137.91 70.6a39 39 0 0 0-1.23-6.23.12.12 0 0 1 0-.05C135.43 58.65 134 53 132.2 47.58c-3.67-11.41-7.72-25-15.1-34.61a25.63 25.63 0 0 0-9.2-7c-.16-.25-.36-.51-.54-.77 8.61 2 14.3 11.9 17.58 19.23A197.22 197.22 0 0 1 137.09 61c5.82 25.55 8.59 51.85-5.56 75.23a.52.52 0 0 1-.95-.23c0-.08 0-.18.08-.28 10.33-20.05 10.43-41.5 6.56-62.93.05.23.1.46.16.69a.36.36 0 0 0 .71-.1 27.4 27.4 0 0 0-.18-2.78z"/><path class="cls-1" d="M134.68 60.85c-.38-1.66-.82-3.35-1.25-5a61.46 61.46 0 0 1 3.23 8.49.12.12 0 0 0 0 .05q.66 3.1 1.23 6.23a27.4 27.4 0 0 1 .18 2.74.36.36 0 0 1-.71.1c-.06-.23-.11-.46-.16-.69-.66-3.72-1.46-7.46-2.36-11.18a6.88 6.88 0 0 0-.16-.74z"/><path class="cls-2" d="M137.22 72.75c3.87 21.43 3.77 42.88-6.56 62.93 2.1-8.23 0-20.56-7.08-25.89-5.61-4.21-12.71 1.79-17.07 6.28 2.13-5 2.62-11.26.7-16-2.93-7.36-9.26-.87-12.44 2.54a7.73 7.73 0 0 0-2.64-5.36c-1.48-1.43-4.3-2.69-6.28-1.59a.63.63 0 0 0-.28.75c-.2.07-.38.15-.56.23.64-4.44 2.23-9 1.92-13.38 10.77-.29 18.87-12.38 23.53-20.74a58.62 58.62 0 0 0 5.87-17.35c.8-3.95 1.74-8.9 1.49-13.41 2.87 5.36 6.66 10.43 9.61 15.64a91.84 91.84 0 0 1 9.79 25.35z"/><path class="cls-1" d="M136.68 64.37a39 39 0 0 1 1.23 6.23q-.57-3.12-1.23-6.23zM136.66 64.32a61.46 61.46 0 0 0-3.23-8.49 223.84 223.84 0 0 0-8-25c-3.36-8.51-7.9-19.74-16.85-23.89-.2-.33-.43-.66-.66-1A25.63 25.63 0 0 1 117.1 13c7.38 9.56 11.43 23.2 15.1 34.61 1.8 5.39 3.23 11.04 4.46 16.71z"/><path class="cls-1" d="M134.86 61.57c.9 3.72 1.7 7.46 2.36 11.18a91.84 91.84 0 0 0-9.79-25.4c-3-5.21-6.74-10.28-9.61-15.64 0-.54 0-1.08-.13-1.62 5.46 8.7 12.84 19.67 17 30.76a6.88 6.88 0 0 1 .17.72z"/><path class="cls-1" d="M133.43 55.83c.43 1.67.87 3.36 1.25 5-4.15-11.09-11.53-22.06-17-30.76v-.05a6.83 6.83 0 0 0-.2-1.28c5.23 6.41 9.51 14.36 13.25 21.54.92 1.79 1.85 3.61 2.69 5.48-.02.02-.02.04.01.07z"/><path class="cls-3" d="M133.4 55.78c-.84-1.87-1.77-3.69-2.69-5.48-3.74-7.18-8-15.13-13.25-21.54a12 12 0 0 0-.75-2.64c-.1-.25-.61-.38-.66 0s-.1.69-.13 1a.18.18 0 0 0-.15.25.67.67 0 0 0 .1.23c-.31 3.77.13 7.64-.21 11.41A63.53 63.53 0 0 1 110.59 59c-4.36 9.92-12.82 21.2-23.87 23.63a.35.35 0 0 0-.53.23 93 93 0 0 0-3 15.2.85.85 0 0 0 1.28.72c.61-.41 1.18-.74 1.74-1.15-1.2 4.89-2.54 9.92-6.64 13.28a.43.43 0 0 0-.18.35h-.07v-.33c0-.46-.8-.64-.88-.1a78.35 78.35 0 0 1-9.51 26.68c2.16-7.92 2.06-16.53 1.26-24.73a.52.52 0 0 0-.77-.42.38.38 0 0 0-.36-.4c-3.05-.47-6.2-.72-9.28-1a.42.42 0 0 0-.82-.08c-4 11.3-11.45 20.73-19.89 29.06A130.87 130.87 0 0 0 56 108.53c.21-.56-.4-1-.89-.92-3.44-5.23-2.51-11.13 0-16.54a1 1 0 0 0 .36-.74 48.5 48.5 0 0 1 5.53-8.4 64.07 64.07 0 0 0 6.69-2.85c.69-.33.21-1.41-.49-1.2-4.79 1.35-10.4 4.15-15.43 2.79-4.74-1.28-4.48-8.18-3.87-11.84s2.31-7.1 3.44-10.64a.68.68 0 0 0 .53-.49c2.26-8.71 1.29-18.89.67-27.78a.27.27 0 0 0-.54 0c-.51 8.25-1 16.56-1.41 24.81-4.64-6.13-10.38-13-11-20.66-.77-9.36 1.69-18.33 1.89-27.53 2 7.23 9.51 13.3 12.23 20.27 1.74 4.49 1.72 9.85 1.85 14.59.12 3.64-.69 7.89.28 11.43a.55.55 0 0 0 .2.72v.05a.25.25 0 0 0 .42 0c2.17.13 4.35-.46 6.51-.69 2.66-.28 4.61.61 7.12 1.1a.65.65 0 0 0 .8-.59h.48v.33c0 .49.69.46.74 0 .82-6.89.08-13.79.16-20.68h1.35c0 8.33 2.67 18.66 8.41 24.38a.63.63 0 0 0 .59.13 25.51 25.51 0 0 1 2.54 6.43c.84 3.33.84 6.66 1.23 9.99l-.48.39c-.57.43-.08 1.33.56 1l.23-.13c.23.11.59 0 .61-.25a.21.21 0 0 1 0-.13C107.46 62.7 122.04 28.25 108.53 7c9 4.15 13.49 15.38 16.85 23.89a223.84 223.84 0 0 1 8.02 24.89z"/><path class="cls-1" d="M105.49 118.12a17 17 0 0 0 1-2.05c4.36-4.49 11.46-10.49 17.07-6.28 7.11 5.33 9.18 17.66 7.08 25.89 0 .1 0 .2-.08.28s0 .07 0 .13a.59.59 0 0 1-1.13-.31 29.71 29.71 0 0 0-1-14.61c-1.17-3.49-3-10-7.5-10.61-6-.9-11.54 4.92-15.54 8.51a.57.57 0 0 1-.79.05.52.52 0 0 0 .41-.23zM117.82 31.71c.25 4.51-.69 9.46-1.49 13.41a58.62 58.62 0 0 1-5.87 17.35c-4.66 8.36-12.76 20.45-23.53 20.74v-.31c9.82-.69 19.56-14.07 23.56-22.07 4.3-8.28 6.82-21.33 6.2-31.35.36.74.72 1.52 1.13 2.23z"/><path class="cls-1" d="M117.69 30.09c.08.54.1 1.08.13 1.62-.41-.74-.77-1.49-1.13-2.23a8.89 8.89 0 0 0-.08-1.15c.34.56.7 1.12 1 1.71.08.03.08.03.08.05z"/><path class="cls-1" d="M117.46 28.76a6.83 6.83 0 0 1 .2 1.28c-.35-.59-.71-1.15-1-1.71a5.62 5.62 0 0 0 0-.7 9.28 9.28 0 0 1 .8 1.13z"/><path class="cls-1" d="M116.56 27.63c-.13-.15-.26-.3-.38-.46a.21.21 0 0 0-.26 0c0-.34.08-.7.13-1s.56-.25.66 0a12 12 0 0 1 .75 2.64 9.28 9.28 0 0 0-.9-1.18zM116.69 29.48c.62 10-1.9 23.07-6.2 31.35-4 8-13.74 21.38-23.56 22.07a.44.44 0 0 0-.21-.31c11-2.43 19.51-13.71 23.87-23.63A63.53 63.53 0 0 0 115.66 39c.34-3.77-.1-7.64.21-11.41.26.66.51 1.28.82 1.89z"/><path class="cls-1" d="M116.61 28.33a8.89 8.89 0 0 1 .08 1.15c-.31-.61-.56-1.23-.82-1.85a3.37 3.37 0 0 0 0-.48.21.21 0 0 1 .26 0c.12.16.25.31.38.46a5.62 5.62 0 0 1 .1.72z"/><path class="cls-1" d="M115.92 27.15a3.37 3.37 0 0 1 0 .48.67.67 0 0 1-.1-.23.18.18 0 0 1 .1-.25zM108.56 6.92c13.51 21.25-1.07 55.7-21.22 67.88 0-.26 0-.51.08-.77 19-13.1 32.91-46.06 20.32-67.44a8.26 8.26 0 0 1 .82.33z"/><path class="cls-1" d="M108.56 6.92a8.26 8.26 0 0 0-.82-.33 8.26 8.26 0 0 0-.51-.87 2.31 2.31 0 0 1 .67.2c.23.34.46.67.66 1zM107.74 6.59C120.33 28 106.41 60.93 87.42 74a6.09 6.09 0 0 0 .08-1c19.19-15.66 30.83-43.37 19.42-66.8a5.1 5.1 0 0 1 .82.39z"/><path class="cls-1" d="M107.21 5.69a8.26 8.26 0 0 1 .51.87 5.1 5.1 0 0 0-.82-.31c-.15-.36-.33-.71-.51-1.07a.44.44 0 0 1 .36-.18 6.31 6.31 0 0 1 .46.69zM105.34 117.3l-.83.89a.6.6 0 0 0 .11.93.49.49 0 0 1-.44-.75 22.08 22.08 0 0 0 2.46-14.61c-.54-2.71-2.08-6.92-5.61-4.53-2 1.3-3.74 2.89-5.59 4.36a.65.65 0 0 1-.69.07v-.13a5.24 5.24 0 0 0 0-1c3.18-3.41 9.51-9.9 12.44-2.54 1.92 4.79 1.43 11.08-.7 16q-.62.73-1.15 1.31z"/><path class="cls-1" d="M107.36 5.15c.18.26.38.52.54.77a2.31 2.31 0 0 0-.67-.2 6.31 6.31 0 0 0-.44-.66h.18a3.06 3.06 0 0 1 .39.09z"/><path class="cls-1" d="M106.77 5a.44.44 0 0 0-.36.18c-.1-.18-.18-.36-.28-.54s.31-.72.54-.41l.69.89a3.06 3.06 0 0 0-.41-.1zM106.41 5.21c.18.36.36.71.51 1.07a1.57 1.57 0 0 0-.28-.1.57.57 0 0 1-.23-.97zM105.34 117.3q.52-.58 1.17-1.23a17 17 0 0 1-1 2.05l-.46.77a.52.52 0 0 1-.41.23.6.6 0 0 1-.11-.93zM94.77 102.56a5.24 5.24 0 0 1 0 1v.13a.56.56 0 0 1-.16-.9 1.71 1.71 0 0 0 .16-.23z"/><path class="cls-1" d="M87.57 96.13a.26.26 0 0 0-.36-.23.39.39 0 0 0-.62.15c-.34.1-.67.2-1 .31a.63.63 0 0 1 .28-.75c2-1.1 4.8.16 6.28 1.59a7.73 7.73 0 0 1 2.64 5.36 1.71 1.71 0 0 1-.18.2.56.56 0 0 0 .16.9c-.16.41-.85.54-.92 0a8.51 8.51 0 0 0-2.49-5 6.37 6.37 0 0 0-2.67-1.49 8.55 8.55 0 0 0-1.43-.17 2.08 2.08 0 0 0 0-.41c.07-.08.15-.13.21-.21a.26.26 0 0 0 .1-.25zM89.55 18c1.1 4.81 2.17 9.94 1.69 14.92-.77 8.22-4.41 14.84-9.08 21.53a.62.62 0 0 1-.23.18c-.13-.29-.28-.57-.43-.85 5.35-8.36 9-16.61 7.86-26.81-.92-7.87-4.74-16-4.25-24a.39.39 0 0 0 0-.48 15.17 15.17 0 0 1 .23-1.8.51.51 0 0 1 1 0c.9 5.82 1.87 11.54 3.21 17.31z"/><path class="cls-3" d="M89.36 27c1.18 10.2-2.51 18.45-7.86 26.81a96.52 96.52 0 0 1-4.31-8.71 44.78 44.78 0 0 1-2.9-14.44.26.26 0 0 0-.51 0c0 .82-.08 1.67-.08 2.54h-1.35a58.29 58.29 0 0 1 .76-8.93c1.52-8.4 7.39-14.48 12-21.27-.49 8 3.33 16.1 4.25 24z"/><path class="cls-1" d="M87.57 96.13a.26.26 0 0 1-.07.25c-.06.08-.14.13-.21.21v-.49a.74.74 0 0 1 .28.03z"/><path class="cls-1" d="M87.57 96.13a.74.74 0 0 0-.26 0 .3.3 0 0 0-.1-.2.26.26 0 0 1 .36.2zM81.93 54.65c4.77 4.77 6.15 11.82 5.57 18.43-.21.15-.39.31-.57.46-.05-6.41-.51-11.92-4.15-17.12a18.58 18.58 0 0 0-.85-1.77z"/><path class="cls-1" d="M87.5 73.08a6.09 6.09 0 0 1-.08 1l-.49.31v-.8c.18-.2.36-.36.57-.51z"/><path class="cls-1" d="M86.93 74.34l.49-.31c0 .26-.06.51-.08.77-.21.13-.44.25-.64.38a.34.34 0 0 1-.18-.25v-.31c.1-.08.26-.18.41-.28z"/><path class="cls-1" d="M87.34 74.8a.21.21 0 0 0 0 .13c0 .28-.38.36-.61.25.17-.13.4-.25.61-.38zM86.88 96.43a4.27 4.27 0 0 1-.49.28c0-.2.08-.38.13-.56a2.5 2.5 0 0 1 .77-.05v.49c0 .13-.23.25-.36.38a1.3 1.3 0 0 1-.13 0 1.86 1.86 0 0 0 .08-.54z"/><path class="cls-1" d="M87.29 96.59a2.08 2.08 0 0 1 0 .41 1.35 1.35 0 0 0-.33 0c.1-.16.23-.29.33-.41zM87.19 95.9a.3.3 0 0 1 .1.2 2.5 2.5 0 0 0-.77.05.08.08 0 0 0 0-.08z"/><path class="cls-1" d="M86.78 97.1l.13-.13a1.35 1.35 0 0 1 .33 0c-.38 5.51-1.89 11.94-7.05 14.76a.61.61 0 0 1-.87-.54.43.43 0 0 1 .18-.35c4.1-3.36 5.44-8.39 6.64-13.28a5.31 5.31 0 0 0 .64-.46zM87.19 95.9l-.62.15a.39.39 0 0 1 .62-.15zM86.93 83.21c.31 4.43-1.28 8.94-1.92 13.38a5.75 5.75 0 0 0-.92.41c.48-4.67 2-9.1 2.43-13.79h.41z"/><path class="cls-1" d="M86.93 82.92v.29h-.41v-.29a2.48 2.48 0 0 0 .38 0zM86.93 73.54v.8c-.15.1-.31.2-.46.28 0-.21 0-.44-.08-.67.18-.12.36-.28.54-.41z"/><path class="cls-1" d="M86.93 73.54c-.18.13-.36.29-.54.41-.38-3.28-.38-6.61-1.15-9.84a25.51 25.51 0 0 0-2.54-6.43.51.51 0 0 0 .3-.68c-.07-.2-.18-.41-.25-.59 3.67 5.21 4.13 10.72 4.18 17.13zM86.93 82.9a2.48 2.48 0 0 1-.38 0v.29a.3.3 0 0 1 0-.57 1.84 1.84 0 0 0 .25 0 .44.44 0 0 1 .13.28zM86.93 97l-.13.13v-.16a1.3 1.3 0 0 0 .13.03zM86.88 96.43a1.86 1.86 0 0 1-.08.51 2.4 2.4 0 0 1-.46 0 1.67 1.67 0 0 0 0-.18 4.27 4.27 0 0 0 .54-.33z"/><path class="cls-1" d="M86.8 96.94v.16a5.31 5.31 0 0 1-.62.49 6 6 0 0 0 .18-.7 2.4 2.4 0 0 0 .44.05zM86.72 82.59a1.84 1.84 0 0 1-.25 0 .3.3 0 0 0 0 .57c-.38 4.69-2 9.12-2.43 13.79a4.63 4.63 0 0 0-.54.28c.15.1.33.18.48.28A3.8 3.8 0 0 0 84 98a3 3 0 0 1 .41-.25c.16.07.28.18.44.25v-.54c.41-.23.82-.41 1.26-.64a1.17 1.17 0 0 0 .2 0 6 6 0 0 1-.18.7c-.56.41-1.13.74-1.74 1.15a.85.85 0 0 1-1.25-.67 93 93 0 0 1 3-15.2.35.35 0 0 1 .58-.21zM86.47 74.62v.31a.34.34 0 0 0 .18.25l-.23.13c-.64.36-1.13-.54-.56-1l.48-.39c.08.26.1.49.13.7z"/><path class="cls-1" d="M86.52 96.15c0 .18-.08.36-.13.56a1.21 1.21 0 0 1-.25.13h-.13a.62.62 0 0 1-.44-.46c.31-.11.64-.21 1-.31a.08.08 0 0 1-.05.08z"/><path class="cls-1" d="M86.39 96.71a1.67 1.67 0 0 1 0 .18 1.17 1.17 0 0 1-.2 0 1.21 1.21 0 0 0 .2-.18zM86 96.82h.13c-.44.23-.85.41-1.26.64 0-.28.08-.59.13-.89.18-.08.36-.16.56-.23a.62.62 0 0 0 .44.48zM85.13 2.44a.39.39 0 0 1 0 .48 4.1 4.1 0 0 1 0-.48z"/><path class="cls-1" d="M85.13 2.44a4.1 4.1 0 0 0 0 .51c-4.61 6.79-10.48 12.87-12 21.27a58.29 58.29 0 0 0-.76 8.93c-.08 6.89.66 13.79-.16 20.68 0 .46-.77.49-.74 0v-.33c.77-10.36-2.28-21.33.7-31.48 2.25-7.64 6.92-13.87 12.2-19.71a.46.46 0 0 1 .76.13zM85 96.59c-.05.3-.11.61-.13.89a5.21 5.21 0 0 0-.49.29l-.38-.21a3.55 3.55 0 0 1 .06-.56 5.75 5.75 0 0 1 .94-.41zM84.88 97.48v.54c-.16-.07-.28-.18-.44-.25a5.21 5.21 0 0 1 .44-.29z"/><path class="cls-1" d="M84.39 97.77A3 3 0 0 0 84 98a3.8 3.8 0 0 1 0-.46z"/><path class="cls-1" d="M84.09 97a3.55 3.55 0 0 0-.06.56c-.15-.1-.33-.18-.48-.28a4.63 4.63 0 0 1 .54-.28zM82.06 56.5a.49.49 0 0 1-.13-.18c-.38-.64-.77-1.31-1.18-2a.32.32 0 0 1 .49-.39s.08.06.1.11c-.15.36.23.64.57.54a18.58 18.58 0 0 1 .82 1.75c.07.18.18.39.25.59a.51.51 0 0 1-.33.67c-.15-.32-.38-.71-.59-1.09z"/><path class="cls-1" d="M81.93 56.32a.49.49 0 0 0 .13.18c.21.38.44.77.64 1.18a.63.63 0 0 1-.59-.13c-5.74-5.72-8.41-16-8.41-24.38 0-.87 0-1.72.08-2.54a.26.26 0 0 1 .51 0 44.78 44.78 0 0 0 2.9 14.44 96.52 96.52 0 0 0 4.31 8.71c-.06.08-.08.13-.13.2s-.05.08 0 .11-.08-.08-.1-.11a.32.32 0 0 0-.49.39c.38.63.77 1.31 1.15 1.95z"/><path class="cls-1" d="M81.93 54.63a3.21 3.21 0 0 0-.57-.54v-.11c0-.03.07-.12.13-.2.16.28.31.56.44.85z"/><path class="cls-1" d="M81.34 54.09a3.21 3.21 0 0 1 .57.54c-.34.1-.72-.18-.57-.54zM67.76 141.11a34.29 34.29 0 0 0 1.12-3.61 78.35 78.35 0 0 0 9.51-26.68c.08-.54.85-.36.88.1v.33c.46 11.87-5.51 23.77-12.85 33a30.94 30.94 0 0 0 1.31-3.08s0-.03.03-.06zM56.79 53.06a7.35 7.35 0 0 0 .2-.71c4-1.13 11.2-2.9 13.89.81a.51.51 0 0 1 .11.31.65.65 0 0 1-.8.59c-2.51-.49-4.46-1.38-7.12-1.1-2.16.23-4.34.82-6.51.69a.29.29 0 0 0 .07-.1 2.34 2.34 0 0 0 .13-.49z"/><path class="cls-1" d="M67.12 140.47c-.82 1.33-1.7 2.67-2.59 4 4-10.25 3.59-20.68 4.58-31.68a.72.72 0 0 0 .26-.44.52.52 0 0 1 .77.42c.8 8.2.9 16.81-1.26 24.73-.58 1-1.15 1.97-1.76 2.97zM69 111.92a.38.38 0 0 1 .36.4.51.51 0 0 0-.26.42.67.67 0 0 1-.23.1 20.09 20.09 0 0 1-9.3-1.2 5.08 5.08 0 0 0 .18-.59.39.39 0 0 0 0-.15c3.06.3 6.25.55 9.25 1.02z"/><path class="cls-1" d="M69.37 112.32a.72.72 0 0 1-.26.44.51.51 0 0 1 .26-.44zM68.88 137.5a34.29 34.29 0 0 1-1.12 3.61 30.62 30.62 0 0 1-2 2.82 31.59 31.59 0 0 0 1.39-3.51c.58-.95 1.15-1.92 1.73-2.92zM46.82 70.44a.76.76 0 0 0 .23-1.44c.69-3.79 2.35-7.3 3.64-10.92a.73.73 0 0 0 .69.16c-1.13 3.54-2.82 7-3.44 10.64s-.87 10.56 3.87 11.84c5 1.36 10.64-1.44 15.43-2.79.7-.21 1.18.87.49 1.2a64.07 64.07 0 0 1-6.73 2.8c0-.06.08-.08.1-.13.39-.49-.28-1.18-.71-.7l-1.18 1.36c-3.57.9-7.23 1-10.18-1.18-3.43-2.53-4-6.69-3.26-11 .26.07.52.12.78.18a.86.86 0 0 0 .27-.02z"/><path class="cls-1" d="M67.73 141.16a30.94 30.94 0 0 1-1.31 3.08.11.11 0 0 0 0 .08c-.67.82-1.33 1.63-2 2.4a27.61 27.61 0 0 0 1.31-2.72 30.62 30.62 0 0 0 2-2.84z"/><path class="cls-1" d="M65.73 144a27.61 27.61 0 0 1-1.33 2.74c-.08.11-.18.21-.26.31a.51.51 0 0 1-.74.05c.43-.87.79-1.77 1.13-2.64.89-1.3 1.77-2.64 2.59-4a31.59 31.59 0 0 1-1.39 3.54z"/><path class="cls-1" d="M64.4 146.72c.67-.77 1.33-1.58 2-2.4a34.8 34.8 0 0 1-2.57 4.4.54.54 0 0 1-.94-.54c.18-.35.36-.74.51-1.1a.51.51 0 0 0 .74-.05c.08-.1.18-.2.26-.31zM63.22 146.32l1.31-1.88c-.34.87-.7 1.77-1.13 2.64a.54.54 0 0 1-.18-.76zM60.12 82.21a7.36 7.36 0 0 0-.87.25l1.18-1.36c.43-.48 1.1.21.71.7 0 0-.07.07-.1.13a8.06 8.06 0 0 0-.92.28z"/><path class="cls-1" d="M60.12 82.21a8.06 8.06 0 0 1 .92-.28 48.5 48.5 0 0 0-5.56 8.35.74.74 0 0 0-.31-.79 45 45 0 0 1 4.95-7.28z"/><path class="cls-1" d="M59.25 82.46a7.36 7.36 0 0 1 .87-.25 45 45 0 0 0-4.95 7.28.65.65 0 0 0-.38-.18 1.57 1.57 0 0 1-.31-.08 45.22 45.22 0 0 1 4.77-6.77zM59.73 110.87a.39.39 0 0 1 0 .15 5.08 5.08 0 0 1-.18.59c-.33-.18-.31-.8.15-.74z"/><path class="cls-1" d="M35.61 143.88a.48.48 0 0 0 .54-.18c.23-.28.44-.59.64-.87 0 0 .05 0 .08-.08.74-.95 1.46-1.92 2.15-2.9 8.44-8.33 15.92-17.76 19.89-29.06a.42.42 0 0 1 .82.08c-.46-.06-.48.56-.15.74-3.95 13.48-13.48 24.39-24.22 33.14-.49.41-1.18-.25-.69-.69.2-.18.38-.36.58-.57a.91.91 0 0 0 .36.39zM56.38 52.52c-.05 0-.11 0-.16.06a.42.42 0 0 0-.33.25c-1-3.54-.16-7.79-.28-11.43-.13-4.74-.11-10.1-1.85-14.59-2.72-7-10.2-13-12.23-20.27a15.26 15.26 0 0 0 .06-1.67.3.3 0 0 0-.44-.28 3.69 3.69 0 0 1-.08-.46c-.07-.61.77-.69 1-.28 2.75 4 4.93 8.4 7.67 12.45 2.43 3.59 5 7.44 6 11.74a65.23 65.23 0 0 1 1.51 13.36c0 3.43.59 7.51-.26 11-.2.02-.43.07-.61.12z"/><path class="cls-1" d="M56.38 52.52c.18-.05.41-.1.61-.17a7.35 7.35 0 0 1-.2.71 1.73 1.73 0 0 1-.38 0z"/><path class="cls-1" d="M56.38 53.11a1.73 1.73 0 0 0 .38 0 2.34 2.34 0 0 1-.13.49.29.29 0 0 1-.07.1h-.18a.69.69 0 0 1-.24 0v-.05a6.82 6.82 0 0 1-.2-.72.42.42 0 0 1 .33-.25c.05 0 .11 0 .16-.06z"/><path class="cls-1" d="M56.38 53.65h.18a.25.25 0 0 1-.42 0 .69.69 0 0 0 .24 0zM55.89 52.83a6.82 6.82 0 0 0 .2.72.55.55 0 0 1-.2-.72zM55.07 107.61c.49-.1 1.1.36.89.92A130.87 130.87 0 0 1 39 139.85c-1 1-2 1.93-2.92 2.88 6.79-11.08 14.25-22.15 19-33.92a.5.5 0 0 0 .28-.77c-.11-.15-.21-.28-.29-.43z"/><path class="cls-3" d="M49.07 81.28c3 2.16 6.61 2.08 10.18 1.18a45.22 45.22 0 0 0-4.77 6.77c-9.69-1.9-17.89-11.12-23.12-19-6-9-8.43-20-10.25-30.48-.08-.46-.65-.41-.85-.13-5.36 7.6-9.56 15.83-13.66 24.13 4.48-19.17 12.89-37.12 26.68-51.39v-.08A106.57 106.57 0 0 0 31 45.22c.82 9.61 4.18 22.4 14.84 25-.72 4.37-.2 8.53 3.23 11.06z"/><path class="cls-1" d="M55.17 89.49a.74.74 0 0 1 .31.79 7.21 7.21 0 0 1-.36.74 1 1 0 0 1-.84.18c.28-.56.58-1.15.89-1.71z"/><path class="cls-1" d="M55.12 91a7.21 7.21 0 0 0 .36-.74 1 1 0 0 1-.36.74zM54.61 108a.55.55 0 0 1 .44-.36c.08.15.18.28.28.43a.5.5 0 0 1-.28.77.48.48 0 0 1-.54-.1c-.05 0-.1-.13-.15-.18s.17-.36.25-.56zM54 90.18c.15-.31.33-.64.51-1a1.57 1.57 0 0 0 .31.08.65.65 0 0 1 .38.18c-.31.56-.61 1.15-.92 1.76a6.63 6.63 0 0 1-.77-.18c.12-.25.28-.53.49-.84z"/><path class="cls-1" d="M54.53 108.71a.48.48 0 0 0 .54.1c-4.72 11.77-12.18 22.84-19 33.92l-.85.76a.57.57 0 0 1 0-.48c5.67-11.87 13.54-22.51 19.13-34.48.08.05.13.13.18.18zM55.07 107.61a.55.55 0 0 0-.44.36c-4.13-4.64-3-11-.36-16.74a1 1 0 0 0 .84-.18c-2.55 5.43-3.48 11.33-.04 16.56z"/><path class="cls-1" d="M54.61 108c-.08.18-.16.33-.23.51-3.44-3.59-3.92-7.92-2.87-12.23a.53.53 0 0 0 .2 0 .46.46 0 0 0 .18-.76s-.08-.08-.13-.08a29.44 29.44 0 0 1 1.72-4.34 6.63 6.63 0 0 0 .77.18c-2.67 5.66-3.77 12.07.36 16.72zM54.48 89.23c-.18.31-.36.64-.51 1-6.1-1-12.82-7.38-16.74-11.66-10.31-10.38-14.35-24.74-16.59-38.73C15 47.65 10.7 56.22 6.34 64.9c.08-.38.15-.76.26-1.15 4.1-8.3 8.3-16.53 13.66-24.15.2-.28.77-.33.85.13 1.82 10.46 4.28 21.51 10.25 30.48 5.23 7.9 13.43 17.12 23.12 19.02z"/><path class="cls-1" d="M54 90.18c-.18.31-.34.59-.49.89C41 88 30.08 72.8 25.74 61.65A85.92 85.92 0 0 1 21.62 48c-.41-2-.8-4-1.11-6-.17-1.15-3.4 3.89-3.43 3.95-4 6.48-7.48 13.25-11 20 .08-.36.16-.7.26-1.06 4.36-8.67 8.66-17.24 14.3-25.05 2.24 14 6.28 28.35 16.59 38.68C41.15 82.8 47.87 89.15 54 90.18zM51.48 55.83c-.25-.36-.53-.72-.82-1.1.39-8.25.9-16.56 1.41-24.81a.27.27 0 0 1 .54 0c.62 8.89 1.59 19.07-.67 27.78a.68.68 0 0 1-.53.49c.18-.54.33-1 .46-1.59a.58.58 0 0 0-.33-.74l-.06-.03zM51.89 95.49a.46.46 0 0 1-.18.76.53.53 0 0 1-.2 0 8.31 8.31 0 0 1 .25-.89c.05.05.08.1.13.13z"/><path class="cls-2" d="M53.48 91.07a29.44 29.44 0 0 0-1.72 4.34c-1.28-1-3.33-.36-4.69.23a11.1 11.1 0 0 0-4.25 3.28c-3.72-2.72-8.9-8.15-13.18-3.64-2.59 2.72-3.26 7.48-3.77 11a58.17 58.17 0 0 0-.46 12.87c-3.43-4.31-8.48-7.38-14-4.62-4.71 2.47-6.76 8.41-7.61 13.76C1.45 108.12 1.6 86.38 6.08 66c3.52-6.77 7-13.54 11-20 0-.06 3.26-5.1 3.43-3.95.31 2 .7 4 1.11 6a85.92 85.92 0 0 0 4.12 13.66C30.08 72.8 41 88 53.48 91.07z"/><path class="cls-1" d="M50.69 58a.53.53 0 0 1-.21-.49c0-.38 0-.77.05-1.15a.2.2 0 0 1 0-.1.92.92 0 0 1 .13-.21c.1.08.18.19.26.26a.3.3 0 0 0 .43 0 .28.28 0 0 0 .11-.41.58.58 0 0 1 .33.74c-.13.54-.28 1-.46 1.59a.73.73 0 0 1-.69-.16zM43.2 99.28a.7.7 0 0 0-.2-.23c-.06 0-.13-.08-.18-.13a11.1 11.1 0 0 1 4.25-3.28c1.36-.59 3.41-1.23 4.69-.23a8.31 8.31 0 0 0-.25.89c-1.54.44-3.13.21-4.62 1a12 12 0 0 0-3.77 2.9c-.33.41-1 0-.89-.44l.25.15a.51.51 0 0 0 .72-.63z"/><path class="cls-1" d="M51.51 55.88a.28.28 0 0 1-.11.41c0-.15.05-.31.08-.46zM51 55.8a.87.87 0 0 1 .43 0c0 .15 0 .31-.08.46a.3.3 0 0 1-.43 0c-.08-.07-.16-.18-.26-.26a.81.81 0 0 1 .34-.2z"/><path class="cls-1" d="M50.63 54.73c.29.38.57.74.82 1.1a.87.87 0 0 0-.43 0 2.32 2.32 0 0 1-.41-.48 5.72 5.72 0 0 1 .02-.62z"/><path class="cls-1" d="M50.61 55.32a2.32 2.32 0 0 0 .41.48.81.81 0 0 0-.31.23l-.15-.15a3.53 3.53 0 0 1 .05-.56z"/><path class="cls-1" d="M50.71 56a.92.92 0 0 0-.13.21.2.2 0 0 0 0 .1 2.36 2.36 0 0 1 0-.46zM50.69 58c-1.29 3.65-2.95 7.16-3.64 11h-.06l-.87-.31c1-4.59 3.16-9.2 4.41-12.25 0 .38 0 .77-.05 1.15a.53.53 0 0 0 .21.41zM50.63 54.73a5.72 5.72 0 0 0 0 .59c-2.39-2.72-4.2-6.13-6.59-8.9-2.51-3-4.54-5.87-5-9.89C38 26 39.41 15.38 41.23 5.15a11.35 11.35 0 0 0 .3 1.39c-.2 9.2-2.66 18.17-1.89 27.53.61 7.61 6.36 14.53 10.99 20.66z"/><path class="cls-1" d="M50.61 55.32a3.53 3.53 0 0 0 0 .56C45.71 51 38.9 43.58 38.28 36.53c-.87-10-.82-22.15 2.69-31.73a.35.35 0 0 1 .18-.21 2 2 0 0 0 .08.56C39.41 15.38 38 26 39.07 36.53c.41 4 2.44 6.89 5 9.89 2.34 2.77 4.15 6.18 6.54 8.9zM47.05 69a.76.76 0 0 1-.23 1.47 11 11 0 0 1 .23-1.47z"/><path class="cls-1" d="M46 69.47l.15-.85.87.31h.06a11 11 0 0 0-.23 1.47.86.86 0 0 1-.23 0c-.26-.06-.52-.11-.78-.18.03-.22.08-.5.16-.75z"/><path class="cls-1" d="M46 69.47c0 .25-.1.51-.16.77-10.66-2.62-14-15.41-14.84-25a106.57 106.57 0 0 1 2.36-32.94.5.5 0 0 0 .13-.51c.15-.62.31-1.23.46-1.85s.8-.25.72.21a134.88 134.88 0 0 0-2.18 30.94c.62 10.48 2.69 23.48 13.66 27.55zM42.48 99.33a1.54 1.54 0 0 1 .34-.41s.12.08.18.13a.7.7 0 0 1 .2.23.51.51 0 0 1-.72.66l-.25-.15a.18.18 0 0 1 .05-.2 2.26 2.26 0 0 1 .2-.26z"/><path class="cls-1" d="M42.82 98.92a1.54 1.54 0 0 0-.34.41c-6.12-3.67-10.46-9.28-14.1-.21-2.35 6.44-2.25 14.13-2.2 21-.26-.36-.49-.67-.77-1a58.17 58.17 0 0 1 .46-12.87c.51-3.54 1.18-8.3 3.77-11 4.28-4.48 9.46.95 13.18 3.67z"/><path class="cls-1" d="M42.48 99.33a2.26 2.26 0 0 0-.2.26.18.18 0 0 0-.05.2c-2.11-1.13-4-2.54-6.13-3.69-4.13-2.26-6.33.74-7.41 4.64-1.84 6.77-1.28 13.51-1.92 20.33 0 0 0-.11-.08-.16a6.21 6.21 0 0 0-.51-.72c-.05-6.92-.15-14.61 2.2-21 3.62-9.14 7.98-3.53 14.1.14zM41.23 5.15a2 2 0 0 1-.08-.56.3.3 0 0 1 .44.28 15.26 15.26 0 0 1-.06 1.67 11.35 11.35 0 0 1-.3-1.39zM36.1 142.73c1-.95 1.95-1.88 2.92-2.88-.69 1-1.41 2-2.15 2.9 0 .05 0 .08-.08.08-.41.38-.79.72-1.18 1a.91.91 0 0 1-.36-.39z"/><path class="cls-1" d="M35.61 143.88c.39-.33.77-.67 1.18-1-.2.28-.41.59-.64.87a.48.48 0 0 1-.54.13zM33.46 11.77a.5.5 0 0 1-.13.51c.05-.18.08-.36.13-.51z"/><path class="cls-1" d="M4.88 67.26l-1.69 3.41c-.13.23.2.44.33.21.36-.67.69-1.34 1.05-2a183 183 0 0 0-1.05 61.36c0 .54-.1 1.1-.13 1.62a.39.39 0 0 1-.12-.21 165.29 165.29 0 0 1 .56-64.87c4.28-20.38 12.4-41.4 28.48-55.4a.7.7 0 0 1 1.15.39c-.05.15-.08.33-.13.51s0 .05 0 .08C19.49 26.63 11.08 44.58 6.6 63.75c-.6 1.18-1.16 2.33-1.72 3.51zM26.77 121.07a.46.46 0 0 1 0 .38c-.03-.13 0-.26 0-.38z"/><path class="cls-1" d="M26.69 120.91s0 .11.08.16 0 .25 0 .38a.64.64 0 0 1-.56.36v-1.62a6.21 6.21 0 0 1 .48.72z"/><path class="cls-1" d="M26.18 121.81a.64.64 0 0 0 .56-.36v.49a.51.51 0 0 1-1 0c0-.16 0-.28-.05-.44l.12.13a.61.61 0 0 0 .37.18zM26.18 120.17v1c-.23-.28-.44-.57-.67-.85-.05-.38-.07-.79-.1-1.2.28.38.51.69.77 1.05z"/><path class="cls-1" d="M25.51 120.37c.23.28.44.57.67.85v.59a.61.61 0 0 1-.44-.18l-.12-.13c-.05-.36-.08-.74-.11-1.13z"/><path class="cls-1" d="M3.78 132a.42.42 0 0 0 .43-.46c-.07-.51-.12-1-.18-1.51 1.93-13.41 11-22.3 21.48-9.64 0 .39.06.77.11 1.13-4-4-10.15-9.56-15.46-4-3.9 4.07-5.38 9.69-6 15.15-.08.51-.87.53-.82 0a6.48 6.48 0 0 1 .07-.77.52.52 0 0 0 .37.1z"/><path class="cls-1" d="M25.41 119.17c0 .41.05.82.1 1.2C15.06 107.71 6 116.6 4 130c-.07-.56-.15-1.15-.23-1.72.85-5.35 2.9-11.32 7.64-13.74 5.52-2.75 10.59.32 14 4.63zM6.6 63.75c-.11.39-.18.77-.26 1.15C5.8 66 5.26 67 4.7 68.11c0-.26.1-.54.18-.82.56-1.21 1.12-2.36 1.72-3.54z"/><path class="cls-1" d="M6.34 64.9c-.1.36-.18.7-.26 1.06-.48 1-1 1.94-1.51 2.92 0-.23.08-.49.13-.74C5.26 67 5.8 66 6.34 64.9z"/><path class="cls-1" d="M4.57 68.88c.51-1 1-1.95 1.51-2.92-4.48 20.42-4.63 42.16-2.28 62.33-.1.67-.2 1.31-.28 2a183 183 0 0 1 1.05-61.41zM4.7 68.14c0 .25-.1.51-.13.74-.36.66-.69 1.33-1.05 2-.13.23-.46 0-.33-.21l1.69-3.38c-.08.28-.13.56-.18.82zM4.21 131.52a.42.42 0 0 1-.43.46A18.28 18.28 0 0 1 4 130c.09.53.14 1 .21 1.52z"/><path class="cls-1" d="M3.52 130.24c.08-.64.18-1.28.28-2 .08.57.16 1.16.23 1.72a18.28 18.28 0 0 0-.25 2 .52.52 0 0 1-.39-.12c.03-.5.08-1.06.13-1.6z"/><path class="cls-4" d="M54.75 65.45c-.15 1.69-.61 3.69-.31 5.38"/><path class="cls-5" d="M54.75 65.45c-.15 1.69-.61 3.69-.31 5.38"/><path class="cls-4" d="M54 65a8.52 8.52 0 0 0-.64 5.74 1.15 1.15 0 0 0 1.06.79c1 .12 1.16-1.2 1.16-1.9 0-1.43.5-3 .07-4.41A.91.91 0 0 0 54 65zM65.36 66.06a23.66 23.66 0 0 1-.61 4.77"/><path class="cls-5" d="M65.36 66.06a23.66 23.66 0 0 1-.61 4.77"/><path class="cls-4" d="M64.79 65.9c-.34 1-.53 2-.79 2.95a2.93 2.93 0 0 0 0 2.44.92.92 0 0 0 1.43.18 2.94 2.94 0 0 0 .8-2.33A8.64 8.64 0 0 0 66 65.9a.61.61 0 0 0-1.16 0z"/></g></g></svg>