<svg xmlns="http://www.w3.org/2000/svg" viewBox="0 0 142.23 145.68"><defs><style>.cls-1{fill:#1d3033;stroke:#1d3033;stroke-linecap:round;stroke-linejoin:round;stroke-width:.66px}.cls-2{fill:#818e30}.cls-3{fill:#74b65f}.cls-6{fill:#dadada}.cls-7{fill:#2e5731}.cls-8{fill:#f7e5d7}.cls-9{fill:#e98d4b}.cls-11{fill:#ec7b7b}.cls-12{fill:#f9cfb3}.cls-13{fill:none}</style></defs><g id="レイヤー_2" data-name="レイヤー 2"><g id="レイヤー_3" data-name="レイヤー 3"><path class="cls-1" d="M135.15 57.62v-.23a1.21 1.21 0 0 0-.23.18 4.39 4.39 0 0 0-1-.18v.92c-.13.08-.23.18-.36.26a1.53 1.53 0 0 1 .36.07 68.17 68.17 0 0 1-.54 8.36 5.39 5.39 0 0 0-.93-1 58.45 58.45 0 0 0 .21-8.58 1.21 1.21 0 0 1 1.23-1.23c3.23.41 6.92 2.33 7.79 5.79.85 3.23-1.2 5.82-4.46 6.28a.43.43 0 0 1-.33-.79c2-1.49 3.84-3.44 2-5.87a7.37 7.37 0 0 0-3.82-2.64c.06-.47.06-.91.08-1.34zM125.74 18.17c7.85-1.33 13.77 4.23 13.44 12.12-.26 6.59-7.39 12.44-13.87 13.33a.88.88 0 0 0-.21-.74 13.52 13.52 0 0 0 3.31-1l.41.23a.34.34 0 0 0 .46-.46.57.57 0 0 0-.08-.13 20.29 20.29 0 0 0 3.36-2 1.48 1.48 0 0 0 .49-.08.24.24 0 0 0 .18-.23V39a14.14 14.14 0 0 0 4.28-5.12c3.41-8-2.46-17-11.56-15 3.23 6-6.61 10.79-8.51 15.71-1.23 3.1 1.69 7.08 5 8.31a1.67 1.67 0 0 0 0 .31l-.38.44a9.44 9.44 0 0 1-4.31-2.93c.08-.15.16-.28.23-.43a.43.43 0 0 0-.74-.44.19.19 0 0 0-.05.1 5.58 5.58 0 0 1-.92-4.56c1.53-5.82 11.71-9.74 8.92-16.33a.78.78 0 0 1 .55-.89z"/><path class="cls-1" d="M126 18.94c9.1-2.08 15 7 11.56 15a14.14 14.14 0 0 1-4.33 5.06 1.49 1.49 0 0 0-.21-.71 13.34 13.34 0 0 0 2.82-3 .7.7 0 0 0 .64-1 9.68 9.68 0 0 0 1.29-5.31c-.21-3.41-1.7-7.2-5-8.69-.28-.13-5.82-1.67-5.61-.67a9.12 9.12 0 0 1 .23 1.18c0 3.13-1.87 5.54-4 7.74-1.61 1.7-3.84 3.46-4.82 5.64-1.77 4 1.69 6.67 4.82 7.92a.89.89 0 0 1-.28 0 .7.7 0 0 0-.72.72c-3.28-1.23-6.2-5.21-5-8.31 1.95-4.78 11.79-9.51 8.61-15.57z"/><path class="cls-2" d="M137.77 29.09a9.68 9.68 0 0 1-1.29 5.31 1.2 1.2 0 0 0-.12-.21 7.24 7.24 0 0 0-1.16-1 12.74 12.74 0 0 0-1.38-1.2.53.53 0 0 0-.8.58c.21 1.08 1.57 2 2.36 2.64a.74.74 0 0 0 .46.21 13.34 13.34 0 0 1-2.82 3l-.05-.11c-.2-.41-1.23-1-1.2-1.48a1.26 1.26 0 1 0-1.59 1.17c.46.15.84.9 1.28 1.15l.28.16a16.39 16.39 0 0 1-2.92 1.56c-.23-.41-.46-.82-.69-1.26a.75.75 0 0 0-1.28.77 3.43 3.43 0 0 0 .76 1 14.63 14.63 0 0 1-4.2.89c-3.13-1.25-6.59-4-4.82-7.92 1-2.18 3.21-3.94 4.82-5.64 2.08-2.2 4-4.61 4-7.74a9.12 9.12 0 0 0-.23-1.18c-.21-1 5.33.54 5.61.67 3.28 1.43 4.77 5.22 4.98 8.63z"/><path class="cls-1" d="M136.48 34.4a.7.7 0 0 1-.64 1c.23-.34.44-.67.64-1z"/><path class="cls-1" d="M136.36 34.19a1.2 1.2 0 0 1 .12.21c-.2.33-.41.66-.64 1a.74.74 0 0 1-.46-.21c-.79-.66-2.15-1.56-2.36-2.64a.53.53 0 0 1 .8-.58 12.74 12.74 0 0 1 1.38 1.2 7.24 7.24 0 0 1 1.16 1.02zM135.15 57.39v.23a.64.64 0 0 0-.23 0 1.21 1.21 0 0 1 .23-.23z"/><path class="cls-1" d="M135.15 57.62c0 .43 0 .87-.05 1.31a6.46 6.46 0 0 0-1.15-.29v-.33c.33-.26.64-.51 1-.74a.64.64 0 0 1 .2.05zM133.13 138.21a20.62 20.62 0 0 0 .79-3v-.1a6.1 6.1 0 0 0 .41-.87l.25-.08c-.05-.05-.13-.12-.18-.18a.87.87 0 0 0 0-.28c-.1 0-.2 0-.28.05a1.53 1.53 0 0 1-.18-.18c0 .08-.05.16-.07.26a8.29 8.29 0 0 0-1.36.44.41.41 0 0 0-.18.05 53.91 53.91 0 0 0-5.61 2.07.37.37 0 0 1 0-.18c2.56-.94 4.87-2.35 7.54-3a.48.48 0 0 1 .59.59c-.36 1.41-1.85 3-1.29 4.51.13.34-.3.49-.53.31a.27.27 0 0 1-.13-.13c.15-.08.2-.18.23-.28z"/><path class="cls-1" d="M134.92 57.57c-.33.23-.64.48-1 .74v-.92a4.39 4.39 0 0 1 1 .18zM134.61 134.18l-.25.08c0-.1 0-.18.07-.26s.13.13.18.18z"/><path class="cls-1" d="M134.48 133.72a.87.87 0 0 1 0 .28l-.23-.23c.03-.02.13-.02.23-.05zM134.2 133.77l.23.23c0 .08-.05.16-.07.26a4.61 4.61 0 0 0-.59.15h-.05c.07-.18.15-.36.2-.51zM134 58.64a6.46 6.46 0 0 1 1.15.29 49.53 49.53 0 0 1-1 9.79 4.7 4.7 0 0 0-.66-1.69 68.17 68.17 0 0 0 .51-8.39z"/><path class="cls-1" d="M133.77 134.41a4.61 4.61 0 0 1 .59-.15 6.1 6.1 0 0 1-.41.87.88.88 0 0 0-.18-.72zM134.2 133.77l-.25.08c0-.1.05-.18.07-.26a1.53 1.53 0 0 0 .18.18zM134.1 68.82a4.89 4.89 0 0 1-1.1 4.36 5.35 5.35 0 0 1-2.28 1.3 1.15 1.15 0 0 0 .3-.74 3.68 3.68 0 0 0 2.54-3.18c.18-.59.36-1.21.51-1.82 0 0 .03.05.03.08z"/><path class="cls-1" d="M134.07 68.72c-.15.61-.33 1.23-.51 1.82a4.52 4.52 0 0 0-.31-2.31c.06-.39.11-.77.16-1.18a4.7 4.7 0 0 1 .66 1.67zM133.77 134.41a.88.88 0 0 1 .18.72v.1c-.61 1.08-1.33 2.18-.79 3 0 .1-.08.2-.13.33a1.06 1.06 0 0 1-.36-.46 14.58 14.58 0 0 0 .46-2.28l.31-.07c-.08-.08-.18-.13-.26-.21v-.08c.18-.33.36-.66.54-1 0-.02.02-.05.05-.05zM134 58.31v.33a1.53 1.53 0 0 0-.36-.07c.08-.08.18-.18.36-.26zM133.92 133.85c0 .15-.13.33-.2.51a.92.92 0 0 0-.75-.18 2.08 2.08 0 0 0-.41.11 8.29 8.29 0 0 1 1.36-.44z"/><path class="cls-1" d="M133.77 134.41h-.08c-.03 0 0-.05 0-.05s.08.03.08.05z"/><path class="cls-1" d="M133.72 134.36v.05c-2.44.74-4.64 2-7.08 2.79 0-.15.06-.3.08-.46 1.95-.61 3.74-1.71 5.69-2.43a.41.41 0 0 1 .18-.05 2.08 2.08 0 0 1 .41-.11.92.92 0 0 1 .72.21zM133 70.15c.1-.61.18-1.25.25-1.92a4.52 4.52 0 0 1 .31 2.31v.07a.59.59 0 0 1-.67.39 3.13 3.13 0 0 0 .11-.85z"/><path class="cls-1" d="M133.54 70.61v-.07a3.68 3.68 0 0 1-2.54 3.18 1 1 0 0 0-.05-.39s0-.13-.07-.18a2.72 2.72 0 0 0 .71-.38 3.26 3.26 0 0 0 1.28-1.77.59.59 0 0 0 .67-.39z"/><path class="cls-3" d="M133.69 134.44c-.18.31-.36.64-.54 1v-.48a2.28 2.28 0 0 0-.64.13 1.74 1.74 0 0 0-.15-.13v.15c-2 .46-3.8 1.85-5.82 2.33v-.18c2.51-.8 4.71-2.08 7.15-2.82z"/><path class="cls-1" d="M133.41 67c0 .41-.1.79-.16 1.18a4.52 4.52 0 0 0-.82-1.39v-.85a5.39 5.39 0 0 1 .98 1.06zM133.41 135.7l-.31.07a1.78 1.78 0 0 0 .05-.28c.08.08.18.13.26.21zM133.92 135.23a20.62 20.62 0 0 1-.79 3c-.54-.82.18-1.92.79-3z"/><path class="cls-1" d="M133.25 68.21c-.07.67-.15 1.31-.25 1.92v-.07a3.9 3.9 0 0 0-.62-2.13c0-.39 0-.74.05-1.13a4.52 4.52 0 0 1 .82 1.41zM133.23 39v.18a.24.24 0 0 1-.18.23 1.48 1.48 0 0 1-.49.08 3.38 3.38 0 0 0 .41-.31 1.7 1.7 0 0 0 .26-.18z"/><path class="cls-1" d="M133.23 39a1.7 1.7 0 0 1-.26.18l-.54-.43a3.23 3.23 0 0 0 .59-.46 1.49 1.49 0 0 1 .21.71z"/><path class="cls-3" d="M133.2 134.93v.48a.08.08 0 0 1 0 .05l-.57-.4a2.28 2.28 0 0 1 .57-.13z"/><path class="cls-1" d="M133.13 135.46a.08.08 0 0 0 0-.05v.08z"/><path class="cls-1" d="M133.15 135.49a1.78 1.78 0 0 1-.05.28.88.88 0 0 1-.15 0c.07-.12.12-.25.18-.36z"/><path class="cls-3" d="M133.13 135.46c-.06.11-.11.24-.18.36l-.62.18c0-.28 0-.59.08-.92a.39.39 0 0 1 .15 0z"/><path class="cls-1" d="M133.1 135.77a14.58 14.58 0 0 1-.46 2.28 2.54 2.54 0 0 1 .31-2.23.88.88 0 0 0 .15-.05zM132.43 38.78a6.64 6.64 0 0 1-.66.49l-.28-.16c-.44-.25-.82-1-1.28-1.15a1.26 1.26 0 1 1 1.59-1.23c0 .48 1 1.07 1.2 1.48 0 .06.05.08.05.11a3.23 3.23 0 0 1-.62.46zM133 70.08v.07a3.13 3.13 0 0 1-.13.85.56.56 0 0 1-.49-.54v-2.51a3.9 3.9 0 0 1 .62 2.13z"/><path class="cls-1" d="M132.43 38.78l.54.43a3.38 3.38 0 0 1-.41.31 1.53 1.53 0 0 1-.79-.25 6.64 6.64 0 0 0 .66-.49z"/><path class="cls-3" d="M132.64 138.08a1.06 1.06 0 0 0 .36.46c-1.21 3.26-3.39 5.61-7.56 6-4.46.41-11.26 1.44-15.41-1h.18l.87-.08c3.21 1.13 9.23.57 12 .57 5.2-.03 8.3-1.8 9.56-5.95z"/><path class="cls-3" d="M132.64 138.05c-1.26 4.15-4.36 5.95-9.61 5.95-2.72 0-8.74.56-12-.57l1.51-.15c3 .72 6.72.15 9.62.1 5.35-.13 9.46-2 10.12-7.41l.62-.18a2.54 2.54 0 0 0-.26 2.26zM132.41 134.93a1.74 1.74 0 0 1 .15.13.39.39 0 0 0-.15 0z"/><path class="cls-1" d="M132.48 66v.85a5.05 5.05 0 0 0-4.38-1.67c-7.15.52-5 8.9.26 8.74a.38.38 0 0 0 .12.44 2.89 2.89 0 0 0 2.29.15 1.29 1.29 0 0 1-1.62.29c-.77-.46-1.77-.18-2.69-.52a6.41 6.41 0 0 1-2-1.17c-2.49-2.39-2.23-6.54 1-8a6.68 6.68 0 0 1 7.02.89z"/><path class="cls-1" d="M132.38 70.46a.56.56 0 0 0 .49.54 3.26 3.26 0 0 1-1.26 1.77 2.72 2.72 0 0 1-.71.38 1.26 1.26 0 0 0-2.36.18c-.1.56-2.66-.87-2.87-1.07a4.63 4.63 0 0 1-1.33-2.52c-.57-2.71 2.28-3.89 4.48-3.94a4 4 0 0 1 3.56 2.2c-.02.79-.05 1.61 0 2.46z"/><path class="cls-1" d="M132.43 66.82c0 .39-.05.74-.05 1.13a4 4 0 0 0-3.59-2.15c-2.2 0-5 1.23-4.48 3.94a4.63 4.63 0 0 0 1.33 2.52c.21.2 2.77 1.63 2.87 1.07a1.26 1.26 0 0 1 2.36-.18 20.76 20.76 0 0 0-2.44.62c-.05 0-.07.07-.12.12-5.26.16-7.41-8.22-.26-8.74a5.05 5.05 0 0 1 4.38 1.67z"/><path class="cls-3" d="M132.41 135.08c0 .33 0 .64-.08.92-2.18.72-4.1 1.95-6.41 2.44a.88.88 0 0 1-1-1.08 24 24 0 0 1 1-4v-.08c.49-.64 1-1.23 1.51-1.82a25.1 25.1 0 0 0-1.56 4.82.64.64 0 0 0-.05.23.09.09 0 0 0 0 .08.08.08 0 0 0 0 .08l-.3.07c.07 0 .15.13.23.18a.32.32 0 0 0 0 .18 2.54 2.54 0 0 0-.08.43 2.8 2.8 0 0 0 .69-.13c.06.06.13.08.18.13s0-.1 0-.15c2.07-.45 3.82-1.84 5.87-2.3z"/><path class="cls-1" d="M131.77 39.27a1.53 1.53 0 0 0 .79.25 20.29 20.29 0 0 1-3.36 2 5.46 5.46 0 0 0-.38-.72 16.39 16.39 0 0 0 2.92-1.56zM131 73.72a6.28 6.28 0 0 1-2.41.31l1.13-.39a6.65 6.65 0 0 1-1.43.23c.05 0 .07-.1.12-.12a20.76 20.76 0 0 1 2.44-.62s0 .13.07.18a1 1 0 0 1 .08.41z"/><path class="cls-1" d="M131 73.74a1.15 1.15 0 0 1-.3.74 2.89 2.89 0 0 1-2.29-.15.38.38 0 0 1-.12-.44 6.65 6.65 0 0 0 1.43-.23l-1.13.39a6.28 6.28 0 0 0 2.41-.31z"/><path d="M132.33 136c-.66 5.44-4.77 7.28-10.12 7.41-2.9.05-6.57.62-9.62-.1 2.26-.21 4.64-.59 6.39-2 2.74-2.17 4.74-5.15 6.94-7.94a24 24 0 0 0-1 4 .88.88 0 0 0 1 1.08c2.31-.45 4.23-1.73 6.41-2.45z" fill="#77be61"/><path class="cls-1" d="M129.77 127.85c.36 3.08-2 5.56-3 8.38a17.74 17.74 0 0 1 .72-2.59c1-1.92 2.28-3.84 2-5.77a10.82 10.82 0 0 0-1.48.75l-.26.15c-3.46 2.13-6.38 5.95-8.36 9.38a3.83 3.83 0 0 0-.25-.69 23.73 23.73 0 0 1 4.2-5.51 38.18 38.18 0 0 1 6.05-4.26c.2-.12.35.01.38.16z"/><path class="cls-1" d="M129.56 127.85c.26 1.93-1 3.85-2 5.77.28-.79.59-1.59.89-2.38a3.91 3.91 0 0 0 .34-.75 1.69 1.69 0 0 0 .13-.31 1 1 0 0 0 0-.2 4.58 4.58 0 0 0 .2-.46.57.57 0 0 0 0-.54.17.17 0 0 0-.1-.1h-.05a.84.84 0 0 0-.87-.2 10.82 10.82 0 0 1 1.46-.83zM128.85 41.73l.35-.15a.57.57 0 0 1 .08.13.34.34 0 0 1-.46.46l-.41-.23c.15-.09.28-.16.44-.21zM128.82 40.83a5.46 5.46 0 0 1 .38.72l-.35.15c-.21-.2-.39-.38-.59-.61a4.79 4.79 0 0 0 .56-.26z"/><path class="cls-1" d="M129.13 129a.57.57 0 0 1 0 .54 4.58 4.58 0 0 1-.2.46 2.6 2.6 0 0 0 .18-.56.65.65 0 0 0 .02-.44z"/><path class="cls-3" d="M129.13 129a.65.65 0 0 1 0 .44 2.6 2.6 0 0 1-.18.56 1 1 0 0 1 0 .2 1.58 1.58 0 0 0-.13.31 3.91 3.91 0 0 1-.34.75c-.25.48-.51.94-.76 1.38a18.91 18.91 0 0 0-1.77 3.69 25.1 25.1 0 0 1 1.56-4.82v-.05a18 18 0 0 1 1.46-1.56c-.21-.13-.41-.23-.64-.36 0-.08.05-.13.07-.21l-.15.16-.49-.28a1.9 1.9 0 0 1 1.21-.39h.05s.08 0 .1.1.01.08.01.08z"/><path class="cls-1" d="M129 128.8a1.9 1.9 0 0 0-1.21.39l-.15-.08-.08.2a.08.08 0 0 1 0 .05 5.73 5.73 0 0 0-.64.39c.3-.33.64-.67 1-1l.26-.15a.84.84 0 0 1 .82.2z"/><path class="cls-3" d="M128.31 129.52c.23.13.43.23.64.36a18 18 0 0 0-1.46 1.56c.28-.64.56-1.28.82-1.92z"/><path class="cls-1" d="M128.85 41.7c-.16.05-.29.12-.44.18a3.19 3.19 0 0 1-.8-.59l.65-.23c.2.26.38.44.59.64z"/><path class="cls-1" d="M128.26 41.09l-.65.23a3.43 3.43 0 0 1-.76-1 .75.75 0 0 1 1.28-.77c.23.44.46.85.69 1.26a4.79 4.79 0 0 1-.56.28z"/><path class="cls-3" d="M128.38 129.31c0 .08 0 .13-.07.21a.35.35 0 0 0-.08-.05z"/><path class="cls-3" d="M128.23 129.47a.35.35 0 0 1 .08.05c-.26.64-.54 1.28-.82 1.92v.05c-.54.59-1 1.18-1.51 1.82.28-.84.61-1.66 1-2.51.33-.46.79-.9 1.25-1.33z"/><path class="cls-3" d="M127.74 129.19l.49.28c-.46.43-.92.87-1.33 1.33.2-.49.38-1 .59-1.44a.08.08 0 0 0 0-.05c.1-.05.18-.07.25-.12z"/><path class="cls-1" d="M127.67 132.62c.25-.44.51-.9.76-1.38-.3.79-.61 1.59-.89 2.38a13.85 13.85 0 0 0-1.26 2.77 1.36 1.36 0 0 1-.25.11l.1.1a1.67 1.67 0 0 1-.31 0v-.08a.64.64 0 0 1 .05-.23 18.91 18.91 0 0 1 1.8-3.67zM127.82 128.75l-1 1a8.6 8.6 0 0 0-.88.69 38.85 38.85 0 0 0-5.3 6.82v.05a12.71 12.71 0 0 1-1.07 1.18 2.47 2.47 0 0 0-.11-.36c1.98-3.43 4.9-7.25 8.36-9.38zM127.59 129.11l.15.08c-.07.05-.15.07-.23.12zM127.61 41.32a3.19 3.19 0 0 0 .8.59 13.52 13.52 0 0 1-3.31 1 .64.64 0 0 0-.28-.18 11.31 11.31 0 0 1-1.41-.49 14.63 14.63 0 0 0 4.2-.92zM126.77 136.41a53.91 53.91 0 0 1 5.61-2.07c-1.95.72-3.74 1.82-5.69 2.43.03-.13.05-.25.08-.36z"/><path class="cls-3" d="M127.49 129.36c-.21.49-.39.95-.59 1.44-2.44 2.59-4.31 5.46-6.54 8.15a7.38 7.38 0 0 1-.67.69 5.34 5.34 0 0 0 0-.69l1-1.64v-.05c0-.05.07-.08.1-.1a83.76 83.76 0 0 1 6.08-7.41 5.73 5.73 0 0 1 .62-.39z"/><path class="cls-1" d="M127.54 133.64a17.74 17.74 0 0 0-.72 2.59 3.8 3.8 0 0 1-.54.18 13.85 13.85 0 0 1 1.26-2.77z"/><path class="cls-1" d="M126.82 136.23a.37.37 0 0 0 0 .18l-.51.16a.44.44 0 0 1 0-.16 3.8 3.8 0 0 0 .51-.18z"/><path class="cls-1" d="M126.77 136.41c0 .11 0 .23-.08.36a3 3 0 0 1 .08-.36zM126.77 136.41a3 3 0 0 0-.13.39l-.26.08a.83.83 0 0 0-.17-.16.5.5 0 0 1 .05-.13z"/><path class="cls-1" d="M126.69 136.77c0 .16 0 .31-.08.46a1.33 1.33 0 0 1-.35.13c-.16-.13-.34-.23-.49-.36a1 1 0 0 1 0-.3 1.67 1.67 0 0 0 .31 0l.08.08c0 .08 0 .16-.06.23l.23-.07.18.17c0-.07 0-.17.08-.25s.08-.06.1-.09z"/><path class="cls-1" d="M126.64 136.8c0 .08 0 .18-.08.25l-.18-.17z"/><path class="cls-3" d="M126.61 137.23v.18a.65.65 0 0 1-.21 0s-.07-.07-.12-.1a1.33 1.33 0 0 0 .33-.08zM126.59 137.44v.15c0 .05-.12-.07-.18-.13a.65.65 0 0 0 .18-.02zM126.26 137.36s.07.08.12.1a2.8 2.8 0 0 1-.69.13 2.54 2.54 0 0 1 .08-.43.47.47 0 0 0 .49.2z"/><path class="cls-1" d="M126.38 136.88l-.23.07c0-.07 0-.15.06-.23a.83.83 0 0 1 .17.16zM126 136.52a1.36 1.36 0 0 0 .25-.11.44.44 0 0 0 0 .16.69.69 0 0 0-.13.05zM125.77 137c.15.13.33.23.49.36a.47.47 0 0 1-.49-.2V137z"/><path class="cls-1" d="M126.26 136.57a.5.5 0 0 0-.05.13l-.08-.08a.69.69 0 0 1 .13-.05z"/><path class="cls-3" d="M126.9 130.8c-.34.85-.67 1.67-1 2.51v.08c-2.2 2.79-4.2 5.77-6.94 7.94-1.75 1.39-4.13 1.77-6.39 2a6.3 6.3 0 0 1-1-.26c1.26-.3 2.46-.64 3.64-1a8 8 0 0 0 2.54-.93.1.1 0 0 0 .07 0 2.43 2.43 0 0 0 .36-.16.7.7 0 0 0 .52.18.93.93 0 0 0 .23 0c.43-.05.61-.49.66-.87a3.29 3.29 0 0 0 0-.54 7.38 7.38 0 0 0 .67-.69c2.33-2.8 4.2-5.67 6.64-8.26z"/><path class="cls-1" d="M125.85 136.54v.08a.09.09 0 0 1 0-.08zM125.82 136.62v.08a.08.08 0 0 1 0-.08z"/><path class="cls-1" d="M125.82 136.7a1 1 0 0 0 0 .3v-.05a.32.32 0 0 1 0-.13s0-.07.05-.12z"/><path class="cls-3" d="M125.79 136.7c0 .05-.05.07-.05.12a.32.32 0 0 0 0 .13c-.08 0-.16-.13-.23-.18z"/><path class="cls-1" d="M125.77 137v.13a.32.32 0 0 1 0-.18zM123.31 43.21a.46.46 0 0 0-.59-.13 1.86 1.86 0 0 0-.31-.1.7.7 0 0 1 .72-.72.89.89 0 0 0 .28 0 11.31 11.31 0 0 0 1.41.49.64.64 0 0 1 .28.18.88.88 0 0 1 .21.74 8.77 8.77 0 0 1-1.9.13.51.51 0 0 0-.1-.59z"/><path class="cls-1" d="M125.31 43.62a.57.57 0 0 1-.49.41 4.73 4.73 0 0 1-1.59 0l.08-.08a.35.35 0 0 0 .1-.18 8.77 8.77 0 0 0 1.9-.15zM122.82 43.67a.77.77 0 0 1-.34-.38.46.46 0 0 0 .1-.1c.06 0 .11-.11.16-.11a3 3 0 0 0 .59.13.51.51 0 0 1 .1.54h-.28a.49.49 0 0 1-.33-.08z"/><path class="cls-1" d="M123.41 43.75a.35.35 0 0 1-.1.18l-.08.08c-.2 0-.41 0-.61-.1 0-.08.12-.16.18-.24a.49.49 0 0 0 .31.08zM123.31 43.21a3 3 0 0 1-.59-.13.46.46 0 0 1 .59.13z"/><path class="cls-1" d="M122.8 43.67c-.06.08-.13.16-.18.24l-.54-.18.38-.44a.77.77 0 0 0 .34.38zM122.72 43.08s-.1.06-.16.11a.46.46 0 0 1-.1.1 1.67 1.67 0 0 1 0-.31 1.86 1.86 0 0 1 .26.1zM122.62 43.91c.2.05.41.07.61.1-3 3.43-5.66 7.05-8.28 10.76a.58.58 0 0 0 0-.23.35.35 0 0 0-.34-.36 86.42 86.42 0 0 1 8.01-10.27z"/><path class="cls-1" d="M122.08 43.73l.54.18a86.42 86.42 0 0 0-8 10.27.4.4 0 0 0-.41.36 1.33 1.33 0 0 1 0 .34c-2.05 3-4 6.1-6 9-5.31 7.9-11.77 15-17.56 22.59a.69.69 0 0 0-.2-.26c2.43-3.43 4.87-6.81 7.51-10 8.46-10.49 15.04-22.54 24.12-32.48zM120.64 137.31l-1 1.64a1.47 1.47 0 0 0-.07-.46 12.71 12.71 0 0 0 1.07-1.18z"/><path class="cls-1" d="M119.69 139.64a8.72 8.72 0 0 1-.79.72.46.46 0 0 0-.18-.34 1.52 1.52 0 0 0-.1-.57.53.53 0 0 0 .82-.15l.2-.36a5.34 5.34 0 0 1 .05.7z"/><path class="cls-1" d="M118.77 140.67a.34.34 0 0 0 .13-.28 8.72 8.72 0 0 0 .79-.72 3.29 3.29 0 0 1 0 .54c0 .38-.23.82-.66.87a.93.93 0 0 1-.23 0 .7.7 0 0 1-.52-.18l.41-.15a.22.22 0 0 0 .08-.08zM119.64 139l-.2.36a.53.53 0 0 1-.82.15.17.17 0 0 0 0-.15 4.39 4.39 0 0 0 .38-.36 6 6 0 0 0 .62-.54 1.47 1.47 0 0 1 .02.54z"/><path class="cls-1" d="M119.46 138.13a2.47 2.47 0 0 1 .11.36 6 6 0 0 1-.62.54z"/><path class="cls-1" d="M119.46 138.13l-.51.9a4.39 4.39 0 0 1-.36.28 2.65 2.65 0 0 0-.13-.54c.23-.44.49-.88.75-1.31a3.83 3.83 0 0 1 .25.67z"/><path class="cls-1" d="M112.59 131.7a1.87 1.87 0 0 0-.07-.75c2.23 1.52 5.48 3.77 6.69 6.49-.26.43-.52.87-.75 1.31a.47.47 0 0 0 .08.59 8.63 8.63 0 0 1-.87.57 13 13 0 0 0-2.38-4.36 20.53 20.53 0 0 0-3.64-3 1.35 1.35 0 0 0 .38-.16.65.65 0 0 1 .15-.1h-.89c.13.08.25.18.36.26a1.3 1.3 0 0 1-1.18-2.16 1.25 1.25 0 0 1 .53-.39 2.89 2.89 0 0 0 .77 1.38.19.19 0 0 0 .31 0 1.81 1.81 0 0 0 .15-.43c.13.23.24.49.36.75zM118.9 140.39a.34.34 0 0 1-.13.28.55.55 0 0 0 0-.18.65.65 0 0 0 .13-.1z"/><path class="cls-1" d="M118.9 140.39a.65.65 0 0 1-.15.1 1.26 1.26 0 0 0 0-.44.46.46 0 0 1 .15.34zM118.75 140.49a.55.55 0 0 1 0 .18.22.22 0 0 1-.13.1l-.41.15z"/><path class="cls-1" d="M117.9 140.51s-.12-.3-.18-.46c.18-.05.39-.07.57-.13a.53.53 0 0 1 .46.16 1.26 1.26 0 0 1 0 .44l-.57.41a1.5 1.5 0 0 1-.28-.42z"/><path class="cls-1" d="M118.62 139.46a1.52 1.52 0 0 1 .1.57.53.53 0 0 0-.46-.16c-.18.06-.39.08-.57.13a.1.1 0 0 1 0-.07 8.63 8.63 0 0 0 .87-.57s.03.08.06.1z"/><path class="cls-1" d="M118.59 139.31a.17.17 0 0 1 0 .15s-.08-.05-.08-.1z"/><path class="cls-1" d="M118.59 139.31v.05a.47.47 0 0 1-.08-.59 2.65 2.65 0 0 1 .08.54zM118.23 140.92a2.43 2.43 0 0 1-.36.16c.11-.05.21-.13.31-.18z"/><path d="M117.77 40.8a9.44 9.44 0 0 0 4.31 2.93c-9.1 9.94-15.66 22-24.17 32.45-2.64 3.23-5.08 6.61-7.51 10-.31-.38-.77-.66-1.13-1-.62-.54-1.08-1.23-1.67-1.77 1.8-2.59 3.54-5.2 5.26-7.82 3.64-5.53 8.58-10.64 12.58-15.94 4.56-6 8.95-12.11 12.33-18.85z" fill="#fff"/><path class="cls-1" d="M118.18 140.9c-.1 0-.2.13-.31.18a.1.1 0 0 1-.07 0c-.82.34-1.67.65-2.54.93a40.84 40.84 0 0 1-4.61.61 2.76 2.76 0 0 1-.44-.25 57.56 57.56 0 0 0 7.69-1.88 1.5 1.5 0 0 0 .28.41zM117.46 40.42a4.25 4.25 0 0 1-.25-.39.19.19 0 0 1 .05-.1.43.43 0 0 1 .74.44c-.07.15-.15.28-.23.43z"/><path class="cls-1" d="M117.87 140.46a57.56 57.56 0 0 1-7.69 1.88 2 2 0 0 1-.28-.16.46.46 0 0 0-.28-.1.89.89 0 0 1 .56-.31c2.77-.33 5.13-.61 7.23-1.77h.23c.11.16.18.31.23.46zM117.46 40.42l.31.38c-3.38 6.74-7.79 12.85-12.33 18.87-4 5.3-8.94 10.41-12.58 15.94-1.72 2.62-3.46 5.23-5.26 7.82a3.8 3.8 0 0 0-.39-.33.51.51 0 0 0-.31-.1c1.85-2.59 3.57-5.18 5.28-7.8 2-3.07 4.93-5.61 7.1-8.58s4.31-5.72 6.46-8.59a.87.87 0 0 0 .7-.82v-.1a128.17 128.17 0 0 0 11.02-16.69z"/><path class="cls-3" d="M117.67 139.93a.1.1 0 0 0 0 .07h-.23a1.89 1.89 0 0 0 .23-.07z"/><path class="cls-6" d="M117.67 139.93a1.89 1.89 0 0 1-.21.1 120.32 120.32 0 0 1-22.15 2.82c-6.66.16-13.4-.48-20 0l1.25-1.33a40 40 0 0 0 2.69-3 24 24 0 0 0 3.44 1 17.56 17.56 0 0 0 7.18.13 1 1 0 0 0 .18.18.93.93 0 0 0 1.07.15c2.13-1.1 3.31-6.2 4-8.33a34.5 34.5 0 0 0 .9-3.54 7.07 7.07 0 0 0 1.64-1.51c2.61.33 6.41.41 8.64-1.41s0 0 .05 0l.08-.08a1.46 1.46 0 0 1 .23-.21 6.19 6.19 0 0 0 1.61-1.89 4.52 4.52 0 0 1 2.62 4 12.71 12.71 0 0 0 .2 3 1.25 1.25 0 0 0-.56.35 1.3 1.3 0 0 0 1.18 2.16 20.53 20.53 0 0 1 3.64 3 13 13 0 0 1 2.32 4.41z"/><path class="cls-1" d="M117.21 40a4.25 4.25 0 0 0 .25.39 128.17 128.17 0 0 1-11 16.69 7.93 7.93 0 0 0-.08-1.57A156.57 156.57 0 0 0 117.21 40zM117.44 140.05c-2.1 1.16-4.46 1.44-7.23 1.77a.89.89 0 0 0-.56.31.47.47 0 0 0-.42.41c-11.38 1.79-24 1-34.63 1a7.7 7.7 0 0 0 .7-.7c6.64-.48 13.38.16 20 0a120.32 120.32 0 0 0 22.14-2.79zM111.77 20.53c2.77-4.36 4.82-9.23 4.72-14.48 0-1.72-.15-4.18-1.85-5a.39.39 0 0 0-.3-.51 3.66 3.66 0 0 0-.57 0 .28.28 0 0 1 .36-.11c4.79 1.9 3.26 9.69 1.77 13.46-2.69 6.9-7.15 13.92-13.43 18a.7.7 0 0 0-.21-.21 12 12 0 0 0 1.18-.84h.08c.26.08.54-.25.44-.46 3.12-2.73 5.66-6.52 7.81-9.85z"/><path class="cls-1" d="M116.49 6.05c.1 5.25-1.95 10.12-4.72 14.48-2.15 3.33-4.69 7.12-7.81 9.84a.35.35 0 0 0-.11-.13 1.62 1.62 0 0 1-.23-.18 49.36 49.36 0 0 0 8.51-11.58c2-3.57 6.64-13.41 2.08-17.1a.37.37 0 0 0 .43-.36c1.7.85 1.85 3.31 1.85 5.03z"/><path class="cls-3" d="M117.8 141.1a8 8 0 0 1-2.54.93c.87-.28 1.74-.59 2.54-.93z"/><path class="cls-1" d="M111.52 66.08a.39.39 0 0 0 .41-.36.55.55 0 0 1 0-.18 17.5 17.5 0 0 1 2.77 3.1c.9 1.26 2.82 4.74.8 5.87a.28.28 0 0 1-.41-.13 2.75 2.75 0 0 0 .25-.64.22.22 0 0 0-.25-.28.8.8 0 0 0-.21.05 6.51 6.51 0 0 0-.18-2.18 10.49 10.49 0 0 0-2-3.18c-1.28-1.43-3-2.59-4.13-4.1a.46.46 0 0 0 .15-.23c.67.49 1.54 1.15 2.41 1.9h.05a.86.86 0 0 0 .13.2.21.21 0 0 0 .16.08s.02.08.05.08z"/><path class="cls-1" d="M114.93 73.87v-.36a.8.8 0 0 1 .21-.05.22.22 0 0 1 .25.28 2.75 2.75 0 0 1-.25.64h-.06a2.6 2.6 0 0 1-.15-.51z"/><path class="cls-1" d="M115.05 74.33h.06c-.85 1.57-3.08 2.85-4.36 3.85a50.07 50.07 0 0 1-5.18 3.64 2.2 2.2 0 0 0-.23-.57 78.11 78.11 0 0 0 9.59-7.43 2.6 2.6 0 0 0 .12.51zM114.49 55.44c-.18.26-.36.54-.56.79a8.47 8.47 0 0 0 .25-1.35c.16-.23.31-.47.46-.7a.35.35 0 0 1 .34.36.58.58 0 0 1 0 .23c-.18.23-.34.44-.49.67z"/><path class="cls-1" d="M114.49 55.44c.15-.23.31-.46.46-.67a20.93 20.93 0 0 1-1.48 5.82 28.79 28.79 0 0 0-1.52 5 2.35 2.35 0 0 0-.41-.36c.18-1.87 2.46-7.12 2.95-9.79zM114.9 73.51v.36a78.11 78.11 0 0 1-9.59 7.43 3.57 3.57 0 0 0-.26-.56c1.8-1.36 3.64-2.62 5.44-4 1.31-.95 2.8-2.85 4.41-3.23z"/><path class="cls-7" d="M114.72 71.33a6.51 6.51 0 0 1 .18 2.18c-1.61.38-3.1 2.28-4.38 3.26-1.8 1.35-3.64 2.61-5.44 4A8.42 8.42 0 0 0 99.91 76c3.1-3.84 5.89-7.89 8.66-12 1.15 1.51 2.85 2.67 4.13 4.1a10.49 10.49 0 0 1 2.02 3.23z"/><path class="cls-1" d="M114.64 1a.37.37 0 0 1-.43.36 1.27 1.27 0 0 0-.34-.28.25.25 0 0 1-.15-.23.44.44 0 0 1 .08-.41 3.66 3.66 0 0 1 .57 0 .39.39 0 0 1 .27.56zM114.64 54.18c-.15.23-.3.47-.46.7a1.33 1.33 0 0 0 0-.34.4.4 0 0 1 .46-.36zM113.93 56.23c.2-.25.38-.53.56-.79-.51 2.67-2.77 7.92-2.95 9.74a4.74 4.74 0 0 0-.64-.49 10.93 10.93 0 0 1 1-2.94 54.66 54.66 0 0 0 2.03-5.52z"/><path class="cls-2" d="M114.21 1.38c4.56 3.69-.13 13.53-2.08 17.1a49.36 49.36 0 0 1-8.51 11.58 7.11 7.11 0 0 0-.79-.51.36.36 0 0 0 0-.41C99 22.91 92.75 16 85.27 14.35c.33-.26.69-.46 1-.69C93.93 8.84 104.72.33 114.16 1.38c.02-.03.05 0 .05 0z"/><path class="cls-1" d="M113.82 1.1a1.27 1.27 0 0 1 .34.28c-9.44-1-20.23 7.46-27.84 12.28-.36.23-.72.43-1 .69a4.77 4.77 0 0 0-.51-.13.36.36 0 0 0-.29.64A293.33 293.33 0 0 0 58.2 34.42l-.46.38c-.2-.17-.41-.35-.62-.51 2.41-1.95 4.9-3.82 7.23-5.71A183.56 183.56 0 0 1 91.68 9.66c5.35-3 15-9.87 22-8.79a.25.25 0 0 0 .14.23zM90 87.33a1 1 0 0 0 .38 0 .42.42 0 0 0 .41-.54l-.15-.3c5.79-7.56 12.25-14.69 17.56-22.59 2-2.94 4-6 6-9a8.47 8.47 0 0 1-.25 1.35q-2.54 3.66-5 7.36h-.1c-.2-.06-.44.2-.31.38s.05.08.08.1c-2.77 4.08-5.56 8.13-8.66 12a1.72 1.72 0 0 0-.42-.12c-.3-.08-.4.35-.12.46a.42.42 0 0 1 .2.1 9.73 9.73 0 0 1-.61.79c-8.26 10.13-15.2 21.69-24.48 30.94a.32.32 0 0 1-.54-.1.32.32 0 0 1 .08-.36c5.84-6.25 10.69-13.43 15.66-20.48a.54.54 0 0 0 .27.01z"/><path class="cls-1" d="M113.75.46a.44.44 0 0 0-.08.41c-7-1.08-16.64 5.82-22 8.79a183.56 183.56 0 0 0-27.32 18.92c-2.33 1.89-4.82 3.76-7.23 5.71H57a.15.15 0 0 0 0 .11 57.69 57.69 0 0 0-5.72 5.15c-3.69 3.92-7.36 8-11.07 12-2.08 2.2-4.13 4.45-6.21 6.68-.15-.33-.67-.1-.57.23a2.37 2.37 0 0 0 .13.34q-1.86 1.9-3.76 3.82c-.56.56-1.13 1.1-1.69 1.64a.31.31 0 0 0-.59.13 2.36 2.36 0 0 0-.05.48c-.93.9-1.87 1.75-2.82 2.57C19.55 71.9 13.78 75 7.83 78.1a.13.13 0 0 0-.15 0 .53.53 0 0 1-.54-.1.71.71 0 0 1 .18-.16c12.28-6.66 21.4-15 30.86-25.14 8.74-9.41 17.28-18 27.33-26a229.63 229.63 0 0 1 28.22-19 85.79 85.79 0 0 1 10.35-5.56l3.39-.69c.2 0 .23-.33.1-.46a16.7 16.7 0 0 1 6.18-.53zM112.52 131a1.87 1.87 0 0 1 .07.75c-.12-.26-.23-.52-.33-.77v-.13a.62.62 0 0 0 .21.13zM112.52 130.93a.62.62 0 0 1-.21-.13.93.93 0 0 0 0-.21z"/><path class="cls-8" d="M108.9 63.59q2.5-3.69 5-7.36a54.66 54.66 0 0 1-2.05 5.52 10.93 10.93 0 0 0-1 2.94 8.41 8.41 0 0 0-1.95-1.1z"/><path class="cls-1" d="M112 126a10.55 10.55 0 0 1 .36 4.61 1.57 1.57 0 0 0-.59-.51c-.48-3.75.44-5.33-3.43-7.33a1.41 1.41 0 0 0 .13-.24c1.53.71 3.1 1.63 3.53 3.47zM115.26 142c-1.18.38-2.38.72-3.64 1a5.53 5.53 0 0 1-1-.41 40.84 40.84 0 0 0 4.64-.59z"/><path class="cls-1" d="M111.77 130.06a1.57 1.57 0 0 1 .59.51.93.93 0 0 1 0 .21l-.13-.08a.5.5 0 0 1-.07.64.19.19 0 0 1-.31 0A2.89 2.89 0 0 1 111 130a.8.8 0 0 1 .77.06z"/><path class="cls-1" d="M112.18 130.72l.13.08v.13a1.8 1.8 0 0 0-.13-.21zM112.18 132.26a.65.65 0 0 0-.15.1 1.35 1.35 0 0 1-.38.16c-.11-.08-.23-.18-.36-.26z"/><path class="cls-3" d="M111.62 143.05a6.3 6.3 0 0 0 1 .26l-1.51.15a1.89 1.89 0 0 1-.41-.18z"/><path class="cls-1" d="M111.54 65.18a2.35 2.35 0 0 1 .41.36.55.55 0 0 0 0 .18.39.39 0 0 1-.41.36l-.29-.28h-.05a2 2 0 0 1-.23-1 4.74 4.74 0 0 1 .57.38zM111.77 130.06a.8.8 0 0 0-.77-.06 12.71 12.71 0 0 1-.2-3 4.52 4.52 0 0 0-2.62-4 1.86 1.86 0 0 0 .13-.23c3.9 1.96 2.98 3.54 3.46 7.29z"/><path class="cls-1" d="M111.47 66.05a.21.21 0 0 1-.16-.08.86.86 0 0 1-.13-.2zM110.65 142.64a5.53 5.53 0 0 0 1 .41l-1 .23a3.48 3.48 0 0 1-1-.59h.54c.17-.02.33-.02.46-.05z"/><path class="cls-3" d="M111.08 143.46l-.87.08H109.88c.25-.05.51-.13.79-.18a1.89 1.89 0 0 0 .41.1z"/><path class="cls-1" d="M110.9 64.69a2 2 0 0 0 .23 1c-.87-.75-1.74-1.41-2.41-1.9a1.21 1.21 0 0 0 .18-.23 8.41 8.41 0 0 1 2 1.13zM105.47 43.24a.16.16 0 0 0-.1.13v.15a.45.45 0 0 1-.18-.1c-.23-.16-.18-.54.12-.51a19.48 19.48 0 0 1 4.16.74 5.4 5.4 0 0 0 .85.64.18.18 0 0 0 .28-.15.44.44 0 0 1-.38.61 8.57 8.57 0 0 1-4.41-1 2.32 2.32 0 0 0-.21-.48s-.05-.06-.07-.06a.13.13 0 0 0-.06.03zM110.67 143.28c-.28.05-.54.13-.79.18a1.08 1.08 0 0 1-.34-.23.85.85 0 0 1-.12-.72l.77-.12a2.76 2.76 0 0 0 .44.25c-.13 0-.29 0-.44.05h-.54a3.48 3.48 0 0 0 1.02.59z"/><path class="cls-1" d="M110.18 43.85a1.25 1.25 0 0 1 .18.06.76.76 0 0 1 .23.15.08.08 0 0 1 0 .08.18.18 0 0 1-.28.15 5.4 5.4 0 0 1-.85-.64c.26.08.54.13.72.2zM110.59 44a.76.76 0 0 0-.23-.15 1.25 1.25 0 0 0-.18-.06c-1.94-2.1-3.05-5.33-4.87-7.48a41.34 41.34 0 0 0-6.15-6.85.7.7 0 0 0 0-.33 17.61 17.61 0 0 1 2.9 2.31l-.18.15a.23.23 0 0 0 .28.36l.26-.15c3.58 3.47 6.18 8.2 8.17 12.2zM109.93 142.23a2 2 0 0 0 .28.16l-.77.12a.93.93 0 0 1 .16-.35.46.46 0 0 1 .33.07z"/><path class="cls-1" d="M110.18 43.85c-.23-.07-.46-.12-.69-.2-1.87-1.67-2.62-4.26-4.16-6.26a74 74 0 0 0-6.4-7.61.24.24 0 0 0 .2-.15.13.13 0 0 0 0-.11 41.34 41.34 0 0 1 6.15 6.85c1.85 2.15 2.96 5.38 4.9 7.48z"/><path class="cls-3" d="M110 143.51a.62.62 0 0 1-.2 0 .09.09 0 0 1 .08 0c.05-.02.12 0 .12 0z"/><path class="cls-1" d="M109.54 143.23a1.08 1.08 0 0 0 .34.23.09.09 0 0 0-.08 0 .62.62 0 0 1-.26-.23z"/><path class="cls-1" d="M109.54 143.23a.62.62 0 0 0 .23.26c-11.48 2.41-24.73 1.72-35.52.72a.45.45 0 0 1-.26-.08c.18-.18.39-.36.56-.56 10.62 0 23.25.79 34.63-1a.53.53 0 0 0 .21.58s.1.08.15.08z"/><path class="cls-1" d="M109.54 143.23c-.05 0-.1 0-.15-.08a.53.53 0 0 1-.21-.58l.24-.06a.85.85 0 0 0 .12.72z"/><path class="cls-1" d="M109.6 142.16a.93.93 0 0 0-.16.35l-.24.06a.47.47 0 0 1 .4-.41zM108.9 63.59a1.21 1.21 0 0 1-.18.23.46.46 0 0 1-.15.23s0-.07-.08-.1c-.13-.18.11-.44.31-.38zM106.29 99.14c2.2 5.46 5.59 17 2.18 23.35l-.39-.15c-.28-.13-.51.26-.23.41a3.16 3.16 0 0 1 .33.21 6.19 6.19 0 0 1-1.61 1.89 7.93 7.93 0 0 0 .59-.71.15.15 0 0 0-.18-.23 1.17 1.17 0 0 0-.2 0c4.25-6.23.74-18.23-.9-24.71 0-.13.05-.26.07-.39a.48.48 0 0 1 .34.33z"/><path class="cls-1" d="M108.34 122.73a1.86 1.86 0 0 1-.13.23 3.16 3.16 0 0 0-.33-.21c-.28-.15 0-.54.23-.41l.39.15a1.41 1.41 0 0 1-.16.24zM106.37 1.28a9.11 9.11 0 0 1 1.2-.36c.13.13.1.43-.1.46l-3.39.69a19.38 19.38 0 0 1 2.29-.79z"/><path class="cls-1" d="M107.39.87a.32.32 0 0 1 .18.05 9.11 9.11 0 0 0-1.2.36A164.39 164.39 0 0 0 90 4.15c-3.23.95-6.64 2.28-9.87 2.46L80 6.53l-.42-.15a.43.43 0 0 1 .42-.31c9.27-1.79 17.83-4.77 27.39-5.2zM105.88 99.25c1.64 6.48 5.15 18.48.9 24.71-.31.07-.59.18-.88.25 3.49-8.33.8-15.4-.28-23.81.08-.4.16-.77.26-1.15z"/><path class="cls-1" d="M106.31 124.52a4.65 4.65 0 0 0 .47-.56 1.17 1.17 0 0 1 .2 0 .15.15 0 0 1 .18.23 7.93 7.93 0 0 1-.59.71 1.46 1.46 0 0 0-.23.21.73.73 0 0 1-.13.1c-.24.13-.41-.08-.44-.31a1.79 1.79 0 0 0 .54-.38z"/><path class="cls-1" d="M105.9 124.21c.29-.07.57-.18.88-.25a4.65 4.65 0 0 1-.47.56 1.79 1.79 0 0 1-.56.33.3.3 0 0 1 0-.23l.15-.38z"/><path class="cls-9" d="M109.47 43.65a19.48 19.48 0 0 0-4.16-.74c-.3 0-.35.35-.12.51a.45.45 0 0 0 .18.1c-.08 1.59.15 3.15.07 4.74a32.54 32.54 0 0 1-.56 4.18 8.85 8.85 0 0 0-1.21-1.15c-.84-.7-1.82-1.28-2.71-1.93s-1.49-1.35-2.28-2c.79-5.56-.65-11.23-2.08-16.58 0-.21-.41-.18-.39.05.39 3.48 1 6.94 1.31 10.43a36.52 36.52 0 0 1 .16 4.79c-.08 3.77-1.62 1.54-3.46 0-4.82-4.23-8.1-10.48-10.85-16.2a23.36 23.36 0 0 0-1.43-6.38.12.12 0 0 0-.23.05 35.46 35.46 0 0 1 .77 5.69.15.15 0 0 0 0 .16v.05a77.92 77.92 0 0 1-1.23 14.92.29.29 0 0 0 0 .21A8.15 8.15 0 0 0 79.12 43c-1-.59-2-1.23-3.08-1.77h-.13a2.32 2.32 0 0 1 0-.46c0-.46-.56-.46-.72-.11a9.6 9.6 0 0 0-.56 4.34c-2.18-3.23-3.92-6.72-6.18-9.9 0 0 0-.05-.07-.05s-.08-.08-.13 0A.21.21 0 0 0 68 35a.06.06 0 0 0 0 .05s-.06.1 0 .18c-.08 4.1-1.77 8.26-1.15 12.33a.25.25 0 0 0 .1.18 33.77 33.77 0 0 1-5.41-7c-1.13-1.85-2.08-4.46-3.69-6l.46-.38a293.33 293.33 0 0 1 26.16-19.5c0 .05.06.05.11.08A29.14 29.14 0 0 1 95 21.58c2.28 2.25 4.1 5 6.33 7.25a8.66 8.66 0 0 0-2.75-.71 2.11 2.11 0 0 0-.48-.47c-.57-.38-1 .49-.52.88.16.1.82 1.4 1.29 1.25a74 74 0 0 1 6.4 7.61c1.58 2 2.33 4.61 4.2 6.26z"/><path class="cls-1" d="M105.55 56.59c.25-.36.53-.69.79-1.05a7.93 7.93 0 0 1 .08 1.57l-.7.92a.88.88 0 0 1-1-.36c.28-.36.54-.67.83-1.08z"/><path class="cls-1" d="M106.42 57.11v.1a.87.87 0 0 1-.7.82zM106.34 125.06l-.08.08h-.05a.73.73 0 0 0 .13-.08zM106.34 55.54c-.26.36-.54.69-.79 1.05a7.19 7.19 0 0 0-.18-1.56v-.15c.07-.41.15-.82.25-1.26a6 6 0 0 1 .72 1.92z"/><path class="cls-7" d="M105.62 100.4c1.08 8.41 3.77 15.48.28 23.81a29 29 0 0 1-3.35 1.07 34.78 34.78 0 0 1-4.34.34c.21-.28.39-.54.57-.8a23.63 23.63 0 0 0 2.82-5.64c.1-.3-.34-.43-.49-.2-1.13 1.51-2 3.2-3 4.77a31.27 31.27 0 0 1-1.88 2.53 13.7 13.7 0 0 0-.38-6.33c0-.07 0-.13-.13-.15a64.91 64.91 0 0 0 8.54-15 32.49 32.49 0 0 0 1.36-4.4z"/><path class="cls-1" d="M105.75 124.85c0 .23.2.44.44.31-2.23 1.82-6 1.74-8.64 1.41.1-.15.23-.28.33-.43 2.8 0 5.36.1 7.87-1.29zM105.83 43.8c1.25 2.92.48 6.64-.16 9.82a2.66 2.66 0 0 0-.41-.64c.59-3.15 1-6.08.29-9.33a.75.75 0 0 0 .28.15zM100 112.11c4.07-6.81 6.25-13.4 6.05-21.37a33.19 33.19 0 0 0-1.23-8.82.5.5 0 0 0 .64 0 .65.65 0 0 0 .15-.1c1.85 4.84 1.46 11.63.38 17-.25 0-.51 0-.48.39l.15 1.15a32.49 32.49 0 0 1-1.38 4.46 64.91 64.91 0 0 1-8.54 15 .35.35 0 0 0-.61.26 3.62 3.62 0 0 1 0 .48 50.17 50.17 0 0 1-19.76 15.66 2.39 2.39 0 0 1-.67-.48l.31-.13c11.13-4.84 18.8-13.14 24.99-23.5z"/><path class="cls-1" d="M106 90.74c.2 8-2 14.56-6.05 21.37-6.15 10.36-13.82 18.66-25 23.51l-.31.13-.08-.08a1.62 1.62 0 0 0-.54-.38 41.85 41.85 0 0 0 7.54-4c9.25-6.29 17.68-16.13 21.44-26.76 2.36-6.69 5.76-24.23-3.44-28.07a1.62 1.62 0 0 0 .18-.23c2.44.59 3.92 2.64 4.82 5.1a.61.61 0 0 0 .21.59 33.19 33.19 0 0 1 1.23 8.82z"/><path class="cls-1" d="M106 98.86c0 .13 0 .26-.07.39-.1.38-.18.79-.26 1.15l-.15-1.15c-.08-.34.18-.44.48-.39zM105.9 124.24l-.15.38a.3.3 0 0 0 0 .23c-2.51 1.39-5.07 1.29-7.87 1.29.13-.16.23-.34.33-.49a34.78 34.78 0 0 0 4.34-.34 29 29 0 0 0 3.35-1.07zM105.55 43.65a.49.49 0 0 1-.18-.13v-.15a.16.16 0 0 1 .1-.13.13.13 0 0 1 .08 0l.07.06a2.32 2.32 0 0 1 .21.48.75.75 0 0 1-.28-.13zM104.67 57.67a.88.88 0 0 0 1 .36c-2.15 2.87-4.35 5.71-6.46 8.59s-5.07 5.51-7.1 8.58c-1.71 2.62-3.43 5.21-5.28 7.8a.56.56 0 0 0-.41.61c-4.07 5.77-8 11.43-12.84 16.58a35.86 35.86 0 0 0-2.79 3.39c-.08.1-.18.31-.33.51-.67-2.15 9.32-12.48 10.63-14.3 3.8-5.28 7.31-10.77 11.1-16h.1a.32.32 0 0 0 .29-.56c.05-.08.1-.13.15-.21 1.69-2.33 3.43-4.58 5.2-6.84a.41.41 0 0 0 .23-.28c2.21-2.77 4.39-5.49 6.51-8.23z"/><path class="cls-1" d="M105.55 43.65c.74 3.25.3 6.18-.29 9.33a3.56 3.56 0 0 0-.38-.54 32.54 32.54 0 0 0 .56-4.18c.08-1.59-.15-3.15-.07-4.74a.49.49 0 0 0 .18.13zM105.67 53.62c-.1.44-.18.85-.25 1.26v.15a3 3 0 0 0-.34-.87c.08-.38.16-.77.23-1.15a2.66 2.66 0 0 1 .36.61zM105.34 81.3a2.2 2.2 0 0 1 .23.57.65.65 0 0 1-.15.1.5.5 0 0 1-.64 0 4.53 4.53 0 0 0-.21-.59.67.67 0 0 1 .26-.41l.25-.18a3.57 3.57 0 0 1 .26.51zM105.37 55a7.19 7.19 0 0 1 .18 1.56c-.29.36-.57.72-.88 1.08a1 1 0 0 1-.1-.46c.26-2.8-1.31-4.38-3.36-6a11.81 11.81 0 0 1-2.79-2.51 7 7 0 0 1 .18-.67c1.43 2.15 4.54 3.22 6.07 5.51-.07.36-.15.74-.23 1.1-.12.57.69.85.93.39z"/><path class="cls-1" d="M105 54.16a3 3 0 0 1 .34.87c-.24.43-1.05.15-.93-.44.08-.36.16-.74.23-1.1a5 5 0 0 1 .36.64zM104.88 52.44a3.56 3.56 0 0 1 .38.54c-.07.38-.15.77-.23 1.15a5 5 0 0 0-.36-.64c.08-.36.13-.72.21-1.05zM105.08 80.74l-.25.18a.67.67 0 0 0-.26.41c-.9-2.46-2.38-4.51-4.82-5.1a.41.41 0 0 0 .16-.21 8.42 8.42 0 0 1 5.17 4.72zM106.37 1.28a19.38 19.38 0 0 0-2.29.79c-4 .8-8 1.52-12 2.41S84.27 7 80.12 7.17a.48.48 0 0 1-.36-.17h.1c.28.1.44-.28.26-.46 3.23-.11 6.64-1.44 9.88-2.39a164.39 164.39 0 0 1 16.37-2.87zM104.57 81.33a4.53 4.53 0 0 1 .21.59.61.61 0 0 1-.21-.59z"/><path class="cls-1" d="M104.88 52.44c-.08.33-.13.69-.21 1-1.53-2.26-4.67-3.33-6.07-5.44 0-.18.05-.39.08-.57.79.62 1.46 1.39 2.28 2s1.87 1.23 2.71 1.93a8.85 8.85 0 0 1 1.21 1.08z"/><path class="cls-8" d="M104.57 57.21a1 1 0 0 0 .1.46c-2.12 2.74-4.3 5.46-6.46 8.2a.48.48 0 0 0-.33-.64c-13.76-2.31-31.12-.18-44.29 4.59-.05-3.9-1-7.69-1.26-11.61-.1-1.74 0-3.74-.18-5.64a13.2 13.2 0 0 0 1.23 1.82.6.6 0 0 0 1-.26c.77-3.61 1.89-7.12 2.89-10.69a20.69 20.69 0 0 0 1-5.66c.77 1.54 1.74 3 2.48 4.38 1.41 2.64 3.16 5.13 5.95 6.41.31.13.64-.23.39-.49a2.21 2.21 0 0 1-.26-.28.35.35 0 0 0 .54-.18 55.73 55.73 0 0 0 1.16-11.12c2 3.56 3.8 7.25 6.33 10.4.28.36.77.06.8-.3.1-1.41.1-2.8.18-4.18a10.71 10.71 0 0 0 2 1.2c1.07.54 2 1.23 3 1.85a.47.47 0 0 0 .65-.62.33.33 0 0 0 .53-.23 54.94 54.94 0 0 0 1.46-12.79c3 6.9 7.1 14.77 14 17.87a.54.54 0 0 0 .79-.31c.06-.2.11-.44.16-.64a11.81 11.81 0 0 0 2.79 2.51c2.04 1.57 3.61 3.15 3.35 5.95zm-9.69-5.82c.62 1 2.18 0 1.54-.9-2.69-3.92-9.54-3.46-11 1.44a.56.56 0 0 0 1 .43c1.85-3.05 6.21-4.48 8.46-.97zM68.25 56c1 .9 2.38-.51 1.43-1.44-4.12-4-11.32-2.05-13.09 3.18-.26.8.95 1.13 1.23.36 1.71-4.61 7.12-5.2 10.43-2.1z"/><path class="cls-1" d="M104 30.37c.1.21-.18.54-.44.46h-.08c.14-.18.32-.31.52-.46z"/><path class="cls-1" d="M103.31 30.35a2.09 2.09 0 0 0 .31-.29 1.62 1.62 0 0 0 .23.18.35.35 0 0 1 .11.13c-.16.15-.34.28-.52.44a1.31 1.31 0 0 1-.43-.16 1.7 1.7 0 0 0 .3-.3z"/><path class="cls-1" d="M103.62 30.06a2.09 2.09 0 0 1-.31.29 26.81 26.81 0 0 0-4.4-1.88 1.93 1.93 0 0 0-.29-.35 8.66 8.66 0 0 1 2.75.71 9.07 9.07 0 0 0 .82.82.41.41 0 0 0 .64-.1 7.11 7.11 0 0 1 .79.51zM103.44 30.81a12 12 0 0 1-1.18.84l-.15-.15a8.7 8.7 0 0 0 .87-.85 1.31 1.31 0 0 0 .46.16z"/><path class="cls-1" d="M103.31 30.35a1.7 1.7 0 0 1-.3.3A31.29 31.29 0 0 1 99.16 29a1.56 1.56 0 0 0-.25-.52 26.81 26.81 0 0 1 4.4 1.87z"/><path class="cls-2" d="M99.57 76.46c9.2 3.84 5.8 21.38 3.44 28.07-3.77 10.63-12.2 20.48-21.43 26.76a41.85 41.85 0 0 1-7.54 4 1 1 0 0 0-1.25.51c-2 .79-4 1.43-6 2a19.59 19.59 0 0 1-14.35-1.28l-.31-.15a38.77 38.77 0 0 1-7.74-5.13 33.27 33.27 0 0 1-6.89-7.48.47.47 0 0 0-.21-.34 30.46 30.46 0 0 1-2.72-5.26c-2.51-6.35-.51-15.94 4.74-20.63a16.24 16.24 0 0 0 .2 2.69.44.44 0 0 0 .34.61 25.11 25.11 0 0 0 9-.79v.15a17.27 17.27 0 0 0 4 4.28.74.74 0 0 0 1.15-.15 6.87 6.87 0 0 0 .67-3.18 21.06 21.06 0 0 0-.06-2.87 6.16 6.16 0 0 0 2.41-1.82.69.69 0 0 0 1.18-.64c-.41-1.57-.84-3.1-1.33-4.62 4.64-.23 7.28-2.46 10-6.15 5.87-8 15.09-13.58 25.32-11.3-3.79 5.25-7.3 10.74-11.1 16-1.31 1.82-11.3 12.15-10.63 14.3a.59.59 0 0 0-.85 0c-4.56-2.18-8.76 1-10.66 5.77-1.08 2.69-1.87 8.18.64 10.07.54 4.52 9 .31 10.66-1.07 3.77-3 5.57-7.21 3.62-10.85a.32.32 0 0 0 .54.1C83.76 98.94 90.7 87.38 99 77.25a9.73 9.73 0 0 0 .57-.79zM103 30.65a8.7 8.7 0 0 1-.87.85 17.61 17.61 0 0 0-2.9-2.31.49.49 0 0 0 0-.2 31.29 31.29 0 0 0 3.77 1.66z"/><path class="cls-1" d="M102.83 29.14a.36.36 0 0 1 0 .41 2.16 2.16 0 0 0-.36-.2c-5-6.2-9.58-12.59-17.61-14.69a3.29 3.29 0 0 1 .44-.28C92.75 16 99 22.91 102.83 29.14z"/><path class="cls-1" d="M102.83 29.55a.41.41 0 0 1-.64.1 9.07 9.07 0 0 1-.82-.82 10.16 10.16 0 0 1 1.07.49 2.16 2.16 0 0 1 .39.23zM102.26 31.65a.7.7 0 0 1 .21.21l-.26.15a.23.23 0 0 1-.28-.36l.18-.15z"/><path class="cls-1" d="M102.44 29.32a10.16 10.16 0 0 0-1.07-.49c-2.23-2.3-4.05-5-6.33-7.25a29.14 29.14 0 0 0-10.46-6.64s-.08 0-.11-.08a1.29 1.29 0 0 1 .36-.23c8.03 2.1 12.56 8.49 17.61 14.69zM97.44 125.72a.39.39 0 0 0-.3.39 10.74 10.74 0 0 1-1.1 1.2c.07-.33.12-.69.17-1a31.27 31.27 0 0 0 1.88-2.53c1-1.57 1.89-3.26 3-4.77.15-.23.59-.1.49.2a23.63 23.63 0 0 1-2.82 5.64c-.18.26-.36.52-.57.8a4.89 4.89 0 0 0-.66 0 .18.18 0 0 0-.09.07zM99.75 76.23a1.62 1.62 0 0 1-.18.23.42.42 0 0 0-.2-.1c-.28-.11-.18-.54.12-.46a1.72 1.72 0 0 1 .42.12.41.41 0 0 1-.16.21zM99.21 29.19a.7.7 0 0 1 0 .33 2.33 2.33 0 0 0-.51-.38s0-.05-.05-.05a4.23 4.23 0 0 0-.23-.41c.23.15.51.32.79.51z"/><path class="cls-1" d="M99.16 29a.49.49 0 0 1 0 .2c-.28-.18-.56-.36-.84-.51h-.05c-.05 0 0 0 0-.07a8.53 8.53 0 0 1 .89.38zM98.42 29l.39.43a2.4 2.4 0 0 0-.18-.28 2.33 2.33 0 0 1 .51.38.13.13 0 0 1 0 .11.24.24 0 0 1-.2.15q-.51-.54-1.08-1.08c-.13-.12 0-.28.15-.23zM98.91 28.47a1.56 1.56 0 0 1 .25.52 8.53 8.53 0 0 0-.87-.41 4.18 4.18 0 0 0-.26-.34 5.71 5.71 0 0 1 .88.23z"/><path class="cls-1" d="M98.91 29.78c-.47.15-1.13-1.15-1.29-1.25-.53-.39-.05-1.26.52-.88a2.11 2.11 0 0 1 .48.47 2.71 2.71 0 0 0-.69-.08l-.05.05s-.18.2 0 .28a.69.69 0 0 0 .13.05c-.15 0-.28.11-.15.23q.54.59 1.05 1.13z"/><path class="cls-1" d="M98.83 29.42l-.39-.42a.39.39 0 0 1 .16.1l.05.05a2.4 2.4 0 0 1 .18.27zM98.16 47.24a.38.38 0 0 0-.18.38 1.47 1.47 0 0 0 .08.28 10 10 0 0 1-.31 1.31c-6.15-2.8-11.33-12-14.3-18.43 0-.34 0-.67-.08-1 2.75 5.72 6 12 10.85 16.2 1.84 1.59 3.38 3.82 3.46 0a36.52 36.52 0 0 0-.16-4.79c-.36-3.49-.92-6.95-1.31-10.43 0-.23.34-.26.39-.05 1.43 5.35 2.87 11 2.08 16.58l-.21-.15a.23.23 0 0 0-.31.1z"/><path class="cls-1" d="M98.6 48a7 7 0 0 0-.18.79 3.3 3.3 0 0 1-.36-.82 4.35 4.35 0 0 0 .1-.66.23.23 0 0 1 .31 0l.21.15c-.03.11-.06.32-.08.54zM98.62 28.12a1.93 1.93 0 0 1 .29.35 5.71 5.71 0 0 0-.88-.23q-.11-.15-.15-.15s0-.05.05-.05a2.71 2.71 0 0 1 .69.08zM98.6 29.09a.39.39 0 0 0-.16-.1l-.44-.52.31.18h.05a4.23 4.23 0 0 1 .24.44z"/><path class="cls-1" d="M98.42 48.75c0 .2-.1.44-.16.64a.54.54 0 0 1-.79.31c-6.9-3.1-11-11-14-17.87v-1c3 6.43 8.15 15.63 14.3 18.43a10 10 0 0 0 .31-1.31 3.3 3.3 0 0 0 .34.8zM98.29 28.58v.07l-.29-.18z"/><path class="cls-1" d="M98 28.24a4.18 4.18 0 0 1 .26.34l-.26-.16c-.1-.23-.13-.33-.08-.33s.08.05.08.15zM53.61 70.28a3.54 3.54 0 0 0 0-.46c13.17-4.77 30.53-6.9 44.29-4.59a.48.48 0 0 1 .33.64.77.77 0 0 0-.23.28.27.27 0 0 1-.25 0c-14.41-1.87-30.2.82-44.12 4.46z"/><path class="cls-1" d="M98 66.18a.77.77 0 0 1 .23-.28.41.41 0 0 1-.23.28zM97.88 126.14c-.1.15-.23.28-.33.43a.43.43 0 0 1-.41-.43l.3-.39a.18.18 0 0 1 .11 0 4.89 4.89 0 0 1 .66 0c-.1.05-.21.25-.33.39zM98.16 47.24a4.35 4.35 0 0 1-.1.66 1.47 1.47 0 0 1-.08-.28.38.38 0 0 1 .18-.38z"/><path class="cls-7" d="M97.73 66.23a.27.27 0 0 0 .25 0c-1.77 2.26-3.51 4.51-5.2 6.84 0 .08-.1.13-.15.21-4.08-3-12.18-.66-16.22 1.44a22.63 22.63 0 0 0-7.87 6.13c-3.54 4.4-5.6 8.68-11.9 9.35a33.17 33.17 0 0 0-2.2-4.62c.49 1.59.62 3.33 1.08 5s.84 3.33 1.33 5a45.46 45.46 0 0 1-7.66 3 59 59 0 0 1-8.57 1.23c.75-3.39 1.11-6.69 2.31-10a46.25 46.25 0 0 1 5.72-10.22c.18.12.38-.06.41-.23.18-2-1.9-3.93-3.57-5a15.34 15.34 0 0 0-.3-1.67 11.41 11.41 0 0 0 3.71-.87A24.07 24.07 0 0 0 53.05 73c.74.13 1.08-.87.51-1.13v-1.1c13.97-3.72 29.76-6.41 44.17-4.54z"/><path class="cls-1" d="M98 28.42a.69.69 0 0 1-.13-.05c-.13-.08-.08-.28 0-.28-.04 0-.01.1.13.33zM97.44 125.72l-.3.39a.39.39 0 0 1 .3-.39zM97.14 126.14a.43.43 0 0 0 .41.43 7.07 7.07 0 0 1-1.64 1.51c0-.23.1-.48.13-.74a10.74 10.74 0 0 0 1.1-1.2zM96.42 50.49c.64.95-.92 1.87-1.54.9-2.25-3.51-6.61-2.08-8.41 1a.56.56 0 0 1-1-.43c1.41-4.96 8.26-5.39 10.95-1.47zM95.83 120a13.7 13.7 0 0 1 .38 6.33c-.28.34-.56.65-.82 1a17.49 17.49 0 0 0 .08-7.2.86.86 0 0 0 .23-.28c.08 0 .1.06.13.15z"/><path class="cls-1" d="M96 127.34c0 .26-.08.51-.13.74l-.46.23a.3.3 0 0 1-.26 0c.08-.33.15-.66.2-1 .26-.35.54-.66.82-1a3.7 3.7 0 0 1-.17 1.03z"/><path d="M92.06 4.48c4-.89 8-1.61 12-2.41a85.79 85.79 0 0 0-10.33 5.56 229.63 229.63 0 0 0-28.22 19c-10.05 8-18.59 16.64-27.33 26.05C28.72 62.8 19.6 71.13 7.32 77.79a.71.71 0 0 0-.18.16c-.69-1 1.72-5.87 2-6.28 1.16-2 2.31-4 3.49-6 2.44-4.2 5.23-8.17 7.82-12.28a5.65 5.65 0 0 0 .9 1.29.3.3 0 0 0 .15.17 1.3 1.3 0 0 1 .13 0 .07.07 0 0 0 .07 0 .11.11 0 0 0 .08 0c2.41-1.54 4.49-4.67 6.28-6.87s2.95-6.23 1.8-9c3.94 2.2 8.43 1.87 12.76.92 1.23-.28 5.61-2.28 3.15-4.25-4-3.23-10-2.93-14.68-1.47h.12c3.82-2.31 6.13-6 7.51-10.15.7-2 1.57-7.85-.79-9.23-1.49-.87-4.41 2.33-5.28 3.13-2.79 2.53-5 5.35-5.15 9.35 0 1.18-.28 2.72-.36 4.31A6.19 6.19 0 0 0 24.42 29c0-1.64-.23-3.28-.23-4.95a31.64 31.64 0 0 0-.05-5.33.28.28 0 0 0-.54 0c-.08.46-.16.95-.23 1.49-2.21.9-4.49 1.72-6.64 2.69-3.18 1.41-5.87 3.79-9 5.36a.42.42 0 0 0-.21.51 12.62 12.62 0 0 0-3.81 1.83.37.37 0 0 0 0 .54c.2.23.38.49.59.72A.43.43 0 0 0 4 32c-.77.74-1.46 1.59-2.15 2.39-.13.15-.29.3-.44.46a86.48 86.48 0 0 1 9.89-20.28 44.65 44.65 0 0 1 9.07-10.14.38.38 0 0 0 .13-.26C40.62 1.58 60.25 0 79.76 7a.48.48 0 0 0 .36.13c4.15-.13 7.94-1.75 11.94-2.65z" fill="#308d3a"/><path class="cls-1" d="M95.45 128.31l.46-.23a34.5 34.5 0 0 1-.9 3.54c-.64 2.13-1.82 7.23-4 8.33a.93.93 0 0 1-1.01-.15 1 1 0 0 1-.18-.18l.3-.08a.49.49 0 0 0 .36-.36.54.54 0 0 0 .44-.15c1.74-2.28 3.43-6.56 4.28-10.72a.3.3 0 0 0 .25 0zM95.47 120.11a1.65 1.65 0 0 1-.36.46 3.62 3.62 0 0 0 0-.48.35.35 0 0 1 .61-.26.86.86 0 0 1-.25.28z"/><path class="cls-1" d="M95.47 120.11a17.49 17.49 0 0 1-.08 7.2c-.15.18-.28.36-.41.54s0 .38.21.43c-.85 4.16-2.54 8.44-4.28 10.72a.54.54 0 0 1-.44.15.51.51 0 0 0-.36-.69h-.07c3.94-4.74 5.61-11.79 5.07-17.89a1.65 1.65 0 0 0 .36-.46z"/><path class="cls-1" d="M95.39 127.34c0 .31-.12.64-.2 1-.21-.05-.36-.23-.21-.43s.26-.39.41-.57z"/><path class="cls-7" d="M95.11 120.57c.54 6.1-1.13 13.15-5.07 17.89a39.75 39.75 0 0 0-6-.64c-2.1-.18-6.46-.3-8.69-1.59a50.17 50.17 0 0 0 19.76-15.66z"/><path class="cls-1" d="M92.63 73.23a.32.32 0 0 1-.29.56h-.1zM56.77 90.71c-.06-.15-.11-.33-.16-.49 6.3-.67 8.4-5 11.87-9.43a22.63 22.63 0 0 1 7.87-6.13c4-2.1 12.14-4.44 16.22-1.44l-.39.54C82 71.49 72.79 77.07 66.92 85.07c-2.72 3.69-5.36 5.92-10 6.15-.05-.22-.1-.36-.15-.51zM90.29 86.92a2.2 2.2 0 0 1 .31-.41l.15.3a.42.42 0 0 1-.41.54 1 1 0 0 1-.38 0 2.69 2.69 0 0 1 .33-.43z"/><path class="cls-1" d="M90.6 86.51a2.2 2.2 0 0 0-.31.41 2 2 0 0 1-.25-.18c.13-.18.23-.34.36-.49a.69.69 0 0 1 .2.26zM90.47 139.18a.49.49 0 0 1-.36.36l-.3.08a.49.49 0 0 1-.13-.56l.13-.21a1.42 1.42 0 0 0 .26-.36h.07a.51.51 0 0 1 .33.69zM90.4 86.22c-.13.15-.23.31-.36.49a14.67 14.67 0 0 1-2.8-2.82 4.26 4.26 0 0 0 .34-.49c.59.54 1.05 1.23 1.67 1.77.38.39.84.67 1.15 1.05zM90 86.74a2 2 0 0 0 .25.18 2.69 2.69 0 0 0-.33.41.54.54 0 0 1-.28-.08zM90 138.46a1.42 1.42 0 0 1-.26.36l-.13.21a46.44 46.44 0 0 1-10.1-1c.18-.35-.28-.69-.59-.51a2.62 2.62 0 0 0-.43.28c-1.46-.33-2.89-.69-4.3-1.1.38-.18.76-.33 1.15-.49 2.23 1.29 6.59 1.41 8.69 1.59a39.75 39.75 0 0 1 5.97.66z"/><path class="cls-1" d="M90 86.74l-.36.51a3.34 3.34 0 0 1-1.21-1c0-.1-.1-.23-.2-.23a16.91 16.91 0 0 1-1.36-1.64 3.11 3.11 0 0 0 .36-.51A14.67 14.67 0 0 0 90 86.74zM89.78 139.59a17.56 17.56 0 0 1-7.18-.13 24 24 0 0 1-3.44-1 4.26 4.26 0 0 0 .34-.43v-.06a46.44 46.44 0 0 0 10.1 1 .49.49 0 0 0 .18.62z"/><path class="cls-2" d="M89.68 87.25c-5 7-9.82 14.23-15.66 20.48a.32.32 0 0 0-.08.36 9.79 9.79 0 0 0-1-1.46c4.87-7 10.43-13.48 15.61-20.27a.12.12 0 0 0 0-.08 3.34 3.34 0 0 0 1.13.97z"/><path class="cls-1" d="M88.27 86.07c.1 0 .23.13.2.23l-.15-.15s-.05-.05-.05-.08zM72.48 106.3a1.6 1.6 0 0 0-.39-.39 148.3 148.3 0 0 1 16-19.79s0-.05.1-.05 0 .05 0 .08l.15.15a.12.12 0 0 1 0 .08c-5.18 6.79-10.74 13.23-15.61 20.27a3 3 0 0 0-.25-.35z"/><path class="cls-2" d="M88.24 86.07s-.07 0-.1.05a148.3 148.3 0 0 0-16 19.79 7.13 7.13 0 0 0-.76-.67c-.18-.15-.39-.28-.57-.41 3-4.51 7.1-8.28 10.41-12.56q3-3.84 5.71-7.84a16.91 16.91 0 0 0 1.31 1.64z"/><path class="cls-1" d="M87.24 83.92a3.11 3.11 0 0 1-.36.51 3.4 3.4 0 0 1-.38-.67v-.15c0-.05.21-.33.34-.49s0-.07.07-.12a.51.51 0 0 1 .31.1 3.8 3.8 0 0 1 .39.33 4.26 4.26 0 0 1-.37.49z"/><path class="cls-1" d="M86.88 83s0 .07-.07.12-.23.34-.34.49a.56.56 0 0 1 .41-.61zM86.5 83.76a3.4 3.4 0 0 0 .38.67q-2.76 4-5.71 7.84c-3.31 4.28-7.44 8-10.41 12.56l-.51-.33a3.76 3.76 0 0 0 .23-.36.19.19 0 0 1 .1.1l-.07-.15c.15-.2.25-.41.33-.51a35.86 35.86 0 0 1 2.79-3.39C78.5 95 82.4 89.38 86.47 83.61c0 .05 0 .13.03.15zM84.83 14.63a1.29 1.29 0 0 0-.36.23.36.36 0 0 1 .29-.64 4.77 4.77 0 0 1 .51.13 3.29 3.29 0 0 0-.44.28zM83 30.6c.16.41.34.82.51 1.23A54.94 54.94 0 0 1 82 44.62a.33.33 0 0 1-.53.23h-.06a.56.56 0 0 0-.12-.16.29.29 0 0 1 0-.21 77.92 77.92 0 0 0 1.23-14.92c.15.36.3.72.48 1.11z"/><path class="cls-1" d="M83.45 30.81v1c-.17-.41-.35-.82-.51-1.23v-.88c.15.36.33.72.51 1.11z"/><path class="cls-1" d="M83.37 29.83c0 .31 0 .64.08 1-.18-.39-.36-.75-.51-1.11 0-.2 0-.43-.06-.64a.22.22 0 0 1 .19.13c.1.19.2.42.3.62z"/><path class="cls-1" d="M82.88 29.06a.34.34 0 0 0-.4.13 35.46 35.46 0 0 0-.77-5.69.12.12 0 0 1 .23-.05 23.36 23.36 0 0 1 1.43 6.38c-.1-.2-.2-.43-.3-.64a.22.22 0 0 0-.19-.13z"/><path class="cls-1" d="M82.94 29.7v.88c-.18-.39-.33-.75-.48-1.11s0 0 0-.05v-.21a.34.34 0 0 1 .4-.13c.05.19.05.42.08.62z"/><path class="cls-1" d="M82.48 29.24v.16a.15.15 0 0 1 0-.16zM75.86 41.75a5.29 5.29 0 0 1 0-.56h.13c1 .54 2.08 1.18 3.08 1.77a8.15 8.15 0 0 1 2.23 1.64.2.2 0 0 0 .12.16h.06a.47.47 0 0 1-.65.62c-1-.62-1.92-1.31-3-1.85a10.71 10.71 0 0 1-2-1.2c.01-.14.01-.33.03-.58z"/><path class="cls-1" d="M81.3 44.62a.56.56 0 0 1 .12.16.2.2 0 0 1-.12-.16zM79.58 6.69a.65.65 0 0 1 0-.31l.42.15.1.08c.18.18 0 .56-.26.46h-.1a.66.66 0 0 1-.16-.38z"/><path class="cls-1" d="M79.6 6.38a.65.65 0 0 0 0 .31C60.74-.7 40 .56 20.37 3.89a.38.38 0 0 0-.49-.07l-.26.18a.26.26 0 0 1 .21-.26C39.49-.34 60.66-1 79.6 6.38z"/><path class="cls-1" d="M79.58 6.69a.66.66 0 0 0 .18.35C60.25 0 40.62 1.58 20.5 4.17a.45.45 0 0 0-.13-.28C40 .56 60.74-.7 79.58 6.69zM79.09 138l-.56-.13a2.62 2.62 0 0 1 .43-.28c.31-.18.77.16.59.51-.15-.1-.3-.1-.46-.1z"/><path class="cls-1" d="M79.55 138.05v.06a4.26 4.26 0 0 1-.34.43l-.59-.15a4.06 4.06 0 0 1 .49-.44c.14.05.29.05.44.1z"/><path class="cls-1" d="M79.09 138a4.06 4.06 0 0 0-.49.44 4.75 4.75 0 0 0-.67-.21 2.28 2.28 0 0 1 .59-.36z"/><path class="cls-1" d="M78.6 138.39l.59.15a40 40 0 0 1-2.69 3l-1.25 1.33h-1a.6.6 0 0 0-.25.13c1.53-1.49 2.94-3.11 4.56-4.59z"/><path class="cls-1" d="M77.91 138.18a4.75 4.75 0 0 1 .67.21c-1.62 1.48-3 3.1-4.56 4.59a.65.65 0 0 0-.36.35c-.21.21-.41.39-.64.59a3.71 3.71 0 0 1-.29-.87c.93-.84 1.82-1.69 2.7-2.59a21.27 21.27 0 0 1 2.48-2.28zM78.5 137.82a2.28 2.28 0 0 0-.59.36 8.46 8.46 0 0 0-3.91-.38 1.55 1.55 0 0 1-.9 0 5 5 0 0 0 .1-.66l1-.39c1.41.38 2.8.74 4.3 1.07z"/><path class="cls-1" d="M77.91 138.18a21.27 21.27 0 0 0-2.48 2.28c-.88.9-1.77 1.75-2.7 2.59-.4-1.72.13-3.51.39-5.28a1.55 1.55 0 0 0 .9 0 8.46 8.46 0 0 1 3.89.41zM75.45 41.29a.48.48 0 0 0-.13.62 21.42 21.42 0 0 0-.12 3.84 8.79 8.79 0 0 1-.57-.79 9.6 9.6 0 0 1 .59-4.34c.16-.35.77-.35.72.11a2.32 2.32 0 0 0 0 .46.5.5 0 0 0-.49.1z"/><path class="cls-1" d="M75.86 41.75v.67a1.79 1.79 0 0 1-.46-.42s-.08-.07-.08-.12c0-.21.08-.41.13-.62a.5.5 0 0 1 .46-.1 5.29 5.29 0 0 0-.05.59z"/><path class="cls-1" d="M75.4 42a1.79 1.79 0 0 0 .44.39c-.08 1.38-.08 2.77-.18 4.18 0 .36-.52.66-.8.3-2.53-3.15-4.33-6.84-6.33-10.4a5.77 5.77 0 0 0 0-.72c2.13 3.41 3.74 6.92 6.15 10.2v.67l.39-.11a.76.76 0 0 0 .08.11v-.13c.12 0 .28-.08.41-.1a5.52 5.52 0 0 1-.41-.62 21.42 21.42 0 0 1 .12-3.84c.05.07.11.07.13.07z"/><path class="cls-1" d="M75.2 45.75a5.52 5.52 0 0 0 .41.62c-.13 0-.29.07-.41.1zM75.45 41.29c0 .21-.1.41-.13.62a.48.48 0 0 1 .13-.62zM74.2 136.72l-1 .39v-.36a.55.55 0 0 0-.13-.34c.51-.2 1-.43 1.54-.66a2.39 2.39 0 0 0 .67.48c-.28.16-.7.31-1.08.49zM74.55 143.57c-.17.2-.38.38-.56.56a.64.64 0 0 1-.33-.8c.13-.1.23-.23.36-.35a.6.6 0 0 1 .23-.06h1a7.7 7.7 0 0 1-.7.65zM75.2 46.47v.13a.76.76 0 0 1-.08-.11zM75.2 45.75v.72h-.08c-.16-.18-.28-.38-.44-.56s0-.67-.05-1a8.79 8.79 0 0 0 .57.84z"/><path class="cls-1" d="M74.68 45.93c.16.18.28.38.44.56l-.39.11c-.02-.23-.02-.47-.05-.67zM74.63 45c0 .3 0 .64.05 1-2.41-3.28-4-6.79-6.15-10.2v-.51a.42.42 0 0 0-.13-.21s.05 0 .07.05c2.24 3.11 3.98 6.6 6.16 9.87zM74.58 135.67l.08.08c-.52.23-1 .46-1.54.66a.62.62 0 0 0-.54-.15 1.37 1.37 0 0 1 .21-.46c.43-.16.84-.34 1.25-.51a1.62 1.62 0 0 1 .54.38zM72.56 107.09c6.79 7.48-8.57 17.2-12.1 13.38a3.47 3.47 0 0 0 1.66.23c.08 0 .11-.1 0-.1a.8.8 0 0 1-.21 0l-.23-.16c5.1 1.82 15.72-7 10.56-12.94z"/><path class="cls-1" d="M60.46 120.47c3.53 3.82 18.89-5.9 12.1-13.38a3.19 3.19 0 0 1 .28-.44 9.79 9.79 0 0 1 1 1.46c2 3.64.15 7.82-3.62 10.85-1.71 1.38-10.12 5.59-10.66 1.07a2.53 2.53 0 0 0 .9.44zM74 135.29c-.41.17-.82.35-1.25.51a1 1 0 0 1 1.25-.51zM74 143c-.13.12-.23.25-.36.35A.65.65 0 0 1 74 143z"/><path class="cls-1" d="M74 144.13c-.33.33-.69.67-1 1a.84.84 0 0 1-1.31-.15 5.24 5.24 0 0 1-.36-1h.06c.38-.07.3-.59 0-.71a1.8 1.8 0 0 0-.21-.08 12 12 0 0 1 .69-5.46l.77-.31c-.49 1.95-1.08 4.46-.56 6.33l-.26.23a1.45 1.45 0 0 1 .33.06c.08.17.16.35.26.53l.51-.43a.86.86 0 0 1 .23 0l-.07-.18c.23-.2.43-.38.64-.59a.64.64 0 0 0 .28.76zM72.61 137.26a1 1 0 0 1-.11-.62l.62-.23a.55.55 0 0 1 .13.34v.36l-.56.23a.15.15 0 0 1-.08-.08z"/><path class="cls-1" d="M72.66 137.34l.56-.23a5 5 0 0 1-.1.66.68.68 0 0 1-.46-.43zM73.12 136.41l-.62.23a2.87 2.87 0 0 1 .08-.38.62.62 0 0 1 .54.15zM73 143.92l.07.18a.86.86 0 0 0-.23 0z"/><path class="cls-1" d="M73 143.92l-.16.16a6.48 6.48 0 0 0-.77-.1c0-.11 0-.18-.07-.29.25-.2.48-.43.71-.64a3.71 3.71 0 0 0 .29.87z"/><path class="cls-1" d="M72.86 144.08l-.51.43c-.1-.18-.18-.36-.26-.53a6.48 6.48 0 0 1 .77.1zM72.48 106.3a3 3 0 0 1 .36.35 3.19 3.19 0 0 0-.28.44 2.55 2.55 0 0 0-.36-.38 1.74 1.74 0 0 1 .28-.41zM72.66 137.34a.68.68 0 0 0 .46.43c-.26 1.77-.79 3.56-.39 5.28-.23.21-.46.44-.71.64-.52-1.87.07-4.38.56-6.33zM72.27 107.45c5.16 5.89-5.46 14.76-10.56 12.94h-.1l-.9-.51a3.1 3.1 0 0 1-.61-.64.26.26 0 0 0-.21-.13c-2.87-4.72 1.87-17.87 9.81-13.59a10 10 0 0 1 1.85 1.26c-.1.12-.18.28-.28.4-.41.57.54 1.11.9.54a.59.59 0 0 0 .1-.27zM72.66 137.34h-.08v-.1a.15.15 0 0 0 .08.1z"/><path class="cls-1" d="M72.61 137.26v.1l-.77.31c.13-.31.23-.62.36-.9a1 1 0 0 0 .3-.13 1 1 0 0 0 .11.62z"/><path class="cls-1" d="M72.79 135.8a1.37 1.37 0 0 0-.21.46.37.37 0 0 0-.28.23.85.85 0 0 0-.1.28 32.44 32.44 0 0 1-11.46 2.67 18 18 0 0 1-6.51-1.23v-.05a3.81 3.81 0 0 0-1.72-1.62 19.59 19.59 0 0 0 14.35 1.28c1.95-.59 3.95-1.23 5.93-2.02zM72.56 107.09l-.29.36a1.88 1.88 0 0 0-.33-.36 2.33 2.33 0 0 1 .26-.38 2.55 2.55 0 0 1 .36.38z"/><path class="cls-1" d="M72.58 136.26a2.87 2.87 0 0 0-.08.38 1 1 0 0 1-.3.13.85.85 0 0 1 .1-.28.37.37 0 0 1 .28-.23zM72.48 106.3a1.74 1.74 0 0 0-.28.41 2.78 2.78 0 0 0-.41-.36c.1-.16.2-.29.3-.44a1.6 1.6 0 0 1 .39.39zM71.94 107.09a1.88 1.88 0 0 1 .33.36.59.59 0 0 1-.12.2c-.36.57-1.31 0-.9-.54.1-.12.18-.28.28-.4a5 5 0 0 1 .41.38z"/><path class="cls-1" d="M72.2 106.71a2.33 2.33 0 0 0-.26.38 5 5 0 0 0-.41-.38c.08-.13.18-.24.26-.36a2.78 2.78 0 0 1 .41.36zM71.33 105.24a7.13 7.13 0 0 1 .76.67c-.1.15-.2.28-.3.44a8.89 8.89 0 0 0-1.34-1l-.15-.11a.5.5 0 0 0 .36-.23.5.5 0 0 1 .1-.13c.18.12.39.21.57.36zM72 143.69c0 .11 0 .18.07.29a1.45 1.45 0 0 0-.33-.06zM72.17 136.77c-.13.28-.23.59-.36.9-5.66 2.15-11.92 3.69-17.66 1.31-.46-.21-.92-.41-1.38-.64a3.69 3.69 0 0 0 1.2.12.23.23 0 0 0 .23-.25 18 18 0 0 0 6.51 1.23 32.44 32.44 0 0 0 11.46-2.67z"/><path class="cls-1" d="M71.79 106.35c-.08.12-.18.23-.26.36a10 10 0 0 0-1.85-1.26c-7.94-4.28-12.68 8.87-9.81 13.55a.3.3 0 0 0-.31.28v.07c-3.33-4.46 1.64-19 10-14.63a.31.31 0 0 0 0 .1v.1a.55.55 0 0 0 .67.23l.15.11a8.89 8.89 0 0 1 1.41 1.09zM71.2 143.57a1.27 1.27 0 0 1-.08-.44 1.8 1.8 0 0 1 .21.08c.3.12.38.64 0 .71h-.06a.81.81 0 0 1-.07-.35z"/><path class="cls-1" d="M71.2 143.57a.81.81 0 0 0 .07.35c-4.61.9-9.94.06-14.56-.59-2.22-.3-6.43-.2-8.1-2 .11-.05.18-.13.13-.26s-.05-.15-.07-.23a.44.44 0 0 1 .1-.15c0-.08.18-.1.2 0 .69 1.61 7.64 1.43 9.28 1.59 4.13.38 8.9-.46 12.87.87a1.27 1.27 0 0 0 .08.42z"/><path class="cls-6" d="M71.81 137.67a12 12 0 0 0-.69 5.46c-4-1.33-8.74-.49-12.87-.87-1.64-.16-8.59 0-9.28-1.59 0-.1-.18-.08-.2 0a.44.44 0 0 0-.1.15 1.82 1.82 0 0 1-.11-.38c.59-.9 1.16-1.79 1.69-2.64a.41.41 0 0 0 .08-.25c.82.25 1.62.61 2.44.82.46.23.92.43 1.38.64 5.74 2.35 12 .81 17.66-1.34z"/><path class="cls-1" d="M70.25 104.5l.51.33a.5.5 0 0 0-.1.13.5.5 0 0 1-.36.23c-.26-.15-.51-.3-.77-.43a.47.47 0 0 1 .1-.57z"/><path class="cls-1" d="M69.63 104.19a.59.59 0 0 1 .85 0 3.76 3.76 0 0 1-.23.36zM70.3 105.19a.55.55 0 0 1-.67-.23v-.1a.31.31 0 0 1 0-.1c.16.13.37.24.67.43zM69 55.34h.05H69zm.69-.75c.95.93-.48 2.34-1.43 1.44-3.31-3.13-8.72-2.54-10.43 2.1-.28.77-1.49.44-1.23-.36 1.76-5.23 8.96-7.18 13.08-3.18zM69.63 104.19a.47.47 0 0 0-.1.57c-8.33-4.39-13.3 10.17-10 14.63a2.64 2.64 0 0 0 0 .64c-2.51-1.89-1.72-7.38-.64-10.07 1.98-4.74 6.18-7.96 10.74-5.77z"/><path class="cls-1" d="M69 55.39h-.05s.05-.05.05 0zM68.22 35.91c.11.18.21.36.31.54a55.73 55.73 0 0 1-1.15 11.12.35.35 0 0 1-.54.18.25.25 0 0 1-.1-.18c-.62-4.07 1.07-8.23 1.15-12.33v.08z"/><path class="cls-1" d="M68.53 35.73a5.77 5.77 0 0 1 0 .72c-.1-.18-.2-.36-.31-.54s0-.46 0-.69c.08.17.21.33.31.51z"/><path class="cls-1" d="M68.51 35.22v.51c-.1-.18-.23-.34-.33-.51v.69l-.3-.54v-.08c0-.08 0 0 0 0v-.05a.19.19 0 0 1 0-.13v-.05a.21.21 0 0 1 .26 0 .25.25 0 0 1 .13 0 .42.42 0 0 1 .24.16zM68.38 35a.25.25 0 0 0-.13 0h.13z"/><path class="cls-1" d="M68 35v.05a.06.06 0 0 1 0-.05zM67.92 35.09a.19.19 0 0 0 0 .13v.05c-.06-.08-.06-.13 0-.18zM58 35.88c0-.15-.11-.33-.16-.49a.07.07 0 0 0-.13 0 1.17 1.17 0 0 0-.23-.35 3.08 3.08 0 0 1 .26-.24c1.61 1.57 2.56 4.18 3.69 6a33.77 33.77 0 0 0 5.41 7 2.21 2.21 0 0 0 .26.28c.25.26-.08.62-.39.49-2.79-1.28-4.54-3.77-5.95-6.41-.74-1.36-1.71-2.84-2.48-4.38a6.67 6.67 0 0 0-.28-1.9zM62.15 120.6c.08 0 .05.1 0 .1a3.47 3.47 0 0 1-1.66-.23 1.46 1.46 0 0 1-.41-.56 3 3 0 0 0 2.07.74l-.18-.1a.8.8 0 0 0 .18.05z"/><path class="cls-1" d="M61.94 120.55l.18.1a3 3 0 0 1-2.07-.74 3.74 3.74 0 0 1-.21-.59l.41.23a2.82 2.82 0 0 0 1.69 1z"/><path class="cls-1" d="M61.71 120.39l.23.16a2.82 2.82 0 0 1-1.66-1l.43.26a3.36 3.36 0 0 0 .9.51s.05.05.1.07z"/><path class="cls-1" d="M60.71 119.83l.9.51a3.36 3.36 0 0 1-.9-.51zM60.71 119.83l-.43-.26a2.7 2.7 0 0 1-.36-.49.26.26 0 0 1 .21.13 3.1 3.1 0 0 0 .58.62z"/><path class="cls-1" d="M60.25 119.55l-.41-.23a3.74 3.74 0 0 0 .21.59 4.79 4.79 0 0 1-.49-.52v-.07a.3.3 0 0 1 .31-.28 2.7 2.7 0 0 0 .38.51z"/><path class="cls-1" d="M60.05 119.91a1.46 1.46 0 0 0 .41.56 2.53 2.53 0 0 1-.85-.44 2.64 2.64 0 0 1 0-.64 4.79 4.79 0 0 0 .44.52zM53.33 53.36c0 .16 0 .31-.08.46a1.61 1.61 0 0 0 .36-.1 1 1 0 0 0 .18.26c0-.1 0-.21.05-.31a1.36 1.36 0 0 1 .36-.1 4.73 4.73 0 0 1-.28-.39c1-5.35 3.82-11.33 3.9-16.32.15.3.28.61.46.92a20.69 20.69 0 0 1-1 5.66c-1 3.57-2.12 7.08-2.89 10.69a.6.6 0 0 1-1 .26 13.2 13.2 0 0 1-1.23-1.82A8.57 8.57 0 0 0 51 48.93a.19.19 0 0 0-.36.08 17 17 0 0 1-.74-3.93.16.16 0 0 1 .3-.1c1.23 2.49 1.87 5.23 3.33 7.56-.12.26-.15.54-.2.82zM57.51 95.71a1.56 1.56 0 0 0 .08-.21.19.19 0 0 0-.21-.23c-.38-1.36-.77-2.79-1.18-4.27a.49.49 0 0 0 .44.21.83.83 0 0 0 .28 0c.49 1.52.92 3 1.33 4.62a.69.69 0 0 1-1.18.64 2.8 2.8 0 0 0 .44-.76z"/><path class="cls-1" d="M58 35.88a6.67 6.67 0 0 1 .28 1.9c-.18-.31-.31-.62-.46-.92a8.44 8.44 0 0 0 0-1.34 1.66 1.66 0 0 1 .18.36z"/><path class="cls-1" d="M57.77 35.47h-.06a.07.07 0 0 1 .13 0c0 .16.13.34.16.49a1.66 1.66 0 0 0-.23-.49zM57.82 36.81c-.08 5-2.9 11-3.9 16.32-.15-.2-.31-.43-.44-.64.54-2.79 1.52-5.48 2.31-8.23s1.05-5.48 1.75-8.17a3.42 3.42 0 0 0 .28.72z"/><path class="cls-1" d="M57.77 35.47a8.44 8.44 0 0 1 0 1.34 3.42 3.42 0 0 1-.28-.67c.05-.23.1-.49.17-.72.11.03.11.03.11.05zM57.74 34.8a3.08 3.08 0 0 0-.26.24 7.1 7.1 0 0 0-.41-.7.06.06 0 0 1 0-.05c.26.16.47.34.67.51z"/><path class="cls-1" d="M57.71 35.39c-.07.23-.12.49-.17.72a5 5 0 0 1-.31-.87.61.61 0 0 1 .25-.23 1.17 1.17 0 0 1 .23.38zM57.38 95.27a.19.19 0 0 1 .21.23 1.56 1.56 0 0 1-.08.21c-.05-.13-.08-.28-.13-.44z"/><path class="cls-1" d="M56.87 96a4.61 4.61 0 0 1-.13-.46l.56-.26a.09.09 0 0 1 .08 0c0 .16.08.31.13.44a2.8 2.8 0 0 1-.44.77.51.51 0 0 1-.15-.26.53.53 0 0 1-.05-.23zM57.07 34.34a7.1 7.1 0 0 1 .41.7.61.61 0 0 0-.25.23 4.47 4.47 0 0 1-.23-.85s.05-.08.07-.08z"/><path class="cls-1" d="M57.38 95.27a.09.09 0 0 0-.08 0l-.56.26c-.49-1.67-.87-3.36-1.33-5s-.59-3.36-1.08-5c.66 1.61 1.23 3.36 1.76 5.13v.05a.41.41 0 0 0 .08.25c.44 1.52.83 2.95 1.21 4.31z"/><path class="cls-9" d="M57.23 35.27a5 5 0 0 0 .31.87c-.7 2.69-.95 5.48-1.75 8.17s-1.79 5.44-2.31 8.23c-1.48-2.33-2.1-5.07-3.33-7.54a.16.16 0 0 0-.3.1 17 17 0 0 0 .74 3.9v.1A76.85 76.85 0 0 1 51 59.29c.11 4.15 1.08 8.27 1.8 12.35a19 19 0 0 1-4.69-1.46c-1.57-.69-2.87-1.82-4.41-2.59-.1-.38-.18-.77-.26-1.18s-.56-.26-.56.08c-.08 2.53.84 4.79 1.43 7.17a70.7 70.7 0 0 1-10-14.76c7.56-7.9 14.54-16.61 22.92-23.63z"/><path class="cls-1" d="M57 34.42a4.47 4.47 0 0 0 .23.85C48.85 42.29 41.87 51 34.34 58.9c-.11-.2-.23-.44-.34-.67 2.08-2.23 4.13-4.48 6.21-6.69 3.71-3.94 7.38-8 11.07-12A57.69 57.69 0 0 1 57 34.42zM57.12 34.29a.06.06 0 0 0 0 .05v-.07s-.02 0 0 .02zM57 34.27v.07c0 .07 0 0-.07.06a.15.15 0 0 1 0-.11s.07-.05.07-.02zM56.92 96.22a.51.51 0 0 0 .15.26 6.16 6.16 0 0 1-2.41 1.82 2.2 2.2 0 0 0 0-.44.27.27 0 0 0-.43-.13 2.45 2.45 0 0 0-.67 1 28.56 28.56 0 0 1-3.2.93 4.74 4.74 0 0 1-.49.1 4 4 0 0 0-.36-.18c-.31-.13-.72.1-.61.44a25.11 25.11 0 0 1-9 .79.44.44 0 0 1-.34-.61c0 .07 0 .18.06.25.07.39.71.36.79 0v-.1c4.12.08 13.27-1.44 16.48-4.38a.53.53 0 0 0 .03.25zM56.77 90.71c0 .15.1.33.15.51a.83.83 0 0 1-.28 0 .49.49 0 0 1-.44-.22l-.08-.25v-.05a.54.54 0 0 1 .49-.52c.05.2.1.38.16.53z"/><path class="cls-1" d="M56.74 95.56a4.61 4.61 0 0 0 .13.46c-3.21 2.94-12.36 4.46-16.48 4.38 0-.18.07-.39.12-.56a59 59 0 0 0 8.57-1.23 45.46 45.46 0 0 0 7.66-3.05zM56.61 90.2a.54.54 0 0 0-.49.52c-.53-1.77-1.1-3.52-1.76-5.13a33.17 33.17 0 0 1 2.25 4.61zM56.12 90.79l.08.25a.41.41 0 0 1-.08-.25zM52.82 103.5v.1a.32.32 0 0 0 .13 0 6.26 6.26 0 0 0 .49.41 2.16 2.16 0 0 0 .23-.49h.31a1.12 1.12 0 0 1-.21-.18c.54-1.54.1-3.23.44-4.74l.48-.23a21.06 21.06 0 0 1 .06 2.87 6.87 6.87 0 0 1-.67 3.18.74.74 0 0 1-1.15.15 17.27 17.27 0 0 1-4-4.28v-.15c.33-.08.64-.16 1-.26a16.24 16.24 0 0 1 3.25 2.9 2.7 2.7 0 0 1-.36.72z"/><path class="cls-1" d="M54.18 98.53c-.21.08-.44.18-.67.25a2.45 2.45 0 0 1 .67-1 .27.27 0 0 1 .43.13 2.2 2.2 0 0 1 0 .44zM53.92 53.18a4.73 4.73 0 0 0 .28.39 1.36 1.36 0 0 0-.36.1c.03-.15.06-.31.08-.49zM53.43 137.93c.26.1.49.2.75.28a.23.23 0 0 1-.23.25 3.69 3.69 0 0 1-1.2-.12 30.63 30.63 0 0 1-3.49-1.85 19 19 0 0 1 2.69.77.24.24 0 0 1 .13.05 10.3 10.3 0 0 0 1.08.49.75.75 0 0 1 .27.13z"/><path class="cls-1" d="M54.18 138.16v.05c-.26-.08-.49-.18-.75-.28a.75.75 0 0 0-.25-.13 7.57 7.57 0 0 0-1.08-.49.24.24 0 0 0-.13-.05 31.41 31.41 0 0 1-2.89-1.62 13.14 13.14 0 0 1 3.07.75l.31.15a3.81 3.81 0 0 1 1.72 1.62zM53.51 98.78c.23-.07.46-.17.67-.25-.34 1.51.1 3.2-.44 4.74a8 8 0 0 1-.67-.56c.29-1.26.03-2.71.44-3.93zM54 103.45h-.31a.77.77 0 0 0 .1-.23 1.12 1.12 0 0 0 .21.23zM53.92 53.18c0 .18-.05.34-.08.49a1.55 1.55 0 0 1-.23 0 .86.86 0 0 1-.28-.36c.05-.28.08-.56.15-.82.13.26.29.51.44.69zM53.84 53.67c0 .1 0 .21-.05.31a1 1 0 0 1-.18-.26 1.55 1.55 0 0 0 .23-.05z"/><path class="cls-1" d="M53.74 103.27a.77.77 0 0 1-.1.23l-.72.08-.08-.08a2.7 2.7 0 0 0 .25-.79 8 8 0 0 0 .65.56z"/><path class="cls-1" d="M53.64 103.5a2.16 2.16 0 0 1-.23.49 6.26 6.26 0 0 1-.49-.41zM53.61 70.28v.41l-.43.13v-.39zM53.59 69.82a3.54 3.54 0 0 1 0 .46l-.46.15a2.37 2.37 0 0 0 0-.43 5.09 5.09 0 0 0 .46-.18zM53.61 53.72a1.61 1.61 0 0 1-.36.1c0-.15.06-.3.08-.46a.86.86 0 0 0 .28.36zM53.18 70.82l.43-.13v1.1a.43.43 0 0 0-.18-.05h-.18c-.05-.33-.05-.61-.07-.92z"/><path class="cls-1" d="M53.59 69.82a5.09 5.09 0 0 1-.49.18c-.31-3.56-1.23-7.15-1.38-10.71-.16-2.34 0-5.8-.39-8.28a11.59 11.59 0 0 0 .82 1.56c.21 1.9.08 3.9.18 5.64.26 3.92 1.21 7.71 1.26 11.61zM53.56 71.82c.57.26.23 1.26-.51 1.13a24.07 24.07 0 0 1-4.26-1.16 3.25 3.25 0 0 0 .52-.28c.07 0 .07-.13 0-.18a18.75 18.75 0 0 0 3.56 1v.12c.07.34.53.21.56-.07s.11-.38.13-.56z"/><path class="cls-1" d="M53.56 71.79c0 .18 0 .36-.05.54s-.49.41-.56.07v-.12c0-.05.21 0 .31 0a4.5 4.5 0 0 0 0-.64h.18a.43.43 0 0 1 .12.15z"/><path class="cls-8" d="M53.51 98.78c-.41 1.18-.15 2.67-.44 3.93a16.24 16.24 0 0 0-3.25-2.9 4.74 4.74 0 0 0 .49-.1 28.56 28.56 0 0 0 3.2-.93z"/><path class="cls-1" d="M53.2 71.72a4.5 4.5 0 0 1 0 .64h-.31c0-.23-.08-.44-.1-.67z"/><path class="cls-1" d="M53.18 70.82v.9l-.38-.08c-.72-4.08-1.69-8.2-1.8-12.35a76.85 76.85 0 0 0-.46-10.18v-.1a13 13 0 0 0 .77 1.99.13.13 0 0 1 0 .06c.41 2.48.23 5.94.39 8.28.15 3.56 1.07 7.15 1.38 10.71l-.18.08a.39.39 0 0 0 .23.74z"/><path class="cls-1" d="M53.15 70.43v.39a.39.39 0 0 1-.23-.74l.18-.08a2.37 2.37 0 0 1 .05.43zM52.82 71.64c0 .23.08.44.1.67a18.75 18.75 0 0 1-3.56-1h-.08a.39.39 0 0 0-.15 0A19.64 19.64 0 0 1 43.8 68c0-.12-.06-.25-.08-.38 1.54.77 2.84 1.9 4.41 2.59a19 19 0 0 0 4.69 1.43zM52.9 103.58a.32.32 0 0 1-.13 0v-.1zM52.1 137.31a7.57 7.57 0 0 1 1.08.49 10.3 10.3 0 0 1-1.08-.49zM52.15 136.39a13.14 13.14 0 0 0-3.07-.75c-.77-.51-1.54-1-2.28-1.56a43.41 43.41 0 0 1-9.41-9.25c.07-.26.1-.54.15-.8a.27.27 0 0 0 0-.25 33.27 33.27 0 0 0 6.89 7.48 38.77 38.77 0 0 0 7.72 5.13zM51.31 51a13 13 0 0 1-.72-2 .19.19 0 0 1 .36-.08 8.57 8.57 0 0 1 1.2 3.64 11.59 11.59 0 0 1-.82-1.56.13.13 0 0 0-.02 0zM52.77 138.34c-.82-.21-1.62-.57-2.44-.82a.53.53 0 0 0-.77-.47 2.55 2.55 0 0 0-.28.21 35.17 35.17 0 0 0-4.56-.72 3.59 3.59 0 0 0 0-.46.35.35 0 0 0-.31-.23 32.93 32.93 0 0 1 4.9.64 30.63 30.63 0 0 0 3.46 1.85z"/><path class="cls-1" d="M45.21 143.49a6.48 6.48 0 0 1-.34-.64c1.62-1.72 2.46-4.28 4.41-5.59l.51.13a2.65 2.65 0 0 1 .54.13.41.41 0 0 1-.08.25c-.53.85-1.1 1.74-1.69 2.64 0-.1-.05-.2-.07-.31s-.34-.17-.36 0a1.72 1.72 0 0 0 0 .88 14 14 0 0 1-3.13 3.53.65.65 0 0 1-.92-.23 7.72 7.72 0 0 1-.92-4.43 9.27 9.27 0 0 1 .51-3.39h.08a2.53 2.53 0 0 1 .46.06c-.49 1.79-.75 4.92.1 6.81a.27.27 0 0 1-.13.13h.23a2 2 0 0 0 .23.46 1.56 1.56 0 0 0 .41-.36h.18c.03.01 0-.02-.02-.07z"/><path class="cls-1" d="M50.33 137.52a2.65 2.65 0 0 0-.54-.13l-.51-.13a2.55 2.55 0 0 1 .28-.21.53.53 0 0 1 .77.47zM49.08 135.64a31.41 31.41 0 0 0 2.92 1.62 19 19 0 0 0-2.69-.77c-.54-.33-1.08-.67-1.59-1zM49.46 99.63a4 4 0 0 1 .36.18c-.33.1-.64.18-1 .26-.08-.34.33-.57.64-.44zM48.33 71.59l-.69-.31a2.78 2.78 0 0 1 1.46 0l.23.07v.18a3.25 3.25 0 0 1-.52.28c-.17-.09-.32-.14-.48-.22zM49.36 71.33l-.23-.07a.39.39 0 0 1 .15 0s.05.05.08.07z"/><path class="cls-1" d="M47.67 135.46c.51.36 1 .7 1.59 1a32.93 32.93 0 0 0-4.9-.64h-.1c-3.21-.23-6.44-.2-8.82-.2v-.08c0-.03.06-.23.08-.33a40 40 0 0 1 11.46.18zM45.38 74.33c1.67 1.1 3.75 3 3.57 5 0 .17-.23.35-.41.23l.15-.23s.05-.08.08-.11a.56.56 0 0 0-.46-.82 12.67 12.67 0 0 0-2.82-3.4 5.5 5.5 0 0 0-.11-.67zM49.1 71.26a2.78 2.78 0 0 0-1.46 0A11.36 11.36 0 0 1 44 68.67c0-.23-.1-.46-.15-.7a19.64 19.64 0 0 0 5.25 3.29z"/><path class="cls-1" d="M48.31 78.43a.56.56 0 0 1 .46.82s-.05.08-.08.11a3.49 3.49 0 0 0-.38-.93zM48.33 71.59c.16.08.31.13.46.2a11.41 11.41 0 0 1-3.71.87v-.17a32.23 32.23 0 0 1 3.25-.9zM48.74 141.05c0 .13 0 .21-.13.26a.34.34 0 0 1 0-.36.75.75 0 0 0 .11-.13c-.03.08 0 .18.02.23z"/><path class="cls-1" d="M48.18 79.12a2.34 2.34 0 0 1-.33-.43l.07-.08a.51.51 0 0 1 .39-.18 3.49 3.49 0 0 1 .38.93l-.15.23v-.06a2.75 2.75 0 0 1-.36-.41zM48.36 140.75v-.06a1.82 1.82 0 0 0 .2-.25 1.82 1.82 0 0 0 .11.38.75.75 0 0 1-.11.13.34.34 0 0 0 0 .36.26.26 0 0 1-.35-.13l-.08-.2c.1-.08.18-.16.23-.23z"/><path class="cls-1" d="M48.36 140.69v.06c0 .07-.13.15-.18.23a1.72 1.72 0 0 1 0-.88c0-.17.3-.15.36 0s0 .21.07.31a1.82 1.82 0 0 1-.25.28zM48.49 79.53v.06a46.25 46.25 0 0 0-5.72 10.22c-1.2 3.34-1.56 6.64-2.31 10h-.51a24.45 24.45 0 0 1 .21-3.1 3.63 3.63 0 0 1 .46-.34.28.28 0 0 0-.28-.48.35.35 0 0 0-.08 0 36.34 36.34 0 0 1 7.87-16.9 2.75 2.75 0 0 0 .36.54zM47.64 71.28l.69.31a32.23 32.23 0 0 0-3.3.9v-.16a10 10 0 0 1 2.61-1.05zM47.08 77.18a.55.55 0 0 0 0-.13.32.32 0 0 0-.06-.16l-.12-.07a.38.38 0 0 0-.41 0c-.36-.44-.77-.85-1.13-1.28a.28.28 0 0 0 .2-.34.55.55 0 0 0 0-.18 12.67 12.67 0 0 1 2.82 3.41.51.51 0 0 0-.39.18l-.07.08c-.31-.41-.59-.82-.93-1.23a.41.41 0 0 0 .13-.28z"/><path class="cls-1" d="M47.85 78.69a2.34 2.34 0 0 0 .33.43A36.34 36.34 0 0 0 40.31 96c-.33.2-.64.41-1 .64.44-6.52 4.41-13.41 8.54-17.95zM49.08 135.64l-1.41-.18a45.76 45.76 0 0 1-9.56-8.58 9.3 9.3 0 0 1-.88-1.16c.06-.3.11-.58.16-.89a43.41 43.41 0 0 0 9.41 9.25c.74.54 1.51 1.05 2.28 1.56z"/><path class="cls-7" d="M47.67 135.46l-.67-.07a40 40 0 0 0-11.46-.18c.41-1.8.51-3.62.82-5.43.26-1.36.59-2.7.87-4.06a9.3 9.3 0 0 0 .88 1.16 45.76 45.76 0 0 0 9.56 8.58z"/><path class="cls-1" d="M47.08 77.18a.34.34 0 0 0 0-.13.55.55 0 0 1 0 .13zM47 77.05a.34.34 0 0 1 0 .13.41.41 0 0 1-.13.28.82.82 0 0 0-.23-.33c.11-.08.18-.16.28-.24a.32.32 0 0 1 .08.16z"/><path class="cls-1" d="M47 76.89c-.1.08-.17.16-.28.24a.61.61 0 0 0-.18-.26l-.05-.05a.38.38 0 0 1 .41 0zM46.67 77.13a.82.82 0 0 1 .23.33c-1 1.05-2.18 2-3.28 3a8.53 8.53 0 0 1-2.61 2 .45.45 0 0 1-.54-.54 1.2 1.2 0 0 1 .13-.33c.13.1.36 0 .28-.15l-.08-.21a8.31 8.31 0 0 1 2.21-2 29.32 29.32 0 0 1 3.41-2.33l.05.05a.61.61 0 0 1 .2.18zM29.54 38.42l-.05-.05a2.08 2.08 0 0 0-.72-.77c.06 0 .08 0 .13-.07s.13-.44-.1-.41a1.92 1.92 0 0 0-.41 0 6.1 6.1 0 0 1-.84-2.39.24.24 0 0 0 .25-.26v-.23c.95 4.33 5.36 5.95 9.62 5.56a32.23 32.23 0 0 0 4.91-.8c2.18-.12 2.16-1.51 0-4.12-4-1.11-7.38-.72-11.4-.16a.24.24 0 0 1-.13-.46l.26-.08c4.69-1.46 10.66-1.76 14.68 1.47 2.46 2-1.92 4-3.15 4.25-4.33.95-8.82 1.28-12.76-.92a2.71 2.71 0 0 0-.29-.56zM45.08 75.18a.15.15 0 0 0 0-.11 1.65 1.65 0 0 0 .31-.18 1.59 1.59 0 0 0 .13.13.55.55 0 0 1 0 .18.28.28 0 0 1-.2.34c-.13-.13-.23-.29-.33-.41z"/><path class="cls-1" d="M45.38 74.33a5.5 5.5 0 0 1 .11.69 1.59 1.59 0 0 1-.13-.13 5.45 5.45 0 0 1-.38-.46A2.7 2.7 0 0 1 45 74c.1.13.23.2.38.33z"/><path class="cls-9" d="M45.31 75.54c.36.43.77.84 1.13 1.28A29.32 29.32 0 0 0 43 79.15a8.31 8.31 0 0 0-2.21 2c-.48-1.25-1.2-2.41-1.79-3.59a52.46 52.46 0 0 1-2.18-5.18.38.38 0 0 0 .1-.13c.16-.23-.18-.44-.36-.28a1.8 1.8 0 0 0-.2.18c-2.36 2-3.72 4.71-5.59 7.07-2.18-4.59-2-9.43-2.56-14.35a10.67 10.67 0 0 0 1.12-1C28.26 69 35.57 71 39.77 70.72a.51.51 0 0 0 .28-.08 35.06 35.06 0 0 0 4.72 4.87.47.47 0 0 0 .54.03z"/><path class="cls-1" d="M45 74.43a5.45 5.45 0 0 0 .38.46c-.13-.1-.23-.23-.36-.33z"/><path class="cls-1" d="M45.36 74.89a1.65 1.65 0 0 1-.31.18 2.94 2.94 0 0 0 0-.51c.08.1.18.23.31.33zM45 75.13c.1.12.2.28.33.41a.47.47 0 0 1-.54 0 35.06 35.06 0 0 1-4.72-4.87.5.5 0 0 0 .34-.53 45.66 45.66 0 0 0 4.15 4.56c.05.21.1.44.13.65zM44.72 136.54a35.17 35.17 0 0 1 4.56.72c-2 1.31-2.79 3.87-4.41 5.59a9.14 9.14 0 0 1-.46-3.41c.03-.93.36-1.98.31-2.9zM45.21 143.49s0 .08.07.13h-.18s.08-.05.11-.13z"/><path class="cls-1" d="M45.21 143.49c0 .08-.06.1-.11.1a5 5 0 0 1-.64-.1c-.08-.05-.08-.1-.1-.16a3.86 3.86 0 0 0 .51-.48 6.48 6.48 0 0 0 .34.64zM45.08 72.66a15.34 15.34 0 0 1 .3 1.67c-.15-.13-.28-.2-.43-.31-.39-2.15-1.36-4.12-1.67-6.25.21.31.44.61.67.9.36 1.2.74 2.43 1 3.66l-.16.08c-.13.08-.08.31.08.28z"/><path class="cls-1" d="M45.1 143.59a1.56 1.56 0 0 1-.41.36 2 2 0 0 1-.23-.46 5 5 0 0 0 .64.1zM45 72.49v.17h-.18a.15.15 0 0 1-.08-.28l.16-.08s.1.13.1.19zM45.05 75.07a.15.15 0 0 1 0 .11l-.05-.05z"/><path class="cls-1" d="M45 74.56a2.94 2.94 0 0 1 0 .51v.06a1.52 1.52 0 0 1-.18-.18v-.06a3.66 3.66 0 0 1-.26-.41c0-.12 0-.25-.07-.38a.25.25 0 0 1 .15-.13 5.87 5.87 0 0 0 .41.46zM44.82 75a1.52 1.52 0 0 0 .18.18z"/><path class="cls-1" d="M45 74.43a5.87 5.87 0 0 1-.41-.46.24.24 0 0 1 .26 0 .14.14 0 0 0 .1 0 2.7 2.7 0 0 0 .05.46zM45 75.13l-.31.18c0-.21-.08-.44-.13-.65l.23.23v.06z"/><path class="cls-1" d="M43.23 67.33c-.08 0-.18 0-.13.13a1.12 1.12 0 0 0 .18.28c.31 2.13 1.28 4.1 1.67 6.25a.14.14 0 0 1-.1 0 .24.24 0 0 0-.26 0 2.51 2.51 0 0 1-.26-.31c-.59-2.38-1.51-4.64-1.43-7.17 0-.34.51-.44.56-.08s.16.8.26 1.18a3.8 3.8 0 0 0-.49-.28zM44.87 142.85a3.86 3.86 0 0 1-.51.48c-.85-1.89-.59-5-.1-6.81a3.62 3.62 0 0 1 .46 0c.05.92-.28 2-.31 2.9a9.14 9.14 0 0 0 .46 3.43zM44.51 74.48a3.66 3.66 0 0 0 .26.41l-.23-.23a.32.32 0 0 0-.03-.18z"/><path class="cls-1" d="M44.26 136.52a2.53 2.53 0 0 0-.46-.06h-.08a1.77 1.77 0 0 1 .36-.53.35.35 0 0 1 .18-.11h.1a.35.35 0 0 1 .31.23 3.59 3.59 0 0 1 0 .46 3.62 3.62 0 0 0-.41.01zM44.33 73.66a2.51 2.51 0 0 0 .26.31.25.25 0 0 0-.15.13c-.03-.1-.08-.28-.11-.44z"/><path class="cls-1" d="M44.51 74.48a.32.32 0 0 1 0 .16 45.66 45.66 0 0 1-4.15-4.56.1.1 0 0 0 0-.06.54.54 0 0 0-.46-.53 43 43 0 0 1-5.82-10.28 1.71 1.71 0 0 0 .26-.31 70.7 70.7 0 0 0 10 14.76c0 .16.08.29.11.44a.24.24 0 0 0 0 .28z"/><path class="cls-1" d="M44.51 74.48l-.07-.1a.24.24 0 0 1 0-.28c.02.13.05.26.07.38zM44.46 143.49h-.23a.27.27 0 0 0 .13-.13c.02.03.02.08.1.13zM44.26 135.82a.35.35 0 0 0-.18.11 1.77 1.77 0 0 0-.36.53c-2.87-.23-5.92.06-8.77-.56l-.05-.05a.47.47 0 0 0 .54-.23c2.38 0 5.61-.03 8.82.2zM43.8 68c.05.24.12.47.15.7a15 15 0 0 1-.67-.9 1.19 1.19 0 0 1 0-.25c.16.12.34.27.52.45zM43.72 67.59c0 .13.05.26.08.38-.18-.15-.36-.3-.54-.48a.3.3 0 0 1 0-.16 3.8 3.8 0 0 1 .46.26zM43.26 67.49a1.19 1.19 0 0 0 0 .25 1.12 1.12 0 0 1-.18-.28c-.05-.08 0-.15.13-.13a.3.3 0 0 0 .05.16z"/><path class="cls-11" d="M42.33 34.86c2.16 2.61 2.18 4 0 4.12a32.23 32.23 0 0 1-4.94.82c-4.26.39-8.67-1.23-9.62-5.56v-.05a5.12 5.12 0 0 0-.17-1.38 22 22 0 0 1 2.48-11c.69-1.31 6.9-7.41 7.79-5.25 2.47 6-2.35 13.68-6.92 17.14a.25.25 0 0 0 .11.44l-.26.08a.24.24 0 0 0 .13.46c4.07-.54 7.43-.93 11.4.18z"/><path class="cls-1" d="M40.69 81.41a.62.62 0 0 1 .13-.21l.08.21c.08.15-.15.25-.28.15z"/><path class="cls-1" d="M40.82 81.2a.62.62 0 0 0-.13.21 32.17 32.17 0 0 1-4-8.72l.16-.26A52.46 52.46 0 0 0 39 77.61c.62 1.18 1.34 2.39 1.82 3.59zM40.26 96.37c0-.12 0-.23.05-.35a.35.35 0 0 1 .08 0 .28.28 0 0 1 .28.48 3.63 3.63 0 0 0-.46.34c.02-.21.02-.34.05-.47z"/><path class="cls-1" d="M40.69 81.41l-.07.15C38.36 79.43 37.31 76 36.49 73c0-.1.13-.21.18-.31a32.17 32.17 0 0 0 4.02 8.72zM40.51 99.84c0 .17-.07.38-.12.56a2.08 2.08 0 0 0-.41 0 3.85 3.85 0 0 1 0-.48c.2-.06.36-.06.53-.08zM39.59 70.08a8.58 8.58 0 0 1-.51-.72l.69.08a.24.24 0 0 1 .13 0c.15.18.28.35.46.53a.1.1 0 0 1 0 .06.5.5 0 0 1-.34.53c-.15-.13-.27-.3-.43-.48z"/><path class="cls-1" d="M40.39 100.4v.1c-.08.36-.72.39-.79 0 0-.07 0-.18-.06-.25a.62.62 0 0 1 .47-.33 3.85 3.85 0 0 0 0 .48 2.08 2.08 0 0 1 .38 0zM40.36 70c-.18-.18-.31-.35-.46-.53a.54.54 0 0 1 .46.53zM40.31 96c0 .12 0 .23-.05.35a4.65 4.65 0 0 0-.92.62 2 2 0 0 1 0-.33c.33-.21.66-.42.97-.64z"/><path class="cls-1" d="M40.26 96.37v.42a7.86 7.86 0 0 0-.9.74 3.26 3.26 0 0 1 0-.54 4.65 4.65 0 0 1 .9-.62zM40.05 70.61a.51.51 0 0 1-.28.08c-4.2.31-11.51-1.69-10.41-6.82a1.21 1.21 0 0 0 .34-.3c-1 5.25 5.76 6.48 9.89 6.51.16.18.28.35.46.53z"/><path class="cls-1" d="M40.21 96.79a24.45 24.45 0 0 0-.21 3.1.62.62 0 0 0-.47.33 16.24 16.24 0 0 1-.2-2.69 7.86 7.86 0 0 1 .88-.74zM39.9 69.49a.24.24 0 0 0-.13 0l-.69-.08a37.33 37.33 0 0 1-5.28-9.87 3.7 3.7 0 0 0 .28-.28 43 43 0 0 0 5.82 10.23z"/><path class="cls-1" d="M39.08 69.36a8.58 8.58 0 0 0 .51.72c-4.13 0-10.92-1.26-9.89-6.51a3.48 3.48 0 0 0 .3-.26c-.4 5.13 5 5.69 9.08 6.05zM39.36 96.66a2 2 0 0 0 0 .33 13.89 13.89 0 0 0-4.16 5.61 45 45 0 0 0-1.89 6.46 19.6 19.6 0 0 0 3.17 14.41.46.46 0 0 0-.12.23l-.16.46c-5.2-8.51-5.4-21.35 3.16-27.5z"/><path class="cls-1" d="M39.34 97a3.26 3.26 0 0 0 0 .54c-5.25 4.69-7.25 14.28-4.74 20.63a30.46 30.46 0 0 0 2.72 5.26.54.54 0 0 0-.8 0 19.6 19.6 0 0 1-3.17-14.41 45 45 0 0 1 1.89-6.46 13.89 13.89 0 0 1 4.1-5.56zM27.42 32.19a4.19 4.19 0 0 0-.31-.69c.08-1.59.31-3.13.36-4.31.18-4 2.36-6.82 5.15-9.35.87-.8 3.79-4 5.28-3.13 2.36 1.38 1.49 7.2.79 9.23-1.38 4.18-3.69 7.84-7.51 10.15h-.12a.25.25 0 0 1-.06-.39c4.57-3.46 9.39-11.17 6.92-17.14-.89-2.16-7.1 3.94-7.79 5.25a22 22 0 0 0-2.48 11 2.88 2.88 0 0 0-.23-.62z"/><path class="cls-1" d="M36.88 124.06a2.74 2.74 0 0 1-.39-.59.54.54 0 0 1 .8 0 3.53 3.53 0 0 0 .21.34.27.27 0 0 1 0 .25c0 .26-.08.54-.15.8a5.41 5.41 0 0 1-.47-.8zM37.52 123.78a3.53 3.53 0 0 1-.21-.34.47.47 0 0 1 .21.34z"/><path class="cls-1" d="M36.88 124.06a5.41 5.41 0 0 0 .51.77c0 .31-.1.59-.16.89a3.8 3.8 0 0 1-.56-.79c.08-.28.13-.59.21-.87zM36.72 72.18a.26.26 0 0 0-.33 0 1.8 1.8 0 0 1 .2-.18c.18-.16.52 0 .36.28a.38.38 0 0 1-.1.13.69.69 0 0 1-.05-.13.29.29 0 0 0-.08-.1z"/><path class="cls-1" d="M36.88 124.06c-.08.28-.13.59-.21.87a6.59 6.59 0 0 1-.49-.77l.16-.46a.46.46 0 0 1 .12-.23 2.74 2.74 0 0 0 .42.59zM36.67 124.93a3.8 3.8 0 0 0 .56.79c-.28 1.36-.61 2.7-.87 4.06-.31 1.81-.41 3.63-.82 5.43l-.51.08a43.83 43.83 0 0 1 1.64-10.36zM36.85 72.41l-.16.26a2.17 2.17 0 0 1-.1-.33l.15-.18a.29.29 0 0 1 .08.1.69.69 0 0 0 .03.15zM36.72 72.18l-.15.18a.8.8 0 0 0-.21.2.88.88 0 0 0 0-.15.2.2 0 0 1 .08-.23.26.26 0 0 1 .28 0z"/><path class="cls-1" d="M36.57 72.36a2.17 2.17 0 0 0 .1.33c-.05.1-.13.21-.18.31a3.24 3.24 0 0 1-.13-.41.8.8 0 0 1 .21-.23zM36.18 124.16a6.59 6.59 0 0 0 .49.77A43.83 43.83 0 0 0 35 135.29a.33.33 0 0 0-.15.49.32.32 0 0 1-.18-.26c-.82-3.52.33-7.92 1.51-11.36z"/><path class="cls-1" d="M36.36 72.59a3.24 3.24 0 0 0 .13.41 76.43 76.43 0 0 1-5.38 7.71.58.58 0 0 1-.92-.12 27.57 27.57 0 0 1-2.8-14.92c.15-.13.31-.26.46-.41 0 4.71.31 10.25 2.57 14.48a1.74 1.74 0 0 0-.13.15h.2a2 2 0 0 0 .21.38A2.21 2.21 0 0 0 31 80a.86.86 0 0 1 .23 0 .54.54 0 0 0-.1-.18c1.87-2.23 3.13-5 5.23-7.23z"/><path class="cls-1" d="M36.39 72.18a.2.2 0 0 0-.08.23.88.88 0 0 1 0 .15c-2.1 2.23-3.36 5-5.28 7.25-.1-.18-.18-.38-.28-.59 1.92-2.33 3.25-5.07 5.64-7.04zM35.44 135.62a.47.47 0 0 1-.54.23h-.1a.33.33 0 0 1 .15-.49H35l.51-.08c0 .1 0 .23-.08.33s.01-.02.01.01zM34.34 58.9a1.71 1.71 0 0 1-.26.31c-.1-.26-.2-.49-.31-.75a1 1 0 0 0 .23-.23c.11.23.23.47.34.67z"/><path class="cls-8" d="M33.8 59.49a37.33 37.33 0 0 0 5.28 9.87c-4.1-.34-9.48-.92-9.08-6 1.06-1 2.11-2 3.13-3.07a9.2 9.2 0 0 0 .67-.8z"/><path class="cls-1" d="M33.77 58.46c.11.26.21.49.31.75a3.7 3.7 0 0 1-.28.28c-.1-.23-.18-.49-.26-.74.08-.11.16-.18.23-.29z"/><path class="cls-1" d="M33.77 58.46c-.07.11-.15.18-.23.29a2.37 2.37 0 0 1-.13-.34c-.1-.33.42-.56.57-.23a1 1 0 0 1-.21.28zM33.54 58.75c.08.25.16.51.26.74a9.2 9.2 0 0 1-.67.72c-1 1.07-2.07 2.1-3.13 3.07 0-.18.06-.36.08-.56s-.2-.28-.28-.1q1.89-1.92 3.74-3.87zM31.08 79.84a.54.54 0 0 1 .1.18A.86.86 0 0 0 31 80a.46.46 0 0 0 .08-.16z"/><path class="cls-1" d="M30.8 79.25c.1.21.18.41.28.59A.46.46 0 0 1 31 80l-.46-.08a.23.23 0 0 1-.07-.18 5.85 5.85 0 0 0 .33-.49z"/><path class="cls-1" d="M31 80a2.21 2.21 0 0 1-.25.3 2 2 0 0 1-.21-.38zM30.8 79.25a5.85 5.85 0 0 1-.38.49c-2.26-4.23-2.54-9.77-2.57-14.48a3.2 3.2 0 0 0 .39-.36c.59 4.92.38 9.76 2.56 14.35zM30.42 79.74a.23.23 0 0 0 .07.18h-.2a1.74 1.74 0 0 1 .13-.18zM29.7 63.57a1.21 1.21 0 0 1-.34.3 8.57 8.57 0 0 1 .44-1.25c.08-.18.31 0 .28.1s0 .38-.08.56a3.48 3.48 0 0 1-.3.29zM29.83 39c1.15 2.74 0 6.79-1.8 9s-3.87 5.33-6.28 6.87a.11.11 0 0 1-.08 0 .32.32 0 0 0 .18-.43v-.08c1.07-1.15 5.66-6.53 6.05-7.15 1.07-1.77 2.89-7.25.66-8.89A1.3 1.3 0 0 0 28 38l.36-.21a4.8 4.8 0 0 0 1.28 1.08.24.24 0 0 0 .13 0l.06.13z"/><path class="cls-1" d="M29.54 38.42a2.71 2.71 0 0 1 .26.51.24.24 0 0 1-.13 0 4.8 4.8 0 0 1-1.28-1.08c.1-.07.23-.12.33-.2a3.31 3.31 0 0 0 .77.77z"/><path class="cls-1" d="M29.49 38.34a3.31 3.31 0 0 1-.77-.77h.05a2.08 2.08 0 0 1 .72.77zM29.8 62.62a8.57 8.57 0 0 0-.44 1.25 10.67 10.67 0 0 1-1.12 1 4.4 4.4 0 0 0 0-.51.13.13 0 0 0-.08-.13c.51-.51 1.08-1.05 1.64-1.61zM28.54 38.27c2.23 1.64.41 7.12-.66 8.89-.39.62-5 6-6.05 7.15a1.69 1.69 0 0 1-.13-.31c1.13-1.23 2.13-2.71 3.15-4 1.36-1.7 2.77-3.16 3.41-5.28a17.09 17.09 0 0 0 .57-2.24c.1-.76.51-4.56-1.62-4.07L28 38a1.3 1.3 0 0 1 .54.27z"/><path class="cls-1" d="M28.54 37.39a.83.83 0 0 1-.15-.25 1.92 1.92 0 0 1 .41 0c.23 0 .28.3.1.41s-.07 0-.13.07a.39.39 0 0 0-.2-.12s-.03-.08-.03-.11z"/><path class="cls-11" d="M27.21 38.42c2.13-.49 1.72 3.31 1.62 4.07a17.09 17.09 0 0 1-.57 2.24c-.64 2.12-2.05 3.58-3.41 5.28-1 1.28-2 2.76-3.15 4-1.77-3.87-1.2-7.58.77-11.38a9 9 0 0 1 3.53-3.7.27.27 0 0 1 .11 0 8.81 8.81 0 0 0 1.1-.46z"/><path class="cls-1" d="M28.77 37.57h-.05a1.06 1.06 0 0 1-.15-.15.39.39 0 0 1 .2.15z"/><path class="cls-1" d="M28.72 37.6c-.1.08-.23.13-.33.2-.05-.1-.13-.18-.18-.28a1.86 1.86 0 0 1 .31-.1h.05a1.06 1.06 0 0 0 .15.18z"/><path class="cls-1" d="M28.54 37.39v.06h-.05c-.05 0 .05-.03.05-.06zM28.39 37.14a.83.83 0 0 0 .15.25.88.88 0 0 0-.49-.15.27.27 0 0 1-.05-.11 2.48 2.48 0 0 1 .38 0z"/><path class="cls-1" d="M28.52 37.42a1.86 1.86 0 0 0-.31.1 1.3 1.3 0 0 1-.18-.25.88.88 0 0 1 .49.15zM28.39 37.8L28 38c-1.13-.41-2.46.38-3.54 1.33a3.62 3.62 0 0 1-.79.18A15.86 15.86 0 0 1 25 38.39a31.19 31.19 0 0 0 3.2-.87c.06.1.14.18.19.28zM28.36 37.14a2.48 2.48 0 0 0-.38 0 6.67 6.67 0 0 1-.82-2.69.3.3 0 0 0 .36.28 6.1 6.1 0 0 0 .84 2.41zM28.19 64.39a4.4 4.4 0 0 1 0 .51 3.2 3.2 0 0 1-.39.36v-.75a2 2 0 0 0 .26-.25.13.13 0 0 1 .13.13z"/><path class="cls-1" d="M28 37.27a1.3 1.3 0 0 0 .18.25 31.19 31.19 0 0 1-3.2.87 5.65 5.65 0 0 1 2.28-1.15.4.4 0 0 0 .2 0 1.66 1.66 0 0 1 .54.03zM27.85 64.51a4.19 4.19 0 0 1-.38.36 2.36 2.36 0 0 1 .05-.48.31.31 0 0 1 .59-.13 2 2 0 0 1-.26.25z"/><path class="cls-1" d="M28 37.16a.27.27 0 0 0 .05.11 1.66 1.66 0 0 0-.54-.06 4.79 4.79 0 0 1 .49-.05z"/><path class="cls-11" d="M28 37.16a4.79 4.79 0 0 0-.49.05.4.4 0 0 1-.2 0c-4.49.49-8.36 1.54-13 .26a20.43 20.43 0 0 1-7.91-4.69c-2.28-2.05-1.05-2.64 1.23-3.41 3.53-1.2 11.71-2.07 16.27.28v.05l.15.31a.18.18 0 0 0 .34-.05 5.4 5.4 0 0 1 2.66 3.74 6.94 6.94 0 0 1 .08.77 6.67 6.67 0 0 0 .87 2.69z"/><path class="cls-1" d="M28 38l-.82.41h-.05a1.73 1.73 0 0 0-.33.1 7.67 7.67 0 0 0-.77.36.27.27 0 0 0-.11 0 12.69 12.69 0 0 1-1.46.41C25.57 38.39 26.9 37.6 28 38zM27.85 64.51v.75c-.15.15-.31.28-.46.41 0-.28.05-.54.08-.8a4.19 4.19 0 0 0 .38-.36zM27.77 34.19v.28a.24.24 0 0 1-.25.26 1.74 1.74 0 0 1-.05-.39v-.1a.74.74 0 0 0 0-.33 1.44 1.44 0 0 0-.05-.59v-1.13a2.88 2.88 0 0 1 .18.59V33a5.88 5.88 0 0 0 .17 1.19z"/><path class="cls-1" d="M27.6 32.81a5.12 5.12 0 0 1 .17 1.38A5.88 5.88 0 0 1 27.6 33zM27.47 34.34a1.74 1.74 0 0 0 .05.39.3.3 0 0 1-.36-.28 6.94 6.94 0 0 0-.08-.77v-1.41a3 3 0 0 1 .31 1 1.44 1.44 0 0 1 .05.59 1.23 1.23 0 0 0 0 .33zM27.47 64.87c0 .26 0 .52-.08.8a91.79 91.79 0 0 1-19.3 12.86.32.32 0 0 0-.26-.43c5.95-3.1 11.72-6.2 16.82-10.66.95-.82 1.89-1.67 2.82-2.57z"/><path class="cls-1" d="M27.44 33.91a.74.74 0 0 1 0 .33 1.23 1.23 0 0 1 0-.33zM27.42 32.19v1.13a3 3 0 0 0-.31-1 4.18 4.18 0 0 1 0-.79 4.19 4.19 0 0 1 .31.66zM26.83 38.52a1.73 1.73 0 0 1 .33-.1 8.81 8.81 0 0 1-1.1.46 7.67 7.67 0 0 1 .77-.36z"/><path class="cls-1" d="M27.11 31.5a4.18 4.18 0 0 0 0 .79 5.53 5.53 0 0 0-2.64-2.61v-.69a6.19 6.19 0 0 1 2.64 2.51z"/><path class="cls-1" d="M27.08 32.29v1.41a5.4 5.4 0 0 0-2.66-3.7.12.12 0 0 0 0-.05v-.23a5.53 5.53 0 0 1 2.66 2.57zM27.29 37.24A5.65 5.65 0 0 0 25 38.39c-8.08 1.77-15.1-.46-21-7.53A9 9 0 0 1 7.73 29a.31.31 0 0 0 .33.05 5.48 5.48 0 0 0 1.11-.41.91.91 0 0 0 .25-.07c4.51-.93 10.54-.9 14.33.82a1.25 1.25 0 0 0 .12.3c-4.56-2.35-12.74-1.48-16.27-.28-2.28.77-3.51 1.36-1.23 3.41a20.43 20.43 0 0 0 7.84 4.72c4.72 1.24 8.59.19 13.08-.3zM24.49 39.34a12.69 12.69 0 0 0 1.51-.41 9 9 0 0 0-3.48 3.69c-2 3.8-2.54 7.51-.77 11.38-.08.11-.18.18-.26.29a6.54 6.54 0 0 1-.77-1.39.28.28 0 0 0-.07-.26c-1.31-3.67.23-8.69 2.3-11.53a15.25 15.25 0 0 1 1.54-1.77z"/><path class="cls-1" d="M24.44 29.68v.23a.12.12 0 0 1 0 .05l-.21-.13a1.54 1.54 0 0 1-.05-.31c.1.06.18.08.28.13z"/><path class="cls-1" d="M24.42 29v.69c-.1 0-.18-.07-.28-.13a7 7 0 0 1-.18-.76 1.35 1.35 0 0 1 .46.2zM24.21 29.83l.21.13a.18.18 0 0 1-.34.05l-.15-.31a1.75 1.75 0 0 1 .28.13zM23.85 20h-.05c-.05 0-.28.13-.43.18.07-.54.15-1 .23-1.49a.28.28 0 0 1 .54 0 31.64 31.64 0 0 1 .05 5.31c0 1.67.2 3.31.23 4.95a1.35 1.35 0 0 0-.44-.2 37.77 37.77 0 0 1-.15-8 1.1 1.1 0 0 0 .28-.33c.13-.17-.05-.48-.26-.42z"/><path class="cls-1" d="M24.16 29.52a1.54 1.54 0 0 0 .05.31 1.75 1.75 0 0 0-.28-.13v-.05a1.25 1.25 0 0 1-.12-.3 4.07 4.07 0 0 1 .35.17zM23.85 20.27V20c.21 0 .39.29.26.44a1.1 1.1 0 0 1-.28.33v-.43z"/><path class="cls-1" d="M24 28.76a7 7 0 0 0 .18.76 4.07 4.07 0 0 0-.38-.17 5.59 5.59 0 0 1-.26-.82 2.39 2.39 0 0 1 .49.2zM25 38.39a15.86 15.86 0 0 0-1.31 1.13c-6.77 1.31-14.12-2.05-18.81-7 .1-.33-.24-.64-.57-.64-.21-.23-.39-.49-.59-.72a.37.37 0 0 1 0-.54 12.62 12.62 0 0 1 3.81-1.87.35.35 0 0 0 .21.23A9 9 0 0 0 4 30.86c5.91 7.07 12.93 9.3 21 7.53zM23.7 39.52a3.62 3.62 0 0 0 .79-.18 15.25 15.25 0 0 0-1.59 1.75c-2.07 2.84-3.61 7.86-2.3 11.53a.43.43 0 0 0-.54-.1c-1.23-3.49.15-8.28 2-11.05a16.16 16.16 0 0 1 1.64-1.95zM23.85 20.27a5.93 5.93 0 0 1-.56.43c0-.2.05-.38.08-.56s.28-.13.43-.18 0 0 .05 0zM23.85 20.3v.43a2.49 2.49 0 0 1-.62.59c0-.21.05-.41.08-.59a5.93 5.93 0 0 0 .54-.43z"/><path class="cls-1" d="M23.83 20.76a37.77 37.77 0 0 0 .15 8 2.39 2.39 0 0 0-.49-.2 18.85 18.85 0 0 1-.26-7.13 2.49 2.49 0 0 0 .6-.67z"/><path class="cls-1" d="M23.49 28.53a5.59 5.59 0 0 0 .26.82c-3.75-1.72-9.82-1.75-14.33-.82.39-.18.77-.36 1.15-.57 4.29-.84 9.39-.9 12.9.54zM23.37 20.17c0 .18-.05.36-.08.56-1.85 1.33-4.95 1.9-7 2.92-2.61 1.49-5.43 3.92-8.25 4.9L8 28.6l-.44.13a.42.42 0 0 1 .21-.51c3.13-1.57 5.82-3.95 9-5.36 2.11-.97 4.39-1.79 6.6-2.69z"/><path class="cls-1" d="M23.29 20.76c0 .18-.05.38-.08.59-1.43 1.18-3.64 1.57-5.28 2.21-2.66 1.05-4.84 3-7.36 4.38-.89.18-1.74.39-2.53.62 2.82-1 5.64-3.41 8.25-4.9 2.05-1 5.15-1.57 7-2.9zM21.85 54.39a.32.32 0 0 1-.18.43.07.07 0 0 1-.07 0 1.3 1.3 0 0 0-.13 0 .3.3 0 0 1-.15-.17.28.28 0 0 1 .07-.31l.05-.05a.89.89 0 0 0 .16.25 1.3 1.3 0 0 0 .23-.23s.02.05.02.08z"/><path class="cls-1" d="M21.7 54a1.69 1.69 0 0 0 .13.31 1.3 1.3 0 0 1-.23.23.89.89 0 0 1-.16-.25c.08-.11.18-.18.26-.29z"/><path class="cls-1" d="M21.44 54.29l-.05.05a.28.28 0 0 0-.07.31 5.65 5.65 0 0 1-.9-1.29c.08-.1.13-.2.2-.3a.47.47 0 0 0 .05-.16 6.54 6.54 0 0 0 .77 1.39zM20.6 52.62a.28.28 0 0 1 .07.26.46.46 0 0 1-.07-.26z"/><path class="cls-1" d="M20.21 52.93c-.05-.13-.1-.26-.15-.41a.43.43 0 0 1 .54.1.46.46 0 0 0 .07.26.47.47 0 0 1-.05.16c-.07.1-.12.2-.2.3-.08-.13-.13-.26-.21-.41zM20.37 3.89a.45.45 0 0 1 .13.28l-.5.08h-.08c-.15 0-.26-.13-.26-.28l.26-.15a.38.38 0 0 1 .45.07z"/><path class="cls-1" d="M20 4.25l.54-.08a.38.38 0 0 1-.13.26 44.65 44.65 0 0 0-9.08 10.15c.34-.49.67-1 1-1.51 2-3 4.43-6.87 7.59-8.82zM20.21 52.93c.08.15.13.28.21.43-2.59 4.11-5.42 8.08-7.82 12.28-1.18 2-2.33 4-3.49 6-.25.41-2.66 5.33-2 6.28a.47.47 0 0 0 .15.64c-1.4.38-1-1.9-.69-2.82a48.16 48.16 0 0 1 3.69-7.13 162.36 162.36 0 0 1 9.95-15.68z"/><path class="cls-1" d="M20.06 52.52c.05.15.1.28.15.41a162.36 162.36 0 0 0-9.92 15.71 48.16 48.16 0 0 0-3.69 7.13c-.33.92-.71 3.2.69 2.82a.48.48 0 0 0 .54.07c.08 0 .18-.07.26-.13a.28.28 0 0 1-.23.21c-3 .77-1.82-3-1.05-4.64a123.35 123.35 0 0 1 13.1-21.48c.09-.05.09-.1.15-.1zM11.29 14.58A86.48 86.48 0 0 0 1.4 34.86a3.38 3.38 0 0 0-.74.93.4.4 0 0 1-.31-.52c1.66-7 4.94-13.1 9-19 3-4.36 5.75-9.43 10.28-12.33 0 .15.11.31.26.28-3.16 2-5.57 5.82-7.59 8.82-.3.54-.67 1.05-1.01 1.54zM10.57 28c-.38.21-.76.39-1.15.57a.91.91 0 0 1-.25.07c-.52.1-1 .23-1.44.36a.35.35 0 0 1-.21-.23L8 28.6h.08c.75-.25 1.6-.46 2.49-.6z"/><path class="cls-1" d="M9.17 28.6a5.48 5.48 0 0 1-1.11.4.31.31 0 0 1-.33 0c.46-.17.92-.3 1.44-.4zM7.29 78.59a.47.47 0 0 1-.15-.59.53.53 0 0 0 .54.12.13.13 0 0 1 .15 0 .32.32 0 0 1 .26.43c-.08.06-.18.08-.26.13a.48.48 0 0 1-.54-.09zM4.32 31.86c.33 0 .67.31.57.64-.21-.21-.39-.44-.57-.64z"/><path class="cls-1" d="M4.89 32.5a.22.22 0 0 1-.08.15c-.67.9-1.41 1.75-2.13 2.59-.56.67-1 1.49-1.92 1.57a.25.25 0 0 1-.26-.26 1.41 1.41 0 0 1 .16-.74.41.41 0 0 0 .51-.29c.08-.2.13-.41.23-.64.15-.16.31-.31.44-.46C2.53 33.6 3.22 32.75 4 32a.43.43 0 0 1 .31-.15c.19.21.37.44.58.65z"/><path class="cls-1" d="M1.4 34.88c-.1.23-.15.44-.23.64a.41.41 0 0 1-.51.29 3.38 3.38 0 0 1 .74-.93z"/><path class="cls-12" d="M90.12 30.27c-2 .3-4.46-4.93-2.15-5.7s3.38 4.31 2.92 5.7"/><path class="cls-13" d="M90.12 30.27c-2 .3-4.46-4.93-2.15-5.7s3.38 4.31 2.92 5.7"/><path class="cls-12" d="M90.25 29.81a3.71 3.71 0 0 1-1.9-1.92c-.27-.5-1-2.45 0-2.57.86-.1 1.32 1.56 1.49 2.14a9.84 9.84 0 0 1 .24 2.81.79.79 0 0 0 1.47.39c1.25-2.06-1.11-8.6-4.21-6.72-2.75 1.66.15 8.18 3 6.73a.47.47 0 0 0-.11-.86zM95 29c.93 0 1.39-1.23.62-2.46-1.81-2.74-1.81 1.46-.42 2.96"/><path class="cls-13" d="M95 29c.93 0 1.39-1.23.62-2.46-1.81-2.74-1.81 1.46-.42 2.96"/><path class="cls-12" d="M95.45 29.53a1.63 1.63 0 0 0 .83-2.4c-.29-.58-1-2-1.89-1.81-1.5.33-.57 4.65.81 4.53a.38.38 0 0 0 .34-.26c.12-.4-.08-.63-.25-1a5.73 5.73 0 0 1-.52-1.56 2.62 2.62 0 0 1 .06-1.18c-.08.26.43.6.59.84a1.23 1.23 0 0 1-.42 1.83.55.55 0 0 0 .42 1z"/></g></g></svg>