<svg xmlns="http://www.w3.org/2000/svg" viewBox="0 0 119.62 148.19"><defs><style>.cls-1{fill:#1d3033;stroke:#1d3033;stroke-linecap:round;stroke-linejoin:round;stroke-width:.66px}.cls-2{fill:#bc4d20}.cls-3{fill:#f3ed64}.cls-4{fill:#f7e5d7}.cls-5{fill:#726c2b}.cls-7{fill:#13736f}.cls-8{fill:#39a199}.cls-10{fill:#fff}.cls-11{fill:none}</style></defs><g id="レイヤー_2" data-name="レイヤー 2"><g id="レイヤー_3" data-name="レイヤー 3"><path class="cls-1" d="M119.17 137.67a.64.64 0 0 1-.36 1 4.56 4.56 0 0 0 .36-.69.25.25 0 0 0-.44-.23 1.3 1.3 0 0 1-.18.25c-.61-1.66-2.84-1.28-4.33-1.84-3.41-1.33-6.07-4.36-8.92-6.82-5.25-4.34-11.41-8.87-18.3-10.21a.15.15 0 0 0 0-.18c0-.12-.07-.25-.1-.38C94 120 100.46 124 105.84 128.8a35 35 0 0 0 11.1 7.12c1.48.59 1.33.46 2.23 1.75z"/><path class="cls-1" d="M118.55 138a1.3 1.3 0 0 0 .18-.25.25.25 0 0 1 .44.23 4.56 4.56 0 0 1-.36.69.41.41 0 0 1-.33.08.53.53 0 0 1-.34-.13 3.69 3.69 0 0 0 .41-.62z"/><path class="cls-1" d="M118.48 138.72a.41.41 0 0 0 .33-.08c-2.9 5.41-11 10.05-17 9.1a46.87 46.87 0 0 1-17.38-6.23l.28-.08a.2.2 0 0 0 0-.38 7.66 7.66 0 0 0-1.46-.28 43.91 43.91 0 0 1-7.25-6.05 127 127 0 0 1-11.4-12.92c0-.15 0-.31.05-.46a.27.27 0 0 0-.11-.28.34.34 0 0 0 .16-.36 62.94 62.94 0 0 0 5 6.07c4.12 4.36 8 9.13 13 12.64a40.59 40.59 0 0 0 14.92 6.71c3.71.83 7.4 1.65 10.94-.1 2.66-1.33 8.1-4.3 9.92-7.3z"/><path class="cls-1" d="M118.55 138a3.69 3.69 0 0 1-.41.62l-.07-.08c-1.41-1.77-4-1.33-5.87-2.54a48.36 48.36 0 0 1-6-4.87c-5.72-5.17-12.07-9.48-19.59-11.5a.44.44 0 0 1-.2-.13.42.42 0 0 0 .54-.34c6.94 1.34 13.1 5.87 18.35 10.18 2.85 2.46 5.51 5.49 8.92 6.82 1.49.53 3.72.15 4.33 1.84z"/><path class="cls-1" d="M118.14 138.59a.53.53 0 0 0 .34.13c-1.82 3-7.26 6-10 7.3-3.54 1.75-7.23.93-10.94.1a40.59 40.59 0 0 1-14.92-6.71c-4.92-3.51-8.85-8.28-13-12.64a62.94 62.94 0 0 1-5-6.07c0-.08 0-.16-.1-.16s0-.05-.06-.07a54.57 54.57 0 0 1-4.74-8.18 53.9 53.9 0 0 1-2.07-5.13.53.53 0 0 0-.31-.92 68.37 68.37 0 0 1-2.36-27.81 5.87 5.87 0 0 0 .59-.05c-.82 9.17-.59 18.76 2.44 27.58 3.15 9.12 8.43 16.15 14.91 23.17 5.9 6.41 12.28 12.48 20.84 15.1 5.72 1.72 11.08 3 16.71 0 2.83-1.54 5.8-3.1 7.67-5.64z"/><path class="cls-2" d="M118.07 138.51l.07.08c-1.87 2.54-4.84 4.1-7.59 5.59-5.63 3-11 1.77-16.71 0-8.56-2.62-14.94-8.69-20.84-15.1-6.48-7-11.76-14-14.91-23.17-3-8.82-3.26-18.41-2.44-27.58a30.11 30.11 0 0 0 11.07-2.82c-.36.74-.71 1.49-1.1 2.25a.33.33 0 0 0 .28.49 10.57 10.57 0 0 0 4.1-.56c-.23 1.05-.51 2.1-.82 3.15a.3.3 0 0 0-.15.46c-.36 1.23-.72 2.46-1 3.71a.3.3 0 0 0 .57.16c.35-.9.79-1.8 1.2-2.72 3.59 5.31 5.92 11.33 8.74 17.07 3.18 6.38 4.67 13.25 7.61 19.69a.24.24 0 0 0 .13.13h.08a.44.44 0 0 0 .2.13c7.52 2 13.87 6.33 19.59 11.5a48.36 48.36 0 0 0 6 4.87c1.85 1.34 4.51.9 5.92 2.67z"/><path class="cls-3" d="M97.15 32.75c4.67 8.92 5.36 18.58.41 27.25.85-4.54-.08-9.77-.64-14.1-.59-4.56-2-8.71-5.54-11.76a.13.13 0 1 0-.18.18c6.08 5.94 6.51 18.53 5 26.5a11.49 11.49 0 0 1-3 5.77c1.26-4.16-1.18-8.26-5.84-7.77a40.44 40.44 0 0 0 0-5.28.23.23 0 0 0-.46 0c-.52 6.43-1 13.64-6.59 17.87a.37.37 0 0 0-.16.35c-.56.7-1.2 1.34-1.82 2-.28.31-.58.61-.87.92q-2.11 3.07-2.82-.54a.24.24 0 0 0-.38-.28 11.89 11.89 0 0 1-3.79 2.64.35.35 0 0 1-.08 0 10.52 10.52 0 0 1-1.39.6c-3.33 1.25.16-3.52.36-3.85a38.07 38.07 0 0 0 2.74-7 48.2 48.2 0 0 0 1.88-16.68.09.09 0 0 0 0-.08 29.44 29.44 0 0 0 8.54-.15c.18 0 .15-.36 0-.34-8.49 1-17.26-2-22.38-8.74a14.28 14.28 0 0 0 4.12-.33 10.87 10.87 0 0 0 13.31-3.36A6.8 6.8 0 0 0 79.54 35a.25.25 0 0 0-.26-.41c-4.43 1.1-7.51 1.79-12 .23A23 23 0 0 1 56.78 27a33.53 33.53 0 0 1-.16-10.62c0-.23-.28-.23-.35-.05-2.59 6.67-.62 17.79 5.48 22.2.33.23.67.46 1 .67-7-.46-13.69-2.31-15.77-10a1.81 1.81 0 0 1 .05-.31.29.29 0 0 0-.56-.15 23.15 23.15 0 0 0-1.33 8.56 16.86 16.86 0 0 1-3.8-17c2.36-8.05 9.56-10.15 16.61-6.56s0 0 .05 0a.38.38 0 0 0 .28.12c11 1 23.12 6.57 25.4 18.54 0 .2.34.15.34 0a16.75 16.75 0 0 0-3.44-9.3c.1-3.1.44-6.26.46-9.39C87.74 19.5 93 24.83 97.15 32.75zm-13 16a.17.17 0 0 0 0-.33 20.2 20.2 0 0 0-2.15-.37 10.91 10.91 0 0 1-3-1.3c-1.46-.82-2.85-1.87-4.28-2.75a.08.08 0 0 0-.08.13c2.26 1.77 6.26 5.77 9.49 4.64z"/><path class="cls-1" d="M97.56 60c5-8.67 4.26-18.33-.41-27.25C93 24.83 87.74 19.5 81.1 13.83a1.23 1.23 0 0 0 0-.33c3.79 2.69 7.07 4.77 10.18 8.79 8.61 11.15 15.32 25.84 6.07 38.53a3.43 3.43 0 0 0 .15-.8z"/><path class="cls-1" d="M97.38 60.82c9.25-12.69 2.54-27.38-6.07-38.53-3.11-4-6.39-6.1-10.18-8.79v-.28c15.71 9.33 28.63 31.63 16.1 48.16.05-.18.1-.38.15-.56z"/><path class="cls-1" d="M96.59 61.51c-.06.08-.11.18-.16.26a.2.2 0 0 0 0 .23 14.87 14.87 0 0 1-4.28 6.74 8.51 8.51 0 0 0 .85-1.38 5.5 5.5 0 0 0 .25-.75 11.49 11.49 0 0 0 3-5.77c1.51-8 1.08-20.56-5-26.5a.13.13 0 1 1 .18-.18c3.51 3 5 7.2 5.54 11.76.56 4.33 1.49 9.56.64 14.1-.38.49-.69.98-1.02 1.49z"/><path class="cls-1" d="M97.38 60.82c0 .2-.1.38-.15.56s-.31.44-.49.64a.16.16 0 0 1-.28 0 4.43 4.43 0 0 0 .13-.49c.33-.49.64-1 .94-1.49a3.43 3.43 0 0 1-.15.78z"/><path class="cls-1" d="M88.36 71.84a.13.13 0 0 1 .1-.08 8.84 8.84 0 0 0 3.69-3A14.87 14.87 0 0 0 96.46 62a.16.16 0 0 0 .28 0c.18-.2.33-.43.49-.64a12.94 12.94 0 0 1-.41 1.29c-2.13 5.45-6.64 8.58-11 12.32-4.7 4.05-8.46 5.16-14.64 4.75a.84.84 0 0 1-.36-.11 5.41 5.41 0 0 0 .23-1.53h.13c6.74.43 10.59-1.7 15.35-5.62.26-.1.52-.15.72-.23a7.94 7.94 0 0 0 1.11-.39z"/><path class="cls-1" d="M96.43 61.77c0-.08.1-.18.16-.26a4.43 4.43 0 0 1-.13.49.2.2 0 0 1-.03-.23zM87.36 58.82c4.66-.49 7.1 3.61 5.84 7.77a16.31 16.31 0 0 1-1.51 1.49c2.51-3.79.87-9.25-4.36-8.87a1.89 1.89 0 0 0 .03-.39z"/><path class="cls-1" d="M93.2 66.61a5.5 5.5 0 0 1-.25.75 8.51 8.51 0 0 1-.77 1.38 18.61 18.61 0 0 1-2 1.67 18.17 18.17 0 0 0-1.69 1.35.13.13 0 0 0-.1.08 7.94 7.94 0 0 1-1.08.41c-.2.08-.46.13-.72.23.49-.38 1-.79 1.46-1.23.11-.07.21-.18.31-.25a9 9 0 0 0 2.59-1.93 5.29 5.29 0 0 0 .77-1 16.31 16.31 0 0 0 1.48-1.46z"/><path class="cls-1" d="M88.33 71c-.1.07-.2.18-.31.25-.48.44-1 .85-1.46 1.23-1.89.54-5 1.28-6.35.16.15-.23.25-.41.36-.57h.08c.33-.21.66-.41 1-.64 1-.16 2.23 0 3.18-.13 2.31-.44 4.87-1.39 6.18-3.51 2.23-3.57.79-7.9-3.69-8.13v-.41c5.23-.38 6.87 5.08 4.36 8.87-1.04.98-2.19 1.88-3.35 2.88z"/><path class="cls-4" d="M87.31 59.64c4.48.23 5.92 4.56 3.69 8.13-1.31 2.12-3.87 3.07-6.18 3.51-.95.18-2.15 0-3.18.13 3.69-2.75 5.2-7.21 5.67-11.77z"/><path class="cls-1" d="M91.69 68.1a5.29 5.29 0 0 1-.77 1 9 9 0 0 1-2.59 1.9c1.16-1 2.31-1.9 3.36-2.9zM90.15 70.41a18.61 18.61 0 0 0 2-1.67 8.84 8.84 0 0 1-3.69 3 18.17 18.17 0 0 1 1.69-1.33zM86.87 59a.39.39 0 0 0-.05.49c-.59 4.77-2.15 9.59-6.15 12.13a.2.2 0 0 0-.34 0 .58.58 0 0 1-.18.2.37.37 0 0 1 .16-.35C85.9 67.18 86.38 60 86.9 53.54a.23.23 0 0 1 .46 0 40.44 40.44 0 0 1 0 5.28.59.59 0 0 0-.23 0 .63.63 0 0 0-.26.18z"/><path class="cls-1" d="M87.33 59.23v.41a.38.38 0 0 0-.18 0 .35.35 0 0 1-.31-.15 2.81 2.81 0 0 1 .05-.49.63.63 0 0 1 .26-.13.59.59 0 0 1 .23 0 1.89 1.89 0 0 1-.05.36z"/><path class="cls-1" d="M87.13 59.61a.38.38 0 0 1 .18 0c-.47 4.56-2 9-5.67 11.77a2.7 2.7 0 0 0-1 .23c4-2.54 5.56-7.36 6.15-12.13a.35.35 0 0 0 .34.13zM86.44 118.7a.48.48 0 0 1 .43-.13c0 .13.08.26.1.38a.15.15 0 0 1 0 .18.42.42 0 0 1-.54.34h-.08a.52.52 0 0 1 .09-.77z"/><path class="cls-1" d="M86.87 59a2.81 2.81 0 0 0-.05.49.39.39 0 0 1 .05-.49zM86.87 118.57a.48.48 0 0 0-.43.13c-1.44-3.87-2.21-7.9-3.67-11.74-1.9-4.56-4.36-8.92-6.43-13.46-1.93-3.82-3.52-8.15-6.28-11.46a1.61 1.61 0 0 0 .12-.35c4.36 4.86 6.59 11.5 9.51 17.27a92 92 0 0 1 7.18 19.61zM86.33 119.42h.08c.08 0-.08.02-.08 0z"/><path class="cls-1" d="M86.44 118.7a.52.52 0 0 0-.11.72.24.24 0 0 1-.13-.13c-2.94-6.44-4.43-13.31-7.61-19.69-2.82-5.74-5.15-11.76-8.74-17.07a4 4 0 0 1 .21-.49c2.76 3.31 4.35 7.64 6.28 11.46 2.07 4.54 4.53 8.9 6.43 13.46 1.46 3.84 2.23 7.87 3.67 11.74zM84 141.2c-.23-.15-.46-.3-.69-.43a7.66 7.66 0 0 1 1.46.28.2.2 0 0 1 0 .38l-.28.08c-.21-.1-.39-.2-.49-.31z"/><path class="cls-1" d="M84 141.2c.15.11.33.21.49.31-9.31 3-19.38 1.41-28.94 1h-.13a1.78 1.78 0 0 0 .64-.67c5.89.05 11.61.77 17.48.77 3.51-.05 7.03-1.38 10.46-1.41zM84.13 48.44a.17.17 0 0 1 0 .33c-3.23 1.13-7.23-2.87-9.54-4.64a.08.08 0 0 1 .08-.13c1.43.88 2.82 1.93 4.28 2.75a10.91 10.91 0 0 0 3 1.3 20.2 20.2 0 0 1 2.18.39zM80.46 23.83a.53.53 0 0 0 .18-.41v-.2a16.75 16.75 0 0 1 3.44 9.3c0 .18-.31.23-.34 0C81.46 20.58 69.36 15 58.34 14a.38.38 0 0 1-.28-.12.34.34 0 0 0 .41-.31c7.1.05 15.94 3.33 21.12 9.2v.64a.53.53 0 0 0 .87.42z"/><path class="cls-1" d="M83.26 140.77c.23.13.46.28.69.43-3.38 0-6.9 1.36-10.46 1.36-5.87 0-11.59-.72-17.48-.77a.64.64 0 0 0 .18-.33.09.09 0 0 0-.08-.13.68.68 0 0 0 .18-.2c5.72 0 11.48 1.05 17.2.71 3.26-.17 6.56-1.43 9.77-1.07z"/><path class="cls-3" d="M80.21 72.64c1.36 1.12 4.46.38 6.35-.16-4.76 3.92-8.61 6-15.35 5.62h-.13a3.75 3.75 0 0 0 0-.82 12.1 12.1 0 0 0 2.33-1.62c0 .1-.07.23-.1.39-.1.38.49.89.59 1 1.46 1.95 4.95-2.44 6.31-4.41z"/><path class="cls-5" d="M83.26 140.77c-3.21-.36-6.51.9-9.77 1.07-5.72.34-11.48-.71-17.2-.71 2.28-2.57 3.69-6.1 5.13-9.13a30.61 30.61 0 0 0 3.18-10.2A127 127 0 0 0 76 134.72a43.91 43.91 0 0 0 7.26 6.05z"/><path class="cls-1" d="M59.6 40.24a2.82 2.82 0 0 0 .41 0C65.13 47.05 73.9 50 82.39 49c.2 0 .23.31 0 .34a29.44 29.44 0 0 1-8.54.15.42.42 0 0 0-.79-.1c-6.21-.9-12.56-3.64-13.85-9.18a1.31 1.31 0 0 0 .39.03zM62.7 1.5a.6.6 0 0 0-.8-.56.44.44 0 0 1 .72-.18c2.57 2.56 4.87 9.79 8.77 10.33 3.59.49 6.77-3.43 10.1-2.82.18 0 .18.23.1.34a3 3 0 0 1-.67.61.24.24 0 1 0-.48 0v.36A26.31 26.31 0 0 1 76 11.3c-1.82.66-3.66 1.43-5.56.74-3.82-1.38-5.87-6.74-8-10.07a.53.53 0 0 0 .26-.47zM81.64 71.41c-.31.23-.64.43-1 .64h-.08a1.91 1.91 0 0 1 .1-.23.23.23 0 0 0 0-.2 2.7 2.7 0 0 1 .98-.21z"/><path class="cls-1" d="M80.92 9.22a33.5 33.5 0 0 1 .21 4c-.1-.08-.23-.13-.33-.21a.32.32 0 0 0-.13 0c0-1.21.07-2.41 0-3.62z"/><path class="cls-1" d="M81.13 13.5a1.23 1.23 0 0 1 0 .33l-.46-.43a1.71 1.71 0 0 0 0-.39.32.32 0 0 1 .13 0c.1.08.23.13.33.21zM80.64 13.4l.46.43c0 3.13-.36 6.29-.46 9.39a4.81 4.81 0 0 0-.49-.67c.03-3.05.36-6.1.49-9.15zM80.69 9.37a2.27 2.27 0 0 1-.28.21v-.36a.24.24 0 1 1 .48 0z"/><path class="cls-1" d="M80.69 9.37v3.62c-.16 0-.28.21-.13.31s.08 0 .1.08c-.13 3-.46 6.1-.49 9.15a8.58 8.58 0 0 0-.53-.64c.07-4.1.53-8.23.79-12.33a2.27 2.27 0 0 0 .26-.19zM80.69 71.64a.23.23 0 0 1 0 .2 1.91 1.91 0 0 0-.1.23.2.2 0 0 1-.26 0 1.16 1.16 0 0 1 .13-.2.76.76 0 0 1 .23-.23z"/><path class="cls-1" d="M80.69 71.64a.76.76 0 0 0-.25.18v-.11a.63.63 0 0 0 .18-.12s.07.02.07.05zM80.67 13a1.71 1.71 0 0 1 0 .39s-.07-.05-.1-.08-.06-.31.1-.31z"/><path class="cls-1" d="M80.67 71.59a.63.63 0 0 1-.18.12v.11a.27.27 0 0 0-.21.12.27.27 0 0 1-.08-.18.58.58 0 0 0 .18-.2.2.2 0 0 1 .29.03zM80.64 23.22v.2a.53.53 0 0 1-.18.41 4 4 0 0 0-.33-.41v-.87a4.81 4.81 0 0 1 .51.67zM80.31 72a.2.2 0 0 0 .26 0c-.11.16-.21.34-.36.57a.37.37 0 0 1-.1-.23 2.48 2.48 0 0 1 .2-.34z"/><path class="cls-1" d="M80.23 71.94a.27.27 0 0 1 .21-.12 1.16 1.16 0 0 0-.13.2.11.11 0 0 1-.08-.08zM80.13 23.42a4 4 0 0 1 .33.41.53.53 0 0 1-.87-.41v-.64a5.1 5.1 0 0 1 .54.64z"/><path class="cls-1" d="M80.23 71.94a.11.11 0 0 0 .08.08 2.48 2.48 0 0 0-.23.36.41.41 0 0 1 .1-.41s.03-.03.05-.03z"/><path class="cls-1" d="M74.34 74.12a6.75 6.75 0 0 1-.7.82c0-.38.11-.71-.07 0A8.77 8.77 0 0 1 71 76.79v-.05a.38.38 0 0 0-.56-.26 11.89 11.89 0 0 0 3.79-2.64.24.24 0 0 1 .38.28q.7 3.61 2.82.54c.29-.31.59-.61.87-.92.62-.64 1.26-1.28 1.82-2a.27.27 0 0 0 .08.18.41.41 0 0 0-.1.41c-1.26 1.72-4.21 5-5.85 4.46-.61-.21-.71-.77-.56-1.38a3.71 3.71 0 0 1 .65-1.29z"/><path class="cls-1" d="M80.18 72.61c-1.36 2-4.85 6.33-6.31 4.41-.1-.11-.69-.62-.59-1 0-.16.08-.29.1-.39a1.43 1.43 0 0 0 .23-.2c-.15.61 0 1.17.56 1.38 1.64.49 4.59-2.74 5.85-4.46a.37.37 0 0 0 .16.26zM80.15 22.55v.87a5.1 5.1 0 0 0-.54-.64v-.87c.19.2.39.41.54.64z"/><path d="M80.41 9.58c-.26 4.1-.72 8.23-.79 12.33-5.13-5.82-13.77-9.1-21.28-8.77a.53.53 0 0 0-.2 0c-3.52-2.43-6.77-2.87-9.56-2a8.47 8.47 0 0 0-5.44-1.39 16.84 16.84 0 0 0 1-2.66A37.76 37.76 0 0 1 46.22 2c.92 2.07 2.38 5 4.48 4.91 3.8-.07 8.59-3 11.69-4.94 2.13 3.33 4.18 8.69 8 10.07 1.9.69 3.74-.08 5.56-.74a26.31 26.31 0 0 0 4.46-1.72z" fill="#edc851"/><path class="cls-1" d="M79.62 21.91v.87c-5.18-5.87-14-9.15-21.12-9.2a.35.35 0 0 0-.15-.28.73.73 0 0 0-.18-.11.53.53 0 0 1 .2 0c7.48-.38 16.12 2.9 21.25 8.72zM78.23 35.42a.59.59 0 0 0 .13-.18.16.16 0 0 0-.26-.18 6.32 6.32 0 0 1-.66.72c-7 2.71-16.95-2.8-20.59-8.46 0-.08-.05-.18-.07-.28a23 23 0 0 0 10.46 7.74c4.53 1.56 7.61.87 12-.23a.25.25 0 0 1 .26.41 6.8 6.8 0 0 1-2.08 1.58 6.51 6.51 0 0 0 .81-1.12z"/><path class="cls-1" d="M77.92 35.57a5 5 0 0 1-.48.21 6.32 6.32 0 0 0 .66-.72.16.16 0 0 1 .26.18.59.59 0 0 1-.13.18.81.81 0 0 1-.31.15z"/><path class="cls-1" d="M78.23 35.42a6.51 6.51 0 0 1-.77 1.12l-.46.21a5.89 5.89 0 0 0 .94-1.21.81.81 0 0 0 .29-.12z"/><path class="cls-1" d="M77.44 35.78a5 5 0 0 0 .48-.21 5.89 5.89 0 0 1-.92 1.21 6.36 6.36 0 0 1-1 .35 10.63 10.63 0 0 0 1.44-1.35z"/><path class="cls-1" d="M77 36.78l.46-.21a10.87 10.87 0 0 1-13.31 3.36 7.58 7.58 0 0 0 .82-.21A10.84 10.84 0 0 0 77 36.78z"/><path class="cls-1" d="M64.06 39.31l-1.28-.07c-.36-.21-.7-.44-1-.67-6.1-4.41-8.07-15.53-5.48-22.2.07-.18.38-.18.35.05A33.53 33.53 0 0 0 56.78 27c-.11-.13-.21-.29-.31-.41s-.08 0-.08 0c.16.28.31.59.52.9a19.12 19.12 0 0 0 3.46 7.8C64.47 40.72 71.23 41 76 37.13a6.36 6.36 0 0 0 1-.35 10.84 10.84 0 0 1-12 2.94h.06a.18.18 0 0 0-.06-.36c-.35-.02-.64-.05-.94-.05z"/><path class="cls-1" d="M77.44 35.78A10.63 10.63 0 0 1 76 37.13C69.57 39 60.21 32.7 56.91 27.57a.71.71 0 0 1-.06-.23c3.64 5.66 13.59 11.15 20.59 8.44z"/><path class="cls-3" d="M56.91 27.57C60.21 32.7 69.57 39 76 37.13c-4.8 3.82-11.56 3.59-15.66-1.76a19.12 19.12 0 0 1-3.43-7.8z"/><path class="cls-1" d="M70.13 77.2a1.84 1.84 0 0 1-.1.51 10.57 10.57 0 0 1-4.1.56.33.33 0 0 1-.28-.49c.39-.76.74-1.51 1.1-2.25a1.69 1.69 0 0 0 .31-.13.31.31 0 0 0 0-.56c3.77-8.23 5.38-16 6-25.3a.32.32 0 0 1 .06-.18c.25 0 .53.07.79.1a.09.09 0 0 1 0 .08 48.2 48.2 0 0 1-1.88 16.68 38.07 38.07 0 0 1-2.74 7c-.2.33-3.69 5.1-.36 3.85a10.52 10.52 0 0 0 1.44-.57.42.42 0 0 0-.13.21c0 .15-.08.31-.1.46zM74.34 74.12a3.71 3.71 0 0 0-.64 1.31v-.49a6.75 6.75 0 0 0 .64-.82zM73.57 75c.18-.76.1-.43.07 0s-.05 0-.07 0z"/><path class="cls-1" d="M73.64 75.46a1.43 1.43 0 0 1-.23.2c.06-.28.11-.49.13-.64s.05 0 .05 0c0 .18 0 .44.05.44zM73.11 49.39a.42.42 0 0 1 .79.1c-.26-.03-.54-.08-.79-.1z"/><path class="cls-1" d="M73.54 75c0 .15-.07.36-.13.64a12.1 12.1 0 0 1-2.33 1.62 2.5 2.5 0 0 0 0-.47A8.77 8.77 0 0 0 73.54 75z"/><path class="cls-4" d="M73.11 49.39a.32.32 0 0 0-.06.18c-.64 9.35-2.25 17.07-6 25.3a.28.28 0 0 0-.25-.06c-9.08 1.67-18 3.16-26.84.29a.32.32 0 0 0-.26-.31 97.66 97.66 0 0 1-14.38-6 17.88 17.88 0 0 1-6.2-4.71c-2.1-2.77.07-5 2-6.93a7.76 7.76 0 0 0 2.54.34.54.54 0 0 0 .56-.54c-.41-3.85-1.43-7.59-2-11.46a.33.33 0 0 0 .18-.43l-.15-.36a32.39 32.39 0 0 1 2.35-7.26c.8-1.61 1.75-3.18 2.52-4.82a12.29 12.29 0 0 0 2.69 8.49.55.55 0 0 0 .92 0c2.87-4.8 5-10 8.51-14.38C39.3 31.32 41 35.8 45 38.57a.32.32 0 0 0 .38 0 .47.47 0 0 0 .67-.41 63.76 63.76 0 0 1 .61-7.31c1 5.54 6.87 8.82 12.53 9.33 1.36 5.57 7.71 8.31 13.92 9.21zM69.18 61.1c.49-.64-.58-1.49-1.12-.87-1.7 2-3.67 3.15-6.34 2.59s-3.86-2.67-5.3-4.56c-.26-.36-.87-.16-.74.3a8.44 8.44 0 0 0 6.22 5.77c2.93.67 5.59-1.02 7.28-3.23zm-29-4.38a.83.83 0 1 0-1-1.31C35 58.64 28.66 58.82 27 53a.72.72 0 0 0-1.39.35c1.64 7.09 9.61 7.19 14.58 3.37z"/><path class="cls-1" d="M71.08 77.28a3.75 3.75 0 0 1 0 .82.64.64 0 0 0-.61.48 5.66 5.66 0 0 0 .12-1.07zM71 76.81a2.5 2.5 0 0 1 0 .47l-.49.23a3.07 3.07 0 0 0 .06-.52 2.58 2.58 0 0 0 .43-.18z"/><path class="cls-1" d="M70.65 77a2.68 2.68 0 0 1-.49.21c0-.15.07-.31.1-.46a.42.42 0 0 1 .13-.21.35.35 0 0 0 .08 0 .38.38 0 0 1 .56.26v.07a2.58 2.58 0 0 1-.38.13zM71.08 78.1a5.41 5.41 0 0 1-.23 1.53.86.86 0 0 1-.43-.76 1.47 1.47 0 0 0 0-.29.64.64 0 0 1 .66-.48z"/><path class="cls-1" d="M70.65 77a3.07 3.07 0 0 1-.06.52 4.08 4.08 0 0 1-.56.2 1.84 1.84 0 0 0 .1-.51 2.68 2.68 0 0 0 .52-.21z"/><path class="cls-1" d="M70.59 77.51a5.66 5.66 0 0 1-.12 1.07 1.47 1.47 0 0 1 0 .29 21.31 21.31 0 0 1-.67 2.33 1.12 1.12 0 0 0-.21-.23.31.31 0 0 0-.36-.08c.31-1 .59-2.1.82-3.15a4.08 4.08 0 0 0 .54-.23z"/><path class="cls-1" d="M70.42 78.87a.86.86 0 0 0 .43.76 11 11 0 0 1-.67 2.06 2.9 2.9 0 0 0-.43-.49 21.31 21.31 0 0 0 .67-2.33z"/><path class="cls-1" d="M69.75 81.2a2.9 2.9 0 0 1 .43.49 1.61 1.61 0 0 1-.12.35 4 4 0 0 0-.44-.48z"/><path class="cls-1" d="M69.62 81.56a4 4 0 0 1 .44.48 4 4 0 0 0-.21.49c-.13-.18-.23-.36-.38-.54z"/><path class="cls-1" d="M69.47 82c.15.18.25.36.38.54-.41.92-.85 1.82-1.2 2.72a.3.3 0 0 1-.57-.16c.26-1.25.62-2.48 1-3.71.1.19.26.4.39.61z"/><path class="cls-1" d="M69.62 81.56l-.15.43c-.13-.2-.29-.41-.41-.61a2.7 2.7 0 0 1 .12-.49.31.31 0 0 1 .36.08 1.12 1.12 0 0 1 .21.23zM68.06 60.23c.54-.62 1.61.23 1.12.87-1.69 2.21-4.35 3.9-7.28 3.23a8.44 8.44 0 0 1-6.22-5.77c-.13-.46.48-.66.74-.3 1.44 1.89 2.77 4 5.3 4.56s4.64-.59 6.34-2.59z"/><path class="cls-1" d="M69.18 80.89a2.7 2.7 0 0 0-.12.49.3.3 0 0 1 .12-.49zM67 74.87a.31.31 0 0 1 0 .56 1.69 1.69 0 0 1-.31.13c.14-.23.24-.46.31-.69z"/><path class="cls-1" d="M55.39 77.45a.84.84 0 0 0-.49.06 45.84 45.84 0 0 1-7.69-.18.65.65 0 0 0-.72-.08 32.26 32.26 0 0 1-7.1-1.79h.13a.38.38 0 0 0 .44-.38c8.87 2.87 17.76 1.38 26.84-.29a.28.28 0 0 1 .25.06c-.1.23-.2.46-.31.69a30.11 30.11 0 0 1-11.07 2.82 1.89 1.89 0 0 1 0-.41.52.52 0 0 0-.28-.5zM64.62 39.57a2 2 0 0 1-.56-.26h.89a.18.18 0 0 1 .06.36h-.06z"/><path class="cls-1" d="M64.62 39.57l.33.15a7.58 7.58 0 0 1-.82.21l-.53-.23zM63.9 120.85c-.1-.13-.2-.26-.28-.38a6.61 6.61 0 0 1 .77 0 .27.27 0 0 1 .15 0l.06.07a1.4 1.4 0 0 0 .1.16.34.34 0 0 1-.16.36.42.42 0 0 0-.54-.06.63.63 0 0 1-.1-.15z"/><path class="cls-1" d="M64.7 120.7a1.4 1.4 0 0 1-.1-.16c.05 0 .1.08.1.16zM64.54 121.06a.27.27 0 0 1 .11.28c0 .15 0 .31-.05.46a4.31 4.31 0 0 1-.44-.59c.13 0 .23-.08.33-.1s.05-.05.05-.05zM64.62 39.57l-1 .13-.82-.46 1.28.07a2 2 0 0 0 .54.26zM55.86 141.13h-.36c.77-3 2.82-5.72 4.2-8.54a56.16 56.16 0 0 0 4-11.25 3.24 3.24 0 0 0 .41-.13 4.31 4.31 0 0 0 .44.59 30.61 30.61 0 0 1-3.13 10.2c-1.44 3-2.85 6.56-5.13 9.13zM64.54 121.06h-.05c-.05 0-.2.07-.33.1A.51.51 0 0 1 64 121a.42.42 0 0 1 .54.06zM64.54 120.47a.27.27 0 0 0-.15 0 6.61 6.61 0 0 0-.77 0 45.54 45.54 0 0 1-5.41-10c0-.07-.05-.12-.07-.2-.36-1-.69-1.9-1-2.85l.41-.07a.7.7 0 0 0 .21-.11 53.9 53.9 0 0 0 2.07 5.13 54.57 54.57 0 0 0 4.71 8.1z"/><path class="cls-1" d="M64.16 121.21a3.24 3.24 0 0 1-.41.13v-.1A.33.33 0 0 1 64 121a.51.51 0 0 0 .16.21zM63.6 39.7l.53.23a14.28 14.28 0 0 1-4.12.33c-.16-.2-.31-.41-.46-.64a23 23 0 0 0 4.05.08z"/><path class="cls-1" d="M63.9 120.85a.63.63 0 0 0 .1.15.33.33 0 0 0-.23.26v.1a37.27 37.27 0 0 1-5.64 1c-2.1.26-4.46.8-6.54.21a.44.44 0 0 1-.28-.62.51.51 0 0 0 .23-.25c2-.64 4.41-.34 6.54-.57 1.85-.15 3.67-.51 5.51-.61.11.07.21.2.31.33zM63.6 39.7a23 23 0 0 1-4.05-.08c-.06 0-.08-.13-.13-.18a.16.16 0 0 0-.28.13c-5.72-.74-11.36-3.82-12.26-9.61 0-.23.08-.44.13-.67 2.08 7.64 8.82 9.49 15.77 10zM62.06 1.48a.93.93 0 0 0-.13-.18.29.29 0 0 1 0-.36.6.6 0 0 1 .8.56.53.53 0 0 1-.28.44 4.48 4.48 0 0 1-.33-.47zM62.06 1.5a4.48 4.48 0 0 0 .33.47c-3.1 1.94-7.89 4.87-11.69 4.94C48.6 7 47.14 4.07 46.22 2a4.63 4.63 0 0 1 .28-.54c.49.74 1 1.56 1.41 2.23 1.9 2.66 1.51 3.05 4.18 2.28 3-.72 7.3-2.97 9.97-4.47z"/><path class="cls-1" d="M62.06 1.48c-2.67 1.52-7 3.75-10 4.49-2.67.77-2.28.38-4.18-2.28C47.5 3 47 2.22 46.5 1.48a.14.14 0 0 1 0-.1.57.57 0 0 0 0-.52c1.69 2.23 2.82 5.41 6.12 4.31A69.25 69.25 0 0 0 61.83 1a.07.07 0 0 1 .07 0 .29.29 0 0 0 0 .36.93.93 0 0 1 .16.12z"/><path class="cls-7" d="M63.75 121.34a56.16 56.16 0 0 1-4 11.25c-1.38 2.82-3.43 5.49-4.2 8.54a.66.66 0 0 0-.64.69c-.23.1-.46.2-.69.28a8.48 8.48 0 0 1-2.8.13 41.69 41.69 0 0 1-4.58-.64 70.19 70.19 0 0 0 1.12-8.13c.31-4.51.39-8.94 1.52-13.33.51.7 1.07 1.31 1.43 1.72a.35.35 0 0 0 .46.1.44.44 0 0 0 .28.62c2.08.59 4.44.05 6.54-.21a37.27 37.27 0 0 0 5.56-1.02z"/><path class="cls-1" d="M59.55 39.62c.15.23.3.44.46.64a2.82 2.82 0 0 1-.41 0 2.59 2.59 0 0 1-.28-.64.93.93 0 0 1 .23 0z"/><path class="cls-8" d="M63.62 120.47c-1.84.1-3.66.46-5.51.61-2.13.23-4.49-.07-6.54.57a.57.57 0 0 0 0-.34c-.48-1-1.12-1.82-1.66-2.74a5.53 5.53 0 0 1-.62-1.54c-.1-.38-.1-.69-.18-1a9.5 9.5 0 0 0-.2-4.07 31.28 31.28 0 0 0 9.05-1.18.42.42 0 0 0 .26-.51c0 .08 0 .13.07.2a45.54 45.54 0 0 0 5.33 10z"/><path class="cls-1" d="M59.6 40.24a1.31 1.31 0 0 1-.34 0 4.52 4.52 0 0 1-.12-.64.4.4 0 0 1 .18 0 2.59 2.59 0 0 0 .28.64z"/><path class="cls-1" d="M59.32 39.6a.4.4 0 0 0-.18 0 .16.16 0 0 1 .28-.13c0 .05.07.13.13.18a.93.93 0 0 0-.23-.05z"/><path class="cls-1" d="M59.14 39.57a4.52 4.52 0 0 0 .12.64c-5.66-.51-11.56-3.79-12.53-9.33v-.05c.05-.28.1-.59.15-.87.9 5.79 6.54 8.87 12.26 9.61zM57.93 13.45a.36.36 0 0 1 .21-.26.73.73 0 0 1 .18.11.35.35 0 0 1 .15.28.34.34 0 0 1-.41.31h-.05a.45.45 0 0 1-.08-.44zM52.88 111a2.34 2.34 0 0 0 .13-.77c1.69-.13 3.28-.26 4.77-.28a.31.31 0 0 1 .33.23.42.42 0 0 1-.26.51 31.28 31.28 0 0 1-9.05 1.18c-.08-.38-.59-.31-.69 0a65.13 65.13 0 0 1-6.92-.49c-1.54-.17-4.21-.28-5.64-1.46.05-.18.08-.36.13-.51 1.72 1 5.25 1.36 8.15 1.49a2.86 2.86 0 0 0 .23.66.26.26 0 0 0 .44 0 3.77 3.77 0 0 0 .23-.64c1.15 0 2.15.08 2.79.13a34.23 34.23 0 0 0 4.41 0 1.53 1.53 0 0 0 .38.42.2.2 0 0 0 .31-.08 2.71 2.71 0 0 0 .26-.39z"/><path class="cls-1" d="M58 13.86c-7-3.59-14.25-1.49-16.61 6.56a16.86 16.86 0 0 0 3.8 17v.69a15.1 15.1 0 0 1-5.34-12l.39-.47a.38.38 0 0 0-.33-.61c.33-6 3.51-11.61 8.38-13.23.31.08.61.18.92.28.15.08.28-.15.15-.25a3.48 3.48 0 0 0-.3-.26c2.59-.61 5.58-.13 8.89 1.95a.45.45 0 0 0 .05.34z"/><path class="cls-5" d="M58.11 110.19a.31.31 0 0 0-.33-.23c-1.49 0-3.08.15-4.77.28a21.81 21.81 0 0 0-.13-2.36 31.11 31.11 0 0 0 4.23-.54c.31.95.64 1.9 1 2.85z"/><path class="cls-1" d="M58.14 13.19a.36.36 0 0 0-.21.26c-3.31-2.08-6.3-2.56-8.89-1.95a3.07 3.07 0 0 0-.46-.33c2.79-.85 6.04-.41 9.56 2.02zM57.42 106.24a.53.53 0 0 1 .31.92c-.11-.3-.21-.61-.31-.92z"/><path class="cls-1" d="M57 106.8a1.89 1.89 0 0 1-.16-.51c.21 0 .39 0 .59-.05.1.31.2.62.31.92a.7.7 0 0 1-.21.11l-.41.07zM57.42 106.24c-.2 0-.38 0-.59.05a66.25 66.25 0 0 1-2.71-21.58h.07a.29.29 0 0 0 .16-.54.67.67 0 0 0-.21-.1c.08-1.87.18-3.74.39-5.64a5.23 5.23 0 0 0 .56 0 68.37 68.37 0 0 0 2.33 27.81z"/><path class="cls-1" d="M57 106.8l.15.54a31.11 31.11 0 0 1-4.23.54.65.65 0 0 1 0-.18.65.65 0 0 0-.31-.49 41.4 41.4 0 0 0 4.39-.41z"/><path class="cls-1" d="M56.8 106.29a1.89 1.89 0 0 0 .16.51 41.4 41.4 0 0 1-4.41.41.73.73 0 0 0-.56 0c-5.23.15-11.05-.46-15-2.54a2.92 2.92 0 0 1 .13-.46 27.63 27.63 0 0 0 11.07 2.33 1.54 1.54 0 0 0 .05.31c.13.49.95.39.87-.13a.39.39 0 0 0 0-.15c2.57.06 5.13-.1 7.69-.28zM56.85 27.32a.71.71 0 0 0 .06.23c-.21-.31-.36-.62-.52-.9 0 0 0-.08.08 0s.2.28.31.41.05.18.07.26zM56.29 141.13a.68.68 0 0 1-.18.2.11.11 0 0 0-.08 0 1.15 1.15 0 0 0-.33.1c0-.1.1-.18.16-.28zM55.86 141.61a3.74 3.74 0 0 0 .25-.28.09.09 0 0 1 .08.13.64.64 0 0 1-.18.33h-.36a.72.72 0 0 0 .21-.18z"/><path class="cls-1" d="M56 141.31a.11.11 0 0 1 .08 0 3.74 3.74 0 0 1-.25.28.23.23 0 0 1-.39-.1.3.3 0 0 1 .21-.08 1.15 1.15 0 0 1 .35-.1zM55.65 141.79H56a1.78 1.78 0 0 1-.64.67.24.24 0 0 0-.28-.28 2.39 2.39 0 0 0 .57-.39z"/><path class="cls-1" d="M55.86 141.13c-.06.1-.11.18-.16.28a.3.3 0 0 0-.21.08v-.15a1.55 1.55 0 0 1 0-.23h.39z"/><path class="cls-1" d="M55.65 141.79a2.39 2.39 0 0 1-.59.36h-.05a.65.65 0 0 1-.13-.38c.21-.1.38-.21.61-.31a.23.23 0 0 0 .39.1.72.72 0 0 1-.23.23zM55.06 78.43a5.23 5.23 0 0 1-.56 0v-.46a.52.52 0 0 1 .33-.46 1.38 1.38 0 0 0 .49-.06.52.52 0 0 1 .29.52 1.89 1.89 0 0 0 0 .41 5.87 5.87 0 0 1-.55.05z"/><path class="cls-1" d="M55.47 141.13a1.55 1.55 0 0 0 0 .23v.15c-.23.1-.4.21-.61.31a.66.66 0 0 1 .61-.69zM55.37 77.45a1.38 1.38 0 0 1-.49.06.84.84 0 0 1 .49-.06zM55.06 142.15a.24.24 0 0 1 .28.28.41.41 0 0 1-.36-.23s.02-.05.08-.05z"/><path class="cls-1" d="M54.88 142.67a4 4 0 0 1-.88.33 3 3 0 0 1 .84-.72s.08 0 .11-.05a.41.41 0 0 0 .36.23 2.19 2.19 0 0 1-.43.21z"/><path class="cls-1" d="M54.88 142.67a2.19 2.19 0 0 0 .46-.21 4.9 4.9 0 0 1-1.46 2.2 4.31 4.31 0 0 1-1.69 1.34 1.35 1.35 0 0 1-1.59-1.59 2.84 2.84 0 0 0 .39-.25c.25 3.3 2.53.25 3.86-1.49zM55 142.2s-.08 0-.11.05c-2.28 1-5.87.16-8.15-.35a1.21 1.21 0 0 0 .06-.31 41.69 41.69 0 0 0 4.58.64 8.48 8.48 0 0 0 2.8-.13c.23-.08.46-.18.69-.28a.65.65 0 0 0 .13.38zM54.88 77.51a.52.52 0 0 0-.33.46v.46a37.93 37.93 0 0 1-7.15-.38v-.11a.57.57 0 0 0-.18-.61 45.84 45.84 0 0 0 7.66.18z"/><path class="cls-1" d="M54 143a4 4 0 0 0 .84-.28c-1.33 1.74-3.61 4.79-3.86 1.49a.69.69 0 0 0 .2-.13c.21.36.18.84.49 1.1s1-.54 1.18-.72c.38-.41.71-1 1.12-1.46z"/><path class="cls-3" d="M47.35 78.05a37.93 37.93 0 0 0 7.15.38c-.21 1.9-.31 3.77-.39 5.64-.61-.36-1.31-.57-1.92-.92a7.58 7.58 0 0 1-2.08-2A.13.13 0 0 0 50 81a.25.25 0 0 0-.38 0 6.44 6.44 0 0 1-2.39 1.41 2.18 2.18 0 0 1-1.51-.08l-.23-.15a13.81 13.81 0 0 0 1.86-4.13z"/><path class="cls-1" d="M54.11 84.4v-.33a.67.67 0 0 1 .21.1.29.29 0 0 1-.16.54h-.07a1.62 1.62 0 0 1 .02-.31z"/><path class="cls-1" d="M54.11 84.07v.31A6.45 6.45 0 0 1 50 81.27a.25.25 0 0 0 0-.27.13.13 0 0 1 .1.08 7.58 7.58 0 0 0 2.08 2c.62.42 1.32.63 1.93.99z"/><path class="cls-8" d="M54.09 84.71a66.25 66.25 0 0 0 2.71 21.58c-2.56.18-5.12.34-7.71.31-.46-4-.18-7.95-.23-11.94-.08-4.31-.28-8.46 1-12.64a.2.2 0 0 0-.08-.21.72.72 0 0 0 .18-.33 5.44 5.44 0 0 0 4.13 3.23z"/><path class="cls-1" d="M54.11 84.38a1.62 1.62 0 0 0 0 .31 5.44 5.44 0 0 1-4.16-3.23.72.72 0 0 0 .11-.15v-.06a6.45 6.45 0 0 0 4.05 3.13zM54.85 142.25a3 3 0 0 0-.85.75 7.82 7.82 0 0 1-1.61.18h-.31c0-.18-.13-.41-.36-.38a2.85 2.85 0 0 0-1 .3 25.85 25.85 0 0 1-4-.84c0-.13 0-.23.05-.33 2.23.48 5.8 1.3 8.08.32z"/><path class="cls-3" d="M54 143c-.41.49-.74 1.05-1.12 1.46-.18.18-.87.95-1.18.72s-.28-.74-.49-1.1a5.7 5.7 0 0 0 .77-.67.26.26 0 0 0 .1-.23h.31A7.82 7.82 0 0 0 54 143z"/><path class="cls-1" d="M52.88 107.88a21.81 21.81 0 0 1 .13 2.36c-.23 0-.44 0-.67.05-.07-.79-.07-1.61-.07-2.36a4.18 4.18 0 0 0 .61-.05zM52.34 110.29c.23 0 .44 0 .67-.05a2.34 2.34 0 0 1-.13.77 3.54 3.54 0 0 1-.46 0c-.03-.21-.05-.46-.08-.72z"/><path class="cls-1" d="M52.27 107.93a3.76 3.76 0 0 1-.59 0 1.14 1.14 0 0 0 0-.26.5.5 0 0 1 .26-.46h.56a.65.65 0 0 1 .31.49.65.65 0 0 0 0 .18 4.18 4.18 0 0 1-.54.05zM52.42 111a3.54 3.54 0 0 0 .46 0 2.71 2.71 0 0 1-.23.41.2.2 0 0 1-.31.08 1.53 1.53 0 0 1-.38-.42c.15-.01.31-.01.46-.07z"/><path class="cls-1" d="M52 107.24a.73.73 0 0 1 .56 0zM52.42 111h-.46a2.24 2.24 0 0 1-.26-.74h.64c.03.29.05.54.08.74z"/><path class="cls-1" d="M52.27 107.93c0 .75 0 1.57.07 2.36h-.64a10.55 10.55 0 0 1 0-2.38 3.76 3.76 0 0 0 .57.02zM51.7 142.77c.23 0 .36.2.36.38a2.17 2.17 0 0 1-.36 0c-.33 0-.69 0-1-.06a2.85 2.85 0 0 1 1-.32z"/><path class="cls-1" d="M51.7 143.13a2.17 2.17 0 0 0 .36 0 .26.26 0 0 1-.1.23 5.7 5.7 0 0 1-.77.67.73.73 0 0 0-.18-.23.11.11 0 0 0-.13 0 1.3 1.3 0 0 0-.28.61c-.51.34-1.05.64-1.51.95a9.6 9.6 0 0 1-3.16 1.51.37.37 0 0 1-.3 0 .31.31 0 0 0 .15-.2c0-.18.08-.36.1-.54a13.72 13.72 0 0 0 3.34-2 15.11 15.11 0 0 1 1.43-1.06c.35.03.72.06 1.05.06zM37 104.7c3.92 2.08 9.74 2.69 15 2.54a.5.5 0 0 0-.26.46 1.14 1.14 0 0 1 0 .26 32.92 32.92 0 0 1-6.49-.28.48.48 0 0 0-.92-.13 23.8 23.8 0 0 1-7.38-2.41 2.54 2.54 0 0 1 .05-.44zM51.7 110.34a2.24 2.24 0 0 0 .26.74 34.23 34.23 0 0 1-4.41 0c-.64 0-1.64-.08-2.79-.13.05-.13.07-.23.1-.33 2.28.06 4.59-.1 6.84-.28z"/><path class="cls-3" d="M45.19 107.68a32.92 32.92 0 0 0 6.49.28 10.55 10.55 0 0 0 0 2.38c-2.25.18-4.56.34-6.84.31.15-.92.08-1.92.31-2.82a.39.39 0 0 0 .04-.15z"/><path class="cls-1" d="M49.57 119.29c0-.16-.1-.28-.23-.36a5.58 5.58 0 0 1-.87-2.51s.05 0 .05-.08a.37.37 0 0 0 .52-.2v-.11c.08.31.08.62.18 1a5.53 5.53 0 0 0 .62 1.54c.54.92 1.18 1.79 1.66 2.74a.57.57 0 0 1 0 .34.27.27 0 0 0-.23.25.35.35 0 0 1-.46-.1c-.36-.41-.92-1-1.43-1.72.05-.25.1-.51.17-.77z"/><path class="cls-1" d="M51.52 121.7a.51.51 0 0 1-.23.25.27.27 0 0 1 .23-.25zM51 144.18a2.84 2.84 0 0 1-.39.25 1.3 1.3 0 0 1 .28-.61.11.11 0 0 1 .13 0 .73.73 0 0 1 .18.23.69.69 0 0 1-.2.13zM50 81.27v.06a.72.72 0 0 1-.11.15 1 1 0 0 1-.07-.26A.14.14 0 0 1 50 81a.25.25 0 0 1 0 .27z"/><path class="cls-1" d="M45.29 82.48a1.84 1.84 0 0 0 .21-.25l.23.15a2.18 2.18 0 0 0 1.51.08A6.44 6.44 0 0 0 49.63 81a.25.25 0 0 1 .37 0 .14.14 0 0 0-.15.18 1 1 0 0 0 .07.26.72.72 0 0 1-.18.33.18.18 0 0 0-.3 0c-.08.18-.16.33-.23.51a4.15 4.15 0 0 1-2.44 1 3.53 3.53 0 0 1-1.72-.49 1.9 1.9 0 0 0 .24-.31zM49.75 81.81a.2.2 0 0 1 .08.21c-1.25 4.18-1 8.33-1 12.64 0 4-.23 8 .23 11.94a2.17 2.17 0 0 1-.44 0c-.72-3-.18-7.28-.18-10.61 0-4.12-.56-10.33 1.13-13.94v-.08a.29.29 0 0 0 .18-.16z"/><path class="cls-1" d="M49.75 81.81a.29.29 0 0 1-.12.13v.08a2.7 2.7 0 0 1-.38.33c.07-.18.15-.33.23-.51a.18.18 0 0 1 .27-.03zM49.09 119.7a2 2 0 0 1-.26-.34 2.77 2.77 0 0 0 .1-.26.31.31 0 0 1 .41-.15l.23.36v.07c-.07.26-.12.52-.17.77a1.62 1.62 0 0 1-.31-.45zM49.34 118.93c.13.08.26.2.23.36z"/><path class="cls-1" d="M49.22 82.35a2.7 2.7 0 0 0 .38-.35c-1.69 3.61-1.13 9.82-1.13 13.94 0 3.33-.54 7.59.18 10.61h-.46c-1-4.3 0-8.92-.13-13.33-.06-3.62-.31-7.46 1.16-10.87z"/><path class="cls-3" d="M50.65 143.07a15.11 15.11 0 0 0-1.43 1.06 13.72 13.72 0 0 1-3.34 2c.26-1.28.52-2.56.75-3.87a25.85 25.85 0 0 0 4.02.81z"/><path class="cls-1" d="M48.86 11.55a.53.53 0 0 1 .14-.05 3.48 3.48 0 0 1 .3.26c.13.1 0 .33-.15.25-.31-.1-.61-.2-.92-.28.18-.07.38-.13.56-.18zM49.09 119.7a1.62 1.62 0 0 0 .31.43c-1.13 4.39-1.21 8.82-1.52 13.33a70.19 70.19 0 0 1-1.12 8.13l-.47-.08a.31.31 0 0 0-.25.05c.31-2 .72-4.08 1.05-6.1a.39.39 0 0 0 .1-.36v-.16c.08-.48.15-1 .21-1.46.3-4.22.15-9.84 1.69-13.78zM49.34 118.93a.31.31 0 0 0-.41.15 2.77 2.77 0 0 1-.1.26 5.83 5.83 0 0 1-.92-1.92c.2-.34.38-.67.56-1a5.58 5.58 0 0 0 .87 2.51zM48.68 115.34a.35.35 0 0 0-.46 0c-.1-1 .1-2.18-.08-3.26a.37.37 0 0 1 0-.23h.69a9.5 9.5 0 0 1 .2 4.07 1.31 1.31 0 0 0-.23-.56zM48.65 106.57a2.17 2.17 0 0 0 .44 0 .39.39 0 0 1 0 .15c.08.52-.74.62-.87.13a1.54 1.54 0 0 1-.05-.31z"/><path class="cls-1" d="M48.68 115.34l.15.13a1.31 1.31 0 0 1 .23.56v.11a.37.37 0 0 1-.52.2.91.91 0 0 0 .08-.13.33.33 0 0 0-.13-.46.37.37 0 0 0-.23 0 1.19 1.19 0 0 1-.05-.26.35.35 0 0 1 .47-.15zM49 11.5a.53.53 0 0 0-.18.05c-.15-.1-.33-.2-.51-.3a1.34 1.34 0 0 1 .26-.08 3.07 3.07 0 0 1 .43.33zM48.83 119.36a2 2 0 0 0 .26.34c-1.54 3.94-1.39 9.56-1.74 13.76-.06.49-.13 1-.21 1.46-.1-.64-.23-1.28-.38-1.89.12-.87.2-1.74.25-2.61.21-3.8.36-7.54 1.82-11.06z"/><path class="cls-7" d="M48.83 119.34c-1.46 3.52-1.61 7.26-1.82 11 0 .87-.13 1.74-.25 2.61-.85-3.59-2.29-7-3.26-10.53h1.77a.59.59 0 0 0 .33-1.08c.77-1.34 1.56-2.65 2.31-4a5.83 5.83 0 0 0 .92 2z"/><path class="cls-1" d="M48.83 111.93h-.69c.1-.31.61-.38.69 0zM48.83 11.55c-.18 0-.38.11-.56.18a2.46 2.46 0 0 0-.72-.18 4.89 4.89 0 0 1 .77-.3c.18.1.36.2.51.3zM48.47 115.75a.33.33 0 0 1 .13.46.91.91 0 0 1-.08.13h-.05a2.91 2.91 0 0 1 0-.59zM48.58 11.17a1.34 1.34 0 0 0-.26.08c-2.87-1.34-8.31 0-11 .82a24.17 24.17 0 0 0-3.57 1.43.22.22 0 0 0-.33-.13c-1.18.59-2.33 1.18-3.43 1.77 3.33-2.36 7.81-4.69 11.91-5.23a3.24 3.24 0 0 0 0 .44.38.38 0 0 0 .64.28 2.92 2.92 0 0 0 .64-.85 8.47 8.47 0 0 1 5.4 1.39z"/><path class="cls-1" d="M48.52 116.34l-.05.08c-.05.08 0 0 0-.08s.03.03.05 0z"/><path class="cls-1" d="M48.47 116.34v.08c-.18.33-.36.66-.56 1a2.16 2.16 0 0 1-.13-.7 5.52 5.52 0 0 1 .51-.66v.08a.31.31 0 0 0 .18.2z"/><path class="cls-1" d="M48.47 115.75a2.91 2.91 0 0 0 0 .59.31.31 0 0 1-.15-.2v-.08a1.88 1.88 0 0 1 0-.33.37.37 0 0 1 .15.02zM48.32 11.25a4.89 4.89 0 0 0-.77.3c-6.77-1.59-15.76 2.54-20 7.59-4.55 5.49-7.91 15.46-6.09 23.1a4.72 4.72 0 0 0-.16 1.23c-1-2.82-.59-6.59-.41-9.3a27.67 27.67 0 0 1 2.31-9.67 22.33 22.33 0 0 1 6.18-8.15s.05 0 .07-.06c1.41-.81 2.82-1.64 4.18-2.51a.19.19 0 0 0 .1-.28 24.17 24.17 0 0 1 3.57-1.43c2.7-.85 8.15-2.16 11.02-.82zM48.24 115.7a1.88 1.88 0 0 0 0 .33 5.52 5.52 0 0 0-.51.66 2.59 2.59 0 0 1 .1-.74l.16-.15a.32.32 0 0 1 .25-.1z"/><path class="cls-1" d="M48.19 115.44a1.19 1.19 0 0 0 .05.26.32.32 0 0 0-.2.1l-.16.15a1.84 1.84 0 0 1 .31-.51z"/><path class="cls-8" d="M48.11 112.16c.18 1.08 0 2.21.08 3.26a1.84 1.84 0 0 0-.31.51 17.92 17.92 0 0 0-3.69 5.33 27.54 27.54 0 0 1-11.07-2c1-3 1.69-6.22 2.46-9.38 1.43 1.18 4.1 1.29 5.64 1.46a65.13 65.13 0 0 0 6.92.49.37.37 0 0 0-.03.33zM48.06 93.24c.08 4.41-.84 9 .13 13.33a27.63 27.63 0 0 1-11.07-2.33 1.21 1.21 0 0 1 .05-.18 68.17 68.17 0 0 0 2.18-8.89.59.59 0 0 0 .08-.43 33.48 33.48 0 0 0 .44-6.8 22.31 22.31 0 0 0 5.17-5 3.53 3.53 0 0 0 1.72.49 4.15 4.15 0 0 0 2.44-1c-1.45 3.33-1.2 7.17-1.14 10.81z"/><path class="cls-1" d="M47.55 11.55a2.46 2.46 0 0 1 .72.18C43.4 13.35 40.22 19 39.89 25c-.06 0-.13 0-.18.07s-.29.31-.41.46c.33-6.03 3.51-11.93 8.25-13.98zM47.78 116.72a2.16 2.16 0 0 0 .13.7c-.75 1.35-1.54 2.66-2.31 4a.54.54 0 0 0-.33-.11h-.33a32.51 32.51 0 0 1 2.84-4.59z"/><path class="cls-1" d="M47.88 116a2.59 2.59 0 0 0-.1.74 32.51 32.51 0 0 0-2.84 4.59h-.75a17.92 17.92 0 0 1 3.69-5.33zM46.76 77.94a5.27 5.27 0 0 1-.64-.1c0-.08.05-.15.07-.23a.53.53 0 0 1 .28-.36l.72.08a.57.57 0 0 1 .18.61v.11c-.21-.05-.37-.05-.61-.11z"/><path class="cls-1" d="M46.76 77.94c.2 0 .4.08.59.11a13.81 13.81 0 0 1-1.85 4.15c-.15-.16-.26-.34-.51-.39a11 11 0 0 0 1.77-3.87zM47.16 135.08a.39.39 0 0 1-.1.36c0-.18 0-.36.08-.52 0 .08.02.08.02.16z"/><path class="cls-1" d="M46.52 134.59c.11-.51.18-1.05.24-1.56.15.61.28 1.25.38 1.89 0 .16 0 .34-.08.52a.41.41 0 0 1-.64-.06 6.83 6.83 0 0 0 .1-.79zM46.73 29.11a.17.17 0 0 0-.15.18 1.14 1.14 0 0 0 0 .26 31 31 0 0 0-1 8.46.5.5 0 0 0-.07-.13 5.45 5.45 0 0 1-.41-.46 23.15 23.15 0 0 1 1.33-8.56.29.29 0 0 1 .56.15 1.81 1.81 0 0 0-.05.31v-.05a.21.21 0 0 0-.21-.16z"/><path class="cls-1" d="M46.88 30c-.05.28-.1.59-.15.87a5.45 5.45 0 0 1-.13-1.28 3.66 3.66 0 0 1 .13-.44.21.21 0 0 1 .26.13v.05c.01.19-.08.4-.11.67zM46.47 77.25a.65.65 0 0 1 .72.08zM46.42 135.38a.41.41 0 0 0 .64.06c-.33 2-.74 4.05-1.05 6.1a.64.64 0 0 0-.2-.11l-.41-.07c.25-2 .66-4 1-6l.02.02zM46.76 133c-.06.51-.13 1.05-.24 1.56a28.37 28.37 0 0 1-1.07-4.54c-.54-2.46-2-5.1-2.39-7.61a2.08 2.08 0 0 0 .44 0c.97 3.59 2.41 7 3.26 10.59zM46.12 77.84a5.27 5.27 0 0 0 .64.1A11 11 0 0 1 45 81.81h-.05c-.05 0-.18 0-.21.13a.63.63 0 0 0 0 .3 24.75 24.75 0 0 1-5.08 5.1.26.26 0 0 0-.26.21c-4.2 3.18-9.38 5.48-13.22 5.59 0-.16-.06-.29-.08-.41 7.76-1.48 17.84-6.51 20.02-14.89zM46.7 141.9c0 .1 0 .2-.05.33-.16 0-.28-.08-.44-.1a.47.47 0 0 0-.15-.51.31.31 0 0 1 .25-.05l.47.08a1.21 1.21 0 0 1-.08.25z"/><path class="cls-1" d="M46.73 30.83v.05a63.76 63.76 0 0 0-.61 7.31.47.47 0 0 1-.67.41.46.46 0 0 0 .2-.59 31 31 0 0 1 1-8.46 5.45 5.45 0 0 0 .08 1.28zM46.73 29.11a3.66 3.66 0 0 0-.13.44 1.14 1.14 0 0 1 0-.26.17.17 0 0 1 .13-.18zM46.5 1.48a4.63 4.63 0 0 0-.28.54c-.1-.28-.21-.52-.31-.75a3.43 3.43 0 0 1-.18-.41.32.32 0 0 1 0-.3.59.59 0 0 1 .66.13s.1.13.16.2a.57.57 0 0 1 0 .52.14.14 0 0 0-.05.07zM45.86 142.54a.46.46 0 0 0 .33-.41c.16 0 .28.07.44.1-.23 1.31-.49 2.59-.75 3.87-.05.05-.1.05-.15.08a.38.38 0 0 0-.1.66.38.38 0 0 1-.52-.3 23.25 23.25 0 0 1 .16-4h.38a.65.65 0 0 0 .21 0zM46.52 134.59a6.83 6.83 0 0 1-.12.77c-1.39-1.92-1.16-4.56-1.93-6.77-.69-2-1.69-4-1.79-6.18a1.67 1.67 0 0 0 .38 0c.36 2.51 1.85 5.15 2.39 7.61a28.37 28.37 0 0 0 1.07 4.57z"/><path class="cls-1" d="M46.27.45c0 .08.1.13.15.21a.59.59 0 0 0-.66-.13.29.29 0 0 1 .51-.08zM46.47 77.25a.53.53 0 0 0-.28.36c0 .08 0 .15-.07.23a37.53 37.53 0 0 1-8.18-2.44.54.54 0 0 1-.26-.23c.54.11 1.08.18 1.62.29h.07a32.26 32.26 0 0 0 7.1 1.79zM46 141.59a.47.47 0 0 1 .15.51.36.36 0 0 1-.21-.15 1.09 1.09 0 0 0 .06-.28v-.08z"/><path class="cls-1" d="M46.19 142.1a.46.46 0 0 1-.33.41c0-.21 0-.39.07-.59a.36.36 0 0 0 .21.15zM45.91 1.27c.1.23.21.47.31.75a37.76 37.76 0 0 0-2.11 5.1 16.84 16.84 0 0 1-1 2.66 5.36 5.36 0 0 0-.69.06c1.05-2.41 1.98-5.93 3.49-8.57zM46 141.56v-.05.05z"/><path class="cls-1" d="M45.32 142c0-.18 0-.39.08-.59l.41.07a.64.64 0 0 1 .2.11v.05a.23.23 0 0 0-.06.28c0 .2 0 .38-.07.59a.65.65 0 0 1-.21 0h-.38a3.81 3.81 0 0 1 .03-.51z"/><path class="cls-1" d="M46 141.64a1.09 1.09 0 0 1-.06.28.23.23 0 0 1 .06-.28zM45.73 146.18c.05 0 .1 0 .15-.08 0 .18-.07.36-.1.54a.31.31 0 0 1-.15.2.38.38 0 0 1 .1-.66zM45.73.86a3.43 3.43 0 0 0 .18.41c-1.51 2.64-2.44 6.16-3.46 8.57a2.22 2.22 0 0 0-.57.07 19 19 0 0 1 1.44-4.23A31.75 31.75 0 0 1 45.5.76a.4.4 0 0 1 .23-.2.32.32 0 0 0 0 .3z"/><path class="cls-3" d="M27.58 19.14c4.21-5.05 13.2-9.18 20-7.59-4.74 2-7.92 8-8.25 14-3.82 4.26-6.08 9.49-9 14.33a12.35 12.35 0 0 1-2.2-8.1.42.42 0 0 0-.74-.25l-.06.05c-1.92 3-5.05 6.81-5.81 10.69-1.88-7.67 1.48-17.64 6.06-23.13z"/><path class="cls-1" d="M45.6 121.44a.59.59 0 0 1-.33 1.08H43.5c0-.21-.1-.39-.15-.59h.76a.62.62 0 0 0 1.13.16c.13-.24.23-.44.36-.65zM45.17 38.08v-.66a5.45 5.45 0 0 0 .41.46.5.5 0 0 1 .07.13.46.46 0 0 1-.2.59.47.47 0 0 1-.25-.41z"/><path class="cls-5" d="M46.4 135.36c-.34 2-.75 4-1 6a41.1 41.1 0 0 0-13.23.25 58.84 58.84 0 0 1-8.56 1.13c-3.61.08-5.51-1.56-6.49-3.82a.16.16 0 0 0 .11-.2c-.34-.9-.62-1.82-.88-2.72a27.06 27.06 0 0 1-.2-4.28c.18-9.74 4-25.43 13.12-31a18.54 18.54 0 0 0 2.62-1 35.22 35.22 0 0 0 5.84-3.07c-.77 3-1.69 6-2.66 9.07-1.44 4.38-3.18 9-2.82 13.69a.44.44 0 0 0 .07.72v.23c0 .25.38.18.46 0a25.25 25.25 0 0 0 9.87 2.12c.1 2.16 1.1 4.16 1.79 6.18.8 2.14.56 4.78 1.96 6.7z"/><path class="cls-1" d="M44.11 121.9a.63.63 0 0 1 0-.48v-.11h1.08a.54.54 0 0 1 .33.11c-.13.21-.23.41-.36.62a.62.62 0 0 1-1.05-.14zM45.5 82.2a1.84 1.84 0 0 1-.21.25 1.07 1.07 0 0 1-.41-.51c.06 0 .08-.08.11-.13.25.05.36.19.51.39zM45.42 38.6a.32.32 0 0 1-.38 0c-4-2.77-5.74-7.25-5.77-11.84a6.78 6.78 0 0 1 .56-.69 15.1 15.1 0 0 0 5.34 12v.11a.47.47 0 0 0 .25.42zM45.4 141.36c0 .2 0 .41-.08.59-4.84-.87-10.38-.13-15 .79-4.15.77-9.46 1.9-12.69-1.69a8.26 8.26 0 0 1-2-4.25 18.82 18.82 0 0 0 1.3 2.07.17.17 0 0 0 .23 0c1 2.26 2.88 3.9 6.49 3.82a58.84 58.84 0 0 0 8.56-1.13 41.1 41.1 0 0 1 13.19-.2z"/><path class="cls-1" d="M45.32 142a3.81 3.81 0 0 0 0 .59c-9.66-.72-30.38 7.63-30.74-8a17.15 17.15 0 0 0 1.06 2.31 8.26 8.26 0 0 0 2 4.25c3.23 3.59 8.54 2.46 12.69 1.69 4.61-1.02 10.15-1.76 14.99-.84zM45.29 82.45a1.9 1.9 0 0 1-.23.31.68.68 0 0 1-.38-.57 1 1 0 0 0 .2-.28 1.07 1.07 0 0 0 .41.54zM44.35 110.62h-.54a6.48 6.48 0 0 1 .43-3.05c.31 0 .61.1.92.13a.39.39 0 0 1 0 .15c-.23.9-.16 1.9-.31 2.82a2.74 2.74 0 0 1-.5-.05z"/><path class="cls-1" d="M45.06 82.79a22.31 22.31 0 0 1-5.17 5v-.23a.3.3 0 0 0-.29-.31 24.75 24.75 0 0 0 5.08-5.1.68.68 0 0 0 .38.64z"/><path class="cls-1" d="M45 81.81s-.05.11-.11.13a1 1 0 0 1-.2.28.63.63 0 0 1 0-.3c0-.11.1-.13.21-.13s.1 0 .1.02zM44.27 107.55a.48.48 0 0 1 .92.13c-.31-.03-.61-.08-.92-.13zM44.35 110.62a2.74 2.74 0 0 0 .51 0c0 .1 0 .2-.1.33h-.41a.73.73 0 0 1 0-.33zM44.35 111h.41a3.77 3.77 0 0 1-.23.64.26.26 0 0 1-.44 0 2.86 2.86 0 0 1-.23-.66 3.85 3.85 0 0 1 .49.02z"/><path class="cls-1" d="M44.35 110.62a.73.73 0 0 0 0 .36 3.85 3.85 0 0 0-.49 0 1.21 1.21 0 0 1 0-.34z"/><path class="cls-5" d="M44.24 107.55a6.48 6.48 0 0 0-.43 3.05 20 20 0 0 1-8-1.66c.3-1.28.64-2.57 1-3.82a23.8 23.8 0 0 0 7.43 2.43z"/><path class="cls-1" d="M44.19 121.31v.11a.63.63 0 0 0 0 .48h-.76v-.06a.35.35 0 0 0-.67 0 24.69 24.69 0 0 1-9.69-2c.06-.16.11-.31.16-.47a27.54 27.54 0 0 0 10.96 1.94zM43.81 110.62a1.21 1.21 0 0 0 0 .34c-2.9-.13-6.43-.44-8.15-1.49 0-.18.07-.36.13-.51a20 20 0 0 0 8.02 1.66z"/><path class="cls-1" d="M43.06 122.44a1.67 1.67 0 0 1-.38 0 2.85 2.85 0 0 1 0-.51v-.05a3.29 3.29 0 0 0 .7 0c0 .2.1.38.15.59a2.08 2.08 0 0 1-.47-.03z"/><path class="cls-1" d="M43.35 121.88a3.29 3.29 0 0 1-.7 0 .35.35 0 0 1 .67 0s0-.03.03 0zM42.45 9.84a5.36 5.36 0 0 1 .69-.06 2.92 2.92 0 0 1-.64.85.38.38 0 0 1-.64-.28 3.24 3.24 0 0 1 0-.44 2.22 2.22 0 0 1 .59-.07zM42.65 121.9a2.85 2.85 0 0 0 0 .51 25.25 25.25 0 0 1-9.87-2.12l.15-.46a24.69 24.69 0 0 0 9.69 2zM39.19 55.41a.83.83 0 1 1 1 1.31c-5 3.82-12.94 3.72-14.56-3.39A.72.72 0 0 1 27 53c1.66 5.82 8 5.64 12.19 2.41zM39.86 25.42a2.17 2.17 0 0 1 0-.43.38.38 0 0 1 .33.61l-.39.47a4.29 4.29 0 0 1 .06-.65zM37.68 74.64a.38.38 0 0 1 .51-.16c.59.23 1.16.44 1.75.62a.38.38 0 0 1-.44.38h-.2c-.54-.11-1.08-.18-1.62-.29a.55.55 0 0 1 0-.55zM39.89 87.86a33.48 33.48 0 0 1-.44 6.8.43.43 0 0 0-.49-.31 33.38 33.38 0 0 0 .62-6.26 1.45 1.45 0 0 0 .31-.23z"/><path class="cls-1" d="M39.58 88.09a2.37 2.37 0 0 1-.39.28c0-.23.06-.48.08-.74a.24.24 0 0 1 0-.1 1 1 0 0 0 .26-.21.3.3 0 0 1 .29.31v.23a1.45 1.45 0 0 1-.24.23zM39.89 25a2.17 2.17 0 0 0 0 .43c-.18.21-.38.41-.56.64a3.25 3.25 0 0 1 0-.54c.12-.15.28-.3.41-.46s.09-.07.15-.07zM39.68 74.79a.32.32 0 0 1 .26.31c-.59-.18-1.16-.39-1.75-.62a.38.38 0 0 0-.51.16 55.77 55.77 0 0 1-14-5.7.22.22 0 0 0-.21-.3 1.23 1.23 0 0 0-.28 0 5.21 5.21 0 0 1-.57-.3c-5.12-3-7.71-7.72-2.17-11.41a5.53 5.53 0 0 0 .66.2c-1.95 1.9-4.12 4.16-2 6.93a17.88 17.88 0 0 0 6.2 4.71 97.66 97.66 0 0 0 14.37 6.02z"/><path class="cls-1" d="M39.3 26.06c.18-.23.38-.43.56-.64a4.29 4.29 0 0 0 0 .62 6.78 6.78 0 0 0-.56.69 5 5 0 0 1 0-.67z"/><path class="cls-2" d="M37.94 75.4a37.53 37.53 0 0 0 8.18 2.44C43.94 86.22 33.86 91.25 26 92.71c-.08-.47-.16-.9-.23-1.29 3.3-4.33 7.94-7.35 12.56-10.12a.6.6 0 0 0 .25-.64 21 21 0 0 0-2.28-5.77l1.36.28a.54.54 0 0 0 .28.23z"/><path class="cls-1" d="M39.58 88.09a33.38 33.38 0 0 1-.58 6.26h-.07a5.7 5.7 0 0 0-.75.34 56.64 56.64 0 0 0 1-6.34 2.37 2.37 0 0 0 .4-.26zM39.58 87.32a1 1 0 0 1-.26.21.26.26 0 0 1 .26-.21zM39.45 94.71a.59.59 0 0 1-.08.43c.03-.14.05-.28.08-.43z"/><path class="cls-1" d="M38.83 95a3 3 0 0 0 .13-.59.43.43 0 0 1 .49.31c0 .15-.05.3-.08.43a6.17 6.17 0 0 1-.69.66 5.35 5.35 0 0 0 .15-.81z"/><path class="cls-1" d="M38.66 95.83a6.17 6.17 0 0 0 .69-.66 68.17 68.17 0 0 1-2.18 8.89 1.21 1.21 0 0 0-.05.18 1.58 1.58 0 0 1-.34-.13.47.47 0 0 0-.43 0c.87-2.74 1.72-5.48 2.31-8.28zM39.32 87.53a.24.24 0 0 0 0 .1c0 .26-.05.51-.08.74-.2.16-.41.31-.61.44-3.39 2.23-8.1 5-12.41 4.72 0-.16-.05-.29-.07-.41 3.79-.12 8.97-2.41 13.17-5.59zM39.3 25.52a3.25 3.25 0 0 0 0 .54c-3.77 4.26-5.8 9.56-8.69 14.28a5.36 5.36 0 0 1-.34-.49c2.95-4.85 5.21-10.07 9.03-14.33z"/><path class="cls-1" d="M30 40.36a2.39 2.39 0 0 0-.13.21h.25l.21.28c.05-.1.13-.18.18-.28h.28l-.15-.23c2.89-4.72 4.92-10 8.69-14.28a5 5 0 0 0 0 .67c-3.54 4.36-5.64 9.58-8.51 14.38a.55.55 0 0 1-.92 0 12.29 12.29 0 0 1-2.69-8.49 7.16 7.16 0 0 0 .46-1c.05-.16-.18-.23-.28-.1a.42.42 0 0 1 .74.25 12.35 12.35 0 0 0 2.2 8.1c-.16.13-.26.32-.33.49z"/><path class="cls-8" d="M38.58 88.81c.2-.13.41-.28.61-.44a56.64 56.64 0 0 1-1 6.34c-1.61.77-3.1 1.94-4.64 2.82a19.1 19.1 0 0 1-7.38 2.47 15.72 15.72 0 0 0 0-6.48c4.31.34 9.02-2.52 12.41-4.71z"/><path class="cls-1" d="M39 94.37a3 3 0 0 1-.13.59c-.28.18-.56.39-.87.59a8.39 8.39 0 0 0 .18-.84 5.7 5.7 0 0 1 .75-.34H39z"/><path class="cls-1" d="M38.83 95a5.35 5.35 0 0 1-.17.87 5.54 5.54 0 0 1-.93.72c.08-.33.16-.66.23-1 .31-.24.59-.45.87-.59zM38.6 80.66a.6.6 0 0 1-.25.64c-4.62 2.77-9.26 5.79-12.56 10.12 0-.1-.05-.23-.08-.33a.44.44 0 0 0-.23-.33c3.1-4.05 8.28-7.44 12.59-10a33.92 33.92 0 0 0-2-6l.3.08a21 21 0 0 1 2.23 5.82zM38.14 94.71a8.39 8.39 0 0 1-.18.84 37.77 37.77 0 0 1-8.61 4.45.26.26 0 0 0-.28 0 5 5 0 0 0-.67.28 7.89 7.89 0 0 1-2.41.25 1.12 1.12 0 0 0 .18-.51 19.1 19.1 0 0 0 7.33-2.48c1.5-.89 3.03-2.06 4.64-2.83z"/><path class="cls-1" d="M38 95.55c-.07.34-.15.67-.23 1a35.22 35.22 0 0 1-5.84 3.07 18.54 18.54 0 0 1-2.62 1 .35.35 0 0 1 .08-.05.39.39 0 0 0 0-.62 37.77 37.77 0 0 0 8.61-4.4z"/><path class="cls-1" d="M37.73 96.55a5.54 5.54 0 0 0 .93-.72c-.59 2.8-1.44 5.54-2.31 8.28a.41.41 0 0 0-.15.54c-.41 1.28-.82 2.54-1.18 3.82a.18.18 0 0 0-.26.2 2.26 2.26 0 0 0 .13.33 53.41 53.41 0 0 0-2.13 10.18.43.43 0 0 0-.43.13c-.36-4.67 1.38-9.31 2.82-13.69 1-3.05 1.89-6.05 2.66-9.07zM37.68 74.64a.55.55 0 0 0 0 .53l-1.36-.28a.67.67 0 0 0-.13-.25c-.1-.24-.43-.13-.46.1a38.6 38.6 0 0 1-8.1-2.74c-1.43-.67-3-1.36-4.48-2.15a9.24 9.24 0 0 0 .54-.87v-.06a55.77 55.77 0 0 0 13.99 5.72z"/><path class="cls-1" d="M32.43 83.66c.79-.54 5.2-2.62 4.89-3.74-.51-1.72-1.13-3.39-1.59-5.11v-.07a.54.54 0 0 0 .29.07 33.92 33.92 0 0 1 2 6c-4.31 2.51-9.49 5.9-12.59 10a.54.54 0 0 0-.28-.08h-.44a31.64 31.64 0 0 1 7.72-7.07zM37 104.7a2.54 2.54 0 0 0-.13.44 2.66 2.66 0 0 1-.54-.26.33.33 0 0 1-.15-.18 3.63 3.63 0 0 0 .15-.54.47.47 0 0 1 .43 0 1.58 1.58 0 0 0 .34.13 2.92 2.92 0 0 0-.1.41z"/><path class="cls-1" d="M36.32 104.88a2.66 2.66 0 0 0 .54.26c-.38 1.25-.72 2.54-1 3.82a9.78 9.78 0 0 1-.85-.44c.36-1.28.77-2.54 1.18-3.82a.33.33 0 0 0 .13.18zM36.32 104.14a3.63 3.63 0 0 1-.15.54.41.41 0 0 1 .15-.54zM36 74.81a.54.54 0 0 1-.29-.07c0-.23.36-.34.46-.1a.67.67 0 0 1 .13.25zM35.84 109c-.06.15-.08.33-.13.51a2.09 2.09 0 0 1-.8-.69.43.43 0 0 0 .05-.21c.31.07.59.22.88.39z"/><path class="cls-1" d="M35.71 109.47c-.05.15-.08.33-.13.51a2.33 2.33 0 0 1-.77-1 1.3 1.3 0 0 1 .1-.25 2.09 2.09 0 0 0 .8.74z"/><path class="cls-1" d="M34.91 108.73a1.3 1.3 0 0 0-.1.25 2.26 2.26 0 0 1-.13-.33.18.18 0 0 1 .26-.2.43.43 0 0 1-.03.28zM34.81 109a2.33 2.33 0 0 0 .77 1c-.77 3.16-1.46 6.33-2.46 9.38a1.32 1.32 0 0 1-.31-.12.24.24 0 0 0-.13 0A53.41 53.41 0 0 1 34.81 109zM33.73 13.5a.19.19 0 0 1-.1.28c-1.36.87-2.77 1.7-4.18 2.51A22.45 22.45 0 0 1 32.81 14l.1-.05c.29-.17.54-.32.82-.45z"/><path class="cls-1" d="M32.91 13.94s-.07 0-.1.05c-1.56.87-3.07 1.69-4.54 2.49A18.28 18.28 0 0 1 30 15.14c1.1-.59 2.25-1.18 3.43-1.77a.22.22 0 0 1 .33.13c-.31.13-.56.28-.85.44zM33.12 119.36c0 .16-.1.31-.16.47-.1-.06-.23-.11-.33-.16a3.59 3.59 0 0 1 0-.46.24.24 0 0 1 .13 0 1.32 1.32 0 0 0 .36.15z"/><path class="cls-1" d="M33 119.83l-.15.46a2.29 2.29 0 0 0-.23-.1c0-.18 0-.34.05-.52.06.05.19.1.33.16z"/><path class="cls-1" d="M32.58 120.19a2.29 2.29 0 0 1 .23.1c-.08.18-.43.25-.46 0v-.23c0-.07.15.07.23.13z"/><path class="cls-1" d="M32.63 119.67c0 .18 0 .34-.05.52-.08-.06-.18-.08-.26-.13 0-.23 0-.49-.07-.72a.43.43 0 0 1 .43-.13 3.59 3.59 0 0 0-.05.46zM32.25 119.34c0 .23 0 .49.07.72a.44.44 0 0 1-.07-.72zM28.27 16.48c1.47-.8 3-1.62 4.54-2.49a22.45 22.45 0 0 0-3.36 2.3s-.05 0-.07.06c-1 .56-2 1.15-2.92 1.74v-.05c.49-.49 1.06-1 1.7-1.54a.1.1 0 0 0 .11-.02zM30.61 40.34l.15.23h-.28z"/><path class="cls-1" d="M30.27 39.85a5.36 5.36 0 0 0 .34.49l-.13.23h-.39a.75.75 0 0 1-.12-.21c.1-.17.2-.36.3-.51zM30.48 40.57c-.05.1-.13.18-.18.28l-.21-.28z"/><path class="cls-1" d="M30 40.36a.75.75 0 0 0 .12.21h-.25a2.39 2.39 0 0 1 .13-.21zM27.86 101c-.3.05-.59.07-.89.1a8.31 8.31 0 0 1 1.43-.82l1-.26a.39.39 0 0 1 0 .62.35.35 0 0 0-.08.05 13.64 13.64 0 0 1-1.46.31zM29.38 16.35a22.33 22.33 0 0 0-6.18 8.15 27.67 27.67 0 0 0-2.31 9.69c-.18 2.71-.59 6.48.41 9.3v.72c-3.77-7.67-.41-20.35 5.18-26.12.92-.59 1.92-1.18 2.9-1.74zM29.07 100a.26.26 0 0 1 .28 0l-1 .26a5 5 0 0 1 .72-.26z"/><path class="cls-1" d="M28.2 16.5c-.64.5-1.2 1.05-1.7 1.5v.05c-4.24 2.61-8.11 5.59-10.41 10.38-3.92 8.1-7.21 23.15 4.3 27a.36.36 0 0 1 .18.49 3.24 3.24 0 0 0-1.12 0 8.64 8.64 0 0 1-4.95-2.64v-.38c.05-.34-.36-.39-.54-.18-3.59-4.44-3.64-12.26-2-17.41 3.17-10.25 9.35-15.53 18-20.25a18.28 18.28 0 0 0-1.7 1.34.1.1 0 0 1-.06.1zM27.86 101a13.64 13.64 0 0 0 1.41-.31c-9.1 5.61-12.94 21.3-13.12 31a27.06 27.06 0 0 0 .2 4.28 39.23 39.23 0 0 1-1-4.72c.07-.94.12-1.89.17-2.74a39.42 39.42 0 0 1 4.36-15.92c1.7-3.14 4.57-9.35 7.98-11.59zM27.22 32a1.23 1.23 0 0 1 0-.33.56.56 0 0 1 0-.1s0-.05.06-.05.33-.06.28.1a7.16 7.16 0 0 1-.46 1 3.25 3.25 0 0 1 .05-.51.12.12 0 0 1 .07-.11z"/><path class="cls-1" d="M27 101.09c.3 0 .59 0 .89-.1-3.41 2.25-6.28 8.46-8 11.63a39.42 39.42 0 0 0-4.36 15.92c0 .85-.1 1.8-.17 2.74a35.87 35.87 0 0 1-.39-4.12 42.06 42.06 0 0 1 4.31-14.87c1.51-2.87 3-6.38 5.3-9a1.08 1.08 0 0 0 .8-.85 9.13 9.13 0 0 1 1.62-1.35zM28.4 100.27a8.31 8.31 0 0 0-1.43.82 9 9 0 0 1-1.16-.08 1 1 0 0 0 .18-.49 7.89 7.89 0 0 0 2.41-.25zM27.27 31.55a.56.56 0 0 0 0 .1 1.23 1.23 0 0 0 0 .33.12.12 0 0 0 0 .08c-1.9 3.61-4.82 7.3-5.31 11.61a11 11 0 0 1-.43-1.41c.69-3.9 3.82-7.69 5.74-10.71z"/><path class="cls-1" d="M27.2 32.06a3.25 3.25 0 0 0-.05.51c-.77 1.64-1.72 3.21-2.52 4.82a32.39 32.39 0 0 0-2.35 7.26 3.89 3.89 0 0 1-.18-.41v-.23c0-.07-.05-.18-.13-.21a.43.43 0 0 1-.05-.18c.46-4.26 3.38-7.95 5.28-11.56zM26.17 93.53a15.72 15.72 0 0 1 0 6.48l-.79.08a20.18 20.18 0 0 0 .05-6.67 5.73 5.73 0 0 0 .74.11zM26 100.52a1 1 0 0 1-.18.49 3.41 3.41 0 0 1-.54-.1h-.07a5.36 5.36 0 0 0 .18-.77l.79-.08a1.12 1.12 0 0 1-.18.46z"/><path class="cls-1" d="M26.1 93.12c0 .12 0 .25.07.41a5.73 5.73 0 0 1-.74-.11 1 1 0 0 0 0-.3c.2 0 .43.02.67 0z"/><path class="cls-3" d="M16.05 28.47c2.3-4.79 6.17-7.77 10.41-10.38-5.59 5.77-8.95 18.45-5.18 26.12a.13.13 0 0 0 0 .08 8 8 0 0 0 .08.84.15.15 0 0 0 .08.16c.05 3.74 1.15 7.35 1.59 11.07-.88 0-1.67-.28-2.52-.36a.36.36 0 0 0-.18-.49c-11.49-3.89-8.2-18.94-4.28-27.04z"/><path class="cls-1" d="M26 92.71c0 .12.05.25.08.41h-.7v-.31c.2-.03.41-.05.62-.1z"/><path class="cls-1" d="M26 92.71c-.23.05-.44.07-.64.1 0-.31-.08-.59-.11-.87a.47.47 0 0 0 .26-.21l.26-.31c.09.39.17.82.23 1.29zM25.27 100.91a3.41 3.41 0 0 0 .54.1 3.32 3.32 0 0 1-.46.85.43.43 0 0 0-.36-.23c.1-.26.18-.52.26-.77-.03.02 0 .05.02.05z"/><path class="cls-1" d="M25.79 91.42l-.26.31a.47.47 0 0 1-.26.21c0-.26-.05-.49-.07-.72h-.05a4.38 4.38 0 0 1 .33-.46.44.44 0 0 1 .23.33c.03.1.05.23.08.33z"/><path class="cls-1" d="M25.43 93.42a20.18 20.18 0 0 1-.05 6.67c-.41 0-.57.61-.18.77-.08.25-.16.51-.26.77a.88.88 0 0 0-.46.16c.1-1.67.54-3.31.51-5s-.23-3.26-.3-4.87a.69.69 0 0 0 .58 0c0 .28.08.56.11.87a.12.12 0 0 1-.08 0 .3.3 0 0 0 0 .57zM25.48 90.76a4.38 4.38 0 0 0-.33.46h-.77s.05-.08.07-.13.21-.28.31-.41h.44a.54.54 0 0 1 .28.08z"/><path class="cls-1" d="M25.4 93.12a1 1 0 0 1 0 .3h-.13a.3.3 0 0 1 0-.57.12.12 0 0 0 .08 0c.03.06.05.15.05.27zM25.38 101.93a2 2 0 0 1 0 .49 9.31 9.31 0 0 0-.8.85c-1.07.43-3.12.15-5-.28v-.06a.47.47 0 0 0-.16-.53c1.9.46 3.92.79 5 .12a.19.19 0 0 0 .28 0 3.91 3.91 0 0 0 .59-.69.07.07 0 0 1 .09.1zM25.38 100.09a5.36 5.36 0 0 1-.18.77c-.39-.16-.2-.72.18-.77zM25.15 91.22h.05c0 .23.05.46.07.72a.69.69 0 0 1-.58 0v-.13h.54a6 6 0 0 1-.57-.56z"/><path class="cls-1" d="M24.48 102.52c-.05 0-.05-.07-.05-.12a3.81 3.81 0 0 1 .05-.59.88.88 0 0 1 .46-.16.43.43 0 0 1 .36.23 3.91 3.91 0 0 1-.59.69.19.19 0 0 1-.23-.05zM25.2 91.78h-.54a3.51 3.51 0 0 1 0-.56 6 6 0 0 0 .54.56zM24.58 103.27a9.31 9.31 0 0 1 .8-.85 1.08 1.08 0 0 1-.8.85z"/><path class="cls-3" d="M25 96.81c0 1.69-.41 3.33-.51 5-.28.12-.51.3-.84.41a7 7 0 0 1-3.16-.23c-1.13-.23-2.28-.67-3.43-.88a5.16 5.16 0 0 0 .82-2.69 14.59 14.59 0 0 0-.46-5.33 14.42 14.42 0 0 1 7.07-1.29.34.34 0 0 0 .18.13c.09 1.62.33 3.24.33 4.88z"/><path class="cls-1" d="M16.74 92.91a1.71 1.71 0 0 0-.1.51.3.3 0 0 1-.21-.07h-.05c-.05 0-.08-.08-.1-.13s0 0-.05 0a.47.47 0 0 1 .2-.59c2.54-1.64 5.39-1.8 8.33-1.85-.1.13-.2.28-.31.41s-.05.08-.07.13c-2.44 0-5.08.15-7.23 1.44a.3.3 0 0 0-.41.2zM24.66 91.78v.13a.34.34 0 0 1-.18-.13z"/><path class="cls-1" d="M24.63 91.22a3.51 3.51 0 0 0 0 .56h-.18a.5.5 0 0 1-.1-.56zM24.48 101.81a3.81 3.81 0 0 0-.05.59s0 .1.05.12c-1.08.67-3.1.34-5-.12a.88.88 0 0 0-.36-.1h-.05c-.93-.23-1.8-.49-2.49-.67a2.05 2.05 0 0 0 .46-.47c1.15.21 2.3.65 3.43.88a7 7 0 0 0 3.16.23c.37-.16.57-.34.85-.46z"/><path class="cls-1" d="M24.48 91.78a14.42 14.42 0 0 0-7.07 1.29.43.43 0 0 0-.06-.21.26.26 0 0 0-.2-.2c2.15-1.29 4.79-1.41 7.23-1.44a.5.5 0 0 0 .1.56zM24.22 57a.54.54 0 0 1-.56.54 7.76 7.76 0 0 1-2.54-.34l.26-.23a.61.61 0 0 0 .13-.2 6 6 0 0 0 2.15.23c0-.15 0-.33-.05-.49l.05-.05h-.05c-.39-3.72-1.54-7.2-1.77-11a.07.07 0 0 0 .05 0 .27.27 0 0 0 .36.13c.54 3.77 1.56 7.51 1.97 11.41z"/><path class="cls-2" d="M24.58 103.27c-2.25 2.64-3.79 6.15-5.3 9A42.06 42.06 0 0 0 15 127.16c-.41-8.16 1.56-16.46 4.61-24.16 1.85.42 3.9.7 4.97.27z"/><path class="cls-1" d="M23.48 68.64a.22.22 0 0 1 .21.3 2.52 2.52 0 0 1-.49-.28 1.23 1.23 0 0 1 .28-.02z"/><path class="cls-1" d="M22.61 69.56l-.61-.38a2.16 2.16 0 0 1 1.23-.52 2.52 2.52 0 0 0 .49.28V69a9.24 9.24 0 0 1-.54.87zM23.66 56.41l-.05.05v-.05zM20.28 56.39a3.11 3.11 0 0 0-.52.25c-.18-.08-.35-.18-.53-.28s-.16-.33 0-.36h.16c.28 0 .56.1.84.13a.28.28 0 0 0 .28-.13c.85.08 1.64.31 2.52.36 0 .2.05.38.07.59l.49-.49c0 .16 0 .34.05.49a6 6 0 0 1-2.15-.23.53.53 0 0 0-.75-.59 2.45 2.45 0 0 0-.46.26z"/><path class="cls-1" d="M23.61 56.41v.05l-.49.49c0-.21-.05-.39-.07-.59a3.15 3.15 0 0 0 .56.05z"/><path class="cls-1" d="M23.61 56.41a3.15 3.15 0 0 1-.56 0c-.44-3.72-1.54-7.33-1.59-11.07a.33.33 0 0 0 .38.1c.23 3.77 1.38 7.25 1.77 10.97zM22.63 68.36a5.21 5.21 0 0 0 .57.3 2.16 2.16 0 0 0-1.23.52 13.17 13.17 0 0 1-3.18-2.62c-3-3.46-2.87-7.64 1-9.92a4.69 4.69 0 0 0 .7.31c-5.57 3.69-2.98 8.43 2.14 11.41zM22.61 69.56l.54.31c-1 1.48-2.85 3.46-4.23 3.66a.71.71 0 0 1-.77-.33 17.26 17.26 0 0 1-1.1-2.92 5.17 5.17 0 0 1 .56-.49 9.93 9.93 0 0 0 1.13 3.08c.15.2 2.51-2.11 3.87-3.31z"/><path class="cls-1" d="M22 69.18l.64.38c-1.36 1.2-3.72 3.51-3.87 3.31a9.93 9.93 0 0 1-1.13-3.08l.16-.13-.21-.07c0-.18-.08-.34-.13-.52a3.61 3.61 0 0 0-.43.29 1 1 0 0 0-.23-.11 1.06 1.06 0 0 1 .05.23 20 20 0 0 0-2.29 2.46c-.12-.23-.23-.48-.33-.71a18.68 18.68 0 0 1 2.87-2.75.69.69 0 0 1 1 .41c.43 1.77.38 3.54 2.1 1.93.56-.54 1.15-1.08 1.72-1.62.02-.02.02-.02.08-.02zM22.43 45.06a.33.33 0 0 1-.18.43 1.77 1.77 0 0 1-.05-.41s.05-.23.08-.33z"/><path class="cls-1" d="M22.28 44.7c0 .1-.06.23-.08.33a5.74 5.74 0 0 1-.1-.74 3.89 3.89 0 0 0 .18.41zM22.12 45.18h.05v-.05a1.77 1.77 0 0 0 .05.41.27.27 0 0 1-.36-.13.21.21 0 0 0 .26-.23z"/><path class="cls-1" d="M22.1 44.29a5.74 5.74 0 0 0 .1.74v.05c0 .05-.05 0-.05 0s-.2-.33-.3-.51 0-.06 0-.08a3.64 3.64 0 0 1 .05-.74.1.1 0 0 1 .07 0c.03.25.08.41.13.54zM21.82 44.67c.1.18.2.36.3.51a.21.21 0 0 1-.23.18l-.05-.07c-.02-.21-.02-.41-.02-.62z"/><path class="cls-1" d="M22.07 44.06v.23c-.05-.13-.11-.29-.16-.44.09.03.14.15.16.21z"/><path class="cls-3" d="M22 69.18c-.57.54-1.16 1.08-1.72 1.62-1.72 1.61-1.67-.16-2.1-1.93a.69.69 0 0 0-1-.41 18.68 18.68 0 0 0-2.87 2.75c-2.41-5.72-.41-12 .26-17.87A8.64 8.64 0 0 0 19.41 56h-.16c-.18 0-.18.28 0 .36s.35.2.53.28c-3.84 2.28-4 6.46-1 9.92A13.17 13.17 0 0 0 22 69.18z"/><path class="cls-1" d="M21.89 43.67a.43.43 0 0 0 .05.18.1.1 0 0 0-.07 0 .41.41 0 0 1 .02-.18zM21.84 45.29s0 .05.05.07a.07.07 0 0 1-.05 0s-.02-.05 0-.07z"/><path class="cls-1" d="M21.89 43.67a.41.41 0 0 0 0 .16.24.24 0 0 0-.36.17 1.53 1.53 0 0 1-.21-.51 4.72 4.72 0 0 1 .16-1.23 11 11 0 0 0 .41 1.41z"/><path class="cls-1" d="M21.82 44.57v.08a2.77 2.77 0 0 1-.31-.65.24.24 0 0 1 .36-.17 3.64 3.64 0 0 0-.05.74zM21.82 44.67v.62c-.13-.21-.26-.44-.38-.67a5.43 5.43 0 0 1 0-.56V44a2.77 2.77 0 0 0 .31.65z"/><path class="cls-1" d="M21.46 44.62c.12.23.25.46.38.67v.1a.33.33 0 0 1-.38-.1zM20.76 56.13a.53.53 0 0 1 .75.59c-.16 0-.34-.1-.49-.16l-.74-.17a2.45 2.45 0 0 1 .48-.26zM21.51 44v.06a5.43 5.43 0 0 0 0 .56c-.06-.1-.11-.23-.16-.33a.13.13 0 0 1 0-.08v-.72a1.53 1.53 0 0 0 .16.51z"/><path class="cls-1" d="M21.51 56.72a.61.61 0 0 1-.13.2l-.26.23a5.53 5.53 0 0 1-.66-.2 5.58 5.58 0 0 1 .56-.39c.15.06.33.11.49.16zM21.46 44.62v.67a.15.15 0 0 1-.08-.16 8 8 0 0 1-.08-.84c.05.1.1.23.16.33z"/><path class="cls-1" d="M21 56.56a5.58 5.58 0 0 0-.56.39 4.69 4.69 0 0 1-.7-.31 3.11 3.11 0 0 1 .52-.25zM19.41 56a3.24 3.24 0 0 1 1.12 0 .28.28 0 0 1-.28.13c-.25-.03-.56-.08-.84-.13zM19.1 102.86a3.89 3.89 0 0 1-.54-.13c0-.08.08-.13.1-.21a.55.55 0 0 1 .39-.25h.05a1.61 1.61 0 0 0 .36.1.47.47 0 0 1 .16.53v.06a3.45 3.45 0 0 1-.52-.1z"/><path class="cls-1" d="M19.46 102.37a1.61 1.61 0 0 1-.36-.1.88.88 0 0 1 .36.1zM19.1 102.86a3.45 3.45 0 0 0 .51.13c-3.05 7.71-5 16-4.64 24.17-.2 1.56-.31 3.12-.38 4.71-1.75-9.43 1.07-21.53 4.51-29.01zM19.05 102.27a.55.55 0 0 0-.39.25c0 .08-.08.13-.1.21-.67-.18-1.28-.36-1.77-.51-.08-.21-.13-.41-.23-.62.69.18 1.56.4 2.49.67z"/><path class="cls-1" d="M18.56 102.73a3.89 3.89 0 0 0 .54.13c-3.44 7.48-6.26 19.58-4.51 29 0 .52-.06 1-.08 1.54a7.64 7.64 0 0 0 0 1.08c-2.89-7.59-1.35-17.38 1.42-25.4a1.71 1.71 0 0 1 .07-.21c.08-.13.13-.28.21-.43a9.05 9.05 0 0 0 .54-1.59s0-.08.05-.11c.58-1.42 1.2-2.74 1.76-4.01zM17.41 93.09a14.59 14.59 0 0 1 .46 5.33 5.16 5.16 0 0 1-.82 2.69l-.56-.07c1.28-1.82.66-5.64.59-7.77a1.21 1.21 0 0 1 .33-.18zM17.77 69.66l-.16.13a1.94 1.94 0 0 1-.05-.2z"/><path class="cls-1" d="M17.56 69.59a1.94 1.94 0 0 0 .05.2 5.17 5.17 0 0 0-.56.49 6.69 6.69 0 0 1-.21-.8.45.45 0 0 1 .16-.12zM17.43 69.07c.05.18.08.34.13.52l-.56-.23a3.61 3.61 0 0 1 .43-.29zM17.05 93.27l-.13.08a.67.67 0 0 1-.28.07 1.71 1.71 0 0 1 .1-.51 1.2 1.2 0 0 1 .41-.23.26.26 0 0 1 .2.2.43.43 0 0 1 .06.21 1.21 1.21 0 0 0-.36.18zM17.23 138.72a.16.16 0 0 1-.11.2 12.28 12.28 0 0 1-.77-2.92c.26.9.54 1.82.88 2.72z"/><path class="cls-1" d="M17.15 92.66a1.2 1.2 0 0 0-.41.23.3.3 0 0 1 .41-.23zM15.36 135a32.09 32.09 0 0 1 0-3.67 39.23 39.23 0 0 0 1 4.72 12.28 12.28 0 0 0 .77 2.92.17.17 0 0 1-.23 0 18.82 18.82 0 0 1-1.3-2.07 13.55 13.55 0 0 1-.24-1.9zM17.05 93.27c.07 2.13.69 6-.59 7.77h-.16a1.33 1.33 0 0 0-.23-.39 11.19 11.19 0 0 0 .54-3.9c0-.59-.05-1.28-.05-1.92a.2.2 0 0 0 .31-.18 2.12 2.12 0 0 0-.26-1 .18.18 0 0 1 0-.13.67.67 0 0 0 .28-.07zM16.84 69.48a6.69 6.69 0 0 0 .21.8A36 36 0 0 0 14.51 73a.7.7 0 0 1-1.1-.13c-2.95-6-1.8-13.94.48-19.94 0 0 0-.08.08-.1a1.55 1.55 0 0 0 .21.25c-1.26 5.26-3 13.43-.49 18.74 0 .08-.13.13-.18.21h.28c.08.16.16.31.23.46a4.19 4.19 0 0 0 .36-.38h.23l-.08-.18a20 20 0 0 1 2.29-2.46z"/><path class="cls-1" d="M16.77 69.25a1 1 0 0 1 .23.11.45.45 0 0 0-.16.12 1.06 1.06 0 0 0-.07-.23zM16.2 102a4.84 4.84 0 0 0 .59.21 8 8 0 0 1 0 4.53s0 .08-.05.11c-.26.66-.49 1.33-.75 2a1.71 1.71 0 0 0-.07.21c-2.77 6.18-5.92 10.79-6.1 17.94-.18 6 0 11.94 1.87 17.71a.29.29 0 0 1-.21.41l-.15-.23a.2.2 0 0 0-.31 0c-3.74-5.13-3-14.15-2.31-20.12.31-2.77.54-5.64 1.85-8.18 3.05-5.9 9.35-18.07-1.77-19.25a.4.4 0 0 0 .28-.46c2.87.12 5.61 1.43 6.82 4.07-.39 0-.62.61-.18.79a.3.3 0 0 0 .15 0h.05a2.28 2.28 0 0 0 .29.26zM16.53 94.45a4.3 4.3 0 0 1 .08-.82 2.12 2.12 0 0 1 .26 1 .2.2 0 0 1-.31.18 1.59 1.59 0 0 1-.03-.36zM17 101.11a2.05 2.05 0 0 1-.46.47 2.53 2.53 0 0 0-.18-.42.41.41 0 0 0 .08-.12z"/><path class="cls-1" d="M16.56 101.6c.1.21.15.41.23.62a4.84 4.84 0 0 1-.59-.21 1.21 1.21 0 0 0-.05-.18 1.38 1.38 0 0 0 .38-.23zM16.77 106.86a9.05 9.05 0 0 1-.54 1.59c-.08.15-.13.3-.21.43.26-.69.49-1.36.75-2.02zM16.61 93.55a4.3 4.3 0 0 0-.08.82c-1.71-2.59-6.94-1-8 2h-.64c0-1.77 2.36-3.26 3.85-3.72 1.18-.33 3.4-.44 4.51.49h.05a.26.26 0 0 0 .1.13h.05a2.68 2.68 0 0 0 .16.28z"/><path class="cls-4" d="M16.56 94.81c0 .64.05 1.33.05 1.92a11.19 11.19 0 0 1-.54 3.9 9 9 0 0 0-6.82-4.1 7.26 7.26 0 0 1 2.44-2.18c1.79-.87 3.31-.35 4.87.46z"/><path class="cls-1" d="M16.53 94.45a1.59 1.59 0 0 0 0 .36c-1.59-.82-3.08-1.33-4.87-.46a7.26 7.26 0 0 0-2.44 2.18 2.63 2.63 0 0 0-.48-.06 1.46 1.46 0 0 0-.23-.1c1.05-3 6.28-4.56 8-2 .02.05.05.05.02.08zM16.56 101.58a2.33 2.33 0 0 0-.46-.08 1.67 1.67 0 0 0 .31-.34 2.53 2.53 0 0 1 .15.42z"/><path class="cls-1" d="M16.07 101.5a2.33 2.33 0 0 1 .46.08 1.38 1.38 0 0 1-.38.23 1.12 1.12 0 0 0-.07-.29l-.01-.02zM16.46 101a.41.41 0 0 1-.08.12.41.41 0 0 0-.08-.12zM16.28 93.17s.07.07.1.13a.26.26 0 0 1-.1-.13z"/><path class="cls-1" d="M16.3 101a.41.41 0 0 1 .08.12 1.67 1.67 0 0 1-.31.34.06.06 0 0 0-.05 0 1.2 1.2 0 0 0-.13-.36s0-.07.06-.1a1.38 1.38 0 0 1 .35 0z"/><path class="cls-1" d="M16.3 101a1.38 1.38 0 0 0-.35 0 1.69 1.69 0 0 0 .12-.36 1.33 1.33 0 0 1 .23.36zM16.15 101.83a1.21 1.21 0 0 1 .05.18 2.28 2.28 0 0 1-.31-.1h.08a.34.34 0 0 0 .15-.07zM16 101.47a1.12 1.12 0 0 1 .07.29.34.34 0 0 1-.15.07h-.13a.25.25 0 0 1-.15-.36 3.11 3.11 0 0 0 .2-.41 1.2 1.2 0 0 1 .16.41z"/><path class="cls-1" d="M16 101.47a.06.06 0 0 1 .05 0H16zM16.07 100.63a1.69 1.69 0 0 1-.07.37h-.08c-1.21-2.64-3.95-4-6.82-4.07a.63.63 0 0 0 0-.13c.08-.1.16-.21.23-.28a9 9 0 0 1 6.74 4.11zM16 101l-.06.1c-.06.1 0 0 0-.07H16zM15.87 101v.07a3.11 3.11 0 0 1-.2.41.25.25 0 0 0 .15.36.3.3 0 0 1-.15 0c-.42-.19-.19-.84.2-.84zM15.36 135a13.55 13.55 0 0 0 .23 1.85 17.15 17.15 0 0 1-1.06-2.31 7.64 7.64 0 0 1 0-1.08c0-.51.05-1 .08-1.54a19.27 19.27 0 0 0 .75 3.08z"/><path class="cls-1" d="M15.36 131.28a32.09 32.09 0 0 0 0 3.67 19.27 19.27 0 0 1-.77-3.08c.07-1.59.18-3.15.38-4.71a35.87 35.87 0 0 0 .39 4.12zM14.53 71.94l.08.18h-.23zM14.18 53.05a1.55 1.55 0 0 1-.18-.25c.18-.21.59-.16.54.18v.38a2.61 2.61 0 0 1-.36-.31zM14.53 71.94l-.15.16-.59-.1a.77.77 0 0 1-.1-.23c.18-.18.33-.38.51-.56.1.25.21.5.33.73z"/><path class="cls-1" d="M14.38 72.1a4.19 4.19 0 0 1-.36.38c-.07-.15-.15-.3-.23-.46zM14.18 53.05a2.61 2.61 0 0 0 .28.31c-.67 5.9-2.67 12.15-.26 17.87-.18.18-.33.38-.51.56-2.54-5.31-.77-13.48.49-18.74zM13.69 71.79a.77.77 0 0 0 .1.23h-.28c.05-.1.13-.15.18-.23zM11.66 145.46a.48.48 0 0 1 0 .54c-.1.18-.2.33-.3.48a.66.66 0 0 1-1 .13c-4.59-4.61-5.2-12.74-6.07-18.86a28.91 28.91 0 0 1 3.43-18.51 2.52 2.52 0 0 0 .87-.43c-3.72 5.61-4.59 13.86-3.49 20.5.77 4.36 2.1 13.82 5.69 16.84.52-.15.41-.51.39-1a.51.51 0 0 0 .3 0c.06.1.13.21.18.31z"/><path class="cls-1" d="M11.18 145.13a.35.35 0 0 1-.13-.11L11 145a.2.2 0 0 1 .31 0l.15.23a.51.51 0 0 1-.3 0z"/><path class="cls-1" d="M11.18 145.15c0 .49.13.85-.39 1-3.59-3-4.92-12.48-5.69-16.84-1.1-6.64-.23-14.89 3.49-20.53a4.58 4.58 0 0 0 .79-.62.37.37 0 0 1-.05.36c-3.89 6.72-4.66 14.23-3.41 21.82a67.61 67.61 0 0 0 1.57 7.74c.12.43 3.15 7.1 3.51 6.87 0 0 0 .05.05.07a.35.35 0 0 0 .13.11z"/><path class="cls-1" d="M9.23 107.93a.47.47 0 0 0-.44-.1 4 4 0 0 0 1.39-1.59c.84-1.61-.39-2.23-1.8-1.9-.18 0-.38-.18-.25-.36 1.64-2.33 3.82-.38 2.77 2a7.2 7.2 0 0 1-1.52 2.23.34.34 0 0 0-.15-.28z"/><path d="M10.9 105.93c1-2.33-1.13-4.28-2.77-2-.13.18.07.39.25.36 1.41-.33 2.64.29 1.8 1.9a4 4 0 0 1-1.39 1.59.22.22 0 0 0-.21.13 3.94 3.94 0 0 1-2.77.31 5.35 5.35 0 0 1-4.08-4.49c-.3-3.85 3.92-5.74 7-6.33a.16.16 0 0 0 .11 0c11.12 1.18 4.82 13.35 1.77 19.25-1.31 2.54-1.54 5.41-1.85 8.18-.69 6-1.43 15 2.31 20.12-.36.23-3.39-6.44-3.51-6.87a67.61 67.61 0 0 1-1.57-7.74c-1.25-7.59-.48-15.1 3.41-21.82a.37.37 0 0 0 .05-.36 7.2 7.2 0 0 0 1.45-2.23z" fill="#b5a666"/><path class="cls-1" d="M8.77 96.47a2.63 2.63 0 0 1 .48.06c-.07.07-.15.18-.23.28a.55.55 0 0 0-.25-.34zM8.59 108.78a2.52 2.52 0 0 1-.87.43 2.76 2.76 0 0 1 .3-.46 4.46 4.46 0 0 0 1.21-.82.34.34 0 0 1 .15.23 4.58 4.58 0 0 1-.79.62z"/><path class="cls-1" d="M8.79 107.83a.47.47 0 0 1 .44.1 4.46 4.46 0 0 1-1.21.82c.13-.25.29-.48.44-.72l.08-.07a.62.62 0 0 0 .21-.13h.04zM9.05 96.94a.4.4 0 0 1-.28.46h-.21l.36-.43a.11.11 0 0 1 .13-.03z"/><path class="cls-1" d="M9 96.81a.63.63 0 0 1 0 .13.11.11 0 0 0-.13 0z"/><path class="cls-1" d="M9 96.81l-.1.13a1.89 1.89 0 0 0-.41 0h-.11a1.59 1.59 0 0 1 .13-.46 1.14 1.14 0 0 1 .26 0 .55.55 0 0 1 .23.33z"/><path class="cls-1" d="M8.38 96.91h.13a1.89 1.89 0 0 1 .41 0l-.36.43h-.05a.48.48 0 0 1-.43-.43c.1.03.2 0 .3 0z"/><path class="cls-1" d="M8.77 97.4a.16.16 0 0 1-.11 0c-3 .59-7.27 2.48-7 6.33a5.35 5.35 0 0 0 4.08 4.49 3.94 3.94 0 0 0 2.8-.22l-.08.07c-.15.24-.31.47-.44.72a4 4 0 0 1-3.1-.1c-7.38-3.13-3.46-11.07 3-11.71a2 2 0 0 0 .2.46.21.21 0 0 0 .34 0v-.08c.18.01.26.04.31.04zM8.77 96.47a1.14 1.14 0 0 0-.26 0 .09.09 0 0 1 0-.08 1.46 1.46 0 0 1 .26.08zM8.77 107.83a.62.62 0 0 1-.21.13.22.22 0 0 1 .21-.13z"/><path class="cls-1" d="M8.54 97.37v.08a.21.21 0 0 1-.34 0 2 2 0 0 1-.2-.46h.13a.48.48 0 0 0 .43.43zM8.51 96.37a.09.09 0 0 0 0 .08.4.4 0 0 0-.43.49H8a2.6 2.6 0 0 1-.08-.59c.16 0 .36 0 .59.02z"/><path class="cls-1" d="M8.08 96.94a.4.4 0 0 1 .43-.49 1.59 1.59 0 0 0-.13.46c-.1 0-.2.03-.3.03zM8 108.75a2.76 2.76 0 0 0-.3.46 4.87 4.87 0 0 1-4.77-.9c-5.66-4.1-1.15-11.87 5-12a2.6 2.6 0 0 0 .08.59c-6.49.64-10.41 8.58-3 11.71a4 4 0 0 0 2.99.14z"/><path class="cls-10" d="M74.08 32.88c-8.82-2.68-.26-12.84 1.88-4 .53 2.95-1.34 6.15-3.75 2.95"/><path class="cls-11" d="M74.08 32.88c-8.82-2.68-.26-12.84 1.88-4 .53 2.95-1.34 6.15-3.75 2.95"/><path class="cls-10" d="M74.23 32.34c-1.5-.52-3.22-1.49-3.44-3.23a3.08 3.08 0 0 1 1.42-3c1.33-.81 2.36.56 2.8 1.68a4.64 4.64 0 0 1 0 3.74c-.68 1.33-1.75.17-2.7-.19-.35-.13-.59.25-.54.54.23 1.45 1.83 2.69 3.23 1.91s1.63-2.45 1.67-3.82c0-2.08-1.33-5.28-3.79-5.21-1.82 0-3.16 2-3.3 3.63-.24 2.7 2 4.32 4.34 5 .69.2 1-.84.29-1.07zM79.7 32.34a14.38 14.38 0 0 1-.54-2.94c2.94-.8 2.94 4.55.54 2.41"/><path class="cls-11" d="M79.7 32.34a14.38 14.38 0 0 1-.54-2.94c2.94-.8 2.94 4.55.54 2.41"/><path class="cls-10" d="M80.16 32.47c.23-.91-.38-2.13-.41-3.07l-.43.56c1.53-.34 2.23 2.19.45 1.59a.27.27 0 0 0-.3.39c.36.65.81 1.26 1.65 1a1.52 1.52 0 0 0 .88-1.52 2.42 2.42 0 0 0-3-2.58.58.58 0 0 0-.43.56c0 .91.09 2.6.78 3.28a.48.48 0 0 0 .8-.21z"/></g></g></svg>