<svg xmlns="http://www.w3.org/2000/svg" viewBox="0 0 141.28 142.68"><defs><style>.cls-1{fill:#1d3033;stroke:#1d3033;stroke-linecap:round;stroke-linejoin:round;stroke-width:.66px}.cls-2{fill:#332a3e}.cls-3{fill:#515151}.cls-5{fill:#749577}.cls-6{fill:#42beec}.cls-7{fill:#fff}</style></defs><g id="レイヤー_2" data-name="レイヤー 2"><g id="レイヤー_3" data-name="レイヤー 3"><path class="cls-1" d="M140.55 83.52c.56.23.56 1.28-.18 1.2-6.46-.82-11.49-3.72-14.23 4.59a1 1 0 0 1-1.79.23c-2.64-3.54-10-15.23-15.08-8.05a1 1 0 0 1-1.46.18c-2-2.08-4.38-3.59-6.43-5.56a.83.83 0 0 0 0-.82 27.38 27.38 0 0 1 7.1 5.71c4.87-8 12.69 2.57 16 7.1-.08.21-.15.44-.23.67l.67-.08.25.33c0-.13.08-.25.13-.38a5.93 5.93 0 0 1 .72-.1c-.15-.23-.31-.44-.46-.67 2.77-8 7.4-5.72 14.22-4l.34.39c.28.3.66-.08.51-.41l-.23-.47z"/><path class="cls-1" d="M140.65 83.93c.15.33-.23.71-.51.41l-.34-.34.57.15c-.21-.3-.39-.58-.59-.89.2.08.41.15.64.25zM140.42 83.46c-.23-.1-.44-.17-.64-.25-3.85-5.85-7.95-11.18-11.48-17.38-2.11-4.15-4.46-9.49-8.21-12.38v-.57c4.39 3.26 6 8 8.8 12.57 3.69 6.07 8.51 11.63 11.53 18.01z"/><path class="cls-1" d="M139.78 83.21c.2.31.38.59.59.89l-.57-.1c-.33-.36-.64-.72-1-1.1.34.1.65.18.98.31z"/><path class="cls-1" d="M138.83 82.85c.33.38.64.74 1 1.1-6.82-1.77-11.45-4-14.22 4a8 8 0 0 1-.62-.85c2.77-6.25 7.59-6.48 13.84-4.25zM139.78 83.21c-.33-.13-.64-.26-.95-.36a102.48 102.48 0 0 1-10.05-14.71c-2.82-4.85-4.74-10-8.81-14 0-.21.07-.44.12-.67 3.75 2.89 6.1 8.23 8.21 12.38 3.53 6.15 7.63 11.51 11.48 17.36zM134.27 111.2c.51 1.13.43 2.92-.9 3.36a.43.43 0 0 1-.39-.08.68.68 0 0 0 .34-.08.27.27 0 0 0 .13-.43h-.08c2.87-5-11.2-8.69-15.33-9.77a8.47 8.47 0 0 0 .67-.67 26.38 26.38 0 0 1 3.13.9 43.22 43.22 0 0 1 7.69 2.82c1.82.87 3.84 2 4.74 3.95z"/><path class="cls-2" d="M138.83 82.85c-6.25-2.23-11.07-2-13.87 4.2-2.84-3.87-5.94-7.89-10.53-9.63a5.09 5.09 0 0 0-4.85.89c-2.07 2-5.53-2.87-8.43-3.64a.47.47 0 0 0-.54.29 6.27 6.27 0 0 0-5.38 1.87 18.27 18.27 0 0 0-2.56-9.33 12.51 12.51 0 0 0-.16-2c6.46 1.46 10.87 3 17.36 0 4.33-1.92 9.07-6.48 10.1-11.45 4.07 4 6 9.17 8.81 14a102.48 102.48 0 0 0 10.05 14.8z"/><path class="cls-1" d="M118 104.15c4.13 1.08 18.2 4.79 15.33 9.77a2.64 2.64 0 0 0-.51-.44 2.54 2.54 0 0 0 0-1.31 5.05 5.05 0 0 0-1.82-2.07 26.7 26.7 0 0 0-6.23-3c-1.92-.69-3.87-1.28-5.81-1.9a7.3 7.3 0 0 1-1.57-.54 6.94 6.94 0 0 0 .61-.51zM133.45 114a.27.27 0 0 1-.13.43.68.68 0 0 1-.34.08.27.27 0 0 1-.12-.2.47.47 0 0 1 0-.21l.41.08a1.1 1.1 0 0 0 .13-.23s.02-.01.05.05z"/><path class="cls-1" d="M133.37 113.92a1.1 1.1 0 0 1-.13.23l-.41-.08a2.29 2.29 0 0 1 0-.59 2.64 2.64 0 0 1 .54.44z"/><path class="cls-3" d="M132.88 112.17a2.54 2.54 0 0 1 0 1.31c-2.62-2-7.28-2.74-10.33-3.77a21.73 21.73 0 0 0-11.64-.54.7.7 0 0 0 0-.18c-.31-.87-.67-1.69-1-2.48 2.94.18 5.17-2.13 6.3-5.08.82-2.18 1.92-6.53.9-9.33a4.57 4.57 0 0 1 1.61 1 5 5 0 0 1 .72 6.08c-1 1.89-3.64 3.64-3.33 6a.2.2 0 0 0 .3.17 5.91 5.91 0 0 0 1.13-.69 7.3 7.3 0 0 0 1.57.54c1.94.62 3.89 1.21 5.81 1.9a26.7 26.7 0 0 1 6.23 3 5.05 5.05 0 0 1 1.73 2.07z"/><path class="cls-1" d="M132.86 114.28a.27.27 0 0 0 .12.2c-2.79.79-6-1.21-8.58-2.18-4.36-1.64-8.48-2.72-13.13-2a5.08 5.08 0 0 0-.17-.59c8.58-1.87 14 2.77 21.73 4.36a.47.47 0 0 0 .03.21z"/><path class="cls-1" d="M132.86 113.48a2.29 2.29 0 0 0 0 .59c-7.69-1.59-13.15-6.23-21.73-4.36a3.8 3.8 0 0 0-.18-.54 21.73 21.73 0 0 1 11.64.54c2.99 1.03 7.65 1.74 10.27 3.77zM125.58 87.9c.15.23.31.44.46.67a5.93 5.93 0 0 0-.72.1 6.3 6.3 0 0 1 .26-.77z"/><path class="cls-1" d="M125 87.05a8 8 0 0 0 .62.85 6.3 6.3 0 0 0-.26.77 1.58 1.58 0 0 0-.38 0c-.13-.18-.26-.38-.44-.59.11-.36.27-.69.46-1.03zM125.32 88.67c0 .13-.08.25-.13.38l-.25-.33a1.58 1.58 0 0 1 .38-.05zM124.94 88.72l-.67.08c.08-.23.15-.46.23-.67.18.21.31.41.44.59z"/><path class="cls-1" d="M125 87.05c-.15.34-.31.67-.46 1-3.33-4.53-11.15-15.12-16-7.1a27.38 27.38 0 0 0-7.13-5.71.59.59 0 0 0-.41-.25c-.1 0-.21 0-.31-.05a.47.47 0 0 1 .54-.29c2.9.77 6.36 5.59 8.43 3.64a5.09 5.09 0 0 1 4.85-.89c4.49 1.76 7.61 5.78 10.49 9.65zM121.61 95.69c.35 2.41-1 5.64-2.9 7.79a2.08 2.08 0 0 0-1.57.21c2.13-3 5.46-5.72 2.8-10a5 5 0 0 0-3.38-2.43 2.19 2.19 0 0 0-.41-.51 3.63 3.63 0 0 1 2.2.53 6.55 6.55 0 0 1 3.26 4.41z"/><path class="cls-1" d="M116.91 104a1.17 1.17 0 0 0 .54.66 5.91 5.91 0 0 1-1.13.69.2.2 0 0 1-.3-.17c-.31-2.36 2.33-4.11 3.33-6a5 5 0 0 0-.72-6.08 4.57 4.57 0 0 0-1.61-1 4.79 4.79 0 0 0-.46-.84 5 5 0 0 1 3.38 2.43c2.66 4.28-.67 7-2.8 10a.21.21 0 0 0-.15.07.27.27 0 0 0-.08.24zM119.48 53.68a4.06 4.06 0 0 1 .49.44c-1 5-5.77 9.53-10.1 11.45-6.49 3-10.9 1.44-17.36 0a14.24 14.24 0 0 0-.51-2.35 1 1 0 0 1 1.54.15c4.33 5 13.38 3.15 18-.18 4.25-3.08 5.79-7 8.17-11.43a.24.24 0 0 1 .44.13v1l-.25-.18a.12.12 0 0 0-.13 0c-.46-.15-.9.49-.49.83a.67.67 0 0 1 .2.14z"/><path class="cls-1" d="M119.89 52.7l.25.18v.57c-.15-.1-.3-.23-.46-.33a2.83 2.83 0 0 0 .13-.44.12.12 0 0 1 .08.02zM120.09 53.45c0 .23-.07.46-.12.67a4.06 4.06 0 0 0-.49-.44 2.11 2.11 0 0 0 .15-.56c.16.1.31.23.46.33z"/><path class="cls-1" d="M119.76 52.65a2.83 2.83 0 0 1-.13.44 2.11 2.11 0 0 1-.15.56.67.67 0 0 0-.21-.2c-.41-.31.03-.95.49-.8zM118 104.15a6.94 6.94 0 0 1-.59.51 1.17 1.17 0 0 1-.54-.66l.23-.31a2.08 2.08 0 0 1 1.57-.21 8.47 8.47 0 0 1-.67.67zM117 92.1c1 2.8-.08 7.15-.9 9.33-1.13 2.95-3.36 5.26-6.3 5.08a3.8 3.8 0 0 0-.26-.49c5.58.18 7.92-9.56 6.28-14.48a9.81 9.81 0 0 0 1.18.56z"/><path class="cls-1" d="M117.14 103.69l-.23.31a.27.27 0 0 1 .08-.24.21.21 0 0 1 .15-.07zM95.46 29.07a3 3 0 0 0-.1-.82 8.66 8.66 0 0 1 1.15.39 53.82 53.82 0 0 1 7.49 3.53c4.69 2.64 9.79 5.67 12.86 10.23.23.31-.2.74-.54.54h-.07c-5-3.38-9.33-7.51-14.84-10.26-1.79-.89-3.92-2-6.2-3a.36.36 0 0 0 .28-.31zM116.56 91.26a4.79 4.79 0 0 1 .46.84 9.81 9.81 0 0 1-1.18-.56 1.42 1.42 0 0 0-.13-.33 1.5 1.5 0 0 1 .85.05z"/><path class="cls-1" d="M116.56 91.26a1.5 1.5 0 0 0-.85-.05.37.37 0 0 0-.08-.21.76.76 0 0 1 .52-.25 2.19 2.19 0 0 1 .41.51zM102.23 44a8.84 8.84 0 0 0-1.44-.33c4.79-1.21 10.2-1.16 15.13-.85a.67.67 0 0 1 .3.08.72.72 0 0 1-.33 1.33c-4 .26-8 .41-12 .41a9.05 9.05 0 0 0-1.66-.64z"/><path d="M116.22 42.89a.67.67 0 0 0-.3-.08c-4.93-.31-10.34-.36-15.13.85l-.69-.08c-.64-.08-.77 1-.15 1.1 4.4.87 7.43 4.1 10 7.56-4.62.57-9.21.08-13.85.23a.66.66 0 0 0-.46 1.11 22.92 22.92 0 0 0 2.31 2.12A44.9 44.9 0 0 0 90 57.12a.48.48 0 0 0-.33.25c-.51-.33-1.49.23-1.2.92 1.23 3.05 2.71 5.67 2.77 9.08 0 2.51-1.13 5.28-2 7.59a26 26 0 0 1-1.89 4c-.52.72-1 1.44-1.52 2.16-1.7 2.34-2.34 1.88-1.83-1.42a78 78 0 0 0-1.46-8.49.74.74 0 0 0-1.41 0c-1.84 7.15-6.92 11.67-12.25 16.36-2.62 2.33-9.61 10.35-9.84 2.1a.76.76 0 0 0-1.29-.51c-2.12 1.76-4.79 3.61-5.89 6.27-1.64 3.9-4.1-3.43-4.61-4.81-1.06-2.88-.88-6.08-.6-9.1v-.21c.1-.92-1.25-1-1.54-.2-1.23 3.61-2.25 7-6 3.48C36.35 81.85 35 77.83 34.53 74c-.67-5 2.43-7.54 3.61-11.64a.33.33 0 0 0 .64.13 3 3 0 0 1 .13-.39.29.29 0 0 0-.25-.38.17.17 0 0 0-.18-.13 19.28 19.28 0 0 0-4.23.23c-.31 0-7.46 1.18-3.1-.92.38-.18.18-.75-.21-.75a64.94 64.94 0 0 0-9.46 0c-1.23.15-2.48.31-3.71.43-1.67.13 2.38-4.89 2.25-4.71.36-.46-.31-.9-.72-.72-2.23 1-7.94 6.33-6.3 1.59 2.07-5.92 5.84-11.25 9.71-16.07 5.44-6.67 13.23-8.8 20.54-12.57a.73.73 0 0 0 .66-1.16C39.5 21.3 36.48 14.77 36.2 7.72c4.58 6.79 11 13.58 17.89 17.81h.1a.45.45 0 0 0 .51.18A66.1 66.1 0 0 1 67 23.92a.51.51 0 0 0 .48-.41.47.47 0 0 0 .85.13C72 17.33 74.06 10.9 75.9 4l.33.15c2.62 1 3.34 8.74 3.82 11.13.65 3 1 6.46 2.34 9.28-.41.79-.23 2.05 1 1.92 3.53-.31 7.69 1.18 11.51 2.92a.29.29 0 0 0 .28.16c2.28 1 4.41 2.15 6.2 3 5.51 2.82 9.79 6.95 14.84 10.33zM68.6 37c4.94 8.58 18.27-.8 14.2-9.31a.7.7 0 0 0-1.26 0 .55.55 0 0 0-.64 0A70.28 70.28 0 0 1 69.08 36a.49.49 0 0 0-.72.56.21.21 0 0 0 0 .13.31.31 0 0 0 .18.28s0 .03.06.03zm5.87 5c.38-.43-.11-1.18-.64-.84-5.11 3-8.72 5.28-14.87 2.64a.73.73 0 0 0-.85.13c-2.46 2.22-10 8.33-13.35 4.71-.46-.51-1.23.15-.92.72 2.51 4.43 9.1.1 11.89-1.77a30.23 30.23 0 0 0 2.79-2.13c.21-.18 5 1.23 5.62 1.31 3.86.45 7.94-1.93 10.33-4.77zm-27.94-2.49a.62.62 0 0 0-1.21-.19 32.56 32.56 0 0 1-11.63-2.64c-.54-.23-.95.41-.77.88-3.36 7.56 13.3 13.22 13.61 1.95z" fill="#a3a2a2"/><path class="cls-1" d="M115.63 91a1.06 1.06 0 0 0-.15.15.14.14 0 0 0 0 .18 1.88 1.88 0 0 0 .31.21c1.64 4.92-.7 14.66-6.28 14.48a2.81 2.81 0 0 0-.26-.56c3.33-.23 5.18-3.9 5.77-6.95.54-2.84-.16-5.41 0-8.2a.23.23 0 0 1 .33-.21 2.28 2.28 0 0 1 .75.65.76.76 0 0 0-.47.25z"/><path class="cls-1" d="M115.71 91.21a1.42 1.42 0 0 1 .13.33 1.88 1.88 0 0 1-.31-.21.14.14 0 0 1 0-.18 1.06 1.06 0 0 1 .15-.15.37.37 0 0 1 .03.21zM110.33 110.25a.54.54 0 0 0 .46.13l.48-.08c1.47 4.33 2.29 9.18 1 13.64-1.2 4.18-4 7.18-5.69 11.1-.1.23-.48.1-.48-.11.28-5.64 4.89-9.56 4.84-15.51-.08-7.1-2.9-13.3-7-18.94-3.77-5.1-8.13-10.72-9.05-17v-.25c.18-1.34.31-2.62.39-3.92-.41 8 4.82 14.48 9.41 20.71a49.73 49.73 0 0 1 3.51 5.43.37.37 0 0 0-.08.72 1.82 1.82 0 0 0 .54.15c.56 1.11 1 2.21 1.49 3.33a.53.53 0 0 0 .18.6zM111.92 52.42a.77.77 0 0 1-.47 1.13c-4.56.64-9.15.13-13.76.21-.23-.21-.46-.44-.72-.67 4.41-.15 9 .51 13.46-.15l.18.25c0-.1.08-.2.13-.31l.51-.07a3.94 3.94 0 0 0-.31-.44l.13-.28a2.74 2.74 0 0 1-.28 0c-2.05-3-5-6.3-8.46-7.51h1.59c3.36 1.64 5.9 4.72 8 7.84z"/><path class="cls-1" d="M111.07 109.71a5.08 5.08 0 0 1 .17.59l-.48.08a.54.54 0 0 1-.46-.13c-.08-.2-.16-.41-.23-.62a.45.45 0 0 1 .38-.38l.41-.08a3.8 3.8 0 0 1 .21.54zM110.94 52.37a3.94 3.94 0 0 1 .31.44l-.51.07a5.38 5.38 0 0 0 .2-.51z"/><path class="cls-1" d="M111.07 52.09l-.13.28a.69.69 0 0 0-.15-.23 2.74 2.74 0 0 0 .28-.05z"/><path class="cls-1" d="M110.94 52.37a5.38 5.38 0 0 1-.2.51 1.21 1.21 0 0 1-.31.06c-.18-.24-.33-.47-.51-.7.3 0 .59-.07.87-.1a.69.69 0 0 1 .15.23zM110.84 109a.7.7 0 0 1 0 .18l-.41.08a.45.45 0 0 0-.38.38c-.44-1.12-.93-2.22-1.49-3.33a4.05 4.05 0 0 0 1.21.21c.4.78.76 1.6 1.07 2.48z"/><path class="cls-3" d="M110.89 119.4c0 5.95-4.56 9.87-4.84 15.51h-.13c0-.13-.13-.28-.31-.23-2.49.95-2 4.54-4.9 5.36-2.3.61-5-.18-7.53-.41.07-.18.13-.39.2-.62a7.88 7.88 0 0 1 2-2.69.71.71 0 0 0 .18-.49 1.26 1.26 0 0 0 .33-.05.28.28 0 0 0 .08-.51c-2-1.33-4.41-2.13-6.56-3.31a49.2 49.2 0 0 1-6.66-4.72c-.78-.58-1.8.37-1.08 1.08a47.12 47.12 0 0 0 3.51 3.26c-8.92-1-17.69.95-26.38 2.77a.53.53 0 0 0-.41.61c-4.05.36-8.12 1.79-12 2.9-2.1.56-4.13 1.33-6.2 2s-11.46 1.57-4-1a.52.52 0 0 0-.26-1 5.3 5.3 0 0 0-3.79 2.28c-1.1-4.23 9.61-6.33 12.15-7.05a.58.58 0 0 0 .43-.74h.62c.64.05.67-.87.16-1.06-8.44-3.12-17.74-9.55-9.36-19.17 2.38-2.72 6.3-5.2 6.3-8.82 1.08 2.75 3.36 8.9 6.64 10.08-1.53 4 3 6.66 5.28 3.66 1.57 2.31 4.1 3.54 7 2.36a5.34 5.34 0 0 0 2.84-7.05c.21.57 3.15-2.87 3.33-3.28a4.85 4.85 0 0 0 0-3.74c-1.54-3.49-5.57-3.72-8.62-2.13-.84.44-.25 1.9.65 1.54 2.28-.9 5-1.54 6.51 1s-1 4.77-3 5.67a.68.68 0 0 0-.26 1c3.33 4.94-5.28 8.51-7.59 2.84a.83.83 0 0 0-1.59 0c-.38.93-1.13 1.9-2.25 1.39s-.75-2.21-.54-3.13a.74.74 0 0 0-.33-.8c-.67-1.28-1.93-2.2-2.85-3.4a40.32 40.32 0 0 1-4.74-9.15A127.73 127.73 0 0 1 38.3 85.8a21.45 21.45 0 0 0 4.26 3.44.81.81 0 0 0 1.1-.31c.46-1.11 1-2.18 1.49-3.26a20.85 20.85 0 0 0 5.94 13.92.77.77 0 0 0 1.29-.33c.92-3.59 2.89-5.77 5.43-8 .49 4.22 3 5.61 7.13 2.25 6.48-5.33 13.58-11.15 16.79-19 .46 3.2.84 6.41 1.28 9.61.1.59.84.72 1.28.51 4.51-2.12 6.38-7.64 7.74-12.07a15.93 15.93 0 0 0 .64-2.87c2.69 10.28.21 22.48-1.13 32.78a.32.32 0 0 0 0 .18.34.34 0 0 0 .13.46c2 1.16 3.41 2 3.74 4.62a8.75 8.75 0 0 1-1 5.2c-2.1 3.87-8 4-8.64-.87-.08-.57-.92-1-1.23-.34-3 6.52-7.36-.3-5.25-2.48a8.58 8.58 0 0 0 .9-.56.73.73 0 0 0-.74-1.26c-.08 0-.16.08-.23.1-4.54 2-5-7-1.06-6.23.39.08.7-.41.41-.64 1.13-.28 1.62-2 2.06-2.92.58-1.28 1.38-2.87 1-4.33a.32.32 0 0 0-.52-.13 11.51 11.51 0 0 0-2 3.61c-.46 1-1.53 2.36-1.28 3.49-5.2-1.56-5 8.92-.61 9.33-1.23 3.79 4.15 9.33 7.56 4.26 1.43 4.17 6.56 4.2 9.92.94 2.87-2.84 3.43-12.63-1.82-12.63 1.12-6.18 1.23-12.51 2-18.72.92 6.28 5.28 11.9 9.05 17 4.07 5.55 6.88 11.75 6.96 18.85zm-12.51 17.89a.25.25 0 0 0-.2-.46 2.35 2.35 0 0 0-2 2.41c-.05.69 1 .67 1 0a2.88 2.88 0 0 1 1.2-1.95z"/><path class="cls-1" d="M100.28 44.17a.52.52 0 0 0 .46.44h1.59c3.43 1.21 6.41 4.56 8.46 7.51-.28 0-.57.08-.87.1-2.54-3.46-5.57-6.69-10-7.56-.62-.1-.49-1.18.15-1.1l.69.08a1.21 1.21 0 0 0-.18.05.42.42 0 0 0-.3.48zM110.74 52.88c0 .11-.08.21-.13.31l-.18-.25a1.21 1.21 0 0 0 .31-.06z"/><path class="cls-1" d="M109.92 52.24c.18.23.33.46.51.7-4.41.66-9.05 0-13.46.15l-.43-.41c-.05.15-.13.28-.18.44h-.29l.21.2c-.08.16-.13.31-.21.46h.67a18.24 18.24 0 0 0 2.08 1.84 8.25 8.25 0 0 1-.9.1 22.92 22.92 0 0 1-2.31-2.12.66.66 0 0 1 .46-1.11c4.64-.17 9.23.32 13.85-.25zM110.1 109.63c.07.21.15.42.23.62a.53.53 0 0 1-.23-.62zM109.56 106a3.8 3.8 0 0 1 .26.49 4.05 4.05 0 0 1-1.21-.21 4.39 4.39 0 0 0-.26-.46 5.81 5.81 0 0 0 1.21.18z"/><path class="cls-1" d="M109.3 105.46a2.81 2.81 0 0 1 .26.56 5.81 5.81 0 0 1-1.21-.18 2.58 2.58 0 0 0-.2-.41h.1a3.73 3.73 0 0 0 1.05.03z"/><path class="cls-1" d="M109.3 105.46a3.73 3.73 0 0 1-1 0h-.1a49.73 49.73 0 0 0-3.51-5.43c-4.59-6.23-9.82-12.72-9.41-20.71v-.13a2.82 2.82 0 0 0 0-.41.76.76 0 0 0 .7.08c.86 11.14 8.71 17.32 13.32 26.6zM108.35 105.84a4.39 4.39 0 0 1 .26.46 1.82 1.82 0 0 1-.54-.15.37.37 0 0 1 .08-.72 2.58 2.58 0 0 1 .2.41zM92.9 140.24a2.63 2.63 0 0 0 .28-.61c2.48.23 5.23 1 7.53.41 3-.82 2.41-4.41 4.9-5.36.18-.05.28.1.31.23.28 2.36-1.8 5.95-4.21 6.57-3.28.84-6.69-.44-10-.72a.63.63 0 0 1-.48-1 1.14 1.14 0 0 0 .35.82.67.67 0 0 0 .62.15 1.48 1.48 0 0 0 .7-.49zM102.23 44a9.05 9.05 0 0 1 1.69.64h-1.59a7.07 7.07 0 0 0-2-.46.42.42 0 0 1 .33-.46 1.21 1.21 0 0 1 .18-.05 8.84 8.84 0 0 1 1.39.33z"/><path class="cls-1" d="M102.33 44.63h-1.59a.52.52 0 0 1-.46-.44 7.07 7.07 0 0 1 2.05.44zM101.33 75.26a.83.83 0 0 1 0 .82c-.23-.23-.46-.44-.67-.67a.51.51 0 0 1-.1-.48c.1 0 .21 0 .31.05a.59.59 0 0 1 .46.28z"/><path class="cls-1" d="M95.87 77.57v-.28a.41.41 0 0 0-.64-.31.19.19 0 0 0 0-.15 6.27 6.27 0 0 1 5.38-1.83.51.51 0 0 0 .1.48c.21.23.44.44.67.67a.76.76 0 0 1-.46.36c-1.9.46-3.28.51-4.61 2.1a1.06 1.06 0 0 1-.36.26c-.03-.46-.06-.87-.08-1.3zM98.79 56.4l.64.46c0-.18 0-.39.08-.59a2.74 2.74 0 0 1 .28-.05l-.26-.16c0-.18.06-.38.08-.56-.25 0-.51.08-.79.1a18.24 18.24 0 0 1-2.08-1.84h1a16.61 16.61 0 0 0 2.49 1.82.75.75 0 0 1-.18 1.36 57.28 57.28 0 0 1-9.72 1.51c-.1-.26-.23-.52-.33-.77a.6.6 0 0 0-.26-.31.48.48 0 0 1 .33-.25 44.9 44.9 0 0 1 7.9-1.42 7.21 7.21 0 0 0 .82.7z"/><path class="cls-1" d="M99.79 56.22a2.74 2.74 0 0 0-.28.05.86.86 0 0 1 0-.21zM99.61 55.5c0 .18 0 .38-.08.56a6 6 0 0 1-.71-.46c.28-.02.54-.07.79-.1z"/><path class="cls-1" d="M99.53 56.06a.86.86 0 0 0 0 .21 7.13 7.13 0 0 1-.72.13 7.21 7.21 0 0 1-.87-.7 8.25 8.25 0 0 0 .9-.1 6 6 0 0 0 .69.46z"/><path class="cls-1" d="M99.51 56.27c0 .2-.05.41-.08.59l-.64-.46a7.13 7.13 0 0 0 .72-.13zM98.18 136.83a.25.25 0 0 1 .2.46 2.88 2.88 0 0 0-1.15 2c-.08.67-1.1.69-1 0a2.35 2.35 0 0 1 1.95-2.46zM97.69 53.76h-1c-.15-.16-.33-.31-.46-.44a1.38 1.38 0 0 1 .08-.2 2.5 2.5 0 0 1 .61 0c.31.2.54.43.77.64zM97 53.09a2.5 2.5 0 0 0-.61 0c0-.16.13-.29.18-.44z"/><path class="cls-1" d="M96.74 53.76h-.67c.08-.15.13-.3.21-.46.13.15.31.3.46.46z"/><path class="cls-1" d="M96.36 53.12a1.38 1.38 0 0 0-.08.2l-.21-.2zM94.46 135.27a3.7 3.7 0 0 0-1.1.61c-2.44-.3-5-1.76-7.18-3.43.33-.3 0-.71-.31-.76l-.74-.08a47.12 47.12 0 0 1-3.51-3.26c-.72-.71.3-1.66 1.08-1.08a49.2 49.2 0 0 0 6.66 4.73c2.15 1.18 4.51 2 6.56 3.31a.28.28 0 0 1-.08.51 1.26 1.26 0 0 1-.33.05.6.6 0 0 0-.13-.38.59.59 0 0 0-.71-.28.67.67 0 0 0-.21.06zM95.25 78.75v-1.74a.41.41 0 0 1 .64.31v.28c0 .43 0 .84.08 1.26a.76.76 0 0 1-.72-.11zM92.56 102.82c3.85.87 4 6 2.9 9.15-1.72 4.92-9.15 6.59-10.38 1.25a7 7 0 0 0 .43-.87l-.56-.16a.4.4 0 0 1 0-.2 1.13 1.13 0 0 1-.07.18 4.92 4.92 0 0 0-.59-.18 7.3 7.3 0 0 0 .15 1.1c-2.92 5.38-8-.26-6.66-3.46a4.2 4.2 0 0 0 1.36-.46c-2.11 2.18 2.3 9 5.25 2.48.31-.66 1.15-.23 1.23.34.64 4.92 6.54 4.74 8.64.87a8.75 8.75 0 0 0 1-5.2c-.33-2.57-1.69-3.46-3.74-4.62a.34.34 0 0 1-.13-.46.68.68 0 0 0 1.17.24z"/><path class="cls-1" d="M95.46 112c1.15-3.18 1-8.28-2.9-9.15a.38.38 0 0 0 .13-.26c0-.13 0-.25.08-.38 5.25 0 4.69 9.79 1.82 12.63-3.36 3.26-8.49 3.23-9.92-.94a7.14 7.14 0 0 0 .41-.65c1.23 5.31 8.66 3.64 10.38-1.25zM95.51 135.83a.71.71 0 0 1-.18.49 7.88 7.88 0 0 0-2 2.69c-.07.23-.13.44-.2.62a6.67 6.67 0 0 0-1-.08 5.72 5.72 0 0 1 2.48-3.61 2.8 2.8 0 0 0 .9-.11zM95.08 28.92l.38.15v.21a.36.36 0 0 1-.28.31 1 1 0 0 0-.28-.16l-.46-.74c.23.07.43.15.64.23z"/><path class="cls-1" d="M95.36 28.25a3 3 0 0 1 .1.82l-.38-.15a8.61 8.61 0 0 0-.29-.85 2.53 2.53 0 0 1 .57.18zM94.69 135.94a4.62 4.62 0 0 1-1.33-.06 3.7 3.7 0 0 1 1.1-.61 6.22 6.22 0 0 0 .92.18.6.6 0 0 1 .13.38 2.8 2.8 0 0 1-.82.11zM95.23 77v1.74a1 1 0 0 1-.39-.36 9 9 0 0 1 .24-1.15.25.25 0 0 1 .15-.23zM95.25 78.75a2.82 2.82 0 0 1 0 .41v-.44s-.02.03 0 .03z"/><path class="cls-1" d="M95.23 79.16v.13c-.08 1.3-.21 2.58-.39 3.92v.25a15.06 15.06 0 0 1 0-5.1 1 1 0 0 0 .39.36zM95.23 76.83a.2.2 0 0 1 0 .15.25.25 0 0 0-.15.21 9 9 0 0 0-.24 1.15.91.91 0 0 1 0-.92 5.13 5.13 0 0 1 .39-.59z"/><path class="cls-1" d="M95.23 76.83a5.13 5.13 0 0 0-.41.59.91.91 0 0 0 0 .92 15.06 15.06 0 0 0 0 5.1c-.82 6.21-.93 12.54-2 18.72a3.54 3.54 0 0 0-.7 0c.8-4.31.75-8.54 1.21-12.84C94 82.26 96 75 92.64 68.21a5.31 5.31 0 0 0 0-.69 18.27 18.27 0 0 1 2.59 9.31zM94.9 29.43a1 1 0 0 1 .28.16.29.29 0 0 1-.28-.16zM94.67 135.17a.59.59 0 0 1 .71.28 6.22 6.22 0 0 1-.92-.18.67.67 0 0 1 .21-.1zM95.08 28.92c-.21-.08-.41-.16-.64-.23a8.7 8.7 0 0 1-.55-.9 6.29 6.29 0 0 1 .9.28 8.61 8.61 0 0 1 .29.85zM95.36 28.25a2.53 2.53 0 0 0-.57-.18C92.72 22.33 83 6.54 77.82 2.59a.83.83 0 0 0-.15-.51c5.1 3.72 16.56 20.64 17.69 26.17zM94.44 28.69l.46.74c-3.82-1.74-8-3.23-11.51-2.92-1.23.13-1.41-1.13-1-1.92a11.42 11.42 0 0 0 .66 1.18c.18.28.77.2.72-.21v-.23a90 90 0 0 1 10.67 3.36z"/><path class="cls-1" d="M94.79 28.07a6.29 6.29 0 0 0-.9-.28c-2.79-4.61-5-9.59-8-14.12A68.29 68.29 0 0 0 79.52 5a9.06 9.06 0 0 0-1.67-1.46 2.15 2.15 0 0 1 0-.62.88.88 0 0 0 0-.36C83 6.54 92.72 22.33 94.79 28.07zM93.36 135.88a4.62 4.62 0 0 0 1.33.06 5.72 5.72 0 0 0-2.48 3.61h-.47a.57.57 0 0 0-.48.23 4.24 4.24 0 0 1 .81-2.46 7.17 7.17 0 0 1 1.29-1.44zM93.89 27.79a8.7 8.7 0 0 0 .55.9 90 90 0 0 0-10.7-3.36c-.07-.46-.15-.95-.23-1.41a1.3 1.3 0 0 1 .52.23c2.72 1.85 6.51 2.64 9.86 3.64zM92.64 68.21C96 75 94 82.26 93.28 89.39c-.46 4.3-.41 8.53-1.21 12.84a2.65 2.65 0 0 0-.43.08c-.13 0-.23.12-.23.25a.32.32 0 0 1 0-.18c1.34-10.3 3.82-22.5 1.13-32.78a8.67 8.67 0 0 0 .1-1.39z"/><path class="cls-1" d="M93.18 139.63a2.63 2.63 0 0 1-.28.61c-.31-.05-.59-.05-.85-.08a4.42 4.42 0 0 1 .13-.61 6.67 6.67 0 0 1 1 .08zM92.56 102.82a.68.68 0 0 1-1.15-.26c0-.13.1-.2.23-.25a2.65 2.65 0 0 1 .43-.08 3.54 3.54 0 0 1 .7 0c0 .13 0 .25-.08.38a.38.38 0 0 1-.13.21zM92.67 67.5a5.31 5.31 0 0 1 0 .69 8.26 8.26 0 0 0-.59-1.1 1.42 1.42 0 0 0 0-.28.31.31 0 0 1 .24.13c.12.17.24.35.35.56z"/><path class="cls-1" d="M92.67 67.5c-.11-.21-.23-.39-.36-.59a.31.31 0 0 0-.24-.13 6.32 6.32 0 0 0-.07-1.39c.1 0 .21.08.33.11a1.21 1.21 0 0 1 .18 0 12.51 12.51 0 0 1 .16 2zM92.05 67.09a8.26 8.26 0 0 1 .59 1.1 8.67 8.67 0 0 1-.13 1.39 17.54 17.54 0 0 0-.51-1.73 4.35 4.35 0 0 0 0-.48 1.3 1.3 0 0 0 .05-.28zM92.05 140.16c.26 0 .54 0 .85.08a1.48 1.48 0 0 1-.67.51.67.67 0 0 1-.62-.15 1.14 1.14 0 0 1-.35-.82.57.57 0 0 1 .48-.23h.44a4.42 4.42 0 0 0-.13.61z"/><path class="cls-1" d="M92.51 65.55a1.21 1.21 0 0 0-.18 0c-.12 0-.23-.08-.33-.11a7.11 7.11 0 0 0-.36-1.71 1.56 1.56 0 0 1 .38-.46 14.24 14.24 0 0 1 .49 2.28zM92 67.85a17.54 17.54 0 0 1 .51 1.75 15.93 15.93 0 0 1-.64 2.87c-1.36 4.43-3.23 10-7.74 12.07-.44.21-1.18.08-1.28-.51-.44-3.2-.82-6.41-1.28-9.61.23-.52.41-1 .59-1.57.69 3.62 1 7.41 1.53 11 4.49-1.57 7.8-11.41 8.31-16z"/><path class="cls-1" d="M91.64 63.68a1.13 1.13 0 0 0 .36 1.71 6.32 6.32 0 0 1 .07 1.39c-.2 0-.38.15-.3.36s.15.46.23.71c-.51 4.59-3.82 14.43-8.31 16-.53-3.54-.84-7.33-1.53-11a10.61 10.61 0 0 0 .38-1.25h-.67a1.6 1.6 0 0 0-.05-.21 1.6 1.6 0 0 1 0 .21h-.64c.08.51.18 1 .23 1.54-1.92 6.4-6.79 10.45-11.92 15-3.59 3.31-10.94 11.51-11.12 2.51.15-.15.33-.28.51-.44l-.59-.21v-.3c-.1.07-.18.15-.25.2l-.49-.2v.61C54.29 93 52.34 94.64 51.47 99a19 19 0 0 1-5.79-15c.36-.82.69-1.64 1-2.48-.28 3-.46 6.22.6 9.1.51 1.38 3 8.71 4.61 4.81 1.1-2.66 3.77-4.51 5.89-6.27a.76.76 0 0 1 1.29.51c.23 8.25 7.22.23 9.84-2.1 5.33-4.69 10.41-9.21 12.25-16.36a.74.74 0 0 1 1.41 0A78 78 0 0 1 84 79.7c-.51 3.3.13 3.76 1.87 1.41.52-.72 1-1.44 1.52-2.16a26 26 0 0 0 1.89-4c.85-2.31 2-5.08 2-7.59-.06-3.41-1.54-6-2.77-9.08-.29-.69.69-1.25 1.2-.92a.66.66 0 0 0 .51 1.08h.08a36.87 36.87 0 0 1 1.7 4.78 1.56 1.56 0 0 0-.36.46z"/><path class="cls-1" d="M92.07 66.78a1.42 1.42 0 0 1 0 .28 1.3 1.3 0 0 1 0 .28 4.35 4.35 0 0 1 0 .48c-.08-.25-.16-.48-.23-.71s.03-.33.23-.33zM91.64 63.68a7.11 7.11 0 0 1 .36 1.71 1.13 1.13 0 0 1-.36-1.71zM90.28 58.45h-.08a.66.66 0 0 1-.51-1.08.6.6 0 0 1 .26.31c.1.25.23.51.33.77z"/><path class="cls-5" d="M85.9 13.67c3 4.53 5.2 9.51 8 14.12-3.35-1-7.14-1.82-9.86-3.64a1.3 1.3 0 0 0-.52-.23c-.53-3-1.51-6-2.15-9a61.91 61.91 0 0 0-1.64-6.54c-.41-1.33-1.69-3.3-1.87-4.84A9.06 9.06 0 0 1 79.52 5a68.29 68.29 0 0 1 6.38 8.67z"/><path class="cls-1" d="M85.82 132.14l-.69-.56.74.08c.34.05.64.46.31.76z"/><path class="cls-1" d="M86.18 132.42c-2.44 2.13-6.74 1.26-9.72 1.08-5.84-.36-11.22 1.74-17 1.92 0-.31-.23-.54-.54-.54 4.61-.33 9-2.18 13.59-2.49 3.68 0 10.15.93 13.27-.28z"/><path class="cls-1" d="M85.13 131.58l.69.56c-3.12 1.21-9.59.28-13.27.28-4.62.31-9 2.16-13.59 2.49h-.05a3.66 3.66 0 0 0-.57.05.53.53 0 0 1 .41-.61c8.69-1.82 17.46-3.77 26.38-2.77zM85.51 112.33a7 7 0 0 1-.43.87c0-.31-.1-.64-.13-1z"/><path class="cls-1" d="M85.08 113.2a7.14 7.14 0 0 1-.41.65 2.88 2.88 0 0 1-.26-.8 7.13 7.13 0 0 0 .44-.92.24.24 0 0 1 .1 0c.05.43.05.76.13 1.07z"/><path class="cls-1" d="M84.92 112a.4.4 0 0 0 0 .2.24.24 0 0 0-.1 0 1.13 1.13 0 0 0 .1-.2z"/><path class="cls-1" d="M84.26 112a4.92 4.92 0 0 1 .59.18 7.13 7.13 0 0 1-.44.92 7.3 7.3 0 0 1-.15-1.1z"/><path class="cls-1" d="M84.41 113.07a2.88 2.88 0 0 0 .26.8c-3.41 5.07-8.79-.47-7.56-4.26a3.42 3.42 0 0 0 .64 0c-1.31 3.2 3.74 8.84 6.66 3.46zM83.74 25.33v.23c0 .41-.54.49-.72.21a11.42 11.42 0 0 1-.66-1.18 1.23 1.23 0 0 1 .46-.57 1 1 0 0 1 .66-.1c.11.46.19.95.26 1.41z"/><path class="cls-1" d="M82.85 24a1.23 1.23 0 0 0-.46.57c-1.36-2.82-1.69-6.26-2.34-9.28-.48-2.39-1.2-10.18-3.82-11.13L75.9 4c.13-.54.28-1.08.41-1.62.49.41 1 .77 1.54 1.16.18 1.54 1.46 3.51 1.87 4.84A61.91 61.91 0 0 1 81.36 15c.64 3 1.62 6 2.15 9a1 1 0 0 0-.66 0zM82.75 32.87a.29.29 0 0 0-.29-.21 3.8 3.8 0 0 0-.46.05 6.65 6.65 0 0 0-.43-4.1l.1-.08a.48.48 0 0 0-.13-.84.7.7 0 0 1 1.26 0c4.07 8.51-9.26 17.89-14.2 9.31a.26.26 0 0 0 .25 0 1.19 1.19 0 0 0 .34-.13c4.1 5.57 11.86 1.88 13.45-3.59l.06-.05a.27.27 0 0 0 0-.3s.07-.04.05-.06z"/><path class="cls-1" d="M82.75 32.92a.27.27 0 0 1 0 .3l-.06.05a1.57 1.57 0 0 0 .06-.35z"/><path class="cls-1" d="M81.85 33.25a2.18 2.18 0 0 0 .15-.54 3.8 3.8 0 0 1 .46-.05.29.29 0 0 1 .29.21v.05a1.57 1.57 0 0 1-.11.35 2.28 2.28 0 0 1-1 .67 3.73 3.73 0 0 0 .21-.69zM82.54 71.6a10.61 10.61 0 0 1-.38 1.25c-.11-.41-.18-.84-.29-1.25z"/><path class="cls-1" d="M81.62 33.94a2.28 2.28 0 0 0 1-.67c-1.59 5.47-9.35 9.16-13.45 3.59a2.56 2.56 0 0 0 .59-.23c2.53 2.39 5.71 3.16 8.84.9a8.64 8.64 0 0 0 3.02-3.59zM81.87 71.6c.11.41.18.84.29 1.25-.18.54-.36 1.05-.59 1.57 0-.44-.13-.85-.21-1.28a9.68 9.68 0 0 0 .41-1.54z"/><path class="cls-6" d="M81.57 28.61a6.65 6.65 0 0 1 .43 4.1c-.64.08-1.23.36-1.9.44a5.48 5.48 0 0 1-3.17-.72c1.59-1.26 3.12-2.56 4.64-3.82z"/><path class="cls-1" d="M82 32.71a2.18 2.18 0 0 1-.15.54 5.74 5.74 0 0 1-5.28-.56 2.7 2.7 0 0 1 .36-.26 5.48 5.48 0 0 0 3.17.72c.67-.08 1.26-.36 1.9-.44zM81.82 71.39a1.6 1.6 0 0 1 .05.21h-.1a1.6 1.6 0 0 0 .05-.21z"/><path class="cls-1" d="M81.85 33.25a3.73 3.73 0 0 1-.23.69 6.27 6.27 0 0 1-5.26-.94s-.07-.08-.1-.1a3.55 3.55 0 0 1 .31-.23 5.74 5.74 0 0 0 5.28.58zM81.54 27.69a.48.48 0 0 1 .13.84l-.1.08-.08-.2a.7.7 0 0 1 .05-.72zM81.13 71.6h.64a9.68 9.68 0 0 1-.41 1.54c-.05-.52-.15-1.03-.23-1.54zM81.52 93.31c.33 1.46-.47 3-1 4.33-.44 1-.93 2.64-2.06 2.92a.29.29 0 0 0-.1-.07 4.14 4.14 0 0 0-.59-.21c-.25-1.13.82-2.51 1.28-3.49a11.51 11.51 0 0 1 2-3.61.32.32 0 0 1 .47.13zM81.36 73.14c.08.43.16.84.21 1.28-3.21 7.89-10.31 13.71-16.79 19-4.11 3.36-6.64 2-7.13-2.25.21-.18.44-.36.67-.57.18 9 7.53.8 11.12-2.51 5.13-4.5 10-8.55 11.92-14.95z"/><path class="cls-1" d="M69.44 36.3a2.09 2.09 0 0 1-.25-.26.35.35 0 0 0-.11-.07 70.28 70.28 0 0 0 11.82-8.23.55.55 0 0 1 .64 0 .7.7 0 0 0-.05.72l.08.2c-1.52 1.26-3 2.56-4.64 3.82l-.16-.08a.39.39 0 0 0-.51.57 24.43 24.43 0 0 1-6.48 3.71 2.63 2.63 0 0 1-.34-.38z"/><path class="cls-7" d="M76.36 33a6.27 6.27 0 0 0 5.26.92 8.64 8.64 0 0 1-3 3.59c-3.13 2.26-6.31 1.49-8.84-.9a24.43 24.43 0 0 0 6.48-3.71s.05.1.1.1z"/><path class="cls-1" d="M79.57 108a5.19 5.19 0 0 0-.28-.67.73.73 0 0 1 .74 1.26 8.58 8.58 0 0 1-.9.56 1.47 1.47 0 0 1 .72-.49c-.08-.2-.18-.43-.28-.66z"/><path class="cls-1" d="M79.57 108c.1.23.2.46.28.66a1.47 1.47 0 0 0-.72.49 4.2 4.2 0 0 1-1.36.46 2.37 2.37 0 0 1 .79-1.08 4.21 4.21 0 0 0 1.01-.53z"/><path class="cls-1" d="M79.29 107.33a5.19 5.19 0 0 1 .28.67 2.87 2.87 0 0 0-1 .53 2.67 2.67 0 0 1-1 .18 3.91 3.91 0 0 1 1.49-1.28c.07-.02.15-.08.23-.1z"/><path class="cls-1" d="M79.57 108a4.21 4.21 0 0 1-1 .53 2.87 2.87 0 0 1 1-.53zM77.54 108.71a3.23 3.23 0 0 0-.43.9c-4.36-.41-4.59-10.89.61-9.33a.4.4 0 0 0 .39.31.67.67 0 0 0 .3-.08c.29.23 0 .72-.41.64-3.92-.79-3.48 8.2 1.06 6.23a3.91 3.91 0 0 0-1.49 1.28z"/><path class="cls-1" d="M78.41 100.56a.67.67 0 0 1-.3.08.4.4 0 0 1-.39-.31 4.14 4.14 0 0 1 .59.21.29.29 0 0 1 .1.02zM77.57 108.71a2.67 2.67 0 0 0 1-.18 2.37 2.37 0 0 0-.79 1.08 3.42 3.42 0 0 1-.64 0 3.23 3.23 0 0 1 .43-.9zM77.85 3a2.15 2.15 0 0 0 0 .62c-.51-.39-1-.75-1.54-1.16 0-.17.1-.38.15-.56s0 0 .06 0a4.62 4.62 0 0 1 1.3.77.88.88 0 0 1 .03.33z"/><path class="cls-1" d="M77.67 2.08a.83.83 0 0 1 .15.51 4.62 4.62 0 0 0-1.3-.77 1.37 1.37 0 0 1 .69-.05s.31.23.46.31z"/><path class="cls-1" d="M77.67 2.08c-.15-.1-.31-.21-.44-.28a.54.54 0 0 1 .44.28zM77.21 1.77a1.37 1.37 0 0 0-.69.05.12.12 0 0 0-.06 0c0-.1.06-.23.08-.33a2.17 2.17 0 0 1 .67.28zM76.93 32.43a2.7 2.7 0 0 0-.36.26 3.55 3.55 0 0 0-.31.23.39.39 0 0 1 .51-.57z"/><path class="cls-1" d="M75.18 3.13c0 .33.21.64.72.9-1.84 6.87-4 13.3-7.61 19.61a.47.47 0 0 1-.85-.13.39.39 0 0 0 0-.26c1.67-4.39 4.31-8.33 5.41-13 .74-3.21.69-7.36 3.08-9.79a.46.46 0 0 1 .77.44l-.16.57a1 1 0 0 0-.61-.08.59.59 0 0 0-.39.23s-.05.13 0 .18a.33.33 0 0 1 .11.1 5.15 5.15 0 0 0-.29.72.75.75 0 0 0-.15.43.1.1 0 0 0-.03.08z"/><path class="cls-1" d="M76.54 1.47c0 .1-.05.23-.08.33a1.38 1.38 0 0 0-.69-.13.66.66 0 0 1 .16-.28 1 1 0 0 1 .61.08zM76.52 1.82h-.06V1.8a.12.12 0 0 1 .06.02z"/><path class="cls-1" d="M76.46 1.8v.05a1.58 1.58 0 0 0-.56.26l-.25-.21a.85.85 0 0 1 .12-.23 1.38 1.38 0 0 1 .69.13z"/><path class="cls-1" d="M76.46 1.85c0 .18-.1.39-.15.56a2.4 2.4 0 0 1-.41-.3 1.58 1.58 0 0 1 .56-.26z"/><path class="cls-1" d="M75.9 2.11a2.4 2.4 0 0 0 .41.3C76.18 3 76 3.49 75.9 4c-.51-.26-.72-.57-.72-.9a.1.1 0 0 1 0-.08 1.57 1.57 0 0 1 .15-.43 1.47 1.47 0 0 1 .57-.48zM75.77 1.67a.85.85 0 0 0-.12.23.33.33 0 0 0-.11-.1c-.05-.05 0-.13 0-.18a.59.59 0 0 1 .39-.23.66.66 0 0 0-.16.28z"/><path class="cls-1" d="M75.65 1.9l.25.21a1.47 1.47 0 0 0-.54.51 5.15 5.15 0 0 1 .29-.72zM75.36 2.62a1.57 1.57 0 0 0-.15.43.75.75 0 0 1 .15-.43zM73.83 41.2c.53-.34 1 .41.64.84-2.39 2.8-6.49 5.18-10.33 4.77-.62-.08-5.41-1.49-5.62-1.31a30.23 30.23 0 0 1-2.79 2.13c-2.79 1.87-9.38 6.2-11.89 1.77-.31-.57.46-1.23.92-.72 3.33 3.62 10.89-2.49 13.35-4.68a.73.73 0 0 1 .85-.13c6.15 2.61 9.76.38 14.87-2.67zM69.78 36.63a2.56 2.56 0 0 1-.59.23.74.74 0 0 1-.26-.33 2.3 2.3 0 0 0 .51-.23 2.63 2.63 0 0 0 .34.33z"/><path class="cls-1" d="M68.93 36.53a.74.74 0 0 0 .26.33 1.19 1.19 0 0 1-.34.13.26.26 0 0 1-.25 0c-.06 0 0 0 0 0a1.47 1.47 0 0 1-.18-.28.21.21 0 0 1 0-.13.44.44 0 0 1 .18-.25c.18-.11.36-.18.54-.31a.35.35 0 0 1 .11.07 2.09 2.09 0 0 0 .25.26 2.3 2.3 0 0 1-.57.18z"/><path class="cls-1" d="M69.08 36c-.18.13-.36.2-.54.31a.44.44 0 0 0-.18.25.49.49 0 0 1 .72-.56zM68.39 36.66a1.47 1.47 0 0 0 .18.28.31.31 0 0 1-.18-.28zM54.75 116.33a7.07 7.07 0 0 0 .31-.72l-.64.08a1.75 1.75 0 0 1-.15-.31 1.62 1.62 0 0 1-.13.33l-.59.08a3.81 3.81 0 0 0 .31.56c-1.64 2.62-5.39.9-4-2.79a3.1 3.1 0 0 0 .43 0 .35.35 0 0 0 .34-.46 2.19 2.19 0 0 0-.23-.49.74.74 0 0 1 .33.8c-.21.92-.67 2.61.54 3.13s1.87-.46 2.25-1.39a.83.83 0 0 1 1.59 0c2.31 5.67 10.92 2.1 7.59-2.84a.68.68 0 0 1 .26-1c2-.9 4.51-3.2 3-5.67s-4.23-1.87-6.51-1c-.9.36-1.49-1.1-.65-1.54 3.05-1.59 7.08-1.36 8.62 2.13a4.85 4.85 0 0 1 0 3.74c-.18.41-3.12 3.85-3.33 3.28a5.34 5.34 0 0 1-2.84 7.05c-2.88 1.18-5.41-.05-7-2.36a2.56 2.56 0 0 0 .5-.61zM67.44 23.25a.39.39 0 0 1 0 .26.24.24 0 0 1 0-.26z"/><path class="cls-1" d="M54.57 25.25a.43.43 0 0 0-.07-.25 1 1 0 0 0-.18-.18s.08 0 .13-.05A34.54 34.54 0 0 1 67 22.87a.47.47 0 0 1 .48.36.24.24 0 0 0 0 .26.51.51 0 0 1-.48.41 66.1 66.1 0 0 0-12.3 1.84.45.45 0 0 1-.51-.18.29.29 0 0 0 .38-.31zM32.63 141.24c-.08-.13-.16-.24-.23-.36a2.35 2.35 0 0 1-.31-.77 5.3 5.3 0 0 1 3.79-2.28.52.52 0 0 1 .26 1c-7.46 2.59 2 1.61 4 1s4.1-1.41 6.2-2c3.9-1.11 8-2.54 12-2.9a.55.55 0 0 0 .57.51 5.62 5.62 0 0 0 .59 0 .54.54 0 0 1-.44.66c-5.82 1.16-11.51 3-17.2 4.77-3.15 1-6.77 2.26-10 .85a.63.63 0 0 1-.25-.26 2.12 2.12 0 0 0 .43.28c.36.19.8-.17.59-.5z"/><path class="cls-1" d="M59.5 135.45a5.62 5.62 0 0 1-.59 0 .55.55 0 0 1-.57-.51 3.66 3.66 0 0 1 .57-.05H59c.27.02.45.25.5.56zM58.83 90.2c-.18.16-.36.29-.51.44a4.79 4.79 0 0 1 0-.67zM58.29 90a4.79 4.79 0 0 0 0 .67c-.23.21-.46.39-.67.57a5.37 5.37 0 0 1-.08-.93 5.74 5.74 0 0 0 .47-.41 1.18 1.18 0 0 0 .28.1z"/><path class="cls-1" d="M58.29 89.67V90a1.18 1.18 0 0 1-.25-.1c.07-.08.15-.16.25-.23zM58 89.87a5.74 5.74 0 0 1-.47.41v-.61z"/><path class="cls-1" d="M57.57 90.28a5.37 5.37 0 0 0 .08.93c-2.54 2.2-4.51 4.38-5.43 8a.77.77 0 0 1-1.29.33A20.85 20.85 0 0 1 45 85.59c.23-.51.46-1 .69-1.56A19 19 0 0 0 51.47 99c.87-4.36 2.82-6 6.1-8.72zM54.42 115.69l.64-.08a7.07 7.07 0 0 1-.31.72 2.43 2.43 0 0 1-.33-.64z"/><path class="cls-1" d="M54.42 115.69a2.43 2.43 0 0 0 .33.64 2.56 2.56 0 0 1-.46.71 3.79 3.79 0 0 1-.43-.69 4.24 4.24 0 0 0 .28-.64zM54.11 25.12a.39.39 0 0 1 .21-.28 1 1 0 0 1 .18.18.43.43 0 0 1 .07.23.29.29 0 0 1-.38.31.46.46 0 0 1-.08-.44zM54.27 115.38a1.75 1.75 0 0 0 .15.31h-.28a1.62 1.62 0 0 0 .13-.31z"/><path class="cls-1" d="M36 6.18a.19.19 0 0 0-.11.05 1.23 1.23 0 0 0-.35.47.76.76 0 0 1-.08-.11c-.23-.36-1.57 5.87-1.57 6.36a54 54 0 0 0 .08 5.69c.26 4 .9 7.89 1.1 11.87a.62.62 0 0 1 0 .2c-.28.1-.57.23-.85.36a.55.55 0 0 1-.33-.38c-1.67-8-3.18-18.61.66-26.22a.66.66 0 0 1 1.13 0c5.23 8 12.41 13.32 18.69 20.35a.39.39 0 0 0-.21.28C47.3 19.36 41.24 13.9 36.22 6.47v-.11a.2.2 0 0 0-.22-.18z"/><path class="cls-1" d="M54.19 25.56h-.1c-6.92-4.23-13.31-11-17.89-17.81V6.52c5 7.43 11.08 12.89 17.94 18.63a.46.46 0 0 0 .05.41zM53.55 115.79l.59-.08a4.24 4.24 0 0 1-.28.64 3.81 3.81 0 0 1-.31-.56z"/><path class="cls-1" d="M53.86 116.35a3.79 3.79 0 0 0 .43.69c-2.28 3-6.81.34-5.28-3.66a2.63 2.63 0 0 0 .77.18c-1.31 3.69 2.44 5.44 4.08 2.79z"/><path class="cls-1" d="M49.4 112.66a.69.69 0 0 1 1 0 2.19 2.19 0 0 1 .23.49.35.35 0 0 1-.34.46 3.1 3.1 0 0 1-.43 0 2.63 2.63 0 0 1-.77-.18 2.5 2.5 0 0 1 .23-.54c0-.08.08-.13.1-.18z"/><path class="cls-1" d="M50.35 112.63a.69.69 0 0 0-1 0c-5.82-4.54-10-19.89-11.66-26.84a1.79 1.79 0 0 1 .31-.25c0 .05 0 .07.12.12a127.73 127.73 0 0 0 4.62 14.36 40.32 40.32 0 0 0 4.74 9.15c.94 1.26 2.2 2.18 2.87 3.46z"/><path class="cls-1" d="M49.37 112.66s-.07.1-.1.18a2.5 2.5 0 0 0-.23.54c-3.28-1.18-5.56-7.33-6.64-10.08a5.81 5.81 0 0 0-.48-2.25.35.35 0 0 0-.44-.21 105.24 105.24 0 0 1-4.13-14.71l.39-.31c1.61 6.95 5.81 22.3 11.63 26.84zM45.14 81.11c.29-.8 1.64-.72 1.54.2v.21a6.62 6.62 0 0 1-.74-.11v-.1.1c-.26 0-.52-.07-.77-.1C45 82.16 45 83 45 83.8c-.72 1.54-1.56 3-2.18 4.64a17.65 17.65 0 0 1-4.33-3.39.07.07 0 0 0 0-.07.29.29 0 0 0-.23-.23 18.41 18.41 0 0 1-4.28-15.1c1.07-.67 1.69-1.57 1-2.64a36.35 36.35 0 0 1 3.2-4.64C37 66.47 33.86 69 34.53 74c.51 3.82 1.82 7.84 4.66 10.58 3.7 3.57 4.72.14 5.95-3.47z"/><path class="cls-1" d="M45.91 81.41a6.62 6.62 0 0 0 .74.11c-.28.84-.61 1.66-1 2.48a23.91 23.91 0 0 1 .26-2.59zM45.32 39.32a.62.62 0 0 1 1.21.19c-.31 11.27-17 5.61-13.61-1.95a.51.51 0 0 0 .25.33c-.87 7.74 11.38 10.79 12.61 3a.79.79 0 0 0-.2-1.54zM45.91 81.31v0z"/><path class="cls-1" d="M45.78 40.86a.26.26 0 0 1-.2 0 4.61 4.61 0 0 1-.52 0 1.76 1.76 0 0 0 .13-.77 2.13 2.13 0 0 0 .08-.61.53.53 0 0 1 0-.19h.26a.79.79 0 0 1 .25 1.57zM45.89 81.41a23.91 23.91 0 0 0-.21 2.59c-.23.54-.46 1-.69 1.56a13.36 13.36 0 0 1 0-1.79 15.64 15.64 0 0 0 .9-2.36z"/><path class="cls-1" d="M45.12 81.31c.25 0 .51.08.77.1A15.64 15.64 0 0 1 45 83.8c0-.8 0-1.64.12-2.49zM45.58 40.91a.26.26 0 0 0 .2 0c-1.23 7.82-13.48 4.77-12.61-3l.44.23c.23 1.46.28 2.87 1.36 4.1a7.34 7.34 0 0 0 3.89 2.39 5.72 5.72 0 0 0 2.8 0 3 3 0 0 0 2.87-1.87.23.23 0 0 0 0-.26 3.83 3.83 0 0 0 .56-1.56 4.61 4.61 0 0 0 .49-.03zM41.55 101.15c.24.64.49 1.31.75 1.95 0 .05.05.13.07.2 0 3.62-3.92 6.1-6.3 8.82-8.38 9.62.92 16 9.36 19.17.51.19.48 1.11-.16 1.06h-.62a.81.81 0 0 0-.43-.46 5.76 5.76 0 0 0-2.72-.13c-5.07-1.49-9.5-4.87-10.5-10.41-1.57-9.35 10.5-12.15 10.22-20.2a.29.29 0 0 1 .23-.31c.03.16.08.21.1.31z"/><path class="cls-1" d="M45.19 40.12a1.76 1.76 0 0 1-.13.77 24.83 24.83 0 0 1-4.92-.51v-.57c0-.1-.15-.18-.2-.1a2.13 2.13 0 0 0-.36.56 22.58 22.58 0 0 1-6-2.15c0-.18-.08-.38-.1-.56a.32.32 0 0 0-.57-.08v.08c-.18-.47.23-1.11.77-.88a32.56 32.56 0 0 0 11.63 2.64.53.53 0 0 0 0 .19 2.13 2.13 0 0 1-.12.61zM45 83.8a13.36 13.36 0 0 0 0 1.79c-.51 1.08-1 2.15-1.49 3.26a.81.81 0 0 1-1.1.31 21.45 21.45 0 0 1-4.26-3.44 1.94 1.94 0 0 0 0-.2l.29-.23a.29.29 0 0 0 .1-.21 17.65 17.65 0 0 0 4.33 3.39c.56-1.65 1.4-3.13 2.13-4.67z"/><path class="cls-6" d="M45.06 40.89a3.83 3.83 0 0 1-.56 1.56.17.17 0 0 0-.23-.05c-1.08.6-2.27 1.6-3.38.54a3.69 3.69 0 0 1-.75-2.56 24.83 24.83 0 0 0 4.92.51z"/><path class="cls-1" d="M31.64 140.75a.67.67 0 0 0 0 .72c-4.93-3.28 4.33-9 9.86-9.79a19.18 19.18 0 0 0 3.15.59.58.58 0 0 1-.43.74c-2.54.72-13.25 2.82-12.15 7.05a3.76 3.76 0 0 0-.43.64zM44.5 42.45a.23.23 0 0 1 0 .26 3 3 0 0 1-2.87 1.87 4.13 4.13 0 0 0 2.82-2.13s.05-.02.05 0z"/><path class="cls-1" d="M39.86 40.32a1 1 0 0 0 .28.06 3.69 3.69 0 0 0 .75 2.56c1.07 1 2.3.1 3.36-.54a.17.17 0 0 1 .23.05 4.13 4.13 0 0 1-2.82 2.13 2.1 2.1 0 0 1-1.39-.67 3.08 3.08 0 0 1-.69-3.64 1.11 1.11 0 0 0 .28.05zM44.22 131.81a.81.81 0 0 1 .43.46 19.18 19.18 0 0 1-3.15-.59 5.76 5.76 0 0 1 2.72.13zM35.71 7c.15.23.31.46.49.69.28 7.05 3.3 13.58 7.71 19.22a.73.73 0 0 1-.66 1.16l.3-.15a.26.26 0 0 0-.2-.47c-.18.08-.39.13-.57.21a41.5 41.5 0 0 1-6.25-11.84c-.74-2.08-2.69-6.9-1-9.15a1.94 1.94 0 0 0 .18.33z"/><path class="cls-1" d="M43 27.92c0-.07-.11-.12-.16-.2.18-.08.39-.13.57-.21a.26.26 0 0 1 .2.47l-.3.15a.4.4 0 0 1-.31-.21z"/><path class="cls-1" d="M43 27.92a.4.4 0 0 0 .29.18c-7.35 3.77-15.14 5.9-20.58 12.56-3.87 4.82-7.64 10.15-9.71 16.07-1.64 4.74 4.07-.59 6.3-1.59.41-.18 1.08.26.72.72.13-.18-3.92 4.84-2.25 4.71 1.23-.12 2.48-.28 3.71-.43a64.94 64.94 0 0 1 9.46 0c.39 0 .59.57.21.75-4.36 2.1 2.79 1 3.1.92a19.28 19.28 0 0 1 4.23-.23.17.17 0 0 1 .18.13.3.3 0 0 0-.16 0 1.12 1.12 0 0 0-.36.13c-3.33.13-7 1.21-10.2.85a5.55 5.55 0 0 1 3-2.13c-2.48 0-5.12-.31-7.56-.18s-4.95 1.08-7.54.51c.95-1.87 2.49-3.41 3.72-5.28-3.07 1.23-5.56 3.1-8.36 4.95 1.9-7.36 6.31-14.46 11.13-20.28 6.13-7.34 12.38-8.72 20.67-12.36z"/><path class="cls-1" d="M42.94 27.89c-8.25 3.64-14.5 5-20.63 12.35-4.8 5.85-9.21 12.95-11.11 20.31 2.8-1.85 5.29-3.72 8.36-4.95-1.23 1.87-2.77 3.41-3.72 5.28 2.59.57 5-.36 7.54-.51s5.08.18 7.56.18a5.55 5.55 0 0 0-3 2.13c3.21.36 6.87-.72 10.2-.85a2.27 2.27 0 0 0-.71.33 48.29 48.29 0 0 1-9.46.9.43.43 0 0 1-.31-.72c2.62-2.54.24-1.67-2.4-1.59-3.18 0-6.18.87-9.39.59a.51.51 0 0 1-.41-.74c.75-1.23 4.77-5.23.93-2.82-1.64 1-3.26 2.12-4.87 3.23a.56.56 0 0 1-.82-.62C13.13 52 17.92 42.91 24.64 37a39.19 39.19 0 0 1 9.53-6 .65.65 0 0 0 .85-.36c2.51-1.15 5.12-2.1 7.76-3 .05.13.11.18.16.25zM42.37 103.3c0-.07 0-.15-.07-.2-.26-.64-.51-1.31-.75-1.95 0-.1-.07-.2-.1-.31a.35.35 0 0 1 .44.21 5.81 5.81 0 0 1 .48 2.25z"/><path class="cls-7" d="M41.66 44.58a5.72 5.72 0 0 1-2.8 0A7.34 7.34 0 0 1 35 42.22c-1.08-1.23-1.13-2.64-1.36-4.1a22.58 22.58 0 0 0 6 2.15 3.08 3.08 0 0 0 .69 3.64 2.1 2.1 0 0 0 1.33.67z"/><path class="cls-1" d="M39.86 40.32a1.11 1.11 0 0 1-.28 0 2.13 2.13 0 0 1 .36-.56c.05-.08.2 0 .2.1v.57a1 1 0 0 1-.28-.11zM38.55 62a.17.17 0 0 0 .11-.25.29.29 0 0 1 .25.38 3 3 0 0 0-.13.39.33.33 0 0 1-.64-.13l.31-.3s.08-.09.1-.09z"/><path class="cls-1" d="M38.14 61.83a1.12 1.12 0 0 1 .36-.13.3.3 0 0 1 .16 0 .17.17 0 0 1-.11.25l-.1.06c-.33 0-.69.1-1 .12a2.27 2.27 0 0 1 .69-.3zM38 85.08a.88.88 0 0 0-.05-.15.7.7 0 0 0-.1-.16 2 2 0 0 1 .23 0 .18.18 0 0 1 .13 0 1.24 1.24 0 0 0 .23.23.07.07 0 0 1 0 .07.29.29 0 0 1-.1.21l-.29.23c.02-.15-.05-.3-.05-.43zM34.76 66.75A7.9 7.9 0 0 0 33.58 68c.75-2.18 2.18-4.74 3.82-5.82.33 0 .69-.1 1-.12l-.31.3A36.35 36.35 0 0 0 34.94 67z"/><path class="cls-1" d="M38.45 85a1.24 1.24 0 0 1-.23-.23.29.29 0 0 1 .23.23zM38.2 84.75a.18.18 0 0 0-.13 0 2 2 0 0 0-.23 0c-.1-.2-.41-.18-.57 0A19.33 19.33 0 0 1 33 70.42a1.54 1.54 0 0 1 0-.31 4.88 4.88 0 0 0 .88-.46 18.41 18.41 0 0 0 4.32 15.1zM38.09 85.49a1.94 1.94 0 0 1 0 .2c-.07 0-.1-.07-.12-.12z"/><path class="cls-1" d="M38 85.08c0 .13.08.28.1.41l-.07.08a2.9 2.9 0 0 1-.34-.36z"/><path class="cls-1" d="M37.68 85.21a2.9 2.9 0 0 0 .34.36 1.79 1.79 0 0 0-.31.25c-.05-.2-.1-.41-.13-.59zM38 85.08l-.31.13-.15-.16s-.05 0-.05-.08l.36-.18a.7.7 0 0 1 .1.16.88.88 0 0 1 .05.13zM37.27 84.72c.16-.13.47-.15.57 0l-.36.18c-.08-.02-.16-.1-.21-.18z"/><path class="cls-1" d="M37.53 85.05l.15.16h-.1a1 1 0 0 0-.05-.16zM37.58 85.23c0 .18.08.39.13.59l-.39.31a5.54 5.54 0 0 1-.12-.69c.12-.08.25-.13.38-.21zM37.53 85.05a1 1 0 0 1 0 .18c-.13.08-.26.13-.38.21 0-.1-.06-.21-.08-.31l.33-.18.05.08z"/><path class="cls-1" d="M37.27 84.72c0 .08.13.16.18.23l-.33.18a.39.39 0 0 1 .15-.41zM37.2 85.44a5.54 5.54 0 0 0 .12.69 19.7 19.7 0 0 0-2.51 2.72.81.81 0 0 1-1.07.28c-6.29-2.69-10.21 5.74-11.28 10.05-.18.79-1.18.64-1.44 0-3.31-8-13-5.62-19.15-3a14.43 14.43 0 0 0 2-1.44c5.77-2.51 14.46-3 17.38 3.08-.07.31-.15.62-.23.9l.62-.08c0 .08.07.18.1.28a1.67 1.67 0 0 1 .08-.3l.59-.08c-.13-.28-.26-.54-.39-.8 1.49-5.05 6.67-12.51 12.1-9.35a7.6 7.6 0 0 1 3.08-2.95z"/><path class="cls-1" d="M37.12 85.13c0 .1.05.21.08.31a7.6 7.6 0 0 0-3.08 3c-5.43-3.16-10.61 4.3-12.1 9.35a6.25 6.25 0 0 0-.51-.84c1.23-3.72 3.61-8 7.2-9.36 1.41-.56 3-1 4.46-.41.31.13 2.54-1.31 3.95-2.05z"/><path class="cls-2" d="M37.27 84.72a.39.39 0 0 0-.15.41c-1.41.74-3.64 2.18-3.95 2.05-1.48-.64-3.05-.15-4.46.41-3.59 1.36-6 5.64-7.2 9.36-3.43-5.21-10.72-5.64-16.43-3.26 6.18-6.18 9.1-17.61 11.58-24.94a.21.21 0 0 0 0-.13c2.64 2.44 8.79 2.64 12 2.62A13.72 13.72 0 0 0 33 70.11a1.54 1.54 0 0 0 0 .31 19.33 19.33 0 0 0 4.27 14.3z"/><path class="cls-5" d="M36.53 15.85a41.5 41.5 0 0 0 6.25 11.84c-2.64.92-5.25 1.87-7.76 3a.62.62 0 0 0 0-.2c-.2-4-.84-7.9-1.1-11.87a54 54 0 0 1-.06-5.62c0-.49 1.34-6.72 1.57-6.36a.76.76 0 0 0 .08.11c-1.67 2.25.28 7.02 1.02 9.1z"/><path class="cls-1" d="M35.71 7a1.94 1.94 0 0 1-.2-.33 1.23 1.23 0 0 1 .35-.47.19.19 0 0 1 .14-.02 3.28 3.28 0 0 0 .2.31v1.23c-.2-.23-.34-.46-.49-.72z"/><path class="cls-1" d="M36.17 6.36v.13a3.28 3.28 0 0 1-.2-.31.2.2 0 0 1 .2.18zM34.17 31.07c.28-.13.57-.26.85-.36a.65.65 0 0 1-.85.36zM34.94 67c.67 1.07.05 2-1 2.64 0-.33.12-.69.2-1a.06.06 0 0 0 0-.05 2.76 2.76 0 0 0 .51-1.13 4.65 4.65 0 0 1 .29-.46z"/><path class="cls-1" d="M34.94 67a4.65 4.65 0 0 0-.26.41 4.72 4.72 0 0 0 .08-.67zM34.74 66.75a4.72 4.72 0 0 1-.08.67 9.6 9.6 0 0 0-.51 1.13.06.06 0 0 1 0 .05 2.9 2.9 0 0 1-.95.85 12.19 12.19 0 0 1 .39-1.41 7.9 7.9 0 0 1 1.15-1.29z"/><path class="cls-1" d="M34.15 68.57a9.6 9.6 0 0 1 .51-1.13 2.76 2.76 0 0 1-.51 1.13zM34.12 68.62c-.08.34-.15.7-.2 1a4.88 4.88 0 0 1-.88.46 3.16 3.16 0 0 1 .13-.64 2.9 2.9 0 0 0 .95-.82zM33.17 37.89a.51.51 0 0 1-.25-.33v-.08a.32.32 0 0 1 .57.08c0 .18.07.38.1.56z"/><path class="cls-1" d="M33.17 69.47a3.16 3.16 0 0 0-.13.64 13.72 13.72 0 0 1-4.35 1.13c-3.21 0-9.36-.18-12-2.62a.54.54 0 0 0-.43-.49c-.11-.18 0-.36.23-.38 3-.39 6.27 1.43 9.28 1.74a15.51 15.51 0 0 0 5.92-.1 3.67 3.67 0 0 0 1.87-1.31 12.19 12.19 0 0 0-.39 1.39zM31.64 140.75a3.76 3.76 0 0 1 .43-.64 2.35 2.35 0 0 0 .31.77 1.6 1.6 0 0 0-.1.23.78.78 0 0 0 .35.15c.21.33-.23.69-.56.51a2.12 2.12 0 0 1-.43-.28.67.67 0 0 1 0-.74z"/><path class="cls-1" d="M32.63 141.24a.78.78 0 0 1-.35-.15 1.6 1.6 0 0 1 .1-.23c.07.12.15.23.23.36l.02.02zM22 97.79c.13.26.26.52.39.8l-.59.08c.07-.29.2-.57.2-.88z"/><path class="cls-1" d="M22 97.79c-.07.31-.15.59-.2.88h-.18a5.12 5.12 0 0 0-.39-.82c.08-.31.18-.62.26-.92a6.25 6.25 0 0 1 .51.86zM21.82 98.67a1.67 1.67 0 0 0-.08.3c0-.1-.08-.2-.1-.28z"/><path class="cls-1" d="M21.64 98.69l-.62.08c.08-.28.16-.59.23-.9a5.12 5.12 0 0 1 .39.82z"/><path class="cls-1" d="M21.51 97c-.08.3-.18.61-.26.92-2.92-6.08-11.61-5.59-17.38-3.08a12.28 12.28 0 0 0 1.21-1.1c5.71-2.43 13-2 16.43 3.26zM1 96.21a.32.32 0 0 0 .44.2l.31-.13c-.29.18-.59.33-.9.49s-.67-.16-.46-.44c3.38-4.56 6.87-8.66 9.28-13.86 2.15-4.67 3.84-9.51 6.05-14.13a.44.44 0 0 1 .54-.23v.08a4 4 0 0 0 .41.41.21.21 0 0 1 0 .13c-2.48 7.33-5.4 18.76-11.58 24.94a14.6 14.6 0 0 0-2.95 1.57c-.36.23-.69.48-1 .74a.24.24 0 0 0-.14.23z"/><path class="cls-1" d="M16.69 68.6a4 4 0 0 1-.41-.41s-.05 0 0-.08a.54.54 0 0 1 .41.49zM3.87 94.79a14.43 14.43 0 0 1-2 1.44.19.19 0 0 0-.12 0l-.31.13a.32.32 0 0 1-.44-.2c.39-.31.77-.62 1.13-.95a14.6 14.6 0 0 1 3-1.57 12.28 12.28 0 0 1-1.26 1.15z"/><path class="cls-1" d="M2.13 95.26c-.36.33-.74.64-1.13.95a.24.24 0 0 1 .11-.21c.33-.26.66-.51 1.02-.74z"/></g></g></svg>