<svg xmlns="http://www.w3.org/2000/svg" viewBox="0 0 123.11 129.34"><defs><style>.cls-1{fill:#1d3033;stroke:#1d3033;stroke-linecap:round;stroke-linejoin:round;stroke-width:.6px}.cls-2{fill:#fff}.cls-3{fill:#c2bcca}.cls-4{fill:#493d58}.cls-6{fill:#515151}.cls-7{fill:none}</style></defs><g id="レイヤー_2" data-name="レイヤー 2"><g id="レイヤー_3" data-name="レイヤー 3"><path class="cls-1" d="M120 65.41c1.38 1 2.93 3.07 2.79 4.9-.42 5-6.19 4.31-9.26 2.06.19-.07.35-.16.54-.25s.16-.1.18-.17c1.88.85 4.88 2.18 6.38.92 3.66-2.47-.49-7.84-3.66-8.09.45-11.12-11.18-3-10.83 2a2.15 2.15 0 0 0-.56.07c-1.71-3.68 8.58-12.66 11.6-6a7.06 7.06 0 0 1 .52 3.19 21 21 0 0 0 2.3 1.37z"/><path class="cls-1" d="M114.05 71.13c2 .52 7.65 3.4 7.32-.82a5.59 5.59 0 0 0-4.57-4.85.71.71 0 0 1-.52-.68c0-1.48 0-4.48-2-4.81a5 5 0 0 0-3.54 1.1 10.19 10.19 0 0 0-3.14 3.33 16.84 16.84 0 0 0-.82 2.35 2.29 2.29 0 0 0-.64 0c-.35-5 11.28-13.09 10.83-2 3.17.25 7.32 5.62 3.66 8.09-1.5 1.26-4.5-.07-6.38-.92a.59.59 0 0 0-.2-.79z"/><path class="cls-2" d="M121.37 70.31c.33 4.22-5.3 1.34-7.32.82a.46.46 0 0 0-.23-.07h-.09a.82.82 0 0 0-.61.21C99.28 75.7 84.89 79.59 72.27 87a.37.37 0 0 0-.07.56 6.26 6.26 0 0 0-1 1.76 22 22 0 0 1-2.34 3.82c-1 1.2-2.88 1.88-3.54-.11-.38-1.18.35-2.42.63-3.59a1.09 1.09 0 0 0 .33 0 .65.65 0 0 0 .17-1.17 3.16 3.16 0 0 0-.52-.26c-.1-.14-.26-.26-.4-.17-1.1-.42-2.35-.56-3.43-.91-2.62-.84-1.68-2.84.5-2.77a13.49 13.49 0 0 0 2 0c2.72-.44 4.74-1.64 7.11-3a75.51 75.51 0 0 1 13-5.79.69.69 0 0 0 .42-.33l.05.07a2.88 2.88 0 0 0 2.53 1.48 2 2 0 0 0 1.65-1.34c2.6 1.41 5.65-1.26 6.91-3.65a2.65 2.65 0 0 0 .19-.45 14.48 14.48 0 0 0 4-1c2.21-.76 4.83-1.44 6.71-2.82a.23.23 0 0 0-.12-.44h-.16a16.84 16.84 0 0 1 .82-2.35 10.19 10.19 0 0 1 3.14-3.33 5 5 0 0 1 3.54-1.1c2 .33 2 3.33 2 4.81a.71.71 0 0 0 .52.68 5.59 5.59 0 0 1 4.46 4.71z"/><path class="cls-1" d="M113.68 71.69c-.21.1-.45.19-.66.28a.49.49 0 0 1 .1-.72l.53-.17a.5.5 0 0 1 .17 0 .46.46 0 0 1 .23.07.59.59 0 0 1 .21.82z"/><path class="cls-1" d="M114.26 72c0 .07-.09.12-.18.17s-.35.18-.54.25a3.64 3.64 0 0 1-.42-.3.94.94 0 0 1-.1-.1c.21-.09.45-.18.66-.28zM113.82 71.06a.5.5 0 0 0-.17 0l-.53.17a.82.82 0 0 1 .61-.21z"/><path class="cls-1" d="M113.12 72.07a3.64 3.64 0 0 0 .42.3c-6.17 3.15-13.13 4.67-19.72 6.73-5.32 1.64-10.27 4.18-15.38 6.31a3.22 3.22 0 0 1-.19-.33.48.48 0 0 0-.87.12 2.4 2.4 0 0 0-.09.7c-1.31.54-2.62 1-4 1.48a.33.33 0 0 0-.35-.23 1.64 1.64 0 0 0-.35.09c5.58-2.44 11.16-5.61 17-7.53 7.83-2.6 15.85-4.52 23.44-7.74a.94.94 0 0 0 .09.1z"/><path class="cls-1" d="M72.6 87.24a1.52 1.52 0 0 0-.4.28.37.37 0 0 1 .07-.56c12.62-7.37 27-11.26 40.85-15.71a.49.49 0 0 0-.1.72c-7.59 3.22-15.61 5.14-23.44 7.74-5.82 1.92-11.4 5.09-16.98 7.53zM106.62 67.07a1.62 1.62 0 0 0 .17-.32h.21a.23.23 0 0 1 .12.44c-1.88 1.38-4.5 2.06-6.71 2.82a14.48 14.48 0 0 1-4 1 3.81 3.81 0 0 0 .23-.54c2.77-.51 6.31-2.25 9.29-3.21a.31.31 0 0 0 .09.12.28.28 0 0 0 .45-.05.74.74 0 0 0 .14-.28s.01.05.01.02z"/><path class="cls-1" d="M106.15 66.75a2.29 2.29 0 0 1 .64 0 1.62 1.62 0 0 1-.17.32 1.27 1.27 0 0 0-.38.12 1.58 1.58 0 0 1-.09-.44z"/><path class="cls-1" d="M106.22 67.22a1.27 1.27 0 0 1 .38-.12.74.74 0 0 1-.14.28.28.28 0 0 1-.45.05.31.31 0 0 1-.09-.12.69.69 0 0 1 .3-.09z"/><path class="cls-1" d="M106.22 67.22a.69.69 0 0 0-.3.09 1 1 0 0 1-.33-.49 2.15 2.15 0 0 1 .56-.07 1.58 1.58 0 0 0 .07.47z"/><path class="cls-1" d="M105.59 66.82a1 1 0 0 0 .33.49c-3 1-6.52 2.7-9.29 3.21a6.08 6.08 0 0 0 .19-.68 45.22 45.22 0 0 0 4.62-1.5 20.64 20.64 0 0 1 4.13-1.52z"/><path class="cls-1" d="M96.35 67.31a3 3 0 0 1 .47 2.53c-.23 0-.47.12-.7.19.51-1.92-.4-3.59-4.22-3a4.09 4.09 0 0 0 0-.7c1.22-.78 3.7.04 4.45.98z"/><path class="cls-1" d="M96.82 69.84a6.08 6.08 0 0 1-.19.68l-.75.12a4.07 4.07 0 0 0 .24-.61c.23-.03.47-.14.7-.19z"/><path class="cls-1" d="M96.63 70.52a3.81 3.81 0 0 1-.23.54 4.09 4.09 0 0 1-.7 0 2.53 2.53 0 0 0 .18-.42z"/><path class="cls-1" d="M96.4 71.06a2.65 2.65 0 0 1-.19.45C95 73.9 91.9 76.57 89.3 75.16a3.11 3.11 0 0 0 .23-.75c2.09 1.25 5-1 6.15-3.35a4.09 4.09 0 0 0 .72 0zM91.9 67c3.82-.54 4.73 1.13 4.22 3l-.75.21a1.89 1.89 0 0 0-.12-2c-.94-.93-2.44-.16-3.42-.65.02-.2.07-.39.07-.56zM95.37 70.24l.75-.21a4.07 4.07 0 0 1-.24.61h-.68c.05-.12.12-.26.17-.4z"/><path class="cls-1" d="M95.2 70.66h.68a2.53 2.53 0 0 1-.18.42 2.38 2.38 0 0 1-.59-.07.07.07 0 0 1-.07 0 2.79 2.79 0 0 1 .16-.35z"/><path class="cls-1" d="M88.64 74.69a3.09 3.09 0 0 0 .66.47 2 2 0 0 1-1.65 1.34 2.88 2.88 0 0 1-2.53-1.5l-.05-.07a.73.73 0 0 0-.51-1.08c-.63-1.94-.16-4.36 1.85-5.16a.66.66 0 0 0 .61-.12.41.41 0 0 1 .22.59c-1 1.39-2 2.72-1.06 4.48.26.47.68 1.1 1.24 1.22s.61-.94.66-1.22a.78.78 0 0 1 1.31-.35c1.78 1.92 4.64-.61 5.58-2.28l.05-.07a.07.07 0 0 0 .07 0 2.38 2.38 0 0 0 .59.07c-1.18 2.35-4.06 4.6-6.15 3.35 0-.11 0-.25.07-.37-.14 0-.3.07-.44.12a1.88 1.88 0 0 1-.33-.31 3.15 3.15 0 0 1-.09.42c-.17 0-.31.07-.45.12a1.64 1.64 0 0 0 .33.28z"/><path class="cls-2" d="M95.25 68.22a1.89 1.89 0 0 1 .12 2l-.26.07c-.28.09-.35.54-.07.63l-.05.07c-.94 1.67-3.8 4.2-5.58 2.28a.78.78 0 0 0-1.31.35c0 .28-.16 1.31-.66 1.22s-1-.75-1.24-1.22c-1-1.76 0-3.09 1.06-4.48a.41.41 0 0 0-.22-.59.36.36 0 0 0 .12-.49C85.45 64 79.38 61.36 75 61c-.12-.66.16-1.31 1.41-2.16.54-.35 1-.7 1.54-1.08a24.28 24.28 0 0 1 7.25 2.84 14.56 14.56 0 0 1 3.44 3c1.11 1.27 1.41 2.79 2.19 4.2a.51.51 0 0 0 .93-.11v-.05c1.05.42 2.55-.35 3.49.58z"/><path class="cls-1" d="M95.11 70.31l.26-.07c-.05.14-.12.28-.17.42a2.79 2.79 0 0 0-.16.28c-.28-.09-.21-.54.07-.63zM91.9 67c0 .19-.05.38-.07.59a1.1 1.1 0 0 1-.35-.26.47.47 0 0 1-.08-.54 1.31 1.31 0 0 1 .5-.49 4.09 4.09 0 0 1 0 .7z"/><path class="cls-1" d="M78.56 57.35c.18-.15.37-.29.56-.43a19.23 19.23 0 0 1 8.58 3.54c1.74 1.27 3.94 3.47 4.2 5.82a1.31 1.31 0 0 0-.5.49.47.47 0 0 0 .08.54 1.1 1.1 0 0 0 .35.26v.05a.51.51 0 0 1-.93.11c-.78-1.41-1.08-2.93-2.19-4.2a14.56 14.56 0 0 0-3.44-3A24.28 24.28 0 0 0 78 57.74a6.42 6.42 0 0 0 .56-.39zM90.7 100.58a.91.91 0 0 1-.63 1.55c-4.81-.26-9.26-2.07-14-2.84a5.17 5.17 0 0 1-.07-.89c4.18.59 8.35 2.44 12.69 2.76.23.24.49.47.73.71.09-.21.16-.42.25-.63h.38c-.09-.1-.17-.17-.26-.26.07-.21.17-.45.26-.66a6.86 6.86 0 0 1-1-.07c-3.75-3.68-10.64-10.34-11.18-14.58.18-.1.37-.17.56-.26a43.37 43.37 0 0 0 5.37 8c2.2 2.46 4.63 4.78 6.9 7.17zM70.8 5.25c11 5.79 23.44 18.22 19 32.05C88 42.93 82.78 48 76.71 50.76c-.85.07-1.69.14-2.54.23a.64.64 0 0 0-.49.94A19.08 19.08 0 0 1 60 51.74a7.08 7.08 0 0 0 .24-.82c6.33 2.06 14.49-.35 20.3-3.49 7.57-3.92 10.5-13 8.3-21a29 29 0 0 0-7.93-13C75.51 8.09 68.29 4.52 61 2.2c-12-3.68-24.19.73-30.08 12-2.81 5.39-4.52 17.66-.44 23.12a6.53 6.53 0 0 0-.87.12C23.27 29.07 28.1 13.22 35.18 7 45.66-2.32 59.05-.94 70.8 5.25z"/><path class="cls-1" d="M90.07 100.32c-.09.21-.19.45-.26.66-.23-.24-.49-.47-.75-.73a6.86 6.86 0 0 0 1.01.07zM90.07 101.24h-.38c0-.1.07-.17.12-.26.09.09.19.16.26.26z"/><path class="cls-1" d="M89.81 101c0 .09-.07.16-.12.26-.33 0-.65 0-1-.08l-1.13-1c.5.07 1 .12 1.48.14.28.19.54.42.77.68z"/><path class="cls-1" d="M89.69 101.24c-.09.21-.16.42-.25.63-.24-.24-.5-.47-.73-.71.29.05.65.05.98.08zM89.62 74c0 .12 0 .26-.07.37a1.9 1.9 0 0 1-.35-.25.9.9 0 0 0 .42-.12zM89.53 74.41a3.11 3.11 0 0 1-.23.75 3.09 3.09 0 0 1-.66-.47 1.33 1.33 0 0 0 .12-.4l.42-.11a1.9 1.9 0 0 0 .35.23zM89.18 74.16l-.42.11a3.15 3.15 0 0 0 .09-.42 1.88 1.88 0 0 0 .33.31zM88.85 26.4c2.2 8.06-.73 17.11-8.3 21-5.81 3.14-14 5.55-20.3 3.49.09-.28.16-.56.23-.87 11.58 1 28-2.95 28.11-17.51 0-6.75-2.81-12.62-7.15-17.33a10.39 10.39 0 0 0-.44-1.7c0-.07 0-.09-.1-.12a29 29 0 0 1 7.95 13.04z"/><path class="cls-1" d="M88.76 74.27a1.33 1.33 0 0 1-.12.4 1.64 1.64 0 0 1-.33-.28c.14-.05.28-.07.45-.12zM87.58 100.11l1.13 1C84.37 100.84 80.2 99 76 98.4v-.12l-.09.1c-.26 0-.51-.07-.77-.1a5.77 5.77 0 0 0 0 .82v.05c0 .7.14 1.45.26 2.16l-.84-.22a26 26 0 0 1-.33-2.81.85.85 0 0 1 .87-.84c4.28.56 8.29 2.11 12.48 2.67z"/><path class="cls-3" d="M81.44 15.21c4.34 4.71 7.2 10.58 7.15 17.33-.07 14.56-16.53 18.54-28.11 17.51a6.2 6.2 0 0 0 .16-.72.67.67 0 0 0-1.21-.52 6.21 6.21 0 0 0-1.06 2.35Q52 56 49.16 50.73a11.24 11.24 0 0 1-1.08-2c1.33-1.92 3.54-2.18 5.72-2.2a.6.6 0 0 0 .56-.75C54 43.4 53 41.05 53.12 38.61A40.9 40.9 0 0 1 58 38.5h.16a3.66 3.66 0 0 0 2.53 1.5c2.23.28 4.39-.86 6.17-2.09 3.16-2.15 7.85-7.05 5.86-11.29a4.07 4.07 0 0 0-2.53-2.26.49.49 0 0 0 .26-.54 5.52 5.52 0 0 1-.1-2.55c3.71 1.08 7.29 3 11.28 2.72.23 0 .49-.19.44-.45-.3-2.77-.07-5.63-.63-8.33z"/><path class="cls-1" d="M89.06 100.25c-.49 0-1-.07-1.48-.14a78 78 0 0 1-7.12-7.64c-1.29-1.62-3.36-4.25-3.17-6.57l.59-.23c.54 4.24 7.43 10.9 11.18 14.58zM75.18 61.57A2.79 2.79 0 0 1 75 61c4.34.38 10.41 3 12.12 7.1a.36.36 0 0 1-.12.49.51.51 0 0 0-.25 0 1.07 1.07 0 0 0-.36.14.55.55 0 0 0-.14-.09c-2-1.69-3.68-3.47-6.12-4.57-1.52-.71-3.12-1.17-4.69-1.76-.07-.31-.17-.53-.26-.74z"/><path class="cls-1" d="M86.79 68.55a.51.51 0 0 1 .25 0 .66.66 0 0 1-.61.12 1.07 1.07 0 0 1 .36-.12zM84.56 73.85a.73.73 0 0 1 .51 1.08 3.7 3.7 0 0 1-.51-1.08z"/><path class="cls-1" d="M64.87 88.55a4 4 0 0 0-.33.8c-3.45-.47-9.48-3.14-6.5-6.12a4.91 4.91 0 0 1 3.45-1 13.31 13.31 0 0 0 7.76-1.8c1.43-.82 2.88-1.64 4.34-2.39a1.48 1.48 0 0 0 .39.28.39.39 0 0 0 .57-.33 1.1 1.1 0 0 0 0-.4 46.25 46.25 0 0 1 9.75-3.75.81.81 0 0 1 .31 0 3.7 3.7 0 0 0 .51 1.08.69.69 0 0 1-.42.33 75.51 75.51 0 0 0-13 5.79c-2.37 1.36-4.39 2.56-7.11 3a13.49 13.49 0 0 1-2 0c-2.18-.07-3.12 1.93-.5 2.77 1.08.35 2.33.49 3.43.91a2 2 0 0 0-.65.83zM84 50.4a.7.7 0 0 1 .59 1.06 28.42 28.42 0 0 1-5.44 5.46 5.36 5.36 0 0 0-1.06-.09A25 25 0 0 0 84 51.11c-3 0-6.14.21-9.14.42a15.16 15.16 0 0 0 1.88-.77c2.38-.19 4.79-.33 7.26-.36z"/><path class="cls-4" d="M80.46 92.47a78 78 0 0 0 7.12 7.64c-4.19-.56-8.2-2.13-12.42-2.67a.85.85 0 0 0-.87.84 26 26 0 0 0 .33 2.81c-1.13-.35-2.86-.84-3.49-1a.33.33 0 0 0-.24 0 47.25 47.25 0 0 1-1.76-5.19 10.81 10.81 0 0 0 2.21-2.95c.51-.89.93-1.81 1.4-2.7.33-.63.75-1.08.59-1.8v-.05c1.37-.45 2.68-.94 4-1.48-.23 2.3 1.84 4.93 3.13 6.55z"/><path class="cls-1" d="M82.07 23.51c.05.26-.21.43-.44.45-4 .28-7.57-1.64-11.28-2.72a1.82 1.82 0 0 1 .14-.52c3.28.94 7.6 3.17 11.14 2.79-.38-2.88-.1-5.79-.57-8.67.15.12.26.26.38.37.56 2.7.33 5.56.63 8.3z"/><path class="cls-1" d="M70.49 20.72l-.63.35a4.75 4.75 0 0 1 .49.17 5.52 5.52 0 0 0 .1 2.55.49.49 0 0 1-.26.54 3 3 0 0 0-.57-.14s0-.09-.07-.14a5.24 5.24 0 0 1 0-3.58.5.5 0 0 1 .63-.36c3.3.9 6.64 2.89 10.13 3 1.29 0 .75-1 .73-2.06v-2.49c0-1.38-.14-2.77-.31-4.13a2 2 0 0 1 .42.45c.47 2.88.19 5.79.57 8.67-3.63.34-7.95-1.89-11.23-2.83z"/><path d="M74.17 52.19c1.57-.07 9.43-1.48 7.08 1s-5.53 4.43-8.39 6.35a.7.7 0 0 0-.26.94c1.67 1.33 1.52 2.86-.35 4.57a12.12 12.12 0 0 1-4.48-.92.68.68 0 0 0-.84.83c.44 2-3.5 4-4.5 5.6-3.31 5.44-8.14 8.52-13.51 11.68a101.55 101.55 0 0 1-18.59 9c1.55-10 2.08-20.24 3.52-30.24a.36.36 0 0 0 0-.19.51.51 0 0 0-.09-1c-1.5-.5-7.6-2.51-3.42-4.46a.77.77 0 0 0 0-1.31 12 12 0 0 1-2.21-1.52c-1.55-1.22.26-2.23 1.53-2.51a.72.72 0 0 0 .16-1.32 25.12 25.12 0 0 1-5.44-4.15c1.57.36 3.12.78 4.71 1.06a.45.45 0 0 0 .57-.38 3.77 3.77 0 0 0 4.5.31c-.44 5.95 6.94 6.61 12.45 4.5 0 .14 5.06 6 7.06 6.17 3.65.33 5.37-1.69 6.35-4.53a19.08 19.08 0 0 0 13.67.19.48.48 0 0 0 .48.33z" fill="#7e6e90"/><path class="cls-1" d="M16.14 96a14.4 14.4 0 0 0 1.5-.14c2.75 1.71 6.15 2.06 9.34 2.3a.83.83 0 0 1 .72.44.54.54 0 0 0-.42.21l-.82 1.13c-4.24-.35-8.56-1.06-11.75-4.13a.89.89 0 0 1 .61-1.5 53.84 53.84 0 0 0 14.21-2.81c.1.36.68.47.75 0v-.33a101.55 101.55 0 0 0 18.59-9c5.37-3.16 10.2-6.28 13.51-11.67 1-1.64 4.94-3.63 4.5-5.6a.68.68 0 0 1 .84-.83 12.12 12.12 0 0 0 4.48.92c1.87-1.71 2-3.24.35-4.57a.7.7 0 0 1 .26-.94c2.86-1.92 6-3.8 8.39-6.35s-5.51-1.08-7.08-1a.48.48 0 0 1-.49-.26 6.55 6.55 0 0 0 1.15-.4c3-.21 6.17-.42 9.14-.42a25 25 0 0 1-5.91 5.72 3.59 3.59 0 0 0-.46 0 .43.43 0 0 0-.36.63c-1.36 1-2.76 1.88-4 2.72a12.31 12.31 0 0 1 .81 1.07.4.4 0 0 0 .17.56l.25.12c1.74 2.93 0 3.94-2.64 3.82v-.16a.3.3 0 0 0-.59-.1.78.78 0 0 0 0 .21 15.41 15.41 0 0 1-3.59-.84c.5.73.24 2.2.5 2.67-4.65.26-4.65 3.92-7.11 6.85-3.42 3.91-8.56 6.85-13.2 9.54a166.06 166.06 0 0 1-16.25 8c-5.27 2.37-9.35 3-14.93 3.28-.23-.19-.45-.37-.66-.56-.07.21-.16.4-.25.61h-.36a1.07 1.07 0 0 0 .26.26c-.09.21-.16.4-.26.61zM81.06 14.84a2 2 0 0 0-.42-.45 8.31 8.31 0 0 0-.07-.86c0-.19.22-.26.35-.17s.1.05.1.12a10.39 10.39 0 0 1 .42 1.73c-.12-.11-.23-.21-.38-.37z"/><path class="cls-2" d="M81 21c0 1 .56 2.08-.73 2.06-3.49-.07-6.83-2.06-10.13-3a.5.5 0 0 0-.63.36 5.24 5.24 0 0 0 0 3.58c0 .05 0 .12.07.14C64.19 23.3 55 31.53 57 36.83a.58.58 0 0 0 .84.31 1.27 1.27 0 0 0 0 .39c-1.71-.44-3.51-.11-5.3-.07a.59.59 0 0 0-.58.59c-.29 2.48.63 4.9 1.12 7.31-2.37.12-4.57.68-6 2.77l-.17.07c-4.55 2.14-13.22 3-10.6-5 .31-.87-.93-1.29-1.4-.59-3.29 4.88-9.47-1.87-4.06-4a.73.73 0 0 0 .68-1.08c-5.3-8.41-2.23-21 3.82-28.18C44-.87 57.62 1.12 68.4 6a40.57 40.57 0 0 1 12.24 8.39c.17 1.36.26 2.75.31 4.13.05.82.05 1.66.05 2.48zm-44 8.09c7.53.78 16.41-15.85 6.12-17.35C36 10.71 30.56 25 36.57 29a.13.13 0 0 0 .09 0h.05c.05 0 0 0 0 0a.48.48 0 0 0 .29.09z"/><path class="cls-1" d="M80.92 13.36c-.13-.09-.39 0-.35.17a8.31 8.31 0 0 1 .07.86A40.57 40.57 0 0 0 68.4 6C57.62 1.12 44-.87 35.32 9.35c-6.05 7.18-9.12 19.77-3.82 28.18a.73.73 0 0 1-.68 1.08.52.52 0 0 1 .24-.11.62.62 0 0 0-.17-1.22 3.1 3.1 0 0 0-.44 0c-4.08-5.46-2.37-17.73.44-23.12C36.78 2.93 49-1.48 61 2.2c7.29 2.32 14.51 5.89 19.92 11.16zM78.56 57.35a6.42 6.42 0 0 1-.57.39 3.88 3.88 0 0 0-.49-.11.33.33 0 0 1-.26-.22c.28-.21.57-.39.82-.58a5.36 5.36 0 0 1 1.06.09c-.19.14-.38.28-.56.43zM77.88 85.67l-.59.23a2.4 2.4 0 0 1 .09-.7.48.48 0 0 1 .87-.12 3.22 3.22 0 0 0 .19.33c-.19.09-.38.16-.56.26zM77.6 56.78a3.59 3.59 0 0 1 .46 0c-.25.19-.54.37-.82.58a.43.43 0 0 1 .36-.58z"/><path class="cls-1" d="M77.5 57.63a3.88 3.88 0 0 1 .49.11c-.49.38-1 .73-1.54 1.08-1.25.85-1.53 1.5-1.41 2.16a4.42 4.42 0 0 0-.61 0 .45.45 0 0 0-.4.26 12.31 12.31 0 0 0-.82-1.06c1.27-.84 2.67-1.75 4-2.72a.33.33 0 0 0 .29.17zM74.83 51.53a6.55 6.55 0 0 1-1.15.4.64.64 0 0 1 .49-.94c.85-.09 1.69-.16 2.54-.23a15.16 15.16 0 0 1-1.88.77zM76.45 102a.85.85 0 0 1-.8 1.06 6 6 0 0 1-4.13-1.38c-.16-.38-.3-.75-.44-1.13a7.94 7.94 0 0 0 3.72 1.69.51.51 0 0 0 0 .21l.14-.19h.68c-.05-.22-.09-.45-.14-.68 0 0 .09-.12.14-.17h-.17c-.12-.71-.21-1.46-.26-2.16l.9.14a16.24 16.24 0 0 0 .36 2.61zM76 98.4a5.17 5.17 0 0 0 .08.89l-.9-.14v-.05c.24-.23.5-.47.73-.72a.15.15 0 0 1 .09.02z"/><path class="cls-1" d="M76 98.28v.12a.15.15 0 0 0-.09 0z"/><path class="cls-1" d="M75.93 98.38c-.23.25-.49.49-.73.72a5.77 5.77 0 0 1 0-.82c.22.03.47.05.73.1zM75.46 62.27a3.41 3.41 0 0 1 .24 2.34 2.76 2.76 0 0 1-2.47 1.67 5.67 5.67 0 0 1-1.36-.07l-.06-.52c2.62.12 4.38-.89 2.64-3.82zM75.65 101.35c-.05.05-.09.12-.14.17s0-.14 0-.21z"/><path class="cls-1" d="M75.51 101.52c0 .23.09.46.14.68h-.68q.29-.3.54-.68z"/><path class="cls-1" d="M75.48 101.31v.21q-.26.38-.54.72a.44.44 0 0 1-.17 0 11.06 11.06 0 0 1-.18-1.13l.84.22zM75.18 61.57c.09.21.19.44.28.7l-1-.4a3.7 3.7 0 0 0-.42-.68.45.45 0 0 1 .4-.26A4.42 4.42 0 0 1 75 61a2.79 2.79 0 0 0 .18.57zM75.2 99.1v.05z"/><path class="cls-1" d="M75 102.24l-.14.19a.51.51 0 0 1 0-.21.44.44 0 0 0 .14.02zM74.62 101.09a11.06 11.06 0 0 0 .18 1.13 7.94 7.94 0 0 1-3.72-1.69 2.92 2.92 0 0 1-.19-.44.33.33 0 0 1 .24 0c.63.16 2.36.65 3.49 1zM74.06 77.81c.16-.07.3-.16.44-.21a1.1 1.1 0 0 1 0 .4.39.39 0 0 1-.57.33 1.48 1.48 0 0 1-.39-.28c.21-.05.37-.17.52-.24z"/><path class="cls-1" d="M74.5 77.6c-.14.05-.28.14-.44.21-1.76-2.81-2.7-8.06-2.58-11.67l.39.07a42 42 0 0 0 .94 6.79c.42 1.46 1.53 3.05 1.69 4.6zM74.45 61.87l-.25-.12a.4.4 0 0 1-.17-.56 3.7 3.7 0 0 1 .42.68z"/><path class="cls-1" d="M74.06 77.81c-.15.07-.31.17-.47.24-1.34-1.15-1.78-4-2.07-5.51A19.73 19.73 0 0 1 71.1 66a1 1 0 0 0 .38.07c-.12 3.68.82 8.93 2.58 11.74zM73.89 124c1.31 5.35-6.26 6.26-9.45 3.76a.65.65 0 0 1-.23-.52.53.53 0 0 0 .91 0v-.07c2.63 1.71 9 1.33 7.78-2.91-1.78-5.13-6.4-.72-7.92 2a.79.79 0 0 0-.82.64 1.14 1.14 0 0 0 0 .37.49.49 0 0 1-.1-.45c1.06-3.82 8.26-9.13 9.83-2.82zM73.33 87.43c.16.72-.26 1.17-.59 1.8-.47.89-.89 1.81-1.4 2.7a10.81 10.81 0 0 1-2.21 2.95 5.44 5.44 0 0 1-.19-.61s0-.09-.07-.12c1.81-1.71 3.13-5.37 4.13-6.63l.35-.14s-.02.02-.02.05zM73.3 87.38l-.35.14c-.11 0-.25.07-.37.12a.35.35 0 0 1-.38-.1 1.52 1.52 0 0 1 .4-.28 1.64 1.64 0 0 1 .35-.09.33.33 0 0 1 .35.21z"/><path class="cls-1" d="M73 124.21c1.17 4.24-5.15 4.62-7.78 2.91.19-.28.35-.54.52-.8.68.19 1.4.61 1.85.68 1.17.21 4 .37 4.5-1.2a2.23 2.23 0 0 0-3.54-2.46 10.92 10.92 0 0 0-2.81 3 2.5 2.5 0 0 0-.66-.12c1.47-2.73 6.09-7.14 7.92-2.01zM72.58 87.64c.12 0 .26-.07.37-.12-.91 1.26-2.27 4.92-4.08 6.63a.4.4 0 0 0-.7.12 3.44 3.44 0 0 0 0 .45 2.27 2.27 0 0 1-2.72-.35c-1.31-1.13-.77-3.26-.21-5a4.91 4.91 0 0 0 .77 0c-.28 1.17-1 2.41-.63 3.59.66 2 2.55 1.31 3.54.11a22 22 0 0 0 2.34-3.82 6.26 6.26 0 0 1 1-1.76.35.35 0 0 0 .32.15zM72.72 26.59c2 4.24-2.7 9.14-5.86 11.29-1.78 1.23-3.94 2.37-6.17 2.09a3.66 3.66 0 0 1-2.58-1.52.45.45 0 0 0 0-.85l-.24-.07a1.27 1.27 0 0 1 0-.39.46.46 0 0 0 .28-.54.81.81 0 0 1 .77-.05c1.46.63 1.91 1.76 3.76 1.22a12.59 12.59 0 0 0 4.57-2.42c2.2-1.82 6.26-5.77 4.17-9C67.86 21 57.1 31.88 58.11 36.52v.08a.64.64 0 0 0-.26.37v.17a.58.58 0 0 1-.84-.31c-2-5.3 7.2-13.53 12.63-12.64a.49.49 0 0 0 .57.14 4.07 4.07 0 0 1 2.51 2.26zM72.76 104.45a.92.92 0 0 1-.77 1.36c-.94 0-1.94-.1-2.95-.19 0-.3-.05-.59-.1-.89.68.07 1.34.12 2 .14.07.16.16.33.25.49.1-.16.19-.33.29-.47H72a5.4 5.4 0 0 1-.23-.49c.07-.14.16-.26.23-.4h-.44c-1.43-2.84-2.75-5.56-2.93-8.74a4.67 4.67 0 0 0 .51-.36 47.25 47.25 0 0 0 1.76 5.19.43.43 0 0 0-.19.7 6.25 6.25 0 0 0 .82.87c.39.94.81 1.85 1.23 2.79z"/><path class="cls-4" d="M71.52 72.54c.29 1.52.73 4.36 2.07 5.51-1.46.75-2.91 1.57-4.34 2.39a13.31 13.31 0 0 1-7.76 1.8 4.91 4.91 0 0 0-3.45 1c-3 3 3.05 5.65 6.5 6.12-.07.21-.12.4-.19.58a6.82 6.82 0 0 0-.35 3.42 3.15 3.15 0 0 0 3.94 2.23.2.2 0 0 0 .09 0c-.17 3 1 5.74 2.42 8.42-5.61-.31-10.34-2.28-15.22-5.07a.38.38 0 0 0-.64-.37 32 32 0 0 0-5.34 8.27c-3.89-1-6.5-4-10-5.7.09-.21-.16-.44-.37-.39a1.75 1.75 0 0 0-.38.09l-.14-.07a.45.45 0 0 0-.59.26c-1.78.56-3.46 1.57-5.25 2.11a20.5 20.5 0 0 1-7 1 28.33 28.33 0 0 0 2.69-4.88c.15-.4-.16-.63-.49-.61a.83.83 0 0 0-.72-.44c-3.19-.24-6.59-.59-9.34-2.3 9.81-1 18.13-4.74 27-9.31a72.85 72.85 0 0 0 13-8C61 75.73 64 68.86 68.26 68.15a.69.69 0 0 0 .5-.68c-.24-2 .86-1.71 2.34-1.43a19.73 19.73 0 0 0 .42 6.5z"/><path class="cls-2" d="M68.5 123.32a2.23 2.23 0 0 1 3.5 2.46c-.45 1.57-3.33 1.41-4.5 1.2-.45-.07-1.17-.49-1.85-.68a10.92 10.92 0 0 1 2.85-2.98z"/><path class="cls-1" d="M72 104c-.07.14-.16.26-.23.4a3.93 3.93 0 0 1-.21-.4zM71.76 104.4a5.4 5.4 0 0 0 .23.49h-.51c.09-.16.18-.33.28-.49zM71.81 65.69l.06.52-.39-.07a3.24 3.24 0 0 1 0-.44 1.72 1.72 0 0 0 .33-.01z"/><path class="cls-1" d="M71.5 65.67a.74.74 0 0 1-.33 0 .78.78 0 0 1 0-.21.3.3 0 0 1 .59.1v.16a1.72 1.72 0 0 1-.26-.05zM71.76 104.4c-.1.16-.19.33-.28.49h-.54c-.14-.31-.3-.61-.46-.91h1.1a3.93 3.93 0 0 0 .18.42z"/><path class="cls-6" d="M71.38 26.37c2.09 3.21-2 7.16-4.17 9a12.59 12.59 0 0 1-4.57 2.42c-1.85.54-2.3-.59-3.76-1.22a.81.81 0 0 0-.77.05v-.08C57.1 31.88 67.86 21 71.38 26.37z"/><path class="cls-1" d="M71.08 100.53c.14.38.28.75.44 1.13a6.25 6.25 0 0 1-.82-.87.43.43 0 0 1 .19-.7 2.92 2.92 0 0 0 .19.44zM71.5 65.67a3.24 3.24 0 0 0 0 .44 1 1 0 0 1-.4-.11 1.46 1.46 0 0 1 .07-.4.74.74 0 0 0 .33.07zM71.48 104.89c-.1.14-.19.31-.29.47-.09-.16-.18-.33-.25-.49z"/><path class="cls-1" d="M71.17 65.64a1.46 1.46 0 0 0-.07.4c-1.48-.28-2.58-.54-2.34 1.43a.69.69 0 0 1-.5.68C64 68.86 61 75.73 57.64 78.52a72.85 72.85 0 0 1-13 8c-8.88 4.57-17.2 8.28-27 9.31a8.54 8.54 0 0 1-1.05-.73c5.58-.32 9.66-.91 14.93-3.28a166.06 166.06 0 0 0 16.25-8c4.64-2.69 9.78-5.63 13.2-9.54 2.46-2.93 2.46-6.59 7.11-6.85-.26-.47 0-1.94-.5-2.67a15.41 15.41 0 0 0 3.59.88zM71.55 104h-1.1c-1.41-2.68-2.59-5.4-2.42-8.42a3.19 3.19 0 0 0 .59-.28c.18 3.14 1.5 5.86 2.93 8.7zM70.45 104c.16.3.32.6.46.91-.63 0-1.29-.07-2-.14v-.07a.38.38 0 0 0-.75 0 30.22 30.22 0 0 1-5.53-1.2 1.73 1.73 0 0 0-.19-.28.34.34 0 0 0-.54 0 19.22 19.22 0 0 1-6.84-4 2.55 2.55 0 0 0 .14-.35c4.91 2.81 9.64 4.78 15.25 5.13zM70.49 20.72a1.82 1.82 0 0 0-.14.52 4.75 4.75 0 0 0-.49-.17zM70.19 24.33a.49.49 0 0 1-.57-.14 3 3 0 0 1 .57.14zM69.27 112.94c0 1.8.52 4-.63 5.46a7.34 7.34 0 0 0-.31-1.27c0-3.49.21-7.74.21-11.56a2.83 2.83 0 0 0 .5.05c.21 2.38.21 4.88.23 7.32zM69.13 94.88a4.67 4.67 0 0 1-.51.36 4.85 4.85 0 0 1-.05-.85 1.26 1.26 0 0 0 .3-.24s0 .08.07.12a5.44 5.44 0 0 0 .19.61z"/><path class="cls-1" d="M68.94 104.73c0 .3.07.59.1.89a2.83 2.83 0 0 1-.5-.05 8.72 8.72 0 0 0 0-.89 2.52 2.52 0 0 0 .4.05z"/><path class="cls-1" d="M68.57 104.68a2.22 2.22 0 0 1-.38 0 .38.38 0 0 1 .75 0v.07a2.52 2.52 0 0 1-.37-.07zM68.87 94.15a1.26 1.26 0 0 1-.3.24 2.42 2.42 0 0 1-.45.31 3.44 3.44 0 0 1 0-.45.4.4 0 0 1 .75-.1zM62.73 104.49a6.87 6.87 0 0 0 .75.19 28.82 28.82 0 0 1 2.16 5.25c.47 1.43 1.1 2.89 1.71 4.36-.17 1.48-.21 3 .56 4 .17.21.52.37.73.09a.77.77 0 0 1 .07.26.67.67 0 0 1-1.1.65c-1.79-1.83-2.37-4.57-3-7-.75-2.72-1.69-5.37-2.51-8.07.21.07.45.14.66.19z"/><path class="cls-1" d="M68.33 117.13a7.34 7.34 0 0 1 .31 1.27c-.21.28-.56.12-.73-.09-.77-1-.73-2.53-.56-4a24.07 24.07 0 0 1 .98 2.82zM68.57 94.41a4.85 4.85 0 0 0 .05.85 3.19 3.19 0 0 1-.59.28c0-.26 0-.54.07-.8a2.42 2.42 0 0 0 .47-.33zM68.57 104.68a8.72 8.72 0 0 1 0 .89 3 3 0 0 1-.44 0c0-.29.05-.59.09-.87a2.22 2.22 0 0 0 .35-.02z"/><path class="cls-1" d="M68.1 105.53a3 3 0 0 0 .44 0c0 3.82-.18 8.07-.21 11.56a24.07 24.07 0 0 0-1-2.81c.09-.82.21-1.61.23-2.27.14-2.17.28-4.33.54-6.48zM68.19 104.64c0 .28-.07.58-.09.87a30 30 0 0 1-4.62-.85 9.17 9.17 0 0 0-.82-1.24 30.22 30.22 0 0 0 5.53 1.22zM68.1 94.74c0 .26-.07.54-.07.8a.2.2 0 0 1-.09 0A3.15 3.15 0 0 1 64 93.36a6.82 6.82 0 0 1 .35-3.43c.07-.18.12-.37.19-.58a3 3 0 0 0 .63.07c-.56 1.71-1.1 3.84.21 5a2.27 2.27 0 0 0 2.72.32z"/><path class="cls-2" d="M68.1 105.53c-.26 2.15-.4 4.31-.52 6.49 0 .66-.14 1.45-.23 2.27-.61-1.47-1.24-2.93-1.71-4.36a28.82 28.82 0 0 0-2.16-5.25 30 30 0 0 0 4.62.85z"/><path class="cls-1" d="M66 88.76a2.07 2.07 0 0 0-.12-.82 3.16 3.16 0 0 1 .52.26.65.65 0 0 1-.17 1.17 1.09 1.09 0 0 1-.33 0c.1-.19.1-.37.1-.61z"/><path class="cls-1" d="M65.4 88.65c-.16 0-.35-.08-.53-.1a2 2 0 0 1 .6-.8 3.42 3.42 0 0 1 .4.17 2.07 2.07 0 0 1 .12.82z"/><path class="cls-1" d="M66 88.76c0 .21-.05.42-.1.66a4.91 4.91 0 0 1-.77 0c.07-.28.16-.54.23-.77zM65.92 87.92a3.42 3.42 0 0 0-.4-.17c.14-.09.3.03.4.17zM65.17 127.1v.07a.53.53 0 0 1-.91 0 1.14 1.14 0 0 1 0-.37.79.79 0 0 1 .82-.64 2.5 2.5 0 0 1 .66.12c-.22.28-.38.54-.57.82z"/><path class="cls-1" d="M65.4 88.65c-.07.23-.16.49-.23.77a3 3 0 0 1-.63-.07 4 4 0 0 1 .33-.8c.18.02.37.07.53.1zM62.73 104.47c-.21 0-.45-.12-.66-.19-.07-.26-.16-.49-.23-.75a.35.35 0 0 1 .09-.32c.24.07.47.16.73.23a9.17 9.17 0 0 1 .82 1.24 6.87 6.87 0 0 1-.75-.19z"/><path class="cls-1" d="M62.47 103.16a1.73 1.73 0 0 1 .19.28c-.26-.07-.49-.16-.73-.23a.34.34 0 0 1 .54-.05zM61.84 103.53c.07.26.16.49.23.75A14 14 0 0 1 55 99.64a1.36 1.36 0 0 0 .14-.4 19.22 19.22 0 0 0 6.84 4 .35.35 0 0 0-.14.29zM59.64 50.1a.91.91 0 0 0-.35 1.11c-.49 1.64-1.08 3.35-2.93 4-4.15 1.45-7.83-3.19-9-6.36a.55.55 0 0 0 .8-.16 11.24 11.24 0 0 0 1.08 2q2.76 5.31 9.13.47a6.21 6.21 0 0 1 1.06-2.35.67.67 0 0 1 1.21.52 6.2 6.2 0 0 1-.16.72A3.77 3.77 0 0 1 60 50a.62.62 0 0 0-.36.1z"/><path class="cls-1" d="M60.25 50.92a7.08 7.08 0 0 1-.24.82 2.6 2.6 0 0 1-.42-.19.64.64 0 0 1-.33-.32c.12-.38.24-.75.35-1.11A.62.62 0 0 1 60 50a3.77 3.77 0 0 0 .47 0c-.06.36-.13.64-.22.92z"/><path class="cls-1" d="M59.59 51.55a2.6 2.6 0 0 0 .42.19c-1 2.84-2.7 4.86-6.35 4.53-2-.17-7.06-6-7.06-6.17-5.51 2.11-12.89 1.45-12.45-4.5a3.23 3.23 0 0 0 .75-.6c-1.36 6.75 7.67 6.36 12.38 3.89 1.22 3.17 4.9 7.81 9 6.36 1.85-.68 2.44-2.39 2.93-4a.64.64 0 0 0 .38.3zM59.61 50.12c-.11.36-.23.73-.35 1.11a.91.91 0 0 1 .35-1.11zM58.07 37.6a.45.45 0 0 1 0 .85 1.16 1.16 0 0 1-.16-.4 1.15 1.15 0 0 1-.1-.52zM58.11 36.6a.46.46 0 0 1-.28.54v-.17a.64.64 0 0 1 .28-.37z"/><path class="cls-1" d="M58.11 38.45h-.16a40.9 40.9 0 0 0-4.83.11 2.12 2.12 0 0 1 0-.56c-.21.19-.4.4-.61.59h.59c-.12 2.44.84 4.79 1.24 7.18a.6.6 0 0 1-.56.75c-2.18 0-4.39.28-5.72 2.2l-.1-.23a.88.88 0 0 0-.25-.29C48.87 46.49 51 46 53.19 46v.12a.53.53 0 0 1 .1-.12 3.93 3.93 0 0 1 .49 0 4.26 4.26 0 0 0-.1-.49c0-.05.07-.07.1-.12h-.12c-.47-2.65-1.52-5-1.15-7.29 1.67 0 3.73-.42 5.4 0a1.16 1.16 0 0 0 .2.35z"/><path class="cls-1" d="M57.83 37.53a1.15 1.15 0 0 0 .1.52c-1.67-.42-3.73 0-5.4 0-.37 2.32.68 4.64 1.15 7.29h-.61c-.49-2.34-1.41-4.81-1.07-7.29a.59.59 0 0 1 .58-.59c1.74-.04 3.54-.37 5.25.07zM54.59 98.52a.38.38 0 0 1 .64.37l-.23-.12c-.26-.14-.59.14-.43.4-1.64 2.81-3.46 5.6-4.87 8.62-4.15-.47-7.43-4-10.88-6.19a2.68 2.68 0 0 0 .4-.49c3.49 1.72 6.1 4.74 10 5.7a5.46 5.46 0 0 0-.3.59l1-.42a7.13 7.13 0 0 1-.73-.17 32 32 0 0 1 5.4-8.29z"/><path class="cls-4" d="M54.59 99.2c-.16-.26.17-.54.43-.4l.21.12a2.55 2.55 0 0 1-.14.35 1.36 1.36 0 0 1-.14.4c-.12-.17-.24-.31-.36-.47z"/><path class="cls-1" d="M54.59 99.2c.12.16.24.3.36.44-1.1 3-3.05 5.72-4.43 8.65a.94.94 0 0 1-1 .4 12.89 12.89 0 0 1-2.83-.82 22.21 22.21 0 0 1-5.26-3.19 2.18 2.18 0 0 0-.09-.56.15.15 0 0 0-.14-.12 1.43 1.43 0 0 0-.45.12c-.8-.66-1.57-1.34-2.29-2a2.67 2.67 0 0 0 .44-.45c3.45 2.23 6.73 5.72 10.88 6.19 1.35-3.06 3.22-5.86 4.81-8.66zM53.8 45.34s-.07.07-.1.12a.25.25 0 0 0 0-.12zM53.7 45.46a4.26 4.26 0 0 1 .1.49 3.93 3.93 0 0 0-.49 0c.11-.14.25-.3.39-.49zM53.68 45.34a.25.25 0 0 1 0 .12c-.14.19-.28.35-.39.51a.13.13 0 0 0-.12 0 4.69 4.69 0 0 0-.12-.61zM53.31 46a.53.53 0 0 0-.1.12V46a.13.13 0 0 1 .1 0z"/><path class="cls-1" d="M53.07 45.36a4.69 4.69 0 0 1 .12.61c-2.2.05-4.32.52-5.46 2.25a1 1 0 0 0-.68-.09c1.45-2.13 3.65-2.65 6.02-2.77zM52.53 38.64c.21-.19.4-.4.61-.59a2.12 2.12 0 0 0 0 .56zM50 107l-1 .42a5.46 5.46 0 0 1 .3-.59 7.13 7.13 0 0 0 .7.17z"/><path class="cls-1" d="M47.73 48.22a.88.88 0 0 1 .25.29l.1.23a.55.55 0 0 1-.8.16.48.48 0 0 1-.23-.77 1 1 0 0 1 .68.09z"/><path class="cls-1" d="M35.49 43.11l-.71-.28a11.78 11.78 0 0 0-.49 1.81c-4 3.35-10.13-5.34-4.2-6.66a2.51 2.51 0 0 0 .33.4.76.76 0 0 0 .42.21c-5.41 2.16.77 8.91 4.06 4 .47-.7 1.71-.28 1.4.59-2.62 8 6 7.11 10.6 5l.17-.07a.48.48 0 0 0 .23.77c-4.73 2.49-13.76 2.88-12.4-3.88a6.85 6.85 0 0 0 1.29-1.57zM45.36 119.55a.32.32 0 0 1 0-.14.29.29 0 0 0 0-.24c-.23-.65-.49-1.31-.77-2 .09-.7.23-1.38.35-2.06.42-2.3.89-4.62 1.29-6.94a.25.25 0 0 1 .35-.21.41.41 0 0 1 .26.31 28.47 28.47 0 0 1-.19 7.08 27 27 0 0 1-.7 5.32.67.67 0 0 1-1.29 0 4.39 4.39 0 0 1-.17-1 .59.59 0 0 0 .87-.12z"/><path class="cls-2" d="M46.65 107.87v.14a.25.25 0 0 0-.35.21c-.4 2.32-.87 4.64-1.29 6.94-.12.68-.26 1.36-.35 2.06-.73-1.89-1.5-3.77-2.11-5.72a25.72 25.72 0 0 1-1.11-4.76c-.06-.7.08-1.38 0-2.06a22.21 22.21 0 0 0 5.21 3.19z"/><path class="cls-1" d="M45 21.15c.84-1.6 1.88-4 .87-5.77-.8-1.36-2.42-2.53-4.06-2.09-4.64 1.27-8.81 10.41-5.27 14.49a.58.58 0 0 0-.26.42c-4.92-4.5 2.65-20.2 9.29-14.51 4.88 4.36-3.35 14.58-8.49 14.68v-.05a3.31 3.31 0 0 1-.52-.54.53.53 0 0 1 .28-.14A12.69 12.69 0 0 0 45 21.15z"/><path class="cls-6" d="M45.9 15.38c1 1.76 0 4.17-.87 5.77a12.69 12.69 0 0 1-8.21 6.49.53.53 0 0 0-.28.14c-3.51-4.08.63-13.22 5.3-14.49 1.64-.44 3.26.71 4.06 2.09z"/><path class="cls-1" d="M37.08 28.37c5.14-.1 13.37-10.32 8.49-14.68C38.93 8 31.36 23.7 36.28 28.2a.85.85 0 0 0 .38.76.13.13 0 0 1-.09 0c-6-3.94-.54-18.24 6.56-17.21 10.29 1.5 1.41 18.13-6.12 17.35a.48.48 0 0 1-.26-.09c.31-.01.57-.38.33-.64zM45.38 119.17a.29.29 0 0 1 0 .24zM44.49 118.7a10.67 10.67 0 0 1 .12-1.48c.28.64.54 1.3.77 2v.24a.32.32 0 0 0 0 .14.59.59 0 0 1-.85.21 4.18 4.18 0 0 1-.04-1.11zM43.37 122.92a1.33 1.33 0 0 0 .28.1 1.39 1.39 0 0 0-.12-.28 5 5 0 0 0 .33-.47l-.59-.17c0-.07-.07-.16-.09-.23l-.14.19c-4-1.13-7.53-1.62-8.91 3.46a2.74 2.74 0 0 1-.49 0 5.14 5.14 0 0 1 3.46-4.72c2.33-.63 4.72.08 7 .66a.79.79 0 0 1 .47 1.15c-2.37 3.56-6.94 4.57-10.95 4.64a.87.87 0 0 1 0-1.73v.14a.44.44 0 0 0 .81.21 3 3 0 0 0 .26-.4c2.79-.14 5.84-.8 7.79-2.81z"/><path class="cls-1" d="M44.61 117.22a10.67 10.67 0 0 0-.12 1.48c-1.76-3.26-4.92-12.26-3.49-14.32.11.09.25.18.39.3.08.68-.06 1.36 0 2.06a25.72 25.72 0 0 0 1.11 4.76c.61 1.95 1.38 3.83 2.11 5.72z"/><path class="cls-1" d="M44.49 118.7a4.18 4.18 0 0 0 0 1.06l-.07-.05c-1.47-1.66-6.72-14.18-3.75-15.59.1.09.19.16.29.26-1.39 2.06 1.77 11.06 3.53 14.32zM43.86 122.27a5 5 0 0 1-.33.47 5 5 0 0 0-.26-.64zM43.53 122.74a1.39 1.39 0 0 1 .12.28 1.33 1.33 0 0 1-.28-.1.93.93 0 0 0 .16-.18z"/><path class="cls-1" d="M43.27 122.1a5 5 0 0 1 .26.64.93.93 0 0 1-.16.18l-.87-.23a5.57 5.57 0 0 0 .54-.63.93.93 0 0 1 .23.04z"/><path class="cls-1" d="M43.18 121.87c0 .07.07.16.09.23a.93.93 0 0 0-.23 0zM43 122.06a5.57 5.57 0 0 1-.54.63 11 11 0 0 0-4.06-.61c-2.25.21-2.72 1.8-3.73 3.42a5.52 5.52 0 0 1-.58 0c1.42-5.06 4.91-4.57 8.91-3.44zM41 104.38c-.1-.1-.19-.17-.29-.26a1.43 1.43 0 0 1 .45-.12.15.15 0 0 1 .14.12 2.18 2.18 0 0 1 .09.56c-.14-.12-.28-.21-.39-.3z"/><path class="cls-2" d="M38.44 122.08a11 11 0 0 1 4.06.61c-2 2-5 2.67-7.79 2.81 1.01-1.62 1.48-3.21 3.73-3.42z"/><path class="cls-1" d="M38.89 100.7c.21 0 .46.18.37.39A1.24 1.24 0 0 1 39 101a3.85 3.85 0 0 0-.47-.19 1.75 1.75 0 0 1 .36-.11z"/><path class="cls-1" d="M39.26 101.09a2.68 2.68 0 0 1-.4.49c-.14-.11-.28-.18-.42-.28.19-.11.37-.26.56-.37a1.24 1.24 0 0 0 .26.16z"/><path class="cls-1" d="M38.42 101.35a4.46 4.46 0 0 1-.52.31.51.51 0 0 1-.07-.63l.73-.19a3.85 3.85 0 0 1 .44.16c-.21.09-.39.24-.58.35z"/><path class="cls-1" d="M38.42 101.35c.14.1.28.17.42.28a2.67 2.67 0 0 1-.44.45c-.17-.12-.33-.28-.5-.42a4.46 4.46 0 0 0 .52-.31zM38.37 100.72l.14.07-.73.19a.45.45 0 0 1 .59-.26z"/><path class="cls-1" d="M37.9 101.66c.17.14.33.3.5.42-1.65 1.48-4.34 2.18-6.29 2.65a21.5 21.5 0 0 1-8 .63.73.73 0 0 1-.42-1.08 41 41 0 0 1 2.79-4.38H27a.72.72 0 0 0 .25 0c-.79 1.36-1.8 2.65-2.57 4.06h-.17a1 1 0 0 1 .07.18c-.09.17-.16.35-.26.52l.49.07q.08.13.15.3a1.64 1.64 0 0 1 .16-.28c3.76.35 9.33-1.1 12.78-3.09z"/><path class="cls-1" d="M37.85 101.61c-3.45 2-9 3.44-12.8 3.09.12-.23.26-.47.4-.7a20.5 20.5 0 0 0 7-1c1.79-.54 3.47-1.55 5.25-2.11a.51.51 0 0 0 .15.72zM36.28 28.22a.58.58 0 0 1 .26-.42 3.31 3.31 0 0 0 .52.54v.05c.24.26 0 .63-.33.63h-.05a.85.85 0 0 1-.4-.8zM35.49 43.11l.72.31A6.85 6.85 0 0 1 34.92 45a9.35 9.35 0 0 1 .57-1.89zM34.78 42.83l.71.28a5.66 5.66 0 0 1-1.2 1.53 11.78 11.78 0 0 1 .49-1.81z"/><path class="cls-1" d="M35.49 43.11a9.35 9.35 0 0 0-.57 1.89 3.23 3.23 0 0 1-.75.59 6.37 6.37 0 0 1 .12-.94 5.66 5.66 0 0 0 1.2-1.54zM34.13 125.52a5.52 5.52 0 0 0 .58 0 3 3 0 0 1-.26.4.44.44 0 0 1-.81-.21v-.14a2.74 2.74 0 0 0 .49-.05z"/><path class="cls-1" d="M34.27 44.66a6.37 6.37 0 0 0-.12.94 3.77 3.77 0 0 1-4.5-.31.43.43 0 0 0-.33-.51l-.4-.12c-2.22-2.3-2.9-6.42.66-7.24a3.35 3.35 0 0 0 .49.58c-5.93 1.32.17 10 4.2 6.66zM33.28 60.37c-3.23-.4-8.2-3.12-4.17-5.23l.42.28v-.49a3.7 3.7 0 0 1 .4-.16 3.94 3.94 0 0 1-.4-.26v-.4l-.35.19c-.26-.17-.5-.33-.73-.5a.48.48 0 0 0-.47-.47.22.22 0 0 0-.12 0 10.14 10.14 0 0 1-2.08-2.22 5.94 5.94 0 0 1 2.65-1.5l.63.4c0-.19.05-.38.07-.56l.31-.08a1 1 0 0 1-.26-.16c0-.16.05-.35.07-.52l-.68.17a20.49 20.49 0 0 1-5.39-4.5c.4.07.77.14 1.17.25a25.12 25.12 0 0 0 5.44 4.15.72.72 0 0 1-.16 1.32c-1.27.28-3.08 1.29-1.53 2.51a12 12 0 0 0 2.21 1.52.77.77 0 0 1 0 1.31c-4.18 1.95 1.92 4 3.42 4.46a.51.51 0 0 1 .09 1 .51.51 0 0 0-.54-.51z"/><path class="cls-1" d="M33.82 60.84a.36.36 0 0 1 0 .19c-1.44 10-2 20.21-3.52 30.19a1.63 1.63 0 0 1-.4.15 205.56 205.56 0 0 1 3.34-29.87.93.93 0 0 0 .07-.33.93.93 0 0 1 0-.22.66.66 0 0 0 .47-.09z"/><path class="cls-1" d="M33.35 60.93h-.09a.63.63 0 0 0-.28-.44.39.39 0 0 1 .3-.14.51.51 0 0 1 .54.47.66.66 0 0 1-.47.09zM33.35 61a.93.93 0 0 0 0 .22.37.37 0 0 0-.05-.22z"/><path class="cls-1" d="M33.31 61.17a.93.93 0 0 1-.07.33.74.74 0 0 1-.26.23c-.12.07-.24.12-.35.19.07-.33.14-.66.19-1a3 3 0 0 0 .44 0 .37.37 0 0 1 .05.25z"/><path class="cls-1" d="M33.26 61a3 3 0 0 1-.44 0v-.19a.5.5 0 0 1 .12-.23.63.63 0 0 1 .32.42zM33 61.73a.74.74 0 0 0 .26-.23 205.56 205.56 0 0 0-3.31 29.87l-.4.13c-.87-9.5 1.17-20.14 3.1-29.54.09-.11.21-.16.35-.23zM33.28 60.37a.39.39 0 0 0-.3.14.6.6 0 0 0-.57-.07c-.3.09-.6.21-.93.33-2.89-.71-5.46-3.07-4-5.14.07-.09.16-.18.23-.28a6.39 6.39 0 0 1 .75-.66 5.91 5.91 0 0 0 .66.45c-4.04 2.11.93 4.86 4.16 5.23z"/><path class="cls-1" d="M33 60.51a.5.5 0 0 0-.12.23v.19a6.72 6.72 0 0 1-1.34-.16c.33-.12.63-.24.93-.33a.6.6 0 0 1 .53.07z"/><path class="cls-1" d="M15.42 59.27c.16-.1.33-.24.49-.35 1.34 1.76 2.39 3.77 4.08 5.25 2.51 2.2 5.74-1 8.09-2.09a28.43 28.43 0 0 1 3.4-1.31 6.72 6.72 0 0 0 1.34.16c0 .33-.12.66-.19 1-2.84 1.4-5.61 2.69-8.35 4.29a4.3 4.3 0 0 1-4.74-.33c-1.54-1.13-4-3.84-4.66-6.21l.47-.33s.04-.03.07-.08zM30.89 37.28a.62.62 0 0 1 .17 1.22.52.52 0 0 0-.24.11.76.76 0 0 1-.42-.21 2.51 2.51 0 0 1-.33-.4c.26 0 .52-.09.82-.12a3.06 3.06 0 0 1-.44-.58 3.1 3.1 0 0 1 .44-.02z"/><path class="cls-1" d="M30.45 37.3a3.06 3.06 0 0 0 .44.58c-.3 0-.56.08-.82.12a3.35 3.35 0 0 1-.49-.58 6.53 6.53 0 0 1 .87-.12zM29.93 91.37a1.63 1.63 0 0 0 .4-.15v.33c-.07.42-.65.31-.75 0zM29.93 54.77a3.7 3.7 0 0 0-.4.16v-.42a3.94 3.94 0 0 0 .4.26zM29.32 44.78a.43.43 0 0 1 .33.51 3.86 3.86 0 0 1-.71-.63zM29.53 54.93v.49l-.42-.28z"/><path class="cls-1" d="M29.53 54.51v.42l-.42.21a5.91 5.91 0 0 1-.66-.45l.71-.39c.14.07.26.16.37.21z"/><path class="cls-1" d="M29.53 54.11v.4c-.11 0-.23-.14-.35-.21zM29.44 49.37l-.31.08c0-.08 0-.17.05-.24a1 1 0 0 0 .26.16zM23.62 43.77c-.14-.19-.3-.37-.44-.59-.1.14-.21.26-.31.4l-.28-.07a1.77 1.77 0 0 0 .17.24c-.14.14-.24.28-.36.42.26 0 .5.09.76.16a20.49 20.49 0 0 0 5.39 4.5 8 8 0 0 0-.87.28A18.39 18.39 0 0 1 22 43.87a.69.69 0 0 1 .75-1c2.06.58 4.12 1.19 6.16 1.8a3.86 3.86 0 0 0 .71.63.45.45 0 0 1-.57.38c-1.59-.28-3.14-.7-4.71-1.06a10.49 10.49 0 0 1-.72-.85z"/><path class="cls-1" d="M29.25 48.69c0 .17-.05.36-.07.52l-.61-.35z"/><path class="cls-1" d="M29.18 49.21c0 .07 0 .16-.05.24a4.51 4.51 0 0 0-.7.16l-.71-.47a8 8 0 0 1 .87-.28z"/><path class="cls-1" d="M29.13 49.45c0 .18 0 .37-.07.56l-.63-.4a4.51 4.51 0 0 1 .7-.16z"/><path class="cls-2" d="M31.48 60.77a28.43 28.43 0 0 0-3.4 1.31c-2.35 1.1-5.58 4.29-8.09 2.09-1.69-1.48-2.74-3.49-4.08-5.25a6.28 6.28 0 0 0 2-2.93c.75 2.1 2.49 4.45 4.39 4 1.47-.36 2.65-1.76 3.63-2.82.35-.37 1-.94 1.55-1.55-1.48 2.08 1.11 4.44 4 5.15z"/><path class="cls-1" d="M29.16 54.3l-.71.39a1 1 0 0 1-.21-.16 1.47 1.47 0 0 0 .19-.73c.23.2.47.33.73.5z"/><path class="cls-1" d="M27.66 54.09c-.19-.14-.38-.29-.54-.43a1.42 1.42 0 0 1 .72-.31 5.11 5.11 0 0 0 .59.45 1.47 1.47 0 0 1-.19.73 5.19 5.19 0 0 1-.58-.44z"/><path class="cls-1" d="M28.43 53.78a5.11 5.11 0 0 1-.59-.45.22.22 0 0 1 .12 0 .48.48 0 0 1 .47.45zM27.66 54.09a5.19 5.19 0 0 0 .58.44 3.3 3.3 0 0 1-.54.82c-.07.1-.16.19-.23.28-.56.61-1.2 1.18-1.55 1.55-1 1.06-2.16 2.46-3.63 2.82-1.9.44-3.64-1.91-4.39-4a3.35 3.35 0 0 0 .21-.75c.73 1.85 2.23 4.17 3.73 4.17s4.46-3.81 5.82-5.33zM27.7 98.56c.33 0 .64.21.49.61a28.33 28.33 0 0 1-2.69 4.88l-.84-.07c.77-1.41 1.78-2.7 2.57-4.06a.86.86 0 0 0 .47-1.36z"/><path class="cls-1" d="M27.7 49.14l.71.47a5.94 5.94 0 0 0-2.65 1.5 10.14 10.14 0 0 0 2.08 2.22 1.42 1.42 0 0 0-.72.31 13.49 13.49 0 0 1-2-2.18.73.73 0 0 1 .12-.89 8 8 0 0 1 2.46-1.43zM27.23 99.92a.72.72 0 0 1-.25 0h-.52l.82-1.13a.54.54 0 0 1 .42-.21.86.86 0 0 1-.47 1.34zM27.12 53.66c.16.14.35.29.54.43-1.36 1.52-4.22 5.32-5.82 5.32s-3-2.32-3.73-4.17v-.17a2.21 2.21 0 0 0 0-.68A14 14 0 0 0 19.54 57c.4.54 1.5 2.14 2.4 1.76a5.06 5.06 0 0 0 1.61-1.12 32.68 32.68 0 0 0 2.68-3 7.66 7.66 0 0 1 .89-.98zM24.66 104l.84.07c-.14.23-.28.47-.4.7h-.31c-.06-.21-.16-.4-.23-.59s.07-.18.1-.18z"/><path class="cls-1" d="M25.1 104.75a1.64 1.64 0 0 0-.16.28q-.07-.16-.15-.3zM24.56 104.14c.07.19.17.38.23.59l-.49-.07c.1-.17.17-.35.26-.52z"/><path class="cls-1" d="M24.66 104s-.05.12-.1.16a1 1 0 0 0-.07-.18zM24.35 44.61c-.4-.11-.77-.18-1.17-.25a3.74 3.74 0 0 1-.4-.58.82.82 0 0 1 .11-.17 7.46 7.46 0 0 1 .75.19 10.49 10.49 0 0 0 .71.81zM23.18 43.18c.14.22.3.4.44.59a7.46 7.46 0 0 0-.75-.19c.13-.14.21-.26.31-.4z"/><path class="cls-1" d="M22.76 43.75a3.74 3.74 0 0 0 .4.58c-.26-.07-.5-.11-.76-.16.12-.17.22-.28.36-.42zM22.87 43.58a.82.82 0 0 0-.11.17 1.77 1.77 0 0 1-.17-.24zM12.09 48c3.14.37 6.21 3.07 6.09 6.35-.09-.23-.21-.47-.32-.7s-.36-.1-.38.09A5.8 5.8 0 0 0 17.9 56a6.28 6.28 0 0 1-2 2.93c-.19-.24-.35-.45-.54-.66a5 5 0 0 0 2.09-4c0-3-2.56-5.18-5.32-5.72a2.76 2.76 0 0 1-.04-.55z"/><path class="cls-1" d="M18.11 55.24a3.35 3.35 0 0 1-.21.75 5.8 5.8 0 0 1-.42-2.21c0-.19.28-.3.38-.09s.23.47.32.7a2.21 2.21 0 0 1 0 .68s-.07.12-.07.17zM17.13 18.89c3.05 3.73-2.39 8.87-4.92 11.07a.47.47 0 0 1-.17.09c0-.32.1-.65.14-1 1.9-2.53 5.7-5.09 5-8.3-1.15-4.81-6.14-1.69-8.58.73a2.29 2.29 0 0 0-.31-.57c2.3-2.18 6.35-5.04 8.84-2.02zM17.64 95.82a14.4 14.4 0 0 1-1.5.14 4.1 4.1 0 0 1-.56-.54 1.57 1.57 0 0 0 .1-.28h.91a8.54 8.54 0 0 0 1.05.68z"/><path class="cls-1" d="M17.2 20.77c.68 3.21-3.12 5.77-5 8.3v-.12a.41.41 0 0 0-.38-.49c1.57-2.23 5-4.15 4.76-6.92-.54-5.41-6.24-.94-8 .89a.63.63 0 0 1-1-.28c-1.31-3.54-6.26-4.5-5.95.49.16 2.56 1 5.58 3.38 7a.87.87 0 0 1 .16.17.49.49 0 0 0-.59.16C2 28.6.6 23.89 1.07 21.26c.94-4.38 5.34-3.54 6.85.1-.07.07-.15.11-.19.18l.28.07c.05.11.07.23.12.35.07-.09.16-.16.23-.26s.26.07.38.1c0-.12-.1-.22-.14-.33 2.46-2.39 7.45-5.47 8.6-.7z"/><path class="cls-2" d="M16.59 21.54c.28 2.77-3.19 4.69-4.76 6.92a.34.34 0 0 0-.35.26c-2.44 6.07-1.69 13.13-1 19.65a.21.21 0 0 0 0 .16c.1 1.06.21 2.11.31 3.12.94 10 .49 20 1.64 30a.89.89 0 0 0 .45.68c-.38-.07-.8.33-.64.7.75 1.76 2.44 2.63 1.31 4.69-1 1.88-3.56 2.84-5 .89a.76.76 0 0 0-1.31 0c-.52.75-2.18 3.1-2.63 1.13-.4-1.67 1.06-3.1 2-4.25a.69.69 0 0 0 0-.89.23.23 0 0 0 0-.12A110 110 0 0 1 4.4 56.92c.47-8.67-.17-17.92 1.12-26.47a.57.57 0 0 0-.37-.65.87.87 0 0 0-.15-.17c-2.35-1.41-3.22-4.43-3.38-7-.31-5 4.64-4 5.95-.49a.63.63 0 0 0 1 .28c1.78-1.82 7.48-6.29 8.02-.88z"/><path class="cls-1" d="M16.59 95.09h-.91c.09-.21.18-.4.25-.61.21.24.43.42.66.61z"/><path class="cls-2" d="M12.18 49.16c3.07 1.06 5.93 3.82 3.8 7.29a7.12 7.12 0 0 1-3.09 2.3c-.07-1.19-.12-2.39-.22-3.59-.14-2.01-.3-4-.49-6z"/><path class="cls-1" d="M16 56.45c2.13-3.47-.73-6.23-3.8-7.29v-.61c2.76.54 5.32 2.77 5.32 5.72a5 5 0 0 1-2.09 4l-.27-.27a.25.25 0 0 0-.38.1 3 3 0 0 0 0 .61 15.83 15.83 0 0 1-1.83 1v-1A7.12 7.12 0 0 0 16 56.45zM16.14 96l-.82.07c.1-.21.17-.4.26-.61a4.1 4.1 0 0 0 .56.54z"/><path class="cls-1" d="M15.91 58.92c-.16.11-.33.25-.49.35-.14-.31-.26-.57-.33-.78a2.83 2.83 0 0 1 .28-.23c.19.21.35.42.54.66zM15.68 95.14a1.57 1.57 0 0 1-.1.28 1.07 1.07 0 0 1-.26-.26z"/><path class="cls-1" d="M15.42 59.27s-.05 0-.07.07l-.47.33a3.2 3.2 0 0 1-.14-.94c.12-.07.23-.17.35-.24.07.21.19.51.33.78z"/><path class="cls-1" d="M15.09 58.49c-.12.07-.23.17-.35.24a3 3 0 0 1 0-.61.25.25 0 0 1 .38-.1l.21.24a2.83 2.83 0 0 0-.24.23z"/><path class="cls-1" d="M14.74 58.73a3.2 3.2 0 0 0 .14.94 5.27 5.27 0 0 1-1.92 1c0-.33 0-.64-.05-1a15.83 15.83 0 0 0 1.83-.94zM7.49 89.65a2.84 2.84 0 0 0 .52.52c-1.22 1.64-3.47 3.42-4.78.89-1.18-2.25.37-5.37 2.53-6.42a.51.51 0 0 1 .09.16c.19.4.71.16.73-.19a.69.69 0 0 1 0 .89c-.93 1.15-2.39 2.58-2 4.25.45 2 2.11-.38 2.63-1.13a.76.76 0 0 1 1.31 0c1.43 1.95 4 1 5-.89 1.17-2.06-.52-2.93-1.27-4.73-.16-.37.26-.77.64-.7a.58.58 0 0 0 .23.09c2.27 1.74 2.86 4.64.82 6.82-1.73 1.86-4 2.51-5.93.92l.42-.56c.05-.1.1-.17.14-.24s-.21 0-.3 0a3 3 0 0 1-.35-.33l-.33.51h-.21a.29.29 0 0 0 .11.14z"/><path class="cls-1" d="M12.14 60.68a1.74 1.74 0 0 0 .82 0c.3 7 .35 14 1.19 21a.75.75 0 0 1-1 .77.23.23 0 0 0-.18-.07.89.89 0 0 1-.45-.68c-1.15-10-.7-20-1.64-30-.1-1-.21-2.06-.31-3.12a.3.3 0 0 0 .26.24 2.19 2.19 0 0 1 .56.14c.33 3.37.68 6.63.75 9.49v.78a1 1 0 0 0-.47.8.48.48 0 0 0 .21.51 1.1 1.1 0 0 0 .26.14z"/><path class="cls-1" d="M13.07 82.41a.58.58 0 0 1-.23-.09.23.23 0 0 1 .23.09zM12.91 59.74c0 .32.05.63.05 1a1.74 1.74 0 0 1-.82 0 3.63 3.63 0 0 0 0-.57zM12.89 58.75v1l-.8.37v-.89a3.74 3.74 0 0 1 .8-.48z"/><path class="cls-1" d="M12.67 55.16c.1 1.2.15 2.4.22 3.59a3.74 3.74 0 0 0-.8.45v-.78c-.07-2.86-.42-6.12-.75-9.49a5.83 5.83 0 0 1 .87.23c.16 2 .32 3.99.46 6zM12.18 29.07c0 .33-.12.66-.14 1a.66.66 0 0 1-.54-.07.43.43 0 0 1-.21-.56 4.36 4.36 0 0 1 .52-.94.41.41 0 0 1 .38.49c.02.01-.01.01-.01.08z"/><path class="cls-1" d="M12.14 48.55v.61a5.83 5.83 0 0 0-.87-.23 3.89 3.89 0 0 0 0-.49 3.77 3.77 0 0 1 .87.11zM12.11 60.11a3.63 3.63 0 0 1 0 .57 1.1 1.1 0 0 1-.31-.15.48.48 0 0 1-.21-.51 1 1 0 0 1 .47-.8c.05.31.05.59.05.89zM12.09 48a2.76 2.76 0 0 0 .05.51 3.77 3.77 0 0 0-.87-.11v-.45a8.4 8.4 0 0 1 .82.05z"/><path class="cls-1" d="M11.5 30a.66.66 0 0 0 .54.07c-.94 6.08-.49 12 .05 18a8.4 8.4 0 0 0-.85 0c-.61-6.39-1.07-13 .26-18.07z"/><path class="cls-1" d="M11.46 28.74a.34.34 0 0 1 .35-.26 4.36 4.36 0 0 0-.52.94.43.43 0 0 0 .21.56c-1.33 5.09-.87 11.7-.26 18a2.55 2.55 0 0 0-.39 0 .44.44 0 0 0-.38.38c-.7-6.49-1.47-13.55.99-19.62z"/><path class="cls-1" d="M11.27 48.44a3.89 3.89 0 0 1 0 .49 2.19 2.19 0 0 0-.56-.14.3.3 0 0 1-.26-.24.21.21 0 0 1 0-.16.44.44 0 0 1 .38-.38 2.55 2.55 0 0 1 .39 0c.02.12.05.26.05.43zM8.62 21.5c0 .11.09.21.14.33-.12 0-.26-.08-.38-.1zM8.57 89.37c0 .07-.09.14-.14.24a1 1 0 0 1-.16-.19c.09-.02.21-.02.3-.05z"/><path class="cls-1" d="M8.31 20.93a2.29 2.29 0 0 1 .31.57l-.24.23a1.39 1.39 0 0 0-.38-.09 1.45 1.45 0 0 0-.09-.25 5.06 5.06 0 0 1 .4-.46zM8.27 89.42a1 1 0 0 0 .16.19l-.43.56a2.84 2.84 0 0 1-.52-.52l.1-.14c.24-.02.42-.05.69-.09z"/><path class="cls-1" d="M8.38 21.73c-.07.1-.16.17-.23.26-.05-.12-.07-.24-.12-.35a1.39 1.39 0 0 1 .35.09zM8.27 89.42c-.24 0-.45.07-.68.09l.33-.51a3 3 0 0 0 .35.42zM8.31 20.93a5.06 5.06 0 0 0-.39.43c-1.51-3.64-5.91-4.48-6.85-.1C.6 23.89 2 28.6 4.54 30a.57.57 0 0 0-.1.19c0 .09-.07.16-.09.26C.79 28.32-1 22.41 1.42 18.92c2.16-3.07 5.58-.4 6.89 2.01z"/><path class="cls-1" d="M7.92 21.36a1.45 1.45 0 0 1 .09.25l-.28-.07c.04-.07.12-.11.19-.18zM7.38 89.54h.21l-.1.14a.29.29 0 0 1-.11-.14zM6.6 84.49a.23.23 0 0 1 0 .12.39.39 0 0 0-.42-.14C1.59 72.28 3.51 57.65 4.23 45.22c.26-4.33-.47-11 .68-14.7a.53.53 0 0 0 .24-.72.57.57 0 0 1 .37.65C4.23 39 4.87 48.25 4.4 56.92a110 110 0 0 0 2.2 27.57z"/><path class="cls-1" d="M6.16 84.47a.39.39 0 0 1 .42.14c0 .35-.54.59-.73.19a.51.51 0 0 0-.09-.16 1.51 1.51 0 0 1 .24-.15.25.25 0 0 1 .16-.02z"/><path class="cls-1" d="M6.16 84.47a.25.25 0 0 0-.12 0 1.51 1.51 0 0 0-.28.15c-4.25-8.12-3.82-18.83-3.24-27.7.33-5 1-10 .92-14.93 0-3.82-.36-7.9.91-11.58a.55.55 0 0 0 .14.09.45.45 0 0 0 .42 0c-1.15 3.71-.42 10.37-.68 14.7-.72 12.45-2.64 27.08 1.93 39.27z"/><path class="cls-1" d="M4.91 30.52a.45.45 0 0 1-.42 0 .55.55 0 0 1-.14-.09c0-.1.07-.17.09-.26a.57.57 0 0 1 .1-.19.49.49 0 0 1 .59-.16.53.53 0 0 1-.22.7z"/><path class="cls-3" d="M40.59 63.93a39.53 39.53 0 0 0-.59 8.46"/><path class="cls-7" d="M40.59 63.93a39.53 39.53 0 0 0-.59 8.46"/><path class="cls-3" d="M40.11 63.8a21 21 0 0 0-.67 8.74.57.57 0 0 0 1.09 0c.46-2.83.24-5.75.55-8.61.07-.57-.83-.66-1-.13zM47.24 67a8.45 8.45 0 0 0 0 5.44"/><path class="cls-7" d="M47.24 67a8.45 8.45 0 0 0 0 5.44"/><path class="cls-3" d="M46.82 66.71c-.87 1.8-1.14 4.3.18 5.93.21.26.57 0 .59-.25a16.23 16.23 0 0 0-.12-2.51 13.19 13.19 0 0 1 .24-2.8c.07-.5-.63-.91-.89-.37zM54.5 67c0 1.81 0 3.63 1.21 4.84"/><path class="cls-7" d="M54.5 67c0 1.81 0 3.63 1.21 4.84"/><path class="cls-3" d="M54.1 67c-.19 1.64-.38 4.33 1.41 5.19.29.14.72-.09.59-.46-.23-.64-.58-1.24-.79-1.89A15.08 15.08 0 0 1 54.9 67a.4.4 0 0 0-.8 0z"/></g></g></svg>