<svg xmlns="http://www.w3.org/2000/svg" viewBox="0 0 129.44 144.47"><defs><style>.cls-1{fill:#1d3033;stroke:#1d3033;stroke-linecap:round;stroke-linejoin:round;stroke-width:.66px}.cls-2{fill:#55513f}.cls-3{fill:#f1c8dd}.cls-4{fill:#fff}.cls-5{fill:#f7e5d7}.cls-6{fill:#b2deed}.cls-7{fill:none}</style></defs><g id="レイヤー_2" data-name="レイヤー 2"><g id="レイヤー_3" data-name="レイヤー 3"><path class="cls-1" d="M128.73 68.11a.38.38 0 0 1 .1.74v-.36c0-.35-.56-.46-.62-.07v.07c-7.41.11-19.17 2.11-23.33 8a.22.22 0 0 0-.16 0c1.16-3.51 6.13-5.41 9.33-6.38a46 46 0 0 1 8.92-1.82c1.51 0 2.92.13 4.2.2a.14.14 0 0 0 0-.28c-.13 0-.26-.07-.41-.13.63-.08 1.33-.02 1.97.03z"/><path class="cls-1" d="M128.52 68.49h-.31v-.07c.06-.39.62-.28.62.07v.36a.14.14 0 0 1-.1 0h-.23a2.75 2.75 0 0 0 .02-.36zM128.73 68.88a.14.14 0 0 0 .1 0c-.05 7-2.85 13.23-4.2 20.05-.72 3.66-1.36 7.35-2 11-.13-.39-.28-.77-.41-1.13 0-.08-.08-.1-.13-.08 1-4.87 1.57-9.74 3.08-14.49 1.56-5 3.15-10.1 3.36-15.33z"/><path class="cls-1" d="M128.52 68.49a2.75 2.75 0 0 1 0 .41 1.51 1.51 0 0 0-.36.06 3.75 3.75 0 0 0 .05-.47h.33zM128.14 69a1.51 1.51 0 0 1 .36-.06c-.21 5.23-1.8 10.36-3.36 15.33-1.51 4.75-2 9.62-3.08 14.49-.1 0-.2.07-.18.2s.05.23.08.33c0 .26-.13.54-.18.8-.64 2.79-.85 5.79-1.51 8.51a.67.67 0 0 0-.49-.62c1.26-6.43 2-13 3.51-19.43 1.57-6.62 3.82-12.88 4.85-19.55zM128.19 68.49a3.75 3.75 0 0 1-.05.47c-4.23.41-8.51.71-12.59 2-4.25 1.25-6.87 3.38-10.35 5.61a.33.33 0 0 0-.34 0c4.14-5.97 15.92-7.97 23.33-8.08zM125.75 68h1c.15.06.28.08.41.13a.14.14 0 0 1 0 .28c-1.28-.07-2.69-.18-4.2-.2a26.19 26.19 0 0 1 2.74-.21h.05z"/><path class="cls-1" d="M126.73 68h-1a28.38 28.38 0 0 0-13.17.26c-3.33 1-10.59 4.59-10.74 8.28a1.7 1.7 0 0 0-.41.05c-.21-2.74 2.56-4.82 5.17-6.23 1-.56 2-1 2.82-1.38a25 25 0 0 1 17.33-.98z"/><path class="cls-2" d="M128.14 69c-1 6.71-3.28 13-4.85 19.55-1.54 6.41-2.25 13-3.51 19.43a1.08 1.08 0 0 0-.36 0c-4.64 1.29-10.79 2.75-14.53 6.34.31-12.41 1.43-25.13.51-37.48a.37.37 0 0 0-.2-.28c3.48-2.23 6.1-4.36 10.35-5.61 4.08-1.28 8.36-1.58 12.59-1.95zm-8 15.45a.55.55 0 0 0-.16-1.07 13.57 13.57 0 0 0-5.13 1.1c.16-2.18.24-4.33.19-6.44a.33.33 0 0 0-.65 0 57.2 57.2 0 0 1-1 7c-1.79.8-3.53 1.75-5.15 2.44-.56.26-.15 1.07.39 1A28 28 0 0 0 113 86.8c-.79 4-1.49 8.07-1 12a.45.45 0 0 0 .85 0c.77-4.07 1.43-8.43 1.82-12.74a54.77 54.77 0 0 1 5.5-1.65z"/><path class="cls-1" d="M125.7 68a26.19 26.19 0 0 0-2.79.21c-7.74-.34-17.61.28-20.5 8.25a2.33 2.33 0 0 0-.59.08c.15-3.69 7.41-7.28 10.74-8.28A28.38 28.38 0 0 1 125.7 68zM122.5 100.48a3.51 3.51 0 0 1 .1-.53c3.64 10.58 3.59 23-4.82 31.32a.55.55 0 0 1-.64.08 10.16 10.16 0 0 0 .08-1.23c6.79-9.08 7.12-18.31 5.12-28.89.06-.23.11-.51.16-.75z"/><path class="cls-1" d="M122.19 98.82c.13.36.28.74.41 1.13a3.51 3.51 0 0 0-.1.53c-.13-.53-.28-1-.46-1.56a.25.25 0 0 0 0-.13s.12-.05.15.03z"/><path class="cls-3" d="M122.34 101.23c2 10.58 1.67 19.81-5.12 28.89a45.73 45.73 0 0 0-.67-8.62c0-.2-.36-.12-.36 0v.57c-.18-.15-.52-.1-.54.15-.44 2.67-2.39 5.23-4.18 7.15a9.44 9.44 0 0 1-3.92 2.7c-1.77.53-2.41-.88-3.69-1.65h-.08l.69-.77a.62.62 0 0 0-.87-.87c-1.48 1.36-2.92 2.66-4.49 3.9a105.47 105.47 0 0 0-2.79-13.18.39.39 0 0 0 .74.1 14.44 14.44 0 0 0 5.92-1.72.34.34 0 0 0 .28-.13v-.06a.77.77 0 0 0 .23-.1.32.32 0 0 0 .18-.3c4.33-4.79 10.1-6 16-8a.58.58 0 0 0 1-.29c.67-2.62 1.19-5.18 1.67-7.77z"/><path class="cls-1" d="M122 98.92c.18.51.33 1 .46 1.56 0 .24-.1.49-.16.75-.12-.64-.25-1.31-.38-2 .08-.08.08-.18.08-.31z"/><path class="cls-1" d="M122 99.25c.13.67.26 1.34.38 2-.48 2.59-1 5.15-1.56 7.71a.58.58 0 0 1-1 .29.67.67 0 0 0 .44-.65c.66-2.72.87-5.72 1.51-8.51.06-.3.14-.58.23-.84zM122.06 98.72a.25.25 0 0 1 0 .13c0 .13-.05.23-.08.33 0-.1 0-.23-.08-.33s.1-.16.16-.13z"/><path class="cls-4" d="M102.38 76.49c2.89-8 12.76-8.59 20.5-8.25a46 46 0 0 0-8.88 1.82c-3.2 1-8.17 2.87-9.33 6.38a11.2 11.2 0 0 0-2.29.05z"/><path class="cls-1" d="M114.81 85.31a5.1 5.1 0 0 0 .07-.87 13.57 13.57 0 0 1 5.13-1.1.55.55 0 0 1 .16 1.07 54.77 54.77 0 0 0-5.41 1.64c.02-.25.05-.48.05-.74zM120.27 108.58a.67.67 0 0 1-.44.65.62.62 0 0 1-.18-.59c0-.23.1-.47.13-.7a.67.67 0 0 1 .49.62z"/><path class="cls-1" d="M104.86 115.2v-.92c3.74-3.59 9.89-5 14.53-6.34a1.08 1.08 0 0 1 .36 0c0 .23-.08.47-.13.7a.62.62 0 0 0 .18.59c-5.92 2.1-11.69 3.26-16 8a.34.34 0 0 0-.36-.36 4.64 4.64 0 0 1 .66-.87.43.43 0 0 0 .8-.18c-.06-.16-.06-.39-.04-.62zM116.55 121.5a45.73 45.73 0 0 1 .67 8.62c-.1.15-.21.3-.33.46a.49.49 0 0 0 .25.77 1.83 1.83 0 0 1 0 .33.54.54 0 0 1-1.08 0 39 39 0 0 1 0-7.64 6.69 6.69 0 0 0 .26-1.67.27.27 0 0 0-.15-.25v-.57c0-.18.33-.25.38-.05z"/><path class="cls-1" d="M116.89 130.58c.12-.16.23-.31.33-.46a10.16 10.16 0 0 1-.08 1.23.49.49 0 0 1-.25-.77zM116.17 122.12a.27.27 0 0 1 .15.25 6.69 6.69 0 0 1-.26 1.67c.03-.64.08-1.31.11-1.92z"/><path class="cls-1" d="M116.17 122.12c0 .61-.08 1.28-.11 1.92-.76 3.1-3.3 6.1-5.61 7.92-2 1.56-6.64 2.64-7.25-.87.2-.2.38-.41.56-.61h.08c1.28.77 1.92 2.18 3.69 1.65a9.44 9.44 0 0 0 3.92-2.7c1.79-1.92 3.74-4.48 4.18-7.15.02-.28.37-.28.54-.16zM114.19 84.72c-.28.1-.54.21-.82.33a57.2 57.2 0 0 0 1-7 .33.33 0 0 1 .65 0c.05 2.11 0 4.26-.19 6.44a6.65 6.65 0 0 0-.64.23z"/><path class="cls-1" d="M114.88 84.44a5.1 5.1 0 0 1-.07.87l-.74.31c.05-.28.07-.59.12-.9a6.65 6.65 0 0 1 .69-.28zM114.81 85.31v.74c-.29.11-.54.21-.82.34 0-.23.07-.49.13-.75z"/><path class="cls-1" d="M113.94 86.39c.28-.13.53-.23.82-.34-.39 4.31-1.05 8.67-1.82 12.74a.45.45 0 0 1-.85 0c-.54-3.92.16-8 1-12l.67-.31a1.6 1.6 0 0 1 .18-.09zM114.19 84.72c0 .31-.07.62-.12.9a5.75 5.75 0 0 0-.88.39c0-.34.13-.64.18-1 .28-.08.54-.19.82-.29z"/><path class="cls-1" d="M113.19 86a5.75 5.75 0 0 1 .88-.39c-.06.26-.08.52-.13.75a1.6 1.6 0 0 0-.23.1l-.67.31z"/><path class="cls-1" d="M113.19 86l-.15.77a28 28 0 0 1-4.43 1.64c-.54.12-1-.69-.39-1 1.62-.69 3.36-1.64 5.15-2.44-.05.42-.13.72-.18 1.03zM103.86 56.17c2.16 1 3.9 2.53 3.69 4.76a12.3 12.3 0 0 1-2.17 5.8c0-.06 0-.08-.06-.13a.32.32 0 0 0-.46-.16 9.87 9.87 0 0 0 2.14-5.51c.12-3.46-5.39-5.25-8.57-5.76.11 0 .16-.08.18-.18a.68.68 0 0 0 0-.23 18.63 18.63 0 0 1 4.39 1.07 1.62 1.62 0 0 1 0 .31c-.08.49.76.59.87.13-.03-.03-.01-.08-.01-.1z"/><path class="cls-1" d="M98.22 55.14a.18.18 0 0 0 .18 0c3.18.51 8.69 2.3 8.57 5.76a9.87 9.87 0 0 1-2.11 5.51s-.13.08-.13.15v.1c.06.21.11.41.18.59a14.26 14.26 0 0 1-8.07 5.41.38.38 0 0 0-.13-.1 4.08 4.08 0 0 0-.62-.51.62.62 0 0 1 .24-.21c3.92-2.08 8.81-4.46 9.84-9.31 1-5-4.51-6.22-8.31-7.09a.42.42 0 0 1 0-.8 1.82 1.82 0 0 0 .36.38s-.02.15 0 .12zM105.14 67.06l.24-.3c.41 1.1.89 2.2 1.3 3.3a.22.22 0 0 1-.15.31.23.23 0 0 1-.28 0 8.23 8.23 0 0 1-1.34-3 2.15 2.15 0 0 0 .23-.31z"/><path class="cls-3" d="M106.53 70.34c-2.61 1.41-5.38 3.49-5.17 6.23-.62-.49-1.18-1-1.72-1.41a8.12 8.12 0 0 0-.85-1A15.2 15.2 0 0 0 97 72.78l-.08-.08a14.26 14.26 0 0 0 8.07-5.41 8.23 8.23 0 0 0 1.34 3 .23.23 0 0 0 .2.05z"/><path class="cls-5" d="M97.81 55.53c3.8.87 9.36 2.07 8.31 7.09-1 4.85-5.92 7.23-9.84 9.31a.62.62 0 0 0-.24.21 16.84 16.84 0 0 0-3.76-2.24 32.59 32.59 0 0 0-9-2.12c-6.64-.9-13.77.56-19.07 4.69-.36.28.1.87.48.61l.11-.07a.39.39 0 0 0 .33.41c-.23 2.57-.39 5.18-.44 7.79-7.79.44-16.35 2-24 0a.43.43 0 0 0-.44.18.54.54 0 0 0-.43-.1c-5 .74-10.9 0-14.1-4.36-4-5.43 3.36-10.36 7.48-5.38.31.35.83-.08.62-.46a1.39 1.39 0 0 0-.18-.31.26.26 0 0 0 .36.16c14.07-6.49 27.37-23.79 28.42-39.58 3.77 5.07 7.26 9.28 12.77 12.81a44.52 44.52 0 0 0 10.66 4.93c-2.9 1.74 2 9.15 3 10.92a.49.49 0 0 0 .72.1.52.52 0 0 0 .31.18c2.79.46 1.84-4.23 1.59-5.79a7.68 7.68 0 0 0-2-4.47 33.64 33.64 0 0 0 5.92.7.32.32 0 0 0 .06.15A14.69 14.69 0 0 1 97 53.24c.29.52.44 1 .75 1.49a.42.42 0 0 0 .06.8zm-39.7 13.22c1.61-1.64.64-6 .33-8-.25-1.66-1-5.71-3.59-5.12-4.56 1.07-.12 12.09 2.36 13.68a.46.46 0 0 0 .69-.38.26.26 0 0 0 .21-.18z"/><path class="cls-1" d="M104.43 114.74a4.36 4.36 0 0 0-.41.46c-.21-12.66 1.15-25.4.64-38a.36.36 0 0 0 .25-.49l.24-.15a.37.37 0 0 1 .2.28c.92 12.35-.2 25.07-.51 37.48a2.23 2.23 0 0 0-.41.42zM105.14 67a2.15 2.15 0 0 1-.23.28c-.07-.18-.12-.38-.18-.59v-.1l.13-.15a.32.32 0 0 1 .46.16c0 .05 0 .07.06.13zM105.2 76.52l-.24.15a.71.71 0 0 0-.15-.15.33.33 0 0 1 .39 0z"/><path class="cls-1" d="M105 76.67a.36.36 0 0 1-.25.49v-.28c.01-.08.11-.13.25-.21z"/><path class="cls-1" d="M105 76.67c-.1.08-.2.13-.3.21v-.16a1.73 1.73 0 0 1 .15-.2.71.71 0 0 1 .15.15zM104.89 114.28v.92a2.06 2.06 0 0 0-.43.41v-.87a2.23 2.23 0 0 1 .43-.46z"/><path class="cls-1" d="M104.43 115.63a2.06 2.06 0 0 1 .43-.41v.69a.43.43 0 0 1-.8.18 3.31 3.31 0 0 1 .37-.46zM104.84 66.47l-.13.15c0-.07.05-.12.13-.15zM104.84 76.49zM104.81 76.52a1.73 1.73 0 0 0-.15.2c0-.1 0-.18.13-.2z"/><path class="cls-2" d="M104.66 77.16c.51 12.64-.85 25.38-.64 38a7.87 7.87 0 0 0-1.23 1.82c-2 .28-3.7 1.28-5.67 1.51.46-13.43 4-27.48 2.16-40.86a.62.62 0 0 0 .2 0c1.74-.19 3.52-.01 5.18-.47z"/><path class="cls-1" d="M104.63 76.47a.22.22 0 0 1 .16 0c-.08 0-.11.1-.13.2a.35.35 0 0 0 0 .08h-.08a1.76 1.76 0 0 1 .05-.28zM103.43 56c.41-3.54 1.66-6.33 1.2-10.07a24.57 24.57 0 0 0-3.18-9.23c-3.15-5.46-8.38-10.07-14.58-11.59a.42.42 0 0 0 .18-.28A23.32 23.32 0 0 1 102 36.4c3.71 7 3.28 12.28 1.89 19.77z"/><path class="cls-1" d="M104.63 45.94c.46 3.74-.79 6.53-1.2 10.07a4.58 4.58 0 0 0-.44-.18c.9-6.69 1.72-12.69-2.07-18.84a26.12 26.12 0 0 0-14.77-11.74 3.17 3.17 0 0 1 .44 0 .34.34 0 0 0 .28-.11c6.2 1.52 11.43 6.13 14.58 11.59a24.57 24.57 0 0 1 3.18 9.21zM104.66 76.88v.28c-1.62.46-3.44.28-5.13.46a.4.4 0 0 0 .28-.33 10.38 10.38 0 0 1 1.62-.21.38.38 0 0 0 .72 0 .14.14 0 0 1 0-.1c.79-.08 1.59-.11 2.33-.21.05.11.1.16.18.11z"/><path class="cls-1" d="M104.66 76.72v.16c-.08.05-.13 0-.13-.08h.08a.35.35 0 0 1 .05-.08zM104.63 76.44a1.76 1.76 0 0 0-.1.3c-.74.1-1.54.13-2.33.21a1.53 1.53 0 0 1 .18-.52 11.2 11.2 0 0 1 2.23 0zM99.2 133.45c0-.26-.08-.51-.11-.74 1.57-1.24 3-2.54 4.49-3.9a.62.62 0 0 1 .87.87l-.69.77a.45.45 0 0 0-.61.41.39.39 0 0 0 0 .2 13 13 0 0 1-3.9 3 4.35 4.35 0 0 0-.05-.61zM104.43 114.74v.89a3.31 3.31 0 0 0-.39.44V115.2a4.36 4.36 0 0 1 .39-.46zM104 115.89v.18a4.64 4.64 0 0 0-.66.87 5.59 5.59 0 0 0-.59.08 7.87 7.87 0 0 1 1.25-1.82zM103.43 56l.43.16v.1c-.11.46-1 .36-.87-.13a1.62 1.62 0 0 0 0-.31 4.58 4.58 0 0 1 .44.18zM103.07 117.4a2.48 2.48 0 0 1 .31-.46.34.34 0 0 1 .36.36 3.09 3.09 0 0 0-.41.4v.06l-.28.15a.5.5 0 0 1-.41-.38z"/><path class="cls-1" d="M103.76 130.45c-.18.2-.36.41-.56.61a.39.39 0 0 1 0-.2.45.45 0 0 1 .56-.41zM103.35 117.73a3.09 3.09 0 0 1 .41-.4.32.32 0 0 1-.18.3.77.77 0 0 1-.23.1zM103.38 116.94a2.48 2.48 0 0 0-.31.46l-.49.16a.48.48 0 0 1 0-.26 2.32 2.32 0 0 1 .16-.28 5.59 5.59 0 0 1 .64-.08zM103.3 117.79a.34.34 0 0 1-.28.13z"/><path class="cls-3" d="M100.92 37c3.79 6.15 3 12.15 2.07 18.84a18.63 18.63 0 0 0-4.36-1.07c.39-1.59-1.41-3.47-2.64-4.31 0-.13 0-.26-.2-.28a62.19 62.19 0 0 1-18-6.1c-6.77-3.36-10.1-8.74-15.28-13.56v-.08a.59.59 0 0 0 0-.2 66.73 66.73 0 0 1 23.63-5A26.12 26.12 0 0 1 100.92 37z"/><path class="cls-1" d="M102.79 117a2.32 2.32 0 0 0-.16.28.48.48 0 0 0 0 .26 22.8 22.8 0 0 1-5.46 1.53v-.56c1.92-.21 3.67-1.21 5.62-1.51z"/><path class="cls-1" d="M102.58 117.56a.5.5 0 0 0 .41.38 14.44 14.44 0 0 1-5.92 1.72.18.18 0 0 0 0-.13 3.31 3.31 0 0 1 0-.44 22.8 22.8 0 0 0 5.51-1.53zM101.79 76.57a2.33 2.33 0 0 1 .59-.08 1.53 1.53 0 0 0-.18.52h-.49a.18.18 0 0 0 0-.15c-.1-.08-.21-.16-.28-.23a1.7 1.7 0 0 1 .36-.06z"/><path class="cls-1" d="M102.2 77a.14.14 0 0 0 0 .1.38.38 0 0 1-.72 0h.08c.08 0 .17 0 .2-.1z"/><path class="cls-1" d="M101.4 76.93a1.1 1.1 0 0 1 0-.25c.07.07.18.15.28.23a.18.18 0 0 1 0 .15 2 2 0 0 1-.28 0 .27.27 0 0 1 0-.13zM101.43 77.08a2 2 0 0 0 .28 0c0 .08-.1.15-.2.1s-.06-.07-.08-.1z"/><path class="cls-1" d="M101.4 76.93a.27.27 0 0 0 0 .15 4 4 0 0 1-.51-.38h.1a.88.88 0 0 0 .38.2z"/><path class="cls-1" d="M100.92 76.7a4 4 0 0 0 .51.38 10.38 10.38 0 0 0-1.62.21.41.41 0 0 0 0-.34c.34-.1.72-.18 1.11-.25zM101.38 76.65a1.1 1.1 0 0 0 0 .25.88.88 0 0 1-.38-.2 1.57 1.57 0 0 1 .31-.08l.07.03zM101.38 76.62z"/><path class="cls-1" d="M101.33 76.62a1.57 1.57 0 0 0-.31.08 7.74 7.74 0 0 1-1.41-1.49c.54.46 1.1.92 1.72 1.41z"/><path class="cls-1" d="M96 72.24a.5.5 0 0 0 .59.56.3.3 0 0 0 .16 0l.08.08c.87.74 1.71 1.53 2.64 2.33A7.74 7.74 0 0 0 101 76.7h-.1c-2.06-1.49-3.64-3.54-6-4.64a33.78 33.78 0 0 0-11.58-3.28c-6.31-.46-12 .35-17.41 3.59h-.56a.57.57 0 0 0-.51.59l-.11.07c-.38.26-.84-.33-.48-.61 5.3-4.13 12.43-5.59 19.07-4.69a32.59 32.59 0 0 1 9 2.12A16.84 16.84 0 0 1 96 72.14v.1z"/><path class="cls-4" d="M100.92 76.7c-.39.07-.77.15-1.13.25a.51.51 0 0 0-.31-.23c-5.26-1.36-9.92-3.92-15.41-5-6.25-1.2-12 0-18.17.62 5.38-3.24 11.1-4.05 17.41-3.59a33.78 33.78 0 0 1 11.58 3.28c2.39 1.13 3.97 3.18 6.03 4.67z"/><path class="cls-1" d="M99.92 138.65a.4.4 0 0 1 .07.54c.01-.19-.05-.36-.07-.54zM99.35 139.14a4.59 4.59 0 0 1-.13-.56h.08a.56.56 0 0 1 .62.1c0 .18 0 .36.07.54a.43.43 0 0 1-.07.1 3.18 3.18 0 0 1-.52.46.61.61 0 0 1-.59-.28c.19-.13.36-.23.54-.36z"/><path class="cls-1" d="M100 139.22a.53.53 0 0 1-.59.56 3.18 3.18 0 0 0 .52-.46.43.43 0 0 0 .07-.1zM99 77.18a6.8 6.8 0 0 1 .72-.21.41.41 0 0 1 0 .34 3.27 3.27 0 0 0-.56.1c0-.13-.18-.13-.21 0s0 .15 0 .23a.25.25 0 0 1 .05-.46z"/><path class="cls-1" d="M99.25 77.39a3.27 3.27 0 0 1 .56-.1.4.4 0 0 1-.28.33h-.2a.357.357 0 0 1-.08-.23zM99.79 77a6.8 6.8 0 0 0-.72.21c-1.48-.1-3.25-1.3-4.58-1.82a54.1 54.1 0 0 0-6.11-1.89 45.61 45.61 0 0 0-13.71-1.54c-2.84.21-5.92.95-8.79 1a.32.32 0 1 0-.64 0v.46a.39.39 0 0 1-.33-.41 9.16 9.16 0 0 1 1.07-.64c6.18-.65 11.92-1.82 18.17-.62 5.49 1 10.15 3.61 15.41 5a.51.51 0 0 1 .23.25zM99.92 138.65a.56.56 0 0 0-.62-.1h-.08c-.25-1.24-.41-2.7-.56-4.21a2 2 0 0 0 .64-.26c.23 1.52.44 3.03.62 4.57zM99.28 77.67c1.81 13.38-1.7 27.43-2.16 40.86a.61.61 0 0 1-.23 0 .67.67 0 0 0-.23-.13c0-2.77.67-5.56.77-8.36.13-3.61.36-7.25.61-10.86.52-7.18 1.08-14.33 1.11-21.51zM99.48 77.65a.62.62 0 0 1-.2 0zM98.81 139.5a.61.61 0 0 0 .59.28c-4.51 4.1-14 4.23-18-.28 0-.05-.08-.08-.08-.13a1.79 1.79 0 0 0 .23-.26.22.22 0 0 0 0-.3.33.33 0 0 1 .44 0c5.76 3.76 10.92 2.43 16.68 0a4.64 4.64 0 0 0 .11.51z"/><path class="cls-1" d="M99.22 138.58a4.59 4.59 0 0 0 .13.56c-.18.13-.36.23-.54.36l-.07-.16a4.64 4.64 0 0 1-.11-.51 6.14 6.14 0 0 0 .59-.25zM99.2 133.45a4.35 4.35 0 0 1 .1.66 2 2 0 0 1-.64.26c0-.18 0-.36-.08-.56a4 4 0 0 0 .62-.36zM99.25 77.39v.26h-.13v-.26z"/><path class="cls-1" d="M99.25 77.39h-.1v.24h-.06-.07c-.07 0 0-.15 0-.23s.23-.14.23-.01zM99.22 138.58a6.14 6.14 0 0 1-.59.25 25.14 25.14 0 0 1-.59-4.25 2.78 2.78 0 0 0 .59-.21c.18 1.51.37 2.97.59 4.21zM99.09 132.71c0 .23.08.48.11.74a4 4 0 0 1-.62.36 6.23 6.23 0 0 0 0-.72c.16-.09.34-.26.51-.38zM99.15 77.65a.07.07 0 0 1-.06 0z"/><path class="cls-1" d="M99.09 77.65a.07.07 0 0 0 .06 0c0 7.18-.59 14.33-1.11 21.51-.25 3.61-.48 7.25-.61 10.86-.1 2.8-.77 5.59-.77 8.36a1.77 1.77 0 0 0-.36-.2c0-7.1.77-14.38 1.31-21.43.49-6.34.39-12.85 1.39-19.13 0 .03.07.05.09.03zM99.09 132.71c-.17.12-.35.25-.56.38-.13-1.26-.23-2.51-.38-3.64-.41-3.43-2-7-2-10.3a.45.45 0 0 0 .11.31 105.47 105.47 0 0 1 2.83 13.25zM99 77.18a.25.25 0 0 0 0 .44c-5.2-.77-10-3.49-15.38-4.31-6.15-1-11.69 0-17.77.13v-.48c2.87-.08 6-.82 8.79-1a45.61 45.61 0 0 1 13.71 1.54 54.1 54.1 0 0 1 6.11 1.89c1.33.49 3.1 1.69 4.54 1.79zM96 50.45c1.23.84 3 2.72 2.64 4.31a1.23 1.23 0 0 1-.33 0 8.35 8.35 0 0 0-2.51-4 .29.29 0 0 0 .2-.31zM98.58 133.81c0 .2 0 .38.08.56a2.78 2.78 0 0 1-.59.21 4.1 4.1 0 0 1 0-.49z"/><path class="cls-1" d="M98.3 54.73a1.23 1.23 0 0 0 .33 0 .68.68 0 0 1 0 .23c0 .1-.07.18-.18.18a.4.4 0 0 1-.18 0h-.07a1.82 1.82 0 0 1-.36-.38.27.27 0 0 1 .15 0c.01-.06.18-.03.31-.03zM98.58 133.81l-.56.28a3.92 3.92 0 0 1 0-.59 5.75 5.75 0 0 0 .56-.41 6.23 6.23 0 0 1 0 .72zM98.53 133.09a5.75 5.75 0 0 1-.56.41 41.09 41.09 0 0 0-.54-5.2c-.59-3-1.9-6.08-1.39-9.15h.08c0 3.25 1.62 6.87 2 10.3.18 1.13.28 2.38.41 3.64zM98.4 55.17a.18.18 0 0 1-.18 0 .4.4 0 0 0 .18 0z"/><path class="cls-1" d="M98.3 54.73h-.36a.27.27 0 0 0-.15 0c-.31-.46-.46-1-.75-1.49a14.69 14.69 0 0 0-1.58-2.33.32.32 0 0 1-.06-.15h.39a8.35 8.35 0 0 1 2.51 3.97z"/><path class="cls-6" d="M98 134.58a25.14 25.14 0 0 0 .59 4.25c-5.76 2.41-10.92 3.74-16.68 0a.33.33 0 0 0-.44 0 .22.22 0 0 0-.26-.08c-3.81 1.18-6.33 3.87-10.61 4.05s-8.6-2.1-11.88-4.56a.29.29 0 0 0-.43-.33.22.22 0 0 0-.18.08c-7.2 3.46-19.91 4.87-22.89-4.64a.5.5 0 0 0-.28-.69.41.41 0 0 0-.18-.05h-.16c-4.64.84-9.25 1.23-13.58-.72a.33.33 0 0 0 .44-.1q2.16-2.46 4.2-5.07a.61.61 0 0 0 .29-.39c3.94-5 7.58-10.28 11.27-15.4 3.9-5.41 9.16-11.43 10.39-18.18 1.33 5.13 4.69 9.87 8.4 13.64 1.62 1.64 9.72 10.66 12.56 7.31a.45.45 0 0 0 0-.13s.08 0 .08-.08v-.07a106.22 106.22 0 0 0 13 2.23A104 104 0 0 1 96 119.12c-.51 3.07.8 6.15 1.39 9.15a41.09 41.09 0 0 1 .54 5.2 3.4 3.4 0 0 1-.28.21.48.48 0 0 0 .35.9z"/><path class="cls-1" d="M98 134.09a4.1 4.1 0 0 0 0 .49.48.48 0 0 1-.35-.87 3.4 3.4 0 0 0 .28-.21 3.92 3.92 0 0 0 .07.59z"/><path class="cls-2" d="M99 77.62c-1 6.28-.92 12.79-1.41 19.15-.54 7-1.33 14.33-1.31 21.43-7.66-4.92-18.79-4.62-27.5-5.8a11.53 11.53 0 0 0-1.75-5.59c.24-11.05-.61-22.3-1.18-33.35 6.08-.13 11.62-1.1 17.77-.13 5.38.8 10.2 3.52 15.38 4.29z"/><path class="cls-1" d="M97.12 118.53v.56h-.05a.42.42 0 0 0-.15-.51.61.61 0 0 0 .2-.05z"/><path class="cls-1" d="M96.71 119.32a.33.33 0 0 0 .33-.23h.05a3.31 3.31 0 0 0 0 .44.18.18 0 0 1 0 .13 2.17 2.17 0 0 1-.36 0 .66.66 0 0 1-.38-.12v-.34l.28.08a.56.56 0 0 1 .08.04z"/><path class="cls-1" d="M96.69 118.89a1.09 1.09 0 0 1 0-.31.55.55 0 0 0 .18 0 .42.42 0 0 1 .15.51.33.33 0 0 1-.33.23 3.1 3.1 0 0 1 0-.43zM96.71 119.68a2.17 2.17 0 0 0 .36 0 .39.39 0 0 1-.74-.1.66.66 0 0 0 .38.1zM96.89 118.56a.55.55 0 0 1-.18 0v-.15a.67.67 0 0 1 .18.15zM96.66 72.65a.38.38 0 0 1 .13.1.3.3 0 0 1-.16 0 .5.5 0 0 1-.59-.56 6 6 0 0 1 .62.46z"/><path class="cls-1" d="M96.69 118.89a3.1 3.1 0 0 0 0 .43.56.56 0 0 0-.1 0l-.28-.08v-.46a2.37 2.37 0 0 1 .38.11z"/><path class="cls-1" d="M96.66 118.58a1.09 1.09 0 0 0 0 .31 2.37 2.37 0 0 0-.34-.13.69.69 0 0 1 .34-.18z"/><path class="cls-1" d="M96.66 118.43v.15a.69.69 0 0 0-.31.15 3.08 3.08 0 0 1 0-.53 1.77 1.77 0 0 1 .36.2zM96.66 72.65a6 6 0 0 0-.62-.41v-.1a4.08 4.08 0 0 1 .62.51zM96.35 118.73zM96.33 119.22v.31s0-.21-.08-.31a.69.69 0 0 0 .08 0z"/><path class="cls-1" d="M96.33 118.79v.43a.69.69 0 0 1-.13 0 .41.41 0 0 1 .13-.43z"/><path class="cls-1" d="M96.33 118.73v.06a.41.41 0 0 0-.16.33.07.07 0 0 0-.13 0 104 104 0 0 0-14.35-3.51 106.22 106.22 0 0 1-13-2.23 2.72 2.72 0 0 0 0-.49c9.18 1.95 19.1 1.64 27.64 5.84z"/><path class="cls-1" d="M96.3 118.2a3.08 3.08 0 0 0 0 .53c-8.54-4.2-18.46-3.89-27.56-5.84a2.63 2.63 0 0 0 0-.49c8.77 1.18 19.9.88 27.56 5.8zM96.2 119.17c0 .1 0 .21.08.31a.45.45 0 0 1-.11-.31zM96.12 119.15H96a.07.07 0 0 1 .13 0zM96 50.45l-.12-.08a.28.28 0 0 0-.41.08c-4.49-.21-10.08-2.23-14.13-4a43.29 43.29 0 0 1-12.56-8c-2.41-2.23-4.13-5.31-6.25-7.64v-.38c5.18 4.82 8.51 10.2 15.28 13.56a62.19 62.19 0 0 0 18 6.1c.13.1.19.23.19.36z"/><path class="cls-1" d="M95.46 50.45a.28.28 0 0 1 .41-.08l.12.08a.29.29 0 0 1-.2.31h-.39a.27.27 0 0 1 .06-.31z"/><path class="cls-1" d="M95.46 50.45a.27.27 0 0 0-.06.31 33.64 33.64 0 0 1-5.92-.7.53.53 0 0 0-.12-.15 3.77 3.77 0 0 0-3-1 1.17 1.17 0 0 0-.46.23 44.52 44.52 0 0 1-10.66-4.93c-5.51-3.53-9-7.74-12.77-12.81a2.69 2.69 0 0 0 0-.49c2.12 2.33 3.84 5.41 6.25 7.64a43.29 43.29 0 0 0 12.56 8c4.1 1.67 9.72 3.69 14.18 3.9z"/><path class="cls-1" d="M91.51 54.53c.25 1.56 1.2 6.25-1.59 5.79a.52.52 0 0 1-.31-.18.44.44 0 0 0 .16-.49 1.2 1.2 0 0 0-.11-.23l.11-.1C91.3 60.4 91.15 58.24 91 57c0-2.31-.47-6-2.93-7.07-5.07-2.31.47 8.15 1.23 9.84l.06-.05a.83.83 0 0 0 .25.41.49.49 0 0 1-.72-.1c-.94-1.77-5.87-9.18-3-10.92a34.57 34.57 0 0 0 3.56.94 7.68 7.68 0 0 1 2.06 4.48z"/><path class="cls-1" d="M91 57c.15 1.23.3 3.39-1.23 2.31l-.11.1a2.92 2.92 0 0 0-.18-.46 1.41 1.41 0 0 1 .82-.18v-1.38a21.8 21.8 0 0 0-.3-3.45c-.36-1.47-1-3.18-2.69-3.52-.67-.12-.54.26-.46.85.33 2.59 1.66 5.23 2.66 7.69a.57.57 0 0 0-.18.36.61.61 0 0 1 0 .23v.18l-.06.05c-.76-1.69-6.3-12.15-1.23-9.84C90.53 51 91 54.7 91 57z"/><path class="cls-1" d="M90.33 57.37v1.38a1.41 1.41 0 0 0-.82.18c-1-2.46-2.33-5.1-2.66-7.69-.08-.59-.21-1 .46-.85 1.64.34 2.33 2 2.69 3.52a21.8 21.8 0 0 1 .33 3.46zM89.77 59.65a.44.44 0 0 1-.16.49.83.83 0 0 1-.25-.41l.3-.31a1.2 1.2 0 0 1 .11.23z"/><path class="cls-1" d="M89.48 59a2.92 2.92 0 0 1 .18.46l-.3.31v-.18a.61.61 0 0 0 0-.23.57.57 0 0 1 .12-.36zM89.36 49.91a.53.53 0 0 1 .12.15 34.57 34.57 0 0 1-3.56-.94 1.17 1.17 0 0 1 .46-.23 3.77 3.77 0 0 1 2.98 1.02zM87.15 24.25a.28.28 0 0 1-.13.34.46.46 0 0 0-.23-.26c-1.1-.92-2.07-2.38-3.33-3.23a.23.23 0 0 0 0-.44h-.1l.1-.05a9.17 9.17 0 0 1 2.13 1.74 7.16 7.16 0 0 1 1.56 1.9zM87 24.61a.56.56 0 0 1 0 .23 4.24 4.24 0 0 0-.46-.1l-.34-.08a.32.32 0 0 0-.25.08c-13.54 0-28 4.36-39 12.41-4 2.94-8.85 5-12.92 8s-7.54 6.49-11.33 9.74c-1.11 1-2.82 3-4 4.23a.26.26 0 0 0-.16-.12 1.33 1.33 0 0 0-.05-.34c3-4.35 7.77-8.07 11.69-11.33 5.59-4.64 12-8.12 18.07-12.07A68.5 68.5 0 0 1 86 24.28a1.69 1.69 0 0 0 .74.41.41.41 0 0 0 .26-.08z"/><path class="cls-1" d="M86.87 25.12a.34.34 0 0 1-.28.11 3.17 3.17 0 0 0-.44 0h-.05a.28.28 0 0 1-.1-.49h.59a4.24 4.24 0 0 1 .46.1.42.42 0 0 1-.18.28zM87 24.59a.41.41 0 0 1-.33.08 1.69 1.69 0 0 1-.74-.41h.64a.42.42 0 0 1 .2 0 .46.46 0 0 1 .23.33z"/><path class="cls-1" d="M86.79 24.33a.42.42 0 0 0-.2 0H86a7.86 7.86 0 0 1-.85-1A13.21 13.21 0 0 0 83 21.25a.26.26 0 0 1-.13-.2c.15 0 .31.07.46.1a.22.22 0 0 0 .18 0c1.21.85 2.18 2.26 3.28 3.18zM86.59 24.74H86a.32.32 0 0 1 .25-.08zM86.1 25.23h.05a66.73 66.73 0 0 0-23.63 5 .47.47 0 0 0-.59-.24c-.16 0-.34.13-.26.29a.44.44 0 0 0-.05.15v.18a113.41 113.41 0 0 0-16 8.38c-6.2 3.82-12.07 7.28-17.62 12.15-2.84 2.49-5.89 6.44-9.2 8.49a.75.75 0 0 1 .05-.16.28.28 0 0 0-.1-.31c1.18-1.23 2.89-3.28 4-4.23 3.79-3.25 7.28-6.76 11.33-9.74s8.87-5.1 12.92-8c11-8 25.42-12.41 39-12.41a.28.28 0 0 0 .1.45z"/><path class="cls-4" d="M86 24.28a68.5 68.5 0 0 0-37.61 11c-6.07 4-12.48 7.43-18.07 12.07-3.92 3.26-8.71 7-11.69 11.33-.15-.61-.61-1.28-.82-1.87a13.56 13.56 0 0 1-.43-2.56 1.37 1.37 0 0 0 .61-.82c1.57-4.69 8.69-9.84 12.43-12.54 4.93-3.56 10.56-6.2 16-9a96.24 96.24 0 0 1 19.53-7.82c5.43-1.51 11.23-4.18 17-3a.26.26 0 0 0 .13.2 13.21 13.21 0 0 1 2.15 2.08 7.86 7.86 0 0 0 .77.93z"/><path class="cls-1" d="M82.79 6.13a.23.23 0 0 0 .08-.13c1.61 2.38.9 5.72.87 8.46 0 1.15-.15 2.26-.18 3.41 0 .64.16 1.28.16 1.9 0 .41 0 .36-.13.25a.3.3 0 0 1 0 .13v.1a.37.37 0 0 1-.2.39v-.05a.38.38 0 0 0-.41 0l-.36-.08c-1.21-1.1-.23-3.9-.08-5.36.23-2.59 1.08-6.23.1-8.82a.19.19 0 0 0 .15-.2zM83.56 20s.03 0 0 0z"/><path class="cls-1" d="M83.46 21.1a.22.22 0 0 1-.18 0c-.15 0-.31-.08-.46-.1a.31.31 0 0 1 0-.33.07.07 0 0 1 0-.06.42.42 0 0 0 .47 0h.1a.23.23 0 0 1 .07.49z"/><path class="cls-1" d="M83.36 20.54v.05l-.1.05a1.78 1.78 0 0 0-.36-.1.38.38 0 0 1 .46 0z"/><path class="cls-1" d="M83.31 20.64a.42.42 0 0 1-.47 0 .6.6 0 0 1 .11-.12 1.78 1.78 0 0 1 .36.12z"/><path class="cls-1" d="M82.59 20.46l.36.08a.6.6 0 0 0-.11.12.1.1 0 0 1-.07 0 .52.52 0 0 1-.18-.2zM82.72 5.59a.29.29 0 0 1 .15.36c-.05-.1-.13-.2-.2-.31s-.34 0-.26.13a.2.2 0 0 1 0 .1 75.25 75.25 0 0 0-9.15-3C62.57.54 49.88.77 39 1.85c-1.75.18-4.75.82-6.41.85h.05c.26-.1.08-.51-.18-.44a9.28 9.28 0 0 0-1.13.47.6.6 0 0 1 .59-.65C40.78 1.85 49.42 0 58.39.39a68.11 68.11 0 0 1 24.33 5.2z"/><path class="cls-1" d="M82.46 5.9a.2.2 0 0 0 0-.1c-.08-.15.15-.28.26-.13s.15.21.2.31a.23.23 0 0 1-.08.18.19.19 0 0 1-.18.15zM82.84 20.66a.07.07 0 0 0 0 .06c-4.94-1.39-12.48 1.53-17.12 2.74a78.5 78.5 0 0 0-17.94 6.87c-8.79 4.82-18.51 9-25.33 16.68-1.49 1.67-3.59 4.11-5.18 5.59a8.4 8.4 0 0 1-.71-.77c3.23-1 5.87-6 8.3-8.15a60.59 60.59 0 0 1 6.59-5 154 154 0 0 1 19.76-10.84A127 127 0 0 1 70 21.59c4.15-1.08 8.38-2.1 12.56-1.13a.52.52 0 0 0 .18.18.1.1 0 0 0 .1.02z"/><path class="cls-1" d="M82.79 20.72a.31.31 0 0 0 0 .33c-5.74-1.18-11.54 1.49-17 3a96.24 96.24 0 0 0-19.53 7.82c-5.39 2.84-11 5.48-15.95 9-3.74 2.7-10.86 7.85-12.43 12.54a1.37 1.37 0 0 1-.61.82v-.8a.61.61 0 0 0-.06-.87c1.59-1.48 3.69-3.92 5.18-5.59 6.82-7.66 16.54-11.86 25.33-16.68a78.5 78.5 0 0 1 17.94-6.87c4.65-1.17 12.19-4.09 17.13-2.7z"/><path class="cls-6" d="M82.61 6.28c1 2.59.13 6.23-.1 8.82-.15 1.46-1.13 4.26.08 5.36-4.18-1-8.41.05-12.56 1.13a127 127 0 0 0-18.82 6.25A154 154 0 0 0 31.4 38.66a60.59 60.59 0 0 0-6.59 5c-2.43 2.13-5.07 7.15-8.3 8.15C11 46.09 7 39.22 1.46 33.53a134.92 134.92 0 0 1 15.71-18C21.79 11 25.71 6 31.55 3.16a.55.55 0 0 0 .36.12C39.14 3.62 46.68 1.9 54 1.82c9.89-.1 19 1.65 28.42 4.44a.65.65 0 0 0 .19.02z"/><path class="cls-1" d="M82.46 5.9l.15.38a.65.65 0 0 1-.18 0C73 3.47 63.9 1.72 54 1.82c-7.33.08-14.87 1.8-22.1 1.46a.55.55 0 0 1-.36-.12c.34-.16.67-.31 1-.46 1.66 0 4.66-.67 6.41-.85C49.88.77 62.57.54 73.28 2.88a75.25 75.25 0 0 1 9.15 3zM81.51 138.81a.22.22 0 0 1 0 .3 1.79 1.79 0 0 1-.23.26.49.49 0 0 1 .23-.56z"/><path class="cls-1" d="M58.6 138.5a1.62 1.62 0 0 1 .1-.18.12.12 0 0 0 0-.08c3.31 2.46 7.67 4.74 11.92 4.54s6.8-2.87 10.61-4.05a.22.22 0 0 1 .26.08.49.49 0 0 0-.18.56c-5.84 7.28-16.94 5.56-22.89-.67zM68.8 112.38a2.63 2.63 0 0 1 0 .49 1.21 1.21 0 0 0-.18 0 2.28 2.28 0 0 0 0-.44.39.39 0 0 1 .15 0zM68.8 112.38h-.11a.39.39 0 0 0-.15 0 12.56 12.56 0 0 0-1.72-4.71.72.72 0 0 0 .23-.51v-.39a11.53 11.53 0 0 1 1.75 5.61zM68.77 112.89a2.72 2.72 0 0 1 0 .49h-.08c-.08 0 0-.1-.07-.1a2.82 2.82 0 0 0 0-.41 1.21 1.21 0 0 1 .15.02z"/><path class="cls-1" d="M68.72 113.38v.07s0 .06-.08.08a.19.19 0 0 0 0-.18s.05.03.08.03z"/><path class="cls-1" d="M68.57 113.33a.1.1 0 0 0 .07 0 .19.19 0 0 1 0 .18.13.13 0 0 1-.23 0 2.38 2.38 0 0 0 0-.26h.08c.08 0 .03.08.08.08z"/><path class="cls-1" d="M59 108.43h.05a1.09 1.09 0 0 1 .28-.29c3 3 7.23 6.72 8.82 5.13l.07-.08a.16.16 0 0 0 .13.08 2.38 2.38 0 0 1 0 .26.13.13 0 0 0 .23 0 .45.45 0 0 1 0 .13C65.75 117 57.65 108 56 106.38c-3.71-3.77-7.07-8.51-8.4-13.64 0-.15 0-.28.07-.43a.44.44 0 0 0-.33-.54 16.61 16.61 0 0 1 .31-8.41H48c-2 6.46 1.18 13.51 4.9 18.71a63.73 63.73 0 0 0 5.23 5.57c-.35.56.44 1.2.87.79zM68.64 113.35a.1.1 0 0 1-.07 0 .06.06 0 0 0 0-.08s.05.03.07.08zM68.59 112.84a2.82 2.82 0 0 1 0 .41.31.31 0 0 0-.23-.1c0-.21-.08-.39-.11-.57a.35.35 0 0 1 .31-.18 2.28 2.28 0 0 1 .03.44z"/><path class="cls-1" d="M68.57 113.25a.06.06 0 0 1 0 .08H68.36c-.08 0 0-.08 0-.1a.31.31 0 0 1 .21.02zM68.34 113.15v.1a.16.16 0 0 1-.13-.08.75.75 0 0 0 .13-.02zM68.54 112.4a.35.35 0 0 0-.31.18 19.91 19.91 0 0 0-1.94-4.71.78.78 0 0 0 .53-.18 12.56 12.56 0 0 1 1.72 4.71z"/><path class="cls-1" d="M68.34 113.15a.75.75 0 0 1-.11 0 .39.39 0 0 1 0-.59c.03.2.08.38.11.59z"/><path class="cls-5" d="M68.23 113.17l-.07.08c-1.59 1.59-5.8-2.08-8.82-5.13a31.22 31.22 0 0 1 4.69-4c.51.88 1 1.72 1.56 2.59a2.48 2.48 0 0 1 0 .47.72.72 0 0 0 .67.69 19.91 19.91 0 0 1 1.94 4.71.39.39 0 0 0 .03.59z"/><path class="cls-1" d="M65.87 73.44c.57 11 1.42 22.3 1.18 33.35-.2-.41-.46-.85-.71-1.26-.08-7.79-.67-15.68-.85-23.53a.51.51 0 0 0 0-.48c0-2.7 0-5.39.05-8a1.23 1.23 0 0 0 .33-.08z"/><path class="cls-1" d="M67.05 106.79v.39a.72.72 0 0 1-.23.51c-.15-.31-.3-.59-.48-.9v-1.26c.25.41.51.85.71 1.26z"/><path class="cls-1" d="M66.34 106.79c.18.31.33.59.48.9a.78.78 0 0 1-.53.18l-.7-1.16v-1.23c.23.44.49.87.75 1.31z"/><path class="cls-1" d="M66.34 105.53v1.26c-.26-.44-.52-.87-.8-1.31 0-.41 0-.84-.05-1.28zM65.59 106.71l.7 1.16a.72.72 0 0 1-.67-.69 2.48 2.48 0 0 0-.03-.47zM65.9 72.37a9.16 9.16 0 0 0-1.07.64.57.57 0 0 1 .51-.59c.18-.03.38-.03.56-.05zM65.85 73v.48a1.23 1.23 0 0 1-.33 0V73z"/><path class="cls-1" d="M65.54 73v.51h-.2a.32.32 0 0 1-.18 0v-.46a.32.32 0 1 1 .64 0zM66.34 105.53l-.85-1.33c-.18-3.77-.41-7.59-.59-11.41-.13-3.4-.23-6.84-.2-10.25h.23a.64.64 0 0 0 .56-.52c.18 7.83.77 15.72.85 23.51zM55.6 89a4.27 4.27 0 0 0 1.26 1.41c2.59 3.28 4.43 7.79 6.18 10.94.61 1.13 1.53 2.49 2.43 4v1.23c-.51-.87-1-1.71-1.56-2.59.43-.33-.08-1-.54-.82-.51-.87-1-1.74-1.46-2.67-2.15-4.38-4.1-8.79-7.51-12.38-.1-.1 0-.28.13-.2a4.89 4.89 0 0 1 .56.46c.28.34.38.49.51.62zM65.49 81.52a.51.51 0 0 1 0 .48 1.29 1.29 0 0 0 0-.48z"/><path class="cls-1" d="M65.54 73.47c-.1 2.66-.1 5.35-.05 8a.54.54 0 0 0-.56-.31.75.75 0 0 0-.21 0c0-2.61.21-5.22.44-7.79a.32.32 0 0 0 .18 0z"/><path class="cls-1" d="M64.72 81.88v-.65a.75.75 0 0 1 .21 0 .54.54 0 0 1 .56.31 1.29 1.29 0 0 1 0 .48.64.64 0 0 1-.56.52h-.23c0-.23 0-.43.02-.66zM65.49 104.2c0 .44 0 .87.05 1.28-.9-1.48-1.82-2.84-2.43-4-1.75-3.15-3.59-7.66-6.18-10.94a6.32 6.32 0 0 0 .77.48c2.38 3.08 3.84 6.82 5.87 10.18.56 1 1.26 2 1.92 3z"/><path class="cls-6" d="M64.9 92.79c.18 3.82.41 7.64.59 11.41-.66-1-1.36-2-1.92-3-2-3.36-3.49-7.1-5.87-10.18a7.13 7.13 0 0 0 1.15.54 25.6 25.6 0 0 0 2.77.9 7.79 7.79 0 0 0 2.9.69.42.42 0 0 0 .38-.36z"/><path class="cls-4" d="M64.9 92.79a.37.37 0 0 0-.1-.28c-1-1-2.95-1.18-4.28-1.59a14.48 14.48 0 0 1-4.08-2c-.15-1.12-1.66-2.43-2.36-3.18A10.13 10.13 0 0 0 51 83.28c4.59-.12 9.12-.3 13.69-.74-.02 3.46.08 6.85.21 10.25z"/><path class="cls-1" d="M56.31 89.36c.08 0 .13-.1.16-.21a.92.92 0 0 0 0-.28 14.48 14.48 0 0 0 4.08 2c1.33.41 3.3.57 4.28 1.59a.37.37 0 0 1 .1.28.42.42 0 0 1-.38.39 7.79 7.79 0 0 1-2.9-.69 25.6 25.6 0 0 1-2.77-.9 7.13 7.13 0 0 1-1.15-.54 17.3 17.3 0 0 0-1.46-1.64.07.07 0 0 0 .04 0zM64.72 81.88v.66c-4.57.44-9.1.62-13.69.74a5.75 5.75 0 0 0-.85-.3c-.13 0-.18.13-.07.2s.12.08.18.13h-1.85v-.18a.35.35 0 0 0-.67-.18 1.78 1.78 0 0 0-.1.38A16.16 16.16 0 0 1 40.5 82a.49.49 0 0 0-.21-.59.43.43 0 0 1 .44-.18c7.64 2 16.2.41 24 0zM63.52 103.28c.46-.18 1 .49.54.82-.21-.26-.39-.54-.54-.82zM58.9 107.66a2.72 2.72 0 0 1-.38-.38 17.37 17.37 0 0 1 4.92-4h.05c.15.28.33.56.51.84a31.22 31.22 0 0 0-4.69 4 6 6 0 0 0-.44-.43z"/><path class="cls-6" d="M63.49 103.28h-.05a17.37 17.37 0 0 0-4.92 4c-1.13-1.16-2-2.13-2.39-2.54-5.51-5.77-9.25-13.28-7.71-21.4h1.85a16.38 16.38 0 0 1 3.3 2.92c.59.7 1.1 1.46 1.62 2.21a4.89 4.89 0 0 0-.56-.46c-.1-.08-.23.1-.13.2 3.41 3.59 5.36 8 7.51 12.38.46.95.99 1.82 1.48 2.69z"/><path class="cls-1" d="M62.52 30.23a.59.59 0 0 1 0 .2v.08l-.2-.21z"/><path class="cls-1" d="M62.54 30.51v.38a6.23 6.23 0 0 1-.44-.46.71.71 0 0 1 .28-.13zM62.52 30.89a2.69 2.69 0 0 1 0 .49c-.15-.18-.28-.36-.43-.57a2.36 2.36 0 0 0 0-.38 6.23 6.23 0 0 0 .43.46zM62.52 30.23l-.18.07a3.53 3.53 0 0 0-.28-.25C62 30 62 30 61.93 30a.47.47 0 0 1 .59.23zM62.06 30.81c.15.21.28.39.43.57C61.44 47.17 48.14 64.47 34.07 71a.26.26 0 0 1-.36-.16.23.23 0 0 1 .1-.31C47.73 63 59.49 46.3 61.59 30.61a.82.82 0 0 1 .24-.1z"/><path class="cls-1" d="M62.06 30.43a.4.4 0 0 0-.23.08 1 1 0 0 0-.13-.18.62.62 0 0 1 .26-.29s.08 0 .13.06a3.53 3.53 0 0 1 .28.25.71.71 0 0 0-.31.08z"/><path class="cls-1" d="M62.08 30.43a2.36 2.36 0 0 1 0 .38l-.23-.3a.4.4 0 0 1 .23-.08zM61.67 30.28c-.08-.16.1-.31.26-.29a.62.62 0 0 0-.26.29zM61.7 30.33a1 1 0 0 1 .13.18.82.82 0 0 0-.24.1v-.18a.44.44 0 0 1 .05-.15s.06.02.06.05zM58.9 107.69a6 6 0 0 1 .44.43 1.09 1.09 0 0 0-.28.29h-.05c-.29-.26-.57-.54-.85-.79a2.44 2.44 0 0 1 .36-.36 2.72 2.72 0 0 0 .38.38zM59 108.43c-.44.41-1.23-.23-.88-.74.32.2.6.48.88.74zM58.29 137.91a.29.29 0 0 1 .43.33l-.35-.28c-.06 0-.08-.05-.11-.05z"/><path class="cls-1" d="M58.34 138.27a.38.38 0 0 1-.18.12l-.08-.07a.25.25 0 0 1 0-.31.23.23 0 0 0 .18-.08s.05 0 .11.05l.35.28a.12.12 0 0 1 0 .08 1.62 1.62 0 0 0-.1.18z"/><path class="cls-1" d="M58.34 138.27l.26.23-.16.2a2.7 2.7 0 0 1-.28-.31.38.38 0 0 0 .18-.12zM58.44 60.7c.31 2 1.28 6.41-.33 8a.26.26 0 0 1-.21.1.55.55 0 0 0-.12-.3s-.06-.06-.06-.08l.06-.08c1.07-1.38.46-11.84-2.18-12.3-4.31-.62-.16 11.38 1.87 12.76a.56.56 0 0 0 .41 0 .46.46 0 0 1-.69.38c-2.48-1.59-6.92-12.61-2.36-13.68 2.59-.5 3.36 3.5 3.61 5.2zM58.52 107.28a2.44 2.44 0 0 0-.36.36 63.73 63.73 0 0 1-5.23-5.57C49.21 96.87 46 89.82 48 83.36a2.55 2.55 0 0 0 .39 0c-1.54 8.12 2.2 15.63 7.71 21.4.42.39 1.29 1.36 2.42 2.52z"/><path class="cls-1" d="M58.16 138.39a2.7 2.7 0 0 0 .28.31c-4.59 6.62-23.86 4.18-24-5l.38-.11c1.01 8.73 17.88 9.86 23.34 4.8zM57.34 68a13.82 13.82 0 0 0 .26-5.58 18.56 18.56 0 0 0-.77-3.87c-.16-.44-1.39-3.18-2.16-1.62-.92 1.85.11 4.74.75 6.54A17.49 17.49 0 0 0 57.34 68zm0 0a.65.65 0 0 1-.05.2.49.49 0 0 0 .2.57c-2-1.38-6.18-13.38-1.87-12.76 2.64.46 3.25 10.92 2.18 12.3l-.06.08zM58.26 137.91a.23.23 0 0 1-.18.08.22.22 0 0 1 .18-.08z"/><path class="cls-1" d="M58.08 138.32l.08.07c-5.46 5.06-22.33 3.93-23.33-4.79h.06a.72.72 0 0 0 .3-.21c3 9.51 15.69 8.1 22.89 4.64a.25.25 0 0 0 0 .29zM57.9 68.85a.56.56 0 0 1-.41 0l.23-.36.06.08a.55.55 0 0 1 .12.28zM57.72 68.47l-.23.36a.49.49 0 0 1-.2-.57.65.65 0 0 0 .05-.2zM57.6 62.45a13.82 13.82 0 0 1-.26 5.55 17.49 17.49 0 0 1-1.92-4.53c-.64-1.8-1.67-4.69-.75-6.54.77-1.56 2 1.18 2.16 1.62a18.56 18.56 0 0 1 .77 3.9zM57.7 91.05a6.32 6.32 0 0 1-.77-.48c-.36-.46-.74-.9-1.13-1.31l.33.16a.22.22 0 0 0 .11 0 17.3 17.3 0 0 1 1.46 1.63zM56.31 89.36a.07.07 0 0 1-.07 0 6.62 6.62 0 0 0-.77-.72v-.08c0-.08.15-.31.28-.2.24.15.49.34.72.46a.92.92 0 0 1 0 .28c-.03.16-.08.26-.16.26z"/><path class="cls-1" d="M56.44 88.87c-.23-.12-.48-.31-.72-.46-1.31-1.93-3.13-4.11-5.13-5.08a2.17 2.17 0 0 1 .44 0 10.13 10.13 0 0 1 3.07 2.41c.68.7 2.19 2.01 2.34 3.13zM56.24 89.41a.22.22 0 0 1-.11 0l-.33-.16a.76.76 0 0 0-.13-.1 1.55 1.55 0 0 1-.18-.39 6.62 6.62 0 0 1 .75.65z"/><path class="cls-1" d="M56.93 90.54a4.27 4.27 0 0 1-1.26-1.41.76.76 0 0 1 .13.1c.39.41.77.85 1.13 1.31zM55.7 88.39c-.13-.11-.33 0-.28.2s0 0 0 .08-.15-.13-.23-.18c-.52-.75-1-1.51-1.62-2.21a16.38 16.38 0 0 0-3.3-2.92h.3c2 .92 3.82 3.1 5.13 5.03z"/><path class="cls-1" d="M55.47 88.69a1.55 1.55 0 0 0 .18.39s-.23-.31-.39-.54c.08.05.16.13.23.18s-.02-.03-.02-.03z"/><path class="cls-3" d="M61.59 30.61C59.49 46.3 47.73 63 33.81 70.49a.23.23 0 0 0-.1.31c-2.84-5-10.38-2.44-10.41 3.15 0 7.41 11.28 10.66 16.9 8.41a.49.49 0 0 0 .3-.36 16.16 16.16 0 0 0 7.18 1.33 16.61 16.61 0 0 0-.31 8.41.48.48 0 0 0-.46.31c-5 12.22-14.51 22.35-22.15 33.22a11.15 11.15 0 0 1-1.59-.57 13.54 13.54 0 0 1-2.84-2.28 17.53 17.53 0 0 1-3.33-5.09 7.25 7.25 0 0 0 0-1.23.3.3 0 0 0-.59-.08 86 86 0 0 1-4.36 13.25C3 120.68 4.72 106.84 7 95.72A156.59 156.59 0 0 1 11.23 80c2.2-6.92 5.76-13.41 7.61-20.4 3.31-2.05 6.36-6 9.2-8.49 5.51-4.84 11.38-8.3 17.59-12.11a113.41 113.41 0 0 1 15.96-8.39z"/><path class="cls-1" d="M50.57 83.31h-.3c-.06 0-.13-.08-.18-.13s-.06-.25.07-.2a5.75 5.75 0 0 1 .85.3 2.17 2.17 0 0 0-.44.03zM48 83.36h-.35a1.78 1.78 0 0 1 .1-.38.35.35 0 0 1 .67.18v.18a2.55 2.55 0 0 1-.42.02zM47.37 91.77a.44.44 0 0 1 .33.54c0 .15-.05.28-.07.43-.11-.33-.18-.64-.26-.97z"/><path class="cls-1" d="M25.48 125.6a3.53 3.53 0 0 0-.72-.3c7.64-10.87 17.17-21 22.15-33.22a.48.48 0 0 1 .46-.31c.08.33.15.64.26 1-1.23 6.75-6.49 12.77-10.39 18.18-3.69 5.12-7.33 10.4-11.27 15.4a.56.56 0 0 0-.26-.59zM40.29 81.44a.49.49 0 0 1 .21.59h-.08a.36.36 0 0 1-.13-.59z"/><path class="cls-1" d="M40.42 82h.08a.49.49 0 0 1-.33.36c-5.62 2.25-16.92-1-16.9-8.41 0-5.59 7.57-8.15 10.41-3.15a1.39 1.39 0 0 1 .18.31c.21.38-.31.81-.62.46-4.12-5-11.5 0-7.48 5.38 3.2 4.41 9.07 5.1 14.1 4.36a.54.54 0 0 1 .43.1.36.36 0 0 0 .13.59zM34.91 132.68a.5.5 0 0 1 .28.69q-.11-.27-.18-.54a1.3 1.3 0 0 0-.1-.15z"/><path class="cls-1" d="M34.83 133.6l-.38.11a4.78 4.78 0 0 1 0-.54 1.13 1.13 0 0 1 0-.26.3.3 0 0 1 .26-.28.41.41 0 0 1 .18.05 1.3 1.3 0 0 1 .1.15q.08.27.18.54a.72.72 0 0 1-.3.21z"/><path class="cls-1" d="M34.47 133.17a4.78 4.78 0 0 0 0 .54 24 24 0 0 1-8.64.94c-1.74-.15-5.3-.48-5.69-2.69 0-.23.15-.38.36-.28a4.16 4.16 0 0 0 .54.23c4.33 2 8.94 1.56 13.58.72h.13a.3.3 0 0 0-.26.28 1.13 1.13 0 0 0-.02.26zM32 2.67l-.61.23v-.2a9.28 9.28 0 0 1 1.13-.47c.26-.07.44.34.18.44h-.05a4 4 0 0 1-.65 0z"/><path class="cls-1" d="M32.58 2.7c-.36.15-.69.3-1 .46a.52.52 0 0 1-.2-.26l.62-.23a4 4 0 0 0 .58.03z"/><path class="cls-1" d="M31.35 2.9a.52.52 0 0 0 .2.26C25.71 6 21.79 11 17.17 15.49a134.92 134.92 0 0 0-15.71 18 5.24 5.24 0 0 0-.38-.41h-.06c4.18-7 9.8-12.56 15.61-18.12 4.54-4.37 8.72-9.62 14.72-12.06z"/><path class="cls-1" d="M31.32 2.7v.2c-6 2.44-10.18 7.69-14.72 12C10.82 20.51 5.2 26.1 1 33.07a.22.22 0 0 0-.3.31l.28.43A.57.57 0 0 1 .41 33c4.2-7.79 10.77-13.72 17-19.84 4.25-4.24 8.38-8.23 13.91-10.46zM25.07 126.17l.41-.57.23.13a.56.56 0 0 1 .26.59 3.27 3.27 0 0 1-.29.39s-.07 0-.1.05a2 2 0 0 1-1 .1c.15-.23.31-.46.49-.69z"/><path class="cls-1" d="M25.68 126.71a3.27 3.27 0 0 0 .29-.39.61.61 0 0 1-.29.39zM24.56 126.86a2 2 0 0 0 1-.1s.08 0 .1-.05q-2 2.61-4.2 5.07a.33.33 0 0 1-.44.1.42.42 0 0 1-.23-.61c1-1.56 1.93-3.08 3-4.59a3.45 3.45 0 0 0 .77.18zM25.48 125.6l-.41.57a3 3 0 0 1-.8-.21 6.64 6.64 0 0 1 .49-.66 3.53 3.53 0 0 1 .72.3z"/><path class="cls-1" d="M25.07 126.17c-.18.23-.34.46-.51.69a3.45 3.45 0 0 1-.77-.18c.15-.26.33-.49.48-.72a3 3 0 0 0 .8.21zM24.76 125.3a6.64 6.64 0 0 0-.49.66c-2.89-.94-6.15-4.66-7.33-7.66a6.31 6.31 0 0 0 0-1 17.53 17.53 0 0 0 3.34 5.12 13.54 13.54 0 0 0 2.84 2.28 11.15 11.15 0 0 0 1.64.6z"/><path class="cls-1" d="M24.27 126c-.15.23-.33.46-.48.72a12.78 12.78 0 0 1-4.28-3.41 15.48 15.48 0 0 1-2.67-4 4.26 4.26 0 0 0 .1-1c1.18 2.99 4.44 6.69 7.33 7.69zM18.79 59.16a.28.28 0 0 1 .1.31.75.75 0 0 0-.05.16 4.76 4.76 0 0 1-.49.28 3.66 3.66 0 0 0 .13-.44 2.8 2.8 0 0 0 .31-.31z"/><path class="cls-1" d="M18.79 59.16a2.8 2.8 0 0 1-.23.24.31.31 0 0 0 .07-.21V59a.26.26 0 0 1 .16.16zM18.35 59.91a4.76 4.76 0 0 0 .49-.28c-1.85 7-5.41 13.48-7.61 20.4A156.59 156.59 0 0 0 7 95.72c-2.25 11.12-4 25 5.1 33.55a1.51 1.51 0 0 1-.13.33C-2.38 118.71 7 89.87 11.46 76.39c1.77-5.67 5-11 6.87-16.46z"/><path class="cls-1" d="M18.3 59.14s0-.08.05-.08a.21.21 0 0 1 .28 0v.15a.31.31 0 0 1-.07.21.37.37 0 0 1-.18 0 .75.75 0 0 1-.21 0 .27.27 0 0 1 .05-.11.69.69 0 0 1 .08-.17z"/><path class="cls-1" d="M18.63 59a.21.21 0 0 0-.28 0l.23-.36a1.33 1.33 0 0 1 .05.36zM18.53 59.42zM18.48 59.47a3.66 3.66 0 0 1-.13.44 2 2 0 0 1-.31.18.15.15 0 0 1-.18 0c.08-.2.18-.41.26-.61a.75.75 0 0 0 .21 0 .37.37 0 0 0 .18 0z"/><path class="cls-1" d="M18.58 58.7l-.23.36-.05.08c-1-1-1.26-3-1.34-4.74a.75.75 0 0 0 .39-.13 13.56 13.56 0 0 0 .43 2.56c.22.59.65 1.26.8 1.87zM18 60.11a2 2 0 0 0 .31-.18c-1.85 5.49-5.1 10.79-6.87 16.46-4.44 13.48-13.82 42.32.5 53.21v.06a.37.37 0 0 0 0 .28c-9.38-6.74-9.3-19.61-7.64-30 2.34-14.25 7.67-26.84 13.59-39.88a.15.15 0 0 0 .11.05z"/><path class="cls-1" d="M18.3 59.14a.69.69 0 0 0-.13.2.44.44 0 0 1 0-.15.06.06 0 0 1 .06 0s.05-.08.07-.05z"/><path class="cls-1" d="M18.28 59.14a.06.06 0 0 0-.06 0 .44.44 0 0 0 0 .15.27.27 0 0 0-.05.11c-1.44-.31-1.59-3.34-1.57-5.13a.59.59 0 0 0 .41.08c-.01 1.74.32 3.79 1.27 4.79zM18.1 59.45c-.08.2-.18.41-.26.61a.13.13 0 0 1 0-.15c.08-.16.16-.31.26-.46zM17.22 52.6a.61.61 0 0 1 .06.87v-.18a.34.34 0 0 0-.47-.3 4.74 4.74 0 0 0 .41-.39z"/><path class="cls-1" d="M17.28 53.47v.8a.75.75 0 0 1-.39.13v-.62a.58.58 0 0 0 .39-.31z"/><path class="cls-1" d="M16.94 53.78a.71.71 0 0 1-.38 0v-.52a.26.26 0 0 1 .13-.23s.08-.05.1-.1a.34.34 0 0 1 .47.3v.18a.58.58 0 0 1-.32.37z"/><path class="cls-1" d="M17.22 52.6a4.74 4.74 0 0 1-.41.39.15.15 0 0 0-.12 0 9.32 9.32 0 0 1-.88-.9 2 2 0 0 1 .57-.26.24.24 0 0 0 .13-.05 8.4 8.4 0 0 0 .71.82zM16.66 116.61c-.08-.16-.28 0-.31.07a4 4 0 0 0 .11 1.47 32.16 32.16 0 0 1-4.05 11.43l-.34-.31A86 86 0 0 0 16.43 116a.3.3 0 0 1 .59.08 7.25 7.25 0 0 1 0 1.23 4.22 4.22 0 0 1-.36-.7z"/><path class="cls-1" d="M16.66 116.61c.1.23.21.48.33.72a6.31 6.31 0 0 1 0 1 8.72 8.72 0 0 1-.36-1.18c0-.21 0-.39.03-.54zM16.94 53.78v.62a.59.59 0 0 1-.41-.08 2.74 2.74 0 0 1 0-.51.71.71 0 0 0 .41-.03zM16.94 118.3a4.26 4.26 0 0 1-.1 1 4.45 4.45 0 0 1-.38-1.17c.05-.36.1-.7.12-1a8.72 8.72 0 0 0 .36 1.17zM16.69 53a.15.15 0 0 1 .12 0l-.1.1zM16.69 53a.26.26 0 0 0-.13.23v.52a.68.68 0 0 1-.36-.21c-.26-.28-.51-.54-.74-.82a.82.82 0 0 1 .35-.64 9.32 9.32 0 0 0 .88.92z"/><path class="cls-1" d="M16.58 117.12c0 .33-.07.67-.12 1a4 4 0 0 1-.11-1.47c0-.12.23-.23.31-.07s-.03.36-.08.54zM16.46 118.15a4.45 4.45 0 0 0 .38 1.17 21.15 21.15 0 0 1-4.28 10.82c-.26.31-.59.08-.67-.2l.23.18a.29.29 0 0 0 .36-.46l-.07-.08a32.16 32.16 0 0 0 4.05-11.43zM16.56 53.81a2.74 2.74 0 0 0 0 .51 1.61 1.61 0 0 1-1.07-1.54c.23.28.48.54.74.82a.68.68 0 0 0 .33.21zM16.51 51.83a.24.24 0 0 1-.13.05 2 2 0 0 0-.57.26c-5.33-5.56-9.68-12.4-14.53-18.43l.16-.15C7 39.22 11 46.09 16.51 51.83z"/><path class="cls-1" d="M15.81 52.14a.82.82 0 0 0-.35.64A138.91 138.91 0 0 1 1 33.81a.56.56 0 0 0 .28-.1c4.85 6.03 9.2 12.87 14.53 18.43zM12.48 129.66a.29.29 0 0 1-.36.46l-.23-.18a.37.37 0 0 1 0-.28v-.06a3.29 3.29 0 0 0 .31.26l.16-.28z"/><path class="cls-1" d="M12.41 129.58l-.16.28a3.29 3.29 0 0 1-.31-.26 1.51 1.51 0 0 0 .13-.33zM1.46 33.51l-.16.15c-.13-.15-.23-.31-.36-.46a1.62 1.62 0 0 0 .1-.18h.06a5.24 5.24 0 0 1 .36.49z"/><path class="cls-1" d="M.92 33.25c.13.15.23.31.36.46a.56.56 0 0 1-.28.1l-.28-.43a.22.22 0 0 1 .3-.31 1.62 1.62 0 0 1-.1.18z"/><path class="cls-7" d="M9.65 30.66C28.29 20.3 50.39 14.78 68.34 9.25"/><path class="cls-4" d="M10 31.31a212.76 212.76 0 0 1 30.5-12.69c9.11-3 19.52-4.6 28.11-8.85.67-.33.16-1.18-.46-1.1C58.12 10 47.6 14.44 38 17.67A159.09 159.09 0 0 0 9.27 30c-.84.48-.1 1.74.76 1.3z"/><path class="cls-7" d="M38 6.49c.69 4.14 9 13.12 11.74 18.64"/><path class="cls-4" d="M37.6 6.49c0 .12 0 .25-.05.37a1 1 0 0 0-.26 1c2.38 6.6 8 11.82 11.27 18 .81 1.51 3 .18 2.28-1.33-1.84-3.73-4.63-6.95-7.08-10.24a63 63 0 0 1-3.65-5.35c-.51-.86-1.44-1.84-1.84-2.63a.36.36 0 0 0-.67.18zM36.69 55.79c-3.7-.15.15-10.15 4.15-6.31 2.92 2.93-3.23 9.54-5.08 6.46"/><path class="cls-7" d="M36.69 55.79c-3.7-.15.15-10.15 4.15-6.31 2.92 2.93-3.23 9.54-5.08 6.46"/><path class="cls-4" d="M36.84 55.24c-2.25-.39.09-7.17 2.9-5.74 3.3 1.69-1.15 8-3.74 6-.34-.27-.78.17-.69.53.81 3.07 4.38.6 5.53-.87 1.67-2.13 2.25-5.29-.41-6.88-4.76-2.84-8.57 8-3.74 8 .62 0 .8-1 .15-1.12z"/><path d="M45.15 52.25c-.92-.92-.77-5.38 1.38-4.46 1.7.46.93 4.31-.77 4.62" fill="#f9cfb3"/></g></g></svg>