<svg xmlns="http://www.w3.org/2000/svg" viewBox="0 0 148.3 144.71"><defs><style>.cls-1{fill:#1d3033;stroke:#1d3033;stroke-linecap:round;stroke-linejoin:round;stroke-width:.66px}.cls-2{fill:#f1f1f1}.cls-3{fill:#dadada}.cls-4{fill:#9fb05a}.cls-5{fill:#f7e5d7}.cls-6{fill:#989898}.cls-8{fill:#fff}.cls-9{fill:none}</style></defs><g id="レイヤー_2" data-name="レイヤー 2"><g id="レイヤー_3" data-name="レイヤー 3"><path class="cls-1" d="M147.84 76.24c.69 8-1.49 17.3-2.92 25.14-1.62 8.87-4 17.36-8.31 25.33a4.83 4.83 0 0 0 .23-.87C143.94 111.77 145 96.44 147 81c.13-1 .38-3.31.43-4.36a.21.21 0 0 0 .13-.28 1.85 1.85 0 0 0-.18-.43.37.37 0 0 1 .46.31z"/><path class="cls-1" d="M147.2 76.09a.19.19 0 0 1 .2-.18 1.85 1.85 0 0 1 .18.43.21.21 0 0 1-.13.28.25.25 0 0 1-.36-.07s.05-.23.08-.36a.07.07 0 0 1 .03-.1z"/><path class="cls-1" d="M147.09 76.55a.25.25 0 0 0 .36.07c0 1-.3 3.41-.43 4.36-2 15.46-3.08 30.79-10.18 44.86 0-.21.1-.39.13-.59s-.08-.13-.13 0c6.84-15.72 6.79-32.15 10.23-48.68.02-.05.02-.02.02-.02zM147.4 75.91a.19.19 0 0 0-.2.18c-.72-1.77-3.18-3.46-4.46-4.75-3.59-3.58-8.11-5.92-12.33-8.79a59.17 59.17 0 0 0-12.82-7.12 3.41 3.41 0 0 0-.1-.54c7.17 2 13.69 6.92 19.76 11.08 3.67 2.48 8.33 5.66 10.15 9.94z"/><path class="cls-1" d="M147.2 76.09a.07.07 0 0 0 0 .07c0 .13-.06.23-.08.36-3.31-5.31-10.49-8.79-15.48-12.17a128.77 128.77 0 0 0-14.23-8.46.4.4 0 0 0 .23-.46 59.17 59.17 0 0 1 12.82 7.12c4.22 2.87 8.74 5.21 12.33 8.79 1.21 1.29 3.69 2.98 4.41 4.75z"/><path class="cls-2" d="M147.07 76.52c-3.44 16.53-3.39 33-10.23 48.68a16.12 16.12 0 0 1-.72 1.67 24.14 24.14 0 0 1-6.67 7.77c-3.69 3.05-7.76 6.3-12.66 7a.4.4 0 0 0 0-.38c-4.4-7.05-10.61-14.92-12.73-23.1.81-4.48 3.17-8.43 4.2-12.86 1.33-5.75 3.59-11.18 4.92-16.92 2.44-10.56 4.33-21.63 3.74-32.53a.35.35 0 0 0 .49 0 128.77 128.77 0 0 1 14.23 8.46c4.94 3.42 12.12 6.9 15.43 12.21z"/><path class="cls-1" d="M136.64 126.28c-.11.3-.21.61-.34.89a.19.19 0 0 1-.2-.28 16.12 16.12 0 0 0 .72-1.67h.13s-.08.38-.13.59-.11.31-.18.47z"/><path class="cls-1" d="M136.64 126.28c.07-.16.15-.29.2-.44a4.83 4.83 0 0 1-.23.87 2 2 0 0 1-.18.36c-.05.08-.08.1-.13.1.13-.28.23-.59.34-.89z"/><path class="cls-1" d="M136.3 127.17s.08 0 .13-.1a2 2 0 0 0 .18-.36c-1.31 4.36-4.9 7.36-8.38 10.15s-7.08 5.33-11.72 5.41a.24.24 0 0 1-.25-.33.44.44 0 0 0 .51-.29c4.9-.69 9-3.94 12.66-7a24.14 24.14 0 0 0 6.67-7.77.19.19 0 0 0 .2.29zM117 55.19c.18.06.38.13.56.21a.4.4 0 0 1-.23.46c-.15-.08-.31-.18-.49-.26a4.1 4.1 0 0 0 0-.49.7.7 0 0 1 .16.08z"/><path class="cls-1" d="M117.49 54.86a3.41 3.41 0 0 1 .1.54 6.37 6.37 0 0 0-.56-.21 1.53 1.53 0 0 1-.13-.51 3.68 3.68 0 0 1 .59.18zM117.49 54.86a3.68 3.68 0 0 0-.59-.18 16 16 0 0 1 .1-2.77v-1c.1 1.26.28 2.59.49 3.95zM116.87 55.63c.18.08.34.18.49.26a.35.35 0 0 1-.49 0 .59.59 0 0 0 0-.26z"/><path class="cls-1" d="M117 55.19a.7.7 0 0 0-.18 0v-.38-.1h.13a1.53 1.53 0 0 0 .05.48zM117 50.86v1a16 16 0 0 0-.1 2.77h-.13a.11.11 0 0 0-.18 0c-1.87-10-2.72-20.15-10.35-28.1A39.11 39.11 0 0 0 84.7 15.08c-18.89-3.26-40.52 5.48-45.93 25.45-.21 0-.41.08-.62.13.85-5 3.93-9.35 7.08-13.17a31.79 31.79 0 0 1 4.31-4.85 54.15 54.15 0 0 1 6.3-4.07c7.2-4.29 16.38-5.8 25.27-4.8a1.2 1.2 0 0 1 .21.13.23.23 0 0 0 .33-.08c8.28 1 16.23 4.18 22.07 9.31a31.31 31.31 0 0 1 6.66 8 44.3 44.3 0 0 1 3.8 7.92 64.19 64.19 0 0 1 2.25 8.64c.1.49.18 1 .28 1.49s.16 1.12.29 1.68zM116.87 55.86c.59 10.9-1.3 22-3.74 32.53-1.33 5.74-3.59 11.17-4.92 16.92-1 4.43-3.39 8.38-4.2 12.86 0-.12-.08-.28-.11-.41a.15.15 0 0 0-.15-.12c.49-4.36 3.18-8.16 3.87-12.51a54.32 54.32 0 0 1 2.69-9.28.59.59 0 0 0 .31-.92c.51-1.47 1-2.93 1.33-4.41q.12-.47.21-.93a.7.7 0 0 0 .3-1.28c2.41-10.56 4.41-21.94 4.21-32.78h.07a.08.08 0 0 1 0 .08.47.47 0 0 0 .13.25z"/><path class="cls-1" d="M116.87 55.63a.59.59 0 0 1 0 .23.47.47 0 0 1-.1-.2.08.08 0 0 0 0-.08.17.17 0 0 1 .1.05z"/><path class="cls-1" d="M116.85 55.14a4.1 4.1 0 0 1 0 .49.17.17 0 0 0-.13-.05c0-.15 0-.31-.07-.46z"/><path class="cls-1" d="M116.67 55.07c0-.13 0-.26-.08-.39a.15.15 0 0 1 .18 0v.48zM103.67 118.43a.27.27 0 0 0 .34-.23c2.12 8.18 8.33 16 12.73 23.1a.4.4 0 0 1 0 .38.8.8 0 0 1-.26 0 .3.3 0 0 0-.25.24.3.3 0 0 1-.23-.11c-3.8-4.1-6.56-9.22-9-14.22-1.38-2.85-3.9-6-3.59-9.28a.33.33 0 0 0 .26.12z"/><path class="cls-1" d="M116.77 54.66a.15.15 0 0 0-.18 0 .11.11 0 0 1 .18 0zM116.51 141.7a.8.8 0 0 0 .26 0 .44.44 0 0 1-.51.29.3.3 0 0 1 .25-.29zM116.67 55.12c0 .15 0 .31.07.46h-.07a1.41 1.41 0 0 0 0-.46z"/><path class="cls-1" d="M116.67 55.53c.2 10.84-1.8 22.22-4.21 32.78a1.13 1.13 0 0 0-.18-.07 4.49 4.49 0 0 0-.48-.16 201.35 201.35 0 0 0 4.1-24.5 5.24 5.24 0 0 0 .25-3c.16-1.66.26-3.36.31-5.07a.81.81 0 0 0 .21.02zM116.67 55.12a1.41 1.41 0 0 1 0 .41.81.81 0 0 1-.18-.1v-.67c0 .13 0 .26.08.39zM116.74 49.2c-.1-.52-.18-1-.28-1.49a64.19 64.19 0 0 0-2.25-8.64 44.3 44.3 0 0 0-3.8-7.92 31.31 31.31 0 0 0-6.66-8C97.91 18 90 14.82 81.68 13.82a.26.26 0 0 0 0-.36L81 13a4.4 4.4 0 0 1 .51.05c9.46 1.28 19.38 5 25.68 12.56a39.42 39.42 0 0 1 7.59 13.36 60.33 60.33 0 0 1 1.96 10.23zM116.59 54.66z"/><path class="cls-3" d="M116.59 54.66v.05a.39.39 0 0 0-.08.72c0 1.71-.15 3.41-.31 5.07v-.08a.09.09 0 0 0-.18 0c-.46 1.08-.67 2.21-1.13 3.26 0 .13-.13.26-.18.38-1-8.48-7.17-17.68-13.87-20.89a.37.37 0 0 0-.23-.05c-8.4-3.33-19-3.59-28-4.54a108.65 108.65 0 0 0-33.78 2c5.41-20 27-28.71 45.93-25.45a39.11 39.11 0 0 1 21.54 11.48c7.57 7.9 8.42 18.02 10.29 28.05z"/><path class="cls-1" d="M116.54 54.71v.67a.39.39 0 0 1 0-.67zM116.15 60.5a5.24 5.24 0 0 1-.25 3c.1-.95.18-1.97.25-3zM114.72 64.86a4.34 4.34 0 0 0-.08-.8c0-.12.13-.25.18-.38.46-1 .67-2.18 1.13-3.26a.09.09 0 0 1 .18 0v.08c-.07 1-.15 2-.25 3a9.71 9.71 0 0 1-1.13 2.2 5.68 5.68 0 0 0-.03-.84zM114.77 65.78a14.51 14.51 0 0 1-1.54 7.36.39.39 0 0 1-.56.13h.13a.33.33 0 0 0 .2-.51 11.41 11.41 0 0 0 1.23-6.23 9 9 0 0 0 .54-.75z"/><path class="cls-1" d="M114.72 64.86a5.68 5.68 0 0 1 0 .92 9 9 0 0 1-.54.72v-.56z"/><path class="cls-1" d="M114.64 64.06a4.34 4.34 0 0 1 .08.8l-.54 1.08a5.21 5.21 0 0 0-.1-.72c.18-.39.38-.77.56-1.16zM114.23 66.5a11.41 11.41 0 0 1-1.23 6.23.36.36 0 0 0-.18-.13h-.23c3.43-9.64-3.9-23.61-12.23-28.63a.43.43 0 0 1-.21-.49 2.73 2.73 0 0 1 .41.1c4.18 1.9 7.11 6.13 9.26 10a45.87 45.87 0 0 1 2.92 6.42 24.48 24.48 0 0 1 1.34 5.23 6 6 0 0 0-.41 1c-.1.28.33.56.54.31z"/><path class="cls-1" d="M114.18 65.94v.56c-.21.25-.64 0-.54-.31a6 6 0 0 1 .41-1 5.21 5.21 0 0 1 .13.75zM114.64 64.06c-.18.39-.38.77-.56 1.16a24.48 24.48 0 0 0-1.34-5.22 45.87 45.87 0 0 0-2.94-6.46c-2.15-3.87-5.08-8.1-9.26-10h.11a.19.19 0 0 0 .1-.36l-.21-.08a.37.37 0 0 1 .23.05c6.7 3.23 12.9 12.43 13.87 20.91zM113 72.73a.33.33 0 0 1-.2.51h-.13a.35.35 0 0 1-.21-.34.17.17 0 0 1 0-.1 1.47 1.47 0 0 0 .08-.28h.23a.36.36 0 0 1 .23.21z"/><path class="cls-2" d="M100.34 43.92c8.33 5 15.66 19 12.23 28.63a49.92 49.92 0 0 0-9.41-.69 41.4 41.4 0 0 0-10.61.59.24.24 0 0 0-.16-.21c-8.74-4.41-17.43-9.43-26-14.48a.36.36 0 0 0-.29-.15c-3.21-1.89-6.38-3.79-9.54-5.66-3-1.8-6.1-1.44-9.38-1.21-1 .08-9.82 1.13-9.87.44a35.12 35.12 0 0 1 1-9.43.2.2 0 0 0 .21 0 137.42 137.42 0 0 1 31.76-2c5.58.36 11.14 1.28 16.68 2 4.36.62 9 .69 13.25 1.77a.43.43 0 0 0 .13.4z"/><path class="cls-1" d="M112.67 74c1.1 3.31 0 8.38-1.85 11.3a.52.52 0 0 0-.33-.48c1.18-3 2.31-7.1 1.87-10.26a.62.62 0 0 0 .31-.56z"/><path class="cls-1" d="M112.67 73.93v.08a.62.62 0 0 1-.31.56 6 6 0 0 0-.26-1.2 2 2 0 0 0 .29-.05 4.86 4.86 0 0 1 .28.61zM112.67 73.27a.3.3 0 0 1-.13 0 3.24 3.24 0 0 0-.2-.36h.12a.35.35 0 0 0 .21.36z"/><path class="cls-1" d="M112.54 73.29a2.26 2.26 0 0 1 .13.64 4.86 4.86 0 0 0-.26-.61.21.21 0 0 0 .13-.03zM112.57 72.55a1.47 1.47 0 0 1-.08.28.17.17 0 0 0 0 .1h-.12l-.18-.23a.78.78 0 0 0-1.24.21h-2l-.1-.08a1.09 1.09 0 0 0-1.26 0 123.73 123.73 0 0 0-15 .08.4.4 0 0 0 0-.43 41.4 41.4 0 0 1 10.61-.59 49.92 49.92 0 0 1 9.37.66z"/><path class="cls-1" d="M112.54 73.29a.21.21 0 0 1-.13 0 1.29 1.29 0 0 0-.16-.39h.11a3.24 3.24 0 0 1 .18.39zM112.46 88.31a.7.7 0 0 1-.3 1.28c.1-.41.2-.84.3-1.28z"/><path class="cls-1" d="M111.64 88.75c.06-.23.11-.46.16-.67a4.49 4.49 0 0 1 .48.16 1.13 1.13 0 0 1 .18.07c-.1.44-.2.87-.3 1.28a.86.86 0 0 1-.23 0 4.29 4.29 0 0 0-.44-.13zM112.36 74.57c.44 3.16-.69 7.26-1.87 10.26a.44.44 0 0 0-.56 0c.38-1.69 1.07-3.33 1.46-5a18.16 18.16 0 0 0 .46-5.1.76.76 0 0 0 .51-.16zM112.23 72.93a1.29 1.29 0 0 1 .16.39 2 2 0 0 1-.29.05c0-.16-.1-.28-.15-.44h.28zM112.34 72.93h-.13v-.13c0-.06-.44-.12-.44.11h-.8a.78.78 0 0 1 1.24-.21z"/><path class="cls-1" d="M112.16 72.8v.13H112a.9.9 0 0 1-.23 0c-.05-.25.28-.3.39-.13zM111.87 74.29a1.88 1.88 0 0 0-.1-.82l.33-.08a6 6 0 0 1 .26 1.2.76.76 0 0 1-.51.18v-.51zM112.16 89.59q-.09.47-.21.93c-.36 1.48-.82 2.94-1.33 4.41a.61.61 0 0 0-.49-.36c.44-1.41.82-2.82 1.16-4.23.07-.31.12-.59.2-.9a4.29 4.29 0 0 1 .44.13.86.86 0 0 0 .23.02z"/><path class="cls-1" d="M112.1 73.37l-.33.08v-.52a.9.9 0 0 0 .23 0c0 .16.05.28.1.44zM111.87 74.29v-.05a.18.18 0 0 1 0-.13 5 5 0 0 0 0-.64 1.88 1.88 0 0 1 0 .82z"/><path class="cls-4" d="M111.85 74.75a18.16 18.16 0 0 1-.46 5.1c-.39 1.7-1.08 3.34-1.46 5a.35.35 0 0 0-.11.13c-.1.21-.2.39-.3.57a12.34 12.34 0 0 0-2-5.59 8.66 8.66 0 0 0-1.31-2.41c1-.69 1.44-2.08 2.54-2.62a1.14 1.14 0 0 0 .59-1.35c.51 0 1 0 1.51-.08a.16.16 0 0 0 0 .1 1 1 0 0 1 .15.54.73.73 0 0 0 .85.61z"/><path class="cls-1" d="M111.82 74.11a.18.18 0 0 0 0 .13v.51a.73.73 0 0 1-.75-.56 1 1 0 0 0-.15-.54.16.16 0 0 1 0-.1c.26 0 .51 0 .77-.1z"/><path class="cls-1" d="M111.77 73.47a5 5 0 0 1 0 .64l-.15-.66h.1zM111.8 88.08c0 .21-.1.44-.16.67-3.1-1.1-7.12-.8-10.43-1-3.56-.15-7.25 0-10.82-.43a.45.45 0 0 0-.2-.59c1.67.08 3.38.08 5.12 0a.52.52 0 0 0 .65.54 14.31 14.31 0 0 0 1.79-.57h4c-.08.33.44.59.72.33l.3-.3a45.39 45.39 0 0 1 5.9.53.67.67 0 0 0 .87.16c.77.25 1.51.46 2.26.66z"/><path class="cls-1" d="M111.62 73.29v.16c-.26 0-.51.07-.77.1a.71.71 0 0 1 0-.64h.8v.52a.32.32 0 0 0-.03-.14z"/><path class="cls-1" d="M111.62 73.29a.32.32 0 0 1 .13.16h-.08zM111.64 88.75l-.15.69C104.62 87.31 97 89.06 90 87.85a.4.4 0 0 1-.33-.26 1.23 1.23 0 0 1 .33 0 .37.37 0 0 0 .41-.28c3.57.43 7.26.28 10.82.43 3.29.26 7.31-.09 10.41 1.01z"/><path class="cls-3" d="M111.49 89.44c-.08.31-.13.59-.2.9-.34 1.41-.72 2.82-1.16 4.23a.42.42 0 0 0-.25 0c-6.59 1-13.26.95-19.82 1.67-1.08-2.31-3.25-6.49-1.43-8.72.33 0 .67.05 1 .1a.4.4 0 0 0 .33.26c7.04 1.18 14.66-.57 21.53 1.56z"/><path class="cls-1" d="M110.92 72.91a.71.71 0 0 0 0 .64c-.51 0-1 .08-1.51.08a1.23 1.23 0 0 0-.44-.75c.65 0 1.31.03 1.95.03zM110.82 85.31v.13a3.73 3.73 0 0 1-1.08 2 .33.33 0 0 1-.18.1l-.87-.16a.75.75 0 0 1-.15-.77c0 .08 0 .16.07.24.21.51 1.16.51 1.08-.16a.21.21 0 0 0 0-.13.34.34 0 0 0 .13-.18c.11.08.21.08.28 0a7.31 7.31 0 0 0 .72-1.07z"/><path class="cls-1" d="M110.82 85.31a7.31 7.31 0 0 1-.77 1c-.07.08-.17.08-.28 0l.13-.15c.1-.26.23-.51.33-.79a.14.14 0 0 0 0-.11c.08-.15.13-.3.21-.48a.52.52 0 0 1 .38.53zM110.62 94.93a.59.59 0 0 1-.31.92c.1-.31.23-.62.31-.92z"/><path class="cls-1" d="M109.93 95.23c.07-.23.15-.43.2-.66a.61.61 0 0 1 .49.36c-.08.3-.21.61-.31.92h-.08a3.33 3.33 0 0 1-.53.11c.07-.24.15-.47.23-.73zM110.28 85.31l-.56.85a9.28 9.28 0 0 1 .23-1.26.44.44 0 0 1 .56 0c-.1.1-.15.26-.23.41zM110.23 95.87h.08a54.32 54.32 0 0 0-2.69 9.28c-.69 4.35-3.38 8.15-3.87 12.51a.15.15 0 0 0-.23.12c0 .18 0 .36-.08.54a.22.22 0 0 1 0-.18c.82-7.51 4-14.81 6.31-22.12a3.33 3.33 0 0 0 .48-.15zM110.28 85.31a.14.14 0 0 1 0 .11v-.11z"/><path class="cls-1" d="M110.26 85.31v.11c-.1.28-.23.53-.33.79l-.13.15s-.07-.07-.07-.15zM110.13 94.57c0 .23-.13.43-.2.66a60.76 60.76 0 0 1-9.21.93c-3.23.3-7.4 1.07-10.53.35v-.07a1.6 1.6 0 0 0-.1-.23c6.56-.72 13.23-.67 19.82-1.67a.42.42 0 0 1 .22.03zM109.82 85a.35.35 0 0 1 .11-.13 9.28 9.28 0 0 0-.23 1.26l-.08.13c0-.21-.05-.46-.1-.69.1-.15.2-.33.3-.57z"/><path class="cls-1" d="M109.93 95.23c-.08.26-.16.49-.23.75-3.7.77-7.54.64-11.31 1.08-2.46.28-5.31.85-7.69 0a1.21 1.21 0 0 0-.21-.28c-.1-.11-.2-.11-.28 0a.39.39 0 0 0 0-.26c3.13.72 7.3-.05 10.53-.35a60.76 60.76 0 0 0 9.19-.94zM109.77 86.36a.34.34 0 0 1-.13.18 1.19 1.19 0 0 0 0-.25l.08-.13c-.02.13 0 .18.05.2z"/><path class="cls-1" d="M109 86.16a1.32 1.32 0 0 0 .54-.56c0 .23.07.48.1.69l-.41.61a1.26 1.26 0 0 0 .43-.36.21.21 0 0 1 0 .13c.08.67-.87.67-1.08.16 0-.08 0-.16-.07-.24a.48.48 0 0 1 .3-.33.47.47 0 0 0 .19-.1z"/><path class="cls-1" d="M109.62 86.29a1.19 1.19 0 0 1 0 .25 1.26 1.26 0 0 1-.43.36zM109.54 87.52a.67.67 0 0 1-.87-.16zM106 77.26a2.18 2.18 0 0 0-.33-.35c.49-.85 1.41-1.88 1.26-2.7a1.55 1.55 0 0 1 0-.61 19.36 19.36 0 0 0 2.41 0 1.14 1.14 0 0 1-.54 1.4c-1.1.54-1.54 1.93-2.54 2.62a3.44 3.44 0 0 0-.26-.36z"/><path class="cls-1" d="M109.39 73.63a19.36 19.36 0 0 1-2.41 0 1.28 1.28 0 0 1 .56-.8c.46 0 .92.06 1.36.06a1.23 1.23 0 0 1 .49.74zM109.52 85.6a1.32 1.32 0 0 1-.54.56c-.41-1.62-.8-3.38-1.36-5a1.11 1.11 0 0 0 .08-.8c0-.13-.08-.25-.13-.38a12.34 12.34 0 0 1 1.95 5.62z"/><path class="cls-1" d="M109 86.16a.47.47 0 0 1-.16.1.48.48 0 0 0-.3.33 26.53 26.53 0 0 1-1-3.89c-.08-.31-.16-.64-.26-1a2.41 2.41 0 0 0 .41-.54c.49 1.62.88 3.38 1.31 5zM108.9 72.86c-.44 0-.9 0-1.36-.06a1.09 1.09 0 0 1 1.26 0zM107.62 81.19a2.41 2.41 0 0 1-.41.54 8.11 8.11 0 0 1-.21-.85c.18-.3 0-.56-.28-1.33 0-.18.21-.2.31-.13a2.92 2.92 0 0 1 .54.57c.05.13.08.25.13.38a1.11 1.11 0 0 1-.08.82z"/><path class="cls-1" d="M107.57 80a2.92 2.92 0 0 0-.54-.57c-.1-.07-.31 0-.31.13a.1.1 0 0 0 0-.07 7.37 7.37 0 0 0-1-1.67.48.48 0 0 0 .31 0 1.42 1.42 0 0 0 .28-.2 8.66 8.66 0 0 1 1.26 2.38zM107 80.9a8.11 8.11 0 0 0 .21.85 6.17 6.17 0 0 1-1.28 1 .32.32 0 0 0-.44-.13 4.24 4.24 0 0 0-1.08.95 54.42 54.42 0 0 1-6.61 3.2h-1.84a70.05 70.05 0 0 0 7-3.2 18.07 18.07 0 0 0 3.36-2 4.61 4.61 0 0 0 .68-.67zM106.72 79.57c.33.77.46 1 .28 1.33a8.74 8.74 0 0 1-.28-1.33zM107.54 72.8a1.28 1.28 0 0 0-.56.8c-1.28 0-2.54-.1-3.79-.13h-3a14.4 14.4 0 0 0-3.41-.75c-.26 0-.29.36-.06.44s.67.2 1 .33c-1.93 0-3.82 0-5.72-.18a.4.4 0 0 1-.36-.43c.13.07.28.12.41.18a.34.34 0 0 0 .44-.16 123.73 123.73 0 0 1 15.05-.1z"/><path class="cls-5" d="M106.93 74.21c.15.82-.77 1.85-1.26 2.7a13 13 0 0 0-5.46-3.46h3c1.25 0 2.51.1 3.79.13a1.55 1.55 0 0 0-.07.63z"/><path class="cls-1" d="M106.72 79.57a8.74 8.74 0 0 0 .28 1.33 4.61 4.61 0 0 1-.74.72 18.07 18.07 0 0 1-3.36 2 70.05 70.05 0 0 1-7 3.2h-.6a.47.47 0 0 1 .26-.41c1.51-.9 11.64-4.43 10.56-6.56-1.69-3.36-5-5.21-8.4-6.36h1.08a14.33 14.33 0 0 1 6.64 4 .34.34 0 0 0 .23.28 7.37 7.37 0 0 1 1 1.67.1.1 0 0 1 .05.13z"/><path class="cls-1" d="M106 77.26a3.44 3.44 0 0 1 .26.34 1.42 1.42 0 0 1-.28.2.48.48 0 0 1-.31 0 1.64 1.64 0 0 0-.23-.28v-.1c0-.02.13-.34.2-.51a2.18 2.18 0 0 1 .36.35z"/><path class="cls-2" d="M106.13 79.83c1.08 2.13-9 5.66-10.56 6.56a.47.47 0 0 0-.26.41h-5.12-.08c-7.66-1.87-15.38.43-23 1.33a.66.66 0 0 0-.46.23c-3.25-2.18-6.36-4.43-10-5.92-3.29-1.36-4.72-2-6-5.33-1-2.51-1.77-5.08-2.67-7.62 11.21-4.12 22.2-1 33.69-1.84a74.87 74.87 0 0 0 10.05 5.31.4.4 0 0 0 .36.43c1.9.16 3.79.18 5.72.18 3.33 1.05 6.64 2.9 8.33 6.26z"/><path class="cls-1" d="M105.93 82.75a.19.19 0 0 1 0 .2 5.46 5.46 0 0 1-1.41 2c-.59.64-1.17 1.28-1.77 1.9a4.14 4.14 0 0 0-.61 0c1.07-1.23 2.33-2.46 3.44-3.88z"/><path class="cls-1" d="M105.6 83l-1 .52a2 2 0 0 0-.21.1 4.24 4.24 0 0 1 1.08-.95.32.32 0 0 1 .44.13zM105.67 76.91c-.07.17-.15.35-.2.51s0 .08 0 .1a14.33 14.33 0 0 0-6.64-4h1.39a13 13 0 0 1 5.45 3.39zM105.44 77.55a1.64 1.64 0 0 1 .23.28.34.34 0 0 1-.23-.28z"/><path class="cls-1" d="M104.62 83.47l1-.52c-1.11 1.42-2.37 2.65-3.44 3.88a1.89 1.89 0 0 0-.41 0 .16.16 0 0 1 0-.18c.54-.72 1.15-1.36 1.77-2.05.28-.31.54-.67.84-1a2 2 0 0 1 .24-.13zM103.75 117.64a.15.15 0 0 1 .15.12c0 .13.08.29.11.41a.27.27 0 0 1-.34.23.33.33 0 0 1-.23-.1c0-.18 0-.36.08-.54a.15.15 0 0 1 .23-.12z"/><path class="cls-4" d="M104.41 83.57c-.3.33-.56.69-.84 1-.62.69-1.23 1.33-1.77 2.05a.16.16 0 0 0 0 .18h-4a54.42 54.42 0 0 0 6.61-3.23z"/><path class="cls-1" d="M102.77 86.83l-.3.3c-.28.26-.8 0-.72-.33a1.89 1.89 0 0 1 .41 0 4.14 4.14 0 0 1 .61.03zM100.29 43.22a.35.35 0 0 1 .25-.1l.21.08a.19.19 0 0 1-.1.36h-.11a2.73 2.73 0 0 0-.41-.1.37.37 0 0 1 .16-.24z"/><path class="cls-1" d="M100.54 43.12a.35.35 0 0 0-.25.1c-2.44-.92-5.77-1-8.31-1.41-3.28-.53-6.59-1-9.89-1.43a122.89 122.89 0 0 0-21.51-1.64 128 128 0 0 0-22.07 2.38.41.41 0 0 0 .18-.28c0-.1.05-.2.08-.31a108.65 108.65 0 0 1 33.78-2c8.97 1 19.59 1.26 27.99 4.59zM98.8 73.47h-1.07c-.34-.13-.67-.23-1-.33s-.2-.46.06-.44a14.4 14.4 0 0 1 3.41.75c-.47 0-.94 0-1.4.02z"/><path class="cls-1" d="M100.29 43.22a.37.37 0 0 0-.16.21c-4.25-1.08-8.89-1.15-13.25-1.77-5.54-.77-11.1-1.69-16.68-2a137.42 137.42 0 0 0-31.76 2 .2.2 0 0 1-.21 0v-.13a.57.57 0 0 0 0-.26.4.4 0 0 0 .23-.1 128 128 0 0 1 22.07-2.38 122.89 122.89 0 0 1 21.51 1.64c3.3.46 6.61.9 9.89 1.43 2.59.34 5.92.44 8.36 1.36zM95.91 86.8h1.84a14.31 14.31 0 0 1-1.79.57.52.52 0 0 1-.65-.54zM95.73 109.05a6.41 6.41 0 0 1-1.11 3.84.63.63 0 0 1-1 .06.07.07 0 0 0 0-.06c.1 0 .23 0 .33.06.33 0 .44-.36.26-.57.28-.87.82-2.46 1.07-3.13a.33.33 0 0 0 .44-.28.09.09 0 0 1 .01.08z"/><path class="cls-1" d="M95.68 108.9a.1.1 0 0 1 0 .07.33.33 0 0 1-.44.28 1.58 1.58 0 0 1 .11-.28l-.18-.23a.44.44 0 0 1 .51.16z"/><path class="cls-1" d="M95.65 108.79a.09.09 0 0 1 0 .11.44.44 0 0 0-.49-.16c-1.18-1.69-4.39-3.2-6.13-4-2.49-1.23-5.12-2.13-7.72-3.15-4.43-1.74-8.86-3.77-13.73-3.92-4.11-.11-8.79 2.38-12.08 4.71-.94.7-1.82 1.54-2.82 2.16a6.52 6.52 0 0 1-.64.3.5.5 0 0 0-.74-.23c-.15.11-.31.18-.46.29a13 13 0 0 1 1.2-1.26.61.61 0 0 0 0 .23c0 .33.49.26.56 0a7.09 7.09 0 0 0 .31-1C58 98.49 66 96 71.86 97.49c5.59 1.46 14.54 3.77 20.2 7.84a2.5 2.5 0 0 0 .23.54.39.39 0 0 0 .62.1 14.84 14.84 0 0 1 2.74 2.82z"/><path class="cls-1" d="M95.19 108.74l.18.23a1.58 1.58 0 0 0-.11.28.3.3 0 0 1-.15 0l-.26-.25a.52.52 0 0 1 .08-.11.46.46 0 0 1 .26-.15z"/><path class="cls-1" d="M95.11 109.2a.3.3 0 0 0 .15 0c-.25.67-.79 2.26-1.07 3.13a.18.18 0 0 0-.16-.1l-.51-.15a6.2 6.2 0 0 1 1.31-3.08zM95.19 108.74a.46.46 0 0 0-.26.1.52.52 0 0 0-.08.11c-5.18-4.85-14.64-7.85-21.35-9.62-9.08-2.38-15.26 2-22.33 6.64.23-.18.49-.33.72-.51a.56.56 0 0 0 .2-.67 6.52 6.52 0 0 0 .64-.3c1-.62 1.88-1.46 2.82-2.16 3.29-2.33 8-4.82 12.08-4.71 4.87.15 9.3 2.18 13.73 3.92 2.6 1 5.23 1.92 7.72 3.15 1.72.85 4.92 2.36 6.11 4.05zM94.21 128.84a.52.52 0 0 1 .16 1c-.08 0-.16.08-.23.1.02-.38.05-.74.07-1.1z"/><path class="cls-1" d="M93.34 112.84a1.89 1.89 0 0 0 .23 0 .07.07 0 0 1 0 .06c2.9 9.61 3.41 22.73-2.56 31.24a.43.43 0 0 1-.41.18c-.28-.08-.36-.13-.46-.41a.14.14 0 0 1 0-.15.37.37 0 0 0 .43-.16h.06v-.05a.32.32 0 0 0 0-.44c.31-1.67 2.56-6.67 2.79-7.92a45.07 45.07 0 0 0 .7-5.34c.07 0 .15-.07.23-.1a.52.52 0 0 0-.16-1c.05-1 .08-2 .05-3-.1-4.38-.74-8.66-1.2-13a.92.92 0 0 0 .3.09z"/><path class="cls-3" d="M94.26 125.81c0 1 0 2-.05 3a.32.32 0 0 0-.25 0c-1.64.36-3.31-.05-4.93.28a25.15 25.15 0 0 0-5.17 1.8 21.16 21.16 0 0 0-2.92-4.82.3.3 0 0 0-.31-.1h-.08c-5.51-1.28-10.94.33-16.43.56a.35.35 0 0 0-.54.1c-1 1.62-1.84 3.28-2.71 5a.08.08 0 0 0 0-.1c-.72-1.08-2.41-1.34-3.59-1.72a12.78 12.78 0 0 0-4.71-.74.11.11 0 0 0-.08 0c.28-5.94 1.1-12 .66-17.56a.38.38 0 0 0-.1-.25c7.9-2.16 13.92-6.46 22.71-5 6.26 1 11.23 5.38 17.33 6.53.43 4.36 1.07 8.64 1.17 13.02z"/><path class="cls-1" d="M84 131.17a2.51 2.51 0 0 0-.13-.28 25.15 25.15 0 0 1 5.17-1.8c1.62-.33 3.29.08 4.93-.28a.32.32 0 0 1 .25 0c0 .36 0 .72-.07 1.07-1.41.57-2.82.23-4.33.31-2 .1-3.75 1-5.7 1.23-.06-.07-.12-.17-.12-.25zM93.49 112.51v-.38l.51.15a.18.18 0 0 1 .16.1c.18.21.07.62-.26.57-.1 0-.23 0-.33-.06a.84.84 0 0 0 0-.2v-.13z"/><path class="cls-3" d="M94.14 129.91a45.07 45.07 0 0 1-.7 5.34c-.23 1.25-2.48 6.25-2.79 7.92a50 50 0 0 1-5.23-8.72c-.43-1-.87-2-1.31-3 2-.25 3.75-1.13 5.7-1.23 1.51-.08 2.92.26 4.33-.31z"/><path class="cls-1" d="M93.55 112.69a.84.84 0 0 1 0 .2.56.56 0 0 1 0-.23z"/><path class="cls-6" d="M94.83 109a6.2 6.2 0 0 0-1.31 3.18c-6.84-2.11-12.18-7-19.61-7.77-8-.82-14.84 2.59-21.91 5.92a13.56 13.56 0 0 0-1.47-3.9 4.74 4.74 0 0 0 .62-.41c7.07-4.66 13.25-9 22.33-6.64 6.71 1.72 16.17 4.72 21.35 9.62z"/><path class="cls-1" d="M93.34 112.84a.92.92 0 0 1-.28 0v-.05c0-.26.36-.31.43-.1 0 0 .06 0 0 0a.56.56 0 0 0 0 .23 1.89 1.89 0 0 1-.15-.08zM93.52 112.13v.38c-4.07-.64-7.86-3.74-11.66-5.23-4.41-1.72-9.3-2.84-14-2.15-5.54.82-10.44 4.05-15.74 5.79a2.86 2.86 0 0 0 0-.62c7.07-3.33 13.89-6.74 21.91-5.92 7.31.7 12.65 5.62 19.49 7.75z"/><path class="cls-1" d="M93.49 112.59c-.07-.21-.46-.16-.43.1v.05c-6.1-1.15-11.07-5.51-17.33-6.53-8.79-1.49-14.81 2.81-22.71 5a.42.42 0 0 0-.74.2 2.85 2.85 0 0 1-.39.11.57.57 0 0 1-.69-.59q.19.18.39.33a.3.3 0 0 0 .46-.26v-.1c5.3-1.74 10.2-5 15.74-5.79 4.74-.69 9.63.43 14 2.15 3.8 1.49 7.59 4.59 11.66 5.23zM93.11 105.51a.42.42 0 0 1-.2.46l-.85-.64a16 16 0 0 1-1-3.64c-.28-1.59-.77-3.12-1-4.69v-.07a.07.07 0 0 1 0-.08c.18.1.36.15.54.23a8.93 8.93 0 0 1 1.39 3.71c.4 1.59.84 3.21 1.12 4.72zM92.91 106a.39.39 0 0 1-.62-.1 2.5 2.5 0 0 1-.23-.54zM92 72.55a3.22 3.22 0 0 1 .57-.1.4.4 0 0 1 0 .43.34.34 0 0 1-.44.16c-.13-.06-.28-.11-.41-.18a.38.38 0 0 1 .26-.29z"/><path class="cls-1" d="M92.39 72.24a.24.24 0 0 1 .16.21 3.22 3.22 0 0 0-.57.1c-1.59-.55-2.89-1.77-4.36-2.55-1.81-1-3.76-1.8-5.53-2.9-4.69-2.93-9.51-5.5-14.38-8.1-.36-.17-.69-.36-1-.53v-.17a.77.77 0 0 0-.26-.54c8.55 5.05 17.2 10.07 25.94 14.48z"/><path class="cls-1" d="M92 72.55h-.07a.38.38 0 0 0-.26.29 74.87 74.87 0 0 1-10.07-5.29.3.3 0 0 0 .08-.59c-.67-.2-1.33-.38-2-.54-1.33-.79-2.69-1.59-4-2.33-3-1.67-6-3.26-9-4.87a2.62 2.62 0 0 0 0-.74c.36.17.69.36 1 .53 4.87 2.59 9.69 5.16 14.38 8.05 1.77 1.1 3.72 1.87 5.53 2.9 1.5.82 2.8 2.04 4.41 2.59z"/><path class="cls-3" d="M91.11 101.69a16 16 0 0 0 1 3.64c-5.66-4.07-14.61-6.38-20.2-7.84C66 96 58 98.49 53 102.77a21.68 21.68 0 0 0 .28-3.69c0-1.64.13-3.28.26-4.9 1.06-1.28 1.88-2.75 2.95-4a25 25 0 0 1 4.46-3.77.49.49 0 0 0 .13-.18 46 46 0 0 0 5.41 2.9.58.58 0 0 0 .59.33c6.89.08 13.51-2.25 20.38-2-2 2 .74 8 2.1 9.51a.34.34 0 0 0 .54 0V97c.24 1.57.73 3.1 1.01 4.69z"/><path class="cls-1" d="M90.68 143.19a.32.32 0 0 1 0 .44.86.86 0 0 1 0-.46v.02zM90.47 96.8a1.21 1.21 0 0 1 .21.28c-.18-.08-.36-.13-.54-.23s0-.08 0-.08.23-.08.33.03z"/><path class="cls-1" d="M80.81 126.58a.36.36 0 0 0-.18-.61.3.3 0 0 1 .31.1 21.16 21.16 0 0 1 2.92 4.82.93.93 0 0 0-.31.13.26.26 0 0 0 .13.48 1.88 1.88 0 0 0 .43-.05c.44 1 .88 2 1.31 3a50 50 0 0 0 5.23 8.72.86.86 0 0 0 0 .46.28.28 0 0 0-.43.16h-.1c-2.64-1.38-4.1-4.38-5.18-7a91.27 91.27 0 0 0-4.44-10 .41.41 0 0 0 .16 0 .31.31 0 0 0 .15-.21z"/><path class="cls-1" d="M90.19 143.81a.28.28 0 0 1 .43-.16.37.37 0 0 1-.43.16zM89.65 87.08a.51.51 0 0 1 .49-.33.45.45 0 0 1 .2.59.37.37 0 0 1-.41.28 1.23 1.23 0 0 0-.33 0 .57.57 0 0 1 .05-.54zM89.73 96.49a.29.29 0 0 1 .25-.28h.08a1.6 1.6 0 0 1 .1.23v.07a.39.39 0 0 1 0 .26s-.08 0 0 .08a1.75 1.75 0 0 1-.28-.13.23.23 0 0 1-.15-.23z"/><path class="cls-1" d="M88.47 86.88a2 2 0 0 0-1 .54c-6.87-.23-13.49 2.1-20.38 2a.58.58 0 0 1-.59-.33c.43.18.67-.49.31-.72-.05 0-.13-.08-.18-.13a.66.66 0 0 1 .46-.23c7.66-.9 15.38-3.2 23-1.33h.08a.51.51 0 0 0-.49.33c-.36-.08-.69-.13-1-.18a.39.39 0 0 0-.21.05zM90.14 96.85a.07.07 0 0 0 0 .08.34.34 0 0 1-.54 0c-1.36-1.47-4.08-7.52-2.1-9.51h.71c-1.89 1.67.47 7.33 1.57 9a.23.23 0 0 0 .13.23 1.75 1.75 0 0 0 .23.2z"/><path class="cls-1" d="M90.06 96.21H90a.29.29 0 0 0-.25.28c-1.1-1.72-3.46-7.38-1.57-9h.47c-1.84 2.23.35 6.41 1.41 8.72z"/><path class="cls-1" d="M89.65 87.59c-.33 0-.67-.07-1-.1a.65.65 0 0 1 .1-.15.26.26 0 0 0-.12-.44c.33 0 .66.1 1 .18a.57.57 0 0 0 .02.51z"/><path class="cls-1" d="M88.16 87.44h-.71a2 2 0 0 1 1-.54.39.39 0 0 1 .16 0 .26.26 0 0 1 .12.44.65.65 0 0 0-.1.15c-.16-.02-.31-.02-.47-.05zM84 131.17c.05.08.07.18.12.28a1.88 1.88 0 0 1-.43.05.26.26 0 0 1-.13-.48.93.93 0 0 1 .31-.13 2.51 2.51 0 0 1 .13.28zM80.94 67.17c-.41-.24-.85-.49-1.26-.75.67.16 1.33.34 2 .54a.3.3 0 0 1-.08.59c-.26-.13-.46-.26-.66-.38zM80.45 12.9h.59l.61.51a.26.26 0 0 1 0 .36 4.93 4.93 0 0 0-.54-.05c-.46-.33-.92-.64-1.38-.95a3.53 3.53 0 0 1 .72.13zM81.11 13.77a4.93 4.93 0 0 1 .54.05.23.23 0 0 1-.33.08 1.2 1.2 0 0 0-.21-.13z"/><path class="cls-1" d="M80.94 67.17c.2.12.4.25.64.38-11.49.87-22.48-2.28-33.69 1.84 0-.15-.1-.3-.12-.46a2.26 2.26 0 0 1 .38-.25.22.22 0 0 0 .15-.16c3.77-1.92 9.31-2.28 14-2.35a.26.26 0 0 0 .26.18 1.1 1.1 0 0 0 .66-.23h2.31a133.78 133.78 0 0 1 15.41 1.05zM79.73 12.82c.46.31.92.62 1.38.95-8.89-1-18.07.51-25.27 4.8a54.15 54.15 0 0 0-6.3 4.07 31.79 31.79 0 0 0-4.31 4.85c-3.15 3.82-6.23 8.2-7.08 13.17-.1 0-.18.05-.23.13a.45.45 0 0 0-.3-.1v-.16a24.85 24.85 0 0 1 .79-3 4.68 4.68 0 0 0 1.21-2.1.34.34 0 0 0-.29-.41c6.31-15.27 24.3-23.63 40.4-22.2z"/><path class="cls-1" d="M80.45 12.9a3.53 3.53 0 0 0-.72-.08C68.22 5.13 56.56 1.06 42.31 1.78c-7.36.33-16.38 1.3-22.82 5.3-.23.13-9 6.46-1.56 6.36a73.61 73.61 0 0 0 8.23-.67c.64-.07.79 1 .15 1.13a3.72 3.72 0 0 1-.41.08c.1 0 .21-.08.31-.1s.2-.47-.05-.44a8.94 8.94 0 0 0-3.08 1c-4.25.65-10.87 1.13-10.07-2.33 1.2-5.23 8.77-7.87 13.25-9.11C45.23-2.33 65.91 0 81 13c-.17-.07-.35-.1-.55-.1zM79.68 66.42c.41.26.85.51 1.26.75a133.78 133.78 0 0 0-15.46-1h-2.31a3.75 3.75 0 0 0 .77-.85c5.18-.08 10.66-.1 15.74 1.1zM80.3 126.35a.48.48 0 0 1 .25-.38h.08a.36.36 0 0 1 .18.61.31.31 0 0 1-.18.16.41.41 0 0 1-.16 0c0-.08-.07-.15-.12-.23a.25.25 0 0 1-.05-.16z"/><path class="cls-1" d="M80.35 126.53c.05.08.07.15.12.23-2.59.75-5.35 0-8 .1-2.82.08-5.54.7-8.38.57a2.65 2.65 0 0 1 .21-.41c2.63.12 5.4-.77 8.17-.77 2.62 0 5.25.28 7.85.15a.25.25 0 0 0 .03.13z"/><path class="cls-1" d="M80.55 126a.48.48 0 0 0-.25.38c-2.6.13-5.23-.15-7.85-.15-2.77 0-5.54.89-8.17.77a.37.37 0 0 0-.16-.44c5.49-.26 10.88-1.87 16.43-.56z"/><path d="M79.73 12.82c-16.1-1.43-34.09 6.93-40.4 22.18-.1-.06-.2 0-.3.07a17.12 17.12 0 0 1-4.87 3.67 4.94 4.94 0 0 1-3.1.54c-1.21-.31-1-2.23-1-3.16q1.23-2.43 2.26-5c.13-.34-.41-.57-.59-.24a110 110 0 0 1-12.36 18.73c-1.7 2.1-3.31 4.28-5.08 6.3-2.56 3-7.56 2.39-8.74-1.41a18 18 0 0 1-.49-4.82c-.13-6.58 2.41-13.15 5.54-18.84 2.9-5.28 9.13-14.68 15.23-16.84h.07a3.72 3.72 0 0 0 .41-.08c.64-.1.49-1.2-.15-1.13a73.61 73.61 0 0 1-8.23.67c-7.41.1 1.33-6.23 1.56-6.36 6.44-4 15.46-5 22.82-5.3 14.25-.74 25.91 3.33 37.42 11.02z" fill="#d93933"/><path class="cls-5" d="M75.65 64.09c1.34.74 2.7 1.54 4 2.33-5.08-1.2-10.56-1.18-15.74-1.1a17.53 17.53 0 0 0 .85-1.61c.51-1 1-2.06 1.46-3.13a2.61 2.61 0 0 0 .41-1.36c3.03 1.61 6.03 3.2 9.02 4.87z"/><path class="cls-1" d="M66.4 88.62a.72.72 0 0 1 .18-.36s.13.08.18.13c.36.23.12.9-.31.72a.59.59 0 0 1-.05-.49zM65.84 58.76c-.26-.13-.52-.26-.77-.41v-.05a.83.83 0 0 1 .18-.44l1.39.62a2.62 2.62 0 0 1 0 .74 7.22 7.22 0 0 1-.8-.46zM66.66 58.3v.18l-1.39-.62a.72.72 0 0 1 .8-.31l.29.15a.77.77 0 0 1 .3.6z"/><path class="cls-1" d="M65.84 58.76a7.22 7.22 0 0 0 .82.46 2.61 2.61 0 0 1-.41 1.36c.08-.26.18-.49.26-.75s-.36-.71-.7-.53a2 2 0 0 0 .03-.54z"/><path class="cls-1" d="M65.4 61.09a.64.64 0 0 1-.48-.31c.23-.43.46-.87.71-1.3.05-.11.1-.16.18-.18.34-.18.85.12.7.53s-.18.49-.26.75a2 2 0 0 1-.31.36.56.56 0 0 1-.54.15zM66.58 88.26a.72.72 0 0 0-.18.36c-3-1.51-5.64-3.69-8.82-5.08-1.59-.69-3.23-1.23-4.79-1.94s-1.74-1.41-2.38-3c-1.18-3-2.16-6-3.1-9a.31.31 0 0 0 .3 0c.11 0 .18-.08.28-.11.9 2.54 1.7 5.11 2.67 7.62 1.31 3.31 2.74 4 6 5.33 3.66 1.39 6.77 3.64 10.02 5.82z"/><path class="cls-1" d="M66.4 88.62a.59.59 0 0 0 .08.49 46 46 0 0 1-5.41-2.9.37.37 0 0 0-.43-.54 2 2 0 0 0-.34.13c-.23-.15-.49-.31-.74-.44-1.75-.94-3.56-1.58-5.41-2.36a23.77 23.77 0 0 1-2.54-1.23c-1.08-.62-1.51-2-1.92-3-1.1-3-2.1-6-2.95-9a2.08 2.08 0 0 1 .36-.29.29.29 0 0 0 .21.11c.94 3 1.92 6.07 3.1 9 .64 1.64.79 2.3 2.38 3s3.2 1.25 4.79 1.94c3.18 1.4 5.82 3.58 8.82 5.09zM66.38 57.73l-.29-.15a.36.36 0 0 1 .29.15zM65.94 60.94a2 2 0 0 0 .31-.36c-.41 1.07-1 2.1-1.46 3.13a17.53 17.53 0 0 1-.85 1.61h-.82a36.94 36.94 0 0 0 2.28-4.23.56.56 0 0 0 .54-.15zM66.07 57.55a.72.72 0 0 0-.8.31 27.5 27.5 0 0 1-5.56-3.08 16.35 16.35 0 0 0-7.46-3.66c-1.54-.26-15.36 1.1-15.36.79.18.08.49 0 .44-.25a2.74 2.74 0 0 1 0-.49c0 .69 8.85-.36 9.87-.44 3.28-.23 6.38-.59 9.38 1.21 3.11 1.82 6.28 3.72 9.49 5.61zM65.84 58.76a2 2 0 0 1 0 .54c-.08 0-.13.07-.18.18-.25.43-.48.87-.71 1.3a.44.44 0 0 1-.08-.28 15.2 15.2 0 0 1 .23-2.15c.22.15.48.28.74.41z"/><path class="cls-1" d="M65.25 57.86a.83.83 0 0 0-.18.44v.05c-2.51-1.36-5-2.75-7.44-4.23-4-2.39-7.35-2.41-11.33-2.15-.05-.06-.08-.06-.13 0-.87 0-1.79.13-2.77.18a43.6 43.6 0 0 1-5 .41.33.33 0 0 0-.61-.2s0 .12-.08.17a5.3 5.3 0 0 1-.9-.17.47.47 0 0 1-.35-.47c0-.25 0-.53.07-.79a3.39 3.39 0 0 0 .31.67l.1.1c0 .31 13.82-1 15.36-.79a16.35 16.35 0 0 1 7.46 3.66 27.5 27.5 0 0 0 5.49 3.12zM64.92 60.78a.64.64 0 0 0 .48.31 36.94 36.94 0 0 1-2.28 4.23h-.74a14.17 14.17 0 0 1 1.36-2.23c.4-.77.79-1.54 1.18-2.31z"/><path class="cls-4" d="M65.07 58.35a15.2 15.2 0 0 0-.23 2.15.44.44 0 0 0 .08.28c-.39.77-.78 1.54-1.18 2.31a14.17 14.17 0 0 0-1.36 2.23h-.05c-4.7.08-10.16.18-14.28 2.67a.28.28 0 0 0-.25 0c-.26.13-.54.26-.85.44a6.74 6.74 0 0 0-2.23 1.82c-.54-6.23.53-12 1.69-18.15a.18.18 0 0 0-.11-.1c4-.26 7.36-.24 11.33 2.15 2.44 1.45 4.93 2.85 7.44 4.2z"/><path class="cls-1" d="M64.25 127a2.65 2.65 0 0 0-.21.41.4.4 0 0 1-.33-.26.42.42 0 0 1 .36-.64h.05a.37.37 0 0 1 .16.44z"/><path class="cls-1" d="M63.71 127.17a.4.4 0 0 0 .33.26c-1.89 3.66-3.38 7.48-5.43 11.07-1 1.77-2 3.87-3.59 5.26a.79.79 0 0 1-.9.12h-.07c-.08-.26-.18-.49-.26-.75a1.26 1.26 0 0 0 .36-.1.53.53 0 0 0-.39 0v-.05c.06 0 .11-.13.21-.21a7.49 7.49 0 0 0 1.15-1.3c.85-1.16 1.62-2.36 2.34-3.57 1.1-1.84 2.1-3.74 3.1-5.66a.43.43 0 0 0 .31-.56c.87-1.67 1.74-3.33 2.71-5a.35.35 0 0 1 .54-.1h-.05a.42.42 0 0 0-.36.59zM63.12 65.32h.82a3.75 3.75 0 0 1-.77.85h-.92a1.44 1.44 0 0 1 .13-.85zM62.25 66.17h.92a1.1 1.1 0 0 1-.66.23.26.26 0 0 1-.26-.18z"/><path class="cls-1" d="M62.33 65.32h.05a1.44 1.44 0 0 0-.13.85c-4.64.07-10.18.43-14 2.35a.36.36 0 0 0-.25-.53c4.17-2.49 9.63-2.59 14.33-2.67zM60.64 85.67a.37.37 0 0 1 .43.54l-.31-.15a3.57 3.57 0 0 0-.46-.26 2 2 0 0 1 .34-.13z"/><path class="cls-1" d="M61.07 86.21a.49.49 0 0 1-.13.18 25 25 0 0 0-4.46 3.77c-1.07 1.25-1.89 2.72-2.95 4V93.55c1.34-2.8 4.51-6.31 7.23-7.51zM60.87 131.61a.43.43 0 0 1-.31.56 4 4 0 0 1 .31-.56zM60.84 131.48a.08.08 0 0 1 0 .1 4 4 0 0 0-.31.56c-1.23.28-2.54-.67-3.69-1a13 13 0 0 0-4.33-.82h-.13c0-.41.05-.82.05-1.23a.11.11 0 0 1 .08 0 12.78 12.78 0 0 1 4.71.74c1.21.31 2.9.57 3.62 1.65z"/><path class="cls-1" d="M60.3 85.8a3.57 3.57 0 0 1 .46.26c-2.72 1.2-5.89 4.71-7.23 7.51a.35.35 0 0 0-.33-.28 6.26 6.26 0 0 1 .69-1.52.38.38 0 0 0 .44-.36v-.35a15.07 15.07 0 0 1 1.72-2c1.18-1.23 2.61-2.72 4.25-3.26z"/><path class="cls-3" d="M56.87 131.12c1.15.38 2.46 1.33 3.69 1-1 1.92-2 3.82-3.1 5.66-.72 1.21-1.49 2.41-2.34 3.57A7.49 7.49 0 0 1 54 142.7c-.1.08-.15.16-.21.21a37.5 37.5 0 0 1-1.35-12.64h.13a13 13 0 0 1 4.3.85zM59.56 85.36c.25.13.51.29.74.44-1.64.54-3.07 2-4.23 3.23a15.07 15.07 0 0 0-1.72 2c.08-1.57.11-3.16.13-4.72 0-.87.31-2.56-.36-3.28 1.88.75 3.69 1.39 5.44 2.33z"/><path class="cls-1" d="M54 89a.31.31 0 0 0 .28-.35 4.47 4.47 0 0 0-.26-1c.08-2 .13-4 .13-4.59.67.72.36 2.41.36 3.28 0 1.56 0 3.15-.13 4.72a5.69 5.69 0 0 0-.46.71.34.34 0 0 1-.3-.36c-.06-1-.06-2 0-3 0 .1.08.23.13.36A.29.29 0 0 0 54 89z"/><path class="cls-1" d="M54.35 91.06v.35a.38.38 0 0 1-.44.36 5.69 5.69 0 0 1 .44-.71zM54.25 88.65A.31.31 0 0 1 54 89a1.3 1.3 0 0 0 0-.28v-1.07a4.47 4.47 0 0 1 .25 1z"/><path class="cls-4" d="M54.15 83c-.67.69-.46 2.41-.49 3.31-2-5.74-7.48-10.77-13.41-12.94-1.3-2.77-1.2-5.69-1.46-8.67.08-.15.18-.28.26-.43s-.18-.44-.36-.26a.22.22 0 0 0-.36.15v.28a19.63 19.63 0 0 0-3 4.64 73.05 73.05 0 0 1 3.1-16.53v-.05a43.6 43.6 0 0 0 5-.41c1-.05 1.9-.13 2.77-.18-3.44 5.15-3.9 13.84-2.2 19.64a.48.48 0 0 0 .69.25.29.29 0 0 0 .18-.08c.49-.44.79-1 1.25-1.46a7.31 7.31 0 0 1 .72-.64c.85 3.07 1.85 6.07 2.95 9 .41 1.1.84 2.43 1.92 3A23.77 23.77 0 0 0 54.15 83z"/><path class="cls-1" d="M53.76 143a.53.53 0 0 1 .39 0 1.26 1.26 0 0 1-.36.1l-.03-.1zM54.12 83c0 .59 0 2.59-.13 4.59a5.09 5.09 0 0 0-.38-1.26c0-.9-.18-2.62.49-3.31z"/><path class="cls-1" d="M52.15 129.2a.65.65 0 0 0 0 .94.41.41 0 0 0 .31.13 37.5 37.5 0 0 0 1.35 12.64.28.28 0 0 0-.07.34c.1.3.18.33.41.48a.25.25 0 0 1-.46.18c-2.54-3.69-2.52-8.1-2.31-12.43.31-6.69.59-13.38 1-20.1.26-.05.49-.13.74-.2a.38.38 0 0 1 .1.25c.44 5.54-.38 11.62-.66 17.56a.36.36 0 0 0-.41.21z"/><path class="cls-1" d="M54.05 143.81c-.23-.15-.31-.18-.41-.48a.28.28 0 0 1 .07-.34c0 .05 0 .05.08.05.08.28.21.51.26.77zM54 87.65v1.07a14.18 14.18 0 0 0-.38-1.38v-.92a5.09 5.09 0 0 1 .38 1.23z"/><path class="cls-1" d="M54 88.72a1.3 1.3 0 0 1 0 .28.29.29 0 0 1-.28-.2c0-.13-.08-.26-.13-.36v-1.1a14.18 14.18 0 0 1 .41 1.38zM53.76 143v.1c0 .02-.08 0-.08-.05zM53.76 142.94z"/><path class="cls-3" d="M53.59 91.41a.34.34 0 0 0 .3.36 6.26 6.26 0 0 0-.69 1.52.35.35 0 0 0-.38.25 26 26 0 0 0-.75 10 13 13 0 0 0-1.2 1.26c-9.66 5.89-18.3 13.35-28.1 19.07-4.28 2.51-8.81 5-13.25 7.38h-.08a9.52 9.52 0 0 0-1 .36 19.53 19.53 0 0 0-2.69 1.64c-.87.49-1.72 1-2.56 1.41a.1.1 0 0 1-.08 0c-.38.13-.79.28-1.18.44-.13.05-.49.2-.79.35a.07.07 0 0 1 0-.05.41.41 0 0 1 .05-.18.35.35 0 0 0-.31-.44 2.26 2.26 0 0 0 .87-1.08q.91-2.49 2-4.92c1.21-2.56 2.67-5 4-7.51 3.1-5.92 5.94-11.81 9.53-17.45 1.26-2 1.82-4.54 2.85-6.62a90 90 0 0 1 5-8.2c3.21-5.07 8.15-11.15 10.08-15.81 7.79 2.66 15.35 7.18 18.35 15.25-.03.97-.03 1.97.03 2.97z"/><path class="cls-1" d="M53.61 86.39v.92c-2-5.64-7.75-10.58-13.51-13a.45.45 0 0 0 .2-.62c0-.08-.08-.13-.08-.2 5.91 2.13 11.39 7.16 13.39 12.9z"/><path class="cls-1" d="M53.59 87.31v1.1c-3-8.07-10.61-12.59-18.35-15.25 0 .08.08.1.13 0s.12-.21.18-.31A21.65 21.65 0 0 1 39.44 74a.24.24 0 0 0 0 .1.42.42 0 0 0 .57.16c5.83 2.47 11.6 7.41 13.58 13.05zM53.1 94.11a.27.27 0 0 1-.05-.24 1.84 1.84 0 0 1 .15-.58.35.35 0 0 1 .33.28V94.18a.27.27 0 0 1-.43-.07z"/><path class="cls-1" d="M53.1 94.11a.27.27 0 0 0 .41.07c-.13 1.62-.21 3.26-.26 4.9a21.68 21.68 0 0 1-.28 3.69 6.46 6.46 0 0 0-.54.46c.31-3.05.18-6.07.67-9.12z"/><path class="cls-1" d="M53.2 93.29a1.84 1.84 0 0 0-.15.58.27.27 0 0 0 .05.24c-.49 3-.36 6.07-.67 9.12a2 2 0 0 0-.36.36 26 26 0 0 1 .75-10 .35.35 0 0 1 .38-.3zM53 111.23c-.25.07-.48.15-.74.2a.42.42 0 0 1 .74-.2z"/><path class="cls-1" d="M52.43 103.23a6.46 6.46 0 0 1 .54-.46 7.09 7.09 0 0 1-.31 1c-.07.26-.51.33-.56 0a.61.61 0 0 1 0-.23 2 2 0 0 1 .33-.31zM52.46 129c0 .41 0 .82-.05 1.23a.41.41 0 0 1-.31-.13v-.94a.36.36 0 0 1 .36-.16z"/><path class="cls-1" d="M52.15 129.2v.94a.65.65 0 0 1 0-.94zM52.07 104.79a.56.56 0 0 1-.2.67c-.23.18-.49.33-.72.51a4.74 4.74 0 0 1-.62.41c-.05-.1-.1-.23-.15-.33a.63.63 0 0 1 .21-.36l1-.69c.18-.08.33-.13.48-.21zM52.05 110.92v.1a.3.3 0 0 1-.46.26q-.2-.15-.39-.33a.43.43 0 0 1 .28-.41c.08.15.15.33.23.48.13-.02.23-.02.34-.1z"/><path class="cls-1" d="M52 110.3a2.86 2.86 0 0 1 0 .62c-.11 0-.21.08-.31.1-.08-.15-.15-.33-.23-.48a4 4 0 0 0 .54-.24zM52 110.28a4 4 0 0 1-.49.21 26.78 26.78 0 0 1-1.36-3.84 2 2 0 0 0 .36-.26 13.56 13.56 0 0 1 1.49 3.89zM51.33 104.56a.5.5 0 0 1 .74.23c-.15.08-.3.13-.46.21a2.52 2.52 0 0 0-1 .69 1 1 0 0 0-.34.23.1.1 0 0 0-.13 0 7.22 7.22 0 0 1 .75-1c.11-.18.29-.25.44-.36z"/><path class="cls-1" d="M51.59 105l-1 .69a2.52 2.52 0 0 1 1-.69zM51.51 110.51a.43.43 0 0 0-.28.41 7.5 7.5 0 0 1-1.49-4 1.63 1.63 0 0 0 .44-.3 26.78 26.78 0 0 0 1.33 3.89zM50.87 104.85a7.22 7.22 0 0 0-.75 1 .43.43 0 0 0-.51.46C40 112.74 31.13 120 21 125.43c-2.92 1.56-5.61 3.51-8.59 4.95a21.22 21.22 0 0 1-2.87.92c4.44-2.41 9-4.87 13.25-7.38 9.78-5.72 18.42-13.18 28.08-19.07zM50.25 105.92a1 1 0 0 1 .34-.23.63.63 0 0 0-.21.36.24.24 0 0 0-.13-.13z"/><path class="cls-1" d="M50.38 106.05c0 .1.1.23.15.33a.38.38 0 0 1-.49-.13c0-.08-.05-.13 0-.2a.74.74 0 0 1 .23-.16.24.24 0 0 1 .11.16z"/><path class="cls-1" d="M50.51 106.41a2 2 0 0 1-.36.26 3 3 0 0 1-.13-.39.38.38 0 0 0 .49.13zM50.25 105.92a.74.74 0 0 0-.23.16.11.11 0 0 1 0-.13l.07-.08a.1.1 0 0 1 .16.05z"/><path class="cls-1" d="M50.15 106.67a1.63 1.63 0 0 1-.44.3c-.05-.2-.07-.41-.1-.59a2.14 2.14 0 0 1 .41-.25c-.05.07 0 .12 0 .2a3 3 0 0 0 .13.34zM50.12 105.87l-.07.08a.11.11 0 0 0 0 .13 2.14 2.14 0 0 0-.41.25.43.43 0 0 1 .48-.46z"/><path class="cls-1" d="M49.61 106.38c0 .18 0 .39.1.59-15.48 11-31.17 21.46-48.6 28.94.67-.38 1.34-.77 2-1.15a.1.1 0 0 0 .08 0c.38-.15.74-.3 1.1-.48a16.29 16.29 0 0 0 1.46-.93c1.2-.64 2.44-1.3 3.66-2h.08a21.22 21.22 0 0 0 2.87-.92c3-1.44 5.67-3.39 8.59-4.95C31.13 120 40 112.74 49.61 106.33zM47.54 68.58a.34.34 0 0 0-.21-.13A6.36 6.36 0 0 1 48 68a.36.36 0 0 1 .25.53l-.58.31a.85.85 0 0 0-.13-.26zM48.3 68.52a.22.22 0 0 1-.15.16 2.26 2.26 0 0 0-.38.25.14.14 0 0 1-.05-.1z"/><path class="cls-1" d="M47.77 68a.28.28 0 0 1 .23 0 6.36 6.36 0 0 0-.69.46.94.94 0 0 0-.41 0c.33-.19.61-.32.87-.46zM47.77 68.93c0 .16.1.31.12.46s-.17.08-.28.11a.31.31 0 0 1-.3 0c0-.08 0-.13-.06-.21a4.06 4.06 0 0 1 .52-.36z"/><path class="cls-1" d="M47.72 68.83a.14.14 0 0 0 .05.1 4.06 4.06 0 0 0-.52.36.65.65 0 0 0-.15.1.51.51 0 0 1-.1-.46c.18-.1.36-.23.54-.33a.85.85 0 0 1 .18.23zM47.33 68.45a.34.34 0 0 1 .21.13c-.18.1-.36.23-.54.33a.52.52 0 0 1 .2-.39z"/><path class="cls-1" d="M47.33 68.45l-.13.07a.52.52 0 0 0-.2.39 4.4 4.4 0 0 0-.39.26.56.56 0 0 1 .31-.69.94.94 0 0 1 .41-.03zM47.25 69.29c0 .08 0 .13.06.21a.29.29 0 0 1-.21-.11.65.65 0 0 1 .15-.1zM47.1 69.39a2.08 2.08 0 0 0-.36.29 4.61 4.61 0 0 1-.13-.46 4.4 4.4 0 0 1 .39-.26.51.51 0 0 0 .1.43z"/><path class="cls-1" d="M46.74 69.68a7.31 7.31 0 0 0-.72.64c-.46.46-.76 1-1.25 1.46a.29.29 0 0 1-.18.08.32.32 0 0 0 .18-.36 1.93 1.93 0 0 1 0-.41 7.61 7.61 0 0 1 1.87-1.84 4.61 4.61 0 0 0 .1.43z"/><path class="cls-1" d="M46.9 68.45a.56.56 0 0 0-.31.69 7.61 7.61 0 0 0-1.87 1.84 4.45 4.45 0 0 1-.07-.79 6.74 6.74 0 0 1 2.25-1.74z"/><path class="cls-1" d="M44.23 71a1.29 1.29 0 0 0-.1.35.4.4 0 0 0 .46.49.48.48 0 0 1-.69-.25c-1.7-5.8-1.24-14.49 2.2-19.64h.15a.18.18 0 0 1 .06.15c-1.11 6.15-2.18 11.9-1.64 18.17a2.12 2.12 0 0 0-.44.73z"/><path class="cls-1" d="M46.28 52h-.13c.05-.09.08-.09.13 0zM44.74 71.09a1.93 1.93 0 0 0 0 .41.32.32 0 0 1-.18.36.4.4 0 0 1-.46-.49 1.29 1.29 0 0 1 .1-.35 2.12 2.12 0 0 1 .44-.77 4.45 4.45 0 0 0 .07.79zM39.56 73.21l.64.24c0 .07.06.12.08.2a.45.45 0 0 1-.2.62 5.45 5.45 0 0 0-.62-.26A6.45 6.45 0 0 1 39 73c.15.09.36.14.56.21z"/><path class="cls-1" d="M40.08 74.27a.42.42 0 0 1-.57-.16.24.24 0 0 1 0-.1 5.45 5.45 0 0 1 .57.26zM40.2 73.45l-.64-.24c-1.2-2.43-1.12-5.33-1.07-8a3.28 3.28 0 0 1 .25-.44c.26 2.99.16 5.91 1.46 8.68zM39 35.79a8.14 8.14 0 0 1 .33-.79.34.34 0 0 1 .29.41 4.68 4.68 0 0 1-1.21 2.1c.18-.57.36-1.15.59-1.69z"/><path class="cls-1" d="M39.56 73.21c-.2-.07-.41-.12-.61-.17a14.6 14.6 0 0 1-.82-7.23c.13-.18.23-.38.36-.56-.05 2.63-.13 5.53 1.07 7.96zM39 35.07c.1-.1.2-.13.3-.07a8.14 8.14 0 0 0-.33.79c-2.26 3.28-10.46 6.89-9.15.74a2.22 2.22 0 0 0 .2-.41c0 .93-.2 2.85 1 3.16a4.94 4.94 0 0 0 3.1-.54A17.12 17.12 0 0 0 39 35.07z"/><path class="cls-1" d="M35.54 72.7h-.1l-.07.08a3.76 3.76 0 0 0-.29.28.41.41 0 0 1 .29-.72A16.56 16.56 0 0 1 39 73a6.45 6.45 0 0 0 .49.94 21.65 21.65 0 0 0-3.87-1.15s-.03-.09-.08-.09zM38.69 64.37v-.13a.21.21 0 0 0 0-.15c.18-.18.49 0 .36.26s-.18.28-.26.43a1.92 1.92 0 0 0-.1-.41zM38.49 41.15a.4.4 0 0 1-.23.1.6.6 0 0 0-.34-.46c0-.08.13-.1.23-.13s.41-.1.62-.13c0 .11-.05.21-.08.31a.41.41 0 0 1-.18.28s0 .03-.02.03z"/><path class="cls-1" d="M38.69 64.37a1.92 1.92 0 0 1 .05.41 3.28 3.28 0 0 0-.25.44v-.54a1.8 1.8 0 0 1 .2-.31z"/><path class="cls-1" d="M38.69 64.24v.13a1.8 1.8 0 0 0-.2.31v-.44l.15-.15a.21.21 0 0 1 .05.15z"/><path class="cls-1" d="M38.64 64.09l-.15.15a1.84 1.84 0 0 0-.23.25v-.28a.22.22 0 0 1 .38-.12z"/><path class="cls-1" d="M38.49 64.68a1.25 1.25 0 0 0-.28.41 3.45 3.45 0 0 1 0-.57 1.84 1.84 0 0 1 .23-.25z"/><path class="cls-1" d="M38.21 65.09a1.25 1.25 0 0 1 .28-.41v.54c-.13.18-.23.38-.36.56a2.71 2.71 0 0 1 .08-.69zM39 35.82c-.23.54-.41 1.12-.59 1.69a10.88 10.88 0 0 1-5.87 2.9c-2.38.33-3.38-1.18-3.1-3 .13-.26.28-.54.41-.82-1.31 6.12 6.89 2.51 9.15-.77zM38.33 52.58v.05a73.05 73.05 0 0 0-3.1 16.53.07.07 0 0 1 0 .06c-.23.51-.47 1-.67 1.56A49 49 0 0 1 38 52.58a.62.62 0 0 0 .33 0z"/><path class="cls-1" d="M38 52.58a1.34 1.34 0 0 1-.36 0s0-.12.08-.17a.33.33 0 0 1 .61.2.62.62 0 0 1-.33-.03zM38.26 41.25a.57.57 0 0 1 0 .26v.13a.51.51 0 0 1-.46-.57.68.68 0 0 0 .46.18zM38.26 64.52a3.45 3.45 0 0 0 0 .57 24.13 24.13 0 0 0-3.1 5.74c0-.54 0-1.08.1-1.61a.07.07 0 0 0 0-.06 19.63 19.63 0 0 1 3-4.64z"/><path class="cls-1" d="M38.26 41.25a.68.68 0 0 1-.49-.18.49.49 0 0 1 .15-.28.6.6 0 0 1 .34.46zM34.85 71.45a.58.58 0 0 0 .23-.41.51.51 0 0 1 0-.21 24.13 24.13 0 0 1 3.1-5.74 2.71 2.71 0 0 0-.08.69 45.87 45.87 0 0 0-3 6.15c-.23.56-1.13.33-.93-.26l.08-.2a.56.56 0 0 0 .6-.02z"/><path class="cls-1" d="M37.62 40.69a.45.45 0 0 1 .3.1.49.49 0 0 0-.15.28.62.62 0 0 1-.15-.38z"/><path class="cls-1" d="M36.77 50.73a.43.43 0 0 0-.31.36A12.38 12.38 0 0 1 37.1 41a.52.52 0 0 1 .52-.3.62.62 0 0 0 .15.38.51.51 0 0 0 .46.57 35.12 35.12 0 0 0-1 9.43.39.39 0 0 0-.46-.35zM37.64 52.55a1.34 1.34 0 0 0 .36 0 49 49 0 0 0-3.46 18.2c-.08.23-.15.49-.23.72A.59.59 0 0 1 34 71a40.35 40.35 0 0 1 3.64-18.45z"/><path class="cls-1" d="M36.87 51.12c0-.13-.07-.26-.1-.39a.39.39 0 0 1 .49.34 2.74 2.74 0 0 0 0 .49c0 .23-.26.33-.44.25z"/><path class="cls-1" d="M36.77 50.73c0 .13.08.26.1.39v.74l-.1-.1a3.39 3.39 0 0 1-.31-.67.43.43 0 0 1 .31-.36zM35.54 72.7c.05 0 .08.08 0 .13a.15.15 0 0 0-.11 0 .21.21 0 0 0 0-.1s.11-.05.11-.03z"/><path class="cls-1" d="M35.44 72.86v-.06a.15.15 0 0 1 .11 0c-.06.1-.11.21-.18.31s-.13 0-.13 0c.07-.11.15-.18.2-.25z"/><path class="cls-1" d="M35.41 72.7h.1a.21.21 0 0 1 0 .1h-.12z"/><path class="cls-1" d="M35.26 73.09a.43.43 0 0 1-.16-.13 3.76 3.76 0 0 1 .29-.28h.12v.06c-.12.19-.2.26-.25.35zM35.26 73.09s-.03.02 0 0zM34.54 70.78c.2-.51.44-1 .67-1.56-.05.53-.08 1.07-.1 1.61a2.73 2.73 0 0 0-.26.62.56.56 0 0 1-.54 0c.08-.18.15-.45.23-.67zM35.05 73.06a.43.43 0 0 0 .16.13C29.59 80.85 24 88.52 19.37 96.8a38.44 38.44 0 0 0-2.08 5.1c-.85 2.1-2.44 4-3.54 6-2.38 4.25-4.41 8.71-6.59 13.07-1.25 2.54-2.56 5.07-3.84 7.61-1 2-1.49 4.2-2.38 6.28a.35.35 0 0 0-.38.23 1.28 1.28 0 0 0 .38-.23 3.22 3.22 0 0 1-.21.51H.66a.25.25 0 0 0-.16.23.38.38 0 0 1-.12-.39C4.6 124 10.62 113.84 15.73 103c4.94-10.51 10.76-21.87 19.32-29.94z"/><path class="cls-1" d="M35.11 70.83a.51.51 0 0 0 0 .21.58.58 0 0 1-.23.41 2.73 2.73 0 0 1 .23-.62zM24.18 14.28c.67-.1 1.24-.2 1.65-.28-6.1 2.16-12.33 11.56-15.23 16.84-3.13 5.69-5.67 12.26-5.54 18.84a18 18 0 0 0 .49 4.82c1.18 3.8 6.18 4.39 8.74 1.41 1.77-2 3.38-4.2 5.08-6.3a110 110 0 0 0 12.35-18.72c.18-.33.72-.1.59.24q-1 2.54-2.26 5c0-.1-.15-.16-.2-.05a4.41 4.41 0 0 0-.41 1.33 65.13 65.13 0 0 1-6.25 9.95c-2.7 3.48-5.52 8.1-9 10.81-4.69 3.59-9.59 1.54-10.38-4.44-1.11-8.17 1.28-16.61 5.63-23.55 2.88-4.62 8-12.84 13.64-15.72zM35.21 73.19C33.28 77.85 28.34 83.93 25.13 89a90 90 0 0 0-4.94 8.28c-1 2.08-1.59 4.64-2.85 6.62-3.59 5.64-6.43 11.53-9.53 17.45-1.31 2.49-2.77 5-4 7.51q-1.11 2.43-2 4.92a2.26 2.26 0 0 1-.87 1.08c.89-2.08 1.38-4.25 2.38-6.28C4.6 126 5.91 123.51 7.16 121c2.18-4.36 4.21-8.82 6.59-13.07 1.1-2 2.69-3.9 3.54-6a38.44 38.44 0 0 1 2.08-5.1C24 88.52 29.59 80.85 35.21 73.19z"/><path class="cls-1" d="M29.85 36.53c-.13.28-.28.56-.41.82a4.41 4.41 0 0 1 .41-1.33c0-.11.2 0 .2.05a2.22 2.22 0 0 1-.2.46zM24.18 14.28l-1.1.18a8.94 8.94 0 0 1 3.08-1c.25 0 .28.38.05.44s-.21.1-.31.1h-.07c-.41.08-.98.18-1.65.28zM5.78 133.32a16.29 16.29 0 0 1-1.46.93c-.36.18-.72.33-1.1.48.84-.46 1.69-.92 2.56-1.41zM.81 135.37a.09.09 0 0 0-.08 0 3.22 3.22 0 0 0 .21-.51.35.35 0 0 1 .31.44.41.41 0 0 0-.05.18.27.27 0 0 0-.39-.11zM.73 135.73h.05a.27.27 0 0 0 .25-.16h.11a.32.32 0 0 1-.13.39L1 136a.36.36 0 0 1-.49-.33.88.88 0 0 0 .23.07zM1.14 135.5a.07.07 0 0 0 0 .05h-.11a.11.11 0 0 0 .11-.05z"/><path class="cls-1" d="M.76 135.73H.7a.88.88 0 0 1-.23-.07.25.25 0 0 1 .16-.23H.7c.08.08.08 0 .08 0a.27.27 0 0 1 .33.13.11.11 0 0 1-.08.1z"/><path class="cls-1" d="M1.06 135.6a.27.27 0 0 1-.25.16H.76zM.91 134.86a1.28 1.28 0 0 1-.38.23.35.35 0 0 1 .38-.23zM.81 135.37c0 .08 0 .11-.08 0a.09.09 0 0 1 .08 0z"/><path class="cls-8" d="M68.58 45c-2.1.42-5.45.42-6.5-1.47 3.35-1.89 10.28-1.89 13 .84-1.68 1.29-4.82.63-7.08.63"/><path class="cls-9" d="M68.58 45c-2.1.42-5.45.42-6.5-1.47 3.35-1.89 10.28-1.89 13 .84-1.68 1.29-4.82.63-7.08.63"/><path class="cls-8" d="M68.58 44.74c-2 .2-4.75.39-6-1.45-.06.25-.13.49-.19.74 3.55-1.81 9.24-2.09 12.35.75 0-.28.08-.56.11-.84-2.22 1.27-4.64.18-7 .67a.44.44 0 0 0 0 .84c2.31.6 5.44.69 7.53-.58a.55.55 0 0 0 .1-.85c-3.47-3-9.72-3-13.65-.92a.53.53 0 0 0-.2.73c1.6 2.23 4.64 2.08 7 1.48.31-.08.25-.6-.08-.57zM59.77 25.31c-4.61.21 4.4-8.81 7.55-5.87 3.15 3.15-6.08 6.08-8 6.29"/><path class="cls-9" d="M59.77 25.31c-4.61.21 4.4-8.81 7.55-5.87 3.15 3.15-6.08 6.08-8 6.29"/><path class="cls-8" d="M59.91 24.8c-.59-.19-.78-.14-.47-.76a8.13 8.13 0 0 1 1.65-2c1.25-1.22 3.28-2.86 5.18-2.42 1.13.27 1.17 1.34.52 2.08A8.29 8.29 0 0 1 64 23.43a20.86 20.86 0 0 1-3.28 1.14c-.72.2-1.5.27-1.81 1a.5.5 0 0 0 .13.49c.73.91 2.64 0 3.5-.33a16 16 0 0 0 4.56-2.34c1-.79 1.83-1.8 1.53-3.14A2.87 2.87 0 0 0 66 18.21c-2.63-.21-5.44 1.88-7.1 3.79-.64.73-1.41 1.84-1.16 2.87a1.57 1.57 0 0 0 2.17 1 .54.54 0 0 0 0-1zM29.36 88.66c-1.05-2.73 2.51-7.76 5.45-8.39.63 2.1-.84 4.41-1.89 6.08-.84 1.05-2.52 3.57-2.94 2.31"/><path class="cls-9" d="M29.36 88.66c-1.05-2.73 2.51-7.76 5.45-8.39.63 2.1-.84 4.41-1.89 6.08-.84 1.05-2.52 3.57-2.94 2.31"/><path class="cls-8" d="M30 88.66a7.71 7.71 0 0 1 1-4.25c.83-1.44 2.3-3.12 4-3.43l-.91-.51c.38 1.92-.84 4-2 5.49-.4.5-.78 1-1.2 1.49a3.09 3.09 0 0 1-.76.68c-.59.36-.14.15 0 .23a.35.35 0 0 0-.51.21 1 1 0 0 0 1 1.3c.93 0 1.75-1.28 2.23-1.92 1.69-2.21 3.41-5 2.69-7.88a.74.74 0 0 0-.91-.51A9.62 9.62 0 0 0 30 83.31c-1 1.33-2.3 4.1-1.16 5.69a.6.6 0 0 0 1.12-.3zM120 74.61c-.42-2.1-1-8.39 2.31-9.23 1.26 2.93 1 8.6-2.52 9.65"/><path class="cls-9" d="M120 74.61c-.42-2.1-1-8.39 2.31-9.23 1.26 2.93 1 8.6-2.52 9.65"/><path class="cls-8" d="M120.5 74.61c-.14-2.45-1.14-7.66 1.92-8.73l-.64-.36a10 10 0 0 1 .42 5 4.77 4.77 0 0 1-2.85 3.81c-.87.45-.24 1.67.63 1.5 4.4-.89 4.07-7.65 2.75-10.71a.52.52 0 0 0-.59-.24c-3.75 1.1-3.66 6.88-2.68 9.88.18.55 1.08.48 1-.14zM60 77.12C57 79 55.16 74 57.88 72.3c4.62-2.94 6.93 3.77 2.12 5.7"/><path class="cls-9" d="M60 77.12C57 79 55.16 74 57.88 72.3c4.62-2.94 6.93 3.77 2.12 5.7"/><path class="cls-8" d="M59.88 76.76A1.89 1.89 0 0 1 57.51 75a2.5 2.5 0 0 1 2.65-2.58c1.07 0 1.62 1.06 1.64 2 0 1.65-1.39 2-2.32 3a.71.71 0 0 0 .5 1.19c2.19 0 3.68-2.72 3.51-4.64a3.53 3.53 0 0 0-4-3.29 4.2 4.2 0 0 0-3.73 5 3.51 3.51 0 0 0 1.79 2.41 2.09 2.09 0 0 0 2.72-.77.38.38 0 0 0-.37-.63z"/><path class="cls-3" d="M84.73 48.6c0 2.09-1 11.32-.21 11.32"/><path class="cls-9" d="M84.73 48.6c0 2.09-1 11.32-.21 11.32"/><path class="cls-3" d="M84.1 48.42c-.28 1.77-.39 3.59-.58 5.37s-.86 4.31-.23 6a1 1 0 0 0 2-.27c.09-1.71-.11-3.48-.06-5.2a37.48 37.48 0 0 0 .12-5.7c-.09-.66-1.15-1-1.28-.18zM95.43 50.9c-.42 4.62-1.26 9-1.89 13.64"/><path class="cls-9" d="M95.43 50.9c-.42 4.62-1.26 9-1.89 13.64"/><path class="cls-3" d="M94.6 50.67c-.55 2.39-.83 4.84-1.28 7.25s-1.13 4.58-.73 6.88a1 1 0 0 0 1.81.2 18.07 18.07 0 0 0 1.17-5.76 56.09 56.09 0 0 0 .72-8.38c0-.94-1.47-1.2-1.69-.23zM104 56.57c.21 3.77-1.47 7.55-1.89 11.32"/><path class="cls-9" d="M104 56.57c.21 3.77-1.47 7.55-1.89 11.32"/><path class="cls-3" d="M103.39 56.39c-.57 2.09-.83 4.23-1.44 6.33-.52 1.77-1.55 3.89-.52 5.59a.83.83 0 0 0 1.29.16c1.43-1.36 1.38-4.06 1.74-5.93s.84-4.17.22-6.15a.67.67 0 0 0-1.29 0zM70.05 74c.21-.42.21-1 .21-.21 0 3.35-2.1 6.71-1.47 10.28"/><path class="cls-9" d="M70.05 74c.21-.42.21-1 .21-.21 0 3.35-2.1 6.71-1.47 10.28"/><path class="cls-3" d="M70.47 74.25l-1.07-1.1c-.39 1.81-.75 3.58-1.26 5.36a9.2 9.2 0 0 0-.21 5.77.89.89 0 0 0 1.75-.23 36.11 36.11 0 0 1 1.07-6.19 10.32 10.32 0 0 0 .36-4.71.89.89 0 0 0-1.48-.39.89.89 0 0 0 .86 1.47zM80.12 75c-1.26 1.88-1.89 5.24-2.1 7.76"/><path class="cls-9" d="M80.12 75c-1.26 1.88-1.89 5.24-2.1 7.76"/><path class="cls-3" d="M79.4 74.31c-2 1.84-2.9 6.18-2.2 8.7a.86.86 0 0 0 1.56.21 14.69 14.69 0 0 0 1-3.75c.3-1.45.88-2.77 1.3-4.18a1 1 0 0 0-1.69-1zM88.72 77.54c-.84 1.89-1.68 4-2.52 6.09"/><path class="cls-9" d="M88.72 77.54c-.84 1.89-1.68 4-2.52 6.09"/><path class="cls-3" d="M87.62 76.9a13.8 13.8 0 0 0-2.43 6.73 1 1 0 0 0 1.73.71 9.28 9.28 0 0 0 1.76-3A30.33 30.33 0 0 0 90 77.88a1.28 1.28 0 0 0-2.33-1z"/><path class="cls-9" d="M125 65c0 11.48-.37 23.15-3.17 34.33a53.17 53.17 0 0 1-6.59 16c-1.4 2.17-3.53 3.64-2.94 6.36.64 2.91 2.93 5.31 3.89 8.12s1.08 6.22 4.52 4.26c2.89-1.64 5.32-4.22 8.06-6.1 1.88-1.3 4.19-2.74 5.35-4.76 1.52-2.63 1.92-6.56 2.47-9.51.83-4.44 2.42-8.64 3.73-13a82.47 82.47 0 0 0 3.21-15.46c.2-1.93.92-5-.12-6.6-.72-1.07-2.85-2.37-3.93-3.15-2-1.45-4.05-2.86-6.08-4.25-2.68-1.82-5.39-3.68-8-5.61"/><path class="cls-3" d="M124.42 65c-.63 9.94-.66 19.74-2.49 29.58-1.68 9-5.3 16.2-10.18 23.74-2.63 4 3.11 10.9 4.18 14.53 1.19 4 4.35 2.84 7.07 1.1 4.18-2.67 11.52-7 13.09-12.17 2.5-8.2 4.48-16.78 6.69-25.09 1.19-4.44 4.34-14.32 1.77-18.71-1.27-2.16-4.47-3.69-6.4-5.07a119.56 119.56 0 0 0-12.21-8.16 1 1 0 0 0-1.24 1.6c4.2 4 9.41 6.92 14.13 10.28 6.65 4.74 2.63 15 .89 21.56-1.51 5.72-3.64 11.16-4.63 17-.77 4.51-1.48 7.72-5.45 10.69-2.64 2-5.2 4-7.82 6.06-3.45 2.65-4.65-2.78-5.36-4.39-1.53-3.51-4.73-5.59-1.19-10.5 3.34-4.62 5.36-9.94 7-15.37C125.63 90 126.29 77 125.59 65a.59.59 0 0 0-1.17 0z"/><path class="cls-9" d="M124.17 94.11c4 2.1 10.7 2.52 14.47 6.72"/><path class="cls-3" d="M124.15 95.44c4.54 2.06 9.93 2.62 13.53 6.34 1.22 1.26 3.13-.66 1.92-1.91-4-4.08-9.51-4.54-14.53-6.63-1.25-.52-2.16 1.64-.92 2.2z"/><path class="cls-9" d="M135.7 73.35c-2.09 3.15-1.67 9.23-2.3 13-1.26 6.51-2.73 13.43-4.41 19.93-2.52 8.81-5.24 17.83-8.18 26.43"/><path class="cls-3" d="M135.19 73.05c-1.78 2.52-2 5.35-2.27 8.36a136.09 136.09 0 0 1-3.29 18c-2.6 11.15-6.35 22.15-10.07 33-.55 1.58 2 2.27 2.5.69a317.23 317.23 0 0 0 9-30.89q1.72-7.76 3.23-15.56c.85-4.4.42-8.79 1.94-13.1.24-.68-.71-1-1.08-.46z"/><path class="cls-9" d="M11.74 114.88c6.29-2.52 16.15-2.1 22 1.05"/><path class="cls-6" d="M11.8 115.12c7.26-1.8 14.72-1.73 21.6 1.43.83.38 1.56-.8.72-1.24-6.5-3.42-15.85-3.89-22.51-.65-.26.13-.07.53.19.46z"/><path class="cls-9" d="M18 109.43c2.72.21 6.08-.21 8.81.84"/><path class="cls-6" d="M19.26 109.77v-.11l-.72.54c2.76 0 5.51.22 8.26.34.29 0 .34-.36.13-.51-2.49-1.78-5.51-1-8.39-1.31l.72.54a1.29 1.29 0 0 0-2.5-.17c-.45 1.63 1.85 2.15 2.46.68z"/><path class="cls-9" d="M20.13 98.31c7.34-2.1 24.54-.84 27.89 7.76"/><path class="cls-6" d="M20.25 98.74c9.07-1.54 22-1.3 27.27 7.62.33.56 1.29.19 1.07-.44-3.38-9.54-20.53-10.81-28.58-8a.45.45 0 0 0 .24.86z"/><path class="cls-9" d="M30.61 92.65c7.35 2.3 17.83 1 21.61 10.06"/><path class="cls-6" d="M30.48 92.88c2.9 1.48 6.52 1.6 9.68 2.22 5.53 1.08 8.47 3.36 11.77 7.79a.34.34 0 0 0 .62-.27c-2-8.38-15-9.58-21.94-10.24-.26 0-.36.38-.13.5z"/><path class="cls-9" d="M35.65 84.47a18.7 18.7 0 0 1 9.44 2.72"/><path class="cls-6" d="M35.58 84.73c1.38.41 2.86.49 4.26.88 1.77.48 3.45 1.25 5.16 1.89.31.12.54-.33.31-.53-2.25-2.06-6.68-3.57-9.73-2.76a.27.27 0 0 0 0 .52z"/><path class="cls-9" d="M6.07 124.74c3.57-1 8.39-1.26 11.75.63"/><path class="cls-6" d="M6.07 125c1.88-.15 3.7-.55 5.59-.57 2.19 0 4 .75 6.07 1.25.3.07.57-.32.31-.54-2.85-2.46-8.89-2.2-12.1-.63a.27.27 0 0 0 .13.49z"/><path class="cls-9" d="M83.47 16.29C87 22 88.3 32 85.15 38.11"/><path class="cls-6" d="M83.39 16.34c4 7.15 3.18 14.13 1.5 21.7a.27.27 0 0 0 .49.21c4.43-5.82 1.62-16.41-1.82-22-.07-.11-.24 0-.17.1z"/><path class="cls-9" d="M96.69 19.44c5.45 5.66 5 15.31 3.56 22.44"/><path class="cls-6" d="M96.49 19.56c4.79 6.38 4.87 14.68 3.52 22.26-.05.31.42.45.48.13 1.61-7.62 2.43-16.74-3.64-22.67-.18-.18-.52.06-.36.28z"/><path class="cls-9" d="M110.11 33.07c.84 5.46 1.26 9.86-1.47 14.9"/><path class="cls-6" d="M109.83 33.07c.51 5.26.79 9.76-1.57 14.67-.25.52.5 1 .77.46 2.57-4.82 2.42-10 1.35-15.2-.06-.31-.58-.24-.55.07z"/><path class="cls-9" d="M63.09 91.11c0 1.32-.19 2.65-.19 4"/><path class="cls-6" d="M62.53 91.11a11.21 11.21 0 0 0-.14 4.12.53.53 0 0 0 1 0 11.9 11.9 0 0 0 .24-4.12.56.56 0 0 0-1.12 0z"/><path class="cls-9" d="M69.34 92.25a12.4 12.4 0 0 0-.19 2.65"/><path class="cls-6" d="M68.5 92a8.23 8.23 0 0 0 0 3 .63.63 0 0 0 1.2 0c.17-.86.26-1.72.43-2.58.21-1.11-1.51-1.56-1.68-.47z"/><path class="cls-9" d="M76 91.68a39.79 39.79 0 0 0-.38 4.92"/><path class="cls-6" d="M74.7 91.68c.11 1.75-.18 3.35.4 5.06a.51.51 0 0 0 1 0c.56-1.55.62-3.17 1.11-4.72.58-1.81-2.61-2.2-2.49-.34z"/><path class="cls-9" d="M57.78 112.13c-.94 3-.56 7.77-.56 11"/><path class="cls-6" d="M57.55 111.9c-1.08 1.12-1 3.15-1.1 4.62a33.46 33.46 0 0 0 .36 6.71c.07.52.77.31.83-.11a44.87 44.87 0 0 0 .24-5.91c0-1.66.58-3.56.22-5.16a.33.33 0 0 0-.55-.15z"/><path class="cls-9" d="M65.55 110.62c.19 4-1 8.14-.38 12.12"/><path class="cls-6" d="M65.12 110.62c-.35 3.94-1.47 8.36-.39 12.24a.46.46 0 0 0 .9-.12c.18-4 .89-8.27.33-12.24-.07-.51-.8-.33-.84.12z"/><path class="cls-9" d="M71.61 113.84c0 3-.38 6.06-.38 9.09"/><path class="cls-6" d="M70.69 113.84c0 3-.67 6.25-.06 9.25a.63.63 0 0 0 1.2 0 45.45 45.45 0 0 0 .7-9.25.92.92 0 0 0-1.84 0z"/><path class="cls-9" d="M78.62 113.84c.19 2.46.19 5.11.19 7.76"/><path class="cls-6" d="M77.35 113.84c.28 2.54-.07 5.65 1.06 8a.47.47 0 0 0 .8 0c1.12-2.33.76-5.49.68-8 0-1.67-2.72-1.6-2.54 0z"/><path class="cls-9" d="M85.82 112.51c.38 3 .38 5.87.57 8.91"/><path class="cls-6" d="M85.17 112.51a33.29 33.29 0 0 0 0 4.79 13 13 0 0 0 .56 4.3.71.71 0 0 0 1.35 0 18 18 0 0 0-.61-9.26.65.65 0 0 0-1.28.17z"/></g></g></svg>