<svg xmlns="http://www.w3.org/2000/svg" viewBox="0 0 174.29 160.79"><defs><style>.cls-1,.cls-6{fill:#1d3033;}.cls-1{stroke:#1d3033;stroke-linecap:round;stroke-linejoin:round;stroke-width:0.66px;}.cls-2{fill:#d5ebe5;}.cls-11,.cls-3,.cls-7{fill:#fff;}.cls-4{fill:none;}.cls-5{fill:#8cccba;}.cls-11,.cls-7{font-size:31.19px;font-family:MakibaFont;}.cls-7{stroke:#8cccba;stroke-miterlimit:10;stroke-width:2.83px;}.cls-8{letter-spacing:-0.16em;}.cls-9{letter-spacing:-0.4em;}.cls-10{letter-spacing:-0.16em;}</style></defs><title>cheer_2</title><g id="レイヤー_2" data-name="レイヤー 2"><g id="レイヤー_3" data-name="レイヤー 3"><g id="レイヤー_3-2" data-name="レイヤー 3"><path class="cls-1" d="M1.53,150c-.59.59-1.41,1.39-1.15,2.31,1.1,4,9.38,3.38,12.23,3.23,10-.51,19.6.36,29.06,3.82,8.44,3.07,14.61-1.39,23.15-1.13,9,.28,16.87,3.18,25.61.26,9.35-3.13,19.07-1.36,28.73-2.1a.93.93,0,0,0,.84-.72l-.82.07a.25.25,0,0,1-.28-.2v-.05c-7.13.66-14.28-.28-21.38.23-5.61.38-10.82,4.15-16.63,3.36-6.08-.85-12.1-2.13-18.38-1.77-4.51.25-8.54,2.12-12.9,2.56-5.4.57-10-3.15-15.17-4a96.18,96.18,0,0,0-19.76-1.41c-3.46.15-6.64.46-10-.44-6.25-1.66-2.33-3.54,1-5.28a18.77,18.77,0,0,0,8-8.3c3.72-7.18,4.16-15.64,5.06-23.54,1.79-16,5.46-32.27,17.66-43.8,10.27-9.72,25.07-11,37.57-4.79a46.65,46.65,0,0,1,9.39,6c3.51,3,3.51,3,7.89,3.1,7,.26,5.26,4.51,7.36,9.59,1.84,4.77,7,9.2,9.58,14.35a58.08,58.08,0,0,1,5.52,19.87c.74,5.15-.37,11.79,1.48,16.58,1.85,5.87,8.82,5.87,11.77,10.3,3.82,5.54-1.88,6.87-6.85,7.31a.57.57,0,0,1,0,.26c4.44-.41,11.82-2.18,7.25-7.92-1.94-2.44-4.43-3.44-7-5.1-5.18-3.29-5.56-8.36-5.59-14,0-7.92-1-16.07-4-23.45s-10.5-13.31-12.22-21.1c-.84-3.77-1.46-6.33-5.43-7.38-1.77-.46-3.85.15-5.56-.51-2-.77-3.77-2.62-5.39-3.93a45.32,45.32,0,0,0-9.61-5.61A36,36,0,0,0,53.34,64c-13.79,1.56-24.23,13.17-29.25,25.4a94.35,94.35,0,0,0-5.95,23.55c-1.2,9.28-.79,20.79-6.38,28.79a22.43,22.43,0,0,1-7.87,6.87A10.44,10.44,0,0,0,1.53,150Z"/><path class="cls-2" d="M6.15,149.61A22.81,22.81,0,0,0,16.3,136.69c4.64-14.68,3-30.53,8.92-45,6.78-16.54,22-30.54,41.09-25.2,7.86,2.2,13,6.94,19.71,11,1.48.9,3.53.62,5.15.8,5.9.56,4.74,4,6,7.56,2.2,6.13,7.46,10.1,10.2,15.89,4,8.56,5.61,17.51,5.82,26.91.1,4.82.33,9.69,3.92,13.26,1.74,1.74,4.33,2.43,6.33,3.77,3,2,4.51,8-.12,8.87a24.33,24.33,0,0,1-3.39.51.75.75,0,0,0-.82-.54c-8.28.61-17.58-1.46-25.61.92-5,1.51-9.27,3.16-14.68,2.31-3.13-.46-6.26-1-9.41-1.28A35.93,35.93,0,0,0,57.8,157c-4.49,1.12-9.18,2.76-13.79,1.07a68.54,68.54,0,0,0-20.61-4.54c-4.31-.23-8.54.11-12.84.06A20.55,20.55,0,0,1,4.87,153l-1.21-2.13c.85-.42,1.67-.86,2.49-1.27Zm38.37-63c-14.18,1.38-7.38,30.09,4.15,27,9.33-1.32,8-28.21-4.15-27ZM83,110.83c11.76-3.77,6.94-30.35-6.08-24.48-6.48,2.92-6.56,12-4.51,17.76C73.77,108,78.64,114.57,83,110.83Z"/><path class="cls-1" d="M119.16,155.2a.29.29,0,0,0-.28.3h0c-7.13.66-14.28-.28-21.38.23-5.61.38-10.82,4.15-16.63,3.36-6.08-.85-12.1-2.13-18.38-1.77-4.51.25-8.54,2.12-12.9,2.56-5.4.57-10-3.15-15.17-4a96.18,96.18,0,0,0-19.76-1.41c-3.46.15-6.64.46-10-.44-6.25-1.66-2.33-3.54,1-5.28a18.77,18.77,0,0,0,8-8.3c3.72-7.18,4.16-15.64,5.06-23.54,1.79-16,5.46-32.27,17.66-43.8,10.27-9.72,25.07-11,37.57-4.79a46.65,46.65,0,0,1,9.39,6c3.51,3,3.51,3,7.89,3.1,7,.26,5.26,4.51,7.36,9.59,1.84,4.77,7,9.2,9.58,14.35a58.08,58.08,0,0,1,5.52,19.87c.74,5.15-.37,11.79,1.48,16.58,1.85,5.87,8.82,5.87,11.77,10.3,3.82,5.54-1.88,6.87-6.85,7.31a.81.81,0,0,0,0-.31Zm4.21-.61c4.63-.9,3.1-6.85.12-8.87-2-1.34-4.59-2-6.33-3.77-3.59-3.57-3.82-8.44-3.92-13.26-.21-9.4-1.77-18.35-5.82-26.91-2.74-5.79-8-9.76-10.2-15.89-1.31-3.59-.15-7-6-7.56-1.62-.18-3.67.1-5.15-.8-6.74-4.1-11.85-8.84-19.71-11C47.19,61.15,32,75.15,25.22,91.69c-5.9,14.45-4.28,30.3-8.92,45A22.81,22.81,0,0,1,6.15,149.61c-.82.41-1.64.85-2.44,1.31l1.21,2.13a20.55,20.55,0,0,0,5.69.59c4.3,0,8.53-.29,12.84-.06a68.54,68.54,0,0,1,20.61,4.54c4.61,1.69,9.3,0,13.79-1.07a35.93,35.93,0,0,1,11.61-.54c3.15.23,6.28.82,9.41,1.28,5.41.85,9.64-.8,14.68-2.31,8-2.38,17.33-.31,25.61-.92a.75.75,0,0,1,.82.54A24.33,24.33,0,0,0,123.37,154.59ZM22.17,59.54c-5.82-2.85-9.69,4.15-7.17,9.05A4.82,4.82,0,0,0,17.54,71a2.25,2.25,0,0,0,1.69,0,5.63,5.63,0,0,1-.92.1c-.36,0-.46-.59-.08-.67l.34-.07c-4.69-.7-4.82-11,1.23-10.64s4.38,9.18-.31,10.82a.54.54,0,0,1-.26.43C23.81,70,27.24,62,22.17,59.54Z"/><path class="cls-1" d="M17.09,68.61a5.76,5.76,0,0,1-1.07-4c.12-1.49.76-3.41,2.43-3.82s3.64.08,4.18,1.82a6.62,6.62,0,0,1-3.26,7.48.58.58,0,0,1,.1.36.43.43,0,0,1,0,.16c4.69-1.64,6.43-10.49.31-10.82s-5.94,9.9-1.25,10.62c.28-.11.54-.21.82-.34C19,69.41,17.55,69.18,17.09,68.61Z"/><path class="cls-2" d="M16,64.59a5.76,5.76,0,0,0,1.07,4c.46.57,1.9.8,2.28,1.46a6.62,6.62,0,0,0,3.26-7.48c-.54-1.74-2.62-2.23-4.18-1.82S16.14,63.1,16,64.59Z"/><path class="cls-1" d="M19.45,70.59a.43.43,0,0,0,0-.16.58.58,0,0,0-.1-.36c-.28.13-.54.23-.82.34l-.34.07c-.38.08-.28.67.08.67a5.63,5.63,0,0,0,.92-.1A.54.54,0,0,0,19.45,70.59Z"/><path class="cls-3" d="M49.31,111.69c-6.15-.44-9.61-4.26-10.56-10.62-.74-4.84.31-13.74,7.23-13.2C54.85,88.63,55.11,106.34,49.31,111.69Zm-1-9.28c0,.41.49.77.82.38,1-1.2,1.11-3.15,1-4.64,0-1.1-.1-3.15-1.28-3.74-1.38-.69-2.84,1-3.33,2.13a5,5,0,0,0,1.84,6.15.67.67,0,0,0,.93-.12l.07-.12Z"/><path class="cls-1" d="M38.75,101.11c-.74-4.84.31-13.74,7.23-13.2,8.87.72,9.13,18.43,3.33,23.82H50a.57.57,0,0,1,.39.18c6-5.62,4.23-28.53-7.39-24.22-9.38,3.48-5.63,25.29,5,25a4.79,4.79,0,0,0,1.36-1C43.16,111.29,39.7,107.47,38.75,101.11Z"/><path class="cls-1" d="M48,112.69c-10.63.33-14.38-21.48-5-25,11.62-4.31,13.36,18.6,7.39,24.22a.59.59,0,0,1-.08,1,7.71,7.71,0,0,1-1.59.62c9.33-1.26,8-28.15-4.15-27-14.18,1.38-7.38,30.09,4.15,27a5.23,5.23,0,0,1-.56,0,.46.46,0,0,1-.23-.85Z"/><path class="cls-1" d="M47.36,102.69a5,5,0,0,1-1.74-6.15c.49-1.13,2-2.82,3.33-2.13,1.18.59,1.26,2.64,1.28,3.74.06,1.49,0,3.44-1,4.64-.33.39-.82,0-.82-.38a.66.66,0,0,1-.84.4A.72.72,0,0,1,47.36,102.69Zm1-.39.41.13c1.49-2.2,1.13-11.4-2.56-5.89a4.15,4.15,0,0,0,1.46,5.51l.67.23v.1s0,0,.07,0Z"/><path class="cls-1" d="M48.41,102.22v.1l-.67-.23a4.15,4.15,0,0,1-1.46-5.51c3.69-5.51,4,3.69,2.56,5.89l-.41-.13a.39.39,0,0,0,.06-.21Zm.34-6c-.34-1.16-1-.64-1.56.07a3.41,3.41,0,0,0,.35,4.81,3.24,3.24,0,0,0,.57.4.7.7,0,0,1,.36.61A9.5,9.5,0,0,0,48.75,96.17Z"/><path class="cls-1" d="M47.19,96.24a3.41,3.41,0,0,0,.35,4.81,3.24,3.24,0,0,0,.57.4.7.7,0,0,1,.36.61,9.5,9.5,0,0,0,.28-5.89C48.41,95,47.77,95.53,47.19,96.24Zm2.51,16.23a7,7,0,0,1-1.7.22h-.07a.46.46,0,0,0-.15.63.46.46,0,0,0,.38.22h.56a7.71,7.71,0,0,0,1.59-.62.58.58,0,0,0,.25-.79.51.51,0,0,0-.17-.21A4.07,4.07,0,0,1,49.7,112.47Zm-1.31-10.15v0Zm0-.1v.1a.39.39,0,0,0,.06-.21A.41.41,0,0,1,48.41,102.22Z"/><path class="cls-1" d="M48,112.69a6.89,6.89,0,0,0,1.75-.23,4.48,4.48,0,0,0,.64-.51.57.57,0,0,0-.39-.18c-.21,0-.43,0-.64,0A5,5,0,0,1,48,112.69ZM76.89,86.35c-6.48,2.92-6.56,12-4.51,17.76,1.39,3.87,6.26,10.46,10.59,6.72l-.51.15a.42.42,0,0,1-.52-.31.45.45,0,0,1,0-.23c-8.74,4.13-14.2-18.53-5.48-23.07C88.68,81.07,93.3,104,83.92,109.8a.09.09,0,0,1-.06.08,7.67,7.67,0,0,1-.89,1C94.73,107.06,89.91,80.48,76.89,86.35Z"/><path class="cls-3" d="M88.14,97c.42,4.82-.71,9.15-4.3,12a.43.43,0,0,0-.54-.1c-2.46,1-4.56,2-6.66-.36A14.59,14.59,0,0,1,73.43,102c-1.1-4.9-1.23-12.9,4.82-14.69S87.71,91.69,88.14,97Zm-3.3,4.2v-.1c3.62-2.21.29-10-3.35-6.77-1.54,1.36-1,4.28-.34,6C81.79,101.69,83.89,103.45,84.84,101.16Z"/><path class="cls-1" d="M73.43,102.09c-1.1-4.9-1.23-12.9,4.82-14.69s9.46,4.31,9.89,9.56c.42,4.82-.71,9.15-4.3,12a.82.82,0,0,1,.08.79C93.3,104,88.68,81,76.46,87.32c-8.72,4.54-3.26,27.2,5.48,23.07a.27.27,0,0,1,.18-.25A11.15,11.15,0,0,0,83.84,109a.43.43,0,0,0-.54-.1c-2.46,1-4.56,2-6.66-.36A14.57,14.57,0,0,1,73.43,102.09Z"/><path class="cls-1" d="M81.51,94.27c-1.54,1.36-1,4.28-.34,6,.62,1.51,2.72,3.23,3.67.94v-.1a4.48,4.48,0,0,1-.58.29.31.31,0,0,1-.19,0c-2.33,1.29-3.82-5.28-2.07-6.71,3.13-2.41,5.28,3.64,2.72,5.92a.34.34,0,0,1,.17.39C88.48,98.83,85.15,91,81.51,94.27Z"/><path class="cls-1" d="M82,94.69c-1.72,1.39-.23,7.92,2.1,6.62a.41.41,0,0,1-.21-.54l0,0c-1,0-1.41-.77-1.69-1.77s-.72-2.92.13-3.7c1.3-1.2,2.48.19,2.77,1.52a4,4,0,0,1-1.21,3.92,1.45,1.45,0,0,0,.54-.11.34.34,0,0,1,.2,0C87.25,98.37,85.1,92.32,82,94.69Zm-.06,15.75a.43.43,0,0,0,.29.54.45.45,0,0,0,.23,0l.51-.15a7.67,7.67,0,0,0,.89-1l.06-.08a.82.82,0,0,0-.08-.79,11.15,11.15,0,0,1-1.72,1.18A.26.26,0,0,0,81.94,110.44Z"/><path class="cls-1" d="M82.33,95.29c-.85.78-.39,2.77-.13,3.7s.74,1.79,1.69,1.77a4,4,0,0,0,1.18-3.92C84.81,95.48,83.63,94.09,82.33,95.29ZM82.15,44.9c-.15,2.51,2.13,4.26,4.51,4.23a.44.44,0,0,1-.3-.56.43.43,0,0,1,.2-.26c-7.44-.87-2-10.25,3.51-6.59,3.48,2.41,1.05,6.82-2.64,7a.81.81,0,0,1-.67.41h0c1.67.15,3.23,0,4.44-1.29a4.45,4.45,0,0,0,1.38-3.79c-.36-2.76-3.69-4.61-6.36-3.87A5.58,5.58,0,0,0,82.15,44.9Z"/><path class="cls-1" d="M87,47.59c-1.47-.38-3.46-.69-3.18-2.69A3.83,3.83,0,0,1,86.28,42c1.64-.53,4.13.18,4.54,2.11s-1.41,3.74-3.26,4.15a1.25,1.25,0,0,1-.1.51c3.69-.18,6.12-4.59,2.64-7-5.46-3.66-10.95,5.72-3.51,6.59a.28.28,0,0,1,.18,0,3.64,3.64,0,0,0,.74-.07A.71.71,0,0,0,87,47.59Z"/><path class="cls-2" d="M83.79,44.9c-.28,2,1.71,2.31,3.18,2.69a.7.7,0,0,1,.53.62c1.85-.41,3.69-2.26,3.26-4.15s-2.9-2.64-4.54-2.11A3.81,3.81,0,0,0,83.79,44.9Z"/><path class="cls-1" d="M83.89,100.76a.4.4,0,0,0,.13.56l0,0a2.35,2.35,0,0,0,.47-.36h-.39a3.3,3.3,0,0,0,.49-.34.34.34,0,0,0-.2,0,1.45,1.45,0,0,1-.54.11Z"/><path class="cls-1" d="M84.09,101.35a.31.31,0,0,0,.19,0,4.48,4.48,0,0,0,.58-.29.34.34,0,0,0-.17-.39,3.3,3.3,0,0,1-.49.34h.39A2.1,2.1,0,0,1,84.09,101.35Zm2.49-53a.45.45,0,0,0-.16.62.47.47,0,0,0,.26.2h.1a.8.8,0,0,0,.65-.44,1.25,1.25,0,0,0,.1-.51,3.64,3.64,0,0,1-.74.07A.31.31,0,0,0,86.58,48.31Zm8.36,4.49c-5.26,2.53-5.31,8.12-2.13,12.48,1.18,1.62,6,6.92,7.82,3.49-.28.07-.59.12-.9.18h-.15C96,70.15,85.17,57.15,96,53.13c9.87-3.87,13.33,12.2,4.85,15.15a.54.54,0,0,1,0,.18l-.15.31C110.73,66.36,106,47.47,94.94,52.8Z"/><path class="cls-2" d="M96.14,53.8c-4.94,1.79-4.69,6.46-2.25,10.25.61.92,3.71,4.67,5.51,4.26a.14.14,0,0,1,.1,0s.1,0,.13-.05a.35.35,0,0,0,.13-.08.7.7,0,0,0,.21-.21.4.4,0,0,1,.54-.1C108,64.26,105.14,50.57,96.14,53.8Z"/><path class="cls-1" d="M93.89,64.05c-2.44-3.79-2.69-8.46,2.25-10.25,9-3.23,11.9,10.46,4.44,14a.65.65,0,0,1,.23.49c8.48-3,5-19-4.85-15.15-10.79,4,0,17,3.62,15.82a.38.38,0,0,1-.3-.43.4.4,0,0,1,.12-.21C97.6,68.69,94.5,65,93.89,64.05Z"/><path class="cls-1" d="M100.19,68.46a3.09,3.09,0,0,0,.59-.18.65.65,0,0,0-.23-.49,2.06,2.06,0,0,1-.75.31.35.35,0,0,1-.13.08.52.52,0,0,1-.23.1.37.37,0,0,0,0,.52.35.35,0,0,0,.21.12A1,1,0,0,0,100.19,68.46Z"/><path class="cls-1" d="M99.55,68.23a.14.14,0,0,0-.1,0,.52.52,0,0,0,.23-.1A.58.58,0,0,0,99.55,68.23Zm0,.72h.15c.31-.06.62-.11.9-.18l.15-.31a.54.54,0,0,0,0-.18,3.09,3.09,0,0,1-.59.18A1,1,0,0,1,99.58,69Zm.25-.85a2.06,2.06,0,0,0,.75-.31.4.4,0,0,0-.54.1A.7.7,0,0,1,99.83,68.1Zm19,87.41h.28c.28,0,.57,0,.87,0a.81.81,0,0,0,0-.31l-.82.08a.29.29,0,0,0-.33.25Z"/><path class="cls-1" d="M119.16,155.48h-.28a.23.23,0,0,0,.23.25h0l.84,0a.57.57,0,0,0,0-.26C119.73,155.43,119.44,155.46,119.16,155.48Z"/><path class="cls-3" d="M71.67,76.69c5.52-1.84-5.52-8.83-6.26-4.78-.37,3.31,6.26,4,6.63,4"/><path class="cls-4" d="M71.67,76.69c5.52-1.84-5.52-8.83-6.26-4.78-.37,3.31,6.26,4,6.63,4"/><path class="cls-3" d="M71.54,76.55c.5-.4,1.15-.79,1.15-1.5S72,73.78,71.6,73.38a7.47,7.47,0,0,0-4.38-2.1c-.6,0-1.13.17-1.16.84-.06,1,1.08,1.65,1.9,2a12.8,12.8,0,0,0,2.78.73,8.33,8.33,0,0,1,1,.16,1,1,0,0,1,.54.42c.28.48,0,0-.14,0a.54.54,0,0,1,.3.7.55.55,0,0,1-.3.3c-.21.07.09,0,.14-.11a.91.91,0,0,1-.79.45,9,9,0,0,1-3.3-.85,6.12,6.12,0,0,1-3-2.23c-1.24-2,.27-3.88,2.39-3.63A8.52,8.52,0,0,1,73,73.25c1.1,1.47.87,3.57-1.33,3.6C71.52,76.85,71.41,76.65,71.54,76.55Z"/><path class="cls-5" d="M45.06,149.23c17.11-4.28,35.29,4.27,51.33-6.42-20.32-3.21-23.52-19.25-46-12.83-6.42,2.13-16-1.07-12.83,11.76,2.13,5.35,5.34,7.49,12.83,6.41"/><path class="cls-4" d="M45.06,149.23c17.11-4.28,35.29,4.27,51.33-6.42-20.32-3.21-23.52-19.25-46-12.83-6.42,2.13-16-1.07-12.83,11.76,2.13,5.35,5.34,7.49,12.83,6.41"/><path class="cls-5" d="M45,148.85c11.58-3.08,23.71-.28,35.49-1.22a36.66,36.66,0,0,0,11.76-3.13c4.63-2-.41-2-2.67-2.77A49.84,49.84,0,0,1,79,136.44c-9.47-5.81-17.1-8.84-28.39-5.88-3.15.83-6.43.87-9.58,1.7-5.28,1.4-3.46,8.57-1.65,11.8,2.33,4.13,7.06,3.92,11.07,3.51.75-.07.73,1.08,0,1.17-8,1-13-2.34-14-10.55-.81-6.3,4.75-7.42,9.67-8,8.88-1,15.7-3.73,24.44,0,9.13,3.86,15.9,10.23,26,12.06A.62.62,0,0,1,97,143a.65.65,0,0,1-.27.34c-15.77,9.72-34.26,3.22-51.53,6.26-.5.09-.71-.62-.22-.75Z"/><path class="cls-5" d="M72.87,132.11a27,27,0,0,0,16-2.13c-7.49-5.35-22.46-11.77-24.6,1.07"/><path class="cls-4" d="M72.87,132.11a27,27,0,0,0,16-2.13c-7.49-5.35-22.46-11.77-24.6,1.07"/><path class="cls-5" d="M72.87,131.77a32.68,32.68,0,0,0,13.36-1.3c2.78-.87.71-1.13-.85-2.06q-1.81-1.05-3.72-1.92c-6.66-3.11-14.78-4.06-16.85,4.69-.15.66-1.12.38-1-.27,2.43-13.44,18.19-6.46,25.39-1.43a.59.59,0,0,1,.19.81.58.58,0,0,1-.19.19,25.84,25.84,0,0,1-16.42,2,.34.34,0,0,1,.09-.67Z"/></g><polyline class="cls-2" points="100.79 117.32 112.15 112.79 118.55 107.72 122.42 101.92 122.96 97.51 121.33 91.89 120.36 90.26 119.76 87.66 121.45 85.07 124.53 85.07 127.07 86.4 129.55 91.89 130.27 92.56 131.66 91.95 134.2 89.23 136.37 85.85 138.93 84.34 141.26 84.58 146.4 88.09 150.02 95.09 150.57 99.93 148.94 103.07 142.17 106.27 136.67 108.5 126.7 119.01 116.14 128.31 113.3 130.43 110.13 131.87"/><path class="cls-6" d="M130.69,90.52Z"/><path class="cls-6" d="M114,110.33s-.08,0,0,0h0Z"/><path class="cls-6" d="M150.63,94.88a19,19,0,0,0-6.19-9.28c-2.52-2-5.89-2.81-8.38-.35-1.59,1.57-2.48,4.28-4.27,5.72a3.33,3.33,0,0,1-.6-.16,2.79,2.79,0,0,1-.34-.18l-.19-.13,0,0,0,0-.09-.07c-.11-.11-.2-.22-.3-.33l0,0L130.2,90l-.13-.23a.67.67,0,0,0-.82-.28,10.84,10.84,0,0,0-1-2.51,5.89,5.89,0,0,0-4.37-2.85,4.55,4.55,0,0,0-4.33,2.3c-1,1.84-.11,3.81.8,5.47a15.34,15.34,0,0,1,1.61,3.52,9.17,9.17,0,0,1,.09,4.07.41.41,0,0,0,0,.11c-.58,3.84-3.17,6.86-6,9.4a.54.54,0,0,0-.16.1l-.31.27-.14.12-.07,0a5.71,5.71,0,0,1-.68.45,6.53,6.53,0,0,1-.7.35h0l0,0-.18.07-.41.13a.73.73,0,0,0-.44.42l-5.09,2.36a12.68,12.68,0,0,1-4.94,1.62.69.69,0,0,0-.37,1.24c-.39.4-.26,1.21.42,1.13,4.85-.58,9.07-3.11,12.74-6.21,3.49-2.93,7-6.57,7.71-11.27,0,0,0-.07,0-.1a10.81,10.81,0,0,0-1.12-7.23c-1-1.81-2.94-4.51-.85-6.28,1.8-1.53,4.26-.6,5.52,1.14s1.21,4.23,2.83,5.85A.66.66,0,0,0,130.8,93c2.22-.72,3.41-2.8,4.6-4.67a8.87,8.87,0,0,1,2.24-2.67,4.18,4.18,0,0,1,4.38,0c2.95,1.49,5.23,4.64,6.56,7.59,1.24,2.74,2.12,6.74-.22,9.17-1.38,1.44-3.51,2-5.31,2.73l-5.94,2.31a.57.57,0,0,0-.63.17,177.24,177.24,0,0,1-23.29,22.13,20.6,20.6,0,0,1-7.5,4.09.67.67,0,0,0,.36,1.3,22.26,22.26,0,0,0,8-4.32,3.93,3.93,0,0,0-.29.42.67.67,0,0,0,1.16.68,16.14,16.14,0,0,1,2.87-3.15c1.09-1.1,2.19-2.19,3.29-3.29q3.3-3.28,6.62-6.54a.6.6,0,0,0,.19-.4q1.55-1.53,3.08-3.07,3.15-3.22,6.15-6.61l6.24-2.43A20.2,20.2,0,0,0,148.6,104C151.4,101.81,151.55,98,150.63,94.88Z"/><path class="cls-6" d="M124.47,55.07a2.12,2.12,0,0,0-2.09,2.09v15a2.09,2.09,0,1,0,4.18,0v-15A2.12,2.12,0,0,0,124.47,55.07Z"/><path class="cls-6" d="M136.56,60.2A2.12,2.12,0,0,0,134,61.66a9.31,9.31,0,0,1-.35,1.28,5.89,5.89,0,0,1-.2.59c0-.1.09-.23,0,0l-.16.36c-.4.83-.87,1.62-1.33,2.42a22.41,22.41,0,0,0-2.5,5.31,2.09,2.09,0,1,0,4,1.12c.12-.43.27-.84.42-1.26h0c0-.1.08-.19.13-.29s.2-.42.31-.63c.43-.82.9-1.61,1.37-2.41A18,18,0,0,0,138,62.77,2.13,2.13,0,0,0,136.56,60.2Z"/><path class="cls-6" d="M141.36,65.81l-6,9c-.48.72.69,1.4,1.17.68l6-9C143,65.76,141.84,65.09,141.36,65.81Z"/><path class="cls-5" d="M137,89.13c-1.7.39-9.35,9.19-4.19,15.47,1.53,1.87,9.62.64,10.87-.49.64-.57-7.72-3-8.86-6.28C133.7,94.72,137.78,89,137,89.13Z"/><text class="cls-7" transform="matrix(0.99, 0.14, -0.14, 0.99, 72.12, 28.13)"><tspan class="cls-8">グ</tspan><tspan class="cls-9" x="26.2" y="0">ッ</tspan><tspan x="44.91" y="0">ド</tspan><tspan class="cls-10" x="76.1" y="0">!!</tspan></text><text class="cls-11" transform="matrix(0.99, 0.14, -0.14, 0.99, 72.12, 28.13)"><tspan class="cls-8">グ</tspan><tspan class="cls-9" x="26.2" y="0">ッ</tspan><tspan x="44.91" y="0">ド</tspan><tspan class="cls-10" x="76.1" y="0">!!</tspan></text></g></g></svg>