<svg xmlns="http://www.w3.org/2000/svg"><g data-name="グループ 394"><g data-name="楕円形 38" fill="none" stroke="#fff"><circle cx="24" cy="24" r="24" stroke="none"/><circle cx="24" cy="24" r="23.5"/></g><g data-name="グループ 392"><path data-name="パス 512" d="M25.234 6.781l.671-1.162h-1.342l-.61-1.058-.61 1.057H22l.671 1.162L22 7.942h1.342l.61 1.057.61-1.057h1.342z" fill="#fff"/><g data-name="星型のアイコン"><path data-name="パス 512" d="M35.234 9.781l.671-1.162h-1.342l-.61-1.058-.61 1.057H32l.671 1.162L32 10.942h1.342l.61 1.057.61-1.057h1.342z" fill="#fff"/></g><g data-name="星型のアイコン"><path data-name="パス 512" d="M41.234 19.781l.671-1.162h-1.342l-.61-1.058-.61 1.057H38l.671 1.162L38 20.942h1.342l.61 1.057.61-1.057h1.342z" fill="#fff"/></g><g data-name="星型のアイコン"><path data-name="パス 512" d="M41.234 29.781l.671-1.162h-1.342l-.61-1.058-.61 1.057H38l.671 1.162L38 30.942h1.342l.61 1.057.61-1.057h1.342z" fill="#fff"/></g><g data-name="星型のアイコン"><path data-name="パス 512" d="M35.234 39.781l.671-1.162h-1.342l-.61-1.058-.61 1.057H32l.671 1.162L32 40.942h1.342l.61 1.057.61-1.057h1.342z" fill="#fff"/></g></g><g data-name="グループ 393"><g data-name="星型のアイコン"><path data-name="パス 512" d="M22.671 42.78L22 43.942h1.342l.61 1.058.61-1.057h1.343l-.671-1.162.671-1.162h-1.342l-.61-1.057-.61 1.057h-1.342z" fill="#fff"/></g><g data-name="星型のアイコン"><path data-name="パス 512" d="M12.671 39.78L12 40.942h1.342l.61 1.058.61-1.057h1.343l-.671-1.162.671-1.162h-1.342l-.61-1.057-.61 1.057h-1.342z" fill="#fff"/></g><g data-name="星型のアイコン"><path data-name="パス 512" d="M6.671 29.78L6 30.942h1.342L7.952 32l.61-1.057h1.343l-.671-1.162.671-1.162H8.563l-.61-1.057-.61 1.057H6.001z" fill="#fff"/></g><g data-name="星型のアイコン"><path data-name="パス 512" d="M6.671 19.78L6 20.942h1.342L7.952 22l.61-1.057h1.343l-.671-1.162.671-1.162H8.563l-.61-1.057-.61 1.057H6.001z" fill="#fff"/></g><g data-name="星型のアイコン"><path data-name="パス 512" d="M12.671 9.78L12 10.942h1.342l.61 1.058.61-1.057h1.343l-.671-1.162.671-1.162h-1.342l-.61-1.057-.61 1.057h-1.342z" fill="#fff"/></g></g></g><text transform="translate(15 32)" fill="#fff" font-size="21" font-family="ArialMT, Arial"><tspan x="0" y="0">W</tspan></text></svg>
