<svg xmlns="http://www.w3.org/2000/svg" viewBox="0 0 701.84 540.3"><defs><style>.cls-1{fill:#2d2d2d;}.cls-2{fill:#1d3033;stroke:#1d3033;stroke-linecap:round;stroke-linejoin:round;stroke-width:0.66px;}.cls-3{fill:#d5ebe5;}.cls-4{fill:#fff;}.cls-5{fill:none;}.cls-6{fill:#8cccba;}</style></defs><title>dialog_icon</title><g id="レイヤー_2" data-name="レイヤー 2"><g id="レイヤー_1-2" data-name="レイヤー 1"><path class="cls-1" d="M154.77,23.18C109.22,17.67,61.65,29,23.66,54.81,15.38,60.43,6.87,67,2.57,76.29c-4.23,9.14-4.06,22.12,6.81,26.27s24.82,3.61,36.13,2.62a157.75,157.75,0,0,0,35.43-7.39c27-8.9,51.42-23.8,75.5-38.63a6.82,6.82,0,0,0,1.37-10.6c-13.19-12.83-32.43-8.11-48.08-3.34a394.12,394.12,0,0,0-56.15,22c-8.86,4.27-18,8.63-26.28,14-7,4.52-12.92,12.6-7.84,20.91,4.49,7.33,14.63,8.14,22.27,9a117.24,117.24,0,0,0,27.26,0,126.26,126.26,0,0,0,52.3-17.86c6.87-4.27,15.1-11.07,10.35-20.09-3.52-6.69-12.23-8.73-19.18-8.44A127.93,127.93,0,0,0,59.23,79.39c-9.14,4.76-42.6,22.83-27.78,36.26,3.57,3.23,8.47,3.52,13,3.77s9.33.46,14,.57a209.82,209.82,0,0,0,28.91-1c19.53-2.21,38-8.08,53.14-21,2.55-2.18,2.72-7.42,0-9.55-6.84-5.37-14.24-4.36-21.73-.83a186.49,186.49,0,0,0-21.86,12.67,259.31,259.31,0,0,0-40.39,32.58c-4.14,4.08-1.07,11.59,4.78,11.53a85.78,85.78,0,0,0,60.37-25.81,6.81,6.81,0,0,0-3-11.28c-8.7-2.3-18.32-1.74-25.58,4.06-6.37,5.08-10,13.67-7.74,21.72,2.09,7.57,8.76,13,16,15.3,9.51,3,19.62.06,28.71-3,8.24-2.76,4.93-14.89-3.59-13-7.64,1.67-16,4.51-21.2,10.72a18.19,18.19,0,0,0-1.86,20.67c3,5.46,8.29,9.13,13.12,12.87,2.66,2.06,8.53,6.11,8.06,9.16-.56,3.63.92,7.21,4.71,8.3,3.2.92,7.75-1.12,8.31-4.71,2-12.81-7.76-19.06-16.53-26.18-2.64-2.14-7.36-5.56-6.55-9.39,1.17-5.62,11-7.42,15.53-8.41l-3.59-13c-7.62,2.55-21.26,7.72-27.17-.92-2.09-3.06-1-6.7,1.59-9.1,3.8-3.59,9.49-3.28,14.17-2l-3-11.29a71.93,71.93,0,0,1-50.82,21.85L66.1,142.4a240.63,240.63,0,0,1,31.8-26.53Q106.24,110.1,115,105c3-1.76,6.12-3.55,9.28-5.09,1.17-.57,5.44-2.92,6.68-1.94V88.43c-19.84,17-47.57,18.67-72.5,18.06-3.12-.08-6.24-.2-9.36-.34l-4.64-.24c-.42,0-4-.67-4.3-.48l.56,1.61c.07,1.69.37,2.09.89,1.19.18,0,1.19-1.23,1.36-1.39,1.18-1.14,2.49-2.19,3.77-3.23a104.09,104.09,0,0,1,8.61-6.28A117.05,117.05,0,0,1,93,81.1a95.59,95.59,0,0,1,20.26-2.84,16.19,16.19,0,0,1,3.19.19c.72.13,2.4,1.12,3,1s.26-1-.46-.84c-1.32.25-3.35,2.3-4.53,3a113,113,0,0,1-39.1,15c-13,2.41-27.58,2.92-40.51-.18-1.2-.29-2.26-.8-3.4-1.18s-.49.24-.32,0c1.91-2.51,5.47-4,8.13-5.45q10-5.61,20.29-10.61a371,371,0,0,1,48.5-19.4c11.19-3.59,30.08-11.61,40.19-1.77l1.37-10.61C113.47,69.77,74.32,93.85,30.2,92.06c-4.46-.18-10.52,0-14.72-1.74-1.76-.71-1.84-.28-2.09-2.33a12.29,12.29,0,0,1,1.44-6.16c3.81-8.08,12.61-13.5,19.84-18.13a180.86,180.86,0,0,1,53.64-23,183,183,0,0,1,66.46-4c3.65.44,6.71-3.42,6.75-6.76,0-4-3.15-6.31-6.75-6.75Z"/><path class="cls-2" d="M696.13,493.19c2.63,2.64,6.31,6.2,5.17,10.33-4.95,17.69-42,15.16-54.79,14.48-45-2.3-87.85,1.6-130.23,17.1-37.79,13.79-65.47-6.19-103.71-5-40.31,1.26-75.57,14.24-114.74,1.14-41.91-14-85.44-6.08-128.74-9.41a4.06,4.06,0,0,1-3.67-3.22c1.26.11,2.53.22,3.67.35a1.08,1.08,0,0,0,1.27-1.16c31.93,3,64-1.25,95.78,1,25.15,1.73,48.47,18.61,74.54,15.06,27.22-3.79,54.2-9.54,82.34-7.93,20.21,1.15,38.24,9.53,57.77,11.48,24.23,2.54,44.78-14.12,68-18,28-4.71,60.06-7.69,88.55-6.33,15.5.7,29.74,2.08,44.79-1.95,28-7.46,10.44-15.85-4.37-23.65-16-8.5-27.45-21.13-35.71-37.21-16.66-32.16-18.61-70.06-22.64-105.43-8-71.89-24.46-144.59-79.12-196.27C494.23,105,428,99.38,371.91,127.06c-14.81,7.35-29.39,16.31-42,27-15.73,13.43-15.73,13.21-35.37,13.89-31.47,1.16-23.55,20.21-33,43-8.28,21.36-31.36,41.23-43,64.31-13.22,26.3-21.48,57.66-24.7,89-3.33,23.1,1.61,52.84-6.66,74.32-8.27,26.3-39.5,26.3-52.72,46.16-17.11,24.81,8.39,30.77,30.67,32.74a3.55,3.55,0,0,0,.23,1.14c-19.87-1.84-52.94-9.76-32.5-35.48,8.73-10.92,19.86-15.39,31.35-22.86,23.2-14.71,24.92-37.44,25-62.6.11-35.48,4.25-72,17.8-105.07,13.66-33.43,46.62-59.73,54.32-94.64,3.79-16.88,6.55-28.36,24.35-33.07,7.93-2.08,17.22.68,24.92-2.3,8.85-3.45,16.89-11.72,24.12-17.58,13-10.45,28-18.26,43.07-25.14,26.87-12.41,57-15.63,86.13-12.29,61.79,7,108.54,59,131.05,113.81,13.77,33.88,21.92,69.37,26.63,105.54,5.41,41.57,3.57,93,28.6,128.86,9.76,14,20.78,22.51,35.26,30.78C688.89,488.37,693.48,490.43,696.13,493.19Z"/><path class="cls-3" d="M686.36,497.21c-1.83,3.21-3.67,6.43-5.39,9.53a91.29,91.29,0,0,1-25.5,2.65c-19.29.22-38.24-1.27-57.53-.24-33.09,1.73-61.45,9.07-92.34,20.33-20.68,7.59-41.69.23-61.79-4.82-17.11-4.36-34.57-3.68-52-2.41-14.13,1-28.13,3.67-42.14,5.74-24.24,3.79-43.19-3.56-65.82-10.34-35.94-10.68-77.63-1.38-114.73-4.14a3.38,3.38,0,0,0-3.67,2.41,95.65,95.65,0,0,1-15.16-2.28c-20.78-4-13.9-30.67-.57-39.74,9-6,20.56-9.07,28.36-16.89,16.08-16,17.12-37.79,17.58-59.38.92-42.14,7.91-82.23,26.06-120.58,12.29-26,35.83-43.76,45.71-71.21,5.86-16.07.69-31.35,27.11-33.87,7.24-.81,16.42.46,23.08-3.57,30.21-18.37,53.06-39.62,88.31-49.49C491.58,95,559.8,157.73,590,231.92c26.41,64.76,19.18,135.75,40,201.55a101.93,101.93,0,0,0,45.48,57.88C679.12,493.19,682.8,495.14,686.36,497.21ZM484.92,329.76C536.6,343.66,567,215,503.52,208.83,449.21,203.66,443.12,324.14,484.92,329.76ZM378.69,287.5c9.19-26.07,8.84-66.5-20.22-79.59-58.34-26.3-79.93,92.8-27.22,109.68C350.67,334.36,372.48,304.84,378.69,287.5Z"/><path class="cls-2" d="M165.42,516.05a2.92,2.92,0,0,0-.23,1.38c-22.28-2-47.78-7.93-30.67-32.74,13.22-19.86,44.45-19.86,52.72-46.16,8.27-21.48,3.33-51.22,6.66-74.32,3.22-31.34,11.48-62.7,24.7-89,11.59-23.08,34.67-42.95,43-64.31,9.41-22.75,1.49-41.8,33-43,19.64-.68,19.64-.46,35.37-13.89,12.64-10.68,27.22-19.64,42-27,56-27.68,122.32-22,168.37,21.48,54.66,51.68,71.09,124.38,79.12,196.27,4,35.37,6,73.27,22.64,105.43,8.26,16.08,19.75,28.71,35.71,37.21,14.81,7.8,32.39,16.19,4.37,23.65-15,4-29.29,2.65-44.79,1.95-28.49-1.36-60.53,1.62-88.55,6.33-23.21,3.9-43.76,20.56-68,18-19.53-1.95-37.56-10.33-57.77-11.48-28.14-1.61-55.12,4.14-82.34,7.93-26.07,3.55-49.39-13.33-74.54-15.06-31.81-2.28-63.85,2-95.78-1a1.31,1.31,0,0,0-1.27-1.38Zm0-.13a3.38,3.38,0,0,1,3.67-2.41c37.1,2.76,78.79-6.54,114.73,4.14,22.63,6.78,41.58,14.13,65.82,10.34,14-2.07,28-4.71,42.14-5.74,17.46-1.27,34.92-2,52,2.41,20.1,5.05,41.11,12.41,61.79,4.82,30.89-11.26,59.25-18.6,92.34-20.33,19.29-1,38.24.46,57.53.24a91.29,91.29,0,0,0,25.5-2.65c1.72-3.1,3.56-6.32,5.39-9.53-3.56-2.07-7.24-4-10.9-5.86A101.93,101.93,0,0,1,630,433.47c-20.79-65.8-13.56-136.79-40-201.55C559.8,157.73,491.58,95,405.9,118.91c-35.25,9.87-58.1,31.12-88.31,49.49-6.66,4-15.84,2.76-23.08,3.57-26.42,2.52-21.25,17.8-27.11,33.87-9.88,27.45-33.42,45.25-45.71,71.21-18.15,38.35-25.14,78.44-26.06,120.58-.46,21.59-1.5,43.42-17.58,59.38-7.8,7.82-19.4,10.91-28.36,16.89-13.33,9.07-20.21,35.71.57,39.74A95.65,95.65,0,0,0,165.42,515.92Z"/><path class="cls-2" d="M603.68,87.79c26.06-12.65,43.4,18.6,32.27,40.53-2.42,4.71-6.21,9.07-11.38,10.91-1.84.7-5.5,1.38-7.58.11a24.29,24.29,0,0,0,4.14.46c1.6,0,2.06-2.63.35-3-.46-.11-1-.23-1.49-.35,21-3.09,21.59-49.38-5.52-47.65-27.45,1.49-19.64,41.11,1.38,48.46a2.48,2.48,0,0,0,1.14,1.95C596.32,134.76,580.93,98.69,603.68,87.79Z"/><path class="cls-2" d="M626.41,128.44c3.91-5,5.4-11.83,4.82-18-.57-6.67-3.44-15.28-10.91-17.12-7-1.84-16.3.35-18.72,8.16-3.79,12.51,3,27.79,14.59,33.53a2.66,2.66,0,0,0-.46,1.61,1.4,1.4,0,0,0,.12.69c-21-7.35-28.83-47-1.38-48.46,27.11-1.73,26.53,44.56,5.52,47.65h-.13c-1.25-.46-2.41-.91-3.67-1.49C617.91,132,624.35,131,626.41,128.44Z"/><path class="cls-3" d="M631.23,110.41c.58,6.2-.91,13.08-4.82,18-2.06,2.52-8.5,3.56-10.22,6.54-11.59-5.74-18.38-21-14.59-33.53,2.42-7.81,11.72-10,18.72-8.16C627.79,95.13,630.66,103.74,631.23,110.41Z"/><path class="cls-2" d="M615.85,137.28a1.4,1.4,0,0,1-.12-.69,2.66,2.66,0,0,1,.46-1.61c1.26.58,2.42,1,3.67,1.49H620c.46.12,1,.24,1.49.35,1.71.35,1.25,3-.35,3a24.29,24.29,0,0,1-4.14-.46v-.11A2.48,2.48,0,0,1,615.85,137.28Z"/><path class="cls-4" d="M497,214.91c31-2.41,35.71,37.45,32.38,59.15-4.26,28.48-19.76,45.59-47.32,47.55C456.09,297.49,457.25,218.13,497,214.91Zm-6.21,66.39a22.5,22.5,0,0,0,7.81-27.57c-2.19-5-8.73-12.63-14.93-9.52C478.38,246.84,478,256,477.92,261c-.24,6.67.22,15.39,4.71,20.79,1.49,1.72,3.67.11,3.67-1.73C487.22,281.64,489.06,282.56,490.78,281.3Z"/><path class="cls-2" d="M529.37,274.06c3.33-21.7-1.38-61.56-32.38-59.15-39.74,3.22-40.9,82.58-14.94,106.7a21.26,21.26,0,0,1-2.87.23,2.47,2.47,0,0,0-1.72.8c-26.76-25.15-18.95-127.83,33.07-108.52,42,15.61,25.27,113.35-22.39,111.85a22,22,0,0,1-6.09-4.36C509.61,319.65,525.11,302.54,529.37,274.06Z"/><path class="cls-2" d="M488.14,326c47.66,1.5,64.43-96.24,22.39-111.85-52-19.31-59.83,83.37-33.07,108.52a2.64,2.64,0,0,0,.35,4.37,32.34,32.34,0,0,0,7.11,2.75c-41.8-5.62-35.71-126.1,18.6-120.93C567,215,536.6,343.66,484.92,329.76a18.16,18.16,0,0,0,2.53.23c1.95,0,2.87-2.87,1-3.79C488.37,326.09,488.25,326.09,488.14,326Z"/><path class="cls-2" d="M486.3,280c0,1.84-2.18,3.45-3.67,1.73-4.49-5.4-4.95-14.12-4.71-20.79.11-4.94.46-14.13,5.74-16.76,6.2-3.11,12.74,4.47,14.93,9.52a22.5,22.5,0,0,1-7.81,27.57C489.06,282.56,487.22,281.64,486.3,280Zm0-.11a.72.72,0,0,0-.11-.46l3-1c8.15-4.93,11.48-16.41,6.55-24.69-16.54-24.69-18.15,16.54-11.49,26.42l1.84-.58C486.19,279.69,486.19,279.81,486.3,279.92Z"/><path class="cls-2" d="M485.84,278.54a2.22,2.22,0,0,0,.23.92v.11l-1.84.58c-6.66-9.88-5.05-51.11,11.49-26.42,4.93,8.28,1.6,19.76-6.55,24.69l-3,1c0-.11-.12-.34-.12-.46S486,278.66,485.84,278.54Zm0-.23a3.14,3.14,0,0,1,1.61-2.76c8.38-5,10.57-15.73,4.13-23.31-2.63-3.21-5.51-5.51-7-.34C482.28,260.05,482.51,270.38,485.84,278.31Z"/><path class="cls-2" d="M491.58,252.24c6.44,7.58,4.25,18.27-4.13,23.31a3.14,3.14,0,0,0-1.61,2.76c-3.33-7.93-3.56-18.26-1.26-26.41C486.07,246.73,489,249,491.58,252.24Z"/><path class="cls-2" d="M480.33,324.94a31,31,0,0,0,7.81,1c.11.12.23.12.34.23,1.84.92.92,3.79-1,3.79a18.16,18.16,0,0,1-2.53-.23,32.34,32.34,0,0,1-7.11-2.75,2.64,2.64,0,0,1-.35-4.37A18.21,18.21,0,0,0,480.33,324.94Z"/><path class="cls-2" d="M486.19,279.46a.72.72,0,0,1,.11.46c-.11-.11-.11-.23-.23-.35v-.11Z"/><path class="cls-2" d="M486.07,279c0,.12.12.35.12.46h-.12a2.22,2.22,0,0,1-.23-.92C486,278.66,486,278.89,486.07,279Z"/><path class="cls-2" d="M488.14,326a31,31,0,0,1-7.81-1,18.21,18.21,0,0,1-2.87-2.3,2.47,2.47,0,0,1,1.72-.8,21.26,21.26,0,0,0,2.87-.23A22,22,0,0,0,488.14,326Z"/><path class="cls-2" d="M358.47,207.91c29.06,13.09,29.41,53.52,20.22,79.59-6.21,17.34-28,46.86-47.44,30.09.7.22,1.5.46,2.3.69a1.91,1.91,0,0,0,2.3-2.42c39.17,18.5,63.63-83,24.58-103.36C305.65,184.25,285,287.15,327,313c.13.12.13.24.24.35a38.07,38.07,0,0,0,4,4.25C278.54,300.71,300.13,181.61,358.47,207.91Z"/><path class="cls-4" d="M352.38,212.62c27.11,8,26.54,43.87,21.61,65.8-2.42,10.57-7.13,20.8-14.36,28.95-9.42,10.57-18.84,5.86-29.87,1.61a2,2,0,0,0-2.41.46c-16.07-13-21.13-32.39-19.29-54C310,231.92,325.29,204.69,352.38,212.62ZM339.3,270.05c3.1-7.47,5.39-20.56-1.5-26.65-16.3-14.47-31.23,20.45-15,30.32v.11a.67.67,0,0,0,.12.46C327.13,284.52,336.54,276.82,339.3,270.05Z"/><path class="cls-2" d="M374,278.42c4.93-21.93,5.5-57.77-21.61-65.8s-42.37,19.3-44.32,42.84c-1.84,21.59,3.22,41,19.29,54A3.59,3.59,0,0,0,327,313c-42-25.84-21.35-128.74,33.43-100.49,39.05,20.33,14.59,121.86-24.58,103.36a1.18,1.18,0,0,0-.8-1.14,53.84,53.84,0,0,1-7.7-5.28,2,2,0,0,1,2.41-.46c11,4.25,20.45,9,29.87-1.61C366.86,299.22,371.57,289,374,278.42Z"/><path class="cls-2" d="M337.8,243.4c6.89,6.09,4.6,19.18,1.5,26.65-2.76,6.77-12.17,14.47-16.42,4.24a.67.67,0,0,1-.12-.46,17.86,17.86,0,0,0,2.64,1.26,1,1,0,0,0,.81,0h.11c10.45,5.86,17.11-23.42,9.42-29.63-14-10.79-23.66,16.31-12.18,26.54a1.54,1.54,0,0,0-.8,1.72C306.57,263.85,321.5,228.93,337.8,243.4Z"/><path class="cls-2" d="M335.74,245.46c7.69,6.21,1,35.49-9.42,29.63a1.83,1.83,0,0,0,.81-2.63c4.25.11,6.31-3.46,7.58-7.93,1.14-4.14,3.21-13.09-.58-16.54-5.86-5.4-11.14.8-12.41,6.78-1.49,6.54.24,13.09,5.28,17.57v.12a6.94,6.94,0,0,1-2.41-.46,1.21,1.21,0,0,0-.92,0h-.11C312.08,261.77,321.72,234.67,335.74,245.46Z"/><path class="cls-2" d="M335.85,315.86a1.91,1.91,0,0,1-2.3,2.42c-.8-.23-1.6-.47-2.3-.69a38.07,38.07,0,0,1-4-4.25c-.11-.11-.11-.23-.24-.35a3.59,3.59,0,0,1,.35-3.55,53.84,53.84,0,0,0,7.7,5.28A1.18,1.18,0,0,1,335.85,315.86Z"/><path class="cls-2" d="M334.13,248c3.79,3.45,1.72,12.4.58,16.54-1.27,4.47-3.33,8-7.58,7.93H327v-.12c-5-4.48-6.77-11-5.28-17.57C323,248.79,328.27,242.59,334.13,248Z"/><path class="cls-2" d="M334.93,22.21c.69,11.25-9.53,19-20.21,18.94,1.72-.57,2-3,.46-3.67,33.3-3.91,8.73-45.94-15.73-29.52-15.63,10.79-4.71,30.56,11.83,31.35a3.58,3.58,0,0,0,3,1.84h.35a.45.45,0,0,1-.35.11c-7.47.7-14.47.13-19.87-5.74-4.47-4.59-7.12-10.44-6.2-17C289.8,6,304.73-2.25,316.68,1.07,326,3.71,334.36,12.21,334.93,22.21Z"/><path class="cls-2" d="M313.34,34.27c6.55-1.73,15.5-3.11,14.25-12.06-.7-5.74-5.52-11.38-11-13.21-7.35-2.41-18.49.8-20.33,9.42s6.31,16.76,14.59,18.6a5,5,0,0,0,.46,2.29C294.74,38.52,283.82,18.75,299.45,8c24.46-16.42,49,25.61,15.73,29.52h-.12a1.59,1.59,0,0,0-.8-.12,16.37,16.37,0,0,1-3.33-.34A3.12,3.12,0,0,1,313.34,34.27Z"/><path class="cls-3" d="M327.59,22.21c1.25,9-7.7,10.33-14.25,12.06A3.12,3.12,0,0,0,310.93,37h-.11c-8.28-1.84-16.54-10.11-14.59-18.6s13-11.83,20.33-9.42C322.07,10.83,326.89,16.47,327.59,22.21Z"/><path class="cls-2" d="M327.13,272.46a1.83,1.83,0,0,1-.81,2.63h-.11a8.54,8.54,0,0,1-2.08-1.6h1.73a15.33,15.33,0,0,1-2.19-1.49,1.21,1.21,0,0,1,.92,0,6.94,6.94,0,0,0,2.41.46Z"/><path class="cls-2" d="M326.21,275.09a1,1,0,0,1-.81,0,17.86,17.86,0,0,1-2.64-1.26v-.11a1.54,1.54,0,0,1,.8-1.72h.11a15.33,15.33,0,0,0,2.19,1.49h-1.73A8.54,8.54,0,0,0,326.21,275.09Z"/><path class="cls-2" d="M315.06,37.48h.12c1.5.69,1.26,3.1-.46,3.67h-.46a3.58,3.58,0,0,1-3-1.84,5,5,0,0,1-.46-2.29h.11a16.37,16.37,0,0,0,3.33.34A1.59,1.59,0,0,1,315.06,37.48Z"/><path class="cls-2" d="M277.62,57.58C301.16,68.94,301.4,94,287.16,113.5c-5.29,7.25-26.76,31-35,15.62a40,40,0,0,0,4,.81h.7c16.07,5.4,64.55-52.83,16.19-70.86-44.22-17.35-59.72,54.67-21.71,67.88a1.75,1.75,0,0,0,.13.8c.22.46.44.92.68,1.37C206.87,118.34,228.24,33.69,277.62,57.58Z"/><path class="cls-3" d="M272.23,62.06c22.16,8,21,28.93,10.1,45.94-2.76,4.13-16.65,20.9-24.69,19.06h-.12l-.11-.11a.86.86,0,0,0-.46-.24c-.22-.11-.46-.11-.57-.22s0,.11-.11,0a1.55,1.55,0,0,1-.58-.35,3.69,3.69,0,0,1-.93-.92,1.74,1.74,0,0,0-2.41-.46C218.94,108.91,231.92,47.59,272.23,62.06Z"/><path class="cls-2" d="M282.33,108c10.91-17,12.06-37.9-10.1-45.94-40.31-14.47-53.29,46.85-19.88,62.7a3.06,3.06,0,0,0-1,2.19c-38-13.21-22.51-85.23,21.71-67.88,48.36,18-.12,76.26-16.19,70.86a1.65,1.65,0,0,0,.8-2.87C265.68,128.9,279.57,112.13,282.33,108Z"/><path class="cls-2" d="M254.08,127.75H254a18.65,18.65,0,0,1-2.65-.8,3.06,3.06,0,0,1,1-2.19,9.48,9.48,0,0,0,3.34,1.38,1.55,1.55,0,0,0,.58.35c.11.11.11,0,.11,0a2.14,2.14,0,0,0,1,.46l.11.11h.12a1.65,1.65,0,0,1-.8,2.87A4.33,4.33,0,0,1,254.08,127.75Z"/><path class="cls-2" d="M257,126.71a.86.86,0,0,1,.46.24,2.14,2.14,0,0,1-1-.46C256.49,126.6,256.73,126.6,257,126.71Z"/><path class="cls-2" d="M256.84,129.93h-.7a40,40,0,0,1-4-.81c-.24-.45-.46-.91-.68-1.37a1.75,1.75,0,0,1-.13-.8,18.65,18.65,0,0,0,2.65.8h.11A4.33,4.33,0,0,0,256.84,129.93Z"/><path class="cls-2" d="M255.69,126.14a9.48,9.48,0,0,1-3.34-1.38,1.74,1.74,0,0,1,2.41.46A3.69,3.69,0,0,0,255.69,126.14Z"/><path class="cls-2" d="M170.36,517.76c-.46,0-.81-.11-1.27-.11-1.26-.11-2.52-.22-3.9-.22a2.92,2.92,0,0,1,.23-1.38l3.67.33A1.31,1.31,0,0,1,170.36,517.76Z"/><path class="cls-2" d="M169.09,517.65c.46,0,.81.11,1.27.11a1.08,1.08,0,0,1-1.27,1.16c-1.14-.13-2.41-.24-3.67-.35a3.55,3.55,0,0,1-.23-1.14C166.57,517.43,167.83,517.54,169.09,517.65Z"/><path class="cls-4" d="M381.88,164.55c-24.74-8.24,24.74-39.57,28-21.44,1.66,14.85-28,18.15-29.69,18.15"/><path class="cls-5" d="M381.88,164.55c-24.74-8.24,24.74-39.57,28-21.44,1.66,14.85-28,18.15-29.69,18.15"/><path class="cls-4" d="M382.45,164c-2.23-1.77-5.14-3.5-5.13-6.68,0-2.92,2.94-5.69,4.85-7.51,5.07-4.79,12.55-9,19.63-9.38,2.69-.16,5.07.75,5.23,3.74.26,4.66-4.87,7.41-8.53,8.92a57.41,57.41,0,0,1-12.45,3.28,32.75,32.75,0,0,0-4.66.72,4.22,4.22,0,0,0-2.45,1.89c-1.24,2.12.08.2.65,0-2.17.89-2.42,3.84,0,4.66,1,.33-.39,0-.65-.48a4.13,4.13,0,0,0,3.55,2c4.77.18,10.44-2.11,14.8-3.82,5.38-2.1,10.59-5.21,13.72-10.19,5.53-8.81-1.21-17.38-10.72-16.26-9.12,1.09-18.9,7-24.37,14.33-4.92,6.6-3.89,16,6,16.16.65,0,1.15-.93.57-1.38Z"/><path class="cls-6" d="M501.1,489.62c-76.67-19.16-158.11,19.17-230-28.75,91-14.37,105.4-86.25,206-57.49,28.74,9.57,71.86-4.8,57.49,52.7-9.58,24-24,33.54-57.49,28.74"/><path class="cls-5" d="M501.1,489.62c-76.67-19.16-158.11,19.17-230-28.75,91-14.37,105.4-86.25,206-57.49,28.74,9.57,71.86-4.8,57.49,52.7-9.58,24-24,33.54-57.49,28.74"/><path class="cls-6" d="M501.57,487.94c-51.86-13.8-106.18-1.28-159-5.48-18.46-1.47-35.77-6.66-52.66-14-20.78-9.08,1.79-9.12,11.93-12.4,16.84-5.45,32.39-14.49,47.37-23.68,42.43-26.05,76.6-39.62,127.19-26.34,14.14,3.72,28.82,3.88,42.91,7.62,23.66,6.27,15.54,38.39,7.4,52.85C516.29,485,495.11,484,477.15,482.22c-3.37-.33-3.28,4.81,0,5.21,35.93,4.27,58-10.48,62.71-47.23,3.61-28.25-21.28-33.27-43.32-35.8-39.78-4.58-70.36-16.72-109.5-.18-40.9,17.27-71.24,45.79-116.66,54-2.45.44-2.51,3.85-.65,5,70.68,43.59,153.51,14.46,230.9,28.08,2.2.39,3.15-2.78.94-3.37Z"/><path class="cls-6" d="M376.52,413c-24,4.79-52.71,0-71.87-9.57,33.54-24,100.63-52.71,110.2,4.79"/><path class="cls-5" d="M376.52,413c-24,4.79-52.71,0-71.87-9.57,33.54-24,100.63-52.71,110.2,4.79"/><path class="cls-6" d="M376.52,411.43c-20.62,2-40,.46-59.87-5.82-12.46-3.94-3.21-5.1,3.79-9.27,5.39-3.2,11-5.94,16.67-8.59,29.69-13.91,66.24-18.18,75.5,21,.7,3,5,1.69,4.49-1.23-10.9-60.21-81.57-28.94-113.76-6.42-1.44,1-1.94,3.62,0,4.49,23,10.43,48.81,14.49,73.58,8.8,1.66-.38,1.33-3.16-.4-3Z"/></g></g></svg>