<svg xmlns="http://www.w3.org/2000/svg" viewBox="0 0 621.98 540.3"><defs><style>.cls-1{fill:#1d3033;stroke:#1d3033;stroke-linecap:round;stroke-linejoin:round;stroke-width:0.66px;}.cls-2{fill:#d5ebe5;}.cls-3{fill:#fff;}.cls-4{fill:none;}.cls-5{fill:#8cccba;}.cls-6{fill:#eda640;}</style></defs><title>dialog_icon2</title><g id="レイヤー_2" data-name="レイヤー 2"><g id="レイヤー_1-2" data-name="レイヤー 1"><path class="cls-1" d="M616.26,493.19c2.64,2.64,6.32,6.2,5.17,10.33-4.94,17.69-42,15.16-54.78,14.48-45-2.3-87.85,1.6-130.24,17.1-37.78,13.79-65.46-6.19-103.71-5-40.3,1.26-75.57,14.24-114.73,1.14-41.91-14-85.44-6.08-128.74-9.41a4,4,0,0,1-3.67-3.22c1.26.11,2.52.22,3.67.35a1.07,1.07,0,0,0,1.26-1.16c31.93,3,64-1.25,95.78,1,25.16,1.73,48.48,18.61,74.54,15.06,27.22-3.79,54.21-9.54,82.35-7.93,20.21,1.15,38.24,9.53,57.77,11.48,24.22,2.54,44.78-14.12,68-18,28-4.71,60.05-7.69,88.54-6.33,15.5.7,29.75,2.08,44.8-1.95,28-7.46,10.44-15.85-4.38-23.65-16-8.5-27.44-21.13-35.71-37.21-16.65-32.16-18.6-70.06-22.63-105.43-8-71.89-24.46-144.59-79.13-196.27C414.36,105,348.09,99.38,292.05,127.06c-14.82,7.35-29.4,16.31-42,27-15.72,13.43-15.72,13.21-35.36,13.89-31.47,1.16-23.55,20.21-33,43-8.28,21.36-31.36,41.23-43,64.31-13.21,26.3-21.48,57.66-24.69,89-3.34,23.1,1.61,52.84-6.67,74.32-8.26,26.3-39.5,26.3-52.71,46.16-17.11,24.81,8.39,30.77,30.66,32.74a3.54,3.54,0,0,0,.24,1.14c-19.87-1.84-52.95-9.76-32.5-35.48,8.72-10.92,19.86-15.39,31.34-22.86,23.21-14.71,24.93-37.44,25-62.6.11-35.48,4.25-72,17.8-105.07,13.66-33.43,46.62-59.73,54.31-94.64,3.8-16.88,6.55-28.36,24.35-33.07,7.93-2.08,17.23.68,24.92-2.3,8.85-3.45,16.89-11.72,24.13-17.58,13-10.45,28-18.26,43.07-25.14,26.87-12.41,57-15.63,86.13-12.29,61.79,7,108.53,59,131,113.81,13.77,33.88,21.93,69.37,26.64,105.54,5.4,41.57,3.57,93,28.6,128.86,9.76,14,20.78,22.51,35.26,30.78C609,488.37,613.62,490.43,616.26,493.19Z"/><path class="cls-2" d="M606.5,497.21c-1.83,3.21-3.67,6.43-5.4,9.53a91.26,91.26,0,0,1-25.49,2.65c-19.29.22-38.25-1.27-57.54-.24-33.08,1.73-61.45,9.07-92.33,20.33-20.69,7.59-41.69.23-61.79-4.82-17.12-4.36-34.58-3.68-52-2.41-14.13,1-28.14,3.67-42.15,5.74-24.23,3.79-43.19-3.56-65.81-10.34C168,507,126.33,516.27,89.23,513.51a3.38,3.38,0,0,0-3.67,2.41,95.65,95.65,0,0,1-15.16-2.28c-20.79-4-13.9-30.67-.58-39.74,9-6,20.56-9.07,28.37-16.89,16.08-16,17.11-37.79,17.57-59.38.92-42.14,7.92-82.23,26.07-120.58,12.29-26,35.83-43.76,45.71-71.21,5.86-16.07.69-31.35,27.11-33.87,7.23-.81,16.42.46,23.08-3.57,30.2-18.37,53.06-39.62,88.31-49.49,85.68-23.89,153.9,38.82,184.1,113,26.42,64.76,19.18,135.75,40,201.55a102,102,0,0,0,45.47,57.88C599.26,493.19,602.94,495.14,606.5,497.21ZM405.05,329.76c51.69,13.9,82.13-114.72,18.61-120.93C369.34,203.66,363.25,324.14,405.05,329.76ZM298.82,287.5c9.2-26.07,8.85-66.5-20.21-79.59-58.34-26.3-79.93,92.8-27.22,109.68C270.81,334.36,292.62,304.84,298.82,287.5Z"/><path class="cls-1" d="M85.56,516.05a2.81,2.81,0,0,0-.24,1.38c-22.27-2-47.77-7.93-30.66-32.74,13.21-19.86,44.45-19.86,52.71-46.16,8.28-21.48,3.33-51.22,6.67-74.32,3.21-31.34,11.48-62.7,24.69-89,11.6-23.08,34.68-42.95,43-64.31,9.41-22.75,1.49-41.8,33-43,19.64-.68,19.64-.46,35.36-13.89,12.64-10.68,27.22-19.64,42-27,56-27.68,122.31-22,168.36,21.48,54.67,51.68,71.1,124.38,79.13,196.27,4,35.37,6,73.27,22.63,105.43,8.27,16.08,19.75,28.71,35.71,37.21,14.82,7.8,32.39,16.19,4.38,23.65-15,4-29.3,2.65-44.8,1.95-28.49-1.36-60.53,1.62-88.54,6.33-23.21,3.9-43.77,20.56-68,18-19.53-1.95-37.56-10.33-57.77-11.48-28.14-1.61-55.13,4.14-82.35,7.93-26.06,3.55-49.38-13.33-74.54-15.06-31.8-2.28-63.85,2-95.78-1a1.3,1.3,0,0,0-1.26-1.38Zm0-.13a3.38,3.38,0,0,1,3.67-2.41C126.33,516.27,168,507,204,517.65c22.62,6.78,41.58,14.13,65.81,10.34,14-2.07,28-4.71,42.15-5.74,17.45-1.27,34.91-2,52,2.41,20.1,5.05,41.1,12.41,61.79,4.82,30.88-11.26,59.25-18.6,92.33-20.33,19.29-1,38.25.46,57.54.24a91.26,91.26,0,0,0,25.49-2.65c1.73-3.1,3.57-6.32,5.4-9.53-3.56-2.07-7.24-4-10.91-5.86a102,102,0,0,1-45.47-57.88c-20.8-65.8-13.56-136.79-40-201.55-30.2-74.19-98.42-136.9-184.1-113-35.25,9.87-58.11,31.12-88.31,49.49-6.66,4-15.85,2.76-23.08,3.57-26.42,2.52-21.25,17.8-27.11,33.87-9.88,27.45-33.42,45.25-45.71,71.21-18.15,38.35-25.15,78.44-26.07,120.58-.46,21.59-1.49,43.42-17.57,59.38-7.81,7.82-19.4,10.91-28.37,16.89-13.32,9.07-20.21,35.71.58,39.74A95.65,95.65,0,0,0,85.56,515.92Z"/><path class="cls-1" d="M523.82,87.79c26.06-12.65,43.4,18.6,32.26,40.53-2.41,4.71-6.2,9.07-11.37,10.91-1.84.7-5.51,1.38-7.58.11a24.29,24.29,0,0,0,4.14.46c1.6,0,2.06-2.63.34-3-.46-.11-1-.23-1.49-.35,21-3.09,21.59-49.38-5.52-47.65C507.16,90.31,515,129.93,536,137.28a2.46,2.46,0,0,0,1.14,1.95C516.46,134.76,501.07,98.69,523.82,87.79Z"/><path class="cls-1" d="M546.55,128.44c3.9-5,5.39-11.83,4.82-18-.57-6.67-3.44-15.28-10.91-17.12-7-1.84-16.31.35-18.72,8.16-3.79,12.51,3,27.79,14.59,33.53a2.66,2.66,0,0,0-.46,1.61,1.4,1.4,0,0,0,.12.69c-21-7.35-28.83-47-1.39-48.46,27.11-1.73,26.54,44.56,5.52,47.65H540c-1.26-.46-2.41-.91-3.67-1.49C538.05,132,544.49,131,546.55,128.44Z"/><path class="cls-2" d="M551.37,110.41c.57,6.2-.92,13.08-4.82,18-2.06,2.52-8.5,3.56-10.22,6.54-11.59-5.74-18.38-21-14.59-33.53,2.41-7.81,11.72-10,18.72-8.16C547.93,95.13,550.8,103.74,551.37,110.41Z"/><path class="cls-1" d="M536,137.28a1.4,1.4,0,0,1-.12-.69,2.66,2.66,0,0,1,.46-1.61c1.26.58,2.41,1,3.67,1.49h.12c.46.12,1,.24,1.49.35,1.72.35,1.26,3-.34,3a24.29,24.29,0,0,1-4.14-.46v-.11A2.46,2.46,0,0,1,536,137.28Z"/><path class="cls-3" d="M417.12,214.91c31-2.41,35.71,37.45,32.38,59.15-4.25,28.48-19.75,45.59-47.32,47.55C376.23,297.49,377.39,218.13,417.12,214.91Zm-6.2,66.39a22.5,22.5,0,0,0,7.81-27.57c-2.19-5-8.73-12.63-14.93-9.52-5.28,2.63-5.63,11.82-5.74,16.76-.24,6.67.22,15.39,4.71,20.79,1.49,1.72,3.66.11,3.66-1.73C407.35,281.64,409.19,282.56,410.92,281.3Z"/><path class="cls-1" d="M449.5,274.06c3.33-21.7-1.38-61.56-32.38-59.15-39.73,3.22-40.89,82.58-14.94,106.7a21,21,0,0,1-2.87.23,2.47,2.47,0,0,0-1.71.8c-26.76-25.15-19-127.83,33.07-108.52,42,15.61,25.27,113.35-22.4,111.85a22.13,22.13,0,0,1-6.09-4.36C429.75,319.65,445.25,302.54,449.5,274.06Z"/><path class="cls-1" d="M408.27,326c47.67,1.5,64.44-96.24,22.4-111.85-52-19.31-59.83,83.37-33.07,108.52a2.64,2.64,0,0,0,.34,4.37,32.73,32.73,0,0,0,7.11,2.75c-41.8-5.62-35.71-126.1,18.61-120.93,63.52,6.21,33.08,134.83-18.61,120.93a18.16,18.16,0,0,0,2.54.23c2,0,2.87-2.87,1-3.79C408.51,326.09,408.39,326.09,408.27,326Z"/><path class="cls-1" d="M406.43,280c0,1.84-2.17,3.45-3.66,1.73-4.49-5.4-4.95-14.12-4.71-20.79.11-4.94.46-14.13,5.74-16.76,6.2-3.11,12.74,4.47,14.93,9.52a22.5,22.5,0,0,1-7.81,27.57C409.19,282.56,407.35,281.64,406.43,280Zm0-.11a.72.72,0,0,0-.11-.46l3-1c8.15-4.93,11.48-16.41,6.55-24.69-16.55-24.69-18.15,16.54-11.49,26.42l1.84-.58C406.32,279.69,406.32,279.81,406.43,279.92Z"/><path class="cls-1" d="M406,278.54a2.22,2.22,0,0,0,.24.92v.11l-1.84.58c-6.66-9.88-5.06-51.11,11.49-26.42,4.93,8.28,1.6,19.76-6.55,24.69l-3,1c0-.11-.11-.34-.11-.46S406.1,278.66,406,278.54Zm0-.23a3.13,3.13,0,0,1,1.62-2.76c8.38-5,10.56-15.73,4.13-23.31-2.64-3.21-5.51-5.51-7-.34C402.42,260.05,402.64,270.38,406,278.31Z"/><path class="cls-1" d="M411.72,252.24c6.43,7.58,4.25,18.27-4.13,23.31a3.13,3.13,0,0,0-1.62,2.76c-3.33-7.93-3.55-18.26-1.25-26.41C406.21,246.73,409.08,249,411.72,252.24Z"/><path class="cls-1" d="M400.47,324.94a30.93,30.93,0,0,0,7.8,1c.12.12.24.12.35.23,1.84.92.92,3.79-1,3.79a18.16,18.16,0,0,1-2.54-.23,32.73,32.73,0,0,1-7.11-2.75,2.64,2.64,0,0,1-.34-4.37A18.21,18.21,0,0,0,400.47,324.94Z"/><path class="cls-1" d="M406.32,279.46a.72.72,0,0,1,.11.46c-.11-.11-.11-.23-.22-.35v-.11Z"/><path class="cls-1" d="M406.21,279c0,.12.11.35.11.46h-.11a2.22,2.22,0,0,1-.24-.92C406.1,278.66,406.1,278.89,406.21,279Z"/><path class="cls-1" d="M408.27,326a30.93,30.93,0,0,1-7.8-1,18.21,18.21,0,0,1-2.87-2.3,2.47,2.47,0,0,1,1.71-.8,21,21,0,0,0,2.87-.23A22.13,22.13,0,0,0,408.27,326Z"/><path class="cls-1" d="M278.61,207.91C307.67,221,308,261.43,298.82,287.5c-6.2,17.34-28,46.86-47.43,30.09.7.22,1.49.46,2.3.69a1.92,1.92,0,0,0,2.3-2.42c39.16,18.5,63.63-83,24.57-103.36-54.77-28.25-75.44,74.65-33.42,100.49.12.12.12.24.24.35a36.32,36.32,0,0,0,4,4.25C198.68,300.71,220.27,181.61,278.61,207.91Z"/><path class="cls-3" d="M272.52,212.62c27.11,8,26.54,43.87,21.6,65.8-2.41,10.57-7.12,20.8-14.35,28.95-9.42,10.57-18.84,5.86-29.87,1.61a2,2,0,0,0-2.41.46c-16.07-13-21.13-32.39-19.29-54C230.15,231.92,245.43,204.69,272.52,212.62Zm-13.09,57.43c3.11-7.47,5.4-20.56-1.49-26.65-16.31-14.47-31.23,20.45-15,30.32v.11a.72.72,0,0,0,.11.46C247.26,284.52,256.67,276.82,259.43,270.05Z"/><path class="cls-1" d="M294.12,278.42c4.94-21.93,5.51-57.77-21.6-65.8s-42.37,19.3-44.32,42.84c-1.84,21.59,3.22,41,19.29,54a3.59,3.59,0,0,0-.35,3.55c-42-25.84-21.35-128.74,33.42-100.49,39.06,20.33,14.59,121.86-24.57,103.36a1.19,1.19,0,0,0-.81-1.14,53.74,53.74,0,0,1-7.69-5.28,2,2,0,0,1,2.41-.46c11,4.25,20.45,9,29.87-1.61C287,299.22,291.71,289,294.12,278.42Z"/><path class="cls-1" d="M257.94,243.4c6.89,6.09,4.6,19.18,1.49,26.65-2.76,6.77-12.17,14.47-16.42,4.24a.72.72,0,0,1-.11-.46,17.86,17.86,0,0,0,2.64,1.26.93.93,0,0,0,.8,0h.12c10.45,5.86,17.11-23.42,9.42-29.63-14-10.79-23.67,16.31-12.18,26.54a1.53,1.53,0,0,0-.8,1.72C226.71,263.85,241.63,228.93,257.94,243.4Z"/><path class="cls-1" d="M255.88,245.46c7.69,6.21,1,35.49-9.42,29.63a1.82,1.82,0,0,0,.8-2.63c4.25.11,6.32-3.46,7.59-7.93,1.14-4.14,3.2-13.09-.59-16.54-5.85-5.4-11.13.8-12.4,6.78-1.49,6.54.23,13.09,5.28,17.57v.12a6.94,6.94,0,0,1-2.41-.46,1.21,1.21,0,0,0-.92,0h-.11C232.21,261.77,241.86,234.67,255.88,245.46Z"/><path class="cls-1" d="M256,315.86a1.92,1.92,0,0,1-2.3,2.42c-.81-.23-1.6-.47-2.3-.69a36.32,36.32,0,0,1-4-4.25c-.12-.11-.12-.23-.24-.35a3.59,3.59,0,0,1,.35-3.55,53.74,53.74,0,0,0,7.69,5.28A1.19,1.19,0,0,1,256,315.86Z"/><path class="cls-1" d="M254.26,248c3.79,3.45,1.73,12.4.59,16.54-1.27,4.47-3.34,8-7.59,7.93h-.12v-.12c-5-4.48-6.77-11-5.28-17.57C243.13,248.79,248.41,242.59,254.26,248Z"/><path class="cls-1" d="M255.07,22.21c.68,11.25-9.53,19-20.21,18.94,1.72-.57,1.95-3,.46-3.67C268.62,33.57,244-8.46,219.58,8,204,18.75,214.87,38.52,231.42,39.31a3.58,3.58,0,0,0,3,1.84h.35a.47.47,0,0,1-.35.11c-7.47.7-14.47.13-19.87-5.74-4.48-4.59-7.13-10.44-6.21-17C209.94,6,224.87-2.25,236.81,1.07,246.11,3.71,254.5,12.21,255.07,22.21Z"/><path class="cls-1" d="M233.48,34.27c6.55-1.73,15.5-3.11,14.24-12.06-.69-5.74-5.51-11.38-11-13.21-7.36-2.41-18.5.8-20.33,9.42S222.68,35.18,231,37a5,5,0,0,0,.46,2.29C214.87,38.52,204,18.75,219.58,8c24.46-16.42,49,25.61,15.74,29.52h-.12a1.61,1.61,0,0,0-.8-.12,16.22,16.22,0,0,1-3.33-.34A3.12,3.12,0,0,1,233.48,34.27Z"/><path class="cls-2" d="M247.72,22.21c1.26,9-7.69,10.33-14.24,12.06A3.12,3.12,0,0,0,231.07,37H231c-8.28-1.84-16.55-10.11-14.59-18.6S229.34,6.59,236.7,9C242.21,10.83,247,16.47,247.72,22.21Z"/><path class="cls-1" d="M247.26,272.46a1.82,1.82,0,0,1-.8,2.63h-.12a8.5,8.5,0,0,1-2.07-1.6H246a15.33,15.33,0,0,1-2.19-1.49,1.21,1.21,0,0,1,.92,0,6.94,6.94,0,0,0,2.41.46Z"/><path class="cls-1" d="M246.34,275.09a.93.93,0,0,1-.8,0,17.86,17.86,0,0,1-2.64-1.26v-.11a1.53,1.53,0,0,1,.8-1.72h.11a15.33,15.33,0,0,0,2.19,1.49h-1.73A8.5,8.5,0,0,0,246.34,275.09Z"/><path class="cls-1" d="M235.2,37.48h.12c1.49.69,1.26,3.1-.46,3.67h-.46a3.58,3.58,0,0,1-3-1.84A5,5,0,0,1,231,37h.11a16.22,16.22,0,0,0,3.33.34A1.61,1.61,0,0,1,235.2,37.48Z"/><path class="cls-1" d="M197.76,57.58C221.3,68.94,221.54,94,207.29,113.5c-5.28,7.25-26.76,31-35,15.62a39.47,39.47,0,0,0,4,.81h.7c16.07,5.4,64.54-52.83,16.19-70.86C149,41.72,133.45,113.74,171.46,127a1.88,1.88,0,0,0,.12.8c.23.46.45.92.69,1.37C127,118.34,148.38,33.69,197.76,57.58Z"/><path class="cls-2" d="M192.36,62.06c22.17,8,21,28.93,10.11,45.94-2.76,4.13-16.66,20.9-24.7,19.06h-.11l-.11-.11a.86.86,0,0,0-.46-.24c-.23-.11-.46-.11-.57-.22s0,.11-.12,0a1.73,1.73,0,0,1-.58-.35,3.83,3.83,0,0,1-.92-.92,1.74,1.74,0,0,0-2.41-.46C139.08,108.91,152.06,47.59,192.36,62.06Z"/><path class="cls-1" d="M202.47,108c10.91-17,12.06-37.9-10.11-45.94-40.3-14.47-53.28,46.85-19.87,62.7a3.06,3.06,0,0,0-1,2.19c-38-13.21-22.51-85.23,21.71-67.88,48.35,18-.12,76.26-16.19,70.86a1.64,1.64,0,0,0,.79-2.87C185.81,128.9,199.71,112.13,202.47,108Z"/><path class="cls-1" d="M174.22,127.75h-.11a18.65,18.65,0,0,1-2.65-.8,3.06,3.06,0,0,1,1-2.19,9.43,9.43,0,0,0,3.33,1.38,1.73,1.73,0,0,0,.58.35c.12.11.12,0,.12,0a2.1,2.1,0,0,0,1,.46l.11.11h.11a1.64,1.64,0,0,1-.79,2.87A4.31,4.31,0,0,1,174.22,127.75Z"/><path class="cls-1" d="M177.09,126.71a.86.86,0,0,1,.46.24,2.1,2.1,0,0,1-1-.46C176.63,126.6,176.86,126.6,177.09,126.71Z"/><path class="cls-1" d="M177,129.93h-.7a39.47,39.47,0,0,1-4-.81c-.24-.45-.46-.91-.69-1.37a1.88,1.88,0,0,1-.12-.8,18.65,18.65,0,0,0,2.65.8h.11A4.31,4.31,0,0,0,177,129.93Z"/><path class="cls-1" d="M175.82,126.14a9.43,9.43,0,0,1-3.33-1.38,1.74,1.74,0,0,1,2.41.46A3.83,3.83,0,0,0,175.82,126.14Z"/><path class="cls-1" d="M90.49,517.76c-.46,0-.8-.11-1.26-.11-1.26-.11-2.53-.22-3.91-.22a2.81,2.81,0,0,1,.24-1.38l3.67.33A1.3,1.3,0,0,1,90.49,517.76Z"/><path class="cls-1" d="M89.23,517.65c.46,0,.8.11,1.26.11a1.07,1.07,0,0,1-1.26,1.16c-1.15-.13-2.41-.24-3.67-.35a3.54,3.54,0,0,1-.24-1.14C86.7,517.43,88,517.54,89.23,517.65Z"/><path class="cls-3" d="M302,164.55c-24.74-8.24,24.74-39.57,28-21.44,1.66,14.85-28,18.15-29.69,18.15"/><path class="cls-4" d="M302,164.55c-24.74-8.24,24.74-39.57,28-21.44,1.66,14.85-28,18.15-29.69,18.15"/><path class="cls-3" d="M302.59,164c-2.23-1.77-5.15-3.5-5.14-6.68,0-2.92,2.94-5.69,4.86-7.51,5.07-4.79,12.55-9,19.63-9.38,2.69-.16,5.07.75,5.22,3.74.26,4.66-4.86,7.41-8.52,8.92a57.41,57.41,0,0,1-12.45,3.28,32.89,32.89,0,0,0-4.67.72,4.2,4.2,0,0,0-2.44,1.89c-1.25,2.12.08.2.65,0-2.18.89-2.42,3.84,0,4.66.94.33-.39,0-.65-.48a4.12,4.12,0,0,0,3.54,2c4.78.18,10.45-2.11,14.81-3.82,5.38-2.1,10.59-5.21,13.71-10.19,5.53-8.81-1.21-17.38-10.72-16.26-9.12,1.09-18.9,7-24.37,14.33-4.91,6.6-3.88,16,6,16.16.65,0,1.14-.93.57-1.38Z"/><path class="cls-5" d="M421.24,489.62c-76.67-19.16-158.12,19.17-230-28.75,91-14.37,105.41-86.25,206-57.49,28.75,9.57,71.87-4.8,57.49,52.7-9.58,24-23.95,33.54-57.49,28.74"/><path class="cls-4" d="M421.24,489.62c-76.67-19.16-158.12,19.17-230-28.75,91-14.37,105.41-86.25,206-57.49,28.75,9.57,71.87-4.8,57.49,52.7-9.58,24-23.95,33.54-57.49,28.74"/><path class="cls-5" d="M421.71,487.94c-51.86-13.8-106.19-1.28-159-5.48-18.46-1.47-35.78-6.66-52.67-14-20.77-9.08,1.8-9.12,11.93-12.4,16.85-5.45,32.39-14.49,47.38-23.68C311.79,406.3,346,392.73,396.54,406c14.14,3.72,28.83,3.88,42.91,7.62,23.67,6.27,15.55,38.39,7.41,52.85C436.42,485,415.25,484,397.28,482.22c-3.36-.33-3.27,4.81,0,5.21,35.94,4.27,58-10.48,62.72-47.23,3.61-28.25-21.29-33.27-43.33-35.8-39.78-4.58-70.35-16.72-109.49-.18-40.91,17.27-71.24,45.79-116.67,54-2.44.44-2.51,3.85-.65,5,70.68,43.59,153.52,14.46,230.91,28.08,2.2.39,3.15-2.78.94-3.37Z"/><path class="cls-5" d="M296.66,413c-24,4.79-52.72,0-71.87-9.57,33.53-24,100.62-52.71,110.2,4.79"/><path class="cls-4" d="M296.66,413c-24,4.79-52.72,0-71.87-9.57,33.53-24,100.62-52.71,110.2,4.79"/><path class="cls-5" d="M296.66,411.43c-20.63,2-40,.46-59.87-5.82-12.46-3.94-3.21-5.1,3.79-9.27,5.38-3.2,11-5.94,16.67-8.59,29.68-13.91,66.23-18.18,75.5,21,.69,3,5,1.69,4.48-1.23-10.9-60.21-81.56-28.94-113.75-6.42-1.44,1-1.94,3.62,0,4.49,23,10.43,48.81,14.49,73.58,8.8,1.66-.38,1.32-3.16-.4-3Z"/><path class="cls-6" d="M1.51,178c5.37,5.6,12.92,8.06,20,10.85q12.8,5.06,25.78,9.61,6.3,2.2,12.64,4.3c3.46,1.14,7.08,2.5,10.76,1.67,6.31-1.43,10.39-9.52,4.24-14-3.16-2.29-7.53-3.52-11.11-5.11l-13.42-6q-12.52-5.55-25-11.1c-5.26-2.32-15.94-9.57-20.85-3.21C.24,170.57,6.23,177,10.69,179.87c7.35,4.74,16.86,7.15,25.13,9.71a281,281,0,0,0,30.41,7.48c6.71,1.28,9.59-9,2.84-10.29A280.1,280.1,0,0,1,37.76,179q-7.15-2.23-14.16-4.87a44.46,44.46,0,0,1-6.33-2.77c-.79-.45-1.49-1-2.25-1.5-1.41-.87-.6-2-1.22-.14l-2.45,3.19c-1.73.89.27,1,1.41,1.46l3.59,1.55c2.69,1.17,5.37,2.36,8.06,3.55l15.21,6.74L54.83,193,62,196.14l3.58,1.59,1.78.79q3.45,1.95-.45-4.73c-1.61-1.2-5-1.59-6.89-2.23-2.41-.81-4.81-1.63-7.22-2.46q-7.63-2.64-15.21-5.46t-15-5.79c-4.78-1.91-9.87-3.62-13.5-7.41-4.76-5-12.3,2.59-7.55,7.55Z"/><path class="cls-6" d="M32.51,136l-1.65,3.81c-1.44,3.33-.32,6.54,3.19,7.84A269.7,269.7,0,0,1,73.85,166c8.7,4.92,23.25,18,32.63,7.25,2.43-2.79,1.8-6.25-1.08-8.38a366.86,366.86,0,0,0-37.05-23.49C62.16,137.87,56,133.9,49.45,131c-5.17-2.26-11.58-2.66-15.68,1.91a11.1,11.1,0,0,0-.58,13.61c3.55,5.19,10.58,6.68,16.17,8.53a422,422,0,0,1,42,16.49l4.11-9.75A277.09,277.09,0,0,1,42.84,133.2L38.73,143a146.81,146.81,0,0,1,30.5,16.72c5.6,4,10.94-5.26,5.38-9.22a157.56,157.56,0,0,0-33-17.78c-5.94-2.39-8.75,6.53-4.11,9.75a289.85,289.85,0,0,0,55.21,29.69c5.55,2.28,9.61-7.24,4.12-9.75-10-4.55-20.15-8.78-30.45-12.59q-7.91-2.93-15.93-5.56c-2.32-.76-5-1.33-7.07-2.67-1.73-1.13-2.29-1.95.54-1.28,4.62,1.11,9.32,4.86,13.44,7.16,4.84,2.69,9.66,5.42,14.44,8.23A324.23,324.23,0,0,1,100,174.08l-1.08-8.38C96.05,169,88,161.94,85.37,160.36q-7.64-4.59-15.59-8.67a293.11,293.11,0,0,0-32.89-14.3l3.19,7.83,1.65-3.81c2.69-6.23-6.49-11.67-9.22-5.38Z"/><path class="cls-6" d="M80.51,91.5c2.8,15.68,17.54,26.53,25.89,39.3,4.3,6.59,7.94,15,13.77,20.42,4.62,4.27,13,4.74,16.84-1,2.31-3.48.43-6.31-1.41-9.47q-3.76-6.49-7.7-12.9-7.41-12-15.38-23.72-3.73-5.48-7.58-10.86c-2.33-3.26-4.55-7.47-7.91-9.77-5.7-3.91-14-.3-13.9,7,.07,4.67,4,8.7,6.58,12.26l9.84,13.81,19.68,27.62c3.91,5.49,12.86.58,9.21-5.38L98.77,90.3c-3.57-5.85-12.8-.5-9.21,5.38l29.67,48.58,9.21-5.38-19.1-26.81L99.5,98.26c-1.29-1.81-2.84-5.22-4.63-6.5L94,90.54l-2.64,2.2c-.1.76,2.24,3.05,2.67,3.64a611.54,611.54,0,0,1,34.19,53V144c-.16.29-3.3-3.91-3.77-4.62-1.76-2.68-3.44-5.4-5.14-8.11a180.28,180.28,0,0,0-10.21-15C102.43,107.63,92.81,100,90.8,88.66c-1.2-6.75-11.48-3.89-10.29,2.84Z"/></g></g></svg>