<svg xmlns="http://www.w3.org/2000/svg" viewBox="0 0 149.31 143.04"><defs><style>.cls-1{fill:#1d3033;stroke:#1d3033;stroke-linecap:round;stroke-linejoin:round;stroke-width:0.66px;}.cls-2{fill:#dc6665;}.cls-3{fill:#cfc338;}.cls-4{fill:#80632c;}.cls-5{fill:#f4af20;}.cls-6{fill:#f7e5d7;}.cls-7{fill:#fff;}.cls-8{fill:#d93933;}.cls-9{fill:#972123;}.cls-10{fill:none;}.cls-11{fill:#f7ee95;}</style></defs><title>ex_1</title><g id="レイヤー_2" data-name="レイヤー 2"><g id="レイヤー_3" data-name="レイヤー 3"><path class="cls-1" d="M128.85,77.12c.23,0,.46.07.69.12,10,8.23,23.92,22.25,18.05,36.22a.38.38,0,0,1-.59.18c.08-.13.13-.25.2-.38a.22.22,0,0,0-.28-.31c2.64-15.4-9-25.61-18.61-35.83,0-.06-.07-.08-.07-.11l.59.11Z"/><path class="cls-1" d="M146.87,113.31v0a1.12,1.12,0,0,0,0-.31.22.22,0,0,1,.28.31c-.07.13-.12.25-.2.38a.41.41,0,0,1-.13-.31Z"/><path class="cls-2" d="M128.31,77.12c9.61,10.22,21.25,20.43,18.61,35.83-1.59.9-2.71,2.67-3.82,4.08a31.66,31.66,0,0,1-2.51,2.76c.87-10.94-1-21.63-8.15-30.34,0,0,0,0,0-.06-1.7-4.64-3.77-9.2-6.82-12.84a16.28,16.28,0,0,0,2.28.41,3.13,3.13,0,0,0,.36.05S128.29,77.06,128.31,77.12Z"/><path class="cls-1" d="M146.92,113a1.12,1.12,0,0,1,0,.31v.07c-2.69,2.72-4.15,6.18-7.41,8.62,0-.36,0-.69,0-1a1,1,0,0,1,.18-.18.44.44,0,0,0,.87,0c0-.31.05-.59.05-.9A31.66,31.66,0,0,0,143.1,117C144.21,115.62,145.33,113.85,146.92,113Z"/><path class="cls-1" d="M146.87,113.33a.41.41,0,0,0,.13.31,51.37,51.37,0,0,1-3.49,5.08,12.6,12.6,0,0,1-4.07,4c0-.28,0-.54,0-.79C142.72,119.51,144.18,116.05,146.87,113.33Z"/><path class="cls-1" d="M142.69,60.4a.57.57,0,0,1-.15.75.63.63,0,0,0-.39-.8.53.53,0,0,0-.18-.05,69.62,69.62,0,0,1-4.4-8.38c-1.1-2.56-1.44-5-2.87-7.43a59.6,59.6,0,0,0-11.79-14c-2.21-2-4.8-4.74-7.75-5.36l.77-.15c6.33,1.72,12.13,9.15,15.92,13.84C137,45.13,139.18,53.2,142.69,60.4Z"/><path class="cls-1" d="M142,60.3a.53.53,0,0,1,.18.05.63.63,0,0,1,.39.8v0a.59.59,0,0,1-.85-.15c0-.05-.07-.1-.1-.16-.18-.25-.36-.53-.54-.82C141.36,60.12,141.67,60.2,142,60.3Z"/><path class="cls-1" d="M141.59,60.86c0,.06.08.11.1.16a.59.59,0,0,0,.85.15.58.58,0,0,1-.57.36,39.42,39.42,0,0,1-6-.74c-1.95-.34-4.07-.54-5.74-1.64a2,2,0,0,0-.13-.31.23.23,0,0,0-.18-.15.48.48,0,0,1,.49-.62c2,0,4,.79,6,1.15,1.54.26,3.1.44,4.61.82C141.23,60.33,141.41,60.61,141.59,60.86Z"/><path class="cls-1" d="M142,60.3c-.3-.1-.61-.18-.92-.26-3.77-5.92-5.25-12.92-9.3-18.55s-10.28-13.56-17.13-16.13a.27.27,0,0,1-.18-.15h.06l.66-.08c3,.62,5.54,3.39,7.75,5.36a59.6,59.6,0,0,1,11.79,14c1.43,2.46,1.77,4.87,2.87,7.43A69.62,69.62,0,0,0,142,60.3Z"/><path class="cls-1" d="M132.44,89.45c7.18,8.71,9,19.4,8.15,30.34a5.66,5.66,0,0,1-.49.49c0-2.48.7-4.77.49-7.41a47.3,47.3,0,0,0-1.43-8.58,43.33,43.33,0,0,0-6.49-14.15C132.59,89.91,132.52,89.68,132.44,89.45Z"/><path class="cls-1" d="M140.59,112.87c.21,2.64-.49,4.93-.49,7.41v0c-.15.12-.28.28-.43.41v0c-.08-5.56.48-10.69-1.08-16.22a57.92,57.92,0,0,0-5.3-12.64c-.21-.57-.41-1.13-.62-1.69a43.33,43.33,0,0,1,6.49,14.15A47.3,47.3,0,0,1,140.59,112.87Z"/><path class="cls-1" d="M140.1,120.31v0a5.66,5.66,0,0,0,.49-.49c0,.31,0,.59-.05.9a.44.44,0,0,1-.87,0C139.82,120.59,140,120.43,140.1,120.31Z"/><path class="cls-1" d="M135.34,98.21c2.38,7.51,4.2,14.89,4.15,22.69-.21.18-.39.36-.59.54-.05-11.59-4.38-23.41-8.23-34.1-1.43-3.79-3-7.64-5.56-10.89.15,0,.31.08.46.1h0c3.05,3.64,5.12,8.2,6.82,12.84-.21-.23-.39-.46-.6-.69s-.35,0-.25.21c.59,1,1.18,1.94,1.72,2.92C134,94,134.67,96.16,135.34,98.21Z"/><path class="cls-1" d="M139.49,120.9c0,.36,0,.69,0,1-.2.15-.38.28-.59.41a4.75,4.75,0,0,0,0-.92C139.1,121.26,139.28,121.08,139.49,120.9Z"/><path class="cls-1" d="M139.46,122c0,.25,0,.51,0,.79a1,1,0,0,1-.28.18.63.63,0,0,1-.29.08,2.29,2.29,0,0,0,0-.64C139.08,122.23,139.26,122.1,139.46,122Z"/><path class="cls-1" d="M139.16,122.92a1,1,0,0,0,.28-.18,5.16,5.16,0,0,1,0,.67.36.36,0,0,0-.46-.33.15.15,0,0,0-.08,0,.1.1,0,0,0,0-.13A.63.63,0,0,0,139.16,122.92Z"/><path class="cls-1" d="M139.41,123.41c0,.2,0,.43,0,.64a.57.57,0,0,1-.57.54,4.47,4.47,0,0,0,.57-1.08S139.41,123.43,139.41,123.41Z"/><path class="cls-1" d="M138.85,123.64a4.1,4.1,0,0,0,0-.51.15.15,0,0,1,.08,0,.36.36,0,0,1,.46.33s0,.08,0,.1a4.47,4.47,0,0,1-.57,1.08h0a.47.47,0,0,1-.47-.44A2.5,2.5,0,0,0,138.85,123.64Z"/><path class="cls-1" d="M138.87,122.36a2.29,2.29,0,0,1,0,.64.69.69,0,0,1-.61-.39,2.75,2.75,0,0,0,0-.48v0c.05,0,.08-.13.16-.18s.33-.31.51-.48A4.75,4.75,0,0,1,138.87,122.36Z"/><path class="cls-1" d="M138.9,121.44c-.18.17-.33.33-.51.48s-.11.13-.16.18A101.52,101.52,0,0,0,124.6,76.27l.48.15,0,0c2.56,3.25,4.13,7.1,5.56,10.89C134.52,98,138.85,109.85,138.9,121.44Z"/><path class="cls-1" d="M138.87,123a.1.1,0,0,1,0,.13,4,4,0,0,0-.59.28c0-.26,0-.51,0-.8A.69.69,0,0,0,138.87,123Z"/><path class="cls-1" d="M138.87,123.13a4.1,4.1,0,0,1,0,.51,2.5,2.5,0,0,1-.52.51s0-.05,0-.1a4.5,4.5,0,0,0,0-.64A4,4,0,0,1,138.87,123.13Z"/><path class="cls-1" d="M127.39,130.43a.7.7,0,0,0,.23-.08c3.59-1.33,7.87-3.35,10.71-6.2a.47.47,0,0,0,.47.44c-1.08,1.51-3.26,2.66-4.7,3.43a24.5,24.5,0,0,1-6.91,2.85.34.34,0,0,1-.31-.57A.53.53,0,0,0,127.39,130.43Z"/><path class="cls-1" d="M138.31,124.05s0,.08,0,.1c-2.84,2.85-7.12,4.87-10.71,6.2a.5.5,0,0,0,.23-.28,2.6,2.6,0,0,0,.13-.36c1.82-.94,3.74-1.66,5.51-2.71s3.1-2.64,4.79-3.59A4.5,4.5,0,0,1,138.31,124.05Z"/><path class="cls-2" d="M138.26,122.61c0,.29,0,.54,0,.8-1.69,1-3.12,2.59-4.79,3.59s-3.69,1.77-5.51,2.71c6.51-16.22.77-34.88-5.51-50.47a21.2,21.2,0,0,0,1-3.56,6.2,6.2,0,0,0,1.18.59,101.52,101.52,0,0,1,13.63,45.83v0A.51.51,0,0,0,138.26,122.61Z"/><path class="cls-1" d="M138.23,122.13a2.75,2.75,0,0,1,0,.48A.51.51,0,0,1,138.23,122.13Z"/><path class="cls-3" d="M141.05,60c-1.51-.38-3.07-.56-4.61-.82-2-.36-4-1.15-6-1.15a.48.48,0,0,0-.49.62.36.36,0,0,0-.48.43c1.51,5.46,1.69,11.28,3.59,16.61a16.36,16.36,0,0,0-3.67-.28,35.1,35.1,0,0,1-6.38-1,.39.39,0,0,0-.39.64s0,0,.08,0v0c-1.85,5.15-4.74,9.74-7,14.68-2.36-4-6.12-6.92-9.69-9.89a.48.48,0,0,0-.79.33v0a.34.34,0,0,0-.34.26c-.48,3.28-1.51,6.51-1.79,9.81-4.59-3.92-7.92-9.43-13.25-12.28a20.2,20.2,0,0,0,3.72-1.71c-.54,2.23,3.89,2.71,5.22,2.94,3.23.54,7.69.21,9.9-2.64,3-3.94.67-11.53-4.85-9.71,0,0,0,0,0,0a0,0,0,0,0-.07,0l-.46-1.11a.81.81,0,0,0,.51-.41c2.71-5.46,5.38-10.94,8.35-16.27a.52.52,0,0,0-.89-.54,114.24,114.24,0,0,0-8.31,14.53c-5.82-9.84-6.71-21.45-11.23-31.89-.23-.56-1.2-.15-1,.41A66,66,0,0,1,93,38.54c-6.56-3.69-13.35-6.26-20.4-8.9-3.72-1.41-7.51-3.2-11.43-3.87.18-.61-.72-.87-1.08-.38a0,0,0,0,1,0,0c-1.16-1.53-2.57-2.87-3.87-4.3a20.41,20.41,0,0,1-3.82-6.28,16.7,16.7,0,0,0,3.51,1.28c2.92.87,5.82,1.85,8.82,2.46a.46.46,0,0,0,.56-.33c3.31-2.69,6.48-4.9,10.61-6.18a45.75,45.75,0,0,1,9-1.38c-.4.28-.79.61-1.12.89a11.44,11.44,0,0,0-3,3.28c-.44.16-.21.87.33.77,13.23-2.95,27.66.23,38.86,7.56a10.92,10.92,0,0,0-5.61,1.34c-.28.18-.21.69.12.69a.27.27,0,0,0,.18.15c6.85,2.57,13,10.38,17.13,16.13S137.28,54.12,141.05,60Z"/><path class="cls-1" d="M134,76.14s0,0,0,0a3.71,3.71,0,0,0-.87-.36c-1.9-5.33-2.08-11.15-3.59-16.61a.36.36,0,0,1,.48-.43.52.52,0,0,0,.23.41.35.35,0,0,1,.08,0c2.56,5.28,2.33,11.43,4.49,16.89a.63.63,0,0,1-.57.87A.62.62,0,0,0,134,76.14Z"/><path class="cls-1" d="M134,76.14a.62.62,0,0,1,.2.77.75.75,0,0,1-.77-.28h0a.82.82,0,0,1-.1-.21,6.2,6.2,0,0,1-.23-.69,3.71,3.71,0,0,1,.87.36S134,76.12,134,76.14Z"/><path class="cls-1" d="M133.41,76.63a.75.75,0,0,0,.77.28.58.58,0,0,1-.41.36,9.9,9.9,0,0,1-4.23,0c-.25-.23-.48-.43-.74-.64a.36.36,0,0,0-.56.41,3.13,3.13,0,0,1-.36-.05,16.28,16.28,0,0,1-2.28-.41h0c-.18-.23-.38-.49-.59-.72s-.59.06-.44.34a.15.15,0,0,1,.06.1,6.2,6.2,0,0,1-1.18-.59s0,0,0,0,0-.24.07-.36a.44.44,0,0,0,0-.26c2.71,1.36,7,1.2,9.92,1.59Z"/><path class="cls-1" d="M123,74.81a.33.33,0,0,0-.28.26l0,0s0,0-.08,0a.39.39,0,0,1,.39-.64,35.1,35.1,0,0,0,6.38,1,16.36,16.36,0,0,1,3.67.28,6.2,6.2,0,0,0,.23.69.82.82,0,0,0,.1.21c-2.93-.39-7.21-.23-9.92-1.59A.38.38,0,0,0,123,74.81Z"/><path class="cls-1" d="M132.67,90.14c.21.56.41,1.12.62,1.69-.54-1-1.13-2-1.72-2.92-.1-.18.13-.36.25-.21s.39.46.6.69c0,0,0,0,0,.06C132.52,89.68,132.59,89.91,132.67,90.14Z"/><path class="cls-1" d="M130.13,58.84a2,2,0,0,1,.13.31.35.35,0,0,0-.08,0,.52.52,0,0,1-.23-.41A.23.23,0,0,1,130.13,58.84Z"/><path class="cls-1" d="M128.83,77.12l-.59-.11a.36.36,0,0,1,.56-.41c.26.21.49.41.74.64-.23,0-.46-.07-.69-.12Z"/><path class="cls-1" d="M122.21,80c.1-.23.18-.49.26-.72,6.28,15.59,12,34.25,5.51,50.47-.36.18-.69.36-1,.57a.08.08,0,0,0-.05,0,.43.43,0,0,1-.1-.51c3.12-9.51,2.74-19.25.38-28.89-1.62-6.69-4.1-13.3-5.26-20.12C122,80.5,122.11,80.24,122.21,80Z"/><path class="cls-1" d="M126.93,130.28c.36-.21.69-.39,1-.57a2.6,2.6,0,0,1-.13.36.5.5,0,0,1-.23.28.7.7,0,0,1-.23.08.53.53,0,0,1-.51-.13A.08.08,0,0,1,126.93,130.28Z"/><path class="cls-1" d="M125.08,76.42l-.48-.15a.15.15,0,0,0-.06-.1c-.15-.28.24-.59.44-.34s.41.49.59.72c-.15,0-.31-.08-.46-.1Z"/><path class="cls-1" d="M123.06,75.42a3.81,3.81,0,0,1-.36-.3v0l0,0a.33.33,0,0,1,.28-.26,1.8,1.8,0,0,0,.46.23.44.44,0,0,1,0,.26c0,.12,0,.25-.07.36A1.5,1.5,0,0,1,123.06,75.42Z"/><path class="cls-1" d="M123.47,75a1.8,1.8,0,0,1-.46-.23A.38.38,0,0,1,123.47,75Z"/><path class="cls-1" d="M123.42,75.66s0,0,0,0a21.2,21.2,0,0,1-1,3.56c-.1-.28-.21-.53-.31-.79a0,0,0,0,0,0,0,26.5,26.5,0,0,0,.93-3A1.5,1.5,0,0,0,123.42,75.66Z"/><path class="cls-1" d="M122.7,75.12a3.81,3.81,0,0,0,.36.3,26.5,26.5,0,0,1-.93,3c-.15-.25-.64-.23-.58.1s.07.65.15,1c-1.62,3.79-4,7.51-5.51,11.25a7.11,7.11,0,0,0-.49-1C118,84.86,120.85,80.27,122.7,75.12Z"/><path class="cls-1" d="M122.16,78.45c.1.26.21.51.31.79-.08.23-.16.49-.26.72-.08-.36-.18-.72-.25-1.08.05-.15.1-.3.17-.46A0,0,0,0,1,122.16,78.45Z"/><path class="cls-1" d="M122,78.88c.07.36.17.72.25,1.08-.1.28-.2.54-.31.82a11.33,11.33,0,0,1-.2-1.28C121.78,79.29,121.88,79.09,122,78.88Z"/><path class="cls-1" d="M122,78.88c-.08.21-.18.41-.26.62-.08-.33-.1-.64-.15-1s.43-.35.58-.1C122.06,78.58,122,78.73,122,78.88Z"/><path class="cls-1" d="M114.88,24.75a.08.08,0,0,0-.07,0,.3.3,0,0,0-.31.13.28.28,0,0,0-.06.36c-.33,0-.4-.51-.12-.69a10.92,10.92,0,0,1,5.61-1.34,8.69,8.69,0,0,1,.87.57.42.42,0,0,0,.62-.28,2.55,2.55,0,0,1,.59.25.33.33,0,0,1-.08.59c-1.33.33-2.74,0-4.13.26-.64.13-1.25.28-1.87.41A7,7,0,0,0,114.88,24.75Z"/><path class="cls-1" d="M115.29,90.73c-.13.25-.25.53-.36.79a5.46,5.46,0,0,0,.69-.1c.06.1.11.23.16.33,0-.13.1-.23.15-.36l.57-.07a3.2,3.2,0,0,0-.31-.57c1.56-3.74,3.89-7.46,5.51-11.25a11.33,11.33,0,0,0,.2,1.28c-1.56,3.82-3.79,7.41-5.3,11.2-.26.62-1.21.93-1.56.21-2.18-4.44-6.29-7.49-9.33-11.28a1.59,1.59,0,0,0-.06-.38.36.36,0,0,0-.43-.29.48.48,0,0,1,.79-.33c3.57,3,7.33,5.87,9.69,9.89C115.55,90.11,115.42,90.42,115.29,90.73Z"/><path class="cls-1" d="M121.39,23.16a.47.47,0,0,1,0,.31,1.91,1.91,0,0,0-.44-.16c-3.61-4.59-14-7.07-19.48-8.12C95.22,14,88,13.34,81.66,15c.18-.18.39-.36.57-.57,7.69-1.79,15.89-.79,23.5,1.08C110.65,16.7,118.7,18.24,121.39,23.16Z"/><path class="cls-1" d="M121,23.31a1.91,1.91,0,0,1,.44.16.42.42,0,0,1-.62.28,8.69,8.69,0,0,0-.87-.57A5.11,5.11,0,0,1,121,23.31Z"/><path class="cls-1" d="M120.52,138.94a4.66,4.66,0,0,1-2.26,3.67.72.72,0,0,1-1-.26,17.3,17.3,0,0,0-3.89-5.46c-1.52-1.41-3.65-3.54-5.82-3.79a1.9,1.9,0,0,1-.57-.16c.44-.23.85-.46,1.26-.71,3.61,2.23,7.38,5.33,9.3,9.1l-.18.15a2.93,2.93,0,0,0,.29.05c.07.15.15.31.23.46a2.43,2.43,0,0,0,.48-.38.3.3,0,0,0,.13,0s0-.07,0-.1a6,6,0,0,0,1.2-1.74.42.42,0,0,0,.52-.31,4.8,4.8,0,0,0,.07-.85A.38.38,0,0,1,120.52,138.94Z"/><path class="cls-1" d="M119.06,133.17a14.18,14.18,0,0,1,1.2,5.46.32.32,0,0,0-.25,0l-.36.2a41,41,0,0,0-4.33-12.35,1.91,1.91,0,0,0,.3-.38A26.45,26.45,0,0,1,119.06,133.17Z"/><path class="cls-1" d="M119.65,138.86l.36-.2a.32.32,0,0,1,.25,0,4.8,4.8,0,0,1-.07.85.42.42,0,0,1-.52.31.36.36,0,0,1-.3-.18,2.49,2.49,0,0,1-.16-.33A3.48,3.48,0,0,1,119.65,138.86Z"/><path class="cls-1" d="M121,23.31a5.11,5.11,0,0,0-1-.13c-11.2-7.33-25.63-10.51-38.86-7.56-.54.1-.77-.61-.33-.77a.59.59,0,0,0-.1.16.36.36,0,0,0,.56.43c.15-.12.28-.28.44-.43,0,0,0,0,0,0,6.33-1.67,13.56-1,19.84.18C106.93,16.24,117.37,18.72,121,23.31Z"/><path class="cls-1" d="M119.37,139.61a.36.36,0,0,0,.3.18,6,6,0,0,1-1.2,1.74,7.11,7.11,0,0,0-.41-.72c.41-.51.72-1.07,1.15-1.53A2.49,2.49,0,0,0,119.37,139.61Z"/><path class="cls-1" d="M119.65,138.86a3.48,3.48,0,0,0-.44.42c-1-2-1.25-4.44-2-6.54s-1.51-3.87-2.26-5.79c.13-.16.24-.29.34-.44A41,41,0,0,1,119.65,138.86Z"/><path class="cls-1" d="M118.47,141.53s0,.08,0,.1a.3.3,0,0,1-.13,0S118.44,141.58,118.47,141.53Z"/><path class="cls-1" d="M118.47,141.53c0,.05,0,.08-.08.08l-.71-.08a.78.78,0,0,0-.11-.2,4.79,4.79,0,0,0,.49-.52A7.11,7.11,0,0,1,118.47,141.53Z"/><path class="cls-1" d="M114.73,126a.34.34,0,0,0,0,.28c.08.23.15.44.25.67a14.88,14.88,0,0,1-2.43,2.17.29.29,0,0,1-.36-.07,10,10,0,0,0,2.31-3.9.2.2,0,0,0-.11-.23c1.34-2,2.54-3.84,2.44-6.74-.18-5-3.2-6.08-6.74-8.64a.58.58,0,0,1-.21-.46.26.26,0,0,0,.49-.13v-.2s0,0,0,0c3.9,1.33,7.82,3.79,8,8.33a13.81,13.81,0,0,1-2.8,9,1.3,1.3,0,0,0-.1-.15.5.5,0,0,0-.69-.08A.22.22,0,0,0,114.73,126Z"/><path class="cls-1" d="M117.68,141.53l.71.08a2.43,2.43,0,0,1-.48.38C117.83,141.84,117.75,141.68,117.68,141.53Z"/><path class="cls-4" d="M119.21,139.28c-.43.46-.74,1-1.15,1.53a20.54,20.54,0,0,0-3.23-4.23c-1.67-1.77-4.15-3-5.72-4.87a15.33,15.33,0,0,0,3.08-2.66.29.29,0,0,0,.36.07A14.88,14.88,0,0,0,115,127c.75,1.92,1.59,3.82,2.26,5.79S118.19,137.25,119.21,139.28Z"/><path class="cls-1" d="M118.06,140.81a4.79,4.79,0,0,1-.49.52c-1.92-3.77-5.69-6.87-9.3-9.1.28-.16.56-.34.84-.52,1.57,1.85,4,3.1,5.72,4.87A20.54,20.54,0,0,1,118.06,140.81Z"/><path class="cls-1" d="M117.57,141.33a.78.78,0,0,1,.11.2,2.93,2.93,0,0,1-.29-.05Z"/><path class="cls-5" d="M116.83,118.18c.1,2.9-1.1,4.79-2.44,6.74a.22.22,0,0,0-.28.08,18.76,18.76,0,0,1-6,5.64,1.21,1.21,0,0,0-1.59.82,24.59,24.59,0,0,1-8,2.28c-7.22.77-9.2-6.46-12.63-11.23a.42.42,0,0,0,.08-.64c-.77-.77-2.05-.64-3.08-.72a19.8,19.8,0,0,0-3.85.18c-.41.08-.41.77,0,.82,1,.21,2.08.28,3.13.41a17.43,17.43,0,0,1-4.61,8.85c-3.1,3.07-7.9,1.56-11.72,2.38a.17.17,0,0,0-.15.1c-3.82-1.2-5.79-4.94-8-8.28-4.18-6.35,7.74-13.4,12.38-15.33a.46.46,0,0,0,.31-.38c5.33,1.85,11.79.23,17.2-.54s11.76-1.92,16.33-5.25h0a15.22,15.22,0,0,0,2.26-1,22.4,22.4,0,0,0,1.59,2.38c.79,1.15,1.43,2.41,2.2,3.59a.58.58,0,0,0,.21.46C113.63,112.1,116.65,113.23,116.83,118.18Z"/><path class="cls-1" d="M116.19,90.75a3.2,3.2,0,0,1,.31.57l-.57.07C116,91.19,116.09,91,116.19,90.75Z"/><path class="cls-1" d="M115.7,89.8a7.11,7.11,0,0,1,.49,1c-.1.21-.18.44-.26.64a1.05,1.05,0,0,1-.31,0c-.1-.23-.23-.46-.33-.69C115.42,90.42,115.55,90.11,115.7,89.8Z"/><path class="cls-1" d="M115.93,91.39c-.05.13-.1.23-.15.36,0-.1-.1-.23-.16-.33A1.05,1.05,0,0,0,115.93,91.39Z"/><path class="cls-1" d="M115.16,25.13l-.66.08h-.06a.28.28,0,0,1,.06-.36,1.64,1.64,0,0,1,.38-.1,7,7,0,0,1,1.05.23Z"/><path class="cls-1" d="M115.32,126.51c-.1.15-.21.28-.34.44-.1-.23-.17-.44-.25-.67a.34.34,0,0,1,0-.28.22.22,0,0,1,.1-.13.5.5,0,0,1,.69.08,1.3,1.3,0,0,1,.1.15s0,0,0,0A1.91,1.91,0,0,1,115.32,126.51Z"/><path class="cls-1" d="M115.62,91.42a5.46,5.46,0,0,1-.69.1c.11-.26.23-.54.36-.79C115.39,91,115.52,91.19,115.62,91.42Z"/><path class="cls-1" d="M114.88,24.75a1.64,1.64,0,0,0-.38.1.3.3,0,0,1,.31-.13A.08.08,0,0,1,114.88,24.75Z"/><path class="cls-1" d="M114.39,124.92a.2.2,0,0,1,.11.23,10,10,0,0,1-2.31,3.9c0-.05-.1-.16,0-.23a11.13,11.13,0,0,1,.51-1.1,8.38,8.38,0,0,0,1.64-2.62A1.62,1.62,0,0,0,114.39,124.92Z"/><path class="cls-1" d="M114.11,125a.22.22,0,0,1,.28-.08,1.62,1.62,0,0,1-.1.18,24.84,24.84,0,0,0-1.64,2.62,17.29,17.29,0,0,1-4.08,3.35,1.07,1.07,0,0,0-.51-.43A18.76,18.76,0,0,0,114.11,125Z"/><path class="cls-1" d="M114.29,125.1a8.38,8.38,0,0,1-1.64,2.62A24.84,24.84,0,0,1,114.29,125.1Z"/><path class="cls-1" d="M112.65,127.72a11.13,11.13,0,0,0-.51,1.1c0,.07,0,.18,0,.23a15.33,15.33,0,0,1-3.08,2.66c-.15-.18-.3-.35-.43-.54,0,0-.05-.07-.11-.1A17.29,17.29,0,0,0,112.65,127.72Z"/><path class="cls-1" d="M103.45,64.07a8.93,8.93,0,0,1-.54-.9,114.24,114.24,0,0,1,8.31-14.53.52.52,0,0,1,.89.54c-3,5.33-5.64,10.81-8.35,16.27a.81.81,0,0,1-.51.41.94.94,0,0,1-1-.41,47.69,47.69,0,0,1-5.31-11.94h0a.56.56,0,0,0,.64-.23,41.42,41.42,0,0,0,4.84,10.87c-.07.12-.12.28-.2.41h.46L103,65c.07-.16.15-.31.23-.46h.54C103.65,64.4,103.55,64.22,103.45,64.07Z"/><path class="cls-1" d="M110.06,108.8a.25.25,0,0,1,.31,0v.2a.26.26,0,0,1-.49.13A.38.38,0,0,1,110.06,108.8Z"/><path class="cls-1" d="M110.37,108.75a.25.25,0,0,0-.31,0c-.61-2.08-2.23-4.13-3.59-5.9l.26-.15.13-.08a13,13,0,0,1,2.07,2.57A7,7,0,0,1,110.37,108.75Z"/><path class="cls-1" d="M110.06,108.8a.38.38,0,0,0-.18.28c-.77-1.18-1.41-2.44-2.2-3.59a22.4,22.4,0,0,1-1.59-2.38c.13-.08.26-.13.38-.21C107.83,104.67,109.45,106.72,110.06,108.8Z"/><path class="cls-1" d="M104,67.48s.05-.08.07-.13a.28.28,0,0,0-.23-.41c5.52-1.82,7.85,5.77,4.85,9.71-2.21,2.85-6.67,3.18-9.9,2.64-1.33-.23-5.76-.71-5.22-2.94v0a5.05,5.05,0,0,0,.51-.28.35.35,0,0,1,.25.18c.41.84,3.64,1.18,4.49,1.33,2.59.46,6.2.51,8.2-1.54a5.46,5.46,0,0,0,1.39-5.56c-.85-2.28-2.59-2.72-4.8-2.38C103.73,67.89,103.86,67.68,104,67.48Z"/><path class="cls-1" d="M108.27,132.23c-.41.25-.82.48-1.26.71h0a.93.93,0,0,1-.57-.69c.75-.36,1.46-.77,2.15-1.18.06,0,.08.08.11.1.13.19.28.36.43.54C108.83,131.89,108.55,132.07,108.27,132.23Z"/><path class="cls-6" d="M108.4,70.45A5.46,5.46,0,0,1,107,76c-2,2-5.61,2-8.2,1.54-.85-.15-4.08-.49-4.49-1.33a.35.35,0,0,0-.25-.18c.61-.36,1.18-.72,1.69-1a24.42,24.42,0,0,0,7.84-6.94C105.81,67.73,107.55,68.17,108.4,70.45Z"/><path class="cls-1" d="M108.06,130.64a1.07,1.07,0,0,1,.51.43c-.69.41-1.4.82-2.15,1.18a1.26,1.26,0,0,1,0-.79C107,131.2,107.55,130.92,108.06,130.64Z"/><path class="cls-1" d="M108.06,130.64c-.51.28-1,.56-1.59.82A1.21,1.21,0,0,1,108.06,130.64Z"/><path class="cls-1" d="M107,101.62a.88.88,0,0,1-.18,1,7,7,0,0,0-.59-.49.15.15,0,0,0-.13-.05l.18-.1c-1.54-3.08-3.07-6.31-4.87-9.36a.88.88,0,0,0-.31-.53c-.61-1-1.25-2.08-2-3,.65.64,1.31,1.25,2,1.84C103.37,94.34,105,98.14,107,101.62Z"/><path class="cls-1" d="M106.47,102.9c-.12.08-.25.13-.38.21a2,2,0,0,1-.28-.57.23.23,0,0,1,0-.2c.1-.08.2-.13.3-.21h0a.15.15,0,0,1,.13.05,7,7,0,0,1,.59.49l-.13.08Z"/><path class="cls-1" d="M106.42,132.25a.93.93,0,0,0,.57.69,21.59,21.59,0,0,1-8.57,2.39c-7.86.31-10.15-6.46-13.12-12.59a.69.69,0,0,0,.31-.13c2.26,3.67,4,9.33,8.12,11.31C96.91,135.3,102,134.35,106.42,132.25Z"/><path class="cls-1" d="M106.47,131.46a1.26,1.26,0,0,0,0,.79c-4.38,2.1-9.51,3.05-12.69,1.67-4.15-2-5.86-7.64-8.12-11.31l.15-.07,0,0c3.43,4.77,5.41,12,12.63,11.23A24.59,24.59,0,0,0,106.47,131.46Z"/><path class="cls-1" d="M106.32,102l-.18.1h0a.33.33,0,0,0-.3.21c-.34.18-.69.38-1,.59a.6.6,0,0,0-.82-.34,2,2,0,0,1-.41.21,6.74,6.74,0,0,1,1.28-.87,4.45,4.45,0,0,0-.75-2.85c-.74-1.48-1.48-3-2.28-4.43-.2-.39-.43-.77-.66-1.15a.75.75,0,0,0,.33-.83C103.25,95.72,104.78,99,106.32,102Z"/><path class="cls-1" d="M106.11,102.13c-.1.08-.2.13-.3.21A.33.33,0,0,1,106.11,102.13Z"/><path class="cls-1" d="M105.81,102.54a2,2,0,0,0,.28.57,15.22,15.22,0,0,1-2.26,1l.8-.64a.4.4,0,0,0,.13-.54c.36-.21.71-.41,1-.59A.23.23,0,0,0,105.81,102.54Z"/><path class="cls-1" d="M103,91.37a5.72,5.72,0,0,0,0,.59l.46-.26h0a3.75,3.75,0,0,0,.33.26c0-.16,0-.31,0-.46l.44-.24a4,4,0,0,1-.41-.33,6.85,6.85,0,0,1-.72-.59c.28-3.3,1.31-6.53,1.79-9.81a.34.34,0,0,1,.34-.26.54.54,0,0,0,.1.18l.39.46c.48,3.72-1.16,7.33-1.08,11a.83.83,0,0,1-1.23.71,26,26,0,0,1-2.21-1.74,24.73,24.73,0,0,0-4.1-5.05.29.29,0,0,0-.46.36c.13.21.26.41.41.62-2.61-2.75-5.07-5.69-7.74-8.28a.3.3,0,0,1-.08-.34,4.83,4.83,0,0,0,.62-.18c5.33,2.85,8.66,8.36,13.25,12.28A6.93,6.93,0,0,0,103,91.37Z"/><path class="cls-1" d="M105.65,80.53a1.59,1.59,0,0,1,.06.38l-.39-.46a.54.54,0,0,1-.1-.18v0A.36.36,0,0,1,105.65,80.53Z"/><path class="cls-5" d="M104.06,99.08a4.45,4.45,0,0,1,.75,2.85,6.74,6.74,0,0,0-1.28.87C93.89,108,80.84,109.54,70,108.67a65.26,65.26,0,0,0-.75-7.54,53.33,53.33,0,0,0,31.84-7.61l0,0c.23.38.46.76.66,1.15C102.58,96.11,103.32,97.6,104.06,99.08Z"/><path class="cls-1" d="M104.76,102.93a.4.4,0,0,1-.13.54l-.8.64h0l-.72.23a.44.44,0,0,1-.49-.21,2.16,2.16,0,0,0,.36-.2c.21-.13.41-.26.64-.39S104.37,103.13,104.76,102.93Z"/><path class="cls-1" d="M103.6,103.54c-.23.13-.43.26-.64.39a2.16,2.16,0,0,1-.36.2.44.44,0,0,1,.05-.54l.88-.79a2,2,0,0,0,.41-.21.6.6,0,0,1,.82.34C104.37,103.13,104,103.34,103.6,103.54Z"/><path class="cls-1" d="M104.22,91.26l-.44.24a3.63,3.63,0,0,1,0-.57A4,4,0,0,0,104.22,91.26Z"/><path class="cls-1" d="M103.48,67.61a4.08,4.08,0,0,1-.31.36.49.49,0,0,1-.23-.39c.2-.15.41-.33.61-.51a0,0,0,0,1,0,0l.13-.05a.1.1,0,0,0,.07,0,.06.06,0,0,0,0,0,.28.28,0,0,1,.23.41c0,.05,0,.08-.07.13A2.25,2.25,0,0,0,103.48,67.61Z"/><path class="cls-1" d="M104,67.48c-.13.2-.26.41-.39.59h-.07a.51.51,0,0,1-.36-.1,4.08,4.08,0,0,0,.31-.36A2.25,2.25,0,0,1,104,67.48Z"/><path class="cls-1" d="M103.83,66.94a.06.06,0,0,1,0,0S103.81,66.94,103.83,66.94Z"/><path class="cls-1" d="M103.78,91.5c0,.15,0,.3,0,.46a3.75,3.75,0,0,1-.33-.26C103.58,91.62,103.68,91.57,103.78,91.5Z"/><path class="cls-1" d="M103.81,90.93a3.63,3.63,0,0,0,0,.57c-.1.07-.2.12-.3.2h0c-.15-.1-.28-.23-.44-.33a6.93,6.93,0,0,1,.08-1A6.85,6.85,0,0,0,103.81,90.93Z"/><path class="cls-1" d="M103.09,104.34l.72-.23c-4.57,3.33-11,4.48-16.33,5.25s-11.87,2.39-17.2.54a.47.47,0,0,0-.43-.64s0,0,0,0c4.65,1.36,12.41-.07,17.36-.69,4.38-.56,11.17-2.07,15.35-4.41A.44.44,0,0,0,103.09,104.34Z"/><path class="cls-1" d="M103.78,67a.1.1,0,0,1-.07,0v0A0,0,0,0,1,103.78,67Z"/><path class="cls-1" d="M103.45,64.07c.1.15.2.33.31.49h-.54C103.3,64.38,103.37,64.22,103.45,64.07Z"/><path class="cls-3" d="M103.71,67v0s-.08,0-.11,0l0,0a0,0,0,0,0,0,0l-.38.15a.37.37,0,0,0-.23.36,83.36,83.36,0,0,1-7.85,6.28c-2.61,1.77-5.4,2.54-8.23,3.72a25.44,25.44,0,0,0-2.61-1.44c.41-1.54.61-3.07,1-4.64s.87-3.07,1.2-4.66a.11.11,0,0,0-.05-.11v0A7.22,7.22,0,0,0,87.53,65c0-.11,0-.21-.13-.16a36.47,36.47,0,0,0-5.3,4.08c-1.59,1.28-3.69,2.33-5,3.92,2.13-8.2,4-18,2.15-26.27l0,0c.54.18,1.07.36,1.61.51,3.21,1,6.41,1.95,9.59,3.1,2.41.85,4.25,2.49,6.48,3.36v0a47.69,47.69,0,0,0,5.31,11.94.94.94,0,0,0,1,.41Z"/><path class="cls-1" d="M103.71,67l-.13.05,0,0S103.68,67,103.71,67Z"/><path class="cls-1" d="M103.53,68.07h.07A24.42,24.42,0,0,1,95.76,75c-.51.31-1.08.67-1.69,1a.41.41,0,0,0-.51.28v0a20.2,20.2,0,0,1-3.72,1.71s-.08,0-.1,0a.36.36,0,0,0-.52.23,5,5,0,0,1-.92.18s-.13-.07-.18-.13-.38-.23-.56-.33c5.25-1,12.22-6.18,15.61-10A.51.51,0,0,0,103.53,68.07Z"/><path class="cls-1" d="M103.55,67.07c-.2.18-.41.36-.61.51a.37.37,0,0,1,.23-.36Z"/><path class="cls-1" d="M102.91,63.17a8.93,8.93,0,0,0,.54.9c-.08.15-.15.31-.23.49h-.54a2.85,2.85,0,0,1-.26-.41C102.58,63.81,102.76,63.5,102.91,63.17Z"/><path class="cls-1" d="M103,91.37c.16.1.29.23.44.33L103,92A5.72,5.72,0,0,1,103,91.37Z"/><path class="cls-1" d="M103.22,64.56c-.08.15-.16.3-.23.46l-.31-.46Z"/><path class="cls-1" d="M102.94,67.58a.49.49,0,0,0,.23.39c-3.39,3.81-10.36,9-15.61,10h0a2.85,2.85,0,0,0-.67-.38c2.83-1.18,5.62-2,8.23-3.72A83.36,83.36,0,0,0,102.94,67.58Z"/><path class="cls-1" d="M103.53,102.8l-.88.79a.44.44,0,0,0-.05.54c-4.18,2.34-11,3.85-15.35,4.41-5,.62-12.71,2-17.36.69A.4.4,0,0,0,70,109v-.28C80.84,109.54,93.89,108,103.53,102.8Z"/><path class="cls-1" d="M97,51.36c-.31-.26-.64-.54-1-.8C95.12,47,94.3,43.38,93.3,39.82c0,0,0,0,0,0a.71.71,0,0,0-.16-1.15s-.12-.08-.18-.1a66,66,0,0,0-2.25-6.85c-.23-.56.74-1,1-.41,4.52,10.44,5.41,22,11.23,31.89-.15.33-.33.64-.49,1a41.42,41.42,0,0,1-4.84-10.87.35.35,0,0,0,.1-.18c0-.13.08-.23.1-.34a.86.86,0,0,0-.23-.89A6.13,6.13,0,0,0,97,51.36Z"/><path class="cls-1" d="M102.42,64.15a2.85,2.85,0,0,0,.26.41h-.46C102.3,64.43,102.35,64.27,102.42,64.15Z"/><path class="cls-1" d="M101.45,92.67a.75.75,0,0,1-.33.83c-.26-.49-.54-1-.82-1.44a.63.63,0,0,1,.84.08A6,6,0,0,1,101.45,92.67Z"/><path class="cls-1" d="M101.45,92.67a6,6,0,0,0-.31-.53A.88.88,0,0,1,101.45,92.67Z"/><path class="cls-1" d="M69.18,100.57c0-.18-.05-.36-.08-.54,10.67,0,22.07-2,31.14-8,0,0,0,0,.06,0,.28.49.56,1,.82,1.44l0,0a53.33,53.33,0,0,1-31.84,7.61C69.23,100.93,69.2,100.75,69.18,100.57Z"/><path class="cls-1" d="M101.14,92.14a.63.63,0,0,0-.84-.08c-1.06-1.74-2.18-3.46-3.26-5.2.67.77,1.38,1.48,2.1,2.17,0,0,0,0,0,.06C99.89,90.06,100.53,91.09,101.14,92.14Z"/><path class="cls-7" d="M100.3,92.06s0,0-.06,0c-9.07,6-20.47,7.9-31.14,8-.15-1.2-.28-2.41-.36-3.61-.28-4.57-.2-8.77-1.64-13.18a.44.44,0,0,0-.41-.31v-.05c3.51.64,7.69,1.82,11.74,2.31a.88.88,0,0,1,0,.15c2.59,5.16,7.31,10.85,13.61,10.59a.66.66,0,0,0,.59-.46c2.08-4.92,1.08-11-2.94-14.61a3.66,3.66,0,0,0-1.44-2.44,5,5,0,0,0,.92-.18.3.3,0,0,0,.08.34C92,81.17,94.43,84.11,97,86.86,98.12,88.6,99.24,90.32,100.3,92.06Z"/><path class="cls-1" d="M99.14,89c-.72-.69-1.43-1.4-2.1-2.17-.15-.21-.28-.41-.41-.62a.29.29,0,0,1,.46-.36,24.73,24.73,0,0,1,4.1,5.05c-.69-.59-1.35-1.2-2-1.84C99.17,89.06,99.17,89,99.14,89Z"/><path class="cls-1" d="M97.55,51.87a.86.86,0,0,1,.23.89c0,.11-.07.21-.1.34a.35.35,0,0,1-.1.18c-.2-.64-.39-1.28-.54-1.92A6.13,6.13,0,0,1,97.55,51.87Z"/><path class="cls-1" d="M96.5,52.12a0,0,0,0,0,0,0c-.13-.51-.28-1-.41-1.54.33.26.66.54,1,.8.15.64.34,1.28.54,1.92a.56.56,0,0,1-.64.23h0v0C96.76,53.05,96.63,52.59,96.5,52.12Z"/><path class="cls-1" d="M96.5,52.12c.13.47.26.93.41,1.36-2.23-.87-4.07-2.51-6.48-3.36C87.25,49,84.05,48,80.84,47c-.54-.15-1.07-.33-1.61-.51a.41.41,0,0,0-.62-.2c-7.56-2.52-14.89-5.9-22.81-7a.44.44,0,0,0-.23-.31,2.07,2.07,0,0,0,.1-.33c7.07.31,13.87,3.79,20.38,5.84C79.94,46,93.43,49.38,96.48,52.1A0,0,0,0,1,96.5,52.12Z"/><path class="cls-1" d="M96.07,50.56c.13.51.28,1,.41,1.54-3-2.72-16.54-6.13-20.43-7.54C69.54,42.51,62.74,39,55.67,38.72a3.8,3.8,0,0,0,.18-.54c8.84.28,17.1,4.59,25.45,7.1C85.66,46.56,92.07,47.64,96.07,50.56Z"/><path class="cls-2" d="M93.3,39.82c1,3.56,1.82,7.18,2.77,10.74-4-2.92-10.41-4-14.77-5.28-8.35-2.51-16.61-6.82-25.45-7.1a42.68,42.68,0,0,1,2.13-6c1-2,2.12-3.82,2.92-5.85,2.79,1.77,6,2.8,9.1,4C77.64,33.21,85.2,36,92.38,40A.72.72,0,0,0,93.3,39.82Z"/><path class="cls-1" d="M93.56,76.32a.41.41,0,0,1,.51-.28A5.05,5.05,0,0,1,93.56,76.32Z"/><path class="cls-1" d="M93.14,38.64a.71.71,0,0,1,.16,1.15c-.11-.41-.21-.84-.34-1.25C93,38.56,93.09,38.62,93.14,38.64Z"/><path class="cls-1" d="M61,26c0-.08,0-.13.07-.2s0,0,0-.06h0c3.92.67,7.71,2.46,11.43,3.87,7,2.64,13.84,5.21,20.4,8.9.13.41.23.84.34,1.25,0,0,0,0,0,0a.72.72,0,0,1-.92.15C85.2,36,77.64,33.21,70,30.28c-3.08-1.17-6.31-2.2-9.1-4A.56.56,0,0,0,61,26Z"/><path class="cls-1" d="M89.74,80.86c4,3.59,5,9.69,2.94,14.61a.66.66,0,0,1-.59.46c-6.3.26-11-5.43-13.61-10.59a.88.88,0,0,0,0-.15,2.49,2.49,0,0,0,.46,0c2.69,4.59,7.41,10.64,13.2,10.08,2.23-4.8.85-9.85-2.3-13.9A5.29,5.29,0,0,0,89.74,80.86Z"/><path class="cls-1" d="M89.79,81.42c3.15,4,4.53,9.1,2.3,13.9-5.79.56-10.51-5.49-13.2-10.08a3.25,3.25,0,0,0,.51.05c2.54,3.64,5.8,8.61,10.54,9.33,1.87.28,2.21-.46,2.46-2.23a11.08,11.08,0,0,0-.28-5.12,27.4,27.4,0,0,0-2.41-5.1A3.82,3.82,0,0,0,89.79,81.42Z"/><path class="cls-4" d="M92.12,87.27a11.08,11.08,0,0,1,.28,5.12c-.25,1.77-.59,2.51-2.46,2.23-4.74-.72-8-5.69-10.54-9.33,3.24.31,6.31.11,8.87-1.25a2.88,2.88,0,0,0,1.44-1.87A27.4,27.4,0,0,1,92.12,87.27Z"/><path class="cls-1" d="M89.74,78s.07,0,.1,0a4.83,4.83,0,0,1-.62.18A.36.36,0,0,1,89.74,78Z"/><path class="cls-1" d="M89.79,81.42a3.82,3.82,0,0,1-.08.75c-.21-.44-.46-.88-.67-1.31a1.27,1.27,0,0,0-.13-.46v0a.2.2,0,0,1,.29,0c.18.16.36.31.54.49A5.29,5.29,0,0,1,89.79,81.42Z"/><path class="cls-1" d="M89.74,80.86c-.18-.18-.36-.33-.54-.49a.2.2,0,0,0-.29,0,2.22,2.22,0,0,0-.1-.36A4.18,4.18,0,0,0,87,78.47a4.26,4.26,0,0,0,1.28,0A3.66,3.66,0,0,1,89.74,80.86Z"/><path class="cls-1" d="M89,80.86c.21.43.46.87.67,1.31A2.88,2.88,0,0,1,88.27,84c-2.56,1.36-5.63,1.56-8.87,1.25a2.13,2.13,0,0,0-.23-.33.4.4,0,0,0-.74.23c-4.05-.49-8.23-1.67-11.74-2.31a9.2,9.2,0,0,0-.92-.15,2.09,2.09,0,0,0,.21-.64C70,82.55,90.22,87.65,89,80.86Z"/><path class="cls-1" d="M89,80.86C90.22,87.65,70,82.55,66,82.09a3,3,0,0,0,.2-.67c5.23-.2,10.74,2.16,16,2.18a12.4,12.4,0,0,0,4.59-.46c3.79-1.51-.31-4.28-2.31-5.2-6.1-2.72-11.92-5-18.61-5.49a3.68,3.68,0,0,0-.18-.59,35.45,35.45,0,0,1,10.2,1.82v.23a.45.45,0,0,0,.88.13s0-.05,0-.08a53.93,53.93,0,0,1,5.59,2.28c.66.34,2.25,1,3.66,1.7a.23.23,0,0,0,.08.41,3.76,3.76,0,0,0,.9.12A4.18,4.18,0,0,1,88.81,80a2.22,2.22,0,0,1,.1.36v0a.13.13,0,0,0,0,.2Z"/><path class="cls-1" d="M89,80.86l-.15-.26a.13.13,0,0,1,0-.2A1.27,1.27,0,0,1,89,80.86Z"/><path class="cls-1" d="M88.3,78.42a4.26,4.26,0,0,1-1.28,0l-.62-.38A5.6,5.6,0,0,0,87.53,78h0c.18.1.38.21.56.33S88.25,78.37,88.3,78.42Z"/><path class="cls-1" d="M77.23,73.27,77,73.19a2,2,0,0,1,.1-.38c1.31-1.59,3.41-2.64,5-3.92a36.47,36.47,0,0,1,5.3-4.08c.08,0,.18,0,.13.16a7.22,7.22,0,0,1-1.18,1.74.17.17,0,0,0-.31-.08,5.5,5.5,0,0,0-.94,1.44c-.88.77-1.8,1.48-2.7,2.18a21.69,21.69,0,0,1-4.61,3.23A2.13,2.13,0,0,0,77.23,73.27Z"/><path class="cls-1" d="M86.86,77.58a2.85,2.85,0,0,1,.67.38,5.6,5.6,0,0,1-1.13.13s0,0,0,0l-.31-.15v0C86.33,77.78,86.61,77.68,86.86,77.58Z"/><path class="cls-1" d="M86.74,10.45a.43.43,0,0,0,.18-.54.93.93,0,0,1,.23,0c.43.08.38.62.1.82a15.38,15.38,0,0,1-1.67.85,13,13,0,0,0-1.69,1.2c-.59.52-1.13,1.08-1.66,1.64a8.11,8.11,0,0,0-.85.21c1.26-1.51,3.38-3.54,5.18-4.15A.32.32,0,0,1,86.74,10.45Z"/><path class="cls-6" d="M84.48,77.94c2,.92,6.1,3.69,2.31,5.2a12.4,12.4,0,0,1-4.59.46c-5.28,0-10.79-2.38-16-2.18a16.67,16.67,0,0,0-.31-9C72.56,72.94,78.38,75.22,84.48,77.94Z"/><path class="cls-1" d="M86.92,9.91a.43.43,0,0,1-.18.54.32.32,0,0,0-.18.05l-1.7.18A4.15,4.15,0,0,1,86.4,10,1.84,1.84,0,0,1,86.92,9.91Z"/><path class="cls-1" d="M86.92,9.91a1.84,1.84,0,0,0-.52.05c-8.87,0-15.07,1.61-21.27,7.87a.27.27,0,0,0-.1-.11,1,1,0,0,0-.23-.12A24.49,24.49,0,0,1,86.4,9.39.63.63,0,0,1,86.92,9.91Z"/><path class="cls-1" d="M86.86,77.58c-.25.1-.53.2-.79.33v0h0c-1.41-.75-3-1.36-3.66-1.7A53.93,53.93,0,0,0,76.79,74a3.06,3.06,0,0,1,.1-.38.55.55,0,0,0,.39.1,3.39,3.39,0,0,0,.51-.2,37.7,37.7,0,0,1,5.74,2.33v.41c0,.38.59.49.67.1a1.21,1.21,0,0,1,0-.18A25.44,25.44,0,0,1,86.86,77.58Z"/><path class="cls-1" d="M86.38,78.09s0,0,0,0l.62.38a3.76,3.76,0,0,1-.9-.12.23.23,0,0,1-.08-.41h0Z"/><path class="cls-1" d="M86.35,66.73a.11.11,0,0,1,.05.11c-.33,1.59-.89,3.1-1.2,4.66s-.54,3.1-1,4.64a.81.81,0,0,0-.33-.15c.38-2.95.79-6.26,2.12-8.87a.07.07,0,0,1,0-.05A1.54,1.54,0,0,0,86.35,66.73Z"/><path class="cls-1" d="M86.07,67.07a.07.07,0,0,0,0,.05l-.94.95A5.5,5.5,0,0,1,86,66.63a.17.17,0,0,1,.31.08v0A1.54,1.54,0,0,1,86.07,67.07Z"/><path class="cls-1" d="M82.58,121.9a.43.43,0,0,0-.43.35c0,.11-.05.21-.08.31-1-.13-2.1-.2-3.13-.41-.41-.05-.41-.74,0-.82a19.8,19.8,0,0,1,3.85-.18c1,.08,2.31-.05,3.08.72a.42.42,0,0,1-.08.64,3.14,3.14,0,0,0-.23-.33h0a2.7,2.7,0,0,0-.26-.36c-.12-.18-.38.05-.3.23s0,0,0,.08c-.71-.08-1.46-.16-2.23-.21A.47.47,0,0,0,82.58,121.9Z"/><path class="cls-1" d="M85.79,122.51l0,0-.15.07a2.19,2.19,0,0,1-.31-.46c.08,0,.15,0,.23,0h0A3.14,3.14,0,0,1,85.79,122.51Z"/><path class="cls-1" d="M85.3,122.15a2.19,2.19,0,0,0,.31.46.69.69,0,0,1-.31.13c-.1-.2-.2-.41-.31-.61a1.14,1.14,0,0,1,.28,0Z"/><path class="cls-1" d="M85.27,122.15a1.14,1.14,0,0,0-.28,0s0,0,0-.08.18-.41.3-.23a2.7,2.7,0,0,1,.26.36c-.08,0-.15,0-.23,0Z"/><path class="cls-1" d="M85,122.13c.11.2.21.41.31.61a4.64,4.64,0,0,1-2.13,0c0-.15,0-.33-.07-.49a.43.43,0,0,0-.34-.33C83.53,122,84.28,122.05,85,122.13Z"/><path class="cls-1" d="M85.1,68.07l.94-.95C84.71,69.73,84.3,73,83.92,76a.86.86,0,0,0-.39-.18C83.58,73.35,83.84,70.35,85.1,68.07Z"/><path class="cls-1" d="M84.86,10.68l1.7-.18c-1.8.61-3.92,2.64-5.18,4.15a3.53,3.53,0,0,0-.54.13.13.13,0,0,0-.1.07,11.44,11.44,0,0,1,3-3.28C84.07,11.29,84.46,11,84.86,10.68Z"/><path class="cls-1" d="M86.4,10a4.15,4.15,0,0,0-1.54.72,45.75,45.75,0,0,0-9,1.38c-4.13,1.28-7.3,3.49-10.61,6.18a.37.37,0,0,0-.1-.41C71.33,11.57,77.53,10,86.4,10Z"/><path class="cls-1" d="M83.92,76a.81.81,0,0,1,.33.15,1.21,1.21,0,0,0,0,.18c-.08.39-.67.28-.67-.1v-.41A.86.86,0,0,1,83.92,76Z"/><path class="cls-6" d="M85.1,68.07c-1.26,2.28-1.52,5.28-1.57,7.74a37.7,37.7,0,0,0-5.74-2.33,21.69,21.69,0,0,0,4.61-3.23C83.3,69.55,84.22,68.84,85.1,68.07Z"/><path class="cls-1" d="M83.17,122.74c.49,3.77-2.35,8-5,10.36s-6.66,2.38-10.12,1.82a.57.57,0,0,0-.49-.67c-.28,0-.59-.05-.84-.1,3.41.07,7.58.66,10.3-1.28,2.64-1.62,5.72-6.85,5.67-10.23C82.81,122.67,83,122.69,83.17,122.74Z"/><path class="cls-1" d="M82.64,122.64h-.06l-.51-.08c0-.1.05-.2.08-.31a.43.43,0,0,1,.43-.35.47.47,0,0,1,.18,0,.43.43,0,0,1,.34.33c0,.16.05.34.07.49C83,122.69,82.81,122.67,82.64,122.64Z"/><path class="cls-1" d="M82.64,122.64c0,3.38-3,8.61-5.67,10.23-2.72,1.94-6.89,1.35-10.3,1.28,0,0-.11,0-.13,0-.33-.08-.64-.16-1-.26a.17.17,0,0,1,.15-.1c3.82-.82,8.62.69,11.72-2.38a17.43,17.43,0,0,0,4.61-8.85l.51.08Z"/><path class="cls-1" d="M81.38,14.65a8.11,8.11,0,0,1,.85-.21c-.18.21-.39.39-.57.57,0,0,0,0,0,0a5.53,5.53,0,0,0-.7.18Z"/><path class="cls-1" d="M81.64,15c-.16.15-.29.31-.44.43a.36.36,0,0,1-.56-.43.59.59,0,0,1,.1-.16.13.13,0,0,1,.1-.07,3.53,3.53,0,0,1,.54-.13l-.44.54A5.53,5.53,0,0,1,81.64,15Z"/><path class="cls-1" d="M76.43,73l-.56-.15c0-8.79,3.41-17.25,2.56-26.2a.34.34,0,0,1,.18-.35c.21.07.41.12.62.2l0,0c1.87,8.25,0,18.07-2.15,26.27a1.73,1.73,0,0,0-.26.28s0,0,0,0S76.56,73.07,76.43,73Z"/><path class="cls-1" d="M78.89,85.24a2.49,2.49,0,0,1-.46,0,.4.4,0,0,1,.74-.23,2.13,2.13,0,0,1,.23.33A3.25,3.25,0,0,1,78.89,85.24Z"/><path class="cls-1" d="M79.23,46.51c-.21-.08-.41-.13-.62-.2A.41.41,0,0,1,79.23,46.51Z"/><path class="cls-6" d="M78.43,46.66c.85,9-2.56,17.41-2.56,26.2a39.08,39.08,0,0,0-10.46-1.59.31.31,0,0,0-.41,0c-3.9-3-10.2-5-15.82-5.52a.32.32,0,0,0-.1-.2c-2.18-2.74-6.95-4.56-4.79-9,1.38-2.9,5.1-3.95,7.74-5.23,0,0,0-.05,0-.05a.4.4,0,0,0,.18-.46,54.3,54.3,0,0,1,3.51-11.08.56.56,0,0,0,0-.33c7.92,1,15.25,4.43,22.81,7A.34.34,0,0,0,78.43,46.66ZM67.49,56.79c1.23-2.15,2.59-5.23,1.43-7.67-1-2.23-3.33.49-4,1.49-1.54,2.18-2.92,5.44-2.3,8.15a.51.51,0,0,0,.74.34,1.3,1.3,0,0,0,1.64.43C66.13,59.17,66.92,57.81,67.49,56.79Z"/><path class="cls-1" d="M77.23,73.27a2.13,2.13,0,0,1,.56.21,3.39,3.39,0,0,1-.51.2.55.55,0,0,1-.39-.1v0a2.36,2.36,0,0,1,.11-.36Z"/><path class="cls-1" d="M77.1,72.81a2,2,0,0,0-.1.38.7.7,0,0,0-.18,0s0,0,0,0A1.73,1.73,0,0,1,77.1,72.81Z"/><path class="cls-1" d="M77,73.19a2.36,2.36,0,0,0-.11.36.33.33,0,0,1-.07-.41A.7.7,0,0,1,77,73.19Z"/><path class="cls-1" d="M76.89,73.55v0a3.06,3.06,0,0,0-.1.38l-.46-.15c0-.26.08-.51.1-.8.13.06.26.08.39.13A.33.33,0,0,0,76.89,73.55Z"/><path class="cls-1" d="M76.33,73.81l.46.15s0,.05,0,.08a.45.45,0,0,1-.88-.13v-.23A2.54,2.54,0,0,1,76.33,73.81Z"/><path class="cls-1" d="M76.43,73c0,.29-.07.54-.1.8a2.54,2.54,0,0,0-.44-.13c0-.28,0-.56,0-.82Z"/><path class="cls-1" d="M75.87,72.86c0,.26,0,.54,0,.82a35.45,35.45,0,0,0-10.2-1.82c0-.15-.1-.31-.15-.44s-.05-.12-.13-.15A39.08,39.08,0,0,1,75.87,72.86Z"/><path class="cls-1" d="M69.85,109.26a.47.47,0,0,1,.43.64,3.74,3.74,0,0,1-.8-.26.37.37,0,0,1-.23-.2,2.6,2.6,0,0,1,.36-.13h0a.18.18,0,0,0,.13,0A.11.11,0,0,1,69.85,109.26Z"/><path class="cls-1" d="M61.59,132.61a3.93,3.93,0,0,0-1,.23h0a4.8,4.8,0,0,1-.51-.59c-.8-1-1.72-2.13-2.57-3.36a5.37,5.37,0,0,0,.41-.51c.16-.2-.12-.43-.33-.33a5,5,0,0,0-.49.28,15.15,15.15,0,0,1-2.2-4.49c-.77-3.1.95-5,3-6.92a5.18,5.18,0,0,0,2.67-1.51.5.5,0,0,0,0-.74,25.84,25.84,0,0,1,8.71-5.23.37.37,0,0,0,.23.2,3.74,3.74,0,0,0,.8.26.46.46,0,0,1-.31.38c-4.64,1.93-16.56,9-12.38,15.33,2.21,3.34,4.18,7.08,8,8.28a.36.36,0,0,0,.15.57c.49.12,1,.23,1.52.33a6.53,6.53,0,0,1-4.34-1.1.6.6,0,0,0-.28-1A2.14,2.14,0,0,0,61.59,132.61Z"/><path class="cls-1" d="M69.89,109.23s0,0,0,0a.11.11,0,0,0-.08,0,.06.06,0,0,0-.08,0s0,0,0,0h0a.35.35,0,0,1-.38-.36.27.27,0,0,0,0-.15.47.47,0,0,1,.41-.16c.13,0,.26,0,.39,0V109A.4.4,0,0,1,69.89,109.23Z"/><path class="cls-1" d="M70,108.67c-.13,0-.26,0-.39,0a33,33,0,0,0-.51-4.79.56.56,0,0,0-.13-.79q-.19-1.08-.36-2.16a.71.71,0,0,0,.39.21l.25,0A65.26,65.26,0,0,1,70,108.67Z"/><path class="cls-1" d="M69.77,109.28a.18.18,0,0,1-.13,0s0,0,0,0A.06.06,0,0,1,69.77,109.28Z"/><path class="cls-1" d="M69.61,108.64a.47.47,0,0,0-.41.16,37.91,37.91,0,0,0-.64-4.49A1.49,1.49,0,0,0,69,104a.39.39,0,0,0,.08-.1A33,33,0,0,1,69.61,108.64Z"/><path class="cls-1" d="M69.61,109.31a2.6,2.6,0,0,0-.36.13.6.6,0,0,1,0-.64.27.27,0,0,1,0,.15A.35.35,0,0,0,69.61,109.31Z"/><path class="cls-1" d="M69.18,100.57c0,.18,0,.36.07.56l-.25,0a.71.71,0,0,1-.39-.21h0c0-.18,0-.38-.08-.59A.55.55,0,0,1,69,100h.1C69.13,100.21,69.15,100.39,69.18,100.57Z"/><path class="cls-1" d="M69,103.06a.56.56,0,0,1,.13.79C69.05,103.57,69,103.31,69,103.06Z"/><path class="cls-8" d="M69.2,108.8a.6.6,0,0,0,0,.64,25.84,25.84,0,0,0-8.71,5.23.53.53,0,0,0-.51-.16,15.15,15.15,0,0,1-18.87-14.38c-.33-11,10.48-15.81,19.35-11.56-2.25,1.29-4.3,3.41-4.4,6.13-.16,4.77,7.58,13.38,12.45,9.61A37.91,37.91,0,0,1,69.2,108.8Z"/><path class="cls-1" d="M68.92,49.12c1.16,2.44-.2,5.52-1.43,7.67-.57,1-1.36,2.38-2.54,2.74a1.3,1.3,0,0,1-1.64-.43.54.54,0,0,0,.38-.52c1.92,2,5.51-5.69,5.31-7.74-.82-6.59-6.69,3.41-5.92,7.54v0a.43.43,0,0,0,.05.21.79.79,0,0,0,.18.49.51.51,0,0,1-.74-.34c-.62-2.71.76-6,2.3-8.15C65.59,49.61,67.87,46.89,68.92,49.12Z"/><path class="cls-1" d="M68.44,103.57a4.48,4.48,0,0,1-.11-.62.58.58,0,0,1,.64.11c0,.25.08.51.13.79a.39.39,0,0,1-.08.1,1.49,1.49,0,0,1-.46.36C68.51,104.06,68.49,103.8,68.44,103.57Z"/><path class="cls-1" d="M68.51,100.31a.63.63,0,0,0,.08.59h0q.17,1.08.36,2.16a.58.58,0,0,0-.64-.11,40.21,40.21,0,0,1-.82-6.53c-.05-2.23-.1-4.41-.28-6.59a42.35,42.35,0,0,0-1-6.36.43.43,0,0,1,.43-.54.44.44,0,0,1,.41.31c1.44,4.41,1.36,8.61,1.64,13.18.08,1.2.21,2.41.36,3.61H69A.55.55,0,0,0,68.51,100.31Z"/><path class="cls-1" d="M69,50.84c.2,2-3.39,9.69-5.31,7.74v0s0-.05,0-.1-.08-.34-.11-.52h.11a1.41,1.41,0,0,0,1.61-.33A10.51,10.51,0,0,0,67.1,55.1c.85-1.52,2.26-4.05,1.05-5.74-1-1.47-3,2.64-3.3,3.28a11.25,11.25,0,0,0-1.29,5.3.48.48,0,0,0-.48.44C62.31,54.25,68.18,44.25,69,50.84Z"/><path class="cls-1" d="M68.51,100.31c0,.21,0,.41.08.59A.63.63,0,0,1,68.51,100.31Z"/><path class="cls-1" d="M68.44,103.57c0,.23.07.49.12.74C63.69,108.08,56,99.47,56.11,94.7c.1-2.72,2.15-4.84,4.4-6.13a3.42,3.42,0,0,1,.64.31s0,0,.06,0c-2.39,1.23-4.49,3.71-4.39,5.79C57,99,63.82,106.9,68.44,103.57Z"/><path class="cls-1" d="M62,88.52a.48.48,0,0,0-.2-.54c1.92-.69,5-.64,5.36,1.82v0c0,.18-.18.38-.36.26-1-.82-1.92-1.75-3.41-1.36a7.51,7.51,0,0,0-3.18,1.61C58.52,91.75,57,93.6,57.8,95.9c1.38,4.13,5.74,9.21,10.46,7,0,0,0,0,.07,0a4.48,4.48,0,0,0,.11.62C63.82,106.9,57,99,56.82,94.7c-.1-2.08,2-4.56,4.39-5.79a.54.54,0,0,0,.74-.36Z"/><path class="cls-1" d="M68.15,49.36c1.21,1.69-.2,4.22-1.05,5.74a10.51,10.51,0,0,1-1.82,2.51,1.41,1.41,0,0,1-1.61.33h-.11a11.25,11.25,0,0,1,1.29-5.3C65.13,52,67.13,47.89,68.15,49.36Z"/><path class="cls-8" d="M68.33,103s0,0-.07,0c-4.72,2.16-9.08-2.92-10.46-7-.8-2.3.72-4.15,2.38-5.56a7.51,7.51,0,0,1,3.18-1.61c1.49-.39,2.36.54,3.41,1.36.18.12.36-.08.36-.26h.1c.18,2.18.23,4.36.28,6.59A40.21,40.21,0,0,0,68.33,103Z"/><path class="cls-1" d="M67.26,134.79c-.52-.1-1-.21-1.52-.33a.36.36,0,0,1-.15-.57c.31.1.62.18,1,.26,0,0,.08,0,.13,0,.25,0,.56.07.84.1a.57.57,0,0,1,.49.67Z"/><path class="cls-1" d="M67.26,134.79l.74.13c0,.15-.1.28-.34.33a7.46,7.46,0,0,1-5.5-1.05,7.29,7.29,0,0,0,.74-.49v0h0A6.53,6.53,0,0,0,67.26,134.79Z"/><path class="cls-1" d="M65.87,72.45a16.67,16.67,0,0,1,.31,9,5,5,0,0,0-.67,0,.41.41,0,0,0-.18,0c.88-2.87.51-6.23,0-9.08A2.74,2.74,0,0,1,65.87,72.45Z"/><path class="cls-1" d="M66,82.09a2.09,2.09,0,0,1-.21.64l-.41-.08a.46.46,0,0,1-.36-.23c.13-.31.23-.61.33-.92a.41.41,0,0,1,.18,0,5,5,0,0,1,.67,0A3,3,0,0,1,66,82.09Z"/><path class="cls-1" d="M65.69,71.86a3.68,3.68,0,0,1,.18.59,2.74,2.74,0,0,0-.51,0c0-.1,0-.2,0-.3a.34.34,0,0,0,.13-.28A1.1,1.1,0,0,1,65.69,71.86Z"/><path class="cls-1" d="M65,82.42a.46.46,0,0,0,.36.23l.41.08a.61.61,0,0,1,0,.18.84.84,0,0,1-1.62,0,1,1,0,0,0,.18-.18.46.46,0,0,0,0-.64v0c1.28-3.2.69-6.35.62-9.64a.15.15,0,0,0,.1,0,.92.92,0,0,0,.25.05.41.41,0,0,1,.16,0c.48,2.85.85,6.21,0,9.08A.65.65,0,0,0,65,82.42Z"/><path class="cls-1" d="M65.69,71.86a1.1,1.1,0,0,0-.25,0,.32.32,0,0,0-.16-.39c-.08,0-.13-.1-.2-.15s.07,0,.12,0h.21c.08,0,.1.08.13.15S65.64,71.71,65.69,71.86Z"/><path class="cls-1" d="M64.85,71.81v-.28a.44.44,0,0,1,0-.16.3.3,0,0,1,.21-.07c.07,0,.12.1.2.15a.32.32,0,0,1,.16.39h-.18c0,.07,0,.17,0,.28a.52.52,0,0,1-.36.23s-.08,0-.1-.08Z"/><path class="cls-1" d="M65.26,71.84h.18a.34.34,0,0,1-.13.28C65.28,72,65.28,71.91,65.26,71.84Z"/><path class="cls-1" d="M65.41,71.27H65.2s-.1,0-.12,0,0,0-.08,0A.31.31,0,0,1,65.41,71.27Z"/><path class="cls-1" d="M65.31,72.12c0,.1,0,.2,0,.3a.41.41,0,0,0-.16,0,.92.92,0,0,1-.25-.05A.52.52,0,0,0,65.31,72.12Z"/><path class="cls-1" d="M65.33,81.5c-.1.31-.2.61-.33.92A.65.65,0,0,1,65.33,81.5Z"/><path class="cls-1" d="M65.13,17.83a.37.37,0,0,1,.1.41l-.18.15a.36.36,0,0,1-.59-.38,1.31,1.31,0,0,1,.34.13A2.34,2.34,0,0,1,65.13,17.83Z"/><path class="cls-1" d="M65.05,18.39l.18-.15a.46.46,0,0,1-.56.33c-3-.61-5.9-1.59-8.82-2.46a16.7,16.7,0,0,1-3.51-1.28c-.13-.34-.26-.69-.36-1.05a49.47,49.47,0,0,0,5.48,1.89c2.31.85,4.75,1.36,7,2.34A.36.36,0,0,0,65.05,18.39Z"/><path class="cls-1" d="M65.13,17.83a2.34,2.34,0,0,0-.33.31,1.31,1.31,0,0,0-.34-.13.2.2,0,0,1,.08-.13,1.16,1.16,0,0,1,.26-.28,1,1,0,0,1,.23.12A.27.27,0,0,1,65.13,17.83Z"/><path class="cls-1" d="M65,71.25s0,0,.08,0a.3.3,0,0,0-.21.07C64.9,71.3,65,71.25,65,71.25Z"/><path class="cls-1" d="M65,71.25s-.1,0-.13.12a.52.52,0,0,0-.23.36,55.43,55.43,0,0,0-16.22-5.15s.15,0,.23,0a.58.58,0,0,0,.53-.82C54.8,66.25,61.1,68.25,65,71.25Z"/><path class="cls-1" d="M65,72.35a.15.15,0,0,1-.1,0v-.1S64.92,72.32,65,72.35Z"/><path class="cls-1" d="M64.87,71.37a.44.44,0,0,0,0,.16v.28l-.21-.08A.52.52,0,0,1,64.87,71.37Z"/><path class="cls-4" d="M64.85,72.37c.07,3.29.66,6.44-.62,9.64a.44.44,0,0,0-.28-.08c-3.67.16-7.31,1.49-11.13,1.62-3.17.1-6.43-.21-9.61.15.23-2.82.44-5.64.69-8.46.23-2.33,1-5.45.31-7.84a.76.76,0,0,0,.28-.54,85.94,85.94,0,0,1,9.15,1.64c3.8,1,7.31,3.1,11.1,3.87Z"/><path class="cls-1" d="M64.85,72.27v.1h-.11c-3.79-.77-7.3-2.87-11.1-3.87a85.94,85.94,0,0,0-9.15-1.64.53.53,0,0,0-.1-.33,1.64,1.64,0,0,0-.23-.28c1.18,0,2.36.1,3.54.23,0,0,0,0,0,0a2.57,2.57,0,0,0,.62.08h.05a55.43,55.43,0,0,1,16.22,5.15A.7.7,0,0,0,64.85,72.27Z"/><path class="cls-1" d="M64.85,71.81v.46a.7.7,0,0,1-.21-.54Z"/><path class="cls-1" d="M64.8,17.6a1.16,1.16,0,0,0-.26.28.2.2,0,0,0-.08.13c-2.25-1-4.69-1.49-7-2.34A49.47,49.47,0,0,1,52,13.78c-.08-.23-.16-.46-.23-.72a32.52,32.52,0,0,1,5.94,1.72C60.08,15.67,62.64,16.24,64.8,17.6Z"/><path class="cls-1" d="M64.23,82a.46.46,0,0,1,0,.64,1,1,0,0,1-.18.18.86.86,0,0,1,.06-.62C64.18,82.17,64.21,82.11,64.23,82Z"/><path class="cls-1" d="M43.19,84.22a4.52,4.52,0,0,0,0-.52c3.18-.36,6.44,0,9.61-.15,3.82-.13,7.46-1.46,11.13-1.62a.44.44,0,0,1,.28.08v0c0,.07,0,.13-.07.2a.86.86,0,0,0-.06.62c-2.28,2.25-7,2.18-10,2.25a59.9,59.9,0,0,1-11-.38A4.4,4.4,0,0,0,43.19,84.22Z"/><path class="cls-1" d="M63.69,58.56v0a.54.54,0,0,1-.38.52.79.79,0,0,1-.18-.49l.41-.21A.78.78,0,0,0,63.69,58.56Z"/><path class="cls-1" d="M63.67,58.46s0,.07,0,.1a.78.78,0,0,1-.15-.16l-.41.21a.43.43,0,0,1-.05-.21v0a.48.48,0,0,1,.48-.44C63.59,58.12,63.64,58.28,63.67,58.46Z"/><path class="cls-1" d="M62.39,133.3a5.73,5.73,0,0,1-.8-.69,2.14,2.14,0,0,1,1,.1.6.6,0,0,1,.28,1h0C62.72,133.56,62.54,133.43,62.39,133.3Z"/><path class="cls-1" d="M62.9,133.69v0a7.29,7.29,0,0,1-.74.49,4.81,4.81,0,0,1-.88-.64,5,5,0,0,1,1.11-.26C62.54,133.43,62.72,133.56,62.9,133.69Z"/><path class="cls-1" d="M61.18,88.24a.54.54,0,0,1,.18-.1,2.5,2.5,0,0,1,.41-.16.48.48,0,0,1,.2.54l0,0a3.38,3.38,0,0,0-.74.36s0,0-.06,0a3.42,3.42,0,0,0-.64-.31A7,7,0,0,1,61.18,88.24Z"/><path class="cls-1" d="M61.59,132.61a5.73,5.73,0,0,0,.8.69,5,5,0,0,0-1.11.26,4.83,4.83,0,0,1-.71-.72A3.93,3.93,0,0,1,61.59,132.61Z"/><path class="cls-1" d="M61.72,87.91s.05,0,.05.07a2.5,2.5,0,0,0-.41.16.54.54,0,0,0-.18.1c-9.59-6-20.5.26-20.92,11.89-.23,6.51,3.57,12,9.64,14.49,2.85,1,7.21,2.41,10,.61-.26.23-.52.44-.77.67l-1.18,1c-4,1-9.41-1.66-12.3-3.66C40.83,110,39,104.18,39.47,98.65A14.22,14.22,0,0,1,61.72,87.91Z"/><path class="cls-1" d="M62,88.55a.54.54,0,0,1-.74.36A3.38,3.38,0,0,1,62,88.55Z"/><path class="cls-1" d="M61.28,133.56a4.81,4.81,0,0,0,.88.64c-1.11.59-2.49.9-3.59,1.59-1.87,1.15-3.67,2.43-5.57,3.51-1,.59-4.17,2.49-5.64,1.59a.45.45,0,0,0,.18-.1q.2-.16.39-.36C51.44,140.58,57.34,134.94,61.28,133.56Z"/><path class="cls-1" d="M61.18,88.24a7,7,0,0,0-.67.33c-8.87-4.25-19.68.59-19.35,11.56A15.15,15.15,0,0,0,60,114.51a.53.53,0,0,1,.51.16l-.69.56c-2.74,1.8-7.1.39-10-.61-6.07-2.52-9.87-8-9.64-14.49C40.68,88.5,51.59,82.22,61.18,88.24Z"/><path class="cls-1" d="M60.44,25.93a2.37,2.37,0,0,0-.41-.49v0a0,0,0,0,0,0,0c.36-.49,1.26-.23,1.08.38h0a.53.53,0,0,0-.18-.05c-.28,0-.46.34-.2.49l.18.1c-.8,2-2,3.87-2.92,5.85a42.68,42.68,0,0,0-2.13,6,7.13,7.13,0,0,0-.8,0c.57-4.38,3.21-8,5.23-11.92a1.57,1.57,0,0,0,.29.16c.07,0,.18-.05.1-.13S60.51,26,60.44,25.93Z"/><path class="cls-1" d="M61,26a.56.56,0,0,1-.1.28l-.18-.1c-.26-.15-.08-.51.2-.49a.53.53,0,0,1,.18.05s0,0,0,.06-.05.12-.07.2Z"/><path class="cls-1" d="M60.34,26.08a.65.65,0,0,0,.1-.15c.07.1.15.2.23.33s0,.15-.1.13a1.57,1.57,0,0,1-.29-.16v0C60.31,26.16,60.34,26.13,60.34,26.08Z"/><path class="cls-1" d="M59.85,115.23l.69-.56a.5.5,0,0,1,0,.74,5.18,5.18,0,0,1-2.67,1.51l1.18-1C59.33,115.67,59.59,115.46,59.85,115.23Z"/><path class="cls-1" d="M60.57,132.84a4.83,4.83,0,0,0,.71.72c-3.94,1.38-9.84,7-13.35,6.87a7,7,0,0,0,.82-.9,5.59,5.59,0,0,0,1.77-.49,48.59,48.59,0,0,0,4.84-3c1.16-.74,3.28-2.54,5.18-3.23Z"/><path class="cls-4" d="M60,132.25a4.8,4.8,0,0,0,.51.59c-1.9.69-4,2.49-5.18,3.23a48.59,48.59,0,0,1-4.84,3,5.59,5.59,0,0,1-1.77.49c1.36-1.56,2.41-3.56,3.69-5.1,1.59-1.92,3.46-3.59,5-5.54C58.31,130.12,59.23,131.28,60,132.25Z"/><path class="cls-1" d="M60.44,25.93a.65.65,0,0,1-.1.15c-.16-.15-.31-.28-.47-.41l.16-.23A2.37,2.37,0,0,1,60.44,25.93Z"/><path class="cls-1" d="M60.34,26.08c0,.05,0,.08-.06.13a3.16,3.16,0,0,1-.56-.33c.05-.08.1-.13.15-.21C60,25.8,60.18,25.93,60.34,26.08Z"/><path class="cls-1" d="M60.28,26.21v0c-2,3.88-4.66,7.54-5.23,11.92h-.38a.45.45,0,0,0-.33.13c-.18-4.25,3-9,5.38-12.4A3.16,3.16,0,0,0,60.28,26.21Z"/><path class="cls-1" d="M60,25.41v0l-.16.23c-3.76-3.43-7-6.2-8.4-11.48a4.25,4.25,0,0,0,.87.64,20.41,20.41,0,0,0,3.82,6.28C57.46,22.54,58.87,23.88,60,25.41Z"/><path class="cls-1" d="M51.18,13a.35.35,0,0,0-.33.54,3.71,3.71,0,0,0,.59.66,0,0,0,0,0,0,0c1.38,5.28,4.64,8,8.4,11.48,0,.08-.1.13-.15.21a18.12,18.12,0,0,1-9-12.87c-.1-.62.8-.92,1-.26a1.92,1.92,0,0,0,.11.31,3,3,0,0,0-.49-.1Z"/><path class="cls-1" d="M57.26,128.61a2.27,2.27,0,0,1-.21-.28,5,5,0,0,1,.49-.28c.21-.1.49.13.33.33a5.37,5.37,0,0,1-.41.51A1.18,1.18,0,0,1,57.26,128.61Z"/><path class="cls-1" d="M57.26,128.61a1.18,1.18,0,0,0,.2.28c-1.56,2-3.43,3.62-5,5.54-1.28,1.54-2.33,3.54-3.69,5.1-.38.1-.77.16-1.16.28A52,52,0,0,1,57.26,128.61Z"/><path class="cls-1" d="M57.05,128.33a2.27,2.27,0,0,0,.21.28,52,52,0,0,0-9.67,11.2,2.34,2.34,0,0,0-.71.26c-.08,0-.1.15-.05.23a1.25,1.25,0,0,0,.51.59.51.51,0,0,1-.67-.61c.59-2.49,3.1-5,4.8-6.82A25.93,25.93,0,0,1,57.05,128.33Z"/><path class="cls-1" d="M55.05,38.15a7.13,7.13,0,0,1,.8,0,3.8,3.8,0,0,1-.18.54,4.86,4.86,0,0,0-.67,0A4.93,4.93,0,0,1,55.05,38.15Z"/><path class="cls-1" d="M55.8,39.36a.56.56,0,0,1,0,.33,54.3,54.3,0,0,0-3.51,11.08.49.49,0,0,0-.44-.39v0c.11-3.8,1.7-7.39,3.31-10.82a.41.41,0,0,0,.31-.23h0A1.21,1.21,0,0,1,55.8,39.36Z"/><path class="cls-1" d="M55.8,39.36a1.21,1.21,0,0,0-.34,0,1.19,1.19,0,0,0,.08-.16s0-.07,0-.1A.44.44,0,0,1,55.8,39.36Z"/><path class="cls-1" d="M55.67,38.72a2.07,2.07,0,0,1-.1.33A.64.64,0,0,0,55,38.9c0-.08,0-.13,0-.21A4.86,4.86,0,0,1,55.67,38.72Z"/><path class="cls-1" d="M55,38.9a.64.64,0,0,1,.59.15s0,.08,0,.1a1.19,1.19,0,0,1-.08.16h0c-.26-.05-.51-.08-.77-.11,0,0,0,0-.05,0A.49.49,0,0,1,55,38.9Z"/><path class="cls-1" d="M55.13,39.54a.55.55,0,0,1-.59-.21v0s0-.08.05-.11v0h0s0,0,.05,0c.26,0,.51.06.77.11A.41.41,0,0,1,55.13,39.54Z"/><path class="cls-1" d="M54.54,39.33a.55.55,0,0,0,.59.21c-1.61,3.43-3.2,7-3.31,10.82a.39.39,0,0,0-.15,0,2.42,2.42,0,0,0-.36.1C50.93,46.56,52.72,42.77,54.54,39.33Z"/><path class="cls-1" d="M55,38.69c0,.08,0,.13,0,.21a.49.49,0,0,0-.36.28h0a.44.44,0,0,1-.15,0,.19.19,0,0,1,0-.13,5.81,5.81,0,0,1,0-.72.45.45,0,0,1,.33-.13h.38A4.93,4.93,0,0,0,55,38.69Z"/><path class="cls-1" d="M54.59,39.18v0s0,.08-.05.11a.21.21,0,0,1-.1-.18A.44.44,0,0,0,54.59,39.18Z"/><path class="cls-1" d="M54.39,39a.19.19,0,0,0,0,.13.51.51,0,0,1-.1-.85A5.81,5.81,0,0,0,54.39,39Z"/><path class="cls-1" d="M52.26,50.77a.4.4,0,0,1-.18.46.7.7,0,0,0,.13-.26A1.94,1.94,0,0,0,52.26,50.77Z"/><path class="cls-1" d="M52.26,50.77a1.94,1.94,0,0,1,0,.2.7.7,0,0,1-.13.26.52.52,0,0,1-.69-.23l.41-.16a3.54,3.54,0,0,1,0-.46A.49.49,0,0,1,52.26,50.77Z"/><path class="cls-1" d="M52.08,51.23s0,.05,0,.05c-2.64,1.28-6.36,2.33-7.74,5.23-2.16,4.46,2.61,6.28,4.79,9a.32.32,0,0,1,.1.2A9.92,9.92,0,0,0,48,65.66a11.81,11.81,0,0,1-4.76-6.21C42.37,55,47.8,52.3,51.39,51A.52.52,0,0,0,52.08,51.23Z"/><path class="cls-1" d="M52,13.78c.1.36.23.71.36,1.05a4.25,4.25,0,0,1-.87-.64,0,0,0,0,1,0,0c0-.25-.13-.54-.18-.82A4.6,4.6,0,0,0,52,13.78Z"/><path class="cls-1" d="M51.75,13.06c.07.26.15.49.23.72a4.6,4.6,0,0,1-.72-.44c0-.13,0-.25-.08-.38h.08A3,3,0,0,1,51.75,13.06Z"/><path class="cls-1" d="M51.82,50.36v0a3.54,3.54,0,0,0,0,.46l-.41.16a.37.37,0,0,1,0-.16c0-.13,0-.23,0-.36a2.42,2.42,0,0,1,.36-.1A.39.39,0,0,1,51.82,50.36Z"/><path class="cls-9" d="M51.36,27a.87.87,0,0,1-.2,1.57c-3.21.82-7.36.89-10.2,2.66-3.18,2,0,7.74.69,10.18a.92.92,0,0,1-1.34,1c-5-2.25-5.45-2.66-7.27,2.8A88.67,88.67,0,0,1,29.7,54a.79.79,0,0,1-1.38,0,46,46,0,0,0-5.56-8.69c-2.57-3.33-2.62-4.74-6.44-1.56-3.38,2.82-6.66,5.71-11.15,6.41a.86.86,0,0,1-1-1.06A69.5,69.5,0,0,1,7.69,38.87c.66-1.56,4.28-6.3,1.3-7.18-1.51-.43-3-.87-4.53-1.28A.87.87,0,0,1,4.07,29a10.36,10.36,0,0,1,6.15-2.3,1,1,0,0,0,.9.64l0,.15a9.69,9.69,0,0,0-5.63,1.44l-.54-.16c0,.16.07.33.12.49a2.39,2.39,0,0,0-.35.36c.15.05.3.07.48.13s.08.33.13.48c.26-.07.51-.18.77-.25,1.77.51,3.67,1.07,5.56,1.51-2,5.59-5,11.15-6.46,17a3.78,3.78,0,0,1-.46.1l.36.36a3.92,3.92,0,0,0-.13.49,2,2,0,0,0,.54-.08c.1.1.21.2.31.31a1.61,1.61,0,0,1,.1-.36c5-.9,9.74-6.72,14-9.23,1.34,2.15,3.16,4.36,4.87,6.61a37.67,37.67,0,0,1,3.77,6l-.31.87a4.49,4.49,0,0,0,.64-.1,2.88,2.88,0,0,1,.13.31,2.37,2.37,0,0,0,.13-.34l.56-.07c-.1-.21-.18-.41-.28-.59,1.92-4.75,3.2-9.51,4.95-14.26,1.74.9,3.51,1.95,5.28,2.72a3.29,3.29,0,0,1,.25.75,4.13,4.13,0,0,1,.55-.41,2.41,2.41,0,0,0,.33.15c0-.1-.05-.21-.1-.34.17-.15.38-.28.56-.43-.26-.13-.54-.23-.79-.38-.88-2.72-2.7-7.11-1.54-8.72,1.43-2.13,7.66-3,10.91-3.74.24.13.47.31.7.46,0-.21,0-.44.08-.64v0l.33-.07-.31-.24c0-.2.05-.38.08-.58L50,27c-3.71-2.72-7.69-3.77-11.63-5.74C39.7,14.85,41.85,7.37,41.57.7a154.06,154.06,0,0,1-13.35,9.87C26.89,9,26.06,6.32,24.73,4.17,23.4,6.57,22.6,10.06,21.78,13c-4.53-.25-9.35-2.66-13.89-1.87,1.33,4.56,1.08,10.72,3.49,15l-.11.51a.47.47,0,0,0-.18,0,6.11,6.11,0,0,0-.87.08,3.23,3.23,0,0,1-.13-.57A109.47,109.47,0,0,0,7.28,11.29a.66.66,0,0,1,.61-.82c3.62-.33,6.64.49,10.15,1.18,4.61.92,4.59-4.82,6.05-7.87a.75.75,0,0,1,1.28,0c1.92,3.54,2.1,6.61,6.36,3.54C34.91,5,38,2.65,41.06.19A.72.72,0,0,1,42.29.7c.05,5.75-1,11.23-2.28,16.82C38.91,22.57,47.75,24.34,51.36,27Z"/><path class="cls-1" d="M51.26,13.34c.05.28.13.57.18.82a3.71,3.71,0,0,1-.59-.66.35.35,0,0,1,.33-.54C51.21,13.09,51.24,13.21,51.26,13.34Z"/><path class="cls-1" d="M51.34,50.84a.37.37,0,0,0,0,.16c-3.59,1.3-9,4-8.2,8.45A11.81,11.81,0,0,0,48,65.66c-.64,0-1.25,0-1.84,0-2.21-1.8-4-5.72-3.59-7.72.79-3.92,5.15-6.43,8.79-7.41C51.31,50.61,51.34,50.71,51.34,50.84Z"/><path class="cls-9" d="M50.93,27.7l-.33.07c0-.1,0-.2,0-.31Z"/><path class="cls-9" d="M50.7,26.88c0,.2-.05.38-.08.58A4.93,4.93,0,0,0,50,27Z"/><path class="cls-9" d="M50.62,27.46c0,.11,0,.21,0,.31v0c-.24.05-.49.13-.78.18a8.52,8.52,0,0,0-1-.69c.4-.08.84-.16,1.22-.26A4.93,4.93,0,0,1,50.62,27.46Z"/><path class="cls-9" d="M50.6,27.8c0,.2-.06.43-.08.64-.23-.15-.46-.33-.7-.46C50.11,27.93,50.36,27.85,50.6,27.8Z"/><path class="cls-1" d="M48,65.66a9.92,9.92,0,0,1,1.23.07.58.58,0,0,1-.53.82c-.08,0-.18,0-.23,0h-.05a2.7,2.7,0,0,0-.62-.08s0,0,0,0a4,4,0,0,1-1.59-.87C46.7,65.61,47.31,65.63,48,65.66Z"/><path class="cls-9" d="M50,27c-.38.1-.82.18-1.22.26C45.34,25.13,41.62,23.72,38,22a.86.86,0,0,1-.39-.92c1.31-5.95,3.31-12.2,3.28-18.33,0-.59-4.38,2.9-4.53,3-2.54,1.9-5.1,3.72-7.75,5.46a.73.73,0,0,1-1-.25c-.83-1.23-2.44-6.74-3.52-3.28q-.79,2.73-1.56,5.51a.72.72,0,0,1-.72.54c-1.94-.23-13.2-3-12.84-1,.67,3.82.44,9.53,3.33,12.45a1.17,1.17,0,0,1-.41,2,.63.63,0,0,0-.59-.57l.11-.51C9,21.83,9.22,15.67,7.89,11.11c4.54-.79,9.36,1.62,13.89,1.87.82-2.92,1.62-6.41,2.95-8.81,1.33,2.15,2.16,4.81,3.49,6.4A154.06,154.06,0,0,0,41.57.7c.28,6.67-1.87,14.15-3.2,20.59C42.31,23.26,46.29,24.31,50,27Z"/><path class="cls-9" d="M48.78,27.29a8.52,8.52,0,0,1,1,.69c-3.25.72-9.48,1.61-10.91,3.74-1.16,1.61.66,6,1.54,8.72-.42-.18-.83-.36-1.24-.57-1.1-2.84-2.74-6.92-.92-8.79C40.91,28.41,45.11,28,48.78,27.29Z"/><path class="cls-1" d="M48.75,139.53a7,7,0,0,1-.82.9,2.6,2.6,0,0,1-.64-.13,2.94,2.94,0,0,1,.3-.49C48,139.69,48.37,139.63,48.75,139.53Z"/><path class="cls-1" d="M47.29,140.3a2.6,2.6,0,0,0,.64.13q-.2.19-.39.36a.45.45,0,0,1-.18.1h0a1.25,1.25,0,0,1-.51-.59c0-.08,0-.21.05-.23a2.34,2.34,0,0,1,.71-.26A2.94,2.94,0,0,0,47.29,140.3Z"/><path class="cls-1" d="M47.75,66.5a2.7,2.7,0,0,1,.62.08A2.57,2.57,0,0,1,47.75,66.5Z"/><path class="cls-1" d="M46.11,65.61a4,4,0,0,0,1.59.87c-1.18-.13-2.36-.21-3.54-.23a1.83,1.83,0,0,0-.46-.46s.08,0,.13,0Q44.91,65.64,46.11,65.61Z"/><path class="cls-2" d="M48.78,27.29c-3.67.69-7.87,1.12-10.49,3.79-1.82,1.87-.18,6,.92,8.79-1.48-.72-3-1.49-4.4-2.25a.89.89,0,0,0-1.31.53c-1.59,4.44-3.08,9-4.62,13.44-2.28-4.31-5.51-8-8.23-12a.83.83,0,0,0-1.15-.3c-4.56,2.82-8.12,7.43-13.33,8.92,1.57-5.69,4.08-11.08,6.31-16.51a.87.87,0,0,0-.62-1.08L7.58,29.44l3.51-1.15a.86.86,0,0,0,.77-1.13,1.17,1.17,0,0,0,.41-2c-2.89-2.92-2.66-8.63-3.33-12.45-.36-2,10.9.77,12.84,1a.72.72,0,0,0,.72-.54q.77-2.78,1.56-5.51c1.08-3.46,2.69,2.05,3.52,3.28a.73.73,0,0,0,1,.25c2.65-1.74,5.21-3.56,7.75-5.46.15-.12,4.53-3.61,4.53-3,0,6.13-2,12.38-3.28,18.33A.86.86,0,0,0,38,22C41.62,23.72,45.34,25.13,48.78,27.29Z"/><path class="cls-1" d="M44.16,66.25a1.64,1.64,0,0,1,.23.28.53.53,0,0,1,.1.33L44,66.79a.17.17,0,0,0-.28-.06h0s0,0,0,0l-.26-.18a.56.56,0,0,1,.31-.74A1.83,1.83,0,0,1,44.16,66.25Z"/><path class="cls-1" d="M44,66.79l.51.07a.76.76,0,0,1-.28.54,5.1,5.1,0,0,0-.2-.59S44,66.79,44,66.79Z"/><path class="cls-1" d="M44.21,67.4c.69,2.39-.08,5.51-.31,7.84-.25,2.82-.46,5.64-.69,8.46a8,8,0,0,0-.87.11c.26-5.39,1.36-12,1.46-16.26A.59.59,0,0,0,44.21,67.4Z"/><path class="cls-1" d="M44,66.81a5.1,5.1,0,0,1,.2.59.59.59,0,0,1-.41.15v0a5.16,5.16,0,0,0,0-.67.7.7,0,0,0-.16-.1v0h0l.28.06S44,66.81,44,66.81Z"/><path class="cls-1" d="M44,66.79l-.28-.06A.17.17,0,0,1,44,66.79Z"/><path class="cls-1" d="M43.83,66.86a5.16,5.16,0,0,1,0,.67.27.27,0,0,1-.15,0,1.6,1.6,0,0,1-.23-.1,2.87,2.87,0,0,1,.23-.64s0,0,0,0A.7.7,0,0,1,43.83,66.86Z"/><path class="cls-1" d="M43.8,67.53v0c-.1,4.21-1.2,10.87-1.46,16.26l-.18,0c-.38.08-.38.72,0,.77.05,0,.1,0,.15,0,0,.2,0,.43,0,.64a.49.49,0,0,0-.33-.13,3.93,3.93,0,0,0-.49,0A63.62,63.62,0,0,1,42.34,75c.33-2.36.23-5.33,1.08-7.64a1.6,1.6,0,0,0,.23.1A.27.27,0,0,0,43.8,67.53Z"/><path class="cls-1" d="M43.67,66.73v0s0,0,0,0a2.87,2.87,0,0,0-.23.64c-1.13-.54-2-1.38-3.21-1.74a15.51,15.51,0,0,0-4-.51.06.06,0,0,0,0-.06v0a2.48,2.48,0,0,0-.23-.36,10.3,10.3,0,0,1,7.41,1.82.4.4,0,0,0,.26.18S43.65,66.73,43.67,66.73Z"/><path class="cls-1" d="M43.39,66.53l.26.18A.4.4,0,0,1,43.39,66.53Z"/><path class="cls-1" d="M43.7,65.79a.56.56,0,0,0-.31.74A10.3,10.3,0,0,0,36,64.71s0,0,0,0a2.85,2.85,0,0,0-.26-.41C38,63.79,41.73,64.07,43.7,65.79Z"/><path class="cls-1" d="M43.21,83.7a4.52,4.52,0,0,1,0,.52h-.85a1.87,1.87,0,0,1,0-.41A8,8,0,0,1,43.21,83.7Z"/><path class="cls-1" d="M43.19,84.22a4.4,4.4,0,0,1,0,.51c-.29,0-.54,0-.83-.1a1.84,1.84,0,0,1,0-.41Z"/><path class="cls-1" d="M43.14,84.73c0,.36-.06.69-.08,1a.78.78,0,0,1-1,.72,1,1,0,0,0,.36-.29.58.58,0,0,0-.13-.94c0-.21,0-.44,0-.64C42.6,84.68,42.85,84.7,43.14,84.73Z"/><path class="cls-1" d="M42.29,85.27a.58.58,0,0,1,.13.94,1,1,0,0,1-.36.29h0a.66.66,0,0,1-.51-.57.27.27,0,0,1,0-.15c0-.21,0-.41,0-.62a3.93,3.93,0,0,1,.49,0A.49.49,0,0,1,42.29,85.27Z"/><path class="cls-8" d="M43.42,67.4c-.85,2.31-.75,5.28-1.08,7.64a63.62,63.62,0,0,0-.87,10.12c-.92,0-1.82.34-2.74.41a9.37,9.37,0,0,1-2.64-.17.46.46,0,0,0,0-.34.53.53,0,0,0,.33-.54c.08-3.35-.08-6.71-.1-10.07,0-2.92.64-6.33,0-9.2,0,0,0-.08-.08-.1a15.51,15.51,0,0,1,4,.51C41.47,66,42.29,66.86,43.42,67.4Z"/><path class="cls-1" d="M42.34,84.22a1.84,1.84,0,0,0,0,.41c-.05,0-.1,0-.15,0-.38,0-.38-.69,0-.77l.18,0A1.87,1.87,0,0,0,42.34,84.22Z"/><path class="cls-1" d="M35.45,86.09l0,0a9.85,9.85,0,0,0,6-.13.66.66,0,0,0,.51.57c-1.92,1.51-5.64,1-7.53-.13,0,0,0,0-.06-.05A7.58,7.58,0,0,0,35,85a.35.35,0,0,0,.21-.07.65.65,0,0,0,.51.28l-.11.08c-.2,0-.38-.11-.58-.16a2.13,2.13,0,0,0,.18.41s0,0,0,0a.73.73,0,0,0-.39.23,3.46,3.46,0,0,0,.56.23,0,0,0,0,0,0,0S35.42,86.06,35.45,86.09Z"/><path class="cls-1" d="M41.49,85.78a.27.27,0,0,0,0,.15,9.85,9.85,0,0,1-6,.13,4.1,4.1,0,0,1,.56-.61s0,0,0,0a9.37,9.37,0,0,0,2.64.17c.92-.07,1.82-.38,2.74-.41C41.47,85.37,41.49,85.57,41.49,85.78Z"/><path class="cls-9" d="M41.24,40.82c-.18.15-.39.28-.56.43-.06-.25-.13-.51-.23-.81C40.7,40.59,41,40.69,41.24,40.82Z"/><path class="cls-9" d="M40.68,41.25c0,.13.07.24.1.34a2.41,2.41,0,0,1-.33-.15A1.37,1.37,0,0,1,40.68,41.25Z"/><path class="cls-9" d="M40.68,41.25a1.37,1.37,0,0,0-.23.19,5.05,5.05,0,0,1-.8-.34,11.73,11.73,0,0,0-.44-1.23c.41.21.82.39,1.24.57C40.55,40.74,40.62,41,40.68,41.25Z"/><path class="cls-9" d="M40.45,41.44a4.13,4.13,0,0,0-.55.41,3.29,3.29,0,0,0-.25-.75A5.05,5.05,0,0,0,40.45,41.44Z"/><path class="cls-9" d="M39.21,39.87a11.73,11.73,0,0,1,.44,1.23c-1.77-.77-3.54-1.82-5.28-2.72-1.75,4.75-3,9.51-4.95,14.26a11.51,11.51,0,0,0-.54-1c1.54-4.49,3-9,4.62-13.44a.89.89,0,0,1,1.31-.53C36.26,38.38,37.73,39.15,39.21,39.87Z"/><path class="cls-1" d="M35.78,83.14c.08-.1.15-.23.23-.33a.29.29,0,0,0-.23-.41c-.05-5.64-.23-12.26.25-16.67a.41.41,0,0,0,.21-.58h0c.06,0,.08,0,.08.1.67,2.87,0,6.28,0,9.2,0,3.36.18,6.72.1,10.07a.53.53,0,0,1-.33.54.35.35,0,0,0-.49-.31,2,2,0,0,1-.43.16.44.44,0,0,1-.11-.23s0,0,0-.05a2.33,2.33,0,0,0,.11-.31.29.29,0,0,0-.13-.33v0A6.11,6.11,0,0,0,35.78,83.14Z"/><path class="cls-1" d="M36,65.73a.51.51,0,0,1-.43.06,4.41,4.41,0,0,1,.26-.59.35.35,0,0,1,0-.08l.33,0A.41.41,0,0,1,36,65.73Z"/><path class="cls-1" d="M36.26,65.15h0a.09.09,0,0,0,0-.06A.06.06,0,0,1,36.26,65.15Z"/><path class="cls-1" d="M36.21,65.09a.09.09,0,0,1,0,.06l-.33,0A.25.25,0,0,1,36.21,65.09Z"/><path class="cls-1" d="M36,64.71s0,0,0,0a2.48,2.48,0,0,1,.23.36v0a.25.25,0,0,0-.3,0h-.13a.48.48,0,0,1-.31-.15.41.41,0,0,1,.18-.67h.05A2.85,2.85,0,0,1,36,64.71Z"/><path class="cls-1" d="M36.14,85.06a.46.46,0,0,1,0,.34l-.47-.11v0l.11-.08A.5.5,0,0,0,36.14,85.06Z"/><path class="cls-1" d="M36.09,85.4s0,0,0,0a4.1,4.1,0,0,0-.56.61.12.12,0,0,0-.08,0,0,0,0,0,1,0,0c0-.15-.12-.31-.17-.46,0,0,0,0,0,0a2.05,2.05,0,0,0,.4-.23Z"/><path class="cls-1" d="M35.78,82.4a.29.29,0,0,1,.23.41c-.08.1-.15.23-.23.33V82.4Z"/><path class="cls-1" d="M35.73,85.19a.65.65,0,0,1-.51-.28,2,2,0,0,0,.43-.16.35.35,0,0,1,.49.31A.5.5,0,0,1,35.73,85.19Z"/><path class="cls-1" d="M35.6,65.79a.51.51,0,0,0,.43-.06c-.48,4.41-.3,11-.25,16.67a.24.24,0,0,0-.13,0,4,4,0,0,1-.59.38c-.1-3.2-.1-6.43-.05-9.64C35.06,70.84,34.78,68.07,35.6,65.79Z"/><path class="cls-1" d="M35.47,65a.48.48,0,0,0,.31.15h.13a.35.35,0,0,0,0,.08,4.41,4.41,0,0,0-.26.59.46.46,0,0,1-.18-.11c-7-5.71-12.77-12.15-22.56-7.05C6.07,62.2-2.8,72.27,4.81,79.76c7.31,7.2,21.61,8.76,30.25,3.07a5.8,5.8,0,0,0,0,.59C31.4,86.8,24.29,87.7,17.58,86.6a.25.25,0,0,0-.18,0C10.22,85.34,3.56,81.88,2,76.78-1.08,67.17,7,59.43,15.63,56.66,24.47,54.23,29.7,58.35,35.47,65Z"/><path class="cls-1" d="M35.78,82.68v.46a6.11,6.11,0,0,1-.69.82,3.26,3.26,0,0,1,0-.54A10,10,0,0,0,35.78,82.68Z"/><path class="cls-1" d="M35.78,82.4v.28a10,10,0,0,1-.72.74,5.8,5.8,0,0,1,0-.59,4,4,0,0,0,.59-.38A.24.24,0,0,1,35.78,82.4Z"/><path class="cls-1" d="M35.7,64.3h-.05a.41.41,0,0,0-.18.67c-5.77-6.62-11-10.74-19.84-8.31C7,59.43-1.08,67.17,2,76.78c1.54,5.1,8.2,8.56,15.38,9.77A.39.39,0,0,0,17,87a2,2,0,0,0,.1.44,5.72,5.72,0,0,1-.57-.11c-7.1-1.46-14-4.58-15.86-12.1C-1.47,66.76,6.53,59,13.81,56.43,22.42,53.33,30.68,56.94,35.7,64.3Z"/><path class="cls-1" d="M35.62,85.27v0a2.05,2.05,0,0,1-.4.23,2.13,2.13,0,0,1-.18-.41C35.24,85.16,35.42,85.24,35.62,85.27Z"/><path class="cls-8" d="M35.42,65.68a.46.46,0,0,0,.18.11c-.82,2.28-.54,5-.59,7.4,0,3.21,0,6.44.05,9.64C26.42,88.52,12.12,87,4.81,79.76-2.8,72.27,6.07,62.2,12.86,58.63,22.65,53.53,28.47,60,35.42,65.68Z"/><path class="cls-1" d="M35.5,86.06l0,0s0,0,0,0A.12.12,0,0,1,35.5,86.06Z"/><path class="cls-1" d="M35.22,85.55c.05.15.12.31.17.46a3.46,3.46,0,0,1-.56-.23A.73.73,0,0,1,35.22,85.55Z"/><path class="cls-1" d="M35.09,84a.29.29,0,0,1,.13.33,2.33,2.33,0,0,1-.11.31s0,0,0-.11Z"/><path class="cls-1" d="M35.11,84.63s0,0,0,.05a1.18,1.18,0,0,1-.1.3,1.3,1.3,0,0,1-.36.13.69.69,0,0,0-.21,1.21c-1.63,3.28-5.25,7-8.45,7.12-3.82.16-8.1-2.07-8.87-6a3.26,3.26,0,0,0,.49.1c1,3.43,5.63,5.92,9.17,5,4-1.2,5.84-5.46,8-8.25a.49.49,0,0,1,.08-.1,1.34,1.34,0,0,0,.26-.23v.53C35.09,84.58,35.09,84.6,35.11,84.63Z"/><path class="cls-1" d="M35.09,84v0a1.34,1.34,0,0,1-.26.23.49.49,0,0,0-.08.1A10.19,10.19,0,0,1,32.45,86a7.94,7.94,0,0,1,2.2-2.13A.41.41,0,0,1,35.09,84Z"/><path class="cls-1" d="M35.06,83.42a3.26,3.26,0,0,0,0,.54.41.41,0,0,0-.44-.08A7.94,7.94,0,0,0,32.45,86c-4,2.28-9.69,2.33-14.15,1.64a4.44,4.44,0,0,1-.36-.77.42.42,0,0,0-.36-.28C24.29,87.7,31.4,86.8,35.06,83.42Z"/><path class="cls-1" d="M34.65,85.11A1.3,1.3,0,0,0,35,85a7.58,7.58,0,0,1-.57,1.34A.69.69,0,0,1,34.65,85.11Z"/><path class="cls-1" d="M32.45,86a10.19,10.19,0,0,0,2.3-1.69c-2.13,2.79-4,7.05-8,8.25-3.54.9-8.18-1.59-9.17-5,.23,0,.46.08.69.1,2.05,4,7.56,6.13,11.15,2.54A36.31,36.31,0,0,0,32.45,86Z"/><path class="cls-8" d="M32.45,86a36.31,36.31,0,0,1-3,4.18c-3.59,3.59-9.1,1.46-11.15-2.54C22.76,88.34,28.42,88.29,32.45,86Z"/><path class="cls-9" d="M29.42,52.64c.1.18.18.38.28.59l-.56.07A6.21,6.21,0,0,0,29.42,52.64Z"/><path class="cls-9" d="M29.42,52.64a6.21,6.21,0,0,1-.28.66.77.77,0,0,1-.26,0c-.1-.26-.23-.51-.33-.77.1-.33.23-.64.33-1A11.51,11.51,0,0,1,29.42,52.64Z"/><path class="cls-9" d="M29.14,53.3a2.37,2.37,0,0,1-.13.34,2.88,2.88,0,0,0-.13-.31A.77.77,0,0,0,29.14,53.3Z"/><path class="cls-9" d="M28.88,53.33a4.49,4.49,0,0,1-.64.1l.31-.87C28.65,52.82,28.78,53.07,28.88,53.33Z"/><path class="cls-9" d="M28.88,51.59c-.1.33-.23.64-.33,1a37.67,37.67,0,0,0-3.77-6c-1.71-2.25-3.53-4.46-4.87-6.61-4.28,2.51-9,8.33-14,9.23.08-.36.18-.72.28-1,5.21-1.49,8.77-6.1,13.33-8.92a.83.83,0,0,1,1.15.3C23.37,43.64,26.6,47.28,28.88,51.59Z"/><path class="cls-1" d="M17.61,87.55a3.26,3.26,0,0,1-.49-.1A2,2,0,0,1,17,87a.39.39,0,0,1,.38-.46,1.21,1.21,0,0,1,.18,0,.42.42,0,0,1,.36.28,4.44,4.44,0,0,0,.36.77C18.07,87.63,17.84,87.57,17.61,87.55Z"/><path class="cls-1" d="M17.58,86.6a1.21,1.21,0,0,0-.18,0A.25.25,0,0,1,17.58,86.6Z"/><path class="cls-9" d="M11.86,30.59a.87.87,0,0,1,.62,1.08C10.25,37.1,7.74,42.49,6.17,48.18a6.9,6.9,0,0,1-1,.23c1.46-5.82,4.44-11.38,6.46-17-1.89-.44-3.79-1-5.56-1.51l1.51-.49Z"/><path class="cls-9" d="M11.86,27.16a.86.86,0,0,1-.77,1.13L7.58,29.44c-.72-.21-1.41-.39-2.12-.56a9.69,9.69,0,0,1,5.63-1.44l0-.15A1.55,1.55,0,0,0,11.86,27.16Z"/><path class="cls-9" d="M11.27,26.59a.63.63,0,0,1,.59.57,1.55,1.55,0,0,1-.74.13Z"/><path class="cls-9" d="M11.27,26.59l-.15.7a1,1,0,0,1-.9-.64,6.11,6.11,0,0,1,.87-.08A.47.47,0,0,1,11.27,26.59Z"/><path class="cls-9" d="M7.58,29.44l-1.51.49-.9-.23c0-.16-.07-.34-.13-.49a1.46,1.46,0,0,1,.42-.33C6.17,29.05,6.86,29.23,7.58,29.44Z"/><path class="cls-9" d="M6.17,48.18c-.1.33-.2.69-.28,1a.83.83,0,0,1-.41.05l-.41-.41a3.41,3.41,0,0,1,.1-.46A6.9,6.9,0,0,0,6.17,48.18Z"/><path class="cls-9" d="M6.07,29.93c-.26.07-.51.18-.77.25,0-.15-.07-.33-.13-.48Z"/><path class="cls-9" d="M5.89,49.23a1.61,1.61,0,0,0-.1.36c-.1-.11-.21-.21-.31-.31A.83.83,0,0,0,5.89,49.23Z"/><path class="cls-9" d="M5.48,49.28a2,2,0,0,1-.54.08,3.92,3.92,0,0,1,.13-.49Z"/><path class="cls-9" d="M4.92,28.72l.54.16a1.46,1.46,0,0,0-.42.33C5,29.05,5,28.88,4.92,28.72Z"/><path class="cls-9" d="M5.17,48.41a3.41,3.41,0,0,0-.1.46l-.36-.36A3.78,3.78,0,0,0,5.17,48.41Z"/><path class="cls-9" d="M5,29.21c.06.15.08.33.13.49-.18-.06-.33-.08-.48-.13A2.39,2.39,0,0,1,5,29.21Z"/><path class="cls-2" d="M11.94,69.52c-4.62.63,2.3-10.07,6.71-6.71,4.82,3.56-3.78,7.76-6.71,7.55"/><path class="cls-10" d="M11.94,69.52c-4.62.63,2.3-10.07,6.71-6.71,4.82,3.56-3.78,7.76-6.71,7.55"/><path class="cls-2" d="M11.94,69.08c-1.83,0-.21-2.46.28-3.17,1-1.49,3-3.33,5-3a2.66,2.66,0,0,1,2.15,2.18c.05,1-1.09,1.86-1.8,2.36-1.78,1.26-3.89,1.62-5.84,2.49a.51.51,0,0,0,0,.88c2.5,1.37,6.57-1.35,8.15-3.19a3.74,3.74,0,0,0-2.7-6.14c-2.85-.25-5.35,2.27-6.66,4.55-1,1.71-1.13,4.48,1.58,3.92.5-.1.37-.86-.11-.86Z"/><path class="cls-11" d="M45.92,96.79c-3.36-1.05,1.67-8,4.4-5.66,3.15,2.3-3.15,7.76-4.2,5.24"/><path class="cls-11" d="M75.7,25.05c-5.87,1.26-6.5-4.61-.42-5.45,6.3-.84,4,4.61-.21,5.87"/><path class="cls-10" d="M75.7,25.05c-5.87,1.26-6.5-4.61-.42-5.45,6.3-.84,4,4.61-.21,5.87"/><path class="cls-11" d="M75.57,24.59c-1.3.2-3.76.18-3.85-1.65s2.9-2.64,4.29-2.77c1.64-.16,3.2.47,2.18,2.25a5.32,5.32,0,0,1-1.79,1.71c-.64.4-1.47.47-1.77,1.22a.46.46,0,0,0,.21.52c.92.59,2.28-.58,3-1.14A5.77,5.77,0,0,0,79.67,22c.82-2.75-2.47-3.25-4.39-3.06-2.21.22-5.12,1.54-5,4.17s3.58,2.86,5.54,2.4c.61-.14.34-1-.26-.92Z"/><path class="cls-11" d="M81.58,28c-2.94.21-1.47-4.2,1-4.41,1.89-.42,3.78.84,2.52,3.15-.84,1.47-3.56,1.47-5,1.47"/><path class="cls-10" d="M81.58,28c-2.94.21-1.47-4.2,1-4.41,1.89-.42,3.78.84,2.52,3.15-.84,1.47-3.56,1.47-5,1.47"/><path class="cls-11" d="M81.69,27.79c-.78-.58-1.35-.66-1-1.79a2.84,2.84,0,0,1,2.57-1.94A1.49,1.49,0,0,1,85,25.35a2,2,0,0,1-1.57,2A30.09,30.09,0,0,1,80,27.9a.32.32,0,0,0,0,.6c1.85.43,4.4.18,5.55-1.52,1.37-2-.21-3.93-2.32-4A3.8,3.8,0,0,0,79.4,26.1c-.26,1.31.95,3.19,2.34,2a.23.23,0,0,0,0-.36Z"/></g></g></svg>