<svg id="レイヤー_1" xmlns="http://www.w3.org/2000/svg" viewBox="0 0 142.2 145.7"><style>.st0{fill:#1d3033;stroke:#1d3033;stroke-width:.66;stroke-linecap:round;stroke-linejoin:round}.st1{fill:#818e30}.st2{fill:#74b65f}.st4{fill:#fff}.st5{fill:#dadada}.st6{fill:#2e5731}.st7{fill:#f7e5d7}.st8{fill:#e98d4b}.st10{fill:#ec7b7b}.st11{fill:#f9cfb3}.st12{fill:none}.st13{fill:#ec9d1b}</style><g id="レイヤー_3"><path class="st0" d="M135.1 57.6v-.2c-.1.1-.2.1-.2.2-.3-.1-.7-.2-1-.2v.9c-.1.1-.2.2-.4.3.1 0 .2 0 .4.1 0 2.8-.2 5.6-.5 8.4-.3-.4-.6-.7-.9-1 .3-2.9.4-5.7.2-8.6 0-.7.5-1.2 1.2-1.2 3.2.4 6.9 2.3 7.8 5.8.9 3.2-1.2 5.8-4.5 6.3-.2.1-.5-.1-.5-.3-.1-.2 0-.4.2-.5 2-1.5 3.8-3.4 2-5.9-1-1.3-2.3-2.2-3.8-2.6v-1.5zM125.7 18.2c7.8-1.3 13.8 4.2 13.4 12.1-.3 6.6-7.4 12.4-13.9 13.3 0-.3 0-.5-.2-.7 1.1-.2 2.3-.5 3.3-1l.4.2c.2.1.4 0 .5-.1.1-.1.1-.2 0-.3 0 0 0-.1-.1-.1 1.2-.6 2.3-1.2 3.4-2 .2 0 .3 0 .5-.1.1 0 .2-.1.2-.2V39c1.8-1.3 3.3-3.1 4.3-5.1 3.4-8-2.5-17-11.6-15 3.2 6-6.6 10.8-8.5 15.7-1.2 3.1 1.7 7.1 5 8.3v.3l-.4.4c-1.7-.6-3.2-1.6-4.3-2.9.1-.2.2-.3.2-.4.1-.2.1-.5-.2-.6-.2-.1-.5-.1-.6.2 0 0 0 .1-.1.1-1-1.3-1.3-3-.9-4.6 1.5-5.8 11.7-9.7 8.9-16.3.1-.4.4-.8.7-.9z"/><path class="st0" d="M126 18.9c9.1-2.1 15 7 11.6 15-1 2-2.5 3.7-4.3 5.1 0-.3-.1-.5-.2-.7 1.1-.8 2-1.9 2.8-3 .4 0 .7-.3.7-.7 0-.1 0-.2-.1-.3.9-1.6 1.4-3.5 1.3-5.3-.2-3.4-1.7-7.2-5-8.7-.3-.1-5.8-1.7-5.6-.7.1.4.2.8.2 1.2 0 3.1-1.9 5.5-4 7.7-1.6 1.7-3.8 3.5-4.8 5.6-1.8 4 1.7 6.7 4.8 7.9h-.3c-.4 0-.7.3-.7.7-3.3-1.2-6.2-5.2-5-8.3 1.9-4.7 11.8-9.4 8.6-15.5z"/><path class="st1" d="M137.8 29.1c.1 1.9-.4 3.7-1.3 5.3 0-.1-.1-.1-.1-.2-.4-.4-.7-.7-1.2-1-.4-.4-.9-.8-1.4-1.2-.2-.2-.6-.1-.7.2-.1.1-.1.3-.1.4.2 1.1 1.6 2 2.4 2.6.1.1.3.2.5.2-.8 1.1-1.7 2.2-2.8 3l-.1-.1c-.2-.4-1.2-1-1.2-1.5 0-.7-.5-1.3-1.2-1.3s-1.3.5-1.3 1.2c0 .6.4 1.1.9 1.3.5.2.8.9 1.3 1.2l.3.2c-.9.6-1.9 1.1-2.9 1.6-.2-.4-.5-.8-.7-1.3-.2-.3-.7-.4-1-.2-.3.2-.4.6-.2.9.2.4.4.7.8 1-1.3.5-2.8.8-4.2.9-3.1-1.2-6.6-4-4.8-7.9 1-2.2 3.2-3.9 4.8-5.6 2.1-2.2 4-4.6 4-7.7-.1-.4-.1-.8-.2-1.2-.2-1 5.3.5 5.6.7 3.1 1.3 4.6 5.1 4.8 8.5z"/><path class="st0" d="M136.5 34.4c.2.3 0 .8-.3.9-.1 0-.2.1-.3.1.2-.3.4-.7.6-1z"/><path class="st0" d="M136.4 34.2c0 .1.1.1.1.2-.2.3-.4.7-.6 1-.2 0-.3-.1-.5-.2-.8-.7-2.1-1.6-2.4-2.6-.1-.3.1-.6.4-.6.1 0 .3 0 .4.1.5.4.9.8 1.4 1.2.4.2.8.5 1.2.9zM135.1 57.4v.2h-.2c.1-.1.2-.1.2-.2zM135.1 57.6c0 .4 0 .9-.1 1.3-.4-.1-.8-.2-1.1-.3v-.3c.3-.3.6-.5 1-.7h.2zM133.1 138.2c.3-1 .6-2 .8-3v-.1c.2-.3.3-.6.4-.9l.2-.1-.2-.2v-.3c-.1 0-.2 0-.3.1l-.2-.2c0 .1-.1.2-.1.3-.5.1-.9.3-1.4.4-.1 0-.1 0-.2.1-1.9.6-3.8 1.3-5.6 2.1v-.2c2.6-.9 4.9-2.4 7.5-3 .3-.1.5.1.6.3v.3c-.4 1.4-1.9 3-1.3 4.5.1.3-.3.5-.5.3-.1 0-.1-.1-.1-.1.4-.1.4-.2.4-.3z"/><path class="st0" d="M134.9 57.6c-.3.2-.6.5-1 .7v-.9c.4 0 .7.1 1 .2zM134.6 134.2l-.2.1c0-.1 0-.2.1-.3s.1.1.1.2z"/><path class="st0" d="M134.5 133.7v.3l-.2-.2s.1 0 .2-.1zM134.2 133.8l.2.2c0 .1-.1.2-.1.3-.2 0-.4.1-.6.1h-.1c.1-.2.1-.4.2-.5l.4-.1zM134 58.6c.4.1.8.2 1.1.3 0 3.3-.3 6.6-1 9.8-.1-.6-.3-1.2-.7-1.7.4-2.8.6-5.6.6-8.4z"/><path class="st0" d="M133.8 134.4c.2-.1.4-.1.6-.1-.1.3-.3.6-.4.9 0-.3-.1-.6-.2-.8zM134.2 133.8l-.2.1c0-.1.1-.2.1-.3 0 .1 0 .1.1.2zM134.1 68.8c.4 1.5 0 3.2-1.1 4.4-.6.6-1.4 1.1-2.3 1.3.2-.2.3-.5.3-.7 1.4-.5 2.4-1.7 2.5-3.2.2-.6.4-1.3.6-1.8 0-.1 0 0 0 0z"/><path class="st0" d="M134.1 68.7c-.1.6-.3 1.2-.5 1.8.1-.8 0-1.6-.3-2.3.1-.4.1-.8.2-1.2.2.6.5 1.1.6 1.7zM133.8 134.4c.2.2.2.5.2.7v.1c-.6 1.1-1.3 2.2-.8 3 0 .1-.1.2-.1.3-.2-.1-.3-.3-.4-.5.2-.7.4-1.5.5-2.3l.3-.1c-.1-.1-.2-.1-.3-.2v-.1c.2-.2.3-.5.6-.9-.1 0-.1 0 0 0zM134 58.3v.3c-.1 0-.2-.1-.4-.1.1 0 .2-.1.4-.2zM133.9 133.9c0 .1-.1.3-.2.5-.2-.2-.5-.2-.8-.2-.1 0-.3.1-.4.1.5-.2 1-.3 1.4-.4zM133.8 134.4s-.1 0 0 0c-.1 0-.1 0 0 0-.1 0 0 0 0 0z"/><path class="st0" d="M133.7 134.4c-2.4.8-4.6 2.1-7.1 2.8 0-.1.1-.3.1-.5 1.9-.6 3.7-1.7 5.7-2.4.1 0 .1 0 .2-.1s.3-.1.4-.1c.3 0 .5.1.7.3zM133 70.1c.1-.6.2-1.2.2-1.9.3.7.4 1.5.3 2.3v.1c-.1.3-.4.4-.7.4.2-.3.2-.6.2-.9z"/><path class="st0" d="M133.5 70.6c-.1 1.4-1.1 2.7-2.5 3.1 0-.1 0-.3-.1-.4 0 0 0-.1-.1-.2.3-.1.5-.2.7-.4.6-.4 1.1-1.1 1.3-1.8.4.2.6 0 .7-.3z"/><path class="st2" d="M133.7 134.4c-.2.3-.4.6-.5 1v-.5c-.2 0-.4.1-.6.1l-.1-.1v.1c-2 .5-3.8 1.9-5.8 2.3v-.2c2.4-.6 4.5-1.9 7-2.7z"/><path class="st0" d="M133.4 67c0 .4-.1.8-.2 1.2-.2-.5-.5-1-.8-1.4V66c.4.2.7.6 1 1zM133.4 135.7l-.3.1c0-.1 0-.2.1-.3 0 .1.1.1.2.2zM133.9 135.2c-.2 1-.5 2-.8 3-.5-.8.2-1.9.8-3z"/><path class="st0" d="M133.2 68.2c-.1.7-.1 1.3-.2 1.9V70c0-.8-.2-1.5-.6-2.1 0-.4 0-.7.1-1.1.3.4.6.9.7 1.4zM133.2 39v.2c0 .1-.1.2-.2.2-.2.1-.3.1-.5.1.1-.1.3-.2.4-.3.2-.1.2-.1.3-.2z"/><path class="st0" d="M133.2 39c-.1.1-.2.1-.3.2l-.5-.4c.2-.1.4-.3.6-.5.1.2.2.4.2.7z"/><path class="st2" d="M133.2 134.9v.6l-.6-.4c.2-.1.4-.2.6-.2z"/><path class="st0" d="M133.1 135.5c0-.1 0-.1 0 0zM133.1 135.5c0 .1 0 .2-.1.3h-.1c.1-.1.2-.3.2-.3z"/><path class="st2" d="M133.1 135.5c-.1.1-.1.2-.2.4l-.6.2c0-.3 0-.6.1-.9h.1l.6.3z"/><path class="st0" d="M133.1 135.8c-.1.8-.2 1.5-.5 2.3-.2-.8-.1-1.6.3-2.2.1-.1.2-.1.2-.1zM132.4 38.8c-.2.2-.4.3-.7.5l-.3-.2c-.4-.2-.8-1-1.3-1.2-.7-.2-1.1-.9-.9-1.5.2-.7.9-1.1 1.5-.9.5.1.9.6.9 1.2 0 .5 1 1.1 1.2 1.5 0 .1.1.1.1.1 0 .2-.2.4-.5.5zM133 70.1c0 .4 0 .6-.1.9-.3 0-.5-.3-.5-.5V68c.4.6.6 1.3.6 2.1z"/><path class="st0" d="M132.4 38.8l.5.4c-.1.1-.3.2-.4.3-.3 0-.6-.1-.8-.2.3-.2.5-.3.7-.5z"/><path class="st2" d="M132.6 138.1c.1.2.2.3.4.5-1.2 3.3-3.4 5.6-7.6 6-4.5.4-11.3 1.4-15.4-1h.2l.9-.1c3.2 1.1 9.2.6 12 .6 5.2-.1 8.3-1.9 9.5-6z"/><path class="st2" d="M132.6 138.1c-1.3 4.1-4.4 5.9-9.6 5.9-2.7 0-8.7.6-12-.6l1.5-.1c3 .7 6.7.1 9.6.1 5.3-.1 9.5-2 10.1-7.4l.6-.2c-.3.7-.4 1.5-.2 2.3zM132.4 134.9c.1 0 .1.1.1.1h-.1v-.1z"/><path class="st0" d="M132.5 66v.8c-1.1-1.2-2.7-1.9-4.4-1.7-7.2.5-5 8.9.3 8.7-.1.2 0 .3.1.4.7.4 1.5.4 2.3.2-.4.5-1.1.6-1.6.3-.8-.5-1.8-.2-2.7-.5-.7-.3-1.4-.7-2-1.2-2.5-2.4-2.2-6.5 1-8 2.3-1 5-.6 7 1z"/><path class="st0" d="M132.4 70.5c0 .3.2.5.5.5-.2.7-.6 1.3-1.3 1.8-.2.2-.5.3-.7.4-.3-.6-1-.9-1.7-.6-.3.2-.6.4-.7.8-.1.6-2.7-.9-2.9-1.1-.7-.7-1.2-1.6-1.3-2.5-.6-2.7 2.3-3.9 4.5-3.9 1.5 0 2.9.9 3.6 2.2 0 .7-.1 1.5 0 2.4z"/><path class="st0" d="M132.4 66.8c0 .4-.1.7-.1 1.1-.7-1.3-2.1-2.2-3.6-2.2-2.2 0-5 1.2-4.5 3.9.2 1 .6 1.8 1.3 2.5.2.2 2.8 1.6 2.9 1.1.2-.7.9-1.1 1.6-.9.4.1.7.4.8.7l-2.4.6c-.1 0-.1.1-.1.1-5.3.2-7.4-8.2-.3-8.7 1.7 0 3.3.6 4.4 1.8z"/><path class="st2" d="M132.4 135.1c0 .3 0 .6-.1.9-2.2.7-4.1 1.9-6.4 2.4-.5.1-.9-.2-1-.7v-.4c.2-1.4.6-2.7 1-4v-.1l1.5-1.8c-.7 1.5-1.2 3.2-1.6 4.8 0 .1 0 .2-.1.2v.2l-.3.1c.1 0 .2.1.2.2v.2c0 .1-.1.3-.1.4.2 0 .5-.1.7-.1.1.1.1.1.2.1s0-.1 0-.1c2.2-.5 4-1.9 6-2.3z"/><path class="st0" d="M131.8 39.3c.2.2.5.2.8.2-1.1.8-2.2 1.4-3.4 2-.1-.2-.2-.5-.4-.7 1-.4 2-.9 3-1.5zM131 73.7c-.8.3-1.6.4-2.4.3l1.1-.4c-.5.1-.9.2-1.4.2.1 0 .1-.1.1-.1.8-.3 1.6-.5 2.4-.6 0 0 0 .1.1.2s.1.3.1.4z"/><path class="st0" d="M131 73.7c0 .3-.1.5-.3.7-.8.3-1.6.2-2.3-.2-.1-.1-.2-.3-.1-.4.5 0 1-.1 1.4-.2l-1.1.4c.8.1 1.6 0 2.4-.3z"/><path d="M132.3 136c-.7 5.4-4.8 7.3-10.1 7.4-2.9.1-6.6.6-9.6-.1 2.3-.2 4.6-.6 6.4-2 2.7-2.2 4.7-5.1 6.9-7.9-.4 1.3-.8 2.6-1 4-.1.5.2.9.6 1.1h.4c2.3-.5 4.2-1.8 6.4-2.5z" fill="#77be61"/><path class="st0" d="M129.8 127.8c.4 3.1-2 5.6-3 8.4.2-.9.4-1.7.7-2.6 1-1.9 2.3-3.8 2-5.8-.5.2-1 .5-1.5.8l-.3.1c-3.5 2.1-6.4 5.9-8.4 9.4-.1-.2-.1-.5-.2-.7 1.1-2 2.5-3.9 4.2-5.5 1.9-1.6 3.9-3 6-4.3.3 0 .4.1.5.2z"/><path class="st0" d="M129.6 127.8c.3 1.9-1 3.9-2 5.8l.9-2.4c.1-.2.3-.5.3-.8.1-.1.1-.2.1-.3v-.2c.1-.1.1-.3.2-.5s.1-.4 0-.5l-.1-.1h-.1c-.2-.2-.6-.3-.9-.2.6-.2 1.1-.5 1.6-.8zM128.9 41.7l.4-.2.1.1c.1.2 0 .4-.1.5-.1.1-.2.1-.3 0l-.4-.2c0-.1.1-.1.3-.2zM128.8 40.8c.1.2.3.5.4.7l-.4.2-.6-.6c.3-.1.4-.2.6-.3z"/><path class="st0" d="M129.1 129c.1.2.1.4 0 .5-.1.2-.1.3-.2.5.1-.2.1-.4.2-.6.1-.1.1-.3 0-.4z"/><path class="st2" d="M129.1 129c.1.1.1.3 0 .4 0 .2-.1.4-.2.6v.2c-.1.1-.1.2-.1.3-.1.3-.2.5-.3.8-.2.5-.5.9-.8 1.4-.7 1.2-1.3 2.4-1.8 3.7.4-1.7.9-3.3 1.6-4.8v-.1c.5-.5.9-1.1 1.5-1.6-.2-.1-.4-.2-.6-.4 0-.1.1-.1.1-.2l-.1.2-.5-.3c.3-.3.8-.4 1.2-.4h.1c-.2 0-.1 0-.1.2z"/><path class="st0" d="M129 128.8c-.4 0-.9.1-1.2.4l-.2-.1-.1.2v.1c-.2.1-.4.2-.6.4.3-.3.6-.7 1-1l.3-.1c.3-.2.6-.1.8.1z"/><path class="st2" d="M128.3 129.5c.2.1.4.2.6.4-.5.5-1 1-1.5 1.6.4-.7.7-1.3.9-2z"/><path class="st0" d="M128.9 41.7c-.2 0-.3.1-.4.2-.3-.2-.6-.4-.8-.6l.6-.2c.2.2.3.4.6.6zM128.3 41.1l-.7.2c-.3-.3-.6-.6-.8-1-.2-.4 0-.8.3-1 .3-.2.7-.1.9.2.2.4.5.8.7 1.3-.1.1-.2.2-.4.3z"/><path class="st2" d="M128.4 129.3c0 .1 0 .1-.1.2 0 0-.1 0-.1-.1l.2-.1zM128.2 129.5c.1 0 .1 0 0 0-.2.7-.5 1.3-.7 2v.1l-1.5 1.8c.3-.8.6-1.7 1-2.5.3-.6.8-1 1.2-1.4z"/><path class="st2" d="M127.7 129.2l.5.3c-.5.4-.9.9-1.3 1.3.2-.5.4-1 .6-1.4v-.1c.1 0 .2-.1.2-.1z"/><path class="st0" d="M127.7 132.6c.2-.4.5-.9.8-1.4l-.9 2.4c-.5.9-.9 1.8-1.3 2.8-.1 0-.2.1-.2.1l.1.1h-.3v-.1c0-.1 0-.2.1-.2.3-1.3.9-2.5 1.7-3.7zM127.8 128.8l-1 1c-.3.2-.6.4-.9.7-2 2.1-3.8 4.4-5.3 6.8v.1c-.3.4-.7.8-1.1 1.2 0-.1-.1-.2-.1-.4 2-3.5 5-7.3 8.4-9.4zM127.6 129.1l.2.1c-.1.1-.2.1-.2.1v-.2zM127.6 41.3c.2.2.5.4.8.6-1.1.5-2.2.8-3.3 1-.1-.1-.2-.1-.3-.2-.5-.1-1-.3-1.4-.5 1.4-.1 2.9-.4 4.2-.9zM126.8 136.4c1.8-.8 3.7-1.5 5.6-2.1-1.9.7-3.7 1.8-5.7 2.4 0-.1 0-.2.1-.3z"/><path class="st2" d="M127.5 129.4c-.2.5-.4.9-.6 1.4-2.4 2.6-4.3 5.5-6.5 8.1-.2.2-.4.5-.7.7v-.7l1-1.6v-.1c0-.1.1-.1.1-.1 1.9-2.6 3.9-5.1 6.1-7.4l.6-.3z"/><path class="st0" d="M127.5 133.6c-.3.8-.5 1.7-.7 2.6-.2.1-.4.1-.5.2.3-1 .7-1.9 1.2-2.8z"/><path class="st0" d="M126.8 136.2v.2l-.5.2v-.2c.2 0 .4-.1.5-.2zM126.8 136.4c0 .1 0 .2-.1.4 0-.2 0-.3.1-.4z"/><path class="st0" d="M126.8 136.4c-.1.1-.1.3-.1.4l-.3.1c0-.1-.1-.1-.2-.2 0 0 0-.1.1-.1l.5-.2z"/><path class="st0" d="M126.7 136.8c0 .2 0 .3-.1.5-.1.1-.2.1-.3.1-.2-.1-.3-.2-.5-.4v-.3h.3l.1.1c0 .1 0 .2-.1.2l.2-.1.2.2c0-.1 0-.2.2-.3z"/><path class="st0" d="M126.6 136.8c0 .1 0 .2-.1.2l-.2-.2h.3z"/><path class="st2" d="M126.6 137.2v.2h-.2l-.1-.1c.1 0 .2 0 .3-.1zM126.6 137.4v.1s-.1-.1-.2-.1c.1.1.1.1.2 0zM126.3 137.4l.1.1c-.2.1-.5.1-.7.1 0-.1 0-.3.1-.4.1.1.3.2.5.2z"/><path class="st0" d="M126.4 136.9l-.2.1c0-.1 0-.1.1-.2l.1.1zM126 136.5c.1 0 .2-.1.2-.1v.2s-.1 0-.1.1l-.1-.2zM125.8 137c.2.1.3.2.5.4-.2 0-.4 0-.5-.2v-.2z"/><path class="st0" d="M126.3 136.6s0 .1-.1.1l-.1-.1h.2z"/><path class="st2" d="M126.9 130.8c-.3.9-.7 1.7-1 2.5v.1c-2.2 2.8-4.2 5.8-6.9 7.9-1.8 1.4-4.1 1.8-6.4 2-.3-.1-.7-.1-1-.3 1.3-.3 2.5-.6 3.6-1 .9-.2 1.8-.5 2.5-.9h.1c.1 0 .2-.1.4-.2.1.1.3.2.5.2h.2c.4-.1.6-.5.7-.9v-.5c.2-.2.5-.4.7-.7 2.3-2.7 4.2-5.6 6.6-8.2z"/><path class="st0" d="M125.8 136.5s0 .1 0 0c0 .1 0 .1 0 0zM125.8 136.6c0 .1 0 0 0 0zM125.8 136.7v.3-.1-.1-.1z"/><path class="st2" d="M125.8 136.7c0 .1-.1.1-.1.1v.1c-.1 0-.2-.1-.2-.2h.3z"/><path class="st0" d="M125.8 137v0zM123.3 43.2c-.1-.2-.4-.2-.6-.1-.1 0-.2-.1-.3-.1 0-.4.3-.7.7-.7h.3c.5.2.9.4 1.4.5.1 0 .2.1.3.2.2.2.3.5.2.7-.6.1-1.3.2-1.9.1.1-.2.1-.4-.1-.6z"/><path class="st0" d="M125.3 43.6c-.1.2-.3.4-.5.4-.5.1-1.1.1-1.6 0l.1-.1c.1 0 .1-.1.1-.2.6.1 1.3 0 1.9-.1z"/><path class="st0" d="M122.8 43.7c-.2-.1-.3-.2-.3-.4l.1-.1c.1 0 .1-.1.2-.1.2.1.4.1.6.1.1.1.2.4.1.5h-.3c-.2.1-.3 0-.4 0z"/><path class="st0" d="M123.4 43.7c0 .1 0 .1-.1.2l-.1.1c-.2 0-.4 0-.6-.1 0-.1.1-.2.2-.2.1.1.2.1.3.1l.3-.1zM123.3 43.2c-.2 0-.4-.1-.6-.1.2-.1.5-.1.6.1z"/><path class="st0" d="M122.8 43.7c-.1.1-.1.2-.2.2l-.5-.2.4-.4c0 .2.1.3.3.4zM122.7 43.1s-.1.1-.2.1l-.1.1V43c.1 0 .2 0 .3.1z"/><path class="st0" d="M122.6 43.9c.2 0 .4.1.6.1-3 3.4-5.7 7-8.3 10.8v-.2c0-.2-.1-.4-.3-.4 2.4-3.6 5.1-7.1 8-10.3z"/><path class="st0" d="M122.1 43.7l.5.2c-2.9 3.2-5.6 6.7-8 10.3-.2 0-.4.2-.4.4v.3c-2.1 3-4 6.1-6 9-5.3 7.9-11.8 15-17.6 22.6 0-.1-.1-.2-.2-.3 2.4-3.4 4.9-6.8 7.5-10 8.5-10.5 15.1-22.5 24.2-32.5zM120.6 137.3l-1 1.6c0-.2 0-.3-.1-.5.5-.3.8-.7 1.1-1.1z"/><path class="st0" d="M119.7 139.6c-.2.3-.5.5-.8.7 0-.1-.1-.3-.2-.3 0-.2 0-.4-.1-.6.2.2.6.2.7 0l.1-.1.2-.4c.1.3.1.5.1.7z"/><path class="st0" d="M118.8 140.7c.1-.1.1-.2.1-.3.3-.2.5-.5.8-.7v.5c0 .4-.2.8-.7.9h-.2c-.2 0-.4-.1-.5-.2l.5-.2c-.1 0 0 0 0 0zM119.6 139l-.2.4c-.1.3-.5.4-.7.2 0 0-.1 0-.1-.1v-.1c.1-.1.3-.2.4-.4.2-.2.4-.3.6-.5.1.1.1.3 0 .5z"/><path class="st0" d="M119.5 138.1c0 .1.1.2.1.4-.2.2-.4.4-.6.5l.5-.9z"/><path class="st0" d="M119.5 138.1l-.5.9c-.1.1-.2.2-.4.3 0-.2-.1-.4-.1-.5.2-.4.5-.9.8-1.3 0 .2.1.4.2.6z"/><path class="st0" d="M112.6 131.7c0-.3 0-.5-.1-.8 2.2 1.5 5.5 3.8 6.7 6.5-.3.4-.5.9-.8 1.3-.1.2-.1.4.1.6l-.9.6c-.5-1.6-1.3-3.1-2.4-4.4-1.1-1.1-2.3-2.1-3.6-3 .1 0 .3-.1.4-.2 0 0 .1-.1.2-.1h-.9c.1.1.2.2.4.3-.7.1-1.4-.4-1.5-1.1-.1-.4.1-.8.3-1.1.1-.2.3-.3.5-.4.1.5.4 1 .8 1.4.1.1.2.1.3 0 .1-.1.1-.3.2-.4.1.3.2.5.3.8zM118.9 140.4c0 .1 0 .2-.1.3v-.2l.1-.1zM118.9 140.4s-.1.1-.2.1v-.4c.1 0 .2.2.2.3zM118.8 140.5v.2l-.1.1-.4.1.5-.4z"/><path class="st0" d="M117.9 140.5s-.1-.3-.2-.5c.2-.1.4-.1.6-.1.2 0 .3 0 .5.2v.4l-.6.4c-.1-.1-.2-.2-.3-.4z"/><path class="st0" d="M118.6 139.5c.1.2.1.4.1.6-.1-.1-.3-.2-.5-.2-.2.1-.4.1-.6.1v-.1l.9-.6c.1.1.1.1.1.2z"/><path class="st0" d="M118.6 139.3v.1c0 .1-.1 0 0-.1zM118.6 139.3c-.2-.1-.2-.3-.1-.5.1.1.1.3.1.5zM118.2 140.9c-.1.1-.2.1-.4.2.2-.1.3-.2.4-.2z"/><path class="st4" d="M117.8 40.8c1.1 1.4 2.6 2.4 4.3 2.9-9.1 9.9-15.7 22-24.2 32.5-2.6 3.2-5.1 6.6-7.5 10-.3-.4-.8-.7-1.1-1-.6-.5-1.1-1.2-1.7-1.8 1.8-2.6 3.5-5.2 5.3-7.8 3.6-5.5 8.6-10.6 12.6-15.9 4.5-6.1 8.9-12.2 12.3-18.9z"/><path class="st0" d="M118.2 140.9c-.1 0-.2.1-.3.2h-.1c-.8.3-1.7.6-2.5.9-1.5.3-3.1.5-4.6.6-.2-.1-.3-.2-.4-.2 2.6-.4 5.2-1.1 7.7-1.9 0 .1.1.3.2.4zM117.5 40.4c-.1-.1-.2-.3-.2-.4 0 0 0-.1.1-.1.1-.2.4-.3.6-.2.2.1.3.4.2.6-.1.2-.2.3-.2.4l-.5-.3z"/><path class="st0" d="M117.9 140.5c-2.5.8-5.1 1.4-7.7 1.9-.1 0-.2-.1-.3-.2-.1-.1-.2-.1-.3-.1.1-.2.3-.3.6-.3 2.8-.3 5.1-.6 7.2-1.8h.2c.2.2.2.3.3.5zM117.5 40.4l.3.4c-3.4 6.7-7.8 12.9-12.3 18.9-4 5.3-8.9 10.4-12.6 15.9-1.7 2.6-3.5 5.2-5.3 7.8-.1-.1-.3-.2-.4-.3-.1-.1-.2-.1-.3-.1 1.8-2.6 3.6-5.2 5.3-7.8 2-3.1 4.9-5.6 7.1-8.6s4.3-5.7 6.5-8.6c.4-.1.7-.4.7-.8v-.1c4-5.3 7.7-10.8 11-16.7z"/><path class="st2" d="M117.7 139.9c0 .1 0 .1 0 0-.1.1-.2.1-.2.1s.1 0 .2-.1z"/><path class="st5" d="M117.7 139.9c-.1 0-.1.1-.2.1-7.3 1.6-14.7 2.6-22.2 2.8-6.7.2-13.4-.5-20 0l1.2-1.3 2.7-3c1.1.4 2.3.8 3.4 1 2.4.5 4.8.6 7.2.1l.2.2c.3.3.7.3 1.1.1 2.1-1.1 3.3-6.2 4-8.3.4-1.2.7-2.3.9-3.5.6-.4 1.2-.9 1.6-1.5 2.6.3 6.4.4 8.6-1.4h.1l.1-.1.2-.2c.7-.5 1.2-1.2 1.6-1.9 1.6.7 2.6 2.3 2.6 4-.1 1 0 2 .2 3-.2.1-.4.2-.6.4-.5.5-.5 1.4.1 1.8.3.3.7.4 1.1.3 1.3.9 2.5 1.9 3.6 3 1.2 1.3 2 2.8 2.5 4.4z"/><path class="st0" d="M117.2 40c.1.1.2.3.2.4-3.2 5.8-6.9 11.4-11 16.7 0-.5 0-1.1-.1-1.6 4-4.9 7.6-10.1 10.9-15.5zM117.4 140.1c-2.1 1.2-4.5 1.4-7.2 1.8-.2 0-.4.1-.6.3-.2 0-.4.2-.4.4-11.4 1.8-24 1-34.6 1l.7-.7c6.6-.5 13.4.2 20 0 7.5-.3 14.9-1.2 22.1-2.8zM111.8 20.5c2.8-4.4 4.8-9.2 4.7-14.5 0-1.7-.2-4.2-1.8-5 .1-.2 0-.4-.2-.5h-.7c.1-.1.2-.2.4-.1 4.8 1.9 3.3 9.7 1.8 13.5-2.7 6.9-7.2 13.9-13.4 18-.1-.1-.1-.2-.2-.2.4-.3.8-.5 1.2-.8h.1c.3.1.5-.2.4-.5 3-2.8 5.5-6.5 7.7-9.9z"/><path class="st0" d="M116.5 6c.1 5.2-1.9 10.1-4.7 14.5-2.2 3.3-4.7 7.1-7.8 9.8 0-.1-.1-.1-.1-.1-.1-.1-.2-.1-.2-.2 3.4-3.4 6.3-7.3 8.5-11.6 2-3.6 6.6-13.4 2.1-17.1.2 0 .4-.1.4-.3V.9c1.6 1 1.8 3.4 1.8 5.1z"/><path class="st2" d="M117.8 141.1c-.8.5-1.6.8-2.5.9.8-.2 1.7-.6 2.5-.9z"/><path class="st0" d="M111.5 66.1c.2 0 .4-.1.4-.4v-.2c1 .9 2 2 2.8 3.1.9 1.3 2.8 4.7.8 5.9-.1.1-.3 0-.4-.1.1-.2.2-.4.2-.6 0-.1 0-.2-.1-.3h-.1c-.1 0-.1 0-.2.1.1-.7 0-1.5-.2-2.2-.5-1.2-1.1-2.2-2-3.2-1.3-1.4-3-2.6-4.1-4.1l.2-.2c.7.5 1.5 1.1 2.4 1.9h.1c0 .1.1.1.1.2-.1 0 0 0 .1.1 0-.1 0 0 0 0z"/><path class="st0" d="M114.9 73.9v-.4c.1 0 .1 0 .2-.1.1 0 .2.1.3.2v.1c-.1.2-.1.4-.2.6h-.1c-.1-.1-.1-.3-.2-.4z"/><path class="st0" d="M115.1 74.3c-.8 1.6-3 2.8-4.3 3.8-1.6 1.3-3.4 2.5-5.2 3.6 0-.2-.1-.4-.2-.6 3.4-2.2 6.6-4.7 9.6-7.4 0 .3 0 .5.1.6zM114.5 55.4c-.2.3-.4.5-.6.8.1-.4.2-.9.2-1.3.2-.2.3-.5.5-.7.2 0 .3.2.3.4v.2c-.1.2-.3.4-.4.6z"/><path class="st0" d="M114.5 55.4c.2-.2.3-.5.5-.7-.2 2-.7 4-1.5 5.8-.7 1.6-1.2 3.3-1.5 5l-.4-.4c.1-1.7 2.4-7 2.9-9.7zM114.9 73.5v.4c-3 2.7-6.2 5.2-9.6 7.4l-.3-.6c1.8-1.4 3.6-2.6 5.4-4 1.4-.9 2.9-2.8 4.5-3.2z"/><path class="st6" d="M114.7 71.3c.2.7.2 1.4.2 2.2-1.6.4-3.1 2.3-4.4 3.3-1.8 1.3-3.6 2.6-5.4 4-.9-2.3-2.8-4-5.2-4.8 3.1-3.8 5.9-7.9 8.7-12 1.2 1.5 2.8 2.7 4.1 4.1.9.9 1.5 2 2 3.2z"/><path class="st0" d="M114.6 1c0 .2-.2.4-.4.4h-.1l-.3-.3c-.1 0-.2-.1-.2-.2s0-.3.1-.4h.6c.2 0 .3.2.3.5.1-.1.1 0 0 0zM114.6 54.2c-.2.2-.3.5-.5.7v-.3c.1-.3.3-.4.5-.4zM113.9 56.2c.2-.2.4-.5.6-.8-.5 2.7-2.8 7.9-2.9 9.7-.2-.2-.4-.3-.6-.5.2-1 .5-2 1-2.9.7-1.8 1.4-3.6 1.9-5.5z"/><path class="st1" d="M114.2 1.4c4.6 3.7-.1 13.5-2.1 17.1-2.3 4.3-5.1 8.2-8.5 11.6-.3-.2-.5-.4-.8-.5.1-.1.1-.3 0-.4-3.8-6.3-10-13.2-17.5-14.9.3-.3.7-.5 1-.7C93.9 8.8 104.7.3 114.2 1.4c0-.1 0 0 0 0z"/><path class="st0" d="M113.8 1.1l.3.3c-9.4-1-20.2 7.5-27.8 12.3-.4.2-.7.4-1 .7-.2-.1-.3-.1-.5-.1s-.4.1-.4.3c0 .1 0 .3.1.4-9.1 6-17.9 12.6-26.3 19.6l-.5.4c-.2-.2-.4-.3-.6-.5 2.4-2 4.9-3.8 7.2-5.7C72.9 21.5 82 15.1 91.7 9.7c5.3-3 15-9.9 22-8.8 0 .1 0 .2.1.2zM90 87.3h.4c.2 0 .4-.2.4-.4v-.1l-.2-.3c5.8-7.6 12.2-14.7 17.6-22.6 2-2.9 4-6 6-9 0 .5-.1.9-.2 1.3-1.7 2.4-3.4 4.9-5 7.4h-.1c-.2-.1-.4.2-.3.4s.1.1.1.1c-2.8 4.1-5.6 8.1-8.7 12-.2-.1-.3-.1-.5-.1-.3-.1-.4.3-.1.5.1 0 .1 0 .2.1-.2.3-.4.5-.6.8-8.2 10-15.2 21.6-24.5 30.9-.1.1-.3.1-.5 0l-.1-.1c-.1-.1 0-.3.1-.4 5.8-6.2 10.7-13.4 15.7-20.5h.3z"/><path class="st0" d="M113.8.5c-.1.1-.1.3-.1.4-7-1.1-16.6 5.8-22 8.8-9.7 5.4-18.8 11.8-27.4 18.9-2.3 1.9-4.8 3.8-7.2 5.7H57v.1c-2 1.6-3.9 3.3-5.7 5.2-3.7 3.9-7.4 8-11.1 12-2.1 2.2-4.1 4.4-6.2 6.7-.2-.3-.7-.1-.6.2 0 .1.1.2.1.3-1.2 1.3-2.5 2.5-3.8 3.8-.6.6-1.1 1.1-1.7 1.6-.1-.2-.3-.2-.4-.1-.1.1-.2.2-.2.3v.5c-.9.9-1.9 1.8-2.8 2.6-5.1 4.4-10.8 7.5-16.8 10.6h-.2c-.2.1-.4 0-.5-.1l.2-.2c12.3-6.7 21.4-15 30.9-25.1 8.7-9.4 17.3-18 27.3-26 8.9-7 18.4-13.4 28.2-19 3.3-2.1 6.8-3.9 10.3-5.6l3.4-.7c.2 0 .2-.3.1-.5 2.1-.5 4.2-.7 6.3-.4zM112.5 131c.1.2.1.5.1.8-.1-.3-.2-.5-.3-.8v-.1s.1.1.2.1zM112.5 130.9c-.1 0-.1-.1-.2-.1v-.2l.2.3z"/><path class="st7" d="M108.9 63.6c1.7-2.5 3.3-4.9 5-7.4-.6 1.9-1.3 3.7-2.1 5.5-.5.9-.8 1.9-1 2.9-.5-.4-1.2-.7-1.9-1z"/><path class="st0" d="M112 126c.5 1.5.6 3.1.4 4.6-.2-.2-.4-.4-.6-.5-.5-3.8.4-5.3-3.4-7.3.1-.1.1-.2.1-.2 1.5.6 3.1 1.6 3.5 3.4zM115.3 142c-1.2.4-2.4.7-3.6 1-.3-.1-.7-.2-1-.4 1.5-.1 3-.3 4.6-.6z"/><path class="st0" d="M111.8 130.1c.2.1.4.3.6.5v.2l-.1-.1c.1.2.1.5-.1.6-.1.1-.2.1-.3 0-.4-.4-.7-.8-.8-1.3.1-.1.4-.1.7.1z"/><path class="st0" d="M112.2 130.7l.1.1v.1s-.1-.1-.1-.2zM112.2 132.3c-.1 0-.1.1-.2.1-.1.1-.2.1-.4.2-.1-.1-.2-.2-.4-.3h1z"/><path class="st2" d="M111.6 143.1c.3.1.7.2 1 .3l-1.5.1c-.1 0-.3-.1-.4-.2l.9-.2z"/><path class="st0" d="M111.5 65.2c.2.1.3.2.4.4v.2c0 .2-.2.4-.4.4l-.3-.3h-.1c-.2-.3-.2-.7-.2-1 .3 0 .5.1.6.3zM111.8 130.1c-.2-.2-.5-.2-.8-.1-.2-1-.3-2-.2-3 0-1.7-1.1-3.3-2.6-4 0-.1.1-.2.1-.2 3.9 1.9 3 3.5 3.5 7.3z"/><path class="st0" d="M111.5 66c-.1 0-.1 0-.2-.1s-.1-.1-.1-.2l.3.3zM110.7 142.6c.3.2.7.3 1 .4l-1 .2c-.4-.1-.7-.3-1-.6h.5c.2.1.3.1.5 0z"/><path class="st2" d="M111.1 143.5l-.9.1h-.2-.1c.2-.1.5-.1.8-.2.1 0 .2 0 .4.1z"/><path class="st0" d="M110.9 64.7c0 .3.1.7.2 1-.9-.8-1.7-1.4-2.4-1.9l.2-.2c.7.2 1.4.6 2 1.1zM105.5 43.2c-.1 0-.1.1-.1.1v.2c-.1 0-.1-.1-.2-.1-.2-.2-.2-.5.1-.5 1.4.1 2.8.3 4.2.7.3.2.5.5.8.6.1.1.2 0 .2 0v-.1c.1.2 0 .5-.2.6h-.1c-1.5.1-3.1-.3-4.4-1-.1-.2-.1-.3-.2-.5 0 .1-.1 0-.1 0zM110.7 143.3c-.3.1-.5.1-.8.2-.1-.1-.2-.1-.3-.2-.1-.2-.2-.5-.1-.7l.8-.1c.1.1.3.2.4.2-.1 0-.3 0-.4.1h-.5c.2.1.5.3.9.5z"/><path class="st0" d="M110.2 43.8c.1 0 .1 0 .2.1.1 0 .2.1.2.2v.1c0 .1-.1.2-.2.2h-.1c-.3-.2-.6-.4-.8-.6.2-.1.5 0 .7 0z"/><path class="st0" d="M110.6 44l-.2-.2c-.1 0-.1 0-.2-.1-1.9-2.1-3.1-5.3-4.9-7.5-1.8-2.5-3.9-4.8-6.2-6.9V29c1 .7 2 1.4 2.9 2.3l-.2.1c-.1.1-.1.2 0 .3.1.1.2.1.3 0l.3-.1c3.6 3.7 6.2 8.4 8.2 12.4zM109.9 142.2c.1.1.2.1.3.2l-.8.1c0-.1.1-.2.2-.4.1 0 .2.1.3.1z"/><path class="st0" d="M110.2 43.8c-.2-.1-.5-.1-.7-.2-1.9-1.7-2.6-4.3-4.2-6.3-2-2.7-4.1-5.2-6.4-7.6.1 0 .2-.1.2-.1v-.1c2.3 2 4.4 4.3 6.2 6.9 1.8 2.1 2.9 5.3 4.9 7.4z"/><path class="st2" d="M110 143.5h-.2.2z"/><path class="st0" d="M109.5 143.2c.1.1.2.2.3.2h-.1l-.2-.2z"/><path class="st0" d="M109.5 143.2c.1.1.1.2.2.3-11.5 2.4-24.7 1.7-35.5.7-.1 0-.2 0-.3-.1l.6-.6c10.6 0 23.2.8 34.6-1-.1.2 0 .5.2.6.1 0 .2.1.2.1z"/><path class="st0" d="M109.5 143.2c-.1 0-.1 0-.2-.1-.2-.1-.3-.4-.2-.6l.2-.1c0 .4.1.6.2.8z"/><path class="st0" d="M109.6 142.2c-.1.1-.1.2-.2.4l-.2.1c0-.3.2-.5.4-.5zM108.9 63.6c-.1.1-.1.2-.2.2 0 .1-.1.2-.2.2 0 0 0-.1-.1-.1-.1-.2.1-.4.3-.4l.2.1zM106.3 99.1c2.2 5.5 5.6 17 2.2 23.3l-.4-.2c-.3-.1-.5.3-.2.4.1.1.2.1.3.2-.4.7-1 1.4-1.6 1.9.2-.2.4-.5.6-.7.1-.1 0-.2 0-.2h-.4c4.2-6.2.7-18.2-.9-24.7 0-.1.1-.3.1-.4.1.2.2.3.3.4z"/><path class="st0" d="M108.3 122.7c0 .1-.1.2-.1.2-.1-.1-.2-.1-.3-.2-.3-.2 0-.5.2-.4l.4.2c0 .1-.1.2-.2.2zM106.4 1.3c.4-.1.8-.3 1.2-.4.1.1.1.4-.1.5l-3.4.7c.7-.3 1.5-.6 2.3-.8z"/><path class="st0" d="M107.4.9c.1 0 .1 0 .2.1-.4.1-.8.2-1.2.4-5.5.6-11 1.5-16.4 2.7-3.2.9-6.6 2.3-9.9 2.5l-.1-.1-.4-.2c.1-.2.2-.3.4-.3 9.3-1.7 17.8-4.7 27.4-5.1zM105.9 99.2c1.6 6.5 5.2 18.5.9 24.7-.3.1-.6.2-.9.2 3.5-8.3.8-15.4-.3-23.8.1-.3.2-.7.3-1.1z"/><path class="st0" d="M106.3 124.5c.2-.2.3-.4.5-.6h.2c.1 0 .2 0 .2.1v.2c-.2.2-.4.5-.6.7-.1.1-.2.1-.2.2l-.1.1c-.2.1-.4-.1-.4-.3.1-.1.3-.2.4-.4z"/><path class="st0" d="M105.9 124.2c.3-.1.6-.2.9-.2-.1.2-.3.4-.5.6-.2.1-.4.3-.6.3v-.2l.2-.5z"/><path class="st8" d="M109.5 43.6c-1.4-.4-2.8-.6-4.2-.7-.3 0-.3.3-.1.5.1 0 .1.1.2.1-.1 1.6.2 3.2.1 4.7-.1 1.4-.3 2.8-.6 4.2l-1.2-1.2c-.8-.7-1.8-1.3-2.7-1.9s-1.5-1.3-2.3-2c.8-5.6-.7-11.2-2.1-16.6 0-.2-.4-.2-.4 0 .4 3.5 1 6.9 1.3 10.4.2 1.6.2 3.2.2 4.8-.1 3.8-1.6 1.5-3.5 0-4.8-4.2-8.1-10.5-10.8-16.2-.2-2.2-.7-4.3-1.4-6.4 0-.1-.1-.1-.2-.1l-.1.1c.4 1.9.7 3.8.8 5.7v.2c.1 5-.3 10-1.2 14.9v.2c-.6-.6-1.3-1.2-2.1-1.5-1-.6-2-1.2-3.1-1.8H76v-.5c0-.5-.6-.5-.7-.1-.5 1.4-.7 2.9-.6 4.3-2.2-3.2-3.9-6.7-6.2-9.9h-.1c-.1 0-.1-.1-.1 0-.1.2-.2.2-.3.2 0 0-.1.1 0 .2-.1 4.1-1.8 8.3-1.2 12.3 0 .1 0 .1.1.2-2.1-2.1-3.9-4.4-5.4-7-1.1-1.8-2.1-4.5-3.7-6l.5-.4c8.4-7 17.1-13.5 26.2-19.5 0 .1.1.1.1.1 3.9 1.4 7.5 3.7 10.4 6.6 2.3 2.2 4.1 5 6.3 7.2-.9-.4-1.8-.6-2.8-.7-.1-.2-.3-.3-.5-.5-.6-.4-1 .5-.5.9.2.1.8 1.4 1.3 1.2 2.3 2.4 4.4 4.9 6.4 7.6 1.6 2.2 2.4 4.8 4.3 6.4z"/><path class="st0" d="M105.6 56.6c.2-.4.5-.7.8-1 .1.5.1 1 .1 1.6l-.7.9c-.4.1-.8 0-1-.4.2-.4.5-.7.8-1.1z"/><path class="st0" d="M106.4 57.1c0 .5-.3.8-.7.9l.7-.9zM106.3 125.1l-.1.1.1-.1zM106.3 55.5c-.3.4-.5.7-.8 1 0-.5-.1-1-.2-1.6v-.2c.1-.4.2-.8.2-1.3.5.8.7 1.5.8 2.1z"/><path class="st6" d="M105.6 100.4c1.1 8.4 3.8 15.5.3 23.8-1.1.4-2.2.8-3.3 1.1-1.4.2-2.9.3-4.3.3.2-.3.4-.5.6-.8 1.2-1.7 2.1-3.6 2.8-5.6.1-.3-.3-.4-.5-.2-1.1 1.5-2 3.2-3 4.8-.6.9-1.2 1.7-1.9 2.5.4-2.1.2-4.3-.4-6.3 0-.1 0-.1-.1-.2 3.5-4.6 6.4-9.6 8.5-15 .5-1.4 1-2.9 1.3-4.4z"/><path class="st0" d="M105.8 124.8c0 .2.2.4.4.3-2.2 1.8-6 1.7-8.6 1.4.1-.2.2-.3.3-.4 2.8 0 5.3.1 7.9-1.3zM105.8 43.8c1.2 2.9.5 6.6-.2 9.8-.1-.2-.2-.4-.4-.6.6-3.2 1-6.1.3-9.3.1 0 .2.1.3.1zM100 112.1c4.1-6.8 6.2-13.4 6.1-21.4 0-3-.4-5.9-1.2-8.8.2.2.5.2.6 0 .1 0 .1-.1.2-.1 1.8 4.8 1.5 11.6.4 17-.2 0-.5 0-.5.4l.2 1.2c-.4 1.5-.8 3-1.4 4.5-2.2 5.4-5 10.4-8.5 15-.1-.1-.4-.2-.5 0-.1.1-.1.2-.1.3v.5c-5.1 6.8-11.9 12.2-19.8 15.7-.2-.1-.5-.3-.7-.5l.3-.1c11-5 18.7-13.3 24.9-23.7z"/><path class="st0" d="M106 90.7c.2 8-2 14.6-6.1 21.4-6.2 10.4-13.8 18.7-25 23.5l-.3.1-.1-.1c-.2-.2-.3-.3-.5-.4 2.6-1.1 5.2-2.4 7.5-4 9.2-6.3 17.7-16.1 21.4-26.8 2.4-6.7 5.8-24.2-3.4-28.1l.2-.2c2.4.6 3.9 2.6 4.8 5.1 0 .2 0 .4.2.6.9 3 1.3 6 1.3 8.9z"/><path class="st0" d="M106 98.9c0 .1 0 .3-.1.4l-.3 1.2-.2-1.2c0-.4.3-.5.6-.4zM105.9 124.2l-.2.4v.2c-2.5 1.4-5.1 1.3-7.9 1.3.1-.2.2-.3.3-.5 1.5 0 2.9-.1 4.3-.3 1.3-.3 2.4-.6 3.5-1.1zM105.6 43.6c-.1 0-.1-.1-.2-.1v-.2c0-.1 0-.1.1-.1h.1l.1.1c.1.2.2.3.2.5-.2 0-.3-.1-.3-.2zM104.7 57.7c.2.3.6.5 1 .4-2.2 2.9-4.3 5.7-6.5 8.6s-5.1 5.5-7.1 8.6c-1.7 2.6-3.4 5.2-5.3 7.8-.3.1-.4.3-.4.6-4.1 5.8-8 11.4-12.8 16.6-1 1.1-1.9 2.2-2.8 3.4-.1.1-.2.3-.3.5-.7-2.2 9.3-12.5 10.6-14.3 3.8-5.3 7.3-10.8 11.1-16h.1c.2.1.3 0 .4-.2 0-.1 0-.3-.1-.4l.2-.2c1.7-2.3 3.4-4.6 5.2-6.8.1-.1.2-.2.2-.3 2.2-2.9 4.4-5.6 6.5-8.3z"/><path class="st0" d="M105.6 43.6c.7 3.2.3 6.2-.3 9.3-.1-.2-.2-.4-.4-.5.3-1.4.5-2.8.6-4.2.1-1.6-.2-3.2-.1-4.7 0 .1.1.1.2.1zM105.7 53.6c-.1.4-.2.8-.2 1.3v.2l-.3-.9c.1-.4.2-.8.2-1.2l.3.6zM105.3 81.3c.1.2.2.4.2.6 0 0-.1.1-.2.1-.2.2-.5.2-.6 0-.1-.2-.1-.4-.2-.6 0-.2.1-.3.3-.4l.2-.2c.2.2.3.3.3.5zM105.4 55c.1.5.2 1 .2 1.6-.3.4-.6.7-.9 1.1-.1-.1-.1-.3-.1-.5.3-2.8-1.3-4.4-3.4-6-1.1-.7-2-1.5-2.8-2.5 0-.2.1-.4.2-.7 1.4 2.2 4.5 3.2 6.1 5.5-.1.4-.2.7-.2 1.1-.2.6.6.9.9.4z"/><path class="st0" d="M105 54.2c.2.3.3.6.3.9-.2.4-1.1.2-.9-.4.1-.4.2-.7.2-1.1.2.1.3.3.4.6zM104.9 52.4c.1.2.3.3.4.5-.1.4-.2.8-.2 1.2-.1-.2-.2-.4-.4-.6.1-.4.1-.7.2-1.1zM105.1 80.7l-.2.2c-.1.1-.2.2-.3.4-.9-2.5-2.4-4.5-4.8-5.1l.2-.2c2.2.8 4.1 2.5 5.1 4.7zM106.4 1.3c-.8.2-1.5.5-2.3.8-4 .8-8 1.5-12 2.4s-7.8 2.5-12 2.7c-.1 0-.3-.1-.4-.2h.1c.3.1.4-.3.3-.5 3.2-.1 6.6-1.4 9.9-2.4 5.4-1.2 10.9-2.1 16.4-2.8z"/><path class="st0" d="M104.6 81.3c.1.2.2.4.2.6-.2-.1-.3-.3-.2-.6zM104.9 52.4c-.1.3-.1.7-.2 1-1.5-2.3-4.7-3.3-6.1-5.4 0-.2.1-.4.1-.6.8.6 1.5 1.4 2.3 2s1.9 1.2 2.7 1.9c.4.4.8.7 1.2 1.1z"/><path class="st7" d="M104.6 57.2c0 .2 0 .3.1.5-2.1 2.7-4.3 5.5-6.5 8.2.1-.2 0-.5-.3-.6h-.1C84 63 66.7 65.1 53.5 69.9c0-3.9-1-7.7-1.3-11.6-.1-1.7 0-3.7-.2-5.6l1.2 1.8c.2.2.6.2.8 0 .1-.1.1-.2.2-.3.8-3.6 1.9-7.1 2.9-10.7.6-1.8.9-3.7 1-5.7.8 1.5 1.7 3 2.5 4.4 1.4 2.6 3.2 5.1 6 6.4.3.1.6-.2.4-.5l-.3-.3c.2.1.4.1.5-.1 0 0 0-.1.1-.1.8-3.7 1.1-7.4 1.2-11.1 2 3.6 3.8 7.2 6.3 10.4.3.4.8.1.8-.3.1-1.4.1-2.8.2-4.2.6.5 1.3.9 2 1.2 1.1.5 2 1.2 3 1.8.2.1.5 0 .6-.2.1-.1.1-.3 0-.4.1.1.4.1.5-.1 0 0 .1-.1.1-.2 1-4.2 1.5-8.5 1.5-12.8 3 6.9 7.1 14.8 14 17.9.3.2.6.1.7-.2 0 0 0-.1.1-.1.1-.2.1-.4.2-.6.8 1 1.7 1.8 2.8 2.5 2 1.6 3.5 3.2 3.3 6zm-9.7-5.8c.6 1 2.2 0 1.5-.9-2.7-3.9-9.5-3.5-11 1.4-.1.3.2.6.5.6.2 0 .4 0 .5-.2 1.9-3 6.2-4.4 8.5-.9zM68.2 56c1 .9 2.4-.5 1.4-1.4-4.1-4-11.3-2-13.1 3.2-.3.8 1 1.1 1.2.4 1.8-4.7 7.2-5.3 10.5-2.2z"/><path class="st0" d="M104 30.4c.1.2-.2.5-.4.5h-.1c.1-.3.3-.4.5-.5zM103.3 30.3l.3-.3.2.2.1.1c-.2.1-.3.3-.5.4-.2 0-.3-.1-.4-.2.1.1.2 0 .3-.2z"/><path class="st0" d="M103.6 30.1l-.3.3c-1.4-.8-2.9-1.4-4.4-1.9-.1-.1-.2-.2-.3-.4.9.1 1.9.3 2.8.7.3.3.5.6.8.8.2.2.4.1.6 0 0 0 0-.1.1-.1.2.2.5.4.7.6zM103.4 30.8c-.4.3-.8.6-1.2.8l-.2-.1c.3-.3.6-.5.9-.9.2.1.4.2.5.2z"/><path class="st0" d="M103.3 30.3l-.3.3c-1.3-.5-2.6-1-3.8-1.6-.1-.2-.1-.4-.2-.5 1.4.5 2.9 1.1 4.3 1.8z"/><path class="st1" d="M99.6 76.5c9.2 3.8 5.8 21.4 3.4 28.1-3.8 10.6-12.2 20.5-21.4 26.8-2.4 1.6-4.9 2.9-7.5 4-.5-.2-1 0-1.2.5-2 .8-4 1.4-6 2-4.8 1.4-9.9 1-14.3-1.3l-.3-.1c-2.8-1.4-5.4-3.1-7.7-5.1-2.7-2.1-5-4.6-6.9-7.5 0-.1-.1-.3-.2-.3-1.1-1.7-2-3.4-2.7-5.3-2.5-6.3-.5-15.9 4.7-20.6 0 .9.1 1.8.2 2.7-.1.2 0 .5.2.6h.1c3 .3 6.1 0 9-.8v.2c1.1 1.6 2.4 3.1 4 4.3.3.3.8.3 1 0l.1-.1c.5-1 .7-2.1.7-3.2 0-1 0-1.9-.1-2.9.9-.4 1.8-1 2.4-1.8.3.3.7.3 1 .1.2-.2.3-.4.2-.7-.4-1.6-.8-3.1-1.3-4.6 4.6-.2 7.3-2.5 10-6.2 5.9-8 15.1-13.6 25.3-11.3-3.8 5.2-7.3 10.7-11.1 16-1.3 1.8-11.3 12.2-10.6 14.3-.2-.2-.6-.2-.8 0-4.6-2.2-8.8 1-10.7 5.8-1.1 2.7-1.9 8.2.6 10.1.5 4.5 9 .3 10.7-1.1 3.8-3 5.6-7.2 3.6-10.8.1.2.2.2.4.2 0 0 .1 0 .1-.1 9.3-9.1 16.3-20.7 24.6-30.8.1-.6.3-.9.5-1.1zM103 30.6l-.9.9c-.9-.9-1.9-1.6-2.9-2.3V29c1.2.6 2.5 1.2 3.8 1.6z"/><path class="st0" d="M102.8 29.1c.1.1.1.3 0 .4-.1-.1-.2-.1-.4-.2-5-6.2-9.6-12.6-17.6-14.7.1-.1.3-.2.4-.3 7.6 1.7 13.8 8.6 17.6 14.8z"/><path class="st0" d="M102.8 29.5c-.1.2-.4.3-.6.2 0 0-.1 0-.1-.1-.3-.3-.6-.5-.8-.8.4.1.7.3 1.1.5.2.1.3.2.4.2zM102.3 31.6c.1.1.2.1.2.2l-.3.1c-.1.1-.3 0-.3-.1-.1-.1 0-.2 0-.3l.2-.1.2.2z"/><path class="st0" d="M102.4 29.3c-.3-.2-.7-.3-1.1-.5-2.2-2.3-4.1-5-6.3-7.2-3-2.9-6.5-5.2-10.5-6.6 0 0-.1 0-.1-.1.1-.1.2-.2.4-.2 8.1 2 12.6 8.4 17.6 14.6zM97.4 125.7c-.2 0-.3.2-.3.4-.3.4-.7.8-1.1 1.2.1-.3.1-.7.2-1 .7-.8 1.3-1.7 1.9-2.5 1-1.6 1.9-3.3 3-4.8.2-.2.6-.1.5.2-.7 2-1.6 3.9-2.8 5.6-.2.3-.4.5-.6.8-.2 0-.5 0-.8.1.1 0 .1 0 0 0zM99.8 76.2c-.1.1-.1.2-.2.2-.1-.1-.1-.1-.2-.1-.3-.1-.2-.5.1-.5.1 0 .3.1.4.1 0 .2-.1.3-.1.3zM99.2 29.2v.3c-.2-.1-.3-.3-.5-.4h-.1c-.1-.1-.1-.3-.2-.4.3.1.5.3.8.5z"/><path class="st0" d="M99.2 29v.2c-.3-.2-.6-.4-.8-.5h-.1c-.1 0 0 0 0-.1.3.1.6.3.9.4z"/><path class="st0" d="M98.4 29l.4.4c-.1-.1-.1-.2-.2-.3.2.1.4.2.5.4v.1c0 .1-.1.1-.2.1-.3-.4-.7-.7-1.1-1.1-.1-.1 0-.3.2-.2l.4.6z"/><path class="st0" d="M98.9 28.5c.1.2.2.3.2.5-.3-.2-.6-.3-.9-.4l-.3-.3c.4 0 .7.1 1 .2z"/><path class="st0" d="M98.9 29.8c-.5.1-1.1-1.1-1.3-1.2-.5-.4-.1-1.3.5-.9.2.1.3.3.5.5-.2-.1-.5-.1-.7-.1h-.1s-.2.2 0 .3h.1c-.2 0-.3.1-.2.2.5.4.9.8 1.2 1.2z"/><path class="st0" d="M98.8 29.4l-.4-.4c.1 0 .1.1.2.1h.1c0 .1.1.2.1.3zM98.2 47.2c-.2.1-.2.3-.2.4 0 .1 0 .2.1.3-.1.4-.2.9-.3 1.3-6.2-2.8-11.3-12-14.3-18.4 0-.3 0-.7-.1-1 2.8 5.7 6 12 10.8 16.2 1.8 1.6 3.4 3.8 3.5 0 .1-1.6 0-3.2-.2-4.8-.4-3.5-.9-7-1.3-10.4 0-.2.3-.3.4 0 1.4 5.3 2.9 11 2.1 16.6l-.2-.2c-.1-.1-.3-.1-.3 0z"/><path class="st0" d="M98.6 48c-.1.3-.1.5-.2.8-.2-.3-.3-.5-.4-.8.1-.2.1-.4.1-.7.1-.1.2-.1.3 0l.2.2c.1.1 0 .3 0 .5zM98.6 28.1c.1.1.2.2.3.4-.3-.1-.6-.2-.9-.2-.1-.1-.1-.1-.2-.1h.1c.3-.2.5-.1.7-.1zM98.6 29.1s-.1-.1-.2-.1l-.4-.5.3.2h.1c0 .1.1.2.2.4z"/><path class="st0" d="M98.4 48.7c0 .2-.1.4-.2.6-.1.3-.4.4-.7.4 0 0-.1 0-.1-.1-6.9-3.1-11-11-14-17.9v-1c3 6.4 8.2 15.6 14.3 18.4.1-.4.2-.9.3-1.3.2.4.3.7.4.9zM98.3 28.6l-.3-.1.3.1zM98 28.2l.3.3-.3-.1c-.1-.2-.1-.3-.1-.3s.1 0 .1.1zM53.6 70.3v-.5c13.2-4.8 30.5-6.9 44.3-4.6.3.1.4.3.3.6v.1c-.1.1-.2.2-.2.3h-.2c-14.4-1.9-30.2.8-44.1 4.5l-.1-.4z"/><path class="st0" d="M98 66.2c.1-.1.1-.2.2-.3 0 .1-.1.2-.2.3zM97.9 126.1c-.1.2-.2.3-.3.4-.2 0-.4-.2-.4-.4l.3-.4H98.3c-.2.1-.3.3-.4.4zM98.2 47.2c0 .2 0 .4-.1.7 0-.1-.1-.2-.1-.3 0-.1 0-.3.2-.4z"/><path class="st6" d="M97.7 66.2h.2c-1.8 2.3-3.5 4.5-5.2 6.8 0 .1-.1.1-.2.2-4.1-3-12.2-.7-16.2 1.4-3 1.4-5.7 3.5-7.9 6.1-3.5 4.4-5.6 8.7-11.9 9.3-.6-1.6-1.3-3.1-2.2-4.6.5 1.6.6 3.3 1.1 5s.8 3.3 1.3 5c-2.5 1.2-5 2.2-7.7 3-2.8.6-5.7 1-8.6 1.2.8-3.4 1.1-6.7 2.3-10 1.5-3.6 3.4-7.1 5.7-10.2.2.1.4-.1.4-.2.2-2-1.9-3.9-3.6-5-.1-.6-.2-1.1-.3-1.7 1.3-.1 2.5-.4 3.7-.9 1.3.5 2.7.9 4.1 1.2.7.1 1.1-.9.5-1.1v-1.1c14.3-3.6 30.1-6.2 44.5-4.4z"/><path class="st0" d="M98 28.4h-.1c-.1-.1-.1-.3 0-.3-.1 0 0 .1.1.3zM97.4 125.7l-.3.4c0-.2.2-.3.3-.4z"/><path class="st0" d="M97.1 126.1c0 .2.2.4.4.4-.5.6-1 1.1-1.6 1.5 0-.2.1-.5.1-.7.4-.3.8-.7 1.1-1.2zM96.4 50.5c.6 1-.9 1.9-1.5.9-2.2-3.5-6.6-2.1-8.4 1-.2.2-.5.3-.8.1-.2-.1-.3-.3-.2-.5 1.4-5 8.2-5.4 10.9-1.5zM95.8 120c.6 2.1.8 4.2.4 6.3-.3.3-.6.7-.8 1 .5-2.4.6-4.8.1-7.2.1-.1.2-.2.2-.3.1 0 .1.1.1.2z"/><path class="st0" d="M96 127.3c0 .3-.1.5-.1.7l-.5.2h-.3c.1-.3.2-.7.2-1 .3-.3.5-.7.8-1 .1.4 0 .8-.1 1.1z"/><path d="M92.1 4.5c4-.9 8-1.6 12-2.4-3.6 1.6-7 3.5-10.3 5.6-9.9 5.6-19.3 12-28.2 19-10 8-18.6 16.6-27.3 26-9.6 10.1-18.7 18.4-31 25.1-.1 0-.1.1-.2.2-.7-1 1.7-5.9 2-6.3 1.2-2 2.3-4 3.5-6 2.4-4.2 5.2-8.2 7.8-12.3.2.5.5.9.9 1.3 0 .1.1.1.1.2H21.7c2.4-1.5 4.5-4.7 6.3-6.9s3-6.2 1.8-9c3.9 2.2 8.4 1.9 12.8.9 1.2-.3 5.6-2.3 3.2-4.2-4-3.2-10-2.9-14.7-1.5h.1c3.8-2.3 6.1-6 7.5-10.1.7-2 1.6-7.9-.8-9.2-1.5-.9-4.4 2.3-5.3 3.1-2.8 2.5-5 5.4-5.1 9.4 0 1.2-.3 2.7-.4 4.3-.6-1.1-1.6-2-2.7-2.6 0-1.6-.2-3.3-.2-5 .1-1.8.1-3.6 0-5.3 0-.1-.2-.2-.3-.2-.1 0-.2.1-.2.2-.1.5-.2 1-.2 1.5-2.2.9-4.5 1.7-6.6 2.7-3.2 1.4-5.9 3.8-9 5.4-.2.1-.3.3-.2.5-1.4.4-2.7 1-3.8 1.8-.1.1-.2.4 0 .5.2.2.4.5.6.7-.1 0-.2.1-.3.1-.8.7-1.5 1.6-2.2 2.4-.1.2-.3.3-.4.5 2.4-7.2 5.7-14 9.9-20.3C14 10.8 17 7.4 20.6 4.5c.1-.1.1-.2.1-.3C40.6 1.6 60.2 0 79.8 7c.1.1.2.1.4.1 4.1-.1 7.9-1.7 11.9-2.6z" fill="#308d3a"/><path class="st0" d="M95.4 128.3l.5-.2c-.2 1.2-.5 2.4-.9 3.5-.6 2.1-1.8 7.2-4 8.3-.3.2-.7.1-1-.1l-.2-.2.3-.1c.2 0 .3-.2.4-.4.2 0 .3 0 .4-.1 1.7-2.3 3.4-6.6 4.3-10.7h.2zM95.5 120.1c-.1.2-.2.3-.4.5v-.5c0-.2.1-.4.3-.4.1 0 .2 0 .3.1 0 .1-.1.2-.2.3z"/><path class="st0" d="M95.5 120.1c.5 2.4.4 4.8-.1 7.2-.2.2-.3.4-.4.5-.1.2 0 .4.2.4-.8 4.2-2.5 8.4-4.3 10.7-.1.1-.3.2-.4.1.1-.3 0-.6-.3-.7H90c3.9-4.7 5.6-11.8 5.1-17.9.2 0 .3-.1.4-.3z"/><path class="st0" d="M95.4 127.3c0 .3-.1.6-.2 1-.2-.1-.4-.2-.2-.4.1-.2.2-.4.4-.6z"/><path class="st6" d="M95.1 120.6c.5 6.1-1.1 13.2-5.1 17.9-2-.4-4-.6-6-.6-2.1-.2-6.5-.3-8.7-1.6 7.9-3.5 14.7-8.9 19.8-15.7z"/><path class="st0" d="M92.6 73.2c.1.1.2.3.1.4-.1.1-.2.2-.4.1h-.1l.4-.5z"/><path class="st0" d="M56.8 90.7c-.1-.2-.1-.3-.2-.5 6.3-.7 8.4-5 11.9-9.4 2.1-2.6 4.8-4.7 7.9-6.1 4-2.1 12.1-4.4 16.2-1.4l-.4.5C82 71.5 72.8 77.1 66.9 85.1c-2.7 3.7-5.4 5.9-10 6.2 0-.3-.1-.4-.1-.6zM90.3 86.9c.1-.1.2-.3.3-.4l.2.3c.1.2-.1.5-.3.5H90c.1-.1.2-.2.3-.4z"/><path class="st0" d="M90.6 86.5c-.1.1-.2.3-.3.4-.1-.1-.2-.1-.2-.2.1-.2.2-.3.4-.5 0 .1.1.2.1.3zM90.5 139.2c0 .2-.2.3-.4.4l-.3.1c-.2-.1-.2-.4-.1-.6l.1-.2c.1-.1.2-.2.3-.4h.1c.2.1.4.3.3.7 0-.1 0 0 0 0zM90.4 86.2c-.1.2-.2.3-.4.5-1.1-.8-2-1.8-2.8-2.8.1-.2.2-.3.3-.5.6.5 1.1 1.2 1.7 1.8.4.4.9.6 1.2 1z"/><path class="st0" d="M90 86.7c.1.1.2.1.2.2-.1.1-.2.3-.3.4-.1 0-.2 0-.3-.1l.4-.5zM90 138.5c-.1.1-.2.3-.3.4l-.1.2c-3.4 0-6.8-.3-10.1-1 .2-.4-.3-.7-.6-.5-.2.1-.3.2-.4.3-1.5-.3-2.9-.7-4.3-1.1.4-.2.8-.3 1.2-.5 2.2 1.3 6.6 1.4 8.7 1.6 1.9 0 3.9.2 5.9.6zM90 86.7l-.4.5c-.5-.2-.9-.6-1.2-1 0-.1-.1-.2-.2-.2-.5-.5-.9-1.1-1.4-1.6.1-.2.3-.3.4-.5.8 1 1.8 2 2.8 2.8z"/><path class="st0" d="M89.8 139.6c-2.4.5-4.8.4-7.2-.1-1.2-.2-2.3-.6-3.4-1 .1-.1.2-.3.3-.4v-.1c3.3.7 6.7 1 10.1 1-.1.2 0 .5.2.6z"/><path class="st1" d="M89.7 87.2c-5 7-9.8 14.2-15.7 20.5-.1.1-.1.2-.1.4-.3-.5-.6-1-1-1.5 4.9-7 10.4-13.5 15.6-20.3v-.1c.3.5.7.8 1.2 1z"/><path class="st0" d="M88.3 86.1c.1 0 .2.1.2.2l-.2-.2zM72.5 106.3c-.1-.2-.2-.3-.4-.4 4.8-7 10.1-13.7 16-19.8 0 0 0-.1.1-.1v.1l.2.2v.1c-5.2 6.8-10.7 13.2-15.6 20.3-.1-.2-.2-.3-.3-.4z"/><path class="st1" d="M88.2 86.1c-6 6.2-11.3 12.8-16.1 19.8-.2-.2-.5-.5-.8-.7-.2-.2-.4-.3-.6-.4 3-4.5 7.1-8.3 10.4-12.6 2-2.6 3.9-5.2 5.7-7.8.5.6 1 1.2 1.4 1.7z"/><path class="st0" d="M87.2 83.9c-.1.2-.2.4-.4.5-.2-.2-.3-.4-.4-.7v-.2c0-.1.2-.3.3-.5s0-.1.1-.1.2 0 .3.1c.1.1.3.2.4.3 0 .3-.1.5-.3.6z"/><path class="st0" d="M86.9 83s0 .1-.1.1-.2.3-.3.5c-.1-.3.1-.5.4-.6zM86.5 83.8c.1.2.2.5.4.7-1.8 2.7-3.7 5.3-5.7 7.8-3.3 4.3-7.4 8-10.4 12.6l-.5-.3c.1-.1.2-.2.2-.4l.1.1-.1-.2c.2-.2.2-.4.3-.5.9-1.2 1.8-2.3 2.8-3.4 4.9-5.2 8.8-10.8 12.8-16.6.1.1.1.1.1.2zM84.8 14.6c-.1.1-.3.1-.4.2-.2-.1-.2-.3-.1-.5.1-.1.2-.2.4-.1.2 0 .3.1.5.1-.1.1-.2.2-.4.3zM83 30.6c.2.4.3.8.5 1.2 0 4.3-.5 8.6-1.5 12.8 0 .2-.2.3-.4.3-.1 0-.1 0-.2-.1h-.1c0-.1-.1-.1-.1-.2v-.2c.9-4.9 1.3-9.9 1.2-14.9.3.4.4.8.6 1.1z"/><path class="st0" d="M83.4 30.8v1c-.2-.4-.3-.8-.5-1.2v-.9c.2.4.4.7.5 1.1zM83.4 29.8c0 .3 0 .6.1 1-.2-.4-.4-.8-.5-1.1 0-.2 0-.4-.1-.6.1 0 .2.1.2.1l.3.6z"/><path class="st0" d="M82.9 29.1c-.1-.1-.3 0-.4.1-.1-1.9-.4-3.8-.8-5.7 0-.1.1-.1.1-.1s.1 0 .1.1c.8 2 1.3 4.2 1.4 6.4l-.3-.6c0-.2 0-.2-.1-.2z"/><path class="st0" d="M82.9 29.7v.9c-.2-.4-.3-.8-.5-1.1v-.2c.1-.1.3-.2.4-.1.1.1.1.3.1.5z"/><path class="st0" d="M82.5 29.2v.2c-.1 0-.1-.1 0-.2zM75.9 41.7v-.6h.1c1 .5 2.1 1.2 3.1 1.8.8.4 1.6 1 2.2 1.6 0 .1.1.1.1.2h.1c.1.2 0 .5-.2.6-.1.1-.3.1-.4 0-1-.6-1.9-1.3-3-1.8-.7-.3-1.4-.7-2-1.2-.1-.1-.1-.3 0-.6z"/><path class="st0" d="M81.3 44.6s.1.1.1.2c0 0-.1-.1-.1-.2zM79.6 6.7v-.3l.4.1.1.1c.2.2 0 .6-.3.5h-.1c-.1-.1-.1-.3-.1-.4zM79.6 6.4v.3C60.7-.7 40 .6 20.4 3.9c-.1-.1-.3-.2-.5-.1l-.3.2c0-.1.1-.2.2-.3C39.5-.3 60.7-1 79.6 6.4z"/><path class="st0" d="M79.6 6.7c0 .1.1.3.2.3-19.6-7-39.2-5.4-59.3-2.8 0-.1-.1-.2-.1-.3C40 .6 60.7-.7 79.6 6.7zM79.1 138l-.6-.1c.1-.1.3-.2.4-.3.3-.2.8.2.6.5-.1-.1-.3-.1-.4-.1z"/><path class="st0" d="M79.6 138.1c-.1.2-.2.4-.3.5l-.6-.1c.2-.2.3-.3.5-.4 0-.1.2-.1.4 0zM79.1 138c-.2.1-.3.3-.5.4-.2-.1-.4-.2-.7-.2.2-.1.4-.3.6-.4l.6.2z"/><path class="st0" d="M78.6 138.4l.6.1c-.8 1-1.7 2-2.7 3l-1.2 1.3h-1c-.1 0-.2.1-.2.1 1.4-1.4 2.8-3 4.5-4.5z"/><path class="st0" d="M77.9 138.2c.2.1.5.1.7.2-1.6 1.5-3 3.1-4.6 4.6-.2.1-.3.2-.4.4l-.6.6-.3-.9c.9-.8 1.8-1.7 2.7-2.6.8-.9 1.6-1.6 2.5-2.3z"/><path class="st0" d="M78.5 137.8c-.2.1-.4.2-.6.4-1.3-.4-2.6-.6-3.9-.4-.3.1-.6.1-.9 0 0-.2.1-.4.1-.7l1-.4c1.4.4 2.8.8 4.3 1.1z"/><path class="st0" d="M77.9 138.2c-.9.7-1.7 1.5-2.5 2.3-.9.9-1.8 1.8-2.7 2.6-.4-1.7.1-3.5.4-5.3.3.1.6.1.9 0 1.3-.2 2.7-.1 3.9.4zM75.4 41.3c-.2.1-.2.4-.1.6-.2 1.3-.2 2.6-.1 3.8-.2-.3-.4-.5-.6-.8-.1-1.5.1-3 .6-4.3.2-.3.8-.3.7.1v.5c-.1-.1-.3 0-.5.1z"/><path class="st0" d="M75.9 41.7v.7c-.2-.1-.3-.3-.5-.4l-.1-.1c0-.2.1-.4.1-.6.1-.1.3-.1.5-.1v.5z"/><path class="st0" d="M75.4 42c.1.2.3.3.4.4-.1 1.4-.1 2.8-.2 4.2 0 .4-.5.7-.8.3-2.5-3.2-4.3-6.8-6.3-10.4v-.7c2.1 3.4 3.7 6.9 6.2 10.2v.7l.4-.1.1.1v-.1c.1 0 .3-.1.4-.1-.2-.2-.3-.4-.4-.6-.1-1.3 0-2.6.1-3.8 0-.1.1-.1.1-.1z"/><path class="st0" d="M75.2 45.7c.1.2.3.4.4.6-.1 0-.3.1-.4.1v-.7zM75.4 41.3c0 .2-.1.4-.1.6-.1-.2 0-.5.1-.6zM74.2 136.7l-1 .4v-.4c0-.1 0-.2-.1-.3.5-.2 1-.4 1.5-.7.2.2.4.4.7.5-.3.2-.7.3-1.1.5zM74.6 143.6l-.6.6c-.3-.1-.4-.5-.3-.8l.4-.4c.1 0 .2-.1.2-.1h1l-.7.7zM75.2 46.5v.1s-.1-.1 0-.1zM75.2 45.7v.7h-.1c-.2-.2-.3-.4-.4-.6s0-.7-.1-1c.2.4.4.7.6.9z"/><path class="st0" d="M74.7 45.9c.2.2.3.4.4.6l-.4.1v-.7zM74.6 45c0 .3 0 .6.1 1-2.4-3.3-4-6.8-6.2-10.2v-.5c0-.1-.1-.2-.1-.2h.1c2.2 3.1 3.9 6.6 6.1 9.9zM74.6 135.7c-.4.3-.9.5-1.5.7-.1-.1-.3-.2-.5-.1 0-.2.1-.3.2-.5.4-.2.8-.3 1.2-.5.2.1.4.2.6.4zM72.6 107.1c6.8 7.5-8.6 17.2-12.1 13.4.5.2 1.1.3 1.7.2.1 0 .1-.1 0-.1H62l-.2-.2c5.1 1.8 15.7-7 10.6-12.9l.2-.4z"/><path class="st0" d="M60.5 120.5c3.5 3.8 18.9-5.9 12.1-13.4.1-.2.2-.3.3-.4.4.5.7.9 1 1.5 2 3.6.2 7.8-3.6 10.8-1.7 1.4-10.1 5.6-10.7 1.1.2.1.5.3.9.4zM74 135.3c-.4.2-.8.4-1.2.5.2-.5.7-.7 1.2-.5zM74 143l-.4.4c.1-.2.2-.3.4-.4z"/><path class="st0" d="M74 144.1l-1 1c-.3.3-.9.3-1.2 0 0 0-.1-.1-.1-.2-.2-.3-.3-.7-.4-1h.1c.4-.1.3-.6 0-.7-.1 0-.1-.1-.2-.1-.2-1.8 0-3.7.7-5.5l.8-.3c-.5 1.9-1.1 4.5-.6 6.3l-.3.2c.1 0 .2 0 .3.1.1.2.2.4.3.5l.5-.4h.2l-.1-.2.6-.6c0 .5.1.8.4.9zM72.6 137.3c-.1-.2-.1-.4-.1-.6l.6-.2c.1.1.1.2.1.3v.4l-.6.1c.1 0 0 0 0 0z"/><path class="st0" d="M72.7 137.3l.6-.2c0 .2-.1.4-.1.7-.3-.1-.5-.3-.5-.5zM73.1 136.4l-.6.2c0-.1 0-.3.1-.4.2 0 .4.1.5.2zM73 143.9l.1.2h-.2l.1-.2z"/><path class="st0" d="M73 143.9l-.2.2c-.3 0-.5-.1-.8-.1 0-.1 0-.2-.1-.3.2-.2.5-.4.7-.6.2.3.3.5.4.8z"/><path class="st0" d="M72.9 144.1l-.5.4c-.1-.2-.2-.4-.3-.5.2 0 .5 0 .8.1zM72.5 106.3c.1.1.2.2.4.3-.1.1-.2.3-.3.4-.1-.1-.2-.3-.4-.4.1 0 .2-.2.3-.3zM72.7 137.3c.1.2.2.4.5.4-.3 1.8-.8 3.6-.4 5.3-.2.2-.5.4-.7.6-.6-1.8 0-4.3.6-6.3zM72.3 107.4c5.2 5.9-5.5 14.8-10.6 12.9h-.1l-.9-.5-.6-.6c0-.1-.1-.1-.2-.1-2.9-4.7 1.9-17.9 9.8-13.6.7.3 1.3.8 1.8 1.3-.1.1-.2.3-.3.4-.4.6.5 1.1.9.5.1-.1.2-.2.2-.3zM72.7 137.3c-.1 0-.1-.1-.1-.1 0 .1 0 .1.1.1zM72.6 137.3v.1l-.8.3c.1-.3.2-.6.4-.9.1 0 .2-.1.3-.1 0 .2 0 .4.1.6zM72.8 135.8c-.1.1-.2.3-.2.5-.1 0-.2.1-.3.2 0 .1-.1.2-.1.3-3.6 1.6-7.5 2.5-11.5 2.7-2.2 0-4.4-.4-6.5-1.2v-.1c-.4-.7-1-1.3-1.7-1.6 4.4 2.2 9.6 2.7 14.3 1.3 2-.7 4-1.3 6-2.1z"/><path class="st0" d="M72.6 107.1l-.3.4c-.1-.1-.2-.3-.3-.4.1-.1.2-.3.3-.4 0 .1.2.3.3.4zM72.6 136.3c0 .1-.1.3-.1.4-.1.1-.2.1-.3.1 0-.1.1-.2.1-.3 0-.1.2-.2.3-.2zM72.5 106.3c-.1.1-.2.3-.3.4l-.4-.4c.1-.2.2-.3.3-.4.1.1.3.2.4.4zM71.9 107.1c.1.1.2.2.3.4 0 .1-.1.1-.1.2-.4.6-1.3 0-.9-.5.1-.1.2-.3.3-.4.2 0 .3.2.4.3z"/><path class="st0" d="M72.2 106.7c-.1.1-.2.2-.3.4l-.4-.4c.1-.1.2-.2.3-.4.1.2.3.3.4.4z"/><path class="st0" d="M71.3 105.2c.3.2.5.4.8.7-.1.2-.2.3-.3.4-.4-.4-.9-.7-1.3-1l-.2-.1c.1 0 .3-.1.4-.2l.1-.1c.1.1.4.2.5.3zM72 143.7c0 .1 0 .2.1.3-.1 0-.2-.1-.3-.1l.2-.2zM72.2 136.8c-.1.3-.2.6-.4.9-5.7 2.1-11.9 3.7-17.7 1.3-.5-.2-.9-.4-1.4-.6.4.1.8.1 1.2.1.1 0 .2-.1.2-.2 2.1.8 4.3 1.2 6.5 1.2 4.1-.2 7.9-1.1 11.6-2.7z"/><path class="st0" d="M71.8 106.3c-.1.1-.2.2-.3.4-.6-.5-1.2-.9-1.8-1.3-7.9-4.3-12.7 8.9-9.8 13.6-.2 0-.3.1-.3.3v.1c-3.3-4.5 1.6-19 10-14.6v.2c.1.2.4.3.7.2l.2.1c.4.3.9.6 1.3 1zM71.2 143.6c-.1-.1-.1-.3-.1-.4.1 0 .1 0 .2.1.3.1.4.6 0 .7h-.1v-.4z"/><path class="st0" d="M71.2 143.6c0 .1 0 .2.1.4-4.6.9-9.9.1-14.6-.6-2.2-.3-6.4-.2-8.1-2 .1-.1.2-.1.1-.3s0-.1-.1-.2c0-.1.1-.1.1-.1 0-.1.2-.1.2 0 .7 1.6 7.6 1.4 9.3 1.6 4.1.4 8.9-.5 12.9.9 0 0 0 .1.1.3z"/><path class="st5" d="M71.8 137.7c-.6 1.7-.9 3.6-.7 5.5-4-1.3-8.7-.5-12.9-.9-1.6-.2-8.6 0-9.3-1.6 0-.1-.2-.1-.2 0l-.1.1c-.1-.1-.1-.2-.1-.4.6-.9 1.2-1.8 1.7-2.6.1-.1.1-.2.1-.2.8.2 1.6.6 2.4.8.5.2.9.4 1.4.6 5.8 2.4 12.1.8 17.7-1.3z"/><path class="st0" d="M70.2 104.5l.5.3-.1.1c-.1.1-.2.2-.4.2-.3-.2-.5-.3-.8-.4-.1-.2-.1-.4.1-.6l.7.4z"/><path class="st0" d="M69.6 104.2c.2-.2.6-.2.8 0-.1.1-.1.2-.2.4l-.6-.4zM70.3 105.2c-.2.1-.5 0-.7-.2v-.1-.1c.2.1.4.2.7.4zM69 55.3zm.7-.7c.9.9-.5 2.3-1.4 1.4-3.3-3.1-8.7-2.5-10.4 2.1-.3.8-1.5.4-1.2-.4 1.7-5.2 8.9-7.1 13-3.1zM69.6 104.2c-.2.1-.2.4-.1.6-8.3-4.4-13.3 10.2-10 14.6v.6c-2.5-1.9-1.7-7.4-.6-10.1 2-4.7 6.2-7.9 10.7-5.7z"/><path class="st0" d="M69 55.4c-.1 0 0-.1 0 0zM68.2 35.9c.1.2.2.4.3.5 0 3.7-.4 7.5-1.2 11.1-.1.2-.3.3-.4.2 0 0-.1 0-.1-.1-.1 0-.1-.1-.1-.2-.6-4.1 1.1-8.2 1.2-12.3v.1l.3.7z"/><path class="st0" d="M68.5 35.7v.7c-.1-.2-.2-.4-.3-.5s0-.5 0-.7c.1.2.2.3.3.5z"/><path class="st0" d="M68.5 35.2v.5c-.1-.2-.2-.3-.3-.5v.7l-.3-.5v-.1c0-.1 0 0 0 0v-.1c.1-.1.2-.1.3 0h.1c.1-.1.2-.1.2 0zM68.4 35h0zM68 35zM67.9 35.1v0zM58 35.9c0-.2-.1-.3-.2-.5 0 0-.1-.1-.1 0-.1-.1-.1-.2-.2-.3.1-.1.2-.2.3-.2 1.6 1.6 2.6 4.2 3.7 6 1.5 2.6 3.3 4.9 5.4 7l.3.3c.2.3-.1.6-.4.5-2.8-1.3-4.5-3.8-6-6.4-.7-1.4-1.7-2.8-2.5-4.4 0-.8-.1-1.4-.3-2zM62.2 120.6s0 .1 0 0c-.6.2-1.1.1-1.7-.1-.2-.2-.3-.3-.4-.6.6.5 1.3.8 2.1.7l-.2-.1c0 .1.1.1.2.1z"/><path class="st0" d="M61.9 120.5l.2.1c-.8 0-1.5-.2-2.1-.7-.1-.2-.2-.4-.2-.6l.4.2c.5.6 1.1.9 1.7 1z"/><path class="st0" d="M61.7 120.4l.2.2c-.7-.1-1.2-.5-1.7-1l.4.3c.4.1.7.3 1.1.5-.1-.1 0 0 0 0z"/><path class="st0" d="M60.7 119.8l.9.5c-.3-.1-.6-.3-.9-.5zM60.7 119.8l-.4-.3c-.1-.1-.3-.3-.4-.5.1 0 .2.1.2.1.2.3.4.6.6.7zM60.2 119.5l-.4-.2c.1.2.1.4.2.6l-.5-.5v-.1c0-.2.1-.3.3-.3.2.2.3.4.4.5z"/><path class="st0" d="M60 119.9c.1.2.2.4.4.6-.3-.1-.6-.2-.8-.4v-.6c.1.1.3.2.4.4zM53.3 53.4c0 .2 0 .3-.1.5.1 0 .2-.1.4-.1 0 .1.1.2.2.3v-.3c.1 0 .2-.1.4-.1-.1-.1-.2-.3-.3-.4 1-5.3 3.8-11.3 3.9-16.3.2.3.3.6.5.9-.1 1.9-.4 3.8-1 5.7-1 3.6-2.1 7.1-2.9 10.7-.1.3-.4.5-.7.4-.1 0-.2-.1-.3-.2-.5-.6-.9-1.2-1.2-1.8-.1-1.3-.5-2.5-1.2-3.6 0-.1-.2-.1-.3-.1-.1 0-.1.1-.1.2-.4-1.3-.6-2.6-.7-3.9 0-.1 0-.2.1-.2s.1 0 .2.1c1.2 2.5 1.9 5.2 3.3 7.6-.1 0-.1.3-.2.6zM57.5 95.7c0-.1.1-.1.1-.2s0-.2-.1-.2h-.1c-.4-1.4-.8-2.8-1.2-4.3.1.1.3.2.4.2h.3c.5 1.5.9 3 1.3 4.6.1.4-.1.7-.5.8-.3.1-.5 0-.7-.2.3-.2.4-.4.5-.7zM58 35.9c.2.6.3 1.3.3 1.9-.2-.3-.3-.6-.5-.9v-1.3c.1 0 .2.2.2.3z"/><path class="st0" d="M57.8 35.5c-.1-.1 0-.1 0 0 0-.1 0 0 0 0 .1.2.2.3.2.5 0-.2-.1-.4-.2-.5zM57.8 36.8c-.1 5-2.9 11-3.9 16.3-.2-.2-.3-.4-.4-.6.5-2.8 1.5-5.5 2.3-8.2s1-5.5 1.8-8.2c0 .2.1.5.2.7z"/><path class="st0" d="M57.8 35.5v1.3c-.1-.2-.2-.4-.3-.7 0-.2.1-.5.2-.7.1 0 .1 0 .1.1zM57.7 34.8c-.1.1-.2.2-.3.2-.1-.2-.3-.5-.4-.7.3.1.5.3.7.5z"/><path class="st0" d="M57.7 35.4c-.1.2-.1.5-.2.7l-.3-.9c.1-.1.1-.2.2-.2.2.1.3.2.3.4zM57.4 95.3c.1 0 .2.1.2.2v.1c0 .1 0 .1-.1.2 0-.2-.1-.4-.1-.5z"/><path class="st0" d="M56.9 96c-.1-.2-.1-.3-.1-.5l.6-.3h.1c0 .2.1.3.1.4-.1.3-.3.5-.4.8-.1-.1-.1-.2-.2-.3-.1.1-.1 0-.1-.1zM57.1 34.3c.1.2.3.5.4.7-.1.1-.2.1-.2.2-.2-.2-.3-.5-.2-.9-.1.1-.1 0 0 0z"/><path class="st0" d="M57.4 95.3s-.1 0 0 0l-.6.3c-.5-1.7-.9-3.4-1.3-5s-.6-3.4-1.1-5c.7 1.6 1.2 3.4 1.8 5.1v.1c0 .1 0 .2.1.2.3 1.5.7 2.9 1.1 4.3z"/><path class="st8" d="M57.2 35.3l.3.9c-.7 2.7-1 5.5-1.8 8.2s-1.8 5.4-2.3 8.2c-1.5-2.3-2.1-5.1-3.3-7.5 0-.1-.1-.1-.2-.1s-.1.1-.1.2c.1 1.3.3 2.6.7 3.9v.1c.4 3.4.5 6.8.4 10.2.1 4.2 1.1 8.3 1.8 12.3-1.6-.3-3.2-.8-4.7-1.5-1.6-.7-2.9-1.8-4.4-2.6l-.3-1.2c-.1-.4-.6-.3-.6.1-.1 2.5.8 4.8 1.4 7.2-3.9-4.5-7.3-9.4-10-14.8 7.8-7.9 14.7-16.6 23.1-23.6z"/><path class="st0" d="M57 34.4c0 .3.1.6.2.8-8.4 7-15.4 15.7-22.9 23.6-.1-.2-.2-.4-.3-.7 2.1-2.2 4.1-4.5 6.2-6.7 3.7-3.9 7.4-8 11.1-12 1.8-1.7 3.7-3.4 5.7-5zM57.1 34.3zM57 34.3c0 .1 0 .1-.1.1 0 0 0-.1.1-.1-.1 0 0-.1 0 0zM56.9 96.2c0 .1.1.2.2.3-.6.8-1.5 1.4-2.4 1.8v-.4c0-.1-.2-.2-.3-.2h-.1c-.3.3-.5.6-.7 1-1 .4-2.1.7-3.2.9-.2 0-.3.1-.5.1-.1-.1-.2-.1-.4-.2-.3-.1-.7.1-.6.4-2.9.8-6 1.1-9 .8-.2 0-.4-.3-.4-.5v-.1c0 .1 0 .2.1.2.1.4.7.4.8 0v-.1c4.1.1 13.3-1.4 16.5-4.4v.4zM56.8 90.7c0 .2.1.3.2.5h-.3c-.2 0-.3-.1-.4-.2l-.1-.2v-.1c0-.3.2-.5.5-.5 0 .2 0 .4.1.5z"/><path class="st0" d="M56.7 95.6c0 .2.1.3.1.5-3.2 2.9-12.4 4.5-16.5 4.4 0-.2.1-.4.1-.6 2.9-.2 5.7-.6 8.6-1.2 2.7-.9 5.3-1.9 7.7-3.1zM56.6 90.2c-.3 0-.5.2-.5.5-.5-1.8-1.1-3.5-1.8-5.1.9 1.5 1.7 3 2.3 4.6zM56.1 90.8l.1.2c-.1 0-.1-.1-.1-.2zM52.8 103.5s0 .1 0 0c0 .1.1.1.1.1.2.1.3.3.5.4.1-.2.2-.3.2-.5h.3l-.2-.2c.5-1.5.1-3.2.4-4.7l.5-.2c.1 1 .1 1.9.1 2.9 0 1.1-.2 2.2-.7 3.2-.2.4-.7.5-1 .3l-.1-.1c-1.6-1.2-2.9-2.6-4-4.3v-.2c.3-.1.6-.2 1-.3 1.2.8 2.3 1.8 3.2 2.9 0 .2-.1.5-.3.7z"/><path class="st0" d="M54.2 98.5c-.2.1-.4.2-.7.2.1-.4.4-.7.7-1 .1-.1.3-.1.4 0v.5l-.4.3zM53.9 53.2c.1.1.2.3.3.4-.1 0-.2.1-.4.1.1-.2.1-.3.1-.5zM53.4 137.9c.3.1.5.2.8.3 0 .1-.1.2-.2.2-.4 0-.8 0-1.2-.1-1.2-.5-2.4-1.2-3.5-1.9.9.2 1.8.4 2.7.8 0 0 .1 0 .1.1.4.2.7.3 1.1.5.1 0 .1.1.2.1z"/><path class="st0" d="M54.2 138.2c-.3 0-.5-.1-.8-.2-.1-.1-.2-.1-.2-.1-.3-.2-.7-.4-1.1-.5 0 0-.1 0-.1-.1-1-.5-2-1-2.9-1.6 1 .1 2.1.4 3.1.8l.3.1c.7.3 1.3.9 1.7 1.6zM53.5 98.8c.2-.1.5-.2.7-.2-.3 1.5.1 3.2-.4 4.7-.2-.2-.5-.4-.7-.6.3-1.3 0-2.7.4-3.9z"/><path class="st0" d="M54 103.4h-.3c0-.1.1-.1.1-.2 0 .1.1.2.2.2zM53.9 53.2c0 .2 0 .3-.1.5h-.2c-.1-.1-.2-.2-.3-.4 0-.3.1-.6.2-.8.1.2.3.5.4.7zM53.8 53.7v.3c-.1-.1-.1-.2-.2-.3h.2zM53.7 103.3c0 .1-.1.2-.1.2l-.7.1-.1-.1c.1-.2.2-.5.2-.8.3.2.5.4.7.6z"/><path class="st0" d="M53.6 103.5c-.1.2-.1.3-.2.5-.2-.1-.3-.3-.5-.4l.7-.1zM53.6 70.3v.4l-.4.1v-.4l.4-.1z"/><path class="st0" d="M53.6 69.8v.5l-.5.2v-.4c.2-.2.3-.2.5-.3zM53.6 53.7c-.1 0-.2.1-.4.1 0-.2.1-.3.1-.5.1.2.2.3.3.4zM53.2 70.8l.4-.1v1.1c-.1 0-.1 0-.2-.1h-.2v-.9z"/><path class="st0" d="M53.6 69.8c-.2.1-.3.1-.5.2-.3-3.6-1.2-7.2-1.4-10.7-.2-2.3 0-5.8-.4-8.3.2.5.5 1.1.8 1.6.2 1.9.1 3.9.2 5.6.3 3.9 1.2 7.7 1.3 11.6zM53.6 71.8c.6.3.2 1.3-.5 1.1-1.5-.3-2.9-.6-4.3-1.2.2-.1.4-.2.5-.3.1 0 .1-.1 0-.2 1.2.4 2.3.8 3.6 1v.1c.1.3.5.2.6-.1s0-.2.1-.4z"/><path class="st0" d="M53.6 71.8v.5c0 .1-.6.4-.6.1v-.1h.3v-.6h.2l.1.1z"/><path class="st7" d="M53.5 98.8c-.4 1.2-.2 2.7-.4 3.9-.9-1.1-2-2.1-3.2-2.9.2 0 .3-.1.5-.1 1-.2 2.1-.5 3.1-.9z"/><path class="st0" d="M53.2 71.7v.6h-.3c0-.2-.1-.4-.1-.7l.4.1z"/><path class="st0" d="M53.2 70.8v.9l-.4-.1c-.7-4.1-1.7-8.2-1.8-12.3.1-3.4-.1-6.8-.5-10.2V49c.2.7.5 1.3.8 2v.1c.4 2.5.2 5.9.4 8.3.2 3.6 1.1 7.1 1.4 10.7l-.2.1c-.2.1-.3.3-.2.5.1.1.3.2.5.1z"/><path class="st0" d="M53.2 70.4v.4c-.2 0-.4-.1-.5-.3 0-.2.1-.4.2-.4l.2-.1c0 .1 0 .3.1.4zM52.8 71.6c0 .2.1.4.1.7-1.2-.2-2.4-.6-3.6-1h-.1-.2c-1.9-.8-3.7-1.9-5.3-3.3 0-.1-.1-.2-.1-.4 1.5.8 2.8 1.9 4.4 2.6 1.6.7 3.2 1.2 4.8 1.4zM52.9 103.6h-.1v-.1l.1.1zM52.1 137.3c.4.1.7.3 1.1.5-.4-.1-.7-.3-1.1-.5zM52.2 136.4c-1-.4-2-.6-3.1-.8-.8-.5-1.5-1-2.3-1.6-3.6-2.6-6.8-5.7-9.4-9.3.1-.3.1-.5.2-.8v-.2c1.9 2.8 4.2 5.4 6.9 7.5 2.3 2.1 4.9 3.8 7.7 5.2zM51.3 51c-.3-.6-.5-1.3-.7-2 0-.1.1-.2.2-.2s.1 0 .2.1c.7 1.1 1.1 2.4 1.2 3.6-.4-.4-.6-1-.9-1.5zM52.8 138.3c-.8-.2-1.6-.6-2.4-.8 0-.3-.2-.5-.5-.5-.1 0-.2 0-.2.1-.1.1-.2.1-.3.2-1.5-.3-3-.6-4.6-.7v-.5c0-.1-.2-.2-.3-.2 1.6.1 3.3.3 4.9.6 1 .7 2.2 1.3 3.4 1.8z"/><path class="st0" d="M45.2 143.5l-.3-.6c1.6-1.7 2.5-4.3 4.4-5.6l.5.1c.2 0 .4.1.5.1 0 .1 0 .2-.1.2-.5.9-1.1 1.7-1.7 2.6 0-.1 0-.2-.1-.3s-.3-.2-.4 0c-.1.3-.1.6 0 .9-.8 1.3-1.9 2.5-3.1 3.5-.3.2-.7.1-.9-.2-.7-1.4-1.1-2.9-.9-4.4 0-1.2.1-2.3.5-3.4h.1c.2 0 .3 0 .5.1-.5 1.8-.8 4.9.1 6.8 0 .1-.1.1-.1.1h.2c.1.2.1.3.2.5.2-.1.3-.2.4-.4h.2c.1.1 0 0 0 0z"/><path class="st0" d="M50.3 137.5c-.2-.1-.4-.1-.5-.1l-.5-.1c.1-.1.2-.1.3-.2.3-.1.6 0 .7.2v.2zM49.1 135.6c.9.6 1.9 1.1 2.9 1.6-.9-.3-1.8-.6-2.7-.8-.5-.3-1.1-.7-1.6-1l1.4.2zM49.5 99.6c.1.1.2.1.4.2-.3.1-.6.2-1 .3-.2-.4.3-.6.6-.5zM48.3 71.6l-.7-.3c.5-.1 1-.1 1.5 0l.2.1v.2c-.2.1-.3.2-.5.3-.2-.2-.3-.2-.5-.3zM49.4 71.3l-.2-.1c0 .1 0 .1.2.1-.1 0-.1 0 0 0zM47.7 135.5c.5.4 1 .7 1.6 1-1.6-.3-3.3-.5-4.9-.6h-.1c-3.2-.2-6.4-.2-8.8-.2v-.1s.1-.2.1-.3c3.8-.5 7.7-.4 11.5.2h.6zM45.4 74.3c1.7 1.1 3.8 3 3.6 5 0 .2-.2.3-.4.2l.2-.2s0-.1.1-.1c.1-.3 0-.6-.2-.8-.1 0-.1-.1-.2-.1-.7-1.3-1.7-2.4-2.8-3.4-.2-.1-.3-.3-.3-.6z"/><path class="st0" d="M49.1 71.3c-.5-.1-1-.1-1.5 0-1.4-.6-2.6-1.5-3.6-2.6 0-.2-.1-.5-.2-.7 1.6 1.3 3.4 2.4 5.3 3.3zM48.3 78.4c.3 0 .5.3.5.6 0 .1 0 .2-.1.2 0 0 0 .1-.1.1 0-.3-.1-.6-.3-.9zM48.3 71.6c.2.1.3.1.5.2-1.2.5-2.4.8-3.7.9v-.2c1-.4 2.1-.7 3.2-.9zM48.7 141.1c0 .1 0 .2-.1.3-.1-.1-.1-.2 0-.4l.1-.1v.2z"/><path class="st0" d="M48.2 79.1c-.1-.1-.2-.3-.3-.4l.1-.1c.1-.1.2-.2.4-.2.2.3.3.6.4.9l-.2.2v-.1c-.2 0-.3-.1-.4-.3zM48.4 140.8c.1-.1.1-.2.2-.3 0 .1.1.3.1.4l-.1.1c-.1.1-.1.2 0 .4-.1.1-.3 0-.3-.1l-.1-.2c0-.2.1-.3.2-.3z"/><path class="st0" d="M48.4 140.7c0 .1-.1.2-.2.3-.1-.3-.1-.6 0-.9 0-.2.3-.1.4 0s0 .2.1.3c-.2.1-.2.2-.3.3zM48.5 79.5c-2.3 3.2-4.3 6.6-5.7 10.3-1.2 3.3-1.6 6.6-2.3 10H40c0-1 .1-2.1.2-3.1.1-.1.3-.2.5-.3.1-.1.1-.3.1-.4-.1-.1-.2-.1-.3-.1h-.1c1.1-6.2 3.8-12 7.9-16.9-.1.2 0 .4.2.5zM47.6 71.3l.7.3c-1.1.2-2.2.5-3.3.9v-.2c.8-.4 1.7-.8 2.6-1zM47.1 77.2v-.1c0-.1 0-.1-.1-.2l-.1-.1c-.1-.1-.3-.1-.4 0-.4-.4-.8-.8-1.1-1.3.1 0 .2-.2.2-.3V75c1.1 1 2.1 2.1 2.8 3.4-.2 0-.3.1-.4.2l-.1.1-.9-1.2c.1-.1.1-.2.1-.3z"/><path class="st0" d="M47.8 78.7c.1.2.2.3.3.4-4 4.8-6.8 10.7-7.9 16.9-.3.2-.6.4-1 .6.6-6.5 4.5-13.4 8.6-17.9zM49.1 135.6l-1.4-.2c-3.6-2.4-6.8-5.3-9.6-8.6l-.9-1.2c.1-.3.1-.6.2-.9 2.6 3.5 5.8 6.7 9.4 9.3.7.6 1.5 1.1 2.3 1.6z"/><path class="st6" d="M47.7 135.5l-.7-.1c-3.8-.6-7.7-.7-11.5-.2.4-1.8.5-3.6.8-5.4.3-1.4.6-2.7.9-4.1l.9 1.2c2.8 3.3 6 6.2 9.6 8.6z"/><path class="st0" d="M47.1 77.2v-.1.1zM47 77v.1c0 .1-.1.2-.1.3 0-.1-.1-.2-.2-.3.1-.1.2-.2.3-.2v.1z"/><path class="st0" d="M47 76.9c-.1.1-.2.2-.3.2 0-.1-.1-.2-.2-.3v-.1c.1 0 .3 0 .5.2z"/><path class="st0" d="M46.7 77.1c.1.1.2.2.2.3-1 1.1-2.2 2-3.3 3-.7.8-1.6 1.5-2.6 2-.2.1-.5-.1-.5-.3v-.2c0-.1.1-.2.1-.3.1.1.4 0 .3-.2l-.1-.2c.6-.8 1.4-1.5 2.2-2 1.1-.9 2.2-1.6 3.4-2.3v.1c.1 0 .2.1.3.1zM29.5 38.4c-.2-.4-.5-.6-.8-.8.1 0 .1 0 .1-.1s.1-.4-.1-.4h-.4c-.4-.7-.7-1.5-.8-2.4.1 0 .2-.1.3-.2v-.2c1 4.3 5.4 6 9.6 5.6 1.7-.1 3.3-.4 4.9-.8 2.2-.1 2.2-1.5 0-4.1-4-1.1-7.4-.7-11.4-.2-.1 0-.3-.1-.3-.2s0-.2.1-.3l.3-.1c4.7-1.5 10.7-1.8 14.7 1.5 2.5 2-1.9 4-3.2 4.2-4.3 1-8.8 1.3-12.8-.9.1-.2 0-.4-.2-.6zM45.1 75.2v-.1c.1 0 .2-.1.3-.2l.1.1v.2c0 .1-.1.3-.2.3-.1-.1-.2-.3-.2-.3z"/><path class="st0" d="M45.4 74.3c.1.2.1.5.1.7l-.1-.1c-.1-.1-.3-.3-.4-.5V74c.1.1.2.2.4.3z"/><path class="st8" d="M45.3 75.5c.4.4.8.8 1.1 1.3-1.2.7-2.3 1.5-3.4 2.3-.9.5-1.6 1.2-2.2 2-.5-1.2-1.2-2.4-1.8-3.6-.8-1.7-1.5-3.4-2.2-5.2l.1-.1c.2-.2-.2-.4-.4-.3l-.2.2c-2.4 2-3.7 4.7-5.6 7.1-2.2-4.6-2-9.4-2.6-14.3.4-.3.8-.6 1.1-1-1.1 5.1 6.2 7.1 10.4 6.8.1 0 .2 0 .3-.1 1.4 1.8 3 3.4 4.7 4.9.3.1.5.1.7 0z"/><path class="st0" d="M45 74.4c.1.2.2.3.4.5-.1-.1-.2-.2-.4-.3v-.2z"/><path class="st0" d="M45.4 74.9c-.1.1-.2.1-.4.2v-.5c.1.1.2.2.4.3z"/><path class="st0" d="M45 75.1c.1.1.2.3.3.4-.2.1-.4.1-.5 0-1.7-1.5-3.3-3.1-4.7-4.9.2-.1.4-.3.3-.5 1.3 1.6 2.7 3.1 4.2 4.6 0 .2.1.4.1.7l.3-.3zM44.7 136.5c1.5.1 3.1.4 4.6.7-2 1.3-2.8 3.9-4.4 5.6-.4-1.1-.5-2.3-.5-3.4 0-.9.4-1.9.3-2.9zM45.2 143.5s0 .1.1.1h-.2s.1 0 .1-.1z"/><path class="st0" d="M45.2 143.5c0 .1-.1.1-.1.1-.2 0-.4-.1-.6-.1-.1-.1-.1-.1-.1-.2.2-.1.4-.3.5-.5.1.3.2.5.3.7zM45.1 72.7c.1.6.2 1.1.3 1.7-.2-.1-.3-.2-.4-.3-.4-2.2-1.4-4.1-1.7-6.2.2.3.4.6.7.9.4 1.2.7 2.4 1 3.7l-.2.1c-.1.1-.1.3.1.3l.2-.2z"/><path class="st0" d="M45.1 143.6l-.4.4c-.1-.1-.2-.3-.2-.5.2 0 .4.1.6.1zM45 72.5v.2h-.2c-.2 0-.2-.2-.1-.3l.2-.1s.1.1.1.2zM45 75.1v.1-.1zM45 74.6v.6l-.2-.2v-.1c-.1-.1-.2-.3-.3-.4 0-.1 0-.2-.1-.4 0-.1.1-.1.2-.1.1.2.3.3.4.5v.1zM44.8 75l.2.2-.2-.2zM45 74.4c-.1-.1-.3-.3-.4-.5.1-.1.2-.1.3 0h.1v.5z"/><path class="st0" d="M45 75.1l-.3.2c0-.2-.1-.4-.1-.7l.2.2v.1l.2.2zM43.2 67.3c-.1 0-.2 0-.1.1 0 .1.1.2.2.3.3 2.1 1.3 4.1 1.7 6.2h-.1c-.1-.1-.2-.1-.3 0l-.3-.3c-.6-2.4-1.5-4.6-1.4-7.2 0-.3.5-.4.6-.1s.2.8.3 1.2c-.2 0-.4-.1-.6-.2zM44.9 142.9l-.5.5c-.8-1.9-.6-5-.1-6.8h.5c0 .9-.3 2-.3 2.9-.2 1.1 0 2.2.4 3.4z"/><path class="st0" d="M44.5 74.5c.1.1.2.3.3.4l-.2-.2c-.1-.1-.1-.2-.1-.2zM44.3 136.5c-.2 0-.3-.1-.5-.1h-.1c.1-.2.2-.4.4-.5 0-.1.1-.1.2-.1h.1c.1 0 .3.1.3.2v.5h-.4zM44.3 73.7l.3.3c-.1 0-.1.1-.2.1 0-.1 0-.3-.1-.4z"/><path class="st0" d="M44.5 74.5v.2c-1.5-1.4-2.9-2.9-4.2-4.6V70c0-.3-.2-.5-.5-.5-2.4-3.1-4.4-6.6-5.8-10.3l.3-.3c2.7 5.3 6.1 10.3 10 14.8 0 .2.1.3.1.4 0 .1 0 .2.1.4z"/><path class="st0" d="M44.5 74.5c-.1-.2-.1-.3-.1-.4.1.1.1.3.1.4zM44.5 143.5h-.2c.1 0 .1-.1.1-.1l.1.1zM44.3 135.8c-.1 0-.1.1-.2.1-.2.2-.3.3-.4.5-2.9-.2-5.9.1-8.8-.6v-.1c.2.1.4 0 .5-.2 2.4.1 5.6.1 8.9.3zM43.8 68c0 .2.1.5.2.7-.2-.3-.5-.6-.7-.9v-.2c.1.1.3.2.5.4z"/><path class="st0" d="M43.7 67.6c0 .1 0 .3.1.4-.2-.2-.4-.3-.5-.5v-.2c.1.1.3.2.4.3zM43.3 67.5v.2c-.1-.1-.1-.2-.2-.3 0-.1 0-.2.1-.1 0 .1 0 .1.1.2z"/><path class="st10" d="M42.3 34.9c2.2 2.6 2.2 4 0 4.1-1.6.4-3.3.7-4.9.8-4.3.4-8.7-1.2-9.6-5.6 0-.5-.1-.9-.2-1.4-.1-3.8.7-7.6 2.5-11 .7-1.3 6.9-7.4 7.8-5.2 2.5 6-2.3 13.7-6.9 17.1-.1.1-.1.2 0 .4l.1.1-.3.1c-.1 0-.2.2-.1.3 0 .1.2.2.3.1 4-.6 7.4-1 11.3.2z"/><path class="st0" d="M40.7 81.4c0-.1.1-.1.1-.2l.1.2c.1.2-.2.2-.3.2l.1-.2z"/><path class="st0" d="M40.8 81.2c-.1.1-.1.1-.1.2-1.8-2.7-3.1-5.6-4-8.7l.2-.3c.6 1.8 1.3 3.5 2.2 5.2.5 1.2 1.2 2.4 1.7 3.6zM40.3 96.4v-.3h.1c.1-.1.3 0 .4.1.1.1 0 .3-.1.3-.2.1-.3.2-.5.3 0-.2 0-.3.1-.4z"/><path class="st0" d="M40.7 81.4l-.1.2c-2.3-2.1-3.3-5.6-4.1-8.6 0-.1.1-.2.2-.3.9 3.1 2.2 6 4 8.7zM40.5 99.8c0 .2-.1.4-.1.6H40v-.5c.2 0 .3 0 .5-.1zM39.6 70.1c-.2-.2-.4-.5-.5-.7l.7.1h.1l.5.5v.1c0 .2-.1.5-.3.5l-.5-.5z"/><path class="st0" d="M40.4 100.4s0 .1 0 0c-.1.5-.7.5-.8.1 0-.1 0-.2-.1-.2.1-.2.3-.3.5-.3v.5c.1-.1.3-.1.4-.1zM40.4 70l-.5-.5c.3 0 .5.2.5.5zM40.3 96v.3l-.9.6v-.3l.9-.6z"/><path class="st0" d="M40.3 96.4v.4c-.3.2-.6.5-.9.7V97c.2-.3.5-.5.9-.6zM40 70.6c-.1.1-.2.1-.3.1-4.1.3-11.4-1.7-10.3-6.8l.3-.3c-1 5.2 5.8 6.5 9.9 6.5.2.2.3.3.4.5z"/><path class="st0" d="M40.2 96.8c-.1 1-.2 2.1-.2 3.1-.2 0-.4.1-.5.3-.1-.9-.2-1.8-.2-2.7.3-.2.6-.5.9-.7zM39.9 69.5h-.1l-.7-.1c-2.2-3-4-6.3-5.3-9.9l.3-.3c1.4 3.7 3.4 7.2 5.8 10.3z"/><path class="st0" d="M39.1 69.4c.2.2.3.5.5.7-4.1 0-10.9-1.3-9.9-6.5l.3-.3c-.4 5.1 5 5.7 9.1 6.1zM39.4 96.7v.3c-1.8 1.5-3.3 3.4-4.2 5.6-.8 2.1-1.4 4.3-1.9 6.5-.9 5 .3 10.2 3.2 14.4-.1.1-.1.1-.1.2l-.2.5c-5.2-8.6-5.4-21.4 3.2-27.5z"/><path class="st0" d="M39.3 97v.5c-5.2 4.7-7.2 14.3-4.7 20.6.7 1.8 1.6 3.6 2.7 5.3-.2-.2-.5-.2-.8 0-2.9-4.2-4-9.4-3.2-14.4.5-2.2 1.1-4.4 1.9-6.5.9-2.1 2.3-4 4.1-5.5zM27.4 32.2c-.1-.2-.2-.5-.3-.7.1-1.6.3-3.1.4-4.3.2-4 2.4-6.8 5.2-9.4.9-.8 3.8-4 5.3-3.1 2.4 1.4 1.5 7.2.8 9.2-1.4 4.2-3.7 7.8-7.5 10.1h-.1c-.1-.1-.2-.2-.1-.3 4.6-3.5 9.4-11.2 6.9-17.1-.9-2.2-7.1 3.9-7.8 5.2-1.8 3.4-2.6 7.2-2.5 11l-.3-.6z"/><path class="st0" d="M36.9 124.1c-.2-.2-.3-.4-.4-.6.2-.2.5-.2.8 0 .1.1.1.2.2.3v.2c0 .3-.1.5-.2.8-.1-.2-.3-.5-.4-.7z"/><path class="st0" d="M37.5 123.8c-.1-.1-.1-.2-.2-.3.1 0 .2.1.2.3zM36.9 124.1c.1.3.3.5.5.8 0 .3-.1.6-.2.9-.2-.2-.4-.5-.6-.8.2-.4.2-.7.3-.9zM36.7 72.2c-.1-.1-.2-.1-.3 0l.2-.2c.2-.2.5 0 .4.3 0 .1-.1.1-.1.1-.1 0-.1-.1-.2-.2.1 0 .1 0 0 0z"/><path class="st0" d="M36.9 124.1c-.1.3-.1.6-.2.9-.2-.2-.3-.5-.5-.8l.2-.5c0-.1.1-.2.1-.2.1.2.2.4.4.6z"/><path class="st0" d="M36.7 124.9c.2.3.3.6.6.8-.3 1.4-.6 2.7-.9 4.1-.3 1.8-.4 3.6-.8 5.4l-.5.1c.1-3.5.6-7 1.6-10.4zM36.8 72.4l-.2.3c0-.1-.1-.2-.1-.3l.2-.2.1.1v.1z"/><path class="st0" d="M36.7 72.2l-.2.2c-.1.1-.2.1-.2.2v-.2c0-.1 0-.2.1-.2.1-.1.2-.1.3 0z"/><path class="st0" d="M36.6 72.4c0 .1.1.2.1.3 0 .1-.1.2-.2.3-.1-.1-.1-.3-.1-.4 0-.1.1-.2.2-.2zM36.2 124.2c.1.3.3.5.5.8-1 3.4-1.5 6.9-1.7 10.4-.2.1-.3.3-.2.4v.1c-.1 0-.2-.1-.2-.3-.8-3.6.4-8 1.6-11.4z"/><path class="st0" d="M36.4 72.6c0 .1.1.3.1.4-1.6 2.7-3.4 5.3-5.4 7.7-.2.2-.6.2-.8 0l-.1-.1c-2.3-4.6-3.3-9.8-2.8-14.9.1-.1.3-.3.5-.4 0 4.7.3 10.2 2.6 14.5 0 0-.1.1-.1.2h.2c.1.1.1.3.2.4l.3-.3h.2c0-.1-.1-.1-.1-.2 1.8-2.3 3.1-5.1 5.2-7.3z"/><path class="st0" d="M36.4 72.2c-.1 0-.1.1-.1.2v.2c-2.1 2.2-3.4 5-5.3 7.2l-.3-.6c2-2.3 3.3-5.1 5.7-7zM35.4 135.6c-.1.2-.3.3-.5.2h-.1c-.1-.2-.1-.4.1-.5h.1l.5-.1c0 .2 0 .3-.1.4-.1.1 0 0 0 0zM34.3 58.9l-.3.3c-.1-.3-.2-.5-.3-.8.1-.1.2-.1.2-.2.2.3.3.5.4.7z"/><path class="st7" d="M33.8 59.5c1.3 3.5 3 6.9 5.3 9.9-4.1-.3-9.5-.9-9.1-6 1.1-1 2.1-2 3.1-3.1.3-.3.5-.5.7-.8z"/><path class="st0" d="M33.8 58.5c.1.3.2.5.3.8l-.3.3c-.1-.2-.2-.5-.3-.7.1-.3.2-.3.3-.4z"/><path class="st0" d="M33.8 58.5c-.1.1-.2.2-.2.3-.1-.1-.1-.2-.1-.3-.1-.3.4-.6.6-.2-.2 0-.2.1-.3.2zM33.5 58.7c.1.2.2.5.3.7-.2.3-.4.5-.7.7-1 1.1-2.1 2.1-3.1 3.1 0-.2.1-.4.1-.6s-.2-.3-.3-.1c1.3-1.2 2.5-2.5 3.7-3.8zM31.1 79.8c0 .1.1.1.1.2H31s.1-.1.1-.2z"/><path class="st0" d="M30.8 79.2l.3.6c0 .1 0 .1-.1.2l-.5-.1s-.1-.1-.1-.2c.2-.1.3-.3.4-.5z"/><path class="st0" d="M31 80c-.1.1-.2.2-.2.3-.1-.1-.2-.2-.2-.4l.4.1zM30.8 79.2c-.1.2-.2.3-.4.5-2.3-4.2-2.5-9.8-2.6-14.5.1-.1.3-.2.4-.4.6 5 .4 9.9 2.6 14.4zM30.4 79.7c0 .1 0 .1.1.2h-.2s.1-.1.1-.2zM29.7 63.6l-.3.3c.1-.4.3-.8.4-1.2.1-.2.3 0 .3.1s0 .4-.1.6c-.1 0-.2.1-.3.2zM29.8 39c1.1 2.7 0 6.8-1.8 9s-3.9 5.3-6.3 6.9h-.1c.2-.1.2-.2.2-.4v-.1c1.1-1.2 5.7-6.5 6.1-7.2 1.1-1.8 2.9-7.2.7-8.9-.2-.2-.3-.3-.6-.3l.4-.2c.4.4.8.8 1.3 1.1h.1v.1z"/><path class="st0" d="M29.5 38.4c.1.2.2.3.3.5h-.1c-.5-.3-.9-.6-1.3-1.1.1-.1.2-.1.3-.2.2.3.5.6.8.8z"/><path class="st0" d="M29.5 38.3c-.3-.2-.6-.5-.8-.8.4.3.6.5.8.8zM29.8 62.6c-.2.4-.3.8-.4 1.2-.3.4-.7.7-1.1 1v-.5c0-.1 0-.1-.1-.1l1.6-1.6zM28.5 38.3c2.2 1.6.4 7.1-.7 8.9-.4.6-5 6-6 7.2-.1-.1-.1-.2-.1-.3 1.1-1.2 2.1-2.7 3.1-4 1.4-1.7 2.8-3.2 3.4-5.3.2-.7.4-1.5.6-2.2.1-.8.5-4.6-1.6-4.1l.8-.5c.2 0 .4.1.5.3z"/><path class="st0" d="M28.5 37.4c-.1-.1-.1-.2-.1-.2h.4c.2 0 .3.3.1.4s-.1 0-.1.1c-.1-.1-.1-.1-.2-.1 0-.1-.1-.2-.1-.2z"/><path class="st10" d="M27.2 38.4c2.1-.5 1.7 3.3 1.6 4.1-.1.8-.3 1.5-.6 2.2-.6 2.1-2 3.6-3.4 5.3-1 1.3-2 2.8-3.1 4-1.8-3.9-1.2-7.6.8-11.4.8-1.5 2-2.8 3.5-3.7h.1c.4-.1.8-.3 1.1-.5z"/><path class="st0" d="M28.8 37.6c-.1 0-.2-.1-.2-.2.1 0 .1.1.2.2z"/><path class="st0" d="M28.7 37.6c-.1.1-.2.1-.3.2 0-.1-.1-.2-.2-.3.1 0 .2-.1.3-.1.1.1.2.1.2.2zM28.5 37.4c-.1 0 0 0 0 0zM28.4 37.1c0 .1.1.2.1.2-.1-.1-.3-.1-.5-.2V37c.1.1.3.1.4.1z"/><path class="st0" d="M28.5 37.4c-.1 0-.2.1-.3.1-.1-.1-.1-.2-.2-.2.2 0 .4 0 .5.1zM28.4 37.8l-.4.2c-1.1-.4-2.5.4-3.5 1.3-.3.1-.5.1-.8.2.4-.4.9-.8 1.3-1.1 1.1-.2 2.1-.5 3.2-.9.1.1.1.2.2.3zM28.4 37.1H28c-.5-.8-.7-1.7-.8-2.7 0 .2.1.3.3.3.1.9.4 1.7.9 2.4zM28.2 64.4v.5l-.4.4v-.8c.1-.1.2-.2.3-.2 0 0 .1 0 .1.1z"/><path class="st0" d="M28 37.3c0 .1.1.2.2.2-1.1.3-2.1.6-3.2.9.7-.6 1.4-.9 2.3-1.2h.2c.1 0 .3 0 .5.1zM27.9 64.5l-.4.4v-.5c0-.2.1-.3.3-.3.1 0 .2.1.3.2-.1.1-.2.1-.2.2z"/><path class="st0" d="M28 37.2v.1c-.2 0-.4-.1-.5-.1h.5z"/><path class="st10" d="M28 37.2h-.7c-4.5.5-8.4 1.5-13 .3-3-.9-5.7-2.5-7.9-4.7-2.3-2-1-2.6 1.2-3.4 3.5-1.2 11.7-2.1 16.3.3l.1.3c0 .1.2.1.2.1.1 0 .1-.1.1-.1 1.4.8 2.4 2.2 2.7 3.7 0 .3.1.5.1.8.1.9.4 1.8.9 2.7z"/><path class="st0" d="M28 38l-.8.4c-.1 0-.2.1-.3.1-.3.1-.5.2-.8.4H26c-.5.2-1 .3-1.5.4 1.1-.9 2.4-1.7 3.5-1.3zM27.9 64.5v.8c-.1.2-.3.3-.5.4 0-.3 0-.5.1-.8.1-.1.2-.3.4-.4zM27.8 34.2v.3c0 .1-.1.2-.2.3v-.5-.3-.6-1.1c.1.2.1.4.2.6v.1c-.2.4-.1.8 0 1.2z"/><path class="st0" d="M27.6 32.8c.1.5.2.9.2 1.4-.1-.4-.2-.8-.2-1.2v-.2zM27.5 34.3v.4c-.2 0-.3-.1-.4-.2 0-.3 0-.5-.1-.8v-1.4c.2.3.3.7.3 1 .1.2.1.4 0 .6v.3l.2.1zM27.5 64.9c0 .3 0 .5-.1.8-5.9 5.1-12.4 9.4-19.3 12.8.1-.2 0-.3-.2-.4h-.1c5.9-3.1 11.7-6.2 16.8-10.7 1-.8 1.9-1.6 2.9-2.5zM27.4 33.9v0z"/><path class="st0" d="M27.4 32.2v1.1c0-.3-.1-.7-.3-1v-.8c.1.2.2.5.3.7zM26.8 38.5c.1 0 .2-.1.3-.1-.4.2-.7.3-1.1.5.3-.2.6-.3.8-.4z"/><path class="st0" d="M27.1 31.5v.8c-.6-1.1-1.5-2.1-2.6-2.6V29c1.1.5 2 1.4 2.6 2.5z"/><path class="st0" d="M27.1 32.3v1.4c-.3-1.6-1.3-2.9-2.7-3.7v-.2c1.2.4 2.1 1.4 2.7 2.5zM27.3 37.2c-.8.2-1.6.6-2.3 1.1-8.1 1.8-15.1-.5-21-7.5 1.1-.8 2.4-1.5 3.7-1.8.1.1.2.1.3 0 .4-.1.8-.2 1.1-.4.1 0 .2 0 .2-.1 4.5-.9 10.5-.9 14.3.8 0 .1.1.2.1.3-4.6-2.4-12.7-1.5-16.3-.3-2.3.8-3.5 1.4-1.2 3.4 2.2 2.1 4.9 3.8 7.8 4.7 4.9 1.4 8.8.3 13.3-.2zM24.5 39.3c.5-.1 1-.2 1.5-.4-1.5.9-2.7 2.2-3.5 3.7-2 3.8-2.5 7.5-.8 11.4l-.3.3c-.3-.4-.6-.9-.8-1.4 0-.1 0-.2-.1-.3-1.3-3.7.2-8.7 2.3-11.5.6-.6 1.1-1.2 1.7-1.8zM24.4 29.7v.2l-.2-.1v-.3c.1.1.2.1.2.2z"/><path class="st0" d="M24.4 29v.7c-.1 0-.2-.1-.3-.1-.1-.2-.1-.5-.2-.8.2 0 .4.1.5.2zM24.2 29.8l.2.1c0 .1-.1.2-.2.1-.1 0-.1 0-.1-.1l-.1-.3c0 .1.1.2.2.2z"/><path class="st0" d="M23.9 20c-.1 0-.3.1-.5.2.1-.5.1-1 .2-1.5 0-.1.2-.2.3-.2.1 0 .2.1.2.2.2 1.8.2 3.5 0 5.3 0 1.7.2 3.3.2 5-.1-.1-.3-.2-.4-.2-.3-2.7-.4-5.3-.1-8l.3-.3c.1-.3 0-.6-.2-.5zM24.2 29.5v.3c-.1-.1-.2-.1-.3-.1-.1-.1-.1-.2-.1-.3.1 0 .2.1.4.1z"/><path class="st0" d="M23.9 20.3V20c.2 0 .4.3.3.4l-.3.3c-.1-.1-.1-.2 0-.4zM24 28.8c0 .3.1.5.2.8-.1-.1-.3-.1-.4-.2-.1-.3-.2-.5-.3-.8.2 0 .4 0 .5.2zM25 38.4c-.5.4-.9.7-1.3 1.1-6.8 1.3-14.1-2-18.8-7 .1-.3-.2-.6-.6-.6-.2-.2-.4-.5-.6-.7-.1-.1-.2-.4 0-.5 1.2-.8 2.4-1.5 3.8-1.9 0 .1.1.2.2.2-1.4.3-2.7 1-3.7 1.9 5.9 7 12.9 9.3 21 7.5z"/><path class="st0" d="M23.7 39.5c.3 0 .5-.1.8-.2-.6.5-1.1 1.1-1.6 1.8-2.1 2.8-3.6 7.9-2.3 11.5-.1-.2-.4-.2-.5-.1-1.2-3.5.1-8.3 2-11 .5-.7 1-1.4 1.6-2zM23.9 20.3c-.2.2-.4.3-.6.4 0-.2 0-.4.1-.6s.3-.1.4-.2v.4z"/><path class="st0" d="M23.9 20.3v.4l-.6.6c0-.2 0-.4.1-.6.1-.1.3-.2.5-.4zM23.8 20.8c-.2 2.7-.2 5.3.1 8-.2-.1-.3-.2-.5-.2-.5-2.3-.6-4.8-.3-7.1.4-.3.6-.5.7-.7z"/><path class="st0" d="M23.5 28.5c.1.3.2.6.3.8-3.8-1.7-9.8-1.8-14.3-.8.4-.2.8-.4 1.1-.6 4.3-.8 9.4-.8 12.9.6zM23.4 20.2c0 .2 0 .4-.1.6-1.9 1.3-5 1.9-7 2.9-2.6 1.5-5.4 3.9-8.2 4.9v.1l-.4.1c-.1-.2 0-.4.2-.5 3.1-1.6 5.8-4 9-5.4 2-1 4.3-1.8 6.5-2.7z"/><path class="st0" d="M23.3 20.8c0 .2 0 .4-.1.6-1.4 1.2-3.6 1.6-5.3 2.2-2.7 1-4.8 3-7.4 4.4-.9.2-1.7.4-2.5.6 2.8-1 5.6-3.4 8.3-4.9 2-1 5.1-1.6 7-2.9zM21.9 54.4c.1.2 0 .4-.2.4h-.1-.1c-.1 0-.1-.1-.1-.2s0-.2.1-.3c0 .1.1.2.2.2 0 0 .1-.1.2-.1-.1-.1 0 0 0 0z"/><path class="st0" d="M21.7 54c0 .1.1.2.1.3-.1.1-.1.2-.2.2-.1-.1-.1-.2-.2-.2l.3-.3zM21.4 54.3c-.1.1-.2.3-.1.4-.4-.4-.7-.8-.9-1.3.1-.1.1-.2.2-.3v-.2c.3.5.5 1 .8 1.4zM20.6 52.6c.1.1.1.2.1.3-.1-.1-.1-.2-.1-.3z"/><path class="st0" d="M20.2 52.9c0-.1-.1-.3-.1-.4.2-.1.4-.1.5.1 0 .1 0 .2.1.3v.2c-.1.1-.1.2-.2.3-.2-.2-.2-.3-.3-.5zM20.4 3.9c.1.1.1.2.1.3h-.6c-.1 0-.3-.1-.3-.3l.3-.2c.2 0 .4.1.5.2z"/><path class="st0" d="M20 4.2l.5-.1c0 .1-.1.2-.1.3-3.5 2.9-6.6 6.3-9.1 10.1.3-.5.7-1 1-1.5 2-2.9 4.5-6.8 7.7-8.8zM20.2 52.9c.1.2.1.3.2.4-2.6 4.1-5.4 8.1-7.8 12.3-1.2 2-2.3 4-3.5 6-.2.4-2.7 5.3-2 6.3-.1.2-.1.5.2.7-1.4.4-1-1.9-.7-2.8 1-2.5 2.3-4.9 3.7-7.1 3-5.5 6.3-10.7 9.9-15.8z"/><path class="st0" d="M20.1 52.5c0 .2.1.3.1.4-3.6 5-6.9 10.3-9.9 15.7-1.4 2.3-2.7 4.7-3.7 7.1-.3.9-.7 3.2.7 2.8.1.1.4.2.5.1.1 0 .2-.1.3-.1 0 .1-.1.2-.2.2-3 .8-1.8-3-1-4.6 3.6-7.6 8-14.8 13.1-21.5 0 0 0-.1.1-.1zM11.3 14.6c-4.2 6.3-7.5 13.1-9.9 20.3-.3.3-.6.6-.7.9-.2 0-.4-.2-.3-.5v-.1c1.7-7 4.9-13.1 9-19 3-4.4 5.8-9.4 10.3-12.3 0 .2.1.3.3.3-3.2 2-5.6 5.8-7.6 8.8-.4.6-.8 1.1-1.1 1.6zM10.6 28c-.4.2-.8.4-1.1.6-.1 0-.2.1-.2.1-.5.1-1 .2-1.4.4-.1 0-.2-.1-.2-.2l.3-.3h.1c.7-.3 1.6-.5 2.5-.6z"/><path class="st0" d="M9.2 28.6c-.4.2-.7.3-1.1.4-.1.1-.2.1-.3 0 .4-.2.8-.3 1.4-.4zM7.3 78.6c-.2-.1-.3-.4-.2-.6.1.1.4.2.5.1h.2c.2 0 .3.2.3.4v.1c-.1.1-.2.1-.3.1-.2.1-.4 0-.5-.1zM4.3 31.9c.3 0 .7.3.6.6l-.6-.6z"/><path class="st0" d="M4.9 32.5c0 .1 0 .1-.1.2-.7.9-1.4 1.8-2.1 2.6-.6.7-1 1.5-1.9 1.6-.1 0-.3-.1-.3-.2 0-.3 0-.5.2-.7.2.1.4-.1.5-.3.1-.2.1-.4.2-.6.1-.2.3-.3.4-.5.7-1 1.4-1.9 2.2-2.6.1-.1.2-.1.3-.1l.6.6z"/><path class="st0" d="M1.4 34.9c-.1.2-.1.4-.2.6-.1.2-.3.4-.5.3.1-.3.4-.7.7-.9z"/><path class="st11" d="M90.1 30.3c-2 .3-4.5-4.9-2.2-5.7s3.4 4.3 2.9 5.7"/><path class="st12" d="M90.1 30.3c-2 .3-4.5-4.9-2.2-5.7s3.4 4.3 2.9 5.7"/><path class="st11" d="M90.2 29.8c-.9-.4-1.5-1.1-1.9-1.9-.3-.5-1-2.5 0-2.6.9-.1 1.3 1.6 1.5 2.1.2.9.3 1.9.2 2.8 0 .4.4.8.8.8.3 0 .5-.2.7-.4 1.2-2.1-1.1-8.6-4.2-6.7-2.8 1.7.2 8.2 3 6.7.2-.1.3-.4.2-.6 0-.1-.2-.2-.3-.2zM95 29c.9 0 1.4-1.2.6-2.5-1.8-2.7-1.8 1.5-.4 3"/><path class="st12" d="M95 29c.9 0 1.4-1.2.6-2.5-1.8-2.7-1.8 1.5-.4 3"/><path class="st11" d="M95.4 29.5c.8-.3 1.3-1.2 1-2.1 0-.1-.1-.2-.2-.3-.3-.6-1-2-1.9-1.8-1.5.3-.6 4.6.8 4.5.3 0 .4-.1.3-.3.2-.3 0-.6-.2-.9-.2-.5-.4-1-.5-1.6-.1-.4 0-.8.1-1.2-.1.3.4.6.6.8.4.5.3 1.3-.2 1.7-.1 0-.1.1-.2.1-.3.2-.3.5-.2.8.2.3.4.4.6.3z"/></g><ellipse class="st4" cx="193.7" cy="-44.2" rx="72.3" ry="42.7"/><path class="st4" d="M145.6-25.5l-8.9 18.9 30.6-5.8z"/><path class="st13" d="M226.1-45.8c-2.2-.9-13.5-4.8-15.5-5.4-1.5-.4-5.5-2-2.1-4.8 7.2-7.4 7-12.1 5.9-15.3-1-2.7-5.3-4.3-7.5 1-2.3 5.4-6 7.1-8.4 8.9-4.9 3.7-15 11-15 11l-5 22.8s16.9 7.6 21.1 9c3.9 1.3 7.5.3 9.9-1.6 2.8-2.2 12-14.1 14-16.7 5-2.9 4.8-8 2.6-8.9z"/><path transform="rotate(-77.719 169.728 -40.287)" class="st13" d="M155.7-45.4h28v10.2h-28z"/></svg>