<svg id="レイヤー_1" xmlns="http://www.w3.org/2000/svg" viewBox="0 0 142.5 143.7"><style>.st0{fill:#ec9d1b}.st1{fill:#f3ed64}.st2{fill:#1d3033;stroke:#1d3033;stroke-width:.66;stroke-linecap:round;stroke-linejoin:round}.st3{fill:#957884}.st4{fill:#8c4289}.st5{fill:#ebd494}.st6{fill:#9068a2}.st8{fill:#f7e5d7}.st10{fill:#fff}.st11{fill:none}</style><g id="レイヤー_3"><path class="st0" d="M142.3 103.3c.3.3.2.8-.1 1-.1.1-.2.1-.2.1-2.8 1-5.4 1.9-5.6 5.4-.1 1.3-.2 2.5-.4 3.8-.1.4-.6.7-1 .6-.1 0-.1 0-.2-.1-1.2-.7-2-1.8-2.5-3.1-2-4.1-6.1-2.1-8.9-.7-.4.2-.8.1-1-.3-.1-.1-.1-.2-.1-.4.2-2.7 2.8-6.4 1.2-8.9-1-1.5-1.9-3.1-2.5-4.8-.1-.4.1-.7.4-.9h.1c2.6-.4 4.2.2 6.5 1.6.1 0 .1.1.1.1-.2.3-.3.6-.4.9l-.1-.3c-1.7-1.2-3.8-2.4-5.9-1.7.5 2.6 3.1 4.5 3.3 7 .2 2.1-1.6 4-1.9 6-.1.1-.3.1-.4.2.1.1.2.1.4.2v.4c.1-.1.2-.1.4-.2.1.1.2.1.4.2 0-.1 0-.3.1-.4 1.9-1 4.6-2.3 6.7-1.5 2.3.8 2.4 3.8 4 5.2v.2c.1 0 .2-.1.2-.1.2.1.3.2.5.3.1-.2.1-.4.1-.6.1-.1.2-.1.3-.1l-.2-.2c.2-1.9.2-4.7 1-6 1.1-1.6 2.8-1.8 4.7-2.5.1.1.2.1.2.2 0-.1.1-.2.1-.3.1 0 .3-.1.4-.2l-.3-.3c0-.1.1-.3.1-.4l-.4.2c-1.9-1.5-5.4-3-6.2-4.9-.6-1.4 0-5.2.2-7.4l.4-.3-.4-.2v-.4c-.1.1-.2.1-.3.2l-.4-.2c0 .2 0 .3-.1.5-2.5 1.9-5.7 5.4-6.6 8l-.2-.4c.4-.2.6-.7.4-1.1 0-.1-.1-.1-.1-.2 1.7-3 4-5.4 6.9-7.2.3-.2.7-.1.9.2.1.1.1.2.1.3-.1 2.5-1.6 7.4.8 9.3 1.7 1.6 3.8 2.7 5.5 4.2z"/><path class="st0" d="M141.9 103.7c-.1.1-.3.1-.4.2.1-.1.1-.3.1-.4.1.1.2.2.3.2zM141.7 103.1c0 .1-.1.3-.1.4-.1-.1-.2-.1-.3-.2l.4-.2z"/><path class="st0" d="M141.6 103.5c0 .1-.1.3-.1.4-.1.1-.2.1-.3.1-.2-.2-.5-.3-.7-.5l.9-.3c0 .1.1.2.2.3z"/><path class="st0" d="M141.4 103.9c0 .1-.1.2-.1.3-.1-.1-.2-.1-.2-.2.1 0 .2 0 .3-.1zM141.3 103.2l-.9.3c-2.1-1.3-5.4-2.8-6-5s-.1-4.7.1-7l.7-.5c-.1 2.2-.8 6-.2 7.4.9 1.8 4.4 3.3 6.3 4.8zM140.4 103.5c.3.2.5.3.7.5-1.9.7-3.6.9-4.7 2.5-.8 1.2-.8 4-1 6-.3-.2-.6-.5-.8-.8.1-1.9.2-4.4 1.3-5.6 1.3-1.2 2.8-2.1 4.5-2.6z"/><path class="st1" d="M134.4 98.5c.6 2.3 3.9 3.7 6 5-1.7.4-3.2 1.3-4.4 2.5-1.1 1.2-1.2 3.7-1.3 5.6-1.2-1.7-1.7-4.2-3.9-4.7-2.4-.5-4.5.2-6.6 1.2.6-1.8 1.8-3.9 1.4-5.6-.2-.9-.5-1.8-.9-2.6-.5-.7-.9-1.5-1.4-2.3 1.5-1 2.8-.9 3.9.3.1.1.2.1.3.1 0 .1 0 .1-.1.2-.3.7.9 1.2 1.2.5 1.4-2.9 3.4-5.4 5.9-7.4-.3 2.6-.7 4.9-.1 7.2z"/><path class="st0" d="M135.7 112.7c-.1 0-.2.1-.3.1s0-.2 0-.3l.3.2zM135.6 90.7l-.4.3v-.5l.4.2z"/><path class="st0" d="M135.4 112.5v.3c-.2.1-.4.2-.6.2-.1 0-.2-.1-.2-.1 0-.4.1-.8.1-1.2.2.3.4.6.7.8z"/><path class="st0" d="M135.4 112.8c0 .2-.1.4-.1.6-.2-.1-.4-.2-.5-.3.1-.1.4-.2.6-.3zM135.3 90.1v.4l-.3-.2c.1-.1.2-.1.3-.2zM135.2 90.5v.5l-.7.5c.1-.3.1-.6.1-.9.1-.1.3-.2.4-.3l.2.2z"/><path class="st0" d="M134.6 90.1l.4.2c-.1.1-.3.2-.4.3v-.5zM134.7 113.1c-.1 0-.2.1-.2.1v-.2c.1 0 .1.1.2.1zM134.6 111.7c0 .5-.1.9-.1 1.2-1.6-1.4-1.7-4.3-4-5.2-2-.8-4.8.5-6.7 1.5 0-.3.1-.7.3-1 2.1-1 4.2-1.7 6.6-1.2 2.2.5 2.7 3 3.9 4.7zM134.6 90.6c0 .3 0 .6-.1.9-2.5 2-4.5 4.5-5.9 7.4-.3.7-1.5.2-1.2-.5 0 0 0-.1.1-.2.1.1.3.1.4 0l.2.4c.8-2.6 3.9-6.1 6.5-8z"/><path class="st2" d="M134.4 75.2c1.9 2.3-3.6 3.7-4.9 3.9-2.1.2-4.3.3-6.4.1h-1.5c.1-.3.1-.6.2-1 3.5.2 11.7.7 12.2-2.4.2 0 .4-.1.4-.3v-.1c.1-.1 0-.2 0-.2z"/><path class="st2" d="M134.1 75.4c-.1-.2-.1-.3-.1-.5.1-.1.3 0 .3.1.1 0 .1.1.1.2v.1c.1.2-.1.4-.3.5h-.1c.1-.1.1-.2.1-.4z"/><path class="st2" d="M134.4 75.2c-.1-.1-.1-.1-.1-.2-.1-.1-.2-.1-.3-.1-.1-.6-.3-1.3-.5-1.9.2-.1.3-.2.2-.4-.3-1.2-.6-2.4-.8-3.6.6 2 1.2 4.1 1.5 6.2zM134.1 75.4c0 .1 0 .3-.1.4-.2 0-.3-.1-.4-.3 0-.1 0-.1-.1-.2s.2-.2.2-.3l.1-.1c.2.2.2.4.3.5z"/><path class="st2" d="M133.4 73c.2.6.4 1.3.5 1.9l-.1.1c-.1.1-.2.2-.2.3-3.6-9.2-8.9-17.6-15.7-24.7-.2-.4-.4-.9-.6-1.3-.1-.2-.4-.2-.5-.1-.1 0-.1.1-.1.2-1.4-1.4-2.8-2.6-4.3-3.9-6-5-15.9-14-24.1-14.2.5-.1 1-.3 1.5-.4 5.2.7 13.6 7 17 9.2 9.9 6.8 19.3 16.3 24.6 27.4.5 1.8 1.1 3.6 1.7 5.4-.2.1 0 .2.3.1-.1 0 0 0 0 0zM133.7 75.5c.1.2.2.3.4.3-.6 3.1-8.7 2.6-12.2 2.4 0-.3.1-.7.1-1.1 1.7-.1 3.9.3 4.9.2 1.6.1 3.3-.1 4.9-.5.8-.3 1.5-.8 1.9-1.5-.1.1-.1.1 0 .2z"/><path class="st2" d="M133.6 72.6c.1.2 0 .4-.2.4-.1-.3-.2-.7-.3-1-.6-2.2-1.2-4.5-1.8-6.7.6 1.1 1.1 2.3 1.5 3.5v.1c.3 1.3.5 2.5.8 3.7zM133.1 72.1c.1.3.2.7.3 1-.2.1-.4 0-.5-.2v-.1c-.6-1.8-1.2-3.6-1.7-5.4.7 1.6 1.3 3.1 1.9 4.7z"/><path class="st2" d="M133.1 72.1c-.5-1.6-1.2-3.1-1.9-4.6-.4-1.5-.9-3.1-1.3-4.6.5.8 1 1.7 1.4 2.6.5 2.1 1.1 4.4 1.8 6.6z"/><path class="st3" d="M133.6 75.3c-.5.7-1.1 1.2-1.9 1.5-1.6.4-3.2.6-4.9.5-.9 0-3.2-.4-4.9-.2.1-1.4.1-2.7.1-4.1-.3-8.1-.7-15-4.1-22.4 6.8 7.2 12.1 15.5 15.7 24.7z"/><path class="st2" d="M132.8 68.9c-.4-1.2-.9-2.4-1.5-3.5-1.6-5.9-3.3-11.8-6.2-17.2-.9-1.6-2.2-3.2-2.7-4.9-.5-2-.5-4.3-.8-6.4-.8-5.2-1.6-10.5-2.2-15.8-.4-4.1-2-8.4-2.3-12.5h.2c.1 0 .2-.1.2-.2.7 5 2.1 9.9 2.8 15 .5 3.7 1 7.4 1.6 11.1.4 2.5.2 6.5 1.1 8.6 2.2 5.1 5.1 9.5 6.8 14.9 1.1 3.6 2.1 7.2 3 10.9z"/><path class="st2" d="M125.1 48.1c2.9 5.4 4.6 11.3 6.2 17.2-.4-.9-.9-1.7-1.4-2.6-.6-2.2-1.3-4.4-2.1-6.6-1.8-5-5.5-9.6-6.4-14.9s-1.4-10.5-2-15.7c-.7-5.7-2.3-11.3-2.6-17.1h.4c.2 4.1 1.8 8.4 2.3 12.5.6 5.3 1.4 10.5 2.2 15.8.3 2 .2 4.4.8 6.4.3 1.9 1.7 3.4 2.6 5zM129.9 62.8c.4 1.5.9 3.1 1.3 4.6-5.3-11.2-14.7-20.6-24.6-27.4-3.4-2.3-11.8-8.5-17-9.2l1.2-.4c3.4.6 6.7 2.6 9.4 4.3 4.7 2.8 9.1 5.9 13.3 9.3 6.2 5.3 12.3 11.6 16.4 18.8zM128.8 132.3c0-.1-.1-.2-.2-.3.1-.1.2-.1.3-.2.3-.3.7.1.4.4-.1.1-.3.3-.4.5 0-.1 0-.2-.1-.4z"/><path class="st2" d="M128.8 132.3c.1.1.1.3.1.4l-.5.5h-.5c.3-.2.6-.5.9-.9zM128.4 133.3l.5-.5c-.1.2-.3.4-.5.5z"/><path class="st2" d="M128 132.6c.2-.2.4-.3.6-.5.1.1.2.1.2.3-.3.3-.6.7-.9.9-.2-.1-.4-.1-.6-.1.3-.2.5-.4.7-.6z"/><path class="st2" d="M128.6 132.1c-.2.2-.4.4-.6.5-1.7-.5-3.5-1.4-5.2-2.1-2.2-.9-6.5-.9-8.2-2.5-1.4-1.3-1.7-5-2.3-6.8-1.7-5.3-3.5-10.4-4.8-15.8-1-4.6-2.4-9.1-4.3-13.4.1 0 .2 0 .4-.1 4.2 8.3 5.9 18 8.8 26.8 1.6 5 1.9 8.9 7.9 10.2 3 .6 5.5 2 8.3 3.2z"/><path class="st4" d="M127.8 56.2c.8 2.2 1.5 4.4 2.1 6.6-4.1-7.3-10.2-13.6-16.4-18.8-4.2-3.4-8.7-6.5-13.3-9.3-2.7-1.7-6-3.8-9.4-4.3 2.7-.8 5.2-2.2 7.3-4 5.3-4.6 8.2-12.4 5.4-18.6 2.2.1 4.4 0 6.6.1s4.4.6 6.6.6c.4 5.7 1.9 11.4 2.6 17.1.6 5.2 1.1 10.6 2 15.7s4.7 9.9 6.5 14.9z"/><path class="st2" d="M128 133.3h.4c-6.5 7-19.9 9.7-30.7 8 .1-.2.1-.4-.1-.5-.1 0-.1-.1-.2-.1-.9 0-1.8-.1-2.7-.1-2.6-.6-5.1-1.6-7.3-3-6.9-4.2-11.7-11.2-13.1-19.3-.6-4-.9-8-.9-12 0-2.7.1-5.3.2-8 0-.6-.1-1.9-.2-3.1.2-.3.4-.6.7-.9.2 12.3-1.9 25.9 6.5 36.3 8.2 10.2 20 10.9 32 8.8 4.6-.8 11.6-2.8 15.3-6.3l.1.2z"/><path class="st0" d="M128.1 96.8c.3.3.3.9 0 1.2-.1.1-.1.1-.2.1l-.2-.4c0-.3.2-.6.4-.9z"/><path class="st2" d="M127.3 133.1c.2.1.4.1.6.1-3.7 3.5-10.7 5.5-15.3 6.3-12 2.1-23.8 1.4-32-8.8-8.4-10.4-6.3-24-6.5-36.3l.3-.6c1.3 14.9-2.5 33.9 13.7 42.4 10.6 5.6 29.4 4.9 39.2-3.1z"/><path class="st0" d="M127.8 98.2c-.1.1-.3.1-.4 0 .1-.2.1-.3.2-.5l.2.5z"/><path class="st2" d="M128 132.6c-.2.2-.4.4-.7.5-4-1-8-2.1-11.9-3.5-2.2-.8-2.9-3.3-3.3-5.4-1.1-5.6-3.3-10.8-4.7-16.3-1.2-5.3-2.7-10.6-4.5-15.8.1 0 .3-.1.4-.1 1.8 4.3 3.3 8.8 4.3 13.4 1.3 5.3 3.1 10.5 4.8 15.8.6 1.8.9 5.6 2.3 6.8 1.7 1.6 6 1.6 8.2 2.5 1.7.7 3.4 1.6 5.1 2.1z"/><path class="st0" d="M127.7 97.7c-.1.1-.2.3-.2.5-.1 0-.2 0-.3-.1-1.1-1.2-2.4-1.3-3.9-.3.5.8 1 1.5 1.4 2.3.5.8.8 1.7.9 2.6.4 1.7-.8 3.8-1.4 5.6l-1.1.5c.3-2 2.1-3.9 1.9-6-.2-2.6-2.8-4.5-3.3-7 2.1-.7 4.2.5 5.9 1.7l.1.2z"/><path class="st0" d="M124.1 108.2c-.1.3-.2.7-.3 1l-.4.2c-.2-.1-.3-.2-.4-.2v-.4l1.1-.6zM123.9 109.2c0 .1-.1.3-.1.4-.1-.1-.2-.1-.4-.2l.5-.2z"/><path class="st0" d="M123.4 109.4c-.2.1-.3.2-.4.2v-.4c.2.1.3.1.4.2zM123.1 108.8v.4c-.1-.1-.2-.2-.4-.2.1-.1.2-.2.4-.2z"/><path class="st2" d="M122 73c.1 1.4.1 2.8 0 4.2h-.5c0-.7 0-1.3-.1-2-.4-3.8.6-7.6-.2-11.3-.9-4.8-2.4-9.5-4.2-14l.8.8c3.4 7.3 3.8 14.2 4.2 22.3z"/><path class="st2" d="M121.9 77.1c0 .4-.1.7-.1 1.1h-.4v-1c.2-.1.4-.1.5-.1zM121.8 78.2c0 .3-.1.7-.2 1h-.4c.1-.3.1-.6.2-.9l.4-.1z"/><path class="st2" d="M121.4 78.2c-.1.3-.1.6-.2.9-.4 0-.9-.3-1.1-.6 0-.1-.1-.1-.1-.2.1-.2.1-.3.1-.5v-.1c.3-.3.8-.5 1.2-.6.1.4.1.8.1 1.1z"/><path class="st2" d="M121.3 75.2c.1.7.1 1.3.1 2-.5 0-.9.2-1.2.6.8-3.8 1-7.7.4-11.6-.7-5.7-2.5-11.2-4.1-16.7v-.2l.5.5c1.8 4.6 3.2 9.3 4.1 14.1.8 3.8-.2 7.5.2 11.3zM121.2 79.1h.4c-.7 3-2.6 5.5-5.2 7-4 2.5-8.3 4.5-12.8 5.7-.1-.2-.2-.4-.2-.5-.2-.3-.8-.1-.6.3l.2.4c-6 1.5-12.1 1.5-16.3-2h.7c5.2 3.6 13.8 1.5 19.2-.2 4.9-1.5 10.3-3.9 13.4-8.1.4-.7.9-1.6 1.2-2.6z"/><path class="st5" d="M120.7 66.2c.5 3.8.4 7.8-.4 11.6v.1c0 .1 0 0-.1.1s-.1.3-.1.4c-.5 2.1-1.6 4.1-3.2 5.6-6.2 6-19.9 9.5-28.3 6.2 8-.9 13.8-11.2 14.6-18.6 6.8-3.6 10.3-11.3 8.6-18.8-.1-.5-.9-.3-.8.2 1.8 9.3-4.8 15.7-12.8 18.8-.1 0-.2.1-.3.2-.8-2.8.1-6.9-.4-9.8-.8-5.1-2.1-10.1-3.9-15-.1-.4-.8-.2-.6.2 1.3 4.3 2.4 8.7 3.1 13.1H96c0-.3-.2-.6-.5-.6-10.8.4-18.6-7.6-18.9-18.3 0-.2-.2-.4-.4-.4s-.4.2-.4.4c0 2.7.5 5.4 1.5 8-.5 1.8-.9 3.6-1.4 5.4-.2.7-.3 1.3-.3 2-4.8-6-7.3-13.9-3.2-21.2 3.7-.2 7.3-1.7 11-3.1 1.6-.6 3.2-1 4.7-1.5 8.2.2 18.1 9.2 24.1 14.2 1.5 1.2 3 2.5 4.3 3.9v.2c1.7 5.5 3.4 11 4.2 16.7z"/><path class="st2" d="M120.1 78.5c.2.4.7.6 1.1.6-.3 1-.8 1.9-1.4 2.8-3.1 4.2-8.5 6.6-13.4 8.1-5.3 1.7-14 3.7-19.2.2.4 0 .9 0 1.3-.1 8.4 3.4 22.2-.2 28.3-6.2 1.5-1.6 2.6-3.5 3.2-5.6.1.1.1.1.1.2zM120.1 77.9c0 .1 0 .3-.1.4 0-.1 0-.3.1-.4zM117 49.8l-.5-.5c.1-.2.3-.3.5-.2.1 0 .1.1.2.1.2.4.4.9.6 1.3-.2-.2-.5-.5-.8-.7zM117.5 8.2c.1.1.1.1 0 .2v-.2zM116.7 8.2c0-.1.2-.2.3-.3.1.1.2.1.4.2 0 0 .1 0 .1.1v.2c0 .1-.1.2-.2.2h-.7v-.2c0-.1 0-.2.1-.2zM117.5 8.1s-.1 0 0 0c-.2-.1-.3-.2-.4-.3.1.1.3.2.4.3z"/><path class="st6" d="M115.4 129.6c3.9 1.4 7.9 2.5 11.9 3.5-9.9 7.9-28.7 8.6-39.2 3.2-16.2-8.4-12.4-27.4-13.7-42.4 1.3-2.3 1.6-5.1.7-7.6 4.9 1.2 12 2.4 17 .7-1.6 1.1-3.5 1.8-5.4 2.2l-.1-.1c-.2-.1-.5 0-.6.2-.2.1-.3.3-.2.5 0 .1.1.2.2.2l.7.1c4.2 3.5 10.3 3.5 16.3 2 1.8 5.2 3.3 10.4 4.5 15.8 1.4 5.5 3.6 10.8 4.7 16.3.3 2.1 1 4.7 3.2 5.4z"/><path class="st2" d="M117 7.9c-.2 0-.3.1-.3.3-4.3-1.2-9-.9-13.5-.9l-.3-.6c4.2-.4 10.3-1 14.1 1.2z"/><path class="st2" d="M116.7 8.1l-.1.1v.2c-2.2-.1-4.4-.6-6.6-.6s-4.4 0-6.6-.1l-.3-.6c4.6.1 9.3-.2 13.6 1zM102.6 70.8c-.1 0-.1.1-.2.2l-.4 1c-1.1.5-2.3.8-3.4.9-.2 0-.4 0-.5-.2.1-.1.1-.3.1-.4-.2-.1-.2-.3-.2-.5.1-.1.2-.1.3-.2 8-3.1 14.5-9.5 12.8-18.8-.1-.5.7-.7.8-.2 1.7 7.5-1.9 15.1-8.6 18.8V71c0-.2-.1-.4-.3-.4h-.1c-.2 0-.3.1-.3.2 0-.1-.1-.1 0 0zM103.3 92c-.1 0-.2.1-.4.1l-.2-.4c-.2-.4.5-.6.6-.3.1.2.2.4.2.5 0 .1-.1.1-.2.1zM103.5 7.8c2.8 6.2-.1 14-5.4 18.6-2.1 1.8-4.6 3.2-7.3 4-.6-.1-1.1-.1-1.7-.1 9.7-2 17.7-14.1 13.6-22.4.3-.1.5-.1.8-.1z"/><path class="st2" d="M103.2 7.3l.3.6h-.8c-.1-.3-.3-.6-.5-.9.1-.1.2-.2.4-.2h.3c.1.1.2.3.3.5zM102.7 71.7c-.2.1-.4.2-.7.3l.4-1c0-.1.1-.1.2-.2 0 0 .1 0 .1-.1s.1-.1.2-.1c.2 0 .4.1.4.3v.5c-.3.1-.5.2-.6.3z"/><path class="st2" d="M102.7 7.8c4.1 8.3-3.9 20.5-13.6 22.4H89c-.4 0-.7 0-1.1.1-.1 0-.3.1-.4.2-5.2 1.1-9.9 4.2-15 4.6-.1-.3-.4-.6-.7-.5-.2 0-.3.1-.4.3l-.2.3c-2 0-4-.6-5.7-1.6-.1-.3-.4-.4-.7-.4.1-.3.4-.4.7-.3 8.2 2.9 16-1.4 23.9-3.7 5.7-1.7 10.9-6.3 12.6-12.1 2.1-7-1.8-16-10.5-15.4-5 .4-9.7 3.1-12.5 7.4-.1-.2-.3-.3-.5-.3C82 3.5 89-.5 95.1 1.6c2.9.9 5.5 2.8 7.2 5.3-.2.2-.2.6.1.8 0 .1.1.1.3.1z"/><path class="st2" d="M102.9 6.7h-.3c-.1 0-.3.1-.4.2-1.7-2.5-4.2-4.4-7.2-5.3-6-2.1-13 1.9-16.6 7.2h-.1c-.2.1-.4.1-.6.2 4.8-7.6 15.5-12.2 23-5.1.9.8 1.6 1.8 2.2 2.8zM102.7 71.7c.2-.1.4-.2.5-.3-.8 7.4-6.6 17.7-14.6 18.6-.3-.1-.7-.3-1-.4 8.1-.8 13.4-10.8 15.1-17.9zM102.7 7.8c-.4 0-.6-.3-.6-.6 0-.1.1-.2.1-.3.2.3.4.6.5.9zM102.7 70.7c-.1 0-.1.1 0 0-.2 0-.1 0 0 0z"/><path class="st2" d="M102 72l.6-.3c-1.6 7.1-7 17.1-15.1 17.9-.3-.1-.5-.3-.8-.4 1.9-.4 3.7-1.1 5.4-2.2.7-.2 1.4-.5 2.1-.9.2-.1.3-.4.1-.6 0-.1-.1-.1-.1-.1 3.8-3.5 6-8.5 7.8-13.4z"/><path d="M91.6 1.7c8.7-.6 12.6 8.5 10.5 15.4-1.7 5.8-7 10.4-12.6 12.1-7.8 2.3-15.7 6.6-23.9 3.7-.3-.1-.6 0-.7.3h-.2c-12.2 5.7-24.3 14.6-34.8 22.9-5.6 4.6-10.9 9.6-15.8 15-2.6 2.8-5.3 5.4-7.7 8.2C5 81.1 4 84 1.7 84.8c5.9-10.5 16.1-19.8 24.7-28 11.4-10.8 23.9-19.1 37-27.6.2-.1.3-.3.2-.5.2.1.4.1.5-.1 1.4-2.8 2.8-5 5.4-6.9 2.1-1.3 4.3-2.5 6.5-3.4 2.5 6 11.9 9.3 13.2 2.2.1-.2 0-.4-.3-.5-.2-.1-.4 0-.5.2-1.8 2.6-3.9 3.5-6.5 2.6-5.5-1.2-5.6-8-3.8-12.1.1-.3.2-.5.3-.7.1 0 .2-.1.3-.1.3-.1.4-.4.3-.7 0-.1-.1-.1-.1-.1 2.9-4.3 7.6-7 12.7-7.4z" fill="#9e7642"/><path class="st8" d="M98.6 72.9c1.2-.2 2.3-.5 3.4-.9-1.8 4.9-4 10-7.7 13.4-.1-.1-.3-.2-.4-.1-3.4.7-6.8.9-10.3.9-3-.2-5.9-.8-8.9-.8-.5-.9-1.3-1.7-2.2-2.2-2.4-1.4-5.4-1.2-7.7.4-2.2-2.7-4.6-5.2-7.2-7.5-2.5-2.3-4.7-5-7.3-7.2C54.1 57.5 60.6 46.8 69.7 39c-2 6.9 0 15.6 6.1 19.4.1.3.2.5.4.7.1.1.2.2.4.1l.1-.1v-.2c.1.1.2 0 .2 0 .1-.1 0-.2 0-.2s-.1-.1-.1-.2c.3-1.4.3-3 .6-4.4.2-1 .5-1.9.6-2.9 3.2 6.5 9.7 11 17.7 9.7.3 0 .4-.3.4-.5H96c.2 1.2.3 2.3.5 3.5.3 2.8-.6 6.4.5 9 .2.4.8.3 1 0 .2.1.4.1.6 0zm-10 3c3.7 2.8 6.2-8.7 4.2-11.2-1.8-2.1-4.3.9-4.8 2.4-1 2.6-1 6.2.5 8.7-.1.1 0 .1.1.1zM66 58.7c.7-1.8.2-5.7-2.6-4.2-3.3 1.8-5 7-4.5 10.6.1.3.3.5.6.5 0 .4.3.7.7.8.8.3 1.5-.4 2-.9 1.6-2.1 2.9-4.4 3.8-6.8z"/><path class="st2" d="M98.1 72.3c0 .1 0 .3-.1.4-.3-.2-.4-.5-.2-.8 0-.1.1-.1.2-.2 0 .3.1.5.1.6z"/><path class="st2" d="M98 71.8c-.3.2-.3.6-.1.8l.2.2c-.2.3-.8.5-1 0-1.1-2.6-.2-6.2-.5-9-.1-1.2-.3-2.3-.5-3.5-.7-4.4-1.7-8.8-3.1-13.1-.1-.4.5-.6.6-.2 1.8 4.8 3.1 9.9 3.9 15 .6 2.9-.3 7 .5 9.8zM96.8 141.1c-.7-.1-1.4-.2-2.1-.4.9 0 1.8 0 2.7.1.2 0 .3.1.3.3 0 .1 0 .1-.1.2-.2 0-.5-.1-.8-.2z"/><path class="st2" d="M97.7 141.3c-.1.1-.2.1-.3.2-13.8.9-27.7 3-41.5 1.1-6.8-.9-22-1-26-8-1-1.7.1-3.8 1.7-4.7.6-.3 2.8-1.2 4.1-1.9.4.2.9.3 1.4.4h.2c-.7.9-2.8 1-3.8 1.5-2.6 1.2-4.5 3.5-1.5 5.6 4.4 3.2 9 3.8 14.3 4.8 8.1 1.4 16 2.5 24.3 2.2 8.7-.3 17.5-1.2 26.2-1.3.3 0 .6.1.9.1zM77.5 49.1c-.1 0-.2.1-.3.2v.2c-1-2.6-1.5-5.3-1.5-8 0-.2.2-.4.4-.4s.4.2.4.4c.3 10.7 8.1 18.7 18.9 18.3.3 0 .5.3.5.6s-.1.5-.4.5c-8 1.3-14.5-3.2-17.7-9.7.1-.3.1-.6.1-.9v-.8c0-.2-.2-.4-.4-.4.1 0 .1 0 0 0z"/><path class="st2" d="M94.7 140.7c.7.2 1.4.3 2.1.4-8.8.1-17.5.9-26.2 1.3-8.3.3-16.2-.8-24.3-2.2-5.3-.9-9.9-1.6-14.3-4.8-3-2.1-1-4.4 1.5-5.6 1-.5 3.1-.6 3.8-1.5.1-.1.2-.2.2-.4.5-1.3.3-4.2.5-5.3 1.6-8 5.8-14.7 9.4-21.9 1.1-2.2 2.8-4.6 3.6-7l.4.2c-3 9.3-9.9 17.1-12.1 26.8-.5 2.4 0 5.9-1.3 8.1-.7 1.1-10.1 3.7-3.9 6.9 9 4.6 21.6 5.7 31.5 5.8 9.7.1 19.4-1 29.1-.8z"/><path class="st4" d="M94.7 140.7c-9.7-.2-19.4.9-29.1.8-9.9-.1-22.5-1.2-31.5-5.8-6.2-3.2 3.2-5.8 3.9-6.9 1.3-2.2.8-5.7 1.3-8.1 2.2-9.7 9.1-17.5 12.1-26.8 3.1 1.8 7.1 2.7 9.8.8.1 0 .1-.1.1-.2h.1c1.1 2.4 3.3 4.1 6.2 3.4 2.3.5 4.6-.5 5.9-2.4 0 1.2.2 2.5.2 3.1-.1 2.6-.2 5.3-.2 8-.1 4 .2 8 .9 12 1.4 8 6.1 15 13.1 19.3 2.1 1.2 4.6 2.2 7.2 2.8z"/><path class="st2" d="M93.8 85.8c.2-.1.3-.3.5-.4.2.1.3.4.1.6 0 .1-.1.1-.1.1-.6.4-1.3.7-2.1.9.6-.3 1.1-.8 1.6-1.2z"/><path class="st2" d="M94.3 85.4c-.1.2-.3.3-.5.4-5.5 2.1-13.2.7-18.9 0-.1-.2-.1-.3-.2-.4 3 0 6 .6 8.9.8 3.4.1 6.9-.2 10.3-.9.1-.1.3 0 .4.1z"/><path class="st2" d="M93.8 85.8c-.5.5-1.1.9-1.6 1.3-5 1.7-12.1.5-17-.7-.1-.2-.2-.4-.3-.5 5.7.5 13.5 2 18.9-.1zM91.8 64.9c2.8.7.3 12.2-2.9 10.5l-.2.2c-.1-.2-.1-.4-.2-.6.1-.1.3-.2.5-.2 3 .6 4.6-9 2.6-9.4-3.5-.6-3.8 6.6-3.2 9.6-.1.1-.1.2-.2.3-.8-2.9-.6-11.4 3.6-10.4z"/><path class="st2" d="M88.9 75.4c3.3 1.7 5.7-9.8 2.9-10.5-4.2-1-4.5 7.6-3.5 10.4 0 .2 0 .5.2.6 0 0-.1 0-.2-.1-1.4-2.4-1.4-6.1-.5-8.7.6-1.5 3-4.5 4.8-2.4 2.1 2.5-.4 13.9-4.2 11.2.1 0 .2-.1.1-.2s0 0 0-.1l.4-.2z"/><path class="st2" d="M91.7 65.4c2 .4.4 9.9-2.6 9.4-.2 0-.4 0-.5.2-.7-3-.4-10.2 3.1-9.6zM89.6 30.8c-.5.2-1 .3-1.5.4h-.2c-.2 0-.4-.2-.4-.4 0-.1 0-.2.1-.3.3-.1.7-.1 1-.2.1 0 .3-.1.4-.1h.1c.6 0 1.1.1 1.7.1l-1.2.5zM76.5 18.2c.5-.2.2-.9-.2-1-.3-1.8-.1-3.7.5-5.4.2-.5.4-1 .7-1.5.3-.1.7-.2 1-.4-.1.2-.2.5-.3.7-1.8 4.1-1.7 10.9 3.8 12.1 2.6.9 4.8.1 6.5-2.6.1-.2.4-.3.6-.1.2.1.2.3.2.5-1.3 7.2-10.7 3.9-13.2-2.2.1.1.2 0 .4-.1z"/><path class="st2" d="M89 30.2c-.1 0-.3.1-.4.1-.3 0-.7.1-1 .2.1-.1.2-.2.4-.2.3 0 .6-.1 1-.1zM88.7 75.7c0 .1 0 .2-.1.2-.2-.1-.3-.4-.2-.6.1.2.1.3.3.4 0-.1 0 0 0 0z"/><path class="st2" d="M88.7 75.6c-.2 0-.3-.2-.3-.4 0-.1.1-.2.2-.3-.1.3 0 .5.1.7zM88.6 90.1c-.4.1-.9.1-1.3.1-.2-.1-.4-.3-.6-.4.3 0 .6 0 .9-.1.3.1.6.2 1 .4zM87.9 31.2h.2c-1.5.4-3 .9-4.7 1.5-3.7 1.4-7.4 2.9-11 3.1 0-.1.1-.2.2-.3s.1-.3.1-.4c5-.4 9.8-3.5 15-4.6-.1.2-.1.5.1.6 0 .1 0 .1.1.1z"/><path class="st2" d="M86.7 89.7h-.6c-.1-.1-.1-.2 0-.3.2 0 .5-.1.7-.1.2.2.5.3.8.4h-.9z"/><path class="st2" d="M86.7 89.7c.2.2.4.3.6.4h-.7c-.2-.1-.3-.2-.4-.3l-.1-.1h.6zM86.7 89.1c-.1.1-.4.2-.6.2.1-.2.3-.3.6-.2z"/><path class="st2" d="M86.1 89.7c.2.2.3.3.5.4L86 90c-.2-.1-.3-.3-.2-.4 0-.1.1-.2.2-.2h.1v.3zM79 9.1c.2.2.2.5-.1.7l-.1.1c-.1.1-.2.1-.3.1.1-.3.3-.6.5-.9zM78 9.5c.2-.3.3-.5.5-.8.2 0 .4.1.5.3-.2.3-.4.6-.5.9-.3.2-.7.3-1 .4.1-.2.3-.5.5-.8z"/><path class="st2" d="M78.3 8.8c0 .2-.2.5-.3.8-.3.1-.5.2-.8.3.2-.3.3-.6.5-.8.2-.2.4-.3.6-.3zM78 49.4v.8c-.2-.4-.3-.7-.5-1.1.2-.1.5.1.5.3z"/><path class="st2" d="M77.6 50.3c-.1-.3-.2-.5-.3-.8v-.2c0-.1.1-.2.3-.2.2.4.3.8.5 1.1 0 .3 0 .6-.1.9l-.4-.8zM77.2 9.8c.3-.1.5-.2.8-.3-.2.3-.3.6-.5.9-.3.1-.5.2-.8.3.1-.3.3-.6.5-.9z"/><path class="st2" d="M77.6 50.3l.4.8c-.1 1-.4 1.9-.6 2.9-.3 1.4-.3 3-.6 4.4-.2-.2-.4-.4-.5-.6-.2-2.5.9-5 1.3-7.5zM76.7 10.7c.3-.1.5-.2.8-.3-.3.5-.5 1-.7 1.5-.7 1.7-.8 3.6-.5 5.4-.1-.1-.3-.1-.4 0l-.3.1c-.4-1.3-.4-2.7 0-4 .3-1 .7-1.8 1.1-2.7z"/><path class="st2" d="M77.2 49.5c.1.2.2.5.3.8-.3 2.5-1.4 5-1.3 7.6-.2-.3-.5-.6-.7-.9 0-.7.1-1.3.3-2 .5-1.9 1-3.7 1.4-5.5zM77.2 9.8c-.2.3-.3.6-.5.9-6.2 2.4-12.5 3.6-18 7.7.1-.2 0-.4-.3-.4h-.5c-.1-.2 0-.4.1-.5 5-5.1 13-6.9 19.7-8.6-.2.4-.4.6-.5.9zM76.7 58.6c0-.1.1-.1.1-.2 0 .1.1.1.1.2.1.1.1.2 0 .2-.1.1-.2.1-.2 0v-.2z"/><path class="st2" d="M76.8 58.4c0 .1 0 .1-.1.2-.2-.1-.3-.2-.4-.3v-.5c.1.2.3.4.5.6z"/><path class="st2" d="M76.7 58.6v.2l-.3-.2v-.3l.3.3z"/><path class="st2" d="M76.4 58.6l.3.2v.2c-.1.1-.2.2-.4.1l-.1-.1c-.2-.2-.3-.5-.4-.7.2 0 .4.1.6.3zM76.3 17.2c.5.1.7.7.2 1-.1-.3-.2-.6-.2-1z"/><path class="st2" d="M75.8 17.9c-.1-.2-.1-.4-.2-.5l.3-.1c.1-.1.3-.1.4 0 0 .3.1.7.2 1-.2.1-.3.1-.5.2-.1-.2-.2-.4-.2-.6zM76.4 58.6l-.6-.3c-.1-.2-.1-.4-.1-.5.2.2.4.4.7.5-.1.1-.1.2 0 .3z"/><path class="st2" d="M76.3 57.8v.5c-.2-.2-.5-.3-.7-.5 0-.3 0-.5-.1-.8.3.2.5.5.8.8z"/><path class="st4" d="M76.7 10.7c-.4.9-.7 1.8-1 2.7-.4 1.3-.4 2.7 0 4-3.7 1.7-7.5 3.5-10 6.6-.1-.1-.1-.1-.2-.1-12.2-2.2-24.6-2.2-36.8 0 2.7-1.2 5.4-2.1 8.3-2.9 7-1.7 14.3-1.5 21.4-2.3.1 0 .3-.1.3-.2 5.5-4.2 11.8-5.4 18-7.8z"/><path class="st2" d="M65.6 24.9c.1-.1.2-.2.2-.3 2.4-3.3 5.8-4.9 10-6.7 0 .2.1.3.2.5-2.3.9-4.4 2-6.5 3.4-2.5 1.8-3.9 4.1-5.4 6.9-.1.2-.3.2-.5.1 0-.1-.1-.2-.2-.2v-.2c.3-1.2.8-2.3 1.4-3.4h.2c.3.1.5 0 .6-.1z"/><path class="st2" d="M75.6 17.4c0 .2.1.4.2.5-4.1 1.8-7.6 3.4-10 6.7.1-.2 0-.5-.2-.6 2.5-3.1 6.3-4.9 10-6.6zM75.6 57.7c0 .2.1.4.1.5-6.1-3.8-8-12.5-6.1-19.4.2-.2.5-.4.7-.6-2.1 6.6.3 15.2 5.3 19.5z"/><path class="st2" d="M75.6 56.9c0 .3 0 .5.1.8-5-4.3-7.4-12.9-5.2-19.5l.2-.2c.2-.2.2-.4.1-.6.2-.6.5-1.1.8-1.6h.8c-4.1 7.2-1.6 15.1 3.2 21.1zM75.2 86.3c.9 2.5.6 5.3-.7 7.6 0-.4 0-.7-.1-1.1.9-2.2.9-4.6 0-6.8.2.2.5.2.8.3z"/><path class="st2" d="M74.9 85.8c.1.2.2.4.3.5-.3-.1-.5-.2-.8-.2l-.3-.6c.1-.1.1-.1.2-.1h.4c.1.1.1.2.2.4z"/><path class="st2" d="M74.7 85.3h-.4c-.1 0-.2 0-.2.1-1-1.7-3-2.8-6-2.5-8.5 1-8.6 13.8-1.5 14.5.3.2.7.3 1.1.4-2.9.7-5-1-6.2-3.4-.8-1.8-1-3.8-.6-5.7.6-2 1.9-3.8 3.6-5l.3.2c.2.1.3-.1.2-.2 0-.1-.1-.2-.2-.2 2.3-1.6 5.3-1.8 7.7-.4.9.6 1.6 1.3 2.2 2.2z"/><path class="st2" d="M74.4 86.1c.9 2.2.9 4.6 0 6.8v-.2c0-.1-.1-.2-.3-.2-.1 0-.2.1-.2.1l-.3.9s0 .1.1.1h.1c-.2.3-.2.7-.2 1-1.1 1.9-3.2 3.1-5.4 2.9 0-.1-.1-.2-.2-.2-1.1-.2-2.1-.6-3-1.2 3.4 1.2 6.8.8 8.5-2.7 1.3-2.6 1.7-7.1-1.3-8.9-7.5-4.6-13.4 7.4-7.3 11.5-.2 0-.3.3-.1.4.5.5 1.1.8 1.8 1.1C59.4 96.8 59.5 84 68 83c3-.3 5 .8 6 2.5-.1.1-.2.3 0 .5 0 .1.1.1.2.1h.2z"/><path class="st2" d="M74.4 93.9l-.3.6v-1.1c.1-.2.2-.4.3-.5v1zM74.4 86.1c-.1 0-.1 0-.2-.1-.2 0-.3-.2-.3-.4 0-.1.1-.1.1-.2.2.3.3.5.4.7z"/><path class="st2" d="M74.1 93.4c-.2.4-.4.7-.6 1 0-.3.1-.7.2-1h-.1v-.1l.3-.9c0-.1.2-.2.3-.1.1 0 .1.1.1.2v.2s-.1.5-.2.7z"/><path class="st2" d="M74.1 93.4v1.1c-.2.3-.4.6-.7.9v-.9c.3-.4.5-.7.7-1.1z"/><path d="M72.2 84.4c2.9 1.8 2.6 6.2 1.3 8.9-1.7 3.5-5.2 3.9-8.5 2.7h-.1c-6.1-4.2-.2-16.1 7.3-11.6z" fill="#42beec"/><path class="st2" d="M73.5 94.5v.9c-1.3 1.9-3.6 2.9-5.9 2.4.1 0 .2 0 .3-.1.2-.1.2-.2.2-.4 2.2.2 4.3-.9 5.4-2.8zM71.6 35.8h-.7c.1-.2.2-.4.4-.6h1.3c0 .1 0 .3-.1.4-.1.1-.1.2-.2.3-.2-.1-.5-.1-.7-.1zM72.6 35.1h-1.3l.2-.3c.2-.3.6-.4.9-.2.1.2.2.3.2.5z"/><path class="st2" d="M70.9 35.8h.7c-.3.5-.6 1.1-.8 1.6-.1-.2-.3-.3-.5-.3.2-.4.4-.9.6-1.3zM71.3 35.1c-.1.2-.3.4-.4.6-1.9-.1-3.8-.6-5.5-1.6.2-.1.3-.4.2-.6 1.7 1.1 3.7 1.6 5.7 1.6zM70.8 37.4c.1.2.1.5-.1.6-.1.1-.2.1-.2.2 0-.2.1-.5.3-.8z"/><path class="st2" d="M70 37.9c.1-.2.2-.5.3-.7.2 0 .4.1.5.3-.1.3-.2.5-.3.8-.3.2-.5.4-.7.6 0-.4.1-.7.2-1z"/><path class="st5" d="M70.9 35.8c-.2.4-.4.9-.6 1.4-.1 0-.2 0-.3.1-11.2 7-18.8 20.7-21.5 33.6-.6-1.4-1.4-2.7-2-4.2v-.4C44 61.8 42.1 55.6 38.2 52c8.8-6.4 18.2-12.2 27.1-17.8 1.8 1 3.7 1.5 5.6 1.6z"/><path class="st2" d="M70.3 37.1c-.1.3-.2.5-.3.7-9.1 6.3-17 19.3-20.3 30.5-.2 0-.3.2-.3.3v.1s0 .1.1.1c-.3.9-.5 1.8-.7 2.6-.1-.2-.2-.5-.3-.8C51.2 58 58.8 44.3 70 37.2c.1 0 .2-.1.3-.1z"/><path class="st2" d="M70 37.9c-.1.3-.2.6-.3 1-9.2 7.8-15.6 18.5-19.4 29.9l-.3-.3c-.1-.1-.2-.1-.3-.1C53 57.2 60.9 44.2 70 37.9zM68.1 97.3c.1.2 0 .3-.2.4-.1 0-.2.1-.3.1-.4-.1-.7-.2-1.1-.4-.6-.3-1.2-.7-1.8-1.1-.1-.1 0-.4.1-.4h.1c.9.6 1.9 1 3 1.2.1.1.2.1.2.2zM63.4 54.5c2.8-1.5 3.4 2.4 2.6 4.2-.9 2.5-2.2 4.8-3.9 6.8-.5.5-1.2 1.2-2 .9-.4-.1-.7-.5-.7-.8.3 0 .5-.1.6-.4.7 2.7 5.3-5.9 5.6-7.4.7-3.6-1.5-4.2-3.8-1.4-1.7 2.2-2.4 5.7-2.4 8.5h.1c-.1.2-.1.5-.1.7-.3 0-.6-.2-.6-.5-.4-3.7 1.3-8.8 4.6-10.6zM65.7 24c.2.2.2.4.2.6-.1.1-.1.2-.2.3 0 0 0 .1-.1 0-.1.1-.3.1-.5.1h-.2c.3-.3.5-.7.8-1z"/><path class="st2" d="M62 56.4c2.3-2.8 4.5-2.3 3.8 1.4-.3 1.5-4.9 10.1-5.6 7.4l.1-.1c0-.2.1-.4.1-.6l.1.1c0-.1.3.2.4.3-.2.2.1.1 0 0l.1-.1c.5-.5 1-1 1.4-1.6.9-1.3 1.8-2.8 2.5-4.2.4-.7.6-1.4.6-2.1 0-2.7-2.4-1-3.2.4-1.4 2.3-1.5 4.8-1.9 7.3-.1-.1-.4-.1-.5 0 0 0-.1.1-.1.2s0 .2-.1.3h-.1c-.1-3 .6-6.5 2.4-8.7zM65.7 24.9c0-.1.1-.2.2-.3-.1.1-.2.2-.2.3zM65.6 33.5c.1.2 0 .5-.2.6-.1 0-.2-.1-.2-.1-.1-.1-.2-.2-.2-.3-.1-.2-.1-.4 0-.6.2 0 .5.1.6.4zM25.3 25.1c1.1-.4 2.3-.8 3.4-1.2 12.2-2.2 24.6-2.2 36.8 0 .1 0 .2 0 .2.1-.3.3-.5.7-.7 1-1.7-.3-3.4-.6-5-.8.1-.2 0-.4-.1-.5h-.1c-1-.1-1.9 0-2.9.2-11.4-.8-22.4 1.2-33.9 1.9.7-.2 1.5-.4 2.3-.7zM65.4 34.2C56.4 39.8 47 45.6 38.2 52c-.1-.1-.2-.2-.4-.3 8.9-6.2 17.5-12.7 27.1-17.8.1.1.1.2.2.3.1-.1.2-.1.3 0zM64.6 83.6c.1 0 .1-.1.2-.1l.2.2c.1.2 0 .3-.2.2l-.3-.2s0-.1.1-.1z"/><path class="st2" d="M65.4 56.7c-.1.7-.3 1.5-.6 2.1-.7 1.5-1.5 2.9-2.5 4.2-.4.6-.9 1.2-1.4 1.6l-.1.1c-.1-.1-.5-.4-.4-.3l-.1-.1c.4-2.6.5-5 1.9-7.3.8-1.2 3.2-3 3.2-.3zM65 33.2c-.1.2-.1.4 0 .6-9.6 5.1-18.2 11.7-27.1 17.8l-.3-.3c-.1-.1-.3-.1-.4 0-.1.1-.1.2 0 .3 0 .1.1.2.2.3l-.9.6c0-.1 0-.1-.1-.1s-.1 0-.1.1v.2l-2 1.4C27 59 20.8 65.4 14.8 71.7 12.2 74.4 9.3 77 7 79.8c-1.1 1.3-3.5 5.8-5.6 5.7.1-.2.2-.5.4-.7C4 84 5 81.1 6.5 79.4c2.4-2.9 5.1-5.5 7.7-8.2 4.9-5.4 10.2-10.4 15.8-15C40.5 47.8 52.6 39 64.8 33.3c0-.1.1-.2.2-.1zM64.8 83.5c-.1 0-.1 0-.2.1-5.2-4.4-10-9.2-14.4-14.4 0-.1.1-.3.1-.4 2.6 2.2 4.8 4.9 7.3 7.2 2.6 2.3 5 4.8 7.2 7.5z"/><path class="st2" d="M64.6 83.6c-.1 0-.1.1-.2.1-5.8-3.5-10.7-8.3-14.4-14 0-.2.1-.4.2-.5 4.4 5.2 9.2 10 14.4 14.4z"/><path class="st5" d="M64.9 25c-.7 1-1.2 2.1-1.5 3.3v.2c-.2-.1-.4-.1-.5 0-8.6 4.2-16.7 9.4-24.2 15.4 2.1-9 12.4-17.2 21-19.5.1 0 .1-.1.2-.1 1.6.1 3.3.4 5 .7z"/><path class="st2" d="M38.3 45.2c.1-.1.2-.3.2-.4 0-.3.1-.6.2-1 7.5-6 15.6-11.2 24.2-15.4.2-.1.4-.1.5 0 0 .1.1.2.2.2.1.2 0 .4-.2.5-13.1 8.5-25.7 16.7-37 27.6C17.8 65 7.6 74.4 1.7 84.8c-.2.1-.5.2-.7.2 1.2-3.9 5.2-7.7 7.7-10.7 8.2-9.9 17.3-19 27.2-27.2.8-.6 1.6-1.3 2.4-1.9z"/><path class="st2" d="M63.5 28.5l.2.2c-.2 0-.2-.1-.2-.2z"/><path class="st6" d="M61.4 94.5c-.1-.1-.2-.2-.3-.2-6.3 2.2-12.2-3.6-14.4-8.8-2.3-5.6-1.9-11.7-.8-17.5.4 1.6 1.3 3.2 2.5 4.4.1.2.3.4.5.3.2 0 .3-.2.3-.3.2-.9.5-1.8.8-2.7 3.7 5.7 8.6 10.5 14.5 14-1.7 1.2-3 3-3.6 5-.6 1.9-.4 4 .5 5.8z"/><path class="st2" d="M51.6 93.2c-.1-.3-.4-.5-.6-.4-2.4-1.8-4.1-4.2-5.1-7-2.2-5.8-2-12.8-.2-18.7 0 .3.1.6.2.9-1 5.8-1.5 11.9.8 17.5 2.2 5.3 8 11 14.3 8.8.1 0 .2 0 .2.1s0 .1-.1.2c-2.7 1.9-6.7 1-9.8-.8.1-.2.1-.4.3-.6 0 .1 0 0 0 0zM60.8 64.9s-.2.1 0 0zM60.3 64.4c0 .2-.1.4-.1.6 0 0 0 .1-.1.1 0-.1-.1-.3-.1-.5l-.4.2c0-.1 0-.2.1-.3.1-.2.2-.3.4-.2.1.1.1.1.2.1z"/><path class="st2" d="M60.1 64.7c0 .2 0 .3.1.5-.1.2-.3.4-.6.4 0-.2 0-.5.1-.7l.4-.2zM58.7 24.1c-.7-.1-1.4-.1-2-.1.9-.2 1.9-.3 2.9-.2.2 0 .3.2.3.4v.1c-.4-.1-.8-.2-1.2-.2z"/><path class="st2" d="M58.7 24.1c.4 0 .8.1 1.2.1 0 .1-.1.1-.2.1-8.5 2.2-18.8 10.5-21 19.5-.3.2-.6.5-1 .7.5-5 4.6-9.6 8.2-12.8 3-2.4 8.5-7 12.8-7.6zM58 18.4c-.1-.1-.2-.2-.2-.3h.5c.3 0 .4.2.3.4-.2.1-.4.1-.6-.1z"/><path class="st2" d="M58.6 18.5c0 .1-.1.2-.3.2-7.1.7-14.4.5-21.4 2.3-2.8.8-5.6 1.8-8.3 2.9-1.6.3-3.1.6-4.6 1 3.5-1.1 6.9-3 10.4-4 7.6-2 15.5-2.3 23.5-2.5.2.2.5.2.7.1zM56.7 24c.7 0 1.3.1 1.9.1-4.3.6-9.8 5.1-12.7 7.7-3.6 3.2-7.7 7.7-8.2 12.7-.2.1-.4.3-.6.5-.1-.1-.2-.3-.2-.5.1-.7.2-1.4.4-2.1.7.2 1-.8.5-1.2h-.1c1.6-4.2 4.9-7.7 8.4-10.5 2.9-2.4 6.7-5.8 10.6-6.7z"/><path class="st2" d="M57.8 18c0 .1.1.3.2.3-8 .2-15.9.5-23.6 2.5-3.5.9-6.9 2.8-10.4 4-.8.2-1.5.4-2.2.6-.1 0-.1 0-.2.1h-.2c-.5-.1-1 0-1.2.5-.2-.2-.2-.5 0-.7.1-.1.2-.1.3-.1 6.3-1.6 12-5 18.5-6 6.2-1 12.5-1.4 18.8-1.2z"/><path class="st3" d="M22.8 25.8c11.5-.7 22.5-2.6 33.9-1.9-3.9 1-7.7 4.4-10.5 6.7-3.5 2.9-6.8 6.3-8.4 10.6-4.3-2.8-8.4-5.9-12.4-9.2-1.8-1.6-4.8-3.5-3.9-6 .5 0 .9-.1 1.3-.2z"/><path class="st2" d="M51 93.6l-.4-.3c0-.1.1-.3.2-.4 0-.1.1-.2.2-.2s.1.1.2.2.3.2.4.3v.1c-.1.2-.1.4-.2.6l-.4-.3z"/><path class="st2" d="M51.6 93.1c-.2-.1-.3-.2-.4-.3s-.2 0-.2-.1c.2 0 .5.2.6.4zM50.5 93.3l.4.3c-.8 2.4-2.5 4.8-3.6 7-3.6 7.2-7.8 13.9-9.4 21.9-.2 1.2 0 4-.5 5.3 0-.2-.1-.3-.3-.4s-.3-.1-.5-.2c.2-1.6 0-3.3.4-4.9 2.7-10.6 9.1-19.1 13.5-29zM51 92.7c-.1 0-.2.1-.2.2s-.1.3-.2.4c-1.3-.8-2.4-1.9-3.3-3.2-1.1-1.7-2-3.6-2.6-5.6.2 0 .3-.1.3-.3V84c-.3-.7-.6-1.5-.9-2.2-1-5.1-.5-10.3 1.3-15.1 0 .1.1.2.2.2h.1c-1.8 5.9-1.9 12.8.2 18.7.9 2.9 2.7 5.4 5.1 7.1zM50.1 69.2c-.1.2-.1.4-.2.5-.2-.2-.3-.5-.4-.7 0-.2.1-.4.2-.6.1 0 .2 0 .3.1l.3.3c-.1.1-.1.2-.2.4z"/><path class="st2" d="M49.5 69c.1.2.2.5.4.7-.3.9-.6 1.8-.8 2.7-.1.2-.3.4-.5.3-.2 0-.3-.2-.3-.3 0 .1.1.1.1.2.2.2.7 0 .6-.4-.1-.2-.1-.4-.2-.6.2-.8.5-1.7.7-2.6zM49.7 68.4c-.1.2-.1.4-.2.6 0 0 0-.1-.1-.1-.1-.1 0-.3.1-.4s.2-.1.2-.1z"/><path class="st2" d="M48.7 72.3c0-.2.1-.4.2-.6.1.2.1.4.2.6.1.4-.4.6-.6.4-.1 0-.1-.1-.1-.2v-.2c0-.2 0-.3.1-.4l.2.4z"/><path class="st2" d="M48.9 71.6c0 .2-.1.4-.2.6-.1-.2-.2-.3-.4-.5 0-.3.1-.6.2-.9.2.3.3.6.4.8z"/><path class="st2" d="M48.5 70.9c0 .3-.1.6-.2.9-.9-1.4-1.7-3-2.2-4.6.2-.1.3-.2.3-.4.7 1.3 1.5 2.7 2.1 4.1z"/><path class="st2" d="M48.3 71.7c0 .2 0 .3-.1.4v.2c-1.2-1.2-2-2.7-2.4-4.4 0-.3.1-.6.2-.8h.2c.5 1.7 1.2 3.2 2.1 4.6z"/><path class="st3" d="M47.3 90.1c.9 1.3 2 2.4 3.3 3.2-4.4 9.8-10.9 18.4-13.5 29.1-.4 1.5-.2 3.3-.4 4.9-2.8-1.5-4.9-6.6-6-9.3-2.2-5.4-2-11.9-1.5-17.6.8-9 3.1-20.7 9.2-27.7 1.4 4.2 3.4 8.2 6 11.8.1.1.1.1.2.1.7 1.9 1.6 3.8 2.7 5.5z"/><path class="st2" d="M46.5 66.3v.4c-.1-.2-.2-.4-.2-.6-.1-.2-.2-.3-.4-.2-.1 0-.2.1-.2.2-3-4.3-4.5-9.9-7.8-14 .1-.1.2-.2.3-.2 3.9 3.7 5.8 9.9 8.3 14.4z"/><path class="st2" d="M46 66.5c0-.1-.1-.2-.3-.2l-.1-.1c.1-.2.2-.3.4-.2.1 0 .2.1.2.2.1.2.2.4.2.6s-.2.4-.3.4c0-.1-.1-.3-.1-.4v-.3z"/><path class="st2" d="M46.2 67.1H46c0-.2 0-.3.1-.5 0 .2 0 .4.1.5z"/><path class="st2" d="M45.7 66.9v-.5h.1c.1 0 .2.1.3.2v.2c0 .2 0 .3-.1.5-.1 0-.2 0-.3-.1v-.3z"/><path class="st2" d="M46 67.2c-.1.2-.1.5-.2.8-.1-.3-.1-.6-.2-.9.2.1.3.1.4.1zM45.7 66.2zM45.7 66.9c-.1 0-.2-.1-.3-.1 0-.1 0-.2.1-.3 0-.1.1-.2.2-.2v.6z"/><path class="st2" d="M45.7 66.2v.2c-.1 0-.2.1-.2.2s-.1.2-.1.3c-1.7-2.2-3-4.5-4-7.1l-.5-1.2c.2-.1.3-.3.3-.5 0-.1 0-.3-.1-.3-.2-.1-.4-.2-.7-.2-.9-1.7-1.8-3.4-2.8-5.1l.3-.2c3.3 3.9 4.8 9.6 7.8 13.9zM45.7 66.9v0zM44.5 83.8c-.2-.6-.3-1.3-.5-1.9.3.7.6 1.5.9 2.2.1.1 0 .3-.1.4h-.2c0-.2-.1-.4-.1-.7z"/><path class="st2" d="M44.5 83.8c.1.2.1.5.2.7-.1 0-.1-.1-.2-.1-2.6-3.6-4.7-7.5-6.1-11.8.2-.2.3-.4.5-.6s-.1-.8-.4-.5c-.1.1-.3.2-.4.4-2-6.1-3-12.8-2.1-18.3.1-.1.2-.1.3-.2 0 2 .2 4.1.4 6.3 0 0-.1 0-.1.1-.2.1-.3.5-.1.7.1.1.2.2.4.2.9 8 3.5 15.9 7.6 23.1z"/><path class="st2" d="M44 81.9c.1.6.2 1.3.4 1.9-4.1-7.2-6.6-15.1-7.6-23.2.1 0 .2 0 .2-.1l.6-.3c.3 2.5.7 4.9 1.2 7.4 1.4 4.9 3.1 9.7 5.2 14.3z"/><path class="st4" d="M45.4 66.8c-1.9 4.8-2.3 10-1.4 15.1-2.1-4.6-3.8-9.4-5.2-14.3-.6-2.4-1-4.9-1.2-7.4.7-.4 1.4-.8 2.1-1.1.4-.1.8-.3 1.1-.5l.5 1.2c1.1 2.4 2.4 4.8 4.1 7z"/><path class="st2" d="M41.1 57.7c.1.1.2.2.1.3-.1.2-.2.4-.3.5-.1-.2-.1-.3-.2-.5l.3-.1c-.1 0-.2.1-.3.1-.1-.2-.2-.4-.3-.5.2 0 .5.1.7.2z"/><path class="st2" d="M40.9 58l-.3.1c.1 0 .2-.1.3-.1zM40.7 58.1c.1.2.1.3.2.5-.3.2-.7.4-1.1.5-.7.3-1.4.7-2.1 1.1 0-.2 0-.3-.1-.5l3.1-1.6z"/><path class="st2" d="M40.7 58.1l-3.1 1.6v-.1c.9-.6 2-1.1 3.1-1.5-.1 0-.1 0 0 0z"/><path class="st2" d="M40.4 57.5c.1.2.2.4.3.5-1.1.4-2.1.9-3 1.5 0-.2 0-.4-.1-.6.7-.6 1.7-1.1 2.8-1.4zM38.2 72.2c-.1-.1-.1-.2-.1-.3l.4-.4c.3-.2.6.3.4.5s-.4.4-.5.6c-.1-.1-.1-.2-.2-.4zM38.7 43.8c-.1.3-.2.6-.2 1 0 .2-.1.3-.2.4-.3.2-.8.2-1.1-.2.2-.2.4-.3.6-.5.3-.2.6-.4.9-.7z"/><path class="st2" d="M38.2 72.2c0 .2.1.3.2.4-6.2 7.1-8.5 18.7-9.2 27.7-.5 5.7-.8 12.2 1.5 17.6 1.1 2.7 3.2 7.8 6 9.3-.1.2-.3.3-.5.4-2.1-1.2-4.7-6-5.5-7.6-1.5-3.3-2.3-6.8-2.5-10.4-.5-7.1.7-14.2 2.3-21.1 1.1-4.5 3.7-12.8 7.7-16.3z"/><path class="st8" d="M37.6 52.4c1 1.7 1.9 3.4 2.8 5.1-1.1.2-2 .8-2.9 1.5-.3-2-.5-3.9-1-5.8.4-.3.7-.6 1.1-.8z"/><path class="st2" d="M.7 85.8c.1.1.2.2.3.2 0 0 0 .1-.1.1-.1.3-.7.2-.6-.2.5-5.1 4.6-8.5 7.7-12.3 5.3-6.4 11-12.5 17.1-18.1C29 51.9 33 48.4 37.2 45c.3.3.7.4 1.1.2-.8.6-1.6 1.3-2.4 1.9-9.9 8.2-19 17.3-27.3 27.2C6.1 77.2 2.1 81.1.9 85c-.3.1-.4.5-.2.8zM37.9 51.6c.1.1.3.2.4.3-.1.1-.2.1-.3.2-.1-.1-.2-.3-.3-.4l.2-.1zM38.1 71.9c0 .1.1.2.1.3-4 3.5-6.7 11.8-7.8 16.5-1.6 6.9-2.8 14-2.3 21.1.2 3.6 1.1 7.1 2.5 10.4.8 1.6 3.4 6.4 5.5 7.6l-.5.2c-2.5-1.2-4.2-4.4-5.3-6.6-2.9-5.7-3.6-12.4-3-18.6.8-9.7 2.7-24.3 10.8-30.9zM37.9 41.3c.6.4.3 1.4-.5 1.2.2-.4.3-.8.5-1.2zM37.6 51.8c.1.1.2.2.3.4l-.3.2c-.1-.2-.2-.3-.3-.4.1-.1.2-.1.3-.2z"/><path class="st2" d="M37.6 51.8c-.1.1-.2.1-.3.2 0-.1-.1-.2-.2-.3-.1-.1 0-.3.1-.4h.3l.3.3-.2.2zM37.7 60.2l-.6.3c-.1 0-.1.1-.2.1 0-.3-.1-.6-.1-1l.8-.6c0 .2 0 .4.1.6-.3.2-.5.3-.7.5l.7-.4c-.1.2-.1.3 0 .5z"/><path class="st2" d="M37.6 59.7l-.7.3c.2-.2.5-.3.7-.5v.2zM37.3 52c.1.2.2.3.3.4-.3.2-.7.5-1 .7 0-.2-.1-.4-.1-.6.3-.1.5-.3.8-.5zM20.6 26.2h.1l.8-.1c-.9 2.5 2.1 4.4 3.9 6 4 3.3 8.1 6.3 12.4 9.2-.2.4-.3.8-.4 1.2-3.7-1.4-7-4.2-10-6.7-2-1.6-3.9-3.3-5.6-5.3-.8-1-2.2-2.5-1.8-4 0-.2.1-.4.2-.6.1.2.3.3.4.3zM37.4 128c0 .2-.1.3-.2.4.1-.1.2-.3.2-.4z"/><path class="st2" d="M36.2 127.7c.2-.1.3-.2.5-.4.1.1.3.2.5.2.2.1.3.2.3.4 0 .1-.1.3-.2.4h-.2c-.5 0-.9-.2-1.4-.4l.5-.2zM37.5 59l-.8.6c-.2-2.1-.4-4.2-.4-6.3l.2-.2c.5 2 .7 3.9 1 5.9zM36.9 60.6c-.3 0-.5-.3-.5-.5s.1-.3.2-.4l.1-.1c.1.3.1.6.2 1z"/><path class="st2" d="M36.4 52.6c.1.2.1.4.1.6-.1.1-.2.1-.2.2l.1-.8zM36.3 52.7s-.1.1-.2.1v-.2c0-.1 0-.1.1-.1s.1 0 .1.1v.1c.1-.1 0-.1 0 0z"/><path class="st2" d="M36.3 52.7v.7c-.1.1-.2.1-.3.2 0-.3.1-.5.1-.8.1 0 .2-.1.2-.1z"/><path class="st2" d="M36.2 52.8c0 .3-.1.5-.1.8-4 3-7.8 6.1-11.5 9.5-5.8 5.4-13.1 11.2-17.7 17.8-1.5 2.1-3 4.7-5.8 5.1H1c.1-.2.1-.3.2-.5 2.1.1 4.5-4.5 5.6-5.7 2.3-2.9 5.2-5.4 7.8-8.1 6-6.3 12.2-12.6 19.4-17.5l2.2-1.4z"/><path class="st0" d="M29.4 16.9c.1-.1.1-.3.2-.5h.4c-.1-.1-.1-.2-.2-.3.1-.2.1-.4.2-.5-.2 0-.4 0-.7.1-1.3-1.3-3.6-3.1-3.6-4.4 0-1.8 3-3.9 4.5-5.5h.7c-.1-.1-.2-.3-.3-.5.1-.1.2-.2.3-.4h-.5c-.1-.1-.1-.2-.2-.4-.1.1-.2.2-.3.4-1.9.1-3.8.5-5.6 1-5 1.2-2.1.2-5.6-1.9-3.7-2.3-3.1 3.2-3.1 6.5-.2-.1-.5-.1-.6.1-.2-2.1-1.1-8 2.3-8 1.5 0 3.2 1.3 4 2.5.7 1 8.1-1.1 9.7-1 .6 0 1.1.7.7 1.2-1.2 1.3-2.4 2.6-3.7 3.8-2.5 2.8 1 4.7 2.7 6.7.3.4.2.9-.2 1.1-.1.1-.3.1-.4.2-2.4.2-6.9-.9-8.7 1.2-1.1 1.4-2.1 2.9-3 4.5-.2.4-.7.5-1.1.3l-.3-.3c-.9-1.3-1.5-2.7-1.8-4.2-.4-2.4-2-2.6-4.3-2.8-.5 0-.8-.4-.8-.9 0-.2.1-.4.2-.5 1.5-1.4 3.1-2.7 4.9-3.8v.2c0 .2.1.4.3.5-1.2 1-2.8 1.8-3.9 2.9l-.7-.1c.1.2.2.4.2.6-.1.1-.2.2-.2.3.1 0 .2 0 .4.1.1.2.2.3.2.5.1-.2.3-.3.5-.5 5.5.8 2.8 2.7 5.3 6.6-.1.1-.1.2-.2.3h.4c.1.1.2.3.3.4.1-.1.2-.3.3-.4h.5c-.1-.1-.1-.2-.2-.4 1.2-2 2.4-4.3 4.4-5.1 1.9-.6 4.4 0 6.6-.1v.5z"/><path class="st0" d="M30.9 4.8c-.1.1-.2.3-.3.4-.1-.1-.2-.3-.2-.4h.5zM30.7 5.2c.1.2.2.3.3.5h-.6l.3-.5z"/><path class="st0" d="M30.5 4.8c.1.1.1.3.2.4l-.4.5c-.4 0-.8.1-1.2.1.3-.3.6-.6.9-1 .1-.1.3 0 .5 0z"/><path class="st0" d="M30.5 4.8H30c.1-.1.2-.2.3-.4 0 .1.1.2.2.4zM30 15.5c-.1.2-.1.3-.2.5l-.5-.5c.3.1.5.1.7 0zM29.8 16.1c.1.1.1.2.2.3h-.4c.1-.1.1-.2.2-.3zM29.8 16c-.1.1-.1.2-.2.3-.2 0-.4.1-.6.1-.3-.3-.6-.6-1-.9.5 0 .9.1 1.3.1.2.1.3.3.5.4z"/><path class="st0" d="M29.6 16.4c-.1.2-.1.3-.2.5l-.4-.5h.6zM29.9 4.8c-.3.4-.6.7-.9 1-2.2.2-4.4.8-6.6 1.2-.6.2-1.3.1-1.9-.3-.5-.4-3.5-4-3.9-1.7-.2 1.9-.3 3.8-.4 5.7 0 .2-.1.3-.2.4 0-.3-.2-.6-.5-.7 0-3.3-.6-8.8 3.1-6.5 3.5 2.1.7 3 5.6 1.9 2-.6 3.8-.9 5.7-1z"/><path class="st0" d="M29 5.7c.4 0 .8-.1 1.2-.1-1.5 1.6-4.5 3.7-4.5 5.5 0 1.4 2.3 3.1 3.6 4.4-.4 0-.9 0-1.3-.1-1.5-1.3-3.3-2.9-3-4.6.4-2.2 2.4-3.5 4-5.1zM29 16.4c-2.2.1-4.7-.5-6.6.1-2 .8-3.2 3.1-4.4 5.1-.2-.3-.3-.5-.4-.8 1.2-1.9 2.4-3.8 4.5-4.9 1.6-.9 3.9-.5 5.9-.3.4.3.7.6 1 .8z"/><path class="st1" d="M29 5.7c-1.6 1.6-3.6 2.9-4 5.2-.3 1.7 1.5 3.3 3 4.6-2-.1-4.3-.5-5.9.3-2.1 1.1-3.3 3-4.5 4.9-.7-1.5-.8-3.1-1.6-4.6-.6-1.2-2-1.7-3.5-1.9 1-.9 2.2-1.6 3.2-2.5.2-.2.3-.4.3-.7.1-.1.2-.3.2-.4 0-1.9.1-3.8.3-5.7.4-2.3 3.4 1.4 3.9 1.7.6.3 1.2.4 1.9.3 2.3-.3 4.5-.9 6.7-1.2z"/><path class="st2" d="M24.1 24.9c1.5-.4 3-.7 4.6-1-1.1.4-2.2.9-3.4 1.2-1.2.2-2.5.4-3.6.6-.1-.1-.1-.1-.2-.1.1 0 .1-.1.2 0 .1 0 .1 0 .2-.1.6-.2 1.4-.4 2.2-.6z"/><path class="st2" d="M25.3 25.1c-.8.3-1.6.5-2.5.7H21.6c0-.1 0-.1.1-.1 1.1-.2 2.4-.4 3.6-.6zM21.8 25.5c.7-.2 1.5-.4 2.2-.6-.7.2-1.4.4-2.2.6zM21.6 25.9h1.1l-1.2.3c0-.1.1-.2.1-.3z"/><path class="st0" d="M21.5 41c.5 0 1 .6.6 1.1-.9 1.2-4 3.2-3.8 4.7.3 3 2.4 5.3 3.2 8.1.1.4-.1.8-.5 1h-.2c-1.8-.1-3.6-.4-5.4-.9-2.8-.7-4.2.7-5.9 2.9-.3.4-.8.5-1.2.3-.2-.1-.3-.3-.4-.5-1.2-2.9-.6-5.4-3.9-6.9-.8-.3-1.4-.9-1.5-1.8-.6-2.2 2.5-4.2 4-5.4-.1.3-.1.6-.2.8 0 .1 0 .3.1.4-1.5 1.3-3.8 2.7-2.9 4.6.2.5 3.1 1.2 3.5 1.9.8 1.2.8 3.5 1.3 5.2l-.2.3c.1 0 .3.1.4.1.1.2.2.3.2.5L9 57c.2 0 .3.1.5.1-.1-.2-.1-.4-.2-.6 3.8-4.8 5.2-2 10.6-1.6 0 .1 0 .2.1.3l.1-.2h.5c0-.2-.1-.4-.1-.5l.1-.2h-.2c-.7-2.2-2.4-4.2-2.9-6.5-.6-3.2 1.5-3.1 3.3-5.4h.5c-.1-.1-.1-.3-.2-.4.1-.1.2-.2.2-.3-.1 0-.3-.1-.4-.1l-.1-.3c-.1.1-.1.2-.2.3-1.8 0-4.1.9-5.5.3-2.6-1-1.9-2.8-3.3-5-3.5-5.1-3.9 2.4-4.6 6.2-.1 0-.2.1-.3.2l-.3.3c.3-2.7.3-8.2 2.9-8.9 1.2-.3 2.5 1.1 3 2 1.3 2.3 1.2 5.3 5.6 4.6 1.1-.3 2.3-.4 3.4-.3z"/><path class="st2" d="M21.7 25.7c0 .1-.1.1-.1.2-.2 0-.4 0-.6.1.2-.2.4-.2.7-.3z"/><path class="st2" d="M21.6 25.7c-.2 0-.4.1-.6.3h-.6m0-.1l1-.3c.1 0 .2 0 .2.1l-1.2.2z"/><path class="st2" d="M21.6 25.9c0 .1-.1.1-.1.2l-.8.1h-.1c.1-.1.2-.2.4-.2.2-.1.4-.1.6-.1zM21.6 25.5h-.2c.1.1.2.1.2 0z"/><path class="st0" d="M21.5 41.7c-.1.1-.1.2-.2.3-.1-.1-.1-.3-.2-.4.1.1.3.1.4.1zM21.3 42c.1.1.2.3.2.4H21c.1-.1.2-.3.3-.4z"/><path class="st2" d="M21.4 25.6l-1 .3m-.1 0l.7.1c-.1.1-.3.2-.4.3-.2 0-.3-.1-.4-.3.3-.4.7-.6 1.2-.4l-1.1.3z"/><path class="st0" d="M21.1 41.6c.1.1.1.3.2.4-.1.1-.2.3-.3.4h-1.1l.8-.8h.4z"/><path class="st0" d="M20.9 41.4l.1.3h-.4c.2-.1.2-.2.3-.3zM19.9 42.5c.4-.1.8-.1 1.1 0-1.8 2.3-3.9 2.2-3.3 5.4.4 2.3 2.2 4.3 2.9 6.5-.3 0-.6-.1-.9-.1-1-2.8-3-5.3-2.7-8.3.1-1.4 1.6-2.5 2.9-3.5zM20.8 54.3l-.1.2v-.2h.1zM20.7 54.6c.1.2.1.4.1.5h-.5c.1-.2.2-.4.4-.5z"/><path class="st0" d="M15.2 42c1.4.6 3.7-.4 5.5-.3-.2.3-.5.5-.8.8-3 .2-6.3 1.1-7.5-2.7-.3-1-2.5-5.4-3.3-2.4-.3.9-.5 1.8-.6 2.8-.2 1-.3 2.1-.5 3.2-.2-.1-.4-.1-.5-.1.5-4 .9-11.5 4.4-6.3 1.4 2.1.7 4 3.3 5zM20.7 54.5c-.1.2-.3.4-.4.5h-.2c-.1-.3-.2-.6-.3-.8.3 0 .6.1.9.1v.2zM20.2 55.1l-.1.2c0-.1-.1-.2-.1-.3l.2.1zM19.7 54.2c.1.3.2.6.3.8-5.4-.4-6.8-3.2-10.6 1.6-.1-.3-.2-.7-.2-1 1.1-1.2 2.4-2.5 4-2.5 2.3-.1 4.4.8 6.5 1.1z"/><path class="st1" d="M19.8 42.5c-1.2 1-2.7 2.1-2.8 3.5-.4 3.1 1.6 5.5 2.7 8.2-2.2-.3-4.3-1.2-6.5-1.1-1.6 0-2.9 1.3-4 2.5-.3-2-.5-4.6-2-5.4-1.4-.7-3.4-1.7-1.6-3.5.9-.7 1.7-1.6 2.4-2.5.2-.3.1-.7-.2-.9 0 0-.1 0-.1-.1.2-1 .4-2.1.5-3.2.1-.9.4-1.9.6-2.8.8-3 3 1.4 3.3 2.4 1.4 3.9 4.7 3 7.7 2.9z"/><path class="st0" d="M18 21.6c.1.1.1.3.2.4h-.5c.2-.1.2-.2.3-.4z"/><path class="st0" d="M18 21.6c-.1.1-.1.3-.2.4h-.5c-.1-.1-.2-.2-.2-.3l.6-.9c0 .3.1.6.3.8zM17.8 22c-.1.1-.2.3-.3.4-.1-.1-.2-.3-.3-.4h.6zM17.6 20.8l-.6.9c-2.5-4 .2-5.9-5.2-6.6.2-.3.5-.5.8-.8 1.4.2 2.9.7 3.5 1.9.6 1.5.8 3.1 1.5 4.6zM17.2 22h-.4c.1-.1.1-.2.2-.3.1.1.2.2.2.3zM16.1 11.1c0 .3-.1.5-.3.7-1.1.8-2.2 1.6-3.2 2.5l-1.2-.1c1.2-1.2 2.8-2 3.9-2.9.3.1.6 0 .8-.2z"/><path class="st0" d="M16.1 11.1c-.2.2-.5.2-.8.1 0 0 .1 0 .1-.1l.2-.5v-.3c.3.2.5.5.5.8z"/><path class="st0" d="M15.7 10.4v.3l-.2.5-.1.1c-.2-.1-.3-.3-.3-.5v-.2c.1-.2.3-.3.6-.2zM12.6 14.3c-.3.2-.5.5-.8.8-.3-.1-.5-.1-.7-.1 0-.1-.1-.2-.1-.3.1-.2.3-.3.4-.5l1.2.1z"/><path class="st0" d="M11.8 15.1c-.2.1-.3.3-.5.5-.1-.2-.1-.4-.2-.5.2-.1.4-.1.7 0zM10.7 14.1l.7.1c-.2.2-.3.3-.4.5-.1-.3-.2-.4-.3-.6z"/><path class="st0" d="M11 14.6c.1.1.1.2.1.3-.1 0-.2-.1-.4-.1.1 0 .2-.1.3-.2zM9.6 57.2c-.2 0-.3-.1-.5-.1.1-.2.2-.3.3-.4.1.2.2.3.2.5z"/><path class="st0" d="M9.5 56.7c-.1.1-.2.3-.3.4-.2-.1-.4-.1-.6-.1s-.1-.3-.1-.4c.3-.3.5-.6.8-1 0 .4.1.7.2 1.1z"/><path class="st0" d="M9.1 57.1l-.3.4c-.1-.2-.1-.3-.2-.5.2 0 .4 0 .5.1zM7.2 50.2c1.6.8 1.7 3.4 2 5.4-.3.3-.5.6-.8 1-.5-1.7-.5-4-1.3-5.2-.5-.7-3.3-1.4-3.5-1.9-.9-1.9 1.3-3.3 2.9-4.7.2.3.5.4.7.2.1-.1.2-.2.2-.3.1-.5.3-.9.3-1.4.3.1.5.5.3.8 0 0 0 .1-.1.1-.7 1-1.5 1.8-2.4 2.5-1.7 1.8.4 2.8 1.7 3.5zM8.6 57c-.1 0-.2-.1-.4-.1l.2-.3c.1.1.2.2.2.4z"/><path class="st0" d="M7.2 44.1l-.2.2c.1-.4.2-.8.2-1.2.2 0 .4 0 .5.1-.1.5-.2.9-.3 1.4-.1.3-.4.4-.6.3-.1 0-.2-.1-.3-.2.1-.1.3-.3.5-.4v.2l.2-.4z"/><path class="st0" d="M7.2 43.2c0 .4-.1.8-.2 1.1-.2.1-.3.3-.5.4-.1-.1-.1-.2-.1-.4s.1-.5.2-.8l.3-.3h.3z"/><path class="st0" d="M7.2 44.1l-.2.4v-.2l.2-.2z"/><path class="st2" d="M1.3 85.5c-.1.2-.2.3-.3.5-.1 0-.2-.1-.3-.2.1-.3.1-.5.2-.8.2 0 .5-.1.7-.2-.1.3-.2.5-.3.7z"/><path class="st2" d="M.9 85.1c-.1.2-.2.5-.2.8-.2-.4-.1-.8.2-.8z"/><path class="st10" d="M66.7 89.5c0-.7-.7-1.8 1.8-2.2.4 2.2-.7 1.5-2.2 2.2"/><path class="st11" d="M66.7 89.5c0-.7-.7-1.8 1.8-2.2.4 2.2-.7 1.5-2.2 2.2"/><path class="st10" d="M67.4 88.9c-.1-.8.8-.8 1.3-.9l-.9-.5c.1.8 0 .8-.7 1-.5.1-.9.4-1.1.8-.1.2 0 .4.1.5h.1c.8.2 1.5.1 2.2-.3.9-.5.9-1.4.8-2.3 0-.4-.4-.7-.8-.7h-.1c-1.6.3-2.7 1-2.4 2.7.2 1.1 1.7.7 1.5-.3zM108.2 57.3c4.2-9.2-7.6-2.3-.9 0"/><path class="st11" d="M108.2 57.3c4.2-9.2-7.6-2.3-.9 0"/><path class="st10" d="M108.4 57.4c.7-1.1 1.7-3.4.8-4.6-.6-.8-1.8-.6-2.6-.2-1 .5-1.7 1.4-1.9 2.5-.1 1.1 1.5 3 2.7 2.5.2-.1.3-.3.2-.5-.4-.8-1.8-.7-1.9-1.8.1-.7.5-1.4 1.2-1.8.4-.3 1.3-.7 1.7-.2.8 1-.4 2.9-.6 3.9 0 .1 0 .3.2.3 0 0 .1 0 .2-.1zM101.3 53.6c-2.7-.5-4.5-5.5-2.7-8.2 4.1-5.5 5.9 5 3.2 7.7"/><path class="st11" d="M101.3 53.6c-2.7-.5-4.5-5.5-2.7-8.2 4.1-5.5 5.9 5 3.2 7.7"/><path class="st10" d="M101.4 53.4c-2.1-.8-3-3.4-3-5.5 0-1.1 1.5-4.6 3-3.2 1 .9 1.1 2.8 1.2 4.1 0 1.5-.4 2.9-1 4.3-.1.2.2.3.3.3 1.8-.9 1.8-4 1.6-5.7-.1-1.5-.7-4-2.5-4.2-2.3-.3-3.6 2.7-3.7 4.5-.2 2.5 1.3 5.7 4 6 .4-.1.4-.5.1-.6z"/></g><ellipse class="st10" cx="2.8" cy="-51" rx="92.6" ry="36.5"/><path class="st10" d="M35.7-27.1L50.3 0 2.5-24.7z"/><path d="M-54.2-39c-.6-.7-1-1.4-1-2.2v-2.4h-.5c-.6.8-1.4 1.5-2.2 2.1-.8.6-1.6 1.1-2.5 1.6l-1.2.3c-1-.3-1.9-.7-2.7-1.1-.8-.4-1.6-1-2.4-1.8-.5-1-.9-2.1-1.2-3.3-.3-1.2-.6-2.4-.7-3.5.2-2.8.8-5.2 2-7.4 1.1-2.2 2.5-4.3 4.1-6.4 1.3-.8 2.7-1.4 4.3-1.8 1.5-.4 3.2-.5 5-.3l2 1.2.2 1.7-1.5.5-1-1.2h-4.4l-2.9 1.5c-1.6 1.9-3 4-4 6.2-1.1 2.2-1.6 4.6-1.6 7.2.3.8.6 1.7.7 2.6.2.9.6 1.7 1.2 2.3.5.5 1.1.8 1.7 1.1.7.2 1.4.4 2.2.4.8-.6 1.6-1.3 2.3-1.9.7-.7 1.3-1.4 1.6-2.2-.8-.2-1.6-.5-2.2-1-.7-.5-1.3-1.1-1.9-1.7l-.5-1.7 1.5-.5c1.2 1.3 2.5 2.3 3.9 2.9 1.5.7 2.9 1.2 4.4 1.7l.3 1.5-1.7 1.5v2.9l.3 1.2h-1.6zm-.4-5.6v-.7h-.5v.7l.2.2.3-.2zM-42.6-39.9c-1-.2-1.9-.4-2.8-.7-.9-.3-1.7-.9-2.3-1.7-.5-.5-.7-1.1-.7-1.8v-2.3l3.6-6.6c.5-.5 1.1-.8 1.7-.8.7-.1 1.4-.1 2.2-.1 1.2 1.5 2.1 3 2.9 4.7.8 1.7 1.1 3.6.7 5.7-.2.5-.4 1-.7 1.6s-.7 1-1.2 1.4c-.5.3-1 .5-1.6.6h-1.8zm1.9-2.5c.8-.5 1.2-1.2 1.2-2.2v-2.7l-1.7-3.6h-1l-2 .5c-.6 1-1.2 1.9-1.7 2.9s-.7 2.1-.5 3.4c.7.8 1.5 1.3 2.5 1.6 1 .3 1.9.4 2.9.4l.3-.3zM-26.3-39.9c-1-.2-1.9-.4-2.8-.7-.9-.3-1.7-.9-2.3-1.7-.5-.5-.7-1.1-.7-1.8v-2.3l3.6-6.6c.5-.5 1.1-.8 1.7-.8.7-.1 1.4-.1 2.2-.1 1.2 1.5 2.1 3 2.9 4.7.8 1.7 1.1 3.6.7 5.7-.2.5-.4 1-.7 1.6s-.7 1-1.2 1.4c-.5.3-1 .5-1.6.6h-1.8zm1.9-2.5c.8-.5 1.2-1.2 1.2-2.2v-2.7l-1.7-3.6h-1l-2 .5c-.6 1-1.2 1.9-1.7 2.9s-.7 2.1-.5 3.4c.7.8 1.5 1.3 2.5 1.6 1 .3 1.9.4 2.9.4l.3-.3zM-14.3-39.4l-4.1-2.5c-.6-.7-1.1-1.4-1.3-2.3-.3-.8-.3-1.8-.2-2.8l1.7-2.9c1-1 2.1-1.5 3.3-1.7 1.2-.2 2.5-.2 3.8 0l2.9 1c0-2.3.2-4.5.5-6.8s.9-4.4 1.7-6.4l1.2-.2c.3.3.5.7.5 1.1v1.1c-1 2.6-1.5 5.4-1.6 8.3-.1 2.9-.3 5.9-.6 8.8l.7 1.7c.5.3.9.7 1.3 1 .4.3.9.4 1.6.2l1.2-.2.5 1.5c-.3.5-.7.8-1.2.8-.5.1-1.1.1-1.7.1l-2.4-1-.5.7h-1l-1.7-.5c-.6.3-1.4.6-2.2.9-.8.2-1.6.3-2.4.1zm4.6-3.2c.7-.8 1-1.8 1.1-2.8.1-1.1.1-2.1.1-3-1-.3-2-.6-3.2-.9-1.1-.2-2.4-.3-3.7-.1-.5.3-1 .6-1.5 1-.5.3-.8.8-1 1.5v2.5l2.5 2.5 3.2.5 2.5-1.2zM17.1-36l-1-.7v-1c1.3-.8 2.6-1.8 3.9-2.9 1.3-1.1 2.3-2.4 2.9-3.9l1-10 1.2-.2c.5.6.7 1.4.6 2.3s-.1 1.7-.1 2.6c0 2.1-.2 4.1-.7 5.9-.5 1.8-1.5 3.4-3.1 4.9l-4.7 3zm7.8-23.4c-.5-.3-.7-.8-.7-1.3v-1.6l.7-1h1c.5.5.7 1 .6 1.6-.1.6-.1 1.2-.1 1.8l-1.5.5zM38.8-39.9c-1-.2-1.9-.4-2.8-.7-.9-.3-1.7-.9-2.3-1.7-.5-.5-.7-1.1-.7-1.8v-2.3l3.6-6.6c.5-.5 1.1-.8 1.7-.8.7-.1 1.4-.1 2.2-.1 1.2 1.5 2.1 3 2.9 4.7.8 1.7 1.1 3.6.7 5.7-.2.5-.4 1-.7 1.6s-.7 1-1.2 1.4c-.5.3-1 .5-1.6.6h-1.8zm1.9-2.5c.8-.5 1.2-1.2 1.2-2.2v-2.7l-1.7-3.6h-1l-2 .5c-.6 1-1.2 1.9-1.7 2.9s-.7 2.1-.5 3.4c.7.8 1.5 1.3 2.5 1.6 1 .3 1.9.4 2.9.4l.3-.3zM54.9-40.5L50.3-42l-.7 1.2h-1l-.7-2c1.1-2.8 1.8-5.7 1.9-8.8.2-3.1.4-6.2.7-9.3l1.2-.2c.3 1.3.5 2.8.5 4.4v4.6h.3c.5-.5 1.1-.8 1.7-1.1.7-.2 1.4-.3 2.2-.1l3.2 1c.8 1.2 1.4 2.4 1.7 3.8.3 1.4.4 2.8.2 4.2-.3.6-.8 1.2-1.3 1.8-.6.6-1.2 1-1.8 1.4l-3.5.6zm3-2.7c.8-.5 1.3-1.1 1.4-1.8.2-.7.2-1.5 0-2.3-.2-.5-.3-1-.5-1.6-.2-.6-.5-1.1-1-1.6l-3-.5c-.6.3-1.1.8-1.3 1.5-.2.6-.6 1.2-1.1 1.7l-1.2 3.4c.6.5 1.4.8 2.2 1.1.8.2 1.6.4 2.5.6l2-.5zM70-39.7l-1.9-1-.8-2c.2-.7.4-1.3.7-2 .3-.6.8-1.2 1.5-1.7l1.7-.5 1.7 1.5.2 2.9-1.2 2-1.9.8zm-.5-13.4c-.8-1.3-1.2-2.8-1.1-4.4.1-1.6.1-3.2.1-4.6l1-2.2 1.2-.3.5 1.5c-.5 1.3-.7 2.6-.6 4 .1 1.4.1 2.8.1 4.3l.2 1.2-1.4.5z"/></svg>