<?xml version="1.0" encoding="utf-8"?>
<!-- Generator: Adobe Illustrator 23.0.6, SVG Export Plug-In . SVG Version: 6.00 Build 0)  -->
<svg version="1.1" id="レイヤー_1" xmlns="http://www.w3.org/2000/svg" xmlns:xlink="http://www.w3.org/1999/xlink" x="0px"
	 y="0px" viewBox="0 0 347.6 266.6" style="enable-background:new 0 0 347.6 266.6;" xml:space="preserve">
<style type="text/css">
	.st0{fill:#D1BE96;stroke:#000000;stroke-miterlimit:10;}
	.st1{fill:url(#SVGID_1_);}
	.st2{fill:#D1BE96;stroke:#000000;stroke-linejoin:round;}
	.st3{fill:#503014;}
	.st4{fill:#1D3033;stroke:#1D3033;stroke-width:0.66;stroke-linecap:round;stroke-linejoin:round;}
	.st5{fill:#433138;}
	.st6{fill:#F3ED64;}
	.st7{fill:#3E3F3F;}
	.st8{fill:#F7E5D7;}
	.st9{fill:#9E7642;}
	.st10{fill:#DC4846;}
	.st11{fill:#DADADA;}
	.st12{fill:#A3A2A2;}
	.st13{fill:#1A5486;}
	.st14{fill:#2268B2;}
	.st15{fill:#FFFFFF;}
	.st16{fill:none;}
	.st17{fill:#6B6B6B;}
	.st18{fill:#8D1D22;}
	.st19{fill:#F9D9D9;}
</style>
<g id="レイヤー_1-2">
	<path class="st0" d="M265.2,178.1c0.8-11.6,1.9-28,1.9-37.4v-77l-100.6-2.1c-1.5,11.9-1.8,23.9-0.9,35.9c1.7,23,3.4,50.8,2.9,62.2
		c-0.9,21.3-5.7,27.3-5.7,27.3l82.9,3.6L265.2,178.1L265.2,178.1z"/>
	
		<linearGradient id="SVGID_1_" gradientUnits="userSpaceOnUse" x1="157.0579" y1="691.1405" x2="272.7064" y2="711.5356" gradientTransform="matrix(1 0 0 1 0 -576)">
		<stop  offset="0" style="stop-color:#FFFFFF;stop-opacity:0"/>
		<stop  offset="1" style="stop-color:#452C11;stop-opacity:0.3"/>
	</linearGradient>
	<path class="st1" d="M265.2,178.1c0.8-11.6,1.9-28,1.9-37.4v-77l-100.6-2.1c-1.5,11.9-1.8,23.9-0.9,35.9c1.7,23,3.4,50.8,2.9,62.2
		c-0.9,21.3-5.7,27.3-5.7,27.3l82.9,3.6L265.2,178.1L265.2,178.1z"/>
	<path class="st2" d="M247,178.1c5.3,4.4,17.7,0.3,17.7,0.3l-9,5.8l-10,6.4C245.7,190.6,245.1,188,247,178.1z"/>
	<g id="旗のフリーアイコンその3">
		<path id="パス_510" class="st3" d="M211.1,105.9c7,1.2,23,10.3,20.9,16.9l-0.6,2.9c2.2,5.5,7.7,8.8,13.6,8.3
			c-2.1,6.9-8,9-15.2,9.4c-10.9-0.6-9.4-3.7-9.4-3.7s9-4.8-18.9-7.9L211.1,105.9z"/>
		<path id="パス_511" class="st3" d="M187.7,153.2c-1.6,0-2.8-1.3-2.8-2.8c0-0.3,0.1-0.7,0.2-1l18.1-48.5c0.5-1.5,2.1-2.3,3.6-1.8
			s2.3,2.1,1.8,3.6l-0.1,0.2l-18,48.5C189.9,152.4,188.9,153.2,187.7,153.2L187.7,153.2z"/>
	</g>
	<g id="レイヤー_3">
		<path class="st4" d="M94.2,224.6c0,0.2,0.2,0.3,0.4,0.2c0.3-0.1,0.6-0.3,0.9-0.5c0,0.1,0,0.2,0.1,0.2c0,0.4-0.3,0.8-0.7,0.8
			c-8.3,0.7-24.6,1.3-27.8,11.2c0,0.1-0.1,0.3-0.2,0.4l-1-0.4h-0.1c-0.1,0-0.2,0.1-0.2,0.2c-0.2-0.3-0.1-0.7,0.1-1
			c6.7-8.4,18.1-12.4,28.8-11.9C94.2,224,94.2,224.3,94.2,224.6C94.2,224.5,94.2,224.6,94.2,224.6z"/>
		<path class="st4" d="M66.1,237c-0.2-0.1-0.3-0.2-0.5-0.3c0-0.1-0.1-0.1-0.1-0.2v-0.1c0.1-0.1,0.2-0.2,0.3-0.1l1,0.4
			c-0.1,0.1-0.1,0.2-0.2,0.2C66.4,237.1,66.2,237.1,66.1,237L66.1,237z M65.5,236.6c0,0,0.1,0.1,0.1,0.2
			C65.5,236.7,65.5,236.6,65.5,236.6z M65.6,236.8c0.2,0.1,0.3,0.2,0.5,0.3C66,237,65.8,236.9,65.6,236.8z"/>
		<path class="st4" d="M76.8,243c2.3,2.4,4.2,4.9,6.3,7.4c4.1,5,8.9,8.8,15.8,8.2c4-0.3,7.6-1.9,11.6-1.7c2.3,0,4.8,1.1,7.1,1v0.6
			c-2.4,0-4.6-0.6-7.1-0.9c-3.6-0.4-7.8,1.2-11.4,1.7c-3.4,0.5-6.5-0.6-9.5-2.1c-4.2-2.2-7.2-6.6-10.1-10.1
			c-4-4.8-8.1-7.3-13.4-10.1c0.1,0.1,0.3,0.1,0.4,0C70.1,238.7,74.1,240.2,76.8,243L76.8,243z"/>
		<path class="st4" d="M75.7,241.4c3.9,3.4,6.7,7.7,10.3,11.4c5.6,5.9,12.1,5.4,19.5,3.9c4.3-0.9,7.8,0.2,12,0.7v0.7
			c-2.3,0.1-4.8-1-7.1-1c-4-0.2-7.6,1.4-11.6,1.7c-6.9,0.6-11.6-3.2-15.8-8.2c-2.1-2.5-4.1-5-6.3-7.4c-2.6-2.8-6.7-4.3-10.2-6
			c0.1,0,0.2-0.1,0.2-0.2C69.9,238.1,73.4,239.2,75.7,241.4L75.7,241.4z"/>
		<path class="st5" d="M94.8,225.3H95c0.4-0.1,0.6-0.6,0.5-0.9v-0.1c1.3-0.9,2.4-2.6,3.5-3.7c1.3-1.2,2.6-2.6,3.7-4
			c1,0.3,2.1,0.4,3.2,0.5c-1.5,4.8-2.5,10.2-1,14.7c0,0.1,0.1,0.1,0.1,0.2c0.1,0.1,0.3,0,0.3-0.1c1.8,1.5,3.8,2.8,6,3.5
			c1.9,0.8,4.3,1.9,6.4,1.6c0.1,0.1,0.2,0.2,0.4,0.2c0.8,0.6,1.6,1.2,2.5,1.8c-0.5,2.4-2.7,11.2-3.1,18.2c-4.2-0.5-7.8-1.6-12-0.7
			c-7.3,1.6-13.8,2-19.5-3.9c-3.5-3.7-6.4-8-10.3-11.4c-2.4-2.2-5.9-3.3-9-4.6c0.1-0.1,0.2-0.2,0.2-0.4
			C70.3,226.6,86.5,225.9,94.8,225.3L94.8,225.3z"/>
		<path class="st4" d="M83.4,194.8c0,0.1,0,0.2,0.1,0.3h0.1c-2.5,2.3-5.1,7.5-4.8,11.3c-0.2,0.2-0.3,0.5-0.2,0.7
			c-0.3-0.1-0.4-0.3-0.4-0.6c0-2.5,0.7-5,1.8-7.2C80.5,198.3,81.9,195.3,83.4,194.8L83.4,194.8z"/>
		<path class="st4" d="M79.4,206.4v0.2c0,0.2,0,0.3-0.2,0.4c-0.2,0.2-0.4,0.2-0.7,0.2c-0.1-0.3,0-0.5,0.2-0.7
			C79,206.3,79.2,206.2,79.4,206.4L79.4,206.4z"/>
		<path class="st4" d="M86.1,210.1c0,0.3,0.1,0.5,0.4,0.7c0.3,0.2,0.7,0,0.9-0.3c1.8,0.5,3.6,1,5.3,1.6c2.8,0.9,6.3,2.7,9.6,3.7
			c-0.2,0.1-0.5,0.3-0.6,0.5c-3.1-0.9-6.1-2.5-9.1-3.6c-4.6-1.7-9.4-2.4-13.6-5.3c-0.1-0.1-0.2-0.2-0.2-0.3c0.2,0.1,0.5,0,0.7-0.2
			C81.4,208.4,83.7,209.4,86.1,210.1L86.1,210.1z M83.9,195.4c-0.4,1.1-1.8,2.3-2.4,3.3c-1.4,2.3-2.2,4.9-2.1,7.6
			c-0.2-0.1-0.5-0.1-0.6,0.1c-0.2-3.8,2.3-9,4.8-11.3L83.9,195.4L83.9,195.4z"/>
		<path class="st4" d="M79.4,206.4c2.1,1.3,4.4,2.4,6.9,3.1c0,0.1-0.1,0.2-0.2,0.4v0.3c-2.4-0.7-4.7-1.7-6.8-3.1
			c0.1-0.1,0.2-0.3,0.2-0.4L79.4,206.4L79.4,206.4z"/>
		<path class="st6" d="M83.9,195.4c2.2,1.5,4.7,2.7,7.3,3.3c-3.4,2.3-3.4,7.2-4.9,10.7c-2.4-0.7-4.7-1.8-6.9-3.1
			c-0.1-2.7,0.7-5.3,2.1-7.6C82.1,197.7,83.5,196.5,83.9,195.4L83.9,195.4z"/>
		<path class="st4" d="M83.6,195.1c-0.2-0.1-0.2-0.2-0.2-0.3c0.2-0.1,0.4-0.1,0.6-0.1l0.1,0.1v0.1l-0.1-0.1
			C83.8,194.9,83.7,195,83.6,195.1L83.6,195.1z"/>
		<path class="st4" d="M84,194.4c7.4,3.1,15.1,5.1,22.8,7.6c0,0.1-0.1,0.2-0.1,0.3s0,0.2,0.1,0.3c-3.3-0.9-6.6-2.1-9.8-3.1
			c-3.7-1.2-9.5-2.5-12.9-4.7v-0.1c0-0.1-0.1-0.1-0.1-0.1c-0.2,0-0.4,0-0.6,0.1c0-0.2,0.2-0.4,0.4-0.4C83.9,194.4,84,194.4,84,194.4
			L84,194.4z"/>
		<path class="st4" d="M83.9,194.9L84,195c0,0.2,0,0.3-0.1,0.4l-0.3-0.3C83.7,195,83.8,195,83.9,194.9z M96.9,199.6
			c3.1,1,6.5,2.1,9.8,3.1c0.2,0.3,0.6,0.4,0.9,0.2c0.5,0.2,1,0.3,1.5,0.4c-0.1,0.1-0.1,0.3-0.1,0.5c-5.1-0.9-9.9-2.8-14.8-4.2
			c-0.7-0.2-1.5-0.4-2.2-0.6c0.1-0.1,0.1-0.2,0-0.3c-0.1-0.2-0.3-0.2-0.4-0.1c-0.1,0.1-0.2,0.1-0.3,0.2c-2.6-0.6-5.1-1.8-7.3-3.3
			c0.1-0.1,0.1-0.3,0.1-0.4C87.4,197.1,93.2,198.4,96.9,199.6L96.9,199.6z M87.3,210.4c-0.2,0.3-0.5,0.5-0.9,0.3
			c-0.2-0.1-0.4-0.4-0.4-0.7C86.5,210.2,86.9,210.3,87.3,210.4L87.3,210.4z M87.5,209.8v0.3c0,0.1,0,0.2-0.1,0.3l-1.2-0.4v-0.3
			c0.1-0.1,0.1-0.2,0.2-0.4l0.6,0.2C87.1,209.6,87.3,209.7,87.5,209.8L87.5,209.8z"/>
		<path class="st4" d="M91.2,198.7c0.1,0.1,0.3,0.1,0.4,0.1c-2.9,2.3-3.8,7.4-4.8,10.8l-0.6-0.2C87.8,206,87.9,201,91.2,198.7
			L91.2,198.7z"/>
		<path class="st4" d="M91.6,198.8l0.4,0.1v0.1c-2.5,3.1-4,6.9-4.5,10.8c-0.2-0.1-0.4-0.1-0.6-0.2C87.9,206.2,88.8,201.2,91.6,198.8
			L91.6,198.8z M87.5,209.8c1.8,0.5,3.6,1,5.3,1.6c4.6,1.5,8.8,3.6,13.5,4.7l-0.1,0.5c-1-0.1-2-0.3-3-0.6c0.1-0.1,0.1-0.3,0-0.4
			c-0.1-0.2-0.4-0.3-0.6-0.2c-0.1,0.1-0.3,0.2-0.4,0.3c-3.3-1.1-6.8-2.8-9.6-3.7c-1.6-0.6-3.5-1.1-5.3-1.6c0.1-0.1,0.1-0.2,0.1-0.3
			S87.4,209.9,87.5,209.8z"/>
		<path class="st5" d="M92,198.9c0.8,0.2,1.5,0.4,2.2,0.6c4.9,1.4,9.8,3.2,14.8,4.2c-0.2,1-0.2,1.9-0.1,2.9c0,0.1,0.1,0.2,0.1,0.3
			c-2.3,1.3-2.4,3.6-1.4,5.7c-0.4,1.1-0.9,2.2-1.3,3.5c-4.7-1.1-8.9-3.2-13.5-4.7c-1.8-0.6-3.6-1.1-5.3-1.6
			C87.9,205.9,89.5,202.1,92,198.9C92,199,92,199,92,198.9z"/>
		<path class="st4" d="M91.2,198.7c0.1-0.1,0.2-0.2,0.3-0.2c0.1-0.1,0.2-0.1,0.3,0c0.2,0.1,0.2,0.3,0.1,0.4l-0.4-0.1
			C91.5,198.8,91.4,198.7,91.2,198.7L91.2,198.7z M94.4,223.8h0.7l-0.5,0.7h-0.3C94.2,224.2,94.3,224,94.4,223.8z"/>
		<path class="st4" d="M95,223.8c0.2,0.1,0.4,0.2,0.5,0.5c-0.3,0.2-0.6,0.4-0.9,0.5h-0.1c-0.2,0-0.3-0.1-0.3-0.3h0.4L95,223.8
			L95,223.8z M97.6,219.9c1.3-1.3,2.6-2.5,4-3.7l0.6,0.2c-2.4,2.5-5,4.6-7.1,7.3h-0.7C94.9,222.2,96.5,221,97.6,219.9z M103.3,155.1
			v0.1c-2.6,2.8-3.7,7.6-4.9,11.1c-2.4,6.5-3.6,13.4-3.8,20.4c-0.2,0.3-0.2,0.7-0.3,1.1v-0.1c-0.1-6.6,0.8-13.2,2.9-19.5
			C98.7,163.7,99.8,158.5,103.3,155.1z M95,187.8v-0.2c1.2-3.2,4.6-5.9,6.7-8.4c-0.1,0.2-0.1,0.4-0.1,0.6c-0.9,1.2-1.9,2.3-3,3.3
			c-0.9,0.9-1.7,1.9-2.4,3c-0.4,0.8-0.8,1.6-1.4,2.3c-0.1,0.1-0.3,0-0.3-0.1v-0.5v0.1c0.1,0.1,0.2,0.1,0.3,0
			C94.9,187.9,95,187.8,95,187.8L95,187.8z"/>
		<path class="st4" d="M94.7,186.7c0.1-0.2,0.2-0.5,0.3-0.7c-0.1,0.5-0.1,1-0.1,1.5c-0.1,0.1-0.1,0.2-0.1,0.3h-0.1
			c-0.1,0-0.2,0-0.2-0.1C94.5,187.4,94.6,187,94.7,186.7L94.7,186.7z M94.9,187.8c0,0.1-0.1,0.1-0.1,0.2c0.1-0.1,0.1-0.2,0.1-0.3
			V187.8z"/>
		<path class="st4" d="M96.9,183.7c1.5-1.8,3.1-3.4,4.8-5c0,0.1,0,0.2-0.1,0.4c-2.1,2.6-5.5,5.3-6.7,8.4c0-0.5,0.1-1,0.1-1.5
			C95.6,185.2,96.2,184.5,96.9,183.7L96.9,183.7z"/>
		<path class="st4" d="M98.4,166.3c1.1-3.5,2.2-8.4,4.9-11.1v0.4c-2.7,3.8-3.6,8.5-5,12.9c-1.7,5.7-2.8,11.6-3.2,17.5
			c-0.1,0.2-0.3,0.4-0.3,0.7C94.8,179.7,96.1,172.8,98.4,166.3L98.4,166.3z M102.2,216.4l0.6,0.1c-1.1,1.4-2.4,2.8-3.7,4
			c-1.1,1.1-2.2,2.8-3.5,3.7c-0.1-0.2-0.2-0.4-0.5-0.5C97.1,221.1,99.8,219,102.2,216.4L102.2,216.4z M104,128.7
			c-4.8,6.7-8.6,15.7-7.4,24.9v0.6c0,0.2,0.2,0.4,0.4,0.5l-0.1,0.1c-0.2,0-0.3-0.1-0.4-0.2C94.5,146.2,97.6,134.6,104,128.7
			L104,128.7L104,128.7z"/>
		<path class="st4" d="M104.2,129c-1.7,4-4.1,7.5-5.5,11.7c-1.2,3.9-1.7,7.9-1.6,11.9c-0.2,0.3-0.3,0.6-0.4,1
			c-1.2-9.1,2.6-18.2,7.4-24.9C104.1,128.8,104.1,128.9,104.2,129z"/>
		<path class="st7" d="M98.4,168.5c1.4-4.4,2.3-9.1,5-12.9c-0.5,3.6-0.4,7.2,1,10.1c0.1,0.2,0.3,0.2,0.4,0.3c0.4,0,0.7-0.2,0.7-0.6
			c1.6-3.5,3.4-7.4,6-10.1c5.6-6,12.7,3.6,16.4,7.1l0.1,0.1c0.3,0.2,0.7,0.1,0.9-0.2c1.9-2.9,3.6-5.9,5.6-8.6
			c2.8-3.7,6.3-7.3,11.3-5.8c1.1,0.3,2.3,0.6,3.4,0.9c12.1,7.8,19,27,13.7,40.8l-0.2,0.1c-0.1,0-0.2,0.1-0.3,0.2
			c-0.2,0.3-0.2,0.7,0,0.9c-0.3,0.7-0.6,1.3-1,1.9c-2-1-4-1.8-6.1-2.6c-4.1-9.9-8.5-19.4-10.3-30c0.6-3,0.4-6.1-0.3-9.1
			c0-0.1-0.2-0.2-0.3-0.1c-0.1,0-0.1,0.1-0.1,0.2c0.7,9.7-2.8,19.3-9.6,26.3c-0.1-2.8-0.4-5.7-0.9-8.5c0-0.4-0.7-0.3-0.7,0.1v0.4
			c-0.1,0-0.2,0.1-0.3,0.2c-0.9,1.8-2,3.5-3.1,5.1c-0.7,0.9-1.4,1.9-2,2.9c-2.6-5.2-5.5-10.4-8.2-15.5c0-0.2-0.1-0.4-0.3-0.5
			l-0.5-0.9c-0.1-0.1-0.2-0.2-0.3-0.1s-0.2,0.2-0.1,0.3l0.3,0.9v0.1c-1.7,5-4.2,9.2-6.7,13.8c-0.6-2.6-1.7-5-2-7.6
			c-0.1-0.5-0.7-0.5-0.7,0c0.1,1.7,0.5,3.5,1,5.1c-1,1.5-1.8,3.1-2.4,4.8c-0.9,1.9-1.7,3.9-2.3,6c-0.9,0.9-1.6,1.8-2.2,2.9
			c-1-3.6-1.7-7.7-0.6-11.3c0,0-0.1-0.1-0.1,0c-0.5,1-0.8,2.1-1,3.1c-1.7,1.6-3.3,3.2-4.8,5c-0.7,0.7-1.3,1.5-1.8,2.3
			C95.4,180.1,96.6,174.2,98.4,168.5L98.4,168.5z"/>
		<path class="st4" d="M97.1,152.6v1.8c0,0.1,0,0.2-0.1,0.2c-0.2-0.1-0.3-0.3-0.4-0.5v-0.6C96.7,153.2,96.9,152.9,97.1,152.6z"/>
		<path class="st4" d="M105.5,147.1c0-0.1-0.1-0.3-0.2-0.3s-0.3,0.1-0.3,0.2v0.1c0,0.1-0.1,0.2-0.1,0.3c-0.1,0.2-0.1,0.5-0.2,0.8
			c-1.1,0.7-2.2,1.4-3.3,2.2c-0.8,0.6-1.6,1.3-2.3,2c-0.6,0.6-1,1.5-1.6,2.1c-0.1,0.1-0.3,0.2-0.5,0.1c0.1-0.1,0.1-0.2,0.1-0.2v-1.9
			c0.7-1.1,1.6-2,2.7-2.7c1.7-1.3,3.6-2.3,5.5-3.2c0.6-0.3,1.1,0.6,0.5,0.9l-0.3,0.1L105.5,147.1L105.5,147.1z"/>
		<path class="st6" d="M104.2,129c2.3,3.4,7.7,7.5,11.9,5.1c5.5-3.1,9-9.2,11.6-14.8c3.3,5.2,8.2,11,15,10.3
			c4.8-0.5,10.3-3.4,10.6-8.8c6.7,4.5,10.9,12.4,13.1,20c-2.3-2.4-5.4-3.8-8.6-4.1c-0.3,0-0.5,0.2-0.6,0.4c-0.6,4.2,1,8.1,2.3,12
			c1.5,4.4,1.8,9.1,3,13.6c-2.8-5.7-7.2-10.6-12.5-14.1v-0.1c0.1-0.2,0-0.5-0.3-0.6c-6.5-2.4-10.1-2-14.7,3.3
			c-2.3,2.7-4,5.8-5.9,8.7c-1,1.5-7.2-5.2-8.3-6.1c-7.9-6.3-13,3-15.7,9.9c-1.5-5.4,0.8-10.6,0.6-16.1l0.2-0.1
			c0.6-0.4,0.1-1.2-0.5-0.9c-2,0.8-3.8,1.9-5.5,3.2c-1.1,0.7-2,1.7-2.7,2.7c-0.1-4,0.4-8,1.6-11.9C100.1,136.5,102.5,133,104.2,129
			L104.2,129z"/>
		<path class="st4" d="M102.2,178.7c0.1-0.1,0-0.2-0.1-0.2H102l-0.3,0.3c0.2-1.1,0.5-2.2,1-3.1c0-0.1,0.1-0.1,0.1,0
			c-1.1,3.6-0.4,7.7,0.6,11.3c-0.3,0.4-0.5,0.9-0.7,1.4c-0.2,0-0.4-0.2-0.5-0.4c-0.8-2.7-1.1-5.5-0.7-8.2c0.2-0.3,0.3-0.5,0.5-0.8
			L102.2,178.7z"/>
		<path class="st4" d="M102.1,178.6v0.3c-0.2,0.3-0.3,0.5-0.5,0.8c0-0.2,0-0.4,0.1-0.6C101.8,179,101.9,178.8,102.1,178.6z
			 M102.7,215.9c-0.2,0.2-0.3,0.4-0.5,0.5l-0.6-0.2c0.2-0.2,0.4-0.4,0.6-0.5C102.3,215.8,102.5,215.9,102.7,215.9z M102,178.4h0.1
			v0.1c-0.1,0.2-0.3,0.4-0.4,0.5c0-0.1,0-0.2,0.1-0.4L102,178.4L102,178.4z"/>
		<path class="st4" d="M102.1,178.4c0.1,0,0.1,0.1,0.1,0.2l-0.1,0.3v-0.3C102,178.6,102,178.5,102.1,178.4z M103.2,216.1
			c-0.1,0.2-0.2,0.4-0.4,0.5l-0.6-0.1c0.2-0.2,0.3-0.4,0.5-0.5L103.2,216.1z M102.2,215.7c0.1-0.1,0.2-0.2,0.4-0.3
			c0.1-0.1,0.3-0.1,0.4,0c0.2,0.1,0.3,0.4,0.2,0.6l-0.5-0.1C102.5,215.9,102.4,215.8,102.2,215.7L102.2,215.7z M103.3,188.3
			c-0.6,1.4-0.3,3.1,0.8,4.1c1.8,1.8,5.2,3,7.7,3.7l-0.3,0.6c-3.1-0.9-6.3-2.1-8.3-4.6c-0.8-1.1-0.9-2.5-0.4-3.7
			C103,188.4,103.2,188.4,103.3,188.3z"/>
		<path class="st4" d="M106.1,216.7c-0.1,0.1-0.1,0.3-0.2,0.4c-1.1-0.1-2.2-0.2-3.2-0.5c0.1-0.2,0.3-0.3,0.4-0.5L106.1,216.7z
			 M103.5,187c0.1,0.2,0.1,0.4,0.1,0.6c-0.1,0.2-0.2,0.5-0.3,0.7c-0.2,0.1-0.4,0.1-0.5,0.1C103,187.9,103.2,187.4,103.5,187
			L103.5,187z"/>
		<path class="st4" d="M103.6,187.6c0.6-1.1,1.3-2.2,2.1-3.2c0.1,0.1,0.2,0.1,0.2,0c-1.9,2.6-4,5.8-0.6,8.3c2.1,1.3,4.4,2.3,6.8,2.8
			l-0.3,0.6c-2.5-0.7-5.9-1.9-7.7-3.7c-1.1-1.1-1.4-2.7-0.8-4.1C103.6,188.1,103.7,187.9,103.6,187.6L103.6,187.6z M103.2,155.5
			c0.2-0.3,0.5-0.6,0.8-1c0.1-0.1,0-0.1-0.1-0.1c-0.2,0.2-0.4,0.3-0.6,0.5c0.3-2.3,0.8-4.6,1.4-6.8c0.2-0.1,0.3-0.2,0.5-0.2
			c-0.6,5-2.6,12-0.6,16.8c-0.1,0.1-0.1,0.2-0.1,0.3c-0.1,0.5,0.8,0.9,1,0.4v-0.1c0,0.2-0.1,0.3-0.3,0.4c-0.3,0.2-0.7,0.1-0.9-0.2
			C103,162.8,102.9,159.1,103.2,155.5C103.3,155.6,103.3,155.6,103.2,155.5L103.2,155.5z"/>
		<path class="st4" d="M103.4,155c0.2-0.2,0.4-0.4,0.6-0.5c0.1,0,0.1,0,0.1,0.1c-0.3,0.3-0.5,0.6-0.8,1v-0.4
			C103.4,155.1,103.4,155.1,103.4,155L103.4,155z M103.3,188.3c0.1-0.2,0.2-0.5,0.3-0.7C103.7,187.9,103.6,188.2,103.3,188.3z
			 M105.7,184.1v0.1c0,0.1,0,0.1,0.1,0.2c-0.9,1-1.6,2-2.1,3.2c-0.1-0.2-0.1-0.4-0.1-0.6C104.1,185.9,104.8,185,105.7,184.1z
			 M107.8,130.6c4.2,3.7,8.2,2.4,11.8-1.3c3-3.1,4.7-7.2,7.4-10.5c0.1-0.1,0.2-0.2,0.4-0.1c0,0.1,0.1,0.2,0.1,0.3
			c0.1,0.1,0.2,0.3,0.3,0.4c-2.6,5.6-6.1,11.7-11.6,14.8c-4.1,2.4-9.5-1.7-11.9-5.1c0.1-0.1,0.1-0.2,0.1-0.3
			c0.1-0.3-0.1-0.4-0.3-0.3l-0.1,0.1l-0.1-0.1c-0.2-0.3,0.2-0.8,0.5-0.5C105.6,128.7,106.7,129.6,107.8,130.6L107.8,130.6z"/>
		<path class="st4" d="M103.9,128.5l0.1-0.1c0.2-0.1,0.4,0.2,0.3,0.3c-0.1,0.1-0.1,0.2-0.1,0.3c-0.1-0.1-0.1-0.2-0.2-0.2
			L103.9,128.5z M105.6,147.8c0.2,5.5-2.1,10.7-0.6,16.1c-0.1,0.3-0.3,0.6-0.4,0.9c-2-4.8,0-11.8,0.6-16.8
			C105.3,147.9,105.5,147.8,105.6,147.8z"/>
		<path class="st4" d="M105.5,165.3v0.3c-0.3,0.5-1.2,0.1-1-0.4c0-0.1,0.1-0.2,0.1-0.3c0.1-0.3,0.2-0.6,0.4-0.9
			c0.1,0.2,0.1,0.5,0.3,0.8C105.3,164.9,105.4,165.1,105.5,165.3L105.5,165.3z M105.4,231.8l0.1,0.1c-0.1,0.1-0.2,0.1-0.4,0.1
			l-0.1-0.1c-1.5-4.5-0.6-9.9,1-14.7h0.7c-0.4,1.2-0.8,2.4-1.1,3.6c-0.6,3.5-0.7,7.1-0.4,10.7v0.3
			C105.2,231.7,105.3,231.8,105.4,231.8z M105.3,147.3c-0.1,0.2-0.1,0.5-0.1,0.7c-0.2,0.1-0.3,0.2-0.5,0.2c0.1-0.3,0.2-0.5,0.2-0.8
			L105.3,147.3L105.3,147.3z"/>
		<path class="st4" d="M105,147.5c0-0.1,0.1-0.2,0.1-0.3s0.1-0.1,0.2-0.2c0.1,0,0.3,0,0.3,0.2l-0.2,0.1L105,147.5L105,147.5z"/>
		<path class="st8" d="M106,184.4c1.3-1.4,2-3.5,2.6-5.2s1.3-3.4,1.9-5.1l0.9,2.4c0,0.1,0.1,0.2,0.2,0.2l-0.1,0.1
			c-0.1,0.2,0,0.5,0.2,0.6s0.5,0,0.6-0.1c3-4,6-8.7,7-13.7c2,5.4,4.2,11.1,7.9,15.4c-0.1,0.4,0.2,0.6,0.5,0.6
			c0.4,0.4,0.9-0.1,0.8-0.5c1.1-1.2,2.1-2.6,3-4c0.7-1,1.3-2,1.7-3.1c0,2.1,0.4,4.3,0.6,6.4c0.1,0.2,0.2,0.3,0.3,0.3
			c0.3,0.1,0.6,0,0.7-0.3v-0.1c4.5-3.2,8.1-9.2,9.8-15.4c0.5,9.3,5.4,18.9,9.7,26.9c-5.5-1.9-11.3-3-17.1-3H137
			c-0.1,0-0.2,0.2-0.1,0.3v0.3c1.7,3.1,3.6,6.1,5.8,8.9c-0.6,0-1.1-0.1-1.7-0.1h-1.5c-0.2-0.3-0.4-0.6-0.6-0.8
			c0-0.1-0.1-0.1-0.1-0.1c0-0.2-0.1-0.3-0.3-0.3c-0.2-0.2-0.4-0.3-0.6-0.5h-0.1c-0.2-0.1-0.4,0-0.4,0.2c-2.2-0.3-4.5-0.4-6.7-0.3
			c-1.4-0.1-2.9,0.2-4.2,0.6c0.7-0.7,1.5-1.5,2.3-2.1c0.2-0.1,0-0.4-0.1-0.4h0.1c0.1,0,0.2-0.2,0.1-0.3c-2.1-1.2-4.6-1.8-7-1.7
			c-1.7-0.1-4.4-0.2-5.9,0.9c-0.2-0.1-0.4-0.1-0.5,0.1c-1.2,1.2-2.3,2.5-3.2,4c-2.4-0.5-4.7-1.4-6.7-2.8
			C102,190.3,104.2,187.1,106,184.4L106,184.4z M116.8,186.9c0.4,0.1,0.8-0.3,0.7-0.6c0.8-2,1.1-4.1,0.9-6.2
			c-0.1-1.1-1.1-3.9-2.7-3.1s-1.2,3.8-1,5.2C114.9,183.4,115.3,186.7,116.8,186.9L116.8,186.9z M141.4,186.3l0.1,0.1
			c0.4,0.2,0.9,0.1,1.1-0.3v0.4c0.1,0.1,0.2,0.1,0.3,0.1c1.7-1.1,1.4-5.6,1.2-7.2c-0.1-1.5-1.5-4.5-3.5-2.7
			c-1.8,1.7-1.1,5.4-0.5,7.4C140.3,184.8,140.7,185.6,141.4,186.3L141.4,186.3z"/>
		<path class="st4" d="M106.7,217.1c0.1,0,0.2-0.1,0.3-0.1c0.1-0.2,0.1-0.4-0.1-0.6c0.4-1,0.7-2.1,1-3.1c0.1,0.2,0.2,0.3,0.3,0.5
			c-0.4,2-1.1,4-1.9,5.9c-1.2,3.6-0.7,7.5-0.9,11.2c-0.2,0.1-0.4,0.3-0.4,0.6c-0.3-3.6-0.2-7.2,0.4-10.7
			C105.9,219.5,106.2,218.3,106.7,217.1L106.7,217.1z M148.9,148c-0.1,0-0.2,0-0.2,0.1c-3.8-1.1-7.2-2.5-10.6,0.6
			c-4,3.6-6.7,9-9.6,13.3c-3.5-3.1-8.1-9-12.9-9.9c-3.7-0.6-8.6,8.5-10.3,12.5c-0.1-0.3-0.2-0.5-0.3-0.8c2.7-6.9,7.7-16.2,15.7-9.9
			c1.1,0.9,7.3,7.6,8.3,6.1c1.9-2.9,3.6-6.1,5.9-8.7c4.6-5.3,8.2-5.7,14.7-3.3h0.1c0.2,0.1,0.3,0.4,0.1,0.6
			c-0.1-0.1-0.3-0.2-0.5-0.3C149.3,148.2,149.1,148.1,148.9,148L148.9,148z M105.1,231.6v-0.2V231.6z"/>
		<path class="st4" d="M105.4,230.8v0.9c0,0.1,0,0.1-0.1,0.1l-0.1-0.1c-0.1,0-0.1-0.1-0.1-0.2v-0.3
			C105.2,231.2,105.3,231,105.4,230.8L105.4,230.8z M105.4,147.3l0.2-0.1v0.6c-0.1,0.1-0.2,0.1-0.4,0.2
			C105.2,147.8,105.3,147.5,105.4,147.3z M115.6,152.2c4.9,0.9,9.5,6.7,13,9.9c2.9-4.3,5.7-9.7,9.7-13.3c3.4-3.1,6.8-1.7,10.6-0.6
			c-0.1,0.1-0.1,0.1,0,0.2c0.2,0.1,0.4,0.3,0.6,0.4c-1.1-0.2-2.3-0.6-3.4-0.9c-5-1.4-8.5,2.1-11.3,5.8c-2.1,2.7-3.7,5.8-5.6,8.6
			l-0.1,0.1c-0.3,0.2-0.7,0.2-0.9,0c-3.8-3.6-10.9-13.1-16.5-7.1c-2.6,2.8-4.4,6.7-6,10.1v-0.2c-0.1-0.2-0.1-0.4-0.2-0.6
			C107,160.7,111.8,151.5,115.6,152.2L115.6,152.2z M117.7,236.8c0,0.1,0.1,0.2,0.1,0.3c-2.1,0.3-4.5-0.8-6.4-1.6
			c-2.2-0.8-4.2-2-6-3.5l0.1-0.1V231c0.2-0.1,0.4-0.1,0.5,0.1c3.5,2.6,7.2,3.8,11.3,5c0.1,0.2,0.1,0.4,0.2,0.6L117.7,236.8
			L117.7,236.8z"/>
		<path class="st6" d="M106.4,219.6c0.8-1.9,1.4-3.9,1.9-6c1.7,2.4,4.9,4.2,8,3.1h0.2c-2.5,5.7-0.9,13.4,0.8,19.2
			c-4.1-1.2-7.8-2.3-11.3-5c-0.1-0.1-0.3-0.1-0.5-0.1C105.7,227.1,105.2,223.2,106.4,219.6L106.4,219.6z"/>
		<path class="st4" d="M105.7,184.1l0.5-0.5c-0.1,0.2-0.2,0.4-0.3,0.5v0.1l-0.2,0.2c-0.1,0-0.1-0.1-0.1-0.2S105.7,184.1,105.7,184.1
			z M106.3,183.5l0.2-0.2c0.1-0.1,0.3,0,0.2,0.1c-0.2,0.3-0.5,0.7-0.7,1c-0.1,0.1-0.2,0.1-0.2,0l0.2-0.2v-0.1
			C106,184,106.1,183.8,106.3,183.5z"/>
		<path class="st4" d="M106.7,183.5c0.1-0.1-0.1-0.3-0.2-0.1l-0.2,0.2c1.6-3.2,2.6-6.7,4.2-9.9c0.1,0.1,0.1,0.2,0.1,0.4
			c-0.6,1.8-1.3,3.3-1.9,5.1c-0.5,1.9-1.4,3.7-2.6,5.2C106.2,184.1,106.5,183.8,106.7,183.5L106.7,183.5z M106.3,216.2
			c0.2,0.1,0.4,0.1,0.6,0.1h0.1c-0.1,0.2-0.2,0.5-0.3,0.8H106c0.1-0.1,0.1-0.3,0.2-0.4C106.2,216.5,106.2,216.3,106.3,216.2
			L106.3,216.2z"/>
		<path class="st4" d="M108,178.2c0.6-1.7,1.4-3.3,2.4-4.8c0,0.1,0.1,0.2,0.1,0.3c-1.6,3.2-2.6,6.7-4.2,9.9
			c-0.2,0.1-0.4,0.3-0.5,0.5C106.3,182.1,107.1,180.1,108,178.2z M107.7,212.7c0.1,0.2,0.2,0.3,0.3,0.5c-0.3,1.1-0.6,2.1-1,3.1h-0.1
			l-0.6-0.1C106.7,215,107.1,213.8,107.7,212.7L107.7,212.7z M107.9,202.5v0.1c0,0.2-0.2,0.3-0.3,0.4c-0.3-0.1-0.6-0.1-0.9-0.2
			c0-0.1-0.1-0.2-0.1-0.3s0.1-0.2,0.1-0.3c0.2,0.1,0.4,0.1,0.6,0.2C107.5,202.3,107.7,202.4,107.9,202.5L107.9,202.5z M111.1,197.2
			l-0.3,0.6c-1.7,1-3,2.5-3.6,4.4c-0.2-0.1-0.4-0.1-0.6-0.2C107.4,199.8,109,198.1,111.1,197.2L111.1,197.2z"/>
		<path class="st4" d="M106.7,202.7c0.3,0.1,0.6,0.2,0.9,0.2C107.3,203.1,106.9,203,106.7,202.7z M107.1,216.7
			c0,0.2-0.2,0.4-0.4,0.4c0.1-0.3,0.2-0.5,0.3-0.8C107.1,216.5,107.2,216.6,107.1,216.7L107.1,216.7z M110.9,197.9
			c-0.1,0.2-0.2,0.4-0.3,0.7c-1.3,1-2.2,2.4-2.6,3.9c-0.2-0.1-0.4-0.2-0.6-0.2C107.9,200.4,109.2,198.8,110.9,197.9L110.9,197.9z"/>
		<path class="st4" d="M107.9,202.6v-0.1l1.2,0.4c0,0.2-0.1,0.3-0.1,0.5c-0.5-0.1-1-0.2-1.5-0.4
			C107.7,202.9,107.9,202.8,107.9,202.6L107.9,202.6z M109.9,206.9v-0.3c0.2-0.1,0.4-0.1,0.6-0.2c2.7-0.6,5.5,0,7.6,1.8
			c0,0.2-0.1,0.4-0.1,0.6c-1.5-1.4-3.5-2.1-5.6-2.1c-4.6,0.1-5.7,2.9-4.6,5.4l-0.2,0.5c-1.1-2.1-1-4.5,1.4-5.7
			C109.2,207.3,109.8,207.3,109.9,206.9L109.9,206.9z"/>
		<path class="st4" d="M108.1,212.6c-0.1,0.2-0.1,0.4-0.1,0.6c-0.1-0.2-0.2-0.3-0.3-0.5l0.2-0.5C107.9,212.3,108,212.5,108.1,212.6
			L108.1,212.6z"/>
		<path class="st4" d="M118,208.9c0,0.1-0.1,0.2-0.1,0.3c-0.1,0.5,0.5,0.7,0.9,0.6c0.9,1,1.2,2.4,0.9,3.7l-0.1,0.1l-0.9,0.8
			c0.7-1,0.8-2.4,0.2-3.5c-1.5-3.2-5.9-4.2-8.9-3.2c-2.6,0.9-2.3,3.6-1,5.4c0.9,1.3,2.2,2.2,3.7,2.6h-0.6c-0.1,0.1-0.2,0.2-0.1,0.4
			c-1.6-0.6-2.9-1.7-3.8-3.1c0-0.4,0-0.9-0.1-1.3c0,0-0.1-0.1-0.2,0s-0.1,0.3-0.2,0.5c-1.1-2.6,0-5.3,4.6-5.4
			C114.5,206.8,116.5,207.5,118,208.9L118,208.9z"/>
		<path class="st4" d="M107.8,212.1c0.1-0.2,0.2-0.4,0.2-0.5s0.2-0.1,0.2,0c0.1,0.4,0.1,0.9,0.1,1.3c-0.1-0.1-0.2-0.3-0.2-0.4
			C108,212.5,107.9,212.3,107.8,212.1L107.8,212.1z"/>
		<path class="st4" d="M108.1,212.6c0.1,0.1,0.1,0.3,0.2,0.4v0.7c-0.1-0.1-0.2-0.3-0.3-0.5C108,213,108,212.8,108.1,212.6
			L108.1,212.6z"/>
		<path class="st9" d="M110.6,198.5c-0.6,1.4-1.1,2.8-1.4,4.3l-1.2-0.4C108.4,200.9,109.3,199.5,110.6,198.5L110.6,198.5z"/>
		<path class="st4" d="M112.1,216.1c1.3,0.7,2.8,0.9,4.2,0.6c-3,1.1-6.3-0.7-8-3.1v-0.7C109.2,214.5,110.5,215.6,112.1,216.1z"/>
		<path class="st10" d="M118.9,210.9c0.6,1.1,0.5,2.4-0.2,3.5l-1.2,1h-0.1c-0.5,0.2-1,0.4-1.5,0.4c-1,0.1-2.1-0.1-3.1,0
			c-1.5-0.4-2.8-1.3-3.7-2.6c-1.3-1.9-1.6-4.5,1-5.4C113.1,206.7,117.5,207.7,118.9,210.9z"/>
		<path class="st4" d="M109.8,203.4c0.5-1.9,1.1-3.7,1.9-5.5c0.1-0.1,0.2-0.1,0.3-0.1s0.2-0.1,0.3-0.3v-0.1c0-0.1,0-0.1-0.1-0.2
			c0-0.1-0.1-0.1-0.1-0.1c0.1-0.1,0.1-0.2,0.1-0.3c0.1,0,0.3,0,0.4-0.1c0.3-0.2,0.4-0.6,0.2-0.9v-0.1c0.7-1.3,1.6-2.5,2.6-3.6
			c0,0.1,0.1,0.1,0.1,0.1h0.6c-3.7,3.7-5.4,9.2-6.2,14.3c-0.3,0.1-0.6,0.2-0.9,0.4c-0.1-0.1-0.1-0.2-0.1-0.3c-0.1-1,0-1.9,0.1-2.9
			h0.2C109.4,203.8,109.6,203.7,109.8,203.4C109.8,203.5,109.8,203.5,109.8,203.4L109.8,203.4z"/>
		<path class="st4" d="M109.1,202.8l0.3,0.1h0.1c0.2,0.1,0.3,0.4,0.2,0.6c-0.1,0.2-0.3,0.3-0.5,0.2H109c0-0.2,0-0.3,0.1-0.5
			L109.1,202.8L109.1,202.8z"/>
		<path class="st4" d="M110.6,198.5c0.3-0.2,0.7-0.4,1.1-0.6c-0.8,1.8-1.4,3.6-1.9,5.5c0-0.2-0.1-0.4-0.3-0.4l-0.3-0.1
			C109.5,201.4,109.9,199.9,110.6,198.5z M109.8,206.6v0.3c-0.1,0.5-0.6,0.4-0.9,0.1C109.2,206.8,109.5,206.7,109.8,206.6
			L109.8,206.6z M110.6,172.9c-0.1,0.1-0.2,0.3-0.2,0.4c-0.5-1.7-0.9-3.4-1-5.1c0-0.5,0.7-0.5,0.7,0c0.4,2.6,1.5,5,2,7.6
			c-0.1,0.2-0.2,0.3-0.3,0.5c-0.3-0.9-0.7-2-1-3l0.1-0.2c0-0.2-0.1-0.2-0.2-0.2H110.6z"/>
		<path class="st6" d="M116.1,192.3c1.9,0.1,3.9-0.6,5.8-0.6c2.3,0.2,4.5,0.4,6.7,0.8c-2.7,0.9-4.5,3.9-6,6.3
			c-2,3.1-3.8,5.9-4.4,9.5c-2.1-1.8-5-2.5-7.6-1.8c-0.2,0.1-0.4,0.1-0.6,0.2C110.7,201.5,112.3,196,116.1,192.3z"/>
		<path class="st4" d="M110.6,172.9h0.1v0.1l-0.3,0.6c0-0.1-0.1-0.2-0.1-0.3C110.4,173.2,110.5,173,110.6,172.9L110.6,172.9z
			 M110.8,173.3c-0.1,0.3-0.2,0.5-0.2,0.8c0-0.1-0.1-0.3-0.1-0.4s0.2-0.4,0.3-0.6V173.3z"/>
		<path class="st4" d="M111.8,176.3l-0.1,0.3c-0.1,0-0.2-0.1-0.2-0.2l-0.9-2.4c0.1-0.3,0.2-0.5,0.2-0.8
			C111.1,174.3,111.5,175.3,111.8,176.3L111.8,176.3z"/>
		<path class="st4" d="M110.9,173.1l-0.1,0.2c0-0.1,0-0.2-0.1-0.2V173C110.8,172.9,110.9,173,110.9,173.1L110.9,173.1z M111.9,197.4
			c-0.1,0.1-0.1,0.3-0.2,0.5c-0.4,0.1-0.8,0.3-1.1,0.6c0.1-0.2,0.2-0.4,0.3-0.7C111.2,197.7,111.6,197.5,111.9,197.4L111.9,197.4z
			 M111.7,197.1h0.3l-0.2,0.3c-0.4,0.1-0.7,0.2-1,0.4l0.3-0.6C111.4,197.1,111.6,197.1,111.7,197.1L111.7,197.1z"/>
		<path class="st4" d="M111.5,196.7c0.2,0.1,0.4,0.1,0.6,0.2h0.1c0,0.1-0.1,0.2-0.1,0.3c-0.1-0.1-0.2-0.1-0.3-0.1
			c-0.2,0-0.4,0.1-0.6,0.2C111.2,197,111.4,196.9,111.5,196.7L111.5,196.7z M119.5,163.7c-1.1,4.9-4.1,9.7-7.1,13.7
			c-0.1,0.2-0.4,0.2-0.6,0.1c-0.2-0.1-0.3-0.4-0.2-0.6l0.1-0.1h0.2c0.2,0,0.3-0.2,0.3-0.4c0-0.1-0.1-0.3-0.1-0.4
			c2.4-4.6,5-8.8,6.7-13.8V162c0.1,0.2,0.2,0.5,0.3,0.8S119.3,163.4,119.5,163.7L119.5,163.7z M112.2,195.4l0.2,0.1
			c0.1,0,0.3,0.1,0.3,0.2l-0.5,1.1h-0.1c-0.2-0.1-0.4-0.1-0.6-0.2l0.3-0.6C111.9,195.8,112.1,195.7,112.2,195.4L112.2,195.4z"/>
		<path class="st4" d="M111.8,176.3c0.1-0.2,0.2-0.3,0.3-0.5c0.1,0.1,0.1,0.3,0.1,0.4c0,0.2-0.1,0.4-0.3,0.4h-0.2L111.8,176.3
			L111.8,176.3z M112.1,197.1c0.1,0,0.1,0.1,0.1,0.1c0,0.1,0.1,0.1,0.1,0.2v0.1c0,0.1-0.1,0.2-0.3,0.3c-0.1,0-0.2,0.1-0.3,0.1
			c0.1-0.2,0.1-0.3,0.2-0.5L112.1,197.1L112.1,197.1z M116.4,216.3c0.1,0,0.2,0.1,0.1,0.2v0.1c0,0-0.1,0-0.1,0.1l-0.2,0.1
			c-1.4,0.2-2.8,0-4.1-0.6c-0.1,0-0.1-0.1-0.1-0.1c-0.1-0.1,0-0.3,0.1-0.4h0.6c0.9,0.3,1.8,0.5,2.8,0.6
			C115.8,216.4,116.1,216.4,116.4,216.3L116.4,216.3z M115.3,191.5c0.1-0.2,0.4-0.2,0.5-0.1c-0.2,0.1-0.4,0.3-0.5,0.5
			c-0.1,0.1-0.1,0.2,0,0.3c-1,1.1-1.9,2.3-2.6,3.6c-0.1-0.1-0.2-0.2-0.3-0.2l-0.2-0.1C113,194,114.1,192.7,115.3,191.5z
			 M112.8,195.8c0.1,0.1,0.1,0.2,0.1,0.4c0,0.4-0.3,0.7-0.7,0.7L112.8,195.8L112.8,195.8z"/>
		<path class="st4" d="M117.4,215.5l-0.4,0.4c-0.2,0.1-0.3,0.3-0.3,0.5c-0.4,0.1-0.7,0.1-1.1,0.1c-0.9-0.1-1.9-0.3-2.8-0.6
			c1-0.1,2.1,0.1,3.1,0C116.4,215.8,117,215.7,117.4,215.5z M118.6,180.1c0.2,2.1-0.1,4.3-0.9,6.2c0,0,0-0.1-0.1-0.1
			c0-0.1-0.1-0.1-0.1-0.1c0.5-2.4,1.5-8.2-1-8.6c-2.3-0.2-1.1,8.1,0.6,9v0.2c0,0,0,0.1,0.1,0.1c0.1,0.1,0.2,0.1,0.2,0
			c0.1-0.1,0.1-0.3,0.2-0.4c0.1,0.4-0.3,0.7-0.7,0.6c-1.6-0.2-2-3.5-2.1-4.7c-0.2-1.4-0.7-4.4,1-5.2S118.4,178.9,118.6,180.1z"/>
		<path class="st4" d="M117,186.4c-1.6-0.8-2.9-9.2-0.6-9c2.5,0.4,1.5,6.2,1,8.6c-0.1-0.1-0.2-0.3-0.3-0.4
			C117.1,185.9,117.1,186.2,117,186.4L117,186.4z M117.5,182.7c0-0.5,0-5.8-1.3-4.7c-0.9,0.8-0.4,3.5-0.2,4.5
			c0.2,1.1,0.6,2.2,1.2,3.1C117.2,184.6,117.4,183.7,117.5,182.7L117.5,182.7z M115.6,192c-0.1,0-0.1,0.1-0.1,0.1
			c-0.1-0.1-0.1-0.2,0-0.3c0.1-0.2,0.3-0.3,0.5-0.5c0.2,0.1,0.3,0.2,0.3,0.4C116,191.8,115.8,191.9,115.6,192z"/>
		<path class="st4" d="M115.6,192c0.2-0.1,0.4-0.2,0.6-0.2c0.1,0.2,0,0.3-0.1,0.4h-0.6l-0.1-0.1C115.4,192.1,115.5,192,115.6,192
			L115.6,192z M116.6,216.2c0,0.1-0.1,0.2-0.1,0.3l0,0c0-0.1-0.1-0.1-0.2-0.1h-0.9C115.9,216.3,116.3,216.3,116.6,216.2z
			 M117.5,182.7c-0.1,1-0.3,1.9-0.3,2.9c-0.6-1-1-2-1.2-3.1c-0.2-0.9-0.8-3.7,0.2-4.5C117.5,176.9,117.5,182.2,117.5,182.7
			L117.5,182.7z"/>
		<path class="st4" d="M116,191.4c1.5-1.1,4.3-0.9,5.9-0.9c2.4-0.1,4.9,0.5,7,1.7c0.1,0.1,0,0.3,0,0.3h-0.3
			c-2.2-0.4-4.5-0.7-6.7-0.8c-1.9,0-3.9,0.7-5.8,0.6c0.1-0.1,0.2-0.3,0.1-0.4C116.3,191.6,116.2,191.4,116,191.4L116,191.4z
			 M116.8,221.7c-0.2-0.1-0.4-0.2-0.5-0.3c-0.2-0.2-0.1-0.5,0.2-0.4l0.4,0.1v0.3C116.8,221.5,116.8,221.6,116.8,221.7L116.8,221.7z"
			/>
		<path class="st4" d="M116.8,221.8c-0.1,1.3-0.1,2.7,0,4c0.2,1.7,0.4,3.5,0.9,5.2c-0.2,0.2-0.4,0.5-0.6,0.8c-1-4.6-1.6-9.6-0.4-14
			c0.1,0.4,0.2,0.8,0.4,1.2c-0.1,0.7-0.2,1.5-0.2,2.2l-0.4-0.1c-0.3-0.1-0.4,0.3-0.2,0.4C116.5,221.6,116.6,221.7,116.8,221.8
			L116.8,221.8z M116.5,216.8C116.6,216.8,116.6,216.7,116.5,216.8C116.5,216.7,116.5,216.8,116.5,216.8h-0.2H116.5z"/>
		<path class="st4" d="M116.6,216.7c0,0.3,0,0.7,0.1,1c-1.1,4.5-0.6,9.4,0.4,14c-0.2,0.3-0.2,0.7-0.2,1c0.1,0.2,0.3,0.4,0.5,0.4
			c0.2,1,0.5,2,0.8,3h-0.1l-0.8-0.2C115.6,230.1,114,222.4,116.6,216.7z M116.6,216.6v0.1h-0.1C116.5,216.7,116.5,216.6,116.6,216.6
			z"/>
		<path class="st4" d="M117,216.6c-0.1,0.4-0.2,0.8-0.3,1.1c-0.1-0.3-0.1-0.7-0.1-1C116.8,216.7,116.9,216.7,117,216.6L117,216.6z"
			/>
		<path class="st4" d="M116.6,216.7v-0.2l0.1-0.3c0.2,0,0.4-0.1,0.6-0.2c0.1,0,0.1,0.1,0.1,0.2s-0.1,0.2-0.1,0.3l-0.4,0.1
			C116.9,216.7,116.7,216.7,116.6,216.7L116.6,216.7z M116.7,216.1l-0.1,0.3C116.6,216.4,116.6,216.3,116.7,216.1z"/>
		<path class="st4" d="M117.4,216.5l-0.3,2.4c-0.2-0.4-0.3-0.8-0.4-1.2c0.1-0.4,0.2-0.7,0.3-1.1L117.4,216.5L117.4,216.5z
			 M117,215.7c0.1-0.1,0.3-0.4,0.4-0.4h0.1c0.5-0.2,0.9-0.6,1.2-1l0.9-0.8l0.1-0.1c-0.1,0.3-0.2,0.7-0.4,1c-0.4,0.8-1.2,1.3-2,1.6
			l-0.1-0.1c-0.1-0.1-0.3-0.1-0.4,0.1l-0.1,0.1h-0.1C116.7,216,116.8,215.8,117,215.7L117,215.7z"/>
		<path class="st5" d="M119.8,223.2c-0.7,1,0.3,4.2,0.7,5.4c-0.8,0.4-1.6,1-2.3,1.6l-0.6,0.6c-0.4-1.7-0.7-3.4-0.9-5.2
			c-0.1-1.3-0.1-2.7,0-4C117.7,222.3,118.8,222.8,119.8,223.2L119.8,223.2z"/>
		<path class="st4" d="M116.9,216c0.1-0.1,0.3-0.1,0.4,0.1c-0.2,0.1-0.4,0.1-0.6,0.2L116.9,216C116.9,216.1,116.9,216,116.9,216
			L116.9,216z M125.1,224.2c7.5,2.7,15,5.4,22.6,8c-0.1,0.2-0.2,0.4-0.4,0.5l-2-0.7c-5.3-1.8-10.6-3.7-15.9-5.6
			c-0.2-0.1-0.4-0.1-0.5-0.2c-0.2-0.2-0.4-0.3-0.6-0.5c-0.2-0.2-0.5-0.1-0.6,0.1c-2.4-0.8-4.8-1.4-7.2-2.3V223
			c0-0.1-0.1-0.1-0.1-0.1c-0.2,0-0.5,0.1-0.6,0.3c-1.1-0.4-2.1-0.9-3-1.5v-0.3C119.3,222.8,122.5,223.1,125.1,224.2z"/>
		<path class="st4" d="M143.5,230l4.7,1.7c-0.1,0.1-0.3,0.3-0.4,0.5c-7.6-2.5-15.1-5.3-22.6-8c-2.7-1-6-1.3-8.4-2.7v-0.3
			C125.6,224.3,134.7,226.9,143.5,230z M117.5,233.1c-0.2,0-0.4-0.2-0.5-0.4c-0.1-0.3,0-0.7,0.2-1
			C117.2,232.2,117.3,232.7,117.5,233.1z"/>
		<path class="st11" d="M117.1,218.9c0.9,1.8,3.2,2.4,5.6,2.8c7.3,1.3,14.5,4.7,21.6,6.9c12.5,4,25.5,9.3,38.7,10.4
			c-3.5,0.2-7.1,0.7-10.5,1.1c-7.9-2.5-15.8-5.4-23.6-8.1c0-0.1,0.1-0.2,0.1-0.3c0.1-0.1,0.1-0.3,0-0.4c-0.1-0.1-0.3-0.1-0.4,0
			c-0.1,0.1-0.2,0.2-0.3,0.4l-4.8-1.7c-8.8-3.1-17.9-5.7-26.6-8.9C116.9,220.4,117,219.6,117.1,218.9L117.1,218.9z"/>
		<path class="st4" d="M117.3,186.6c0.1-0.2,0.1-0.4,0.1-0.6l0.1,0.1l0.1,0.1c0,0.2-0.1,0.3-0.2,0.4H117.3c-0.1,0-0.2-0.1-0.2-0.1
			v-0.1L117.3,186.6L117.3,186.6z"/>
		<path class="st4" d="M117.1,185.6l0.2,0.4c0,0.2-0.1,0.4-0.1,0.6l-0.2-0.1C117.1,186.2,117.1,185.9,117.1,185.6z M118.2,232.8
			l-0.6,0.3h-0.2l-0.3-1.5c0.1-0.3,0.3-0.6,0.6-0.8c0.1,0.3,0.1,0.6,0.2,0.9S118.1,232.5,118.2,232.8z"/>
		<path class="st12" d="M117.5,216.5c-0.9,4.6,5.8,4.1,9,5.3c4.7,1.6,9,3.5,13.7,4.9c17.2,5,33.8,12.6,52.1,12v0.2
			c-3.1-0.2-6.1-0.1-9.2,0.1c-13.3-1.1-26.2-6.4-38.7-10.3c-7.1-2.2-14.3-5.6-21.6-6.9c-2.4-0.4-4.6-1-5.6-2.8l0.3-2.4
			C117.4,216.5,117.5,216.5,117.5,216.5L117.5,216.5z"/>
		<path class="st4" d="M118.1,236.2c-0.1,0.1-0.2,0.2-0.2,0.4h-0.4c-0.1-0.2-0.1-0.4-0.2-0.6L118.1,236.2L118.1,236.2z"/>
		<path class="st12" d="M117.5,216.4c0.3-0.1,0.6-0.2,0.8-0.4c0.1,0,0.2-0.1,0.2-0.1c0.2-0.1,0.5-0.3,0.7-0.5c0.5-0.4,0.8-0.9,1-1.5
			c9.3,2.1,18.5,6,28,8.3c5.1,1.2,10.6,2.1,15.7,3.9c4.4,1.4,8.6,3.9,13.2,5.5c2.5,0.9,10.3,2.1,13.9,4.4c0.6,0.6,1.1,1.2,1.7,1.7
			c0.1,0.2,0.1,0.3,0.1,0.5H192c-1.2-3.6-9.7-4.8-12.5-5.5c-5.6-1.3-10.5-4.4-15.8-6.2c-6.6-2.2-13.5-3.1-20.1-4.9
			c-7.2-2-14.2-4.8-21.5-6.6c-2.1-0.5-1.7,0.8-3.1,1.5c-3.5,1.8,6.4,4.2,6.5,4.2c7.1,1.5,14.3,5,21.3,7.2
			c15.1,4.8,29.4,9.4,45.3,10.3c0,0.1,0.1,0.3,0.1,0.4c-18.3,0.6-34.9-7-52.1-12c-4.7-1.4-9-3.2-13.7-4.9
			C123.2,220.6,116.6,221.1,117.5,216.4L117.5,216.4z"/>
		<path class="st4" d="M117.3,216.1c0.8-0.2,1.6-0.8,2-1.6c0.2-0.3,0.3-0.7,0.4-1c0.2-0.2,0.5-0.3,0.7-0.2c0,0.2-0.1,0.5-0.2,0.7
			c-0.2,0.6-0.6,1.1-1,1.5c-0.2,0.2-0.4,0.3-0.7,0.5c-0.1,0-0.2,0.1-0.2,0.1c-0.3,0.2-0.5,0.3-0.8,0.4c0,0-0.1,0.1-0.1,0
			s0.1-0.2,0.1-0.3C117.4,216.1,117.4,216.1,117.3,216.1L117.3,216.1z M118.2,258.4c0.2-0.2,0.3-0.6,0.1-0.8c0.1-1,0.2-1.8,0.3-2.4
			c0.1-0.7,0.2-1.5,0.3-2.2c-0.3,2.5-0.4,5.1-0.3,7.6c-0.2,0-0.3,0.1-0.4,0.3c-0.1,0.3-0.1,0.6,0.2,0.7l0.3,0.1
			c0.3,2.1,1.1,3.6,2.6,3.9c0,0.1,0.2,0.2,0.3,0.2c0,0.2,0,0.3-0.2,0.4c-3.1,0.8-4-2.8-3.9-7.7h0.3
			C117.9,258.5,118,258.5,118.2,258.4L118.2,258.4z M118.2,232.7c0.3,1.1,0.6,2.2,0.8,3.2c-0.3-0.1-0.6,0-0.8,0.1
			c-0.3-1-0.5-2-0.8-3h0.2C117.8,233,118,232.9,118.2,232.7z"/>
		<path class="st4" d="M117.5,257.4h0.3c0.2,0,0.3,0.1,0.4,0.2c-0.1,0.3-0.1,0.6-0.1,0.9c-0.1,0.1-0.2,0.1-0.3,0.1h-0.3V258
			L117.5,257.4L117.5,257.4z M117.5,216.5c0.3-0.1,0.6-0.2,0.8-0.4C118,216.2,117.8,216.4,117.5,216.5z M117.9,236.6
			c-0.1,0.1-0.1,0.3,0,0.5h-0.2c-0.1-0.1-0.1-0.2-0.1-0.3l-0.1-0.2H117.9L117.9,236.6z"/>
		<path class="st4" d="M120.6,239.1c0.1,0.1,0.2,0.1,0.2,0.1c-0.4,3.1-0.9,6.1-1.4,9.1c-0.3,1.5-0.5,3.1-0.7,4.6
			c-0.1,0.7-0.2,1.5-0.3,2.2c-0.1,0.6-0.2,1.4-0.3,2.4c-0.1-0.1-0.3-0.2-0.4-0.2h-0.3C117.9,250.3,120.1,241.5,120.6,239.1
			L120.6,239.1z"/>
		<path class="st10" d="M117.5,215.4c0.4-0.4,0.8-0.7,1.2-1C118.4,214.8,118,215.1,117.5,215.4z"/>
		<path class="st4" d="M118.1,237.2c-0.1,0-0.3-0.1-0.4-0.2h0.2C117.9,237.1,118,237.2,118.1,237.2z M118.3,230.3
			c0.7-0.7,1.4-1.2,2.3-1.6c0.1,0.1,0.1,0.3,0.1,0.4c0,0.1,0,0.1,0.1,0.2c-1,0.7-2,1.6-2.8,2.5c-0.1-0.3-0.2-0.6-0.2-0.9
			C117.9,230.7,118.1,230.5,118.3,230.3L118.3,230.3z"/>
		<path class="st4" d="M118.2,236.3C118.2,236.4,118.3,236.4,118.2,236.3c0.2,0.1,0.2,0.2,0.2,0.3c0,0.2-0.1,0.4-0.3,0.5h-0.2
			c-0.1-0.1-0.1-0.3,0-0.5C117.9,236.5,118,236.4,118.2,236.3z"/>
		<path class="st4" d="M118,237.2c-0.1-0.1-0.2-0.1-0.2-0.2h0.2c0.2-0.1,0.3-0.3,0.3-0.5c0-0.1-0.1-0.2-0.1-0.2v-0.1
			c0.2-0.2,0.5-0.3,0.8-0.2c0.1,0.1,0.1,0.2,0.1,0.3c0.1,0.2,0,0.4-0.1,0.6C118.7,237.2,118.3,237.4,118,237.2L118,237.2z
			 M118,208.9c0.3,0.3,0.6,0.6,0.8,0.9c-0.4,0.1-1-0.1-0.9-0.6C117.9,209,118,209,118,208.9L118,208.9z"/>
		<path class="st4" d="M119.3,209.5c-0.1,0.2-0.3,0.3-0.5,0.3c-0.3-0.3-0.5-0.6-0.8-0.9c0-0.2,0.1-0.4,0.1-0.6
			c0.2,0.2,0.4,0.3,0.6,0.5C118.9,209,119.1,209.2,119.3,209.5L119.3,209.5z M120.8,229.3c0.2,0.2,0.4,0.3,0.7,0.2
			c-0.6,0.6-1.2,1.1-1.8,1.6c-0.5,0.5-1,1.2-1.5,1.7c-0.1-0.4-0.1-0.7-0.2-1C118.8,230.9,119.7,230.1,120.8,229.3z M118.9,236.9
			c0.6,0.5,1.3,1,2,1.5c-0.1,0-0.2,0.1-0.2,0.1c0,0.1-0.1,0.3-0.1,0.5c-0.9-0.5-1.7-1.1-2.5-1.8
			C118.4,237.3,118.8,237.2,118.9,236.9z M118.1,208.2c0.7-3.6,2.4-6.5,4.4-9.5c1.5-2.3,3.2-5.4,6-6.3h0.1c0.1,0,0.3,0.3,0.1,0.4
			c-0.8,0.6-1.6,1.3-2.3,2.1c-0.4,0.2-0.8,0.5-1.1,0.9v0.2h0.1c-1.8,2.2-3.3,4.6-4.4,7.2c-0.1,0.1-0.2,0.3-0.2,0.5
			c-0.7,1.7-1.3,3.6-1.6,5.4v0.1c-0.2-0.3-0.4-0.5-0.6-0.7C118.5,208.5,118.3,208.4,118.1,208.2L118.1,208.2z M118.2,236.2
			c0,0,0.1,0.2,0,0.1V236.2C118.1,236.2,118.2,236.1,118.2,236.2z M118.7,261.7l-0.3-0.1c-0.1-0.1-0.2-0.2-0.3-0.4
			c-0.1-0.3,0.1-0.6,0.4-0.6C118.6,261,118.6,261.3,118.7,261.7L118.7,261.7z M118.3,257.7c0.2,0.3,0.1,0.6-0.2,0.8
			C118.1,258.2,118.2,257.9,118.3,257.7z M118.8,161.9l-0.3-0.9c-0.1-0.3,0.3-0.5,0.5-0.2l0.5,0.9h-0.3
			C118.9,161.7,118.8,161.8,118.8,161.9z M118.5,216c0.2-0.1,0.5-0.3,0.7-0.5C118.9,215.7,118.7,215.9,118.5,216z"/>
		<path class="st13" d="M119.5,248.3c0.6-3.8,1.3-7.2,1.6-8.9c4.2,2.5,9,4,13.9,4.4c-2.4,3.1-3.5,6.8-5.4,10.2
			c-1.7,2.7-3.6,5.2-5.7,7.5c-1.7,0.1-3.3-0.2-4.8-1c-0.1-0.1-0.3-0.1-0.4,0c-0.1-2.5,0-5.1,0.3-7.6
			C119,251.4,119.2,249.8,119.5,248.3L119.5,248.3z"/>
		<path class="st4" d="M122.9,262.6c-1.5,0-2.9-0.3-4.3-0.9c-0.1-0.4-0.1-0.7-0.1-1.1c0.1-0.1,0.3-0.1,0.4,0c1.5,0.7,3.2,1,4.8,1
			c-0.1,0.2-0.3,0.3-0.4,0.5S123.1,262.4,122.9,262.6z"/>
		<path class="st11" d="M119.6,231.1c0.6-0.5,1.2-1,1.8-1.6c0.2-0.1,0.4-0.3,0.4-0.5c-0.2-1.9-1.2-3.5-1.3-5.4
			c2.3,0.9,4.8,1.5,7.2,2.3c-0.2,0.2-0.2,0.6,0,0.8c2.2,2.4,3.5,5.2,2.2,8.4c-0.5,1.2-1.2,2.3-2.2,3.2c-0.6,0.5-1,0.8-1.2,1.5
			c0,0.2,0.1,0.5,0.3,0.5v0.1c-2.7-1-5.3-2.4-7.5-4.2l-0.2-0.2c-0.3-1.1-0.5-2.1-0.8-3.2C118.7,232.2,119.2,231.7,119.6,231.1
			L119.6,231.1z"/>
		<path class="st4" d="M118.8,161.9c0-0.1,0.1-0.2,0.3-0.2c0.2,0.4,0.4,0.8,0.5,1.1c0,0.3,0,0.5-0.1,0.8c-0.1-0.3-0.2-0.6-0.4-0.9
			C119,162.4,118.9,162.1,118.8,161.9L118.8,161.9z"/>
		<path class="st12" d="M122.2,215.1c7.3,1.9,14.3,4.6,21.5,6.6c6.7,1.8,13.6,2.7,20.2,4.9c5.4,1.8,10.3,4.9,15.8,6.2
			c2.7,0.6,11.3,1.9,12.5,5.5c-15.9-0.9-30.1-5.5-45.3-10.3c-6.9-2.2-14.2-5.7-21.3-7.2c-0.1,0-10-2.4-6.5-4.2
			C120.4,215.9,120.1,214.6,122.2,215.1L122.2,215.1z"/>
		<path class="st4" d="M119.3,236.2c2.2,1.8,4.8,3.3,7.5,4.2c6.7,2.5,14.4,2.4,21.8,1.2c0.2,0.1,0.4,0,0.6-0.1
			c4.5-0.8,8.9-2.1,13.1-3.7l0.6,0.2c-10.9,5.1-30.5,7.8-41.8,0.6c0-0.1-0.1-0.1-0.2-0.1c-0.7-0.4-1.3-0.9-1.9-1.5
			c0.1-0.2,0.2-0.4,0.1-0.6c-0.1-0.1-0.1-0.2-0.1-0.3C119.1,236,119.2,236.1,119.3,236.2L119.3,236.2z M119.4,161.7
			c0.1,0.2,0.2,0.3,0.3,0.5v0.1c0,0.2-0.1,0.4-0.1,0.6c-0.2-0.4-0.3-0.8-0.5-1.1C119.1,161.7,119.3,161.7,119.4,161.7z M120.3,211.7
			c0.1,0.5,0.2,1.1,0.1,1.6c-0.3-0.1-0.6,0-0.7,0.2c0.3-1.3,0-2.7-0.9-3.7c0.2,0,0.4-0.1,0.5-0.3
			C119.8,210.1,120.1,210.9,120.3,211.7L120.3,211.7z"/>
		<path class="st11" d="M120.9,203.9c0,0.1,0.1,0.3,0.2,0.3c9.6,4.6,20.1,7,30.2,9.8c6.4,1.8,12.3,4.4,18.5,6.4
			c2.7,0.9,5.5,2.5,8.5,2.3c3.2,2.8,6.2,5.8,9,9c0.9,1,1.7,2.1,2.6,3.1c-0.8-0.4-1.6-0.7-2.5-0.9c-6.1-1.9-11.8-3.2-17.8-5.9
			c-7.6-3.4-15.5-4.7-23.5-7c-8.6-2.5-17.1-5.6-25.8-7.8c0-0.5,0-1.1-0.1-1.6c-0.2-0.8-0.5-1.6-1-2.2v-0.1
			C119.7,207.4,120.2,205.6,120.9,203.9L120.9,203.9z"/>
		<path class="st4" d="M119.7,162.2c-0.1-0.1-0.2-0.3-0.3-0.5C119.6,161.8,119.7,162,119.7,162.2z M127.6,178.4l-0.3,0.6
			c-3.7-4.3-5.9-10.1-7.9-15.4c0-0.2,0.1-0.5,0.1-0.8C122,168.2,124.3,173.5,127.6,178.4L127.6,178.4z"/>
		<path class="st4" d="M119.6,162.2c2.8,5.1,5.7,10.3,8.2,15.5c-0.1,0.2-0.3,0.4-0.3,0.6c-3.2-4.9-5.6-10.2-8-15.5
			C119.6,162.7,119.6,162.5,119.6,162.2z M120.1,223.4c-0.4,0.9,0.6,3.6,1,5.1c-0.2,0-0.4,0.1-0.5,0.2c-0.4-1.3-1.4-4.4-0.7-5.4
			C119.9,223.3,120,223.4,120.1,223.4L120.1,223.4z M119.2,215.5c0.4-0.4,0.8-1,1-1.5C120,214.5,119.7,215.1,119.2,215.5z"/>
		<path class="st4" d="M119.9,223.2c0.1-0.2,0.3-0.3,0.6-0.3c0.1,0,0.1,0,0.1,0.1v0.5c-0.1,0-0.3-0.1-0.4-0.2
			C120,223.4,119.9,223.3,119.9,223.2L119.9,223.2z"/>
		<path class="st4" d="M120.5,223.6c0.1,1.9,1.1,3.5,1.3,5.4c0,0.2-0.1,0.5-0.4,0.5c0.1-0.1,0.2-0.2,0.2-0.3
			c0.1-0.1,0.1-0.2,0.1-0.4c-0.1-0.3-0.3-0.5-0.6-0.4c-0.3-1.5-1.4-4.2-1-5.1C120.3,223.4,120.4,223.5,120.5,223.6z"/>
		<path class="st12" d="M146.2,221.1c8,2.3,15.9,3.6,23.5,7c6,2.7,11.6,4,17.8,5.9c0.8,0.2,1.7,0.5,2.5,0.9c0.4,0.4,0.7,0.9,1.1,1.3
			c-3.6-2.4-11.4-3.6-13.9-4.4c-4.6-1.6-8.8-4.1-13.2-5.5c-5.1-1.9-10.7-2.8-15.7-3.9c-9.5-2.3-18.7-6.2-28-8.3
			c0.1-0.2,0.2-0.4,0.2-0.7C129.1,215.5,137.6,218.6,146.2,221.1z"/>
		<path class="st4" d="M121,239.3c-0.3,1.8-1,5.2-1.6,9c0.5-3.1,1-6.1,1.4-9.1C120.9,239.3,120.9,239.3,121,239.3L121,239.3z"/>
		<path class="st4" d="M120.6,239.2c0.1-0.2,0.1-0.3,0.1-0.5c0-0.1,0.1-0.2,0.2-0.1c0,0.1,0.1,0.1,0.2,0.1c-0.1,0.2-0.1,0.5-0.1,0.7
			c-0.1,0-0.1-0.1-0.2-0.1L120.6,239.2L120.6,239.2z M121.2,228.5c0,0.2,0,0.3,0.1,0.5c-0.2,0.1-0.3,0.2-0.5,0.3
			c0-0.1-0.1-0.1-0.1-0.2c-0.1-0.1-0.1-0.3-0.1-0.4C120.8,228.6,121,228.5,121.2,228.5L121.2,228.5z"/>
		<path class="st4" d="M121.2,228.5c0.1,0,0.2,0,0.3,0.1c0.2,0.1,0.3,0.4,0.2,0.7c-0.1,0.1-0.1,0.2-0.2,0.3c-0.3,0.1-0.5,0-0.7-0.2
			c0.2-0.1,0.3-0.2,0.5-0.3C121.2,228.8,121.2,228.6,121.2,228.5z M121.1,238.6c-0.1,0-0.1-0.1-0.2-0.1
			C121,238.4,121.1,238.5,121.1,238.6z M120.9,203.9c0-0.2,0.1-0.4,0.2-0.5C121.1,203.6,121,203.7,120.9,203.9z"/>
		<path class="st12" d="M122.9,262.6c-0.6,0.8-1.2,1.7-1.7,2.6c-0.1,0.1-0.1,0.3,0,0.4c-1.4-0.3-2.2-1.8-2.6-3.9
			C120,262.3,121.5,262.6,122.9,262.6z"/>
		<path class="st4" d="M149,212.7c0,0.1,0.1,0.2,0.1,0.2c0.1,0.1,0.4,0.1,0.5,0c2.2,0.6,4.3,1.2,6.5,1.8c4.7,1.4,9.3,3.5,14,5.2
			c2.2,0.7,6.3,2.6,8.1,2.6c0,0.1,0,0.2,0.1,0.2l0.1,0.1c-2.9,0.2-5.7-1.4-8.5-2.3c-6.2-2.1-12.2-4.7-18.5-6.4
			c-10.1-2.8-20.7-5.2-30.2-9.8c-0.1-0.1-0.2-0.2-0.2-0.3c0.1-0.1,0.1-0.3,0.2-0.5c0.1-0.1,0.2-0.1,0.4-0.1c6,1.6,11.9,3.6,17.8,5.6
			c0,0,0,0.1,0.1,0.1c0.1,0.2,0.4,0.2,0.5,0.1c3,1,6,2,9,2.8L149,212.7L149,212.7z M121.1,238.6c11.3,7.2,30.8,4.5,41.8-0.6
			c0.2,0,0.3,0.1,0.5,0.2l-0.1,0.1c-0.2,0.1-0.5,0.2-0.7,0.4v-0.1c0-0.1-0.3-0.1-0.3,0v0.3c-4.6,2.2-9.5,3.7-14.5,4.5
			c0,0,0-0.1-0.1-0.1c-0.1-0.2-0.4-0.3-0.6-0.2c-0.1,0.1-0.2,0.2-0.2,0.4c-3.6,0.5-7.3,0.7-11,0.3c0-0.1,0.1-0.2,0.1-0.2
			c0.2-0.3-0.3-0.5-0.5-0.4s-0.3,0.4-0.4,0.5c-4.9-0.4-9.6-1.9-13.9-4.4C121.1,239.1,121.2,238.8,121.1,238.6L121.1,238.6z
			 M127.7,258.4c-0.1,0.4,0.2,0.8,0.6,0.8c-1.6,2.7-3.8,5-6.5,6.7h-0.3c0-0.1-0.1-0.2-0.2-0.2h-0.1c-0.1-0.1-0.1-0.3,0-0.4
			c0.5-0.9,1.1-1.7,1.7-2.6c0.8,0.1,1.5-0.3,1.9-1c0-0.1,0-0.2-0.1-0.2h-0.9c2-2.4,4.2-4.7,5.7-7.5c1.9-3.4,2.9-7.1,5.4-10.2h0.4
			c-2.9,3.8-3.8,8.9-6.4,12.9c-0.2,0.3-0.4,0.5-0.6,0.8C127.9,257.7,127.7,258,127.7,258.4C127.7,258.3,127.7,258.4,127.7,258.4
			L127.7,258.4z"/>
		<path class="st9" d="M125.6,196.2c2.2,0.2,4.5-0.5,6.7-0.5c1.9,0.2,3.7,0.3,5.6,0.2c1.9,4.2,1.2,8.3,1.5,12.9v0.1
			c-5.9-2-11.8-4-17.8-5.6c-0.1,0-0.3,0-0.4,0.1C122.3,200.8,123.8,198.4,125.6,196.2z"/>
		<path class="st4" d="M121.6,265.9c-0.1,0-0.3-0.1-0.3-0.2h0.1C121.5,265.6,121.6,265.7,121.6,265.9z M123.8,261.5h0.9
			c0.1,0,0.1,0.1,0.1,0.2c-0.4,0.7-1.1,1.1-1.9,1c0.1-0.2,0.3-0.4,0.4-0.6C123.5,261.9,123.7,261.7,123.8,261.5z M125.5,196.2
			c-0.1-0.1-0.2-0.1-0.1-0.2c0.3-0.4,0.7-0.7,1.1-0.9c-0.2,0.3-0.5,0.5-0.7,0.9C125.7,196,125.6,196.1,125.5,196.2z"/>
		<path class="st4" d="M125.8,195.9c3-1.4,8.2-0.7,11.8-0.6c0.1,0.2,0.2,0.4,0.2,0.6c-1.9,0.1-3.7,0-5.6-0.2c-2.2,0-4.5,0.7-6.7,0.5
			C125.6,196.1,125.8,196,125.8,195.9z"/>
		<path class="st4" d="M126.6,195c1.4-0.5,2.8-0.7,4.2-0.6c2.2-0.2,4.5-0.1,6.7,0.3c-0.1,0.1-0.1,0.3,0,0.4c0.1,0.1,0.1,0.2,0.1,0.3
			c-3.6-0.1-8.8-0.8-11.8,0.6C126.1,195.6,126.3,195.3,126.6,195z M127.8,238.2c1-0.9,1.8-2,2.2-3.2c1.3-3.1,0.1-6-2.2-8.4
			c-0.2-0.2-0.2-0.6,0-0.8c0.4,0.1,0.9,0.3,1.3,0.4c2.3,2,3.4,5,2.8,8c-0.4,2-2.5,6.5-5,6c-0.2-0.1-0.4-0.3-0.3-0.5
			C126.7,239,127.1,238.7,127.8,238.2z"/>
		<path class="st11" d="M131.8,234.3c0.6-3-0.4-6-2.8-8c0.2,0,0.4,0.1,0.5,0.2c5.3,1.9,10.5,3.8,15.9,5.6c0.6,0.2,1.3,0.5,2,0.7
			c-1.7,2.8-1.3,6.4,1,8.7l0.1,0.1c-7.4,1.2-15.1,1.3-21.8-1.2v-0.1C129.4,240.8,131.4,236.2,131.8,234.3z"/>
		<path class="st4" d="M127.8,179.6c-0.3,0-0.6-0.3-0.5-0.6C127.5,179.2,127.6,179.4,127.8,179.6z"/>
		<path class="st4" d="M128.3,178.4l0.3,0.6v0.1c-0.1,0.1-0.2,0.3-0.4,0.4c-0.1,0.1-0.2,0.1-0.4,0.1c-0.2-0.2-0.4-0.4-0.5-0.6
			l0.3-0.6c0.1,0.2,0.2,0.4,0.4,0.5C128,178.7,128.1,178.6,128.3,178.4L128.3,178.4z M138.7,127.7c5.6,2,12.3-1.6,13.8-7.2
			c0.1-0.2,0.2-0.3,0.4-0.2c-0.1,0-0.2,0.2,0,0.3c0.1,0.1,0.2,0.2,0.3,0.2c-0.2,5.3-5.7,8.3-10.5,8.7c-6.9,0.7-11.8-5.1-15-10.3V119
			c0-0.2-0.1-0.5-0.4-0.5c0-0.2,0.1-0.5,0.3-0.6c0.3-0.2,0.7-0.1,0.9,0.2C131.1,122.4,134,126,138.7,127.7z"/>
		<path class="st4" d="M127.5,118.6c0.2,0.1,0.3,0.4,0.2,0.6c-0.1-0.1-0.2-0.3-0.3-0.4c0-0.1-0.1-0.2-0.1-0.3
			C127.4,118.6,127.4,118.6,127.5,118.6L127.5,118.6z M127.9,177.7c0.1,0.2,0.2,0.5,0.4,0.7c-0.1,0.1-0.2,0.3-0.3,0.5
			c-0.1-0.2-0.2-0.4-0.4-0.5C127.7,178.1,127.8,177.9,127.9,177.7z M128.4,259c-0.4-0.1-0.6-0.4-0.6-0.8c0.2-0.2,0.4-0.5,0.6-0.8h1
			c-0.2,0.3-0.3,0.6-0.5,0.9S128.5,258.8,128.4,259L128.4,259z M128.3,257.5c-0.2,0.3-0.4,0.5-0.6,0.8
			C127.7,258,127.9,257.6,128.3,257.5z M129,226.2c-0.4-0.1-0.9-0.3-1.3-0.4c0.1-0.2,0.4-0.2,0.6-0.1
			C128.6,225.9,128.8,226,129,226.2z M130,174.8c1.1-1.6,2.2-3.4,3.1-5.1c0-0.1,0.1-0.2,0.3-0.2v1.1c-1.3,3.1-3.2,5.3-5,7.9
			c-0.1-0.2-0.2-0.5-0.4-0.7C128.6,176.7,129.3,175.7,130,174.8L130,174.8z M128.2,179.5c0.1-0.1,0.3-0.2,0.4-0.4
			c0.1,0.4-0.4,0.9-0.8,0.5C128,179.6,128.1,179.6,128.2,179.5L128.2,179.5z"/>
		<path class="st4" d="M133.3,170.5c-0.1,0.5-0.1,1,0,1.5c-0.5,1.1-1.1,2.1-1.7,3.1c-0.9,1.4-1.9,2.8-3,4V179l-0.3-0.6
			C130.1,175.8,132,173.6,133.3,170.5z M135.3,243.9h0.4c-2.6,4.2-4.1,9.2-6.4,13.6h-1c0.2-0.3,0.4-0.5,0.6-0.8
			C131.5,252.7,132.4,247.6,135.3,243.9L135.3,243.9z M128.8,258.3c7.6,0,16.1-1.9,23.4-0.3c0.1,0.1,0.1,0.3,0.2,0.4
			c-8-1-15.9,0.6-23.9,0.7h-0.1C128.5,258.8,128.6,258.6,128.8,258.3L128.8,258.3z"/>
		<path class="st4" d="M152,257.5c0.1,0.2,0.1,0.3,0.2,0.5c-7.3-1.6-15.8,0.3-23.4,0.3c0.1-0.3,0.3-0.6,0.5-0.9
			C136.8,257.3,144.6,255.7,152,257.5z"/>
		<path class="st5" d="M146.7,243.4C146.7,243.5,146.7,243.5,146.7,243.4c1.5,4.6,3.2,9.4,5.3,14c-7.4-1.7-15.2-0.2-22.8,0
			c2.4-4.4,3.9-9.4,6.4-13.6C139.4,244.1,143.1,244,146.7,243.4z"/>
		<path class="st4" d="M133.3,169.5h0.4c0,0.5,0,0.9,0.1,1.4c-0.1,0.4-0.3,0.8-0.5,1.1c-0.1-0.5-0.1-1,0-1.5V169.5z"/>
		<path class="st4" d="M133.3,169.4V169c0-0.4,0.7-0.5,0.7-0.1c0.5,2.8,0.8,5.6,0.9,8.5l-0.6,0.6c-0.1-2.4-0.5-4.8-0.6-7.1
			c0.1-0.2,0.2-0.5,0.3-0.7c0.1-0.3-0.1-0.5-0.3-0.6C133.6,169.4,133.5,169.4,133.3,169.4L133.3,169.4z"/>
		<path class="st4" d="M134.3,178l-0.2,0.2c-0.2,0.2,0.2,0.5,0.3,0.4s0.3-0.2,0.4-0.3v0.1c-0.1,0.2-0.2,0.3-0.3,0.3
			c-0.3,0.1-0.6,0-0.7-0.3c-0.2-2.1-0.6-4.3-0.6-6.4c0.2-0.4,0.3-0.8,0.5-1.1C133.9,173.2,134.3,175.6,134.3,178z M134,170.1
			c-0.1,0.3-0.2,0.5-0.3,0.7c0-0.5-0.1-0.9-0.1-1.4C133.9,169.5,134.1,169.8,134,170.1L134,170.1z"/>
		<path class="st4" d="M134.3,178v0.4c0.2-0.1,0.4-0.3,0.5-0.5v0.4c-0.1,0.1-0.3,0.2-0.4,0.3c-0.2,0.1-0.5-0.2-0.3-0.4L134.3,178z"
			/>
		<path class="st4" d="M134.4,178l0.6-0.6v0.5c-0.2,0.2-0.4,0.3-0.5,0.5L134.4,178z"/>
		<path class="st4" d="M144.7,159.3c-0.1,1.2-0.1,2.4,0,3.5c-1.6,6.2-5.2,12.2-9.8,15.4v-0.4C139.5,174.2,143.4,166.4,144.7,159.3z"
			/>
		<path class="st4" d="M144.7,159.2v0.1c-1.3,7.1-5.2,14.9-9.8,18.6v-0.5c6.8-7,10.2-16.6,9.6-26.3c0-0.2,0.4-0.3,0.4-0.1
			c0.8,3,0.9,6,0.3,9.1l-0.1-0.9C145.1,159,144.8,159,144.7,159.2L144.7,159.2z M134.9,243.7c0.1-0.2,0.2-0.3,0.4-0.5
			s0.6,0.1,0.5,0.4c-0.1,0.1-0.1,0.1-0.1,0.2h-0.4C135.2,243.8,135,243.8,134.9,243.7L134.9,243.7z M137.3,186.8
			c-0.2,0-0.4,0.1-0.4,0.3V187c0-0.1,0.1-0.2,0.2-0.2H137.3z"/>
		<path class="st4" d="M137.1,187.3l0.4,0.1c4.5,6.8,10.3,12.7,14.2,19.9c-0.1,0.1-0.1,0.2-0.1,0.3c0.1,0.2,0.2,0.4,0.4,0.5
			c-0.1,0-0.2-0.1-0.2-0.1c-0.1-0.1-0.2-0.3-0.3-0.4v-0.1c-2.4-3.6-5.2-6.9-7.9-10.4c0.2,0,0.3-0.1,0.5-0.2c0.3-0.2,0.1-0.7-0.2-0.7
			h-1.1c-2.2-2.8-4.1-5.7-5.8-8.9V187C136.9,187.2,137,187.3,137.1,187.3L137.1,187.3z"/>
		<path class="st4" d="M137,187.3c-0.1,0-0.1-0.1-0.1-0.2c0.1-0.2,0.2-0.3,0.4-0.3c0.1,0,0.2,0,0.3,0.1s0.1,0.2,0.2,0.2l0.5,0.5
			c-0.3-0.1-0.5-0.2-0.8-0.3H137L137,187.3z"/>
		<path class="st4" d="M155,190.7c-5.6-1.6-11.4-2.8-17.1-3.6c-0.1-0.1-0.1-0.2-0.2-0.2c-0.1-0.1-0.2-0.1-0.3-0.1
			c5.8,0,11.6,1.1,17.1,3L155,190.7L155,190.7z M138.2,195.3h-0.6c0-0.1-0.1-0.2-0.1-0.3c-0.1-0.1-0.1-0.3,0-0.4
			c0.4,0.1,0.7,0.2,1.1,0.3l0.3,0.3l0.1,0.1c0,0.2-0.1,0.4-0.3,0.4h-0.1C138.5,195.6,138.4,195.4,138.2,195.3L138.2,195.3z
			 M152.1,207.6c0-0.1-0.1-0.2-0.1-0.2c-0.1-0.1-0.2-0.1-0.3,0c-3.9-7.3-9.7-13.1-14.2-19.9c0.3,0.1,0.5,0.2,0.8,0.3
			C143.4,193.6,149,200.4,152.1,207.6L152.1,207.6z"/>
		<path class="st4" d="M137.5,194.5c0.1-0.2,0.3-0.2,0.5-0.1s0.4,0.3,0.6,0.5C138.2,194.8,137.9,194.7,137.5,194.5z M138.3,195.3
			c0.1,0.1,0.2,0.3,0.3,0.4c-0.2,0-0.4,0.1-0.7,0.1c-0.1-0.2-0.1-0.4-0.2-0.6L138.3,195.3L138.3,195.3z M155,190.8
			c0,0.1,0.1,0.1,0.1,0.2l0.1,0.1c0.2,0.1,0.4,0.1,0.5-0.1c2,0.6,3.9,1.3,5.8,2.2v0.1c0.1,0.2,0.4,0.3,0.6,0.2l0.1,0.1v0.4
			c-3.7-1.4-7.5-2.6-11.4-3.6c-4.1-1-8.5-1.4-12.6-2.7c-0.1-0.2-0.3-0.4-0.5-0.5C143.7,188,149.4,189.2,155,190.8L155,190.8z
			 M140.2,197.4c1,2.9,1.3,6.1,0.7,9.1c-0.2,0.1-0.4,0.2-0.6,0.4c-0.2,0.2-0.2,0.4,0,0.6c0.1,0.1,0.2,0.1,0.3,0.2
			c-0.1,0.4-0.3,0.9-0.6,1.3l-0.1,0.1l-0.6-0.2v-0.1c-0.2-4.6,0.4-8.7-1.5-12.9c0.2,0,0.4-0.1,0.7-0.1l0.3,0.6c-0.1,0-0.1,0-0.2,0.1
			c-0.1,0-0.1,0.1-0.1,0.1c-0.1,0.2,0,0.3,0.1,0.4l0.6,0.3C139.5,197.4,139.9,197.4,140.2,197.4L140.2,197.4z"/>
		<path class="st4" d="M138.6,195.7c0.2-0.1,0.3-0.2,0.3-0.4c0.3,0.2,0.5,0.5,0.6,0.8c-0.2,0-0.5,0.1-0.7,0.2
			C138.8,196.1,138.7,195.9,138.6,195.7L138.6,195.7z M139.3,197.2l-0.6-0.3c-0.1,0-0.1-0.1-0.1-0.1c-0.1-0.2,0-0.3,0.1-0.4
			c0.1,0,0.1-0.1,0.2-0.1c0.1,0.1,0.1,0.2,0.2,0.4C139.1,196.9,139.1,197.1,139.3,197.2L139.3,197.2z M138.9,195.2l-0.3-0.3
			C138.8,194.9,138.9,195.1,138.9,195.2z"/>
		<path class="st4" d="M139.6,196.1l0.3,0.6H139c0-0.1-0.1-0.2-0.2-0.4C139.1,196.2,139.3,196.1,139.6,196.1L139.6,196.1z
			 M140,196.7c0.1,0.2,0.2,0.4,0.3,0.7c-0.3,0-0.7,0-1-0.1c-0.1-0.2-0.1-0.4-0.2-0.5L140,196.7L140,196.7z M139.8,209.1
			c-0.2,0.1-0.4-0.1-0.5-0.2l0.6,0.2H139.8z"/>
		<path class="st4" d="M142.8,196.3l0.4,0.5c-1.1,0-2.2,0-3.2-0.1l-0.3-0.6h1.5C141.6,196.2,142.1,196.3,142.8,196.3L142.8,196.3z
			 M144.2,179.1c0.2,1.7,0.5,6.1-1.2,7.2c-0.1,0.1-0.2,0-0.3,0V186l0.1,0.2c1-1.5,1.9-10.9-1.5-9.6c-2.6,0.8-0.7,10.7,1,9l0.3,0.4
			l-0.1,0.1c-0.3,0.4-0.8,0.4-1.1,0.2c-0.7-0.6-1.2-1.5-1.3-2.4c-0.6-2-1.2-5.8,0.5-7.4C142.6,174.6,144,177.6,144.2,179.1z"/>
		<path class="st11" d="M140.6,207.7c1.3,0.8,3.2,0.4,4.6,0.5c1.8,0.1,3.7,0.5,5.6,0.5c0.3,0,0.6-0.2,0.7-0.5v-0.1V208
			c0-0.1,0-0.2-0.1-0.3c0.1,0.1,0.2,0.3,0.3,0.4c0,0.1,0.1,0.1,0.2,0.1c0.8,1.3,1.8,2.5,2.8,3.6c0.8,0.9,1.6,1.8,2.5,2.7
			c-1.8-0.7-3.6-1.3-5.5-1.8c-0.6-0.2-1.3-0.4-1.9-0.6c0.2-1.1,0.1-2.2-0.1-3.2c0-0.1-0.1-0.2-0.2-0.2c-0.1-0.1-0.3,0-0.4,0.2
			c-0.3,1-0.4,2-0.2,2.9c-3-0.8-6-1.8-9-2.8l0.1-0.1C140.3,208.6,140.5,208.2,140.6,207.7L140.6,207.7z"/>
		<path class="st4" d="M143.2,196.8c0.1,0.1,0.2,0.3,0.3,0.4c-0.7,0.2-1.3,0.2-2,0.2h-1.3c-0.1-0.2-0.2-0.5-0.3-0.7
			C141,196.8,142.1,196.8,143.2,196.8z M142.4,185.6c-1.6,1.7-3.5-8.2-1-9c3.4-1.3,2.5,8.2,1.5,9.6l-0.1-0.2L142.4,185.6
			L142.4,185.6z M142.7,185.9v-0.3v-0.1c0.4-2.4,1.4-8.8-1-8.4c-2.1,0.3-1.2,8.1,0.7,8.2c0.1,0,0.3,0.1,0.4,0.2
			C142.8,185.6,142.7,185.8,142.7,185.9L142.7,185.9z M140.6,207.7c-0.1,0-0.2-0.1-0.3-0.2c-0.2-0.2-0.2-0.4,0-0.6
			c0.2-0.2,0.4-0.3,0.6-0.4l-0.2,0.7C140.7,207.4,140.7,207.6,140.6,207.7z"/>
		<path class="st14" d="M143.5,197.3c2.7,3.4,5.5,6.8,7.9,10.4c-0.1-0.1-0.2-0.2-0.4-0.3c-1.9-0.5-3.8-0.8-5.8-0.9
			c-1.3-0.1-3.1-0.6-4.3,0c0.6-3,0.4-6.2-0.7-9.1h1.3C142.2,197.5,142.8,197.4,143.5,197.3L143.5,197.3z"/>
		<path class="st4" d="M140.9,206.5c1.2-0.5,3-0.1,4.3,0c1.9,0.1,3.9,0.4,5.8,0.9c0.2,0,0.3,0.1,0.4,0.3l0.1,0.1
			c0.1,0.1,0.1,0.2,0.1,0.3v0.2c-0.1,0.3-0.4,0.5-0.7,0.5c-1.9,0-3.7-0.3-5.6-0.5c-1.4-0.1-3.4,0.2-4.6-0.5c0.1-0.1,0.1-0.3,0.1-0.5
			L140.9,206.5L140.9,206.5z M142.8,185.4c-0.1-0.1-0.2-0.2-0.4-0.2c-1.9-0.1-2.7-7.9-0.7-8.2C144.1,176.6,143.1,183,142.8,185.4
			L142.8,185.4z"/>
		<path class="st4" d="M142.8,185.4v0.1c0,0.1,0,0.2-0.1,0.3C142.8,185.7,142.8,185.6,142.8,185.4L142.8,185.4z M143.1,196.9
			l-0.4-0.5h1.1c0.3,0,0.5,0.5,0.2,0.7c-0.2,0.1-0.4,0.2-0.6,0.2C143.3,197.1,143.2,197,143.1,196.9z"/>
		<path class="st10" d="M150.9,190.4c3.8,1,7.6,2.1,11.3,3.5c-0.4,2.4-0.3,5-0.6,7.4v0.1c0,0.2,0.2,0.4,0.5,0.4
			c0,0.1,0.1,0.3,0.3,0.3c1.7,0.4,3.1,1.8,3.5,3.5c-0.1,0-0.2,0.1-0.2,0.2c-0.2,0.3-0.1,0.7,0.2,0.8c4.5,2.3,7.8,6.3,11,10
			c2.7,3.2,5.4,6.1,7.2,9.8c-1.6-1.6-3.4-3.1-5.3-4.4c-0.1-0.1-0.2-0.1-0.3,0c-6.9-1.6-13.5-4.7-20.2-7.2v-0.2
			c-0.7-1.3-1.7-2.6-2.8-3.6c-1.1-1.2-2.1-2.3-3.2-3.5c-3.2-7.2-8.7-13.9-13.9-19.9C142.4,189,146.7,189.3,150.9,190.4L150.9,190.4z
			"/>
		<path class="st4" d="M144.7,162.8c-0.1-1.2-0.1-2.4,0-3.5v-0.1c0.1-0.2,0.4-0.2,0.4,0l0.1,0.9c-0.1,0.4-0.1,0.9-0.2,1.3
			S144.8,162.4,144.7,162.8L144.7,162.8z M153.4,186.2c0.6,1.2,1,2.5,1.6,3.8c-0.2-0.1-0.4-0.2-0.6-0.2c-4.4-8-9.2-17.5-9.7-26.9
			c0.1-0.4,0.2-0.9,0.3-1.4C145.6,170,149.9,178.7,153.4,186.2L153.4,186.2z"/>
		<path class="st4" d="M155.5,190.1c-0.2-0.1-0.3-0.1-0.5-0.1c-0.6-1.2-1-2.5-1.6-3.8c-3.5-7.5-7.7-16.2-8.4-24.8
			c0.1-0.4,0.2-0.9,0.2-1.3C147,170.7,151.5,180.2,155.5,190.1L155.5,190.1z M147.6,243.4c-0.3,0.1-0.6,0.1-1,0.1
			c0-0.2,0.1-0.3,0.2-0.4c0.2-0.1,0.5-0.1,0.6,0.2C147.5,243.3,147.6,243.3,147.6,243.4L147.6,243.4z"/>
		<path class="st4" d="M156.6,265c0,0.4,0.3,0.8,0.6,1c-0.3,0.1-0.7,0.1-0.9-0.2c-1.5-2.3-2.8-4.8-4-7.3h0.5c0.2,0,0.4-0.1,0.4-0.3
			c0-0.2-0.1-0.3-0.2-0.4c-0.4-0.1-0.7-0.2-1.1-0.3c-2.1-4.6-3.8-9.5-5.3-13.9v-0.1c0.3-0.1,0.6-0.1,1-0.1c3.1,5.5,5.8,11.2,8.1,17
			h-0.2c-0.2,0.1-0.3,0.4-0.1,0.5l0.6,0.2c0.5,1.2,0.9,2.3,1.3,3.4h-0.4c-0.1,0-0.3,0.1-0.3,0.2C156.7,264.8,156.6,264.9,156.6,265
			L156.6,265z M148.3,233c-1.2,2.6-1.5,5.1,0.8,7.6c0.2,0.2,0.2,0.6,0,0.8l-0.6,0.1l-0.1-0.1c-2.3-2.3-2.7-5.9-1-8.7l0.4,0.1
			L148.3,233L148.3,233z"/>
		<path class="st4" d="M147.9,232.2c0.1,0.1,0.3,0.1,0.4,0.1c-0.1,0.2-0.3,0.4-0.4,0.6l-0.4-0.1
			C147.6,232.6,147.7,232.4,147.9,232.2z"/>
		<path class="st4" d="M148.3,231.7l0.4,0.1c-0.1,0.2-0.3,0.3-0.4,0.5c-0.1,0-0.3-0.1-0.4-0.1C148,232,148.1,231.9,148.3,231.7z
			 M148.3,232.3l0.4,0.1l-0.3,0.6l-0.5-0.1C148,232.7,148.1,232.5,148.3,232.3L148.3,232.3z"/>
		<path class="st11" d="M160.7,237.1c0.5,0.2,1.1,0.4,1.6,0.6c-4.3,1.6-8.7,2.8-13.1,3.6c0.2-0.2,0.2-0.5,0-0.8
			c-2.3-2.5-2.1-5-0.8-7.6C152.5,234.3,156.7,235.6,160.7,237.1z"/>
		<path class="st4" d="M148.3,231.7c0.1-0.1,0.2-0.3,0.3-0.4c0.1-0.1,0.3-0.1,0.4,0c0.1,0.1,0.2,0.3,0.1,0.4c0,0.1-0.1,0.2-0.1,0.3
			c-0.1-0.1-0.2-0.1-0.3-0.1L148.3,231.7z"/>
		<path class="st4" d="M148.6,231.8c0.1,0,0.2,0.1,0.3,0.1l-0.3,0.5l-0.4-0.1C148.4,232.2,148.5,232,148.6,231.8z M157,235.2
			c4.8,1.5,10.1,4.4,15.1,5.1c-0.1,0-0.1,0.1-0.1,0.2c-2.1-0.1-4.1-0.6-6.1-1.3c-0.1-0.2-0.3-0.4-0.4-0.5s-0.1-0.1-0.2-0.1
			s-0.3,0.2-0.2,0.3c-0.6-0.2-1.1-0.4-1.7-0.6c0.2-0.3,0-0.8-0.4-0.6l-0.6,0.2c-0.5-0.2-1.1-0.4-1.6-0.6c-4-1.6-8.2-2.8-12.3-4.1
			l0.3-0.6C151.4,233.4,154.2,234.3,157,235.2L157,235.2z M148.6,241.6l0.6-0.1C149,241.6,148.8,241.6,148.6,241.6z M149.3,148.8
			c-0.2-0.1-0.4-0.3-0.6-0.4c-0.1-0.1-0.1-0.1,0-0.2c0.2,0,0.5,0.1,0.7,0.2c0.2,0.1,0.3,0.2,0.5,0.3l-0.1,0.1L149.3,148.8
			L149.3,148.8z"/>
		<path class="st4" d="M148.7,148.1c0.1-0.1,0.2-0.1,0.2,0c0.2,0.1,0.3,0.2,0.5,0.3c-0.2-0.1-0.5-0.1-0.7-0.2V148.1z M172.6,240.1
			h-0.2c-0.1,0-0.2,0-0.3,0.1c-5-0.7-10.4-3.6-15.1-5.1c-2.8-0.9-5.5-1.8-8.3-2.7l0.3-0.5C156.8,234.8,164.6,237.6,172.6,240.1z
			 M149,211.9c-0.2-1-0.1-2,0.2-2.9c0-0.1,0.1-0.2,0.2-0.2c0.1-0.1,0.3,0,0.4,0.2c0.3,1,0.3,2.1,0.1,3.2l-0.4-0.1L149,211.9z"/>
		<path class="st4" d="M149.9,212.2c0,0.2-0.1,0.4-0.1,0.5s0,0.1-0.1,0.1l-0.6-0.2c-0.1-0.2-0.1-0.5-0.1-0.8l0.5,0.2L149.9,212.2
			L149.9,212.2z M149.7,212.8c0,0-0.1,0.1-0.2,0.1c-0.2,0.1-0.4,0-0.4-0.2L149.7,212.8L149.7,212.8z M163.7,168.1
			c1.8,6,2.7,14.7,0.2,21.2l-0.9,0.3c5.4-13.8-1.6-33-13.7-40.8c0.1,0,0.3,0,0.4-0.1C156.8,152.9,161.5,160.4,163.7,168.1
			L163.7,168.1z"/>
		<path class="st4" d="M149.9,212.2c0.6,0.2,1.3,0.4,1.9,0.6c1.8,0.5,3.7,1.1,5.5,1.8c0.2,0.2,0.4,0.4,0.7,0.6
			c0.1,0.1,0.3,0,0.3-0.1V215c6.7,2.5,13.3,5.6,20.2,7.2c-0.2,0.1-0.3,0.2-0.3,0.4c-1.8,0.1-5.9-1.9-8.1-2.6
			c-4.7-1.7-9.4-3.8-14-5.2c-2.1-0.6-4.3-1.2-6.5-1.8c0.1,0,0.1-0.1,0.1-0.1C149.8,212.5,149.8,212.4,149.9,212.2L149.9,212.2z
			 M162.4,162.7c0.2,0.7,0.3,1.3,0.5,1.9c0.1,0.2,0.3,0.4,0.5,0.4c1.6,3.5,2.6,7.2,3,11c-0.1,0-0.2,0.1-0.4,0.1
			c-0.1,0.1-0.2,0.2-0.2,0.4s0.2,0.4,0.4,0.4h0.2c0.4,4.1-0.2,8.2-1.7,12.1c-0.3,0.1-0.6,0.2-0.8,0.4c2.5-6.5,1.5-15.2-0.2-21.2
			c-2.3-7.7-6.9-15.2-13.9-19.4l0.1-0.1C155.3,152.1,159.6,157,162.4,162.7L162.4,162.7z M151.7,207.3c0.1-0.1,0.2,0,0.3,0.1
			l0.2,0.2h0.1v0.1c0.1,0.1,0.1,0.3,0,0.4c0,0.1-0.2,0.2-0.3,0.1c-0.1-0.2-0.2-0.4-0.4-0.5v-0.1
			C151.5,207.5,151.6,207.4,151.7,207.3C151.7,207.4,151.7,207.4,151.7,207.3L151.7,207.3z"/>
		<path class="st4" d="M158,214.8c-0.3-0.1-0.5-0.2-0.8-0.3c-0.9-0.9-1.7-1.8-2.5-2.7c-1-1.1-1.9-2.3-2.8-3.6c0.1,0,0.2,0,0.3-0.1
			C154,210.5,156.3,212.6,158,214.8L158,214.8z M152,257.5c0.4,0.1,0.7,0.1,1.1,0.3c0.1,0.1,0.2,0.2,0.2,0.4s-0.2,0.3-0.4,0.3h-0.5
			c-0.1-0.1-0.1-0.3-0.2-0.4S152.1,257.7,152,257.5L152,257.5z"/>
		<path class="st4" d="M155.4,211.1c1.1,1,2.1,2.2,2.8,3.6v0.2l-0.3-0.1c-1.8-2.2-4-4.3-5.8-6.7c0.1-0.1,0.1-0.3,0-0.4v-0.1
			C153.3,208.8,154.4,209.9,155.4,211.1z M153.1,120.6v0.2c-0.1-0.1-0.2-0.1-0.3-0.2c-0.2-0.1-0.1-0.3,0-0.3
			C153,120.3,153.1,120.4,153.1,120.6C153.1,120.6,153.2,120.6,153.1,120.6z"/>
		<path class="st4" d="M167.2,141.5c0,0.1-0.1,0.2-0.1,0.3c0-0.1-0.1-0.2-0.1-0.3l-0.1-0.1c-0.4-6.7-7.8-17.5-13.6-20.9
			c0-0.1-0.1-0.2-0.3-0.2c0.1-0.1,0.1-0.1,0.2,0C159.6,123.8,167.8,133.6,167.2,141.5L167.2,141.5z"/>
		<path class="st4" d="M153.1,120.5c5.8,3.4,13.2,14.2,13.6,20.8c-0.1-0.2-0.3-0.4-0.5-0.5c-2.2-7.6-6.4-15.5-13.1-20
			C153.2,120.8,153.2,120.7,153.1,120.5C153.2,120.6,153.2,120.6,153.1,120.5z M155.5,190.1c0.1,0.2,0.2,0.4,0.2,0.6
			c0.1,0.1,0.1,0.2,0,0.3c-0.2-0.1-0.5-0.2-0.7-0.2l-0.6-1c0.2,0,0.4,0.1,0.6,0.2C155.1,190,155.3,190,155.5,190.1L155.5,190.1z"/>
		<path class="st4" d="M155.7,191l-0.1,0.1c-0.2,0.1-0.4,0.1-0.5-0.1c-0.1-0.1-0.1-0.2-0.1-0.2C155.2,190.8,155.5,190.9,155.7,191
			L155.7,191z M156,261.2l-0.6-0.2c-0.2-0.1-0.1-0.4,0.1-0.5h0.2c0.1,0.1,0.1,0.2,0.1,0.3C155.9,260.9,156,261,156,261.2L156,261.2z
			"/>
		<path class="st13" d="M162.1,238.8c-0.7,4.4-0.2,9,0,13.4c0.1,2.5,0,5-0.3,7.5c-2,0.6-4.2,0-6.1,0.7c-2.3-5.8-5-11.5-8.1-17
			C152.7,242.5,157.5,241,162.1,238.8L162.1,238.8z"/>
		<path class="st4" d="M161.6,192.7c0,0-0.1,0.1,0,0.1c-0.1,0.1-0.1,0.2,0,0.4c-1.9-0.8-3.8-1.6-5.8-2.2c0.1-0.1,0.1-0.2,0-0.3
			c-0.1-0.2-0.2-0.4-0.2-0.6C157.6,190.9,159.7,191.7,161.6,192.7z M161.9,259.8c0,0.1-0.1,0.3-0.1,0.4c-1.7,0.7-4.2,0.5-5.9,0.5
			c0-0.1-0.1-0.2-0.1-0.3C157.6,259.7,159.9,260.3,161.9,259.8z"/>
		<path class="st4" d="M161.7,260.2v0.5c-1.8,0.8-3.8,1-5.7,0.5c0-0.1-0.1-0.3-0.2-0.4C157.6,260.8,160,260.9,161.7,260.2z"/>
		<path class="st12" d="M161.8,260.7c-0.1,1.4-0.4,2.8-0.6,4.2c-0.7,0-1.3,0.1-2,0.1c-0.6-0.1-1.2-0.2-1.8-0.4
			c-0.4-1.1-0.9-2.3-1.3-3.4C157.9,261.7,160,261.5,161.8,260.7L161.8,260.7z"/>
		<path class="st4" d="M157.4,266c-0.4-0.2-0.6-0.6-0.6-1v-0.2c0-0.1,0.1-0.3,0.3-0.3h0.4c0.1,0.2,0.2,0.4,0.2,0.6v0.1
			C157.7,265.6,157.6,265.9,157.4,266z M166.5,141.9c0.1,0.1,0.3,0.1,0.5,0c0,0.1-0.1,0.2-0.1,0.3c-0.2,0.1-0.4,0.1-0.6,0
			c-2.5-2-9.2-6.1-7.7,0.7c0.5,2.1,1.2,4.1,2,6.1c1.8,5,2.5,10.3,3.4,15.6c0,0.3-0.2,0.6-0.5,0.6c-0.3-0.8-0.6-1.5-1-2.2v-0.1
			c-1.1-4.5-1.5-9.2-3-13.6c-1.3-3.9-2.9-7.8-2.3-12c0.1-0.2,0.3-0.4,0.6-0.4c3.3,0.3,6.3,1.7,8.6,4.1c0.1,0.3,0.1,0.5,0.2,0.7
			C166.5,141.7,166.5,141.8,166.5,141.9L166.5,141.9z M158.3,214.9c0,0.2-0.2,0.3-0.4,0.2c-0.2-0.2-0.5-0.4-0.7-0.6
			c0.3,0.1,0.5,0.2,0.8,0.3L158.3,214.9L158.3,214.9z"/>
		<path class="st4" d="M159,265c0.7,0,1.4-0.1,2-0.1v0.3c-1.1,0.4-2.3,0.5-3.5,0.1v-0.1c-0.1-0.2-0.1-0.4-0.2-0.6
			C157.9,264.8,158.5,264.9,159,265L159,265z"/>
		<path class="st4" d="M161,265.2v0.3c-1,0.4-2.7,1-3.7,0.4c0.2-0.1,0.4-0.4,0.3-0.6C158.7,265.6,159.9,265.6,161,265.2L161,265.2z"
			/>
		<path class="st7" d="M166.9,142.1l0.4-0.1v0.1c-0.1,0.1,0,0.3,0.1,0.3c12.2,8.7,23.5,19.9,28.1,34.5c-3.1-2.6-7.9-4-11.5-5h-0.1
			c-0.2,0-0.4,0.2-0.4,0.4c-0.1,0.1-0.2,0.2-0.1,0.4c1.9,6.6,5.8,12.2,7,19c-2.5-0.9-4.5-2-7.3-2.5s-6.5-1.9-9.2-0.9
			c-0.1,0-0.2,0.1-0.2,0.2v0.2c0,1.7,0.3,3.4,0.8,5.1c0.3,1.5,0.5,3.1,0.4,4.7c-1-1-3.1-1.4-4.3-1.8c-2.4-0.9-4.7-2.4-7.4-2.3v-0.5
			c0.1-0.2,0-0.4-0.1-0.5l-0.6-0.3c0.6-0.8,1.1-1.6,1.5-2.5c3.8-1.2,9-4.8,8.5-9.1c-0.3-3-2.6-6.8-6-5.5c-0.4-3.8-1.4-7.5-3-11
			c0.3,0,0.5-0.3,0.5-0.6c-0.9-5.2-1.6-10.6-3.4-15.6c-0.8-2-1.5-4-2-6.1c-1.5-6.7,5.2-2.7,7.7-0.7
			C166.5,142.3,166.7,142.2,166.9,142.1L166.9,142.1z"/>
		<path class="st4" d="M161.6,265.2c0.1-0.1,0.1-0.2,0-0.3c0.7-1.6,1.1-3.3,1.2-5.1c0,0,0.1-0.1,0-0.2c0-0.1,0.1-0.3,0-0.4
			c0.3,0.1,0.6,0.2,0.8,0.4c-0.1,2.2-0.9,4.4-2.2,6.1c-0.2,0.3-0.5,0-0.5-0.2c0.1,0,0.3-0.1,0.4-0.2
			C161.5,265.3,161.6,265.2,161.6,265.2L161.6,265.2z"/>
		<path class="st4" d="M161.2,264.8h0.3c0.1,0,0.1,0,0.2,0.1c0,0.1-0.1,0.2-0.2,0.4c-0.1,0.1-0.3,0.1-0.4,0.2v-0.3
			C161.1,265,161.1,264.9,161.2,264.8L161.2,264.8z"/>
		<path class="st4" d="M161.8,260.7c0.4-0.2,0.8-0.5,1.1-0.8v-0.1c-0.1,1.8-0.6,3.5-1.2,5.1c0-0.1-0.1-0.1-0.2-0.1h-0.3
			C161.4,263.4,161.6,262.1,161.8,260.7z M161.7,265c0,0.1,0,0.2-0.1,0.2l-0.1,0.1C161.5,265.2,161.6,265.1,161.7,265
			C161.6,265,161.7,265,161.7,265L161.7,265z M162.5,193.2l-0.1,0.1c0,0.1-0.1,0.1-0.2,0.2l-0.6-0.3c-0.1-0.1-0.1-0.2,0-0.4
			c0,0-0.1-0.2,0-0.1s0.3,0.2,0.4,0.2L162.5,193.2L162.5,193.2z M162.1,193.5c-0.2,0.1-0.5-0.1-0.6-0.3L162.1,193.5z M162.8,195.2
			c0.2,0.1,0.4,0.1,0.6,0.2c0.2,2,0,4-0.6,5.9h-0.4c-0.2,0.1-0.4,0.4-0.3,0.6H162c-0.2,0-0.4-0.3-0.3-0.5c0.3-2.4,0.2-5,0.6-7.4
			l0.5,0.1v0.4c-0.1,0-0.2,0.1-0.2,0.2C162.5,194.9,162.5,195.1,162.8,195.2C162.7,195.2,162.7,195.2,162.8,195.2L162.8,195.2z
			 M162.6,190.8c0.2,0.2,0.4,0.2,0.6,0.1h0.1c-0.3,0.7-0.7,1.4-1.2,2c-0.1-0.1-0.3-0.1-0.4-0.2C162,192.1,162.3,191.4,162.6,190.8
			L162.6,190.8z"/>
		<path class="st4" d="M161.9,259.7c0.2-0.1,0.5-0.2,0.7-0.2h0.1c0.1,0,0.2,0.1,0.2,0.2v0.3c-0.3,0.3-0.7,0.6-1.1,0.8v-0.5
			C161.8,260.1,161.8,259.9,161.9,259.7L161.9,259.7z"/>
		<path class="st4" d="M162.2,252.2c-0.2-4.4-0.7-9.1,0-13.4c0.1,0,0.1-0.1,0.2-0.1c0,2.6,0.3,5.1,0.3,7.7c0,3.4,0.5,7.9,0.3,11.9
			h-0.3c-0.2,0-0.3,0.1-0.4,0.3c-0.1,0.2,0,0.5,0.3,0.5c0.1,0,0.2,0.1,0.4,0.2c0,0.1-0.1,0.3,0,0.4v-0.1c-0.1-0.1-0.2-0.1-0.3,0
			c-0.2,0.1-0.5,0.2-0.7,0.2C162.1,257.3,162.2,254.8,162.2,252.2L162.2,252.2z M162.1,201.9v-0.3c0.1-0.2,0.3-0.4,0.6-0.3h0.1
			c0,0.1,0,0.1-0.1,0.2c0,0.1-0.1,0.2-0.1,0.2C162.4,201.8,162.3,201.9,162.1,201.9L162.1,201.9z M163.3,190.9
			c0.2-0.1,0.5-0.1,0.7-0.2c-0.4,0.9-0.9,1.7-1.5,2.5l-0.4-0.2L163.3,190.9L163.3,190.9z"/>
		<path class="st4" d="M162.5,201.7c2.1,0.3,3.7,1.9,3.9,4c-0.2-0.1-0.4-0.1-0.6,0c-0.4-1.7-1.7-3.1-3.5-3.5c-0.1,0-0.3-0.1-0.3-0.3
			C162.3,201.9,162.4,201.8,162.5,201.7z M162.2,238.8v-0.3c0-0.1,0.3-0.1,0.3,0v0.1L162.2,238.8L162.2,238.8L162.2,238.8z
			 M162.3,193.3c0-0.1,0.1-0.1,0.1-0.1l0.6,0.3h0.1c0.1,0.1,0.1,0.4,0,0.5v-0.4c0-0.1-0.1-0.2-0.2-0.3c-0.2-0.1-0.4,0-0.6,0.1
			l-0.1-0.1C162.2,193.4,162.3,193.4,162.3,193.3z"/>
		<path class="st4" d="M162.3,193.9v-0.3v-0.1c0.1-0.1,0.1-0.2,0.2-0.2c0.2-0.1,0.4,0.1,0.5,0.3v0.4c-0.1,0.1-0.2,0.1-0.4,0.1h-0.1
			L162.3,193.9z M162.3,237.8l0.6-0.2c0.4-0.2,0.6,0.4,0.4,0.6c-0.1-0.1-0.3-0.1-0.5-0.2L162.3,237.8L162.3,237.8z M163.8,253.8
			c0.1,1.4,0.1,3,0.1,4.5c-0.3-0.1-0.6-0.1-0.9-0.1c0.2-4-0.3-8.5-0.3-11.9c0-2.6-0.3-5.1-0.3-7.7l0.2-0.1
			C163.6,243.6,163.5,248.8,163.8,253.8L163.8,253.8z M162.9,259.2c-0.1-0.1-0.2-0.1-0.4-0.2s-0.3-0.3-0.3-0.5
			c0.1-0.2,0.2-0.3,0.4-0.3h0.3V259.2z M163.5,165.1c-0.2,0-0.4-0.1-0.5-0.4c-0.2-0.6-0.4-1.2-0.5-1.9
			C162.8,163.6,163.2,164.3,163.5,165.1L163.5,165.1z"/>
		<path class="st5" d="M163.3,238.2c0.6,0.2,1.1,0.4,1.7,0.6c0.7,2.6,1.6,5,1.9,7.7c0.1,1.3,0.2,2.7,0,4c-0.1,0.9-0.6,1.8-0.4,2.6
			c0.1,0.2,0.3,0.4,0.5,0.3c0.1,0,0.2-0.1,0.2-0.1c0.1,0.1,0.2,0.2,0.4,0.2c7.6-0.6,16,2.8,22.4,6.7c0,2.6-1.2,3.7-3.5,3.3h-2.3
			c-1.8-0.1-3.7,0-5.5-0.2c-4.7-0.6-8.6-2.4-13-4.2c-0.5-0.3-1.1-0.6-1.8-0.7c0-1.5,0-3.1-0.1-4.5c-0.3-5-0.2-10.2-1.3-15.2
			C162.8,238.5,163,238.4,163.3,238.2L163.3,238.2z"/>
		<path class="st4" d="M162.7,195.1c-0.1,0-0.2-0.1-0.2-0.2c-0.1-0.2,0-0.4,0.2-0.4V195.1L162.7,195.1z M163.1,189.6
			c-0.1,0.4-0.3,0.8-0.5,1.2c-0.1-0.1-0.1-0.2-0.2-0.3c-0.1-0.3,0.1-0.7,0.4-0.8L163.1,189.6L163.1,189.6z M162.8,201.3
			c2.3,0.5,4.3,2.2,4.2,4.7l-0.5-0.3c-0.2-2.1-1.8-3.7-3.9-4c0.1-0.1,0.1-0.1,0.1-0.2S162.8,201.4,162.8,201.3L162.8,201.3z
			 M162.8,194.1c0.1,0,0.3,0,0.4-0.1v0.4h-0.3c-0.1,0-0.1,0-0.2,0.1L162.8,194.1z"/>
		<path class="st4" d="M163.3,195.3c-0.2-0.1-0.4-0.1-0.6-0.2v-0.7c0,0,0.1,0,0.2-0.1h0.3c0.1,0.1,0.1,0.3,0.1,0.5V195.3z
			 M163.3,190.9c-0.3,0.1-0.5,0-0.7-0.1c0.2-0.4,0.3-0.8,0.5-1.2l0.9-0.3c-0.1,0.3-0.2,0.6-0.3,0.8L163.3,190.9z M162.9,259.6
			c0,0,0.1,0.1,0,0.2V259.6z M163.8,258.9c0,0.2,0,0.5-0.1,0.7c-0.3-0.2-0.5-0.3-0.8-0.4v-0.5C163.3,258.7,163.5,258.8,163.8,258.9
			L163.8,258.9z"/>
		<path class="st4" d="M163.9,258.4v0.5c-0.3-0.1-0.6-0.2-0.9-0.2v-0.4C163.3,258.3,163.6,258.3,163.9,258.4z M163.1,194.4
			c2.7-0.1,5,1.4,7.4,2.3c1.2,0.4,3.2,0.8,4.3,1.8v1.4c-0.2,0.1-0.3,0.1-0.5,0c-3.6-1.7-7.2-3.2-11-4.5c-0.1-0.2-0.1-0.3-0.1-0.5
			S163.2,194.5,163.1,194.4L163.1,194.4z M164.4,189.8c-0.1,0.3-0.3,0.6-0.4,0.9c-0.2,0.1-0.5,0.1-0.7,0.2c0.1-0.2,0.3-0.5,0.4-0.8
			C163.9,190,164.2,190,164.4,189.8L164.4,189.8z"/>
		<path class="st4" d="M164.8,188.9c-0.1,0.3-0.3,0.6-0.4,0.9c-0.2,0.1-0.5,0.2-0.7,0.3c0.1-0.3,0.2-0.5,0.3-0.8
			C164.3,189.2,164.5,189.1,164.8,188.9L164.8,188.9z M163.9,258.4c0.6,0.1,1.2,0.4,1.8,0.7c-0.2,0-0.3,0.3-0.2,0.4
			c0.5,0.4,1.1,0.8,1.6,1.1c0,0.1-0.1,0.2-0.3,0.2c-1.1-0.2-2.2-0.6-3.1-1.2c0-0.2,0.1-0.5,0.1-0.7
			C163.8,258.8,163.8,258.6,163.9,258.4z"/>
		<path class="st4" d="M171.5,183.7c1.3-3.1-1.3-8.4-5-7.3V176c3.4-1.2,5.6,2.5,6,5.5c0.5,4.4-4.7,7.9-8.5,9.1
			c0.2-0.3,0.3-0.6,0.4-0.9C167.5,188.8,170,186.6,171.5,183.7L171.5,183.7z"/>
		<path class="st4" d="M171,183.1c0.2-0.5,0.2-0.9,0.2-1.4c0-2.6-2.1-4.7-4.7-4.8v-0.4c3.7-1.1,6.4,4.2,5,7.3
			c-1.5,2.8-4.1,5-7.1,6.1c0.2-0.3,0.3-0.6,0.4-0.9C167.5,187.7,170,185.8,171,183.1L171,183.1z M165.9,239.1c1.6,2.1,2,5.6,2.4,8
			c0.1,1.1,0.5,3.7-0.1,5.2c-0.3,0.1-0.5,0.2-0.7,0.4h-0.1c-0.2,0.2-0.2,0.5,0,0.7c-0.1,0.1-0.1,0.1-0.2,0.1
			c-0.2,0.1-0.5-0.1-0.5-0.3c-0.2-0.8,0.3-1.7,0.4-2.6c0.1-1.3,0.1-2.7,0-4c-0.2-2.7-1.2-5.1-1.9-7.7c0.1,0,0.2,0.1,0.3,0.1
			C165.5,239,165.7,239.1,165.9,239.1L165.9,239.1z"/>
		<path class="st4" d="M165,238.8c0-0.1,0-0.2,0.1-0.2c0.1-0.1,0.3-0.1,0.4,0c0.2,0.2,0.3,0.3,0.4,0.5c-0.2-0.1-0.4-0.1-0.6-0.2
			C165.2,238.9,165.1,238.8,165,238.8z M166.7,259.9c0.2,0.1,0.3,0.3,0.4,0.4v0.2c-0.6-0.3-1.1-0.7-1.6-1.1c-0.1-0.1,0-0.4,0.2-0.4
			C166,259.3,166.4,259.6,166.7,259.9z M166,206.1v0.1c0.1,0.2,0.4,0.3,0.6,0.2c3.9,2.1,7.7,6.7,10.5,9.9s6.4,7,7.9,11.2l-1-1
			c-1.9-3.6-4.5-6.6-7.2-9.8c-3.3-3.7-6.5-7.7-11-10c-0.3-0.2-0.4-0.5-0.2-0.8c0.1-0.1,0.1-0.2,0.2-0.2
			C165.9,205.8,166,206,166,206.1L166,206.1z"/>
		<path class="st4" d="M178.7,263.1c1.9,0.2,3.7,0.2,5.5,0.2c0.8,0,1.5,0.1,2.3,0c2.3,0.4,3.5-0.7,3.5-3.3
			c-6.4-3.9-14.8-7.3-22.4-6.7c-0.1,0-0.3,0-0.4-0.2c0.1-0.1,0.3-0.1,0.4-0.3c3-1.3,8.7,0.7,11.7,1.6s5.6,2.5,8.4,4
			c1.1,0.6,3.3,1.1,3.9,2.2v0.6c0,0.1,0,0.1,0.1,0.1c0,0.3-0.1,0.7-0.4,0.9c-1.6,2.3-6.8,1.5-9.2,1.5c-5.5,0-10.9-1.3-15.6-4
			c-0.3-0.3-0.7-0.6-1-0.8C170,260.8,174,262.6,178.7,263.1L178.7,263.1z M167,206c0,0.2-0.1,0.3-0.3,0.4h-0.1
			c-0.2,0.1-0.5-0.1-0.5-0.3s-0.1-0.3-0.1-0.5c0.2-0.1,0.4-0.1,0.6,0L167,206L167,206z M166.6,176.9h-0.2c-0.1,0-0.3-0.1-0.4-0.2
			c-0.1-0.2,0-0.4,0.1-0.5s0.2-0.1,0.4-0.1c0,0.1,0.1,0.3,0,0.4C166.5,176.6,166.6,176.7,166.6,176.9L166.6,176.9z M166.5,141.6
			c-0.1-0.2-0.1-0.5-0.2-0.7c0.2,0.1,0.4,0.3,0.5,0.5l0.1,0.1c0.1,0.1,0.1,0.2,0.1,0.3c-0.1,0.1-0.3,0.1-0.5,0V141.6L166.5,141.6z"
			/>
		<path class="st8" d="M168,177.1c2.5,0.8,3.8,3.5,3,6c-1,2.8-3.5,4.6-6.2,5.9c1.5-3.8,2.1-7.9,1.7-12
			C167,176.9,167.5,177,168,177.1z"/>
		<path class="st4" d="M182.3,264c2.4,0,7.6,0.8,9.2-1.5c0.2-0.3,0.3-0.6,0.4-0.9h0.1c0.1,0,0.2-0.1,0.3-0.2v-0.7
			c0.1,0.3,0.2,0.6,0.2,0.9c0,3.5-6.2,3.1-8.2,3c-5.9-0.3-12.1-0.8-17.1-4v-0.2c-0.1-0.2-0.2-0.3-0.4-0.4
			C171.5,262.6,176.9,264,182.3,264L182.3,264z M167,206c4.3,2.4,7.5,6.4,10.6,10s6.8,7.4,8,12.1l-0.5-0.6
			c-1.4-4.2-5.1-8.1-7.9-11.2s-6.6-7.9-10.5-9.9C166.8,206.4,167,206.2,167,206L167,206z M195.5,176.9
			c-4.6-14.6-15.9-25.8-28.1-34.6c-0.1-0.1-0.1-0.2,0-0.3s0.2-0.1,0.3,0c13.4,7.2,25.6,20.8,29.2,35.8c0,0.2,0,0.3-0.1,0.4
			c0-0.1-0.1-0.3-0.2-0.4l-0.3-0.3C196,177.3,195.8,177.1,195.5,176.9L195.5,176.9z M168.2,252.4c-0.1,0.3-0.2,0.5-0.4,0.8
			c-0.1,0.1-0.2,0.2-0.4,0.3v-0.1c-0.1-0.2-0.1-0.5,0.1-0.7C167.7,252.6,167.9,252.5,168.2,252.4L168.2,252.4z"/>
		<path class="st4" d="M182.5,255.2c2.5,1.1,4.8,2.6,7.3,3.7c0.7,0.3,1.3,0.6,1.8,1c0,0.3,0.1,0.7,0.1,1c-0.6-1.1-2.9-1.6-3.9-2.2
			c-2.7-1.5-5.3-3.2-8.4-4s-8.7-2.9-11.7-1.6c0.2-0.2,0.4-0.5,0.4-0.8C172.4,250.7,178.8,253.6,182.5,255.2L182.5,255.2z"/>
		<path class="st10" d="M172,240.4v0.1c0,0.2,0.2,0.4,0.4,0.4c5.5,0.4,11.1,0.2,16.5-0.6c1,6.5,2.1,12.9,2.7,19.5
			c-0.6-0.4-1.2-0.7-1.8-1c-2.5-1.1-4.8-2.6-7.3-3.7c-3.7-1.6-10.1-4.4-14.3-2.8c0.6-1.5,0.2-4.1,0.1-5.2c-0.4-2.4-0.8-5.9-2.4-8
			C167.9,239.8,169.9,240.3,172,240.4L172,240.4z"/>
		<path class="st4" d="M188.9,240.3c-5.5,0.8-11,1-16.5,0.6h-0.1c-0.2,0-0.3-0.2-0.3-0.4c0.3,0,0.6,0.1,0.9,0.1
			c0.1,0,0.1-0.1,0.1-0.1c0-0.1-0.1-0.1-0.1-0.1c-0.1,0-0.2-0.1-0.3-0.1c3.4-0.4,7-0.9,10.5-1.1c1.9,0.2,3.8,0.2,5.7,0.2v0.4
			C188.8,239.8,188.9,240.1,188.9,240.3L188.9,240.3z"/>
		<path class="st4" d="M172.3,240.1h0.2c0.1,0,0.2,0.1,0.3,0.1c0.1,0,0.1,0.1,0.1,0.1c0,0.1-0.1,0.1-0.1,0.1c-0.3,0-0.6,0-0.9-0.1
			c0-0.1,0-0.2,0.1-0.2C172.2,240.2,172.2,240.1,172.3,240.1L172.3,240.1z M173.6,188.6c0,0.2,0.1,0.3,0.3,0.3h0.2
			c0.2,3.3,2.3,6.9,1.3,10.3c-0.1-0.3-0.3-0.6-0.5-0.7c0-1.6-0.1-3.1-0.4-4.7c-0.5-1.7-0.8-3.4-0.8-5.1
			C173.5,188.7,173.6,188.7,173.6,188.6z"/>
		<path class="st4" d="M173.9,188.8c-0.2,0-0.3-0.1-0.3-0.3v-0.1c0.2-0.3,0.7-0.3,0.9,0l0.1,0.1c0,0.1,0.1,0.2,0.1,0.4h-0.6
			C174,188.9,174,188.9,173.9,188.8L173.9,188.8z"/>
		<path class="st4" d="M173.7,188.5c0-0.1,0.1-0.2,0.2-0.2c2.7-1,6.6,0.4,9.2,0.9s4.9,1.6,7.3,2.5c0,0.1,0,0.1,0.1,0.1
			c0.1,0.2,0.4,0.2,0.5,0.1c0.2,0,0.3,0.2,0.3,0.3c0,0.2-0.2,0.4-0.4,0.4c-1.7-0.1-3.5-1-5.2-1.5c-1.9-0.5-3.8-0.8-5.7-0.9
			c-1.8-0.3-3.6-0.9-5.4-1.2c-0.1-0.1-0.1-0.2-0.1-0.4c0-0.1-0.1-0.1-0.1-0.1C174.3,188.3,174,188.2,173.7,188.5L173.7,188.5
			L173.7,188.5z"/>
		<path class="st4" d="M175.4,199.3c1-3.3-1.1-7-1.3-10.3h0.6c0.8,3.1,3.1,8.5,0.6,11.1c-0.1,0.2-0.4,0-0.4-0.1v-0.1
			c0.1,0,0.2-0.1,0.3-0.2C175.3,199.6,175.3,199.5,175.4,199.3L175.4,199.3z"/>
		<path class="st4" d="M174.8,198.5c0.3,0.2,0.5,0.4,0.5,0.7c-0.1,0.1-0.1,0.3-0.2,0.5c-0.1,0.1-0.2,0.2-0.3,0.2V198.5z
			 M175.3,199.3c0,0.2-0.1,0.3-0.2,0.5C175.2,199.6,175.3,199.4,175.3,199.3z M178.5,222.8l-0.1-0.1c-0.1-0.1-0.1-0.2-0.1-0.2
			c0-0.2,0.1-0.3,0.3-0.4h0.1c0.2,0.1,0.2,0.3,0.1,0.4L178.5,222.8z"/>
		<path class="st4" d="M184,226.6c0.3,0.5,0.5,1,0.7,1.5c-1.9-2-3.9-3.8-6-5.5v-0.1c0-0.2-0.1-0.3-0.3-0.4c0.1-0.1,0.2-0.1,0.3,0
			C180.6,223.4,182.4,224.9,184,226.6z"/>
		<path class="st4" d="M184.7,228.1c0.2,0.3,0.3,0.7,0.4,1c0,0.1,0.1,0.1,0.2,0.2c0.2,0.1,0.4,0,0.4-0.2c2.2,2.4,4.4,4.8,6.5,7.2
			c-0.7-0.6-1.4-1.1-2.2-1.4c-0.9-1.1-1.7-2.1-2.6-3.1c-2.8-3.2-5.8-6.1-9-9c0.1,0,0.2-0.1,0.3-0.2
			C180.8,224.2,182.8,226.1,184.7,228.1L184.7,228.1z M184.3,172.8c3.3,5.8,6.8,12,7,18.8c0,0.1-0.1,0.3-0.2,0.3
			c-0.2-0.1-0.4-0.1-0.6-0.2c-1.2-6.9-5.2-12.4-7-19c-0.1-0.1,0-0.3,0.1-0.4c0,0.1,0.1,0.2,0.2,0.2L184.3,172.8L184.3,172.8z"/>
		<path class="st4" d="M195.9,178c0,0.1,0.1,0.1,0.1,0.2c0.2,0.2,0.5,0.2,0.7,0c0,0.1,0,0.2-0.1,0.3c-0.2,0.3-0.5,0.4-0.8,0.2
			c-1.8-1.2-3.6-2.3-5.5-3.2c-2-1-4.1-1.7-6.1-2.7c-0.1-0.1-0.1-0.3-0.2-0.4c-0.1-0.1-0.3-0.2-0.5-0.1v-0.1c0-0.2,0.2-0.4,0.5-0.3
			c3.6,1,8.4,2.5,11.5,5C195.6,177.2,195.8,177.6,195.9,178z"/>
		<path class="st4" d="M184,172.3c0.1,0.1,0.1,0.3,0.2,0.4l-0.5-0.2l-0.2-0.2C183.7,172.2,183.9,172.2,184,172.3z M185.4,228.8
			c-0.2-0.2-0.4-0.5-0.7-0.7c-0.2-0.5-0.4-1-0.7-1.5c0.3,0.3,0.7,0.6,1,1C185.1,227.9,185.3,228.3,185.4,228.8L185.4,228.8z"/>
		<path class="st4" d="M185.7,229c0,0.1-0.1,0.1-0.2,0.2c-0.2,0.1-0.4,0-0.4-0.2c-0.1-0.3-0.3-0.7-0.4-1l0.7,0.7L185.7,229z
			 M192.3,238.8v0.1c-1,0.1-2,0.2-3.1,0.2c0-0.1-0.1-0.2-0.1-0.3c-0.1-0.2-0.4,0-0.4,0.1v0.1c-1.9,0-3.8,0-5.7-0.2
			C186.1,238.7,189.2,238.7,192.3,238.8L192.3,238.8z"/>
		<path class="st4" d="M185.6,228.2c0.1,0.2,0.1,0.5,0.2,0.8v0.2c-0.1-0.1-0.2-0.3-0.4-0.4c-0.1-0.4-0.2-0.8-0.3-1.1L185.6,228.2
			L185.6,228.2z M192.3,236.2c-2.1-2.4-4.3-4.9-6.5-7.2v-0.2c0-0.3-0.1-0.5-0.2-0.8c0.6,0.6,1.2,1.3,1.9,1.9
			c2.7,2.8,5.8,5.6,7.9,8.9c0.1,0.1,0.1,0.3,0,0.4c-0.1,0.2-0.3,0.3-0.6,0.2c0.1-0.1,0.1-0.3,0-0.4c-0.1-0.1-0.1-0.1-0.2-0.1H194
			c-0.1-0.1-0.3-0.2-0.4-0.3c0-0.1-0.1-0.2-0.2-0.2c-0.1-0.6-0.4-1.2-0.8-1.7C192.5,236.5,192.4,236.4,192.3,236.2L192.3,236.2z
			 M188.7,239.2v-0.1c0-0.2,0.3-0.4,0.4-0.1c0.1,0.1,0.1,0.2,0.1,0.3H189C188.9,239.2,188.8,239.2,188.7,239.2L188.7,239.2z"/>
		<path class="st4" d="M189,239.2c0,0.1,0.1,0.2,0.1,0.3h-0.3v-0.4C188.8,239.2,188.9,239.2,189,239.2L189,239.2z M189.1,239.5
			c0.1,0.3,0.1,0.5,0.2,0.8h-0.4c0-0.3-0.1-0.5-0.1-0.8C188.9,239.6,189,239.6,189.1,239.5z M192,260.1l-0.3-0.3
			c-0.7-6.6-1.7-13-2.7-19.5h0.4C191,246.8,191.9,253.4,192,260.1z"/>
		<path class="st4" d="M189.2,239.2c0.1,0.1,0.1,0.2,0.1,0.3H189c0-0.1-0.1-0.2-0.1-0.3H189.2z M189.4,239.5
			c0.1,0.3,0.2,0.5,0.3,0.8h-0.4c-0.1-0.3-0.1-0.5-0.2-0.8H189.4L189.4,239.5z"/>
		<path class="st4" d="M192.2,239v0.4c-1,0-1.9,0.1-2.9,0.1c0-0.1-0.1-0.2-0.1-0.3C190.2,239.2,191.2,239.1,192.2,239z M192.3,260.7
			c-0.1-0.2-0.2-0.4-0.3-0.5c-0.1-6.7-1-13.4-2.7-19.9h0.4C192.1,246.6,192.5,254.1,192.3,260.7z"/>
		<path class="st4" d="M192.3,239.4c0,0.2,0.1,0.4,0.4,0.5l-3,0.4c-0.1-0.3-0.2-0.5-0.3-0.8C190.3,239.4,191.3,239.4,192.3,239.4
			L192.3,239.4z M190.9,191.9c-0.2,0.1-0.4-0.1-0.5-0.3c0.2,0.1,0.4,0.2,0.6,0.2C191,191.9,190.9,191.9,190.9,191.9z M192.3,236.3
			c0.1,0.1,0.2,0.2,0.3,0.4c0.4,0.5,0.7,1.1,0.8,1.7h-0.1c-0.2-0.2-0.4-0.3-0.5-0.5c-0.4-0.7-1-1.3-1.7-1.7
			c-0.4-0.4-0.7-0.9-1.1-1.3C190.8,235.2,191.6,235.7,192.3,236.3L192.3,236.3z M192.2,260.7v0.8c-0.1,0.1-0.2,0.1-0.3,0
			c0-0.2,0-0.5-0.1-0.7c0-0.3-0.1-0.7-0.1-1l0.3,0.3C192.1,260.3,192.2,260.5,192.2,260.7L192.2,260.7z M191.8,261.6l-0.1-0.1v-0.6
			C191.8,261.1,191.9,261.3,191.8,261.6z"/>
		<path class="st12" d="M193,238.7h-0.8c0-0.1,0-0.3-0.1-0.4h0.8C192.9,238.4,192.9,238.5,193,238.7z"/>
		<path class="st12" d="M192.9,238.8c-0.2,0-0.5-0.1-0.7-0.1v-0.2h0.8C193,238.7,192.9,238.8,192.9,238.8L192.9,238.8z"/>
		<path class="st4" d="M192.9,239h-0.7v-0.1C192.5,238.9,192.7,238.9,192.9,239z M192.9,239v0.4l0.2-0.4h0.3v0.4h-1.2V239H192.9z
			 M193.2,239.8l-0.5,0.1h-0.1c-0.2-0.1-0.4-0.3-0.4-0.5h1.2C193.5,239.5,193.4,239.7,193.2,239.8z M191.1,236.1
			c0.7,0.4,1.3,1,1.7,1.7C192.1,237.3,191.7,236.7,191.1,236.1z"/>
		<path class="st12" d="M193.2,239.8c-0.1,0.1-0.3,0.1-0.5,0.1L193.2,239.8z M192.9,238.3c0-0.2-0.1-0.3-0.1-0.5l0.5,0.5H192.9z"/>
		<path class="st4" d="M193.1,238.9l-0.2,0.4v-0.4H193.1z"/>
		<path class="st12" d="M193.5,238.5v0.4l-0.1,0.1h-0.2l0.2-0.3H193c0-0.1-0.1-0.2-0.1-0.3h0.4C193.4,238.4,193.4,238.5,193.5,238.5
			z"/>
		<path class="st4" d="M193.1,238.9h-0.2H193.1z"/>
		<path class="st12" d="M193.4,238.6l-0.1,0.3h-0.2v-0.3H193.4L193.4,238.6z"/>
		<path class="st4" d="M193.5,239.3h1l0.2,0.2l-0.1,0.1l-1.4,0.2C193.4,239.7,193.5,239.5,193.5,239.3z M193.4,238.4l0.1,0.1
			L193.4,238.4z"/>
		<path class="st12" d="M193.5,238.8v0.1h-0.1C193.4,238.9,193.5,238.9,193.5,238.8z"/>
		<path class="st4" d="M193.6,238.6c-0.1,0-0.1-0.1-0.2-0.1v-0.1C193.5,238.4,193.6,238.5,193.6,238.6L193.6,238.6z"/>
		<path class="st12" d="M193.6,238.6c0,0.1-0.1,0.2-0.1,0.2v-0.4C193.5,238.5,193.5,238.6,193.6,238.6z"/>
		<path class="st4" d="M194.1,239l0.4,0.4h-1V239C193.7,238.9,193.9,238.9,194.1,239z"/>
		<path class="st4" d="M194,239h0.6c0.1,0,0.2,0,0.2,0.1c0.1,0.1,0.1,0.3,0,0.4l-0.2-0.2C194.3,239.2,194.2,239.1,194,239z
			 M196.5,177.8c0.1,0.1,0.2,0.2,0.2,0.4c-0.1,0.1-0.1,0.1-0.2,0.1c-0.3,0.1-0.5,0-0.6-0.3c-0.1-0.4-0.2-0.8-0.4-1.1
			c0.3,0.2,0.5,0.4,0.7,0.6C196.3,177.6,196.5,177.7,196.5,177.8z"/>
		<path class="st15" d="M148.7,133c-7.7,0.3,2.2,10.6,5.2,11c-1.2-3.7-2.6-8.8-5.2-11.8"/>
		<path class="st16" d="M148.7,133c-7.7,0.3,2.2,10.6,5.2,11c-1.2-3.7-2.6-8.8-5.2-11.8"/>
		<path class="st15" d="M149,131.9c-0.4-0.4-1,0.2-0.6,0.6c2.7,3.3,3.7,7.6,4.8,11.6l0.8-0.8c-2.1-0.4-4.2-2.7-5.5-4.3
			c-1.4-1.8-3.6-5,0.1-5.3c1.1-0.1,1.1-1.8,0-1.7c-8.3,0.9,0.6,11.8,5,12.5h0.4c0.4-0.1,0.6-0.5,0.5-0.8
			C153.2,139.7,151.9,135.3,149,131.9z M139.9,134.1c-2.2,2.2,0,5.1,2.9,5.5c-0.4-2.2-1.5-4.2-2.9-5.9"/>
		<path class="st16" d="M139.9,134.1c-2.2,2.2,0,5.1,2.9,5.5c-0.4-2.2-1.5-4.2-2.9-5.9"/>
		<path class="st15" d="M140.1,133.6c-0.1-0.1-0.2-0.1-0.2,0c-0.1,0.1-0.1,0.2,0,0.2c1.4,1.6,2.2,3.6,2.3,5.8l0.9-0.7
			c-2-0.3-4.4-2.3-2.6-4.3c0.7-0.7-0.4-1.8-1.1-1.1c-2.6,2.9,0,6.3,3.3,6.8c0.2,0,0.4,0,0.5-0.1c0.4-0.2,0.5-0.6,0.3-1
			C142.5,137.2,141.8,135.1,140.1,133.6L140.1,133.6z"/>
		<path class="st17" d="M178.3,164.1c-3.6,1.2-6.3-5.4-3.9-7.7c4.6-4.4,9.8,8.3,4.1,7.8"/>
		<path class="st16" d="M178.3,164.1c-3.6,1.2-6.3-5.4-3.9-7.7c4.6-4.4,9.8,8.3,4.1,7.8"/>
		<path class="st17" d="M178.2,164.2c0,0.2,0.2,0.3,0.3,0.3c5.5,0.6,2.3-8.4-1.1-9.4c-2.6-0.8-4.7,1.7-4.5,4.2
			c0.3,2.3,2.3,6.6,5.3,5.5c0.3-0.1,0.5-0.3,0.5-0.6c0-0.4-0.3-0.7-0.6-0.7c-1.2,0.1-2.3-0.4-2.9-1.4c-0.7-1-1-2.2-1-3.4
			c0.1-1.8,1.9-3.6,3.7-2.4s4.8,7.6,0.7,7.6C178.3,163.9,178.2,164,178.2,164.2L178.2,164.2z M169.4,168.8c-2-0.6-4.1-4.8-1.1-4.9
			c2.1-0.1,3.5,4.6,1.3,4.9"/>
		<path class="st16" d="M169.4,168.8c-2-0.6-4.1-4.8-1.1-4.9c2.1-0.1,3.5,4.6,1.3,4.9"/>
		<path class="st17" d="M169.4,168.5c-0.1,0.1-0.2,0.3-0.1,0.4c0.1,0.1,0.2,0.2,0.3,0.2c3,0.1,1.5-5.8-1.1-5.8
			c-3.8-0.1-2.1,5.3,0.5,5.9c0.3,0.1,0.5,0,0.7-0.3l0.1-0.1c0.1-0.3,0-0.5-0.3-0.7c-0.8-0.5-1.4-1.2-1.9-2c-0.3-0.7-0.4-2.2,1-1.7
			S171,167.7,169.4,168.5L169.4,168.5z"/>
		<path class="st18" d="M113.5,214.4c-2.8,0.4-3-3,0-2.8c3.2,0.2,2.8,3.2-0.2,3"/>
		<path class="st16" d="M113.5,214.4c-2.8,0.4-3-3,0-2.8c3.2,0.2,2.8,3.2-0.2,3"/>
		<path class="st18" d="M113,214c-0.1,0.1-0.2,0.1-0.2,0.2c-0.2,0.3-0.1,0.7,0.2,0.9c1.3,0.6,2.8,0.1,3.5-1.1
			c0.1-0.3,0.2-0.5,0.3-0.8c0.1-1.8-2.1-2.7-3.5-2.6s-3.2,1.2-2.7,2.9c0.4,1.2,2.3,2.5,3.3,1.2c0.2-0.2,0.2-0.4,0-0.6
			c-0.4-0.4-1.4-0.3-1.6-0.9s0.6-0.8,1-0.8c0.2,0,1.9,0.3,1.6,0.8S113.6,213.8,113,214L113,214z"/>
		<path class="st19" d="M113.6,210.6c-1.7-0.6-2.3-2.6-0.2-2.3c1.4,0.2,2,1.3,1,1.9"/>
		<path class="st16" d="M113.6,210.6c-1.7-0.6-2.3-2.6-0.2-2.3c1.4,0.2,2,1.3,1,1.9"/>
		<path class="st19" d="M113.9,210.3c0,0.3,0.2,0.5,0.4,0.6c0.7,0.1,1.4-0.4,1.5-1.1c0.1-0.3,0-0.6-0.2-0.9
			c-0.6-1.1-1.9-1.5-3.1-1.1c-2,0.8-0.5,3.9,1.3,3.4h0.1c0.2-0.1,0.3-0.4,0.2-0.6c-0.2-0.3-1.4-1.1-1.2-1.4c0.1-0.1,1.1,0.4,1.2,0.5
			S113.9,210.1,113.9,210.3z"/>
	</g>
	<g>
		<path d="M66.7,50.5c-0.7-0.4-1.3-1-1.8-1.9c-0.6-0.8-1.3-1.4-2.1-1.9l-2.7-1c-4.3-4.2-8.2-8.7-11.6-13.5
			C45,27.4,40.7,23.3,35.5,20v-0.8l1.2-0.4c2.9,2.2,5.8,4.6,8.5,7.1c2.8,2.5,5.2,5.3,7.3,8.5l3.5,4.8c1,0.7,1.9,1.5,2.8,2.3
			c0.9,0.8,1.7,1.7,2.4,2.7v0.4c0.8,0.3,1.7,0.6,2.5,0.9c0.8,0.3,1.6,0.9,2.3,1.6l0.9,1.7l0.8,0.2l0.2,1L66.7,50.5z"/>
		<path d="M74.2,46.8l-0.6-1.5c0.3-3.5,0.5-7,0.7-10.5c0.2-3.5,0.3-7.1,0.3-10.7l-0.2-1l1.2-0.4c0.3,4,1.4,7.7,3.4,11.2
			c2,3.5,4.1,6.9,6.3,10.2l0.6,0.2c0.1-3.2,0.5-6.3,1-9.2c0.6-3,1.2-5.9,1.9-8.8l1-0.2l0.4,1.6c-0.7,3-1.3,6.1-1.8,9.1
			c-0.5,3-0.9,6.2-1.4,9.4L86,46.6c-2.1-1.1-3.6-2.7-4.7-4.7c-1-2-2-4-3-5.9l-1.7-3.5h-0.6c-0.2,2.4-0.2,4.7-0.2,7.2
			c0,2.4-0.2,4.7-0.6,7L74.2,46.8z"/>
		<path d="M102.5,44.3l-3.8-1.9c-0.7-0.8-1.2-1.8-1.6-2.8s-0.6-2.2-0.6-3.4L95.8,36l-0.2-1l1.2-0.4c0.2-0.7,0.3-1.4,0.5-2.2
			c0.2-0.8,0.6-1.4,1.3-2c0.6-0.4,1.2-0.7,1.9-0.7s1.5-0.1,2.3-0.1c0.7,0.4,1.4,0.7,2.3,0.9c0.8,0.2,1.6,0.7,2.3,1.4
			c0.3,0.8,0.4,1.7,0.4,2.7c0,1,0,1.9,0,2.9c-0.7,0.6-1.5,0.8-2.4,0.7c-0.9-0.1-1.8-0.1-2.6-0.1l-4.4-1.2v1.7l1.7,2.7
			c0.4,0.3,0.9,0.6,1.4,0.8c0.5,0.3,1,0.4,1.6,0.4l3.3-1.2l0.4,1.2c-0.6,0.5-1.2,1-2,1.2C104.1,43.9,103.3,44.1,102.5,44.3z
			 M106,36.2v-3.1c-0.8-0.7-1.7-1.2-2.6-1.5c-0.9-0.3-1.9-0.3-3-0.2c-0.5,0.4-1,0.9-1.2,1.6c-0.3,0.6-0.4,1.3-0.4,2
			c1.1,0.3,2.3,0.6,3.4,0.9C103.3,36.2,104.6,36.3,106,36.2z"/>
		<path d="M116.7,46.5c-0.5-1.8-0.7-3.7-0.6-5.7c0.1-2-0.2-3.8-1.1-5.5l1.3-0.4l1.2,1.2l0.4,6.2h0.4l3.8-4.4h1
			c0.4,0.7,0.7,1.5,0.7,2.4c0.1,0.9,0.2,1.8,0.3,2.6l0.6,0.2c0.4-1,0.8-2,1-3c0.2-1,0.5-2,0.9-3l1-0.2l0.4,1.2
			c-0.3,1.3-0.6,2.6-0.9,3.9c-0.3,1.3-0.9,2.5-1.8,3.6l-1.5,0.2c-0.7-0.6-1.2-1.3-1.5-2.1c-0.3-0.8-0.4-1.7-0.4-2.7h-0.4l-4.1,5.4
			H116.7z"/>
		<path d="M167.8,48.2c-0.8-0.1-1.6-0.4-2.3-0.9c-0.7-0.5-1.4-0.9-2.1-1.4c-1,0.5-2,1-2.9,1.2c-1,0.3-2.1,0.4-3.3,0.2
			c-0.6-0.2-1.1-0.3-1.6-0.5c-0.5-0.2-0.9-0.6-1.3-1.1c-0.7-1-1.2-2.1-1.6-3.3s-0.5-2.5-0.5-3.8c0.3-2.8,0.8-5.4,1.7-7.8
			c0.8-2.4,2.2-4.7,4.1-6.7l0.6-0.2v-0.4l-0.2-1l1.2-0.4l2.5,1l0.4,0.9c1.1,0.5,2,1.4,2.6,2.5c0.6,1.1,1.2,2.1,1.8,3.1
			c0.5,1.4,1,2.9,1.2,4.4c0.3,1.5,0.3,3.1,0.2,4.8l-2.9,6.2c0.6,0.6,1.2,1,1.8,1.2c0.6,0.2,1.3,0.4,2,0.5l0.2,1L167.8,48.2z
			 M162.4,44.7v-0.4c-0.3-0.5-0.6-1.1-0.9-1.6c-0.3-0.6-0.4-1.2-0.3-1.9l1.2-0.4l1.2,2.5l0.6,0.2c1-1.2,1.6-2.6,2-4.1
			c0.3-1.5,0.4-3.1,0.3-4.8c-0.3-1.5-0.8-2.9-1.5-4.2c-0.7-1.3-1.6-2.6-2.7-3.9l-2.1-1.2l-3.7,4.1c-0.9,1.8-1.5,3.6-1.9,5.5
			c-0.4,1.9-0.6,3.8-0.6,5.9c0.3,0.8,0.5,1.7,0.7,2.6c0.2,0.9,0.7,1.6,1.6,2.2c0.6,0.3,1.2,0.4,1.8,0.4s1.3,0,2,0L162.4,44.7z"/>
		<path d="M179.4,46.2l-2.1-1.3c-0.4-0.7-0.7-1.4-0.8-2.3c-0.1-0.8-0.2-1.7-0.2-2.7l1-4l1-0.2l0.4,1.7l-0.6,4.8l1,1.9l0.6,0.2
			l2.3-1.9c0.7-0.5,1.1-1.3,1.2-2.2c0.1-0.9,0.4-1.7,0.8-2.4l1.5-0.2l0.4,1.4l-1,3.3c0.1,0.4,0.4,0.8,0.8,1.1
			c0.4,0.3,0.6,0.8,0.4,1.3l-1.2,0.4l-1.7-1.4c-0.6,0.7-1.2,1.2-1.8,1.6C181,46,180.2,46.2,179.4,46.2z"/>
		<path d="M201.7,44.3l-3.8-1.9c-0.7-0.8-1.2-1.8-1.6-2.8c-0.4-1-0.6-2.2-0.6-3.4L195,36l-0.2-1l1.2-0.4c0.2-0.7,0.3-1.4,0.5-2.2
			c0.2-0.8,0.6-1.4,1.3-2c0.6-0.4,1.2-0.7,1.9-0.7s1.5-0.1,2.3-0.1c0.7,0.4,1.4,0.7,2.3,0.9c0.8,0.2,1.6,0.7,2.3,1.4
			c0.3,0.8,0.4,1.7,0.4,2.7c0,1,0,1.9,0,2.9c-0.7,0.6-1.5,0.8-2.4,0.7c-0.9-0.1-1.8-0.1-2.6-0.1l-4.4-1.2v1.7l1.7,2.7
			c0.4,0.3,0.9,0.6,1.4,0.8c0.5,0.3,1,0.4,1.6,0.4l3.3-1.2l0.4,1.2c-0.6,0.5-1.2,1-2,1.2C203.3,43.9,202.5,44.1,201.7,44.3z
			 M205.2,36.2v-3.1c-0.8-0.7-1.7-1.2-2.6-1.5c-0.9-0.3-1.9-0.3-3-0.2c-0.5,0.4-1,0.9-1.2,1.6s-0.4,1.3-0.4,2
			c1.1,0.3,2.3,0.6,3.4,0.9C202.6,36.2,203.8,36.3,205.2,36.2z"/>
		<path d="M220.5,45.3c-0.4-0.1-0.8-0.4-1.2-0.8c-0.4-0.4-0.7-0.8-0.9-1.3v-1l1.2-0.4l0.9,1.2l0.6,0.2V42l-4.6-3.3l-0.9-2.9l1.5-2.9
			c0.5-0.5,1.2-0.9,2-1.1c0.8-0.2,1.6-0.2,2.4-0.1l2.3,1.5c0.4,0.7,1,1.4,1.6,2s1,1.4,1,2.4l-1.2,0.4l-4-4.3h-1.7
			c-0.5,0.1-1,0.4-1.2,0.9c-0.3,0.5-0.6,0.9-0.8,1.3v1c0.7,1,1.6,1.8,2.6,2.4c1,0.6,2,1.4,2.8,2.4v2.1l-1,1.2L220.5,45.3z"/>
		<path d="M240.8,46.2l-0.8-0.7v-2.9l0.2-2.9c-0.7-0.4-1.5-0.7-2.4-0.8s-1.8-0.3-2.6-0.4l-0.2-1c0.3-0.3,0.6-0.4,0.9-0.5
			c0.3-0.1,0.7-0.1,1.2-0.1l3.1,0.6v-8.9l0.6-0.9h0.9l0.4,0.4v9.8c0.6,0.4,1.2,0.6,2,0.6s1.5,0.1,2.2,0.4l0.2,1l-1.5,0.6l-2.9-0.4
			l-0.4,5.6L240.8,46.2z"/>
		<path d="M268.8,38.7l-1-2.1c0.3-1,0.4-2,0.4-3.1c0-1.1,0-2.2,0-3.3l-0.6-3.5l0.6-0.9h0.9c0.4,1.4,0.7,2.9,0.9,4.5
			c0.2,1.6,0.2,3.2,0.1,4.9l-0.2,2.1l0.2,1L268.8,38.7z M269.8,46.6l-0.8-0.4l-0.4-2.5l1.2-1.9h0.9l0.4,1.2l0.6,0.2l0.4,2.1
			l-1.2,1.2H269.8z"/>
		<path d="M295.6,51.2l-0.4-1.5c2.5-1.9,4.8-4.1,6.8-6.4c2.1-2.4,3.9-4.8,5.6-7.3c1.5-3.6,3.8-6.9,6.8-9.9c3-3,5.7-6.1,8.2-9.2
			l1-0.2l0.4,1.2c-4.9,4.7-9,9.8-12.6,15.4c-3.5,5.5-7.6,10.7-12.3,15.6c-0.6,0.4-1.1,0.9-1.7,1.5C296.9,50.9,296.3,51.2,295.6,51.2
			z"/>
	</g>
</g>
</svg>
