<svg id="レイヤー_1" xmlns="http://www.w3.org/2000/svg" viewBox="0 0 347.6 266.6"><style>.st0{fill:#1d3033;stroke:#1d3033;stroke-width:.66;stroke-linecap:round;stroke-linejoin:round}.st1{fill:#55513f}.st2{fill:#f1c8dd}.st3{fill:#fff}.st4{fill:#f7e5d7}.st5{fill:#b2deed}.st6{fill:none}.st14{fill:#442f19}.st15{fill:#503014;stroke:#503014;stroke-width:1.42;stroke-miterlimit:10}</style><g id="レイヤー_1-2"><g id="レイヤー_3"><path class="st0" d="M188.6 177.4c-.1.1-.3.1-.4.1-.1 0-.1.1-.1.1 0 .1.1.1.1.1 1.3-.1 2.7-.2 4.2-.2 3 .3 6 .9 8.9 1.8 3.2 1 8.2 2.9 9.3 6.4h-.2c-4.2-5.9-15.9-7.9-23.3-8v-.1c-.1-.4-.6-.3-.6.1v.4c-.1 0-.3-.2-.3-.3 0-.2.1-.4.4-.4.7 0 1.4-.1 2 0z"/><path class="st0" d="M186.9 178.2h-.2-.1v-.4c0-.4.6-.5.6-.1v.1h-.3c-.1.1-.1.3 0 .4zM186.8 178.2c.2 5.2 1.8 10.3 3.4 15.3 1.5 4.8 2.1 9.6 3.1 14.5-.1 0-.1 0-.1.1-.1.4-.3.7-.4 1.1-.6-3.6-1.3-7.3-2-11-1.3-6.8-4.1-13-4.2-20h.2z"/><path class="st0" d="M186.8 177.8h.3c0 .2 0 .3.1.5-.1 0-.2-.1-.4-.1v-.4zM192.1 197.9c1.5 6.4 2.2 13 3.5 19.4-.3.1-.5.3-.5.6-.7-2.7-.9-5.7-1.5-8.5-.1-.3-.2-.5-.2-.8 0-.1.1-.2.1-.3 0-.1-.1-.2-.2-.2-1.1-4.9-1.6-9.7-3.1-14.5-1.6-5-3.1-10.1-3.4-15.3.1 0 .2 0 .4.1 1 6.6 3.3 12.9 4.9 19.5z"/><path class="st0" d="M210.5 185.9c-.1-.1-.2-.1-.3 0-3.5-2.2-6.1-4.4-10.4-5.6-4.1-1.3-8.4-1.6-12.6-2 0-.2 0-.3-.1-.5 7.5.1 19.3 2.1 23.4 8.1zM189.7 177.3c.9 0 1.8.1 2.7.2-1.5 0-2.9.1-4.2.2-.1 0-.1-.1-.1-.1 0-.1.1-.1.1-.1.1-.1.3-.1.4-.1.3-.1.7-.1 1.1-.1-.1 0 0 0 0 0z"/><path class="st0" d="M206 178.3c.8.4 1.8.8 2.8 1.4 2.6 1.4 5.4 3.5 5.2 6.2-.1 0-.3-.1-.4-.1-.1-3.7-7.4-7.3-10.7-8.3-4.3-1.1-8.8-1.2-13.2-.3h-1c5.6-1.6 11.8-1.3 17.3 1.1z"/><path class="st1" d="M199.8 180.3c4.2 1.2 6.9 3.4 10.4 5.6-.1.1-.2.2-.2.3-.9 12.4.2 25.1.5 37.5-3.7-3.6-9.9-5.1-14.5-6.3h-.4c-1.3-6.4-2-13-3.5-19.4-1.6-6.6-3.9-12.8-4.9-19.6 4.2.3 8.5.6 12.6 1.9zm-4.6 13.4c1.9.5 3.7 1 5.5 1.7.4 4.3 1.1 8.7 1.8 12.7 0 .1.1.2.3.3.2.1.5 0 .6-.3.5-3.9-.2-8-1-12 1.4.7 2.9 1.2 4.4 1.7.5.1.9-.7.4-1-1.6-.7-3.4-1.6-5.2-2.4-.5-2.3-.8-4.6-1-7 0-.1-.1-.2-.3-.3-.2 0-.4.1-.4.3-.1 2.1 0 4.3.2 6.4-1.6-.7-3.4-1.1-5.1-1.1-.2 0-.4.2-.5.4-.1.3 0 .6.3.6z"/><path class="st0" d="M202.8 177.6c3.3 1 10.6 4.6 10.7 8.3-.2-.1-.4-.1-.6-.1-2.9-8-12.8-8.6-20.5-8.2-.9-.1-1.9-.2-2.8-.2 4.4-1 8.9-.9 13.2.2zM193 210.6c-2 10.6-1.7 19.8 5.1 28.9 0 .4 0 .8.1 1.2-.2.1-.5.1-.6-.1-8.4-8.3-8.5-20.7-4.8-31.3 0 .2.1.4.1.5 0 .2.1.5.1.8z"/><path class="st0" d="M193.3 208.1v.1c-.2.6-.3 1-.5 1.6 0-.2-.1-.4-.1-.5.1-.4.3-.8.4-1.1.1-.1.2-.1.2-.1z"/><path class="st2" d="M194.7 218.3c0 .1.1.2.2.3.2.2.6.2.8 0 5.9 2 11.7 3.2 16 8 0 .1.1.2.2.3.1 0 .1.1.2.1v.1c.1.1.2.1.3.1 1.8 1 3.8 1.6 5.9 1.7.1.1.2.2.3.2.2 0 .4-.1.4-.3-1.2 4.3-2.1 8.7-2.8 13.2-1.6-1.2-3-2.5-4.5-3.9-.2-.2-.5-.2-.8 0-.3.2-.3.6-.1.9l.7.8h-.1c-1.3.8-1.9 2.2-3.7 1.6-1.5-.6-2.9-1.5-3.9-2.7-1.8-1.9-3.7-4.5-4.2-7.1 0-.2-.4-.3-.5-.2v-.6c0-.1-.4-.2-.4 0-.5 2.8-.7 5.7-.7 8.6-6.8-9.1-7.1-18.3-5.1-28.9.6 2.6 1.1 5.2 1.8 7.8z"/><path class="st0" d="M193.4 208.6c-.1.7-.3 1.4-.4 2-.1-.3-.2-.5-.2-.8.1-.6.3-1 .5-1.6.1.2.1.3.1.4z"/><path class="st0" d="M193.6 209.4c.6 2.8.9 5.8 1.5 8.5 0 .3.2.6.4.6-.1.1-.2.2-.3.2-.3.1-.6-.2-.7-.5-.6-2.6-1.1-5.1-1.6-7.7.1-.7.2-1.3.4-2l.3.9zM193.5 208.2c-.1.1-.1.2-.1.3 0-.1-.1-.2-.1-.3v-.1c.1-.1.2 0 .2.1z"/><path class="st3" d="M210.7 185.8c-1.2-3.5-6.1-5.4-9.3-6.4-2.9-.9-5.9-1.5-8.9-1.8 7.7-.3 17.6.2 20.5 8.2-.8-.1-1.6-.1-2.3 0z"/><path class="st0" d="M200.6 195.4c-1.8-.6-3.6-1.2-5.4-1.6-.2-.1-.4-.3-.4-.5 0-.3.2-.6.5-.6 1.8 0 3.5.4 5.1 1.1 0 .3 0 .6.1.9 0 .2.1.4.1.7zM195.1 217.9c0-.3.2-.5.5-.6 0 .2.1.5.1.7 0 .2 0 .4-.2.6-.2-.1-.4-.4-.4-.7zM210.5 225.1c0 .1.1.3.2.3.2.1.5.1.6-.2.3.3.5.6.7.9-.2 0-.3.2-.3.4-4.3-4.7-10.1-5.9-16-8 .2-.2.2-.4.2-.6-.1-.2-.1-.5-.1-.7h.4c4.6 1.3 10.8 2.8 14.5 6.3v.9c-.2.4-.2.6-.2.7zM199.2 230.9v.6c-.1 0-.2.1-.1.2 0 .6.1 1.1.3 1.7.3 2.5.3 5.1 0 7.6 0 .3-.2.5-.5.5s-.5-.2-.5-.5v-.3c.1 0 .1 0 .2-.1.2-.2.3-.5.1-.7-.1-.2-.2-.3-.3-.5 0-2.9.2-5.8.7-8.6-.2-.2.1-.1.1.1z"/><path class="st0" d="M198.5 240.1c.1.3-.1.5-.3.6-.1-.4-.1-.8-.1-1.2.1.2.2.3.3.5.1 0 .1 0 .1.1zM199.3 233.4c-.2-.5-.2-1.1-.3-1.7 0-.1.1-.2.1-.2.1.6.2 1.2.2 1.9zM199.7 231.6c.4 2.7 2.4 5.2 4.2 7.1 1.1 1.2 2.4 2.1 3.9 2.7 1.8.5 2.4-.9 3.7-1.6h.1l.6.6c-.6 3.5-5.2 2.4-7.2.9-2.3-1.8-4.8-4.8-5.6-7.9 0-.6-.1-1.3-.1-1.9.1-.2.4-.2.4.1zM200.5 193.8c-.2-2.2-.2-4.3-.2-6.4 0-.1.1-.2.3-.3.2 0 .4.1.4.3.2 2.4.5 4.7 1 7-.3-.1-.5-.2-.8-.3-.2-.1-.5-.2-.7-.3z"/><path class="st0" d="M201.2 194c.1.3.1.6.1.9l-.7-.3c0-.3-.1-.6-.1-.9.2.1.4.2.7.3zM201.2 195c.1.3.1.5.1.8-.3-.1-.5-.2-.8-.3v-.7l.7.2z"/><path class="st0" d="M201.6 195.8l.7.3c.8 4 1.5 8.1 1 12 0 .1-.1.2-.3.3-.2.1-.5 0-.6-.3-.8-4.1-1.4-8.4-1.8-12.7.3.1.5.2.8.3.1 0 .1.1.2.1zM202 194.3c.1.4.2.7.2 1-.3-.2-.6-.3-.9-.4-.1-.3-.1-.6-.1-.9.2.1.5.3.8.3z"/><path class="st0" d="M202.3 196.1l-.7-.3c-.1 0-.2-.1-.2-.1 0-.2-.1-.5-.1-.8.3.1.6.2.9.4l.1.8z"/><path class="st0" d="M202 194.3c1.8.8 3.5 1.8 5.1 2.4.6.3.2 1.1-.4 1-1.5-.4-3-1-4.4-1.6l-.2-.8c0-.3-.1-.6-.1-1zM211.5 165.6c.1.5.9.4.9-.1v-.3c1.4-.5 2.9-.9 4.4-1.1v.2c0 .1.1.2.2.2-3.2.5-8.7 2.3-8.6 5.8.1 2 .9 3.9 2.1 5.5-.2-.1-.4 0-.4.2l-.1.1c-1.2-1.7-2-3.7-2.2-5.8-.2-2.2 1.5-3.8 3.7-4.8v.1z"/><path class="st0" d="M217.1 164.3c.1-.1.3-.2.4-.4.1 0 .2.1.3.3.1.2-.1.5-.3.5-3.8.9-9.3 2.1-8.3 7.1 1 4.8 5.9 7.2 9.8 9.3.1 0 .2.1.2.2-.2.1-.4.3-.6.5-.1 0-.1.1-.1.1-3.2-.8-6.1-2.7-8.1-5.4.1-.2.1-.4.2-.6v-.1c0-.1-.1-.2-.1-.2-1.2-1.6-2-3.5-2.1-5.5-.1-3.5 5.4-5.2 8.6-5.8h.2c0 .2-.1 0-.1 0zM210.4 176.7c-.2 1.1-.7 2.1-1.3 3-.1.1-.2.1-.3 0-.1-.1-.2-.2-.1-.3.4-1.1.9-2.2 1.3-3.3l.2.3c.1.1.2.2.2.3z"/><path class="st2" d="M209 179.6c.6-.9 1.1-1.9 1.3-3 2 2.7 4.8 4.6 8.1 5.4l-.1.1c-.6.4-1.2.9-1.8 1.4-.3.3-.6.6-.9 1-.5.4-1.1.9-1.7 1.4.2-2.7-2.6-4.8-5.2-6.2.2 0 .3 0 .3-.1z"/><path class="st4" d="M217.8 164.6c.1-.2 0-.5-.2-.5.3-.5.5-1 .8-1.5.4-.8 1-1.6 1.6-2.3 0 0 .1-.1.1-.2 2-.1 4-.3 5.9-.7-1.1 1.2-1.8 2.8-2 4.5-.2 1.6-1.2 6.2 1.6 5.8.1 0 .2-.1.3-.2.2.2.5.1.7-.1 1-1.8 5.9-9.2 3-10.9 3.8-1.2 7.3-2.8 10.7-4.9 5.5-3.5 9-7.7 12.8-12.8 1.1 15.8 14.3 33.1 28.4 39.6.1 0 .3 0 .3-.2-.1.1-.1.2-.2.3-.2.4.3.8.6.5 4.1-5 11.5-.1 7.5 5.4-3.2 4.4-9.1 5.1-14.1 4.4-.2 0-.3 0-.4.1-.1-.1-.3-.2-.4-.2-7.6 2-16.2.4-24 0-.1-2.6-.2-5.2-.4-7.8.2 0 .3-.2.3-.4l.1.1c.4.3.8-.3.5-.6-5.3-4.1-12.4-5.6-19.1-4.7-3.1.3-6.1 1-9 2.1-1.3.6-2.6 1.3-3.8 2.2-.1-.1-.1-.2-.2-.2-3.9-2.1-8.8-4.5-9.8-9.3-1.1-5 4.5-6.2 8.3-7.1 0-.2.1-.3.1-.4zm39.7 13.7c0 .1 0 .1.1.2.1.2.4.3.6.2 2.5-1.6 6.9-12.6 2.4-13.7-2.6-.6-3.3 3.5-3.6 5.1-.3 2-1.3 6.4.3 8 0 .1.1.1.2.2z"/><path class="st0" d="M210.5 223.6c-.3-12.4-1.4-25.1-.5-37.5 0-.1.1-.2.2-.3l.2.2v.1c0 .2.1.4.3.4-.5 12.6.8 25.3.6 38-.1-.2-.3-.3-.4-.5l-.4-.4zM210 176.1l.1-.1c.1-.2.3-.2.4-.1l.1.2v.1c-.1.2-.1.4-.2.6-.1-.1-.2-.2-.2-.3l-.2-.4z"/><path class="st0" d="M210.5 185.8c-.1 0-.1.1-.1.1l-.2-.1h.3zM210.6 186.2v.3h-.1c-.2-.1-.3-.3-.2-.5.2.1.3.1.3.2z"/><path class="st0" d="M210.5 185.8c.1.1.1.1.1.2v.2c-.1-.1-.2-.1-.3-.2l.2-.2zM210.9 224.1v.9c-.1-.2-.3-.3-.4-.4v-.9c.1 0 .3.2.4.4z"/><path class="st0" d="M211.3 225.4c-.1.1-.2.2-.3.2-.2 0-.4-.2-.5-.4v-.7c.2.1.3.3.4.4.2.2.3.4.4.5zM210.6 175.9l-.1-.2c.1.1.1.2.1.2zM210.5 185.8zM210.6 185.8c.1 0 .1.1.1.2-.1 0-.1-.1-.1-.2z"/><path class="st1" d="M215.9 187h.2c-1.8 13.4 1.7 27.4 2.2 40.9-2-.2-3.7-1.2-5.7-1.5-.3-.7-.7-1.3-1.2-1.8.2-12.6-1.1-25.4-.6-38 1.6.3 3.3.2 5.1.4z"/><path class="st0" d="M210.8 186.1c-.1 0-.1-.1 0 0-.1-.2-.1-.3-.2-.3h.2c-.1.1 0 .2 0 .3zM211.5 165.5c-1.4-7.5-1.8-12.8 1.9-19.8 3.1-5.8 8.6-10 15-11.6 0 .1.1.2.2.3-6.2 1.5-11.4 6.1-14.6 11.6-1.7 2.8-2.7 6-3.2 9.2-.5 3.7.8 6.5 1.2 10.1l-.5.2z"/><path class="st0" d="M213.9 146.1c3.1-5.5 8.4-10.1 14.6-11.6.1.1.2.1.3.1h.4c-6.2 1.9-11.5 6.1-14.8 11.7-3.8 6.1-3 12.1-2.1 18.8-.1.1-.3.1-.4.2-.4-3.5-1.7-6.3-1.2-10.1.5-3.2 1.5-6.3 3.2-9.1zM210.9 186.1c.7.1 1.5.1 2.3.2v.1c0 .1.1.2.2.2.2.1.4 0 .5-.2.5 0 1.1.1 1.6.2 0 .2.1.3.3.3-1.7-.2-3.5 0-5.1-.5v-.3c.1.2.1.1.2 0z"/><path class="st0" d="M210.7 186.1c.1.1.1.2 0 0zM210.7 185.8c.7-.1 1.5-.1 2.2 0 .1.2.2.3.2.5-.8-.1-1.6-.1-2.3-.2 0-.1 0-.2-.1-.3zM216.1 243.4c-1.5-.7-2.8-1.8-3.9-3v-.2-.1c-.1-.2-.3-.3-.6-.3l-.7-.8c-.2-.2-.2-.5 0-.8.2-.3.6-.3.9-.1 1.5 1.4 2.9 2.7 4.5 3.9 0 .2-.1.5-.1.7-.1.3-.1.5-.1.7zM211.3 224.5V225.4c-.1-.2-.2-.3-.4-.4v-.9c.2.1.3.3.4.4zM211.4 224.5c.5.5.9 1.2 1.2 1.8-.2 0-.4-.1-.6-.1-.2-.3-.4-.6-.7-.9v-.8zM212.4 165.1v.3c.1.5-.8.6-.9.1v-.1l.4-.2c.2.1.3 0 .5-.1zM212.7 226.9c0 .2-.2.3-.4.4l-.3-.1v-.1l-.4-.4c0-.2.2-.3.4-.3.1.1.2.3.3.5h.4z"/><path class="st0" d="M211.7 239.8c.2 0 .5.2.5.4v.2c-.2-.2-.4-.4-.5-.6-.1 0 0 0 0 0zM211.8 227c-.1-.1-.2-.2-.2-.3l.4.4c-.1-.1-.2-.1-.2-.1zM212.6 226.3c.1.1.1.2.2.3v.3l-.5-.2c-.1-.2-.2-.3-.3-.5.2.1.4.1.6.1zM212.3 227.2c-.1 0-.2 0-.3-.1l.3.1z"/><path class="st2" d="M229.2 134.6c8.1.2 16.1 1.9 23.6 5V139.9c-5.2 4.8-8.5 10.2-15.3 13.6-5.7 2.9-11.7 5-18 6.1-.2 0-.2.1-.2.3-1.2.8-3 2.7-2.6 4.3-1.5.2-3 .5-4.4 1.1-.9-6.7-1.7-12.7 2.1-18.8 3.3-5.8 8.6-10 14.8-11.9z"/><path class="st0" d="M218.2 227.8v.6c-1.9-.3-3.7-.8-5.5-1.5v-.3c0-.1-.1-.2-.2-.3 2 .3 3.8 1.3 5.7 1.5z"/><path class="st0" d="M218.3 228.4v.5c-2.1-.1-4.1-.7-5.9-1.7.2 0 .4-.2.4-.4 1.7.8 3.6 1.3 5.5 1.6zM213.9 186c-.1.1-.2.2-.3.2v.1h-.5c0-.2-.1-.4-.2-.5.2 0 .4 0 .6.1.2 0 .3 0 .4.1zM213.6 186.3c0 .1.1.1.2.1h.1c0 .1-.1.2-.2.2-.2.1-.4 0-.5-.2v-.1h.4z"/><path class="st0" d="M214 186.4h-.3v-.2c.1-.1.2-.2.3-.2v.4z"/><path class="st0" d="M213.8 186.5c-.1.1-.2 0-.2-.1h.3s0 .1-.1.1zM214 186.2c.1 0 .3-.1.4-.2h.1c-.2.1-.3.3-.5.4v-.2z"/><path class="st0" d="M215.5 186.3v.3c-.5-.1-1.1-.2-1.6-.2.2-.1.4-.2.5-.4.4.1.8.2 1.1.3zM214 185.9c.1 0 .2 0 .3.1-.1.1-.2.2-.4.2.1-.1.1-.1.1-.3zM214 185.9z"/><path class="st0" d="M215.7 184.5c-.4.6-.9 1.1-1.4 1.5-.1 0-.2-.1-.3-.1.6-.4 1.2-.9 1.7-1.4zM219.4 181.5c1.1-.9 2.4-1.7 3.7-2.3 2.9-1.1 5.9-1.8 9-2.1 6.6-.9 13.8.6 19.1 4.7.4.3-.1.9-.5.6l-.1-.1c0-.3-.2-.6-.5-.6h-.6c-5.4-3.2-11.1-4-17.4-3.6-4 .4-7.9 1.5-11.6 3.3-2.4 1.1-3.9 3.2-6 4.6h-.1c.6-.4 1.1-.9 1.5-1.5.9-.8 1.8-1.6 2.6-2.3l.1-.1h.4c.3 0 .5-.3.4-.6z"/><path class="st3" d="M220.5 181.4c3.6-1.8 7.6-2.9 11.6-3.3 6.3-.5 12 .4 17.4 3.6-6.2-.6-11.9-1.8-18.2-.6-5.5 1.1-10.1 3.6-15.4 5-.1 0-.2.1-.3.2-.4-.1-.7-.2-1.1-.2 2-1.6 3.6-3.6 6-4.7z"/><path class="st0" d="M215.4 248.5c-.1-.2-.1-.4.1-.5-.1.2-.1.3-.1.5z"/><path class="st0" d="M216.5 248.8c-.1.2-.4.3-.6.3-.2-.1-.4-.3-.5-.5l-.1-.1c.1-.2.1-.4.1-.5.2-.2.4-.2.6-.1h.1c0 .2-.1.4-.1.6.2.1.4.2.5.3z"/><path class="st0" d="M215.4 248.6l.5.5h-.1c-.2 0-.5-.3-.4-.5zM216.5 186.6c.1.1 0 .3-.1.3v-.2c0-.1-.2-.1-.2 0-.2 0-.4-.1-.6-.1v-.3c.2.1.5.1.7.2.1 0 .2.1.2.1z"/><path class="st0" d="M216 186.9h-.2c-.1 0-.3-.2-.3-.3.2 0 .4.1.6.1 0 .1 0 .2-.1.2zM215.8 186.1c5.3-1.4 9.9-4 15.4-5 6.2-1.2 12 0 18.2.6.4.2.7.4 1.1.6 0 .2-.1.4-.3.4v-.5c0-.2-.1-.3-.3-.3-.2 0-.3.1-.3.3-2.9-.1-6-.8-8.8-1-4.6-.2-9.2.3-13.7 1.5-2.1.5-4.1 1.1-6.1 1.9-1.3.5-3.1 1.7-4.6 1.8-.2-.1-.5-.2-.7-.2-.1 0 0-.1.1-.1zM216.1 243.4l.6.3c-.1 1.5-.3 3-.6 4.2h-.1c-.2-.1-.5-.1-.6.1.2-1.6.4-3.1.7-4.6zM216.2 187c0 7.2.6 14.3 1.1 21.5.2 3.6.5 7.2.6 10.9.1 2.8.8 5.6.8 8.4-.1 0-.2.1-.2.1h-.2c-.5-13.4-4-27.5-2.2-40.9h.1zM216.1 187h-.2.2zM216.6 248.6c0-.2.1-.3.1-.5 5.8 2.4 10.9 3.8 16.7 0 .1-.1.3-.1.4 0-.1.1-.1.2 0 .3.1.1.1.2.2.3 0 .1-.1.1-.1.1-4 4.5-13.5 4.4-18 .3.2 0 .5-.1.6-.3l.1-.2z"/><path class="st0" d="M216.7 248.2c0 .2-.1.3-.1.5l-.1.2c-.2-.1-.4-.2-.5-.4.1-.2.1-.4.1-.6l.6.3zM216.8 243.1c-.1.2-.1.4-.1.6-.2 0-.4-.1-.6-.3 0-.2 0-.4.1-.7.2.2.4.3.6.4zM216.2 186.7v.3h-.1v-.3h.1z"/><path class="st0" d="M216.3 186.7c0 .1.1.2 0 .2h-.2v-.2h-.1c.1-.1.3-.1.3 0zM216.7 243.7c.2.1.4.2.6.2-.1 1.4-.3 2.9-.6 4.2-.2-.1-.4-.2-.6-.2.3-1.2.4-2.7.6-4.2zM216.8 242.4v.7c-.2-.1-.4-.2-.6-.4 0-.3.1-.5.1-.7.1.2.3.3.5.4zM216.3 187c-.1 0-.1 0 0 0z"/><path class="st0" d="M216.4 186.9c1 6.3.9 12.8 1.4 19.1.5 7.1 1.3 14.3 1.3 21.4-.1.1-.2.1-.4.2 0-2.8-.7-5.6-.8-8.4-.1-3.6-.4-7.2-.6-10.9-.5-7.2-1.1-14.3-1.1-21.5 0 .2 0 .2.2.1-.1.1 0 .1 0 0zM219.1 228.8c.1-.1.1-.2.1-.3 0 3.3-1.6 6.9-2 10.3-.1 1.1-.2 2.4-.4 3.6-.2-.1-.4-.3-.6-.4.7-4.4 1.7-8.9 2.9-13.2z"/><path class="st0" d="M220.9 184.7c2-.7 4-1.4 6.1-1.9 4.5-1.2 9.1-1.7 13.7-1.5 2.8.2 5.9.9 8.8 1v.5c-6.1-.1-11.6-1.1-17.8-.1-5.4.8-10.2 3.5-15.4 4.3l.1-.1c.1-.1 0-.3-.1-.3 1.5-.2 3.3-1.4 4.6-1.9zM219.6 160.1c-1.2 1.1-2.1 2.5-2.5 4h-.3c-.4-1.6 1.4-3.5 2.6-4.3-.1.1 0 .2.2.3zM217.3 243.4v.5c-.2 0-.4-.1-.6-.2.1-.2.1-.4.1-.6l.5.3z"/><path class="st0" d="M217.4 164.1h.2c-.1.1-.2.3-.4.4H216.9c-.1 0-.2-.1-.2-.2v-.2h.3c.2 0 .4-.1.4 0zM216.8 242.4c.2.1.4.3.6.4v.6l-.6-.3v-.7z"/><path class="st0" d="M217.2 238.8c.4-3.4 2-7 2-10.3h.1c.5 3.1-.8 6.1-1.4 9.1-.3 1.7-.5 3.5-.5 5.2-.2-.1-.4-.3-.6-.4.2-1.2.3-2.5.4-3.6zM217.1 164.5h-.2.2zM219.6 160.1h.4c0 .1 0 .1-.1.2-.6.7-1.1 1.5-1.6 2.3-.3.5-.4 1-.8 1.5H216.9c.6-1.6 1.5-3 2.7-4z"/><path class="st5" d="M218 243.6c.1-.2 0-.5-.3-.6-.1-.1-.2-.1-.3-.2.1-1.7.2-3.5.5-5.2.6-3 1.9-6.1 1.4-9.1 4.7-1.5 9.5-2.7 14.4-3.5 4.4-.5 8.7-1.2 13-2.2v.1c0 .1.1.1.1.1v.1c2.8 3.3 10.9-5.7 12.6-7.3 3.7-3.8 7.1-8.5 8.4-13.6 1.2 6.8 6.5 12.8 10.4 18.2 3.7 5.1 7.3 10.4 11.3 15.4 0 .2.1.3.3.4l4.2 5.1c.1.1.3.2.4.1-4.3 1.9-8.9 1.6-13.6.7h-.2c-.1 0-.1 0-.2.1h-.1c-.2.1-.4.4-.2.7-3 9.5-15.7 8.1-22.9 4.6 0-.1-.1-.1-.2-.1s-.2-.1-.2 0c-.2 0-.2.2-.2.4-3.3 2.5-7.6 4.7-11.9 4.6s-6.8-2.9-10.6-4.1c-.1 0-.2 0-.3.1-.1-.1-.3-.1-.4 0-5.8 3.7-10.9 2.4-16.7 0 .3-1.4.5-2.8.6-4.2.3-.2.6-.3.7-.6z"/><path class="st0" d="M217.4 242.8c.1.1.2.1.3.2.2.1.2.3.2.5 0 .3-.3.4-.6.4v-.5c.1-.2.1-.4.1-.6z"/><path class="st1" d="M231.7 182.7c6.1-1 11.7 0 17.8.1-.6 11-1.4 22.3-1.2 33.3-1.1 1.7-1.7 3.6-1.8 5.6-8.7 1.2-19.8.9-27.5 5.8 0-7.1-.8-14.4-1.3-21.4-.5-6.4-.4-12.9-1.4-19.1 5.2-.8 10.1-3.5 15.4-4.3z"/><path class="st0" d="M218.4 227.9c-.2.1-.2.3-.1.5h-.1v-.6c.1.1.2.1.2.1zM218.7 228.6l.3-.1v.3c-.1.1-.2.1-.4.1h-.4v-.1-.4h.1c.1.2.2.3.4.2z"/><path class="st0" d="M218.7 228.6c-.1 0-.3-.1-.3-.2-.1-.2 0-.4.2-.5h.2v.3c-.1.2-.1.3-.1.4zM219 228.9c0 .1-.1.2-.2.3-.2.1-.4 0-.5-.2h.4c.1 0 .2 0 .3-.1zM218.6 227.7v.1h-.2c.1 0 .2 0 .2-.1zM219.3 181.5v.2c-.1.3-.3.4-.6.4h-.2l.1-.1c.3-.2.5-.3.7-.5z"/><path class="st0" d="M219 228.1v.5l-.3.1h-.1v-.4c.2-.1.3-.2.4-.2z"/><path class="st0" d="M219 228.1c-.1 0-.2.1-.3.1v-.3c.1 0 .2.1.3.2zM218.6 227.7c.1-.1.2-.1.4-.2v.5c-.1-.1-.2-.1-.3-.2l-.1-.1zM219.3 181.5v.1c-.2.1-.4.3-.6.4.2-.2.4-.4.6-.5zM219 228.1zM219.1 228.5c-.1.1-.1.3-.1.3l.1-.3c0 .1 0 .1 0 0zM219.2 228.5h-.1v-.4c0 .1.1.3.1.4zM246.7 222.2v.5c-4.3 1-8.6 1.8-13 2.2-4.9.8-9.7 2-14.3 3.5h-.1c0-.1-.1-.3-.2-.3v-.1c8.5-4.1 18.4-3.8 27.6-5.8z"/><path class="st0" d="M246.6 221.7v.5c-9.1 1.9-19 1.6-27.6 5.8v-.5c7.7-4.9 18.8-4.6 27.6-5.8zM219.2 228.5c0 .1 0 .2-.1.3.1-.1.1-.2.1-.3zM219.2 228.5s0-.1 0 0c.1-.1.1 0 .1 0h-.1zM219.5 159.4c6.3-1.1 12.3-3.2 18-6.1 6.8-3.4 10.1-8.7 15.3-13.6v.4c-2.1 2.3-3.8 5.4-6.2 7.6-3.7 3.4-7.9 6.1-12.6 8-4 1.8-9.6 3.8-14.1 4-.1-.1-.3-.1-.4-.1l-.1.1c0-.1 0-.2.1-.3z"/><path class="st0" d="M220 160.1h-.4c-.1 0-.2-.2-.2-.3l.1-.1c.1-.1.3 0 .4.1.1.1.1.2.1.3z"/><path class="st0" d="M234.1 155.9c4.6-1.9 8.9-4.6 12.6-8 2.4-2.2 4.1-5.3 6.2-7.6v.5c-3.8 5.1-7.3 9.3-12.8 12.8-3.3 2.1-6.9 3.8-10.7 4.9-.1-.1-.3-.2-.5-.2-1.1-.1-2.2.2-3 1 0 0-.1.1-.1.2-1.9.4-3.9.6-5.9.7 0-.1 0-.2-.1-.3 4.6-.3 10.2-2.4 14.3-4z"/><path class="st0" d="M225.9 159.4c1.2-.2 2.4-.6 3.6-.9 2.9 1.7-2.1 9.2-3 10.9-.2.2-.5.2-.7.1.1-.1.2-.3.2-.4l.1.1c.8-1.7 6.3-12.1 1.2-9.8-2.5 1.1-2.9 4.8-2.9 7.1-.1 1.2-.3 3.4 1.2 2.3l.1.1c0 .1-.1.1-.1.2-.1.2 0 .4.2.5-.1.1-.2.2-.3.2-2.8.5-1.8-4.2-1.6-5.8.1-1.8.8-3.4 2-4.6z"/><path class="st0" d="M227.3 159.3c5.1-2.3-.5 8.1-1.2 9.8l-.1-.1v-.2-.2c0-.1-.1-.3-.2-.4 1-2.5 2.3-5.1 2.7-7.7.1-.6.2-1-.5-.9-1.7.3-2.3 2.1-2.7 3.5-.2 1.1-.3 2.3-.3 3.4v1.4c.3 0 .6 0 .8.2-.1.1-.1.3-.2.5l-.1-.1c-1.5 1.1-1.4-1.1-1.2-2.3.1-2.2.5-5.9 3-6.9z"/><path class="st0" d="M225.4 163.2c.4-1.5 1.1-3.2 2.7-3.5.7-.2.5.3.5.8-.3 2.6-1.7 5.2-2.7 7.7-.2-.1-.5-.2-.8-.2v-1.4c-.1-1.1.1-2.2.3-3.4zM225.7 168.7l.3.3c0 .2-.1.3-.2.4-.2-.1-.2-.3-.2-.5 0 0 .1-.1.1-.2z"/><path class="st0" d="M226 168.7v.4l-.3-.3c0-.2.1-.3.2-.5.1.1.1.3.1.4zM229 158.2c.2 0 .3.1.5.2-1.2.4-2.4.7-3.6.9 0-.1.1-.1.1-.2.8-.6 1.9-1 3-.9zM229.8 131.7c.6-.7 1.3-1.3 2.1-1.7l.1.1h-.1c-.1 0-.1.1-.2.2 0 .1 0 .3.2.3-1.3.9-2.2 2.3-3.3 3.2-.1.1-.2.1-.2.3-.1-.1-.2-.2-.1-.3.3-.9.8-1.6 1.5-2.1z"/><path class="st0" d="M228.6 134c.3-.1.5-.2.7-.4 13.4-.1 26.5 3.7 37.8 11 6.1 3.9 12.5 7.4 18.1 12.1 3.9 3.3 8.7 7 11.7 11.3 0 .1 0 .2-.1.3-.1 0-.1.1-.2.1-1.2-1.2-2.9-3.2-4-4.2-3.8-3.2-7.3-6.7-11.3-9.7s-8.9-5.1-12.9-8c-11-8.1-25.5-12.4-39-12.4-.1-.1-.2-.1-.2-.1l-.3.1c-.2 0-.3.1-.5.1v-.2h.2z"/><path class="st0" d="M228.3 134.2c.2 0 .3-.1.5-.1h.6l.1.1c0 .1 0 .3-.2.3h-.5c-.1 0-.2 0-.3-.1-.1 0-.2-.1-.2-.2zM228.6 133.6h.8c-.2.2-.5.3-.7.4-.1 0-.2 0-.3-.1 0-.1.1-.2.2-.3z"/><path class="st0" d="M231.8 130.5h.2c.2 0 .3-.1.5-.1 0 .1-.1.2-.1.2-.8.6-1.5 1.3-2.1 2.1-.3.4-.5.7-.9 1h-.8c1.1-1 2-2.4 3.2-3.2zM229.1 134c.1 0 .2 0 .2.1h-.6l.4-.1zM229.3 134.5c.1-.1.1-.3 0-.4 13.6 0 28 4.4 39 12.4 4.1 2.9 8.9 5 12.9 8s7.5 6.5 11.3 9.7c1.1.9 2.8 3 4 4.2-.1.1-.1.2-.1.3 0 .1 0 .1.1.2-3.3-2.1-6.4-6-9.2-8.5-5.5-4.9-11.4-8.3-17.6-12.1-5.1-3.2-10.5-6-16-8.4v-.2c0-.1 0-.1-.1-.1.1-.2-.1-.3-.3-.3-.2-.1-.5 0-.6.2-7.5-3.1-15.5-4.8-23.6-5 .2.1.2.1.2 0z"/><path class="st3" d="M230.1 132.7c.6-.8 1.4-1.5 2.1-2.1.1 0 .1-.1.1-.2 5.8-1.2 11.6 1.5 17 3 6.8 1.9 13.3 4.5 19.5 7.8 5.4 2.8 11.1 5.4 16 9 3.7 2.7 10.9 7.9 12.4 12.5.1.3.3.6.6.8-.1.9-.2 1.7-.4 2.6-.2.6-.7 1.3-.8 1.9-3-4.3-7.8-8.1-11.7-11.3-5.6-4.6-12-8.1-18.1-12.1-11.2-7.3-24.3-11.1-37.6-11 .4-.3.7-.6.9-.9z"/><path class="st0" d="M232.7 115.7c-1 2.6-.1 6.2.1 8.8.2 1.5 1.1 4.3-.1 5.4l-.4.1c-.1-.1-.3-.1-.4 0-.1-.1-.2-.2-.2-.4v-.1-.1s.1-.1 0 0-.1.2-.1-.2c0-.6.2-1.3.2-1.9 0-1.2-.2-2.3-.2-3.4 0-2.7-.7-6.1.9-8.5 0 .1 0 .1.1.1 0 .1 0 .1.1.2zM231.8 129.3z"/><path class="st0" d="M231.7 130.1c0-.1.1-.2.3-.2h.1c.1.1.3.1.5 0v.1c.1.1.1.2 0 .3-.2 0-.3.1-.5.1h-.2c-.1 0-.2-.1-.2-.3z"/><path class="st0" d="M232.5 129.9c-.1 0-.2.1-.4.1h-.1v-.1c.1-.1.3-.1.5 0z"/><path class="st0" d="M232.4 129.8l.1.1c-.1.1-.3.1-.5 0 .2 0 .3 0 .4-.1z"/><path class="st0" d="M232.6 130s-.1 0 0 0c-.1 0-.1-.1-.2-.1l.4-.1-.2.2zM257 109.7c9-.4 17.6 1.5 26.5 1.7.3 0 .6.3.5.6-.4-.2-.7-.3-1.1-.5-.3-.1-.4.3-.2.4-1.7 0-4.7-.7-6.4-.8-10.9-1.1-23.6-1.3-34.3 1-3.1.8-6.2 1.8-9.2 3v-.1c.1-.1-.2-.2-.3-.1-.1.1-.1.2-.2.3-.1-.1 0-.3.1-.4 8-3.1 16.2-4.9 24.6-5.1z"/><path class="st0" d="M232.7 115.6c-.1 0-.2-.1-.2-.2-.1 0-.1-.1-.1-.2.1-.1.1-.2.2-.3s.3 0 .3.1v.1l-.2.5zM232.6 130c.1 0 .1-.1.2-.2 4.2-1 8.4.1 12.6 1.1 6.4 1.6 12.7 3.7 18.8 6.2 6.8 3.1 13.4 6.7 19.8 10.8 2.3 1.5 4.5 3.2 6.6 5 2.4 2.1 5.1 7.1 8.3 8.1-.2.3-.5.5-.7.8-1.6-1.5-3.7-3.9-5.2-5.6-6.8-7.7-16.5-11.9-25.3-16.7-5.7-3-11.7-5.3-17.9-6.9-4.6-1.2-12.2-4.1-17.1-2.7v-.1c-.2.2-.1.2-.1.2z"/><path class="st0" d="M249.7 132.7c6.2 1.5 12.3 3.9 17.9 6.9 8.8 4.8 18.5 9 25.3 16.7 1.5 1.7 3.6 4.1 5.2 5.6-.3.2-.3.6 0 .9v.8c-.3-.2-.5-.5-.6-.8-1.6-4.7-8.7-9.8-12.4-12.5-5-3.5-10.6-6.2-16-9-6.2-3.3-12.8-5.9-19.5-7.8-5.5-1.5-11.3-4.2-17-3 .1-.1.1-.2 0-.3 4.9-1.5 12.4 1.4 17.1 2.5z"/><path class="st5" d="M232.9 115.6c9.4-2.8 18.5-4.5 28.4-4.4 7.3.1 14.9 1.8 22.1 1.5.1 0 .3 0 .4-.1 5.8 2.8 9.8 7.8 14.4 12.4 5.8 5.5 11 11.5 15.7 18-5.5 5.7-9.5 12.6-15 18.3-3.2-1-5.9-6-8.3-8.1-2.1-1.8-4.3-3.5-6.6-5-6.3-4.1-13-7.7-19.8-10.8-6.1-2.6-12.4-4.7-18.8-6.2-4.2-1.1-8.4-2.1-12.6-1.1 1.2-1.1.2-3.9.1-5.4-.2-2.6-1.1-6.2-.1-8.8 0-.3.1-.3.1-.3z"/><path class="st0" d="M232.9 115.2c3-1.2 6-2.2 9.1-3 10.7-2.3 23.4-2.1 34.3-1 1.8.2 4.8.8 6.4.8.3.2.7.3 1 .5-.1.1-.2.1-.4.1-7.2.3-14.8-1.4-22.1-1.5-9.9-.1-19 1.7-28.4 4.5h-.2l.3-.4zM234.1 248.7c-.1-.1-.2-.2-.2-.3-.1-.1-.1-.2 0-.3.1.2.2.4.2.6z"/><path class="st0" d="M256.9 248c-6 6.2-17.1 7.9-22.9.7.1-.2 0-.4-.2-.6.1-.1.2-.1.3-.1 3.8 1.2 6.4 3.8 10.6 4.1s8.6-2.1 11.9-4.5v.1c0 .1.1.1.1.2l.2.1zM246.6 221.8h.2v.4h-.2c-.1-.2-.1-.3 0-.4zM248.3 216.1v.4c0 .2.1.4.2.5-.9 1.4-1.5 3-1.7 4.7H246.5c.1-2 .7-3.9 1.8-5.6z"/><path class="st0" d="M246.7 222.2v.4c-.1 0 0 .1-.1.1h-.1v-.5h.2zM246.7 222.7v.2c-.1-.1-.1-.1 0-.2zM246.9 222.6c.1.1.1.2.1.3l-.1.1c-.1 0-.1 0-.2-.1v-.2s.1 0 .2-.1c-.1.1-.1 0 0 0z"/><path class="st0" d="M257.2 217c1.9-1.8 3.6-3.6 5.2-5.6 3.7-5.2 6.9-12.2 4.9-18.7h.4c.8 2.7.9 5.6.3 8.4-.2.1-.4.3-.3.5.1.2.1.3.1.4-1.3 5.1-4.7 9.9-8.4 13.6-1.6 1.6-9.8 10.6-12.6 7.3v-.1l.1.1c.1 0 .1 0 .2-.1v-.3c.1 0 .1 0 .1-.1l.1.1c1.6 1.6 5.8-2.1 8.8-5.1l.3.3c.4.5 1.2-.2.8-.7zM246.8 222.6s0 .1 0 0c0 .1-.1.1 0 0-.1 0 0 0 0 0zM246.8 221.7c.1 0 .2.1.3.2 0 .2-.1.4-.1.6-.1 0-.2 0-.2.1v-.4-.5z"/><path class="st0" d="M247 222.6s.1.1 0 0c-.1.1 0 .1 0 0-.1.1-.2.1-.2.1v-.1c.1-.1.1-.1.2 0z"/><path class="st0" d="M247.1 222.5l-.1.1v-.1h.1zM248.5 217c.1.1.3.2.5.2-.8 1.5-1.5 3.1-1.9 4.7-.1-.1-.2-.2-.3-.2.3-1.6.9-3.2 1.7-4.7zM247.1 221.9s.1 0 0 0c.2.2.2.4 0 .6h-.1c0-.2.1-.4.1-.6z"/><path class="st4" d="M247.2 222.5c.1-.2.1-.4 0-.6.4-1.6 1.1-3.2 1.9-4.7.4 0 .7-.3.7-.7v-.5c.6-.9 1-1.7 1.6-2.6 1.7 1.2 3.3 2.5 4.7 4-3 3-7.2 6.7-8.8 5.1h-.1c-.1 0 0 0 0 0z"/><path class="st0" d="M249.8 182.8c.1 2.6.1 5.3.1 8-.1.1-.1.3 0 .5-.2 7.9-.8 15.7-.8 23.5-.2.4-.5.9-.7 1.3-.2-11.1.6-22.4 1.2-33.4 0 .1.1.1.2.1z"/><path class="st0" d="M249 214.9v1.3c-.2.3-.3.6-.5.9-.1-.1-.2-.3-.2-.5v-.4c.2-.5.5-.9.7-1.3z"/><path class="st0" d="M249.8 214.8v1.2l-.7 1.2c-.2 0-.4-.1-.5-.2.1-.3.3-.6.5-.9.2-.4.4-.9.7-1.3z"/><path class="st0" d="M249.9 213.5c-.1.4-.1.9-.1 1.3-.3.4-.5.9-.8 1.3v-1.3l.9-1.3zM249.7 216.5c0 .4-.3.7-.7.7l.7-1.2v.5zM250 181.7c.3 0 .5.3.5.6-.3-.2-.7-.5-1.1-.6h.6zM249.8 182.3v.5h-.3v-.5h.3z"/><path class="st0" d="M249.6 182.4c0-.2.1-.3.3-.3.2 0 .3.1.3.3v.5h-.4v-.5h-.2zM249.9 191.3c.1.3.3.5.6.5h.2c0 3.4-.1 6.9-.2 10.2l-.6 11.4-.9 1.3c.1-7.6.7-15.5.9-23.4zM260.3 197.7c.2-.2.4-.3.6-.5.1-.1.2.1.1.2-3.4 3.6-5.4 8-7.5 12.4-.5.9-.9 1.8-1.5 2.7-.5-.2-1 .5-.5.8-.6.9-1.1 1.7-1.6 2.6v-1.2c.9-1.5 1.8-2.9 2.4-4 1.8-3.1 3.6-7.7 6.2-10.9.5-.4 1-.9 1.3-1.4.1-.2.2-.4.5-.7zM249.9 191.3c-.1-.1-.1-.3 0-.5-.1.2-.1.4 0 .5z"/><path class="st0" d="M250 182.7h.2c.2 2.6.4 5.2.4 7.8h-.2c-.2 0-.5.1-.6.3 0-2.6 0-5.3-.1-8l.3-.1z"/><path class="st0" d="M250.7 191.9h-.2c-.3 0-.5-.2-.6-.5v-.5c.1-.2.3-.3.6-.3h.2V191.9zM251.8 210.5c2-3.4 3.5-7.1 5.9-10.2.3-.1.5-.3.8-.5-2.6 3.3-4.4 7.8-6.2 10.9-.6 1.2-1.5 2.5-2.4 4 .1-.4.1-.8.1-1.3.5-.9 1.2-1.9 1.8-2.9z"/><path class="st5" d="M250.8 202.5c1 0 2-.3 2.9-.7.9-.2 1.9-.5 2.8-.9.4-.1.8-.3 1.2-.5-2.4 3.1-3.9 6.8-5.9 10.2-.6 1-1.3 2-1.9 3l.6-11.4c0 .1.1.3.3.3z"/><path class="st3" d="M250.7 191.9c4.6.4 9.1.6 13.7.7-1.2.6-2.2 1.4-3.1 2.5-.7.8-2.2 2.1-2.4 3.2-1.2.9-2.6 1.6-4.1 2-1.3.4-3.3.6-4.3 1.6-.1.1-.1.2-.1.3.2-3.5.3-6.9.3-10.3z"/><path class="st0" d="M259.1 198.7c-.5.5-1 1.1-1.5 1.6-.4.2-.8.4-1.2.5-.9.4-1.8.7-2.8.9-.9.4-1.9.6-2.9.7-.2 0-.4-.2-.4-.4 0-.1 0-.2.1-.3 1-1 2.9-1.2 4.3-1.6 1.5-.4 2.8-1.1 4.1-2v.3c.1.2.2.3.3.3zM250.6 190.6c7.8.4 16.4 2 24 0 .2 0 .3 0 .4.2-.2.1-.3.4-.2.6-2.3 1-4.7 1.4-7.2 1.3 0-.1-.1-.3-.1-.4-.1-.1-.2-.2-.4-.2s-.3.2-.3.4v.2H264.9c.1-.1.1-.1.2-.1.1-.1.1-.2-.1-.2l-.9.3c-4.6-.1-9.1-.3-13.7-.7v-.7l.2-.7zM251.3 213.4c-.5-.3.1-1 .5-.8-.1.3-.3.6-.5.8zM256.5 217c-.2.1-.3.3-.4.4-1.4-1.5-3-2.8-4.7-4 .2-.3.4-.6.5-.8 1.9 1 3.5 2.4 4.9 4-.1.1-.2.3-.3.4z"/><path class="st5" d="M253.3 209.9c2.1-4.4 4.1-8.8 7.5-12.4.1-.1 0-.3-.1-.2-.2.1-.4.3-.6.5.5-.8 1-1.5 1.6-2.2 1-1.1 2.1-2.1 3.3-2.9H266.9c1.5 8.1-2.2 15.6-7.7 21.4-.4.4-1.3 1.4-2.4 2.5-1.4-1.6-3-3-4.9-4 .5-.9 1-1.7 1.4-2.7z"/><path class="st0" d="M253 139.6l-.2.2v-.1-.2l.2.1zM253 139.6c.1 0 .2.1.3.1-.1.2-.3.3-.4.5v-.4l.1-.2z"/><path class="st0" d="M253.3 139.8v.4c-.1.2-.3.4-.4.6v-.5c.1-.2.2-.4.4-.5zM253.4 139.3c-.1 0-.1 0-.1.1-.1.1-.2.2-.3.2l-.2-.1c.1-.2.4-.3.6-.2z"/><path class="st0" d="M253.5 139.8c.1 0 .2.1.2.1 2.1 15.7 13.9 32.4 27.8 39.9.1.1.2.2.1.3-.1.1-.2.2-.3.1-14.1-6.5-27.4-23.8-28.4-39.6.1-.2.3-.4.4-.6l.2-.2z"/><path class="st0" d="M253 139.7c.1-.1.2-.2.3-.2l.1-.1.3.3c0 .1-.1.1-.1.2-.1 0-.1-.1-.2-.1-.2-.1-.3-.1-.4-.1z"/><path class="st0" d="M253.5 139.8l-.2.3v-.4c.1.1.1.1.2.1zM253.4 139.3c.2 0 .3.1.3.3l-.3-.3z"/><path class="st0" d="M253.7 139.6s0 .1.1.1v.2c-.1 0-.2-.1-.2-.1s0-.1.1-.2zM256.5 217c.1-.1.3-.2.4-.4.1.1.3.2.4.4-.3.2-.6.5-.9.8l-.3-.3c.1-.2.2-.3.4-.5z"/><path class="st0" d="M257.2 217c.4.5-.4 1.2-.9.7.3-.2.6-.5.9-.7zM257.1 247.2s0 .1-.1.1l-.4.3v-.2c.1-.2.3-.2.5-.2z"/><path class="st0" d="M256.7 247.8c0-.1-.1-.1-.1-.2v-.1l.4-.3.1-.1c0 .1.1.1.2.1.1.1.1.2 0 .3l-.1.1c-.1 0-.1-.1-.2-.1l-.3.3z"/><path class="st0" d="M257.2 247.7l-.3.3-.2-.2.3-.2c.1.1.1.1.2.1zM260.5 164.8c4.6 1.1.1 12.1-2.4 13.7-.1 0-.1.1-.2.1-.3 0-.5-.2-.5-.4.1.1.3.1.4 0 2-1.4 6.2-13.4 1.9-12.8-2.6.5-3.2 10.9-2.2 12.3l.1.1-.1.1c-.1.1-.1.2-.1.3-.1 0-.2 0-.2-.1-1.6-1.6-.6-6-.3-8 .3-1.8 1-5.8 3.6-5.3zM259.3 214.1c5.5-5.8 9.2-13.3 7.7-21.4h.4c2 6.5-1.2 13.5-4.9 18.7-1.6 2-3.4 3.8-5.2 5.6-.1-.1-.2-.3-.4-.4 1.1-1.2 1.9-2.1 2.4-2.5z"/><path class="st0" d="M280.5 242.9l.4.1c-.1 9.2-19.4 11.6-24 5l.3-.3c5.5 5.1 22.3 3.9 23.3-4.8zM259.9 172.8c.6-1.8 1.7-4.7.8-6.5-.8-1.6-2 1.2-2.2 1.6-.4 1.3-.7 2.6-.8 3.9-.3 1.9-.2 3.8.3 5.6.9-1.5 1.5-3 1.9-4.6zm-2.3 4.9c-1.1-1.5-.5-11.9 2.1-12.4 4.3-.6.1 11.4-1.9 12.8.2-.1.3-.4.2-.6v-.2l-.4.4zM257.3 247.3c-.1 0-.1 0-.2-.1.1 0 .1.1.2.1z"/><path class="st0" d="M257.3 247.4c7.2 3.5 19.9 4.9 22.9-4.6.1.1.2.2.3.2h.1c-1 8.7-17.9 9.8-23.3 4.8l.1-.1c-.1-.1-.1-.3-.1-.3zM257.6 177.9c0-.1 0-.1 0 0l.3.3c-.1.1-.3.1-.4 0 0-.1 0-.2.1-.3z"/><path class="st0" d="M258 177.4v.2c.1.2 0 .4-.2.6l-.2-.4.4-.4zM258.5 167.9c.2-.4 1.4-3.2 2.2-1.6.9 1.9-.1 4.7-.8 6.5-.4 1.6-1.1 3.1-1.9 4.5-.5-1.8-.5-3.7-.3-5.5.2-1.3.4-2.7.8-3.9zM259.1 198.7h.1l.3-.2c-.4.4-.8.8-1.1 1.3-.2.2-.5.3-.8.5.5-.5 1-1 1.5-1.6zM258.9 198.4v-.3c.2-.1.5-.3.7-.5.1-.1.3.1.3.2v.1c-.3.2-.5.5-.8.7h-.1c0 .1-.1 0-.1-.2z"/><path class="st0" d="M261.3 195.1c.9-1 1.9-1.8 3.1-2.4h.4c-2 1-3.8 3.2-5.1 5.1-.2.2-.5.3-.7.5.1-1.2 1.6-2.5 2.3-3.2zM259.9 198.1c0 .1-.1.3-.2.4l-.1.1-.3.2h-.1c.1-.3.4-.5.7-.7zM259.6 198.6l.1-.1c-.3.6-.7 1-1.3 1.4.4-.5.8-.9 1.2-1.3z"/><path class="st0" d="M264.8 192.7h.3c-1.2.8-2.3 1.8-3.3 2.9-.6.7-1.1 1.5-1.6 2.2 0 0 .1-.1 0 0s-.2.3-.2.2-.1.1 0-.1c0-.2-.2-.3-.3-.2 1.3-1.9 3.1-4.1 5.1-5z"/><path class="st0" d="M259.9 198l.2-.2c-.2.2-.4.5-.4.5.1 0 .1-.1.2-.3 0 0-.1.1 0 0z"/><path class="st2" d="M269.7 148.3c6.2 3.8 12.1 7.3 17.6 12.1 2.8 2.5 5.9 6.4 9.2 8.5 1.9 7 5.4 13.5 7.6 20.4 1.7 5.2 3.1 10.4 4.2 15.7 2.3 11.1 4 25-5 33.5-1.8-4.3-3.3-8.7-4.4-13.2 0-.1-.2-.2-.3-.2-.2 0-.3.1-.3.3v1.2c-.8 1.9-1.9 3.6-3.3 5.1-.8.9-1.8 1.7-2.8 2.3-.5.2-1 .4-1.6.6-7.6-10.9-17.1-21-22.1-33.2-.1-.2-.3-.3-.5-.3.6-2.8.5-5.7-.3-8.4 2.5.1 4.9-.3 7.2-1.3 0 .2.1.3.3.4 5.6 2.2 16.9-1 16.9-8.4 0-5.6-7.6-8.1-10.4-3.1.1-.1 0-.3-.1-.3-13.9-7.5-25.7-24.2-27.8-39.9 5.5 2.2 10.8 5 15.9 8.2z"/><path class="st0" d="M264.3 192.6c.3-.1.6-.2.8-.3.1-.1.1.1.1.2 0 0-.1.1-.2.1h-.7zM266.9 192.7v-.2c0-.2.1-.3.2-.4.2-.1.4 0 .5.2 0 .1.1.3.1.4h-.8zM267.7 202.1c0-.2-.1-.3-.1-.4-.1-.2.1-.5.3-.5 0 .2-.1.5-.2.9z"/><path class="st0" d="M289.6 235.1c-.2.1-.3.4-.3.6-3.9-5-7.6-10.3-11.3-15.4-3.9-5.4-9.2-11.4-10.4-18.2.1-.4.2-.7.3-1 .2 0 .4.1.5.3 5 12.2 14.5 22.3 22.1 33.2-.3.1-.5.2-.7.3l-.2.2zM275.1 190.9c.1.2 0 .4-.2.5h-.1c-.1-.2 0-.5.2-.6.1 0 .1 0 .1.1z"/><path class="st0" d="M275.1 191.2c.1-.1.1-.4 0-.5.1-.1.3-.1.4-.1 5 .7 10.9 0 14.1-4.4 4-5.4-3.4-10.4-7.5-5.4-.3.4-.8-.1-.6-.5 0-.1.1-.2.2-.3 2.8-5 10.4-2.4 10.4 3.1 0 7.4-11.3 10.7-16.9 8.4-.2-.1-.3-.2-.3-.4h.1c0 .2 0 .2.1.1zM280.3 242.2c0 .2-.1.4-.2.5v-.1c-.1-.3 0-.5.3-.6 0 .1 0 .1-.1.2zM280.5 242.9c-.1 0-.2-.1-.3-.2.1-.2.1-.4.2-.5 0-.1.1-.1.1-.1.1 0 .1 0 .2-.1.1 0 .3.1.3.3v.8l-.5-.2z"/><path class="st0" d="M280.9 242.2c0-.1-.1-.3-.3-.3h.1c4.6.8 9.2 1.3 13.6-.7.2-.1.4-.1.5-.2.2-.1.4.1.4.3-.4 2.2-4 2.5-5.7 2.7-2.9.2-5.8-.1-8.6-.9v-.5-.4zM282.7 112c-.3-.1-.1-.5.1-.4.4.1.8.3 1.1.5v.2l-.6-.2c-.2-.1-.4-.1-.6-.1z"/><path class="st0" d="M283.4 112l.6.2c0 .1-.1.2-.2.3-.3-.2-.6-.3-1-.5h.6z"/><path class="st0" d="M298.7 124.3c5.8 5.6 11.4 11.1 15.6 18.1h-.1l-.4.4c-4.7-6.5-10-12.5-15.7-18-4.6-4.5-8.5-9.5-14.4-12.3.1-.1.2-.2.2-.3 6.1 2.5 10.3 7.7 14.8 12.1z"/><path class="st0" d="M297.9 122.5c6.2 6.1 12.8 12.1 17 19.8 0 .1.1.2.1.3 0 .3-.3.5-.6.5l.3-.4c.1-.1.1-.2 0-.2-.1-.1-.2-.1-.3-.1-4.2-7-9.8-12.6-15.6-18.2-4.5-4.3-8.7-9.6-14.7-12v-.2c5.5 2.3 9.6 6.2 13.8 10.5zM290.8 236.2c-.3.1-.7 0-1-.1 0-.1-.1-.1-.1-.1-.1-.1-.2-.3-.3-.4 0-.2.1-.5.3-.6l.2-.1.4.6c.2.2.3.5.5.7z"/><path class="st0" d="M289.4 235.6c.1.1.2.3.3.4-.2 0-.3-.2-.3-.4zM291.6 236c1.1 1.5 2 3 3 4.6v.1c.1.2 0 .5-.3.5-.2.1-.3 0-.4-.1-1.5-1.6-2.9-3.3-4.2-5.1 0 .1.1.1.1.1.3.1.7.2 1 .1.3 0 .5-.1.8-.2zM290.6 234.6c.2.2.3.4.5.7-.3.1-.5.2-.8.2l-.4-.6c.2-.1.4-.2.7-.3z"/><path class="st0" d="M291.1 235.3c.1.2.3.5.5.7-.2.1-.5.1-.8.2-.2-.2-.3-.5-.5-.7.3 0 .5-.1.8-.2zM292.2 234c1-.6 2-1.4 2.8-2.3 1.4-1.5 2.5-3.2 3.3-5.1v1c-1.2 3-4.4 6.7-7.3 7.7-.1-.2-.3-.5-.5-.7.7-.1 1.2-.3 1.7-.6z"/><path class="st0" d="M298.4 227.6c0 .3 0 .7.1 1-.7 1.5-1.6 2.8-2.7 4-1.2 1.4-2.6 2.6-4.3 3.4-.1-.3-.3-.5-.5-.7 3-1 6.2-4.7 7.4-7.7zM296.9 168.8c0 .1.1.3.1.4-.2-.1-.3-.2-.5-.3v-.2c0-.1 0-.2.1-.3.1.2.2.3.3.4z"/><path class="st0" d="M296.7 168.3v.2c0 .1 0 .2.1.2l-.2-.2c0-.1 0-.1.1-.2zM297 169.3c1.9 5.5 5.1 10.8 6.9 16.5 4.5 13.5 13.8 42.3-.5 53.2-.1-.1-.1-.2-.1-.3 9.1-8.6 7.4-22.4 5.1-33.6-1.1-5.3-2.5-10.5-4.2-15.7-2.2-6.9-5.8-13.4-7.6-20.4.1.1.2.2.4.3z"/><path class="st0" d="M297.1 168.6s0 .1.1.1h-.4c0-.1-.1-.1-.1-.2v-.2c.1-.1.2-.1.3 0 .1 0 .1.1.1.1v.2z"/><path class="st0" d="M296.8 168l.2.4c-.1-.1-.2-.1-.3 0 0-.2 0-.3.1-.4zM296.8 168.7zM296.8 168.8h.4l.3.6h-.2c-.1-.1-.2-.1-.3-.2 0-.1-.1-.3-.2-.4zM297.6 166.2c.2-.8.4-1.7.4-2.6.1.1.3.1.4.1-.1 1.7-.3 3.7-1.3 4.7l-.1-.1-.2-.4c.1-.5.6-1.2.8-1.7z"/><path class="st0" d="M297.5 169.4c5.9 13 11.2 25.6 13.6 39.9 1.7 10.4 1.7 23.3-7.6 30v-.3-.1c14.3-10.9 4.9-39.7.5-53.2-1.8-5.7-5-11-6.9-16.5.1.1.2.1.3.2h.1zM297.1 168.5s.1 0 0 0c.1 0 .1.1.1.2 0-.1-.1-.2-.1-.2 0-.1 0 0 0 0z"/><path class="st0" d="M298.3 163.7c.1 0 .3 0 .4-.1 0 1.8-.1 4.8-1.6 5.1 0 0 0-.1-.1-.1v-.2h-.1c1.1-.9 1.5-3 1.4-4.7zM297.5 169.2v.2l-.3-.6c.2.1.2.3.3.4zM298.5 162.3h-.1c-.2 0-.3.1-.4.3v.2c-.2-.3-.2-.6.1-.9l.4.4z"/><path class="st0" d="M298.5 163.1v.6c-.1 0-.3-.1-.4-.1v-.8c.1.2.2.3.4.3z"/><path class="st0" d="M298.1 162.7v-.2-.1c.1-.2.3-.3.4-.2 0 .1.1.1.1.1.1 0 .1.1.1.2v.5h-.4s-.2-.1-.2-.3z"/><path class="st0" d="M298.8 161.1s.1 0 .1.1c.2.1.4.1.6.3l-.9.9h-.1l-.4-.4c.3-.3.5-.6.7-.9zM298.3 226.6v-1.2c0-.1.1-.3.2-.3.2 0 .3.1.4.2 1.1 4.5 2.5 9 4.4 13.3l-.3.3c-2.1-3.5-3.4-7.4-4-11.4.1-.5.2-1 .1-1.5 0-.1-.2-.2-.3-.1-.2.3-.3.5-.5.7z"/><path class="st0" d="M298.7 226.5c-.1.4-.2.8-.4 1.2v-1c.1-.2.2-.5.3-.7.1.1.1.3.1.5zM298.8 163.1v.5c-.1.1-.3.1-.4.1v-.6c.1.1.3.1.4 0zM298.8 226.5c0 .3.1.6.1 1-.1.4-.2.8-.4 1.2-.1-.3-.1-.7-.1-1 .2-.5.3-.8.4-1.2zM298.6 162.4l-.1-.1h.1v.1zM299.5 161.4c.2.1.3.4.4.6-.2.3-.5.5-.7.8-.1.1-.2.2-.4.2v-.5c0-.1 0-.2-.1-.2.3-.3.6-.6.8-.9z"/><path class="st0" d="M298.7 225.9c.1-.2.3-.1.3.1.1.5 0 1-.1 1.5-.1-.3-.1-.7-.1-1-.1-.2-.2-.4-.1-.6zM302.9 238.9c-.2.2-.2.4-.1.5.1.1.3.1.4.1l.2-.2c-.1.3-.4.5-.7.2-2.4-3.1-3.9-6.9-4.3-10.8.2-.4.3-.8.4-1.2.7 4 2.1 7.9 4.1 11.4zM299.1 162.9c.3-.3.5-.5.7-.8 0 .7-.4 1.3-1.1 1.5v-.5c.2 0 .3-.1.4-.2zM313.9 142.9l.2.2c-4.9 6-9.2 12.9-14.5 18.4l-.6-.3s-.1 0-.1-.1c5.5-5.7 9.5-12.6 15-18.2z"/><path class="st0" d="M314.1 143c.1.1.2.1.3.1-4.3 6.7-9.1 13.1-14.5 19 0-.3-.1-.5-.4-.6 5.4-5.6 9.7-12.4 14.6-18.5zM303 238.9l.2.3.3-.3v.4l-.2.2c-.1.1-.3.1-.4-.1-.1-.1-.1-.3.1-.4v-.1z"/><path class="st0" d="M303.3 238.6c0 .1.1.2.1.3l-.3.3-.2-.3.4-.3zM314.3 142.3l.2.2c-.1.1-.2.3-.4.5l-.2-.1c.1-.2.2-.4.4-.6z"/><path class="st0" d="M314.3 142.4h.2c.1.1.1.2.1.3l-.3.4c-.1 0-.2 0-.3-.1.1-.1.2-.3.4-.5l-.1-.1z"/><path class="st6" d="M247 118.6c18 5.5 40 11 58.7 21.4"/><path class="st3" d="M305.3 140.6c.9.4 1.6-.8.8-1.3-9.1-5-18.8-9.2-28.7-12.3-9.6-3.2-20.1-7.7-30.1-9-.6-.1-1.1.8-.5 1.1 8.6 4.2 19 5.8 28.1 8.8 10.4 3.5 20.6 7.7 30.4 12.7z"/><path class="st6" d="M265.6 134.5c2.7-5.5 11-14.5 11.7-18.6"/><path class="st3" d="M277.6 115.5c-.2-.1-.4 0-.5.1-.4.8-1.3 1.8-1.8 2.6-1.1 1.8-2.3 3.6-3.6 5.3-2.5 3.3-5.2 6.5-7.1 10.2-.7 1.5 1.5 2.8 2.3 1.3 3.3-6.2 8.9-11.4 11.3-18 .1-.4 0-.7-.3-1-.1-.1-.1-.2-.1-.4 0 .1-.1 0-.2-.1zM279.6 165.3c-1.8 3.1-8-3.5-5.1-6.5 4-3.8 7.9 6.2 4.1 6.3"/><path class="st6" d="M279.6 165.3c-1.8 3.1-8-3.5-5.1-6.5 4-3.8 7.9 6.2 4.1 6.3"/><path class="st3" d="M278.5 164.5c-.6.1-.5 1.1.1 1.1 4.8 0 1-10.8-3.7-8-2.7 1.6-2.1 4.8-.4 6.9 1.1 1.5 4.7 3.9 5.5.9.1-.4-.4-.8-.7-.5-2.6 2-7-4.3-3.7-6 2.8-1.5 5.2 5.3 2.9 5.6z"/><path d="M269.6 161.7c-1.7-.3-2.5-4.2-.8-4.6 2.1-.9 2.3 3.5 1.4 4.5" fill="#f9cfb3"/></g></g><path d="M182.3 201.1l-14.6-19.7c3.8-4.7 6.1-10.6 6.1-17.1v-55.5c0-14.9-12.1-27-27-27H56.2c-14.9 0-27 12.1-27 27v55.5c0 14.9 12.1 27 27 27h90.6c3.4 0 6.7-.6 9.8-1.8l25.7 11.6z" fill="#eae2d8" stroke="#b6a17e" stroke-miterlimit="10"/><g id="レイヤー_1-2_1_"><g id="レイヤー_1-2-2"><g id="グループ_417"><g id="グループ_371"><g id="アセット_1" opacity=".9"><g id="_2"><g id="グループ_352"><path id="パス_446" d="M82.9 86l-.2 1.9-.7 1.3-.3 1.3-.6 1.3-.3 1.4-.1 1.4-.7 1.2-.3 1.4-.4 1.3-.4 1.3-.6 1.3-.2 1.4-.2 1.4-.4 1.3-.6 1.3-.3 1.4-.5 1.3-.2 1.4-.7 1.2-.1 1.4-.7 1.2-.5 1.3-.2 1.4-.5 1.3-.2 1.4-.7 1.2.1 1 .1.8h.5l-.3 3v-2.3l-.6.5-.3-.3-.8 1.2v1.5l-.8 1.2-.4 1.3-.3 1.4-.6 1.3-.4 1.3-.5 1.3-.1 1.5-.7 1.2-.2 1.4-.3 1.4-.7 1.2.7 1.1-1.4 1.6-.7 1.2-.2 1.4-.3 1.4-.8 1.2-.2 1.4-.6 1.2-.2 1.5-.5 1.3-.4 1.3-.5 1.2-.4 1.3-.7 1.2-.2 1.5-.5 1.3-.3 1.4-.5 1.3-.7 1.1-.2 1.2.2.6.4.3.4.3.8-.9.1 1.2.7-.7.4.2.7-2.4.1 2.9.5-.1.4.1.5-.1.5-.1.2 1 .6-.4.6-.3.2.8.6-.5.5-.2.3.7.3.7.6-.3.3.5.6-.5.6-.4.2.9.6-.5.2.9.4.2.5-.2 1.5-2.9-.8 3.8.6-.3.6-.3.2.8.6-.5.6-.4v1.5l.4.2.7-.6.3.7.5-.2.7-.7.2.9h.5l.2.8.4.2.5-.2.7-.8.2 1 .3.5.8-1.1.1 1.3.5-.2h.5l.8-.2h.5l.1 1.2.3.5.5-.1.4.2.7-.9.4.1.4.3.2.8.3.5.8-1 .3.5.2.9.4.4.6-.3.4.1.7-.6.2.9.4.3.5-.1.5-.1.3.6h.5l.2.8.4.3.7-.8.5-.1.4.3.2.8 1.1-3.8-.2 3.9.3.5.4.1.3.6.7-.8.4.3.1 1.2.7-.6.6-.3.2.8.2 1 .6-.5.3.6.4.3.6-.5.4.3.2.7.5-.1.3.6.3.6.5-.1.7-.6v1.5l.9-1.2v1.4l.6-.4.4.2h.5l.3.6.1 1.1h.5l.7-.6v1.5l.6-.3.5-.1.1 1.2.6-.4.5-1.3.1-1.3.5-1.4.4-1.4.5-1.4.1-1.3.6-1.4-.1-1.4.4-1.4.7-1.3.2-1.4.2-1.4.7-1.3-.2-3.2.7.5.4-1.4.4-1.3.3-1.4.7-1.3.4-1.3-.1-1.4.8-1.3.4-1.4.4-1.4.4-1.3.4-1.3.4-1.4.3-1.4.4-1.3.4-1.4.5-1.3.4-1.3.3-1.4.4-1.3.3-1.4.6-1.3V138l.8-1.2.4-1.3.5-1.3v-1.5l.4-1.3.5-1.3.6-1.3.1-1.5.7-1.2.4-1.4.3-1.4.7-1.2.3-1.4.2-1.4-.9-1.1 2-1.5.5-1.3.3-1.4.4-1.4.5-1.3.4-1.4.6-1.3.4-1.4.4-1.4.2-1.4.8-1.4-.6.4h-.5l-.5.1-.3-.8-.8 1.2-.1-1.4-.8 1.4-.3-.5-.5.1-.2-.9-.5.2h-.5l-.6.6-1.5 3 .7-3.2-.5.1-.6.4-.5.1-.3-.5-.5.2-.6.3h-.5l-.4-.4-.3-.7-.6.6-.2-.8-1.2 2.4.1-1.9-.6.6-.2-1.1-.7.6-.5.3-.4-.2-.2-1.2-.5.3-.2-.9-.5.1-.8 1.1-.1-1.4-.5.2-.5.1-.6.3-.5.1-.3-.6-.5.1-.5-.1-.5.1-.2-.9-.7.9-.3-.4-.3 1.8-.4.9.1 1.3-1.3 2.5.9-2.1.1-2.8-.1-1.5-.5.1v-1.5l-.5.3-.7.7-.3-.6-.3-.5-.7.6h-.5l-.1-1.2-.4-.2-.8 1-.3-.7-.3-.7h-.5l-.6.3-.6.5-.2-.7-.4-.1-.3-.5-.6.3-.4-.3-.4-.2-.3-.6h-.5L99 100l-.8 2.1.9-3.3.8-2.1-.7.6-.1-1.1-.7.7-.1-1.1-.8 1.1v-1.3l-.6.3-.6.5-.4-.4-.3-.5-.4-.1-.3-.6-.5.1-.3-.6-.2-.9-.5.1-.5.1-.2-.9-.8.9-.4-.2-.2-.9-.3-.5-.7.7-.2-.7-.4-.1-.1-1.2-.8.8-.4-.2-.4-.2-.3-.5-.4-.3-.3-.5-.6.2-.3-.6-.1-1.2-.6.3-.9 1.9-.1-1.8-.1-1.1-.2-.8-.7.6-.3-.6-.2-.7z" fill="#d1be96"/></g></g></g><g id="アセット_1-2" opacity=".7"><g id="_2-2"><g id="グループ_352-2" opacity=".5"><radialGradient id="パス_446-2_1_" cx="397.194" cy="553.648" r=".066" gradientTransform="matrix(209.4388 -676.6508 -440.931 -182.9146 161028.375 370170.219)" gradientUnits="userSpaceOnUse"><stop offset="0" stop-color="#fad2a7" stop-opacity="0"/><stop offset="1" stop-color="#452c11"/></radialGradient><path id="パス_446-2" d="M82.9 86l-.2 1.9-.7 1.3-.3 1.3-.6 1.3-.3 1.4-.1 1.4-.7 1.2-.3 1.4-.4 1.3-.4 1.3-.6 1.3-.2 1.4-.2 1.4-.4 1.3-.6 1.3-.3 1.4-.5 1.3-.2 1.4-.7 1.2-.1 1.4-.7 1.2-.5 1.3-.2 1.4-.5 1.3-.2 1.4-.7 1.2.1 1 .1.8h.5l-.3 3v-2.3l-.6.5-.3-.3-.8 1.2v1.5l-.8 1.2-.4 1.3-.3 1.4-.6 1.3-.4 1.3-.5 1.3-.1 1.5-.7 1.2-.2 1.4-.3 1.4-.7 1.2.7 1.1-1.4 1.6-.7 1.2-.2 1.4-.3 1.4-.8 1.2-.2 1.4-.6 1.2-.2 1.5-.5 1.3-.4 1.3-.5 1.2-.4 1.3-.7 1.2-.2 1.5-.5 1.3-.3 1.4-.5 1.3-.7 1.1-.2 1.2.2.6.4.3.4.3.8-.9.1 1.2.7-.7.4.2.7-2.4.1 2.9.5-.1.4.1.5-.1.5-.1.2 1 .6-.4.6-.3.2.8.6-.5.5-.2.3.7.3.7.6-.3.3.5.6-.5.6-.4.2.9.6-.5.2.9.4.2.5-.2 1.5-2.9-.8 3.8.6-.3.6-.3.2.8.6-.5.6-.4v1.5l.4.2.7-.6.3.7.5-.2.7-.7.2.9h.5l.2.8.4.2.5-.2.7-.8.2 1 .3.5.8-1.1.1 1.3.5-.2h.5l.8-.2h.5l.1 1.2.3.5.5-.1.4.2.7-.9.4.1.4.3.2.8.3.5.8-1 .3.5.2.9.4.4.6-.3.4.1.7-.6.2.9.4.3.5-.1.5-.1.3.6h.5l.2.8.4.3.7-.8.5-.1.4.3.2.8 1.1-3.8-.2 3.9.3.5.4.1.3.6.7-.8.4.3.1 1.2.7-.6.6-.3.2.8.2 1 .6-.5.3.6.4.3.6-.5.4.3.2.7.5-.1.3.6.3.6.5-.1.7-.6v1.5l.9-1.2v1.4l.6-.4.4.2h.5l.3.6.1 1.1h.5l.7-.6v1.5l.6-.3.5-.1.1 1.2.6-.4.5-1.3.1-1.3.5-1.4.4-1.4.5-1.4.1-1.3.6-1.4-.1-1.4.4-1.4.7-1.3.2-1.4.2-1.4.7-1.3-.2-3.2.7.5.4-1.4.4-1.3.3-1.4.7-1.3.4-1.3-.1-1.4.8-1.3.4-1.4.4-1.4.4-1.3.4-1.3.4-1.4.3-1.4.4-1.3.4-1.4.5-1.3.4-1.3.3-1.4.4-1.3.3-1.4.6-1.3V138l.8-1.2.4-1.3.5-1.3v-1.5l.4-1.3.5-1.3.6-1.3.1-1.5.7-1.2.4-1.4.3-1.4.7-1.2.3-1.4.2-1.4-.9-1.1 2-1.5.5-1.3.3-1.4.4-1.4.5-1.3.4-1.4.6-1.3.4-1.4.4-1.4.2-1.4.8-1.4-.6.4h-.5l-.5.1-.3-.8-.8 1.2-.1-1.4-.8 1.4-.3-.5-.5.1-.2-.9-.5.2h-.5l-.6.6-1.5 3 .7-3.2-.5.1-.6.4-.5.1-.3-.5-.5.2-.6.3h-.5l-.4-.4-.3-.7-.6.6-.2-.8-1.2 2.4.1-1.9-.6.6-.2-1.1-.7.6-.5.3-.4-.2-.2-1.2-.5.3-.2-.9-.5.1-.8 1.1-.1-1.4-.5.2-.5.1-.6.3-.5.1-.3-.6-.5.1-.5-.1-.5.1-.2-.9-.7.9-.3-.4-.3 1.8-.4.9.1 1.3-1.3 2.5.9-2.1.1-2.8-.1-1.5-.5.1v-1.5l-.5.3-.7.7-.3-.6-.3-.5-.7.6h-.5l-.1-1.2-.4-.2-.8 1-.3-.7-.3-.7h-.5l-.6.3-.6.5-.2-.7-.4-.1-.3-.5-.6.3-.4-.3-.4-.2-.3-.6h-.5L99 100l-.8 2.1.9-3.3.8-2.1-.7.6-.1-1.1-.7.7-.1-1.1-.8 1.1v-1.3l-.6.3-.6.5-.4-.4-.3-.5-.4-.1-.3-.6-.5.1-.3-.6-.2-.9-.5.1-.5.1-.2-.9-.8.9-.4-.2-.2-.9-.3-.5-.7.7-.2-.7-.4-.1-.1-1.2-.8.8-.4-.2-.4-.2-.3-.5-.4-.3-.3-.5-.6.2-.3-.6-.1-1.2-.6.3-.9 1.9-.1-1.8-.1-1.1-.2-.8-.7.6-.3-.6-.2-.7z" fill="url(#パス_446-2_1_)"/></g></g></g></g></g></g></g><path class="st14" d="M150.7 102.6l-26.6 7.3v2.8l27.6-5.1z"/><path class="st14" d="M152.5 110.3l-27.6-.4-.8 2.7 27.9 2.8z"/><path d="M75.2 63.8c-.7-.4-1.3-1-1.8-1.9-.6-.8-1.3-1.4-2.1-1.9l-2.7-1c-4.3-4.2-8.2-8.7-11.6-13.5-3.5-4.8-7.8-8.9-12.9-12.3v-.8l1.2-.4c2.9 2.2 5.8 4.6 8.5 7.1 2.8 2.5 5.2 5.3 7.3 8.5l3.5 4.8c1 .7 1.9 1.5 2.8 2.3.9.8 1.7 1.7 2.4 2.7v.4c.8.3 1.7.6 2.5.9.8.3 1.6.9 2.3 1.6l.9 1.7.8.2.2 1-1.3.6zM90.7 58.5l-4-1.2-.6 1h-.8l-.6-1.7c1-2.4 1.5-4.8 1.6-7.5.1-2.6.4-5.3.6-7.9l1-.2c.3 1.1.4 2.4.4 3.7v3.9h.2c.4-.4.9-.7 1.5-.9.6-.2 1.2-.2 1.8-.1l2.7.8c.7 1 1.2 2.1 1.5 3.2.3 1.2.3 2.4.2 3.6-.2.8-.5 1.3-1 1.8s-1 .9-1.6 1.2l-2.9.3zm2.5-2.3c.7-.4 1.1-.9 1.2-1.6.1-.6.1-1.3 0-2-.2-.4-.3-.9-.4-1.3-.1-.5-.4-.9-.8-1.3l-2.5-.4c-.5.3-.9.7-1.1 1.2-.2.5-.5 1-.9 1.5l-1 2.9c.5.4 1.2.7 1.9.9.7.2 1.4.4 2.1.5l1.5-.4zM110.7 59.1c-.9-.2-1.7-.4-2.4-.6-.8-.3-1.4-.8-2-1.5-.4-.4-.6-.9-.6-1.6v-2l3.1-5.6c.4-.4.9-.7 1.5-.7.6-.1 1.2-.1 1.9-.1 1 1.2 1.8 2.6 2.5 4 .7 1.5.9 3.1.6 4.9-.2.4-.4.9-.6 1.4-.3.5-.6.9-1 1.2-.4.3-.9.4-1.4.5-.6 0-1.1.1-1.6.1zm1.6-2.1c.7-.4 1-1 1-1.9v-2.3l-1.4-3.1h-.9l-1.7.4c-.5.8-1 1.7-1.4 2.5-.4.8-.6 1.8-.4 2.9.6.7 1.3 1.1 2.1 1.3.8.2 1.7.3 2.5.3l.2-.1zM130.5 59.1c-.9-.2-1.7-.4-2.4-.6-.8-.3-1.4-.8-2-1.5-.4-.4-.6-.9-.6-1.6v-2l3.1-5.6c.4-.4.9-.7 1.5-.7.6-.1 1.2-.1 1.9-.1 1 1.2 1.8 2.6 2.5 4 .7 1.5.9 3.1.6 4.9-.2.4-.4.9-.6 1.4-.3.5-.6.9-1 1.2-.4.3-.9.4-1.4.5-.5 0-1.1.1-1.6.1zm1.7-2.1c.7-.4 1-1 1-1.9v-2.3l-1.4-3.1h-.9l-1.7.4c-.5.8-1 1.7-1.4 2.5-.4.8-.6 1.8-.4 2.9.6.7 1.3 1.1 2.1 1.3.8.2 1.7.3 2.5.3l.2-.1zM145.2 59.8l-.4-1.7.6-3.1-.2-1c.7-1.4 1-3 .9-4.8-.1-1.8-.1-3.5-.1-5.2l-.6-5.6 1.2-.4c.7 2.1 1.1 4.3 1.1 6.7.1 2.4.1 4.9.1 7.4l-.2.8h1.2c1-.4 1.9-.9 2.9-1.6 1-.6 1.9-1.1 2.9-1.6l.4 1.2c-.6.8-1.3 1.4-2.1 1.9-.8.4-1.7.8-2.5 1.2l-2.1.6v.4l1.4 1.4c.5.5 1 .8 1.6.9l.2 1-1.5.7-2.9-2.1-.9 2.7-1 .2zM163.1 59.7c-.4-.4-.6-.9-.6-1.4v-1.6l.6-6.9 1-.2c.3.3.4.6.4 1v1.3h.4c.5-.7 1.2-1.3 1.9-1.7.7-.4 1.5-.6 2.3-.4l1.4 1.7.7 1.4 1.2.2 2.9-.4c.5.4.8.9.8 1.5s.1 1.1.2 1.6l1.2.4.2 1-1.4.4-1.3-.6c-.3-.3-.4-.6-.5-1l-.3-1.2-1-.2-1.9 2.3-.2 1.2-1 .2c-.6-1-.8-2.1-.6-3.3.1-1.2-.1-2.3-.8-3.1l-.8-.2c-1.3 1.1-2.2 2.3-2.8 3.5-.6 1.3-.9 2.6-.9 4.2l-1.1.3zM194.4 59.3l-1.7-1-.6-1h-.4c-.9.5-1.8.9-2.9.9-1.1.1-2.2.1-3.3.1l-1.5-.9c-.4-.4-.7-.9-.8-1.5-.1-.6-.1-1.2 0-1.9l1.4-3.3c1-1 2.1-1.9 3.2-2.7 1.2-.8 2.5-1 4-.6l1.4 1c.6.8.8 1.8.7 2.8-.1 1-.1 2-.1 3l-.4 2.1.8 1 1.9.2.2 1c-.3.3-.6.5-.9.5-.2.3-.6.3-1 .3zm-4.2-3.3c1.1-.7 1.7-1.6 1.8-2.7.1-1.1.1-2.2.1-3.3-.4-.4-.9-.6-1.3-.6h-1.6l-3.7 3.5-.4 2.9c.3.4.7.6 1.3.6h1.6l2.2-.4zM205.3 58.6c-.4-.4-.6-.9-.6-1.5v-1.6c.4-1 .6-2.1.6-3.2v-3.6l-.6-2.5.6-.8h.8c.4.5.7 1.2.8 2l.3 2.4h.6c.3-.3.7-.4 1.2-.4h1.4l3.3 1 .2 1c-.3.3-.6.4-.9.4h-.9l-3.1-.6c-1.1 1-1.7 2.1-1.9 3.4-.1 1.3-.3 2.6-.6 3.9l-1.2.1zM224.6 59.8l-.4-1.7.6-3.1-.2-1c.7-1.4 1-3 .9-4.8-.1-1.8-.1-3.5-.1-5.2l-.6-5.6 1.2-.4c.7 2.1 1.1 4.3 1.1 6.7.1 2.4.1 4.9.1 7.4l-.2.8h1.2c1-.4 1.9-.9 2.9-1.6 1-.6 1.9-1.1 2.9-1.6l.4 1.2c-.6.8-1.3 1.4-2.1 1.9-.8.4-1.7.8-2.5 1.2l-2.1.6v.4l1.4 1.4c.5.5 1 .8 1.6.9l.2 1-1.6.4-2.9-2.1-.9 2.7-.9.5zM248.4 59.3l-1.6-.8-.7-1.7c.2-.6.4-1.1.6-1.7.3-.5.7-1 1.3-1.5l1.4-.4 1.5 1.2.2 2.5-1 1.7-1.7.7zm-.4-11.5c-.7-1.1-1-2.4-.9-3.7.1-1.4.1-2.7.1-3.9l.9-1.9 1-.2.4 1.3c-.4 1.1-.6 2.2-.5 3.4.1 1.2.1 2.4.1 3.6l.2 1-1.3.4zM264.4 64.5L264 63c2.5-1.9 4.8-4.1 6.8-6.4s3.9-4.8 5.6-7.3c1.5-3.6 3.8-6.9 6.8-9.9s5.7-6.1 8.2-9.2l1-.2.4 1.2c-4.9 4.7-9 9.8-12.6 15.4-3.5 5.5-7.6 10.7-12.3 15.6-.6.4-1.1.9-1.7 1.5-.5.5-1.1.8-1.8.8z"/><g><path class="st15" d="M99.8 122.8l2.7 28.2 18.2-21.4 1.1.4-19 22.4-1.4-.4-2.9-29.4 1.3.2zM94.7 121.1L82 117l-1.4-.4 3 29.4 1.4.5 11.2-13.2z"/></g></svg>