<svg id="レイヤー_1" xmlns="http://www.w3.org/2000/svg" viewBox="0 0 530 236.3"><style>.st0{fill:#1d3033;stroke:#1d3033;stroke-width:.66;stroke-linecap:round;stroke-linejoin:round}.st1{fill:#e98d4b}.st2{fill:#f7e5d7}.st3{fill:#2e5731}.st4{fill:#308d3a}.st5{fill:#818e30}.st6{fill:#ec7b7b}.st7{fill:#fff}.st8{fill:#f1f1f1}.st9{fill:#dadada}.st10{fill:#9fb05a}.st11{fill:#989898}.st13{fill:none}</style><g id="レイヤー_1-2"><g id="レイヤー_3-3"><path class="st0" d="M235.1 126.9c.2 0 .3-.1.3-.3v-.1l.9.9c.2.2.2.4 0 .6-.1.1-.3.2-.5.1-1.5-.9-2.9-2.1-4.1-3.3-1-.9-2-1.8-2.9-2.7v-.4c2 1.7 3.9 3.4 6 5.1.1 0 .2.1.3.1zm-5.7 11.6c3.9 2.4 7.8 7.5 6 12.3-2.6 6.8-8.2 9.5-13.3 13.9-.2-.1-.3-.1-.5-.2 2-2.3 5.2-3.3 7.4-5.7 2.6-2.9 5.5-5.5 6.2-9.6.6-3.8-2.8-8-5.8-10.3v-.4z"/><path class="st0" d="M234.9 126c.2.1.4.3.5.4 0 .2 0 .3-.2.4h-.2c-.1 0-.2-.1-.2-.2-.1-.4-.3-.7-.4-1.1.2.2.4.3.5.5z"/><path class="st0" d="M235.4 126.4c-.1-.2-.3-.3-.5-.4-2.3-7.2-6.6-18.3-15-20.2 0-.1 0-.2-.1-.2 9.2 1.5 13.4 13 15.6 20.8zm-6.1 12.4c3 2.4 6.4 6.5 5.8 10.3-.7 4.1-3.5 6.7-6.2 9.6-2.1 2.4-5.3 3.4-7.4 5.7-.1-.1-.3-.1-.4-.2 3.1-3.4 7.3-5.5 10.2-9.2 5.1-6.4 2.3-11-2.4-16.1.1.1.3 0 .4-.1zm5.5-12.1l.2.2-.2-.2zm-.4-1.1c.1.4.3.8.4 1.1-2.1-1.7-4-3.4-5.9-5.1v-.4c1.2.9 2.4 1.9 3.5 2.9.7.4 1.4.9 2 1.5z"/><path class="st0" d="M234.9 126c-.1-.2-.3-.3-.5-.4-2.9-7.7-6.2-16.5-14.4-19.4v-.3c8.3 1.8 12.6 12.9 14.9 20.1z"/><path class="st1" d="M234.4 125.6c-.6-.6-1.3-1-1.9-1.6-1.1-1-2.3-1.9-3.5-2.9v-.1c0-.1-.1-.2-.2-.3h-.2l-.1-.1c-.3-.2-.6.2-.4.5l.2.2c-.5 1.4-.8 2.8-1.1 4.2-.4 1.8-1.1 3.5-1.6 5.2-.7-.8-1.4-1.6-2.2-2.4-.8-1-1.7-1.8-2.8-2.5.2-1.6.3-3.2.3-4.8.1-5.1-.2-10.1-1-15.1 8.3 3.2 11.7 12 14.5 19.7z"/><path class="st2" d="M228.9 138.9c4.7 5.1 7.5 9.7 2.4 16.1-3 3.7-7.1 5.8-10.2 9.2-3.3-1.5-6.7-2.4-10.3-2.8.8-1.2 1.5-2.6 2.3-3.6 1.2 1.2 2.2 2.8 3.8 3.5.2.3.5.4.8.2.2-.1.3-.3.3-.5.7-8.1 2.2-17.1.7-25.2v-.1c.8-3 1.4-6 1.7-9 .5.8 1.2 1.5 1.8 2.2.8 1.2 1.8 2.2 3 2.8.3.1.7-.1.6-.4.1 0 .2 0 .2-.1.6-.9 1-1.8 1.4-2.9.1.6.2 1.3.3 1.9.4 2.7.4 5.4.8 8-.1.1-.1.3 0 .4l.1.1s.1 0 .1.1c-.1 0-.1.1-.1.2.2-.1.2-.1.3-.1zm-2.1 3.1c.3-1.5 1.7-8.4-1.4-7.8-2.6.5-.5 7.3.6 8.5.2.3.8-.1.5-.4.2 0 .3-.1.3-.3z"/><path class="st0" d="M230.6 171.4c.2-.2.2-.5 0-.7.3 0 .6.2.6.5 0 .1 0 .2-.1.3-2.2 4.5-6.3 8.3-10.5 11-.1.1-.2.1-.3.1 0-.1-.1-.3-.1-.4 0-.2-.2-.3-.3-.2-.1 0-.1.1-.2.1-.1-.2 0-.5.1-.6 3.3-3.4 6.9-6.3 9.9-10 .3.2.6.2.9-.1-.1 0-.1 0 0 0z"/><path class="st0" d="M230.6 170.7c.2.3.1.6-.2.8-.2.1-.4.1-.6 0 .2-.2.3-.4.5-.6.1-.1.2-.2.3-.2z"/><path class="st0" d="M210.6 161.8c.1-.1.2-.2.3-.4 3.6.4 7 1.3 10.3 2.8-.2.2-.2.5 0 .6.2.2.5.2.6 0l.3-.2c3.2 1.5 6.1 3.5 8.5 6v.1c-.1 0-.2.1-.3.1-.2.2-.3.4-.5.6-2.9-1.8-5.5-4.1-8.7-5.6-3.5-1.6-7.1-2.9-10.9-3.6.1-.1.2-.3.4-.4zm19-29.4c.3 2 .6 4.1-.2 6-.1-.1-.2-.2-.3-.2.5-3.5-.6-8-1.1-11.4.1-.5.3-.9.3-1.4.7 2.3 1.1 4.7 1.3 7zm-.2 6.1c0 .1-.1.2-.1.3-.1-.1-.2-.1-.3-.2 0-.1 0-.2.1-.3.1 0 .2.1.3.2z"/><path class="st0" d="M229 138.6c.1.1.2.1.3.2-.1.1-.2.2-.4.1l-.1-.1s0-.1-.1-.1 0-.3-.1-.5c.1-.1.2-.1.3 0h.1c.1.1 0 .3 0 .4z"/><path class="st0" d="M228 126.8c.5 3.5 1.6 7.9 1.1 11.4h-.1c-.1-.1-.2-.1-.3 0-.4-2.6-.4-5.4-.8-8-.1-.6-.2-1.2-.3-1.9.2-.4.3-.9.4-1.5zm.6-6c.1-.1.2-.1.3 0 0 0 .1.1.1.2v.1c-.2-.1-.3-.2-.4-.3zm0 .5c-.1-.1-.2-.1-.3-.2v-.2c0-.1.1-.1.1-.1.1.1.2.2.4.3v.4l-.2-.2zm.2 17.5l.1.1c-.1 0-.1-.1-.1-.1z"/><path class="st0" d="M228.9 121.5v.4l-.3-.3c0-.1.1-.3.1-.4 0 .2.1.3.2.3zm-.4.2l.3.3c-.1 1.1-.3 2.3-.5 3.4l-.3-.9c.1-1 .3-1.9.5-2.8zm.1 16.5c0 .2 0 .3.1.5l-.1-.1v-.4zm0-16.9c-.1.1-.1.2-.1.4l-.2-.2c0-.1.1-.2.1-.3.1 0 .2 0 .2.1z"/><path class="st0" d="M228.4 121.1c0 .1-.1.2-.1.3-.1 0-.1-.1-.2-.2-.2-.3.1-.8.4-.5l.1.1-.1.1c-.1.1-.1.2-.1.2zm-1 5.7c0 .5.1 1 .2 1.5-.4 1-.8 2-1.4 2.9-.1.1-.2.1-.2.1v-.1l-.2-.3c.4-1.8 1.1-3.4 1.6-5.2.3-1.4.6-2.8 1.1-4.2l.2.2-.6 2.7c-.1-.1-.2-.2-.3-.1l-.1.1c-.3.9-.4 1.6-.3 2.4z"/><path class="st0" d="M228.3 125.4c-.1.5-.2.9-.3 1.4-.1-.6-.1-1.2-.2-1.7.1-.2.1-.4.1-.7.2.3.3.7.4 1z"/><path class="st0" d="M228 126.8c-.1.5-.2 1-.4 1.5-.1-.5-.2-1-.2-1.5.1-.6.3-1.1.4-1.7 0 .5.1 1.1.2 1.7z"/><path class="st0" d="M227.8 125.1c-.1.6-.3 1.1-.4 1.7-.1-.8 0-1.6.1-2.4 0-.1.2-.2.3-.2s.1.1.1.1c0 .3 0 .6-.1.8zm-2.4 9.1c3.1-.6 1.7 6.2 1.4 7.8 0 .2-.1.3-.3.3-.1-.1-.1-.2-.1-.3v-.1c.2-1.1 1.1-7.2-.6-7.2-2.1-.2-.6 6.8.4 7.8l.1-.2h.2c.3.3-.3.7-.5.4-1.1-1.1-3.2-8-.6-8.5z"/><path class="st0" d="M225.8 134.7c1.7 0 .8 6 .6 7.2v.1l-.3-.6c.2-1 .3-2 .3-3 .1-.8 0-1.5-.1-2.3 0-.2-.4-1.4-.8-.7-.5 1.1-.2 2.7 0 3.9.1.7.3 1.4.5 2.1 0 .1 0 .3-.1.4 0 .2.1.4.3.5l-.1.2c-.8-1-2.3-8-.3-7.8zm.6 7.3c0 .1.1.2.1.3h-.2l.1-.3z"/><path class="st0" d="M226.3 136.1c.1.7.2 1.5.1 2.3l-.3 3c-.2-.7-.4-1.4-.5-2.1-.2-1.1-.6-2.8 0-3.9.3-.7.6.4.7.7zm.1 5.9l-.1.3c-.2-.1-.3-.3-.3-.5v-.4c.1.2.3.4.4.6zm-5.8-15.7v-.3c1 .7 2 1.5 2.8 2.5.8.7 1.5 1.5 2.2 2.4v.1c-.1.1 0 .3.2.4h.1c.1.3-.3.5-.6.4-1.2-.7-2.2-1.7-3-2.8-.6-.7-1.2-1.4-1.8-2.2.1-.2.1-.3.1-.5z"/><path class="st0" d="M225.9 131.2v.1c-.2 0-.3-.1-.3-.2v-.2l.3.3zm-89.6 97.6c.4-.2.9-.4 1.3-.6 6.4 4.3 16.9 4.2 24.1 4.7 7.5.5 15 1.2 22.4 1.3 7.1 0 14.2-.8 21.2-1.5 5.9-.5 12-.8 17.7-2.9v.1c.1.1.2.1.3 0l.1-.1c.2.1.2.3.1.5l-.1.1c-4.8 2.4-10.2 3-15.6 3.7-7.8 1-15.9 2.1-23.7 1.8-8.3-.2-16.6-.8-24.8-1.8-3.2-.4-6.4-.7-9.6-1.3-4.4-.8-9.1-2.8-13.6-2.8-2.1 0-1.1-3 .3-2.6-.4.2-.8.5-1.1.8-.4.3.1.9.5.7.2 0 .4-.1.5-.1z"/><path class="st0" d="M223.5 229.6v.2h-.2c-1.6-1.2-1.1-6.1-1.1-7.8.1-4.2 0-8.3-.2-12.5-.2-6.5.2-13.1-.6-19.4-.4-2.6-1.4-4.9-1.5-7.4.1.1.3.1.4.1 2.3 7.3 2.5 14.2 2.5 21.8 0 5 .4 10 .1 14.9-.1 2.9-1.1 7.4.6 10.1z"/><path class="st0" d="M223.3 229.7h.2c0 .1-.1.2-.2.2s-.1 0-.1-.1v-.1h.1z"/><path class="st0" d="M223.3 229.7h-.2c-3.4-4-1.6-13.2-1.9-17.9 0-1.1-.1-2.1-.1-3.2-.1-4.7 0-9.3-.2-14-.2-4.1-1.7-8.3-1.2-12.4 0-.1.1-.1.1-.2 0 .1.1.3.2.4 0 2.5 1.1 4.9 1.5 7.4.7 6.3.4 13 .6 19.4.2 4.2.3 8.3.2 12.5-.1 1.9-.6 6.8 1 8z"/><path class="st3" d="M221.1 165.8c3.1 1.6 5.7 3.8 8.7 5.6-3 3.7-6.6 6.6-9.9 10-.2.2-.2.4-.1.6 0 0-.1.1-.1.2-.5 4.1 1 8.2 1.2 12.4.3 4.7.1 9.3.2 14h-.9c0-5.9-2.6-12-5.7-16.7-7.5-11.1-21.9-16.3-34.9-16.5 3.6-.6 7.1-1.6 10.5-2.8l-.1.1c-.2 1.3 1 2.6 1.9 3.5.2.2.6.2.8 0 1.1-1.1 2.2-2.1 3.2-3.3.5-.6 1-1.1 1.4-1.8.4-.6.8-1.8 1.5-2.1.3-.1.5-.3.7-.6.9 2.8 2 5.5 3.4 8.1.2.2.5.3.7.2.1 0 .1-.1.2-.2 2.1-4.3 3.8-8.8 5.2-13.3.5-.3.9-.7 1.3-1.1 3.7.9 7.4 2.1 10.8 3.7z"/><path class="st0" d="M221.6 164.4c.1.1.3.1.5.2l-.3.2c-.2.2-.5.2-.6 0-.2-.2-.2-.4 0-.6.1.1.2.2.4.2z"/><path class="st3" d="M221.2 211.8c.2 4.8-1.5 14 1.9 18-5.7 2.1-11.8 2.4-17.7 2.9-7 .6-14.2 1.5-21.2 1.5-7.5 0-15-.7-22.4-1.3-7.2-.5-17.7-.4-24.1-4.7 5.9-2.6 12-3 18.1-5 .3-.1.5-.5.5-.8l.1-.1c1-2 2-4 2.8-6.1.8-1.7 1.4-3.4 1.8-5.3 1.8 1 3.4 2.2 4.9 3.6 6.2 5.7 10.9 10.9 18.9 14.3 6.3 2.6 15.7 3 21.9-.3 6.4-3.4 12.2-9.5 13.4-16.7.2-1 .2-2 .2-3h.9c-.1.9 0 2 0 3z"/><path class="st0" d="M220 106.1c.8 5 1.1 10 1 15.1 0 1.6-.1 3.2-.3 4.8-.1-.1-.1-.1-.2-.1-.1-.1-.4.1-.2.2s.3.4.4.6c-.3 3-.9 6-1.7 9 0-.3-.1-.6-.1-.9 0-.1-.1-.1-.2-.1 1.6-4.5 1.6-8.8 1.6-13.5 0-5-.4-10.1-1.4-15-.7-4-1.4-8.6-4.1-11.8-6.3-7.2-19.4-8.4-28.1-6-3 1-5.7 2.5-8.2 4.4-1.1.6-2.3 1.3-3.3 2h-.2c-2.1 1.2-4.3 2.7-4.9 4.5h-.3c1.5-3.3 4.8-4.4 7.6-6.5 4-3.1 8.8-5.2 13.8-6 7-1 16.2.1 21.8 4.8 3.9 3.3 5.9 8.4 7 13.8-.2 0-.4-.1-.7-.1-.2 0-.2.3 0 .4.2.2.5.3.7.4z"/><path class="st0" d="M220.6 126.3v.4c-.1-.2-.3-.4-.4-.6s.1-.3.2-.2c.1 0 .2.1.2.1.1.1.1.2 0 .3zm-.6 56.2c-.1-.1-.2-.2-.2-.4.1-.1.3-.2.4-.1.1 0 .1.1.1.2s.1.3.1.4c-.1 0-.3 0-.4-.1z"/><path class="st0" d="M218.8 106.3c1 4.9 1.4 10 1.4 15 0 4.7 0 9-1.6 13.5-.1 0-.2.1-.3.2v.9c-.4 1.6-.8 3.2-1.4 4.8-.9 2.2-2.2 4.3-3 6.5-1.1 3.1-2.5 6-4.1 8.9-.1-.1-.3-.1-.4.1 0 0-.1.1-.1.2 0 .2 0 .5-.1.7-2.4 4.1-5.8 7.6-9.7 10.2-.1-.2-.2-.3-.4-.4-.1-.1-.3-.2-.5-.2 5.3-3.6 9.5-8.5 12.2-14.3 3.8-8.3 8.2-17.3 8.5-26.6.3-5.6 0-11.3-.8-16.9-.5-3-.8-6.7-2-9.8-.3-1-.8-2-1.4-2.8-5.4-7.5-16.5-9.5-25.2-7.9-4 .9-7.9 2.4-11.5 4.4 2.5-1.9 5.3-3.4 8.3-4.4 8.7-2.4 21.8-1.2 28 6 2.7 3.2 3.3 7.9 4.1 11.9zm1.4 102.4c0 1-.1 2-.2 3-1.2 7.2-7 13.3-13.4 16.7-6.2 3.3-15.6 3-21.9.3-8-3.4-12.6-8.6-18.9-14.3-1.5-1.4-3.1-2.6-4.9-3.6 0-.2 0-.4.1-.6 0-.1-.1-.2-.2-.2s-.1 0-.2.1-.1.3-.2.4c-3.1-1.6-6.2-3-9.5-4.2-1.9-.7-3.7-1.9-5-3.5-3.4-4.4-5-11.3-1.6-16.1h.1c-1.7 2.1-1.7 4.7-1.4 7.5.1 2 .6 3.9 1.5 5.7 2.2 4.1 5.2 5.6 9.6 6.9 2.6.8 5.2 1.9 7.5 3.4 6.2 4 9.9 10.5 16.2 14.4 7.1 4.3 13.6 6.4 22 5 4.7-.8 7.3-1.6 10.9-4.7 2.5-2.1 4.8-4.6 6.7-7.3 1.6-2.5 2.3-5.4 2.2-8.3-.5-21.6-20.7-33.5-40.6-33.7.2 0 .4-.1.6-.1 13 .1 27.4 5.4 34.9 16.5 3.1 4.7 5.7 10.8 5.7 16.7zm-.3-102.9v.3c-.3-.1-.5-.2-.8-.3-.2 0-.2-.4 0-.4s.4.1.7.1c.1.1.1.2.1.3z"/><path class="st0" d="M219.6 209.4c.2 2.9-.6 5.9-2.2 8.3-1.9 2.7-4.2 5.2-6.7 7.4-3.6 3.1-6.2 3.9-10.9 4.7-8.4 1.4-14.8-.7-22-5.1-6.4-3.8-10.1-10.4-16.2-14.4-2.3-1.5-4.8-2.6-7.5-3.4-4.4-1.2-7.4-2.8-9.6-6.9-.9-1.8-1.4-3.7-1.5-5.7-.3-2.8-.3-5.3 1.4-7.5l.2.1c-2.7 4.4-1.5 11.8 2.1 15.4 2.8 2.8 6 3.3 9.5 4.7 4.4 1.8 8.4 4.5 11.7 8 5.4 5.6 11 11.1 18.8 13.3 6.3 1.8 15.1 2.3 20.8-1.5 8.4-5.6 13.5-13.8 10.8-24.2-1.4-5.7-4.3-10.8-8.5-14.9-8.6-8-19.6-11.4-31.2-12h-.1c.2 0 .4-.1.6-.1 19.8.2 40 12.2 40.5 33.8z"/><path class="st4" d="M218.5 108.9c.8 5.6 1.1 11.2.8 16.9-.3 9.3-4.7 18.3-8.5 26.6-2.7 5.8-6.9 10.7-12.2 14.2-.6 0-1.2.3-1.4.9-10 6.1-22 8.4-33.6 6.5-14.7-2.5-18.8-20.2-19.5-33l.4.6c3.2 5 6.7 10.8 12.2 13.4 9.2 4.2 22.5-.6 29.8-6.7.1-.1.2-.2.2-.3 4.6-2.4 8.4-6 10.9-10.5.7-1.3 1.1-2.9 1.1-4.4 3.5 2.2 13.9 1 15.9.6.3-.1.4-.4.4-.6v-.1c-2.4-4.7-5.3-10.6-10.9-11.1 1.4-.6 2.7-1.4 3.9-2.4 5.9-5 6.6-12.7 6.5-20 0-.2-.1-.4-.2-.5l2.2-.1c1.2 3.3 1.5 7.1 2 10z"/><path class="st0" d="M218.9 135.8c1.5 8.1 0 17.1-.7 25.2 0 .3-.3.6-.6.6-.2 0-.4-.1-.5-.3l.2.1c.2 0 .4-.1.5-.3 0-.1 0-.3-.1-.4l-.1-.1c0-7.8 1.4-16.5 1-23.9l.3-.9zm-.2-1c0 .3.1.6.1.9v.1c-.1.3-.2.6-.3 1 0-.6 0-1.2-.1-1.8 0-.1 0-.1.1-.2s.2-.1.2 0z"/><path class="st0" d="M218.6 136.7c.4 7.4-1 16.1-1 23.9l-.6-.6c-.3-7 .5-14.2 1.1-21.2v-.1c.1-.7.3-1.3.5-2z"/><path class="st0" d="M218.5 134.9c.1.6.1 1.2.1 1.8-.2.7-.4 1.3-.6 2 .1-1 .1-2 .2-2.9l.3-.9z"/><path class="st5" d="M218.2 202.6c2.8 10.3-2.3 18.5-10.8 24.2-5.7 3.8-14.6 3.3-20.8 1.5-7.8-2.2-13.4-7.7-18.8-13.3-3.3-3.5-7.3-6.2-11.7-8-3.5-1.4-6.7-1.9-9.5-4.7-3.6-3.6-4.8-10.9-2.1-15.4 2.4 1.1 4.9 2.3 7.4 3.2 5.9 2.3 11.8 4.5 17.5 7.1 4 1.9 8.3 3.9 12.7 4.7.4 2 1.2 3.9 2.5 5.5 2.8 3.2 8.8 6.1 12.3 2.4 5-5.2-6.5-17.9-12.1-13-.3.1-.6.2-.9.4-9.2-5.8-20.4-7.9-29.8-13.2-1.9-1.1-3.8-2.1-5.8-3 1.3-2 3.2-3.6 5.4-4.6 1.3-.6 2.6-1 4-1.3 1.1-.3 2.3-.2 3.4-.5.7.2 1.4.5 2.2.7 4.9 1.1 10 1.2 15 .3h.1c11.6.5 22.6 3.9 31.2 12 4.3 4.2 7.2 9.3 8.6 15z"/><path class="st0" d="M218.5 134.7c0 .1-.1.1-.1.2-.1.3-.2.6-.2.9v-.9c0-.1.1-.2.3-.2zm-.3 1.1c-.1 1-.2 1.9-.2 2.9v.1c-1.4 4.3-3.1 8.4-5 12.5-.9 2-1.9 3.9-3.1 5.7v-.8c0-.1 0-.2-.1-.2 1.6-2.8 2.9-5.8 4.1-8.9.8-2.3 2.1-4.3 3-6.5.5-1.6 1-3.2 1.3-4.8zm-1.3 24.9v-.7l.6.6.1.1c.2.2.2.4 0 .6-.1.1-.2.1-.4.1l-.2-.1v-.3c0-.1 0-.2-.1-.3z"/><path class="st0" d="M217 161v.3c-1.6-.7-2.6-2.3-3.8-3.5.1-.2.2-.3.3-.4 1.1 1.2 2.2 2.4 3.4 3.4.1 0 .1.1.1.2z"/><path class="st0" d="M216.9 160v.7c-1.2-1-2.4-2.2-3.4-3.4l-.4-.4c-.1.1-.2.2-.3.4h-.1c-1.4 1.5-2.3 3.5-3.6 5.1.1-.5.2-1 .3-1.4.3-.4.6-.8.8-1.2.7-1.2 1.5-2.3 2.4-3.3.2-.2.5-.2.8 0 1.3 1.2 2.4 2.4 3.5 3.5z"/><path class="st1" d="M218 138.8c-.6 7-1.4 14.2-1.1 21.2-1.1-1.1-2.2-2.4-3.4-3.5-.2-.2-.5-.2-.8 0-.9 1-1.7 2.1-2.4 3.3-.2.4-.5.8-.8 1.2.3-1.3.4-2.7.4-4 1.1-1.8 2.2-3.7 3.1-5.7 1.9-4.1 3.6-8.2 5-12.5z"/><path class="st4" d="M216.6 99.1l-2.2.1c-.2-.2-.4-.2-.7-.2-5.8 1.2-12.4 1.2-16.2 6.3-1.2 1.5-2.1 3.3-2.6 5.1-1.5-2.6-3.1-5.8-5.8-7.2-4.1-2.2-9.2-2.4-13.8-3.1-1.6-.3-3.2-.5-4.8-.7 1.2-1.8 2.7-3.4 4.5-4.5h.1c1-.6 1.9-1.1 2.6-1.5l.8-.6c3.6-2 7.4-3.5 11.5-4.4 8.7-1.6 19.8.4 25.2 7.9.5.8 1 1.8 1.4 2.8z"/><path class="st0" d="M215 133.2c.1.2 0 .5-.2.7h-.1c-2.1.3-12.4 1.6-15.9-.6.1-.3.1-.7 0-1 3.1 2.6 12.9 1.7 15.8 1.2-3-5.9-4.7-10.3-11.2-11 .3-.1.5-.2.7-.3 5.6.3 8.6 6.3 10.9 11zm-.4-33.5c.1 7.3-.6 15-6.5 20-1.2 1-2.5 1.8-3.9 2.4-.9-.1-1.8 0-2.7.2-.1 0 0 .1 0 .1l1.2.3c-2.1.8-4.4 1.1-6.6.8.1-.1.2-.2.3-.4.8-.1 1.6-.2 2.3-.3 3.5-.6 7.7-2.1 10.4-4.7 4.4-4.4 5-12.4 4.8-18.3-5 1.1-11.7 1.1-15.2 5.2-1.5 2-2.6 4.2-3.3 6.6v-.1c-.2-.3-.4-.6-.5-.9.6-1.8 1.5-3.6 2.6-5.1 3.8-5.1 10.5-5.2 16.2-6.3.2 0 .5 0 .7.2.1 0 .2.2.2.3z"/><path class="st6" d="M214.1 133c-.4.1-.9.1-1.3.2-2.5.3-5.1.4-7.7.3-2.3-.1-4.6-1-6.5-2.4-.6-2.6-1.7-5.1-3.2-7.3.2-.1.4-.2.6-.4 2.2.3 4.5 0 6.6-.8 3 .8 5.5 1.3 7.6 4 .9 1.2 1.7 2.5 2.3 3.9.4.8.8 1.5 1.2 2.3.1.1.3.2.4.2z"/><path class="st0" d="M212.8 133.2c.4 0 .9-.1 1.3-.2-.1-.1-.2-.1-.3-.1-.4-.7-.8-1.5-1.2-2.3-.7-1.4-1.4-2.6-2.3-3.9-2.1-2.8-4.6-3.3-7.6-4 .3-.1.5-.2.8-.3 6.5.7 8.1 5.1 11.2 11-2.9.5-12.7 1.4-15.8-1.2 0-.4 0-.8-.1-1.1 1.9 1.4 4.1 2.2 6.5 2.4 2.4.1 4.9 0 7.5-.3zm1.1-33.5c.2 5.9-.4 13.9-4.8 18.3-2.6 2.6-6.8 4-10.4 4.7-.8.2-1.6.3-2.3.3.3-.5.2-1.1-.3-1.4-.1-.1-.2-.1-.2-.1-.4-.2-.8-.6-1-1 2.2 1.5 5 1.7 7.5.6 5.3-2 9-5.3 10.1-11.1.5-2.6 2.8-9.8-1.4-9.2-3 .5-6.8.8-9.4 2.5s-9.4 13-6.8 17.1c-.2-.1-.4-.3-.6-.4-.4-2.4.2-5.5 1.1-8.4.1-.1.1-.2.1-.3.7-2.4 1.9-4.6 3.3-6.6 3.4-3.9 10.1-3.9 15.1-5zm-.8 57.3l.4.4h-.7c.1-.2.2-.3.3-.4z"/><path class="st0" d="M213.5 157.3c-.1.1-.2.3-.3.4l-.4-.4h.7zm-.7.1l.4.4c-.8 1.2-1.6 2.4-2.3 3.6h-.5c-.2 0-.4.1-.5.3 0 .2.1.4.3.5-.4.5-.8.9-1.3 1.2.1-.3.1-.5.2-.8 1.4-1.7 2.3-3.7 3.7-5.2z"/><path class="st6" d="M210.9 101c4.2-.7 2 6.5 1.4 9.2-1.1 5.7-4.8 9-10.1 11-2.4 1.1-5.2.9-7.5-.6-2.6-4 4.2-15.3 6.8-17.1s6.4-2 9.4-2.5z"/><path class="st0" d="M210.6 161.8c-.1.1-.2.2-.3.4-.4-.1-.4-.8.1-.8h.5c-.2.1-.2.3-.3.4zm-.7-5.6v.8c-.1.2-.2.4-.4.6 0-.4.1-.8.1-1.3.1-.1.1-.2.2-.3.1 0 .1.1.1.2z"/><path class="st0" d="M209.6 157.5c.1-.2.3-.4.4-.6 0 1.3-.2 2.7-.4 4-.2.3-.4.6-.6 1 .2-1.4.5-2.9.6-4.4zm0-1.2c-.2.3-.3.5-.4.6 0-.2.1-.5.1-.7s.2-.3.3-.3.1 0 .2.1c-.1 0-.1.1-.2.3z"/><path class="st0" d="M209.6 156.3c0 .4 0 .8-.1 1.3-.2.3-.3.5-.5.8.1-.5.1-.9.2-1.4.1-.3.2-.5.4-.7z"/><path class="st0" d="M209 158.3c.2-.2.4-.5.5-.8-.1 1.5-.3 3-.7 4.5-.3.3-.5.7-.6 1.1-.1.1 0 .3.2.3-1.3 4.1-3.3 8.1-4.8 12.2-.1-.3-.2-.5-.3-.8 1.9-5.6 4.8-10.6 5.7-16.5z"/><path class="st0" d="M209.4 161c-.1.5-.2 1-.3 1.4-.2.2-.4.5-.6.7.1-.4.2-.8.3-1.1.2-.3.4-.6.6-1zm-.2-4.1c0 .5-.1 1-.2 1.4-2.5 3.7-5.6 7-9.3 9.6 0-.3 0-.5-.2-.7 4-2.7 7.3-6.2 9.7-10.3zm-.7 6.3c.2-.2.4-.4.6-.7 0 .3-.1.6-.2.8-.1.1-.2.1-.3.2h-.2c0-.1 0-.2.1-.3z"/><path class="st0" d="M208.6 163.5c.1-.1.2-.1.3-.2-1.2 4.6-3.3 9.1-5.2 13.3-.2.2-.5.3-.7.2-.1 0-.1-.1-.2-.2-1.3-2.6-2.4-5.3-3.4-8.1.1-.1.1-.2.1-.3 1.3 2.3 2.2 5 3.3 7.5-.1.2-.1.4-.2.6h.5v.1-.1h.5c-.1-.2-.1-.4-.2-.6 1.5-4.1 3.6-8 4.8-12.2h.4z"/><path class="st0" d="M208.2 163.2c.1-.4.3-.8.6-1.1-.1.4-.2.8-.3 1.1 0 .1 0 .2-.1.3-.1 0-.3-.2-.2-.3z"/><path class="st1" d="M209 158.3c-1 5.9-3.8 10.9-5.8 16.5-.8-2.5-2-4.9-3.5-7 3.7-2.5 6.8-5.7 9.3-9.5z"/><path class="st0" d="M203.4 122.4c-.2.1-.5.2-.8.3l-1.2-.3s-.1-.1 0-.1c.9-.2 1.8-.3 2.7-.2-.2.1-.4.2-.7.3zm.2 53.3c.1.2.2.4.2.6h-.5c.1-.3.2-.4.3-.6z"/><path class="st0" d="M203.6 175.7c-.1.2-.1.4-.2.6h-.1l-.3-.6c.1-.3.2-.5.3-.8.1.2.2.5.3.8z"/><path class="st0" d="M203.4 176.2v.1c-.1 0-.1 0 0-.1zm-.1-1.3c-.1.3-.2.5-.3.8-1.1-2.5-2-5.1-3.3-7.5v-.2c1.5 2.1 2.7 4.4 3.6 6.9zM203 175.7l.3.6h-.5c.1-.3.1-.4.2-.6zm-4.9-6.7c-.2.1-.4.3-.6.4.1-.3.1-.6 0-.9.7-.4 1.4-.8 2.1-1.3.2.2.2.5.2.7-.1-.1-.2 0-.3.1v.2c-.6.3-1 .5-1.4.8z"/><path class="st0" d="M199.7 167.9c-.1.1-.2.2-.3.2-.1-.1 0-.2.1-.3 0 0 .1 0 .2.1z"/><path class="st0" d="M199.7 168.2c0 .1-.1.2-.1.3-.1-.1-.1-.2-.1-.4s.2-.1.3-.2c-.1.1-.1.2-.1.3zm-7.7 7.2c.1.1.2.3.4.4l.4-.4c1.9-1.7 4.2-4 5.3-6.4.5-.3.9-.6 1.3-.9 0 .1.1.3.1.4-.2.3-.4.5-.7.6-.6.3-1.1 1.5-1.5 2.1s-.9 1.2-1.4 1.8c-1 1.2-2.1 2.2-3.2 3.3-.2.2-.6.2-.8 0-.9-.9-2.1-2.1-1.9-3.5 0 0 0-.1.1-.1l.2-.1h.1c.9.4 1.4 1.5 2 2.4-.1.1-.2.3-.4.4zm7.1-8.6c.2.1.3.2.4.4-.7.5-1.4 1-2.1 1.4-.2-.3-.2-.7-.1-1l1.4-.9c.1-.1.3 0 .4.1zm-.3-34.6c.1.3.1.7 0 1-.2-.2-.5-.3-.6-.6 0-.4 0-.9-.1-1.3.1.4.4.7.7.9z"/><path class="st0" d="M198.7 131.1c.1.4.1.7.1 1.1-.3-.2-.5-.5-.7-.9 0-.2-.1-.4-.1-.7h.1c.2.3.4.4.6.5z"/><path class="st0" d="M198.7 131.1c-.2-.1-.4-.2-.6-.4h-.1c-.5-2.4-1.5-4.7-3-6.8.2 0 .3-.1.5-.1 1.5 2.2 2.6 4.7 3.2 7.3zm-1.4 36.4c.2-.6.7-.9 1.4-.9l-1.4.9zm.9-34.8l.6.6c0 1.5-.4 3-1.1 4.4-2.6 4.5-6.3 8.1-10.9 10.5 0-.3-.2-.5-.5-.5v-.1c4.5-2.3 9.5-6.7 11.3-11.5.3-1.1.5-2.3.6-3.4z"/><path class="st0" d="M198.1 131.4c0 .4.1.9.1 1.3-.5-.5-.7-1.1-.5-1.8 0-.2.2-.2.4-.2-.1.2 0 .5 0 .7z"/><path class="st1" d="M197.4 169.4c.2-.1.4-.2.6-.4-1 2.4-3.4 4.7-5.3 6.4-.1-.1-.2-.3-.3-.4.8-.7 1.7-1.5 2.5-2.3 1.1-1 1.9-2.1 2.5-3.3z"/><path class="st0" d="M198 130.7c-.2 0-.3 0-.4.2-.1.6.1 1.3.5 1.8 0 1.1-.2 2.3-.6 3.3-1.8 4.8-6.8 9.2-11.3 11.5l-.1-.9c3.7-2 7.4-4.8 9.5-8.6 3-5.3 1.5-9.6-1.5-14.4v-.1c.2.3.5.4.8.4 1.5 2.1 2.6 4.4 3.1 6.8zm-13.1 66.2c5.6-4.9 17 7.8 12.1 13-3.5 3.7-9.6.8-12.3-2.4-1.3-1.6-2.2-3.5-2.5-5.5l.5.1c.7 4.4 6.4 9.2 10.9 8.7 9.8-1.3-1.7-18-8.3-13.2v-.3l.1-.1c0-.1 0-.1-.1-.2h-.1c-.3-.1-.2-.1-.3-.1zm12.5-28.4c.1.3.1.6 0 .9-1.4.8-2.8 1.5-4.2 2.1-.9.4-1.9.7-2.8 1.1-.1 0-.1 0-.2.1-3.4 1.2-6.9 2.2-10.5 2.8h-1.2c-.1 0-.1.1-.1.1v.1c-5 .9-10.1.8-15.1-.3-.7-.2-1.5-.4-2.2-.7l.4-.1c.2 0 .2-.2.2-.4.6.2 1.2.4 1.8.5 3.7.7 7.5.8 11.3.4 8-.7 15.9-2.6 22.6-6.6z"/><path class="st0" d="M197.4 168.5c-6.7 4-14.6 5.9-22.6 6.6-3.8.4-7.6.3-11.3-.4-.6-.1-1.2-.3-1.8-.5 0-.1-.1-.1-.1-.1-.4-.2-.7-.3-1.1-.3-12.7-4.9-16.6-20.9-16.8-33.5.2.3.3.5.5.8.7 12.8 4.8 30.5 19.5 33 11.6 1.9 23.5-.4 33.6-6.5-.2.2-.1.6.1.9zm-12.3 29.1c6.6-4.8 18.2 11.9 8.3 13.2-4.5.5-10.2-4.3-10.9-8.7h.3c.2 0 .3-.1.3-.2 0 .2.1.3.1.5.6 2 1.8 3.7 3.4 5 1.9 1.6 8.6 5 9.7.7.7-2.8-1.4-6-3.3-7.8-2.3-2.2-4.7-3.2-7.8-2-.3.1-.5 0-.7-.3.2-.2.3-.5.5-.7l.1.3z"/><path class="st0" d="M193.1 200.2c1.9 1.8 4 5 3.3 7.8-1.1 4.4-7.8.9-9.7-.7-1.6-1.3-2.7-3-3.4-5 0-.1-.1-.3-.1-.5-.1-.5-.1-.9 0-1.4.1 0 .2.1.4.2.3.1.6 0 .7-.3.1-.2 0-.5-.2-.6s-.3-.2-.5-.3c.3-.6.6-1.1 1.1-1.6.1.3.4.4.6.3 3-1.1 5.5-.1 7.8 2.1zm1-80c.2.1.4.3.6.4.2.4.6.8 1 1 .5.2.8.7.7 1.2 0 .1-.1.2-.1.2-.7.1-1.4-.1-2-.4.2-.3.1-.7-.2-.8-.1-.1-.2-.1-.3-.1v-1.8l.3.3z"/><path class="st0" d="M194.4 122.7c.6.3 1.3.5 2 .4-.1.1-.2.3-.3.4-.3-.1-.7-.2-1-.3-.1-.1-.3-.2-.5-.2-.1 0-.2-.1-.4-.2.1 0 .1 0 .2-.1z"/><path class="st6" d="M194.2 123.7c2.9 4.8 4.5 9.1 1.5 14.4-2.1 3.7-5.8 6.5-9.5 8.6-.6-3.8-1.5-7.6-1.5-11.6 0-5.5 4.6-8.2 8-11.6v-.1c.4-.1.9-.3 1.3-.5 0 .2.1.5.2.7-.1 0 0 .1 0 .1z"/><path class="st0" d="M195 123.2c.3.1.7.2 1 .3-.2.2-.4.3-.6.4-.1-.3-.3-.5-.4-.7zm-.1.8c-.3 0-.6-.1-.8-.4-.1-.2 0-.4.2-.5h.1l.5.2c.1.2.3.4.4.6 0 0-.2.1-.4.1zm.4-12.5c0 .1 0 .2-.1.3.1-.1.1-.2.1-.3zm-.7-.5l.1-.5c.1.3.3.6.5.9v.1c0 .1-.1.2-.1.3-.1.1-.4.1-.5 0l-.1-.1c0-.1-.1-.2-.1-.2.1-.2.2-.3.2-.5z"/><path class="st1" d="M197.4 169.4c-.6 1.2-1.5 2.4-2.5 3.3-.8.8-1.6 1.6-2.5 2.3-.6-.8-1-1.9-2-2.4h-.1c1-.4 1.9-.7 2.8-1.1 1.5-.6 2.9-1.3 4.3-2.1z"/><path class="st0" d="M194.7 111.8c.1.2.3.2.5.1l.1-.1c-1 2.7-1.4 5.5-1.1 8.4l-.3-.3c-.2-2.8.1-5.7.7-8.4 0 .1 0 .2.1.3zm.3 11.4l-.5-.2c.2 0 .4.1.5.2zm-.2-12.7l-.1.5c-1.2-2.3-2.7-4.3-4.5-6.2-2.4-2.2-4.5-2.4-7.7-3-6.6-1-13.2-2.2-19.9-2.7-4.5-.3-9.1-.1-13.7-.3-4.8-.3-9.6-.1-14.4.8-1.8.3-5.2.8-6.7 1.8-1.3 1-2.2 3.8-3 5.3-1.9 4-3.5 8.1-4.8 12.4-1.7 5.7-3.9 12.4-3.6 18.3 2.3-1.4 4.2-3.9 6.4-5.6 3.7-2.6 7.5-5.1 10.8-8.2v.1c0 .1.1.2.2.3-5.4 4.9-11.4 9.4-17.1 13.8-.4.3-.9-.1-.9-.5-.2-9.7 3.3-20.3 7.4-29 1.4-2.9 2.2-6.5 5.2-8.1 3.1-1.6 7.5-1.8 10.7-2 10.2-.6 20.4-.3 30.5 1-.1.3.3.6.5.3l.2-.3c1.6.2 3.2.4 4.8.7 4.6.7 9.7.9 13.8 3.1 2.7 1.6 4.4 4.9 5.9 7.5z"/><path class="st0" d="M194.6 111c-.1.2-.1.3-.1.5-2.1-3.4-4.4-7.7-8.8-8.6-2-.4-3.9-.7-5.9-1-5.7-1-11.5-1.7-17.3-2.2-10-.5-20.8-1.3-30.6 1-8.6 2-11.8 19-13.6 26.5-.8 2.7-1.2 5.4-1.3 8.1 0 .3 5.1-3.7 5.5-4 3.5-2.9 7.5-5.2 11-8.2.1-.1.2-.1.4-.1-.2.1-.3.4-.2.6-3.3 3.1-7.1 5.5-10.8 8.2-2.3 1.6-4.2 4.1-6.4 5.6-.3-5.9 1.9-12.7 3.6-18.3 1.2-4.2 2.9-8.4 4.8-12.3.7-1.4 1.6-4.3 3-5.3s4.9-1.5 6.7-1.8c4.8-.8 9.6-1.1 14.4-.8 4.5.2 9.1 0 13.7.3 6.7.4 13.3 1.6 19.9 2.6 3.1.5 5.3.7 7.7 3 1.7 1.9 3.2 4 4.3 6.2zm-.8 10.7c.3 0 .6.3.6.6 0 .1 0 .2-.1.3-.2-.1-.3-.2-.4-.3v-.1c0-.1-.1-.3-.1-.5z"/><path class="st0" d="M194.4 122.6c0 .1-.1.1-.2.2l-.3-.2v-.4h.1c0 .2.2.4.4.4zm-.3.2c.1 0 .2.1.4.2-.2 0-.4.2-.4.4v.1c-.1-.2-.2-.4-.2-.7h.2z"/><path class="st0" d="M194.1 122.8l-.2.1v-.2l.2.1zm-.2-.1v.2c-.4.2-.8.4-1.3.5.2-.3-.1-.5-.4-.4-.7.3-1.4.7-2 1.1-10 2.4-18.3-2.8-25-11-1.4-1.7-3.3-3.6-1.5-5.4 2.4-2.4 10-2.5 12.9-1.5 6.1 2 10.1 5.7 14.1 10.7.9 1.1 1.9 2.2 3 3.1 0 .6 0 1.2.1 1.8h-.1l-.3.1c-1-1.2-2-3.2-3-4.5-3.1-4-6.7-7.9-11.5-9.8-3.7-1.5-7.7-1.6-11.5-.4-.8.3-3.5.7-3.8 1.7s2.7 4.7 3.3 5.4c3.1 4.1 7.2 7.2 12 9.1 4.9 1.7 9.9 1.1 14.7-.8l.3.1z"/><path class="st0" d="M193.9 122.3v.4l-.4-.2c.1-.1.3-.1.4-.2zm-.1-.6v.6c-.2-.1-.3-.3-.4-.5l.4-.1z"/><path class="st0" d="M193.9 122.3l-.3.1c-.2-.2-.4-.3-.6-.5.2 0 .3-.1.5-.2.1.3.2.4.4.6z"/><path class="st4" d="M194.5 111.5c-.6 2.8-.9 5.6-.7 8.4-1.1-.9-2.1-1.9-3-3.1-4-4.9-8-8.7-14.1-10.7-2.9-1-10.5-.9-12.9 1.5-1.8 1.8.1 3.7 1.5 5.4 6.6 8.2 15 13.3 25 11-3 1.9-5.3 4.7-6.6 8-1.9 4.7.4 11.2 1.1 16 0 .1.1.2.1.3-8.3 5.4-23.2 9.7-31.1 2.6-8.4-7.5-12.3-19.2-19.2-27.8-.2-.2-.5-.2-.7 0-.1 0-.3 0-.4.1-3.5 3-7.5 5.3-11 8.2-.3.3-5.5 4.3-5.5 4 .1-2.8.6-5.5 1.3-8.2 1.7-7.5 5-24.6 13.6-26.5 9.8-2.2 20.6-1.4 30.6-1 5.8.4 11.6 1.1 17.3 2.2 2 .3 3.9.6 5.9 1 4.4.9 6.7 5.2 8.8 8.6z"/><path class="st0" d="M193.4 121.8c-.2.1-.3.1-.5.2l-.3-.3c-3.6-4-5.8-9-10.7-11.8-4.3-2.7-9.5-3.5-14.4-2.1-.7.2-4.2.6-2.9 2.5 6.8 10.2 16.3 15.5 28.4 11.8.2.2.4.3.6.5-4.6 2.1-9.8 2.4-14.7.8-4.8-1.9-8.9-5-12-9.1-.6-.7-3.7-4.3-3.3-5.4s3-1.4 3.8-1.7c3.8-1.2 7.8-1.1 11.5.4 4.8 1.9 8.4 5.8 11.5 9.8 1 1.2 2 3.1 3 4.4z"/><path class="st6" d="M192.6 121.6l.3.3c-12.1 3.7-21.5-1.6-28.3-11.8-1.3-1.9 2.2-2.3 2.9-2.5 4.9-1.4 10.2-.6 14.5 2.1 4.8 3 7 7.9 10.6 11.9z"/><path class="st0" d="M192.8 175.4l-.4.4-.4-.4h.8zm0 0h-.8c.1-.1.3-.3.5-.4.1.2.2.3.3.4zm-1.1-51.7c-.5.2-1 .3-1.5.4.6-.4 1.3-.8 2-1.1.3-.1.6.2.4.4l-.9.3zm1-.3c-3.4 3.5-8 6.2-8 11.7 0 3.9.9 7.7 1.5 11.6l-.7.4c-.6-4.3-2-9.4-1.4-13.4.7-4.3 4.3-7.5 7.6-9.9l1-.4z"/><path class="st0" d="M190.2 124.1c.5-.1 1-.2 1.5-.4-3.3 2.4-7 5.6-7.6 9.9-.7 4 .7 9.1 1.4 13.4l-.3.1c.1 0 .2.1.3.1 0 .2 0 .4.1.6l.6-.3h-.1c-.4.3-.7.5-1.1.8-.1-.1-.1-.2-.1-.3-.7-4.8-3-11.3-1.1-16 1.1-3.2 3.4-6 6.4-7.9zm.1 48.5l-.2.1c.1-.1.2-.1.2-.1zm-4.7-24c-.2 0-.5-.1-.6-.2.4-.2.7-.5 1.1-.8h.3v-.1c.3 0 .5.3.5.5l-.9.5c-.2.1-.3.1-.4.1z"/><path class="st0" d="M185.9 148.6l.9-.5c0 .1-.1.2-.2.3-7.3 6.1-20.6 10.9-29.8 6.7-5.5-2.5-9-8.4-12.2-13.4l-.4-.6c0-.6-.1-1.2-.1-1.7 2.6 4.3 5.6 8.4 9 12.3 2.6 2.8 7 3.7 10.6 4 4.8.5 8.2-1.4 12.7-2.9 3-1 6.5-2.2 9.1-4.2h.4zm.4-1v.1h-.2c.1-.1.1-.1.2-.1zm0-.1l-.1.1.1-.1zm-.2-.9l.1.9-.2.1-.6-.3v-.3l.7-.4z"/><path class="st0" d="M185.5 147.3l.6.3-.6.3v-.6zm-.1-.3v.3c-.1 0-.2-.1-.3-.1l.3-.2zm-.3 49.9c.1 0 .2.1.1.2l-.1.1v-.2c-.2.1-.4.3-.6.4 0-.1.1-.2.1-.3l.2-.2h.3z"/><path class="st0" d="M185.1 197v.2c-.2.2-.4.5-.5.7-.1-.1-.1-.3-.1-.5.2-.1.4-.3.6-.4zm-.2-48.6c.2.2.4.3.6.2-2.6 2-6.2 3.2-9.1 4.2-4.4 1.4-7.9 3.3-12.7 2.9-3.6-.4-8-1.2-10.6-4-3.4-3.8-6.4-7.9-9-12.3v-.4c0-.2-.2-.4-.4-.4h-.1c-1-1.6-1.9-3.1-2.9-4.6-2.2-3.1-4-7.3-6.4-10.2.1-.2-.1-.5-.3-.6h-.2c.2-.2.5-.2.7 0 6.9 8.6 10.8 20.3 19.1 27.8 8.1 7 23 2.8 31.3-2.6z"/><path class="st0" d="M184.9 197c-.1 0-.2.1-.2.2-.1.1-.1.2-.1.3l-.3.3c0-.1 0-.3-.1-.3.1-.3.4-.4.7-.5z"/><path class="st0" d="M184.5 197.4c-.1.2 0 .3.1.5-.4.5-.8 1-1.1 1.6-.2-.1-.3-.2-.5-.3.2-.4.5-.9.8-1.2.2 0 .3-.1.3-.3l.4-.3zm-1.2 2.6c0-.2.1-.3.2-.5.2.1.3.2.5.3.2.2.3.5.1.7-.1.2-.4.3-.6.2-.1-.1-.2-.1-.4-.2.1-.1.2-.3.2-.5zm.4-2.5c.1-.1.2-.2.3-.2.1.1.2.2.1.3l-.3.3h-.2c-.1-.1-.2-.2-.4-.2.2 0 .3-.1.5-.2z"/><path class="st0" d="M183.9 198l.3-.3c0 .2-.1.3-.3.3zm.1-.7c-.1 0-.2.1-.3.2-1.7-1.1-3.6-2-5.5-2.6-4-1.6-7.9-3.3-11.9-5-1.3-.6-2.6-1-3.9-1.5-.1-.3-.5-.4-.8-.3l-3.9-1.5c-2.7-1.1-4.9-2.7-7.4-4-.7-.4-1.4-.7-2-1 0-.1.1-.3.2-.4 2 .9 3.9 1.9 5.8 3 9.3 5.2 20.5 7.3 29.7 13.1zm-.3.7h.2c-.4.3-.6.8-.8 1.2l-.6-.3c.2-.5.5-.9.9-1.2l.3.3z"/><path class="st0" d="M183.7 197.5c-.1.1-.2.1-.3.2-6.5-3.9-13.8-6.2-21-8.9.1-.1.1-.3 0-.5l3.9 1.5c4 1.7 7.9 3.4 11.9 5 1.9.7 3.7 1.6 5.5 2.7zm-.7 1.7c.2.1.3.2.5.3-.1.1-.2.3-.2.5l-.5-.3c.1-.2.1-.4.2-.5z"/><path class="st0" d="M182.8 199.7l.5.3c-.1.2-.1.4-.1.5-.1-.1-.3-.2-.5-.3 0-.1.1-.3.1-.5z"/><path class="st0" d="M182.7 200.2c.2.1.3.2.5.3-.1.5-.1.9 0 1.4 0-.1-.1-.2-.2-.2s-.3-.1-.4-.1c-.1-.5 0-1 .1-1.4z"/><path class="st0" d="M182.6 201.9v-.3c.1.1.3.1.4.1.1 0 .2.1.2.2 0 .2-.1.3-.3.3h-.3v-.3zm.4-2.7c-.1.1-.1.3-.2.5l-.6-.3c0-.2.1-.3.2-.4.2 0 .4.1.6.2z"/><path class="st0" d="M182.3 199.4l.6.3c-.1.2-.1.3-.1.5-.2-.1-.4-.2-.5-.3s-.1-.3 0-.5z"/><path class="st5" d="M183.3 197.8c-.4.3-.7.7-.9 1.2-6.8-3.4-14-5.5-21-8.4.3-.6.6-1.2 1-1.7 7.1 2.7 14.5 5 20.9 8.9z"/><path class="st0" d="M182.7 200.2c-.1.4-.2.9-.1 1.3-.2 0-.3-.1-.5-.1-.1-.5 0-1 .1-1.5.1.1.3.2.5.3zm-.1 1.7v.3l-.5-.1v-.2h.5zm0-.3v.3c-.2 0-.3 0-.5-.1v-.4c.2.1.3.1.5.2zm-.2-2.6c-.1.1-.1.3-.2.4-6.6-3.4-14.2-5.8-21-8.7l.1-.1c7.1 2.8 14.3 5 21.1 8.4z"/><path class="st0" d="M182.3 199.4c-.1.2-.1.4-.1.5-6.7-3.6-14-6-21-9 0-.1 0-.1.1-.2 6.7 2.9 14.4 5.3 21 8.7z"/><path class="st5" d="M182.1 199.9c-.1.5-.1 1-.1 1.5-7.3-2-14.4-5.8-21.5-9.1l.6-1.5c7.1 3.1 14.3 5.5 21 9.1z"/><path class="st0" d="M182.1 201.8v.2c-4.4-.9-8.6-2.9-12.7-4.7-5.7-2.7-11.7-4.8-17.5-7.1-2.5-1-5-2.1-7.4-3.2.1-.1.1-.2.2-.3v-.1c3.8 1.7 7.6 3.1 11.6 4.6l2.9 1.1c-.2.7.8 1.1 1.1.5 2.5 1 5.1 2 7.5 3.2s4.9 2.3 7.5 3.2c2.3.8 4.4 2.2 6.8 2.6z"/><path class="st0" d="M182.1 201.4v.4c-2.4-.4-4.5-1.8-6.8-2.6-2.5-.9-5-2-7.4-3.2-2.5-1.2-5-2.2-7.5-3.2 0-.1.1-.3.2-.4 7 3.2 14.2 7 21.5 9zm-3.1-25.8c-.2.1-.4.1-.6.1-.1-.1-.1-.1 0-.2h1.2c-.1.1-.3.1-.6.1zm-9-76.2c.6-1.8 2.9-3.3 4.9-4.5-1.8 1.2-3.4 2.7-4.5 4.5h-.4zm0 0c.1 0 .3 0 .4.1l-.2.3c-.2.3-.7 0-.5-.3.1-.1.2-.1.3-.1zm-8.2 89.2c-.2-.1-.4-.1-.5-.2 0-.1.1-.1.1-.2s.1-.1.2-.1l.8.3c.1.1.1.3 0 .5l-.6-.3z"/><path class="st0" d="M162.4 188.8c-.4.5-.7 1.1-1 1.7-.1-.1-.3-.1-.4-.2-.1 0-.2 0-.2.1s0 .2.1.2l.4.2-.6 1.5-.6-.3c.4-1.2 1.1-2.4 1.8-3.5.1.2.3.3.5.3zm-.8-.7c.3-.1.6 0 .8.3l-.8-.3zm-1.4-13.7c-.4-.1-.8-.4-1.2-.5.5-.1 1-.1 1.5 0 .4.2.8.3 1.2.4 0 .2 0 .3-.2.4l-.4.1c-.3-.2-.6-.3-.9-.4zm1.4-.3c.1 0 .1.1.1.1-.4-.1-.8-.3-1.2-.4.4 0 .7.1 1.1.3z"/><path class="st0" d="M161.3 188.4c.2.1.4.1.5.2-.8 1.1-1.4 2.2-1.8 3.5-.2-.1-.4-.2-.6-.2.4-1.3 1.1-2.5 1.9-3.5zm.3-.3c-.1 0-.2.1-.2.1l-.2.2c-3.3-1.2-6.4-2.7-9.5-4.4-8.8-4.9-18.9-7.8-27.6-13v-.4c2 1.2 4.6 1.9 6.8 2.8l.2.1 1 .5h.1c5 2.5 10.2 4.6 15.2 7.1 0 .1 0 .1-.1.1-.1.4.5.6.7.3 0 0 0-.1.1-.1.7.3 1.4.7 2 1 2.5 1.3 4.8 3 7.4 4 1.4.6 2.7 1.2 4.1 1.7z"/><path class="st0" d="M161.3 190.7c0 .1-.1.1-.1.2l-.4-.2c-.1 0-.1-.1-.1-.2s.1-.1.2-.1.3.1.4.2v.1zm-.7 20c-.1 0-.1-.1-.2-.1 0-.1.1-.3.2-.4.1-.1.2-.1.3 0 .1 0 .1.1.1.2 0 .2 0 .4-.1.6-.1-.2-.2-.3-.3-.3z"/><path class="st0" d="M160.6 210.7c.1.1.2.1.2.2-.3 1.8-.9 3.6-1.8 5.3-.8 2.1-1.8 4.1-2.8 6.1l-.1.1c0-.1 0-.2-.1-.3 1.2-3.9 3.4-7.5 4.6-11.4zm-.6-18.6l.6.3c-.1.1-.1.3-.2.4l-1.1-.5c.1-.2.1-.3.2-.5.1.1.3.2.5.3zm.2-17.7c.3.1.6.3.9.4-1.1.3-2.2.2-3.4.5-1.4.3-2.7.7-4 1.3-2.2 1-4.1 2.6-5.3 4.6-.1 0-.3-.1-.4-.2 1.9-3.8 7.8-6.3 12.2-6.6z"/><path class="st0" d="M160.4 210.5c.1 0 .2.1.2.1-1.2 3.9-3.4 7.5-4.5 11.4 0-.1-.1-.2-.2-.2.3-2 .9-3.8 1.9-5.6.8-1.8 1.6-3.8 2.6-5.7zm0-36.7c-.5-.1-1-.1-1.5 0-12.1-5.9-15.8-21.3-15.7-34.3.1.2.3.5.4.7.3 12.7 4.2 28.7 16.8 33.6zm-.1 19c-.3.6-1.4.2-1.1-.5l1.1.5z"/><path class="st7" d="M161.3 188.4c-.8 1.1-1.4 2.2-1.9 3.4-1.7-.8-3.4-1.5-5-2.1-10.6-4.1-20.6-10.7-31.5-13.7.9-1.5 1.3-3.2 1.3-4.9 8.6 5.1 18.7 8.1 27.6 13 3 1.6 6.2 3.1 9.5 4.3z"/><path class="st0" d="M159.4 191.8c-.1.2-.1.3-.2.5l-2.9-1.1c-3.9-1.5-7.8-2.9-11.6-4.6 0-.1 0-.1-.1-.2 0 0-.1 0-.1.1-1.6-.7-3.3-1.4-4.9-2.3-5.5-2.8-11-6.1-17-7.8.1-.1.2-.3.3-.4 10.9 3 20.9 9.6 31.5 13.7 1.6.6 3.3 1.4 5 2.1zm-.4-18c.4.2.8.4 1.2.5-4.4.3-10.4 2.8-12.2 6.6-.1-.1-.2-.1-.3-.2 1.2-2.6 3.8-4.2 6.4-5.4 1.5-.7 3.2-1.2 4.9-1.5zm-22 54l-.1-.1c-.1-.1-.2-.1-.3-.2 5.3-3.5 12.7-4.1 18.8-5.7.2-.1.4-.1.5 0v.3c0 .1.1.2.2.2h.1c.1.4-.1.7-.5.8-6.1 2-12.2 2.4-18.1 5l-.6-.3z"/><path class="st0" d="M156.1 222.1c.1.1.1.2.1.3-.1.1-.3 0-.3-.1v-.4c.1 0 .1.1.2.2zm-7.7-40.9c-.1.1-.2.2-.2.3l-.4-.2c0-.1.1-.2.1-.3.2 0 .4.1.5.2z"/><path class="st0" d="M147.8 181.3l.4.2-.1.1c-.2.3-.9.1-.7-.3l.1-.1c.1 0 .2 0 .3.1z"/><path class="st0" d="M148 181c-.1.1-.1.2-.1.3-.1-.1-.2-.1-.3-.1 0-.1.1-.2.2-.3 0 0 .1 0 .2.1zm-.4-.2c-.1.1-.1.2-.2.3-5-2.5-10.2-4.6-15.2-7.1 5.2 2.3 10.4 4.4 15.4 6.8zm-3.1 5.7c.1-.1.3 0 .2.1l-.2-.1zm-.2.4h-.1c-.1 0 .2-.2.2-.3l.2.1v.1c-.1.1-.2.2-.2.3l-.1-.2z"/><path class="st0" d="M144.5 186.5c-.1.1-.1.2-.2.3-7.2-3.5-14.3-7.4-21.9-10l.3-.4c6 1.7 11.5 5 17 7.8 1.5.8 3.2 1.6 4.8 2.3zm-.8-46.2c-.1-.2-.3-.5-.4-.7v-.6c0-.2.2-.4.4-.4.1.2.3.5.5.8 0 .5.1 1.1.1 1.7-.3-.3-.4-.6-.6-.8z"/><path class="st0" d="M144.1 139.4c-.2-.2-.3-.5-.5-.8.2 0 .4.1.4.3v.1c.1.1.1.2.1.4zm-.5-.8c-.2 0-.4.2-.4.4v.6c-3.1-5.1-6-10.4-9.4-15.4l.3-.3c.1-.1.1-.1.1-.2 2.4 3 4.2 7.1 6.4 10.2 1.1 1.6 2 3.1 3 4.7zm-7.3 90.2c-.1 0-.3.1-.4.2-.4.2-.9-.4-.5-.7s.7-.6 1.1-.8c.1.1.2.1.3.2l.1.1c.2.2.4.3.6.4-.3.2-.7.4-1.2.6z"/><path class="st0" d="M134.3 123.7c0 .1-.1.1-.1.2l-.3.3c0-.1-.1-.2-.2-.3v-.1c-.1-.2 0-.5.2-.6.3 0 .5.2.4.5zM124.1 170c2.2 1.2 4.5 2.3 6.8 3.4-2.2-.9-4.8-1.6-6.8-2.8.1-.2.1-.4 0-.6zm.1 1c0 1.7-.4 3.4-1.3 4.9-.2-.1-.4-.1-.6-.1.9-1.5 1.4-3.3 1.4-5.1l.5.3z"/><path class="st0" d="M124.2 170.6v.4l-.5-.3v-.8h.3l.2.1v.6z"/><path class="st0" d="M124.1 170l-.2-.1h-.3c0-.5-.1-1-.3-1.5-1.1-3.9-4.5-5.3-8.2-5.8-.2-.1-.4-.1-.5 0-.9-.1-1.8-.2-2.7-.1 0-.3-.2-.5-.5-.5s-.5.2-.5.5h-.4c-2.8.2-17 3.7-13.7 8.5 1.1 1.5 5.7.9 7.4 1.3 3.3.6 6.5 2.1 9.1 4.3 2.2 1.9 3.7 4.6 6.7 2.4.4-.3.7-.6 1-1 .1.1.3.1.4 0-.8 1.6-2.3 3.1-4.1 2.4-2.3-1-3.6-2.9-5.7-4.2-2.7-1.9-6-3.1-9.3-3.3-1.9-.1-5.9.2-6.4-2.3-.4-1.7.4-3.4 1.9-4.2 5.1-3.6 13.3-5.8 19.5-3.9 3.9 1.1 6.4 4.1 6.8 7.5z"/><path class="st0" d="M123.7 170.7c0 1.8-.5 3.6-1.4 5.1-.1 0-.2-.1-.3-.1-.2-.1-.5.1-.6.3v.3c-.3.4-.6.7-1 1-.1-.2 0-.5.2-.6 3.6-3.9 3.2-10.2-1.4-12.5-.1-.3-.4-.4-.6-.4l-.1.1c-.5-.2-1-.3-1.5-.4-.5-.1-.9-.2-1.4-.2 0-.1 0-.3-.1-.4 0-.1-.1-.2-.2-.3 3.7.4 7.1 1.9 8.2 5.8.2.5.2 1 .3 1.5-.2 0-.3.3-.3.5 0 .1.1.2.2.3z"/><path class="st0" d="M123.6 169.9v.8l-.2-.1c-.2-.1-.2-.4-.1-.6.1 0 .2-.1.3-.1zm-1.3 5.9c.2 0 .4.1.6.1-.1.2-.2.3-.3.4-.2-.1-.4-.1-.6-.2.1 0 .2-.1.3-.3zm.3.6l-.3.4-.5-.1c0-.1 0-.2.1-.4l.1-.1c.2.1.4.2.6.2z"/><path class="st0" d="M121.9 176.7l.5.1c-.2.3-.5.7-.7 1l-.2.2c.1-.4.3-.8.4-1.3zm.1-1c.1 0 .2.1.3.1-.1.1-.2.3-.3.4s0-.1 0-.2-.1-.2-.1-.2c-.1 0-.1 0-.1.1-.1.2-.2.3-.3.4-.1-.2-.1-.5.2-.6h.3z"/><path class="st0" d="M122 176.2s0 .1-.1.1l.1-.1c-.1 0 0 0 0 0z"/><path class="st0" d="M121.7 176.6c-.1 0-.2-.1-.3-.2.1-.1.2-.3.3-.4 0-.1.1-.1.2-.1l.1.1v.3c-.1.2-.2.3-.3.3z"/><path class="st0" d="M121.9 176.3c0 .1 0 .2-.1.4l-.2-.1c.2 0 .3-.1.3-.3zm-.2.4l.2.1c-.1.4-.3.9-.4 1.3-.1.1-.3.1-.4 0 .2-.5.4-.9.6-1.4z"/><path class="st0" d="M121.7 176.6c-.1.1 0 .1 0 0zm-.1.1c-.2.5-.4.9-.7 1.3-.3-.1-.5-.3-.5-.6.4-.3.7-.6 1-1 0 .2.1.3.2.3z"/><path class="st5" d="M119.2 164.3c4.6 2.3 5 8.6 1.4 12.5-.2.2-.2.4-.2.6-3.7 2.8-9.2-3.8-12.8-4.9-1.7-.6-3.5-.9-5.4-1-1.2 0-2.4-.1-3.6-.3-4.7-.7.8-4.5 1.2-4.7 3.1-1.6 6.4-2.7 9.8-3.2.4-.1.8-.1 1.2-.1-.2 1-.4 2-.5 3 0 .3.2.5.5.5.2 0 .4-.1.5-.4.3-1 .5-2.1.5-3.2.8 0 1.6 0 2.4.1-.3 1.1-.3 2.2-.1 3.3.1.3.3.5.6.4.2 0 .3-.1.4-.3.5-1 .6-2.2.4-3.3.5 0 .9.1 1.4.2.5.1 1 .2 1.5.4-.1.1-.3.2-.3.3-.2.8-.3 1.6-.3 2.4 0 .3.2.5.5.5.1 0 .2 0 .3-.1.7-.7.9-1.8.6-2.7z"/><path class="st0" d="M120.4 177.4c.1.3.3.5.5.6-.3.4-.6.7-1 1-3 2.2-4.5-.5-6.7-2.4-2.6-2.2-5.7-3.7-9-4.3-1.7-.4-6.3.2-7.4-1.3-3.3-4.8 10.9-8.3 13.7-8.5h.4c0 .2 0 .4-.1.6-.4 0-.8.1-1.2.1-3.4.5-6.7 1.6-9.8 3.2-.4.3-5.9 4-1.2 4.7 1.2.2 2.4.3 3.6.3 1.8.1 3.6.4 5.4 1 3.6 1.2 9.1 7.8 12.8 5zm-1.2-13.1c.3 1 .1 2-.6 2.8-.2.2-.5.2-.7 0-.1-.1-.1-.2-.1-.3 0-.8.1-1.6.3-2.4 0-.2.2-.3.3-.3.3 0 .5.1.8.2z"/><path class="st0" d="M119.2 164.3c-.2-.1-.5-.2-.8-.3.2-.1.6 0 .7.2l.1.1zm-4.4-1.1c.2 0 .4.1.6.1.3 1.1.1 2.2-.4 3.3-.1.3-.4.4-.7.2-.2-.1-.3-.2-.3-.4-.2-1.1-.2-2.2.1-3.3.3 0 .5.1.7.1z"/><path class="st0" d="M114.8 163.2h-.6v-.2c0-.2.2-.3.3-.3h.5c.1.1.2.2.2.3s0 .3.1.4c-.1-.1-.3-.2-.5-.2zm-.2-.6c.2-.1.4-.1.5 0h-.5z"/><path class="st0" d="M114.6 162.6c-.2 0-.3.2-.3.3v.2c-.8-.1-1.6-.2-2.4-.1v-.5c.9 0 1.8 0 2.7.1z"/><path class="st0" d="M111.4 163.1h-.5c0-.2 0-.4.1-.6h1v.5c-.2 0-.4 0-.6.1zm.5-.6h-1c0-.3.2-.5.5-.5s.5.2.5.5zm-.5.6h.5c0 1.1-.2 2.2-.5 3.2-.1.3-.4.4-.6.3-.2-.1-.4-.3-.4-.5.1-1 .3-2 .5-3h.5z"/></g></g><g id="レイヤー_3"><path class="st0" d="M262.2 147.2c.1-.3.3-.4.5-.3-.1.1-.1.3-.2.5 0 .1 0 .2.1.3.1 1.1.3 3.6.5 4.7 2.1 16.5 3.3 32.9 10.9 48 .1.3.1.6.2.9-4.6-8.5-7.2-17.6-8.9-27.1-1.5-8.5-3.8-18.4-3.1-27z"/><path class="st0" d="M262.9 147.1s.1.1 0 .1c0 .1.1.4.1.4-.1.1-.3.1-.4.1-.1 0-.2-.2-.1-.3 0-.2.1-.3.2-.5.1 0 .2 0 .2.2z"/><path class="st0" d="M263 147.6c3.7 17.7 3.6 35.3 10.9 52.1-.1-.1-.2-.2-.1 0 0 .2.1.4.1.6-7.6-15.1-8.8-31.5-10.9-48-.1-1-.5-3.6-.5-4.7.3.1.4.1.5 0 0-.1 0-.1 0 0zm-.3-.7c1.9-4.6 6.9-8 10.9-10.6 6.5-4.5 13.5-9.7 21.1-11.9-.1.2-.1.4-.1.6-4.9 2-9.5 4.5-13.7 7.6-4.5 3.1-9.4 5.6-13.2 9.4-1.4 1.4-4 3.2-4.8 5.1 0-.2-.1-.2-.2-.2z"/><path class="st0" d="M262.9 147.1c.8-1.9 3.4-3.7 4.7-5.1 3.8-3.8 8.7-6.3 13.2-9.4 4.2-3.1 8.8-5.7 13.7-7.6 0 .2.1.4.2.5-5.3 2.7-10.3 5.7-15.2 9.1-5.3 3.6-13 7.3-16.6 13 .1-.2 0-.3 0-.5z"/><path class="st8" d="M279.6 134.4c4.9-3.3 10-6.4 15.2-9.1.1.1.4.1.5 0-.6 11.7 1.4 23.5 4 34.8 1.4 6.1 3.8 12 5.3 18.1 1.1 4.7 3.6 9 4.5 13.8-2.3 8.8-8.9 17.2-13.6 24.7-.1.1-.1.3 0 .4-5.2-.7-9.6-4.2-13.5-7.5-2.9-2.2-5.4-5.1-7.1-8.3-.3-.6-.5-1.2-.8-1.8-7.3-16.8-7.3-34.4-10.9-52.1 3.4-5.6 11.1-9.3 16.4-13z"/><path class="st0" d="M274.2 200.7c-.1-.2-.1-.3-.2-.5s-.1-.6-.1-.6h.1c.2.6.5 1.2.8 1.8v.1c0 .1-.1.2-.2.2-.2-.3-.3-.6-.4-1z"/><path class="st0" d="M274.6 201.7c-.1 0-.1 0-.1-.1-.1-.1-.1-.3-.2-.4-.1-.3-.2-.6-.2-.9.1.2.1.3.2.5 0 .3.1.6.3.9z"/><path class="st0" d="M274.6 201.7h.2c.1-.1.1-.2.1-.3 1.8 3.2 4.2 6.1 7.1 8.3 3.9 3.3 8.3 6.8 13.5 7.5.1.2.3.4.5.3v.1c0 .1-.1.2-.3.2-5-.1-8.8-2.8-12.5-5.8s-7.6-6.2-9-10.9c.1.1.1.3.2.4.1.2.2.2.2.2zm20.8-77.1v.5c-.2.1-.4.2-.5.3-.2-.1-.3-.3-.2-.5.2-.1.4-.2.6-.2 0 0 0-.1.1-.1z"/><path class="st0" d="M295.3 124.1c0 .2-.1.4-.1.5-.2.1-.4.1-.6.2 0-.2.1-.4.1-.6.2.1.4 0 .6-.1zm-.1-4v1.1c.1 1 .2 2 .1 3-.2 0-.4.1-.6.2.2-1.5.4-2.9.5-4.3zm.2 5.3c-.1.1-.4.1-.5 0 .2-.1.3-.2.5-.3-.1.2-.1.2 0 .3z"/><path class="st0" d="M295.3 124.2h.1v.5h-.2c.1-.2.1-.3.1-.5zm.2-5.9c.1-.5.2-1.1.3-1.6.6-3.1 1.4-6.2 2.4-9.2 1.1-3 2.4-5.8 4.1-8.5 1.9-3.2 4.3-6.1 7.1-8.6 6.2-5.5 14.8-8.9 23.6-10 .1.1.2.1.3.1.1-.1.1-.1.2-.1 9.5-1.1 19.3.5 27 5.1 2.3 1.3 4.6 2.7 6.7 4.4 1.7 1.6 3.3 3.3 4.6 5.2 3.4 4.1 6.7 8.7 7.6 14.1-.2-.1-.4-.1-.7-.1-5.8-21.4-28.9-30.7-49.1-27.2-8.8 1.5-16.9 5.8-23 12.2-8.2 8.5-9.1 19.4-11.1 30.1H295.2c.1-1 0-2-.1-3v-1.1c.3-.6.3-1.3.4-1.8zm0 6.8c-.1 11.5 2 23.7 4.6 35-.2.1-.3.3-.3.5 0 .4.2.8.7.8.1.3.1.7.2 1 .4 1.6.9 3.1 1.4 4.7 0 .1-.1.1-.1.2-.1.3.1.7.4.8 1.3 3.2 2.2 6.5 2.9 9.9.7 4.7 3.6 8.7 4.1 13.4-.1 0-.1.1-.2.1 0 .1-.1.3-.1.4-.9-4.8-3.4-9-4.5-13.8-1.4-6.2-3.8-12-5.3-18.1-2.6-11.3-4.6-23.1-4-34.8.1.1.2 0 .2-.1z"/><path class="st0" d="M295.5 125.1c-.1 0-.1.1 0 0 0 .2-.1.2-.1.3v-.2c0-.1 0-.1.1-.1z"/><path class="st0" d="M295.6 124.6c-.1.2-.1.3-.1.5-.1 0-.1 0-.1.1v-.5l.2-.1z"/><path class="st0" d="M295.5 124.7v-.5h.2c-.1.1-.1.3-.1.4l-.1.1zm14 67.6c.1 0 .2 0 .3-.1.3 3.5-2.4 6.9-3.8 9.9-2.6 5.3-5.6 10.8-9.6 15.2-.1.1-.2.1-.2.1 0-.1-.1-.2-.3-.3h-.3c-.1-.1-.1-.3 0-.4 4.7-7.6 11.4-16 13.6-24.7 0 .3.1.4.3.3zM295.5 124.1h.2-.2zm.5 93.5c-.2.1-.5-.1-.5-.3h.3c.1 0 .2.1.2.3zm-.4-92.5v-.5c-.1.2-.1.3 0 .5z"/><path class="st0" d="M295.8 125l.3 5.4c-.2 1.1-.1 2.2.3 3.2.9 8.8 2.4 17.6 4.4 26.2-.2 0-.3.1-.5.2-.1 0-.1 0-.2.1-2.6-11.3-4.7-23.5-4.5-35.1 0 .1.1.1.2 0zm-.1-.4c.1-.1.1-.3.1-.4v.7c-.1 0-.1.1-.2.1v-.4h.1zm1.9-17.3c1.7-5.3 4.5-10.1 8.1-14.3 6.7-8.1 17.4-12.1 27.5-13.4.2 0 .4 0 .5-.1l-.7.5c-.1.1-.1.3 0 .4-8.9 1.1-17.4 4.5-23.6 10-2.8 2.4-5.2 5.3-7.1 8.6-1.6 2.7-3 5.5-4.1 8.5-1 3-1.8 6.1-2.4 9.2-.1.5-.2 1-.3 1.6.4-3.7 1.1-7.4 2.1-11z"/><path class="st9" d="M306.7 94.1c6.2-6.4 14.2-10.8 23-12.3 20.3-3.5 43.4 5.8 49.1 27.2-11.9-2.6-24.1-3.3-36.1-2.1-9.6 1-21 1.3-30 4.9-.1 0-.2 0-.2.1-7.2 3.4-13.8 13.3-14.8 22.3-.1-.1-.2-.3-.2-.4-.5-1.1-.7-2.3-1.2-3.5 0-.1 0-.1-.1-.1s-.1 0-.1.1v.1c-.2-1.8-.3-3.6-.3-5.4.1-.1.2-.1.2-.3.1-.2-.1-.5-.3-.5v-.1c2-10.7 2.9-21.5 11-30z"/><path class="st0" d="M295.9 124.3c.1.2.1.5-.1.6v-.7s0 .1.1.1zm.5 9.3c-.4-1-.5-2.1-.3-3.2.1 1.1.2 2.2.3 3.2zm1.2 2.3c-.5-.7-.9-1.5-1.2-2.4-.1-1.1-.2-2.1-.3-3.2v-.1c0-.1 0-.1.1-.1s.1 0 .1.1c.5 1.2.7 2.4 1.2 3.5.1.1.2.3.2.4-.1.3-.1.6-.1.9v.9zm.6.9c-.2 2.3.3 4.6 1.3 6.7 0 0 0 .1-.1.1 0 .2.1.4.3.4h.1c-.2.1-.5 0-.6-.2-1.2-2.4-1.8-5.2-1.6-7.9.2.4.4.7.6.9z"/><path class="st0" d="M298.2 136.2v.6c-.2-.2-.4-.5-.6-.8v-1l.6 1.2z"/><path class="st0" d="M298.3 135.4c-.1.3-.1.5-.1.8l-.6-1.2c0-.3 0-.6.1-.9.2.5.4.9.6 1.3zm-.1 1.4c.2.3.7 0 .6-.3-.1-.4-.3-.7-.4-1.1.3-1.9.8-3.8 1.4-5.6.9-2.4 1.9-4.7 3.1-6.9 2.3-4.1 5.4-8.7 9.9-10.7.1 0 .3-.1.4-.1.1.2 0 .4-.2.5-8.9 5.4-16.8 20.3-13.1 30.6h-.2c-.1 0-.1.1-.2.1-1.1-1.9-1.5-4.2-1.3-6.5z"/><path class="st0" d="M298.4 135.4c.2.3.3.7.4 1.1.1.3-.4.6-.6.3v-.6c.1-.3.1-.5.2-.8zm14.2-23.6c.1 0 .2-.1.2-.1l-.2.1c-.1.1-.1.1-.1.2s.1.2.2.2h.1c-4.5 2-7.6 6.6-9.9 10.7-1.2 2.2-2.3 4.5-3.1 6.9-.7 1.8-1.2 3.7-1.4 5.6l-.6-1.2c1-9.1 7.6-18.9 14.8-22.4zm-13.1 31.7c0-.1.1-.2.2-.2h.2c0 .1 0 .2.1.3v.1c0 .2-.1.3-.2.4h-.1s-.1 0-.1-.1c-.2-.2-.2-.4-.1-.5z"/><path class="st8" d="M313 112.6c.1-.1.2-.3.1-.4 4.5-1.2 9.5-1.2 14.2-1.9 5.9-.8 11.9-1.8 17.8-2.1 11.4-.6 22.8.1 34 2.1h.2c.8 3.3 1.2 6.7 1.1 10.1-.1.7-9.5-.4-10.6-.5-3.5-.2-6.8-.6-10 1.3-3.4 2-6.8 4-10.2 6.1-.1 0-.2.1-.3.2-9.2 5.4-18.5 10.8-27.8 15.5-.1 0-.2.1-.2.2-3.7-.7-7.6-.9-11.4-.6-3.4-.1-6.7.2-10.1.7-3.5-10.3 4.3-25.3 13.2-30.7z"/><path class="st0" d="M300.2 145.4c-.5 3.4.7 7.8 2 11-.2.1-.4.3-.4.5-2-3.1-3.2-8.5-2-12.1 0 .3.2.5.4.6z"/><path class="st0" d="M300.2 144.1c.1 0 .2 0 .3.1-.1.4-.2.8-.3 1.3-.2-.1-.3-.4-.3-.6v-.1c0-.3.1-.5.3-.7zm-.1-.5h.1c-.1.1-.2.3-.2.4h-.1c.1 0 .2-.2.2-.4z"/><path class="st0" d="M300.1 144.1c-.1.2-.2.4-.3.7 0-.2.1-.5.1-.7h.2zm9.9-1.5c3.8-.3 7.6-.1 11.4.6-.1.1-.1.3 0 .5-5.3-.4-10.7-.4-16-.1-.4-.3-.9-.3-1.3 0l-.1.1h-2.1c0-.1-.1-.1-.1-.2-.3-.3-.8-.3-1.2 0l-.2.2h-.4v-.1c0-.1-.1-.2-.1-.3 3.4-.6 6.7-.8 10.1-.7z"/><path class="st0" d="M300.2 143.6h.1c-.1.1-.1.3-.2.4h-.1c0-.1.1-.2.2-.4zm.2 17.9c-.2 0-.4-.1-.5-.3-.2-.3-.1-.8.2-1 .1.4.2.9.3 1.3z"/><path class="st0" d="M301.1 161.4c-.2 0-.3.1-.5.1h-.2c-.1-.4-.2-.9-.3-1.4.1 0 .1-.1.2-.1.2-.1.3-.1.5-.2.1.2.1.5.2.7l.1.9zm-.4-15.8c-.1 1.8.1 3.7.5 5.5.4 1.8 1.2 3.5 1.6 5.3-.2-.1-.4-.1-.6 0-1.3-3.2-2.5-7.6-2-11 .1.1.3.2.5.2zm-.1-1.9c-.1.2-.2.3-.2.5-.1 0-.2 0-.3-.1 0-.1.1-.3.2-.4h.3zm-.3-.3c.1-.1.1-.1.2-.1.4-.2.9 0 1.1.4h-.9c0-.2-.5-.2-.5-.1v.1h-.1l.2-.3z"/><path class="st0" d="M300.8 143.7h-.4v-.1c.1-.3.5-.2.4.1zm-.1 1.4v.5c-.2 0-.4-.1-.5-.2 0-.4.1-.9.3-1.3l.4.1c-.2.3-.2.6-.2.9zm-.3 16.4h.2c.2-.1.3-.1.5-.1.1.3.1.6.2 1l1.2 4.5c-.2 0-.4.2-.5.4-.5-1.6-1-3.1-1.4-4.7-.1-.4-.1-.8-.2-1.1z"/><path class="st0" d="M300.6 143.7h.2v.6l-.4-.1c.1-.2.2-.4.2-.5zm.1.5V145.1c-.1-.3-.1-.6 0-.9z"/><path class="st10" d="M300.7 145.6c.4.1.8-.2.9-.7 0-.2.1-.4.2-.6v-.1c.5.1 1.1.1 1.6.1-.2.6.1 1.2.6 1.4 1.2.6 1.6 2.1 2.7 2.8-.6.8-1.1 1.6-1.4 2.6-1.2 1.8-1.9 3.8-2.1 6l-.3-.6c0-.1-.1-.1-.1-.1-.4-1.8-1.1-3.5-1.6-5.3-.4-1.8-.6-3.6-.5-5.5z"/><path class="st0" d="M300.9 144.2c.3.1.5.1.8.1v.1c-.1.2-.2.4-.2.6-.1.4-.4.6-.8.6v-.5-.1l.2-.8z"/><path class="st0" d="M300.9 144.2h.1l-.2.7c0-.2 0-.4.1-.7zm-.1 15.7c.8-.2 1.6-.4 2.4-.7.3.2.7.1.9-.2 2.1-.3 4.2-.5 6.3-.6l.3.3c.3.3.9 0 .8-.4h4.3c.6.2 1.3.4 1.9.6h.2c.3 0 .5-.3.5-.6 1.9.1 3.7.1 5.5 0-.2.1-.3.4-.2.6-3.8.5-7.8.3-11.6.5-3.5.2-7.8-.1-11.2 1.1 0-.2-.1-.4-.1-.6z"/><path class="st0" d="M300.9 144.2v-.6h.9c.1.2.1.5 0 .7-.3 0-.5-.1-.9-.1v-.1c.1 0 0 .1 0 .1z"/><path class="st0" d="M300.9 144.2c-.1-.1 0-.1.1-.2l-.1.2zm11.2 15.3c3.8-.2 7.8 0 11.6-.5 0 .2.2.3.4.3h.4c-.1.2-.2.3-.4.3-7.5 1.3-15.6-.6-23 1.7l-.2-.7c3.4-1.2 7.7-.8 11.2-1.1z"/><path class="st9" d="M324.1 159.7c.2 0 .3-.1.4-.3.4-.1.7-.1 1.1-.1 1.9 2.4-.4 6.9-1.5 9.3-7-.8-14.2-.7-21.2-1.8h-.3c-.5-1.5-.9-3-1.2-4.5-.1-.3-.1-.6-.2-1 7.3-2.2 15.4-.4 22.9-1.6z"/><path class="st0" d="M303.8 143.6c-.2.2-.4.5-.5.8-.5 0-1.1-.1-1.6-.1.1-.2.1-.5 0-.7h2.1zm-1.2 14.5c.1.1.2.1.3 0 0 .1.1.1.1.2v.1c-.1.7.9.7 1.2.2.1-.1.1-.2.1-.3.1.3 0 .6-.2.8l-.9.2c-.1 0-.1-.1-.2-.1-.6-.6-1-1.3-1.2-2.1v-.1c.3.3.5.7.8 1.1z"/><path class="st0" d="M302.2 156.3c.1.2.1.4.2.5v.1c.1.3.2.6.4.8l.1.2c-.1.1-.2.1-.3 0-.3-.3-.6-.7-.8-1.1 0-.1.2-.4.4-.5zm.2 11.9c-.1 0-.1-.1-.2-.1-.3-.2-.3-.6-.1-.9 0 .3.2.7.3 1z"/><path class="st0" d="M303 168.3c-.2 0-.4-.1-.6-.1h-.1c-.1-.3-.2-.7-.3-1 .1-.2.3-.4.5-.4.1.2.1.5.2.7.2.3.3.6.3.8zm-.8-11.8c.2-.1.4-.1.6 0 .1.4.2.9.2 1.3l-.6-.9c-.1-.1-.1-.3-.2-.4zm.8 11.9c2.5 7.8 5.9 15.6 6.8 23.7v.2c-.1-.2-.1-.4-.1-.6v-.1c0-.1-.1-.1-.2 0-.5-4.7-3.4-8.7-4.1-13.4-.7-3.4-1.6-6.7-2.9-9.9h.1s.2 0 .4.1zm-.6-11.4v-.1.1z"/><path class="st0" d="M303 157.9c0 .1-.1.2-.1.2l-.1-.2c-.1-.3-.2-.5-.4-.8v-.1l.6.9zm-.2 8.9c7.1 1.1 14.2 1 21.2 1.8 0 .1-.1.2-.1.2v.1c-3.3.8-7.8-.1-11.3-.4-3.3-.1-6.6-.4-9.9-1-.1-.2-.2-.5-.2-.7h.3zm.4-9.6c-.1.2-.1.5-.1.7l-.1-.1c-.1-.5-.1-.9-.2-1.3.1 0 .1.1.1.1l.3.6z"/><path class="st0" d="M312.6 168.5c3.5.3 7.9 1.1 11.3.4v.3c-.1-.1-.2-.1-.3 0-.1.1-.2.2-.2.3-2.5.9-5.6.3-8.2 0-4-.5-8.1-.3-12.1-1.2-.1-.3-.2-.5-.2-.8 3.1.6 6.4.9 9.7 1zm-9.6-10.7l.1.1v.3c-.1 0-.1-.1-.1-.2v-.2z"/><path class="st0" d="M304 157.9c.2.1.3.2.3.4-.1.1-.1.2-.1.3-.2.5-1.2.5-1.2-.2v-.1c.1.2.3.3.5.4l-.4-.7c0-.2.1-.5.1-.7.1.3.3.5.6.6h.2z"/><path class="st0" d="M303.6 158.6c-.2-.1-.3-.2-.5-.4v-.3l.5.7zm.5.5c-.2.3-.6.4-.9.2l.9-.2zm2.6-10.4c-1.1-.7-1.5-2.2-2.7-2.8-.5-.3-.8-.9-.6-1.5.9.1 1.7.1 2.6 0v.7c-.2.9.8 2 1.3 2.9l-.4.4s-.1.2-.2.3z"/><path class="st0" d="M303.9 143.6c.5 0 1-.1 1.5-.1.3.2.5.5.6.9-.9.1-1.7.1-2.6 0 0-.3.2-.6.5-.8zm1.4 7.6c-.1.1-.1.3-.1.4-.1.3 0 .6.1.9-.6 1.7-1 3.6-1.5 5.3-.2-.1-.4-.3-.6-.6.2-2.1.9-4.2 2.1-6z"/><path class="st0" d="M305.2 152.5c.1.2.3.4.4.6-.1.4-.2.7-.3 1.1-.3 1.4-.6 2.8-1.1 4.2 0-.2-.2-.3-.3-.4-.1 0-.1-.1-.2-.1.5-1.8 1-3.7 1.5-5.4zm-1.2-9c.4-.3.9-.3 1.3 0-.5.1-1 .1-1.5.1l.2-.1zm1.2 8.1c.1-.1.1-.3.1-.4l.6-.6c.1-.1.3-.1.3.1-.3.8-.5 1.1-.3 1.4-.1.3-.1.6-.2.9-.2-.2-.3-.4-.4-.6-.2-.2-.2-.5-.1-.8z"/><path class="st0" d="M306.7 148.7c.1.1.2.2.3.2h.3c-.4.5-.8 1.1-1.1 1.8v.1c0-.1-.2-.2-.3-.1l-.6.6c.3-1 .8-1.8 1.4-2.6zm-.1 4.2c1.1.8 2.3 1.6 3.6 2.1 2.4 1.3 4.9 2.4 7.5 3.4h-2c-2.4-1-4.8-2.1-7.1-3.4-.3-.4-.7-.7-1.2-1-.2-.1-.4 0-.5.1-.5-.3-1-.7-1.4-1.1.1-.3.2-.6.2-.9.4.4.7.6.9.8zm-.7-.7c-.2-.4-.1-.6.3-1.4 0 .5-.1.9-.3 1.4zm15.5-8.6c.1.2.3.2.5.2.1-.1.3-.1.4-.2 0 .2-.2.4-.4.5-2 .2-4.1.2-6.1.2.4-.1.8-.3 1.1-.4.2-.1.2-.5-.1-.5-1.2.1-2.5.4-3.6.8H310c-1.3 0-2.7.1-4.1.1-.1-.4-.3-.7-.6-.9 5.4-.2 10.8-.1 16.1.2z"/><path class="st2" d="M305.9 144.4c1.4 0 2.7-.1 4.1-.1h3.2c-2.2.7-4.2 2-5.8 3.7-.5-.9-1.5-2-1.3-2.9-.1-.3-.1-.5-.2-.7z"/><path class="st0" d="M306.3 150.6c.3-.6.6-1.2 1.1-1.8.1 0 .2-.2.2-.3 1.9-2.1 4.4-3.5 7.1-4.3h1.2c-3.6 1.2-7.2 3.2-9 6.8-1.2 2.3 9.7 6.1 11.3 7 .2.1.3.3.3.4h-.6c-2.6-1-5.1-2.1-7.5-3.4-1.3-.6-2.5-1.3-3.6-2.1-.3-.2-.6-.5-.8-.8.1-.5.2-.9.3-1.4-.1 0-.1 0 0-.1z"/><path class="st0" d="M307.4 147.9c.1.2.2.5.2.5v.1c-.1.1-.2.2-.2.3h-.3c-.1-.1-.2-.1-.3-.2.1-.1.2-.2.3-.4 0 0 .1-.2.3-.3z"/><path class="st8" d="M315.8 144.4c2.1 0 4.1 0 6.1-.2.2 0 .4-.2.4-.5 3.7-1.6 7.3-3.5 10.8-5.7 12.3.9 24.1-2.4 36 2-1 2.7-1.8 5.5-2.9 8.2-1.4 3.6-2.9 4.2-6.4 5.7-3.9 1.6-7.2 4-10.7 6.3-.1-.1-.3-.2-.5-.2-8.2-1-16.4-3.4-24.6-1.4h-5.6c0-.2-.1-.4-.3-.4-1.7-1-12.5-4.7-11.3-7 1.9-3.7 5.4-5.7 9-6.8z"/><path class="st0" d="M307.4 154.4c1.2 1.5 2.5 2.8 3.7 4.2h-.7c-.6-.7-1.3-1.3-1.9-2-.7-.6-1.2-1.3-1.5-2.1v-.2l.4.1zM307.1 154.2c.1-.2.3-.2.5-.1.4.3.8.6 1.2 1-.1 0-.1-.1-.2-.1l-1.1-.6-.4-.2zm6.1-9.9h1.5c-2.7.7-5.2 2.2-7.1 4.3 0 0 .1.1 0-.1s-.1-.4-.2-.5c1.5-1.7 3.6-3 5.8-3.7zm-5.9 4.6c.1-.1.2-.2.2-.3.1.2 0 .3-.2.3z"/><path class="st0" d="M308.5 154.9c.1 0 .2.1.3.1.3.4.6.7.9 1.1.7.7 1.3 1.4 1.9 2.2v.2h-.4c-1.1-1.3-2.5-2.6-3.7-4.2l1 .6zm1 36.6c.1 0 .2.1.2.2.1.2.1.4.1.6-.1.1-.2.1-.2.1-.2 0-.3-.1-.3-.3 0-.1.1-.3.1-.4-.2-.1-.1-.2.1-.2-.1 0-.1 0 0 0z"/><path class="st10" d="M315.8 158.5h-4.3v-.2c-.6-.8-1.2-1.5-1.9-2.2-.3-.3-.6-.7-.9-1.1 2.3 1.4 4.6 2.5 7.1 3.5z"/><path class="st0" d="M311.1 158.5h.4c.1.4-.5.6-.8.4l-.3-.3c.3-.1.5-.1.7-.1zm2.2-46.4c-.1 0-.3.1-.4.1h-.1c-.1 0-.2 0-.2-.1s0-.2.1-.3l.2-.1c.1 0 .2 0 .3.1 0 .1 0 .2.1.3z"/><path class="st0" d="M342.8 106.9c12.1-1.2 24.3-.5 36.1 2.1 0 .1.1.2.1.3 0 .1.1.2.2.3-7.8-1.5-15.7-2.4-23.6-2.5-7.7-.1-15.4.5-23 1.8-3.5.5-7.1 1-10.6 1.5-2.7.4-6.3.5-8.9 1.5-.1-.1-.2-.1-.3-.1 9-3.6 20.4-3.9 30-4.9zm-29.6 37.3c1.2-.4 2.4-.7 3.6-.8.3 0 .4.4.1.5-.4.1-.7.2-1.1.4h-1.1c-.5-.1-1-.1-1.5-.1z"/><path class="st0" d="M322 110.4c3.5-.6 7.1-1 10.6-1.5 7.6-1.3 15.3-1.8 23-1.8 7.9.2 15.8 1 23.6 2.5.1.1.2.1.2.1v.4h-.2c-11.2-2-22.6-2.7-34-2.1-6 .3-11.9 1.3-17.8 2.1-4.7.7-9.6.7-14.2 1.9 0-.1-.1-.2-.2-.2 2.7-.9 6.3-1 9-1.4zm-3.6 48.1v.2c-.1.3-.4.5-.7.4-.7-.2-1.3-.4-1.9-.6h2.6zm-.4 23.7c0 .1 0 .1 0 0 .1.3.3.4.5.3.3.7.8 2.4 1.1 3.3-.2.2-.1.6.3.6.1-.1.2-.1.4-.1v.1l-.1.1c-.3.2-.7.1-.9-.2-1-1.1-1.4-2.5-1.3-4.1 0 .1 0 .1 0 0z"/><path class="st0" d="M318.6 182l-.2.2c0 .1.1.2.1.3h-.1c-.2 0-.4-.1-.4-.3v-.1c.2-.1.4-.2.6-.1z"/><path class="st0" d="M321 179l.1.1c.2.1.5 0 .6-.2.1-.2.2-.4.2-.6 6.1-4.4 15.6-6.8 21.6-8.4 6.3-1.6 14.8 1.1 20.3 5.8.1.4.2.7.3 1.1.1.3.6.4.6 0v-.2c.5.4.9.9 1.3 1.3-.2-.1-.3-.2-.5-.3 0 0-.1 0-.1-.1-.3-.1-.6 0-.7.3-.2-.1-.5-.2-.7-.3-1.1-.7-2-1.6-3-2.3-3.5-2.5-8.5-5.2-12.9-5-5.2.2-9.9 2.3-14.7 4.2-2.8 1.1-5.6 2.1-8.3 3.4-1.9.9-5.3 2.5-6.6 4.3-.2-.1-.4 0-.5.2v-.1c.9-1.3 1.9-2.3 3-3.2z"/><path class="st0" d="M318.8 182.1l.1.1-.3.3h-.2c0-.1-.1-.2-.1-.3l.2-.2c.2 0 .3.1.3.1zM318.9 182.3c.8.9 1.2 2.1 1.4 3.3l-.5.2c-.1 0-.1 0-.2.1-.3-.9-.9-2.6-1.1-3.3h.2l.2-.3zm6.2-4.7c2.7-1.3 5.5-2.3 8.3-3.4 4.7-1.9 9.5-4 14.7-4.2 4.4-.1 9.4 2.5 12.9 5 1 .7 1.9 1.6 3 2.3.2.1.5.2.7.3-.1.3 0 .6.2.7.2.2.5.4.8.5-7.6-5-14.2-9.7-23.9-7.1-7.2 1.9-17.3 5.1-22.8 10.3l-.1-.1c-.1-.1-.2-.1-.3-.1 1.2-1.6 4.6-3.2 6.5-4.2zm-5.4 27.1c-.1 0-.2-.1-.2-.1-.2-.1-.3-.3-.3-.5 0-.3.2-.6.5-.6-.1.4 0 .8 0 1.2z"/><path class="st0" d="M320.5 186.4c.1 0 .2 0 .3-.1-.5 4.6-1.2 9.2-1.3 13.9 0 1.1 0 2.1.1 3.2-.2 0-.4.1-.5.3-.1.3 0 .6.3.7.1 0 .2.1.2.1.1 1.9.4 3.8.7 5.7.2 1.3 2.7 6.7 3 8.5-.1.1-.1.3 0 .5v.1h.1c.1.2.3.2.5.2v.2c-.1.3-.2.4-.5.4-.2 0-.3-.1-.4-.2-6.4-9.1-5.8-23.1-2.7-33.4v-.1h.2z"/><path class="st9" d="M320.8 186.3c6.5-1.2 11.8-5.9 18.5-7 9.4-1.6 15.8 3 24.3 5.3-.1.1-.1.2-.1.3-.5 5.9.4 12.4.7 18.8h-.1c-1.7-.1-3.4.2-5 .8-1.3.4-3.1.7-3.8 1.8v.1c-.9-1.8-1.8-3.6-2.9-5.3v-.1c-.1-.2-.4-.2-.5 0-5.9-.2-11.7-2-17.6-.6h-.1c-.1 0-.3 0-.3.1-1.3 1.6-2.3 3.3-3.1 5.2-1.8-.8-3.6-1.5-5.5-1.9-1.7-.4-3.5.1-5.3-.3h-.3c-.1-1.1-.1-2.1-.1-3.2.1-4.7.7-9.3 1.2-14z"/><path class="st0" d="M330.4 206.2c-2.1-.2-4-1.2-6.1-1.3-1.6-.1-3.1.3-4.6-.3-.1-.4-.1-.8-.1-1.1h.3c1.8.4 3.5-.1 5.3.3 1.9.4 3.8 1.1 5.5 1.9-.1.1-.1.2-.1.3-.1.1-.1.2-.2.2zm-10.1-20.1V186.4c-.1.1-.2.1-.4.1-.4.1-.5-.4-.3-.6 0-.1.1-.1.2-.1l.5-.2v.5z"/><path class="st9" d="M324.3 205c2.1.1 4 1 6.1 1.3-.5 1.1-.9 2.1-1.4 3.2-1.5 3.3-3.4 6.4-5.6 9.3-.3-1.8-2.7-7.1-3-8.5-.4-1.9-.6-3.8-.7-5.7 1.5.6 3 .3 4.6.4z"/><path class="st0" d="M320.3 186.2v0z"/><path class="st11" d="M341.8 172c9.7-2.5 16.3 2.1 23.9 7.1.2.2.4.3.7.4-.7 1.3-1.3 2.7-1.6 4.2-7.6-3.6-14.9-7.2-23.4-6.3-7.9.8-13.7 6.1-21 8.3-.1-1.2-.6-2.4-1.4-3.4 5.5-5.3 15.6-8.5 22.8-10.3z"/><path class="st0" d="M320.4 186.5v-.2c-.1 0 0 0 0 0 .1-.2.5-.2.5.1v.1h-.3c-.1-.1-.2-.1-.2 0zm20.8-9.2c8.6-.9 15.9 2.8 23.4 6.3v.7c-5.7-1.9-10.9-5.3-16.8-6.2-5-.7-10.3.5-15 2.3-4.1 1.6-8.1 4.9-12.5 5.6v-.4c7.4-2.3 13.1-7.5 20.9-8.3z"/><path class="st0" d="M320.4 186c4.4-.7 8.4-4 12.5-5.6 4.7-1.8 9.9-3 15-2.3 5.9.8 11.2 4.3 16.8 6.2V184.6c.1.1.3.2.4.1.1-.1.3-.2.4-.4v.2c-.1.3-.4.5-.7.5-.1 0-.3-.1-.4-.1 0-.1-.1-.2-.2-.3-.2-.2-.5-.1-.6.1-8.5-2.3-14.9-6.9-24.3-5.3-6.7 1.1-12 5.8-18.5 7v-.1c0-.3-.4-.3-.5-.1l.1-.2zm1.6-12.5c.2-1.4.7-2.8 1.5-4 .2-.1.4-.1.6-.2v.2c-.2 1.7-.8 3.3-1.1 5-.2 1.3-.6 2.6-1.1 3.9l-.9.6c-.2-.1-.3-.3-.2-.5.3-1.6.7-3.3 1.2-5zm-.1 4.9c-.1.2-.1.4-.2.6 0 0 0 .1-.1.1-.2.2-.4.2-.6 0l.9-.7zm.1-35.1c.1 0 .2.2.3.3-.1.1-.3.1-.4.2-.2.1-.4 0-.5-.2-.1-.1-.1-.3 0-.5.2.1.4.1.6.2z"/><path class="st0" d="M349.3 127.4c-.2.1-.3.4-.3.6v.2c-.3.2-.7.4-1.1.6-5.2 2.8-10.4 5.5-15.4 8.7-1.9 1.2-4 2-5.9 3.1-1.6.8-3 2.1-4.7 2.7-.2-.1-.4-.1-.6-.1 0-.1.1-.2.2-.2 9.4-4.8 18.7-10.2 27.8-15.6z"/><path class="st0" d="M326.7 140.5c1.9-1.1 4-1.9 5.9-3.1 5-3.1 10.2-5.8 15.4-8.6.3-.2.7-.4 1.1-.6v.8c-3.2 1.7-6.4 3.4-9.6 5.2-1.4.8-2.9 1.6-4.3 2.5l-2.1.6c-.1 0-.2.2-.2.3 0 .2.1.3.3.3-3.4 2.2-7 4-10.8 5.7 0-.1-.1-.3-.3-.3h-.1c1.7-.6 3.1-1.9 4.7-2.8z"/><path class="st9" d="M324 169.4c.2.2.5.1.6 0 1.5-1.6 4.4-8 2.2-10.2 7.3-.3 14.4 2.2 21.8 2.1.3 0 .5-.1.6-.4 2-.9 3.9-1.9 5.8-3.1 0 .1.1.1.1.2 1.7 1.2 3.3 2.5 4.8 4 1.1 1.3 2 2.9 3.2 4.3.1 1.7.3 3.5.3 5.2 0 1.3.1 2.6.3 3.9-5.3-4.6-13.9-7.2-20.2-5.6-6 1.6-15.6 4-21.6 8.4.5-1.3.9-2.6 1.1-3.9.2-1.6.7-3.2 1-4.9z"/><path class="st0" d="M323.4 218.8v.5c-.1-.1-.1-.3 0-.5zm.6-49.6s.1 0 0 0c-.2.2-.4.2-.6.3.1-.1.1-.2.2-.3.1-.1.4 0 .4 0zM334.1 201.3h.2c-1.8 3.5-3.4 7-4.8 10.7-1.2 2.8-2.7 6-5.5 7.5h-.1v-.1c-.1-.1-.3-.2-.4-.1v-.5c2.2-2.9 4.1-6 5.6-9.3.5-1.1.9-2.1 1.4-3.2.2 0 .3.1.5.1.1 0 .2-.1.2-.1.1-.1 0-.3-.1-.4-.1-.1-.2-.1-.3-.1.8-1.9 1.9-3.6 3.1-5.2.1-.1.2-.1.3-.1-.1 0-.1.1-.2.1-.1.2-.1.4 0 .5 0 .1 0 .1.1.2z"/><path class="st0" d="M323.4 219.3c.1 0 .1 0 0 0 .3-.1.4 0 .5.2-.2.1-.4 0-.5-.2zm1.1-59.9h-.4c-.2 0-.4-.1-.4-.3-.1-.2 0-.5.2-.6.2 0 .4.1.5.4.2.1.2.3.1.5zm-.3 9.7c-.1.1-.2.1-.3.1.1-.1 0-.1 0-.1v-.4c0-.1.1-.2.1-.2h.1c.2 0 .3.1.3.3 0 .2-.1.3-.2.3z"/><path class="st0" d="M325.5 158.5c-.3.1-.7.1-1.1.2-.1-.2-.3-.4-.5-.4h.1c8.2-2 16.4.5 24.6 1.4.2 0 .4.1.5.2-.1.1-.1.1-.2.1-.4.2-.1 1 .3.8-.1.2-.4.4-.6.4-7.4.1-14.5-2.4-21.8-2.1-.3-.3-.7-.5-1.1-.6 0 .1-.1 0-.2 0zm-1.3 10.5c.1 0 .1-.1.1-.2 1.2-1.8 3.7-7.8 1.7-9.6h.8c2.1 2.1-.8 8.6-2.2 10.2l-.1.1c-.2.1-.4.1-.5-.1v-.1c0-.1.1-.2.2-.3z"/><path class="st0" d="M325.5 159.2h.5c2 1.7-.5 7.8-1.7 9.6 0-.2-.1-.3-.3-.3 1.2-2.4 3.5-6.9 1.5-9.3z"/><path class="st0" d="M324.5 158.8c.4-.1.7-.2 1.1-.2-.1 0-.1 0-.1.1-.1.1-.1.3 0 .4 0 0 .1.1.1.2-.4 0-.7.1-1.1.1.1-.2.1-.4 0-.6z"/><path class="st0" d="M325.6 159.2c0-.1-.1-.1-.1-.2l-.1-.1c0-.1.1-.3.2-.3h.2c.4.1.8.3 1.1.6h-1.3zm5.1 46.5c.1 0 .2.1.3.1.1 0 .1.1.1.2 0 .2-.1.3-.3.3-.2 0-.3 0-.5-.1.1-.1.1-.2.1-.3.2 0 .2-.1.3-.2zm2.4-67.8c-.1 0-.3-.1-.3-.2 0-.2.1-.3.2-.4l2.1-.6c-.4.3-.9.5-1.3.8-.2.1-.4.3-.7.4zm2-58.6c-.5.3-1 .7-1.5 1-.2 0-.4 0-.6.1-.1-.1-.1-.3 0-.4l.7-.5h.6c.3-.1.5-.2.8-.2zm-1.7 1.2c-.1.1-.3 0-.4-.1.2 0 .4 0 .6-.1-.1.1-.1.2-.2.2zM350.3 136.4h2.5c.2.2.5.2.7.2.1 0 .2-.1.3-.2 5 .1 10.9.5 15 2.5 0 .1.1.1.2.2s.3.2.4.3c0 .2-.1.3-.1.5-12-4.4-23.8-1-36-2 .3-.1.5-.3.7-.4 5.3-.7 10.8-1.1 16.3-1.1zm28-33.3c-.2 0-.4.2-.3.4.2.8.7 1.6 1.3 2.2.3 1.1.6 2.1.8 3.2v.2c-.1 0-.2 0-.3.1-.1-.1-.1-.1-.2-.1-.9-5.3-4.2-10-7.6-14.1-1.4-1.9-2.9-3.6-4.6-5.2-2.1-1.6-4.4-3.1-6.7-4.4-7.7-4.6-17.5-6.2-27-5.1.5-.4 1-.7 1.5-1 17.1-1.5 36.4 7.5 43.1 23.8z"/><path class="st0" d="M333.7 79.6c16.1-13.9 38.3-16.4 58.6-10.7 4.8 1.3 12.9 4.2 14.2 9.7.9 3.7-6.2 3.2-10.8 2.5-1-.6-2.1-.9-3.3-1.1-.3 0-.2.4-.1.5.1 0 .2.1.3.1-.1 0-.3 0-.4-.1-.7-.1-.5-1.3.2-1.2 2.9.4 5.9.6 8.8.7 8 .1-1.4-6.7-1.7-6.8-6.9-4.3-16.5-5.3-24.4-5.7-15.2-.8-27.7 3.6-40 11.8-.3 0-.5 0-.8.1-.2 0-.4.1-.6.2zm18.3 55.9c.2.3.5.7.8.9h-2.5c-5.5 0-11.1.4-16.5 1.1.4-.3.9-.5 1.3-.8 5.5-1.3 11.3-1.3 16.9-1.2zM334.4 201c-.1.1-.1.2-.1.2h-.2c-.1 0-.2-.1-.2-.2-.1-.1-.1-.1-.1-.2 0-.2.1-.4.3-.5h.1c.2.1.3.2.3.4s0 .2-.1.3z"/><path class="st0" d="M334.5 200.9c2.8.1 5.6-.2 8.4-.2 3 0 5.9 1 8.7.8.1.1.2.3.2.4-3 .1-5.9-.5-9-.6-2.8-.1-5.8.7-8.6-.1.1-.1.1-.2.1-.2.2 0 .2-.1.2-.1z"/><path class="st0" d="M351.8 201c-.2.1-.2.3-.2.5-2.8.1-5.8-.8-8.7-.8-2.8 0-5.6.3-8.4.2 0-.2-.1-.3-.3-.4 6-1.5 11.7.3 17.6.5z"/><path d="M375.1 67.6c7.9.3 17.5 1.4 24.4 5.7.2.1 9.6 6.9 1.7 6.8-2.9-.1-5.9-.3-8.8-.7-.7-.1-.8 1.1-.2 1.2.1 0 .3.1.4.1h.1c6.5 2.3 13.2 12.4 16.3 18 3.3 6.1 6.1 13.1 5.9 20.2.1 1.7-.1 3.5-.5 5.2-1.3 4.1-6.6 4.7-9.4 1.5-1.9-2.2-3.6-4.5-5.4-6.7-5.1-6.2-9.5-12.9-13.2-20-.2-.4-.8-.1-.6.3.7 1.8 1.5 3.6 2.4 5.3 0 1 .2 3-1.1 3.4-1.1.2-2.3 0-3.3-.6-2-1-3.7-2.3-5.2-3.9-.1-.1-.2-.1-.3-.1-6.8-16.3-26-25.3-43.2-23.7 12.3-8.5 24.8-12.8 40-12z" fill="#d93933"/><path class="st2" d="M349.1 129c0 .5.2 1 .4 1.5.5 1.1 1 2.3 1.6 3.3.3.6.6 1.2.9 1.7-5.5-.1-11.4-.1-16.8 1.2 1.4-.8 2.8-1.7 4.3-2.5 3.2-1.8 6.4-3.5 9.6-5.2z"/><path class="st0" d="M349.3 161c-.5.2-.7-.5-.3-.8.1-.1.2-.1.2-.1.1.1.2.2.2.4 0 .1 0 .3-.1.5zm-.2-32v-.8l1.5-.7c.1.1.2.3.2.5v.1c-.3.2-.5.3-.8.4-.3.2-.6.4-.9.5zm.3-1.6l.3-.2c.3-.1.7 0 .9.3l-1.5.7v-.2c0-.2.1-.5.3-.6z"/><path class="st0" d="M350 129.1c-.4-.2-.8.3-.7.6.1.3.2.5.3.8-.3-.4-.4-.9-.4-1.5.3-.1.6-.3.9-.5-.2.2-.2.4-.1.6z"/><path class="st0" d="M349.8 130.8c-.1-.1-.2-.2-.3-.4-.1-.3-.1-.4-.3-.8-.2-.4.4-.8.7-.6.1 0 .1.1.2.2.3.5.5.9.8 1.4-.1.2-.3.3-.5.3-.2.2-.4.1-.6-.1zm10.1 23c3.5-1.4 5-2.2 6.4-5.7 1-2.7 1.9-5.4 2.9-8.2.1 0 .2.1.3.1.1.1.2.1.3 0-1 3.2-2.1 6.4-3.3 9.6-.7 1.7-.9 2.4-2.5 3.2s-3.4 1.3-5.1 2.1c-3.4 1.5-6.2 3.8-9.4 5.4 0-.1-.1-.3-.2-.4 3.3-2.2 6.7-4.6 10.6-6.1z"/><path class="st0" d="M358.8 155c1.7-.7 3.4-1.3 5.1-2.1 1.7-.7 1.9-1.5 2.5-3.2 1.3-3.1 2.3-6.4 3.3-9.6.1 0 .2 0 .2-.1.1.1.3.2.4.3-.9 3.2-2 6.4-3.2 9.6-.4 1.1-.9 2.5-2.1 3.2-.9.5-1.8.9-2.7 1.3-2 .8-3.9 1.5-5.8 2.5-.3.1-.5.3-.8.5-.1-.1-.2-.1-.4-.1h-.3c-.2.1-.3.4-.1.5-1.9 1.2-3.8 2.2-5.8 3.1.1-.2.1-.3.1-.5 3.4-1.6 6.2-3.9 9.6-5.4zm-9.1-27.8l-.3.2c0-.1.2-.2.3-.2zm.7 3.8c.7 1.6 1.5 3.1 2.4 4.5h-.8c-.3-.6-.6-1.1-.9-1.7-.5-1.1-1.1-2.2-1.6-3.3.1.1.2.3.3.4.2.1.4.2.6.1zm9.5-9.8c3.2-1.9 6.5-1.5 10-1.3 1.1.1 10.6 1.2 10.6.5v.5c-.1.3.3.4.5.3 0 .3-14.8-1.1-16.4-.8-3 .6-5.7 1.9-8 3.9-1.8 1.3-3.8 2.4-5.9 3.3-.2-.3-.5-.4-.9-.3 3.3-2.1 6.7-4.1 10.1-6.1zm-9.2 6.9c.1.8.2 1.5.2 2.3 0 .1 0 .2-.1.3-.2-.5-.5-.9-.8-1.4-.1-.1-.1-.2-.2-.2v-.6c.4-.1.7-.3.9-.4z"/><path class="st0" d="M350.6 127.5c2.1-.9 4.1-2 5.9-3.3 2.3-2 5-3.3 8-3.9 1.6-.2 16.4 1.2 16.4.8l.1-.1c.1-.2.2-.5.3-.7.1.3.1.6.1.8 0 .2-.1.4-.4.5-.3.1-.6.1-1 .2-.1-.1-.1-.2-.1-.2-.1-.1-.2-.2-.3-.2-.2 0-.3.2-.3.4-1.8 0-3.6-.2-5.3-.4-1-.1-2-.2-3-.2-.1-.1-.1-.1-.1 0-4.3-.3-7.8-.3-12.1 2.3-2.6 1.6-5.3 3.1-8 4.5 0-.2-.1-.3-.2-.5zm1.6 5.6c.6.7 1 1.5 1.5 2.4h-.8c-.9-1.5-1.7-3-2.4-4.5.2 0 .4-.1.5-.3l1.2 2.4z"/><path class="st10" d="M358.7 123.6c4.2-2.6 7.8-2.6 12.1-2.3-.1 0-.1.1-.1.1 1.2 6.6 2.4 12.8 1.8 19.4-.6-.8-1.5-1.5-2.4-1.9-.3-.2-.6-.3-.9-.5h-.3c-4.4-2.7-10.2-2.8-15.3-2.9h-.1c-.4-.8-.9-1.6-1.5-2.4-.4-.8-.8-1.6-1.3-2.5.1-.1.1-.2.1-.3 0-.8-.1-1.5-.2-2.3 2.9-1.4 5.5-2.9 8.1-4.4z"/><path class="st0" d="M351.6 201.5c-.1-.2 0-.4.2-.5h.1c.1 0 .2 0 .2.1.2.1.3.4.1.6-.1.2-.2.3-.4.3 0-.2-.1-.3-.2-.5z"/><path class="st0" d="M352.2 201.7v-.2c0-.2-.2-.5-.4-.5h-.1.1c.2-.1.4 0 .5.2 1 1.8 2 3.6 2.9 5.3-.1.2.1.5.3.6 1.1 2.1 2.1 4.1 3.3 6.1.8 1.3 1.6 2.6 2.5 3.8.4.5.8 1 1.2 1.4l.2.2v.1c-.1-.1-.3-.1-.4 0 .1.1.3.1.4.1-.1.3-.2.5-.3.8h-.1c-.3.2-.7.1-1-.1-1.7-1.5-2.8-3.7-3.8-5.6-2.2-3.8-3.8-7.9-5.8-11.8.3-.1.5-.2.5-.4zm1.5-66.2c.1.3.2.6.1.9h-1c-.3-.3-.6-.6-.8-.9H353.7zm.1 1c0 .1-.2.2-.3.2-.3 0-.5-.1-.7-.2h1z"/><path class="st0" d="M369 138.4h-.1c-.2.1-.3.3-.1.5-4.1-2.1-10-2.4-15-2.5 0-.3 0-.6-.1-.9h.1c4.9.1 10.8.2 15.2 2.9zm-13.1 19c-.2.1-.3.2-.5.3l-.3.2c-.1-.1-.1-.2 0-.3.1-.2.3-.3.5-.3 0 0 .2.1.3.1z"/><path class="st0" d="M355.4 157.7c2.9 1.3 6.3 5 7.7 8v.7c-1.1-1.4-2-2.9-3.2-4.3-1.4-1.5-3-2.9-4.8-4-.1-.1-.1-.1-.1-.2l.4-.2zm.2 49.3c-.3-.1-.4-.4-.3-.6l.3.6zm3.6-2.5c1.6-.6 3.3-.8 5-.8h.1c0 .4.1.9.1 1.3h-.1c-1.6 0-3.1.3-4.6.9-1.2.4-2.6 1.4-3.9 1.1l-.3-.6v-.1c.6-1.1 2.4-1.4 3.7-1.8z"/><path class="st0" d="M360.4 160.9c.7.7 1.3 1.4 1.8 2.1v.4c0 .2.2.4.5.3.3.5.6 1.1.7 1.6-.2 0-.3.1-.4.3-1.4-3-4.8-6.8-7.7-8 .2-.1.3-.2.5-.3 1.8.7 3.4 2.3 4.6 3.6z"/><path class="st9" d="M359.5 205.9c1.5-.6 3-.9 4.6-.9h.1c.3 4.6-.2 9.1-1.4 13.5l-.2-.2c-.5-.4-.9-.9-1.2-1.4-.9-1.2-1.7-2.5-2.5-3.8-1.2-2-2.2-4-3.3-6.1 1.3.3 2.7-.7 3.9-1.1zm3-51.4c-.7.8-.4 2.6-.4 3.5 0 1.7.1 3.4.1 5-.5-.8-1.2-1.5-1.8-2.1-1.2-1.3-2.8-2.9-4.5-3.5.2-.2.5-.3.8-.5 1.8-.9 3.8-1.6 5.8-2.4z"/><path class="st0" d="M362.9 160.6c.1-.1.1-.3.1-.4.1 1.1.1 2.1 0 3.2 0 .2-.1.4-.3.4-.1-.3-.3-.5-.5-.8-.1-1.7-.1-3.4-.1-5 0-.9-.3-2.7.4-3.5 0 .6.1 2.8.1 4.9-.1.3-.2.7-.3 1.1 0 .2.1.3.3.4.2-.1.3-.2.3-.3z"/><path class="st0" d="M362.7 163.8c-.3 0-.5-.2-.5-.4v-.4c.2.3.4.6.5.8zm-.1-4.4V160.8c-.2 0-.3-.2-.3-.4.1-.3.2-.6.3-1z"/><path class="st10" d="M365.1 153c1.2-.6 1.6-2 2.1-3.2 1.2-3.1 2.2-6.3 3.2-9.6.3.2.5.4.8.7.5.5.8 1.1 1.3 1.6.1.1.1.1.2.1h.1c.3.1.6 0 .7-.3 1.8-6.2 1.3-15.5-2.4-21 .9.1 1.9.1 3 .2 1.8.2 3.6.4 5.3.4v.1c1.8 5.7 2.9 11.7 3.3 17.7-.8-1.8-1.9-3.5-3.2-5v-.3s0-.1-.1-.1c-.1-.1-.2-.1-.3 0-.2-.2-.5.1-.4.3.1.2.2.3.3.5-.3 3.2-.2 6.3-1.6 9.3-6.3 2.3-12.2 7.7-14.3 13.8 0-1 .2-2.8-.5-3.5.8-.7 1.6-1.2 2.5-1.7z"/><path class="st0" d="M362.8 218.7c-.1 0-.3-.1-.4-.1.1-.1.3-.1.4 0v.1zm-.3-64.2c.7.7.5 2.6.5 3.5-.2.4-.3.9-.4 1.3-.1-2.1-.1-4.2-.1-4.8z"/><path class="st0" d="M364.2 203.6c-.3-6.4-1.2-12.9-.7-18.8 0-.1 0-.2.1-.3.3.1.5.2.8.2.4 7.2.7 14.3 1.1 21.5.2 4.6.2 9.4-2.5 13.3-.1.1-.2.2-.3.1-.1 0-.2-.2-.2-.3.2-.2.3-.2.4-.5.1-.1 0-.3-.1-.4 1.2-4.4 1.7-9 1.4-13.5.1 0 .2 0 .3-.1.3-.3.3-.7 0-1 0-.1-.2-.2-.3-.2z"/><path class="st0" d="M362.6 219.5c.1-.3.2-.5.3-.8.1 0 .1 0 .1-.1.1.1.1.2.1.4-.2.3-.3.3-.5.5zm.4-61.4v1c-.2.5-.3 1-.4 1.5v-1.1c.1-.5.2-1 .4-1.4z"/><path class="st0" d="M363.1 159.1v1.2c-.1.1-.1.2-.1.4 0 .1-.2.2-.3.2v-.3c0-.5.2-1 .4-1.5zm-.1 59.6s-.1.1 0 0z"/><path class="st9" d="M363.1 160.3c3.2-8.6 11.3-13.5 19.6-16.3 2.1 5 7.3 11.5 10.8 16.9 1.9 2.8 3.7 5.8 5.3 8.8 1.1 2.2 1.7 4.9 3 7.1 3.8 6 6.9 12.3 10.2 18.7 1.4 2.7 3 5.3 4.3 8 .8 1.7 1.5 3.5 2.1 5.3.2.5.5.9.9 1.2h-.1c-.2.1-.3.3-.3.5 0 .1.1.1.1.2v.1c-.3-.2-.7-.3-.8-.4-.4-.2-.9-.3-1.3-.5h-.1c-.9-.4-1.8-1-2.7-1.5-.9-.7-1.9-1.2-2.9-1.8-.3-.1-.7-.3-1.1-.4h-.1c-4.8-2.5-9.6-5.2-14.2-7.9-10.5-6.1-19.7-14.1-30.1-20.4-.4-.5-.8-.9-1.3-1.3.4-3.6.2-7.2-.8-10.7-.1-.2-.2-.3-.4-.3-.2-.6-.4-1.1-.7-1.6.2 0 .3-.2.3-.4.3-1.2.3-2.3.3-3.3z"/><path class="st0" d="M377.4 144.3c0 .1-.1.1-.1.2-.1.2 0 .5.2.6-6.2 2.6-12.3 7.9-14.5 13.9v-1c2.2-6.1 8-11.5 14.4-13.7z"/><path class="st0" d="M377.6 145.1c.2.1.5 0 .6-.2v-.1c1.3-.5 2.7-1 4.2-1.2.1.1.1.2.2.3.1.1.1.1.1 0-8.3 2.8-16.4 7.7-19.6 16.3V159c2.1-6 8.2-11.3 14.5-13.9zm-14.1 21.3c-.1.1-.3.1-.4 0v-.7c0-.2.2-.3.4-.3.1.2.1.4.2.6 0 .2-.1.3-.2.4.1 0 .1 0 0 0z"/><path class="st0" d="M364.3 176.1c-.2-.2-.4-.3-.6-.5-.2-1.3-.3-2.6-.3-3.9-.1-1.8-.1-3.5-.3-5.2.1.1.3 0 .4-.1.6 3.2.5 6.4.8 9.7z"/><path class="st0" d="M363.9 165.8c1 3.5 1.2 7.1.8 10.7-.1-.1-.2-.3-.4-.4-.3-3.3-.2-6.5-.7-9.8.1-.1.1-.2.1-.3 0-.2-.1-.4-.2-.6.2 0 .4.2.4.4zm.1 18.7c.2 0 .5.1.5.4-.3-.1-.5-.1-.8-.2.1-.1.2-.2.3-.2z"/><path class="st0" d="M364.7 176.4v.2c-.1.4-.5.3-.6 0-.1-.3-.2-.7-.3-1.1.2.2.4.3.6.5 0 .2.1.3.3.4zm-.4 27.3c.2 0 .3 0 .4.2v1c-.1.1-.2.1-.3.1-.1-.5-.1-.9-.1-1.3z"/><path class="st0" d="M364.6 203.9c.3.3.3.7 0 1v-1zm.6-25.9l1.1.7c.1.1.2.2.2.4-.1.1-.1.2-.2.4-.2-.1-.5-.3-.7-.4-.2-.2-.5-.4-.8-.5-.2-.2-.3-.5-.2-.7.2-.1.4 0 .6.1zm-.1 6.4c.1-.2.2-.4.2-.5.2.1.3.2.3.4-.1.1-.3.2-.4.4-.1 0-.1.1-.2 0-.2 0-.3-.2-.3-.3v-.1c.1.1.2.1.4.1z"/><path class="st0" d="M365.3 183.9c-.1.2-.2.4-.2.5-.1 0-.2-.1-.3-.1v-.7c.1.2.3.2.5.3zm1.1-4.4c.1.1.2.2.4.3-.4 1.4-.9 2.8-1.5 4.1-.2-.1-.4-.1-.5-.2.3-1.5.8-2.9 1.6-4.2zm-.5-1.6c.3.3.6.7.8 1.1h-.1c-.1-.1-.2-.2-.4-.2-.3-.3-.7-.6-1.1-.7-.2-.1-.3-.1-.5-.2 0 0 0-.1.1-.1.2-.2.5-.3.7-.2.2 0 .4.1.5.3z"/><path class="st0" d="M366.3 178.7l-1.1-.7c.4.1.8.4 1.1.7zm.4 1c.1.1.3.2.5.3-.1 1.6-.7 3-1.6 4.3 0-.2-.1-.4-.3-.4.6-1.4 1-2.8 1.4-4.2zm29.3 18.5c4.5 2.7 9.4 5.3 14.2 7.9-1-.3-2.1-.6-3.1-1-3.2-1.5-6.1-3.6-9.2-5.3-10.8-5.8-20.3-13.6-30.6-20.5v-.1c0-.2-.3-.4-.5-.4-.2-.4-.5-.7-.8-1.1 10.3 6.4 19.5 14.4 30 20.5zm-29.5-19.1c0-.2-.1-.3-.2-.4.1.1.3.1.4.2-.1.1-.2.1-.2.2z"/><path class="st0" d="M366.6 178.9c.1 0 .2.1.2.2.1.1 0 .1 0 .2-.1.2-.3.2-.5.1.1-.1.2-.2.2-.4l.1-.1z"/><path class="st0" d="M366.9 179.4c0 .1-.1.3-.1.4-.1-.1-.3-.2-.4-.3.1.1.4 0 .5-.1zm-.2-.5s.1-.1.2 0l.1.1v.1c-.2 0-.3-.1-.3-.2-.1.1-.1 0 0 0z"/><path class="st0" d="M366.9 179.4c0-.1.1-.1 0-.2.2.1.3.2.4.3 0 .2-.1.4-.1.6-.2-.1-.3-.2-.5-.3.1-.2.1-.3.2-.4zm0-.5c.3 0 .4.2.4.5-.1-.1-.3-.2-.4-.3v-.2c-.1 0-.1 0 0 0zM367.3 179.4c10.3 6.9 19.8 14.6 30.7 20.5 3.1 1.7 6 3.8 9.2 5.3 1 .4 2 .7 3.1 1h.1c1.3.7 2.6 1.5 3.9 2.1.5.4 1 .7 1.6 1 .4.2.8.4 1.2.5h.1l2.1 1.2c-18.6-8-35.4-19.2-52-31v-.6zm2.1-40.1l-.6-.3v-.1c0-.2.1-.4.3-.4.2.1.5.3.7.5-.1 0-.2.1-.2.1-.1 0-.2.1-.2.2zm-.1 0s0 .1-.1.1c-.1-.1-.3-.2-.4-.3-.1 0-.1-.1-.2-.2l.7.4zM370.2 138.9h-.4c-.2-.2-.5-.3-.7-.5h.2c.3.1.6.3.9.5zm-.4.9c-.1.1-.1.1-.1.2-.1.1-.2.1-.3 0-.1 0-.3 0-.3-.1 0-.2.1-.3.1-.5.3.1.5.2.6.4z"/><path class="st0" d="M369.5 139c.2.1.4.2.6.4 0 .2 0 .4-.1.5 0 0-.1-.1-.2-.1-.2-.1-.4-.3-.6-.4l.1-.1c.1-.1.2-.2.2-.3zm.4 0c.1.1.2.3.2.4-.2-.1-.4-.2-.6-.4.1-.1.1-.1.2-.1l.2.1z"/><path class="st0" d="M370.2 138.9c.3.1.4.4.3.7-.1-.1-.3-.2-.4-.3 0-.2-.1-.3-.2-.4l-.1-.1c.1.1.3.1.4.1zm-.2 1c-.1.1-.1.1-.2.1.1-.1.1-.1.1-.2 0 0 .1 0 .1.1zm.1-.5c.1.1.3.2.4.3 0 .2-.1.3-.1.5-.1-.1-.2-.2-.4-.3.1-.1.1-.3.1-.5z"/><path class="st0" d="M370.5 139.7c.8.5 1.5 1.2 2 2v.4c0 .2 0 .3.2.4-.1 0-.1 0-.2-.1-.5-.5-.8-1.1-1.3-1.6-.2-.2-.5-.5-.8-.7 0-.1.1-.2.1-.4z"/><path class="st0" d="M372.6 140.7c0 .3 0 .6-.1.8-.5-.8-1.2-1.4-2-2 .1-.3 0-.6-.3-.7.9.5 1.8 1.2 2.4 1.9z"/><path class="st0" d="M372.6 140.8c.6-6.7-.6-12.9-1.8-19.4 0-.1 0-.1.1-.2h.2c3.7 5.5 4.2 14.8 2.4 21v.1c-.1.2-.5.3-.7.2h.2c.2-.1.4-.3.3-.5 0-.1-.1-.3-.1-.4-.2-.3-.4-.5-.6-.8z"/><path class="st0" d="M371 121.3h-.1c0-.1.1-.1.1 0zm1.6 20.3c.1-.3.1-.6.1-.8.2.2.4.5.5.8.1.1.1.2.1.4v.2c0 .2-.3.4-.5.3-.1-.1-.2-.2-.2-.4-.1-.1-.1-.3 0-.5zm6.1 2.1c-.1.4-.3.7-.5 1.1-.2.1-.4.2-.7.3-.2-.1-.3-.4-.2-.7 0-.1.1-.1.1-.2l.7-.3c.2 0 .4-.1.6-.2z"/><path class="st0" d="M378.1 144.8v.1c-.1.2-.4.3-.6.2l.6-.3zm.8-9.9c.1.1.2.3.3.5.1 2.9.1 6-1.1 8.6l-.7.3c1.4-3 1.3-6.2 1.5-9.4zm-.2-30.9l.6 1.8c-.6-.6-1.1-1.4-1.3-2.2 0-.2.1-.4.3-.4.1.2.3.4.4.8z"/><path class="st0" d="M379.2 135.5c.1.2.2.4.4.6.4 2.6.1 5.3-.9 7.7-.2.1-.4.1-.7.2 1.4-2.6 1.3-5.7 1.2-8.5zm4.7-28.4c1 .5 2.2.8 3.3.6 1.3-.3 1.1-2.4 1.1-3.4.1.2.1.3.2.4 1.4 6.6-7.4 2.7-9.8-.8-.1-.3-.2-.6-.4-.8.1-.1.2 0 .3.1 1.6 1.6 3.3 2.9 5.3 3.9z"/><path class="st0" d="M382.3 143.5c-1.4.3-2.8.7-4.1 1.2.2-.3.4-.7.5-1 1.3-.4 2.6-.6 3.9-.7.1 0 .3 0 .4.2.2.2.1.5 0 .6l-.3-.3-.1-.1-.3.1c0-.1 0 0 0 0zm-3.4-8.5c-.1-.2-.1-.2-.3-.5-.1-.3.2-.5.4-.3V134.5c-.1.2-.1.3-.1.5zm.3-25.4c-.1-.1-.2-.2-.2-.3 0-.1-.1-.2-.1-.3.2 0 .6.1.7.1s.2.1.2.1c-.2.1-.3.3-.4.5 0 .1-.1 0-.2-.1 0 .1 0 0 0 0z"/><path class="st0" d="M379.2 134.8v.6c-.1-.2-.2-.3-.3-.5 0-.1 0-.3.1-.4.1.1.2.2.2.3z"/><path class="st0" d="M379.1 134.2l.2.2v.5c-.1-.1-.1-.2-.2-.3v-.1c-.1-.2-.1-.2 0-.3zM379.2 134.1c.1 0 .2.1.3.2v.3c-.1-.1-.2-.2-.2-.3l-.2-.2c0 .1 0 0 .1 0z"/><path class="st0" d="M379.3 134.4c.1.1.2.2.2.3v.6c-.1-.2-.2-.3-.3-.4l.1-.5z"/><path class="st0" d="M379.6 136c-.1-.2-.2-.4-.4-.6v-.6c.1.1.2.3.3.4.1.3.1.6.1.8zm8.9-31.2c.1.3.3.6.4.9.3 1.9-.8 3.6-3.3 3.2-2.4-.4-4.6-1.4-6.3-3.1l-.6-1.8c2.4 3.5 11.2 7.3 9.8.8zm-8.8 17.1c2.5 6.2 3.7 12.8 3.7 19.5-.2-.6-.5-1.1-.7-1.7v-.1c-.4-6-1.5-11.9-3.3-17.7v-.1c.1.1.2.1.3.1z"/><path class="st0" d="M379.4 121.9c0-.1.1-.3.2-.3.2-.1.4-.1.5.1.1.1.1.2.1.2h-.4c-.2 0-.3.1-.4 0zm.6-12.3c0 .3-.2.6-.5.6v-.1-.3c.1 0 .3-.1.5-.2zm2.7 30c0 .1 0 .1 0 0 .1.6.1 1.2.1 1.8-.8-2.2-1.9-4.3-3.3-6.1v-.6c1.3 1.5 2.3 3.1 3.2 4.9z"/><path class="st0" d="M379.8 109.3c.1.1.1.2.2.3-.1.1-.3.2-.5.2 0-.2.1-.4.3-.5zm3.9 32.8l.1.2c.2.6-.7.9-1 .3-.9-2.3-2-4.5-3.2-6.6 0-.2 0-.5-.1-.7 1.4 1.9 2.5 4 3.3 6.1v.2c0 .2.1.3.2.4.3.2.5.2.7.1z"/><path class="st0" d="M380 109.6c0-.1-.1-.2-.2-.3.1-.1.2-.1.3-.1 0 .1 0 .3-.1.4z"/><path class="st0" d="M381 119.9c-.2 0-.4.2-.5.4.1-3.4-.3-6.8-1.1-10.1.3 0 .5-.3.5-.6.1-.1.2-.3.2-.4.2 0 .5.1.6.3 1.8 3.3 2 7.3.7 10.8 0-.2-.2-.3-.4-.4zm3 21.7c0 .2-.1.4-.3.5-.1-.2-.2-.5-.2-.8 0-6.7-1.2-13.3-3.7-19.5h.4c2.8 6.2 4.1 13 3.8 19.8z"/><path class="st0" d="M381 121.1c-.2.1-.5 0-.5-.3v-.5-.1c.1-.2.3-.4.5-.3 0 .1-.1.3-.1.4l.1.8z"/><path class="st0" d="M381.4 120.3c-.1.3-.2.5-.3.7l-.1.1v-.8c0-.1.1-.3.1-.4.1.1.3.2.3.4zm1.1 23.2v.1h-.1c-.1-.1-.1-.1 0-.1 0-.1.1 0 .1 0zM382.7 143.9s-.1.1-.1 0-.1-.2-.2-.3h.1v.1s.1 0 .2.2z"/><path class="st0" d="M382.5 143.5h-.1v-.1h.1v.1z"/><path class="st0" d="M382.4 143.5l.1-.1.3.3c0 .1-.1.1-.2.1 0-.1-.1-.1-.2-.3zm.3.3c0 .1 0 0 0 0zm1-1.7c-.2.1-.4.1-.6 0-.1-.2-.2-.5-.3-.7 0-.6-.1-1.2-.1-1.7.2.6.5 1.1.7 1.7.1.2.2.5.3.7zm19.9 33.7c5.5 11.6 11.9 22.5 16.4 34.5 0 .2 0 .3-.1.4 0-.1-.1-.2-.2-.2h-.1c-.1-.2-.2-.4-.2-.5.1.1.3.2.4.2-.1-.2-.2-.3-.4-.2-1-2.2-1.5-4.6-2.5-6.7-1.4-2.7-2.8-5.4-4.1-8.1-2.3-4.7-4.5-9.4-7.1-14-1.2-2.1-2.9-4.2-3.8-6.4-.6-1.9-1.4-3.7-2.2-5.5-5-8.9-10.9-17.1-16.9-25.3.1 0 .1-.1.2-.1 9.1 8.5 15.3 20.7 20.6 31.9z"/><path class="st0" d="M383.1 142.1c-.1-.1-.2-.3-.2-.4v-.2c0 .1.1.4.2.6zm12.6-61c6 3.1 11.5 11.9 14.6 16.8 4.7 7.4 7.2 16.5 6 25.2-.8 6.4-6.1 8.6-11.1 4.8-3.7-2.9-6.7-7.8-9.6-11.6-2.5-3.3-4.8-6.9-6.7-10.6-.1-.5-.2-1-.4-1.4-.1-.1-.2-.1-.2.1-.9-1.8-1.7-3.5-2.4-5.3-.1-.4.4-.6.6-.3 3.7 7.1 8.1 13.8 13.2 20 1.8 2.2 3.5 4.6 5.4 6.7 2.7 3.2 8.1 2.6 9.4-1.5.4-1.7.6-3.4.5-5.2.1-7-2.6-14.1-5.9-20.2-3.1-5.6-9.8-15.7-16.3-18 .4.1 1 .2 1.8.3l1.1.2zm4 88.1c.9 1.8 1.6 3.6 2.2 5.5.9 2.2 2.6 4.3 3.8 6.4 2.5 4.5 4.7 9.3 7.1 14 1.3 2.7 2.7 5.3 4.1 8.1 1.1 2.2 1.6 4.5 2.5 6.7-.4-.3-.7-.7-.9-1.2-.6-1.8-1.3-3.5-2.1-5.3-1.3-2.7-2.9-5.4-4.3-8-3.3-6.3-6.4-12.6-10.2-18.7-1.3-2.1-2-4.9-3-7.1-1.6-3-3.4-6-5.3-8.9-3.4-5.4-8.7-11.9-10.8-16.9 5.9 8.3 11.9 16.5 16.9 25.4z"/><path class="st0" d="M388.2 104.2c0-.1.2-.2.2-.1.2.4.4.9.4 1.4-.1-.3-.3-.6-.4-.9l-.2-.4zm4.6-23.6c-.2 0-.2 0-.4-.1s-.2-.5.1-.5c1.2.2 2.3.5 3.3 1.1l-1.2-.2c-.8-.1-1.4-.2-1.8-.3zm21.4 127.7l2.7 1.5c-.4-.2-.8-.3-1.2-.5-.5-.3-1-.7-1.5-1zm5.3 2.2c-.1-.1-.3 0-.4.1 0-.1 0-.1-.1-.2v-.1c0-.2.1-.4.3-.4.1.2.1.4.2.5.1.1.1.1 0 .1zm.1.4c.1 0 .2 0 .2-.1v.1c-.1.2-.3.3-.5.2-.1-.1-.2-.3-.1-.4h.1c0 .1.1.2.3.2zm-.3-.2h-.1v-.1c0 .1 0 .1.1.1z"/><path class="st0" d="M419.3 210.8l-.1-.1c.1-.1.2-.2.4-.1 0 0 0 .1.1 0h.1c.1 0 .2.1.2.2-.1 0-.2.1-.2.1h-.1l-.4-.1z"/><path class="st0" d="M419.6 210.9c-.2 0-.3-.1-.3-.2l.3.2zm.2-.7c-.1-.1-.3-.1-.4-.2.2-.1.4 0 .4.2zm-.2.3c-.1.1-.1.1 0 0z"/><path class="st7" d="M347.6 113.8c-2.4 0-5.8.7-7.6-.7 2.9-2.9 10.3-2.9 13.9-.9-1.1 2-4.7 2-7 1.6"/><path class="st13" d="M347.6 113.8c-2.4 0-5.8.7-7.6-.7 2.9-2.9 10.3-2.9 13.9-.9-1.1 2-4.7 2-7 1.6"/><path class="st7" d="M347.1 113.5c-.4 0-.4.5-.1.6 2.5.6 5.8.8 7.5-1.6.2-.3.1-.6-.2-.8-4.2-2.2-10.9-2.2-14.6 1l-.1.1c-.2.3-.1.6.2.8 2.2 1.4 5.6 1.3 8.1.6.1 0 .3-.2.3-.3.1-.2-.1-.5-.3-.6-2.5-.5-5.1.6-7.5-.7 0 .3.1.6.1.9 3.3-3 9.4-2.7 13.2-.8-.1-.3-.1-.5-.2-.8-1.4 2-4.3 1.8-6.4 1.6zm9.8-20.3c-2.1-.2-11.9-3.4-8.6-6.7 3.4-3.1 13 6.5 8.1 6.3"/><path class="st13" d="M356.9 93.2c-2.1-.2-11.9-3.4-8.6-6.7 3.4-3.1 13 6.5 8.1 6.3"/><path class="st7" d="M356.3 92.3c-.1.1-.3.2-.3.3-.1.3 0 .6.3.8.1 0 .2.1.2.1.9.3 1.8-.3 2.1-1.2.3-1.1-.6-2.3-1.2-3.1-1.8-2-4.8-4.3-7.6-4.1-1.3.1-2.4.9-2.8 2.2-.3 1.4.6 2.5 1.6 3.4 1.5 1.1 3.1 1.9 4.9 2.5.9.4 3 1.3 3.7.4.1-.1.2-.3.1-.5-.3-.8-1.2-.9-1.9-1.1-1.2-.3-2.4-.7-3.5-1.2-1.1-.4-2.1-1-3-1.9-.7-.8-.7-1.9.6-2.2 2-.5 4.2 1.3 5.5 2.6.7.6 1.3 1.3 1.8 2.1.3.6.1.6-.5.9zm32 68.2c-.4 1.3-2.2-1.3-3.1-2.5-1.1-1.8-2.7-4.3-2-6.5 3.1.7 7 6.1 5.8 9"/><path class="st13" d="M388.3 160.5c-.4 1.3-2.2-1.3-3.1-2.5-1.1-1.8-2.7-4.3-2-6.5 3.1.7 7 6.1 5.8 9"/><path class="st7" d="M388.3 160.5c0 .2.1.4.3.6.3.2.7.1.9-.2 1.2-1.7-.2-4.7-1.2-6.1-1.2-1.8-2.9-3.2-5-4-.4-.1-.9.1-1 .5-.8 3.1 1.1 6.1 2.9 8.4.5.7 1.4 2.1 2.4 2.1h.4c.6-.2.9-.8.7-1.3v-.1c-.1-.2-.3-.2-.5-.1.1-.1.6.1 0-.2-.3-.2-.6-.4-.8-.7-.4-.5-.9-1.1-1.3-1.6-1.2-1.6-2.5-3.8-2.1-5.9l-1 .5c1.8.3 3.4 2.1 4.3 3.7.7 1.2 1.1 2.8 1 4.4zm-96.1-14.6c-3.8-1.1-4-7.2-2.7-10.3 3.5.9 2.9 7.6 2.5 9.9"/><path class="st13" d="M292.2 145.9c-3.8-1.1-4-7.2-2.7-10.3 3.5.9 2.9 7.6 2.5 9.9"/><path class="st7" d="M291.5 145.5c-.1.7.9.7 1.1.1 1-3.2 1.1-9.4-2.9-10.6-.2-.1-.5 0-.6.3-1.4 3.3-1.8 10.5 2.9 11.5.9.2 1.6-1.1.7-1.6-1.7-.7-2.8-2.3-3-4.1-.3-1.8-.2-3.6.4-5.3l-.7.4c3.3 1.1 2.2 6.6 2.1 9.3zm64.7 3.6c-5.1-2.1-2.7-9.2 2.3-6.1 2.9 1.8.9 7.2-2.3 5.2"/><path class="st13" d="M356.2 149.1c-5.1-2.1-2.7-9.2 2.3-6.1 2.9 1.8.9 7.2-2.3 5.2"/><path class="st7" d="M356.3 147.7c-.1 0-.3 0-.4.1-.2.2-.2.4 0 .6.6 1 1.9 1.3 2.9.8s1.7-1.5 1.9-2.6c0-.2.1-.3.1-.5.2-2.5-1.6-4.7-4.1-4.9h-.3c-2.1-.1-3.9 1.5-4 3.5-.2 2.1 1.4 5 3.8 5 .2 0 .4-.1.5-.2.3-.3.3-.8 0-1.1-1-1.1-2.5-1.4-2.5-3.2 0-1 .6-2.1 1.8-2.1h.3c1.5 0 2.6 1.3 2.6 2.8 0 .1 0 .3-.1.4-.3 1.1-1.4 1.8-2.5 1.4z"/><path class="st9" d="M330 129.8c.8 0-.2-9.9-.2-12.1"/><path class="st13" d="M330 129.8c.8 0-.2-9.9-.2-12.1"/><path class="st9" d="M330.4 117.5c-.1-.9-1.3-.5-1.4.2-.1 2-.1 4.1.1 6.1.1 1.8-.2 3.7-.1 5.6-.1.6.3 1.1.9 1.2.6.1 1.1-.3 1.2-.9.7-1.8 0-4.5-.2-6.4s-.2-4-.5-5.8zm-10.1 17.2c-.7-5-1.6-9.7-2-14.6"/><path class="st13" d="M320.3 134.7c-.7-5-1.6-9.7-2-14.6"/><path class="st9" d="M319.2 119.8c-.2-1-1.8-.8-1.8.2 0 3 .3 6 .8 9 .1 2.1.5 4.2 1.3 6.2.1.2.3.4.6.5.6.2 1.2-.1 1.3-.7.4-2.5-.3-4.8-.8-7.4-.5-2.6-.8-5.2-1.4-7.8zm-8.1 18.5c-.4-4-2.2-8.1-2-12.1"/><path class="st13" d="M311.1 138.3c-.4-4-2.2-8.1-2-12.1"/><path class="st9" d="M309.3 125.5c-.4-.1-.8.1-.9.5-.7 2.1-.1 4.6.2 6.6.4 2 .3 4.9 1.9 6.3 0 0 .1.1.2.1.4.3 1 .1 1.2-.3 1.1-1.8 0-4.1-.6-6-.7-2.2-.9-4.5-1.5-6.8-.1-.2-.3-.4-.5-.4zm37.5 30.1c.7-3.8-1.6-7.4-1.6-11 0-.8 0-.2.2.2"/><path class="st13" d="M346.8 155.6c.7-3.8-1.6-7.4-1.6-11 0-.8 0-.2.2.2"/><path class="st9" d="M345 145.1c.3.1.6 0 .9-.2.4-.4.4-1 .1-1.3-.1-.1-.3-.2-.4-.2-.5-.1-1 .1-1.2.7-.3 1.7-.1 3.4.4 5 .6 2.2 1 4.4 1.1 6.6 0 .4.3.8.7.9.5.1 1-.2 1.2-.7.6-2 .5-4.2-.2-6.2-.5-1.9-.9-3.8-1.3-5.7l-1.3 1.1zm-8.1 9.1c-.2-2.7-.9-6.3-2.2-8.3"/><path class="st13" d="M336.9 154.2c-.2-2.7-.9-6.3-2.2-8.3"/><path class="st9" d="M335.5 145.1c-.3-.3-.7-.4-1.2-.3-.6.2-.8.8-.6 1.4.4 1.5 1.1 2.9 1.4 4.5.2 1.4.5 2.7 1.1 4 .1.2.3.3.5.4.5.1 1-.1 1.1-.6.7-2.7-.2-7.4-2.3-9.4zm-7.3 10c-.9-2.2-1.8-4.5-2.7-6.5"/><path class="st13" d="M328.2 155.1c-.9-2.2-1.8-4.5-2.7-6.5"/><path class="st9" d="M326.6 147.9c-.3-.5-.9-.8-1.5-.6-.7.2-1.2 1-1 1.7.4 1.3.9 2.5 1.4 3.7.4 1.2 1.1 2.3 1.9 3.2.2.2.5.3.8.3.6 0 1.1-.5 1-1.1-.2-2.6-1.1-5.1-2.6-7.2z"/><path class="st13" d="M286.2 135.9c-2.8 2.1-5.7 4.1-8.6 6-2.2 1.5-4.4 3-6.5 4.5-1.2.8-3.4 2.2-4.2 3.4-1.1 1.7-.3 5-.1 7.1.6 5.6 1.8 11.1 3.4 16.5 1.4 4.7 3.1 9.2 4 13.9.6 3.2 1 7.4 2.6 10.2 1.2 2.2 3.7 3.7 5.7 5.1 2.9 2 5.5 4.8 8.6 6.5 3.7 2.1 3.8-1.6 4.8-4.6s3.5-5.6 4.2-8.7c.6-2.9-1.6-4.5-3.1-6.8-3.3-5.3-5.7-11.1-7.1-17.1-3-12-3.4-24.4-3.4-36.7"/><path class="st9" d="M286.7 134.6c-.3 0-.7.2-.7.5-.7 12.8 0 26.7 3.6 39.2 1.8 5.8 3.9 11.5 7.5 16.4 3.8 5.3.4 7.5-1.3 11.2-.8 1.7-2 7.5-5.7 4.7-2.8-2.2-5.5-4.3-8.4-6.5-4.2-3.2-5-6.6-5.8-11.4-1.1-6.2-3.3-12.1-5-18.2-1.9-7-6.2-18 1-23.1 5-3.6 10.6-6.7 15.1-11 .5-.4.6-1 .2-1.5-.4-.5-1-.6-1.5-.2-4.5 2.6-8.9 5.6-13.1 8.7-2.1 1.5-5.5 3.1-6.8 5.4-2.7 4.7.6 15.3 1.9 20 2.4 8.9 4.5 18.1 7.2 26.8 1.7 5.5 9.5 10.2 14 13 2.9 1.9 6.3 3.1 7.6-1.2 1.1-3.9 7.3-11.3 4.5-15.5-5.2-8.1-9.1-15.8-10.9-25.4-2-10.5-2-21-2.7-31.6-.2 0-.4-.2-.7-.3z"/><path class="st13" d="M272.1 173.5c4-4.5 11.2-4.9 15.5-7.2"/><path class="st9" d="M286.6 165.4c-5.4 2.2-11.3 2.7-15.5 7.1-1.3 1.3.7 3.4 2.1 2 3.9-4 9.6-4.6 14.5-6.8 1.2-.5.2-2.9-1.1-2.3z"/><path class="st13" d="M291.1 207.6c-3.1-9.2-6.1-18.9-8.8-28.3-1.8-7-3.4-14.4-4.7-21.3-.7-4-.2-10.5-2.5-13.9"/><path class="st9" d="M275.8 143.8c-.4-.6-1.4-.2-1.2.5 1.6 4.6 1.2 9.3 2.1 14 1.1 5.6 2.2 11.1 3.5 16.6 2.6 11.2 5.9 22.2 9.6 33 .5 1.7 3.3 1 2.7-.7-4-11.6-8-23.4-10.8-35.3-1.6-6.3-2.8-12.8-3.5-19.3-.3-3.1-.5-6.1-2.4-8.8z"/><path class="st13" d="M384.3 189.7c6.3-3.4 16.8-3.8 23.5-1.1"/><path class="st11" d="M408 188.3c-7.1-3.5-17.1-3-24.1.7-.9.5-.1 1.7.8 1.3 7.4-3.4 15.3-3.5 23.1-1.5.2.1.4-.3.2-.5z"/><path class="st13" d="M391.7 183.6c2.9-1.1 6.5-.7 9.4-.9"/><path class="st11" d="M399.8 183.1c.7 1.6 3.1 1 2.6-.7-.2-.5-.6-.9-1.1-.9-.8-.1-1.5.4-1.6 1.1l.8-.6c-3.1.3-6.3-.5-9 1.4-.2.2-.2.5.1.5 2.9-.1 5.9-.4 8.8-.4l-.8-.6.2.2z"/><path class="st13" d="M369 179.1c3.6-9.2 22-10.5 29.8-8.3"/><path class="st11" d="M398.7 171.3c.2 0 .4-.1.5-.3.1-.2 0-.5-.3-.6-8.6-3-27-1.6-30.6 8.6-.2.7.8 1.1 1.1.5 5.8-9.6 19.6-9.9 29.3-8.2z"/><path class="st13" d="M364.5 175.5c4-9.7 15.3-8.3 23.1-10.8"/><path class="st11" d="M387.6 164.5c-7.4.7-21.3 2-23.5 11-.1.2 0 .3.2.4.2.1.4 0 .5-.1 3.5-4.7 6.7-7.2 12.6-8.3 3.4-.7 7.3-.8 10.4-2.4.2-.2.1-.6-.2-.6z"/><path class="st13" d="M372.2 158.9c3-1.9 6.5-2.9 10.1-2.9"/><path class="st11" d="M382.5 156.1c0-.2 0-.3-.2-.4-3.3-.9-8 .7-10.4 3-.2.2 0 .7.3.6 1.8-.7 3.6-1.5 5.5-2 1.5-.4 3.1-.5 4.6-.9.1-.1.2-.2.2-.3z"/><path class="st13" d="M401.3 199.8c3.6-2 8.8-1.7 12.6-.7"/><path class="st11" d="M414.1 199.3c.1-.1.1-.3-.1-.4-3.4-1.7-9.9-2-12.9.7-.3.2 0 .7.3.6 2.2-.5 4.2-1.3 6.5-1.3 2 0 4 .4 6 .6l.2-.2z"/><path class="st13" d="M329.3 106.4c-3.4-6.5-2-17.2 1.8-23.3"/><path class="st11" d="M331.2 83.1c.1-.1-.1-.2-.2-.1-3.7 6-6.7 17.3-1.9 23.5.1.1.2.2.3.1.2 0 .2-.2.2-.4-1.8-8-2.7-15.4 1.6-23.1z"/><path class="st13" d="M313.1 110.5c-1.5-7.6-2-18 3.8-24"/><path class="st11" d="M316.8 86.3c-6.5 6.3-5.6 16.1-3.9 24.3.1.3.6.2.5-.1-1.4-8.1-1.4-17 3.8-23.8.1-.4-.2-.6-.4-.4z"/><path class="st13" d="M304.2 117c-2.9-5.4-2.5-10.1-1.6-15.9"/><path class="st11" d="M302.3 101c-1.1 5.6-1.3 11.1 1.4 16.3.3.6 1.1.1.8-.5-2.5-5.3-2.2-10.1-1.7-15.7.1-.4-.4-.5-.5-.1z"/><path class="st13" d="M353.1 167.4c0-1.4-.2-2.9-.2-4.3"/><path class="st11" d="M353.5 163.1c0-.3-.3-.6-.6-.6s-.6.3-.6.6c-.2 1.5-.1 3 .3 4.4.1.2.2.3.3.3.3.1.6-.1.7-.3.3-1.4.2-2.9-.1-4.4z"/><path class="st13" d="M346.4 167.2c0-.9 0-1.9-.2-2.8"/><path class="st11" d="M347.2 164c-.2-1.2-2-.7-1.8.5.2.9.3 1.8.5 2.8.1.2.2.4.4.4.4.1.7-.1.8-.4.2-1.1.2-2.2.1-3.3z"/><path class="st13" d="M339.5 169c0-1.8-.2-3.5-.4-5.3"/><path class="st11" d="M340.5 163.7c.1-2-3.3-1.6-2.7.4.5 1.7.6 3.4 1.2 5 0 .2.2.4.4.4.3.1.6-.1.6-.4.7-1.8.4-3.5.5-5.4z"/><path class="st13" d="M359.2 197.4c0-3.5.4-8.6-.6-11.8"/><path class="st11" d="M358.7 185.3c-.2-.1-.4.1-.4.2-.4 1.7.2 3.7.2 5.5-.1 2.1 0 4.2.3 6.3.1.4.8.7.9.1.4-2.4.5-4.8.4-7.2-.1-1.6 0-3.7-1.2-4.9h-.2z"/><path class="st13" d="M350.7 197c.7-4.3-.6-8.7-.4-13"/><path class="st11" d="M349.8 183.9c-.6 4.2.2 8.8.4 13.1 0 .2.1.4.3.5.3.1.5-.1.6-.3 1.2-4.2 0-8.9-.4-13.1 0-.6-.8-.8-.9-.2z"/><path class="st13" d="M344.2 197.2c0-3.2-.4-6.5-.4-9.7"/><path class="st11" d="M343.8 186.5c-.5 0-1 .4-1 1-.1 3.3.2 6.6.7 9.9.1.2.2.4.4.4.4.1.7-.1.8-.4.7-3.2-.1-6.7-.1-9.9.2-.6-.3-1-.8-1z"/><path class="st13" d="M336.1 195.7c0-2.8 0-5.7.2-8.3"/><path class="st11" d="M334.9 187.4c-.1 2.7-.5 6.1.7 8.6 0 .1.1.1.2.2.2.1.5.1.7-.2 1.2-2.5.8-5.8 1.1-8.6.2-1.7-2.7-1.7-2.7 0z"/><path class="st13" d="M328 195.5c.2-3.3.2-6.3.6-9.5"/><path class="st11" d="M329.3 186c0-.3-.2-.6-.5-.7-.4-.1-.8.1-.8.5-1.1 3.2-1.3 6.6-.7 9.9.1.2.3.4.5.5.4.1.8-.1 1-.5.5-1.5.7-3 .6-4.6 0-1.7 0-3.4-.1-5.1z"/></g><path d="M270.1 33.5l-1.7-1.7c-1.4-3.3-3.1-6.6-5.2-9.7l-1.9-2.6c-1.2-1.7-2.2-3.4-3.1-5.3.5-.2 1.1-.3 1.6-.1 1.7 2.3 3.2 4.7 4.4 7l.5.3 6 9.9c.4.5.6 1.1.4 1.8-.1.4-.5.5-1 .4zM278.3 36.9l-1-1 .1-.9.2-.1 1.5.1.2-1.1-.1-1.5.3-3.4.2-.1.2-2.2.1-.1.3-3.4.1-.1.2-1.5c-.6-.3-1.1-.7-1.6-1.1l-.3-1.3 1-.2 1.2.5.7-.1 1.1.2h1.1l1 1.1-.1.7-1.8.2-.5.6-.2 2.4-.2.4.1.7-.2.1-.2 2-.2.1-.6 5.7.3.8.4.2 1-.3.9.5v1c-1.6 1-3.3 1.3-5.2 1.1zM293.5 23.1l-.1-.2c.3-1.1.8-2.2 1.5-3.1l-.4-.2c-.7.4-1.5.7-2.2.8l-.8-.8.1-1.4v-1l2.1-2.1.7.1 2 1.3c.6 1.2.9 2.5.7 4-.4 1.1-1.1 2.1-2 2.8l-1.6-.2zM312 40.1c-.5-.2-.9-.6-1-1.2v-1l.2-1-.1-.2.2-2.3-.1-1.8.2-.4-.2-1 .5-.5 1 .1.6.6-.2 1.8.4.2c.4-1.1 1.1-2 2.1-2.7.5-.3 1.1-.4 1.8-.2l1.4 1.5h.4c.4-.5.9-.7 1.5-.6l.9.8c.3 2.6.9 5.1 1.6 7.5l-.7.3-1-.7c-.7-1.6-1.1-3.2-1.2-5h-.3c-.9 1.6-1.7 3.2-2.3 5h-1c-.6-.5-.8-1.2-.5-2l1.1-4.4-.4-.6h-.4c-1.7 2.2-2.9 4.8-3.6 7.6l-.9.2zM345.6 43.6c-.9-.3-1.6-.9-2.3-1.7-.7-1.1-1.1-2.2-1.3-3.4l.4-4.5c.6-2.9 1.8-5.7 3.6-8.1l.4-.1 1.1-1.1h1.4l1.5 1.3.2.8c-.2.4-.5.5-1 .3l-1-.5c-2 2-3.4 4.4-4 7.1l-.1 1.4-.3.7-.2 2.4c0 1.3.5 2.5 1.3 3.6l.5.2 2.2-2h.3l.2-.4.6-.1c.3.3.4.7.3 1.1-.7 1-1.6 1.9-2.7 2.7l-1.1.3zM356.2 44.5l-.9-.9.1-1.1.4-1.5.2-1.7.4-1.3.2-1.9.2-.1.2-2 .2-.1.2-1.9-.1-.2.3-2.6-.2-2.3c.3-.4.8-.6 1.3-.4l.9.8-.2 2.3.1 1.5-.3 3-.3 1.2h.4l.4-.2 1.4.1c.9.6 1.4 1.4 1.7 2.4l.2 1.8-.1 1.4.6 2.4.8.8-.1.6-.5.5-.7-.1-1-.8c-1-2.1-1.5-4.4-1.4-6.8l-.7-.2c-1.1 1.5-1.8 3.3-2.2 5.3l-.1 1.5-1.4.5zM370.9 45.7l-1.3-1.2c-.5-.9-.6-1.9-.5-3l.2-1.5c.4-2.3 1.6-4.2 3.5-5.7l.7-.3 1.4.1c.9.3 1.7.8 2.3 1.6.3.9.4 2 .4 3.1l-.2 2.5.8 2.2.4.2.4 1.3-.7.5c-.7-.2-1.3-.6-1.7-1.4l-.6-1.3-.4-.2c-.9 1.4-2.1 2.5-3.5 3.4l-1.2-.3zm.9-2.1c1.7-1.5 3-3.2 3.7-5.2l.2-1.8-.2-.7-.9-.2c-1.1.6-1.9 1.5-2.5 2.7l-.9 2.1-.2 2.2.3.9.4.2.1-.2zM386.2 47.2l-.8-.8-.1-2.3.2-1.7-.1-.2.4-3.6.2-.1.2-2.2.2-.1.2-1.7.2-.1.7-6.5 1.1-.2.8.5.1.2-.3 2.8-.2.1-.2 2.1.1.4-.2.1-.2 1.8-.2.1-.2 1.7-.2.1-.2 2.4-.2.1-.1 1.4.1.4-.2.8.1 4.2-.2.3h-1zM397.3 48.4l-.8-.8-.1-2.3.2-1.7-.1-.2.4-3.6.2-.1.2-2.2.2-.1.2-1.7.2-.1.7-6.5 1.1-.2.8.5.1.2-.3 2.8-.2.1-.2 2.1.1.4-.2.1-.2 1.8-.2.1-.2 1.7-.2.1-.2 2.4-.2.1-.1 1.4.1.4-.2.8.1 4.2-.2.3h-1zM407.1 49.3l-1.3-1.2c-.5-.9-.6-1.9-.5-3l.2-1.5c.4-2.3 1.6-4.2 3.5-5.7l.7-.3 1.4.1c.9.3 1.7.8 2.3 1.6.3.9.4 2 .4 3.1l-.2 2.5.8 2.2.4.2.4 1.3-.7.5c-.7-.2-1.3-.6-1.7-1.4l-.6-1.3-.4-.2c-.9 1.4-2.1 2.5-3.5 3.4l-1.2-.3zm.9-2.1c1.7-1.5 3-3.2 3.7-5.2l.2-1.8-.2-.7-.9-.2c-1.1.6-1.9 1.5-2.5 2.7l-.9 2.1-.2 2.2.3.9.4.2.1-.2zM420.8 50.6l-.8-.8.1-2.3.2-.4-.1-.2.3-3.2-.2-3.8c.5-.4 1.1-.5 1.7-.3.2.6.4 1.2.4 1.9l-.2 1.5.1.6.6.1.8-.9c.8-.6 1.8-.9 2.8-1l1.3.7c.5 2.2 1.1 4.4 1.7 6.5l.6.8-.1.6-1.5-.2-1.6-2c-.1-1.5-.3-3-.5-4.4l-.6-.2c-1.3.7-2.3 1.7-3 3l-.6 1.9-.2 1.8c-.2.5-.7.5-1.2.3zM437.3 54.2l-1.4-1.1.1-1.1h1.1l1.1.6c.8-.7 1.2-1.6 1.3-2.7l.2-1.7.2-.1.3-2.6-.5-.2c-.8.6-1.6.9-2.7.8l-.7-.5-1.1-1.5-.1-.6.1-1.3c.4-1.8 1.5-3.4 3.3-4.6l1.8-.3c.8.2 1.5.6 2.1 1.4l.4 2.4-.2 2-.5.9-.6 5.5-.2.4.1.6c-.2 1.5-.9 2.7-2.2 3.7h-1.9zm1-10c.9-.5 1.6-1.2 2.1-2l.6-2.1-.3-1.1-.8-.1-1.3.6c-.9 1.2-1.5 2.6-1.8 4.1l.4.8h.4l.7-.2zM450.5 54.1c-.7-.2-1.3-.6-1.8-1.4-.6-1.1-.9-2.3-.7-3.6l.3-2.9c.2-1.6 1-2.8 2.2-3.8.6-.3 1.2-.4 2-.2 1.4 1 2.5 2.2 3.4 3.8l-.1 1c-1.7 1.2-3.5 2-5.5 2.3l-.2.1-.1 1.4.4 1.3.8.2c2.1-.6 4.1-1.3 6.2-2 .2.4.3.8.1 1.3-2.2 1.5-4.5 2.4-7 2.5zm1.4-7.2l1.7-.9v-.4l-1.6-1.7c-.6.4-1.1.9-1.4 1.5l-.6 1.8.7.2 1.2-.5zM464 55.1l-1-1.2.1-1.4-.1-.2.2-1.8-.1-.4.5-1.8-.5-4.6c.4-.2.8-.3 1.3-.2.6.9.9 1.9.8 3.1h.3l1.4-.8.2-.4 2-1.1 1.5.2 1.4 1.4.1.9c-.1.8-.4 1.3-1 1.6l-1-1.1-.1-.7-.4-.2c-1.4.7-2.6 1.7-3.7 3l-.6 1.1-.1 1.4.1 1.6-.1 1.4c-.4.3-.7.4-1.2.2zM477.8 55l-1.2-1.4.1-.6c5.1-5.7 10.2-11.4 15.4-17l.7.1.9 1-.1.6c-5.4 5.5-10.4 11.3-15.1 17.2l-.7.1z"/><g><path d="M63.2 86.5l-2.1-1.1c-2.3-2.8-4.8-5.5-7.6-7.9l-2.6-2c-1.6-1.3-3.1-2.7-4.5-4.2.4-.4.9-.6 1.5-.6 2.3 1.8 4.3 3.6 6.2 5.5l.6.2 8.5 7.9c.6.4.9.9.9 1.6-.1.4-.4.6-.9.6zM77.3 86.4l-1-.4c-1-1.7-1.8-3.5-2.2-5.5l-.4.1-.3 6-.9.3c-.8-1.1-1.5-2.4-1.9-3.8l-.2-1.3-.5-1.3-.5-2.8-.2-.1-.3-1.5-.2-.1-.4-2.1-.2-.1-.5-2.8-.1-.1-.2-1.3 1-.5.7.3.5 1.4-.1.2.5 2.7.2.1.3 1.4.6 1.7-.2.1.3 1.5.2.1.2 1.3.4.1c.1-1.9.1-3.8-.1-5.7l-.3-1.5.1-1.3-.2-1.5.1-.2-.2-1.3c.3-.3.7-.5 1.2-.5l.9.5.3 1.7.2.1.8 4.6-.1.2.6 3.5.2.5.1 1.1.5 1.2.4-.1c-.1-3.7-.1-7.3-.1-11l-.3-1.7.2-.3 1.3-.2c.6.3.9.7.8 1.4-.2 3.4-.3 6.9-.4 10.4l.2 1.3c-.1 1.8-.3 3.5-.4 5.2h-.4zM88.7 84.5c-.7 0-1.5-.2-2.1-.9-.9-.9-1.5-1.9-1.7-3.2l-.5-2.8c-.2-1.6.1-3 1-4.2.5-.5 1.1-.7 1.8-.8 1.6.6 3 1.5 4.3 2.7l.2 1c-1.3 1.6-2.9 2.9-4.7 3.8l-.1.2.2 1.4.8 1.1h.8l5.4-3.6c.3.3.5.7.5 1.2-1.5 1.8-3.5 3.3-5.9 4.1zm-.6-7.3l1.4-1.4-.1-.4-2-1.2c-.5.5-.8 1.1-.9 1.8l-.1 1.8h.7l1-.6zM102.7 81.6l-.9-.5-.7-2.2-.3-1.6-.2-.1-.6-3.6.1-.2-.4-2.2.1-.2-.3-1.6.1-.2-1.2-6.4 1-.5.9.3.2.1.5 2.7-.1.2.4 2.1.2.4-.1.2.3 1.8-.1.2.3 1.6-.1.2.4 2.4-.1.2.2 1.4.2.4v.8l1.3 4-.1.3h-1zM114.6 79.8c-1 0-1.9-.4-2.7-1.1l-1.1-1.5-.4-2.3c-.2-2.2.3-4.2 1.5-6 .4-.5.9-.8 1.5-.8.9-.2 1.8.1 2.5.8l.5 1.2-1 .5-1.6-.8c-.5.7-1 1.4-1.3 2.3l-.1 3.1.3 1.8.9 1 1.1.1c1.1-.7 2.2-1.3 3.2-2l.6.3.1.8c-1 1.3-2.4 2.2-4 2.6zM127.9 77.3c-.9 0-1.7-.2-2.4-.6l-1.3-1.5-.6-3.3c.1-2.1.7-4.1 1.9-6 .6-.5 1.3-.8 2.1-.9l1.5.6c1.5 1.4 2.6 3.2 3.2 5.1 0 1.8-.6 3.4-1.8 4.9-.6.8-1.5 1.4-2.6 1.7zm.7-2.4c1-.9 1.6-1.9 1.9-3.2l.1-.4-.3-1.7-1.8-2.8-1 .2-1.1 1.6c-.3.9-.6 1.9-.8 2.9l.3 1.6v1l.8 1.4.7.2 1.2-.8zM139.3 75.3c-.6-.1-1-.4-1.3-.9l-.3-1v-1l-.2-.1-.4-2.3-.6-1.7.1-.4-.5-.9.3-.6 1-.2.8.4.3 1.8.4.1c.1-1.1.5-2.2 1.3-3.2.4-.4 1-.7 1.7-.7l1.7 1.1.4-.1c.3-.6.7-.9 1.2-.9l1.1.5c1 2.4 2.2 4.6 3.6 6.7l-.6.5-1.2-.4c-1.1-1.3-1.9-2.8-2.5-4.5h-.3c-.4 1.8-.7 3.6-.9 5.4l-.9.3c-.7-.4-1.1-1-1-1.8l-.1-4.5-.5-.5-.4.1c-1 2.6-1.5 5.4-1.4 8.3l-.8.5zM157 72.2c-.7 0-1.5-.2-2.1-.9-.9-.9-1.5-1.9-1.7-3.2l-.5-2.8c-.2-1.6.1-3 1-4.2.5-.5 1.1-.7 1.8-.8 1.6.6 3 1.5 4.3 2.7l.2 1c-1.3 1.6-2.9 2.9-4.7 3.8l-.1.2.2 1.4.8 1.1h.8l5.4-3.6c.3.3.5.7.5 1.2-1.5 1.8-3.5 3.3-5.9 4.1zm-.6-7.4l1.4-1.4-.1-.4-2-1.2c-.5.5-.8 1.1-.9 1.8l-.1 1.8h.7l1-.6zM169.5 62.2l-1.4-.8-.2-.4-.7-3.9v-.7l-.2-.5v-2.6l-.4-2 .9-.6 1 .4.5 1-.2 1.4.2 1.5v1.5l.4 2.1-.1.2.3 1.7.2.7-.1.8-.2.2zm.8 6.7l-1.1-.6-.2-.9.2-1.1 1.4-.7c.5.5.8 1.1.9 1.8l-.4 1.3-.8.2zM180.4 66.2l-1.5-1-.1-.6c3.4-6.9 6.7-13.7 10.1-20.6l.7-.1 1.1.7.1.6c-3.7 6.8-6.9 13.7-9.8 20.7l-.6.3z"/></g></svg>