<svg id="レイヤー_1" xmlns="http://www.w3.org/2000/svg" viewBox="0 0 347.6 266.6"><style>.st3{fill:#503014}.st4{fill:#1d3033;stroke:#1d3033;stroke-width:.66;stroke-linecap:round;stroke-linejoin:round}.st5{fill:#433138}.st6{fill:#f3ed64}.st7{fill:#3e3f3f}.st8{fill:#f7e5d7}.st9{fill:#9e7642}.st10{fill:#dc4846}.st11{fill:#dadada}.st12{fill:#a3a2a2}.st13{fill:#1a5486}.st15{fill:#fff}.st16{fill:none}.st17{fill:#6b6b6b}.st18{fill:#8d1d22}.st19{fill:#f9d9d9}.st20{fill:#957884}.st21{fill:#8c4289}.st22{fill:#9068a2}.st23{fill:#ebd494}</style><g id="レイヤー_1-2"><path d="M345.2 178.1c.8-11.6 1.9-28 1.9-37.4v-77l-100.6-2.1c-1.5 11.9-1.8 23.9-.9 35.9 1.7 23 3.4 50.8 2.9 62.2-.9 21.3-5.7 27.3-5.7 27.3l82.9 3.6 19.5-12.5z" fill="#d1be96" stroke="#000" stroke-miterlimit="10"/><linearGradient id="SVGID_1_" gradientUnits="userSpaceOnUse" x1="237.028" y1="150.748" x2="352.75" y2="130.34" gradientTransform="matrix(1 0 0 -1 0 265.89)"><stop offset="0" stop-color="#fff" stop-opacity="0"/><stop offset="1" stop-color="#452c11" stop-opacity=".3"/></linearGradient><path d="M345.2 178.1c.8-11.6 1.9-28 1.9-37.4v-77l-100.6-2.1c-1.5 11.9-1.8 23.9-.9 35.9 1.7 23 3.4 50.8 2.9 62.2-.9 21.3-5.7 27.3-5.7 27.3l82.9 3.6 19.5-12.5z" fill="url(#SVGID_1_)"/><path d="M327 178.1c5.3 4.4 17.7.3 17.7.3l-9 5.8-10 6.4s-.6-2.6 1.3-12.5z" fill="#d1be96" stroke="#000" stroke-linejoin="round"/><g id="旗のフリーアイコンその3"><path id="パス_510" class="st3" d="M291.1 105.9c7 1.2 23 10.3 20.9 16.9l-.6 2.9c2.2 5.5 7.7 8.8 13.6 8.3-2.1 6.9-8 9-15.2 9.4-10.9-.6-9.4-3.7-9.4-3.7s9-4.8-18.9-7.9l9.6-25.9z"/><path id="パス_511" class="st3" d="M267.7 153.2c-1.6 0-2.8-1.3-2.8-2.8 0-.3.1-.7.2-1l18.1-48.5c.5-1.5 2.1-2.3 3.6-1.8 1.5.5 2.3 2.1 1.8 3.6l-.1.2-18 48.5c-.6 1-1.6 1.8-2.8 1.8z"/></g><g id="レイヤー_3"><path class="st4" d="M194.2 224.6c0 .2.2.3.4.2.3-.1.6-.3.9-.5 0 .1 0 .2.1.2 0 .4-.3.8-.7.8-8.3.7-24.6 1.3-27.8 11.2 0 .1-.1.3-.2.4l-1-.4h-.1c-.1 0-.2.1-.2.2-.2-.3-.1-.7.1-1 6.7-8.4 18.1-12.4 28.8-11.9-.3.2-.3.5-.3.8 0-.1 0 0 0 0z"/><path class="st4" d="M166.1 237c-.2-.1-.3-.2-.5-.3 0-.1-.1-.1-.1-.2v-.1c.1-.1.2-.2.3-.1l1 .4c-.1.1-.1.2-.2.2-.2.2-.4.2-.5.1zM165.5 236.6s.1.1.1.2c-.1-.1-.1-.2-.1-.2zM165.6 236.8c.2.1.3.2.5.3-.1-.1-.3-.2-.5-.3z"/><path class="st4" d="M176.8 243c2.3 2.4 4.2 4.9 6.3 7.4 4.1 5 8.9 8.8 15.8 8.2 4-.3 7.6-1.9 11.6-1.7 2.3 0 4.8 1.1 7.1 1v.6c-2.4 0-4.6-.6-7.1-.9-3.6-.4-7.8 1.2-11.4 1.7-3.4.5-6.5-.6-9.5-2.1-4.2-2.2-7.2-6.6-10.1-10.1-4-4.8-8.1-7.3-13.4-10.1.1.1.3.1.4 0 3.6 1.7 7.6 3.2 10.3 6z"/><path class="st4" d="M175.7 241.4c3.9 3.4 6.7 7.7 10.3 11.4 5.6 5.9 12.1 5.4 19.5 3.9 4.3-.9 7.8.2 12 .7v.7c-2.3.1-4.8-1-7.1-1-4-.2-7.6 1.4-11.6 1.7-6.9.6-11.6-3.2-15.8-8.2-2.1-2.5-4.1-5-6.3-7.4-2.6-2.8-6.7-4.3-10.2-6 .1 0 .2-.1.2-.2 3.2 1.1 6.7 2.2 9 4.4z"/><path class="st5" d="M194.8 225.3h.2c.4-.1.6-.6.5-.9v-.1c1.3-.9 2.4-2.6 3.5-3.7 1.3-1.2 2.6-2.6 3.7-4 1 .3 2.1.4 3.2.5-1.5 4.8-2.5 10.2-1 14.7 0 .1.1.1.1.2.1.1.3 0 .3-.1 1.8 1.5 3.8 2.8 6 3.5 1.9.8 4.3 1.9 6.4 1.6.1.1.2.2.4.2.8.6 1.6 1.2 2.5 1.8-.5 2.4-2.7 11.2-3.1 18.2-4.2-.5-7.8-1.6-12-.7-7.3 1.6-13.8 2-19.5-3.9-3.5-3.7-6.4-8-10.3-11.4-2.4-2.2-5.9-3.3-9-4.6.1-.1.2-.2.2-.4 3.4-9.6 19.6-10.3 27.9-10.9z"/><path class="st4" d="M183.4 194.8c0 .1 0 .2.1.3h.1c-2.5 2.3-5.1 7.5-4.8 11.3-.2.2-.3.5-.2.7-.3-.1-.4-.3-.4-.6 0-2.5.7-5 1.8-7.2.5-1 1.9-4 3.4-4.5z"/><path class="st4" d="M179.4 206.4v.2c0 .2 0 .3-.2.4-.2.2-.4.2-.7.2-.1-.3 0-.5.2-.7.3-.2.5-.3.7-.1z"/><path class="st4" d="M186.1 210.1c0 .3.1.5.4.7.3.2.7 0 .9-.3 1.8.5 3.6 1 5.3 1.6 2.8.9 6.3 2.7 9.6 3.7-.2.1-.5.3-.6.5-3.1-.9-6.1-2.5-9.1-3.6-4.6-1.7-9.4-2.4-13.6-5.3-.1-.1-.2-.2-.2-.3.2.1.5 0 .7-.2 1.9 1.5 4.2 2.5 6.6 3.2zM183.9 195.4c-.4 1.1-1.8 2.3-2.4 3.3-1.4 2.3-2.2 4.9-2.1 7.6-.2-.1-.5-.1-.6.1-.2-3.8 2.3-9 4.8-11.3l.3.3z"/><path class="st4" d="M179.4 206.4c2.1 1.3 4.4 2.4 6.9 3.1 0 .1-.1.2-.2.4v.3c-2.4-.7-4.7-1.7-6.8-3.1.1-.1.2-.3.2-.4l-.1-.3z"/><path class="st6" d="M183.9 195.4c2.2 1.5 4.7 2.7 7.3 3.3-3.4 2.3-3.4 7.2-4.9 10.7-2.4-.7-4.7-1.8-6.9-3.1-.1-2.7.7-5.3 2.1-7.6.6-1 2-2.2 2.4-3.3z"/><path class="st4" d="M183.6 195.1c-.2-.1-.2-.2-.2-.3.2-.1.4-.1.6-.1l.1.1v.1l-.1-.1c-.2.1-.3.2-.4.3z"/><path class="st4" d="M184 194.4c7.4 3.1 15.1 5.1 22.8 7.6 0 .1-.1.2-.1.3 0 .1 0 .2.1.3-3.3-.9-6.6-2.1-9.8-3.1-3.7-1.2-9.5-2.5-12.9-4.7v-.1c0-.1-.1-.1-.1-.1-.2 0-.4 0-.6.1 0-.2.2-.4.4-.4.1.1.2.1.2.1z"/><path class="st4" d="M183.9 194.9l.1.1c0 .2 0 .3-.1.4l-.3-.3c.1-.1.2-.1.3-.2zM196.9 199.6c3.1 1 6.5 2.1 9.8 3.1.2.3.6.4.9.2.5.2 1 .3 1.5.4-.1.1-.1.3-.1.5-5.1-.9-9.9-2.8-14.8-4.2-.7-.2-1.5-.4-2.2-.6.1-.1.1-.2 0-.3-.1-.2-.3-.2-.4-.1-.1.1-.2.1-.3.2-2.6-.6-5.1-1.8-7.3-3.3.1-.1.1-.3.1-.4 3.3 2 9.1 3.3 12.8 4.5zM187.3 210.4c-.2.3-.5.5-.9.3-.2-.1-.4-.4-.4-.7.5.2.9.3 1.3.4zM187.5 209.8v.3c0 .1 0 .2-.1.3l-1.2-.4v-.3c.1-.1.1-.2.2-.4l.6.2c.1.1.3.2.5.3z"/><path class="st4" d="M191.2 198.7c.1.1.3.1.4.1-2.9 2.3-3.8 7.4-4.8 10.8l-.6-.2c1.6-3.4 1.7-8.4 5-10.7z"/><path class="st4" d="M191.6 198.8l.4.1v.1c-2.5 3.1-4 6.9-4.5 10.8-.2-.1-.4-.1-.6-.2 1-3.4 1.9-8.4 4.7-10.8zM187.5 209.8c1.8.5 3.6 1 5.3 1.6 4.6 1.5 8.8 3.6 13.5 4.7l-.1.5c-1-.1-2-.3-3-.6.1-.1.1-.3 0-.4-.1-.2-.4-.3-.6-.2-.1.1-.3.2-.4.3-3.3-1.1-6.8-2.8-9.6-3.7-1.6-.6-3.5-1.1-5.3-1.6.1-.1.1-.2.1-.3 0-.1 0-.2.1-.3z"/><path class="st5" d="M192 198.9c.8.2 1.5.4 2.2.6 4.9 1.4 9.8 3.2 14.8 4.2-.2 1-.2 1.9-.1 2.9 0 .1.1.2.1.3-2.3 1.3-2.4 3.6-1.4 5.7-.4 1.1-.9 2.2-1.3 3.5-4.7-1.1-8.9-3.2-13.5-4.7-1.8-.6-3.6-1.1-5.3-1.6.4-3.9 2-7.7 4.5-10.9 0 .1 0 .1 0 0z"/><path class="st4" d="M191.2 198.7c.1-.1.2-.2.3-.2.1-.1.2-.1.3 0 .2.1.2.3.1.4l-.4-.1s-.1-.1-.3-.1zM194.4 223.8h.7l-.5.7h-.3c-.1-.3 0-.5.1-.7z"/><path class="st4" d="M195 223.8c.2.1.4.2.5.5-.3.2-.6.4-.9.5h-.1c-.2 0-.3-.1-.3-.3h.4l.4-.7zM197.6 219.9c1.3-1.3 2.6-2.5 4-3.7l.6.2c-2.4 2.5-5 4.6-7.1 7.3h-.7c.5-1.5 2.1-2.7 3.2-3.8zM203.3 155.1v.1c-2.6 2.8-3.7 7.6-4.9 11.1-2.4 6.5-3.6 13.4-3.8 20.4-.2.3-.2.7-.3 1.1v-.1c-.1-6.6.8-13.2 2.9-19.5 1.5-4.5 2.6-9.7 6.1-13.1zM195 187.8v-.2c1.2-3.2 4.6-5.9 6.7-8.4-.1.2-.1.4-.1.6-.9 1.2-1.9 2.3-3 3.3-.9.9-1.7 1.9-2.4 3-.4.8-.8 1.6-1.4 2.3-.1.1-.3 0-.3-.1v-.5.1c.1.1.2.1.3 0 .1 0 .2-.1.2-.1z"/><path class="st4" d="M194.7 186.7c.1-.2.2-.5.3-.7-.1.5-.1 1-.1 1.5-.1.1-.1.2-.1.3h-.1c-.1 0-.2 0-.2-.1 0-.3.1-.7.2-1zM194.9 187.8c0 .1-.1.1-.1.2.1-.1.1-.2.1-.3v.1z"/><path class="st4" d="M196.9 183.7c1.5-1.8 3.1-3.4 4.8-5 0 .1 0 .2-.1.4-2.1 2.6-5.5 5.3-6.7 8.4 0-.5.1-1 .1-1.5.6-.8 1.2-1.5 1.9-2.3z"/><path class="st4" d="M198.4 166.3c1.1-3.5 2.2-8.4 4.9-11.1v.4c-2.7 3.8-3.6 8.5-5 12.9-1.7 5.7-2.8 11.6-3.2 17.5-.1.2-.3.4-.3.7 0-7 1.3-13.9 3.6-20.4zM202.2 216.4l.6.1c-1.1 1.4-2.4 2.8-3.7 4-1.1 1.1-2.2 2.8-3.5 3.7-.1-.2-.2-.4-.5-.5 2-2.6 4.7-4.7 7.1-7.3zM204 128.7c-4.8 6.7-8.6 15.7-7.4 24.9v.6c0 .2.2.4.4.5l-.1.1c-.2 0-.3-.1-.4-.2-2-8.4 1.1-20 7.5-26v.1z"/><path class="st4" d="M204.2 129c-1.7 4-4.1 7.5-5.5 11.7-1.2 3.9-1.7 7.9-1.6 11.9-.2.3-.3.6-.4 1-1.2-9.1 2.6-18.2 7.4-24.9 0 .1 0 .2.1.3z"/><path class="st7" d="M198.4 168.5c1.4-4.4 2.3-9.1 5-12.9-.5 3.6-.4 7.2 1 10.1.1.2.3.2.4.3.4 0 .7-.2.7-.6 1.6-3.5 3.4-7.4 6-10.1 5.6-6 12.7 3.6 16.4 7.1l.1.1c.3.2.7.1.9-.2 1.9-2.9 3.6-5.9 5.6-8.6 2.8-3.7 6.3-7.3 11.3-5.8 1.1.3 2.3.6 3.4.9 12.1 7.8 19 27 13.7 40.8l-.2.1c-.1 0-.2.1-.3.2-.2.3-.2.7 0 .9-.3.7-.6 1.3-1 1.9-2-1-4-1.8-6.1-2.6-4.1-9.9-8.5-19.4-10.3-30 .6-3 .4-6.1-.3-9.1 0-.1-.2-.2-.3-.1-.1 0-.1.1-.1.2.7 9.7-2.8 19.3-9.6 26.3-.1-2.8-.4-5.7-.9-8.5 0-.4-.7-.3-.7.1v.4c-.1 0-.2.1-.3.2-.9 1.8-2 3.5-3.1 5.1-.7.9-1.4 1.9-2 2.9-2.6-5.2-5.5-10.4-8.2-15.5 0-.2-.1-.4-.3-.5l-.5-.9c-.1-.1-.2-.2-.3-.1s-.2.2-.1.3l.3.9v.1c-1.7 5-4.2 9.2-6.7 13.8-.6-2.6-1.7-5-2-7.6-.1-.5-.7-.5-.7 0 .1 1.7.5 3.5 1 5.1-1 1.5-1.8 3.1-2.4 4.8-.9 1.9-1.7 3.9-2.3 6-.9.9-1.6 1.8-2.2 2.9-1-3.6-1.7-7.7-.6-11.3 0 0-.1-.1-.1 0-.5 1-.8 2.1-1 3.1-1.7 1.6-3.3 3.2-4.8 5-.7.7-1.3 1.5-1.8 2.3.4-5.9 1.6-11.8 3.4-17.5z"/><path class="st4" d="M197.1 152.6v1.8c0 .1 0 .2-.1.2-.2-.1-.3-.3-.4-.5v-.6c.1-.3.3-.6.5-.9z"/><path class="st4" d="M205.5 147.1c0-.1-.1-.3-.2-.3s-.3.1-.3.2v.1c0 .1-.1.2-.1.3-.1.2-.1.5-.2.8-1.1.7-2.2 1.4-3.3 2.2-.8.6-1.6 1.3-2.3 2-.6.6-1 1.5-1.6 2.1-.1.1-.3.2-.5.1.1-.1.1-.2.1-.2v-1.9c.7-1.1 1.6-2 2.7-2.7 1.7-1.3 3.6-2.3 5.5-3.2.6-.3 1.1.6.5.9l-.3.1v-.5z"/><path class="st6" d="M204.2 129c2.3 3.4 7.7 7.5 11.9 5.1 5.5-3.1 9-9.2 11.6-14.8 3.3 5.2 8.2 11 15 10.3 4.8-.5 10.3-3.4 10.6-8.8 6.7 4.5 10.9 12.4 13.1 20-2.3-2.4-5.4-3.8-8.6-4.1-.3 0-.5.2-.6.4-.6 4.2 1 8.1 2.3 12 1.5 4.4 1.8 9.1 3 13.6-2.8-5.7-7.2-10.6-12.5-14.1v-.1c.1-.2 0-.5-.3-.6-6.5-2.4-10.1-2-14.7 3.3-2.3 2.7-4 5.8-5.9 8.7-1 1.5-7.2-5.2-8.3-6.1-7.9-6.3-13 3-15.7 9.9-1.5-5.4.8-10.6.6-16.1l.2-.1c.6-.4.1-1.2-.5-.9-2 .8-3.8 1.9-5.5 3.2-1.1.7-2 1.7-2.7 2.7-.1-4 .4-8 1.6-11.9 1.3-4.1 3.7-7.6 5.4-11.6z"/><path class="st4" d="M202.2 178.7c.1-.1 0-.2-.1-.2h-.1l-.3.3c.2-1.1.5-2.2 1-3.1 0-.1.1-.1.1 0-1.1 3.6-.4 7.7.6 11.3-.3.4-.5.9-.7 1.4-.2 0-.4-.2-.5-.4-.8-2.7-1.1-5.5-.7-8.2.2-.3.3-.5.5-.8l.2-.3z"/><path class="st4" d="M202.1 178.6v.3c-.2.3-.3.5-.5.8 0-.2 0-.4.1-.6.1-.1.2-.3.4-.5zM202.7 215.9c-.2.2-.3.4-.5.5l-.6-.2c.2-.2.4-.4.6-.5.1.1.3.2.5.2zM202 178.4h.1v.1c-.1.2-.3.4-.4.5 0-.1 0-.2.1-.4l.2-.2z"/><path class="st4" d="M202.1 178.4c.1 0 .1.1.1.2l-.1.3v-.3c-.1 0-.1-.1 0-.2zM203.2 216.1c-.1.2-.2.4-.4.5l-.6-.1c.2-.2.3-.4.5-.5l.5.1zM202.2 215.7c.1-.1.2-.2.4-.3.1-.1.3-.1.4 0 .2.1.3.4.2.6l-.5-.1c-.2 0-.3-.1-.5-.2zM203.3 188.3c-.6 1.4-.3 3.1.8 4.1 1.8 1.8 5.2 3 7.7 3.7l-.3.6c-3.1-.9-6.3-2.1-8.3-4.6-.8-1.1-.9-2.5-.4-3.7.2 0 .4 0 .5-.1z"/><path class="st4" d="M206.1 216.7c-.1.1-.1.3-.2.4-1.1-.1-2.2-.2-3.2-.5.1-.2.3-.3.4-.5l3 .6zM203.5 187c.1.2.1.4.1.6-.1.2-.2.5-.3.7-.2.1-.4.1-.5.1.2-.5.4-1 .7-1.4z"/><path class="st4" d="M203.6 187.6c.6-1.1 1.3-2.2 2.1-3.2.1.1.2.1.2 0-1.9 2.6-4 5.8-.6 8.3 2.1 1.3 4.4 2.3 6.8 2.8l-.3.6c-2.5-.7-5.9-1.9-7.7-3.7-1.1-1.1-1.4-2.7-.8-4.1.3-.2.4-.4.3-.7zM203.2 155.5c.2-.3.5-.6.8-1 .1-.1 0-.1-.1-.1-.2.2-.4.3-.6.5.3-2.3.8-4.6 1.4-6.8.2-.1.3-.2.5-.2-.6 5-2.6 12-.6 16.8-.1.1-.1.2-.1.3-.1.5.8.9 1 .4v-.1c0 .2-.1.3-.3.4-.3.2-.7.1-.9-.2-1.3-2.7-1.4-6.4-1.1-10 .1.1.1.1 0 0z"/><path class="st4" d="M203.4 155c.2-.2.4-.4.6-.5.1 0 .1 0 .1.1-.3.3-.5.6-.8 1v-.4c.1-.1.1-.1.1-.2zM203.3 188.3c.1-.2.2-.5.3-.7.1.3 0 .6-.3.7zM205.7 184.1v.1c0 .1 0 .1.1.2-.9 1-1.6 2-2.1 3.2-.1-.2-.1-.4-.1-.6.5-1.1 1.2-2 2.1-2.9zM207.8 130.6c4.2 3.7 8.2 2.4 11.8-1.3 3-3.1 4.7-7.2 7.4-10.5.1-.1.2-.2.4-.1 0 .1.1.2.1.3.1.1.2.3.3.4-2.6 5.6-6.1 11.7-11.6 14.8-4.1 2.4-9.5-1.7-11.9-5.1.1-.1.1-.2.1-.3.1-.3-.1-.4-.3-.3l-.1.1-.1-.1c-.2-.3.2-.8.5-.5 1.2.7 2.3 1.6 3.4 2.6z"/><path class="st4" d="M203.9 128.5l.1-.1c.2-.1.4.2.3.3-.1.1-.1.2-.1.3-.1-.1-.1-.2-.2-.2l-.1-.3zM205.6 147.8c.2 5.5-2.1 10.7-.6 16.1-.1.3-.3.6-.4.9-2-4.8 0-11.8.6-16.8.1-.1.3-.2.4-.2z"/><path class="st4" d="M205.5 165.3V165.6c-.3.5-1.2.1-1-.4 0-.1.1-.2.1-.3.1-.3.2-.6.4-.9.1.2.1.5.3.8 0 .1.1.3.2.5zM205.4 231.8l.1.1c-.1.1-.2.1-.4.1l-.1-.1c-1.5-4.5-.6-9.9 1-14.7h.7c-.4 1.2-.8 2.4-1.1 3.6-.6 3.5-.7 7.1-.4 10.7V231.8c0-.1.1 0 .2 0zM205.3 147.3c-.1.2-.1.5-.1.7-.2.1-.3.2-.5.2.1-.3.2-.5.2-.8l.4-.1z"/><path class="st4" d="M205 147.5c0-.1.1-.2.1-.3 0-.1.1-.1.2-.2.1 0 .3 0 .3.2l-.2.1-.4.2z"/><path class="st8" d="M206 184.4c1.3-1.4 2-3.5 2.6-5.2s1.3-3.4 1.9-5.1l.9 2.4c0 .1.1.2.2.2l-.1.1c-.1.2 0 .5.2.6.2.1.5 0 .6-.1 3-4 6-8.7 7-13.7 2 5.4 4.2 11.1 7.9 15.4-.1.4.2.6.5.6.4.4.9-.1.8-.5 1.1-1.2 2.1-2.6 3-4 .7-1 1.3-2 1.7-3.1 0 2.1.4 4.3.6 6.4.1.2.2.3.3.3.3.1.6 0 .7-.3v-.1c4.5-3.2 8.1-9.2 9.8-15.4.5 9.3 5.4 18.9 9.7 26.9-5.5-1.9-11.3-3-17.1-3h-.2c-.1 0-.2.2-.1.3v.3c1.7 3.1 3.6 6.1 5.8 8.9-.6 0-1.1-.1-1.7-.1h-1.5c-.2-.3-.4-.6-.6-.8 0-.1-.1-.1-.1-.1 0-.2-.1-.3-.3-.3-.2-.2-.4-.3-.6-.5h-.1c-.2-.1-.4 0-.4.2-2.2-.3-4.5-.4-6.7-.3-1.4-.1-2.9.2-4.2.6.7-.7 1.5-1.5 2.3-2.1.2-.1 0-.4-.1-.4h.1c.1 0 .2-.2.1-.3-2.1-1.2-4.6-1.8-7-1.7-1.7-.1-4.4-.2-5.9.9-.2-.1-.4-.1-.5.1-1.2 1.2-2.3 2.5-3.2 4-2.4-.5-4.7-1.4-6.7-2.8-3.6-2.4-1.4-5.6.4-8.3zm10.8 2.5c.4.1.8-.3.7-.6.8-2 1.1-4.1.9-6.2-.1-1.1-1.1-3.9-2.7-3.1s-1.2 3.8-1 5.2c.2 1.2.6 4.5 2.1 4.7zm24.6-.6l.1.1c.4.2.9.1 1.1-.3v.4c.1.1.2.1.3.1 1.7-1.1 1.4-5.6 1.2-7.2-.1-1.5-1.5-4.5-3.5-2.7-1.8 1.7-1.1 5.4-.5 7.4.2.7.6 1.5 1.3 2.2z"/><path class="st4" d="M206.7 217.1c.1 0 .2-.1.3-.1.1-.2.1-.4-.1-.6.4-1 .7-2.1 1-3.1.1.2.2.3.3.5-.4 2-1.1 4-1.9 5.9-1.2 3.6-.7 7.5-.9 11.2-.2.1-.4.3-.4.6-.3-3.6-.2-7.2.4-10.7.5-1.3.8-2.5 1.3-3.7zM248.9 148c-.1 0-.2 0-.2.1-3.8-1.1-7.2-2.5-10.6.6-4 3.6-6.7 9-9.6 13.3-3.5-3.1-8.1-9-12.9-9.9-3.7-.6-8.6 8.5-10.3 12.5-.1-.3-.2-.5-.3-.8 2.7-6.9 7.7-16.2 15.7-9.9 1.1.9 7.3 7.6 8.3 6.1 1.9-2.9 3.6-6.1 5.9-8.7 4.6-5.3 8.2-5.7 14.7-3.3h.1c.2.1.3.4.1.6-.1-.1-.3-.2-.5-.3 0-.1-.2-.2-.4-.3zM205.1 231.6v-.2.2z"/><path class="st4" d="M205.4 230.8v.9c0 .1 0 .1-.1.1l-.1-.1c-.1 0-.1-.1-.1-.2V231.2c.1 0 .2-.2.3-.4zM205.4 147.3l.2-.1v.6c-.1.1-.2.1-.4.2 0-.2.1-.5.2-.7zM215.6 152.2c4.9.9 9.5 6.7 13 9.9 2.9-4.3 5.7-9.7 9.7-13.3 3.4-3.1 6.8-1.7 10.6-.6-.1.1-.1.1 0 .2.2.1.4.3.6.4-1.1-.2-2.3-.6-3.4-.9-5-1.4-8.5 2.1-11.3 5.8-2.1 2.7-3.7 5.8-5.6 8.6l-.1.1c-.3.2-.7.2-.9 0-3.8-3.6-10.9-13.1-16.5-7.1-2.6 2.8-4.4 6.7-6 10.1v-.2c-.1-.2-.1-.4-.2-.6 1.5-3.9 6.3-13.1 10.1-12.4zM217.7 236.8c0 .1.1.2.1.3-2.1.3-4.5-.8-6.4-1.6-2.2-.8-4.2-2-6-3.5l.1-.1v-.9c.2-.1.4-.1.5.1 3.5 2.6 7.2 3.8 11.3 5 .1.2.1.4.2.6l.2.1z"/><path class="st6" d="M206.4 219.6c.8-1.9 1.4-3.9 1.9-6 1.7 2.4 4.9 4.2 8 3.1h.2c-2.5 5.7-.9 13.4.8 19.2-4.1-1.2-7.8-2.3-11.3-5-.1-.1-.3-.1-.5-.1.2-3.7-.3-7.6.9-11.2z"/><path class="st4" d="M205.7 184.1l.5-.5c-.1.2-.2.4-.3.5v.1l-.2.2c-.1 0-.1-.1-.1-.2s.1-.1.1-.1zM206.3 183.5l.2-.2c.1-.1.3 0 .2.1-.2.3-.5.7-.7 1-.1.1-.2.1-.2 0l.2-.2v-.1c0-.1.1-.3.3-.6z"/><path class="st4" d="M206.7 183.5c.1-.1-.1-.3-.2-.1l-.2.2c1.6-3.2 2.6-6.7 4.2-9.9.1.1.1.2.1.4-.6 1.8-1.3 3.3-1.9 5.1-.5 1.9-1.4 3.7-2.6 5.2.1-.3.4-.6.6-.9zM206.3 216.2c.2.1.4.1.6.1h.1c-.1.2-.2.5-.3.8h-.7c.1-.1.1-.3.2-.4 0-.2 0-.4.1-.5z"/><path class="st4" d="M208 178.2c.6-1.7 1.4-3.3 2.4-4.8 0 .1.1.2.1.3-1.6 3.2-2.6 6.7-4.2 9.9-.2.1-.4.3-.5.5.5-2 1.3-4 2.2-5.9zM207.7 212.7c.1.2.2.3.3.5-.3 1.1-.6 2.1-1 3.1h-.1l-.6-.1c.4-1.2.8-2.4 1.4-3.5zM207.9 202.5v.1c0 .2-.2.3-.3.4-.3-.1-.6-.1-.9-.2 0-.1-.1-.2-.1-.3 0-.1.1-.2.1-.3.2.1.4.1.6.2.2-.1.4 0 .6.1zM211.1 197.2l-.3.6c-1.7 1-3 2.5-3.6 4.4-.2-.1-.4-.1-.6-.2.8-2.2 2.4-3.9 4.5-4.8z"/><path class="st4" d="M206.7 202.7c.3.1.6.2.9.2-.3.2-.7.1-.9-.2zM207.1 216.7c0 .2-.2.4-.4.4.1-.3.2-.5.3-.8.1.2.2.3.1.4zM210.9 197.9c-.1.2-.2.4-.3.7-1.3 1-2.2 2.4-2.6 3.9-.2-.1-.4-.2-.6-.2.5-1.9 1.8-3.5 3.5-4.4z"/><path class="st4" d="M207.9 202.6v-.1l1.2.4c0 .2-.1.3-.1.5-.5-.1-1-.2-1.5-.4.2-.1.4-.2.4-.4zM209.9 206.9v-.3c.2-.1.4-.1.6-.2 2.7-.6 5.5 0 7.6 1.8 0 .2-.1.4-.1.6-1.5-1.4-3.5-2.1-5.6-2.1-4.6.1-5.7 2.9-4.6 5.4l-.2.5c-1.1-2.1-1-4.5 1.4-5.7.2.4.8.4.9 0z"/><path class="st4" d="M208.1 212.6c-.1.2-.1.4-.1.6-.1-.2-.2-.3-.3-.5l.2-.5c0 .1.1.3.2.4z"/><path class="st4" d="M218 208.9c0 .1-.1.2-.1.3-.1.5.5.7.9.6.9 1 1.2 2.4.9 3.7l-.1.1-.9.8c.7-1 .8-2.4.2-3.5-1.5-3.2-5.9-4.2-8.9-3.2-2.6.9-2.3 3.6-1 5.4.9 1.3 2.2 2.2 3.7 2.6h-.6c-.1.1-.2.2-.1.4-1.6-.6-2.9-1.7-3.8-3.1 0-.4 0-.9-.1-1.3 0 0-.1-.1-.2 0s-.1.3-.2.5c-1.1-2.6 0-5.3 4.6-5.4 2.2 0 4.2.7 5.7 2.1z"/><path class="st4" d="M207.8 212.1c.1-.2.2-.4.2-.5s.2-.1.2 0c.1.4.1.9.1 1.3-.1-.1-.2-.3-.2-.4-.1 0-.2-.2-.3-.4z"/><path class="st4" d="M208.1 212.6c.1.1.1.3.2.4v.7c-.1-.1-.2-.3-.3-.5 0-.2 0-.4.1-.6z"/><path class="st9" d="M210.6 198.5c-.6 1.4-1.1 2.8-1.4 4.3l-1.2-.4c.4-1.5 1.3-2.9 2.6-3.9z"/><path class="st4" d="M212.1 216.1c1.3.7 2.8.9 4.2.6-3 1.1-6.3-.7-8-3.1v-.7c.9 1.6 2.2 2.7 3.8 3.2z"/><path class="st10" d="M218.9 210.9c.6 1.1.5 2.4-.2 3.5l-1.2 1h-.1c-.5.2-1 .4-1.5.4-1 .1-2.1-.1-3.1 0-1.5-.4-2.8-1.3-3.7-2.6-1.3-1.9-1.6-4.5 1-5.4 3-1.1 7.4-.1 8.8 3.1z"/><path class="st4" d="M209.8 203.4c.5-1.9 1.1-3.7 1.9-5.5.1-.1.2-.1.3-.1.1 0 .2-.1.3-.3v-.1c0-.1 0-.1-.1-.2 0-.1-.1-.1-.1-.1.1-.1.1-.2.1-.3.1 0 .3 0 .4-.1.3-.2.4-.6.2-.9v-.1c.7-1.3 1.6-2.5 2.6-3.6 0 .1.1.1.1.1h.6c-3.7 3.7-5.4 9.2-6.2 14.3-.3.1-.6.2-.9.4-.1-.1-.1-.2-.1-.3-.1-1 0-1.9.1-2.9h.2c.2.1.4 0 .5-.2.1 0 .1 0 .1-.1z"/><path class="st4" d="M209.1 202.8l.3.1h.1c.2.1.3.4.2.6-.1.2-.3.3-.5.2h-.2c0-.2 0-.3.1-.5v-.4z"/><path class="st4" d="M210.6 198.5c.3-.2.7-.4 1.1-.6-.8 1.8-1.4 3.6-1.9 5.5 0-.2-.1-.4-.3-.4l-.3-.1c.3-1.5.7-3 1.4-4.4zM209.8 206.6v.3c-.1.5-.6.4-.9.1.3-.2.6-.3.9-.4zM210.6 172.9c-.1.1-.2.3-.2.4-.5-1.7-.9-3.4-1-5.1 0-.5.7-.5.7 0 .4 2.6 1.5 5 2 7.6-.1.2-.2.3-.3.5-.3-.9-.7-2-1-3l.1-.2c0-.2-.1-.2-.2-.2h-.1z"/><path class="st6" d="M216.1 192.3c1.9.1 3.9-.6 5.8-.6 2.3.2 4.5.4 6.7.8-2.7.9-4.5 3.9-6 6.3-2 3.1-3.8 5.9-4.4 9.5-2.1-1.8-5-2.5-7.6-1.8-.2.1-.4.1-.6.2.7-5.2 2.3-10.7 6.1-14.4z"/><path class="st4" d="M210.6 172.9h.1v.1l-.3.6c0-.1-.1-.2-.1-.3.1-.1.2-.3.3-.4zM210.8 173.3c-.1.3-.2.5-.2.8 0-.1-.1-.3-.1-.4s.2-.4.3-.6v.2z"/><path class="st4" d="M211.8 176.3l-.1.3c-.1 0-.2-.1-.2-.2l-.9-2.4c.1-.3.2-.5.2-.8.3 1.1.7 2.1 1 3.1z"/><path class="st4" d="M210.9 173.1l-.1.2c0-.1 0-.2-.1-.2v-.1c.1-.1.2 0 .2.1zM211.9 197.4c-.1.1-.1.3-.2.5-.4.1-.8.3-1.1.6.1-.2.2-.4.3-.7.3-.1.7-.3 1-.4zM211.7 197.1h.3l-.2.3c-.4.1-.7.2-1 .4l.3-.6c.3-.1.5-.1.6-.1z"/><path class="st4" d="M211.5 196.7c.2.1.4.1.6.2h.1c0 .1-.1.2-.1.3-.1-.1-.2-.1-.3-.1-.2 0-.4.1-.6.2 0-.3.2-.4.3-.6zM219.5 163.7c-1.1 4.9-4.1 9.7-7.1 13.7-.1.2-.4.2-.6.1-.2-.1-.3-.4-.2-.6l.1-.1h.2c.2 0 .3-.2.3-.4 0-.1-.1-.3-.1-.4 2.4-4.6 5-8.8 6.7-13.8v-.2c.1.2.2.5.3.8.1.3.2.6.4.9zM212.2 195.4l.2.1c.1 0 .3.1.3.2l-.5 1.1h-.1c-.2-.1-.4-.1-.6-.2l.3-.6c.1-.2.3-.3.4-.6z"/><path class="st4" d="M211.8 176.3c.1-.2.2-.3.3-.5.1.1.1.3.1.4 0 .2-.1.4-.3.4h-.2l.1-.3zM212.1 197.1c.1 0 .1.1.1.1 0 .1.1.1.1.2v.1c0 .1-.1.2-.3.3-.1 0-.2.1-.3.1.1-.2.1-.3.2-.5l.2-.3zM216.4 216.3c.1 0 .2.1.1.2v.1s-.1 0-.1.1l-.2.1c-1.4.2-2.8 0-4.1-.6-.1 0-.1-.1-.1-.1-.1-.1 0-.3.1-.4h.6c.9.3 1.8.5 2.8.6.3.1.6.1.9 0zM215.3 191.5c.1-.2.4-.2.5-.1-.2.1-.4.3-.5.5-.1.1-.1.2 0 .3-1 1.1-1.9 2.3-2.6 3.6-.1-.1-.2-.2-.3-.2l-.2-.1c.8-1.5 1.9-2.8 3.1-4zM212.8 195.8c.1.1.1.2.1.4 0 .4-.3.7-.7.7l.6-1.1z"/><path class="st4" d="M217.4 215.5l-.4.4c-.2.1-.3.3-.3.5-.4.1-.7.1-1.1.1-.9-.1-1.9-.3-2.8-.6 1-.1 2.1.1 3.1 0 .5-.1 1.1-.2 1.5-.4zM218.6 180.1c.2 2.1-.1 4.3-.9 6.2 0 0 0-.1-.1-.1 0-.1-.1-.1-.1-.1.5-2.4 1.5-8.2-1-8.6-2.3-.2-1.1 8.1.6 9v.2s0 .1.1.1c.1.1.2.1.2 0 .1-.1.1-.3.2-.4.1.4-.3.7-.7.6-1.6-.2-2-3.5-2.1-4.7-.2-1.4-.7-4.4 1-5.2s2.6 1.8 2.8 3z"/><path class="st4" d="M217 186.4c-1.6-.8-2.9-9.2-.6-9 2.5.4 1.5 6.2 1 8.6-.1-.1-.2-.3-.3-.4 0 .3 0 .6-.1.8zm.5-3.7c0-.5 0-5.8-1.3-4.7-.9.8-.4 3.5-.2 4.5.2 1.1.6 2.2 1.2 3.1 0-1 .2-1.9.3-2.9zM215.6 192c-.1 0-.1.1-.1.1-.1-.1-.1-.2 0-.3.1-.2.3-.3.5-.5.2.1.3.2.3.4-.3.1-.5.2-.7.3z"/><path class="st4" d="M215.6 192c.2-.1.4-.2.6-.2.1.2 0 .3-.1.4h-.6l-.1-.1s.1-.1.2-.1zM216.6 216.2c0 .1-.1.2-.1.3v0c0-.1-.1-.1-.2-.1h-.9c.5-.1.9-.1 1.2-.2zM217.5 182.7c-.1 1-.3 1.9-.3 2.9-.6-1-1-2-1.2-3.1-.2-.9-.8-3.7.2-4.5 1.3-1.1 1.3 4.2 1.3 4.7z"/><path class="st4" d="M216 191.4c1.5-1.1 4.3-.9 5.9-.9 2.4-.1 4.9.5 7 1.7.1.1 0 .3 0 .3h-.3c-2.2-.4-4.5-.7-6.7-.8-1.9 0-3.9.7-5.8.6.1-.1.2-.3.1-.4.1-.3 0-.5-.2-.5zM216.8 221.7c-.2-.1-.4-.2-.5-.3-.2-.2-.1-.5.2-.4l.4.1v.3c-.1.1-.1.2-.1.3z"/><path class="st4" d="M216.8 221.8c-.1 1.3-.1 2.7 0 4 .2 1.7.4 3.5.9 5.2-.2.2-.4.5-.6.8-1-4.6-1.6-9.6-.4-14 .1.4.2.8.4 1.2-.1.7-.2 1.5-.2 2.2l-.4-.1c-.3-.1-.4.3-.2.4.2.1.3.2.5.3zM216.5 216.8c.1 0 .1-.1 0 0 0-.1 0 0 0 0h-.2.2z"/><path class="st4" d="M216.6 216.7c0 .3 0 .7.1 1-1.1 4.5-.6 9.4.4 14-.2.3-.2.7-.2 1 .1.2.3.4.5.4.2 1 .5 2 .8 3h-.1l-.8-.2c-1.7-5.8-3.3-13.5-.7-19.2zM216.6 216.6v.1h-.1s0-.1.1-.1z"/><path class="st4" d="M217 216.6c-.1.4-.2.8-.3 1.1-.1-.3-.1-.7-.1-1 .2 0 .3 0 .4-.1z"/><path class="st4" d="M216.6 216.7v-.2l.1-.3c.2 0 .4-.1.6-.2.1 0 .1.1.1.2s-.1.2-.1.3l-.4.1c0 .1-.2.1-.3.1zM216.7 216.1l-.1.3s0-.1.1-.3z"/><path class="st4" d="M217.4 216.5l-.3 2.4c-.2-.4-.3-.8-.4-1.2.1-.4.2-.7.3-1.1l.4-.1zM217 215.7c.1-.1.3-.4.4-.4h.1c.5-.2.9-.6 1.2-1l.9-.8.1-.1c-.1.3-.2.7-.4 1-.4.8-1.2 1.3-2 1.6l-.1-.1c-.1-.1-.3-.1-.4.1l-.1.1h-.1c.1-.1.2-.3.4-.4z"/><path class="st5" d="M219.8 223.2c-.7 1 .3 4.2.7 5.4-.8.4-1.6 1-2.3 1.6l-.6.6c-.4-1.7-.7-3.4-.9-5.2-.1-1.3-.1-2.7 0-4 1 .7 2.1 1.2 3.1 1.6z"/><path class="st4" d="M216.9 216c.1-.1.3-.1.4.1-.2.1-.4.1-.6.2l.2-.3c0 .1 0 0 0 0zM225.1 224.2c7.5 2.7 15 5.4 22.6 8-.1.2-.2.4-.4.5l-2-.7c-5.3-1.8-10.6-3.7-15.9-5.6-.2-.1-.4-.1-.5-.2-.2-.2-.4-.3-.6-.5-.2-.2-.5-.1-.6.1-2.4-.8-4.8-1.4-7.2-2.3v-.5c0-.1-.1-.1-.1-.1-.2 0-.5.1-.6.3-1.1-.4-2.1-.9-3-1.5v-.3c2.5 1.4 5.7 1.7 8.3 2.8z"/><path class="st4" d="M243.5 230l4.7 1.7c-.1.1-.3.3-.4.5-7.6-2.5-15.1-5.3-22.6-8-2.7-1-6-1.3-8.4-2.7v-.3c8.8 3.1 17.9 5.7 26.7 8.8zM217.5 233.1c-.2 0-.4-.2-.5-.4-.1-.3 0-.7.2-1 0 .5.1 1 .3 1.4z"/><path class="st11" d="M217.1 218.9c.9 1.8 3.2 2.4 5.6 2.8 7.3 1.3 14.5 4.7 21.6 6.9 12.5 4 25.5 9.3 38.7 10.4-3.5.2-7.1.7-10.5 1.1-7.9-2.5-15.8-5.4-23.6-8.1 0-.1.1-.2.1-.3.1-.1.1-.3 0-.4-.1-.1-.3-.1-.4 0-.1.1-.2.2-.3.4l-4.8-1.7c-8.8-3.1-17.9-5.7-26.6-8.9 0-.7.1-1.5.2-2.2z"/><path class="st4" d="M217.3 186.6c.1-.2.1-.4.1-.6l.1.1.1.1c0 .2-.1.3-.2.4h-.1c-.1 0-.2-.1-.2-.1v-.1l.2.2z"/><path class="st4" d="M217.1 185.6l.2.4c0 .2-.1.4-.1.6l-.2-.1c.1-.3.1-.6.1-.9zM218.2 232.8l-.6.3h-.2l-.3-1.5c.1-.3.3-.6.6-.8.1.3.1.6.2.9s.2.8.3 1.1z"/><path class="st12" d="M217.5 216.5c-.9 4.6 5.8 4.1 9 5.3 4.7 1.6 9 3.5 13.7 4.9 17.2 5 33.8 12.6 52.1 12v.2c-3.1-.2-6.1-.1-9.2.1-13.3-1.1-26.2-6.4-38.7-10.3-7.1-2.2-14.3-5.6-21.6-6.9-2.4-.4-4.6-1-5.6-2.8l.3-2.4c-.1-.1 0-.1 0-.1z"/><path class="st4" d="M218.1 236.2c-.1.1-.2.2-.2.4h-.4c-.1-.2-.1-.4-.2-.6l.8.2z"/><path class="st12" d="M217.5 216.4c.3-.1.6-.2.8-.4.1 0 .2-.1.2-.1.2-.1.5-.3.7-.5.5-.4.8-.9 1-1.5 9.3 2.1 18.5 6 28 8.3 5.1 1.2 10.6 2.1 15.7 3.9 4.4 1.4 8.6 3.9 13.2 5.5 2.5.9 10.3 2.1 13.9 4.4.6.6 1.1 1.2 1.7 1.7.1.2.1.3.1.5h-.8c-1.2-3.6-9.7-4.8-12.5-5.5-5.6-1.3-10.5-4.4-15.8-6.2-6.6-2.2-13.5-3.1-20.1-4.9-7.2-2-14.2-4.8-21.5-6.6-2.1-.5-1.7.8-3.1 1.5-3.5 1.8 6.4 4.2 6.5 4.2 7.1 1.5 14.3 5 21.3 7.2 15.1 4.8 29.4 9.4 45.3 10.3 0 .1.1.3.1.4-18.3.6-34.9-7-52.1-12-4.7-1.4-9-3.2-13.7-4.9-3.2-1.1-9.8-.6-8.9-5.3z"/><path class="st4" d="M217.3 216.1c.8-.2 1.6-.8 2-1.6.2-.3.3-.7.4-1 .2-.2.5-.3.7-.2 0 .2-.1.5-.2.7-.2.6-.6 1.1-1 1.5-.2.2-.4.3-.7.5-.1 0-.2.1-.2.1-.3.2-.5.3-.8.4 0 0-.1.1-.1 0s.1-.2.1-.3c-.1-.1-.1-.1-.2-.1zM218.2 258.4c.2-.2.3-.6.1-.8.1-1 .2-1.8.3-2.4.1-.7.2-1.5.3-2.2-.3 2.5-.4 5.1-.3 7.6-.2 0-.3.1-.4.3-.1.3-.1.6.2.7l.3.1c.3 2.1 1.1 3.6 2.6 3.9 0 .1.2.2.3.2 0 .2 0 .3-.2.4-3.1.8-4-2.8-3.9-7.7h.3c.1 0 .2 0 .4-.1zM218.2 232.7c.3 1.1.6 2.2.8 3.2-.3-.1-.6 0-.8.1-.3-1-.5-2-.8-3h.2c.2 0 .4-.1.6-.3z"/><path class="st4" d="M217.5 257.4h.3c.2 0 .3.1.4.2-.1.3-.1.6-.1.9-.1.1-.2.1-.3.1h-.3v-.6-.6zM217.5 216.5c.3-.1.6-.2.8-.4-.3.1-.5.3-.8.4zM217.9 236.6c-.1.1-.1.3 0 .5h-.2c-.1-.1-.1-.2-.1-.3l-.1-.2h.4z"/><path class="st4" d="M220.6 239.1c.1.1.2.1.2.1-.4 3.1-.9 6.1-1.4 9.1-.3 1.5-.5 3.1-.7 4.6-.1.7-.2 1.5-.3 2.2-.1.6-.2 1.4-.3 2.4-.1-.1-.3-.2-.4-.2h-.3c.5-7 2.7-15.8 3.2-18.2z"/><path class="st10" d="M217.5 215.4c.4-.4.8-.7 1.2-1-.3.4-.7.7-1.2 1z"/><path class="st4" d="M218.1 237.2c-.1 0-.3-.1-.4-.2h.2c0 .1.1.2.2.2zM218.3 230.3c.7-.7 1.4-1.2 2.3-1.6.1.1.1.3.1.4 0 .1 0 .1.1.2-1 .7-2 1.6-2.8 2.5-.1-.3-.2-.6-.2-.9.1-.2.3-.4.5-.6z"/><path class="st4" d="M218.2 236.3c0 .1.1.1 0 0 .2.1.2.2.2.3 0 .2-.1.4-.3.5h-.2c-.1-.1-.1-.3 0-.5 0-.1.1-.2.3-.3z"/><path class="st4" d="M218 237.2c-.1-.1-.2-.1-.2-.2h.2c.2-.1.3-.3.3-.5 0-.1-.1-.2-.1-.2v-.1c.2-.2.5-.3.8-.2.1.1.1.2.1.3.1.2 0 .4-.1.6-.3.3-.7.5-1 .3zM218 208.9c.3.3.6.6.8.9-.4.1-1-.1-.9-.6 0-.2.1-.2.1-.3z"/><path class="st4" d="M219.3 209.5c-.1.2-.3.3-.5.3-.3-.3-.5-.6-.8-.9 0-.2.1-.4.1-.6.2.2.4.3.6.5.2.2.4.4.6.7zM220.8 229.3c.2.2.4.3.7.2-.6.6-1.2 1.1-1.8 1.6-.5.5-1 1.2-1.5 1.7-.1-.4-.1-.7-.2-1 .8-.9 1.7-1.7 2.8-2.5zM218.9 236.9c.6.5 1.3 1 2 1.5-.1 0-.2.1-.2.1 0 .1-.1.3-.1.5-.9-.5-1.7-1.1-2.5-1.8.3.1.7 0 .8-.3zM218.1 208.2c.7-3.6 2.4-6.5 4.4-9.5 1.5-2.3 3.2-5.4 6-6.3h.1c.1 0 .3.3.1.4-.8.6-1.6 1.3-2.3 2.1-.4.2-.8.5-1.1.9v.2h.1c-1.8 2.2-3.3 4.6-4.4 7.2-.1.1-.2.3-.2.5-.7 1.7-1.3 3.6-1.6 5.4v.1c-.2-.3-.4-.5-.6-.7-.1 0-.3-.1-.5-.3zM218.2 236.2s.1.2 0 .1v-.1c-.1 0 0-.1 0 0zM218.7 261.7l-.3-.1c-.1-.1-.2-.2-.3-.4-.1-.3.1-.6.4-.6.1.4.1.7.2 1.1zM218.3 257.7c.2.3.1.6-.2.8 0-.3.1-.6.2-.8zM218.8 161.9l-.3-.9c-.1-.3.3-.5.5-.2l.5.9h-.3c-.3 0-.4.1-.4.2zM218.5 216c.2-.1.5-.3.7-.5-.3.2-.5.4-.7.5z"/><path class="st13" d="M219.5 248.3c.6-3.8 1.3-7.2 1.6-8.9 4.2 2.5 9 4 13.9 4.4-2.4 3.1-3.5 6.8-5.4 10.2-1.7 2.7-3.6 5.2-5.7 7.5-1.7.1-3.3-.2-4.8-1-.1-.1-.3-.1-.4 0-.1-2.5 0-5.1.3-7.6 0-1.5.2-3.1.5-4.6z"/><path class="st4" d="M222.9 262.6c-1.5 0-2.9-.3-4.3-.9-.1-.4-.1-.7-.1-1.1.1-.1.3-.1.4 0 1.5.7 3.2 1 4.8 1-.1.2-.3.3-.4.5s-.2.3-.4.5z"/><path class="st11" d="M219.6 231.1c.6-.5 1.2-1 1.8-1.6.2-.1.4-.3.4-.5-.2-1.9-1.2-3.5-1.3-5.4 2.3.9 4.8 1.5 7.2 2.3-.2.2-.2.6 0 .8 2.2 2.4 3.5 5.2 2.2 8.4-.5 1.2-1.2 2.3-2.2 3.2-.6.5-1 .8-1.2 1.5 0 .2.1.5.3.5v.1c-2.7-1-5.3-2.4-7.5-4.2l-.2-.2c-.3-1.1-.5-2.1-.8-3.2.4-.6.9-1.1 1.3-1.7z"/><path class="st4" d="M218.8 161.9c0-.1.1-.2.3-.2.2.4.4.8.5 1.1 0 .3 0 .5-.1.8-.1-.3-.2-.6-.4-.9-.1-.3-.2-.6-.3-.8z"/><path class="st12" d="M222.2 215.1c7.3 1.9 14.3 4.6 21.5 6.6 6.7 1.8 13.6 2.7 20.2 4.9 5.4 1.8 10.3 4.9 15.8 6.2 2.7.6 11.3 1.9 12.5 5.5-15.9-.9-30.1-5.5-45.3-10.3-6.9-2.2-14.2-5.7-21.3-7.2-.1 0-10-2.4-6.5-4.2 1.3-.7 1-2 3.1-1.5z"/><path class="st4" d="M219.3 236.2c2.2 1.8 4.8 3.3 7.5 4.2 6.7 2.5 14.4 2.4 21.8 1.2.2.1.4 0 .6-.1 4.5-.8 8.9-2.1 13.1-3.7l.6.2c-10.9 5.1-30.5 7.8-41.8.6 0-.1-.1-.1-.2-.1-.7-.4-1.3-.9-1.9-1.5.1-.2.2-.4.1-.6-.1-.1-.1-.2-.1-.3.1-.1.2 0 .3.1zM219.4 161.7c.1.2.2.3.3.5v.1c0 .2-.1.4-.1.6-.2-.4-.3-.8-.5-1.1 0-.1.2-.1.3-.1zM220.3 211.7c.1.5.2 1.1.1 1.6-.3-.1-.6 0-.7.2.3-1.3 0-2.7-.9-3.7.2 0 .4-.1.5-.3.5.6.8 1.4 1 2.2z"/><path class="st11" d="M220.9 203.9c0 .1.1.3.2.3 9.6 4.6 20.1 7 30.2 9.8 6.4 1.8 12.3 4.4 18.5 6.4 2.7.9 5.5 2.5 8.5 2.3 3.2 2.8 6.2 5.8 9 9 .9 1 1.7 2.1 2.6 3.1-.8-.4-1.6-.7-2.5-.9-6.1-1.9-11.8-3.2-17.8-5.9-7.6-3.4-15.5-4.7-23.5-7-8.6-2.5-17.1-5.6-25.8-7.8 0-.5 0-1.1-.1-1.6-.2-.8-.5-1.6-1-2.2v-.1c.5-1.9 1-3.7 1.7-5.4z"/><path class="st4" d="M219.7 162.2c-.1-.1-.2-.3-.3-.5.2.1.3.3.3.5zM227.6 178.4l-.3.6c-3.7-4.3-5.9-10.1-7.9-15.4 0-.2.1-.5.1-.8 2.5 5.4 4.8 10.7 8.1 15.6z"/><path class="st4" d="M219.6 162.2c2.8 5.1 5.7 10.3 8.2 15.5-.1.2-.3.4-.3.6-3.2-4.9-5.6-10.2-8-15.5.1-.1.1-.3.1-.6zM220.1 223.4c-.4.9.6 3.6 1 5.1-.2 0-.4.1-.5.2-.4-1.3-1.4-4.4-.7-5.4 0 0 .1.1.2.1zM219.2 215.5c.4-.4.8-1 1-1.5-.2.5-.5 1.1-1 1.5z"/><path class="st4" d="M219.9 223.2c.1-.2.3-.3.6-.3.1 0 .1 0 .1.1v.5c-.1 0-.3-.1-.4-.2-.2.1-.3 0-.3-.1z"/><path class="st4" d="M220.5 223.6c.1 1.9 1.1 3.5 1.3 5.4 0 .2-.1.5-.4.5.1-.1.2-.2.2-.3.1-.1.1-.2.1-.4-.1-.3-.3-.5-.6-.4-.3-1.5-1.4-4.2-1-5.1.2.1.3.2.4.3z"/><path class="st12" d="M246.2 221.1c8 2.3 15.9 3.6 23.5 7 6 2.7 11.6 4 17.8 5.9.8.2 1.7.5 2.5.9.4.4.7.9 1.1 1.3-3.6-2.4-11.4-3.6-13.9-4.4-4.6-1.6-8.8-4.1-13.2-5.5-5.1-1.9-10.7-2.8-15.7-3.9-9.5-2.3-18.7-6.2-28-8.3.1-.2.2-.4.2-.7 8.6 2.1 17.1 5.2 25.7 7.7z"/><path class="st4" d="M221 239.3c-.3 1.8-1 5.2-1.6 9 .5-3.1 1-6.1 1.4-9.1.1.1.1.1.2.1z"/><path class="st4" d="M220.6 239.2c.1-.2.1-.3.1-.5 0-.1.1-.2.2-.1 0 .1.1.1.2.1-.1.2-.1.5-.1.7-.1 0-.1-.1-.2-.1l-.2-.1zM221.2 228.5c0 .2 0 .3.1.5-.2.1-.3.2-.5.3 0-.1-.1-.1-.1-.2-.1-.1-.1-.3-.1-.4.2-.1.4-.2.6-.2z"/><path class="st4" d="M221.2 228.5c.1 0 .2 0 .3.1.2.1.3.4.2.7-.1.1-.1.2-.2.3-.3.1-.5 0-.7-.2.2-.1.3-.2.5-.3-.1-.3-.1-.5-.1-.6zM221.1 238.6c-.1 0-.1-.1-.2-.1.1-.1.2 0 .2.1zM220.9 203.9c0-.2.1-.4.2-.5 0 .2-.1.3-.2.5z"/><path class="st12" d="M222.9 262.6c-.6.8-1.2 1.7-1.7 2.6-.1.1-.1.3 0 .4-1.4-.3-2.2-1.8-2.6-3.9 1.4.6 2.9.9 4.3.9z"/><path class="st4" d="M249 212.7c0 .1.1.2.1.2.1.1.4.1.5 0 2.2.6 4.3 1.2 6.5 1.8 4.7 1.4 9.3 3.5 14 5.2 2.2.7 6.3 2.6 8.1 2.6 0 .1 0 .2.1.2l.1.1c-2.9.2-5.7-1.4-8.5-2.3-6.2-2.1-12.2-4.7-18.5-6.4-10.1-2.8-20.7-5.2-30.2-9.8-.1-.1-.2-.2-.2-.3.1-.1.1-.3.2-.5.1-.1.2-.1.4-.1 6 1.6 11.9 3.6 17.8 5.6 0 0 0 .1.1.1.1.2.4.2.5.1 3 1 6 2 9 2.8v.7zM221.1 238.6c11.3 7.2 30.8 4.5 41.8-.6.2 0 .3.1.5.2l-.1.1c-.2.1-.5.2-.7.4v-.1c0-.1-.3-.1-.3 0v.3c-4.6 2.2-9.5 3.7-14.5 4.5 0 0 0-.1-.1-.1-.1-.2-.4-.3-.6-.2-.1.1-.2.2-.2.4-3.6.5-7.3.7-11 .3 0-.1.1-.2.1-.2.2-.3-.3-.5-.5-.4s-.3.4-.4.5c-4.9-.4-9.6-1.9-13.9-4.4-.1-.2 0-.5-.1-.7zM227.7 258.4c-.1.4.2.8.6.8-1.6 2.7-3.8 5-6.5 6.7h-.3c0-.1-.1-.2-.2-.2h-.1c-.1-.1-.1-.3 0-.4.5-.9 1.1-1.7 1.7-2.6.8.1 1.5-.3 1.9-1 0-.1 0-.2-.1-.2h-.9c2-2.4 4.2-4.7 5.7-7.5 1.9-3.4 2.9-7.1 5.4-10.2h.4c-2.9 3.8-3.8 8.9-6.4 12.9-.2.3-.4.5-.6.8-.4.2-.6.5-.6.9 0-.1 0 0 0 0z"/><path class="st9" d="M225.6 196.2c2.2.2 4.5-.5 6.7-.5 1.9.2 3.7.3 5.6.2 1.9 4.2 1.2 8.3 1.5 12.9v.1c-5.9-2-11.8-4-17.8-5.6-.1 0-.3 0-.4.1 1.1-2.6 2.6-5 4.4-7.2z"/><path class="st4" d="M221.6 265.9c-.1 0-.3-.1-.3-.2h.1c.1-.1.2 0 .2.2zM223.8 261.5h.9c.1 0 .1.1.1.2-.4.7-1.1 1.1-1.9 1 .1-.2.3-.4.4-.6.2-.2.4-.4.5-.6zM225.5 196.2c-.1-.1-.2-.1-.1-.2.3-.4.7-.7 1.1-.9-.2.3-.5.5-.7.9-.1 0-.2.1-.3.2z"/><path class="st4" d="M225.8 195.9c3-1.4 8.2-.7 11.8-.6.1.2.2.4.2.6-1.9.1-3.7 0-5.6-.2-2.2 0-4.5.7-6.7.5.1-.1.3-.2.3-.3z"/><path class="st4" d="M226.6 195c1.4-.5 2.8-.7 4.2-.6 2.2-.2 4.5-.1 6.7.3-.1.1-.1.3 0 .4.1.1.1.2.1.3-3.6-.1-8.8-.8-11.8.6.3-.4.5-.7.8-1zM227.8 238.2c1-.9 1.8-2 2.2-3.2 1.3-3.1.1-6-2.2-8.4-.2-.2-.2-.6 0-.8.4.1.9.3 1.3.4 2.3 2 3.4 5 2.8 8-.4 2-2.5 6.5-5 6-.2-.1-.4-.3-.3-.5.1-.7.5-1 1.2-1.5z"/><path class="st11" d="M231.8 234.3c.6-3-.4-6-2.8-8 .2 0 .4.1.5.2 5.3 1.9 10.5 3.8 15.9 5.6.6.2 1.3.5 2 .7-1.7 2.8-1.3 6.4 1 8.7l.1.1c-7.4 1.2-15.1 1.3-21.8-1.2v-.1c2.7.5 4.7-4.1 5.1-6z"/><path class="st4" d="M227.8 179.6c-.3 0-.6-.3-.5-.6.2.2.3.4.5.6z"/><path class="st4" d="M228.3 178.4l.3.6v.1c-.1.1-.2.3-.4.4-.1.1-.2.1-.4.1-.2-.2-.4-.4-.5-.6l.3-.6c.1.2.2.4.4.5 0-.2.1-.3.3-.5zM238.7 127.7c5.6 2 12.3-1.6 13.8-7.2.1-.2.2-.3.4-.2-.1 0-.2.2 0 .3.1.1.2.2.3.2-.2 5.3-5.7 8.3-10.5 8.7-6.9.7-11.8-5.1-15-10.3v-.2c0-.2-.1-.5-.4-.5 0-.2.1-.5.3-.6.3-.2.7-.1.9.2 2.6 4.3 5.5 7.9 10.2 9.6z"/><path class="st4" d="M227.5 118.6c.2.1.3.4.2.6-.1-.1-.2-.3-.3-.4 0-.1-.1-.2-.1-.3.1.1.1.1.2.1zM227.9 177.7c.1.2.2.5.4.7-.1.1-.2.3-.3.5-.1-.2-.2-.4-.4-.5.1-.3.2-.5.3-.7zM228.4 259c-.4-.1-.6-.4-.6-.8.2-.2.4-.5.6-.8h1c-.2.3-.3.6-.5.9-.2.3-.4.5-.5.7zM228.3 257.5c-.2.3-.4.5-.6.8 0-.3.2-.7.6-.8zM229 226.2c-.4-.1-.9-.3-1.3-.4.1-.2.4-.2.6-.1.3.2.5.3.7.5zM230 174.8c1.1-1.6 2.2-3.4 3.1-5.1 0-.1.1-.2.3-.2v1.1c-1.3 3.1-3.2 5.3-5 7.9-.1-.2-.2-.5-.4-.7.6-1.1 1.3-2.1 2-3zM228.2 179.5c.1-.1.3-.2.4-.4.1.4-.4.9-.8.5.2 0 .3 0 .4-.1z"/><path class="st4" d="M233.3 170.5c-.1.5-.1 1 0 1.5-.5 1.1-1.1 2.1-1.7 3.1-.9 1.4-1.9 2.8-3 4v-.1l-.3-.6c1.8-2.6 3.7-4.8 5-7.9zM235.3 243.9h.4c-2.6 4.2-4.1 9.2-6.4 13.6h-1c.2-.3.4-.5.6-.8 2.6-4 3.5-9.1 6.4-12.8zM228.8 258.3c7.6 0 16.1-1.9 23.4-.3.1.1.1.3.2.4-8-1-15.9.6-23.9.7h-.1c.1-.3.2-.5.4-.8z"/><path class="st4" d="M252 257.5c.1.2.1.3.2.5-7.3-1.6-15.8.3-23.4.3.1-.3.3-.6.5-.9 7.5-.1 15.3-1.7 22.7.1z"/><path class="st5" d="M246.7 243.4c0 .1 0 .1 0 0 1.5 4.6 3.2 9.4 5.3 14-7.4-1.7-15.2-.2-22.8 0 2.4-4.4 3.9-9.4 6.4-13.6 3.8.3 7.5.2 11.1-.4z"/><path class="st4" d="M233.3 169.5h.4c0 .5 0 .9.1 1.4-.1.4-.3.8-.5 1.1-.1-.5-.1-1 0-1.5v-1z"/><path class="st4" d="M233.3 169.4v-.4c0-.4.7-.5.7-.1.5 2.8.8 5.6.9 8.5l-.6.6c-.1-2.4-.5-4.8-.6-7.1.1-.2.2-.5.3-.7.1-.3-.1-.5-.3-.6-.1-.2-.2-.2-.4-.2z"/><path class="st4" d="M234.3 178l-.2.2c-.2.2.2.5.3.4s.3-.2.4-.3v.1c-.1.2-.2.3-.3.3-.3.1-.6 0-.7-.3-.2-2.1-.6-4.3-.6-6.4.2-.4.3-.8.5-1.1.2 2.3.6 4.7.6 7.1zM234 170.1c-.1.3-.2.5-.3.7 0-.5-.1-.9-.1-1.4.3.1.5.4.4.7z"/><path class="st4" d="M234.3 178v.4c.2-.1.4-.3.5-.5v.4c-.1.1-.3.2-.4.3-.2.1-.5-.2-.3-.4l.2-.2z"/><path class="st4" d="M234.4 178l.6-.6v.5c-.2.2-.4.3-.5.5l-.1-.4z"/><path class="st4" d="M244.7 159.3c-.1 1.2-.1 2.4 0 3.5-1.6 6.2-5.2 12.2-9.8 15.4v-.4c4.6-3.6 8.5-11.4 9.8-18.5z"/><path class="st4" d="M244.7 159.2v.1c-1.3 7.1-5.2 14.9-9.8 18.6v-.5c6.8-7 10.2-16.6 9.6-26.3 0-.2.4-.3.4-.1.8 3 .9 6 .3 9.1l-.1-.9c0-.2-.3-.2-.4 0zM234.9 243.7c.1-.2.2-.3.4-.5s.6.1.5.4c-.1.1-.1.1-.1.2h-.4c-.1 0-.3 0-.4-.1zM237.3 186.8c-.2 0-.4.1-.4.3v-.1c0-.1.1-.2.2-.2h.2z"/><path class="st4" d="M237.1 187.3l.4.1c4.5 6.8 10.3 12.7 14.2 19.9-.1.1-.1.2-.1.3.1.2.2.4.4.5-.1 0-.2-.1-.2-.1-.1-.1-.2-.3-.3-.4v-.1c-2.4-3.6-5.2-6.9-7.9-10.4.2 0 .3-.1.5-.2.3-.2.1-.7-.2-.7h-1.1c-2.2-2.8-4.1-5.7-5.8-8.9v-.3c-.1.2 0 .3.1.3z"/><path class="st4" d="M237 187.3c-.1 0-.1-.1-.1-.2.1-.2.2-.3.4-.3.1 0 .2 0 .3.1.1.1.1.2.2.2l.5.5c-.3-.1-.5-.2-.8-.3h-.5z"/><path class="st4" d="M255 190.7c-5.6-1.6-11.4-2.8-17.1-3.6-.1-.1-.1-.2-.2-.2-.1-.1-.2-.1-.3-.1 5.8 0 11.6 1.1 17.1 3l.5.9zM238.2 195.3h-.6c0-.1-.1-.2-.1-.3-.1-.1-.1-.3 0-.4.4.1.7.2 1.1.3l.3.3.1.1c0 .2-.1.4-.3.4h-.1c-.1-.1-.2-.3-.4-.4zM252.1 207.6c0-.1-.1-.2-.1-.2-.1-.1-.2-.1-.3 0-3.9-7.3-9.7-13.1-14.2-19.9.3.1.5.2.8.3 5.1 5.8 10.7 12.6 13.8 19.8z"/><path class="st4" d="M237.5 194.5c.1-.2.3-.2.5-.1s.4.3.6.5c-.4-.1-.7-.2-1.1-.4zM238.3 195.3c.1.1.2.3.3.4-.2 0-.4.1-.7.1-.1-.2-.1-.4-.2-.6l.6.1zM255 190.8c0 .1.1.1.1.2l.1.1c.2.1.4.1.5-.1 2 .6 3.9 1.3 5.8 2.2v.1c.1.2.4.3.6.2l.1.1v.4c-3.7-1.4-7.5-2.6-11.4-3.6-4.1-1-8.5-1.4-12.6-2.7-.1-.2-.3-.4-.5-.5 6 .8 11.7 2 17.3 3.6zM240.2 197.4c1 2.9 1.3 6.1.7 9.1-.2.1-.4.2-.6.4-.2.2-.2.4 0 .6.1.1.2.1.3.2-.1.4-.3.9-.6 1.3l-.1.1-.6-.2v-.1c-.2-4.6.4-8.7-1.5-12.9.2 0 .4-.1.7-.1l.3.6c-.1 0-.1 0-.2.1-.1 0-.1.1-.1.1-.1.2 0 .3.1.4l.6.3c.3.1.7.1 1 .1z"/><path class="st4" d="M238.6 195.7c.2-.1.3-.2.3-.4.3.2.5.5.6.8-.2 0-.5.1-.7.2 0-.2-.1-.4-.2-.6zM239.3 197.2l-.6-.3c-.1 0-.1-.1-.1-.1-.1-.2 0-.3.1-.4.1 0 .1-.1.2-.1.1.1.1.2.2.4 0 .2 0 .4.2.5zM238.9 195.2l-.3-.3c.2 0 .3.2.3.3z"/><path class="st4" d="M239.6 196.1l.3.6h-.9c0-.1-.1-.2-.2-.4.3-.1.5-.2.8-.2zM240 196.7c.1.2.2.4.3.7-.3 0-.7 0-1-.1-.1-.2-.1-.4-.2-.5l.9-.1zM239.8 209.1c-.2.1-.4-.1-.5-.2l.6.2h-.1z"/><path class="st4" d="M242.8 196.3l.4.5c-1.1 0-2.2 0-3.2-.1l-.3-.6h1.5c.4.1.9.2 1.6.2zM244.2 179.1c.2 1.7.5 6.1-1.2 7.2-.1.1-.2 0-.3 0V186l.1.2c1-1.5 1.9-10.9-1.5-9.6-2.6.8-.7 10.7 1 9l.3.4-.1.1c-.3.4-.8.4-1.1.2-.7-.6-1.2-1.5-1.3-2.4-.6-2-1.2-5.8.5-7.4 2-1.9 3.4 1.1 3.6 2.6z"/><path class="st11" d="M240.6 207.7c1.3.8 3.2.4 4.6.5 1.8.1 3.7.5 5.6.5.3 0 .6-.2.7-.5v-.1-.1c0-.1 0-.2-.1-.3.1.1.2.3.3.4 0 .1.1.1.2.1.8 1.3 1.8 2.5 2.8 3.6.8.9 1.6 1.8 2.5 2.7-1.8-.7-3.6-1.3-5.5-1.8-.6-.2-1.3-.4-1.9-.6.2-1.1.1-2.2-.1-3.2 0-.1-.1-.2-.2-.2-.1-.1-.3 0-.4.2-.3 1-.4 2-.2 2.9-3-.8-6-1.8-9-2.8l.1-.1c.3-.3.5-.7.6-1.2z"/><path class="st4" d="M243.2 196.8c.1.1.2.3.3.4-.7.2-1.3.2-2 .2h-1.3c-.1-.2-.2-.5-.3-.7 1.1.1 2.2.1 3.3.1zM242.4 185.6c-1.6 1.7-3.5-8.2-1-9 3.4-1.3 2.5 8.2 1.5 9.6l-.1-.2-.4-.4zm.3.3v-.3-.1c.4-2.4 1.4-8.8-1-8.4-2.1.3-1.2 8.1.7 8.2.1 0 .3.1.4.2 0 .1-.1.3-.1.4zM240.6 207.7c-.1 0-.2-.1-.3-.2-.2-.2-.2-.4 0-.6.2-.2.4-.3.6-.4l-.2.7c0 .2 0 .4-.1.5z"/><path d="M243.5 197.3c2.7 3.4 5.5 6.8 7.9 10.4-.1-.1-.2-.2-.4-.3-1.9-.5-3.8-.8-5.8-.9-1.3-.1-3.1-.6-4.3 0 .6-3 .4-6.2-.7-9.1h1.3c.7.1 1.3 0 2-.1z" fill="#2268b2"/><path class="st4" d="M240.9 206.5c1.2-.5 3-.1 4.3 0 1.9.1 3.9.4 5.8.9.2 0 .3.1.4.3l.1.1c.1.1.1.2.1.3v.2c-.1.3-.4.5-.7.5-1.9 0-3.7-.3-5.6-.5-1.4-.1-3.4.2-4.6-.5.1-.1.1-.3.1-.5l.1-.8zM242.8 185.4c-.1-.1-.2-.2-.4-.2-1.9-.1-2.7-7.9-.7-8.2 2.4-.4 1.4 6 1.1 8.4z"/><path class="st4" d="M242.8 185.4v.1c0 .1 0 .2-.1.3.1-.1.1-.2.1-.4zM243.1 196.9l-.4-.5h1.1c.3 0 .5.5.2.7-.2.1-.4.2-.6.2-.1-.2-.2-.3-.3-.4z"/><path class="st10" d="M250.9 190.4c3.8 1 7.6 2.1 11.3 3.5-.4 2.4-.3 5-.6 7.4v.1c0 .2.2.4.5.4 0 .1.1.3.3.3 1.7.4 3.1 1.8 3.5 3.5-.1 0-.2.1-.2.2-.2.3-.1.7.2.8 4.5 2.3 7.8 6.3 11 10 2.7 3.2 5.4 6.1 7.2 9.8-1.6-1.6-3.4-3.1-5.3-4.4-.1-.1-.2-.1-.3 0-6.9-1.6-13.5-4.7-20.2-7.2v-.2c-.7-1.3-1.7-2.6-2.8-3.6-1.1-1.2-2.1-2.3-3.2-3.5-3.2-7.2-8.7-13.9-13.9-19.9 4 1.4 8.3 1.7 12.5 2.8z"/><path class="st4" d="M244.7 162.8c-.1-1.2-.1-2.4 0-3.5v-.1c.1-.2.4-.2.4 0l.1.9c-.1.4-.1.9-.2 1.3s-.2 1-.3 1.4zM253.4 186.2c.6 1.2 1 2.5 1.6 3.8-.2-.1-.4-.2-.6-.2-4.4-8-9.2-17.5-9.7-26.9.1-.4.2-.9.3-1.4.6 8.5 4.9 17.2 8.4 24.7z"/><path class="st4" d="M255.5 190.1c-.2-.1-.3-.1-.5-.1-.6-1.2-1-2.5-1.6-3.8-3.5-7.5-7.7-16.2-8.4-24.8.1-.4.2-.9.2-1.3 1.8 10.6 6.3 20.1 10.3 30zM247.6 243.4c-.3.1-.6.1-1 .1 0-.2.1-.3.2-.4.2-.1.5-.1.6.2.1 0 .2 0 .2.1z"/><path class="st4" d="M256.6 265c0 .4.3.8.6 1-.3.1-.7.1-.9-.2-1.5-2.3-2.8-4.8-4-7.3h.5c.2 0 .4-.1.4-.3 0-.2-.1-.3-.2-.4-.4-.1-.7-.2-1.1-.3-2.1-4.6-3.8-9.5-5.3-13.9v-.1c.3-.1.6-.1 1-.1 3.1 5.5 5.8 11.2 8.1 17h-.2c-.2.1-.3.4-.1.5l.6.2c.5 1.2.9 2.3 1.3 3.4h-.4c-.1 0-.3.1-.3.2.1.1 0 .2 0 .3zM248.3 233c-1.2 2.6-1.5 5.1.8 7.6.2.2.2.6 0 .8l-.6.1-.1-.1c-2.3-2.3-2.7-5.9-1-8.7l.4.1.5.2z"/><path class="st4" d="M247.9 232.2c.1.1.3.1.4.1-.1.2-.3.4-.4.6l-.4-.1c.1-.2.2-.4.4-.6z"/><path class="st4" d="M248.3 231.7l.4.1c-.1.2-.3.3-.4.5-.1 0-.3-.1-.4-.1.1-.2.2-.3.4-.5zM248.3 232.3l.4.1-.3.6-.5-.1c.1-.2.2-.4.4-.6z"/><path class="st11" d="M260.7 237.1c.5.2 1.1.4 1.6.6-4.3 1.6-8.7 2.8-13.1 3.6.2-.2.2-.5 0-.8-2.3-2.5-2.1-5-.8-7.6 4.1 1.4 8.3 2.7 12.3 4.2z"/><path class="st4" d="M248.3 231.7c.1-.1.2-.3.3-.4.1-.1.3-.1.4 0 .1.1.2.3.1.4 0 .1-.1.2-.1.3-.1-.1-.2-.1-.3-.1l-.4-.2z"/><path class="st4" d="M248.6 231.8c.1 0 .2.1.3.1l-.3.5-.4-.1c.2-.1.3-.3.4-.5zM257 235.2c4.8 1.5 10.1 4.4 15.1 5.1-.1 0-.1.1-.1.2-2.1-.1-4.1-.6-6.1-1.3-.1-.2-.3-.4-.4-.5-.1-.1-.1-.1-.2-.1s-.3.2-.2.3c-.6-.2-1.1-.4-1.7-.6.2-.3 0-.8-.4-.6l-.6.2c-.5-.2-1.1-.4-1.6-.6-4-1.6-8.2-2.8-12.3-4.1l.3-.6c2.6.8 5.4 1.7 8.2 2.6zM248.6 241.6l.6-.1c-.2.1-.4.1-.6.1zM249.3 148.8c-.2-.1-.4-.3-.6-.4-.1-.1-.1-.1 0-.2.2 0 .5.1.7.2.2.1.3.2.5.3l-.1.1h-.5z"/><path class="st4" d="M248.7 148.1c.1-.1.2-.1.2 0 .2.1.3.2.5.3-.2-.1-.5-.1-.7-.2v-.1zM272.6 240.1h-.2c-.1 0-.2 0-.3.1-5-.7-10.4-3.6-15.1-5.1-2.8-.9-5.5-1.8-8.3-2.7l.3-.5c7.8 2.9 15.6 5.7 23.6 8.2zM249 211.9c-.2-1-.1-2 .2-2.9 0-.1.1-.2.2-.2.1-.1.3 0 .4.2.3 1 .3 2.1.1 3.2l-.4-.1-.5-.2z"/><path class="st4" d="M249.9 212.2c0 .2-.1.4-.1.5 0 .1 0 .1-.1.1l-.6-.2c-.1-.2-.1-.5-.1-.8l.5.2.4.2zM249.7 212.8s-.1.1-.2.1c-.2.1-.4 0-.4-.2l.6.1zM263.7 168.1c1.8 6 2.7 14.7.2 21.2l-.9.3c5.4-13.8-1.6-33-13.7-40.8.1 0 .3 0 .4-.1 7.1 4.2 11.8 11.7 14 19.4z"/><path class="st4" d="M249.9 212.2c.6.2 1.3.4 1.9.6 1.8.5 3.7 1.1 5.5 1.8.2.2.4.4.7.6.1.1.3 0 .3-.1v-.1c6.7 2.5 13.3 5.6 20.2 7.2-.2.1-.3.2-.3.4-1.8.1-5.9-1.9-8.1-2.6-4.7-1.7-9.4-3.8-14-5.2-2.1-.6-4.3-1.2-6.5-1.8.1 0 .1-.1.1-.1.1-.4.1-.5.2-.7zM262.4 162.7c.2.7.3 1.3.5 1.9.1.2.3.4.5.4 1.6 3.5 2.6 7.2 3 11-.1 0-.2.1-.4.1-.1.1-.2.2-.2.4s.2.4.4.4h.2c.4 4.1-.2 8.2-1.7 12.1-.3.1-.6.2-.8.4 2.5-6.5 1.5-15.2-.2-21.2-2.3-7.7-6.9-15.2-13.9-19.4l.1-.1c5.4 3.4 9.7 8.3 12.5 14zM251.7 207.3c.1-.1.2 0 .3.1l.2.2h.1v.1c.1.1.1.3 0 .4 0 .1-.2.2-.3.1-.1-.2-.2-.4-.4-.5v-.1c-.1-.1 0-.2.1-.3 0 .1 0 .1 0 0z"/><path class="st4" d="M258 214.8c-.3-.1-.5-.2-.8-.3-.9-.9-1.7-1.8-2.5-2.7-1-1.1-1.9-2.3-2.8-3.6.1 0 .2 0 .3-.1 1.8 2.4 4.1 4.5 5.8 6.7zM252 257.5c.4.1.7.1 1.1.3.1.1.2.2.2.4s-.2.3-.4.3h-.5c-.1-.1-.1-.3-.2-.4s-.1-.4-.2-.6z"/><path class="st4" d="M255.4 211.1c1.1 1 2.1 2.2 2.8 3.6v.2l-.3-.1c-1.8-2.2-4-4.3-5.8-6.7.1-.1.1-.3 0-.4v-.1c1.2 1.2 2.3 2.3 3.3 3.5zM253.1 120.6v.2c-.1-.1-.2-.1-.3-.2-.2-.1-.1-.3 0-.3.2 0 .3.1.3.3 0 0 .1 0 0 0z"/><path class="st4" d="M267.2 141.5c0 .1-.1.2-.1.3 0-.1-.1-.2-.1-.3l-.1-.1c-.4-6.7-7.8-17.5-13.6-20.9 0-.1-.1-.2-.3-.2.1-.1.1-.1.2 0 6.4 3.5 14.6 13.3 14 21.2z"/><path class="st4" d="M253.1 120.5c5.8 3.4 13.2 14.2 13.6 20.8-.1-.2-.3-.4-.5-.5-2.2-7.6-6.4-15.5-13.1-20 .1 0 .1-.1 0-.3.1.1.1.1 0 0zM255.5 190.1c.1.2.2.4.2.6.1.1.1.2 0 .3-.2-.1-.5-.2-.7-.2l-.6-1c.2 0 .4.1.6.2.1 0 .3 0 .5.1z"/><path class="st4" d="M255.7 191l-.1.1c-.2.1-.4.1-.5-.1-.1-.1-.1-.2-.1-.2.2 0 .5.1.7.2zM256 261.2l-.6-.2c-.2-.1-.1-.4.1-.5h.2c.1.1.1.2.1.3.1.1.2.2.2.4z"/><path class="st13" d="M262.1 238.8c-.7 4.4-.2 9 0 13.4.1 2.5 0 5-.3 7.5-2 .6-4.2 0-6.1.7-2.3-5.8-5-11.5-8.1-17 5.1-.9 9.9-2.4 14.5-4.6z"/><path class="st4" d="M261.6 192.7s-.1.1 0 .1c-.1.1-.1.2 0 .4-1.9-.8-3.8-1.6-5.8-2.2.1-.1.1-.2 0-.3-.1-.2-.2-.4-.2-.6 2 .8 4.1 1.6 6 2.6zM261.9 259.8c0 .1-.1.3-.1.4-1.7.7-4.2.5-5.9.5 0-.1-.1-.2-.1-.3 1.8-.7 4.1-.1 6.1-.6z"/><path class="st4" d="M261.7 260.2v.5c-1.8.8-3.8 1-5.7.5 0-.1-.1-.3-.2-.4 1.8 0 4.2.1 5.9-.6z"/><path class="st12" d="M261.8 260.7c-.1 1.4-.4 2.8-.6 4.2-.7 0-1.3.1-2 .1-.6-.1-1.2-.2-1.8-.4-.4-1.1-.9-2.3-1.3-3.4 1.8.5 3.9.3 5.7-.5z"/><path class="st4" d="M257.4 266c-.4-.2-.6-.6-.6-1v-.2c0-.1.1-.3.3-.3h.4c.1.2.2.4.2.6v.1c0 .4-.1.7-.3.8zM266.5 141.9c.1.1.3.1.5 0 0 .1-.1.2-.1.3-.2.1-.4.1-.6 0-2.5-2-9.2-6.1-7.7.7.5 2.1 1.2 4.1 2 6.1 1.8 5 2.5 10.3 3.4 15.6 0 .3-.2.6-.5.6-.3-.8-.6-1.5-1-2.2v-.1c-1.1-4.5-1.5-9.2-3-13.6-1.3-3.9-2.9-7.8-2.3-12 .1-.2.3-.4.6-.4 3.3.3 6.3 1.7 8.6 4.1.1.3.1.5.2.7-.1 0-.1.1-.1.2zM258.3 214.9c0 .2-.2.3-.4.2-.2-.2-.5-.4-.7-.6.3.1.5.2.8.3l.3.1z"/><path class="st4" d="M259 265c.7 0 1.4-.1 2-.1v.3c-1.1.4-2.3.5-3.5.1v-.1c-.1-.2-.1-.4-.2-.6.6.2 1.2.3 1.7.4z"/><path class="st4" d="M261 265.2v.3c-1 .4-2.7 1-3.7.4.2-.1.4-.4.3-.6 1.1.3 2.3.3 3.4-.1z"/><path class="st7" d="M266.9 142.1l.4-.1v.1c-.1.1 0 .3.1.3 12.2 8.7 23.5 19.9 28.1 34.5-3.1-2.6-7.9-4-11.5-5h-.1c-.2 0-.4.2-.4.4-.1.1-.2.2-.1.4 1.9 6.6 5.8 12.2 7 19-2.5-.9-4.5-2-7.3-2.5s-6.5-1.9-9.2-.9c-.1 0-.2.1-.2.2v.2c0 1.7.3 3.4.8 5.1.3 1.5.5 3.1.4 4.7-1-1-3.1-1.4-4.3-1.8-2.4-.9-4.7-2.4-7.4-2.3v-.5c.1-.2 0-.4-.1-.5l-.6-.3c.6-.8 1.1-1.6 1.5-2.5 3.8-1.2 9-4.8 8.5-9.1-.3-3-2.6-6.8-6-5.5-.4-3.8-1.4-7.5-3-11 .3 0 .5-.3.5-.6-.9-5.2-1.6-10.6-3.4-15.6-.8-2-1.5-4-2-6.1-1.5-6.7 5.2-2.7 7.7-.7.2.3.4.2.6.1z"/><path class="st4" d="M261.6 265.2c.1-.1.1-.2 0-.3.7-1.6 1.1-3.3 1.2-5.1 0 0 .1-.1 0-.2 0-.1.1-.3 0-.4.3.1.6.2.8.4-.1 2.2-.9 4.4-2.2 6.1-.2.3-.5 0-.5-.2.1 0 .3-.1.4-.2.2 0 .3-.1.3-.1z"/><path class="st4" d="M261.2 264.8h.3c.1 0 .1 0 .2.1 0 .1-.1.2-.2.4-.1.1-.3.1-.4.2v-.3c0-.2 0-.3.1-.4z"/><path class="st4" d="M261.8 260.7c.4-.2.8-.5 1.1-.8v-.1c-.1 1.8-.6 3.5-1.2 5.1 0-.1-.1-.1-.2-.1h-.3c.2-1.4.4-2.7.6-4.1zM261.7 265c0 .1 0 .2-.1.2l-.1.1c0-.1.1-.2.2-.3-.1 0 0 0 0 0zM262.5 193.2l-.1.1c0 .1-.1.1-.2.2l-.6-.3c-.1-.1-.1-.2 0-.4 0 0-.1-.2 0-.1s.3.2.4.2l.5.3zM262.1 193.5c-.2.1-.5-.1-.6-.3l.6.3zM262.8 195.2c.2.1.4.1.6.2.2 2 0 4-.6 5.9h-.4c-.2.1-.4.4-.3.6h-.1c-.2 0-.4-.3-.3-.5.3-2.4.2-5 .6-7.4l.5.1v.4c-.1 0-.2.1-.2.2-.1.2-.1.4.2.5-.1 0-.1 0 0 0zM262.6 190.8c.2.2.4.2.6.1h.1c-.3.7-.7 1.4-1.2 2-.1-.1-.3-.1-.4-.2.3-.6.6-1.3.9-1.9z"/><path class="st4" d="M261.9 259.7c.2-.1.5-.2.7-.2h.1c.1 0 .2.1.2.2V260c-.3.3-.7.6-1.1.8v-.5c0-.2 0-.4.1-.6z"/><path class="st4" d="M262.2 252.2c-.2-4.4-.7-9.1 0-13.4.1 0 .1-.1.2-.1 0 2.6.3 5.1.3 7.7 0 3.4.5 7.9.3 11.9h-.3c-.2 0-.3.1-.4.3-.1.2 0 .5.3.5.1 0 .2.1.4.2 0 .1-.1.3 0 .4v-.1c-.1-.1-.2-.1-.3 0-.2.1-.5.2-.7.2.1-2.5.2-5 .2-7.6zM262.1 201.9v-.3c.1-.2.3-.4.6-.3h.1c0 .1 0 .1-.1.2 0 .1-.1.2-.1.2-.2.1-.3.2-.5.2zM263.3 190.9c.2-.1.5-.1.7-.2-.4.9-.9 1.7-1.5 2.5l-.4-.2 1.2-2.1z"/><path class="st4" d="M262.5 201.7c2.1.3 3.7 1.9 3.9 4-.2-.1-.4-.1-.6 0-.4-1.7-1.7-3.1-3.5-3.5-.1 0-.3-.1-.3-.3.3 0 .4-.1.5-.2zM262.2 238.8v-.3c0-.1.3-.1.3 0v.1l-.2.1-.1.1zM262.3 193.3c0-.1.1-.1.1-.1l.6.3h.1c.1.1.1.4 0 .5v-.4c0-.1-.1-.2-.2-.3-.2-.1-.4 0-.6.1l-.1-.1c0 .1.1.1.1 0z"/><path class="st4" d="M262.3 193.9v-.3-.1c.1-.1.1-.2.2-.2.2-.1.4.1.5.3v.4c-.1.1-.2.1-.4.1h-.1l-.2-.2zM262.3 237.8l.6-.2c.4-.2.6.4.4.6-.1-.1-.3-.1-.5-.2l-.5-.2zM263.8 253.8c.1 1.4.1 3 .1 4.5-.3-.1-.6-.1-.9-.1.2-4-.3-8.5-.3-11.9 0-2.6-.3-5.1-.3-7.7l.2-.1c1 5.1.9 10.3 1.2 15.3zM262.9 259.2c-.1-.1-.2-.1-.4-.2s-.3-.3-.3-.5c.1-.2.2-.3.4-.3h.3v1zM263.5 165.1c-.2 0-.4-.1-.5-.4-.2-.6-.4-1.2-.5-1.9.3.8.7 1.5 1 2.3z"/><path class="st5" d="M263.3 238.2c.6.2 1.1.4 1.7.6.7 2.6 1.6 5 1.9 7.7.1 1.3.2 2.7 0 4-.1.9-.6 1.8-.4 2.6.1.2.3.4.5.3.1 0 .2-.1.2-.1.1.1.2.2.4.2 7.6-.6 16 2.8 22.4 6.7 0 2.6-1.2 3.7-3.5 3.3h-2.3c-1.8-.1-3.7 0-5.5-.2-4.7-.6-8.6-2.4-13-4.2-.5-.3-1.1-.6-1.8-.7 0-1.5 0-3.1-.1-4.5-.3-5-.2-10.2-1.3-15.2.3-.2.5-.3.8-.5z"/><path class="st4" d="M262.7 195.1c-.1 0-.2-.1-.2-.2-.1-.2 0-.4.2-.4v.6zM263.1 189.6c-.1.4-.3.8-.5 1.2-.1-.1-.1-.2-.2-.3-.1-.3.1-.7.4-.8l.3-.1zM262.8 201.3c2.3.5 4.3 2.2 4.2 4.7l-.5-.3c-.2-2.1-1.8-3.7-3.9-4 .1-.1.1-.1.1-.2s.1-.1.1-.2zM262.8 194.1c.1 0 .3 0 .4-.1v.4h-.3c-.1 0-.1 0-.2.1l.1-.4z"/><path class="st4" d="M263.3 195.3c-.2-.1-.4-.1-.6-.2v-.7s.1 0 .2-.1h.3c.1.1.1.3.1.5v.5zM263.3 190.9c-.3.1-.5 0-.7-.1.2-.4.3-.8.5-1.2l.9-.3c-.1.3-.2.6-.3.8l-.4.8zM262.9 259.6s.1.1 0 .2v-.2zM263.8 258.9c0 .2 0 .5-.1.7-.3-.2-.5-.3-.8-.4v-.5c.4 0 .6.1.9.2z"/><path class="st4" d="M263.9 258.4v.5c-.3-.1-.6-.2-.9-.2v-.4c.3 0 .6 0 .9.1zM263.1 194.4c2.7-.1 5 1.4 7.4 2.3 1.2.4 3.2.8 4.3 1.8v1.4c-.2.1-.3.1-.5 0-3.6-1.7-7.2-3.2-11-4.5-.1-.2-.1-.3-.1-.5s0-.4-.1-.5zM264.4 189.8c-.1.3-.3.6-.4.9-.2.1-.5.1-.7.2.1-.2.3-.5.4-.8.2-.1.5-.1.7-.3z"/><path class="st4" d="M264.8 188.9c-.1.3-.3.6-.4.9-.2.1-.5.2-.7.3.1-.3.2-.5.3-.8.3-.1.5-.2.8-.4zM263.9 258.4c.6.1 1.2.4 1.8.7-.2 0-.3.3-.2.4.5.4 1.1.8 1.6 1.1 0 .1-.1.2-.3.2-1.1-.2-2.2-.6-3.1-1.2 0-.2.1-.5.1-.7 0-.1 0-.3.1-.5z"/><path class="st4" d="M271.5 183.7c1.3-3.1-1.3-8.4-5-7.3v-.4c3.4-1.2 5.6 2.5 6 5.5.5 4.4-4.7 7.9-8.5 9.1.2-.3.3-.6.4-.9 3.1-.9 5.6-3.1 7.1-6z"/><path class="st4" d="M271 183.1c.2-.5.2-.9.2-1.4 0-2.6-2.1-4.7-4.7-4.8v-.4c3.7-1.1 6.4 4.2 5 7.3-1.5 2.8-4.1 5-7.1 6.1.2-.3.3-.6.4-.9 2.7-1.3 5.2-3.2 6.2-5.9zM265.9 239.1c1.6 2.1 2 5.6 2.4 8 .1 1.1.5 3.7-.1 5.2-.3.1-.5.2-.7.4h-.1c-.2.2-.2.5 0 .7-.1.1-.1.1-.2.1-.2.1-.5-.1-.5-.3-.2-.8.3-1.7.4-2.6.1-1.3.1-2.7 0-4-.2-2.7-1.2-5.1-1.9-7.7.1 0 .2.1.3.1 0 0 .2.1.4.1z"/><path class="st4" d="M265 238.8c0-.1 0-.2.1-.2.1-.1.3-.1.4 0 .2.2.3.3.4.5-.2-.1-.4-.1-.6-.2-.1 0-.2-.1-.3-.1zM266.7 259.9c.2.1.3.3.4.4v.2c-.6-.3-1.1-.7-1.6-1.1-.1-.1 0-.4.2-.4.3.3.7.6 1 .9zM266 206.1v.1c.1.2.4.3.6.2 3.9 2.1 7.7 6.7 10.5 9.9s6.4 7 7.9 11.2l-1-1c-1.9-3.6-4.5-6.6-7.2-9.8-3.3-3.7-6.5-7.7-11-10-.3-.2-.4-.5-.2-.8.1-.1.1-.2.2-.2.1.1.2.3.2.4z"/><path class="st4" d="M278.7 263.1c1.9.2 3.7.2 5.5.2.8 0 1.5.1 2.3 0 2.3.4 3.5-.7 3.5-3.3-6.4-3.9-14.8-7.3-22.4-6.7-.1 0-.3 0-.4-.2.1-.1.3-.1.4-.3 3-1.3 8.7.7 11.7 1.6s5.6 2.5 8.4 4c1.1.6 3.3 1.1 3.9 2.2v.6c0 .1 0 .1.1.1 0 .3-.1.7-.4.9-1.6 2.3-6.8 1.5-9.2 1.5-5.5 0-10.9-1.3-15.6-4-.3-.3-.7-.6-1-.8 4.5 1.9 8.5 3.7 13.2 4.2zM267 206c0 .2-.1.3-.3.4h-.1c-.2.1-.5-.1-.5-.3 0-.2-.1-.3-.1-.5.2-.1.4-.1.6 0l.4.4zM266.6 176.9h-.2c-.1 0-.3-.1-.4-.2-.1-.2 0-.4.1-.5.1-.1.2-.1.4-.1 0 .1.1.3 0 .4 0 .1.1.2.1.4zM266.5 141.6c-.1-.2-.1-.5-.2-.7.2.1.4.3.5.5l.1.1c.1.1.1.2.1.3-.1.1-.3.1-.5 0v-.2z"/><path class="st8" d="M268 177.1c2.5.8 3.8 3.5 3 6-1 2.8-3.5 4.6-6.2 5.9 1.5-3.8 2.1-7.9 1.7-12 .5-.1 1 0 1.5.1z"/><path class="st4" d="M282.3 264c2.4 0 7.6.8 9.2-1.5.2-.3.3-.6.4-.9h.1c.1 0 .2-.1.3-.2v-.7c.1.3.2.6.2.9 0 3.5-6.2 3.1-8.2 3-5.9-.3-12.1-.8-17.1-4v-.2c-.1-.2-.2-.3-.4-.4 4.7 2.6 10.1 4 15.5 4zM267 206c4.3 2.4 7.5 6.4 10.6 10s6.8 7.4 8 12.1l-.5-.6c-1.4-4.2-5.1-8.1-7.9-11.2s-6.6-7.9-10.5-9.9c.1 0 .3-.2.3-.4zM295.5 176.9c-4.6-14.6-15.9-25.8-28.1-34.6-.1-.1-.1-.2 0-.3.1-.1.2-.1.3 0 13.4 7.2 25.6 20.8 29.2 35.8 0 .2 0 .3-.1.4 0-.1-.1-.3-.2-.4l-.3-.3c-.3-.2-.5-.4-.8-.6zM268.2 252.4c-.1.3-.2.5-.4.8-.1.1-.2.2-.4.3v-.1c-.1-.2-.1-.5.1-.7.2-.1.4-.2.7-.3z"/><path class="st4" d="M282.5 255.2c2.5 1.1 4.8 2.6 7.3 3.7.7.3 1.3.6 1.8 1 0 .3.1.7.1 1-.6-1.1-2.9-1.6-3.9-2.2-2.7-1.5-5.3-3.2-8.4-4s-8.7-2.9-11.7-1.6c.2-.2.4-.5.4-.8 4.3-1.6 10.7 1.3 14.4 2.9z"/><path class="st10" d="M272 240.4v.1c0 .2.2.4.4.4 5.5.4 11.1.2 16.5-.6 1 6.5 2.1 12.9 2.7 19.5-.6-.4-1.2-.7-1.8-1-2.5-1.1-4.8-2.6-7.3-3.7-3.7-1.6-10.1-4.4-14.3-2.8.6-1.5.2-4.1.1-5.2-.4-2.4-.8-5.9-2.4-8 2 .7 4 1.2 6.1 1.3z"/><path class="st4" d="M288.9 240.3c-5.5.8-11 1-16.5.6h-.1c-.2 0-.3-.2-.3-.4.3 0 .6.1.9.1.1 0 .1-.1.1-.1 0-.1-.1-.1-.1-.1-.1 0-.2-.1-.3-.1 3.4-.4 7-.9 10.5-1.1 1.9.2 3.8.2 5.7.2v.4s.1.3.1.5z"/><path class="st4" d="M272.3 240.1h.2c.1 0 .2.1.3.1.1 0 .1.1.1.1 0 .1-.1.1-.1.1-.3 0-.6 0-.9-.1 0-.1 0-.2.1-.2.2.1.2 0 .3 0zM273.6 188.6c0 .2.1.3.3.3h.2c.2 3.3 2.3 6.9 1.3 10.3-.1-.3-.3-.6-.5-.7 0-1.6-.1-3.1-.4-4.7-.5-1.7-.8-3.4-.8-5.1-.2 0-.1 0-.1-.1z"/><path class="st4" d="M273.9 188.8c-.2 0-.3-.1-.3-.3v-.1c.2-.3.7-.3.9 0l.1.1c0 .1.1.2.1.4h-.6c-.1 0-.1 0-.2-.1z"/><path class="st4" d="M273.7 188.5c0-.1.1-.2.2-.2 2.7-1 6.6.4 9.2.9s4.9 1.6 7.3 2.5c0 .1 0 .1.1.1.1.2.4.2.5.1.2 0 .3.2.3.3 0 .2-.2.4-.4.4-1.7-.1-3.5-1-5.2-1.5-1.9-.5-3.8-.8-5.7-.9-1.8-.3-3.6-.9-5.4-1.2-.1-.1-.1-.2-.1-.4 0-.1-.1-.1-.1-.1-.1-.2-.4-.3-.6-.1l-.1.1z"/><path class="st4" d="M275.4 199.3c1-3.3-1.1-7-1.3-10.3h.6c.8 3.1 3.1 8.5.6 11.1-.1.2-.4 0-.4-.1v-.1c.1 0 .2-.1.3-.2.1-.1.1-.2.2-.4z"/><path class="st4" d="M274.8 198.5c.3.2.5.4.5.7-.1.1-.1.3-.2.5-.1.1-.2.2-.3.2v-1.4zM275.3 199.3c0 .2-.1.3-.2.5.1-.2.2-.4.2-.5zM278.5 222.8l-.1-.1c-.1-.1-.1-.2-.1-.2 0-.2.1-.3.3-.4h.1c.2.1.2.3.1.4l-.3.3z"/><path class="st4" d="M284 226.6c.3.5.5 1 .7 1.5-1.9-2-3.9-3.8-6-5.5v-.1c0-.2-.1-.3-.3-.4.1-.1.2-.1.3 0 1.9 1.3 3.7 2.8 5.3 4.5z"/><path class="st4" d="M284.7 228.1c.2.3.3.7.4 1 0 .1.1.1.2.2.2.1.4 0 .4-.2 2.2 2.4 4.4 4.8 6.5 7.2-.7-.6-1.4-1.1-2.2-1.4-.9-1.1-1.7-2.1-2.6-3.1-2.8-3.2-5.8-6.1-9-9 .1 0 .2-.1.3-.2 2.1 1.6 4.1 3.5 6 5.5zM284.3 172.8c3.3 5.8 6.8 12 7 18.8 0 .1-.1.3-.2.3-.2-.1-.4-.1-.6-.2-1.2-6.9-5.2-12.4-7-19-.1-.1 0-.3.1-.4 0 .1.1.2.2.2l.5.3z"/><path class="st4" d="M295.9 178c0 .1.1.1.1.2.2.2.5.2.7 0 0 .1 0 .2-.1.3-.2.3-.5.4-.8.2-1.8-1.2-3.6-2.3-5.5-3.2-2-1-4.1-1.7-6.1-2.7-.1-.1-.1-.3-.2-.4-.1-.1-.3-.2-.5-.1v-.1c0-.2.2-.4.5-.3 3.6 1 8.4 2.5 11.5 5 .1.3.3.7.4 1.1z"/><path class="st4" d="M284 172.3c.1.1.1.3.2.4l-.5-.2-.2-.2c.2-.1.4-.1.5 0zM285.4 228.8c-.2-.2-.4-.5-.7-.7-.2-.5-.4-1-.7-1.5.3.3.7.6 1 1 .1.3.3.7.4 1.2z"/><path class="st4" d="M285.7 229c0 .1-.1.1-.2.2-.2.1-.4 0-.4-.2-.1-.3-.3-.7-.4-1l.7.7.3.3zM292.3 238.8v.1c-1 .1-2 .2-3.1.2 0-.1-.1-.2-.1-.3-.1-.2-.4 0-.4.1v.1c-1.9 0-3.8 0-5.7-.2 3.1-.1 6.2-.1 9.3 0z"/><path class="st4" d="M285.6 228.2c.1.2.1.5.2.8v.2c-.1-.1-.2-.3-.4-.4-.1-.4-.2-.8-.3-1.1l.5.5zM292.3 236.2c-2.1-2.4-4.3-4.9-6.5-7.2v-.2c0-.3-.1-.5-.2-.8.6.6 1.2 1.3 1.9 1.9 2.7 2.8 5.8 5.6 7.9 8.9.1.1.1.3 0 .4-.1.2-.3.3-.6.2.1-.1.1-.3 0-.4-.1-.1-.1-.1-.2-.1h-.6c-.1-.1-.3-.2-.4-.3 0-.1-.1-.2-.2-.2-.1-.6-.4-1.2-.8-1.7-.1-.2-.2-.3-.3-.5zM288.7 239.2v-.1c0-.2.3-.4.4-.1.1.1.1.2.1.3h-.2c-.1-.1-.2-.1-.3-.1z"/><path class="st4" d="M289 239.2c0 .1.1.2.1.3h-.3v-.4c0 .1.1.1.2.1zM289.1 239.5c.1.3.1.5.2.8h-.4c0-.3-.1-.5-.1-.8.1.1.2.1.3 0zM292 260.1l-.3-.3c-.7-6.6-1.7-13-2.7-19.5h.4c1.6 6.5 2.5 13.1 2.6 19.8z"/><path class="st4" d="M289.2 239.2c.1.1.1.2.1.3h-.3c0-.1-.1-.2-.1-.3h.3zM289.4 239.5c.1.3.2.5.3.8h-.4c-.1-.3-.1-.5-.2-.8h.3z"/><path class="st4" d="M292.2 239v.4c-1 0-1.9.1-2.9.1 0-.1-.1-.2-.1-.3 1 0 2-.1 3-.2zM292.3 260.7c-.1-.2-.2-.4-.3-.5-.1-6.7-1-13.4-2.7-19.9h.4c2.4 6.3 2.8 13.8 2.6 20.4z"/><path class="st4" d="M292.3 239.4c0 .2.1.4.4.5l-3 .4c-.1-.3-.2-.5-.3-.8.9-.1 1.9-.1 2.9-.1zM290.9 191.9c-.2.1-.4-.1-.5-.3.2.1.4.2.6.2 0 .1-.1.1-.1.1zM292.3 236.3c.1.1.2.2.3.4.4.5.7 1.1.8 1.7h-.1c-.2-.2-.4-.3-.5-.5-.4-.7-1-1.3-1.7-1.7-.4-.4-.7-.9-1.1-1.3.8.3 1.6.8 2.3 1.4zM292.2 260.7V261.5c-.1.1-.2.1-.3 0 0-.2 0-.5-.1-.7 0-.3-.1-.7-.1-1l.3.3c.1.2.2.4.2.6zM291.8 261.6l-.1-.1v-.6c.1.2.2.4.1.7z"/><path class="st12" d="M293 238.7h-.8c0-.1 0-.3-.1-.4h.8c0 .1 0 .2.1.4z"/><path class="st12" d="M292.9 238.8c-.2 0-.5-.1-.7-.1v-.2h.8c0 .2-.1.3-.1.3z"/><path class="st4" d="M292.9 239h-.7v-.1c.3 0 .5 0 .7.1zM292.9 239v.4l.2-.4H293.4v.4h-1.2v-.4h.7zM293.2 239.8l-.5.1h-.1c-.2-.1-.4-.3-.4-.5h1.2c.1.1 0 .3-.2.4zM291.1 236.1c.7.4 1.3 1 1.7 1.7-.7-.5-1.1-1.1-1.7-1.7z"/><path class="st12" d="M293.2 239.8c-.1.1-.3.1-.5.1l.5-.1zM292.9 238.3c0-.2-.1-.3-.1-.5l.5.5h-.4z"/><path class="st4" d="M293.1 238.9l-.2.4v-.4h.2z"/><path class="st12" d="M293.5 238.5v.4l-.1.1h-.2l.2-.3h-.4c0-.1-.1-.2-.1-.3h.4c.1 0 .1.1.2.1z"/><path class="st4" d="M293.1 238.9h-.2.2z"/><path class="st12" d="M293.4 238.6l-.1.3h-.2v-.3h.3z"/><path class="st4" d="M293.5 239.3h1l.2.2-.1.1-1.4.2c.2-.1.3-.3.3-.5zM293.4 238.4l.1.1-.1-.1z"/><path class="st12" d="M293.5 238.8v.1h-.1s.1 0 .1-.1z"/><path class="st4" d="M293.6 238.6c-.1 0-.1-.1-.2-.1v-.1c.1 0 .2.1.2.2z"/><path class="st12" d="M293.6 238.6c0 .1-.1.2-.1.2v-.4c0 .1 0 .2.1.2z"/><path class="st4" d="M294.1 239l.4.4h-1v-.4c.2-.1.4-.1.6 0z"/><path class="st4" d="M294 239h.6c.1 0 .2 0 .2.1.1.1.1.3 0 .4l-.2-.2c-.3-.1-.4-.2-.6-.3zM296.5 177.8c.1.1.2.2.2.4-.1.1-.1.1-.2.1-.3.1-.5 0-.6-.3-.1-.4-.2-.8-.4-1.1.3.2.5.4.7.6.1.1.3.2.3.3z"/><path class="st15" d="M248.7 133c-7.7.3 2.2 10.6 5.2 11-1.2-3.7-2.6-8.8-5.2-11.8"/><path class="st16" d="M248.7 133c-7.7.3 2.2 10.6 5.2 11-1.2-3.7-2.6-8.8-5.2-11.8"/><path class="st15" d="M249 131.9c-.4-.4-1 .2-.6.6 2.7 3.3 3.7 7.6 4.8 11.6l.8-.8c-2.1-.4-4.2-2.7-5.5-4.3-1.4-1.8-3.6-5 .1-5.3 1.1-.1 1.1-1.8 0-1.7-8.3.9.6 11.8 5 12.5h.4c.4-.1.6-.5.5-.8-1.3-4-2.6-8.4-5.5-11.8zM239.9 134.1c-2.2 2.2 0 5.1 2.9 5.5-.4-2.2-1.5-4.2-2.9-5.9"/><path class="st16" d="M239.9 134.1c-2.2 2.2 0 5.1 2.9 5.5-.4-2.2-1.5-4.2-2.9-5.9"/><path class="st15" d="M240.1 133.6c-.1-.1-.2-.1-.2 0-.1.1-.1.2 0 .2 1.4 1.6 2.2 3.6 2.3 5.8l.9-.7c-2-.3-4.4-2.3-2.6-4.3.7-.7-.4-1.8-1.1-1.1-2.6 2.9 0 6.3 3.3 6.8.2 0 .4 0 .5-.1.4-.2.5-.6.3-1-1-2-1.7-4.1-3.4-5.6z"/><path class="st17" d="M278.3 164.1c-3.6 1.2-6.3-5.4-3.9-7.7 4.6-4.4 9.8 8.3 4.1 7.8"/><path class="st16" d="M278.3 164.1c-3.6 1.2-6.3-5.4-3.9-7.7 4.6-4.4 9.8 8.3 4.1 7.8"/><path class="st17" d="M278.2 164.2c0 .2.2.3.3.3 5.5.6 2.3-8.4-1.1-9.4-2.6-.8-4.7 1.7-4.5 4.2.3 2.3 2.3 6.6 5.3 5.5.3-.1.5-.3.5-.6 0-.4-.3-.7-.6-.7-1.2.1-2.3-.4-2.9-1.4-.7-1-1-2.2-1-3.4.1-1.8 1.9-3.6 3.7-2.4s4.8 7.6.7 7.6c-.3 0-.4.1-.4.3zM269.4 168.8c-2-.6-4.1-4.8-1.1-4.9 2.1-.1 3.5 4.6 1.3 4.9"/><path class="st16" d="M269.4 168.8c-2-.6-4.1-4.8-1.1-4.9 2.1-.1 3.5 4.6 1.3 4.9"/><path class="st17" d="M269.4 168.5c-.1.1-.2.3-.1.4.1.1.2.2.3.2 3 .1 1.5-5.8-1.1-5.8-3.8-.1-2.1 5.3.5 5.9.3.1.5 0 .7-.3l.1-.1c.1-.3 0-.5-.3-.7-.8-.5-1.4-1.2-1.9-2-.3-.7-.4-2.2 1-1.7s2.4 3.3.8 4.1z"/><path class="st18" d="M213.5 214.4c-2.8.4-3-3 0-2.8 3.2.2 2.8 3.2-.2 3"/><path class="st16" d="M213.5 214.4c-2.8.4-3-3 0-2.8 3.2.2 2.8 3.2-.2 3"/><path class="st18" d="M213 214c-.1.1-.2.1-.2.2-.2.3-.1.7.2.9 1.3.6 2.8.1 3.5-1.1.1-.3.2-.5.3-.8.1-1.8-2.1-2.7-3.5-2.6s-3.2 1.2-2.7 2.9c.4 1.2 2.3 2.5 3.3 1.2.2-.2.2-.4 0-.6-.4-.4-1.4-.3-1.6-.9s.6-.8 1-.8c.2 0 1.9.3 1.6.8s-1.3.6-1.9.8z"/><path class="st19" d="M213.6 210.6c-1.7-.6-2.3-2.6-.2-2.3 1.4.2 2 1.3 1 1.9"/><path class="st16" d="M213.6 210.6c-1.7-.6-2.3-2.6-.2-2.3 1.4.2 2 1.3 1 1.9"/><path class="st19" d="M213.9 210.3c0 .3.2.5.4.6.7.1 1.4-.4 1.5-1.1.1-.3 0-.6-.2-.9-.6-1.1-1.9-1.5-3.1-1.1-2 .8-.5 3.9 1.3 3.4h.1c.2-.1.3-.4.2-.6-.2-.3-1.4-1.1-1.2-1.4.1-.1 1.1.4 1.2.5s-.2.4-.2.6z"/></g><g id="レイヤー_3-2"><path class="st4" d="M122.9 179.8c1.6 5.8-8.1 6.9-11.7 7.5h-.2v-.1c0-.3.1-.6.1-.8 3.1-.5 7.2-1.2 9.8-3.1 1.8-1.3 1.3-3.1.2-4.9.4 0 .7-.3.7-.7.4.5.8 1.3 1.1 2.1z"/><path class="st4" d="M101.9 202.4c-1.2-3.1-1.1-6.5.3-9.5.2 0 .4-.1.4-.3v-.1c0-.1 0-.2-.1-.3 1.5-2.4 4.1-3.9 6.9-4 .6.2 1.2-.1 1.4-.6 8.9.7 12.8 10.1 11.7 18.4-1.7 13-16.9 11.2-25.7 14.7-.3.1-.6 0-.8-.3.1-.2.2-.3.3-.5.1-.2 0-.4-.1-.5 5.3-4 12.7-1.4 18.3-5.2 7.2-4.7 10.1-18.9.9-23.8-15-7.9-18.1 17-6.1 15.3.2-.1.5 0 .6.3.1.2 0 .4-.2.5-3.7 2.3-6.8.2-8.3-3.4h.1c.4-.2.5-.5.4-.7zM121.8 177.3v.2c-.3-.4-.5-.8-.8-1.2-.6-3-3.6-5.5-5.3-7.9-1.4-2.1-2.9-4-4.6-5.8-1.6-1.5-4-2.4-5.4-4-1.2-1.3-1.8-3.6-2.9-5.2-1.2-1.8-2.7-3.3-4.1-5-4.6-5.6-10.5-9.4-16.5-13.4-8.3-5.6-17.6-9.7-27.4-12-3.1-.8-10.3-3.3-12.8-1.2-1.4 1.2-2.3 4.9-3.2 6.5-1.1 2.2-2.3 4.3-3.3 6.6-1.7 3.6-3.6 7.2-4.6 11.1-.4 1.6-.3 3.1-1.4 4.3s-4 2.3-5.6 3.3c-6.6 4.4-12.7 9.4-18.2 15-.6.5-1.1 1-1.6 1.4l-.5.5c-.1-.1-.1-.3 0-.5 5.7-5.7 11.6-11.3 18.2-15.8 1.6-1.1 3.1-1.9 4.7-2.8 3.9-2.2 3.2-4.5 4.3-7.7 1.2-3.2 2.6-6.3 4-9.3 1.7-3.6 3.2-7.3 5-10.8.6-1.2 1.3-2.8 2.8-3.2 4.7-1.1 9.9 1 14.4 2.2 14.5 4.1 30.7 12.1 40.7 23.5 2.1 2.4 4.9 5.1 6.4 8.1 1.7 3.6 4.8 4.9 7.4 7.6 4 4.4 9.4 9.8 10.3 15.5z"/><path class="st4" d="M120.2 177c.1.2.1.4.2.7 0 .3.3.6.7.5h.1c1.1 1.8 1.6 3.6-.2 4.9-2.6 1.9-6.6 2.6-9.8 3.1.1-.3.1-.6.1-1 4.4-.8 12.8-2.4 7.8-8.2-1.9-2.1-3.6-4.3-5.5-6.4s-3.9-4.2-6-6.3c-.1-.3-.2-.5-.4-.8-.1-.2-.3-.1-.3.1-.7-.7-1.4-1.4-2.2-2-.3-.5-.6-1-1-1.5-.1-.2-.4 0-.3.2.1.1.1.2.1.3-2.2-2-4.5-3.8-6.9-5.5-9.9-7-20.5-9.4-31.7-8.8.2-.2-.2-.5-.4-.3l-.3.3c-4.3.3-8.6.9-12.9 1.9-8.1 1.8-15.9 4.9-23.1 9.2-.1-.2-.4-.3-.6-.2-.1 0-.1.1-.2.1-.2.3-.4.5-.6.8-5.3 3.1-10.9 5.7-16 9.1-2.1 1.3-10.6 6.3-6.6 9.9 1.7 1.4 3.6 2.6 5.6 3.5 3.2 1.4 6.8 2.5 9.7 4.5v1c-.2.1-.4.1-.6 0-4.5-3-23.4-6.9-15.5-15.2.1.2.3.3.5.2l.1-.1c1.6-1.6 3.3-3.1 4.9-4.7H9c5.4-3.8 11.7-6.7 17.3-9.9 9-5.1 18.3-8.9 28.5-10.7 9.5-1.6 19.6-2.4 28.9.8 8.9 3.1 16.7 8.8 23.6 15.3 4 3.7 7.3 7.8 10.9 11.8l.9.9c.5.8.9 1.7 1.1 2.5z"/><path class="st4" d="M121 176.3c.3.4.6.8.8 1.2 0 .4-.3.7-.7.7l-.9-1.2c-.2-.9-.5-1.8-.9-2.6.5.6 1.1 1.3 1.7 1.9z"/><path class="st4" d="M121.1 178.2c-.3.1-.6-.1-.7-.4v-.1c0-.2-.1-.4-.2-.7l.9 1.2zM121 176.3c-.5-.6-1.1-1.3-1.7-1.9-2.6-5.5-8.7-11.3-12.8-14-1.4-.9-2.4-2.3-3-3.8-1.7-3.4-4-6.5-6.8-9.2-11-11.1-24.9-19.1-40-23.1-6.6-1.7-13.1-5.1-16.8 3.3-3 6.8-7.1 13-8.9 20.2-1.1 4.5-5.3 5.1-8.7 7.5-4.6 3.3-9 6.8-13.2 10.7-1.2.9-2.3 1.8-3.4 2.7 5.6-5.6 11.7-10.6 18.2-15 1.5-1 4.4-2 5.6-3.3s1-2.6 1.4-4.3c1-3.9 3-7.5 4.6-11.1 1-2.2 2.2-4.4 3.3-6.6.9-1.7 1.8-5.3 3.2-6.5 2.5-2.1 9.8.4 12.8 1.2 9.8 2.3 19.1 6.4 27.4 12 5.9 4 11.9 7.8 16.4 13.4 1.4 1.7 2.8 3.2 4.1 5 1.1 1.5 1.7 3.9 2.9 5.2 1.3 1.5 3.8 2.4 5.4 4 1.7 1.8 3.3 3.7 4.7 5.7 1.7 2.4 4.6 4.9 5.3 7.9z"/><path class="st20" d="M119 177c4.9 5.8-3.4 7.5-7.8 8.2.6-6.9-.4-14.8-3.7-20.9 2.1 2 4.1 4.1 6 6.3s3.7 4.3 5.5 6.4z"/><path class="st21" d="M119.3 174.4l-.9-.9c-3.6-4-7-8.1-10.9-11.8-6.8-6.5-14.6-12.2-23.6-15.3-9.2-3.3-19.4-2.4-28.8-.8-10.3 1.8-19.5 5.6-28.5 10.7-5.6 3.2-11.9 6.1-17.3 9.9 4.1-3.8 8.5-7.4 13.1-10.6 3.4-2.4 7.7-3.1 8.7-7.5 1.8-7.3 5.8-13.5 8.8-20.2 3.7-8.5 10.2-5 16.8-3.3 15.2 4 29 12 40 23.1 2.7 2.7 5 5.8 6.8 9.2.6 1.5 1.6 2.9 3 3.8 4.1 2.4 10.2 8.2 12.8 13.7z"/><path class="st9" d="M115.6 190.3c9.2 4.9 6.4 19.1-.9 23.8-5.7 3.8-13 1.2-18.3 5.2-.1-.1-.3-.1-.4.1l-.6.7c-.2-.1-.5 0-.6.2v.5c-3.5 3.9-7.3 7.4-11.4 10.7-4.2 3.4-8.7 6.8-12 11-.1-.8-.2-1.6-.3-2.3 4.2-4 7.4-9.6 10.9-14.3 2.6-3.3 5.5-6.5 8.7-9.3.3.5 1.1.2 1.1-.3.2-3.2.4-5.8 2.6-8.3s4.6-3.2 7.1-4.8c1.6 3.6 4.7 5.7 8.3 3.4.2-.1.3-.4.2-.6-.1-.2-.4-.3-.6-.2-11.9 1.4-8.7-23.5 6.2-15.5z"/><path class="st4" d="M114.4 257.9c.1-.1.1-.2.2-.3.1-.2-.2-.5-.4-.3l-.2.2c-.7-.7-1.6-1.1-2.3-1.9-1.3-1.3-2.2-3.1-3.4-4.5-1.9-2.2-3.9-4.2-6.1-6-2-1.6-4.4-2.6-5.1-5-.9-2.8-.1-7.2-.3-10.2-.2-2.8-.7-5.6-1.3-8.4.1-.2.3-.4.4-.6 1.1 3.4 1.6 7 1.7 10.6-.1 5.5.7 8.9 5.3 13 4.3 3.8 9.2 8.7 12.3 13.5.3.6-.4 1-.9.7-.1-.1-.2-.1-.2-.2.1-.2.3-.4.3-.6z"/><path class="st4" d="M114.3 257.7l-.2-.2c.1-.1.2-.1.2-.2.2-.2.5.1.4.3-.1.1-.1.2-.2.3-.1-.1-.2-.1-.2-.2z"/><path class="st4" d="M114.3 257.7c.1.1.1.2.2.2-.1.2-.2.4-.4.5-.1-.1-.2-.1-.2-.2.1-.1.3-.3.4-.5z"/><path class="st4" d="M114.3 257.7c-.1.2-.3.4-.4.6l-.3-.3c.2-.1.4-.3.5-.5l.2.2z"/><path class="st4" d="M113.8 258.2l.2.2c-2.7 3.4-8.4 2.1-13.1.4.3-.3.3-.8 0-1.2 4.9 1.8 10.6 3.1 12.9.6z"/><path class="st4" d="M113.5 257.9l.3.3c-2.3 2.5-8.1 1.2-12.8-.6-.2-.2-.5-.3-.7-.3-2.1-.8-4.1-1.7-6-2.8-6.2-3.7-14.2-10.3-13.8-18.4l.5-.5c1 8.7 7.8 15 15.3 18.8 3.7 1.9 12.8 6.7 17.2 3.5zM114 257.4c-.1.2-.3.4-.5.5-2.7-2.5-4.5-5.1-7.2-7.9-2.8-2.9-6-5.2-8.9-7.9-1.7-1.6-1.6-5-1.4-7.1.2-4.4-.1-8.7-.9-13 .2-.2.3-.4.4-.6.7 2.8 1.1 5.6 1.3 8.4.2 3-.6 7.4.3 10.2.7 2.3 3.2 3.3 5.1 4.9 2.2 1.8 4.2 3.8 6.1 6 1.2 1.4 2.1 3.2 3.4 4.5.8.9 1.6 1.4 2.3 2zM107.5 164.3c3.3 6.1 4.3 14 3.7 20.9l-.5.1c-.2 0-.5.2-.6.4 1.1-7.3-.6-15.4-3.1-21.9l.5.5z"/><path class="st4" d="M111.1 186.3c0 .3 0 .6-.1.8v.1c-.5 0-.9-.4-1-.9v-.1c0-.2.1-.4.1-.6.1-.2.4-.3.6-.4l.5-.1c0 .5 0 .9-.1 1.2z"/><path class="st4" d="M110 186.4c.1.5.5.9 1 .9v.2c-.6-.1-1.2-.1-1.7-.1h-.4v-.6c1.9-8.1-.5-15.2-2-23.1v-.1c.1.1.2.2.3.2 2.4 6.5 4.2 14.6 3.1 21.9-.1.2-.1.4-.1.6 0 0 .1 0 .1.1h-.3c.1 0 0 0 0 0z"/><path class="st4" d="M109.2 187.4c.6 0 1.2 0 1.7.1-.1.3-.3.5-.6.6h-.8c-.3-.1-.6-.3-.7-.6l.4-.1z"/><path class="st22" d="M113.5 257.9c-4.4 3.2-13.5-1.6-17.4-3.5-7.5-3.8-14.3-10.1-15.3-18.8 1.2-1.1 2.4-2.2 3.7-3.2 3.9-3.1 7.4-6.6 10.5-10.4.8 4.3 1.1 8.6.9 13-.1 2.1-.3 5.4 1.4 7.1 2.9 2.7 6.1 5 8.9 7.9s4.6 5.4 7.3 7.9z"/><path class="st4" d="M109.5 188.1h.8c-.2.1-.5.1-.8 0zM110.1 185.7c0 .2 0 .4-.1.6 0-.2 0-.4.1-.6z"/><path class="st23" d="M106.8 163.7c1.5 7.9 3.9 14.9 2 23.1v.6c-2.6 0-5 1.3-6.6 3.4-.2-.7-.6-1.3-1-1.9-1-1.1-1.3-2.7-.8-4.2 7.5-3.4 8.2-16.3 4.3-23.2.8.7 1.4 1.3 2.2 2-.1.1-.1.2-.1.2z"/><path class="st4" d="M108.8 187.5c.1.3.4.6.7.7-2.8.1-5.4 1.6-6.9 4 0-.5-.2-.9-.3-1.3 1.5-2.2 3.9-3.4 6.5-3.4zM107.1 163.9c-.1-.1-.2-.2-.3-.2 0-.1.3-.2.3-.1.2.2.3.5.4.8-.1-.2-.3-.4-.4-.5zM104.6 161.6c4 6.9 3.2 19.8-4.3 23.2 0-.2.1-.4.2-.6 0-.1 0-.2-.1-.3h-.1c6.8-3.3 6.9-16.9 3.7-22.9l.6.6z"/><path class="st4" d="M104 161.1c-.2-.2-.4-.3-.6-.5 0-.1-.1-.2-.1-.3-.1-.2.2-.4.3-.2.4.5.7 1 1 1.5l-.6-.5z"/><path class="st4" d="M104 161.1c3.2 5.9 3.1 19.6-3.7 22.9-.1 0-.2 0-.2.1-1 .4-2 .7-3.1.6.1-.2.1-.5 0-.6-.1-.1-.1-.2-.2-.2h.1c10.3-.1 9.8-16.5 6.6-23.2.1.1.3.2.5.4z"/><path class="st23" d="M103.5 160.6c3.1 6.7 3.7 23.1-6.6 23.2h-.1c-3.8-4.3-7.5-8.8-8.2-14.8-.1-.3-.5-.3-.5 0 .3 3.8 1.4 7.5 3.5 10.8-4.5-.1-8.9 0-13.1-1.8-5.7-2.4-7.2-7.9-7.9-13.5 0-.2-.2-.3-.4-.3-.1 0-.3.1-.3.3-.3 2.4 0 4.9.8 7.2-1 2.3-2.8 5.4-2.6 8-3.5-4.7-5.6-10.4-5.8-16.3-.3-5.2-.5-13 2.6-17.2 11.2-.5 21.8 1.9 31.6 8.9 2.4 1.6 4.7 3.5 7 5.5z"/><path class="st4" d="M102.6 192.4c0 .2-.1.4-.3.4h-.1c.1-.2.2-.5.4-.7v.3z"/><path class="st4" d="M101.9 191.3c.1-.1.2-.3.3-.4.2.4.3.9.3 1.3-.1.2-.3.4-.4.7-.2 0-.4-.1-.4-.3 0-.2-.1-.4-.2-.6.1-.3.3-.5.4-.7zM102.2 190.8c-.1.1-.2.3-.3.4-.9-2.6-3.2-3.2-2-6.3.1 0 .3-.1.4-.2-.5 1.4-.2 3 .8 4.2.4.6.8 1.3 1.1 1.9z"/><path class="st4" d="M101.9 191.3l-.3.6c-.5-1.4-1.5-2.5-2.1-3.9-.3-.9-.3-2 .1-2.8.1 0 .2-.1.4-.1-1.3 3 1 3.6 1.9 6.2zM101.3 202.5c-.1-.2-.1-.3-.2-.4h.2c.2 0 .4.1.5.3.1.2 0 .5-.2.6h-.1c-.1-.2-.1-.3-.2-.5z"/><path class="st4" d="M101.8 192.5c0 .2.2.3.4.3-1.4 3-1.5 6.4-.3 9.5-.1-.2-.3-.3-.5-.3h-.2c-.3-.8-.5-1.6-.6-2.4v-.3c-.4-2.5-.1-5.2 1.1-7.5 0 .3 0 .5.1.7zM91.2 216c.1-.1.1-.2 0-.2-1.3-6.5 4.4-11.6 10.1-13.1.1.2.1.3.2.4-2.5 1.6-5.1 2.4-7.1 4.8s-2.4 5.1-2.6 8.3c0 .5-.8.8-1.1.3.2-.1.3-.3.5-.5 0 .1 0 0 0 0z"/><path class="st4" d="M101.3 202.5c-5.7 1.6-11.4 6.7-10.1 13.1l-.1-.1c-.2-.1-.4-.1-.7-.1-.6-2.2-.3-4.6.9-6.5.1-.1.1-.2.1-.3 2-3.6 6-6.5 9.7-6.6l.2.5zM100 258.4c-.3-.1-.7-.3-1-.5.3-.1.6-.3.9-.5.1-.1.2-.1.3-.1.2.1.5.2.7.3.3.3.3.8 0 1.2l-.9-.4z"/><path class="st4" d="M101 258.8l-.2.2c-13.8 8.4-31.2 4.2-46.5 4.2-.2 0-.5-.1-.6-.3.2-.1.4-.3.7-.5 14.3-.8 33 4.2 45.7-4l.9.4zM100.9 257.7c-.3-.1-.5-.2-.7-.3.3-.1.6.1.7.3z"/><path class="st23" d="M100.5 199.7c.1.8.3 1.6.6 2.4-3.7.1-7.7 3-9.7 6.6v-.1c-.4-1.1-1-2.1-1.7-3.1 4-.9 7.7-2.8 10.7-5.5.1-.1.1-.2.1-.3z"/><path class="st4" d="M100 185c-.1.1-.2.1-.4.1.1-.4.3-.7.5-1 .1 0 .2-.1.2-.1.1 0 .2.1.2.2-.1.2-.1.4-.2.6 0 .1-.2.1-.3.2zM100.5 199.4v0zM77.4 205.8c-.7-.4-1.5-.8-2.3-1 3.9.1 7.9-.2 11.7-1.1 4.6-1.1 8.6-3.2 13-4.7.2-.1.5 0 .6.2v.3c0 .1-.1.2-.1.3-3 2.7-6.7 4.6-10.7 5.5-.2-.2-.3-.4-.5-.6-.2-.2-.2 0-.1.1.1.2.2.4.2.6-3.4.8-6.8 1.2-10.3 1.3-.5-.2-1-.6-1.5-.9z"/><path class="st4" d="M100.1 184c0-.1.2-.1.2-.1 0 .1-.1.2-.2.1z"/><path class="st8" d="M101.5 191.9c-1.1 2.3-1.5 5-1.1 7.5-.1-.2-.4-.3-.6-.2-4.4 1.5-8.4 3.6-13 4.7-3.8.8-7.8 1.2-11.7 1.1-1.1-.4-2.3-.4-3.4-.1h-.6c-3.7-.2-7.4-.6-11-1.2-3.5-.6-6.1-2.3-9.2-3.5-3.7-5.1-5.3-10.3-3.9-17.3 1.9-8.9 7.8-16.4 13.6-23.2v4c-.2 6.8 2.6 13.3 7.7 17.7.1.1.3.1.4 0 0 0 .1-.1.1-.2v-.2c.6-1.3 1.1-2.7 1.3-4.2.3-1.2.8-2.4 1.1-3.6 3.6 6.8 12.6 9.6 20.8 7.4 1.1 1.5 2.4 2.9 3.9 4-.1.4.2.9.6 1h.2c.9 0 1.9-.2 2.7-.5-.4.9-.5 1.9-.1 2.8.8 1.5 1.8 2.5 2.2 4zm-5.9-3.5c.4-1-1.1-1.5-1.7-.7-1.9 2.9-6.7 4.1-8.6.4-.4-.7-1.6-.4-1.5.4.7 6.2 9.9 4.3 11.8-.1zm-26.8 0c.1-.3 0-.6-.2-.7h-.1c-1.9-.4-3.2 1.3-4.8 2.3-3.5 2.2-6.4-1.3-9.2-2.7-.3-.1-.6 0-.7.3-.1.1-.1.3 0 .5 1.7 2.8 4.7 4.6 7.9 4.8 2.3-.2 6.2-2.5 7.1-4.5z"/><path class="st4" d="M100.2 257.3c-.1 0-.2.1-.3.1-.3.2-.6.4-.9.5-1.2-.5-2.2-1-3-1.4-7.5-3.7-16.5-10.9-16.2-20 .2-.2.3-.3.5-.4-.2 8 7.6 14.6 13.8 18.4 2 1.1 4 2.1 6.1 2.8zM100.1 184.1c-.2.3-.4.6-.5 1-.9.3-1.8.5-2.7.5-.4 0-.8-.3-.9-.8v-.2l.3.3c.2.2.5.1.6-.1l.1-.1c1.1 0 2.1-.2 3.1-.6zM99 258c.3.2.7.3 1 .5-12.7 8.2-31.4 3.3-45.7 4 .4-.3.8-.5 1.1-.8 14.5-.8 30.2 3.9 43.6-3.7z"/><path class="st4" d="M96.2 184.1c.1-.2.3-.3.6-.2l.2.2c.1.2.1.5 0 .6-.1.2-.4.4-.6.3 0 0-.1 0-.1-.1l-.3-.3c-.1-.2 0-.4.2-.5zM96.1 219.8c0-.2.1-.4.2-.5.1 0 .1 0 .1-.1.2.1.3.3.2.5-.1.2-.2.3-.3.5-.1-.1-.2-.2-.2-.4z"/><path class="st21" d="M96 256.6c.8.4 1.8.9 3 1.4-13.3 7.7-29 2.9-43.6 3.7 1.8-1.4 3.5-3 5-4.7 3.2-3.3 6.2-6.8 8.9-10.4.4 0 .7-.1 1.1-.2.6-.4 1-1 1.1-1.7.1 0 .2-.1.3-.2 2.7-2.6 5.3-5.2 8-7.8-.3 9 8.7 16.2 16.2 19.9z"/><path class="st4" d="M92.6 179.9c-.1-.1-.1-.1-.2-.1h-.8c-2-3.3-3.2-7-3.5-10.8 0-.3.4-.3.5 0 .7 6 4.4 10.5 8.2 14.8-.2 0-.4.1-.6.2-1.3-1.2-2.6-2.6-3.6-4.1zM96.4 219.3s-.1 0-.1.1c-.1.1-.2.3-.2.5-.1.2-.2.3-.4.5v-.1c0-.1-.1-.2-.2-.3l.6-.7c.1-.1.2-.1.3 0z"/><path class="st4" d="M96.3 220.3c-.1.2-.3.4-.4.6l-.2-.5c.1-.1.3-.3.4-.5 0 .1.1.3.2.4zM96.2 184.1c-.1.2-.2.4-.2.6-1.5-1.1-2.8-2.5-3.9-4.1l.3-.1c.2 0 .3-.2.2-.4v-.1c1.1 1.5 2.3 2.8 3.6 4.1z"/><path class="st4" d="M95.9 220.9c-.1.2-.3.4-.4.6 0-.2-.1-.4-.1-.6.1-.1.3-.3.4-.5l.1.5zM95.3 220.8c-.1.2-.3.4-.4.5 0-.2 0-.4-.1-.6.2-.2.4-.5.6-.7.1.1.2.1.2.2v.1c0 .2-.1.4-.3.5zM94 187.7c.5-.8 2.1-.3 1.7.7-1.8 4.4-11.1 6.3-11.8.1-.1-.8 1.2-1.1 1.5-.4 1.8 3.7 6.6 2.5 8.6-.4z"/><path class="st4" d="M94.8 220.5c0-.2.1-.5.3-.5h.3c-.2.3-.4.5-.6.7v-.2zM95.3 220.8c.1.2.1.4.1.6-.2.2-.3.4-.4.6 0-.2-.1-.4-.1-.6.2-.2.3-.4.4-.6z"/><path class="st4" d="M95 221.4c.1.2.1.4.1.6-3.2 3.8-6.7 7.3-10.6 10.4-1.2 1.1-2.5 2.1-3.7 3.2v-.1c0-.3-.3-.5-.5-.5h-.1c5.1-4.2 10.5-8.3 14.8-13.6z"/><path class="st4" d="M94.8 220.7c.1.2.1.4.1.6-4.2 5.3-9.6 9.4-14.8 13.8-.1 0-.2.1-.2.2-3 2.5-5.9 5.3-8.4 8.3.1-.4.1-.8 0-1.2 3.4-4.2 7.9-7.5 12-11 4-3.3 7.8-6.8 11.3-10.7zM91.8 180.2c-.1-.1-.2-.3-.3-.4h.8c.1 0 .2 0 .2.1v.1c.1.1 0 .3-.1.4h-.1l-.3.1c0-.1-.1-.2-.2-.3zM92.6 180z"/><path class="st4" d="M91.8 180.2c.1.1.2.2.2.4-8.1 2.2-17.2-.6-20.8-7.4.1-.3.1-.6.2-1 3.3 7.1 11.5 9.2 20.4 8z"/><path class="st4" d="M71.1 171c-.1 0-.2.1-.3.3 0 .1-.1.3-.2.4-.9-2.3-1.1-4.8-.8-7.2 0-.2.2-.3.4-.3.1 0 .3.1.3.3.8 5.6 2.2 11 7.9 13.5 4.2 1.8 8.6 1.7 13.1 1.8.1.1.2.3.3.4-8.9 1.2-17.1-.9-20.3-8 .1-.2.1-.4.1-.7.1-.2-.1-.5-.3-.5h-.2zM89.5 205.5h.2c.7.9 1.3 2 1.7 3.1v.1c-.1.1-.1.2-.1.3-.2.2-.5.1-.7-.1l-.1-.1c-.4-1-.8-2.2-1.2-3.2l.2-.1z"/><path class="st4" d="M91.3 209c0-.1.1-.2.1-.3 0 .1 0 .2-.1.3zM91.2 215.7c.1.1.1.2 0 .2v-.2zM90.5 216c-.1-.1-.1-.3-.2-.4.2 0 .4 0 .7.1.1 0 .1 0 .1.1V216.1c-.2.1-.3.3-.4.4 0-.2-.1-.3-.2-.5z"/><path class="st22" d="M90.5 208.8c.1.2.4.4.6.3 0 0 .1 0 .1-.1-1.2 2-1.5 4.3-.9 6.5-3 0-6.2 5-7.7 6.8-1.1 1.4-2.2 2.7-3.4 4.1 0-1-.2-2-.2-2.9 0-1.3-.1-2.7-.3-4 2.4-1.5 3.8-4 4-6.8 0-2-1.7-4.2-3.8-5.8 3.5 0 7-.5 10.4-1.3.5 1 .8 2.1 1.2 3.2z"/><path class="st4" d="M90.8 216.4c-3.1 2.9-6 6-8.7 9.3-3.5 4.6-6.7 10.2-10.9 14.2-.1-.3-.1-.6-.2-.9 2.6-3.4 5-6.8 7.6-10.2v.1c.1.5.9.4.9-.1v-1.1c.4-.6.9-1.2 1.4-1.8 2-2.5 6.7-9.2 9.7-10 .1.2.1.4.2.5z"/><path class="st4" d="M90.4 215.5c0 .2.1.3.2.4-3 .8-7.7 7.5-9.7 10-.5.6-1 1.2-1.4 1.8 0-.5 0-1-.1-1.5 1.2-1.4 2.3-2.7 3.4-4.1 1.4-1.6 4.7-6.6 7.6-6.6zM89.5 205.5h-.2c-.1-.2-.2-.4-.2-.6 0-.1 0-.1.1-.1s.3.4.5.6c-.1.1-.1.1-.2.1zM78.9 206.8c2.2 1.6 3.8 3.9 3.8 5.8-.2 2.8-1.6 5.3-4 6.8 0-.2-.1-.5-.1-.7 0-.1-.1-.2-.2-.2h-.1c2.1-1.4 3.7-3.6 3.6-5.9-.3-2.5-2.4-4.5-4.9-5.8.7.1 1.3 0 1.9 0z"/><path class="st4" d="M81.9 212.7c.1 2.4-1.5 4.6-3.6 5.9h-.1c-2 1.5-4.6 1.9-7 1.2-7.3-3-5.3-12.9 1.8-13.1.4 0 .7 0 1.1.1h.2c0 .1-.1.1-.1.2-3.1.6-6 1.9-6.6 5.4s2.3 7.3 6.1 6.9 9.6-4.4 6.5-8.7c-1.3-1.7-3.2-3-5.2-3.7h2.1c2.4 1.2 4.5 3.3 4.8 5.8zM80.3 236.1c-.2.1-.4.3-.5.4v-1c0-.1 0-.2.1-.3 0-.1.1-.1.2-.2.3-.1.5 0 .6.3v.2c-.1.3-.3.4-.4.6z"/><path d="M80.2 210.6c3.2 4.3-2.7 8.3-6.5 8.7s-6.6-3.4-6.1-6.9 3.5-4.8 6.6-5.4c.1 0 .1-.1.1-.2h.7c2.1.7 3.9 2 5.2 3.8z" fill="#42beec"/><path class="st4" d="M80 235.3c-.1.1-.1.2-.1.3v1c-2.7 2.5-5.3 5.1-8 7.8-.1.1-.2.1-.4.2.1-.3.1-.7.1-1 2.6-3 5.4-5.8 8.4-8.3zM79 228.4c.1-.2.3-.4.5-.6v1.1c0 .5-.8.6-.9.1v-.1c.1-.2.2-.3.4-.5z"/><path class="st4" d="M79.3 226.4c.1.5.1 1 .1 1.5-.2.2-.3.4-.5.6 0-.5-.1-1-.1-1.5l.5-.6z"/><path class="st4" d="M79.3 226.4l-.5.6c-.2-2.4-.3-4.8-.4-7.2l.3-.3c.2 1.3.3 2.7.3 4 .1.9.3 1.9.3 2.9z"/><path class="st4" d="M78.8 226.9c0 .5.1 1 .1 1.5-.2.1-.3.3-.4.5-.1-.5-.2-.9-.2-1.4l.5-.6z"/><path class="st4" d="M78.8 226.9l-.5.6c-.1-1.3-.2-2.7-.2-4-.1-1.2-.1-2.3 0-3.5l.4-.2c0 2.4.2 4.7.3 7.1zM78.5 219.7l-.4.2c0-.4.1-.8.2-1.2v-.1h.1c.1-.1.2-.1.3 0v.1c.1.2.1.5.1.7-.2.2-.2.3-.3.3zM78.9 206.8H77c-.7-.4-1.5-.7-2.3-1h2.7c.6.3 1.1.7 1.5 1zM78.3 227.5c0 .5.1 1 .2 1.4-2.6 3.3-5 6.7-7.6 10.2 0-.2-.1-.4-.1-.6 0-.2 0-.4-.1-.7 2.3-3.6 4.8-7.1 7.6-10.3z"/><path class="st4" d="M78.3 218.6v.1c-.1.4-.1.8-.2 1.2-1.5.9-3.2 1.3-4.9 1.2-1.7-.1-3.3-.8-4.7-1.9v-.7c0-.5-.8-.6-.8-.1v.1c-1.5-1.7-2.2-3.9-1.8-6.1.4-2.7 2.3-4.9 4.9-5.8l2.4.1c-7.1.3-9.2 10.1-1.8 13.1 2.3.7 4.9.3 6.9-1.2z"/><path class="st21" d="M78.1 223.5c0 1.3.1 2.7.2 4-2.8 3.2-5.3 6.7-7.6 10.3-.7-5.5-1.7-10.9-2.3-16.4 0-.1-.1-.1-.1-.1 0-.7.1-1.3.1-2 2.7 2.3 6.6 2.5 9.6.7 0 1.1 0 2.3.1 3.5z"/><path class="st4" d="M74.7 205.8c-.9 0-1.9 0-2.8-.1-.1 0-.3-.1-.4-.2-.2-.1-.2-.4-.1-.6l.2-.2h.1c1.1 0 2.3.1 3.4.1.8.2 1.6.6 2.3 1h-2.7zM77.1 206.9h-2.2c-1-.2-2-.6-2.9-1 .9.1 1.8.1 2.8.1.7.2 1.5.5 2.3.9z"/><path class="st4" d="M74.8 206.8h-.5c0-.1 0-.1-.1-.2-1.2-.4-2.4-.4-3.6 0l-2.5-.2c-2.8-.3-8.9-.4-13.2-2 0-.1-.1-.2-.2-.2h-.2l-.4-.1c-.7-.8-1.4-1.6-2-2.3 4.2 3 13 3.6 17 4 .9.1 1.8.2 2.7.2 1.1.3 2.1.6 3 .8z"/><path class="st4" d="M74.4 206.8h-.2c-.4 0-.8-.1-1.1-.1l-2.4-.1c1.2-.4 2.4-.4 3.6 0 0 .1 0 .1.1.2zM71.8 204.8c1.1-.3 2.3-.3 3.4.1-1.2 0-2.3-.1-3.4-.1z"/><path class="st4" d="M71.9 205.7c-.9 0-1.8-.1-2.7-.2-4-.4-12.8-.9-17-4-.4-.5-.8-1.1-1.2-1.6 3.1 1.2 5.7 3 9.2 3.5 3.7.6 7.4 1 11.1 1.2h.5c-.2.1-.3.3-.3.5 0 .1.1.2.2.2 0 .3.1.4.2.4zM71.3 171.4c-.1-.1-.1-.3-.2-.4.2-.1.4 0 .5.2v.3c0 .2-.1.4-.1.7 0-.3-.1-.6-.2-.8z"/><path class="st4" d="M71.6 172.2c0 .3-.1.7-.2 1-.2-.2-.3-.4-.4-.7.1-.3.2-.7.3-1 .1.1.2.4.3.7zM71.5 243.6c0 .3 0 .7-.1 1-.3 0-.6-.1-.8-.4v-.7c.3-.4.5-.7.8-1.1.1.4.1.8.1 1.2z"/><path class="st4" d="M71.5 242.4c-.3.4-.6.7-.8 1.1v-.3c0-.8-.1-1.6-.2-2.5.1 0 .1-.1.2-.1.2-.1.4-.3.5-.5.1.8.2 1.5.3 2.3zM70.6 244.2c.2.3.5.4.8.4-.1.7-.5 1.3-1.1 1.7-.3.2-.7.3-1.1.2l.2-.3c.1-.2 0-.4-.2-.5h-.3c-.3.1-.5.3-.7.5-.8-.5-1.5-1.1-2-1.9l.1-.1c.2-.4-.3-.9-.6-.6-.7-1.1-1.3-2.4-1.7-3.6.1-.3.2-.5.3-.7.1.6.4 1.2.7 1.8-.3.3 0 .9.5.9 1.7 2.5 4.8 5.4 5.1 2.2zM71.3 171.4c-.1.4-.2.7-.3 1-.1-.2-.2-.5-.3-.7.1-.1.1-.3.2-.4l.3-.3c-.1.1 0 .3.1.4z"/><path class="st4" d="M71.2 240c-.2.1-.3.3-.5.5 0 .1-.1.1-.2.1 0-.3 0-.5-.1-.8.2-.3.4-.5.6-.8 0 .4.1.7.2 1zM71 172.4c.1.3.2.5.4.7-.3 1.2-.7 2.4-1.1 3.6-.3 1.4-.7 2.8-1.3 4.2v-.1c-.1-.1-.1-.2-.2-.3.1-2.9 1.3-5.4 2.2-8.1z"/><path class="st4" d="M71 239.1c-.2.2-.4.5-.6.8v-.2c.2-.2.3-.4.4-.6 0-.1 0-.3-.2-.4-.1 0-.2-.1-.3-.1.1-.3.3-.5.4-.8 0 .2.1.4.1.7.1.2.1.4.2.6zM70.7 171.7c.1.3.2.5.3.7-.8 2.7-2.1 5.1-2.3 8.1-.2-.3-.4-.5-.6-.8-.3-2.6 1.6-5.7 2.6-8z"/><path class="st4" d="M70.3 239.1v-.4s0-.1.1-.1.2.1.3.1c.1.1.2.2.2.4-.1.2-.2.4-.4.6-.1-.2-.2-.4-.2-.6z"/><path class="st4" d="M70.8 237.8c-.2.3-.3.5-.4.8h-.1c-.7-5.6-1.8-11.1-1.9-16.8v-.5c.1 0 .1.1.1.1.6 5.5 1.6 11 2.3 16.4zM70.6 243.5v.7c-.1-.3-.1-.5 0-.7z"/><path class="st4" d="M70.6 243.1v.3c-.1.2-.1.5 0 .7-.3 3.2-3.4.3-5.1-2.5h.1c.2 0 .4-.1.7-.2.5.8 1.1 1.5 1.8 2.2 1.9 1.8 2-1 1.8-3.2.2.2.4.2.7.1v2.6z"/><path class="st4" d="M70.4 239.9c0 .3 0 .5.1.8-.2.1-.5.1-.7-.1v-.5c.2-.1.4-.2.6-.4v.2z"/><path class="st4" d="M70.3 239.1c0 .2.1.4.1.6-.2.1-.4.3-.6.4v-.4c0-.1.2-.3.3-.5 0 0 .1 0 .2-.1zM70.3 238.6l-.1.1c.1 0 .1 0 .1-.1z"/><path class="st4" d="M70.2 238.8v.4c-.1 0-.2.1-.3.1.1-.2.2-.4.3-.5z"/><path class="st22" d="M68.2 206.4l2.5.2c-2.6.8-4.5 3-4.9 5.8-.4 2.2.3 4.5 1.8 6.1-2.4 16.4-8.1 30.1-21.5 40.3-6.4 2.4-12.5.3-19.2-.4-8.1-.9-16.1-.4-24.1-2.5 3-2.9 7.2-3.8 11.1-5.2.4-.1.6-.6.5-.9 0-.1 0-.1-.1-.2.1 0 .2-.1.3-.2 3-4.6 5.5-9.4 9-13.8 3.3-4 7-7.8 11.1-11.1-.1 1.1 0 2.3.1 3.4 0 .2.2.4.4.4s.4-.2.4-.4c.8-7.3 2.9-14.4 6.1-21 0-.1.1-.1 0-.2 4.5 1.3 9.6.8 13.3-2 .1-.1.1-.2.1-.3 4.2 1.5 10.3 1.7 13.1 2z"/><path class="st4" d="M70.2 238.7c-.1.1-.2.3-.3.5-.1 0-.2.1-.3.1 0-.3-.1-.5-.1-.7.2-.1.4-.1.6-.1.1.1.1.2.1.2z"/><path class="st4" d="M70.2 238.6c-.2 0-.4 0-.6.1v-.2c-.6-4.8-1.4-9.5-1.5-14.2v-.3c.1-.8.2-1.5.2-2.3.1 5.8 1.3 11.3 1.9 16.9zM70 239.2c-.1.2-.2.3-.3.5v-.4c.1 0 .2 0 .3-.1z"/><path class="st8" d="M69.8 240.6c.2 2.2.1 4.9-1.8 3.2-.7-.7-1.3-1.4-1.8-2.2.8-.3 1.6-.6 2.4-1 .3-.2.7-.3 1-.4 0 .1 0 .2.2.4 0-.1 0 0 0 0z"/><path class="st4" d="M69.8 240.1v.5c-.1-.1-.2-.3-.2-.4 0-.1.1-.1.2-.1zM69.8 240.1h-.1c0-.1 0-.2.1-.4-.1.2-.1.3 0 .4zM69.7 239.7c0 .1-.1.2-.1.4-.4.2-.7.3-1 .4-.8.4-1.6.7-2.4 1-.1-.2-.2-.4-.3-.5 1.4-.4 2.6-1.1 3.8-1.6v.3z"/><path class="st4" d="M69.6 238.7c0 .2 0 .5.1.7-1.2.5-2.4 1.2-3.8 1.6-.1-.2-.2-.3-.3-.5 1-.5 2.1-.9 3.1-1.4.2-.2.6-.3.9-.4z"/><path class="st21" d="M69.6 238.5v.2c-.3.1-.7.2-1 .4-1 .5-2 .9-3.1 1.4-.3-.5-.5-1-.7-1.6 0-.2-.2-.3-.3-.3 1.8-4.6 3.1-9.4 3.6-14.4 0 4.8.9 9.5 1.5 14.3z"/><path class="st4" d="M68.8 246.3c-.2 0-.4-.1-.5-.2.2-.2.5-.4.7-.5.2-.1.4 0 .5.2.1.1.1.2 0 .3l-.2.3c-.2.1-.4 0-.5-.1zM68.2 180.5c-.1-.2-.1-.5-.1-.8.2.3.4.6.6.8.1.1.1.2.2.3v.1c-.1.2-.4.2-.6 0 0-.1-.1-.1-.1-.2v-.2zM68.5 187.6c.3.1.5.4.4.7v.1c-1 2-4.8 4.3-7.1 4.2-3.3-.2-6.2-2-7.9-4.8-.1-.3 0-.6.2-.7.1-.1.3-.1.5 0 2.9 1.5 5.8 4.9 9.2 2.7 1.5-.8 2.8-2.5 4.7-2.2z"/><path class="st4" d="M68.8 246.3c.1.1.3.1.5.1-2.7 3.7-5.7 7.2-8.9 10.4-1.5 1.7-3.2 3.3-5 4.7-.4 0-.8 0-1.1.1-.4 0-.8.4-.7.8 0 .2.1.3.1.4-1 .7-2.1 1.4-3.2 1.9-.9.5-1.8-.7-1.2-1.3 0 .3.2.5.5.5.1 0 .2 0 .3-.1.6-.5 1.2-1 1.7-1.5.3 0 .6-.1.9-.3.2-.1.3-.3.2-.5 0 0 0-.1-.1-.1 3-2.2 5.7-4.7 8-7.5 2.3-2.6 4.6-5.8 7.5-7.7 0 .1.2.1.5.1zM68.2 180.8c.1.2.3.3.5.3.1 0 .1-.1.2-.1 0 .2-.2.3-.3.3-.1 0-.1 0-.2-.1-5.1-4.5-7.9-11-7.7-17.7v-4c.2-.2.3-.4.5-.6s-.1-.9-.5-.7c0-4.3.6-9.2 3.3-11.9h.4c-2.8 2.5-2.5 7.9-2.8 11.6-.8 8.9.2 16.1 6.5 22.7.1 0 .1.1.1.2zM68.1 218.9l-.4-.4v-.1c0-.5.8-.4.8.1v.7c-.2 0-.3-.2-.4-.3z"/><path class="st21" d="M68.5 219.3c0 .7 0 1.3-.1 2-.1 0-.2 0-.2.1-.1.9-.1 1.8-.1 2.6v.2c-.5 4.9-1.8 9.8-3.6 14.4-.3-.1-.7 0-.7.5 0 .3.1.5.2.8-3.1 7.9-8.7 14.5-15.9 19 .2-.2.2-.4 0-.5l-.1-.1c13-8.8 18.9-23.7 20.1-39.2.1-.1.2.1.4.2z"/><path class="st4" d="M68.3 221.8c0 .8-.1 1.5-.2 2.3 0-.9 0-1.8.1-2.6 0-.1.1-.1.2-.1 0 .1 0 .2-.1.4zM68 179.7c0 .3.1.5.1.8-6.3-6.5-7.2-13.8-6.5-22.7.3-3.6 0-9.1 2.8-11.6h.4c-3.1 4.2-2.8 12-2.6 17.2.2 5.9 2.3 11.6 5.8 16.3zM67.7 218.5l.4.4c-1.2 15.5-7 30.4-20.1 39.2-.1-.1-.2-.1-.4 0-.5.2-1 .5-1.5.7 13.5-10.2 19.2-24 21.6-40.3z"/><path class="st9" d="M66.3 244.2c.5.8 1.2 1.4 2 1.9-3 2-5.2 5.1-7.5 7.7-2.3 2.8-5 5.4-8 7.5 2.2-2.2 4.1-4.6 6.1-6.9 2.8-3 5.3-6.5 7.4-10.2z"/><path class="st4" d="M65.7 243.4c.4-.3.8.2.6.6 0 .1 0 .1-.1.1-.1-.1-.3-.4-.5-.7zM65.9 241c.1.2.2.4.3.5-.2.1-.4.1-.7.2h-.1c-.2-.3-.3-.6-.5-.9 0-.1.1-.1.2-.1l.4-.2c.2.2.3.3.4.5z"/><path class="st4" d="M51.9 261.1c-.3-.1-.6-.2-.9-.2 2.1-2.6 4.5-5 6.6-7.6 2.8-3.2 5.3-6.6 8-9.8 0 0 0-.1.1-.1.2.3.4.5.5.8-2.1 3.7-4.6 7.1-7.5 10.2-2 2.3-4 4.8-6.1 6.9l-.1-.1c-.1 0-.4-.1-.6-.1z"/><path class="st21" d="M65.7 243.4c-2.8 3.3-5.3 6.7-8.1 9.9-2.2 2.5-4.6 4.9-6.6 7.6-.7-.1-1.5-.1-2.2-.2-1.2-.1-2.3-.3-3.5-.3 1-.4 1.9-.9 2.7-1.5h.1c7.2-4.5 12.8-11.1 15.9-19 .4 1.2 1 2.4 1.7 3.5z"/><path class="st4" d="M65.6 240.5l-.4.2c-.1 0-.1.1-.2.1-.3-.5-.6-1.1-.7-1.7.1-.1.1-.3.2-.5.2 0 .3.2.3.3.2.6.5 1.1.8 1.6zM65 240.9c.1.3.3.6.5.9-.5-.1-.8-.6-.5-.9zM64.4 146.2H64l.3-.3c.2-.1.6.1.4.3h-.3z"/><path class="st4" d="M64.5 238.6c0 .2-.1.3-.2.5s-.2.5-.3.7c-.1-.2-.1-.5-.2-.8 0-.4.4-.5.7-.4zM60.7 158.8v-.5c.4-.2.8.4.5.7-.2.2-.3.4-.5.6v-.8z"/><path class="st23" d="M64.1 146.2c-2.8 2.8-3.3 7.6-3.4 12-14.2 9.8-24.2 34.9-6.9 46.2h.1c-5.9 2.1-13.1 1.2-18-3-5.6-4.8-6.2-13.7-6.7-20.5 0-.2-.1-.3-.3-.3-.2 0-.3.1-.3.3-.4 7.3.5 15.6 5.6 21.2-20-3.5-12.6-31.5-6-44.3.1-.2.1-.4-.1-.5 7.2-4.3 14.9-7.3 23.1-9.2 4.3-1 8.6-1.6 12.9-1.9z"/><path class="st4" d="M53.3 203.6c.3.1.6.3.9.4.1.1.1.2 0 .3-.1 0-.2.1-.3.1h-.1c-17.4-11.3-7.3-36.5 6.8-46.2v.5c-5.2 4.5-9.2 10.6-12.1 16.6-4.7 10.3-4.6 18.6 2.2 25.9.6 1 1.4 1.8 2.4 2.3l.2.1z"/><path class="st4" d="M60.7 158.8v.7c-5.8 6.8-11.7 14.3-13.6 23.2-1.5 6.9.2 12.2 3.9 17.3-.2-.1-.3-.1-.5-.2s-.1 0-.1.1c0 .5.2.9.4 1.4-6.8-7.2-6.9-15.5-2.2-25.9 2.9-6.1 6.9-12.1 12.1-16.6zM54.3 262.5c-.2.2-.4.3-.7.5-.3-.3-.2-.8.2-1.1.1-.1.3-.2.4-.2.4 0 .8-.1 1.1-.1-.3.3-.6.6-1 .9z"/><path class="st4" d="M35.6 202.3c-.4 0-.9-.1-1.3-.2-5.2-5.6-6.1-13.9-5.6-21.2 0-.2.1-.3.3-.3.2 0 .3.1.3.3.5 6.8 1.1 15.7 6.7 20.5 5 4.2 12 5 18 3 .1 0 .2 0 .3-.1l.4-.1c.1.1.3.1.4.2 0 .1 0 .2-.1.3-3.6 2.7-8.7 3.2-13.3 2 0-.3-.2-.5-.5-.5-.2 0-.4.1-.5.2-1.9-.6-3.6-1.6-5.1-2.9-.3-.2-.5-.5-.7-.7h1.2c.1 0 .1-.1.1-.2s-.1-.1-.1-.1l-.5-.2z"/><path class="st4" d="M55 204.3c-.1 0-.3-.1-.4-.2h.1c.1 0 .2.1.3.2zM52.2 201.6c.6.8 1.3 1.6 2 2.3v.1c-.3-.2-.6-.3-.9-.4l-.1-.1c-.8-.7-1.6-1.5-2.4-2.3-.2-.4-.4-.9-.4-1.4l.1-.1s.3.1.5.2c.4.6.8 1.2 1.2 1.7zM53.9 204.4c.1 0 .2-.1.3-.1-.1.1-.2.2-.3.1zM52.6 261.4c.2.2.2.4 0 .6l-.1.1-.9.3c.2-.2.5-.4.7-.6l.2-.2c0-.1.1-.2.1-.2z"/><path class="st4" d="M52.6 261.4l-.1.1c-.1.1-.2.1-.3.2h-.9c.2-.2.3-.4.5-.6.3 0 .6.1.8.3z"/><path class="st4" d="M52.5 261.5c0 .1-.1.1-.2.2h-.1c.1-.1.2-.1.3-.2z"/><path class="st4" d="M52.4 261.7c-.2.2-.4.4-.7.6-.2 0-.4.1-.5 0 .4-.2.8-.5 1.1-.7h.1z"/><path class="st4" d="M52.2 261.7c-.3.2-.7.5-1.1.7h-.5l.7-.8c.4.1.6.1.9.1z"/><path class="st4" d="M51.9 261.1c-.2.2-.4.4-.5.6h-.9c.2-.2.4-.5.5-.7.3-.1.6 0 .9.1z"/><path class="st4" d="M51.3 261.6l-.7.8h-.8c.2-.3.3-.5.5-.8h1zM50.3 262.9c.3-.2.6-.3.9-.5h.5c-.5.5-1.1 1-1.7 1.5-.2.2-.5.2-.7 0-.1-.1-.1-.2-.1-.3.1-.1.2-.2.3-.2.3-.2.5-.4.8-.5z"/><path class="st4" d="M50.7 262.4h.5c-.3.2-.6.3-.9.5.1-.2.2-.3.4-.5zM50.5 261.6c-.2.3-.4.5-.5.8-.6 0-1.1-.1-1.7-.2-1.3-.2-2.7-.4-4-.7-.2 0-.4-.3-.4-.5.5-.1 1-.3 1.5-.5 1.2 0 2.3.2 3.5.3.7.1 1.5.1 2.2.2-.3.1-.5.4-.6.6zM50.8 201.2c.8.8 1.6 1.6 2.4 2.3-1-.5-1.8-1.3-2.4-2.3z"/><path class="st4" d="M50.7 262.4c-.2.1-.3.3-.4.5-.3.1-.5.3-.8.4-.1 0-.2.1-.3.2 0-.1 0-.2.1-.2.2-.3.4-.6.7-1 .2.1.4.1.7.1zM46 259.7c-.2-.2-.2-.5 0-.7h.1l1.5-.6c.1-.1.2-.1.4 0s.3.3.2.5c0 0 0 .1-.1.1-.5.3-1.1.6-1.6.9-.2 0-.4-.1-.5-.2z"/><path class="st4" d="M1.8 255.6c-.1 0-.2-.1-.4-.1 0 .1.1.3.1.4-.1.1-.2.3-.3.5l.5.1c0 .1.1.3.1.5l.3-.3c8.1 2.6 16.4 2 24.8 2.6 6.6.5 12.7 3.5 19 .3.2.1.4.1.6 0 .6-.3 1.1-.6 1.6-.9-.8.6-1.8 1.1-2.7 1.5h-.9c-.3 0-.6.3-.6.6-5.4 1.7-10.7-.4-16.9-.8-8.8-.6-17.4-.3-25.9-2.9-.5-.1-.8-.6-.7-1.1 0-.1.1-.3.2-.4 3.1-3.9 8.3-5.5 13-6.5h.3c0 .2.2.4.4.3.2.3.1.8-.2 1-.1 0-.1.1-.2.1-3.9 1.4-8.2 2.4-11.2 5.3l-.9-.2z"/><path class="st4" d="M46.1 258.9c-.3.2-.3.5-.2.7-6.3 3.1-12.4.2-19-.3-8.4-.6-16.6-.1-24.7-2.6.2-.3.4-.5.7-.7 7.9 2.1 15.9 1.6 24.1 2.5 6.6.7 12.7 2.8 19.1.4z"/><path class="st4" d="M44.4 260.3h.9c-.5.2-1 .4-1.5.5 0-.2.3-.5.6-.5zM40.7 206.3c.1-.2.4-.3.7-.2.2.1.2.3.2.5l-.9-.3z"/><path class="st4" d="M35.3 223.8l.2-.1c.2-.2.2-.5 0-.7l-.1-.1c-.2-.2-.4-.2-.6-.1h-.1c.5-6 2.6-11.7 6-16.6l.9.3v.2c-3.3 6.6-5.4 13.7-6.2 21 0 .2-.2.4-.4.4s-.4-.2-.4-.4c-.1-1.1-.1-2.3-.1-3.4l.8-.5zM35.9 202.5c-.1-.1-.2-.2-.3-.2.2 0 .4.1.5.1.1 0 .1.1.1.2s-.1.1-.1.1c-.1 0-.1-.1-.2-.2z"/><path class="st4" d="M36.1 202.7h-1.2l-.3-.2c.4 0 .8.1 1.2.1.1 0 .2.1.3.1zM35.9 202.5c-.4 0-.8 0-1.2-.1-.1-.1-.2-.2-.3-.4.4.1.9.1 1.3.1 0 .3.1.4.2.4zM35.4 222.9c.2.2.3.5.1.7 0 0 0 .1-.1.1l-.2.1c.1-.3.2-.6.2-.9z"/><path class="st4" d="M34.6 223.6v-.7h.1c.2-.1.5-.1.6.1 0 .3-.1.6-.1.9l-.7.6c.1-.3.1-.6.1-.9zM34.6 202.5l.2.2c-10.4.3-14.6-7.4-15.2-16.8.2-.2.3-.6.1-.8l-.1-.1c-.4-9.7 2.9-21 7.2-27l.6-.3.8-.4c.1.1.2.4.1.5-6.6 12.8-14 40.8 6 44.4l.3.3z"/><path class="st4" d="M34.6 223.6c0 .3-.1.6 0 .8-4 3.3-7.7 7.1-11 11.1-3.4 4.4-5.9 9.2-8.9 13.8-.1.1-.2.2-.3.2-.1-.2-.2-.3-.4-.3v-.2c1.1-5.5 4.9-10.5 8.5-14.7s7.5-8.7 12.4-11.4c-.2.2-.3.5-.3.7zM28.2 157.2l-.8.4-.6.3c.2-.3.4-.6.6-.8.1-.2.4-.2.6-.1l.2.2zM19.6 185c.3.2.3.5.1.8l-.1.1v-.9z"/><path class="st20" d="M26.8 158c-4.3 6.1-7.6 17.3-7.2 27-2.9-2-6.5-3.1-9.7-4.5-2-.9-3.9-2-5.6-3.5-4-3.6 4.4-8.6 6.5-10 5.1-3.3 10.7-5.9 16-9z"/><path class="st4" d="M14.3 249.6c-.2 0-.4-.1-.4-.3.2 0 .3.1.4.3zM5.7 168.8c1.1-.9 2.2-1.8 3.4-2.6-1.7 1.5-3.3 3.1-4.9 4.7-.1.1-.4.1-.5 0l-.1-.1c.2-.2.3-.4.5-.5.5-.5 1-1 1.6-1.5zM1.8 255.6l1 .3-.7.7c-.1 0-.3-.1-.4-.1 0-.2-.1-.4-.2-.6l.3-.3z"/><path class="st4" d="M2.1 256.7l-.3.3c0-.1-.1-.3-.1-.5.1.1.3.2.4.2zM1.4 255.5c.1 0 .2.1.4.1l-.3.3c0-.1 0-.3-.1-.4z"/><path class="st4" d="M1.5 255.9c.1.2.1.4.2.6l-.5-.1c.1-.2.2-.3.3-.5z"/><path class="st15" d="M72.1 213.5c-2.2-1.5-1.5-2.6 1.1-3.3.7 1.8-.4 2.2-1.8 3.3"/><path class="st16" d="M72.1 213.5c-2.2-1.5-1.5-2.6 1.1-3.3.7 1.8-.4 2.2-1.8 3.3"/><path class="st15" d="M72.5 213.1c-.2-.2-1.1-1-.8-1.3.5-.4 1.1-.7 1.7-.8l-.9-.5c.6 1.6-.9 1.7-1.4 2.9-.1.2 0 .6.3.6 1.6-.1 2.8-1.5 2.7-3.1 0-.3-.1-.5-.2-.8-.1-.4-.5-.6-.9-.5-1.2.3-2.6.8-3 2.1s.9 2.2 1.9 2.5c.6.1.9-.7.6-1.1zM39.7 171.3c3.9 2 5-5.3 3.2-7.7-3 1.3-4.5 5.3-3.2 7.2"/><path class="st16" d="M39.7 171.3c3.9 2 5-5.3 3.2-7.7-3 1.3-4.5 5.3-3.2 7.2"/><path class="st15" d="M39.6 171.4c1 2.1 3.5-.2 4.1-1.4 1-2.1.9-4.7-.3-6.7-.2-.2-.5-.3-.7-.2-1.7.8-2.9 2.1-3.6 3.8-.5 1.2-.9 3.4.6 4 .1.1.2 0 .3-.1v-.1c-.1-1.1 0-2.1.1-3.2.5-1.6 1.6-2.9 3.1-3.6l-.7-.2c.9 1.5 1.1 3.3.6 5-.1.8-.5 1.5-1.2 2.1-.7.5-1.4.1-2.1.3-.3.1-.3.2-.2.3zM31.6 172.2c-3.6-1.3-4-9.9.9-10.3 4.5-.9 2.7 7.6.9 9.9"/><path class="st16" d="M31.6 172.2c-3.6-1.3-4-9.9.9-10.3 4.5-.9 2.7 7.6.9 9.9"/><path class="st15" d="M31.7 172.1c-1.2-1.5-2.1-2.5-2.3-4.6s.6-4.5 2.8-5.1c4.8-1.2 1.6 7.3.9 9.1-.1.2 0 .4.1.5.1.1.3.1.4-.1 1.8-1.5 2.2-4.9 2.2-7.1 0-2.4-1.3-3.8-3.7-3.5-2.6.4-3.7 3-3.8 5.3-.1 1.8.8 5.8 3.3 5.7.1 0 .2-.1.2-.2 0 .1 0 0-.1 0z"/></g><ellipse class="st15" cx="106.2" cy="48" rx="105.8" ry="48"/><path class="st15" d="M161.4 75.5l31.2 42.1-56.9-31.3"/><path d="M22.8 64.8l-1.3-1v-1.3c1.7-1.1 3.5-2.4 5.2-3.9 1.7-1.5 3-3.3 3.9-5.2L31.9 40l1.6-.3c.6.9.9 1.9.8 3.1-.1 1.2-.2 2.3-.2 3.4 0 2.8-.3 5.5-1 7.9-.6 2.4-2.1 4.6-4.2 6.5l-6.1 4.2zm10.4-31.4c-.6-.4-1-1-1-1.8v-2.1l1-1.3h1.3c.6.7.9 1.4.8 2.1-.1.8-.2 1.6-.2 2.4l-1.9.7zM52.5 59.6c-1.3-.2-2.6-.6-3.8-1-1.2-.4-2.2-1.2-3.1-2.3-.6-.6-1-1.5-1-2.4v-3.1l4.9-8.8c.6-.6 1.4-1 2.3-1.1.9-.1 1.9-.2 3-.2 1.5 1.9 2.9 4.1 3.9 6.4 1.1 2.3 1.4 4.8 1 7.6-.2.6-.6 1.4-1 2.1-.4.8-1 1.4-1.6 1.8-.6.4-1.4.7-2.1.8-.8.1-1.7.2-2.5.2zm2.6-3.3c1.1-.6 1.6-1.6 1.6-2.9v-3.6l-2.3-4.9h-1.3l-2.6.6c-.9 1.3-1.6 2.6-2.3 3.9-.6 1.3-.9 2.9-.7 4.6.9 1.1 2 1.8 3.3 2.1 1.3.3 2.6.5 3.9.5l.4-.3zM72.6 61.3l-.7-2.6c.9-1.7 1.4-3.7 1.5-5.7.1-2.1.2-4.2.2-6.3l-.3-1 1-1.3h1.3c.6.9 1 1.9 1 3.1v3.7c0 1.7-.2 3.4-.5 5.1-.3 1.6-.9 3.2-1.8 4.8l-1.7.2zm1.9-21.2l-2.3-2v-2.6l1.3-1.9h1.9l1.6 4.9-2.5 1.6zM88.9 60.3l-1-2.6c.7-1.9 1-4 1-6v-6.4l-.4-1 1-1.3h1.3c.4.6.7 1.4.8 2.3.1.9.2 1.7.2 2.6h.7l1.3-1.3h2.9c.9.2 1.7.5 2.5 1 .8.4 1.5 1.1 2.1 1.9l2.3 6.2 2.3.7.4 1.6-2.3 1c-.9-.2-1.6-.5-2.3-.8-.6-.3-1.1-.9-1.3-1.8l-.6-3.3c-.2-1.1-.9-2.1-2-2.9l-3.2-.7c-1.1 1.5-1.9 3.2-2.5 5.1L90.6 60l-1.7.3zM138.9 60.2l-3.3-2c-.6-1.1-1.1-2.2-1.3-3.6-.2-1.3-.3-2.7-.3-4.2l1.6-6.2 1.6-.4.7 2.6-1 7.6 1.6 2.9 1 .3 3.6-2.9c1.1-.9 1.7-2 1.9-3.4.2-1.4.7-2.7 1.3-3.8l2.3-.3.6 2.3-1.6 5.2c.2.6.6 1.2 1.3 1.8.6.5.9 1.2.7 2.1l-1.9.7-2.6-2.3c-.9 1.1-1.8 1.9-2.8 2.6-.9.7-2.1 1-3.4 1zM163.5 58.9c-.6-.2-1.3-.6-1.9-1.3-.6-.6-1.1-1.3-1.3-2V54l1.9-.7 1.3 1.9 1 .3v-1.9l-7.2-5.2-1.3-4.6 2.3-4.6c.9-.9 1.9-1.4 3.1-1.8 1.2-.3 2.5-.4 3.8-.2l3.6 2.3c.6 1.1 1.5 2.1 2.6 3.1s1.6 2.2 1.6 3.7l-1.9.7-6.2-6.8h-2.6c-.9.2-1.5.7-1.9 1.4-.4.8-.9 1.5-1.3 2.1v1.6c1.1 1.5 2.5 2.8 4.1 3.8 1.6 1 3.1 2.2 4.4 3.8v3.2L166 58l-2.5.9zM185.4 59.9l-2.6-1.3-1-2.6c.2-.9.6-1.8 1-2.6.4-.9 1.1-1.6 2-2.3l2.3-.6 2.3 1.9.3 3.9-1.6 2.6-2.7 1zm-.7-18c-1.1-1.7-1.6-3.7-1.5-5.9.1-2.2.2-4.2.2-6.2l1.3-2.9 1.6-.4.6 2c-.6 1.7-.9 3.5-.8 5.4.1 1.9.2 3.8.2 5.7l.3 1.6-1.9.7z"/></g></svg>