<svg xmlns="http://www.w3.org/2000/svg" viewBox="0 0 266 232.53"><defs><style>.cls-1{fill:#1d3033;stroke:#1d3033;stroke-linecap:round;stroke-linejoin:round;stroke-width:.66px}.cls-2{fill:#818e30}.cls-3{fill:#74b65f}.cls-5{fill:#fff}.cls-6{fill:#dadada}.cls-7{fill:#2e5731}.cls-8{fill:#f7e5d7}.cls-9{fill:#e98d4b}.cls-11{fill:#ec7b7b}.cls-12{fill:#f9cfb3}.cls-13{fill:none}.cls-14{fill:#ec9d1b}</style></defs><g id="レイヤー_2" data-name="レイヤー 2"><g id="レイヤー_1-2" data-name="レイヤー 1"><g id="レイヤー_3" data-name="レイヤー 3"><path class="cls-1" d="M135.15 144.44v-.23a1.3 1.3 0 0 0-.23.18 4.2 4.2 0 0 0-1-.18v.92c-.13.08-.23.18-.36.26a1.53 1.53 0 0 1 .36.07 68.75 68.75 0 0 1-.54 8.36 5.52 5.52 0 0 0-.93-1 58.52 58.52 0 0 0 .21-8.58 1.21 1.21 0 0 1 1.19-1.23c3.23.41 6.92 2.33 7.79 5.79.85 3.23-1.2 5.82-4.46 6.28a.43.43 0 0 1-.33-.79c2-1.49 3.84-3.44 2-5.87a7.37 7.37 0 0 0-3.82-2.64c.1-.47.1-.91.12-1.34zM125.74 105c7.85-1.33 13.77 4.23 13.44 12.12-.26 6.59-7.39 12.44-13.87 13.33a.87.87 0 0 0-.21-.74 13.74 13.74 0 0 0 3.31-1l.41.23a.33.33 0 0 0 .46-.14.36.36 0 0 0 0-.32.57.57 0 0 0-.08-.13 20.68 20.68 0 0 0 3.36-2 1.62 1.62 0 0 0 .49-.08.23.23 0 0 0 .18-.23v-.21a14.13 14.13 0 0 0 4.28-5.12c3.41-8-2.46-17-11.56-15 3.23 6-6.61 10.79-8.51 15.71-1.23 3.1 1.69 7.08 5 8.31a1.61 1.61 0 0 0 0 .31l-.38.44a9.43 9.43 0 0 1-4.31-2.93c.08-.15.16-.28.23-.43a.43.43 0 1 0-.74-.44.19.19 0 0 0 0 .1 5.57 5.57 0 0 1-.92-4.56c1.53-5.82 11.71-9.74 8.92-16.33a.79.79 0 0 1 .5-.89z"/><path class="cls-1" d="M126 105.76c9.1-2.08 15 7 11.56 15a14.09 14.09 0 0 1-4.33 5.06 1.47 1.47 0 0 0-.21-.71 13.39 13.39 0 0 0 2.82-3 .71.71 0 0 0 .71-.69.67.67 0 0 0-.07-.31 9.67 9.67 0 0 0 1.29-5.31c-.21-3.41-1.7-7.2-5-8.69-.28-.13-5.82-1.67-5.61-.67a9.46 9.46 0 0 1 .23 1.18c0 3.13-1.87 5.54-4 7.74-1.61 1.7-3.84 3.46-4.82 5.64-1.77 4 1.69 6.67 4.82 7.92a1.31 1.31 0 0 1-.28 0 .7.7 0 0 0-.72.68c-3.28-1.23-6.2-5.21-5-8.31 1.95-4.74 11.79-9.47 8.61-15.53z"/><path class="cls-2" d="M137.77 115.91a9.67 9.67 0 0 1-1.29 5.31 1.13 1.13 0 0 0-.12-.21 7.38 7.38 0 0 0-1.16-1 13.19 13.19 0 0 0-1.38-1.2.53.53 0 0 0-.8.58c.21 1.08 1.57 2 2.36 2.64a.73.73 0 0 0 .46.21 13.39 13.39 0 0 1-2.82 3l-.05-.11c-.2-.41-1.23-1-1.2-1.48a1.26 1.26 0 1 0-1.59 1.17c.46.15.84.9 1.28 1.15l.28.16a16.39 16.39 0 0 1-2.92 1.56c-.23-.41-.46-.82-.69-1.26a.75.75 0 0 0-1.28.77 3.4 3.4 0 0 0 .76 1 14.72 14.72 0 0 1-4.2.89c-3.13-1.25-6.59-4-4.82-7.92 1-2.18 3.21-3.94 4.82-5.64 2.08-2.2 4-4.61 4-7.74a9.46 9.46 0 0 0-.23-1.18c-.21-1 5.33.54 5.61.67 3.28 1.43 4.77 5.22 4.98 8.63z"/><path class="cls-1" d="M136.48 121.22a.69.69 0 0 1-.33.93.67.67 0 0 1-.31.07c.23-.34.44-.67.64-1z"/><path class="cls-1" d="M136.36 121a1.13 1.13 0 0 1 .12.21c-.2.33-.41.66-.64 1a.73.73 0 0 1-.46-.21c-.79-.66-2.15-1.56-2.36-2.64a.54.54 0 0 1 .38-.65.52.52 0 0 1 .42.07 13.19 13.19 0 0 1 1.38 1.2 7.5 7.5 0 0 1 1.16 1.02zM135.15 144.21v.23h-.23a1.25 1.25 0 0 1 .23-.23z"/><path class="cls-1" d="M135.15 144.44a11.56 11.56 0 0 1-.05 1.31 6.46 6.46 0 0 0-1.15-.29v-.33a12.3 12.3 0 0 1 1-.74.65.65 0 0 1 .2.05zM133.13 225a20.69 20.69 0 0 0 .79-3v-.1a5.75 5.75 0 0 0 .41-.87l.25-.08c-.05 0-.13-.12-.18-.18a.66.66 0 0 0 0-.28.52.52 0 0 0-.28 0l-.18-.18a1.71 1.71 0 0 1-.07.26 8.29 8.29 0 0 0-1.36.44.41.41 0 0 0-.18 0 55.39 55.39 0 0 0-5.61 2.07.54.54 0 0 1 0-.18c2.56-.94 4.87-2.35 7.54-3a.48.48 0 0 1 .59.34.53.53 0 0 1 0 .25c-.36 1.41-1.85 3-1.29 4.51.13.34-.3.49-.53.31a.27.27 0 0 1-.13-.13.43.43 0 0 0 .23-.18z"/><path class="cls-1" d="M134.92 144.39c-.33.23-.64.48-1 .74v-.92a4.2 4.2 0 0 1 1 .18zM134.61 221l-.25.08a.35.35 0 0 1 .07-.26c.07-.08.13.18.18.18z"/><path class="cls-1" d="M134.48 220.54a.66.66 0 0 1 0 .28l-.23-.23s.13-.02.23-.05zM134.2 220.59l.23.23a1.71 1.71 0 0 1-.07.26 5.66 5.66 0 0 0-.59.15h-.05c.07-.18.15-.36.2-.51zM134 145.46a6.46 6.46 0 0 1 1.15.29 49.5 49.5 0 0 1-1 9.79 4.66 4.66 0 0 0-.66-1.69 69.21 69.21 0 0 0 .51-8.39z"/><path class="cls-1" d="M133.77 221.23a5.66 5.66 0 0 1 .59-.15 5.75 5.75 0 0 1-.41.87.88.88 0 0 0-.18-.72zM134.2 220.59l-.25.08a1 1 0 0 1 .07-.26zM134.1 155.64A4.9 4.9 0 0 1 133 160a5.31 5.31 0 0 1-2.28 1.3 1.14 1.14 0 0 0 .3-.74 3.68 3.68 0 0 0 2.54-3.18c.18-.59.36-1.21.51-1.82a.22.22 0 0 1 .03.08z"/><path class="cls-1" d="M134.07 155.54c-.15.61-.33 1.23-.51 1.82a4.57 4.57 0 0 0-.31-2.31c.06-.39.11-.77.16-1.18a4.64 4.64 0 0 1 .66 1.67zM133.77 221.23a.88.88 0 0 1 .18.72v.1c-.61 1.08-1.33 2.18-.79 3a1.18 1.18 0 0 1-.13.33 1.16 1.16 0 0 1-.36-.46 14.85 14.85 0 0 0 .46-2.28l.31-.07c-.08-.08-.18-.13-.26-.21v-.08l.54-1a.05.05 0 0 1 .05-.05zM134 145.13v.33a1.53 1.53 0 0 0-.36-.07 1.11 1.11 0 0 1 .36-.26zM133.92 220.67a1.85 1.85 0 0 1-.2.51.92.92 0 0 0-.72-.18 1.91 1.91 0 0 0-.41.11 8.29 8.29 0 0 1 1.33-.44z"/><path class="cls-1" d="M133.77 221.23h-.08s.08-.02.08 0zM133.72 221.18c-2.44.74-4.64 2-7.08 2.79a4 4 0 0 1 .08-.46c1.95-.61 3.74-1.71 5.69-2.43a.41.41 0 0 1 .18 0 1.91 1.91 0 0 1 .41-.08.9.9 0 0 1 .72.18zM133 157c.1-.61.18-1.25.25-1.92a4.57 4.57 0 0 1 .31 2.31v.07a.59.59 0 0 1-.67.39 3.05 3.05 0 0 0 .11-.85z"/><path class="cls-1" d="M133.54 157.43v-.07a3.68 3.68 0 0 1-2.54 3.18 1 1 0 0 0-.05-.39s0-.13-.07-.18a2.86 2.86 0 0 0 .71-.38 3.26 3.26 0 0 0 1.28-1.77.59.59 0 0 0 .67-.39z"/><path class="cls-3" d="M133.69 221.26c-.18.31-.36.64-.54 1v-.48a2.35 2.35 0 0 0-.64.13l-.15-.13v.15c-2 .46-3.8 1.85-5.82 2.33v-.18c2.51-.8 4.71-2.08 7.15-2.82z"/><path class="cls-1" d="M133.41 153.82a7.62 7.62 0 0 1-.16 1.18 4.64 4.64 0 0 0-.82-1.39v-.85a5.49 5.49 0 0 1 .98 1.06zM133.41 222.52l-.31.07a2.74 2.74 0 0 0 .05-.28c.08.08.18.13.26.21zM133.92 222.05a20.69 20.69 0 0 1-.79 3c-.54-.82.18-1.92.79-3z"/><path class="cls-1" d="M133.25 155c-.07.67-.15 1.31-.25 1.92v-.07a3.9 3.9 0 0 0-.62-2.13 8.55 8.55 0 0 1 .05-1.13 4.53 4.53 0 0 1 .82 1.41zM133.23 125.82v.18a.23.23 0 0 1-.18.23 1.62 1.62 0 0 1-.49.08 4 4 0 0 0 .44-.31 1.51 1.51 0 0 0 .23-.18z"/><path class="cls-1" d="M133.23 125.82a1.51 1.51 0 0 1-.26.18l-.54-.43a3.23 3.23 0 0 0 .59-.46 1.47 1.47 0 0 1 .21.71z"/><path class="cls-3" d="M133.2 221.75v.53l-.57-.4a2.24 2.24 0 0 1 .57-.13z"/><path class="cls-1" d="M133.13 222.28v-.05.05zM133.15 222.31a2.74 2.74 0 0 1-.05.28h-.1c.07-.12.12-.25.18-.36z"/><path class="cls-3" d="M133.13 222.28c-.06.11-.11.24-.18.36l-.62.18a3.78 3.78 0 0 1 .08-.92.38.38 0 0 1 .15 0z"/><path class="cls-1" d="M133.1 222.59a14.85 14.85 0 0 1-.46 2.28 2.55 2.55 0 0 1 .31-2.23zM132.43 125.6a6.26 6.26 0 0 1-.66.49l-.28-.16c-.44-.25-.82-1-1.28-1.15a1.26 1.26 0 1 1 1.59-1.23c0 .48 1 1.07 1.2 1.48 0 .06.05.08.05.11a3.43 3.43 0 0 1-.62.46zM133 156.9v.1a3.07 3.07 0 0 1-.13.85.57.57 0 0 1-.49-.54v-2.51a3.9 3.9 0 0 1 .62 2.1z"/><path class="cls-1" d="M132.43 125.6l.54.43a4 4 0 0 1-.41.31 1.6 1.6 0 0 1-.79-.25 6.26 6.26 0 0 0 .66-.49z"/><path class="cls-3" d="M132.64 224.9a1.16 1.16 0 0 0 .36.46c-1.21 3.26-3.39 5.61-7.56 6-4.46.41-11.26 1.44-15.41-1h.18l.87-.08c3.21 1.13 9.23.57 12 .57 5.2-.03 8.3-1.8 9.56-5.95z"/><path class="cls-3" d="M132.64 224.87c-1.26 4.15-4.36 5.95-9.61 5.95-2.72 0-8.74.56-12-.57l1.51-.15c3 .72 6.72.15 9.62.1 5.35-.13 9.46-2 10.12-7.41l.62-.18a2.55 2.55 0 0 0-.26 2.26zM132.41 221.75l.15.13h-.15z"/><path class="cls-1" d="M132.48 152.82v.85a5 5 0 0 0-4.38-1.67c-7.15.52-5 8.9.26 8.74a.39.39 0 0 0 .12.44 2.9 2.9 0 0 0 2.29.15 1.3 1.3 0 0 1-1.62.29c-.77-.46-1.77-.18-2.69-.52a6.49 6.49 0 0 1-2-1.17c-2.49-2.39-2.23-6.54 1-8a6.68 6.68 0 0 1 7.02.89z"/><path class="cls-1" d="M132.38 157.28a.57.57 0 0 0 .49.54 3.23 3.23 0 0 1-1.26 1.77 2.86 2.86 0 0 1-.71.38 1.26 1.26 0 0 0-2.36.18c-.1.56-2.66-.87-2.87-1.07a4.63 4.63 0 0 1-1.33-2.52c-.57-2.71 2.28-3.89 4.48-3.94a4 4 0 0 1 3.56 2.2c-.02.79-.05 1.61 0 2.46z"/><path class="cls-1" d="M132.43 153.64c0 .39-.05.74-.05 1.13a4 4 0 0 0-3.59-2.15c-2.2 0-5 1.23-4.48 3.94a4.63 4.63 0 0 0 1.33 2.52c.21.2 2.77 1.63 2.87 1.07a1.26 1.26 0 0 1 2.36-.18 20.76 20.76 0 0 0-2.44.62c-.05 0-.07.07-.12.12-5.26.16-7.41-8.22-.26-8.74a5 5 0 0 1 4.38 1.67z"/><path class="cls-3" d="M132.41 221.9a3.39 3.39 0 0 1-.08.92c-2.18.72-4.1 2-6.41 2.44a.89.89 0 0 1-1-1.08 23.89 23.89 0 0 1 1-4v-.08c.49-.64 1-1.23 1.51-1.82a25.35 25.35 0 0 0-1.56 4.82.59.59 0 0 0-.05.23.11.11 0 0 0 0 .08.11.11 0 0 0 0 .08l-.3.07c.07 0 .15.13.23.18a.28.28 0 0 0 0 .18 2 2 0 0 0-.08.43 2.63 2.63 0 0 0 .69-.13c.06.06.13.08.18.13s0-.1 0-.15c2.07-.45 3.82-1.84 5.87-2.3z"/><path class="cls-1" d="M131.77 126.09a1.6 1.6 0 0 0 .79.25 20.68 20.68 0 0 1-3.36 2 6.17 6.17 0 0 0-.38-.72 16.39 16.39 0 0 0 2.92-1.56zM131 160.54a6.36 6.36 0 0 1-2.41.31l1.13-.39a6.37 6.37 0 0 1-1.43.23c.05 0 .07-.1.12-.12a20.76 20.76 0 0 1 2.44-.62s0 .13.07.18a1 1 0 0 1 .08.41z"/><path class="cls-1" d="M131 160.56a1.14 1.14 0 0 1-.3.74 2.9 2.9 0 0 1-2.29-.15.39.39 0 0 1-.12-.44 6.37 6.37 0 0 0 1.43-.23l-1.13.39a6.36 6.36 0 0 0 2.41-.31z"/><path d="M132.33 222.82c-.66 5.44-4.77 7.28-10.12 7.41-2.9.05-6.57.62-9.62-.1 2.26-.21 4.64-.59 6.39-2 2.74-2.17 4.74-5.15 6.94-7.94a23.89 23.89 0 0 0-1 4 .88.88 0 0 0 .64 1.07 1.09 1.09 0 0 0 .36 0c2.31-.44 4.23-1.72 6.41-2.44z" fill="#77be61"/><path class="cls-1" d="M129.77 214.67c.36 3.08-2 5.56-3 8.38a17.74 17.74 0 0 1 .72-2.59c1-1.92 2.28-3.84 2-5.77a10.28 10.28 0 0 0-1.48.75l-.26.15c-3.46 2.13-6.38 5.95-8.36 9.38a3.35 3.35 0 0 0-.25-.69 23.73 23.73 0 0 1 4.2-5.51 38.1 38.1 0 0 1 6-4.26.24.24 0 0 1 .43.16z"/><path class="cls-1" d="M129.56 214.67c.26 1.93-1 3.85-2 5.77.28-.79.59-1.59.89-2.38a4.21 4.21 0 0 0 .34-.75 1.69 1.69 0 0 0 .13-.31.67.67 0 0 0 0-.2 3.76 3.76 0 0 0 .2-.46.57.57 0 0 0 0-.54.17.17 0 0 0-.1-.1H129a.83.83 0 0 0-.87-.2 11 11 0 0 1 1.43-.83zM128.85 128.55l.35-.15a.57.57 0 0 1 .08.13.33.33 0 0 1-.14.46.36.36 0 0 1-.32 0l-.41-.23a2 2 0 0 1 .44-.21zM128.82 127.65a6.17 6.17 0 0 1 .38.72l-.35.15c-.21-.2-.39-.38-.59-.61a5.69 5.69 0 0 0 .56-.26z"/><path class="cls-1" d="M129.13 215.82a.57.57 0 0 1 0 .54 3.76 3.76 0 0 1-.2.46 2.81 2.81 0 0 0 .18-.56.61.61 0 0 0 .02-.44z"/><path class="cls-3" d="M129.13 215.82a.66.66 0 0 1 0 .44 2.81 2.81 0 0 1-.18.56.67.67 0 0 1 0 .2 1.69 1.69 0 0 0-.13.31 4.21 4.21 0 0 1-.34.75c-.25.48-.51.94-.76 1.38a19.26 19.26 0 0 0-1.77 3.69 25.35 25.35 0 0 1 1.56-4.82v-.05a18 18 0 0 1 1.46-1.56c-.21-.13-.41-.23-.64-.36 0-.08 0-.13.07-.21l-.15.16-.49-.28a1.89 1.89 0 0 1 1.21-.39h.03a.11.11 0 0 1 .1.1c.04.1.03.08.03.08z"/><path class="cls-1" d="M129 215.62a1.89 1.89 0 0 0-1.21.39l-.15-.08-.08.2v.05c-.22.12-.43.25-.64.39.3-.33.64-.67 1-1l.26-.15a.83.83 0 0 1 .82.2z"/><path class="cls-3" d="M128.31 216.34c.23.13.43.23.64.36a18 18 0 0 0-1.46 1.56c.28-.64.56-1.26.82-1.92z"/><path class="cls-1" d="M128.85 128.52c-.16 0-.29.12-.44.18a2.91 2.91 0 0 1-.8-.59l.65-.23a5.26 5.26 0 0 0 .59.64z"/><path class="cls-1" d="M128.26 127.91l-.65.23a3.4 3.4 0 0 1-.76-1 .75.75 0 0 1 1.28-.77c.23.44.46.85.69 1.26a5.85 5.85 0 0 1-.56.28z"/><path class="cls-3" d="M128.38 216.13a.26.26 0 0 1-.07.21l-.08-.05z"/><path class="cls-3" d="M128.23 216.29l.08.05c-.26.64-.54 1.28-.82 1.92v.05c-.54.59-1 1.18-1.51 1.82a24.72 24.72 0 0 1 1-2.51 9.65 9.65 0 0 1 1.25-1.33z"/><path class="cls-3" d="M127.74 216l.49.28c-.46.43-.92.87-1.33 1.33.2-.49.38-1 .59-1.44v-.05a2 2 0 0 0 .25-.12z"/><path class="cls-1" d="M127.67 219.44c.25-.44.51-.9.76-1.38-.3.79-.61 1.59-.89 2.38a13.86 13.86 0 0 0-1.26 2.77l-.25.11.1.1a1.61 1.61 0 0 1-.31 0v-.08a.59.59 0 0 1 .05-.23 18.93 18.93 0 0 1 1.8-3.67zM127.82 215.57l-1 1a8.35 8.35 0 0 0-.88.69 39.34 39.34 0 0 0-5.3 6.82 13.25 13.25 0 0 1-1.07 1.18 2.47 2.47 0 0 0-.11-.36c1.98-3.38 4.9-7.2 8.36-9.33zM127.59 215.93l.15.08c-.07.05-.15.07-.23.12zM127.61 128.14a2.91 2.91 0 0 0 .8.59 13.74 13.74 0 0 1-3.31 1 .64.64 0 0 0-.28-.18 11.76 11.76 0 0 1-1.41-.49 14.76 14.76 0 0 0 4.2-.92zM126.77 223.23a55.39 55.39 0 0 1 5.61-2.07c-1.95.72-3.74 1.82-5.69 2.43.03-.13.05-.25.08-.36z"/><path class="cls-3" d="M127.49 216.18c-.21.49-.39.95-.59 1.44-2.44 2.59-4.31 5.46-6.54 8.15a8.7 8.7 0 0 1-.67.69 4 4 0 0 0 0-.69l1-1.64c0-.05.07-.08.1-.1a82.82 82.82 0 0 1 6.08-7.41c.2-.19.41-.32.62-.44z"/><path class="cls-1" d="M127.54 220.46a17.74 17.74 0 0 0-.72 2.59 4.88 4.88 0 0 1-.54.18 13.86 13.86 0 0 1 1.26-2.77z"/><path class="cls-1" d="M126.82 223.05a.54.54 0 0 0 0 .18l-.51.16a.43.43 0 0 1 0-.16 5.17 5.17 0 0 0 .51-.18z"/><path class="cls-1" d="M126.77 223.23a.63.63 0 0 1-.08.36c.02-.12.05-.24.08-.36zM126.77 223.23a3 3 0 0 0-.13.39l-.26.08a.85.85 0 0 0-.17-.16.5.5 0 0 1 .05-.13z"/><path class="cls-1" d="M126.69 223.59a.92.92 0 0 1-.08.46 1.48 1.48 0 0 1-.35.13c-.16-.13-.34-.23-.49-.36a1.5 1.5 0 0 1 0-.3h.31l.08.08a.32.32 0 0 1-.06.23l.23-.07.18.17a.32.32 0 0 1 .08-.25c.08-.08.08-.06.1-.09z"/><path class="cls-1" d="M126.64 223.62a.3.3 0 0 1-.08.25l-.18-.17z"/><path class="cls-3" d="M126.61 224.05v.18a.74.74 0 0 1-.21 0 .84.84 0 0 0-.12-.1 1.32 1.32 0 0 0 .33-.08zM126.59 224.26v.15c0 .05-.12-.07-.18-.13zM126.26 224.18a.46.46 0 0 0 .12.1 2.63 2.63 0 0 1-.69.13 2 2 0 0 1 .08-.43.47.47 0 0 0 .49.2z"/><path class="cls-1" d="M126.38 223.7l-.23.07a.35.35 0 0 1 .06-.23.85.85 0 0 1 .17.16zM126 223.34l.25-.11a.43.43 0 0 0 0 .16l-.13.05zM125.77 223.82c.15.13.33.23.49.36a.47.47 0 0 1-.49-.2zM126.26 223.39a.5.5 0 0 0-.05.13l-.08-.08z"/><path class="cls-3" d="M126.9 217.62c-.34.85-.67 1.67-1 2.51v.08c-2.2 2.79-4.2 5.77-6.94 7.94-1.75 1.39-4.13 1.77-6.39 2a7 7 0 0 1-1-.26c1.26-.3 2.46-.64 3.64-1a8 8 0 0 0 2.54-.93h.07a2.83 2.83 0 0 0 .36-.16.71.71 0 0 0 .52.18.89.89 0 0 0 .23 0c.43 0 .61-.49.66-.87a2.44 2.44 0 0 0 0-.54 8.7 8.7 0 0 0 .67-.69c2.33-2.8 4.2-5.67 6.64-8.26z"/><path class="cls-1" d="M125.85 223.36v.08a.11.11 0 0 1 0-.08zM125.82 223.44v.08a.11.11 0 0 1 0-.08zM125.82 223.52a1.5 1.5 0 0 0 0 .3.29.29 0 0 1 0-.13.19.19 0 0 1 .05-.12z"/><path class="cls-3" d="M125.79 223.52s-.05.07-.05.12a.29.29 0 0 0 0 .13c-.08 0-.16-.13-.23-.18z"/><path class="cls-1" d="M125.77 223.82v.18a.28.28 0 0 1 0-.18zM123.31 130a.46.46 0 0 0-.59-.13 1.6 1.6 0 0 0-.31-.1.7.7 0 0 1 .68-.72h.32a11.76 11.76 0 0 0 1.41.49.64.64 0 0 1 .28.18.87.87 0 0 1 .21.74 8.64 8.64 0 0 1-1.9.13.5.5 0 0 0-.1-.59z"/><path class="cls-1" d="M125.31 130.44a.57.57 0 0 1-.49.41 4.72 4.72 0 0 1-1.59 0l.08-.08a.32.32 0 0 0 .1-.18 8.65 8.65 0 0 0 1.9-.15zM122.82 130.49a.79.79 0 0 1-.34-.38.47.47 0 0 0 .1-.1c.06 0 .11-.11.16-.11a3 3 0 0 0 .59.13.49.49 0 0 1 .1.54h-.28a.54.54 0 0 1-.33-.08z"/><path class="cls-1" d="M123.41 130.57a.32.32 0 0 1-.1.18l-.08.08a1.31 1.31 0 0 1-.61-.1c0-.08.12-.16.18-.24a.48.48 0 0 0 .31.08zM123.31 130a3 3 0 0 1-.59-.13.46.46 0 0 1 .59.13z"/><path class="cls-1" d="M122.8 130.49c-.06.08-.13.16-.18.24l-.54-.18.38-.44a.79.79 0 0 0 .34.38zM122.72 129.9l-.16.11a.47.47 0 0 1-.1.1 1.61 1.61 0 0 1 0-.31z"/><path class="cls-1" d="M122.62 130.73c.2.05.41.07.61.1a130.29 130.29 0 0 0-8.23 10.76.45.45 0 0 0 0-.23.35.35 0 0 0-.34-.36 87.36 87.36 0 0 1 7.96-10.27z"/><path class="cls-1" d="M122.08 130.55l.54.18a87.28 87.28 0 0 0-8 10.27.4.4 0 0 0-.41.36 1 1 0 0 1 0 .34c-2 3-4 6.1-6 9-5.31 7.9-11.77 15-17.56 22.59a.63.63 0 0 0-.2-.26c2.43-3.43 4.87-6.81 7.51-10 8.46-10.49 15.04-22.54 24.12-32.48zM120.64 224.13l-1 1.64a1.43 1.43 0 0 0-.07-.46 13.25 13.25 0 0 0 1.07-1.18z"/><path class="cls-1" d="M119.69 226.46a7.66 7.66 0 0 1-.79.72.46.46 0 0 0-.18-.34 1.56 1.56 0 0 0-.1-.57.54.54 0 0 0 .75-.05.36.36 0 0 0 .07-.1l.2-.36a5.49 5.49 0 0 1 .05.7z"/><path class="cls-1" d="M118.77 227.49a.34.34 0 0 0 .13-.28 7.66 7.66 0 0 0 .79-.72 2.44 2.44 0 0 1 0 .54.83.83 0 0 1-.66.87h-.23a.71.71 0 0 1-.52-.18l.41-.15a.3.3 0 0 0 .08-.08zM119.64 225.82l-.2.36a.53.53 0 0 1-.72.22l-.1-.07a.2.2 0 0 0 0-.15 4.27 4.27 0 0 0 .38-.36 6.48 6.48 0 0 0 .62-.54 1.4 1.4 0 0 1 .02.54z"/><path class="cls-1" d="M119.46 225a2.47 2.47 0 0 1 .11.36 6.48 6.48 0 0 1-.62.54z"/><path class="cls-1" d="M119.46 225l-.51.9a3.44 3.44 0 0 1-.36.28 2.5 2.5 0 0 0-.13-.54c.23-.44.49-.88.75-1.31a3.84 3.84 0 0 1 .25.67z"/><path class="cls-1" d="M112.59 218.52a1.9 1.9 0 0 0-.07-.75c2.23 1.52 5.48 3.77 6.69 6.49-.26.43-.52.87-.75 1.31a.47.47 0 0 0 .08.59 8.13 8.13 0 0 1-.87.57 13.07 13.07 0 0 0-2.38-4.36 20.18 20.18 0 0 0-3.64-3 1.4 1.4 0 0 0 .38-.16l.15-.1h-.89c.13.08.25.18.36.26a1.3 1.3 0 0 1-1.18-2.16 1.21 1.21 0 0 1 .53-.39 2.87 2.87 0 0 0 .77 1.38.18.18 0 0 0 .27 0 1.69 1.69 0 0 0 .15-.43c.17.23.28.49.4.75zM118.9 227.21a.34.34 0 0 1-.13.28.54.54 0 0 0 0-.18z"/><path class="cls-1" d="M118.9 227.21a.78.78 0 0 1-.15.1 1.09 1.09 0 0 0 0-.44.45.45 0 0 1 .15.34zM118.75 227.31a.54.54 0 0 1 0 .18.22.22 0 0 1-.13.1l-.41.15z"/><path class="cls-1" d="M117.9 227.33l-.18-.46c.18-.05.39-.07.57-.13a.5.5 0 0 1 .46.16 1.09 1.09 0 0 1 0 .44l-.57.41a1.47 1.47 0 0 1-.28-.42z"/><path class="cls-1" d="M118.62 226.28a1.56 1.56 0 0 1 .1.57.5.5 0 0 0-.46-.16c-.18.06-.39.08-.57.13a.09.09 0 0 1 0-.07 8.13 8.13 0 0 0 .87-.57.28.28 0 0 0 .06.1z"/><path class="cls-1" d="M118.59 226.13a.2.2 0 0 1 0 .15s-.08-.05-.08-.1z"/><path class="cls-1" d="M118.59 226.13v.05a.47.47 0 0 1-.08-.59 2.52 2.52 0 0 1 .08.54zM118.23 227.74a2.83 2.83 0 0 1-.36.16c.11-.05.21-.13.31-.18z"/><path class="cls-5" d="M117.77 127.62a9.43 9.43 0 0 0 4.31 2.93c-9.1 9.94-15.66 22-24.17 32.45-2.64 3.23-5.08 6.61-7.51 10a12 12 0 0 0-1.13-1c-.62-.54-1.08-1.23-1.67-1.77 1.8-2.59 3.54-5.2 5.26-7.82 3.64-5.53 8.58-10.64 12.58-15.94a121.7 121.7 0 0 0 12.33-18.85z"/><path class="cls-1" d="M118.18 227.72c-.1 0-.2.13-.31.18h-.07c-.82.34-1.67.65-2.54.93a41.83 41.83 0 0 1-4.61.61 2.76 2.76 0 0 1-.44-.25 58.26 58.26 0 0 0 7.69-1.88 1.65 1.65 0 0 0 .28.41zM117.46 127.24c-.09-.13-.17-.26-.25-.39a.19.19 0 0 1 .05-.1.43.43 0 1 1 .74.44c-.07.15-.15.28-.23.43z"/><path class="cls-1" d="M117.87 227.28a58.26 58.26 0 0 1-7.69 1.88l-.28-.16a.48.48 0 0 0-.28-.1.88.88 0 0 1 .56-.31c2.77-.33 5.13-.61 7.23-1.77h.23a1.8 1.8 0 0 1 .23.46zM117.46 127.24l.31.38c-3.38 6.74-7.79 12.85-12.33 18.87-4 5.3-8.94 10.41-12.58 15.94-1.72 2.62-3.46 5.23-5.26 7.82a3.09 3.09 0 0 0-.39-.33.5.5 0 0 0-.31-.1c1.85-2.59 3.57-5.18 5.28-7.8 2-3.07 4.93-5.61 7.1-8.58s4.31-5.72 6.46-8.59a.86.86 0 0 0 .7-.82v-.1a128.39 128.39 0 0 0 11.02-16.69z"/><path class="cls-3" d="M117.67 226.75a.09.09 0 0 0 0 .07h-.23z"/><path class="cls-6" d="M117.67 226.75l-.21.1a120.53 120.53 0 0 1-22.15 2.82c-6.66.16-13.4-.48-20 0l1.25-1.33a40.25 40.25 0 0 0 2.69-3 24.17 24.17 0 0 0 3.44 1 17.55 17.55 0 0 0 7.18.13.77.77 0 0 0 .18.18.94.94 0 0 0 1.07.15c2.13-1.1 3.31-6.2 4-8.33a36 36 0 0 0 .9-3.54 6.92 6.92 0 0 0 1.64-1.51c2.61.33 6.41.41 8.64-1.41l.08-.08a1.51 1.51 0 0 1 .23-.21 6.21 6.21 0 0 0 1.61-1.89 4.51 4.51 0 0 1 2.62 4 13.14 13.14 0 0 0 .2 3 1.19 1.19 0 0 0-.56.35 1.3 1.3 0 0 0 1.18 2.16 20.18 20.18 0 0 1 3.64 3 13 13 0 0 1 2.37 4.41z"/><path class="cls-1" d="M117.21 126.82c.08.13.16.26.25.39a128.25 128.25 0 0 1-11 16.69 7.48 7.48 0 0 0-.08-1.57 156.54 156.54 0 0 0 10.83-15.51zM117.44 226.87c-2.1 1.16-4.46 1.44-7.23 1.77a.88.88 0 0 0-.56.31.47.47 0 0 0-.42.41c-11.38 1.79-24 1-34.63 1a7.71 7.71 0 0 0 .7-.7c6.64-.48 13.38.16 20 0a120.5 120.5 0 0 0 22.14-2.79zM111.77 107.35c2.77-4.36 4.82-9.23 4.72-14.48 0-1.72-.15-4.18-1.85-5a.4.4 0 0 0-.24-.5h-.06a2.71 2.71 0 0 0-.57 0 .28.28 0 0 1 .36-.11c4.79 1.9 3.26 9.69 1.77 13.46-2.69 6.9-7.15 13.92-13.43 18a.7.7 0 0 0-.21-.21 14 14 0 0 0 1.18-.84h.08c.26.08.54-.25.44-.46 3.12-2.74 5.66-6.53 7.81-9.86z"/><path class="cls-1" d="M116.49 92.87c.1 5.25-1.95 10.12-4.72 14.48-2.15 3.33-4.69 7.12-7.81 9.84a.28.28 0 0 0-.11-.13 1.3 1.3 0 0 1-.23-.18 49.36 49.36 0 0 0 8.51-11.58c2-3.57 6.64-13.41 2.08-17.1a.38.38 0 0 0 .43-.31c1.7.8 1.85 3.26 1.85 4.98z"/><path class="cls-3" d="M117.8 227.92a8 8 0 0 1-2.54.93c.87-.28 1.74-.59 2.54-.93z"/><path class="cls-1" d="M111.52 152.9a.4.4 0 0 0 .41-.36.54.54 0 0 1 0-.18 17.76 17.76 0 0 1 2.77 3.1c.9 1.26 2.82 4.74.8 5.87a.29.29 0 0 1-.39-.09 2.93 2.93 0 0 0 .25-.64.21.21 0 0 0-.15-.27.17.17 0 0 0-.1 0 .8.8 0 0 0-.21.05 6.67 6.67 0 0 0-.18-2.18 10.55 10.55 0 0 0-2-3.18c-1.28-1.43-3-2.59-4.13-4.1a.44.44 0 0 0 .15-.23c.67.49 1.54 1.15 2.41 1.9h.05a.86.86 0 0 0 .13.2.21.21 0 0 0 .16.08s0 .03.03.03z"/><path class="cls-1" d="M114.93 160.69v-.36a.8.8 0 0 1 .21-.05.23.23 0 0 1 .26.18.34.34 0 0 1 0 .1 2.93 2.93 0 0 1-.25.64h-.06a2.46 2.46 0 0 1-.16-.51z"/><path class="cls-1" d="M115.05 161.15h.06c-.85 1.57-3.08 2.85-4.36 3.85a50.23 50.23 0 0 1-5.18 3.64 2.35 2.35 0 0 0-.23-.57 78.24 78.24 0 0 0 9.59-7.43 2.36 2.36 0 0 0 .12.51zM114.49 142.26c-.18.26-.36.54-.56.79a8.68 8.68 0 0 0 .25-1.35c.16-.23.31-.47.46-.7a.35.35 0 0 1 .34.36.45.45 0 0 1 0 .23c-.18.23-.34.41-.49.67z"/><path class="cls-1" d="M114.49 142.26c.15-.23.31-.46.46-.67a20.93 20.93 0 0 1-1.48 5.82 28.26 28.26 0 0 0-1.52 5 2 2 0 0 0-.41-.36c.18-1.87 2.46-7.12 2.95-9.79zM114.9 160.33v.36a78.24 78.24 0 0 1-9.59 7.43 4 4 0 0 0-.26-.56c1.8-1.36 3.64-2.62 5.44-4 1.31-.95 2.8-2.85 4.41-3.23z"/><path class="cls-7" d="M114.72 158.15a6.67 6.67 0 0 1 .18 2.18c-1.61.38-3.1 2.28-4.38 3.26-1.8 1.35-3.64 2.61-5.44 4a8.4 8.4 0 0 0-5.17-4.77c3.1-3.84 5.89-7.89 8.66-12 1.15 1.51 2.85 2.67 4.13 4.1a10.34 10.34 0 0 1 2.02 3.23z"/><path class="cls-1" d="M114.64 87.82a.36.36 0 0 1-.37.36h-.06a1.3 1.3 0 0 0-.34-.28.25.25 0 0 1-.15-.23.46.46 0 0 1 .08-.41 2.71 2.71 0 0 1 .57 0 .4.4 0 0 1 .31.46.42.42 0 0 1-.04.1zM114.64 141c-.15.23-.3.47-.46.7a1 1 0 0 0 0-.34.39.39 0 0 1 .43-.36zM113.93 143.05c.2-.25.38-.53.56-.79-.51 2.67-2.77 7.92-2.95 9.74a4.34 4.34 0 0 0-.64-.49 11 11 0 0 1 1-2.94 54.46 54.46 0 0 0 2.03-5.52z"/><path class="cls-2" d="M114.21 88.2c4.56 3.69-.13 13.53-2.08 17.1a49.36 49.36 0 0 1-8.51 11.58 6.64 6.64 0 0 0-.79-.51.35.35 0 0 0 0-.41c-3.83-6.23-10.08-13.14-17.56-14.79.33-.26.69-.46 1-.69 7.66-4.82 18.45-13.33 27.89-12.28.02-.03.05 0 .05 0z"/><path class="cls-1" d="M113.82 87.92a1.3 1.3 0 0 1 .34.28c-9.44-1-20.23 7.46-27.84 12.28a7 7 0 0 0-1 .69 4.77 4.77 0 0 0-.51-.13.37.37 0 0 0-.43.28.38.38 0 0 0 .14.36 291.64 291.64 0 0 0-26.32 19.56l-.46.38c-.2-.17-.41-.35-.62-.51 2.41-2 4.9-3.82 7.23-5.71a184 184 0 0 1 27.33-18.92c5.35-3 15-9.87 22-8.79a.24.24 0 0 0 .14.23zM90 174.15a1.21 1.21 0 0 0 .38 0 .43.43 0 0 0 .43-.41.51.51 0 0 0 0-.13l-.15-.3c5.79-7.56 12.25-14.69 17.56-22.59 2-2.94 4-6 6-9a8.68 8.68 0 0 1-.25 1.35q-2.53 3.66-5 7.36h-.1c-.2-.06-.44.2-.31.38s0 .08.08.1c-2.77 4.08-5.56 8.13-8.66 12a1.45 1.45 0 0 0-.42-.12c-.3-.08-.4.35-.12.46a.42.42 0 0 1 .2.1 9.24 9.24 0 0 1-.61.79c-8.26 10.13-15.2 21.69-24.48 30.94a.33.33 0 0 1-.45 0 .38.38 0 0 1-.1-.08.32.32 0 0 1 .08-.36c5.84-6.25 10.69-13.43 15.66-20.48a.5.5 0 0 0 .26-.01z"/><path class="cls-1" d="M113.75 87.28a.46.46 0 0 0-.08.41c-7-1.08-16.64 5.82-22 8.79a183.93 183.93 0 0 0-27.32 18.92c-2.33 1.89-4.82 3.76-7.23 5.71H57a.2.2 0 0 0 0 .11 58.2 58.2 0 0 0-5.72 5.15c-3.69 3.92-7.36 8-11.07 12-2.08 2.2-4.13 4.45-6.21 6.68-.15-.33-.67-.1-.57.23a3.42 3.42 0 0 0 .13.34q-1.86 1.9-3.76 3.82c-.56.56-1.13 1.1-1.69 1.64a.31.31 0 0 0-.59.13 2.61 2.61 0 0 0-.05.48c-.93.9-1.87 1.75-2.82 2.57-5.1 4.46-10.87 7.56-16.82 10.66a.14.14 0 0 0-.15 0 .54.54 0 0 1-.54-.1.69.69 0 0 1 .18-.16c12.28-6.66 21.4-15 30.86-25.14 8.74-9.41 17.28-18 27.33-26a230.22 230.22 0 0 1 28.22-19A85.13 85.13 0 0 1 104.08 89l3.39-.69c.2 0 .23-.33.1-.46a16.75 16.75 0 0 1 6.18-.57zM112.52 217.82a1.9 1.9 0 0 1 .07.75c-.12-.26-.23-.52-.33-.77v-.13a.57.57 0 0 0 .21.13zM112.52 217.75a.57.57 0 0 1-.21-.13.74.74 0 0 0 0-.21z"/><path class="cls-8" d="M108.9 150.41l5-7.36a54.59 54.59 0 0 1-2.05 5.52 11 11 0 0 0-1 2.94 8.51 8.51 0 0 0-1.95-1.1z"/><path class="cls-1" d="M112 212.82a10.58 10.58 0 0 1 .36 4.61 1.53 1.53 0 0 0-.59-.51c-.48-3.75.44-5.33-3.43-7.33 0-.08.09-.16.13-.24 1.53.71 3.1 1.65 3.53 3.47zM115.26 228.82c-1.18.38-2.38.72-3.64 1a5.13 5.13 0 0 1-1-.41 42.33 42.33 0 0 0 4.64-.59z"/><path class="cls-1" d="M111.77 216.88a1.53 1.53 0 0 1 .59.51.74.74 0 0 1 0 .21l-.13-.08a.49.49 0 0 1-.07.64.17.17 0 0 1-.26 0 .1.1 0 0 1-.05 0 2.88 2.88 0 0 1-.85-1.34.81.81 0 0 1 .77.06z"/><path class="cls-1" d="M112.18 217.54l.13.08v.13a2.39 2.39 0 0 0-.13-.21zM112.18 219.08l-.15.1a1.4 1.4 0 0 1-.38.16c-.11-.08-.23-.18-.36-.26z"/><path class="cls-3" d="M111.62 229.87a7 7 0 0 0 1 .26l-1.51.15a1.65 1.65 0 0 1-.41-.18z"/><path class="cls-1" d="M111.54 152a2 2 0 0 1 .41.36.54.54 0 0 0 0 .18.4.4 0 0 1-.41.36l-.29-.28a2 2 0 0 1-.23-1 4.35 4.35 0 0 1 .52.38zM111.77 216.88a.81.81 0 0 0-.77-.06 13.14 13.14 0 0 1-.2-3 4.51 4.51 0 0 0-2.62-4 1.71 1.71 0 0 0 .13-.23c3.9 1.96 2.98 3.54 3.46 7.29zM111.47 152.87a.21.21 0 0 1-.16-.08.86.86 0 0 1-.13-.2zM110.65 229.46a5.13 5.13 0 0 0 1 .41l-1 .23a3.61 3.61 0 0 1-1-.59h.54c.17-.02.33-.02.46-.05z"/><path class="cls-3" d="M111.08 230.28l-.87.08h-.33c.25-.05.51-.13.79-.18a1.89 1.89 0 0 0 .41.1z"/><path class="cls-1" d="M110.9 151.51a2 2 0 0 0 .23 1c-.87-.75-1.74-1.41-2.41-1.9a1.3 1.3 0 0 0 .18-.23 8.05 8.05 0 0 1 2 1.13zM105.47 130.06a.17.17 0 0 0-.1.13v.15a.4.4 0 0 1-.18-.1c-.23-.16-.18-.54.12-.51a19 19 0 0 1 4.16.74 5.91 5.91 0 0 0 .85.64.19.19 0 0 0 .25-.05.17.17 0 0 0 0-.1.45.45 0 0 1-.23.58.4.4 0 0 1-.15 0 8.56 8.56 0 0 1-4.41-1 2.06 2.06 0 0 0-.21-.48s0-.06-.07-.06a.09.09 0 0 0-.03.06zM110.67 230.1c-.28.05-.54.13-.79.18a1 1 0 0 1-.34-.23.84.84 0 0 1-.12-.72l.77-.12a2.76 2.76 0 0 0 .44.25 1.38 1.38 0 0 0-.44 0h-.54a3.58 3.58 0 0 0 1.02.64z"/><path class="cls-1" d="M110.18 130.67l.18.06a.91.91 0 0 1 .23.15.11.11 0 0 1 0 .08.18.18 0 0 1-.18.18.19.19 0 0 1-.1 0 5.91 5.91 0 0 1-.85-.64c.26.05.54.1.72.17zM110.59 130.82a.91.91 0 0 0-.23-.15.64.64 0 0 0-.18-.06c-1.94-2.1-3.05-5.33-4.87-7.48a41.26 41.26 0 0 0-6.15-6.85.62.62 0 0 0 0-.33 17.51 17.51 0 0 1 2.9 2.31l-.18.15a.22.22 0 0 0 0 .32.23.23 0 0 0 .28 0l.26-.15c3.58 3.51 6.18 8.24 8.17 12.24zM109.93 229.05l.28.16-.77.12a.86.86 0 0 1 .16-.35.48.48 0 0 1 .33.07z"/><path class="cls-1" d="M110.18 130.67c-.23-.07-.46-.12-.69-.2-1.87-1.67-2.62-4.26-4.16-6.26a73.84 73.84 0 0 0-6.4-7.61.24.24 0 0 0 .2-.15.11.11 0 0 0 0-.11 41.26 41.26 0 0 1 6.15 6.85c1.85 2.15 2.96 5.38 4.9 7.48z"/><path class="cls-3" d="M110 230.33h-.2a.11.11 0 0 1 .08 0 .22.22 0 0 1 .12 0z"/><path class="cls-1" d="M109.54 230.05a1 1 0 0 0 .34.23h-.08a.58.58 0 0 1-.26-.23z"/><path class="cls-1" d="M109.54 230.05a.58.58 0 0 0 .23.26C98.29 232.72 85 232 74.25 231a.5.5 0 0 1-.25 0c.18-.18.39-.36.56-.56 10.62 0 23.25.79 34.63-1a.53.53 0 0 0 .21.58s.09.03.14.03z"/><path class="cls-1" d="M109.54 230.05a.15.15 0 0 1-.15-.08.53.53 0 0 1-.21-.58l.24-.06a.84.84 0 0 0 .12.72z"/><path class="cls-1" d="M109.6 229a.86.86 0 0 0-.16.35l-.24.06a.48.48 0 0 1 .4-.41zM108.9 150.41a1.3 1.3 0 0 1-.18.23.44.44 0 0 1-.15.23.11.11 0 0 0-.08-.1c-.13-.18.11-.44.31-.38zM106.29 186c2.2 5.46 5.59 17 2.18 23.35l-.39-.15c-.28-.13-.51.26-.23.41l.33.21a6.21 6.21 0 0 1-1.61 1.89 7.93 7.93 0 0 0 .59-.71.15.15 0 0 0 0-.21.16.16 0 0 0-.16 0h-.2c4.25-6.23.74-18.23-.9-24.71a2.66 2.66 0 0 1 .07-.39.49.49 0 0 1 .32.31z"/><path class="cls-1" d="M108.34 209.55a1.71 1.71 0 0 1-.13.23 3 3 0 0 0-.33-.21c-.28-.15 0-.54.23-.41l.39.15a1.25 1.25 0 0 1-.16.24zM106.37 88.1a8.29 8.29 0 0 1 1.2-.36c.13.13.1.43-.1.46l-3.39.69a18.77 18.77 0 0 1 2.29-.79zM107.39 87.69a.37.37 0 0 1 .18 0 8.29 8.29 0 0 0-1.2.36A165.32 165.32 0 0 0 90 91c-3.23 1-6.64 2.28-9.87 2.46l-.13-.11-.42-.15a.43.43 0 0 1 .42-.31c9.27-1.79 17.83-4.77 27.39-5.2z"/><path class="cls-1" d="M105.88 186.07c1.64 6.48 5.15 18.48.9 24.71-.31.07-.59.18-.88.25 3.49-8.33.8-15.4-.28-23.81.08-.4.16-.77.26-1.15zM106.31 211.34a4.22 4.22 0 0 0 .47-.56h.2a.15.15 0 0 1 .2.07.16.16 0 0 1 0 .16 7.93 7.93 0 0 1-.59.71 1.51 1.51 0 0 0-.23.21l-.13.1c-.24.13-.41-.08-.44-.31a1.71 1.71 0 0 0 .52-.38z"/><path class="cls-1" d="M105.9 211c.29-.07.57-.18.88-.25a4.22 4.22 0 0 1-.47.56 1.84 1.84 0 0 1-.56.33.31.31 0 0 1 0-.23l.15-.38z"/><path class="cls-9" d="M109.47 130.47a19 19 0 0 0-4.16-.74c-.3 0-.35.35-.12.51a.4.4 0 0 0 .18.1c-.08 1.59.15 3.15.07 4.74a32.78 32.78 0 0 1-.56 4.18 8.77 8.77 0 0 0-1.21-1.15c-.84-.7-1.82-1.28-2.71-1.93s-1.49-1.35-2.28-2c.79-5.56-.65-11.23-2.08-16.58 0-.21-.41-.18-.39.05.39 3.48 1 6.94 1.31 10.43a36.46 36.46 0 0 1 .16 4.79c-.08 3.77-1.62 1.54-3.46 0-4.82-4.23-8.1-10.48-10.85-16.2a23.33 23.33 0 0 0-1.43-6.38.12.12 0 0 0-.16-.06.12.12 0 0 0-.07.11 35.22 35.22 0 0 1 .77 5.69.15.15 0 0 0 0 .16 77.73 77.73 0 0 1-1.23 14.92.26.26 0 0 0 0 .21 8.14 8.14 0 0 0-2.13-1.55c-1-.59-2-1.23-3.08-1.77h-.13a3.53 3.53 0 0 1 0-.46c0-.46-.56-.46-.72-.11a9.57 9.57 0 0 0-.56 4.34c-2.18-3.23-3.92-6.72-6.18-9.9h-.07c-.07 0-.08-.08-.13 0a.21.21 0 0 0-.25-.05v.05a.17.17 0 0 0 0 .18c-.08 4.1-1.77 8.26-1.15 12.33a.25.25 0 0 0 .1.18 34 34 0 0 1-5.41-7c-1.13-1.85-2.08-4.46-3.69-6l.46-.38a294 294 0 0 1 26.16-19.5s.06 0 .11.08A29.13 29.13 0 0 1 95 108.4c2.28 2.25 4.1 5 6.33 7.25a8.46 8.46 0 0 0-2.75-.71 2.14 2.14 0 0 0-.48-.47c-.57-.38-1 .49-.52.88.16.1.82 1.4 1.29 1.25a73.84 73.84 0 0 1 6.4 7.61c1.58 2 2.33 4.61 4.2 6.26z"/><path class="cls-1" d="M105.55 143.41c.25-.36.53-.69.79-1a7.48 7.48 0 0 1 .08 1.57l-.7.92a.88.88 0 0 1-1-.36c.28-.41.54-.72.83-1.13z"/><path class="cls-1" d="M106.42 143.93v.1a.86.86 0 0 1-.7.82zM106.34 211.88l-.08.08h-.05a.57.57 0 0 0 .13-.08zM106.34 142.36c-.26.36-.54.69-.79 1a6.79 6.79 0 0 0-.18-1.56v-.15c.07-.41.15-.82.25-1.26a5.94 5.94 0 0 1 .72 1.97z"/><path class="cls-7" d="M105.62 187.22c1.08 8.41 3.77 15.48.28 23.81a29.67 29.67 0 0 1-3.35 1.07 35.08 35.08 0 0 1-4.34.34c.21-.28.39-.54.57-.8a23.44 23.44 0 0 0 2.82-5.64c.1-.3-.34-.43-.49-.2-1.13 1.51-2 3.2-3 4.77a30.68 30.68 0 0 1-1.88 2.53 13.7 13.7 0 0 0-.38-6.33c0-.07 0-.13-.13-.15a65.12 65.12 0 0 0 8.54-15 32 32 0 0 0 1.36-4.4z"/><path class="cls-1" d="M105.75 211.67c0 .23.2.44.44.31-2.23 1.82-6 1.74-8.64 1.41.1-.15.23-.28.33-.43 2.8.04 5.36.1 7.87-1.29zM105.83 130.62c1.25 2.92.48 6.64-.16 9.82a2.41 2.41 0 0 0-.41-.64 22.54 22.54 0 0 0 .29-9.33.76.76 0 0 0 .28.15zM100 198.93c4.07-6.81 6.25-13.4 6-21.37a33.29 33.29 0 0 0-1.23-8.82.51.51 0 0 0 .64 0 .78.78 0 0 0 .15-.1c1.85 4.84 1.46 11.63.38 17-.25 0-.51 0-.48.39l.15 1.15a31.51 31.51 0 0 1-1.38 4.46 65.12 65.12 0 0 1-8.54 15 .35.35 0 0 0-.49 0 .33.33 0 0 0-.12.29 3.84 3.84 0 0 1 0 .48A50.16 50.16 0 0 1 75.37 223a2.28 2.28 0 0 1-.67-.48l.31-.13c11.13-4.8 18.8-13.1 24.99-23.46z"/><path class="cls-1" d="M106 177.56c.2 8-2 14.56-6 21.37-6.15 10.36-13.82 18.66-25 23.51l-.31.13-.08-.08a1.71 1.71 0 0 0-.54-.38 41.56 41.56 0 0 0 7.54-4c9.2-6.29 17.63-16.11 21.39-26.76 2.36-6.69 5.76-24.23-3.44-28.07a1.3 1.3 0 0 0 .18-.23c2.44.59 3.92 2.64 4.82 5.1a.62.62 0 0 0 .21.59 33.29 33.29 0 0 1 1.23 8.82z"/><path class="cls-1" d="M106 185.68a.77.77 0 0 1-.07.39c-.1.38-.18.79-.26 1.15l-.15-1.15c-.08-.34.18-.44.48-.39zM105.9 211.06l-.15.38a.31.31 0 0 0 0 .23c-2.51 1.39-5.07 1.29-7.87 1.29.13-.16.23-.34.33-.49a35.08 35.08 0 0 0 4.34-.34 29.67 29.67 0 0 0 3.35-1.07zM105.55 130.47a.46.46 0 0 1-.18-.13v-.15a.17.17 0 0 1 .1-.13h.08l.07.06a2.06 2.06 0 0 1 .21.48.72.72 0 0 1-.28-.13zM104.67 144.49a.88.88 0 0 0 1 .36c-2.15 2.87-4.35 5.71-6.46 8.59s-5.07 5.56-7.1 8.56c-1.71 2.62-3.43 5.21-5.28 7.8a.56.56 0 0 0-.41.61c-4.07 5.77-8 11.43-12.84 16.58a34.89 34.89 0 0 0-2.79 3.39c-.08.1-.18.31-.33.51-.67-2.15 9.32-12.48 10.63-14.3 3.8-5.28 7.31-10.77 11.1-16h.1a.32.32 0 0 0 .4-.21.31.31 0 0 0-.11-.35c0-.08.1-.13.15-.21 1.69-2.33 3.43-4.58 5.2-6.84a.41.41 0 0 0 .23-.28c2.21-2.7 4.39-5.47 6.51-8.21z"/><path class="cls-1" d="M105.55 130.47c.74 3.25.3 6.18-.29 9.33a4 4 0 0 0-.38-.54 32.78 32.78 0 0 0 .56-4.18c.08-1.59-.15-3.15-.07-4.74a.46.46 0 0 0 .18.13zM105.67 140.44c-.1.44-.18.85-.25 1.26v.15a3 3 0 0 0-.34-.87c.08-.38.16-.77.23-1.15a2.51 2.51 0 0 1 .36.61zM105.34 168.12a2.35 2.35 0 0 1 .23.57.78.78 0 0 1-.15.1.51.51 0 0 1-.64 0 5.89 5.89 0 0 0-.21-.59.7.7 0 0 1 .26-.41l.25-.18a3.06 3.06 0 0 1 .26.51zM105.37 141.82a6.79 6.79 0 0 1 .18 1.56c-.29.36-.57.72-.88 1.08a1 1 0 0 1-.1-.46c.26-2.8-1.31-4.38-3.36-6a11.71 11.71 0 0 1-2.79-2.51c0-.23.11-.45.18-.67 1.43 2.15 4.54 3.22 6.07 5.51-.07.36-.15.74-.23 1.1a.52.52 0 0 0 .93.39z"/><path class="cls-1" d="M105 141a3 3 0 0 1 .34.87c-.24.43-1 .15-.93-.44.08-.36.16-.74.23-1.1a4 4 0 0 1 .36.64zM104.88 139.26a4 4 0 0 1 .38.54c-.07.38-.15.77-.23 1.15a4 4 0 0 0-.36-.64c.08-.31.13-.72.21-1.05zM105.08 167.56l-.25.18a.7.7 0 0 0-.26.41c-.9-2.46-2.38-4.51-4.82-5.1a.37.37 0 0 0 .16-.21 8.42 8.42 0 0 1 5.17 4.72zM106.37 88.1a18.77 18.77 0 0 0-2.29.79c-4 .8-8 1.52-12 2.41s-7.81 2.52-12 2.69a.46.46 0 0 1-.36-.17h.1c.28.1.44-.28.26-.46 3.23-.11 6.64-1.44 9.88-2.39a165.32 165.32 0 0 1 16.41-2.87zM104.57 168.15a5.89 5.89 0 0 1 .21.59.62.62 0 0 1-.21-.59z"/><path class="cls-1" d="M104.88 139.26c-.08.33-.13.69-.21 1-1.53-2.26-4.67-3.33-6.07-5.44a3.72 3.72 0 0 1 .08-.57c.79.62 1.46 1.39 2.28 2s1.87 1.23 2.71 1.93a8.27 8.27 0 0 1 1.21 1.08z"/><path class="cls-8" d="M104.57 144a1 1 0 0 0 .1.46c-2.12 2.74-4.3 5.46-6.46 8.2a.48.48 0 0 0-.27-.62h-.06c-13.76-2.31-31.12-.18-44.29 4.59-.05-3.9-1-7.69-1.26-11.61-.1-1.74 0-3.74-.18-5.64a13.2 13.2 0 0 0 1.23 1.82.6.6 0 0 0 1-.26c.77-3.61 1.89-7.12 2.89-10.69a20.59 20.59 0 0 0 1-5.66c.77 1.54 1.74 3 2.48 4.38 1.41 2.64 3.16 5.13 6 6.41.31.13.64-.23.39-.49a3.45 3.45 0 0 1-.26-.28.35.35 0 0 0 .49-.08.31.31 0 0 0 .05-.1 55.38 55.38 0 0 0 1.16-11.12c2 3.56 3.8 7.25 6.33 10.4.28.36.77.06.8-.3.1-1.41.1-2.8.18-4.18a10.93 10.93 0 0 0 2 1.2c1.07.54 2 1.23 3 1.85a.46.46 0 0 0 .64-.18.46.46 0 0 0 0-.44.33.33 0 0 0 .46-.06.36.36 0 0 0 .07-.17 54.5 54.5 0 0 0 1.46-12.79c3 6.9 7.1 14.77 14 17.87a.55.55 0 0 0 .74-.19.61.61 0 0 0 0-.12c.06-.2.11-.44.16-.64a11.71 11.71 0 0 0 2.79 2.51c2.05 1.58 3.62 3.16 3.36 5.93zm-9.69-5.82c.62 1 2.18 0 1.54-.9-2.69-3.92-9.54-3.46-11 1.44a.56.56 0 0 0 1 .43c1.85-3.02 6.21-4.45 8.46-.94zm-26.63 4.61a1 1 0 0 0 1.43-1.44c-4.12-4-11.32-2-13.09 3.18-.26.8.95 1.13 1.23.36 1.71-4.58 7.12-5.17 10.43-2.07z"/><path class="cls-1" d="M104 117.19c.1.21-.18.54-.44.46h-.08a2.59 2.59 0 0 1 .52-.46z"/><path class="cls-1" d="M103.31 117.17a2.13 2.13 0 0 0 .31-.29 1.3 1.3 0 0 0 .23.18.28.28 0 0 1 .11.13c-.16.15-.34.28-.52.44a1.31 1.31 0 0 1-.43-.16 2.13 2.13 0 0 0 .3-.3z"/><path class="cls-1" d="M103.62 116.88a2.13 2.13 0 0 1-.31.29 26.23 26.23 0 0 0-4.4-1.88 1.64 1.64 0 0 0-.29-.35 8.46 8.46 0 0 1 2.75.71 10.57 10.57 0 0 0 .82.82.41.41 0 0 0 .58 0l.06-.08a6.64 6.64 0 0 1 .79.49zM103.44 117.63a14 14 0 0 1-1.18.84l-.15-.15a8.73 8.73 0 0 0 .87-.85 1.26 1.26 0 0 0 .46.16z"/><path class="cls-1" d="M103.31 117.17a2.13 2.13 0 0 1-.3.3 31.85 31.85 0 0 1-3.85-1.65 1.47 1.47 0 0 0-.25-.52 27 27 0 0 1 4.4 1.87z"/><path class="cls-2" d="M99.57 163.28c9.2 3.84 5.8 21.38 3.44 28.07-3.77 10.63-12.2 20.48-21.43 26.76a41.56 41.56 0 0 1-7.54 4 1 1 0 0 0-1.25.51c-2 .79-4 1.43-6 2a19.62 19.62 0 0 1-14.35-1.28l-.31-.15a38.81 38.81 0 0 1-7.74-5.13 33.32 33.32 0 0 1-6.89-7.48.48.48 0 0 0-.21-.34 30.46 30.46 0 0 1-2.72-5.24c-2.51-6.35-.51-15.94 4.74-20.63a16.16 16.16 0 0 0 .2 2.69.44.44 0 0 0 .23.58h.11a25.31 25.31 0 0 0 9-.79v.15a17.32 17.32 0 0 0 4 4.28.74.74 0 0 0 1 0 .64.64 0 0 0 .1-.13 7 7 0 0 0 .67-3.18 19.62 19.62 0 0 0-.06-2.87 6.17 6.17 0 0 0 2.44-1.83.68.68 0 0 0 1 0 .67.67 0 0 0 .21-.69c-.41-1.57-.84-3.1-1.33-4.62 4.64-.23 7.28-2.46 10-6.15 5.87-8 15.09-13.58 25.32-11.3-3.79 5.25-7.3 10.74-11.1 16-1.31 1.82-11.3 12.15-10.63 14.3a.59.59 0 0 0-.83 0c-4.56-2.18-8.76 1-10.66 5.77-1.08 2.69-1.87 8.18.64 10.07.54 4.52 9 .31 10.66-1.07 3.77-3 5.57-7.21 3.62-10.85a.32.32 0 0 0 .41.19.3.3 0 0 0 .13-.09c9.32-9.07 16.26-20.63 24.56-30.76.2-.25.39-.52.57-.79zM103 117.47a8.73 8.73 0 0 1-.87.85 17.51 17.51 0 0 0-2.9-2.31.67.67 0 0 0 0-.2 32.42 32.42 0 0 0 3.77 1.66z"/><path class="cls-1" d="M102.83 116a.35.35 0 0 1 0 .41 1.58 1.58 0 0 0-.36-.2c-5-6.2-9.58-12.59-17.61-14.69a3 3 0 0 1 .44-.28c7.45 1.58 13.7 8.49 17.53 14.76z"/><path class="cls-1" d="M102.83 116.37a.41.41 0 0 1-.56.16l-.08-.06a10.57 10.57 0 0 1-.82-.82 10.34 10.34 0 0 1 1.07.49 1.9 1.9 0 0 1 .39.23zM102.26 118.47a.7.7 0 0 1 .21.21l-.26.15a.23.23 0 0 1-.28-.36l.18-.15z"/><path class="cls-1" d="M102.44 116.14a10.34 10.34 0 0 0-1.07-.49c-2.23-2.3-4.05-5-6.33-7.25a29.15 29.15 0 0 0-10.46-6.64.12.12 0 0 1-.11-.08 1.38 1.38 0 0 1 .36-.23c8.03 2.1 12.56 8.49 17.61 14.69zM97.44 212.54a.39.39 0 0 0-.3.39 10.44 10.44 0 0 1-1.1 1.2c.07-.33.12-.69.17-1a30.68 30.68 0 0 0 1.88-2.53c1-1.57 1.89-3.26 3-4.77.15-.23.59-.1.49.2a23.44 23.44 0 0 1-2.82 5.64c-.18.26-.36.52-.57.8a3.64 3.64 0 0 0-.66 0 .16.16 0 0 0-.09.07zM99.75 163.05a1.3 1.3 0 0 1-.18.23.42.42 0 0 0-.2-.1c-.28-.11-.18-.54.12-.46a1.45 1.45 0 0 1 .42.12.37.37 0 0 1-.16.21zM99.21 116a.62.62 0 0 1 0 .33 2.12 2.12 0 0 0-.51-.38c-.07-.14-.15-.28-.23-.41z"/><path class="cls-1" d="M99.16 115.82a.67.67 0 0 1 0 .2c-.28-.18-.56-.36-.84-.51s0 0 0-.07c.25.11.55.24.84.38zM98.42 115.82l.39.43a1.67 1.67 0 0 0-.18-.28 2.12 2.12 0 0 1 .51.38.11.11 0 0 1 0 .11.24.24 0 0 1-.2.15q-.51-.54-1.08-1.08c-.13-.12 0-.28.15-.23zM98.91 115.29a1.47 1.47 0 0 1 .25.52 8.65 8.65 0 0 0-.87-.41c-.08-.12-.17-.23-.26-.34a5.43 5.43 0 0 1 .88.23z"/><path class="cls-1" d="M98.91 116.6c-.47.15-1.13-1.15-1.29-1.25-.53-.39-.05-1.26.52-.88a2.14 2.14 0 0 1 .48.47 2.71 2.71 0 0 0-.69-.08h-.05s-.18.2 0 .28h.13c-.15 0-.28.11-.15.23z"/><path class="cls-1" d="M98.83 116.24l-.39-.42a.34.34 0 0 1 .16.1h.05a2.11 2.11 0 0 1 .18.32zM98.16 134.06a.39.39 0 0 0-.18.38 1.29 1.29 0 0 0 .08.28 10 10 0 0 1-.31 1.31c-6.15-2.8-11.33-12-14.3-18.43a4.18 4.18 0 0 0-.08-1c2.75 5.72 6 12 10.85 16.2 1.84 1.59 3.38 3.82 3.46 0a36.46 36.46 0 0 0-.16-4.79c-.36-3.49-.92-6.95-1.31-10.43a.2.2 0 0 1 .39 0c1.43 5.35 2.87 11 2.08 16.58l-.21-.15a.23.23 0 0 0-.31.1z"/><path class="cls-1" d="M98.6 134.82c-.07.26-.13.52-.18.79a3.15 3.15 0 0 1-.36-.82 5 5 0 0 0 .1-.66.23.23 0 0 1 .31 0l.21.15a3.74 3.74 0 0 0-.08.54zM98.62 114.94a1.64 1.64 0 0 1 .29.35 5.43 5.43 0 0 0-.88-.23q-.11-.15-.15-.15h.05a2.71 2.71 0 0 1 .69.03zM98.6 115.91a.34.34 0 0 0-.16-.1l-.44-.52.31.18a3.75 3.75 0 0 1 .29.44z"/><path class="cls-1" d="M98.42 135.57a2.5 2.5 0 0 1-.16.64.54.54 0 0 1-.67.36h-.12c-6.9-3.1-11-11-14-17.87v-1c3 6.43 8.15 15.63 14.3 18.43a10 10 0 0 0 .31-1.31 3.32 3.32 0 0 0 .34.75zM98.29 115.4v.07l-.29-.18z"/><path class="cls-1" d="M98 115.06c.09.11.18.22.26.34l-.26-.16c-.1-.23-.13-.33-.08-.33s.08.09.08.15zM53.61 157.1a3.53 3.53 0 0 0 0-.46c13.17-4.77 30.53-6.9 44.29-4.59a.48.48 0 0 1 .35.58v.06a.7.7 0 0 0-.25.31.28.28 0 0 1-.25 0c-14.41-1.87-30.2.82-44.12 4.46z"/><path class="cls-1" d="M98 153a.7.7 0 0 1 .23-.28.41.41 0 0 1-.23.28zM97.88 213c-.1.15-.23.28-.33.43a.43.43 0 0 1-.41-.43l.3-.39h.11a3.64 3.64 0 0 1 .66 0c-.1.01-.21.21-.33.39zM98.16 134.06a5 5 0 0 1-.1.66 1.29 1.29 0 0 1-.08-.28.39.39 0 0 1 .18-.38z"/><path class="cls-7" d="M97.73 153.05a.28.28 0 0 0 .25 0c-1.77 2.26-3.51 4.51-5.2 6.84 0 .08-.1.13-.15.21-4.08-3-12.18-.66-16.22 1.44a22.66 22.66 0 0 0-7.87 6.13c-3.54 4.4-5.6 8.68-11.9 9.35a33.11 33.11 0 0 0-2.2-4.62c.49 1.59.62 3.33 1.08 5s.84 3.33 1.33 5a45.76 45.76 0 0 1-7.66 3 59 59 0 0 1-8.57 1.23c.75-3.39 1.11-6.69 2.31-10a46.38 46.38 0 0 1 5.72-10.22c.18.12.38-.06.41-.23.18-2-1.9-3.93-3.57-5a15.79 15.79 0 0 0-.3-1.67 11.29 11.29 0 0 0 3.71-.87 24 24 0 0 0 4.15 1.18c.74.13 1.08-.87.51-1.13v-1.1c13.97-3.72 29.76-6.41 44.17-4.54z"/><path class="cls-1" d="M98 115.24h-.13c-.13-.08-.08-.28 0-.28s-.01.04.13.28zM97.44 212.54l-.3.39a.39.39 0 0 1 .3-.39zM97.14 213a.43.43 0 0 0 .41.43 6.92 6.92 0 0 1-1.64 1.51c0-.23.1-.48.13-.74a10.44 10.44 0 0 0 1.1-1.2zM96.42 137.31c.64.95-.92 1.87-1.54.9-2.25-3.51-6.61-2.08-8.41 1a.55.55 0 0 1-.78.11.56.56 0 0 1-.22-.54c1.41-4.96 8.26-5.39 10.95-1.47zM95.83 206.82a13.7 13.7 0 0 1 .38 6.33c-.28.34-.56.65-.82 1a17.47 17.47 0 0 0 .08-7.2.89.89 0 0 0 .23-.28c.08 0 .1.06.13.15z"/><path class="cls-1" d="M96 214.16a3.47 3.47 0 0 1-.13.74l-.46.23a.3.3 0 0 1-.26 0c.08-.33.15-.66.2-1 .26-.35.54-.66.82-1a3.7 3.7 0 0 1-.17 1.03z"/><path d="M92.06 91.3c4-.89 8-1.61 12-2.41a84.14 84.14 0 0 0-10.33 5.56 230.22 230.22 0 0 0-28.22 19c-10.05 8-18.59 16.64-27.33 26.05-9.46 10.12-18.58 18.5-30.86 25.11a.69.69 0 0 0-.18.16c-.69-1 1.72-5.87 2-6.28 1.16-2 2.31-4 3.49-6 2.44-4.2 5.23-8.17 7.82-12.28a5.75 5.75 0 0 0 .9 1.29.35.35 0 0 0 .15.17h.13a.09.09 0 0 0 .07 0 .11.11 0 0 0 .08 0c2.41-1.54 4.49-4.67 6.28-6.87s3-6.23 1.8-9c3.94 2.2 8.43 1.87 12.76.92 1.23-.28 5.61-2.28 3.15-4.25-4-3.23-10-2.93-14.68-1.47h.12c3.82-2.31 6.13-6 7.51-10.15.7-2 1.57-7.85-.79-9.23-1.49-.87-4.41 2.33-5.28 3.13-2.79 2.53-5 5.35-5.15 9.35 0 1.18-.28 2.72-.36 4.31a6.24 6.24 0 0 0-2.72-2.59c0-1.64-.23-3.28-.23-4.95a31.62 31.62 0 0 0-.05-5.33.28.28 0 0 0-.34-.2.29.29 0 0 0-.2.2c-.08.46-.16.95-.23 1.49-2.21.9-4.49 1.72-6.64 2.69-3.18 1.41-5.87 3.79-9 5.36a.41.41 0 0 0-.21.51 12.65 12.65 0 0 0-3.81 1.83.37.37 0 0 0 0 .52c.2.23.38.49.59.72a.41.41 0 0 0-.3.14c-.77.74-1.46 1.59-2.15 2.39-.13.15-.29.3-.44.46a86.6 86.6 0 0 1 9.89-20.28 44.93 44.93 0 0 1 9.07-10.14.38.38 0 0 0 .13-.23c20.12-2.59 39.75-4.17 59.26 2.83a.49.49 0 0 0 .36.13c4.15-.14 7.94-1.76 11.94-2.66z" fill="#308d3a"/><path class="cls-1" d="M95.45 215.13l.46-.23a36 36 0 0 1-.9 3.54c-.64 2.13-1.82 7.23-4 8.33a.92.92 0 0 1-1-.15.77.77 0 0 1-.18-.18l.3-.08a.47.47 0 0 0 .36-.36.56.56 0 0 0 .44-.15c1.74-2.28 3.43-6.56 4.28-10.72a.28.28 0 0 0 .24 0zM95.47 206.93a1.6 1.6 0 0 1-.36.46 3.84 3.84 0 0 0 0-.48.36.36 0 0 1 .32-.38.38.38 0 0 1 .29.12.84.84 0 0 1-.25.28z"/><path class="cls-1" d="M95.47 206.93a17.47 17.47 0 0 1-.08 7.2c-.15.18-.28.36-.41.54s0 .38.21.43c-.85 4.16-2.54 8.44-4.28 10.72a.56.56 0 0 1-.44.15.52.52 0 0 0-.28-.67H90c3.94-4.74 5.61-11.79 5.07-17.89a1.6 1.6 0 0 0 .4-.48z"/><path class="cls-1" d="M95.39 214.16a5.05 5.05 0 0 1-.2 1c-.21 0-.36-.23-.21-.43s.26-.39.41-.57z"/><path class="cls-7" d="M95.11 207.39c.54 6.1-1.13 13.15-5.07 17.89a39 39 0 0 0-6-.64c-2.1-.18-6.46-.3-8.69-1.59a50.16 50.16 0 0 0 19.76-15.66z"/><path class="cls-1" d="M92.63 160.05a.32.32 0 0 1 .06.45.31.31 0 0 1-.35.11h-.1zM56.77 177.53c-.06-.15-.11-.33-.16-.49 6.3-.67 8.4-5 11.87-9.43a22.66 22.66 0 0 1 7.87-6.13c4-2.1 12.14-4.44 16.22-1.44l-.39.54c-10.18-2.27-19.39 3.31-25.26 11.31-2.72 3.69-5.36 5.92-10 6.15a4.73 4.73 0 0 0-.15-.51zM90.29 173.74a2.1 2.1 0 0 1 .31-.41l.15.3a.41.41 0 0 1-.28.52h-.13a1.21 1.21 0 0 1-.38 0 3.5 3.5 0 0 1 .33-.41z"/><path class="cls-1" d="M90.6 173.33a2.1 2.1 0 0 0-.31.41 1.44 1.44 0 0 1-.25-.18c.13-.18.23-.34.36-.49a.63.63 0 0 1 .2.26zM90.47 226a.47.47 0 0 1-.36.36l-.3.08a.5.5 0 0 1-.13-.56l.13-.21a1.5 1.5 0 0 0 .26-.36h.07a.51.51 0 0 1 .35.63.14.14 0 0 1-.02.06zM90.4 173c-.13.15-.23.31-.36.49a14.66 14.66 0 0 1-2.8-2.82 3.91 3.91 0 0 0 .34-.49c.59.54 1 1.23 1.67 1.77.38.43.84.71 1.15 1.05zM90 173.56a1.44 1.44 0 0 0 .25.18 2.69 2.69 0 0 0-.33.41.54.54 0 0 1-.28-.08zM90 225.28a1.5 1.5 0 0 1-.26.36l-.13.21a46.33 46.33 0 0 1-10.1-1c.18-.35-.28-.69-.59-.51a2.44 2.44 0 0 0-.43.28c-1.46-.33-2.89-.69-4.3-1.1.38-.18.76-.33 1.15-.49 2.23 1.29 6.59 1.41 8.69 1.59a39.94 39.94 0 0 1 5.97.66z"/><path class="cls-1" d="M90 173.56l-.36.51a3.35 3.35 0 0 1-1.21-1 .25.25 0 0 0-.2-.23 17.65 17.65 0 0 1-1.36-1.64 3 3 0 0 0 .36-.51 14.77 14.77 0 0 0 2.77 2.87zM89.78 226.41a17.55 17.55 0 0 1-7.18-.13 24.17 24.17 0 0 1-3.44-1 4.58 4.58 0 0 0 .34-.43v-.06a46.33 46.33 0 0 0 10.1 1 .49.49 0 0 0 .18.62z"/><path class="cls-2" d="M89.68 174.07c-5 7-9.82 14.23-15.66 20.48a.32.32 0 0 0-.08.36 9.19 9.19 0 0 0-1-1.46c4.87-7 10.43-13.48 15.61-20.27a.11.11 0 0 0 0-.08 3.4 3.4 0 0 0 1.13.97z"/><path class="cls-1" d="M88.27 172.89c.1 0 .23.13.2.23l-.15-.15s-.05-.05-.05-.08zM72.48 193.12a1.8 1.8 0 0 0-.39-.39 149.07 149.07 0 0 1 16-19.79s0-.05.1-.05v.11l.15.15a.11.11 0 0 1 0 .08c-5.18 6.77-10.74 13.2-15.61 20.24a2.8 2.8 0 0 0-.25-.35z"/><path class="cls-2" d="M88.24 172.89a.13.13 0 0 0-.1.05 149.07 149.07 0 0 0-16 19.79 6.87 6.87 0 0 0-.76-.67c-.18-.15-.39-.28-.57-.41 3-4.51 7.1-8.28 10.41-12.56q3-3.84 5.71-7.84a17.11 17.11 0 0 0 1.31 1.64z"/><path class="cls-1" d="M87.24 170.74a3 3 0 0 1-.36.51 3.4 3.4 0 0 1-.38-.67v-.15a2.58 2.58 0 0 1 .34-.49c.13-.16 0-.07.07-.12a.5.5 0 0 1 .31.1 3.09 3.09 0 0 1 .39.33 3.5 3.5 0 0 1-.37.49z"/><path class="cls-1" d="M86.88 169.82a.16.16 0 0 1-.07.12 4.83 4.83 0 0 0-.34.49.56.56 0 0 1 .41-.61z"/><path class="cls-1" d="M86.5 170.58a3.4 3.4 0 0 0 .38.67q-2.76 4-5.71 7.84c-3.31 4.28-7.44 8-10.41 12.56l-.51-.33c.08-.12.16-.24.23-.36a.17.17 0 0 1 .1.1l-.07-.15c.15-.2.25-.41.33-.51a34.89 34.89 0 0 1 2.79-3.4c4.87-5.19 8.77-10.81 12.84-16.58 0 .06 0 .14.03.16zM84.83 101.45a1.38 1.38 0 0 0-.36.23.35.35 0 0 1-.07-.5.34.34 0 0 1 .36-.14 4.77 4.77 0 0 1 .51.13 3 3 0 0 0-.44.28zM83 117.42c.16.41.34.82.51 1.23A55.08 55.08 0 0 1 82 131.44a.34.34 0 0 1-.36.3.36.36 0 0 1-.17-.07h-.06a.61.61 0 0 0-.12-.16.26.26 0 0 1 0-.21 77.73 77.73 0 0 0 1.23-14.92c.15.36.3.72.48 1.11z"/><path class="cls-1" d="M83.45 117.63v1c-.17-.41-.35-.82-.51-1.23v-.88c.15.36.33.72.51 1.11z"/><path class="cls-1" d="M83.37 116.65a4.43 4.43 0 0 0 .08 1c-.18-.39-.36-.75-.51-1.11a2.35 2.35 0 0 0-.06-.64.21.21 0 0 1 .19.13c.1.19.2.42.3.62z"/><path class="cls-1" d="M82.88 115.88a.35.35 0 0 0-.4.13 35.22 35.22 0 0 0-.77-5.69.12.12 0 0 1 .12-.12.11.11 0 0 1 .11.07 23.33 23.33 0 0 1 1.43 6.38c-.1-.2-.2-.43-.3-.64a.21.21 0 0 0-.19-.13z"/><path class="cls-1" d="M82.94 116.52v.88c-.18-.39-.33-.75-.48-1.11V116a.35.35 0 0 1 .4-.13 6.17 6.17 0 0 1 .08.65z"/><path class="cls-1" d="M82.48 116.06v.16a.15.15 0 0 1 0-.16zM75.86 128.57a5.23 5.23 0 0 1 0-.56H76c1 .54 2.08 1.18 3.08 1.77a8 8 0 0 1 2.23 1.64.2.2 0 0 0 .12.16h.06a.47.47 0 0 1-.21.63.46.46 0 0 1-.44 0c-1-.62-1.92-1.31-3-1.85a10.93 10.93 0 0 1-2-1.2c0-.16 0-.34.02-.59z"/><path class="cls-1" d="M81.3 131.44a.61.61 0 0 1 .12.16.2.2 0 0 1-.12-.16zM79.58 93.51a.81.81 0 0 1 0-.31l.42.15.1.08c.18.18 0 .56-.26.46h-.1a.68.68 0 0 1-.16-.38z"/><path class="cls-1" d="M79.6 93.2a.81.81 0 0 0 0 .31c-18.86-7.39-39.6-6.13-59.23-2.8a.38.38 0 0 0-.49-.07l-.26.18a.26.26 0 0 1 .21-.26c19.66-4.08 40.83-4.74 59.77 2.64z"/><path class="cls-1" d="M79.58 93.51a.69.69 0 0 0 .18.35C60.25 86.82 40.62 88.4 20.5 91a.41.41 0 0 0-.13-.28c19.63-3.34 40.37-4.6 59.21 2.79zM79.09 224.82l-.56-.13a2.44 2.44 0 0 1 .43-.28c.31-.18.77.16.59.51a.76.76 0 0 0-.46-.1z"/><path class="cls-1" d="M79.55 224.87v.06a4.58 4.58 0 0 1-.34.43l-.59-.15a4.06 4.06 0 0 1 .49-.44c.14.05.29.05.44.1z"/><path class="cls-1" d="M79.09 224.82a4.06 4.06 0 0 0-.49.44 4 4 0 0 0-.67-.21 2.39 2.39 0 0 1 .59-.36z"/><path class="cls-1" d="M78.6 225.21l.59.15a40.25 40.25 0 0 1-2.69 3l-1.25 1.33h-1a.6.6 0 0 0-.25.13c1.53-1.49 2.94-3.11 4.56-4.59z"/><path class="cls-1" d="M77.91 225a4 4 0 0 1 .67.21c-1.62 1.48-3 3.1-4.56 4.59a.65.65 0 0 0-.36.35c-.21.21-.41.39-.64.59a3.87 3.87 0 0 1-.29-.87c.93-.84 1.82-1.69 2.7-2.59a21.42 21.42 0 0 1 2.48-2.28zM78.5 224.64a2.39 2.39 0 0 0-.59.36 8.49 8.49 0 0 0-3.91-.38 1.53 1.53 0 0 1-.9 0 5 5 0 0 0 .1-.66l1-.39c1.41.43 2.8.74 4.3 1.07z"/><path class="cls-1" d="M77.91 225a21.42 21.42 0 0 0-2.48 2.28c-.88.9-1.77 1.75-2.7 2.59-.4-1.72.13-3.51.39-5.28a1.53 1.53 0 0 0 .9 0 8.44 8.44 0 0 1 3.89.41zM75.45 128.11a.48.48 0 0 0-.13.62 22.38 22.38 0 0 0-.12 3.84c-.2-.25-.39-.52-.57-.79a9.59 9.59 0 0 1 .59-4.34c.16-.35.77-.35.72.11a3.53 3.53 0 0 0 0 .46.49.49 0 0 0-.49.1z"/><path class="cls-1" d="M75.86 128.57v.67a1.67 1.67 0 0 1-.46-.42s-.08-.07-.08-.12a2.74 2.74 0 0 1 .13-.62.48.48 0 0 1 .46-.1 5.63 5.63 0 0 0-.05.59z"/><path class="cls-1" d="M75.4 128.82a1.84 1.84 0 0 0 .44.39c-.08 1.38-.08 2.77-.18 4.18a.46.46 0 0 1-.8.3c-2.53-3.15-4.33-6.84-6.33-10.4a4.33 4.33 0 0 0 0-.72c2.13 3.41 3.74 6.92 6.15 10.2v.67l.39-.11a.44.44 0 0 0 .08.11v-.13a3.48 3.48 0 0 0 .41-.1 5.11 5.11 0 0 1-.41-.62 22.38 22.38 0 0 1 .12-3.84.15.15 0 0 0 .13.07z"/><path class="cls-1" d="M75.2 132.57a5.11 5.11 0 0 0 .41.62 1.89 1.89 0 0 0-.41.1zM75.45 128.11a4.56 4.56 0 0 1-.13.62.48.48 0 0 1 .13-.62zM74.2 223.54l-1 .39v-.36a.51.51 0 0 0-.13-.34c.51-.2 1-.43 1.54-.66a2.28 2.28 0 0 0 .67.48c-.28.16-.7.31-1.08.49zM74.55 230.39c-.17.2-.38.38-.56.56a.65.65 0 0 1-.33-.8c.13-.1.23-.23.36-.35a.46.46 0 0 1 .23-.06h1a7.18 7.18 0 0 1-.7.65zM75.2 133.29v.13a.44.44 0 0 1-.08-.11zM75.2 132.57v.72h-.08c-.16-.18-.28-.38-.44-.56s0-.67-.05-1a7.76 7.76 0 0 0 .57.84z"/><path class="cls-1" d="M74.68 132.75c.16.18.28.38.44.56l-.39.11c-.02-.23-.02-.42-.05-.67zM74.63 131.82a7.11 7.11 0 0 0 .05 1c-2.41-3.28-4-6.79-6.15-10.2v-.51a.42.42 0 0 0-.13-.21.08.08 0 0 1 .07 0c2.24 3.16 3.98 6.65 6.16 9.92zM74.58 222.49l.08.08c-.52.23-1 .46-1.54.66a.63.63 0 0 0-.54-.15 1.28 1.28 0 0 1 .21-.46c.43-.16.84-.34 1.25-.51a1.71 1.71 0 0 1 .54.38zM72.56 193.91c6.79 7.48-8.57 17.2-12.1 13.38a3.5 3.5 0 0 0 1.66.23c.08 0 .11-.1 0-.1a.74.74 0 0 1-.21 0l-.23-.16c5.1 1.82 15.72-7 10.56-12.94z"/><path class="cls-1" d="M60.46 207.29c3.53 3.82 18.89-5.9 12.1-13.38a4.08 4.08 0 0 1 .28-.44 9.19 9.19 0 0 1 1 1.46c2 3.64.15 7.82-3.62 10.85-1.71 1.38-10.12 5.59-10.66 1.07a2.7 2.7 0 0 0 .9.44zM74 222.11c-.41.17-.82.35-1.25.51a1 1 0 0 1 1.25-.51zM74 229.82c-.13.12-.23.25-.36.35a.65.65 0 0 1 .36-.35z"/><path class="cls-1" d="M74 231c-.33.33-.69.67-1 1a.84.84 0 0 1-1.19 0 1 1 0 0 1-.12-.15 6 6 0 0 1-.36-1h.06c.38-.07.3-.59 0-.71l-.21-.08a11.94 11.94 0 0 1 .69-5.46l.77-.31c-.49 1.95-1.08 4.46-.56 6.33l-.26.23a1.91 1.91 0 0 1 .33.06c.08.17.16.35.26.53l.51-.43a.89.89 0 0 1 .23 0l-.07-.18c.23-.2.43-.38.64-.59a.64.64 0 0 0 .28.76zM72.61 224.08a1 1 0 0 1-.11-.62l.62-.23a.51.51 0 0 1 .13.34v.36l-.56.23a.16.16 0 0 1-.08-.08z"/><path class="cls-1" d="M72.66 224.16l.56-.23a5 5 0 0 1-.1.66.68.68 0 0 1-.46-.43zM73.12 223.23l-.62.23c0-.13 0-.26.08-.38a.63.63 0 0 1 .54.15zM73 230.74l.07.18h-.23z"/><path class="cls-1" d="M73 230.74l-.16.16a6.48 6.48 0 0 0-.77-.1.45.45 0 0 0-.07-.29c.25-.2.48-.43.71-.64a3.87 3.87 0 0 0 .29.87z"/><path class="cls-1" d="M72.86 230.9l-.51.43c-.1-.18-.18-.36-.26-.53a6.48 6.48 0 0 1 .77.1zM72.48 193.12a3 3 0 0 1 .36.35 4.08 4.08 0 0 0-.28.44 2.6 2.6 0 0 0-.36-.38 1.65 1.65 0 0 1 .28-.41zM72.66 224.16a.68.68 0 0 0 .46.43c-.26 1.77-.79 3.56-.39 5.28-.23.21-.46.44-.71.64-.52-1.87.07-4.38.56-6.33zM72.27 194.27c5.16 5.89-5.46 14.76-10.56 12.94h-.1l-.9-.51a3.09 3.09 0 0 1-.61-.64.23.23 0 0 0-.21-.13c-2.87-4.72 1.87-17.87 9.81-13.59a10.07 10.07 0 0 1 1.85 1.26c-.1.12-.18.28-.28.4-.41.57.54 1.11.9.54a.52.52 0 0 0 .1-.27zM72.66 224.16h-.08v-.1a.16.16 0 0 0 .08.1z"/><path class="cls-1" d="M72.61 224.08v.1l-.77.31c.13-.31.23-.62.36-.9a1 1 0 0 0 .3-.13 1 1 0 0 0 .11.62z"/><path class="cls-1" d="M72.79 222.62a1.28 1.28 0 0 0-.21.46.37.37 0 0 0-.28.23.94.94 0 0 0-.1.28 32.36 32.36 0 0 1-11.46 2.67 17.92 17.92 0 0 1-6.51-1.26 3.8 3.8 0 0 0-1.72-1.62 19.62 19.62 0 0 0 14.35 1.28c1.95-.61 3.95-1.25 5.93-2.04zM72.56 193.91l-.29.36a1.61 1.61 0 0 0-.33-.36 2 2 0 0 1 .26-.38 2.6 2.6 0 0 1 .36.38z"/><path class="cls-1" d="M72.58 223.08c0 .12-.06.25-.08.38a1 1 0 0 1-.3.13.94.94 0 0 1 .1-.28.37.37 0 0 1 .28-.23zM72.48 193.12a1.65 1.65 0 0 0-.28.41 2.86 2.86 0 0 0-.41-.36c.1-.16.2-.29.3-.44a1.8 1.8 0 0 1 .39.39zM71.94 193.91a1.61 1.61 0 0 1 .33.36.82.82 0 0 1-.12.2c-.36.57-1.31 0-.9-.54.1-.12.18-.28.28-.4z"/><path class="cls-1" d="M72.2 193.53a2 2 0 0 0-.26.38l-.41-.38c.08-.13.18-.24.26-.36a2.86 2.86 0 0 1 .41.36zM71.33 192.06a6.87 6.87 0 0 1 .76.67c-.1.15-.2.28-.3.44a8.2 8.2 0 0 0-1.34-1l-.15-.11a.49.49 0 0 0 .36-.23.64.64 0 0 1 .1-.13 6 6 0 0 1 .57.36zM72 230.51a.45.45 0 0 0 .07.29 1.91 1.91 0 0 0-.33-.06zM72.17 223.59c-.13.28-.23.59-.36.9-5.66 2.15-11.92 3.69-17.66 1.31-.46-.21-.92-.41-1.38-.64a3.74 3.74 0 0 0 1.2.12.23.23 0 0 0 .23-.23 17.92 17.92 0 0 0 6.51 1.23 32.36 32.36 0 0 0 11.46-2.69z"/><path class="cls-1" d="M71.79 193.17c-.08.12-.18.23-.26.36a10.07 10.07 0 0 0-1.85-1.26c-7.94-4.27-12.68 8.87-9.81 13.55a.3.3 0 0 0-.31.28v.07c-3.33-4.46 1.64-19 10-14.63v.2a.55.55 0 0 0 .67.23l.15.11a8.29 8.29 0 0 1 1.41 1.09zM71.2 230.39a1.32 1.32 0 0 1-.08-.44l.21.08c.3.12.38.64 0 .71h-.06a.84.84 0 0 1-.07-.35z"/><path class="cls-1" d="M71.2 230.39a.84.84 0 0 0 .07.35c-4.61.9-9.94.06-14.56-.59-2.22-.3-6.43-.2-8.1-2 .11-.05.18-.13.13-.26a1.32 1.32 0 0 1-.07-.23.4.4 0 0 1 .1-.15c0-.08.18-.1.2 0 .69 1.61 7.64 1.43 9.28 1.59 4.13.38 8.9-.46 12.87.87a1.25 1.25 0 0 0 .08.42z"/><path class="cls-6" d="M71.81 224.49a11.94 11.94 0 0 0-.69 5.46c-4-1.33-8.74-.49-12.87-.87-1.64-.16-8.59 0-9.28-1.59 0-.1-.18-.08-.2 0a.4.4 0 0 0-.1.15 1.66 1.66 0 0 1-.11-.38c.59-.9 1.16-1.79 1.69-2.64a.44.44 0 0 0 .08-.25c.82.25 1.62.61 2.44.82.46.23.92.43 1.38.64 5.74 2.35 12 .81 17.66-1.34z"/><path class="cls-1" d="M70.25 191.32l.51.33a.64.64 0 0 0-.1.13.49.49 0 0 1-.36.23c-.26-.15-.51-.3-.77-.43a.47.47 0 0 1 .1-.57z"/><path class="cls-1" d="M69.63 191a.59.59 0 0 1 .83 0c-.07.12-.15.24-.23.36zM70.3 192a.55.55 0 0 1-.67-.23v-.2c.16.14.37.25.67.43zM69 142.16zm.69-.75c1 .93-.48 2.34-1.43 1.44-3.31-3.13-8.72-2.54-10.43 2.1-.28.77-1.49.44-1.23-.36 1.76-5.23 9-7.18 13.08-3.18zM69.63 191a.47.47 0 0 0-.1.57c-8.33-4.39-13.3 10.17-10 14.63a2.29 2.29 0 0 0 0 .64c-2.51-1.89-1.72-7.38-.64-10.07 1.98-4.77 6.18-7.95 10.74-5.77zM69 142.21s0-.05 0 0zM68.22 122.73c.11.18.21.36.31.54a55.37 55.37 0 0 1-1.15 11.12.35.35 0 0 1-.44.23l-.1-.05a.25.25 0 0 1-.1-.18c-.62-4.07 1.07-8.23 1.15-12.33v.08z"/><path class="cls-1" d="M68.53 122.55a4.33 4.33 0 0 1 0 .72c-.1-.18-.2-.36-.31-.54s0-.46 0-.69c.08.17.21.33.31.51z"/><path class="cls-1" d="M68.51 122v.51c-.1-.18-.23-.34-.33-.51v.69l-.3-.54v-.08a.29.29 0 0 1 0-.13v-.05a.21.21 0 0 1 .26 0h.13a.4.4 0 0 1 .24.11zM68.38 121.82zM68 121.82v0z"/><path class="cls-1" d="M67.92 121.91a.29.29 0 0 0 0 .13c-.06-.04-.06-.04 0-.13zM58 122.7a2 2 0 0 0-.16-.49h-.09a1 1 0 0 0-.23-.35 2 2 0 0 1 .26-.24c1.61 1.57 2.56 4.18 3.69 6a34 34 0 0 0 5.41 7 3.45 3.45 0 0 0 .26.28c.25.26-.08.62-.39.49-2.79-1.28-4.54-3.77-5.95-6.41-.74-1.36-1.71-2.84-2.48-4.38a6.83 6.83 0 0 0-.32-1.9zM62.15 207.42c.08 0 .05.1 0 .1a3.5 3.5 0 0 1-1.66-.23 1.43 1.43 0 0 1-.41-.56 3 3 0 0 0 2.07.74l-.18-.1z"/><path class="cls-1" d="M61.94 207.37l.18.1a3 3 0 0 1-2.07-.74 3.19 3.19 0 0 1-.21-.59l.41.23a2.87 2.87 0 0 0 1.69 1z"/><path class="cls-1" d="M61.71 207.21l.23.16a2.85 2.85 0 0 1-1.66-1l.43.26a3.48 3.48 0 0 0 .9.51.37.37 0 0 0 .1.07z"/><path class="cls-1" d="M60.71 206.65l.9.51a3.48 3.48 0 0 1-.9-.51zM60.71 206.65l-.43-.26a2.47 2.47 0 0 1-.36-.49.23.23 0 0 1 .21.13 3.1 3.1 0 0 0 .58.62z"/><path class="cls-1" d="M60.25 206.37l-.41-.23a3.19 3.19 0 0 0 .21.59 4.79 4.79 0 0 1-.49-.52v-.07a.3.3 0 0 1 .31-.28 3.07 3.07 0 0 0 .38.51z"/><path class="cls-1" d="M60.05 206.73a1.43 1.43 0 0 0 .41.56 2.46 2.46 0 0 1-.85-.44 2.29 2.29 0 0 1 0-.64 4.32 4.32 0 0 0 .44.52zM53.33 140.18a.92.92 0 0 1-.08.46 1.61 1.61 0 0 0 .36-.1 1.2 1.2 0 0 0 .18.26.67.67 0 0 1 .05-.31 1.61 1.61 0 0 1 .36-.1l-.28-.39c1-5.35 3.82-11.33 3.9-16.32.15.3.28.61.46.92a20.59 20.59 0 0 1-1 5.66c-1 3.57-2.12 7.08-2.89 10.69a.6.6 0 0 1-.74.41.61.61 0 0 1-.26-.15 13.2 13.2 0 0 1-1.23-1.82 8.52 8.52 0 0 0-1.16-3.64.2.2 0 0 0-.25-.09.2.2 0 0 0-.11.17 17 17 0 0 1-.74-3.93.16.16 0 0 1 .3-.1c1.23 2.49 1.87 5.23 3.33 7.56a3.28 3.28 0 0 0-.2.82zM57.51 182.53a1.8 1.8 0 0 0 .08-.21.2.2 0 0 0-.14-.23h-.07c-.38-1.36-.77-2.79-1.18-4.27a.51.51 0 0 0 .44.21.66.66 0 0 0 .28 0c.49 1.52.92 3 1.33 4.62a.69.69 0 0 1-.49.85.71.71 0 0 1-.69-.21 2.9 2.9 0 0 0 .44-.76z"/><path class="cls-1" d="M58 122.7a6.83 6.83 0 0 1 .28 1.9c-.18-.31-.31-.62-.46-.92a7.5 7.5 0 0 0 0-1.34 1.52 1.52 0 0 1 .18.36z"/><path class="cls-1" d="M57.77 122.29h-.06a.07.07 0 0 1 .09 0c0 .16.13.34.16.49a1.69 1.69 0 0 0-.19-.49zM57.82 123.63c-.08 5-2.9 11-3.9 16.32-.15-.2-.31-.43-.44-.64.54-2.79 1.52-5.48 2.31-8.23s1.05-5.48 1.75-8.17a3.7 3.7 0 0 0 .28.72z"/><path class="cls-1" d="M57.77 122.29a7.5 7.5 0 0 1 0 1.34 3.27 3.27 0 0 1-.28-.67c0-.23.1-.49.17-.72.11.03.11.03.11.05zM57.74 121.62a2 2 0 0 0-.26.24 6.1 6.1 0 0 0-.41-.7 5.34 5.34 0 0 1 .67.46z"/><path class="cls-1" d="M57.71 122.21c-.07.23-.12.49-.17.72a5.29 5.29 0 0 1-.31-.87.61.61 0 0 1 .25-.23 1.14 1.14 0 0 1 .23.38zM57.38 182.09a.19.19 0 0 1 .21.16.08.08 0 0 1 0 .07 1.8 1.8 0 0 1-.08.21c-.05-.13-.08-.28-.13-.44z"/><path class="cls-1" d="M56.87 182.82c0-.15-.09-.31-.13-.46l.56-.26h.08a1.25 1.25 0 0 0 .13.44 2.57 2.57 0 0 1-.44.77.53.53 0 0 1-.15-.26.59.59 0 0 1-.05-.23zM57.07 121.16a6.1 6.1 0 0 1 .41.7.61.61 0 0 0-.25.23 5.09 5.09 0 0 1-.23-.85s.05-.08.07-.08z"/><path class="cls-1" d="M57.38 182.09h-.08l-.56.26c-.49-1.67-.87-3.36-1.33-5s-.59-3.36-1.08-5c.66 1.61 1.23 3.36 1.76 5.13v.05a.44.44 0 0 0 .08.25c.44 1.52.83 2.95 1.21 4.31z"/><path class="cls-9" d="M57.23 122.09a5.29 5.29 0 0 0 .31.87c-.7 2.69-.95 5.48-1.75 8.17a82.17 82.17 0 0 0-2.31 8.23c-1.48-2.33-2.1-5.07-3.33-7.54a.16.16 0 0 0-.22-.07.16.16 0 0 0-.08.17 16.79 16.79 0 0 0 .74 3.9v.1a77 77 0 0 1 .41 10.19c.11 4.15 1.08 8.27 1.8 12.35a18.78 18.78 0 0 1-4.69-1.46c-1.57-.69-2.87-1.82-4.41-2.59-.1-.38-.18-.77-.26-1.18s-.56-.26-.56.08c-.08 2.53.84 4.79 1.43 7.17a71 71 0 0 1-10-14.76c7.56-7.9 14.54-16.61 22.92-23.63z"/><path class="cls-1" d="M57 121.24a5.09 5.09 0 0 0 .23.85c-8.38 7-15.36 15.73-22.89 23.63-.11-.2-.23-.44-.34-.67 2.08-2.23 4.13-4.48 6.21-6.69 3.71-3.94 7.38-8 11.07-12a57.9 57.9 0 0 1 5.72-5.12zM57.12 121.11v-.07s-.02.05 0 .07zM57 121.09v.07c0 .07 0 0-.07.06a.2.2 0 0 1 0-.11s.07-.05.07-.02zM56.92 183a.53.53 0 0 0 .15.26 6.17 6.17 0 0 1-2.41 1.82 1.62 1.62 0 0 0 0-.44.27.27 0 0 0-.34-.18l-.09.05a2.52 2.52 0 0 0-.67 1 30 30 0 0 1-3.2.93l-.49.1a3 3 0 0 0-.36-.18c-.31-.13-.72.1-.61.44a25.31 25.31 0 0 1-9 .79.44.44 0 0 1-.37-.5.35.35 0 0 1 0-.11.39.39 0 0 0 .06.25c.07.39.71.36.79 0v-.1c4.12.08 13.27-1.44 16.48-4.38a.54.54 0 0 0 .06.25zM56.77 177.53a2.38 2.38 0 0 0 .15.51.66.66 0 0 1-.28 0 .48.48 0 0 1-.44-.22l-.08-.25a.54.54 0 0 1 .49-.52 4.24 4.24 0 0 0 .16.48z"/><path class="cls-1" d="M56.74 182.38c0 .15.08.31.13.46-3.21 2.94-12.36 4.46-16.48 4.38a2.15 2.15 0 0 1 .12-.56 59 59 0 0 0 8.57-1.23 45.12 45.12 0 0 0 7.66-3.05zM56.61 177a.54.54 0 0 0-.49.52c-.53-1.77-1.1-3.52-1.76-5.13a33.28 33.28 0 0 1 2.25 4.61zM56.12 177.61l.08.25a.44.44 0 0 1-.08-.25zM52.82 190.32v.1a.29.29 0 0 0 .13 0c.16.14.32.28.49.41a2.19 2.19 0 0 0 .23-.49H54a.91.91 0 0 1-.21-.18c.54-1.54.1-3.23.44-4.74l.48-.23a19.62 19.62 0 0 1 .06 2.87 7 7 0 0 1-.67 3.18.73.73 0 0 1-1 .25.71.71 0 0 1-.14-.1 17.32 17.32 0 0 1-4-4.28V187l1-.26a16.31 16.31 0 0 1 3.25 2.9 2.43 2.43 0 0 1-.39.68z"/><path class="cls-1" d="M54.18 185.35c-.21.08-.44.18-.67.25a2.52 2.52 0 0 1 .67-1 .27.27 0 0 1 .43.13 1.62 1.62 0 0 1 0 .44zM53.92 140l.28.39a1.61 1.61 0 0 0-.36.1c.03-.15.06-.31.08-.49zM53.43 224.75c.26.1.49.2.75.28a.23.23 0 0 1-.21.25 3.74 3.74 0 0 1-1.2-.12 30.63 30.63 0 0 1-3.49-1.85 19.61 19.61 0 0 1 2.69.77.21.21 0 0 1 .13 0 10.5 10.5 0 0 0 1.08.49.68.68 0 0 1 .25.18z"/><path class="cls-1" d="M54.18 225c-.26-.08-.49-.18-.75-.28a.75.75 0 0 0-.25-.13 7.46 7.46 0 0 0-1.08-.49.21.21 0 0 0-.13 0 31.41 31.41 0 0 1-2.89-1.62 13 13 0 0 1 3.07.75l.31.15a3.8 3.8 0 0 1 1.72 1.62zM53.51 185.6c.23-.07.46-.17.67-.25-.34 1.51.1 3.2-.44 4.74a7.1 7.1 0 0 1-.67-.56c.29-1.26.03-2.71.44-3.93zM54 190.27h-.31a.67.67 0 0 0 .1-.23 1.15 1.15 0 0 0 .21.23zM53.92 140a2.39 2.39 0 0 1-.08.49h-.23a.9.9 0 0 1-.28-.36c.05-.28.08-.56.15-.82a3.73 3.73 0 0 0 .44.69zM53.84 140.49a.67.67 0 0 1-.05.31 1.2 1.2 0 0 1-.18-.26z"/><path class="cls-1" d="M53.74 190.09a.67.67 0 0 1-.1.23l-.72.08-.08-.08a2.8 2.8 0 0 0 .25-.79c.21.2.42.38.65.56z"/><path class="cls-1" d="M53.64 190.32a2.19 2.19 0 0 1-.23.49c-.17-.13-.33-.27-.49-.41zM53.61 157.1v.41l-.43.13v-.39zM53.59 156.64a3.53 3.53 0 0 1 0 .46l-.46.15a3.09 3.09 0 0 0 0-.43 3.66 3.66 0 0 0 .46-.18zM53.61 140.54a1.61 1.61 0 0 1-.36.1 4 4 0 0 1 .08-.46.9.9 0 0 0 .28.36zM53.18 157.64l.43-.13v1.1a.41.41 0 0 0-.18-.05h-.18c-.05-.33-.05-.56-.07-.92z"/><path class="cls-1" d="M53.59 156.64a4.09 4.09 0 0 1-.49.18c-.31-3.56-1.23-7.15-1.38-10.71-.16-2.34 0-5.8-.39-8.28a11.59 11.59 0 0 0 .82 1.56c.21 1.9.08 3.9.18 5.64.26 3.97 1.21 7.71 1.26 11.61zM53.56 158.64c.57.26.23 1.26-.51 1.13a24.18 24.18 0 0 1-4.26-1.16 3.25 3.25 0 0 0 .52-.28c.07 0 .07-.13 0-.18a19 19 0 0 0 3.56 1v.12c.07.34.53.21.56-.07s.11-.38.13-.56z"/><path class="cls-1" d="M53.56 158.61a2 2 0 0 1-.05.54c0 .18-.49.41-.56.07v-.12h.31a3.42 3.42 0 0 0 0-.64h.18a.44.44 0 0 1 .12.15z"/><path class="cls-8" d="M53.51 185.6c-.41 1.18-.15 2.67-.44 3.93a16.31 16.31 0 0 0-3.25-2.9l.49-.1a30 30 0 0 0 3.2-.93z"/><path class="cls-1" d="M53.2 158.54a3.42 3.42 0 0 1 0 .64h-.31c0-.23-.08-.44-.1-.67z"/><path class="cls-1" d="M53.18 157.64v.9l-.38-.08c-.72-4.08-1.69-8.2-1.8-12.35a76.93 76.93 0 0 0-.46-10.18v-.1a13 13 0 0 0 .77 2 .06.06 0 0 1 0 .06c.41 2.48.23 5.94.39 8.28.15 3.56 1.07 7.15 1.38 10.71l-.18.08a.38.38 0 0 0-.2.51.39.39 0 0 0 .43.23z"/><path class="cls-1" d="M53.15 157.25v.39a.4.4 0 0 1-.46-.31.39.39 0 0 1 .23-.43l.18-.08a2 2 0 0 1 .05.43zM52.82 158.46c0 .23.08.44.1.67a19 19 0 0 1-3.56-1h-.23a19.74 19.74 0 0 1-5.33-3.31 2.87 2.87 0 0 0-.08-.38c1.54.77 2.84 1.9 4.41 2.59a18.84 18.84 0 0 0 4.69 1.43zM52.9 190.4h-.13v-.1zM52.1 224.13a7.46 7.46 0 0 1 1.08.49 10.5 10.5 0 0 1-1.08-.49zM52.15 223.21a13 13 0 0 0-3.07-.75c-.77-.51-1.54-1-2.28-1.56a43.68 43.68 0 0 1-9.41-9.25c.07-.26.1-.54.15-.8a.28.28 0 0 0 0-.25 33.32 33.32 0 0 0 6.89 7.48 39.1 39.1 0 0 0 7.72 5.13zM51.31 137.82a14.47 14.47 0 0 1-.72-2 .19.19 0 0 1 .2-.19.21.21 0 0 1 .16.11 8.57 8.57 0 0 1 1.2 3.64 11.59 11.59 0 0 1-.82-1.56zM52.77 225.16c-.82-.21-1.62-.57-2.44-.82a.53.53 0 0 0-.53-.53.5.5 0 0 0-.24.06 1.86 1.86 0 0 0-.28.21 35.17 35.17 0 0 0-4.56-.72 3.53 3.53 0 0 0 0-.46.36.36 0 0 0-.31-.23 32.21 32.21 0 0 1 4.9.64 30.22 30.22 0 0 0 3.46 1.85z"/><path class="cls-1" d="M45.21 230.31c-.12-.21-.24-.42-.34-.64 1.62-1.72 2.46-4.28 4.41-5.59l.51.13a2.5 2.5 0 0 1 .54.13.44.44 0 0 1-.08.25c-.53.85-1.1 1.74-1.69 2.64a2 2 0 0 0-.07-.31c0-.11-.34-.17-.36 0a1.64 1.64 0 0 0 0 .88 14.06 14.06 0 0 1-3.13 3.53.66.66 0 0 1-.9-.19 7.77 7.77 0 0 1-.92-4.43 9.31 9.31 0 0 1 .51-3.39h.08a3.4 3.4 0 0 1 .46.06c-.49 1.79-.75 4.92.1 6.81a.27.27 0 0 1-.13.13h.23a2 2 0 0 0 .23.46 1.59 1.59 0 0 0 .41-.36h.18s-.02-.06-.04-.11z"/><path class="cls-1" d="M50.33 224.34a2.5 2.5 0 0 0-.54-.13l-.51-.13a1.86 1.86 0 0 1 .28-.21.53.53 0 0 1 .77.47zM49.08 222.46a31.91 31.91 0 0 0 2.92 1.62 19.61 19.61 0 0 0-2.69-.77l-1.59-1zM49.46 186.45l.36.18c-.33.1-.64.18-1 .26-.08-.34.33-.57.64-.44zM48.33 158.41l-.69-.31a2.78 2.78 0 0 1 1.46 0l.23.07v.18a3.25 3.25 0 0 1-.52.28c-.17-.09-.32-.14-.48-.22zM49.36 158.15l-.23-.07a.38.38 0 0 1 .15 0zM47.67 222.28a12.61 12.61 0 0 0 1.59 1 32.21 32.21 0 0 0-4.9-.64h-.1c-3.21-.23-6.44-.2-8.82-.2v-.08s.06-.23.08-.33a40 40 0 0 1 11.46.18zM45.38 161.15c1.67 1.1 3.75 3 3.57 5a.28.28 0 0 1-.41.23l.15-.23a.88.88 0 0 1 .08-.11.57.57 0 0 0-.23-.76.6.6 0 0 0-.23-.06 12.64 12.64 0 0 0-2.82-3.4 4.93 4.93 0 0 0-.11-.67z"/><path class="cls-1" d="M49.1 158.08a2.78 2.78 0 0 0-1.46 0 11.27 11.27 0 0 1-3.64-2.59 3.66 3.66 0 0 0-.15-.7 19.66 19.66 0 0 0 5.25 3.29zM48.31 165.25a.56.56 0 0 1 .52.59.46.46 0 0 1-.06.23.88.88 0 0 1-.08.11 3.44 3.44 0 0 0-.38-.93zM48.33 158.41c.16.08.31.13.46.2a11.29 11.29 0 0 1-3.71.87v-.17a30.68 30.68 0 0 1 3.25-.9zM48.74 227.87c0 .13 0 .21-.13.26a.33.33 0 0 1 0-.36.69.69 0 0 0 .11-.13.35.35 0 0 0 .02.23z"/><path class="cls-1" d="M48.18 165.94a2 2 0 0 1-.33-.43l.07-.08a.5.5 0 0 1 .39-.18 3.44 3.44 0 0 1 .38.93l-.15.23v-.06a2.86 2.86 0 0 1-.36-.41zM48.36 227.57v-.06a2.43 2.43 0 0 0 .2-.25 1.66 1.66 0 0 0 .11.38.69.69 0 0 1-.11.13.33.33 0 0 0 0 .36.27.27 0 0 1-.35-.12l-.08-.2a1.24 1.24 0 0 0 .23-.24z"/><path class="cls-1" d="M48.36 227.51v.06c0 .07-.13.15-.18.23a1.64 1.64 0 0 1 0-.88c0-.17.3-.15.36 0s0 .21.07.31a2.18 2.18 0 0 1-.25.28zM48.49 166.35v.06a46.38 46.38 0 0 0-5.72 10.22c-1.2 3.34-1.56 6.64-2.31 10H40a23 23 0 0 1 .21-3.1 3 3 0 0 1 .46-.34.27.27 0 0 0 .05-.39.28.28 0 0 0-.33-.09h-.08a36.33 36.33 0 0 1 7.87-16.9 3.17 3.17 0 0 0 .31.54zM47.64 158.1l.69.31a31.56 31.56 0 0 0-3.3.9v-.16a10 10 0 0 1 2.61-1.05zM47.08 164a.29.29 0 0 0 0-.13.31.31 0 0 0-.06-.16l-.12-.07a.38.38 0 0 0-.41 0c-.36-.44-.77-.85-1.13-1.28a.28.28 0 0 0 .2-.34.54.54 0 0 0 0-.18 12.68 12.68 0 0 1 2.82 3.41.5.5 0 0 0-.39.18l-.07.08c-.31-.41-.59-.82-.93-1.23a.37.37 0 0 0 .13-.28z"/><path class="cls-1" d="M47.85 165.51a2 2 0 0 0 .33.43 36.35 36.35 0 0 0-7.87 16.88c-.33.2-.64.41-1 .64.44-6.52 4.41-13.41 8.54-17.95zM49.08 222.46l-1.41-.18a46.19 46.19 0 0 1-9.56-8.58 9.07 9.07 0 0 1-.88-1.16c.06-.3.11-.58.16-.89a43.68 43.68 0 0 0 9.41 9.25c.74.54 1.51 1.1 2.28 1.56z"/><path class="cls-7" d="M47.67 222.28l-.67-.07a40 40 0 0 0-11.46-.21c.41-1.8.51-3.62.82-5.43.26-1.36.59-2.7.87-4.06a9.07 9.07 0 0 0 .88 1.16 46.19 46.19 0 0 0 9.56 8.61z"/><path class="cls-1" d="M47.08 164a.29.29 0 0 0 0-.13.29.29 0 0 1 0 .13zM47 163.87a.29.29 0 0 1 0 .13.37.37 0 0 1-.13.28.86.86 0 0 0-.23-.33c.11-.08.18-.16.28-.24a.3.3 0 0 1 .08.16z"/><path class="cls-1" d="M47 163.71c-.1.08-.17.16-.28.24a.68.68 0 0 0-.18-.26v-.05a.38.38 0 0 1 .41 0zM46.67 164a.86.86 0 0 1 .23.33c-1 1.05-2.18 2-3.28 3a8.5 8.5 0 0 1-2.61 2 .45.45 0 0 1-.54-.34.34.34 0 0 1 0-.2 1.2 1.2 0 0 1 .13-.33c.13.1.36 0 .28-.15l-.08-.21a8.27 8.27 0 0 1 2.21-2 28.13 28.13 0 0 1 3.41-2.33v.05a.58.58 0 0 1 .25.18zM29.54 125.24h-.05a2.13 2.13 0 0 0-.72-.77c.06 0 .08 0 .13-.07s.13-.44-.1-.41a1.41 1.41 0 0 0-.41 0 6.16 6.16 0 0 1-.84-2.39.24.24 0 0 0 .25-.23v-.26c.95 4.33 5.36 6 9.62 5.56a32.43 32.43 0 0 0 4.91-.8c2.18-.12 2.16-1.51 0-4.12-4-1.11-7.38-.72-11.4-.16a.24.24 0 0 1-.28-.19.24.24 0 0 1 .15-.27l.26-.08c4.69-1.46 10.66-1.76 14.68 1.47 2.46 2-1.92 4-3.15 4.25-4.33 1-8.82 1.28-12.76-.92a2.29 2.29 0 0 0-.29-.61zM45.08 162a.2.2 0 0 0 0-.11 1.92 1.92 0 0 0 .31-.18.8.8 0 0 0 .13.13.54.54 0 0 1 0 .18.28.28 0 0 1-.2.34c-.13-.13-.23-.29-.33-.41z"/><path class="cls-1" d="M45.38 161.15a5.5 5.5 0 0 1 .11.69.8.8 0 0 1-.13-.13c-.13-.15-.26-.3-.38-.46a3.1 3.1 0 0 1 0-.43 2.57 2.57 0 0 0 .4.33z"/><path class="cls-9" d="M45.31 162.36c.36.43.77.84 1.13 1.28A28.46 28.46 0 0 0 43 166a8.44 8.44 0 0 0-2.21 2c-.48-1.25-1.2-2.41-1.79-3.59a52.09 52.09 0 0 1-2.18-5.18.41.41 0 0 0 .1-.13c.16-.23-.18-.44-.36-.28a1.12 1.12 0 0 0-.2.18c-2.36 2-3.72 4.71-5.59 7.07-2.18-4.59-2-9.43-2.56-14.35a10.66 10.66 0 0 0 1.12-1c-1.07 5.13 6.24 7.13 10.44 6.85a.54.54 0 0 0 .28-.08 35 35 0 0 0 4.72 4.87.48.48 0 0 0 .54 0z"/><path class="cls-1" d="M45 161.25c.12.16.25.31.38.46-.13-.1-.23-.23-.36-.33z"/><path class="cls-1" d="M45.36 161.71a1.92 1.92 0 0 1-.31.18 2.17 2.17 0 0 0 0-.51 1.88 1.88 0 0 0 .31.33zM45 162c.1.12.2.28.33.41a.48.48 0 0 1-.54 0 35 35 0 0 1-4.72-4.87.5.5 0 0 0 .34-.53 47.15 47.15 0 0 0 4.15 4.56c0 .21.1.44.13.65zM44.72 223.36a35.17 35.17 0 0 1 4.56.72c-2 1.31-2.79 3.87-4.41 5.59a9.2 9.2 0 0 1-.46-3.41c.03-.93.36-1.98.31-2.9zM45.21 230.31a.17.17 0 0 0 .07.13h-.18a.3.3 0 0 0 .11-.13z"/><path class="cls-1" d="M45.21 230.31a.1.1 0 0 1-.11.1 4.72 4.72 0 0 1-.64-.1c-.08-.05-.08-.1-.1-.16a3.86 3.86 0 0 0 .51-.48c.13.22.22.43.34.64zM45.08 159.48a15.79 15.79 0 0 1 .3 1.67c-.15-.13-.28-.2-.43-.31-.39-2.15-1.36-4.12-1.67-6.25.21.31.44.61.67.9.36 1.2.74 2.43 1 3.66l-.16.08c-.13.08-.08.31.08.28z"/><path class="cls-1" d="M45.1 230.41a1.59 1.59 0 0 1-.41.36 2 2 0 0 1-.23-.46 4.72 4.72 0 0 0 .64.1zM45 159.31v.17h-.18a.15.15 0 0 1-.08-.28l.16-.08a.54.54 0 0 1 .1.19zM45.05 161.89a.2.2 0 0 1 0 .11v-.05zM45 161.38a2.17 2.17 0 0 1 0 .51v.11l-.18-.18v-.06a3.54 3.54 0 0 1-.26-.41.75.75 0 0 0-.07-.38.24.24 0 0 1 .15-.13c.13.16.27.31.41.46zM44.82 161.82l.18.18z"/><path class="cls-1" d="M45 161.25c-.14-.15-.28-.3-.41-.46a.24.24 0 0 1 .26 0 .17.17 0 0 0 .1 0 2.4 2.4 0 0 0 .05.46zM45 162l-.31.18a3 3 0 0 0-.13-.65l.23.23v.06z"/><path class="cls-1" d="M43.23 154.15c-.08 0-.18 0-.13.13a1.34 1.34 0 0 0 .18.28c.31 2.13 1.28 4.1 1.67 6.25h-.1a.24.24 0 0 0-.26 0 3.88 3.88 0 0 1-.26-.31c-.59-2.38-1.51-4.64-1.43-7.17 0-.34.51-.44.56-.08a10.93 10.93 0 0 0 .26 1.18 3.43 3.43 0 0 0-.49-.28zM44.87 229.67a3.86 3.86 0 0 1-.51.48c-.85-1.89-.59-5-.1-6.81h.46c.05.92-.28 2-.31 2.9a9.07 9.07 0 0 0 .46 3.43zM44.51 161.3a3.54 3.54 0 0 0 .26.41l-.23-.23a.29.29 0 0 0-.03-.18z"/><path class="cls-1" d="M44.26 223.34a3.4 3.4 0 0 0-.46-.06h-.08a1.77 1.77 0 0 1 .36-.53.42.42 0 0 1 .18-.11h.1a.36.36 0 0 1 .31.23 3.53 3.53 0 0 1 0 .46 2.81 2.81 0 0 0-.41.01zM44.33 160.48a3.88 3.88 0 0 0 .26.31.24.24 0 0 0-.15.13c-.03-.1-.08-.28-.11-.44z"/><path class="cls-1" d="M44.51 161.3a.43.43 0 0 1 0 .16 47.15 47.15 0 0 1-4.15-4.56.06.06 0 0 0 0-.06.54.54 0 0 0-.46-.53A43.11 43.11 0 0 1 34.08 146a1.53 1.53 0 0 0 .26-.31 71 71 0 0 0 10 14.76 2.18 2.18 0 0 0 .11.44.24.24 0 0 0 0 .28z"/><path class="cls-1" d="M44.51 161.3l-.07-.1a.24.24 0 0 1 0-.28c.02.13.05.26.07.38zM44.46 230.31h-.23a.27.27 0 0 0 .13-.13.25.25 0 0 0 .1.13zM44.26 222.64a.42.42 0 0 0-.18.11 1.77 1.77 0 0 0-.36.53c-2.87-.23-5.92.06-8.77-.56l-.05-.05a.47.47 0 0 0 .54-.23c2.38 0 5.61-.03 8.82.2zM43.8 154.82c.05.24.12.47.15.7a15 15 0 0 1-.67-.9 1 1 0 0 1 0-.25 4.87 4.87 0 0 1 .52.45zM43.72 154.41a1.61 1.61 0 0 0 .08.38c-.18-.15-.36-.3-.54-.48a.43.43 0 0 1 0-.16 4.17 4.17 0 0 1 .46.26zM43.26 154.31a1 1 0 0 0 0 .25 1.34 1.34 0 0 1-.18-.28c0-.08 0-.15.13-.13a.3.3 0 0 0 .05.16z"/><path class="cls-11" d="M42.33 121.68c2.16 2.61 2.18 4 0 4.12a32.85 32.85 0 0 1-4.94.82c-4.26.39-8.67-1.23-9.62-5.56a4.93 4.93 0 0 0-.17-1.38 22 22 0 0 1 2.48-11c.69-1.31 6.9-7.41 7.79-5.25 2.47 6-2.35 13.68-6.92 17.14a.25.25 0 0 0 0 .35.24.24 0 0 0 .15.09l-.26.08a.24.24 0 0 0 .13.46c4.03-.55 7.39-.98 11.36.13z"/><path class="cls-1" d="M40.69 168.23a.57.57 0 0 1 .13-.21l.08.21c.08.15-.15.25-.28.15z"/><path class="cls-1" d="M40.82 168a.57.57 0 0 0-.13.21 32.22 32.22 0 0 1-4-8.72l.16-.26a51.86 51.86 0 0 0 2.15 5.2c.62 1.18 1.34 2.39 1.82 3.57zM40.26 183.19a.85.85 0 0 1 .05-.35h.08a.28.28 0 0 1 .37.15.28.28 0 0 1-.09.33 3 3 0 0 0-.46.34 4 4 0 0 1 .05-.47z"/><path class="cls-1" d="M40.69 168.23l-.07.15c-2.26-2.13-3.31-5.56-4.13-8.56 0-.1.13-.21.18-.31a32.27 32.27 0 0 0 4.02 8.72zM40.51 186.66a2.34 2.34 0 0 1-.12.56H40a3.84 3.84 0 0 1 0-.48 2.73 2.73 0 0 1 .51-.08zM39.59 156.9q-.27-.35-.51-.72l.69.08h.13c.15.18.28.35.46.53a.06.06 0 0 1 0 .06.5.5 0 0 1-.34.53 5.33 5.33 0 0 1-.43-.48z"/><path class="cls-1" d="M40.39 187.22v.1c-.08.36-.72.39-.79 0a.39.39 0 0 0-.06-.25.63.63 0 0 1 .47-.33 3.84 3.84 0 0 0 0 .48zM40.36 156.82c-.18-.18-.31-.35-.46-.53a.54.54 0 0 1 .46.53zM40.31 182.82a.85.85 0 0 1-.05.35 4.79 4.79 0 0 0-.92.62 1.82 1.82 0 0 1 0-.33c.33-.21.66-.46.97-.64z"/><path class="cls-1" d="M40.26 183.19v.42a7.08 7.08 0 0 0-.9.74 4.86 4.86 0 0 1 0-.54 5 5 0 0 1 .9-.62zM40.05 157.43a.54.54 0 0 1-.28.08c-4.2.31-11.51-1.69-10.41-6.82a1.22 1.22 0 0 0 .34-.3c-1 5.25 5.76 6.48 9.89 6.51.16.18.28.35.46.53z"/><path class="cls-1" d="M40.21 183.61a23 23 0 0 0-.21 3.1.63.63 0 0 0-.47.33 16.16 16.16 0 0 1-.2-2.69 7.66 7.66 0 0 1 .88-.74zM39.9 156.31h-.13l-.69-.08a37.11 37.11 0 0 1-5.28-9.87l.28-.28a43 43 0 0 0 5.82 10.23z"/><path class="cls-1" d="M39.08 156.18q.24.38.51.72c-4.13 0-10.92-1.26-9.89-6.51a2.55 2.55 0 0 0 .3-.26c-.4 5.13 5 5.69 9.08 6.05zM39.36 183.48a1.82 1.82 0 0 0 0 .33 13.93 13.93 0 0 0-4.16 5.61 45.11 45.11 0 0 0-1.89 6.46 19.62 19.62 0 0 0 3.17 14.41.46.46 0 0 0-.12.23l-.16.46c-5.2-8.51-5.4-21.35 3.16-27.5z"/><path class="cls-1" d="M39.34 183.82a4.86 4.86 0 0 0 0 .54c-5.25 4.69-7.25 14.28-4.74 20.63a30.46 30.46 0 0 0 2.72 5.26.54.54 0 0 0-.76 0 19.62 19.62 0 0 1-3.17-14.41 45.11 45.11 0 0 1 1.89-6.46 14 14 0 0 1 4.06-5.56zM27.42 119a4.28 4.28 0 0 0-.31-.69c.08-1.59.31-3.13.36-4.31.18-4 2.36-6.82 5.15-9.35.87-.8 3.79-4 5.28-3.13 2.36 1.38 1.49 7.2.79 9.23-1.38 4.18-3.69 7.84-7.51 10.15h-.12a.26.26 0 0 1-.1-.34c4.57-3.46 9.39-11.17 6.92-17.14-.89-2.16-7.1 3.94-7.79 5.25a22 22 0 0 0-2.48 11 2.72 2.72 0 0 0-.19-.67z"/><path class="cls-1" d="M36.88 210.88a2.87 2.87 0 0 1-.39-.59.54.54 0 0 1 .76 0 2.39 2.39 0 0 0 .21.34.28.28 0 0 1 0 .25 3.22 3.22 0 0 1-.15.8 4.93 4.93 0 0 1-.43-.8zM37.52 210.6a2.39 2.39 0 0 1-.21-.34.48.48 0 0 1 .21.34z"/><path class="cls-1" d="M36.88 210.88a5.71 5.71 0 0 0 .51.77 4.49 4.49 0 0 1-.16.89 3.65 3.65 0 0 1-.56-.79c.08-.28.13-.59.21-.87zM36.72 159a.26.26 0 0 0-.33 0 1.12 1.12 0 0 1 .2-.18c.18-.16.52 0 .36.28a.41.41 0 0 1-.1.13.69.69 0 0 1-.05-.13.39.39 0 0 0-.08-.1z"/><path class="cls-1" d="M36.88 210.88c-.08.28-.13.59-.21.87a7.71 7.71 0 0 1-.49-.77l.16-.46a.46.46 0 0 1 .12-.23 2.65 2.65 0 0 0 .42.59zM36.67 211.75a3.65 3.65 0 0 0 .56.79c-.28 1.36-.61 2.7-.87 4.06-.31 1.81-.41 3.63-.82 5.43l-.51.08a43.73 43.73 0 0 1 1.64-10.36zM36.85 159.23l-.16.26a2.07 2.07 0 0 1-.1-.33l.15-.18a.39.39 0 0 1 .08.1.4.4 0 0 0 .03.15zM36.72 159l-.15.18a.8.8 0 0 0-.21.2v-.15a.19.19 0 0 1 .08-.23.24.24 0 0 1 .28 0z"/><path class="cls-1" d="M36.57 159.18a2.07 2.07 0 0 0 .1.33c-.05.1-.13.21-.18.31a2.8 2.8 0 0 1-.13-.41.77.77 0 0 1 .21-.23zM36.18 211a7.71 7.71 0 0 0 .49.77A43.77 43.77 0 0 0 35 222.11a.33.33 0 0 0-.18.43v.06a.33.33 0 0 1-.18-.26c-.79-3.52.36-7.92 1.54-11.34z"/><path class="cls-1" d="M36.36 159.41a2.8 2.8 0 0 0 .13.41 76 76 0 0 1-5.38 7.71.58.58 0 0 1-.82 0 .64.64 0 0 1-.1-.13 27.58 27.58 0 0 1-2.8-14.92c.15-.13.31-.26.46-.41 0 4.71.31 10.25 2.57 14.48l-.13.15h.2a2.82 2.82 0 0 0 .21.38 1.93 1.93 0 0 0 .3-.27h.23a.4.4 0 0 0-.1-.18c1.87-2.22 3.13-4.99 5.23-7.22z"/><path class="cls-1" d="M36.39 159a.19.19 0 0 0-.08.23v.15c-2.1 2.23-3.36 5-5.28 7.25-.1-.18-.18-.38-.28-.59 1.92-2.33 3.25-5.04 5.64-7.04zM35.44 222.44a.47.47 0 0 1-.54.23h-.1a.34.34 0 0 1 .09-.46h.06l.51-.08a.51.51 0 0 1-.08.33c-.03.07.06-.05.06-.02zM34.34 145.72a1.53 1.53 0 0 1-.26.31c-.1-.26-.2-.49-.31-.75a.84.84 0 0 0 .23-.23c.11.23.23.47.34.67z"/><path class="cls-8" d="M33.8 146.31a37.11 37.11 0 0 0 5.28 9.87c-4.1-.34-9.48-.92-9.08-6 1.06-1 2.11-2 3.13-3.07a8.6 8.6 0 0 0 .67-.8z"/><path class="cls-1" d="M33.77 145.28c.11.26.21.49.31.75l-.28.28c-.1-.23-.18-.49-.26-.74.08-.11.16-.18.23-.29z"/><path class="cls-1" d="M33.77 145.28c-.07.11-.15.18-.23.29a3.42 3.42 0 0 1-.13-.34c-.1-.33.42-.56.57-.23a.94.94 0 0 1-.21.28zM33.54 145.57c.08.25.16.51.26.74a9.07 9.07 0 0 1-.67.72c-1 1.07-2.07 2.1-3.13 3.07 0-.18.06-.36.08-.56s-.2-.28-.28-.1q1.89-1.92 3.74-3.87zM31.08 166.66a.4.4 0 0 1 .1.18H31a.48.48 0 0 0 .08-.18z"/><path class="cls-1" d="M30.8 166.07c.1.21.18.41.28.59a.48.48 0 0 1-.08.16l-.46-.08a.24.24 0 0 1-.07-.18 5.25 5.25 0 0 0 .33-.49zM31 166.82a1.81 1.81 0 0 1-.25.3 2.82 2.82 0 0 1-.21-.38z"/><path class="cls-1" d="M30.8 166.07a5.85 5.85 0 0 1-.38.49c-2.26-4.23-2.54-9.77-2.57-14.48a3.33 3.33 0 0 0 .39-.36c.59 4.92.38 9.76 2.56 14.35zM30.42 166.56a.24.24 0 0 0 .07.18h-.2zM29.7 150.39a1.22 1.22 0 0 1-.34.3 7.72 7.72 0 0 1 .44-1.25c.08-.18.31 0 .28.1a2.76 2.76 0 0 1-.08.56 2.76 2.76 0 0 1-.3.29zM29.83 125.82c1.15 2.74 0 6.79-1.8 9s-3.87 5.33-6.28 6.87h-.08a.32.32 0 0 0 .19-.41v-.1c1.07-1.15 5.66-6.53 6-7.15 1.07-1.77 2.89-7.25.66-8.89a1.37 1.37 0 0 0-.56-.32l.36-.21a4.75 4.75 0 0 0 1.28 1.08.29.29 0 0 0 .13 0z"/><path class="cls-1" d="M29.54 125.24a3.06 3.06 0 0 1 .26.51.29.29 0 0 1-.13 0 4.75 4.75 0 0 1-1.28-1.08c.1-.07.23-.12.33-.2a3.13 3.13 0 0 0 .77.77z"/><path class="cls-1" d="M29.49 125.16a3.13 3.13 0 0 1-.77-.77h.05a2.13 2.13 0 0 1 .72.77zM29.8 149.44a7.72 7.72 0 0 0-.44 1.25 10.66 10.66 0 0 1-1.12 1 4.34 4.34 0 0 0 0-.51.13.13 0 0 0-.08-.13c.51-.51 1.08-1.05 1.64-1.61zM28.54 125.09c2.23 1.64.41 7.12-.66 8.89-.39.62-5 6-6.05 7.15a1.69 1.69 0 0 1-.13-.31c1.13-1.23 2.13-2.71 3.15-4 1.36-1.7 2.77-3.16 3.41-5.28a17.09 17.09 0 0 0 .57-2.24c.1-.76.51-4.56-1.62-4.07l.79-.41a1.38 1.38 0 0 1 .54.27z"/><path class="cls-1" d="M28.54 124.21a1 1 0 0 1-.15-.25 1.41 1.41 0 0 1 .41 0 .22.22 0 0 1 .1.41c-.18.11-.07 0-.13.07a.37.37 0 0 0-.2-.12.53.53 0 0 1-.03-.11z"/><path class="cls-11" d="M27.21 125.24c2.13-.49 1.72 3.31 1.62 4.07a17.09 17.09 0 0 1-.57 2.24c-.64 2.12-2.05 3.58-3.41 5.28-1 1.28-2 2.76-3.15 4-1.77-3.87-1.2-7.58.77-11.38a9 9 0 0 1 3.53-3.7.21.21 0 0 1 .11 0 8.81 8.81 0 0 0 1.1-.46z"/><path class="cls-1" d="M28.77 124.39h-.05l-.15-.15a.43.43 0 0 1 .2.15zM28.72 124.42c-.1.08-.23.13-.33.2-.05-.1-.13-.18-.18-.28a1.6 1.6 0 0 1 .31-.1h.05a.84.84 0 0 0 .15.18z"/><path class="cls-1" d="M28.54 124.21v.06h-.05s.05-.03.05-.06z"/><path class="cls-1" d="M28.39 124a1 1 0 0 0 .15.25.84.84 0 0 0-.49-.15.37.37 0 0 1-.05-.1 2.41 2.41 0 0 1 .38 0z"/><path class="cls-1" d="M28.52 124.24a1.6 1.6 0 0 0-.31.1 1.44 1.44 0 0 1-.18-.25.84.84 0 0 1 .49.15zM28.39 124.62l-.39.2c-1.13-.41-2.46.38-3.54 1.33a3.62 3.62 0 0 1-.79.18 15.76 15.76 0 0 1 1.33-1.12 29.66 29.66 0 0 0 3.2-.87c.06.1.14.18.19.28zM28.36 124H28a6.74 6.74 0 0 1-.82-2.69.32.32 0 0 0 .31.29h.05a6.14 6.14 0 0 0 .82 2.4zM28.19 151.21a4.34 4.34 0 0 1 0 .51 3.33 3.33 0 0 1-.39.36v-.75a3.07 3.07 0 0 0 .26-.25.13.13 0 0 1 .13.13z"/><path class="cls-1" d="M28 124.09a1.44 1.44 0 0 0 .18.25 29.66 29.66 0 0 1-3.2.87 5.6 5.6 0 0 1 2.28-1.15.34.34 0 0 0 .2 0 1.64 1.64 0 0 1 .54.03zM27.85 151.33a4.27 4.27 0 0 1-.38.36 2.61 2.61 0 0 1 .05-.48.31.31 0 0 1 .31-.31.31.31 0 0 1 .28.18 3.07 3.07 0 0 1-.26.25z"/><path class="cls-1" d="M28 124a.37.37 0 0 0 .05.11 1.66 1.66 0 0 0-.54-.06A4.07 4.07 0 0 1 28 124z"/><path class="cls-11" d="M28 124a4.07 4.07 0 0 0-.49 0 .34.34 0 0 1-.2 0c-4.49.49-8.36 1.54-13 .26a20.48 20.48 0 0 1-7.91-4.66c-2.28-2-1.05-2.64 1.23-3.41 3.53-1.2 11.71-2.07 16.27.28l.15.31a.18.18 0 0 0 .34 0 5.41 5.41 0 0 1 2.66 3.74 6.48 6.48 0 0 1 .08.77A6.56 6.56 0 0 0 28 124z"/><path class="cls-1" d="M28 124.82l-.82.41h-.05a2.07 2.07 0 0 0-.33.1c-.26.11-.52.23-.77.36h-.11a12.69 12.69 0 0 1-1.46.41c1.11-.89 2.44-1.68 3.54-1.28zM27.85 151.33v.75c-.15.15-.31.28-.46.41a6.77 6.77 0 0 1 .08-.8 4.27 4.27 0 0 0 .38-.36zM27.77 121v.28a.24.24 0 0 1-.22.26 1.74 1.74 0 0 1-.05-.39v-.1a.62.62 0 0 0 0-.33 1.47 1.47 0 0 0 0-.59V119a3.09 3.09 0 0 1 .18.59v.22a6 6 0 0 0 .09 1.19z"/><path class="cls-1" d="M27.6 119.63a4.93 4.93 0 0 1 .17 1.38 6 6 0 0 1-.17-1.19zM27.47 121.16a1.74 1.74 0 0 0 .05.39.3.3 0 0 1-.35-.23 6.48 6.48 0 0 0-.08-.77v-1.41a2.91 2.91 0 0 1 .31 1 1.47 1.47 0 0 1 .05.59 1.82 1.82 0 0 0 0 .33zM27.47 151.69a2.79 2.79 0 0 1-.08.8 91.8 91.8 0 0 1-19.3 12.86.31.31 0 0 0-.19-.41h-.07c5.95-3.1 11.72-6.2 16.82-10.66.95-.84 1.89-1.69 2.82-2.59z"/><path class="cls-1" d="M27.44 120.73a.62.62 0 0 1 0 .33 1.82 1.82 0 0 1 0-.33zM27.42 119v1.13a2.91 2.91 0 0 0-.31-1 5.21 5.21 0 0 1 0-.79 4 4 0 0 1 .31.66zM26.83 125.34a2.07 2.07 0 0 1 .33-.1 8.81 8.81 0 0 1-1.1.46c.25-.13.51-.25.77-.36z"/><path class="cls-1" d="M27.11 118.32a5.21 5.21 0 0 0 0 .79 5.53 5.53 0 0 0-2.64-2.61v-.69a6.21 6.21 0 0 1 2.64 2.51z"/><path class="cls-1" d="M27.08 119.11v1.41a5.39 5.39 0 0 0-2.66-3.7v-.28a5.49 5.49 0 0 1 2.66 2.57zM27.29 124.06a5.7 5.7 0 0 0-2.29 1.15c-8.08 1.77-15.1-.46-21-7.53a9.05 9.05 0 0 1 3.73-1.86.31.31 0 0 0 .33.05 5.48 5.48 0 0 0 1.11-.41 1 1 0 0 0 .25-.07c4.51-.93 10.54-.9 14.33.82a1.57 1.57 0 0 0 .12.3c-4.56-2.35-12.74-1.48-16.27-.28-2.28.77-3.51 1.36-1.23 3.41a20.33 20.33 0 0 0 7.84 4.72c4.72 1.24 8.59.19 13.08-.3zM24.49 126.16a12.94 12.94 0 0 0 1.51-.41 9 9 0 0 0-3.48 3.69c-2 3.8-2.54 7.51-.77 11.38-.08.11-.18.18-.26.29a6.74 6.74 0 0 1-.77-1.39.28.28 0 0 0-.07-.26c-1.31-3.67.23-8.69 2.3-11.53a15.26 15.26 0 0 1 1.54-1.77z"/><path class="cls-1" d="M24.44 116.5v.28l-.21-.13a1.67 1.67 0 0 1-.05-.31c.1.06.18.08.28.13z"/><path class="cls-1" d="M24.42 115.82v.69a.59.59 0 0 1-.28-.13c-.07-.25-.13-.5-.18-.76a1.34 1.34 0 0 1 .46.2zM24.21 116.65l.21.13a.19.19 0 0 1-.21.15.21.21 0 0 1-.13-.1l-.15-.31a1.43 1.43 0 0 1 .28.13z"/><path class="cls-1" d="M23.85 106.82h-.05c-.05 0-.28.13-.43.18.07-.54.15-1 .23-1.49a.28.28 0 0 1 .34-.2.29.29 0 0 1 .2.2 31.38 31.38 0 0 1 .05 5.31c0 1.67.2 3.31.23 5a1.35 1.35 0 0 0-.44-.2 38.21 38.21 0 0 1-.15-8 1.12 1.12 0 0 0 .28-.33c.13-.22-.05-.53-.26-.47zM24.16 116.34a1.67 1.67 0 0 0 .05.31 1.43 1.43 0 0 0-.28-.13 1.57 1.57 0 0 1-.12-.3z"/><path class="cls-1" d="M23.85 107.09v-.27c.21 0 .39.29.26.44a1.12 1.12 0 0 1-.28.33v-.43zM24 115.58c.05.26.11.51.18.76l-.38-.17a6 6 0 0 1-.26-.82 2.1 2.1 0 0 1 .49.2zM25 125.21a15.6 15.6 0 0 0-1.31 1.13c-6.77 1.31-14.12-2-18.81-7 .1-.33-.24-.64-.57-.64-.21-.23-.39-.49-.59-.72a.37.37 0 0 1 0-.52 12.64 12.64 0 0 1 3.81-1.87.37.37 0 0 0 .21.23A9 9 0 0 0 4 117.68c5.91 7.07 12.93 9.32 21 7.53zM23.7 126.34a3.62 3.62 0 0 0 .79-.18 15.5 15.5 0 0 0-1.59 1.75c-2.07 2.84-3.61 7.86-2.3 11.53a.43.43 0 0 0-.54-.1c-1.23-3.49.15-8.28 2-11.05a16 16 0 0 1 1.64-1.95z"/><path class="cls-1" d="M23.85 107.09a5.93 5.93 0 0 1-.56.43 3.28 3.28 0 0 1 .08-.56c0-.18.28-.13.43-.18s0 0 .05 0zM23.85 107.12v.43a2.49 2.49 0 0 1-.62.59 3.5 3.5 0 0 1 .08-.59 5.66 5.66 0 0 0 .54-.43z"/><path class="cls-1" d="M23.83 107.58a38.21 38.21 0 0 0 .15 8 2.1 2.1 0 0 0-.49-.2 18.81 18.81 0 0 1-.26-7.13 2.56 2.56 0 0 0 .6-.67z"/><path class="cls-1" d="M23.49 115.35a6 6 0 0 0 .26.82c-3.75-1.72-9.82-1.75-14.33-.82.39-.18.77-.36 1.15-.57 4.29-.84 9.39-.9 12.9.54zM23.37 107a4 4 0 0 1-.08.56c-1.85 1.33-4.95 1.9-7 2.92-2.61 1.49-5.43 3.92-8.25 4.9l-.44.13a.41.41 0 0 1 .21-.51c3.13-1.57 5.82-4 9-5.36 2.07-.93 4.35-1.75 6.56-2.64z"/><path class="cls-1" d="M23.29 107.58a4.59 4.59 0 0 1-.08.59c-1.43 1.18-3.64 1.57-5.28 2.21-2.66 1.05-4.84 3-7.36 4.38-.89.18-1.74.39-2.53.62 2.82-1 5.64-3.41 8.25-4.9 2.05-1 5.15-1.57 7-2.9zM21.85 141.21a.32.32 0 0 1-.16.42.09.09 0 0 1-.07 0h-.13a.35.35 0 0 1-.15-.17.3.3 0 0 1 .07-.31h.05a.82.82 0 0 0 .16.25 1.25 1.25 0 0 0 .23-.23.29.29 0 0 1 0 .04z"/><path class="cls-1" d="M21.7 140.82a1.69 1.69 0 0 0 .13.31 1.25 1.25 0 0 1-.23.23.82.82 0 0 1-.16-.25c.08-.11.18-.18.26-.29zM21.44 141.11h-.05a.3.3 0 0 0-.07.31 5.75 5.75 0 0 1-.9-1.29c.08-.1.13-.2.2-.3a.43.43 0 0 0 .05-.16 6.74 6.74 0 0 0 .77 1.44z"/><path class="cls-1" d="M20.6 139.44a.28.28 0 0 1 .07.26.48.48 0 0 1-.07-.26z"/><path class="cls-1" d="M20.21 139.75c-.05-.13-.1-.26-.15-.41a.43.43 0 0 1 .54.1.48.48 0 0 0 .07.26.43.43 0 0 1-.05.16c-.07.1-.12.2-.2.3-.08-.16-.13-.26-.21-.41zM20.37 90.71a.41.41 0 0 1 .13.28l-.5.08h-.08a.27.27 0 0 1-.26-.28l.26-.15a.38.38 0 0 1 .45.07z"/><path class="cls-1" d="M20 91.07l.54-.08a.38.38 0 0 1-.13.26 44.57 44.57 0 0 0-9.08 10.15c.34-.49.67-1 1-1.51 2-3 4.43-6.87 7.59-8.82zM20.21 139.75c.08.15.13.28.21.43-2.59 4.11-5.42 8.08-7.82 12.28-1.18 2-2.33 4-3.49 6-.25.41-2.66 5.33-2 6.28a.47.47 0 0 0 .15.64c-1.4.38-1-1.9-.69-2.82a47.64 47.64 0 0 1 3.69-7.13 163.94 163.94 0 0 1 9.95-15.68z"/><path class="cls-1" d="M20.06 139.34c.05.15.1.28.15.41a162.16 162.16 0 0 0-9.92 15.71 47.64 47.64 0 0 0-3.69 7.13c-.33.92-.71 3.2.69 2.82a.49.49 0 0 0 .54.07.53.53 0 0 0 .26-.13.29.29 0 0 1-.23.21c-3 .77-1.82-3-1.05-4.64a122.74 122.74 0 0 1 13.1-21.48c.09-.05.09-.1.15-.1zM11.29 101.4a86.6 86.6 0 0 0-9.89 20.28 3.34 3.34 0 0 0-.74.93.4.4 0 0 1-.32-.46.13.13 0 0 1 0-.06c1.66-7 4.94-13.1 9-19 3-4.36 5.75-9.43 10.28-12.33 0 .15.11.31.26.28-3.16 2-5.57 5.82-7.59 8.82-.29.54-.66 1.05-1 1.54zM10.57 114.82c-.38.21-.76.39-1.15.57a1 1 0 0 1-.25.07c-.52.1-1 .23-1.44.36a.37.37 0 0 1-.21-.23l.48-.17h.08a15.66 15.66 0 0 1 2.49-.6z"/><path class="cls-1" d="M9.17 115.42a5.45 5.45 0 0 1-1.11.4.33.33 0 0 1-.33 0 8.93 8.93 0 0 1 1.44-.4zM7.29 165.41a.47.47 0 0 1-.15-.59.53.53 0 0 0 .54.12.14.14 0 0 1 .15 0 .32.32 0 0 1 .28.36.19.19 0 0 1 0 .07c-.08.06-.18.08-.26.13a.47.47 0 0 1-.56-.09zM4.32 118.68c.33 0 .67.31.57.64-.21-.21-.39-.44-.57-.64z"/><path class="cls-1" d="M4.89 119.32a.22.22 0 0 1-.08.15c-.67.9-1.41 1.75-2.13 2.59-.56.67-1 1.49-1.92 1.57a.25.25 0 0 1-.26-.24 1.46 1.46 0 0 1 .16-.74.41.41 0 0 0 .51-.28c.08-.2.13-.41.23-.64.15-.16.31-.31.44-.46A30.85 30.85 0 0 1 4 118.82a.42.42 0 0 1 .31-.15c.19.21.37.44.58.65z"/><path class="cls-1" d="M1.4 121.7c-.1.23-.15.44-.23.64a.41.41 0 0 1-.5.29 3.34 3.34 0 0 1 .73-.93z"/><path class="cls-12" d="M90.12 117.09c-2 .3-4.46-4.93-2.15-5.7s3.38 4.31 2.92 5.7"/><path class="cls-13" d="M90.12 117.09c-2 .3-4.46-4.93-2.15-5.7s3.38 4.31 2.92 5.7"/><path class="cls-12" d="M90.25 116.63a3.71 3.71 0 0 1-1.9-1.92c-.27-.5-1-2.45 0-2.57s1.32 1.56 1.49 2.14a9.84 9.84 0 0 1 .24 2.81.79.79 0 0 0 1.47.39c1.25-2.06-1.11-8.6-4.21-6.72-2.75 1.66.15 8.18 3 6.73a.46.46 0 0 0 .17-.64.44.44 0 0 0-.28-.22zM95 115.82c.93 0 1.39-1.23.62-2.46-1.81-2.74-1.81 1.46-.42 3"/><path class="cls-13" d="M95 115.82c.93 0 1.39-1.23.62-2.46-1.81-2.74-1.81 1.46-.42 3"/><path class="cls-12" d="M95.45 116.35a1.62 1.62 0 0 0 1-2.09 1.77 1.77 0 0 0-.15-.31c-.29-.58-1-2-1.89-1.81-1.5.33-.57 4.65.81 4.53a.38.38 0 0 0 .34-.26c.12-.4-.08-.63-.25-1a5.73 5.73 0 0 1-.52-1.56 2.62 2.62 0 0 1 .06-1.18c-.08.26.43.6.59.84a1.22 1.22 0 0 1-.25 1.72l-.17.11a.55.55 0 0 0 .42 1z"/></g><ellipse class="cls-5" cx="193.74" cy="42.66" rx="72.26" ry="42.66"/><path class="cls-5" d="M145.58 61.28l-8.93 18.95 30.64-5.8-21.71-13.15z"/><path class="cls-14" d="M226.06 41c-2.19-.88-13.53-4.78-15.53-5.37-1.52-.45-5.53-2-2.13-4.84 7.2-7.43 7-12.1 5.86-15.27-1-2.66-5.29-4.34-7.52 1s-6 7.09-8.43 8.92c-4.91 3.73-15 11-15 11l-5 22.78s16.9 7.6 21.12 9a10.63 10.63 0 0 0 9.91-1.6c2.81-2.19 12-14.06 13.95-16.67 5.19-2.95 4.97-8.07 2.77-8.95z"/><path class="cls-14" transform="rotate(-77.72 169.721 46.528)" d="M155.74 41.43h27.98v10.2h-27.98z"/></g></g></svg>