<svg id="レイヤー_1" xmlns="http://www.w3.org/2000/svg" viewBox="0 0 380.9 212"><style>.st0{fill:#1d3033;stroke:#1d3033;stroke-width:.66;stroke-linecap:round;stroke-linejoin:round}.st2{fill:#dadada}.st3{fill:#9fb05a}.st4{fill:#f1f1f1}.st5{fill:#f7e5d7}.st6{fill:#989898}.st7{fill:#fff}.st8{fill:none}.st9{fill:#957884}.st10{fill:#8c4289}.st11{fill:#ec9d1b}.st12{fill:#ebd494}.st13{fill:#9068a2}</style><g id="レイヤー_1-2"><g id="レイヤー_3"><path class="st0" d="M307.7 137.9c.9-3.3 1.3-6.7 1.2-10.1-.3-6.9-1.9-13.6-4.9-19.8-1.9-4.2-4.6-9.9-8.5-13.5.2.2.5.2.7 0v-.1c6.1 5.3 9.9 15.1 11.7 22 2 7.9 4.3 24.4-4.3 29.7.1-.1.1-.3 0-.4 2.4-1.6 3.4-5.3 4.1-7.8z"/><path class="st0" d="M295.6 94.5c3.9 3.6 6.5 9.3 8.5 13.5 3 6.2 4.6 13 4.9 19.8.1 3.4-.3 6.8-1.2 10.1-.7 2.5-1.7 6.2-4 7.7-.1-.1-.1-.2-.2-.3-.1 0-.1 0-.1-.1 7.6-6.3 5.2-22.8 2.5-30.7-2.9-8.4-6.9-18.2-15-22.8-.1 0-.2-.2-.1-.3 0-.1.2-.2.3-.1 1.6.5 3 1.3 4.3 2.3v.5c0 .2 0 .3.1.4z"/><path d="M305.9 114.6c2.7 7.8 5 24.3-2.5 30.7-3.3-2.2-4.8-5.1-6.1-8.8-.6-2.1-1.5-4.2-2.6-6.1v-.9c0-.2-.1-.3-.3-.3-.1 0-.3.1-.3.2-.4 1.2-.5 2.4-.5 3.6 0 1-.1 2-.2 3-.2 1.1-2.9-2.3-3.1-2.6-3.1-4.5-4.7-9.2-6.4-14.3.9-.4 1.7-.9 2.5-1.4 1.4-1 3.1-3.6 1.2-4.7-.7-1.4-1.6-2.7-2.5-3.9 0-10-1.6-20.6-7.6-28.9-3.3-4.1-7.5-7.5-12.3-9.7C280.1 69 294 78 295.6 93.8c-1.3-1-2.8-1.8-4.4-2.3-.1-.1-.2 0-.3.1 0 .1 0 .2.1.3 8 4.4 12 14.3 14.9 22.7z" fill="#d93933"/><path class="st0" d="M303.7 145.7c.1.1.1.3 0 .4-.1.1-.3.2-.5.3h-.3c-.1 0-.1-.1-.1-.1-.2-.1-.2-.4 0-.6.2-.1.3-.3.5-.4 0 .1.1.1.1.1.1 0 .2.1.3.3z"/><path class="st0" d="M303.2 146.3c.1-.1.3-.2.5-.3-.1.3-.4.4-.7.3.1.1.1.1.2 0zm.1-1.1c-.2.1-.3.3-.5.4-5.3-3-5.8-9.8-8.2-14.9v-.5c1.1 1.9 2 4 2.6 6.1 1.3 3.9 2.8 6.7 6.1 8.9z"/><path class="st0" d="M302.8 145.7c-.2.1-.2.4-.1.6-4.8-2.4-6.6-9-8.1-14.2v-1.2c2.4 4.9 2.9 11.8 8.2 14.8zm-39.4-76c15.3-3.6 33.2 7.8 33 24.5v.2c-.1-.1-.3-.2-.4-.3.1-5-2.1-9.2-4.8-13.4-3.1-4.7-7.7-8.1-13-9.9-4.5-1.5-9.3-1.8-14-.8l-.8-.3z"/><path class="st0" d="M295.9 94c.1.1.3.2.4.3-.1.2-.4.3-.7.1-.1-.1-.2-.2-.2-.3v-.5c.2.2.4.3.5.4z"/><path class="st0" d="M291.1 80.7c2.7 4.2 4.9 8.4 4.8 13.4-.2-.1-.3-.3-.5-.4-1.6-15.8-15.5-24.8-30.5-23.3-.3-.2-.6-.3-.9-.4 4.7-1 9.5-.7 14 .8 5.4 1.7 10 5.2 13.1 9.9zm3.5 51.3c.1 3.3-.2 8.1-3.3 5.3-4.7-4.4-7.8-11.4-8.5-17.9.1-.1.3-.1.4-.2.9 5.1 2.9 9.9 5.9 14.1.8.9 2.9 4.8 4.3 3.7.9-.8.6-4.8.7-6.8.2.6.4 1.2.5 1.8z"/><path class="st0" d="M294.6 130.8v1.2c-.2-.6-.3-1.2-.5-1.8v-.3c.2.3.4.6.5.9z"/><path class="st0" d="M294.6 130.3v.5c-.1-.3-.3-.6-.4-.9v-.1c.1.1.3.3.4.5z"/><path class="st0" d="M294.2 129.7s-.1 0 0 0l-.1-.1v.1c0 .1.1.3.1.5-.1 2 .2 6.1-.7 6.8-1.4 1.1-3.5-2.8-4.3-3.7-3-4.2-5-9-5.9-14.1l.4-.2c1.7 5.1 3.3 9.8 6.4 14.3.2.3 2.9 3.7 3.1 2.6s.2-2 .2-3c0-1.2.2-2.5.5-3.6 0-.2.2-.3.4-.2.1 0 .2.2.2.3v.9c0-.2-.2-.4-.3-.6z"/><path class="st0" d="M294.2 129.9v.3c0-.2-.1-.3-.1-.5v-.1h.1v.3zm-6.8-16.9c1.9 1.1.2 3.7-1.2 4.7-.8.5-1.6 1-2.5 1.4l-.3-.9c2.6-1.1 5-2.9 3.8-4.6.2-.1.3-.4.2-.6z"/><path class="st0" d="M287.4 113c.1.2 0 .5-.1.6-.1-.2-.2-.3-.4-.4 0-.2-.1-.4-.2-.5h.1l.6.3zm0-.1l-.6-.3h-.1c-.8-1.4-1.8-2.6-3-3.6l-1.1-1.2c-.1-.2-.3-.3-.4-.5-.5-.6-1-1.1-1.6-1.6l-.8-.8-2.4-2.4c-1-.9-2-1.8-3-2.6-.1-.2-.2-.4-.4-.6-.1-.1-.3-.1-.4 0-7.7-6.3-16.8-11.2-25.5-15.7-2.7-1.5-5.7-2.8-8.5-4-3.1-1.4-6.2-3.5-9.5-4.4-6.2-1.6-13.9 1.5-19.8 3.5-3.6 1.2-7.1 3-10.6 4.4.2-.3.4-.5.7-.7 7.7-3.3 15.2-6.8 23.6-8 7.1-1 13.9 3.7 20 6.6 9.2 4.3 18.6 9.2 26.7 15.4 4.2 3.2 9.6 7.2 13.3 11.6v1c0 .2.1.3.3.3.2 0 .3-.1.3-.3 1.1 1.2 2 2.5 2.8 3.9zm-.1.7c1.2 1.8-1.2 3.6-3.8 4.6-.1-.2-.1-.4-.2-.6 0-.1 0-.1-.1-.1.3-.1.6-.2.9-.4.9-.4 1.7-1 2.4-1.7.5-.5.6-1.2.2-1.7.2.1.4 0 .6-.1z"/><path class="st0" d="M286.9 113.2c.2.1.3.2.4.4-.2.1-.4.2-.6.1 0-.2-.2-.3-.2-.5s0-.5.3-.5c0 .1.1.3.1.5z"/><path class="st2" d="M286.6 113.7c.3.6.3 1.3-.2 1.7-.7.7-1.5 1.3-2.4 1.7-.3.1-.6.3-.9.4-.1-.1-.2 0-.3.1v.1c-1.1.4-2.3.6-3.4 1-2.7-1.3-5.2-3.2-7.9-4.3-1.8-.8-3.6-1.7-5.4-2.5.4 0 .9-.1 1.3-.2 1.9-.4 3.7-1.3 5.2-2.6 2.5-2 3.4-5.5 2-8.4 1.7 1.3 3.4 2.8 5 4.3l.8.8 1.6 1.6c.1.1.3.3.4.5 1.5 1.7 2.8 3.6 3.9 5.6.1 0 .2.1.3.2z"/><path class="st0" d="M286.6 113.7c-.1 0-.2-.1-.2-.2-1.1-2-2.4-3.9-3.9-5.6l1.1 1.2c1.2 1 2.2 2.3 3 3.6-.3 0-.4.3-.3.5.2.1.3.3.3.5zm-2.1-5.1l.3.4v.2c0 .2-.1.3-.3.3-.2 0-.3-.1-.3-.3v-1c.1.1.2.2.3.4z"/><path class="st0" d="M277.2 80.1c6.1 8.3 7.6 18.9 7.6 28.9l-.3-.4c0-7-1.2-13.9-3.6-20.5-2-5.6-5.8-10.4-10.7-13.6-2.1-1.4-4.3-2.8-6.6-3.9.4-.1.9-.1 1.3-.2 4.8 2.2 9 5.6 12.3 9.7z"/><path class="st0" d="M284.5 108.6c-.1-.2-.3-.3-.4-.4-.4-9.6-2-21.5-8.9-28.7-6.6-6.6-15-11.1-24.1-12.9-19-3.6-37.6 1.5-50.6 15.9l-1.1.4c7.8-9.9 19.3-16.2 31.9-17.6 3.1-.3 6.2-.4 9.4-.4 7.6-.1 15.2 1.6 22 5-.1.2 0 .5.2.6h.3l.5-.1c2.3 1.2 4.5 2.5 6.6 3.9 5 3.3 8.8 8.1 10.8 13.7 2.3 6.7 3.5 13.6 3.4 20.6zm-1.1 9.6l.3.9-.4.2c0-.3-.1-.6-.1-.9 0-.1.1-.1.2-.2z"/><path class="st0" d="M283.1 118.4l-.3.1v-.9c.1 0 .2-.1.3-.1l.1.1c.1.2.1.4.2.6 0 .1-.2.1-.3.2z"/><path class="st0" d="M283.1 118.4c0 .3.1.6.1.9-.1.1-.2.1-.4.2 0-.3-.1-.6-.1-1l.4-.1zm0-.9c-.1.1-.2.1-.3.1 0-.1.1-.2.3-.1z"/><path class="st0" d="M282.8 118.5c0 .3 0 .6.1 1-.4.2-.9.3-1.3.4 0-.1-.1-.2-.2-.2-.4-.1-.7-.3-1.1-.4.9-.3 1.7-.5 2.5-.8z"/><path class="st0" d="M282.8 117.7v.8c-.8.3-1.6.5-2.5.7l-1-.5c1.1-.5 2.3-.7 3.5-1-.1 0 0 0 0 0z"/><path class="st2" d="M275.2 79.5c6.9 7.2 8.6 19.1 8.9 28.7-3.7-4.5-9-8.4-13.3-11.6-8.1-6.2-17.5-11.1-26.7-15.4-6.1-2.9-12.9-7.6-20-6.6-8.4 1.2-15.9 4.7-23.6 8C213.4 68.2 232 63 251.1 66.7c9.1 1.7 17.5 6.2 24.1 12.8z"/><path class="st0" d="M282.4 156.7c0 8.6-2.2 16.9-3.5 25.4-.9 6.9-2.6 13.7-5.1 20.3l-.3-.3c.1-.4.2-1 .4-1.4l1.5-4.8c.5-1.4 1.2-2.8 1.5-4.3.4-1.7.5-3.6.8-5.3.5-2.9.9-5.8 1.3-8.8 1-6.8 3.1-13.6 3-20.5.1.1.3 0 .4-.3-.1.1 0 .1 0 0z"/><path class="st0" d="M282.4 156.7c0-.1 0-.1-.1-.2 0 .1.1.2.1.2z"/><path class="st0" d="M282 157c-.1-.1-.2-.2-.4-.2v-.1c0-.1.1-.2.2-.3s.2-.1.4 0l.2.1c0 .1.1.1.1.2-.1.3-.3.4-.5.3z"/><path class="st0" d="M282.4 156.5l-.2-.1c.1 0 .1.1.2.1zm-.6-.1c-.1.1-.2.2-.2.3v.1c-2.6-1.6-6.2-1.9-9.1-2.8-3.7-1.2-7.4-2.1-11.2-2.7-7.7-1.2-15.3-2.3-23.1-3v-.1c0-.1-.1-.2-.2-.2s-.1 0-.2.1c0-.2 0-.3.2-.4h.1c6.6-.3 13.3.2 19.8 1.5m0 0c0 .1.3.1.3 0 1.9.3 3.8.7 5.7 1.1 5.6 1.1 13.6 2.5 18.2 6.1-.1-.1-.3 0-.4 0l-23.8-7.2z"/><path class="st0" d="M282 157c.1 6.9-2 13.7-3 20.5-.4 2.9-.8 5.8-1.3 8.8-.3 1.8-.4 3.6-.8 5.3-.3 1.5-1 2.9-1.5 4.3l-1.5 4.8c-.1.4-.2.9-.4 1.4-.1-.1-.3-.1-.5 0 2.2-6.6 3.8-13.4 4.8-20.4 1.2-8.3 3.6-16.6 3.8-25 .1.1.2.2.4.3zm-.4-37.2c0 .1-.1.3-.2.3-.3 0-.5-.1-.8-.1.4 0 .7-.1 1-.2z"/><path class="st0" d="M279.5 119.3c.3 0 .5 0 .8-.1.4.2.7.3 1.1.4.1 0 .2.1.2.2-.3.1-.7.1-1 .1h-.3v-.1c0-.1-.1-.2-.2 0l-1.2-.3c-.1-.1-.1-.4 0-.5 0 0 0-.1.1-.1l.5.4zm1.1.7h-.3.3zm-.4 0h.1c.7 5.8-4.6 13.2-7.9 17.6-.1.1-.2.2-.4.2v-.1c0-.3-.1-.6-.2-.9 1.2-2.2 2.4-4.3 3.6-6.6.7-.7 1.2-1.7 1.3-2.7 1.1-2.5 1.8-5.3 3.2-7.6.2.1.3.1.3.1z"/><path class="st0" d="M280.4 119.9h-.1v-.1c0-.1.1.1.1.1zm-.2 0h-.1.1l.1.1s0-.1-.1-.1z"/><path class="st0" d="M280.2 119.9l-.2.1c-.1 0 0 0 0-.1h.2zm-.8-1.2c.3.2.7.3 1 .5-.3 0-.5 0-.8.1-.2 0-.4-.2-.6-.3l.4-.3z"/><path class="st0" d="M280.1 119.9c-.4.1-.8-.1-1.1-.3l-.1-.1c.4.2.8.3 1.2.4z"/><path class="st3" d="M278.9 119.6c.3.2.7.3 1.1.3-1.5 2.3-2.1 5.1-3.2 7.6.4-2.3-.7-4.6-3.2-4.4l2.1-2.7c.2-.3-.3-.7-.6-.4-2.4 2.3-4.7 4.8-7.1 7-2.1 2-4.5 3.6-6.6 5.5-.7-2.4-1.6-4.8-2.7-7.2v-.2c.1-.2 0-.4-.2-.4-.2-.1-.3 0-.4.2v.1c-.5 1.3-1.1 2.5-1.9 3.6-.3.6-.5 1.2-.6 1.8-1.5-3.5-3-7-4.3-10.7-1.1-3.4-1.6-7.2-3-10.6 5.9.1 11.7 1.4 17 3.8 4.2 2.1 9 5.3 13.6 6.7z"/><path class="st0" d="M279.4 118.7l-.5.2c-1.5-.8-3.1-1.9-4.2-2.4-2.4-1-4.8-2-7.1-3.2-.9-.5-1.9-1-2.9-1.5.5.1 1 .1 1.4 0 1.8.8 3.6 1.7 5.4 2.5 2.7 1.2 5.3 3.1 7.9 4.4zm.3-13.8c-1.6-1.5-3.3-3-5-4.3-.1-.3-.3-.5-.4-.7 1 .8 2 1.7 3 2.6l2.4 2.4z"/><path class="st0" d="M278.9 118.9c-.2.1-.2.3-.1.5 0 0 0 .1.1.1-4.6-1.4-9.3-4.6-13.5-6.5-5.3-2.5-11.1-3.8-17-3.8-.1-.2-.1-.4-.2-.6 2.5 0 5.1.2 7.6.5 2.6.3 5.2 1 7.6 2.2.4.3.8.5 1.3.5h.1c1 .5 2 1 2.9 1.5 2.3 1.2 4.7 2.2 7.1 3.2 1 .5 2.6 1.6 4.1 2.4z"/><path class="st4" d="M281.6 156.8c-.2 8.4-2.5 16.7-3.8 25-1 6.9-2.6 13.7-4.8 20.4-3.1 2.2-6.9 3.7-10.5 5.1-3.2 1.2-9.6 4.2-13 3.2h-.1c-3-3-5.9-6.2-9.1-9.1-1.6-1.4-3.3-2.8-4.9-4.2-1.3-1.2-2.2-2.6-3.6-3.6.2-.2-.2-.5-.4-.3 1.4-1.5.8-6 1-7.8.3-5.2 1.2-10.4 2-15.4 1.2-7.2 3.7-14.2 3.8-21.6 7.8.7 15.4 1.7 23.1 3 3.8.7 7.5 1.6 11.2 2.7 2.9.7 6.4 1.1 9.1 2.6z"/><path class="st0" d="M273.6 123.2c2.5-.2 3.6 2.1 3.2 4.4 0 .1-.1.2-.1.3l-1.2 2.4c-.1.1-.1.2-.2.2-2.2 2-8.9 4.9-11.2 1.8.1-.1.3-.1.4-.2 2.3 1.6 7.3.3 9.4-1.1 1.6-1.1 3-2.6 2.7-4.7-.1-1.5-1.5-2.7-3-2.5h-.3c.1-.3.2-.5.3-.6z"/><path class="st0" d="M276.7 127.9c0-.1.1-.2.1-.3-.2 1-.6 2-1.3 2.7.4-.8.9-1.6 1.2-2.4zm-.2-1.7c.3 2.1-1.1 3.6-2.7 4.7-2 1.4-7.1 2.7-9.4 1.1l.5-.4c2.7.4 5.1.6 7.7-.8 1.3-.7 3.1-1.9 3.3-3.5.3-2.4-1.1-3.2-3.1-3.2.1-.2.3-.3.4-.5 1.5-.3 3 .7 3.2 2.2.1.2.1.3.1.4z"/><path class="st5" d="M272.8 124.1c2 0 3.4.8 3.1 3.2-.2 1.6-2 2.8-3.3 3.5-2.6 1.4-5 1.2-7.7.8 3-2.1 5.6-4.6 7.9-7.5z"/><path class="st0" d="M272.6 123.3h-.2c-.2.1-.3.2-.3.4-3.2 3.5-6.7 6.6-10.6 9.3l-.1-.5c2.2-1.9 4.6-3.5 6.6-5.5 2.4-2.3 4.7-4.7 7.1-7 .3-.2.8.1.6.4-.6.9-1.3 1.8-2.1 2.7-.3.1-.6.1-1 .2z"/><path class="st3" d="M275.2 130.5c.1-.1.2-.1.2-.2-1.1 2.2-2.4 4.4-3.6 6.6-.2-.8-.5-1.6-1-2.4l.3-.3c.1-.1.1-.2 0-.3s-.1-.1-.2-.1c-2.8 1.2-4.2 4.3-6.5 6.4-.1-1.2-.4-2.4-.7-3.5-.1-.2-.3-.4-.6-.3-1.3.6-2.6 1.2-3.9 1.9.8-1.2 1.3-2.5 1.5-3.8h.1c.1-.1.2-.2.2-.4 1-.5 2-1 2.9-1.6 2.5 2.9 9.1 0 11.3-2z"/><path class="st0" d="M274.7 100.7c1.4 2.9.5 6.4-2 8.4-1.5 1.3-3.3 2.2-5.3 2.6-.4.1-.8.1-1.3.2-.6-.3-1.3-.6-1.9-.9 5.7 1.3 13.7-5 9.8-10.8.3.1.5.3.7.5zm-.7-.7c-.2-.2-.5-.3-.7-.5 0-.1.1-.2.2-.2.3.2.5.4.8.6.2.2.3.5.4.7-.2-.2-.4-.4-.7-.6 0 .1 0 .1 0 0z"/><path class="st0" d="M273.9 99.3c.1.2.3.4.4.6-.2-.2-.5-.4-.8-.6.1-.1.3-.1.4 0zm.1.8c3.9 5.8-4.1 12.1-9.8 10.8-.4-.2-.7-.3-1.1-.5.1-.1.2-.1.3-.2 1.3-.4 2.8.3 4.2 0 1.4-.3 2.8-.9 4-1.8 2.9-2.2 4-5.5 1.8-8.6v-.3c.2.3.4.5.6.6z"/><path class="st4" d="M273.4 99.8c2.2 3.1 1.1 6.4-1.8 8.6-1.2.9-2.6 1.5-4 1.8s-2.9-.4-4.2 0c-.1 0-.2.1-.3.2l-3-1.2c-6.8-2.3-15.4-2.1-22.4.1-.2-.1-.4-.2-.6-.1-3.8.7-7.5 1.7-11.1 2.8-3.2 1.1-2.9 2.2-7.5 2.7-2.7.3-6-1.9-8.3-3.2-5.7-3.3-11.4-4.3-17.8-5.2-.6-7.2-.7-16.5 5-21.8 0 0 .1 0 0-.1 7-2.3 13.6-5.6 20.7-7.8 10.4-3.1 18.4 2 27.6 6.3 7.3 3.5 14.3 7.5 21 11.9 2 1.3 4.2 2.9 6.5 4.6 0 .2.1.3.2.4z"/><path class="st0" d="M273.8 202.4c.1.2.1.5-.1.7-2.8 3.2-8.3 5-12.3 6.1-3.3 1-8.4 3.2-11.8 2 .1 0 .1-.1.1-.2 1.2.7 2.5-.1 3.7-.5 1.6-.4 3.2-.7 4.7-1.2 4.6-1.2 9-2.9 13.1-5.2.6-.3 1.1-.6 1.6-.9.2.2.4.2.6 0l.1-.1c.2-.3.3-.5.3-.7z"/><path class="st0" d="M273.3 202.7c.1-.2.1-.3.2-.5l.3.3c-.1.2-.1.4-.2.6-.1.2-.3.3-.5.2 0 0-.1 0-.1-.1.1-.2.2-.4.3-.5zm-.1-79c-.1.2-.3.3-.4.5h-.2c-.2 0-.4-.1-.4-.3.2-.1.3-.3.5-.5.3-.1.7-.2 1-.2l-.5.5z"/><path class="st0" d="M273 202.2c.1-.1.3-.1.5 0-.1.2-.1.4-.2.5-.1.2-.2.3-.4.4-.1-.1-.2-.3-.1-.4.1-.2.2-.3.2-.5zM199.1 83.5c.2.1.3.1.5-.1 0-.1.1-.2.2-.2 3.6-1.4 7-3.2 10.6-4.4 5.8-2 13.5-5 19.7-3.4 3.3.9 6.4 3 9.5 4.4 2.8 1.2 5.8 2.5 8.5 4 8.7 4.6 17.7 9.4 25.5 15.7-.1 0-.2.1-.2.2-2.3-1.7-4.5-3.3-6.5-4.6-6.7-4.5-13.7-8.4-21-11.9-9.2-4.4-17.1-9.5-27.6-6.4-7.1 2.1-13.7 5.4-20.7 7.8 0-.1 0-.2-.1-.2h-.1c-.1.1-.2.1-.3.2-.1-.2-.1-.4 0-.5 0 0 .1 0 .1-.1.6-.2 1.2-.5 1.8-.8-.1.1 0 .2.1.3z"/><path class="st0" d="M273 202.2c0 .2-.1.4-.2.6-.1.1 0 .3.1.4-.5.4-1 .7-1.6.9-4.1 2.3-8.5 4.1-13.1 5.3-1.6.4-3.2.8-4.7 1.2-1.3.3-2.5 1.1-3.7.5 0-.1 0-.2-.1-.2l-.3-.3h.1c3.4 1 9.8-2 13-3.2 3.6-1.5 7.4-3 10.5-5.2zm-.4-78.1h.2c-2.3 2.8-4.9 5.4-7.9 7.5h-.5c-.3-.1-.8.3-.5.6-.9.6-1.9 1.2-2.9 1.6 0-.1-.1-.1-.1-.2.3.1.5-.1.6-.3v-.2c3.9-2.7 7.5-5.8 10.6-9.3.1.3.3.4.5.3zm0-.8c-.1.2-.3.3-.5.5 0-.2.1-.4.3-.4.1 0 .2 0 .2-.1zm-.5 14.4v.1c-.2 0-.4-.2-.4-.4 0-.1 0-.2.1-.2.1-.1.1-.2.2-.3 0 .2 0 .5.1.8z"/><path class="st0" d="M270.6 134.8l.3-.3c.5.7.8 1.5 1 2.4-.1.1-.1.2-.2.3-.1.2-.1.4.1.6.1.1.2.1.3.1 0 .3-.2.5-.4.5s-.3-.1-.4-.2c-.6-.9-.9-1.9-1-2.9l.3-.5z"/><path class="st0" d="M270.6 134.3c-.2-.1-.4 0-.4.2v.1c-2.2 1.8-3.4 4.4-5.6 6.2 0-.2 0-.5-.1-.7 2.2-2.1 3.6-5.2 6.5-6.4.1 0 .2 0 .3.2v.2l-.3.3c-.1 0-.2-.1-.4-.1z"/><path class="st0" d="M270.6 134.8l-.3.4c0-.2 0-.3-.1-.5v-.1c.1-.1.3-.2.4-.3.1 0 .2.1.2.2l-.2.3z"/><path class="st0" d="M270.6 134.3c-.2.1-.3.2-.4.3 0-.2.1-.3.3-.3h.1zm-.4.4c0 .2 0 .3.1.5-1.9 2.2-3.6 4.7-5.8 6.5-.2.2-.6.2-.8 0-.1-.1-.2-.2-.2-.3-.1-.6-.2-1.3-.3-1.9-.2-1.8-.3-2.2-1.9-1.3-.9.5-1.8.9-2.8 1.3.1-.2.2-.3.3-.5 1.5-.6 2.9-1.7 4.5-2.1.3 1.2.5 2.5.7 3.8l-.2.2c.1 0 .2.1.2.1 0 .1 0 .3.1.4l.3-.3c.1 0 .1.1.2.1v-.2c2.2-1.8 3.4-4.4 5.6-6.2v-.1zm-6-23.8c.6.3 1.3.6 1.9.9-.5.1-1 .1-1.4 0h-.1l-1.3-.5-.3-.3c-.1-.2-.1-.4 0-.5.5 0 .9.2 1.2.4zm.2 21.2c-.1.1-.3.2-.4.2-.3-.4.1-.7.5-.6h.5l-.6.4zm-.4-62.2c.3.1.6.3.9.4-.4 0-.9.1-1.3.2l-1-.5c0-.1.1-.3.3-.3h.4l.7.2z"/><path class="st0" d="M263.4 111.2l1.3.5c-.5.1-1-.1-1.3-.5zm1.2 29.6v.2c-.1 0-.2-.1-.2-.1.1 0 .1 0 .2-.1z"/><path class="st0" d="M264.5 140.1c0 .2.1.5.1.7 0 .1-.1.1-.2.1s-.3-.1-.4-.1v-.3c.2-.1.3-.2.5-.4z"/><path class="st0" d="M264.5 140.1c-.1.2-.3.3-.5.4-.1-1.3-.4-2.5-.7-3.8-1.5.5-2.9 1.5-4.5 2.1.2-.2.3-.5.4-.7 1.3-.7 2.6-1.3 3.9-1.9.2-.1.5.1.6.3.4 1.3.7 2.5.8 3.6zm-.1.9l-.3.3c0-.1 0-.3-.1-.4.1 0 .3.1.4.1zm-.4-.4v.3c-.1 0-.1-.1-.2-.1.1-.1.1-.2.2-.2zm-.4-70.1l-.5.1c-.2.1-.5-.1-.5-.3V70l1 .5z"/><path class="st0" d="M263.4 69.7c-.2 0-.3.1-.5.1-.1 0-.3.1-.3.3-6.8-3.4-14.4-5.1-22-5-3.1 0-6.2.1-9.4.4-12.5 1.3-24 7.6-31.8 17.5l-.6.2c-.1-.1-.1-.2 0-.3 12.3-16.1 35.3-22.4 54.5-16.9 3.5.9 6.8 2.2 10.1 3.7zm-.3 41.2l.3.3c-2.4-1.1-5-1.8-7.6-2.2-2.5-.3-5-.5-7.6-.5v-.1c0-.1-.2 0-.2.1-3.4-.1-6.7.3-10 1.2 0-.1-.1-.3-.2-.4 7-2.2 15.6-2.4 22.4-.1 1 .4 2 .7 3 1.2-.2.1-.3.4-.1.5zm-1.5 22.2c.1.3-.1.5-.3.6h-.3l-.1-.1c.2-.1.4-.3.7-.5zm-.6-.2l.4-.4.1.5c-.3.2-.5.4-.8.5-.1-.1-.2-.2-.2-.3.2 0 .3-.1.5-.3z"/><path class="st0" d="M261.4 132.6c-.2.1-.3.2-.4.4-.4-2.4-1.7-4.8-2.4-7.2 0-.1.1-.2.1-.3 1.1 2.2 2 4.6 2.7 7.1zm-.6 1.5h.3c.1.1 0 .3-.1.4h-.1c0-.2 0-.3-.1-.4zm.3-.2h-.3c-.1-.1-.2-.2-.3-.2v-.1l.4-.1h.2v.4z"/><path class="st0" d="M261 132.9l-.4.4c-.3-2.4-1.6-4.6-2.1-7 .1-.2.1-.3.2-.5.5 2.4 1.9 4.7 2.3 7.1zm-.2.8l-.4.2c-.1-.1-.1-.3.1-.4.1 0 .2.1.3.2zm-.4.8l-.6.2c0-.1.1-.2.1-.3.4-.1.7-.2 1-.4v.3l-.5.2z"/><path class="st0" d="M260.8 134c-.3.2-.6.3-1 .4 0-.1.1-.2.1-.3.1-.2.3-.3.5-.3.1.1.3.2.4.2zm-.4.5l.5-.2c-.2 1.4-.8 2.7-1.5 3.8-.4.2-.7.4-1 .5.8-1.1 1.5-2.5 2-4.1z"/><path class="st0" d="M260.5 133.9c.1 0 .2.1.3.2-.1-.1-.2-.1-.3-.2z"/><path class="st5" d="M260.5 133.3c-.2.1-.2.3-.1.4-7.4 1.5-16 .6-23.6 1-8.7.5-17.5.8-26.2 1.4h-.3c-4.7-.6-8.8-1.6-12.4-5-2.7-2.5 3.3-9.9 5.1-11.5.2-.2.2-.6 0-.8.2 0 .3-.2.3-.4-.2-1.6-.5-3.2-.7-4.8-.1-.9-.1-1.9-.1-2.8.1-.5.1-1 .1-1.6.1 0 .3.1.4.1 4.4 1 7.5 4.8 11.7 6.1 2.6 1 5.4 1 8 0 4.6-2 10.5-2.2 14.6-5 3.4-.8 6.9-1.3 10.5-1.3.9 7.4 2.9 17.7 8.1 23.1.1.1.4 0 .3-.2s-.1-.3-.2-.5c.6-1 1-2 1.4-3 .4-.7.7-1.5 1-2.3.6 2.5 1.9 4.6 2.1 7.1zm-18-9.4c.5-1.6.8-3.4.7-5.1-.1-1.2-1.1-4.3-3-3.3-2.5 1.4-3.7 10.1 0 10.6-.1.3.1.6.5.7.1 0 .3 0 .4-.1.8-.6 1.1-1.9 1.4-2.8zm-31.3 1.8c1.4-1.6 1.5-3.8 1.4-5.8-.1-1.3-.4-4.3-2.3-4.4-4-.3-2.9 8.2-.5 9.6.1.3.4.6.7.7s.6.1.7-.1z"/><path class="st0" d="M260.4 133.8c-.2 0-.4.2-.5.4 0 .1-.1.2-.1.3-.8.1-1.6.2-2.3.1-2.5.1-5 0-7.4.2l-8.4.3c-10.1.4-20.4 1.3-30.6 1.4-.1-.1-.2-.2-.4-.2 8.7-.7 17.5-1 26.2-1.4 7.5-.5 16.1.4 23.5-1.1zm-2.7 5.9c.3-.1.6-.1.9-.2l-.1.3c-1.8 3.2-.7 6-.2 9.3v.1h-.4c-1.4-2.1-2.7-5.2-1.7-7.8.9-2.4 2.7-4.3 3.6-6.6l.6-.2c-.4 1.5-1.2 2.9-2.1 4.2-.3.1-.6.2-.9.4-.2 0-.2.2-.2.4.1.1.2.2.5.1-.1 0-.1 0 0 0z"/><path class="st0" d="M259.8 134.4c0 .1-.1.2-.1.3-3.1.8-6.5.4-9.7.6-4.4.2-8.8.3-13.2.5-8.5.5-17.1 1.3-25.6.9-.1-.1-.1-.2-.2-.2v-.1c10.2 0 20.4-.9 30.6-1.4l8.4-.3c2.5-.1 5-.1 7.4-.2.9.1 1.6.1 2.4-.1zm-.5 3.8c-.1.2-.3.5-.4.7-.3.1-.6.2-1 .3.1-.2.2-.4.3-.5.4-.1.7-.3 1.1-.5z"/><path class="st0" d="M258.9 138.9c-.1.2-.2.3-.3.5-.3.1-.6.2-.9.2.1-.1.2-.3.2-.4.3 0 .7-.1 1-.3zm-.5-13.6c-.1.1-.1.1-.1.2-.6 2-2.1 3.7-2.3 5.8-.1-.3-.2-.6-.3-.8.1-.6.3-1.2.6-1.8.7-1.2 1.3-2.4 1.9-3.7 0-.2.2-.3.4-.3s.3.2.3.4v.3c0-.1-.2-.2-.3-.1-.2-.1-.2-.1-.2 0z"/><path class="st0" d="M258.6 125.7c0 .2-.1.3-.2.5-.1-.2-.1-.5-.1-.7 0-.1 0-.2.1-.2.1-.1.2-.1.3 0 0 .1 0 .2-.1.4z"/><path class="st0" d="M258.3 125.5c0 .3.1.5.1.7-.3.8-.6 1.5-1 2.3-.4 1-.8 2-1.4 3l-.1-.3c.3-2 1.8-3.8 2.4-5.7zm-.4 13.8c-.1.1-.2.3-.2.4h-.1c-.2 0-.3 0-.4-.2 0-.2 0-.3.2-.4.3-.1.6-.2.9-.4-.2.2-.3.4-.4.6zm0 9.8c.1 0 .2 0 .4.1-.1.1-.3.1-.4-.1-.1-.1 0 .1 0 0z"/><path class="st4" d="M259.7 134.7c-.9 2.4-2.7 4.2-3.6 6.6-1 2.5.3 5.7 1.7 7.8-6.5-1.3-13.2-1.8-19.8-1.5-.2 0-.3.1-.3.3v.2h-.2c-2.7.4-4.9 1.8-7.3 3.1-1.4.8-2.6 1.8-3.9 2.5s-3.7-2.6-5-3.3c-.1 0-.1-.1-.2 0-3.6-4.3-7-8.9-10-13.7 8.5.4 17.1-.4 25.6-.9 4.4-.3 8.8-.4 13.2-.5 3.3-.1 6.7.2 9.8-.6z"/><path class="st0" d="M255.8 131.6c0 .1.1.1.2.1 0 0 .1 0 .1-.1.1.2.1.3.2.5s-.2.3-.3.2c-5.2-5.4-7.2-15.7-8.1-23.1h.2c.2.6.2 1.3.4 1.8.6 3 1.4 6 2.4 8.9 1.1 4.1 2.7 8 4.9 11.7z"/><path class="st0" d="M256 131.3l.1.3c0 .1-.1.1-.2.1 0 0-.1 0-.1-.1-.2-.3-.2-.7-.1-1.1.1.2.2.5.3.8z"/><path class="st0" d="M255.7 130.4c-.1.4 0 .8.1 1.1-2.1-3.7-3.8-7.6-4.9-11.7-1-2.9-1.8-5.9-2.4-8.9-.1-.6-.2-1.2-.4-1.8h.2c1.4 3.3 2 7.2 3 10.6 1.3 3.7 2.9 7.2 4.4 10.7zm-6.6 80.3c0-.1.1-.3.2-.3l.3.3c.1.1.1.2.1.2 0 .1-.1.2-.1.2-.1 0-.2-.1-.3-.1s-.2-.1-.2-.3z"/><path class="st0" d="M249.4 211.1c.1 0 .2.1.3.1-.1.1-.3.1-.4 0-1.1-.6-2.1-1.3-3-2.1.1-.1.1-.1.1-.2.1-.2.1-.4 0-.5.9.8 1.7 1.7 2.7 2.3 0 .2.1.3.3.4zm0-.7c-.1 0-.2.2-.2.3-.9-.7-1.8-1.6-2.7-2.3-.1-.2-.3-.3-.4-.4l-.3-.3c-1.9-1.5-3.2-3.4-4.9-5-.1-.1-.2-.2-.3-.2 0 0 0-.1-.1-.1-1.8-1.6-3.7-3.1-5.4-4.8-1.2-1.1-2.1-2.8-3.4-3.7.1-.1.2-.2.2-.3 1.4 1 2.3 2.4 3.6 3.6 1.6 1.5 3.2 2.8 4.9 4.2 3.1 2.8 6 6 9 9zm-1.2-101.2h-.2c0-.2 0-.4-.1-.6h.3c.1.2.2.4.2.6h-.2zm-.1-.7c-.1 0-.2 0-.3.1 0-.2.2-.2.3-.1z"/><path class="st0" d="M247.8 108.6c0 .2 0 .4.1.6-3.5 0-7.1.4-10.5 1.3l.2-.1c.2-.1.3-.4.2-.6 3.3-1 6.7-1.3 10-1.2zm-2 100.1c-.2-.1-.3-.3-.5-.5.1-.1.2-.2.3-.2.1-.1.3-.1.5 0l.5.4c.1.2.1.4 0 .5 0 .1-.1.1-.1.2-.4-.1-.6-.2-.7-.4z"/><path class="st0" d="M245.8 208.7c.1.1.3.3.5.4-.7 1-2.4 3-3.6 2.1v-.1c.3.1.7 0 .9-.3.8-.3 1.5-1.5 2.2-2.1zm.7-.3l-.5-.4c.2.1.4.2.5.4zm-.5-.4c-.1-.1-.3-.1-.5 0-.1 0-.2.1-.3.2-1.5-1.4-2.8-2.8-4.3-4.2-.1-.5-.3-1-.5-1.4.1.1.2.1.3.2 1.7 1.6 3 3.5 5 5l.3.2z"/><path class="st0" d="M245.3 208.2l.5.5c-.7.6-1.4 1.8-2.3 2.1.1-.1.1-.2 0-.3s-.2-.1-.3-.2c.4-.3.8-.6 1.1-.9.3-.5.6-.8 1-1.2z"/><path class="st2" d="M245.3 208.2c-.4.3-.7.7-1 1.1-.3.3-.7.7-1.1.9-1.6-1.5-1.7-4.1-2.2-6.2 1.5 1.4 2.8 2.9 4.3 4.2z"/><path class="st0" d="M242.8 210.6c.1-.1.2-.3.4-.4.1.1.2.2.3.2.1.1.2.2.1.3v.1c-.2.3-.6.4-.9.3 0-.1 0-.3.1-.5.1 0 0 0 0 0zm.4-91.8c.1 1.7-.2 3.4-.7 5.1-.3.9-.6 2.3-1.4 2.8-.3.1-.7 0-.8-.2v-.4h.2c.1 0 .2 0 .2-.1l.2.2c1.3-1.5 3.2-8.1.9-10-2.8-2.4-4.9 8.3-1.4 9.6-.1.1-.1.1-.1.2-3.7-.5-2.5-9.1 0-10.6 1.8-1 2.8 2.1 2.9 3.4z"/><path class="st0" d="M243.2 210.2c-.1.1-.3.2-.4.4-1.5-.7-2-5.1-2.4-7.2.2.2.4.3.6.5.5 2.3.6 4.9 2.2 6.3z"/><path class="st0" d="M242.8 210.6l-.1.1c-.1.1-.1.3-.1.4-.9-.3-1.6-2-1.8-2.6-.4-1.8-.7-3.6-.8-5.5l.2.2.1.1c.5 2.1 1.1 6.6 2.5 7.3zm-1.1-94.5c2.3 1.9.4 8.5-.9 10l-.2-.2c.1-.1.1-.3 0-.4-.1 0-.1-.1-.1-.1.3-.5.6-1 .8-1.5.4-1 .7-2 .9-3 .3-1.2.2-2.4-.1-3.6-.4-1-1.3-1.6-2-.5-1.4 2.4-1.8 6.6.4 8.6-.1.1-.1.2-.1.3-3.6-1.3-1.5-12 1.3-9.6z"/><path class="st0" d="M242 117.3c.3 1.2.4 2.4.1 3.6-.2 1-.5 2-.9 3-.2.5-.5 1-.8 1.5-2.2-2-1.8-6.2-.4-8.6.7-1.1 1.6-.5 2 .5zm-1.6 86.1l-.1-.1-.2-.2v-.4c0-.2.2-.3.4-.2l.1.1c.2.5.4 1 .5 1.5l-.7-.7zm.2-77.8c.1.1.1.3 0 .4l-.2-.2h-.1c0-.1.1-.2.1-.3.1 0 .1 0 .2.1z"/><path class="st0" d="M240.4 125.8l.2.2c-.1 0-.1.1-.2.1h-.2c0-.1 0-.2.2-.3zm0 76.6c-.1-.1-.4 0-.4.2v.4c-2.4-2.2-4.6-4.5-6.8-6.8l.1-.3c.1-.3-.3-.4-.5-.2-.5-.6-1-1.1-1.6-1.7.1 0 .1-.1.2-.1s.1-.1.1-.1c1.3 1 2.2 2.6 3.4 3.7 1.8 1.8 3.7 3.3 5.5 4.9zm-2.2-54.1H237.9l-.1-.1c.1-.1.2-.1.3-.1.1.1.1.1.1.2zm-6.8 44.9c.2-.2.6.1.4.3-.1-.1-.2-.2-.3-.2h-.2c.5-4 .4-8.1.9-12.1.1-1 .3-2 .4-3 .4-.2.5-.6.4-.9 0-.1-.1-.2-.1-.2.2-1.7.4-3.3.7-5 1.1-7.9 3.9-15.4 4.5-23.4V148.4h.2c0 7.4-2.6 14.4-3.8 21.6-.9 5.1-1.6 10.3-2 15.4-.3 1.8.3 6.3-1.1 7.8z"/><path class="st0" d="M238 148.3c-.1-.1-.1 0 0 0z"/><path class="st0" d="M238 148.4c0 .2-.1.2-.1.3l-.2.2c0-.3.1-.5.1-.7v-.1s0 .1.1.1c0 .1.1.2.1.2z"/><path class="st0" d="M237.8 148.7c.1-.1.1-.1.1-.2-.6 8-3.4 15.5-4.5 23.4-.2 1.7-.5 3.3-.7 5-.2-.2-.4-.4-.6-.5.2-1.5.4-3.1.6-4.6.1-.5.2-1 .2-1.4l.2.1c.2 0 .3 0 .4-.2 0-.1 0-.3-.1-.4l-.4-.2c1.2-7 3.1-13.8 4.4-20.7.3-.1.4-.2.4-.3zm0-39c.1.2 0 .5-.2.6l-.2.1c-.7.2-1.3.3-1.9.5-.2.1-.4 0-.4-.2.6-.2 1.2-.4 1.7-.7l1-.3z"/><path class="st0" d="M236.8 110c-.6.3-1.1.5-1.7.7-.1-.2 0-.4.1-.5h.1c.8-.3 1.6-.6 2.4-.8.1.1.2.2.2.4l-1.1.2zm-15.1 41.1c-.1-.2-.3-.4-.4-.6.1-.1.1 0 .2 0 1.2.7 3.6 4 5 3.3s2.6-1.8 3.9-2.5c2.4-1.3 4.6-2.8 7.3-3.1h.2v.1c-.1.3-.1.5-.1.7-1.4 1.2-3.4 1.7-4.9 2.7-1.9 1.2-3.8 2.4-5.7 3.4-2.7 1.4-4.1-1.5-5.5-3.5.2 0 .3-.2.2-.4-.1 0-.2-.1-.2-.1z"/><path class="st0" d="M237.1 109.2c.2-.1.4 0 .6.1-.8.2-1.6.5-2.4.8-.2.1-.3.3-.3.5v.1c-2.2.7-4.5 1-6.7 1.5-2.9.6-5.2 2.5-8 3.1-5.5 1.2-10.6-4-15.3-5.9-2.7-.9-5.4-1.5-8.2-1.8-.2-.1-.3-.1-.5-.1-1.3-.2-2.6-.5-3.8-.9v-.4c6.5.8 12.1 1.8 17.8 5.2 2.3 1.3 5.6 3.6 8.3 3.2 4.6-.5 4.2-1.7 7.4-2.8 3.6-1 7.3-1.9 11.1-2.6z"/><path class="st0" d="M235.5 110.9c.6-.2 1.3-.4 1.9-.5-4.1 2.9-10 3.1-14.6 5-2.6 1-5.4 1-8 0-4.2-1.3-7.4-5-11.7-6.1-.1 0-.3-.1-.4-.1 0-.1 0-.3-.1-.4 0-.1-.1-.1-.2-.1-.1.1-.2.2-.3.4-1.7-.4-3.4-.6-5-.9v-.2c0-.2-.1-.3-.2-.4 2.8.3 5.6.9 8.3 1.8 4.7 1.9 9.8 7.1 15.3 5.9 2.7-.6 5.1-2.5 8-3.1 2.2-.5 4.5-.8 6.7-1.5 0 .1.1.3.3.2zm-2.4 59.1v-.3l.4.2c.1.1.2.3.1.4-.1.1-.2.2-.3.1l-.2-.1c-.1-.1 0-.2 0-.3z"/><path class="st2" d="M232.8 151.6c1.5-1 3.4-1.4 4.8-2.6-1.3 7-3.2 13.8-4.4 20.7-3.1-1.6-5.6-2.6-9.1-2-2.8.5-5.6 1.3-8.3 2.4-.3-.8-.4-1.6-.5-2.4h.1c.2-.3.2-.7-.1-.9.1-2.6.3-5.1.7-7.7.1-1.1.3-2.2.4-3.3.9-2 2.3-3.7 3.9-5.2l1 .9c.1.1.2.1.3.1 1.4 2 2.8 4.8 5.5 3.5 2-1.1 3.9-2.3 5.7-3.5z"/><path class="st0" d="M233 196l-.2-.2c.2-.2.5-.1.5.2l-.1.3-.2-.3z"/><path class="st0" d="M233 196l.2.2c-1.5 4.9-.4 10.6-3 15.1-.1.2-.4.3-.7.2-.1 0-.1-.1-.2-.2l-.4-.5.2.1c.1.1.2.1.2 0v-.1c.1.1.2.2.3.2l.1-.4h.1v-.1c1.4-3 1.4-6.7 1.7-9.9.1-1 .6-1.8.7-2.7.2-.5.4-1.3.8-1.9zm.1-26.3v.3c-1.9-.6-3.5-1.9-5.7-2-2.2 0-4.4.4-6.4 1.2-1.6.6-3.5 1-5.3 1.5.1-.1.1-.2.1-.3l-.1-.2c2.7-1.1 5.5-1.9 8.3-2.4 3.5-.7 6.1.3 9.1 1.9z"/><path class="st0" d="M233.1 170c0 .1 0 .2-.1.3-1.5-.4-3-1.4-4.4-1.7-2.7-.5-5 .3-7.5 1-3 1-6.5 1.4-9.2 3.3l-.1-.4-.1-.1c1.2-.8 2.4-1.4 3.8-1.8.1 0 .2 0 .3-.1 1.8-.6 3.7-1 5.3-1.5 2-.8 4.2-1.2 6.4-1.2 2.1.3 3.7 1.6 5.6 2.2z"/><path class="st6" d="M233 170.4c-.1.5-.1.9-.2 1.4-.2 1.5-.4 3.1-.6 4.6-5.7-4.8-11.1.1-17.2 2.1-.6-.8-1.2-1.6-1.7-2.4-.5-1-.9-2-1.3-3.1 2.6-1.9 6.1-2.3 9.2-3.3 2.5-.8 4.8-1.5 7.5-1 1.3.2 2.9 1.2 4.3 1.7z"/><path class="st0" d="M232.8 195.8l.2.2c-.3.6-.5 1.3-.6 2-.1.9-.7 1.8-.7 2.7-.3 3.2-.3 6.9-1.7 9.9-.1-.1-.3-.2-.4-.4 1.1-3.9.8-8.5 2.2-12.4.2-.1.4-.1.5-.3.2-.1.2-.3.1-.5 0-.1-.1-.1-.2-.1.2-.3.4-.7.6-1.1zm0-18.8c.3.3.3.7 0 1-.1.1-.1.1-.2.1 0-.4.1-.7.2-1.1z"/><path class="st2" d="M231.3 194.1c.5.6 1 1.1 1.6 1.7-.3.4-.5.8-.7 1.3-1.4-.4-3.2 0-4.7 0-2.1.2-4.2.6-6.2 1.2-.3-.5-.5-1-.7-1.5-1.9-3.7-3.1-7.8-3.8-11.9.2-.2.1-.6-.1-.7-.2-1.6-.4-3.3-.6-5 1.5-.1 2.9-1.1 4.3-1.7 4.2-1.7 7.7-3.2 11.5.5.1.1.1.1.2.1-.5 5.2-.8 10.3-1.1 15.5v.2c-.1.3.1.4.3.3z"/><path class="st0" d="M232.1 177.3c0-.3 0-.6.1-.8.2.1.4.3.6.5-.1.4-.1.8-.2 1.2-.2.1-.4.1-.6 0 0-.3 0-.6.1-.9z"/><path class="st0" d="M232.6 178.1c-.1 1-.3 2-.4 3-.5 4-.4 8.1-.9 12.1-.2 0-.3.2-.3.4.3-5.2.5-10.4 1.1-15.5.1.1.3.1.5 0zm-.6 19.3c0-.1.1-.2.1-.3.2.1.3.3.2.4 0 .1-.1.1-.1.2-.2.1-.3.2-.5.3l.3-.6zm.2-21c-.1.3-.1.6-.1.8-1.9-2-4.7-2.9-7.4-2.2-2 .6-3.8 1.6-5.6 2.4-.9.4-2.1 1.1-3.1 1.4-.1-.2-.4-.3-.6-.1l-.1.1-.2-.3c6-2 11.3-6.8 17.1-2.1z"/><path class="st0" d="M232.1 197.1c-.1.1-.1.2-.1.3-1.5.2-3.1.3-4.6.3-2 .3-4 .6-6 1.1-.1-.2-.2-.3-.2-.5 2-.6 4.1-1 6.2-1.2 1.5-.1 3.3-.4 4.7 0zm0-19.9c0 .3-.1.6-.1.8-.1 0-.2-.1-.2-.1-3.8-3.7-7.2-2.2-11.5-.5-1.4.6-2.9 1.5-4.3 1.7v-.2c0-.1 0-.1-.1-.2 1.1-.4 2.1-.9 3.1-1.4 1.9-.8 3.7-1.7 5.6-2.4 2.8-.5 5.6.3 7.5 2.3z"/><path class="st0" d="M232 197.4l-.2.5c-1.3.5-3 .2-4.4.3-2 .1-3.8.7-5.8 1-.1-.1-.2-.3-.2-.5 2-.5 4-.8 6-1.1 1.5.1 3.1 0 4.6-.2zm-.6-3.7l-.2.2c0-.2 0-.4.1-.6.1 0 .1 0 .2.1s.2.1.3.2c-.1.1-.1.2-.2.3l-.2-.2z"/><path class="st0" d="M231.4 193.7c.1 0 .1.1.2.2l-.1.1c0 .1-.1.1-.2.1l-.2-.3c-.1-.1-.1-.1-.1-.2 0-.2.2-.3.3-.4 0 .2 0 .4-.1.6 0 0 .1-.1.2-.1zm-.4.2l.2.3c-.2 0-.4 0-.4-.3v-.2c.1 0 .1.1.2.2z"/><path class="st2" d="M231.8 197.9c-1.4 3.8-1 8.5-2.2 12.4-.1-.1-.3-.1-.4 0-3.3-2.6-5.6-7.1-7.6-11.1 1.9-.2 3.8-.9 5.8-1 1.4-.1 3.1.3 4.4-.3z"/><path class="st0" d="M230.1 210.7h-.1m0 0l-.4.1c.1-.1.1-.2.1-.3l-.1-.1c0-.1.1-.1.1-.2 0 .2.2.4.3.5zm0 .1l-.1.4c-.1 0-.2-.1-.3-.2l.4-.2zm-.5-.3c.1.1.1.2.1.3l-.1.1-.1-.1c.1-.1.1-.2.1-.3zm.1-.2c0 .1 0 .2-.1.2-.1-.1-.2-.2-.3-.2.1-.1.3-.1.4 0z"/><path class="st0" d="M229.5 210.8l.1.1-.2.1c0-.1 0-.1.1-.2z"/><path class="st0" d="M229.5 210.8c0 .1 0 .1-.1.2l.1-.2c.1.2 0 .2-.1.2l-.1-.1-.2-.1v-.2c0-.1.1-.2.2-.3.1.1.2.1.3.2-.1.1-.1.2-.1.3zm-.5-.2v.2c-5.1-3.3-8-10-10.4-15.4-1.4-3.3-2.5-6.7-3-10.3l.1.1c.1.1.3.1.4.1.8 4.6 2.3 9.1 4.5 13.2-.2.3 0 .9.4.8.2.5.5 1 .8 1.6 1.1 2 2.5 3.9 3.6 5.8.9 1.6 2.1 2.9 3.6 3.9z"/><path class="st0" d="M229.2 210.3c-.1 0-.2.1-.2.3-1.5-1-2.7-2.3-3.5-3.9-1.1-2-2.4-3.8-3.6-5.8-.3-.5-.6-1.1-.8-1.6.2 0 .4 0 .5-.1 2 4 4.4 8.6 7.6 11.1zm-7.5-59.3c.1.2.1.4 0 .5l-.1.1c-.2-.2-.3-.5-.5-.7-.1-.1-.1-.2 0-.3 0 0 .1-.1.2-.1.1.2.2.3.4.5z"/><path class="st0" d="M221.4 198.8c.1.2.1.3.2.5-.2 0-.4.1-.5.1-.2-.3-.3-.5-.4-.8.1-.1.2-.2.3-.2h.2c0 .1.1.2.2.4zm.2-47.2c-.1.1-.2.1-.3 0-.4-.3-.7-.6-1-.9 0-.1.1-.1.2-.2l.1-.1.6.6c0 .2.2.4.4.6zm-1.2 45.2c.2.5.5.9.7 1.5h-.1c-.1 0-.2.1-.3.2-2.2-4.2-3.7-8.6-4.5-13.2.2 0 .4-.2.5-.4.6 4.1 1.9 8.1 3.7 11.9z"/><path class="st0" d="M221.2 150.5c-.1 0-.2.1-.2.3 0 .1 0 .1.1.2l-.6-.6c.3-.4-.2-.8-.7-.7-.8-.9-1.6-1.7-2.4-2.6v-.3c0-.2-.2-.4-.5-.4h-.2c-2.4-2.8-4.4-6-6-9.3 0-.1.1-.1.1-.2h.4c3.1 4.6 6.4 9.2 10 13.6zm-.5 48c.1.3.2.5.4.8-.5 0-.6-.5-.4-.8z"/><path class="st0" d="M219.8 149.6c.4-.1.9.3.7.7l-.7-.7zm0 .7l-.4-.4.2-.2c.1-.1.1-.1.2-.1l.7.7c0 .1-.1.1-.1.1-.1 0-.1.1-.2.2-.2-.1-.3-.2-.4-.3z"/><path class="st0" d="M219.8 150.3l.4.4c-1.6 1.5-3 3.2-3.9 5.2.1-.5.1-1 .2-1.4.8-1.7 1.9-3.1 3.3-4.2zm0-.7c-.1 0-.2 0-.2.1-.1.1-.2.1-.2.2-.7-.6-1.4-1.3-2.1-2 0-.3.1-.6.1-1l2.4 2.7z"/><path class="st0" d="M219.4 149.9l.4.4c-1.3 1.2-2.4 2.6-3.3 4.1.1-.5.1-.9.2-1.4.7-1.2 1.6-2.2 2.7-3.1z"/><path class="st2" d="M217.3 147.9c.7.7 1.4 1.4 2.1 2-1 .9-2 1.9-2.7 3.1.2-1.7.5-3.3.6-5.1z"/><path class="st0" d="M216.8 146.3c.2-.1.5-.1.6.1 0 .1.1.1.1.2v.4l-.7-.7zm.1 1.2l-.4-.4c0-.2.1-.4.1-.5s.1-.2.2-.3l.6.7c0 .3 0 .7-.1 1-.1-.2-.3-.3-.4-.5z"/><path class="st0" d="M216.9 147.5c.1.2.3.3.4.4-.1 1.7-.4 3.4-.6 5.1-.3.4-.5.8-.7 1.2.3-2.2.6-4.5.9-6.7z"/><path class="st0" d="M216.5 147.1l.4.4c-.3 2.3-.6 4.5-1 6.7-.4.7-.8 1.5-1.2 2.2-.2.5.4 1 .7.8-.5 3-.7 6.1-.6 9.1v.4c-.2 0-.3.1-.4.2-.1.1-.2.2-.4.3-1-6.4 1.5-14.5 2.5-20.1zm.1 37c.2.2.3.5.1.7-.1-.1-.1-.4-.1-.7z"/><path class="st0" d="M216.7 153c-.1.5-.1.9-.2 1.4-.3.5-.5.9-.8 1.3.1-.5.1-1 .2-1.5.3-.4.5-.8.8-1.2zm-.6 31.6c-.1-.3-.1-.7-.1-1l.6.6c0 .2.1.5.1.7-.1.2-.3.4-.5.4-.1-.2-.1-.5-.1-.7zm.7-38.3c-.1.1-.2.1-.2.3s-.1.4-.1.5c-2.7-2.9-4.8-6.2-6.3-9.9h.2c.2 0 .3-.1.4-.2 1.5 3.3 3.5 6.4 6 9.3z"/><path class="st0" d="M216.5 184.1l-.6-.6c-.2-1.4-.4-2.9-.4-4.3h.4c.2 1.7.4 3.3.6 4.9zm0-29.7c-.1.5-.1 1-.2 1.4-.1.4-.3.8-.6 1.1l-.2.2c0-.5.1-.9.2-1.4.2-.4.5-.9.8-1.3z"/><path class="st2" d="M210.2 137.1c1.5 3.7 3.6 7 6.3 9.9-1 5.7-3.5 13.8-2.4 20.1-3.7 3.5-8 6.3-12.6 8.3-4.2 1.9-9 4.6-13.8 4.1 0-.2-.1-.4-.2-.7v-.1c-.2-7.2-4-14.9-5.3-22.1-1.6-8.3-4.4-16.4-6.5-24.6-4.2-16.1-7.7-32.4-11.6-48.6 6.8 7.2 12.9 15.9 18.5 23.9 2.4 3.5 5.3 6.1 8.2 9.1 2.4 2.5 4.5 5.4 7.4 7.3-.3.4-.5.7-.8 1.1-1.4 1.7-2.5 3.3-2.1 5.5s3.7 3.9 5.4 4.9c2.8 1.9 6.2 2.1 9.5 1.9z"/><path class="st0" d="M216.2 185.3c-.1 0-.3 0-.4-.1l-.1-.1c0-.3-.1-.7-.1-1 .2.2.4.4.6.5-.1.3-.1.5 0 .7zm-.5-28.3c.2-.4.4-.7.6-1.1-.1 1.1-.3 2.2-.4 3.3-.4 2.5-.6 5.1-.7 7.7-.1-.1-.2-.1-.3-.1v-.3c-.1-3.1.1-6.1.6-9.1l.2-.4z"/><path class="st0" d="M215.9 183.6c0 .3 0 .7.1 1-.2-.1-.4-.3-.6-.5l-.1-1 .6.5zm-.3-4.4h-.4c.1-.1.1-.2.1-.3.2 0 .5 0 .7-.1 0 .1.1.1.1.2v.2h-.5zm.1-23.5c-.1.5-.2.9-.2 1.4-.3.1-.6 0-.7-.3-.1-.2-.1-.3 0-.5.4-.7.8-1.5 1.2-2.2-.2.6-.2 1.1-.3 1.6zm.2 27.9l-.6-.5c-.1-1.3-.2-2.5-.2-3.8h.4c.1 1.4.2 2.8.4 4.3zm-.5-13.4c.1-.1.2-.1.3-.1l.1.2c0 .1 0 .2-.1.3-.1 0-.2.1-.3.1s-.2-.1-.3-.1c-.1-.1-.1-.2-.1-.3l.4-.1z"/><path class="st0" d="M215.7 170.1c-.1 0-.2.1-.3.1-.3-.7-.5-1.4-.5-2.1.1-.1.2-.3.3-.4.1.8.2 1.6.5 2.4zm-.5 8.7c.1-.2.4-.3.6-.1.1 0 .1.1.1.1-.2.1-.4.1-.7.1v-.1c0-.1 0 0 0 0zm.3 5.3c0 .3.1.7.1 1-1.9-1.3-3.4-3.8-4.7-5.6-1.1-1.6-3-3.7-3.2-5.7l.5-.3c-.2 1.2 5.1 8.5 7.3 10.6z"/><path class="st0" d="M215.2 166.8c.3.2.3.6.1.9h-.1v-.9zm.2 16.2l.1 1.1c-2.2-2.1-7.5-9.5-7.3-10.5.1 0 .2-.1.3-.2 0 0 0 .1.1.1 1 1.9 2.1 3.7 3.5 5.4 1 1.5 2.1 2.8 3.3 4.1zm0-12.8l-.3.1c-.3-.5-.5-1.1-.6-1.7.1-.2.3-.4.5-.6-.1.9.1 1.6.4 2.2zm-.2.5c.1.1.2.2.3.1-1.3.4-2.6 1-3.8 1.8-.1-.1-.3 0-.3.2v.5c-.4-.2-.5-.8 0-1 1.2-.6 2.4-1.2 3.8-1.6-.1-.2-.1-.1 0 0z"/><path class="st0" d="M215.2 167.7c-.1.1-.2.3-.3.4 0-.5 0-1-.1-1.5.1 0 .2.1.3.1.1.4.1.7.1 1zm0 11.2c0 .1 0 .3-.1.3l.1-.3zm0-.1c0 .1-.1.1-.1.1v-.1h.1z"/><path class="st6" d="M215.1 179.2c0 1.3.1 2.5.2 3.8-1.2-1.3-2.3-2.7-3.3-4.1-1.4-1.7-2.5-3.5-3.5-5.4l-.1-.1c2.2-1.3 4.2-2.9 6-4.8.1.6.4 1.1.6 1.7-1.3.5-2.6 1.1-3.8 1.7-.3.2-.4.5-.2.8.1.1.1.2.2.2.2 2.1 1.2 5.7 3.4 6.2.3.1.4.1.5 0z"/><path class="st0" d="M215.1 178.9v.3h-.2c-.2 0-.3-.2-.3-.3v-.1c0-.1.1-.2.2-.2l.1-.1.2.3v.1z"/><path class="st0" d="M215.1 179.2c-.1.1-.2.1-.3.1-2.2-.5-3.2-4.1-3.4-6.2.1.1.2.1.3 0 .5 1.9 1.4 4.5 3 5.6 0 .2 0 .3.2.4l.2.1z"/><path class="st0" d="M215 178.5l-.1.1c-.1 0-.2.1-.2.2-1.5-1.2-2.5-3.8-3-5.6.1 0 .1 0 .2-.1 0 0 .1 0 .1-.1.4 1 .8 2.1 1.3 3.1.5.8 1.1 1.7 1.7 2.4zm-.8-10.6c-.1-.3-.1-.5-.2-.8.1-.1.2-.2.4-.3.1-.1.3-.2.4-.2 0 .4 0 1 .1 1.5-.1.2-.3.4-.5.6 0-.3-.1-.5-.2-.8z"/><path class="st0" d="M214.2 167.9c0 .3.1.5.2.8-1.8 1.9-3.8 3.5-6 4.8-.2-.2-.5-.2-.6 0-.1.1-.1.2-.1.3v.1c-2.5 1.4-5.1 2.7-7.8 3.8-3.4 1.5-8.1 4-11.9 2.9.2 0 .4-.2.4-.4 4 .6 12-3.5 15.2-5 4-1.7 7.6-4.2 10.6-7.3z"/><path class="st0" d="M214.1 167.1c0 .3.1.5.2.8-3 3.1-6.6 5.6-10.6 7.3-3.2 1.4-11.2 5.6-15.2 5v-.2c0-.2-.2-.4-.4-.4-.1 0-.2 0-.3.1v-.1c4.8.5 9.6-2.2 13.8-4.1 4.5-2.1 8.8-4.9 12.5-8.4zm-1.5-47.3c.1 2 0 4.2-1.4 5.8-.2.2-.5.2-.7.1-.3-.2-.5-.4-.7-.7 0 0 .1.1.2.1.1.1.2-.1.1-.2l-.1-.1v-.4c.1.3.4.6.8.7 1.9-1.3 1.9-10.4-1.2-9.3-2.4.7-1.3 7.1.1 8.8v.1c0 .1 0 .2.1.2-2.5-1.4-3.6-9.8.5-9.6 1.9.2 2.2 3.2 2.3 4.5z"/><path class="st0" d="M210.1 124.5v.4l-.3-.6c.1-.2.3-.3.5-.2l.1.1c.7.6.8-.3 1-1 .2-.9.3-1.7.3-2.6 0-.8 0-4.8-1.6-4.3-1.9.6-1.3 3.7-1 5.2.2 1 .4 1.9.8 2.8-.1.1-.1.2-.1.3 0 .1 0 .1.1.2-1.5-1.8-2.6-8.1-.2-8.8 3.1-1.1 3.1 8 1.2 9.3-.4-.2-.7-.5-.8-.8zm1.6 48.7c-.1.1-.2.1-.3 0v-.4c0-.1.1-.3.3-.2h.1c.1 0 .1.1.1.1l.1.4-.1.1h-.2z"/><path class="st0" d="M211.6 120.5c0 .9-.1 1.7-.3 2.6-.2.8-.3 1.6-1 1-.1-.1-.4-.1-.5 0l-.1.1c-.4-.9-.6-1.9-.8-2.8-.3-1.5-.8-4.6 1-5.2 1.7-.4 1.7 3.6 1.7 4.3zm-.5 16c0 .1.1.2.2.2h-.4c0-.1 0-.2-.1-.3 0 .1.1.1.3.1z"/><path class="st0" d="M211.1 136.4h-.3c0-.1-.1-.2-.2-.2h.1c.1 0 .3.1.4.2zm-1 .3c0-.1 0-.2.1-.2h.5c0 .1.1.2.1.3-.2-.1-.5-.1-.7-.1z"/><path class="st0" d="M210.7 136.9c-.1.1-.2.2-.4.2h-.1c0-.1-.1-.1-.1-.2v-.2h.7c0 .1 0 .2-.1.2zm0-.4h-.5c.1-.1.2-.2.3-.2s.2.1.2.2zm-.1-.3h-.1.1z"/><path class="st0" d="M210.2 136.5c-.1 0-.1.1-.1.2h-.1c-.2 0-.2-.4.1-.4h.4c-.1 0-.2.1-.3.2z"/><path class="st0" d="M199.9 122.6c-.1-.3-.2-.6-.3-.8.7-1.1 1.7-2.2 2.7-3 .1-.1.1-.1.2-.1.1.2.3.2.5.2.2.2.2.6 0 .8-1.8 1.6-7.8 9-5.1 11.5 3.6 3.3 7.6 4.4 12.4 5h.1-.4c-.1 0-.2.1-.2.2s0 .1.1.2c-1.5 0-3.1-.1-4.6-.4-3.4-.7-6.5-2.5-8.7-5.2-2-2.3 1-5 2.4-6.9v-.1c.1-.1.1-.2.2-.3.4.1.7-.2.8-.6l-.1-.5c.1.1 0 .1 0 0z"/><path class="st0" d="M210.2 137.1c-3.3.1-6.7 0-9.6-1.8-1.7-1-4.9-2.8-5.4-4.9s.7-3.8 2.1-5.5c.3-.3.5-.7.8-1.1.1.1.3.2.4.3.1.1.3.1.4 0-1.3 1.9-4.4 4.6-2.4 6.9 2.3 2.6 5.3 4.4 8.8 5.1 1.5.3 3.1.4 4.6.5v.2c.2.2.2.3.3.3zm-.1-12.2c.1.1 0 .2-.1.2s-.1-.1-.2-.1c-.1-.1-.1-.2-.1-.2.1.1.2.1.4.1l-.1-.1.1.1z"/><path class="st0" d="M210.1 124.8v.2c-.1-.1-.2-.2-.3-.2v-.1c0-.1 0-.1-.1-.2 0-.1 0-.2.1-.3 0 .2.1.5.3.6zm-1.9 48.9l-.5.3v-.1c0-.3.2-.4.5-.4.1 0 .2 0 .3.1-.1-.1-.2 0-.3.1zm-5.8-64.4h.3c0 .5 0 1-.1 1.6 0 .9 0 1.9.1 2.8.2 1.6.5 3.2.7 4.8 0 .2-.1.3-.3.4-.1-.1-.3-.2-.5-.1-.8-1.7-1.2-3.6-1.1-5.5 0-1.1-.1-2.9.6-3.9.1-.2.2-.1.3-.1z"/><path class="st0" d="M203 118.9c-.2.1-.4 0-.5-.2.2-.1.4 0 .5.2zm-.6-9.6l-.3-.1c.1-.1.2-.3.3-.4h.2c0 .1.1.3.1.4-.1.1-.2.1-.3.1z"/><path class="st3" d="M202.6 118.7c-.1 0-.2 0-.2.1-1.1.8-2 1.9-2.7 3-1.6-4.3-2.5-8.8-2.6-13.4 1.7.3 3.4.5 5 .9-.7 1-.6 2.8-.6 3.9-.2 1.8.2 3.8 1.1 5.5z"/><path class="st0" d="M199.4 82.9l1.1-.4-.7.7-.6.3c-.1-.1-.3-.2-.3-.3l.5-.3zm.6 39.9c.2.4 0 .8-.4.9-.1.1-.3.1-.4.1.2-.4.5-.7.8-1-.1-.1 0-.1 0 0zm-.9-.3c.2-.3.4-.5.5-.8.1.3.2.6.3.8-.2.4-.5.8-.7 1.1h-.2c0-.1 0-.1-.1-.1l-.3-.3c.1-.2.3-.4.5-.7z"/><path class="st0" d="M199.2 83.5l.6-.3-.2.2c-.1.1-.3.2-.4.1zm0 40.2c-.1.1-.1.2-.2.3v-.3h.2zm.4-1.9c-.2.2-.4.5-.5.8-1.5-4.3-3.6-9.7-2.6-14.3.2 0 .4.1.6.1 0 4.5.8 9.1 2.5 13.4z"/><path class="st0" d="M199.1 122.5c-.2.3-.3.5-.5.7-1.6-4.6-4.3-10.3-2.7-15.1.2.1.4.1.6.1-1.1 4.6 1.1 10 2.6 14.3zm-.8 1.2l.2-.3c.1.2.3.3.5.4v.3l-.1.1c-.1.1-.3.1-.4 0-.1-.1-.3-.2-.4-.3.1-.1.1-.2.2-.2zm.6-.2c.1 0 .1.1.1.1-.2-.1-.4-.2-.5-.4.1.2.3.3.4.3z"/><path class="st0" d="M198.6 123.3c-.1-.1-.1-.1 0 0-.1 0-.1 0 0 0z"/><path class="st0" d="M198.5 123.3l-.2.3c-.7-.5-1.7-1.7-2.2-2.2-1.7-1.7-3.3-3.5-4.8-5.3-1.8-2-3.9-3.6-5.6-5.7-2.5-3.2-4.7-6.7-7.2-10-3-3.8-6.1-7.4-9.1-11.2-1.7-2.2-3.4-4.8-5.5-6.7-.1-.3-.1-.5-.2-.8.1 0 .1.1.1.1 6.6 6.1 12.6 14.2 17.7 21.5 3.1 4.4 6.8 8.1 10.2 12.3 2.1 2.5 4.1 5.5 6.8 7.7 0-.1 0 0 0 0z"/><path class="st0" d="M198.3 123.7c0 .1-.1.2-.2.2-2.9-2-5-4.9-7.4-7.3-2.9-3-5.8-5.7-8.2-9.1-5.6-8-11.7-16.8-18.5-24-.1-.3-.2-.7-.2-1 2.1 2 3.7 4.6 5.5 6.7 3 3.8 6.1 7.4 9.1 11.2 2.6 3.2 4.7 6.7 7.2 10 1.7 2.1 3.8 3.7 5.6 5.7 1.5 1.9 3.1 3.7 4.8 5.3.6.5 1.6 1.7 2.3 2.3zm-1.2-39.1c-.1 0-.2 0-.2-.1.1-.1.2-.2.3-.2s.2 0 .2.1v.1c-.1 0-.2.1-.3.1zm.1 0c.1 0 .2-.1.3-.1v.1c-5.7 5.3-5.6 14.6-5 21.8h-.4c-1.4-5.7.1-18.2 5.1-21.8zm-.8 23.6c-.2 0-.4-.1-.6-.1v-.2c.1-.2.2-.3.4-.4.2 0 .3.1.5.1.1.1.2.3.2.4v.3c-.1 0-.3 0-.5-.1z"/><path class="st0" d="M196.9 84.5c.1.1.1.1.2.1-5 3.5-6.5 16-5 21.7h-.1c-.1 0-.2 0-.3.1-2.5-6.1-.5-18.2 5.2-21.9zm-.1 23.2c-.2 0-.3-.1-.5-.1.2-.1.4 0 .5.1zm-.5-.2c-.2.1-.3.2-.4.4v.2a15 15 0 0 1-3.6-1.1c.1 0 .2-.1.2-.2v-.2c1.2.5 2.5.8 3.8.9z"/><path class="st0" d="M192.2 106.7l.3.1c0 .1-.1.2-.2.3l-.1-.1-.2-.5c.1-.1.2-.1.3-.1h.1c-.3 0-.3.1-.2.3z"/><path class="st0" d="M192.4 106.3v.4h-.2c-.1-.1-.1-.2-.1-.4h.3zm-.4.6l.1.1s-.1 0-.1-.1zm0 0c-.1 0-.1 0-.2-.1-.2-.1-.2-.3-.1-.5l.3.6zm-4.1 73.2h-.1c0-.1-.1-.3-.1-.4.2-.1.5-.1.6.1.1.1.1.2.1.3v.2c-.2-.1-.4-.1-.5-.2z"/><path class="st0" d="M187.5 180c0-.1.1-.3.2-.3 0 .1.1.3.1.4v.1c.2.2.1 0 .1-.1.2.1.3.1.5.1 0 .2-.2.4-.4.4l-.5-.1c-.1-.2-.3-.3-.4-.5 0-.2.1-.4.3-.4l.1.4z"/><path class="st0" d="M187.5 180.5l.5.1h-.3c-.1 0-.1 0-.2-.1zm.4-.4c0 .1.1.3 0 0-.1 0 0 0 0 0zm-.3-.6v.1c-.1.1-.2.2-.2.3v-.5l.2.1zm-.1 1c-.2-.1-.3-.3-.3-.5.1.2.2.3.3.5z"/><path class="st0" d="M163.2 81.8c-.2.1-.3.4-.1.6 0 0 0 .1.1.1l.3.3c2.4 10.6 5 21.1 7.4 31.7 1.5 6.7 3 13.4 4.8 20 1.6 6.1 3.5 12.1 5.1 18.2 1.2 4.7 1.8 9.9 3.3 14.5 1.3 3.8 2.4 7.7 3.5 11.6v.8c-.2 0-.3.2-.3.4-.4-1.3-.8-2.6-1-4-1.2-4.2-2.9-8.4-3.9-12.6-2-8.9-4.4-17.5-6.8-26.3-5-18.1-8.8-36.7-12.8-55.1-.1-.6.8-.8.9-.2v.2c-.2-.3-.4-.3-.5-.2z"/><path class="st0" d="M187.4 178.8c-1-3.9-2.1-7.8-3.5-11.6-1.6-4.6-2.1-9.7-3.3-14.5-1.5-6.1-3.5-12.1-5.1-18.2-1.8-6.6-3.3-13.4-4.8-20-2.4-10.6-5-21.1-7.4-31.7.2.2.4.4.6.7 4 16.2 7.5 32.5 11.7 48.6 2.1 8.2 4.9 16.3 6.5 24.6 1.4 7.1 5.1 14.9 5.3 22.1zm-23.6-96.3c.1.3.1.7.2 1-.2-.2-.4-.5-.7-.7-.1-.3-.2-.7-.2-1 .1-.1.3-.1.4 0 .1.2.2.5.3.7z"/><path class="st0" d="M163.4 82.8l-.3-.3c-.2-.2-.2-.4 0-.6l.1-.1c.1.3.2.7.2 1z"/><path class="st7" d="M175.2 116.1c-1.5-2.5-4.2-10.5-2.1-12.8 3.1 2.1 4 10.1 3.1 13.4-.8 0-.6-.4-1-1"/><path class="st8" d="M175.2 116.1c-1.5-2.5-4.2-10.5-2.1-12.8 3.1 2.1 4 10.1 3.1 13.4-.8 0-.6-.4-1-1"/><path class="st7" d="M175.6 115.9a31 31 0 0 1-2.1-5.8c-.3-1.2-.5-2.4-.6-3.6 0-.4-.1-3.1.7-2.3 1.8 1.8 2.2 5 2.5 7.4.1 1.1.1 2.1 0 3.2-.1 1.4.2 1.5-.8.8-.1-.1-.2 0-.3.1v.1c-.1.9.2 1.4 1.1 1.5.2.1.5-.1.6-.3.8-4.1.3-11-3.3-13.8-.1-.1-.4-.1-.5 0-2.7 3.3 0 10.1 2 13.2.1.2.4.3.6.1s.2-.4.1-.6zm65.1 44.2c-1-1.9.8-10.5 3.6-6.9 1.5 1.9-2.7 6.9-3.4 7.3"/><path class="st8" d="M240.7 160.1c-1-1.9.8-10.5 3.6-6.9 1.5 1.9-2.7 6.9-3.4 7.3"/><path class="st7" d="M241.2 160.1c-.1-1.2-.1-2.4 0-3.6.2-1.1.4-2.9 1.5-3.6.6-.4 1.2.9 1.2 1.3-.1.8-.4 1.6-.9 2.3-.7 1.2-1.6 2.3-2.6 3.3-.3.3-.4.8-.1 1.1s.8.4 1.1.1l.1-.1c1.5-1.5 2.6-3.3 3.3-5.3.5-1.6 0-3.6-2-3.8-1.6-.2-2.5 2.4-2.8 3.5-.4 1.3-1.1 4.3.3 5.2.4.4.9 0 .9-.4zm-40-71.3c-1.1 0-.8-.8-.2-2.1 1-1.7 5.9-4 7.8-3.2 4.8 1.9-6.7 5.5-7.6 6.1"/><path class="st8" d="M201.2 88.8c-1.1 0-.8-.8-.2-2.1 1-1.7 5.9-4 7.8-3.2 4.8 1.9-6.7 5.5-7.6 6.1"/><path class="st7" d="M201.4 88.6c-1.7-1.7 3.8-4 4.8-4.3.8-.2 4.2-.4 2.6 1-2.2 1.9-5.3 2.2-7.7 3.6-.3.2-.4.5-.3.8.1-.4.1-.5 0-.4-.2.3-.1.6.2.8.1 0 .2.1.3.1.2 0 .1-.1-.3-.2.2.2.5.3.7.2 1.6-.6 10.7-3.6 8.7-6.4-1.7-2.3-5.6-.6-7.5.5-1.3.6-2.3 1.7-2.8 3.1-.4 1 .2 2.4 1.4 1.7 0-.2.1-.3-.1-.5.1 0 .1 0 0 0zm25.4-17c-2.3-2.3 6.3-5 8.4-3.4-1.5 2.1-5.2 2.9-7.8 3.2"/><path class="st8" d="M226.8 71.6c-2.3-2.3 6.3-5 8.4-3.4-1.5 2.1-5.2 2.9-7.8 3.2"/><path class="st7" d="M226.9 71.5c-1.2-2.7 6.4-4 8-2.9 0-.2-.1-.5-.1-.7-1.8 2.2-5 2.5-7.6 2.9-.6.1-.5 1.1.1 1.1 2.9-.1 6.4-1.1 8.2-3.5.1-.2 0-.5-.2-.6-1.8-1.3-4.9-.4-6.8.4-1.1.5-4 2.2-1.9 3.5.2.1.4-.1.3-.2z"/><path class="st2" d="M213.4 88.2c-1 2.5-1.6 10.1.7 12.8"/><path class="st8" d="M213.4 88.2c-1 2.5-1.6 10.1.7 12.8"/><path class="st2" d="M212.1 88.2c-.2 1.2-.4 2.4-.8 3.5-.2 1.4-.2 2.7-.2 4.1.1 2 .4 5.2 2.6 5.9.4.1.8-.1.9-.5v-.2c0-1.9-1-3.8-1-5.8-.1-1.3-.4-5 .6-6.1 1.8-1.9-2.1-3.2-2.1-.9zm10.5-1.5c1.1 4.2-.8 9.7 1.3 13.8"/><path class="st8" d="M222.6 86.7c1.1 4.2-.8 9.7 1.3 13.8"/><path class="st2" d="M222.2 86.4c-.7.9-.5 1.6-.5 2.7 0 1.5-.1 3-.2 4.4-.1 2.5-.3 5.9 1.8 7.6.3.4.9.4 1.3 0 .2-.2.3-.4.3-.6-.1-1.4-.2-2.8-.5-4.2-.1-1.5-.1-3 0-4.5 0-1.8.4-4.6-1.4-5.6-.3-.1-.7 0-.8.2zm13.6 1.3c0 2.7-1.3 9.9.6 12.6"/><path class="st8" d="M235.8 87.7c0 2.7-1.3 9.9.6 12.6"/><path class="st2" d="M235.2 87.1c-1.3 1.5-1.1 5-1.2 6.9-.1 2.3-.4 5.8 2 7.1.5.2 1.1 0 1.3-.4.1-.1.1-.2.1-.4 0-2.3-.6-4.6-.5-7 0-1.8.8-4.7-.4-6.2-.3-.4-.9-.4-1.3 0 .1 0 .1 0 0 0zm-11.7 52.7c0 2.9-.2 6.1.8 9"/><path class="st8" d="M223.5 139.8c0 2.9-.2 6.1.8 9"/><path class="st2" d="M222.8 139.6c-.5 3.1-.5 6.7 1 9.5.4.7 1.3.2 1.2-.5-.5-3-.3-6-.8-9-.1-.4-.5-.6-.9-.5-.2.1-.4.3-.5.5zm7.6.6c-.1 2.4-.1 4.8.2 7.1"/><path class="st8" d="M230.4 140.2c-.1 2.4-.1 4.8.2 7.1"/><path class="st2" d="M229.7 140c-.5 2.4-.9 5.5.3 7.7.2.3.6.5.9.3h.1c.2-.1.3-.2.3-.4.2-1.2.2-2.5.1-3.8 0-1.3-.1-2.5-.3-3.8-.1-.4-.5-.6-.9-.5-.3.1-.5.3-.5.5zm8.2 0c.4 1.5.2 3.8.8 5.4"/><path class="st8" d="M237.9 140c.4 1.5.2 3.8.8 5.4"/><path class="st2" d="M237.4 139.7c-.7.9-.2 2.8-.2 3.8 0 .8.5 2.8 1.8 2.5 1.1-.3.7-2.1.6-2.8-.2-1.1 0-3.2-1.2-3.7-.4-.2-.8-.1-1 .2z"/><path class="st8" d="M245.7 153.4c-.7 8.3-3.1 16.3-4.9 24.3-.9 3.9-2.1 8.3-2 12.4.1 2.7 1.9 4.4 3.5 6.5s3.3 4 5 5.9 3.3 5 6.2 4.4c3.3-.7 6.7-3.1 9.7-4.6 1.2-.6 4.2-1.8 5.1-2.7 1.1-1.2 1.2-4.7 1.5-6.3 1-5 1.8-10 2.2-15 .3-3.3.8-6.6 1.5-9.9.4-1.6 2.8-6.3 1.8-7.9s-6.8-1.9-8.6-2.2c-2.7-.6-5.5-.9-8.2-1.3-4.3-.6-8.4-1.6-12.5-2.9"/><path class="st2" d="M245.2 153.2c-1.6 8.8-3.7 17.5-5.8 26.2-1.4 5.9-3 11.3 1 16.4 2.3 3 4.9 5.8 7.3 8.7 1 1.2 2.5 3.4 4.4 3.4 3.1 0 5.5-1.3 8.2-2.7s6.9-2.8 9.1-5c1.1-1.1 1.3-3.1 1.5-4.6.5-4.3 1.5-8.6 2.1-12.9.6-4.1.9-8.2 1.6-12.2.5-2.8 2.2-5.4 2.4-8.2.4-4-3.1-4.4-6.4-5-8.1-1.3-16.1-2.6-24.1-4.4-.6 0-1.1.4-1.1 1 0 .4.2.8.6 1 4.8 1.8 9.8 2.9 14.9 3.5 1.9.2 14.3.7 13.3 4.8-2.5 10.1-4 20.3-5.5 30.7-.9 6-4.8 6.6-9.6 9.3-4.3 2.4-7.9 1.9-10.8-1.6-2.4-2.9-5-5.6-7.2-8.6-3.5-4.6 1.2-16.4 2.4-21.6 1.4-5.9 2.8-11.9 2.9-18-.2-.7-1.2-.8-1.2-.2z"/><path class="st8" d="M242.8 174c2.9.6 10.1.8 14.3 1.7 4.2.6 9 2.3 13.2 2.5"/><path class="st2" d="M242.4 175.2c4.2.8 8.6 1 12.9 1.6 5 .7 9.9 2.9 14.9 2.5.6 0 1.1-.5 1.1-1.2 0-.5-.3-.9-.8-1.1-9.1-2.5-18.2-2.9-27.4-4.3-1.6-.2-2.3 2.2-.7 2.5z"/><path class="st8" d="M258.1 157.6c.1 8.6-.3 17.2-1.3 25.8-.8 5-1 10.1-1.7 15.1-.4 2.5-1.5 6.1-1.3 8"/><path class="st2" d="M257.3 157.6c-.9 9.3-.7 18.7-2.1 28-.5 3.4-.7 7-1.1 10.4s-1.6 6.9-1.5 10.5c0 .7.6 1.3 1.3 1.3s1.3-.6 1.3-1.3c.4-7.6 2.1-15.5 3-23.1 1.1-8.6 1.3-17.2.7-25.8 0-.4-.4-.8-.8-.8-.4.1-.8.4-.8.8z"/><path class="st8" d="M186.4 113.8c0 6.9-1.9 14.3-7.1 19.1"/><path class="st6" d="M185.9 113.8c-.3 6.9-2.8 13.5-7 18.9-.2.3.2.7.5.5 5.8-4.2 7.7-12.7 7.4-19.4 0-.3-.2-.5-.5-.5-.2 0-.4.2-.4.5z"/><path class="st8" d="M188.6 123.4c-.8 3.8-1.7 8.2-4.6 10.7"/><path class="st6" d="M188.3 123.3c-.7 1.8-1 3.7-1.7 5.4-.7 1.8-1.7 3.6-2.9 5.2-.2.3.2.7.5.5 3.5-2 4.6-7.3 4.8-11 0-.2-.2-.4-.4-.4-.1 0-.3.1-.3.3z"/><path class="st8" d="M198.9 135.6c-.8 8.4-6.7 19.9-13.9 24.8"/><path class="st6" d="M198.5 135.5c-1.6 9.2-6.1 18.6-13.8 24.2-.8.6 0 2 .8 1.4 7.8-5.6 13.1-16 13.9-25.4 0-.6-.8-.7-.9-.2z"/><path class="st8" d="M209.8 138.3c-4.2 13.6-10.5 24.1-21.2 33.8"/><path class="st6" d="M209.4 138.2c-5.1 12.9-11.2 23.6-21.3 33.3-.8.8.4 1.9 1.2 1.2 10.3-9 17.7-21 21.1-34.2.1-.3-.1-.6-.4-.6-.3-.2-.5 0-.6.3z"/><path class="st8" d="M205.6 157.4c-1.5 3.4-3.8 7.1-6.9 9.4"/><path class="st6" d="M205.3 157.2c-1.1 1.6-2 3.3-3.1 4.9s-3.1 2.8-3.8 4.5c-.1.2 0 .5.2.7h.4c1.9-.3 3.3-2.5 4.3-3.9 1.3-1.8 2.3-3.8 2.9-5.9.1-.2-.1-.5-.3-.5-.3-.1-.6 0-.6.2z"/><path class="st8" d="M253 67.4c-4.6 2.8-7.9 7.3-9.2 12.6"/><path class="st6" d="M252.9 67.1c-4.5 2.6-8.7 7.5-9.4 12.8-.1.2.1.4.3.5s.4-.1.5-.3c2-5.1 4.2-9.4 9-12.4.2-.1.2-.3.1-.5-.2-.2-.4-.2-.5-.1z"/><path class="st8" d="M260.8 70.3c.2 6.1-1.5 11.5-2.5 17.4"/><path class="st6" d="M260.4 70.3c-.3 6-1.9 11.5-2.5 17.4-.1.5.8.6.9.1 1.5-5.6 2.9-11.8 2.5-17.5 0-.2-.3-.4-.5-.4-.3.1-.4.3-.4.4z"/><path class="st8" d="M269.8 75.6c3.4 6.5 3.4 14.5 2.7 21.6"/><path class="st6" d="M269.5 75.7c3 7.2 2.5 14 2.5 21.5 0 .6.9.7 1 .1 1.2-7.1.5-15.5-2.9-21.9-.2-.3-.8-.1-.6.3z"/><path class="st8" d="M221.4 156.7c-.4 2.3-1.1 5.9.2 7.6"/><path class="st6" d="M221.1 156.5c-.5 2.3-1.6 5.9.4 7.8.1.1.5 0 .4-.2-1-2.3-.4-5.1-.1-7.5 0-.2-.1-.3-.3-.3s-.4.1-.4.2z"/><path class="st8" d="M226 159.9c0 1.4 0 2.8.2 4.2"/><path class="st6" d="M224.7 159.9c.1 1.5.1 3.3 1.2 4.4.1.1.3.1.5 0v-.1c.8-1.2.6-3 .8-4.3.2-1.7-2.7-1.7-2.5 0z"/><path class="st8" d="M231.6 158.2c.2 2 0 4.1-.4 6.1"/><path class="st6" d="M230.7 158.2c.1 1 .1 2 0 3-.2 1-.2 2.1.1 3.1.1.2.3.4.5.3.1 0 .1-.1.2-.1 1.4-1.5 1.2-4.5 1-6.4 0-1.2-1.9-1.2-1.8.1z"/><path class="st8" d="M220.1 181.7c-.8 3.4 1.3 9.7 3.2 12.7"/><path class="st6" d="M219.6 181.5c-1.3 4 .9 9.8 3.2 13.1.1.2.5.3.7.2s.3-.5.2-.7c-2.1-3.8-3.2-8.1-3.2-12.4 0-.3-.2-.5-.5-.5-.1 0-.3.1-.4.3z"/><path class="st8" d="M225.2 183.7c.6 1.9.8 3.8 1.7 5.7"/><path class="st6" d="M224.4 184c.6 2 .8 4.2 2.3 5.7.1.1.4.1.5 0s.1-.2.1-.2c-.3-2-.7-4-1.2-5.9-.1-.5-.6-.7-1.1-.6-.5.1-.8.6-.6 1z"/></g><path d="M195.7 37.9c-.5-.4-.9-.9-1.3-1.5-.4-.7-.9-1.2-1.5-1.5l-1.9-1c-3-3.4-5.6-7-7.9-10.9-2.3-3.9-5.3-7.2-9-10v-.6l1-.2c2.1 1.9 4.1 3.8 6 5.8s3.6 4.3 5 6.8l2.4 3.8c.7.6 1.3 1.2 2 1.9.6.7 1.2 1.4 1.6 2.2v.3c.6.2 1.2.5 1.8.8s1.1.8 1.6 1.3l.5 1.3.6.2.1.8-1 .5zm10.7-2.5c-.5-.2-1-.3-1.5-.5s-.9-.6-1.3-1.1c-.5-1-.9-2.1-1.1-3.2-.2-1.2-.2-2.4-.1-3.6.3-1.1.7-2.2 1.3-3.3.6-1.1 1.2-2 2.1-2.9.7-.5 1.3-.9 2-1.3s1.5-.5 2.4-.2l1 1.6c.6.5 1.1 1 1.4 1.7.4.7.7 1.3.9 2 .2.9.3 1.8.2 2.7-.1.9-.2 1.9-.2 2.8-.3.8-.6 1.6-1.1 2.3s-1.1 1.3-1.9 1.9c-.7.4-1.3.7-1.9 1.1-.7.2-1.4.3-2.2 0zm1.5-1.5c.7-.3 1.3-.6 1.8-1.1.6-.5 1.1-1 1.7-1.6.4-.7.6-1.5.7-2.4.1-.9.1-1.8.2-2.7 0-.7-.3-1.4-.7-2.1s-.9-1.3-1.3-2l-1.9-1.4c-.9.5-1.6 1-2.2 1.7-.6.7-1.1 1.4-1.6 2.2-.3.6-.5 1.2-.6 1.8-.1.6-.2 1.2-.3 1.9 0 .9.1 1.9.2 2.8.1.9.5 1.7 1.2 2.4l2.6.7.2-.2zm9.2 2.5l-.2-1 .7-3.2-.1-.8.2-.2.7-9.2-.3-2.5 1-.2c.3.4.5.9.5 1.4.1.5.1 1 .2 1.5l-.6 7.8h.5c1.6-1 3.2-2.2 4.6-3.5 1.4-1.3 2.7-2.7 3.9-4.2l.4-.8.8-.1.2 1c-.9 1.6-2.1 3.1-3.7 4.4-1.6 1.3-2.7 2.8-3.3 4.5.3.8.8 1.5 1.3 2.2s1.1 1.4 1.8 2l.5.2.1.9-1 .2c-1-.6-1.8-1.4-2.5-2.4s-1.2-2-1.6-3.1v-.5h-.3l-1.7 1c-.2.7-.3 1.5-.4 2.3-.1.8-.4 1.5-.9 2.1l-.8.2zm34.8 3.1l-.4-.7.6-7-.1-.2.5-6.4-.1-.8c-.9-.2-1.9-.4-2.8-.5-.9-.2-1.8-.6-2.6-1.1l-.1-.8 1-.2c1.6.7 3.3 1.2 5.1 1.5 1.8.4 3.7.6 5.7.6l1.1-.2.2 1.1c-.9.5-1.9.6-2.9.5-1.1-.1-2.2-.2-3.2-.3l-.5 6.7.2.2-.6 7.5-1.1.1zm15.6.6l-1.8-.6c-.6-.3-1-.7-1.4-1.2-.3-.3-.4-.7-.4-1.2s.1-1 .1-1.5l2.7-4c.3-.3.7-.4 1.1-.5h1.4c.7 1 1.2 2.1 1.6 3.2.4 1.1.5 2.4.2 3.7-.1.3-.3.6-.6 1-.2.4-.5.6-.8.8s-.7.3-1.1.3c-.2.1-.6.1-1 0zm1.4-1.4c.5-.3.8-.7.9-1.3s.1-1.2.1-1.7l-.9-2.4-.6-.1-1.3.2c-.5.6-.9 1.2-1.2 1.8-.4.6-.5 1.3-.5 2.2.4.5.9.9 1.5 1.1.6.2 1.2.3 1.8.4l.2-.2zm10.8 2.7l-2.5-1.8c-.4-.5-.6-1-.7-1.6s-.1-1.2.1-1.8l1.3-1.8c.7-.6 1.4-.9 2.2-.9.8 0 1.6 0 2.4.2l1.8.8c.1-1.5.3-2.9.7-4.4s.8-2.8 1.4-4l.8-.1c.2.2.3.5.3.7 0 .3 0 .5-.1.7-.8 1.6-1.2 3.4-1.4 5.2-.2 1.9-.5 3.7-.9 5.6l.4 1.1c.3.2.6.5.8.7.2.2.6.3 1 .2l.8-.1.2 1c-.2.3-.5.5-.8.5h-1.1l-1.5-.7-.4.4h-.6l-1.1-.4c-.4.2-.9.3-1.4.4s-1.2.3-1.7.1zm3.1-1.8c.5-.5.8-1.1.9-1.8s.2-1.3.2-1.9c-.6-.3-1.3-.5-2-.7s-1.5-.3-2.3-.2c-.3.2-.7.3-1 .5s-.6.5-.7.9l-.1 1.6 1.4 1.7 2 .5 1.6-.6zm17.8 3.4l-1.2-.9-.4-.8h-.3c-.7.4-1.4.5-2.3.5-.8 0-1.7 0-2.5-.1l-1.1-.7c-.3-.3-.5-.7-.5-1.1-.1-.4 0-.9.1-1.4l1.3-2.4c.8-.7 1.7-1.3 2.6-1.8s2-.6 3.1-.2l1 .9c.4.7.5 1.4.4 2.1-.1.8-.2 1.5-.3 2.3l-.4 1.5.5.8 1.4.3.1.8c-.2.2-.5.3-.7.3-.2-.1-.5-.1-.8-.1zm-2.9-2.7c.9-.5 1.4-1.1 1.5-1.9.1-.8.2-1.7.3-2.5-.3-.3-.6-.5-1-.5s-.8-.1-1.2-.1l-3 2.4-.5 2.2c.2.3.5.5.9.5s.8.1 1.2.1l1.8-.2zm11.7 5.8l-.2-1.1 2.1-2.4c-.7-1-1.2-2.1-1.6-3.2-.4-1.1-.6-2.3-.8-3.4l.5-.6h.6c.1 1.1.4 2.1.7 3.1.3 1 .8 2 1.3 2.9l.6.2 2.2-3.4.8-.1.2 1c-.6 1.3-1.4 2.5-2.4 3.7-1 1.1-2.1 2.2-3.3 3.3h-.7zm24.2-6l-.6-1.6c.3-.7.4-1.5.5-2.3s.1-1.7.2-2.5l-.3-2.7.5-.6.6.1c.2 1.1.4 2.2.4 3.4.1 1.2 0 2.4-.2 3.7l-.3 1.6.1.8-.9.1zm.3 6l-.6-.3-.2-1.9 1-1.3.6.1.2 1 .5.2.2 1.6-1 .9-.7-.3zm19.2 5.1l-.2-1.1c2-1.3 3.8-2.8 5.5-4.4 1.7-1.6 3.3-3.4 4.7-5.1 1.4-2.6 3.3-5 5.7-7 2.4-2.1 4.7-4.2 6.7-6.5l.8-.1.2 1c-3.9 3.2-7.4 6.8-10.4 10.8s-6.4 7.6-10.2 11c-.5.3-.9.6-1.4 1-.4.3-.9.4-1.4.4z"/><g id="レイヤー_3-2"><path class="st0" d="M.7 145.3v.1c0 .2.2.4.4.3.5 3 8.4 2.5 11.8 2.3.1.4.1.7.2 1h-1.4c-2.1.2-4.1.1-6.2-.1-1.3-.1-6.6-1.5-4.8-3.6z"/><path class="st0" d="M1.1 145.8H1c-.2 0-.3-.3-.3-.5v-.1l.1-.2c.1-.1.2-.1.3-.1 0 .1-.1.3-.1.5 0 .1.1.3.1.4z"/><path class="st0" d="M2.3 139.3l-.8 3.4c-.1.2 0 .4.2.4-.2.6-.4 1.2-.5 1.8-.1-.1-.2 0-.3.1l-.2.2c.3-2 .9-4 1.6-5.9zM1.2 145c.2.2.4.3.3.4-.1.1-.1.1-.1.2-.1.1-.2.3-.3.3 0-.1-.1-.2-.1-.4.1-.2.1-.3.2-.5z"/><path class="st0" d="M1.8 143.1c.2.1.4 0 .5-.2.6-1.7 1.1-3.4 1.6-5.2 5-10.7 14.1-19.8 23.6-26.4 3.2-2.1 11.4-8.2 16.4-8.9.5.2.9.3 1.4.4-7.9.2-17.4 8.8-23.2 13.6-1.5 1.2-2.8 2.4-4.2 3.7 0-.1-.1-.1-.1-.2-.2-.1-.4-.1-.5.1-.2.4-.4.9-.6 1.3-6.6 6.8-11.7 14.9-15.1 23.8l-.3-.1-.1-.1c.1-.6.3-1.2.6-1.8zm-.3 2.2c.4.7 1.1 1.2 1.8 1.5 1.5.4 3.1.6 4.7.5.9 0 3.1-.4 4.7-.2 0 .4.1.7.1 1-3.4.2-11.2.7-11.8-2.3.2 0 .3-.1.3-.3.2-.1.2-.1.2-.2zm.8-6.1v-.1c.4-1.2.9-2.3 1.5-3.4-.6 2.1-1.1 4.3-1.8 6.4-.1.3-.2.7-.3 1-.2-.1-.3-.2-.2-.4.3-1.1.5-2.3.8-3.5z"/><path class="st0" d="M3.8 137.8c-.5 1.7-1 3.4-1.6 5.2v.1c-.1.2-.3.3-.5.2.1-.3.2-.7.3-1 .6-1.6 1.1-3.1 1.8-4.5z"/><path class="st0" d="M3.8 135.8c.4-.9.8-1.7 1.3-2.5-.4 1.5-.8 2.9-1.3 4.4-.7 1.5-1.3 2.9-1.8 4.5.6-2.1 1.2-4.3 1.8-6.4z"/><path class="st9" d="M16.6 121.6c-3.2 7.1-3.6 13.7-3.9 21.5-.1 1.3-.1 2.7.1 4-1.6 0-3.1.1-4.7.2s-3.2-.1-4.7-.5c-.8-.3-1.4-.8-1.9-1.5 3.4-8.8 8.5-16.9 15.1-23.7z"/><path class="st0" d="M5.2 128.6c1.6-5.2 4.4-9.4 6.5-14.3.9-2.1.7-5.9 1.1-8.3.6-3.6 1.1-7.1 1.5-10.7.6-4.9 1.9-9.6 2.7-14.4 0 .1.1.2.2.2h.2c-.3 3.9-1.8 8.1-2.2 12.1-.6 5.1-1.3 10.1-2.1 15.2-.1 2-.4 4.1-.8 6.1-.4 1.7-1.8 3.2-2.6 4.7-2.8 5.2-4.4 10.9-5.9 16.6-.6 1.1-1 2.2-1.5 3.4.9-3.6 1.8-7.1 2.9-10.6z"/><path class="st0" d="M12.2 114.4c.4-2 .6-4.1.8-6.1.8-5 1.5-10.1 2.1-15.2.4-4 2-8.1 2.2-12.1h.4c-.3 5.5-1.8 11-2.5 16.4-.6 5-1 10-1.9 15.1s-4.5 9.5-6.2 14.4c-.8 2.1-1.4 4.2-2 6.3-.5.8-.9 1.6-1.3 2.5 1.5-5.7 3.2-11.4 5.9-16.6.9-1.5 2.2-3 2.5-4.7zm8.6.9c4.1-3.3 8.3-6.3 12.8-9 2.6-1.6 5.8-3.6 9-4.2l1.1.4c-5 .7-13.1 6.7-16.3 8.9C18 117.9 8.9 127 3.8 137.7c.4-1.5.8-3 1.3-4.4 3.9-7 9.8-13.1 15.7-18zM6.1 200.6c-.2-.1-.3-.3-.4-.5-.2-.3.2-.7.4-.4l.2.2c-.1 0-.2.1-.2.2-.1.2-.1.3 0 .5z"/><path class="st0" d="M7 201h-.4c-.2-.2-.3-.3-.4-.5-.1-.1 0-.3.1-.4.1.4.4.7.7.9zm-.9-.4c.2.2.3.3.4.5-.2-.1-.4-.3-.4-.5z"/><path class="st0" d="M7.5 200.9c-.2.1-.4.1-.5.1-.3-.3-.6-.6-.8-.9 0-.1.1-.2.2-.2l.5.5c.2.2.4.4.6.5z"/><path class="st0" d="M6.4 199.9c2.6-1.2 5-2.5 7.9-3.1 5.8-1.2 6-5 7.6-9.8 2.8-8.4 4.5-17.8 8.5-25.8.1 0 .2.1.4.1-1.8 4.2-3.1 8.5-4.1 12.9-1.3 5.1-3 10.1-4.6 15.2-.5 1.8-.9 5.4-2.2 6.6-1.6 1.5-5.8 1.6-7.9 2.4-1.7.7-3.3 1.5-5 2-.3-.2-.5-.3-.6-.5z"/><path class="st10" d="M13.3 112.6c.9-5 1.3-10.1 1.9-15.1.7-5.5 2.2-10.9 2.5-16.4 2.1-.1 4.3-.5 6.4-.6s4.2.1 6.3-.1c-2.7 6 .1 13.5 5.2 17.9 2 1.7 4.4 3.1 7 3.8-3.3.5-6.5 2.5-9 4.2-4.5 2.7-8.8 5.7-12.8 9-5.9 5-11.8 11.1-15.8 18 .6-2.1 1.2-4.2 2-6.3 1.8-4.9 5.5-9.4 6.3-14.4z"/><path class="st0" d="M7 201c3.6 3.4 10.3 5.3 14.7 6.1 11.5 2 22.9 1.4 30.8-8.4 8-10 6.1-23.1 6.2-34.9.2.3.4.6.6.8 0 1.1-.2 2.4-.2 3 .1 2.6.2 5.1.2 7.7.1 3.9-.2 7.7-.8 11.5-1.3 7.7-5.9 14.4-12.5 18.5-2.2 1.3-4.5 2.3-7 2.9-.9 0-1.8.1-2.6.1-.1 0-.1 0-.2.1s-.2.3-.1.5c-10.4 1.7-23.3-1-29.5-7.7.1-.1.2-.1.4-.2z"/><path class="st0" d="M45.1 204c15.6-8.1 11.9-26.4 13.2-40.7l.3.6c-.2 11.8 1.8 24.9-6.2 34.9-7.9 9.8-19.2 10.5-30.8 8.4-4.4-.8-11.2-2.7-14.7-6.1.2-.1.4-.1.6-.1 9.5 7.5 27.6 8.2 37.6 3z"/><path class="st0" d="M11.9 198.4c2.1-.9 6.2-.9 7.9-2.4 1.4-1.2 1.7-4.9 2.2-6.6 1.6-5.1 3.3-10 4.6-15.2 1-4.4 2.3-8.7 4.1-12.9.1 0 .2.1.4.1-1.7 5-3.2 10-4.3 15.2-1.3 5.3-3.4 10.4-4.5 15.7-.4 2-1 4.4-3.2 5.2-3.8 1.3-7.6 2.4-11.5 3.4-.2-.2-.4-.3-.6-.5 1.6-.5 3.2-1.4 4.9-2z"/><path class="st11" d="M12 177.7c-.1.1-.2.1-.3.2v-.4c.1 0 .2.1.3.2z"/><path class="st0" d="M16.7 121.5l.8-.8c-1.8 4.4-3.1 8.9-4 13.5-.7 3.6.2 7.3-.2 10.9-.1.6-.1 1.3-.1 1.9h-.5c-.1-1.3-.1-2.7 0-4 .3-7.7.7-14.3 4-21.5zm-3.5 25.6v1h-.4c-.1-.3-.1-.7-.1-1h.5z"/><path class="st0" d="M13.2 148.1c0 .3.1.6.2.9H13c-.1-.3-.2-.7-.2-1l.4.1z"/><path class="st0" d="M13.2 147.1c.4 0 .9.2 1.2.5v.1c0 .2.1.3.1.5 0 .1 0 .1-.1.2-.2.4-.6.6-1.1.6-.1-.3-.1-.6-.2-.9.1-.4.1-.7.1-1z"/><path class="st0" d="M13.5 134.4c.9-4.6 2.2-9.2 4-13.6.1-.2.3-.3.5-.5v.2c-1.6 5.2-3.3 10.6-4 16-.5 3.7-.4 7.5.4 11.1-.3-.3-.7-.5-1.2-.5 0-.6.1-1.3.1-1.9.4-3.6-.5-7.2.2-10.8zm1.3 17.1c3 4.1 8.2 6.3 12.9 7.8 5.1 1.6 13.5 3.6 18.4.1h.7c-4 3.4-9.9 3.4-15.7 1.9l.1-.4c.1-.4-.5-.6-.6-.3-.1.2-.2.3-.2.5-4.4-1.2-8.5-3.1-12.3-5.5-2.5-1.4-4.3-3.9-5-6.7h.4c.2 1 .7 1.9 1.3 2.6z"/><path class="st12" d="M18 120.4v-.2c1.3-1.3 2.7-2.6 4.2-3.7 5.8-4.8 15.3-13.4 23.2-13.6 1.4.4 2.9.8 4.5 1.4 3.5 1.3 7 2.8 10.6 3 3.9 6.9 1.5 14.6-3.1 20.3 0-.6-.1-1.3-.3-1.9-.4-1.8-.9-3.5-1.3-5.2.9-2.5 1.4-5.1 1.4-7.7 0-.2-.2-.4-.4-.4s-.4.2-.4.4c-.2 10.3-7.8 18-18.2 17.6-.3 0-.5.3-.5.5h-.2c.7-4.3 1.7-8.5 3-12.6 0-.2 0-.3-.2-.4-.2 0-.3 0-.4.2-1.7 4.7-3 9.5-3.8 14.4-.5 2.8.4 6.7-.4 9.5-.1-.1-.2-.1-.2-.1-7.7-3-14-9.1-12.3-18 .1-.5-.6-.7-.8-.2-1.6 7.2 1.8 14.5 8.3 18 .8 7.1 6.4 17 14.1 17.9-8.1 3.2-21.3-.1-27.3-5.9-1.5-1.5-2.5-3.4-3-5.4.1-.1 0-.3-.1-.4-.1-.1-.1 0-.1-.1v-.1c-.8-3.7-1-7.4-.5-11.2.8-5.5 2.5-10.7 4.2-16.1z"/><path class="st0" d="M14.5 148.2c.5 2 1.5 3.9 3 5.4 6 5.7 19.2 9.1 27.3 5.9.4 0 .8.1 1.2.1-5 3.4-13.3 1.5-18.4-.1-4.7-1.5-9.9-3.7-12.9-7.8-.6-.8-1.1-1.7-1.3-2.6.4 0 .8-.3 1.1-.6v-.3zm0 0c-.1-.2-.1-.3-.1-.5l.1.1c0 .1.1.2 0 .4zm2.2-26.7c.2-.4.4-.8.6-1.3 0-.1.1-.1.1-.1.2-.1.4 0 .5.2-.1.2-.3.3-.5.5s-.5.4-.7.7zM17 81c-.1-.1-.1-.1 0-.2v.2zm.8-.1v.2h-.6c-.1 0-.2-.1-.2-.2v-.2h.1l.4-.2c.1 0 .3.1.3.2v.2zm-.4-.4l-.4.2h-.1c.2-.2.3-.3.5-.2z"/><path class="st13" d="M22.2 192.3c1.1-5.4 3.2-10.4 4.5-15.7 1.2-5.1 2.6-10.2 4.3-15.2 5.7 1.4 11.7 1.4 15.7-1.9l.6-.1c.2-.1.3-.3.2-.4 0-.1-.1-.2-.2-.2h-.1c-.1-.2-.3-.3-.6-.2l-.1.1c-1.8-.4-3.6-1.1-5.2-2.1 4.8 1.6 11.6.5 16.4-.7-.8 2.4-.6 5.1.7 7.3-1.3 14.4 2.4 32.6-13.2 40.7-10.1 5.2-28.2 4.6-37.7-3 3.9-.9 7.7-2.1 11.5-3.4 2.1-.7 2.8-3.1 3.2-5.2z"/><path class="st0" d="M31.1 79.3l-.3.6c-4.3 0-8.9-.3-13 .8 0-.1-.2-.2-.3-.2 3.6-2.1 9.5-1.5 13.6-1.2z"/><path class="st0" d="M30.8 79.8c-.1.2-.2.3-.3.5-2.1.1-4.2.1-6.3.1s-4.2.6-6.4.7v-.2c0-.1 0-.1-.1-.1 4.2-1.3 8.8-1 13.1-1zm.5 61.1l-.1-.1h-.1c-.2 0-.3.2-.3.4v.4c-6.5-3.5-9.8-10.8-8.3-18 .1-.5.8-.3.8.2-1.7 8.9 4.6 15.1 12.3 18 .1 0 .2.1.2.1 0 .2-.1.3-.1.5-.1.1-.1.3 0 .4-.1.1-.3.2-.5.1-1.1-.1-2.3-.5-3.3-.9l-.4-1c-.1 0-.1 0-.2-.1.1 0 0 0 0 0zm-1 20.4c.1-.2.1-.4.2-.5.2-.3.8-.1.6.3l-.1.4c-.1 0-.2-.1-.4-.1 0-.1-.2-.1-.3-.1zm.9-80.9c-3.9 8 3.8 19.7 13.1 21.6-.5 0-1.1 0-1.6.1-2.6-.8-5-2.1-7-3.8-5.1-4.4-7.9-11.9-5.2-17.9h.7z"/><path class="st0" d="M31 79.4h.3c.1 0 .3.1.4.2-.2.3-.3.6-.5.9h-.7c.1-.2.2-.4.3-.5 0-.3.1-.5.2-.6zm-.3 62.2v-.5c0-.2.2-.3.4-.3.1 0 .1 0 .1.1l.1.1c.1 0 .1.1.1.2l.4 1-.6-.3c-.1-.1-.3-.2-.5-.3z"/><path class="st0" d="M31.3 80.4c.1 0 .2-.1.3-.1.2-.2.3-.5.1-.7 1.6-2.5 4.1-4.3 6.9-5.1 5.8-2 12.5 1.8 16 6.9-.2 0-.4.1-.5.3-2.7-4.1-7.2-6.7-12.1-7.1-8.4-.5-12.1 8.1-10.1 14.8 1.7 5.6 6.7 10 12.1 11.6 7.6 2.2 15.1 6.3 22.9 3.5.3-.1.6 0 .7.3-.3-.1-.6.1-.7.4-1.7 1-3.5 1.5-5.5 1.5l-.1-.3c-.1-.1-.2-.2-.4-.3-.3-.1-.6.2-.7.5-4.9-.4-9.4-3.3-14.4-4.4-.1-.1-.2-.2-.3-.2-.3 0-.7-.1-1-.1h-.1c-9.4-1.8-17.1-13.6-13.1-21.5z"/><path class="st0" d="M33.2 76.6c7.2-6.8 17.5-2.5 22.1 4.9-.2-.1-.4-.1-.6-.2h-.1c-3.4-5.1-10.2-8.9-16-6.9-2.8.8-5.3 2.6-6.9 5.1-.1-.1-.2-.2-.4-.2H31c.6-1 1.3-1.9 2.2-2.7zm12.6 82.5c-.3.1-.6.3-1 .4-7.7-.9-13.3-10.8-14.1-17.9l.5.3c1.6 6.7 6.8 16.4 14.6 17.2zM31.7 79.5c.2.2.1.6-.1.7-.1.1-.2.1-.3.1h-.1c.1-.2.3-.5.5-.8zm-.3 61.4s-.1 0-.1-.1c0 .1.1.1.1.1z"/><path class="st0" d="M39.4 155c-.1 0-.1.1-.1.1-.1.2-.1.5.1.6.6.4 1.3.7 2 .9 1.6 1 3.3 1.7 5.2 2.1-.2.1-.5.3-.7.4-7.8-.8-12.9-10.4-14.5-17.2.2.1.4.2.6.2 1.6 4.7 3.7 9.6 7.4 12.9z"/><path d="M54 81.6c-.2.4-.1.6.2.8.1.1.2.1.3.1.1.2.2.4.3.7 1.7 4 1.7 10.5-3.7 11.7-2.5.9-4.6.1-6.3-2.5-.1-.1-.3-.2-.5-.2-.2.1-.3.3-.3.5 1.2 6.9 10.3 3.7 12.7-2.1 2.2.9 4.3 1.9 6.3 3.2 2.2 1.7 4 4 5.2 6.6.1.2.3.2.5.1-.1.2 0 .4.2.5 12.6 8.2 24.6 16.1 35.6 26.5 8.2 7.8 18.1 16.8 23.8 26.9-2.2-.8-3.2-3.6-4.6-5.3-2.3-2.8-4.9-5.3-7.4-7.9-4.7-5.2-9.8-10-15.2-14.4-10.1-8-21.8-16.6-33.5-22.1h-.2c-.1-.3-.4-.4-.7-.3-7.8 2.8-15.4-1.3-22.9-3.5-5.4-1.6-10.5-6.1-12.1-11.6-2-6.7 1.7-15.4 10.1-14.8 5 .4 9.5 3 12.2 7.1z" fill="#9e7642"/><path class="st5" d="M35.7 143c.2.3.8.4 1 0 1.1-2.5.2-6 .5-8.7.1-1.1.3-2.2.4-3.4h.2c0 .2.1.5.4.5 7.7 1.2 13.9-3.1 17-9.4.1.9.3 1.8.5 2.8.3 1.3.2 2.8.6 4.2 0 .1-.1.1-.1.1-.1.1-.1.2 0 .2.1.1.2.1.2 0v.2c0 .1.1.1.1.1.1.1.3 0 .3-.1.1-.2.3-.4.3-.7 5.8-3.6 7.7-12.1 5.8-18.7 8.8 7.4 15 17.8 18.7 28.8-2.5 2.1-4.6 4.7-7 7-2.5 2.2-4.8 4.6-6.9 7.2-2.2-1.6-5.1-1.7-7.4-.4-.9.5-1.7 1.2-2.2 2.1-2.9-.1-5.7.6-8.6.7-3.3.1-6.6-.2-9.9-.9-.1 0-.3 0-.4.1-3.6-3.3-5.7-8.2-7.4-12.9 1.1.4 2.2.7 3.3.9.3.4.5.4.6.3zm9.1 2.9s.2 0 .2-.1c1.3-2.6 1.5-5.6.5-8.3-.5-1.5-2.9-4.3-4.6-2.3-2.1 2.3.3 13.4 3.9 10.7zm25.4-10c.5.5 1.2 1.2 1.9.9.4-.1.6-.4.7-.8.3 0 .5-.2.6-.5.5-3.5-1.1-8.4-4.3-10.2-2.7-1.5-3.2 2.3-2.5 4 .8 2.4 2 4.6 3.6 6.6z"/><path class="st0" d="M35.7 141.9c.1 0 .1.1.2.2.2.3.1.6-.2.8-.1-.1-.1-.3 0-.4v-.6z"/><path class="st0" d="M36.1 132.5c.8-4.9 2-9.7 3.8-14.4 0-.2.2-.3.4-.2.2 0 .3.2.2.4-1.3 4.1-2.3 8.3-3 12.6-.2 1.1-.3 2.2-.4 3.4-.3 2.7.6 6.2-.5 8.7-.1.3-.5.4-.7.3l-.3-.3c.1 0 .1-.1.2-.1.2-.3.1-.6-.1-.8.8-2.9 0-6.8.4-9.6zm-.1 76.3c0-.1-.1-.1-.1-.2 0-.2.1-.3.3-.3.9-.1 1.8-.1 2.6-.1-.7.2-1.3.3-2 .4-.2.1-.5.1-.8.2z"/><path class="st0" d="M36.9 208.6c8.4.1 16.8.9 25.2 1.2 8 .3 15.6-.8 23.4-2.1 5.1-.9 9.5-1.5 13.8-4.6 2.9-2.1 1-4.2-1.5-5.4-1-.5-3-.6-3.6-1.4h.2c.5 0 .9-.2 1.3-.4 1.3.7 3.4 1.5 4 1.9 1.5.9 2.6 2.9 1.6 4.5-3.8 6.7-18.5 6.8-25 7.7-13.3 1.8-26.7-.3-39.9-1.1-.1 0-.2-.1-.3-.2.2 0 .5 0 .8-.1zm18.4-88.5c-.2 0-.4.2-.4.4v.7c0 .3 0 .6.1.9-3.1 6.3-9.3 10.6-17 9.4-.3 0-.4-.2-.4-.5s.2-.5.4-.5c10.4.4 17.9-7.3 18.2-17.6 0-.2.2-.4.4-.4s.4.2.4.4c0 2.6-.5 5.2-1.4 7.7v-.2c0-.2-.1-.3-.3-.3z"/><path class="st0" d="M66.9 209c9.6-.1 21.7-1.1 30.3-5.6 6-3.1-3.1-5.5-3.8-6.6-1.3-2.1-.7-5.5-1.3-7.8-2.1-9.3-8.7-16.8-11.6-25.8l.5-.2c.8 2.3 2.4 4.6 3.5 6.7 3.5 6.9 7.5 13.4 9 21.1.2 1.1 0 3.9.5 5.1 0 .1.1.3.2.4.7.9 2.7 1 3.7 1.4 2.5 1.2 4.3 3.3 1.5 5.4-4.3 3-8.7 3.7-13.8 4.6-7.8 1.4-15.4 2.4-23.4 2.1-8.4-.3-16.8-1.2-25.2-1.2.7-.1 1.3-.2 2-.4 9.2-.2 18.6.9 27.9.8z"/><path class="st10" d="M46 205.4c6.7-4.1 11.2-10.8 12.6-18.5.6-3.8.9-7.7.8-11.5-.1-2.6-.1-5.2-.2-7.7 0-.6.2-1.9.2-3 1.2 1.8 3.5 2.8 5.6 2.4 2.8.7 4.8-.9 5.9-3.2h.1c0 .1 0 .1.1.1 2.6 1.8 6.4 1 9.4-.8 2.9 9 9.5 16.5 11.6 25.8.5 2.3 0 5.7 1.3 7.8.7 1.1 9.8 3.6 3.8 6.6-8.6 4.4-20.8 5.5-30.3 5.6-9.3.1-18.6-.9-28-.8 2.5-.6 4.9-1.5 7.1-2.8z"/><path class="st0" d="M41.3 156.6c-.7-.2-1.4-.5-2-.9l-.1-.1c-.1-.2-.1-.5.1-.6.1.1.3.3.5.4.4.4.9.8 1.5 1.2z"/><path class="st0" d="M39.7 154.8c3.3.6 6.6.9 9.9.9 2.8-.2 5.7-.7 8.6-.7-.1.1-.2.3-.2.4-5.5.6-12.9 2-18.2 0-.2-.1-.3-.2-.5-.4.1-.1.2-.2.4-.2z"/><path class="st0" d="M57.9 155.4c-.1.2-.2.4-.2.5-4.7 1.2-11.5 2.3-16.3.7-.6-.4-1.1-.8-1.6-1.2 5.2 2 12.6.6 18.1 0zM45 145.3c0-.1-.1-.2-.1-.3.6-2.9.3-9.8-3.1-9.2-1.9.4-.3 9.6 2.5 9 .2 0 .4 0 .5.2 0 .2-.1.4-.2.6l-.2-.2c-3.2 1.6-5.5-9.5-2.8-10.1 4.2-1 4.4 7.2 3.4 10z"/><path class="st0" d="M44.7 145.6c0 .1 0 0 0 0 0 .2 0 .2.1.2-3.6 2.7-6-8.4-4-10.7 1.8-2 4.1.9 4.6 2.3 1 2.7.8 5.7-.5 8.3 0 .1-.2.1-.2.1.2-.1.3-.4.2-.6.9-2.7.7-11-3.3-10-2.7.7-.3 11.8 2.8 10.1l.3.3z"/><path class="st0" d="M44.9 145c-.1-.1-.3-.2-.5-.2-2.9.5-4.5-8.7-2.5-9 3.3-.6 3.6 6.3 3 9.2zm-1.1-42.5l-1.1-.4c.5-.1 1.1-.2 1.6-.2h.1l.4.1c.3 0 .7.1 1 .2.1.1.1.2.1.3 0 .2-.2.4-.4.4h-.2c-.5-.2-1-.3-1.5-.4zm12.6-12.1c.1.1.3.1.5.2-2.4 5.8-11.4 9-12.7 2.1-.1-.2 0-.4.2-.5s.4-.1.5.1c1.7 2.6 3.8 3.4 6.3 2.5 5.3-1.2 5.4-7.7 3.7-11.7-.1-.2-.2-.5-.3-.7.3.1.7.3 1 .4.2.5.5.9.6 1.4.6 1.6.8 3.4.5 5.2-.5.2-.7.8-.3 1z"/><path class="st0" d="M45.4 102c.1 0 .3.1.3.2-.3-.1-.7-.1-1-.2l-.4-.1c.4 0 .8.1 1.1.1zm-.7 43.6l.1.1c.1-.1.1-.3.2-.4 0 .2 0 .5-.2.6-.1 0-.1-.1-.1-.3 0 .1 0 0 0 0z"/><path class="st0" d="M44.9 145c.1.1.1.2.1.3-.1.2-.1.3-.2.4l-.1-.1c.1-.2.1-.4.2-.6zm.9 14.1c.3 0 .6.1.8.1-.2.2-.4.3-.5.4-.4 0-.8 0-1.2-.1.2-.1.6-.3.9-.4zm-.2-56.3c.2-.1.2-.4.1-.6 5 1.1 9.6 4 14.4 4.4 0 .1 0 .3.1.4s.1.2.2.3c-3.5-.2-7-1.6-10.6-3-1.6-.6-3.1-1-4.5-1.4h.2c0-.1.1-.1.1-.1zm.1 56.3c.2-.1.5-.2.7-.4.2.1.4.1.7.1.1.1.1.2 0 .3h-1.4z"/><path class="st0" d="M47.2 159.2c-.1.2-.3.3-.4.4h-.7c.2-.1.4-.3.5-.4h.6zm0-.4c-.2 0-.5-.1-.7-.1l.1-.1c.3-.1.5 0 .6.2z"/><path class="st0" d="M47.2 158.8c.2 0 .3.1.3.2.1.2 0 .4-.2.4l-.6.1c.1-.1.3-.2.4-.3v-.1c.1-.1.1-.2.1-.3zm7.3-76.3c-.1 0-.2-.1-.3-.1 0 0-.1 0-.1-.1-.2-.2-.2-.5 0-.7.1.3.3.6.4.9z"/><path class="st0" d="M55.5 82.9c-.3-.1-.7-.2-1-.4-.2-.3-.3-.6-.5-.9.1-.2.3-.3.5-.3l.5.8c.1.2.3.5.5.8zm-.2-1.4c.2.3.3.5.5.8-.3-.1-.5-.2-.7-.2l-.5-.8h.1c.2.1.4.1.6.2zm-.3 38.9c0-.2.2-.4.5-.3-.1.4-.3.7-.5 1.1v-.8z"/><path class="st0" d="M55.1 122c0-.3-.1-.6-.1-.9.2-.3.3-.7.5-1.1.1 0 .2.1.2.2v.2c-.1.2-.2.5-.3.7l-.3.9zm1.1-38.8c-.3-.1-.5-.2-.8-.3-.1-.3-.3-.6-.4-.8.2.1.5.2.7.2.2.3.4.6.5.9z"/><path class="st0" d="M56.6 128.5c-.2.2-.3.4-.5.5-.3-1.3-.3-2.8-.6-4.2-.2-.9-.4-1.9-.5-2.8l.4-.8c.3 2.4 1.4 4.9 1.2 7.3zm.7-42.8c.4 1.3.4 2.6 0 3.8h-.7c.3-1.7.1-3.5-.5-5.2-.2-.5-.4-1-.6-1.4.2.1.5.2.8.3.4.8.7 1.6 1 2.5z"/><path class="st0" d="M57 125.7c.2.6.3 1.3.3 1.9-.2.3-.5.6-.7.9.2-2.4-.9-4.8-1.2-7.3.1-.2.2-.5.3-.7.5 1.7.9 3.4 1.3 5.2zm-1.7-44.2c6.4 1.6 14.1 3.4 18.9 8.2.1.1.2.3.1.5h-.5c-.3 0-.3.2-.3.4-5.3-4-11.3-5.2-17.3-7.4-.2-.3-.3-.6-.5-.9-.1-.3-.2-.5-.4-.8zm.9 47.9c-.1 0-.2 0-.2-.1v-.2l.1-.1c0 .1 0 .1.1.2v.2z"/><path class="st0" d="M56.6 128.5v.4c-.1.1-.3.2-.4.3 0-.1-.1-.1-.1-.2.2-.1.4-.3.5-.5z"/><path class="st0" d="M56.5 128.9v.3l-.3.1v-.1l.3-.3z"/><path class="st0" d="M56.5 129.1c.2-.1.4-.2.5-.3-.1.2-.2.5-.3.7 0 .1-.1.1-.1.1-.1.1-.3 0-.3-.1v-.1l.2-.3zm-.1-38.7c-.3-.1-.4-.4-.3-.7.1-.2.3-.3.5-.3 0 .4-.1.7-.2 1z"/><path class="st0" d="M56.9 90.6c-.2 0-.3-.1-.5-.2.1-.3.2-.7.2-1h.4l.3.1c0 .2-.1.4-.2.5-.1.3-.1.5-.2.6zm-.3 38.3c.2-.2.4-.3.7-.5 0 .2-.1.3-.1.5-.2.1-.3.2-.5.3-.1-.1-.1-.2-.1-.3z"/><path class="st0" d="M57.3 127.6v.8c-.2.2-.4.4-.7.5v-.4c.3-.3.5-.6.7-.9z"/><path class="st10" d="M73.6 90.7c0 .1.1.2.3.2 6.8.7 13.8.5 20.6 2.2 2.7.7 5.4 1.7 8 2.8-11.7-2.1-23.7-2.1-35.4 0-.1 0-.2.1-.2.1-2.4-3-6.1-4.7-9.6-6.3.4-1.3.4-2.6 0-3.8-.3-.9-.6-1.8-1-2.6 5.9 2.1 11.9 3.3 17.3 7.4z"/><path class="st0" d="M67.4 96.9h.2c.6 1 1.1 2.1 1.4 3.2v.2c-.1.1-.1.1-.1.2-.2.1-.4.1-.5-.1-1.1-2.6-2.9-4.9-5.2-6.6-2-1.3-4.1-2.4-6.2-3.2.1-.2.1-.3.2-.5 4 1.8 7.3 3.3 9.6 6.4 0 .1.1.2.2.2h.1c-.1.2.1.3.3.2z"/><path class="st0" d="M66.8 95.9c-.2.1-.2.4-.1.6-2.3-3.2-5.6-4.7-9.6-6.4.1-.2.1-.3.2-.5 3.5 1.6 7.2 3.4 9.5 6.3zm-9.5 32.5c4.8-4.2 7.1-12.4 5-18.7.2.2.5.4.7.6 1.9 6.6 0 15-5.8 18.7-.1-.2 0-.4.1-.6z"/><path class="st0" d="M60.4 107.3h.7c.3.5.6 1 .8 1.6-.1.2-.1.4.1.6.1.1.2.1.2.2 2.2 6.3-.2 14.5-5 18.7v-.8c4.7-5.8 7.1-13.4 3.2-20.3zm-1.9 48.4c-.9 2.1-.9 4.4 0 6.5-.1.3-.1.7-.1 1-1.3-2.2-1.5-4.9-.7-7.3.3-.1.5-.2.8-.2z"/><path class="st0" d="M58.2 155h.4c.1 0 .2 0 .2.1l-.3.6c-.2.1-.5.1-.8.2.1-.2.2-.4.2-.5.1-.1.2-.3.3-.4z"/><path class="st0" d="M60.3 152.8c2.3-1.3 5.2-1.2 7.4.4l-.2.2c-.1.1 0 .3.2.2l.3-.2c1.7 1.2 2.9 2.9 3.5 4.8.5 1.8.3 3.8-.5 5.5-1.1 2.3-3.2 3.9-5.9 3.3.3-.1.7-.2 1-.4 6.8-.7 6.8-13-1.4-13.9-2.9-.3-4.8.7-5.8 2.4-.1-.1-.1-.1-.2-.1h-.4c.4-.9 1.1-1.6 2-2.2z"/><path class="st0" d="M58.7 155.6c.1 0 .1-.1.2-.1.1-.1.1-.3 0-.4 1-1.6 2.9-2.7 5.8-2.4 8.2 1 8.3 13.2 1.5 13.9.6-.3 1.2-.6 1.7-1.1.1-.1.1-.2 0-.3h-.1c5.8-4 .2-15.5-7-11.1-2.8 1.7-2.5 6-1.2 8.6 1.6 3.4 5 3.8 8.2 2.6-.9.6-1.9.9-2.9 1.1-.1 0-.2.1-.2.2-2.1.2-4.2-.9-5.2-2.8 0-.3-.1-.7-.2-1 0 0 .1 0 .1-.1l-.3-.9c0-.1-.1-.1-.2-.1s-.2.1-.2.2v.2c-.9-2.1-.9-4.4 0-6.5zm-.2 6.6c.1.2.2.3.2.5v1.1l-.3-.6c0-.3 0-.7.1-1z"/><path class="st0" d="M58.8 155.1c.1.1.1.1.1.2 0 .2-.1.3-.3.4l-.2.1c.1-.3.3-.5.4-.7zm-.3 7v-.2c0-.1.1-.1.1-.2.1 0 .2 0 .3.1l.3.9v.1h-.1c.2.3.2.7.2 1-.2-.3-.4-.6-.6-1 0-.3-.1-.5-.2-.7z"/><path class="st0" d="M59.4 163.7v.9c-.2-.3-.4-.5-.6-.8v-1.1c.1.4.3.7.6 1z"/><path d="M67.6 165.2c-3.3 1.2-6.6.8-8.2-2.6-1.2-2.5-1.6-6.8 1.2-8.6 7.2-4.3 12.8 7.2 7 11.2z" fill="#42beec"/><path class="st0" d="M64.5 166.5c-.1.1 0 .3.1.4.1.1.2.1.3.1-2.2.4-4.4-.5-5.7-2.4v-.9c1.2 1.9 3.2 3 5.3 2.8zm-4.1-59.2c0-.1-.1-.2-.2-.3-.1-.1-.1-.2-.1-.4h1.2c.1.2.2.4.4.6l-1.3.1z"/><path class="st0" d="M60.4 106.2c.3-.2.6-.1.8.2l.1.3h-1.2c.1-.2.2-.4.3-.5zm2 2.4c-.2 0-.4.1-.4.3-.2-.5-.5-1.1-.8-1.6h.6c.2.4.4.8.6 1.3zm4.5-3.5c-.1.2 0 .5.2.6-1.6.9-3.4 1.5-5.3 1.6-.1-.2-.2-.4-.4-.6 1.9-.1 3.8-.6 5.5-1.6zm-4.7 4.6l-.2-.2c-.2-.1-.2-.4-.1-.6.1.2.2.5.3.8z"/><path class="st0" d="M63 110.3c-.2-.2-.5-.4-.7-.6-.1-.3-.2-.5-.3-.8.1-.2.3-.3.4-.3.1.2.2.5.3.7s.2.6.3 1z"/><path class="st12" d="M67.1 105.7c8.6 5.4 17.7 10.9 26.1 17.1-3.7 3.4-5.6 9.4-8 13.8v.3c-.6 1.4-1.3 2.7-1.9 4-2.6-12.4-9.9-25.5-20.7-32.4-.1 0-.2-.1-.2-.1-.2-.4-.4-.9-.6-1.3 1.8.1 3.7-.4 5.3-1.4z"/><path class="st0" d="M62.7 108.7c10.8 6.8 18.1 20 20.7 32.3-.1.2-.2.5-.3.7-.2-.8-.4-1.7-.7-2.5l.1-.1v-.1c0-.2-.1-.3-.3-.3-3.1-10.8-10.8-23.3-19.5-29.4-.1-.2-.2-.5-.3-.7.1 0 .2 0 .3.1z"/><path class="st0" d="M82.1 138.7c-.1 0-.2 0-.2.1l-.3.3c-3.6-11-9.9-21.3-18.7-28.8-.1-.3-.2-.7-.3-1 8.8 6 16.4 18.6 19.5 29.4zm-17.4 27.6c1-.2 2-.5 2.9-1.1.1 0 .2.2.1.4-.5.4-1.1.8-1.7 1.1-.3.2-.7.3-1 .4-.1 0-.2 0-.3-.1-.1-.1-.2-.2-.2-.4s.1-.3.2-.3zm8.7-30.8c0 .3-.3.5-.6.5 0-.2 0-.5-.1-.7h.1c0-2.7-.7-6-2.3-8.1-2.2-2.7-4.3-2.2-3.7 1.3.3 1.4 4.7 9.7 5.4 7.1.1.2.3.4.6.4 0 .4-.3.7-.7.8-.8.3-1.5-.4-1.9-.9-1.6-2-2.8-4.2-3.7-6.5-.7-1.8-.2-5.5 2.5-4 3.2 1.6 4.8 6.5 4.4 10.1zM67.5 97h-.2c-.2 0-.3 0-.5-.1h-.1c0-.1-.1-.2-.2-.2-.1-.2 0-.5.2-.6.4.3.6.6.8.9z"/><path class="st0" d="M72.7 135.2c-.1-.1-.1-.2-.1-.2 0-.1-.1-.1-.1-.1-.1-.1-.3-.1-.5 0-.4-2.5-.5-4.8-1.8-7-.7-1.3-3-3-3-.3 0 .7.3 1.4.6 2 .7 1.4 1.5 2.8 2.4 4.1.4.6.8 1.1 1.3 1.6l.1.1c-.1.1.2.2 0 0 .1-.1.4-.4.4-.3l.1-.1c0 .2.1.4.1.6l.1.1c-.7 2.6-5.1-5.7-5.4-7.1-.7-3.5 1.5-4 3.7-1.3 1.5 2 2.1 5.3 2.1 7.9zm-6-38.6c.1.1.1.2.2.2-.1-.1-.2-.1-.2-.2zm.8 8.2c.1.2.1.4 0 .6-.1.1-.1.2-.2.2s-.2.1-.2.1c-.2-.1-.3-.4-.2-.6.1-.2.4-.4.6-.3zm40.5-7.1c-11.1-.7-21.7-2.5-32.6-1.8-.9-.2-1.8-.3-2.8-.2h-.1c-.2.1-.2.3-.2.4-1.6.2-3.2.4-4.8.7-.2-.3-.5-.7-.7-1 .1 0 .1-.1.2-.1 11.7-2.1 23.7-2.1 35.4 0 1 .4 2.1.8 3.2 1.2.8.3 1.6.6 2.4.8z"/><path class="st0" d="M67.3 105.6c.1-.1.2-.1.2-.2 9.2 4.9 17.5 11.2 26 17.2l-.3.3c-8.4-6.2-17.5-11.7-26.1-17.2 0 0 .1-.1.2-.1zm.7 47.8l-.3.2c-.2.1-.3-.1-.2-.2 0-.1.1-.1.2-.2.1 0 .1.1.2.1l.1.1zm2.2-25.6c1.3 2.2 1.4 4.6 1.8 7l-.1.1c0-.1-.3.2-.4.3l-.1-.1c-.5-.5-1-1-1.4-1.6-.9-1.3-1.7-2.7-2.4-4.1-.4-.6-.6-1.3-.6-2.1.1-2.5 2.4-.8 3.2.5z"/><path class="st0" d="M67.7 104.8c11.8 5.4 23.4 14 33.5 22 5.4 4.4 10.5 9.2 15.2 14.4 2.5 2.7 5.1 5.2 7.4 7.9 1.4 1.6 2.4 4.4 4.5 5.2.1.2.3.4.4.7-2 .1-4.4-4.3-5.4-5.5-2.2-2.8-5-5.2-7.5-7.8-5.7-6-11.7-12.1-18.7-16.7l-2-1.3v-.2s0-.1-.1-.1c0 0-.1 0-.1.1l-.9-.6c0-.1.2-.2.2-.3.1-.1.1-.2 0-.3-.1-.1-.2-.1-.3-.1l-.3.3c-8.6-5.9-16.8-12.2-26-17.2.1-.2.1-.4 0-.6 0 .1 0 .1.1.1zm6.9 41.2c2.4-2.3 4.6-4.8 7-7 .1.1.1.2.1.4-4.2 5-8.9 9.6-13.9 13.9 0-.1-.1-.1-.2-.1 2.2-2.6 4.5-5 7-7.2z"/><path class="st0" d="M81.7 139.4c.1.2.1.3.2.5-3.6 5.5-8.3 10.1-13.9 13.5-.1-.1-.1-.1-.2-.1 5-4.3 9.7-8.9 13.9-13.9z"/><path class="st12" d="M72.4 96.2c0 .1.1.1.2.1 8.2 2.2 18.1 10.1 20.2 18.7-7.2-5.8-15-10.7-23.3-14.8-.2-.1-.4-.1-.5 0v-.2c-.3-1.1-.8-2.2-1.4-3.2l4.8-.6z"/><path class="st0" d="M93.2 116.4c.8.6 1.5 1.2 2.3 1.8 9.5 7.9 18.2 16.6 26.1 26.1 2.4 2.8 6.3 6.5 7.4 10.3-.2 0-.4-.1-.6-.2-5.7-10.1-15.5-19.1-23.8-26.9-10.9-10.4-23-18.4-35.6-26.6-.2-.1-.3-.3-.2-.5.1 0 .1-.1.1-.2.2-.1.4-.1.5 0 8.3 4.1 16.1 9 23.3 14.8.1.3.2.6.2.9.1.2.1.4.3.5z"/><path class="st0" d="M68.8 100.5c0-.1.1-.2.1-.2 0 .1 0 .2-.1.2z"/><path class="st13" d="M71.5 158.1c-.6-2-1.8-3.7-3.5-4.8 5.6-3.4 10.4-8 13.9-13.5.3.9.6 1.7.8 2.6 0 .2.2.3.3.3.2 0 .4-.1.5-.3 1.1-1.2 1.9-2.6 2.4-4.2 1 5.6 1.4 11.4-.8 16.8-2.1 5.1-7.7 10.6-13.8 8.5-.1 0-.2.1-.2.2H71c.8-1.7 1-3.7.5-5.6z"/><path class="st0" d="M80.4 162.6c.1.2.1.4.2.6-3 1.7-6.8 2.6-9.4.8-.1 0-.1-.1-.1-.1 0-.1.1-.2.2-.1 6.1 2.1 11.7-3.4 13.8-8.5 2.2-5.4 1.8-11.2.8-16.8.1-.3.1-.6.2-.9 1.8 5.9 1.7 12.1-.2 17.9-.9 2.7-2.6 5-4.9 6.7-.3-.1-.5.1-.6.4 0-.1 0 0 0 0zm-8.2-27.9c.2-.1.4.1.4.2s.1.2.1.2l-.4-.1c0 .1 0 .3-.1.4 0 0 0-.1-.1-.1 0-.2-.1-.4-.1-.6 0 .1.1.1.2 0z"/><path class="st0" d="M72.6 135.2c.1.2.1.4.1.7-.3 0-.5-.1-.6-.4 0-.1.1-.3.1-.4l.4.1zm-.2-39c0-.3.1-.4.3-.5.9-.1 1.9 0 2.8.2-.6 0-1.2.1-1.8.2-.5 0-.9 0-1.3.1zm13.4 7.3c3.4 3 7.4 7.5 7.9 12.3-.3-.2-.6-.5-.9-.7-2.1-8.6-12-16.6-20.2-18.7-.1 0-.1-.1-.2-.1.4-.1.8-.1 1.2-.1 4.1.5 9.4 4.8 12.2 7.3zm-11.6-13c-.2.2-.4.2-.6 0-.1-.1 0-.3.1-.3h.6c.1.1 0 .2-.1.3z"/><path class="st0" d="M73.6 90.7c.2.1.4.1.6-.1 7.7.2 15.3.4 22.7 2.4 3.3 1 6.7 2.7 10 3.8-1.4-.4-2.9-.7-4.4-1-2.6-1.1-5.3-2.1-8-2.8-6.7-1.7-13.8-1.5-20.6-2.2-.2 0-.3-.1-.3-.1zm11.9 11.7c3.3 2.8 6.6 6.1 8.1 10.1h-.1c-.5.4-.2 1.4.4 1.2.2.7.3 1.3.4 2 0 .2 0 .3-.2.4-.2-.2-.4-.3-.6-.4-.4-4.8-4.4-9.2-7.9-12.2-2.6-2.5-7.9-6.9-12-7.5.6-.1 1.2-.1 1.8 0 3.8.8 7.5 4.1 10.1 6.4z"/><path class="st0" d="M92.5 91.3c6.2 1 11.7 4.2 17.8 5.8.1 0 .2.1.3.1.2.2.2.5 0 .6-.2-.4-.7-.6-1.2-.4h-.2c-.1 0-.1 0-.2-.1-.7-.2-1.4-.4-2.2-.6-3.3-1.1-6.7-3-10-3.8-7.3-2-15-2.2-22.7-2.4.1-.1.2-.2.2-.3 6.1-.2 12.2.1 18.2 1.1z"/><path class="st9" d="M108.1 97.7l1.1.2c.8 2.4-2 4.3-3.7 5.8-3.8 3.1-7.8 6.1-11.9 8.8-1.5-4.1-4.7-7.4-8.1-10.2-2.7-2.3-6.3-5.5-10.1-6.5 11-.6 21.5 1.3 32.7 1.9z"/><path class="st0" d="M80.5 163.1c-.1-.2-.1-.4-.2-.6v-.1l.4-.2c.1 0 .1-.1.2-.1s.2.1.2.2.1.3.2.4l-.4.3-.4.1zm.5-1.1c-.1 0-.1.1-.2.1l-.4.2c0-.1.3-.3.6-.3z"/><path class="st0" d="M94.3 190.6c.4 1.5.2 3.2.4 4.7-.1.1-.3.2-.5.2-.2.1-.3.2-.3.4-.5-1.3-.3-4-.5-5.1-1.6-7.7-5.6-14.2-9-21.1-1-2.1-2.7-4.4-3.5-6.7l.4-.3c4.3 9.4 10.5 17.6 13 27.9zm-8.4-35.3c2-5.8 2-12.1.2-17.9h.1c0-.1.1-.1.2-.2 1.8 4.6 2.2 9.7 1.3 14.5l-.9 2.1v.2c0 .2.2.3.3.3-.6 1.9-1.4 3.7-2.5 5.4-.8 1.2-1.9 2.3-3.2 3.1 0-.1-.2-.3-.2-.4 0-.1-.1-.2-.2-.2 2.2-1.9 4-4.2 4.9-6.9zM81.6 139l.3-.3c.1-.1.2-.1.2-.1.1.2.1.3.2.5-.1.2-.3.5-.4.7 0-.2-.1-.4-.2-.5 0-.1 0-.2-.1-.3zm1.4 2.8c-.1.2-.1.4-.2.6-.1.4.3.6.6.4 0 0 .1-.1.1-.2 0 .2-.2.3-.3.3-.2 0-.4-.1-.5-.3-.2-.9-.5-1.7-.8-2.6.1-.2.3-.5.4-.7.3.8.5 1.6.7 2.5z"/><path class="st0" d="M82.3 138.7c.1.1.2.3.1.4 0 0-.1 0-.1.1 0-.2-.1-.4-.2-.5h.2zm1.1 3.2c.1.1.1.3.1.4v.2c0 .1-.1.1-.1.2-.2.2-.7 0-.6-.4 0-.2.1-.4.2-.6.1.2.1.4.2.6.1-.1.2-.2.2-.4z"/><path class="st0" d="M83.3 141c.1.3.1.6.2.9-.1.2-.2.3-.3.5-.1-.2-.1-.4-.2-.6.1-.3.2-.5.3-.8zm2-4c0 .2.2.3.3.4-.5 1.6-1.2 3-2.1 4.4 0-.3-.1-.6-.2-.9.6-1.2 1.4-2.5 2-3.9z"/><path class="st0" d="M85.6 137.5h.2c.1.2.1.5.2.8-.4 1.6-1.2 3-2.3 4.2v-.2c0-.1-.1-.3-.1-.4.8-1.4 1.5-2.9 2-4.4z"/><path class="st9" d="M87 154.2c.1 0 .1-.1.2-.1 2.5-3.4 4.5-7.3 5.8-11.4 5.9 6.8 8.1 18 8.9 26.6.5 5.5.8 11.7-1.4 17-1.1 2.6-3 7.5-5.8 9-.2-1.5 0-3.2-.4-4.7-2.5-10.3-8.7-18.5-12.9-27.9 1.2-.8 2.3-1.9 3.2-3.1 1-1.7 1.8-3.5 2.4-5.4z"/><path class="st0" d="M93.3 122.8l.3.2c-3.2 3.9-4.6 9.3-7.5 13.5 0-.1-.1-.2-.2-.2-.2 0-.3 0-.4.2s-.1.4-.2.6v-.3c2.4-4.5 4.2-10.5 8-14z"/><path class="st0" d="M85.7 137.1c0 .1-.1.3-.1.4-.2-.1-.3-.2-.3-.4.1-.2.2-.4.2-.6 0-.1.1-.2.2-.2.2 0 .3 0 .4.2l-.1.1c-.1 0-.2.1-.2.2s-.1.2-.1.3z"/><path class="st0" d="M85.7 137c.1.2.1.3.1.5h-.2c0-.2.1-.3.1-.5z"/><path class="st0" d="M86.1 137.3v.2c-.1.1-.2.1-.3.1 0-.2-.1-.3-.1-.5v-.2c0-.1.1-.2.2-.2h.1c.1.2.1.3.1.6z"/><path class="st0" d="M86 137.4c0 .3-.1.6-.1.9-.1-.3-.1-.6-.2-.8.1 0 .2 0 .3-.1zm.1-.7v-.1.1zm-.1 0c.1 0 .2.1.2.2s.1.2.1.2c0 .1-.2.1-.2.2H86v-.1c.1-.2 0-.3 0-.5z"/><path class="st0" d="M93.6 123.1l.3.2c-1 1.6-1.8 3.2-2.7 4.9-.2 0-.5 0-.7.2-.1.1-.2.2-.1.3 0 .2.2.4.3.5l-.5 1.1c-1 2.4-2.2 4.7-3.8 6.8 0-.1 0-.2-.1-.2 0-.1-.1-.2-.2-.2v-.2c2.8-4.1 4.3-9.5 7.5-13.4zm-7.5 14.3v-.2.2zm1 16.8h-.2c-.1-.1-.2-.2-.1-.4l.9-2.1c-.1.6-.3 1.2-.4 1.9-.1.2-.2.4-.2.6z"/><path class="st0" d="M87.2 153.4c3.9-6.9 6.4-14.5 7.3-22.3.1 0 .3-.1.4-.2.1-.2.1-.5-.1-.6 0 0-.1 0-.1-.1.2-2 .4-4 .4-6 .1.1.2.1.3.2.8 5.3-.1 11.7-2 17.6-.1-.1-.3-.2-.4-.3-.3-.2-.5.3-.4.5.2.2.3.4.5.6-1.3 4-3.3 7.8-5.8 11.2-.1.1-.1.1-.2.1 0-.2.1-.4.1-.7 0 .1 0 .1 0 0z"/><path class="st0" d="M92.6 137.8c.5-2.3.9-4.7 1.2-7.1.2.1.4.2.5.3.1 0 .1.1.2.1-.9 7.9-3.4 15.4-7.3 22.3.2-.6.3-1.2.4-1.8 2.1-4.4 3.7-9 5-13.8z"/><path class="st10" d="M90.2 130.3l.5-1.1c.3.2.7.4 1.1.5.7.3 1.4.7 2 1.1-.2 2.4-.6 4.8-1.2 7.1-1.3 4.7-3 9.3-5 13.8.9-4.9.4-9.9-1.3-14.5 1.6-2.2 2.9-4.5 3.9-6.9z"/><path class="st0" d="M91.2 128.2c-.1.2-.2.4-.2.5l-.3-.1.2.1c-.1.1-.1.3-.2.4-.2-.1-.3-.3-.3-.5 0-.1 0-.3.1-.3.2-.1.4-.1.7-.1z"/><path class="st0" d="M90.9 128.8l-.2-.1s.1 0 .2.1z"/><path class="st0" d="M93.8 130.3c-.1.1-.1.3-.1.4-.6-.4-1.3-.8-2-1.1-.4-.1-.7-.3-1.1-.5.1-.1.1-.3.2-.4l3 1.6zm-2.9-1.6c1 .4 2 .9 2.9 1.5v.1l-2.9-1.6z"/><path class="st0" d="M93.9 129.6c-.1.2-.1.4-.1.6-.9-.6-1.9-1.1-2.9-1.5.1-.2.2-.3.2-.5 1.1.2 2 .7 2.8 1.4zm-.8 13.1c-.1-.2-.3-.4-.5-.6-.2-.2.1-.7.4-.5.1.1.3.2.4.3 0 .1-.1.2-.1.3-.1.3-.2.4-.2.5zm.5-26.9c.2.1.4.3.6.4-.2.3-.7.4-1 .2-.1-.1-.2-.2-.2-.4 0-.3-.1-.6-.2-.9.2.2.5.4.8.7z"/><path class="st0" d="M100.7 158.2c1.6 6.7 2.7 13.4 2.2 20.3-.2 3.5-1 6.8-2.4 10-.7 1.5-3.3 6.1-5.3 7.3-.2-.1-.3-.2-.5-.4 2.7-1.5 4.7-6.4 5.8-9 2.2-5.2 1.9-11.4 1.4-17-.7-8.6-3-19.9-8.9-26.6.1-.1.1-.3.2-.4 3.8 3.3 6.4 11.3 7.5 15.8z"/><path class="st5" d="M94.9 124c-.4 1.9-.8 3.7-1 5.6-.8-.7-1.7-1.2-2.8-1.4.8-1.7 1.7-3.3 2.7-4.9l1.1.7z"/><path class="st0" d="M129.1 154.7c-1.2-3.7-5-7.4-7.4-10.3-7.9-9.5-16.7-18.3-26.2-26.2-.7-.6-1.5-1.2-2.3-1.8.3.2.7.1 1-.2 4 3.2 7.9 6.6 11.7 10.1 5.9 5.4 11.4 11.2 16.4 17.4 3 3.6 6.9 6.9 7.4 11.8.1.3-.5.4-.6.1v-.1c.1 0 .2-.1.3-.2.1-.1 0-.4-.3-.6.1 0 0 0 0 0zm-35.3-32c-.1.1-.2.2-.3.4-.1-.1-.2-.2-.3-.2l.3-.3.3.1zm9.9 48.9c.5 6-.2 12.5-2.9 17.9-1 2.1-2.7 5.3-5.1 6.4l-.5-.2c2-1.1 4.6-5.8 5.3-7.3 1.4-3.2 2.3-6.5 2.4-10 .5-6.8-.6-13.6-2.2-20.3-1.1-4.6-3.6-12.5-7.5-15.9.1-.1.1-.2.1-.3 7.8 6.5 9.6 20.5 10.4 29.7zm-10.1-59c.1.4.3.8.4 1.2-.7.2-1-.8-.4-1.2zm.5 10.3c-.1.2-.2.3-.2.4l-.3-.2c.1-.1.2-.3.3-.4 0 .1.1.1.2.2z"/><path class="st0" d="M93.6 122.5l.3-.3c.1-.1.2-.1.3 0 .1.1.2.2.1.3-.1.1-.2.2-.2.3-.1 0-.2-.1-.3-.2l-.2-.1zm.2 7.8l.7.4c-.2-.1-.4-.3-.7-.5.1-.2.1-.4.1-.6l.7.5c-.1.3-.1.7-.1 1-.1 0-.2 0-.2-.1-.2-.1-.3-.2-.5-.3v-.4z"/><path class="st0" d="M93.8 130.2c.2.1.5.3.7.5l-.7-.4v-.1zm1.1-6.7c-.1.2-.1.4-.1.5-.3-.3-.7-.5-1-.7.1-.2.2-.3.2-.4l.9.6zm15.7-25.6c.1.2.2.3.2.5.4 1.4-.9 2.9-1.7 3.8-1.6 1.9-3.5 3.6-5.4 5.1-2.9 2.5-6 5.1-9.6 6.4-.1-.4-.2-.8-.4-1.2 4.1-2.7 8.1-5.7 11.9-8.8 1.8-1.5 4.6-3.4 3.7-5.8l.8.1h.1c.1.1.3 0 .4-.1zm-16.4 98.4c-.1-.1-.2-.2-.2-.3 0 .1.1.2.2.3z"/><path class="st0" d="M95.7 195.9c-.4.2-.9.3-1.3.4h-.2c-.1-.1-.1-.2-.2-.4 0-.2.1-.3.3-.4.2 0 .3-.1.5-.2.1.2.3.3.5.4l.4.2zm-.9-71.9c.1.1.2.1.2.2 0 2-.2 4-.4 6l-.7-.6c.2-1.9.5-3.7.9-5.6zm-.1 6.2c.2.1.3.3.3.4 0 .3-.2.5-.4.5 0-.3 0-.6.1-.9zm.4-6.7v.7l-.2-.2c0-.2 0-.4.2-.5-.1 0-.1 0 0 0z"/><path class="st0" d="M95 123.4c.1-.1.1-.1 0 0 .1-.1.2-.1.2 0v.2c-.1 0-.1-.1-.2-.2 0 .1 0 .1 0 0z"/><path class="st0" d="M95.2 123.6c0 .2.1.5.1.7-.1-.1-.2-.1-.3-.2v-.7c.1.2.1.2.2.2z"/><path class="st0" d="M97.2 125c7 4.7 12.9 10.8 18.7 16.8 2.5 2.6 5.2 5.1 7.5 7.8 1 1.2 3.4 5.6 5.4 5.5.1.1.2.3.2.4h-.1c-2.7-.3-4.1-2.9-5.5-4.9-4.4-6.3-11.4-11.9-17.1-17.1-3.5-3.2-7.2-6.3-11-9.1 0-.2-.1-.5-.1-.7l2 1.3z"/><path class="st11" d="M102.1 88.7c2.1.1 4.5-.5 6.3.1 2 .8 3.1 3 4.3 4.9l-.2.4h.4c.1.1.2.3.2.4l.3-.4h.4c-.1-.1-.1-.2-.2-.3 2.4-3.8-.2-5.7 5-6.4.2.1.3.3.4.4.1-.2.1-.3.2-.5.1 0 .2-.1.3-.1-.1-.1-.1-.2-.2-.3.1-.2.2-.4.2-.5l-.7.1c-1.1-1.1-2.7-1.9-3.8-2.8.2-.1.3-.3.3-.5V83c1.7 1.1 3.2 2.3 4.7 3.7.1.1.2.3.2.5 0 .5-.3.8-.8.8-2.2.3-3.7.5-4.1 2.7-.3 1.5-.9 2.9-1.8 4.1l-.3.3c-.4.2-.9.1-1.1-.3-.9-1.5-1.8-3-2.9-4.3-1.8-2-6.1-.9-8.4-1.2-.1 0-.3-.1-.4-.2-.4-.2-.4-.7-.2-1.1 1.6-1.9 5-3.7 2.6-6.4-1.3-1.2-2.4-2.4-3.5-3.7-.2-.4-.1-.9.3-1.1.1-.1.3-.1.4-.1 1.5-.1 8.6 1.9 9.3 1 .8-1.1 2.4-2.4 3.8-2.4 3.3 0 2.4 5.7 2.2 7.7-.2-.1-.4-.2-.6-.1 0-3.2.6-8.5-2.9-6.3-3.4 2-.6 2.9-5.4 1.8-1.7-.5-3.5-.9-5.4-1l-.3-.3c-.1.1-.2.2-.2.4h-.5c.1.1.2.2.2.4-.1.2-.2.3-.2.4h.7c1.4 1.6 4.3 3.6 4.3 5.3 0 1.3-2.2 3-3.4 4.2-.2 0-.4 0-.6-.1.1.2.1.3.2.5-.1.1-.1.2-.2.3h.3c.1.2.1.3.2.5l.6-.3z"/><path class="st11" d="M100.7 77.5c0 .1-.1.3-.2.4-.1-.1-.2-.2-.2-.4h.4zm.1.8h-.6c.1-.1.2-.3.2-.4l.4.4z"/><path class="st11" d="M101.2 77.4c.3.4.6.7.9 1-.4 0-.8-.1-1.2-.1l-.4-.4c.1-.1.2-.2.2-.4.1 0 .3-.1.5-.1zm-.3-.3l.3.3h-.5c.1 0 .1-.2.2-.3zm.9 10.7c-.2.2-.3.3-.4.5-.1-.2-.1-.3-.2-.5.1 0 .4.1.6 0zm-.3.8h-.3c.1-.1.1-.2.2-.3 0 .2 0 .2.1.3z"/><path class="st11" d="M101.8 87.8h1.3l-1 .9c-.2 0-.4 0-.6-.1 0-.1-.1-.2-.2-.3.2-.1.3-.3.5-.5z"/><path class="st11" d="M102.1 88.7l-.4.4c-.1-.1-.1-.3-.2-.5.2.1.4.1.6.1zm4.5-10.3c4.8 1.1 2 .2 5.4-1.8 3.5-2.2 2.9 3.1 2.9 6.3-.3.1-.4.4-.4.7-.1-.1-.2-.3-.2-.4 0-1.8-.1-3.6-.3-5.4-.4-2.2-3.2 1.3-3.8 1.7-.5.3-1.2.4-1.8.2-2.1-.4-4.2-1-6.3-1.2-.3-.3-.6-.6-.9-1 1.8 0 3.6.4 5.4.9z"/><path class="st11" d="M106 83.4c.3 1.7-1.4 3.2-2.9 4.4h-1.3c1.2-1.3 3.4-2.9 3.4-4.2 0-1.7-2.9-3.8-4.3-5.3.4 0 .8.1 1.2.1 1.5 1.5 3.5 2.8 3.9 5z"/><path class="st11" d="M103.1 87.8c2-.1 4.2-.5 5.7.3 2 1.1 3.2 2.9 4.3 4.8-.1.3-.3.5-.4.8-1.2-1.9-2.3-4.1-4.3-4.9-1.8-.6-4.2 0-6.3-.1.3-.3.6-.6 1-.9z"/><path d="M108.4 79.6c.6.2 1.3.1 1.8-.2.5-.3 3.3-3.9 3.8-1.7.2 1.8.3 3.6.3 5.5 0 .2.1.3.2.4 0 .3.1.5.3.7 1 .8 2.2 1.5 3.1 2.4-1.4.2-2.8.7-3.3 1.8-.7 1.5-.9 3-1.5 4.5-1.2-1.9-2.3-3.6-4.3-4.8-1.5-.8-3.8-.5-5.7-.3 1.4-1.2 3.2-2.8 2.9-4.4-.4-2.2-2.3-3.5-3.8-5 2 .1 4.1.7 6.2 1.1z" fill="#f3ed64"/><path class="st0" d="M106.9 96.8l2.1.6c.1 0 .1 0 .2.1h.2c-.1 0-.2 0-.2.1-1.1-.2-2.3-.4-3.5-.6-1.1-.4-2.2-.8-3.2-1.2 1.4.3 2.9.6 4.4 1z"/><path class="st0" d="M109.1 97.5l-1.1.1c-.8-.2-1.6-.4-2.4-.7 1.2.3 2.4.5 3.5.6zm-2.2-.7c.7.2 1.4.4 2.2.6-.8-.2-1.5-.3-2.2-.6zm2.3 1.2c-.4-.1-.8-.2-1.1-.2h1.1s.1.1 0 .2zm0-.4c.2 0 .4.1.6.2h-.6v-.2z"/><path class="st0" d="M110.4 97.9h-.6l-.6-.3m0 0c.1-.1.1-.1.2-.1l1 .3-1.2-.2z"/><path class="st0" d="M109.8 97.9c.1.1.3.1.4.2h-.2l-.8-.1c0-.1 0-.1-.1-.2.3 0 .5 0 .7.1zm-.4-.4h-.2.2z"/><path class="st0" d="M110.4 97.8l-1-.3m0 0c.4-.1.9 0 1.1.4-.1.1-.2.2-.4.3-.1-.1-.2-.2-.4-.3h.7l-1-.4z"/><path class="st11" d="M112.9 94.1h-.4l.2-.4c0 .1.1.3.2.4z"/><path class="st11" d="M113.1 92.9c.2.3.4.6.5.8-.1.1-.1.2-.2.3h-.5c-.1-.1-.2-.2-.2-.4.1-.2.3-.4.4-.7zm.3 1.1l-.3.4c-.1-.1-.2-.3-.2-.4h.5zm1.2-5.6c.5-1.2 2-1.6 3.3-1.8.3.2.5.5.8.7-5.3.7-2.7 2.6-5 6.4-.2-.3-.3-.6-.5-.8.5-1.5.7-3 1.4-4.5z"/><path class="st11" d="M113.6 93.7c.1.1.1.2.2.3h-.4c.1-.1.1-.2.2-.3zm1.6-10c1.3.9 2.6 1.8 3.8 2.8l-1.1.1c-1-.8-2.1-1.6-3.1-2.4-.2-.2-.3-.4-.3-.7.2.3.5.3.7.2z"/><path class="st11" d="M114.9 82.9v.3l.2.4h.1c-.2.2-.6.1-.8-.1.1-.2.3-.5.5-.6z"/><path class="st11" d="M115.6 83v.2c0 .2-.1.4-.3.5h-.1l-.2-.4V83c.1-.2.4-.2.6 0zm3.4 3.5c.2.1.3.3.4.5-.1.1-.1.2-.1.3-.2 0-.5 0-.7.1-.2-.3-.5-.5-.8-.7l1.2-.2z"/><path class="st11" d="M119.3 87.3c-.1.2-.2.3-.2.5-.1-.2-.3-.3-.4-.4.2-.1.4-.1.6-.1zm.1-.3c-.1-.2-.3-.3-.4-.5l.7-.1-.3.6zm.2.2c-.1 0-.2 0-.3.1 0-.1.1-.2.1-.3.1.1.2.1.2.2z"/><path class="st0" d="M128.4 154.5c.2.1.5.2.7.2.1.2.1.5.2.7-.1.1-.2.2-.3.2-.1-.2-.2-.3-.3-.4 0-.3-.2-.5-.3-.7z"/><path class="st0" d="M129.3 155.4c-.1-.2-.1-.5-.2-.7.3.1.4.4.2.7 0-.1 0 0 0 0z"/><path class="st7" d="M66.2 159c-1.4-.7-2.5 0-2.1-2.1 2.5.4 1.8 1.4 1.8 2.1"/><path class="st8" d="M66.2 159c-1.4-.7-2.5 0-2.1-2.1 2.5.4 1.8 1.4 1.8 2.1"/><path class="st7" d="M66.6 158.8c.2-1.6-.8-2.4-2.3-2.6h-.1c-.4 0-.7.3-.7.7-.1.9-.1 1.7.8 2.2.7.3 1.4.4 2.2.2h.1c.2-.1.2-.3 0-.5-.1-.3-.5-.6-1-.7-.7-.2-.8-.2-.7-1l-.9.5c.6.1 1.4.1 1.3.8-.3.9 1.1 1.3 1.3.4zm-39.8-30.9c6.4-2.2-5-8.8-.9 0"/><path class="st8" d="M26.8 127.9c6.4-2.2-5-8.8-.9 0"/><path class="st7" d="M25.8 128.1c.1.1.2.1.3.1.1 0 .2-.2.2-.3-.2-1-1.3-2.8-.6-3.8.4-.5 1.3-.1 1.6.2.6.3 1 1 1.1 1.7-.1 1.1-1.4 1-1.9 1.8-.1.2 0 .4.2.5 1.1.5 2.7-1.3 2.5-2.4s-.8-2-1.8-2.4c-.8-.4-1.9-.6-2.5.2-.7 1.1.2 3.3.9 4.4zm6.3-4.1c-2.6-2.6-.9-12.7 3.1-7.4 1.7 2.6 0 7.4-2.6 7.9"/><path class="st8" d="M32.1 124c-2.6-2.6-.9-12.7 3.1-7.4 1.7 2.6 0 7.4-2.6 7.9"/><path class="st7" d="M32.4 124.2c-.3.1-.2.5.1.5 2.6-.3 4-3.4 3.8-5.8-.1-1.7-1.3-4.7-3.5-4.3-1.7.2-2.3 2.7-2.4 4.1-.2 1.7-.2 4.6 1.5 5.5.2.1.4 0 .3-.2-.6-1.3-1-2.7-1-4.1 0-1.2.1-3.1 1.1-4 1.4-1.3 2.9 2 2.9 3 .1 2-.8 4.5-2.8 5.3z"/><path d="M118.3 19.1c-25.4 0-46 12.2-46 27.2 0 7.1 4.7 13.6 12.3 18.5L82 70.3l9.7-1.8c7.5 3.2 16.7 5 26.6 5 25.4 0 46-12.2 46-27.2s-20.6-27.2-46-27.2z" fill="none" stroke="#ddd" stroke-miterlimit="10"/><path class="st11" d="M138.9 45.3c-1.4-.5-8.6-3-9.9-3.4-1-.3-3.5-1.3-1.4-3.1 4.6-4.7 4.5-7.7 3.7-9.7-.6-1.7-3.4-2.8-4.8.6s-3.8 4.5-5.4 5.7c-3.1 2.4-9.6 7-9.6 7l-3.2 14.5s10.8 4.8 13.4 5.7c2.1.7 4.5.4 6.3-1 1.8-1.4 7.7-9 8.9-10.6 3.5-1.9 3.4-5.1 2-5.7zM98 56.9l3.8-17.4 6.4 1.4-3.8 17.4-6.4-1.4z"/></g></g></svg>