<?xml version="1.0" encoding="utf-8"?>
<!-- Generator: Adobe Illustrator 23.0.6, SVG Export Plug-In . SVG Version: 6.00 Build 0)  -->
<svg version="1.1" id="レイヤー_1" xmlns="http://www.w3.org/2000/svg" xmlns:xlink="http://www.w3.org/1999/xlink" x="0px"
	 y="0px" viewBox="0 0 328.6 212" style="enable-background:new 0 0 328.6 212;" xml:space="preserve">
<style type="text/css">
	.st0{fill:#1D3033;stroke:#1D3033;stroke-width:0.66;stroke-linecap:round;stroke-linejoin:round;}
	.st1{fill:#D93933;}
	.st2{fill:#DADADA;}
	.st3{fill:#9FB05A;}
	.st4{fill:#F1F1F1;}
	.st5{fill:#F7E5D7;}
	.st6{fill:#989898;}
	.st7{fill:#FFFFFF;}
	.st8{fill:none;}
</style>
<g id="レイヤー_1-2">
	<g id="レイヤー_3">
		<path class="st0" d="M255.4,137.9c0.9-3.3,1.4-6.7,1.2-10.1c-0.3-6.9-1.9-13.6-4.9-19.8c-1.9-4.2-4.6-9.9-8.5-13.5
			c0.2,0.2,0.5,0.2,0.7,0v-0.1c6.1,5.3,9.9,15.1,11.7,22c2,7.9,4.3,24.4-4.3,29.7c0.1-0.1,0.1-0.3,0-0.4
			C253.7,144.1,254.6,140.4,255.4,137.9L255.4,137.9z"/>
		<path class="st0" d="M243.2,94.5c3.9,3.6,6.5,9.3,8.5,13.5c3,6.2,4.6,13,4.9,19.8c0.1,3.4-0.3,6.8-1.2,10.1
			c-0.7,2.5-1.7,6.2-4,7.7c-0.1-0.1-0.1-0.2-0.2-0.3c-0.1,0-0.1,0-0.1-0.1c7.6-6.3,5.2-22.8,2.5-30.7c-2.9-8.4-6.9-18.2-15-22.8
			c-0.1-0.1-0.2-0.2-0.1-0.3c0.1-0.1,0.2-0.2,0.3-0.1c1.6,0.5,3,1.3,4.3,2.3c0,0.2,0,0.3,0.1,0.5C243.1,94.3,243.1,94.4,243.2,94.5
			L243.2,94.5z"/>
		<path class="st1" d="M253.5,114.6c2.7,7.8,5,24.3-2.5,30.7c-3.3-2.2-4.8-5.1-6.1-8.8c-0.6-2.1-1.5-4.2-2.6-6.1
			c0-0.4-0.1-0.8-0.1-0.9c0-0.2-0.1-0.3-0.3-0.3c-0.1,0-0.3,0.1-0.3,0.2c-0.4,1.2-0.6,2.4-0.6,3.7c0,1-0.1,2-0.2,3
			c-0.2,1.1-2.9-2.3-3.1-2.6c-3.1-4.5-4.7-9.2-6.4-14.3c0.9-0.4,1.7-0.9,2.5-1.4c1.4-1,3.1-3.6,1.2-4.7c-0.7-1.4-1.6-2.7-2.5-3.9
			c0-10-1.6-20.6-7.6-28.9c-3.3-4.2-7.5-7.5-12.3-9.7c14.9-1.5,28.8,7.5,30.4,23.3c-1.3-1-2.8-1.8-4.4-2.3c-0.1,0-0.2,0-0.3,0.1
			c0,0.1,0,0.2,0.1,0.3C246.6,96.3,250.6,106.2,253.5,114.6L253.5,114.6z"/>
		<path class="st0" d="M251.3,145.7c0.1,0.1,0.1,0.3,0,0.4c-0.1,0.1-0.3,0.2-0.5,0.3h-0.3c-0.2-0.1-0.3-0.3-0.2-0.5
			c0-0.1,0.1-0.1,0.1-0.2c0.2-0.1,0.3-0.3,0.5-0.4c0,0.1,0.1,0.1,0.1,0.1C251.2,145.5,251.3,145.6,251.3,145.7L251.3,145.7z"/>
		<path class="st0" d="M250.8,146.3c0.1-0.1,0.3-0.2,0.5-0.3c-0.1,0.3-0.4,0.4-0.6,0.3C250.7,146.4,250.8,146.4,250.8,146.3z
			 M250.9,145.2c-0.2,0.1-0.3,0.3-0.5,0.4c-5.3-3-5.8-9.8-8.2-14.9v-0.5c1.1,1.9,2,4,2.6,6.1C246.1,140.2,247.7,143,250.9,145.2
			L250.9,145.2z"/>
		<path class="st0" d="M250.4,145.7c-0.2,0.1-0.2,0.4-0.1,0.6c-4.8-2.4-6.6-9-8.1-14.2v-1.2C244.6,135.8,245.2,142.7,250.4,145.7
			L250.4,145.7z M211,69.7c15.3-3.6,33.2,7.8,33,24.5c0,0.1,0,0.2-0.1,0.2c-0.1-0.1-0.3-0.2-0.4-0.3c0.1-5-2.1-9.2-4.8-13.4
			c-3.1-4.7-7.7-8.1-13-9.9c-4.5-1.5-9.3-1.8-14-0.8L211,69.7L211,69.7z"/>
		<path class="st0" d="M243.6,94c0.1,0.1,0.3,0.2,0.4,0.3c-0.1,0.2-0.4,0.3-0.6,0.1h-0.1c-0.1-0.1-0.2-0.2-0.2-0.3
			c0-0.2,0-0.3-0.1-0.5C243.2,93.8,243.4,93.9,243.6,94L243.6,94z"/>
		<path class="st0" d="M238.8,80.7c2.7,4.2,4.9,8.4,4.8,13.4c-0.2-0.1-0.3-0.3-0.5-0.4c-1.6-15.8-15.5-24.8-30.5-23.3
			c-0.3-0.2-0.6-0.3-0.9-0.4c4.7-1,9.5-0.7,14,0.8C231,72.5,235.6,76,238.8,80.7L238.8,80.7z M242.3,132c0.1,3.3-0.2,8.1-3.3,5.3
			c-4.7-4.4-7.8-11.4-8.5-17.9c0.1,0,0.3-0.1,0.4-0.2c0.9,5.1,2.9,9.9,5.9,14.1c0.8,0.9,2.9,4.8,4.3,3.7c0.9-0.8,0.6-4.8,0.7-6.8
			C241.9,130.8,242.1,131.4,242.3,132L242.3,132z"/>
		<path class="st0" d="M242.2,130.8v1.2c-0.2-0.6-0.3-1.2-0.5-1.8v-0.3C241.9,130.2,242.1,130.5,242.2,130.8L242.2,130.8z"/>
		<path class="st0" d="M242.2,130.3v0.5c-0.1-0.3-0.3-0.6-0.4-0.9v-0.1C241.9,129.9,242.1,130.1,242.2,130.3z"/>
		<path class="st0" d="M241.8,129.7c-0.1-0.1-0.1-0.1-0.2-0.1v0.1c0.1,0.1,0.1,0.3,0.1,0.5c-0.1,2,0.2,6.1-0.7,6.8
			c-1.4,1.1-3.5-2.8-4.3-3.7c-3-4.2-5-9-5.9-14.1l0.4-0.2c1.7,5.1,3.3,9.8,6.4,14.3c0.2,0.3,2.9,3.7,3.1,2.6c0.1-1,0.2-2,0.2-3
			c0-1.2,0.2-2.5,0.5-3.6c0-0.2,0.2-0.3,0.4-0.2c0.1,0,0.2,0.2,0.2,0.3c0,0.3,0,0.6,0.1,0.9C242.1,130.1,242,129.9,241.8,129.7z"/>
		<path class="st0" d="M241.8,129.9v0.3c0-0.2-0.1-0.3-0.1-0.5v-0.1h0.1c0,0,0,0.1,0.1,0.1L241.8,129.9z M235,113
			c1.9,1.1,0.2,3.7-1.2,4.7c-0.8,0.5-1.6,1-2.5,1.4l-0.3-0.9c2.6-1.1,5-2.9,3.8-4.6C235,113.5,235.1,113.2,235,113z"/>
		<path class="st0" d="M235,113c0.1,0.2,0,0.5-0.1,0.6c-0.1-0.2-0.2-0.3-0.4-0.4c0-0.2-0.1-0.4-0.2-0.5h0.1L235,113L235,113z
			 M235,112.9l-0.6-0.3h-0.1c-0.8-1.4-1.8-2.6-3-3.6l-1.1-1.2c-0.1-0.2-0.3-0.3-0.4-0.5c-0.5-0.6-1-1.1-1.6-1.6l-0.8-0.8l-2.4-2.4
			c-1-0.9-2-1.8-3-2.6c-0.1-0.2-0.2-0.4-0.4-0.6c-0.1-0.1-0.3-0.1-0.4,0c-7.7-6.3-16.8-11.2-25.5-15.7c-2.7-1.5-5.7-2.8-8.5-4
			c-3.1-1.4-6.2-3.5-9.5-4.4c-6.2-1.6-13.9,1.5-19.8,3.5c-3.6,1.2-7.1,3-10.6,4.4c0.2-0.2,0.4-0.5,0.7-0.7c7.7-3.3,15.2-6.8,23.6-8
			c7.1-1,13.9,3.7,20,6.6c9.2,4.3,18.6,9.2,26.7,15.4c4.2,3.2,9.6,7.2,13.3,11.6v1c0,0.2,0.1,0.3,0.3,0.3s0.3-0.1,0.3-0.3
			C233.4,110.2,234.3,111.5,235,112.9z M234.9,113.6c1.2,1.8-1.2,3.6-3.8,4.6c-0.1-0.2-0.1-0.4-0.2-0.6c0-0.1,0-0.1-0.1-0.1
			c0.3-0.1,0.6-0.2,0.9-0.4c0.9-0.4,1.7-1,2.4-1.7c0.5-0.4,0.6-1.2,0.2-1.7C234.5,113.8,234.7,113.8,234.9,113.6L234.9,113.6z"/>
		<path class="st0" d="M234.5,113.2c0.2,0.1,0.3,0.2,0.4,0.4c-0.2,0.1-0.4,0.2-0.6,0.1c0-0.2-0.2-0.3-0.2-0.5s0-0.5,0.3-0.5
			C234.4,112.8,234.5,113,234.5,113.2z"/>
		<path class="st2" d="M234.3,113.7c0.4,0.5,0.3,1.3-0.2,1.7c-0.7,0.7-1.5,1.3-2.4,1.7c-0.3,0.1-0.6,0.3-0.9,0.4
			c-0.1-0.1-0.2,0-0.3,0.1v0.1c-1.1,0.4-2.3,0.6-3.4,1c-2.7-1.3-5.2-3.2-7.9-4.3c-1.8-0.8-3.6-1.7-5.4-2.5c0.4,0,0.9-0.1,1.3-0.2
			c1.9-0.4,3.8-1.3,5.2-2.6c2.6-2,3.4-5.5,2-8.4c1.7,1.3,3.4,2.8,5,4.3l0.8,0.8l1.6,1.6c0.2,0.1,0.3,0.3,0.4,0.5
			c1.5,1.7,2.8,3.6,3.9,5.6C234.1,113.5,234.2,113.6,234.3,113.7L234.3,113.7z"/>
		<path class="st0" d="M234.3,113.7c-0.1,0-0.2-0.1-0.2-0.2c-1.1-2-2.4-3.9-3.9-5.6l1.1,1.2c1.2,1,2.2,2.3,3,3.6
			c-0.3,0-0.4,0.3-0.3,0.5C234.1,113.3,234.2,113.5,234.3,113.7L234.3,113.7z M232.2,108.6l0.3,0.4v0.2c0,0.2-0.1,0.3-0.3,0.3
			s-0.3-0.1-0.3-0.3v-1C231.9,108.3,232.1,108.4,232.2,108.6z"/>
		<path class="st0" d="M224.8,80.1c6.1,8.3,7.6,18.9,7.6,28.9l-0.3-0.4c0-7-1.2-13.9-3.6-20.5c-2-5.6-5.8-10.4-10.7-13.6
			c-2.1-1.4-4.3-2.8-6.6-3.9c0.4-0.1,0.9-0.1,1.3-0.2C217.4,72.6,221.6,75.9,224.8,80.1z"/>
		<path class="st0" d="M232.2,108.6c-0.1-0.2-0.3-0.3-0.4-0.4c-0.4-9.6-2-21.5-8.9-28.7c-6.6-6.6-15-11.1-24.1-12.9
			c-19-3.6-37.6,1.5-50.6,15.9l-1,0.4c7.8-9.9,19.3-16.2,31.9-17.6c3.1-0.3,6.2-0.4,9.4-0.4c7.6-0.1,15.2,1.6,22,5
			c-0.1,0.2,0,0.5,0.2,0.6h0.3l0.5-0.1c2.3,1.2,4.5,2.5,6.6,3.9c5,3.3,8.7,8.1,10.7,13.7C231,94.7,232.2,101.6,232.2,108.6z
			 M231.1,118.2l0.3,0.9l-0.4,0.2c0-0.3-0.1-0.6-0.1-0.9C230.9,118.3,231,118.3,231.1,118.2z"/>
		<path class="st0" d="M230.8,118.4l-0.3,0.1v-0.8v-0.1c0.1,0,0.2-0.1,0.3-0.1l0.1,0.1c0.1,0.2,0.1,0.4,0.2,0.6
			C231,118.3,230.9,118.3,230.8,118.4z"/>
		<path class="st0" d="M230.8,118.4c0,0.3,0.1,0.6,0.1,0.9c-0.1,0.1-0.2,0.1-0.4,0.2c0-0.3-0.1-0.6-0.1-1L230.8,118.4z M230.8,117.5
			c-0.1,0.1-0.2,0.1-0.3,0.1C230.5,117.5,230.6,117.4,230.8,117.5C230.7,117.5,230.7,117.5,230.8,117.5
			C230.7,117.5,230.7,117.5,230.8,117.5z"/>
		<path class="st0" d="M230.5,118.5c0,0.3,0,0.6,0.1,1c-0.4,0.2-0.9,0.3-1.3,0.4c0-0.1-0.1-0.2-0.2-0.2c-0.4-0.1-0.7-0.3-1.1-0.4
			C228.8,119,229.7,118.8,230.5,118.5z M230.4,117.7v0.8c-0.8,0.3-1.6,0.5-2.5,0.7l-1-0.5C228,118.2,229.2,118,230.4,117.7z"/>
		<path class="st2" d="M222.9,79.5c6.9,7.2,8.6,19.1,8.9,28.7c-3.7-4.5-9-8.4-13.3-11.6c-8.1-6.2-17.5-11.1-26.7-15.4
			c-6.1-2.9-12.9-7.6-20-6.6c-8.4,1.2-15.9,4.7-23.6,8c12.9-14.4,31.5-19.6,50.6-15.9C207.8,68.4,216.2,72.9,222.9,79.5z"/>
		<path class="st0" d="M230,156.7c0,8.6-2.2,16.9-3.5,25.4c-0.9,6.9-2.6,13.7-5.1,20.3l-0.3-0.3c0.1-0.4,0.2-1,0.4-1.4l1.5-4.8
			c0.5-1.4,1.2-2.8,1.5-4.3c0.4-1.7,0.5-3.6,0.8-5.3c0.5-2.9,0.9-5.8,1.3-8.8c1-6.8,3.1-13.6,3-20.5
			C229.8,157.1,229.9,157,230,156.7C230,156.8,230,156.8,230,156.7C230,156.8,230,156.8,230,156.7L230,156.7z"/>
		<path class="st0" d="M230,156.7c0-0.1,0-0.1-0.1-0.2C230,156.6,230,156.7,230,156.7z"/>
		<path class="st0" d="M229.6,157c-0.1-0.1-0.2-0.2-0.4-0.2v-0.1c0-0.1,0.1-0.2,0.2-0.3c0.1-0.1,0.2-0.1,0.4,0l0.2,0.1
			c0,0,0.1,0.1,0.1,0.2C230,157,229.9,157.1,229.6,157C229.7,157.1,229.7,157.1,229.6,157z M230,156.5l-0.2-0.1
			C229.9,156.4,230,156.5,230,156.5z"/>
		<path class="st0" d="M229.4,156.4c-0.1,0.1-0.2,0.2-0.2,0.3v0.1c-2.6-1.6-6.2-1.9-9.1-2.8c-3.7-1.2-7.4-2.1-11.2-2.7
			c-7.7-1.2-15.3-2.3-23.1-3v-0.1c0-0.1-0.1-0.2-0.2-0.2s-0.1,0-0.2,0.1c0-0.2,0.1-0.3,0.2-0.4h0.1c6.6-0.3,13.3,0.2,19.8,1.5
			c0,0.1,0.3,0.1,0.3,0c1.9,0.3,3.8,0.7,5.7,1.1c5.6,1.1,13.6,2.5,18.2,6.1C229.6,156.3,229.5,156.4,229.4,156.4L229.4,156.4z"/>
		<path class="st0" d="M229.6,157c0.1,6.9-2,13.7-3,20.5c-0.4,2.9-0.8,5.8-1.3,8.8c-0.3,1.8-0.4,3.6-0.8,5.3c-0.3,1.5-1,2.9-1.5,4.3
			l-1.5,4.8c-0.1,0.4-0.2,0.9-0.4,1.4c-0.1-0.1-0.3-0.1-0.5,0c2.2-6.6,3.8-13.4,4.8-20.4c1.2-8.3,3.6-16.6,3.8-25
			C229.3,156.8,229.5,156.9,229.6,157L229.6,157z M229.3,119.8c0,0.1-0.1,0.3-0.2,0.3c-0.3,0-0.5-0.1-0.8-0.1
			C228.6,120,229,119.9,229.3,119.8z"/>
		<path class="st0" d="M227.2,119.3c0.3,0,0.5,0,0.8-0.1c0.4,0.2,0.7,0.3,1.1,0.4c0.1,0,0.2,0.1,0.2,0.2c-0.3,0.1-0.7,0.1-1,0.1H228
			v-0.1c0-0.1-0.1-0.2-0.2,0l-1.2-0.3c-0.1-0.1-0.1-0.4,0-0.5c0,0,0-0.1,0.1-0.1L227.2,119.3L227.2,119.3z M228.3,120H228H228.3z
			 M227.9,120h0.1c0.7,5.8-4.6,13.2-7.9,17.6c-0.1,0.1-0.2,0.2-0.4,0.2v-0.1c0-0.3-0.1-0.6-0.2-0.9c1.2-2.2,2.4-4.3,3.6-6.6
			c0.7-0.7,1.2-1.7,1.3-2.7c1.1-2.5,1.8-5.3,3.2-7.6C227.7,120,227.8,120,227.9,120L227.9,120z"/>
		<path class="st0" d="M228,119.9h-0.1v-0.1C227.9,119.7,228,119.9,228,119.9z M227.9,119.9h-0.1H227.9l0.1,0.1
			C227.9,120,227.9,119.9,227.9,119.9z"/>
		<path class="st0" d="M227.9,119.9L227.9,119.9l-0.2,0.1c-0.1,0,0,0,0-0.1H227.9z M227.1,118.7c0.3,0.2,0.7,0.3,1,0.5
			c-0.3,0-0.5,0-0.8,0.1c-0.2,0-0.4-0.2-0.6-0.3L227.1,118.7L227.1,118.7z M227.7,119.9c-0.4,0.1-0.8-0.1-1.1-0.3l-0.1-0.1
			C226.9,119.7,227.3,119.8,227.7,119.9L227.7,119.9z"/>
		<path class="st3" d="M226.6,119.6c0.3,0.2,0.7,0.3,1.1,0.3c-1.5,2.3-2.1,5.1-3.2,7.6c0.4-2.3-0.7-4.6-3.2-4.4l2.1-2.7
			c0.2-0.3-0.3-0.7-0.6-0.4c-2.4,2.3-4.7,4.8-7.1,7c-2.1,2-4.5,3.6-6.6,5.5c-0.7-2.4-1.6-4.8-2.7-7.2v-0.2c0.1-0.2,0-0.4-0.2-0.4
			s-0.4,0-0.4,0.2v0.1c-0.5,1.3-1.1,2.5-1.9,3.6c-0.3,0.6-0.5,1.2-0.6,1.8c-1.5-3.5-3-7-4.3-10.7c-1.1-3.4-1.6-7.2-3-10.6
			c5.9,0.1,11.6,1.4,16.9,3.8C217.1,115,221.8,118.2,226.6,119.6L226.6,119.6z"/>
		<path class="st0" d="M227.1,118.7l-0.5,0.2c-1.5-0.8-3.1-1.9-4.2-2.4c-2.4-1-4.8-2-7.1-3.2c-0.9-0.5-1.9-1-2.9-1.5
			c0.5,0.1,1,0.1,1.4,0c1.8,0.8,3.6,1.7,5.4,2.5C221.9,115.5,224.4,117.4,227.1,118.7L227.1,118.7z M227.4,104.9
			c-1.6-1.5-3.3-3-5-4.3c-0.1-0.3-0.3-0.5-0.4-0.7c1,0.8,2,1.7,3,2.6C225.7,103.3,226.6,104.1,227.4,104.9z"/>
		<path class="st0" d="M226.5,118.9c-0.2,0.1-0.2,0.3-0.1,0.5c0,0,0,0.1,0.1,0.1c-4.6-1.4-9.3-4.6-13.5-6.5
			c-5.3-2.5-11.1-3.8-17-3.8c-0.1-0.2-0.1-0.4-0.2-0.6c2.5,0,5.1,0.2,7.6,0.5c2.6,0.3,5.2,1,7.6,2.2c0.4,0.3,0.8,0.5,1.3,0.5h0.1
			c1,0.5,2,1,2.9,1.5c2.3,1.2,4.7,2.2,7.1,3.2C223.5,117,225.1,118.1,226.5,118.9L226.5,118.9z"/>
		<path class="st4" d="M229.2,156.8c-0.2,8.4-2.5,16.7-3.8,25c-1,6.9-2.6,13.7-4.8,20.4c-3.1,2.2-6.9,3.7-10.5,5.1
			c-3.2,1.2-9.6,4.2-13,3.2H197c-3-3-5.9-6.2-9.1-9.1c-1.6-1.4-3.3-2.8-4.9-4.2c-1.3-1.2-2.2-2.6-3.6-3.6c0.2-0.2-0.2-0.5-0.4-0.3
			c1.4-1.5,0.8-6,1-7.8c0.3-5.2,1.2-10.4,2-15.4c1.2-7.2,3.7-14.2,3.8-21.6c7.8,0.7,15.4,1.7,23.1,3c3.8,0.7,7.5,1.6,11.2,2.7
			C223,154.9,226.6,155.3,229.2,156.8L229.2,156.8z"/>
		<path class="st0" d="M221.3,123.2c2.5-0.2,3.6,2.1,3.2,4.4c0,0.1-0.1,0.2-0.1,0.3l-1.2,2.4c-0.1,0.1-0.1,0.2-0.2,0.2
			c-2.2,2-8.9,4.9-11.2,1.8c0.1-0.1,0.3-0.1,0.4-0.2c2.3,1.6,7.3,0.3,9.4-1.1c1.6-1.1,3-2.6,2.7-4.7c-0.1-1.5-1.5-2.7-3-2.5H221
			C221,123.5,221.2,123.3,221.3,123.2L221.3,123.2z"/>
		<path class="st0" d="M224.3,127.9c0.1-0.1,0.1-0.2,0.1-0.3c-0.1,1-0.6,2-1.3,2.7C223.5,129.5,224,128.7,224.3,127.9z M224.1,126.2
			c0.3,2.1-1.1,3.6-2.7,4.7c-2,1.4-7.1,2.7-9.4,1.1l0.5-0.4c2.7,0.4,5.1,0.6,7.7-0.8c1.3-0.7,3.1-1.9,3.3-3.5
			c0.3-2.4-1.1-3.2-3.1-3.2c0.1-0.2,0.3-0.3,0.4-0.5c1.5-0.3,3,0.7,3.2,2.2C224.1,126,224.1,126.1,224.1,126.2z"/>
		<path class="st5" d="M220.5,124.1c2,0,3.4,0.8,3.1,3.2c-0.2,1.6-2,2.8-3.3,3.5c-2.6,1.4-5,1.2-7.7,0.8
			C215.5,129.5,218.2,127,220.5,124.1z"/>
		<path class="st0" d="M220.3,123.3h-0.2c-0.2,0.1-0.3,0.2-0.3,0.4c-3.2,3.5-6.7,6.6-10.6,9.3l-0.1-0.5c2.2-1.9,4.6-3.5,6.6-5.5
			c2.4-2.3,4.7-4.7,7.1-7c0.3-0.2,0.8,0.1,0.6,0.4c-0.6,0.9-1.3,1.8-2.1,2.7C220.9,123.2,220.6,123.2,220.3,123.3z"/>
		<path class="st3" d="M222.9,130.5c0.1-0.1,0.2-0.1,0.2-0.2c-1.1,2.2-2.4,4.4-3.6,6.6c-0.2-0.8-0.5-1.6-1-2.4l0.3-0.3
			c0.1-0.1,0.1-0.2,0-0.3s-0.1-0.1-0.2-0.1c-2.8,1.2-4.2,4.3-6.5,6.4c-0.1-1.2-0.4-2.4-0.7-3.5c-0.1-0.2-0.3-0.4-0.6-0.3
			c-1.3,0.6-2.6,1.2-3.9,1.9c0.8-1.2,1.3-2.5,1.5-3.8h0.1c0.1-0.1,0.2-0.2,0.2-0.4c1-0.5,2-1,2.9-1.6
			C214,135.4,220.6,132.5,222.9,130.5L222.9,130.5z"/>
		<path class="st0" d="M222.4,100.7c1.4,2.9,0.6,6.4-2,8.4c-1.5,1.3-3.3,2.2-5.3,2.6c-0.4,0.1-0.8,0.2-1.3,0.2
			c-0.6-0.3-1.3-0.6-1.9-0.9c5.7,1.3,13.7-5,9.8-10.8C221.9,100.3,222.1,100.5,222.4,100.7z M221.6,100c-0.2-0.2-0.5-0.3-0.7-0.5
			c0-0.1,0.1-0.2,0.2-0.2c0.3,0.2,0.5,0.4,0.8,0.6c0.2,0.2,0.3,0.5,0.4,0.7C222.1,100.4,221.9,100.2,221.6,100
			C221.6,100.1,221.6,100.1,221.6,100z"/>
		<path class="st0" d="M221.5,99.3c0.1,0.2,0.3,0.4,0.4,0.6c-0.2-0.2-0.5-0.4-0.8-0.6C221.3,99.2,221.4,99.2,221.5,99.3L221.5,99.3z
			 M221.6,100.1c3.9,5.8-4.1,12.1-9.8,10.8c-0.4-0.2-0.7-0.3-1.1-0.5c0.1-0.1,0.2-0.1,0.3-0.2c1.3-0.4,2.8,0.3,4.2,0s2.8-0.9,4-1.8
			c2.9-2.2,4-5.5,1.8-8.6v-0.3C221.2,99.8,221.5,100,221.6,100.1z"/>
		<path class="st4" d="M221,99.8c2.2,3.1,1.1,6.4-1.8,8.6c-1.2,0.9-2.6,1.5-4,1.8s-2.9-0.4-4.2,0c-0.1,0-0.2,0.1-0.3,0.2l-3-1.2
			c-6.8-2.3-15.4-2.1-22.4,0.1c-0.1-0.1-0.4-0.2-0.6-0.1c-3.8,0.7-7.5,1.6-11.1,2.7c-3.2,1.1-2.9,2.2-7.5,2.7
			c-2.7,0.3-6-1.9-8.3-3.2c-5.7-3.3-11.4-4.3-17.8-5.2c-0.6-7.2-0.7-16.5,5-21.8v-0.1c7-2.3,13.6-5.6,20.7-7.8
			c10.4-3.1,18.4,2,27.6,6.3c7.3,3.5,14.3,7.5,21,11.9c2,1.3,4.2,2.9,6.5,4.6C220.8,99.6,220.9,99.7,221,99.8L221,99.8z"/>
		<path class="st0" d="M221.4,202.4c0.1,0.2,0.1,0.5-0.1,0.7c-2.8,3.2-8.3,5-12.3,6.1c-3.3,1-8.4,3.2-11.8,2c0.1,0,0.1-0.1,0.1-0.2
			c1.2,0.7,2.5-0.1,3.7-0.5c1.6-0.4,3.2-0.7,4.7-1.2c4.6-1.2,9-2.9,13.1-5.2c0.6-0.3,1.1-0.6,1.6-0.9c0.2,0.2,0.4,0.2,0.6,0l0.1-0.1
			C221.3,202.8,221.4,202.6,221.4,202.4L221.4,202.4z"/>
		<path class="st0" d="M220.9,202.7c0.1-0.2,0.2-0.3,0.2-0.5l0.3,0.3c-0.1,0.2-0.1,0.4-0.2,0.6c-0.1,0.2-0.3,0.3-0.5,0.2
			c0,0-0.1,0-0.1-0.1C220.7,203,220.8,202.9,220.9,202.7z M220.9,123.7c-0.1,0.2-0.3,0.3-0.4,0.5h-0.2c-0.2,0-0.4-0.1-0.4-0.3
			c0.2-0.1,0.3-0.3,0.5-0.5c0.3-0.1,0.7-0.2,1-0.2C221.2,123.4,221,123.5,220.9,123.7L220.9,123.7z"/>
		<path class="st0" d="M220.7,202.2c0.1-0.1,0.3-0.1,0.5,0c0,0.2-0.1,0.4-0.2,0.5c-0.1,0.2-0.2,0.3-0.4,0.4
			c-0.1-0.1-0.1-0.3-0.1-0.4C220.6,202.5,220.6,202.4,220.7,202.2z M146.8,83.5c0.2,0.1,0.3,0.1,0.5-0.1l0.2-0.2
			c3.6-1.4,7-3.2,10.6-4.4c5.8-2,13.5-5,19.7-3.4c3.3,0.9,6.4,3,9.5,4.4c2.8,1.2,5.8,2.5,8.5,4c8.7,4.6,17.7,9.4,25.4,15.7
			c-0.1,0-0.2,0.1-0.2,0.2c-2.3-1.7-4.5-3.3-6.5-4.6c-6.7-4.5-13.7-8.4-21-11.9c-9.2-4.4-17.1-9.5-27.6-6.4
			c-7.1,2.1-13.7,5.4-20.7,7.8c0-0.1,0-0.2-0.1-0.2H145c-0.1,0.1-0.2,0.1-0.3,0.2c-0.1-0.2-0.1-0.4,0.1-0.5c0,0,0.1,0,0.1-0.1
			c0.6-0.2,1.2-0.5,1.8-0.8C146.5,83.3,146.6,83.4,146.8,83.5z"/>
		<path class="st0" d="M220.6,202.2c0,0.2-0.1,0.4-0.2,0.6c0,0.1,0,0.3,0.1,0.4c-0.5,0.4-1,0.7-1.6,0.9c-4.1,2.3-8.5,4.1-13.1,5.3
			c-1.6,0.4-3.2,0.8-4.7,1.2c-1.3,0.3-2.5,1.1-3.7,0.5c0-0.1,0-0.2-0.1-0.2l-0.3-0.3h0.1c3.4,1,9.8-2,13-3.2
			C213.7,205.9,217.5,204.4,220.6,202.2z M220.2,124.1h0.2c-2.3,2.8-4.9,5.4-7.9,7.5H212c-0.3-0.1-0.8,0.3-0.5,0.6
			c-0.9,0.6-1.9,1.2-2.9,1.6c0-0.1-0.1-0.1-0.1-0.2c0.3,0.1,0.5-0.1,0.6-0.3v-0.2c3.9-2.7,7.5-5.8,10.6-9.3
			C219.9,124.1,220,124.2,220.2,124.1L220.2,124.1z M220.3,123.3c-0.1,0.2-0.3,0.3-0.5,0.5c0-0.2,0.1-0.4,0.3-0.4
			C220.2,123.4,220.2,123.4,220.3,123.3z M219.7,137.7v0.1c-0.2,0-0.4-0.2-0.4-0.4c0-0.1,0-0.2,0.1-0.2c0.1-0.1,0.1-0.2,0.2-0.3
			C219.6,137.1,219.6,137.4,219.7,137.7L219.7,137.7z"/>
		<path class="st0" d="M218.2,134.8l0.3-0.3c0.5,0.7,0.8,1.5,1,2.4c-0.1,0.1-0.1,0.2-0.2,0.3c-0.1,0.2-0.1,0.5,0.1,0.6
			c0.1,0,0.2,0.1,0.2,0.1c0,0.2-0.2,0.5-0.4,0.5s-0.3-0.1-0.4-0.2c-0.5-0.9-0.9-1.9-0.9-2.9L218.2,134.8L218.2,134.8z"/>
		<path class="st0" d="M218.3,134.3c-0.2-0.1-0.4,0-0.4,0.2v0.1c-2.2,1.8-3.4,4.4-5.6,6.2c0-0.2,0-0.5-0.1-0.7
			c2.2-2.1,3.6-5.2,6.5-6.4c0.1,0,0.2,0,0.3,0.2v0.2l-0.3,0.3C218.5,134.4,218.4,134.3,218.3,134.3z"/>
		<path class="st0" d="M218.2,134.8l-0.3,0.4c0-0.2,0-0.3-0.1-0.5v-0.1c0.1-0.1,0.3-0.2,0.4-0.3c0.1,0,0.2,0.1,0.2,0.2L218.2,134.8
			L218.2,134.8z"/>
		<path class="st0" d="M218.3,134.3c-0.2,0.1-0.3,0.2-0.4,0.3C217.9,134.4,218,134.3,218.3,134.3L218.3,134.3L218.3,134.3z
			 M217.8,134.7c0,0.2,0,0.3,0.1,0.5c-1.9,2.2-3.6,4.7-5.8,6.5c-0.2,0.2-0.6,0.2-0.8,0c-0.1-0.1-0.2-0.2-0.2-0.3
			c-0.1-0.6-0.2-1.3-0.3-1.9c-0.2-1.8-0.3-2.2-1.9-1.3c-0.9,0.5-1.8,0.9-2.8,1.3c0.1-0.2,0.2-0.3,0.3-0.5c1.5-0.6,2.9-1.7,4.5-2.1
			c0.3,1.2,0.5,2.5,0.7,3.8l-0.2,0.2c0.1,0,0.2,0.1,0.2,0.1c0,0.1,0,0.3,0.1,0.4c0.1-0.1,0.2-0.1,0.3-0.2c0.1,0,0.1,0.1,0.2,0.1
			c0-0.1,0-0.2-0.1-0.2C214.4,139.1,215.6,136.4,217.8,134.7L217.8,134.7z M211.9,110.9c0.6,0.3,1.3,0.6,1.9,0.9
			c-0.5,0.1-1,0.1-1.4,0h-0.1l-1.3-0.5l-0.3-0.3c-0.1-0.2-0.1-0.4,0-0.5C211.1,110.5,211.5,110.7,211.9,110.9L211.9,110.9z
			 M212,132.1c-0.1,0.1-0.3,0.2-0.4,0.2c-0.3-0.4,0.1-0.7,0.5-0.6h0.5L212,132.1L212,132.1z M211.7,69.9c0.3,0.1,0.6,0.3,0.9,0.4
			c-0.4,0-0.9,0.1-1.3,0.2l-1-0.5c0-0.1,0.1-0.2,0.3-0.3h0.4L211.7,69.9L211.7,69.9z"/>
		<path class="st0" d="M211,111.2l1.3,0.5C211.8,111.8,211.4,111.6,211,111.2z M212.2,140.8v0.2c-0.1,0-0.2-0.1-0.2-0.1
			C212.1,141,212.1,140.9,212.2,140.8L212.2,140.8z"/>
		<path class="st0" d="M212.1,140.1c0,0.2,0.1,0.5,0.1,0.7c0,0.1-0.1,0.1-0.2,0.1s-0.3-0.1-0.4-0.1v-0.3
			C211.8,140.4,212,140.3,212.1,140.1L212.1,140.1z"/>
		<path class="st0" d="M212.1,140.1c-0.1,0.2-0.3,0.3-0.5,0.4c-0.1-1.3-0.4-2.5-0.7-3.8c-1.5,0.5-2.9,1.5-4.5,2.1
			c0.2-0.2,0.3-0.5,0.4-0.7c1.3-0.7,2.6-1.3,3.9-1.9c0.2-0.1,0.5,0.1,0.6,0.3C211.7,137.8,212,139,212.1,140.1L212.1,140.1z
			 M212,141l-0.3,0.3c0-0.1,0-0.3-0.1-0.4C211.8,140.9,211.9,141,212,141L212,141z M211.6,140.6v0.3c-0.1,0-0.1-0.1-0.2-0.1
			L211.6,140.6z M211.3,70.5l-0.5,0.1c-0.2,0-0.5-0.1-0.5-0.3V70L211.3,70.5z"/>
		<path class="st0" d="M211,69.7c-0.2,0-0.3,0.1-0.5,0.1c-0.1,0-0.3,0.1-0.3,0.3c-6.8-3.4-14.4-5.1-22-5c-3.1,0-6.2,0.1-9.4,0.4
			c-12.5,1.3-24,7.6-31.8,17.5l-0.6,0.2c-0.1-0.1-0.1-0.2,0-0.3c12.3-16.1,35.3-22.4,54.5-16.9C204.4,66.9,207.8,68.2,211,69.7z
			 M210.7,110.9l0.3,0.3c-2.4-1.1-5-1.8-7.6-2.2c-2.5-0.3-5-0.5-7.6-0.5v-0.1c0-0.1-0.2,0-0.2,0.1c-3.4-0.1-6.7,0.3-10,1.2
			c0-0.1-0.1-0.3-0.2-0.4c7-2.2,15.6-2.4,22.4-0.1c1,0.4,2,0.7,3,1.2C210.6,110.5,210.6,110.7,210.7,110.9L210.7,110.9z
			 M209.2,133.1c0.1,0.3-0.1,0.5-0.3,0.6h-0.3l-0.1-0.1C208.7,133.5,208.9,133.3,209.2,133.1z M208.6,132.9l0.4-0.4l0.1,0.5
			c-0.3,0.2-0.5,0.4-0.8,0.5c-0.1-0.1-0.2-0.2-0.2-0.3C208.3,133.2,208.5,133.1,208.6,132.9z"/>
		<path class="st0" d="M209.1,132.6c-0.2,0.1-0.3,0.2-0.4,0.4c-0.4-2.4-1.7-4.8-2.4-7.2c0-0.1,0.1-0.2,0.1-0.3
			C207.4,127.7,208.3,130.1,209.1,132.6L209.1,132.6z M208.5,134.1h0.3c0.1,0.1,0,0.3-0.1,0.4h-0.1
			C208.6,134.3,208.5,134.2,208.5,134.1L208.5,134.1z M208.8,133.9h-0.3c-0.1-0.1-0.2-0.2-0.3-0.2v-0.1l0.4-0.1h0.2
			C208.7,133.7,208.8,133.8,208.8,133.9L208.8,133.9z"/>
		<path class="st0" d="M208.6,132.9l-0.4,0.4c-0.3-2.4-1.6-4.6-2.1-7c0.1-0.2,0.1-0.3,0.2-0.5C206.9,128.2,208.2,130.5,208.6,132.9z
			 M208.4,133.7l-0.4,0.2c-0.1-0.1,0-0.3,0.1-0.4h0.1L208.4,133.7L208.4,133.7z M208,134.5l-0.6,0.2c0-0.1,0.1-0.2,0.1-0.3
			c0.4-0.1,0.7-0.2,1-0.4v0.3L208,134.5z"/>
		<path class="st0" d="M208.4,134c-0.3,0.2-0.6,0.3-1,0.4c0-0.1,0.1-0.2,0.1-0.3c0.1-0.2,0.3-0.3,0.5-0.3
			C208.2,133.9,208.3,134,208.4,134L208.4,134z M208,134.5l0.5-0.2c-0.2,1.4-0.8,2.7-1.5,3.8c-0.4,0.2-0.7,0.4-1,0.5
			C206.9,137.5,207.6,136.1,208,134.5z"/>
		<path class="st0" d="M208.1,133.9c0.1,0,0.2,0.1,0.3,0.2C208.3,134,208.2,134,208.1,133.9z"/>
		<path class="st5" d="M208.2,133.3c-0.2,0.1-0.2,0.3-0.1,0.4c-7.4,1.5-16,0.6-23.6,1c-8.7,0.5-17.5,0.8-26.2,1.4H158
			c-4.7-0.6-8.8-1.6-12.4-5c-2.7-2.5,3.3-9.9,5.1-11.5c0.2-0.2,0.2-0.6,0.1-0.8h-0.1c0.2,0,0.3-0.2,0.3-0.4
			c-0.2-1.6-0.5-3.2-0.7-4.8c-0.1-0.9-0.1-1.9-0.1-2.8c0.1-0.5,0.1-1,0.1-1.6c0.1,0,0.3,0.1,0.4,0.1c4.4,1,7.5,4.8,11.7,6.1
			c2.6,1,5.4,1,8,0c4.6-2,10.5-2.2,14.6-5c3.4-0.8,6.9-1.3,10.5-1.3c0.9,7.4,2.9,17.7,8.1,23.1c0.1,0.1,0.4,0,0.3-0.2
			s-0.1-0.3-0.2-0.5c0.6-0.9,1-2,1.4-3c0.4-0.7,0.7-1.5,1-2.3C206.6,128.7,207.9,130.8,208.2,133.3L208.2,133.3z M190.1,123.9
			c0.5-1.6,0.8-3.4,0.7-5.1c-0.1-1.2-1.1-4.3-3-3.3c-2.5,1.4-3.7,10.1,0,10.6c-0.1,0.3,0.2,0.6,0.5,0.7c0.1,0,0.3,0,0.4-0.1
			C189.5,126.1,189.8,124.8,190.1,123.9L190.1,123.9z M158.9,125.7c1.4-1.6,1.5-3.8,1.4-5.8c-0.1-1.3-0.4-4.3-2.3-4.4
			c-4-0.3-2.9,8.2-0.5,9.6c0.1,0.3,0.4,0.6,0.7,0.7C158.4,125.9,158.7,125.9,158.9,125.7L158.9,125.7z"/>
		<path class="st0" d="M208.1,133.8c-0.2,0-0.4,0.2-0.5,0.4c0,0.1-0.1,0.2-0.1,0.3c-0.8,0.1-1.6,0.2-2.3,0.1c-2.5,0.1-5,0-7.4,0.2
			l-8.4,0.3c-10.1,0.4-20.4,1.3-30.6,1.4c-0.1-0.1-0.2-0.2-0.4-0.2c8.7-0.7,17.5-1,26.2-1.4C192,134.4,200.6,135.3,208.1,133.8z
			 M205.3,139.7c0.3-0.1,0.6-0.1,0.9-0.2l-0.1,0.3c-1.8,3.2-0.7,6-0.2,9.3c0,0.1,0,0.1-0.1,0.1h-0.4c-1.4-2.1-2.7-5.2-1.7-7.8
			c0.9-2.4,2.7-4.3,3.6-6.6l0.6-0.2c-0.4,1.5-1.2,2.9-2.1,4.2c-0.3,0.1-0.6,0.2-0.9,0.4c-0.2,0.1-0.2,0.2-0.2,0.4
			c0.1,0.2,0.2,0.2,0.4,0.2C205.2,139.7,205.3,139.7,205.3,139.7L205.3,139.7z"/>
		<path class="st0" d="M207.4,134.4c0,0.1-0.1,0.2-0.1,0.3c-3.1,0.8-6.5,0.4-9.7,0.6c-4.4,0.2-8.8,0.3-13.2,0.5
			c-8.5,0.5-17.1,1.3-25.6,0.9c-0.1-0.1-0.1-0.2-0.2-0.2v-0.1c10.2,0,20.4-0.9,30.6-1.4l8.4-0.3c2.5-0.1,5-0.1,7.4-0.2
			C205.9,134.6,206.7,134.6,207.4,134.4L207.4,134.4z M206.9,138.2c-0.1,0.2-0.3,0.5-0.4,0.7c-0.3,0.1-0.7,0.3-1,0.3
			c0.1-0.2,0.2-0.4,0.3-0.5C206.2,138.6,206.6,138.4,206.9,138.2L206.9,138.2z"/>
		<path class="st0" d="M206.5,138.9c-0.1,0.2-0.2,0.3-0.3,0.5c-0.3,0.1-0.6,0.2-0.9,0.2c0.1-0.1,0.2-0.3,0.2-0.4
			C205.9,139.2,206.2,139.1,206.5,138.9z M206,125.3c0,0.1-0.1,0.1-0.1,0.2c-0.6,2-2.1,3.7-2.3,5.8c-0.1-0.3-0.2-0.6-0.3-0.8
			c0.1-0.6,0.3-1.2,0.6-1.8c0.7-1.2,1.3-2.4,1.9-3.7c0-0.2,0.2-0.3,0.4-0.2c0.2,0,0.3,0.2,0.3,0.4v0.3c0-0.1-0.2-0.2-0.3-0.1
			C206.1,125.2,206,125.2,206,125.3L206,125.3z"/>
		<path class="st0" d="M206.2,125.7c0,0.2-0.1,0.3-0.2,0.5c-0.1-0.2-0.1-0.5-0.1-0.7c0-0.1,0-0.2,0.1-0.2c0.1-0.1,0.2-0.1,0.3,0
			C206.3,125.4,206.3,125.5,206.2,125.7z"/>
		<path class="st0" d="M205.9,125.5c0,0.3,0.1,0.5,0.1,0.7c-0.3,0.8-0.6,1.5-1,2.3c-0.3,1-0.8,2.1-1.4,3l-0.1-0.3
			C203.8,129.2,205.4,127.4,205.9,125.5z M205.5,139.3c-0.1,0.1-0.2,0.3-0.2,0.4h-0.1c-0.1,0-0.3,0-0.4-0.2c0-0.2,0-0.3,0.2-0.4
			c0.3-0.1,0.6-0.2,0.9-0.4C205.8,138.9,205.6,139.1,205.5,139.3L205.5,139.3z M205.5,149.1c0.1,0,0.2,0,0.4,0.1
			C205.9,149.3,205.7,149.3,205.5,149.1C205.4,149,205.5,149.2,205.5,149.1z"/>
		<path class="st4" d="M207.3,134.7c-0.9,2.4-2.7,4.2-3.6,6.6c-1,2.5,0.3,5.7,1.7,7.8c-6.5-1.3-13.2-1.8-19.8-1.5
			c-0.2,0-0.3,0.1-0.3,0.3v0.2h-0.2c-2.7,0.4-4.9,1.8-7.3,3.1c-1.4,0.8-2.6,1.8-3.9,2.5s-3.7-2.6-5-3.3c-0.1,0-0.1-0.1-0.2,0
			c-3.6-4.3-7-8.9-10-13.7c8.5,0.4,17.1-0.4,25.6-0.9c4.4-0.3,8.8-0.4,13.2-0.5C200.9,135.2,204.2,135.5,207.3,134.7L207.3,134.7z"
			/>
		<path class="st0" d="M203.4,131.6c0,0.1,0.1,0.1,0.2,0.1l0.1-0.1c0.1,0.2,0.1,0.3,0.2,0.5s-0.2,0.3-0.3,0.2
			c-5.2-5.4-7.2-15.7-8.1-23.1h0.2c0.2,0.6,0.2,1.3,0.4,1.8c0.6,3,1.4,6,2.4,8.9C199.6,124,201.3,127.9,203.4,131.6L203.4,131.6z"/>
		<path class="st0" d="M203.6,131.3l0.1,0.3c0,0.1-0.1,0.1-0.2,0.1l-0.1-0.1c-0.2-0.3-0.2-0.7-0.1-1.1
			C203.4,130.7,203.5,131,203.6,131.3z"/>
		<path class="st0" d="M203.3,130.4c-0.1,0.4,0,0.8,0.1,1.1c-2.1-3.7-3.8-7.6-4.9-11.7c-1-2.9-1.8-5.9-2.4-8.9
			c-0.1-0.6-0.2-1.2-0.4-1.8h0.2c1.4,3.3,2,7.2,3,10.6C200.2,123.4,201.8,126.9,203.3,130.4L203.3,130.4z M196.8,210.7
			c0-0.1,0.1-0.3,0.2-0.3l0.3,0.3c0.1,0.1,0.1,0.2,0.1,0.2c0,0.1,0,0.2-0.1,0.2s-0.2-0.1-0.3-0.1C196.8,211,196.8,210.9,196.8,210.7
			L196.8,210.7z"/>
		<path class="st0" d="M197,211.1c0.1,0,0.2,0.1,0.3,0.1c-0.1,0.1-0.3,0.1-0.4,0c-1.1-0.6-2.1-1.3-3-2.1c0.1-0.1,0.1-0.1,0.1-0.2
			c0.1-0.2,0.1-0.4,0-0.5c0.9,0.8,1.7,1.7,2.7,2.3C196.7,210.9,196.8,211,197,211.1L197,211.1z M197,210.4c-0.1,0-0.2,0.2-0.2,0.3
			c-0.9-0.7-1.8-1.6-2.7-2.3c-0.1-0.2-0.3-0.3-0.5-0.4l-0.3-0.3c-1.9-1.5-3.2-3.4-4.9-5c-0.1-0.1-0.2-0.2-0.3-0.2c0,0,0-0.1-0.1-0.1
			c-1.8-1.6-3.7-3.1-5.4-4.8c-1.2-1.1-2.1-2.8-3.4-3.7c0.1-0.1,0.2-0.2,0.2-0.3c1.4,1,2.3,2.4,3.6,3.6c1.6,1.5,3.2,2.8,4.9,4.2
			C191.1,204.2,194,207.4,197,210.4L197,210.4z M195.8,109.2h-0.2c0-0.2,0-0.4-0.1-0.6h0.3c0.1,0.2,0.2,0.4,0.2,0.6H195.8z
			 M195.7,108.5c-0.1,0-0.2,0-0.3,0.1C195.5,108.4,195.6,108.4,195.7,108.5z"/>
		<path class="st0" d="M195.5,108.6c0,0.2,0,0.4,0.1,0.6c-3.5,0-7.1,0.4-10.5,1.3l0.2-0.1c0.2-0.1,0.3-0.4,0.2-0.6
			C188.7,108.8,192.1,108.5,195.5,108.6z M193.4,208.7c-0.2-0.1-0.3-0.3-0.5-0.5c0.1-0.1,0.2-0.1,0.3-0.2c0.1-0.1,0.3-0.1,0.5,0
			l0.5,0.4c0.1,0.2,0.1,0.4,0,0.5c0,0.1-0.1,0.1-0.1,0.2C193.7,209,193.6,208.9,193.4,208.7z"/>
		<path class="st0" d="M193.4,208.7c0.1,0.1,0.3,0.3,0.5,0.4c-0.7,1-2.4,3-3.6,2.1v-0.1c0.3,0.1,0.7,0,0.9-0.3
			C192.1,210.5,192.8,209.3,193.4,208.7L193.4,208.7z M194.1,208.4l-0.5-0.4C193.8,208.1,194,208.2,194.1,208.4z M193.6,208
			c-0.1-0.1-0.3-0.1-0.5,0c-0.1,0.1-0.2,0.1-0.3,0.2c-1.5-1.4-2.8-2.8-4.3-4.2c-0.1-0.5-0.3-1-0.5-1.4c0.1,0.1,0.2,0.1,0.3,0.2
			c1.7,1.6,3,3.5,5,5L193.6,208z"/>
		<path class="st0" d="M192.9,208.2l0.5,0.5c-0.7,0.6-1.4,1.8-2.3,2.1c0.1-0.1,0.1-0.2,0-0.3l-0.3-0.2c0.4-0.3,0.8-0.6,1.1-0.9
			C192.3,208.9,192.6,208.6,192.9,208.2L192.9,208.2z"/>
		<path class="st2" d="M192.9,208.2c-0.4,0.3-0.7,0.7-1,1.1c-0.3,0.4-0.7,0.7-1.1,0.9c-1.6-1.5-1.7-4.1-2.2-6.2
			C190.1,205.4,191.4,206.9,192.9,208.2z"/>
		<path class="st0" d="M190.4,210.6c0.1-0.1,0.2-0.3,0.4-0.4l0.3,0.2c0.1,0.1,0.2,0.2,0.1,0.3v0.1c-0.2,0.3-0.5,0.4-0.9,0.3
			C190.3,211,190.3,210.8,190.4,210.6C190.5,210.6,190.4,210.6,190.4,210.6L190.4,210.6z M190.8,118.8c0.1,1.7-0.2,3.4-0.7,5.1
			c-0.3,0.9-0.6,2.3-1.4,2.8c-0.3,0.1-0.7,0-0.8-0.2c-0.1-0.1-0.1-0.3-0.1-0.4h0.2c0.1,0,0.2,0,0.2-0.1l0.2,0.2
			c1.3-1.5,3.2-8.1,0.9-10c-2.8-2.4-4.9,8.3-1.4,9.6c0,0.1-0.1,0.1-0.1,0.2c-3.7-0.5-2.5-9.1,0-10.6
			C189.7,114.4,190.8,117.5,190.8,118.8L190.8,118.8z"/>
		<path class="st0" d="M190.8,210.2c-0.1,0.1-0.3,0.2-0.4,0.4c-1.5-0.7-2-5.1-2.4-7.2c0.2,0.2,0.4,0.3,0.6,0.5
			C189.2,206.2,189.2,208.8,190.8,210.2L190.8,210.2z"/>
		<path class="st0" d="M190.4,210.6l-0.1,0.1c-0.1,0.1-0.1,0.3-0.1,0.4c-0.9-0.3-1.6-2-1.8-2.6c-0.4-1.8-0.7-3.6-0.8-5.5l0.2,0.2
			l0.1,0.1C188.4,205.4,189,209.9,190.4,210.6L190.4,210.6z M189.3,116.1c2.3,1.9,0.4,8.5-0.9,10l-0.2-0.2c0.1-0.1,0.1-0.3,0-0.4
			l-0.1-0.1c0.3-0.5,0.6-1,0.8-1.5c0.4-1,0.7-2,0.9-3c0.3-1.2,0.3-2.4-0.1-3.6c-0.4-1-1.3-1.6-2-0.5c-1.4,2.4-1.8,6.6,0.4,8.6
			c-0.1,0.1-0.1,0.2-0.1,0.3C184.4,124.4,186.5,113.7,189.3,116.1L189.3,116.1z"/>
		<path class="st0" d="M189.6,117.3c0.4,1.2,0.4,2.4,0.1,3.6c-0.2,1-0.5,2-0.9,3c-0.2,0.5-0.5,1-0.8,1.5c-2.2-2-1.8-6.2-0.4-8.6
			C188.3,115.7,189.2,116.3,189.6,117.3L189.6,117.3z M188,203.4l-0.1-0.1l-0.2-0.2v-0.4c0-0.2,0.2-0.3,0.4-0.2l0.1,0.1
			c0.2,0.5,0.4,0.9,0.5,1.4C188.4,203.8,188.2,203.6,188,203.4z M188.2,125.6c0.1,0.1,0.1,0.3,0,0.4l-0.2-0.2h-0.1
			c0-0.1,0.1-0.2,0.1-0.3C188.1,125.5,188.1,125.5,188.2,125.6z"/>
		<path class="st0" d="M188,125.8l0.2,0.2c-0.1,0-0.1,0.1-0.2,0.1h-0.2C187.8,126,187.9,125.9,188,125.8z M188,202.4
			c-0.1-0.1-0.4,0-0.4,0.2v0.4c-2.4-2.2-4.6-4.5-6.8-6.8l0.1-0.3c0.1-0.3-0.3-0.4-0.5-0.2c-0.5-0.6-1-1.1-1.6-1.7
			c0.1,0,0.1-0.1,0.2-0.1l0.1-0.1c1.3,1,2.2,2.6,3.4,3.7C184.3,199.3,186.2,200.8,188,202.4L188,202.4z M185.8,148.3h-0.1h-0.2
			l-0.1-0.1c0.1-0.1,0.2-0.1,0.3-0.1C185.8,148.2,185.8,148.2,185.8,148.3L185.8,148.3z M179,193.2c0.2-0.2,0.6,0.1,0.4,0.3
			c-0.1-0.1-0.2-0.2-0.3-0.2h-0.2c0.5-4,0.4-8.1,0.9-12.1c0.1-1,0.3-2,0.4-3c0.4-0.2,0.5-0.6,0.4-0.9c0-0.1-0.1-0.1-0.1-0.2
			c0.2-1.7,0.4-3.3,0.7-5c1.1-7.9,3.9-15.4,4.5-23.4v-0.1v-0.2h0.2c0,7.4-2.6,14.4-3.8,21.6c-0.9,5.1-1.6,10.3-2,15.4
			C179.9,187.2,180.4,191.7,179,193.2L179,193.2z M185.6,148.3L185.6,148.3C185.5,148.2,185.6,148.3,185.6,148.3z"/>
		<path class="st0" d="M185.6,148.4c0,0.2,0,0.2-0.1,0.3l-0.2,0.2c0-0.3,0.1-0.5,0.1-0.7v-0.1c0,0,0,0.1,0.1,0.1
			C185.5,148.3,185.6,148.4,185.6,148.4L185.6,148.4z"/>
		<path class="st0" d="M185.5,148.7c0.1-0.1,0.1-0.1,0.1-0.2c-0.6,8-3.4,15.5-4.5,23.4c-0.2,1.7-0.5,3.3-0.7,5
			c-0.2-0.2-0.4-0.4-0.6-0.5c0.2-1.5,0.4-3.1,0.6-4.6c0.1-0.5,0.2-1,0.2-1.4l0.2,0.1c0.2,0,0.3,0,0.4-0.2c0-0.1,0-0.3-0.1-0.4
			l-0.4-0.2c1.2-7,3.1-13.8,4.4-20.7C185.3,148.9,185.4,148.8,185.5,148.7L185.5,148.7z M185.5,109.7c0.1,0.2,0,0.5-0.2,0.6
			l-0.2,0.1c-0.7,0.2-1.3,0.3-1.9,0.5c-0.2,0.1-0.4,0-0.4-0.2c0.6-0.2,1.2-0.4,1.7-0.7L185.5,109.7L185.5,109.7z"/>
		<path class="st0" d="M184.4,110c-0.6,0.3-1.1,0.5-1.7,0.7c-0.1-0.2,0-0.4,0.2-0.5h0.1c0.8-0.3,1.6-0.6,2.4-0.8
			c0.1,0.1,0.2,0.2,0.2,0.4C185.6,109.8,184.4,110,184.4,110z M169.3,151.1C169.3,151,169.3,151,169.3,151.1
			c-0.1-0.2-0.3-0.4-0.4-0.6c0.1-0.1,0.1,0,0.2,0c1.2,0.7,3.6,4,5,3.3s2.6-1.8,4-2.5c2.4-1.3,4.6-2.8,7.3-3.1h0.2v0.1
			c-0.1,0.3-0.1,0.5-0.1,0.7c-1.4,1.2-3.4,1.7-4.9,2.7c-1.9,1.2-3.8,2.4-5.7,3.4c-2.7,1.4-4.1-1.5-5.5-3.5c0.2,0,0.3-0.2,0.2-0.4
			C169.4,151.1,169.4,151.1,169.3,151.1L169.3,151.1z"/>
		<path class="st0" d="M184.7,109.2c0.2-0.1,0.4,0,0.6,0.1c-0.8,0.2-1.6,0.5-2.4,0.8c-0.2,0.1-0.3,0.3-0.3,0.5v0.1
			c-2.2,0.7-4.5,1-6.7,1.5c-2.9,0.6-5.2,2.5-8,3.1c-5.5,1.2-10.6-4-15.3-5.9c-2.7-0.9-5.4-1.5-8.2-1.8c-0.2-0.1-0.3-0.1-0.5-0.1
			c-1.3-0.2-2.6-0.5-3.8-0.9v-0.4c6.5,0.8,12.1,1.8,17.8,5.2c2.3,1.3,5.6,3.6,8.3,3.2c4.6-0.5,4.2-1.7,7.4-2.8
			C177.3,110.8,181,109.9,184.7,109.2L184.7,109.2z"/>
		<path class="st0" d="M183.1,110.9c0.6-0.2,1.3-0.4,1.9-0.5c-4.1,2.9-10,3.1-14.6,5c-2.6,1-5.4,1-8,0c-4.2-1.3-7.4-5-11.7-6.1
			c-0.1,0-0.3-0.1-0.4-0.1c0-0.1,0-0.3-0.1-0.4c0-0.1-0.1-0.1-0.2-0.1c-0.1,0.1-0.2,0.2-0.3,0.4c-1.7-0.4-3.4-0.6-5-0.9V108
			c0-0.2-0.1-0.3-0.2-0.4c2.8,0.3,5.6,0.9,8.3,1.8c4.7,1.9,9.8,7.1,15.3,5.9c2.7-0.6,5.1-2.5,8-3.1c2.2-0.5,4.5-0.8,6.7-1.5
			C182.8,110.8,183,110.9,183.1,110.9z M180.7,170v-0.3l0.4,0.2c0.1,0.1,0.2,0.3,0.1,0.4c-0.1,0.1-0.2,0.2-0.3,0.1l-0.2-0.1V170
			L180.7,170z"/>
		<path class="st2" d="M180.5,151.6c1.5-1,3.4-1.4,4.8-2.6c-1.3,7-3.2,13.8-4.4,20.7c-3.1-1.6-5.6-2.6-9.1-2
			c-2.8,0.5-5.6,1.3-8.3,2.4c-0.3-0.8-0.4-1.6-0.5-2.4h0.1c0.2-0.3,0.2-0.6-0.1-0.9c0.1-2.6,0.3-5.1,0.7-7.7
			c0.1-1.1,0.3-2.2,0.4-3.3c0.9-2,2.3-3.7,3.9-5.2l1,0.9c0.1,0.1,0.2,0.1,0.3,0.1c1.4,2,2.8,4.8,5.5,3.5
			C176.7,154,178.6,152.8,180.5,151.6L180.5,151.6z"/>
		<path class="st0" d="M180.6,196l-0.2-0.2c0.2-0.2,0.5-0.1,0.5,0.2l-0.1,0.3L180.6,196z"/>
		<path class="st0" d="M180.6,196l0.2,0.2c-1.5,4.9-0.4,10.6-3,15.1c-0.1,0.2-0.4,0.3-0.7,0.2c-0.1,0-0.1-0.1-0.2-0.2l-0.4-0.5
			l0.2,0.1c0.1,0.1,0.2,0.1,0.2,0v-0.1c0.1,0.1,0.2,0.2,0.3,0.2c0.1-0.1,0.1-0.2,0.1-0.4h0.1v-0.1c1.4-3,1.4-6.7,1.7-9.9
			c0.1-1,0.6-1.8,0.7-2.7C180.1,197.4,180.3,196.6,180.6,196L180.6,196z M180.8,169.7v0.3c-1.9-0.6-3.5-1.9-5.7-2
			c-2.2,0-4.4,0.4-6.4,1.2c-1.6,0.6-3.5,1-5.3,1.5c0.1-0.1,0.1-0.2,0.1-0.3l-0.1-0.2c2.7-1.1,5.5-1.9,8.3-2.4
			C175.2,167.1,177.7,168.1,180.8,169.7L180.8,169.7z"/>
		<path class="st0" d="M180.7,170c0,0.1,0,0.2-0.1,0.3c-1.5-0.4-3-1.4-4.4-1.7c-2.7-0.5-5,0.3-7.5,1c-3,1-6.5,1.4-9.2,3.3l-0.1-0.4
			l-0.1-0.1c1.2-0.8,2.4-1.4,3.8-1.8c0.1,0,0.2,0,0.3-0.1c1.8-0.6,3.7-1,5.3-1.5c2-0.8,4.2-1.2,6.4-1.1
			C177.2,168.1,178.8,169.4,180.7,170z"/>
		<path class="st6" d="M180.6,170.4c-0.1,0.5-0.1,0.9-0.2,1.4c-0.2,1.5-0.4,3.1-0.6,4.6c-5.7-4.8-11.1,0.1-17.2,2.1
			c-0.6-0.8-1.2-1.6-1.7-2.4c-0.5-1-0.9-2-1.3-3.1c2.6-1.9,6.1-2.3,9.2-3.3c2.5-0.8,4.8-1.5,7.5-1
			C177.7,168.9,179.2,169.9,180.6,170.4z"/>
		<path class="st0" d="M180.4,195.8l0.2,0.2c-0.3,0.6-0.5,1.3-0.6,2c-0.1,0.9-0.7,1.8-0.7,2.7c-0.3,3.2-0.3,6.9-1.7,9.9
			c-0.1-0.1-0.3-0.2-0.4-0.4c1.1-3.9,0.8-8.5,2.2-12.4c0.2-0.1,0.4-0.1,0.5-0.3c0.2-0.1,0.2-0.3,0.1-0.5c0-0.1-0.1-0.1-0.2-0.1
			C180,196.6,180.2,196.2,180.4,195.8L180.4,195.8z M180.4,177c0.3,0.3,0.3,0.7,0,1c-0.1,0.1-0.1,0.1-0.2,0.1
			C180.2,177.7,180.3,177.4,180.4,177z"/>
		<path class="st2" d="M178.9,194.1c0.5,0.6,1,1.1,1.6,1.7c-0.3,0.4-0.5,0.8-0.7,1.3c-1.4-0.4-3.2,0-4.7,0c-2.1,0.2-4.2,0.6-6.2,1.2
			c-0.3-0.5-0.5-1-0.7-1.5c-1.8-3.8-3.1-7.8-3.8-11.9c0.2-0.2,0.1-0.6-0.1-0.7c-0.2-1.6-0.4-3.3-0.6-5c1.5-0.1,2.9-1.1,4.3-1.7
			c4.2-1.7,7.7-3.2,11.5,0.5c0.1,0.1,0.1,0.1,0.2,0.1c-0.5,5.2-0.8,10.3-1.1,15.5v0.2C178.5,194.1,178.7,194.2,178.9,194.1
			L178.9,194.1z"/>
		<path class="st0" d="M179.7,177.3c0-0.3,0.1-0.6,0.1-0.8c0.2,0.1,0.4,0.3,0.6,0.5c-0.1,0.4-0.1,0.8-0.2,1.2
			c-0.2,0.1-0.4,0.1-0.6,0C179.6,177.9,179.7,177.6,179.7,177.3L179.7,177.3z"/>
		<path class="st0" d="M180.2,178.1c-0.1,1-0.3,2-0.4,3c-0.5,4-0.4,8.1-0.9,12.1c-0.2,0-0.3,0.2-0.3,0.4c0.3-5.2,0.5-10.4,1.1-15.5
			C179.8,178.2,180,178.2,180.2,178.1L180.2,178.1z M179.6,197.4c0-0.1,0.1-0.2,0.1-0.3c0.2,0.1,0.3,0.2,0.2,0.4
			c0,0.1-0.1,0.1-0.1,0.2c-0.2,0.1-0.3,0.2-0.5,0.3L179.6,197.4L179.6,197.4z M179.8,176.4c0,0.3-0.1,0.6-0.1,0.8
			c-1.9-2-4.7-2.9-7.4-2.2c-2,0.6-3.8,1.6-5.6,2.4c-0.9,0.4-2.1,1.1-3.1,1.4c-0.1-0.2-0.4-0.3-0.6-0.1l-0.1,0.1l-0.2-0.3
			C168.7,176.5,174.1,171.7,179.8,176.4L179.8,176.4z"/>
		<path class="st0" d="M179.8,197.1c-0.1,0.1-0.1,0.2-0.1,0.3c-1.5,0.2-3.1,0.3-4.6,0.3c-2,0.3-4,0.6-6,1.1
			c-0.1-0.2-0.2-0.3-0.2-0.5c2-0.6,4.1-1,6.2-1.2C176.5,197,178.4,196.7,179.8,197.1L179.8,197.1z M179.7,177.2
			c0,0.3-0.1,0.6-0.1,0.8c-0.1,0-0.2-0.1-0.2-0.1c-3.8-3.7-7.2-2.2-11.5-0.5c-1.4,0.6-2.9,1.5-4.3,1.7v-0.2c0-0.1,0-0.1-0.1-0.2
			c1.1-0.4,2.1-0.9,3.1-1.4c1.9-0.8,3.7-1.7,5.6-2.4C175,174.4,177.8,175.2,179.7,177.2L179.7,177.2z"/>
		<path class="st0" d="M179.6,197.4l-0.2,0.5c-1.3,0.5-3,0.2-4.4,0.3c-2,0.1-3.8,0.7-5.8,1c-0.1-0.1-0.2-0.3-0.2-0.5
			c2-0.5,4-0.8,6-1.1C176.6,197.7,178.1,197.6,179.6,197.4L179.6,197.4z M179,193.7l-0.2,0.2c0-0.2,0-0.4,0.1-0.6
			c0.1,0,0.1,0,0.2,0.1s0.2,0.1,0.3,0.2c-0.1,0.1-0.1,0.2-0.2,0.3C179.1,193.8,179.1,193.7,179,193.7L179,193.7z"/>
		<path class="st0" d="M179,193.7c0.1,0,0.1,0.1,0.2,0.2l-0.1,0.1c0,0.1-0.1,0.1-0.2,0.1l-0.2-0.3c-0.1-0.1-0.1-0.1-0.1-0.2
			c0-0.2,0.2-0.3,0.3-0.4c0,0.2,0,0.4-0.1,0.6C178.9,193.8,178.9,193.7,179,193.7L179,193.7z M178.6,193.9l0.2,0.3
			c-0.2,0-0.4,0-0.4-0.3v-0.2C178.5,193.7,178.6,193.8,178.6,193.9z"/>
		<path class="st2" d="M179.4,197.9c-1.4,3.8-1,8.5-2.2,12.4c-0.1-0.1-0.3-0.1-0.4,0c-3.3-2.6-5.6-7.1-7.6-11.1
			c1.9-0.2,3.8-0.9,5.8-1C176.4,198.1,178.1,198.5,179.4,197.9L179.4,197.9z"/>
		<path class="st0" d="M177.7,210.7l-0.4,0.1c0.1-0.1,0.1-0.2,0.1-0.3l-0.1-0.1c0-0.1,0.1-0.1,0.1-0.2
			C177.4,210.4,177.5,210.6,177.7,210.7L177.7,210.7z M177.6,210.8c0,0.1-0.1,0.2-0.1,0.4c-0.1,0-0.2-0.1-0.3-0.2L177.6,210.8
			L177.6,210.8z M177.1,210.5c0.1,0.1,0.1,0.2,0.1,0.3l-0.1,0.1l-0.1-0.1C177.1,210.7,177.1,210.6,177.1,210.5z M177.2,210.3
			c0,0.1,0,0.2-0.1,0.2c-0.1-0.1-0.2-0.2-0.3-0.2C177,210.2,177.1,210.2,177.2,210.3L177.2,210.3z"/>
		<path class="st0" d="M177.1,210.8l0.1,0.1L177,211C177,210.9,177.1,210.9,177.1,210.8L177.1,210.8z"/>
		<path class="st0" d="M177.1,210.8c0,0.1,0,0.1-0.1,0.2L177.1,210.8c0.1,0.2,0,0.2-0.1,0.2l-0.1-0.1l-0.2-0.1v-0.2
			c0-0.1,0.1-0.2,0.2-0.3c0.1,0.1,0.2,0.1,0.3,0.2C177.2,210.6,177.1,210.7,177.1,210.8L177.1,210.8z M176.6,210.6v0.2
			c-5.1-3.3-8-10-10.4-15.4c-1.4-3.3-2.4-6.8-3-10.3l0.1,0.1c0.1,0.1,0.3,0.1,0.4,0.1c0.8,4.6,2.3,9.1,4.5,13.2
			c-0.2,0.3,0,0.9,0.4,0.8c0.2,0.5,0.5,1,0.8,1.6c1.1,2,2.5,3.9,3.6,5.8C173.9,208.3,175.1,209.6,176.6,210.6L176.6,210.6z"/>
		<path class="st0" d="M176.9,210.3c-0.1,0-0.2,0.1-0.2,0.3c-1.5-1-2.7-2.3-3.5-3.9c-1.1-2-2.4-3.8-3.6-5.8
			c-0.3-0.5-0.6-1.1-0.8-1.6c0.2,0,0.4,0,0.5-0.1C171.2,203.2,173.6,207.8,176.9,210.3z M169.3,151c0.1,0.2,0.1,0.4,0,0.5l-0.1,0.1
			c-0.2-0.2-0.3-0.5-0.5-0.7c-0.1-0.1-0.1-0.3,0-0.4c0,0,0.1-0.1,0.2-0.1C169,150.7,169.1,150.8,169.3,151L169.3,151z"/>
		<path class="st0" d="M169,198.8c0.1,0.2,0.1,0.3,0.2,0.5c-0.2,0-0.4,0.1-0.5,0.1c-0.2-0.3-0.3-0.5-0.4-0.8
			c0.1-0.1,0.2-0.2,0.3-0.2h0.2C168.8,198.5,168.9,198.6,169,198.8z M169.2,151.6c-0.1,0.1-0.2,0.1-0.3,0c-0.3-0.3-0.7-0.6-1-0.9
			c0-0.1,0.1-0.1,0.2-0.2l0.1-0.1l0.6,0.6C168.9,151.2,169,151.4,169.2,151.6L169.2,151.6z"/>
		<path class="st0" d="M168.1,196.8c0.2,0.5,0.5,0.9,0.7,1.5h-0.2c-0.1,0-0.2,0.1-0.3,0.2c-2.2-4.2-3.7-8.6-4.5-13.2
			c0.2,0,0.4-0.2,0.5-0.4C164.9,189,166.2,193,168.1,196.8z M168.9,150.5c-0.1,0-0.2,0.1-0.2,0.3c0,0.1,0,0.1,0.1,0.2l-0.6-0.6
			c0.3-0.4-0.2-0.8-0.7-0.7c-0.8-0.9-1.6-1.7-2.4-2.6v-0.3c0-0.2-0.2-0.4-0.5-0.4h-0.2c-2.4-2.8-4.4-6-6-9.3
			c0.1-0.1,0.1-0.1,0.1-0.2h0.4C161.9,141.5,165.2,146.1,168.9,150.5L168.9,150.5z M168.3,198.5c0.1,0.3,0.3,0.5,0.4,0.8
			C168.3,199.3,168.1,198.8,168.3,198.5z"/>
		<path class="st0" d="M167.4,149.6c0.4-0.1,0.9,0.3,0.7,0.7C167.9,150.1,167.7,149.8,167.4,149.6z M167.4,150.3l-0.4-0.4l0.2-0.2
			c0.1-0.1,0.1-0.1,0.2-0.1l0.7,0.7c0,0.1-0.1,0.1-0.1,0.1c-0.1,0-0.1,0.1-0.2,0.2C167.6,150.5,167.5,150.4,167.4,150.3z"/>
		<path class="st0" d="M167.4,150.3l0.4,0.4c-1.6,1.5-3,3.2-3.9,5.2c0.1-0.5,0.1-1,0.2-1.4C165,152.8,166.1,151.4,167.4,150.3z
			 M167.4,149.6c-0.1,0-0.2,0-0.2,0.1l-0.2,0.2c-0.7-0.6-1.4-1.3-2.1-2c0-0.3,0.1-0.6,0.1-1L167.4,149.6z"/>
		<path class="st0" d="M167,149.9l0.4,0.4c-1.3,1.2-2.4,2.6-3.3,4.1c0.1-0.5,0.1-0.9,0.2-1.4C165.1,151.8,166,150.8,167,149.9
			L167,149.9z"/>
		<path class="st2" d="M164.9,147.9c0.7,0.7,1.4,1.4,2.1,2c-1,0.9-1.9,1.9-2.7,3.1C164.6,151.3,164.8,149.7,164.9,147.9L164.9,147.9
			z"/>
		<path class="st0" d="M164.4,146.3c0.2-0.1,0.5-0.1,0.6,0.1c0,0.1,0.1,0.1,0.1,0.2v0.4L164.4,146.3L164.4,146.3z M164.5,147.5
			l-0.4-0.4c0-0.2,0.1-0.4,0.1-0.5s0.1-0.2,0.2-0.3l0.6,0.7c0,0.3-0.1,0.7-0.1,1C164.8,147.8,164.7,147.7,164.5,147.5L164.5,147.5z"
			/>
		<path class="st0" d="M164.5,147.5c0.1,0.2,0.3,0.3,0.4,0.4c-0.1,1.7-0.4,3.4-0.6,5.1c-0.3,0.4-0.5,0.8-0.7,1.2
			C163.9,152,164.3,149.7,164.5,147.5L164.5,147.5z"/>
		<path class="st0" d="M164.1,147.1l0.4,0.4c-0.3,2.3-0.6,4.5-1,6.7c-0.4,0.7-0.8,1.5-1.2,2.2c-0.2,0.5,0.4,1,0.7,0.8
			c-0.5,3-0.7,6.1-0.6,9.1v0.4c-0.2,0-0.3,0.1-0.4,0.2c-0.1,0.1-0.2,0.2-0.4,0.3C160.6,160.8,163.1,152.7,164.1,147.1L164.1,147.1z
			 M164.2,184.1c0.2,0.2,0.3,0.5,0.1,0.7C164.3,184.7,164.2,184.4,164.2,184.1z"/>
		<path class="st0" d="M164.3,153c-0.1,0.5-0.1,0.9-0.2,1.4c-0.3,0.5-0.5,0.9-0.8,1.3c0.1-0.5,0.1-1,0.2-1.5
			C163.8,153.8,164,153.4,164.3,153z M163.7,184.6c-0.1-0.3-0.1-0.7-0.1-1l0.6,0.6c0,0.2,0.1,0.5,0.1,0.7c-0.1,0.2-0.3,0.4-0.5,0.4
			C163.7,185.1,163.7,184.8,163.7,184.6z M164.4,146.3c-0.1,0.1-0.2,0.1-0.2,0.3s-0.1,0.4-0.1,0.5c-2.7-2.9-4.8-6.3-6.3-9.9h0.2
			c0.2,0,0.3-0.1,0.4-0.2C160,140.3,162,143.4,164.4,146.3L164.4,146.3z M164.2,184.1l-0.6-0.6c-0.2-1.4-0.4-2.9-0.4-4.3h0.4
			C163.7,180.9,163.9,182.5,164.2,184.1L164.2,184.1z"/>
		<path class="st0" d="M164.1,154.4c-0.1,0.5-0.1,1-0.2,1.4c-0.1,0.4-0.3,0.8-0.6,1.1l-0.2,0.2c0-0.5,0.1-0.9,0.2-1.4
			C163.6,155.3,163.8,154.8,164.1,154.4z"/>
		<path class="st2" d="M157.8,137.1c1.5,3.7,3.6,7,6.3,9.9c-1,5.7-3.5,13.8-2.4,20.1c-3.7,3.5-8,6.3-12.6,8.3
			c-4.2,1.9-9,4.6-13.8,4.1c0-0.2-0.1-0.5-0.2-0.7v-0.1c-0.2-7.2-4-14.9-5.3-22.1c-1.6-8.3-4.4-16.4-6.5-24.6
			c-4.2-16.1-7.7-32.4-11.6-48.6c6.8,7.2,12.9,15.9,18.5,23.9c2.4,3.5,5.3,6.1,8.2,9.1c2.4,2.5,4.5,5.4,7.4,7.3
			c-0.3,0.4-0.5,0.7-0.8,1.1c-1.4,1.7-2.5,3.3-2.1,5.5s3.7,3.9,5.4,4.9C151.1,137.1,154.6,137.3,157.8,137.1L157.8,137.1z"/>
		<path class="st0" d="M163.8,185.3c-0.1,0-0.3,0-0.4-0.1l-0.1-0.1c0-0.3-0.1-0.7-0.1-1c0.2,0.2,0.4,0.4,0.6,0.5
			C163.7,184.9,163.7,185.1,163.8,185.3L163.8,185.3z M163.3,157c0.2-0.4,0.4-0.7,0.6-1.1c-0.1,1.1-0.3,2.2-0.4,3.3
			c-0.4,2.5-0.6,5.1-0.7,7.7c-0.1-0.1-0.2-0.1-0.3-0.1v-0.3c-0.1-3.1,0.1-6.1,0.6-9.1L163.3,157L163.3,157z"/>
		<path class="st0" d="M163.6,183.6c0,0.3,0,0.7,0.1,1c-0.2-0.1-0.4-0.3-0.6-0.5l-0.1-1L163.6,183.6z M163.2,179.2h-0.4
			c0.1-0.1,0.1-0.2,0.1-0.3c0.2,0,0.5,0,0.7-0.1c0,0.1,0.1,0.1,0.1,0.2v0.2L163.2,179.2L163.2,179.2z M163.3,155.7
			c-0.1,0.5-0.2,0.9-0.2,1.4c-0.3,0.1-0.6,0-0.7-0.3c-0.1-0.2-0.1-0.3,0-0.5c0.4-0.7,0.8-1.5,1.2-2.2
			C163.5,154.7,163.4,155.2,163.3,155.7z"/>
		<path class="st0" d="M163.6,183.6L163,183c-0.1-1.3-0.2-2.5-0.2-3.8h0.4C163.2,180.7,163.3,182.1,163.6,183.6L163.6,183.6z
			 M163,170.2c0.1-0.1,0.2-0.1,0.3-0.1l0.1,0.2c0,0.1,0,0.3-0.1,0.3s-0.2,0.1-0.3,0.1s-0.2-0.1-0.3-0.1c0-0.1-0.1-0.2-0.1-0.3
			L163,170.2L163,170.2z"/>
		<path class="st0" d="M163.3,170.1c-0.1,0-0.2,0.1-0.3,0.1c-0.3-0.7-0.5-1.4-0.5-2.1c0.1-0.1,0.2-0.3,0.3-0.4
			C162.9,168.5,163.1,169.3,163.3,170.1z M162.8,178.8c0.1-0.2,0.4-0.3,0.6-0.1l0.1,0.1c-0.2,0.1-0.4,0.1-0.7,0.1L162.8,178.8
			C162.8,178.7,162.8,178.8,162.8,178.8L162.8,178.8z M163.1,184.1c0,0.3,0.1,0.7,0.1,1c-1.9-1.3-3.4-3.8-4.7-5.6
			c-1.1-1.6-3-3.7-3.2-5.7l0.5-0.3C155.7,174.7,160.9,182,163.1,184.1L163.1,184.1z"/>
		<path class="st0" d="M162.8,166.8c0.3,0.2,0.3,0.6,0.1,0.9h-0.1V166.8z M163,183l0.1,1.1c-2.2-2.1-7.5-9.5-7.3-10.5
			c0.1,0,0.2-0.1,0.3-0.2c0,0,0,0.1,0.1,0.1c1,1.9,2.2,3.7,3.5,5.4C160.8,180.4,161.8,181.7,163,183L163,183z M163,170.2l-0.3,0.1
			c-0.3-0.5-0.5-1.1-0.6-1.7c0.1-0.2,0.3-0.4,0.5-0.6C162.5,168.9,162.7,169.6,163,170.2L163,170.2z M162.8,170.7
			c0.1,0.1,0.2,0.2,0.3,0.1c-1.3,0.4-2.6,1-3.8,1.8c-0.1,0-0.3,0-0.4,0.2v0.5c-0.4-0.2-0.5-0.8,0-1
			C160.1,171.7,161.3,171.1,162.8,170.7C162.7,170.5,162.8,170.6,162.8,170.7L162.8,170.7z"/>
		<path class="st0" d="M162.9,167.7c-0.1,0.1-0.2,0.3-0.3,0.4c0-0.5,0-1-0.1-1.5c0.1,0,0.2,0,0.3,0.1
			C162.8,167.1,162.8,167.4,162.9,167.7z M162.8,178.9c0,0.1,0,0.3-0.1,0.3L162.8,178.9z M162.8,178.8c0,0.1-0.1,0.1-0.1,0.1v-0.1
			H162.8z"/>
		<path class="st6" d="M162.7,179.2c0,1.3,0.1,2.5,0.2,3.8c-1.2-1.3-2.3-2.7-3.3-4.1c-1.4-1.7-2.5-3.5-3.5-5.4l-0.1-0.1
			c2.2-1.3,4.2-2.9,6-4.8c0.1,0.6,0.4,1.1,0.6,1.7c-1.3,0.5-2.6,1.1-3.8,1.7c-0.3,0.2-0.4,0.5-0.2,0.8c0.1,0.1,0.1,0.2,0.2,0.2
			c0.2,2.1,1.2,5.7,3.4,6.2C162.5,179.3,162.6,179.3,162.7,179.2L162.7,179.2z"/>
		<path class="st0" d="M162.7,178.9v0.3h-0.2c-0.2,0-0.3-0.2-0.3-0.3v-0.1c0-0.1,0.1-0.2,0.2-0.2l0.1-0.1l0.2,0.3
			C162.8,178.8,162.7,178.9,162.7,178.9z"/>
		<path class="st0" d="M162.7,179.2c-0.1,0.1-0.2,0.1-0.3,0.1c-2.2-0.5-3.2-4.1-3.4-6.2c0.1,0.1,0.2,0.1,0.3,0
			c0.5,1.9,1.4,4.5,3,5.6c0,0.2,0.1,0.4,0.2,0.4L162.7,179.2L162.7,179.2L162.7,179.2z"/>
		<path class="st0" d="M162.6,178.5l-0.1,0.1c-0.1,0-0.2,0.1-0.2,0.2c-1.5-1.2-2.5-3.8-3-5.6c0.1,0,0.1,0,0.2-0.1c0,0,0.1,0,0.1-0.1
			c0.4,1,0.8,2.1,1.3,3.1C161.4,176.9,162,177.8,162.6,178.5L162.6,178.5z M161.9,167.9c-0.1-0.3-0.1-0.5-0.2-0.8
			c0.1-0.1,0.2-0.2,0.4-0.3c0.1-0.1,0.3-0.2,0.4-0.2c0,0.4,0,1,0.1,1.5c-0.1,0.2-0.3,0.4-0.5,0.6C162,168.4,161.9,168.2,161.9,167.9
			z"/>
		<path class="st0" d="M161.9,167.9c0.1,0.3,0.1,0.5,0.2,0.8c-1.8,1.9-3.8,3.5-6,4.8c-0.2-0.2-0.5-0.2-0.6,0
			c-0.1,0.1-0.1,0.2-0.1,0.3v0.1c-2.5,1.4-5.1,2.7-7.8,3.8c-3.4,1.5-8.1,4-11.9,2.9c0.2,0,0.4-0.2,0.4-0.4c4,0.6,12-3.5,15.2-5
			C155.2,173.5,158.8,171,161.9,167.9L161.9,167.9z"/>
		<path class="st0" d="M161.7,167.1c0,0.3,0.1,0.5,0.2,0.8c-3,3.1-6.6,5.6-10.6,7.3c-3.2,1.4-11.2,5.6-15.2,5V180
			c0-0.2-0.2-0.4-0.4-0.4c-0.1,0-0.2,0-0.3,0.1v-0.1c4.8,0.5,9.6-2.2,13.8-4.1C153.7,173.4,158,170.6,161.7,167.1L161.7,167.1z
			 M160.2,119.8c0.1,2,0,4.2-1.4,5.8c-0.2,0.2-0.5,0.2-0.7,0.1c-0.3-0.2-0.5-0.4-0.7-0.7c0,0,0.1,0.1,0.2,0.1
			c0.1,0.1,0.2-0.1,0.1-0.2l-0.1-0.1v-0.4c0.2,0.3,0.4,0.6,0.8,0.7c1.9-1.3,1.9-10.4-1.2-9.3c-2.4,0.7-1.3,7.1,0.1,8.8v0.1
			c0,0.1,0.1,0.2,0.1,0.2c-2.5-1.4-3.6-9.8,0.5-9.6C159.8,115.5,160.1,118.5,160.2,119.8L160.2,119.8z"/>
		<path class="st0" d="M157.7,124.5v0.4l-0.3-0.6c0.1-0.2,0.3-0.3,0.5-0.2c0.1,0,0.1,0.1,0.1,0.1c0.7,0.6,0.8-0.3,1-1
			c0.2-0.8,0.3-1.7,0.3-2.6c0-0.8,0-4.8-1.6-4.3c-1.9,0.6-1.3,3.7-1,5.2c0.2,1,0.4,1.9,0.8,2.8c-0.1,0.1-0.1,0.2-0.1,0.3
			c0,0.1,0,0.1,0.1,0.2c-1.5-1.8-2.6-8.1-0.2-8.8c3-1.1,3,8,1.2,9.3C158.1,125.1,157.8,124.8,157.7,124.5z M159.3,173.2
			c-0.1,0.1-0.2,0.1-0.3,0v-0.4c0-0.1,0.1-0.3,0.3-0.2h0.1c0.1,0,0.1,0.1,0.1,0.1l0.1,0.4l-0.1,0.1L159.3,173.2L159.3,173.2z"/>
		<path class="st0" d="M159.2,120.5c0,0.9-0.1,1.7-0.3,2.6c-0.2,0.8-0.3,1.6-1,1c-0.1-0.1-0.4-0.1-0.5,0c0,0-0.1,0-0.1,0.1
			c-0.4-0.9-0.6-1.9-0.8-2.8c-0.3-1.5-0.8-4.6,1-5.2C159.2,115.8,159.2,119.8,159.2,120.5L159.2,120.5z M158.7,136.5
			c0,0.1,0.1,0.2,0.2,0.2h-0.4c0-0.1,0-0.2-0.1-0.3C158.5,136.5,158.6,136.5,158.7,136.5z"/>
		<path class="st0" d="M158.7,136.4h-0.3c0-0.1-0.1-0.2-0.2-0.2h0.1C158.4,136.2,158.6,136.3,158.7,136.4z M157.7,136.7
			c0-0.1,0-0.2,0.1-0.2h0.5c0.1,0.1,0.1,0.2,0.1,0.3C158.2,136.7,157.9,136.7,157.7,136.7L157.7,136.7z"/>
		<path class="st0" d="M158.4,136.9c-0.1,0.1-0.2,0.2-0.4,0.2h-0.1c0-0.1-0.1-0.1-0.1-0.2v-0.2h0.7
			C158.5,136.8,158.4,136.9,158.4,136.9L158.4,136.9z M158.4,136.5h-0.5c0.1-0.1,0.2-0.2,0.3-0.2L158.4,136.5z M158.3,136.2h-0.1
			H158.3z"/>
		<path class="st0" d="M157.8,136.5c-0.1,0-0.1,0.1-0.1,0.2h-0.1c-0.2,0-0.2-0.4,0.1-0.4h0.4C158,136.3,157.9,136.4,157.8,136.5
			L157.8,136.5z"/>
		<path class="st0" d="M147.5,122.6c-0.1-0.3-0.2-0.6-0.3-0.8c0.8-1.1,1.7-2.1,2.7-3c0.1,0,0.1-0.1,0.2-0.1c0.1,0.2,0.3,0.2,0.5,0.2
			c0.2,0.2,0.3,0.6,0.1,0.8h-0.1c-1.8,1.6-7.8,9-5.1,11.5c3.6,3.3,7.6,4.4,12.4,5h0.1h-0.4c-0.1,0-0.2,0.1-0.2,0.2s0,0.1,0.1,0.2
			c-1.5,0-3.1-0.2-4.6-0.4c-3.4-0.7-6.5-2.5-8.8-5.1c-2-2.3,1-5,2.4-6.9c0,0,0-0.1,0.1-0.1c0.1-0.1,0.1-0.2,0.2-0.3
			c0.4,0.1,0.8-0.2,0.8-0.6c0-0.1,0-0.3-0.1-0.4C147.6,122.7,147.6,122.6,147.5,122.6L147.5,122.6z"/>
		<path class="st0" d="M157.8,137.1c-3.3,0.1-6.7,0-9.6-1.8c-1.7-1-4.9-2.8-5.4-4.9s0.7-3.8,2.1-5.5c0.3-0.3,0.5-0.7,0.8-1.1
			c0.1,0.1,0.3,0.2,0.4,0.3c0.1,0.1,0.3,0.1,0.4,0c-1.3,1.9-4.4,4.6-2.4,6.9c2.3,2.6,5.3,4.4,8.8,5.1c1.5,0.3,3.1,0.4,4.6,0.5v0.2
			L157.8,137.1L157.8,137.1z M157.8,124.9c0.1,0.1,0,0.2-0.1,0.2s-0.1-0.1-0.2-0.1c0-0.1-0.1-0.2-0.1-0.2
			C157.5,124.9,157.6,124.9,157.8,124.9l-0.1-0.1C157.7,124.9,157.7,124.9,157.8,124.9L157.8,124.9z"/>
		<path class="st0" d="M157.7,124.8v0.2c-0.1-0.1-0.2-0.2-0.3-0.2v-0.1c0-0.1,0-0.1-0.1-0.2c0-0.1,0-0.2,0.1-0.3L157.7,124.8z
			 M155.8,173.7l-0.5,0.3v-0.1c0-0.3,0.2-0.5,0.5-0.4c0.1,0,0.2,0,0.3,0.1C156.1,173.6,155.9,173.6,155.8,173.7L155.8,173.7z
			 M150,109.3h0.3c0,0.5,0,1-0.1,1.6c0,0.9,0,1.9,0.1,2.8c0.2,1.6,0.5,3.2,0.7,4.8c0,0.2-0.1,0.3-0.3,0.4c-0.1-0.2-0.3-0.2-0.5-0.1
			c-0.8-1.7-1.2-3.6-1.1-5.5c0-1.1-0.1-2.9,0.6-3.9C149.8,109.2,149.9,109.3,150,109.3z"/>
		<path class="st0" d="M150.7,118.9c-0.2,0.1-0.4,0-0.5-0.2C150.4,118.6,150.6,118.7,150.7,118.9z M150,109.3l-0.3-0.1
			c0.1-0.1,0.2-0.3,0.3-0.4s0.1-0.1,0.2,0c0,0.1,0.1,0.3,0.1,0.4C150.2,109.3,150.1,109.3,150,109.3z"/>
		<path class="st3" d="M150.2,118.7c-0.1,0-0.2,0-0.2,0.1c-1.1,0.9-2,1.9-2.7,3c-1.6-4.3-2.5-8.8-2.6-13.4c1.7,0.3,3.4,0.5,5,0.9
			c-0.7,1-0.6,2.8-0.6,3.9C148.9,115,149.3,116.9,150.2,118.7z"/>
		<path class="st0" d="M147.1,82.9l1-0.4l-0.7,0.7l-0.6,0.3l-0.3-0.3C146.5,83.2,147.1,82.9,147.1,82.9z M147.6,122.8
			c0.2,0.3,0,0.8-0.3,0.9c-0.1,0.1-0.3,0.1-0.4,0.1C147.1,123.4,147.4,123.1,147.6,122.8C147.5,122.7,147.6,122.7,147.6,122.8z
			 M146.7,122.5c0.2-0.3,0.4-0.5,0.5-0.8c0.1,0.3,0.2,0.6,0.3,0.8c-0.2,0.4-0.5,0.8-0.7,1.1h-0.2c0-0.1,0-0.1-0.1-0.1l-0.3-0.3
			C146.4,123,146.5,122.8,146.7,122.5z"/>
		<path class="st0" d="M146.8,83.5l0.6-0.3l-0.2,0.2C147.1,83.5,146.9,83.6,146.8,83.5L146.8,83.5z M146.8,123.7
			c-0.1,0.1-0.1,0.2-0.2,0.3v-0.3H146.8z M147.2,121.8c-0.2,0.2-0.4,0.5-0.5,0.8c-1.5-4.3-3.6-9.7-2.6-14.3c0.2,0,0.4,0.1,0.6,0.1
			C144.7,112.9,145.6,117.5,147.2,121.8z"/>
		<path class="st0" d="M146.7,122.5c-0.2,0.3-0.3,0.5-0.5,0.7c-1.6-4.6-4.3-10.3-2.7-15.1c0.2,0.1,0.4,0.1,0.6,0.1
			C143.1,112.8,145.2,118.2,146.7,122.5L146.7,122.5z M145.9,123.7l0.2-0.3c0.1,0.2,0.3,0.3,0.5,0.4v0.3l-0.1,0.1
			c-0.1,0.1-0.3,0.1-0.4,0c-0.1-0.1-0.3-0.2-0.4-0.3L145.9,123.7z M146.5,123.5c0.1,0,0.1,0.1,0.1,0.1c-0.2-0.1-0.4-0.2-0.5-0.4
			C146.3,123.4,146.4,123.5,146.5,123.5z"/>
		<path class="st0" d="M146.2,123.3C146.2,123.2,146.2,123.2,146.2,123.3C146.1,123.3,146.1,123.3,146.2,123.3z M146.1,123.3
			l-0.2,0.3c-0.7-0.5-1.7-1.7-2.2-2.2c-1.7-1.7-3.3-3.5-4.8-5.3c-1.8-2-3.9-3.6-5.6-5.7c-2.5-3.2-4.7-6.7-7.2-10
			c-3-3.8-6.1-7.4-9.1-11.2c-1.7-2.2-3.4-4.8-5.5-6.7c-0.1-0.2-0.1-0.5-0.2-0.8c0.1,0,0.1,0.1,0.2,0.1c6.6,6.1,12.6,14.2,17.7,21.5
			c3.1,4.4,6.8,8.1,10.2,12.3C141.4,118.1,143.5,121.1,146.1,123.3C146.1,123.2,146.1,123.3,146.1,123.3z"/>
		<path class="st0" d="M145.9,123.7c0,0.1-0.1,0.2-0.2,0.2c-2.9-2-5-4.9-7.4-7.3c-2.9-3-5.8-5.7-8.2-9.1c-5.6-8-11.7-16.8-18.5-24
			c-0.1-0.3-0.2-0.7-0.2-1c2.1,2,3.7,4.6,5.5,6.7c3,3.8,6.2,7.4,9.1,11.2c2.6,3.2,4.7,6.7,7.2,10c1.7,2.1,3.8,3.7,5.6,5.7
			c1.5,1.9,3.1,3.7,4.8,5.3C144.2,121.9,145.2,123.1,145.9,123.7L145.9,123.7z M144.7,84.6c-0.1,0-0.2,0-0.2-0.1
			c0.1-0.1,0.2-0.2,0.3-0.2s0.2,0,0.2,0.1v0.1C144.9,84.5,144.8,84.6,144.7,84.6C144.8,84.6,144.8,84.6,144.7,84.6z M144.8,84.6
			c0.1,0,0.2-0.1,0.3-0.1v0.1c-5.7,5.3-5.6,14.6-5,21.8h-0.4C138.3,100.7,139.8,88.2,144.8,84.6L144.8,84.6L144.8,84.6z
			 M144.1,108.2c-0.2,0-0.4-0.1-0.6-0.1v-0.2c0.1-0.2,0.2-0.3,0.4-0.4c0.2,0,0.3,0.1,0.5,0.1c0.1,0.1,0.2,0.3,0.2,0.4v0.3
			C144.4,108.3,144.3,108.3,144.1,108.2L144.1,108.2z"/>
		<path class="st0" d="M144.5,84.5c0.1,0.1,0.1,0.1,0.2,0.1c-5,3.5-6.5,16-5,21.7h-0.1c-0.1,0-0.2,0-0.3,0.1
			C136.9,100.3,138.8,88.2,144.5,84.5L144.5,84.5z M144.4,107.7c-0.2,0-0.3-0.1-0.5-0.1C144.1,107.5,144.3,107.6,144.4,107.7z
			 M143.9,107.5c-0.2,0.1-0.3,0.2-0.4,0.4v0.2c-1.2-0.2-2.5-0.6-3.6-1.1c0.1,0,0.2-0.1,0.2-0.2v-0.2
			C141.4,107.1,142.6,107.4,143.9,107.5z"/>
		<path class="st0" d="M139.8,106.7l0.3,0.1c0,0.1-0.1,0.2-0.2,0.3l-0.1-0.1l-0.2-0.5c0.1-0.1,0.2-0.1,0.3-0.1h0.1
			C139.8,106.4,139.8,106.5,139.8,106.7L139.8,106.7z"/>
		<path class="st0" d="M140.1,106.3v0.4h-0.2c0-0.1-0.1-0.3-0.1-0.4H140.1z M139.7,106.9l0.1,0.1C139.8,107,139.7,107,139.7,106.9z
			 M139.7,106.9l-0.2-0.1c-0.2-0.1-0.2-0.3-0.1-0.5L139.7,106.9z M135.5,180.1h-0.1c0-0.1-0.1-0.3-0.1-0.4c0.2-0.1,0.5-0.1,0.6,0.1
			c0.1,0.1,0.1,0.2,0.1,0.3v0.2C135.8,180.2,135.7,180.2,135.5,180.1L135.5,180.1z"/>
		<path class="st0" d="M135.1,180c0-0.1,0.1-0.3,0.2-0.3c0,0.1,0.1,0.3,0.1,0.4v0.1c0.2,0.2,0.1,0,0.1-0.1c0.2,0.1,0.3,0.1,0.5,0.1
			c0,0.2-0.2,0.4-0.4,0.4l-0.5-0.1c-0.1-0.2-0.3-0.3-0.4-0.5c0-0.2,0.1-0.4,0.3-0.4L135.1,180L135.1,180z"/>
		<path class="st0" d="M135.2,180.5l0.5,0.1h-0.3C135.3,180.6,135.2,180.6,135.2,180.5z M135.5,180.1
			C135.5,180.2,135.6,180.4,135.5,180.1z M135.3,179.5v0.1c-0.1,0.1-0.2,0.2-0.2,0.3v-0.5L135.3,179.5L135.3,179.5z M135.1,180.5
			c-0.2-0.1-0.3-0.3-0.3-0.5C134.9,180.2,135,180.3,135.1,180.5z"/>
		<path class="st0" d="M110.8,81.8c-0.2,0.1-0.3,0.4-0.1,0.6c0,0,0,0.1,0.1,0.1l0.3,0.3c2.4,10.6,5,21.1,7.4,31.7
			c1.5,6.7,3,13.4,4.8,20c1.6,6.1,3.5,12.1,5.1,18.2c1.2,4.7,1.8,9.9,3.3,14.5c1.3,3.8,2.4,7.7,3.5,11.6v0.8c-0.2,0-0.3,0.2-0.3,0.4
			c-0.4-1.3-0.8-2.6-1-4c-1.2-4.2-2.9-8.4-3.9-12.6c-2-8.9-4.4-17.5-6.8-26.3c-5-18.1-8.8-36.7-12.8-55.1c-0.1-0.6,0.8-0.8,0.9-0.2
			V82C111.1,81.7,110.9,81.7,110.8,81.8z"/>
		<path class="st0" d="M135.1,178.8c-1-3.9-2.1-7.8-3.5-11.6c-1.6-4.6-2.1-9.7-3.3-14.5c-1.5-6.1-3.5-12.1-5.1-18.2
			c-1.8-6.6-3.3-13.4-4.8-20c-2.4-10.6-5-21.1-7.4-31.7c0.2,0.2,0.4,0.4,0.6,0.7c4,16.2,7.5,32.5,11.7,48.6
			c2.1,8.2,4.9,16.3,6.5,24.6C131.1,163.8,134.9,171.6,135.1,178.8L135.1,178.8z"/>
		<path class="st0" d="M111.4,82.5c0.1,0.3,0.2,0.7,0.2,1c-0.2-0.2-0.4-0.5-0.7-0.7c-0.1-0.3-0.2-0.7-0.2-1c0.1-0.1,0.3-0.1,0.4,0
			C111.3,82,111.4,82.3,111.4,82.5z"/>
		<path class="st0" d="M111,82.8l-0.3-0.3c-0.2-0.2-0.2-0.4,0-0.6c0,0,0-0.1,0.1-0.1C110.9,82.1,111,82.5,111,82.8z"/>
		<path class="st7" d="M122.8,116.1c-1.5-2.5-4.2-10.5-2.1-12.8c3.2,2.1,4,10.1,3.2,13.4c-0.8,0-0.6-0.4-1-1"/>
		<path class="st8" d="M122.8,116.1c-1.5-2.5-4.2-10.5-2.1-12.8c3.2,2.1,4,10.1,3.2,13.4c-0.8,0-0.6-0.4-1-1"/>
		<path class="st7" d="M123.2,115.9c-0.9-1.9-1.6-3.8-2.1-5.8c-0.3-1.2-0.5-2.4-0.6-3.6c0-0.4-0.1-3.1,0.7-2.3
			c1.8,1.8,2.2,5,2.5,7.4c0.1,1.1,0.1,2.1,0,3.2c-0.1,1.4,0.2,1.5-0.8,0.8c-0.1-0.1-0.2,0-0.3,0v0.1c0,0.9,0.2,1.4,1.1,1.5
			c0.3,0.1,0.5-0.1,0.6-0.3c0.8-4.1,0.3-11-3.3-13.8c-0.1-0.1-0.4-0.1-0.5,0c-2.7,3.3,0,10.1,2,13.2c0.1,0.2,0.4,0.3,0.6,0.1
			S123.3,116.1,123.2,115.9L123.2,115.9z M188.3,160.1c-1-1.9,0.8-10.5,3.6-6.9c1.5,1.9-2.7,6.9-3.4,7.3"/>
		<path class="st8" d="M188.3,160.1c-1-1.9,0.8-10.5,3.6-6.9c1.5,1.9-2.7,6.9-3.4,7.3"/>
		<path class="st7" d="M188.9,160.1c-0.1-1.2-0.1-2.4,0-3.6c0.2-1.1,0.4-2.9,1.5-3.6c0.6-0.4,1.2,0.9,1.2,1.3
			c-0.1,0.8-0.4,1.6-0.9,2.3c-0.7,1.2-1.6,2.3-2.6,3.3c-0.3,0.3-0.3,0.8,0,1.2s0.8,0.3,1.2,0c1.5-1.5,2.6-3.3,3.3-5.3
			c0.5-1.6,0-3.6-2-3.8c-1.6-0.2-2.5,2.4-2.8,3.5c-0.4,1.3-1.1,4.3,0.3,5.2C188.4,160.9,188.8,160.5,188.9,160.1L188.9,160.1z
			 M148.9,88.8c-1,0-0.8-0.8-0.2-2.1c1-1.7,5.9-4,7.8-3.2c4.8,1.9-6.7,5.5-7.6,6.1"/>
		<path class="st8" d="M148.9,88.8c-1,0-0.8-0.8-0.2-2.1c1-1.7,5.9-4,7.8-3.2c4.8,1.9-6.7,5.5-7.6,6.1"/>
		<path class="st7" d="M149.1,88.6c-1.7-1.7,3.8-4,4.8-4.3c0.8-0.2,4.2-0.4,2.6,1c-2.2,1.9-5.3,2.2-7.7,3.6
			c-0.3,0.2-0.4,0.5-0.3,0.8c0.1-0.4,0.1-0.5,0-0.4c-0.2,0.3-0.1,0.6,0.2,0.8c0.1,0,0.2,0.1,0.3,0.1c0.2,0,0.1-0.1-0.3-0.2
			c0.2,0.2,0.5,0.3,0.7,0.2c1.6-0.6,10.7-3.6,8.7-6.4c-1.7-2.3-5.6-0.6-7.5,0.5c-1.3,0.6-2.3,1.7-2.9,3.1c-0.4,1,0.2,2.4,1.4,1.7
			C149.1,88.9,149.2,88.8,149.1,88.6z M174.4,71.6c-2.3-2.3,6.3-5,8.4-3.4c-1.5,2.1-5.2,2.9-7.8,3.2"/>
		<path class="st8" d="M174.4,71.6c-2.3-2.3,6.3-5,8.4-3.4c-1.5,2.1-5.2,2.9-7.8,3.2"/>
		<path class="st7" d="M174.6,71.5c-1.2-2.7,6.4-4,8-2.9c0-0.2-0.1-0.5-0.1-0.7c-1.8,2.2-5,2.5-7.6,2.9c-0.6,0.1-0.5,1.1,0.1,1.1
			c2.9-0.1,6.4-1.1,8.2-3.5c0.1-0.2,0.1-0.5-0.2-0.6c-1.8-1.3-4.9-0.4-6.8,0.4c-1.1,0.5-4,2.2-1.9,3.5
			C174.5,71.8,174.6,71.6,174.6,71.5z"/>
		<path class="st2" d="M161,88.2c-1,2.5-1.6,10.1,0.7,12.8"/>
		<path class="st8" d="M161,88.2c-1,2.5-1.6,10.1,0.7,12.8"/>
		<path class="st2" d="M159.8,88.2c-0.2,1.2-0.4,2.4-0.8,3.5c-0.2,1.4-0.2,2.7-0.2,4.1c0.1,2,0.4,5.2,2.6,5.9
			c0.4,0.1,0.8-0.1,0.9-0.5V101c0-1.9-1-3.8-1-5.8c-0.1-1.3-0.4-5,0.6-6.1C163.6,87.2,159.7,85.9,159.8,88.2z M170.3,86.7
			c1.1,4.2-0.8,9.7,1.3,13.8"/>
		<path class="st8" d="M170.3,86.7c1.1,4.2-0.8,9.7,1.3,13.8"/>
		<path class="st2" d="M169.8,86.4c-0.7,0.9-0.5,1.6-0.5,2.7c0,1.5-0.1,3-0.2,4.4c-0.1,2.5-0.3,5.9,1.8,7.6c0.4,0.4,0.9,0.4,1.3,0
			c0.2-0.2,0.3-0.4,0.2-0.6c-0.1-1.4-0.2-2.8-0.5-4.2c-0.1-1.5-0.1-3,0-4.5c0-1.8,0.4-4.6-1.4-5.6C170.3,86.1,170,86.2,169.8,86.4
			L169.8,86.4z M183.5,87.7c0,2.7-1.3,9.9,0.6,12.6"/>
		<path class="st8" d="M183.5,87.7c0,2.7-1.3,9.9,0.6,12.6"/>
		<path class="st2" d="M182.8,87.1c-1.3,1.5-1.1,5-1.2,6.9c-0.1,2.3-0.4,5.8,2,7.1c0.5,0.2,1.1,0,1.3-0.4c0.1-0.1,0.1-0.2,0.1-0.4
			c0-2.3-0.6-4.6-0.5-7c0-1.8,0.8-4.7-0.4-6.2C183.8,86.7,183.2,86.7,182.8,87.1C182.9,87.1,182.9,87.1,182.8,87.1L182.8,87.1z
			 M171.1,139.8c0,2.9-0.2,6.1,0.8,9"/>
		<path class="st8" d="M171.1,139.8c0,2.9-0.2,6.1,0.8,9"/>
		<path class="st2" d="M170.4,139.6c-0.5,3.1-0.5,6.7,1,9.5c0.4,0.7,1.3,0.2,1.2-0.5c-0.5-3-0.3-6-0.8-9c-0.1-0.4-0.5-0.6-0.9-0.5
			C170.7,139.2,170.5,139.4,170.4,139.6z M178,140.2c-0.1,2.4-0.1,4.8,0.2,7.1"/>
		<path class="st8" d="M178,140.2c-0.1,2.4-0.1,4.8,0.2,7.1"/>
		<path class="st2" d="M177.3,140c-0.5,2.4-0.9,5.5,0.3,7.7c0.2,0.3,0.6,0.5,1,0.3c0.2-0.1,0.3-0.2,0.3-0.4c0.2-1.2,0.2-2.5,0.1-3.8
			c0-1.3-0.1-2.5-0.3-3.8c-0.1-0.4-0.5-0.6-0.9-0.5C177.6,139.6,177.4,139.8,177.3,140L177.3,140z M185.6,140
			c0.4,1.5,0.2,3.8,0.8,5.4"/>
		<path class="st8" d="M185.6,140c0.4,1.5,0.2,3.8,0.8,5.4"/>
		<path class="st2" d="M185,139.7c-0.7,0.9-0.2,2.8-0.2,3.8c0,0.8,0.5,2.8,1.8,2.5c1.1-0.3,0.7-2.1,0.6-2.8c-0.2-1.1,0-3.2-1.2-3.7
			C185.6,139.3,185.2,139.4,185,139.7L185,139.7z"/>
		<path class="st8" d="M193.3,153.4c-0.7,8.3-3.1,16.3-4.9,24.3c-0.9,3.9-2.1,8.3-2,12.4c0.1,2.7,1.9,4.4,3.5,6.5s3.3,4,5,5.9
			s3.3,5,6.2,4.4c3.3-0.7,6.7-3.1,9.7-4.6c1.2-0.6,4.2-1.8,5.1-2.7c1.1-1.2,1.2-4.7,1.5-6.3c1-5,1.8-10,2.2-15
			c0.3-3.3,0.8-6.6,1.5-9.9c0.4-1.6,2.8-6.3,1.8-7.9s-6.8-1.9-8.6-2.2c-2.7-0.6-5.5-0.9-8.2-1.3c-4.3-0.6-8.4-1.6-12.5-2.9"/>
		<path class="st2" d="M192.8,153.2c-1.6,8.8-3.7,17.5-5.8,26.2c-1.4,5.9-3,11.3,1,16.4c2.3,3,4.9,5.8,7.3,8.7
			c1,1.2,2.5,3.4,4.4,3.4c3.1,0,5.5-1.3,8.2-2.7s6.9-2.8,9.1-5c1.1-1.1,1.3-3.1,1.5-4.6c0.5-4.3,1.5-8.6,2.1-12.9
			c0.6-4.1,0.9-8.2,1.6-12.2c0.5-2.8,2.2-5.4,2.4-8.2c0.4-4-3.1-4.4-6.4-5C210,156,202,154.8,194,153c-0.6,0-1.1,0.4-1.1,1
			c0,0.4,0.2,0.8,0.6,1c4.8,1.8,9.8,2.9,14.9,3.5c1.9,0.2,14.3,0.7,13.3,4.8c-2.5,10.1-4,20.3-5.5,30.7c-0.9,6-4.8,6.6-9.6,9.3
			c-4.3,2.4-7.9,1.9-10.8-1.6c-2.4-2.9-5-5.6-7.2-8.6c-3.5-4.6,1.2-16.4,2.4-21.6c1.4-5.9,2.8-11.9,2.9-18
			C193.9,152.7,192.9,152.6,192.8,153.2L192.8,153.2z"/>
		<path class="st8" d="M190.4,174c2.9,0.6,10.1,0.8,14.3,1.7c4.2,0.6,9,2.3,13.2,2.5"/>
		<path class="st2" d="M190.1,175.2c4.2,0.8,8.6,1,12.9,1.6c5,0.7,9.9,2.9,14.9,2.5c0.6,0,1.1-0.5,1.1-1.2c0-0.5-0.3-0.9-0.8-1.1
			c-9.1-2.5-18.2-2.9-27.4-4.3C189.1,172.5,188.4,174.9,190.1,175.2z"/>
		<path class="st8" d="M205.7,157.6c0.1,8.6-0.3,17.2-1.3,25.8c-0.8,5-1,10.1-1.7,15.1c-0.4,2.5-1.5,6.1-1.3,8"/>
		<path class="st2" d="M204.9,157.6c-0.9,9.3-0.7,18.7-2.1,28c-0.5,3.4-0.7,7-1.1,10.4s-1.6,6.9-1.5,10.5c0,0.7,0.6,1.3,1.3,1.3
			s1.3-0.6,1.3-1.3c0.4-7.6,2.1-15.5,3-23.1c1.1-8.6,1.3-17.2,0.7-25.8c0-0.4-0.3-0.8-0.8-0.8C205.3,156.9,205,157.2,204.9,157.6
			C205,157.6,205,157.6,204.9,157.6L204.9,157.6z"/>
		<path class="st8" d="M134,113.8c0,6.9-1.9,14.3-7.1,19.1"/>
		<path class="st6" d="M133.5,113.8c-0.3,6.9-2.8,13.5-7,18.9c-0.2,0.3,0.2,0.7,0.5,0.5c5.8-4.2,7.7-12.7,7.4-19.4
			c0-0.3-0.2-0.5-0.5-0.5C133.7,113.3,133.5,113.5,133.5,113.8z"/>
		<path class="st8" d="M136.3,123.4c-0.8,3.8-1.7,8.2-4.6,10.7"/>
		<path class="st6" d="M135.9,123.3c-0.7,1.8-1,3.7-1.7,5.4c-0.7,1.8-1.7,3.6-2.9,5.2c-0.2,0.3,0.2,0.7,0.5,0.5
			c3.5-2,4.6-7.3,4.8-11c0-0.2-0.2-0.4-0.4-0.4C136.1,123,135.9,123.1,135.9,123.3L135.9,123.3z"/>
		<path class="st8" d="M146.6,135.6c-0.8,8.4-6.7,19.9-13.9,24.8"/>
		<path class="st6" d="M146.1,135.5c-1.6,9.2-6.1,18.6-13.8,24.2c-0.8,0.6,0,2,0.8,1.4c7.8-5.6,13.1-16,13.9-25.4
			C147,135.1,146.2,135,146.1,135.5z"/>
		<path class="st8" d="M157.5,138.3c-4.2,13.6-10.5,24.1-21.2,33.8"/>
		<path class="st6" d="M157,138.2c-5.1,12.9-11.2,23.6-21.3,33.3c-0.8,0.8,0.4,1.9,1.2,1.2c10.3-9,17.7-21,21.1-34.2
			c0.1-0.3-0.1-0.6-0.4-0.6C157.4,137.7,157.1,137.9,157,138.2z"/>
		<path class="st8" d="M153.3,157.4c-1.5,3.4-3.8,7.1-6.9,9.4"/>
		<path class="st6" d="M152.9,157.2c-1.1,1.6-2,3.3-3.1,4.9s-3.1,2.8-3.8,4.5c-0.1,0.2,0,0.6,0.2,0.7h0.4c1.9-0.3,3.3-2.5,4.3-3.9
			c1.3-1.8,2.3-3.8,2.9-5.9c0.1-0.2-0.1-0.5-0.3-0.5C153.2,156.9,153,156.9,152.9,157.2L152.9,157.2z"/>
		<path class="st8" d="M200.7,67.4c-4.6,2.8-8,7.3-9.2,12.6"/>
		<path class="st6" d="M200.5,67.1c-4.5,2.6-8.7,7.5-9.4,12.8c-0.1,0.2,0.1,0.4,0.3,0.5s0.4-0.1,0.5-0.3c2-5.1,4.2-9.4,9-12.4
			c0.2-0.1,0.2-0.3,0.1-0.5C200.8,67,200.6,67,200.5,67.1L200.5,67.1z"/>
		<path class="st8" d="M208.4,70.3c0.2,6.1-1.5,11.5-2.5,17.4"/>
		<path class="st6" d="M208,70.3c-0.3,6-1.9,11.5-2.6,17.4c-0.1,0.5,0.8,0.6,0.9,0.1c1.5-5.6,2.9-11.8,2.5-17.5
			c0-0.2-0.3-0.4-0.5-0.4C208.2,70,208,70.2,208,70.3L208,70.3z"/>
		<path class="st8" d="M217.4,75.6c3.4,6.5,3.4,14.5,2.7,21.6"/>
		<path class="st6" d="M217.1,75.7c3,7.2,2.5,14,2.5,21.5c0,0.6,0.9,0.7,1,0.1c1.2-7.1,0.5-15.5-2.9-21.9
			C217.5,75.1,216.9,75.3,217.1,75.7z"/>
		<path class="st8" d="M169.1,156.7c-0.4,2.3-1.1,5.9,0.2,7.6"/>
		<path class="st6" d="M168.7,156.5c-0.5,2.3-1.6,5.9,0.4,7.8c0.1,0.1,0.5,0,0.4-0.2c-1-2.3-0.4-5.1-0.1-7.5c0-0.2-0.1-0.3-0.3-0.3
			S168.8,156.4,168.7,156.5L168.7,156.5z"/>
		<path class="st8" d="M173.6,159.9c0,1.4,0,2.8,0.2,4.2"/>
		<path class="st6" d="M172.3,159.9c0.1,1.5,0.1,3.3,1.2,4.4c0.1,0.1,0.3,0.1,0.5,0l0.1-0.1c0.8-1.2,0.6-3,0.8-4.3
			C175,158.2,172.2,158.2,172.3,159.9L172.3,159.9z"/>
		<path class="st8" d="M179.3,158.2c0.2,2,0,4.1-0.4,6.1"/>
		<path class="st6" d="M178.3,158.2c0.1,1,0.1,2,0,3c-0.2,1-0.2,2.1,0.1,3.1c0.1,0.2,0.3,0.4,0.5,0.3c0.1,0,0.1-0.1,0.2-0.1
			c1.4-1.5,1.2-4.5,1-6.4C180.1,156.9,178.2,156.9,178.3,158.2L178.3,158.2z"/>
		<path class="st8" d="M167.7,181.7c-0.8,3.4,1.3,9.7,3.2,12.7"/>
		<path class="st6" d="M167.3,181.5c-1.3,4,0.9,9.8,3.2,13.1c0.1,0.2,0.5,0.3,0.7,0.2s0.3-0.5,0.2-0.7c-2.1-3.8-3.2-8.1-3.2-12.4
			c0-0.3-0.2-0.5-0.5-0.5C167.5,181.2,167.3,181.3,167.3,181.5L167.3,181.5z"/>
		<path class="st8" d="M172.8,183.7c0.6,1.9,0.8,3.8,1.7,5.7"/>
		<path class="st6" d="M172,184c0.6,2,0.8,4.2,2.3,5.7c0.1,0.1,0.4,0.2,0.5,0c0.1-0.1,0.1-0.2,0.1-0.2c-0.3-2-0.7-4-1.2-5.9
			c-0.1-0.5-0.6-0.8-1-0.7C172.2,183,171.9,183.5,172,184L172,184L172,184z"/>
	</g>
	<path d="M143.3,37.9c-0.5-0.4-0.9-0.9-1.3-1.5c-0.4-0.7-0.9-1.2-1.5-1.5l-2-1c-3-3.4-5.6-7-7.9-10.9c-2.3-3.9-5.3-7.2-9-10v-0.6
		l1-0.2c2.1,1.9,4.1,3.8,6,5.8c1.9,2,3.6,4.3,5,6.8l2.4,3.8c0.7,0.6,1.3,1.2,2,1.9c0.6,0.7,1.2,1.4,1.6,2.2V33
		c0.6,0.2,1.2,0.5,1.8,0.8s1.1,0.8,1.6,1.3l0.5,1.3l0.6,0.2l0.1,0.8L143.3,37.9L143.3,37.9z M154,35.4c-0.5-0.2-1-0.3-1.5-0.5
		s-0.9-0.6-1.3-1.1c-0.5-1-0.9-2.1-1.1-3.2c-0.2-1.2-0.2-2.4-0.1-3.6c0.3-1.1,0.7-2.2,1.3-3.3c0.6-1.1,1.2-2,2.1-2.9
		c0.7-0.5,1.3-0.9,2-1.3s1.5-0.5,2.4-0.2l1,1.6c0.6,0.5,1.1,1,1.4,1.7c0.4,0.7,0.7,1.3,0.9,2c0.2,0.9,0.3,1.8,0.3,2.7
		c-0.1,0.9-0.2,1.9-0.2,2.8c-0.3,0.8-0.6,1.6-1.1,2.3s-1.1,1.3-1.9,1.9c-0.7,0.4-1.3,0.7-1.9,1.1C155.6,35.6,154.8,35.7,154,35.4
		L154,35.4z M155.5,33.9c0.7-0.3,1.3-0.6,1.8-1.1c0.6-0.5,1.1-1,1.7-1.6c0.4-0.7,0.6-1.5,0.7-2.4c0.1-0.9,0.1-1.8,0.2-2.7
		c0-0.7-0.3-1.4-0.7-2.1s-0.9-1.3-1.3-2l-1.9-1.4c-0.9,0.5-1.6,1-2.2,1.7c-0.6,0.7-1.1,1.4-1.6,2.2c-0.3,0.6-0.5,1.2-0.6,1.8
		c-0.1,0.6-0.2,1.2-0.3,1.9c0,0.9,0.1,1.9,0.2,2.8c0.1,0.9,0.5,1.7,1.2,2.4l2.6,0.7L155.5,33.9L155.5,33.9z M164.8,36.4l-0.2-1
		l0.7-3.2l-0.1-0.8l0.2-0.2l0.7-9.2l-0.3-2.5l1-0.2c0.3,0.4,0.5,0.9,0.5,1.4c0.1,0.5,0.1,1,0.2,1.5l-0.6,7.8h0.5
		c1.6-1,3.2-2.2,4.6-3.5c1.4-1.3,2.7-2.7,3.9-4.2l0.4-0.8l0.8-0.1l0.2,1c-0.9,1.6-2.1,3.1-3.7,4.4c-1.6,1.3-2.7,2.8-3.3,4.5
		c0.3,0.8,0.8,1.5,1.3,2.2s1.1,1.4,1.8,2l0.5,0.2l0.1,0.9l-1,0.2c-1-0.6-1.8-1.4-2.5-2.4s-1.2-2-1.6-3.1v-0.5h-0.3l-1.7,1
		c-0.2,0.7-0.3,1.5-0.4,2.3c-0.1,0.8-0.4,1.5-0.9,2.1L164.8,36.4L164.8,36.4z M199.5,39.5l-0.4-0.7l0.6-7l-0.1-0.2l0.5-6.4l-0.1-0.8
		c-0.9-0.2-1.9-0.4-2.8-0.5c-0.9-0.2-1.8-0.6-2.6-1.1l-0.1-0.8l1-0.2c1.6,0.7,3.3,1.2,5.1,1.5c1.8,0.4,3.7,0.6,5.7,0.6l1.1-0.2
		l0.2,1.1c-0.9,0.5-1.9,0.6-2.9,0.5c-1.1-0.1-2.2-0.2-3.2-0.3l-0.5,6.7l0.2,0.2l-0.6,7.5L199.5,39.5L199.5,39.5z M215.1,40.1
		l-1.8-0.6c-0.6-0.3-1-0.7-1.4-1.2c-0.3-0.3-0.4-0.7-0.4-1.2s0.1-1,0.1-1.5l2.7-4c0.3-0.3,0.7-0.4,1.1-0.5h1.4
		c0.7,1,1.2,2.1,1.6,3.2c0.4,1.1,0.5,2.4,0.2,3.7c-0.1,0.3-0.3,0.6-0.6,1c-0.2,0.4-0.5,0.6-0.8,0.8s-0.7,0.3-1.1,0.3
		C215.9,40.2,215.6,40.2,215.1,40.1z M216.5,38.7c0.5-0.3,0.8-0.7,0.9-1.3c0-0.6,0.1-1.2,0.1-1.7l-0.9-2.4l-0.6-0.1l-1.3,0.2
		c-0.5,0.6-0.9,1.2-1.2,1.8s-0.5,1.3-0.5,2.2c0.4,0.5,0.9,0.9,1.5,1.1c0.6,0.2,1.2,0.3,1.8,0.4L216.5,38.7z M227.3,41.4l-2.5-1.8
		c-0.4-0.5-0.6-1-0.7-1.6c-0.1-0.6-0.1-1.2,0.1-1.8l1.3-1.8c0.7-0.6,1.4-0.9,2.2-0.9s1.6,0,2.4,0.2l1.8,0.8c0.1-1.5,0.3-2.9,0.7-4.4
		s0.8-2.8,1.4-4l0.8-0.1c0.2,0.2,0.3,0.5,0.3,0.7s0,0.5-0.1,0.7c-0.8,1.6-1.2,3.4-1.4,5.2c-0.2,1.9-0.5,3.7-0.9,5.6l0.4,1.1
		c0.3,0.2,0.6,0.5,0.8,0.7s0.6,0.3,1,0.2l0.8-0.1l0.2,1c-0.2,0.3-0.5,0.5-0.8,0.5H234l-1.5-0.7l-0.4,0.4h-0.6l-1.1-0.4
		c-0.4,0.2-0.9,0.3-1.4,0.4S227.9,41.6,227.3,41.4z M230.5,39.6c0.5-0.5,0.8-1.1,0.9-1.8c0.1-0.7,0.2-1.3,0.2-1.9
		c-0.6-0.3-1.3-0.5-2-0.7s-1.5-0.3-2.3-0.2c-0.3,0.2-0.7,0.3-1,0.5s-0.6,0.5-0.7,0.9l-0.1,1.6l1.4,1.7l2,0.5L230.5,39.6L230.5,39.6z
		 M248.3,43l-1.2-0.9l-0.4-0.8h-0.3c-0.7,0.4-1.4,0.5-2.3,0.5c-0.8,0-1.7,0-2.5-0.1l-1.1-0.7c-0.3-0.3-0.5-0.7-0.5-1.1
		c-0.1-0.4,0-0.9,0.1-1.4l1.3-2.4c0.8-0.7,1.7-1.3,2.6-1.8c0.9-0.5,2-0.6,3.1-0.2l1,0.9c0.4,0.7,0.5,1.4,0.4,2.1
		c-0.1,0.8-0.2,1.5-0.3,2.3l-0.4,1.5l0.5,0.8l1.4,0.3l0.1,0.8c-0.2,0.2-0.5,0.3-0.7,0.3C248.9,43,248.6,43,248.3,43L248.3,43z
		 M245.4,40.3c0.9-0.5,1.4-1.1,1.5-1.9c0.1-0.8,0.2-1.7,0.3-2.5c-0.3-0.3-0.6-0.5-1-0.5s-0.8-0.1-1.2-0.1l-3,2.4l-0.5,2.2
		c0.2,0.3,0.5,0.5,0.9,0.5s0.8,0.1,1.2,0.1L245.4,40.3z M257,46.1l-0.2-1.1l2.1-2.4c-0.7-1-1.2-2.1-1.6-3.2
		c-0.4-1.1-0.6-2.3-0.8-3.4l0.5-0.6h0.6c0.1,1.1,0.4,2.1,0.7,3.1c0.3,1,0.8,2,1.3,2.9l0.6,0.2l2.2-3.4l0.8-0.1l0.2,1
		c-0.6,1.3-1.4,2.5-2.4,3.7c-1,1.1-2.1,2.2-3.3,3.3H257L257,46.1z M281.3,40.1l-0.6-1.6c0.3-0.7,0.4-1.5,0.5-2.3s0.1-1.7,0.2-2.5
		l-0.3-2.7l0.5-0.6l0.6,0.1c0.2,1.1,0.4,2.2,0.4,3.4c0.1,1.2,0,2.4-0.2,3.7l-0.3,1.6l0.1,0.8L281.3,40.1L281.3,40.1z M281.6,46.1
		l-0.6-0.3l-0.2-1.9l1-1.3l0.6,0.1l0.2,1l0.5,0.2l0.2,1.6l-1,0.9L281.6,46.1z M300.7,51.2l-0.2-1.1c2-1.3,3.8-2.8,5.5-4.4
		c1.7-1.6,3.3-3.4,4.7-5.1c1.4-2.6,3.3-5,5.7-7c2.4-2.1,4.7-4.2,6.7-6.5l0.8-0.1l0.2,1c-3.9,3.2-7.4,6.8-10.4,10.8s-6.4,7.6-10.2,11
		c-0.5,0.3-0.9,0.6-1.4,1C301.7,51.1,301.2,51.2,300.7,51.2L300.7,51.2z"/>
</g>
</svg>
