<svg xmlns="http://www.w3.org/2000/svg" viewBox="0 0 1161.5 512"><defs><style>.cls-1,.cls-2{fill:#f88c8c}.cls-2{isolation:isolate;font-size:186.72px;font-family:DISCO}</style></defs><g id="レイヤー_2" data-name="レイヤー 2"><g id="レイヤー_1-2" data-name="レイヤー 1"><g id="_2" data-name="2"><path class="cls-1" d="M256 0C114.6 0 0 114.6 0 256s114.6 256 256 256 256-114.6 256-256S397.4 0 256 0zm0 464c-114.7 0-208-93.3-208-208S141.3 48 256 48s208 93.3 208 208-93.3 208-208 208z"/><path class="cls-1" d="M256 80c-97 0-176 79-176 176s79 176 176 176 176-79 176-176S353 80 256 80zm0 336c-88.2 0-160-71.8-160-160S167.8 96 256 96s160 71.8 160 160-71.8 160-160 160z"/><text class="cls-2" transform="translate(143.69 314.49)">W</text><text class="cls-2" transform="translate(143.69 314.49)">W</text><text transform="translate(143.69 314.49)" style="isolation:isolate" fill="none" stroke="#f88c8c" stroke-linecap="square" stroke-linejoin="round" stroke-width="17.01" font-size="186.72" font-family="DISCO">W</text></g><path class="cls-1" d="M573 193.69h75.8v124.63H573z"/><path class="cls-1" d="M628.62 122.49L709.82 256l-81.2 133.51"/><g id="_2-2" data-name="2"><path class="cls-1" d="M1044.2 147.3c23.4-7.7 42.8-20.2 56.6-35.3a91.89 91.89 0 0 0 16.3-24.5 67.06 67.06 0 0 0 6.1-27.2 57.07 57.07 0 0 0-3-18.3 59 59 0 0 0-9.8-17.9 62 62 0 0 0-22.9-18 68.57 68.57 0 0 0-49.9-2.6 71.44 71.44 0 0 0-29.5 18.8c-8.6 9-15.6 20.7-20.2 34.9-6 18.4-23.9 60.2-24.4 61.2h-1.7c-.5-1-18.4-42.8-24.4-61.2a96.34 96.34 0 0 0-12.1-25 75.39 75.39 0 0 0-27.1-24.3 68.87 68.87 0 0 0-32-7.9 65.74 65.74 0 0 0-36.7 10.9 62.38 62.38 0 0 0-14.4 13.2 61.24 61.24 0 0 0-9.8 17.9 57.07 57.07 0 0 0-3 18.3 63 63 0 0 0 2.8 18.3 86.07 86.07 0 0 0 16.2 29.5c11.3 13.6 26.9 25.3 45.8 33.7a164 164 0 0 0 65.9 13.5c14 0 29.2.1 29.8 0 .5.1 15.8 0 29.8 0a165 165 0 0 0 51.6-8zm-20.5-98.8a46.92 46.92 0 0 1 16.8-15.1 40.81 40.81 0 0 1 18.8-4.6 38.62 38.62 0 0 1 20.9 6.1 32.4 32.4 0 0 1 7.7 7.1 35.2 35.2 0 0 1 5.2 9.5 27.27 27.27 0 0 1 1.5 8.9 34.93 34.93 0 0 1-1.6 10.1 56.46 56.46 0 0 1-10.9 19.4c-8.1 9.8-20.1 19.1-35.4 25.8a133.2 133.2 0 0 1-54.3 11c-1.1 0-2.2 0-3.2-.1 7.5-12.6 16.6-31.8 26-60.6a67.51 67.51 0 0 1 8.5-17.5zM834.4 75.8a37.47 37.47 0 0 1-3.6-15.5 26.83 26.83 0 0 1 1.5-8.9 31.44 31.44 0 0 1 5.2-9.5 32.74 32.74 0 0 1 12.4-9.7 39.34 39.34 0 0 1 16.2-3.5 41.5 41.5 0 0 1 12.6 2 42.62 42.62 0 0 1 17.7 11.4c5.4 5.7 10.3 13.5 13.7 24 9.4 28.8 18.5 48 26 60.6h-3.2a136.28 136.28 0 0 1-42.9-6.6c-19-6.2-34.2-16.3-44.3-27.4a63.29 63.29 0 0 1-11.3-16.9zM978.5 178v95.4h183V178h-183zM763.8 240.6v32.8h182.9V178H763.8v62.6zM978.5 512h121.9a45.11 45.11 0 0 0 45.1-45.1V305.2h-167zM779.7 466.9a45.11 45.11 0 0 0 45.1 45.1h121.9V305.2h-167z"/></g></g></g></svg>