<svg xmlns="http://www.w3.org/2000/svg" viewBox="0 0 56.69 47.24"><defs><style>.cls-1{fill:#fff;}</style></defs><title>icon_cheer</title><g id="レイヤー_2" data-name="レイヤー 2"><g id="_2" data-name="2"><path class="cls-1" d="M50.61,12.7C45.1,2.62,38.34-2.52,35.51,1.22l.26-.31L9.34,28.72l-3.55-.11-4-.12a1.37,1.37,0,0,0-1.21.59,3.33,3.33,0,0,0-.25.42l-.06.17c0,.12-.08.23-.12.36s0,.15-.05.23l-.06.38,0,.27c0,.14,0,.3,0,.45s0,.13,0,.2v.08c0,.06,0,.13,0,.18s0,.33,0,.5l0,.21c0,.17,0,.34.05.51l0,.22c0,.19.06.38.1.57l0,.19.15.69,0,.1a23.9,23.9,0,0,0,.72,2.41l0,.09c.21.59.45,1.17.71,1.76l.06.14c.29.64.61,1.28,1,1.91,2.65,4.86,5.91,7.33,7.28,5.54l4.69-5.82,38.32-1.92h0a2.89,2.89,0,0,0,2.28-1.21C58.28,34,56.12,22.77,50.61,12.7ZM11.09,33.32s-7.71,2.5-7.89,2.09c-1.34-3.32-.84-4-.84-4l7.55-.3L32,10.77l1.42,6.4Zm41.55.86a1.69,1.69,0,0,1-.66.57c-1.9.86-6.26-2.65-10.25-10C37,16,35.74,7.54,37.51,5.1a1.57,1.57,0,0,1,.65-.56c1.91-.86,6.26,2.65,10.25,10C53.13,23.27,54.4,31.74,52.64,34.18Z"/></g></g></svg>