<?xml version="1.0" encoding="utf-8"?>
<!-- Generator: Adobe Illustrator 23.0.4, SVG Export Plug-In . SVG Version: 6.00 Build 0)  -->
<svg version="1.1" id="レイヤー_1" xmlns="http://www.w3.org/2000/svg" xmlns:xlink="http://www.w3.org/1999/xlink" x="0px"
	 y="0px" viewBox="0 0 363 281.1" style="enable-background:new 0 0 363 281.1;" xml:space="preserve">
<style type="text/css">
	.st0{fill:#AFA850;}
</style>
<g id="_2">
	<path class="st0" d="M363,192.3V73.8c0-21.8-17.1-39.7-38.9-40.7c4.5,6.7,6.9,14.6,6.9,22.7v118.5c0,22.5-18.2,40.8-40.8,40.8
		H117.9l-34.2,17.2c2.7,0.5,5.4,0.8,8.1,0.8h172.3l95.6,48L327,232.7C347.5,230.3,363,212.9,363,192.3L363,192.3z"/>
	<path class="st0" d="M271.2,0H40.8C18.2,0,0,18.2,0,40.8v118.5c0,20.7,15.5,38.1,36,40.5L3.3,248l95.6-48h172.3
		c22.5,0,40.8-18.2,40.8-40.8V40.8C312,18.2,293.8,0,271.2,0z M96.4,113.7c-6,0-10.9-4.9-10.9-10.9s4.9-10.9,10.9-10.9
		s10.9,4.9,10.9,10.9S102.5,113.7,96.4,113.7L96.4,113.7z M154,113.7c-6,0-10.9-4.9-10.9-10.9S148,91.9,154,91.9s10.9,4.9,10.9,10.9
		S160.1,113.7,154,113.7L154,113.7L154,113.7z M211.6,113.7c-6,0-10.9-4.9-10.9-10.9s4.9-10.9,10.9-10.9s10.9,4.9,10.9,10.9
		S217.7,113.7,211.6,113.7L211.6,113.7L211.6,113.7z"/>
</g>
</svg>
