<svg xmlns="http://www.w3.org/2000/svg" width="27.361" height="25.002"><g fill="#fff"><path data-name="パス 12" d="M7.869 9.928a2.057 2.057 0 0 0 2.057-2.057l.751-7.869h-3.29L5.813 7.871a2.057 2.057 0 0 0 2.056 2.057z"/><path data-name="パス 13" d="M13.681 9.928a2.057 2.057 0 0 0 2.056-2.057L15.326.002h-3.291l-.411 7.869a2.057 2.057 0 0 0 2.057 2.057z"/><path data-name="パス 14" d="M19.493 9.929a2.057 2.057 0 0 0 2.056-2.057L19.975.003h-3.29l.751 7.869a2.057 2.057 0 0 0 2.057 2.057z"/><path data-name="パス 15" d="M24.624 0h-3.29l1.914 7.869A2.052 2.052 0 0 0 24.8 9.856v13.425h-3.1v-9.084h-7.816v9.084H2.56V9.856a2.052 2.052 0 0 0 1.553-1.987L6.026 0h-3.29L0 7.869a2.048 2.048 0 0 0 .839 1.649v15.484h25.683V9.518a2.049 2.049 0 0 0 .838-1.649zm-4.212 23.281h-5.237v-7.793h5.237z"/><path data-name="長方形 16" d="M5.846 13.588h4.573v4.573H5.846z"/></g></svg>
