<svg id="レイヤー_1" xmlns="http://www.w3.org/2000/svg" viewBox="0 0 497.9 512"><style>.st0{fill:#f88c8c}</style><g id="_2"><path class="st0" d="M142.1 103.5c16 0 29-13 29-29V29c-.8-16-14.4-28.3-30.4-27.5-14.9.7-26.8 12.6-27.5 27.5v45.6c0 15.9 12.9 28.9 28.9 28.9zM355.7 103.5c16 0 29-13 29-29V29C384 13 370.5.6 354.5 1.3c-15 .7-27 12.7-27.7 27.7v45.6c0 15.9 13 28.9 28.9 28.9z"/><path class="st0" d="M428.1 41.3h-17.9v33.3c0 30.1-24.4 54.4-54.4 54.4-30.1 0-54.4-24.4-54.4-54.4V41.3H196.5v33.3c.4 30.1-23.6 54.8-53.7 55.2S88.1 106.1 87.7 76V41.3H69.8C31.2 41.3 0 72.5 0 111v331.2C0 480.8 31.2 512 69.8 512h358.3c38.5 0 69.8-31.2 69.8-69.8V111c0-38.5-31.3-69.7-69.8-69.7zM443 430c0 17.8-14.5 32.3-32.3 32.3H87.2c-17.8 0-32.3-14.5-32.3-32.3V170.9H443V430z"/><path class="st0" d="M213.5 334.9h70.8v70.8h-70.8zM103.8 334.9h70.8v70.8h-70.8zM323.3 225.1h70.8v70.8h-70.8zM323.3 334.9h70.8v70.8h-70.8zM213.5 225.1h70.8v70.8h-70.8zM103.8 225.1h70.8v70.8h-70.8z"/></g></svg>