<svg xmlns="http://www.w3.org/2000/svg" viewBox="0 0 174.96 174.96"><defs><style>.cls-1{fill:#fff;stroke:#fff;opacity:0;}.cls-1,.cls-3{stroke-miterlimit:10;}.cls-2,.cls-3{fill:#848484;stroke:#848484;}.cls-2{stroke-linecap:round;stroke-linejoin:round;stroke-width:0.66px;}</style></defs><title>icon_blank</title><g id="レイヤー_2" data-name="レイヤー 2"><g id="レイヤー_3" data-name="レイヤー 3"><rect class="cls-1" x="0.5" y="0.5" width="173.96" height="173.96"/><path class="cls-2" d="M150.45,137.26c.59.59,1.41,1.38,1.15,2.31-1.1,3.94-9.38,3.38-12.23,3.23-10-.52-19.6.36-29.06,3.81-8.44,3.08-14.61-1.38-23.15-1.12-9,.28-16.87,3.18-25.61.25-9.35-3.12-19.07-1.35-28.73-2.1a.9.9,0,0,1-.82-.72l.82.08a.24.24,0,0,0,.28-.26c7.13.67,14.28-.28,21.38.23,5.61.39,10.82,4.16,16.63,3.36,6.08-.84,12.1-2.12,18.38-1.77,4.51.26,8.54,2.13,12.9,2.57,5.4.56,10-3.15,15.17-4a96.19,96.19,0,0,1,19.76-1.42c3.46.16,6.64.47,10-.43,6.25-1.67,2.33-3.54-1-5.28a18.73,18.73,0,0,1-8-8.31c-3.72-7.17-4.16-15.63-5.06-23.53-1.79-16-5.46-32.27-17.66-43.8-10.27-9.72-25.07-11-37.57-4.8a46.79,46.79,0,0,0-9.39,6c-3.51,3-3.51,2.94-7.89,3.1-7,.26-5.26,4.51-7.36,9.58-1.84,4.77-7,9.21-9.58,14.36a58.29,58.29,0,0,0-5.52,19.86c-.74,5.16.37,11.8-1.48,16.59-1.85,5.87-8.82,5.87-11.77,10.3-3.82,5.54,1.88,6.87,6.85,7.31a.62.62,0,0,0,.05.25c-4.44-.41-11.82-2.17-7.25-7.92,1.94-2.43,4.43-3.43,7-5.1,5.18-3.28,5.56-8.35,5.59-14,0-7.92,1-16.07,4-23.45S51.71,79.15,53.43,71.36c.84-3.77,1.46-6.33,5.43-7.38,1.77-.47,3.85.15,5.56-.52,2-.76,3.77-2.61,5.39-3.92a45.07,45.07,0,0,1,9.61-5.61,36,36,0,0,1,19.22-2.74c13.79,1.56,24.23,13.17,29.25,25.4a94.35,94.35,0,0,1,6,23.55c1.2,9.28.79,20.77,6.38,28.76a22.2,22.2,0,0,0,7.87,6.87A10.13,10.13,0,0,1,150.45,137.26Z"/><path class="cls-3" d="M148.27,138.16l-1.21,2.12a19.82,19.82,0,0,1-5.69.59c-4.3,0-8.53-.28-12.84-.05a68.71,68.71,0,0,0-20.61,4.54c-4.61,1.69-9.3,0-13.79-1.08a35.9,35.9,0,0,0-11.61-.53c-3.15.23-6.28.81-9.41,1.28-5.4.84-9.64-.8-14.68-2.31-8-2.38-17.33-.31-25.61-.92a.74.74,0,0,0-.82.53,20.28,20.28,0,0,1-3.38-.51c-4.64-.9-3.11-6.84-.13-8.87,2-1.33,4.59-2,6.33-3.77,3.59-3.56,3.82-8.43,3.92-13.25.21-9.4,1.77-18.35,5.82-26.91,2.74-5.79,8-9.77,10.2-15.89,1.31-3.59.15-7,6.05-7.56,1.62-.18,3.67.1,5.15-.8,6.74-4.1,11.85-8.84,19.71-11C104.79,48.39,120,62.39,126.76,79c5.9,14.45,4.28,30.29,8.92,45a22.83,22.83,0,0,0,10.15,12.92C146.65,137.26,147.47,137.7,148.27,138.16Zm-45-37.38c11.53,3.11,18.33-25.6,4.15-27C95.34,72.64,94,99.53,103.31,100.78ZM79.6,91.35c2.05-5.82,2-14.84-4.51-17.76C62.07,67.72,57.25,94.3,69,98.07,73.34,101.81,78.21,95.22,79.6,91.35Z"/><path class="cls-2" d="M32,142.36a.67.67,0,0,0-.05.31c-5-.44-10.67-1.77-6.85-7.31,2.95-4.43,9.92-4.43,11.77-10.3,1.85-4.79.74-11.43,1.48-16.59a58.29,58.29,0,0,1,5.52-19.86c2.59-5.15,7.74-9.59,9.58-14.36,2.1-5.07.34-9.32,7.36-9.58,4.38-.16,4.38-.11,7.89-3.1a46.79,46.79,0,0,1,9.39-6c12.5-6.17,27.3-4.92,37.57,4.8,12.2,11.53,15.87,27.76,17.66,43.8.9,7.9,1.34,16.36,5.06,23.53a18.73,18.73,0,0,0,8,8.31c3.3,1.74,7.22,3.61,1,5.28-3.36.9-6.54.59-10,.43a96.19,96.19,0,0,0-19.76,1.42c-5.18.87-9.77,4.58-15.17,4-4.36-.44-8.39-2.31-12.9-2.57-6.28-.35-12.3.93-18.38,1.77-5.81.8-11-3-16.63-3.36-7.1-.51-14.25.44-21.38-.23a.28.28,0,0,0-.28-.3Zm0,0a.74.74,0,0,1,.82-.53c8.28.61,17.58-1.46,25.61.92,5,1.51,9.28,3.15,14.68,2.31,3.13-.47,6.26-1.05,9.41-1.28a35.9,35.9,0,0,1,11.61.53c4.49,1.13,9.18,2.77,13.79,1.08a68.71,68.71,0,0,1,20.61-4.54c4.31-.23,8.54.1,12.84.05a19.82,19.82,0,0,0,5.69-.59l1.21-2.12c-.8-.46-1.62-.9-2.44-1.31a22.83,22.83,0,0,1-10.15-12.92c-4.64-14.69-3-30.53-8.92-45-6.74-16.56-22-30.56-41.09-25.23-7.86,2.21-13,7-19.71,11-1.48.9-3.53.62-5.15.8-5.9.56-4.74,4-6.05,7.56-2.2,6.12-7.46,10.1-10.2,15.89-4.05,8.56-5.61,17.51-5.82,26.91-.1,4.82-.33,9.69-3.92,13.25-1.74,1.75-4.33,2.44-6.33,3.77-3,2-4.51,8,.13,8.87A20.28,20.28,0,0,0,32,142.33Z"/><path class="cls-2" d="M129.81,46.78c5.82-2.82,9.69,4.15,7.21,9a4.81,4.81,0,0,1-2.54,2.44,2.24,2.24,0,0,1-1.69,0,4.72,4.72,0,0,0,.92.11c.36,0,.46-.59.08-.67l-.34-.08c4.69-.69,4.82-11-1.23-10.63s-4.38,9.17.31,10.81a.55.55,0,0,0,.26.44C128.17,57.26,124.74,49.21,129.81,46.78Z"/><path class="cls-2" d="M134.89,55.85a5.75,5.75,0,0,0,1.07-4c-.12-1.49-.76-3.41-2.43-3.82s-3.64.07-4.18,1.82a6.62,6.62,0,0,0,3.26,7.48.56.56,0,0,0-.1.36.39.39,0,0,0,0,.15c-4.69-1.64-6.43-10.48-.31-10.81s5.92,9.94,1.23,10.63h0c-.28-.1-.54-.2-.82-.33C133,56.64,134.43,56.41,134.89,55.85Z"/><path class="cls-3" d="M136,51.83a5.75,5.75,0,0,1-1.07,4c-.46.56-1.9.79-2.28,1.46a6.62,6.62,0,0,1-3.26-7.48c.54-1.75,2.62-2.23,4.18-1.82S135.84,50.34,136,51.83Z"/><path class="cls-2" d="M132.53,57.82a.39.39,0,0,1,0-.15.56.56,0,0,1,.1-.36c.28.13.54.23.82.33h0l.34.08c.38.08.28.67-.08.67a4.72,4.72,0,0,1-.92-.11v0A.55.55,0,0,1,132.53,57.82Z"/><path class="cls-3" d="M106,75.15c6.92-.54,8,8.36,7.23,13.2-1,6.36-4.41,10.18-10.56,10.61C96.87,93.58,97.13,75.87,106,75.15ZM104.62,90a5,5,0,0,0,1.74-6.16c-.49-1.12-2-2.81-3.33-2.12-1.18.59-1.26,2.64-1.28,3.74-.06,1.49,0,3.44,1,4.64.33.39.82,0,.82-.39A.67.67,0,0,0,104.62,90Z"/><path class="cls-2" d="M113.23,88.35c.74-4.84-.31-13.74-7.23-13.2-8.87.72-9.13,18.43-3.33,23.81A4.34,4.34,0,0,1,102,99a.56.56,0,0,0-.39.17c-6-5.61-4.23-28.52,7.39-24.22,9.38,3.49,5.63,25.3-5,25a4.89,4.89,0,0,1-1.36-1C108.82,98.53,112.28,94.71,113.23,88.35Z"/><path class="cls-2" d="M104,99.94c10.63.33,14.38-21.48,5-25-11.62-4.3-13.36,18.61-7.39,24.22a.6.6,0,0,0,.08,1,7,7,0,0,0,1.59.61c-9.33-1.25-8-28.14,4.15-27,14.18,1.39,7.38,30.1-4.15,27a3.55,3.55,0,0,0,.56.06.46.46,0,0,0,.23-.85S104.05,100,104,99.94Z"/><path class="cls-2" d="M103.62,89.68c0,.41-.49.78-.82.39-1-1.2-1.11-3.15-1-4.64,0-1.1.1-3.15,1.28-3.74,1.38-.69,2.84,1,3.33,2.12A5,5,0,0,1,104.62,90,.67.67,0,0,1,103.62,89.68Zm0,0s0-.08,0-.1l.67-.23a4.17,4.17,0,0,0,1.46-5.52c-3.69-5.51-4,3.7-2.56,5.9l.41-.13A.35.35,0,0,0,103.62,89.66Z"/><path class="cls-2" d="M103.51,89.35a.43.43,0,0,0,.06.21v0l-.41.13c-1.49-2.2-1.13-11.41,2.56-5.9a4.17,4.17,0,0,1-1.46,5.52l-.67.23s0-.08,0-.11S103.54,89.38,103.51,89.35Zm0,0a.7.7,0,0,1,.36-.61,3.41,3.41,0,0,0,.92-5.21c-.58-.71-1.22-1.23-1.56-.07A9.5,9.5,0,0,0,103.51,89.3Z"/><path class="cls-2" d="M104.79,83.48a3.41,3.41,0,0,1-.92,5.21.7.7,0,0,0-.36.61,9.5,9.5,0,0,1-.28-5.89C103.57,82.25,104.21,82.77,104.79,83.48Z"/><path class="cls-2" d="M102.28,99.71a7.13,7.13,0,0,0,1.75.23s0,0,.07,0a.46.46,0,0,1-.23.85,3.55,3.55,0,0,1-.56-.06,7,7,0,0,1-1.59-.61.6.6,0,0,1-.08-1A4.42,4.42,0,0,0,102.28,99.71Z"/><path class="cls-2" d="M103.59,89.56s0,.07,0,.1a.35.35,0,0,1-.05-.08v0Z"/><path class="cls-2" d="M103.57,89.45s0,.08,0,.11h0a.43.43,0,0,1-.06-.21S103.54,89.43,103.57,89.45Z"/><path class="cls-2" d="M104,99.94a7.13,7.13,0,0,1-1.75-.23,4.42,4.42,0,0,1-.64-.52A.56.56,0,0,1,102,99a4.34,4.34,0,0,0,.64-.06A4.89,4.89,0,0,0,104,99.94Z"/><path class="cls-2" d="M75.09,73.59c6.48,2.92,6.56,11.94,4.51,17.76-1.39,3.87-6.26,10.46-10.59,6.72l.51.15a.43.43,0,0,0,.52-.54c8.74,4.13,14.2-18.53,5.48-23.07C63.3,68.31,58.68,91.27,68.06,97c0,0,0,0,.06.08a8.11,8.11,0,0,0,.89.95C57.25,94.3,62.07,67.72,75.09,73.59Z"/><path class="cls-3" d="M73.73,74.64c6,1.79,5.92,9.79,4.82,14.69a14.64,14.64,0,0,1-3.21,6.46c-2.1,2.36-4.2,1.3-6.66.36a.44.44,0,0,0-.54.1c-3.59-2.9-4.72-7.23-4.3-12C64.27,79,67.68,72.87,73.73,74.64ZM70.81,87.46c.69-1.67,1.2-4.59-.34-5.95-3.64-3.23-7,4.56-3.35,6.77v0s0,.08,0,.1C68.09,90.69,70.19,89,70.81,87.46Z"/><path class="cls-2" d="M78.55,89.33c1.1-4.9,1.23-12.9-4.82-14.69S64.27,79,63.84,84.2c-.42,4.82.71,9.15,4.3,12a.82.82,0,0,0-.08.79c-9.38-5.77-4.76-28.73,7.46-22.43,8.72,4.54,3.26,27.2-5.48,23.07a.26.26,0,0,0-.18-.25,12.11,12.11,0,0,1-1.72-1.18.44.44,0,0,1,.54-.1c2.46.94,4.56,2,6.66-.36A14.64,14.64,0,0,0,78.55,89.33Z"/><path class="cls-2" d="M70.47,81.51c1.54,1.36,1,4.28.34,5.95-.62,1.51-2.72,3.23-3.67.94,0,0,0-.07,0-.1a3.22,3.22,0,0,0,.59.28.19.19,0,0,0,.18,0h0c2.33,1.31,3.82-5.23,2.1-6.61-3.13-2.41-5.28,3.64-2.72,5.92a.34.34,0,0,0-.17.39C63.5,86.07,66.83,78.28,70.47,81.51Z"/><path class="cls-2" d="M70,82c1.72,1.38.23,7.92-2.1,6.61a.41.41,0,0,0,.18-.59c1,0,1.41-.77,1.69-1.76s.72-2.93-.13-3.7c-1.3-1.2-2.48.18-2.77,1.52A4,4,0,0,0,68.06,88v0a1.48,1.48,0,0,1-.54-.1.23.23,0,0,0-.2,0h0C64.73,85.61,66.88,79.56,70,82Z"/><path class="cls-2" d="M70,97.68a.43.43,0,0,1-.52.54L69,98.07a8.11,8.11,0,0,1-.89-.95s0-.05-.06-.08a.82.82,0,0,1,.08-.79,12.11,12.11,0,0,0,1.72,1.18A.26.26,0,0,1,70,97.68Z"/><path class="cls-2" d="M69.65,82.53c.85.77.39,2.77.13,3.7S69,88,68.09,88h0v0a4,4,0,0,1-1.18-3.92C67.17,82.71,68.35,81.33,69.65,82.53Z"/><path class="cls-2" d="M69.83,32.14c.16,2.51-2.12,4.25-4.51,4.23a.45.45,0,0,0,.1-.82c7.44-.87,2-10.25-3.51-6.59-3.48,2.41-1,6.82,2.64,7a.83.83,0,0,0,.67.41h.08a.13.13,0,0,1-.08,0c-1.67.16-3.23,0-4.44-1.28a4.48,4.48,0,0,1-1.38-3.79c.36-2.79,3.69-4.64,6.36-3.9A5.56,5.56,0,0,1,69.83,32.14Z"/><path class="cls-2" d="M65,34.83c1.47-.38,3.46-.69,3.18-2.69a3.81,3.81,0,0,0-2.46-2.95c-1.64-.54-4.13.18-4.54,2.1S62.6,35,64.45,35.45a1.22,1.22,0,0,0,.1.51c-3.69-.18-6.12-4.59-2.64-7,5.46-3.66,11,5.72,3.51,6.59h0a.32.32,0,0,0-.18,0,3.64,3.64,0,0,1-.74-.07A.68.68,0,0,1,65,34.83Z"/><path class="cls-3" d="M68.19,32.14c.28,2-1.71,2.31-3.18,2.69a.68.68,0,0,0-.53.62h0c-1.85-.41-3.69-2.26-3.26-4.16s2.9-2.64,4.54-2.1A3.81,3.81,0,0,1,68.19,32.14Z"/><path class="cls-2" d="M68.09,88a.41.41,0,0,1-.18.59h0a1.64,1.64,0,0,1-.47-.36h.39a2.8,2.8,0,0,1-.49-.33.23.23,0,0,1,.2,0,1.48,1.48,0,0,0,.54.1Z"/><path class="cls-2" d="M67.89,88.58a.19.19,0,0,1-.18,0,3.22,3.22,0,0,1-.59-.28v0a.34.34,0,0,1,.17-.39h0a2.8,2.8,0,0,0,.49.33h-.39A1.64,1.64,0,0,0,67.89,88.58Z"/><path class="cls-2" d="M65.4,35.55h0a.45.45,0,0,1-.1.82h-.1a.83.83,0,0,1-.67-.41,1.22,1.22,0,0,1-.1-.51h0a3.64,3.64,0,0,0,.74.07A.32.32,0,0,1,65.4,35.55Z"/><path class="cls-2" d="M57,40c5.26,2.53,5.31,8.12,2.13,12.48-1.18,1.61-6,6.92-7.82,3.48a8,8,0,0,0,.9.18h.15C56,57.39,66.81,44.39,56,40.37c-9.87-3.87-13.33,12.2-4.85,15.15a.38.38,0,0,0,0,.18l.15.3C41.25,53.6,46,34.7,57,40Z"/><path class="cls-3" d="M55.84,41c4.94,1.8,4.69,6.46,2.25,10.26-.61.92-3.71,4.66-5.51,4.25h0l0,0a.16.16,0,0,0-.1-.05s-.1,0-.13,0,0,0,0,0a.35.35,0,0,1-.13-.08.7.7,0,0,1-.21-.21.4.4,0,0,0-.54-.1C43.94,51.49,46.84,37.81,55.84,41Z"/><path class="cls-2" d="M58.09,51.29c2.44-3.8,2.69-8.46-2.25-10.26-9-3.22-11.9,10.46-4.44,14a.67.67,0,0,0-.23.49c-8.48-3-5-19,4.85-15.15,10.79,4,0,17-3.62,15.81a.37.37,0,0,0,.18-.64C54.38,56,57.48,52.21,58.09,51.29Z"/><path class="cls-2" d="M51.79,55.7h0a5.08,5.08,0,0,1-.59-.18A.67.67,0,0,1,51.4,55a2.13,2.13,0,0,0,.75.31.35.35,0,0,0,.13.08s0,0,0,0a.46.46,0,0,0,.23.1l0,0h0a.37.37,0,0,1-.18.64A1,1,0,0,1,51.79,55.7Z"/><path class="cls-2" d="M52.43,55.47a.16.16,0,0,1,.1.05.46.46,0,0,1-.23-.1S52.38,55.44,52.43,55.47Z"/><path class="cls-2" d="M52.4,56.18h-.15a8,8,0,0,1-.9-.18l-.15-.3a.38.38,0,0,1,0-.18,5.08,5.08,0,0,0,.59.18h0A1,1,0,0,0,52.4,56.18Z"/><path class="cls-2" d="M52.15,55.34A2.13,2.13,0,0,1,51.4,55a.4.4,0,0,1,.54.1A.7.7,0,0,0,52.15,55.34Z"/><path class="cls-2" d="M33.1,142.74l-.28,0a8.14,8.14,0,0,0-.87-.05.67.67,0,0,1,.05-.31l.82.08A.28.28,0,0,1,33.1,142.74Z"/><path class="cls-2" d="M32.82,142.72l.28,0a.24.24,0,0,1-.28.26l-.82-.08a.62.62,0,0,1-.05-.25A8.14,8.14,0,0,1,32.82,142.72Z"/><path class="cls-3" d="M80.31,63.91c-5.52-1.84,5.52-8.83,6.26-4.78.37,3.31-6.26,4-6.63,4"/><path class="cls-3" d="M80.31,63.91c-5.52-1.84,5.52-8.83,6.26-4.78.37,3.31-6.26,4-6.63,4"/><path class="cls-3" d="M80.44,63.78c-.5-.39-1.15-.78-1.15-1.49S80,61,80.38,60.62a7.5,7.5,0,0,1,4.38-2.1c.6,0,1.13.17,1.16.84.06,1-1.08,1.65-1.9,2a13.24,13.24,0,0,1-2.78.73,9,9,0,0,0-1,.16.91.91,0,0,0-.54.42c-.28.48,0,.05.14,0a.54.54,0,0,0,0,1c.21.07-.09,0-.14-.11a.9.9,0,0,0,.79.45,9.1,9.1,0,0,0,3.3-.85,6.11,6.11,0,0,0,3.06-2.27c1.24-2-.27-3.88-2.39-3.63A8.52,8.52,0,0,0,79,60.48c-1.1,1.48-.87,3.58,1.33,3.61.15,0,.26-.21.13-.31Z"/><path class="cls-3" d="M106.92,136.46c-17.11-4.27-35.29,4.28-51.33-6.41,20.32-3.21,23.52-19.25,46-12.84,6.42,2.14,16-1.07,12.83,11.77-2.13,5.34-5.34,7.48-12.83,6.41"/><path class="cls-3" d="M106.92,136.46c-17.11-4.27-35.29,4.28-51.33-6.41,20.32-3.21,23.52-19.25,46-12.84,6.42,2.14,16-1.07,12.83,11.77-2.13,5.34-5.34,7.48-12.83,6.41"/><path class="cls-3" d="M107,136.09c-11.58-3.08-23.7-.29-35.49-1.23a36,36,0,0,1-11.75-3.13c-4.64-2,.4-2,2.66-2.76A50.24,50.24,0,0,0,73,123.68c9.47-5.81,17.1-8.84,28.39-5.88,3.15.83,6.43.87,9.58,1.7,5.28,1.4,3.46,8.57,1.65,11.8-2.33,4.13-7.06,3.92-11.07,3.51-.75-.07-.73,1.08,0,1.16,8,1,13-2.33,14-10.54.81-6.3-4.75-7.42-9.67-8-8.88-1-15.7-3.73-24.44,0-9.13,3.86-15.9,10.22-26,12.06a.61.61,0,0,0-.14,1.11c15.77,9.73,34.26,3.23,51.54,6.27.49.09.7-.62.21-.75Z"/><path class="cls-3" d="M79.11,119.35a26.88,26.88,0,0,1-16-2.14c7.49-5.34,22.46-11.76,24.6,1.07"/><path class="cls-3" d="M79.11,119.35a26.88,26.88,0,0,1-16-2.14c7.49-5.34,22.46-11.76,24.6,1.07"/><path class="cls-3" d="M79.11,119a32.85,32.85,0,0,1-13.36-1.3c-2.78-.88-.71-1.14.85-2.06a40.87,40.87,0,0,1,3.72-1.92c6.62-3.11,14.78-4.06,16.85,4.69.16.66,1.12.38,1-.27-2.43-13.44-18.2-6.46-25.39-1.44-.32.23-.43.81,0,1a25.92,25.92,0,0,0,16.42,2c.38-.08.3-.71-.09-.67Z"/></g></g></svg>