<svg xmlns="http://www.w3.org/2000/svg" viewBox="0 0 480.76 326.51"><defs><style>.cls-1{fill:#fff;}</style></defs><title>icon_clear_member</title><g id="レイヤー_2" data-name="レイヤー 2"><g id="_2" data-name="2"><path class="cls-1" d="M240.38,135.54a64.09,64.09,0,1,0-64.09-64.09A64.09,64.09,0,0,0,240.38,135.54Z"/><path class="cls-1" d="M320.24,326.51V273.29A50.57,50.57,0,0,1,330,243.44L475.23,44.86a28.12,28.12,0,0,0-45.18-33.49L354.93,112.73a101.18,101.18,0,0,1-81.26,40.91H207.11a101.12,101.12,0,0,1-81.25-40.91L50.71,11.37A28.12,28.12,0,0,0,5.53,44.86L150.78,243.44a50.57,50.57,0,0,1,9.76,29.85v53.22Z"/></g></g></svg>