<svg xmlns="http://www.w3.org/2000/svg"><g data-name="グループ 443" fill="#afa850"><path data-name="パス 2161" d="M8.819 26.684a3.684 3.684 0 0 0 7.262 0l.019-.108H8.8z"/><path data-name="パス 2162" d="M24.867 21.611c-.3-.3-.6-.55-.895-.794-1.235-1.025-2.3-1.911-2.3-5.587v-2.916A9.264 9.264 0 0 0 14.49 3.32a2.239 2.239 0 0 0 .252-1.026 2.295 2.295 0 0 0-4.589 0 2.236 2.236 0 0 0 .252 1.026 9.264 9.264 0 0 0-7.181 8.994v2.916c0 3.676-1.066 4.562-2.3 5.587-.294.244-.6.5-.895.794l-.027.027v2.893h24.893v-2.893z"/></g></svg>
