<svg id="レイヤー_1" xmlns="http://www.w3.org/2000/svg" viewBox="0 0 27.3 26.6"><style>.st0{fill:#fff}</style><g id="旗のフリーアイコン" transform="rotate(14 26.372 -162.434)"><path id="パス_10" class="st0" d="M53.8 5.5c3.8.7 3.7 2.6 6.8 2.3 1 0 2.1-.6 2.3-.3.2.2-1.2 3.6-3.5 4.6-1.9.8-4.4.9-5.6.1V5.5z"/><path id="パス_11" class="st0" d="M52 19.5c-.5 0-.9-.4-.9-.9V6c0-.5.4-.9.9-.9s.9.4.9.9v12.6c0 .5-.4.9-.9.9z"/></g><path class="st0" d="M18 .5H4.3c-.3 0-.5.3-.5.6v24.4c0 .3.3.6.6.6H23c.3 0 .6-.3.6-.6V6.1L18 .5zm-.2 1.9l4 4h-4v-4zm4.4 22.2h-17V1.9h11.5v4.5c0 .3.1.6.3.8.2.2.5.3.8.3h4.4v17.1z"/></svg>