<?xml version="1.0" encoding="utf-8"?>
<!-- Generator: Adobe Illustrator 23.0.6, SVG Export Plug-In . SVG Version: 6.00 Build 0)  -->
<svg version="1.1" id="レイヤー_1" xmlns="http://www.w3.org/2000/svg" xmlns:xlink="http://www.w3.org/1999/xlink" x="0px"
	 y="0px" viewBox="0 0 480.8 326.5" style="enable-background:new 0 0 480.8 326.5;" xml:space="preserve">
<title>icon_clear_member</title>
<g>
	<g id="_2">
		<path d="M240.4,135.5c35.4,0,64.1-28.7,64.1-64.1S275.8,7.4,240.4,7.4s-64.1,28.7-64.1,64.1l0,0
			C176.3,106.8,205,135.5,240.4,135.5z"/>
		<path d="M320.2,326.5v-53.2c0-10.7,3.4-21.2,9.8-29.9L475.2,44.9c9.2-12.5,6.4-30.1-6.1-39.3c-12.4-9.1-29.8-6.5-39.1,5.8
			l-75.1,101.4c-19.1,25.7-49.2,40.9-81.3,40.9h-66.6c-32,0-62.2-15.2-81.2-40.9L50.7,11.4C41.4-1,23.8-3.6,11.3,5.8
			C-1,15-3.6,32.4,5.5,44.9l145.2,198.6c6.3,8.7,9.8,19.1,9.8,29.9v53.2H320.2z"/>
	</g>
</g>
</svg>
