<svg xmlns="http://www.w3.org/2000/svg" viewBox="0 0 512 369.94"><defs><style>.cls-1{fill:#fff;}</style></defs><title>icon_helpful</title><g id="レイヤー_2" data-name="レイヤー 2"><g id="_2" data-name="2"><path class="cls-1" d="M505.84,109.39,279.27,5.09a55.71,55.71,0,0,0-46.53,0L6.16,109.39a10.6,10.6,0,0,0,0,19.25l226.58,104.3a55.61,55.61,0,0,0,46.53,0l178.81-82.31v82.88a14.21,14.21,0,0,0-2.43,27.76l-12.09,79.79h55.68l-12.09-79.79a14.21,14.21,0,0,0-2.43-27.76V138.36l21.12-9.72a10.6,10.6,0,0,0,0-19.25Z"/><path class="cls-1" d="M256,275.8a77,77,0,0,1-32.39-7.1l-110.82-51V319.32c0,22.31,67.43,50.62,143.21,50.62s143.21-28.31,143.21-50.62V217.68l-110.83,51A76.94,76.94,0,0,1,256,275.8Z"/></g></g></svg>