<svg xmlns="http://www.w3.org/2000/svg" width="50.432" height="38.061"><g data-name="グループ 436" fill="#c68e4f"><path data-name="パス 553" d="M47.98 2.453a8.359 8.359 0 0 0-5.925-2.454H8.377A8.374 8.374 0 0 0 0 8.375v21.309a8.376 8.376 0 0 0 8.377 8.376h33.678a8.375 8.375 0 0 0 8.377-8.376V8.375a8.361 8.361 0 0 0-2.452-5.922zm-1.354 27.231a4.57 4.57 0 0 1-4.571 4.57H8.377a4.572 4.572 0 0 1-4.571-4.57V8.375a4.572 4.572 0 0 1 4.571-4.57h33.678a4.572 4.572 0 0 1 4.571 4.57z"/><path data-name="パス 554" d="M14.74 12.127L8.615 5.966l-1.619 1.61 6.766 6.8a6.491 6.491 0 0 1 .978-2.249z"/><path data-name="パス 555" d="M43.438 7.576l-1.619-1.61-6.125 6.161a6.487 6.487 0 0 1 .978 2.254z"/><path data-name="パス 556" d="M34.628 22.385l-1.482 1.738.058.05 9.675 8.253 1.483-1.739-9.693-8.267z"/><path data-name="パス 557" d="M15.765 22.422l-9.693 8.266 1.483 1.739 9.674-8.253.059-.05-1.481-1.738z"/><path data-name="パス 558" d="M29.502 12.014a4.286 4.286 0 0 0-4.286 4.286 4.286 4.286 0 1 0-8.572 0c0 2.226 1.048 6.475 7.318 9.25.4.175 1.2.484 1.2.484a.159.159 0 0 0 .116 0s.8-.309 1.2-.484c6.27-2.774 7.319-7.024 7.319-9.25a4.286 4.286 0 0 0-4.295-4.286z"/></g></svg>