<svg xmlns="http://www.w3.org/2000/svg" viewBox="0 0 30 30"><path d="M24.9 10.9c0-1.1-.2-1.8-.5-2.4-.3-.7-.6-1.2-1.1-1.8-.6-.6-1.1-.9-1.8-1.1-.6-.2-1.4-.4-2.4-.5C18 5.1 17.7 5 15 5s-3 0-4.1.1c-1.1 0-1.8.2-2.4.5-.7.3-1.2.6-1.8 1.1-.5.6-.8 1.1-1.1 1.8-.2.6-.4 1.4-.5 2.4C5.1 12 5 12.3 5 15s0 3 .1 4.1c0 1.1.2 1.8.5 2.4.3.7.6 1.2 1.1 1.8.6.6 1.1.9 1.8 1.1.6.2 1.4.4 2.4.5 1.1 0 1.4.1 4.1.1s3 0 4.1-.1c1.1 0 1.8-.2 2.4-.5.7-.3 1.2-.6 1.8-1.1.6-.6.9-1.1 1.1-1.8.2-.6.4-1.4.5-2.4 0-1.1.1-1.4.1-4.1s-.1-3-.1-4.1zM23.1 19c0 1-.2 1.5-.3 1.8-.2.5-.4.8-.7 1.1-.3.3-.7.6-1.1.7-.5.3-1 .4-2 .5-1 0-1.4.1-4 .1s-3 0-4-.1c-1 0-1.5-.2-1.8-.3-.5-.2-.9-.4-1.2-.8-.3-.3-.6-.7-.7-1.1-.2-.4-.3-.9-.4-1.9 0-1-.1-1.4-.1-4s0-3 .1-4c0-1 .2-1.5.3-1.8.2-.5.4-.9.8-1.2.3-.3.7-.6 1.1-.7.4-.2.9-.3 1.9-.4 1 0 1.4-.1 4-.1s3 0 4 .1c1 0 1.5.2 1.8.3.5.2.9.4 1.2.8.3.3.6.7.7 1.1.2.4.3.9.4 1.9 0 1 .1 1.4.1 4s-.1 3-.1 4zM15 9.9c-2.8 0-5.1 2.3-5.1 5.1s2.3 5.1 5.1 5.1 5.1-2.3 5.1-5.1-2.3-5.1-5.1-5.1zm0 8.4c-1.8 0-3.3-1.5-3.3-3.3s1.5-3.3 3.3-3.3 3.3 1.5 3.3 3.3-1.5 3.3-3.3 3.3zm5.3-9.8c-.7 0-1.2.5-1.2 1.2s.5 1.2 1.2 1.2 1.2-.5 1.2-1.2c0-.6-.6-1.2-1.2-1.2z" fill="#fff"/></svg>