<svg xmlns="http://www.w3.org/2000/svg" width="20" height="16.251"><path data-name="パス 907" d="M6.29 16.25A11.6 11.6 0 0 0 17.965 4.575c0-.178 0-.354-.012-.53A8.349 8.349 0 0 0 20 1.922a8.19 8.19 0 0 1-2.357.646 4.117 4.117 0 0 0 1.8-2.27 8.223 8.223 0 0 1-2.606 1A4.107 4.107 0 0 0 9.844 5.04 11.65 11.65 0 0 1 1.392.75a4.106 4.106 0 0 0 1.27 5.478A4.073 4.073 0 0 1 .8 5.714v.052a4.1 4.1 0 0 0 3.292 4.022 4.1 4.1 0 0 1-1.853.07 4.108 4.108 0 0 0 3.834 2.85 8.234 8.234 0 0 1-5.1 1.76 8.352 8.352 0 0 1-.977-.059 11.617 11.617 0 0 0 6.29 1.84" fill="#fff"/></svg>