<svg xmlns="http://www.w3.org/2000/svg" viewBox="0 0 363 281.06"><defs><style>.cls-1{fill:#fff}</style></defs><g id="レイヤー_2" data-name="レイヤー 2"><g id="_2" data-name="2"><path class="cls-1" d="M363 192.26V73.78a40.75 40.75 0 0 0-38.9-40.71 40.51 40.51 0 0 1 6.9 22.69v118.48A40.76 40.76 0 0 1 290.24 215H117.92l-34.25 17.21a40.73 40.73 0 0 0 8.09.81h172.32l95.58 48L327 232.74a40.77 40.77 0 0 0 36-40.48z"/><path class="cls-1" d="M271.24 0H40.76A40.76 40.76 0 0 0 0 40.76v118.48a40.77 40.77 0 0 0 36 40.48L3.34 248l95.58-48h172.32A40.76 40.76 0 0 0 312 159.24V40.76A40.76 40.76 0 0 0 271.24 0zM96.44 113.68a10.9 10.9 0 1 1 10.9-10.89 10.84 10.84 0 0 1-10.9 10.89zm57.58 0a10.9 10.9 0 1 1 10.9-10.89A10.84 10.84 0 0 1 154 113.68zm57.58 0a10.9 10.9 0 1 1 10.9-10.89 10.84 10.84 0 0 1-10.9 10.89z"/></g></g></svg>