<svg id="レイヤー_1" xmlns="http://www.w3.org/2000/svg" viewBox="0 0 512 512"><style>.st0{fill:#f88c8c}.st1{font-family:&apos;DISCO&apos;}.st2{font-size:186.72px}</style><g id="_2"><path class="st0" d="M256 0C114.6 0 0 114.6 0 256s114.6 256 256 256 256-114.6 256-256S397.4 0 256 0zm0 464c-114.7 0-208-93.3-208-208S141.3 48 256 48s208 93.3 208 208-93.3 208-208 208z"/><path class="st0" d="M256 80c-97 0-176 79-176 176s79 176 176 176 176-79 176-176S353 80 256 80zm0 336c-88.2 0-160-71.8-160-160S167.8 96 256 96s160 71.8 160 160-71.8 160-160 160z"/><text transform="translate(143.69 314.49)" class="st0 st1 st2">W</text><text transform="translate(143.69 314.49)" class="st1 st2" fill="#f88c8c" stroke="#f88c8c" stroke-width="17.01" stroke-linecap="square" stroke-linejoin="round">W</text></g></svg>