<svg id="レイヤー_1" xmlns="http://www.w3.org/2000/svg" viewBox="0 0 50.4 38.1"><style>.st0{fill:#fff}</style><g id="グループ_436" transform="translate(0 -62.801)"><path id="パス_553" class="st0" d="M48 65.3c-1.6-1.6-3.7-2.5-5.9-2.5H8.4c-4.6 0-8.4 3.7-8.4 8.4v21.3c0 4.6 3.8 8.4 8.4 8.4h33.7c4.6 0 8.4-3.7 8.4-8.4V71.2c-.1-2.2-.9-4.4-2.5-5.9zm-1.4 27.2c0 2.5-2 4.6-4.6 4.6H8.4c-2.5 0-4.6-2-4.6-4.6V71.2c0-2.5 2-4.6 4.6-4.6h33.7c2.5 0 4.6 2 4.6 4.6v21.3z"/><path id="パス_554" class="st0" d="M14.7 74.9l-6.1-6.2L7 70.4l6.8 6.8c.1-.8.5-1.6.9-2.3z"/><path id="パス_555" class="st0" d="M43.4 70.4l-1.6-1.6-6.1 6.2c.5.7.8 1.4 1 2.3l6.7-6.9z"/><path id="パス_556" class="st0" d="M34.6 85.2l-1.5 1.7h.1l9.7 8.3 1.5-1.7-9.8-8.3z"/><path id="パス_557" class="st0" d="M15.8 85.2l-9.7 8.3 1.5 1.7 9.7-8.3h.1l-1.6-1.7z"/><path id="パス_558" class="st0" d="M29.5 74.8c-2.4 0-4.3 1.9-4.3 4.3 0-2.4-1.9-4.3-4.3-4.3s-4.3 1.9-4.3 4.3c0 2.2 1 6.5 7.3 9.2.4.2 1.2.5 1.2.5h.1s.8-.3 1.2-.5c6.3-2.8 7.3-7 7.3-9.2.1-2.4-1.8-4.3-4.2-4.3z"/></g></svg>