<svg xmlns="http://www.w3.org/2000/svg" viewBox="0 0 512 512" style="width:256px;height:256px"><path d="M366.591 327.334a85.933 85.933 0 0 0-5.246 5.769l-177.672-69.814c.189-2.407.314-4.833.314-7.289 0-2.456-.125-4.882-.314-7.289l177.673-69.814a85.933 85.933 0 0 0 5.246 5.769c33.264 33.264 87.196 33.264 120.461 0 33.264-33.264 33.264-87.197 0-120.461-33.265-33.264-87.197-33.264-120.461 0-17.823 17.824-26.084 41.579-24.808 64.911l-177.668 69.812c-16.85-21.264-42.883-34.92-72.121-34.92C41.187 164.007 0 205.194 0 256s41.187 91.993 91.993 91.993c29.238 0 55.27-13.656 72.12-34.92l177.669 69.812c-1.276 23.332 6.985 47.088 24.808 64.911 33.264 33.264 87.196 33.264 120.461 0 33.264-33.264 33.264-87.197 0-120.461-33.264-33.265-87.196-33.265-120.46-.001z" fill="#fff"/></svg>