<svg xmlns="http://www.w3.org/2000/svg" viewBox="0 0 397.7 506.67"><defs><style>.cls-1{fill:#afa850;}.cls-2,.cls-3{fill:none;}.cls-3{stroke:#fff;stroke-width:14.17px;}.cls-4{isolation:isolate;font-size:198.43px;fill:#fff;font-family:ArialMT, Arial;}</style></defs><title>icon_tip</title><g id="レイヤー_2" data-name="レイヤー 2"><g id="レイヤー_1-2" data-name="レイヤー 1"><path class="cls-1" d="M57.5,107c11.3,13.45,26.9,25,45.8,33.34a165.4,165.4,0,0,0,65.9,13.36c14,0,29.2.1,29.8,0,.5.1,15.8,0,29.8,0a166.69,166.69,0,0,0,51.6-7.91c23.4-7.62,42.8-20,56.6-34.93a90.91,90.91,0,0,0,16.3-24.25,65.77,65.77,0,0,0,6.1-26.92,56,56,0,0,0-3-18.11,58.18,58.18,0,0,0-9.8-17.71A62,62,0,0,0,323.7,6a69.17,69.17,0,0,0-49.9-2.57,71.51,71.51,0,0,0-29.5,18.6c-8.6,8.91-15.6,20.48-20.2,34.54-6,18.2-23.9,59.57-24.4,60.56H198c-.5-1-18.4-42.36-24.4-60.56a94.88,94.88,0,0,0-12.1-24.74,75.08,75.08,0,0,0-27.1-24A69.4,69.4,0,0,0,102.4,0,66.2,66.2,0,0,0,65.7,10.79,62,62,0,0,0,51.3,23.85a60.38,60.38,0,0,0-9.8,17.71,56,56,0,0,0-3,18.11,61.69,61.69,0,0,0,2.8,18.11A84.93,84.93,0,0,0,57.5,107ZM251.4,65.31A66.49,66.49,0,0,1,259.9,48a46.79,46.79,0,0,1,16.8-15,41.26,41.26,0,0,1,18.8-4.55,38.91,38.91,0,0,1,20.9,6,32.26,32.26,0,0,1,7.7,7A34.7,34.7,0,0,1,329.3,51a26.68,26.68,0,0,1,1.5,8.8,34.26,34.26,0,0,1-1.6,10A55.87,55.87,0,0,1,318.3,89c-8.1,9.69-20.1,18.9-35.4,25.53a134.42,134.42,0,0,1-54.3,10.88c-1.1,0-2.2,0-3.2-.1C232.9,112.81,242,93.81,251.4,65.31ZM68.5,50.87a30.94,30.94,0,0,1,5.2-9.4,32.59,32.59,0,0,1,12.4-9.6,39.64,39.64,0,0,1,16.2-3.47,42.1,42.1,0,0,1,12.6,2,42.77,42.77,0,0,1,17.7,11.28C138,47.3,142.9,55,146.3,65.41c9.4,28.5,18.5,47.5,26,60h-3.2a137.66,137.66,0,0,1-42.9-6.53c-19-6.13-34.2-16.13-44.3-27.11A62.6,62.6,0,0,1,70.6,75,36.74,36.74,0,0,1,67,59.67,26.29,26.29,0,0,1,68.5,50.87Z"/><path class="cls-1" d="M397.7,176.15H0v94.4H15.9V462c0,24.64,20.2,44.63,45.1,44.63H336.6c24.9,0,45.1-20,45.1-44.63V270.55h16Z"/><ellipse class="cls-2" cx="202.21" cy="345.91" rx="141.73" ry="138.79"/><ellipse class="cls-3" cx="202.21" cy="345.91" rx="138.78" ry="135.9"/><text class="cls-4" transform="translate(110.06 424.21) scale(1.01 1)">W</text></g></g></svg>