<svg xmlns="http://www.w3.org/2000/svg" viewBox="0 0 96.5 101.5"><defs><style>.cls-1{fill:#78573f}.cls-4{fill:#3a7035}.cls-5{fill:#d16c36}.cls-6{fill:#e8ad56}.cls-8{fill:#994f3f}.cls-10{fill:#523a20}.cls-11{fill:#e9d8cd}</style></defs><g id="レイヤー_2" data-name="レイヤー 2"><g id="レイヤー_1-2" data-name="レイヤー 1"><path class="cls-1" d="M26.18 99.42l6.84-.75-5.36-40.31 14.03-28.73-3.04-1.35-16.23 29.03 3.76 42.11z"/><path class="cls-1" d="M25.68 52.33l4.22-2.62-3.63-21.59-2.87.76 2.28 23.45zM36.87 61.59l1.61 3.27 18.57-2.37-.35-2.15-19.83 1.25zM14.14 75.95l2.43-2.47L7.93 61.1l-1.84 1.11 8.05 13.74zM24.04 61.59l3.14-3.48L5.75 44.03l-.62 2.5 18.91 15.06z"/><path class="cls-1" d="M28.43 75.71l24.94-22.55-1.8-3.17-25.68 20.08 2.54 5.64zM26.77 82.71l2.83-6.27L0 66.41l.39 3.54 26.38 12.76z"/><path d="M43.25 41.75A3.47 3.47 0 0 0 45 37.17a3.38 3.38 0 0 0-4.69-1.38c-2.57 1.28-3.4 4.81-3.17 5.29s3.54 1.92 6.11.67z" fill="#8f9f50"/><path d="M19.82 46.11a3.45 3.45 0 0 0-2.36-4.28 3.36 3.36 0 0 0-4.09 2.67c-.69 2.78 1.46 5.71 2 5.84s3.76-1.45 4.45-4.23z" fill="#7a772c"/><path class="cls-4" d="M48.56 70.13a3.45 3.45 0 0 0 4.85.63 3.37 3.37 0 0 0 .26-4.88c-1.83-2.2-5.46-2.2-5.87-1.86s-1.07 3.91.76 6.11zM1.33 74.41A3.46 3.46 0 0 0 1 79.29a3.37 3.37 0 0 0 4.89 0c2.09-2 1.88-5.58 1.51-6s-3.98-.84-6.07 1.12z"/><path class="cls-5" d="M21.26 28.31a3.47 3.47 0 0 0-4.84-.75 3.39 3.39 0 0 0-.37 4.88c1.78 2.24 5.41 2.33 5.82 2s1.13-3.89-.61-6.13z"/><path class="cls-6" d="M37.62 27.32a3.46 3.46 0 0 0-4-2.83 3.39 3.39 0 0 0-2.52 4.2c.59 2.8 3.8 4.5 4.32 4.39s2.79-2.96 2.2-5.76zM3.34 49.2a3.45 3.45 0 0 0-2.25 4.34 3.38 3.38 0 0 0 4.5 1.91c2.69-1 3.93-4.38 3.75-4.88s-3.34-2.34-6-1.37z"/><path d="M16.81 62.85a3.46 3.46 0 0 0-3.15-3.74 3.37 3.37 0 0 0-3.49 3.42c-.14 2.86 2.54 5.31 3.07 5.34s3.43-2.16 3.57-5.02z" fill="#af2024"/><path class="cls-8" d="M40.85 20.39l-6.35 3.56L32 13.32l7.19-.94 1.66 8.01zM80.8 97.5H35.29l-2.28-68.27L58.05 7.62l25.6 23.89L80.8 97.5z"/><path fill="#533a20" d="M24.93 44.52l-6.58-6.68L56.8 0l39.7 36.59-6.36 6.9-33.13-30.54-32.08 31.57z"/><path class="cls-10" d="M32.67 32.76h51.59v3.75H32.67z"/><path class="cls-10" d="M55.14 9.25h3.13v24.39h-3.13z"/><path class="cls-10" transform="rotate(-42.95 50.662 27.797)" d="M49.1 19.54h3.13v16.52H49.1z"/><path class="cls-10" transform="rotate(-48.57 64.63 26.347)" d="M55.18 24.78h18.91v3.13H55.18z"/><path class="cls-10" d="M47.88 38.88l19.09.56-.85 19.6-17.32.88-.92-21.04z"/><path class="cls-11" d="M49.66 40.63l15.54.46-.71 16.33-14.06.71-.77-17.5z"/><path class="cls-10" d="M62.41 46.76l-5.08-.11.11-3.91 5.13.05-.16 3.97zM62.2 51.34h-4.76v-4l4.97.02-.21 3.98zM56.38 46.65l-4.66.09-.1-4.27 4.86.27zm.1.69h-4.76v4h4.76zm.21 4.76H52v4.13l4.44-.07zm5.51 0h-4.76v4.06h4.92z"/><path class="cls-5" d="M57.47 97.47H44.69l-.97-21.5 14.14.48-.39 21.02z"/><path class="cls-10" d="M39.71 12.4l-8.76 2.37-.66-3.79 8.93-1.29.49 2.71zM55.46 78.05l-11.89-2.19.83 21.61 10.12 4.03.94-23.45zM64.44 89.44l-.73-23.52 15.38-.41-.55 23.93h-14.1z"/><path class="cls-11" d="M65.46 67.57l11.88-.31-.46 20.48H66.09l-.63-20.17z"/><path class="cls-1" d="M66.17 70.49l.13-1.39c3.25 0 7.41-.76 10.66-.81l-.17 1.53c-3.26.04-7.38.63-10.62.67zM66.51 72.53l.61-1.27c3.24.06 6.55-.29 9.77-.22v1.54c-3.29-.07-7.16.01-10.38-.05zM66.46 75.05l.11-1.47c3.25 0 6.76.07 10 .07v1.31c-3.31.04-6.87.09-10.11.09zM66.5 77.64l.42-1.48h9.78l.09 1.4zM66.43 80.81l-.06-1.5c3.25-.09 6.85.13 10.1 0l-.11 1.4c-3.26.13-6.69.01-9.93.1zM66.65 83.33v-1.4c3.26-.09 6.16.08 9.41 0l.16 1.3c-3.28.08-6.33 0-9.57.1zM66.62 86.3v-1.39c3.26-.09 6.67 0 9.92-.06l-.14 1.37c-3.29.09-6.54-.01-9.78.08z"/></g></g></svg>