<svg xmlns="http://www.w3.org/2000/svg" viewBox="0 0 239.07 17.07"><defs><style>.cls-1{fill:#af9874;}</style></defs><title>kazariF_top</title><g id="レイヤー_2" data-name="レイヤー 2"><g id="_3" data-name="3"><path class="cls-1" d="M231.29,7.79a7.31,7.31,0,0,0-5-7.58c-2.53-.94-5.5,1.45-3.76,3.18,0,0,.29.58.65-.36a2.68,2.68,0,0,1,2.31-1.88c-.43.44-.65,1.38.29.87s3.33,0,4.27,2.1a6.7,6.7,0,0,1,.45,3.8,8.06,8.06,0,0,0-.89.26c-3,1-5.49,4.18-4.19,5.48s4.45-1.16,5.49-4.18a8.76,8.76,0,0,0,.25-.9A6.74,6.74,0,0,1,235,9c2.09.94,2.6,3.33,2.09,4.27s.44.72.87.29A2.67,2.67,0,0,1,236,15.9c-.94.37-.36.66-.36.66,1.74,1.73,4.12-1.23,3.18-3.77A7.3,7.3,0,0,0,231.29,7.79ZM229,11.45c-1.25,1.7-2.48,2-2.92,1.56s-.13-1.67,1.56-2.92a8.3,8.3,0,0,1,2.69-1.32A8.29,8.29,0,0,1,229,11.45Z"/><path class="cls-1" d="M229.63,7.81a.16.16,0,0,0,.13.18.17.17,0,0,0,.18-.13,7.45,7.45,0,0,0,0-.81,7,7,0,0,0-.35-2.26,4.38,4.38,0,0,0-1.7-2.3.16.16,0,0,0-.22,0,.17.17,0,0,0,0,.22,4,4,0,0,1,1.58,2.14,6.84,6.84,0,0,1,.34,2.16,6.53,6.53,0,0,1,0,.71Z"/><path class="cls-1" d="M231.36,9.34h.21l.56,0a6.84,6.84,0,0,1,2.16.33,4.05,4.05,0,0,1,2.14,1.59.15.15,0,1,0,.25-.18,4.39,4.39,0,0,0-2.29-1.7A7,7,0,0,0,232.13,9a4.36,4.36,0,0,0-.81,0,.15.15,0,0,0-.13.17A.16.16,0,0,0,231.36,9.34Z"/><path class="cls-1" d="M229.94,1.74a.31.31,0,0,0,.44,0,.34.34,0,0,0,.09-.22.31.31,0,0,0-.62,0A.34.34,0,0,0,229.94,1.74Z"/><path class="cls-1" d="M231,2.37a.3.3,0,0,0-.06.43.31.31,0,1,0,.49-.37A.31.31,0,0,0,231,2.37Z"/><path class="cls-1" d="M232.63,5.35a.31.31,0,1,0-.61.05.31.31,0,0,0,.61-.05Z"/><path class="cls-1" d="M232.24,3.8a.3.3,0,1,0-.16.4A.3.3,0,0,0,232.24,3.8Z"/><path class="cls-1" d="M232.2,7.18a.31.31,0,0,0,.31-.3.34.34,0,0,0-.09-.22.31.31,0,0,0-.44,0,.34.34,0,0,0-.09.22.31.31,0,0,0,.31.3Z"/><path class="cls-1" d="M233.45,6.71a.3.3,0,0,0,.27.34.3.3,0,0,0,.08-.6A.31.31,0,0,0,233.45,6.71Z"/><path class="cls-1" d="M235.39,6.94a.31.31,0,0,0-.41.14.31.31,0,0,0,.14.41.31.31,0,0,0,.27-.55Z"/><path class="cls-1" d="M236.78,7.81a.3.3,0,1,0-.37.48.31.31,0,0,0,.43,0A.3.3,0,0,0,236.78,7.81Z"/><path class="cls-1" d="M237.54,9.33a.27.27,0,0,0,.21.09.31.31,0,0,0,.22-.09.27.27,0,0,0,.09-.21.31.31,0,0,0-.31-.31.27.27,0,0,0-.21.09.31.31,0,0,0-.09.22A.27.27,0,0,0,237.54,9.33Z"/><path class="cls-1" d="M227.53,5.19c-.27-.11-1.38-.3-1.14.27s1.13.37,1.82,1c.4.41.49.93-.33,1.09a2.57,2.57,0,0,0-1.81,1.71,5.64,5.64,0,0,1,2.84-1.55c.25-.73-.11-3.58-1.52-4.34s-2.49-.32-2.57,1C225,5.29,225.74,3.4,227.53,5.19Z"/><path class="cls-1" d="M235.67,11.7c-.76-1.41-3.6-1.76-4.33-1.52A5.79,5.79,0,0,1,229.79,13a2.61,2.61,0,0,0,1.71-1.82c.16-.81.68-.73,1.08-.32.69.68.49,1.57,1.06,1.82s.38-.87.27-1.14c1.79,1.79-.11,2.55.82,2.71C236,14.2,236.43,13.11,235.67,11.7Z"/><path class="cls-1" d="M14.57,6.62h209.7l-3.7-1.15H18.27Z"/><path class="cls-1" d="M218.42,4a28.08,28.08,0,0,1-.23-3H20.65a28.08,28.08,0,0,1-.23,3h198Z"/><path class="cls-1" d="M7.79,7.79a7.31,7.31,0,0,0-7.58,5c-.94,2.54,1.45,5.5,3.18,3.77,0,0,.58-.29-.36-.66a2.68,2.68,0,0,1-1.88-2.31c.44.43,1.38.65.87-.29S2,10,4.12,9a6.7,6.7,0,0,1,3.8-.45,8.9,8.9,0,0,0,.26.9c1,3,4.18,5.48,5.48,4.18S12.5,9.22,9.48,8.18a8.9,8.9,0,0,0-.9-.26A6.7,6.7,0,0,1,9,4.12C10,2,12.36,1.51,13.3,2s.72-.43.29-.87A2.68,2.68,0,0,1,15.9,3c.37.94.66.36.66.36C18.29,1.66,15.33-.73,12.79.21A7.31,7.31,0,0,0,7.79,7.79Zm3.66,2.3c1.7,1.25,2,2.49,1.56,2.92s-1.67.14-2.92-1.56A8.26,8.26,0,0,1,8.77,8.77,8.26,8.26,0,0,1,11.45,10.09Z"/><path class="cls-1" d="M7.81,9.44A.16.16,0,0,0,8,9.31a.16.16,0,0,0-.13-.17,6,6,0,0,0-.81-.05,7.29,7.29,0,0,0-2.26.35,4.4,4.4,0,0,0-2.3,1.71.15.15,0,0,0,0,.21.16.16,0,0,0,.22,0A4.12,4.12,0,0,1,4.89,9.73,6.8,6.8,0,0,1,7.05,9.4c.35,0,.61,0,.71,0Z"/><path class="cls-1" d="M9.34,7.71v0s0-.09,0-.15,0-.33,0-.57a6.88,6.88,0,0,1,.33-2.16,4,4,0,0,1,1.59-2.13.17.17,0,0,0,0-.22.16.16,0,0,0-.22,0,4.39,4.39,0,0,0-1.7,2.29A7.08,7.08,0,0,0,9,6.94a4.66,4.66,0,0,0,0,.82.15.15,0,0,0,.17.13A.17.17,0,0,0,9.34,7.71Z"/><path class="cls-1" d="M1.74,9.13a.31.31,0,0,0,.09-.22.27.27,0,0,0-.09-.21.29.29,0,0,0-.22-.09.27.27,0,0,0-.21.09.27.27,0,0,0-.09.21.31.31,0,0,0,.09.22.27.27,0,0,0,.21.09A.29.29,0,0,0,1.74,9.13Z"/><path class="cls-1" d="M2.37,8.06a.31.31,0,0,0,.49-.37.31.31,0,0,0-.49.37Z"/><path class="cls-1" d="M5.35,6.44a.31.31,0,0,0,.05.62.32.32,0,0,0,.28-.34A.31.31,0,0,0,5.35,6.44Z"/><path class="cls-1" d="M3.8,6.83A.31.31,0,1,0,4.2,7,.31.31,0,0,0,3.8,6.83Z"/><path class="cls-1" d="M7.18,6.88a.29.29,0,0,0-.09-.22.27.27,0,0,0-.21-.09.31.31,0,0,0-.31.31.29.29,0,0,0,.09.21.29.29,0,0,0,.22.09.27.27,0,0,0,.21-.09A.29.29,0,0,0,7.18,6.88Z"/><path class="cls-1" d="M6.71,5.62a.3.3,0,0,0,.34-.26.3.3,0,1,0-.6-.09A.3.3,0,0,0,6.71,5.62Z"/><path class="cls-1" d="M6.94,3.68a.31.31,0,0,0,.14.41.31.31,0,1,0,.27-.55A.31.31,0,0,0,6.94,3.68Z"/><path class="cls-1" d="M7.81,2.29a.31.31,0,1,0,.48.38.31.31,0,0,0,0-.43A.3.3,0,0,0,7.81,2.29Z"/><path class="cls-1" d="M9.33,1.54A.31.31,0,0,0,9.12,1a.36.36,0,0,0-.22.09.31.31,0,0,0,.22.53A.27.27,0,0,0,9.33,1.54Z"/><path class="cls-1" d="M5.19,11.54c-.11.28-.3,1.39.27,1.14s.37-1.13,1-1.81c.41-.41.93-.49,1.09.32A2.6,2.6,0,0,0,9.31,13a5.71,5.71,0,0,1-1.55-2.85c-.73-.24-3.58.11-4.34,1.52s-.32,2.5,1,2.58C5.29,14.09,3.4,13.33,5.19,11.54Z"/><path class="cls-1" d="M11.7,3.4C10.29,4.16,9.94,7,10.18,7.74A5.76,5.76,0,0,1,13,9.28a2.59,2.59,0,0,0-1.82-1.7c-.81-.17-.73-.68-.32-1.09.68-.68,1.57-.49,1.82-1.06s-.87-.38-1.14-.27c1.79-1.79,2.55.11,2.71-.81C14.2,3.07,13.11,2.64,11.7,3.4Z"/></g></g></svg>