<svg xmlns="http://www.w3.org/2000/svg" viewBox="0 0 368.44 59.51"><defs><style>.cls-1{fill:#231815}</style></defs><g id="レイヤー_2" data-name="レイヤー 2"><g id="レイヤー_4" data-name="レイヤー 4"><path class="cls-1" d="M34 36.6l-8.34 22.91h-5.41L0 3.86h23.07zM29.9 3.86h6.86l16.3 44.68C57.93 34.86 64.27 17.7 69.22 3.86H76L55.77 59.51h-5.49zM88.76 0v6.34h-6.33V0zm-6.33 14.68h6.33v44.83h-6.33zM143.87 24.65h-6.42V24a3.07 3.07 0 0 0-3-3h-26.9a3.07 3.07 0 0 0-3 3v6.87a3.07 3.07 0 0 0 3 3h26.9a9.35 9.35 0 0 1 9.43 9.35v6.88a9.35 9.35 0 0 1-9.43 9.35h-26.9a9.33 9.33 0 0 1-9.35-9.35v-.62h6.34v.62a3.07 3.07 0 0 0 3 3h26.9a3.07 3.07 0 0 0 3-3v-6.82a3.07 3.07 0 0 0-3-3h-26.9a9.34 9.34 0 0 1-9.35-9.36V24a9.34 9.34 0 0 1 9.35-9.36h26.9a9.36 9.36 0 0 1 9.43 9.36zM197.34 24v35.51H191V24a3.07 3.07 0 0 0-3-3h-26.9a3.09 3.09 0 0 0-3.1 3v35.51h-6.33V0H158v14.68h30a9.39 9.39 0 0 1 9.34 9.32zM260.56 3.86v55.65h-6.34V34.86h-44.44v24.65h-6.26V3.86h6.26v24.66h44.44V3.86zM314.65 14.68v35.48a9.35 9.35 0 0 1-9.43 9.35h-26.89a9.33 9.33 0 0 1-9.33-9.35V14.68h6.33v35.48a3.07 3.07 0 0 0 3 3h26.89a3.08 3.08 0 0 0 3.09-3V14.68zM368.44 24v26.16a9.33 9.33 0 0 1-9.35 9.35h-36.33V0h6.34v14.68h30a9.34 9.34 0 0 1 9.34 9.32zm-6.34 0a3.07 3.07 0 0 0-3-3h-26.9a3.08 3.08 0 0 0-3.09 3v26.16a3.08 3.08 0 0 0 3.09 3h26.9a3.07 3.07 0 0 0 3-3z"/></g></g></svg>