<svg xmlns="http://www.w3.org/2000/svg" viewBox="0 0 387.27 52.94"><defs><style>.cls-1{fill:#231815;stroke:#231815;stroke-miterlimit:10;stroke-width:1.42px}</style></defs><g id="レイヤー_2" data-name="レイヤー 2"><g id="レイヤー_2-2" data-name="レイヤー 2"><path class="cls-1" d="M34.13 5.29L52 49.54 69.13 5.29H71L53.16 51.37h-2.3L32.75 7.13zm-15 46.08L1 5.29h2l17.3 44.25zM91.21 51.37V14.69h2.14v36.68zM131.63 52.21q-8.86 0-13-2.44-4.81-2.91-5.57-10.09h2.06q.77 6 5 8.48 3.74 2.3 11.53 2.3a21.9 21.9 0 0 0 9.17-2q5.35-2.44 5.35-6.42 0-4.89-7.64-6.88c-.76-.2-1.5-.38-2.21-.53q-5.2-.91-15.59-3.52-5.82-1.9-5.81-7.72a7.74 7.74 0 0 1 3.49-6.39q4.22-3 11.93-3 7.17 0 10.77 2.29 4.13 2.67 5.2 9.17h-2c-.51-3.52-1.89-6-4.13-7.49s-5.53-2.22-9.85-2.22q-6.89 0-10.47 2.52a6.08 6.08 0 0 0-3 5.12q0 4.37 5 5.89a84.73 84.73 0 0 0 8.33 2c4.13.81 6.9 1.4 8.33 1.75q9.56 2.44 9.55 8.79 0 4.82-4.77 7.6a22.77 22.77 0 0 1-11.67 2.79zM201.71 51.37h-1.91V27.3a10.15 10.15 0 0 0-4.21-8.63q-3.89-2.84-10.31-2.83-8 0-12.61 4.66a13.72 13.72 0 0 0-4.13 10.09v20.78h-1.91V.71h1.91V23a15 15 0 0 1 7.87-7.19 21.62 21.62 0 0 1 8.87-1.91q7.26 0 11.69 3.29a11.84 11.84 0 0 1 4.74 10zM269.49 51.37V28.22h-43.56v23.15H224V5.29h1.91v21.25h43.56V5.29h2v46.08zM323.82 14.92v23.84a9.85 9.85 0 0 1-4.2 8.56q-3.83 2.76-10.32 2.75h-2.14q-6.5 0-10.31-2.75a9.83 9.83 0 0 1-4.21-8.56V14.92h-1.91V39a11.78 11.78 0 0 0 4.74 9.94q4.42 3.28 11.69 3.28h2.14q7.26 0 11.69-3.28a11.78 11.78 0 0 0 4.74-9.94V14.92zM92.28.71a1.87 1.87 0 1 0 1.87 1.87A1.87 1.87 0 0 0 92.28.71zM384.43 42.59a20.2 20.2 0 0 0 2.13-9.48 20.66 20.66 0 0 0-1.84-8.85v-.17a14.38 14.38 0 0 0-3.91-5.28q-5.24-4.95-13.66-5h-.84q-8.43 0-13.67 5a14.38 14.38 0 0 0-3.91 5.28V.71h-1.83v33.92l.06.25a19.63 19.63 0 0 0 2.04 7.71 14.26 14.26 0 0 0 3.81 4.9q5.24 4.73 13.48 4.72h.84q8.24 0 13.47-4.72a14.14 14.14 0 0 0 3.83-4.9zm.22-7.69c0 .43-.09.85-.16 1.27 0 .18-.05.36-.08.54s-.12.59-.19.88a15.45 15.45 0 0 1-4.58 7.86c-3.31 3.12-7.62 4.7-12.91 4.77s-9.6-1.65-12.92-4.77a15.52 15.52 0 0 1-4.58-7.86c-.06-.29-.13-.58-.18-.88l-.09-.54c-.06-.42-.12-.84-.15-1.27v-.22c0-.52-.06-1-.06-1.57a17.41 17.41 0 0 1 4-11.54c.29-.34.58-.65.89-1l.11-.11q4.85-4.55 13-4.65 8.17.11 13 4.65l.11.11c.3.31.6.62.88 1a17.36 17.36 0 0 1 4 11.54c0 .53 0 1-.06 1.57-.02.07-.03.15-.03.22z"/></g></g></svg>