<svg id="レイヤー_1" xmlns="http://www.w3.org/2000/svg" viewBox="0 0 386.4 98.5"><style>.st0{fill:#231815;stroke:#231815;stroke-width:1.42;stroke-miterlimit:10}</style><g id="レイヤー_2-2"><path class="st0" d="M33.3 5.3l17.9 44.2L68.3 5.3h1.9L52.3 51.4H50L31.2 5.3h2.1z"/><path fill="#595757" stroke="#595757" stroke-width="1.42" stroke-miterlimit="10" d="M24.6 5.2H1.1l19 46.1h2.3l10.5-27.1z"/><path class="st0" d="M90.4 51.4V14.7h2.1v36.7h-2.1zM130.8 52.2c-5.9 0-10.2-.8-13-2.4-3.2-1.9-5.1-5.3-5.6-10.1h2.1c.5 4 2.2 6.8 5 8.5 2.5 1.5 6.3 2.3 11.5 2.3 3.2 0 6.3-.7 9.2-2 3.6-1.6 5.4-3.8 5.4-6.4 0-3.3-2.5-5.6-7.6-6.9-.8-.2-1.5-.4-2.2-.5-3.5-.6-8.7-1.8-15.6-3.5-3.9-1.3-5.8-3.8-5.8-7.7 0-2.6 1.3-5 3.5-6.4 2.8-2 6.8-3 11.9-3 4.8 0 8.4.8 10.8 2.3 2.8 1.8 4.5 4.8 5.2 9.2h-2c-.5-3.5-1.9-6-4.1-7.5s-5.5-2.2-9.9-2.2c-4.6 0-8.1.8-10.5 2.5-1.8 1.1-3 3-3 5.1 0 2.9 1.7 4.9 5 5.9 2.7.8 5.5 1.5 8.3 2 4.1.8 6.9 1.4 8.3 1.8 6.4 1.6 9.5 4.6 9.6 8.8 0 3.2-1.6 5.7-4.8 7.6-3.6 1.8-7.6 2.7-11.7 2.6zM200.9 51.4H199V27.3c.1-3.4-1.4-6.6-4.2-8.6-2.6-1.9-6-2.8-10.3-2.8-5.3 0-9.5 1.6-12.6 4.7-2.7 2.6-4.2 6.3-4.1 10.1v20.8h-1.9V.7h1.9V23c1.7-3.3 4.5-5.8 7.9-7.2 2.8-1.3 5.8-1.9 8.9-1.9 4.8 0 8.7 1.1 11.7 3.3 3.1 2.3 4.9 6.1 4.7 10l-.1 24.2zM268.7 51.4V28.2h-43.6v23.1h-1.9v-46h1.9v21.2h43.6V5.3h2v46.1h-2zM323 14.9v23.8c.2 3.4-1.4 6.6-4.2 8.6-2.5 1.8-6 2.8-10.3 2.8h-2.1c-4.3 0-7.8-.9-10.3-2.8-2.8-1.9-4.4-5.2-4.2-8.6V14.9H290V39c-.2 3.9 1.6 7.6 4.7 9.9 3 2.2 6.9 3.3 11.7 3.3h2.1c4.8 0 8.7-1.1 11.7-3.3 3.1-2.3 4.9-6 4.7-9.9V14.9H323zM91.4.7c-1 0-1.9.8-1.9 1.9s.8 1.9 1.9 1.9c1 0 1.9-.8 1.9-1.9 0-1-.8-1.9-1.9-1.9.1 0 .1 0 0 0zM383.6 42.6c1.5-2.9 2.2-6.2 2.1-9.5.1-3-.6-6.1-1.8-8.9V24c-.9-2-2.2-3.8-3.9-5.3-3.5-3.3-8.1-5-13.7-5h-.8c-5.6 0-10.2 1.7-13.7 5-1.7 1.4-3 3.2-3.9 5.3V.7h-1.8v33.9l.1.2c.1 2.7.8 5.3 2.1 7.7.9 1.9 2.2 3.6 3.8 4.9 3.5 3.2 8 4.7 13.5 4.7h.8c5.5 0 10-1.6 13.5-4.7 1.5-1.2 2.8-2.9 3.7-4.8zm.2-7.7c0 .4-.1.8-.1 1.3l-.1.5c0 .3-.1.6-.2.9-.7 3-2.3 5.8-4.6 7.9-3.3 3.1-7.6 4.7-12.9 4.8s-9.6-1.7-12.9-4.8c-2.3-2.1-3.9-4.8-4.6-7.9-.1-.3-.1-.6-.2-.9l-.1-.5c-.1-.4-.1-.8-.1-1.3v-.2c0-.5-.1-1-.1-1.6-.1-4.2 1.3-8.3 4-11.5.3-.3.6-.6.9-1l.1-.1c3.2-3 7.6-4.6 13-4.6 5.5.1 9.8 1.6 13 4.6l.1.1c.3.3.6.6.9 1 2.7 3.2 4.1 7.3 4 11.5 0 .5 0 1-.1 1.6v.2z"/></g><path class="st0" d="M124.5 85.1v-.5h13.3v.5h-13.3zM164.5 90.8h-.8l-7.1-13.5h.9l6.5 12.8 6.1-12.8h.8l-6.4 13.5zM176.5 84.3c.1 1.9.7 3.4 1.8 4.5 1.2 1.1 2.8 1.7 4.8 1.7 1.5 0 2.6-.2 3.5-.5 1.2-.5 2.1-1.3 2.8-2.6h.9c-.6 1.4-1.4 2.4-2.5 3-1.1.6-2.6.9-4.5.9-2.5 0-4.4-.7-5.7-2.2-1.2-1.3-1.8-2.9-1.8-4.9 0-2 .8-3.7 2.4-5.1 1.5-1.3 3.2-2 5.1-2 2.3 0 4.1.6 5.4 1.9 1.3 1.3 1.9 3.1 2 5.3h-14.2zm6.7-6.6c-1.7 0-3.1.5-4.5 1.6s-2.1 2.5-2.3 4.2h13.1c-.1-1.8-.7-3.2-1.8-4.2s-2.6-1.6-4.5-1.6zM197.6 83.2v7.7h-.8V77.3h.8v3c.5-1 1.4-1.8 2.9-2.4 1.3-.5 2.7-.8 4.2-.9v.8c-2.4.1-4.3.7-5.5 1.8-1.1.9-1.6 2.1-1.6 3.6zM226.5 91.3c-.3 1.6-.7 3.6-.7 5.1v.7h-2c-.1-.3-.1-.6-.1-1 0-1.2.2-2.8.6-4.7l2.8-14.7c.8-4.1 2.6-9 8.2-9 2.9 0 5.2 1.8 5.2 4.8 0 2.8-1.9 5-4 5.9l-.1.1c2.2.5 4.3 2.4 4.3 5.5 0 4.8-4.3 7.2-7.8 7.2-2.7 0-4.7-.9-5.9-2.2h-.2l-.3 2.3zm5.8-11.7l.2-1.6c4.5-.1 5.9-3.3 5.9-5.1 0-2.2-1.5-3.3-3.3-3.3-3.2 0-5 2.5-5.8 6.8l-2 10.4c.8 1.2 2.8 2.7 5.4 2.7 2.7 0 5.8-2.1 5.8-5.4 0-2.9-2.6-4.5-5.4-4.5h-.8zM251.8 85.1v-.5H265v.5h-13.2z"/></svg>