<svg id="レイヤー_1" xmlns="http://www.w3.org/2000/svg" viewBox="0 0 386.5 98.3"><style>.st2{stroke:#fff;stroke-width:1.42;stroke-miterlimit:10}.st2,.st3{fill:#fff}.st4{font-family:&apos;DISCO&apos;}.st5{font-size:28.35px}.st6{fill:none;stroke:#fff;stroke-miterlimit:10}</style><text transform="translate(7.03 74.297)" class="st3" font-size="61.631" font-family="CP-period">WishHub</text><path class="st3" d="M294.7 49.3H289v-1.4h5.7v1.4zM304.6 57.8h-4.3V55h-1.4v-2.8h-1.4v-2.8h-1.4V45h4.3v5.7h1.4v2.8h1.4v-2.8h1.4V45h4.3v4.3h-1.4v2.8H306v2.8h-1.4v2.9zM323 52.1h-8.5v4.3h4.3V55h4.3v1.4h-1.4v1.4h-9.9v-1.4h-1.4v-9.9h1.4V45h9.9v1.4h1.4v5.7zm-4.2-5.7h-4.3v4.3h4.3v-4.3zM324.4 57.8V45h4.3v1.4h1.4v1.4h-1.4v9.9h-4.3zm5.7-12.8h4.3v1.4h-4.3V45zM351.4 45h1.4v-2.8h1.4v-1.4h1.4v-1.4h8.5v1.4h1.4V45h-1.4v1.4h-1.4v1.4h-1.4v1.4h1.4v1.4h1.4v4.3h-1.4v1.4h-1.4v1.4h-7.1v-1.4h4.3v-1.4h1.4v-4.3h-1.4v-1.4H357v-1.4h1.4v-1.4h1.4V45h1.4v-4.3h-2.8v1.4H357V45h-1.4v4.3h-1.4v4.3h-1.4v5.7h-4.3v-5.7h1.4v-4.3h1.4V45zM375.5 49.3h-5.7v-1.4h5.7v1.4z"/></svg>