<svg xmlns="http://www.w3.org/2000/svg" viewBox="0 0 199.88 17.45"><defs><style>.cls-1{fill:#4f2f15;}</style></defs><title>player_card_head</title><g id="レイヤー_2" data-name="レイヤー 2"><g id="レイヤー_1-2" data-name="レイヤー 1"><g id="_3" data-name=" 3"><path class="cls-1" d="M100.5,11.83a10.42,10.42,0,0,0,12.68,2.6c3.5-1.6,4.08-7,.58-7,0,0-.87-.29-.29,1a3.81,3.81,0,0,1-.43,4.22c0-.88-.74-2-1.17-.59s-3.36,3.36-6.42,2.19a9.53,9.53,0,0,1-4.28-3.38,12.83,12.83,0,0,0,.63-1.15c2-4,1.32-9.75-1.3-9.75s-3.31,5.65-1.32,9.75a13.13,13.13,0,0,0,.66,1.15,9.56,9.56,0,0,1-4.3,3.45c-3.05,1.16-6-.73-6.41-2.2S88,11.87,88,12.74a3.81,3.81,0,0,1-.39-4.34c.58-1.32-.3-1-.3-1-3.5,0-2.91,5.39.59,7A10.4,10.4,0,0,0,100.5,11.83Zm-1.38-6c-.45-3,.49-4.52,1.37-4.52s1.82,1.55,1.37,4.52a12,12,0,0,1-1.38,4A12.14,12.14,0,0,1,99.12,5.84Z"/><path class="cls-1" d="M102.16,10.14a.24.24,0,0,0-.32-.05.25.25,0,0,0,0,.31,10.57,10.57,0,0,0,.82.82,9.78,9.78,0,0,0,2.63,1.92,6.26,6.26,0,0,0,4,.61.23.23,0,0,0,.22-.23.25.25,0,0,0-.22-.22,5.67,5.67,0,0,1-3.75-.56A9.66,9.66,0,0,1,103,10.9a7.93,7.93,0,0,1-.71-.71Z"/><path class="cls-1" d="M98.87,10.34l-.21.21-.57.57A9.91,9.91,0,0,1,95.58,13a5.73,5.73,0,0,1-3.75.55.23.23,0,0,0-.26.19.22.22,0,0,0,.18.25h0a6.32,6.32,0,0,0,4-.6,10.14,10.14,0,0,0,2.66-1.89,6.28,6.28,0,0,0,.81-.82.21.21,0,0,0,0-.3h0a.23.23,0,0,0-.32,0Z"/><path class="cls-1" d="M108,16.57a.44.44,0,0,0-.44.44h0a.44.44,0,0,0,.13.31.43.43,0,0,0,.62,0,.44.44,0,0,0-.31-.75Z"/><path class="cls-1" d="M106.26,17a.43.43,0,0,0-.36-.49h0a.43.43,0,0,0-.54.3.44.44,0,0,0,.3.55h.12A.44.44,0,0,0,106.26,17Z"/><path class="cls-1" d="M101.61,15.64a.44.44,0,1,0,.67-.57.28.28,0,0,0-.1-.09.44.44,0,0,0-.57.66Z"/><path class="cls-1" d="M103.57,16.81a.43.43,0,1,0-.25-.56.43.43,0,0,0,.23.55Z"/><path class="cls-1" d="M100.2,13.36a.45.45,0,0,0,0,.62.53.53,0,0,0,.31.13.45.45,0,0,0,.45-.44h0a.55.55,0,0,0-.14-.32A.44.44,0,0,0,100.2,13.36Z"/><path class="cls-1" d="M99.41,15.1a.42.42,0,0,0-.59-.09l0,0a.43.43,0,0,0,.52.68h0A.42.42,0,0,0,99.41,15.1Z"/><path class="cls-1" d="M97.23,16.82a.44.44,0,1,0-.47-.23A.45.45,0,0,0,97.23,16.82Z"/><path class="cls-1" d="M95,17.34a.43.43,0,1,0-.11-.85h0a.43.43,0,0,0-.43.43.42.42,0,0,0,.41.44A.3.3,0,0,0,95,17.34Z"/><path class="cls-1" d="M92.65,16.58a.39.39,0,0,0-.3.12.44.44,0,0,0-.13.31.36.36,0,0,0,.12.3.42.42,0,0,0,.62,0,.37.37,0,0,0,.13-.3A.45.45,0,0,0,93,16.7.36.36,0,0,0,92.65,16.58Z"/><path class="cls-1" d="M106.91,10.66c.38-.16,1.7-1.09.88-1.42s-1.51.77-2.84.83c-.82,0-1.43-.45-.77-1.43a3.67,3.67,0,0,0,.1-3.55A8,8,0,0,1,103,9.51c.49,1,3.72,3.5,5.91,2.85s2.83-2.19,1.58-3.6C109.36,8,110.52,10.66,106.91,10.66Z"/><path class="cls-1" d="M92.15,12.31c2.18.65,5.4-1.86,5.89-2.84a8.33,8.33,0,0,1-1.28-4.4,3.75,3.75,0,0,0,.11,3.56c.66,1,0,1.42-.76,1.41-1.38,0-2.08-1.09-2.9-.77s.49,1.26.87,1.42c-3.6,0-2.46-2.68-3.55-1.9C89.3,10.12,90,11.65,92.15,12.31Z"/></g><g id="_3-2" data-name=" 3"><path class="cls-1" d="M0,15.88H83.88l-1.48-1H1.48Z"/><path class="cls-1" d="M81.54,13.57c-.05-.88-.08-1.77-.09-2.66h-79c0,.89,0,1.78-.09,2.66Z"/></g><g id="_3-3" data-name=" 3"><path class="cls-1" d="M116,15.88h83.88l-1.48-1H117.48Z"/><path class="cls-1" d="M197.54,13.57c0-.88-.08-1.77-.09-2.66h-79c0,.89,0,1.78-.09,2.66Z"/></g></g></g></svg>