<svg xmlns="http://www.w3.org/2000/svg" viewBox="0 0 194.26 44.55"><defs><style>.cls-1{fill:#4f2f15;stroke:#4e2e14;stroke-miterlimit:10;}</style></defs><title>player_card_disc</title><g id="レイヤー_2" data-name="レイヤー 2"><g id="レイヤー_1-2" data-name="レイヤー 1"><path class="cls-1" d="M6.6,44.31c-3.42-6.14-.35-14,.31-20.71.35-3.28-.64-8.06-3.66-7.6-2.9,0-3.69,6.59-.57,6.93-3.21,0-2.74-7.14.52-7.38,3.43-.59,4.57,4.8,4.17,8.09-.69,7.11-3.87,14.3-.77,20.67"/><path class="cls-1" d="M4.73,22.05c1.6-1.8,3.22-4.56,2.59-7.44s-3-4.2-4.72-6.33c-2-1.91-1.72-7,.91-7.74a2.52,2.52,0,0,1,3,2C6.91,4,6.32,5.69,5.24,6.18a3.14,3.14,0,0,0,1-3.59A2.07,2.07,0,0,0,4.87,1.05a2.18,2.18,0,0,0-2.44.86c-1.07,1.59-1,4.58.5,6,1.58,2,4,3.49,4.72,6.63S6.4,20.4,4.73,22.05Z"/><path class="cls-1" d="M187.66,44.31c3.42-6.14.35-14-.31-20.71C187,20.32,188,15.54,191,16c2.9,0,3.69,6.59.57,6.93,3.21,0,2.74-7.14-.52-7.38-3.43-.59-4.56,4.8-4.17,8.09.69,7.11,3.87,14.3.77,20.67"/><path class="cls-1" d="M189.53,22.05c-1.6-1.8-3.22-4.56-2.58-7.44s3-4.2,4.71-6.33c2-1.91,1.72-7-.91-7.74a2.52,2.52,0,0,0-3,2c-.44,1.46.15,3.19,1.23,3.68a3.14,3.14,0,0,1-1-3.59,2.07,2.07,0,0,1,1.1-1.41,2.25,2.25,0,0,1,2.92,1c.88,1.64.71,4.38-.66,5.67-1.59,2-4,3.49-4.73,6.63S187.86,20.4,189.53,22.05Z"/></g></g></svg>