<svg xmlns="http://www.w3.org/2000/svg" width="512" height="409.495"><g data-name="グループ化 52" fill="none"><path data-name="パス 899" d="M275.227 110.301l-34.01.008a8.9 8.9 0 0 0-5.712 1.894l-23.8 14.48a5.156 5.156 0 0 0-2.214 4.443l.01 39.322c0 2.548 1.579 3.172 3.488 1.9l21.9-11.926h.628l.04 140.429a2.994 2.994 0 0 0 3.176 3.158l36.55-.007a2.991 2.991 0 0 0 3.169-3.165l-.052-187.379a2.981 2.981 0 0 0-3.173-3.157z"/><path data-name="パス 900" d="M139.751 374.659c-17.289-5.507-34.575-3.84-45.381 3.18 4.1 11.734 16.794 22.9 34.09 28.381s34.572 3.84 45.373-3.187c-4.097-11.727-16.797-22.911-34.082-28.374z"/><path data-name="パス 901" d="M126.6 356.066c8.478-8.768 12.656-23.975 9.837-40.116s-11.885-28.888-22.8-34.05c-8.47 8.76-12.666 23.975-9.84 40.115s11.891 28.904 22.803 34.051z"/><path data-name="パス 902" d="M68.4 308.148c-14.924-9.421-31.861-11.925-44.146-7.718.58 12.322 9.517 26.127 24.442 35.548s31.854 11.917 44.143 7.7c-.587-12.322-9.519-26.104-24.439-35.53z"/><path data-name="パス 903" d="M79.266 222.533c-9.271 6.843-15.567 20.406-15.482 35.885s6.517 28.778 15.86 35.247c9.274-6.858 15.567-20.406 15.483-35.892s-6.521-28.764-15.861-35.24z"/><path data-name="パス 904" d="M55.137 197.397c11.41-2.32 23.182-11.94 30.1-25.972 6.935-14.032 7.156-28.734 1.7-38.485-11.419 2.328-23.194 11.94-30.11 25.987-6.927 14.021-7.161 28.721-1.69 38.47z"/><path data-name="パス 905" d="M38.428 161.938c8.6-6.888 14.088-20.069 13.39-34.872s-7.372-27.272-16.58-33.132c-8.6 6.881-14.1 20.054-13.4 34.865.681 14.795 7.378 27.279 16.59 33.139z"/><path data-name="パス 906" d="M124.639 65.663C114.12 64.613 101 69.811 90.655 80.148s-15.163 23.06-13.544 33c10.526 1.05 23.634-4.148 33.98-14.488s15.167-23.048 13.548-32.997z"/><path data-name="パス 907" d="M93.321 55.221c4.479-12.527 3.267-24.937-2.254-32.6-9.389 3.113-18.369 12.4-22.856 24.937-4.483 12.512-3.267 24.93 2.262 32.6 9.381-3.136 18.361-12.41 22.848-24.937z"/><path data-name="パス 908" d="M144.135 30.798c9.678-9.583 14.227-21.391 12.751-30.665-9.781-1.006-22 3.775-31.689 13.365-9.667 9.575-14.205 21.4-12.744 30.65 9.789 1.02 22.011-3.761 31.682-13.35z"/><path data-name="パス 909" d="M34.932 211.224c-8.462-13.012-21.184-20.928-32.739-21.64-4.27 10.486-2.342 25.1 6.109 38.1s21.185 20.928 32.739 21.633c4.259-10.497 2.343-25.103-6.109-38.093z"/><path data-name="パス 910" d="M372.251 374.659c-17.285 5.463-29.982 16.647-34.086 28.374 10.8 7.027 28.087 8.68 45.38 3.187s29.989-16.647 34.086-28.381c-10.809-7.021-28.087-8.691-45.38-3.18z"/><path data-name="パス 911" d="M375.562 315.948c-2.82 16.14 1.359 31.347 9.84 40.116 10.912-5.148 20-17.924 22.808-34.05s-1.373-31.355-9.847-40.115c-10.919 5.164-19.981 17.919-22.801 34.049z"/><path data-name="パス 912" d="M443.6 308.148c-14.92 9.421-23.857 23.2-24.444 35.533 12.292 4.214 29.233 1.71 44.147-7.7s23.872-23.226 24.452-35.548c-12.283-4.205-29.223-1.701-44.155 7.715z"/><path data-name="パス 913" d="M432.735 222.533c-9.34 6.476-15.787 19.767-15.854 35.239-.088 15.487 6.2 29.034 15.465 35.892 9.354-6.469 15.787-19.767 15.868-35.247s-6.204-29.041-15.479-35.884z"/><path data-name="パス 914" d="M425.077 132.94c-5.463 9.752-5.25 24.453 1.682 38.485s18.7 23.652 30.114 25.972c5.464-9.744 5.228-24.453-1.7-38.47-6.907-14.048-18.685-23.659-30.096-25.987z"/><path data-name="パス 915" d="M473.578 161.938c9.208-5.86 15.9-18.343 16.588-33.139s-4.8-27.984-13.4-34.865c-9.208 5.86-15.891 18.328-16.581 33.132-.706 14.803 4.794 27.982 13.393 34.872z"/><path data-name="パス 916" d="M434.887 113.148c1.623-9.936-3.2-22.654-13.54-32.992-10.354-10.339-23.461-15.538-33.991-14.488-1.608 9.95 3.2 22.653 13.555 32.992s23.446 15.533 33.976 14.488z"/><path data-name="パス 917" d="M441.533 80.148c5.522-7.666 6.74-20.084 2.254-32.6-4.479-12.535-13.46-21.824-22.852-24.937-5.522 7.666-6.734 20.076-2.254 32.6s13.459 21.811 22.852 24.937z"/><path data-name="パス 918" d="M399.545 44.148c1.468-9.252-3.07-21.074-12.741-30.65S364.904-.873 355.119.133c-1.476 9.274 3.077 21.082 12.748 30.665s21.889 14.37 31.678 13.35z"/><path data-name="パス 919" d="M509.808 189.584c-11.55.713-24.276 8.628-32.735 21.64-8.459 12.99-10.368 27.6-6.109 38.088 11.551-.706 24.291-8.628 32.735-21.633s10.376-27.609 6.109-38.095z"/></g><text data-name="15" transform="translate(246 303)" font-size="271" font-family="Arial-BoldMT, Arial" font-weight="700"><tspan x="-150.717" y="0">15</tspan></text></svg>