<svg xmlns="http://www.w3.org/2000/svg"><path data-name="パス 941" d="M139.75 374.661c-17.286-5.507-34.571-3.84-45.38 3.18 4.1 11.734 16.794 22.9 34.086 28.381s34.571 3.84 45.38-3.187c-4.097-11.727-16.8-22.911-34.086-28.374z"/><path data-name="パス 942" d="M126.606 356.069c8.474-8.768 12.652-23.976 9.832-40.116s-11.889-28.888-22.8-34.05c-8.474 8.76-12.674 23.975-9.84 40.115 2.812 16.126 11.888 28.903 22.808 34.051z"/><path data-name="パス 943" d="M68.4 308.155c-14.929-9.421-31.862-11.925-44.147-7.718.58 12.322 9.516 26.127 24.446 35.548s31.854 11.918 44.139 7.7c-.583-12.327-9.52-26.11-24.438-35.53z"/><path data-name="パス 944" d="M79.265 222.534c-9.274 6.844-15.567 20.406-15.487 35.886s6.522 28.778 15.862 35.247c9.282-6.858 15.567-20.406 15.487-35.893s-6.521-28.764-15.862-35.24z"/><path data-name="パス 945" d="M55.136 197.398c11.411-2.32 23.182-11.94 30.1-25.972s7.153-28.734 1.7-38.486c-11.426 2.328-23.2 11.94-30.114 25.988-6.922 14.021-7.157 28.721-1.686 38.47z"/><path data-name="パス 946" d="M38.43 161.939c8.6-6.888 14.084-20.069 13.387-34.872s-7.373-27.273-16.581-33.132c-8.6 6.881-14.1 20.054-13.4 34.866.681 14.794 7.378 27.278 16.594 33.138z"/><path data-name="パス 947" d="M124.638 65.663c-10.516-1.05-23.63 4.149-33.984 14.488s-15.163 23.058-13.54 32.998c10.523 1.05 23.63-4.148 33.976-14.488s15.163-23.048 13.548-32.998z"/><path data-name="パス 948" d="M93.32 55.221c4.479-12.527 3.268-24.937-2.254-32.6-9.384 3.113-18.372 12.4-22.851 24.937-4.487 12.512-3.276 24.93 2.261 32.6 9.376-3.135 18.356-12.409 22.844-24.937z"/><path data-name="パス 949" d="M144.134 30.798c9.678-9.583 14.224-21.391 12.755-30.665-9.781-1.006-22 3.774-31.693 13.365-9.664 9.575-14.2 21.4-12.747 30.65 9.795 1.021 22.014-3.76 31.685-13.35z"/><path data-name="パス 950" d="M34.935 211.226c-8.467-13.012-21.192-20.928-32.743-21.641-4.266 10.486-2.342 25.1 6.11 38.1s21.185 20.928 32.743 21.633c4.255-10.497 2.334-25.103-6.11-38.092z"/><path data-name="パス 951" d="M372.248 374.661c-17.286 5.464-29.975 16.647-34.088 28.374 10.809 7.027 28.1 8.68 45.381 3.187s29.989-16.647 34.087-28.381c-10.809-7.02-28.08-8.692-45.38-3.18z"/><path data-name="パス 952" d="M375.567 315.949c-2.82 16.14 1.35 31.348 9.84 40.116 10.911-5.148 19.988-17.925 22.808-34.051s-1.38-31.355-9.855-40.115c-10.912 5.166-19.973 17.921-22.793 34.05z"/><path data-name="パス 953" d="M443.608 308.155c-14.922 9.421-23.865 23.2-24.453 35.533 12.292 4.215 29.24 1.711 44.147-7.7 14.936-9.422 23.88-23.226 24.453-35.548-12.278-4.211-29.226-1.707-44.147 7.715z"/><path data-name="パス 954" d="M432.74 222.534c-9.34 6.476-15.788 19.768-15.861 35.24-.088 15.487 6.212 29.034 15.464 35.893 9.356-6.469 15.788-19.768 15.876-35.247s-6.212-29.043-15.479-35.886z"/><path data-name="パス 955" d="M425.074 132.94c-5.463 9.752-5.243 24.453 1.69 38.486 6.917 14.032 18.7 23.652 30.106 25.972 5.463-9.744 5.228-24.453-1.689-38.47-6.918-14.048-18.696-23.66-30.107-25.988z"/><path data-name="パス 956" d="M473.582 161.939c9.208-5.86 15.9-18.344 16.581-33.139.7-14.812-4.788-27.985-13.394-34.866-9.208 5.86-15.89 18.328-16.58 33.132-.705 14.803 4.787 27.983 13.393 34.873z"/><path data-name="パス 957" d="M434.884 113.143c1.63-9.935-3.2-22.654-13.541-32.993-10.354-10.339-23.454-15.538-33.984-14.488-1.615 9.95 3.2 22.654 13.556 32.993 10.339 10.34 23.439 15.539 33.969 14.488z"/><path data-name="パス 958" d="M441.537 80.149c5.522-7.666 6.741-20.083 2.247-32.6-4.48-12.535-13.452-21.824-22.852-24.937-5.522 7.666-6.727 20.076-2.247 32.6s13.453 21.811 22.852 24.937z"/><path data-name="パス 959" d="M399.549 44.149c1.468-9.252-3.07-21.074-12.748-30.65S364.901-.872 355.123.134c-1.484 9.274 3.07 21.082 12.748 30.665s21.883 14.37 31.678 13.35z"/><path data-name="パス 960" d="M509.814 189.585c-11.558.713-24.276 8.628-32.736 21.641-8.459 12.99-10.368 27.6-6.11 38.088 11.543-.706 24.291-8.628 32.736-21.633s10.368-27.61 6.11-38.096z"/><path data-name="パス 961" d="M290.665 199.256v-.536a42.593 42.593 0 0 0 19.871-36.635c-.008-28.506-20.15-49.169-54.941-49.155-31.4.008-51.534 17.285-55.72 40.835a2.3 2.3 0 0 0 2.1 2.871l28.514 5.478a2.476 2.476 0 0 0 3.143-1.821c2.607-9.95 8.892-16.486 20.142-16.486 12.549-.007 20.15 8.365 20.15 20.914 0 13.607-8.636 22.235-21.978 22.242h-7.064a2.469 2.469 0 0 0-2.607 2.614l.008 25.384a2.463 2.463 0 0 0 2.607 2.607h7.592c15.179-.008 24.857 9.15 24.864 25.114 0 13.342-8.371 23.02-21.971 23.028-12.557 0-20.15-7.328-23.293-16.742a2.649 2.649 0 0 0-3.136-2.085l-28.777 5.5a2.916 2.916 0 0 0-2.086 3.4c4.98 25.634 27.478 40.8 57.82 40.8 33.484-.014 58.07-21.735 58.062-54.177-.007-23.544-12.565-37.929-23.3-43.15z"/></svg>
