<svg xmlns="http://www.w3.org/2000/svg"><path data-name="パス 920" d="M139.751 374.656c-17.29-5.507-34.575-3.84-45.38 3.18 4.1 11.734 16.794 22.895 34.09 28.381s34.572 3.84 45.373-3.187c-4.098-11.727-16.798-22.911-34.083-28.374z"/><path data-name="パス 921" d="M126.6 356.064c8.478-8.768 12.656-23.975 9.836-40.115s-11.884-28.888-22.8-34.05c-8.47 8.76-12.667 23.975-9.84 40.114s11.892 28.903 22.804 34.051z"/><path data-name="パス 922" d="M68.4 308.146c-14.925-9.421-31.862-11.925-44.146-7.718.58 12.322 9.516 26.126 24.441 35.548s31.854 11.917 44.143 7.7c-.586-12.322-9.518-26.105-24.438-35.53z"/><path data-name="パス 923" d="M79.266 222.531c-9.271 6.843-15.567 20.406-15.483 35.885s6.517 28.778 15.861 35.246c9.274-6.858 15.567-20.406 15.483-35.892s-6.521-28.763-15.861-35.239z"/><path data-name="パス 924" d="M55.136 197.395c11.411-2.32 23.182-11.94 30.1-25.972 6.935-14.032 7.156-28.733 1.7-38.485-11.418 2.328-23.192 11.94-30.11 25.988-6.926 14.02-7.16 28.72-1.69 38.469z"/><path data-name="パス 925" d="M38.428 161.936c8.6-6.888 14.087-20.069 13.39-34.872s-7.372-27.272-16.581-33.132c-8.6 6.881-14.1 20.054-13.4 34.865.682 14.796 7.379 27.279 16.591 33.139z"/><path data-name="パス 926" d="M124.638 65.661C114.12 64.611 101 69.809 90.655 80.146s-15.163 23.06-13.544 33c10.526 1.05 23.634-4.148 33.98-14.488s15.167-23.047 13.547-32.997z"/><path data-name="パス 927" d="M93.321 55.219c4.479-12.527 3.267-24.937-2.254-32.6-9.388 3.113-18.369 12.4-22.855 24.937-4.483 12.512-3.268 24.929 2.262 32.6 9.379-3.135 18.36-12.41 22.847-24.937z"/><path data-name="パス 928" d="M144.134 30.797c9.678-9.583 14.227-21.391 12.751-30.665-9.781-1.006-22 3.775-31.689 13.365-9.667 9.575-14.2 21.4-12.744 30.649 9.789 1.021 22.011-3.76 31.682-13.349z"/><path data-name="パス 929" d="M34.932 211.223c-8.463-13.012-21.185-20.928-32.739-21.64-4.27 10.486-2.342 25.1 6.11 38.1s21.185 20.928 32.739 21.633c4.258-10.499 2.342-25.104-6.11-38.093z"/><path data-name="パス 930" d="M372.249 374.656c-17.286 5.464-29.982 16.647-34.086 28.374 10.8 7.027 28.094 8.68 45.379 3.187s29.989-16.647 34.086-28.381c-10.808-7.02-28.079-8.69-45.379-3.18z"/><path data-name="パス 931" d="M375.568 315.946c-2.82 16.14 1.351 31.347 9.84 40.115 10.911-5.148 19.988-17.924 22.808-34.05s-1.381-31.354-9.855-40.114c-10.911 5.164-19.973 17.919-22.793 34.049z"/><path data-name="パス 932" d="M443.609 308.146c-14.922 9.421-23.865 23.2-24.452 35.533 12.292 4.214 29.239 1.71 44.146-7.7 14.936-9.422 23.88-23.226 24.452-35.548-12.277-4.206-29.225-1.702-44.146 7.715z"/><path data-name="パス 933" d="M432.741 222.531c-9.341 6.476-15.788 19.768-15.861 35.239-.088 15.486 6.212 29.034 15.465 35.892 9.355-6.469 15.787-19.768 15.875-35.246s-6.212-29.042-15.479-35.885z"/><path data-name="パス 934" d="M425.075 132.938c-5.464 9.752-5.243 24.453 1.689 38.485 6.917 14.032 18.7 23.652 30.106 25.972 5.463-9.744 5.228-24.453-1.689-38.47-6.917-14.047-18.695-23.659-30.106-25.987z"/><path data-name="パス 935" d="M473.583 161.936c9.208-5.86 15.9-18.343 16.58-33.139.706-14.811-4.787-27.984-13.393-34.865-9.208 5.86-15.89 18.328-16.581 33.132s4.788 27.982 13.394 34.872z"/><path data-name="パス 936" d="M434.885 113.146c1.63-9.935-3.2-22.654-13.54-32.992s-23.454-15.538-33.984-14.488c-1.615 9.95 3.2 22.654 13.556 32.992s23.438 15.534 33.968 14.488z"/><path data-name="パス 937" d="M441.538 80.146c5.522-7.666 6.741-20.083 2.246-32.6-4.479-12.535-13.452-21.824-22.851-24.937-5.522 7.666-6.727 20.076-2.247 32.6s13.453 21.812 22.852 24.937z"/><path data-name="パス 938" d="M399.55 44.146c1.468-9.252-3.07-21.074-12.748-30.649S364.9-.874 355.124.132c-1.482 9.274 3.07 21.082 12.748 30.665s21.883 14.37 31.678 13.349z"/><path data-name="パス 939" d="M509.814 189.582c-11.558.713-24.276 8.628-32.735 21.64-8.459 12.989-10.368 27.6-6.11 38.088 11.543-.7 24.29-8.628 32.735-21.633s10.368-27.609 6.11-38.095z"/><path data-name="パス 940" d="M308.839 263.982l-62.258.014v-.513l46.808-55.22c11.246-12.814 18.042-26.163 18.038-43.162-.011-28.785-20.678-50.755-54.687-50.741-34.274.008-54.152 21.471-55.973 46.055a2.521 2.521 0 0 0 2.093 3.136l28.778 4.715c1.828.25 2.878-.522 2.878-2.1 1.564-13.6 8.888-20.928 20.92-20.928 12.3-.007 19.36 8.621 19.364 20.392 0 9.157-3.653 16.735-10.452 24.592l-62.5 74.312a4.936 4.936 0 0 0-1.308 3.672l.008 24.327a2.465 2.465 0 0 0 2.618 2.607l105.684-.029a2.463 2.463 0 0 0 2.618-2.607l-.008-25.9a2.474 2.474 0 0 0-2.621-2.622z"/></svg>
