<svg xmlns="http://www.w3.org/2000/svg" width="512" height="409.497" viewBox="0 0 512 409.497">
  <g id="ranking_3" transform="translate(0 -51.251)">
    <path id="パス_941" data-name="パス 941" d="M139.75,425.912c-17.286-5.507-34.571-3.84-45.38,3.18,4.1,11.734,16.794,22.9,34.086,28.381s34.571,3.84,45.38-3.187C169.739,442.559,157.036,431.375,139.75,425.912Z"/>
    <path id="パス_942" data-name="パス 942" d="M126.606,407.32c8.474-8.768,12.652-23.976,9.832-40.116s-11.889-28.888-22.8-34.05c-8.474,8.76-12.674,23.975-9.84,40.115C106.61,389.395,115.686,402.172,126.606,407.32Z"/>
    <path id="パス_943" data-name="パス 943" d="M68.4,359.406c-14.929-9.421-31.862-11.925-44.147-7.718.58,12.322,9.516,26.127,24.446,35.548s31.854,11.918,44.139,7.7C92.255,382.609,83.318,368.826,68.4,359.406Z"/>
    <path id="パス_944" data-name="パス 944" d="M79.265,273.785c-9.274,6.844-15.567,20.406-15.487,35.886S70.3,338.449,79.64,344.918c9.282-6.858,15.567-20.406,15.487-35.893S88.606,280.261,79.265,273.785Z"/>
    <path id="パス_945" data-name="パス 945" d="M55.136,248.649c11.411-2.32,23.182-11.94,30.1-25.972s7.153-28.734,1.7-38.486c-11.426,2.328-23.2,11.94-30.114,25.988C49.9,224.2,49.665,238.9,55.136,248.649Z"/>
    <path id="パス_946" data-name="パス 946" d="M38.43,213.19c8.6-6.888,14.084-20.069,13.387-34.872s-7.373-27.273-16.581-33.132c-8.6,6.881-14.1,20.054-13.4,34.866C22.517,194.846,29.214,207.33,38.43,213.19Z"/>
    <path id="パス_947" data-name="パス 947" d="M124.638,116.914c-10.516-1.05-23.63,4.149-33.984,14.488S75.491,154.46,77.114,164.4c10.523,1.05,23.63-4.148,33.976-14.488S126.253,126.864,124.638,116.914Z"/>
    <path id="パス_948" data-name="パス 948" d="M93.32,106.472c4.479-12.527,3.268-24.937-2.254-32.6-9.384,3.113-18.372,12.4-22.851,24.937-4.487,12.512-3.276,24.93,2.261,32.6C79.852,128.274,88.832,119,93.32,106.472Z"/>
    <path id="パス_949" data-name="パス 949" d="M144.134,82.049c9.678-9.583,14.224-21.391,12.755-30.665-9.781-1.006-22,3.774-31.693,13.365-9.664,9.575-14.2,21.4-12.747,30.65C122.244,96.42,134.463,91.639,144.134,82.049Z"/>
    <path id="パス_950" data-name="パス 950" d="M34.935,262.477c-8.467-13.012-21.192-20.928-32.743-21.641-4.266,10.486-2.342,25.1,6.11,38.1s21.185,20.928,32.743,21.633C45.3,290.072,43.379,275.466,34.935,262.477Z"/>
    <path id="パス_951" data-name="パス 951" d="M372.248,425.912c-17.286,5.464-29.975,16.647-34.088,28.374,10.809,7.027,28.1,8.68,45.381,3.187s29.989-16.647,34.087-28.381C406.819,422.072,389.548,420.4,372.248,425.912Z"/>
    <path id="パス_952" data-name="パス 952" d="M375.567,367.2c-2.82,16.14,1.35,31.348,9.84,40.116,10.911-5.148,19.988-17.925,22.808-34.051s-1.38-31.355-9.855-40.115C387.448,338.316,378.387,351.071,375.567,367.2Z"/>
    <path id="パス_953" data-name="パス 953" d="M443.608,359.406c-14.922,9.421-23.865,23.2-24.453,35.533,12.292,4.215,29.24,1.711,44.147-7.7,14.936-9.422,23.88-23.226,24.453-35.548C475.477,347.48,458.529,349.984,443.608,359.406Z"/>
    <path id="パス_954" data-name="パス 954" d="M432.74,273.785c-9.34,6.476-15.788,19.768-15.861,35.24-.088,15.487,6.212,29.034,15.464,35.893,9.356-6.469,15.788-19.768,15.876-35.247S442.007,280.628,432.74,273.785Z"/>
    <path id="パス_955" data-name="パス 955" d="M425.074,184.191c-5.463,9.752-5.243,24.453,1.69,38.486,6.917,14.032,18.7,23.652,30.106,25.972,5.463-9.744,5.228-24.453-1.689-38.47C448.263,196.131,436.485,186.519,425.074,184.191Z"/>
    <path id="パス_956" data-name="パス 956" d="M473.582,213.19c9.208-5.86,15.9-18.344,16.581-33.139.7-14.812-4.788-27.985-13.394-34.866-9.208,5.86-15.89,18.328-16.58,33.132C459.484,193.12,464.976,206.3,473.582,213.19Z"/>
    <path id="パス_957" data-name="パス 957" d="M434.884,164.394c1.63-9.935-3.2-22.654-13.541-32.993-10.354-10.339-23.454-15.538-33.984-14.488-1.615,9.95,3.2,22.654,13.556,32.993C411.254,160.246,424.354,165.445,434.884,164.394Z"/>
    <path id="パス_958" data-name="パス 958" d="M441.537,131.4c5.522-7.666,6.741-20.083,2.247-32.6-4.48-12.535-13.452-21.824-22.852-24.937-5.522,7.666-6.727,20.076-2.247,32.6S432.138,128.274,441.537,131.4Z"/>
    <path id="パス_959" data-name="パス 959" d="M399.549,95.4c1.468-9.252-3.07-21.074-12.748-30.65s-21.9-14.371-31.678-13.365c-1.484,9.274,3.07,21.082,12.748,30.665S389.754,96.42,399.549,95.4Z"/>
    <path id="パス_960" data-name="パス 960" d="M509.814,240.836c-11.558.713-24.276,8.628-32.736,21.641-8.459,12.99-10.368,27.6-6.11,38.088,11.543-.706,24.291-8.628,32.736-21.633S514.072,251.322,509.814,240.836Z"/>
    <path id="パス_961" data-name="パス 961" d="M290.665,250.507v-.536a42.593,42.593,0,0,0,19.871-36.635c-.008-28.506-20.15-49.169-54.941-49.155-31.4.008-51.534,17.285-55.72,40.835a2.3,2.3,0,0,0,2.1,2.871l28.514,5.478a2.476,2.476,0,0,0,3.143-1.821c2.607-9.95,8.892-16.486,20.142-16.486,12.549-.007,20.15,8.365,20.15,20.914,0,13.607-8.636,22.235-21.978,22.242h-7.064a2.469,2.469,0,0,0-2.607,2.614l.008,25.384a2.463,2.463,0,0,0,2.607,2.607h7.592c15.179-.008,24.857,9.15,24.864,25.114,0,13.342-8.371,23.02-21.971,23.028-12.557,0-20.15-7.328-23.293-16.742a2.649,2.649,0,0,0-3.136-2.085l-28.777,5.5a2.916,2.916,0,0,0-2.086,3.4c4.98,25.634,27.478,40.8,57.82,40.8,33.484-.014,58.07-21.735,58.062-54.177C313.958,270.113,301.4,255.728,290.665,250.507Z"/>
  </g>
</svg>
