<svg xmlns="http://www.w3.org/2000/svg" xmlns:xlink="http://www.w3.org/1999/xlink" viewBox="0 0 1520.08 708.34"><defs><style>.cls-1{opacity:0.9;}.cls-2{fill:#d1be96;}.cls-3{opacity:0.7;}.cls-4{opacity:0.5;}.cls-5{fill:url(#名称未設定グラデーション);}</style><radialGradient id="名称未設定グラデーション" cx="990.17" cy="775.03" r="0.61" gradientTransform="matrix(14.5, -708.3, -1215.63, -48.16, 928557.23, 739023.88)" gradientUnits="userSpaceOnUse"><stop offset="0" stop-color="#fad2a7" stop-opacity="0"/><stop offset="1" stop-color="#452c11"/></radialGradient></defs><title>thank_bg_pc</title><g id="レイヤー_2" data-name="レイヤー 2"><g id="レイヤー_1-2" data-name="レイヤー 1"><g id="レイヤー_1-2-2" data-name="レイヤー 1-2"><g id="レイヤー_1-2-2-2" data-name="レイヤー 1-2-2"><g id="グループ_417" data-name="グループ 417"><g id="グループ_371" data-name="グループ 371"><g id="アセット_1" data-name="アセット 1" class="cls-1"><g id="_2" data-name=" 2"><g id="グループ_352" data-name="グループ 352"><path id="パス_446" data-name="パス 446" class="cls-2" d="M16.82,0l7.1,14.67-5.4,11,1.37,10.84-3.6,11,2.57,10.84L24.5,69.19l-6.5,11L20.28,91l-.44,11,.43,10.91-3.7,11,3.89,10.84,4.92,10.84L24.7,156.5l-3.84,10.91,2.67,10.9-2.48,10.91,3.65,10.9L18.48,210.9l5.44,11L18,232.72l-1.17,10.9,4.52,10.91-2.67,10.9,5.2,11L17.4,287.18l8.66,7.52,6.85,6,10.8-.88-9,23.13,6-17.05-9,4.76-6.51-1.44L17.26,319.9l8,11.09-8.5,10.72.72,10.91,3,11L16.39,374.4,16,385.27l-1.9,10.84L21,407.27l-6.17,10.65,4.72,11.16,3.06,11.09L17,450.83l19.79,7-17.11,15L13,483.36l4.47,11.22L20,505.73l-7.78,10.34,4.62,11.29-4.91,10.53,5.2,11.4L14.29,560l-1,10.91L10.13,581.5,9.6,592.4l-6,10.22,5,11.59L7.15,625,8.8,636.29,7.44,647.07,0,656.84l3.26,9.78,7.63,4.07,9,1.2,9.1,1.25,9-8.78-10.86,9.09,9-6.58,9,.44-.39-19.74,18.5,21.93,9-1.88,9,.06,9.05-1.5,9-2.07,9.14,6.71,9-4.57,9-3.39,9.09,5.33,39-5.2,9-2.32,89,4.32,9.1,4.46,9-3.83,9.09,2.76,9-4.83,69-4,9.09,6.33,29-4.76,9.09,6.39,9,.76,9-2.64L455.3,640.3l6,30.52,9-3.63,29-3.64,9,5.45,9.05-5.2,9.09-4.7,9,11.16,9,.31,9-6,9,4.89,9-2.44,9.1-7,9,6,9-1,9,5.76,9,.69,9-2.38,9.14-7.58,9,6.89,9,2.76,9.14-10,9,9.28,9.09-2.38,9-1.32L698.1,662l9-1.13,9,8.59,9,3.26,9-1.5,29,.69,9.19-8.34,9.05-.31,9,1.06,9,5.27,9,3.25,9.19-9.59,9,3,8.9,6.08,9,1.94,9.14-3.26,9,.06,9.19-6.27,9,6.4,9,1,9.1-2L908,668l9,4.2,9.14-1L975,677l9,1.75,9.33-7.33,9.14-2.19,29,1.75,58.9,5.33-.64-31.21,18.87,29.33,8.94,3,9.1-.13,8.9,3.64,9.38-7.4,9,1.19,8.75,8.58,9.27-6,9.24-3.7L1190,679l8.8,6.77,9.33-5.2,8.9,3.88,9,1.2,29.33-5,29,1.44,8.85,4.77,9.19-2.07,8.85,3.7,8.85,4.07,9.23-2.19,9.44-6.21L1348,695l9.77-10.65,8.36,10.53,9.44-4.57,9,.31,49.19-1,8.8,4,8.46,7.71,29.19-1.26,9.62-6.2,8.12,11.34,9.44-3.7,9.23-1.63-11.68,8.46,9.14-4.45,1.17-10.9-5.64-10.09,1.45-11.41-.34-11.09,1.46-11.29-5.34-10.27,3.25-11.54-8.94-10,18.93-11-15.14-11.6-3.6-10.72,16.89-10.78-15-11.47-2-23.63,16.14,2-1.07-11,.19-11-1.21-11-13.1-11.41v-11L1512.54,474l-12.36-11.35,19.07-11-.87-11-.2-11,.64-11.1-.39-11-1.32-11,.15-11-1-11,1.94-11v-11l-1.94-11,.34-11-1.17-11,3.75-11-7.74-11.22,8.42-10.84v-11l-18.34-11,11.15-11.28.29-11,3-10.91-14.9-10.84L1513.57,209l6.08-10.78-.93-11.09L1516.1,176l-13.83-10.72,17.38-11.15-3.94-11.28-22.46-6,9.85-15.67,2.14-10.9-2.09-11.16-1-11.15,1.29-11V65.93l3.94-10.71-1.17-11.1L1505.63,33l-3.75-11.41,6.81-12.28,9.74,4.26-9,.69-8.85,2.19-9.53-5.07-8.07,11-29.92-10.22-8.06,12L1435.71,21l-8.9,2.13-49.48-5.89-8.85,2.38-9,.75-8.66,5.52L1339,51.71l-6.27-25.82-8.9,1.69-8.75,4.26-9,1.69-9.23-3.26L1288,32.78l-8.8,3.76-49,1.19-9.2-1.88-9.28-5-8.7,6L1193.76,31l-9,20.69-8.7-14.17-8.75,5.64-9.4-7.58-8.75,6.33-8.9,3.32-9-.69L1122,38.67l-8.9,3.38-9.29-6.58-8.9,2.07-58.7,9.84-9.33-10.21-28.9,3L989,42l-8.9,3.64-48.94,1.94L922,43.37l-9,1.51-9,.62-9,1.82-9.14-6.27L877,49.7l-9-2.32,5,14.35-2.14,7.84,8.7,9.72-10.7,21.87,4.67-17.8L859.72,62.11,850,51l-9,1.56L831.85,41.3l-8.94,3.32L814,51.14l-9-3.57-9-3-9,6.2-9,.94-9-8.84-9-.69-29,9-9-4.45-9-4.39-9,.88-9,3.7-9,4.82-8.94-5-9-.12-8.94-3.07L650,46.87l-9-1.57-9-.43-8.9-3.51-9,1.25L599.38,67.69l-3.79,18-2.82-26.95L595.88,41l-9.18,6.2-8.8-7.9L568.7,46,560,37.73l-9.39,10.09-8.65-10-9.14,3.26-9.24,5.27-9-2-8.9-2.94-9,.18L467.79,38l-9.14,2.14-8.84-3.58-8.65-6L432,32.4l-9.14,1.7L414.22,28l-29.58,8.77-9-.75L307,29.46l-8.8-3-9.57,7.21-8.7-4.7-39.1.25-58.36-8.64-9.72,8-39-.76-9-1L116,23.45l-9-1.2-8.75-3.32-9.43,3.32-8.7-3.95L71.89,9.65l-9.43,3.7L56.82,29.83,43.89,16.73,35.67,8.46,27.21,2.88,37.44,8.71,28.83,4.45Z"/></g></g></g><g id="アセット_1-2" data-name="アセット 1-2" class="cls-3"><g id="_2-2" data-name=" 2-2"><g id="グループ_352-2" data-name="グループ 352-2" class="cls-4"><path id="パス_446-2" data-name="パス 446-2" class="cls-5" d="M16.82,0l7.1,14.67-5.4,11,1.37,10.84-3.6,11,2.57,10.84L24.5,69.19l-6.5,11L20.28,91l-.44,11,.43,10.91-3.7,11,3.89,10.84,4.92,10.84L24.7,156.5l-3.84,10.91,2.67,10.9-2.48,10.91,3.65,10.9L18.48,210.9l5.44,11L18,232.72l-1.17,10.9,4.52,10.91-2.67,10.9,5.2,11L17.4,287.18l8.66,7.52,6.85,6,10.8-.88-9,23.13,6-17.05-9,4.76-6.51-1.44L17.26,319.9l8,11.09-8.5,10.72.72,10.91,3,11L16.39,374.4,16,385.27l-1.9,10.84L21,407.27l-6.17,10.65,4.72,11.16,3.06,11.09L17,450.83l19.79,7-17.11,15L13,483.36l4.47,11.22L20,505.73l-7.78,10.34,4.62,11.29-4.91,10.53,5.2,11.4L14.29,560l-1,10.91L10.13,581.5,9.6,592.4l-6,10.22,5,11.59L7.15,625,8.8,636.29,7.44,647.07,0,656.84l3.26,9.78,7.63,4.07,9,1.2,9.1,1.25,9-8.78-10.86,9.09,9-6.58,9,.44-.39-19.74,18.5,21.93,9-1.88,9,.06,9.05-1.5,9-2.07,9.14,6.71,9-4.57,9-3.39,9.09,5.33,39-5.2,9-2.32,89,4.32,9.1,4.46,9-3.83,9.09,2.76,9-4.83,69-4,9.09,6.33,29-4.76,9.09,6.39,9,.76,9-2.64L455.3,640.3l6,30.52,9-3.63,29-3.64,9,5.45,9.05-5.2,9.09-4.7,9,11.16,9,.31,9-6,9,4.89,9-2.44,9.1-7,9,6,9-1,9,5.76,9,.69,9-2.38,9.14-7.58,9,6.89,9,2.76,9.14-10,9,9.28,9.09-2.38,9-1.32L698.1,662l9-1.13,9,8.59,9,3.26,9-1.5,29,.69,9.19-8.34,9.05-.31,9,1.06,9,5.27,9,3.25,9.19-9.59,9,3,8.9,6.08,9,1.94,9.14-3.26,9,.06,9.19-6.27,9,6.4,9,1,9.1-2L908,668l9,4.2,9.14-1L975,677l9,1.75,9.33-7.33,9.14-2.19,29,1.75,58.9,5.33-.64-31.21,18.87,29.33,8.94,3,9.1-.13,8.9,3.64,9.38-7.4,9,1.19,8.75,8.58,9.27-6,9.24-3.7L1190,679l8.8,6.77,9.33-5.2,8.9,3.88,9,1.2,29.33-5,29,1.44,8.85,4.77,9.19-2.07,8.85,3.7,8.85,4.07,9.23-2.19,9.44-6.21L1348,695l9.77-10.65,8.36,10.53,9.44-4.57,9,.31,49.19-1,8.8,4,8.46,7.71,29.19-1.26,9.62-6.2,8.12,11.34,9.44-3.7,9.23-1.63-11.68,8.46,9.14-4.45,1.17-10.9-5.64-10.09,1.45-11.41-.34-11.09,1.46-11.29-5.34-10.27,3.25-11.54-8.94-10,18.93-11-15.14-11.6-3.6-10.72,16.89-10.78-15-11.47-2-23.63,16.14,2-1.07-11,.19-11-1.21-11-13.1-11.41v-11L1512.54,474l-12.36-11.35,19.07-11-.87-11-.2-11,.64-11.1-.39-11-1.32-11,.15-11-1-11,1.94-11v-11l-1.94-11,.34-11-1.17-11,3.75-11-7.74-11.22,8.42-10.84v-11l-18.34-11,11.15-11.28.29-11,3-10.91-14.9-10.84L1513.57,209l6.08-10.78-.93-11.09L1516.1,176l-13.83-10.72,17.38-11.15-3.94-11.28-22.46-6,9.85-15.67,2.14-10.9-2.09-11.16-1-11.15,1.29-11V65.93l3.94-10.71-1.17-11.1L1505.63,33l-3.75-11.41,6.81-12.28,9.74,4.26-9,.69-8.85,2.19-9.53-5.07-8.07,11-29.92-10.22-8.06,12L1435.71,21l-8.9,2.13-49.48-5.89-8.85,2.38-9,.75-8.66,5.52L1339,51.71l-6.27-25.82-8.9,1.69-8.75,4.26-9,1.69-9.23-3.26L1288,32.78l-8.8,3.76-49,1.19-9.2-1.88-9.28-5-8.7,6L1193.76,31l-9,20.69-8.7-14.17-8.75,5.64-9.4-7.58-8.75,6.33-8.9,3.32-9-.69L1122,38.67l-8.9,3.38-9.29-6.58-8.9,2.07-58.7,9.84-9.33-10.21-28.9,3L989,42l-8.9,3.64-48.94,1.94L922,43.37l-9,1.51-9,.62-9,1.82-9.14-6.27L877,49.7l-9-2.32,5,14.35-2.14,7.84,8.7,9.72-10.7,21.87,4.67-17.8L859.72,62.11,850,51l-9,1.56L831.85,41.3l-8.94,3.32L814,51.14l-9-3.57-9-3-9,6.2-9,.94-9-8.84-9-.69-29,9-9-4.45-9-4.39-9,.88-9,3.7-9,4.82-8.94-5-9-.12-8.94-3.07L650,46.87l-9-1.57-9-.43-8.9-3.51-9,1.25L599.38,67.69l-3.79,18-2.82-26.95L595.88,41l-9.18,6.2-8.8-7.9L568.7,46,560,37.73l-9.39,10.09-8.65-10-9.14,3.26-9.24,5.27-9-2-8.9-2.94-9,.18L467.79,38l-9.14,2.14-8.84-3.58-8.65-6L432,32.4l-9.14,1.7L414.22,28l-29.58,8.77-9-.75L307,29.46l-8.8-3-9.57,7.21-8.7-4.7-39.1.25-58.36-8.64-9.72,8-39-.76-9-1L116,23.45l-9-1.2-8.75-3.32-9.43,3.32-8.7-3.95L71.89,9.65l-9.43,3.7L56.82,29.83,43.89,16.73,35.67,8.46,27.21,2.88,37.44,8.71,28.83,4.45Z"/></g></g></g></g></g></g></g></g></g></svg>