<svg xmlns="http://www.w3.org/2000/svg" xmlns:xlink="http://www.w3.org/1999/xlink" viewBox="0 0 363.97 572.44"><defs><style>.cls-1{opacity:0.9;}.cls-2{fill:#d1be96;}.cls-3{opacity:0.7;}.cls-4{opacity:0.5;}.cls-5{fill:url(#名称未設定グラデーション);}</style><radialGradient id="名称未設定グラデーション" cx="-347.59" cy="570.75" r="0.82" gradientTransform="matrix(8.37, -302.39, -573.63, -16.03, 330488.33, -95674.84)" gradientUnits="userSpaceOnUse"><stop offset="0" stop-color="#fad2a7" stop-opacity="0"/><stop offset="1" stop-color="#452c11"/></radialGradient></defs><title>thanks_bg</title><g id="レイヤー_2" data-name="レイヤー 2"><g id="レイヤー_1-2" data-name="レイヤー 1"><g id="レイヤー_1-2-2" data-name="レイヤー 1-2"><g id="レイヤー_1-2-2-2" data-name="レイヤー 1-2-2"><g id="グループ_416" data-name="グループ 416"><g id="グループ_371" data-name="グループ 371"><g id="アセット_1" data-name="アセット 1" class="cls-1"><g id="_2" data-name=" 2"><g id="グループ_352" data-name="グループ 352"><path id="パス_446" data-name="パス 446" class="cls-2" d="M5.49,0,7.81,6.26,6.05,11l.44,4.63L5.32,20.31l.84,4.63L8,29.54,5.89,34.25l.74,4.63-.16,4.66.15,4.65L5.41,52.87,6.68,57.5l1.6,4.63-.22,4.66L6.81,71.44l.87,4.66-.81,4.66,1.19,4.65L6,90l1.78,4.68L5.87,99.35,5.49,104,7,108.66l-.88,4.66L7.79,118l-2.11,4.6,2.83,3.21,2.23,2.54,3.53-.37,3.6,9.87-4.59-7.28-2.94,2L8.22,132l-2.59,4.58,2.6,4.74-2.77,4.57.23,4.66,1,4.68-1.33,4.6-.13,4.66-.62,4.63,2.24,4.76-2,4.55,1.54,4.76,1,4.74-1.84,4.55,6.46,3-5.59,6.4-2.19,4.5,1.46,4.79.84,4.76L4,220.34l1.51,4.81-1.6,4.5,1.7,4.87-.9,4.58-.33,4.65-1,4.51-.18,4.65-2,4.36,1.62,5-.45,4.6.54,4.82-.44,274.6L0,550.42l1.06,4.17,2.49,1.74,3,.51,3,.54,2.92-3.75,3,3.88,2.93-2.81,3,.19-.12-8.43,6,9.36,2.95-.8h2.95l3-.64,2.93-.89,3,2.87,2.93-2L47.81,553l3,2.27L53.73,553l3-1,3,1.85,3,1.9,2.93-1.63,3,1.17,3-2.06,2.94-1.71,3,2.7,3-2,3,2.73,3,.32,3-1.13,3.94-10.81,2,13,3-1.55,3-1.55,3,2.33,2.95-2.22,3-2,3,4.76,3,.14,3-2.54,3,2.08,3-1,3-3,3,2.57,2.95-.43,3,2.46,3,.3,2.95-1,3-3.24,2.93,2.94,2.94,1.18,3-4.25,2.94,4,3-1,3-.56,3-2,3-.48,2.94,3.66,2.93,1.39,3-.64,3,.3,3-3.56,3-.14,3,.46L193.8,556l2.94,1.39,3-4.1,2.95,1.26,2.9,2.6,3,.83,3-1.39h3l3-2.68,2.92,2.73,3,.43,3-.86,3-.93L231,557l3-.43,2.9,2.49,2.94.75,3-3.13,3-.94,2.93.75,2.9,2.27-.2-13.32L257.62,558l2.92,1.29,3-.06,2.9,1.55,3.06-3.15,2.94.5,2.85,3.67,3-2.54,3-1.58,2.89,2.3,2.87,2.89,3.05-2.22,2.9,1.66,2.93.51,3.06-2.15,2.94.62,2.88,2,3-.88L310.7,564l2.89,1.74,3-.94,3.07-2.64,2.75,4.57,3.19-4.55,2.73,4.5,3.07-1.95,3,.13,3-.43,2.87,1.72,2.73,3.3,3-.54,3.14-2.65,2.65,4.85,3.08-1.58,3-.7,2.72,3.61,3-1.9.38-4.66-1.84-4.3.48-4.87-.12-4.74.48-4.82-1.75-4.38,1.07-274.93-2.92-4.25-.35-4.68,1.59-5-1.18-4.58-1-4.6,1.65-4.9-7.19-10.09,5.27.83-.35-4.68.06-4.71-.4-4.71,2.25-4.87v-4.68l-3.16-4.55,2.5-4.85-.3-4.68-.29-4.68-.06-4.71.2-4.74-.12-4.71-.43-4.68.05-4.71-.32-4.71.64-4.71v-4.71l-.63-4.71.11-4.71-.38-4.71,1.22-4.68-2.52-4.79L359,122.2v-4.71l.54-4.68L356.62,108l.1-4.7,1-4.66L359.39,94l-2.47-4.84,2-4.6-.3-4.74-.85-4.76,2-4.57-.85-4.77L357.6,61l-7.33-2.54L360,51.72l.7-4.65L360,42.3l-.33-4.76.43-4.65V28.15l1.28-4.58L361,18.84l-.19-4.74-1.22-4.87L361.84,4l-3.35,1.82-2.94.29L352.67,7l-3.11-2.17-2.64,4.71-3.23-4.36-2.64,5.08L338,9l-2.9.91L332,7.36l-2.89,1-2.94.32L323.35,11l-3.86,11-2-11-2.9.72-2.85,1.82-2.92.72-3-1.39L302.88,14,300,15.6l-2.92.51-3-.8-3-2.14-2.84,2.57-3-2.49-2.93,8.83-2.84-6-2.86,2.41-3.06-3.24L270.69,18l-2.9,1.42-3-.3-3-2.51-3,1.44-3-2.81-2.9.89-2.84,4.2L247,15.87l-2.9,1.28-2.94.78-2.9,1.55-2.92.83-3-1.8-2.94.65-2.93.26-2.92.78-3-2.67-2.89,3.69-3-1,1.65,6.13-.7,3.34,2.84,4.15L215,43.19l1.53-7.6L212,26.52l-3.17-4.77-2.94.67-3-4.79L200,19.05l-2.92,2.78-3-1.52L191.21,19l-2.94,2.65-2.93.4-3-3.77L179.45,18l-2.94,3.82-2.93-1.9-2.94-1.87-2.93.37-3,1.58-3,2.06L158.88,20,156,19.9l-3-1.31L150,20l-2.92-.67-3-.18-2.9-1.5-3,.53-4.73,10.7-1.24,7.71-.92-11.51,1-7.57-3,2.65L126.6,16.8l-3,2.86-2.86-3.56-3.06,4.31-2.83-4.28-3,1.39-3,2.25-2.92-.86L103,17.66l-3,.08-2.88-1.5-3,.91-2.89-1.52L88.5,13.08l-3,.75-3,.72-2.82-2.62-3.13,3.75-3-.32-2.81-2.78L68,11.29l-3.13,3.08-2.84-2-3,.11-2.75-3.7-3.17,3.4-2.94-.32-2.93-.43L44.37,10l-2.92-.5L38.59,8.08,35.51,9.5,32.67,7.81,30,4.12,26.91,5.7l-1.84,7L20.85,7.1,18.17,3.61,15.41,1.23,12.22,3.72,9.41,1.9Z"/></g></g></g><g id="アセット_1-2" data-name="アセット 1-2" class="cls-3"><g id="_2-2" data-name=" 2-2"><g id="グループ_352-2" data-name="グループ 352-2" class="cls-4"><path id="パス_446-2" data-name="パス 446-2" class="cls-5" d="M5.49,0,7.81,6.26,6.05,11l.44,4.63L5.32,20.31l.84,4.63L8,29.54,5.89,34.25l.74,4.63-.16,4.66.15,4.65L5.41,52.87,6.68,57.5l1.6,4.63-.22,4.66L6.81,71.44l.87,4.66-.81,4.66,1.19,4.65L6,90l1.78,4.68L5.87,99.35,5.49,104,7,108.66l-.88,4.66L7.79,118l-2.11,4.6,2.83,3.21,2.23,2.54,3.53-.37,3.6,9.87-4.59-7.28-2.94,2L8.22,132l-2.59,4.58,2.6,4.74-2.77,4.57.23,4.66,1,4.68-1.33,4.6-.13,4.66-.62,4.63,2.24,4.76-2,4.55,1.54,4.76,1,4.74-1.84,4.55,6.46,3-5.59,6.4-2.19,4.5,1.46,4.79.84,4.76L4,220.34l1.51,4.81-1.6,4.5,1.7,4.87-.9,4.58-.33,4.65-1,4.51-.18,4.65-2,4.36,1.62,5-.45,4.6.54,4.82-.44,274.6L0,550.42l1.06,4.17,2.49,1.74,3,.51,3,.54,2.92-3.75,3,3.88,2.93-2.81,3,.19-.12-8.43,6,9.36,2.95-.8h2.95l3-.64,2.93-.89,3,2.87,2.93-2L47.81,553l3,2.27L53.73,553l3-1,3,1.85,3,1.9,2.93-1.63,3,1.17,3-2.06,2.94-1.71,3,2.7,3-2,3,2.73,3,.32,3-1.13,3.94-10.81,2,13,3-1.55,3-1.55,3,2.33,2.95-2.22,3-2,3,4.76,3,.14,3-2.54,3,2.08,3-1,3-3,3,2.57,2.95-.43,3,2.46,3,.3,2.95-1,3-3.24,2.93,2.94,2.94,1.18,3-4.25,2.94,4,3-1,3-.56,3-2,3-.48,2.94,3.66,2.93,1.39,3-.64,3,.3,3-3.56,3-.14,3,.46L193.8,556l2.94,1.39,3-4.1,2.95,1.26,2.9,2.6,3,.83,3-1.39h3l3-2.68,2.92,2.73,3,.43,3-.86,3-.93L231,557l3-.43,2.9,2.49,2.94.75,3-3.13,3-.94,2.93.75,2.9,2.27-.2-13.32L257.62,558l2.92,1.29,3-.06,2.9,1.55,3.06-3.15,2.94.5,2.85,3.67,3-2.54,3-1.58,2.89,2.3,2.87,2.89,3.05-2.22,2.9,1.66,2.93.51,3.06-2.15,2.94.62,2.88,2,3-.88L310.7,564l2.89,1.74,3-.94,3.07-2.64,2.75,4.57,3.19-4.55,2.73,4.5,3.07-1.95,3,.13,3-.43,2.87,1.72,2.73,3.3,3-.54,3.14-2.65,2.65,4.85,3.08-1.58,3-.7,2.72,3.61,3-1.9.38-4.66-1.84-4.3.48-4.87-.12-4.74.48-4.82-1.75-4.38,1.07-274.93-2.92-4.25-.35-4.68,1.59-5-1.18-4.58-1-4.6,1.65-4.9-7.19-10.09,5.27.83-.35-4.68.06-4.71-.4-4.71,2.25-4.87v-4.68l-3.16-4.55,2.5-4.85-.3-4.68-.29-4.68-.06-4.71.2-4.74-.12-4.71-.43-4.68.05-4.71-.32-4.71.64-4.71v-4.71l-.63-4.71.11-4.71-.38-4.71,1.22-4.68-2.52-4.79L359,122.2v-4.71l.54-4.68L356.62,108l.1-4.7,1-4.66L359.39,94l-2.47-4.84,2-4.6-.3-4.74-.85-4.76,2-4.57-.85-4.77L357.6,61l-7.33-2.54L360,51.72l.7-4.65L360,42.3l-.33-4.76.43-4.65V28.15l1.28-4.58L361,18.84l-.19-4.74-1.22-4.87L361.84,4l-3.35,1.82-2.94.29L352.67,7l-3.11-2.17-2.64,4.71-3.23-4.36-2.64,5.08L338,9l-2.9.91L332,7.36l-2.89,1-2.94.32L323.35,11l-3.86,11-2-11-2.9.72-2.85,1.82-2.92.72-3-1.39L302.88,14,300,15.6l-2.92.51-3-.8-3-2.14-2.84,2.57-3-2.49-2.93,8.83-2.84-6-2.86,2.41-3.06-3.24L270.69,18l-2.9,1.42-3-.3-3-2.51-3,1.44-3-2.81-2.9.89-2.84,4.2L247,15.87l-2.9,1.28-2.94.78-2.9,1.55-2.92.83-3-1.8-2.94.65-2.93.26-2.92.78-3-2.67-2.89,3.69-3-1,1.65,6.13-.7,3.34,2.84,4.15L215,43.19l1.53-7.6L212,26.52l-3.17-4.77-2.94.67-3-4.79L200,19.05l-2.92,2.78-3-1.52L191.21,19l-2.94,2.65-2.93.4-3-3.77L179.45,18l-2.94,3.82-2.93-1.9-2.94-1.87-2.93.37-3,1.58-3,2.06L158.88,20,156,19.9l-3-1.31L150,20l-2.92-.67-3-.18-2.9-1.5-3,.53-4.73,10.7-1.24,7.71-.92-11.51,1-7.57-3,2.65L126.6,16.8l-3,2.86-2.86-3.56-3.06,4.31-2.83-4.28-3,1.39-3,2.25-2.92-.86L103,17.66l-3,.08-2.88-1.5-3,.91-2.89-1.52L88.5,13.08l-3,.75-3,.72-2.82-2.62-3.13,3.75-3-.32-2.81-2.78L68,11.29l-3.13,3.08-2.84-2-3,.11-2.75-3.7-3.17,3.4-2.94-.32-2.93-.43L44.37,10l-2.92-.5L38.59,8.08,35.51,9.5,32.67,7.81,30,4.12,26.91,5.7l-1.84,7L20.85,7.1,18.17,3.61,15.41,1.23,12.22,3.72,9.41,1.9Z"/></g></g></g></g></g></g></g></g></g></svg>