<svg id="レイヤー_1" xmlns="http://www.w3.org/2000/svg" viewBox="0 0 314.6 72.2"><style>.st2{fill:none}.st5{fill:#dba55a}.st6{fill:#e4c58a}.st7{fill:#d49a4d}.st8{fill:#e0b370}.st9{fill:#e2be82}.st10{fill:#dcaa5f}.st11{fill:#e1b774}.st12{fill:#d79e54}.st13{fill:#deac65}.st14{fill:#dfb06b}.st15{fill:#dda75e}.st16{fill:#ce8d47}.st17{fill:#ca8139}.st18{fill:#e1bc7d}.st19{fill:#d7923e}.st20{fill:#db9f4b}.st21{fill:#c1712e}.st22{fill:#ac5925}</style><g id="レイヤー_1-2"><linearGradient id="SVGID_1_" gradientUnits="userSpaceOnUse" x1="2.8" y1="35.84" x2="311.8" y2="35.84" gradientTransform="matrix(1 0 0 -1 0 71.89)"><stop offset="0" stop-color="#c9b49f"/><stop offset="1" stop-color="#d1be96"/></linearGradient><path fill="url(#SVGID_1_)" d="M2.8 2.8h309v66.5H2.8z"/><radialGradient id="SVGID_2_" cx="-1751.352" cy="396.82" r="267.709" gradientTransform="matrix(.0101 -.2325 -1.6742 -.01616 831.055 -364.912)" gradientUnits="userSpaceOnUse"><stop offset="0" stop-color="#fad2a7" stop-opacity="0"/><stop offset="1" stop-color="#452c11"/></radialGradient><path opacity=".3" fill="url(#SVGID_2_)" d="M2.8 2.8h309v66.5H2.8z"/><path class="st2" d="M2.8 2.8h309v66.5H2.8z"/><path d="M2.8 2.8h308.9v66.4H2.8V2.8z" fill="none" stroke="#3a2612" stroke-width="5.67" stroke-miterlimit="10"/><g opacity=".2"><path class="st2" d="M136.3 50zM33 59.3c.4.5.8.4 1.2-.2h.8-.8c-.4.6-.8.7-1.2.2zm32.8-26.4c.1 0 .1 0 .2-.1-.1 0-.1.1-.2.1zm122.9 12.6l-7.8-.3 7.8.3zm-165 21.6l.9-.3h.8-.8l-.9.3zm4 .1c.7 0 1.5-.2 2.1-.7 6.8-.3 13.7-.6 20.5-.9-6.8.3-13.7.6-20.5.9-.7.5-1.4.7-2.1.7zM250.1 6.8c.8 0 1.4-.3 1.4-1.2.9.1 1.7.3 2.6.3-.9 0-1.7-.2-2.6-.3 0 .9-.5 1.2-1.4 1.2zM139.4 64.3h2.6-2.6zm-15.7-38.5c1.1.8 1.8 1.4 2.6 1.9-.8-.5-1.5-1-2.6-1.9zM54.2 65.5c.4.1.9.2 1.3.3-.4-.1-.8-.2-1.3-.3zm159-35.8c.9.3 1.8.3 2.1-.9h2.1-2.1c-.3 1.3-1.2 1.2-2.1.9zm22.6-3.2l.9.9c-.3-.2-.6-.6-.9-.9zM67.3 68s-.1 0-.1.1c0-.1.1-.1.1-.1zm20.1-24.4c-.7-.1-1.4 0-1.9.5.5-.5 1.2-.5 1.9-.5zm-36.7 1.7c-1.5-.1-2.9-.2-4.4-.4 1.5.1 3 .3 4.4.4zm57.7-18.8c-.4-.3-.9-.6-1.3-1 .4.4.8.7 1.3 1zM94.8 43.6c-.4-.2-.9-.4-1.3-.6.5.2.9.4 1.3.6h1.3-1.3zm-3.2-.8c.6 0 1.3.1 1.9.2-.6-.1-1.3-.2-1.9-.2zm43.4 6.7zm124.8-1.7c1.1.2 2.1.4 3.2.6-1-.2-2.1-.4-3.2-.6zM58.2 44.9h-2.6 2.6c.1.2.1.4.1.6 0-.2-.1-.4-.1-.6zm182-18.4h-4.4 4.4zm-182 7.7h-6.1 6.1c.3-.1.6-.4.9-.5-.3.1-.7.4-.9.5zM150.7 62c.9.2 1.8.5 2.7.7-.9-.2-1.8-.5-2.7-.7h-1.3 1.3zM68.5 17.3c-.4.4-.8.7-1.2 1.1.4-.3.8-.7 1.2-1.1zm233.4 42.1c1.5-.1 3.1-.2 4.6-.1-1.5-.1-3.1-.1-4.6.1zm-138.6 2.9c-.5 0-1.1.2-1.6.3-1.8 0-3.6.1-5.4.2 1.8 0 3.6-.1 5.4-.2.5-.1 1-.3 1.6-.3zm121.1-32.2c.5.1.9-.2 1.2-.9 2 0 4.1-.1 6.1-.1-2 0-4.1.1-6.1.1-.3.7-.7 1-1.2.9zM66.3 16.8zM39 1.7h.9c.6 0 1.2.1 1.9.1-.6 0-1.2-.1-1.9-.1H39zm261.9.6c1.8-.1 3.7-.2 5.5-.2-1.8 0-3.7.2-5.5.2-.8.3-1.7.6-2.4.9.8-.2 1.6-.5 2.4-.9zm-28.4 30.6h-1.7 1.7c.4-.3.7-.6 1.2-1-.5.4-.8.7-1.2 1zM207 71.6c-1.5-.2-3.1-.3-4.6-.5 1.6.2 3.1.3 4.6.5zM10.3 18.1l6 .3c-2 0-4-.2-6-.3zM258.9 30c.7.1 1.4 0 1.8-.8 1.2.2 2.3.4 3.5.6-1.2-.2-2.3-.4-3.5-.6-.4.8-1.1.9-1.8.8zm-49.1 40.3c1 .3 2 .2 2.9-.3l4.8.3-4.8-.3c-.8.5-1.9.6-2.9.3zm32.2-1.9l.9-.3 5.7-.3-5.7.3-.9.3zm-38 1.4c.9 0 1.8-.1 2.7-.1-.9 0-1.8 0-2.7.1zm36.7-1.4c-3.6.3-7.2.7-10.7.9 3.5-.2 7.1-.5 10.7-.9zm-79-45c-3.2.1-6.5-.1-9.7-.1 3.2.1 6.5.2 9.7.1zM283 29.3c-.7 0-1.4 0-2.2.1.7 0 1.4-.1 2.2-.1.2-.1.3-.2.5-.2-.2.1-.4.1-.5.2zm-134.5 31h2.2-2.2zm26.7-.3l-12.2-.3-11.4-.3 11.4.3 12.2.3zm96.7-17c2.5.1 5.1.1 7.6.2.6-.1 1.1-.1 1.7-.2-.6.1-1.1.1-1.7.2-2.5 0-5.1-.1-7.6-.2zM139.4 64.3c-3.9-.2-7.8-.6-11.7-.8 3.9.2 7.8.5 11.7.8zm-11.3-4.9c-.2.1-.4.1-.6.2h-.8.8c.2 0 .4-.1.6-.2zM85.2 44.5L62 44.2l23.2.3zm87.8.9c.1-.1.3-.1.4-.2-.1.1-.2.2-.4.2zM23.7 36.8zm13.9 22.8c.5.3.9.2 1.4-.5h.6-.6c-.5.6-.9.8-1.4.5zm93.9 1c.2 0 .4 0 .6-.1-.3.1-.4.1-.6.1zm-23.1-34.1v-1c4.3-.3 8.6-.7 12.9-.9-4.3.2-8.6.6-12.9.9v1zm3.9 34.5h.9-.9zm1.6-5.5zm29.5-28.2c.9-.2 1.8-.3 2.6-.4-.8.1-1.7.3-2.6.4zm2.9-.5v-.3c.1.1 0 .2 0 .3zm21 3.3zM107.8 62c1.4.3 2.2-.2 2.7-1.2.6.1 1.1.2 1.7.3-.6-.1-1.1-.2-1.7-.3-.5.9-1.3 1.4-2.7 1.2zm32.4-33.3l-.1.1c.1.1.2.1.2.2-.1-.1-.2-.1-.2-.2s0-.1.1-.1zm-32.8 30.4c.6-.3 1.2-.6 1.8-1-.6.3-1.2.6-1.8 1zM265.9 43h.5l1.2-.3-1.2.3h-.5zM161.2 29.3c.6 0 1.2-.1 1.8-.1-.6.1-1.2.1-1.8.1zm-17.5 33.2c.5.3.9.1 1.4-.5h3.4-3.4c-.5.6-.9.8-1.4.5zm-34.9-34.4c-.1-.5-.3-1.1-.4-1.6.1.5.3 1.1.4 1.6zm-3.2 6.1c-1-.1-1.9-.4-2.9-.6.9.2 1.9.5 2.9.6zm149 10.4h.9c-.3-.1-.6-.1-.9 0zm-32.7 27v.3c-.1 0 0-.1 0-.3z"/><path class="st5" d="M147.6 71.2c-1.2.5-3.5-.2-5-.8-1.7-.7-3.2-1.2-5.3-.9-1.2.2-2.5-.4-3.8-.5-3-.2-5.9-.4-8.9-.6-2-.2-4-.6-6-.7-6.3-.4-12.6-.7-18.9 0-.1.5-.2.9-.3 1.4 1 .2 1.9.3 2.7.5 1.4.4 1.8 1.5.8 2.3h51.4c-1.8-.7-3.7-1.9-6.7-.7zm72.1.5c-.1.1-.3.2-.4.3h2.6v-.3c-.8-.1-1.5 0-2.2 0z"/><path class="st5" d="M202.5 71.1c-.6-.1-1.2-.3-1.8-.4-3-.1-6.1-.1-8.9-1.2-1.3-.5-2.9-.6-4.4-.8-3.8-.4-7.6-.7-11.4-1.1-1.2-.1-2.3-.5-3.5-.6-4.6-.4-9.2-.6-13.8-1-.6 0-1.2-.4-1.8-.6l-13.5-.6h-3.9c-3.1-.1-6.3-.2-9.4-.4-2.9-.2-5.9-.5-8.8-.6-4.6-.2-9.2-.3-13.8-.3-2.6 0-5.1.2-7.7.3-1.4 1.9-2.9 2.4-6.5 2.2-2.1-.1-4.4-.3-5.8 1.3 3.5-.1 7.1-.1 10.6-.3 3.2-.2 6.5-.5 9.7-.7 2.2-.2 4.3-.3 6.5-.4 0-.1 0-.3.1-.4-.7-.3-1.5-.6-2.2-1 0-.1.1-.2.1-.3h3.6c-.8 1.4.3 1.6 1.8 1.8 7.5.9 15 1.4 22.6 1.8 2.8.1 5.6.9 8.6.9 1.8 0 3.6.3 5.3.6 1.2.2 2.6.3 3.5.8 1.5.8 3.1 1.3 4.7 1.7h47c-.8-.1-1.5-.2-2.3-.4-1.6 0-3.1-.1-4.6-.3zm103.1-7.3c-.5 0-.9-.4-1.8-.8 1.3-.2 2-.4 2.8-.5V62l-6 .3c-6.6.6-13.2 1.2-19.8 1.9-2.6.3-5.4.3-7.6 1.1-2.9 1.1-6 .4-8.9 1.1-3.3.8-7.1.6-9.9 2.6-.4.3-1.2.3-1.8.2-3.7-.5-7.2 0-10.6 1.1-1.5.5-3.1 1.1-4.7 1.7h34.9c1.6-.4 3.1-.9 4.7-1.3 2.5-.6 5-1 7.5-1.5h.6c2.6 1.6 4.3.2 6.2-.9.7-.4 1.7-.8 2.7-.9 3.5-.5 7-.7 10.4-1.4 1.7-.3 3.1-.6 5-.3 1.6.2 3.5-.4 5.2-.8h.1v-1.1c-.2 0-.3-.1-.5-.1-2.8 0-5.7.1-8.5.1zM231.3 72h3.2c-.7-.2-1.4-.4-2.2-.7-.3.3-.6.5-1 .7zM83 69.7l-6.6.3c-3.3.4-6.5 1-9.6 2h15l-2.1-.3c1-.9 3.7-.2 3.3-2zM288.5 47c2.3 0 4.7-.2 7-.2 0 .2 0 .3.1.5-2.5.2-4.9.3-7.4.5v.3l9.6.3c.8.2 1.6.4 2.5.6-.2.3-.3.5-.5.8-1-.4-1.9-.7-2.9-1.1h-1.3c-1.2 1.7-2.9.5-4.4.3-1.7 0-3.5.1-5.2 0-1.3-.1-2.5-.8-3.7-.8-1.1 0-2.1.8-3.2 1.1-5.1 1.5-10.4.8-15.7 1l-11.1.3c-4.9.2-9.8.5-14.7.8h-.2c-3-.8-6-.1-9 .1-4.6.2-9.3-.2-13.9-.2-3.8 0-7.6.2-11.4.3h-.9c-1.2.1-2.3.2-3.5.3.3.2.7.4 1 .6-1.6 1.4-8.4 1.9-11 .8 1.8-.5 3.7-1.1 5.6-1.7-1.5-.1-2.9-.2-4.4-.3-.1-.1-.3-.2-.4-.3l-4.8.3c-.1.4-.2.8-.3 1.3.9.2 1.8.5 2.6.7v.4c-1.4.2-2.8.5-4.1.7v.6c4 0 7.9.1 11.9.1 3.9 0 7.9-.2 11.9.1-.7.1-1.4.2-2.1.4 0 .2-.1.5-.1.7 1.6.3 3.2.8 4.8.8 6-.2 12-.6 17.9-.8 5.8-.1 11.7 0 17.5 0 .7 0 1.5-.1 2.2-.1v-.5h-4.6c.9-1.2 1.7-2.2 2.5-3.3.2.3.8.6.8.9-.1 1.1.7 1.1 1.8 1 3.4-.2 6.8-.4 10.2-.5 2.8-.1 3.2.4 3.3 2.8-2.3.1-4.7.3-7.1.4-2.5.2-5 .4-7.4.5-2.7.1-5.5.2-8.2.1-7.3-.4-14.6.2-21.9.5-4.5.2-9.1-.1-13.7-.3-.6 0-1.2-.8-1.8-1.3.1-.1.2-.3.4-.4h-9.7c0 .1 0 .2-.1.3 2.6.2 5.3.4 7.9.6.1.2.1.4.2.6-1 .2-2 .6-3 .7-3 .2-6 .3-9 .3s-6-.1-9-.1c-1.9 0-3.8.3-5.7.4-1.2 0-2.5-.1-3.8-.2-2.2-.3-4.4-.7-6.6-.9-.8-.1-1.6-.1-2.4-.1-1.9 0-3.9-.1-5.8 0-1.1.1-2.3.4-3.4.6l.9 1.2 11.4.3 12.2.3c3.8-.1 7.6-.4 11.4-.3 6.6.2 13.1.7 19.7.9 3.3.1 6.6-.2 9.9-.2 7.1-.3 14.2-.5 21.3-.8 6.1-.2 12.2-.3 18.4-.6 2.7-.1 5.5-.4 8.2-.6 7.1-.5 14.3-1 21.4-1.5 1.2-.1 2.5 0 3.7-.1 0-.5.1-1 .1-1.6 1.6 0 3.2.1 4.7 0 1.3-.1 1.9.3 1.8 1.3h.9c.3-1 1-1.4 2.6-1.4 1.8 0 3.5-.6 5.3-.8 3-.3 6-.5 9-.7h1.3v-3.1h-1.1c-2.2 0-4.3.6-6.4.9-.6.1-1.3-.2-2-.2v-.5h3.8c0-.2.1-.4.1-.5-2.1-1.4-5.3.7-8-1.4 2.5-.2 4.4-.3 6.3-.4 2.2-.1 4.4-.1 6.7-.2.2-.1.4-.1.6-.2v-2.4c-10.4.3-20.8.6-31.1 1 1 1 2.9.3 4.6.3zm15.1 3.8h-.2v-.2h.2v.2z"/><path class="st6" d="M6.2 14.2c.1.1.6.5 1.1 1 2.1-2.4 5.6-.8 8.1-1.9 1 .2 2 .4 3.1.6h.9c1.9-.4 3.7-1.1 5.6-1.2 1.5-.1 3.6-1 4.6.8.1.1 1.1.1 1.4-.1 1.6-.7 3.2-1.6 4.8-2.2.3-.1 1.4.6 1.7 1 .7 1 1.1 2 2.9 1.2 3.3 1.5 6.5-1.4 9.8-.2.7.3 1.5.8 2 .7 2.1-.5 3.9.2 5.8.3 2.7.2 5.6-.7 8.5-1.1.5-.1 1.1.1 1.7.1 1.9.2 3.9.5 5.9.8-.2-1.1-.6-1.9-.4-2.5.1-.3 1.5-.4 2.3-.6.6.3 1.2.6 1.8 1h.9c.5-.4 1.1-1.1 1.6-1.1 1.7-.1 3.5 0 5.2.2 1.4.1 2.7.5 4.1.7.5.1 1.1.1 1.7 0 2.5-.4 5.1-1.1 7.5.3.1.1.4 0 .6 0 .2 0 .4-.1.1 0 .7-.8 1.1-1.7 1.7-1.8 1.2-.3 2.2.1 3.3 1 1.2 1.1 3.3 1.7 5 2.5 1.1.5 2.1 1.1 3.2 1.6 1.3-.2 2.6-.5 3.9-.4.8 0 1.6.5 2.6.9.2-.3.4-.7.7-1.2 2.6 2 5.9.5 8.8 1.1.8.2 1.7.2 2.5.4 1.2.3 2.1.3 3.6.1 2.8-.5 6.1-.9 8.9.5.5.3 1.2.4 1.6.5.8-1 1.3-1.8 2-2.6 1-1 3-.8 4 .1.5.5 1.3 1 2 1.1 2.2.2 4.4.4 6.6.3 1.6-.1 3.1-.8 4.7-1.2.6-.1 1.3-.3 1.9-.2 3.8.3 7.6.7 11.3.8 2.8.1 5.7-.3 8.6-.5.3 0 .8-.2 1-.1 1.4.6 2.5.5 3.7-.4.4-.3 1.4-.1 2.1-.2h1.8c1.9-1.6 1.8-2.2-.7-3.7h4.3c-.5.7-.8 1.2-1.2 1.8.5.2 1.1.4 1.8.6-.7.4-1.2.7-2 1 .7.2 1.2.4 1.7.6.8.1 1.6.3 2.3.3.8 0 1.8 0 2.4-.3 2.6-1.4 3.9-1.4 5.6 0h8.5c-.2-.7-.4-1.3-.6-2.1 1.5.1 2.9.2 4.3.3 2.8.3 5.4.3 7.9-1.1 1.1-.6 2.7-.7 4.1-.8.5 0 1 .7 1.6 1.1-.1-1.6-.4-1.9-2.5-1.9-1.8 0-3.7.1-4.4-1.6h-.9c-.2.6-.4 1.1-.6 1.7-3.9-.3-7.6-.6-11.3-.8-2.3-.1-4.5.1-6.8.2-.4 0-1 .2-1.1.4-.9 1.4-2.5 1.1-4.5.7.5-.1.9-.3 1.4-.4-.1-.1-.1-.2-.2-.3-1 .1-2.2.4-3 .2-4-1.2-8 0-12 0-.6 0-1.2 0-1.7-.1-2.5-.4-4.9-1.2-7.6-.4-.5.1-1.2-.3-1.9-.4-4.4-.3-8.9-.7-13.3-.9-.8 0-1.7.2-2.5.3-.6.1-1.2.3-1.7.2-6.1-1-12.2-.2-18.2-.1-4.6.1-9.2-.2-13.9-.1-4.8 0-9.7.2-14.5.2-3.4 0-6.8-.3-10.2-.3-5.9-.1-11.8 0-17.7 0-2.2 0-4.3-.1-6.5-.2-1 0-2 .1-3 .1h-3.9c-.9 0-1.7-.1-2.6-.1-2.9.2-5.9.9-8.5.4-3.5-.7-6.7.1-10.1-.1-.4.1-.8.4-1.2.4-1.1-.1-2.1 0-3.4.1-.1-.3-.2-.6-.3-1-.6-.1-1.2-.2-1.7-.3-.3 1-1.1 1.3-2.5 1.2-1.2-.1-2.4.1-3.6.1-1.1 0-2.3.1-3.3-.1-3.1-.6-6-1.9-9.3-.6-.8.3-2 .1-3 0-3.5-.3-7-.6-10.4-.8-4.2-.2-8.4-.3-12.6-.5v6.1c.7.1 1.4.3 2.1.4 1.2.2 2.4.3 4.1.5zM40 12.6c0-.1 0-.3.1-.4.2.1.4.1.4.1 0 .1-.1.3-.1.4-.2 0-.4 0-.4-.1zm3.7-.1c-.2.1-.3.3-.5.4-.4-.3-.7-.5-1.1-.8.2-.1.3-.3.5-.4.4.3.8.5 1.1.8zM208 10.8h.9v.3c-.3 0-.6 0-.9-.1-.1 0-.1-.1 0-.2z"/><path class="st7" d="M269.9 64.7c-5.9.7-11.7 1.6-17.5 2.4-.6.1-1.2.2-1.7.3-.7.1-1.5.2-2.2.3l-5.7.3-.9.3h-1.3c-.4.2-.7.6-1.1.8-.1.1-.3.1-.4.1-1.6.3-3.3.4-4.9.5-2.6.2-5.3.3-7.9.6-1 .1-1.9.4-2.7.9h8.8c.8.2 1.5.5 2.2.7h2.7c1.6-.6 3.2-1.2 4.7-1.7 3.4-1.1 6.9-1.6 10.6-1.1.6.1 1.4 0 1.8-.2 2.8-2 6.6-1.8 9.9-2.6 2.8-.7 5.9 0 8.9-1.1 2.2-.8 5-.8 7.6-1.1 6.6-.7 13.2-1.3 19.8-1.9 2-.2 4-.2 6-.3v.5c-.8.1-1.5.3-2.8.5.9.4 1.3.8 1.8.8h8.6c.2 0 .3 0 .5.1v-2.6c-7.7.3-15.4.6-23 1.2-7.4.5-14.6 1.4-21.8 2.3zm39.4 1c-1.9-.3-3.3 0-5 .3-3.4.7-7 .9-10.4 1.4-.9.1-1.9.4-2.7.9-1.9 1.2-3.6 2.5-6.2.9-.1-.1-.4-.1-.6 0-2.5.5-5 .9-7.5 1.5-1.6.4-3.1.9-4.7 1.3h18.4c1-.2 2-.5 3.1-.7 1.7-.4 3.5-1 5.2-1.4.7-.2 1.7-.5 2.3-.3 2.1.7 3.8.4 5.7-.4 1.1-.4 2.6-.4 4.4-.6-.5.6-.7.9-1 1.2.5.2 1.1.4 2.1.9-1.1.3-1.8.5-2.4.7-.4.2-.9.4-1.3.6h5.9v-7.1h-.1c-1.7.4-3.6 1-5.2.8z"/><path class="st8" d="M7.2 33.8c2.7 0 5.3.1 8 .1.4 0 .8-.3 1.1-.5 1.1-.9 1.9-.7 2.5.2h13.8l2.4-1.2c.2.4.4.8.8 1.5h6.7c.5-.4 1-.8 1.6-1.2.2.1.3.2.5.3l-.3.9h3.9c1.6-1.3 2.8-1.2 3.9.3h6.1c.3-.1.6-.4.9-.5.1 0 .2-.1.3-.1 2.8.1 5.7.2 8.5.4 3.1.1 6.3.2 9.4.3 2.2.1 4.5 0 6.7 0 2.5 0 4.9.1 7.3.1.9 0 1.9-.2 2.7-.4 1.1-.3 2.1-.8 3.7-1.5-.1 1.1-.2 1.6-.3 2h2.2c-.2-.4-.4-.7-.5-1.1.1-.1.3-.2.4-.3.5.3.9.7 1.4 1 .6-.2 1.2-.4 1.7-.7 1 .2 1.9.5 2.9.6.9.1 1.9 0 2.8 0 .6-1.8 1.8-2 3.5-.8.4.3.9.5 1.3.8 2.3 0 4.6.1 6.9-.1.8-.1 1.5-.9 2.3-1.4 3.8 1 8 2 12.3 1.4 2.7-.4 5.3.3 8 .1 2.3-.2 4.7-.3 7-.4.7 0 1.5.1 2.4.2.1-.2.2-.5.3-.9 3.1 1.4 6.2 1.3 9.3.1.1 0 .2-.1.2-.1 1.8 1.3 3.9-.3 5.9.3.8.2 1.9-.2 2.8-.1 5.2.6 10.3.1 15.5.1 1.3 0 2.7.3 4 .5 3.1-.4 6.1-.8 9.2-1.1.8-.1 1.7.1 2.5.3 2.8.6 5.5.6 8.5 0 2.6-.5 5.5-.1 8.2-.1 4.1 0 8.1.1 12.2.1 3.7 0 7.3 0 11-.1 1.1 0 2.2-.3 3.2-.5.3-.1.8-.2 1-.1 2.4 1.2 5 .6 7.6.4 1-.1 2 0 3 0h3.9c.7-.2 1.3-.5 2-.6.6-.1 1.5.1 1.9-.2 1.8-1.2 2.3-.3 2.7.8h2.2c.3-.3.6-.5.9-.8.3.3.6.5.9.8h1.7c.4-.3.7-.6 1.2-1 .2-.1.4-.3.6-.4.2.7.3 1.1.4 1.4h.8l1.8-.3c.7-.1 1.5-.2 2.2-.3 1.3-.4 2.7-1.8 3.5.3h2.6c1.1-1.3 1.6-1.3 3.1 0h1.7c.1-.2.2-.5.4-.7.2.1.3.3.5.4h4.4c.9-1 1.8-1 2.6 0h7.5c.3-1.7-1.2-1.8-2.9-2-3.3-.3-6.5-.6-9.7-1-.4-.1-.9-.3-1.3-.4-2 0-4.1.1-6.1.1-.3.8-.7 1.1-1.2.9-.3-.1-.6-.3-1-.7-.2 0-.3-.1-.5-.1-.7 0-1.4 0-2.2.1-1.7.2-3.4.5-5.1.5-3.8 0-7.6-.1-11.5-.2-1.2-.2-2.3-.4-3.5-.6-.5.9-1.1.9-1.8.8-.7-.1-1.5-.4-2.1-.3h-.8c-1.3.1-2.5.3-3.8.4H244l-2.7-.3h-.8c-.7.1-1.4.2-2.1.2-5.3-.2-10.5-.4-15.8-.5-.4-.1-.9-.2-1.3-.3H220c-.7-.1-1.5-.2-2.2-.3h-2.1c-.4 1.3-1.2 1.2-2.1.9l-.9-.3h-.9l-.9.3h-.8c-1.8.4-3.5.3-5.4.1-3.9-.3-7.9-.1-11.9-.2-.8 0-1.6-.3-2.4-.5-2 .3-3.9.5-5.9.8-2.5.3-5 .6-7.4.8-.8.1-1.5-.1-2.3-.2-.3 0-.6-.1-.9-.1-3.1.2-6.3.4-9.4.6-.7 0-1.4.2-2.1.2-1.1 0-2.3-.2-3.4-.2-1.8 0-3.7.2-5.5.2-2.1 0-4.1-.1-6.2-.1h-.9c-.6 0-1.2-.1-1.8-.1-.3 0-.6 0-.8.1-.7-.1-1.5-.2-2.2-.3-2.8 1.1-5.8.5-8.7.5-3.2 0-6.5-.4-9.7-.5-7.3-.3-14.5-.4-21.8-.7-3.9.1-7.9 1.7-11.8 0-.4.2-.7.5-1.1.5H83c-2.6 0-5.2-.1-7.8-.2h-.9c-1.5 0-3 .2-4.6.1-.8 0-1.6-.3-2.3-.4-.3-.1-.9-.3-1-.2-1.6 1.1-2.7.3-4.2-.2-.8-.3-2 .3-3.2.5-.1-.4-.3-.7-.3-.7-2.4-.3-4.7-.3-6.7-.9-2.7-.7-5.5-.4-7.4 1.2-.2.2-.5.3-1 .6-.8-1.8-2.3-1.4-4-.9-2.5.7-5.1 1-7.7.4-1.7-.5-3.5-.9-5.2-1.3.7 1.1-.4 1.2-1.8 1.3-1.2.1-2.3.5-3.4.4-1.9-.1-3.7-.5-5.5-.8-.7-.1-1.5-.2-2.2-.3-.6-.1-1.4.1-1.7-.1-1.5-1.3-2.7-.6-3.8.3-2.4-1.8-5.2-1.8-8-1.5v5.2c.2.1.4.3.5.8 2 .5 4.2.4 6.4.4zm58.8-1l.2.2-.1.1c-.1-.1-.2-.1-.3-.2.1 0 .1-.1.2-.1z"/><path class="st9" d="M314.6 9v-.6c-.5.1-1 .3-1.6.4.6.1 1.1.1 1.6.2zm-9.8 3.3h-2.6c-1.5-.2-2.9-.4-4.4-.6-.6-.3-1.2-.7-1.8-1h-.9c-.9.2-1.8.4-2.6.7h-.9c-.4-.1-.9-.2-1.3-.3-6.6-.1-13.2-.5-19.7-1.2v-.5c1.3-.3 2.7-.6 4-.9-.3-.1-.7-.3-1-.3l-13.1.3c-1.6 0-3.2-.2-4.8-.3-3.7-.1-7.5-.2-11.2-.2-2.2 0-4.4.1-6.6.2h-7.8c-.8 0-1.5.2-2.3.3.7 1.7 2.6 1.6 4.4 1.6 2.1 0 2.4.3 2.5 1.9-.6-.4-1.2-1.1-1.6-1.1-1.4.1-3 .2-4.1.8-2.5 1.4-5.1 1.3-7.9 1.1-1.4-.1-2.9-.2-4.3-.3.2.8.4 1.5.6 2.1 1.3.2 2.6.7 3.7-.3.1-.1 1.3.1 1.3.3.5 1.2 1.7 1.2 2.7.9.6-.2.7-1.1 1.2-1.8 4.1-1.1 3.4-1.3 6.5.9.5.4 1.3.7 1.9.7 2.3-.1 4.6-.4 6.9-.6 1.4-.1 2.9-.2 4.8-.3.7.9 1.9 1.5 3.9.1.5-.4 2.2-.2 3 .2 2 1.1 3.8.8 5.9.2 1-.2 2.3.3 3.7.5.2-.4.5-.9.8-1.4 1.8.7 3.5 1.4 5.3 2.1.1.1.3.1.4.1 2.9-1.5 6.5.9 9.3-1 .1-.1.3-.1.4-.1 1.9 1.2 3.3 0 5-.4.4-.1 1 .1 1.4.2 1.7.5 3.3 1.1 5 1.7h.8c1.4-.2 2.8-.3 4.2-.5.1 0 .3-.1.4-.1 3 1 5.9-.2 8.9-.2 1 0 1.9.3 2.9.4 1.1.1 2 .6 3-.5.8-.8 2.7-.2 3.9.8V12c-1.7.1-3.5.3-5.2.4-1.5 0-3-.1-4.6-.1z"/><path class="st10" d="M3.6 56.4c1.5-.1 2.9-.8 4.3-.9 1.5-.1 3.1.2 4.7.2 1.2 0 2.3-.1 3.5-.2.2 0 .4-.1.6-.1 3 .2 6 .4 9.1.6 2.1-.2 4.3-.4 6.4-.7.1 0 .3-.1.4-.1 3.2 1.2 6.6-.7 9.8.6.1 0 .3.1.4.1 4.8-1.2 9.6.9 14.5 0 2.1-.4 4.3-.5 6.5-.8 2.8-.8 5.6-1 8.3.3l33.6.3c1.4-.1 2.9-.3 4.2-.1 1.6.2 2.8.3 2.7-1.2 6.7.4 13.2.9 19.7 1.3l5.7-.3c2-1.3 4.2-.5 6.3-.5.1.2.1.4.2.6-.9.2-1.7.4-2.6.5-1.2.1-2.2.2-2.1 1.3h.9c.7-.5 1.5-.9 2.2 0h.9c.4.1.9.2 1.3.3h.9l.9-.3 3.9.6c1.1-.2 2.2-.5 3.4-.6 1.9-.1 3.9 0 5.8 0 .8 0 1.6 0 2.4.1 2.2.3 4.4.7 6.6.9 1.2.2 2.5.3 3.8.2 1.9-.1 3.8-.4 5.7-.4 3 0 6 .1 9 .1s6-.1 9-.3c1-.1 2-.4 3-.7-.1-.2-.1-.4-.2-.6-2.6-.2-5.3-.4-7.9-.6 0-.1 0-.2.1-.3h9.7c-.1.1-.2.3-.4.4.6.4 1.2 1.2 1.8 1.3 4.6.2 9.1.5 13.7.3 7.3-.4 14.6-.9 21.9-.5 2.7.1 5.5 0 8.2-.1 2.5-.1 5-.4 7.4-.5 2.4-.2 4.7-.3 7.1-.4-.1-2.4-.5-2.8-3.3-2.8-3.4.1-6.8.3-10.2.5-1.1.1-1.9 0-1.8-1 0-.3-.6-.7-.8-.9-.9 1.2-1.6 2.1-2.5 3.3h4.6v.5c-.7 0-1.5.1-2.2.1-5.8 0-11.7-.1-17.5 0-6 .1-12 .6-17.9.8-1.6 0-3.2-.5-4.8-.8 0-.2.1-.5.1-.7.7-.1 1.4-.2 2.1-.4-4-.2-7.9-.1-11.9-.1s-7.9-.1-11.9-.1V54c1.4-.2 2.8-.5 4.1-.7v-.4c-.8-.2-1.7-.4-2.6-.7.1-.5.2-.9.3-1.3h-6c-3.1 0-6.2.1-9.3.1-.9 0-1.8-.3-2.6-.5.8 1.1 1.5 2.2 2.5 3.5-1.7.1-3.7.3-5.7.5-.1-.2-.2-.3-.3-.5.8-.5 1.7-.9 2.5-1.4-.9-1.6-1.9-1.6-4.8.3-2.7-1.3-5.7-1.7-8.9-1.8-.8 0-1.6.5-2.5.5-1.4 0-2.8-.2-4.5-.4-.3.4-.7 1.4-1.5 1.7-.7.2-1.9-.4-2.8-.7-2.1.6-4.2 1.3-6.4 1.7-.9.2-2.1 0-2.9-.3-4.4-1.7-9.1-1.2-13.8-1.1-2.5.1-5 .2-7.6.2-1.2 0-2.5-.3-1.5-1.8h-8c-3.6-.1-7.2-.2-10.9-.2s-7.5.1-11.2.1c-1.7 0-3.3-.2-5-.2-4.9.1-9.8.3-14.7.3-1.3 0-2.6-.6-3.9-.9H54c-.5 1-1.4 1.3-2.9 1-.9-.2-2-.1-3-.1-.9 0-2 .1-2-.9-4.3-.1-8.5-.3-12.8-.3-3.2-.1-6.5.2-9.7-.1-4.5-.4-8.9 0-13.3-.1-3.3.3-6.8.3-10.3.2v6.6c1.2.1 2.4.2 3.6.1zm255.5-1.2l-.1.1c-.1 0-.2-.1-.2-.1l.1-.1c.1 0 .2.1.2.1zm-5.1-.1c.2-.1.3-.4.5-.4s.5.1.9.3c-.4.2-.6.4-.8.4-.1 0-.3-.2-.6-.3zm-104.8.9c0-.2.1-.4.1-.6.6.1 1.3.2 1.9.3 0 .1 0 .3-.1.4-.6-.1-1.3-.1-1.9-.1zm11.5-.4v.5h-3.1v-.5h3.1zm-7.9-.1c1-.1 2.1-.2 3.3-.4-.6 1.5-.6 1.5-3.3.4z"/><path class="st8" d="M7.1 22.4c3.9-.5 7.7-.9 11.5.2.3.1.8-.1 1.2-.1 1.9-.2 3.8-.7 5.6.5.3.2 1.2.2 1.3 0 1.6-1.8 4.2-.9 6.3-1.1 2.7-.3 5.7.4 8.5.5.9.1 1.8-.1 2.7-.4 1.1.2 1.9 2.7 3.4.1.5.3.9.7 1.1.7 3.2-.9 6.3 1 9.5.3.6-.1 1.4.3 2.2.4h.4c1-.1 2-.2 3.1-.3.9-.1 1.9-.2 2.8-.3 2.6-.2 5.3-.5 7.9-.7 2-.2 4.1-.2 6.1-.4 2.4-.2 4.8-.7 7.3.2.9.3 2.5-.5 3.2-.2 3.7 1.6 7.6 1.4 11.6 1.2 3.1-.1 6.3-.4 9.2.1 2.6.4 5-.3 7.5 0 .9.1 2-.5 3-.5 1-.1 2 .2 3 .2h5.7c1.1 0 2.1-.1 3.2-.1 2.7 0 5.3.1 8 .2 2.8.1 5.6.2 8.4.2h1.3c3.2 0 6.5.2 9.7.1 5.1-.1 10.2-.3 15.2-.4 0-.5-.1-1.2.2-1.6.2-.3 1.5-.7 1.6-.6 1.7 1.3 3.9.4 5.8.8 3 .7 6 .3 9.1.3 2.6 0 5.3.5 7.6-1 .6-.4 1.9-.2 2.8-.1 2.3.2 4.7.4 7.3.7-.5-1.5-1.3-1.7-2.8-1.7-3-.1-5.9-.5-8.9-.7h-.4c-.9 1.1-1.7.7-2.6 0l-8.7-.3c-.5 0-.9-.4-1.4-.6h-3.3c-5.4 0-10.8-.1-16.1-.1-3.4 0-6.8.1-10.2.1h-7.5c-3.3 0-6.7.1-10 .1-5 0-10-.1-14.9-.1-1.4 0-2.7.2-4.1.2h-17.6c.9.8.2 1.1-.8 1.1-3.4-.1-6.7-.3-10.1-.4-3.1-.1-6.3 0-9.5-.1-.5 0-1-.4-1.6-.6l-1.8-.3v1.4c-4.9-.2-9.7-.4-14.4-.6-2.1-.1-4.2 0-6.3.1-1.7.1-3.4.1-5 .2-5.7.3-11.4-.9-17.1.6-3 .8-7.1 1.1-9.8.2-3.2-1.1-5.9-.5-8.8-.8-.5 0-1-.5-1.4-.8-2-.1-4-.3-6-.3-3.5.1-6.9 0-10.3 0v4.3c.8.2 1.6.4 2.5.5 1.5 0 3.1-.1 4.6-.3zm50.7 0h-.2v-.2h.2v.2z"/><path class="st6" d="M35.4 5c8 0 16 .1 24 .2 14.6.2 29.1.3 43.7.4l42.2.3c3.8 0 7.6-.3 11.4-.3h58.9c1.5 0 2.9-.4 4.4-.6V4c-7.4-.2-14.8-.4-22.3-.6h-4.8c-3.5-.2-6.9-.5-10.4-.6-4-.1-8.1 0-12.1-.1-3.6-.1-7.2-.4-10.8-.4-4 0-8.1-.6-12.2.1-.7.1-1.5.2-2.2 0-3.1-.6-6.1.1-9.1.3-2.6.1-5.2 0-7.8 0-5.4-.1-10.7-.4-16.1-.5-5.5 0-11 .2-16.5.2-4.7 0-9.5-.2-14.2-.2-4.2 0-8.4.3-12.5.2-6.6-.1-13.3-.4-19.9-.5-2.5-.1-5.1 0-7.6.1-.6 0-1.2-.1-1.9-.1h-.9c-1.3 0-2.5.1-3.8.1-5.6 0-11.2.1-16.8.1-5.9-.3-12-.5-18.1-.7v3.2c7.2.2 14.4.4 21.6.5 4.6.1 9.2-.1 13.8-.1z"/><path class="st11" d="M22.9 8.4c1 .1 2.2.3 3 0 3.4-1.3 6.3 0 9.3.6 1 .2 2.2.1 3.3.1.4-1 1.3-1.4 2.7-1.3 1.1.1 2.3 0 3.4 0 .6.1 1.2.2 1.7.3l4.8.3c3.3.3 6.6-.6 10.1.1 2.6.5 5.6-.2 8.5-.4.9 0 1.7 0 2.6.1h3.9c1 0 2-.1 3-.1 2.2 0 4.3.2 6.5.2h17.7c3.4 0 6.8.3 10.2.3 4.8 0 9.7-.2 14.5-.2 4.6 0 9.3.2 13.9.1 6.1-.1 12.2-.9 18.2.1.5.1 1.1-.1 1.7-.2.8-.1 1.7-.4 2.5-.3 4.4.3 8.9.6 13.3.9.7-.2 1.5-.6 2.2-.6 4.3-.1 8.5-.2 12.8-.2h21.4c4.3 0 8.7.1 13 .2h.9c.8-.1 1.5-.3 2.3-.3h7.8c.1-1.7 2-.9 3.1-1.3-.7-.2-1.5-.6-2.2-.6-4.8-.1-9.6 0-14.8 0V4.3c-1.3.2-2.6.4-4 .6-1.5.2-2.9.6-4.4.6h-58.9c-3.8 0-7.6.3-11.4.3l-42.2-.3c-14.8 0-29.3-.1-43.9-.3-8-.1-16-.2-24-.2-4.6 0-9.2.2-13.8.1C14.4 5 7.2 4.8 0 4.6v2.6c4.2.1 8.4.3 12.6.5 3.4.2 6.9.5 10.3.7z"/><path class="st5" d="M279.4 22.5c-1.1 0-2.3-.2-3.4-.2-1 0-2.1.2-3.1.3-1.1 0-2.3-.2-3.5-.2-3.7 0-7.5.2-11.2.2-3.8.1-7.6.2-11.5.2-1.1 0-2.3-.1-3.4-.2l-.6 1.5v.1c4.8 0 9.8.5 14.4-.1 3.6-.5 6.2.9 9.3 1.1h.8c.2-.2.5-.3.7-.5.2.3.4.5.6.8h1.3l.4-.4.4.4c8.8 0 17.1.9 21.5 2.5-.2.3-.4.7-.6 1 .4.1.9.3 1.3.4.4-.2.8-.5 1.2-.5h15.7c.8 0 1.6.1 2.4.2l.9-.3c.5 0 1 .1 1.5.1v-6.6c-3.9-.1-7.7-.2-11.6-.2-7.7 0-15.6.2-23.5.4z"/><path class="st12" d="M293.1 58.1c-1.7.1-3.5-.2-5.2-.1-3.6.2-7.1.6-10.7.9-3.8.2-7.6.3-11.4.6-2.6.2-5.2.5-7.8.8-.8.1-1.7.3-2.5.2-3.2-.6-6 .7-9 .9-4.3.4-8.7.4-13 .5-5.9.1-11.7.1-17.6.2h-1.7c-.9.1-1.9.5-2.7.3-.3-.1-.5-.3-.8-.6-3.7-.4-7.4-.8-11.1.2-.4.1-.9.1-1.3.1-2.7-.1-5.4-.3-8.1-.4-1.1 0-2.1.1-3.2 0-3.1-.2-6.2-.5-9.4-.7-.8-.1-1.5 0-2.3.1l-13-.3c-.5 0-.9-.2-1.4-.3-.6-.1-1.1-.2-1.7-.2-1.5.9-2.9.9-4.4 0h-2.6c-.5.1-.9.2-1.4.3h-2.2c.4.2 1 .3 1.3.5.4.3.6.8.9 1.2.9.2 1.8.5 2.7.7.3.1.6.1.9.1h1.8c1.8 0 3.6-.1 5.4-.2.5-.1 1.1-.3 1.6-.3 5 .4 10 .9 15 1.3 1.7.1 3.4.3 5.1.3 2.8 0 5.7-.2 8.5-.2.7 0 1.4.3 2 .5 3 1.1 6.1.4 9.1.4 3.8.1 7.6.4 11.4.5h5.7c4-.2 8.2-.2 12.1-.7 6.8-.9 13.7-1 20.5-1.4 2.9-.2 5.8-.2 8.7-.4 1.2-.1 2.3-.7 3.5-.7 5.4-.3 10.8-.4 16.1-.7.9 0 1.7-.4 2.6-.6 1.4-.3 2.8-.6 4.2-.6 3.9-.2 7.9.1 11.7-.5.8-.1 1.6-.2 2.3-.2 1.5-.1 3.1-.2 4.6-.1 2.7 0 5.4.3 8.1.5v-3c-2.2.2-4.4.3-6.5.4-4.8.3-9.8.5-14.8.7z"/><path class="st13" d="M8 29.4c1.1-.9 2.3-1.6 3.8-.3.3.2 1.1.1 1.7.1.7.1 1.5.2 2.2.3 1.8.3 3.7.7 5.5.8 1.1.1 2.3-.4 3.4-.4 1.4-.1 2.5-.2 1.8-1.3 1.7.4 3.4.9 5.2 1.3 2.6.7 5.2.3 7.7-.4 1.7-.5 3.2-.9 4 .9.5-.3.8-.4 1-.6 1.8-1.6 4.7-1.9 7.4-1.2 2 .5 4.3.6 6.7.9 0 0 .1.3.3.7 1.2-.2 2.4-.7 3.2-.5 1.5.5 2.7 1.3 4.2.2.1-.1.6.1 1 .2.8.2 1.6.4 2.3.4 1.5 0 3-.1 4.6-.1-.5-.4-.9-.8-1.4-1.3-.4-.4-.8-.8-1.3-1.2 2-.3 3.5-.5 5.1-.8 0-.2-.1-.5-.1-.7-1 0-2.1-.3-3-.1-2.2.6-4-.1-5.7-.7-2.3-.9-4.5-.5-6.7-.5h-.2c-.7-.3-1.5-.6-2.2-.9.6-.2 1.3-.4 1.9-.7-.7-.2-1.5-.6-2.2-.4-3.2.6-6.3-1.2-9.5-.3-.2.1-.6-.4-1.1-.7-1.5 2.6-2.2.1-3.4-.1-.9.2-1.8.4-2.7.4-2.9-.2-5.8-.9-8.5-.5-2 .2-4.6-.7-6.3 1.1-.1.2-1.1.1-1.3 0-1.7-1.1-3.7-.6-5.6-.5-.4 0-.9.2-1.2.1-3.8-1.2-7.7-.8-11.5-.2-1.5.2-3.1.4-4.6.2-.8-.1-1.7-.3-2.5-.5v5.8c2.8-.3 5.6-.3 8 1.5zm62.1-2c-.5 1.2-1.4 1.7-3.1 1.3-1.9-.4-1-1.2-.7-2.2 1.4.4 2.6.6 3.8.9z"/><path class="st10" d="M303.5 33.6h-2.6c0 2.8 0 2.8 3.7 3 2.7.1 5.4.1 8.1.1.6 0 1.3 0 1.9.1v-1.7h-12.8c.6-.5 1.1-1 1.7-1.5zm8.2.8c.9.2 1.9.2 2.9.3v-1c-1.8 0-3.6-.1-5.4-.1.8.3 1.7.6 2.5.8z"/><path class="st5" d="M13.8 62.8c1.1 0 2.1.3 3.2.3 4.3-.2 8.5-.6 12.8-.8 1.1-.1 2.3.1 3.4.1l11.8-.3c.9 0 1.7.1 2.6.1 2.1-.1 4.1-.2 6.2-.3 1.9 0 3.7.1 5.6 0 4.7-.2 9.4-.5 14.1-.6 4.3-.1 8.6-.1 12.9-.1.6 0 1.2.4 1.9.6h1.3c.3-.3.6-.8.9-.8 1.9 0 3.8.1 5.8.1h4.7c-.2-.3-.3-.6-.5-.9 1-.4 2.1-.7 3.1-1-6.9 0-13.9.1-20.8.1-3.2 0-6.4-.2-9.7-.2-2.6 0-5.2.1-7.8.3-2.7.1-5.3.4-8 .5-4 .1-7.9.3-11.9.3-1.8 0-3.5-.6-5.2-.9H39c-.4.6-.9.8-1.4.5l-.5-.5h-3c-.4.6-.8.7-1.2.2l-.2-.2h-2.6c-.4.7-.9.7-1.3 0h-2.1c-1.3.4-2.7 1-4.1 1.1-2.1.1-4.3-.1-6.4-.3-.3 0-.6-.4-.9-.6-5 .6-10.2 0-15.3.1v4.1c1.5-.4 3-.6 4.7-.6 3 .2 6-.2 9.1-.3z"/><path class="st14" d="M312.3 29.1c-.8-.1-1.6-.2-2.4-.2h-15.7c-.4 0-.8.3-1.2.5 3.2.3 6.5.7 9.7 1 1.7.1 3.2.3 2.9 2 2.4.1 4.9.1 7.3.2.5 0 1.1.1 1.6.1V29c-.5 0-1-.1-1.5-.1-.2 0-.5.1-.7.2z"/><path class="st12" d="M304.4 54.3c-1.8.2-3.5.8-5.3.8-1.6 0-2.3.4-2.6 1.4 3.9-.1 7.8-.3 11.8-.3 2.1 0 4.2.1 6.3.2v-2.8h-1.3c-3 .2-6 .4-8.9.7z"/><path class="st14" d="M23.9 50c3.2.3 6.5 0 9.7.1l12.8.3c1.2-.1 2.3-.2 3.5-.3-1.7-.2-3.5-.3-5.2-.5v-.4c2.4 0 4.7 0 7.1.1.3 0 .5.7.8 1.1h2.6c2.4-.3 4.8-.9 7.1-.9 10.1-.1 20.3 0 30.4 0 .6-.3 1.2-.6 1.7-1-1-.1-2-.3-3-.3H72.6c-5.3 0-10.6-.2-16-.3-.4 0-.8-.1-1.2-.3.2-.1.4-.1.6-.2 1.2-.4 2.2-.8 2.2-1.8 0-.2 0-.4-.1-.6h-2.6c.2.3.3.6.4.7-1 .8-1.8 1.6-2.8 2.3-.4.3-1.1.5-1.7.5-2.1-.1-4.2-.4-6.4-.5-2-.1-4 .2-6 .2-5.6-.1-11.2-.2-16.7-.3-.7 0-1.4.2-2.1.2-3.7.3-4.8-.7-3.5-3.2l-15.3-.6c-.5 0-.9 0-1.4.1v5.4c3.5 0 7.1 0 10.6.1 4.4.1 8.8-.4 13.3.1z"/><path class="st14" d="M33.6 50.1l12.8.3c-4.3-.1-8.5-.3-12.8-.3zm276.9-31.6c-.4-.1-.9-.2-1.3-.3-3 .3-6.1.7-9.1.9-1 .1-2-.2-3-.3-1.1-.1-2.3-.2-3.4-.1-1.5.1-3 .5-4.7.7-.1 1.3 1.8 1.2 3.1 1.3 1.1.1 2.2-.3 3.2-.3 1.3 0 2.7.3 4 .3 1.8 0 3.6-.2 5.5-.3 1 0 1.9.1 2.9.1.4 0 .7.1 1.1.1 2 0 3.9-.1 5.9-.1V19h-.6c-1.3-.1-2.4-.3-3.6-.5z"/><path class="st15" d="M23.7 36.8zm0 0zM12.1 40c2 .1 3.7.2 5.4.3 2.9-1.3 6.1-.6 9.2-.7 1.5-.1 2.9-.4 4.4-.6-2.4-.3-4.7-.6-7.1-.9-1.2-.1-2.5-.1-3.8-.2 0-.2-.1-.3-.1-.5 1.2-.2 2.3-.5 3.5-.8 0-.7.1-1 .8-1.1.2 0 .6 0 1 .1 2.4.4 5 .3 7.6.5-.6.1-1.1.3-1.6.4v.3h8.2c-.7-.4-1.3-.6-1.9-.9 1.1-1.8 3.2-.7 4.7-.8 3.3-.1 6.7 0 10 .1 1.9 0 3.8.1 5.8.2.6 0 1.7 0 1.8-.3.4-.8-.3-1.2-1.4-1.1h-6.8l-3.9-.3H35.6c-.4-.7-.6-1.1-.8-1.5-.8.4-1.5.8-2.4 1.2H18.6c-.6-.9-1.4-1.1-2.5-.2-.3.2-.7.5-1.1.5-2.7 0-5.3-.1-8-.1-2.2 0-4.5.1-6.7.1.3.3.5.7.9.8 2 .5 4.1 1.1 6.2 1.4 3.4.5 6.9.7 10.3 1.1.3 0 .6.2.9.5-6.3.7-12.7 1.1-18.6-1.3v5.1l10.4.3c1.4.1 2.7.1 1.7-1.6z"/><path class="st12" d="M8.4 70.8c1-.3 2-.7 3-.7 4 0 7.7-.7 11.4-1.8.8-.2 1.9-.1 2.8-.2 3.1-.2 6.2.3 9.4-.8 2.1-.7 4.9-.2 7.3-.3 2.7-.2 5.4-.5 8.1-.8v-.6c-6.8.3-13.7.6-20.5.9-.7.6-1.4.7-2.1.7h-.6c-.6-.1-1.1-.2-1.7-.3h-.8l-.9.3h-1.3c-.4.1-.9.2-1.3.3h-4.3c-.7.2-1.5.4-2.2.6h-3.9c-.1.2-.2.5-.4.6-1.4.8-8 1-9.5.4-.1 0-.1-.2-.2-.3H.2V72h4.7l1.5-.3c.5-.2 1.2-.7 2-.9z"/><path class="st13" d="M306 6.2v.4h4.9V7c-2.9.4-5.8.1-8.7-.2.5.3 1 .7 1.6.9.7.3 1.6.4 2.3.7h4c.8.1 1.5.2 2.3.3h.7c.5-.1 1-.3 1.6-.4V6.2H306zm7 2.6c.5-.1 1-.3 1.6-.4-.5.1-1 .3-1.6.4z"/><path class="st8" d="M35.1 1.8c1.3 0 2.5-.1 3.8-.1.2-.6.2-.7-1.1-1.7H0v1.4c6.1.2 12.2.4 18.3.5 5.6.1 11.2 0 16.8-.1z"/><path class="st13" d="M.8 66c8.3-.8 16.9-3.1 26-1.1 0 0 .1-.2 0-.4 0-.2-.1-.4-.2-.6.2-.1.3-.2.5-.2 4.5 0 9.1-.2 13.6 0 4.7.2 9.3 0 14-.6 3.4-.4 6.9-.1 10.3-.2 4.5-.2 8.9-.5 13.4-.7 2.3-.1 4.6-.1 6.8-.1 1 0 2.1-.2 3.1-.4-.6-.3-1.3-.7-1.9-.7-4.3 0-8.6 0-12.9.1-4.7.1-9.4.5-14.1.6-1.9.1-3.7 0-5.6 0-2.1 0-4.1.2-6.2.3-.9 0-1.7-.1-2.6-.1l-11.8.3c-1.1 0-2.3-.2-3.4-.1-4.3.3-8.5.6-12.8.8-1 .1-2.1-.3-3.2-.3-3 .1-6.1.5-9.1.4-1.7 0-3.2.2-4.7.6v5h.1c.2-.7.4-1.6.7-2.6z"/><path class="st12" d="M305.7 32.3h-14.5l-.9.3h-7.4c-1.2-.1-2.3-.2-3.5-.3-.7.1-1.5.2-2.2.3l-1.8.3h-19.2l3.9.9c1.5-.1 3-.3 4.6-.3 2.7-.1 5.3 0 8 0h36.2c1.8 0 3.6.1 5.4.1v-1.1c-.5 0-1.1-.1-1.6-.1-2.1 0-4.6 0-7-.1z"/><path class="st9" d="M16.3 18.5c2 0 4 0 6.1-.1 0-.1 0-.1.1-.2.5-.5 1-1 1.5-1.6-.7 0-1.8.2-2.2-.1-1-.8-1.6-1.7-2.4-2.6h-.9c-1.8 1.2-2.2 1.2-3.1-.6-2.5 1.1-6-.5-8.1 1.9-.6-.5-1-.9-1.1-1-1.7-.2-2.9-.3-4-.5-.7-.1-1.4-.2-2.1-.4v4.6c3.4.1 6.8.2 10.3.3 1.9 0 3.9.2 5.9.3z"/><path class="st5" d="M21.5 44.2c8-.1 16-.1 24-.2.5-.5 1.1-1 1.6-1.5-1.6-1.3-3.5.2-5.4.1-3.1-.1-6.3.2-9.5.3-.1 0-.3 0-.4-.1-1.2-.9-2.4-1.1-4.2-.7-1.7.3-3.6-.2-5.5-.3-1.2 0-2.5.1-3.7.1-.7 0-1.4 0-2.4-.1.6-.7 1-1.1 1.4-1.5-1.7-.1-3.4-.2-5.4-.3.9 1.7-.4 1.7-1.7 1.6-3.4 0-6.8-.1-10.3-.2v1.9c5.9.2 11.8.3 17.8.5 1.2.1 2.4.3 3.7.4zm-1.3 13.9h.9c.9-.3 1.7-.7 2.6-.9.9-.2 2.1.2 2.2-1-3-.2-6-.4-9.1-.6-.2 0-.4.1-.6.1-1.2.1-2.3.2-3.5.2-1.6 0-3.2-.3-4.7-.2-1.5.1-2.9.8-4.3.9-1.2.1-2.4 0-3.6-.1v2.1h13.6c1.4-1.3 4.7-1.5 6.5-.5zm-3.4-2.6c3 .2 6 .4 9.1.6-3.1-.1-6.1-.4-9.1-.6z"/><path class="st16" d="M15.4 59.4l11.4-.3h13.4c1.5-.2 2.9-.4 4.4-.7-1.3-.3-2.5-.5-4-.1-1.5.3-3.4-.1-5.1-.1-1.2 0-2.3.3-3.5.3l-11-.3h-.9l-6.6.3H-.1v1.2c5.2-.2 10.4.4 15.5-.3zm24.2-.3h.6-.6z"/><path class="st13" d="M18.8 37.7c-.2-.3-.5-.4-.9-.5-3.4-.3-6.9-.6-10.3-1.1-2.1-.3-4.2-.9-6.2-1.4-.4-.1-.6-.5-.9-.8-.2-.5-.4-.7-.5-.8v3.1c5.9 2.4 12.3 2 18.8 1.5z"/><path class="st16" d="M16.7 44.9h4.8v-.7c-1.2-.1-2.5-.3-3.7-.3-6-.2-11.9-.4-17.8-.6v1c.5-.1.9-.1 1.4-.1 5.1.2 10.2.5 15.3.7z"/><path class="st10" d="M78.4 69.1c1.1-.3 2.2-.5 3.3-.7.6-.2 1.2-.4 1.7-.6h.9c.1-.2.2-.5.3-.7.2.2.4.5.5.7.7-.1 1.5-.2 2.2-.3 1.4-1.7 3.7-1.4 5.8-1.3 3.5.2 5.1-.3 6.5-2.2-9.6-.1-19 .6-28.5 1.5-2.4.2-4.8.3-7.1.4l-8.4.3h-5.2c-2.7.3-5.4.6-8.1.8-2.4.2-5.2-.4-7.3.3-3.2 1.1-6.2.6-9.4.8-.9.1-1.9 0-2.8.2-3.7 1.1-7.4 1.7-11.4 1.8-1 0-2 .4-3 .7-.8.2-1.4.7-2.2.9l-1.5.3H67c3-1 6.3-1.6 9.6-2 .5-.3 1.1-.7 1.8-.9zM67.2 68s.1 0 .1-.1l.2.2-.1.1c-.1-.1-.2-.1-.2-.2z"/><path class="st12" d="M154.1 69.4c-1.7-.3-3.5-.5-5.3-.6-2.9 0-5.8-.8-8.6-.9-7.6-.3-15.1-.9-22.6-1.8-1.5-.2-2.6-.4-1.8-1.8h-3.6c0 .1-.1.2-.1.3.7.3 1.5.6 2.2 1 0 .1 0 .3-.1.4-2.2.1-4.3.2-6.5.4-3.2.2-6.5.5-9.7.7-3.5.2-7.1.2-10.6.3-.7.1-1.5.2-2.2.3h-1.8c-.6.2-1.2.4-1.7.6-1.1.2-2.2.4-3.3.7-.7.2-1.3.6-1.9.9l6.6-.3c2.1.1 4.2.3 6.3.2.7 0 1.4-.6 2.2-.8 1-.4 1.9-.8 3-1 1.7-.2 3.4-.2 5.1-.4 6.3-.8 12.6-.5 18.9 0 2 .1 4 .6 6 .7 3 .3 5.9.4 8.9.6 1.3.1 2.6.6 3.8.5 2.1-.3 3.6.3 5.3.9 1.5.6 3.8 1.2 5 .8 3-1.2 4.9 0 6.7.8h8.1c-1.6-.4-3.2-1-4.7-1.7-1-.5-2.4-.6-3.6-.8z"/><path class="st10" d="M102 69.7c-.8-.2-1.7-.3-2.7-.5.1-.5.2-.9.3-1.4-1.7.1-3.5.1-5.1.4-1 .1-2 .6-3 1-.7.3-1.4.8-2.2.8-2.1 0-4.2-.1-6.3-.2.3 1.8-2.3 1.1-3.1 2 .7.1 1.3.2 2.1.3h20.9c.9-.9.6-2-.9-2.4z"/><path class="st12" d="M202.3 69c-.5-.1-1-.1-1.4-.2-3.9-.4-7.9-.7-11.8-1.1-5-.5-9.9-1-14.8-1.5-5.8-.6-11.6-1-17.5-1.5-.4 0-.8.1-1.2.2.4.2.9.4 1.3.7.6.2 1.2.6 1.8.6 4.6.4 9.2.6 13.8 1 1.2.1 2.3.5 3.5.6 3.8.4 7.6.7 11.4 1.1 1.5.2 3.1.3 4.4.8 2.9 1.1 5.9 1 8.9 1.2.6 0 1.2.3 1.8.4 1.5.2 3.1.4 4.6.5v-1.2c-1.1-.1-2.1-.2-3.1-.2V70c.9 0 1.8-.1 2.7-.1-1.5-.5-2.9-.7-4.4-.9z"/><path class="st7" d="M127.7 63.5c-1.3-.1-2.6-.1-3.9-.2-7.3-.2-14.5-.5-21.8-.3-8 .2-16 .8-24.1 1.2-6 .3-12 .6-18 1-1.5.1-3 .4-4.4.6v.3l8.4-.3c2.4-.1 4.8-.2 7.1-.4 9.5-.9 18.9-1.6 28.5-1.5 2.6-.1 5.1-.3 7.7-.3 4.6 0 9.2.1 13.8.3 2.9.1 5.9.4 8.8.6 3.1.2 6.3.3 9.4.4v-.6c-3.7-.3-7.6-.6-11.5-.8z"/><path class="st12" d="M223.6 71.3c.8-.5 1.8-.8 2.7-.9 2.6-.2 5.3-.4 7.9-.6 1.6-.1 3.3-.2 4.9-.5.1 0 .3-.1.4-.1.4-.2.7-.5 1.1-.8-3.6.3-7.2.7-10.7.9-3.4.2-6.8.2-10.2.4-.8 0-1.5.4-2.3.6 1.3.1 2.7.2 4 .4.2 0 .3.6.4.9v.3h9.5c.4-.2.7-.4 1-.7-2.9.1-5.8.1-8.7.1z"/><path class="st12" d="M240.7 68.4c-.4.2-.7.6-1.1.8.3-.2.7-.5 1.1-.8z"/><path class="st16" d="M219.7 71.7h2.2c-.1-.3-.2-.9-.4-.9-1.3-.2-2.7-.3-4-.4l-4.8-.3c-.9.5-1.9.5-2.9.3-.6-.2-1.1-.5-1.5-.9-.6.1-1.1.2-1.7.2-.9 0-1.8.1-2.7.1v.4c1 .1 2 .2 3.1.2v1.2c.8.1 1.5.2 2.3.4h4.5c.2-.1.4-.3.6-.3 1.8-.1 3.5 0 5.3 0z"/><path class="st16" d="M219.7 71.7h2.2c-.7-.1-1.5 0-2.2 0zm-76.4-7.2v.4l13.5.6c-.4-.2-.9-.4-1.3-.7l-12.2-.3z"/><path class="st12" d="M214.4 71.7c-.2 0-.4.1-.6.3h5.4c.1-.1.3-.2.4-.3-1.7 0-3.4-.1-5.2 0z"/><path class="st16" d="M139.4 64.3v.6h2.6v-.6h-2.6zm0 0z"/><path class="st7" d="M142 64.3v.6h1.3v-.4c-.4-.1-.9-.1-1.3-.2z"/><path class="st8" d="M41.7 1.8c2.5 0 5.1-.1 7.6-.1 6.6.1 13.3.4 19.9.5 4.2.1 8.4-.2 12.5-.2 4.7 0 9.5.2 14.2.2 5.5 0 11-.3 16.5-.2 5.4 0 10.7.3 16.1.5 2.6.1 5.2.2 7.8 0 3-.2 6-.9 9.1-.3.7.1 1.5.1 2.2 0 4-.7 8.1-.1 12.2-.1 3.6 0 7.2.3 10.8.4 4 .1 8.1 0 12.1.1 3.5.1 6.9.4 10.4.6 0-1.1.8-1.5 2.2-1.6 3.4-.1 6.9-.1 10.3-.4 6.4-.6 12.8.3 19.2.3 6.2.1 12.3 0 18.5 0 5 0 10 .2 14.9.3 1.7-.4 3.5-.9 5.2-1.3-.1-.4-.3-.6-.6-.7h-1.7l-.9.3c-1.3.3-2.1.3-3.4-.1-.2-.1-.4-.1-.5-.1h-2.7c-.2.1-.5.1-.7.2-1.6.6-3 .3-4.3-.2H245c.2.1.4.1.5.2h-8.7c.3-.1.6-.2.9-.2h-28.6c-.9.6-1.9.5-3 .1v-.1H80.8c-.4.3-1 .4-1.6.3C75 0 70.7.9 66.6 0h-5.9c-5 .8-10 .4-15 .1-1-.1-2-.1-2.9-.1h-2.5c-.2.6-.3 1.1-.5 1.7.6.1 1.3.1 1.9.1z"/><path class="st13" d="M265.2 48c-.2 0-.5.2-.7.3 0 .2.1.4.1.5 5.1-.2 10.2-.5 15.3-.7v.6c-7.8.3-15.6.7-23.5 1 0-.2 0-.4-.1-.6 2.2-.1 4.4-.2 6.7-.3v-.5c-1.1-.2-2.1-.4-3.2-.6-5.3 0-10.6.1-15.8.1-2.5 0-5 .2-7.5.2h-18.1l-36.2.3c-7.8.1-15.6.3-23.4.3-6.9 0-13.9-.4-20.8-.6-1.8 0-3.6.3-5.4.3l-29.8-.3c.5.3 1 .8 1.6.9 1 .2 1.8.3 1.5 1.3h13c0-.1.1-.2.1-.4-.5-.1-1.1-.3-1.6-.4.1-.1.1-.3.2-.4 1.1.3 2.2.6 3.1.8 1.2.1 2.1.2 3 .3.6 0 1.3.1 1.9 0 3-.3 6.1-.6 9.1-.8h.5c.4.1.8.4 1.2.5h.9c1.7-.8 3.4-.7 5.2-.5v.5h-5.2c.7.2 1.3.6 2 .6l26.2.3h1.5c.9.2 1.8.4 2.6.5 3.1 0 6.2-.1 9.3-.1h6l4.8-.3c-.2-.3-.5-.5-.7-.8 0-.2.1-.3.1-.5l8.1.9h6.1c.4-.2.8-.4 1.1-.6.1.1.2.3.3.4-.5.1-.9.1-1.4.2v1c3.8-.1 7.6-.3 11.4-.3 4.6 0 9.3.4 13.9.2 3-.2 6-.9 9-.1h.2c4.9-.3 9.8-.6 14.7-.8 3.7-.2 7.4-.2 11.1-.3 5.3-.1 10.6.5 15.7-1 1.1-.3 2.1-1.1 3.2-1.1 1.2 0 2.5.6 3.7.8 1.7.1 3.5 0 5.2 0 1.5-.1 2.9-.2 4.4-.3h1.3l.9-.3-9.6-.3v-.3c2.5-.2 4.9-.3 7.4-.5 0-.2 0-.3-.1-.5-2.3.1-4.7.2-7 .2-1.7 0-3.5.7-5-.5-.4.1-.9.2-1.3.3-.7.2-1.3.6-2 .6-5.2.5-10.2.6-15.2.8zm-128.9 2z"/><path class="st12" d="M145.9 57.8h-.9c-.4-.1-.9-.2-1.3-.3h-4c-.9.1-1.8.2-2.8.3-.1-.2-.2-.3-.2-.5.8-.4 1.5-.8 2.5-1.4-.5-.2-.9-.3-1.2-.4l-5.7.3c.2.6.4 1.1.6 1.8-3.4 0-6.9.5-10.1-.1-5.1-.9-10.2-.8-15.4-1.1-.6 0-1.2-.3-1.8-.5L72 55.6c-1.8 1.4-7 1.2-8.3-.3-2.2.2-4.4.4-6.5.8-4.8.9-9.6-1.1-14.5 0-.1 0-.3 0-.4-.1-3.1-1.3-6.6.6-9.8-.6-.1 0-.3.1-.4.1-2.1.2-4.3.5-6.4.7-.1 1.2-1.3.8-2.2 1-.9.2-1.7.6-2.6.9 3.7.1 7.3.3 11 .3 1.2 0 2.3-.3 3.5-.3 1.7 0 3.5.5 5.1.1 1.5-.3 2.7-.2 4 .1 2.9-.2 5.8-.5 8.8-.5 4-.1 7.9-.1 11.9-.1 4.3 0 8.6.1 12.9.1 1.1 0 2.2-.2 3.3-.1 3.9.1 7.8.3 11.6.3 3 0 5.9-.2 8.9-.2 2.4 0 4.9.2 7.3.3 2.1.2 4.3.5 6.4.6 2.9.2 5.7.2 8.6.3.9 0 1.7.4 2.5.5h.8c.2-.1.4-.1.6-.2l11.7.6c2.8-.2 5.7-.5 8.5-.6 1.1-.1 2.2 0 3.3 0l-.9-1.2-3.9-.6-.9.3z"/><path class="st12" d="M32.3 55.5c-2.1.2-4.3.5-6.4.7 2.1-.3 4.2-.5 6.4-.7z"/><path class="st14" d="M290.4 43.3c.7 1.3-.5 1.5-1.7 1.6-4.9.3-9.9.6-14.9.8-3.2.1-6.4.1-9.6.2v1.6c6-.2 11.9-.4 17.9-.6.4-.1.9-.2 1.3-.3 10.4-.3 20.8-.6 31.1-1v-2.8c-1.2.1-2.3.2-3.5.2l-20.6.3z"/><path class="st7" d="M296.5 56.5h-.9l-6.6.3c-1.2 0-2.5 0-3.7.1-7.1.5-14.3 1-21.4 1.5-2.7.2-5.5.5-8.2.6-6.1.2-12.2.4-18.4.6-7.1.2-14.2.5-21.3.8-.1.5-.3 1.1-.4 1.6 5.9-.1 11.7-.1 17.6-.2 4.3-.1 8.7-.2 13-.5 3-.3 5.8-1.5 9-.9.8.1 1.7-.1 2.5-.2 2.6-.3 5.2-.6 7.8-.8 3.8-.2 7.6-.3 11.4-.6 3.6-.2 7.1-.6 10.7-.9 1.7-.1 3.5.2 5.2.1l15-.6c2.2-.1 4.4-.3 6.5-.4v-.6c-2.1-.1-4.2-.2-6.3-.2-3.6 0-7.6.2-11.5.3z"/><path class="st12" d="M307.3 48.3c-1.9.1-3.8.2-6.3.4 2.6 2 5.9-.1 8 1.4 0 .2 0 .4-.1.5h-3.8v.5c.7.1 1.4.3 2 .2 2.2-.3 4.3-.9 6.4-.9h1.1v-2.3h-.6c-2.2.1-4.4.1-6.7.2z"/><path class="st16" d="M177.5 60.9c3.1.2 6.2.5 9.4.7 1.1.1 2.1-.1 3.2 0 2.7.1 5.4.3 8.1.4.4 0 .9 0 1.3-.1 3.7-1 7.4-.6 11.1-.2 1.2-.4 2.5-.8 3.5.3h1.7c.1-.5.3-1.1.4-1.6-3.3.1-6.6.3-9.9.2-6.6-.2-13.1-.7-19.7-.9-3.8-.1-7.6.2-11.4.3v1c.8 0 1.5-.1 2.3-.1zM214 62h1.7-1.7z"/><path class="st17" d="M139.8 60l-.9.6 9.6-.3h2.2c.5-.1.9-.2 1.4-.3h7c.6.1 1.1.2 1.7.2.8-.2 1.5-.4 2.3-.6l-11.4-.3h-3.3c-2.9.3-5.8.5-8.6.7zm8.7.3z"/><path class="st7" d="M160.7 60.3c.5.1.9.3 1.4.3l13 .3v-1l-12.2-.3c-.7.3-1.4.5-2.2.7z"/><path class="st10" d="M196.1 51.7h-1.8c-1.9.6-3.8 1.1-5.6 1.7 2.5 1.1 9.3.6 11-.8-.3-.2-.7-.4-1-.6h-.9c-.8.9-1.4.5-1.7-.3z"/><path class="st12" d="M293.9 55.2c-1.5.1-3 0-4.7 0 0 .5-.1 1.1-.1 1.6l6.6-.3c.1-1-.5-1.3-1.8-1.3z"/><path class="st14" d="M197 50.7c-1.7 0-3.3-.1-5 0-.7 0-1.3.4-2 .6 1.5.1 2.9.2 4.4.3h1.8l1.8.3h.9c1.2-.1 2.3-.2 3.5-.3v-1c-1.9.1-3.7.1-5.4.1z"/><path class="st15" d="M197 50.7l-8.1-.9c0 .2-.1.3-.1.5.2.3.5.5.7.8.1.1.3.2.4.3.7-.2 1.3-.6 2-.6 1.8-.2 3.4-.1 5.1-.1zm117.6-2.6v-.2c-.2.1-.4.1-.6.2h.6z"/><path class="st12" d="M299.9 49.8c.2-.3.3-.5.5-.8-.8-.2-1.6-.4-2.5-.6l-.9.3c.9.4 1.9.8 2.9 1.1zm-4.2-1.1c-1.5.1-2.9.2-4.4.3 1.5.3 3.1 1.4 4.4-.3z"/><path class="st15" d="M202.2 50.7v1h.9v-1h-.9zm.9 0z"/><path class="st12" d="M303.4 50.8h.2v-.2h-.2v.2z"/><path class="st18" d="M203.4 14.5c-.6.3-1.6.3-2.4.3-.8 0-1.5-.2-2.3-.3-.8.4-1.7.8-2.3 1.1-.6-.5-1.1-1-1.6-1.4h-.9l-.4.4-.4-.4c-.7 0-1.7-.1-2.1.2-1.2.9-2.3.9-3.7.4-.2-.1-.7.1-1 .1-2.9.2-5.7.6-8.6.5-3.8-.1-7.6-.6-11.3-.8-.6 0-1.3.1-1.9.2-1.6.4-3.1 1.1-4.7 1.2-2.2.1-4.4 0-6.6-.3-.7-.1-1.5-.6-2-1.1-1-.9-3-1.1-4-.1-.7.7-1.2 1.6-2 2.6-.4-.1-1-.3-1.6-.5-2.8-1.4-6.1-.9-8.9-.5-1.5.2-2.4.2-3.6-.1-.8-.2-1.7-.2-2.5-.4-2.9-.6-6.1 1-8.8-1.1-.3.5-.5.9-.7 1.2-1-.4-1.8-.9-2.6-.9-1.3 0-2.6.3-3.9.4-1.1.6-2.3.2-3.4.3-2.5.1-3.7-1.5-5.6-1.7-1.4-.2-3 .3-4.5.5-.2 2.7-1.2 3-4.9 1.8-1-.3-2.2-.3-3.1-.5-.9-.3-1.9-.6-2.4-1.2-.9-1-1.6-1.2-2.9-.4-1.2.7-2.6 1.2-4.2 1.9.2-1.1.4-1.7.3-2.3-.1-1.7-2.2-1.1-3.3-1.6h-.9c.5.6.9 1.3 1.6 2.2l-2.4.6c-.2-.6-.3-1.1-.5-1.7-.2-.7-.3-1.3-.4-2-.8.2-2.1.3-2.3.6-.3.6.2 1.4.4 2.5-2-.3-3.9-.5-5.9-.8-.6-.1-1.1-.2-1.7-.1-2.8.4-5.7 1.3-8.5 1.1-1.9-.1-3.7-.8-5.8-.3-.5.1-1.4-.5-2-.7-3.3-1.2-6.5 1.6-9.8.2-1.9.8-2.3-.2-2.9-1.2-.3-.5-1.4-1.1-1.7-1-1.7.6-3.2 1.5-4.8 2.2-.4.2-1.4.2-1.4.1-1.1-1.8-3.1-.9-4.6-.8-1.9.2-3.7.8-5.6 1.2.8.9 1.4 1.9 2.4 2.6.4.3 1.4.1 2.2.1-.5.5-1 1-1.5 1.6 0 0 0 .1-.1.2l15.3-.3c2.5 0 5.1.2 7.6.2 2 0 4-.2 6.1-.2 5.3.1 10.6.2 16 .3.4-.4.8-.7 1.2-1.1.3.4.7.7 1 1.1l9.6-.3 1.8.3h39.5c1.4 0 2.7-.2 4.1-.2 5 0 10 .1 14.9.1 3.3 0 6.7-.1 10-.1h7.5c3.4 0 6.8-.1 10.2-.1 5.4 0 10.8.1 16.1.1h36.9l.9-.3h11.3l1.8.3 9.6-.3c.7-.4 1.5-1.1 2.2 0h5.6c1.6-.1 3.1-.3 4.7-.3h26.1c2.2 0 4.3-.1 6.5-.3.6 0 1.1-.4 1.6-.6-1.7-.6-3.3-1.1-5-1.7-.5-.1-1-.3-1.4-.2-1.6.4-3.1 1.5-5 .4-.1 0-.3 0-.4.1-2.8 1.9-6.4-.5-9.3 1-.1 0-.3-.1-.4-.1-1.8-.7-3.5-1.4-5.3-2.1-.3.5-.6 1-.8 1.4-1.4-.2-2.7-.7-3.7-.5-2.1.5-3.9.8-5.9-.2-.7-.4-2.4-.5-3-.2-2 1.3-3.2.8-3.9-.1-1.9.1-3.4.2-4.8.3-2.3.2-4.6.5-6.9.6-.6 0-1.4-.3-1.9-.7-3-2.3-2.4-2-6.5-.9-.5.8-.6 1.6-1.2 1.8-1 .4-2.3.3-2.7-.9-.1-.2-1.2-.4-1.3-.3-1.1 1-2.4.5-3.7.3h-8.5c-1.6-1.8-2.9-1.8-5.5-.4zM66.3 16.8h.3v.1h-.3v-.1zm155.6-1.5c-.1.1-.3.1-.4.2l-.2-.2c.1 0 .2-.1.4-.1 0-.1.1 0 .2.1zm-38.7 2.8h3.3-3.3z"/><path class="st9" d="M82 13.6c0 .6-.2 1.2-.3 2.3 1.6-.7 3-1.2 4.2-1.9 1.3-.8 2-.6 2.9.4.5.5 1.5.9 2.4 1.2 1 .3 2.2.2 3.1.5 3.7 1.2 4.7.9 4.9-1.8 1.5-.2 3.1-.7 4.5-.5 1.9.3 3.1 1.8 5.6 1.7 1.1 0 2.3.3 3.4-.3-1.1-.5-2.1-1.1-3.2-1.6-1.7-.8-3.7-1.4-5-2.5-1-.9-2-1.3-3.3-1-.6.1-1 1-1.7 1.8.3-.1.1 0-.1 0s-.5.1-.6 0c-2.4-1.4-5-.6-7.5-.3-.5.1-1.1.1-1.7 0-1.4-.2-2.7-.5-4.1-.7-1.7-.2-3.5-.3-5.2-.2-.6 0-1.1.7-1.6 1.1 1.2.7 3.2.1 3.3 1.8zm110.8-5.3c-4.3 0-8.5.1-12.8.2-.8 0-1.5.4-2.2.6.6.1 1.4.5 1.9.4 2.7-.8 5.1.1 7.6.4.6.1 1.2.1 1.7.1 4 0 8-1.2 12 0 .8.2 2-.1 3-.2.1.1.1.2.2.3-.5.1-.9.3-1.4.4 2 .4 3.6.7 4.5-.7.1-.2.7-.4 1.1-.4 2.3-.1 4.6-.2 6.8-.2 3.7.2 7.4.5 11.3.8.2-.5.4-1.1.6-1.7-4.3-.1-8.7-.2-13-.2-7.1.2-14.2.1-21.3.2z"/><path class="st9" d="M198.7 14.6c-.5-.2-1-.3-1.7-.6.8-.4 1.3-.7 2-1-.7-.3-1.3-.4-1.8-.6.4-.6.7-1.1 1.2-1.8h-4.3c2.6 1.5 2.6 2.1.7 3.7.5.4 1 .9 1.6 1.4.6-.3 1.5-.7 2.3-1.1zm-121.8.2l2.4-.6c-.6-.9-1.1-1.5-1.6-2.2-.6-.3-1.2-.6-1.8-1 .1.7.2 1.4.4 2 .3.6.5 1.2.6 1.8zm-35.7-7c-1.4-.1-2.3.3-2.7 1.3 1.2 0 2.4-.2 3.6-.1 1.4.1 2.2-.2 2.5-1.2-1.1 0-2.3.1-3.4 0zm5.5 1.4C48 9.1 49 9 50 8.9c.4-.1.8-.3 1.2-.4l-4.8-.3c.1.3.2.7.3 1z"/><path class="st18" d="M18.4 14c-1-.2-2-.4-3.1-.6.9 1.7 1.3 1.8 3.1.6zm24.8-1.1c.2-.1.3-.3.5-.4-.4-.3-.7-.5-1.1-.8-.2.1-.3.3-.5.4.4.2.8.5 1.1.8z"/><path class="st9" d="M208.8 11.1v-.3h-.9v.3h.9z"/><path class="st18" d="M40.1 12.2c0 .1-.1.3-.1.4 0 0 .2.1.3.1.1-.1.1-.3.1-.4.1 0-.1 0-.3-.1z"/><path class="st9" d="M193.9 14.3h-.9l.4.4c.3-.2.4-.3.5-.4z"/><path class="st14" d="M149.4 62h-4.3c-.5.6-.9.8-1.4.5-.2-.1-.3-.3-.4-.5-5.5.1-11 .1-16.5.2-.3 0-.6-.4-.9-.6h-1.7l-3.6-.3c-.7-.1-1.4-.2-2.2-.3h-6.2c-.6-.1-1.1-.2-1.7-.3-.5 1-1.3 1.5-2.7 1.2-.2 0-.4-.1-.6-.2-.9-.3-2.1-.1-3.2-.2-4.8.8-9.6.3-14.4 0h-1.3c-1 .1-2.1.3-3.1.4-2.3.1-4.6 0-6.8.1-4.5.2-8.9.5-13.4.7-3.4.1-7-.2-10.3.2-4.7.6-9.3.8-14 .6-4.5-.2-9.1 0-13.6 0-.1 0-.2.1-.5.2.1.2.2.4.2.6v.4c-9.1-2-17.7.3-26 1.1-.3 1.1-.5 1.9-.7 2.8h.4c3.4-.2 6.7-.4 10.1-.6h3.9c.7-.2 1.5-.4 2.2-.6H21c.4-.1.9-.2 1.3-.3h1.3l.9-.3h.8c1.5-.1 2.9-.2 4.4-.3 6.8-.3 13.7-.6 20.5-.9h3.9c.4.1.9.2 1.3.3 1.5-.2 2.9-.5 4.4-.6 6-.4 12-.7 18-1 8-.4 16-1 24.1-1.2 7.2-.2 14.5.1 21.8.3 1.3 0 2.6.1 3.9.2 3.9.2 7.8.5 11.7.8h2.6c.4.1.9.2 1.3.2 4.1.1 8.2.2 12.2.3.4-.1.8-.3 1.2-.2 5.8.5 11.7 1 17.5 1.5 5 .5 9.9 1 14.8 1.5 3.9.4 7.9.7 11.8 1.1.5.1 1 .1 1.4.2 1.4.2 2.9.5 4.3.7.6-.1 1.1-.2 1.7-.2 1.6-.2 3.2-.7 4.4.6l4.8.3c.8-.2 1.5-.6 2.3-.6 3.4-.2 6.8-.2 10.2-.4 3.6-.2 7.2-.6 10.7-.9h1.3l.9-.3 5.7-.3c.1-.1.3-.2.4-.3.4-.8.8-1.4 1.7-.3.6-.1 1.2-.2 1.7-.3l2.4-1.5c0-.1 0-.3-.1-.4-.9 0-1.9 0-2.7.1-1.9.4-3.8 1-5.7 0-.3-.2-1-.1-1.5 0-3.5.4-6.9.9-10.4 1.3-1.2.1-2.4 0-3.6 0-3.9-.1-7.7.2-11.6.7-1.6.2-3.4-.5-5.1-.9h-4.4c-3.8-.1-7.6-.4-11.4-.2-2.2.1-3.8-.1-5.7-.9-1.5-.6-3.9-.1-5.9-.2l-6.9-.3c-2.2-.2-4.4-.6-6.6-.7-2.9-.1-5.8.1-8.6-.1-1-.1-1.9-.8-2.8-1.2-1.8 0-3.6.1-5.4.2h-1.8c-.3 0-.6 0-.9-.1-.9-.2-1.8-.5-2.7-.7-.5-.1-1-.1-1.4-.1zM6.5 66c.1 0 .1.2.2.2-.1 0-.3.1-.3.1-.1-.1-.1-.2-.2-.3h.3z"/><path class="st14" d="M21 67.4c.4-.1.9-.2 1.3-.3h1.3-1.3c-.4.1-.8.2-1.3.3zm185.6 2.3c-1.4-.2-2.9-.5-4.3-.7 1.5.2 2.9.4 4.3.7z"/><path class="st13" d="M301.9 59.4c-.8.1-1.5.1-2.3.2-3.8.5-7.8.3-11.7.5-1.4.1-2.8.4-4.2.6-.9.2-1.7.6-2.6.6-5.4.3-10.8.4-16.1.7-1.2.1-2.3.7-3.5.7-2.9.2-5.8.2-8.7.4-6.8.4-13.7.5-20.5 1.4-4 .5-8.1.5-12.1.7-.4.8-.9.8-1.3 0h-2.2c-.6.8-1.2.4-1.8 0h-.4c-.1.3-.3.6-.4 1 1.7.3 3.6 1.1 5.1.9 3.8-.6 7.7-.9 11.6-.7 1.2 0 2.5.2 3.6 0 3.5-.4 6.9-.9 10.4-1.3.5-.1 1.2-.1 1.5 0 1.9 1 3.8.4 5.7 0 .9-.2 1.8-.1 2.7-.1 0 .1 0 .3.1.4l-2.4 1.5v.3c5.8-.8 11.6-1.7 17.5-2.4 7.2-.9 14.4-1.8 21.7-2.4 7.6-.6 15.3-.8 23-1.2v-1.4c-2.7-.2-5.4-.5-8.1-.5-1.5-.1-3.1-.1-4.6.1zm4.6-.2c2.7 0 5.4.3 8.1.5-2.7-.2-5.4-.4-8.1-.5z"/><path class="st12" d="M309.1 70.9c.3.1.7.3 1 .4.7-.2 1.3-.4 2.4-.7-1-.4-1.6-.6-2.1-.9.2-.3.4-.5 1-1.2-1.8.2-3.3.2-4.4.6-1.9.8-3.6 1.1-5.7.4-.6-.2-1.6.1-2.3.3-1.8.4-3.5 1-5.2 1.4-1 .3-2 .5-3.1.7h18.1c.1-.3.2-.6.3-1zm-60.2-3.5c-.1.1-.3.2-.4.3.7-.1 1.5-.2 2.2-.3h-1.8z"/><path class="st5" d="M308.8 72c.4-.2.9-.4 1.3-.6-.3-.1-.7-.3-1-.4-.1.3-.2.6-.3 1z"/><path class="st12" d="M250.7 67.4l1.8-.3v-.3c-.6.1-1.2.2-1.7.3-.1.1-.1.2-.1.3z"/><path class="st13" d="M37.9 38.9c.9.3 2.3-.2 3.5-.3 2.5-.1 5-.1 7.5-.2 1.2 0 2.3-.1 3.5-.1 2.6 0 5.2-.1 7.8-.1.2 0 .5.3.7.5 1.3.1 2.9-1.1 3.7.3 5.9-1.1 11.6.2 17.2 0l5.7-.3h4.8c-.7-.2-1.3-.6-2-.6-2.2-.1-4.3 0-6.5-.1-.8 0-1.6-.2-2.4-.4 0-.2 0-.3.1-.5 4.8.2 9.6.3 15 .5-1 .5-1.5.8-1.9 1v.3c1.1.1 2.3.1 3.6.2.2-1.7 1.8-1.9 3.7-1.8 1.9.1 3.9 0 5.8 0 .8 0 1.6.3 2.3.7-.6.1-1.3.1-1.9.2v.4h9c-.2.7-.3 1.1-.4 1.5-2.3.2-4.4.5-6.6.5-1.5 0-3.1-.4-4.6-.5-2.9-.1-5.9 0-8.8.1-.5 0-.9.4-1.3.3-.5 0-.9-.3-1.4-.5h-1.7c-1.3 0-2.6-.2-3.8 0-.7.1-1.3.6-2 .9.7.2 1.5.4 2.6.7.1.7.9 1.1 2.4.8.2 0 .4-.1.6-.1.6 0 1.3.1 1.9.2h4.8c.8-.1 1.5-.2 2.3-.2 1.2 0 2.5.3 3.7.3 1.7 0 1.3.8 1.4 1.5h3c-.6-.3-1.2-.7-2-1.1.8-.2 1.4-.4 2-.4 4.1-.1 8.2-.3 12.4-.3 1.1 0 2.2.2 3.2.2.8 0 2-.2 2.4-.6.4-.5.3-1.6-.2-1.9-.7-.4-2.1-.6-2.8-.3-1.2.4-1.6.2-2.3-.9 2.6.2 4.9-.9 6.8.5.8-.1 1.4-.3 2.1-.3 1.4-.2 2.9.4 4.2-.5.2-.2 1-.1 1.2 0 1.3 1 2.8.6 4.3.6 3.2.1 6.4.2 9.7.1 1 0 2.1-.4 3.2-.6-.3-.6-.5-1-.7-1.5h-2.2c-.9 1.2-3.1 1.2-4.4 0-.7-.2-1.5-.3-2.5-.6.5-.3.8-.5 1.2-.7-2.8-.4-5.6-.8-8.3.3h2.6c1 0 2.4-.4 2.6.9.8.1 1.5.2 2.3.4 0 .1 0 .3-.1.4h-4.3c.5-.3.8-.6 1.2-.8h-2.2c-1.4.9-4.3.9-5.7 0-2.4-.2-.1-1.1-.4-1.6h-13c-3.8 0-7.5-.3-11.3-.3-2.8 0-5.6.2-8.4.3-1 0-2.7.3-1.9-1.3.1-.5.1-.9.3-2-1.6.6-2.6 1.2-3.7 1.5-.8.3-1.8.4-2.7.4-2.4 0-4.9-.1-7.3-.1h-6.7c-3.1-.1-6.3-.2-9.4-.3-2.8-.1-5.7-.3-8.5-.4-.1 0-.2 0-.3.1-.3.1-.6.4-.9.5h.7c1.1 0 1.8.3 1.4 1.1-.1.2-1.2.3-1.8.3-1.9 0-3.8-.1-5.8-.2-3.3-.1-6.7-.2-10-.1-1.5.1-3.6-1-4.7.8.6.3 1.1.5 1.9.9h-8.2v-.3c.5-.1 1-.2 1.6-.4-2.6-.1-5.2-.1-7.6-.5-.4-.1-.7-.1-1-.1-.7 0-.8.4-.8 1.1l.6.3-.1.1-.4-.4c-1.2.2-2.3.5-3.5.8 0 .2.1.3.1.5 1.3 0 2.5 0 3.8.2 2.4.2 4.7.6 7.1.9 1.3-.3 3.5-.8 5.9.1zm77-.6h-3.1v-.6c1 .1 2.1.1 3.1.2v.4zm10.8-.7v.4h-9v-.4h9z"/><path class="st13" d="M23.7 36.8c-1.2.2-2.3.5-3.5.8 1.1-.3 2.3-.5 3.5-.8zm.8-1c-.7 0-.8.4-.8 1.1 0-.8.1-1.1.8-1.1z"/><path class="st15" d="M217.8 23c-.3-.1-.7-.3-1-.2-4.6.3-9.1.6-13.7.8-.7 0-1.4-.2-2.1-.3-.6-.1-1.1-.3-1.7-.3l-8.7.6c-.3 0-.6.1-.8 0-2.8-1-5.7-.1-8.5-.1-1.4 0-2.8-.3-4.3-.5-5.1.2-10.2.4-15.2.4-3.2.1-6.5-.1-9.7-.1.2.4.3.8.5 1.3h3.5c1.5-1.2 2.9-.4 4.4 0h1.7c.4.1.9.2 1.3.3h3.5c1.4.2 2.9.5 4.3.6 3.4.3 6.7.4 10.1.7 1.7-.1 3.3-.1 5 .4 1.3.4 3.1.1 5 .1-.5.9-.9 1.6-1.3 2.4.8.2 1.6.5 2.4.5 4 .1 8-.1 11.9.2 1.9.2 3.6.3 5.4-.1-.2-1.6-1.6-1.3-3.1-1.1-1.2.2-2.5.3-3.7.2-1.8-.1-3.7-.2-5.4-.5-1.2-.2-2.2-.6-3.2-.9 5.2-.2 10.2-.5 15.3-.6 3.9 0 7.8.4 11.7.4 3 0 6-.4 9-.6 1.3-.1 2.6-.1 3.9-.2h9.1c.5-.1.9-.2 1.4-.3h8.3c.7 0 1.4 0 2.1-.1.7-.1 1.5-.2 2.2-.3h.4l.9-.3h2.6l.4-.4.4.4c1.2.1 2.4.3 3.6.3.3 0 .5-.4.8-.6-3.1-.2-5.7-1.6-9.3-1.1-4.7.6-9.6.1-14.4.1 0 0-.1-.1 0-.1l.6-1.5c-3 .1-6 .3-9 .3-1.2 0-2.9.2-3.2-1.2h-11.9c.3 1.2.4 2.1-1.5 1.4zm3.4-.2l-.3.3c-.1-.1-.2-.1-.2-.2s.1-.1.2-.2c.1 0 .3.1.3.1zM95.9 27.5c3.3-.6 6.6-1.3 9.9-1.9h2.6c4.3-.3 8.6-.7 12.9-.9 2.8-.1 5.6 0 8.4-.1 1.1 0 2.2-.3 3.4-.5.6-.1 1.1 0 1.7 0 2.3.1 4.5.1 6.8.2h3c.5.1.9.2 1.4.3l.9.3c.9-.1 1.7-.2 2.6-.3l1.3-1.3c-2.8-.1-5.6-.2-8.4-.2-2.7-.1-5.3-.2-8-.2-1.1 0-2.1.1-3.2.1h-5.7c-1 0-2-.2-3-.2-1 .1-2 .6-3 .5-2.5-.3-4.9.4-7.5 0-2.9-.5-6.1-.2-9.2-.1-4 .2-7.9.4-11.6-1.2-.8-.3-2.4.5-3.2.2-2.5-.8-4.8-.4-7.3-.2-2 .2-4.1.2-6.1.4-2.6.2-5.3.5-7.9.7-.9.1-1.9.2-2.8.3-1 .1-2 .2-3.1.3h-.4c-.6.2-1.3.4-1.9.7.7.3 1.5.6 2.2.9h.2c2.3 0 4.5-.3 6.7.5 1.7.6 3.5 1.3 5.7.7.8-.2 2 0 3 .1 0 .2.1.5.1.7-1.6.2-3.2.5-5.1.8.4.4.8.8 1.3 1.2.5.4.9.8 1.4 1.3h.9c.1-1.1.5-1.6 2.3-1.4 1.9.2 3.9-.3 5.9-.3 1.5.1 3 .6 4.5.9.6.1 1.2.3 1.8.4 3.9 1.7 7.9.1 11.8 0-1.4-.4-2.8-.7-4.5-1.2-.3-.3-.5-.8-.8-1.5zm11.1-1.9z"/><path class="st19" d="M176.3 29.2c1-3.2 2.9.3 4.8-.3.1-.9.2-1.8.2-2.7-3.4-.2-6.7-.4-10.1-.7-1.5-.1-2.9-.4-4.3-.6-.9.2-1.8 1.3-2.6 0h-1.8c-.1-.1-.3-.2-.4-.3h-12.6c-.9.1-1.7.2-2.6.3-.2.4-.3.7-.5 1.1v.6c.1 0 .2.1.4.1-.1.1-.3.1-.4.2.9.5 1.8 1 2.7 1.6-.1.1-.2.2-.2.3-1.1-.3-2.3-.6-3.4-.9-1.4-.1-3.1.6-4.2-.8-.1-.2-1.6 0-2.5.2-1.4.3-2.2 0-2.4-1.1 1.6-.3 3.2-.6 4.8-1 .2-.1.2-.6.3-.8-2.3-.1-4.5-.1-6.8-.2-.6 0-1.1-.1-1.7 0-1.1.1-2.2.4-3.4.5-2.8.1-5.6-.1-8.4.1-4.3.2-8.6.6-12.9.9v1c.6.8 1.1 1.6 1.9 2.3.5.5 1.3.7 2.1 1.1.5-.6.8-1.1 1.2-1.7.7.4 1.2.8 1.8 1 2.6 1.2 5.2.2 7.7-.3.3-.1.5-.7.6-1.1.1-.6 0-1.1 0-2 1.1.8 1.8 1.4 2.6 1.9h.1l.4-.4.1.1-.6.3c-.5.7-.9 1.6.3 1.8.9.2 2-.5 3.1-.8 0 .1.1.5.2 1.1 1.5-.3 2.7-.5 4.2-.8.1.3.4.8.7 1.6.9-.8 2.2.2 3.1-1 .4-.5 2.6-.1 3.3 1.1.5-.2 1-.4 1.6-.7.1.3.4.6.6 1 .3 0 .6 0 .8-.1.3-.3.6-.5 1-.8.3.3.5.6.8.9h.9c.4-.2.8-.5 1.2-.7.1 0 .2-.1.3 0 1.6.5 2.5.3 2.7-.9 1.1.3 2 .6 2.9.8v-1.1l-.9-.6c-.1-.1-.1-.2-.2-.2.1.1.2.1.3.2.3.2.6.4.8.7l5.7.3.4-.4.4.4c.3 0 .6-.1.9-.1.6 0 1.2-.1 1.8-.1 1.5 0 2.9.2 4.3.8.2-.5.4-1 .6-1.4l-2.1-2.1c.1-.1.2-.2.4-.3.3.1.7.1.8.3 1.5 1.4 3.5 2.3 5.6 3.1.3.1.5.5.8.7.3 0 .6.1.9.1-.2-.5-.3-1.1-.5-1.9.9 0 1.7.2 2.4.4zm-42.7-1.3v-.2h.2v.2h-.2zm6.7 1c-.1-.1-.2-.1-.2-.2l.1-.1c.1.1.2.1.2.2l-.1.1z"/><path class="st19" d="M145.9 31h.9c-.3.1-.6.1-.9 0zm27.5-.7c.3 0 .6.1.9.1-.3 0-.6 0-.9-.1zm-11.3-5.7h-1.8 1.8zm0 0z"/><path class="st15" d="M99.3 35.8c2.8 0 5.6-.3 8.4-.3 3.8 0 7.5.2 11.3.3 4.3.1 8.7 0 13 0h.9c.4.2.9.4 1.3.6h1.7c2.7-1.1 5.5-.7 8.3-.3 3.1-.3 6-.3 9.1.5 1.2.3 2.8-.5 4.2-.6 4.2-.2 8.5-.7 12.7-.3 3.3.3 6.2-.2 9.3-.4 2.5-.2 5-.1 7.5-.3 1-.1 2-.4 3-.6v-.6c-1.3-.2-2.7-.5-4-.5-5.2.1-10.3.5-15.5-.1-.9-.1-2 .3-2.8.1-2-.6-4 1-5.9-.3 0 0-.1.1-.2.1-3.1 1.1-6.1 1.3-9.3-.1-.1.3-.2.7-.3.9-.9-.1-1.7-.2-2.4-.2-2.3.1-4.7.1-7 .4-2.7.3-5.3-.5-8-.1-4.4.6-8.5-.3-12.3-1.4-.8.5-1.5 1.4-2.3 1.4-2.3.2-4.6.1-6.9.1-.6.1-1.1.4-1.7.4-1 0-2.1-.2-3.1-.4-.9 0-1.9.1-2.8 0-1-.1-1.9-.4-2.9-.6-.6.2-1.2.4-1.7.7-.4.1-.9.2-1.3.3h-2.2c-.8 1.7.9 1.3 1.9 1.3z"/><path class="st15" d="M102.7 33.6c-.6.2-1.2.4-1.7.7.5-.3 1.1-.5 1.7-.7z"/><path class="st19" d="M265.6 25.9c-1.2 0-2.4-.2-3.6-.3h-3.5l-.9.3h-.4c.2 1 .4 2.1.6 3.1 1.2-.2 2.2-1.1 2.9.2 1.2.2 2.3.4 3.5.6-.3-.2-.7-.4-1-.6v-.4c5.9.1 11.7-.3 17.6.6.7 0 1.4 0 2.2-.1.2-.1.3-.2.5-.2.7 0 1.5 0 2.2.1 2 0 4.1-.1 6.1-.1.2-.3.4-.7.6-1-4.4-1.5-12.7-2.5-21.5-2.5h-2.2c-.4-.1-.9-.2-1.3-.3h-.8c-.4.2-.7.6-1 .6z"/><path class="st5" d="M253.3 33c-2.6.2-5.1.8-7.6-.4-.2-.1-.6.1-1 .1-1.1.2-2.2.5-3.2.5-3.7.1-7.3.1-11 .1-4.1 0-8.1-.1-12.2-.1-2.7 0-5.6-.4-8.2.1-2.9.5-5.7.5-8.5 0-.8-.2-1.7-.3-2.5-.3-3.1.3-6.1.7-9.2 1.1v.6c2.8 1 5.7.1 8.6.2 5.3.3 10.7.2 16 .1 4.2-.1 8.5-.5 12.7-.5 3.4 0 6.8.3 10.2.4 1.8.1 3.6.1 5.4.1 1.9 0 3.9-.2 5.8-.3 3.9-.2 7.7-.6 11.5.3v-1l-3.9-.9c-.8-.1-1.8-.2-2.9-.1z"/><path class="st20" d="M236.4 28.8c-2.1.4-1.6-1.4-2.2-2.2-1.3.1-2.6.1-3.9.2-3 .2-6 .6-9 .6-3.9 0-7.8-.5-11.7-.4-5.1 0-10.2.4-15.3.6 1 .3 2 .7 3.2.9 1.8.3 3.6.4 5.4.5 1.2 0 2.5 0 3.7-.2 1.5-.2 2.8-.5 3.1 1.1h.8l.9-.3h.9c1-.2 2.1-.4 3.1-.6h2.1c.8-.3 1.8-1.2 2.2.3h1.3c.4.1.9.2 1.3.3 5.3.2 10.5.4 15.8.5.7 0 1.4-.1 2.1-.2-1.1-.9-1.9-1.5-3.8-1.1z"/><path class="st20" d="M221 29.1c.4.1.9.2 1.3.3 5.3.2 10.5.4 15.8.5-5.3-.2-10.5-.4-15.8-.5-.4-.1-.8-.2-1.3-.3zm-1.3 0h1.3-1.3zm-81.8.5c-.9 1.2-2.2.3-3.1 1-.3-.7-.6-1.2-.7-1.6-1.4.3-2.7.5-4.2.8-.1-.6-.2-1-.2-1.1-1.1.3-2.2 1-3.1.8-1.2-.2-.8-1.1-.3-1.8h-.1c-.7-.5-1.5-1.1-2.6-1.9 0 .9.1 1.5 0 2-.1.4-.3 1-.6 1.1-2.5.4-5.1 1.5-7.7.3-.6-.3-1.1-.6-1.8-1-.4.6-.8 1.1-1.2 1.7-.7-.4-1.5-.7-2.1-1.1-.7-.7-1.3-1.5-1.9-2.3.1.5.3 1.1.4 1.6 0 .4.2 1-.1 1.3-.3.2-1.3.4-1.7.2-.9-.5-1.7-1.2-2.5-1.8-.4-.3-.8-.6-1-.8.8-.5 1.6-1 2.3-1.5-3.3.6-6.6 1.3-9.9 1.9.3.7.5 1.3.5 1.4 1.7.5 3.1.8 4.5 1.2 7.3.2 14.5.4 21.8.7 3.2.1 6.5.5 9.7.5 2.9 0 5.9.6 8.7-.5-.5-1.2-2.8-1.6-3.1-1.1zm-11.6-1.8s-.1 0 0 0c-.1 0-.1 0 0 0zm60-1.2c-1.7-.6-3.3-.5-5-.4-.1.9-.2 1.8-.2 2.7-1.8.6-3.8-2.9-4.8.3-.7-.2-1.4-.4-2.5-.6.2.8.4 1.3.5 1.9.8.1 1.6.3 2.3.2 2.5-.2 5-.5 7.4-.8 2-.2 3.9-.5 5.9-.8.4-.8.8-1.5 1.3-2.4-1.9 0-3.6.3-4.9-.1zm-13.7 3c-2.1-.8-4.1-1.7-5.6-3.1-.2-.2-.6-.2-.8-.3-.1.1-.2.2-.4.3l2.1 2.1c-.2.4-.4.9-.6 1.4-1.4-.5-2.8-.8-4.3-.8-.6 0-1.2 0-1.8.1-.3 0-.6 0-.9.1l-.4.4-.4-.4-5.7-.3v1.1c-.9-.3-1.8-.5-2.9-.8-.1 1.3-1.1 1.5-2.7.9h-.3c-.3.1-.8.5-1.2.7 2.1 0 4.1.1 6.2.1 1.8 0 3.7-.2 5.5-.2 1.1 0 2.3.2 3.4.2.7 0 1.4-.1 2.1-.2 3.1-.2 6.3-.4 9.4-.6-.1-.2-.3-.6-.7-.7z"/><path class="st20" d="M164 31c3.1-.2 6.3-.4 9.4-.6-3.1.1-6.3.3-9.4.6zm3.3-.9zm-4.3-.8c1.5 0 2.9.2 4.3.8-1.4-.6-2.8-.8-4.3-.8zm-16.2 1.8c.4-.2.8-.5 1.2-.7-.4.1-.8.5-1.2.7zm113.9-2c-.7-1.2-1.6-.3-2.9-.2-.2-1-.4-2.1-.6-3.1-.7.1-1.5.2-2.2.3.3.7 1.2 1.8.9 1.9-.8.6-2.1 1-3.2 1-1.6 0-3.2-.4-4.8-.6 0 .1.1.2.1.4-3 .4-3.5-.1-3.5-2.7-.5.1-.9.2-1.4.3.4 1.2.9 2.3 1.3 3.5 2.5 0 5.1.1 7.6 0 1.3 0 2.5-.2 3.8-.4.2-.1.4-.2.5-.4.1.1.2.3.3.4.7-.1 1.4.2 2.1.3.9.3 1.6.2 2-.7z"/><path class="st20" d="M256.8 29.7c.7-.1 1.4.2 2.1.3-.7-.1-1.5-.4-2.1-.3zm-12.2-3.5c-.4.1-.9.2-1.4.3.5-.1 1-.2 1.4-.3zm18.6 2.5v.4c.3.2.7.4 1 .6 3.8.1 7.6.2 11.5.2 1.7 0 3.4-.4 5.1-.5-5.8-1-11.7-.5-17.6-.7z"/><path class="st19" d="M240.2 26.5c0 .3-.1.6-.1.6-1.3.1-2.4.3-3.4.4-.2.1-.3.3-.5.4l-.1-.1.6-.3-.9-.9h-1.7c.6.8.1 2.7 2.2 2.2 1.9-.4 2.8.2 3.8 1h.8c.3-.3.6-.5 1-.8.6.4 1.1.8 1.7 1.1h.8c-.4-1.2-.9-2.3-1.3-3.5-.8-.1-1.9-.1-2.9-.1zm3.5 3.5h.8-.8zm-7.9-3.5h-1.7 1.7z"/><path class="st13" d="M82.9 28.7c-1.9-.1-3.9.4-5.9.3-1.8-.2-2.2.4-2.3 1.4 2.6.1 5.2.1 7.8.2H88c.4 0 .8-.3 1.1-.5-.6-.1-1.2-.3-1.8-.4-1.4-.4-2.9-.9-4.4-1zm30.3 5.6c-.4-.3-.9-.5-1.3-.8-1.8-1.2-2.9-1-3.5.8 1 .1 2.1.3 3.1.4.5-.1 1.1-.3 1.7-.4zm151-2.2c-.4.3-1.3.1-1.9.2-.7.1-1.3.4-2 .6h6.6c-.5-1.1-1-1.9-2.7-.8z"/><path class="st14" d="M48.1 33.9l3.9.3c-1.1-1.5-2.3-1.6-3.9-.3zm231.4-1.6c1.2.1 2.3.2 3.5.3-.8-2-2.2-.7-3.5-.3z"/><path class="st15" d="M215.4 28.8c-1 .2-2.1.4-3.1.6l.9.3c.9.3 1.8.4 2.2-.9z"/><path class="st14" d="M285.6 32.6h3.1c-1.4-1.2-2-1.2-3.1 0z"/><path class="st15" d="M217.5 28.8c.7.1 1.5.2 2.2.3-.4-1.5-1.4-.5-2.2-.3z"/><path class="st15" d="M217.5 28.8c.7.1 1.5.2 2.2.3-.7-.1-1.5-.2-2.2-.3z"/><path class="st20" d="M242 28.9c-.3.3-.6.5-1 .8l2.7.3c-.5-.4-1.1-.7-1.7-1.1z"/><path class="st20" d="M241.1 29.7l2.7.3c-1-.1-1.8-.2-2.7-.3zm-100 1c.7.1 1.5.2 2.2.3-.2-.4-.4-.7-.6-1-.6.3-1.1.5-1.6.7z"/><path class="st14" d="M295.7 32.3h2.6c-.9-.9-1.8-.9-2.6 0zM44 32.8c-.5.4-1 .8-1.6 1.2h1.7l.3-.9c-.1-.1-.2-.2-.4-.3z"/><path class="st13" d="M273.7 31.9c-.5.4-.9.7-1.2 1h2.2c-.1-.4-.2-.7-.4-1.4-.2.2-.4.3-.6.4z"/><path class="st14" d="M285.6 29.1c-.7 0-1.5 0-2.2-.1v.3c.4.4.7.6 1 .7.5.2.9-.1 1.2-.9z"/><path class="st20" d="M144.1 31c.6 0 1.2.1 1.8.1-.3-.3-.5-.6-.8-.9-.3.2-.6.5-1 .8z"/><path class="st13" d="M99.5 33.2c-.1.1-.3.2-.4.3.2.4.4.7.5 1.1.4-.1.9-.2 1.3-.3-.4-.4-.9-.7-1.4-1.1zm169.5-.3h1.8c-.3-.3-.6-.5-.9-.8-.3.3-.6.6-.9.8z"/><path class="st14" d="M290.4 32.6l.9-.3c-.2-.1-.3-.3-.5-.4-.1.3-.3.5-.4.7z"/><path class="st13" d="M66 33.1s.1 0 .1-.1l-.2-.2s-.1 0-.2.1c.2.1.3.1.3.2zm0-.3l.2.2-.2-.2z"/><path class="st19" d="M256.5 29.3c-.2.1-.4.2-.5.4h.8c-.1-.1-.2-.3-.3-.4zm-.6.4h.8-.8z"/><path class="st20" d="M283 29.3c.2 0 .3.1.5.1v-.3c-.2.1-.4.1-.5.2z"/><path class="st13" d="M307.7 20.6c-1-.1-1.9-.2-2.9-.1-1.8.1-3.6.2-5.5.3-1.3 0-2.7-.3-4-.3-1.1 0-2.2.3-3.2.3-1.3-.1-3.2 0-3.1-1.3 1.8-.3 3.2-.6 4.7-.7 1.1-.1 2.3 0 3.4.1 1 .1 2 .4 3 .3 3.1-.2 6.1-.6 9.1-.9v-.6c-1.1-.1-2.1-.3-3.2-.3h-9.3c-1.2 0-2.5.2-3.7.1-.6 0-1.2-.5-1.8-.8h-.8c-.5.2-1 .6-1.6.6-2.1.2-4.3.3-6.5.3h-26.1c-1.6 0-3.1.2-4.7.3-.9.3-1.7.6-2.6 1 2.4 1.3 4.9.6 7.4.3.9-.1 1.8-.1 2.8-.1.5 0 1 .1 1.5.1 4.3 0 8.6-.2 13-.1 1.3 0 2.7.4 4.5.6-1.9 1-3.1 1.7-4.9 1.1-.3-.1-.7-.2-1-.1-4 1-8 .1-12 .3-2.1.1-4.1.5-6.2.7-.8.1-1.5.2-2.3.2-3.4 0-6.7 0-10.1.1-.6 0-1.3.1-1.9 0-2.9 0-5.7-.1-8.6-.1.3 1.4 2 1.2 3.2 1.2 3 0 6-.2 9-.3 1.1.1 2.3.2 3.4.2 3.8 0 7.6-.1 11.5-.2 3.7-.1 7.5-.2 11.2-.2 1.1 0 2.3.2 3.5.2 1 0 2.1-.2 3.1-.3 1.1 0 2.3.2 3.4.2 7.9-.1 15.7-.4 23.6-.4 3.9 0 7.7.1 11.6.2v-1.6c-2 0-3.9.1-5.9.1-.3-.3-.7-.4-1-.4zm-16.4-4.1h-.8c.2.1.5 0 .8 0z"/><path class="st14" d="M298.7 5.9c-.7-.1-1.4-.3-2.1-.3-5.7 0-11.4.1-17.1.1-8.5.1-17 .1-25.4.2-.9 0-1.7-.2-2.6-.3-.1.9-.6 1.2-1.4 1.2-.3 0-.6-.1-1-.1-.9-.2-2-.3-2.9-.2-1.7.1-3.4.3-5.2.4-1 .4-3-.4-3.1 1.3 2.2-.1 4.4-.2 6.6-.2 3.7 0 7.5.1 11.2.2 1.6 0 3.2.3 4.8.3l13.1-.3c.3 0 .7.2 1 .3h7.8c1.1-.1 2.1-.3 3.2-.3 3.3 0 6.5-.1 9.8 0 1.1 0 2.1.6 3.2.9 2.5-.2 4.9-.4 7.4-.6-.8-.2-1.6-.4-2.3-.7-.6-.2-1.1-.6-1.6-.9-1.1-.3-3.1 1-3.4-1z"/><path class="st10" d="M313 8.8h-2.9c-.2-.1-.3-.2-.5-.3h-3.1c-.1 0-.2.1-.3.1 0 0-.1 0-.1-.1-2.5.2-4.9.4-7.4.6l-.9.3v1.3c1.5.5 3.6.1 4.4 1.6h.8c.6-.8 1.2-.8 1.8 0 1.5 0 3.1.1 4.6 0 1.7-.1 3.5-.2 5.2-.4V9c-.5-.1-1-.1-1.6-.2z"/><path class="st10" d="M313 8.8c.5.1 1 .1 1.6.2-.5-.1-1-.1-1.6-.2z"/><path class="st15" d="M309.2 18.1c.4.1.9.2 1.3.3 1.3-.3 2.8-1 3.5.6h.6v-1.6h-5.4v.7z"/><path class="st13" d="M282.6 8.5h-7.8c-1.3.3-2.7.6-4 .9v.5c6.5.7 13.1 1.2 19.7 1.2.4.1.9.2 1.3.3h.9c-2.2-1.3-4.4-2.5-7.3-2.6-1 0-1.9-.2-2.8-.3z"/><path class="st18" d="M310.7 15.6c-1 1-2 .6-3 .5-1-.1-1.9-.4-2.9-.4-3 0-5.9 1.2-8.9.2-.1 0-.3.1-.4.1-1.4.2-2.8.3-4.2.5.6.3 1.1.7 1.8.8 1.2.1 2.5-.1 3.7-.1h9.3c1.1 0 2.1.2 3.2.3h5.4v-1c-1.2-1.1-3.2-1.7-4-.9z"/><path class="st18" d="M295.5 16c-1.4.2-2.8.3-4.2.5 1.4-.1 2.8-.3 4.2-.5zm-9.8-7.8c-1.1 0-2.1.2-3.2.3.9.1 1.8.3 2.7.3 2.9.1 5.2 1.3 7.3 2.6.9-.2 1.8-.4 2.6-.7.9-.4 1.7-.8 2.6-1.3l.9-.3c-1.1-.3-2.1-.9-3.2-.9-3.1-.1-6.4-.1-9.7 0z"/><path class="st14" d="M297.9 11.7c1.5.2 2.9.4 4.4.6-.8-1.5-2.9-1.1-4.4-1.6-.1.3 0 .7 0 1z"/><path class="st14" d="M297.9 11.7c1.5.2 2.9.4 4.4.6-1.5-.2-3-.4-4.4-.6z"/><path class="st18" d="M297.9 11.7v-1.2c-.6.1-1.1.2-1.7.3.5.2 1.1.5 1.7.9z"/><path class="st18" d="M296.1 10.7c.6.3 1.2.7 1.8 1-.6-.4-1.2-.7-1.8-1z"/><path class="st14" d="M296.1 10.7c.6-.1 1.1-.2 1.7-.3v-1c-.9.4-1.7.8-2.6 1.3h.9zm7 1.6h1.8c-.6-.8-1.2-.8-1.8 0z"/><path class="st5" d="M139.2 50.7c-.7 0-1.3-.4-2-.6h-.9c-.6.2-1.2.5-1.9.7l-.3-.6c.7 0 1.4-.1 2.1-.1-.4-.1-.8-.4-1.2-.5h-.1c-.1 0-.3-.1-.4 0-3 .2-6.1.6-9.1.8-.6.1-1.3 0-1.9 0-.9-.1-1.8-.2-3-.3-.8-.2-1.9-.5-3.1-.8-.1.1-.1.3-.2.4.5.1 1.1.3 1.6.4 0 .1-.1.2-.1.4h-17c-2.7.1-5.3.2-8 .1-.4 0-.8-.7-1.2-1.1-10.1 0-20.3-.1-30.4 0-2.4 0-4.8.6-7.1.9 1.3.3 2.6.9 3.9.9 4.9 0 9.8-.2 14.7-.3 1.7 0 3.3.2 5 .2 3.7 0 7.5-.1 11.2-.1 3.6 0 7.2.2 10.9.2h8c-1 1.6.3 1.8 1.5 1.8 2.5 0 5-.1 7.6-.2 4.7-.1 9.3-.6 13.8 1.1.8.3 2.1.5 2.9.3 2.2-.5 4.4-1.2 6.4-1.7.9.3 2.1.9 2.8.7.8-.3 1.2-1.3 1.5-1.7 1.7.2 3.1.4 4.5.4.8 0 1.6-.5 2.5-.5 3.2 0 6.3.4 8.9 1.8 2.9-1.9 3.9-1.9 4.8-.3-.9.5-1.7.9-2.5 1.4.1.2.2.3.3.5 2-.2 4-.3 5.7-.5-.9-1.3-1.7-2.4-2.5-3.5h-1.5c-8.8 0-17.5-.1-26.2-.2zm-48.7-.5c.1-.1.2-.1.3-.1.1 0 .2 0 .4.1-.1.1-.1.2-.2.2-.1-.1-.3-.1-.5-.2zm52.9 2.2h-.2v-.2h.2v.2zm-8.9-3h.4-.4zm1.8.6z"/><path class="st5" d="M136.3 50c-.4-.1-.8-.4-1.2-.5.4.2.8.4 1.2.5zm-13.4 7.5c3.2.6 6.7.1 10.1.1-.2-.7-.4-1.2-.6-1.8-6.5-.4-13.1-.9-19.7-1.3.1 1.4-1.1 1.3-2.7 1.2-1.4-.1-2.8.1-4.2.1.6.2 1.2.5 1.8.5 5.1.5 10.2.3 15.3 1.2zm-9-2h.3v.1h-.3v-.1z"/><path class="st20" d="M72.1 55.5c-2.7-1.3-5.5-1.1-8.3-.3 1.4 1.5 6.6 1.7 8.3.3z"/><path class="st5" d="M136.8 57.3c.1.2.2.3.2.5.9-.1 1.8-.2 2.8-.3 0-1.1.9-1.3 2.1-1.3.9 0 1.7-.3 2.6-.5-.1-.2-.1-.4-.2-.6-2.1 0-4.3-.9-6.3.5.3.1.7.2 1.2.4-.9.4-1.6.8-2.4 1.3zM49.9 50c-1.2.1-2.3.2-3.5.3 0 1.1 1.1.9 2 .9 1 0 2-.1 3 .1 1.5.3 2.4 0 2.9-1h-1.7c-1 0-1.8-.2-2.7-.3z"/><path class="st5" d="M49.9 50c-1.2.1-2.3.2-3.5.3 1.2 0 2.3-.1 3.5-.3zm106.3 5.2c-1.2.1-2.3.3-3.3.4 2.6 1 2.6 1 3.3-.4zm4.5.8v-.5h-3.1v.5h3.1zm-11.4-.6c0 .2-.1.4-.1.6.7 0 1.3.1 2 .1 0-.1 0-.3.1-.4-.7-.2-1.4-.2-2-.3zm-8.6 2.1h2.2c-.8-.9-1.5-.6-2.2 0zm113.9-2.8c-.2 0-.4.3-.5.4.2.1.4.3.6.3.2 0 .4-.2.8-.4-.5-.1-.7-.3-.9-.3zm4.4.6l.1-.1-.2-.2-.1.1.2.2z"/><path class="st14" d="M234.8 18.8h-32.4c-.9 0-1.8.2-2.7.3 3 .3 5.9.7 8.9.7 1.5 0 2.3.2 2.8 1.7-2.6-.3-4.9-.5-7.3-.7-1-.1-2.3-.3-2.8.1-2.3 1.5-5 .9-7.6 1-3 .1-6.1.4-9.1-.3-1.9-.4-4.1.5-5.8-.8-.1-.1-1.4.2-1.6.6-.3.4-.1 1-.2 1.6 1.4.2 2.8.5 4.3.5 2.8.1 5.7-.9 8.5.1.2.1.6 0 .8 0l8.7-.6c.5 0 1.1.2 1.7.3.7.1 1.4.3 2.1.3 4.6-.2 9.1-.5 13.7-.8.3 0 .7.1 1 .2 1.9.7 1.8-.1 1.4-1.3h11.9c2.9 0 5.7.1 8.6.1h1.9c3.4 0 6.7 0 10.1-.1.8 0 1.5-.1 2.3-.2 2.1-.2 4.1-.6 6.2-.7 4-.2 8 .8 12-.3.3-.1.7 0 1 .1 1.8.7 3.1-.1 4.9-1.1-1.9-.3-3.2-.6-4.5-.6-4.3 0-8.6.1-13 .1-.5 0-1-.1-1.5-.1-.9 0-1.9 0-2.8.1-2.5.3-5 1-7.4-.3-3.5-.1-7-.2-10.5-.2-1.2 0-2.4.3-3.6.3z"/><path class="st15" d="M67.3 18.5c-5.3-.1-10.6-.2-16-.3-2 0-4 .2-6.1.2-2.5 0-5.1-.2-7.6-.2-5.1 0-10.2.2-15.3.3-2 0-4 0-6.1.1.5.3.9.7 1.4.8 2.9.3 5.7-.4 8.8.8 2.6.9 6.8.6 9.8-.2 5.7-1.5 11.4-.3 17.1-.6 1.6-.1 3.3-.1 5-.2 2.1-.1 4.2-.2 6.3-.1 4.7.1 9.4.4 14.4.6v-1.4l-9.6.3c-.6-.2-1.3-.2-2.1-.1zm-44.9-.1c-2 0-4 0-6.1.1 2 0 4-.1 6.1-.1z"/><path class="st15" d="M67.3 18.5c-5.3-.1-10.6-.2-16-.3 5.4 0 10.7.2 16 .3zm180.3-.7h-3.9l-9.6.3-1.8-.3H221l-.9.3h-33.6c.5.2.9.6 1.4.6 2.9.2 5.8.2 8.7.3h3c.9-.1 1.8-.3 2.7-.3h32.4c1.2 0 2.4-.2 3.7-.2 3.5 0 7 .1 10.5.2.9-.3 1.7-.6 2.6-1h-3c-.3.1-.6.1-.9.1z"/><path class="st15" d="M186.5 18.2h33.6c-11.2-.1-22.4-.1-33.6 0zm-105.6.3c.5.2 1 .6 1.6.6 3.1.1 6.3 0 9.5.1 3.4.1 6.7.3 10.1.4.9 0 1.7-.3.8-1.1h-22z"/><path class="st20" d="M152.5 24.6c-.2-.4-.3-.8-.5-1.3h-1.3l-1.3 1.3h3.1z"/><path class="st20" d="M152.5 24.6c-.2-.4-.3-.8-.5-1.3.2.4.3.9.5 1.3z"/><path class="st14" d="M199.2 19.1h-2.6c.8.7 1.7 1.1 2.6 0z"/><path class="st13" d="M57.6 22.5h.2v-.2h-.2v.2zM233.4 3.6c1.7.3 3.6.2 5.4.3 2.7.2 5.4.4 8.2.4 1 0 1.9-.3 2.9-.4.7-.3 1.4-1 2.2 0h1.7l.7-1.4c1 .5 1.9.9 2.7 1.4h.9c.4-.4.9-.8 1.3-1.1.6.4 1.1.8 1.7 1.1h2.2c.3-.5.6-1.1.9-1.6-2-.1-4.1-.2-6.1-.3-5-.1-10-.3-14.9-.3-6.2-.1-12.3.1-18.5 0-6.4-.1-12.7-.9-19.2-.3-3.4.3-6.9.3-10.3.4-1.4 0-2.2.5-2.2 1.6h1.7c.9-.3 1.8-.5 2.8-.8.1.2.2.5.3.9 7.4.2 14.8.4 22.3.6 4.4-.9 8.8-1.3 13.3-.5z"/><path class="st9" d="M251.6 5.6c.9.1 1.7.3 2.6.3 8.5 0 17-.1 25.4-.2 5.7 0 11.4-.1 17.1-.1.7 0 1.4.2 2.1.3.6-.3 1.2-.6 1.7-1-1.9 0-3.5-.2-5.2-1-1.2-.6-3.3-.1-5-.2-2-.1-4-.3-5.9-.4-.8 0-1.6.1-2.5.1.2.4.3.7.4 1h-7.6c.2-.3.4-.6.6-1-.5-.1-1-.1-1.4-.2h-2.2c-2.8.2-5.5.4-8.3.7h-13.6c-1 .2-2 .5-2.9.4-2.7-.1-5.4-.3-8.2-.4-1.8-.1-3.6 0-5.4-.3-4.5-.8-8.9-.4-13.2.3v1c1.3-.2 2.6-.4 4-.6 5.8.3 11.5.6 17.3.9 3.4.2 6.8.3 10.2.4z"/><path class="st13" d="M39 1.7h.9c.1-.6.2-1.1.4-1.7h-2.4c1.2 1 1.2 1.1 1.1 1.7zM79.2.3c.6.1 1.2-.1 1.6-.3H66.6c4.1.9 8.4 0 12.6.3zM60.8 0h-18c1 0 2 .1 2.9.1 5.1.3 10.1.7 15.1-.1z"/><path class="st8" d="M194.8 3.3h3.1c-.1-.3-.2-.7-.3-.9-1 .4-1.9.6-2.8.9z"/><path class="st10" d="M249.2 6.6c.4.1.7.1 1 .1.8 0 1.4-.3 1.4-1.2-3.4-.1-6.8-.2-10.2-.4-5.8-.3-11.5-.6-17.3-.9v1.9h14.8c.7 0 1.5.4 2.2.6 1.7-.1 3.4-.4 5.2-.4.9.1 2 .1 2.9.3z"/><path class="st15" d="M268 24.8c-.2.2-.5.3-.7.5.4.1.9.2 1.3.3-.2-.3-.4-.6-.6-.8zm2.3.3l-.4.4h.9c-.2-.1-.3-.2-.5-.4z"/><path class="st10" d="M164.4 63.8c2.9.2 5.8 0 8.6.1 2.2.1 4.4.5 6.6.7 2.3.2 4.6.3 6.9.3 2 .1 4.4-.5 5.9.2 2 .8 3.5 1 5.7.9 3.8-.2 7.6.1 11.4.2 1.2-.6 2.3-.9 3.5 0h.9c.1-.3.3-.6.4-1-3.8-.2-7.6-.4-11.4-.5-3-.1-6.2.7-9.1-.4-.6-.2-1.3-.5-2-.5-2.8 0-5.7.2-8.5.2-1.7 0-3.4-.1-5.1-.3-5-.4-10-.9-15-1.3-.5 0-1.1.2-1.6.3 1 .3 1.9 1.1 2.8 1.1z"/><path class="st7" d="M148.5 60.3zm-9.6.4c-2.3 0-4.6 0-6.9-.1-.2 0-.4 0-.6.1-.1 0-.2 0-.4.1.1 1.1-.7 1-1.8.8-1.1-.3-2.4-1-3.5.1.3.2.6.6.9.6 5.5 0 11-.1 16.5-.2h7.4c-.3-.4-.5-.8-.9-1.2-.3-.2-.8-.3-1.3-.5-3 0-6.2.1-9.4.3zm9.6-.4c.4.2 1 .3 1.3.5-.3-.2-.9-.3-1.3-.5zm0 0zm0 0l-9.6.3 9.6-.3zm0 0zM214 62c-1-1.1-2.3-.7-3.5-.3.2.3.5.5.8.6.9.2 1.8-.3 2.7-.3z"/><path class="st7" d="M211.3 62.2c.8.3 1.8-.2 2.7-.3-.9.1-1.8.6-2.7.3zM159 60.1h-4.4c1.5.9 3 .9 4.4 0z"/><path class="st10" d="M216.6 65.2h-1.8c.7.4 1.3.8 1.8 0zm3.5 0h-1.3c.5.8.9.8 1.3 0z"/><path class="st15" d="M67 28.7c1.8.4 2.6-.1 3.1-1.3-1.3-.3-2.4-.5-3.9-.8-.2.9-1.1 1.7.8 2.1z"/><path class="st13" d="M304.6 36.6c-3.7-.2-3.7-.2-3.7-3h-14.8c.2.5.4 1 .7 1.8-2 .4-4 .7-6.1 1.1.5.5 1 .8 1.5 1.2h4.4l17.1-.3c3.7 0 7.4.1 11 .2v-.9c-.6 0-1.3-.1-1.9-.1-2.8.1-5.5.2-8.2 0z"/><path class="st12" d="M286.5 37.8v1h.4c3.7-.1 7.5-.4 11.1.6.4.1.9.1 1.3.1 2.8-.1 5.5-.1 8.3-.2.2 0 .3.2.5.7-1.2 0-2.5 0-3.7.1-1.3.1-2.6.5-3.9.7l.9.6c1 0 2 0 2.9.1.7.1 1.3.4 1.9.6 2.9.3 5.7.4 8.4-.3V41h-5.9v-.4c2-.1 4-.1 6-.2v-2.7c-3.7 0-7.4-.2-11-.2-5.8.1-11.5.2-17.2.3z"/><path class="st13" d="M309.2 33.6h-5.7c-.6.5-1.1 1-1.7 1.5h12.8v-.4c-1-.1-1.9-.1-2.9-.3-.8-.2-1.7-.5-2.5-.8z"/><path class="st7" d="M106.2 59.1h1.2c.6-.3 1.2-.6 1.8-1-2.4-.1-4.9-.3-7.3-.3-3 0-5.9.3-8.9.2-3.8 0-7.7-.3-11.5-.4-1.1 0-2.2.2-3.3.1-4.3 0-8.6-.1-12.9-.1-4 0-7.9 0-11.9.1-2.9.1-5.8.4-8.8.5-1.5.2-2.9.4-4.4.7 1.7.3 3.5.8 5.2.9 4 .1 7.9-.1 11.9-.3 2.7-.1 5.3-.4 8-.5 2.6-.1 5.2-.3 7.8-.3 3.2 0 6.4.2 9.7.2 6.9 0 13.9-.1 20.8-.1h.8c.6.3 1.2.3 1.8.3z"/><path class="st7" d="M40.2 59.1c1.5-.2 2.9-.4 4.4-.7-1.4.2-2.9.5-4.4.7z"/><path class="st13" d="M104 61.6v-1l-3 .3h-4.7c-1.9 0-3.8-.2-5.8-.1-.3 0-.6.5-.9.8 4.8.4 9.6.8 14.4 0z"/><path class="st7" d="M16.3 60c2.1.1 4.3.4 6.4.3 1.4-.1 2.7-.7 4.1-1.1l-11.4.3c.3.1.6.4.9.5z"/><path class="st20" d="M108 60.3c-.2-.4-.4-.8-.5-1.3h-1.2c-.6.9-1.2.9-1.8 0h-.8c-1 .3-2 .7-3.1 1 .2.3.3.6.5.9l3-.3c1.2 0 2.5-.1 3.9-.3zm-.6-1.2h-1.2 1.2z"/><path class="st7" d="M39 59.1h-1.8l.5.5c.4.3.8.1 1.3-.5zm-4.8 0h-1.4c.1.1.1.2.2.2.4.5.8.4 1.2-.2zm-4 0h-1.3c.4.7.9.7 1.3 0z"/><path class="st11" d="M261.6 45.9c-3.1 0-6.1 0-9.2-.1-1 0-2-.5-3.1-.8-8.6.1-17.2.2-25.8.2h-32.2c-.9.1-1.8.2-2.6.3l-7.8-.3h-7.4c-.1.1-.3.1-.4.2h-47.2c-3.3-.1-6.7-.1-10-.2-.2.1-.4.3-.6.4-.1-.1-.2-.3-.3-.4H73.8c-3.9 0-7.8-.2-11.7-.3h-3.9c.1.2.1.4.1.6 0 1-1 1.5-2.2 1.8-.2.1-.4.1-.6.2.5.2.8.3 1.2.3 5.3.1 10.6.3 16 .3 6.3.1 12.5 0 18.8 0 1 0 2 .2 3 .3 2.8-.1 5.5-.2 8.3-.3l29.8.3c1.8 0 3.6-.3 5.4-.3 6.9.2 13.9.5 20.8.6 7.8 0 15.6-.2 23.4-.3l36.2-.3h18.1c2.5 0 5-.2 7.5-.2 5.3-.1 10.6-.1 15.8-.1 1.5-.1 2.9-.2 4.4-.3v-1.6h-2.6z"/><path class="st11" d="M58.3 45.5c0 1-1 1.5-2.2 1.8 1.2-.4 2.2-.8 2.2-1.8z"/><path class="st10" d="M50.9 45.6l-.1-.1v-.3c-1.5-.1-2.9-.2-4.4-.4-.3.1-.5.2-.8.3-8 .2-16 .2-24-.4h-4.8c-1.3 2.5-.2 3.4 3.5 3.2.7-.1 1.4-.2 2.1-.2 5.6.1 11.2.2 16.7.3 2 0 4-.2 6-.2 2.1.1 4.2.4 6.4.5.6 0 1.3-.2 1.7-.5 1-.7 1.9-1.5 2.8-2.3-.1-.1-.2-.4-.4-.7-1.5.2-2.9.4-4.4.6-.1.2-.2.2-.3.2zm43 4.9c2.7 0 5.3-.1 8-.1 1-.8 1.7-.8 2.2 0h1.8c.3-1-.5-1.1-1.5-1.3-.6-.1-1.1-.6-1.6-.9-2.8.1-5.5.2-8.3.3-.6.3-1.2.6-1.7 1 .3.3.6 1 1.1 1zm1.6-1.5s.1 0 .1-.1l.2.2-.1.1c0-.1-.1-.1-.2-.2z"/><path class="st5" d="M62.1 44.9v-.6c-1.3-.1-2.7-.2-4-.4-.4-.1-.9-.3-1.2-.6-2.3-2-6.7-1.6-8.4.9.7.1 1.5.2 2.2.4.1 0 0 .4 0 .6v.3h.4c1.5-.2 2.9-.4 4.4-.6h6.6zm-10.6-1v-.5h4.1v.5h-4.1z"/><path class="st10" d="M51.7 49.2c-2.4-.1-4.7-.1-7.1-.1v.4c1.7.2 3.5.3 5.2.5.9.1 1.7.2 2.6.3-.2-.3-.4-1.1-.7-1.1z"/><path class="st13" d="M310.5 18.5c1.2.2 2.3.4 3.5.6-.7-1.7-2.2-.9-3.5-.6z"/><path class="st10" d="M56.9 43.3c.3.3.8.5 1.2.6 1.3.2 2.7.2 4 .4l23.2.3c.1-.2.2-.3.3-.4.5-.5 1.2-.5 1.9-.5.5 0 1.1.1 1.5.1.5-.1 1.3.6 2 .9h3.9v-1c-.4-.2-.9-.4-1.3-.6-.6 0-1.3-.2-1.9-.2-.2 0-.4 0-.6.1-1.6.3-2.3-.1-2.4-.8-1.1-.3-1.9-.5-2.6-.7.7-.3 1.3-.9 2-.9 1.3-.1 2.6 0 3.8 0-.7-.9-1.6-1.3-3-.9-.3.1-.9-.5-1.3-.7l-5.7.3c-.4.1-.7.7-.9.7-3.2-.1-6.3-.4-9.5-.4-2.1 0-4.3.6-6.4.6-1.6 0-3.7.5-4.3-1.4-.2-.2-.5-.5-.7-.5-2.6 0-5.2 0-7.8.1-1.2 0-2.3.1-3.5.1-2.5.1-5 .1-7.5.2-1.2.1-2.6.6-3.5.3-2.4-.9-4.5-.4-6.8.2-1.5.2-2.9.5-4.4.6-3.1.1-6.2-.6-9.2.7-.4.4-.8.8-1.4 1.5 1.1 0 1.7.1 2.4.1 1.2 0 2.5-.1 3.7-.1 1.8.1 3.8.6 5.5.3 1.8-.4 3-.2 4.2.7.1.1.3.1.4.1 3.2-.1 6.3-.4 9.5-.3 1.9.1 3.8-1.4 5.4-.1-.6.5-1.1 1-1.6 1.5 1 .1 2.1.2 3.1.3 1.6-2.7 6-3.2 8.3-1.2zm29.3-1.1c0 .2-.1.5-.1.7-1.1 0-2.2-.1-3.3-.1 0-.2 0-.5.1-.7 1.1 0 2.2.1 3.3.1zm-4.5-3.1l5.7-.3-5.7.3z"/><path class="st13" d="M.7 69c1.5.7 8.1.5 9.5-.4.2-.1.2-.4.4-.6-3.4.2-6.7.4-10.1.6.1.2.1.4.2.4z"/><path class="st7" d="M50.3 65.6v.6h3.9v-.6c-1.3-.1-2.6-.1-3.9 0zm3.9-.1h-3.9 3.9z"/><path class="st13" d="M25.4 66.8c.6.1 1.1.3 1.7.3h.6c.7 0 1.5-.2 2.1-.7-1.5.2-2.9.3-4.4.4zm2.3.4h-.6.6z"/><path class="st10" d="M306.4 2.1c-1.8 0-3.7.2-5.5.2-.8.3-1.7.6-2.4.9.7.6 1.3 1.1 2 1.6-.6.3-1.2.6-1.7 1 .3 2 2.3.7 3.5 1 2.9.3 5.8.5 8.7.2v-.4h-4.9v-.4h8.6V2.5c-2.1-.1-4.2-.3-6.4-.4h-1.9z"/><path class="st9" d="M312.3 8.8c-.8-.1-1.5-.2-2.3-.3v.3h2.3z"/><path class="st14" d="M310.1 8.5h-.5c.2.1.3.2.5.3v-.3zm-3.5 0h-.4l.1.1c.1-.1.2-.1.3-.1zm-26.2 26.2c-.5-.1-1-.2-1.5-.1-2.9.1-5.7.3-8.5.5-.3 0-.7-.1-1-.2-1.7-.5-3.2-.6-5-.1-1.2.3-2.7.1-4.1.2-3.8-.9-7.7-.5-11.5-.3-1.9.1-3.9.2-5.8.3-1.8 0-3.6 0-5.4-.1-3.4-.1-6.8-.5-10.2-.4-4.3 0-8.5.5-12.7.5-5.3.1-10.7.2-16-.1-2.9-.1-5.8.8-8.6-.2-1 .2-2 .5-3 .6-2.5.1-5 .1-7.5.3-3.1.2-6 .7-9.3.4-4.1-.4-8.4.1-12.7.3-1.4.1-3.1.9-4.2.6-3-.8-6-.8-9.1-.5-.3.2-.7.4-1.2.7 1 .2 1.7.4 2.5.6h6.6l4.2.6c0-.1-.1-.2-.1-.3 1.9-.2 3.9-.5 5.8-.6 4.3-.1 8.5 0 12.8 0 1 0 2-.2 3-.2.8 0 1.6.1 2.4.1.1.2.1.3.2.5-.8.4-1.7.8-2.8 1.3h6.5c-.3-.5-.5-.9-.9-1.5.7-.2 1.4-.4 2-.4 5.4-.2 10.8-.3 16.2-.4 3.7 0 7.5 0 11.2.1 1.2 0 2.4.6 3.6.9 1-1.2 1.3-1.2 2.8.2-1-.1-1.9-.1-2.8-.2-.1 1.3 1 1.3 2.3 1.3 1.8 0 3.7.1 5.8.2.7-1 1.9-1 3.5-.5 1 .3 2.4.2 3.6.2h6.9c-.4-.6-.7-1.2-1.3-2.2.9.2 1.5.3 1.6.5 1 2.3 3.7 1.8 6 1.9 2.5.1 4.9-.1 7.4-.3.7-.1 1.4-.4 2.1-.7-.1-.2-.1-.4-.2-.7h-6.7v-.7h15.2c2.5-.2 5-.5 7.4-.6 1.8 0 2 1.1 2.2 2.2h.9c-.1-.4-.1-.8-.2-1.3.8-.3 1.6-.5 2.7-.9.4.7.7 1.3 1 1.9h4.4c.1 0 .2-.1.3-.1 0 0 .1 0 .1.1h.9c-.5-.4-.9-.8-1.5-1.2 2-.4 4.1-.7 6.1-1.1-.3-.8-.5-1.3-.7-1.8h-2.6c-.6.8-1.6 1-3.1.7z"/><path class="st13" d="M264.4 34.7c1.8-.5 3.4-.3 5 .1.3.1.7.2 1 .2 2.9-.1 5.7-.3 8.5-.5.5 0 1 0 1.5.1 1.5.3 2.5.1 3.1-1.1H265c-1.5 0-3 .2-4.6.3v1c1.3.1 2.7.3 4-.1z"/><path class="st14" d="M308.8 1.1c-.2.1-.8 0-1-.1-1.1-.8-1.9-.7-2.9.1-.3.2-1.3 0-2-.1-.8-.1-1.6-.4-2.4-.6-.9.2-1.9.4-2.8.6-.9.2-1.9.4-2.8.6 2 .2 4.1.4 6.1.7 1.8-.1 3.7-.2 5.5-.2h1.8c2.1.1 4.2.2 6.4.4v-2c-2.1-.2-4-.4-5.9.6zm-2.4 1h1.8-1.8z"/><path class="st21" d="M45.6 45.2c.3-.1.5-.2.8-.3 1.5.1 2.9.2 4.4.4 0-.2.1-.6 0-.6-.7-.2-1.5-.3-2.2-.4-1-.1-2.1-.2-3.1-.3-8 .1-16 .1-24 .2v.7c8 .5 16 .6 24.1.3z"/><path class="st12" d="M13.6 58.4l6.6-.3c-1.8-1-5.1-.8-6.6.3z"/><path class="st5" d="M84.4 67.8h.9c-.2-.2-.4-.5-.5-.7-.2.2-.3.4-.4.7z"/><path class="st12" d="M54.2 65.5v.6h1.3v-.3c-.4-.1-.8-.2-1.3-.3zm0 0z"/><path class="st5" d="M67.3 68s-.1 0-.1.1l.2.2s.1 0 .1-.1c-.1-.1-.1-.2-.2-.2z"/><path class="st5" d="M67.3 68l.2.2c-.1-.1-.1-.2-.2-.2z"/><path class="st12" d="M212.7 70c-1.2-1.3-2.8-.8-4.4-.6.4.4.9.7 1.5.9 1 .3 2.1.2 2.9-.3z"/><path class="st13" d="M266.7 1c2.9.1 5.9.2 8.9.3 3.4-.5 6.6-1.3 10.3-.9 3.8.4 7.9-.2 11.8-.3.9 0 1.8.1 2.8.2.8.2 1.6.5 2.4.6.7.1 1.7.3 2 .1 1-.8 1.8-.9 2.9-.1.2.1.8.2 1 .1 1.9-1 3.8-.8 5.8-.6V0h-51.8c.2.1.4.4.6.7 1.1.1 2.2.3 3.3.3zM252.9.2c.2-.1.4-.1.7-.2h-5c1.3.5 2.7.8 4.3.2zm7.3.1c.2-.1.6-.2.9-.3h-4.8c.2 0 .4.1.5.1 1.3.5 2.2.5 3.4.2z"/><path class="st11" d="M270.3 2.7c.5 0 .9.4 1.4.6h2.2c.7-.2 1.5-.6 2.2-.6 2.3-.1 4.6 0 6.9 0v-.6c-1.1 0-2.1 0-3.2-.1-1.4-.1-2.8-.4-4.2-.6-3-.1-5.9-.2-8.9-.3-1.1-.1-2.3-.2-3.4-.3-1.7.4-3.5.9-5.2 1.3 2 .1 4.1.2 6.1.3 2 .1 4.1.1 6.1.3z"/><path class="st13" d="M245.5.2c-.2-.1-.4-.2-.5-.2h-7.3c-.3.1-.6.2-.9.2h8.7z"/><path class="st10" d="M209.1 0h-3v.1c1.1.4 2.1.5 3-.1z"/><path class="st5" d="M263 48.4v.5c-2.2.1-4.4.2-6.7.3 0 .2 0 .4.1.6 7.8-.3 15.6-.7 23.5-1v-.6c-5.1.2-10.2.5-15.3.7 0-.2-.1-.4-.1-.5.2-.1.5-.3.7-.3 5-.2 9.9-.4 14.9-.6.7 0 1.3-.4 2-.6-6 .2-11.9.4-17.9.6-1.5.1-2.9.2-4.4.3 1.1.2 2.2.4 3.2.6z"/><path class="st5" d="M259.8 47.8c1.5-.1 2.9-.2 4.4-.3-1.4.1-2.9.2-4.4.3zM142.4 50v-.5c-1.8-.3-3.5-.4-5.2.5h5.2z"/><path class="st15" d="M203.1 50.7zm1.2-.6c-.4.2-.8.4-1.1.6.5-.1.9-.1 1.4-.2-.2-.2-.3-.3-.3-.4z"/><path class="st17" d="M108 60.3c.9.1 1.7.2 2.6.4.6.1 1.1.2 1.7.3h6.2c.7.1 1.4.2 2.2.3 1.4-.6 2.8-.5 3.6.3h1.7c1.1-1.1 2.3-.3 3.5-.1 1.1.2 1.9.3 1.8-.8-1.9-.2-3.7-.4-6.1-.6.8-.2 1.3-.3 1.7-.4-.8-.2-1.7-.5-2.5-.5-2.9-.2-5.7-.2-8.6-.3-2.1-.1-4.3-.4-6.4-.6-.6.3-1.2.6-1.8 1 0 .2.2.6.4 1zm5.2.7h2.2-2.2zm10.9.6h1.7-1.7z"/><path class="st22" d="M131.1 60.7c.1 0 .2-.1.4-.1s.4 0 .6-.1c2.3 0 4.6 0 6.9.1l.9-.6-11.7-.6c-.2.1-.4.1-.6.2h-.8c-.5.1-.9.2-1.7.4 2.3.3 4.1.5 6 .7z"/><path class="st22" d="M132 60.6c2.3 0 4.6 0 6.9.1-2.3-.1-4.6-.1-6.9-.1z"/><path class="st20" d="M270.8 44c-2 .1-4.1.2-6.1.3-1.9.1-3.8.2-5.7.2h-4.4c-.1 0-.2.1-.3.1l-.1-.1-4.8.3-.1.1c1 .3 2 .8 3.1.8 3.1.1 6.1.1 9.2.1h2.6c3.2-.1 6.4 0 9.6-.2 5-.2 9.9-.5 14.9-.8 1.2-.1 2.4-.3 1.7-1.6-2 .2-3.9.4-5.9.5-1.1.1-2.1-.1-3.2-.2h-1.7c-3 .2-5.9.4-8.8.5z"/><path class="st16" d="M306.2 42c-4.5.2-9.1.4-13.6.6-3.8.2-7.5.3-11.3.4v.6c1.1.1 2.2.3 3.2.2 2-.1 4-.4 5.9-.5 6.9-.1 13.8-.2 20.7-.4 1.2 0 2.3-.1 3.5-.2v-1c-2.7.7-5.6.6-8.4.3z"/><path class="st5" d="M197.9 52l-1.8-.3c.3.8.9 1.2 1.8.3z"/><path class="st8" d="M69.5 18.4c-.3-.4-.7-.7-1-1.1-.4.4-.8.7-1.2 1.1h2.2zm174.2-.6h2.2c-.7-1.1-1.5-.4-2.2 0z"/><path class="st9" d="M221.5 15.4c.1 0 .3-.1.4-.2-.1-.1-.2-.1-.2-.2-.2.1-.3.1-.4.1.1.2.1.3.2.3z"/><path class="st8" d="M66.6 16.8h-.3v.1h.3v-.1zm-.3 0h.3-.3z"/><path class="st5" d="M110.6 60.7c-.9-.1-1.7-.2-2.6-.4-1.3.1-2.6.2-4 .3v1c1.1 0 2.3-.1 3.2.2.2.1.4.1.6.2 1.4.2 2.2-.3 2.8-1.3z"/><path class="st7" d="M120.6 61.3l3.6.3c-.8-.8-2.2-.9-3.6-.3zm0 0l3.6.3-3.6-.3z"/><path class="st13" d="M209.7 66.2h3.5c-1.2-.9-2.4-.6-3.5 0zm41 .9c-1-1.1-1.4-.5-1.7.3h1.7v-.3z"/><path class="st12" d="M145.1 62h-1.8c.1.2.3.4.4.5.5.3.9.1 1.4-.5z"/><path class="st13" d="M6.3 66.4s.2-.1.3-.1c0-.1-.1-.2-.2-.2H6c.2.1.2.2.3.3z"/><path class="st10" d="M216.2 37.5zm-66.7 2c-3.2 0-6.4-.1-9.7-.1-1.5 0-3 .4-4.3-.6-.2-.2-1-.2-1.2 0-1.2 1-2.8.4-4.2.5-.6.1-1.3.2-2.1.3-1.9-1.4-4.2-.4-6.8-.5.7 1.1 1 1.3 2.3.9.8-.3 2.2-.1 2.8.3.5.3.6 1.4.2 1.9-.3.4-1.5.6-2.4.6-1.1.1-2.2-.2-3.2-.2l-12.4.3c-.6 0-1.3.3-2 .4.9.5 1.5.8 2 1.1h.9c.9-.9 1.8-1 2.6.1 2.9.1 5.7.2 8.6.3H171l9.6-.3c1.9 0 3.7-.1 5.6 0 .8.1 1.5.6 2.3.9.9-.1 1.7-.2 2.6-.3.8-.2 1.6-.6 2.5-.6 9.5 0 18.9 0 28.4-.1 7.9-.1 15.8-.4 23.7-.6 1.2 0 2.5 0 3.7.1l5.1-.3c.5 0 .9 0 1.4-.1.4.1.9.2 1.3.3h.4c.4 0 .9 0 1.3-.1l2.7-.6c.7-.1 1.5-.2 2.3-.3-.9-.2-1.9-.6-2.8-.6-4.3.1-8.6.4-12.9.5-5.8.1-11.7-.2-17.5.2-5.1.4-10.1-.1-15.1-.1-.3 0-.7-.1-1-.1v-.5c6.5-.1 13.1-.1 19.6-.2 6.8-.1 13.6-.3 20.4-.4 6.7-.1 13.4-.2 20.2-.4 1.2-.1 2.3-.2 3.5-.3h1.7c.6-.3 1.1-.6 1.7-.8.6-.1 1.3-.1 1.9-.1v-.7c-1.2 0-2.5.2-3.6 0-1.5-.3-2.9-.9-4.3-1.3h-4.4c-.2.3-.4.8-.7.8-2 .1-4.1.1-6.1 0-.4 0-.7-.7-1.1-1.1-2.7.9-5.3 0-8 .1v-.6c2.7-.2 5.3-.4 8-.5l-.9-.3h-15.2v.7h6.7c.1.2.1.4.2.7-.7.2-1.4.6-2.1.7-2.4.2-4.9.3-7.4.3-2.2-.1-5 .5-6-1.9-.1-.2-.8-.2-1.6-.5.6 1 .9 1.5 1.3 2.2h-6.9c-1.2 0-2.6.2-3.6-.2-1.7-.5-2.9-.5-3.5.5-2.1-.1-3.9-.2-5.8-.2-1.3 0-2.4 0-2.3-1.3-1.2-.3-2.4-.8-3.6-.9-3.7-.1-7.5-.1-11.2-.1-5.4.1-10.8.2-16.2.4-.7 0-1.3.3-2 .4.4.6.6 1.1.9 1.5h-6.5c1.1-.5 2-.9 2.8-1.3-.1-.2-.1-.3-.2-.5-.8-.1-1.6-.2-2.4-.1-1 0-2 .2-3 .2h-12.8c-1.9 0-3.9.4-5.8.6 0 .1.1.2.1.3l-4.2-.6c.2.4.4.9.7 1.5-1.3.4-2.3.7-3.4.7zm32 3.1c0 .2.1.3.1.5h-16.9c5.5-.5 11.1-1.2 16.8-.5z"/><path class="st10" d="M188.7 45.5c.9-.1 1.7-.2 2.6-.3-.9.1-1.8.2-2.6.3z"/><path class="st15" d="M94.9 40.8c.4 0 .9-.3 1.3-.3 2.9-.1 5.9-.1 8.8-.1 1.5 0 3.1.5 4.6.5 2.2 0 4.3-.3 6.6-.5.1-.3.2-.8.4-1.5h-9v-.4c.6-.1 1.3-.1 1.9-.2-.7-.4-1.5-.7-2.3-.7-1.9-.1-3.9 0-5.8 0-1.9-.1-3.5.1-3.7 1.8-1.3-.1-2.4-.1-3.6-.2-.3.4-.6.9-.9 1.3.8 0 1.3.3 1.7.3z"/><path class="st12" d="M64.5 39.1c-.8-1.4-2.4-.2-3.7-.3.6 1.9 2.7 1.4 4.3 1.4 2.1-.1 4.3-.6 6.4-.6 3.2 0 6.3.3 9.5.4.2 0 .5-.6.8-.9-5.7.2-11.4-1.1-17.3 0z"/><path class="st16" d="M120.8 44.9c-2.9-.1-5.7-.2-8.6-.3-.9 0-1.7 0-2.6-.1H98.3v.6h17.5c3.3.1 6.7.1 10 .2v-.5c-1.6.1-3.3.1-5 .1z"/><path class="st10" d="M96.1 44.6h9.6c-.1-.7.3-1.5-1.4-1.5-1.2 0-2.5-.2-3.7-.3-.8 0-1.5.1-2.3.2-.7.2-1.5.4-2.2.6v1z"/><path class="st15" d="M96.3 37.7c-5.4-.2-10.2-.3-15-.5 0 .2 0 .3-.1.5.8.1 1.6.4 2.4.4 2.2.1 4.3 0 6.5.1.7 0 1.3.4 2 .6h2.2c.6-.3 1.1-.6 2-1.1z"/><path class="st14" d="M132.8 35.9h-.9c.3.5-1.9 1.4.4 1.6h8.8c-.2-1.4-1.6-.9-2.6-.9h-4.3c-.5-.3-.9-.5-1.4-.7z"/><path class="st15" d="M125.7 38v-.4h-9v.4h9z"/><path class="st12" d="M94.4 39.1v-.3h-7c.4.3 1 .8 1.3.7 1.4-.4 2.4-.1 3 .9h1.7c.4-.5.7-.9 1-1.3zm-2.2-.3h-4.8 4.8z"/><path class="st10" d="M139.1 38.3h4.3c0-.1 0-.3.1-.4-.8-.1-1.5-.2-2.3-.4h-.9c-.4.2-.7.4-1.2.8z"/><path class="st7" d="M96.1 43.6c.7-.2 1.5-.4 2.2-.6h-4.8c.4.2.9.4 1.3.6h1.3zm2.3-.7h-4.8c1.5.1 3.2.1 4.8 0z"/><path class="st7" d="M96.1 43.6c.7-.2 1.5-.4 2.2-.6-.7.2-1.4.4-2.2.6z"/><path class="st10" d="M138.1 37.5h-5.7c1.4.9 4.2.9 5.7 0zm11.7 0h-4.4c1.4 1.2 3.6 1.2 4.4 0z"/><path class="st15" d="M111.8 37.7v.6h3.1v-.4c-1-.1-2-.2-3.1-.2zm-88.1-.9zm.5.3l-.6-.3.4.4c.2 0 .2 0 .2-.1zm-.5-.3z"/><path class="st19" d="M244.6 26.2c0 2.6.5 3.1 3.5 2.7-.1-.2-.1-.3-.1-.4 1.6.2 3.2.6 4.8.6 1.1 0 2.3-.5 3.2-1 .3-.2-.6-1.3-.9-1.9-.7 0-1.4 0-2.1.1-.2 1.6-2.1.9-3.1 1.1-.6.1-1.4-.7-2.2-1-1.1-.2-2.1-.2-3.1-.2zm0 0h3-3z"/><path class="st20" d="M252.9 26.2h-5.3c.7.4 1.5 1.1 2.2 1 1-.1 2.9.6 3.1-1zM156 24.6h4.4c-1.5-.4-3-1.2-4.4 0zm80.7 2.9c1.1-.1 2.2-.2 3.5-.3 0 0 0-.3.1-.6h-4.4c.2.2.5.6.8.9zm-69.8-2.6h-2.6c.8 1.3 1.7.2 2.6 0zm-4.4 0h.9c-.4-.1-.9-.2-1.3-.3.1.1.3.2.4.3z"/><path class="st20" d="M163.4 24.9c-.4-.1-.9-.2-1.3-.3.4.1.9.2 1.3.3zm-1.3-.3c.1.1.3.2.4.3-.1-.1-.3-.2-.4-.3zm0 0zm0 0z"/><path class="st14" d="M220.9 23.1l.3-.3s-.2-.1-.3-.2l-.2.2c0 .1.1.2.2.3z"/><path class="st5" d="M261.6 25.1l-.4.4h.9c-.2-.1-.3-.2-.5-.4z"/><path class="st7" d="M144.6 24.2h-3c-.1.3-.1.8-.3.8-1.6.4-3.2.6-4.8 1 .2 1.1 1 1.4 2.4 1.1.8-.2 2.3-.4 2.5-.2 1 1.5 2.7.7 4.2.8-.7-.2-1.3-.3-2.1-.5.9-.2 1.8-.3 2.6-.4h.3V25.9c-.3-.4-.6-.9-.9-1.3-.3-.1-.6-.2-.9-.4z"/><path class="st19" d="M108.4 26.5zm-1.4-.9h-1.3c-.8.5-1.6 1-2.3 1.5.2.1.6.5 1 .8.8.6 1.6 1.3 2.5 1.8.4.2 1.4.1 1.7-.2.3-.2.2-.8.1-1.3s-.3-1.1-.4-1.6c-.4-.4-.8-.7-1.3-1zm0 0h-1.3 1.3zm1.4.9zm0 0z"/><path class="st20" d="M107 25.6c.4.3.9.6 1.3 1v-1H107zm1.4 0h-1.3 1.3zm0 .9zm0 0zm0 0z"/><path class="st21" d="M145.4 24.6c.3.4.6.9.9 1.3.2-.4.3-.7.5-1.1l-.9-.3c-.1.1-.3.1-.5.1z"/><path class="st19" d="M145.9 24.6c-.5-.1-.9-.2-1.4-.3l.9.3h.5z"/><path class="st21" d="M146.3 26.8h-.3c-.8.1-1.7.3-2.6.4.7.2 1.4.3 2.1.5 1.1.3 2.3.6 3.4.9.1-.1.2-.2.2-.3-.9-.4-1.8-.9-2.8-1.5zm0 0z"/><path class="st21" d="M149.1 28.4c-.9-.5-1.8-1-2.7-1.6.9.6 1.8 1.1 2.7 1.6zm-2.8-1.6zm0 0h-.3c.1.1.2 0 .3 0z"/><path class="st7" d="M140.1 28.8c.1.1.2.1.2.2l.1-.1c-.1-.1-.2-.1-.2-.2-.1 0-.1 0-.1.1z"/><path class="st20" d="M152.9 28.4c.2.3.5.5.8.7-.2-.2-.5-.5-.8-.7zm-26.6-.6zm.4-.4l-.4.4.6-.3c-.1-.1-.1-.1-.2-.1zm-.4.4zm0 0zm0 0zm0 0zm0 0zm34 1.6l-.4-.4-.4.4h.8zm-26.7-1.7v.2h.2v-.2h-.2z"/><path class="st21" d="M146.4 26.8c.1-.1.3-.1.4-.2-.1 0-.2-.1-.4-.1 0 .1-.1.2 0 .3-.1 0-.1 0 0 0zm0 0zm0 0c-.1 0-.1 0 0 0-.1 0-.1 0 0 0zm0 0c-.1 0-.1 0 0 0zm-.1 0z"/><path class="st20" d="M152.7 28.2c.1.1.1.2.2.2h.1c-.2 0-.3-.1-.3-.2z"/><path class="st19" d="M159.9 29.8l.4-.4h-.9c.2.2.3.3.5.4z"/><path class="st20" d="M236.1 27.8l.1.1c.2-.1.3-.3.5-.4l-.6.3z"/><path class="st13" d="M136.3 50zm-1.9.8c.6-.2 1.2-.5 1.9-.7-.7 0-1.4.1-2.1.1.1.1.2.4.2.6zm1.9-.8zm0 0zm-34.5.4h2.2c-.5-.8-1.2-.8-2.2 0z"/><path class="st10" d="M143.2 52.4h.2v-.2h-.2v.2zm-52-2.2c-.1 0-.2-.1-.4-.1-.1 0-.2.1-.3.1.2 0 .4.1.5.1.1 0 .1-.1.2-.1zm23 5.3h-.3v.1h.3v-.1zm-.3 0h.3-.3z"/><path class="st14" d="M264.2 2.4c-.3.5-.6 1.1-.9 1.6 2.8-.2 5.5-.5 8.3-.7-.5-.2-.9-.6-1.4-.6-1.9-.2-4-.2-6-.3z"/><path class="st8" d="M253.8 4h3.5c-.9-.4-1.7-.8-2.7-1.4-.4.6-.6 1-.8 1.4zm4.3 0h3.1c-.6-.4-1.1-.8-1.7-1.1-.5.3-.9.7-1.4 1.1zm-8.3 0h2.2c-.7-1-1.5-.3-2.2 0zM283 2.1v.6c-2.3 0-4.6-.1-6.9 0-.7 0-1.5.4-2.2.6.5.1.9.1 1.4.2-.2.4-.4.7-.6 1h7.6c-.1-.3-.3-.6-.4-1 1-.1 1.8-.1 2.5-.1.3-1.3 1.9-1.4 3.1-1.5 2.4-.2 4.9-.1 7.3-.1.9-.2 1.9-.4 2.8-.6.9-.2 1.9-.4 2.8-.6-.9-.1-1.8-.2-2.8-.2-3.9.1-8 .7-11.8.3-3.7-.4-6.9.4-10.3.9l4.2.6c1.2-.1 2.2-.2 3.3-.1z"/><path class="st11" d="M284.3 3.3c2 .1 3.9.3 5.9.4 1.7.1 3.8-.4 5 .2 1.7.9 3.4 1.1 5.2 1-.7-.5-1.3-1.1-2-1.6l2.4-.9c-2-.2-4.1-.4-6.1-.7-2.5 0-4.9 0-7.3.1-1.2.1-2.8.2-3.1 1.5z"/><path class="st5" d="M280.8 37.8h-4.4l-.9.3c1.4.5 2.8 1 4.3 1.3 1.1.2 2.4 0 3.6 0v.7c-.6 0-1.3-.1-1.9.1-.6.2-1.1.5-1.7.8h2.6c0 .2 0 .4-.1.6-1.4-.4-3 .8-4.3-.6-1.2.1-2.3.2-3.5.3-.9.2-1.7.5-2.6.6-1.5.3-3 .5-4.4.7 1.3.1 2.6.2 4 .3h.3c2.5.1 5.1.1 7.6.2.6-.1 1.1-.1 1.7-.2 3.8-.1 7.5-.2 11.3-.4 4.5-.2 9.1-.4 13.6-.6-.6-.2-1.3-.5-1.9-.6-1-.1-1.9-.1-2.9-.1h-14.8v-.6h13.9c1.3-.2 2.6-.6 3.9-.7 1.2-.1 2.5-.1 3.7-.1-.2-.5-.3-.7-.5-.7-2.8.1-5.5.1-8.3.2-.4 0-.9 0-1.3-.1-3.6-1-7.4-.7-11.1-.6-.3.4-.7.8-1 1.2-.2-.1-.4-.2-.6-.4.4-.3.8-.5 1.2-.8v-1H281c.1.2 0 .2-.2.2z"/><path class="st5" d="M274.7 41.3c1.2-.1 2.3-.2 3.5-.3-1.2.1-2.3.2-3.5.3z"/><path class="st7" d="M286.6 41.3h14.8l-.9-.6h-13.9c-.1.2 0 .4 0 .6z"/><path class="st16" d="M308.7 41h5.9v-.6c-2 .1-4 .1-6 .2 0 .1.1.3.1.4z"/><path class="st10" d="M285.9 39.9c.3-.4.7-.8 1-1.2h-.4c-.4.3-.8.5-1.2.8.2.2.4.3.6.4z"/><path class="st5" d="M106.2 59.1h-1.8c.6.8 1.2.8 1.8 0z"/><path class="st16" d="M245.8 44c-7.9.2-15.8.5-23.7.6-9.4.1-18.9 0-28.4.1-.8 0-1.6.4-2.5.6h32.2c8.6 0 17.2-.1 25.8-.2l.1-.1c0-.3 0-.5.1-.8-1.2-.2-2.4-.3-3.6-.2z"/><path class="st7" d="M125.8 44.9v.5h35.4v-.6c-11.8.1-23.6.1-35.4.1z"/><path class="st12" d="M96.1 44.6H85.2l-23.1-.3v.6c3.9.1 7.8.3 11.7.3h24.6v-.6h-2.3zm90.3 0c-1.9-.1-3.7 0-5.6 0v.6l7.8.3c-.7-.3-1.4-.8-2.2-.9zm2.3.9z"/><path class="st16" d="M171.2 44.9v.6h1.8c.1-.1.3-.1.4-.2h7.4v-.6c-3.2 0-6.4.1-9.6.2zm2.2.3h5.6-5.6zm-2.1.2h1.8-1.8zm-10.1-.5v.6h6.5v-.6h-6.5z"/><path class="st7" d="M171.2 44.9h-3.5v.6h3.5c.1-.2 0-.4 0-.6zm-3.5.6h3.5-3.5zm-52.4.1c.2-.1.4-.3.6-.4h-.9c0 .1.1.3.3.4z"/><path class="st14" d="M50.9 45.6c.1 0 .2 0 .3-.1h-.4c0 .1 0 .1.1.1zm44.8 3.3s-.1 0-.1.1l.2.2s.1 0 .1-.1c-.1 0-.1-.1-.2-.2z"/><path class="st14" d="M95.9 49.1l-.2-.2s-.1 0-.1.1c0 0 .1 0 .1-.1.1.1.1.2.2.2z"/><path class="st10" d="M51.6 43.5v.5h4.1v-.5h-4.1z"/><path class="st13" d="M90.9 44.5c-.7-.3-1.4-1-2-.9-.5.1-1 0-1.5-.1-.7-.1-1.4 0-1.9.5-.1.1-.2.3-.3.4 1.9.1 3.8.1 5.7.1z"/><path class="st13" d="M85.5 44.1c-.1.1-.2.3-.3.4.1-.1.2-.3.3-.4zm.6-1.2c0-.2.1-.5.1-.7-1.1-.1-2.2-.1-3.3-.2 0 .2 0 .5-.1.7 1.1.2 2.2.2 3.3.2zm10 .7h-1.3v1h1.3v-1zm173.1-6.4c.7.1 1.4.6 2 .9h.9c-.2-1-.4-2.2-2.2-2.2-2.5 0-5 .4-7.4.6l.9.3c1.9.1 3.8.2 5.8.4zm7.3.6c-.3-.6-.7-1.2-1-1.9-1.1.3-1.9.6-2.7.9.1.5.1.9.2 1.3h2.6l.9-.3z"/><path class="st10" d="M216.2 37.5c.9.1 1.8.1 2.8.2-1.5-1.4-1.8-1.5-2.8-.2zm0 0z"/><path class="st13" d="M281.1 37.7c-.1 0-.2.1-.3.1h.4s0-.1-.1-.1z"/><path class="st17" d="M265.9 43h-2c-.8.1-1.5.2-2.3.3l-2.7.6v.7c1.9-.1 3.8-.1 5.7-.2 2-.1 4.1-.2 6.1-.3.3-.3.6-.7.8-1-1.3-.1-2.6-.2-4-.3l-1.2.3c0-.1-.2-.1-.4-.1zm5.7 0c-1.3-.1-2.6-.2-4-.3 1.4.1 2.7.2 4 .3z"/><path class="st21" d="M270.8 44c2.9-.1 5.8-.3 8.7-.4v-.4c-2.5-.1-5.1-.1-7.6-.2h-.3c-.3.3-.5.7-.8 1zm1.1-1h-.3.3zm-17.3.7l-5.1.3c0 .3 0 .5-.1.8l4.8-.3h.4v-.8zm0 0l-5.1.3 5.1-.3zm3.1.2c-.1 0-.2.1-.3.1l-.1-.1c-.4-.1-.9-.2-1.3-.3-.1.3-.3.6-.4.9h3.5v-.7c-.6.1-1 .1-1.4.1zm-2.2.6h3.5-3.5z"/><path class="st17" d="M255.9 43.6c-.5 0-.9.1-1.4.1v.9h.9c.3-.4.4-.7.5-1z"/><path class="st17" d="M255.9 43.6c-.5 0-.9.1-1.4.1.5 0 1 0 1.4-.1zm23.6 0h1.7V43c-.6.1-1.1.1-1.7.2v.4zm-25.2 1c.1 0 .2-.1.3-.1h-.4c0 .1.1.1.1.1z"/><path class="st12" d="M234.1 42.1c-6.5.1-13.1.2-19.6.2v.5c.3 0 .7.1 1 .1 5 0 10 .5 15.1.1 5.8-.4 11.7-.1 17.5-.2 4.3-.1 8.6-.4 12.9-.5.9 0 1.9.4 2.8.6h2c.1 0 .2-.1.4-.1 0 0 .1.1.2.1l1.2-.3c1.5-.2 3-.4 4.4-.7.9-.2 1.7-.4 2.6-.6-6.7.1-13.4.2-20.2.4-6.7.1-13.5.3-20.3.4z"/><path class="st14" d="M263.4 36.8c-2.7.2-5.3.4-8 .5v.6c2.7-.2 5.3.7 8-.1 2.6.1 5.2.2 7.9.3-.7-.3-1.3-.8-2-.9-2.1-.2-4-.3-5.9-.4z"/><path class="st12" d="M181.5 43.1c0-.2-.1-.3-.1-.5-5.7-.7-11.2-.1-16.8.5h16.9z"/><path class="st5" d="M264.4 38.9c2 .1 4.1.1 6.1 0 .2 0 .5-.5.7-.8-2.6-.1-5.2-.2-7.9-.3.4.4.7 1.1 1.1 1.1z"/><path class="st7" d="M282.5 41.6c0-.2 0-.4.1-.6h-4.3c1.2 1.4 2.8.2 4.2.6zm-4.3-.6h1.7-1.7z"/><path class="st13" d="M109.7 44.5c.9 0 1.7 0 2.6.1-.8-1-1.7-1-2.6-.1z"/><path class="st17" d="M257.4 44c.1 0 .2-.1.3-.1h-.4c0 .1 0 .1.1.1z"/><path class="st10" d="M266.3 42.9c-.1 0-.2.1-.4.1h.5c0-.1-.1-.1-.1-.1z"/></g></g></svg>