<svg id="レイヤー_1" xmlns="http://www.w3.org/2000/svg" viewBox="0 0 611 68.9"><style>.st3{fill:none}.st4{fill:#dba55a}.st5{fill:#e4c58a}.st6{fill:#d49a4d}.st7{fill:#e0b370}.st8{fill:#e2be82}.st9{fill:#dcaa5f}.st10{fill:#e1b774}.st11{fill:#d79e54}.st12{fill:#deac65}.st13{fill:#dfb06b}.st14{fill:#dda75e}.st15{fill:#ce8d47}.st16{fill:#ca8139}.st17{fill:#e1bc7d}.st18{fill:#d7923e}.st19{fill:#db9f4b}.st20{fill:#c1712e}.st21{fill:#ac5925}</style><g id="レイヤー_1-2"><linearGradient id="SVGID_1_" gradientUnits="userSpaceOnUse" x1="3.7" y1="35.49" x2="611" y2="35.49" gradientTransform="matrix(1 0 0 -1 0 69.89)"><stop offset="0" stop-color="#c9b49f"/><stop offset="1" stop-color="#d1be96"/></linearGradient><path fill="url(#SVGID_1_)" d="M3.7 2.8H611V66H3.7z"/><path d="M608.1 66H2.8V2.8h605.3V66z" fill="none" stroke="#3a2612" stroke-width="5.67" stroke-miterlimit="10"/><g opacity=".2"><path class="st3" d="M264.7 47.9zM64.1 56.8c.8.5 1.5.4 2.3-.2H68h-1.6c-.8.6-1.6.6-2.3.2zM127.9 31.5c.1 0 .2 0 .3-.1-.1 0-.2.1-.3.1zM366.4 43.5l-15.2-.3c5.1.2 10.2.3 15.2.3zM46 64.2c.6-.1 1.2-.2 1.7-.3h1.6-1.6c-.5.1-1.1.2-1.7.3zM53.8 64.3c1.4 0 2.8-.1 4.1-.7 13.3-.3 26.6-.6 39.8-.9-13.3.3-26.6.6-39.8.9-1.3.6-2.7.7-4.1.7zM485.8 6.5c1.6 0 2.6-.2 2.7-1.1 1.7.1 3.3.3 5 .3-1.7 0-3.3-.2-5-.3 0 .8-1 1.1-2.7 1.1zM270.7 61.5h5c0 .2 0 .4.1.6 0-.2 0-.4-.1-.6h-5zM240.2 24.7c2.1.8 3.6 1.3 5 1.8-1.5-.5-2.9-1-5-1.8zM105.3 62.7c.8.1 1.7.2 2.5.3-.8-.1-1.6-.2-2.5-.3zM414.1 28.5c1.8.3 3.4.3 4.2-.9h4.2-4.2c-.8 1.2-2.4 1.1-4.2.9zM458 25.4c.6.3 1.1.6 1.7.9h.1-.1c-.5-.3-1.1-.6-1.7-.9zM130.7 65c-.1 0-.2 0-.3.1.1 0 .2 0 .3-.1zM169.7 41.7c-1.4-.1-2.8 0-3.7.5 1-.5 2.3-.5 3.7-.5zM98.5 43.3v.2c.1 0 0-.1 0-.2-2.8-.1-5.7-.2-8.5-.3 2.9.1 5.7.2 8.5.3zM210.5 25.4c-.9-.3-1.7-.6-2.6-.9.9.3 1.7.6 2.6.9zM184.2 41.7c-.8-.2-1.7-.4-2.5-.6.8.2 1.7.4 2.5.6h2.5-2.5zM177.9 40.9c1.2 0 2.5.1 3.8.2-1.3 0-2.6-.2-3.8-.2zM262.1 47.4h.3-.3zM504.6 45.7c2.1.2 4.1.4 6.2.6-2-.2-4.1-.4-6.2-.6zM113 43h-5.1 5.1c.1.2.2.4.2.5 0-.1-.1-.3-.2-.5zM466.6 25.4h-8.5 8.5zM112.9 32.8h-11.8 11.8c.6-.1 1.2-.4 1.7-.5-.5.1-1.1.3-1.7.5zM292.7 59.3c1.8.2 3.5.5 5.3.6-1.8-.1-3.5-.4-5.3-.6h-2.5 2.5zM133.1 16.6c-.8.4-1.5.7-2.3 1.1.7-.4 1.5-.8 2.3-1.1zM586.3 56.8c3-.1 6-.1 8.9-.1-2.9 0-5.9 0-8.9.1zM317.1 59.6c-1 0-2.1.2-3.2.3-3.5 0-7.1.1-10.6.1 3.5 0 7.1-.1 10.6-.1 1.1-.1 2.2-.3 3.2-.3zM552.4 28.8c1 .1 1.7-.2 2.3-.9 3.9 0 7.9-.1 11.8-.1-3.9 0-7.9.1-11.8.1-.6.7-1.3 1-2.3.9zM128.8 16.1s0 .1.1.1c-.1 0-.1-.1-.1-.1zM75.7 1.6h1.7c1.2 0 2.4.1 3.6.1-1.2 0-2.4-.1-3.6-.1h-1.7zM584.4 2.2c3.6 0 7.2-.2 10.7-.2-3.5 0-7.1.2-10.7.2l-4.8.9 4.8-.9zM529.3 31.5h-3.4 3.4c.7-.3 1.4-.6 2.4-1-1 .4-1.7.7-2.4 1zM402.1 68.5c-3-.2-5.9-.3-8.9-.5 3 .2 5.9.4 8.9.5zM19.9 17.4l11.7.3c-3.9-.1-7.8-.3-11.7-.3zM502.8 28.7c1.4.1 2.7 0 3.6-.8 2.3.2 4.5.4 6.8.6-2.3-.2-4.5-.4-6.8-.6-.9.8-2.2.9-3.6.8zM407.5 67.3c1.9.3 4 .2 5.6-.2l9.3.3-9.3-.3c-1.6.4-3.7.5-5.6.2zM469.9 65.5c.6-.1 1.1-.2 1.7-.3l11-.3-11 .3c-.5.1-1.1.2-1.7.3zM396.2 66.8c1.7 0 3.4-.1 5.2-.1-1.8 0-3.5.1-5.2.1zM467.4 65.5c-7 .3-13.9.7-20.9.9 7-.2 14-.6 20.9-.9zM314 22.4c-6.3.1-12.5-.1-18.8-.1 6.3 0 12.6.2 18.8.1zM549.6 28.1c-1.4 0-2.8 0-4.2.1 1.4-.1 2.8-.1 4.2-.1.3-.1.6-.2.9-.2-.3 0-.6.1-.9.2zM288.4 57.7h4.2-4.2zM340.2 57.5l-23.6-.3-22.1-.3 22.1.3c7.9 0 15.7.1 23.6.3zM528 41.2c4.9.1 9.9.1 14.8.2 1.1-.1 2.2-.1 3.3-.2-1.1.1-2.2.1-3.3.2-4.9-.1-9.8-.2-14.8-.2zM270.7 61.5c-7.6-.2-15.1-.5-22.7-.7 7.6.2 15.2.5 22.7.7zM248.8 56.9c-.4.1-.7.1-1.1.2h-1.5 1.5c.4-.1.7-.1 1.1-.2zM165.6 42.6l-45-.3 45 .3zM336 43.5c.3-.1.6-.1.8-.2-.2 0-.5.1-.8.2zM46 35.2zM73.1 57c.9.3 1.8.1 2.6-.4h1.2-1.2c-.9.5-1.7.7-2.6.4zM255.3 58c.4 0 .7 0 1.1-.1-.3.1-.7.1-1.1.1zM210.5 25.4v-.9c8.3-.3 16.7-.7 25-.9-8.4.2-16.7.6-25 .9v.9zM218.1 58.3h1.8-1.8zM221.2 53.1s0 .1.1.1c-.1 0-.1-.1-.1-.1zM278.5 26.1c1.8-.1 3.5-.3 5.1-.4-1.6.1-3.3.3-5.1.4zM284.2 25.7c0-.1 0-.2.1-.3 0 .1-.1.2-.1.3zM324.9 28.8c.4-.5.8-1 1.2-1.4-.3.4-.7.9-1.2 1.4zM209.5 59.3c2.7.2 4.2-.2 5.3-1.2 1.1.1 2.2.2 3.3.2-1.1-.1-2.2-.2-3.3-.2-1.1 1-2.6 1.4-5.3 1.2zM272.2 27.4c-.1 0-.1.1-.2.1.2 0 .3.1.5.1-.2 0-.3-.1-.5-.1.1 0 .2 0 .2-.1zM208.7 56.5c1.2-.3 2.3-.6 3.5-.9-1.2.3-2.4.6-3.5.9zM516.5 41.1h1l2.4-.3-2.4.3h-1zM313.1 28.1c1.2 0 2.3-.1 3.5-.1-1.2 0-2.3 0-3.5.1zM279.1 59.8c.9.3 1.8.1 2.7-.4h6.7-6.7c-.9.5-1.8.7-2.7.4zM211.2 26.9c-.1-.5-.5-1-.7-1.5.2.5.6 1 .7 1.5zM205 32.8c-1.9-.1-3.7-.4-5.5-.6 1.8.2 3.6.4 5.5.6zM494.5 42.6h1.8-1.8zM430.9 68.6c0 .1-.1.2-.1.3.1-.1.1-.2.1-.3z"/><path class="st4" d="M286.6 68.2c-2.3.4-6.9-.2-9.8-.7-3.4-.6-6.2-1.2-10.3-.9-2.3.2-4.8-.4-7.3-.4-5.7-.2-11.5-.3-17.3-.6-3.9-.2-7.8-.6-11.7-.7-12.2-.4-24.5-.7-36.7 0-.2.4-.4.9-.6 1.3 2 .2 3.7.2 5.3.5 2.8.4 3.4 1.5 1.6 2.2h99.9c-3.5-.8-7.2-1.9-13.1-.7zM426.7 68.6l-.9.3h5c0-.1.1-.2.1-.3h-4.2z"/><path class="st4" d="M393.2 68c-1.2-.1-2.3-.3-3.5-.3-5.9-.1-11.8-.1-17.3-1.1-2.5-.5-5.6-.6-8.5-.7-7.4-.4-14.8-.7-22.2-1-2.3-.1-4.6-.5-6.9-.6-8.9-.3-17.8-.6-26.7-1-1.2 0-2.3-.4-3.5-.6l-26.3-.6h-7.6c-6.1-.1-12.2-.2-18.3-.4-5.7-.1-11.4-.4-17.2-.5-8.9-.2-17.9-.3-26.8-.3-5 0-10 .2-14.9.3-2.6 1.8-5.7 2.3-12.6 2.1-4.1-.1-8.5-.3-11.2 1.3 6.9-.1 13.7-.1 20.5-.3 6.3-.1 12.6-.4 18.8-.7 4.2-.1 8.4-.3 12.7-.4 0-.1.1-.3.1-.4l-4.2-.9c.1-.1.1-.2.2-.3h7c-1.5 1.4.7 1.5 3.5 1.7 14.6.8 29.2 1.3 43.9 1.7 5.4.1 10.9.8 16.6.9 3.4 0 6.9.3 10.3.5 2.4.2 5 .3 6.9.8 2.9.7 6 1.3 9.2 1.7h91.3c-1.5-.1-3-.2-4.5-.4-2.9-.1-5.8-.3-8.8-.5zM593.5 61c-.9 0-1.8-.4-3.5-.8 2.5-.2 4-.3 5.5-.5 0-.1-.1-.3-.1-.4-3.9.1-7.8.1-11.6.3-12.8.6-25.7 1.2-38.5 1.8-5 .3-10.5.3-14.8 1-5.7 1.1-11.7.4-17.2 1.1-6.4.8-13.8.6-19.2 2.5-.7.3-2.4.3-3.5.2-7.2-.5-14 0-20.5 1-3 .5-6 1-9.1 1.6h67.8c3-.4 6-.9 9.1-1.2 4.8-.6 9.7-1 14.6-1.4h1.2c5.1 1.5 8.4.2 12.1-.9 1.4-.4 3.3-.7 5.2-.9 6.7-.5 13.7-.7 20.3-1.3 3.4-.3 6.1-.6 9.7-.3 3.1.2 6.7-.4 10-.7h.2V61c-.3 0-.6-.1-.9-.1-5.7.1-11.3.2-16.8.1zM449.3 68.9h6.3c-1.3-.2-2.8-.4-4.3-.7-.7.3-1.4.5-2 .7zM161.3 66.7l-12.7.3c-6.4.4-12.7.9-18.6 1.9h29.2c-1.4-.1-2.7-.2-4-.3 1.5-.8 6.8-.2 6.1-1.9zM560.3 45c4.6 0 9.1-.2 13.7-.2 0 .2.1.3.1.5-4.8.2-9.5.3-14.3.5 0 .1.1.2.1.3l18.6.3 4.8.6c-.3.3-.6.5-.9.8-1.9-.4-3.7-.7-5.6-1.1h-2.5c-2.4 1.6-5.6.5-8.5.3-3.4 0-6.8.1-10.2 0-2.5-.1-4.9-.8-7.3-.7-2.1 0-4 .8-6.2 1.1-9.9 1.4-20.3.8-30.5.9l-21.5.3c-9.5.2-19.1.5-28.6.8h-.4c-5.9-.8-11.6-.1-17.4.1-8.9.2-18-.2-27-.2-7.4 0-14.8.2-22.2.2h-1.7c-2.3.1-4.5.2-6.8.3.7.2 1.3.4 2 .5-3.2 1.4-16.3 1.8-21.3.8 3.5-.5 7.1-1.1 10.8-1.6-2.8-.1-5.6-.2-8.5-.3l-.9-.3-9.3.3c-.2.4-.4.8-.7 1.3 1.8.2 3.4.4 5.1.7 0 .1.1.3.1.4-2.7.2-5.4.4-8 .7 0 .2 0 .4.1.5 7.7 0 15.4.1 23.1.1 7.6 0 15.3-.2 23 .1-1.4.1-2.7.2-4.1.4-.1.2-.2.4-.2.7 3.1.3 6.2.8 9.2.7 11.6-.2 23.2-.6 34.8-.7 11.3-.1 22.7 0 34 0 1.4 0 2.9-.1 4.3-.1v-.5h-8.9c1.8-1.1 3.2-2.1 4.9-3.2.4.2 1.6.6 1.5.9-.2 1 1.3 1.1 3.4 1 6.6-.2 13.1-.4 19.7-.5 5.4-.1 6.3.4 6.4 2.6-4.5.1-9.1.3-13.7.4-4.8.2-9.6.4-14.5.5-5.3.1-10.6.2-15.9.1-14.3-.4-28.4.2-42.6.5-8.8.2-17.7-.1-26.6-.3-1.2 0-2.4-.8-3.6-1.2.2-.1.5-.3.7-.4h-18.9c0 .1-.1.2-.1.3l15.3.6c.1.2.3.4.4.5-2 .2-3.9.6-5.9.6-5.8.2-11.7.3-17.6.3-5.8 0-11.7-.1-17.5-.1-3.7 0-7.3.3-11 .4-2.4 0-4.9-.1-7.3-.2-4.3-.3-8.5-.6-12.8-.9-1.5-.1-3.1-.1-4.6-.1-3.8 0-7.5-.1-11.3 0-2.2.1-4.4.3-6.6.5.6.4 1.1.8 1.7 1.2l22.1.3 23.6.3c7.4-.1 14.8-.4 22.2-.3 12.8.2 25.5.6 38.2.8 6.4.1 12.9-.1 19.3-.2 13.8-.2 27.5-.5 41.3-.7 11.9-.2 23.8-.3 35.6-.5 5.3-.1 10.6-.4 15.9-.6 13.8-.5 27.7-1 41.5-1.5 2.4-.1 4.8 0 7.2-.1.1-.5.1-1 .2-1.5h9.1c2.5-.1 3.6.3 3.4 1.2h1.7c.6-1 2-1.3 5-1.4 3.4 0 6.8-.6 10.2-.8 5.8-.3 11.6-.5 17.4-.6h2.5v-3h-2c-4.2 0-8.3.6-12.5.8-1.2.1-2.6-.1-3.9-.2 0-.2 0-.3.1-.5h7.4c0-.2.1-.3.1-.5-4.1-1.4-10.4.7-15.5-1.3 4.8-.1 8.5-.3 12.2-.4 4.3-.1 8.6-.1 12.9-.2.4-.1.8-.1 1.2-.2v-2.3l-60.5.9c3.4 1.2 7 .5 10.3.5zm29.3 3.6h-.3v-.2h.3v.2z"/><path class="st5" d="M12 13.6c.2.1 1.1.5 2.2 1 4.1-2.3 10.9-.8 15.7-1.8 2 .2 4 .4 5.9.6h1.7c3.6-.4 7.2-1 10.9-1.2 2.9-.1 6.9-1 9 .8.1.1 2 .1 2.8-.1 3.2-.7 6.1-1.5 9.4-2.1.6-.1 2.8.5 3.4 1 1.3.9 2 1.9 5.7 1.1 6.4 1.4 12.6-1.3 19-.2 1.3.2 3 .8 4 .7 4.1-.5 7.6.2 11.3.3 5.3.2 10.9-.7 16.5-1 1-.1 2.2.1 3.2.1 3.8.2 7.6.5 11.4.7-.4-1-1.2-1.8-.7-2.4.3-.3 2.9-.4 4.4-.6 1.1.3 2.3.6 3.4.9h1.7c1.1-.4 2-1.1 3.2-1.1 3.4-.1 6.8 0 10.2.2 2.7.1 5.2.4 7.9.6 1.1.1 2.2.1 3.3 0 4.9-.4 9.9-1.1 14.6.3.3.1.8 0 1.2 0 .4 0 .8-.1.2 0 1.4-.8 2.1-1.6 3.3-1.7 2.4-.3 4.3.1 6.3 1 2.4 1 6.4 1.6 9.7 2.4l6.3 1.5c2.5-.1 5-.4 7.5-.4 1.6 0 3.2.5 5.1.9.3-.3.7-.6 1.3-1.1 5.1 2 11.5.5 17 1 1.6.2 3.3.2 4.8.3 2.4.3 4.1.3 7 .1 5.4-.4 11.8-.9 17.3.4 1.1.3 2.3.4 3.1.5 1.5-1 2.5-1.8 3.9-2.4 1.9-.9 5.8-.8 7.9.1 1 .4 2.4 1 3.9 1 4.2.2 8.6.4 12.8.2 3.1-.1 6-.8 9-1.1 1.2-.1 2.5-.3 3.7-.2 7.3.3 14.7.7 22 .8 5.5.1 11.1-.3 16.6-.5.7 0 1.5-.2 2-.1 2.7.5 4.9.5 7.2-.4.7-.3 2.7-.1 4.1-.2h3.4c3.7-1.5 3.6-2.1-1.4-3.5h8.3c-.9.7-1.5 1.1-2.3 1.7 1 .2 2.1.4 3.5.6-1.3.3-2.4.6-3.8 1 1.3.2 2.3.4 3.3.5 1.5.1 3 .3 4.5.2 1.5 0 3.5 0 4.6-.3 5.1-1.4 7.5-1.3 10.9 0h16.5c-.3-.6-.7-1.3-1.1-2 2.9.1 5.7.2 8.4.3 5.4.3 10.5.3 15.3-1 2-.6 5.2-.7 7.9-.8.9 0 2 .6 3.2 1-.2-1.6-.8-1.8-4.8-1.8-3.6 0-7.2.1-8.6-1.5h-1.7c-.4.5-.7 1.1-1.1 1.6-7.6-.3-14.8-.6-22-.7-4.4-.1-8.8.1-13.2.1-.8 0-1.9.2-2.2.4-1.8 1.3-4.9 1.1-8.7.7.9-.1 1.8-.3 2.7-.4-.1-.1-.3-.2-.4-.3-2 .1-4.3.4-5.9.2-7.9-1.1-15.6 0-23.3 0-1.1 0-2.3 0-3.4-.1-4.8-.4-9.5-1.2-14.7-.4-.9.1-2.4-.2-3.6-.4l-25.8-.9c-1.6 0-3.2.2-4.9.3-1.1.1-2.2.3-3.2.2-11.8-.9-23.6-.2-35.4-.1-9 .1-18-.1-26.9-.1-9.4 0-18.8.2-28.2.2-6.6 0-13.2-.3-19.8-.3-11.5-.1-23 0-34.4 0-4.2 0-8.4-.1-12.6-.2-2 0-3.9.1-5.9.1H141c-1.7 0-3.4-.1-5-.1-6.1.3-12 1-17 .5-6.8-.7-13.1.1-19.6-.1-.8.1-1.5.3-2.3.4-2 .1-4 .2-6.5.3-.1-.2-.4-.6-.6-1-1.1-.1-2.2-.2-3.4-.3-.6 1-2.2 1.3-4.9 1.1-2.3-.1-4.6.1-7 .1-2.1 0-4.4.1-6.4-.1-5.9-.6-11.5-1.8-18-.6-1.6.3-3.9.1-5.8 0-6.6-.2-13.3-.5-19.9-.7-8.2-.1-16.4-.2-24.6-.4v5.8c1.4.1 2.7.3 4.1.4 2.3.2 4.6.3 7.9.5zm65.8-1.5c0-.1.1-.2.1-.4.4.1.8.1.8.1 0 .1-.2.2-.3.4-.2 0-.6-.1-.6-.1zm7.2-.2c-.3.1-.6.2-1 .4-.7-.2-1.4-.5-2.1-.7.3-.1.6-.2.9-.4.7.2 1.4.5 2.2.7zm318.9-1.6h1.8c0 .1 0 .2-.1.3-.6 0-1.2 0-1.8-.1 0 0 .1-.1.1-.2z"/><path class="st6" d="M524.3 61.9c-11.4.7-22.7 1.5-34 2.3-1.1.1-2.3.2-3.4.3l-4.2.3-11 .3c-.6.1-1.1.2-1.7.3h-2.5c-.7.2-1.4.5-2.2.7-.3.1-.5.1-.8.1-3.1.2-6.3.4-9.5.5-5.1.2-10.3.3-15.4.5-1.9.1-3.7.4-5.3.9h17.1c1.5.2 3 .5 4.3.7h5.3c3.2-.6 6.1-1.1 9.1-1.6 6.5-1.1 13.3-1.5 20.5-1 1.1.1 2.8 0 3.5-.2 5.4-1.9 12.8-1.7 19.2-2.5 5.5-.7 11.5 0 17.2-1.1 4.3-.8 9.8-.8 14.8-1 12.8-.6 25.6-1.2 38.5-1.8 3.8-.2 7.7-.2 11.6-.3 0 .1.1.3.1.4-1.5.1-3 .3-5.5.5 1.7.4 2.6.8 3.5.8h16.6c.3 0 .6 0 .9.1v-2.5c-14.9.3-29.8.6-44.7 1.1-14.1.5-28 1.4-42 2.2zM600.8 62.9c-3.6-.3-6.4 0-9.7.3-6.6.6-13.5.9-20.3 1.3-1.8.1-3.8.4-5.2.9-3.6 1.1-7 2.4-12.1.9-.3-.1-.8-.1-1.2 0-4.9.5-9.8.9-14.6 1.4-3.1.4-6.1.8-9.1 1.2h35.8c2-.2 4-.4 5.9-.7 3.4-.4 6.7-.9 10.1-1.3 1.4-.2 3.3-.4 4.5-.3 4.1.7 7.4.3 11.1-.4 2.2-.4 5-.4 8.5-.6-1 .6-1.4.8-1.8 1.1 1 .2 2.1.4 4.1.8-2.1.3-3.4.5-4.7.7-.8.2-1.7.4-2.5.6h-.1H611V62h-.2c-3.3.5-6.9 1.1-10 .9z"/><path class="st7" d="M14 32.4c5.2 0 10.3.1 15.5.1.7 0 1.5-.2 2-.5 2.1-.9 3.7-.7 4.8.2h26.9c1.6-.4 3.1-.8 4.6-1.2.4.4.9.8 1.6 1.5h13c1-.4 2-.8 3.1-1.1l.9.3c-.2.3-.4.6-.6.8h7.6c3.1-1.2 5.4-1.1 7.6.3h11.8c.6-.1 1.2-.4 1.7-.5.2 0 .4-.1.6-.1l16.5.3 18.3.3c4.4.1 8.7 0 13.1 0 4.8 0 9.5.1 14.3.1 1.8 0 3.6-.2 5.2-.4 2.2-.3 4.1-.8 7.1-1.4-.3 1-.4 1.5-.5 1.9h4.2l-1-1c.3-.1.6-.2.9-.2.9.3 1.8.7 2.7 1 1.1-.2 2.3-.4 3.4-.6 1.8.2 3.7.5 5.5.6 1.8.1 3.6 0 5.5 0 1.2-1.7 3.4-1.9 6.8-.8.8.3 1.7.5 2.5.8 4.4 0 8.9.1 13.3-.1 1.5-.1 2.8-.8 4.5-1.4 7.4 1 15.5 1.9 23.9 1.3 5.3-.4 10.4.3 15.6.1 4.5-.2 9.1-.3 13.7-.4 1.5 0 2.9.1 4.7.2.1-.2.4-.5.6-.8 6.1 1.4 12 1.2 18 .1.1 0 .3-.1.3-.1 3.6 1.2 7.6-.3 11.4.3 1.5.2 3.7-.2 5.4-.1 10 .6 20 .1 30 .1 2.6 0 5.2.3 7.8.5 6-.3 11.9-.7 17.9-1 1.6-.1 3.3.1 4.9.3 5.5.6 10.8.5 16.5 0 5-.4 10.6-.1 16-.1 7.9 0 15.7.1 23.6.1 7.1 0 14.2 0 21.3-.1 2.1 0 4.2-.3 6.3-.5.6 0 1.5-.2 1.9-.1 4.7 1.2 9.7.6 14.7.4 1.9-.1 3.9 0 5.9 0h7.6c1.3-.2 2.5-.5 3.9-.6 1.2-.1 2.9.1 3.6-.2 3.4-1.1 4.4-.3 5.3.8h4.2c.6-.3 1.1-.5 1.7-.8.6.3 1.1.5 1.7.8h3.4c.7-.3 1.4-.6 2.4-1 .3-.1.7-.3 1.1-.4.4.7.6 1 .8 1.4h1.6c1.1-.1 2.3-.2 3.4-.3l4.2-.3c2.4-.4 5.2-1.7 6.8.3h5.1c2.1-1.2 3.2-1.2 5.9 0h3.4c.2-.2.5-.4.7-.7.3.1.7.3 1 .4h8.5c1.7-.9 3.4-.9 5.1 0H593.6c.6-1.6-2.4-1.8-5.7-1.9l-18.9-.9c-.8-.1-1.7-.2-2.5-.4-3.9 0-7.9.1-11.8.1-.6.7-1.4 1-2.3.9-.6-.1-1.2-.3-1.9-.7-.3 0-.6-.1-.9-.1-1.4 0-2.8 0-4.2.1-3.3.2-6.6.5-9.9.5-7.4 0-14.8-.1-22.3-.1-2.3-.2-4.5-.4-6.8-.6-.9.8-2.2.9-3.6.8-1.4-.1-2.9-.4-4.1-.3h-1.6c-2.4.1-4.9.3-7.3.3H473.4c-1.7-.1-3.5-.2-5.2-.3h-1.6c-1.3.1-2.7.2-4 .2-10.2-.2-20.5-.3-30.7-.5-.9-.1-1.7-.2-2.6-.3h-2.5c-1.4-.1-2.9-.2-4.3-.3h-4.2c-.8 1.2-2.4 1.2-4.2.9l-1.8-.3h-1.7c-.6.1-1.2.2-1.7.3h-1.6c-3.5.4-6.8.3-10.5.1-7.6-.3-15.4-.1-23.1-.2-1.6 0-3.1-.3-4.6-.5-3.8.2-7.6.5-11.5.7-4.8.3-9.6.5-14.5.7-1.5.1-3-.1-4.5-.2-.6 0-1.2-.1-1.7-.1l-18.3.6c-1.3 0-2.7.2-4 .2-2.2 0-4.4-.2-6.6-.2-3.6 0-7.2.2-10.8.2-4 0-8-.1-12-.1h-1.7c-1.2 0-2.3-.1-3.5-.1-.5 0-1.1 0-1.6.1l-4.2-.3c-5.4 1-11.2.5-16.8.5-6.3 0-12.6-.4-18.9-.5l-42.3-.6c-7.6.1-15.3 1.6-22.9 0-.7.2-1.4.5-2.2.5h-10.6c-5.1 0-10.1-.1-15.2-.2h-1.7c-2.9 0-5.9.1-8.8.1-1.5 0-3-.3-4.5-.4-.7-.1-1.7-.3-1.9-.2-3 1.1-5.3.3-8.2-.2-1.5-.2-3.9.3-6.2.5-.3-.4-.5-.7-.5-.7-4.7-.3-9.1-.3-13-.9-5.2-.7-10.7-.4-14.3 1.2-.4.2-1 .3-1.9.6-1.5-1.7-4.4-1.3-7.7-.9-4.8.6-9.8 1-15 .3-3.4-.4-6.8-.9-10-1.3 1.4 1.1-.8 1.2-3.5 1.3-2.2.1-4.5.5-6.6.4-3.6-.1-7.2-.5-10.7-.7-1.4-.1-2.9-.2-4.4-.3-1.1-.1-2.7.1-3.2-.1-2.9-1.2-5.2-.6-7.4.3-5-1.5-10.3-1.5-15.8-1.2v5c.3.1.7.3 1.1.8 4.3-.1 8.6-.1 12.9-.1zm114.2-1c.1.1.2.1.4.2-.1 0-.3.1-.3.1-.1-.1-.3-.1-.4-.2.1 0 .2-.1.3-.1z"/><path class="st8" d="M611 8.6V8c-1 .1-2 .3-3 .4 1 .1 2 .1 3 .2zM592 11.8h-5c-2.8-.2-5.6-.4-8.5-.6-1.1-.3-2.3-.6-3.4-.9h-1.7l-5.1.6h-1.7c-.9-.1-1.7-.2-2.6-.3-12.9-.1-25.6-.5-38.3-1.2v-.5c2.6-.3 5.2-.5 7.8-.8-.6-.1-1.3-.3-1.9-.3l-25.5.3c-3.1 0-6.2-.2-9.3-.2-7.3-.1-14.5-.2-21.8-.2-4.3 0-8.5.1-12.8.1h-15.1c-1.5 0-2.9.2-4.4.3 1.4 1.6 5 1.5 8.6 1.5 4 0 4.6.2 4.8 1.8-1.2-.4-2.3-1.1-3.2-1-2.7.1-5.9.2-7.9.8-4.8 1.3-9.9 1.3-15.3 1l-8.4-.3c.4.8.8 1.4 1.1 2 2.5.2 5 .7 7.1-.3.2-.1 2.5.1 2.6.3.9 1.1 3.3 1.2 5.3.8 1.1-.2 1.4-1 2.3-1.8 7.9-1 6.6-1.3 12.5.9.9.3 2.4.7 3.6.7 4.5-.1 8.9-.4 13.4-.6 2.8-.1 5.6-.2 9.3-.3 1.4.9 3.7 1.4 7.5.1 1-.3 4.4-.2 5.7.2 3.9 1 7.4.7 11.5.2 1.9-.2 4.4.3 7.1.5.4-.3.9-.8 1.5-1.3 3.4.7 6.8 1.3 10.3 2 .2 0 .6.1.8.1 5.6-1.4 12.7.9 18.1-.9.2-.1.7-.1.8-.1 3.6 1.1 6.5 0 9.6-.4.8-.1 1.9.1 2.8.2 3.2.5 6.4 1.1 9.7 1.6h1.6c2.7-.2 5.5-.3 8.2-.5.3 0 .6-.1.8-.1 5.9 1 11.5-.2 17.3-.2 1.9 0 3.7.3 5.6.4 2.1.1 4 .5 5.9-.5 1.5-.8 5.3-.2 7.5.8v-4.3c-3.4.1-6.7.3-10.1.3-2.7.2-5.7.1-8.7.1z"/><path class="st9" d="M7 54c2.8-.1 5.5-.7 8.4-.8 3-.1 6.1.2 9.2.2 2.3 0 4.6-.1 6.8-.2.4 0 .8-.1 1.2-.1 5.9.2 11.7.4 17.6.6 4.1-.2 8.3-.4 12.4-.6.3 0 .6-.1.8-.1 6.1 1.1 12.9-.7 19 .6.2 0 .6.1.8.1 9.3-1.1 18.7.9 28.1 0 4.1-.4 8.4-.5 12.7-.7 5.5-.8 10.9-.9 16.1.3l65.3.3c2.7-.1 5.5-.3 8.2-.1 3 .1 5.4.2 5.2-1.1 13 .4 25.6.8 38.3 1.3l11-.3c3.9-1.3 8.1-.4 12.2-.5l.3.6c-1.7.2-3.3.4-5 .5-2.4.1-4.2.2-4.2 1.3h1.7c1.4-.5 2.8-.8 4.2 0h1.7c.8.1 1.7.2 2.5.3h1.7c.6-.1 1.1-.2 1.7-.3 2.5.2 5.1.4 7.6.6 2.2-.2 4.4-.5 6.6-.5 3.7-.1 7.5 0 11.3 0 1.5 0 3.1 0 4.6.1 4.3.3 8.5.6 12.8.9 2.4.1 4.9.2 7.3.2 3.7-.1 7.3-.3 11-.4 5.8 0 11.7.1 17.5.1 5.9 0 11.7-.1 17.6-.3 2-.1 3.9-.4 5.9-.6-.1-.2-.3-.4-.4-.5l-15.3-.6c0-.1.1-.2.1-.3h18.9c-.2.1-.5.3-.7.4 1.2.4 2.3 1.2 3.6 1.2 8.8.2 17.8.5 26.6.3 14.2-.4 28.3-.9 42.6-.5 5.3.1 10.6 0 15.9-.1 4.8-.1 9.6-.3 14.5-.5 4.6-.2 9.2-.3 13.7-.4-.1-2.3-1-2.7-6.4-2.6-6.6.1-13.2.3-19.7.5-2.2.1-3.6 0-3.4-1 0-.3-1.1-.6-1.5-.9-1.7 1.1-3.2 2.1-4.9 3.2h8.9v.5c-1.4 0-2.9.1-4.3.1-11.3 0-22.7-.1-34 0-11.6.1-23.2.6-34.8.7-3.1 0-6.2-.5-9.2-.7.1-.2.2-.4.2-.7 1.4-.1 2.7-.2 4.1-.4-7.8-.2-15.4-.1-23-.1-7.7 0-15.4-.1-23.1-.1 0-.2 0-.4-.1-.5 2.7-.2 5.4-.4 8-.7 0-.1-.1-.3-.1-.4-1.6-.2-3.3-.4-5.1-.7.2-.5.5-.9.7-1.3h-11.6c-6 0-12 .1-18.1.1-1.7 0-3.4-.3-5.1-.4 1.5 1 3 2.1 4.8 3.3-3.3.1-7.2.3-11 .5-.2-.1-.4-.3-.6-.4 1.6-.4 3.2-.9 4.9-1.3-1.8-1.5-3.8-1.5-9.3.3-5.2-1.3-11.2-1.6-17.3-1.7-1.6 0-3.2.5-4.8.4-2.7 0-5.5-.2-8.8-.4-.6.4-1.3 1.4-2.8 1.6-1.3.2-3.7-.4-5.4-.7-4 .5-8.2 1.2-12.5 1.6-1.7.2-4.1 0-5.7-.3-8.6-1.6-17.7-1.2-26.7-1-4.9.1-9.8.2-14.7.2-2.3 0-4.9-.2-2.9-1.8h-15.6c-7 0-14-.2-21.1-.2-7.3 0-14.5.1-21.8.1-3.2 0-6.4-.2-9.7-.2-9.5.1-19 .3-28.6.2-2.5 0-5-.6-7.6-.9h-1.7c-1 1-2.7 1.3-5.6 1-1.6-.3-3.7-.2-5.6-.2-1.8 0-3.8.1-3.9-.9l-24.9-.3c-6.3-.1-12.7.2-18.8-.1-8.7-.4-17.3 0-25.9-.1-6.8-.1-13.7-.1-20.5-.1v6.3c2.4.1 4.7.2 7 .1zm496.3-1.1s-.1.1-.2.1-.3-.1-.5-.1c.1 0 .1-.1.2-.1.2 0 .4 0 .5.1zm-9.9-.1c.3-.1.6-.4 1-.4s.9.1 1.8.3c-.8.2-1.2.4-1.6.4l-1.2-.3zm-203.7.8c.1-.2.2-.4.2-.6 1.3.1 2.5.2 3.8.3 0 .1-.1.3-.1.4-1.3-.1-2.6-.1-3.9-.1zm22.5-.4c0 .1-.1.3-.1.4h-5.9v-.4h6zm-15.4-.1c2-.1 4.1-.2 6.5-.4-1.3 1.5-1.3 1.5-6.5.4z"/><path class="st7" d="M13.8 21.4c7.5-.5 15-.9 22.4.2.6.1 1.5-.1 2.3-.1 3.7-.2 7.4-.6 10.8.4.5.2 2.3.2 2.6 0 3.1-1.7 8.2-.8 12.1-1 5.3-.3 11 .4 16.6.5 1.7.1 3.5-.1 5.2-.4 2.2.2 3.6 2.5 6.5.1.9.3 1.7.7 2.1.6 6.3-.8 12.2.9 18.5.3 1.2-.1 2.8.3 4.2.4h.8c2-.1 4-.2 5.9-.3 1.8-.1 3.6-.2 5.5-.3 5.1-.2 10.2-.5 15.3-.7 4-.2 8-.2 11.9-.4 4.7-.2 9.3-.6 14.1.2 1.7.3 4.8-.5 6.3-.2 7.2 1.5 14.8 1.4 22.6 1.2 6-.1 12.2-.4 17.9.1 5.1.4 9.7-.3 14.5 0 1.8.1 3.8-.4 5.7-.5 1.9-.1 3.9.2 5.9.2h11.1c2.1 0 4.1-.1 6.2-.1 5.2 0 10.3.1 15.5.2 5.4.1 10.9.2 16.3.2h2.5c6.3 0 12.5.2 18.8.1 9.9-.1 19.7-.3 29.6-.4.1-.5-.3-1.1.3-1.5.5-.3 2.9-.7 3.1-.6 3.3 1.2 7.6.4 11.2.8 5.8.7 11.7.3 17.6.3 5 0 10.3.5 14.8-.9 1.1-.4 3.7-.2 5.5-.1 4.5.2 9 .4 14.1.7-.9-1.4-2.5-1.6-5.4-1.6-5.8-.1-11.5-.4-17.3-.7h-.9c-1.7 1.1-3.4.7-5.1 0l-16.8-.3c-.9 0-1.8-.4-2.6-.6h-6.5c-10.5 0-20.9-.1-31.4-.1-6.6 0-13.2.1-19.8.1h-14.6c-6.5 0-12.9.1-19.4.1-9.7 0-19.3-.1-29-.1-2.7 0-5.3.2-8 .2h-34.2c1.8.8.3 1-1.5 1-6.5-.1-13-.3-19.6-.4-6.1-.1-12.2 0-18.4-.1-1 0-2-.4-3-.6-1.1-.1-2.3-.2-3.4-.3v1.3c-9.6-.2-18.7-.4-27.9-.6-4-.1-8.1 0-12.2.1-3.3.1-6.6.1-9.8.2-11 .3-22.1-.9-33.2.5-5.8.7-13.9 1.1-19 .2-6.1-1.1-11.5-.5-17.2-.7-1 0-1.8-.5-2.8-.7-3.9-.1-7.8-.3-11.7-.3-6.1.3-12.8.2-19.4.1v4.1c1.6.2 3.2.4 4.8.5 3 .1 6.1-.1 9-.3zm98.5.1h-.3v-.2h.3v.2z"/><path class="st5" d="M68.8 4.8c15.5 0 31 .1 46.5.2l85 .3 82 .3c7.4 0 14.8-.3 22.2-.3h114.4c2.8 0 5.7-.4 8.6-.6v-.9l-43.2-.6H375c-6.7-.2-13.4-.5-20.2-.6-7.8-.1-15.7 0-23.5-.1-7-.1-14-.3-21-.3-7.9 0-15.7-.5-23.6.1-1.4.1-2.9.2-4.2 0-6-.6-11.8.1-17.8.3-5 .1-10.1 0-15.1 0-10.4-.3-20.8-.6-31.2-.6-10.7 0-21.3.2-32 .2-9.2 0-18.4-.2-27.6-.2-8.1 0-16.2.3-24.3.2-12.9-.1-25.8-.4-38.7-.5-4.9-.1-9.9 0-14.8.1-1.2 0-2.4-.1-3.6-.1h-1.7c-2.5 0-4.9.1-7.4.1-10.9 0-21.8.1-32.7 0-11.9-.1-23.7-.3-35.6-.4v3.1c14 .2 28 .4 42 .5 8.9 0 17.9-.2 26.8-.2z"/><path class="st10" d="M44.4 8c2 .1 4.3.2 5.8 0 6.5-1.2 12.2 0 18.1.6 2 .2 4.3.1 6.4.1.7-1 2.5-1.3 5.3-1.2 2.2.1 4.4 0 6.6 0 1.1.1 2.2.2 3.4.3l9.3.3c6.5.3 12.8-.5 19.6.1 5 .5 11-.2 16.5-.4 1.7 0 3.4 0 5 .1h7.5c2 0 3.9-.1 5.9-.1 4.2 0 8.4.2 12.6.2h34.4c6.6 0 13.2.3 19.8.3 9.4 0 18.8-.2 28.2-.2 9 0 18 .2 26.9.1 11.8-.1 23.6-.8 35.4.1 1 .1 2.2-.1 3.2-.2 1.6-.1 3.3-.4 4.9-.3l25.8.9c1.4-.2 2.9-.6 4.3-.6 8.3-.1 16.5-.2 24.8-.2h41.5c8.4 0 16.8.1 25.2.2h1.7c1.5-.1 2.9-.3 4.4-.3H462c.1-1.6 3.9-.9 5.9-1.2-1.1-.3-2.5-.6-3.9-.6-9.3-.1-18.7 0-28.7 0V4.2c-2.6.2-5.1.4-7.7.6-2.9.2-5.7.6-8.6.6H304.6c-7.4 0-14.8.3-22.2.3l-82-.3-85-.3c-15.5-.1-31-.2-46.5-.2-9-.1-18 .1-26.9 0-14-.1-28-.3-42-.5v2.5c8.2.1 16.4.3 24.5.5 6.7.1 13.3.4 19.9.6z"/><path class="st4" d="M542.7 21.5c-2.2 0-4.5-.2-6.7-.2-2 0-4.1.2-6.1.2-2.2 0-4.5-.2-6.7-.2-7.3 0-14.5.1-21.8.2-7.4.1-14.8.2-22.3.2-2.2 0-4.5-.1-6.7-.2l-1.2 1.5.1.1c9.4 0 19 .4 28-.1 6.9-.4 12 .8 18 1.1h1.6c.4-.2.9-.3 1.3-.5.4.2.8.5 1.2.7h2.5c.3-.1.6-.3.9-.4.3.1.6.3.9.4 17.1 0 33.3.9 41.8 2.4-.4.3-.7.6-1.1.9.8.1 1.7.2 2.5.4.7-.2 1.5-.5 2.2-.5h30.5c1.5 0 3.1.1 4.6.2.6-.1 1.1-.2 1.7-.3 1 0 1.9.1 2.8.1v-6.4c-7.5-.1-15-.2-22.5-.2-15 .2-30.2.5-45.5.6z"/><path class="st11" d="M569.2 55.6c-3.4.1-6.8-.2-10.1-.1-6.9.2-13.8.6-20.8.8-7.4.2-14.8.3-22.2.6-5.1.2-10.1.5-15.2.7-1.6.1-3.4.3-4.8.2-6.2-.6-11.7.6-17.5.9-8.4.3-16.9.4-25.3.5-11.4.1-22.8.1-34.2.2h-3.4c-1.7.1-3.6.5-5.2.3-.5-.1-1.1-.3-1.5-.5-7.2-.4-14.4-.8-21.6.2-.8.1-1.7.1-2.5.1-5.2-.1-10.4-.3-15.7-.4-2.1 0-4.2.1-6.2 0-6.1-.2-12.1-.5-18.2-.7-1.5 0-3 0-4.5.1l-25.3-.3c-.9 0-1.8-.2-2.7-.3-1.1-.1-2.2-.2-3.4-.2-2.8.9-5.7.9-8.5 0h-5.1c-.9.1-1.8.2-2.6.3h-4.2c.8.2 1.9.3 2.5.5.8.3 1.2.7 1.8 1.1 1.8.2 3.5.5 5.3.6.6.1 1.2.1 1.8.1h3.5c3.5 0 7.1-.1 10.6-.1 1.1-.1 2.2-.3 3.2-.3 9.7.4 19.5.8 29.2 1.2 3.3.1 6.7.3 10 .2 5.5 0 11-.2 16.5-.2 1.3 0 2.7.3 3.9.5 5.8 1.1 11.8.4 17.7.4 7.4.1 14.7.3 22.1.5h10.9c7.9-.2 15.8-.2 23.5-.7 13.2-.9 26.5-.9 39.8-1.3 5.6-.2 11.3-.2 16.9-.4 2.3-.1 4.5-.6 6.8-.7 10.4-.3 20.9-.4 31.3-.7 1.7 0 3.4-.4 5.1-.6 2.7-.2 5.4-.6 8.2-.6 7.6-.2 15.3.1 22.7-.4 1.5-.1 3-.2 4.5-.2 3-.1 6-.1 8.9-.1 5.3 0 10.5.3 15.7.5v-2.6c-4.2.2-8.5.3-12.7.4-9.6.1-19.3.3-29 .5z"/><path class="st12" d="M15.6 28.1c2.2-.9 4.5-1.6 7.4-.3.5.2 2.1.1 3.2.1 1.5.1 2.9.2 4.4.3 3.6.3 7.1.6 10.7.7 2.2.1 4.4-.4 6.6-.4 2.7-.1 4.9-.2 3.5-1.3 3.3.4 6.7.8 10 1.3 5.1.7 10.1.3 15-.3 3.3-.4 6.2-.8 7.7.9.9-.2 1.5-.4 1.9-.6 3.6-1.6 9.1-1.8 14.3-1.2 3.9.5 8.3.6 13 .9 0 0 .2.3.5.7 2.3-.2 4.7-.7 6.2-.5 2.9.5 5.2 1.3 8.2.2.2-.1 1.2.1 1.9.2 1.5.1 3 .4 4.5.4 2.9 0 5.9-.1 8.8-.1l-2.7-1.2c-.8-.4-1.6-.8-2.5-1.2 3.8-.3 6.9-.5 9.9-.7-.1-.2-.1-.4-.2-.7-1.9 0-4.1-.3-5.8-.1-4.2.6-7.8-.1-11.1-.7-4.4-.8-8.7-.5-13.1-.5h-.4c-1.4-.3-2.9-.6-4.3-.9 1.3-.2 2.5-.4 3.8-.6-1.4-.2-3-.5-4.2-.4-6.3.6-12.2-1.1-18.5-.3-.4 0-1.2-.4-2.1-.6-2.9 2.5-4.3.1-6.5-.1-1.7.2-3.5.4-5.2.4-5.6-.2-11.3-.8-16.6-.5-3.9.2-9-.7-12.1 1-.3.1-2.1.1-2.6 0-3.4-1.1-7.1-.6-10.8-.4-.8 0-1.7.2-2.3.1-7.4-1.1-14.9-.8-22.4-.2-2.9.2-6 .3-9 .2-1.6-.1-3.2-.3-4.8-.5v5.5c5.6-.3 10.9-.3 15.7 1.4zm120.6-1.9c-1 1.2-2.6 1.7-6.1 1.3-3.6-.4-1.9-1.2-1.4-2.1 2.8.3 5.1.6 7.5.8z"/><path class="st9" d="M589.5 32.2h-5.1c0 2.7 0 2.7 7.1 2.9 5.3.1 10.5.1 15.8.1 1.2 0 2.4 0 3.7.1v-1.6h-24.9c1.2-.6 2.3-1.1 3.4-1.5zM605.4 32.9c1.8.2 3.7.2 5.6.3v-.9c-3.5 0-7-.1-10.5-.1 1.7.2 3.2.5 4.9.7z"/><path class="st4" d="M26.8 60.1c2 0 4.2.3 6.2.2 8.3-.2 16.6-.6 24.9-.8 2.2-.1 4.4.1 6.7.1l22.9-.3c1.7 0 3.4.1 5 .1 4-.1 8-.2 12-.2 3.6 0 7.2.1 10.8 0 9.2-.2 18.3-.5 27.5-.6 8.4-.1 16.7-.1 25.1-.1 1.2 0 2.4.4 3.6.6h2.5c.6-.3 1.1-.7 1.7-.7 3.7 0 7.5.1 11.2.1h9.2c-.3-.3-.6-.6-.9-.8 2-.3 4-.7 6-1-13.4 0-26.9.1-40.4.1-6.2 0-12.5-.2-18.7-.2-5.1 0-10.1.1-15.2.3-5.2.1-10.3.4-15.5.5-7.7.1-15.4.3-23.1.2-3.4 0-6.8-.5-10.2-.8h-2.4c-.9.6-1.7.7-2.6.4-.3-.1-.6-.2-.9-.4H66.4c-.8.6-1.5.7-2.3.2-.1-.1-.2-.1-.3-.2h-5c-.9.7-1.7.7-2.6 0H52c-2.6.4-5.2 1-7.9 1.1-4.1.1-8.3-.1-12.5-.2-.6 0-1.2-.4-1.8-.5-9.8.3-19.9-.3-29.8-.1v4c2.9-.3 5.8-.6 9.1-.6 5.9 0 11.8-.3 17.7-.4z"/><path class="st13" d="M606.4 27.8c-1.5-.1-3.1-.2-4.6-.2h-30.5c-.8 0-1.5.3-2.2.5 6.3.3 12.6.7 18.9.9 3.3.1 6.3.3 5.7 1.9 4.7.1 9.5.1 14.2.2 1 0 2.1.1 3.1.1v-3.6c-.9 0-1.9-.1-2.8-.1l-1.8.3z"/><path class="st11" d="M591.1 51.9c-3.4.2-6.8.7-10.2.8-3 0-4.4.4-5 1.4 7.6-.1 15.2-.3 22.8-.3 4.1 0 8.2.1 12.3.2v-2.7h-2.5c-5.8.2-11.6.3-17.4.6z"/><path class="st13" d="M46.4 47.8c6.2.3 12.6 0 18.8.1l24.9.3c2.3-.1 4.5-.2 6.8-.3-3.4-.2-6.7-.3-10.1-.5V47c4.6 0 9.2 0 13.7.1.6 0 1 .7 1.5 1.1h5.1c4.6-.3 9.2-.9 13.9-.9 19.7-.1 39.4 0 59.1 0 1.1-.3 2.2-.6 3.4-.9-1.9-.1-3.9-.3-5.8-.3h-36.5c-10.3 0-20.7-.2-31-.3-.7 0-1.5-.1-2.4-.3.4-.1.8-.1 1.2-.2 2.4-.3 4.3-.8 4.3-1.8 0-.2-.1-.3-.2-.5H108c.3.3.6.6.8.7-1.9.8-3.6 1.5-5.5 2.2-.8.3-2.2.5-3.3.5-4.1-.1-8.2-.4-12.4-.5-3.9-.1-7.8.2-11.6.2-11-.1-21.8-.3-32.6-.4-1.4 0-2.8.2-4.2.2-7.2.3-9.3-.6-6.8-3l-29.8-.6c-.9 0-1.8 0-2.6.1v5.1c6.8 0 13.7 0 20.5.1 8.7.2 17.2-.2 25.9.2z"/><path class="st13" d="M65.2 47.9l24.9.3-24.9-.3zM603.1 17.7c-.8-.1-1.7-.2-2.5-.3l-17.7.9c-1.9.1-3.8-.2-5.7-.3-2.2-.1-4.4-.2-6.6-.1-2.9.1-5.7.4-9.2.7-.1 1.2 3.4 1.1 6 1.2 2 .1 4.2-.2 6.3-.2 2.6 0 5.2.3 7.7.3 3.5 0 7.1-.2 10.6-.2 1.9 0 3.8.1 5.6.1.7 0 1.4.1 2.1.1 3.8 0 7.6-.1 11.4-.1v-1.4h-1.2c-2.3-.3-4.6-.5-6.8-.7z"/><path class="st14" d="M46 35.2zM46 35.2zM23.6 38.3c3.9.1 7.2.2 10.5.3 5.7-1.2 11.8-.6 17.8-.7 2.9-.1 5.7-.4 8.5-.6-4.6-.3-9.2-.6-13.8-.8-2.4-.1-4.9-.1-7.3-.2-.1-.2-.1-.3-.2-.5 2.3-.2 4.5-.5 6.8-.7 0-.7.2-1 1.6-1 .5 0 1.1 0 1.9.1 4.7.4 9.7.3 14.8.5-1.1.1-2.1.3-3 .4 0 .1.1.2.1.3h16c-1.4-.3-2.5-.6-3.6-.9 2.2-1.7 6.1-.7 9.1-.7 6.5-.1 13 0 19.5.1 3.7 0 7.5.1 11.2.2 1.2 0 3.3 0 3.5-.3.8-.8-.6-1.1-2.7-1.1H101.2c-2.5-.1-5.1-.2-7.6-.3h-24c-.7-.7-1.1-1.1-1.6-1.5-1.5.4-3 .8-4.6 1.2H36.5c-1.1-.9-2.7-1.1-4.8-.2-.5.2-1.4.5-2 .5-5.2 0-10.3-.1-15.5-.1-4.3 0-8.7.1-13 .1.6.3 1 .7 1.7.8 4 .5 7.9 1 12 1.3 6.6.4 13.3.7 20 1 .6 0 1.2.2 1.7.5-12.5.5-25 .9-36.4-1.4v4.9l20.2.3c2.4.1 5 .1 3.2-1.5z"/><path class="st11" d="M16.2 67.7c1.9-.3 3.9-.7 5.8-.7 7.7 0 15-.7 22.1-1.7 1.6-.2 3.6-.1 5.4-.2 6-.2 12 .3 18.2-.7 4-.7 9.4-.2 14.2-.3 5.3-.2 10.5-.5 15.8-.8v-.6c-13.3.3-26.6.6-39.8.9-1.3.5-2.7.7-4.1.7h-1.1l-3.3-.3h-1.6c-.6.1-1.2.2-1.7.3h-2.5c-.9.1-1.7.2-2.6.3h-8.4c-1.4.2-2.8.4-4.3.6h-7.6c-.2.2-.3.4-.7.5-2.7.8-15.5 1-18.4.3-.2 0-.3-.2-.4-.3h-1v3.1h9.1c1-.1 1.9-.2 2.9-.3 1.3-.1 2.5-.5 4-.8z"/><path class="st12" d="M594.3 5.9v.3h9.5v.4c-5.6.4-11.2.1-16.8-.2 1 .3 1.9.7 3.1.9 1.4.3 3 .4 4.5.6h7.7c1.5.1 2.9.2 4.4.3h1.4c1-.1 2-.3 3-.4V5.9h-16.8zM608 8.4c1-.1 2-.3 3-.4-1 .1-2 .3-3 .4z"/><path class="st7" d="M68.3 1.8c2.5 0 4.9-.1 7.4-.1.2-.6.2-.7-2.1-1.6H0v1.4c11.9.2 23.7.4 35.6.4 10.8 0 21.8-.1 32.7-.1z"/><path class="st12" d="M1.5 63.1c16.2-.8 32.8-3 50.5-1.1 0 0 .1-.2 0-.4s-.3-.4-.4-.5c.4-.1.7-.2.9-.2 8.8 0 17.7-.2 26.5 0 9.2.2 18.2 0 27.3-.6 6.5-.4 13.3-.1 20-.2 8.7-.2 17.3-.5 26-.6 4.4-.1 8.8 0 13.2-.1 2 0 4-.2 6.1-.4-1.2-.2-2.4-.6-3.6-.6-8.4 0-16.7 0-25.1.1-9.2.1-18.3.4-27.5.6-3.6.1-7.2 0-10.8 0-4 0-8 .2-12 .2-1.7 0-3.4-.1-5-.1l-22.9.3c-2.2 0-4.5-.2-6.7-.1-8.3.2-16.6.6-24.9.8-2 .1-4.1-.3-6.2-.2-5.9.1-11.8.5-17.7.4-3.3 0-6.2.2-9.1.6v4.7h.2c.3-.7.7-1.5 1.2-2.6z"/><path class="st11" d="M593.7 30.9h-28c-.6.1-1.1.2-1.7.3h-14.4c-2.3-.1-4.5-.2-6.8-.3l-4.2.3c-1.1.1-2.3.2-3.4.3H497.9c2.5.3 5.1.6 7.6.9 2.9-.1 5.9-.2 8.9-.3h86.1c3.5 0 7 .1 10.5.1v-1c-1 0-2.1-.1-3.1-.1-4.7-.1-9.5-.1-14.2-.2z"/><path class="st8" d="M31.6 17.7c3.9 0 7.9 0 11.8-.1 0-.1 0-.1.1-.1 1-.5 1.9-1 2.9-1.5-1.4 0-3.5.1-4.2-.1-1.9-.7-3.2-1.7-4.7-2.5h-1.7c-3.5 1.2-4.3 1.1-5.9-.6-4.8 1-11.6-.5-15.7 1.8-1.1-.5-2-.9-2.2-1-3.2-.2-5.6-.3-7.9-.5-1.4-.1-2.7-.3-4.1-.4v4.4l19.9.3c3.9 0 7.8.2 11.7.3z"/><path class="st4" d="M41.7 42.3c15.5-.1 31.1-.1 46.6-.2 1-.5 2.1-.9 3.2-1.4-3.1-1.2-6.8.2-10.4.1-6.1-.2-12.3.1-18.4.2-.3 0-.7 0-.8-.1-2.3-.9-4.6-1-8.1-.7-3.2.3-7-.2-10.6-.2-2.4 0-4.8.1-7.2.1-1.3 0-2.6 0-4.7-.1 1.3-.6 2-1 2.8-1.4-3.3-.1-6.6-.2-10.5-.3 1.8 1.6-.8 1.6-3.4 1.6L0 39.6v1.9c11.5.2 23 .3 34.5.5 2.4 0 4.8.2 7.2.3zM39.2 55.6h1.7c1.7-.3 3.3-.7 5-.9 1.8-.2 4.2.2 4.3-1-5.9-.2-11.7-.4-17.6-.6-.4 0-.8.1-1.2.1-2.3.1-4.6.2-6.8.2-3.1 0-6.2-.3-9.2-.2-2.8.1-5.5.7-8.4.8-2.3.1-4.7 0-7-.1v2h26.5c2.9-1.1 9.3-1.2 12.7-.3z"/><path class="st4" d="M32.7 53.2c5.9.2 11.7.4 17.6.6-5.9-.2-11.8-.4-17.6-.6z"/><path class="st15" d="M29.9 56.8l22.1-.3H78.1c2.8-.2 5.7-.4 8.5-.6-2.6-.3-4.9-.5-7.8-.1-3 .3-6.5-.1-9.9-.1-2.2 0-4.5.3-6.7.2l-21.4-.3h-1.7l-12.7.3H-.1v1.2c10-.2 20.1.4 30-.3zM76.9 56.6h1.2c-.3-.1-.7 0-1.2 0z"/><path class="st12" d="M36.4 36c-.5-.3-1.1-.4-1.7-.5-6.7-.3-13.4-.6-20-1-4.1-.3-8.1-.8-12-1.3-.7-.1-1.1-.5-1.7-.8-.3-.4-.7-.6-1-.7v3c11.5 2.2 23.9 1.8 36.4 1.3z"/><path class="st15" d="M32.4 42.9h9.4c0-.2 0-.4-.1-.6-2.4-.1-4.8-.3-7.3-.3-11.4-.2-22.9-.4-34.4-.5v1c.9 0 1.8-.1 2.6-.1 10 .1 19.9.3 29.8.5z"/><path class="st9" d="M152.3 66.1c2.1-.3 4.3-.4 6.4-.6 1.1-.2 2.3-.4 3.4-.6h1.7c.2-.2.4-.4.6-.7.3.2.7.4 1.1.7l4.2-.3c2.7-1.6 7.1-1.4 11.2-1.3 6.9.2 9.9-.3 12.6-2.1-18.6-.1-37 .6-55.4 1.5-4.6.2-9.2.3-13.9.4l-16.4.3H97.6c-5.3.3-10.5.6-15.8.8-4.8.2-10.2-.4-14.2.3-6.1 1-12.1.5-18.2.7-1.8.1-3.8 0-5.4.2-7.1 1-14.4 1.7-22.1 1.7-2 0-3.9.4-5.8.7-1.5.2-2.8.6-4.3.8-.9.1-1.9.2-2.9.3H130c5.9-1 12.1-1.5 18.6-1.9 1.2-.3 2.4-.7 3.7-.9zm-21.9-1c.1 0 .2 0 .3-.1.1.1.2.1.4.2-.1 0-.3.1-.3.1-.1-.1-.2-.1-.4-.2z"/><path class="st11" d="M299.3 66.4c-3.4-.2-6.8-.5-10.3-.5-5.7 0-11.3-.7-16.6-.9-14.7-.3-29.4-.8-43.9-1.7-2.9-.2-5.1-.3-3.5-1.7h-7c-.1.1-.1.2-.2.3l4.2.9c0 .1-.1.3-.1.4-4.2.1-8.4.2-12.7.4-6.3.2-12.5.5-18.8.7-6.8.2-13.7.2-20.5.3l-4.2.3h-3.4c-1.1.2-2.3.4-3.4.6-2.1.2-4.4.4-6.4.6-1.4.2-2.5.6-3.8.9l12.7-.3c4.1.1 8.2.2 12.2.2 1.4 0 2.8-.5 4.2-.8 1.9-.3 3.7-.8 5.8-.9 3.3-.2 6.7-.2 10-.3 12.2-.8 24.5-.5 36.7 0 3.9.1 7.8.5 11.7.7 5.7.2 11.5.4 17.3.6 2.5.1 5.1.6 7.3.4 4.1-.3 6.9.3 10.3.9 2.9.5 7.5 1.2 9.8.7 5.9-1.1 9.6 0 13.1.7h15.7c-3.2-.4-6.3-.9-9.2-1.7-2-.5-4.6-.6-7-.8z"/><path class="st9" d="M198.2 66.7c-1.5-.2-3.2-.3-5.3-.5.2-.5.4-.9.6-1.3-3.3.1-6.7.1-10 .3-2 .1-3.9.6-5.8.9-1.4.3-2.8.8-4.2.8-4.1 0-8.2-.1-12.2-.2.7 1.7-4.6 1.1-6.1 1.9 1.3.1 2.6.2 4 .3h40.5c1.9-.8 1.2-1.8-1.5-2.2z"/><path class="st11" d="M393 66c-.9-.1-1.9-.1-2.8-.2-7.6-.4-15.3-.7-23-1-9.6-.5-19.2-1-28.8-1.4l-33.9-1.5c-.8 0-1.6.1-2.4.2.8.2 1.7.4 2.5.6 1.2.2 2.3.6 3.5.6 8.9.3 17.8.6 26.7 1 2.3.1 4.6.5 6.9.6 7.4.4 14.8.7 22.2 1 2.9.1 6 .2 8.5.7 5.6 1.1 11.4 1 17.3 1.1 1.2 0 2.3.3 3.5.3 3 .2 5.9.3 8.9.5v-1.1c-2.1-.1-4-.2-6-.2v-.4c1.7 0 3.4-.1 5.2-.1-2.8-.3-5.5-.5-8.3-.7z"/><path class="st6" d="M248 60.8c-2.5-.1-5-.1-7.6-.2-14.1-.2-28.2-.4-42.3-.3-15.6.2-31.2.7-46.7 1.1-11.7.3-23.3.6-34.9 1-2.9.1-5.7.4-8.6.6v.3l16.4-.3c4.6-.1 9.3-.2 13.9-.4 18.4-.8 36.8-1.6 55.4-1.5 5-.1 10-.3 14.9-.3 8.9 0 17.9.1 26.8.3 5.7.1 11.4.4 17.2.5 6.1.2 12.2.2 18.3.4v-.6c-7.6-.1-15.2-.4-22.8-.6z"/><path class="st11" d="M434.2 68.2c1.6-.5 3.4-.8 5.3-.9 5.1-.2 10.2-.3 15.4-.5 3.2-.1 6.4-.2 9.5-.5.3 0 .5-.1.8-.1.8-.2 1.4-.5 2.2-.7-7 .3-13.9.7-20.9.9-6.6.2-13.2.2-19.8.4-1.5 0-2.9.4-4.4.6 2.6.1 5.2.2 7.7.4.4 0 .5.6.8.9 0 .1-.1.2-.1.3h18.4c.7-.2 1.3-.4 2-.7-5.5-.1-11.2-.1-16.9-.1z"/><path class="st11" d="M467.4 65.5c-.7.2-1.4.5-2.2.7.8-.2 1.5-.5 2.2-.7z"/><path class="st15" d="M426.7 68.6h4.2c-.2-.3-.4-.8-.8-.9-2.5-.2-5.2-.3-7.7-.4l-9.3-.3c-1.7.5-3.8.5-5.6.2-1.1-.2-2.1-.4-2.9-.8-1.1.1-2.2.2-3.3.2-1.7 0-3.4.1-5.2.1v.4c1.9.1 3.9.1 6 .2v1.1c1.5.1 3 .2 4.5.4h8.7c.4-.1.7-.2 1.1-.3 3.4 0 6.9.1 10.3.1zM426.7 68.6h4.2-4.2zM278.3 61.7v.4l26.3.6c-.9-.2-1.7-.4-2.5-.6-8-.1-15.9-.2-23.8-.4z"/><path class="st11" d="M416.4 68.6c-.4 0-.7.1-1.1.3h10.5l.9-.3c-3.4 0-6.9-.1-10.3 0z"/><path class="st15" d="M270.7 61.5v.6h5.1c0-.2 0-.4-.1-.6h-5zM270.7 61.5v0z"/><path class="st6" d="M275.7 61.5c0 .2 0 .4.1.6h2.5v-.4c-.9 0-1.7-.1-2.6-.2z"/><path class="st7" d="M80.9 1.7c4.9 0 9.9-.1 14.8-.1 12.9.1 25.8.4 38.7.5 8.1.1 16.2-.2 24.3-.2 9.2 0 18.4.2 27.6.2 10.7 0 21.3-.2 32-.2 10.4 0 20.8.3 31.2.4 5 .1 10.1.2 15.1 0 5.9-.2 11.7-.9 17.8-.3 1.3.1 2.9.1 4.2 0 7.9-.6 15.7-.1 23.6-.1 7 0 14 .3 21 .3 7.8.1 15.7 0 23.5.1 6.7.1 13.5.4 20.2.6 0-1 1.5-1.5 4.2-1.5 6.7-.1 13.4-.1 20-.3 12.5-.6 24.8.2 37.2.3 11.9.1 23.9 0 35.8 0 9.7 0 19.3.2 29 .3L511.3.5c-.3-.3-.6-.6-1.1-.7H507c-.6.1-1.2.2-1.7.3-2.5.3-4.1.3-6.6-.1-.3-.1-.7-.1-1.1-.1h-5.3c-.5 0-.9.1-1.3.2-3.2.6-5.8.3-8.4-.2h-7.1c.4.1.7.1 1.1.2h-17c.6-.1 1.2-.2 1.8-.2h-55.5c-1.7.6-3.7.4-5.8.1v-.1H156.9c-.8.3-2 .4-3.2.3-8-.2-16.3.6-24.3-.2H118c-9.6.8-19.4.4-29.2.1C86.9.1 85 0 83.1 0h-4.9c-.3.5-.6 1.1-.9 1.6 1.2.1 2.4.2 3.6.1z"/><path class="st12" d="M515.1 46c-.5 0-.9.2-1.3.3.1.2.1.3.2.5 9.9-.2 19.8-.4 29.6-.7 0 .2.1.4.1.6-15.2.3-30.4.7-45.6 1 0-.2-.1-.4-.1-.6l12.9-.3c0-.2 0-.3-.1-.5-2.1-.2-4.1-.4-6.2-.6-10.3 0-20.5.1-30.8.1-4.9 0-9.8.2-14.6.2H424l-70.2.3c-15.2.1-30.4.3-45.5.3-13.5 0-27-.4-40.5-.5-3.5 0-7 .3-10.5.3l-57.9-.3c1 .3 1.9.8 3.1.9 2 .2 3.6.3 2.9 1.2h25.3c.1-.1.1-.2.2-.4-1-.1-2.1-.2-3.1-.4.1-.1.2-.3.4-.4 2.2.3 4.3.5 5.9.7 2.2.1 4 .2 5.7.3 1.2 0 2.5.1 3.7 0 5.9-.3 11.8-.6 17.7-.8h1.1c.8.1 1.6.3 2.3.5h1.7c3.2-.8 6.6-.7 10-.4 0 .2 0 .3.1.5h-10.1c1.3.2 2.6.6 3.9.6l50.8.3h3c1.7.2 3.4.4 5.1.4 6 0 12-.1 18.1-.1h11.6l9.3-.3c-.5-.2-1-.5-1.4-.7.1-.2.1-.3.2-.5 5.2.3 10.4.6 15.7.9H394.5c.7-.2 1.5-.4 2.2-.6.2.1.3.3.5.4-.9.1-1.8.1-2.7.2v.9c7.4-.1 14.8-.2 22.2-.2 9 0 18 .4 27 .2 5.9-.1 11.6-.8 17.4-.1h.4c9.5-.3 19.1-.6 28.6-.8 7.2-.2 14.4-.2 21.5-.3 10.2-.1 20.6.5 30.5-.9 2.1-.3 4.1-1 6.2-1.1 2.4 0 4.8.6 7.3.7 3.3.1 6.8 0 10.2 0 2.8-.1 5.7-.2 8.5-.3h2.5c.6-.1 1.1-.2 1.7-.3l-18.6-.3c0-.1-.1-.2-.1-.3 4.8-.2 9.5-.3 14.3-.5 0-.2-.1-.3-.1-.5-4.6.1-9.1.2-13.7.2-3.3 0-6.9.7-9.8-.5-.9.1-1.7.2-2.6.3-1.3.2-2.6.6-3.9.6-9.6.4-19.2.6-28.9.8zM264.7 47.9z"/><path class="st11" d="M283.4 55.3h-1.7c-.8-.1-1.7-.2-2.5-.3H271.6c-1.8.1-3.6.2-5.3.3-.1-.2-.3-.3-.5-.5 1.5-.4 2.9-.8 4.8-1.3-1.1-.1-1.7-.2-2.4-.3l-11 .3c.4.5.7 1.1 1.2 1.7-6.7 0-13.5.4-19.6-.1-9.9-.9-19.9-.7-29.8-1.1-1.2 0-2.3-.3-3.5-.5l-65.3-.3c-3.4 1.3-13.5 1.1-16.1-.3-4.2.2-8.5.3-12.7.7-9.4.9-18.7-1.1-28.1 0-.2 0-.6 0-.8-.1-6.1-1.2-12.9.5-19-.6-.2 0-.5.1-.8.1-4.1.2-8.3.4-12.4.6-.2 1.1-2.5.8-4.3 1-1.8.2-3.4.6-5 .9l21.4.3c2.2 0 4.5-.2 6.7-.2 3.3 0 6.9.5 9.9.1 3-.3 5.3-.2 7.8.1 5.7-.2 11.3-.4 17-.5 7.7-.1 15.4-.1 23.1-.1 8.3 0 16.7.1 25 .1 2.2 0 4.3-.2 6.5-.1 7.5.1 14.9.3 22.4.3 5.8 0 11.5-.2 17.3-.2 4.7 0 9.5.2 14.2.3 4.1.2 8.3.5 12.4.6 5.5.2 11.1.2 16.7.3 1.7 0 3.3.3 4.9.5h1.5c.4-.1.7-.1 1.1-.2l22.7.6c5.5-.2 11.1-.4 16.6-.6 2.1-.1 4.2 0 6.3 0-.6-.4-1.1-.8-1.7-1.2-2.5-.2-5.1-.4-7.6-.6-.7.1-1.2.2-1.8.3z"/><path class="st11" d="M62.7 53.1c-4.1.2-8.3.4-12.4.6 4.1-.2 8.2-.4 12.4-.6z"/><path class="st13" d="M564 41.4c1.3 1.2-1 1.4-3.4 1.5-9.6.3-19.2.6-28.9.8-6.2.1-12.4.1-18.6.2v1.6l34.8-.6c.9-.1 1.7-.2 2.6-.3l60.5-.9V41c-2.3.1-4.5.2-6.8.2-13.4 0-26.8.1-40.2.2z"/><path class="st6" d="M575.9 54.1h-1.7l-12.7.3c-2.4 0-4.8 0-7.2.1-13.8.5-27.7 1-41.5 1.5-5.3.2-10.6.5-15.9.6-11.9.2-23.8.3-35.6.5-13.8.2-27.6.5-41.3.7-.3.5-.5 1-.8 1.5 11.4 0 22.8 0 34.2-.2 8.4-.1 16.9-.2 25.3-.5 5.8-.2 11.3-1.5 17.5-.9 1.5.1 3.2-.1 4.8-.2 5.1-.2 10.1-.6 15.2-.7 7.4-.2 14.8-.3 22.2-.6 6.9-.2 13.8-.6 20.8-.8 3.3-.1 6.8.1 10.1.1l29.1-.6c4.2-.1 8.5-.3 12.7-.4V54c-4.1-.1-8.2-.2-12.3-.2-7.7 0-15.3.2-22.9.3z"/><path class="st11" d="M596.9 46.2c-3.7.1-7.4.2-12.2.4 5.1 2 11.4-.1 15.5 1.3 0 .2-.1.3-.1.5h-7.4c0 .2 0 .3-.1.5 1.3.1 2.6.3 3.9.2 4.2-.2 8.3-.8 12.5-.8h2V46h-1.2c-4.3.1-8.6.1-12.9.2z"/><path class="st15" d="M344.7 58.3c6.1.2 12.1.5 18.2.7 2.1.1 4.2-.1 6.2 0 5.2.1 10.4.2 15.7.4.8 0 1.7 0 2.5-.1 7.1-.9 14.4-.6 21.6-.2 2.4-.4 4.8-.8 6.8.3h3.4c.3-.5.5-1 .8-1.5-6.4.1-12.9.3-19.3.2-12.8-.2-25.5-.7-38.2-.8-7.4-.1-14.8.2-22.2.3v.9c1.5-.2 3.1-.3 4.5-.2zM415.7 59.3h3.4-3.4z"/><path class="st16" d="M271.5 57.5c-.6.2-1.2.4-1.7.6l18.6-.3h4.2c.9-.1 1.8-.2 2.6-.3h13.6c1.1.1 2.2.2 3.4.2 1.5-.2 2.9-.4 4.4-.6l-22.1-.3h-6.3c-5.6.2-11.2.5-16.7.7zM288.4 57.7z"/><path class="st6" d="M312.2 57.7c.9.1 1.8.3 2.7.3l25.3.3v-.9l-23.6-.3c-1.5.2-2.9.4-4.4.6z"/><path class="st9" d="M380.9 49.4h-3.4c-3.7.5-7.3 1.1-10.8 1.6 4.9 1 18.1.6 21.3-.8-.7-.2-1.3-.4-2-.5h-1.7c-1.8.9-2.8.6-3.4-.3z"/><path class="st11" d="M570.8 52.8c-2.9.1-5.9 0-9.1 0-.1.5-.1 1-.2 1.5l12.7-.3c.2-.8-.9-1.2-3.4-1.2z"/><path class="st13" d="M382.6 48.5c-3.2 0-6.5-.1-9.7 0-1.3 0-2.6.4-3.9.6 2.8.1 5.6.2 8.5.3h3.4c1.1.1 2.3.2 3.4.3h1.7c2.3-.1 4.5-.2 6.8-.3v-.9h-10.2z"/><path class="st14" d="M382.6 48.5c-5.2-.3-10.4-.6-15.7-.9-.1.2-.1.3-.2.5.5.2 1 .5 1.4.7l.9.3c1.3-.2 2.5-.5 3.9-.6 3.2-.1 6.5 0 9.7 0zM611 46v-.2c-.4.1-.8.1-1.2.2h1.2z"/><path class="st11" d="M582.4 47.7c.3-.3.6-.5.9-.8l-4.8-.6c-.6.1-1.1.2-1.7.3 1.8.4 3.7.8 5.6 1.1zM574.2 46.7c-2.8.1-5.7.2-8.5.3 3 .2 6.1 1.3 8.5-.3z"/><path class="st14" d="M392.8 48.5v.9h1.7v-.9h-1.7zM394.5 48.5z"/><path class="st11" d="M589.3 48.6h.3v-.2h-.3v.2z"/><path class="st17" d="M395.1 13.9c-1.1.3-3 .3-4.6.3-1.5 0-3-.2-4.5-.2-1.6.4-3.3.7-4.5 1-1.2-.5-2.1-.9-3.1-1.3h-1.7c-.3.1-.6.3-.8.4-.3-.1-.6-.3-.9-.4-1.4 0-3.3-.1-4.1.2-2.3.9-4.5.9-7.2.4-.5-.1-1.3.1-2 .1-5.5.2-11.1.6-16.6.5-7.4-.1-14.7-.5-22-.8-1.2 0-2.5.1-3.7.2-3 .4-6 1-9 1.1-4.2.1-8.6 0-12.8-.2-1.4-.1-2.9-.6-3.9-1-2-.9-5.9-1-7.9-.1-1.4.7-2.4 1.5-3.9 2.4-.7-.1-2-.3-3.1-.5-5.5-1.3-11.9-.9-17.3-.4-2.8.2-4.6.2-7-.1-1.5-.2-3.2-.2-4.8-.3-5.6-.5-11.9.9-17-1-.5.5-1 .8-1.3 1.1-1.9-.3-3.5-.8-5.1-.9-2.5 0-5 .2-7.5.4-2.2.6-4.5.2-6.7.2-4.9.1-7.1-1.4-10.8-1.7-2.8-.2-5.9.3-8.7.5-.4 2.6-2.4 2.8-9.5 1.7-1.9-.3-4.2-.2-6.1-.5-1.7-.2-3.8-.6-4.7-1.1-1.8-1-3-1.1-5.6-.4-2.3.7-5 1.1-8.1 1.8.3-1 .7-1.6.6-2.2-.2-1.6-4.2-1.1-6.5-1.5H151c.9.6 1.8 1.2 3 2.1-1.6.2-3.2.4-4.7.6-.3-.5-.7-1.1-.9-1.6-.3-.6-.5-1.3-.8-1.9-1.5.2-4.1.3-4.4.6-.5.6.3 1.4.7 2.4-3.8-.2-7.6-.5-11.4-.7-1.1-.1-2.2-.2-3.2-.1-5.5.4-11.1 1.2-16.5 1-3.7-.1-7.2-.8-11.3-.3-1 .1-2.6-.4-4-.7-6.4-1.2-12.6 1.5-19 .2-3.7.8-4.4-.2-5.7-1.1-.6-.4-2.8-1.1-3.4-1-3.3.6-6.2 1.4-9.4 2.1-.8.2-2.7.2-2.8.1-2.1-1.7-6.1-.9-9-.8-3.7.2-7.3.8-10.9 1.2 1.5.9 2.8 1.8 4.7 2.5.7.3 2.8.1 4.2.1-1 .5-1.9 1-2.9 1.5-.1 0-.1.1-.1.1 9.9-.1 19.9-.2 29.8-.2 4.9 0 9.8.2 14.8.2 3.9 0 7.9-.2 11.8-.2 10.3 0 20.7.2 31 .3.8-.4 1.5-.7 2.3-1.1.7.4 1.3.7 2 1l18.6-.3c1.1.1 2.3.2 3.4.3h76.6c2.7 0 5.3-.2 8-.2 9.7 0 19.3.1 29 .1 6.5 0 12.9-.1 19.4-.1h14.6c6.6 0 13.2-.1 19.8-.1 10.5 0 20.9.1 31.4.1h71.8c.6-.1 1.1-.2 1.7-.3h22c1.1.1 2.3.2 3.4.3l18.6-.3c1.4-.4 2.8-1 4.3 0h11c3-.1 6.1-.3 9.1-.3h50.8c4.2 0 8.4-.1 12.6-.3 1.1 0 2.1-.4 3.1-.6-3.2-.5-6.4-1.1-9.7-1.6-.9-.1-2-.3-2.8-.2-3.1.4-6 1.5-9.6.4-.1 0-.6 0-.8.1-5.5 1.8-12.5-.5-18.1.9-.1 0-.5-.1-.8-.1-3.4-.7-6.9-1.3-10.3-2-.5.5-1.1 1-1.5 1.3-2.7-.2-5.3-.7-7.1-.5-4.1.5-7.6.8-11.5-.2-1.4-.4-4.7-.5-5.7-.2-3.8 1.3-6.1.7-7.5-.1-3.7.1-6.5.2-9.3.3-4.5.2-8.9.5-13.4.6-1.2 0-2.7-.3-3.6-.7-5.9-2.2-4.7-1.9-12.5-.9-.9.7-1.2 1.6-2.3 1.8-2 .4-4.4.3-5.3-.8-.1-.2-2.4-.4-2.6-.3-2.2 1-4.7.5-7.1.3h-16.5c-3.5-1.7-6-1.8-11-.4zm-266.3 2.2h.6s0 .1.1.1h-.6c-.1 0-.1-.1-.1-.1zm302.1-1.5c-.3.1-.5.1-.8.2 0 0-.2-.1-.3-.2.2 0 .4-.1.7-.1.1 0 .3 0 .4.1z"/><path class="st17" d="M355.8 17.3h6.5c-2.2.1-4.4 0-6.5 0z"/><path class="st8" d="M159.3 13c.1.6-.3 1.2-.6 2.2 3.1-.7 5.8-1.2 8.1-1.8 2.5-.7 3.8-.6 5.6.4.9.5 3 .9 4.7 1.1 1.9.3 4.2.2 6.1.5 7.1 1.2 9.1.9 9.5-1.7 2.8-.2 6-.7 8.7-.5 3.7.3 5.9 1.7 10.8 1.7 2.2 0 4.5.3 6.7-.2l-6.3-1.5c-3.3-.8-7.3-1.3-9.7-2.4-2-.9-3.9-1.2-6.3-1-1.2.1-1.9 1-3.3 1.7.6-.1.2 0-.2 0s-1 .1-1.2 0c-4.7-1.3-9.7-.6-14.6-.3-1.1.1-2.2.1-3.3 0-2.6-.2-5.2-.5-7.9-.6-3.4-.2-6.8-.3-10.2-.2-1.1 0-2.1.7-3.2 1.1 2.4.4 6.4-.1 6.6 1.5zM374.4 7.9c-8.3 0-16.5.1-24.8.2-1.5 0-2.9.4-4.3.6 1.2.1 2.7.5 3.6.4 5.2-.7 9.8.1 14.7.4 1.1.1 2.2.1 3.4.1 7.8 0 15.4-1.2 23.3 0 1.6.2 3.9-.1 5.9-.2.1.1.3.2.4.3-.9.1-1.8.3-2.7.4 3.8.4 6.9.7 8.7-.7.3-.2 1.4-.4 2.2-.4 4.4 0 8.8-.1 13.2 0 7.2.2 14.4.5 22 .7.4-.5.7-1.1 1.1-1.6-8.4-.1-16.8-.1-25.2-.2h-41.5z"/><path class="st8" d="M386 14c-1-.2-2-.3-3.3-.5 1.5-.4 2.5-.7 3.8-1-1.5-.2-2.5-.4-3.5-.6.8-.6 1.4-1.1 2.3-1.7H377c5 1.4 5.1 2 1.4 3.5 1 .4 1.9.8 3.1 1.3 1.2-.3 2.8-.7 4.5-1zM149.4 14.1c1.6-.2 3.1-.4 4.7-.6-1.3-.9-2.1-1.5-3-2.1-1.1-.3-2.3-.6-3.4-.9.3.6.5 1.3.8 1.9.3.6.6 1.2.9 1.7zM80.1 7.5c-2.8-.1-4.5.2-5.3 1.2 2.3 0 4.7-.2 7-.1 2.7.1 4.3-.2 4.9-1.1h-6.6zM90.6 8.8c2.5-.1 4.5-.2 6.5-.3.8-.1 1.5-.3 2.3-.4l-9.3-.3c.2.4.4.7.5 1z"/><path class="st17" d="M35.8 13.3c-2-.2-4-.4-5.9-.6 1.6 1.8 2.4 1.8 5.9.6zM84 12.3c.3-.1.6-.2 1-.4-.7-.2-1.4-.5-2.2-.7-.3.1-.6.2-.9.4.7.2 1.4.5 2.1.7z"/><path class="st8" d="M405.6 10.7c0-.1 0-.2.1-.3h-1.8v.3c.5-.1 1.1-.1 1.7 0z"/><path class="st17" d="M77.9 11.7c-.1.1-.2.3-.1.4 0 0 .4.1.6.1.1-.1.2-.2.3-.4 0 0-.5 0-.8-.1z"/><path class="st8" d="M376.7 13.7H375c.3.1.6.3.9.4.2-.2.5-.3.8-.4z"/><path class="st13" d="M290.2 59.3h-8.4c-.9.6-1.8.7-2.7.4-.3-.1-.6-.2-.9-.4-10.7.1-21.3.1-32 .2-.6 0-1.2-.4-1.8-.5h-3.3l-6.9-.3-4.2-.3h-12c-1.1-.1-2.2-.2-3.3-.2-1.1 1-2.6 1.4-5.3 1.2-.4 0-.8-.1-1.2-.1-1.8-.3-4.1-.1-6.2-.2-9.3.7-18.7.3-28 0h-2.5c-2 .1-4 .3-6.1.4-4.4.1-8.8 0-13.2.1-8.7.2-17.3.5-26 .6-6.7.1-13.5-.2-20 .2-9.1.6-18.1.7-27.3.6-8.8-.2-17.7 0-26.5 0-.2 0-.5.1-.9.2.1.2.3.3.4.5.1.2 0 .4 0 .4-17.7-1.9-34.3.3-50.5 1.1L.1 65.8h.8l19.5-.6H28c1.4-.2 2.8-.4 4.3-.6h8.4c.9-.1 1.7-.2 2.6-.3h2.5c.6-.1 1.2-.2 1.7-.3h1.6c2.8-.1 5.7-.2 8.5-.3 13.3-.3 26.6-.6 39.8-.9h7.6c.8.1 1.7.2 2.5.3 2.9-.2 5.7-.5 8.6-.6 11.6-.4 23.3-.7 34.9-1 15.6-.4 31.1-1 46.7-1.1 14.1-.1 28.2.1 42.3.3 2.5 0 5 .1 7.6.2 7.6.2 15.1.5 22.7.7h5c.9.1 1.7.1 2.6.2l23.7.3c.8-.1 1.6-.2 2.4-.2 11.3.5 22.6.9 33.9 1.5 9.6.4 19.2 1 28.8 1.4 7.7.4 15.4.6 23 1 .9 0 1.9.1 2.8.2 2.8.2 5.6.5 8.4.7 1.1-.1 2.2-.2 3.3-.2 3.1-.2 6.3-.7 8.5.6l9.3.3c1.5-.2 2.9-.5 4.4-.6 6.6-.2 13.2-.2 19.8-.4 7-.2 13.9-.6 20.9-.9h2.5c.6-.1 1.1-.2 1.7-.3l11-.3c.3-.1.6-.2.8-.3.7-.7 1.5-1.4 3.4-.3 1.1-.1 2.3-.2 3.4-.3 1.5-.5 3.1-.9 4.6-1.4 0-.1-.1-.3-.1-.4-1.8 0-3.6 0-5.3.1-3.7.4-7.4 1-11.1 0-.7-.2-1.9-.1-2.9 0-6.7.4-13.4.9-20.2 1.2-2.3.1-4.7 0-7.1 0-7.6-.1-15 .2-22.5.7-3.1.2-6.6-.5-10-.8h-8.5c-7.4-.1-14.8-.4-22.2-.2-4.3.1-7.3-.1-11.1-.9-3-.6-7.6-.1-11.5-.2l-13.3-.3c-4.3-.2-8.6-.5-12.9-.6-5.6-.1-11.2.1-16.8-.1-1.9-.1-3.7-.8-5.5-1.2-3.5 0-7.1.1-10.6.1h-3.5c-.6 0-1.2 0-1.8-.1-1.8-.2-3.5-.4-5.3-.6h-2.1zM12.6 63.2c.2 0 .2.1.3.2-.2 0-.6.1-.6.1-.2-.1-.2-.2-.4-.3h.7z"/><path class="st13" d="M40.9 64.5c.9-.1 1.7-.2 2.6-.3H46h-2.5c-.9.1-1.8.2-2.6.3zM401.3 66.7c-2.8-.2-5.6-.5-8.4-.7 2.9.2 5.6.4 8.4.7z"/><path class="st12" d="M586.3 56.8c-1.5.1-3 .1-4.5.2-7.4.5-15.1.3-22.7.4-2.7.1-5.5.4-8.2.6-1.7.2-3.4.5-5.1.6-10.4.2-20.9.4-31.3.7-2.3.1-4.5.6-6.8.7-5.6.2-11.3.2-16.9.4-13.3.4-26.6.4-39.8 1.3-7.7.5-15.7.5-23.5.7-.9.7-1.7.7-2.5 0h-4.2c-1.1.8-2.3.4-3.4 0h-.8c-.3.3-.6.6-.8.9 3.3.3 6.9 1 10 .8 7.5-.5 14.9-.8 22.5-.7 2.4 0 4.8.2 7.1 0 6.8-.4 13.5-.8 20.2-1.2 1-.1 2.3-.1 2.9 0 3.8 1 7.4.4 11.1 0 1.7-.2 3.6-.1 5.3-.1 0 .1.1.3.1.4-1.5.5-3.1.9-4.6 1.4v.3c11.3-.8 22.6-1.6 34-2.3 14-.8 28-1.8 42.1-2.3 14.8-.5 29.8-.8 44.7-1.1v-1.4c-5.2-.2-10.5-.4-15.7-.5-3.2.1-6.2.1-9.2.2z"/><path class="st12" d="M595.3 56.7c5.3 0 10.5.3 15.7.5-5.2-.3-10.5-.5-15.7-.5z"/><path class="st11" d="M600.3 67.9c.6.1 1.3.2 1.9.4 1.3-.2 2.6-.4 4.7-.7-2-.4-3.1-.6-4.1-.8.5-.3.9-.5 1.8-1.1-3.5.2-6.4.2-8.5.6-3.7.7-7.1 1.1-11.1.4-1.2-.2-3 .1-4.5.3-3.4.4-6.7.9-10.1 1.3-2 .2-3.9.5-5.9.7h35.2c.2-.5.4-.8.6-1.1zM483.5 64.5c-.3.1-.6.2-.8.3l4.2-.3h-3.4z"/><path class="st4" d="M599.7 68.9c.8-.2 1.7-.4 2.5-.6-.6-.1-1.3-.2-1.9-.4-.2.3-.4.6-.6 1z"/><path class="st11" d="M486.9 64.5c1.2-.1 2.3-.2 3.4-.3v-.3c-1.1.1-2.3.2-3.4.3v.3z"/><path class="st12" d="M73.6 37.2c1.7.3 4.5-.2 6.8-.2 4.8-.1 9.7-.1 14.6-.2 2.2 0 4.5-.1 6.7-.1 5 0 10.1-.1 15.1-.1.5 0 .9.3 1.4.5 2.6.1 5.7-1.1 7.2.3 11.4-1 22.5.2 33.5 0 3.7-.1 7.4-.2 11-.3h9.3c-1.3-.2-2.6-.6-3.9-.6-4.2-.1-8.4 0-12.7 0-1.6 0-3.2-.2-4.8-.4 0-.2.1-.3.1-.5 9.4.2 18.7.3 29.2.5-1.9.5-2.8.8-3.8 1 0 .1 0 .2.1.3 2.2.1 4.5.1 7 .2.4-1.6 3.4-1.8 7.1-1.7 3.7.1 7.5 0 11.3 0 1.5 0 3 .3 4.4.7-1.2.1-2.5.1-3.8.2v.4h17.4c-.3.6-.6 1.1-.8 1.4-4.4.2-8.6.5-12.8.5-3 0-6-.4-9-.4-5.7-.1-11.5 0-17.2.1-.9 0-1.8.4-2.6.3-.9 0-1.8-.3-2.8-.4h-3.4c-2.5 0-5-.2-7.5 0-1.4.1-2.6.6-3.8.9 1.4.2 2.9.4 5 .7.2.7 1.7 1.1 4.7.8.4 0 .8-.1 1.2 0 1.2 0 2.5.1 3.8.2h9.3c1.5-.1 3-.2 4.5-.2 2.4 0 4.8.3 7.2.3 3.3 0 2.5.8 2.7 1.4h5.9c-1.1-.3-2.3-.6-4-1.1 1.5-.2 2.7-.4 4-.4l24-.3c2.1 0 4.2.2 6.3.2 1.6 0 3.9-.2 4.6-.6.7-.4.5-1.5-.4-1.8-1.3-.4-4.1-.6-5.5-.3-2.4.4-3.2.2-4.5-.8 5 .1 9.5-.9 13.1.5 1.5-.1 2.8-.2 4-.3 2.7-.2 5.7.4 8.1-.5.4-.1 1.9-.1 2.3 0 2.4.9 5.5.5 8.3.6 6.3.1 12.5.2 18.8.1 2 0 4-.3 6.2-.6l-1.4-1.4h-4.2c-1.7 1.1-6 1.1-8.5 0-1.4-.2-2.9-.3-4.8-.5.9-.3 1.6-.5 2.3-.7-5.4-.4-10.9-.8-16.1.3h5.1c2 0 4.7-.4 5.1.9 1.5.1 3 .2 4.5.4 0 .1-.1.3-.1.4h-8.3c1-.3 1.6-.5 2.3-.7h-4.2c-2.7.9-8.3.9-11 0-4.6-.2-.2-1.1-.8-1.5h-25.2c-7.3 0-14.6-.3-21.9-.3-5.4 0-10.8.2-16.3.3-1.9 0-5.2.3-3.6-1.2.1-.4.2-.9.5-1.9-3 .6-5 1.1-7.1 1.4-1.6.2-3.5.4-5.2.4-4.8 0-9.5-.1-14.3-.1h-13.1l-18.3-.3c-5.5-.1-11-.3-16.5-.3-.2 0-.4 0-.6.1-.6.1-1.2.3-1.7.5h1.3c2.1 0 3.5.3 2.7 1.1-.2.2-2.3.3-3.5.3-3.7 0-7.5-.1-11.2-.2-6.5-.1-13-.2-19.5-.1-3 .1-6.9-1-9.1.7 1.1.3 2.2.5 3.6.9h-16c0-.1-.1-.2-.1-.3 1-.1 1.9-.2 3-.4-5.1-.1-10.1-.1-14.8-.5-.8-.1-1.4-.1-1.9-.1-1.4 0-1.6.3-1.6 1 .4.1.7.2 1.1.3-.1 0-.2.1-.3.1-.3-.1-.6-.3-.8-.4-2.3.2-4.5.5-6.8.7.1.2.1.3.2.5 2.4 0 4.9 0 7.3.2 4.6.2 9.2.5 13.8.8 4.2-1.1 8.4-1.5 13.1-.7zm149.6-.6h-6.1v-.5c2 .1 4.1.1 6.1.2.1.1 0 .2 0 .3zm21-.6v.4h-17.5V36h17.5z"/><path class="st12" d="M46 35.2c-2.3.2-4.5.5-6.8.7 2.2-.2 4.5-.4 6.8-.7zM47.6 34.2c-1.4 0-1.6.3-1.6 1 0-.6.1-1 1.6-1z"/><path class="st14" d="M423 22c-.6-.1-1.3-.2-2-.2-8.9.2-17.7.5-26.6.8-1.3 0-2.7-.1-4.1-.3-1.1-.1-2.2-.3-3.3-.3-5.7.1-11.3.4-17 .5-.5 0-1.2.1-1.6 0-5.5-1-11.1-.1-16.6-.1-2.8 0-5.5-.3-8.3-.5-9.9.1-19.7.3-29.6.4-6.3.1-12.5-.1-18.8-.1l.9 1.2h6.8c2.8-1.2 5.7-.4 8.5 0h3.4c.8.1 1.7.2 2.5.3h6.8c2.8.2 5.6.5 8.4.6 6.5.3 13 .4 19.6.6 3.3-.1 6.4-.1 9.7.4 2.5.4 5.9.1 9.7.1-.9.8-1.7 1.6-2.5 2.3 1.5.2 3.1.5 4.6.5 7.7.1 15.5-.1 23.1.2 3.7.2 7 .3 10.5-.1-.5-1.5-3.1-1.2-5.9-1-2.3.2-4.8.2-7.2.2-3.5-.1-7.1-.2-10.6-.4-2.3-.2-4.4-.6-6.2-.9 10-.2 19.9-.5 29.8-.6 7.5 0 15.1.4 22.6.4 5.8 0 11.6-.4 17.4-.6 2.5-.1 5-.1 7.6-.2H472.3c.9-.1 1.8-.2 2.6-.3H491c1.4 0 2.8 0 4.2-.1 1.4-.1 2.9-.2 4.3-.3h.8c.6-.1 1.2-.2 1.7-.3h5c.3-.1.6-.3.8-.4.3.1.6.3.9.4 2.3.1 4.6.3 6.9.3.5 0 1-.4 1.6-.6-6-.2-11.1-1.5-18-1.1-9.1.6-18.6.1-28 .1l-.1-.1 1.2-1.5c-5.8.1-11.6.3-17.5.3-2.4 0-5.6.2-6.3-1.2h-23.1c1 1.5 1.3 2.3-2.4 1.6zm6.5-.2c-.1.1-.3.2-.5.3-.1-.1-.4-.1-.4-.2s.2-.1.4-.2c.2 0 .6.1.5.1zM186.2 26.3l19.2-1.8h5.1c8.3-.3 16.7-.7 25-.9 5.4-.1 10.9 0 16.4-.1 2.2 0 4.3-.3 6.5-.4 1.1-.1 2.2 0 3.3 0 4.4 0 8.8.1 13.2.2h5.9c.9.1 1.7.2 2.6.3.6.1 1.2.2 1.7.3 1.7-.1 3.4-.2 5-.3.8-.4 1.7-.8 2.5-1.2-5.4-.1-10.9-.2-16.3-.2-5.2-.1-10.3-.1-15.5-.2-2.1 0-4.1.1-6.2.1h-11.1c-2 0-3.9-.2-5.9-.2-1.9.1-4 .6-5.7.5-4.8-.3-9.5.4-14.5 0-5.7-.5-11.9-.2-17.9-.1-7.8.2-15.4.3-22.6-1.2-1.5-.3-4.6.5-6.3.2-4.8-.8-9.4-.4-14.1-.2-4 .2-8 .2-11.9.4-5.1.2-10.2.4-15.3.7-1.8.1-3.6.2-5.5.3-2 .1-4 .2-5.9.3h-.8c-1.3.2-2.5.4-3.8.6 1.4.3 2.9.6 4.3.9h.4c4.4 0 8.7-.3 13.1.5 3.2.6 6.9 1.3 11.1.7 1.6-.2 3.8 0 5.8.1.1.2.1.4.2.7-3.1.2-6.1.4-9.9.7.8.4 1.6.8 2.5 1.2l2.7 1.2h1.7c.1-1 .9-1.5 4.4-1.4 3.7.2 7.6-.3 11.4-.2 3 .1 5.8.6 8.7.9 1.2.1 2.3.3 3.5.4 7.6 1.6 15.3.1 22.9 0-2.7-.4-5.4-.7-8.8-1.2-.2-.4-.5-.9-1.1-1.6zM207.9 24.5z"/><path class="st18" d="M342.3 27.9c1.9-3.1 5.7.3 9.3-.3.2-.9.3-1.7.5-2.6-6.5-.2-13.1-.4-19.6-.6-2.8-.1-5.6-.4-8.4-.6-1.7.2-3.4 1.2-5.1 0h-3.4c-.3-.1-.5-.2-.8-.3H290.1c-1.7.1-3.3.2-5 .3l-1 1c0 .2.1.4.1.6.2 0 .5.1.7.1-.3.1-.5.1-.8.2 1.8.5 3.5 1 5.3 1.5-.1.1-.3.2-.4.3l-6.6-.9c-2.8-.1-6.1.6-8.1-.8-.3-.2-3.2 0-4.8.2-2.8.3-4.3 0-4.7-1.1 3.1-.3 6.2-.6 9.2-.9.4 0 .5-.5.7-.8-4.4-.1-8.8-.1-13.2-.2h-3.3c-2.2.1-4.3.4-6.5.4-5.5.1-10.9-.1-16.4.1-8.4.2-16.7.6-25 .9v.9c1.2.7 2.2 1.5 3.6 2.2 1 .4 2.6.7 4 1.1.9-.6 1.6-1.1 2.4-1.7 1.4.4 2.4.7 3.6 1 5.1 1.2 10 .2 14.9-.3.6 0 1-.7 1.1-1 .2-.5 0-1.1 0-1.9 2.1.8 3.6 1.3 5 1.8h.1c.3-.1.6-.3.8-.4.1 0 .2.1.3.1-.4.1-.7.2-1.1.3-1.1.7-1.7 1.6.6 1.8 1.7.2 3.9-.5 6-.8 0 .1.2.5.4 1 2.8-.3 5.3-.5 8.1-.8.3.3.7.8 1.4 1.5 1.7-.7 4.3.2 6-1 .7-.5 5.1-.1 6.3 1 1-.2 1.9-.4 3.2-.7.3.3.7.6 1.1 1 .5 0 1.1 0 1.6-.1.6-.3 1.2-.5 1.9-.8.5.3 1.1.6 1.6.9h1.7c.7-.2 1.6-.5 2.2-.6.2 0 .4-.1.5 0 3 .5 4.9.3 5.2-.9 2.1.3 3.8.6 5.6.8v-1.1c-.6-.2-1.2-.4-1.7-.6-.1-.1-.3-.2-.4-.2.2.1.4.1.6.2.5.2 1.1.4 1.6.6l11 .3c.3-.1.6-.3.8-.4.3.1.6.3.8.4.6 0 1.2-.1 1.7-.1 1.2 0 2.3-.1 3.5-.1 2.9 0 5.7.2 8.4.7.4-.5.8-1 1.2-1.4-1.4-.7-2.8-1.3-4.1-2 .2-.1.5-.2.7-.3.6.1 1.3.1 1.6.2 2.9 1.3 6.8 2.2 10.9 2.9.7.1 1 .5 1.6.7.6 0 1.2.1 1.7.1-.3-.5-.6-1-1-1.8 2.3.7 3.7.9 5 1zm-82.8-1.2c0-.1 0-.1.1-.2h.3c0 .1-.1.1-.1.2h-.3zm13 1c-.2 0-.3-.1-.5-.1.1 0 .1-.1.2-.1.2 0 .3.1.5.2 0-.1-.1-.1-.2 0zM283.4 29.7h1.7-1.7zM336.8 29c.6 0 1.2.1 1.7.1-.5 0-1.1 0-1.7-.1zM314.8 23.5h-3.4 3.4c-.1 0 0 0 0 0zM314.8 23.5z"/><path class="st14" d="M192.9 34.3c5.4 0 10.8-.3 16.3-.3 7.3 0 14.6.2 21.9.3 8.4.1 16.8 0 25.2 0h1.7c.9.2 1.7.4 2.6.6h3.4c5.2-1.1 10.7-.7 16.1-.3 6-.3 11.7-.2 17.6.5 2.3.3 5.4-.5 8.2-.6 8.2-.2 16.6-.7 24.6-.3 6.4.3 12.1-.2 18.1-.4 4.8-.2 9.8-.1 14.6-.2 2-.1 3.9-.4 5.9-.6v-.6c-2.6-.2-5.2-.5-7.8-.5-10 .1-20 .5-30-.1-1.8-.1-3.9.3-5.4.1-3.8-.6-7.8 1-11.4-.3 0 0-.2.1-.3.1-6 1.1-11.9 1.2-18-.1-.2.3-.5.6-.6.8-1.7-.1-3.2-.2-4.7-.2-4.6.1-9.1.1-13.7.4-5.2.3-10.3-.4-15.6-.1-8.5.6-16.6-.3-23.9-1.3-1.6.5-2.9 1.3-4.5 1.4-4.4.2-8.9.1-13.3.1-1.1.1-2.2.4-3.3.3-2 0-4-.2-6-.3-1.8 0-3.7.1-5.5 0-1.9-.1-3.7-.4-5.5-.6-1.1.2-2.3.4-3.4.6-.8.1-1.7.2-2.5.3h-4.2c-1.8 1.6 1.5 1.3 3.4 1.3z"/><path class="st14" d="M199.5 32.2c-1.1.2-2.3.4-3.4.6 1.1-.2 2.2-.4 3.4-.6z"/><path class="st18" d="M515.9 24.7c-2.3 0-4.6-.2-6.9-.3h-6.7c-.6.1-1.2.2-1.7.3h-.8c.4 1 .8 2 1.3 3 2.4-.2 4.2-1 5.5.2 2.3.2 4.5.4 6.8.6-.7-.2-1.3-.4-2-.6v-.4c11.4.1 22.8-.3 34.1.6 1.4 0 2.8 0 4.2-.1.3-.1.6-.2.9-.2 1.4 0 2.8 0 4.3.1 3.9 0 7.9-.1 11.8-.1.4-.3.8-.6 1.1-.9-8.5-1.5-24.7-2.4-41.8-2.4h-4.2c-.9-.1-1.7-.2-2.6-.3h-1.6c-.7.2-1.2.6-1.7.5z"/><path class="st4" d="M492 31.6c-5 .2-10 .8-14.7-.4-.4-.1-1.2.1-1.9.1-2.1.2-4.2.4-6.3.5-7.1.1-14.2.1-21.3.1-7.9 0-15.7-.1-23.6-.1-5.3 0-10.9-.4-16 .1-5.7.5-11 .5-16.5 0-1.6-.2-3.3-.3-4.9-.3-6 .3-11.9.7-17.9 1v.6c5.4 1 11.1.1 16.7.2 10.3.3 20.7.1 31.1.1 8.3-.1 16.5-.5 24.7-.5 6.6 0 13.2.3 19.8.4 3.5.1 7 .1 10.4.1 3.8 0 7.6-.2 11.3-.3 7.5-.1 15-.6 22.4.3v-.9c-2.5-.3-5.1-.6-7.6-.9-1.7-.1-3.7-.2-5.7-.1z"/><path class="st19" d="M459.1 27.5c-4.1.4-3.1-1.3-4.4-2.1-2.5.1-5 .1-7.6.2-5.8.2-11.6.6-17.4.6-7.5 0-15.1-.5-22.6-.4-9.9 0-19.8.4-29.8.6 1.9.3 4 .7 6.2.9 3.5.3 7 .4 10.6.4 2.4 0 4.8 0 7.2-.2 2.8-.2 5.5-.5 5.9 1h1.6c.6-.1 1.2-.2 1.7-.3h1.7l6-.6h4.2c1.6-.2 3.5-1.2 4.3.3h2.5c.9.1 1.7.2 2.6.3 10.2.2 20.5.4 30.7.5 1.3 0 2.7-.1 4-.2-2-.8-3.7-1.4-7.4-1z"/><path class="st19" d="M429.2 27.8c.9.1 1.7.2 2.6.3 10.2.2 20.5.4 30.7.5-10.2-.2-20.5-.3-30.7-.5-.8-.1-1.7-.2-2.6-.3zM426.7 27.8h2.5-2.5zM267.7 28.4c-1.7 1.2-4.4.3-6 1-.6-.7-1.1-1.2-1.4-1.5-2.8.3-5.3.5-8.1.8-.2-.5-.3-1-.4-1-2.1.3-4.3.9-6 .8-2.3-.2-1.6-1.1-.6-1.8h-.1c-1.4-.5-2.8-1-5-1.8 0 .9.1 1.4 0 1.9-.1.4-.6 1-1.1 1-4.9.4-9.8 1.4-14.9.3-1.1-.3-2.2-.6-3.6-1-.8.6-1.5 1-2.4 1.7-1.4-.4-3-.6-4-1.1-1.4-.7-2.4-1.4-3.6-2.2.3.5.6 1 .7 1.5.1.4.3 1-.3 1.2-.7.2-2.6.3-3.3.2-1.8-.5-3.3-1.1-4.9-1.7-.8-.3-1.6-.6-1.9-.7 1.5-.5 3-.9 4.6-1.4-6.4.6-12.7 1.2-19.2 1.8.5.7.9 1.2 1 1.3 3.4.4 6.1.8 8.8 1.2l42.3.6c6.3.1 12.6.5 18.9.5 5.6 0 11.4.5 16.8-.5-1.2-1.3-5.6-1.6-6.3-1.1zM245.2 26.6h-.1.1zM361.8 25.5c-3.3-.5-6.4-.5-9.7-.4-.2.9-.3 1.7-.5 2.6-3.6.6-7.4-2.8-9.3.3-1.4-.2-2.8-.3-4.8-.6.4.7.7 1.3 1 1.8 1.5.1 3 .3 4.5.2 4.8-.2 9.6-.5 14.5-.7 3.8-.2 7.7-.5 11.5-.7.8-.7 1.6-1.4 2.5-2.3-3.8-.1-7.2.2-9.7-.2zM335.3 28.3c-4.1-.8-8-1.6-10.9-2.9-.3-.1-1.1-.2-1.6-.2-.2.1-.5.2-.7.3 1.3.6 2.7 1.3 4.1 2-.3.4-.8.9-1.2 1.4-2.7-.5-5.5-.7-8.4-.7-1.1 0-2.3 0-3.5.1-.6 0-1.2 0-1.7.1-.3.1-.6.3-.8.4-.3-.1-.6-.3-.9-.4l-11-.3v1.1c-1.7-.2-3.5-.5-5.6-.8-.3 1.2-2.1 1.4-5.2.9h-.5c-.6.1-1.5.5-2.2.6 4 0 8 .1 12 .1 3.6 0 7.2-.2 10.8-.2 2.2 0 4.4.2 6.6.2 1.3 0 2.7-.1 4-.2l18.3-.6c-.6-.4-1-.8-1.6-.9zM318.5 29.6l18.3-.6-18.3.6zM324.9 28.8z"/><path class="st19" d="M316.6 28c2.9 0 5.7.2 8.4.7-2.8-.5-5.6-.7-8.4-.7zM285.1 29.7c.7-.2 1.6-.5 2.2-.6-.6.1-1.5.4-2.2.6zM506.4 27.9c-1.3-1.2-3.2-.3-5.5-.2-.4-1-.8-2-1.3-3-1.4.1-2.9.2-4.3.3.7.6 2.3 1.7 1.8 1.9-1.6.5-4 1-6.2 1-3.1 0-6.2-.4-9.3-.6 0 .1.1.2.2.3-5.7.4-6.9-.1-6.8-2.6-.9.1-1.8.2-2.6.3.8 1.1 1.7 2.2 2.5 3.3 4.9 0 9.8.1 14.8 0 2.5 0 4.9-.2 7.3-.3.4-.1.7-.2 1.1-.3.2.1.4.2.6.4 1.3-.1 2.7.2 4.1.3 1.4.1 2.7 0 3.6-.8z"/><path class="st19" d="M498.7 28.4c1.3-.1 2.7.2 4.1.3-1.3-.1-2.8-.4-4.1-.3zM475.1 25.1zM511.3 27.5v.4c.7.2 1.3.4 2 .6 7.4.1 14.9.2 22.3.1 3.3 0 6.6-.3 9.9-.5-11.5-.9-22.9-.5-34.2-.6z"/><path class="st18" d="M466.6 25.4c-.1.3-.1.6-.1.6-2.5.1-4.6.2-6.6.4-.3.1-.6.3-.9.4-.1 0-.2-.1-.3-.1.4-.1.7-.2 1.1-.3-.6-.3-1.1-.6-1.7-.9h-3.3c1.2.8.3 2.6 4.4 2.1 3.7-.4 5.4.2 7.5.9h1.6c.6-.3 1.3-.5 1.9-.8 1.1.4 2.2.7 3.3 1.1h1.6c-.8-1.1-1.7-2.2-2.5-3.3-2.1-.1-4.1-.1-6-.1zM473.4 28.7h1.6-1.6zM458 25.4h-3.3 3.3z"/><path class="st12" d="M161 27.5c-3.8-.1-7.7.4-11.4.2-3.5-.1-4.3.3-4.4 1.4 5.1.1 10.1.1 15.2.2H171c.7 0 1.5-.3 2.2-.5-1.2-.1-2.3-.3-3.5-.4-2.9-.3-5.8-.9-8.7-.9zM219.8 32.8c-.8-.3-1.7-.5-2.5-.8-3.4-1.2-5.6-.9-6.8.8 2 .1 4 .3 6 .3 1.1 0 2.2-.2 3.3-.3zM513 30.8c-.8.2-2.4.1-3.6.2-1.3.1-2.6.4-3.9.6h12.8c-.8-1.2-1.8-2-5.3-.8z"/><path class="st13" d="M93.5 32.5c2.5.1 5.1.2 7.6.3-2.3-1.5-4.6-1.6-7.6-.3zM542.8 30.9c2.3.1 4.5.2 6.8.3-1.6-2-4.3-.7-6.8-.3z"/><path class="st14" d="M418.2 27.6l-6 .6 1.8.3c1.9.2 3.5.3 4.2-.9z"/><path class="st13" d="M554.7 31.2h5.9c-2.7-1.2-3.8-1.2-5.9 0z"/><path class="st14" d="M422.4 27.6c1.4.1 2.9.2 4.3.3-.8-1.5-2.7-.6-4.3-.3z"/><path class="st14" d="M422.4 27.6c1.4.1 2.9.2 4.3.3-1.4-.2-2.9-.2-4.3-.3z"/><path class="st19" d="M470.1 27.6c-.6.3-1.3.5-1.9.8 1.7.1 3.5.2 5.2.3-1.1-.3-2.2-.7-3.3-1.1z"/><path class="st19" d="M468.2 28.4c1.7.1 3.5.2 5.2.3-1.8-.1-3.5-.2-5.2-.3zM274.1 29.4l4.2.3c-.4-.4-.8-.7-1.1-1-1.2.3-2.2.5-3.1.7z"/><path class="st13" d="M574.2 30.9h5.1c-1.7-.9-3.4-.9-5.1 0zM85.5 31.3c-1 .4-2 .7-3.1 1.1h3.4c.2-.3.4-.6.6-.8l-.9-.3z"/><path class="st12" d="M531.7 30.6c-1 .4-1.7.7-2.4 1h4.3c-.2-.4-.4-.7-.8-1.4-.5.1-.8.2-1.1.4z"/><path class="st13" d="M554.7 27.9c-1.4 0-2.8 0-4.3-.1v.3c.7.4 1.3.6 1.9.7 1.1.1 1.8-.2 2.4-.9z"/><path class="st19" d="M279.9 29.6c1.2 0 2.3.1 3.5.1-.5-.3-1.1-.6-1.6-.9-.6.3-1.2.6-1.9.8z"/><path class="st12" d="M193.3 31.8c-.3.1-.6.2-.9.2l1 1c.8-.1 1.7-.2 2.5-.3-.8-.2-1.7-.6-2.6-.9zM522.5 31.5h3.4c-.6-.3-1.1-.5-1.7-.8-.6.3-1.1.6-1.7.8z"/><path class="st13" d="M564 31.2c.6-.1 1.1-.2 1.7-.3-.3-.1-.7-.3-1-.4-.2.3-.4.5-.7.7z"/><path class="st12" d="M128.3 31.6s.2 0 .3-.1c-.1-.1-.2-.1-.4-.2-.1 0-.2 0-.3.1.1.1.2.2.4.2z"/><path class="st12" d="M128.2 31.4c.1.1.2.1.4.2-.2-.1-.3-.1-.4-.2z"/><path class="st18" d="M498.1 28c-.4.1-.7.2-1.1.3h1.6c-.1 0-.3-.1-.5-.3zM497.1 28.4h1.6-1.6z"/><path class="st19" d="M549.6 28.1c.3 0 .6.1.9.1v-.3c-.3 0-.6.1-.9.2z"/><path class="st12" d="M597.5 19.7c-1.9-.1-3.8-.2-5.6-.1-3.6 0-7.1.2-10.6.2-2.6 0-5.2-.2-7.7-.3-2.1 0-4.2.3-6.3.2-2.6-.1-6.1 0-6-1.2 3.4-.3 6.3-.6 9.2-.7 2.2-.1 4.4 0 6.6.1 1.9.1 3.9.4 5.7.3 5.9-.2 11.8-.6 17.7-.9v-.6c-2.1-.1-4.1-.3-6.2-.3h-18.1c-2.4 0-4.8.2-7.2.1-1.2 0-2.3-.5-3.4-.7H564c-1 .2-2 .5-3.1.6-4.2.2-8.4.3-12.6.3h-50.8c-3 0-6.1.2-9.1.3l-5.1.9c4.6 1.2 9.5.6 14.3.3 1.8-.1 3.6-.1 5.4-.1 1 0 2 .1 2.9.1 8.4 0 16.8-.1 25.2-.1 2.6 0 5.2.3 8.8.6-3.6.9-6 1.6-9.6 1-.6-.1-1.5-.2-2-.1-7.7 1-15.5.1-23.3.3-4 .1-8 .5-12.1.7-1.5.1-3 .2-4.4.2-6.5 0-13.1 0-19.6.1h-3.7c-5.5 0-11.1-.1-16.6-.1.7 1.4 3.9 1.2 6.3 1.2 5.8 0 11.6-.2 17.5-.3 2.2.1 4.5.2 6.7.2 7.4 0 14.8-.1 22.3-.2 7.3-.1 14.5-.2 21.8-.2 2.2 0 4.5.2 6.7.2 2 0 4.1-.2 6.1-.2 2.2 0 4.5.2 6.7.2 15.3-.1 30.5-.4 45.8-.4 7.5 0 15 .1 22.5.2v-1.6c-3.8 0-7.6.1-11.4.1-.7-.2-1.4-.3-2.1-.3zM565.7 15.8h-1.6 1.6z"/><path class="st13" d="M580.2 5.6c-1.3-.1-2.7-.3-4-.3-11.1 0-22.1.1-33.2.1-16.5.1-32.9.1-49.4.2-1.7 0-3.3-.2-5-.3-.1.9-1.1 1.2-2.7 1.1-.5 0-1.2-.1-1.9-.1-1.8-.2-3.8-.2-5.7-.2-3.4.1-6.7.3-10 .4-2 .4-5.8-.4-5.9 1.2 4.3-.1 8.5-.2 12.8-.1 7.3 0 14.5.1 21.8.2 3.1 0 6.2.3 9.3.2l25.5-.3c.6 0 1.3.2 1.9.3h15.2c2.1-.1 4.1-.3 6.2-.3 6.3 0 12.7-.1 19 0 2.1 0 4.1.6 6.2.9l14.4-.6c-1.5-.2-3.1-.4-4.5-.6-1.1-.2-2.1-.6-3.1-.9-2.5-.2-6.3 1-6.9-.9z"/><path class="st9" d="M608 8.4H602.2l-.9-.3h-5.9c-.2 0-.4.1-.6.1-.1 0-.2 0-.3-.1l-14.4.6c-.6.1-1.2.2-1.7.3 0 .3-.1.6-.1.9 0 .1 0 .2.1.3 2.9.5 6.9.1 8.5 1.5h1.6c1.2-.8 2.3-.8 3.4 0 3 0 5.9.1 8.9 0l10.1-.3V8.6c-.9-.1-1.9-.1-2.9-.2z"/><path class="st9" d="M608 8.4c1 .1 2 .1 3 .2-1-.1-2-.1-3-.2z"/><path class="st14" d="M600.5 17.4c.8.1 1.7.2 2.5.3 2.6-.2 5.5-1 6.8.6h1.2v-1.5h-10.5v.6z"/><path class="st12" d="M548.8 8.1h-15.2c-2.6.3-5.2.5-7.8.8v.5c12.7.7 25.4 1.1 38.3 1.2.9.1 1.7.2 2.6.3h1.7c-4.2-1.2-8.5-2.4-14.2-2.5-1.9 0-3.7-.2-5.4-.3z"/><path class="st17" d="M603.5 15c-1.9 1-3.8.6-5.9.5-1.9-.1-3.7-.4-5.6-.4-5.8 0-11.4 1.2-17.3.2-.2 0-.5.1-.8.1-2.7.2-5.4.3-8.2.5 1.1.3 2.2.7 3.4.7 2.4.1 4.8-.1 7.2-.1h18.1c2.1 0 4.1.2 6.2.3h10.5v-.9c-2.3-1.2-6.1-1.7-7.6-.9zM573.9 15.3c-2.7.2-5.5.3-8.2.5 2.7-.1 5.4-.3 8.2-.5zM554.9 7.8c-2.1 0-4.1.2-6.2.3 1.8.1 3.5.3 5.3.3 5.7.1 10 1.2 14.2 2.5l5.1-.6 5.1-1.2c.6-.1 1.1-.2 1.7-.3-2.1-.3-4.1-.8-6.2-.9-6.3-.2-12.6-.1-19-.1z"/><path class="st13" d="M578.5 11.2c2.8.2 5.6.4 8.5.6-1.6-1.4-5.7-1-8.5-1.5v.9z"/><path class="st13" d="M578.5 11.2c2.8.2 5.6.4 8.5.6-2.8-.2-5.7-.4-8.5-.6z"/><path class="st17" d="M578.5 11.2c0-.3 0-.6-.1-.9 0-.1 0-.2-.1-.3l-3.3.3c1.2.2 2.4.6 3.5.9z"/><path class="st17" d="M575.1 10.2c1.2.3 2.3.6 3.4.9-1.1-.2-2.3-.6-3.4-.9z"/><path class="st13" d="M575.1 10.2l3.3-.3c0-.3.1-.6.1-.9l-5.1 1.2h1.7zM588.6 11.8h3.4c-1.1-.8-2.2-.8-3.4 0z"/><path class="st4" d="M270.3 48.5c-1.3 0-2.6-.4-3.9-.6h-1.7c-1.2.2-2.4.5-3.6.7-.2-.2-.3-.4-.5-.6 1.4 0 2.8-.1 4.1-.1-.8-.1-1.6-.4-2.3-.5h-.3c-.3 0-.6-.1-.8 0-5.9.2-11.8.5-17.7.8-1.2.1-2.5 0-3.7 0-1.8-.1-3.5-.2-5.7-.3-1.6-.2-3.8-.5-5.9-.7-.1.1-.2.3-.4.4 1 .1 2.1.2 3.1.4-.1.1-.1.2-.2.4h-32.9c-5.2.1-10.3.2-15.5.1-.8 0-1.6-.7-2.3-1-19.7 0-39.4-.1-59.1 0-4.6 0-9.2.6-13.9.9 2.5.3 5 .9 7.6.9 9.5 0 19-.2 28.6-.2 3.2 0 6.4.2 9.7.2 7.3 0 14.5-.1 21.8-.1 7 0 14 .2 21.1.2h15.6c-2 1.5.5 1.8 2.9 1.8 4.9 0 9.8-.1 14.7-.2 9-.1 18.1-.6 26.7 1 1.6.3 4 .5 5.7.3 4.4-.4 8.5-1.1 12.5-1.6 1.8.2 4.1.9 5.4.7 1.6-.2 2.2-1.2 2.8-1.6 3.3.2 6.1.4 8.8.4 1.6 0 3.2-.5 4.8-.4 6.2 0 12.2.4 17.3 1.7 5.6-1.8 7.6-1.8 9.3-.3-1.7.5-3.3.9-4.9 1.3.2.1.4.3.6.4 3.9-.2 7.7-.3 11-.5-1.8-1.3-3.3-2.3-4.8-3.3h-3c-17.1-.4-34-.5-51-.6zm-94.5-.4c.3-.1.4-.1.6-.1.2 0 .5 0 .7.1-.1.1-.3.2-.4.2-.2-.1-.5-.2-.9-.2zm102.7 2.1h-.3V50h.3c-.1 0 0 .1 0 .2zM261.3 47.3h.8-.8zM264.7 47.9z"/><path class="st4" d="M264.7 47.9c-.8-.1-1.6-.4-2.3-.5.8.1 1.6.4 2.3.5zM238.7 55c6.1.5 12.9.1 19.6.1-.4-.6-.8-1.2-1.2-1.7-12.7-.4-25.3-.8-38.3-1.3.2 1.4-2.2 1.3-5.2 1.1-2.7-.1-5.5.1-8.2.1 1.2.2 2.3.5 3.5.5 9.9.5 19.9.4 29.8 1.2zm-17.5-1.9h.6s0 .1.1.1h-.6c-.1 0-.1-.1-.1-.1z"/><path class="st19" d="M140.1 53.1c-5.2-1.2-10.6-1-16.1-.3 2.6 1.5 12.7 1.7 16.1.3z"/><path class="st4" d="M265.7 54.8c.1.2.3.3.5.5 1.8-.1 3.6-.2 5.3-.3 0-1 1.8-1.2 4.2-1.3 1.7 0 3.3-.3 5-.5l-.3-.6c-4.1 0-8.3-.8-12.2.5.7.1 1.3.2 2.4.3-2 .6-3.4 1-4.9 1.4zM96.9 47.9c-2.3.1-4.5.2-6.8.3.1 1 2.1.9 3.9.9 1.9 0 4-.1 5.8.1 2.9.3 4.6 0 5.6-1H102l-5.1-.3z"/><path class="st4" d="M96.9 47.9c-2.3.1-4.5.2-6.8.3 2.3-.1 4.5-.2 6.8-.3zM303.3 52.8c-2.4.1-4.4.2-6.5.4 5.2 1 5.2 1 6.5-.4zM312.1 53.6c0-.1.1-.3.1-.4h-6v.4h5.9zM289.9 53c-.1.2-.2.4-.2.6 1.3 0 2.6.1 3.9.1 0-.1.1-.3.1-.4-1.3-.1-2.5-.2-3.8-.3zM273.2 55h4.2c-1.4-.8-2.8-.5-4.2 0zM494.4 52.4c-.4 0-.7.2-1 .4.4.1.8.3 1.3.3.4 0 .8-.2 1.6-.4-1-.2-1.5-.3-1.9-.3zM503.1 53c.1 0 .2-.1.2-.1-.1-.1-.3-.1-.4-.1-.1 0-.1.1-.2.1.1 0 .3 0 .4.1z"/><path class="st13" d="M456 18h-63c-1.8 0-3.5.2-5.3.3 5.8.2 11.5.6 17.3.7 2.9 0 4.5.2 5.4 1.6-5.1-.2-9.6-.5-14.1-.7-1.9-.1-4.4-.2-5.5.1-4.5 1.5-9.8.9-14.8.9-5.9 0-11.8.4-17.6-.3-3.6-.4-7.9.5-11.2-.8-.3-.1-2.7.2-3.1.6-.6.4-.3 1-.3 1.5 2.8.2 5.5.4 8.3.5 5.5.1 11.1-.8 16.6.1.4.1 1.1 0 1.6 0 5.7-.2 11.3-.4 17-.5 1.1 0 2.2.2 3.3.3 1.4.1 2.8.3 4.1.3 8.9-.2 17.7-.5 26.6-.8.6 0 1.4.1 2 .2 3.8.7 3.5-.1 2.7-1.3h23.1c5.5 0 11.1.1 16.6.1h3.7c6.5 0 13.1 0 19.6-.1 1.5 0 3-.1 4.4-.2 4-.2 8-.6 12.1-.7 7.7-.2 15.6.7 23.3-.3.6-.1 1.4 0 2 .1 3.5.6 6-.1 9.6-1-3.6-.3-6.2-.6-8.8-.6-8.4 0-16.8.1-25.2.1-1 0-2-.1-2.9-.1-1.8 0-3.6 0-5.4.1-4.8.3-9.7 1-14.3-.3-6.8-.1-13.6-.2-20.4-.2-2.7.1-5 .4-7.4.4z"/><path class="st14" d="M130.8 17.7l-31-.3c-3.9 0-7.9.2-11.8.2-4.9 0-9.8-.2-14.8-.2-9.9 0-19.9.2-29.8.2-3.9 0-7.9 0-11.8.1.9.3 1.8.7 2.8.7 5.7.2 11.1-.4 17.2.7 5.1.9 13.2.6 19-.2 11.1-1.4 22.2-.3 33.2-.5 3.2-.1 6.5-.1 9.8-.2 4-.1 8.1-.2 12.2-.1 9.2.1 18.3.4 27.9.6v-1.3l-18.6.3c-1.5-.1-2.9 0-4.3 0z"/><path class="st14" d="M43.4 17.6c-3.9 0-7.9 0-11.8.1 4 0 7.9-.1 11.8-.1zM130.8 17.7l-31-.3c10.3 0 20.6.2 31 .3zM480.9 17h-7.6l-18.6.3c-1.1-.1-2.3-.2-3.4-.3h-22c-.6.1-1.2.2-1.7.3h-65.3c.9.2 1.7.5 2.6.6 5.6.2 11.2.2 16.8.3h6c1.8-.1 3.5-.3 5.3-.3h63c2.4 0 4.8-.2 7.1-.2 6.8 0 13.6.1 20.4.2l5.1-.9h-7.7z"/><path class="st14" d="M362.3 17.4h65.3c-21.8-.1-43.6 0-65.3 0zM157.1 17.7c1 .2 2 .6 3 .6 6.1.1 12.2 0 18.4.1 6.5.1 13 .3 19.6.4 1.8 0 3.2-.2 1.5-1h-7.5c-11.8-.1-23.4-.1-35-.1z"/><path class="st19" d="M296.1 23.5l-.9-1.2h-2.5c-.8.4-1.7.8-2.5 1.2h5.9zM296.1 23.5l-.9-1.2.9 1.2z"/><path class="st13" d="M386.8 18.3h-5.1c1.7.7 3.4 1 5.1 0z"/><path class="st12" d="M111.9 21.5h.3v-.2h-.3v.2zM453.2 3.5c3.3.3 6.9.2 10.4.3 5.3.1 10.6.4 15.9.4 1.9 0 3.8-.3 5.7-.4 1.4-.3 2.8-.9 4.2 0h3.4c.4-.4.8-.7 1.4-1.3 2 .5 3.7.9 5.3 1.3h1.7c.9-.4 1.7-.7 2.6-1.1 1.1.4 2.2.7 3.3 1.1h4.2c.6-.5 1.1-1 1.7-1.6-3.9-.1-7.9-.2-11.9-.3l-29-.3c-11.9-.1-23.9.1-35.8 0-12.4-.1-24.7-.9-37.2-.3-6.6.3-13.3.2-20 .3-2.7 0-4.2.5-4.2 1.5h3.4c1.7-.3 3.4-.5 5.4-.8.1.2.3.5.5.8l43.2.6c8.7-.7 17.1-1 25.8-.2z"/><path class="st8" d="M488.6 5.3c1.7.1 3.3.3 5 .3 16.5 0 32.9-.1 49.4-.2 11.1 0 22.1-.1 33.2-.1 1.3 0 2.7.2 4 .3 1.1-.3 2.3-.6 3.4-.9-3.7 0-6.8-.2-10.2-1-2.3-.6-6.4-.1-9.7-.2-3.8-.1-7.7-.3-11.5-.4-1.5 0-3 .1-4.9.1.3.4.6.7.8 1h-14.7l1.2-.9c-1-.1-1.9-.1-2.8-.2h-4.3c-5.4.2-10.7.4-16.1.6h-26.2c-1.9.1-3.8.4-5.7.4-5.3-.1-10.6-.3-15.9-.4-3.5-.1-7.1 0-10.4-.3-8.7-.8-17.2-.4-25.7.3v.9c2.6-.2 5.1-.4 7.7-.6l33.6.9c6.6.2 13.2.3 19.8.4z"/><path class="st12" d="M75.7 1.6h1.7c.3-.5.6-1.1.9-1.6h-4.7c2.3.9 2.3 1.1 2.1 1.6zM153.8.3c1.2 0 2.4-.1 3.2-.3h-27.6c8 .8 16.3 0 24.4.3zM118 0H83.1c1.9 0 3.8.1 5.7.1 9.8.3 19.5.7 29.2-.1z"/><path class="st7" d="M378.4 3.2h5.9c-.2-.3-.4-.6-.5-.8-2 .2-3.7.5-5.4.8z"/><path class="st9" d="M484 6.3c.7.1 1.3.1 1.9.1 1.6 0 2.6-.2 2.7-1.1L468.8 5l-33.6-.9v1.8h28.7c1.4 0 2.9.4 4.3.6 3.3-.1 6.7-.3 10-.4 2 0 4 .1 5.8.2z"/><path class="st14" d="M520.4 23.7c-.4.2-.9.3-1.3.5.9.1 1.7.2 2.6.3-.5-.3-.9-.5-1.3-.8zM525 24.1c-.3.1-.6.3-.9.4h1.7c-.2-.2-.5-.3-.8-.4z"/><path class="st9" d="M319.4 61.1c5.6.2 11.2 0 16.8.1 4.3.1 8.6.5 12.9.6 4.4.2 8.9.3 13.3.3 3.9.1 8.5-.5 11.5.2 3.8.8 6.9 1 11.1.9 7.3-.2 14.8.1 22.2.2 2.3-.6 4.5-.8 6.8 0h1.7c.3-.3.6-.6.8-.9-7.4-.2-14.7-.4-22.1-.5-5.9-.1-12 .6-17.7-.4-1.2-.2-2.6-.5-3.9-.5-5.5 0-11 .2-16.5.2-3.3 0-6.7-.1-10-.2-9.7-.4-19.5-.8-29.2-1.2-1 0-2.1.2-3.2.3 1.8.1 3.6.8 5.5.9z"/><path class="st6" d="M288.4 57.7zM269.8 58.1c-4.4 0-8.9 0-13.3-.1-.4 0-.7 0-1.1.1-.2 0-.5 0-.7.1.2 1-1.3 1-3.4.8-2.2-.2-4.6-.9-6.8.1.6.2 1.2.5 1.8.5 10.7 0 21.4-.1 32-.2H292.7c-.6-.4-1-.8-1.8-1.1-.6-.2-1.6-.3-2.5-.5-6.2 0-12.4.1-18.6.3zM288.4 57.7c.8.2 1.9.3 2.5.5-.6-.2-1.7-.3-2.5-.5zM288.4 57.7zM288.4 57.7l-18.6.3 18.6-.3zM288.4 57.7zM415.7 59.3c-2-1-4.4-.7-6.8-.3.5.3 1 .5 1.5.5 1.7.3 3.5-.1 5.3-.2z"/><path class="st6" d="M410.4 59.6c1.6.3 3.5-.2 5.2-.3-1.7.1-3.5.5-5.2.3zM308.8 57.5h-8.5c2.9.9 5.7.9 8.5 0z"/><path class="st9" d="M420.8 62.4h-3.4c1.1.4 2.2.8 3.4 0zM427.5 62.4H425c.8.7 1.7.7 2.5 0z"/><path class="st14" d="M130.1 27.5c3.5.4 5.1-.1 6.1-1.3-2.5-.3-4.7-.5-7.5-.8-.4.9-2.2 1.7 1.4 2.1z"/><path class="st12" d="M591.5 35.1c-7.1-.2-7.1-.2-7.1-2.9h-28.8c.4.5.7 1 1.3 1.8-3.9.3-7.8.7-11.8 1.1 1 .4 1.9.8 2.9 1.2h8.5c11-.1 22.1-.2 33.1-.2 7.1 0 14.3.1 21.4.1v-.8c-1.2 0-2.4-.1-3.7-.1-5.2-.2-10.5-.1-15.8-.2z"/><path class="st11" d="M556.4 36.2v.9h.8c7.3-.1 14.5-.4 21.6.5.8.1 1.7.1 2.5.1 5.4-.1 10.7-.1 16.1-.2.3 0 .6.2 1 .6-2.4 0-4.9 0-7.3.1-2.6.1-5.1.4-7.6.7.6.2 1.1.4 1.7.6 1.9 0 3.8 0 5.7.1 1.3.1 2.5.4 3.7.6 5.6.3 11.1.3 16.4-.3v-.6h-11.5c0-.1 0-.3-.1-.4 3.9-.1 7.7-.1 11.6-.2v-2.6c-7.1 0-14.3-.2-21.4-.1-11.1 0-22.1.1-33.2.2z"/><path class="st12" d="M600.5 32.2h-11c-1.1.5-2.2 1-3.4 1.5H611v-.4c-1.9-.1-3.7-.1-5.6-.3-1.7-.3-3.2-.6-4.9-.8z"/><path class="st6" d="M206.2 56.5h2.4c1.2-.3 2.3-.6 3.5-.9-4.7-.1-9.5-.3-14.2-.3-5.8 0-11.5.3-17.3.2-7.5 0-14.9-.2-22.4-.3-2.2 0-4.3.1-6.5.1-8.3 0-16.7-.1-25-.1-7.7 0-15.4 0-23.1.1-5.7.1-11.3.3-17 .5-2.8.2-5.7.4-8.5.6 3.4.3 6.8.8 10.2.8 7.7.1 15.4-.1 23.1-.2 5.2-.1 10.3-.3 15.5-.5 5.1-.1 10.1-.3 15.2-.3 6.2 0 12.5.2 18.7.2 13.4 0 26.9-.1 40.4-.1h1.6c1.2.2 2.3.2 3.4.2z"/><path class="st6" d="M78.2 56.5c2.8-.2 5.7-.4 8.5-.6-2.9.2-5.7.4-8.5.6z"/><path class="st12" d="M202 59v-.9c-2 .1-3.9.2-5.9.3h-9.2c-3.7 0-7.5-.1-11.2-.1-.6 0-1.1.5-1.7.7 9.3.3 18.7.7 28 0z"/><path class="st6" d="M31.6 57.4c4.1.1 8.4.4 12.5.2 2.7-.1 5.2-.7 7.9-1.1l-22.1.3c.6.2 1.1.6 1.7.6z"/><path class="st19" d="M209.7 57.8c-.3-.4-.7-.8-1-1.2h-2.4c-1.1.8-2.3.8-3.4 0h-1.6c-2 .3-4 .7-6 1 .3.3.6.6.9.8 2-.1 3.9-.2 5.9-.3 2.4-.1 5-.2 7.6-.3zM208.7 56.5h-2.4 2.4z"/><path class="st6" d="M75.7 56.6h-3.5c.3.2.6.3.9.4.9.3 1.7.1 2.6-.4zM66.4 56.6h-2.6c.1.1.2.2.3.2.7.4 1.5.4 2.3-.2zM58.7 56.5h-2.6c.9.8 1.8.8 2.6 0z"/><path class="st10" d="M508.1 43.9c-6 0-11.9 0-17.9-.1-2 0-4-.5-6-.8-16.7.1-33.4.2-50.2.2h-62.6l-5.1.3-15.2-.3h-14.3c-.3.1-.6.1-.8.2H244.3c-6.5-.1-12.9-.1-19.4-.2-.4.1-.7.2-1.1.4-.2-.1-.4-.2-.7-.4h-79.9c-7.6 0-15.1-.2-22.7-.3h-7.6c.1.2.2.4.2.5 0 1-1.9 1.4-4.3 1.8-.4.1-.8.1-1.2.2.9.2 1.6.3 2.4.3 10.3.1 20.7.3 31 .3 12.1.1 24.3 0 36.5 0 1.9 0 3.9.2 5.8.3 5.4-.1 10.8-.2 16.1-.3l57.9.3c3.5 0 7-.3 10.5-.3 13.5.1 27 .5 40.5.5 15.2 0 30.4-.2 45.5-.3l70.2-.3h35.2c4.9 0 9.8-.2 14.6-.2 10.3-.1 20.5-.1 30.8-.1 2.8-.1 5.7-.2 8.5-.3v-1.6h-3.4c-.5.2-1 .2-1.6.2z"/><path class="st10" d="M113.2 43.5c0 1-1.9 1.4-4.3 1.8 2.4-.4 4.3-.8 4.3-1.8z"/><path class="st9" d="M98.8 43.6c-.1 0-.2 0-.3-.1v-.2c-2.8-.1-5.7-.2-8.5-.3-.5.1-1 .2-1.6.3-15.6.2-31.1.2-46.7-.3h-9.4c-2.5 2.4-.5 3.3 6.8 3 1.4-.1 2.8-.2 4.2-.2 10.9 0 21.7.2 32.6.2 3.9 0 7.8-.2 11.6-.2 4.1.1 8.2.4 12.4.5 1.1 0 2.5-.2 3.3-.5 1.9-.7 3.6-1.4 5.5-2.2-.1-.1-.5-.4-.8-.7-2.8.2-5.7.4-8.5.6-.2.1-.4.1-.6.1zM182.3 48.3c5.1 0 10.3-.1 15.5-.1 1.9-.7 3.2-.7 4.2 0h3.4c.7-.9-.9-1.1-2.9-1.2-1.2-.1-2-.6-3.1-.9l-16.1.3c-1.1.3-2.2.6-3.4.9.8.3 1.6 1 2.4 1zm3.3-1.4c.1 0 .2 0 .3-.1.1.1.2.1.4.2-.1 0-.3.1-.3.1-.2-.1-.3-.1-.4-.2z"/><path class="st4" d="M120.6 42.9v-.6l-7.8-.3c-.8-.1-1.7-.3-2.3-.5-4.5-1.9-13-1.5-16.2.9 1.4.1 2.9.2 4.3.4.1 0 0 .4-.1.6v.2h.8c2.8-.2 5.7-.4 8.5-.6h5.1c2.6 0 5.2 0 7.7-.1zm-20.5-.9v-.4h8v.4h-8z"/><path class="st9" d="M100.5 47.1c-4.6-.1-9.2-.1-13.8-.1v.4c3.4.2 6.7.3 10.1.5l5.1.3c-.4-.4-.9-1.1-1.4-1.1z"/><path class="st12" d="M603.1 17.7c2.3.2 4.5.4 6.8.6-1.4-1.6-4.3-.9-6.8-.6z"/><path class="st9" d="M110.5 41.5c.6.2 1.5.5 2.3.5 2.6.2 5.2.2 7.8.3l45 .3c.1-.2.3-.3.5-.4.9-.5 2.3-.5 3.7-.5 1 0 2.1.1 3 0 1.1-.1 2.5.5 3.8.8h7.6v-.9c-.8-.2-1.7-.4-2.5-.6-1.2 0-2.6-.2-3.8-.2h-1.2c-3 .3-4.5-.1-4.7-.8-2.2-.3-3.6-.5-5-.7 1.3-.3 2.5-.8 3.8-.9 2.4-.1 5 0 7.5 0-1.3-.9-3.1-1.2-5.9-.8-.5.1-1.7-.5-2.6-.7-3.7.1-7.4.2-11 .3-.5.3-1 .8-1.5.8-6.2-.1-12.3-.4-18.4-.4-4.2 0-8.3.5-12.5.6-3.1 0-7.2.5-8.3-1.3-.5-.2-.9-.5-1.4-.5-5 0-10.1 0-15.1.1-2.2 0-4.5.1-6.7.1-4.8.1-9.7.1-14.6.2-2.3 0-5.1.6-6.8.2-4.7-.9-8.8-.4-13.1.2-2.8.2-5.7.5-8.5.6-6 .1-12.1-.5-17.8.7-.8.4-1.5.8-2.8 1.4 2.1 0 3.4.1 4.7.1 2.4 0 4.8-.1 7.2-.1 3.6.1 7.4.6 10.6.2 3.5-.3 5.8-.2 8.1.7.1.2.5.2.8.2 6.1-.1 12.3-.4 18.4-.3 3.6.1 7.3-1.3 10.4-.1-1.1.5-2.2 1-3.2 1.4 2 .1 4 .2 6 .2 3.3-2.2 11.7-2.7 16.2-.7zm56.9-1.1c-.1.2-.1.5-.2.7-2.1 0-4.2-.1-6.3-.1 0-.2.1-.5.1-.7 2.1 0 4.2.1 6.4.1z"/><path class="st9" d="M158.8 37.4c3.7-.1 7.4-.2 11-.3-3.7.1-7.4.2-11 .3z"/><path class="st12" d="M1.4 66.1c3 .7 15.7.4 18.4-.3.4-.1.5-.4.7-.5L1 65.9c.1 0 .2.1.4.2z"/><path class="st6" d="M97.7 62.7v.6h7.6v-.6h-7.6zM105.3 62.7h-7.6 7.6z"/><path class="st12" d="M49.4 63.9c1.1.1 2.2.3 3.3.3h1.1c1.4 0 2.8-.1 4.1-.7-2.8.2-5.7.3-8.5.4zM53.8 64.3h-1.1 1.1z"/><path class="st9" d="M595.1 2c-3.5 0-7.1.2-10.7.2l-4.8.9c1.3.5 2.6 1.1 3.8 1.6-1.1.3-2.3.6-3.4.9.6 1.9 4.4.7 6.8.9 5.6.3 11.2.5 16.8.2v-.4h-9.5V6h16.7V2.4c-4.1-.1-8.2-.3-12.4-.3-.9-.1-2.1-.1-3.3-.1z"/><path class="st8" d="M606.6 8.4c-1.5-.1-2.9-.2-4.4-.3v.3h4.4z"/><path class="st13" d="M602.2 8.1h-.9l.9.3v-.3zM595.4 8.1h-.9c.1 0 .2.1.3.1.2 0 .4-.1.6-.1zM544.5 33.2c-.9-.1-1.9-.2-2.8-.1-5.5.1-11.1.3-16.6.4-.6 0-1.3-.1-2-.2-3.2-.4-6.2-.6-9.7-.1-2.4.3-5.3.1-7.9.2-7.4-.9-14.9-.5-22.4-.3-3.8.1-7.6.2-11.3.3-3.5 0-7 0-10.4-.1-6.6-.1-13.2-.5-19.8-.4-8.3 0-16.5.4-24.7.5-10.4.1-20.8.2-31.1-.1-5.6-.1-11.2.7-16.7-.2-2 .2-3.9.5-5.9.6-4.9.1-9.8.1-14.6.2-6 .2-11.7.7-18.1.4-8-.4-16.4.1-24.6.3-2.8.1-5.9.9-8.2.6-5.9-.7-11.7-.7-17.6-.5-.7.2-1.3.4-2.3.7 1.9.2 3.4.4 4.8.5h12.7c2.7.2 5.5.4 8.2.6-.1-.1-.1-.2-.2-.3 3.8-.2 7.5-.5 11.3-.6 8.3-.1 16.6 0 24.8 0 2 0 3.9-.2 5.9-.2 1.5 0 3.1.1 4.7.1.1.2.2.3.3.5-1.6.4-3.3.7-5.5 1.2h12.7c-.5-.4-1-.9-1.7-1.5 1.4-.2 2.7-.4 3.9-.4 10.5-.1 21-.3 31.4-.3 7.2 0 14.5 0 21.7.1 2.4 0 4.7.5 7 .8 2-1.2 2.6-1.2 5.4.2-2-.1-3.7-.1-5.4-.2-.3 1.2 1.9 1.2 4.4 1.2 3.6 0 7.2.1 11.2.2 1.3-1 3.6-1 6.9-.5 2 .3 4.7.1 7 .2h13.4c-.7-.6-1.4-1.2-2.5-2.1 1.7.2 3 .3 3.2.5 2 2.2 7.2 1.8 11.6 1.8 4.8.1 9.6-.1 14.3-.3 1.4 0 2.8-.4 4.2-.7-.1-.2-.3-.4-.4-.6h-13v-.7h29.6c4.8-.2 9.6-.5 14.5-.6 3.5 0 3.9 1.1 4.2 2.1h1.7c-.1-.4-.2-.8-.4-1.3 1.6-.3 3.2-.5 5.2-.8.7.6 1.3 1.2 2 1.8h8.5c.2 0 .4-.1.6-.1.1 0 .2 0 .3.1h1.7c-.9-.4-1.8-.8-2.9-1.2 4-.4 7.9-.7 11.8-1.1-.6-.8-.9-1.3-1.3-1.8h-5.1c-1 1.3-3.1 1.5-6 1.2z"/><path class="st12" d="M513.4 33.2c3.5-.5 6.5-.3 9.7.1.6.1 1.3.2 2 .2 5.5-.1 11.1-.3 16.6-.4.9 0 1.9 0 2.8.1 2.9.3 4.9.1 6-1h-36.1c-3 0-5.9.2-8.9.3v.9c2.7-.1 5.6.1 7.9-.2z"/><path class="st13" d="M599.6 1c-.4.1-1.5 0-1.9-.1-2.1-.8-3.7-.6-5.6.1-.6.2-2.6 0-3.9-.1-1.6-.1-3.1-.4-4.7-.6-1.8.2-3.7.4-5.5.6-1.8.2-3.7.4-5.5.6 4 .2 7.9.4 11.9.6 3.6.1 7.2-.1 10.7-.1h3.5c4.1.1 8.2.2 12.4.3V.5c-3.9-.3-7.6-.4-11.4.5zM595.1 2h3.5-3.5z"/><path class="st20" d="M88.5 43.3c.5-.1 1-.2 1.6-.3 2.8.1 5.7.2 8.5.3 0-.2.2-.6.1-.6-1.4-.2-2.9-.3-4.3-.4-2-.1-4-.2-6-.2-15.5.1-31.1.1-46.6.2 0 .2 0 .4.1.6 15.4.6 31 .6 46.6.4z"/><path class="st11" d="M26.5 55.9l12.7-.3c-3.4-.9-9.8-.8-12.7.3z"/><path class="st4" d="M163.8 64.9h1.7c-.3-.2-.7-.4-1.1-.7-.1.2-.3.4-.6.7z"/><path class="st11" d="M105.3 62.7v.6h2.6V63c-.9-.1-1.7-.2-2.6-.3zM105.3 62.7z"/><path class="st4" d="M130.7 65c-.1 0-.2 0-.3.1.1.1.2.1.4.2 0 0 .2 0 .3-.1-.1 0-.2-.1-.4-.2z"/><path class="st4" d="M130.7 65c.1.1.2.1.4.2-.1 0-.2-.1-.4-.2z"/><path class="st11" d="M413.1 67c-2.3-1.3-5.5-.8-8.5-.6.8.4 1.8.7 2.9.8 1.9.4 4 .3 5.6-.2z"/><path class="st12" d="M518 1l17.2.3c6.6-.5 12.9-1.2 20.1-.9 7.5.4 15.3-.2 22.9-.3 1.8 0 3.6.1 5.4.2 1.6.2 3.1.5 4.7.6 1.3.1 3.3.3 3.9.1 2-.7 3.6-.9 5.6-.1.3.1 1.5.2 1.9.1 3.7-.9 7.4-.8 11.4-.6V0H510.4c.4.1.8.3 1.1.7 2.2.1 4.3.2 6.5.3zM491.2.2c.4-.1.9-.1 1.3-.2h-9.7c2.6.5 5.2.8 8.4.2zM505.4.3c.5-.1 1.1-.2 1.7-.3h-9.4c.4 0 .8.1 1.1.1 2.5.5 4.1.4 6.6.2z"/><path class="st10" d="M524.9 2.6c.9 0 1.8.4 2.6.6h4.3c1.4-.2 2.8-.6 4.3-.6 4.5-.1 9 0 13.5 0V2c-2.1 0-4.2 0-6.2-.1-2.8-.1-5.5-.4-8.2-.5-5.7-.2-11.4-.3-17.2-.4l-6.6-.3-10.2 1.2 11.9.3c4 .1 7.9.2 11.8.4z"/><path class="st12" d="M476.7.2c-.4-.1-.7-.2-1.1-.2h-14.1c-.6.1-1.2.2-1.8.2h17z"/><path class="st9" d="M406.1 0h-5.8v.1c2.1.3 4.1.5 5.8-.1z"/><path class="st4" d="M510.9 46.3c0 .2 0 .3.1.5l-12.9.3c0 .2.1.4.1.6 15.2-.3 30.4-.7 45.6-1 0-.2 0-.4-.1-.6-9.9.2-19.8.4-29.6.7-.1-.2-.1-.3-.2-.5.4-.1.9-.3 1.3-.3 9.6-.2 19.3-.3 28.9-.6 1.3 0 2.6-.4 3.9-.6l-34.8.6c-2.8.1-5.7.2-8.5.3 2 .2 4.1.4 6.2.6zM504.6 45.7c2.8-.1 5.7-.2 8.5-.3-2.8.1-5.6.2-8.5.3zM276.5 47.9c0-.1 0-.3-.1-.5-3.4-.3-6.8-.3-10 .4 3.4.1 6.8.1 10.1.1z"/><path class="st14" d="M394.5 48.5zM396.7 47.9c-.7.2-1.5.4-2.2.6.9-.1 1.8-.1 2.7-.2-.2-.1-.3-.3-.5-.4z"/><path class="st16" d="M209.7 57.8l5.1.3c1.1.1 2.2.2 3.3.2h12l4.2.3c2.7-.6 5.5-.5 6.9.3h3.3c2.2-1 4.6-.3 6.8-.1 2.1.2 3.6.3 3.4-.8-3.6-.2-7.2-.4-11.8-.6 1.6-.2 2.5-.3 3.3-.4-1.6-.2-3.2-.5-4.9-.5-5.5-.2-11.1-.2-16.7-.3-4.2-.1-8.3-.4-12.4-.6-1.2.3-2.3.6-3.5.9.3.4.7.8 1 1.3z"/><path class="st16" d="M219.8 58.3h4.2c-1.4.1-2.8 0-4.2 0zM241.1 58.9h3.3-3.3z"/><path class="st21" d="M254.6 58.1c.2 0 .5-.1.7-.1.4 0 .7 0 1.1-.1 4.4 0 8.9 0 13.3.1.6-.2 1.2-.4 1.7-.6l-22.7-.6c-.4.1-.7.1-1.1.2h-1.5c-.9.1-1.8.2-3.3.4 4.6.3 8.2.5 11.8.7z"/><path class="st21" d="M256.4 58c4.4 0 8.9 0 13.3.1-4.4-.1-8.8-.1-13.3-.1z"/><path class="st19" d="M525.9 42.1c-3.9.1-7.9.2-11.9.3-3.7.1-7.4.1-11.1.2h-8.5c-.2 0-.4.1-.6.1-.1 0-.2-.1-.2-.1l-9.3.3-.1.1c2 .3 3.9.8 6 .8 5.9.1 11.9.1 17.9.1h5.1c6.2-.1 12.4 0 18.6-.2 9.6-.2 19.2-.5 28.9-.8 2.4-.1 4.6-.3 3.4-1.5-3.8.2-7.7.4-11.5.5-2.1.1-4.2-.1-6.2-.2H543c-5.8.2-11.4.3-17.1.4z"/><path class="st15" d="M594.6 40.2l-26.5.6c-7.3.1-14.6.2-21.9.4 0 .2 0 .4.1.6 2.1.1 4.2.3 6.2.2 3.8-.1 7.7-.3 11.5-.5l40.2-.3c2.3 0 4.5-.1 6.8-.2v-1c-5.3.5-10.8.5-16.4.2z"/><path class="st4" d="M384.3 49.7c-1.1-.1-2.3-.2-3.4-.3.6.9 1.6 1.2 3.4.3z"/><path class="st7" d="M135 17.6c-.7-.3-1.3-.7-2-1-.8.4-1.5.7-2.3 1.1 1.5 0 2.9-.1 4.3-.1zM473.3 17h4.3c-1.4-1-2.9-.3-4.3 0z"/><path class="st8" d="M430.1 14.8c.3 0 .5-.1.8-.2-.2-.1-.3-.1-.4-.2-.3.1-.5.1-.7.1l.3.3z"/><path class="st7" d="M129.4 16.1h-.6s0 .1.1.1h.6l-.1-.1zM128.8 16.1h.6-.6z"/><path class="st4" d="M214.7 58.1l-5.1-.3c-2.6.1-5.1.2-7.7.3v.9c2.1 0 4.4-.1 6.2.2.4.1.8.1 1.2.1 2.9.2 4.4-.2 5.4-1.2z"/><path class="st6" d="M234.2 58.7l6.9.3c-1.4-.8-4.2-1-6.9-.3z"/><path class="st6" d="M234.2 58.7l6.9.3c-2.3-.2-4.6-.2-6.9-.3z"/><path class="st12" d="M407.2 63.3h6.8c-2.3-.8-4.6-.6-6.8 0zM486.9 64.2c-1.9-1.1-2.7-.4-3.4.3h3.4v-.3z"/><path class="st11" d="M281.8 59.3h-3.5c.3.2.6.4.9.4.8.4 1.7.2 2.6-.4z"/><path class="st12" d="M12.3 63.5s.4 0 .6-.1c-.1-.1-.1-.2-.3-.2h-.7c.1.1.2.2.4.3z"/><path class="st9" d="M419.9 35.9zM290.4 37.8c-6.2 0-12.5-.1-18.8-.1-2.8 0-5.9.4-8.3-.6-.4-.2-2-.2-2.3 0-2.4.9-5.4.4-8.1.5-1.2.1-2.5.2-4 .3-3.6-1.4-8.1-.3-13.1-.5 1.3 1 2 1.2 4.5.8 1.5-.2 4.2-.1 5.5.3.9.3 1.1 1.3.4 1.8-.6.4-3 .5-4.6.6-2.1 0-4.2-.2-6.3-.2l-24 .3c-1.2 0-2.5.2-4 .4 1.7.5 2.8.8 4 1.1h1.7c1.8-.9 3.4-.9 5 .1l16.6.3h97.9l18.6-.3c3.6 0 7.3-.1 10.9 0 1.5.1 2.9.6 4.4.8l5.1-.3c1.6-.2 3.2-.6 4.8-.6 18.4 0 36.7 0 55.1-.1 15.3-.1 30.6-.4 46-.6 2.4 0 4.8 0 7.2.1l9.9-.3c.9 0 1.8 0 2.6-.1.9.1 1.7.2 2.6.3h.8c.8 0 1.7 0 2.5-.1 1.7-.2 3.4-.4 5.2-.5 1.4-.1 2.9-.2 4.4-.3-1.8-.2-3.6-.6-5.4-.6-8.4.1-16.7.4-25.1.5-11.4.1-22.8-.2-34.1.2-9.9.3-19.5-.1-29.3-.1-.7 0-1.3-.1-2-.1v-.4c12.7-.1 25.4-.1 38.1-.2 13.2-.1 26.5-.3 39.7-.4l39.1-.3c2.3-.1 4.5-.2 6.8-.3h3.4c1.1-.3 2.1-.6 3.3-.8 1.1-.1 2.5-.1 3.7-.1v-.6c-2.4 0-4.9.2-7.1 0-2.9-.3-5.6-.8-8.4-1.3h-8.5c-.4.3-.9.8-1.3.8-3.9.1-7.9.1-11.8 0-.8 0-1.4-.7-2.1-1.1-5.3.8-10.3 0-15.5.1v-.5c5.2-.2 10.3-.3 15.5-.5-.6-.1-1.1-.2-1.7-.3h-29.6v.7h13c.1.2.3.4.4.6-1.4.2-2.7.6-4.2.7-4.8.2-9.5.3-14.3.3-4.4 0-9.6.4-11.6-1.8-.2-.2-1.5-.2-3.2-.5 1.1.9 1.8 1.5 2.5 2.1h-13.4c-2.4 0-5 .2-7-.2-3.3-.5-5.6-.5-6.9.5-4-.1-7.6-.2-11.2-.2-2.5 0-4.7 0-4.4-1.2-2.3-.3-4.6-.8-7-.8-7.2-.1-14.5-.1-21.7-.1l-31.4.3c-1.3 0-2.6.3-3.9.4.7.6 1.2 1 1.7 1.5H345c2.2-.5 3.8-.8 5.5-1.2-.1-.2-.2-.3-.3-.5-1.5 0-3.1-.1-4.7-.1-2 0-3.9.2-5.9.2h-24.8c-3.8 0-7.5.4-11.3.6.1.1.1.2.2.3-2.7-.2-5.5-.4-8.2-.6l1.4 1.4c-2.5.2-4.4.5-6.5.5zm62 3c.1.2.1.3.2.5h-32.7c10.7-.6 21.5-1.2 32.5-.5z"/><path class="st9" d="M366.4 43.5l5.1-.3c-1.7.2-3.4.3-5.1.3z"/><path class="st14" d="M184.4 39.1c.8 0 1.7-.3 2.6-.3 5.7-.1 11.5-.1 17.2-.1 3 0 6 .5 9 .4 4.2 0 8.4-.3 12.8-.5.2-.3.4-.8.8-1.4h-17.4v-.4c1.2-.1 2.5-.1 3.8-.2-1.4-.4-2.9-.7-4.4-.7-3.8-.1-7.5 0-11.3 0-3.7-.1-6.7.1-7.1 1.7-2.5-.1-4.7-.1-7-.2-.6.4-1.2.8-1.7 1.2.9.2 1.8.5 2.7.5z"/><path class="st11" d="M125.3 37.4c-1.5-1.3-4.6-.2-7.2-.3 1.1 1.8 5.2 1.4 8.3 1.3 4.2-.1 8.3-.6 12.5-.6 6.1 0 12.3.3 18.4.4.4 0 1-.5 1.5-.8-11 .2-22.1-1.1-33.5 0z"/><path class="st15" d="M234.7 42.9l-16.6-.3c-1.7 0-3.4 0-5-.1h-22v.6H225c6.5.1 12.9.1 19.4.2v-.5c-3.3.2-6.5.2-9.7.1z"/><path class="st9" d="M186.7 42.6h18.7c-.2-.6.6-1.5-2.7-1.4-2.4 0-4.8-.2-7.2-.3-1.5 0-3 .1-4.5.2-1.4.2-2.9.4-4.3.6v.9z"/><path class="st14" d="M187.1 36.1c-10.4-.2-19.8-.3-29.2-.5 0 .2-.1.3-.1.5 1.6.1 3.2.3 4.8.4 4.2.1 8.4 0 12.7 0 1.3 0 2.6.4 3.9.6h4.2c.9-.2 1.8-.5 3.7-1z"/><path class="st13" d="M258 34.3h-1.7c.6.5-3.7 1.3.8 1.5H274c-.3-1.3-3.1-.9-5.1-.9h-8.5c-.7-.2-1.6-.4-2.4-.6z"/><path class="st14" d="M244.2 36.4V36h-17.5v.4h17.5z"/><path class="st11" d="M183.4 37.4c0-.1 0-.2-.1-.3h-13.5c.9.2 2 .8 2.6.7 2.8-.4 4.6-.1 5.9.8h3.4c.5-.4 1.1-.8 1.7-1.2zM179.1 37.1h-9.3 9.3z"/><path class="st9" d="M270.1 36.6h8.3c0-.1.1-.3.1-.4-1.5-.1-3-.2-4.5-.4h-1.7c-.6.3-1.2.5-2.2.8z"/><path class="st6" d="M186.7 41.7c1.4-.2 2.9-.4 4.3-.6h-9.3c.8.2 1.7.4 2.5.6h2.5zM191 41.1h-9.3 9.3z"/><path class="st6" d="M186.7 41.7c1.4-.2 2.9-.4 4.3-.6-1.4.2-2.8.4-4.3.6z"/><path class="st9" d="M268.1 35.9h-11c2.8.8 8.3.8 11 0zM291 35.9h-8.5c2.5 1.1 6.8 1.1 8.5 0z"/><path class="st14" d="M217.2 36.1v.5h6.1v-.4c-2.1 0-4.1-.1-6.1-.1zM46 35.2zM47.1 35.5c-.4-.1-.7-.2-1.1-.3.3.1.6.3.8.4.1 0 .2 0 .3-.1zM46 35.2z"/><path class="st18" d="M475.1 25.1c0 2.5 1.1 2.9 6.8 2.6-.1-.2-.2-.3-.2-.3 3.1.2 6.2.6 9.3.6 2.1 0 4.6-.5 6.2-1 .5-.2-1.2-1.2-1.8-1.9-1.4 0-2.8 0-4.2.1-.5 1.5-4 .9-6.1 1-1.2.1-2.8-.6-4.2-1-1.9-.1-3.9-.1-5.8-.1zM475.1 25.1h5.8-5.8z"/><path class="st19" d="M491.2 25.1h-10.3c1.4.4 3 1.1 4.2 1 2.1-.2 5.6.5 6.1-1zM302.9 23.5h8.5c-2.9-.4-5.7-1.2-8.5 0zM459.7 26.3c2.1-.1 4.2-.2 6.7-.3 0 0 .1-.3.1-.6H458c.6.3 1.2.6 1.7.9zM324.1 23.8H319c1.6 1.2 3.4.2 5.1 0zM315.6 23.8h1.7c-.9-.1-1.7-.2-2.5-.3.3.1.5.2.8.3z"/><path class="st19" d="M317.3 23.8c-.9-.1-1.7-.2-2.5-.3.8.1 1.7.2 2.5.3zM314.8 23.5c.3.1.5.2.8.3-.3-.1-.5-.2-.8-.3zM314.7 23.5c.1 0 .1 0 0 0 .1 0 .1 0 0 0zM314.8 23.5z"/><path class="st13" d="M429.1 22.1c.2-.1.4-.2.5-.3 0 0-.4-.1-.6-.2-.1.1-.4.1-.4.2.1.1.3.2.5.3z"/><path class="st4" d="M508.1 24c-.3.1-.6.3-.8.4h1.7c-.3-.1-.6-.2-.9-.4z"/><path class="st6" d="M280.8 23.2h-5.9c-.2.3-.2.8-.7.8-3 .4-6.1.6-9.2.9.3 1.1 1.9 1.4 4.7 1.1 1.6-.2 4.5-.4 4.8-.2 2 1.4 5.3.7 8.1.8-1.3-.2-2.6-.3-4-.5 1.8-.1 3.5-.3 5.1-.4h.6c0-.1 0-.2.1-.3 0-.2-.1-.4-.1-.6-.6-.4-1.2-.9-1.7-1.3-.7-.1-1.2-.2-1.8-.3z"/><path class="st18" d="M210.5 25.4zM207.9 24.5h-2.5c-1.5.5-3 .9-4.6 1.4.3.1 1.1.4 1.9.7 1.6.6 3 1.2 4.9 1.7.7.2 2.7.1 3.3-.2.6-.2.4-.8.3-1.2-.1-.5-.5-1-.7-1.5-.9-.3-1.7-.6-2.6-.9zM207.9 24.5h-2.5 2.5zM210.5 25.4zM210.5 25.4z"/><path class="st19" d="M207.9 24.5c.9.3 1.7.6 2.6.9v-.9h-2.6zM210.5 24.5h-2.6 2.6zM210.5 25.4zM210.5 25.4zM210.5 25.4z"/><path class="st20" d="M282.5 23.5c.6.4 1.1.9 1.7 1.3l1-1c-.6-.1-1.2-.2-1.7-.3h-1z"/><path class="st18" d="M283.4 23.5c-.9-.1-1.8-.2-2.6-.3.6.1 1.1.2 1.7.3h.9z"/><path class="st20" d="M284.2 25.7h-.6c-1.6.1-3.3.3-5.1.4 1.4.2 2.7.3 4 .5l6.6.9c.1-.1.3-.2.4-.3-1.7-.5-3.5-1-5.3-1.5zM284.2 25.7z"/><path class="st20" d="M289.6 27.2c-1.8-.5-3.5-1-5.3-1.5 1.7.5 3.5 1 5.3 1.5zM284.2 25.7zM284.2 25.7h-.6.6z"/><path class="st6" d="M272 27.5c.2 0 .3.1.5.1.1 0 .2-.1.2-.1-.1-.1-.3-.1-.5-.2 0 .2-.1.2-.2.2z"/><path class="st19" d="M297 27.2h-.1c.6.2 1.2.4 1.7.6-.5-.2-1-.4-1.6-.6zM245.2 26.6c.1 0 .1 0 0 0 .1 0 0 0 0 0zM246.1 26.2c-.3.1-.6.3-.8.4.4-.1.7-.2 1.1-.3-.1 0-.2-.1-.3-.1zM245.3 26.6s-.1 0 0 0c-.1 0 0 0 0 0zM245.2 26.6zM245.2 26.6zM245.2 26.6zM245.2 26.6zM311.4 28.1c-.3-.1-.6-.3-.9-.4-.3.1-.6.3-.8.4h1.7zM259.5 26.5c0 .1-.1.1-.1.2h.3c0-.1.1-.1.1-.2h-.3z"/><path class="st20" d="M284.2 25.7c.3-.1.5-.1.8-.2-.2 0-.5-.1-.7-.1 0 .1-.1.2-.1.3zM284.3 25.7c-.1 0-.1 0 0 0-.1 0-.1 0 0 0zM284.2 25.7zM284.3 25.7c-.1 0-.1 0 0 0-.1 0-.1 0 0 0zM284.2 25.7z"/><path class="st19" d="M296.5 27c.1.1.3.2.4.2h.1c-.2-.1-.3-.1-.5-.2z"/><path class="st18" d="M310.5 28.5c.3-.1.6-.3.8-.4h-1.7c.4.2.6.3.9.4z"/><path class="st19" d="M458.6 26.6c.1 0 .2.1.3.1.3-.1.6-.3.9-.4h-.1c-.4.1-.7.2-1.1.3z"/><path class="st12" d="M264.7 47.9zM261.1 48.6c1.2-.2 2.4-.5 3.6-.7-1.4 0-2.8.1-4.1.1.2.2.3.4.5.6zM264.7 47.9zM264.7 47.9zM197.8 48.2h4.2c-1-.7-2.4-.7-4.2 0z"/><path class="st9" d="M278.1 50.2h.3V50h-.3v.2zM177.1 48c-.2 0-.5-.1-.7-.1-.2 0-.3.1-.6.1.4 0 .7.1.9.1.2.1.3 0 .4-.1zM221.8 53.1h-.6s0 .1.1.1h.6c-.1 0-.1-.1-.1-.1zM221.2 53.1h.6-.6z"/><path class="st13" d="M513.2 2.2c-.6.5-1.1 1-1.7 1.6 5.4-.2 10.7-.4 16.1-.6-.9-.2-1.7-.5-2.6-.6-4-.2-7.9-.3-11.8-.4z"/><path class="st7" d="M492.8 3.8h6.8c-1.7-.4-3.3-.8-5.3-1.3-.7.5-1.1.9-1.5 1.3zM501.3 3.8h5.9c-1.1-.4-2.2-.7-3.3-1.1-.9.3-1.7.7-2.6 1.1zM485.2 3.8h4.2c-1.4-1-2.8-.3-4.2 0zM549.6 2v.6h-13.5c-1.4 0-2.9.4-4.3.6.9.1 1.8.1 2.8.2-.5.4-.8.6-1.2.9h14.7c-.3-.3-.5-.6-.8-1 1.9-.1 3.4-.1 4.9-.1.6-1.3 3.7-1.3 6.1-1.4 4.7-.2 9.5-.1 14.3-.1 1.8-.2 3.7-.4 5.5-.6 1.8-.2 3.7-.4 5.5-.6-1.8-.1-3.6-.2-5.4-.2-7.7.1-15.4.6-22.9.3-7.2-.4-13.4.4-20.1.9 2.7.2 5.5.4 8.2.5 2.1 0 4.2-.1 6.2 0z"/><path class="st10" d="M552.2 3.2c3.8.1 7.7.3 11.5.4 3.3.1 7.4-.4 9.7.2 3.4.8 6.5 1 10.2 1-1.3-.5-2.5-1-3.8-1.6 1.5-.3 3.1-.6 4.7-.9-4-.2-7.9-.4-11.9-.6-4.8 0-9.6 0-14.3.1-2.4 0-5.5.1-6.1 1.4z"/><path class="st4" d="M545.4 36.2h-8.5c-.6.1-1.1.2-1.7.3 2.8.4 5.5 1 8.4 1.3 2.2.2 4.7 0 7.1 0v.6c-1.2 0-2.6-.1-3.7.1-1.2.1-2.2.5-3.3.8h5.1c0 .2-.1.4-.1.5-2.8-.4-5.9.8-8.4-.5-2.3.1-4.5.2-6.8.3-1.7.2-3.3.5-5.1.6-2.8.3-5.7.5-8.6.7 2.6.1 5.1.2 7.7.3h.5c4.9.1 9.9.1 14.8.2 1.1-.1 2.2-.1 3.3-.2 7.3-.1 14.6-.2 21.9-.4l26.5-.6c-1.2-.2-2.4-.5-3.7-.6-1.9-.1-3.8-.1-5.7-.1h-28.7v-.6h27c2.5-.2 5.1-.5 7.6-.7 2.4-.1 4.8-.1 7.3-.1-.3-.5-.7-.6-1-.6-5.4.1-10.7.1-16.1.2-.8 0-1.8 0-2.5-.1-7.1-.9-14.4-.7-21.6-.5-.7.4-1.3.7-2 1.1-.4-.1-.8-.2-1.1-.4.8-.3 1.5-.5 2.3-.8v-.9h-10.2c-.1.1-.4.1-.7.1z"/><path class="st4" d="M533.5 39.6c2.3-.1 4.5-.2 6.8-.3-2.2.1-4.5.2-6.8.3z"/><path class="st6" d="M556.5 39.5h28.7c-.6-.2-1.1-.4-1.7-.6h-27v.6z"/><path class="st15" d="M599.5 39.2H611v-.6c-3.9.1-7.7.1-11.6.2 0 .2 0 .3.1.4z"/><path class="st9" d="M555.3 38.2c.7-.4 1.3-.7 2-1.1h-.8c-.8.3-1.5.5-2.3.8.3.1.7.2 1.1.3z"/><path class="st4" d="M206.2 56.5h-3.4c1.2.9 2.3.9 3.4 0z"/><path class="st15" d="M477.3 42.1c-15.3.2-30.6.5-46 .6-18.4.1-36.7 0-55.1.1-1.6 0-3.2.4-4.8.6H434c16.7 0 33.4-.1 50.2-.2l.1-.1c0-.3.1-.5.1-.8-2.3-.2-4.7-.3-7.1-.2z"/><path class="st6" d="M244.4 43v.5h68.8V43h-68.8z"/><path class="st11" d="M186.7 42.6h-21.1l-45-.3v.6c7.6.1 15.1.3 22.7.3H191v-.6c-1.4.1-2.8 0-4.3 0zM362.1 42.7c-3.6-.1-7.2 0-10.9 0v.6l15.2.3c-1.4-.4-2.8-.9-4.3-.9zM366.4 43.5z"/><path class="st15" d="M332.6 42.9c0 .2 0 .4.1.5h3.4c.3-.1.6-.1.8-.2h14.3v-.6c-6.2.2-12.4.2-18.6.3zM336.9 43.3h10.9-10.9zM332.6 43.5h3.4-3.4zM313.1 43v.5h12.6v-.6c-4.2.1-8.4.1-12.6.1z"/><path class="st6" d="M332.6 42.9h-6.8v.6h6.9c-.1-.2-.1-.4-.1-.6zM325.8 43.5h6.9-6.9zM223.8 43.6c.4-.1.7-.2 1.1-.4h-1.7c.2.2.4.3.6.4z"/><path class="st13" d="M98.8 43.6c.2 0 .4 0 .6-.1h-.8c0 .1.1.2.2.1zM185.8 46.8c-.1 0-.2 0-.3.1.1.1.2.1.4.2 0 0 .2 0 .3-.1-.1-.1-.2-.1-.4-.2z"/><path class="st13" d="M186.2 47c-.1-.1-.2-.1-.4-.2-.1 0-.2 0-.3.1.1 0 .2 0 .3-.1.2.1.3.1.4.2z"/><path class="st9" d="M100.1 41.6v.4h8v-.4h-8z"/><path class="st12" d="M176.5 42.6c-1.3-.3-2.7-.9-3.8-.8-.9.1-2 0-3 0-1.4-.1-2.8 0-3.7.5-.2.1-.4.2-.5.4 3.7-.1 7.4-.1 11-.1z"/><path class="st12" d="M166.1 42.2c-.2.1-.4.2-.5.4.1-.1.3-.3.5-.4zM167.2 41.1c.1-.2.1-.5.2-.7-2.1 0-4.3-.1-6.4-.1 0 .2-.1.5-.1.7 2.1 0 4.2.1 6.3.1zM186.7 41.7h-2.5v.9h2.5v-.9zM522.8 35.6c1.4.1 2.7.6 4 .9h1.7c-.3-1-.7-2.1-4.2-2.1-4.8 0-9.6.4-14.5.6.6.1 1.1.2 1.7.3 3.7 0 7.5.1 11.3.3zM536.9 36.2c-.6-.6-1.3-1.2-2-1.8-2 .3-3.6.6-5.2.8.1.5.3.9.4 1.3h5.1c.6-.1 1.1-.2 1.7-.3z"/><path class="st9" d="M419.9 35.9c1.7.1 3.4.1 5.4.2-2.8-1.4-3.4-1.4-5.4-.2zM419.9 35.9z"/><path class="st12" d="M546 36.1c-.2 0-.4 0-.6.1h.8c0-.1-.1-.1-.2-.1z"/><path class="st16" d="M516.5 41.1h-4c-1.5.1-3 .2-4.4.3-1.7.2-3.4.4-5.2.5 0 .2 0 .4.1.7 3.7-.1 7.4-.1 11.1-.2l11.9-.3c.5-.3 1.1-.6 1.6-.9-2.6-.1-5.1-.2-7.7-.3l-2.4.3c-.3-.1-.7-.1-1-.1z"/><path class="st16" d="M527.5 41.2c-2.6-.1-5.1-.2-7.7-.3 2.6.1 5.2.2 7.7.3z"/><path class="st20" d="M525.9 42.1c5.7-.1 11.3-.2 17-.4v-.4c-4.9-.1-9.9-.1-14.8-.2h-.5c-.6.4-1.1.7-1.7 1zM528 41.2h-.5.5zM494.4 41.8l-9.9.3c0 .3-.1.5-.1.8l9.3-.3h.8c0-.2 0-.5-.1-.8zM494.4 41.8l-9.9.3 9.9-.3zM500.4 42c-.2 0-.4.1-.6.1-.1 0-.2-.1-.2-.1-.9-.1-1.7-.2-2.6-.3-.3.3-.5.6-.8.9h6.7c0-.2 0-.4-.1-.7-.7.1-1.5.1-2.4.1zM496.3 42.6h6.7-6.7z"/><path class="st16" d="M497.1 41.7c-.9 0-1.7 0-2.6.1 0 .3.1.5.1.8h1.8c.1-.3.4-.6.7-.9z"/><path class="st16" d="M497.1 41.7c-.9 0-1.7 0-2.6.1.8 0 1.7 0 2.6-.1zM542.9 41.7h3.4c0-.2 0-.4-.1-.6-1.1.1-2.2.1-3.3.2v.4zM493.9 42.7c.2 0 .4 0 .6-.1h-.8c.1.1.2.1.2.1z"/><path class="st11" d="M454.7 40.3c-12.7.1-25.4.2-38.1.2v.4c.7 0 1.3.1 2 .1 9.8 0 19.4.4 29.3.1 11.3-.4 22.7-.1 34.1-.2 8.4-.1 16.7-.4 25.1-.5 1.8 0 3.6.4 5.4.6h4c.2 0 .5-.1.7-.1.1 0 .2.1.3.1l2.4-.3c2.9-.2 5.8-.4 8.6-.7l5.1-.6-39.1.3c-13.4.3-26.6.5-39.8.6z"/><path class="st13" d="M511.5 35.2c-5.2.2-10.3.3-15.5.5v.5c5.2-.2 10.2.7 15.5-.1l15.3.3c-1.3-.3-2.6-.8-4-.9-3.8-.1-7.6-.2-11.3-.3z"/><path class="st11" d="M352.6 41.3c-.1-.2-.1-.3-.2-.5-11-.7-21.8-.1-32.6.5h32.8z"/><path class="st4" d="M513.6 37.3c3.9.1 7.9.1 11.8 0 .5 0 .9-.5 1.3-.8l-15.3-.3c.8.4 1.4 1 2.2 1.1z"/><path class="st6" d="M548.7 39.8c0-.2.1-.4.1-.5h-8.5c2.5 1.3 5.6.1 8.4.5zM540.3 39.3h3.4-3.4z"/><path class="st12" d="M213 42.6c1.7 0 3.4 0 5 .1-1.5-1-3.2-1-5-.1z"/><path class="st16" d="M499.9 42.1c.2 0 .4-.1.6-.1h-.8c0 .1.1.1.2.1z"/><path class="st9" d="M517.2 41c-.2 0-.5.1-.7.1h1c-.1 0-.2-.1-.3-.1z"/></g></g></svg>