<svg xmlns="http://www.w3.org/2000/svg" ><path data-name="パス 9" d="M9.629 24.879c11.554 0 17.873-9.572 17.873-17.873 0-.272 0-.543-.018-.812a12.781 12.781 0 0 0 3.134-3.252 12.538 12.538 0 0 1-3.608.988A6.3 6.3 0 0 0 29.772.456a12.589 12.589 0 0 1-3.989 1.525A6.288 6.288 0 0 0 15.078 7.71 17.834 17.834 0 0 1 2.131 1.15a6.286 6.286 0 0 0 1.945 8.386 6.235 6.235 0 0 1-2.851-.786v.08a6.284 6.284 0 0 0 5.04 6.158 6.272 6.272 0 0 1-2.836.108A6.289 6.289 0 0 0 9.3 19.45a12.6 12.6 0 0 1-7.8 2.694 12.789 12.789 0 0 1-1.5-.091 17.784 17.784 0 0 0 9.629 2.817" fill="#fff"/></svg>
