<svg xmlns="http://www.w3.org/2000/svg" width="20" height="20" viewBox="0 0 20 20">
  <g id="グループ化_971" data-name="グループ化 971" transform="translate(-133 -278)">
    <g id="fLogo-RGB_Blk-1024" transform="translate(133 278)">
      <path id="パス_10" data-name="パス 10" d="M18.9,0H1.1A1.1,1.1,0,0,0,0,1.1V18.9A1.1,1.1,0,0,0,1.1,20h9.58V12.266h-2.6V9.238h2.6V7.01a3.637,3.637,0,0,1,3.882-3.99,21.387,21.387,0,0,1,2.329.119v2.7H15.305c-1.254,0-1.5.6-1.5,1.47V9.238h3l-.391,3.027H13.809V20H18.9A1.1,1.1,0,0,0,20,18.9V1.1A1.1,1.1,0,0,0,18.9,0Z" transform="translate(0 0)" fill="#fff"/>
      <path id="f" d="M420.405,171.573v-7.709h2.918l.437-3.017h-3.356v-1.922c0-.872.272-1.465,1.675-1.465h1.779v-2.691c-.31-.037-1.371-.119-2.607-.119-2.58,0-4.345,1.4-4.345,3.977v2.221H414v3.017h2.908v7.709Z" transform="translate(-406.673 -151.573)" fill="#f88c8c"/>
    </g>
  </g>
</svg>
