<svg xmlns="http://www.w3.org/2000/svg" width="30.618" height="24.879" viewBox="0 0 30.618 24.879">
  <g id="Twitter_Logo_Blue" transform="translate(-9.185 -12.057)">
    <path id="パス_9" data-name="パス 9" d="M84.629,123.329c11.554,0,17.873-9.572,17.873-17.873,0-.272,0-.543-.018-.812a12.781,12.781,0,0,0,3.134-3.252,12.538,12.538,0,0,1-3.608.988,6.3,6.3,0,0,0,2.762-3.474,12.589,12.589,0,0,1-3.989,1.525,6.288,6.288,0,0,0-10.705,5.729A17.834,17.834,0,0,1,77.131,99.6a6.286,6.286,0,0,0,1.945,8.386,6.235,6.235,0,0,1-2.851-.786v.08a6.284,6.284,0,0,0,5.04,6.158,6.272,6.272,0,0,1-2.836.108A6.289,6.289,0,0,0,84.3,117.9a12.6,12.6,0,0,1-7.8,2.694,12.789,12.789,0,0,1-1.5-.091,17.784,17.784,0,0,0,9.629,2.817" transform="translate(-65.815 -86.393)" fill="#fff"/>
  </g>
</svg>
