<svg xmlns="http://www.w3.org/2000/svg"><g data-name="グループ 394"><g data-name="パス 538" fill="none"><path d="M24 0A24 24 0 1 1 0 24 24 24 0 0 1 24 0z"/><path d="M24 1A22.925 22.925 0 0 0 7.737 7.737 22.925 22.925 0 0 0 1 24a22.925 22.925 0 0 0 6.737 16.263A22.925 22.925 0 0 0 24 47a22.925 22.925 0 0 0 16.263-6.737A22.925 22.925 0 0 0 47 24a22.925 22.925 0 0 0-6.737-16.263A22.925 22.925 0 0 0 24 1m0-1c13.255 0 24 10.745 24 24S37.255 48 24 48 0 37.255 0 24 10.745 0 24 0z" fill="#b50e4e"/></g></g><path data-name="パス 540" d="M41.773 30.551a2.877 2.877 0 0 0-1.145 1.044 17.668 17.668 0 0 0 .911-2.85c.024.009 1.524.6 2.165.22a2.715 2.715 0 0 0 1.3-1.826c-.982.3-1.921.014-2.535.4a2.787 2.787 0 0 0-.924 1.192 18.087 18.087 0 0 0 .418-2.943c.021 0 1.541.363 2.09-.106a2.676 2.676 0 0 0 .944-1.98c-.885.434-1.82.3-2.342.766a2.755 2.755 0 0 0-.691 1.309 18.742 18.742 0 0 0-.063-2.975c.018 0 1.517.131 1.965-.411a2.693 2.693 0 0 0 .585-2.087c-.77.556-1.678.556-2.1 1.1a2.787 2.787 0 0 0-.451 1.393 19.636 19.636 0 0 0-.53-2.95c.017 0 1.457-.089 1.8-.69a2.769 2.769 0 0 0 .223-2.15c-.641.66-1.5.788-1.814 1.384a2.882 2.882 0 0 0-.207 1.446 20.789 20.789 0 0 0-.979-2.874c.018 0 1.364-.294 1.588-.938a2.906 2.906 0 0 0-.135-2.169c-.5.745-1.292.991-1.493 1.628a3.043 3.043 0 0 0 .036 1.469 22.091 22.091 0 0 0-1.405-2.751s1.245-.475 1.351-1.152a3.109 3.109 0 0 0-.486-2.15c-.35.811-1.061 1.162-1.146 1.826a3.294 3.294 0 0 0 .28 1.475 23.457 23.457 0 0 0-1.813-2.594c.1-.058 1.092-.665 1.08-1.325a3.382 3.382 0 0 0-.825-2.095c-.2.858-.813 1.3-.781 1.978a3.453 3.453 0 0 0 .476 1.38 22.947 22.947 0 0 0-1.661-1.846s.206-1.274-.335-1.776a3.441 3.441 0 0 0-2.009-.918c.517.79.454 1.568.951 2.031a3.462 3.462 0 0 0 1.356.654q.874.943 1.654 1.946a2.852 2.852 0 0 0-1.29-.719c-.649-.093-1.151.469-1.927.7a3.21 3.21 0 0 0 1.688.778c.612.095 1.512-.7 1.548-.737a24.34 24.34 0 0 1 1.77 2.6 2.854 2.854 0 0 0-1.218-.887c-.65-.173-1.262.309-2.1.439a3.212 3.212 0 0 0 1.594.965c.624.174 1.72-.515 1.722-.516a22.2 22.2 0 0 1 1.362 2.742 2.745 2.745 0 0 0-1.1-1.022c-.639-.256-1.351.131-2.23.147a3.2 3.2 0 0 0 1.473 1.15 3.354 3.354 0 0 0 1.86-.265 20.689 20.689 0 0 1 .941 2.854 2.673 2.673 0 0 0-.963-1.158c-.616-.34-1.414-.063-2.322-.169a3.165 3.165 0 0 0 1.325 1.327 3.708 3.708 0 0 0 1.962.009 19.524 19.524 0 0 1 .5 2.92 2.6 2.6 0 0 0-.8-1.281c-.579-.424-1.447-.27-2.365-.5a3.124 3.124 0 0 0 1.148 1.493 4.05 4.05 0 0 0 2.02.3 18.593 18.593 0 0 1 .037 2.937 2.521 2.521 0 0 0-.618-1.386c-.527-.506-1.446-.485-2.353-.852a3.073 3.073 0 0 0 .94 1.642 4.353 4.353 0 0 0 2.03.608 17.909 17.909 0 0 1-.435 2.9 2.453 2.453 0 0 0-.41-1.47c-.46-.583-1.408-.7-2.281-1.206a3.023 3.023 0 0 0 .7 1.768 4.6 4.6 0 0 0 1.985.921 17.47 17.47 0 0 1-.918 2.8 2.4 2.4 0 0 0-.177-1.528c-.376-.653-1.329-.922-2.144-1.555a2.981 2.981 0 0 0 .432 1.867c.348.63 1.854 1.22 1.883 1.231a17.275 17.275 0 0 1-1.406 2.64 2.369 2.369 0 0 0 .078-1.556c-.276-.712-1.207-1.131-1.936-1.89a2.955 2.955 0 0 0 .131 1.931c.25.684 1.689 1.514 1.718 1.53a17.4 17.4 0 0 1-1.894 2.412 2.375 2.375 0 0 0 .356-1.548c-.158-.758-1.039-1.324-1.656-2.2a2.966 2.966 0 0 0-.2 1.954c.135.725 1.46 1.785 1.488 1.807a18 18 0 0 1-2.379 2.115 2.441 2.441 0 0 0 .655-1.5c-.023-.787-.824-1.495-1.3-2.47a3.033 3.033 0 0 0-.562 1.93c0 .75 1.165 2.024 1.191 2.052a19.115 19.115 0 0 1-2.856 1.745 2.593 2.593 0 0 0 .975-1.407c.13-.8-.562-1.634-.868-2.689a3.2 3.2 0 0 0-.952 1.853c-.144.755.806 2.222.826 2.253a20.98 20.98 0 0 1-3.305 1.3 2.838 2.838 0 0 0 1.3-1.256c.3-.78-.251-1.733-.358-2.844a3.494 3.494 0 0 0-1.368 1.716c-.3.732.367 2.338.393 2.4-.791.2-1.576.388-2.371.543a11.381 11.381 0 0 0-2.036.394 11.382 11.382 0 0 0-2.036-.394c-.8-.154-1.581-.34-2.371-.543.025-.057.7-1.663.393-2.4a3.493 3.493 0 0 0-1.368-1.716c-.107 1.111-.657 2.064-.359 2.844a2.838 2.838 0 0 0 1.3 1.256 20.968 20.968 0 0 1-3.305-1.3c.021-.031.97-1.5.826-2.253a3.2 3.2 0 0 0-.952-1.853c-.306 1.056-1 1.894-.868 2.689a2.594 2.594 0 0 0 .975 1.407 19.115 19.115 0 0 1-2.856-1.745c.026-.028 1.187-1.3 1.191-2.052a3.034 3.034 0 0 0-.562-1.93c-.476.975-1.278 1.683-1.3 2.47a2.441 2.441 0 0 0 .655 1.5 18 18 0 0 1-2.379-2.115c.028-.022 1.353-1.082 1.488-1.807a2.964 2.964 0 0 0-.2-1.954c-.617.875-1.5 1.441-1.656 2.2a2.375 2.375 0 0 0 .356 1.548 17.406 17.406 0 0 1-1.894-2.412c.029-.016 1.468-.846 1.718-1.53a2.955 2.955 0 0 0 .131-1.931c-.729.759-1.661 1.178-1.936 1.89a2.368 2.368 0 0 0 .078 1.556 17.259 17.259 0 0 1-1.406-2.64c.028-.01 1.534-.6 1.883-1.231a2.98 2.98 0 0 0 .432-1.867c-.814.633-1.767.9-2.143 1.555a2.4 2.4 0 0 0-.177 1.528 17.457 17.457 0 0 1-.918-2.8 4.6 4.6 0 0 0 1.985-.921 3.023 3.023 0 0 0 .7-1.768c-.873.5-1.821.622-2.281 1.206a2.453 2.453 0 0 0-.41 1.47 17.892 17.892 0 0 1-.435-2.9 4.352 4.352 0 0 0 2.03-.608 3.072 3.072 0 0 0 .94-1.642c-.907.367-1.825.346-2.353.852a2.52 2.52 0 0 0-.618 1.386 18.585 18.585 0 0 1 .037-2.937 4.05 4.05 0 0 0 2.02-.3 3.123 3.123 0 0 0 1.148-1.493c-.917.234-1.786.08-2.365.5a2.6 2.6 0 0 0-.8 1.281 19.5 19.5 0 0 1 .5-2.92 3.707 3.707 0 0 0 1.962-.009 3.165 3.165 0 0 0 1.325-1.327c-.907.105-1.706-.172-2.322.169a2.673 2.673 0 0 0-.963 1.158 20.677 20.677 0 0 1 .941-2.854 3.354 3.354 0 0 0 1.86.265 3.2 3.2 0 0 0 1.473-1.15c-.879-.017-1.591-.4-2.23-.147a2.745 2.745 0 0 0-1.1 1.022 22.206 22.206 0 0 1 1.363-2.742s1.1.69 1.722.516a3.213 3.213 0 0 0 1.594-.965c-.834-.13-1.447-.612-2.1-.439a2.856 2.856 0 0 0-1.219.887 24.382 24.382 0 0 1 1.771-2.6c.036.032.935.832 1.548.737a3.209 3.209 0 0 0 1.688-.778c-.776-.233-1.278-.8-1.927-.7a2.852 2.852 0 0 0-1.29.719q.779-1 1.654-1.946a3.461 3.461 0 0 0 1.356-.654c.5-.463.434-1.241.951-2.031a3.441 3.441 0 0 0-2.009.918c-.541.5-.335 1.776-.335 1.776a22.953 22.953 0 0 0-1.661 1.846 3.456 3.456 0 0 0 .476-1.38c.031-.678-.585-1.12-.781-1.978a3.382 3.382 0 0 0-.825 2.095c-.012.66.983 1.268 1.08 1.325a23.473 23.473 0 0 0-1.813 2.594 3.294 3.294 0 0 0 .28-1.475c-.085-.664-.8-1.015-1.146-1.826a3.108 3.108 0 0 0-.486 2.15c.106.678 1.35 1.152 1.351 1.152a22.1 22.1 0 0 0-1.405 2.751 3.042 3.042 0 0 0 .036-1.469c-.2-.637-.993-.883-1.493-1.628a2.906 2.906 0 0 0-.135 2.169c.223.644 1.569.934 1.588.938a20.773 20.773 0 0 0-.979 2.874 2.881 2.881 0 0 0-.208-1.446c-.314-.6-1.173-.724-1.813-1.384a2.769 2.769 0 0 0 .223 2.15c.338.6 1.778.689 1.8.69a19.648 19.648 0 0 0-.531 2.95 2.786 2.786 0 0 0-.451-1.393c-.422-.54-1.329-.539-2.1-1.1a2.693 2.693 0 0 0 .585 2.087c.447.543 1.947.413 1.965.411a18.757 18.757 0 0 0-.063 2.975 2.754 2.754 0 0 0-.691-1.309c-.523-.47-1.457-.332-2.342-.766a2.676 2.676 0 0 0 .944 1.98c.549.469 2.07.111 2.09.106a18.094 18.094 0 0 0 .418 2.943 2.786 2.786 0 0 0-.924-1.192c-.614-.386-1.553-.1-2.535-.4a2.715 2.715 0 0 0 1.3 1.826c.641.382 2.141-.211 2.165-.22a17.665 17.665 0 0 0 .91 2.85 2.878 2.878 0 0 0-1.145-1.044c-.694-.289-1.612.138-2.669 0a2.809 2.809 0 0 0 1.636 1.623c.721.281 2.158-.545 2.184-.559a17.478 17.478 0 0 0 1.41 2.692 3.038 3.038 0 0 0-1.352-.865c-.761-.181-1.629.391-2.738.412a2.961 2.961 0 0 0 1.957 1.372c.787.169 2.116-.884 2.142-.9a17.661 17.661 0 0 0 1.911 2.465 3.265 3.265 0 0 0-1.541-.656c-.812-.062-1.6.648-2.735.842a3.173 3.173 0 0 0 2.253 1.073c.839.046 2.01-1.219 2.035-1.245a18.241 18.241 0 0 0 2.408 2.166 3.56 3.56 0 0 0-1.708-.418c-.847.064-1.527.9-2.655 1.273a3.447 3.447 0 0 0 2.521.728c.873-.084 1.838-1.539 1.86-1.571a19.413 19.413 0 0 0 2.9 1.792 3.929 3.929 0 0 0-1.853-.154c-.863.2-1.4 1.145-2.5 1.694a3.785 3.785 0 0 0 2.754.34c.889-.22 1.6-1.837 1.614-1.87a21.289 21.289 0 0 0 3.363 1.337 4.337 4.337 0 0 0-1.955.137c-.86.333-1.226 1.37-2.253 2.09a4.185 4.185 0 0 0 2.948-.086c.879-.358 1.282-2.07 1.3-2.13.784.2 1.563.392 2.351.549.5.1 1.074.12 1.617.274a4.6 4.6 0 0 0-.4.247l.22.643a.753.753 0 0 1 1.495 0l.22-.643a4.621 4.621 0 0 0-.4-.247c.543-.154 1.113-.174 1.617-.274a43.443 43.443 0 0 0 2.351-.549c.015.06.418 1.773 1.3 2.13a4.184 4.184 0 0 0 2.947.086c-1.026-.721-1.393-1.757-2.253-2.09a4.338 4.338 0 0 0-1.955-.137 21.289 21.289 0 0 0 3.363-1.337c.015.034.725 1.65 1.614 1.87a3.785 3.785 0 0 0 2.754-.34c-1.094-.549-1.632-1.5-2.5-1.694a3.929 3.929 0 0 0-1.853.154 19.417 19.417 0 0 0 2.9-1.792c.021.031.987 1.486 1.86 1.571a3.447 3.447 0 0 0 2.521-.728c-1.129-.372-1.808-1.209-2.655-1.273a3.56 3.56 0 0 0-1.708.418 18.243 18.243 0 0 0 2.408-2.166c.025.026 1.2 1.291 2.035 1.245a3.172 3.172 0 0 0 2.253-1.073c-1.133-.194-1.922-.9-2.735-.842a3.265 3.265 0 0 0-1.541.656 17.649 17.649 0 0 0 1.911-2.465c.026.02 1.355 1.073 2.142.9a2.961 2.961 0 0 0 1.957-1.372c-1.109-.021-1.977-.593-2.738-.412a3.037 3.037 0 0 0-1.352.865 17.467 17.467 0 0 0 1.409-2.692c.027.015 1.463.841 2.184.559a2.81 2.81 0 0 0 1.636-1.623c-1.067.138-1.989-.29-2.683 0z" fill="#b50e4e"/><g data-name="グループ 435" fill="#b50e4e"><path data-name="パス 551" d="M34.601 28.295l-1.023-3.557-.333-1.158-.925.925.9 3.541c.148.581-.24 1.1-.878.9a10.217 10.217 0 0 0-3.326-.8 8.792 8.792 0 0 0-3.787.691c-.134.055-1.028.7-1.064.242l-.059-3.2-.123-6.614c0-.126.3-.19.366-.214a7.971 7.971 0 0 1 1.548-.4 9.248 9.248 0 0 1 3.8.216 2.693 2.693 0 0 1 1.112.483l.595-.594a3.229 3.229 0 0 0-.641-.373 9.692 9.692 0 0 0-3.568-.691 10.582 10.582 0 0 0-3.658.564c-.227.078-.6-.129-.831-.191a10.68 10.68 0 0 0-.829-.188 11.2 11.2 0 0 0-1.863-.185 11.863 11.863 0 0 0-3.554.553 1.133 1.133 0 0 0-.016.007 2.571 2.571 0 0 0-1.716 1.489l-.169.585-.852 2.961-1.165 4.045a6.1 6.1 0 0 0-.506 2.62 1.753 1.753 0 0 0 2.171 1.3 7.412 7.412 0 0 0 .977-.342 12.424 12.424 0 0 1 1.661-.475 8.97 8.97 0 0 1 4.074.212c.3.077 1.416.27 1.448.6.031.311.388.226.613.226h.67a2.168 2.168 0 0 0 .742-.014c.2-.084.045-.3.229-.378a7.616 7.616 0 0 1 .77-.279 12.144 12.144 0 0 1 1.864-.423 8.608 8.608 0 0 1 3.92.354 4.892 4.892 0 0 0 2.317.533 1.785 1.785 0 0 0 1.286-2.368c-.053-.203-.116-.403-.177-.603zm-11.77-6.407l-.132 7.11c0 .158-.046.257-.223.253a8.4 8.4 0 0 0-3.2-1.039 8.94 8.94 0 0 0-3.8.4 4.57 4.57 0 0 1-1.224.38.652.652 0 0 1-.629-.85l.855-3.366 1-3.958q.126-.492.25-.986c.2-.8 1.342-.957 2.021-1.1a8.785 8.785 0 0 1 3.818.037c.218.052 1.315.22 1.31.534q-.019 1.292-.042 2.585z"/><path data-name="パス 552" d="M26.571 26.92l3.327-.706 6.594-6.592L33.87 17l-6.592 6.592zm8.656-7.3l-5.654 5.653-.584-.584 5.654-5.653zm-1.357-1.357l.584.584L28.8 24.5l-.584-.584zm-5.786 5.9l1.243 1.244-1.158.255-.341-.34z"/></g></svg>
