<svg xmlns="http://www.w3.org/2000/svg" viewBox="0 0 142.31 149.36"><defs><style>.cls-1{fill:#1d3033;stroke:#1d3033;stroke-linecap:round;stroke-linejoin:round;stroke-width:.66px}.cls-2{fill:#695f56}.cls-3{fill:#b5a666}.cls-4{fill:#f4f196}.cls-5{fill:#f1a92e}.cls-6{fill:#dece89}.cls-7{fill:#985564}.cls-8{fill:#f7e5d7}.cls-9{fill:#736e54}.cls-10{fill:#f3ed64}.cls-11{fill:#cb99a6}.cls-12{fill:none}</style></defs><g id="レイヤー_2" data-name="レイヤー 2"><g id="レイヤー_3" data-name="レイヤー 3"><path class="cls-1" d="M141.61 38.73c1.39 10.12-.87 19.94-10.61 23.45.08-.13.18-.25.26-.38 8.38-3.82 10-12 9.74-20.43a3.52 3.52 0 0 0 .61-2.64z"/><path class="cls-1" d="M141.61 38.73a3.52 3.52 0 0 1-.66 2.64v-.13c0-.49-.06-1-.08-1.46a3.48 3.48 0 0 0-.18-1.89v-.08a36.8 36.8 0 0 0-.33-2.41 6.51 6.51 0 0 1 1.18 2.69c.02.2.05.43.07.64z"/><path class="cls-2" d="M141.23 136.72c.1 1-.95 2-1.59 2.64a32.22 32.22 0 0 1-4.15 3.31 10.54 10.54 0 0 1-3.08 1.84 4.94 4.94 0 0 0 1.33-1 .37.37 0 0 0 0-.51c4.46-2.69 11.49-8.15 3.16-6.59-1.57.64-8.69 5-7.77 7.13a1.93 1.93 0 0 0 2.08.79.5.5 0 0 0 .41.31 1.94 1.94 0 0 0 .79-.08 3 3 0 0 1-3.61-.17c-1.18-1.08-.13-2.8.74-3.67 2.49-2.41 6-4.56 9.43-4.92.8-.13 2.16-.15 2.26.92z"/><path class="cls-1" d="M141 41.37c.25 8.41-1.36 16.61-9.74 20.43.15-.23.28-.46.41-.69 6.76-4.8 9.1-11.82 8.84-19.28a5.33 5.33 0 0 0 .49-.46z"/><path class="cls-1" d="M141 41.24v.13a5.33 5.33 0 0 1-.49.46c0-.33 0-.67-.05-1a2.26 2.26 0 0 0 .46-1c-.03.44 0 .92.08 1.41zM140.69 37.86a3.48 3.48 0 0 1 .18 1.89c-.05-.64-.1-1.28-.18-1.89z"/><path class="cls-1" d="M140.87 39.75a2.26 2.26 0 0 1-.46 1 34.56 34.56 0 0 0-.59-4.76 6.59 6.59 0 0 1 .87 1.74v.08c.08.66.13 1.3.18 1.94zM141.54 38.06a6.51 6.51 0 0 0-1.18-2.69 46.73 46.73 0 0 0-7.92-19.12 3.46 3.46 0 0 0 .46 0 52.61 52.61 0 0 1 8.64 21.81z"/><path class="cls-3" d="M140.46 41.83c.26 7.46-2.08 14.48-8.84 19.28a7.41 7.41 0 0 0 .82-2.8.65.65 0 0 0-.26-.54c1.62-6.05.69-12.27-1.05-18.2a11.26 11.26 0 0 0 4.23 2 .45.45 0 0 0-.05.66c1.36 1 3.71.67 5-.28a.45.45 0 0 0 .15-.12z"/><path class="cls-1" d="M140.36 35.37c.13.79.25 1.59.33 2.41a6.59 6.59 0 0 0-.87-1.74c-.1-.57-.23-1.16-.36-1.72a11.79 11.79 0 0 1 .9 1.05zM140.46 41.83a.45.45 0 0 1-.13.1c-1.31 1-3.66 1.33-5 .28a.45.45 0 0 1 .05-.66c.23.05.49.1.72.13l-.44.21c2.56.38 4.08-.13 4.77-1.11 0 .38.03.72.03 1.05zM135.15 6.82c2.8-.18 5.34 1.56 4.82 4.61a5.32 5.32 0 0 1-5.38 4.43 2.51 2.51 0 0 0 .79-.69h.05c5.57-1 5.77-10.18-2.89-7-5.56 2.16-3.87 6.21-1.1 7.18a.41.41 0 0 0 .05.18c.13.23.28.43.41.66a4.87 4.87 0 0 1-3.49-2.69v-.07l.07.07c.21.23.62-.07.44-.33s-.49-.67-.77-1c-.15-3.23 4.21-5.17 7-5.35z"/><path class="cls-1" d="M139.82 36a34.56 34.56 0 0 1 .59 4.76c-.69 1-2.21 1.49-4.77 1.11l.44-.21c.28 0 .53.1.82.13s.54-.26.51-.56a2.93 2.93 0 0 0 2.2-.7c.88-.92.59-2.35.06-3.38a9.67 9.67 0 0 0-7.67-4.9c-1.87-.1-2.79.88-2.64 2.28-.18-.43-.38-.84-.59-1.25.44-1.72 2.59-2.54 6.87-.72a9 9 0 0 1 4.15 3.44.06.06 0 0 1 .03 0z"/><path class="cls-2" d="M139.54 138c.41-.46 1.23-1.2.23-1.41-2.85-.54-5.1 1.36-7.15 3.1a9.88 9.88 0 0 0-2.67 3c-.44 1 .62 1 1.64.84a2 2 0 0 0-.36.41.35.35 0 0 0 0 .41 1.93 1.93 0 0 1-2.08-.79c-.92-2.15 6.2-6.49 7.77-7.13 8.33-1.56 1.3 3.9-3.16 6.59a.31.31 0 0 0-.46-.1 5.58 5.58 0 0 1-1.69.61 9.86 9.86 0 0 1 2-1.25c1.1-.62 2.15-1.31 3.2-2a20.31 20.31 0 0 0 2.73-2.28z"/><path class="cls-4" d="M139.77 136.54c1 .21.18 1-.23 1.41a20.31 20.31 0 0 1-2.75 2.23c-1 .72-2.1 1.41-3.2 2a9.86 9.86 0 0 0-2 1.25c-1 .21-2.08.16-1.64-.84a9.88 9.88 0 0 1 2.67-3c2.05-1.69 4.3-3.59 7.15-3.05zM139.67 37.19c.53 1 .82 2.46-.06 3.38a2.93 2.93 0 0 1-2.2.7.62.62 0 0 0-.51-.54 9.12 9.12 0 0 1-7.05-4.62 4.37 4.37 0 0 1-.31-.71.53.53 0 0 0 0-.44q-.07-.18-.15-.33c-.15-1.4.77-2.38 2.64-2.28a9.67 9.67 0 0 1 7.64 4.84z"/><path class="cls-1" d="M140.36 35.37a11.79 11.79 0 0 0-.93-1.1 63.44 63.44 0 0 0-7.53-18.13 3.45 3.45 0 0 0 .54.11 46.73 46.73 0 0 1 7.92 19.12zM139.43 34.27c.13.56.26 1.15.36 1.72a9 9 0 0 0-4.15-3.39c-4.28-1.82-6.43-1-6.87.72l-.38-.67c.61-1.25 2.07-1.92 3.94-1.74a12.23 12.23 0 0 1 7.1 3.36zM132.54 8.12c8.66-3.15 8.46 6 2.89 7a3.66 3.66 0 0 0 .37-.54.51.51 0 0 0 0-.31 4 4 0 0 0 2.74-2.87 2.61 2.61 0 0 0-2.9-3.28c-2 .07-7.38 1.74-5.89 4.71a3.36 3.36 0 0 0 2.2 1.85c1.26.28 2-.26 3.08-.85a.53.53 0 0 1 .77.44 4.27 4.27 0 0 1-.72.21l.2-.18-.25.2a5.14 5.14 0 0 1-1 .15.67.67 0 0 0-.56.72 2.46 2.46 0 0 1-1.23.08 3.16 3.16 0 0 0-.28-.39c-.18-.23-.54 0-.56.21-2.73-.94-4.4-4.99 1.14-7.15zM139 119.5a.91.91 0 0 1-.61 1.1c-6.33 1.84-12.38 4.48-18.84 5.84a.87.87 0 0 1-1-.66.83.83 0 0 0 1.39-.31c6.18-1.26 12-4 18.22-5.74-1.71-4.49-3.1-9.31-5-14-1.43-3.9-3.82-7.92-5.38-11.82a.58.58 0 0 0 .41 0c4.32 8.31 7.55 16.85 10.81 25.59z"/><path class="cls-3" d="M139.43 34.27a12.23 12.23 0 0 0-7.1-3.36c-1.87-.18-3.33.49-3.94 1.74C124 25 115 22.43 107.93 17.84a.34.34 0 0 0-.26 0c-.67-.51-1.33-1-2-1.48a41.17 41.17 0 0 0-25.07-8c-.69-7.16 17.4-6.7 21.23-6.49 9.79.51 20.15 3.74 26.56 11.51v.07a4.87 4.87 0 0 0 3.49 2.69 63.44 63.44 0 0 1 7.55 18.13z"/><path class="cls-4" d="M135.69 8.15a2.61 2.61 0 0 1 2.9 3.28 4 4 0 0 1-2.74 2.87.53.53 0 0 0-.77-.44c-1.05.59-1.82 1.13-3.08.85a3.36 3.36 0 0 1-2.2-1.85c-1.49-2.97 3.92-4.64 5.89-4.71z"/><path class="cls-1" d="M138.31 85.64a2.31 2.31 0 0 1-.69 2.51.45.45 0 0 0-.37-.54c3.18-4.2-8.5-4-10.58 1.69a7.88 7.88 0 0 0-.51 1.9 10 10 0 0 0-.47-1.33 6.22 6.22 0 0 1 .52-1.29c1.59-3.12 5.74-4.89 9.15-4.51 1.1.13 2.46.44 2.95 1.57z"/><path class="cls-1" d="M126.67 89.3c2.08-5.69 13.76-5.89 10.58-1.69a.48.48 0 0 0-.35.13 3 3 0 0 1-.49.46.58.58 0 0 1 0-.41c.38-.85 1.31-1.85-.1-2.23a7 7 0 0 0-3.18 0c-2.72.54-5.38 2-6.1 4.89-.77 3.28 2.59 1.82 4.33 1a18.77 18.77 0 0 0 5-3.2.47.47 0 0 0 .31.38c-2 2-6.44 4.69-8.9 4.69a1 1 0 0 0-.12-.25c-.16-.26-.57-.08-.49.18a1.42 1.42 0 0 1-1.08-1.49.5.5 0 0 0 .05-.44 7.88 7.88 0 0 1 .54-2.02z"/><path class="cls-1" d="M137.25 87.61a.45.45 0 0 1 .37.54 3.68 3.68 0 0 1-.47.36.44.44 0 0 1-.43.07 4.51 4.51 0 0 0 .48-.53h-.3a5.13 5.13 0 0 0 .35-.44z"/><path class="cls-1" d="M137.62 88.15s0 .07-.06.13a15.31 15.31 0 0 1-8.64 5.61 2.35 2.35 0 0 1-.74 0c-.13-.23-.23-.43-.36-.67 2.46 0 6.92-2.71 8.9-4.69a.44.44 0 0 0 .43-.07 3.68 3.68 0 0 0 .47-.31zM137.41 41.27c0 .3-.13.61-.51.56s-.54-.08-.82-.13l.79-.39a4.87 4.87 0 0 1 .54-.04zM137.41 41.27a4.87 4.87 0 0 0-.54 0 10.06 10.06 0 0 1-6.13-2.85.3.3 0 0 0-.13-.12 7 7 0 0 1-1.56-2.34.78.78 0 0 0 .46-.53 4.37 4.37 0 0 0 .31.71 9.12 9.12 0 0 0 7.05 4.62.62.62 0 0 1 .54.51z"/><path class="cls-1" d="M137.25 87.61a5.13 5.13 0 0 1-.35.44h.3a4.51 4.51 0 0 1-.48.53.47.47 0 0 1-.31-.38 3 3 0 0 0 .49-.46.48.48 0 0 1 .35-.13zM136.9 41.27a3.53 3.53 0 0 0-1.46.21 11.26 11.26 0 0 1-4.23-2c-.1-.39-.2-.74-.33-1.13a10.06 10.06 0 0 0 6.02 2.92z"/><path class="cls-1" d="M136.87 41.29l-.79.39c-.23 0-.49-.08-.72-.13a3.53 3.53 0 0 1 1.51-.26z"/><path class="cls-4" d="M136.31 85.56c1.41.38.48 1.38.1 2.23a.58.58 0 0 0 0 .41 18.77 18.77 0 0 1-5 3.2c-1.74.82-5.1 2.28-4.33-1 .72-2.89 3.38-4.35 6.1-4.89a7 7 0 0 1 3.13.05z"/><path class="cls-1" d="M135.85 14.3a.51.51 0 0 1 0 .31 3.66 3.66 0 0 1-.37.54h-.05a5.34 5.34 0 0 1-1.28.08l.08-.08c.08 0 .13 0 .15-.1a2 2 0 0 0 .75-.54 4.27 4.27 0 0 0 .72-.21zM131.64 120.91c4.82-1.7 5.2-2 3.64-6.87-2.15-6.9-5.72-13.26-7.84-20.12a1.67 1.67 0 0 0 .33 0c1.56 3.9 4 7.92 5.38 11.82 1.9 4.66 3.29 9.48 5 14-6.2 1.69-12 4.48-18.22 5.74a.43.43 0 0 0 0-.41c0-.15-.07-.31-.13-.46a120.58 120.58 0 0 0 11.84-3.7z"/><path class="cls-5" d="M135.28 114c1.56 4.92 1.18 5.17-3.64 6.87a120.58 120.58 0 0 1-11.82 3.69c-1.63-6.21-.25-12.72-1.53-19a84.48 84.48 0 0 0-6.18-18.92 25.85 25.85 0 0 0 3.74-2.71c.75-.59 1.44-1.21 2.16-1.82.92 1.28 2.1 2.38 3.12 3.59a47.1 47.1 0 0 1 3.9 6.07.56.56 0 0 0 .51.28 2.16 2.16 0 0 0 1.9 1.88c2.12 6.85 5.69 13.21 7.84 20.07zm-7.28 4.7c3.08-.38 6.33-4.25 6.2-7.25-.15-4.36-6.43-3.1-8.89-2-3 1.3-5 4.89-3.69 8.1s4.15 2.84 6.36 1.2z"/><path class="cls-1" d="M135.33 14.33l-.2.18zM135.08 14.53l-.75.54c0 .08-.07.1-.15.1a1.38 1.38 0 0 1-.64.23.67.67 0 0 1 .56-.72 5.14 5.14 0 0 0 .98-.15z"/><path class="cls-1" d="M134.33 15.07l.75-.54a2 2 0 0 1-.75.54zM134.1 15.25a5.34 5.34 0 0 0 1.28-.08 2.51 2.51 0 0 1-.79.69 4.6 4.6 0 0 1-.64 0 .46.46 0 0 1-.41-.41 1.38 1.38 0 0 0 .64-.23z"/><path class="cls-1" d="M134 15.81a4.6 4.6 0 0 0 .64 0 3.41 3.41 0 0 1-1.69.41c-.18-.28-.39-.53-.59-.79a2.46 2.46 0 0 0 1.23-.08.46.46 0 0 0 .41.46zM134.15 111.45c.13 3-3.12 6.87-6.2 7.25.23-.18.44-.36.64-.54a.43.43 0 0 0 .1-.51c5.67-2.69 7.36-10.25-1.1-8.23-8.74 2-6 12.61-.41 9.15a.51.51 0 0 0 .41.16 1.31 1.31 0 0 0 .34 0c-2.21 1.64-5.13 1.9-6.36-1.2s.67-6.8 3.69-8.1c2.46-1.08 8.74-2.34 8.89 2.02z"/><path class="cls-2" d="M133.74 143a.37.37 0 0 1 0 .51 4.94 4.94 0 0 1-1.33 1 1.94 1.94 0 0 1-.79.08.5.5 0 0 1-.41-.31 4.33 4.33 0 0 0 2.28-1.1l-.59.28z"/><path class="cls-2" d="M132.9 143.46l.59-.28a4.33 4.33 0 0 1-2.28 1.1.35.35 0 0 1 0-.41 2 2 0 0 1 .36-.41 5.58 5.58 0 0 0 1.69-.61.31.31 0 0 1 .46.1z"/><path class="cls-1" d="M127.59 109.42c8.46-2 6.77 5.54 1.1 8.23a.51.51 0 0 0-.84-.23 5.91 5.91 0 0 1-.8.54.68.68 0 0 1 .23-.39c2-1.53 5.26-2.61 5.41-5.66.18-3.26-4.94-2-6.61-1.13-2.1 1.08-3.9 3.36-3.13 5.85.67 2.1 2.51 2.17 4.1 1.33a.56.56 0 0 0 .13.61c-5.54 3.43-8.33-7.1.41-9.15zM132.31 15.48c.2.26.41.51.59.79a3.46 3.46 0 0 1-.46 0c-.21-.28-.39-.54-.59-.82a3.15 3.15 0 0 0 .43.05z"/><path class="cls-4" d="M126.08 110.78c1.67-.87 6.79-2.13 6.61 1.13-.15 3-3.43 4.13-5.41 5.66a.68.68 0 0 0-.23.39c-1.59.84-3.43.77-4.1-1.33-.77-2.49 1.05-4.77 3.13-5.85z"/><path class="cls-1" d="M132.18 57.77a.65.65 0 0 1 .26.54 7.41 7.41 0 0 1-.82 2.8 9.8 9.8 0 0 1-.85.58c-.2.13-.1.52.13.52a2.43 2.43 0 0 1-.21.31 3 3 0 0 0-.12-.65.21.21 0 0 0-.16-.12 6.37 6.37 0 0 0 1.26-2.59.3.3 0 0 0 .18-.2c.15-.42.23-.8.33-1.19zM131.85 15.43c.2.28.38.54.59.82a3.45 3.45 0 0 1-.54-.11c-.13-.23-.28-.43-.41-.66a.41.41 0 0 1-.05-.18 2.8 2.8 0 0 0 .41.13zM131.13 39.57c1.74 5.93 2.67 12.15 1.05 18.2a.65.65 0 0 0-.41-.15h-.15a41.7 41.7 0 0 0 .51-11.41c-.33-2.36-1.36-4.71-1.54-7.07a4.16 4.16 0 0 0 .51.41s.03 0 .03.02z"/><path class="cls-1" d="M131.85 15.43a2.8 2.8 0 0 1-.41-.13c0-.23.38-.44.56-.21a3.16 3.16 0 0 1 .28.39 3.15 3.15 0 0 1-.43-.05zM132.13 46.21a41.7 41.7 0 0 1-.51 11.41 2.63 2.63 0 0 0-.49.05.3.3 0 0 0 0-.13 16.41 16.41 0 0 0 0-1.72 49 49 0 0 0 .41-8.22c-.26-3-1.59-5.77-1.28-8.72a.86.86 0 0 0 .28.23c.23 2.39 1.26 4.74 1.59 7.1zM132.18 57.77c-.1.39-.2.77-.33 1.16a.3.3 0 0 1-.18.2.44.44 0 0 0 .05-.15h0a4.32 4.32 0 0 0 .05-.62.77.77 0 0 0-.26 0c.05-.23.08-.49.11-.72h.15a.65.65 0 0 1 .41.13z"/><path class="cls-1" d="M131.77 58.31a4.32 4.32 0 0 1-.05.62c-.1-.11-.18-.18-.26-.26s0-.23 0-.33a.77.77 0 0 1 .31-.03zM131.77 59h-.05.05z"/><path class="cls-1" d="M131.46 58.67c.08.08.16.15.26.26a4.49 4.49 0 0 0-.64.1s0-.08-.05-.1a2.07 2.07 0 0 0 .07-.57h.05zM131.72 59a.44.44 0 0 1-.05.15.52.52 0 0 1-.59-.08 4.49 4.49 0 0 1 .64-.07z"/><path class="cls-6" d="M131.59 47.6a49 49 0 0 1-.41 8.22 6.7 6.7 0 0 0-.49-2.56c-.49-12.61-9.36-23.89-19-32.2 2 1.13 4.23 2.08 6.28 3.23a24.8 24.8 0 0 1 10 11.36.69.69 0 0 0 .49.41 7.38 7.38 0 0 0 1.92 2.84c-.38 2.93.95 5.75 1.21 8.7z"/><path class="cls-1" d="M131.08 59.08a.52.52 0 0 0 .59.08 6.37 6.37 0 0 1-1.26 2.59.2.2 0 0 0-.18.12.8.8 0 0 0 0 .21c-1.11 1.41-2.54 2.72-3.49 4.06l-.69-.39a13 13 0 0 1 2-2.31c1.18-1.28 2.59-2.66 3-4.38-.05-.01 0-.01.03.02zM131.62 57.62c0 .23-.06.49-.11.72a.88.88 0 0 0-.36 0H131v-.31a1 1 0 0 0 .1-.38 2.63 2.63 0 0 1 .52-.03zM131.21 61.8c-.08.13-.18.25-.26.38-.23 0-.33-.39-.13-.52a9.8 9.8 0 0 0 .85-.58c-.18.26-.31.49-.46.72z"/><path class="cls-1" d="M131.51 58.34v.33l-.31-.31a.88.88 0 0 1 .31-.02zM129.77 69.41a.62.62 0 0 0 .21-.13 1.17 1.17 0 0 0 .3-.51 9.3 9.3 0 0 1 .93 1 .6.6 0 0 1-.08.85c-.16-.34-.54-.57-.87-.31a4.09 4.09 0 0 0-.33.28 29.08 29.08 0 0 0-7-4.33 19.11 19.11 0 0 1-5.18-3.1c.08-.1.13-.21.21-.31a.71.71 0 0 0 .08-.31 15 15 0 0 0 2.69 1.75.68.68 0 0 0 .92.56s.08 0 .1-.05c1.28.64 2.62 1.2 3.93 1.84a1 1 0 0 0-.06.41.49.49 0 0 0 .72.41 1.54 1.54 0 0 0 .36-.25 14.65 14.65 0 0 1 2.39 1.56 1.15 1.15 0 0 0 .33.46.66.66 0 0 0 .35.18zM131.18 55.82a16.41 16.41 0 0 1 0 1.72.3.3 0 0 1 0 .13H131c.05-.62.1-1.23.18-1.85zM130.51 70.92a.94.94 0 0 0 .59-.23.59.59 0 0 1-.13.64c-1.33 1.34-2.59 2.75-3.9 4.08-.92 1-2 2.43-3.43 2.49a.49.49 0 0 1-.36-.13.67.67 0 0 0 0-.57.31.31 0 0 0 .1-.43.91.91 0 0 0-.13-.16 6.32 6.32 0 0 1 1.21-1.13c.69-.62 1.38-1.23 2.07-1.87a40.48 40.48 0 0 1 3.34-3 .24.24 0 0 0 .1.1.74.74 0 0 0 .54.21zM131.15 58.36h-.05z"/><path class="cls-1" d="M130.54 70.92a.74.74 0 0 1-.48-.18.24.24 0 0 1-.1-.1 4.09 4.09 0 0 1 .33-.28c.33-.26.71 0 .87.31a.94.94 0 0 1-.62.25zM131 57.67h.1a1 1 0 0 1-.1.38zM130.59 39.11a.86.86 0 0 1-.28-.23c0-.15.05-.33.08-.49a.16.16 0 0 1 .25-.12.3.3 0 0 1 .13.12c.13.39.23.74.33 1.13a4.16 4.16 0 0 1-.51-.41zM131.1 58.36a2.07 2.07 0 0 1-.07.57.15.15 0 0 1 0-.11v-.46zM131.08 59.08H131c-.03 0 0-.08 0-.1s.05.07.08.1z"/><path class="cls-1" d="M131.18 55.82c-.08.62-.13 1.23-.15 1.85a6 6 0 0 0-1.16.26 27.05 27.05 0 0 0 .18-3.26 1 1 0 0 0 .64-1 2.75 2.75 0 0 0 0-.41 6.7 6.7 0 0 1 .49 2.56z"/><path class="cls-1" d="M129.87 57.93a6 6 0 0 1 1.16-.26v.38a1.23 1.23 0 0 1-.23.36 5.89 5.89 0 0 0-1.24.34l-.3-.18c-.13-.1-.23-.23-.34-.33a5.28 5.28 0 0 1 .95-.31zM131 58.93v.1c-3.2.62-5.33 3.59-8.12 5.23l-.88-.36c2.59-1.38 4.9-4.1 7.61-5.15a.8.8 0 0 0 .75 0 1.2 1.2 0 0 0 .23-.11.93.93 0 0 0 .26-.18 1 1 0 0 1 .2 0v.46a.15.15 0 0 0-.05.01z"/><path class="cls-1" d="M131 58.05v.31a1 1 0 0 0-.2 0 1.23 1.23 0 0 0 .2-.31zM130.8 58.41a.93.93 0 0 1-.26.18 1.2 1.2 0 0 1-.23.11.8.8 0 0 1-.75 0 5.89 5.89 0 0 1 1.24-.29zM130.69 62.52a14.23 14.23 0 0 1-.2 3.79 8.91 8.91 0 0 1-.21 2.46 4 4 0 0 0-.61-.56c.05-1.59.51-3.44.66-5.23.13-.16.26-.31.36-.46zM129.51 53.11a.76.76 0 0 1 1.16.13 2.75 2.75 0 0 1 0 .41 1 1 0 0 1-.64 1 1.24 1.24 0 0 1-1.05 0 5.69 5.69 0 0 1 .41-1.39s.07-.13.12-.15z"/><path class="cls-1" d="M130.33 63c-.07.1-.15.18-.23.28s-.23.28-.35.41a9.76 9.76 0 0 1 .41-1.57c.08-.1.15-.23.23-.33a.21.21 0 0 1 .16.12 3 3 0 0 1 .12.65c-.08.11-.21.26-.34.44zM130.64 38.27a.16.16 0 0 0-.25.12c0 .16-.06.34-.08.49a7.38 7.38 0 0 1-1.92-2.88.93.93 0 0 0 .69-.11 7 7 0 0 0 1.56 2.38zM130.41 61.75c-.08.1-.15.23-.23.33a.8.8 0 0 1 0-.21.2.2 0 0 1 .23-.12z"/><path class="cls-1" d="M130.1 63.26c.08-.1.16-.18.23-.28-.15 1.79-.61 3.64-.66 5.23a7.68 7.68 0 0 0-.69-.59 14.34 14.34 0 0 1 .3-1.46c.16-.83.28-1.67.47-2.49.12-.13.25-.28.35-.41zM130.67 53.24a.76.76 0 0 0-1.16-.13c.05-6.9-3.48-14-7.58-19.33-7.59-10.33-18.13-20.17-30.71-23.63-9.15-2.36-20.1-1.08-28.17 4a.57.57 0 0 0-.87.62v.12a.62.62 0 0 1 0-1A34.78 34.78 0 0 1 80 8.38a.64.64 0 0 0 .07.28.25.25 0 0 0 .49-.13v-.18a41.17 41.17 0 0 1 25.07 8c.67.48 1.33 1 2 1.48a.33.33 0 0 0-.08.49 20.75 20.75 0 0 0 4.07 2.68c9.69 8.35 18.56 19.63 19.05 32.24z"/><path class="cls-1" d="M129.67 68.21a4 4 0 0 1 .61.56 1.17 1.17 0 0 1-.3.51.62.62 0 0 1-.21.13 5.17 5.17 0 0 0-.69-.59 2.19 2.19 0 0 1-.1-1.2 7.68 7.68 0 0 1 .69.59zM130.05 54.67a27.05 27.05 0 0 1-.18 3.26 5.28 5.28 0 0 0-1 .31c-.43-.7-.12-1.62 0-2.44a9 9 0 0 1 .13-1.15 1.24 1.24 0 0 0 1.05.02zM130.16 62.1a9.76 9.76 0 0 0-.41 1.57c-.6.67-1.21 1.31-1.77 2-.23.28-.44.59-.65.87-.2-.13-.43-.26-.66-.38.95-1.34 2.38-2.65 3.49-4.06z"/><path class="cls-1" d="M129.77 69.41a.66.66 0 0 1-.36-.13 1.15 1.15 0 0 1-.33-.46 5.17 5.17 0 0 1 .69.59zM129.51 34.93a.53.53 0 0 1 0 .44 2.16 2.16 0 0 1-.18-.77q.11.15.18.33zM129.26 58.57l.3.18c-2.71 1-5 3.77-7.61 5.15-.31-.13-.59-.28-.89-.44 2.61-1.56 5-4.07 7.86-5.22.08.1.21.23.34.33z"/><path class="cls-1" d="M129.54 35.37a.78.78 0 0 1-.46.53 3.69 3.69 0 0 1-.31-2.61c.21.41.41.82.59 1.25a2.16 2.16 0 0 0 .18.83zM121.93 33.78c4.1 5.36 7.63 12.43 7.58 19.33 0 0-.07.1-.1.15a5.69 5.69 0 0 0-.41 1.39 1.12 1.12 0 0 1-.64-1 6.3 6.3 0 0 0-.05-.75 1.35 1.35 0 0 1 .18.26.41.41 0 0 0 .74-.31A14.64 14.64 0 0 0 128 49.8c-2.2-13.38-13.79-26.4-24.73-33.3-12.38-7.76-26.92-9-39.86-1.82a.54.54 0 0 1-.1-.2.59.59 0 0 0-.26-.31c8.07-5.1 19-6.38 28.17-4 12.58 3.44 23.12 13.28 30.71 23.61z"/><path class="cls-7" d="M129.75 63.67c-.19.82-.31 1.66-.47 2.49a14.34 14.34 0 0 0-.3 1.46 13.8 13.8 0 0 0-1.65-1.08c.21-.28.42-.59.65-.87.56-.67 1.17-1.33 1.77-2z"/><path class="cls-2" d="M125.34 127.16c2.07.8 4.2 3.08 3.94 5.46a2.18 2.18 0 0 1-1.53 2 3.86 3.86 0 0 1-3.41-.79 2 2 0 0 0 .64-.18c6.13 2.33 3.87-6.23-2-6.23-5.71 0-2.48 4.74 1 5.72a.38.38 0 0 0 .1.46l.34.23c-2.16.26-5-2.44-5.23-4.33-.52-3.19 4.25-3.06 6.15-2.34z"/><path class="cls-1" d="M128.21 51.37c-.05-.52-.13-1.06-.21-1.57a14.64 14.64 0 0 1 1.23 3.05.41.41 0 0 1-.74.31 1.35 1.35 0 0 0-.18-.26 14.71 14.71 0 0 0-.1-1.53zM129 67.62a2.19 2.19 0 0 0 .1 1.2 14.65 14.65 0 0 0-2.39-1.56 3.1 3.1 0 0 0 .64-.72 13.8 13.8 0 0 1 1.65 1.08zM128.18 12.61a1.21 1.21 0 0 1-.05-.49c.28.33.54.67.77 1s-.23.56-.44.33l-.07-.07a3.07 3.07 0 0 1-.21-.77zM128.05 33.78a2.45 2.45 0 0 1 .34-1.13l.38.67a3.69 3.69 0 0 0 .31 2.61.93.93 0 0 1-.69.11c0-.13-.11-.26-.16-.41a4.5 4.5 0 0 1-.18-1.85z"/><path class="cls-7" d="M129 54.65a9 9 0 0 0-.13 1.15c-.07.82-.38 1.74 0 2.44-2.87 1.15-5.25 3.66-7.86 5.22-.26-.1-.52-.23-.77-.35a.58.58 0 0 0 .07-.7 4.5 4.5 0 0 0-3.84-2.41 11.37 11.37 0 0 0 3.79-4.77c.21-.59-.59-.94-1-.56-3.08 3-5.87 5.79-9.62 7.82-.66-3.72 1-7.33 1-11 .67 1.18 1.39 2.35 2.16 3.48a.8.8 0 0 0 1.46-.18 37.86 37.86 0 0 0 1.23-9.53.44.44 0 0 0-.87-.13A53.36 53.36 0 0 0 112.9 53c-1.64-1.72-2.38-4.54-3.46-6.49a48.74 48.74 0 0 1-4.66-10.43c0-.08 0-.16-.1-.18a.35.35 0 0 0-.54-.36 18.78 18.78 0 0 0-6.51 6.84c-.52-2.82-.46-5.79-1.28-8.51h.1a.25.25 0 0 0 0-.49c-4.67-.28-9.28 1.36-13.87 2.23 1-2.46 2.51-4.82 2.64-7.51a.34.34 0 0 0-.64-.15c-.41.95-.87 1.87-1.31 2.79a.34.34 0 0 0-.18 0 40.15 40.15 0 0 0-8.18 2.67 9.55 9.55 0 0 1 1.92-2.82c.31-.31.13-1-.38-.95a71.15 71.15 0 0 0-10.1 2.18 16.27 16.27 0 0 1 9.18-7.89.47.47 0 0 0-.26-.9c-4.59.69-8.92 5.48-10.64 9.61-.18.44.33.87.77.74.62-.2 1.26-.38 1.9-.56-2 2.23-3.21 5-4.64 7.61-1.08 2-2.39 3.8-3.36 5.77-.08-.61-.16-1.25-.26-1.9-.48-3.12-.36-4.94 1.26-7.48h.43c.52 0 .52-.67.11-.82l-.13-.06a.34.34 0 0 0-.41-.23h-.1a12.76 12.76 0 0 0-6.75-.69c3.26-4 7.1-7.53 11.95-9.43l.87.26c.64.18 1-.75.46-1.05-2.51-1.26-5-2.59-7.59-3.77a128 128 0 0 1 13.85-2.36.49.49 0 0 0 .43-.33A135.13 135.13 0 0 1 89.45 23c8.79 3 17.28 5.9 24.09 12.51 5.26 5.1 11 11 14.77 17.3a6.3 6.3 0 0 1 .05.75 1.12 1.12 0 0 0 .64 1.09z"/><path class="cls-1" d="M128.69 117.65a.43.43 0 0 1-.1.51c-.2.18-.41.36-.64.54a1.31 1.31 0 0 1-.34 0 .51.51 0 0 1-.41-.16 5.91 5.91 0 0 0 .85-.64c.21-.07.44-.15.64-.25z"/><path class="cls-2" d="M123 127.39c5.92 0 8.18 8.56 2 6.23a.33.33 0 0 0 .13-.49c1.23.28 3 .52 2.85-.95a4.86 4.86 0 0 0-3-3.69c-1-.43-5.46-.92-4.28 1.26a5.58 5.58 0 0 0 2 2 24.79 24.79 0 0 1 2.3 1.18.53.53 0 0 1 .13.2l-.84-.2a.33.33 0 0 0-.39.18c-3.43-.98-6.66-5.72-.9-5.72z"/><path class="cls-8" d="M131 59.08c-.38 1.72-1.79 3.1-3 4.38a13 13 0 0 0-2 2.31c-1-.51-2-1-3.1-1.46 2.77-1.64 4.9-4.61 8.1-5.23z"/><path class="cls-1" d="M128.16 117.8l-.57.29.44-.16a5.91 5.91 0 0 1-.85.64.56.56 0 0 1-.13-.61 5.91 5.91 0 0 0 .8-.54.51.51 0 0 1 .84.23c-.2.1-.43.18-.66.28.05-.02.08-.07.13-.13zM128.23 35.63c.05.15.11.28.16.41a.69.69 0 0 1-.49-.41 24.8 24.8 0 0 0-10-11.36c-2.05-1.15-4.23-2.1-6.28-3.23-.59-.54-1.2-1-1.82-1.54 3.92 2.41 8.82 3.72 12.31 7.21a30.79 30.79 0 0 1 5.94 7.07 4.5 4.5 0 0 0 .18 1.85z"/><path class="cls-6" d="M129.93 70.64a40.48 40.48 0 0 0-3.34 3c-.69.64-1.38 1.25-2.07 1.87a6.32 6.32 0 0 0-1.21 1.13c-1-1.34-3.38-1.9-4.79-2.64a40.86 40.86 0 0 1-5.67-4.13.7.7 0 0 0 .23-.2 37.2 37.2 0 0 1 2.23-3.52 27.56 27.56 0 0 0 2.39-2.89 19.11 19.11 0 0 0 5.18 3.1 29.08 29.08 0 0 1 7.05 4.28z"/><path class="cls-1" d="M128.21 51.37a14.71 14.71 0 0 1 .1 1.48c-3.77-6.3-9.51-12.2-14.77-17.3-6.81-6.61-15.3-9.48-24.09-12.51a135.13 135.13 0 0 0-16.1-4.66.44.44 0 0 0-.43-.57 20.19 20.19 0 0 0-2.46 0h-.06c-.4-.1-.84-.15-1.25-.23-1.77-.28-6.33-.36-7-2.67a.59.59 0 0 0 .62.08c.79 1.44 7.82 1.92 9.4 2.23a122.42 122.42 0 0 1 15.36 4.31c6.92 2.41 14.07 4.51 20.32 8.41 4.57 2.84 8.06 7 11.57 11 2.76 3.06 6.84 6.53 8.79 10.43zM128.18 12.61a3.07 3.07 0 0 0 .21.77c-6.41-7.77-16.77-11-26.56-11.51C98 1.66 79.91 1.2 80.58 8.35a1.12 1.12 0 0 0-.31 0C78.58 3.59 90.94 1.3 93.78 1.12c11.33-.66 26.97 1.75 34.4 11.49z"/><path class="cls-1" d="M128.13 12.12a1.21 1.21 0 0 0 .05.49C120.75 2.87 105.11.46 93.78 1.12c-2.84.18-15.2 2.47-13.51 7.26a.36.36 0 0 0-.25 0c-2.28-6.64 12.92-8 16.86-8 11.36 0 23.94 2.46 31.25 11.74zM128.18 93.94a.58.58 0 0 1-.41 0c-.1-.23-.18-.46-.28-.69a1.72 1.72 0 0 0 .33 0c.18.26.23.46.36.69zM128.16 117.8c0 .06-.08.11-.13.13l-.44.16zM128 49.8c.08.51.16 1.05.21 1.57-2-3.9-6-7.36-8.74-10.41-3.51-4-7-8.18-11.57-11-6.25-3.9-13.4-6-20.32-8.41a122.42 122.42 0 0 0-15.36-4.31c-1.58-.31-8.61-.79-9.4-2.23a4.74 4.74 0 0 1 .54-.29c1 1.62 6.66 1.44 8.12 1.65a57.63 57.63 0 0 1 9.77 2.33c7.07 2.15 14.46 4.3 21.17 7.51s11.38 7.28 16.2 12.74c3.08 3.48 7.1 6.71 9.31 10.87zM128.39 32.65a2.45 2.45 0 0 0-.34 1.13 30.79 30.79 0 0 0-5.94-7.07c-3.49-3.49-8.39-4.8-12.31-7.21l-2.13-1.69a.34.34 0 0 1 .26 0C115 22.43 124 25 128.39 32.65z"/><path class="cls-4" d="M128 132.18c.1 1.47-1.62 1.23-2.85.95a.53.53 0 0 0-.13-.2 24.79 24.79 0 0 0-2.3-1.18 5.58 5.58 0 0 1-2-2c-1.18-2.18 3.28-1.69 4.28-1.26a4.86 4.86 0 0 1 3 3.69z"/><path class="cls-1" d="M127.49 93.25a1.08 1.08 0 0 1-.28 0c-.08-.26.33-.44.49-.18a1 1 0 0 1 .12.25 1.72 1.72 0 0 1-.33-.07z"/><path class="cls-1" d="M127.49 93.25c.1.23.18.46.28.69a1.67 1.67 0 0 1-.33 0 5.19 5.19 0 0 1-.23-.7 1.08 1.08 0 0 0 .28.01z"/><path class="cls-1" d="M127.21 93.22a5.19 5.19 0 0 0 .23.7 2.16 2.16 0 0 1-1.9-1.88.66.66 0 0 0 .59-.33 1.42 1.42 0 0 0 1.08 1.49zM126.67 66.16c.23.12.46.25.66.38a3.1 3.1 0 0 1-.64.72 2.15 2.15 0 0 0-.51-.28 4.43 4.43 0 0 1 .49-.82z"/><path class="cls-1" d="M126 65.77l.69.39a4.43 4.43 0 0 0-.51.79c-.18-.08-.36-.18-.51-.26a2.05 2.05 0 0 1 .33-.92zM126.16 67a2.15 2.15 0 0 1 .51.28 1.54 1.54 0 0 1-.36.25.49.49 0 0 1-.72-.41 1 1 0 0 1 .06-.41c.15.08.33.18.51.26zM126.18 91.27a.5.5 0 0 1-.05.44 2.64 2.64 0 0 1 0-.46z"/><path class="cls-1" d="M125.46 91.25a5.87 5.87 0 0 1 .23-1.35 10 10 0 0 1 .47 1.33 2.64 2.64 0 0 0 0 .46.66.66 0 0 1-.59.33 3.84 3.84 0 0 1-.11-.77zM122.88 64.31c1.05.46 2.1 1 3.1 1.46a2.05 2.05 0 0 0-.33.92c-1.31-.64-2.65-1.2-3.93-1.84a12.22 12.22 0 0 0 1.16-.54z"/><path class="cls-3" d="M128 49.78c-2.21-4.16-6.23-7.39-9.31-10.87-4.82-5.46-9.58-9.59-16.2-12.74s-14.1-5.36-21.17-7.51a57.63 57.63 0 0 0-9.77-2.33c-1.46-.21-7.07 0-8.12-1.65 12.94-7.22 27.48-5.94 39.86 1.82 10.92 6.9 22.51 19.92 24.71 33.28z"/><path class="cls-1" d="M125.69 89.87a5.87 5.87 0 0 0-.23 1.35 28.73 28.73 0 0 0-7.1-9.43l.36-.36a17.88 17.88 0 0 1 4.28 4.31 20.23 20.23 0 0 1 2.69 4.13z"/><path class="cls-1" d="M125.46 91.25a3.84 3.84 0 0 0 .08.79.56.56 0 0 1-.51-.28 47.1 47.1 0 0 0-3.9-6.07c-1-1.21-2.2-2.31-3.12-3.59.12-.1.23-.23.35-.31a28.73 28.73 0 0 1 7.1 9.43z"/><path class="cls-2" d="M124.77 133.29a4.22 4.22 0 0 1-.87-.18.33.33 0 0 1 .39-.18l.84.2a.33.33 0 0 1-.13.49c-.26-.08-.51-.21-.8-.33z"/><path class="cls-2" d="M124.18 133.29c.29.12.54.25.8.33a2 2 0 0 1-.64.18l-.34-.23a.38.38 0 0 1-.1-.46 4.22 4.22 0 0 0 .87.18z"/><path class="cls-1" d="M123.44 76.77a.31.31 0 0 1-.1.43 1.14 1.14 0 0 0-.13-.38c0-.08.05-.13.1-.21a.91.91 0 0 1 .13.16zM123.34 77.2a.67.67 0 0 1 0 .57.64.64 0 0 1-.28-.46.54.54 0 0 0 .28-.08v-.03z"/><path class="cls-1" d="M123.34 77.2a.54.54 0 0 1-.28.08.52.52 0 0 1 0-.18l.08-.18s0-.08.08-.13a1.14 1.14 0 0 1 .12.41z"/><path class="cls-1" d="M123.31 76.59c0 .08-.1.13-.1.21-.46-.82-1.59-1.44-2.1-.62a25.07 25.07 0 0 1-8.28-5.76.46.46 0 0 0-.16-.57.37.37 0 0 0 .18-.05 40.86 40.86 0 0 0 5.67 4.2c1.41.69 3.82 1.25 4.79 2.59z"/><path class="cls-1" d="M123.21 76.82c0 .05-.08.08-.08.13a14.82 14.82 0 0 1-2-.75c.49-.82 1.62-.2 2.08.62z"/><path class="cls-1" d="M121.82 77.38a3.76 3.76 0 0 1-1-.25 1.9 1.9 0 0 1 .29-.9 14.82 14.82 0 0 0 2 .75l-.08.18a.52.52 0 0 0 0 .18 2.16 2.16 0 0 1-1.21.04z"/><path class="cls-1" d="M123 77.31a.64.64 0 0 0 .28.46c-.13.3-.49.56-1.2.61-.88.08-2.36 2.13-3 2.69a4.4 4.4 0 0 1-.41.36 3.92 3.92 0 0 0-.56-.33.43.43 0 0 0-.46.05c1.48-1.26 2.87-2.54 4.12-3.77a2.16 2.16 0 0 0 1.23-.07zM122 63.9l.93.41a12.22 12.22 0 0 1-1.16.54l-1-.51a.75.75 0 0 1 .33-.85c.26.13.54.28.9.41zM121.72 64.85s-.08 0-.1.05a.68.68 0 0 1-.92-.56z"/><path class="cls-1" d="M121.06 63.46a.75.75 0 0 0-.33.85 15 15 0 0 1-2.73-1.72.6.6 0 0 0-.67-.54.58.58 0 0 1 .77-.12 8.46 8.46 0 0 0 .79.43c.1.2.23.41.36.64a.6.6 0 0 0 1 .08c.29.15.55.28.81.38zM120.82 77.13a3.76 3.76 0 0 0 1 .25 78.059 78.059 0 0 1-4.12 3.77 63.53 63.53 0 0 1-7.13 5.36.47.47 0 0 0-.47.59.6.6 0 0 1 .06.23.56.56 0 0 1-.44-.85c1.36-1.87 3.67-3.07 5.49-4.46 1.12-.9 2.28-1.79 3.35-2.72.52-.43 2.18-1.46 2.26-2.17zM121.11 76.2a1.9 1.9 0 0 0-.29.9 19.11 19.11 0 0 1-3.66-2.1 18 18 0 0 1-4.61-4c.1-.18.2-.39.28-.56a25.07 25.07 0 0 0 8.28 5.76z"/><path class="cls-1" d="M115.9 60.39c.18-.13.39-.28.57-.44a4.5 4.5 0 0 1 3.89 2.46.58.58 0 0 1-.07.7c-.47-.24-.93-.47-1.36-.72A3.54 3.54 0 0 0 115 61a7.52 7.52 0 0 0 .9-.61z"/><path class="cls-1" d="M109.8 63.16a2.67 2.67 0 0 1-.13-.72c3.75-2 6.54-4.87 9.62-7.82.38-.38 1.18 0 1 .56a11.37 11.37 0 0 1-3.82 4.82 4.88 4.88 0 0 0-2.33.64c-.31.18-.11.72.25.59A3 3 0 0 1 115 61a41.18 41.18 0 0 1-5.46 3 .67.67 0 0 1-1-.38c-1.11-4.23.3-9.25 1-13.46a.4.4 0 0 1 .26-.33 4.55 4.55 0 0 0 .25.49c0 3.74-1.84 8.69-1 12.43l-.15.08a1.19 1.19 0 0 1 .2.08 4.77 4.77 0 0 0 .13.51c.18-.08.33-.18.51-.26a.43.43 0 0 1 .16.05c-.07.02-.1 0-.1-.05zM120.29 63.11a.6.6 0 0 1-1-.08c-.13-.23-.26-.44-.36-.64.43.25.89.48 1.36.72zM119.93 125.47a.83.83 0 0 1-1.39.31v-.06a.76.76 0 0 1 .54-.92h.07a5.84 5.84 0 0 0 .69-.18c.06.15.08.31.13.46a.43.43 0 0 1-.04.39zM119.82 124.6a5.84 5.84 0 0 1-.69.18h-.07c-1.52-4.94-.08-11.61-.93-16.79a112 112 0 0 0-6.38-21.17 2 2 0 0 1 .36-.18 84.48 84.48 0 0 1 6.18 18.92c1.28 6.32-.1 12.83 1.53 19.04z"/><path class="cls-8" d="M118.9 62.36a8.46 8.46 0 0 1-.79-.43.58.58 0 0 0-.77.12.72.72 0 0 0-.28.16c-1.87 1.72-5.08 4.36-5 7.12a.48.48 0 0 0 .15.36.35.35 0 0 0-.23.23h-.08c-5.51.16-11.17.21-16.66.64 0-1.82 0-3.64-.08-5.43a.74.74 0 0 0-1.16-.54c-8.61.08-17.17-.43-25.76-1-3.26-1.59-6.82-2.48-9.94-4.43a10.8 10.8 0 0 1-5.13-7.54C52.77 49 56 47.7 58 46.42a9.44 9.44 0 0 1 0 2.69c-.1.77 1 1.1 1.18.33.87-3.15 2.79-5.71 4.41-8.51s3.07-5.64 4.82-8.38c0-.08.07-.1.07-.18 2.16-.59 4.33-1.07 6.54-1.46a10.48 10.48 0 0 0-1.59 3.21c-.1.35.28.82.67.66 2.89-1.13 5.79-2.36 8.74-3.36a43.56 43.56 0 0 0-2.18 4.9c-.21.56.41 1 .92.9a106.88 106.88 0 0 0 14.15-3.21 22.57 22.57 0 0 0 1.18 10 .53.53 0 0 0 1 .13 21.75 21.75 0 0 1 3.36-4.14 25.23 25.23 0 0 0 2.73-2.84 29.53 29.53 0 0 0 3.66 8.9c.72 1.28 1.42 2.56 2.11 3.82a.4.4 0 0 0-.26.33c-.72 4.21-2.13 9.23-1 13.46a.67.67 0 0 0 1 .38A41.18 41.18 0 0 0 115 61a3.54 3.54 0 0 1 3.9 1.36zm-11.66-11.51a.45.45 0 0 0 0-.64c-1.13-1-3.72-.56-5.08-.51-1.58.08-3.79.28-4.61 1.87s.72 3.66 1.62 4.87 2.35 3.59 3.89 4.1c.69.23 1.21-.46 1.1-1.1-.2-1.08-1.58-2.13-2.25-2.95-.49-.59-2.9-3.18-2.46-4.07s3.48-1 4.33-1c1.02-.11 2.61.12 3.46-.57zm-32-4.38a1.07 1.07 0 0 0 0-1.51c-1.58-2.08-3.61-4.8-6.25-5.51a.77.77 0 0 0-.74 1.28A62.73 62.73 0 0 1 73 45.5a21.61 21.61 0 0 1-3.51 1.81c-1.31.59-2.93.85-4 1.8-.56.49-.05 1.33.59 1.38 1.54.08 3.34-.89 4.77-1.46a15.43 15.43 0 0 0 4.37-2.56z"/><path class="cls-3" d="M120.8 77.13c-.08.71-1.74 1.74-2.26 2.17-1.07.93-2.23 1.82-3.35 2.72-1.82 1.39-4.13 2.59-5.49 4.46a.56.56 0 0 0 .44.85 27.28 27.28 0 0 1 .61 6.46c0 .66 0 1.48.1 2.25a6.57 6.57 0 0 0-2.53-1.56c-2.54-.77-1.82-1-2.85-3.61-1.61-4.05-6.18-6.28-10.38-6.28v-3.82c2.36 1.15 6.15.89 8.77-.11a4.13 4.13 0 0 0-.36 1c-.08.34.33.75.67.49 1.74-1.28 2.89-3.38 4.2-5.1a38 38 0 0 0 4.13-6 18 18 0 0 0 4.61 4 19.11 19.11 0 0 0 3.69 2.08z"/><path class="cls-1" d="M118.36 81.79c-.12.08-.23.21-.35.31a2 2 0 0 1-.39-.49c-.13-.18-.05-.33.08-.46a.43.43 0 0 1 .46-.05 3.92 3.92 0 0 1 .56.33zM119.06 124.8a.76.76 0 0 0-.54.92 1.18 1.18 0 0 1-.1-.25c-1.57-6.46.12-13.07-1.31-19.56-1.28-5.71-3.26-11.12-5-16.66a5.64 5.64 0 0 0-.54-1.67l-.15-.54.38-.15a112 112 0 0 1 6.33 21.11c.87 5.19-.59 11.86.93 16.8zM117.31 62.77a.45.45 0 1 1 .72-.18.71.71 0 0 1-.08.31c-.08.1-.13.21-.21.31l-.34-.34a.19.19 0 0 1-.09-.1z"/><path class="cls-1" d="M117.62 81.61a2 2 0 0 0 .39.49c-.72.61-1.41 1.23-2.16 1.82a25.85 25.85 0 0 1-3.74 2.71 2.56 2.56 0 0 1-.21-.4c-.18-.39-.82-.11-.69.3.05.16.1.31.16.46a.4.4 0 0 1-.16.06 2.27 2.27 0 0 0-.33-.42.37.37 0 0 0-.31-.12 63.53 63.53 0 0 0 7.13-5.36c-.13.13-.21.28-.08.46zM117.29 62.77a.19.19 0 0 0 0 .1l.34.34a27.56 27.56 0 0 1-2.39 2.89 37.2 37.2 0 0 0-2.23 3.52.7.7 0 0 1-.23.2s-.07 0-.1-.08a.44.44 0 0 0-.51 0 .48.48 0 0 1-.15-.36c-.11-2.76 3.1-5.4 5-7.12a.72.72 0 0 1 .28-.16.6.6 0 0 0-.01.67zM115.9 60.39a7.52 7.52 0 0 1-1 .64 3 3 0 0 0-.56.15c-.36.13-.56-.41-.25-.59a4.88 4.88 0 0 1 2.33-.64c-.13.16-.34.31-.52.44zM113.65 53.65a5.49 5.49 0 0 1-.75-.62 53.36 53.36 0 0 1 1.7-7.95.44.44 0 0 1 .87.13 37.86 37.86 0 0 1-1.23 9.53.8.8 0 0 1-1.46.18c-.77-1.13-1.49-2.3-2.16-3.48v-.05a4.76 4.76 0 0 0 0-1 .59.59 0 0 0-.77-.49c-.69-1.26-1.39-2.54-2.11-3.82a29.53 29.53 0 0 1-3.66-8.9 5.37 5.37 0 0 0 .41-.61c.72 4 3.08 7.87 5.07 11.41.93 1.79 1.82 4.25 3.29 5.87 0 .23-.08.43-.11.66.18-.1.34-.2.52-.28a.83.83 0 0 0 .28.28c0-.15.07-.33.1-.49a1.87 1.87 0 0 1 .31-.17 2 2 0 0 1-.3-.2zM113.93 110.78a1.94 1.94 0 0 0 .59 0c.84 3.67 0 8-.26 11.72-.31 5.23-.25 10.51-.66 15.73a.85.85 0 0 1-.77.82.1.1 0 0 0 0-.07.47.47 0 0 0-.69-.54c-.07.05-.15.08-.23.13a.74.74 0 0 1-.08-.34c-.3-5.2.36-10.53.7-15.73.25-3.9-.23-8.54 1-12.28a.43.43 0 0 0 .28.56zM113 98.84c1.85 3.59 4.82 11.56 1.54 11.94a3.41 3.41 0 0 0-.15-.59c1.46-1 .66-6.94-2-11.12a.86.86 0 0 0 .61-.23z"/><path class="cls-1" d="M114.37 110.19a3.41 3.41 0 0 1 .15.59 1.94 1.94 0 0 1-.59 0v-1.1a.61.61 0 0 0 .13-.31c.15.28.23.57.31.82z"/><path class="cls-1" d="M112.39 99.07c2.64 4.18 3.44 10.1 2 11.12-.08-.25-.16-.54-.26-.79.7-1.56 0-4.33-.43-5.59-1.21-3.79-3.54-8.15-8.05-8.15a.78.78 0 0 1-.8-.77c-.4-5.53-4.71-8.4-9.74-8.92v-.71c5.44 0 10.54 4.17 10.54 9.63a6.59 6.59 0 0 1 5.51 2.54 3.52 3.52 0 0 0 .77 1.44.68.68 0 0 0 .49.23z"/><path class="cls-4" d="M113.65 103.78c.38 1.26 1.13 4 .43 5.59 0-.13-.2-.13-.25 0s0 0 0 .07l-.36-.12c.18-.52 0-1.11-.71-1-3.31.28-6.49 1.48-9.62 2.46-1.87.59-3.71 1.1-5.61 1.53a13.82 13.82 0 0 1-3 .26c1.51-3.82.72-10.23.61-13-.12-4.53-.1-9.07 0-13.61 5 .52 9.34 3.39 9.74 8.92a.78.78 0 0 0 .8.77c4.43-.02 6.76 4.35 7.97 8.13z"/><path class="cls-1" d="M114 109.68a1.13 1.13 0 0 1-.3.38.15.15 0 0 0-.05.08 2 2 0 0 1 .2-.67v-.07c0-.07.2-.16.25 0a.61.61 0 0 1-.1.28z"/><path class="cls-1" d="M114 109.68v1.1h-.08a.43.43 0 0 1-.28-.56.09.09 0 0 1 0-.08.15.15 0 0 1 .05-.08 1.13 1.13 0 0 0 .31-.38zM113.88 53.83a1.87 1.87 0 0 0-.31.17c0-.12.05-.23.08-.35a2 2 0 0 0 .23.18z"/><path class="cls-9" d="M113.8 109.47a2 2 0 0 0-.2.67.09.09 0 0 0 0 .08c-1.25 3.74-.77 8.38-1 12.28-.34 5.2-1 10.53-.7 15.73a.74.74 0 0 0 .08.34c-6.36 3.74-15.82 5.1-23.66 7.43a.57.57 0 0 0 0-.66c-1.92-2.39-1-10.08-1-13.16.07-5.15.43-10.35.23-15.5a9.65 9.65 0 0 0 4.18-.75.55.55 0 0 0 .33-.71.59.59 0 0 0 .36-.11 3.78 3.78 0 0 0 1.2-1c1.82.61 4.56-.31 6.1-.69 4.36-1.05 8.57-3 13-3.46a.86.86 0 0 0 .71-.59z"/><path class="cls-1" d="M113.65 53.65c0 .12-.05.23-.08.35a2.82 2.82 0 0 0-.38.21 1.64 1.64 0 0 1-.41-.38 6.4 6.4 0 0 1 .12-.8 5.49 5.49 0 0 0 .75.62z"/><path class="cls-1" d="M113.57 54c0 .16-.08.34-.1.49a.83.83 0 0 1-.28-.28 2.82 2.82 0 0 1 .38-.21zM94.06 113.37a4.39 4.39 0 0 0 .39-.82 13.82 13.82 0 0 0 3-.26c1.9-.43 3.74-.94 5.61-1.53 3.13-1 6.31-2.18 9.62-2.46.66-.06.89.53.71 1a.86.86 0 0 1-.71.59c-4.46.48-8.67 2.41-13 3.46-1.54.38-4.28 1.3-6.1.69a4 4 0 0 0 .48-.67zM113.11 97.86a.74.74 0 0 1-.13 1 8 8 0 0 0-1-1.59s-.08-.11-.13-.16c-.66-2.58-.25-7.92-1.23-9.87a2.25 2.25 0 0 0 .54-.17 1.88 1.88 0 0 1 .31.48c.17.57.33 1.13.54 1.67.56 2.78-.41 6.34 1.1 8.64zM113.19 54.21c-.18.08-.34.18-.52.28 0-.23.06-.43.11-.66a1.64 1.64 0 0 0 .41.38zM112.9 53a6.4 6.4 0 0 0-.12.8c-1.47-1.62-2.36-4.08-3.29-5.87-2-3.54-4.35-7.41-5.07-11.41l.23-.46a.22.22 0 0 0 0-.15s.07.1.1.18a48.74 48.74 0 0 0 4.66 10.43c1.11 1.95 1.85 4.77 3.49 6.48zM112.83 70.44c-.08.17-.18.38-.28.56a.27.27 0 0 1-.08-.1.68.68 0 0 0 0-.66.43.43 0 0 0-.35-.26.26.26 0 0 1 .18-.13.55.55 0 0 0 .35.1.46.46 0 0 1 .18.49zM112.32 139a.72.72 0 0 1-.39-.41c.08 0 .16-.08.23-.13a.47.47 0 0 1 .69.54.1.1 0 0 1 0 .07.57.57 0 0 1-.53-.07zM112.85 69.82a.37.37 0 0 1-.18.05.28.28 0 0 0-.35-.1l-.08-.08a.44.44 0 0 1 .51 0s.08.1.1.13z"/><path class="cls-1" d="M112.8 139.13a1 1 0 0 1-.43 1.1c-3.64 2.46-8.39 3.67-12.54 4.9-3.77 1.1-8.71 3.2-12.79 2.82l.23-.08a1 1 0 0 0 .67-.82c6-.92 22.45-5.74 24.38-8.07a.57.57 0 0 0 .51.07s-.03.06-.03.08zM111.9 97.09s.08.11.13.16a8 8 0 0 1 1 1.59.86.86 0 0 1-.59.23 8 8 0 0 0-1.26-1.67 8.6 8.6 0 0 1-.26-1.36 13 13 0 0 1 .98 1.05zM112.67 69.87a.55.55 0 0 1-.35-.1.28.28 0 0 1 .35.1zM112.44 70.21a.68.68 0 0 1 0 .66l-.23-.31c.11-.12.16-.25.23-.35zM105.16 80.07a3 3 0 0 0 .54-.36.45.45 0 0 0 .15-.56c2-2.62 4.15-5.11 5.92-7.87a2.45 2.45 0 0 1 .29-.08.81.81 0 0 0 .38-.28.27.27 0 0 0 .08.1 38 38 0 0 1-4.13 6c-1.31 1.72-2.46 3.82-4.2 5.1-.34.26-.75-.15-.67-.49a4.13 4.13 0 0 1 .36-1 9.12 9.12 0 0 0 1.28-.56z"/><path class="cls-1" d="M112.47 70.87a.81.81 0 0 1-.38.28 2.45 2.45 0 0 0-.29.08l.44-.7z"/><path class="cls-1" d="M112.44 70.21c-.07.1-.12.23-.2.33a1 1 0 0 1-.18-.28.16.16 0 0 1 0-.18.91.91 0 0 1 .08-.13.43.43 0 0 1 .3.26zM112.24 69.69l.08.08a.26.26 0 0 0-.18.13h-.08c-.02 0 0 0 0 0a.35.35 0 0 1 .18-.21z"/><path class="cls-1" d="M111.57 70.61c.15-.17.28-.35.44-.53a.16.16 0 0 0 0 .18 1 1 0 0 0 .18.28l-.44.7c-.31.07-.59.15-.89.23.25-.27.48-.57.71-.86zM112.37 99.07a.68.68 0 0 1-.49-.23 3.52 3.52 0 0 1-.77-1.44 8 8 0 0 1 1.26 1.67zM111.75 86.84l-.38.15c-.06-.15-.11-.3-.16-.46-.13-.41.51-.69.69-.3a2.56 2.56 0 0 0 .21.4 2 2 0 0 0-.36.21z"/><path class="cls-1" d="M112.09 70a.91.91 0 0 0-.08.13V70c0-.02.05-.08.08 0zM112 69.92v.13c-.16.18-.29.36-.44.53-5.64 1-10.81.49-16.3.62v-.67c5.49-.43 11.15-.48 16.66-.64zM112.09 89.25c-.21-.54-.37-1.1-.54-1.67a5.64 5.64 0 0 1 .54 1.67zM111.93 138.57a.72.72 0 0 0 .39.41c-1.93 2.33-18.33 7.15-24.38 8.07a.91.91 0 0 0-.26-.87s.08-.05.13-.05a.31.31 0 0 0 .43-.13c7.87-2.33 17.33-3.69 23.69-7.43z"/><path class="cls-1" d="M111.57 70.61c-.23.29-.46.59-.66.88-5 1.15-10.59.61-15.64.38v-.64c5.49-.13 10.66.33 16.3-.62zM110.67 87.22c1 2 .57 7.29 1.23 9.87a13 13 0 0 0-1.05-1c-.07-.77-.07-1.59-.1-2.25a27.28 27.28 0 0 0-.61-6.46.34.34 0 0 0 .2 0 1.42 1.42 0 0 0 .33-.16z"/><path class="cls-1" d="M110.55 86.51a.37.37 0 0 1 .31.12 2.27 2.27 0 0 1 .33.42 2.25 2.25 0 0 1-.54.17 1.42 1.42 0 0 1-.33.11.34.34 0 0 1-.2 0 .6.6 0 0 0-.06-.23.47.47 0 0 1 .49-.59zM110.91 71.49c.3-.08.58-.16.89-.23-1.77 2.76-4 5.25-5.92 7.87a.32.32 0 0 0-.33-.18 5 5 0 0 0-.67 0c.74-1 1.64-2 2.38-2.85 1.24-1.49 2.44-3.05 3.65-4.61zM110.85 96a8.6 8.6 0 0 0 .26 1.36 6.59 6.59 0 0 0-5.51-2.54c0-5.46-5.1-9.58-10.54-9.63a4.72 4.72 0 0 1 0-.64c4.2 0 8.77 2.23 10.38 6.28 1 2.61.31 2.84 2.85 3.61a6.57 6.57 0 0 1 2.56 1.56zM110.6 51.37v.05c0 3.69-1.61 7.3-1 11-.23.15-.46.25-.69.38-.79-3.74 1-8.69 1-12.43.3.35.51.69.69 1z"/><path class="cls-1" d="M110.55 50.37a4.76 4.76 0 0 1 0 1c-.18-.31-.39-.65-.57-1a4.55 4.55 0 0 1-.25-.49.59.59 0 0 1 .82.49zM109.8 19.5c.62.52 1.23 1 1.82 1.54a20.75 20.75 0 0 1-4.05-2.74.33.33 0 0 1 .08-.49zM109.8 63.16v.12a.43.43 0 0 0-.16-.05c.09-.02.11-.05.16-.07z"/><path class="cls-1" d="M109.67 62.44a2.67 2.67 0 0 0 .13.72s-.07.05-.13.07A5 5 0 0 0 109 63a.58.58 0 0 1 0-.16c.21-.15.44-.25.67-.4z"/><path class="cls-5" d="M110.91 71.49c-1.21 1.56-2.41 3.12-3.65 4.66-.74.9-1.64 1.85-2.38 2.85-1.28.18-2.59.71-3.84 1a15.81 15.81 0 0 1-5.87-.26c0-2.62.1-5.2.1-7.82 5.05.18 10.64.72 15.64-.43z"/><path class="cls-1" d="M109.67 63.23c-.18.08-.33.18-.51.26A4.77 4.77 0 0 1 109 63a5 5 0 0 1 .67.23zM109 63a1.19 1.19 0 0 0-.2-.08l.15-.08a.58.58 0 0 0 .05.16zM107.24 50.21a.45.45 0 0 1 0 .64c-.85.69-2.44.46-3.46.54-.85 0-3.87 0-4.33 1s2 3.48 2.46 4.07c.67.82 2 1.87 2.25 2.95.11.64-.41 1.33-1.1 1.1-1.54-.51-3-2.84-3.89-4.1s-2.44-3.26-1.62-4.87 3-1.79 4.61-1.87c1.36-.02 3.95-.41 5.08.54zM105.88 79.13a.45.45 0 0 1-.15.56 3 3 0 0 1-.54.36 8.17 8.17 0 0 1 .69-.92z"/><path class="cls-1" d="M104.4 79.74a8.48 8.48 0 0 1 .48-.74 5 5 0 0 1 .67 0 .32.32 0 0 1 .33.18 8.17 8.17 0 0 0-.69.92 9.12 9.12 0 0 1-1.25.59 3.9 3.9 0 0 1 .49-.89zM104.14 35.55a.35.35 0 0 1 .54.36c-.28-.28-.9-.16-.82.31v.15c-2 2.18-4.66 4.31-6.07 6.87a8 8 0 0 1-.18-.85 18.78 18.78 0 0 1 6.53-6.84z"/><path class="cls-1" d="M104.42 36.52a5.37 5.37 0 0 1-.41.61c-.05-.25-.1-.53-.13-.79v-.15c-.08-.47.54-.59.82-.31a.22.22 0 0 1 0 .15zM104.88 79a8.48 8.48 0 0 0-.48.74c-2.88.89-6.54 1.51-9.26.48a3.51 3.51 0 0 0 0-.56A15.81 15.81 0 0 0 101 80c1.29-.29 2.6-.82 3.88-1z"/><path class="cls-1" d="M104.4 79.77a3.9 3.9 0 0 0-.49.89c-2.62 1-6.41 1.26-8.77.11a3 3 0 0 0 0-.52c2.72 1.03 6.38.41 9.26-.48zM103.88 36.37c0 .26.08.54.13.79a25.23 25.23 0 0 1-2.74 2.84 21.75 21.75 0 0 0-3.39 4.26.53.53 0 0 1-1-.13 22.57 22.57 0 0 1-1.18-10 1.06 1.06 0 0 0 .33-.1 45.44 45.44 0 0 0 1.13 9.25c-.1.21-.2.41-.28.62h.46a.88.88 0 0 1 0 .15l.08-.15h.43a4.41 4.41 0 0 1-.12-.59c1.49-2.63 4.13-4.76 6.15-6.94z"/><path class="cls-1" d="M97.81 43.24a4.41 4.41 0 0 0 .12.59h-.43a3 3 0 0 1 .31-.59z"/><path class="cls-1" d="M97.81 43.24a3 3 0 0 0-.31.59h-.13a4.83 4.83 0 0 0-.18-.62 7.34 7.34 0 0 1 .44-.82 8 8 0 0 0 .18.85z"/><path class="cls-1" d="M97.5 43.83l-.08.15a.88.88 0 0 0 0-.15zM97.63 42.39a7.34 7.34 0 0 0-.44.82A45.44 45.44 0 0 1 96.06 34l.29-.08c.82 2.68.76 5.65 1.28 8.47zM97.19 43.21a4.83 4.83 0 0 1 .18.62h-.46c.09-.21.18-.41.28-.62zM96.29 33.63v-.08a.24.24 0 0 0-.46 0v.15c-4.66.54-9 2-13.56 2.72a5.48 5.48 0 0 1 .31-.82c4.59-.87 9.2-2.51 13.87-2.23a.25.25 0 0 1 0 .49h-.1a.71.71 0 0 0-.06-.23z"/><path class="cls-1" d="M96.29 33.65a.71.71 0 0 1 .06.23l-.29.08a1.32 1.32 0 0 1 0-.28.72.72 0 0 1 .23-.03zM96 33.68a1.14 1.14 0 0 0-.26 0v-.15a.24.24 0 0 1 .46 0v.08a.72.72 0 0 0-.2.07z"/><path class="cls-1" d="M96 33.68a1.32 1.32 0 0 0 0 .28 1.06 1.06 0 0 1-.33.1 2 2 0 0 1 0-.36 1.14 1.14 0 0 1 .33-.02z"/><path class="cls-1" d="M81.66 35.75a2.88 2.88 0 0 1-.49.11 3.42 3.42 0 0 1 .33.33 1.69 1.69 0 0 0-.12.36l.43-.08c.1.11.18.18.28.28a2.26 2.26 0 0 1 .13-.33c4.51-.72 8.9-2.18 13.56-2.72a2 2 0 0 0 0 .36 106.88 106.88 0 0 1-14.15 3.21c-.51.07-1.13-.34-.92-.9a43.56 43.56 0 0 1 2.18-4.9l.36-.12a.33.33 0 0 0 0-.62c.44-.92.9-1.84 1.31-2.79a.34.34 0 0 1 .64.15c-.13 2.69-1.64 5.05-2.64 7.51a4.81 4.81 0 0 1-.9.15zM95.27 71.23v.64H95a.57.57 0 0 1-.61-.59v-.08a.67.67 0 0 1 .61-.61h.26z"/><path class="cls-1" d="M95.19 65.13c0 1.79.08 3.61.08 5.43h-.26a.67.67 0 0 0-.61.61v-5a.84.84 0 0 0-.31-1.62H94a.74.74 0 0 1 1.19.58zM95 71.87h.26c0 2.62 0 5.2-.1 7.82-.26 0-.52-.08-.77-.13a.32.32 0 0 0-.18 0c.07-2.77.15-5.54.18-8.31a.57.57 0 0 0 .61.62z"/><path class="cls-1" d="M95.14 80.25a3 3 0 0 1 0 .52 4.34 4.34 0 0 1-1-.59 3.76 3.76 0 0 0 0-.59.32.32 0 0 1 .18 0c.25 0 .51.1.77.13a3.51 3.51 0 0 1 .05.53z"/><path class="cls-1" d="M95.14 80.77v3.82h-1c0-1.49.11-3 .13-4.46a4.34 4.34 0 0 0 .87.64zM95.06 99.55c.11 2.77.9 9.18-.61 13-.44 0-.87 0-1.31.1 1.82-4.82.69-17.17.69-20.89.08-2 .13-4 .21-5.89l1 .07c-.04 4.54-.1 9.06.02 13.61zM95.09 84.59a4.72 4.72 0 0 0 0 .64 4.22 4.22 0 0 0-1 0v-.64c.31.02.67 0 1 0z"/><path class="cls-1" d="M95.06 85.23v.71l-1-.07a5.72 5.72 0 0 1 0-.59 4.22 4.22 0 0 1 1-.05zM94.45 66.21a.64.64 0 0 1-.31.07h-.49c0-.28 0-.59.06-.87v-.31a.71.71 0 0 1 .25-.54h.18a.84.84 0 0 1 .31 1.65z"/><path class="cls-1" d="M92.71 113.58a2.1 2.1 0 0 0 .89.51 3.78 3.78 0 0 1-1.2 1 .59.59 0 0 1-.36.11.82.82 0 0 0-.87-.59.74.74 0 0 1 .08-.67c3.49-5.08 2-13.69 1.74-19.53-.33-9.31.39-18.79.69-28.12h.49a.64.64 0 0 0 .31-.07v5.08c0 2.77-.11 5.54-.18 8.31a.3.3 0 0 0-.13.51.49.49 0 0 0 .1.08c0 1.48-.08 3-.13 4.46h-.23a.61.61 0 0 0 0 1.21H94c-.08 1.94-.13 3.92-.21 5.89 0 3.72 1.13 16.07-.69 20.89a2.23 2.23 0 0 0-.36 0 .46.46 0 0 0-.2.77.63.63 0 0 0 .17.16z"/><path class="cls-1" d="M94.22 79.59a3.76 3.76 0 0 1 0 .59.49.49 0 0 1-.1-.08.3.3 0 0 1 .1-.51zM94.45 112.55a4.39 4.39 0 0 1-.39.82 2.63 2.63 0 0 1-1.12-.23 3.13 3.13 0 0 0 .2-.49c.44-.05.86-.07 1.31-.1zM94.06 85.28a5.72 5.72 0 0 0 0 .59h-.21a.61.61 0 0 1 0-1.21h.23zM68.2 63.59c8.59.57 17.15 1.08 25.76 1a.71.71 0 0 0-.25.54v.31A113.64 113.64 0 0 1 79.33 65a.57.57 0 0 0-.67-.13l-.13.07c-3.18-.28-6.36-.64-9.53-.92-.26-.17-.54-.3-.8-.43z"/><path class="cls-1" d="M94.06 113.37a4 4 0 0 1-.46.72 2.1 2.1 0 0 1-.89-.51l.23-.44a2.63 2.63 0 0 0 1.12.23zM93.71 65.44c0 .28 0 .59-.06.87-1 0-1.92.08-2.89.08.28-.31 0-.93-.46-.77-.62.23-1.21.46-1.8.74-3.15 0-6.25-.28-9.38-.56l.08-.06a.48.48 0 0 0 .13-.76 113.64 113.64 0 0 0 14.38.46z"/><path class="cls-1" d="M92.94 113.14l-.23.44a.63.63 0 0 1-.13-.11.46.46 0 0 1 .2-.77 2.23 2.23 0 0 1 .36 0 3.13 3.13 0 0 1-.2.44z"/><path class="cls-9" d="M93 94.43c.23 5.84 1.75 14.45-1.74 19.53a.74.74 0 0 0-.08.67 19.86 19.86 0 0 1-4.3.07.57.57 0 0 0-.28-.25c-6.11-2.31-9.69-5-12.21-11.18-1.78-4.38-1.99-9.27-1.73-13.94.59-11.26 8.49-18.25 18-22.87a.43.43 0 0 0 .1-.07c1 0 1.92 0 2.89-.08-.3 9.33-1.02 18.81-.65 28.12z"/><path class="cls-1" d="M87.22 115.5a.54.54 0 0 0-.33 0h-.11a.54.54 0 0 0 .11-.75 19.86 19.86 0 0 0 4.3-.07.92.92 0 0 0 .9.59.55.55 0 0 1-.33.71 9.65 9.65 0 0 1-4.18.75v-.75a.46.46 0 0 0-.36-.48z"/><path class="cls-1" d="M92 115.22a.92.92 0 0 1-.9-.59.82.82 0 0 1 .9.59zM89.68 66.39H88.5c.59-.28 1.18-.51 1.8-.74.43-.16.74.46.46.77z"/><path class="cls-1" d="M90.76 66.39a.43.43 0 0 1-.1.07c-9.51 4.62-17.41 11.61-18 22.87-.26 4.66 0 9.56 1.69 13.94 2.52 6.23 6.1 8.87 12.21 11.18a.57.57 0 0 1 .28.25c-1.26-.1-2.54-.28-3.8-.46h-.1c-7.48-2.82-10.84-12.08-11.1-19.66-.61-13.69 5.33-22.87 17.84-28.17z"/><path class="cls-1" d="M88.5 66.36h1.18c-12.51 5.3-18.45 14.48-17.84 28.17.26 7.58 3.62 16.84 11.1 19.66-1.15-.18-2.31-.36-3.38-.49C73 109.3 70.53 98 71.1 91c.9-11.54 6.99-20.15 17.4-24.64zM87 116.65a3.26 3.26 0 0 0 .54 0c.2 5.15-.16 10.35-.23 15.5 0 3.08-1 10.77 1 13.16a.57.57 0 0 1 0 .66 3.52 3.52 0 0 0-.43.13 1.89 1.89 0 0 0-.23 0 .68.68 0 0 0-.59-.16.59.59 0 0 1-.33-.33c-1.75-4-1.21-9.2-1.11-13.41.13-5.2.54-10.35.9-15.55a4.87 4.87 0 0 0 .48 0z"/><path class="cls-1" d="M88.24 146a.31.31 0 0 1-.43.13 3.52 3.52 0 0 1 .43-.13zM87.94 147.05a1 1 0 0 1-.67.82L87 148a1.23 1.23 0 0 1-.33 0 .75.75 0 0 1-.67-.69.6.6 0 0 1 .46-.69c.39-.13.77-.26 1.18-.36a.91.91 0 0 1 .3.79z"/><path class="cls-1" d="M87.58 146.08a.17.17 0 0 1 .1.1c-.41.1-.79.23-1.18.36a.6.6 0 0 0-.46.69 15.77 15.77 0 0 1-3.51.54.38.38 0 0 0 0-.18 7 7 0 0 1-.15-.77 20 20 0 0 0 4.41-.87.61.61 0 0 1 .23 0 .94.94 0 0 0 .46.13 1.3 1.3 0 0 0 .1 0z"/><path class="cls-1" d="M87.58 146.08a1.3 1.3 0 0 1-.13 0 .94.94 0 0 1-.46-.13.68.68 0 0 1 .59.13zM87 116.65a4.87 4.87 0 0 1-.54 0v-.7a.5.5 0 0 1 .34-.46 1.12 1.12 0 0 1 .33 0 .46.46 0 0 1 .28.43v.75a3.26 3.26 0 0 1-.41-.02z"/><path class="cls-1" d="M87.22 115.5a1.12 1.12 0 0 0-.33 0 .54.54 0 0 1 .33 0zM81.17 147.82c0 .08.1.18.16.26a.65.65 0 0 0 1.2-.31 15.77 15.77 0 0 0 3.51-.54.75.75 0 0 0 .67.69 1.23 1.23 0 0 0 .33 0c-9 3.05-19.43-1.21-28.48-2.13-13.22-1.36-27.17-.74-40.09-4.15a.41.41 0 0 0-.12-.74 1 1 0 0 1-.34-.29.51.51 0 0 1 .54-.25c6.13.66 12.25 1.13 18.4 1.56 6.44.49 12.85 1 19.23 1.69a1.8 1.8 0 0 0 1.77.84.43.43 0 0 0 .43-.56h.2c7 .88 14.84 3.31 22.15 3 .11.37.27.65.44.93z"/><path class="cls-10" d="M87 145.92a.61.61 0 0 0-.23 0 20 20 0 0 1-4.41.87 61.44 61.44 0 0 1-1.69-15.66c.1-5 1-10.18.59-15.23 1.64.23 3.43.57 5.2.7-.36 5.2-.77 10.35-.9 15.55-.1 4.21-.64 9.44 1.11 13.41a.59.59 0 0 0 .33.36z"/><path class="cls-1" d="M83 114.24c1.26.18 2.54.36 3.8.46a.54.54 0 0 1-.11.75c-1.44-.11-3-.28-4.64-.44a11.2 11.2 0 0 1-2.46-1.26c1.07.13 2.23.31 3.38.49z"/><path class="cls-1" d="M86.73 115.45h.11a.5.5 0 0 0-.34.46v.7c-1.77-.13-3.56-.47-5.2-.7a.44.44 0 0 1 0-.2.46.46 0 0 0-.92 0v.08h-.26c-4.05-.44-8.15-.67-12.22-.87a.75.75 0 0 0 .3-.9c2.28.16 4.57.26 6.82.36 1.64 0 4.33.31 7.08.62a11.1 11.1 0 0 0 4.33.56.46.46 0 0 0 .31-.12z"/><path class="cls-1" d="M86.71 115.45a.46.46 0 0 1-.31.12 11.1 11.1 0 0 1-4.33-.56c1.59.16 3.2.33 4.64.44zM83.07 31a1.37 1.37 0 0 1 .13-.31.33.33 0 0 1 0 .62l-.36.12c0-.12.13-.25.2-.41z"/><path class="cls-1" d="M83.2 30.73a1.37 1.37 0 0 0-.13.31 60.34 60.34 0 0 0-8.43 3 6.28 6.28 0 0 1 .23-.66A40.15 40.15 0 0 1 83 30.7a.34.34 0 0 1 .2.03z"/><path class="cls-1" d="M83 31.06c-.07.16-.15.29-.2.41-3 1-5.85 2.23-8.74 3.36-.39.16-.77-.31-.67-.66A10.48 10.48 0 0 1 75 31c.26-.05.51-.1.77-.13a7.56 7.56 0 0 0-1.64 2.85 1.58 1.58 0 0 0-.34.13c.08.07.16.15.23.2a1.86 1.86 0 0 0-.1.31c.1 0 .18-.08.28-.1l.26.23c0-.13.08-.26.13-.39A60.34 60.34 0 0 1 83 31.06zM81.53 146.9a4.38 4.38 0 0 0 .82-.08 7 7 0 0 0 .15.77.38.38 0 0 1 0 .18h-1.36c-.15-.28-.33-.56-.46-.87.32.1.57.02.85 0zM81.66 35.75a4.81 4.81 0 0 0 .87-.15 5.48 5.48 0 0 0-.31.82 1.92 1.92 0 0 1-.41 0 2.7 2.7 0 0 0-.31-.28 1.37 1.37 0 0 1 .16-.39zM81.17 147.82h1.36a.65.65 0 0 1-1.2.31c-.06-.13-.11-.23-.16-.31z"/><path class="cls-1" d="M82.35 146.82a4.38 4.38 0 0 1-.82.08c-3.49-8.79-.8-21.43-.77-31l.49.07c.38 5-.49 10.18-.59 15.23a61.44 61.44 0 0 0 1.69 15.62zM82.22 36.42a2.26 2.26 0 0 0-.13.33c-.1-.1-.18-.17-.28-.28a1.92 1.92 0 0 0 .41-.05zM81.81 36.47l-.43.08a1.69 1.69 0 0 1 .12-.36 2.7 2.7 0 0 1 .31.28zM81.17 35.86a2.88 2.88 0 0 0 .49-.11 1.37 1.37 0 0 0-.16.44 3.42 3.42 0 0 0-.33-.33z"/><path class="cls-1" d="M81.53 146.9h-.82c-4.33-8.69-1.46-22.12-.41-31.14a3.59 3.59 0 0 0 .46 0c-.03 9.71-2.76 22.35.77 31.14z"/><path class="cls-1" d="M80.76 115.86a3.59 3.59 0 0 1-.46 0v-.08a.46.46 0 0 1 .92 0 .44.44 0 0 0 0 .2z"/><path class="cls-9" d="M80.71 147c-7.31.28-15.17-2.15-22.15-3h-.2c-.36-1.1-1.13-1.9-1.44-3.1a31.41 31.41 0 0 1-.41-7.87c.1-4.64.54-9.26.36-13.89s0-.06 0-.06l.26-4.64c.66 0 1.33.06 2 .11 2.67.15 5.36.28 8.06.41h.05a.55.55 0 0 0 .64 0c4.07.2 8.17.43 12.22.87h.26c-1.11 9-3.98 22.43.35 31.17z"/><path class="cls-1" d="M80.27 8.38a1.12 1.12 0 0 1 .31 0v.18a.25.25 0 0 1-.49.13.64.64 0 0 1-.09-.31.36.36 0 0 1 .27 0zM79.56 113.73A11.2 11.2 0 0 0 82 115c-2.75-.31-5.44-.62-7.08-.62-2.25-.1-4.54-.2-6.82-.36a.54.54 0 0 0-.25-.36 7.62 7.62 0 0 1-1-.77c3.89.16 7.79.34 11.66.75.38.01.71.06 1.05.09z"/><path class="cls-10" d="M79.56 113.73c-.34 0-.67-.08-1-.1-3.87-.41-7.77-.59-11.66-.75-6.18-5.48-6.33-16.68-5.13-24.22 1.64-10.2 8.59-17.92 17.31-22.86 3.13.28 6.23.51 9.38.56C78.09 70.85 72 79.46 71.1 91c-.57 7 1.9 18.3 8.46 22.73z"/><path class="cls-1" d="M78.15 65.69l-1-.07a14.56 14.56 0 0 1 1.36-.7 7.75 7.75 0 0 1 .8.06.48.48 0 0 1-.13.76l-.08.06c-.34-.03-.65-.06-.95-.11z"/><path class="cls-1" d="M78.66 64.85a.57.57 0 0 1 .67.13 7.75 7.75 0 0 0-.8-.06zM78.15 65.69c.3 0 .61.08.95.11-8.72 4.94-15.67 12.66-17.31 22.86-1.2 7.54-1 18.74 5.13 24.22h-1.18c-5-5.07-5.51-16.2-4.85-22.5a32.11 32.11 0 0 1 17.26-24.69zM78.53 64.92a14.56 14.56 0 0 0-1.36.7c-7.43-.75-14.84-1.77-22.27-1.87-10.59-.13-21.15-.31-31.74.25a.61.61 0 0 0-.48-.77c9.51-.66 18.91-.31 28.7-.28a1.64 1.64 0 0 0 .54.21.43.43 0 0 0 .49-.21h.21c3.71 0 7.48.23 11.27.56a33.39 33.39 0 0 0 5 1.16c.33 0 .61-.44.25-.62h-.12c3.15.23 6.33.59 9.51.87z"/><path class="cls-1" d="M77.17 65.62l1 .07a32.11 32.11 0 0 0-17.28 24.64c-.66 6.3-.12 17.43 4.85 22.5h-.82c-5.05-5.72-5.79-15.61-4.64-22.66C62 79.64 67.79 70.59 77.17 65.62zM76.38 29.6c.51-.05.69.64.38.95a9.55 9.55 0 0 0-1.92 2.82 6.65 6.65 0 0 0-.69.28 7.56 7.56 0 0 1 1.64-2.85c.25 0 .48-.1.74-.13a3.93 3.93 0 0 0-.26-.41l.11-.1h-.16a3 3 0 0 1-.25-.41c-.16.18-.31.34-.44.51a59.56 59.56 0 0 0-9.61 2.23 6.32 6.32 0 0 1 .36-.74 71.15 71.15 0 0 1 10.1-2.15z"/><path class="cls-1" d="M76.27 30.29a3.93 3.93 0 0 1 .26.41c-.26 0-.49.08-.74.13a5.82 5.82 0 0 1 .48-.54zM76.38 30.17l-.11.1v-.08z"/><path class="cls-1" d="M76.27 30.27a5.82 5.82 0 0 0-.48.54c-.26 0-.51.08-.77.13a6.57 6.57 0 0 1 .51-.67c.23-.05.46-.07.69-.1 0 .05.03.07.05.1z"/><path class="cls-1" d="M76.22 30.19c-.23 0-.46 0-.69.1.13-.17.28-.33.44-.51a3 3 0 0 0 .25.41zM65.43 32a1.76 1.76 0 0 0-.43.13l.28.28a1.69 1.69 0 0 0-.13.31l.33-.11a3.4 3.4 0 0 0 .26.29c.05-.13.13-.29.18-.42a59.56 59.56 0 0 1 9.61-2.23A6.57 6.57 0 0 0 75 31c-2.21.39-4.38.87-6.54 1.46a.4.4 0 0 0-.66-.28 7.1 7.1 0 0 0-.59.64c-.64.18-1.28.36-1.9.56-.44.13-1-.3-.77-.74 1.72-4.13 6-8.92 10.64-9.61a.47.47 0 0 1 .26.9 16.27 16.27 0 0 0-9.18 7.89c-.26.04-.55.12-.83.18zM75.22 45a1.07 1.07 0 0 1 0 1.51A15.43 15.43 0 0 1 70.79 49c-1.43.57-3.23 1.54-4.77 1.46-.64-.05-1.15-.89-.59-1.38 1.1-1 2.72-1.21 4-1.8A21.61 21.61 0 0 0 73 45.5a8.7 8.7 0 0 1 .59.74c0-.44.1-.87.15-1.28a5.6 5.6 0 0 1-.74.54 62.73 62.73 0 0 0-4.74-4.77.77.77 0 0 1 .74-1.28c2.61.71 4.64 3.43 6.22 5.55zM74.15 33.68a6.65 6.65 0 0 1 .69-.28 6.28 6.28 0 0 0-.23.66l-.39.16c-.07-.08-.12-.13-.18-.21a.72.72 0 0 1 .11-.33zM74.61 34.06c0 .13-.08.26-.13.39l-.26-.23zM74 34c.06.08.11.13.18.21-.1 0-.18.07-.28.1A1.86 1.86 0 0 1 74 34z"/><path class="cls-1" d="M74.15 33.68A.72.72 0 0 0 74 34c-.07 0-.15-.13-.23-.2a1.58 1.58 0 0 1 .38-.12zM73.71 45c0 .41-.1.84-.15 1.28a8.7 8.7 0 0 0-.56-.78 5.6 5.6 0 0 0 .71-.5zM72.92 17.81a.44.44 0 0 1 .43.57 1.8 1.8 0 0 0-.43-.11c-.82-.18-1.62-.33-2.46-.46a20.19 20.19 0 0 1 2.46 0z"/><path class="cls-1" d="M72.92 18.27a1.8 1.8 0 0 1 .43.11.49.49 0 0 1-.43.33 128 128 0 0 0-13.85 2.36c-.33-.16-.66-.31-1-.46 4.72-1 10-2.34 14.85-2.34z"/><path class="cls-1" d="M70.46 17.81c.84.13 1.64.28 2.46.46-4.85 0-10.13 1.34-14.87 2.34l-.69-.31a2.44 2.44 0 0 0 0 .48c-.08 0-.18 0-.26.06a1.15 1.15 0 0 0 .23.1c0 .18-.05.36-.08.54.26-.05.52-.11.77-.18 2.28 1.18 4.49 2.41 6.85 3.41a5 5 0 0 0-1.1.33 51.29 51.29 0 0 1-7-3.64.65.65 0 0 1 .15-1.18c4.41-.87 9-2.23 13.53-2.41-.02-.02-.02-.02.01 0zM67.43 63.85c.51 0 1 .08 1.57.15h.12c.36.18.08.67-.25.62a33.39 33.39 0 0 1-5-1.16c1.2.16 2.38.26 3.56.39z"/><path class="cls-1" d="M68.2 63.59c.26.13.54.26.8.41-.54-.07-1.06-.13-1.57-.15l-1.18-.39c.64.03 1.31.08 1.95.13zM68 32.55l-.77.23a7.1 7.1 0 0 1 .59-.64.4.4 0 0 1 .66.28c-.18.05-.33.1-.48.13z"/><path class="cls-1" d="M68.48 32.42c0 .08 0 .1-.07.18-1.75 2.74-3.18 5.59-4.82 8.38s-3.54 5.36-4.41 8.51a9.38 9.38 0 0 0 .1-2.23c1-2.28 2.62-4.38 3.8-6.51C64.61 38 66 34.93 68 32.55c.15-.03.3-.08.48-.13zM67.07 114c.36 0 .72.05 1.05.05a.75.75 0 0 1-.3.9H67.13a12.48 12.48 0 0 1-1.16-1zM68.12 114c-.33 0-.69 0-1.05-.05a7.06 7.06 0 0 1-1.33-1.13h1.18a7.62 7.62 0 0 0 1 .77.54.54 0 0 1 .2.41z"/><path class="cls-1" d="M67.23 32.78l.77-.23c-2 2.38-3.39 5.43-4.92 8.15-1.18 2.13-2.8 4.23-3.8 6.51 0-.36 0-.69-.05-1.05 1-2 2.28-3.77 3.36-5.77 1.41-2.58 2.66-5.39 4.64-7.61zM67.18 114.86h.64a.55.55 0 0 1-.64 0z"/><path class="cls-9" d="M77.17 65.62c-9.38 5-15.2 14-16.89 24.53-1.15 7-.41 16.94 4.64 22.66q-2.93-.12-5.85-.29c-3.56-.2-7.09-.25-10.66-.23-3.77-3.61-5.87-6.53-7.15-11.81-1.1-4.62-.87-9.18-.41-13.85 0-.23-.33-.25-.41 0-2 5.9-1.28 21.77 5.61 25.74-4.56.05-9.12.18-13.68.2-6.8-6.89-9.08-19.55-5.54-28.4.08-.2-.26-.33-.33-.15-4.26 8.69-2.28 21.22 4.17 28.58-2.74 0-5.48 0-8.22-.13-13.15-11.94-17-37.65.46-48.08a.53.53 0 0 0 .25-.34c10.59-.56 21.15-.38 31.74-.25 7.43.05 14.84 1.07 22.27 1.82z"/><path class="cls-1" d="M68.2 63.59c-.64-.05-1.31-.1-2-.13C61 61.69 55.05 59.44 53 54a.69.69 0 0 0-.16-.43 8.16 8.16 0 0 1-.31-1c-.81-4 2.6-5.08 5.31-6.82a3 3 0 0 1 .08.64c-2 1.28-5.18 2.59-4.82 5.2a10.8 10.8 0 0 0 5.13 7.54c3.15 1.98 6.71 2.87 9.97 4.46zM67.07 114l-1.1-.08a10.61 10.61 0 0 1-1-1.07h.82a7.06 7.06 0 0 0 1.28 1.15zM66 25.22a.44.44 0 0 0-.46-.67l-.74.16c-2.36-1-4.57-2.23-6.85-3.41l1.1-.23c2.57 1.18 5.08 2.51 7.59 3.77.59.3.18 1.23-.46 1.05l-.87-.26a4.69 4.69 0 0 1 .46-.21c.12-.05.23-.12.23-.2z"/><path class="cls-1" d="M66.25 63.46l1.18.39c-1.18-.13-2.36-.23-3.54-.34a4.7 4.7 0 0 1-.84-.3c1.05.07 2.13.15 3.2.25zM65.43 32c.28-.1.57-.18.85-.26a6.32 6.32 0 0 0-.36.74l-.44.13a1.89 1.89 0 0 1-.2-.2 3.39 3.39 0 0 1 .15-.41zM66 113.88a12.48 12.48 0 0 0 1.16 1c-2.7-.13-5.39-.26-8.06-.41-.66 0-1.33-.08-2-.11-7.39-.35-14.64-.2-22 0h-1.9a.58.58 0 0 0 .29-.9c4.84-.15 9.74-.48 14.4-.48a4.24 4.24 0 0 0 .46.1.47.47 0 0 0 .36-.1c1.23 0 2.46 0 3.67.1 4.41.24 9 .55 13.62.8zM65.56 25a3.38 3.38 0 0 1-.74-.3l.74-.16a.44.44 0 0 1 .46.67 3.13 3.13 0 0 1-.46-.21z"/><path class="cls-1" d="M65.56 25a3.13 3.13 0 0 0 .46.21c0 .08-.13.15-.23.2a4.69 4.69 0 0 0-.46.21c-.28-.1-.54-.18-.82-.31a8.34 8.34 0 0 1 1.05-.31zM65.92 32.52c0 .13-.13.29-.18.42a3.4 3.4 0 0 1-.26-.29z"/><path class="cls-1" d="M64.82 24.71a3.38 3.38 0 0 0 .74.3 8.34 8.34 0 0 0-1 .31 7.41 7.41 0 0 1-.79-.28 5 5 0 0 1 1.05-.33zM65.48 32.65l-.33.11a1.69 1.69 0 0 1 .13-.31 1.89 1.89 0 0 0 .2.2zM65 32.17a1.76 1.76 0 0 1 .43-.13 3.39 3.39 0 0 0-.15.41zM64.92 112.81a10.61 10.61 0 0 0 1 1.07c-4.59-.25-9.18-.56-13.66-.74-1.21-.08-2.44-.1-3.67-.1a.35.35 0 0 0 0-.52l-.23-.23c3.57 0 7.1 0 10.66.23q2.98.17 5.9.29zM64.51 25.32c.28.13.54.21.82.31-4.85 1.9-8.69 5.41-11.95 9.43-.33.08-.66.16-1 .26 2.95-3.74 7.54-8.41 12.13-10z"/><path class="cls-1" d="M63.72 25a7.41 7.41 0 0 0 .79.28c-4.59 1.59-9.18 6.26-12.12 10a6.79 6.79 0 0 0-1 .36l.42.41a.45.45 0 0 0-.11.13.48.48 0 0 1 .18-.06l.36.36c.16-.2.31-.41.49-.61a11.46 11.46 0 0 1 2.52-.25 20.84 20.84 0 0 1 4.18.48 2.47 2.47 0 0 0-.72.54 25.1 25.1 0 0 0-6.36.08 3.19 3.19 0 0 0-.26-.26.64.64 0 0 0-.89.08.48.48 0 0 1-.06-.67c3.13-4.05 7.39-9.12 12.54-10.84zM66.25 63.46c-1.07-.1-2.15-.18-3.2-.25-3.92-1.34-7.74-3.54-9.67-6.8a11.65 11.65 0 0 1-.89-1.76l.3-.23A.68.68 0 0 0 53 54c2.05 5.44 8 7.69 13.25 9.46z"/><path class="cls-1" d="M63.05 63.21a4.7 4.7 0 0 0 .84.3c-3.79-.33-7.56-.51-11.27-.51h-.21a.39.39 0 0 0 0-.26.88.88 0 0 0 0-.15c3.51.13 7.08.41 10.64.62zM62.82 15a.59.59 0 0 1-.62-.08v-.12a.57.57 0 0 1 .87-.62.59.59 0 0 1 .26.31.54.54 0 0 0 .1.2 4.74 4.74 0 0 0-.54.29s-.05.02-.07.02z"/><path class="cls-6" d="M53.38 56.41c1.93 3.26 5.75 5.46 9.67 6.8-3.56-.23-7.13-.49-10.69-.67a4.87 4.87 0 0 0-1-1.43 5.78 5.78 0 0 1-.87-2.44 4.33 4.33 0 0 1 2-4 11.65 11.65 0 0 0 .89 1.74z"/><path class="cls-1" d="M60.54 36.34c0-.05.05-.07.07-.12a.4.4 0 0 0 0-.29l.13.06c.41.15.41.84-.11.82h-.43c.13-.16.21-.31.34-.47z"/><path class="cls-1" d="M60.05 36.24l-.61-.13a3.2 3.2 0 0 1 .69-.36c.18.06.35.11.51.18a.4.4 0 0 1 0 .29c0 .05 0 .07-.07.12s-.34-.07-.52-.1z"/><path class="cls-1" d="M60.64 35.93c-.16-.07-.33-.12-.51-.18h.1a.34.34 0 0 1 .41.18zM60.54 36.34c-.13.16-.21.31-.31.44-.26 0-.49 0-.74-.05a3.39 3.39 0 0 1 .56-.49c.18.03.33.08.49.1z"/><path class="cls-1" d="M59.49 36.73c.25 0 .48 0 .74.05-1.62 2.54-1.74 4.36-1.26 7.48.1.65.18 1.29.26 1.9-.18.34-.36.67-.51 1a10.29 10.29 0 0 0-.11-1.2.6.6 0 0 0-.12-.93c-.49-3.03-1.18-6.15 1-8.3z"/><path class="cls-1" d="M59.44 36.11l.61.13a3.39 3.39 0 0 0-.56.49l-.77-.08a2.47 2.47 0 0 1 .72-.54zM60.13 35.75a3.2 3.2 0 0 0-.69.36 20.84 20.84 0 0 0-4.18-.48 11.46 11.46 0 0 0-2.52.25c.21-.28.41-.56.64-.82a12.76 12.76 0 0 1 6.75.69zM59.28 47.26a9.38 9.38 0 0 1-.1 2.23 4 4 0 0 1-.59-.18v-.05a13.48 13.48 0 0 1 .69-2z"/><path class="cls-1" d="M59.28 47.21a13.48 13.48 0 0 0-.69 2 6.91 6.91 0 0 0 .13-2v-.05c.15-.33.33-.66.51-1 .03.36.05.69.05 1.05zM58.72 36.65l.77.08C57.31 38.88 58 42 58.49 45a.54.54 0 0 0-.49 0l-.18.11c-.46-3.11-1.08-6.56.9-8.46zM58.59 49.31a4 4 0 0 0 .59.18c-.21.77-1.28.44-1.18-.33zM59.07 21.07L58 21.3a7.59 7.59 0 0 1-.69-.36.32.32 0 0 1 0-.16c.25-.05.48-.1.74-.17.36.15.69.3 1.02.46zM58.49 45a.6.6 0 0 1 .12.93c-.05-.28-.07-.59-.12-.93z"/><path class="cls-1" d="M58.72 47.21a6.91 6.91 0 0 1-.13 2v.05l-.59-.1a13.53 13.53 0 0 1 .72-1.95z"/><path class="cls-1" d="M58.72 47.16v.05a13.53 13.53 0 0 0-.72 1.9 9.44 9.44 0 0 0 0-2.69 4.63 4.63 0 0 0 .59-.39l.07-.07a10.29 10.29 0 0 1 .06 1.2zM57.87 45.75c0-.2 0-.41-.08-.61L58 45a.54.54 0 0 1 .52 0c0 .31.07.62.12.93l-.07.07a4.63 4.63 0 0 1-.59.39 3 3 0 0 0-.08-.64zM57.56 143.82a7.22 7.22 0 0 1 .8.08.43.43 0 0 1-.43.56 1.8 1.8 0 0 1-1.77-.84 12.93 12.93 0 0 1 1.4.2z"/><path class="cls-1" d="M58.36 143.9a7.22 7.22 0 0 0-.8-.08c-3.46-2.79-.72-19.43-.72-24.78.18 4.63-.26 9.25-.36 13.89a31.41 31.41 0 0 0 .41 7.87c.34 1.2 1.11 2 1.47 3.1zM58.05 20.61c-.26.07-.49.12-.74.17a2.44 2.44 0 0 1 0-.48zM58 21.3c-.25.07-.51.13-.77.18 0-.18.06-.36.08-.54a7.59 7.59 0 0 0 .69.36zM57.87 45.75c-2.71 1.74-6.12 2.87-5.31 6.82a8.16 8.16 0 0 0 .31 1 .39.39 0 0 0-.46-.08 1.05 1.05 0 0 0-.26.13 5.22 5.22 0 0 1 1-5 .41.41 0 0 0 .62-.31 2.55 2.55 0 0 0 0-.39 16 16 0 0 1 3.1-2.26.34.34 0 0 0 .23-.15l.64-.33c.08.16.11.37.13.57z"/><path class="cls-1" d="M57.56 143.82a12.93 12.93 0 0 0-1.38-.15c-2.8-4.23.43-22 .61-24.6a.1.1 0 0 1 0-.06v.06c.05 5.32-2.69 21.93.77 24.75zM52.21 37.37a1.12 1.12 0 0 1 0-.31 2.55 2.55 0 0 0-.28.08l-.29-.23a1.54 1.54 0 0 0 0 .31c-.13.05-.26.07-.36.1a3.69 3.69 0 0 1 .29.28c-.6 3.66 1.69 7.1 1.84 10.66l-.23.28a.33.33 0 0 1-.13-.18c-1.07-3.61-2.69-7.84-1.92-11.66a.21.21 0 0 1 .08-.18.66.66 0 0 0 .64.26 3.55 3.55 0 0 1 .51-.08c2.33 2.1 3.23 5.36 4.92 8a.56.56 0 0 1-.13.79.34.34 0 0 1-.23.15.61.61 0 0 1-.79-.28c-1.26-2.33-2.21-5.15-4-7.18a3.59 3.59 0 0 1 .08-.81zM57.31 20.78a.32.32 0 0 0 0 .16 1.15 1.15 0 0 1-.23-.1c.05-.03.15-.03.23-.06z"/><path class="cls-9" d="M57.08 114.34l-.26 4.66a.1.1 0 0 0 0 .06c-.18 2.56-3.41 20.37-.61 24.6-6.41-.76-12.82-1.22-19.21-1.66v-.15a.31.31 0 0 0 .29-.46c-3.7-7.93-.67-17-1.77-25.25a.43.43 0 0 0-.41-.36v-1.36c7.33-.28 14.58-.42 21.97-.08z"/><path class="cls-8" d="M56.13 45.34a.61.61 0 0 0 .79.28 16 16 0 0 0-3.1 2.26c.23-3.31-1.9-6.33-1.69-9.72 1.79 2.03 2.74 4.84 4 7.18z"/><path class="cls-1" d="M52.13 38.16c-.21 3.39 1.92 6.41 1.69 9.72-.13.11-.25.23-.41.39-.15-3.56-2.44-7-1.84-10.66a2.77 2.77 0 0 1 .56.55zM53.82 47.9a2.55 2.55 0 0 1 0 .39.41.41 0 0 1-.62.31l.23-.28c.14-.19.26-.32.39-.42zM53.38 35.06c-.23.26-.43.54-.64.82a4.65 4.65 0 0 0-.85.25l-.07-.07c.18-.26.38-.52.59-.77s.64-.15.97-.23zM52.87 53.6a.69.69 0 0 1 .13.4 1.5 1.5 0 0 1-.13-.4z"/><path class="cls-1" d="M52.28 54.13c-.05-.18-.1-.33-.13-.48a1.05 1.05 0 0 1 .26-.13.39.39 0 0 1 .46.08 1.5 1.5 0 0 0 .13.4.68.68 0 0 1-.24.39l-.3.23c-.05-.15-.1-.33-.18-.49zM52.72 35.91c-.18.2-.33.41-.49.61l-.36-.36a4.65 4.65 0 0 1 .85-.25z"/><path class="cls-2" d="M51.69 13.4c3.39 3.39-4.66 7.23-9.12 7.23a2.05 2.05 0 0 0 .15-.66 11.61 11.61 0 0 0 3.87-.59c1.69-.59 5-1.77 5.46-3.88.67-3.33-4-2.2-5.56-1.46a11.57 11.57 0 0 0-3.28 2.26c-.46.49-1.46 2.64-1.72 2.64.92 0 1.26.46 1.23 1-.43 0-.87 0-1.33-.06-1.26-3.94 8.2-8.88 10.3-6.48z"/><path class="cls-2" d="M42.57 20.63c4.46 0 12.51-3.84 9.12-7.23-2.1-2.43-11.56 2.54-10.3 6.51h-.85a.27.27 0 0 0-.28.2 7.87 7.87 0 0 1 1.54-3.46c1.74-2.18 6.46-5.46 9.46-4 3.23 1.56 1 4.89-1.1 6.18-1.49.92-5.59 2.94-8.18 2.56a2.08 2.08 0 0 0 .59-.76z"/><path class="cls-1" d="M52.28 54.13c.08.16.13.34.21.52a4.33 4.33 0 0 0-2 4 5.78 5.78 0 0 0 .87 2.44 4.87 4.87 0 0 1 1 1.43h-.64c-2.54-2.52-2.49-6.62.56-8.39z"/><path class="cls-1" d="M51.72 62.49h.64a.88.88 0 0 1 0 .15.39.39 0 0 1 0 .26h-1a2.61 2.61 0 0 1-.64-.51c.36.05.66.07 1 .1zM51.38 63h1a.43.43 0 0 1-.49.21 1.64 1.64 0 0 1-.51-.21zM52.1 36.47a3.19 3.19 0 0 1 .26.26 3.55 3.55 0 0 0-.51.08.66.66 0 0 1-.64-.26.64.64 0 0 1 .89-.08zM51.38 35.68a6.79 6.79 0 0 1 1-.36c-.21.25-.41.51-.59.77zM52.26 37.06a1.12 1.12 0 0 0 0 .31l-.26-.23a2.55 2.55 0 0 1 .26-.08z"/><path class="cls-1" d="M52.15 53.65c0 .15.08.3.13.48-3.05 1.77-3.1 5.85-.56 8.36-.34 0-.64-.05-1-.05a6.54 6.54 0 0 1-1.43-4.56 5.14 5.14 0 0 1 2.86-4.23zM52.21 37.37a3.59 3.59 0 0 0-.08.79 2.77 2.77 0 0 0-.56-.53 1 1 0 0 1 .07-.38 2.84 2.84 0 0 1 .34-.08z"/><path class="cls-4" d="M46.49 14c1.56-.74 6.23-1.87 5.56 1.46-.41 2.11-3.77 3.29-5.46 3.88a11.61 11.61 0 0 1-3.87.59c0-.57-.31-1.06-1.23-1 .26 0 1.26-2.15 1.72-2.64A11.57 11.57 0 0 1 46.49 14z"/><path class="cls-1" d="M51.69 36.91l.29.23a2.84 2.84 0 0 0-.34.08 1.54 1.54 0 0 1 .05-.31zM51.87 36.16a.48.48 0 0 0-.18.06.45.45 0 0 1 .11-.13zM51.64 37.22a1 1 0 0 0-.07.38 3.69 3.69 0 0 0-.29-.28c.1-.03.23-.05.36-.1zM22.45 63.23c-.05 0-.11 0-.16.08-.43.26-.87.51-1.28.79-1.85.1-3.7.23-5.54.41a.49.49 0 0 1-.54-.31.5.5 0 0 0 0-.66.42.42 0 0 1 .38-.31c11.83-1.59 23.69-1.43 35.43-.79a2.61 2.61 0 0 0 .64.51c-9.79 0-19.19-.38-28.7.28a.45.45 0 0 0-.23 0zM47.47 112.32h.94l.23.23a.35.35 0 0 1 0 .52h-.82a6.46 6.46 0 0 1-1.74-.72c.46-.03.92-.06 1.39-.03z"/><path class="cls-1" d="M47.82 113h.82a.47.47 0 0 1-.36.1 4.24 4.24 0 0 1-.46-.1zM47.47 112.32h-1.39c-6.89-4-7.63-19.84-5.61-25.74.08-.2.44-.18.41 0-.46 4.67-.69 9.23.41 13.85 1.28 5.28 3.38 8.2 7.15 11.81-.33.05-.67.05-.97.08zM46.08 112.32a6.46 6.46 0 0 0 1.74.72c-4.66 0-9.56.33-14.4.48l-.08-.07c-.33-.28-.64-.59-1-.93 4.56 0 9.12-.15 13.68-.2z"/><path class="cls-2" d="M37.9 47.49c2.52-.43 7.41 0 5.67 3.82a5.43 5.43 0 0 1-3.74 2.93c-.77.23-1.75.64-2.7.84a3.68 3.68 0 0 0 .85-.56.3.3 0 0 0 .08-.34C40 53.7 42.13 53 42.72 51.8c2.15-3.72-1.56-4.33-4.64-3.72-5.25 1.44-5.35 6.36-3 7a.11.11 0 0 0 .1.05 4.05 4.05 0 0 0 1.92-.05c-1.61.9-3.76.67-4.1-1.66-.35-2.85 2.16-5.42 4.9-5.93z"/><path class="cls-2" d="M38.08 48.08c3.08-.61 6.79 0 4.64 3.72-.59 1.2-2.72 1.9-4.66 2.38a.35.35 0 0 0-.47-.15 3.74 3.74 0 0 1-2.23.46 6 6 0 0 1 2.44-.79 11.85 11.85 0 0 0 3.49-1.26c1-.59 2.43-2.79.89-3.56a5.78 5.78 0 0 0-3.61-.26c-2 .39-4.41 2-4.33 4.23 0 1 .48 1.51 1.12 1.64-.07.08-.17.16-.25.26a.27.27 0 0 0 0 .31c-2.38-.62-2.28-5.54 2.97-6.98zM42.72 20a2.05 2.05 0 0 1-.15.66 4.23 4.23 0 0 1-2-.41h1a1.12 1.12 0 0 1-.1-.31c.38 0 .82.06 1.25.06z"/><path class="cls-2" d="M40.54 20.22a4.23 4.23 0 0 0 2 .41 2.08 2.08 0 0 1-.59.72 2.48 2.48 0 0 1-1.67-.9.32.32 0 0 1-.07-.2v-.05a.22.22 0 0 1 0-.11.27.27 0 0 1 .28-.2h.85a1.12 1.12 0 0 0 .1.31z"/><path class="cls-4" d="M42.18 48.88c1.54.77.06 3-.89 3.56a11.85 11.85 0 0 1-3.49 1.26 6 6 0 0 0-2.44.79c-.64-.13-1.1-.59-1.12-1.64-.08-2.28 2.36-3.84 4.33-4.23a5.78 5.78 0 0 1 3.61.26z"/><path class="cls-2" d="M42 21.35c-.46.36-1.1.36-1.59-.49a1.23 1.23 0 0 1-.15-.61.32.32 0 0 0 .07.2 2.48 2.48 0 0 0 1.67.9zM32.44 33.45c2.31-.77 6.36-1.08 5.82 2.51a8.92 8.92 0 0 1-4.12 5.72.47.47 0 0 0-.42-.49c5-2.95 6.36-10.13-1.53-7-7.44 2.66-4.31 11.35.89 7.92a5.67 5.67 0 0 0 1-.41.37.37 0 0 1-.1.18c-2.16 1.76-5.51 2.3-6.59-.93-1.2-3.63 1.95-6.45 5.05-7.5zM38.06 54.18a.3.3 0 0 1-.08.34 3.68 3.68 0 0 1-.85.56 4.05 4.05 0 0 1-1.92.05.11.11 0 0 1-.1-.05 3.28 3.28 0 0 0 2.67-.79l-2.49.61c.71-.23 1.71-.43 2.77-.72z"/><path class="cls-2" d="M37.59 54a.35.35 0 0 1 .47.15c-1.08.29-2.1.49-2.77.72l2.49-.61a3.28 3.28 0 0 1-2.67.79.27.27 0 0 1 0-.31c.08-.1.18-.18.25-.26a3.74 3.74 0 0 0 2.23-.48zM32.26 41.88h.26a1.64 1.64 0 0 1-.56.2.25.25 0 0 1 0-.38c1-.9 2.28-1.31 3.23-2.26a7.26 7.26 0 0 0 1.87-2.87c.88-2.87-1.89-2.87-3.92-2.15-2.41.87-5.38 2.74-4.69 5.76A2.49 2.49 0 0 0 32 42.09a.37.37 0 0 0 .23.1 3.74 3.74 0 0 0 .89-.1c-5.2 3.43-8.33-5.26-.89-7.92 7.89-3.11 6.53 4.07 1.53 7a.26.26 0 0 0-.18.08 1.25 1.25 0 0 1-.17.12 8.49 8.49 0 0 1-1.15.51z"/><path class="cls-1" d="M37.24 141.34a.31.31 0 0 1-.29.46h-.07c-3.21-.54-2.64-8-2.67-10.2a96.67 96.67 0 0 1 .57-15.6.28.28 0 0 1 .28-.28.43.43 0 0 1 .41.36c1.1 8.31-1.93 17.33 1.77 25.26z"/><path class="cls-4" d="M33.16 34.4c2-.72 4.8-.72 3.92 2.15a7.26 7.26 0 0 1-1.87 2.87c-1 .95-2.25 1.36-3.23 2.26a.25.25 0 0 0 0 .38 2.49 2.49 0 0 1-3.49-1.93c-.71-2.99 2.26-4.86 4.67-5.73z"/><path class="cls-9" d="M37 141.8v.2c-6.15-.43-12.27-.9-18.4-1.56a.51.51 0 0 0-.54.25c-1.48-1.92-.69-12.22-.66-13.81.07-4.1.87-9.38-.54-13.33 5.15 1.23 10.58 1.13 15.86 1a.5.5 0 0 0 .43 0H35v1.36a.28.28 0 0 0-.28.28 96.67 96.67 0 0 0-.57 15.59c0 2.2-.54 9.66 2.67 10.2z"/><path class="cls-2" d="M33.72 41.19a.47.47 0 0 1 .42.49 5.67 5.67 0 0 1-1 .41c.21-.16.44-.31.64-.49l-1.15.23a3.5 3.5 0 0 0 .8-.44 1.25 1.25 0 0 0 .17-.12.26.26 0 0 1 .12-.08z"/><path class="cls-2" d="M33.72 41.6c-.2.18-.43.33-.64.49a3.74 3.74 0 0 1-.89.1.37.37 0 0 1-.23-.1 1.64 1.64 0 0 0 .56-.2z"/><path class="cls-1" d="M32.55 113.58c.28 0 .56 0 .87-.06a.58.58 0 0 1-.29.9h-.43a.32.32 0 0 1-.2-.1c-.26-.23-.54-.49-.77-.72.27-.02.53-.02.82-.02z"/><path class="cls-1" d="M33.34 113.45l.08.07c-.31 0-.59 0-.87.06a9.84 9.84 0 0 1-1.08-1.06 4.51 4.51 0 0 0 .9 0c.33.34.63.65.97.93zM33.13 114.42a.5.5 0 0 1-.43 0z"/><path class="cls-2" d="M33.37 41.39a3.5 3.5 0 0 1-.8.44s0 .05 0 0h-.26a8.49 8.49 0 0 0 1.06-.44zM28.78 8.56c2.33 1.61 4.76 5 3.95 8-1 3.56-5.57 2.38-7.49.38a.55.55 0 0 1-.15-.28 8 8 0 0 0 2 .64c8.2 3.9 5.28-9.46-2.95-9.18-6.28.28-2.77 5.62 1.07 8a.62.62 0 0 0-.12.59c-2.69-1.18-5.41-3.77-5.23-6.36.25-4.15 6.51-3.41 8.92-1.79z"/><path class="cls-1" d="M21.34 113.4l.54.33a.76.76 0 0 0 .93-.23c2.87.18 5.87.18 8.89.1.23.23.51.49.77.72a.32.32 0 0 0 .2.1c-5.28.18-10.71.28-15.86-1a.92.92 0 0 0-1.51-.41.71.71 0 0 0-.25-.82.44.44 0 0 1 .46-.26c1.41.13 2.84.26 4.25.31a9.57 9.57 0 0 0 1.58 1.16zM32.55 113.58h-.85l-1-1a7.13 7.13 0 0 0 .8 0 9.84 9.84 0 0 0 1.05 1zM31.47 112.52a7.13 7.13 0 0 1-.8 0c-6.45-7.33-8.43-19.86-4.17-28.52.07-.18.41 0 .33.15-3.54 8.85-1.26 21.51 5.54 28.4a4.51 4.51 0 0 1-.9-.03z"/><path class="cls-2" d="M24.14 8.12c8.23-.28 11.15 13.08 2.95 9.18a3.94 3.94 0 0 0 .77.08c.3 0 .33-.41.07-.52a9.06 9.06 0 0 1-1.87-.86c1.41.48 4.92 2.46 5-.23a6.84 6.84 0 0 0-2.94-5.52 6.43 6.43 0 0 0-4-1.23c-1.31.08-3.1.39-2.46 2.08A10.33 10.33 0 0 0 26 15.91h-.11a.59.59 0 0 0-.64.18c-3.88-2.35-7.39-7.69-1.11-7.97z"/><path class="cls-1" d="M30.67 112.55c.34.36.67.69 1 1-3 .08-6 .08-8.89-.1a.59.59 0 0 0-.08-.82c-.1-.08-.18-.18-.28-.26 2.77.15 5.51.18 8.25.18z"/><path class="cls-4" d="M28.14 10.22a6.84 6.84 0 0 1 2.94 5.52c-.1 2.69-3.61.71-5 .23 0 0-.08 0-.1-.06a10.33 10.33 0 0 1-4.28-4.84c-.7-1.69 1.13-2 2.44-2.07a6.43 6.43 0 0 1 4 1.22z"/><path class="cls-2" d="M26.5 16.73a8.75 8.75 0 0 1-1.29-.66.59.59 0 0 1 .64-.18h.11s.05 0 .1.06a9.06 9.06 0 0 0 1.87.89c.26.11.23.52-.07.52a3.94 3.94 0 0 1-.77-.08c-.44-.21-.9-.49-1.41-.8zm.07 0a5 5 0 0 0 1.29.36z"/><path class="cls-2" d="M26.57 16.76l1.29.36a5 5 0 0 1-1.29-.36zM26.5 16.73l-.82-.23c.51.31 1 .59 1.41.8a8 8 0 0 1-2-.64.62.62 0 0 1 .12-.59 8.75 8.75 0 0 0 1.29.66z"/><path class="cls-1" d="M22.22 64.05h-1.21c.41-.28.85-.53 1.28-.79.05-.05.11-.05.16-.08a.88.88 0 0 1 .23 0 .61.61 0 0 1 .48.77c-.3.05-.64.05-.94.1zM22.22 64.05h.94a.53.53 0 0 1-.25.34c-17.43 10.38-13.61 36.09-.46 48.03-.44 0-.9 0-1.34-.07-13.58-10.26-14.99-39.09 1.11-48.3z"/><path class="cls-1" d="M21.11 112.35c.44.05.9.05 1.34.07.1.08.18.18.28.26a.59.59 0 0 1 .08.82c-.49 0-1 0-1.47-.1a9.57 9.57 0 0 1-1.64-1.13 13.48 13.48 0 0 0 1.41.08zM22.68 63.23a.88.88 0 0 0-.23 0 .45.45 0 0 1 .23 0z"/><path class="cls-1" d="M22.81 113.5a.76.76 0 0 1-.93.23l-.54-.33c.49.05.98.07 1.47.1zM21 64.1h1.21c-16.1 9.21-14.69 38-1.11 48.3a13.48 13.48 0 0 1-1.41-.08c-7-5.36-10.07-16.33-9.89-24.66.2-9.28 3.37-18.3 11.2-23.53z"/><path class="cls-10" d="M19.7 112.27c-1.41 0-2.84-.18-4.25-.31a.44.44 0 0 0-.46.26.7.7 0 0 0-.46-.18c-9-.62-11.64-14.18-11.85-21.51-.25-9 3.72-21.84 12.1-26.22.05 0 .11 0 .13-.08a.49.49 0 0 0 .54.31c1.84-.18 3.69-.31 5.54-.41C13.17 69.36 10 78.38 9.81 87.61c-.18 8.33 2.85 19.3 9.89 24.66z"/><path class="cls-1" d="M18 141.29a.71.71 0 0 1 0-.65 1 1 0 0 0 .34.29.41.41 0 0 1 .12.74h-.1a.5.5 0 0 1-.36-.38z"/><path class="cls-1" d="M18 141.29a.5.5 0 0 0 .38.35h.1a.36.36 0 0 1-.23.08c-5 .61-2.64-24.12-3.28-27.74a1 1 0 0 1 0-.56.66.66 0 0 0 .23-.33c.49.16 1 .29 1.49.41 1.41 4 .61 9.23.54 13.33 0 1.59-.82 11.89.66 13.81a.71.71 0 0 0 .11.65z"/><path class="cls-2" d="M13.17 33.19c2.82.36 4.92 2.59 4.23 5.54a6.79 6.79 0 0 1-6.85 5.15 6.78 6.78 0 0 0 2.26-.88.18.18 0 0 0 .1-.17c6.59-2.59 4.77-12.46-5.2-7.46-7.13 3.46-3.21 7.79 2.15 7.84a.41.41 0 0 0 .33.64h.36A8.11 8.11 0 0 1 6 43.32c-1.49-.62-3.13-1.93-3.1-3.72 0-2.23 2-3.82 3.84-4.74s4.26-1.95 6.43-1.67z"/><path class="cls-2" d="M7.71 35.4c10-5 11.79 4.87 5.2 7.46a.25.25 0 0 0-.23-.29h-.95c1.85-.64 3.59-1.52 4.18-3.59a3.07 3.07 0 0 0-2.44-4.05 8 8 0 0 0-4.47.85c-1.28.59-4.2 1.8-4.2 3.56 0 2.8 4.4 3.16 6.92 3.21-.54.18-1.08.33-1.62.48-.1.06-.2.11-.23.18-5.37-.05-9.29-4.38-2.16-7.81z"/><path class="cls-1" d="M16.78 113.47c-.48-.12-1-.25-1.49-.41a.92.92 0 0 1 1.49.41z"/><path class="cls-4" d="M13.47 34.91A3.07 3.07 0 0 1 15.91 39c-.59 2.07-2.33 2.95-4.18 3.59-2.52 0-6.92-.41-6.92-3.21 0-1.76 2.92-3 4.2-3.56a8 8 0 0 1 4.46-.91z"/><path class="cls-1" d="M15 112.22a.71.71 0 0 1 .25.82.6.6 0 0 1-.25-.82z"/><path class="cls-1" d="M15.24 113a.61.61 0 0 0-.23.33 1 1 0 0 1-.46.18C4.68 114.68 1.15 98.53 1 91.4c-.18-8.66 3.41-25.5 13.41-28a.48.48 0 0 1 .49.16.65.65 0 0 0 0 .66s-.08 0-.13.08C6.4 68.69 2.43 81.48 2.68 90.53c.21 7.33 2.82 20.89 11.85 21.47a.7.7 0 0 1 .46.18.6.6 0 0 0 .25.82zM15.24 113.09a.66.66 0 0 1-.23.33.61.61 0 0 1 .23-.33z"/><path class="cls-1" d="M14.89 63.57a.5.5 0 0 1 0 .66.65.65 0 0 1 0-.66z"/><path class="cls-2" d="M12.66 42.83a9.88 9.88 0 0 1-2.8.38c0-.07.13-.12.23-.18.54-.15 1.08-.3 1.62-.48h.95a.25.25 0 0 1 .23.29 9.4 9.4 0 0 1-2.72.58z"/><path class="cls-2" d="M12.91 42.86a.18.18 0 0 1-.1.17 6.78 6.78 0 0 1-2.26.85h-.36a.41.41 0 0 1-.33-.64 9.88 9.88 0 0 0 2.8-.38l-2.47.61a9.4 9.4 0 0 0 2.72-.61zM12.14 140.75a3 3 0 0 1-3.66 4 3.62 3.62 0 0 0 .94-.1.59.59 0 0 0 .41-.62c4.21-.79.13-7.94-5.22-7.35-7.51.82-1.52 5.89 3.15 7.15a.72.72 0 0 0 .41.84l.31.08a10.71 10.71 0 0 1-3.69-1.23 10.53 10.53 0 0 1-3.85-3c-2.13-3 1.33-4.67 4-4.72a7.6 7.6 0 0 1 7.2 4.95z"/><path class="cls-2" d="M4.61 136.7c5.35-.59 9.43 6.56 5.22 7.35a.44.44 0 0 0-.28-.43 2.27 2.27 0 0 0-.48-.18c.66-.08 1.36-.26 1.59-.75a2.44 2.44 0 0 0-.42-2.2 6 6 0 0 0-5.63-3c-.47.08-3 .33-2.75 1.31a4.44 4.44 0 0 0 1.82 2.2 14.36 14.36 0 0 0 3.21 1.79c.69.28 1.46.41 2.18.67-.34.05-.64.07-.9.1a.48.48 0 0 0-.41.31c-4.67-1.28-10.66-6.35-3.15-7.17z"/><path class="cls-4" d="M10.24 140.49a2.44 2.44 0 0 1 .42 2.2c-.23.49-.93.67-1.59.75-.72-.26-1.49-.39-2.18-.67A14.36 14.36 0 0 1 3.68 141a4.44 4.44 0 0 1-1.82-2.18c-.23-1 2.28-1.23 2.75-1.31a6 6 0 0 1 5.63 2.98z"/><path class="cls-2" d="M2.45 119.65c4.75-5.05 11.2.41 6.54 4.44a.54.54 0 0 0 .15-.29.44.44 0 0 0-.2-.54 3.31 3.31 0 0 0 1-1.66 2.64 2.64 0 0 0-.87-2.6c-2.16-1.75-4.85-.49-6.33 1.43-1.13 1.46-1.67 3.41.61 3.87a5.45 5.45 0 0 0 2.72-.15c.84-.26 1.61-.82 2.43-1a.57.57 0 0 1 .44.1c-.16.18-.33.36-.46.54s-.05 0-.05 0c-3.75 3.21-10.82 1.01-5.98-4.14z"/><path class="cls-2" d="M9 124.09c4.66-4-1.79-9.49-6.54-4.44s2.23 7.36 6 4.2a4.12 4.12 0 0 0-.44.57.38.38 0 0 0 .28.56c-1.61 1.41-4.74 1.51-6.43.69-2.92-1.43-1.95-4.74.07-6.56 2.18-2 5.77-3.12 8.1-.69 1.85 1.92 1.34 5.9-1.58 6.56h-.13a2.64 2.64 0 0 0 .66-.87c.01 0 .01 0 .01-.02z"/><path class="cls-4" d="M9.07 119a2.64 2.64 0 0 1 .93 2.6 3.31 3.31 0 0 1-1 1.66.57.57 0 0 0-.44-.1c-.82.21-1.59.77-2.43 1a5.45 5.45 0 0 1-2.72.15c-2.28-.46-1.74-2.41-.61-3.87 1.42-1.89 4.11-3.15 6.27-1.44z"/><path class="cls-2" d="M9.83 144.05a.59.59 0 0 1-.41.62 3.62 3.62 0 0 1-.94.1l-.31-.08a.72.72 0 0 1-.41-.84 7 7 0 0 0 1.51.28h-.95a4.3 4.3 0 0 0 .95 0 1.65 1.65 0 0 0 .56-.08z"/><path class="cls-2" d="M9.55 143.62a.44.44 0 0 1 .28.43 1.65 1.65 0 0 1-.56.08 7 7 0 0 1-1.51-.28.48.48 0 0 1 .41-.31c.26 0 .56 0 .9-.1a2.27 2.27 0 0 1 .48.18z"/><path class="cls-2" d="M9.27 144.13a4.3 4.3 0 0 1-.95 0zM8.94 123.26a.44.44 0 0 1 .2.54.54.54 0 0 1-.15.29c-.18.15-.41.33-.64.49l.31-.93a.44.44 0 0 1-.15.13c.1-.16.27-.34.43-.52z"/><path class="cls-2" d="M8.32 124.6c.23-.16.46-.34.64-.49a2.64 2.64 0 0 1-.66.87.38.38 0 0 1-.28-.56 4.12 4.12 0 0 1 .44-.57h.05a.44.44 0 0 0 .15-.13z"/><path class="cls-11" d="M77.59 26.91c-2.15-1.85 2.92-3.7 4.15-2.77 1.39 1.38-2.3 4.15-3.38 3.23"/><path class="cls-12" d="M77.59 26.91c-2.15-1.85 2.92-3.7 4.15-2.77 1.39 1.38-2.3 4.15-3.38 3.23"/><path class="cls-11" d="M77.59 25.63l-.73.24.73.1c-.57-.61 3-2.56 3.85-1.43s-2.35 2.46-3.08 2.51a.33.33 0 0 0-.31.4c.53 1.85 3 0 3.73-.72 1-1.11 1.21-3.06-.66-3.24-1.39-.14-3.76.67-4.36 2-.38.88-.82 2.24.49 2.6 1.91.52 2.11-2.69.34-2.5zM85.44 26.29c-1.85 0-.77-1.69.61-1.85 2.93-.3 1.08 1.7-.61 2.16"/><path class="cls-12" d="M85.44 26.29c-1.85 0-.77-1.69.61-1.85 2.93-.3 1.08 1.7-.61 2.16"/><path class="cls-11" d="M84.34 25.65l-.12.21.69-.18c-.39-.27 2.28-1.25 2.2-.79s-1.24.95-1.67 1.22a.45.45 0 0 0-.23.41.65.65 0 0 0 .06.24.48.48 0 0 0 .53.22c.83-.16 2.45-1.17 2.24-2.22-.25-1.21-2.23-.81-3-.45a1.79 1.79 0 0 0-.51 2.88 1.27 1.27 0 1 0-.2-1.54z"/></g></g></svg>