<?xml version="1.0" encoding="utf-8"?>
<!-- Generator: Adobe Illustrator 23.0.3, SVG Export Plug-In . SVG Version: 6.00 Build 0)  -->
<svg version="1.1" id="レイヤー_1" xmlns="http://www.w3.org/2000/svg" xmlns:xlink="http://www.w3.org/1999/xlink" x="0px"
	 y="0px" viewBox="0 0 497.9 512" style="enable-background:new 0 0 497.9 512;" xml:space="preserve">
<style type="text/css">
	.st0{fill:#F88C8C;}
</style>
<title>icon_calencer</title>
<g>
	<g id="_2">
		<path class="st0" d="M142.1,103.5c16,0,29-13,29-29V29c-0.8-16-14.4-28.3-30.4-27.5c-14.9,0.7-26.8,12.6-27.5,27.5v45.6
			C113.2,90.5,126.1,103.5,142.1,103.5z"/>
		<path class="st0" d="M355.7,103.5c16,0,29-13,29-29V29C384,13,370.5,0.6,354.5,1.3c-15,0.7-27,12.7-27.7,27.7v45.6
			C326.8,90.5,339.8,103.5,355.7,103.5z"/>
		<path class="st0" d="M428.1,41.3h-17.9v33.3c0,30.1-24.4,54.4-54.4,54.4c-30.1,0-54.4-24.4-54.4-54.4V41.3H196.5v33.3
			c0.4,30.1-23.6,54.8-53.7,55.2S88.1,106.1,87.7,76c0-0.5,0-1,0-1.5V41.3H69.8C31.2,41.3,0,72.5,0,111v331.2
			C0,480.8,31.2,512,69.8,512l0,0h358.3c38.5,0,69.8-31.2,69.8-69.8l0,0V111C497.9,72.5,466.6,41.3,428.1,41.3L428.1,41.3z M443,430
			c0,17.8-14.5,32.3-32.3,32.3H87.2c-17.8,0-32.3-14.5-32.3-32.3V170.9H443V430z"/>
		<rect x="213.5" y="334.9" class="st0" width="70.8" height="70.8"/>
		<rect x="103.8" y="334.9" class="st0" width="70.8" height="70.8"/>
		<rect x="323.3" y="225.1" class="st0" width="70.8" height="70.8"/>
		<rect x="323.3" y="334.9" class="st0" width="70.8" height="70.8"/>
		<rect x="213.5" y="225.1" class="st0" width="70.8" height="70.8"/>
		<rect x="103.8" y="225.1" class="st0" width="70.8" height="70.8"/>
	</g>
</g>
</svg>
