<svg xmlns="http://www.w3.org/2000/svg" width="140.541" height="140.541" viewBox="0 0 140.541 140.541">
  <g id="グループ化_979" data-name="グループ化 979" transform="translate(-135 -125)">
    <rect id="長方形_137" data-name="長方形 137" width="140.541" height="140.541" transform="translate(135 125)" fill="#999" opacity="0"/>
    <g id="グループ化_875" data-name="グループ化 875" transform="translate(171.734 169.634)">
      <g id="グループ化_335" data-name="グループ化 335" transform="translate(0)">
        <g id="グループ化_333" data-name="グループ化 333">
          <rect id="長方形_52" data-name="長方形 52" width="60.885" height="46.559" rx="1" fill="none"/>
          <g id="長方形_50" data-name="長方形 50" fill="none" stroke="#fff" stroke-width="2">
            <rect width="60.885" height="46.559" rx="1" stroke="none"/>
            <rect x="1" y="1" width="58.885" height="44.559" fill="none"/>
          </g>
        </g>
        <path id="パス_744" data-name="パス 744" d="M6.357-22.284S15.14-38.041,18.209-38.041s6.808,9.464,10.083,9.483S42.368-51.274,47.879-51.434,64-22.252,64-22.252Z" transform="translate(-4.459 68.319)" fill="#fff"/>
        <circle id="楕円形_5" data-name="楕円形 5" cx="4.494" cy="4.494" r="4.494" transform="translate(16.806 16.741)" fill="#fff"/>
      </g>
      <g id="合体_1" data-name="合体 1" transform="translate(46.307 26.527)" fill="#fff">
        <path d="M 12.48210048675537 24.7179012298584 L 11.48670101165771 24.7179012298584 C 10.52180099487305 24.7179012298584 9.736801147460938 23.93290138244629 9.736801147460938 22.9680004119873 L 9.736801147460938 14.23200035095215 L 0.999900758266449 14.23200035095215 C 0.0350007489323616 14.23200035095215 -0.7499992251396179 13.44700050354004 -0.7499992251396179 12.48210048675537 L -0.7499992251396179 11.48580074310303 C -0.7499992251396179 10.52090072631836 0.0350007489323616 9.73590087890625 0.999900758266449 9.73590087890625 L 9.736801147460938 9.73590087890625 L 9.736801147460938 0.9999006390571594 C 9.736801147460938 0.03500061482191086 10.52180099487305 -0.7499994039535522 11.48670101165771 -0.7499994039535522 L 12.48210048675537 -0.7499994039535522 C 13.44749069213867 -0.7499994039535522 14.23290061950684 0.03500061482191086 14.23290061950684 0.9999006390571594 L 14.23290061950684 9.73590087890625 L 22.96890068054199 9.73590087890625 C 23.93380165100098 9.73590087890625 24.71880149841309 10.52090072631836 24.71880149841309 11.48580074310303 L 24.71880149841309 12.48210048675537 C 24.71880149841309 13.44700050354004 23.93380165100098 14.23200035095215 22.96890068054199 14.23200035095215 L 14.23290061950684 14.23200035095215 L 14.23290061950684 22.9680004119873 C 14.23290061950684 23.93290138244629 13.44749069213867 24.7179012298584 12.48210048675537 24.7179012298584 Z" stroke="none"/>
        <path d="M 12.48210048675537 23.9679012298584 C 13.03470039367676 23.9679012298584 13.48290061950684 23.52060127258301 13.48290061950684 22.9680004119873 L 13.48290061950684 13.48200035095215 L 22.96890068054199 13.48200035095215 C 23.52060127258301 13.48200035095215 23.96880149841309 13.03470039367676 23.96880149841309 12.48210048675537 L 23.96880149841309 11.48580074310303 C 23.96880149841309 10.93410015106201 23.52060127258301 10.48590087890625 22.96890068054199 10.48590087890625 L 13.48290061950684 10.48590087890625 L 13.48290061950684 0.9999006390571594 C 13.48290061950684 0.4473006129264832 13.03470039367676 6.149292062218592e-07 12.48210048675537 6.149292062218592e-07 L 11.48670101165771 6.149292062218592e-07 C 10.93410110473633 6.149292062218592e-07 10.48680114746094 0.4473006129264832 10.48680114746094 0.9999006390571594 L 10.48680114746094 10.48590087890625 L 0.999900758266449 10.48590087890625 C 0.4482007622718811 10.48590087890625 7.492065492442634e-07 10.93410015106201 7.492065492442634e-07 11.48580074310303 L 7.492065492442634e-07 12.48210048675537 C 7.492065492442634e-07 13.03470039367676 0.4482007622718811 13.48200035095215 0.999900758266449 13.48200035095215 L 10.48680114746094 13.48200035095215 L 10.48680114746094 22.9680004119873 C 10.48680114746094 23.52060127258301 10.93410110473633 23.9679012298584 11.48670101165771 23.9679012298584 L 12.48210048675537 23.9679012298584 M 12.48210048675537 25.4679012298584 L 11.48670101165771 25.4679012298584 C 10.10825061798096 25.4679012298584 8.986801147460938 24.34645080566406 8.986801147460938 22.9680004119873 L 8.986801147460938 14.98200035095215 L 0.999900758266449 14.98200035095215 C -0.3785492479801178 14.98200035095215 -1.499999284744263 13.86055088043213 -1.499999284744263 12.48210048675537 L -1.499999284744263 11.48580074310303 C -1.499999284744263 10.10735034942627 -0.3785492479801178 8.98590087890625 0.999900758266449 8.98590087890625 L 8.986801147460938 8.98590087890625 L 8.986801147460938 0.9999006390571594 C 8.986801147460938 -0.3785493969917297 10.10825061798096 -1.499999403953552 11.48670101165771 -1.499999403953552 L 12.48210048675537 -1.499999403953552 C 13.86105060577393 -1.499999403953552 14.98290061950684 -0.3785493969917297 14.98290061950684 0.9999006390571594 L 14.98290061950684 8.98590087890625 L 22.96890068054199 8.98590087890625 C 24.34735107421875 8.98590087890625 25.46880149841309 10.10735034942627 25.46880149841309 11.48580074310303 L 25.46880149841309 12.48210048675537 C 25.46880149841309 13.86055088043213 24.34735107421875 14.98200035095215 22.96890068054199 14.98200035095215 L 14.98290061950684 14.98200035095215 L 14.98290061950684 22.9680004119873 C 14.98290061950684 24.34645080566406 13.86105060577393 25.4679012298584 12.48210048675537 25.4679012298584 Z" stroke="none" fill="#999"/>
      </g>
    </g>
  </g>
</svg>
