<svg xmlns="http://www.w3.org/2000/svg" viewBox="0 0 386.44 98.52"><defs><style>.cls-1{fill:#231815;stroke:#231815;}.cls-1,.cls-2,.cls-3{stroke-miterlimit:10;}.cls-1,.cls-2{stroke-width:1.42px;}.cls-2{fill:#595757;stroke:#595757;}.cls-3{font-size:28.35px;fill:#040000;stroke:#040000;font-family:DISCO;}</style></defs><title>logo</title><g id="レイヤー_2" data-name="レイヤー 2"><g id="レイヤー_2-2" data-name="レイヤー 2"><path class="cls-1" d="M33.3,5.29,51.18,49.54,68.3,5.29h1.91L52.33,51.37H50L31.24,5.29Z"/><polygon class="cls-2" points="24.64 5.21 3.38 5.21 1.06 5.21 20.11 51.29 22.41 51.29 32.92 24.2 24.64 5.21"/><path class="cls-1" d="M90.38,51.37V14.69h2.14V51.37Z"/><path class="cls-1" d="M130.81,52.21q-8.86,0-13-2.44-4.81-2.91-5.58-10.09h2.06q.77,6,5,8.48,3.75,2.3,11.54,2.3a21.94,21.94,0,0,0,9.17-2c3.56-1.63,5.35-3.77,5.35-6.42q0-4.89-7.64-6.88c-.77-.2-1.51-.38-2.22-.53q-5.19-.91-15.59-3.52-5.8-1.9-5.81-7.72A7.72,7.72,0,0,1,117.59,17q4.2-3,11.92-3,7.19,0,10.77,2.29,4.14,2.67,5.2,9.17h-2c-.51-3.52-1.88-6-4.12-7.49s-5.53-2.22-9.86-2.22q-6.88,0-10.47,2.52a6.08,6.08,0,0,0-3,5.12c0,2.91,1.65,4.87,5,5.89a84,84,0,0,0,8.33,2c4.12.81,6.9,1.4,8.33,1.75q9.54,2.44,9.55,8.79,0,4.82-4.78,7.6A22.73,22.73,0,0,1,130.81,52.21Z"/><path class="cls-1" d="M200.88,51.37H199V27.3a10.17,10.17,0,0,0-4.2-8.63q-3.9-2.84-10.32-2.83-8,0-12.61,4.66a13.71,13.71,0,0,0-4.12,10.09V51.37h-1.91V.71h1.91V23a15,15,0,0,1,7.87-7.19,21.57,21.57,0,0,1,8.86-1.91q7.26,0,11.7,3.29a11.86,11.86,0,0,1,4.73,10Z"/><path class="cls-1" d="M268.66,51.37V28.22H225.11V51.37H223.2V5.29h1.91V26.54h43.55V5.29h2V51.37Z"/><path class="cls-1" d="M323,14.92V38.76a9.85,9.85,0,0,1-4.2,8.56q-3.81,2.76-10.31,2.75h-2.14q-6.49,0-10.32-2.75a9.85,9.85,0,0,1-4.2-8.56V14.92h-1.91V39a11.78,11.78,0,0,0,4.73,9.94q4.44,3.28,11.7,3.28h2.14q7.26,0,11.69-3.28A11.78,11.78,0,0,0,324.91,39V14.92Z"/><path class="cls-1" d="M91.45.71a1.87,1.87,0,1,0,1.87,1.87A1.86,1.86,0,0,0,91.45.71Z"/><path class="cls-1" d="M383.6,42.59a20.2,20.2,0,0,0,2.13-9.48,20.66,20.66,0,0,0-1.83-8.85v-.17A14.38,14.38,0,0,0,380,18.81q-5.25-4.95-13.67-5h-.84q-8.43,0-13.66,5a14.4,14.4,0,0,0-3.92,5.28V.71h-1.83V34.63l.07.25a19.29,19.29,0,0,0,2.06,7.71,14,14,0,0,0,3.81,4.9q5.24,4.73,13.47,4.72h.84q8.25,0,13.47-4.72A14,14,0,0,0,383.6,42.59Zm.22-7.69c0,.43-.09.85-.15,1.27l-.09.54c-.05.3-.12.59-.18.88a15.52,15.52,0,0,1-4.58,7.86c-3.32,3.12-7.63,4.7-12.92,4.77s-9.6-1.65-12.91-4.77a15.45,15.45,0,0,1-4.58-7.86c-.07-.29-.14-.58-.19-.88l-.09-.54c-.06-.42-.11-.84-.15-1.27a1.62,1.62,0,0,1,0-.22c0-.52-.06-1-.06-1.57a17.36,17.36,0,0,1,4-11.54c.28-.34.58-.65.88-1l.11-.11q4.85-4.55,13-4.65,8.19.11,13,4.65l.11.11c.3.31.6.62.88,1a17.37,17.37,0,0,1,4,11.54c0,.53,0,1-.06,1.57C383.83,34.75,383.83,34.83,383.82,34.9Z"/><text class="cls-3" transform="translate(81.8 92.84)">- ver alpha- </text></g></g></svg>