<?xml version="1.0" encoding="utf-8"?>
<!-- Generator: Adobe Illustrator 23.0.3, SVG Export Plug-In . SVG Version: 6.00 Build 0)  -->
<svg version="1.1" id="レイヤー_1" xmlns="http://www.w3.org/2000/svg" xmlns:xlink="http://www.w3.org/1999/xlink" x="0px"
	 y="0px" viewBox="0 0 512 512" style="enable-background:new 0 0 512 512;" xml:space="preserve">
<style type="text/css">
	.st0{fill:#F88C8C;}
	.st1{font-family:'DISCO';}
	.st2{font-size:186.72px;}
	.st3{fill:#F88C8C;stroke:#F88C8C;stroke-width:17.01;stroke-linecap:square;stroke-linejoin:round;}
</style>
<title>icon_wip</title>
<g>
	<g id="_2">
		<path class="st0" d="M256,0C114.6,0,0,114.6,0,256s114.6,256,256,256s256-114.6,256-256S397.4,0,256,0z M256,464
			c-114.7,0-208-93.3-208-208S141.3,48,256,48s208,93.3,208,208S370.7,464,256,464z"/>
		<path class="st0" d="M256,80c-97,0-176,79-176,176s79,176,176,176s176-79,176-176S353,80,256,80z M256,416
			c-88.2,0-160-71.8-160-160S167.8,96,256,96s160,71.8,160,160S344.2,416,256,416z"/>
		<text transform="matrix(1 0 0 1 143.69 314.49)" class="st0 st1 st2">W</text>
		<text transform="matrix(1 0 0 1 143.69 314.49)" class="st3 st1 st2">W</text>
	</g>
</g>
</svg>
