<?xml version="1.0" encoding="utf-8"?>
<!-- Generator: Adobe Illustrator 23.0.6, SVG Export Plug-In . SVG Version: 6.00 Build 0)  -->
<svg version="1.1" id="レイヤー_1" xmlns="http://www.w3.org/2000/svg" width="50.432" height="38.061" xmlns:xlink="http://www.w3.org/1999/xlink" x="0px"
	 y="0px" viewBox="0 0 50.4 38.1" style="enable-background:new 0 0 50.4 38.1;" xml:space="preserve">
<style type="text/css">
	.st0{fill:#C68E4F;}
</style>
<g>
	<path class="st0" d="M48,2.5C46.4,0.9,44.3,0,42.1,0H8.4C3.8,0,0,3.7,0,8.4c0,0,0,0,0,0v21.3c0,4.6,3.8,8.4,8.4,8.4c0,0,0,0,0,0
		h33.7c4.6,0,8.4-3.7,8.4-8.4c0,0,0,0,0,0V8.4C50.4,6.2,49.6,4,48,2.5z M46.6,29.7c0,2.5-2,4.6-4.6,4.6c0,0,0,0,0,0H8.4
		c-2.5,0-4.6-2-4.6-4.6V8.4c0-2.5,2-4.6,4.6-4.6h33.7c2.5,0,4.6,2,4.6,4.6V29.7z"/>
	<path class="st0" d="M14.7,12.1L8.6,6L7,7.6l6.8,6.8C13.9,13.6,14.3,12.8,14.7,12.1z"/>
	<path class="st0" d="M43.4,7.6L41.8,6l-6.1,6.2c0.5,0.7,0.8,1.4,1,2.3L43.4,7.6z"/>
	<path class="st0" d="M34.6,22.4l-1.5,1.7l0.1,0l9.7,8.3l1.5-1.7L34.6,22.4L34.6,22.4z"/>
	<path class="st0" d="M15.8,22.4l-9.7,8.3l1.5,1.7l9.7-8.3l0.1,0L15.8,22.4L15.8,22.4z"/>
	<path class="st0" d="M29.5,12c-2.4,0-4.3,1.9-4.3,4.3c0-2.4-1.9-4.3-4.3-4.3s-4.3,1.9-4.3,4.3c0,2.2,1,6.5,7.3,9.2
		c0.4,0.2,1.2,0.5,1.2,0.5c0,0,0.1,0,0.1,0c0,0,0.8-0.3,1.2-0.5c6.3-2.8,7.3-7,7.3-9.2C33.8,13.9,31.9,12,29.5,12
		C29.5,12,29.5,12,29.5,12z"/>
</g>
</svg>
