<svg id="レイヤー_1" xmlns="http://www.w3.org/2000/svg" viewBox="0 0 397.7 512"><style>.st0{fill:#afa850}</style><g id="_2"><path class="st0" d="M280.4 147.3c23.4-7.7 42.8-20.2 56.6-35.3 6.7-7.2 12.2-15.5 16.3-24.5 3.9-8.5 6-17.8 6.1-27.2 0-6.2-1-12.4-3-18.3-2.2-6.5-5.5-12.5-9.8-17.9-6.1-7.7-13.9-13.9-22.9-18-8.9-4-18.5-6.1-28.3-6.1-7.3 0-14.6 1.2-21.6 3.5-11.2 3.7-21.4 10.2-29.5 18.8-8.6 9-15.6 20.7-20.2 34.9-6 18.4-23.9 60.2-24.4 61.2H198c-.5-1-18.4-42.8-24.4-61.2-2.8-8.9-6.9-17.3-12.1-25-6.9-10.2-16.2-18.5-27.1-24.3-9.9-5.2-20.9-7.9-32-7.9-13-.1-25.8 3.7-36.7 10.9-5.5 3.6-10.3 8.1-14.4 13.2-4.2 5.4-7.6 11.4-9.8 17.9-2 5.9-3 12.1-3 18.3s1 12.4 2.8 18.3c3.4 10.8 8.9 20.8 16.2 29.5 11.3 13.6 26.9 25.3 45.8 33.7 20.8 9 43.2 13.6 65.9 13.5 14 0 29.2.1 29.8 0 .5.1 15.8 0 29.8 0 17.4.1 34.9-2.6 51.6-8zm-20.5-98.8c4.3-6.3 10-11.5 16.8-15.1 5.8-3 12.2-4.6 18.8-4.6 7.4 0 14.7 2.1 20.9 6.1 2.9 1.9 5.5 4.3 7.7 7.1 2.2 2.9 4 6.1 5.2 9.5 1 2.9 1.5 5.9 1.5 8.9 0 3.4-.6 6.8-1.6 10.1-2.3 7.1-6 13.7-10.9 19.4-8.1 9.8-20.1 19.1-35.4 25.8-17.1 7.4-35.6 11.2-54.3 11-1.1 0-2.2 0-3.2-.1 7.5-12.6 16.6-31.8 26-60.6 2-6.2 4.8-12.1 8.5-17.5zM70.6 75.8C68.3 71 67.1 65.7 67 60.3c0-3 .5-6.1 1.5-8.9 1.2-3.4 2.9-6.7 5.2-9.5 3.3-4.2 7.5-7.5 12.4-9.7 5.1-2.3 10.6-3.5 16.2-3.5 4.3 0 8.5.7 12.6 2 6.8 2.3 12.9 6.2 17.7 11.4 5.4 5.7 10.3 13.5 13.7 24 9.4 28.8 18.5 48 26 60.6h-3.2c-14.5.1-29-2.1-42.9-6.6-19-6.2-34.2-16.3-44.3-27.4-4.7-5.1-8.5-10.7-11.3-16.9zM214.7 178v95.4h183V178zM0 240.6v32.8h182.9V178H0zM214.7 512h121.9c24.9 0 45.1-20.2 45.1-45.1V305.2h-167V512zM15.9 466.9c0 24.9 20.2 45.1 45.1 45.1h121.9V305.2h-167v161.7z"/></g></svg>