<svg id="レイヤー_1" data-name="レイヤー 1" xmlns="http://www.w3.org/2000/svg" width="285" height="94.73" viewBox="0 0 285 94.73">
  <path id="パス_1" data-name="パス 1" d="M0,15H3.375L17.332,64.961h0L31.664,15H35.79L50.175,65.014h.161L64.052,15h3.536L52.211,68.577h-3.75l-14.707-50.9h-.161l-14.466,50.9h-3.67Z" transform="translate(0 25.183)"/>
  <path id="パス_2" data-name="パス 2" d="M40.514,37.5C86.055,8.037,238.75,0,238.75,0V5.358S88.734,13.394,40.514,37.5ZM31.3,39.594l1.5,3.027,3.322.482L33.71,45.487l.563,3.322L31.3,47.228l-3,1.581.563-3.268L26.45,43.156l3.349-.482Z" transform="translate(44.406)" fill="#f1d204"/>
  <path id="パス_3" data-name="パス 3" d="M34.29,46.918A11.2,11.2,0,0,0,35.6,51.794a11.814,11.814,0,0,0,2.679,3.536,11.332,11.332,0,0,0,3.938,2.2,15,15,0,0,0,4.876.75,27.54,27.54,0,0,0,4.018-.321A14.011,14.011,0,0,0,55.078,56.7,8.037,8.037,0,0,0,58.1,54.2a6.7,6.7,0,0,0,1.205-4.1,6,6,0,0,0-1.956-4.876,13.394,13.394,0,0,0-4.9-2.679,47.416,47.416,0,0,0-6.429-1.473,33.164,33.164,0,0,1-6.376-1.688,12.564,12.564,0,0,1-4.9-3.188,8.385,8.385,0,0,1-1.822-6,8.6,8.6,0,0,1,1.259-4.768,9.537,9.537,0,0,1,3.134-3.107,14.841,14.841,0,0,1,4.474-1.634,25.69,25.69,0,0,1,4.956-.482,23.788,23.788,0,0,1,5.626.67,12.108,12.108,0,0,1,4.527,2.2,10.26,10.26,0,0,1,3,3.8A13.394,13.394,0,0,1,61,32.506H58.132a10.957,10.957,0,0,0-.857-4.5,7.688,7.688,0,0,0-2.411-3.027,10.287,10.287,0,0,0-3.616-1.714,17.547,17.547,0,0,0-4.5-.563,19.609,19.609,0,0,0-3.938.375,11.225,11.225,0,0,0-3.563,1.259,7.8,7.8,0,0,0-2.679,2.331A5.786,5.786,0,0,0,35.6,30.2a5.893,5.893,0,0,0,1.125,3.75A8.037,8.037,0,0,0,39.7,36.23a19.61,19.61,0,0,0,4.125,1.393l4.608,1.045c1.9.348,3.7.777,5.358,1.232a15.216,15.216,0,0,1,4.367,1.956,9.108,9.108,0,0,1,2.866,3.188A10.448,10.448,0,0,1,62.1,50a8.679,8.679,0,0,1-1.447,5.17,10.716,10.716,0,0,1-3.616,3.268,14.9,14.9,0,0,1-4.849,1.714,26.789,26.789,0,0,1-5.2.509,20.279,20.279,0,0,1-6.027-.83,13.636,13.636,0,0,1-4.929-2.679,12.269,12.269,0,0,1-3.295-4.313,14.492,14.492,0,0,1-1.286-5.92Z" transform="translate(52.8 33.93)"/>
  <path id="パス_4" data-name="パス 4" d="M48.336,15V38.252h.134a12.322,12.322,0,0,1,2.143-3.858,14.011,14.011,0,0,1,7.233-4.688,16.449,16.449,0,0,1,4.42-.616,17.332,17.332,0,0,1,5.76.83,11.6,11.6,0,0,1,3.858,2.17,11.117,11.117,0,0,1,2.357,3.054,14.063,14.063,0,0,1,1.232,3.4,21.433,21.433,0,0,1,.455,3.241V68.577H73.143V44.2a32.769,32.769,0,0,0-.214-3.59,11.2,11.2,0,0,0-1.313-4.179,9.483,9.483,0,0,0-3.3-3.483,11.117,11.117,0,0,0-6.135-1.42,13.957,13.957,0,0,0-5.84,1.179,12.939,12.939,0,0,0-4.34,3.349,14.546,14.546,0,0,0-2.679,5.09,21,21,0,0,0-.938,6.51V68.577H45.47V15Z" transform="translate(76.338 25.183)"/>
  <path id="パス_5" data-name="パス 5" d="M60.2,15H63.5V39.3H97.7V15H101V68.577H97.7V42.083H63.5V68.577H60.2Z" transform="translate(101.068 25.183)"/>
  <path id="パス_6" data-name="パス 6" d="M109.182,59.209h-2.84V50.878h-.268a12.322,12.322,0,0,1-2.143,3.858A14.01,14.01,0,0,1,96.7,59.423a16.448,16.448,0,0,1-4.42.616,17.761,17.761,0,0,1-5.626-.83,11.948,11.948,0,0,1-3.884-2.17,11.118,11.118,0,0,1-2.357-3.054,14.065,14.065,0,0,1-1.125-3.4,21.777,21.777,0,0,1-.455-3.349V20.58H81.7V44.958a23.536,23.536,0,0,0,.214,3.643,11.252,11.252,0,0,0,1.313,4.125,9.617,9.617,0,0,0,3.268,3.4,11.332,11.332,0,0,0,6.161,1.42,13.394,13.394,0,0,0,5.786-1.205,12.028,12.028,0,0,0,4.393-3.322,14.922,14.922,0,0,0,2.679-5.117,21.431,21.431,0,0,0,.938-6.483V20.58h2.84Z" transform="translate(132.345 34.551)"/>
  <path id="パス_7" data-name="パス 7" d="M93.55,15h2.679V38.172h.161a11.626,11.626,0,0,1,2.331-3.938,14.171,14.171,0,0,1,3.536-2.893,15.672,15.672,0,0,1,4.206-1.741,19.153,19.153,0,0,1,4.661-.563,17.145,17.145,0,0,1,7.42,1.5,15.457,15.457,0,0,1,5.358,4.125,17.788,17.788,0,0,1,3,6.108,26.279,26.279,0,0,1,1.018,7.554,27.136,27.136,0,0,1-1.875,11.064,18,18,0,0,1-4.5,6.51,13.9,13.9,0,0,1-5.358,2.92,20.44,20.44,0,0,1-4.9.723,15.859,15.859,0,0,1-6.51-1.205,16.315,16.315,0,0,1-4.393-2.679A14.359,14.359,0,0,1,97.7,62.469a14.065,14.065,0,0,1-1.125-2.331h-.161v8.438H93.738V15Zm17.573,51.97a12,12,0,0,0,6.483-1.634,13.394,13.394,0,0,0,4.286-4.313,19.851,19.851,0,0,0,2.411-6,31.584,31.584,0,0,0,.75-6.644,22.1,22.1,0,0,0-.884-6.242,16.4,16.4,0,0,0-2.679-5.358A13.18,13.18,0,0,0,117.124,33a12.189,12.189,0,0,0-6.054-1.42,15.484,15.484,0,0,0-6.536,1.259,12.537,12.537,0,0,0-4.42,3.59,14.948,14.948,0,0,0-2.679,5.358,22.958,22.958,0,0,0-.911,6.67,28.159,28.159,0,0,0,.7,6.724A18.3,18.3,0,0,0,99.9,61.157a12.993,12.993,0,0,0,11.3,5.733Z" transform="translate(157.058 25.183)"/>
  <rect id="長方形_2" data-name="長方形 2" width="2.84" height="38.549" transform="translate(73.803 55.131)"/>
</svg>
