<?xml version="1.0" encoding="utf-8"?>
<!-- Generator: Adobe Illustrator 23.0.6, SVG Export Plug-In . SVG Version: 6.00 Build 0)  -->
<svg version="1.1" id="レイヤー_1" xmlns="http://www.w3.org/2000/svg" xmlns:xlink="http://www.w3.org/1999/xlink" x="0px"
	 y="0px" viewBox="0 0 347.6 266.6" style="enable-background:new 0 0 347.6 266.6;" xml:space="preserve">
<style type="text/css">
	.st0{fill:#1D3033;stroke:#1D3033;stroke-width:0.66;stroke-linecap:round;stroke-linejoin:round;}
	.st1{fill:#55513F;}
	.st2{fill:#F1C8DD;}
	.st3{fill:#FFFFFF;}
	.st4{fill:#F7E5D7;}
	.st5{fill:#B2DEED;}
	.st6{fill:none;}
	.st7{fill:#F9CFB3;}
	.st8{fill:#EAE2D8;stroke:#B6A17E;stroke-miterlimit:10;}
	.st9{opacity:0.9;}
	.st10{fill:#D1BE96;}
	.st11{opacity:0.7;}
	.st12{opacity:0.5;}
	.st13{fill:url(#パス_446-2_1_);}
	.st14{fill:#442F19;}
	.st15{fill:#503014;stroke:#503014;stroke-width:1.42;stroke-miterlimit:10;}
</style>
<g id="レイヤー_1-2">
	<g>
		<g id="レイヤー_3">
			<path class="st0" d="M188.6,177.4c-0.1,0.1-0.3,0.1-0.4,0.1c-0.1,0-0.1,0.1-0.1,0.1c0,0.1,0.1,0.1,0.1,0.1
				c1.3-0.1,2.7-0.2,4.2-0.2l0,0c3,0.3,6,0.9,8.9,1.8c3.2,1,8.2,2.9,9.3,6.4l0,0c-0.1,0-0.1,0-0.2,0l0,0l0,0
				c-4.2-5.9-15.9-7.9-23.3-8l0,0v-0.1c-0.1-0.4-0.6-0.3-0.6,0.1v0.4c-0.1,0-0.3-0.2-0.3-0.3c0-0.2,0.1-0.4,0.4-0.4
				C187.3,177.4,188,177.3,188.6,177.4z"/>
			<path class="st0" d="M186.9,178.2h-0.2c0,0-0.1,0-0.1,0v-0.4c0-0.4,0.6-0.5,0.6-0.1v0.1h-0.3
				C186.8,177.9,186.8,178.1,186.9,178.2z"/>
			<path class="st0" d="M186.8,178.2c0.2,5.2,1.8,10.3,3.4,15.3c1.5,4.8,2.1,9.6,3.1,14.5l0,0c-0.1,0-0.1,0-0.1,0.1
				c-0.1,0.4-0.3,0.7-0.4,1.1c-0.6-3.6-1.3-7.3-2-11c-1.3-6.8-4.1-13-4.2-20c0,0,0.1,0,0.1,0L186.8,178.2z"/>
			<path class="st0" d="M186.8,177.8h0.3c0,0.2,0,0.3,0.1,0.5c-0.1,0-0.2-0.1-0.4-0.1C186.8,178.1,186.8,178,186.8,177.8
				L186.8,177.8z"/>
			<path class="st0" d="M192.1,197.9c1.5,6.4,2.2,13,3.5,19.4c-0.3,0.1-0.5,0.3-0.5,0.6c-0.7-2.7-0.9-5.7-1.5-8.5
				c-0.1-0.3-0.2-0.5-0.2-0.8c0-0.1,0.1-0.2,0.1-0.3c0-0.1-0.1-0.2-0.2-0.2c-1.1-4.9-1.6-9.7-3.1-14.5c-1.6-5-3.1-10.1-3.4-15.3
				c0.1,0,0.2,0,0.4,0.1C188.2,185,190.5,191.3,192.1,197.9z"/>
			<path class="st0" d="M210.5,185.9c-0.1-0.1-0.2-0.1-0.3,0c-3.5-2.2-6.1-4.4-10.4-5.6c-4.1-1.3-8.4-1.6-12.6-2
				c0-0.2,0-0.3-0.1-0.5C194.6,177.9,206.4,179.9,210.5,185.9z"/>
			<path class="st0" d="M189.7,177.3c0.9,0,1.8,0.1,2.7,0.2c-1.5,0-2.9,0.1-4.2,0.2c-0.1,0-0.1-0.1-0.1-0.1c0-0.1,0.1-0.1,0.1-0.1
				c0.1-0.1,0.3-0.1,0.4-0.1C188.9,177.3,189.3,177.3,189.7,177.3C189.6,177.3,189.7,177.3,189.7,177.3z"/>
			<path class="st0" d="M206,178.3c0.8,0.4,1.8,0.8,2.8,1.4c2.6,1.4,5.4,3.5,5.2,6.2c-0.1,0-0.3-0.1-0.4-0.1
				c-0.1-3.7-7.4-7.3-10.7-8.3c-4.3-1.1-8.8-1.2-13.2-0.3l0,0c-0.4,0-0.7,0-1,0C194.3,175.6,200.5,175.9,206,178.3z"/>
			<path class="st1" d="M199.8,180.3c4.2,1.2,6.9,3.4,10.4,5.6c-0.1,0.1-0.2,0.2-0.2,0.3c-0.9,12.4,0.2,25.1,0.5,37.5
				c-3.7-3.6-9.9-5.1-14.5-6.3c-0.1,0-0.2,0-0.4,0c-1.3-6.4-2-13-3.5-19.4c-1.6-6.6-3.9-12.8-4.9-19.6
				C191.4,178.7,195.7,179,199.8,180.3z M195.2,193.7c1.9,0.5,3.7,1,5.5,1.7c0.4,4.3,1.1,8.7,1.8,12.7c0,0.1,0.1,0.2,0.3,0.3
				c0.2,0.1,0.5,0,0.6-0.3c0.5-3.9-0.2-8-1-12c1.4,0.7,2.9,1.2,4.4,1.7c0.5,0.1,0.9-0.7,0.4-1c-1.6-0.7-3.4-1.6-5.2-2.4
				c-0.5-2.3-0.8-4.6-1-7c0-0.1-0.1-0.2-0.3-0.3c-0.2,0-0.4,0.1-0.4,0.3c-0.1,2.1,0,4.3,0.2,6.4c-1.6-0.7-3.4-1.1-5.1-1.1
				c-0.2,0-0.4,0.2-0.5,0.4C194.8,193.4,194.9,193.7,195.2,193.7L195.2,193.7z"/>
			<path class="st0" d="M202.8,177.6c3.3,1,10.6,4.6,10.7,8.3c-0.2-0.1-0.4-0.1-0.6-0.1c-2.9-8-12.8-8.6-20.5-8.2l0,0
				c-0.9-0.1-1.9-0.2-2.8-0.2C194,176.4,198.5,176.5,202.8,177.6z"/>
			<path class="st0" d="M193,210.6c-2,10.6-1.7,19.8,5.1,28.9c0,0.4,0,0.8,0.1,1.2c-0.2,0.1-0.5,0.1-0.6-0.1
				c-8.4-8.3-8.5-20.7-4.8-31.3c0,0.2,0.1,0.4,0.1,0.5C192.9,210,193,210.3,193,210.6z"/>
			<path class="st0" d="M193.3,208.1c0,0,0,0.1,0,0.1l0,0c-0.2,0.6-0.3,1-0.5,1.6c0-0.2-0.1-0.4-0.1-0.5c0.1-0.4,0.3-0.8,0.4-1.1
				C193.2,208.1,193.3,208.1,193.3,208.1z"/>
			<path class="st2" d="M194.7,218.3c0,0.1,0.1,0.2,0.2,0.3c0.2,0.2,0.6,0.2,0.8,0l0,0c5.9,2,11.7,3.2,16,8l0,0
				c0,0.1,0.1,0.2,0.2,0.3c0.1,0,0.1,0.1,0.2,0.1c0,0.1,0,0.1,0,0.1l0,0c0.1,0.1,0.2,0.1,0.3,0.1l0,0c1.8,1,3.8,1.6,5.9,1.7
				c0.1,0.1,0.2,0.2,0.3,0.2c0.2,0,0.4-0.1,0.4-0.3l0,0l0,0c-1.2,4.3-2.1,8.7-2.8,13.2c-1.6-1.2-3-2.5-4.5-3.9
				c-0.2-0.2-0.5-0.2-0.8,0c-0.3,0.2-0.3,0.6-0.1,0.9l0.7,0.8h-0.1c-1.3,0.8-1.9,2.2-3.7,1.6c-1.5-0.6-2.9-1.5-3.9-2.7
				c-1.8-1.9-3.7-4.5-4.2-7.1c0-0.2-0.4-0.3-0.5-0.2c0-0.2,0-0.4,0-0.6c0-0.1-0.4-0.2-0.4,0c-0.5,2.8-0.7,5.7-0.7,8.6
				c-6.8-9.1-7.1-18.3-5.1-28.9C193.5,213.1,194,215.7,194.7,218.3z"/>
			<path class="st0" d="M193.4,208.6c-0.1,0.7-0.3,1.4-0.4,2c-0.1-0.3-0.2-0.5-0.2-0.8c0.1-0.6,0.3-1,0.5-1.6
				C193.4,208.4,193.4,208.5,193.4,208.6z"/>
			<path class="st0" d="M193.6,209.4c0.6,2.8,0.9,5.8,1.5,8.5l0,0c0,0.3,0.2,0.6,0.4,0.6c-0.1,0.1-0.2,0.2-0.3,0.2
				c-0.3,0.1-0.6-0.2-0.7-0.5c-0.6-2.6-1.1-5.1-1.6-7.7c0.1-0.7,0.2-1.3,0.4-2C193.4,208.8,193.5,209.1,193.6,209.4z"/>
			<path class="st0" d="M193.5,208.2c-0.1,0.1-0.1,0.2-0.1,0.3c0-0.1-0.1-0.2-0.1-0.3l0,0c0,0,0-0.1,0-0.1l0,0
				C193.4,208,193.5,208.1,193.5,208.2z"/>
			<path class="st3" d="M210.7,185.8L210.7,185.8c-1.2-3.5-6.1-5.4-9.3-6.4c-2.9-0.9-5.9-1.5-8.9-1.8c7.7-0.3,17.6,0.2,20.5,8.2
				C212.2,185.7,211.4,185.7,210.7,185.8z"/>
			<path class="st0" d="M200.6,195.4c-1.8-0.6-3.6-1.2-5.4-1.6c-0.2-0.1-0.4-0.3-0.4-0.5c0-0.3,0.2-0.6,0.5-0.6
				c1.8,0,3.5,0.4,5.1,1.1c0,0.3,0,0.6,0.1,0.9C200.5,194.9,200.6,195.1,200.6,195.4z"/>
			<path class="st0" d="M195.1,217.9c0-0.3,0.2-0.5,0.5-0.6c0,0.2,0.1,0.5,0.1,0.7c0,0.2,0,0.4-0.2,0.6
				C195.3,218.5,195.1,218.2,195.1,217.9L195.1,217.9z"/>
			<path class="st0" d="M210.5,225.1c0,0.1,0.1,0.3,0.2,0.3c0.2,0.1,0.5,0.1,0.6-0.2c0.3,0.3,0.5,0.6,0.7,0.9l0,0c0,0,0,0,0,0
				c-0.2,0-0.3,0.2-0.3,0.4c-4.3-4.7-10.1-5.9-16-8l0,0c0.2-0.2,0.2-0.4,0.2-0.6c-0.1-0.2-0.1-0.5-0.1-0.7c0.1,0,0.2,0,0.4,0
				c4.6,1.3,10.8,2.8,14.5,6.3c0,0.3,0,0.6,0,0.9C210.5,224.8,210.5,225,210.5,225.1z"/>
			<path class="st0" d="M199.2,230.9c0,0.2,0,0.4,0,0.6c-0.1,0-0.2,0.1-0.1,0.2c0,0.6,0.1,1.1,0.3,1.7c0.3,2.5,0.3,5.1,0,7.6
				c0,0.3-0.2,0.5-0.5,0.5s-0.5-0.2-0.5-0.5c0-0.1,0-0.2,0-0.3c0.1,0,0.1,0,0.2-0.1c0.2-0.2,0.3-0.5,0.1-0.7
				c-0.1-0.2-0.2-0.3-0.3-0.5c0-2.9,0.2-5.8,0.7-8.6C198.9,230.6,199.2,230.7,199.2,230.9z"/>
			<path class="st0" d="M198.5,240.1c0.1,0.3-0.1,0.5-0.3,0.6c-0.1-0.4-0.1-0.8-0.1-1.2c0.1,0.2,0.2,0.3,0.3,0.5
				C198.5,240,198.5,240,198.5,240.1z"/>
			<path class="st0" d="M199.3,233.4c-0.2-0.5-0.2-1.1-0.3-1.7c0-0.1,0.1-0.2,0.1-0.2C199.2,232.1,199.3,232.7,199.3,233.4z"/>
			<path class="st0" d="M199.7,231.6c0.4,2.7,2.4,5.2,4.2,7.1c1.1,1.2,2.4,2.1,3.9,2.7c1.8,0.5,2.4-0.9,3.7-1.6h0.1
				c0.2,0.2,0.4,0.4,0.6,0.6l0,0c-0.6,3.5-5.2,2.4-7.2,0.9c-2.3-1.8-4.8-4.8-5.6-7.9c0-0.6-0.1-1.3-0.1-1.9
				C199.4,231.3,199.7,231.3,199.7,231.6z"/>
			<path class="st0" d="M200.5,193.8c-0.2-2.2-0.2-4.3-0.2-6.4c0-0.1,0.1-0.2,0.3-0.3c0.2,0,0.4,0.1,0.4,0.3c0.2,2.4,0.5,4.7,1,7
				c-0.3-0.1-0.5-0.2-0.8-0.3C201,194,200.7,193.9,200.5,193.8z"/>
			<path class="st0" d="M201.2,194c0.1,0.3,0.1,0.6,0.1,0.9l-0.7-0.3c0-0.3-0.1-0.6-0.1-0.9C200.7,193.8,200.9,193.9,201.2,194z"/>
			<path class="st0" d="M201.2,195L201.2,195c0.1,0.3,0.1,0.5,0.1,0.8c-0.3-0.1-0.5-0.2-0.8-0.3c0-0.2,0-0.5,0-0.7L201.2,195z"/>
			<path class="st0" d="M201.6,195.8l0.7,0.3c0.8,4,1.5,8.1,1,12c0,0.1-0.1,0.2-0.3,0.3c-0.2,0.1-0.5,0-0.6-0.3
				c-0.8-4.1-1.4-8.4-1.8-12.7c0.3,0.1,0.5,0.2,0.8,0.3C201.5,195.7,201.5,195.8,201.6,195.8z"/>
			<path class="st0" d="M202,194.3c0.1,0.4,0.2,0.7,0.2,1c-0.3-0.2-0.6-0.3-0.9-0.4l0,0c-0.1-0.3-0.1-0.6-0.1-0.9
				C201.4,194.1,201.7,194.3,202,194.3z"/>
			<path class="st0" d="M202.3,196.1l-0.7-0.3c-0.1,0-0.2-0.1-0.2-0.1c0-0.2-0.1-0.5-0.1-0.8c0.3,0.1,0.6,0.2,0.9,0.4L202.3,196.1z"
				/>
			<path class="st0" d="M202,194.3c1.8,0.8,3.5,1.8,5.1,2.4c0.6,0.3,0.2,1.1-0.4,1c-1.5-0.4-3-1-4.4-1.6l-0.2-0.8
				C202.1,195,202,194.7,202,194.3z"/>
			<path class="st0" d="M211.5,165.6c0.1,0.5,0.9,0.4,0.9-0.1c0-0.1,0-0.2,0-0.3c1.4-0.5,2.9-0.9,4.4-1.1c0,0.1,0,0.2,0,0.2
				c0,0.1,0.1,0.2,0.2,0.2c-3.2,0.5-8.7,2.3-8.6,5.8c0.1,2,0.9,3.9,2.1,5.5c0,0,0,0,0,0c-0.2-0.1-0.4,0-0.4,0.2
				c-0.1,0.1-0.1,0.1-0.1,0.1c-1.2-1.7-2-3.7-2.2-5.8c-0.2-2.2,1.5-3.8,3.7-4.8C211.5,165.5,211.5,165.6,211.5,165.6z"/>
			<path class="st0" d="M217.1,164.3c0.1-0.1,0.3-0.2,0.4-0.4c0.1,0,0.2,0.1,0.3,0.3c0.1,0.2-0.1,0.5-0.3,0.5
				c-3.8,0.9-9.3,2.1-8.3,7.1c1,4.8,5.9,7.2,9.8,9.3c0.1,0,0.2,0.1,0.2,0.2c-0.2,0.1-0.4,0.3-0.6,0.5c-0.1,0-0.1,0.1-0.1,0.1l0,0
				c-3.2-0.8-6.1-2.7-8.1-5.4c0.1-0.2,0.1-0.4,0.2-0.6c0,0,0-0.1,0-0.1l0,0c0-0.1-0.1-0.2-0.1-0.2l0,0c-1.2-1.6-2-3.5-2.1-5.5
				c-0.1-3.5,5.4-5.2,8.6-5.8c0.1,0,0.1,0,0.2,0C217.2,164.5,217.1,164.3,217.1,164.3z"/>
			<path class="st0" d="M210.4,176.7c-0.2,1.1-0.7,2.1-1.3,3c-0.1,0.1-0.2,0.1-0.3,0c0,0,0,0,0,0c-0.1-0.1-0.2-0.2-0.1-0.3
				c0.4-1.1,0.9-2.2,1.3-3.3l0.2,0.3l0,0C210.3,176.5,210.4,176.6,210.4,176.7z"/>
			<path class="st2" d="M209,179.6c0.6-0.9,1.1-1.9,1.3-3c2,2.7,4.8,4.6,8.1,5.4l-0.1,0.1c-0.6,0.4-1.2,0.9-1.8,1.4
				c-0.3,0.3-0.6,0.6-0.9,1l0,0c-0.5,0.4-1.1,0.9-1.7,1.4l0,0c0.2-2.7-2.6-4.8-5.2-6.2l0,0C208.9,179.7,209,179.7,209,179.6z"/>
			<path class="st4" d="M217.8,164.6c0.1-0.2,0-0.5-0.2-0.5c0.3-0.5,0.5-1,0.8-1.5c0.4-0.8,1-1.6,1.6-2.3c0,0,0.1-0.1,0.1-0.2
				c2-0.1,4-0.3,5.9-0.7c-1.1,1.2-1.8,2.8-2,4.5c-0.2,1.6-1.2,6.2,1.6,5.8c0.1,0,0.2-0.1,0.3-0.2c0,0,0,0,0,0
				c0.2,0.2,0.5,0.1,0.7-0.1c1-1.8,5.9-9.2,3-10.9c3.8-1.2,7.3-2.8,10.7-4.9c5.5-3.5,9-7.7,12.8-12.8c1.1,15.8,14.3,33.1,28.4,39.6
				c0,0,0,0,0,0c0.1,0,0.3,0,0.3-0.2l0,0c-0.1,0.1-0.1,0.2-0.2,0.3c-0.2,0.4,0.3,0.8,0.6,0.5c4.1-5,11.5-0.1,7.5,5.4
				c-3.2,4.4-9.1,5.1-14.1,4.4c-0.2,0-0.3,0-0.4,0.1c-0.1-0.1-0.3-0.2-0.4-0.2c-7.6,2-16.2,0.4-24,0c-0.1-2.6-0.2-5.2-0.4-7.8l0,0
				c0.2,0,0.3-0.2,0.3-0.4l0.1,0.1c0.4,0.3,0.8-0.3,0.5-0.6c-5.3-4.1-12.4-5.6-19.1-4.7c-3.1,0.3-6.1,1-9,2.1
				c-1.3,0.6-2.6,1.3-3.8,2.2c-0.1-0.1-0.1-0.2-0.2-0.2c-3.9-2.1-8.8-4.5-9.8-9.3c-1.1-5,4.5-6.2,8.3-7.1
				C217.7,164.8,217.8,164.7,217.8,164.6z M257.5,178.3L257.5,178.3c0,0.1,0,0.1,0.1,0.2c0.1,0.2,0.4,0.3,0.6,0.2
				c2.5-1.6,6.9-12.6,2.4-13.7c-2.6-0.6-3.3,3.5-3.6,5.1c-0.3,2-1.3,6.4,0.3,8C257.3,178.2,257.4,178.2,257.5,178.3z"/>
			<path class="st0" d="M210.5,223.6c-0.3-12.4-1.4-25.1-0.5-37.5c0-0.1,0.1-0.2,0.2-0.3l0.2,0.2c0,0,0,0,0,0.1
				c0,0.2,0.1,0.4,0.3,0.4l0,0c-0.5,12.6,0.8,25.3,0.6,38c-0.1-0.2-0.3-0.3-0.4-0.5C210.8,223.9,210.7,223.8,210.5,223.6z"/>
			<path class="st0" d="M210,176.1c0.1-0.1,0.1-0.1,0.1-0.1c0,0,0,0,0,0c0.1-0.2,0.3-0.2,0.4-0.1l0,0l0.1,0.2l0,0c0,0,0,0.1,0,0.1
				c-0.1,0.2-0.1,0.4-0.2,0.6c-0.1-0.1-0.2-0.2-0.2-0.3l0,0L210,176.1z"/>
			<path class="st0" d="M210.5,185.8L210.5,185.8L210.5,185.8c-0.1,0-0.1,0.1-0.1,0.1l-0.2-0.1C210.3,185.8,210.4,185.8,210.5,185.8
				z"/>
			<path class="st0" d="M210.6,186.2v0.3l0,0c0,0,0,0-0.1,0c-0.2-0.1-0.3-0.3-0.2-0.5C210.5,186.1,210.6,186.1,210.6,186.2z"/>
			<path class="st0" d="M210.5,185.8c0.1,0.1,0.1,0.1,0.1,0.2v0.2c-0.1-0.1-0.2-0.1-0.3-0.2C210.4,185.9,210.4,185.9,210.5,185.8z"
				/>
			<path class="st0" d="M210.9,224.1v0.9c-0.1-0.2-0.3-0.3-0.4-0.4c0-0.3,0-0.6,0-0.9C210.6,223.7,210.8,223.9,210.9,224.1z"/>
			<path class="st0" d="M211.3,225.4c-0.1,0.1-0.2,0.2-0.3,0.2c-0.2,0-0.4-0.2-0.5-0.4c0-0.2,0-0.5,0-0.7c0.2,0.1,0.3,0.3,0.4,0.4
				l0,0C211.1,225.1,211.2,225.3,211.3,225.4z"/>
			<path class="st0" d="M210.6,175.9l-0.1-0.2C210.6,175.8,210.6,175.9,210.6,175.9z"/>
			<path class="st0" d="M210.5,185.8L210.5,185.8L210.5,185.8L210.5,185.8z"/>
			<path class="st0" d="M210.6,185.8c0.1,0,0.1,0.1,0.1,0.2C210.6,186,210.6,185.9,210.6,185.8L210.6,185.8z"/>
			<path class="st1" d="M215.9,187L215.9,187c0.1,0,0.1,0,0.2,0c-1.8,13.4,1.7,27.4,2.2,40.9c-2-0.2-3.7-1.2-5.7-1.5
				c-0.3-0.7-0.7-1.3-1.2-1.8c0.2-12.6-1.1-25.4-0.6-38C212.4,186.9,214.1,186.8,215.9,187z"/>
			<path class="st0" d="M210.8,186.1L210.8,186.1L210.8,186.1C210.7,186.1,210.7,186,210.8,186.1c-0.1-0.2-0.1-0.3-0.2-0.3
				c0.1,0,0.1,0,0.2,0C210.7,185.9,210.8,186,210.8,186.1z"/>
			<path class="st0" d="M211.5,165.5c-1.4-7.5-1.8-12.8,1.9-19.8c3.1-5.8,8.6-10,15-11.6c0,0.1,0.1,0.2,0.2,0.3
				c-6.2,1.5-11.4,6.1-14.6,11.6c-1.7,2.8-2.7,6-3.2,9.2c-0.5,3.7,0.8,6.5,1.2,10.1L211.5,165.5z"/>
			<path class="st0" d="M213.9,146.1c3.1-5.5,8.4-10.1,14.6-11.6c0.1,0.1,0.2,0.1,0.3,0.1c0.1,0,0.3,0,0.4,0
				c-6.2,1.9-11.5,6.1-14.8,11.7c-3.8,6.1-3,12.1-2.1,18.8c-0.1,0.1-0.3,0.1-0.4,0.2c-0.4-3.5-1.7-6.3-1.2-10.1
				C211.2,152,212.2,148.9,213.9,146.1z"/>
			<path class="st0" d="M210.9,186.1c0.7,0.1,1.5,0.1,2.3,0.2c0,0,0,0.1,0,0.1c0,0.1,0.1,0.2,0.2,0.2c0.2,0.1,0.4,0,0.5-0.2l0,0
				c0.5,0,1.1,0.1,1.6,0.2c0,0.2,0.1,0.3,0.3,0.3c-1.7-0.2-3.5,0-5.1-0.5v-0.3C210.8,186.3,210.8,186.2,210.9,186.1z"/>
			<path class="st0" d="M210.7,186.1L210.7,186.1C210.8,186.2,210.8,186.3,210.7,186.1L210.7,186.1
				C210.7,186.1,210.7,186.1,210.7,186.1z"/>
			<path class="st0" d="M210.7,185.8c0.7-0.1,1.5-0.1,2.2,0c0.1,0.2,0.2,0.3,0.2,0.5c-0.8-0.1-1.6-0.1-2.3-0.2l0,0
				C210.8,186,210.8,185.9,210.7,185.8L210.7,185.8L210.7,185.8z"/>
			<path class="st0" d="M216.1,243.4c-1.5-0.7-2.8-1.8-3.9-3l0,0c0-0.1,0-0.1,0-0.2c0-0.1,0-0.1,0-0.1c-0.1-0.2-0.3-0.3-0.6-0.3
				l-0.7-0.8c-0.2-0.2-0.2-0.5,0-0.8c0.2-0.3,0.6-0.3,0.9-0.1c1.5,1.4,2.9,2.7,4.5,3.9c0,0.2-0.1,0.5-0.1,0.7
				C216.1,243,216.1,243.2,216.1,243.4z"/>
			<path class="st0" d="M211.3,224.5v0.7c0,0.1,0,0.2,0,0.2c-0.1-0.2-0.2-0.3-0.4-0.4v-0.9C211.1,224.2,211.2,224.4,211.3,224.5z"/>
			<path class="st0" d="M211.4,224.5c0.5,0.5,0.9,1.2,1.2,1.8c-0.2,0-0.4-0.1-0.6-0.1c-0.2-0.3-0.4-0.6-0.7-0.9c0-0.1,0-0.1,0-0.2
				V224.5z"/>
			<path class="st0" d="M212.4,165.1c0,0.1,0,0.2,0,0.3c0.1,0.5-0.8,0.6-0.9,0.1c0,0,0-0.1,0-0.1l0.4-0.2
				C212.1,165.3,212.2,165.2,212.4,165.1z"/>
			<path class="st0" d="M212.7,226.9c0,0.2-0.2,0.3-0.4,0.4l0,0l-0.3-0.1c0-0.1,0-0.1,0-0.1c-0.1-0.1-0.3-0.3-0.4-0.4l0,0
				c0,0,0,0,0,0c0-0.2,0.2-0.3,0.4-0.3l0,0c0.1,0.1,0.2,0.3,0.3,0.5L212.7,226.9z"/>
			<path class="st0" d="M211.7,239.8c0.2,0,0.5,0.2,0.5,0.4c0,0.1,0,0.1,0,0.2C212,240.2,211.8,240,211.7,239.8
				C211.6,239.8,211.7,239.8,211.7,239.8z"/>
			<path class="st0" d="M211.8,227c-0.1-0.1-0.2-0.2-0.2-0.3c0.1,0.1,0.3,0.3,0.4,0.4C211.9,227,211.8,227,211.8,227z"/>
			<path class="st0" d="M212.6,226.3c0.1,0.1,0.1,0.2,0.2,0.3c0,0.1,0,0.2,0,0.3l-0.5-0.2c-0.1-0.2-0.2-0.3-0.3-0.5
				C212.2,226.3,212.4,226.3,212.6,226.3z"/>
			<path class="st0" d="M212.3,227.2c-0.1,0-0.2,0-0.3-0.1l0,0L212.3,227.2z"/>
			<path class="st2" d="M229.2,134.6c8.1,0.2,16.1,1.9,23.6,5c0,0.1,0,0.1,0,0.2v0.1c-5.2,4.8-8.5,10.2-15.3,13.6
				c-5.7,2.9-11.7,5-18,6.1c-0.2,0-0.2,0.1-0.2,0.3c-1.2,0.8-3,2.7-2.6,4.3c-1.5,0.2-3,0.5-4.4,1.1c-0.9-6.7-1.7-12.7,2.1-18.8
				C217.7,140.7,223,136.5,229.2,134.6z"/>
			<path class="st0" d="M218.2,227.8v0.6c-1.9-0.3-3.7-0.8-5.5-1.5c0-0.1,0-0.2,0-0.3c0-0.1-0.1-0.2-0.2-0.3
				C214.5,226.6,216.3,227.6,218.2,227.8z"/>
			<path class="st0" d="M218.3,228.4c0,0.1,0,0.3,0,0.4c0,0,0,0.1,0,0.1c-2.1-0.1-4.1-0.7-5.9-1.7c0.2,0,0.4-0.2,0.4-0.4
				C214.5,227.6,216.4,228.1,218.3,228.4z"/>
			<path class="st0" d="M213.9,186L213.9,186c-0.1,0.1-0.2,0.2-0.3,0.2c0,0,0,0.1,0,0.1h-0.5c0-0.2-0.1-0.4-0.2-0.5
				c0.2,0,0.4,0,0.6,0.1C213.7,185.9,213.8,185.9,213.9,186z"/>
			<path class="st0" d="M213.6,186.3c0,0.1,0.1,0.1,0.2,0.1s0.1,0,0.1,0l0,0c0,0.1-0.1,0.2-0.2,0.2c-0.2,0.1-0.4,0-0.5-0.2
				c0,0,0-0.1,0-0.1H213.6z"/>
			<path class="st0" d="M214,186.4c-0.1,0-0.2,0-0.3,0c0,0,0-0.1,0-0.2c0.1-0.1,0.2-0.2,0.3-0.2c0,0.1,0,0.2,0,0.2l0,0
				C214,186.3,214,186.3,214,186.4z"/>
			<path class="st0" d="M213.8,186.5c-0.1,0.1-0.2,0-0.2-0.1c0.1,0,0.2,0,0.3,0C213.9,186.4,213.9,186.5,213.8,186.5z"/>
			<path class="st0" d="M214,186.2c0.1,0,0.3-0.1,0.4-0.2c0.1,0,0.1,0,0.1,0c-0.2,0.1-0.3,0.3-0.5,0.4
				C214,186.4,214,186.3,214,186.2L214,186.2z"/>
			<path class="st0" d="M215.5,186.3c0,0.1,0,0.2,0,0.3c-0.5-0.1-1.1-0.2-1.6-0.2c0.2-0.1,0.4-0.2,0.5-0.4
				C214.8,186.1,215.2,186.2,215.5,186.3z"/>
			<path class="st0" d="M214,185.9L214,185.9c0.1,0,0.2,0,0.3,0.1c-0.1,0.1-0.2,0.2-0.4,0.2C214,186.1,214,186.1,214,185.9
				L214,185.9z"/>
			<path class="st0" d="M214,185.9L214,185.9L214,185.9z"/>
			<path class="st0" d="M215.7,184.5c-0.4,0.6-0.9,1.1-1.4,1.5c-0.1,0-0.2-0.1-0.3-0.1C214.6,185.5,215.2,185,215.7,184.5z"/>
			<path class="st0" d="M219.4,181.5c1.1-0.9,2.4-1.7,3.7-2.3c2.9-1.1,5.9-1.8,9-2.1c6.6-0.9,13.8,0.6,19.1,4.7
				c0.4,0.3-0.1,0.9-0.5,0.6l-0.1-0.1c0-0.3-0.2-0.6-0.5-0.6c-0.2,0-0.4,0-0.6,0c-5.4-3.2-11.1-4-17.4-3.6c-4,0.4-7.9,1.5-11.6,3.3
				c-2.4,1.1-3.9,3.2-6,4.6c0,0-0.1,0-0.1,0c0.6-0.4,1.1-0.9,1.5-1.5l0,0c0.9-0.8,1.8-1.6,2.6-2.3l0.1-0.1l0,0c0.1,0,0.1,0,0.2,0
				c0.1,0,0.1,0,0.2,0c0.3,0,0.5-0.3,0.4-0.6C219.4,181.5,219.4,181.5,219.4,181.5z"/>
			<path class="st3" d="M220.5,181.4c3.6-1.8,7.6-2.9,11.6-3.3c6.3-0.5,12,0.4,17.4,3.6c-6.2-0.6-11.9-1.8-18.2-0.6
				c-5.5,1.1-10.1,3.6-15.4,5c-0.1,0-0.2,0.1-0.3,0.2c-0.4-0.1-0.7-0.2-1.1-0.2C216.5,184.5,218.1,182.5,220.5,181.4z"/>
			<path class="st0" d="M215.4,248.5c-0.1-0.2-0.1-0.4,0.1-0.5C215.4,248.2,215.4,248.3,215.4,248.5z"/>
			<path class="st0" d="M216.5,248.8c-0.1,0.2-0.4,0.3-0.6,0.3c-0.2-0.1-0.4-0.3-0.5-0.5c0,0-0.1-0.1-0.1-0.1l0,0
				c0.1-0.2,0.1-0.4,0.1-0.5c0.2-0.2,0.4-0.2,0.6-0.1c0,0,0.1,0,0.1,0c0,0.2-0.1,0.4-0.1,0.6C216.2,248.6,216.4,248.7,216.5,248.8z"
				/>
			<path class="st0" d="M215.4,248.6c0.2,0.2,0.3,0.3,0.5,0.5c0,0-0.1,0-0.1,0C215.6,249.1,215.3,248.8,215.4,248.6
				C215.4,248.6,215.4,248.6,215.4,248.6z"/>
			<path class="st0" d="M216.5,186.6c0.1,0.1,0,0.3-0.1,0.3c0-0.1,0-0.1,0-0.2c0-0.1-0.2-0.1-0.2,0c-0.2,0-0.4-0.1-0.6-0.1
				c0-0.1,0-0.2,0-0.3c0.2,0.1,0.5,0.1,0.7,0.2l0,0C216.4,186.5,216.5,186.6,216.5,186.6z"/>
			<path class="st0" d="M216,186.9h-0.2l0,0c-0.1,0-0.3-0.2-0.3-0.3c0.2,0,0.4,0.1,0.6,0.1C216.1,186.8,216.1,186.9,216,186.9z"/>
			<path class="st0" d="M215.8,186.1c5.3-1.4,9.9-4,15.4-5c6.2-1.2,12,0,18.2,0.6c0.4,0.2,0.7,0.4,1.1,0.6c0,0.2-0.1,0.4-0.3,0.4
				c0-0.2,0-0.3,0-0.5c0,0,0,0,0,0c0-0.2-0.1-0.3-0.3-0.3c-0.2,0-0.3,0.1-0.3,0.3c-2.9-0.1-6-0.8-8.8-1c-4.6-0.2-9.2,0.3-13.7,1.5
				c-2.1,0.5-4.1,1.1-6.1,1.9c-1.3,0.5-3.1,1.7-4.6,1.8l0,0c-0.2-0.1-0.5-0.2-0.7-0.2C215.6,186.2,215.7,186.1,215.8,186.1z"/>
			<path class="st0" d="M216.1,243.4c0.2,0.1,0.4,0.2,0.6,0.3c-0.1,1.5-0.3,3-0.6,4.2c-0.1,0-0.1,0-0.1,0c-0.2-0.1-0.5-0.1-0.6,0.1
				C215.6,246.4,215.8,244.9,216.1,243.4z"/>
			<path class="st0" d="M216.2,187c0,7.2,0.6,14.3,1.1,21.5c0.2,3.6,0.5,7.2,0.6,10.9c0.1,2.8,0.8,5.6,0.8,8.4l0,0
				c-0.1,0-0.2,0.1-0.2,0.1c-0.1,0-0.2,0-0.2,0c-0.5-13.4-4-27.5-2.2-40.9H216.2z"/>
			<path class="st0" d="M216.1,187L216.1,187c-0.1,0-0.1,0-0.2,0H216.1z"/>
			<path class="st0" d="M216.6,248.6c0-0.2,0.1-0.3,0.1-0.5c5.8,2.4,10.9,3.8,16.7,0c0.1-0.1,0.3-0.1,0.4,0c-0.1,0.1-0.1,0.2,0,0.3
				c0.1,0.1,0.1,0.2,0.2,0.3c0,0.1-0.1,0.1-0.1,0.1c-4,4.5-13.5,4.4-18,0.3c0.2,0,0.5-0.1,0.6-0.3L216.6,248.6z"/>
			<path class="st0" d="M216.7,248.2c0,0.2-0.1,0.3-0.1,0.5l-0.1,0.2c-0.2-0.1-0.4-0.2-0.5-0.4c0.1-0.2,0.1-0.4,0.1-0.6
				C216.3,248,216.5,248.1,216.7,248.2z"/>
			<path class="st0" d="M216.8,243.1c-0.1,0.2-0.1,0.4-0.1,0.6c-0.2,0-0.4-0.1-0.6-0.3c0-0.2,0-0.4,0.1-0.7
				C216.4,242.9,216.6,243,216.8,243.1z"/>
			<path class="st0" d="M216.2,186.7v0.3h-0.1l0,0c0-0.1,0-0.2,0-0.3H216.2z"/>
			<path class="st0" d="M216.3,186.7c0,0.1,0.1,0.2,0,0.2c-0.1,0-0.1,0-0.1,0h-0.1v-0.2h-0.1C216.1,186.6,216.3,186.6,216.3,186.7z"
				/>
			<path class="st0" d="M216.7,243.7c0.2,0.1,0.4,0.2,0.6,0.2l0,0c-0.1,1.4-0.3,2.9-0.6,4.2c-0.2-0.1-0.4-0.2-0.6-0.2
				C216.4,246.7,216.5,245.2,216.7,243.7z"/>
			<path class="st0" d="M216.8,242.4c0,0.2,0,0.5,0,0.7c-0.2-0.1-0.4-0.2-0.6-0.4c0-0.3,0.1-0.5,0.1-0.7
				C216.4,242.2,216.6,242.3,216.8,242.4z"/>
			<path class="st0" d="M216.3,187C216.2,187,216.2,187,216.3,187L216.3,187L216.3,187z"/>
			<path class="st0" d="M216.4,186.9c1,6.3,0.9,12.8,1.4,19.1c0.5,7.1,1.3,14.3,1.3,21.4c-0.1,0.1-0.2,0.1-0.4,0.2
				c0-2.8-0.7-5.6-0.8-8.4c-0.1-3.6-0.4-7.2-0.6-10.9c-0.5-7.2-1.1-14.3-1.1-21.5C216.2,187,216.2,187,216.4,186.9
				C216.3,187,216.4,187,216.4,186.9z"/>
			<path class="st0" d="M219.1,228.8L219.1,228.8c0.1-0.1,0.1-0.2,0.1-0.3l0,0c0,3.3-1.6,6.9-2,10.3c-0.1,1.1-0.2,2.4-0.4,3.6
				c-0.2-0.1-0.4-0.3-0.6-0.4C216.9,237.6,217.9,233.1,219.1,228.8z"/>
			<path class="st0" d="M220.9,184.7c2-0.7,4-1.4,6.1-1.9c4.5-1.2,9.1-1.7,13.7-1.5c2.8,0.2,5.9,0.9,8.8,1c0,0.1,0,0.3,0,0.5
				c-6.1-0.1-11.6-1.1-17.8-0.1c-5.4,0.8-10.2,3.5-15.4,4.3c0,0,0.1-0.1,0.1-0.1c0.1-0.1,0-0.3-0.1-0.3
				C217.8,186.4,219.6,185.2,220.9,184.7z"/>
			<path class="st0" d="M219.6,160.1c-1.2,1.1-2.1,2.5-2.5,4c-0.1,0-0.2,0-0.3,0c-0.4-1.6,1.4-3.5,2.6-4.3
				C219.3,159.9,219.4,160,219.6,160.1z"/>
			<path class="st0" d="M217.3,243.4c0,0.2,0,0.3,0,0.5l0,0c-0.2,0-0.4-0.1-0.6-0.2c0.1-0.2,0.1-0.4,0.1-0.6L217.3,243.4z"/>
			<path class="st0" d="M217.4,164.1c0,0,0.1,0,0.2,0c-0.1,0.1-0.2,0.3-0.4,0.4c-0.1,0-0.1,0-0.1,0c-0.1,0-0.1,0-0.2,0
				c-0.1,0-0.2-0.1-0.2-0.2c0-0.1,0-0.2,0-0.2c0.1,0,0.2,0,0.3,0C217.2,164.1,217.4,164,217.4,164.1z"/>
			<path class="st0" d="M216.8,242.4c0.2,0.1,0.4,0.3,0.6,0.4c0,0.2,0,0.4,0,0.6l-0.6-0.3C216.8,242.9,216.8,242.7,216.8,242.4z"/>
			<path class="st0" d="M217.2,238.8c0.4-3.4,2-7,2-10.3h0.1c0.5,3.1-0.8,6.1-1.4,9.1c-0.3,1.7-0.5,3.5-0.5,5.2
				c-0.2-0.1-0.4-0.3-0.6-0.4C217,241.2,217.1,239.9,217.2,238.8z"/>
			<path class="st0" d="M217.1,164.5c-0.1,0-0.1,0-0.2,0C217,164.5,217.1,164.5,217.1,164.5z"/>
			<path class="st0" d="M219.6,160.1h0.4c0,0.1,0,0.1-0.1,0.2c-0.6,0.7-1.1,1.5-1.6,2.3c-0.3,0.5-0.4,1-0.8,1.5c0,0-0.1,0-0.2,0
				c-0.1,0-0.2,0-0.4,0C217.5,162.5,218.4,161.1,219.6,160.1z"/>
			<path class="st5" d="M218,243.6c0.1-0.2,0-0.5-0.3-0.6c-0.1-0.1-0.2-0.1-0.3-0.2c0.1-1.7,0.2-3.5,0.5-5.2c0.6-3,1.9-6.1,1.4-9.1
				l0,0c4.7-1.5,9.5-2.7,14.4-3.5c4.4-0.5,8.7-1.2,13-2.2v0.1c0,0.1,0.1,0.1,0.1,0.1l0,0c0,0,0,0.1,0,0.1c2.8,3.3,10.9-5.7,12.6-7.3
				c3.7-3.8,7.1-8.5,8.4-13.6c1.2,6.8,6.5,12.8,10.4,18.2c3.7,5.1,7.3,10.4,11.3,15.4c0,0.2,0.1,0.3,0.3,0.4
				c1.4,1.7,2.8,3.4,4.2,5.1c0.1,0.1,0.3,0.2,0.4,0.1l0,0c-4.3,1.9-8.9,1.6-13.6,0.7h-0.2c-0.1,0-0.1,0-0.2,0.1c0,0,0,0-0.1,0
				c-0.2,0.1-0.4,0.4-0.2,0.7c-3,9.5-15.7,8.1-22.9,4.6l0,0c0-0.1-0.1-0.1-0.2-0.1l0,0c-0.1,0-0.2-0.1-0.2,0c-0.2,0-0.2,0.2-0.2,0.4
				c-3.3,2.5-7.6,4.7-11.9,4.6s-6.8-2.9-10.6-4.1c-0.1,0-0.2,0-0.3,0.1c-0.1-0.1-0.3-0.1-0.4,0c-5.8,3.7-10.9,2.4-16.7,0
				c0.3-1.4,0.5-2.8,0.6-4.2C217.6,244,217.9,243.9,218,243.6z"/>
			<path class="st0" d="M217.4,242.8c0.1,0.1,0.2,0.1,0.3,0.2c0.2,0.1,0.2,0.3,0.2,0.5c0,0.3-0.3,0.4-0.6,0.4c0-0.2,0-0.3,0-0.5
				C217.4,243.2,217.4,243,217.4,242.8z"/>
			<path class="st1" d="M231.7,182.7c6.1-1,11.7,0,17.8,0.1c-0.6,11-1.4,22.3-1.2,33.3c-1.1,1.7-1.7,3.6-1.8,5.6l0,0
				c-8.7,1.2-19.8,0.9-27.5,5.8c0-7.1-0.8-14.4-1.3-21.4c-0.5-6.4-0.4-12.9-1.4-19.1C221.5,186.2,226.4,183.5,231.7,182.7z"/>
			<path class="st0" d="M218.4,227.9L218.4,227.9c-0.2,0.1-0.2,0.3-0.1,0.5h-0.1v-0.6C218.3,227.9,218.4,227.9,218.4,227.9z"/>
			<path class="st0" d="M218.7,228.6l0.3-0.1v0.3c-0.1,0.1-0.2,0.1-0.4,0.1c-0.1,0-0.2,0-0.4,0c0,0,0-0.1,0-0.1c0-0.1,0-0.3,0-0.4
				c0.1,0,0.1,0,0.1,0l0,0C218.4,228.6,218.5,228.7,218.7,228.6C218.7,228.6,218.7,228.6,218.7,228.6z"/>
			<path class="st0" d="M218.7,228.6c-0.1,0-0.3-0.1-0.3-0.2l0,0c-0.1-0.2,0-0.4,0.2-0.5l0,0c0.1,0,0.1,0,0.2,0l0,0
				c0,0.1,0,0.2,0,0.3C218.7,228.4,218.7,228.5,218.7,228.6z"/>
			<path class="st0" d="M219,228.9c0,0.1-0.1,0.2-0.2,0.3c-0.2,0.1-0.4,0-0.5-0.2c0.1,0,0.2,0,0.4,0C218.8,229,218.9,229,219,228.9z
				"/>
			<path class="st0" d="M218.6,227.7v0.1l0,0c-0.1,0-0.1,0-0.2,0C218.5,227.8,218.6,227.8,218.6,227.7z"/>
			<path class="st0" d="M219.3,181.5c0,0.1,0,0.1,0,0.2c-0.1,0.3-0.3,0.4-0.6,0.4c-0.1,0-0.1,0-0.2,0c0,0,0.1-0.1,0.1-0.1
				C218.9,181.8,219.1,181.7,219.3,181.5z"/>
			<path class="st0" d="M219,228.1L219,228.1v0.5l-0.3,0.1c0,0-0.1,0-0.1,0c0-0.1,0-0.3,0-0.4C218.8,228.2,218.9,228.1,219,228.1z"
				/>
			<path class="st0" d="M219,228.1L219,228.1c-0.1,0-0.2,0.1-0.3,0.1c0-0.1,0-0.2,0-0.3C218.8,227.9,218.9,228,219,228.1z"/>
			<path class="st0" d="M218.6,227.7c0.1-0.1,0.2-0.1,0.4-0.2c0,0.2,0,0.4,0,0.5l0,0c-0.1-0.1-0.2-0.1-0.3-0.2L218.6,227.7
				L218.6,227.7z"/>
			<path class="st0" d="M219.3,181.5c0,0,0,0.1,0,0.1c-0.2,0.1-0.4,0.3-0.6,0.4C218.9,181.8,219.1,181.6,219.3,181.5z"/>
			<path class="st0" d="M219,228.1L219,228.1L219,228.1L219,228.1z"/>
			<path class="st0" d="M219.1,228.5c-0.1,0.1-0.1,0.3-0.1,0.3l0,0l0,0L219.1,228.5C219.1,228.6,219.1,228.6,219.1,228.5z"/>
			<path class="st0" d="M219.2,228.5L219.2,228.5L219.2,228.5c0,0-0.1,0-0.1,0v-0.4C219.1,228.2,219.2,228.4,219.2,228.5z"/>
			<path class="st0" d="M246.7,222.2c0,0.2,0,0.3,0,0.5c-4.3,1-8.6,1.8-13,2.2c-4.9,0.8-9.7,2-14.3,3.5c0,0,0,0,0,0c0,0-0.1,0-0.1,0
				c0-0.1-0.1-0.3-0.2-0.3v-0.1C227.6,223.9,237.5,224.2,246.7,222.2z"/>
			<path class="st0" d="M246.6,221.7c0,0.2,0,0.3,0,0.5c-9.1,1.9-19,1.6-27.6,5.8c0-0.2,0-0.4,0-0.5
				C226.7,222.6,237.8,222.9,246.6,221.7z"/>
			<path class="st0" d="M219.2,228.5c0,0.1,0,0.2-0.1,0.3C219.2,228.7,219.2,228.6,219.2,228.5L219.2,228.5z"/>
			<path class="st0" d="M219.2,228.5L219.2,228.5C219.2,228.5,219.2,228.4,219.2,228.5c0.1-0.1,0.1,0,0.1,0l0,0H219.2L219.2,228.5z"
				/>
			<path class="st0" d="M219.5,159.4c6.3-1.1,12.3-3.2,18-6.1c6.8-3.4,10.1-8.7,15.3-13.6c0,0.1,0,0.2,0,0.4
				c-2.1,2.3-3.8,5.4-6.2,7.6c-3.7,3.4-7.9,6.1-12.6,8c-4,1.8-9.6,3.8-14.1,4c0,0,0,0,0,0c-0.1-0.1-0.3-0.1-0.4-0.1l-0.1,0.1
				C219.4,159.6,219.4,159.5,219.5,159.4z"/>
			<path class="st0" d="M220,160.1h-0.4c-0.1,0-0.2-0.2-0.2-0.3l0.1-0.1c0,0,0,0,0,0c0.1-0.1,0.3,0,0.4,0.1
				C220,159.9,220,160,220,160.1z"/>
			<path class="st0" d="M234.1,155.9c4.6-1.9,8.9-4.6,12.6-8c2.4-2.2,4.1-5.3,6.2-7.6c0,0.2,0,0.3,0,0.5c-3.8,5.1-7.3,9.3-12.8,12.8
				c-3.3,2.1-6.9,3.8-10.7,4.9c-0.1-0.1-0.3-0.2-0.5-0.2c-1.1-0.1-2.2,0.2-3,1c0,0-0.1,0.1-0.1,0.2c-1.9,0.4-3.9,0.6-5.9,0.7
				c0-0.1,0-0.2-0.1-0.3C224.4,159.6,230,157.5,234.1,155.9z"/>
			<path class="st0" d="M225.9,159.4c1.2-0.2,2.4-0.6,3.6-0.9c2.9,1.7-2.1,9.2-3,10.9c0,0,0,0,0,0c-0.2,0.2-0.5,0.2-0.7,0.1
				c0.1-0.1,0.2-0.3,0.2-0.4l0.1,0.1c0.8-1.7,6.3-12.1,1.2-9.8c-2.5,1.1-2.9,4.8-2.9,7.1c-0.1,1.2-0.3,3.4,1.2,2.3l0.1,0.1
				c0,0.1-0.1,0.1-0.1,0.2c-0.1,0.2,0,0.4,0.2,0.5c-0.1,0.1-0.2,0.2-0.3,0.2c-2.8,0.5-1.8-4.2-1.6-5.8
				C224,162.2,224.7,160.6,225.9,159.4z"/>
			<path class="st0" d="M227.3,159.3c5.1-2.3-0.5,8.1-1.2,9.8l-0.1-0.1c0,0,0-0.1,0-0.2c0-0.1,0-0.2,0-0.2c0-0.1-0.1-0.3-0.2-0.4
				c1-2.5,2.3-5.1,2.7-7.7c0.1-0.6,0.2-1-0.5-0.9c-1.7,0.3-2.3,2.1-2.7,3.5c-0.2,1.1-0.3,2.3-0.3,3.4c0,0.1,0,1.4,0,1.4
				c0.3,0,0.6,0,0.8,0.2l0,0c-0.1,0.1-0.1,0.3-0.2,0.5l-0.1-0.1c-1.5,1.1-1.4-1.1-1.2-2.3C224.4,164,224.8,160.3,227.3,159.3z"/>
			<path class="st0" d="M225.4,163.2c0.4-1.5,1.1-3.2,2.7-3.5c0.7-0.2,0.5,0.3,0.5,0.8c-0.3,2.6-1.7,5.2-2.7,7.7l0,0
				c-0.2-0.1-0.5-0.2-0.8-0.2c0,0,0-1.2,0-1.4C225,165.5,225.2,164.4,225.4,163.2z"/>
			<path class="st0" d="M225.7,168.7l0.3,0.3c0,0.2-0.1,0.3-0.2,0.4c-0.2-0.1-0.2-0.3-0.2-0.5C225.6,168.9,225.7,168.8,225.7,168.7z
				"/>
			<path class="st0" d="M226,168.7c0,0.1,0,0.2,0,0.2c0,0,0,0.2,0,0.2l-0.3-0.3c0-0.2,0.1-0.3,0.2-0.5
				C226,168.4,226,168.6,226,168.7z"/>
			<path class="st0" d="M229,158.2c0.2,0,0.3,0.1,0.5,0.2c-1.2,0.4-2.4,0.7-3.6,0.9c0-0.1,0.1-0.1,0.1-0.2
				C226.8,158.5,227.9,158.1,229,158.2z"/>
			<path class="st0" d="M229.8,131.7c0.6-0.7,1.3-1.3,2.1-1.7l0.1,0.1h-0.1c-0.1,0-0.1,0.1-0.2,0.2c0,0.1,0,0.3,0.2,0.3
				c-1.3,0.9-2.2,2.3-3.3,3.2c-0.1,0.1-0.2,0.1-0.2,0.3c-0.1-0.1-0.2-0.2-0.1-0.3C228.6,132.9,229.1,132.2,229.8,131.7z"/>
			<path class="st0" d="M228.6,134c0.3-0.1,0.5-0.2,0.7-0.4c13.4-0.1,26.5,3.7,37.8,11c6.1,3.9,12.5,7.4,18.1,12.1
				c3.9,3.3,8.7,7,11.7,11.3c0,0.1,0,0.2-0.1,0.3c-0.1,0-0.1,0.1-0.2,0.1c-1.2-1.2-2.9-3.2-4-4.2c-3.8-3.2-7.3-6.7-11.3-9.7
				s-8.9-5.1-12.9-8c-11-8.1-25.5-12.4-39-12.4c-0.1-0.1-0.2-0.1-0.2-0.1l-0.3,0.1c-0.2,0-0.3,0.1-0.5,0.1c0-0.1,0-0.2,0-0.2
				C228.4,134,228.5,134,228.6,134z"/>
			<path class="st0" d="M228.3,134.2c0.2,0,0.3-0.1,0.5-0.1h0.6c0,0,0.1,0.1,0.1,0.1c0,0.1,0,0.3-0.2,0.3c-0.1,0-0.1,0-0.1,0
				c-0.1,0-0.3,0-0.4,0c-0.1,0-0.2,0-0.3-0.1C228.4,134.4,228.3,134.3,228.3,134.2z"/>
			<path class="st0" d="M228.6,133.6c0.1,0,0.1,0,0.2,0h0.6c-0.2,0.2-0.5,0.3-0.7,0.4c-0.1,0-0.2,0-0.3-0.1l0,0
				C228.4,133.8,228.5,133.7,228.6,133.6z"/>
			<path class="st0" d="M231.8,130.5c0.1,0,0.1,0,0.2,0c0.2,0,0.3-0.1,0.5-0.1c0,0.1-0.1,0.2-0.1,0.2c-0.8,0.6-1.5,1.3-2.1,2.1
				c-0.3,0.4-0.5,0.7-0.9,1h-0.6c-0.1,0-0.1,0-0.2,0C229.7,132.7,230.6,131.3,231.8,130.5z"/>
			<path class="st0" d="M229.1,134c0.1,0,0.2,0,0.2,0.1h-0.6L229.1,134z"/>
			<path class="st0" d="M229.3,134.5c0.1-0.1,0.1-0.3,0-0.4c13.6,0,28,4.4,39,12.4c4.1,2.9,8.9,5,12.9,8c4,3,7.5,6.5,11.3,9.7
				c1.1,0.9,2.8,3,4,4.2c-0.1,0.1-0.1,0.2-0.1,0.3c0,0.1,0,0.1,0.1,0.2c-3.3-2.1-6.4-6-9.2-8.5c-5.5-4.9-11.4-8.3-17.6-12.1
				c-5.1-3.2-10.5-6-16-8.4c0,0,0-0.1,0-0.2c0-0.1,0-0.1-0.1-0.1c0.1-0.2-0.1-0.3-0.3-0.3c-0.2-0.1-0.5,0-0.6,0.2
				c-7.5-3.1-15.5-4.8-23.6-5C229.3,134.6,229.3,134.6,229.3,134.5C229.3,134.5,229.3,134.5,229.3,134.5z"/>
			<path class="st3" d="M230.1,132.7c0.6-0.8,1.4-1.5,2.1-2.1c0.1,0,0.1-0.1,0.1-0.2c5.8-1.2,11.6,1.5,17,3
				c6.8,1.9,13.3,4.5,19.5,7.8c5.4,2.8,11.1,5.4,16,9c3.7,2.7,10.9,7.9,12.4,12.5c0.1,0.3,0.3,0.6,0.6,0.8c-0.1,0.9-0.2,1.7-0.4,2.6
				c-0.2,0.6-0.7,1.3-0.8,1.9c-3-4.3-7.8-8.1-11.7-11.3c-5.6-4.6-12-8.1-18.1-12.1c-11.2-7.3-24.3-11.1-37.6-11
				C229.6,133.3,229.9,133,230.1,132.7z"/>
			<path class="st0" d="M232.7,115.7c-1,2.6-0.1,6.2,0.1,8.8c0.2,1.5,1.1,4.3-0.1,5.4l-0.4,0.1c-0.1-0.1-0.3-0.1-0.4,0v0
				c-0.1-0.1-0.2-0.2-0.2-0.4v-0.1c0,0,0-0.1,0-0.1l0,0c0,0,0.1-0.1,0,0c-0.1,0.1-0.1,0.2-0.1-0.2c0-0.6,0.2-1.3,0.2-1.9
				c0-1.2-0.2-2.3-0.2-3.4c0-2.7-0.7-6.1,0.9-8.5c0,0.1,0,0.1,0.1,0.1C232.6,115.6,232.6,115.6,232.7,115.7z"/>
			<path class="st0" d="M231.8,129.3L231.8,129.3C231.8,129.3,231.8,129.3,231.8,129.3z"/>
			<path class="st0" d="M231.7,130.1c0-0.1,0.1-0.2,0.3-0.2h0.1c0.1,0.1,0.3,0.1,0.5,0c0,0,0,0,0,0.1l0,0c0.1,0.1,0.1,0.2,0,0.3
				c-0.2,0-0.3,0.1-0.5,0.1c-0.1,0-0.1,0-0.2,0C231.8,130.4,231.7,130.3,231.7,130.1z"/>
			<path class="st0" d="M232.5,129.9c-0.1,0-0.2,0.1-0.4,0.1l-0.1,0c0-0.1,0-0.1,0-0.1C232.1,129.8,232.3,129.8,232.5,129.9z"/>
			<path class="st0" d="M232.4,129.8c0,0,0.1,0.1,0.1,0.1c-0.1,0.1-0.3,0.1-0.5,0C232.2,129.9,232.3,129.9,232.4,129.8z"/>
			<path class="st0" d="M232.6,130C232.6,130,232.5,130,232.6,130c-0.1,0-0.1-0.1-0.2-0.1l0.4-0.1
				C232.7,129.9,232.7,129.9,232.6,130z"/>
			<path class="st0" d="M257,109.7c9-0.4,17.6,1.5,26.5,1.7c0,0,0,0,0,0c0.3,0,0.6,0.3,0.5,0.6c-0.4-0.2-0.7-0.3-1.1-0.5
				c-0.3-0.1-0.4,0.3-0.2,0.4c0,0,0,0,0,0c-1.7,0-4.7-0.7-6.4-0.8c-10.9-1.1-23.6-1.3-34.3,1c-3.1,0.8-6.2,1.8-9.2,3
				c0,0,0-0.1,0-0.1c0.1-0.1-0.2-0.2-0.3-0.1c-0.1,0.1-0.1,0.2-0.2,0.3c-0.1-0.1,0-0.3,0.1-0.4C240.4,111.7,248.6,109.9,257,109.7z"
				/>
			<path class="st0" d="M232.7,115.6c-0.1,0-0.2-0.1-0.2-0.2c-0.1,0-0.1-0.1-0.1-0.2c0.1-0.1,0.1-0.2,0.2-0.3s0.3,0,0.3,0.1
				c0,0,0,0.1,0,0.1l0,0L232.7,115.6z"/>
			<path class="st0" d="M232.6,130c0.1,0,0.1-0.1,0.2-0.2c4.2-1,8.4,0.1,12.6,1.1c6.4,1.6,12.7,3.7,18.8,6.2
				c6.8,3.1,13.4,6.7,19.8,10.8c2.3,1.5,4.5,3.2,6.6,5c2.4,2.1,5.1,7.1,8.3,8.1c-0.2,0.3-0.5,0.5-0.7,0.8c-1.6-1.5-3.7-3.9-5.2-5.6
				c-6.8-7.7-16.5-11.9-25.3-16.7c-5.7-3-11.7-5.3-17.9-6.9c-4.6-1.2-12.2-4.1-17.1-2.7l0,0c0,0,0,0,0-0.1
				C232.5,130,232.6,130,232.6,130z"/>
			<path class="st0" d="M249.7,132.7c6.2,1.5,12.3,3.9,17.9,6.9c8.8,4.8,18.5,9,25.3,16.7c1.5,1.7,3.6,4.1,5.2,5.6c0,0,0,0,0,0
				c-0.3,0.2-0.3,0.6,0,0.9c0,0.3,0,0.5,0,0.8c-0.3-0.2-0.5-0.5-0.6-0.8c-1.6-4.7-8.7-9.8-12.4-12.5c-5-3.5-10.6-6.2-16-9
				c-6.2-3.3-12.8-5.9-19.5-7.8c-5.5-1.5-11.3-4.2-17-3c0.1-0.1,0.1-0.2,0-0.3C237.5,128.7,245,131.6,249.7,132.7z"/>
			<path class="st5" d="M232.9,115.6c9.4-2.8,18.5-4.5,28.4-4.4c7.3,0.1,14.9,1.8,22.1,1.5c0.1,0,0.3,0,0.4-0.1
				c5.8,2.8,9.8,7.8,14.4,12.4c5.8,5.5,11,11.5,15.7,18l0,0c-5.5,5.7-9.5,12.6-15,18.3c-3.2-1-5.9-6-8.3-8.1c-2.1-1.8-4.3-3.5-6.6-5
				c-6.3-4.1-13-7.7-19.8-10.8c-6.1-2.6-12.4-4.7-18.8-6.2c-4.2-1.1-8.4-2.1-12.6-1.1c1.2-1.1,0.2-3.9,0.1-5.4
				c-0.2-2.6-1.1-6.2-0.1-8.8C232.8,115.6,232.9,115.6,232.9,115.6z"/>
			<path class="st0" d="M232.9,115.2c3-1.2,6-2.2,9.1-3c10.7-2.3,23.4-2.1,34.3-1c1.8,0.2,4.8,0.8,6.4,0.8c0.3,0.2,0.7,0.3,1,0.5
				c-0.1,0.1-0.2,0.1-0.4,0.1c-7.2,0.3-14.8-1.4-22.1-1.5c-9.9-0.1-19,1.7-28.4,4.5c-0.1,0-0.1,0-0.2,0L232.9,115.2L232.9,115.2z"/>
			<path class="st0" d="M234.1,248.7c-0.1-0.1-0.2-0.2-0.2-0.3c-0.1-0.1-0.1-0.2,0-0.3C234,248.3,234.1,248.5,234.1,248.7z"/>
			<path class="st0" d="M256.9,248c-6,6.2-17.1,7.9-22.9,0.7c0.1-0.2,0-0.4-0.2-0.6c0.1-0.1,0.2-0.1,0.3-0.1
				c3.8,1.2,6.4,3.8,10.6,4.1s8.6-2.1,11.9-4.5c0,0,0,0.1,0,0.1c0,0.1,0.1,0.1,0.1,0.2L256.9,248z"/>
			<path class="st0" d="M246.6,221.8c0,0,0.1,0,0.2,0c0,0.1,0,0.3,0,0.4c-0.1,0-0.1,0-0.2,0C246.5,222,246.5,221.9,246.6,221.8
				L246.6,221.8L246.6,221.8z"/>
			<path class="st0" d="M248.3,216.1v0.4c0,0.2,0.1,0.4,0.2,0.5c-0.9,1.4-1.5,3-1.7,4.7c0,0-0.1,0-0.2,0h-0.1
				C246.6,219.7,247.2,217.8,248.3,216.1z"/>
			<path class="st0" d="M246.7,222.2c0,0.1,0,0.3,0,0.4c-0.1,0,0,0.1-0.1,0.1s-0.1,0-0.1,0c0-0.2,0-0.3,0-0.5
				C246.6,222.2,246.7,222.2,246.7,222.2z"/>
			<path class="st0" d="M246.7,222.7c0,0.1,0,0.1,0,0.2C246.6,222.8,246.6,222.8,246.7,222.7L246.7,222.7
				C246.7,222.7,246.7,222.7,246.7,222.7z"/>
			<path class="st0" d="M246.9,222.6C246.9,222.6,246.9,222.6,246.9,222.6c0.1,0.1,0.1,0.2,0.1,0.3c0,0,0,0-0.1,0.1
				c-0.1,0-0.1,0-0.2-0.1l0,0c0-0.1,0-0.1,0-0.2C246.7,222.7,246.8,222.7,246.9,222.6C246.8,222.7,246.8,222.6,246.9,222.6z"/>
			<path class="st0" d="M257.2,217L257.2,217c1.9-1.8,3.6-3.6,5.2-5.6c3.7-5.2,6.9-12.2,4.9-18.7h0.4c0.8,2.7,0.9,5.6,0.3,8.4
				c0,0,0,0,0,0c-0.2,0.1-0.4,0.3-0.3,0.5c0.1,0.2,0.1,0.3,0.1,0.4c-1.3,5.1-4.7,9.9-8.4,13.6c-1.6,1.6-9.8,10.6-12.6,7.3
				c0,0,0-0.1,0-0.1c0,0,0,0,0.1,0.1c0.1,0,0.1,0,0.2-0.1c0-0.1,0-0.2,0-0.3c0.1,0,0.1,0,0.1-0.1l0.1,0.1c1.6,1.6,5.8-2.1,8.8-5.1
				c0.1,0.1,0.2,0.2,0.3,0.3h0C256.8,218.2,257.6,217.5,257.2,217z"/>
			<path class="st0" d="M246.8,222.6C246.8,222.6,246.8,222.7,246.8,222.6C246.8,222.7,246.7,222.7,246.8,222.6
				C246.7,222.6,246.8,222.6,246.8,222.6z"/>
			<path class="st0" d="M246.8,221.7c0.1,0,0.2,0.1,0.3,0.2c0,0.2-0.1,0.4-0.1,0.6c-0.1,0-0.2,0-0.2,0.1c0-0.1,0-0.3,0-0.4
				C246.8,222,246.8,221.9,246.8,221.7z"/>
			<path class="st0" d="M247,222.6C247,222.6,247.1,222.7,247,222.6C246.9,222.7,247,222.7,247,222.6c-0.1,0.1-0.2,0.1-0.2,0.1
				c0,0,0-0.1,0-0.1C246.9,222.5,246.9,222.5,247,222.6z"/>
			<path class="st0" d="M247.1,222.5c0,0-0.1,0.1-0.1,0.1c0,0,0-0.1,0-0.1C247.1,222.5,247.1,222.5,247.1,222.5z"/>
			<path class="st0" d="M248.5,217c0.1,0.1,0.3,0.2,0.5,0.2c-0.8,1.5-1.5,3.1-1.9,4.7c-0.1-0.1-0.2-0.2-0.3-0.2
				C247.1,220.1,247.7,218.5,248.5,217z"/>
			<path class="st0" d="M247.1,221.9C247.1,221.9,247.2,221.9,247.1,221.9c0.2,0.2,0.2,0.4,0,0.6c0,0-0.1,0-0.1,0
				C247,222.3,247.1,222.1,247.1,221.9z"/>
			<path class="st4" d="M247.2,222.5c0.1-0.2,0.1-0.4,0-0.6c0.4-1.6,1.1-3.2,1.9-4.7c0.4,0,0.7-0.3,0.7-0.7c0-0.2,0-0.3,0-0.5
				c0.6-0.9,1-1.7,1.6-2.6c1.7,1.2,3.3,2.5,4.7,4c-3,3-7.2,6.7-8.8,5.1L247.2,222.5C247.1,222.5,247.2,222.5,247.2,222.5z"/>
			<path class="st0" d="M249.8,182.8c0.1,2.6,0.1,5.3,0.1,8c-0.1,0.1-0.1,0.3,0,0.5c-0.2,7.9-0.8,15.7-0.8,23.5
				c-0.2,0.4-0.5,0.9-0.7,1.3c-0.2-11.1,0.6-22.4,1.2-33.4C249.6,182.8,249.7,182.8,249.8,182.8z"/>
			<path class="st0" d="M249,214.9v1.3c-0.2,0.3-0.3,0.6-0.5,0.9c-0.1-0.1-0.2-0.3-0.2-0.5v-0.4C248.5,215.7,248.8,215.3,249,214.9z
				"/>
			<path class="st0" d="M249.8,214.8c0,0.4,0,0.8,0,1.2l-0.7,1.2c-0.2,0-0.4-0.1-0.5-0.2c0.1-0.3,0.3-0.6,0.5-0.9
				C249.3,215.7,249.5,215.2,249.8,214.8z"/>
			<path class="st0" d="M249.9,213.5c-0.1,0.4-0.1,0.9-0.1,1.3c-0.3,0.4-0.5,0.9-0.8,1.3v-1.3L249.9,213.5z"/>
			<path class="st0" d="M249.7,216.5c0,0.4-0.3,0.7-0.7,0.7l0.7-1.2C249.7,216.2,249.7,216.4,249.7,216.5z"/>
			<path class="st0" d="M250,181.7c0.3,0,0.5,0.3,0.5,0.6c-0.3-0.2-0.7-0.5-1.1-0.6C249.6,181.7,249.8,181.7,250,181.7z"/>
			<path class="st0" d="M249.8,182.3v0.5c-0.1,0-0.2,0-0.3,0c0-0.2,0-0.3,0-0.5H249.8z"/>
			<path class="st0" d="M249.6,182.4C249.6,182.4,249.6,182.4,249.6,182.4c0-0.2,0.1-0.3,0.3-0.3c0.2,0,0.3,0.1,0.3,0.3
				c0,0.2,0,0.3,0,0.5l0,0c-0.1,0-0.1,0-0.2,0h-0.2v-0.5L249.6,182.4z"/>
			<path class="st0" d="M249.9,191.3c0.1,0.3,0.3,0.5,0.6,0.5h0.2c0,3.4-0.1,6.9-0.2,10.2c-0.2,3.8-0.4,7.6-0.6,11.4l-0.9,1.3
				C249.1,207.1,249.7,199.2,249.9,191.3z"/>
			<path class="st0" d="M260.3,197.7c0.2-0.2,0.4-0.3,0.6-0.5c0.1-0.1,0.2,0.1,0.1,0.2c-3.4,3.6-5.4,8-7.5,12.4
				c-0.5,0.9-0.9,1.8-1.5,2.7l0,0c-0.5-0.2-1,0.5-0.5,0.8l0,0c-0.6,0.9-1.1,1.7-1.6,2.6c0-0.4,0-0.8,0-1.2c0.9-1.5,1.8-2.9,2.4-4
				c1.8-3.1,3.6-7.7,6.2-10.9l0,0c0.5-0.4,1-0.9,1.3-1.4l0,0l0,0C259.9,198.2,260,198,260.3,197.7z"/>
			<path class="st0" d="M249.9,191.3c-0.1-0.1-0.1-0.3,0-0.5C249.8,191,249.8,191.2,249.9,191.3z"/>
			<path class="st0" d="M250,182.7c0.1,0,0.1,0,0.2,0c0.2,2.6,0.4,5.2,0.4,7.8c-0.1,0-0.1,0-0.2,0c-0.2,0-0.5,0.1-0.6,0.3
				c0-2.6,0-5.3-0.1-8L250,182.7z"/>
			<path class="st0" d="M250.7,191.9h-0.2c-0.3,0-0.5-0.2-0.6-0.5c0-0.2,0-0.3,0-0.5c0.1-0.2,0.3-0.3,0.6-0.3c0.1,0,0.1,0,0.2,0v0.7
				C250.7,191.4,250.7,191.6,250.7,191.9z"/>
			<path class="st0" d="M251.8,210.5c2-3.4,3.5-7.1,5.9-10.2c0.3-0.1,0.5-0.3,0.8-0.5c-2.6,3.3-4.4,7.8-6.2,10.9
				c-0.6,1.2-1.5,2.5-2.4,4c0.1-0.4,0.1-0.8,0.1-1.3C250.5,212.5,251.2,211.5,251.8,210.5z"/>
			<path class="st5" d="M250.8,202.5c1,0,2-0.3,2.9-0.7c0.9-0.2,1.9-0.5,2.8-0.9c0.4-0.1,0.8-0.3,1.2-0.5c-2.4,3.1-3.9,6.8-5.9,10.2
				c-0.6,1-1.3,2-1.9,3c0.2-3.8,0.4-7.6,0.6-11.4C250.5,202.3,250.6,202.5,250.8,202.5z"/>
			<path class="st3" d="M250.7,191.9c4.6,0.4,9.1,0.6,13.7,0.7c-1.2,0.6-2.2,1.4-3.1,2.5c-0.7,0.8-2.2,2.1-2.4,3.2
				c-1.2,0.9-2.6,1.6-4.1,2c-1.3,0.4-3.3,0.6-4.3,1.6c-0.1,0.1-0.1,0.2-0.1,0.3C250.6,198.7,250.7,195.3,250.7,191.9z"/>
			<path class="st0" d="M259.1,198.7c-0.5,0.5-1,1.1-1.5,1.6c-0.4,0.2-0.8,0.4-1.2,0.5c-0.9,0.4-1.8,0.7-2.8,0.9
				c-0.9,0.4-1.9,0.6-2.9,0.7c-0.2,0-0.4-0.2-0.4-0.4c0-0.1,0-0.2,0.1-0.3c1-1,2.9-1.2,4.3-1.6c1.5-0.4,2.8-1.1,4.1-2
				c0,0.1,0,0.2,0,0.3C258.9,198.6,259,198.7,259.1,198.7C259.1,198.7,259.1,198.7,259.1,198.7z"/>
			<path class="st0" d="M250.6,190.6c7.8,0.4,16.4,2,24,0c0.2,0,0.3,0,0.4,0.2c-0.2,0.1-0.3,0.4-0.2,0.6c-2.3,1-4.7,1.4-7.2,1.3
				c0-0.1-0.1-0.3-0.1-0.4c-0.1-0.1-0.2-0.2-0.4-0.2c-0.2,0-0.3,0.2-0.3,0.4c0,0.1,0,0.1,0,0.2c-0.6,0-1.2,0-1.8,0h-0.1
				c0.1-0.1,0.1-0.1,0.2-0.1c0.1-0.1,0.1-0.2-0.1-0.2c-0.3,0.1-0.6,0.2-0.9,0.3c-4.6-0.1-9.1-0.3-13.7-0.7c0-0.2,0-0.4,0-0.7
				L250.6,190.6z"/>
			<path class="st0" d="M251.3,213.4L251.3,213.4c-0.5-0.3,0.1-1,0.5-0.8C251.7,212.9,251.5,213.2,251.3,213.4z"/>
			<path class="st0" d="M256.5,217c-0.2,0.1-0.3,0.3-0.4,0.4c-1.4-1.5-3-2.8-4.7-4c0.2-0.3,0.4-0.6,0.5-0.8l0,0c0,0,0,0,0,0
				c1.9,1,3.5,2.4,4.9,4C256.7,216.7,256.6,216.9,256.5,217L256.5,217z"/>
			<path class="st5" d="M253.3,209.9c2.1-4.4,4.1-8.8,7.5-12.4c0.1-0.1,0-0.3-0.1-0.2c-0.2,0.1-0.4,0.3-0.6,0.5l0,0
				c0.5-0.8,1-1.5,1.6-2.2c1-1.1,2.1-2.1,3.3-2.9h0.1c0.6,0,1.2,0,1.8,0c1.5,8.1-2.2,15.6-7.7,21.4c-0.4,0.4-1.3,1.4-2.4,2.5
				c-1.4-1.6-3-3-4.9-4c0,0,0,0,0,0C252.4,211.7,252.9,210.9,253.3,209.9z"/>
			<path class="st0" d="M253,139.6l-0.2,0.2v-0.1c0-0.1,0-0.1,0-0.2L253,139.6z"/>
			<path class="st0" d="M253,139.6c0.1,0,0.2,0.1,0.3,0.1l0,0c-0.1,0.2-0.3,0.3-0.4,0.5c0-0.1,0-0.3,0-0.4L253,139.6z"/>
			<path class="st0" d="M253.3,139.8c0,0.1,0,0.3,0,0.4c-0.1,0.2-0.3,0.4-0.4,0.6c0-0.2,0-0.3,0-0.5
				C253,140.1,253.1,139.9,253.3,139.8z"/>
			<path class="st0" d="M253.4,139.3c-0.1,0-0.1,0-0.1,0.1c-0.1,0.1-0.2,0.2-0.3,0.2l-0.2-0.1C252.9,139.3,253.2,139.2,253.4,139.3z
				"/>
			<path class="st0" d="M253.5,139.8c0.1,0,0.2,0.1,0.2,0.1c2.1,15.7,13.9,32.4,27.8,39.9c0,0,0,0,0,0c0.1,0.1,0.2,0.2,0.1,0.3
				c0,0,0,0,0,0c-0.1,0.1-0.2,0.2-0.3,0.1c-14.1-6.5-27.4-23.8-28.4-39.6c0.1-0.2,0.3-0.4,0.4-0.6L253.5,139.8z"/>
			<path class="st0" d="M253,139.7c0.1-0.1,0.2-0.2,0.3-0.2c0.1-0.1,0.1-0.1,0.1-0.1c0.1,0.1,0.2,0.2,0.3,0.3l0,0
				c0,0.1-0.1,0.1-0.1,0.2c-0.1,0-0.1-0.1-0.2-0.1C253.2,139.7,253.1,139.7,253,139.7z"/>
			<path class="st0" d="M253.5,139.8l-0.2,0.3c0-0.1,0-0.3,0-0.4C253.4,139.8,253.4,139.8,253.5,139.8z"/>
			<path class="st0" d="M253.4,139.3c0.2,0,0.3,0.1,0.3,0.3C253.6,139.5,253.5,139.4,253.4,139.3z"/>
			<path class="st0" d="M253.7,139.6c0,0,0,0.1,0.1,0.1c0,0.1,0,0.1,0,0.2c-0.1,0-0.2-0.1-0.2-0.1
				C253.6,139.8,253.6,139.7,253.7,139.6C253.7,139.6,253.7,139.6,253.7,139.6z"/>
			<path class="st0" d="M256.5,217c0.1-0.1,0.3-0.2,0.4-0.4c0.1,0.1,0.3,0.2,0.4,0.4c-0.3,0.2-0.6,0.5-0.9,0.8h0
				c-0.1-0.1-0.2-0.2-0.3-0.3C256.2,217.3,256.3,217.2,256.5,217L256.5,217z"/>
			<path class="st0" d="M257.2,217L257.2,217c0.4,0.5-0.4,1.2-0.9,0.7C256.6,217.5,256.9,217.2,257.2,217z"/>
			<path class="st0" d="M257.1,247.2c0,0,0,0.1-0.1,0.1l-0.4,0.3c0-0.1,0-0.2,0-0.2C256.7,247.2,256.9,247.2,257.1,247.2
				L257.1,247.2z"/>
			<path class="st0" d="M256.7,247.8c0-0.1-0.1-0.1-0.1-0.2c0,0,0-0.1,0-0.1l0.4-0.3c0.1-0.1,0.1-0.1,0.1-0.1c0,0.1,0.1,0.1,0.2,0.1
				l0,0c0.1,0.1,0.1,0.2,0,0.3l-0.1,0.1c-0.1,0-0.1-0.1-0.2-0.1L256.7,247.8z"/>
			<path class="st0" d="M257.2,247.7c-0.1,0.1-0.2,0.2-0.3,0.3l-0.2-0.2l0.3-0.2C257.1,247.7,257.1,247.7,257.2,247.7z"/>
			<path class="st0" d="M260.5,164.8c4.6,1.1,0.1,12.1-2.4,13.7c-0.1,0-0.1,0.1-0.2,0.1c-0.3,0-0.5-0.2-0.5-0.4
				c0.1,0.1,0.3,0.1,0.4,0l0,0c2-1.4,6.2-13.4,1.9-12.8c-2.6,0.5-3.2,10.9-2.2,12.3l0.1,0.1c0,0-0.1,0.1-0.1,0.1
				c-0.1,0.1-0.1,0.2-0.1,0.3c-0.1,0-0.2,0-0.2-0.1c-1.6-1.6-0.6-6-0.3-8C257.2,168.3,257.9,164.3,260.5,164.8z"/>
			<path class="st0" d="M259.3,214.1c5.5-5.8,9.2-13.3,7.7-21.4c0.1,0,0.3,0,0.4,0c2,6.5-1.2,13.5-4.9,18.7c-1.6,2-3.4,3.8-5.2,5.6
				c-0.1-0.1-0.2-0.3-0.4-0.4C258,215.4,258.8,214.5,259.3,214.1z"/>
			<path class="st0" d="M280.5,242.9l0.4,0.1c-0.1,9.2-19.4,11.6-24,5c0.1-0.1,0.2-0.2,0.3-0.3C262.7,252.8,279.5,251.6,280.5,242.9
				z"/>
			<path class="st0" d="M259.9,172.8c0.6-1.8,1.7-4.7,0.8-6.5c-0.8-1.6-2,1.2-2.2,1.6c-0.4,1.3-0.7,2.6-0.8,3.9
				c-0.3,1.9-0.2,3.8,0.3,5.6C258.9,175.9,259.5,174.4,259.9,172.8z M257.6,177.7L257.6,177.7c-1.1-1.5-0.5-11.9,2.1-12.4
				c4.3-0.6,0.1,11.4-1.9,12.8l0,0c0.2-0.1,0.3-0.4,0.2-0.6c0-0.1,0-0.1,0-0.2L257.6,177.7z"/>
			<path class="st0" d="M257.3,247.3c-0.1,0-0.1,0-0.2-0.1C257.2,247.2,257.2,247.3,257.3,247.3z"/>
			<path class="st0" d="M257.3,247.4c7.2,3.5,19.9,4.9,22.9-4.6c0.1,0.1,0.2,0.2,0.3,0.2h0.1c-1,8.7-17.9,9.8-23.3,4.8l0.1-0.1
				C257.3,247.6,257.3,247.4,257.3,247.4z"/>
			<path class="st0" d="M257.6,177.9C257.6,177.8,257.6,177.8,257.6,177.9l0.3,0.3c-0.1,0.1-0.3,0.1-0.4,0l0,0
				C257.5,178.1,257.5,178,257.6,177.9z"/>
			<path class="st0" d="M258,177.4c0,0.1,0,0.1,0,0.2c0.1,0.2,0,0.4-0.2,0.6l-0.2-0.4L258,177.4z"/>
			<path class="st0" d="M258.5,167.9c0.2-0.4,1.4-3.2,2.2-1.6c0.9,1.9-0.1,4.7-0.8,6.5c-0.4,1.6-1.1,3.1-1.9,4.5
				c-0.5-1.8-0.5-3.7-0.3-5.5C257.9,170.5,258.1,169.1,258.5,167.9z"/>
			<path class="st0" d="M259.1,198.7c0,0,0.1,0,0.1,0l0.3-0.2c-0.4,0.4-0.8,0.8-1.1,1.3l0,0c-0.2,0.2-0.5,0.3-0.8,0.5
				C258.1,199.8,258.6,199.3,259.1,198.7z"/>
			<path class="st0" d="M258.9,198.4c0-0.1,0-0.2,0-0.3c0.2-0.1,0.5-0.3,0.7-0.5l0,0c0.1-0.1,0.3,0.1,0.3,0.2s0,0.1,0,0.1l0,0
				c-0.3,0.2-0.5,0.5-0.8,0.7c0,0,0,0-0.1,0C259,198.7,258.9,198.6,258.9,198.4z"/>
			<path class="st0" d="M261.3,195.1c0.9-1,1.9-1.8,3.1-2.4c0.1,0,0.3,0,0.4,0c-2,1-3.8,3.2-5.1,5.1l0,0c-0.2,0.2-0.5,0.3-0.7,0.5
				C259.1,197.1,260.6,195.8,261.3,195.1z"/>
			<path class="st0" d="M259.9,198.1c0,0.1-0.1,0.3-0.2,0.4l0,0c0,0-0.1,0.1-0.1,0.1l-0.3,0.2c0,0-0.1,0-0.1,0
				C259.3,198.5,259.6,198.3,259.9,198.1z"/>
			<path class="st0" d="M259.6,198.6c0,0,0.1-0.1,0.1-0.1c-0.3,0.6-0.7,1-1.3,1.4C258.8,199.4,259.2,199,259.6,198.6z"/>
			<path class="st0" d="M264.8,192.7h0.3c-1.2,0.8-2.3,1.8-3.3,2.9c-0.6,0.7-1.1,1.5-1.6,2.2c0,0,0.1-0.1,0,0
				c-0.1,0.1-0.2,0.3-0.2,0.2s-0.1,0.1,0-0.1c0-0.2-0.2-0.3-0.3-0.2C261,195.8,262.8,193.6,264.8,192.7z"/>
			<path class="st0" d="M259.9,198c0.1-0.1,0.1-0.1,0.2-0.2c-0.2,0.2-0.4,0.5-0.4,0.5l0,0C259.8,198.3,259.8,198.2,259.9,198
				C259.9,198,259.8,198.1,259.9,198z"/>
			<path class="st2" d="M269.7,148.3c6.2,3.8,12.1,7.3,17.6,12.1c2.8,2.5,5.9,6.4,9.2,8.5c1.9,7,5.4,13.5,7.6,20.4
				c1.7,5.2,3.1,10.4,4.2,15.7c2.3,11.1,4,25-5,33.5c-1.8-4.3-3.3-8.7-4.4-13.2c0-0.1-0.2-0.2-0.3-0.2c-0.2,0-0.3,0.1-0.3,0.3
				c0,0.4,0,0.8,0,1.2c-0.8,1.9-1.9,3.6-3.3,5.1c-0.8,0.9-1.8,1.7-2.8,2.3c-0.5,0.2-1,0.4-1.6,0.6c-7.6-10.9-17.1-21-22.1-33.2
				c-0.1-0.2-0.3-0.3-0.5-0.3c0.6-2.8,0.5-5.7-0.3-8.4c2.5,0.1,4.9-0.3,7.2-1.3c0,0.2,0.1,0.3,0.3,0.4c5.6,2.2,16.9-1,16.9-8.4
				c0-5.6-7.6-8.1-10.4-3.1l0,0c0,0,0,0,0,0c0.1-0.1,0-0.3-0.1-0.3c-13.9-7.5-25.7-24.2-27.8-39.9
				C259.3,142.3,264.6,145.1,269.7,148.3z"/>
			<path class="st0" d="M264.3,192.6c0.3-0.1,0.6-0.2,0.8-0.3c0.1-0.1,0.1,0.1,0.1,0.2c0,0-0.1,0.1-0.2,0.1h-0.3
				C264.6,192.6,264.5,192.6,264.3,192.6z"/>
			<path class="st0" d="M266.9,192.7c0-0.1,0-0.2,0-0.2c0-0.2,0.1-0.3,0.2-0.4c0.2-0.1,0.4,0,0.5,0.2c0,0.1,0.1,0.3,0.1,0.4h-0.4
				C267.2,192.7,267.1,192.7,266.9,192.7z"/>
			<path class="st0" d="M267.7,202.1c0-0.2-0.1-0.3-0.1-0.4c0,0,0,0,0,0c-0.1-0.2,0.1-0.5,0.3-0.5
				C267.9,201.4,267.8,201.7,267.7,202.1z"/>
			<path class="st0" d="M289.6,235.1c-0.2,0.1-0.3,0.4-0.3,0.6c-3.9-5-7.6-10.3-11.3-15.4c-3.9-5.4-9.2-11.4-10.4-18.2
				c0.1-0.4,0.2-0.7,0.3-1c0.2,0,0.4,0.1,0.5,0.3c5,12.2,14.5,22.3,22.1,33.2c-0.3,0.1-0.5,0.2-0.7,0.3L289.6,235.1z"/>
			<path class="st0" d="M275.1,190.9c0.1,0.2,0,0.4-0.2,0.5c-0.1,0-0.1,0-0.1,0c-0.1-0.2,0-0.5,0.2-0.6
				C275.1,190.8,275.1,190.8,275.1,190.9z"/>
			<path class="st0" d="M275.1,191.2c0.1-0.1,0.1-0.4,0-0.5c0.1-0.1,0.3-0.1,0.4-0.1c5,0.7,10.9,0,14.1-4.4c4-5.4-3.4-10.4-7.5-5.4
				c-0.3,0.4-0.8-0.1-0.6-0.5c0-0.1,0.1-0.2,0.2-0.3c2.8-5,10.4-2.4,10.4,3.1c0,7.4-11.3,10.7-16.9,8.4c-0.2-0.1-0.3-0.2-0.3-0.4
				c0.1,0,0.1,0,0.1,0C275,191.3,275,191.3,275.1,191.2z"/>
			<path class="st0" d="M280.3,242.2c0,0.2-0.1,0.4-0.2,0.5c0,0,0,0,0-0.1c-0.1-0.3,0-0.5,0.3-0.6
				C280.4,242.1,280.4,242.1,280.3,242.2z"/>
			<path class="st0" d="M280.5,242.9c-0.1,0-0.2-0.1-0.3-0.2c0.1-0.2,0.1-0.4,0.2-0.5c0-0.1,0.1-0.1,0.1-0.1c0.1,0,0.1,0,0.2-0.1
				c0.1,0,0.3,0.1,0.3,0.3c0,0.1,0,0.2,0,0.3c0,0.2,0,0.4,0,0.5L280.5,242.9L280.5,242.9z"/>
			<path class="st0" d="M280.9,242.2c0-0.1-0.1-0.3-0.3-0.3h0.1c4.6,0.8,9.2,1.3,13.6-0.7c0.2-0.1,0.4-0.1,0.5-0.2
				c0.2-0.1,0.4,0.1,0.4,0.3c-0.4,2.2-4,2.5-5.7,2.7c-2.9,0.2-5.8-0.1-8.6-0.9c0-0.2,0-0.4,0-0.5
				C280.9,242.4,280.9,242.3,280.9,242.2z"/>
			<path class="st0" d="M282.7,112C282.7,112,282.7,112,282.7,112c-0.3-0.1-0.1-0.5,0.1-0.4c0.4,0.1,0.8,0.3,1.1,0.5
				c0,0.1,0,0.1,0,0.2l-0.6-0.2C283.1,112,282.9,112,282.7,112z"/>
			<path class="st0" d="M283.4,112l0.6,0.2c0,0.1-0.1,0.2-0.2,0.3c-0.3-0.2-0.6-0.3-1-0.5C283,112,283.2,112,283.4,112z"/>
			<path class="st0" d="M298.7,124.3c5.8,5.6,11.4,11.1,15.6,18.1c-0.1,0-0.1,0-0.1,0c-0.1,0.1-0.3,0.3-0.4,0.4
				c-4.7-6.5-10-12.5-15.7-18c-4.6-4.5-8.5-9.5-14.4-12.3c0.1-0.1,0.2-0.2,0.2-0.3C290,114.7,294.2,119.9,298.7,124.3z"/>
			<path class="st0" d="M297.9,122.5c6.2,6.1,12.8,12.1,17,19.8c0,0.1,0.1,0.2,0.1,0.3c0,0.3-0.3,0.5-0.6,0.5l0.3-0.4
				c0.1-0.1,0.1-0.2,0-0.2c-0.1-0.1-0.2-0.1-0.3-0.1c-4.2-7-9.8-12.6-15.6-18.2c-4.5-4.3-8.7-9.6-14.7-12c0-0.1,0-0.1,0-0.2
				C289.6,114.3,293.7,118.2,297.9,122.5z"/>
			<path class="st0" d="M290.8,236.2c-0.3,0.1-0.7,0-1-0.1c0-0.1-0.1-0.1-0.1-0.1c-0.1-0.1-0.2-0.3-0.3-0.4c0-0.2,0.1-0.5,0.3-0.6
				l0.2-0.1l0.4,0.6C290.5,235.7,290.6,236,290.8,236.2z"/>
			<path class="st0" d="M289.4,235.6c0.1,0.1,0.2,0.3,0.3,0.4C289.5,236,289.4,235.8,289.4,235.6z"/>
			<path class="st0" d="M291.6,236c1.1,1.5,2,3,3,4.6c0,0,0,0.1,0,0.1c0.1,0.2,0,0.5-0.3,0.5c-0.2,0.1-0.3,0-0.4-0.1
				c-1.5-1.6-2.9-3.3-4.2-5.1c0,0.1,0.1,0.1,0.1,0.1c0.3,0.1,0.7,0.2,1,0.1C291.1,236.2,291.3,236.1,291.6,236z"/>
			<path class="st0" d="M290.6,234.6c0.2,0.2,0.3,0.4,0.5,0.7c-0.3,0.1-0.5,0.2-0.8,0.2l-0.4-0.6
				C290.1,234.8,290.3,234.7,290.6,234.6z"/>
			<path class="st0" d="M291.1,235.3c0.1,0.2,0.3,0.5,0.5,0.7c-0.2,0.1-0.5,0.1-0.8,0.2c-0.2-0.2-0.3-0.5-0.5-0.7
				C290.6,235.5,290.8,235.4,291.1,235.3z"/>
			<path class="st0" d="M292.2,234c1-0.6,2-1.4,2.8-2.3c1.4-1.5,2.5-3.2,3.3-5.1c0,0.3,0,0.7,0,1c-1.2,3-4.4,6.7-7.3,7.7
				c-0.1-0.2-0.3-0.5-0.5-0.7C291.2,234.5,291.7,234.3,292.2,234z"/>
			<path class="st0" d="M298.4,227.6c0,0.3,0,0.7,0.1,1c-0.7,1.5-1.6,2.8-2.7,4c-1.2,1.4-2.6,2.6-4.3,3.4c-0.1-0.3-0.3-0.5-0.5-0.7
				C294,234.3,297.2,230.6,298.4,227.6z"/>
			<path class="st0" d="M296.9,168.8L296.9,168.8L296.9,168.8L296.9,168.8c0,0.1,0.1,0.3,0.1,0.4c-0.2-0.1-0.3-0.2-0.5-0.3
				c0-0.1,0-0.1,0-0.2c0-0.1,0-0.2,0.1-0.3C296.7,168.6,296.8,168.7,296.9,168.8z"/>
			<path class="st0" d="M296.7,168.3v0.2c0,0.1,0,0.2,0.1,0.2c-0.1-0.1-0.2-0.2-0.2-0.2C296.6,168.4,296.6,168.4,296.7,168.3z"/>
			<path class="st0" d="M297,169.3c1.9,5.5,5.1,10.8,6.9,16.5c4.5,13.5,13.8,42.3-0.5,53.2c-0.1-0.1-0.1-0.2-0.1-0.3
				c9.1-8.6,7.4-22.4,5.1-33.6c-1.1-5.3-2.5-10.5-4.2-15.7c-2.2-6.9-5.8-13.4-7.6-20.4C296.7,169.1,296.8,169.2,297,169.3L297,169.3
				z"/>
			<path class="st0" d="M297.1,168.6c0,0,0,0.1,0.1,0.1c-0.1,0-0.1,0-0.2,0c-0.1,0-0.1,0-0.2,0l0,0l0,0c0-0.1-0.1-0.1-0.1-0.2v-0.2
				c0.1-0.1,0.2-0.1,0.3,0c0.1,0,0.1,0.1,0.1,0.1C297.1,168.5,297.1,168.6,297.1,168.6z"/>
			<path class="st0" d="M296.8,168l0.2,0.4c-0.1-0.1-0.2-0.1-0.3,0C296.7,168.2,296.7,168.1,296.8,168z"/>
			<path class="st0" d="M296.8,168.7L296.8,168.7L296.8,168.7z"/>
			<path class="st0" d="M296.8,168.8L296.8,168.8c0.1,0,0.1,0,0.2,0c0.1,0,0.1,0,0.2,0l0,0c0.1,0.2,0.2,0.4,0.3,0.6l0,0
				c-0.1,0-0.1,0-0.2,0c-0.1-0.1-0.2-0.1-0.3-0.2l0,0C297,169.1,296.9,168.9,296.8,168.8L296.8,168.8z"/>
			<path class="st0" d="M297.6,166.2c0.2-0.8,0.4-1.7,0.4-2.6c0.1,0.1,0.3,0.1,0.4,0.1c-0.1,1.7-0.3,3.7-1.3,4.7l0,0l-0.1-0.1
				l-0.2-0.4C296.9,167.4,297.4,166.7,297.6,166.2z"/>
			<path class="st0" d="M297.5,169.4c5.9,13,11.2,25.6,13.6,39.9c1.7,10.4,1.7,23.3-7.6,30c0-0.1,0-0.2,0-0.3c0-0.1,0-0.1,0-0.1
				c14.3-10.9,4.9-39.7,0.5-53.2c-1.8-5.7-5-11-6.9-16.5c0.1,0.1,0.2,0.1,0.3,0.2C297.4,169.4,297.4,169.4,297.5,169.4z"/>
			<path class="st0" d="M297.1,168.5C297.1,168.5,297.2,168.5,297.1,168.5c0.1,0,0.1,0.1,0.1,0.2
				C297.2,168.6,297.1,168.5,297.1,168.5C297.1,168.4,297.1,168.5,297.1,168.5z"/>
			<path class="st0" d="M298.3,163.7c0.1,0,0.3,0,0.4-0.1c0,1.8-0.1,4.8-1.6,5.1l0,0c0,0,0-0.1-0.1-0.1c0,0,0-0.1,0-0.2
				c0,0,0,0-0.1,0C298,167.5,298.4,165.4,298.3,163.7z"/>
			<path class="st0" d="M297.5,169.2c0,0,0,0.1,0,0.2c-0.1-0.2-0.2-0.4-0.3-0.6C297.4,168.9,297.4,169.1,297.5,169.2z"/>
			<path class="st0" d="M298.5,162.3c0,0-0.1,0-0.1,0c-0.2,0-0.3,0.1-0.4,0.3v0.2c0,0,0,0,0,0c-0.2-0.3-0.2-0.6,0.1-0.9
				C298.3,162.1,298.4,162.2,298.5,162.3z"/>
			<path class="st0" d="M298.5,163.1c0,0.2,0,0.4,0,0.6c-0.1,0-0.3-0.1-0.4-0.1c0-0.3,0-0.5,0-0.8
				C298.2,163,298.3,163.1,298.5,163.1z"/>
			<path class="st0" d="M298.1,162.7v-0.2c0,0,0-0.1,0-0.1c0.1-0.2,0.3-0.3,0.4-0.2c0,0.1,0.1,0.1,0.1,0.1l0,0
				c0.1,0,0.1,0.1,0.1,0.2v0.5c-0.1,0-0.3,0-0.4,0C298.3,163,298.1,162.9,298.1,162.7z"/>
			<path class="st0" d="M298.8,161.1c0,0,0.1,0,0.1,0.1c0.2,0.1,0.4,0.1,0.6,0.3c-0.3,0.3-0.6,0.6-0.9,0.9c0,0-0.1,0-0.1,0
				c-0.1-0.1-0.3-0.3-0.4-0.4C298.4,161.7,298.6,161.4,298.8,161.1z"/>
			<path class="st0" d="M298.3,226.6c0-0.4,0-0.8,0-1.2c0-0.1,0.1-0.3,0.2-0.3c0.2,0,0.3,0.1,0.4,0.2c1.1,4.5,2.5,9,4.4,13.3
				l-0.3,0.3c-2.1-3.5-3.4-7.4-4-11.4c0.1-0.5,0.2-1,0.1-1.5c0-0.1-0.2-0.2-0.3-0.1C298.6,226.2,298.5,226.4,298.3,226.6z"/>
			<path class="st0" d="M298.7,226.5c-0.1,0.4-0.2,0.8-0.4,1.2c0-0.3,0-0.7,0-1c0.1-0.2,0.2-0.5,0.3-0.7
				C298.7,226.1,298.7,226.3,298.7,226.5z"/>
			<path class="st0" d="M298.8,163.1c0,0.2,0,0.3,0,0.5c-0.1,0.1-0.3,0.1-0.4,0.1c0-0.2,0-0.4,0-0.6
				C298.5,163.2,298.7,163.2,298.8,163.1z"/>
			<path class="st0" d="M298.8,226.5c0,0.3,0.1,0.6,0.1,1c-0.1,0.4-0.2,0.8-0.4,1.2c-0.1-0.3-0.1-0.7-0.1-1
				C298.6,227.2,298.7,226.9,298.8,226.5z"/>
			<path class="st0" d="M298.6,162.4L298.6,162.4c0,0-0.1-0.1-0.1-0.1c0,0,0.1,0,0.1,0L298.6,162.4z"/>
			<path class="st0" d="M299.5,161.4c0.2,0.1,0.3,0.4,0.4,0.6c-0.2,0.3-0.5,0.5-0.7,0.8c-0.1,0.1-0.2,0.2-0.4,0.2v-0.5
				c0-0.1,0-0.2-0.1-0.2l0,0C299,162,299.3,161.7,299.5,161.4z"/>
			<path class="st0" d="M298.7,225.9c0.1-0.2,0.3-0.1,0.3,0.1c0.1,0.5,0,1-0.1,1.5c-0.1-0.3-0.1-0.7-0.1-1
				C298.7,226.3,298.6,226.1,298.7,225.9z"/>
			<path class="st0" d="M302.9,238.9L302.9,238.9L302.9,238.9c-0.2,0.2-0.2,0.4-0.1,0.5c0.1,0.1,0.3,0.1,0.4,0.1l0.2-0.2
				c-0.1,0.3-0.4,0.5-0.7,0.2c-2.4-3.1-3.9-6.9-4.3-10.8c0.2-0.4,0.3-0.8,0.4-1.2C299.5,231.5,300.9,235.4,302.9,238.9z"/>
			<path class="st0" d="M299.1,162.9c0.3-0.3,0.5-0.5,0.7-0.8c0,0.7-0.4,1.3-1.1,1.5c0-0.2,0-0.3,0-0.5
				C298.9,163.1,299,163,299.1,162.9z"/>
			<path class="st0" d="M313.9,142.9L313.9,142.9l0.2,0.2c-4.9,6-9.2,12.9-14.5,18.4c-0.2-0.1-0.4-0.2-0.6-0.3c0,0-0.1,0-0.1-0.1
				C304.4,155.4,308.4,148.5,313.9,142.9z"/>
			<path class="st0" d="M314.1,143c0.1,0.1,0.2,0.1,0.3,0.1c-4.3,6.7-9.1,13.1-14.5,19c0-0.3-0.1-0.5-0.4-0.6
				C304.9,155.9,309.2,149.1,314.1,143z"/>
			<path class="st0" d="M303,238.9l0.2,0.3c0.1-0.1,0.2-0.2,0.3-0.3c0,0.1,0,0.1,0,0.1c0,0.1,0,0.2,0,0.3l-0.2,0.2l0,0
				c-0.1,0.1-0.3,0.1-0.4-0.1c-0.1-0.1-0.1-0.3,0.1-0.4L303,238.9z"/>
			<path class="st0" d="M303.3,238.6c0,0.1,0.1,0.2,0.1,0.3c-0.1,0.1-0.2,0.2-0.3,0.3l-0.2-0.3L303.3,238.6z"/>
			<path class="st0" d="M314.3,142.3C314.3,142.3,314.3,142.3,314.3,142.3c0.1,0.1,0.1,0.1,0.2,0.2c-0.1,0.1-0.2,0.3-0.4,0.5
				l-0.2-0.1l0,0l0,0C314,142.7,314.1,142.5,314.3,142.3z"/>
			<path class="st0" d="M314.3,142.4c0.1,0,0.2,0,0.2,0c0.1,0.1,0.1,0.2,0.1,0.3l-0.3,0.4c-0.1,0-0.2,0-0.3-0.1
				c0.1-0.1,0.2-0.3,0.4-0.5C314.4,142.5,314.4,142.5,314.3,142.4z"/>
			<path class="st6" d="M247,118.6c18,5.5,40,11,58.7,21.4"/>
			<path class="st3" d="M305.3,140.6c0.9,0.4,1.6-0.8,0.8-1.3c-9.1-5-18.8-9.2-28.7-12.3c-9.6-3.2-20.1-7.7-30.1-9
				c-0.6-0.1-1.1,0.8-0.5,1.1c8.6,4.2,19,5.8,28.1,8.8C285.3,131.4,295.5,135.6,305.3,140.6L305.3,140.6z"/>
			<path class="st6" d="M265.6,134.5c2.7-5.5,11-14.5,11.7-18.6"/>
			<path class="st3" d="M277.6,115.5c-0.2-0.1-0.4,0-0.5,0.1c-0.4,0.8-1.3,1.8-1.8,2.6c-1.1,1.8-2.3,3.6-3.6,5.3
				c-2.5,3.3-5.2,6.5-7.1,10.2c-0.7,1.5,1.5,2.8,2.3,1.3c3.3-6.2,8.9-11.4,11.3-18c0.1-0.4,0-0.7-0.3-1c-0.1-0.1-0.1-0.2-0.1-0.4
				C277.8,115.7,277.7,115.6,277.6,115.5z"/>
			<path class="st3" d="M279.6,165.3c-1.8,3.1-8-3.5-5.1-6.5c4-3.8,7.9,6.2,4.1,6.3"/>
			<path class="st6" d="M279.6,165.3c-1.8,3.1-8-3.5-5.1-6.5c4-3.8,7.9,6.2,4.1,6.3"/>
			<path class="st3" d="M278.5,164.5c-0.6,0.1-0.5,1.1,0.1,1.1c4.8,0,1-10.8-3.7-8c-2.7,1.6-2.1,4.8-0.4,6.9
				c1.1,1.5,4.7,3.9,5.5,0.9c0.1-0.4-0.4-0.8-0.7-0.5c-2.6,2-7-4.3-3.7-6C278.4,157.4,280.8,164.2,278.5,164.5L278.5,164.5z"/>
			<path class="st7" d="M269.6,161.7c-1.7-0.3-2.5-4.2-0.8-4.6c2.1-0.9,2.3,3.5,1.4,4.5"/>
		</g>
	</g>
</g>
<path class="st8" d="M182.3,201.1l-14.6-19.7c3.8-4.7,6.1-10.6,6.1-17.1v-55.5c0-14.9-12.1-27-27-27H56.2c-14.9,0-27,12.1-27,27
	v55.5c0,14.9,12.1,27,27,27h90.6c3.4,0,6.7-0.6,9.8-1.8L182.3,201.1z"/>
<g>
	<g id="レイヤー_1-2_1_">
		<g id="レイヤー_1-2-2">
			<g id="グループ_417">
				<g id="グループ_371">
					<g id="アセット_1" class="st9">
						<g id="_2">
							<g id="グループ_352">
								<path id="パス_446" class="st10" d="M82.9,86l-0.2,1.9L82,89.2l-0.3,1.3l-0.6,1.3l-0.3,1.4l-0.1,1.4L80,95.8l-0.3,1.4
									l-0.4,1.3l-0.4,1.3l-0.6,1.3l-0.2,1.4l-0.2,1.4l-0.4,1.3l-0.6,1.3l-0.3,1.4l-0.5,1.3l-0.2,1.4l-0.7,1.2l-0.1,1.4l-0.7,1.2
									l-0.5,1.3l-0.2,1.4l-0.5,1.3l-0.2,1.4l-0.7,1.2l0.1,1l0.1,0.8l0.5,0l-0.3,3l0-2.3l-0.6,0.5l-0.3-0.3l-0.8,1.2l0,1.5
									l-0.8,1.2l-0.4,1.3l-0.3,1.4l-0.6,1.3l-0.4,1.3l-0.5,1.3l-0.1,1.5l-0.7,1.2l-0.2,1.4l-0.3,1.4l-0.7,1.2l0.7,1.1l-1.4,1.6
									l-0.7,1.2l-0.2,1.4l-0.3,1.4l-0.8,1.2l-0.2,1.4l-0.6,1.2l-0.2,1.5l-0.5,1.3l-0.4,1.3l-0.5,1.2l-0.4,1.3l-0.7,1.2l-0.2,1.5
									l-0.5,1.3l-0.3,1.4l-0.5,1.3l-0.7,1.1l-0.2,1.2l0.2,0.6l0.4,0.3l0.4,0.3l0.8-0.9l0.1,1.2l0.7-0.7l0.4,0.2l0.7-2.4l0.1,2.9
									l0.5-0.1l0.4,0.1l0.5-0.1l0.5-0.1l0.2,1l0.6-0.4l0.6-0.3l0.2,0.8l0.6-0.5l0.5-0.2l0.3,0.7l0.3,0.7l0.6-0.3l0.3,0.5l0.6-0.5
									l0.6-0.4l0.2,0.9l0.6-0.5l0.2,0.9l0.4,0.2l0.5-0.2l1.5-2.9l-0.8,3.8l0.6-0.3l0.6-0.3l0.2,0.8l0.6-0.5l0.6-0.4l0,1.5l0.4,0.2
									l0.7-0.6l0.3,0.7l0.5-0.2l0.7-0.7l0.2,0.9l0.5,0l0.2,0.8l0.4,0.2l0.5-0.2l0.7-0.8l0.2,1l0.3,0.5l0.8-1.1l0.1,1.3l0.5-0.2
									l0.5,0L82,174l0.5,0l0.1,1.2l0.3,0.5l0.5-0.1l0.4,0.2l0.7-0.9l0.4,0.1l0.4,0.3l0.2,0.8l0.3,0.5l0.8-1l0.3,0.5l0.2,0.9
									l0.4,0.4l0.6-0.3l0.4,0.1l0.7-0.6l0.2,0.9l0.4,0.3l0.5-0.1l0.5-0.1l0.3,0.6l0.5,0l0.2,0.8l0.4,0.3l0.7-0.8l0.5-0.1l0.4,0.3
									l0.2,0.8l1.1-3.8l-0.2,3.9l0.3,0.5l0.4,0.1l0.3,0.6l0.7-0.8l0.4,0.3l0.1,1.2l0.7-0.6l0.6-0.3l0.2,0.8l0.2,1l0.6-0.5l0.3,0.6
									l0.4,0.3l0.6-0.5l0.4,0.3l0.2,0.7l0.5-0.1l0.3,0.6l0.3,0.6l0.5-0.1l0.7-0.6l0,1.5l0.9-1.2l0,1.4l0.6-0.4l0.4,0.2l0.5,0
									l0.3,0.6l0.1,1.1l0.5,0l0.7-0.6l0,1.5l0.6-0.3l0.5-0.1l0.1,1.2l0.6-0.4l0.5-1.3l0.1-1.3l0.5-1.4l0.4-1.4l0.5-1.4l0.1-1.3
									l0.6-1.4l-0.1-1.4l0.4-1.4l0.7-1.3l0.2-1.4l0.2-1.4l0.7-1.3l-0.2-3.2l0.7,0.5l0.4-1.4l0.4-1.3l0.3-1.4l0.7-1.3l0.4-1.3
									l-0.1-1.4l0.8-1.3l0.4-1.4l0.4-1.4l0.4-1.3l0.4-1.3l0.4-1.4l0.3-1.4l0.4-1.3l0.4-1.4l0.5-1.3l0.4-1.3l0.3-1.4l0.4-1.3
									l0.3-1.4l0.6-1.3l0-1.5l0.8-1.2l0.4-1.3l0.5-1.3l0-1.5l0.4-1.3l0.5-1.3l0.6-1.3l0.1-1.5l0.7-1.2l0.4-1.4l0.3-1.4l0.7-1.2
									l0.3-1.4l0.2-1.4l-0.9-1.1l2-1.5l0.5-1.3l0.3-1.4l0.4-1.4l0.5-1.3l0.4-1.4l0.6-1.3l0.4-1.4l0.4-1.4l0.2-1.4l0.8-1.4
									l-0.6,0.4l-0.5,0l-0.5,0.1l-0.3-0.8l-0.8,1.2l-0.1-1.4l-0.8,1.4l-0.3-0.5l-0.5,0.1l-0.2-0.9l-0.5,0.2l-0.5,0l-0.6,0.6
									l-1.5,3l0.7-3.2l-0.5,0.1l-0.6,0.4l-0.5,0.1l-0.3-0.5l-0.5,0.2l-0.6,0.3l-0.5,0l-0.4-0.4l-0.3-0.7l-0.6,0.6l-0.2-0.8
									l-1.2,2.4l0.1-1.9l-0.6,0.6l-0.2-1.1l-0.7,0.6l-0.5,0.3l-0.4-0.2L119,102l-0.5,0.3l-0.2-0.9l-0.5,0.1l-0.8,1.1l-0.1-1.4
									l-0.5,0.2l-0.5,0.1l-0.6,0.3l-0.5,0.1l-0.3-0.6l-0.5,0.1l-0.5-0.1l-0.5,0.1l-0.2-0.9l-0.7,0.9l-0.3-0.4l-0.3,1.8l-0.4,0.9
									l0.1,1.3l-1.3,2.5l0.9-2.1l0.1-2.8l-0.1-1.5l-0.5,0.1l0-1.5l-0.5,0.3l-0.7,0.7l-0.3-0.6l-0.3-0.5l-0.7,0.6l-0.5,0l-0.1-1.2
									l-0.4-0.2l-0.8,1l-0.3-0.7l-0.3-0.7l-0.5,0l-0.6,0.3l-0.6,0.5l-0.2-0.7l-0.4-0.1l-0.3-0.5l-0.6,0.3l-0.4-0.3l-0.4-0.2
									l-0.3-0.6l-0.5,0l-1.6,2.9l-0.8,2.1l0.9-3.3l0.8-2.1l-0.7,0.6l-0.1-1.1l-0.7,0.7l-0.1-1.1l-0.8,1.1l0-1.3l-0.6,0.3l-0.6,0.5
									l-0.4-0.4l-0.3-0.5l-0.4-0.1l-0.3-0.6l-0.5,0.1l-0.3-0.6l-0.2-0.9l-0.5,0.1l-0.5,0.1l-0.2-0.9l-0.8,0.9l-0.4-0.2l-0.2-0.9
									L91,92l-0.7,0.7L90.1,92l-0.4-0.1l-0.1-1.2l-0.8,0.8l-0.4-0.2L88,91.1l-0.3-0.5l-0.4-0.3L87,89.8L86.4,90l-0.3-0.6l-0.1-1.2
									l-0.6,0.3l-0.9,1.9l-0.1-1.8l-0.1-1.1l-0.2-0.8l-0.7,0.6l-0.3-0.6L82.9,86z"/>
							</g>
						</g>
					</g>
					<g id="アセット_1-2" class="st11">
						<g id="_2-2">
							<g id="グループ_352-2" class="st12">
								
									<radialGradient id="パス_446-2_1_" cx="397.1944" cy="553.648" r="6.642184e-02" gradientTransform="matrix(209.4388 -676.6508 -440.931 -182.9146 161028.375 370170.2188)" gradientUnits="userSpaceOnUse">
									<stop  offset="0" style="stop-color:#FAD2A7;stop-opacity:0"/>
									<stop  offset="1" style="stop-color:#452C11"/>
								</radialGradient>
								<path id="パス_446-2" class="st13" d="M82.9,86l-0.2,1.9L82,89.2l-0.3,1.3l-0.6,1.3l-0.3,1.4l-0.1,1.4L80,95.8l-0.3,1.4
									l-0.4,1.3l-0.4,1.3l-0.6,1.3l-0.2,1.4l-0.2,1.4l-0.4,1.3l-0.6,1.3l-0.3,1.4l-0.5,1.3l-0.2,1.4l-0.7,1.2l-0.1,1.4l-0.7,1.2
									l-0.5,1.3l-0.2,1.4l-0.5,1.3l-0.2,1.4l-0.7,1.2l0.1,1l0.1,0.8l0.5,0l-0.3,3l0-2.3l-0.6,0.5l-0.3-0.3l-0.8,1.2l0,1.5
									l-0.8,1.2l-0.4,1.3l-0.3,1.4l-0.6,1.3l-0.4,1.3l-0.5,1.3l-0.1,1.5l-0.7,1.2l-0.2,1.4l-0.3,1.4l-0.7,1.2l0.7,1.1l-1.4,1.6
									l-0.7,1.2l-0.2,1.4l-0.3,1.4l-0.8,1.2l-0.2,1.4l-0.6,1.2l-0.2,1.5l-0.5,1.3l-0.4,1.3l-0.5,1.2l-0.4,1.3l-0.7,1.2l-0.2,1.5
									l-0.5,1.3l-0.3,1.4l-0.5,1.3l-0.7,1.1l-0.2,1.2l0.2,0.6l0.4,0.3l0.4,0.3l0.8-0.9l0.1,1.2l0.7-0.7l0.4,0.2l0.7-2.4l0.1,2.9
									l0.5-0.1l0.4,0.1l0.5-0.1l0.5-0.1l0.2,1l0.6-0.4l0.6-0.3l0.2,0.8l0.6-0.5l0.5-0.2l0.3,0.7l0.3,0.7l0.6-0.3l0.3,0.5l0.6-0.5
									l0.6-0.4l0.2,0.9l0.6-0.5l0.2,0.9l0.4,0.2l0.5-0.2l1.5-2.9l-0.8,3.8l0.6-0.3l0.6-0.3l0.2,0.8l0.6-0.5l0.6-0.4l0,1.5l0.4,0.2
									l0.7-0.6l0.3,0.7l0.5-0.2l0.7-0.7l0.2,0.9l0.5,0l0.2,0.8l0.4,0.2l0.5-0.2l0.7-0.8l0.2,1l0.3,0.5l0.8-1.1l0.1,1.3l0.5-0.2
									l0.5,0L82,174l0.5,0l0.1,1.2l0.3,0.5l0.5-0.1l0.4,0.2l0.7-0.9l0.4,0.1l0.4,0.3l0.2,0.8l0.3,0.5l0.8-1l0.3,0.5l0.2,0.9
									l0.4,0.4l0.6-0.3l0.4,0.1l0.7-0.6l0.2,0.9l0.4,0.3l0.5-0.1l0.5-0.1l0.3,0.6l0.5,0l0.2,0.8l0.4,0.3l0.7-0.8l0.5-0.1l0.4,0.3
									l0.2,0.8l1.1-3.8l-0.2,3.9l0.3,0.5l0.4,0.1l0.3,0.6l0.7-0.8l0.4,0.3l0.1,1.2l0.7-0.6l0.6-0.3l0.2,0.8l0.2,1l0.6-0.5l0.3,0.6
									l0.4,0.3l0.6-0.5l0.4,0.3l0.2,0.7l0.5-0.1l0.3,0.6l0.3,0.6l0.5-0.1l0.7-0.6l0,1.5l0.9-1.2l0,1.4l0.6-0.4l0.4,0.2l0.5,0
									l0.3,0.6l0.1,1.1l0.5,0l0.7-0.6l0,1.5l0.6-0.3l0.5-0.1l0.1,1.2l0.6-0.4l0.5-1.3l0.1-1.3l0.5-1.4l0.4-1.4l0.5-1.4l0.1-1.3
									l0.6-1.4l-0.1-1.4l0.4-1.4l0.7-1.3l0.2-1.4l0.2-1.4l0.7-1.3l-0.2-3.2l0.7,0.5l0.4-1.4l0.4-1.3l0.3-1.4l0.7-1.3l0.4-1.3
									l-0.1-1.4l0.8-1.3l0.4-1.4l0.4-1.4l0.4-1.3l0.4-1.3l0.4-1.4l0.3-1.4l0.4-1.3l0.4-1.4l0.5-1.3l0.4-1.3l0.3-1.4l0.4-1.3
									l0.3-1.4l0.6-1.3l0-1.5l0.8-1.2l0.4-1.3l0.5-1.3l0-1.5l0.4-1.3l0.5-1.3l0.6-1.3l0.1-1.5l0.7-1.2l0.4-1.4l0.3-1.4l0.7-1.2
									l0.3-1.4l0.2-1.4l-0.9-1.1l2-1.5l0.5-1.3l0.3-1.4l0.4-1.4l0.5-1.3l0.4-1.4l0.6-1.3l0.4-1.4l0.4-1.4l0.2-1.4l0.8-1.4
									l-0.6,0.4l-0.5,0l-0.5,0.1l-0.3-0.8l-0.8,1.2l-0.1-1.4l-0.8,1.4l-0.3-0.5l-0.5,0.1l-0.2-0.9l-0.5,0.2l-0.5,0l-0.6,0.6
									l-1.5,3l0.7-3.2l-0.5,0.1l-0.6,0.4l-0.5,0.1l-0.3-0.5l-0.5,0.2l-0.6,0.3l-0.5,0l-0.4-0.4l-0.3-0.7l-0.6,0.6l-0.2-0.8
									l-1.2,2.4l0.1-1.9l-0.6,0.6l-0.2-1.1l-0.7,0.6l-0.5,0.3l-0.4-0.2L119,102l-0.5,0.3l-0.2-0.9l-0.5,0.1l-0.8,1.1l-0.1-1.4
									l-0.5,0.2l-0.5,0.1l-0.6,0.3l-0.5,0.1l-0.3-0.6l-0.5,0.1l-0.5-0.1l-0.5,0.1l-0.2-0.9l-0.7,0.9l-0.3-0.4l-0.3,1.8l-0.4,0.9
									l0.1,1.3l-1.3,2.5l0.9-2.1l0.1-2.8l-0.1-1.5l-0.5,0.1l0-1.5l-0.5,0.3l-0.7,0.7l-0.3-0.6l-0.3-0.5l-0.7,0.6l-0.5,0l-0.1-1.2
									l-0.4-0.2l-0.8,1l-0.3-0.7l-0.3-0.7l-0.5,0l-0.6,0.3l-0.6,0.5l-0.2-0.7l-0.4-0.1l-0.3-0.5l-0.6,0.3l-0.4-0.3l-0.4-0.2
									l-0.3-0.6l-0.5,0l-1.6,2.9l-0.8,2.1l0.9-3.3l0.8-2.1l-0.7,0.6l-0.1-1.1l-0.7,0.7l-0.1-1.1l-0.8,1.1l0-1.3l-0.6,0.3l-0.6,0.5
									l-0.4-0.4l-0.3-0.5l-0.4-0.1l-0.3-0.6l-0.5,0.1l-0.3-0.6l-0.2-0.9l-0.5,0.1l-0.5,0.1l-0.2-0.9l-0.8,0.9l-0.4-0.2l-0.2-0.9
									L91,92l-0.7,0.7L90.1,92l-0.4-0.1l-0.1-1.2l-0.8,0.8l-0.4-0.2L88,91.1l-0.3-0.5l-0.4-0.3L87,89.8L86.4,90l-0.3-0.6l-0.1-1.2
									l-0.6,0.3l-0.9,1.9l-0.1-1.8l-0.1-1.1l-0.2-0.8l-0.7,0.6l-0.3-0.6L82.9,86z"/>
							</g>
						</g>
					</g>
				</g>
			</g>
		</g>
	</g>
</g>
<polygon class="st14" points="150.7,102.6 124.1,109.9 124.1,112.7 151.7,107.6 "/>
<polygon class="st14" points="152.5,110.3 124.9,109.9 124.1,112.6 152,115.4 "/>
<g>
	<path d="M75.2,63.8c-0.7-0.4-1.3-1-1.8-1.9c-0.6-0.8-1.3-1.4-2.1-1.9l-2.7-1c-4.3-4.2-8.2-8.7-11.6-13.5
		c-3.5-4.8-7.8-8.9-12.9-12.3v-0.8l1.2-0.4c2.9,2.2,5.8,4.6,8.5,7.1c2.8,2.5,5.2,5.3,7.3,8.5l3.5,4.8c1,0.7,1.9,1.5,2.8,2.3
		c0.9,0.8,1.7,1.7,2.4,2.7v0.4c0.8,0.3,1.7,0.6,2.5,0.9c0.8,0.3,1.6,0.9,2.3,1.6l0.9,1.7l0.8,0.2l0.2,1L75.2,63.8z"/>
	<path d="M90.7,58.5l-4-1.2l-0.6,1h-0.8l-0.6-1.7c1-2.4,1.5-4.8,1.6-7.5c0.1-2.6,0.4-5.3,0.6-7.9l1-0.2c0.3,1.1,0.4,2.4,0.4,3.7
		s0,2.7,0,3.9h0.2c0.4-0.4,0.9-0.7,1.5-0.9c0.6-0.2,1.2-0.2,1.8-0.1l2.7,0.8c0.7,1,1.2,2.1,1.5,3.2c0.3,1.2,0.3,2.4,0.2,3.6
		C96,56,95.7,56.5,95.2,57c-0.5,0.5-1,0.9-1.6,1.2L90.7,58.5z M93.2,56.2c0.7-0.4,1.1-0.9,1.2-1.6c0.1-0.6,0.1-1.3,0-2
		c-0.2-0.4-0.3-0.9-0.4-1.3c-0.1-0.5-0.4-0.9-0.8-1.3l-2.5-0.4c-0.5,0.3-0.9,0.7-1.1,1.2c-0.2,0.5-0.5,1-0.9,1.5l-1,2.9
		c0.5,0.4,1.2,0.7,1.9,0.9c0.7,0.2,1.4,0.4,2.1,0.5L93.2,56.2z"/>
	<path d="M110.7,59.1c-0.9-0.2-1.7-0.4-2.4-0.6c-0.8-0.3-1.4-0.8-2-1.5c-0.4-0.4-0.6-0.9-0.6-1.6s0-1.3,0-2l3.1-5.6
		c0.4-0.4,0.9-0.7,1.5-0.7c0.6-0.1,1.2-0.1,1.9-0.1c1,1.2,1.8,2.6,2.5,4c0.7,1.5,0.9,3.1,0.6,4.9c-0.2,0.4-0.4,0.9-0.6,1.4
		c-0.3,0.5-0.6,0.9-1,1.2c-0.4,0.3-0.9,0.4-1.4,0.5C111.7,59,111.2,59.1,110.7,59.1z M112.3,57c0.7-0.4,1-1,1-1.9c0-0.8,0-1.6,0-2.3
		l-1.4-3.1h-0.9l-1.7,0.4c-0.5,0.8-1,1.7-1.4,2.5c-0.4,0.8-0.6,1.8-0.4,2.9c0.6,0.7,1.3,1.1,2.1,1.3c0.8,0.2,1.7,0.3,2.5,0.3
		L112.3,57z"/>
	<path d="M130.5,59.1c-0.9-0.2-1.7-0.4-2.4-0.6c-0.8-0.3-1.4-0.8-2-1.5c-0.4-0.4-0.6-0.9-0.6-1.6s0-1.3,0-2l3.1-5.6
		c0.4-0.4,0.9-0.7,1.5-0.7c0.6-0.1,1.2-0.1,1.9-0.1c1,1.2,1.8,2.6,2.5,4c0.7,1.5,0.9,3.1,0.6,4.9c-0.2,0.4-0.4,0.9-0.6,1.4
		c-0.3,0.5-0.6,0.9-1,1.2c-0.4,0.3-0.9,0.4-1.4,0.5C131.6,59,131,59.1,130.5,59.1z M132.2,57c0.7-0.4,1-1,1-1.9c0-0.8,0-1.6,0-2.3
		l-1.4-3.1h-0.9l-1.7,0.4c-0.5,0.8-1,1.7-1.4,2.5c-0.4,0.8-0.6,1.8-0.4,2.9c0.6,0.7,1.3,1.1,2.1,1.3c0.8,0.2,1.7,0.3,2.5,0.3
		L132.2,57z"/>
	<path d="M145.2,59.8l-0.4-1.7l0.6-3.1l-0.2-1c0.7-1.4,1-3,0.9-4.8c-0.1-1.8-0.1-3.5-0.1-5.2l-0.6-5.6l1.2-0.4
		c0.7,2.1,1.1,4.3,1.1,6.7c0.1,2.4,0.1,4.9,0.1,7.4l-0.2,0.8h1.2c1-0.4,1.9-0.9,2.9-1.6c1-0.6,1.9-1.1,2.9-1.6l0.4,1.2
		c-0.6,0.8-1.3,1.4-2.1,1.9c-0.8,0.4-1.7,0.8-2.5,1.2l-2.1,0.6v0.4c0.4,0.4,0.9,0.9,1.4,1.4s1,0.8,1.6,0.9l0.2,1L150,59l-2.9-2.1
		l-0.9,2.7L145.2,59.8z"/>
	<path d="M163.1,59.7c-0.4-0.4-0.6-0.9-0.6-1.4c0-0.5,0-1,0-1.6l0.6-6.9l1-0.2c0.3,0.3,0.4,0.6,0.4,1c0,0.4,0,0.8,0,1.3h0.4
		c0.5-0.7,1.2-1.3,1.9-1.7c0.7-0.4,1.5-0.6,2.3-0.4l1.4,1.7l0.7,1.4l1.2,0.2l2.9-0.4c0.5,0.4,0.8,0.9,0.8,1.5c0,0.6,0.1,1.1,0.2,1.6
		l1.2,0.4l0.2,1l-1.4,0.4l-1.3-0.6c-0.3-0.3-0.4-0.6-0.5-1c-0.1-0.4-0.2-0.8-0.3-1.2l-1-0.2l-1.9,2.3l-0.2,1.2l-1,0.2
		c-0.6-1-0.8-2.1-0.6-3.3c0.1-1.2-0.1-2.3-0.8-3.1l-0.8-0.2c-1.3,1.1-2.2,2.3-2.8,3.5c-0.6,1.3-0.9,2.6-0.9,4.2L163.1,59.7z"/>
	<path d="M194.4,59.3l-1.7-1l-0.6-1h-0.4c-0.9,0.5-1.8,0.9-2.9,0.9c-1.1,0.1-2.2,0.1-3.3,0.1l-1.5-0.9c-0.4-0.4-0.7-0.9-0.8-1.5
		c-0.1-0.6-0.1-1.2,0-1.9l1.4-3.3c1-1,2.1-1.9,3.2-2.7c1.2-0.8,2.5-1,4-0.6l1.4,1c0.6,0.8,0.8,1.8,0.7,2.8c-0.1,1-0.1,2-0.1,3
		l-0.4,2.1l0.8,1l1.9,0.2l0.2,1c-0.3,0.3-0.6,0.5-0.9,0.5C195.2,59.3,194.8,59.3,194.4,59.3z M190.2,56c1.1-0.7,1.7-1.6,1.8-2.7
		c0.1-1.1,0.1-2.2,0.1-3.3c-0.4-0.4-0.9-0.6-1.3-0.6s-1,0-1.6,0l-3.7,3.5l-0.4,2.9c0.3,0.4,0.7,0.6,1.3,0.6c0.6,0,1.1,0,1.6,0
		L190.2,56z"/>
	<path d="M205.3,58.6c-0.4-0.4-0.6-0.9-0.6-1.5s0-1.1,0-1.6c0.4-1,0.6-2.1,0.6-3.2c0-1.2,0-2.4,0-3.6l-0.6-2.5l0.6-0.8h0.8
		c0.4,0.5,0.7,1.2,0.8,2c0.1,0.8,0.2,1.6,0.3,2.4h0.6c0.3-0.3,0.7-0.4,1.2-0.4c0.5,0,0.9,0,1.4,0l3.3,1l0.2,1
		c-0.3,0.3-0.6,0.4-0.9,0.4s-0.7,0-0.9,0l-3.1-0.6c-1.1,1-1.7,2.1-1.9,3.4c-0.1,1.3-0.3,2.6-0.6,3.9L205.3,58.6z"/>
	<path d="M224.6,59.8l-0.4-1.7l0.6-3.1l-0.2-1c0.7-1.4,1-3,0.9-4.8c-0.1-1.8-0.1-3.5-0.1-5.2l-0.6-5.6L226,38
		c0.7,2.1,1.1,4.3,1.1,6.7c0.1,2.4,0.1,4.9,0.1,7.4l-0.2,0.8h1.2c1-0.4,1.9-0.9,2.9-1.6c1-0.6,1.9-1.1,2.9-1.6l0.4,1.2
		c-0.6,0.8-1.3,1.4-2.1,1.9c-0.8,0.4-1.7,0.8-2.5,1.2l-2.1,0.6v0.4c0.4,0.4,0.9,0.9,1.4,1.4c0.5,0.5,1,0.8,1.6,0.9l0.2,1l-1.6,0.4
		l-2.9-2.1l-0.9,2.7L224.6,59.8z"/>
	<path d="M248.4,59.3l-1.6-0.8l-0.7-1.7c0.2-0.6,0.4-1.1,0.6-1.7c0.3-0.5,0.7-1,1.3-1.5l1.4-0.4l1.5,1.2l0.2,2.5l-1,1.7L248.4,59.3z
		 M248,47.8c-0.7-1.1-1-2.4-0.9-3.7c0.1-1.4,0.1-2.7,0.1-3.9l0.9-1.9l1-0.2l0.4,1.3c-0.4,1.1-0.6,2.2-0.5,3.4
		c0.1,1.2,0.1,2.4,0.1,3.6l0.2,1L248,47.8z"/>
	<path d="M264.4,64.5L264,63c2.5-1.9,4.8-4.1,6.8-6.4s3.9-4.8,5.6-7.3c1.5-3.6,3.8-6.9,6.8-9.9c3-3,5.7-6.1,8.2-9.2l1-0.2l0.4,1.2
		c-4.9,4.7-9,9.8-12.6,15.4c-3.5,5.5-7.6,10.7-12.3,15.6c-0.6,0.4-1.1,0.9-1.7,1.5C265.7,64.2,265.1,64.5,264.4,64.5z"/>
</g>
<g>
	<path class="st15" d="M99.8,122.8l2.7,28.2l18.2-21.4l1.1,0.4l-19,22.4l-1.4-0.4l-2.9-29.4L99.8,122.8z"/>
	<polygon class="st15" points="94.7,121.1 82,117 80.6,116.6 83.6,146 85,146.5 96.2,133.3 	"/>
</g>
<title>top_main_pc</title>
</svg>
