<?xml version="1.0" encoding="utf-8"?>
<!-- Generator: Adobe Illustrator 23.0.3, SVG Export Plug-In . SVG Version: 6.00 Build 0)  -->
<svg version="1.1" id="レイヤー_1" xmlns="http://www.w3.org/2000/svg" xmlns:xlink="http://www.w3.org/1999/xlink" x="0px"
	 y="0px" viewBox="0 0 397.7 512" style="enable-background:new 0 0 397.7 512;" xml:space="preserve">
<style type="text/css">
	.st0{fill:#F88C8C;}
</style>
<title>icon_item</title>
<g>
	<g id="_2">
		<path class="st0" d="M280.4,147.3c23.4-7.7,42.8-20.2,56.6-35.3c6.7-7.2,12.2-15.5,16.3-24.5c3.9-8.5,6-17.8,6.1-27.2
			c0-6.2-1-12.4-3-18.3c-2.2-6.5-5.5-12.5-9.8-17.9c-6.1-7.7-13.9-13.9-22.9-18C314.8,2.1,305.2,0,295.4,0c-7.3,0-14.6,1.2-21.6,3.5
			c-11.2,3.7-21.4,10.2-29.5,18.8c-8.6,9-15.6,20.7-20.2,34.9c-6,18.4-23.9,60.2-24.4,61.2H198c-0.5-1-18.4-42.8-24.4-61.2
			c-2.8-8.9-6.9-17.3-12.1-25c-6.9-10.2-16.2-18.5-27.1-24.3c-9.9-5.2-20.9-7.9-32-7.9c-13-0.1-25.8,3.7-36.7,10.9
			c-5.5,3.6-10.3,8.1-14.4,13.2c-4.2,5.4-7.6,11.4-9.8,17.9c-2,5.9-3,12.1-3,18.3c0,6.2,1,12.4,2.8,18.3
			c3.4,10.8,8.9,20.8,16.2,29.5c11.3,13.6,26.9,25.3,45.8,33.7c20.8,9,43.2,13.6,65.9,13.5c14,0,29.2,0.1,29.8,0
			c0.5,0.1,15.8,0,29.8,0C246.2,155.4,263.7,152.7,280.4,147.3z M259.9,48.5c4.3-6.3,10-11.5,16.8-15.1c5.8-3,12.2-4.6,18.8-4.6
			c7.4,0,14.7,2.1,20.9,6.1c2.9,1.9,5.5,4.3,7.7,7.1c2.2,2.9,4,6.1,5.2,9.5c1,2.9,1.5,5.9,1.5,8.9c0,3.4-0.6,6.8-1.6,10.1
			c-2.3,7.1-6,13.7-10.9,19.4c-8.1,9.8-20.1,19.1-35.4,25.8c-17.1,7.4-35.6,11.2-54.3,11c-1.1,0-2.2,0-3.2-0.1
			C232.9,114,242,94.8,251.4,66C253.4,59.8,256.2,53.9,259.9,48.5z M70.6,75.8C68.3,71,67.1,65.7,67,60.3c0-3,0.5-6.1,1.5-8.9l0,0
			c1.2-3.4,2.9-6.7,5.2-9.5c3.3-4.2,7.5-7.5,12.4-9.7c5.1-2.3,10.6-3.5,16.2-3.5c4.3,0,8.5,0.7,12.6,2c6.8,2.3,12.9,6.2,17.7,11.4
			c5.4,5.7,10.3,13.5,13.7,24c9.4,28.8,18.5,48,26,60.6c-1.1,0-2.1,0-3.2,0c-14.5,0.1-29-2.1-42.9-6.6c-19-6.2-34.2-16.3-44.3-27.4
			C77.2,87.6,73.4,82,70.6,75.8z"/>
		<polygon class="st0" points="214.7,178 214.7,273.4 397.7,273.4 397.7,272 397.7,240.6 397.7,178 		"/>
		<polygon class="st0" points="0,240.6 0,272 0,273.4 182.9,273.4 182.9,178 0,178 		"/>
		<path class="st0" d="M214.7,512h121.9c24.9,0,45.1-20.2,45.1-45.1c0,0,0,0,0,0V305.2h-167L214.7,512z"/>
		<path class="st0" d="M15.9,466.9c0,24.9,20.2,45.1,45.1,45.1c0,0,0,0,0,0h121.9V305.2h-167L15.9,466.9z"/>
	</g>
</g>
</svg>
