<svg id="レイヤー_1" xmlns="http://www.w3.org/2000/svg" viewBox="0 0 232.4 231.2"><style>.st0{fill:#ec9d1b}.st1{fill:#f3ed64}.st2{fill:#1d3033;stroke:#1d3033;stroke-width:.66;stroke-linecap:round;stroke-linejoin:round}.st3{fill:#957884}.st4{fill:#8c4289}.st5{fill:#ebd494}.st6{fill:#9068a2}.st8{fill:#f7e5d7}.st10{fill:#fff}.st11{fill:none}</style><g id="レイヤー_1-2"><g id="レイヤー_3"><path class="st0" d="M232.2 190.8c.3.3.2.7-.1 1-.1.1-.2.1-.2.1-2.8 1-5.4 1.9-5.6 5.4-.1 1.3-.2 2.5-.4 3.8-.1.4-.6.7-1 .6-.1 0-.1 0-.2-.1-1.2-.7-2-1.8-2.5-3.1-2-4.1-6.1-2.1-8.9-.7-.4.2-.8.1-1-.3-.1-.1-.1-.2-.1-.4.2-2.7 2.8-6.4 1.2-8.9-1-1.5-1.9-3.1-2.5-4.8-.1-.4.1-.7.4-.8h.1c2.6-.4 4.2.2 6.5 1.6.1 0 .1.1.1.1-.2.3-.3.6-.4.9l-.1-.3c-1.7-1.2-3.8-2.4-5.9-1.7.5 2.6 3.1 4.5 3.3 7 .2 2.1-1.6 4-1.9 6-.1.1-.3.1-.4.2.1.1.2.1.4.2v.4c.1 0 .2-.1.4-.2.1.1.2.1.4.2 0-.1 0-.3.1-.4 1.9-1 4.6-2.3 6.7-1.5 2.3.9 2.4 3.8 4 5.2v.2l.2-.1c.2.1.3.2.5.3.1-.2.1-.4.1-.6.1-.1.2-.1.3-.1l-.2-.2c.2-1.9.2-4.7 1-6 1.1-1.6 2.8-1.9 4.7-2.5.1.1.2.1.2.2 0-.1 0-.2.1-.3.1 0 .3-.1.4-.2l-.3-.3c0-.1.1-.3.1-.4l-.4.2c-1.9-1.5-5.4-3-6.2-4.9-.6-1.4 0-5.2.2-7.4l.4-.3-.4-.2v-.4l-.3.2-.4-.2v.5c-2.5 1.9-5.7 5.4-6.6 8l-.1-.4c.4-.2.6-.7.4-1.1 0-.1-.1-.1-.1-.2 1.7-2.9 4-5.4 6.9-7.2.3-.2.7-.1.9.2.1.1.1.2.1.3-.1 2.5-1.6 7.4.8 9.3 1.5 1.5 3.5 2.6 5.3 4.1z"/><path class="st0" d="M231.7 191.2c-.1.1-.3.1-.4.2.1-.1.1-.3.1-.4.1.1.2.2.3.2z"/><path class="st0" d="M231.5 190.6c0 .1-.1.3-.1.4-.1-.1-.2-.1-.3-.2l.4-.2z"/><path class="st0" d="M231.4 191c0 .1-.1.3-.1.4-.1.1-.2.1-.3.1-.2-.1-.5-.3-.7-.5l.9-.3c0 .1.1.2.2.3z"/><path class="st0" d="M231.3 191.4c0 .1 0 .2-.1.3-.1-.1-.2-.1-.2-.2.1 0 .2 0 .3-.1zM231.1 190.7l-.9.3c-2.1-1.3-5.4-2.8-6-5s-.1-4.7.1-7l.7-.5c-.1 2.2-.8 6-.2 7.4.9 1.8 4.4 3.3 6.3 4.8zM230.2 191c.3.1.5.3.7.5-1.9.7-3.6.9-4.7 2.5-.8 1.2-.8 4-1 6-.3-.2-.6-.5-.8-.8.1-1.9.2-4.4 1.3-5.6 1.3-1.2 2.9-2.1 4.5-2.6z"/><path class="st1" d="M224.2 186c.6 2.3 3.9 3.7 6 5-1.7.4-3.2 1.3-4.4 2.5-1.1 1.2-1.2 3.7-1.3 5.6-1.2-1.7-1.7-4.2-3.9-4.7-2.4-.5-4.5.2-6.6 1.2.6-1.8 1.8-3.9 1.4-5.6-.2-.9-.5-1.8-.9-2.6-.5-.7-.9-1.5-1.4-2.3 1.1-1 2.8-.9 3.8.2 0 0 0 .1.1.1.1.1.2.1.3.1 0 .1 0 .1-.1.2-.3.7.9 1.2 1.2.5 1.4-2.9 3.4-5.4 5.9-7.4-.2 2.6-.7 4.9-.1 7.2z"/><path class="st0" d="M225.5 200.2c-.1 0-.2.1-.3.1-.1.1 0-.2 0-.3l.3.2zM225.4 178.2l-.4.3v-.5l.4.2z"/><path class="st0" d="M225.3 200v.3c-.2.1-.4.2-.6.2-.1 0-.2-.1-.2-.1 0-.4.1-.8.1-1.2.1.3.4.6.7.8z"/><path class="st0" d="M225.2 200.3c0 .2-.1.4-.1.6-.2-.1-.4-.2-.5-.3l.6-.3zM225.1 177.6v.4l-.3-.1.3-.3z"/><path class="st0" d="M225.1 178v.5l-.7.5c.1-.3.1-.6.1-.9.1-.1.3-.2.4-.3l.2.2z"/><path class="st0" d="M224.5 177.6l.4.2c-.1.1-.3.2-.4.3-.1-.2 0-.3 0-.5zM224.6 200.6l-.2.1v-.2s.1.1.2.1zM224.5 199.2c0 .4-.1.8-.1 1.2-1.6-1.4-1.7-4.4-4-5.2-2-.8-4.8.5-6.7 1.5 0-.3.1-.7.3-1 2.1-1 4.2-1.7 6.6-1.2s2.7 3 3.9 4.7zM224.4 178.1c0 .3 0 .6-.1.9-2.5 2-4.5 4.5-5.9 7.4-.3.7-1.5.2-1.2-.5 0-.1 0-.1.1-.2.1.1.3.1.4 0l.1.4c.9-2.6 4-6.1 6.6-8z"/><path class="st2" d="M224.3 162.7c1.9 2.3-3.6 3.7-4.9 3.9-2.1.2-4.3.3-6.4.1h-1.5c.1-.3.1-.6.2-1 3.5.2 11.7.7 12.2-2.4.2 0 .4-.1.4-.3v-.1-.2z"/><path class="st2" d="M223.9 162.9c-.1-.2-.1-.3-.1-.5.1-.1.3 0 .3.1.1 0 .1.1.1.2v.1c.1.2-.1.4-.3.5h-.1c.1-.1.1-.2.1-.4zM224.3 162.7c-.1-.1-.1-.1-.1-.2-.1-.1-.2-.1-.3-.1-.1-.6-.3-1.3-.5-1.9.2 0 .3-.2.2-.4l-.8-3.6c.6 2 1.1 4.1 1.5 6.2z"/><path class="st2" d="M223.9 162.9c0 .1 0 .3-.1.4-.2 0-.3-.1-.4-.3 0-.1 0-.2-.1-.2-.1-.1.2-.2.2-.3l.1-.1c.2.2.2.4.3.5z"/><path class="st2" d="M223.2 160.5c.2.6.4 1.3.5 1.9l-.1.1c-.1.1-.2.2-.2.3-3.6-9.2-8.9-17.6-15.7-24.7-.2-.4-.4-.9-.6-1.3-.1-.2-.4-.2-.5-.1-.1 0-.1.1-.1.1-1.4-1.4-2.8-2.6-4.3-3.9-6-5-15.9-14-24.1-14.2.5-.2 1-.3 1.5-.4 5.2.7 13.6 7 17 9.2 9.9 6.8 19.3 16.3 24.6 27.4.5 1.8 1.1 3.6 1.7 5.4-.2.2.1.3.3.2zM223.5 163c.1.2.2.3.4.3-.6 3.1-8.7 2.6-12.2 2.4 0-.4.1-.7.1-1.1 1.7-.1 3.9.3 4.9.2 1.6.1 3.3-.1 4.9-.5.8-.3 1.5-.8 1.9-1.5v.2zM223.5 160.1c.1.2 0 .4-.2.4-.1-.3-.2-.7-.3-1-.6-2.2-1.2-4.5-1.8-6.7.6 1.1 1.1 2.3 1.5 3.5v.1c.2 1.3.5 2.5.8 3.7z"/><path class="st2" d="M222.9 159.6c.1.3.2.7.3 1-.2.1-.4 0-.5-.2v-.1c-.6-1.8-1.2-3.6-1.7-5.4.7 1.6 1.4 3.1 1.9 4.7z"/><path class="st2" d="M222.9 159.6c-.5-1.6-1.2-3.1-1.9-4.6-.4-1.5-.9-3.1-1.3-4.6.5.8 1 1.7 1.4 2.6.6 2.1 1.2 4.4 1.8 6.6z"/><path class="st3" d="M223.4 162.8c-.5.7-1.1 1.2-1.9 1.5-1.6.4-3.2.6-4.9.5-1.6-.2-3.2-.3-4.9-.2.1-1.4.1-2.7.1-4.1-.3-8.1-.7-14.9-4.1-22.4 6.8 7.2 12.2 15.5 15.7 24.7z"/><path class="st2" d="M222.6 156.4c-.4-1.2-.9-2.4-1.5-3.5-1.6-5.9-3.3-11.8-6.2-17.2-.9-1.6-2.2-3.1-2.7-4.9-.5-1.9-.5-4.3-.8-6.4-.8-5.2-1.6-10.5-2.2-15.8-.4-4.1-2-8.4-2.3-12.5h.2c.1 0 .2-.1.2-.2.7 5 2.1 9.9 2.8 15 .5 3.7 1 7.4 1.6 11.1.4 2.5.2 6.5 1.1 8.6 2.2 5.1 5.1 9.5 6.8 14.9 1.2 3.6 2.1 7.2 3 10.9z"/><path class="st2" d="M214.9 135.6c2.9 5.4 4.6 11.3 6.2 17.2-.4-.9-.9-1.7-1.4-2.6-.6-2.2-1.3-4.4-2.1-6.6-1.8-5-5.5-9.6-6.4-14.9s-1.4-10.5-2-15.7c-.7-5.7-2.3-11.3-2.6-17.1h.4c.2 4.1 1.8 8.4 2.3 12.5.6 5.3 1.4 10.5 2.2 15.8.3 2 .2 4.4.8 6.4s1.7 3.4 2.6 5zM219.7 150.3c.4 1.5.9 3.1 1.3 4.6-5.3-11.2-14.7-20.6-24.6-27.4-3.4-2.3-11.8-8.5-17-9.2l1.2-.4c3.4.6 6.7 2.6 9.4 4.3 4.7 2.8 9.1 5.9 13.3 9.3 6.2 5.3 12.3 11.6 16.4 18.8zM218.6 219.8c0-.1-.1-.2-.2-.3.1-.1.2-.1.3-.2.3-.3.7.1.4.4-.1.1-.3.3-.4.5.1-.1 0-.2-.1-.4z"/><path class="st2" d="M218.6 219.8c.1.1.1.3.1.4l-.5.5h-.5c.4-.2.7-.5.9-.9zM218.2 220.8l.5-.5c-.1.2-.2.4-.5.5z"/><path class="st2" d="M217.8 220.1c.2-.2.4-.3.6-.5.1.1.2.1.2.3-.3.3-.5.7-.9.9-.2-.1-.4-.1-.6-.1.3-.2.5-.4.7-.6z"/><path class="st2" d="M218.4 219.6c-.2.2-.4.4-.6.5-1.7-.5-3.5-1.4-5.2-2.1-2.2-.9-6.5-.9-8.2-2.5-1.4-1.3-1.7-5-2.3-6.8-1.7-5.3-3.5-10.4-4.8-15.8-1-4.6-2.4-9.1-4.3-13.4.1 0 .2 0 .4-.1 4.2 8.3 5.9 18 8.9 26.8 1.6 5 1.9 8.9 7.9 10.2 3 .6 5.5 2 8.2 3.2z"/><path class="st4" d="M217.6 143.7c.8 2.2 1.5 4.4 2.1 6.6-4.1-7.3-10.2-13.6-16.4-18.8-4.2-3.4-8.7-6.5-13.3-9.3-2.7-1.7-6-3.8-9.4-4.3 2.7-.8 5.2-2.2 7.3-4 5.3-4.6 8.2-12.4 5.4-18.6 2.2.1 4.4 0 6.6.1s4.4.6 6.6.6c.4 5.7 1.9 11.4 2.6 17.1.6 5.2 1.1 10.6 2 15.7.9 5.2 4.7 9.9 6.5 14.9z"/><path class="st2" d="M217.8 220.8h.4c-6.5 7-19.9 9.7-30.7 8 .1-.1.1-.4-.1-.5-.1 0-.1-.1-.2-.1-.9 0-1.8-.1-2.7-.1-2.6-.6-5.1-1.6-7.3-3-6.9-4.2-11.7-11.2-13.1-19.2-.6-4-.9-8-.9-12 0-2.7.1-5.3.2-8 0-.6-.1-1.9-.2-3.1l.6-.9c.2 12.3-1.9 25.9 6.5 36.3 8.2 10.2 20 10.9 32 8.8 4.6-.8 11.6-2.8 15.3-6.3l.2.1z"/><path class="st0" d="M217.9 184.3c.3.3.3.9 0 1.2-.1.1-.1.1-.2.1l-.2-.4c.1-.3.2-.6.4-.9z"/><path class="st2" d="M217.2 220.6c.2.1.4.1.6.1-3.7 3.5-10.7 5.5-15.3 6.3-12 2.1-23.8 1.4-32-8.8-8.4-10.4-6.3-24-6.5-36.3l.3-.6c1.3 14.9-2.5 33.9 13.7 42.4 10.5 5.6 29.3 4.9 39.2-3.1z"/><path class="st0" d="M217.7 185.7c-.1.1-.3.1-.4 0 .1-.2.1-.3.2-.5l.2.5z"/><path class="st2" d="M217.8 220.1c-.2.2-.4.4-.7.5-4-1-8-2.1-11.9-3.5-2.2-.8-2.9-3.3-3.4-5.4-1.1-5.6-3.3-10.8-4.7-16.4-1.2-5.3-2.7-10.6-4.5-15.8.1 0 .3-.1.4-.1 1.8 4.3 3.3 8.8 4.3 13.4 1.3 5.3 3.1 10.5 4.8 15.8.6 1.8.9 5.6 2.3 6.8 1.7 1.6 6 1.6 8.2 2.5 1.8.8 3.5 1.7 5.2 2.2z"/><path class="st0" d="M217.5 185.2c-.1.1-.2.3-.2.5-.1 0-.2 0-.3-.1-1.1-1.2-2.4-1.3-3.9-.3.5.8 1 1.5 1.4 2.3.5.8.8 1.7.9 2.6.4 1.7-.8 3.8-1.4 5.6l-1.1.5c.3-2 2.1-3.9 1.9-6-.2-2.6-2.8-4.5-3.3-7 2.1-.7 4.2.5 5.9 1.7l.1.2z"/><path class="st0" d="M214 195.7c-.1.3-.2.7-.3 1l-.4.2c-.2-.1-.3-.2-.4-.2v-.4l1.1-.6z"/><path class="st0" d="M213.7 196.7c0 .1-.1.3-.1.4-.1-.1-.2-.1-.4-.2l.5-.2z"/><path class="st0" d="M213.3 196.9c-.2.1-.3.1-.4.2v-.4l.4.2zM212.9 196.3v.4c-.1-.1-.2-.2-.4-.2.2-.1.3-.2.4-.2z"/><path class="st2" d="M211.8 160.5c.1 1.4.1 2.8 0 4.1h-.5c0-.7 0-1.3-.1-2-.4-3.8.6-7.6-.2-11.3-1-4.8-2.4-9.5-4.2-14l.8.8c3.5 7.4 3.9 14.3 4.2 22.4zM211.8 164.6c0 .4-.1.7-.1 1.1h-.4v-1c.1 0 .3-.1.5-.1zM211.6 165.7c0 .3-.1.7-.2 1h-.4c.1-.3.1-.6.2-.9l.4-.1z"/><path class="st2" d="M211.2 165.7c-.1.3-.1.6-.2.9-.4 0-.8-.3-1.1-.6 0-.1-.1-.1-.1-.2.1-.2.1-.3.1-.5v-.1c.3-.3.8-.5 1.2-.6.2.4.2.8.1 1.1z"/><path class="st2" d="M211.2 162.7c.1.7.1 1.3.1 2-.5 0-.9.2-1.2.6.8-3.8 1-7.7.4-11.6-.7-5.7-2.5-11.2-4.1-16.7v-.2c.1.2.3.3.5.5 1.8 4.6 3.2 9.3 4.1 14.1.7 3.8-.2 7.6.2 11.3zM211.1 166.6h.4c-.7 3-2.6 5.5-5.2 7-4 2.5-8.3 4.5-12.8 5.7-.1-.2-.2-.4-.2-.5-.2-.3-.8-.1-.6.3l.1.4c-6 1.5-12.1 1.5-16.3-2h.7c5.1 3.6 13.8 1.5 19.1-.1 4.9-1.5 10.3-3.9 13.4-8.1.6-.8 1.1-1.7 1.4-2.7z"/><path class="st5" d="M210.5 153.7c.5 3.8.4 7.8-.4 11.6v.1c0 .1 0 0-.1.1s-.1.3-.1.4c-.5 2.1-1.6 4.1-3.1 5.6-6.2 6-19.9 9.5-28.4 6.1 8-.9 13.8-11.2 14.6-18.6 6.8-3.6 10.3-11.3 8.6-18.8-.1-.5-.9-.3-.8.2 1.8 9.3-4.8 15.7-12.8 18.8-.1 0-.2.1-.3.1-.8-2.8.1-6.9-.4-9.8-.8-5.1-2.1-10.1-3.9-15-.1-.4-.8-.2-.6.2 1.4 4.3 2.4 8.7 3.1 13.2h-.2c0-.3-.2-.6-.5-.6-10.8.4-18.6-7.6-18.9-18.3 0-.2-.2-.4-.4-.4s-.4.2-.4.4c0 2.7.5 5.4 1.5 8-.5 1.8-.9 3.6-1.4 5.4-.2.7-.3 1.3-.3 2-4.8-6-7.3-13.9-3.2-21.2 3.7-.2 7.3-1.7 11-3.1 1.6-.6 3.2-1.1 4.7-1.5 8.2.2 18.1 9.2 24.1 14.2 1.5 1.2 3 2.5 4.3 3.9v.2c1.8 5.6 3.6 11.1 4.3 16.8z"/><path class="st2" d="M210 166c.2.4.7.6 1.1.6-.3 1-.8 2-1.4 2.8-3.1 4.2-8.5 6.6-13.4 8.1-5.3 1.7-14 3.7-19.1.1.4 0 .9 0 1.3-.1 8.4 3.4 22.1-.2 28.4-6.1 1.5-1.5 2.6-3.5 3.1-5.6-.1.1 0 .1 0 .2zM210 165.4c0 .1 0 .3-.1.4 0-.1 0-.3.1-.4zM206.8 137.3c-.1-.2-.3-.3-.5-.5.1-.2.3-.3.5-.2.1 0 .1.1.1.1.2.4.4.9.6 1.3-.1-.2-.4-.5-.7-.7zM207.3 95.7v.2c.1-.1 0-.1 0-.2z"/><path class="st2" d="M206.6 95.7c0-.1.2-.2.3-.3l.4.2h.1v.2c0 .1-.1.2-.2.2H206.6v-.2c-.1-.1-.1-.1 0-.1z"/><path class="st2" d="M207.3 95.6l-.4-.2c.2 0 .3.1.4.2z"/><path class="st6" d="M205.3 217.1c3.9 1.4 7.9 2.5 11.9 3.5-9.9 7.9-28.7 8.6-39.2 3.2-16.2-8.4-12.4-27.4-13.7-42.4 1.3-2.3 1.6-5.1.7-7.6 4.9 1.2 12 2.4 17 .7-1.6 1.1-3.5 1.8-5.4 2.2l-.1-.1c-.2-.1-.5 0-.6.2h-.1c-.2.1-.2.3-.2.5 0 .1.1.2.2.2l.7.1c4.2 3.5 10.3 3.5 16.3 2 1.8 5.2 3.3 10.4 4.5 15.8 1.4 5.5 3.6 10.8 4.7 16.4.3 2 1 4.5 3.3 5.3z"/><path class="st2" d="M206.8 95.4c-.2 0-.3.1-.3.3-4.3-1.2-9-.9-13.5-.9l-.3-.6c4.3-.4 10.3-1 14.1 1.2z"/><path class="st2" d="M206.6 95.6s-.1.1-.1.2v.2c-2.2-.1-4.4-.6-6.6-.6s-4.4 0-6.6-.1l-.3-.6c4.5 0 9.3-.3 13.6.9zM192.4 158.3c-.1 0-.1.1-.2.2l-.4 1.1c-1.1.5-2.3.8-3.4.9-.2 0-.4 0-.5-.1.1-.1.1-.3.1-.4-.1-.2-.1-.4-.1-.5.1-.1.2-.1.3-.1 8-3.1 14.5-9.5 12.8-18.8-.1-.5.7-.7.8-.2 1.7 7.5-1.9 15.2-8.6 18.8v-.4c0-.2-.1-.4-.3-.4h-.1c-.3-.2-.4-.2-.4-.1 0 0 0-.1 0 0zM193.1 179.5c-.1 0-.2.1-.4.1l-.1-.4c-.2-.4.5-.6.6-.3.1.2.2.4.2.5 0 .1-.2.1-.3.1z"/><path class="st2" d="M193.3 95.3c2.8 6.2-.1 14-5.4 18.6-2.1 1.8-4.6 3.2-7.3 4-.6-.1-1.1-.2-1.7-.2 9.7-2 17.7-14.2 13.6-22.4h.8z"/><path class="st2" d="M193 94.8l.3.6h-.8c-.1-.3-.3-.6-.5-.9.1-.1.2-.2.4-.2h.3c.1.1.2.3.3.5zM192.5 159.2c-.2.1-.4.2-.7.3l.4-1c0-.1.1-.1.2-.2 0 0 .1 0 .1-.1s.1-.1.1-.1c.2 0 .4.1.4.3v.5c-.1.1-.3.2-.5.3z"/><path class="st2" d="M192.6 95.3c4 8.3-3.9 20.5-13.6 22.4h-.1c-.4 0-.7 0-1.1.1-.1 0-.3.1-.4.2-5.2 1.1-9.9 4.2-15 4.6-.1-.3-.4-.6-.7-.5-.2 0-.3.1-.4.3l-.1.3c-2 0-4-.6-5.7-1.6-.1-.3-.4-.4-.7-.4.1-.3.4-.4.7-.3 8.1 2.9 16-1.4 23.9-3.7 5.7-1.7 10.9-6.3 12.6-12.1 2.1-7-1.8-16-10.5-15.4-5.1.4-9.8 3.1-12.6 7.3-.1-.2-.3-.3-.5-.3 3.5-5.3 10.5-9.3 16.6-7.2 2.9.9 5.5 2.8 7.2 5.3-.2.2-.2.6.1.8-.1.2 0 .2.3.2z"/><path class="st2" d="M192.7 94.2h-.3c-.1 0-.3.1-.4.2-1.7-2.5-4.2-4.4-7.2-5.3-6-2.1-13 1.9-16.6 7.2h-.1c-.2 0-.4.1-.6.2 4.8-7.6 15.5-12.2 23-5.1.9.8 1.6 1.8 2.2 2.8zM192.5 159.2c.2-.1.4-.2.5-.3-.9 7.4-6.6 17.7-14.6 18.6-.3-.1-.7-.3-1-.4 8.1-.8 13.4-10.8 15.1-17.9zM192.6 95.3h-.1c-.3 0-.5-.3-.5-.6 0-.1 0-.2.1-.3.1.3.3.6.5.9zM192.5 158.2l-.1.1s0-.1.1-.1z"/><path class="st2" d="M191.8 159.5l.6-.3c-1.6 7.1-7 17.1-15.1 17.9-.3-.1-.5-.3-.8-.4 1.9-.4 3.7-1.1 5.4-2.2.7-.2 1.4-.5 2.1-.9.2-.1.3-.4.1-.6 0-.1-.1-.1-.1-.1 3.8-3.5 6.1-8.5 7.8-13.4z"/><path d="M181.5 89.2c8.7-.6 12.6 8.5 10.5 15.4-1.7 5.8-7 10.4-12.6 12.1-7.8 2.3-15.7 6.6-23.9 3.7-.3-.1-.6 0-.7.3h-.2c-12.2 5.7-24.3 14.6-34.8 22.9-5.6 4.6-10.9 9.6-15.8 15-2.6 2.8-5.3 5.4-7.7 8.2-1.5 1.7-2.5 4.6-4.8 5.5 5.9-10.4 16.1-19.8 24.7-28 11.4-10.8 23.9-19.1 37-27.6.2-.1.3-.3.2-.5.2.1.4.1.5-.1 1.2-2.7 3-5 5.4-6.8 2.1-1.3 4.3-2.5 6.5-3.4 2.5 6 11.9 9.3 13.2 2.2.1-.2 0-.4-.3-.5-.2-.1-.4 0-.5.2-1.8 2.7-3.9 3.5-6.5 2.6-5.5-1.2-5.6-8-3.8-12.1.1-.3.2-.5.3-.7.1 0 .2-.1.4-.1.3-.1.4-.4.3-.7 0-.1-.1-.1-.1-.1 2.9-4.4 7.6-7.1 12.7-7.5z" fill="#9e7642"/><path class="st8" d="M188.4 160.4c1.2-.2 2.3-.5 3.4-.9-1.8 4.9-4 10-7.7 13.4-.1-.1-.3-.1-.4-.1-3.4.7-6.8.9-10.3.9-3-.2-5.9-.8-8.9-.8-.5-.9-1.3-1.7-2.2-2.2-2.4-1.4-5.4-1.2-7.7.4-2.2-2.7-4.6-5.2-7.2-7.5-2.5-2.3-4.7-5-7.3-7.2 3.8-11.4 10.3-22.1 19.4-29.9-2 6.9 0 15.6 6.1 19.4.1.3.2.5.4.7.1.1.2.2.4.1l.1-.1v-.2c.1.1.2 0 .2 0v-.2c-.1 0-.1-.1-.1-.1.3-1.4.3-3 .6-4.4.2-1 .5-1.9.6-2.9 3.2 6.5 9.7 11 17.7 9.7.3 0 .4-.3.4-.5h.2c.2 1.1.3 2.3.5 3.5.3 2.8-.6 6.4.5 9 .2.4.8.3 1 0-.1 0 .1 0 .3-.1zm-10 3c3.7 2.8 6.2-8.7 4.1-11.2-1.8-2.1-4.3.9-4.8 2.4-1.1 2.8-.9 6 .5 8.7 0 .1.1.1.2.1zm-22.6-17.2c.7-1.8.2-5.7-2.6-4.2-3.4 1.8-5 6.9-4.5 10.6 0 .3.3.5.6.5 0 .4.3.7.7.9.8.3 1.5-.4 2-.9 1.7-2.2 2.9-4.5 3.8-6.9z"/><path class="st2" d="M188 159.8c0 .1 0 .3-.1.4-.3-.2-.4-.5-.2-.8 0-.1.1-.1.2-.2 0 .3 0 .5.1.6z"/><path class="st2" d="M187.8 159.3c-.3.2-.3.6-.1.8 0 .1.1.1.2.2-.2.3-.5.4-.8.2-.1-.1-.2-.1-.2-.2-1.1-2.6-.2-6.2-.5-9-.1-1.2-.3-2.3-.5-3.5-.7-4.4-1.7-8.8-3.1-13.1-.1-.4.5-.6.6-.2 1.8 4.9 3.1 9.9 3.9 15 .6 2.9-.3 7 .5 9.8zM186.6 228.6c-.7-.1-1.4-.2-2.1-.4.9 0 1.8 0 2.7.1.2 0 .3.2.4.3 0 .1 0 .1-.1.2-.3 0-.6-.1-.9-.2z"/><path class="st2" d="M187.6 228.8c-.1.1-.2.1-.3.2-13.8.9-27.7 3-41.5 1.1-6.8-.9-22-1-26-8-1-1.7.1-3.8 1.7-4.7.6-.3 2.8-1.2 4.1-1.9.4.2.9.3 1.4.4h.2c-.7.9-2.8 1-3.8 1.5-2.6 1.2-4.5 3.5-1.5 5.6 4.4 3.2 9 3.8 14.3 4.8 8.1 1.4 16 2.5 24.3 2.2 8.7-.3 17.5-1.2 26.2-1.3.2 0 .5.1.9.1zM167.4 136.6c-.1 0-.2.1-.3.2v.2c-1-2.6-1.5-5.3-1.5-8 0-.2.2-.4.4-.4s.4.2.4.4c.3 10.7 8.1 18.7 18.9 18.3.3 0 .5.2.5.5s-.1.5-.4.5c-8 1.3-14.5-3.2-17.7-9.7.1-.3.1-.6.1-.9v-.8c0-.2-.2-.4-.4-.4v.1z"/><path class="st2" d="M184.5 228.2c.7.2 1.4.3 2.1.4-8.8.1-17.5.9-26.2 1.3-8.3.3-16.2-.8-24.3-2.2-5.3-.9-9.9-1.6-14.3-4.8-3-2.1-1-4.4 1.5-5.6 1-.5 3.1-.6 3.8-1.5.1-.1.2-.2.2-.4.5-1.3.3-4.1.5-5.3 1.6-8 5.8-14.7 9.4-21.9 1.1-2.2 2.8-4.6 3.6-7l.4.2c-3 9.3-9.9 17.1-12.1 26.8-.5 2.4 0 5.9-1.3 8.1-.7 1.1-10.2 3.7-3.9 6.9 9 4.6 21.6 5.7 31.5 5.8 9.7.1 19.4-1 29.1-.8z"/><path class="st4" d="M184.5 228.2c-9.7-.2-19.4.9-29.1.8-9.9-.1-22.5-1.2-31.5-5.8-6.2-3.2 3.2-5.8 3.9-6.9 1.3-2.2.8-5.7 1.3-8.1 2.2-9.7 9.1-17.5 12.1-26.8 3.1 1.9 7.1 2.7 9.8.8.1 0 .1-.1.1-.2h.1c1.1 2.4 3.3 4.1 6.2 3.4 2.3.5 4.6-.5 5.9-2.4 0 1.2.2 2.5.2 3.1-.1 2.6-.2 5.3-.2 8-.1 4 .2 8 .9 12 1.4 8 6.1 15 13.1 19.2 2.2 1.4 4.6 2.3 7.2 2.9z"/><path class="st2" d="M183.7 173.3c.2-.1.3-.3.5-.4.2.1.3.4.1.6 0 .1-.1.1-.1.1-.6.4-1.3.7-2.1.9.5-.3 1.1-.7 1.6-1.2z"/><path class="st2" d="M184.1 172.9c-.1.2-.3.3-.5.4-5.5 2.1-13.2.7-18.9 0-.1-.2-.1-.3-.2-.4 3 0 6 .6 8.9.8 3.4.1 6.9-.2 10.3-.9.2-.1.3 0 .4.1z"/><path class="st2" d="M183.7 173.3c-.5.5-1.1.9-1.6 1.3-5 1.7-12.1.5-17-.7-.1-.2-.2-.4-.3-.5 5.7.6 13.4 2 18.9-.1zM181.7 152.4c2.8.7.3 12.2-2.9 10.5l-.2.2c-.1-.2-.1-.4-.2-.6.1-.1.3-.2.5-.2 3 .6 4.6-9 2.6-9.4-3.5-.6-3.8 6.6-3.2 9.6-.1.1-.1.2-.1.3-1-2.9-.8-11.4 3.5-10.4z"/><path class="st2" d="M178.7 162.9c3.3 1.7 5.7-9.8 2.9-10.5-4.2-1-4.5 7.6-3.5 10.4 0 .2 0 .5.2.6 0 0-.1 0-.1-.1-1.3-2.7-1.5-5.8-.5-8.7.6-1.5 3-4.5 4.8-2.4 2 2.5-.4 13.9-4.1 11.2.1 0 .1-.1.1-.2v-.1l.2-.2z"/><path class="st2" d="M181.5 152.9c2 .4.4 9.9-2.6 9.4-.2 0-.4 0-.5.2-.7-3-.4-10.2 3.1-9.6zM179.4 118.3c-.5.2-1 .3-1.5.4h-.1c-.2 0-.4-.2-.4-.4 0-.1 0-.2.1-.3.3-.1.7-.1 1-.2.1 0 .3-.1.4-.1h.1c.6 0 1.1.1 1.7.2l-1.3.4zM166.3 105.7c.5-.2.2-.9-.2-1-.3-1.8-.1-3.7.5-5.4.2-.5.4-1 .7-1.5.3-.1.7-.2 1-.4-.1.2-.2.5-.3.7-1.8 4.1-1.7 10.9 3.8 12.1 2.6.9 4.8.1 6.5-2.6.1-.2.4-.2.6-.1.2.1.2.3.2.5-1.3 7.2-10.7 3.9-13.2-2.2.1.1.3 0 .4-.1z"/><path class="st2" d="M178.8 117.7c-.1 0-.3.1-.4.1-.3 0-.7.1-1 .2.1-.1.2-.2.4-.2.3 0 .7-.1 1-.1zM178.5 163.2c0 .1 0 .1-.1.2-.2-.2-.3-.4-.2-.6.1.2.1.3.2.5l.1-.1z"/><path class="st2" d="M178.5 163.1l-.1.1c-.1-.1-.2-.3-.2-.5 0-.1.1-.2.1-.3.1.3.1.5.2.7zM178.4 177.6c-.4.1-.9.1-1.3.1-.2-.1-.4-.3-.6-.4.3 0 .6 0 .9-.1.3.1.7.2 1 .4zM177.8 118.7h.1c-1.5.4-3 .9-4.7 1.5-3.7 1.4-7.4 2.9-11 3.1 0-.1.1-.2.2-.3.1-.1.1-.3.1-.4 5-.4 9.8-3.5 15-4.6-.1.2-.1.5.1.6 0 .1.1.1.2.1zM176.6 177.2h-.6v-.4c.2 0 .5-.1.7-.1.2.1.5.3.8.4-.3.1-.6.1-.9.1z"/><path class="st2" d="M176.6 177.2c.2.2.4.3.6.4h-.7c-.2-.1-.3-.2-.4-.4l-.1-.1.6.1zM176.5 176.6l.1.1c-.2 0-.5.1-.7.1.1-.2.4-.3.6-.2z"/><path class="st2" d="M176 177.2c.2.2.3.3.5.4l-.6-.1c-.2-.1-.3-.2-.2-.4 0-.1.1-.2.2-.2h.1c-.1 0-.1.2 0 .3zM168.8 96.6c.2.2.2.5 0 .7l-.1.1c-.1.1-.2.1-.4.1.2-.3.3-.6.5-.9z"/><path class="st2" d="M167.8 97c.1-.3.3-.5.5-.8.2 0 .4.1.5.3-.2.3-.4.6-.5 1-.3.2-.7.3-1 .4.2-.3.3-.6.5-.9z"/><path class="st2" d="M168.2 96.3h.1c-.2.2-.3.5-.5.8-.3.1-.5.2-.8.3.2-.3.3-.6.5-.8.2-.2.4-.3.7-.3zM167.8 136.9v.8c-.2-.4-.3-.7-.5-1.1.3-.1.5.1.5.3z"/><path class="st2" d="M167.4 137.8c-.1-.3-.2-.5-.3-.8v-.2c0-.1.1-.2.3-.2.1.4.3.8.5 1.1 0 .3 0 .6-.1.9l-.4-.8zM167 97.3c.3-.1.5-.2.8-.3-.2.3-.3.6-.5.8-.3.1-.5.2-.8.3.2-.2.3-.5.5-.8z"/><path class="st2" d="M167.4 137.8l.4.8c-.1 1-.3 1.9-.6 2.9-.3 1.4-.3 3-.6 4.4-.2-.2-.4-.4-.5-.6-.1-2.5 1-5 1.3-7.5zM166.5 98.2c.3-.1.5-.2.8-.3-.3.5-.5 1-.7 1.5-.7 1.7-.8 3.6-.5 5.4-.1-.1-.3-.1-.4 0l-.3.1c-.4-1.3-.4-2.7 0-4 .3-1 .7-1.8 1.1-2.7z"/><path class="st2" d="M167.1 137c.1.2.2.5.3.8-.4 2.5-1.4 5.1-1.3 7.6-.2-.3-.5-.6-.7-.9 0-.7.1-1.3.3-2 .4-1.9.9-3.7 1.4-5.5zM167 97.3c-.2.3-.3.6-.5.9-6.2 2.4-12.5 3.6-18 7.7.1-.2 0-.3-.3-.4h-.5c-.1-.2 0-.4.1-.5 5-5 13-6.9 19.7-8.6-.2.4-.3.6-.5.9zM166.6 146.1c0-.1.1-.1.1-.2 0 .1.1.1.1.1.1.1.1.2 0 .2s-.2.1-.2 0v-.1z"/><path class="st2" d="M166.6 145.9c0 .1 0 .1-.1.2-.2-.1-.3-.2-.4-.3v-.5c.2.2.4.4.5.6z"/><path class="st2" d="M166.6 146.1v.1l-.3-.1v-.3c0 .1.2.2.3.3z"/><path class="st2" d="M166.2 146.1l.3.1v.2c-.1.1-.2.2-.4.1l-.1-.1c-.2-.2-.3-.5-.4-.7l.6.3v.1zM166.1 104.7c.3 0 .5.3.5.6 0 .2-.1.3-.3.4-.1-.3-.2-.6-.2-1z"/><path class="st2" d="M165.6 105.4c-.1-.2-.1-.4-.2-.5l.3-.1c.1-.1.3-.1.4 0 0 .3.1.7.2 1-.2.1-.3.1-.5.2 0-.2-.1-.4-.2-.6zM166.2 146.1l-.6-.3c0-.2-.1-.4-.1-.5.2.2.4.4.7.5v.3z"/><path class="st2" d="M166.1 145.3v.5c-.2-.2-.5-.3-.7-.5v-.8c.2.2.4.5.7.8z"/><path class="st4" d="M166.5 98.2c-.4.9-.7 1.8-1 2.7-.4 1.3-.4 2.7 0 4-3.7 1.7-7.5 3.5-10 6.6-.1 0-.1-.1-.2-.1-12.2-2.2-24.6-2.2-36.8 0 2.7-1.2 5.4-2.1 8.3-2.9 7-1.7 14.3-1.5 21.4-2.3.1 0 .3-.1.3-.2 5.6-4.2 11.8-5.4 18-7.8z"/><path class="st2" d="M155.4 112.4c.1 0 .1 0 0 0 .1-.1.2-.2.2-.3 2.4-3.3 5.9-4.8 10-6.7 0 .2.1.3.2.5-2.3.9-4.4 2-6.5 3.4-2.5 1.8-3.9 4.1-5.4 6.8-.1.2-.3.2-.5.1 0-.1-.1-.2-.1-.2v-.2c.3-1.2.8-2.3 1.4-3.4h.2c.2.1.4.1.5 0z"/><path class="st2" d="M165.5 104.9c0 .2.1.4.2.5-4.1 1.8-7.6 3.4-10 6.7.1-.2 0-.5-.1-.6 2.4-3.1 6.2-4.9 9.9-6.6zM165.5 145.2c0 .2.1.4.1.5-6.1-3.8-8-12.5-6.1-19.4.2-.2.5-.4.7-.6-2.2 6.6.3 15.2 5.3 19.5z"/><path class="st2" d="M165.4 144.4c0 .3 0 .5.1.8-5-4.4-7.4-12.9-5.2-19.4l.2-.2c.2-.2.2-.4.1-.6.2-.6.5-1.1.8-1.6h.8c-4.1 7.1-1.6 15 3.2 21zM165 173.8c.9 2.5.6 5.3-.7 7.6 0-.4 0-.7-.1-1.1.9-2.2.9-4.6 0-6.8.3.2.5.2.8.3z"/><path class="st2" d="M164.7 173.3c.1.2.2.4.3.5-.3-.1-.5-.1-.8-.2l-.3-.6c.1-.1.2-.1.2-.1h.4c.1.1.2.2.2.4z"/><path class="st2" d="M164.5 172.8h-.4c-.1 0-.2 0-.2.1-1-1.7-3-2.8-6-2.5-8.5 1-8.6 13.8-1.5 14.5.3.2.7.3 1 .4-2.9.7-5-1-6.2-3.4-.8-1.8-1-3.8-.6-5.7.6-2 1.9-3.8 3.6-5l.4.2c.2.1.3-.1.2-.2 0-.1-.1-.2-.2-.2 2.3-1.6 5.3-1.8 7.7-.4.9.6 1.7 1.3 2.2 2.2z"/><path class="st2" d="M164.2 173.6c.9 2.2.9 4.6 0 6.8v-.2c0-.1-.1-.2-.3-.2-.1 0-.2.1-.2.1l-.3.9s0 .1.1.1h.1c-.2.3-.2.7-.2 1-1.1 1.9-3.2 3.1-5.4 2.9 0-.1-.1-.2-.2-.2-1.1-.2-2.1-.6-3-1.1 3.4 1.2 6.9.8 8.5-2.7 1.3-2.6 1.7-7.1-1.3-8.9-7.5-4.6-13.4 7.4-7.3 11.6-.1 0-.3.3-.1.4.5.5 1.1.8 1.8 1.1-7.1-.7-7-13.5 1.5-14.5 3-.3 5 .8 6 2.5-.1.1-.1.3 0 .5 0 .1.1.1.2.1l.1-.2zM164.3 181.4l-.3.6v-1.1c.1-.2.2-.4.3-.5-.1.3-.1.7 0 1z"/><path class="st2" d="M164.2 173.6c-.1 0-.1 0-.2-.1-.2 0-.3-.2-.3-.4 0-.1 0-.1.1-.2.2.3.3.5.4.7zM163.9 180.9c-.2.4-.4.7-.6 1 0-.3.1-.7.2-1h-.1v-.1l.3-.9c.1-.1.2-.2.3-.1.1 0 .1.1.1.2v.2c0 .3-.1.5-.2.7z"/><path class="st2" d="M163.9 180.9v1.1l-.6.9v-.9c.2-.4.4-.7.6-1.1z"/><path d="M162 171.9c2.9 1.8 2.6 6.2 1.3 8.9-1.7 3.5-5.1 3.9-8.5 2.7h-.1c-6.1-4.2-.2-16.1 7.3-11.6z" fill="#42beec"/><path class="st2" d="M163.3 182v.9c-1.3 1.9-3.6 2.9-5.9 2.4.1 0 .2 0 .3-.1.2-.1.2-.2.2-.4 2.2.3 4.4-.9 5.4-2.8zM161.4 123.3h-.7c.1-.2.2-.4.4-.6h1.3c0 .1 0 .3-.1.4-.1.1-.1.2-.2.3-.2 0-.4-.1-.7-.1zM162.4 122.6h-1.3l.1-.3c.2-.3.6-.4.9-.2.2.1.3.3.3.5z"/><path class="st2" d="M160.8 123.3h.7c-.3.5-.6 1.1-.8 1.6-.1-.2-.3-.3-.5-.3.1-.4.3-.9.6-1.3zM161.1 122.6c-.1.2-.3.4-.4.6-2-.1-3.9-.6-5.5-1.6.2-.1.3-.4.2-.6 1.8 1.1 3.7 1.6 5.7 1.6zM160.6 124.9c.1.2.1.5-.1.6-.1.1-.2.1-.2.2.1-.2.2-.5.3-.8z"/><path class="st2" d="M159.8 125.4c.1-.2.2-.5.3-.7.2 0 .4.1.5.3-.1.3-.2.5-.3.8-.3.2-.5.4-.7.6 0-.4.1-.7.2-1z"/><path class="st5" d="M160.8 123.3c-.2.4-.4.9-.6 1.4-.1 0-.2 0-.3.1-11.2 7.1-18.8 20.8-21.5 33.7-.6-1.4-1.4-2.7-2-4.1v-.4c-2.5-4.6-4.4-10.8-8.3-14.4 8.8-6.4 18.2-12.2 27.1-17.8 1.7.9 3.6 1.4 5.6 1.5z"/><path class="st2" d="M160.1 124.6c-.1.3-.2.5-.3.7-9.1 6.3-17 19.4-20.3 30.5-.2 0-.3.2-.3.3v.1s0 .1.1.1c-.3.9-.5 1.8-.7 2.6-.1-.2-.2-.5-.3-.8 2.7-12.8 10.3-26.5 21.5-33.6.1.2.2.1.3.1z"/><path class="st2" d="M159.8 125.4c-.1.3-.2.7-.3 1-9.1 7.7-15.6 18.5-19.4 29.9l-.3-.3c-.1-.1-.2-.1-.3-.1 3.3-11.2 11.3-24.2 20.3-30.5zM157.9 184.8c.1.2 0 .3-.2.4-.1 0-.2.1-.3.1-.3-.1-.7-.2-1-.4-.6-.3-1.2-.7-1.8-1.1-.1-.1 0-.4.1-.4h.1c.9.6 1.9 1 3 1.1.1.2.1.3.1.3zM153.2 142c2.8-1.5 3.4 2.4 2.6 4.2-.9 2.5-2.2 4.8-3.9 6.8-.5.5-1.2 1.2-2 .9-.4-.1-.7-.5-.7-.9.3 0 .5-.1.6-.4.7 2.7 5.3-5.9 5.6-7.4.7-3.6-1.5-4.1-3.8-1.4-1.7 2.2-2.4 5.7-2.4 8.5h.1c-.1.2-.1.5-.1.7-.3 0-.6-.2-.6-.5-.4-3.6 1.3-8.7 4.6-10.5zM155.5 111.5c.2.2.2.4.1.6-.1.1-.1.2-.2.3 0 0 0 .1-.1.1-.1.1-.3.1-.5.1h-.2c.4-.4.6-.8.9-1.1z"/><path class="st2" d="M151.8 143.9c2.3-2.8 4.5-2.3 3.8 1.4-.3 1.5-4.9 10.1-5.6 7.4l.1-.1c0-.2.1-.4.1-.6l.1.1c0-.1.3.2.4.3-.2.2.1.1 0 0l.1-.1c.5-.5 1-1 1.4-1.6.9-1.3 1.8-2.8 2.5-4.2.4-.7.6-1.4.6-2.1 0-2.7-2.4-1-3.2.4-1.4 2.3-1.5 4.8-1.9 7.3-.1-.1-.4-.1-.5 0 0 0-.1.1-.1.2s0 .2-.1.3h-.1c0-3 .7-6.5 2.4-8.7zM155.5 112.4c0-.1.1-.2.2-.3-.1.1-.1.2-.2.3zM155.5 121c.1.2 0 .5-.2.6-.1 0-.2-.1-.2-.1-.1-.1-.2-.2-.2-.3-.1-.2-.1-.4 0-.6.2-.1.5.1.6.4zM115.1 112.6c1.1-.4 2.3-.8 3.4-1.2 12.2-2.2 24.6-2.2 36.8 0 .1 0 .2.1.2.1-.3.3-.5.7-.7 1-1.7-.3-3.4-.6-5.1-.8.1-.2 0-.4-.1-.5h-.1c-1-.1-1.9 0-2.9.2-11.4-.8-22.4 1.2-33.9 1.9.8-.2 1.6-.4 2.4-.7zM155.2 121.7c-9 5.7-18.4 11.4-27.2 17.8-.1-.1-.2-.2-.4-.3 8.9-6.2 17.5-12.7 27.1-17.8.1.1.1.2.2.3.2-.1.3-.1.3 0zM154.4 171.1c.1 0 .1-.1.2-.1l.2.2c.1.1 0 .4-.2.2l-.4-.2c.1 0 .2-.1.2-.1z"/><path class="st2" d="M155.2 144.2c-.1.7-.3 1.5-.6 2.1-.7 1.5-1.5 2.9-2.5 4.2-.4.6-.9 1.2-1.4 1.6l-.1.1c-.1-.1-.5-.4-.4-.3l-.1-.1c.4-2.6.5-5 1.9-7.3.8-1.2 3.2-3 3.2-.3zM154.8 120.7c-.1.2-.1.4 0 .6-9.6 5.1-18.2 11.7-27.1 17.8l-.3-.3c-.1-.1-.3-.1-.4 0-.1.1-.1.2 0 .3 0 .1.1.2.2.3l-.9.6c0-.1 0-.1-.1-.1s-.1 0-.1.1v.2l-2 1.4c-7.3 4.9-13.4 11.2-19.4 17.5-2.6 2.7-5.5 5.3-7.8 8.1-1.1 1.3-3.5 5.8-5.6 5.7.1-.2.2-.5.4-.7 2.2-.8 3.2-3.7 4.7-5.4 2.4-2.9 5.1-5.5 7.7-8.2 4.9-5.4 10.2-10.4 15.8-15 10.5-8.4 22.6-17.2 34.8-22.9 0-.1.1-.1.1 0zM154.6 171c-.1 0-.1 0-.2.1-5.2-4.4-10-9.2-14.4-14.4 0-.1.1-.3.1-.4 2.6 2.2 4.8 4.9 7.3 7.2 2.6 2.3 5 4.8 7.2 7.5z"/><path class="st2" d="M154.4 171.1c-.1 0-.1.1-.2.1-5.8-3.5-10.7-8.3-14.4-14 0-.2.1-.4.2-.5 4.4 5.2 9.2 10 14.4 14.4z"/><path class="st5" d="M154.8 112.5c-.7 1-1.2 2.1-1.5 3.3v.2c-.2-.1-.4-.1-.5-.1-8.6 4.2-16.7 9.4-24.2 15.4 2.1-9 12.4-17.2 21-19.5.1 0 .1-.1.2-.1 1.6.2 3.3.5 5 .8z"/><path class="st2" d="M128.1 132.7c.1-.1.2-.3.2-.4 0-.3.1-.7.2-1 7.5-6 15.6-11.1 24.2-15.3.2-.1.4-.1.5 0 0 .1.1.2.1.2.1.2 0 .4-.2.5-13.1 8.5-25.7 16.7-37 27.6-8.6 8.1-18.8 17.5-24.7 28-.2.1-.4.1-.7.2 1.2-3.9 5.2-7.7 7.7-10.7 8.2-9.9 17.3-19 27.2-27.2.9-.6 1.7-1.2 2.5-1.9zM153.3 116c.1.1.1.1.1.2 0 0-.1-.1-.1-.2z"/><path class="st6" d="M151.2 182h-.1c0-.1-.1-.2-.2-.2-6.3 2.2-12.2-3.6-14.4-8.8-2.3-5.6-1.9-11.7-.9-17.5.4 1.6 1.3 3.2 2.5 4.4 0 .2.3.4.5.3.2 0 .3-.2.3-.3.2-.9.5-1.8.8-2.7 3.7 5.7 8.6 10.5 14.5 14-1.7 1.2-3 3-3.6 5-.4 1.9-.2 4 .6 5.8z"/><path class="st2" d="M141.4 180.7c-.1-.3-.4-.5-.6-.4-2.4-1.8-4.1-4.2-5.1-7-2.2-5.8-2-12.8-.2-18.7 0 .3.1.6.1.9-1 5.8-1.5 11.9.9 17.5 2.2 5.3 8 11 14.4 8.8.1 0 .2 0 .2.1s0 .1-.1.2c-2.7 1.9-6.7 1-9.8-.8 0-.1.1-.3.2-.6zM150.1 151.9c0 .2-.1.4-.1.6 0 0 0 .1-.1.1 0-.2-.1-.3-.1-.5l-.4.1c0-.1 0-.2.1-.3.1-.2.2-.3.4-.2.1.2.2.2.2.2z"/><path class="st2" d="M149.9 152.2c0 .2 0 .3.1.5-.1.2-.3.4-.6.4 0-.2 0-.5.1-.7l.4-.2zM148.5 111.6c-.7-.1-1.3-.1-1.9-.2.9-.2 1.9-.3 2.9-.2.2 0 .3.2.3.4v.1c-.5 0-.9-.1-1.3-.1z"/><path class="st2" d="M148.5 111.6c.4 0 .8.1 1.2.1 0 .1-.1.1-.2.1-8.5 2.2-18.8 10.5-21 19.5-.3.2-.6.5-.9.7.5-5 4.6-9.6 8.2-12.8 2.9-2.4 8.4-7 12.7-7.6zM147.8 105.9c-.1-.1-.2-.2-.2-.3h.5c.1 0 .3.1.3.2v.1c-.1.2-.4.2-.6 0 .1 0 .1 0 0 0z"/><path class="st2" d="M148.5 106c0 .1-.1.2-.3.2-7.1.7-14.4.5-21.4 2.3-2.8.8-5.6 1.8-8.3 2.9-1.6.3-3.1.6-4.6 1 3.5-1.2 6.9-3 10.4-4 7.6-2 15.5-2.3 23.5-2.5.2.2.4.3.7.1-.1 0-.1 0 0 0zM146.6 111.5c.6 0 1.3 0 1.9.2-4.3.6-9.8 5.2-12.7 7.7-3.6 3.2-7.8 7.7-8.2 12.7-.2.1-.4.3-.6.5-.1-.1-.2-.3-.2-.5.1-.7.2-1.4.4-2.1.7.2 1-.8.5-1.2l-.1-.1c1.6-4.2 4.9-7.7 8.4-10.5 2.8-2.4 6.6-5.8 10.6-6.7z"/><path class="st2" d="M147.7 105.5c0 .1.1.3.2.3-8 .2-15.9.5-23.6 2.5-3.5.9-6.9 2.8-10.4 4-.8.2-1.5.4-2.2.6-.1 0-.1.1-.2.1h-.2c-.5-.1-1 0-1.2.5-.2-.2-.2-.5 0-.7.1-.1.2-.1.3-.1 6.3-1.6 12-5 18.5-6 6.1-1 12.4-1.4 18.8-1.2z"/><path class="st3" d="M112.7 113.3c11.5-.7 22.5-2.6 33.9-1.9-3.9 1-7.7 4.4-10.5 6.7-3.5 2.9-6.8 6.3-8.4 10.6-4.3-2.8-8.4-5.9-12.4-9.2-1.8-1.6-4.8-3.5-3.9-6 .4 0 .8-.1 1.3-.2z"/><path class="st2" d="M140.8 181.1l-.4-.3c.1-.1.1-.3.2-.4 0-.1.1-.2.2-.2s.1.1.2.1c.1.1.3.2.4.3v.1c-.1.2-.1.4-.2.6l-.4-.2z"/><path class="st2" d="M141.4 180.6c-.2-.1-.3-.2-.4-.3s-.1-.1-.2-.1c.3 0 .6.2.6.4zM140.4 180.8l.4.3c-.8 2.4-2.5 4.8-3.6 7-3.6 7.2-7.8 13.9-9.4 21.9-.2 1.2 0 4-.5 5.3 0-.2-.1-.3-.3-.4-.2-.1-.3-.1-.5-.2.2-1.6 0-3.3.4-4.9 2.6-10.6 9.1-19.1 13.5-29zM140.8 180.2c-.1 0-.2.1-.2.2s-.1.3-.2.4c-1.3-.8-2.4-1.9-3.3-3.2-1.1-1.7-2-3.6-2.6-5.6.2 0 .3-.1.3-.2v-.2c-.3-.7-.6-1.5-.9-2.2-1-5.1-.5-10.3 1.3-15.1 0 .1.1.1.2.2h.1c-1.8 5.9-1.9 12.8.2 18.7 1 2.8 2.8 5.3 5.1 7zM140 156.7c-.1.2-.1.4-.2.5-.2-.2-.3-.5-.4-.7 0-.2.1-.4.1-.6.1 0 .2 0 .3.1l.3.3c0 .1-.1.2-.1.4z"/><path class="st2" d="M139.4 156.5c.1.2.2.5.4.7-.3.9-.6 1.8-.8 2.7-.1.2-.3.4-.5.3-.2 0-.3-.2-.3-.3 0 .1.1.1.1.2.2.2.7 0 .6-.4-.1-.2-.1-.4-.2-.6.2-.9.4-1.7.7-2.6z"/><path class="st2" d="M139.5 155.9c-.1.2-.1.4-.1.6 0 0 0-.1-.1-.1-.1-.1-.1-.3.1-.4l.1-.1zM138.5 159.8c0-.2.1-.4.2-.6.1.2.1.4.2.6.1.4-.4.6-.6.4-.1 0-.1-.1-.1-.2v-.2c0-.1 0-.3.1-.4l.2.4z"/><path class="st2" d="M138.7 159.1c0 .2-.1.4-.2.6-.1-.2-.2-.4-.4-.5 0-.3.1-.6.2-.9.2.3.3.6.4.8z"/><path class="st2" d="M138.4 158.4c-.1.3-.1.6-.2.9-.9-1.4-1.7-3-2.2-4.6.2-.1.3-.2.3-.4.6 1.3 1.5 2.7 2.1 4.1z"/><path class="st2" d="M138.2 159.2c0 .1 0 .3-.1.4v.2c-1.2-1.2-2-2.8-2.4-4.4.1-.3.1-.6.2-.8h.2c.4 1.7 1.1 3.2 2.1 4.6z"/><path class="st3" d="M137.1 177.6c.9 1.3 2 2.4 3.3 3.2-4.4 9.8-10.9 18.4-13.5 29-.4 1.5-.2 3.3-.4 4.9-2.8-1.5-4.9-6.6-6-9.3-2.2-5.4-2-11.9-1.5-17.6.8-9 3.1-20.7 9.2-27.7 1.4 4.2 3.4 8.2 6 11.8.1.1.1.1.2.1.7 2 1.6 3.9 2.7 5.6z"/><path class="st2" d="M136.3 153.8v.4c-.1-.2-.2-.4-.2-.6-.1-.2-.2-.3-.4-.2-.1 0-.2.1-.2.2-3-4.3-4.5-9.9-7.8-14 .1-.1.2-.2.3-.2 3.9 3.7 5.8 9.9 8.3 14.4z"/><path class="st2" d="M135.8 154c0-.1-.1-.2-.3-.2l-.1-.1c.1-.2.2-.3.4-.2.1 0 .2.1.2.2.1.2.1.4.2.6 0 .2-.2.4-.3.4 0-.1-.1-.3-.1-.4v-.3z"/><path class="st2" d="M136 154.6h-.2c0-.2 0-.3.1-.5 0 .2.1.4.1.5z"/><path class="st2" d="M135.5 154.4v-.5h.1c.1 0 .2.1.3.2v.2c0 .2 0 .3-.1.5-.1 0-.2 0-.3-.1v-.3z"/><path class="st2" d="M135.8 154.7c-.1.2-.1.5-.2.8-.1-.3-.1-.6-.1-.9.1.1.2.1.3.1zM135.5 153.7l.1.1h-.1v-.1zM135.5 154.4v.1h-.1c0-.1-.1-.1-.2-.2 0-.1 0-.2.1-.3 0-.1.1-.2.2-.2v.6z"/><path class="st2" d="M135.5 153.7v.2c-.1 0-.2.1-.2.2s-.1.2-.1.3c-1.7-2.2-3-4.5-4-7.1l-.5-1.1c.2-.1.3-.3.3-.5 0-.1 0-.3-.1-.3-.2-.1-.4-.2-.7-.2-.9-1.7-1.8-3.4-2.8-5.1l.3-.2c3.3 3.8 4.9 9.5 7.8 13.8zM135.5 154.4v0zM134.3 171.3c-.2-.6-.3-1.3-.5-1.9.3.7.6 1.5.9 2.2.1.1 0 .3-.1.4h-.2c0-.2 0-.4-.1-.7z"/><path class="st2" d="M134.3 171.3c.1.2.1.5.2.7-.1 0-.2-.1-.2-.1-2.6-3.6-4.7-7.5-6.1-11.8.1-.2.3-.4.5-.6s-.1-.8-.4-.5c-.1.1-.3.2-.4.4-2-6.1-2.9-12.8-2.1-18.3.1-.1.2-.1.3-.2 0 2.1.2 4.2.4 6.3l-.1.1c-.2.1-.3.5-.1.7.1.1.2.2.4.2.9 8 3.5 15.9 7.6 23.1z"/><path class="st2" d="M133.8 169.4c.1.6.2 1.3.4 1.9-4.1-7.2-6.6-15-7.6-23.2.1 0 .2 0 .2-.1l.6-.3c.2 2.5.7 4.9 1.2 7.4 1.4 4.9 3.2 9.7 5.2 14.3z"/><path class="st4" d="M135.2 154.3c-1.8 4.8-2.3 10-1.4 15.1-2.1-4.6-3.8-9.4-5.2-14.4-.6-2.4-1-4.9-1.2-7.4.7-.4 1.4-.8 2.1-1.1.4-.1.8-.3 1.1-.5l.5 1.1c1.1 2.6 2.5 5 4.1 7.2z"/><path class="st2" d="M130.9 145.2c.1.1.2.2.1.3-.1.2-.2.4-.3.5-.1-.1-.1-.3-.2-.5l.3-.1-.3.1c-.1-.2-.2-.4-.3-.5.3 0 .5.1.7.2zM130.8 145.5l-.3.1.3-.1z"/><path class="st2" d="M130.5 145.6c.1.1.1.3.2.5-.3.2-.7.4-1.1.5-.7.3-1.4.7-2.1 1.1 0-.2 0-.3-.1-.5l3.1-1.6z"/><path class="st2" d="M130.5 145.6l-3.1 1.6v-.1c1-.6 2-1.1 3.1-1.5-.1 0 0 0 0 0z"/><path class="st2" d="M130.2 145c.1.2.2.4.3.5-1.1.4-2.1.9-3 1.5 0-.2 0-.4-.1-.6.8-.6 1.8-1.1 2.8-1.4zM128.1 159.7c-.1-.1-.1-.2-.1-.3l.4-.4c.3-.2.6.3.4.5-.2.2-.4.4-.5.6-.1-.1-.2-.2-.2-.4zM128.6 131.3c-.1.3-.1.6-.2 1 0 .2-.1.3-.2.4-.3.2-.8.2-1.1-.2.2-.2.4-.3.6-.5.3-.2.5-.4.9-.7z"/><path class="st2" d="M128.1 159.7c0 .2.1.3.2.4-6.2 7.1-8.5 18.7-9.2 27.7-.5 5.7-.8 12.2 1.5 17.6 1.1 2.7 3.2 7.8 6 9.3-.1.2-.3.3-.5.4-2.1-1.2-4.7-6-5.5-7.6-1.5-3.3-2.3-6.8-2.5-10.4-.5-7.1.7-14.2 2.3-21.1 1-4.5 3.7-12.8 7.7-16.3z"/><path class="st8" d="M127.4 139.9c1 1.7 1.9 3.4 2.8 5.1-1.1.2-2 .8-2.9 1.5-.2-2-.5-3.9-1-5.9l1.1-.7z"/><path class="st2" d="M90.5 173.3c.1.1.2.2.3.2v.1c-.1.3-.7.2-.6-.1.5-5.1 4.6-8.5 7.7-12.3 5.2-6.5 10.9-12.5 17-18.2 3.9-3.6 7.9-7.2 12.1-10.5.3.3.7.4 1.1.2-.8.6-1.6 1.3-2.4 1.9-9.9 8.2-19 17.3-27.3 27.2-2.5 2.9-6.5 6.8-7.7 10.7-.3.1-.3.5-.2.8zM127.7 139.1c.1.1.2.2.4.3-.1.1-.2.1-.3.2-.1-.1-.2-.3-.3-.4l.2-.1zM128 159.4c0 .1.1.2.1.3-4 3.5-6.7 11.8-7.8 16.5-1.6 6.9-2.8 14-2.3 21.1.2 3.6 1.1 7.1 2.5 10.4.8 1.6 3.4 6.4 5.5 7.6l-.5.2c-2.5-1.1-4.2-4.4-5.3-6.6-2.8-5.7-3.6-12.4-3-18.6.8-9.7 2.6-24.3 10.8-30.9zM127.8 128.8c.6.4.3 1.4-.5 1.2.1-.4.2-.8.5-1.2zM127.4 139.3c.1.1.2.2.3.4l-.3.2c-.1-.2-.2-.3-.3-.4.2-.1.3-.1.3-.2z"/><path class="st2" d="M127.4 139.3c-.1.1-.2.1-.3.2 0-.1-.1-.2-.2-.3-.1-.1 0-.3.1-.4.1-.1.2-.1.3 0l.3.3-.2.2zM127.5 147.7l-.6.3c-.1 0-.1.1-.2.1 0-.3-.1-.7-.1-1l.8-.6c0 .2 0 .4.1.6-.3.1-.5.3-.7.5l.7-.4c-.1.2 0 .3 0 .5z"/><path class="st2" d="M127.4 147.2l-.7.4c.2-.1.5-.3.7-.5v.1zM127.2 139.5c.1.2.2.3.3.4-.3.2-.7.5-1 .7 0-.2-.1-.4-.1-.6.2-.1.5-.3.8-.5zM110.5 113.7h.1l.8-.1c-.9 2.5 2.1 4.4 3.9 6 4 3.3 8.1 6.3 12.4 9.2-.2.4-.3.8-.4 1.2h-.1c-3.7-1.4-7-4.2-10-6.7-2-1.6-3.9-3.3-5.6-5.3-.8-1-2.2-2.5-1.8-4 0-.2.1-.4.2-.6.1.2.3.3.5.3zM127.3 215.5c0 .2-.1.3-.2.4 0-.1.1-.3.2-.4z"/><path class="st2" d="M126 215.2c.2-.1.3-.2.5-.4.1.1.3.2.5.2.2.1.3.2.3.4 0 .1-.1.3-.2.4h-.2c-.5 0-.9-.2-1.4-.4l.5-.2zM127.3 146.5l-.8.6c-.2-2.1-.4-4.2-.4-6.3l.2-.2c.5 2 .8 3.9 1 5.9zM126.7 148.1c-.3 0-.5-.2-.5-.5 0-.2.1-.3.2-.4l.1-.1c.1.3.2.6.2 1z"/><path class="st2" d="M126.3 140.1c.1.2.1.4.1.6l-.2.2v-.7c0-.1 0-.1.1-.1z"/><path class="st2" d="M126.2 140.2c0 .1-.1.1-.2.1v-.3c0-.1 0-.1.1-.1s.1 0 .1.1v.2z"/><path class="st2" d="M126.2 140.2v.7c-.1.1-.2.1-.3.2.1-.3.1-.5.1-.8.1 0 .1-.1.2-.1z"/><path class="st2" d="M126 140.3c-.1.3-.1.5-.1.8-4 3-7.8 6.1-11.5 9.5-5.8 5.4-13.2 11.2-17.7 17.8-1.5 2.1-2.9 4.8-5.8 5.1h-.1c.1-.2.1-.3.2-.5 2.1.1 4.5-4.5 5.6-5.7 2.3-2.9 5.2-5.4 7.8-8.1 6-6.3 12.2-12.6 19.4-17.5l2.2-1.4z"/><path class="st0" d="M119.3 104.4c.1-.2.1-.3.2-.5h.4c-.1-.1-.1-.2-.2-.3.1-.2.1-.4.2-.5h-.7c-1.3-1.3-3.6-3-3.6-4.4 0-1.8 3-3.9 4.5-5.5h.7c-.1-.2-.2-.3-.3-.5.1-.1.2-.2.3-.4h-.5c-.1-.1-.2-.2-.2-.4-.1.1-.2.2-.3.4-1.9.1-3.8.5-5.6 1-5 1.2-2.1.2-5.6-1.9-3.7-2.3-3.1 3.2-3 6.5-.2-.1-.5-.1-.6.1-.2-2.1-1.1-8 2.3-8 1.5 0 3.2 1.3 4 2.5.7 1 8.1-1.1 9.7-1 .5 0 .8.4.8.8 0 .1 0 .3-.1.4-1.2 1.3-2.4 2.6-3.7 3.8-2.5 2.8 1 4.7 2.7 6.7.3.4.2.9-.2 1.1-.1.1-.3.2-.5.2-2.4.2-6.9-.9-8.7 1.2-1.1 1.4-2.1 2.9-3 4.5-.2.4-.7.5-1.1.3l-.3-.3c-.9-1.3-1.6-2.7-1.8-4.2-.4-2.4-2-2.6-4.3-2.8-.5 0-.8-.4-.8-.9 0-.2.1-.4.2-.6 1.5-1.4 3.1-2.7 4.8-3.8v.2c0 .2.1.4.3.5-1.2 1-2.8 1.8-4 2.9l-.7-.1c.1.2.2.4.2.6l-.2.3c.1 0 .2 0 .4.1.1.2.2.3.2.5.1-.2.3-.3.5-.5 5.5.8 2.8 2.7 5.2 6.6-.1.1-.1.2-.2.3h.4c.1.1.2.3.3.4.1-.1.2-.3.3-.4h.5c-.1-.1-.2-.2-.2-.4 1.2-2 2.4-4.3 4.4-5.1 1.8-.6 4.4 0 6.6-.1l.3.7z"/><path class="st0" d="M120.8 92.3c-.1.1-.2.3-.3.4-.1-.1-.2-.3-.2-.4h.5zM120.5 92.7c.1.2.2.3.3.5h-.6l.3-.5z"/><path class="st0" d="M120.3 92.3c.1.1.1.3.2.4l-.4.5c-.4 0-.8.1-1.2.1.3-.3.6-.6.9-1h.5zM120.3 92.3h-.5c.1-.1.2-.2.3-.4 0 .1.1.3.2.4zM119.8 103c-.1.2-.1.3-.2.5l-.5-.5h.7zM119.6 103.6c.1.1.1.2.2.3h-.4c.1-.2.2-.3.2-.3z"/><path class="st0" d="M119.6 103.5c-.1.1-.1.2-.2.3-.2 0-.4.1-.6.1l-1-.9c.5 0 .9.1 1.3.1.2.1.4.3.5.4zM119.5 103.9c-.1.2-.1.3-.2.5l-.4-.4c.2-.1.4-.1.6-.1zM119.8 92.3c-.3.4-.6.7-.9 1-2.2.2-4.4.8-6.6 1.2-.6.2-1.3.1-1.9-.3-.5-.4-3.5-4-3.9-1.7-.2 1.9-.3 3.8-.4 5.7 0 .2-.1.3-.2.4 0-.3-.2-.6-.5-.7 0-3.3-.6-8.8 3-6.5 3.5 2.1.7 3.1 5.6 1.9 2-.6 3.9-.9 5.8-1z"/><path class="st0" d="M118.8 93.2c.4 0 .8-.1 1.2-.1-1.5 1.6-4.5 3.7-4.5 5.5 0 1.3 2.3 3.1 3.6 4.4h-1.3c-1.5-1.3-3.3-2.9-3-4.6.4-2.3 2.4-3.6 4-5.2zM118.8 104c-2.2.1-4.7-.5-6.6.1-2 .8-3.2 3.1-4.4 5.1-.2-.3-.3-.5-.4-.8 1.2-1.9 2.4-3.8 4.5-4.9 1.6-.8 3.9-.5 5.9-.3.4.2.7.5 1 .8z"/><path class="st1" d="M118.8 93.2c-1.6 1.6-3.6 2.9-4 5.2-.3 1.7 1.5 3.3 3 4.6-2-.2-4.3-.5-5.9.3-2.1 1.2-3.3 3-4.5 4.9-.7-1.5-.8-3.1-1.6-4.6-.6-1.2-2-1.7-3.5-1.9 1-.9 2.2-1.6 3.2-2.5.2-.2.3-.4.3-.7.1-.1.2-.3.2-.4 0-1.9.1-3.8.3-5.7.4-2.3 3.4 1.4 3.9 1.7.6.3 1.2.4 1.9.3 2.4-.3 4.5-.9 6.7-1.2z"/><path class="st2" d="M113.9 112.4c1.5-.4 3-.7 4.6-1-1.1.4-2.2.8-3.4 1.2-1.2.2-2.5.4-3.6.6-.1-.1-.1-.1-.2-.1h.2c.1 0 .1 0 .2-.1.7-.1 1.4-.3 2.2-.6z"/><path class="st2" d="M115.1 112.6c-.8.3-1.6.5-2.5.7h-1.2c0-.1 0-.1.1-.2v-.1c1.2 0 2.4-.2 3.6-.4z"/><path class="st2" d="M111.6 113c.7-.2 1.5-.4 2.2-.6-.7.2-1.4.5-2.2.6zM111.5 113.4h1.1l-1.2.3c0-.1 0-.2.1-.3z"/><path class="st0" d="M111.4 128.5c.5 0 1 .6.6 1.1-.9 1.2-3.9 3.1-3.8 4.7.3 3 2.4 5.3 3.2 8.1.1.4-.1.8-.5 1h-.2c-1.8-.1-3.6-.4-5.3-.9-2.8-.7-4.2.7-5.9 2.9-.2.4-.8.5-1.2.3-.2-.1-.3-.3-.4-.5-1.2-2.9-.6-5.4-3.9-6.9-.8-.3-1.4-.9-1.5-1.8-.6-2.2 2.5-4.2 4-5.4-.1.3-.1.6-.2.8 0 .1 0 .3.1.4-1.5 1.3-3.8 2.7-2.9 4.6.2.5 3.1 1.2 3.5 1.9.8 1.2.8 3.5 1.3 5.2l-.2.3c.1 0 .3.1.4.1.1.2.2.3.2.5l.3-.4c.2 0 .3.1.5.1-.1-.2-.1-.4-.2-.6 3.8-4.8 5.2-2 10.6-1.6 0 .1 0 .2.1.3l.2-.2h.5c0-.2-.1-.4-.2-.5l.2-.2h-.2c-.7-2.2-2.4-4.2-2.8-6.5-.6-3.2 1.5-3.1 3.3-5.4h.5c-.1-.1-.2-.3-.2-.4.1-.1.2-.2.2-.3-.1 0-.3-.1-.4-.1l-.2-.3c-.1.1-.1.2-.2.3-1.8 0-4.1.9-5.5.3-2.6-1-1.9-2.8-3.3-5-3.5-5.1-3.9 2.4-4.6 6.2-.1 0-.2.1-.3.1l-.3.3c.3-2.7.3-8.2 2.9-8.9 1.2-.3 2.5 1.1 3 2 1.3 2.3 1.2 5.4 5.6 4.6.8-.2 2-.3 3.2-.2z"/><path class="st2" d="M111.5 113.2s0 .1-.1.2c-.2 0-.4 0-.6.1.2-.2.4-.3.7-.3z"/><path class="st2" d="M111.5 113.2c-.2 0-.4.1-.6.3h-.6m-.1-.1l1-.3c.1 0 .2 0 .2.1l-1.2.2z"/><path class="st2" d="M111.5 113.4c0 .1-.1.1-.1.2l-.8.1h-.1c.1-.1.2-.2.4-.2.1-.1.4-.1.6-.1zM111.4 113h-.2c.1.1.2.1.2 0z"/><path class="st0" d="M111.4 129.2c-.1.1-.1.2-.2.3-.1-.1-.1-.3-.2-.4.1.1.2.1.4.1zM111.1 129.5c.1.1.2.3.2.4h-.5c.2-.1.3-.3.3-.4z"/><path class="st2" d="M111.2 113.1l-1 .3m0 0h.7c-.1.1-.3.2-.4.3-.2 0-.3-.1-.4-.3.3-.4.7-.6 1.2-.4l-1.1.4z"/><path class="st0" d="M110.9 129.1c.1.1.1.3.2.4-.1.1-.2.3-.3.4-.4 0-.8 0-1.2.1l.8-.8.5-.1z"/><path class="st0" d="M110.8 128.9l.2.3h-.4c0-.1.1-.2.2-.3zM109.7 130c.4-.1.8-.1 1.1-.1-1.8 2.3-3.9 2.2-3.3 5.4.4 2.3 2.2 4.3 2.8 6.5-.3 0-.6 0-.9-.1-1.1-2.7-3.1-5.1-2.7-8.2.3-1.3 1.8-2.4 3-3.5zM110.7 141.8l-.2.2v-.2h.2zM110.5 142.1c.1.2.1.4.2.5h-.5c0-.2.2-.4.3-.5zM105 129.5c1.4.6 3.7-.4 5.5-.3-.2.3-.5.5-.8.8-3 .2-6.3 1.1-7.5-2.7-.3-1-2.5-5.4-3.3-2.4-.3.9-.5 1.8-.6 2.8-.2 1-.3 2.1-.5 3.2-.2-.1-.4-.1-.5-.1.7-3.9 1.1-11.4 4.6-6.2 1.2 2 .5 3.9 3.1 4.9z"/><path class="st0" d="M110.5 142c-.1.2-.3.4-.4.5h-.2l-.3-.9c.3 0 .6.1.9.1v.3zM110.1 142.6l-.2.2c0-.1-.1-.2-.1-.3l.3.1z"/><path class="st0" d="M109.6 141.7l.3.9c-5.4-.4-6.8-3.1-10.6 1.6-.1-.3-.2-.7-.2-1 1.1-1.2 2.4-2.5 4-2.5 2.2-.2 4.3.7 6.5 1z"/><path class="st1" d="M109.7 130c-1.2 1-2.7 2.1-2.8 3.5-.4 3.1 1.6 5.5 2.7 8.2-2.2-.3-4.3-1.2-6.5-1.1-1.6 0-3 1.3-4 2.5-.3-2-.5-4.6-2-5.4-1.4-.7-3.4-1.7-1.6-3.5.9-.7 1.7-1.6 2.4-2.5.2-.3.1-.7-.1-.9l-.1-.1c.2-1 .4-2.1.5-3.2.2-.9.4-1.9.6-2.8.8-3 3 1.4 3.3 2.4 1.2 3.9 4.5 3 7.6 2.9z"/><path class="st0" d="M107.8 109.1c.1.1.2.3.2.4h-.5c.2-.1.3-.2.3-.4z"/><path class="st0" d="M107.8 109.1c-.1.1-.1.3-.2.4h-.5c-.1-.1-.2-.2-.2-.3l.6-.9c0 .3.2.6.3.8zM107.6 109.5c-.1.1-.2.3-.3.4-.1-.2-.2-.3-.3-.4h.6zM107.4 108.3l-.6.9c-2.5-4 .2-5.9-5.2-6.6.2-.3.5-.5.8-.8 1.4.2 2.9.7 3.5 1.9.7 1.5.9 3.1 1.5 4.6z"/><path class="st0" d="M107.1 109.5h-.4c.1-.1.1-.2.2-.3 0 .1.1.2.2.3zM106 98.6c0 .3-.1.5-.3.7-1.1.8-2.2 1.6-3.2 2.5l-1.2-.1c1.3-1.1 2.6-2 4-2.9.2 0 .5 0 .7-.2z"/><path class="st0" d="M106 98.6c-.2.2-.5.2-.8.1h.1l.2-.5V98c.3.1.5.3.5.6z"/><path class="st0" d="M105.5 97.9v.3l-.2.5h-.1c-.2-.1-.3-.3-.3-.5V98c.1-.2.4-.2.6-.1zM102.4 101.8c-.3.2-.5.5-.8.8-.2 0-.5-.1-.7-.1 0-.1-.1-.2-.1-.3.1-.2.3-.3.4-.5l1.2.1z"/><path class="st0" d="M101.6 102.6c-.2.1-.3.3-.5.5-.1-.2-.1-.4-.2-.5.2-.1.5-.1.7 0zM100.6 101.6l.7.1c-.2.2-.3.3-.4.5-.2-.2-.3-.4-.3-.6zM100.8 102.1c.1.1.1.2.1.3-.1 0-.2 0-.4-.1l.3-.2zM99.5 144.7c-.2 0-.3-.1-.5-.1.1-.2.2-.3.3-.4 0 .2.1.3.2.5z"/><path class="st0" d="M99.3 144.2c-.1.1-.2.3-.3.4-.2-.1-.3-.1-.5-.1s-.1-.3-.2-.4c.3-.3.5-.6.8-1 0 .4.1.7.2 1.1z"/><path class="st0" d="M99 144.6l-.3.4c-.1-.2-.2-.3-.2-.5.2 0 .3 0 .5.1zM97.1 137.7c1.6.8 1.7 3.4 2 5.4-.3.3-.5.7-.8 1-.5-1.7-.5-4-1.3-5.2-.5-.7-3.3-1.4-3.5-1.9-.9-1.9 1.3-3.3 2.9-4.7.1.2.4.3.7.2.1-.1.2-.2.2-.3.1-.5.3-.9.3-1.4.3.1.5.5.3.8l-.1.1c-.7 1-1.5 1.8-2.4 2.5-1.7 1.8.3 2.8 1.7 3.5zM98.4 144.5c-.1 0-.3-.1-.4-.1l.2-.3c.1.1.2.2.2.4z"/><path class="st0" d="M97.1 131.6l-.2.2c.1-.4.2-.8.2-1.1.2 0 .4 0 .5.1-.1.5-.2.9-.3 1.4-.1.3-.3.4-.6.3-.1 0-.2-.1-.3-.2.2-.1.3-.3.5-.4v.1l.2-.4z"/><path class="st0" d="M97.1 130.7c-.1.4-.1.8-.2 1.1-.2.1-.3.3-.5.4-.1-.1-.1-.2-.1-.4 0-.3.1-.5.2-.8l.3-.3h.3zM97.1 131.6l-.2.4v-.2l.2-.2z"/><path class="st2" d="M91.1 173c-.1.1-.2.3-.3.5-.1 0-.2-.1-.3-.2.1-.2.1-.5.2-.8.2 0 .5-.1.7-.2-.1.2-.2.5-.3.7z"/><path class="st2" d="M90.7 172.6c-.1.3-.2.5-.2.8-.1-.4-.1-.8.2-.8z"/><path class="st10" d="M156.6 177c0-.7-.7-1.8 1.8-2.2.4 2.2-.7 1.5-2.2 2.2"/><path class="st11" d="M156.6 177c0-.7-.7-1.8 1.8-2.2.4 2.2-.7 1.5-2.2 2.2"/><path class="st10" d="M157.2 176.4c-.1-.8.8-.8 1.3-.9l-.9-.5c.1.8 0 .8-.7 1-.5.1-.9.4-1.1.8-.1.2 0 .4.1.5h.1c.8.2 1.5.1 2.2-.3.9-.5.9-1.4.8-2.3 0-.4-.4-.7-.8-.7h-.1c-1.6.3-2.7 1-2.4 2.7.2 1.1 1.7.7 1.5-.3zM198 144.8c4.2-9.2-7.6-2.3-.9 0"/><path class="st11" d="M198 144.8c4.2-9.2-7.6-2.3-.9 0"/><path class="st10" d="M198.2 144.9c.7-1.1 1.7-3.4.8-4.6-.6-.9-1.8-.6-2.6-.2-1 .5-1.7 1.4-1.9 2.5-.1 1.1 1.5 3 2.6 2.5.2-.1.3-.3.2-.5-.4-.8-1.8-.7-1.9-1.9.1-.7.5-1.4 1.2-1.8.4-.3 1.3-.7 1.7-.2.8 1-.4 2.9-.6 3.9 0 .1 0 .3.2.3.2.2.3.1.3 0zM191.2 141.1c-2.7-.5-4.5-5.5-2.7-8.2 4.1-5.4 5.9 5 3.2 7.7"/><path class="st11" d="M191.2 141.1c-2.7-.5-4.5-5.5-2.7-8.2 4.1-5.4 5.9 5 3.2 7.7"/><path class="st10" d="M191.3 140.9c-2.1-.8-3-3.4-3-5.5 0-1.1 1.5-4.6 3-3.2 1 .9 1.1 2.8 1.1 4.1 0 1.5-.4 2.9-1 4.3-.1.2.2.3.3.3 1.8-.9 1.8-4 1.6-5.7-.1-1.5-.7-4-2.5-4.2-2.3-.4-3.6 2.7-3.7 4.5-.1 2.5 1.3 5.7 4 6 .1 0 .3-.1.3-.3.1-.2 0-.3-.1-.3z"/></g><ellipse class="st10" cx="92.6" cy="36.5" rx="92.6" ry="36.5"/><path class="st10" d="M125.6 60.4l14.5 27.1-47.8-24.7z"/><path d="M35.7 48.5c-.6-.7-1-1.4-1-2.2v-2.4h-.5c-.6.8-1.4 1.5-2.2 2.1-.8.6-1.6 1.1-2.5 1.6l-1.2.3c-1-.3-1.9-.7-2.7-1.1-.8-.4-1.6-1-2.4-1.8-.5-1-.9-2.1-1.2-3.3s-.6-2.4-.7-3.5c.2-2.8.8-5.2 2-7.4 1.1-2.2 2.5-4.3 4.1-6.4 1.3-.8 2.7-1.4 4.3-1.8 1.5-.4 3.2-.5 5-.3l2 1.2.2 1.7-1.5.5-1-1.2H32L29.1 26c-1.6 1.9-3 4-4 6.2-1.1 1.8-1.6 4.2-1.6 6.8.3.8.6 1.7.7 2.6.2.9.6 1.7 1.2 2.3.5.5 1.1.8 1.7 1.1.7.2 1.4.4 2.2.4.8-.6 1.6-1.3 2.3-1.9.7-.7 1.3-1.4 1.6-2.2-.8-.2-1.6-.5-2.2-1-.7-.5-1.3-1.1-1.9-1.7l-.5-1.7 1.5-.5c1.2 1.3 2.5 2.3 3.9 2.9 1.5.7 2.9 1.2 4.4 1.7l.3 1.5L37 44v2.9l.3 1.2-1.6.4zm-.5-5.6v-.7h-.5v.7l.2.2.3-.2zM46.3 47.6c-1-.2-1.9-.4-2.8-.8-.9-.3-1.7-.9-2.3-1.7-.5-.5-.7-1.1-.7-1.8V41l3.6-6.6c.5-.5 1.1-.8 1.7-.8.7-.1 1.4-.1 2.2-.1 1.2 1.5 2.1 3 2.9 4.7.8 1.7 1.1 3.6.7 5.7-.2.5-.4 1-.7 1.6-.3.6-.7 1-1.2 1.4-.5.3-1 .5-1.6.6s-1.2.1-1.8.1zm1.9-2.5c.8-.5 1.2-1.2 1.2-2.2v-2.7l-1.7-3.6h-1l-2 .5c-.6 1-1.2 1.9-1.7 2.9s-.7 2.1-.5 3.4c.7.8 1.5 1.3 2.5 1.6 1 .3 1.9.4 2.9.4l.3-.3zM61.6 47.6c-1-.2-1.9-.4-2.8-.8-.9-.3-1.7-.9-2.3-1.7-.5-.5-.7-1.1-.7-1.8V41l3.6-6.6c.5-.5 1.1-.8 1.7-.8.7-.1 1.4-.1 2.2-.1 1.2 1.5 2.1 3 2.9 4.7.8 1.7 1.1 3.6.7 5.7-.2.5-.4 1-.7 1.6-.3.6-.7 1-1.2 1.4-.5.3-1 .5-1.6.6s-1.1.1-1.8.1zm2-2.5c.8-.5 1.2-1.2 1.2-2.2v-2.7l-1.7-3.6h-1l-2 .5c-.6 1-1.2 1.9-1.7 2.9s-.7 2.1-.5 3.4c.7.8 1.5 1.3 2.5 1.6 1 .3 1.9.4 2.9.4l.3-.3zM72.8 48.1l-4.1-2.5c-.6-.7-1.1-1.4-1.3-2.3-.2-.9-.3-1.8-.1-2.8l1.7-2.9c1-1 2.1-1.5 3.3-1.7 1.2-.2 2.5-.2 3.8 0l2.9 1c0-2.3.2-4.5.5-6.8s.9-4.4 1.7-6.4l1.2-.2c.3.3.5.7.5 1.1v1.1c-1 2.6-1.5 5.4-1.6 8.3-.1 2.9-.3 5.9-.6 8.8l.7 1.7c.5.3.9.7 1.3 1 .4.3.9.4 1.6.2l1.2-.2.5 1.5c-.3.5-.7.8-1.2.8-.5.1-1.1.1-1.7.1l-2.4-1-.5.7h-1l-1.7-.5c-.6.3-1.4.6-2.2.9-.9.2-1.7.3-2.5.1zm4.6-3.2c.7-.8 1-1.8 1.1-2.8.1-1.1.1-2.1.1-3-1-.3-2-.6-3.2-.9-1.1-.2-2.4-.3-3.7-.1-.5.3-1 .6-1.5 1-.5.3-.8.8-1 1.5V43l2.5 2.5 3.2.5 2.5-1.1zM102.3 51.5l-1-.7v-1c1.3-.8 2.6-1.8 3.9-2.9 1.3-1.1 2.3-2.4 2.9-3.9l1-10 1.2-.2c.5.6.7 1.4.6 2.3s-.1 1.7-.1 2.6c0 2.1-.2 4.1-.7 5.9-.5 1.8-1.5 3.4-3.1 4.9l-4.7 3zm7.7-23.4c-.5-.3-.7-.8-.7-1.3v-1.6l.7-1h1c.5.5.7 1 .6 1.6s-.1 1.2-.1 1.8l-1.5.5zM123 47.6c-1-.2-1.9-.4-2.8-.8-.9-.3-1.7-.9-2.3-1.7-.5-.5-.7-1.1-.7-1.8V41l3.6-6.6c.5-.5 1.1-.8 1.7-.8.7-.1 1.4-.1 2.2-.1 1.2 1.5 2.1 3 2.9 4.7.8 1.7 1.1 3.6.7 5.7-.2.5-.4 1-.7 1.6-.3.6-.7 1-1.2 1.4-.5.3-1 .5-1.6.6s-1.1.1-1.8.1zm2-2.5c.8-.5 1.2-1.2 1.2-2.2v-2.7l-1.7-3.6h-1l-2 .5c-.6 1-1.2 1.9-1.7 2.9s-.7 2.1-.5 3.4c.7.8 1.5 1.3 2.5 1.6 1 .3 1.9.4 2.9.4l.3-.3zM138.2 47l-4.6-1.5-.7 1.2h-1l-.7-2c1.1-2.8 1.8-5.7 1.9-8.8.2-3.1.4-6.2.7-9.3l1.2-.2c.3 1.3.5 2.8.5 4.4v4.6h.3c.5-.5 1.1-.8 1.7-1.1.7-.2 1.4-.3 2.2-.1l3.2 1c.8 1.2 1.4 2.4 1.7 3.8.3 1.4.4 2.8.2 4.2-.3.6-.8 1.2-1.3 1.8-.6.6-1.2 1-1.8 1.4l-3.5.6zm3-2.7c.8-.5 1.3-1.1 1.4-1.8.2-.7.2-1.5 0-2.3-.2-.5-.3-1-.5-1.6-.2-.6-.5-1.1-1-1.6l-3-.5c-.6.3-1.1.8-1.3 1.5-.2.6-.6 1.2-1.1 1.7l-1.2 3.4c.6.5 1.4.8 2.2 1.1.8.2 1.6.4 2.5.6l2-.5zM152.4 47.8l-1.9-1-.8-2c.2-.7.4-1.3.7-2s.8-1.2 1.5-1.7l1.7-.5 1.7 1.5.2 2.9-1.2 2-1.9.8zm-.5-13.4c-.8-1.3-1.2-2.8-1.1-4.4.1-1.6.1-3.2.1-4.6l1-2.2 1.2-.3.5 1.5c-.5 1.3-.7 2.6-.6 4 .1 1.4.1 2.8.1 4.3l.2 1.2-1.4.5z"/></g></svg>