<svg xmlns="http://www.w3.org/2000/svg" xmlns:xlink="http://www.w3.org/1999/xlink" viewBox="0 0 310.15 202.66"><defs><style>.cls-1,.cls-3{fill:#d1be96;stroke:#000}.cls-1{stroke-miterlimit:10}.cls-3,.cls-7{stroke-linejoin:round}.cls-3{stroke-width:1px}.cls-4{fill:#503014}.cls-7{fill:#1d3033;stroke:#1d3033;stroke-linecap:round;stroke-width:.66px}.cls-8{fill:#e98d4b}.cls-10{fill:#2e5731}.cls-11{fill:#308d3a}.cls-12{fill:#818e30}.cls-13{fill:#ec7b7b}</style><linearGradient id="名称未設定グラデーション_18" x1="138.52" y1="39.95" x2="223.8" y2="54.99" gradientUnits="userSpaceOnUse"><stop offset="0" stop-color="#fff" stop-opacity="0"/><stop offset="1" stop-color="#452c11" stop-opacity=".3"/></linearGradient><linearGradient id="名称未設定グラデーション_18-2" x1="228.52" y1="39.95" x2="313.8" y2="54.99" xlink:href="#名称未設定グラデーション_18"/><linearGradient id="名称未設定グラデーション_18-3" x1="48.52" y1="39.95" x2="133.8" y2="54.99" xlink:href="#名称未設定グラデーション_18"/></defs><g id="レイヤー_2" data-name="レイヤー 2"><g id="レイヤー_1-2" data-name="レイヤー 1"><path class="cls-1" d="M218.27 86.36c.61-8.54 1.38-20.62 1.38-27.54V2L145.47.51A138.66 138.66 0 0 0 144.8 27c1.22 17 2.47 37.41 2.12 45.86-.64 15.65-4.19 20.08-4.19 20.08l61.09 2.65z"/><path d="M218.27 86.36c.61-8.54 1.38-20.62 1.38-27.54V2L145.47.51A138.66 138.66 0 0 0 144.8 27c1.22 17 2.47 37.41 2.12 45.86-.64 15.65-4.19 20.08-4.19 20.08l61.09 2.65z" fill="url(#名称未設定グラデーション_18)"/><path class="cls-3" d="M204.83 86.4c3.94 3.28 13 .21 13 .21l-6.66 4.24-7.39 4.71s-.36-1.87 1.05-9.16z"/><g id="旗のフリーアイコンその3"><path id="パス_510" data-name="パス 510" class="cls-4" d="M178.38 33.15c5.14.89 17 7.58 15.39 12.47l-.46 2.12a10 10 0 0 0 10.05 6.14c-1.58 5.11-5.92 6.66-11.23 7-8-.46-6.94-2.75-6.94-2.75s6.62-3.52-13.92-5.83z"/><path id="パス_511" data-name="パス 511" class="cls-4" d="M161.11 68a2.08 2.08 0 0 1-2.11-2.07 2 2 0 0 1 .13-.73l13.31-35.72a2.08 2.08 0 1 1 3.94 1.33v.12l-13.3 35.72a2.09 2.09 0 0 1-1.97 1.35z"/></g><path class="cls-1" d="M308.27 86.36c.61-8.54 1.38-20.62 1.38-27.54V2L235.47.51A138.66 138.66 0 0 0 234.8 27c1.22 17 2.47 37.41 2.12 45.86-.64 15.65-4.19 20.08-4.19 20.08l61.09 2.65z"/><path d="M308.27 86.36c.61-8.54 1.38-20.62 1.38-27.54V2L235.47.51A138.66 138.66 0 0 0 234.8 27c1.22 17 2.47 37.41 2.12 45.86-.64 15.65-4.19 20.08-4.19 20.08l61.09 2.65z" fill="url(#名称未設定グラデーション_18-2)"/><path class="cls-3" d="M294.83 86.4c3.94 3.28 13 .21 13 .21l-6.66 4.24-7.39 4.71s-.36-1.87 1.05-9.16z"/><g id="旗のフリーアイコンその3-2" data-name="旗のフリーアイコンその3"><path id="パス_510-2" data-name="パス 510" class="cls-4" d="M268.38 33.15c5.14.89 17 7.58 15.39 12.47l-.46 2.12a10 10 0 0 0 10.05 6.14c-1.58 5.11-5.92 6.66-11.23 7-8-.46-6.94-2.75-6.94-2.75s6.62-3.52-13.92-5.83z"/><path id="パス_511-2" data-name="パス 511" class="cls-4" d="M251.11 68a2.08 2.08 0 0 1-2.11-2.07 2 2 0 0 1 .13-.73l13.31-35.72a2.08 2.08 0 1 1 3.94 1.33v.12l-13.3 35.72a2.09 2.09 0 0 1-1.97 1.35z"/></g><path class="cls-1" d="M128.27 86.36c.61-8.54 1.38-20.62 1.38-27.54V2L55.47.51A138.66 138.66 0 0 0 54.8 27c1.2 17 2.47 37.38 2.12 45.83-.64 15.65-4.19 20.08-4.19 20.08l61.09 2.65z"/><path d="M128.27 86.36c.61-8.54 1.38-20.62 1.38-27.54V2L55.47.51A138.66 138.66 0 0 0 54.8 27c1.2 17 2.47 37.38 2.12 45.83-.64 15.65-4.19 20.08-4.19 20.08l61.09 2.65z" fill="url(#名称未設定グラデーション_18-3)"/><path class="cls-3" d="M114.83 86.4c3.94 3.28 13 .21 13 .21l-6.66 4.24-7.39 4.71s-.36-1.87 1.05-9.16z"/><g id="旗のフリーアイコンその3-3" data-name="旗のフリーアイコンその3"><path id="パス_510-3" data-name="パス 510" class="cls-4" d="M88.38 33.15c5.14.89 17 7.58 15.39 12.47l-.46 2.12a10 10 0 0 0 10 6.14c-1.58 5.11-5.92 6.66-11.23 7-8-.46-6.94-2.75-6.94-2.75s6.62-3.52-13.92-5.83z"/><path id="パス_511-3" data-name="パス 511" class="cls-4" d="M71.11 68A2.08 2.08 0 0 1 69 65.93a2 2 0 0 1 .13-.73l13.33-35.72a2.08 2.08 0 1 1 3.94 1.33v.12L73.06 66.65A2.09 2.09 0 0 1 71.11 68z"/></g><g id="レイヤー_3" data-name="レイヤー 3"><path class="cls-7" d="M139.72 93.29a.33.33 0 0 0 .34-.29.49.49 0 0 0 0-.12c.31.29.61.6.9.92a.44.44 0 0 1 0 .61.42.42 0 0 1-.49.06 20.83 20.83 0 0 1-4.1-3.33c-1-.9-2-1.8-2.92-2.74a1.24 1.24 0 0 1 .05-.44c2 1.69 3.87 3.41 5.95 5.13.05.12.13.2.23.2zM134 104.85c3.9 2.43 7.79 7.51 6 12.28-2.59 6.76-8.23 9.48-13.33 13.89-.16-.08-.34-.15-.49-.21 2-2.3 5.23-3.3 7.36-5.69 2.64-2.94 5.48-5.53 6.18-9.63.64-3.8-2.8-8-5.77-10.33a2.87 2.87 0 0 0 .05-.31z"/><path class="cls-7" d="M139.51 92.39a2.38 2.38 0 0 1 .51.44.32.32 0 0 1-.22.4h-.19c-.08 0-.16-.13-.23-.2-.13-.36-.26-.72-.41-1.11a2.93 2.93 0 0 1 .54.47z"/><path class="cls-7" d="M140 92.83a2.38 2.38 0 0 0-.51-.44c-2.33-7.23-6.61-18.28-15-20.2a.33.33 0 0 0-.06-.23C133.62 73.52 137.77 85 140 92.83zM133.9 105.16c3 2.35 6.41 6.53 5.77 10.33-.7 4.1-3.54 6.69-6.18 9.63-2.13 2.39-5.31 3.39-7.36 5.69l-.43-.2c3.15-3.38 7.27-5.51 10.22-9.2 5.08-6.38 2.31-11-2.43-16.12a.27.27 0 0 0 .38-.08zM139.41 93.06c.07.07.15.12.23.2-.1 0-.18-.08-.23-.2zM139 92c.15.39.28.75.41 1.11-2.08-1.72-4-3.44-6-5.13a1.27 1.27 0 0 1 .05-.44c1.23.93 2.39 1.9 3.54 2.88.69.48 1.36.97 2 1.58z"/><path class="cls-7" d="M139.51 92.39A3.5 3.5 0 0 0 139 92c-2.85-7.69-6.2-16.48-14.43-19.45v-.31c8.33 1.87 12.61 12.92 14.94 20.15z"/><path class="cls-8" d="M139 92c-.64-.56-1.31-1-2-1.58-1.15-1-2.31-2-3.54-2.88v-.07a.25.25 0 0 0-.23-.25.2.2 0 0 0-.15 0l-.07-.07c-.29-.24-.62.25-.39.51a.91.91 0 0 0 .21.18c-.47 1.36-.75 2.79-1.08 4.18-.44 1.79-1.13 3.46-1.56 5.22a23.67 23.67 0 0 0-2.19-2.36 13.72 13.72 0 0 0-2.75-2.52c.18-1.56.26-3.15.29-4.76a80.37 80.37 0 0 0-1-15.1C132.8 75.47 136.15 84.26 139 92z"/><path d="M133.49 105.26c4.74 5.07 7.51 9.74 2.43 16.12-3 3.69-7.07 5.82-10.22 9.2a35.06 35.06 0 0 0-10.28-2.82c.79-1.18 1.48-2.62 2.33-3.64 1.23 1.23 2.25 2.77 3.84 3.51a.59.59 0 0 0 .8.22.63.63 0 0 0 .3-.51c.72-8.1 2.18-17.14.72-25.24v-.1a58.57 58.57 0 0 0 1.72-9c.54.77 1.2 1.46 1.77 2.16a8.42 8.42 0 0 0 3 2.84c.31.1.69-.13.59-.43a.33.33 0 0 0 .25-.13 12.34 12.34 0 0 0 1.39-2.85c.1.64.2 1.26.31 1.85.41 2.66.36 5.41.79 8a.28.28 0 0 0 0 .38l.08.08s.05 0 .05.08a.14.14 0 0 0-.06.19.14.14 0 0 0 .19.09zm-2.11 3.13c.26-1.52 1.7-8.36-1.4-7.77-2.57.48-.54 7.33.59 8.46.25.28.79-.11.53-.41a.3.3 0 0 0 .28-.28z" fill="#f7e5d7"/><path class="cls-7" d="M135.13 137.79a.56.56 0 0 0 .05-.72.55.55 0 0 1 .59.49.69.69 0 0 1-.05.28c-2.21 4.53-6.31 8.33-10.49 11a.43.43 0 0 1-.28.11 2.79 2.79 0 0 0-.1-.39.28.28 0 0 0-.33-.22.26.26 0 0 0-.18.12.6.6 0 0 1 .12-.64c3.34-3.36 6.92-6.33 9.92-10a.54.54 0 0 0 .75-.03z"/><path class="cls-7" d="M135.18 137.07a.56.56 0 0 1-.05.72.54.54 0 0 1-.69.1c.18-.2.33-.43.51-.64a.31.31 0 0 1 .23-.18z"/><path class="cls-7" d="M115.13 128.17c.11-.12.18-.25.29-.38a35.09 35.09 0 0 1 10.28 2.79.46.46 0 0 0 .66.64l.26-.23a29.64 29.64 0 0 1 8.51 6s.05 0 .05.08a.32.32 0 0 0-.26.15c-.18.21-.33.44-.51.64-2.92-1.84-5.53-4.07-8.66-5.64a47.85 47.85 0 0 0-10.9-3.64 4.21 4.21 0 0 0 .28-.41zM134.23 98.82c.26 2 .59 4.1-.23 6-.1-.08-.23-.16-.33-.23.48-3.54-.57-8-1.11-11.41a9.27 9.27 0 0 0 .34-1.38 43 43 0 0 1 1.33 7.02zM134 104.85a2.81 2.81 0 0 1-.1.31c-.1-.06-.18-.13-.28-.18v-.33a1.12 1.12 0 0 1 .38.2z"/><path class="cls-7" d="M133.62 105c.1 0 .18.12.28.18a.28.28 0 0 1-.38.12c-.05 0-.08-.08-.13-.1s0-.06-.05-.08 0-.31-.08-.46a.26.26 0 0 1 .33 0h.11c-.04.05-.06.17-.08.34z"/><path class="cls-7" d="M132.56 93.21c.54 3.46 1.59 7.87 1.11 11.41h-.11a.26.26 0 0 0-.33 0c-.43-2.64-.38-5.39-.79-8-.11-.59-.21-1.21-.31-1.85a10.6 10.6 0 0 0 .43-1.56zM133.13 87.21a.23.23 0 0 1 .33.06.27.27 0 0 1 0 .15v.07a2.2 2.2 0 0 1-.33-.28zM133.21 87.7l-.26-.21a.38.38 0 0 1 0-.15.31.31 0 0 1 .1-.13 2.2 2.2 0 0 0 .38.28 1.38 1.38 0 0 1-.05.44c0-.08-.1-.15-.17-.23zM133.36 105.16l.13.1a.12.12 0 0 1-.13-.1z"/><path class="cls-7" d="M133.46 87.93a1.42 1.42 0 0 1-.05.44 2.87 2.87 0 0 1-.31-.29 1.66 1.66 0 0 1 .11-.38c.07.08.17.15.25.23z"/><path class="cls-7" d="M133.1 88.08a2.87 2.87 0 0 0 .31.29c-.12 1.15-.29 2.28-.51 3.41-.1-.31-.21-.62-.34-.93.16-.95.36-1.85.54-2.77zM133.23 104.58a1 1 0 0 0 .08.46l-.08-.08a.28.28 0 0 1 0-.38zM133.21 87.7a1.66 1.66 0 0 0-.11.38.85.85 0 0 1-.25-.25 1 1 0 0 1 .1-.34z"/><path class="cls-7" d="M133 87.49a1 1 0 0 0-.1.34.91.91 0 0 1-.21-.18c-.23-.26.1-.75.39-.51l.07.07a.31.31 0 0 0-.1.13.44.44 0 0 0-.05.15zM132 93.21a9.33 9.33 0 0 0 .18 1.49 12.29 12.29 0 0 1-1.43 2.88.33.33 0 0 1-.25.13.14.14 0 0 0-.05-.13 2.54 2.54 0 0 1-.23-.34c.43-1.76 1.12-3.43 1.56-5.22.33-1.39.61-2.82 1.08-4.18a.85.85 0 0 0 .25.25c-.18.9-.38 1.82-.59 2.72a.25.25 0 0 0-.34-.07.22.22 0 0 0-.09.12 6.87 6.87 0 0 0-.09 2.35z"/><path class="cls-7" d="M132.9 91.78a9.27 9.27 0 0 1-.34 1.38c-.07-.58-.15-1.15-.2-1.66a3.63 3.63 0 0 0 .15-.67 3.77 3.77 0 0 1 .39.95z"/><path class="cls-7" d="M132.56 93.18a10.62 10.62 0 0 1-.43 1.49 9.33 9.33 0 0 1-.18-1.49c.15-.56.28-1.13.41-1.69.05.51.13 1.09.2 1.69z"/><path class="cls-7" d="M132.36 91.47c-.13.56-.26 1.13-.41 1.69a6.94 6.94 0 0 1 .13-2.36.24.24 0 0 1 .3-.15.32.32 0 0 1 .13.1 2.88 2.88 0 0 1-.15.72zM130 100.58c3.1-.59 1.66 6.25 1.4 7.77a.3.3 0 0 1-.28.28 1.35 1.35 0 0 1-.15-.26v-.13c.18-1.13 1.13-7.18-.59-7.18-2.08-.21-.56 6.82.39 7.77l.07-.18a.45.45 0 0 0 .23 0c.26.3-.28.69-.53.41-1.1-1.06-3.13-7.96-.54-8.48z"/><path class="cls-7" d="M130.41 101.08c1.72 0 .77 6 .59 7.18v.13a2.4 2.4 0 0 1-.31-.62c.16-1 .28-2 .34-3a9 9 0 0 0-.11-2.26c0-.25-.43-1.38-.77-.69-.51 1.1-.18 2.74 0 3.87a14.28 14.28 0 0 0 .49 2.13 2.32 2.32 0 0 1 0 .38.45.45 0 0 0 .28.52l-.07.18c-1-1-2.52-8.03-.44-7.82z"/><path class="cls-7" d="M131 108.41a1.35 1.35 0 0 0 .15.26.45.45 0 0 1-.23 0zM130.87 102.46a9 9 0 0 1 .11 2.26c-.06 1-.18 2-.34 3a14.28 14.28 0 0 1-.49-2.13c-.23-1.13-.56-2.77 0-3.87.29-.64.67.49.72.74zM131 108.39l-.08.26a.45.45 0 0 1-.28-.52 2.32 2.32 0 0 0 .05-.38 2.23 2.23 0 0 0 .31.64zM125.21 92.7a1.61 1.61 0 0 0 0-.31 14 14 0 0 1 2.79 2.49 24.77 24.77 0 0 1 2.23 2.35.06.06 0 0 0 0 .08.29.29 0 0 0 .16.38.38.38 0 0 0 .15 0c.1.3-.28.53-.59.43a8.42 8.42 0 0 1-3-2.84c-.57-.7-1.23-1.39-1.77-2.16.01-.12.02-.27.03-.42z"/><path class="cls-7" d="M130.44 97.58a.28.28 0 0 1 .05.13.29.29 0 0 1-.33-.25.24.24 0 0 1 0-.14.06.06 0 0 1 0-.08 2.78 2.78 0 0 0 .28.34zM40.9 195.18c.44-.23.85-.44 1.28-.62 6.39 4.28 16.89 4.21 24.12 4.72 7.46.54 15 1.23 22.43 1.28 7.08.05 14.2-.82 21.25-1.46 5.92-.54 12-.82 17.69-2.92a.09.09 0 0 0 0 .07.18.18 0 0 0 .27 0 .19.19 0 0 0 .09-.14.37.37 0 0 1 .1.51.27.27 0 0 1-.1.11c-4.84 2.41-10.25 3-15.58 3.69-7.77 1-15.92 2.07-23.74 1.84-8.28-.25-16.56-.84-24.76-1.77-3.2-.35-6.41-.71-9.56-1.3-4.38-.82-9.1-2.75-13.56-2.8-2.13 0-1.13-3 .28-2.56a11.39 11.39 0 0 0-1.13.79c-.41.34.11.9.52.7a2.43 2.43 0 0 1 .4-.14z"/><path class="cls-7" d="M128.08 196a.54.54 0 0 1 0 .18.74.74 0 0 0-.21 0c-1.61-1.23-1.12-6.08-1.07-7.84.13-4.21 0-8.31-.21-12.54-.2-6.48.18-13.15-.56-19.43-.39-2.56-1.44-4.89-1.49-7.43a.65.65 0 0 0 .41.13c2.26 7.3 2.46 14.17 2.51 21.84 0 5 .36 10 .11 14.91-.16 2.92-1.16 7.46.51 10.18z"/><path class="cls-7" d="M127.87 196.1h.21a.21.21 0 0 1-.22.18.16.16 0 0 1-.14-.08.09.09 0 0 1 0-.07h.13z"/><path class="cls-7" d="M127.87 196.1h-.2c-3.38-4-1.62-13.2-1.87-17.95 0-1.05-.1-2.12-.1-3.17-.13-4.67 0-9.33-.24-14-.23-4.13-1.71-8.28-1.23-12.38 0-.08.06-.13.11-.18a.57.57 0 0 0 .2.36c0 2.54 1.1 4.87 1.49 7.43.74 6.28.36 13 .56 19.43.18 4.23.34 8.33.21 12.54-.05 1.82-.54 6.69 1.07 7.92z"/><path class="cls-10" d="M125.72 132.22c3.13 1.57 5.74 3.8 8.66 5.64-3 3.67-6.58 6.64-9.92 10a.6.6 0 0 0-.12.64s-.11.1-.11.18c-.48 4.1 1 8.25 1.23 12.38.29 4.67.11 9.33.24 14h-.9c0-5.87-2.62-12-5.72-16.71-7.46-11.11-21.89-16.31-34.86-16.46a63 63 0 0 0 10.51-2.82.1.1 0 0 0-.08.1c-.25 1.33 1 2.56 1.9 3.46a.59.59 0 0 0 .82 0c1.1-1.08 2.18-2.15 3.18-3.31a20.74 20.74 0 0 0 1.38-1.76c.38-.58.82-1.82 1.46-2.08a1.44 1.44 0 0 0 .7-.59 55.61 55.61 0 0 0 3.35 8.15.52.52 0 0 0 .73.17.69.69 0 0 0 .17-.17 87.3 87.3 0 0 0 5.2-13.33 5.23 5.23 0 0 0 1.31-1.13 48.1 48.1 0 0 1 10.87 3.64z"/><path class="cls-7" d="M126.13 130.81c.15.06.33.13.49.21l-.26.23a.47.47 0 0 1-.66 0 .46.46 0 0 1 0-.63z"/><path class="cls-10" d="M125.8 178.23c.25 4.75-1.51 14 1.87 18-5.68 2.1-11.77 2.4-17.68 2.92-7 .64-14.17 1.51-21.25 1.46-7.48 0-15-.74-22.43-1.28-7.23-.51-17.73-.44-24.12-4.72 5.9-2.59 12-2.95 18.13-5a.7.7 0 0 0 .46-.84.91.91 0 0 1 .1-.1c1-2 2-4 2.79-6.13a19.22 19.22 0 0 0 1.77-5.28 28.68 28.68 0 0 1 4.9 3.59c6.25 5.71 10.87 10.94 18.89 14.3 6.33 2.64 15.74 3 21.94-.33 6.36-3.36 12.2-9.46 13.41-16.69a20 20 0 0 0 .23-3h.9c-.01.98.04 2.05.09 3.1z"/><path class="cls-7" d="M124.57 72.5a80.37 80.37 0 0 1 1 15.1 41.52 41.52 0 0 1-.29 4.76 1 1 0 0 0-.23-.12c-.15-.08-.36.1-.25.25a5.11 5.11 0 0 0 .41.62 58.57 58.57 0 0 1-1.72 9 5.11 5.11 0 0 0-.15-.87c0-.1-.08-.15-.18-.13 1.59-4.46 1.59-8.79 1.64-13.48a75.53 75.53 0 0 0-1.39-15c-.74-4-1.36-8.63-4.07-11.81-6.26-7.24-19.41-8.44-28.12-6A29.43 29.43 0 0 0 83 59.17a32.31 32.31 0 0 0-3.33 2h-.08c-2 1.23-4.28 2.72-4.92 4.49h-.28c1.46-3.26 4.77-4.44 7.61-6.46a30.1 30.1 0 0 1 13.79-6c7-1 16.2.06 21.76 4.85 3.87 3.31 5.92 8.41 7 13.84a5 5 0 0 0-.66-.1c-.21 0-.23.31 0 .36s.45.24.68.35z"/><path class="cls-7" d="M125.21 92.67a2.8 2.8 0 0 1 0 .41 5.11 5.11 0 0 1-.41-.62c-.11-.15.1-.33.25-.25a1 1 0 0 1 .23.12 3.4 3.4 0 0 1-.07.34zM124.54 148.86a.57.57 0 0 1-.2-.36.27.27 0 0 1 .38-.08.29.29 0 0 1 .13.18 2.79 2.79 0 0 1 .1.39.65.65 0 0 1-.41-.13z"/><path class="cls-7" d="M123.36 72.65a75.53 75.53 0 0 1 1.39 15c0 4.69 0 9-1.64 13.48a.22.22 0 0 0-.26.2v.87a48.78 48.78 0 0 1-1.36 4.76c-.9 2.23-2.18 4.28-3 6.54a64 64 0 0 1-4.07 8.87.33.33 0 0 0-.46.08.27.27 0 0 0-.06.17c0 .24 0 .47-.07.7a32.06 32.06 0 0 1-9.72 10.25 1.07 1.07 0 0 0-.41-.38.89.89 0 0 0-.49-.16 35.4 35.4 0 0 0 12.18-14.3c3.79-8.28 8.23-17.3 8.49-26.56a87.24 87.24 0 0 0-.8-16.86c-.51-2.95-.82-6.72-2-9.82a11.14 11.14 0 0 0-1.43-2.84c-5.36-7.54-16.51-9.54-25.2-7.9A43.59 43.59 0 0 0 83 59.17a29.06 29.06 0 0 1 8.28-4.36c8.66-2.43 21.81-1.23 28 6 2.72 3.19 3.34 7.84 4.08 11.84zM124.8 175.08a20 20 0 0 1-.23 3c-1.21 7.23-7 13.33-13.41 16.69-6.2 3.3-15.61 3-21.94.33-8-3.36-12.64-8.59-18.89-14.3a28.68 28.68 0 0 0-4.9-3.59 1.34 1.34 0 0 1 .08-.56.23.23 0 0 0-.23-.2.21.21 0 0 0-.15.09 1.7 1.7 0 0 0-.18.39 70.17 70.17 0 0 0-9.49-4.16 11.47 11.47 0 0 1-5-3.48c-3.39-4.38-5-11.31-1.62-16.07h.1c-1.74 2.13-1.66 4.66-1.4 7.46a14.65 14.65 0 0 0 1.53 5.69c2.21 4.1 5.21 5.64 9.59 6.89a28.23 28.23 0 0 1 7.46 3.39c6.18 4 9.87 10.53 16.25 14.35 7.15 4.31 13.56 6.41 22 5.05 4.69-.77 7.31-1.56 10.9-4.66a38.57 38.57 0 0 0 6.72-7.31 13.91 13.91 0 0 0 2.18-8.33c-.46-21.56-20.71-33.53-40.55-33.74a3.46 3.46 0 0 0 .61-.12c13 .15 27.4 5.35 34.86 16.48 3.09 4.69 5.71 10.84 5.71 16.71zM124.52 72.19v.31c-.27-.11-.55-.2-.82-.28s-.16-.39 0-.36a5 5 0 0 1 .66.1.33.33 0 0 1 .16.23z"/><path class="cls-7" d="M124.16 175.75a14 14 0 0 1-2.17 8.33 38.63 38.63 0 0 1-6.74 7.36c-3.59 3.1-6.21 3.89-10.9 4.66-8.43 1.36-14.84-.74-22-5-6.35-3.87-10.07-10.43-16.25-14.4a28.23 28.23 0 0 0-7.46-3.39c-4.38-1.25-7.38-2.79-9.59-6.89a14.65 14.65 0 0 1-1.53-5.69c-.26-2.8-.34-5.33 1.4-7.46l.18.1c-2.66 4.43-1.53 11.79 2.11 15.35 2.82 2.75 6 3.26 9.53 4.69a33.74 33.74 0 0 1 11.74 8c5.41 5.62 11 11.08 18.76 13.28 6.26 1.79 15.08 2.28 20.82-1.54 8.43-5.64 13.53-13.84 10.76-24.17a31.06 31.06 0 0 0-8.53-14.87c-8.59-8-19.64-11.43-31.22-12H83a2.91 2.91 0 0 0 .56-.11h.06c19.83.22 40.08 12.19 40.54 33.75z"/><path class="cls-11" d="M123.08 75.32a87.24 87.24 0 0 1 .8 16.86c-.26 9.26-4.7 18.28-8.49 26.56A35.48 35.48 0 0 1 103.21 133a1.32 1.32 0 0 0-1.35.9 49.06 49.06 0 0 1-33.58 6.54c-14.72-2.47-18.77-20.2-19.51-33l.41.64c3.18 5 6.67 10.84 12.2 13.38 9.2 4.2 22.51-.57 29.81-6.67a.43.43 0 0 0 .16-.3A26.58 26.58 0 0 0 102.27 104a9.18 9.18 0 0 0 1.12-4.39c3.54 2.23 13.85 1 15.92.65a.5.5 0 0 0 .35-.61v-.11c-2.38-4.69-5.31-10.64-10.87-11.1a16.7 16.7 0 0 0 3.9-2.36c5.92-5 6.61-12.71 6.51-20a.94.94 0 0 0-.23-.52l2.2-.1c1.09 3.12 1.4 6.91 1.91 9.86z"/><path class="cls-7" d="M123.44 102.16c1.46 8.1 0 17.14-.72 25.24a.61.61 0 0 1-.6.59.6.6 0 0 1-.5-.3l.23.1a.4.4 0 0 0 .48-.29.43.43 0 0 0-.1-.38l-.1-.1c0-7.77 1.41-16.46 1-23.91a9.59 9.59 0 0 0 .31-.95z"/><path class="cls-7" d="M123.29 101.23a5.47 5.47 0 0 0 .15.87v.06c-.1.33-.18.64-.28 1 0-.61 0-1.21-.11-1.82a.33.33 0 0 1 .06-.19c.1-.07.15-.02.18.08z"/><path class="cls-7" d="M123.16 103.11c.38 7.45-1 16.14-1 23.91-.23-.2-.43-.41-.64-.62-.33-7 .51-14.2 1.08-21.24v-.08c.17-.67.4-1.31.56-1.97z"/><path class="cls-7" d="M123.05 101.29c.06.61.1 1.21.11 1.82-.18.66-.39 1.3-.59 2 .07-1 .15-2 .23-2.92.08-.34.2-.61.25-.9z"/><path class="cls-12" d="M122.82 169c2.77 10.33-2.33 18.53-10.76 24.17-5.74 3.82-14.56 3.33-20.82 1.54-7.76-2.2-13.35-7.66-18.76-13.28a33.74 33.74 0 0 0-11.74-8c-3.51-1.43-6.71-1.94-9.53-4.69-3.64-3.56-4.77-10.92-2.11-15.35 2.44 1.15 4.9 2.26 7.39 3.23 5.87 2.31 11.79 4.46 17.53 7.15 4 1.87 8.3 3.87 12.69 4.69a11.73 11.73 0 0 0 2.53 5.49c2.75 3.18 8.82 6.12 12.33 2.43 5-5.2-6.46-17.89-12.07-13a2.59 2.59 0 0 0-.9.39c-9.18-5.82-20.43-7.9-29.84-13.2-1.89-1.08-3.82-2.06-5.79-3A12 12 0 0 1 58.4 143a18 18 0 0 1 4-1.31c1.13-.26 2.31-.18 3.38-.51.7.25 1.44.49 2.18.69a37.48 37.48 0 0 0 15 .29h.08c11.58.54 22.63 3.92 31.22 12a31.16 31.16 0 0 1 8.56 14.84z"/><path class="cls-7" d="M123.11 101.08a.33.33 0 0 0-.06.19c-.1.28-.17.56-.25.87v-.87a.22.22 0 0 1 .25-.2zM122.8 102.16c-.08 1-.16 1.94-.23 2.92v.08a109.35 109.35 0 0 1-5 12.48 50.58 50.58 0 0 1-3.08 5.71v-.77a.33.33 0 0 0-.12-.25 64 64 0 0 0 4.07-8.87c.82-2.26 2.1-4.31 3-6.54a48.78 48.78 0 0 0 1.36-4.76zM121.52 127.12v-.72c.21.21.41.42.64.62l.1.1a.41.41 0 0 1 0 .57.37.37 0 0 1-.37.1l-.23-.1a.57.57 0 0 1 0-.26 1.69 1.69 0 0 0-.14-.31zM121.54 127.4a.57.57 0 0 0 0 .26c-1.59-.74-2.61-2.28-3.84-3.51a1.75 1.75 0 0 1 .33-.44 27 27 0 0 0 3.44 3.41 2.86 2.86 0 0 1 .07.28z"/><path class="cls-7" d="M121.49 126.4v.72a27 27 0 0 1-3.44-3.41c-.13-.15-.25-.25-.38-.38-.13.13-.23.25-.34.38-1.41 1.54-2.28 3.51-3.59 5.13a13.57 13.57 0 0 0 .28-1.44c.31-.41.59-.82.84-1.2a19.61 19.61 0 0 1 2.41-3.26.62.62 0 0 1 .77 0c1.22 1.11 2.3 2.34 3.45 3.46z"/><path class="cls-8" d="M122.57 105.16c-.57 7-1.41 14.25-1.08 21.24-1.15-1.12-2.23-2.35-3.41-3.46a.62.62 0 0 0-.77 0 19.61 19.61 0 0 0-2.41 3.26c-.25.38-.53.79-.84 1.2a25.62 25.62 0 0 0 .43-4 50.58 50.58 0 0 0 3.08-5.71 110.1 110.1 0 0 0 5-12.53z"/><path class="cls-11" d="M121.13 65.5l-2.2.1a.87.87 0 0 0-.69-.18c-5.75 1.16-12.44 1.21-16.25 6.34a17.31 17.31 0 0 0-2.64 5.1c-1.46-2.59-3.15-5.85-5.77-7.23-4.15-2.18-9.25-2.39-13.81-3.13-1.59-.26-3.18-.49-4.8-.69a16 16 0 0 1 4.54-4.54h.08c1-.56 1.89-1.1 2.56-1.54l.84-.56a43.59 43.59 0 0 1 11.46-4.41c8.69-1.64 19.84.36 25.25 7.9a11.14 11.14 0 0 1 1.43 2.84z"/><path class="cls-7" d="M119.62 99.58a.5.5 0 0 1-.21.68h-.1c-2.07.33-12.38 1.58-15.92-.65a3.35 3.35 0 0 0 0-1c3.1 2.61 12.87 1.69 15.81 1.2-3-5.92-4.69-10.3-11.17-11a5.4 5.4 0 0 0 .74-.33c5.54.45 8.47 6.4 10.85 11.1zM119.16 66.12c.1 7.28-.59 15-6.51 20a16.7 16.7 0 0 1-3.9 2.36 9 9 0 0 0-2.74.18c-.08 0 0 .1 0 .13l1.2.3a13.2 13.2 0 0 1-6.61.77 2.33 2.33 0 0 0 .31-.38 17.14 17.14 0 0 0 2.34-.34c3.53-.64 7.74-2.07 10.35-4.69 4.44-4.43 5-12.4 4.82-18.32-5 1.1-11.66 1.1-15.2 5.17a23.27 23.27 0 0 0-3.33 6.62.29.29 0 0 0 0-.13c-.18-.31-.36-.62-.51-.92a17.31 17.31 0 0 1 2.64-5.1c3.79-5.13 10.48-5.21 16.23-6.34a.87.87 0 0 1 .69.18.94.94 0 0 1 .22.51z"/><path class="cls-13" d="M118.67 99.39c-.43.08-.87.13-1.31.18a40.89 40.89 0 0 1-7.66.28 11.61 11.61 0 0 1-6.46-2.36 20.77 20.77 0 0 0-3.24-7.28 1.45 1.45 0 0 0 .59-.36 13.2 13.2 0 0 0 6.61-.77c3 .75 5.51 1.29 7.64 4a27.46 27.46 0 0 1 2.3 3.92c.41.75.79 1.52 1.18 2.26a1.06 1.06 0 0 0 .35.13z"/><path class="cls-7" d="M117.36 99.58c.44 0 .88-.1 1.31-.18-.13-.05-.23-.08-.33-.13-.39-.74-.77-1.51-1.18-2.26a27.46 27.46 0 0 0-2.31-3.87c-2.13-2.76-4.61-3.3-7.64-4a7.94 7.94 0 0 0 .77-.28c6.48.72 8.12 5.1 11.17 11-2.94.49-12.71 1.41-15.81-1.2a6.11 6.11 0 0 0-.13-1.13 11.61 11.61 0 0 0 6.46 2.36 40.39 40.39 0 0 0 7.69-.31zM118.44 66.12c.18 5.92-.38 13.89-4.82 18.32-2.61 2.62-6.82 4-10.35 4.69a17.14 17.14 0 0 1-2.34.34 1 1 0 0 0-.32-1.38l-.24-.11a2.3 2.3 0 0 1-1-1 7.75 7.75 0 0 0 7.46.61c5.3-2 9-5.33 10.12-11.07.54-2.62 2.82-9.84-1.43-9.15-3 .48-6.82.79-9.38 2.54s-9.39 13-6.77 17.07a4.44 4.44 0 0 1-.62-.41c-.41-2.36.16-5.49 1.11-8.38a.3.3 0 0 0 .1-.31 23.27 23.27 0 0 1 3.33-6.62c3.49-4.04 10.15-4.04 15.15-5.14zM117.7 123.33c.13.13.25.23.38.38h-.72c.11-.13.21-.25.34-.38zM118.08 123.71a1.75 1.75 0 0 0-.33.44c-.13-.14-.27-.28-.41-.41z"/><path class="cls-7" d="M117.34 123.74c.14.13.28.27.41.41a42.2 42.2 0 0 0-2.33 3.64h-.49a.4.4 0 0 0-.13.79 5.07 5.07 0 0 1-1.31 1.18 5.43 5.43 0 0 0 .18-.82c1.39-1.69 2.26-3.66 3.67-5.2z"/><path class="cls-13" d="M115.47 67.4c4.25-.69 2 6.53 1.43 9.15-1.15 5.74-4.82 9-10.12 11a7.75 7.75 0 0 1-7.46-.55c-2.62-4 4.2-15.33 6.77-17.07s6.38-2.05 9.38-2.53z"/><path class="cls-7" d="M115.13 128.17a3.44 3.44 0 0 1-.28.36c-.43-.1-.36-.84.13-.79h.49c-.16.18-.23.31-.34.43zM114.49 122.58v.77a5.5 5.5 0 0 1-.36.57c0-.41.06-.82.06-1.26a2.48 2.48 0 0 1 .18-.31.35.35 0 0 1 .12.23z"/><path class="cls-7" d="M114.13 123.92a5.5 5.5 0 0 0 .36-.57 25.62 25.62 0 0 1-.43 4c-.2.31-.43.62-.64 1a22.86 22.86 0 0 0 .71-4.43zM114.19 122.64l-.06.08a3.84 3.84 0 0 1-.35.54c0-.23.06-.46.07-.7a.32.32 0 0 1 .34-.31.55.55 0 0 1 .18.06 2.68 2.68 0 0 0-.18.33z"/><path class="cls-7" d="M114.19 122.66a8.65 8.65 0 0 1-.06 1.26 5.45 5.45 0 0 1-.53.79c.07-.46.15-.94.18-1.43a3.84 3.84 0 0 0 .35-.54z"/><path class="cls-7" d="M113.6 124.71a5.45 5.45 0 0 0 .53-.79 23.21 23.21 0 0 1-.74 4.46 4.51 4.51 0 0 0-.59 1.13c-.08.15 0 .28.18.31-1.26 4.12-3.28 8.09-4.82 12.17-.1-.26-.2-.54-.31-.79 1.93-5.57 4.8-10.62 5.75-16.49zM114 127.43a13.57 13.57 0 0 1-.28 1.44c-.21.24-.42.46-.64.67.11-.36.21-.75.31-1.13.21-.36.44-.67.61-.98z"/><path class="cls-7" d="M113.78 123.28a9 9 0 0 1-.18 1.43 36 36 0 0 1-9.26 9.56 1 1 0 0 0-.21-.72 32.12 32.12 0 0 0 9.65-10.27zM113.08 129.58c.22-.21.43-.43.64-.67a5.43 5.43 0 0 1-.18.82c-.1.05-.23.1-.33.16a.45.45 0 0 1-.23 0 .87.87 0 0 1 .08-.26z"/><path class="cls-7" d="M113.21 129.87c.1-.06.23-.11.33-.16-1.17 4.61-3.3 9.08-5.2 13.33a.53.53 0 0 1-.73.17.46.46 0 0 1-.17-.17 55.61 55.61 0 0 1-3.35-8.15 1.24 1.24 0 0 0 .15-.33c1.31 2.33 2.18 5 3.33 7.48a4.1 4.1 0 0 0-.2.59h.46a.15.15 0 0 0 0 .13v-.13h.46c-.07-.2-.15-.38-.23-.59 1.54-4.08 3.56-8 4.82-12.17a.47.47 0 0 0 .33 0z"/><path class="cls-7" d="M112.8 129.58a4.51 4.51 0 0 1 .59-1.13c-.1.38-.2.77-.31 1.13a.44.44 0 0 1-.08.26c-.08.08-.28-.13-.2-.26z"/><path class="cls-8" d="M113.6 124.71c-1 5.9-3.82 10.92-5.75 16.54a24.21 24.21 0 0 0-3.51-7 35.92 35.92 0 0 0 9.26-9.54z"/><path class="cls-7" d="M108 88.8a7.94 7.94 0 0 1-.77.28l-1.2-.3s-.08-.13 0-.13a9 9 0 0 1 2.74-.18 5.4 5.4 0 0 1-.74.33zM108.16 142c.08.21.16.39.23.59h-.46a4 4 0 0 1 .23-.59z"/><path class="cls-7" d="M108.16 142c-.1.21-.15.39-.23.59h-.1a4.41 4.41 0 0 1-.26-.59 4.65 4.65 0 0 1 .28-.79 5.88 5.88 0 0 1 .31.79zM107.93 142.63v.13a.15.15 0 0 1 0-.13z"/><path class="cls-7" d="M107.85 141.25a4.65 4.65 0 0 0-.28.79c-1.15-2.51-2-5.15-3.33-7.48a.38.38 0 0 0 0-.21 24.32 24.32 0 0 1 3.61 6.9z"/><path class="cls-7" d="M107.57 142a4.41 4.41 0 0 0 .26.59h-.46a4.1 4.1 0 0 1 .2-.59zM102.65 135.4a4.53 4.53 0 0 1-.64.36 1 1 0 0 0 0-.85 21.16 21.16 0 0 0 2.1-1.33 1 1 0 0 1 .21.72.22.22 0 0 0-.31.06.2.2 0 0 0 0 .2c-.49.28-.9.56-1.36.84z"/><path class="cls-7" d="M104.29 134.32c-.13.08-.23.16-.33.21a.21.21 0 0 1 .08-.3.23.23 0 0 1 .25 0z"/><path class="cls-7" d="M104.24 134.58a1.24 1.24 0 0 1-.15.33c-.06-.13-.08-.23-.13-.36s.2-.13.33-.21a.39.39 0 0 1-.05.24z"/><path class="cls-7" d="M96.58 141.78a2.93 2.93 0 0 0 .38.41l.41-.41c1.87-1.72 4.23-4 5.28-6.41.46-.28.87-.56 1.31-.87a.87.87 0 0 0 .13.36 1.44 1.44 0 0 1-.7.59c-.64.26-1 1.54-1.46 2.08s-.89 1.17-1.38 1.76c-1 1.16-2.08 2.23-3.18 3.31a.59.59 0 0 1-.82 0c-.87-.9-2.15-2.13-1.9-3.46a.1.1 0 0 1 .08-.1l.18-.08a.24.24 0 0 1 .12 0c.93.41 1.39 1.51 2 2.35a2.91 2.91 0 0 1-.45.47zM103.7 133.15a1.07 1.07 0 0 1 .41.38 20.6 20.6 0 0 1-2.12 1.36 1 1 0 0 1-.1-1l1.35-.9a.88.88 0 0 1 .46.16zM103.37 98.58a3.35 3.35 0 0 1 0 1 2.63 2.63 0 0 1-.64-.56c0-.44 0-.87-.07-1.31a2 2 0 0 0 .71.87z"/><path class="cls-7" d="M103.24 97.49a6.11 6.11 0 0 1 .13 1.13 2 2 0 0 1-.69-.85c0-.22-.06-.44-.11-.66a.2.2 0 0 1 .11 0 5.06 5.06 0 0 0 .56.38z"/><path class="cls-7" d="M103.24 97.49c-.18-.1-.36-.23-.56-.36h-.11a18.34 18.34 0 0 0-3-6.77 1.09 1.09 0 0 0 .49-.13 21 21 0 0 1 3.18 7.26zM101.86 133.89a1.32 1.32 0 0 1 1.35-.9zM102.75 99.08a2.63 2.63 0 0 0 .64.56 9.18 9.18 0 0 1-1.12 4.39 26.58 26.58 0 0 1-10.92 10.46.55.55 0 0 0-.49-.54v-.08c4.46-2.33 9.53-6.71 11.28-11.46a11.73 11.73 0 0 0 .61-3.33z"/><path class="cls-7" d="M102.68 97.77c0 .44.07.87.07 1.31a2 2 0 0 1-.53-1.77.28.28 0 0 1 .35-.2c.05.22.08.44.11.66z"/><path class="cls-8" d="M102 135.76a4.53 4.53 0 0 0 .64-.36c-1 2.41-3.41 4.69-5.28 6.41a2 2 0 0 1-.33-.44c.84-.74 1.69-1.51 2.48-2.33a10.68 10.68 0 0 0 2.49-3.28z"/><path class="cls-7" d="M102.57 97.11a.28.28 0 0 0-.35.2 2 2 0 0 0 .53 1.77 11.73 11.73 0 0 1-.61 3.33c-1.75 4.75-6.82 9.17-11.28 11.46l-.15-.85c3.71-2 7.4-4.84 9.53-8.56 3-5.33 1.46-9.63-1.46-14.4a.11.11 0 0 1 0-.11.84.84 0 0 0 .77.39 18.21 18.21 0 0 1 3.02 6.77zM89.5 163.32c5.61-4.85 17 7.84 12.07 13-3.51 3.69-9.58.75-12.33-2.43a11.73 11.73 0 0 1-2.53-5.49l.48.08c.67 4.41 6.36 9.23 10.85 8.69 9.84-1.33-1.72-18-8.33-13.25v-.34a.64.64 0 0 0 .1-.13.13.13 0 0 0-.15-.18c-.15.02-.11.02-.16.05zM102 134.91a1 1 0 0 1 0 .85 32.2 32.2 0 0 1-4.23 2.13c-.92.38-1.87.74-2.84 1.1a.23.23 0 0 0-.18.08 63 63 0 0 1-10.51 2.82h-1.17a.15.15 0 0 0-.14.15.12.12 0 0 0 0 .08 37.55 37.55 0 0 1-15.08-.31c-.74-.2-1.48-.44-2.18-.69a3 3 0 0 0 .39-.13.31.31 0 0 0 .2-.36 11.93 11.93 0 0 0 1.8.49 38.9 38.9 0 0 0 11.3.36c8.01-.67 15.94-2.62 22.64-6.57z"/><path class="cls-7" d="M102 134.89c-6.66 4-14.59 5.9-22.56 6.57a38.9 38.9 0 0 1-11.3-.36 11.93 11.93 0 0 1-1.8-.49.19.19 0 0 0-.12-.15 3.43 3.43 0 0 0-1.13-.29c-12.69-4.85-16.56-20.89-16.8-33.53.16.26.34.54.49.8.74 12.79 4.79 30.52 19.51 33a49.06 49.06 0 0 0 33.58-6.54 1 1 0 0 0 .13.99zM89.71 164c6.61-4.75 18.17 11.92 8.33 13.25-4.49.54-10.18-4.28-10.85-8.69h.26a.27.27 0 0 0 .3-.25 1.8 1.8 0 0 0 .1.46 10.46 10.46 0 0 0 3.36 5c1.87 1.62 8.59 5 9.71.69.7-2.79-1.35-6-3.28-7.81-2.3-2.21-4.74-3.23-7.79-2a.5.5 0 0 1-.66-.27c.16-.23.34-.46.52-.69z"/><path class="cls-7" d="M97.65 166.58c1.93 1.84 4 5 3.28 7.81-1.12 4.36-7.84.93-9.71-.69a10.46 10.46 0 0 1-3.36-5 1.8 1.8 0 0 1-.1-.46 3.35 3.35 0 0 1 0-1.41l.36.18a.52.52 0 0 0 .68-.29.52.52 0 0 0-.17-.63c-.18-.08-.33-.18-.51-.26a7.45 7.45 0 0 1 1.07-1.62.5.5 0 0 0 .62.33c3.1-1.17 5.54-.15 7.84 2.04zM98.7 86.58a4.44 4.44 0 0 0 .62.41 2.3 2.3 0 0 0 1 1 1 1 0 0 1 .67 1.25 1.75 1.75 0 0 1-.11.24 3.72 3.72 0 0 1-2-.41.61.61 0 0 0-.22-.83.52.52 0 0 0-.29-.09c0-.59-.05-1.18-.05-1.77a2.28 2.28 0 0 0 .38.2z"/><path class="cls-7" d="M98.93 89.06a3.72 3.72 0 0 0 2 .41 2.33 2.33 0 0 1-.31.38 4.78 4.78 0 0 1-1-.28.43.43 0 0 0-.46-.16c-.13 0-.23-.13-.36-.18a.37.37 0 0 0 .13-.17z"/><path class="cls-13" d="M98.78 90.06c2.92 4.77 4.51 9.07 1.46 14.4-2.13 3.72-5.82 6.51-9.53 8.56-.62-3.84-1.52-7.63-1.49-11.56 0-5.48 4.59-8.22 8-11.61v-.07a12.14 12.14 0 0 0 1.26-.49 1 1 0 0 0 .23.66.12.12 0 0 0 .07.11z"/><path class="cls-7" d="M99.58 89.58a4.78 4.78 0 0 0 1 .28 1.45 1.45 0 0 1-.59.36c-.13-.22-.26-.44-.41-.64zM99.52 90.34a.84.84 0 0 1-.77-.39.4.4 0 0 1 .2-.53.58.58 0 0 1 .14 0 3.57 3.57 0 0 0 .46.16c.15.21.28.44.43.64a1 1 0 0 1-.46.12zM99.91 77.91a.3.3 0 0 1-.1.31 1.86 1.86 0 0 1 .1-.31zM99.22 77.39l.15-.53c.15.3.33.61.51.92a.29.29 0 0 1 0 .13 1.86 1.86 0 0 0-.1.31.36.36 0 0 1-.51 0 .21.21 0 0 1-.06-.08c0-.07-.1-.18-.15-.25a2.4 2.4 0 0 1 .16-.5z"/><path class="cls-8" d="M102 135.76a10.68 10.68 0 0 1-2.5 3.24c-.79.82-1.64 1.59-2.48 2.33-.59-.84-1-1.94-2-2.35a.24.24 0 0 0-.12 0c1-.36 1.92-.72 2.84-1.1a32 32 0 0 0 4.26-2.12z"/><path class="cls-7" d="M99.24 78.16a.35.35 0 0 0 .49.12.21.21 0 0 0 .08-.06 18.76 18.76 0 0 0-1.11 8.38 2.91 2.91 0 0 1-.33-.26 29.15 29.15 0 0 1 .72-8.43c.05.09.1.18.15.25zM99.55 89.58a3.57 3.57 0 0 1-.46-.16.43.43 0 0 1 .46.16zM99.37 76.86l-.15.53a28.15 28.15 0 0 0-4.46-6.2c-2.36-2.25-4.54-2.43-7.69-3-6.62-1-13.23-2.23-19.92-2.66-4.54-.3-9.15-.1-13.69-.3a61.44 61.44 0 0 0-14.4.77c-1.8.35-5.23.76-6.72 1.84-1.31 1-2.23 3.82-3 5.26a78.39 78.39 0 0 0-4.77 12.4c-1.69 5.69-3.89 12.41-3.56 18.35 2.26-1.43 4.18-3.92 6.44-5.56 3.66-2.64 7.46-5.07 10.79-8.15a.11.11 0 0 0 0 .13c0 .1.13.18.18.28C33 95.42 27 99.93 21.3 104.37c-.38.3-.9-.11-.9-.52-.18-9.71 3.33-20.32 7.41-29 1.36-2.92 2.19-6.51 5.19-8.07s7.48-1.82 10.71-2a160.43 160.43 0 0 1 30.51 1c-.15.34.33.64.51.31l.18-.28c1.62.2 3.21.43 4.8.69 4.56.74 9.66 1 13.81 3.13 2.7 1.37 4.39 4.64 5.85 7.23z"/><path class="cls-7" d="M99.22 77.39a2.47 2.47 0 0 0-.13.52c-2.13-3.44-4.38-7.72-8.77-8.56-2-.39-3.92-.67-5.87-1a165.11 165.11 0 0 0-17.3-2.15c-10-.46-20.79-1.26-30.63 1-8.61 2-11.84 19-13.56 26.53a35.73 35.73 0 0 0-1.31 8.15c0 .29 5.13-3.69 5.46-4 3.54-2.9 7.54-5.2 11-8.23a.42.42 0 0 1 .36-.1.46.46 0 0 0-.2.59c-3.33 3.08-7.13 5.51-10.79 8.15-2.26 1.64-4.18 4.13-6.44 5.56-.33-5.94 1.87-12.66 3.56-18.35a79.24 79.24 0 0 1 4.79-12.33c.72-1.44 1.64-4.31 3-5.26s4.92-1.49 6.72-1.84a61.44 61.44 0 0 1 14.4-.77c4.54.2 9.15 0 13.69.3 6.69.41 13.3 1.59 19.92 2.64 3.15.52 5.33.7 7.69 3a28.17 28.17 0 0 1 4.41 6.15zM98.42 88.11a.61.61 0 0 1 .59.63.6.6 0 0 1-.08.29 1 1 0 0 1-.43-.28c-.05-.26-.08-.46-.08-.64z"/><path class="cls-7" d="M98.93 89a.33.33 0 0 1-.2.15l-.26-.15v-.36a1.14 1.14 0 0 0 .46.36zM98.73 89.21c.13 0 .23.13.36.18a.41.41 0 0 0-.38.43.65.65 0 0 0 0 .13 1 1 0 0 1-.23-.66z"/><path class="cls-7" d="M98.73 89.21l-.21.08a.37.37 0 0 1 0-.21zM98.47 89.08a.37.37 0 0 0 0 .21 12.14 12.14 0 0 1-1.26.49c.16-.26-.15-.54-.43-.42a16.33 16.33 0 0 0-2 1.13c-10 2.36-18.33-2.82-25-11-1.39-1.69-3.29-3.61-1.49-5.43 2.41-2.44 10-2.46 12.94-1.51 6.1 2 10.13 5.74 14.1 10.68a18.6 18.6 0 0 0 3 3.08v1.77a.28.28 0 0 0-.13 0l-.28.08c-1-1.23-2-3.2-3-4.48-3.11-4-6.69-7.87-11.51-9.77A16.88 16.88 0 0 0 72 73.52c-.79.26-3.46.65-3.84 1.67s2.72 4.69 3.28 5.39a28 28 0 0 0 12 9.1c4.92 1.74 9.92 1.13 14.66-.82l.36.23z"/><path class="cls-7" d="M98.45 88.7v.36l-.36-.23a1.74 1.74 0 0 0 .36-.13zM98.42 88.11v.56a1.92 1.92 0 0 1-.44-.46l.28-.08a.29.29 0 0 1 .16-.02z"/><path class="cls-7" d="M98.45 88.67a1.58 1.58 0 0 1-.34.13 4.44 4.44 0 0 1-.59-.46 1.76 1.76 0 0 0 .49-.16 1.87 1.87 0 0 0 .44.49z"/><path class="cls-11" d="M99.09 77.91a29.15 29.15 0 0 0-.72 8.43 18.6 18.6 0 0 1-3-3.08c-4-4.94-8-8.71-14.1-10.68-2.94-1-10.53-.93-12.94 1.51-1.8 1.82.1 3.74 1.49 5.43 6.63 8.15 15 13.33 25 11a17.13 17.13 0 0 0-6.56 8c-1.9 4.74.44 11.25 1.13 16a.51.51 0 0 0 .15.31c-8.33 5.38-23.25 9.66-31.14 2.59-8.4-7.52-12.27-19.21-19.16-27.84a.52.52 0 0 0-.73 0 .42.42 0 0 0-.36.1c-3.48 3-7.48 5.33-11 8.23-.33.28-5.46 4.26-5.46 4A35.54 35.54 0 0 1 23 93.72c1.72-7.53 5-24.55 13.56-26.53 9.84-2.23 20.61-1.43 30.63-1a165.11 165.11 0 0 1 17.3 2.15c2 .31 3.92.59 5.87 1 4.35.85 6.64 5.13 8.73 8.57z"/><path class="cls-7" d="M98 88.21a1.76 1.76 0 0 1-.49.16c-.12-.11-.23-.24-.33-.34-3.64-4-5.77-9-10.66-11.84a18.09 18.09 0 0 0-14.43-2.08c-.72.18-4.18.62-2.92 2.49C76 86.78 85.45 92.08 97.52 88.37a4.44 4.44 0 0 0 .59.46 19.89 19.89 0 0 1-14.66.82 28 28 0 0 1-12-9.1c-.56-.67-3.74-4.31-3.33-5.36s3-1.41 3.84-1.67a16.88 16.88 0 0 1 11.49.39c4.82 1.9 8.4 5.79 11.51 9.77C96 85 96.93 86.93 98 88.21z"/><path class="cls-13" d="M97.19 88c.1.1.21.23.33.34C85.45 92.08 76 86.78 69.18 76.58c-1.26-1.87 2.2-2.31 2.92-2.49a18.09 18.09 0 0 1 14.43 2.08C91.42 79.06 93.55 84 97.19 88z"/><path class="cls-7" d="M97.37 141.81l-.41.41a2.93 2.93 0 0 1-.38-.41zM97.37 141.81h-.79c.15-.12.3-.28.46-.41a1.86 1.86 0 0 0 .33.41zM96.29 90.11c-.51.15-1 .28-1.49.38a16.33 16.33 0 0 1 2-1.13c.28-.12.59.16.43.42z"/><path class="cls-7" d="M97.24 89.78v.07c-3.38 3.39-8 6.13-8 11.61 0 3.93.87 7.72 1.49 11.56l-.72.39c-.64-4.28-2-9.41-1.36-13.41.69-4.33 4.31-7.53 7.64-9.89z"/><path class="cls-7" d="M94.78 90.49c.49-.1 1-.23 1.49-.38-3.33 2.36-7 5.56-7.64 9.89-.69 4 .72 9.13 1.36 13.41l-.28.15c.1 0 .2.08.33.13a1.27 1.27 0 0 0 .08.56c.18-.1.38-.17.56-.28a.15.15 0 0 0-.13 0c-.36.26-.71.52-1.1.75a.51.51 0 0 1-.15-.31c-.69-4.77-3-11.28-1.13-16a17.1 17.1 0 0 1 6.61-7.92zM94.91 139l-.18.08a.23.23 0 0 1 .18-.08z"/><path class="cls-7" d="M90.14 115a.72.72 0 0 1-.62-.25c.39-.23.74-.49 1.1-.75a.15.15 0 0 1 .13 0h.16v-.1a.55.55 0 0 1 .49.54l-.85.46a.86.86 0 0 1-.41.1z"/><path class="cls-7" d="M90.5 115l.85-.46a.43.43 0 0 1-.16.3c-7.3 6.1-20.61 10.87-29.81 6.67-5.53-2.54-9-8.41-12.2-13.38l-.41-.64c0-.59-.08-1.16-.08-1.7a85.64 85.64 0 0 0 9 12.26c2.57 2.82 7 3.69 10.59 4 4.77.48 8.25-1.41 12.66-2.85 3-1 6.51-2.18 9.13-4.18a.9.9 0 0 0 .43-.02zM90.86 114v.1h-.16c.06-.1.11-.1.16-.1z"/><path class="cls-7" d="M90.86 113.87v.13h-.13zM90.71 113l.15.85-.18.1-.64-.28v-.28zM90 113.69l.64.28c-.18.11-.38.18-.56.28.01-.17-.01-.35-.08-.56zM90 113.41v.28a.74.74 0 0 1-.33-.13zM89.66 163.26c.1 0 .2.11.15.18s-.08.08-.1.13v-.18c-.21.13-.41.26-.59.39a.42.42 0 0 1 .12-.26.63.63 0 0 1 .24-.18z"/><path class="cls-7" d="M89.71 163.39v.19c-.18.23-.36.46-.52.69a.52.52 0 0 1-.07-.48 6.75 6.75 0 0 1 .59-.4zM89.5 114.77a.72.72 0 0 0 .62.25C87.5 117 84 118.25 81 119.2c-4.41 1.44-7.89 3.33-12.66 2.85-3.64-.36-8-1.23-10.59-4a85.64 85.64 0 0 1-9-12.26 1.21 1.21 0 0 1 0-.38.4.4 0 0 0-.38-.39h-.08c-1-1.57-2-3.11-2.9-4.62-2.2-3.13-4-7.3-6.41-10.25a.45.45 0 0 0-.3-.56.37.37 0 0 0-.18 0 .51.51 0 0 1 .72 0c6.91 8.62 10.78 20.31 19.14 27.77 7.89 7.07 22.81 2.79 31.14-2.59zM89.48 163.34a.63.63 0 0 0-.24.18.42.42 0 0 0-.12.26l-.34.31a.32.32 0 0 0-.15-.34 2.58 2.58 0 0 1 .85-.41z"/><path class="cls-7" d="M89.12 163.78a.52.52 0 0 0 .07.48 7.45 7.45 0 0 0-1.07 1.62l-.51-.26a4.13 4.13 0 0 1 .84-1.2.33.33 0 0 0 .33-.33zM87.91 166.34a1.37 1.37 0 0 1 .21-.46c.18.08.33.18.51.26a.54.54 0 0 1 .11.74.52.52 0 0 1-.62.18l-.36-.18a1.74 1.74 0 0 1 .15-.54zM88.25 163.91a.67.67 0 0 1 .33-.18.32.32 0 0 1 .15.34 1.72 1.72 0 0 0-.33.33.28.28 0 0 1-.18 0 3.35 3.35 0 0 0-.36-.21 1.39 1.39 0 0 1 .39-.28z"/><path class="cls-7" d="M88.45 164.42a1.72 1.72 0 0 1 .33-.33.33.33 0 0 1-.33.33zM88.58 163.73a.67.67 0 0 0-.33.18 25.62 25.62 0 0 0-5.52-2.62c-4-1.59-7.94-3.28-11.89-5-1.28-.57-2.56-1-3.87-1.52a.62.62 0 0 0-.76-.28c-1.31-.49-2.64-1-3.95-1.52-2.67-1.1-4.92-2.71-7.44-4-.69-.35-1.35-.71-2-1a2.2 2.2 0 0 1 .17-.39c2 .94 3.9 1.92 5.79 3 9.37 5.25 20.62 7.33 29.8 13.15zM88.27 164.37a.28.28 0 0 0 .18 0 4.13 4.13 0 0 0-.84 1.2c-.2-.1-.39-.2-.59-.28a3.54 3.54 0 0 1 .89-1.18 4.06 4.06 0 0 1 .36.26z"/><path class="cls-7" d="M88.25 163.91a1.42 1.42 0 0 0-.34.25c-6.48-3.87-13.84-6.18-21-8.94a.49.49 0 0 0 0-.47c1.31.47 2.59 1 3.87 1.52 4 1.74 7.9 3.43 11.89 5a25.22 25.22 0 0 1 5.58 2.64zM87.61 165.58l.51.26a1.37 1.37 0 0 0-.21.46l-.49-.26a1.66 1.66 0 0 1 .19-.46zM87.42 166.08l.49.26a1.74 1.74 0 0 0-.15.54 3.29 3.29 0 0 0-.49-.26 1.74 1.74 0 0 1 .15-.54z"/><path class="cls-7" d="M87.27 166.58a3.29 3.29 0 0 1 .49.26 3.35 3.35 0 0 0 0 1.41.23.23 0 0 0-.18-.21 1.39 1.39 0 0 1-.41-.12 3.2 3.2 0 0 1 .1-1.34z"/><path class="cls-7" d="M87.17 168.26a.76.76 0 0 1 0-.3 1.39 1.39 0 0 0 .41.12.23.23 0 0 1 .18.21.28.28 0 0 1-.28.28 1.13 1.13 0 0 1-.26 0 1.62 1.62 0 0 0-.05-.31zM87.61 165.58a1.66 1.66 0 0 0-.19.46l-.56-.3a1.23 1.23 0 0 1 .16-.44c.2.08.39.18.59.28zM86.86 165.78l.56.3a1.63 1.63 0 0 0-.15.52c-.18-.11-.36-.2-.54-.29.03-.17.08-.31.13-.53z"/><path class="cls-12" d="M87.91 164.16a3.54 3.54 0 0 0-.89 1.18C80.22 162 73 159.8 66 157a8 8 0 0 1 1-1.69c7.07 2.69 14.43 4.98 20.91 8.85z"/><path class="cls-7" d="M87.27 166.58a3.2 3.2 0 0 0-.1 1.34 2.72 2.72 0 0 1-.51-.13 4.84 4.84 0 0 1 .07-1.52c.18.09.36.2.54.31zM87.17 168.26a1.13 1.13 0 0 1 0 .26l-.48-.08v-.25a1.51 1.51 0 0 0 .48.07z"/><path class="cls-7" d="M87.17 168a.76.76 0 0 0 0 .3 1.57 1.57 0 0 1-.49-.07 2.16 2.16 0 0 1 0-.36 2.72 2.72 0 0 0 .49.13zM87 165.34c-.06.15-.11.28-.16.44-6.56-3.44-14.25-5.77-21-8.67l.08-.15C73 159.8 80.22 162 87 165.34z"/><path class="cls-7" d="M86.86 165.78c0 .18-.1.36-.13.53-6.74-3.61-14-6-21-9a1.34 1.34 0 0 1 .07-.18c6.81 2.87 14.5 5.21 21.06 8.65z"/><path class="cls-12" d="M86.73 166.31a4.84 4.84 0 0 0-.07 1.52c-7.33-2-14.43-5.82-21.53-9.08.2-.48.4-1 .64-1.46 6.97 3.03 14.23 5.41 20.96 9.02z"/><path class="cls-7" d="M86.68 168.19v.25c-4.36-.86-8.64-2.86-12.69-4.69-5.74-2.69-11.66-4.84-17.53-7.15-2.49-1-5-2.08-7.39-3.23a1.15 1.15 0 0 1 .21-.33V153c3.8 1.67 7.64 3.1 11.56 4.61l2.88 1.13c-.23.67.84 1.13 1.15.49 2.53 1 5 2 7.53 3.21a71.1 71.1 0 0 0 7.46 3.18c2.28.75 4.44 2.13 6.82 2.57z"/><path class="cls-7" d="M86.66 167.83a2.16 2.16 0 0 0 0 .36c-2.38-.44-4.54-1.82-6.82-2.59a72.29 72.29 0 0 1-7.38-3.23c-2.48-1.18-5-2.21-7.53-3.21a1.65 1.65 0 0 1 .18-.41c7.12 3.25 14.22 7.08 21.55 9.08zM83.55 142a2.91 2.91 0 0 1-.56.11.14.14 0 0 1 0-.2.14.14 0 0 1 .09 0h1.15a3.46 3.46 0 0 1-.61.12zM74.61 65.76c.64-1.77 2.87-3.26 4.92-4.49A16 16 0 0 0 75 65.81a1.73 1.73 0 0 0-.39-.05z"/><path class="cls-7" d="M74.61 65.76a1.73 1.73 0 0 1 .38 0l-.18.28c-.18.33-.66 0-.51-.31a1.06 1.06 0 0 1 .31.03zM66.38 155c-.18-.08-.36-.13-.54-.23a1 1 0 0 1 .15-.2.25.25 0 0 1 .18-.13l.76.28a.49.49 0 0 1 0 .47 3.24 3.24 0 0 1-.55-.19z"/><path class="cls-7" d="M67 155.22a8 8 0 0 0-1 1.69 3.65 3.65 0 0 0-.41-.18.18.18 0 0 0-.24.09.17.17 0 0 0 .09.24l.41.18c-.24.49-.44 1-.64 1.46-.21-.1-.39-.2-.59-.28a13.54 13.54 0 0 1 1.83-3.42 3.36 3.36 0 0 0 .55.22zM66.18 154.45a.62.62 0 0 1 .76.28zM64.79 140.76c-.41-.15-.82-.36-1.23-.54a5.94 5.94 0 0 1 1.46 0 10.26 10.26 0 0 0 1.25.44.31.31 0 0 1-.2.36 3 3 0 0 1-.39.13c-.27-.15-.58-.26-.89-.39zM66.18 140.48a.19.19 0 0 1 .12.15 10.26 10.26 0 0 1-1.25-.44 3.43 3.43 0 0 1 1.13.29z"/><path class="cls-7" d="M65.84 154.78c.18.1.36.15.54.23a13.54 13.54 0 0 0-1.84 3.46c-.19-.09-.38-.18-.57-.25a13.36 13.36 0 0 1 1.87-3.44zM66.18 154.45a.23.23 0 0 0-.19.13 1 1 0 0 0-.16.2 69.48 69.48 0 0 1-9.48-4.36c-8.82-4.92-18.92-7.84-27.56-13a3.23 3.23 0 0 0 0-.44c2 1.21 4.56 1.9 6.76 2.82l.24.08 1 .46h.07c5 2.49 10.2 4.61 15.2 7.1l-.08.15c-.15.41.49.65.7.31a.42.42 0 0 1 .07-.13c.7.34 1.36.7 2 1 2.52 1.34 4.77 3 7.44 4a35.11 35.11 0 0 0 3.99 1.68z"/><path class="cls-7" d="M65.84 157.11a1.34 1.34 0 0 0-.07.18l-.41-.18a.17.17 0 0 1-.09-.24.18.18 0 0 1 .24-.09 3.65 3.65 0 0 1 .41.18zM65.18 177.05a1.27 1.27 0 0 0-.23-.12 1.7 1.7 0 0 1 .18-.39.22.22 0 0 1 .29 0 .26.26 0 0 1 .09.16 1.38 1.38 0 0 1-.08.56c-.07-.1-.18-.15-.25-.21z"/><path class="cls-7" d="M65.18 177.05c.07.06.18.11.25.16a19.22 19.22 0 0 1-1.77 5.28 67 67 0 0 1-2.79 6.09.43.43 0 0 1-.1.1.5.5 0 0 0-.11-.26c1.08-3.84 3.34-7.42 4.52-11.37zM64.54 158.47c.2.08.38.18.59.28a1.65 1.65 0 0 0-.18.41l-1.15-.46a3.26 3.26 0 0 1 .2-.48c.18.07.36.16.54.25zM64.79 140.76c.31.13.62.26.92.36-1.07.33-2.25.25-3.38.51a18 18 0 0 0-4 1.31 12 12 0 0 0-5.33 4.64c-.13 0-.26-.13-.41-.18 1.85-3.82 7.77-6.4 12.2-6.64z"/><path class="cls-7" d="M65 176.93a1.27 1.27 0 0 1 .23.12c-1.16 3.9-3.44 7.49-4.52 11.41a.74.74 0 0 0-.2-.23 16.15 16.15 0 0 1 1.85-5.56c.79-1.92 1.64-3.87 2.64-5.74zM65 140.19a5.94 5.94 0 0 0-1.46 0c-12.15-5.92-15.76-21.3-15.71-34.27.15.23.28.46.43.69.26 12.67 4.13 28.71 16.74 33.58zM64.92 159.16c-.31.64-1.38.18-1.15-.49z"/><path d="M65.84 154.78a13.29 13.29 0 0 0-1.84 3.44c-1.66-.77-3.36-1.49-5-2.13-10.58-4.08-20.6-10.72-31.52-13.72a9.42 9.42 0 0 0 1.33-4.94c8.64 5.15 18.74 8.07 27.56 13a69.42 69.42 0 0 0 9.47 4.35z" fill="#fff"/><path class="cls-7" d="M64 158.22a3.26 3.26 0 0 0-.2.48l-2.9-1.12c-3.92-1.51-7.76-2.94-11.56-4.61a.14.14 0 0 0-.25-.1 53.38 53.38 0 0 1-4.87-2.26c-5.54-2.82-11-6.1-17-7.79a4.64 4.64 0 0 0 .26-.44c10.92 3 20.94 9.64 31.48 13.72 1.65.63 3.35 1.35 5.04 2.12zM63.56 140.22c.41.18.82.39 1.23.54-4.43.28-10.35 2.77-12.25 6.59a.84.84 0 0 0-.33-.16c1.18-2.61 3.78-4.25 6.35-5.41a17.42 17.42 0 0 1 5-1.56zM41.62 194.15a.57.57 0 0 1-.13-.08 2.9 2.9 0 0 0-.33-.2c5.33-3.51 12.74-4.1 18.76-5.69a.78.78 0 0 1 .54 0 .57.57 0 0 0 0 .26.23.23 0 0 0 .22.25.17.17 0 0 0 .12 0 .7.7 0 0 1-.46.84c-6.11 2.05-12.23 2.41-18.13 5a4.13 4.13 0 0 1-.59-.38z"/><path class="cls-7" d="M60.66 188.46a.5.5 0 0 1 .11.26.23.23 0 0 1-.32-.12.14.14 0 0 1 0-.11.57.57 0 0 1 0-.26.63.63 0 0 1 .21.23zM53 147.58a2.73 2.73 0 0 0-.21.3l-.35-.18a1.05 1.05 0 0 1 .15-.3 1 1 0 0 1 .41.18z"/><path class="cls-7" d="M52.39 147.65l.35.18a.42.42 0 0 0-.07.13c-.21.34-.85.1-.7-.31l.08-.15z"/><path class="cls-7" d="M52.54 147.35a1.05 1.05 0 0 0-.15.3l-.34-.15a.77.77 0 0 1 .16-.31.84.84 0 0 1 .33.16z"/><path class="cls-7" d="M52.21 147.19a.77.77 0 0 0-.16.31c-5-2.49-10.2-4.61-15.2-7.1 5.15 2.28 10.31 4.38 15.36 6.79zM49.08 152.86c.1-.11.28 0 .25.1a1.09 1.09 0 0 1-.25-.1zM48.92 153.27h-.1c-.1 0 .16-.23.23-.34a1.09 1.09 0 0 0 .25.1v.08a1.15 1.15 0 0 0-.21.33z"/><path class="cls-7" d="M49.08 152.86c-.07.11-.15.21-.23.34-7.25-3.46-14.33-7.39-21.91-10l.3-.43c6 1.69 11.46 5 17 7.79q2.39 1.27 4.84 2.3zM48.28 106.64c-.15-.23-.28-.46-.43-.69v-.59a.37.37 0 0 1 .36-.38c.15.25.31.51.48.76 0 .54.06 1.11.08 1.7-.15-.26-.33-.54-.49-.8z"/><path class="cls-7" d="M48.69 105.74c-.17-.25-.33-.51-.48-.76a.39.39 0 0 1 .45.29v.09a1.59 1.59 0 0 0 .03.38zM48.21 105a.37.37 0 0 0-.36.38v.62c-3.13-5.1-6-10.37-9.36-15.37.11-.08.18-.18.28-.26a.39.39 0 0 0 .13-.2c2.39 2.95 4.21 7.12 6.41 10.25.95 1.45 1.9 2.99 2.9 4.58zM40.9 195.18a2.22 2.22 0 0 0-.38.18c-.41.2-.93-.36-.52-.7a11.39 11.39 0 0 1 1.13-.79 2.9 2.9 0 0 1 .33.2.57.57 0 0 0 .13.08 3.84 3.84 0 0 0 .56.41c-.4.18-.81.44-1.25.62z"/><path class="cls-7" d="M38.9 90.11a.39.39 0 0 1-.13.2c-.1.08-.17.18-.28.26 0-.1-.13-.18-.18-.28a.11.11 0 0 1 0-.13.46.46 0 0 1 .2-.59.45.45 0 0 1 .39.5zM28.7 136.43c2.23 1.2 4.54 2.3 6.84 3.38-2.2-.92-4.79-1.61-6.76-2.82a2.1 2.1 0 0 0-.08-.56zM28.8 137.43a9.42 9.42 0 0 1-1.33 4.94 3.19 3.19 0 0 0-.59-.15 9.52 9.52 0 0 0 1.38-5.1z"/><path class="cls-7" d="M28.78 137a3.23 3.23 0 0 1 0 .44l-.54-.31a3.77 3.77 0 0 0 0-.82.45.45 0 0 1 .28 0l.23.13a2.1 2.1 0 0 1 .03.56z"/><path class="cls-7" d="M28.7 136.43l-.23-.13a.45.45 0 0 0-.28 0 6.61 6.61 0 0 0-.28-1.46c-1.06-3.89-4.46-5.33-8.16-5.77a.62.62 0 0 0-.53 0 20.71 20.71 0 0 0-2.72-.07.51.51 0 0 0-.5-.5.5.5 0 0 0-.5.5h-.42c-2.76.18-17 3.69-13.68 8.51 1.1 1.49 5.74.92 7.41 1.28a19.79 19.79 0 0 1 9.07 4.21c2.2 1.85 3.69 4.62 6.66 2.39a6.75 6.75 0 0 0 1-1 .49.49 0 0 0 .44 0c-.82 1.62-2.33 3.08-4.1 2.36-2.34-1-3.59-2.87-5.72-4.25a18.45 18.45 0 0 0-9.3-3.28c-1.87-.1-5.87.19-6.43-2.33a3.86 3.86 0 0 1 1.87-4.22c5.13-3.57 13.33-5.77 19.45-3.9 4.03 1.23 6.51 4.23 6.95 7.66z"/><path class="cls-7" d="M28.26 137.12a9.52 9.52 0 0 1-1.38 5.1 1.39 1.39 0 0 0-.33-.1.46.46 0 0 0-.57.32.44.44 0 0 0 0 .32 4.13 4.13 0 0 1-1 1 .68.68 0 0 1 .18-.62c3.62-3.92 3.16-10.22-1.43-12.53a.53.53 0 0 0-.64-.37h-.11a9.1 9.1 0 0 0-1.53-.41c-.46-.08-.93-.16-1.41-.21a2.57 2.57 0 0 0-.08-.38.56.56 0 0 0-.21-.29c3.7.44 7.1 1.88 8.16 5.77a6.61 6.61 0 0 1 .28 1.46.4.4 0 0 0-.3.48.35.35 0 0 0 .17.24l.18.1z"/><path class="cls-7" d="M28.19 136.27a3.77 3.77 0 0 1 0 .82l-.18-.1a.4.4 0 0 1 .13-.72zM26.88 142.22a3.19 3.19 0 0 1 .59.15 4.64 4.64 0 0 1-.26.44c-.2-.07-.41-.13-.61-.18.1-.13.2-.28.28-.41z"/><path class="cls-7" d="M27.21 142.81l-.3.43-.47-.15a1.9 1.9 0 0 1 .08-.36.39.39 0 0 0 .08-.1c.2.05.4.11.61.18z"/><path class="cls-7" d="M26.44 143.09l.47.15a9.08 9.08 0 0 1-.72 1 .44.44 0 0 1-.23.18 6.21 6.21 0 0 0 .48-1.33zM26.55 142.12a1.39 1.39 0 0 1 .33.1c-.08.13-.18.28-.28.41s0 0-.05 0 0-.12 0-.2a.15.15 0 0 0-.15-.15.11.11 0 0 0-.13.07c-.1.16-.18.31-.28.44a.45.45 0 0 1 .14-.63.48.48 0 0 1 .42-.04z"/><path class="cls-7" d="M26.6 142.63a.39.39 0 0 1-.08.1.29.29 0 0 0 0-.13.22.22 0 0 0 .08.03z"/><path class="cls-7" d="M26.27 143a.31.31 0 0 1-.26-.25c.1-.13.18-.28.28-.44a.15.15 0 0 1 .2 0 .14.14 0 0 1 .08.13v.2a.29.29 0 0 1 0 .13 3.55 3.55 0 0 1-.23.31z"/><path class="cls-7" d="M26.52 142.73a1.82 1.82 0 0 1-.08.36.53.53 0 0 1-.15-.05 3.55 3.55 0 0 0 .23-.31z"/><path class="cls-7" d="M26.29 143a.53.53 0 0 0 .15.05 5.55 5.55 0 0 1-.45 1.28.49.49 0 0 1-.44 0 5.44 5.44 0 0 0 .69-1.28zM26.27 143l-.08.08a.17.17 0 0 0 .08-.08z"/><path class="cls-7" d="M26.21 143.12a5.44 5.44 0 0 1-.69 1.28.81.81 0 0 1-.54-.59 4.13 4.13 0 0 0 1-1 .31.31 0 0 0 .26.25.08.08 0 0 1-.03.06z"/><path class="cls-12" d="M23.73 130.66c4.59 2.31 5.05 8.61 1.43 12.53a.68.68 0 0 0-.18.62c-3.71 2.82-9.2-3.79-12.76-4.92a20.53 20.53 0 0 0-5.38-1 22.44 22.44 0 0 1-3.57-.31c-4.71-.69.8-4.46 1.23-4.74a30.59 30.59 0 0 1 9.77-3.21 11.53 11.53 0 0 1 1.18-.15 27.63 27.63 0 0 0-.51 3 .51.51 0 0 0 1 .15 11.74 11.74 0 0 0 .53-3.23 14.43 14.43 0 0 1 2.36.13 7.72 7.72 0 0 0-.1 3.28.53.53 0 0 0 .61.43.57.57 0 0 0 .39-.3 4.83 4.83 0 0 0 .36-3.26c.48 0 .95.13 1.41.21a9.1 9.1 0 0 1 1.53.41.49.49 0 0 0-.3.33 9 9 0 0 0-.34 2.41.49.49 0 0 0 .49.49.51.51 0 0 0 .33-.13 2.74 2.74 0 0 0 .52-2.74z"/><path class="cls-7" d="M25 143.81a.81.81 0 0 0 .54.59 6.75 6.75 0 0 1-1 1c-3 2.23-4.46-.54-6.66-2.39a19.79 19.79 0 0 0-9-4.33c-1.67-.36-6.31.21-7.41-1.28-3.34-4.82 10.92-8.33 13.68-8.51h.42a5.39 5.39 0 0 1-.08.56 11.53 11.53 0 0 0-1.18.15 30.59 30.59 0 0 0-9.77 3.21c-.43.28-5.94 4-1.23 4.74a22.42 22.42 0 0 0 3.57.28 20.53 20.53 0 0 1 5.38 1c3.52 1.17 9.01 7.8 12.74 4.98zM23.73 130.66a2.73 2.73 0 0 1-.57 2.77.48.48 0 0 1-.82-.36 9 9 0 0 1 .34-2.41.49.49 0 0 1 .3-.33 6.12 6.12 0 0 1 .75.33z"/><path class="cls-7" d="M23.73 130.66a6.12 6.12 0 0 0-.75-.33.52.52 0 0 1 .7.21zM19.42 129.58a4.69 4.69 0 0 1 .62.1 4.83 4.83 0 0 1-.36 3.26.53.53 0 0 1-.71.25.52.52 0 0 1-.29-.38 7.72 7.72 0 0 1 .1-3.28 4.72 4.72 0 0 1 .64.05z"/><path class="cls-7" d="M19.42 129.58a5.8 5.8 0 0 0-.59 0 .64.64 0 0 1 .05-.23.44.44 0 0 1 .34-.34h.53a.56.56 0 0 1 .21.29 1.72 1.72 0 0 0 .08.38 4.69 4.69 0 0 0-.62-.1zM19.22 129a.62.62 0 0 1 .53 0 4.68 4.68 0 0 0-.53 0z"/><path class="cls-7" d="M19.22 129a.44.44 0 0 0-.34.34.64.64 0 0 0-.05.23 14.43 14.43 0 0 0-2.36-.13 4.34 4.34 0 0 0 0-.51 19.47 19.47 0 0 1 2.75.07z"/><path class="cls-7" d="M16 129.46a4.86 4.86 0 0 0-.54 0 1.36 1.36 0 0 1 .08-.56h1a4.34 4.34 0 0 1 0 .51 3.1 3.1 0 0 0-.54.05zM16.5 128.87h-1a.5.5 0 0 1 .5-.5.51.51 0 0 1 .5.5zM16 129.46a3.84 3.84 0 0 1 .48 0 11.53 11.53 0 0 1-.48 3.2.51.51 0 0 1-1-.15 27.63 27.63 0 0 1 .51-3z"/></g></g></g></svg>