<svg xmlns="http://www.w3.org/2000/svg" viewBox="0 0 131.94 147.64"><defs><style>.cls-1{fill:#1d3033;stroke:#1d3033;stroke-linecap:round;stroke-linejoin:round;stroke-width:.66px}.cls-2{fill:#faf5c0}.cls-3{fill:#f3ed64}.cls-4{fill:#fff}.cls-5{fill:#554325}.cls-6{fill:#163176}.cls-9{fill:#308076}.cls-10{fill:#a79f41}.cls-11{fill:none}.cls-12{fill:#d7d7d7}</style></defs><g id="レイヤー_2" data-name="レイヤー 2"><g id="レイヤー_3" data-name="レイヤー 3"><path class="cls-1" d="M123.42 97a6.25 6.25 0 0 0 .77-.23c4.23.67 7 5 7.38 9.31.49 5.61-3.69 10.71-9 12.48-.31-.31-.62-.59-.92-.9a.25.25 0 0 1 0-.12c.72-1.47 2.36-2 3.72-2.77 2.41-1.41 4.59-3.26 5-6.23.74-5.38-2.36-11.23-8.31-11.13a.27.27 0 0 1-.28-.35.36.36 0 0 0 .38.17 7.41 7.41 0 0 0 1.26-.23z"/><path class="cls-2" d="M122.11 97.38c6-.1 9 5.75 8.31 11.13-.41 3-2.59 4.82-5 6.23-1.36.82-3 1.3-3.72 2.77a.25.25 0 0 0 0 .12 36 36 0 0 0-5.36-4.25 18.3 18.3 0 0 1-7.43-8.38 27.59 27.59 0 0 0-3.36-5.8c1-1.33 2.36-4.56.33-5.33 3.85-4 8.31-8.18 10.36-13.43.51 0 .77-.85.23-1.08A68.22 68.22 0 0 0 101.58 75a.48.48 0 0 0-.31-.71c-8.48-1.85-15-7.87-11.71-16.92a14 14 0 0 0 1.44-.66c.34-.16.11-.7-.25-.59-13.15 3.64-33.25.1-42.12-11.49a43.67 43.67 0 0 1 12.87-4c13.12-2.07 25.35 3 37.22 8.21 8 5.46 15 11.33 20.91 19 4.44 5.76 15.23 25.3 2.47 28.37a.48.48 0 0 0-.26.72.27.27 0 0 0 .27.45z"/><path class="cls-1" d="M129.19 124.3c.59-.23 1.41.54.95 1.15-6.93 9.08-17.66 14.38-28.2 18.1a.48.48 0 0 0 0-.72.3.3 0 0 1-.07-.1c10-3.23 20.91-9.28 27.42-17.56a.32.32 0 0 0 .31-.56c-.13-.11-.29-.21-.41-.31z"/><path class="cls-1" d="M128.85 124.53a.59.59 0 0 1 .31-.18c.12.1.28.2.43.31a.32.32 0 0 1-.31.56c-.23-.13-.46-.28-.67-.41.09-.13.17-.2.24-.28z"/><path class="cls-1" d="M129.29 125.17c-6.51 8.28-17.45 14.33-27.42 17.56-.21-.21-.41-.41-.64-.62a68.17 68.17 0 0 0 9.64-3.84 4.12 4.12 0 0 0 3.22-1.33.27.27 0 0 0 0-.42 57.81 57.81 0 0 0 14.53-11.76c.21.13.44.24.67.41zM129.19 124.3a.59.59 0 0 0-.31.18 17.79 17.79 0 0 1-2.95-2.31l-.07-.07c-1.23-1.13-2.41-2.39-3.62-3.57a1.57 1.57 0 0 0 .29 0h.1a53.39 53.39 0 0 0 6.56 5.77z"/><path class="cls-1" d="M128.85 124.53c-.07.08-.15.15-.23.23a26.71 26.71 0 0 1-2.64-1.92.46.46 0 0 0-.08-.62 17.79 17.79 0 0 0 2.95 2.31zM122.91 96.64c5.56-.9 5.74-6.23 5.61-10.92-.15-5.64-2.79-11-6.05-15.53a.79.79 0 0 0 1-.36 53.11 53.11 0 0 1 4.16 7.51c2.69 6.07 3.74 16.84-3.41 19.4a5.57 5.57 0 0 0-1.31-.1z"/><path class="cls-1" d="M128.52 85.72c.13 4.69-.05 10-5.61 10.92a.21.21 0 0 0-.13 0 3 3 0 0 0-.67 0 .31.31 0 0 0-.28.31.48.48 0 0 1 .26-.72c12.76-3.07 2-22.61-2.47-28.37-5.92-7.69-12.94-13.56-20.91-19l.38.18a.45.45 0 0 0 .47-.08 82.23 82.23 0 0 1 12.94 9.64 71.84 71.84 0 0 1 9.12 10.43 1.32 1.32 0 0 1 .18.26v.07a.75.75 0 0 0 .67.8c3.26 4.54 5.9 9.92 6.05 15.56z"/><path class="cls-3" d="M126 122.84a26.71 26.71 0 0 0 2.64 1.92 57.81 57.81 0 0 1-14.53 11.76.23.23 0 0 0-.18-.07c-1.46 0-2.77.38-4.26.05s-2.76-1.67-3.79-2.79a14.35 14.35 0 0 1-2.61-4.11c-.88-2.17.46-3.43 2-4.71a.33.33 0 0 0 .13-.39c4.68-2.25 9.25-4.74 13.84-7.28a.39.39 0 0 0 .2-.2c.62.49 1.26 1 1.85 1.54a.44.44 0 0 0-.16 0c-1.56.52-3 2.16-4.4 3-2.36 1.41-4.93 2.46-7.11 4.17-2.4 1.9-3.82 5.9.29 7.29 3 1 6.17-1.16 8.43-2.93 2.56-2 5.69-4.53 7.59-7.25.07.02.07.02.07 0z"/><path class="cls-1" d="M125.9 122.22a.46.46 0 0 1 .08.62c-.28-.26-.56-.49-.84-.75a.69.69 0 0 1 .69.06z"/><path class="cls-1" d="M115.91 131.17a3.61 3.61 0 0 0 .69-1.1c1-.7 2-1.47 2.87-2.11a21.4 21.4 0 0 0 3.46-3.2c.41-.41 1.87-1.56 1.92-2.18a.61.61 0 0 1 .26-.49c.28.26.56.49.84.75-1.9 2.72-5 5.2-7.59 7.25-2.26 1.77-5.43 4-8.43 2.93-4.11-1.39-2.69-5.39-.29-7.29 2.18-1.71 4.75-2.76 7.11-4.17 1.43-.87 2.84-2.51 4.4-3a.44.44 0 0 1 .16 0 3.23 3.23 0 0 1 .26.23.5.5 0 0 1 0 .18s-.1 0-.17.05c.3-.76-1.54 1.08-1.85 1.39a52.88 52.88 0 0 1-7.07 4.15c-2.62 1.69-6.93 4.15-2.77 7.54 1.25 1 3.15.66 5.2-.44a.51.51 0 0 0 .56-.1 3 3 0 0 0 .44-.39z"/><path class="cls-1" d="M125.83 122.15a.69.69 0 0 0-.69-.06c-1.08-.94-2.1-2-3.18-3-.1-.1-.23-.2-.33-.31s0 0 0-.07a.28.28 0 0 0-.23-.16c-.59-.54-1.23-1-1.85-1.54a.58.58 0 0 0-.77-.8 1.25 1.25 0 0 0-.18.11c-1.76-1.31-3.64-2.46-5.51-3.72-4.41-3-5.48-9.2-8.3-13.41v-.1a.49.49 0 0 0 .57.26c3.1 3.89 3.82 9.79 8 12.76 2.23 1.54 4.67 2.77 6.77 4.49a21.15 21.15 0 0 1 1.59 1.43.66.66 0 0 0 .51.52c1.19 1.21 2.37 2.45 3.6 3.6zM124.91 1.29c1.89 3.49-.26 8.72-1.93 11.87a.17.17 0 0 1-.1.1.24.24 0 0 0-.18-.18 1.47 1.47 0 0 0-.49-.1.21.21 0 0 1 0-.13c1.23-3.59 3.31-7.64 2.46-11.51z"/><path class="cls-1" d="M99.09 21.28a3.31 3.31 0 0 0 0-.44C103.66 11.16 114 1.77 124.62.34c.62-.1.9.79.34.92a1.75 1.75 0 0 0-.13-.28c0-.08-.13 0-.13.05a.92.92 0 0 1 0 .28c-6.54 1.18-11.25 5.13-16.33 9.13-4.28 3.36-6.64 7-9.35 11.38a4.18 4.18 0 0 0 0-.51z"/><path class="cls-1" d="M124.91 1.29h-.16a.92.92 0 0 0 0-.28c0-.08.08-.13.13-.05a1.75 1.75 0 0 1 .13.28s-.08.05-.1.05z"/><path class="cls-4" d="M124.75 1.31c.85 3.87-1.23 7.92-2.46 11.51a.21.21 0 0 0 0 .13c-2.51-.59-5.76.2-8.27.79l-.77-.07c-.8-.05-.77 1.1 0 1.2a36.72 36.72 0 0 1 5 .93 24.69 24.69 0 0 0 2.59.84c-4.16 6.13-8.87 11.48-15.69 14.69-.1.05-.13.13-.08.2s-.13 0-.2 0a.32.32 0 1 0 0 .64c1.07.13 2.18.18 3.28.26l1.28.07a14.29 14.29 0 0 0-3.38 1.87.46.46 0 0 0 .15.75 2.22 2.22 0 0 0 1 1.1c-1.89 1-4 1.54-5.84 2.43a39 39 0 0 1-7.84-1.48c.71-2.67.71-5.49 1.3-8.2a46.57 46.57 0 0 1 2.93-8.82 4 4 0 0 0 .71 2.1c-.1.23-.2.44-.28.67s.1.15.15.07l.34-.53v.05a.18.18 0 0 0 .31-.08 2.67 2.67 0 0 0 .08-.64c2.71-4.41 5.07-8 9.35-11.38 5.09-3.97 9.8-7.92 16.34-9.1z"/><path class="cls-5" d="M125.11 122.09a.61.61 0 0 0-.26.49c0 .62-1.51 1.77-1.92 2.18a21.4 21.4 0 0 1-3.46 3.2c-.89.64-1.87 1.41-2.87 2.11a3.08 3.08 0 0 0-.38-3.31 4.36 4.36 0 0 0-3.8-1.41c1.59-1 3.33-1.8 5-2.72a13.53 13.53 0 0 0 3.15-2.38 6.59 6.59 0 0 0 .85-.82 2 2 0 0 1 .18-.28.07.07 0 0 0 .05-.08V119a.5.5 0 0 0 0-.18c.1.11.23.21.33.31 1.02.99 2.02 2.02 3.13 2.96z"/><path class="cls-1" d="M123.42 97a7.41 7.41 0 0 1-1.21.23.36.36 0 0 1-.38-.17.31.31 0 0 1 .28-.31 3 3 0 0 1 .67 0 .21.21 0 0 1 .13 0 5.57 5.57 0 0 1 1.28.1 6.25 6.25 0 0 1-.77.15zM117.63 32.2c8.43 10.59 7.63 24.74 5.89 37.42a.26.26 0 0 1-.08.21l-.69-1c1.64-12.89 2.64-24.71-5.1-36a.46.46 0 0 0-.59-.49.32.32 0 0 1 .57-.14z"/><path class="cls-1" d="M122.75 68.83l.69 1a.79.79 0 0 1-1 .36c-.23-.31-.44-.59-.67-.87.08-.54.13-1.06.18-1.57.31.36.57.72.8 1.08zM122.93 13.23a.27.27 0 0 1-.18.34 20.27 20.27 0 0 1-4.69.35l-1.87.13c-.41-.08-.79-.13-1.2-.2a47.63 47.63 0 0 1 7.56-.54.39.39 0 0 0 .38-.08z"/><path class="cls-1" d="M117.65 32.87c7.74 11.25 6.74 23.07 5.1 36-.23-.36-.49-.72-.77-1.08 1.39-12.48 1.49-22.89-4.51-34.4a2.51 2.51 0 0 0 .13-.28.53.53 0 0 0 .05-.24zM122.57 13.31a.38.38 0 0 1-.29-.36 1.47 1.47 0 0 1 .49.1.24.24 0 0 1 .18.18.39.39 0 0 1-.38.08zM121.68 117.63c.3.31.61.59.92.9h-.1a1.57 1.57 0 0 1-.29 0 5.05 5.05 0 0 0-.51-.52.66.66 0 0 1-.02-.38zM121.8 69.32c.23.28.44.56.67.87a.75.75 0 0 1-.67-.8z"/><path class="cls-1" d="M122.26 13a.38.38 0 0 0 .29.36 47.63 47.63 0 0 0-7.56.54l-1-.11c2.51-.64 5.76-1.43 8.27-.79zM117.47 33.35c6 11.51 5.9 21.92 4.51 34.4a66.67 66.67 0 0 0-22.27-19.09.37.37 0 0 0-.21-.29C88.74 42.61 75.56 36.74 63.05 39c-7 1.31-12.86 2.31-18.91 6.41-4.75 3.21-8.31 7.85-11.33 12.64a.3.3 0 0 0-.05.15c-.15.24-.31.47-.43.67-5.13-5-4.62-15.3-3.7-21.68 1.11-7.64 5.15-14.56 10.51-20 10-10.12 25.4-7.84 38.38-8.61-3.44 2.2-4.9 6.3-4.31 10.56 1.1 7.69 7.25 13.23 13.74 16.84 7.92 4.5 25.68 7.88 30.52-2.63zM121.65 118a5.05 5.05 0 0 1 .51.52.66.66 0 0 1-.51-.52zM121.62 16.28a.44.44 0 0 0-.15-.05 31.61 31.61 0 0 0-7.87-2c.87-.1 1.72-.18 2.59-.23.8.16 1.61.34 2.41.57 1 .25 2.92.53 3.41 1.58a.32.32 0 0 1-.18.44.27.27 0 0 1-.15 0v-.05a.31.31 0 0 0-.06-.26z"/><path class="cls-1" d="M122 67.75c0 .51-.1 1-.18 1.57a1.32 1.32 0 0 0-.18-.26 71.84 71.84 0 0 0-9.12-10.43A82.23 82.23 0 0 0 99.56 49a.43.43 0 0 0 .15-.33A66.67 66.67 0 0 1 122 67.75zM121.29 16.69a2.27 2.27 0 0 1-.43-.05c.07-.1.12-.18.2-.28a.33.33 0 0 1 .41-.13.44.44 0 0 1 .15.05.31.31 0 0 1 .08.34v.05a2.55 2.55 0 0 1-.41.02zM121.68 117.63a.66.66 0 0 0 0 .41 21.15 21.15 0 0 0-1.59-1.43c-2.1-1.72-4.54-3-6.77-4.49-4.22-3-4.94-8.87-8-12.76a.35.35 0 0 0 .28-.16 27.59 27.59 0 0 1 3.36 5.8 18.3 18.3 0 0 0 7.43 8.38 36 36 0 0 1 5.29 4.25zM121.62 119a.07.07 0 0 1-.05.08zM121.45 119c.07-.05.17-.1.17-.05l-.05.13a.15.15 0 0 1-.26-.08c-.02.12.06.1.14 0zM121.57 118.74s.05.05 0 .07a3.23 3.23 0 0 0-.26-.23.28.28 0 0 1 .26.16z"/><path class="cls-1" d="M121.29 16.69a2.55 2.55 0 0 0 .39 0 26.63 26.63 0 0 1-12.59 13.68 4.58 4.58 0 0 0-.56-.17.18.18 0 0 0-.13.33.5.5 0 0 1 .13.1c-.67.28-1.36.54-2 .77-.43 0-.87.08-1.25.13 6.55-2.1 12.93-8.84 16.01-14.84zM121.29 119.07a.15.15 0 0 0 .26.08 2 2 0 0 0-.18.28 6.59 6.59 0 0 1-.85.82 13.53 13.53 0 0 1-3.15 2.38c-1.62.92-3.36 1.69-5 2.72a3.7 3.7 0 0 0-1.31.38.1.1 0 0 0 0 .18h.36a7 7 0 0 0-2.26 2.15c-.69 1.41.34 4 2.13 4a7.31 7.31 0 0 0 3.21-.82.48.48 0 0 0 .38.41c-2 1.1-3.95 1.49-5.2.44-4.16-3.39.15-5.85 2.77-7.54a52.88 52.88 0 0 0 7.07-4.15c.31-.31 2.15-2.15 1.85-1.39 0 .09-.08.11-.08.06zM113.55 14.28a31.61 31.61 0 0 1 7.87 2 .33.33 0 0 0-.41.13c-.08.1-.13.18-.2.28a24.69 24.69 0 0 1-2.59-.84 36.72 36.72 0 0 0-5-.93c-.77-.1-.8-1.25 0-1.2l.77.07-.47.11c-.2.02-.17.38.03.38z"/><path class="cls-1" d="M120.86 16.64a2.27 2.27 0 0 0 .43.05c-3.08 6-9.46 12.74-16 14.82h-.16c0-.07 0-.15.08-.2 6.79-3.19 11.49-8.54 15.65-14.67zM118.7 116.22a.58.58 0 0 1 .77.8l-1-.69a1.25 1.25 0 0 1 .23-.11z"/><path class="cls-1" d="M104.94 124.17a.32.32 0 0 0-.18 0 5.37 5.37 0 0 0-1 .53h-.07c-3.26 1.46-6.61 2.64-9.9 4a5.84 5.84 0 0 1-.2-.59c4.33-2 8.92-3.41 13.17-5.58 4-2 7.8-4.21 11.74-6.23l1 .69a.39.39 0 0 1-.2.2c-4.59 2.54-9.16 5-13.84 7.28a.55.55 0 0 0-.52-.3zM117.65 32.87a.53.53 0 0 1-.05.2 2.51 2.51 0 0 1-.13.28 4.63 4.63 0 0 0-.28-.54 1.24 1.24 0 0 1-.1-.2.39.39 0 0 1 0-.23.46.46 0 0 1 .56.49z"/><path class="cls-1" d="M117.19 32.81a4.63 4.63 0 0 1 .28.54c-4.84 10.51-22.6 7.13-30.55 2.72-6.49-3.61-12.64-9.15-13.74-16.84-.59-4.26.87-8.36 4.31-10.56.25 0 .53 0 .79-.05-4.15 2-5.15 7.64-4.23 12a.43.43 0 0 0 .18.69l.15.56c2.08 5.87 7.39 10.8 12.87 13.64a28.33 28.33 0 0 0 5.23 2.15.45.45 0 0 0 .77.18 37.91 37.91 0 0 0 7.3 1.39.3.3 0 0 0 .31.36 6.92 6.92 0 0 0 1.28-.26c4.28.23 8.48-.41 11.51-2.43a.56.56 0 0 0 .41-.28 9.82 9.82 0 0 0 3.13-3.81z"/><path class="cls-1" d="M117.09 32.61a1.24 1.24 0 0 0 .1.2 9.82 9.82 0 0 1-3 3.8.71.71 0 0 0 .08-.75 2 2 0 0 1-.13-.25 13.56 13.56 0 0 0 2.67-3 .35.35 0 0 1 .28-.2.39.39 0 0 0 0 .2zM116.22 126.76a3.08 3.08 0 0 1 .38 3.31 12.63 12.63 0 0 1-1.1.69c2.36-2.95-.59-5.31-3.62-5a3.71 3.71 0 0 1 .52-.36 4.36 4.36 0 0 1 3.82 1.36zM116.5 79.31c.54.23.28 1-.23 1.08 0-.15.13-.33.18-.49.15-.46-.49-.64-.72-.31a72.86 72.86 0 0 0-16.58-4.46 84 84 0 0 0-8.82-.82c-1 0-3-.46-3.66.31s-1.08 3.12-1.36 4c-.85 2.82-1.85 5.74-2.54 8.69a.92.92 0 0 0-.28 0c.66-3.41 1.77-6.72 2.72-10.08.35-1.28.66-3.51 2.51-3.51a76.62 76.62 0 0 1 9 .51 15.27 15.27 0 0 0 4.4 1 .42.42 0 0 0 .44-.29 68.22 68.22 0 0 1 14.94 4.37z"/><path class="cls-1" d="M115.5 130.76a12.63 12.63 0 0 0 1.1-.69 3.61 3.61 0 0 1-.69 1.1c-.31.18-.64.36-1 .51a.48.48 0 0 1-.38-.41c.35-.15.66-.33.97-.51zM115.81 80.29a3.68 3.68 0 0 0-.49-.18l.38-.49c.23-.33.87-.15.72.31 0 .16-.13.34-.18.49a.59.59 0 0 1-.21 0z"/><path class="cls-1" d="M115.81 80.29l.25.07a.59.59 0 0 0 .21 0c-2 5.25-6.51 9.46-10.36 13.43a2.56 2.56 0 0 0-.77-.15.13.13 0 0 0-.12 0 .4.4 0 0 1 .08-.28c2.1-3.18 4.53-6.16 6.94-9.13.59.43 1.16-.47.7-1 .87-1.08 1.74-2.18 2.56-3.28a3.68 3.68 0 0 1 .51.34zM115 13.85c.41.07.79.12 1.2.2-.87 0-1.72.13-2.59.23-.2 0-.23-.36 0-.43l.47-.11zM115.91 131.17a3 3 0 0 1-.39.41.51.51 0 0 1-.56.1c.31-.15.64-.33.95-.51z"/><path class="cls-1" d="M115.7 79.62l-.38.49c-7.49-2.54-14.82-4.67-22.79-5.13-4.66-.28-6.1 1.54-7.48 5.84-.75 2.29-1.41 4.57-2 6.87a.61.61 0 0 0-.31-.3c.69-3 1.69-5.87 2.54-8.69.28-.93.74-3.39 1.36-4s2.61-.34 3.66-.31a84 84 0 0 1 8.82.82 72.86 72.86 0 0 1 16.58 4.41zM111.88 125.71c3-.26 6 2.1 3.62 5-.31.18-.62.36-.92.51a.39.39 0 0 1 .07-.36c.87-1.15 1.75-2.59.36-3.77a5.8 5.8 0 0 0-3.51-1.2l.13-.08.23-.15z"/><path class="cls-3" d="M115 127.14c1.39 1.18.51 2.62-.36 3.77a.39.39 0 0 0-.07.36 7.31 7.31 0 0 1-3.21.82c-1.79 0-2.82-2.59-2.13-4a7 7 0 0 1 2.26-2.15 5.8 5.8 0 0 1 3.51 1.2z"/><path class="cls-1" d="M113.5 36.05c.18-.16.38-.29.56-.44a2 2 0 0 0 .13.25.71.71 0 0 1-.08.75c-.13.1-.28.2-.41.28a.58.58 0 0 1-.69-.34 1.48 1.48 0 0 1-.08-.13c.19-.12.36-.25.57-.37zM113.4 136.94c.25-.13.48-.29.69-.42a.27.27 0 0 1 0 .42 4.12 4.12 0 0 1-3.22 1.33c.84-.44 1.66-.87 2.48-1.33z"/><path class="cls-6" d="M113 112.61c1.87 1.26 3.75 2.41 5.51 3.72-3.94 2-7.79 4.2-11.74 6.23-4.25 2.17-8.84 3.61-13.17 5.58-3.23-8.58-4.08-17.55-5-26.63-.07-.74-1.22-.74-1.15 0 .92 9.18 1.57 18.48 5.33 27l-.74.36a.46.46 0 0 0-.26.31.19.19 0 0 0-.12.18c-.16 3.18 1.43 6.15 3.12 8.74a13.31 13.31 0 0 0 .8 1.13 17.09 17.09 0 0 0-2 1.2c-.79.46-1.66.77-2.48 1.16-7.1-13.74-8.21-32.1-5.46-47 .77 0 1.54 0 2.33.08a17.34 17.34 0 0 0 2.77.28c.28 0 .54-.39.26-.64 0 0-.08-.08-.13-.08.1-1.26.59-2.41.69-3.62a.18.18 0 0 0-.26-.18.29.29 0 0 0-.2-.23 11.73 11.73 0 0 0-4.08-1c.15-.65.43-1.41.13-1.88l2 .47a9.72 9.72 0 0 0 2 .56.28.28 0 0 0 .48 0 13.68 13.68 0 0 0 1.44-3.74.68.68 0 0 0 .2 0c.13 0 .26-.18.18-.31-.33-.82-1-1-1.79-1.26a22.2 22.2 0 0 0-2.95-.69c.38-.85.38-2.05.64-2.77a.36.36 0 0 0 0-.25c7.9.46 15.79.35 22.58 5.07-2.41 3-4.84 6-6.94 9.13a.4.4 0 0 0-.08.28c-.15.07-.15.36 0 .49.46.33 1.05.53 1.08 1.2a3.06 3.06 0 0 1-.41 1.28 14.38 14.38 0 0 0-1 2c0 .11-.06.21 0 .28a.11.11 0 0 0 0 .08v.1c2.95 4.17 4.02 10.4 8.42 13.37z"/><path class="cls-1" d="M113.73 36.89c.13-.08.28-.18.41-.28a.56.56 0 0 1-.41.28zM114.09 136.52c-.21.13-.44.29-.69.42a6.08 6.08 0 0 1-6.76-1.39.44.44 0 0 0-.39-.43h-.08a19.37 19.37 0 0 1-1.3-1.47 18.64 18.64 0 0 1-2-3s0-.05.07-.1a.34.34 0 0 0-.2-.46.21.21 0 0 0-.13 0 3.78 3.78 0 0 1 1.54-5c.41-.15.8-.36 1.21-.54a.33.33 0 0 1-.13.39c-1.59 1.28-2.93 2.54-2 4.71a14.35 14.35 0 0 0 2.61 4.11c1 1.12 2.26 2.46 3.79 2.79s2.8-.1 4.26-.05a.23.23 0 0 1 .2.02zM114.06 35.61c-.18.15-.38.28-.56.44a18.22 18.22 0 0 0-1.85-3.05 2 2 0 0 0 .49-.39 16.64 16.64 0 0 1 1.92 3zM113 36.58a.58.58 0 0 0 .69.34c-3 2-7.23 2.66-11.51 2.43a10.14 10.14 0 0 0 1.69-.56 17 17 0 0 0 9-2.34 1.48 1.48 0 0 0 .13.13z"/><path class="cls-1" d="M113.5 36.05c-.21.12-.38.25-.59.38a28.25 28.25 0 0 0-1.82-3.2 4.79 4.79 0 0 0 .56-.26 18.22 18.22 0 0 1 1.85 3.08z"/><path class="cls-3" d="M115.32 80.11c-.82 1.1-1.69 2.2-2.56 3.28a.11.11 0 0 0-.08-.1c-6.36-4.82-16-4.87-23.58-4.46a.43.43 0 0 0-.41 0 .08.08 0 0 0-.08 0 .09.09 0 0 0-.08.07s-.07 0-.1.08a6.13 6.13 0 0 0-.92 3.15.44.44 0 0 0 0 .79 11.51 11.51 0 0 0 3 1c.59.13 1.2.44 1.79.52a8.33 8.33 0 0 0-1.18 3.07c-1.05-.69-2.79-.72-4-.79a.23.23 0 0 0-.2.31c-1 .17-1.1 2-1 2.76s.92.72 1.1.29a7.9 7.9 0 0 0 4 .87 6.5 6.5 0 0 0-.77 2.74 10.64 10.64 0 0 0-4.41-.13.5.5 0 0 0-.44.57.21.21 0 0 0-.12.15c-2.8 7.74-2.42 16.48-1.24 24.53s2.31 16.15 6.28 23.25a.53.53 0 0 0 .59.79 13.81 13.81 0 0 0 3.46-1.43 5.24 5.24 0 0 0 2-1.46 16.16 16.16 0 0 0 1.61 1.71c-1.25.47-2.43 1.34-3.61 1.88a37.28 37.28 0 0 1-6.56 2.15c-3.54-8.72-5.16-18-6-27.35-1-9.92.62-19.25 1.08-29.07a.14.14 0 0 0-.08-.15 6.31 6.31 0 0 1 .18-.72.54.54 0 0 0 .21-.74c.59-2.3 1.25-4.58 2-6.87 1.38-4.3 2.82-6.12 7.48-5.84 7.82.48 15.15 2.61 22.64 5.15z"/><path class="cls-6" d="M112.91 36.43a17 17 0 0 1-9 2.34c1.57-.64 3.08-1.51 4.56-2.08a.5.5 0 0 0 0-1c-.59-.23-.94-.64-1.41-.79.9-.36 1.75-.85 2.64-1.23.44-.18 1-.31 1.44-.51a28.25 28.25 0 0 1 1.77 3.27z"/><path class="cls-1" d="M112.76 83.39c.46.48-.11 1.38-.7 1 .18-.39.44-.69.7-1z"/><path class="cls-1" d="M89.35 79a.46.46 0 0 0-.23-.2c7.61-.41 17.22-.36 23.58 4.46a.11.11 0 0 1 .08.1c-.26.31-.52.61-.75.92-6.79-4.72-14.68-4.61-22.58-5.07a.26.26 0 0 0-.1-.21zM111.86 125.71l-.23.15-.13.08h-.36a.1.1 0 0 1 0-.18 3.7 3.7 0 0 1 1.31-.38 3.71 3.71 0 0 0-.52.36zM111.91 32.3a4 4 0 0 0-.41-.41 1.58 1.58 0 0 1 .69.16.25.25 0 0 1 .1.33 1 1 0 0 1-.15.18 2 2 0 0 1-.23-.26z"/><path class="cls-1" d="M112.14 32.56a2 2 0 0 1-.49.39 3.82 3.82 0 0 0-.36-.46 3 3 0 0 1 .62-.21 2 2 0 0 0 .23.28z"/><path class="cls-1" d="M111.91 32.3a3 3 0 0 0-.62.21h.1a.22.22 0 0 0 0-.39l-.3-.15a1.38 1.38 0 0 1 .35 0 4 4 0 0 1 .47.33zM106.61 135.55a6.08 6.08 0 0 0 6.76 1.39c-.82.46-1.64.89-2.48 1.33a8.52 8.52 0 0 1-4.75-2.21 1.48 1.48 0 0 0 .33-.28.36.36 0 0 0 .14-.23zM111.29 32.51a3.82 3.82 0 0 1 .36.46 4.79 4.79 0 0 1-.56.26c-.13-.18-.26-.36-.41-.54a3.39 3.39 0 0 1 .59-.18z"/><path class="cls-1" d="M111 32.2a1.24 1.24 0 0 0-.18-.21l.29-.07.3.15a.22.22 0 0 1 0 .39h-.1a.75.75 0 0 0-.31-.26zM111.47 31.89a1.38 1.38 0 0 0-.35 0 2.85 2.85 0 0 0-.65-.26 5.26 5.26 0 0 0-1.71-1.15c.1-.05.23-.1.33-.16a5.91 5.91 0 0 1 2.38 1.57zM111.27 32.48a3.39 3.39 0 0 0-.59.18 1.4 1.4 0 0 1-.1-.16 4.89 4.89 0 0 0 .66-.05z"/><path class="cls-1" d="M111 32.2a.75.75 0 0 1 .23.28 4.89 4.89 0 0 1-.66.05 3.82 3.82 0 0 0-.34-.36.33.33 0 0 0 .16-.05 4.25 4.25 0 0 1 .61.08zM110.68 32.69c.15.18.28.36.41.54-.46.2-1 .33-1.44.51-.89.38-1.74.87-2.64 1.23a1.49 1.49 0 0 0-.61 0c-.13 0-.23.1-.18.23a.46.46 0 0 1-.15-.75 14.29 14.29 0 0 1 3.38-1.87 5.33 5.33 0 0 0 1.13 0 1.4 1.4 0 0 0 .1.11z"/><path class="cls-1" d="M111 32.2a4.25 4.25 0 0 0-.61-.08l.43-.13a1.24 1.24 0 0 1 .18.21zM111.12 31.92l-.29.07a3.7 3.7 0 0 0-.36-.33 2.85 2.85 0 0 1 .65.26z"/><path class="cls-1" d="M110.47 31.66a3.7 3.7 0 0 1 .36.33l-.43.13a1.55 1.55 0 0 1-.23 0 5.52 5.52 0 0 0-.64-.64 3.7 3.7 0 0 1 .94.18zM110.58 32.53a5.33 5.33 0 0 1-1.13 0l.15-.07a5.24 5.24 0 0 0 .64-.29 3.82 3.82 0 0 1 .34.36z"/><path class="cls-1" d="M110.4 32.12a.33.33 0 0 1-.16.05c0-.05 0-.07-.07-.1a1.55 1.55 0 0 0 .23.05z"/><path class="cls-1" d="M110.17 32.07s.07 0 .07.1a5.24 5.24 0 0 1-.64.29l-.15.07-1.28-.07c-1.1-.08-2.21-.13-3.28-.26a.32.32 0 1 1 0-.64h.2a.17.17 0 0 0 .21.16l1.2-.31a13.33 13.33 0 0 1 3 .05 5.52 5.52 0 0 1 .67.61zM110.47 31.66a3.7 3.7 0 0 0-.94-.23 5.13 5.13 0 0 0-1-.82 1.6 1.6 0 0 1 .23-.1 5.26 5.26 0 0 1 1.71 1.15z"/><path class="cls-6" d="M108.53 30.61a5.13 5.13 0 0 1 1 .82 13.33 13.33 0 0 0-3-.05c.64-.23 1.33-.49 2-.77z"/><path class="cls-1" d="M108.76 30.51a1.6 1.6 0 0 0-.23.1.5.5 0 0 0-.13-.1.18.18 0 0 1 .13-.33 4.58 4.58 0 0 1 .56.17c-.09.06-.23.11-.33.16zM108.42 35.76a.5.5 0 0 1 0 1c-1.48.57-3 1.44-4.56 2.08h-1.36a45.41 45.41 0 0 0 5.21-2.25 1.66 1.66 0 0 0 .43.2 1.58 1.58 0 0 0 0-.38c.08 0 .13-.08.2-.11a.6.6 0 0 1-.2-.07 1.49 1.49 0 0 1 0-.36l-.31.18c-.41-.21-.72-.54-1.18-.8A3.26 3.26 0 0 0 107 35c.48.12.83.53 1.42.76z"/><path class="cls-1" d="M108.29 36.22c-.07 0-.12.08-.2.11v-.18a.6.6 0 0 0 .2.07zM108.09 36.33a1.58 1.58 0 0 1 0 .38 1.66 1.66 0 0 1-.43-.2c.17-.06.34-.13.43-.18z"/><path class="cls-1" d="M108.09 36.15v.18c-.13.05-.26.12-.38.18a1.59 1.59 0 0 1-.52-.26 2.65 2.65 0 0 0 .52-.28.72.72 0 0 0 .38.18z"/><path class="cls-1" d="M108 35.79a1.49 1.49 0 0 0 0 .36.72.72 0 0 1-.36-.18z"/><path class="cls-1" d="M107.71 36a2.65 2.65 0 0 1-.52.28 2.22 2.22 0 0 1-1-1.1.41.41 0 0 0 .31 0c.5.25.8.58 1.21.82z"/><path class="cls-1" d="M107.19 36.25a1.59 1.59 0 0 0 .52.26 45.41 45.41 0 0 1-5.21 2.25l-1.15-.08c1.87-.89 3.95-1.43 5.84-2.43zM106.53 35.17a.41.41 0 0 1-.31 0c0-.13 0-.23.18-.23a1.49 1.49 0 0 1 .61 0 3.26 3.26 0 0 1-.48.23zM106.22 135.12a.44.44 0 0 1 .39.43c-.16-.13-.31-.28-.47-.43z"/><path class="cls-1" d="M105.73 135.68a4.08 4.08 0 0 1-.48-.46 2.52 2.52 0 0 1 .89-.1c.16.15.31.3.47.43a.36.36 0 0 1-.14.23 1.48 1.48 0 0 1-.33.28zM106.5 31.38l-1.2.31a.17.17 0 0 1-.21-.16h.16c.38-.07.82-.12 1.25-.15z"/><path class="cls-3" d="M106.14 136.06a8.52 8.52 0 0 0 4.75 2.21 68.17 68.17 0 0 1-9.64 3.84c-.77-.79-1.59-1.54-2.41-2.28a29.1 29.1 0 0 0 3.1-1.74c1.26-.67 3.06-1.09 4.2-2.03z"/><path class="cls-1" d="M106.14 135.12a2.52 2.52 0 0 0-.89.1 14.58 14.58 0 0 1-1.52-1.75 14.11 14.11 0 0 1-1.33-2.23 1.13 1.13 0 0 0 .49-.54 18.64 18.64 0 0 0 2 3 19.37 19.37 0 0 0 1.25 1.42zM105.66 96.69a3.06 3.06 0 0 0 .41-1.28c0-.67-.62-.87-1.08-1.2-.15-.13-.15-.42 0-.49a.39.39 0 0 0 .12.26.54.54 0 0 0 .34.12c2 .85.59 3-.31 4.69a.33.33 0 0 0-.53.23c-.06-.07 0-.17 0-.28a14.38 14.38 0 0 1 1.05-2.05z"/><path class="cls-1" d="M105.91 93.82c2 .77.62 4-.33 5.33l-.31-.38c.9-1.74 2.36-3.84.31-4.69a.29.29 0 0 0 .26-.12zM105.73 135.68l.41.38c-1.12.93-2.94 1.36-4.2 2a29.1 29.1 0 0 1-3.1 1.74l-.36-.36a47.91 47.91 0 0 1 7.25-3.76z"/><path class="cls-1" d="M105.91 93.82l-.15.16a.29.29 0 0 1-.26.12 1.25 1.25 0 0 0-.34-.12.39.39 0 0 1-.12-.26.13.13 0 0 1 .12 0 2.56 2.56 0 0 1 .75.1zM105.19 98.79l.31.38a.35.35 0 0 1-.28.16.49.49 0 0 1-.57-.26.11.11 0 0 1 0-.08.33.33 0 0 1 .54-.2zM105.25 135.22a4.08 4.08 0 0 0 .48.46 47.91 47.91 0 0 0-7.25 3.79c-.1-.13-.2-.2-.31-.33a17.16 17.16 0 0 1 3.7-2.26 14.59 14.59 0 0 1 3.38-1.66zM105.14 94a1.25 1.25 0 0 1 .34.12.54.54 0 0 1-.34-.12zM104.22 125c-.54.28-1.1.54-1.64.77a4.61 4.61 0 0 1 1.18-1.08h.07c.39-.18.77-.35 1.16-.56a.55.55 0 0 1 .49.33c-.48.22-.85.43-1.26.54z"/><path class="cls-1" d="M104.94 124.17c-.39.21-.77.38-1.16.56a5.37 5.37 0 0 1 1-.53.32.32 0 0 1 .16-.03z"/><path class="cls-5" d="M103.73 133.47a14.58 14.58 0 0 0 1.52 1.75 14.59 14.59 0 0 0-3.41 1.66 17.16 17.16 0 0 0-3.7 2.26 20.58 20.58 0 0 1-1.41-1.54 26.44 26.44 0 0 1-2.44-3.41 9.81 9.81 0 0 0 4.23-1.07c.9-.36 1.77-.82 2.67-1.26.44-.23.87-.38 1.23-.62a14.11 14.11 0 0 0 1.31 2.23z"/><path class="cls-1" d="M102.5 38.76h1.36a10.14 10.14 0 0 1-1.69.56 9.07 9.07 0 0 1-1.28-.08c.54-.12 1.11-.3 1.61-.48zM102.76 130.12a.34.34 0 0 1 .2.46s0 .07-.07.1a2.41 2.41 0 0 1-.26-.59.21.21 0 0 1 .13.03zM102.53 125.84c.54-.23 1.1-.49 1.64-.77a3.78 3.78 0 0 0-1.54 5 1.61 1.61 0 0 0-.69 0 4.54 4.54 0 0 1 .54-4.23zM93.05 129.07c.21.44 1 .13.77-.31v-.05c3.29-1.33 6.64-2.51 9.9-4a4.61 4.61 0 0 0-1.18 1.08c-3.23 1.49-6.54 2.85-10 4a.49.49 0 0 1-.2 0 4.69 4.69 0 0 1-.18-.61.2.2 0 0 0-.31-.13.46.46 0 0 1 .26-.31l.74-.36z"/><path class="cls-1" d="M102.14 130.65c-.07-.2-.15-.38-.2-.56a1.61 1.61 0 0 1 .69 0 2.41 2.41 0 0 0 .26.59 1.13 1.13 0 0 1-.49.54c-.1-.22-.18-.39-.26-.57zM102.5 38.76c-.54.18-1.07.36-1.61.51a1.56 1.56 0 0 1-.31 0 .29.29 0 0 1 .15-.28 5.75 5.75 0 0 1 .62-.29z"/><path class="cls-1" d="M102.4 131.22c-.36.24-.79.39-1.23.62-.9.44-1.77.9-2.67 1.26a9.81 9.81 0 0 1-4.23 1.07q-.18-.27-.33-.54c2.69.06 5.74-1.87 8.2-3 .08.2.16.37.26.59zM101.89 142.73a.3.3 0 0 0 .07.1.48.48 0 0 1 0 .72c-.1 0-.18.08-.28.1a1.6 1.6 0 0 1-.21 0 .86.86 0 0 1-.38-.07.88.88 0 0 1-.36-1 .77.77 0 0 1 .51-.54c.24.28.44.48.65.69z"/><path class="cls-1" d="M101.94 130.09c0 .18.13.36.2.56-2.46 1.13-5.51 3.06-8.2 3a2.69 2.69 0 0 1-.25-.51 17.92 17.92 0 0 0 5.31-1.69 12.05 12.05 0 0 1 2.94-1.36zM101.66 143.65c.1 0 .18-.08.28-.1a.5.5 0 0 1-.49.15 1.6 1.6 0 0 0 .21-.05zM102.17 39.35a6.92 6.92 0 0 1-1.28.26.3.3 0 0 1-.31-.36 1.56 1.56 0 0 0 .31 0 9.07 9.07 0 0 0 1.28.1z"/><path class="cls-3" d="M102.48 125.86a4.54 4.54 0 0 0-.54 4.23 12.05 12.05 0 0 0-2.94 1.36 17.92 17.92 0 0 1-5.33 1.69 16 16 0 0 1-1.36-3.2.49.49 0 0 0 .2 0c3.43-1.23 6.74-2.59 9.97-4.08z"/><path class="cls-1" d="M89.23 57.45c.1-.05.23-.08.33-.13-3.33 9.05 3.23 15.07 11.71 16.92a.48.48 0 0 1 .31.71c-1.62-.28-3.23-.51-4.84-.69-6.93-2.46-11.15-9.3-7.9-16.68a3 3 0 0 0 .39-.13z"/><path class="cls-1" d="M101.58 75a.42.42 0 0 1-.44.29 15.27 15.27 0 0 1-4.4-1c1.61.15 3.26.38 4.84.71zM101.35 38.68a5.75 5.75 0 0 0-.62.29.29.29 0 0 0-.15.28 37.91 37.91 0 0 1-7.3-1.39.45.45 0 0 0 .1-.18 4.27 4.27 0 0 0 .13-.48 39 39 0 0 0 7.84 1.48zM101.25 142.11a.77.77 0 0 0-.51.54 11.94 11.94 0 0 1-1.49-1.07 25.8 25.8 0 0 1-5.9-7.58.32.32 0 0 0 .26.18 1.85 1.85 0 0 0 .66.05 26.44 26.44 0 0 0 2.44 3.41 20.58 20.58 0 0 0 1.41 1.54 4.41 4.41 0 0 0-.46.54c-.16.2.1.46.33.41a5.87 5.87 0 0 0 .85-.26c.82.7 1.64 1.45 2.41 2.24z"/><path class="cls-1" d="M100.71 142.65a.88.88 0 0 0 .36 1 7.09 7.09 0 0 1-2.26-1.11 4.36 4.36 0 0 0 .41-.46.32.32 0 0 0 0-.48 11.94 11.94 0 0 0 1.49 1.05zM98.48 48.35l-.41-.23a1.39 1.39 0 0 1-.26-.1.27.27 0 0 1 .39-.16c.51.26 1 .51 1.51.8a.43.43 0 0 1-.15.33c-.36-.21-.72-.44-1.08-.64z"/><path class="cls-1" d="M99.71 48.66c-.51-.29-1-.54-1.51-.8a.27.27 0 0 0-.39.16c-4.25-2.11-8.43-4.52-13-5.7-2.43-.64-4.81-.76-7.25-1.51A33.42 33.42 0 0 0 69.13 39c-2.67-.13-5.23.66-7.82 1a41.29 41.29 0 0 0-8.48 1.64c-8.62 2.92-14.56 8.79-19.43 16.25.05-.21.1-.41.15-.64s-.1-.13-.15-.05c-.23.33-.44.69-.64 1a.3.3 0 0 1 .05-.15c3-4.79 6.58-9.43 11.33-12.64 6-4.1 11.89-5.1 18.91-6.41 12.51-2.3 25.69 3.57 36.45 9.33a.37.37 0 0 1 .21.33z"/><path class="cls-1" d="M98.48 48.35c.36.2.72.43 1.08.64a.45.45 0 0 1-.47.08l-.38-.18c-.26-.18-.51-.36-.8-.54a.27.27 0 0 1-.1-.33 1.39 1.39 0 0 0 .26.1zM98.35 142.16a3.13 3.13 0 0 1-.49-.41 5.63 5.63 0 0 1 1-.28.37.37 0 0 1 .33.11.32.32 0 0 1 0 .48 4.36 4.36 0 0 1-.41.46 4.38 4.38 0 0 0-.46-.33z"/><path class="cls-1" d="M99.22 141.58a.37.37 0 0 0-.33-.11 5.63 5.63 0 0 0-1 .28 16.16 16.16 0 0 1-1.64-1.75 1.45 1.45 0 0 0 .28-.59.34.34 0 0 0-.41-.41 1.16 1.16 0 0 0-.51.18 13.31 13.31 0 0 1-.8-1.13c-1.69-2.59-3.28-5.56-3.12-8.74a.19.19 0 0 1 .12-.18.59.59 0 0 0 .16.59 12.79 12.79 0 0 0 1.38 4.28 25.8 25.8 0 0 0 5.87 7.58zM99.09 21.31a4.18 4.18 0 0 1 0 .51l-.31.49c0-.06-.05-.13-.08-.18a8.37 8.37 0 0 1 .39-.82zM99.09 21.28a8.37 8.37 0 0 0-.41.79 1 1 0 0 1-.05-.23c.13-.33.29-.69.44-1a3.31 3.31 0 0 1 .02.44z"/><path class="cls-1" d="M98.76 22.31l.31-.49a2.67 2.67 0 0 1-.08.64.18.18 0 0 1-.31.08v-.05zM99.07 20.84c-.15.34-.31.7-.44 1-.15-.72-.23-1.87-.38-2.87l.3-.67a2.1 2.1 0 0 1-.43 0 1.89 1.89 0 0 1-.05-.23 2 2 0 0 0-.1.21 2.52 2.52 0 0 1-.47-.06c.06.24.08.49.13.75-.69 1.46-1.36 3-2 4.64a.59.59 0 0 0-.31-.41L95 23a88.76 88.76 0 0 1 2.54-5.28.6.6 0 0 1 1.07.16 24.44 24.44 0 0 1 .46 2.96zM98.45 139.47l.36.36a5.87 5.87 0 0 1-.85.26c-.23 0-.49-.21-.33-.41a4.41 4.41 0 0 1 .46-.54c.16.13.26.2.36.33zM98.68 22.13c0 .05 0 .12.08.18l-.1.18s-.11-.06-.11-.11a.84.84 0 0 1 .13-.25zM97.91 48.35c.29.18.54.36.8.54-11.87-5.16-24.1-10.28-37.22-8.21a43.67 43.67 0 0 0-12.87 4 5.09 5.09 0 0 1-.48-.64.27.27 0 0 0-.47.26c.11.23.24.46.36.69-5.66 3-10.28 7.38-14.58 13.51a.28.28 0 0 1-.23.15q.11-.35.18-.69c4.87-7.46 10.81-13.33 19.43-16.25A41.29 41.29 0 0 1 61.31 40c2.59-.34 5.15-1.13 7.82-1a33.42 33.42 0 0 1 8.38 1.79c2.44.75 4.82.87 7.25 1.51 4.62 1.18 8.8 3.59 13 5.7a.27.27 0 0 0 .15.35z"/><path class="cls-1" d="M98.68 22.1a.84.84 0 0 0-.13.25.19.19 0 0 1-.1-.1 2.44 2.44 0 0 1 .18-.41 1 1 0 0 0 .05.26zM98.55 22.38c0 .05.06.08.11.11l-.34.53c0 .08-.2 0-.15-.07s.18-.44.28-.67a.19.19 0 0 0 .1.1z"/><path class="cls-1" d="M98.63 21.87a2.44 2.44 0 0 0-.18.41 4 4 0 0 1-.71-2.1c.17-.38.35-.77.51-1.15.15.97.23 2.12.38 2.84zM98.55 18.33l-.3.67a6.24 6.24 0 0 0-.13-.72 2.1 2.1 0 0 0 .43.05zM98.35 142.19a4.38 4.38 0 0 1 .46.33c-1.23 1.21-3.28 1.93-4.79 2.54a15.3 15.3 0 0 1-6.59 1.62.42.42 0 0 1-.28-.7v.13c.15.28.64.08.51-.23v-.1a37.28 37.28 0 0 0 6.56-2.15c1.18-.54 2.36-1.41 3.61-1.88a3.13 3.13 0 0 0 .49.41z"/><path class="cls-1" d="M98.12 18.28a6.24 6.24 0 0 1 .13.72c-.16.38-.34.77-.51 1.15-.06-.41-.08-.82-.11-1.2l.34-.69a.39.39 0 0 0 .15.02z"/><path class="cls-1" d="M98.07 18.05a1.89 1.89 0 0 0 .05.23.39.39 0 0 1-.15 0 2 2 0 0 1 .1-.23z"/><path class="cls-1" d="M98 18.26l-.34.69c0-.26-.07-.51-.13-.75a2.52 2.52 0 0 0 .47.06zM97.74 20.15A46.57 46.57 0 0 0 94.81 29c-.59 2.71-.59 5.53-1.3 8.2l-.57-.2a38.28 38.28 0 0 1 2.51-12.86.61.61 0 0 0 .18-.56c.61-1.62 1.28-3.18 2-4.64.03.39.05.8.11 1.21zM95.91 139.63c-.1-.13-.2-.29-.3-.41a1.16 1.16 0 0 1 .51-.18.34.34 0 0 1 .41.41 1.45 1.45 0 0 1-.28.59c-.13-.13-.25-.28-.34-.41z"/><path class="cls-1" d="M95.91 139.63c.11.13.21.28.34.41a5.24 5.24 0 0 1-2 1.46 13.81 13.81 0 0 1-3.46 1.43.53.53 0 0 1-.59-.79 1.19 1.19 0 0 0 .13.25.51.51 0 0 0 1-.23 15.77 15.77 0 0 0 4.58-2.53z"/><path class="cls-1" d="M95.61 139.22c.1.12.2.28.3.41a15.77 15.77 0 0 1-4.56 2.53.66.66 0 0 0-.07-.3 1.38 1.38 0 0 1-.13-.28c.82-.39 1.69-.7 2.48-1.16a17.09 17.09 0 0 1 1.98-1.2zM95.66 23.59a.61.61 0 0 1-.18.56 4 4 0 0 1 .18-.56zM94.76 23.61A5.26 5.26 0 0 1 95 23l.33.16a.59.59 0 0 1 .31.41 4 4 0 0 0-.18.56.66.66 0 0 1-.74.13 1.06 1.06 0 0 1-.21-.11 5.26 5.26 0 0 1 .25-.54z"/><path class="cls-1" d="M94.71 24.31a.66.66 0 0 0 .74-.13A38.28 38.28 0 0 0 92.94 37c-.2-.07-.43-.12-.64-.2-.87-3.87.46-8.48 2.2-12.64a1.06 1.06 0 0 0 .21.15zM95 23a5.26 5.26 0 0 0-.26.59c-6-3.18-13.25-2.74-19.81-2.71a1.37 1.37 0 0 1-.13-.49C81.59 20 88.84 19.87 95 23z"/><path class="cls-1" d="M94.76 23.61a5.26 5.26 0 0 0-.26.59c-6.25-2.89-12.73-2.46-19.43-2.84a1.65 1.65 0 0 1-.07-.46c6.51-.03 13.76-.47 19.76 2.71zM93.94 133.65q.15.27.33.54a1.85 1.85 0 0 1-.66-.05.32.32 0 0 1-.26-.18c-.18-.25-.07-.74.26-.79a.1.1 0 0 0 .08 0 2.69 2.69 0 0 0 .25.48zM93.84 128.78c.18.44-.56.75-.77.31a2.58 2.58 0 0 1 .38-.18l.36-.16s.03.01.03.03zM93.61 128.14a5.84 5.84 0 0 0 .2.59l-.36.16c-.07-.18-.15-.36-.23-.57z"/><path class="cls-1" d="M93.69 133.14a.1.1 0 0 1-.08 0c-.33.05-.44.54-.26.79a12.79 12.79 0 0 1-1.35-4.15.45.45 0 0 0 .33.13 16 16 0 0 0 1.36 3.23zM93.22 128.32c-.15.05-.28.13-.41.18-3.76-8.51-4.41-17.81-5.33-27-.07-.74 1.08-.74 1.15 0 .9 9.08 1.75 18 5 26.63zM93.2 84.21a.39.39 0 0 0-.57-.26c-1.4-.56-2.87-.77-4.2-1.18a1.51 1.51 0 0 0 .36-.51 22.2 22.2 0 0 1 2.95.69c.79.26 1.46.44 1.79 1.26.08.13 0 .28-.18.31a.68.68 0 0 1-.2 0 1.37 1.37 0 0 0 0-.28zM92.94 37l.57.16a4.27 4.27 0 0 1-.13.48.45.45 0 0 1-.1.18c-.26-.07-.52-.15-.77-.2a7 7 0 0 1-.18-.79c.18.09.41.17.61.17z"/><path class="cls-1" d="M93.22 128.32c.08.21.16.39.23.57a2.58 2.58 0 0 0-.38.18l-.24-.57c.11-.05.24-.13.39-.18zM92.51 37.66c.25.05.51.13.77.2a.45.45 0 0 1-.77-.18zM92.74 84.59a1.31 1.31 0 0 1-.44-.07c.08-.16.13-.29.21-.44a.3.3 0 0 1 .12-.13c.18.08.39.16.57.26v.05a1.37 1.37 0 0 1 0 .28 1.1 1.1 0 0 1-.46.05z"/><path class="cls-1" d="M93.2 84.21c-.18-.1-.39-.18-.57-.26a.39.39 0 0 1 .57.26zM92.74 84.59a1.1 1.1 0 0 0 .41 0 13.68 13.68 0 0 1-1.44 3.74.28.28 0 0 1-.48 0 .58.58 0 0 0 .23 0 .21.21 0 0 0 .12-.36l-.07-.08c.18-1.3.89-2.14 1.23-3.3z"/><path class="cls-1" d="M92.3 84.52a1.31 1.31 0 0 0 .44.07c-.34 1.16-1 2-1.23 3.31a1.77 1.77 0 0 0-.39-.31 8.33 8.33 0 0 1 1.18-3.07z"/><path class="cls-1" d="M92.63 84a.3.3 0 0 0-.12.13c-.08.15-.13.28-.21.44-.59-.08-1.2-.39-1.79-.52a11.51 11.51 0 0 1-3-1 .44.44 0 0 1 0-.79 1 1 0 0 0 .33.72.28.28 0 0 0 .36 0 .45.45 0 0 0 .2-.21c1.36.41 2.83.62 4.23 1.23zM92 129.76a.59.59 0 0 1-.16-.59.2.2 0 0 1 .31.13 4.69 4.69 0 0 0 .18.61.45.45 0 0 1-.33-.13zM92.3 36.84a7 7 0 0 0 .18.79 28.33 28.33 0 0 1-5.23-2.15c-5.48-2.84-10.79-7.77-12.87-13.64l-.15-.56a.18.18 0 0 0 .15 0 5.31 5.31 0 0 0 .69 0 17.28 17.28 0 0 0 3.64 6.51 30.48 30.48 0 0 0 12.92 8.76 6.41 6.41 0 0 0 .67.29z"/><path class="cls-6" d="M92.3 36.84a6.41 6.41 0 0 1-.67-.21 30.48 30.48 0 0 1-12.92-8.76 17.28 17.28 0 0 1-3.64-6.51c6.7.38 13.18-.05 19.43 2.84-1.74 4.16-3.07 8.8-2.2 12.64z"/><path class="cls-1" d="M91.58 88a.21.21 0 0 1-.12.36.58.58 0 0 1-.23 0c-.06 0-.08 0-.08-.1a.63.63 0 0 1 0-.23 1 1 0 0 1 .34.13.43.43 0 0 1 .05-.21zM91.4 90.69c0-.1.06-.2 0-.28a.18.18 0 0 1 .26.18c-.1 1.21-.59 2.36-.69 3.62a1.4 1.4 0 0 0-.39-.26 11 11 0 0 1 .82-3.26z"/><path class="cls-1" d="M91.51 87.9a.43.43 0 0 0-.05.21 1 1 0 0 0-.34-.13v-.39a1.77 1.77 0 0 1 .39.31zM91.4 90.41c.06.08 0 .18 0 .28a.59.59 0 0 1-.4.31h-.07a2.17 2.17 0 0 1 .33-.57.14.14 0 0 1 .14-.02z"/><path class="cls-1" d="M91.4 90.41a.14.14 0 0 0-.15 0 2.17 2.17 0 0 0-.33.57 7.9 7.9 0 0 1-4-.87.54.54 0 0 0 0-.29 2.31 2.31 0 0 1 .08-.71 11.73 11.73 0 0 1 4.08 1 .29.29 0 0 1 .32.3zM90.69 141.81c.15-.08.3-.16.46-.23a1.38 1.38 0 0 0 .13.28.66.66 0 0 1 .07.3.51.51 0 0 1-1 .23 1.19 1.19 0 0 1-.13-.25.3.3 0 0 1 .15-.18z"/><path d="M96.74 74.26a76.62 76.62 0 0 0-9-.51c-1.85 0-2.16 2.23-2.51 3.51-1 3.36-2.06 6.67-2.72 10.08a.2.2 0 0 1-.1 0c-1.18.26-2.36.51-3.57.67-.66.08-1.36 0-2 .18h-.05C72.36 87.93 68 88 63.59 88c-4.84-.1-9.53-1.2-14.33-1.66-3.26-.93-6.69-1.34-9.81-2.7-6.05-2.64-1.45-7.38.43-11.3v-.08c5.79-6.71 9.53-17.12 9-25.94 3.31 4.72 8.95 6.87 14.22 9 8.16 3.35 17.36 5.23 25.74 2.23-3.25 7.45.97 14.25 7.9 16.71zm-12.46-3.94c.28-2.06.28-5.11-.72-7-.8-1.48-2.28-3.15-3.51-1.15-1.82 3 0 7.38 1.13 10.2a.66.66 0 0 0 .92.34.81.81 0 0 0 1.18.28c.72-.39.9-1.99 1-2.67zm-29.51.76c.93-.38.62-1.84-.25-2-3-.74-6.26-1.56-9.38-1.25a1 1 0 0 0 0 1.92c2.25.28 4.46.57 6.69 1-.67.51-1.39 1-2 1.48a24 24 0 0 0-3.39 3.21c-.82 1 .59 2.35 1.39 1.38a20.71 20.71 0 0 1 6.94-5.74z" fill="#f7e5d7"/><path class="cls-1" d="M91.12 88a.63.63 0 0 0 0 .23c0 .05 0 .07.08.1a9.72 9.72 0 0 1-2-.56l-2-.47a.25.25 0 0 0-.28-.12.23.23 0 0 1 .2-.31c1.21.07 2.95.1 4 .79zM90.12 94.38v.06c0 .51.77.51.82 0a.51.51 0 0 1 0-.21s.1 0 .13.08c.28.25 0 .61-.26.64a17.34 17.34 0 0 1-2.77-.28c-.79 0-1.56 0-2.33-.08a.2.2 0 0 0 0-.1.26.26 0 0 0-.38-.28.5.5 0 0 1 .44-.57 10.64 10.64 0 0 1 4.41.13 4.22 4.22 0 0 0-.06.61z"/><path class="cls-1" d="M91 91a.59.59 0 0 0 .41-.34 11 11 0 0 0-.83 3.34 1.07 1.07 0 0 0-.41-.18 6.5 6.5 0 0 1 .75-2.82zM91.15 141.58c-.16.07-.31.15-.46.23-3.75-6.44-5.1-15.79-6.18-23.07-1.08-7.85-1.39-16.74.92-24.28a.7.7 0 0 0 .26.13c-2.75 14.89-1.64 33.25 5.46 46.99zM89.71 56.86c0-.23-.38-.33-.48-.1s-.11.23-.16.33c-8.54 2.91-17.3.91-25.79-2.36-5.45-2.2-11.89-4.56-15-9.92a1.79 1.79 0 0 1 .33-.18c8.87 11.59 29 15.13 42.12 11.49.36-.11.59.43.25.59a14 14 0 0 1-1.43.61 1.74 1.74 0 0 1 .13-.36.24.24 0 0 0 .03-.1z"/><path class="cls-1" d="M90.56 94a1.4 1.4 0 0 1 .39.26.51.51 0 0 0 0 .21c0 .51-.84.51-.82 0v-.06a4.22 4.22 0 0 1 0-.61 1.07 1.07 0 0 1 .43.2zM90.69 141.81l-.29.15a.3.3 0 0 0-.15.18c-4-7.1-5.12-15.33-6.28-23.25s-1.56-16.79 1.24-24.53a.21.21 0 0 1 .12-.15.32.32 0 0 0 .1.23c-2.31 7.54-2 16.43-.92 24.28 1.08 7.28 2.43 16.65 6.18 23.09zM89.71 56.86a.24.24 0 0 1 0 .1 1.74 1.74 0 0 0-.13.36c-.1 0-.23.08-.33.13a1.38 1.38 0 0 1 .18-.46 1 1 0 0 0 .28-.13z"/><path class="cls-1" d="M89.43 57a3.37 3.37 0 0 0-.34.1c.05-.1.1-.23.16-.33s.46-.13.48.1a1 1 0 0 1-.3.13zM89.07 79.24h.36a.36.36 0 0 1 0 .25c-.26.72-.26 1.92-.64 2.77a5 5 0 0 0-.64-.1 15.24 15.24 0 0 1 .79-2.92h.13zM89.33 79a.26.26 0 0 1 .08.21h-.36c0-.13 0-.11-.1 0a.74.74 0 0 0-.25 0 .16.16 0 0 1-.16-.23l.08-.07a.08.08 0 0 1 .08 0h.41a.46.46 0 0 1 .22.09z"/><path class="cls-1" d="M89.41 57a1.38 1.38 0 0 0-.18.46 3 3 0 0 1-.39.13c.08-.18.15-.34.23-.49a3.37 3.37 0 0 1 .34-.1zM89.1 78.83h-.41a.43.43 0 0 1 .41 0zM89 79.24c0-.11.1-.13.1 0zM88.69 79.21a.74.74 0 0 1 .25 0 15.24 15.24 0 0 0-.79 2.92 2.74 2.74 0 0 0-.28 0 .43.43 0 0 0-.36.1 6.13 6.13 0 0 1 .92-3.15s0-.08.1-.08a.16.16 0 0 0 .16.21z"/><path class="cls-1" d="M89.07 57.09c-.08.15-.15.31-.23.49-8.38 3-17.58 1.12-25.74-2.23-5.27-2.16-10.91-4.31-14.22-9v-.2c0-.16-.15-.23-.26-.18a10.54 10.54 0 0 1-.59-1l.26-.13c3.1 5.36 9.54 7.72 15 9.92C71.77 58 80.53 60 89.07 57.09zM88.15 82.16a5 5 0 0 1 .64.1 1.51 1.51 0 0 1-.36.51 1.15 1.15 0 0 1-.33-.1 2.92 2.92 0 0 1 .05-.51zM88.69 78.85a.08.08 0 0 0-.08 0 .08.08 0 0 1 .08 0zM88.61 78.88l-.08.07a.09.09 0 0 1 .08-.07z"/><path class="cls-1" d="M88.07 82.67a1.15 1.15 0 0 0 .33.1.45.45 0 0 1-.2.21.28.28 0 0 1-.36 0 1 1 0 0 1-.33-.72.43.43 0 0 1 .36-.1 2.74 2.74 0 0 1 .28 0 2.92 2.92 0 0 0-.08.51zM87.38 145.86l.31-.08v.1c.13.31-.36.51-.51.23v-.13a.45.45 0 0 1 .18-.1z"/><path class="cls-1" d="M87.69 145.78l-.31.08a44.39 44.39 0 0 1-1.85-4.44v-.1a2.79 2.79 0 0 0-.1-.39.41.41 0 0 0-.08-.12 65.73 65.73 0 0 1-1.97-6.81.64.64 0 0 0-.23-1c-.23-1-.44-2-.64-3.05a107.6 107.6 0 0 1-1.39-32.58c.19-1.46.49-3 .77-4.46a.29.29 0 0 0 .06-.21c.12-.61.23-1.2.33-1.82a.86.86 0 0 0 0-.23c.13-.48.23-1 .36-1.43a.14.14 0 0 1 .08.15c-.46 9.82-2 19.15-1.08 29.07.89 9.34 2.51 18.62 6.05 27.34z"/><path class="cls-1" d="M87.38 145.86a.45.45 0 0 0-.18.1c-.59-1.12-1.13-2.28-1.64-3.46v-.05a2.67 2.67 0 0 0 0-1.05 44.39 44.39 0 0 0 1.82 4.46zM87.23 87.28c.3.47 0 1.23-.13 1.88a.51.51 0 0 0-.23.94l.1.06c-.18.43-1 .35-1.1-.29s.1-2.59 1-2.76c0 0 0 .12.15.15z"/><path class="cls-1" d="M87.2 87.23h-.16c-.1 0-.15-.1-.15-.15a.25.25 0 0 1 .31.15zM87.1 89.16a2.31 2.31 0 0 0-.08.71.54.54 0 0 1 0 .29s-.08 0-.1-.06a.51.51 0 0 1 .18-.94zM85.33 94.21a.26.26 0 0 1 .38.28.2.2 0 0 1 0 .1.7.7 0 0 1-.26-.13.32.32 0 0 1-.12-.25zM85 141.29c-.07-.2-.15-.38-.23-.59a.4.4 0 0 1 .54.08 2.08 2.08 0 0 0 .18.51v.1a2.67 2.67 0 0 1 0 1.05c-.16-.35-.34-.74-.49-1.15z"/><path class="cls-1" d="M85.51 142.47v.05a16.21 16.21 0 0 1-1.51 4.36c-.31.72-1.18.44-1.41-.18a2.36 2.36 0 0 0 .49.18.23.23 0 0 0 .28-.28v-.16a17.94 17.94 0 0 0 1.64-5.15c.15.41.33.8.51 1.18zM85.41 140.93a2.79 2.79 0 0 1 .1.39 2.08 2.08 0 0 1-.18-.51.41.41 0 0 1 .08.12zM85.3 140.78a.4.4 0 0 0-.54-.08 65.77 65.77 0 0 1-2.15-6.35 2.52 2.52 0 0 0 .46-.1.62.62 0 0 0 .31-.21 65.73 65.73 0 0 0 1.92 6.74z"/><path class="cls-1" d="M84.76 140.7c.08.21.16.39.23.59a17.94 17.94 0 0 1-1.69 5.15 5.85 5.85 0 0 0-.36-1.15 20.39 20.39 0 0 0 1-2.15c.29-.75.44-1.51.72-2.21a1.14 1.14 0 0 1 .1-.23z"/><path class="cls-5" d="M84.76 140.7a1.14 1.14 0 0 0-.15.23c-.28.7-.43 1.46-.72 2.21a20.39 20.39 0 0 1-1 2.15c-.64-1.54-1.71-3.07-2.25-4.59a42.89 42.89 0 0 0-2-5.58 31.16 31.16 0 0 0 3.87-.77 65.77 65.77 0 0 0 2.25 6.35z"/><path class="cls-1" d="M83.56 63.34c1 1.87 1 4.92.72 7-.1.71-.28 2.28-1 2.69a.81.81 0 0 1-1.18-.28.48.48 0 0 0 .28-.54c.74.92.92-.44 1.28-1.49.39-1.51.18-6-.56-7.38-1.72-3.41-3.23-1.13-3.23 1.51a20.09 20.09 0 0 0 1.9 7.38l.07-.07a1.57 1.57 0 0 0 .26.59.66.66 0 0 1-.92-.34c-1.13-2.82-3-7.25-1.13-10.2 1.23-2.02 2.71-.35 3.51 1.13z"/><path class="cls-1" d="M83.1 63.32c.74 1.33 1 5.87.56 7.38-.36 1-.54 2.41-1.28 1.49s0-.08 0-.1c-.08-.18-.16-.39-.24-.56h.21c.77.36.77-.49.87-1.2a14 14 0 0 0 .16-2.06 14.53 14.53 0 0 0-.47-4.35c-.23-.69-1.48-2.87-2.15-1.31a5.32 5.32 0 0 0-.33 2.85 24.89 24.89 0 0 0 1.71 6 .37.37 0 0 0-.33.43.65.65 0 0 0 0 .21l-.07.07a20.09 20.09 0 0 1-1.9-7.38c.03-2.6 1.54-4.88 3.26-1.47zM83.15 133a.64.64 0 0 1 .23 1c-.08-.32-.15-.65-.23-1z"/><path class="cls-1" d="M82.43 133.76a5.84 5.84 0 0 0-.18-.69 3.88 3.88 0 0 0 .49-.11.56.56 0 0 1 .41 0c.08.36.15.69.23 1a.62.62 0 0 1-.31.21 2.52 2.52 0 0 1-.46.1 5.14 5.14 0 0 0-.18-.51zM82.59 146.09l.35-.77a5.85 5.85 0 0 1 .36 1.15v.16a.23.23 0 0 1-.28.28 2.36 2.36 0 0 1-.49-.18.7.7 0 0 1 .06-.64zM83.36 68.26a14 14 0 0 1-.16 2.06c-.1.71-.1 1.56-.87 1.2h-.21a24.89 24.89 0 0 1-1.71-6 5.32 5.32 0 0 1 .33-2.85c.67-1.56 1.92.62 2.15 1.31a14.53 14.53 0 0 1 .47 4.28z"/><path class="cls-1" d="M83.15 133a.56.56 0 0 0-.41 0 3.88 3.88 0 0 1-.49.11c-.59-2.24-1.07-4.52-1.46-6.82.18-.08.36-.16.54-.26.67-.36.15-1.31-.49-1.1l-.15.07a.14.14 0 0 1-.1 0 87.51 87.51 0 0 1-1-11 1.24 1.24 0 0 0 .85 0 .29.29 0 0 0 .12-.33 1.54 1.54 0 0 0-1-1v-3.1a5.31 5.31 0 0 0 .62-.49c.38-.31-.11-.92-.52-.66h-.07c0-1.8.15-3.59.3-5.39a.48.48 0 0 0 .38-.76.43.43 0 0 0-.12-.75h-.11c.29-2.72.72-5.41 1.26-8a2.1 2.1 0 0 0 .56-.59c-.28 1.51-.58 3-.77 4.46a107.6 107.6 0 0 0 1.39 32.58c.23 1.03.44 2.03.67 3.03zM83.05 87.72a.54.54 0 0 1-.21.74c.05-.23.16-.46.21-.74zM83.05 87.69c-.08.26-.16.51-.21.74l-.15.08a.54.54 0 0 1-.21 0c.08-.41.16-.82.26-1.2a.61.61 0 0 1 .31.38zM82.94 145.29l-.35.77c-2.29-2.77-3.1-7.51-4.39-10.87l.54-.07a42.89 42.89 0 0 1 2 5.58c.49 1.52 1.56 3.05 2.2 4.59zM82.69 88.54l.15-.08a6.31 6.31 0 0 0-.18.72.26.26 0 0 0-.28 0 5.67 5.67 0 0 1 .1-.57.54.54 0 0 0 .21-.07z"/><path class="cls-1" d="M82.36 88c0-.21.07-.44.1-.64a.92.92 0 0 1 .28 0c-.1.38-.18.79-.26 1.2a.4.4 0 0 1-.23.08 5.5 5.5 0 0 1 .11-.64zM82.36 89.21a.26.26 0 0 1 .28 0c-.13.48-.23 1-.36 1.43a.86.86 0 0 1 0 .23 1.61 1.61 0 0 0-.1.36c0 .13-.26.1-.23 0a6.34 6.34 0 0 1 .07-.75v-.18c.07-.33.18-.66.25-1 .03-.04.06-.07.09-.09zM82.61 134.32a31.16 31.16 0 0 1-3.87.77 2.42 2.42 0 0 0-.31-.57 23.59 23.59 0 0 0 4-.79 5.14 5.14 0 0 1 .18.59zM82.59 146.06a.7.7 0 0 0 0 .61c-1.51-.74-2.2-2.87-2.72-4.31s-1-2.79-1.36-4.22h.08a.21.21 0 0 0 .21-.21 1.1 1.1 0 0 0-.59-.9c-.16-.61-.31-1.2-.44-1.82.16 0 .31 0 .46-.05 1.26 3.39 2.07 8.13 4.36 10.9z"/><path class="cls-1" d="M82.25 88.67a.4.4 0 0 0 .23-.08 5.67 5.67 0 0 0-.1.57s-.06.05-.06.07c-.07.34-.18.67-.25 1a14.06 14.06 0 0 1 .18-1.59v.03zM82.36 87.36a.2.2 0 0 0 .1 0c0 .2-.08.43-.1.64a18.88 18.88 0 0 1-3 .59.21.21 0 0 0-.19-.18c-.76-.08-1.56-.13-2.33-.18.64-.13 1.34-.1 2-.18 1.16-.18 2.34-.43 3.52-.69zM82.25 133.07a5.84 5.84 0 0 1 .18.69 23.59 23.59 0 0 1-4 .79.54.54 0 0 0-.1-.2.39.39 0 0 0-.72.28c-3.76.36-7.66.1-11.38.1-6.35 0-13.22.54-19.25-.72a2.23 2.23 0 0 0 .1-.43c5.7.33 11.31.38 17 .36 6.13 0 12.15.51 18.17-.87zM82.38 72.19a.48.48 0 0 1-.28.54 1.57 1.57 0 0 1-.26-.59l.31-.29a1.66 1.66 0 0 0 .23.31z"/><path class="cls-1" d="M82.36 72.06v.1a1.66 1.66 0 0 1-.23-.31l-.31.29a.65.65 0 0 1 0-.21.37.37 0 0 1 .33-.43c.05.17.13.38.21.56zM82.36 88a5.5 5.5 0 0 0-.11.69 13.91 13.91 0 0 1-3.44.52 6.94 6.94 0 0 1-2.41-.08c.93-.13 1.87-.23 2.8-.38a.14.14 0 0 0 .13-.18 18.88 18.88 0 0 0 3.03-.57zM82.18 91.23a1.61 1.61 0 0 1 .1-.36c-.1.62-.21 1.21-.33 1.82a.33.33 0 0 0-.39-.3c.16-.67.28-1.31.46-1.93a6.34 6.34 0 0 0-.07.75c-.03.12.2.15.23.02z"/><path class="cls-4" d="M82.23 88.69a14.06 14.06 0 0 0-.18 1.59v.18c-.18.62-.3 1.26-.46 1.93-3.18 1-6.51.1-8.18-2.93 1-.08 2-.18 3-.31a6.94 6.94 0 0 0 2.41.08 13.91 13.91 0 0 0 3.41-.54z"/><path class="cls-1" d="M81.48 92.8c0-.16.06-.29.08-.41a.33.33 0 0 1 .39.3.29.29 0 0 1-.06.21 2.1 2.1 0 0 1-.56.59 6.58 6.58 0 0 1 .15-.67z"/><path class="cls-1" d="M81.56 92.39c0 .12 0 .25-.08.41-1.94 1.51-6.69.28-8.12-2.1a2.6 2.6 0 0 0-.08-1.26c1.67 3 5 4 8.18 2.93z"/><path class="cls-1" d="M81.48 92.82a6.58 6.58 0 0 0-.15.67c-2 1.57-6.66.21-8.23-2.07a2.61 2.61 0 0 0 .26-.72c1.43 2.4 6.18 3.63 8.12 2.12zM80.84 124.89c.64-.21 1.16.74.49 1.1-.18.1-.36.18-.54.26 0-.11-.05-.23-.08-.36v-.13a.38.38 0 0 0 0-.18l.28-.13h-.25c.05-.18.08-.38.1-.56z"/><path class="cls-1" d="M81 125.45l-.28.13v-.13z"/><path d="M80.79 126.25c.39 2.3.87 4.58 1.46 6.82-6 1.38-12 .87-18.17.87-5.69 0-11.3 0-17-.36.39-1.64.62-3.31 1.06-5 .53-2.13 1.46-4.18 1.87-6.33 1.69 1.23 3.51 2.33 5.25 3.46 2.46 1.59 5 3.38 7.87 4.1.2 0 .41-.2.28-.36a.55.55 0 0 0 .29-.08c0 .06.1 0 .3-.2a1.12 1.12 0 0 0 .31-.67 15.32 15.32 0 0 1 1.26-2.77 20.43 20.43 0 0 0 2-5.2c.25 1.44.61 2.87 1 4.31a10.73 10.73 0 0 0 1.64 4.41.5.5 0 0 0 .61.62 45.56 45.56 0 0 0 9.97-3.62z" fill="#343f58"/><path class="cls-1" d="M80.84 124.84h-.15zM80.84 124.89c0 .18 0 .38-.07.56h-.11a1.53 1.53 0 0 1-.07-.49.14.14 0 0 0 .1 0s.1-.1.15-.07zM80.71 125.89c0 .13.06.25.08.36a45.56 45.56 0 0 1-10.05 3.69.5.5 0 0 1-.61-.62l.38.39a.4.4 0 0 0 .67-.29.34.34 0 0 0 0-.17 67.33 67.33 0 0 0 9.1-3.44 2.72 2.72 0 0 1 .44.18s-.03-.08-.01-.1z"/><path class="cls-1" d="M80.77 125.45v.13c0 .05 0 0 0 0a.32.32 0 0 1 0-.16zM80.74 125.58a.38.38 0 0 1 0 .18.39.39 0 0 1 0-.15s-.03-.03 0-.03zM80.71 125.76v.23a2.72 2.72 0 0 0-.44-.18l.44-.2a.39.39 0 0 0 0 .15zM80.66 125.45a.32.32 0 0 0 0 .16l-.44.2a1.49 1.49 0 0 0-.25-.13.26.26 0 0 1 0-.48l.43-.18a.4.4 0 0 0 .16-.06 1.53 1.53 0 0 0 .1.49z"/><path class="cls-1" d="M80.59 124.94a.4.4 0 0 1-.16.06.91.91 0 0 1 .13-.08z"/><path class="cls-9" d="M80.56 124.94a.91.91 0 0 0-.13.08l-.43.18c-3 1.23-5.87 2.43-8.87 3.48a28.94 28.94 0 0 0-1.46-4.13c-.61-1.79-1.08-3.66-1.82-5.43a.17.17 0 0 0-.1-.1.34.34 0 0 0-.67-.07c-.89 3.38-3.69 6-4.56 9.43a.81.81 0 0 0 0 .38c-2.05-1.53-4.41-2.71-6.59-4a53.67 53.67 0 0 0-7-4.15c.08 0 .1-.08.15-.13a14.7 14.7 0 0 0 1.54-3.84c.44-1.21 1-2.39 1.41-3.62 2.15 2.36 5.41 2.9 9.1 2.52s7.13-2.06 10.64-3.16c1-.33 2.07-.56 3-.77 1 .54 2 1 3 1.46a11.21 11.21 0 0 0 1.74 1 87.51 87.51 0 0 0 1.05 10.87z"/><path class="cls-1" d="M79.56 113.35v-.69a1.54 1.54 0 0 1 1 1 .29.29 0 0 1-.12.33 1.24 1.24 0 0 1-.85 0zM80 102v-.43h.11a.43.43 0 0 1 .12.75.33.33 0 0 0-.3-.21.3.3 0 0 0 .07-.11zM80.3 102.31a.48.48 0 0 1-.38.76v-.69h.1a.35.35 0 0 0 .28-.07zM79.59 109a3.49 3.49 0 0 1 0-.56h.07c.41-.26.9.35.52.66a5.31 5.31 0 0 1-.62.49 3.26 3.26 0 0 1 .03-.59zM80 125.68a1.49 1.49 0 0 1 .25.13 67.33 67.33 0 0 1-9.1 3.44 1.38 1.38 0 0 0-.05-.57c3-1.05 5.92-2.25 8.87-3.48a.26.26 0 0 0 .03.48z"/><path class="cls-1" d="M80.3 102.31a.35.35 0 0 1-.23.07H80a.89.89 0 0 0 0-.28.33.33 0 0 1 .3.21z"/><path class="cls-9" d="M81.33 93.51c-.54 2.62-1 5.31-1.26 8-4-1.41-8.48-1.72-12.69-2.13s-8.56.77-12.89.31a.26.26 0 0 0-.3.15c-1.8.08-2.88 2.36-2.39 4 .62 2.13 3.2 4 5.38 3.23 2.59 0 5-1.13 7.54-1.9a37.19 37.19 0 0 1 3.74-1 10.38 10.38 0 0 0 .36 7.69c-1.15.31-2.25.64-3.3 1-5.18 2-11.39 2.38-14.31-3a.28.28 0 0 0 0-.28 29.26 29.26 0 0 1-1.7-8.36 45 45 0 0 0 1.59-10.28A5.92 5.92 0 0 0 55.62 94a6.32 6.32 0 0 0 4.77-1.52 7.85 7.85 0 0 0 1.33-1.41c.77 2.44 4.13 3.57 6.49 3.39 1.59-.13 4.05-1.31 4.89-3 1.57 2.26 6.18 3.62 8.23 2.05z"/><path class="cls-1" d="M80.07 101.54v.43a124.09 124.09 0 0 0-12.64-1.89c-3.74-.36-8.66.79-12.2.15.11-.07.08-.15 0-.2a1.92 1.92 0 0 0-1-.13.26.26 0 0 1 .3-.15c4.33.46 8.59-.7 12.89-.31s8.66.69 12.65 2.1z"/><path class="cls-1" d="M80 102a.3.3 0 0 1 0 .13.15.15 0 0 0-.11 0c-.82 0-1.61.06-2.4.13-2.85-.33-5.67-1-8.52-1.33v-.15a.31.31 0 0 0-.56-.23 1.82 1.82 0 0 0-.21.3 22.29 22.29 0 0 0-3.66-.12c-3.26.15-6.62.61-9.82-.18a2.58 2.58 0 0 0 .43-.26c3.54.64 8.46-.51 12.2-.15A124.09 124.09 0 0 1 80 102z"/><path class="cls-1" d="M80 102.1a.89.89 0 0 1 0 .28 23 23 0 0 1-2.48-.18c.79-.07 1.58-.1 2.4-.13a.15.15 0 0 1 .08.03z"/><path class="cls-1" d="M69.44 103.69a.42.42 0 0 0-.72 0s0 .13-.08.18l-1 .15c-3.28.51-6.69 2.15-10 2.74a.36.36 0 0 0-.21-.28l-.43-.18c3.61-1.1 7.23-2.07 10.92-2.82.13.18.43.24.51 0v-.08a66.47 66.47 0 0 1 9-1.18 23 23 0 0 0 2.48.18v.69a66.43 66.43 0 0 0-10.43 1v-.23a.18.18 0 0 0-.04-.17zM79.69 7.87a.32.32 0 0 1 0 .64h-.08a.41.41 0 0 0 0-.64z"/><path class="cls-10" d="M79.89 103.07c-.15 1.8-.25 3.59-.3 5.39-2.62 1.61-6 2.33-9.26 3.12 0 0 0-.07-.07-.12-1.36-2.34-1-4.82-.8-7.39a66.43 66.43 0 0 1 10.43-1z"/><path class="cls-1" d="M79.31 8.21h-1c.26-.13.51-.25.79-.36a4.57 4.57 0 0 1 .52 0 .41.41 0 0 1 0 .64c-.43.06-.9.08-1.33.11a5.53 5.53 0 0 1 1.02-.39z"/><path class="cls-1" d="M79.61 8.51c0 .06 0 .06-.07.08-4.93 2.26-5.87 7.18-4.72 11.82h-.44a.73.73 0 0 0-.33.16c-.92-4.33.08-9.95 4.23-12 .43.02.9 0 1.33-.06zM79.59 108.46a3.49 3.49 0 0 0 0 .56 9.54 9.54 0 0 1-4.36 1.82 4 4 0 0 0-1.23-.15.18.18 0 0 0-.08.33.18.18 0 0 0 .11 0c-.88.16-1.75.34-2.52.54-.38.1-.74.21-1.13.33a1.42 1.42 0 0 0 0-.36c3.21-.74 6.62-1.46 9.21-3.07z"/><path class="cls-1" d="M79.59 109a3.26 3.26 0 0 0 0 .54 10.17 10.17 0 0 1-3.36 1.61 4.62 4.62 0 0 0-1-.33 9.54 9.54 0 0 0 4.36-1.82zM79.59 7.87a4.57 4.57 0 0 0-.52 0s.08 0 .11-.05a.34.34 0 0 1 .41.05z"/><path class="cls-9" d="M79.56 109.56v3.1c-.56-.28-1.23-.51-1.61-.69-.54-.26-1.13-.56-1.75-.8a10.17 10.17 0 0 0 3.36-1.61z"/><path class="cls-1" d="M79.56 113.35v.65a11.21 11.21 0 0 1-1.74-1c-1-.51-2-.92-3-1.46l.67-.18c1.4.58 2.92 1.4 4.07 1.99z"/><path class="cls-1" d="M79.56 112.66v.69c-1.15-.59-2.67-1.41-4.1-2 .26 0 .51-.12.74-.18.62.24 1.21.54 1.75.8.38.18 1.05.41 1.61.69zM79.1 88.57h.19a.14.14 0 0 1-.13.18c-.93.15-1.87.25-2.8.38a2.5 2.5 0 0 1-.54-.23.19.19 0 0 1-.07-.26zM78.28 8.18h1a5.53 5.53 0 0 0-1 .41c-.26 0-.54.05-.79.05a8.78 8.78 0 0 1 .79-.46z"/><path class="cls-1" d="M79.12 88.39a.21.21 0 0 1 .19.18h-.19l-3.38.07.07-.07a3.15 3.15 0 0 1 .95-.36h.05c.75.05 1.55.1 2.31.18zM78.38 137.81c-.07-.26-.15-.49-.2-.75a1.1 1.1 0 0 1 .59.9.21.21 0 0 1-.21.21h-.08a2.42 2.42 0 0 1-.1-.36zM78.43 134.55a2.42 2.42 0 0 1 .31.57l-.54.07a5.1 5.1 0 0 0-.2-.59c.15-.02.31-.02.43-.05z"/><path class="cls-1" d="M78.38 137.81a2.42 2.42 0 0 0 .1.36c-1.2.1-2.61-.59-3.84-.65-2-.12-3.9-.1-5.87-.05-2.79.11-6.41 1-9.23.36a2.52 2.52 0 0 0 .1-.46c4.16-.1 16.49-1.37 18.74.44zM78 134.6a1.71 1.71 0 0 1-.39 0 .39.39 0 0 1 .72-.28.54.54 0 0 1 .1.2c-.12.06-.28.06-.43.08zM79.07 7.82c-.28.11-.53.23-.79.36-13.79-.07-30.79-1.31-41 9.87a37.81 37.81 0 0 0-9.1 34.48c.38 2.2 2 6.38 3.64 7.3-.16.26-.28.49-.44.75-4.85-3.34-5.44-12.58-5.13-17.79.46-7.95 2.89-15.87 7.89-22.2C44.88 7 63 6.28 79.07 7.82z"/><path class="cls-1" d="M78.18 137.06c0 .26.13.49.2.75-2.25-1.8-14.58-.54-18.74-.44a1.36 1.36 0 0 0 .08-.49c3.33-.61 15.61-1.59 18.46.18zM78 134.6a5.1 5.1 0 0 1 .2.59c-.15 0-.3 0-.46.05 0-.2-.07-.38-.13-.59a1.71 1.71 0 0 0 .39-.05z"/><path class="cls-10" d="M77.74 135.24c.13.62.28 1.21.44 1.82-2.85-1.77-15.13-.79-18.46-.18a6.12 6.12 0 0 0 .13-1.2c1.41-.05 2.82-.1 4.23-.13 4.61-.13 9.15.18 13.66-.31z"/><path class="cls-1" d="M78.28 8.18a8.78 8.78 0 0 0-.79.49c-13 .77-28.41-1.51-38.38 8.61-5.36 5.44-9.4 12.36-10.51 20C27.68 43.66 27.17 54 32.3 59c-.19.31-.34.59-.49.87-1.67-.92-3.26-5.1-3.64-7.3a37.81 37.81 0 0 1 9.1-34.48C47.49 6.87 64.49 8.11 78.28 8.18zM77.61 134.65c.06.21.08.39.13.59-4.51.49-9 .18-13.66.31-1.41 0-2.82.08-4.23.13v-.18a.43.43 0 0 0-.85-.13 1.24 1.24 0 0 1-.1.31h-4.46a2.09 2.09 0 0 0-.28-.69.28.28 0 0 0-.51.16 2.58 2.58 0 0 0 0 .48 30.35 30.35 0 0 1-6.74-1.13 2.36 2.36 0 0 0 .09-.5c6 1.26 12.9.72 19.25.72 3.72 0 7.62.26 11.38-.1zM75.79 88.9a2.5 2.5 0 0 0 .54.23c-1 .13-2 .23-3 .31h-.06v-.07a.7.7 0 0 0-.12-.36.12.12 0 0 0-.21 0 3.12 3.12 0 0 0-.18.48 74.36 74.36 0 0 1-10.23.05 1.69 1.69 0 0 0 0-.74c4.46.23 8.77 0 13.26-.16a.19.19 0 0 0 0 .26zM76.2 111.17c-.23.06-.48.13-.74.18l-1-.36.8-.15a4.62 4.62 0 0 1 .94.33z"/><path class="cls-1" d="M76.74 88.21a3.15 3.15 0 0 0-.95.36s-.05 0-.07.07c-4.49.18-8.8.39-13.26.16a1.06 1.06 0 0 0-.05-.31.36.36 0 0 0-.53-.23 2.58 2.58 0 0 0-.57.46c-1.46-.1-3-.23-4.49-.46-2.43-.39-4.74-1-7.12-1.44a.42.42 0 0 0-.31-.51h-.13c4.8.46 9.49 1.56 14.33 1.66 4.41.03 8.77-.04 13.15.24zM75.46 111.35l-.67.18a6.13 6.13 0 0 1-.74-.46l.4-.08zM75 20.9a1.65 1.65 0 0 0 .12.46 5.31 5.31 0 0 1-.69 0 .18.18 0 0 1-.15 0 5.84 5.84 0 0 1-.18-.69.73.73 0 0 1 .33-.16h.44a1.37 1.37 0 0 0 .13.39zM74 111.07a6.13 6.13 0 0 0 .74.46c-1 .21-2 .44-3 .77-3.51 1.1-7 2.8-10.64 3.16s-6.95-.16-9.1-2.52c.05-.13.08-.28.13-.43 2.69 3 7.51 2.82 11.64 1.74 1.82-.49 3.56-1.23 5.33-1.84a.85.85 0 0 0 .74.17.61.61 0 0 0 .44-.36.43.43 0 0 0 .1-.25c.39-.12.75-.23 1.13-.33.77-.23 1.64-.41 2.49-.57z"/><path class="cls-1" d="M74.43 111l-.4.08a.18.18 0 0 1-.11 0 .18.18 0 0 1 .08-.33 4 4 0 0 1 1.23.15zM74.05 20.59a5.84 5.84 0 0 0 .18.69.43.43 0 0 1-.18-.69zM73.28 89.46a2.6 2.6 0 0 1 .08 1.26 3.47 3.47 0 0 1-.39-1 .58.58 0 0 0 0-.23h.28zM73.31 89.44zM73.25 89.41H73v-.2a.24.24 0 0 1 .2.08s.05.07.05.12z"/><path class="cls-1" d="M73.36 90.72a2.61 2.61 0 0 1-.26.72 6.21 6.21 0 0 1-.33-.62 3.07 3.07 0 0 0 .2-1.1 3.47 3.47 0 0 0 .39 1zM73 89.26a.34.34 0 0 0-.31.2 3.12 3.12 0 0 1 .18-.48.12.12 0 0 1 .21 0 .7.7 0 0 1 .12.36.24.24 0 0 0-.2-.08z"/><path class="cls-1" d="M73 89.26v.2h-.33a.34.34 0 0 1 .33-.2zM73 89.69a3.07 3.07 0 0 1-.2 1.1 2.23 2.23 0 0 1-.18-1c0-.08 0-.16.08-.26h.33a.58.58 0 0 1-.03.16zM72.77 90.82a6.21 6.21 0 0 0 .33.62c-.84 1.69-3.3 2.87-4.89 3-2.36.18-5.72-1-6.49-3.39.1-.18.23-.33.33-.51 1.95 4.46 9.34 4.38 10.72.28z"/><path class="cls-1" d="M72.67 89.49c0 .1-.06.18-.08.26v-.08a.21.21 0 0 1 .08-.18z"/><path class="cls-4" d="M72.67 89.49a.21.21 0 0 0-.08.18v.13a5.34 5.34 0 0 1-1 2.12 4.91 4.91 0 0 1-3.38 1.39c-2.8.18-4.46-1.33-5.9-3.36a3.24 3.24 0 0 0 .13-.41 74.36 74.36 0 0 0 10.23-.05z"/><path class="cls-1" d="M72.59 89.8a2.23 2.23 0 0 0 .18 1c-1.38 4.12-8.77 4.2-10.72-.26a4.67 4.67 0 0 0 .26-.56c1.44 2 3.1 3.54 5.9 3.36a4.91 4.91 0 0 0 3.38-1.39 5.34 5.34 0 0 0 1-2.15zM70.77 129.37a1.86 1.86 0 0 0 .38-.12.34.34 0 0 1 0 .17.4.4 0 0 1-.67.29l-.38-.39a.49.49 0 0 1 .33-.39h.1a3 3 0 0 0 .24.44z"/><path class="cls-1" d="M71.15 129.25a1.86 1.86 0 0 1-.38.12 3 3 0 0 1-.21-.48l.54-.21a1.38 1.38 0 0 1 .05.57zM71.1 128.68l-.54.21a63 63 0 0 1-2.89-9.31 5.29 5.29 0 0 0 0-.56.17.17 0 0 1 .1.1c.74 1.77 1.21 3.64 1.82 5.43a28.94 28.94 0 0 1 1.51 4.13z"/><path class="cls-9" d="M77.49 102.2a66.47 66.47 0 0 0-9 1.18 11.67 11.67 0 0 0 .53-2.51c2.8.33 5.62 1 8.47 1.33z"/><path class="cls-1" d="M70.56 128.89h-.1a.49.49 0 0 0-.33.39 10.73 10.73 0 0 1-1.64-4.41c-.36-1.44-.72-2.87-1-4.31a8.62 8.62 0 0 0 .15-1 63 63 0 0 0 2.92 9.33zM70.33 111.58a1.42 1.42 0 0 1 0 .36 3.8 3.8 0 0 0-.54.18 2.84 2.84 0 0 1-.25-.39zM69.82 112.15a3.8 3.8 0 0 1 .54-.18.43.43 0 0 1-.1.25.61.61 0 0 1-.44.36.85.85 0 0 1-.74-.17 5.44 5.44 0 0 1 .74-.26z"/><path class="cls-1" d="M70.33 111.58l-.76.18c-1.21-2.07-1.21-5.33-.57-7.61a3.69 3.69 0 0 1 .46-.08c-.2 2.57-.56 5.05.8 7.39.02.05.05.07.07.12zM69.57 111.76a2.84 2.84 0 0 0 .25.39 5.44 5.44 0 0 0-.74.26.72.72 0 0 1-.13-.19.91.91 0 0 1-.13-.28 6.8 6.8 0 0 0 .75-.18z"/><path class="cls-1" d="M69 104.15a4.59 4.59 0 0 0-.51.1 1.11 1.11 0 0 1 .15-.43l.8-.13a.18.18 0 0 1 0 .15v.23a3.69 3.69 0 0 0-.44.08zM68.72 103.64a.42.42 0 0 1 .72 0l-.8.13.08-.13zM69 112.22a.72.72 0 0 0 .13.19c-1.77.61-3.51 1.35-5.33 1.84-4.13 1.08-9 1.31-11.64-1.74a1.21 1.21 0 0 0 0-.18.53.53 0 0 0-.67-.64 8.67 8.67 0 0 1-.74-1.46.48.48 0 0 0 .46-.23c2.92 5.35 9.13 4.92 14.31 3 1-.39 2.15-.72 3.3-1a.91.91 0 0 0 .18.22z"/><path class="cls-1" d="M69.57 111.76a6.8 6.8 0 0 1-.75.18 10.38 10.38 0 0 1-.36-7.69 4.59 4.59 0 0 1 .51-.1c-.61 2.28-.61 5.54.6 7.61zM68.62 100.82a1.71 1.71 0 0 0-.39 0 1.82 1.82 0 0 1 .21-.3.31.31 0 0 1 .56.23v.15c0 .05-.26-.06-.38-.08z"/><path class="cls-1" d="M68.62 100.82c.12 0 .23 0 .35.05a11.67 11.67 0 0 1-.53 2.51c-.18 0-.36.08-.54.1a.24.24 0 0 1-.1-.1 3.14 3.14 0 0 1 .43-2.59 1.71 1.71 0 0 1 .39.03zM68.64 103.82a1.11 1.11 0 0 0-.15.43 37.19 37.19 0 0 0-3.74 1c-2.49.77-4.95 1.85-7.54 1.9a1.39 1.39 0 0 0 .26-.1.24.24 0 0 0 .13-.29c3.33-.59 6.74-2.23 10-2.74z"/><path class="cls-1" d="M68.44 103.38v.08c-.08.26-.38.2-.51 0 .15 0 .33-.05.51-.08z"/><path class="cls-10" d="M67.8 103.38a.24.24 0 0 0 .1.1c-3.69.75-7.31 1.72-10.92 2.82-1.59-.46-3.15-.87-4-2.46a2.18 2.18 0 0 1-.07-2.17c.38-.72 1.2-.85 1.87-1.18 3.2.79 6.56.33 9.82.18a22.29 22.29 0 0 1 3.66.12 3.14 3.14 0 0 0-.46 2.59z"/><path class="cls-1" d="M67.67 119.58a8.62 8.62 0 0 1-.15 1c-.08-.41-.14-.82-.19-1.23a.61.61 0 0 0 0-.23.07.07 0 0 1 0-.1.29.29 0 0 1 .34 0 5.29 5.29 0 0 1 0 .56z"/><path class="cls-1" d="M67.33 119.35c0 .41.11.82.19 1.23a20.43 20.43 0 0 1-2 5.2 15.32 15.32 0 0 0-1.26 2.77 1.12 1.12 0 0 1-.31.67c-.2.2-.28.26-.3.2a.44.44 0 0 0 .15-.1.34.34 0 0 0 0-.51c0 .1-.21.54-.15.61a.55.55 0 0 1-.29.08v-.05a7.18 7.18 0 0 0-.9-.69.81.81 0 0 1 0-.38c.87-3.39 3.67-6 4.56-9.43a.34.34 0 0 1 .67.07.29.29 0 0 0-.34 0 .07.07 0 0 0 0 .1.18.18 0 0 0 0 .15.11.11 0 0 0-.02.08z"/><path class="cls-1" d="M67.36 119.12a.61.61 0 0 1 0 .23.11.11 0 0 1 0-.08.18.18 0 0 1 0-.15zM63.85 128.81a.34.34 0 0 1 0 .51.44.44 0 0 1-.15.1c-.06-.07.15-.51.15-.61zM63.41 129.5c.13.16-.08.41-.28.36-2.87-.72-5.41-2.51-7.87-4.1-1.74-1.13-3.56-2.23-5.25-3.46a.44.44 0 0 0 .05-.15.32.32 0 0 0-.57-.26c-.48-.36-.94-.77-1.4-1.18a.2.2 0 0 1 .07-.35.47.47 0 0 0 .72.2 53.67 53.67 0 0 1 7 4.15c2.18 1.34 4.54 2.52 6.59 4a.83.83 0 0 0 .44.59.58.58 0 0 0 .5.2z"/><path class="cls-1" d="M63.39 129.45v.05a.58.58 0 0 1-.48-.15.83.83 0 0 1-.44-.59 7.18 7.18 0 0 1 .92.69zM62.46 88.8a1.69 1.69 0 0 1 0 .74c-.15 0-.31 0-.46-.05a.35.35 0 0 1 0-.08c0-.07-.08-.1-.16-.1.08-.18.13-.36.21-.54.11 0 .26.03.41.03z"/><path class="cls-1" d="M62 88.77a5.29 5.29 0 0 1-.67 0 2.58 2.58 0 0 1 .57-.46.36.36 0 0 1 .53.23 1.06 1.06 0 0 1 .05.31c-.17-.05-.32-.08-.48-.08zM62.44 89.54a3.24 3.24 0 0 1-.13.41 4.38 4.38 0 0 1-.33-.46c.15.02.31.02.46.05z"/><path class="cls-1" d="M62.05 90.51c-.1.18-.23.33-.33.51a2.63 2.63 0 0 1-.15-1.3.86.86 0 0 1 .13-.29.89.89 0 0 0 .28 0 4.38 4.38 0 0 0 .33.46 4.67 4.67 0 0 1-.26.62z"/><path class="cls-1" d="M61.93 89.41a.35.35 0 0 0 0 .08.89.89 0 0 1-.28 0 .44.44 0 0 0 0-.15c.2-.03.23 0 .28.07z"/><path class="cls-1" d="M62 88.77c-.08.18-.13.36-.21.54a.2.2 0 0 0-.16.15 4.93 4.93 0 0 1-.66-.07 3.9 3.9 0 0 1 .38-.67 5.29 5.29 0 0 0 .65.05z"/><path class="cls-1" d="M61.75 89.31a.44.44 0 0 1 0 .15h-.11a.2.2 0 0 1 .11-.15z"/><path class="cls-1" d="M61.59 89.46h.11a.86.86 0 0 0-.13.29.33.33 0 0 1 0-.24s0-.05.02-.05z"/><path class="cls-1" d="M61.59 89.46v.05a.33.33 0 0 0 0 .24 6.06 6.06 0 0 1-5.36 3.61 5.21 5.21 0 0 1-5.05-3.59c0-.67 0-1.31-.1-2a.69.69 0 0 1 .21 0v.07c.46 2.85 2.61 5.67 5.92 4.67a5.77 5.77 0 0 0 3.49-2.72 3.45 3.45 0 0 1 .23-.43 4.93 4.93 0 0 0 .66.1z"/><path class="cls-1" d="M61.57 89.75a2.63 2.63 0 0 0 .15 1.3 7.85 7.85 0 0 1-1.33 1.41A6.32 6.32 0 0 1 55.62 94a5.92 5.92 0 0 1-4.49-2.93v-1.26a5.21 5.21 0 0 0 5.05 3.59 6.06 6.06 0 0 0 5.39-3.65zM61.31 88.72a3.9 3.9 0 0 0-.38.67 67.94 67.94 0 0 1-9.69-1.59.23.23 0 0 0-.28-.16.25.25 0 0 0-.31 0c-.62-.15-1.23-.33-1.85-.51.18 0 .33 0 .49.05a.38.38 0 0 0 .41-.36c2.38.46 4.69 1.05 7.12 1.44 1.52.23 3.03.36 4.49.46z"/><path class="cls-4" d="M60.93 89.39a3.45 3.45 0 0 0-.23.43 5.77 5.77 0 0 1-3.49 2.72c-3.31 1-5.46-1.82-5.92-4.67v-.07a67.94 67.94 0 0 0 9.64 1.59z"/><path class="cls-1" d="M59.39 135.68h-.49a1.24 1.24 0 0 0 .1-.31.43.43 0 0 1 .85.13v.18z"/><path class="cls-1" d="M59.39 135.68h.46a6.12 6.12 0 0 1-.13 1.2c-.26.08-.46.11-.59.16a6.52 6.52 0 0 0 .26-1.36z"/><path class="cls-1" d="M59.64 137.37a2.52 2.52 0 0 1-.1.46c-.13 0-.28-.08-.41-.1a.32.32 0 0 1-.13-.1 4.49 4.49 0 0 0 .13-.59c.13 0 .33-.08.59-.16a1.36 1.36 0 0 1-.08.49z"/><path class="cls-1" d="M59 137.63a.32.32 0 0 0 .13.1c.13 0 .28.08.41.1a27.2 27.2 0 0 1-2.18 5.49c-.41.84-.79 3.2-1.92 3.36a.42.42 0 0 1-.26-.06.5.5 0 0 0-.12-.51 8.42 8.42 0 0 1-.26-1 10.4 10.4 0 0 1 1.33-2.59 31.43 31.43 0 0 0 2.77-6.89h.49a6.52 6.52 0 0 1-.26 1.36.37.37 0 0 0-.13.64z"/><path class="cls-1" d="M59.13 137a4.49 4.49 0 0 1-.13.59.37.37 0 0 1 .13-.59z"/><path class="cls-5" d="M54.44 135.65h4.46a31.43 31.43 0 0 1-2.77 6.89 10.4 10.4 0 0 0-1.33 2.59 5.81 5.81 0 0 1-.2-.95c-.11-1.23-.08-2.48-.08-3.74s.38-3.33-.08-4.79z"/><path class="cls-1" d="M57.29 106.74h.28a.24.24 0 0 1-.13.29 1.39 1.39 0 0 1-.26.1 8.85 8.85 0 0 1-1.77-.13c-.1 0-.07-.15 0-.18l.42-.13a4.4 4.4 0 0 0 1.46.05z"/><path class="cls-1" d="M57.57 106.71h-.28a4.4 4.4 0 0 1-1.46-.08l1.17-.33.38.13a.36.36 0 0 1 .19.28z"/><path class="cls-1" d="M55.41 107a8.85 8.85 0 0 0 1.77.13c-2.18.82-4.76-1.1-5.38-3.23-.49-1.64.59-3.92 2.39-4a.38.38 0 0 0 .05.44c-3.8 1-2 5.64 1.59 6.35l-.42.13c-.07 0-.1.18 0 .18z"/><path class="cls-1" d="M57 106.3l-1.15.36c-3.59-.71-5.39-5.3-1.59-6.35 0 0 .07.07.15.1l.36.08c-.67.33-1.49.46-1.87 1.18a2.18 2.18 0 0 0 .07 2.17c.86 1.59 2.42 2 4.03 2.46zM54.93 100.15a2.69 2.69 0 0 0-.69.16.38.38 0 0 1-.05-.44 1.92 1.92 0 0 1 1 .13c.1 0 .13.13 0 .2a.4.4 0 0 1-.26-.05zM55.06 146.11a.5.5 0 0 1 .12.51.73.73 0 0 1-.43-.48 1.82 1.82 0 0 1 0-1 8.42 8.42 0 0 0 .31.97z"/><path class="cls-1" d="M55.18 100.2a2.58 2.58 0 0 1-.43.26l-.36-.08c-.08 0-.13 0-.15-.1a2.69 2.69 0 0 1 .69-.16.4.4 0 0 0 .25.08zM53 71c.3 0 .58.13.89.21 0-.23-.12-.46-.18-.72.18-.13.34-.26.49-.36l-.63-.13c0-.21-.1-.41-.15-.64a4.43 4.43 0 0 1-.49.48 9.83 9.83 0 0 1-1.1.93c-2.23-.46-4.44-.75-6.69-1a1 1 0 0 1 0-1.92c3.12-.31 6.35.51 9.38 1.25.87.21 1.18 1.67.25 2a20.71 20.71 0 0 0-6.94 5.72c-.8 1-2.21-.41-1.39-1.38a24 24 0 0 1 3.39-3.21c.61-.51 1.33-1 2-1.48.38.05.77.13 1.17.25zM54 138.06a.51.51 0 0 0 0-1 12.88 12.88 0 0 0 0-1.43 3.32 3.32 0 0 1 .43 0c.46 1.46.08 3.46.08 4.82s0 2.51.08 3.74a5.81 5.81 0 0 0 .2.95 1.82 1.82 0 0 0 0 1 .73.73 0 0 0 .43.48.57.57 0 0 1-.64.36c-1.69-.23-1.43-3.33-1.38-4.53.05-1.44.13-2.93.26-4.36h.51a.09.09 0 0 0 .03-.03z"/><path class="cls-1" d="M54 135.63a1.71 1.71 0 0 0-.39 0 2.58 2.58 0 0 1 0-.48.28.28 0 0 1 .51-.16 2.09 2.09 0 0 1 .28.69 3.32 3.32 0 0 0-.4-.05zM54.21 70.11c-.15.1-.31.23-.49.36 0-.15-.1-.33-.15-.51zM54 137.06a.51.51 0 0 1 0 1v-1z"/><path class="cls-1" d="M54 135.63a12.88 12.88 0 0 1 0 1.43h-.54c0-.49.08-1 .13-1.44a1.71 1.71 0 0 1 .41.01z"/><path class="cls-1" d="M53.47 137.58a2 2 0 0 1 0-.54h.54v1a.09.09 0 0 1-.08 0h-.51a1.73 1.73 0 0 1 .05-.46zM53.72 70.47c.06.26.13.49.18.72-.31-.08-.59-.16-.89-.21.25-.18.48-.36.71-.51z"/><path class="cls-1" d="M53.57 70c0 .18.1.36.15.51-.23.15-.46.33-.71.51-.41-.1-.8-.18-1.18-.25a9.83 9.83 0 0 0 1.1-.93z"/><path class="cls-10" d="M53.62 135.6c0 .46-.1 1-.13 1.44-4.12 0-8.33-.1-12.4.69 3.79-5.23 5.61-11.59 5.64-18.71a.37.37 0 0 0 .15-.28c.23-3.13.67-6.72.64-10.23q.73-2.36 1.44-4.82a14.41 14.41 0 0 0 1.18 5.67.3.3 0 0 0 0 .28 9.25 9.25 0 0 0 1.08 2.28 43.16 43.16 0 0 0-2.29 4.56 6.62 6.62 0 0 0-.76 3.79v.06a.2.2 0 0 0-.07.35c.46.41.92.82 1.4 1.18a21.64 21.64 0 0 0-2.5 5.62 16.76 16.76 0 0 0-1.2 6.87c.08.59.95.82 1.1.15a30.35 30.35 0 0 0 6.72 1.1z"/><path class="cls-1" d="M53.42 69.32c0 .23.1.43.15.64l-.64-.16a4.43 4.43 0 0 0 .49-.48zM53.49 137a2 2 0 0 0 0 .54c-4.23 0-8.49-.16-12.72.64.13-.16.23-.34.34-.49 4.05-.75 8.26-.63 12.38-.69z"/><path class="cls-1" d="M53.47 137.58a1.73 1.73 0 0 0 0 .51 78.69 78.69 0 0 0-13 .64h-.06a3.11 3.11 0 0 0 .39-.49c4.2-.82 8.44-.66 12.67-.66zM51.49 111.69a.53.53 0 0 1 .67.64 1.21 1.21 0 0 1 0 .18 5.52 5.52 0 0 1-.67-.82z"/><path class="cls-1" d="M51.54 112.43a3.82 3.82 0 0 1-.35-.51.41.41 0 0 1 .3-.23 5.52 5.52 0 0 0 .62.82c0 .15-.08.3-.13.43a4.36 4.36 0 0 1-.44-.51z"/><path class="cls-1" d="M51.54 112.43a4.36 4.36 0 0 0 .44.51c-.41 1.23-1 2.41-1.41 3.62A14.7 14.7 0 0 1 49 120.4c-.05 0-.07.1-.15.13s-.39-.15-.56-.23a.11.11 0 0 0-.16 0v-.06a6.62 6.62 0 0 1 .76-3.79 43.16 43.16 0 0 1 2.29-4.56 3.82 3.82 0 0 0 .36.54z"/><path class="cls-1" d="M51.49 111.69a.41.41 0 0 0-.3.23 9.25 9.25 0 0 1-1.08-2.28.3.3 0 0 1 0-.28c.1.23.2.43.3.66a.44.44 0 0 0 .31.21 8.67 8.67 0 0 0 .77 1.46zM51.24 109.69a.28.28 0 0 1 0 .28 4.83 4.83 0 0 1-.33-.64.35.35 0 0 0-.33-.21 18.88 18.88 0 0 1-1.29-6.58v-.08a8.86 8.86 0 0 0 .28-1.13 29.26 29.26 0 0 0 1.67 8.36zM51.24 87.8a.69.69 0 0 0-.21 0 .16.16 0 0 0 0-.11.23.23 0 0 1 .21.11z"/><path class="cls-1" d="M50.75 110.23a.44.44 0 0 1-.31-.21c-.1-.23-.2-.43-.3-.66a.42.42 0 0 1 .41-.24.35.35 0 0 1 .33.21 4.83 4.83 0 0 0 .33.64.48.48 0 0 1-.46.26zM51.16 89.77v1.26a4.17 4.17 0 0 1-.43-1 4.26 4.26 0 0 1 0-2.13.42.42 0 0 1 .13-.18.76.76 0 0 1 .21.06c.04.68.06 1.32.09 1.99z"/><path class="cls-1" d="M51.13 91a45 45 0 0 1-1.59 10.28v-.43a.23.23 0 1 0-.46 0 15.77 15.77 0 0 0-.1 2.74q-.7 2.46-1.44 4.82v-1.59c1.16-5.44 2.72-11.23 3.16-16.82a4.17 4.17 0 0 0 .43 1zM51 87.75a.76.76 0 0 0-.21-.06.43.43 0 0 1 .16 0 .16.16 0 0 1 .05.06zM51 87.64a.43.43 0 0 0-.16 0 .44.44 0 0 0-.15 0 .25.25 0 0 1 .31 0z"/><path class="cls-1" d="M50.65 87.64a.44.44 0 0 1 .15 0 .42.42 0 0 0-.13.18 4.26 4.26 0 0 0 0 2.13c-.44 5.59-2 11.38-3.21 16.92-.05-.72-.1-1.41-.18-2.1.9-5.72 2.31-11.41 3.31-17.07.03-.01.06-.03.06-.06z"/><path class="cls-3" d="M50.65 87.64v.11c-1 5.66-2.41 11.35-3.31 17.07a16.6 16.6 0 0 0-2.64-7.72C41 91.59 32.83 86.59 27 83.54c1.28-.38 2.46-1.69 3.54-2.43A10.22 10.22 0 0 1 35.06 79a.24.24 0 0 0 .13 0 4.56 4.56 0 0 0 1.46 4.67c3 2.84 8.18 3.23 12.15 3.56.62.08 1.2.26 1.85.41z"/><path class="cls-1" d="M50.55 109.12a.42.42 0 0 0-.41.24 14.41 14.41 0 0 1-1.14-5.67c.1-.39.2-.74.3-1.1a18.88 18.88 0 0 0 1.25 6.53zM49.72 122.07a2.09 2.09 0 0 1-.23-.21.32.32 0 0 1 .57.26.44.44 0 0 1-.05.15l-.29-.18zM50 122.27c-.41 2.15-1.34 4.2-1.87 6.33-.44 1.64-.67 3.31-1.06 5h-.35a.27.27 0 0 0-.31.13 41.25 41.25 0 0 1 3.3-11.59z"/><path class="cls-1" d="M46.37 134.12a.35.35 0 0 0 .25.28l.26.07c-.15.67-1 .44-1.1-.15a16.76 16.76 0 0 1 1.2-6.87 21.64 21.64 0 0 1 2.49-5.59 2.09 2.09 0 0 0 .23.21 41.25 41.25 0 0 0-3.3 11.59.36.36 0 0 0-.03.46zM47.85 86.49c0-.18.13-.31.36-.31s.69 0 1 .11h.13a.42.42 0 0 1 .31.51.38.38 0 0 1-.41.36c-.16 0-.31 0-.49-.05a5.84 5.84 0 0 1-.69-.18.43.43 0 0 1-.28-.46zM49.26 102.46v.08c-.1.36-.2.71-.3 1.1a15.77 15.77 0 0 1 .1-2.74.23.23 0 1 1 .46 0v.43a8.86 8.86 0 0 1-.26 1.13z"/><path class="cls-1" d="M49.26 86.29c-.36-.06-.69-.08-1-.11s-.36.13-.36.31c-4.08-.67-11.56-1.85-12.23-5.92-.48-2.57 2.19-5.57 3.7-7.74s.06 0 .08 0a5.49 5.49 0 0 0 .44-.52v.08C38 76.26 33.4 81 39.45 83.64c3.12 1.36 6.55 1.77 9.81 2.65z"/><path class="cls-1" d="M39.62 72.16s-.1.13-.15.18-.25.28-.38.41a.23.23 0 0 1 0-.31c5.49-8 8.25-16.76 9.41-26.32a.18.18 0 0 1 .15-.18c.08.13.18.26.26.38.56 8.82-3.18 19.23-9 25.94a.17.17 0 0 0-.29-.1z"/><path class="cls-1" d="M48.88 46.12v.2c-.08-.12-.18-.25-.26-.38.11-.05.23.06.26.18zM48.32 120.3c.17.08.38.15.56.23a.47.47 0 0 1-.72-.2.11.11 0 0 1 .16-.03zM48.11 87a5.84 5.84 0 0 0 .69.18c-4-.33-9.18-.72-12.15-3.56a4.56 4.56 0 0 1-1.46-4.67.38.38 0 0 0 .18-.64 18.14 18.14 0 0 1 3.72-5.49.24.24 0 0 0 .28.08c-1.51 2.1-4.18 5.1-3.77 7.67.67 4.07 8.15 5.25 12.23 5.92a.43.43 0 0 0 .28.51zM48.29 44.81l-.26.13c-.12-.23-.25-.46-.36-.69a.27.27 0 0 1 .47-.26 5.09 5.09 0 0 0 .48.64 1.79 1.79 0 0 0-.33.18z"/><path class="cls-2" d="M48.62 45.94a.18.18 0 0 0-.15.18c-1.16 9.56-3.92 18.33-9.41 26.32a.23.23 0 0 0 0 .31 18.14 18.14 0 0 0-3.72 5.49.37.37 0 0 0-.2-.13c-1.42-.54-3.16.54-4.36 1.28a24 24 0 0 1-1.39-8.69c.21-3.77 1.95-6.87 3.18-10.23a1 1 0 0 0 .26-.69c.13-.38.25-.77.36-1.18a.28.28 0 0 0 .23-.15c4.3-6.13 8.92-10.54 14.58-13.51a10.54 10.54 0 0 0 .62 1z"/><path class="cls-1" d="M47.52 108.51c0 3.51-.41 7.1-.64 10.23a.37.37 0 0 1-.15.28v-1.51a.46.46 0 0 0-.15-.36 90.45 90.45 0 0 0 0-10.92c-.23-2.31-.15-5-1.26-7.15-1.2-2.26-3.74-4.31-5.64-6-4-3.53-8.5-6.43-12.81-9.53h.2c5.82 3 14 8 17.69 13.56a16.6 16.6 0 0 1 2.61 7.72c-.23 1.25-.38 2.51-.53 3.77-.05.41.59.46.69.07a.88.88 0 0 1-.01-.16z"/><path class="cls-1" d="M47.49 106.92v1.59a.88.88 0 0 0-.05.15c-.1.39-.74.34-.69-.07.15-1.26.3-2.52.53-3.77.11.69.16 1.38.21 2.1zM47 134a2.36 2.36 0 0 1-.1.46l-.26-.07a.35.35 0 0 1-.25-.28 2.55 2.55 0 0 1 0-.39.27.27 0 0 1 .31-.13h.35a2.23 2.23 0 0 1-.05.41zM46.55 117.15a.46.46 0 0 1 .15.36v1.51a.38.38 0 0 1-.54-.13v-.08a.07.07 0 0 1 0-.07v-1.67a.46.46 0 0 1 .39.08z"/><path class="cls-1" d="M46.52 106.23a90.45 90.45 0 0 1 0 10.92.46.46 0 0 0-.44-.08c-.08-4.77.36-9.71-.72-14.17a15 15 0 0 0-4.71-8c-1.46-1.36-3.05-2.59-4.65-3.8-.46-1-1.1-2-2-2.21 0 0-.08-.05-.13-.05a.19.19 0 0 0-.21.18 1 1 0 0 0 0 .31 80.29 80.29 0 0 1-7.15-5.75v-.12a.35.35 0 0 0 .23.1c4.31 3.1 8.82 6 12.81 9.53 1.9 1.67 4.44 3.72 5.64 6 1.18 2.09 1.1 4.83 1.33 7.14zM46.19 118.89a.38.38 0 0 0 .54.13c0 7.12-1.85 13.48-5.64 18.71l-.54.13a27.67 27.67 0 0 0 2.45-4.44 39.4 39.4 0 0 0 3.19-14.53zM46.39 133.73a2.55 2.55 0 0 0 0 .39.36.36 0 0 1 0-.39z"/><path class="cls-1" d="M46.19 118.81v.08A39.4 39.4 0 0 1 43 133.42a27.67 27.67 0 0 1-2.41 4.44l-.39.08c-.38.07-.36.48-.13.69-.43.59-.89 1.18-1.38 1.74-1.92 2.15-4.46 3.41-6.72 5.13a.51.51 0 0 0-.15-.36c3.82-3.31 7.59-5.85 9.82-10.61a48.36 48.36 0 0 0 4.13-17 .43.43 0 0 1 .38-.44v1.67a.07.07 0 0 0 .04.05z"/><path class="cls-3" d="M45.39 102.9c1.08 4.46.64 9.4.72 14.17a.43.43 0 0 0-.38.44 48.36 48.36 0 0 1-4.13 17c-2.23 4.76-6 7.3-9.82 10.61l-.08-.08c-2-1.31-4.12-2.49-6.12-3.84-1.23-.85-5.44-2.57-4.38-4.28a17.17 17.17 0 0 1 2.25-2.34c3.62 4.33 8.51 9 12.66 3.23 6.54-9.2 10.56-23.86 9.26-34.93z"/><path class="cls-1" d="M23.78 134.3a3.46 3.46 0 0 1 .22-.3c2.46 2.1 7.84 8.79 11.15 3.3a53.7 53.7 0 0 0 3.66-7.3c3.89-9 5.19-17.31 6.07-27.1a.25.25 0 0 1 .49 0c1.3 11.07-2.72 25.73-9.26 34.93-4.15 5.8-9 1.1-12.66-3.23l.31-.3z"/><path class="cls-6" d="M45.39 102.9a.25.25 0 0 0-.49 0c-.9 9.79-2.2 18.1-6.09 27.1a53.7 53.7 0 0 1-3.59 7.25c-3.31 5.49-8.69-1.2-11.15-3.3a8.67 8.67 0 0 0 2.18-3c1.1-.74 2.35-1.72 2.46-2.59.28.08.64-.2.43-.51-.41-.59-.82-1.18-1.25-1.74 5.71-3.18 9-10.26 13.32-14.9a.35.35 0 1 0-.48-.51c-5.18 4.2-8.28 10.3-13.41 14.61-2.07-2.79-4.28-5.49-6.33-8.25a106.31 106.31 0 0 0-8.18-10.38c1.18-.65 2.31-1.26 3.36-1.88 6.2-3.56 13.3-7 20.35-8.3a.49.49 0 0 0 .31-.18l.08-.08a.05.05 0 0 0 .05 0c.72-1.28 0-3-.54-4.28-.1-.26-.25-.56-.41-.9 1.59 1.21 3.18 2.44 4.67 3.77a15 15 0 0 1 4.71 8.07z"/><path class="cls-1" d="M27.6 125.81a2.29 2.29 0 0 0-.28-.41c5.13-4.31 8.23-10.41 13.41-14.61a.35.35 0 1 1 .48.51c-4.28 4.64-7.61 11.72-13.32 14.9a3.27 3.27 0 0 0-.29-.39zM40.73 138.24a3.11 3.11 0 0 1-.39.49.59.59 0 0 1-.29-.1c.19-.26.37-.52.52-.77l.54-.13c-.11.15-.21.33-.34.49zM40.55 137.86c-.15.25-.33.51-.52.77-.23-.21-.25-.62.13-.69z"/><path class="cls-1" d="M40 138.63a.59.59 0 0 0 .29.1 29.62 29.62 0 0 1-8.36 7.27.34.34 0 0 1-.35 0 .47.47 0 0 0 .35-.49c2.26-1.72 4.8-3 6.72-5.13.49-.57.95-1.16 1.35-1.75zM39.39 72.8a.24.24 0 0 1-.28-.08c.13-.13.25-.28.38-.41s.1-.13.15-.18a.17.17 0 0 1 .29.1 5.49 5.49 0 0 1-.44.52s-.07.08-.1.05zM36.42 92c.57 1.23 1.26 3 .54 4.28a.05.05 0 0 1-.05 0 .7.7 0 0 0-.26-1 10.58 10.58 0 0 0-1.89-5.25c.41.33.84.64 1.25 1 .16.41.31.71.41.97z"/><path class="cls-1" d="M36.65 95.38a.7.7 0 0 1 .26 1l-.08.08a.34.34 0 0 1-.46-.13 1.69 1.69 0 0 1-.13-.31c-.07-.2-.15-.41-.2-.61h.33a1.08 1.08 0 0 1 .28-.03z"/><path class="cls-1" d="M36.37 96.28a.34.34 0 0 0 .46.13.49.49 0 0 1-.31.18c-7.05 1.33-14.15 4.74-20.35 8.3-1.05.62-2.18 1.23-3.36 1.88l-.3-.34a.39.39 0 0 0-.21-.13 99.09 99.09 0 0 1 17.76-8.63A18.79 18.79 0 0 1 36.24 96a1.69 1.69 0 0 0 .13.28zM36.65 95.38a1.08 1.08 0 0 0-.28 0h-.33a19.06 19.06 0 0 0-.7-2.92 12.23 12.23 0 0 0-1.15-2.21 2.11 2.11 0 0 1-.44-.87c.34.28.67.54 1 .77a10.58 10.58 0 0 1 1.9 5.23z"/><path class="cls-1" d="M36 95.36c.05.2.13.41.2.61a18.79 18.79 0 0 0-6.18 1.7 99.09 99.09 0 0 0-17.72 8.63.48.48 0 0 0-.51.34 45.26 45.26 0 0 0-7.61 5.43.46.46 0 0 0-.7.1 2 2 0 0 0-.15.77A10.48 10.48 0 0 0 1 116.76a.34.34 0 0 0-.49.13c1.15-3.51 3.79-6.15 6.82-8.33.43.28 1.2.46 1.25-.15a.91.91 0 0 0-.12-.62c1.66-1.13 3.38-2.13 5-3.07C20 100.9 28.29 96 36 95.36z"/><path class="cls-2" d="M35.34 92.44a19.06 19.06 0 0 1 .7 2.92c-7.75.59-16 5.54-22.56 9.36-1.64.94-3.36 1.94-5 3.07a3.28 3.28 0 0 0-.57-.64 1.9 1.9 0 0 1-.18-2.23c1.16-2.51 3.82-3.36 5.67-5.13l.23.16a.3.3 0 0 0 .38-.46c-2.18-2.29-4.46-4.67-4-8 .43-2.89 3.18-5.12 5.41-6.66 4.25-3 8.92-3.77 13.89-4.46A7.82 7.82 0 0 0 26.5 83a.46.46 0 0 0 .05.47v.12a80.29 80.29 0 0 0 7.15 5.75 2.11 2.11 0 0 0 .44.87 12.23 12.23 0 0 1 1.2 2.23z"/><path class="cls-1" d="M35.27 78.57c0-.1.07-.21.1-.31a.38.38 0 0 1-.18.64c.03-.1.05-.2.08-.33zM36 91.08c-.41-.31-.84-.62-1.25-1a5.75 5.75 0 0 0-.41-.56c-.08-.18-.16-.39-.24-.59 0 0 0-.08-.07-.11.88.23 1.52 1.31 1.97 2.26z"/><path class="cls-1" d="M35.37 78.24c0 .1-.08.21-.1.31-1-.36-2.64.41-4.26 1.46a5.11 5.11 0 0 0-.18-.64c1.2-.74 2.94-1.82 4.36-1.28a.37.37 0 0 1 .18.15z"/><path class="cls-1" d="M30.35 80.49a.65.65 0 0 0 .18.05.38.38 0 0 0 .48-.46c1.62-1 3.26-1.82 4.26-1.46 0 .13-.05.23-.08.33a.24.24 0 0 1-.13 0 10.22 10.22 0 0 0-4.51 2.16c-1.08.74-2.26 2-3.54 2.43l-.28-.15a.12.12 0 0 0-.18.08.46.46 0 0 1-.05-.47 7.82 7.82 0 0 1 2.82-2.66l.51-.08a2 2 0 0 0 .52.23zM34.76 90.13c-.34-.23-.67-.49-1-.77a1 1 0 0 1 0-.31.19.19 0 0 1 .21-.18 1.51 1.51 0 0 0-.1.38 7 7 0 0 1 .54.44v-.07a5.75 5.75 0 0 1 .35.51z"/><path class="cls-1" d="M34.35 89.57v.07a.65.65 0 0 1-.1-.15z"/><path class="cls-1" d="M34.27 89.49a.65.65 0 0 0 .1.15 7 7 0 0 0-.54-.44 1.51 1.51 0 0 1 .1-.38.3.3 0 0 1 .13 0s.07.06.07.11c.08.2.16.41.24.59z"/><path class="cls-1" d="M34 88.87a.3.3 0 0 0-.13 0c.13-.05.13-.02.13 0zM33.4 57.91q-.07.35-.18.69a.27.27 0 0 1-.28 0 .31.31 0 0 1-.21-.29c.2-.33.41-.69.64-1 .05-.08.18 0 .15.05s-.07.34-.12.55z"/><path class="cls-1" d="M32.94 58.58a.27.27 0 0 0 .28 0c-.11.41-.23.8-.36 1.18a.85.85 0 0 0-.26-.49c.13-.27.23-.46.34-.69z"/><path class="cls-1" d="M32.94 58.58c-.11.23-.21.46-.34.69l-.3-.27c.12-.2.28-.43.43-.67a.31.31 0 0 0 .21.25zM32.86 59.78a1 1 0 0 1-.26.69 6.46 6.46 0 0 0 .26-.69z"/><path class="cls-1" d="M32.86 59.78a6.46 6.46 0 0 1-.26.69.8.8 0 0 1-.69.34c.23-.49.46-1 .69-1.52a.85.85 0 0 1 .26.49zM31.81 59.83c.15-.28.3-.56.49-.87l.3.31c-.23.52-.46 1-.69 1.52a.7.7 0 0 1-.41-.13l-.13-.08c.16-.26.28-.49.44-.75z"/><path class="cls-1" d="M31.91 60.81a.8.8 0 0 0 .69-.34c-1.23 3.36-3 6.46-3.18 10.23a24 24 0 0 0 1.39 8.69l-.21.13c-.1 0-.2.13-.31.18a.35.35 0 0 0-.3-.34h-.13C28.27 76.9 28.6 71.5 28.91 69a26.61 26.61 0 0 1 3-8.19zM31.4 145.47l.07-.08a3.09 3.09 0 0 1 .31-.25.51.51 0 0 1 .15.36.47.47 0 0 1-.35.49.4.4 0 0 1-.18-.52z"/><path class="cls-1" d="M31.78 145.14a3.09 3.09 0 0 0-.31.25l-.07.08c-4-2-7.36-5.05-11.36-7.2.51-1.8 3.33-4.56 5.05-6.54l1.16-.69a8.67 8.67 0 0 1-2.18 3c-.05-.08-.1-.1-.15-.16a.42.42 0 0 0-.59.59c.05.05.1.13.15.18a17.17 17.17 0 0 0-2.25 2.34c-1.06 1.71 3.15 3.43 4.38 4.28 2 1.35 4.1 2.53 6.12 3.84zM31.5 60.68a.7.7 0 0 0 .41.13 26.61 26.61 0 0 0-3 8.2c-.31 2.49-.64 7.89.95 10.33a6.23 6.23 0 0 0-1-.08c-1.26-2-1-5.79-.87-7.56a27.66 27.66 0 0 1 3.38-11.1z"/><path class="cls-1" d="M31.58 146a.3.3 0 0 1-.29 0c-4.15-1.72-7.56-5.1-11.45-7.36a.41.41 0 0 1-.21-.48 16.11 16.11 0 0 1 3.23-4.72 3.16 3.16 0 0 0 .41-.54c.46-.28.9-.59 1.34-.87.1-.08.28-.18.48-.31-1.72 2-4.54 4.74-5.05 6.54 4 2.15 7.38 5.2 11.36 7.2a.4.4 0 0 0 .18.54zM31 80.08a.38.38 0 0 1-.48.46.65.65 0 0 1-.18-.05L31 80zM30.29 79.88a.19.19 0 0 0 0-.18c.11 0 .21-.13.31-.18l.21-.13A5.11 5.11 0 0 1 31 80l-.64.46a2 2 0 0 1-.52-.23H30a.34.34 0 0 0 .29-.35z"/><path class="cls-1" d="M30.29 79.7a.19.19 0 0 1 0 .18.22.22 0 0 1-.1-.11zM30.29 79.7l-.1.07a2.34 2.34 0 0 1-.33-.43h.13a.35.35 0 0 1 .3.36z"/><path class="cls-1" d="M30.19 79.77a.22.22 0 0 0 .1.11.34.34 0 0 1-.3.36h-.16a.31.31 0 0 1-.18-.13c.18-.11.35-.23.54-.34z"/><path class="cls-1" d="M29.24 79.8a1.94 1.94 0 0 1-.38-.54 6.23 6.23 0 0 1 1 .08 2.34 2.34 0 0 0 .33.43c-.18.11-.36.24-.54.36a2.07 2.07 0 0 1-.41-.33zM29.83 80.26l-.51.08a1.88 1.88 0 0 1 .31-.21.31.31 0 0 0 .2.13z"/><path class="cls-1" d="M13.53 99.51a.32.32 0 0 0-.33-.34.09.09 0 0 0-.08 0C1.41 89.49 19.25 79.83 29.24 79.8a2.07 2.07 0 0 0 .39.33 1.88 1.88 0 0 0-.31.21c-5 .69-9.64 1.51-13.89 4.46-2.23 1.54-5 3.77-5.41 6.66-.49 3.36 1.79 5.74 4 8a.3.3 0 0 1-.38.46l-.23-.16v-.05a.26.26 0 0 0 .12-.2zM27.42 126.48c.16-.11.31-.18.47-.28.43.56.84 1.15 1.25 1.74.21.31-.15.59-.43.51a1.06 1.06 0 0 0-.21-.67.54.54 0 0 0-.44-.1.42.42 0 0 0-.17 0 54 54 0 0 1-7-7.84 5.85 5.85 0 0 0-1.18-3.33c2.31 3.12 4.59 6.25 7.13 9.25-.41.33.1.9.51.69a.1.1 0 0 1 .07.03z"/><path class="cls-1" d="M28.86 79.26a1.94 1.94 0 0 0 .38.54c-10 0-27.83 9.69-16.12 19.38a2 2 0 0 0-.54.07C.69 90.8 18.92 78.7 28.86 79.26zM28.22 128a1.21 1.21 0 0 1-.33-.31.42.42 0 0 1 .17 0 .54.54 0 0 1 .44.1 1.06 1.06 0 0 1 .21.67l-.13-.08-.36-.3z"/><path class="cls-1" d="M28.58 128.37l.13.08c-.11.87-1.36 1.85-2.46 2.59a1.18 1.18 0 0 0 0-.77.94.94 0 0 0-.36.08c1.31-.93 2.23-1.75 2.36-2.28z"/><path class="cls-1" d="M28.22 128c-.13.53-1 1.35-2.36 2.28h-.1a.3.3 0 0 0-.13-.12c-.13-.11-.28-.18-.41-.29.41-.3.79-.61 1.18-.92s.9-1.08 1.49-1.31a1.21 1.21 0 0 0 .33.36zM27.6 125.81a3.27 3.27 0 0 1 .29.39c-.16.1-.31.17-.47.28a5.77 5.77 0 0 1-.58-.67c.15-.13.33-.26.48-.41a2.29 2.29 0 0 1 .28.41z"/><path class="cls-1" d="M27.42 126.48a.1.1 0 0 0-.07 0c-.41.21-.92-.36-.51-.69a5.77 5.77 0 0 0 .58.69z"/><path class="cls-1" d="M27.32 125.4c-.15.15-.33.28-.48.41-2.54-3-4.82-6.13-7.13-9.25S15 110.07 12.4 107l.41-.23A106.31 106.31 0 0 1 21 117.15c2 2.76 4.25 5.46 6.32 8.25zM26.78 83.57a.35.35 0 0 1-.23-.1.12.12 0 0 1 .18-.08l.28.15h-.23z"/><path class="cls-3" d="M27.89 127.73c-.59.23-1 .93-1.49 1.31s-.77.62-1.18.92a18.12 18.12 0 0 1-3.36-3c-.69-.77-1.56-2.36-2.59-2.72a6.65 6.65 0 0 0 1.62-4.38 54 54 0 0 0 7 7.87z"/><path class="cls-1" d="M26.22 130.27a1.18 1.18 0 0 1 0 .77l-1.16.69a1.23 1.23 0 0 0 .26-.31.62.62 0 0 0 .54-.69 2.48 2.48 0 0 0 .36-.46z"/><path class="cls-1" d="M26.22 130.27a2.48 2.48 0 0 1-.31.46.51.51 0 0 0-.13-.33s0-.05.08-.05a.94.94 0 0 1 .36-.08z"/><path class="cls-1" d="M25.91 130.73a.62.62 0 0 1-.54.69 7.32 7.32 0 0 0 .54-.69zM25.86 130.35s-.05 0-.08.05.03-.05.08-.05z"/><path class="cls-1" d="M25.27 130.76l.51-.36a.51.51 0 0 1 .13.33 7.32 7.32 0 0 1-.54.69.69.69 0 0 1-.21 0 2.83 2.83 0 0 1-.43-.2.17.17 0 0 1 .1-.1.6.6 0 0 1 .08-.08 3.77 3.77 0 0 0 .36-.28zM25.76 130.37l-.51.36h-.08a3.42 3.42 0 0 1 .59-.36z"/><path class="cls-1" d="M25.63 130.25a.3.3 0 0 1 .13.12 3.42 3.42 0 0 0-.57.34 3.5 3.5 0 0 1-.58-.34c.2-.15.41-.28.61-.41.13.11.28.18.41.29zM25.14 131.37a.69.69 0 0 0 .21 0 1.23 1.23 0 0 1-.26.31c-.2.13-.38.23-.48.31-.44.28-.88.59-1.34.87a17 17 0 0 1 1.44-1.74 2.83 2.83 0 0 0 .43.25zM25.19 130.71h.08a3.77 3.77 0 0 1-.38.23 2.56 2.56 0 0 1 .3-.23z"/><path class="cls-1" d="M25.22 130c-.2.13-.41.26-.61.41-2.05-1.33-4-4.17-5.49-5.92a1 1 0 0 0 .15-.18c1 .36 1.9 2 2.59 2.72a18.12 18.12 0 0 0 3.36 2.97z"/><path class="cls-1" d="M25.19 130.71a2.56 2.56 0 0 0-.3.28.6.6 0 0 0-.08.08l-.15.07a3.14 3.14 0 0 1-.67-.38l.62-.39a3.5 3.5 0 0 0 .58.34z"/><path class="cls-1" d="M24.81 131.07a.17.17 0 0 0-.1.1.07.07 0 0 1-.05 0z"/><path class="cls-1" d="M24.66 131.14a.07.07 0 0 0 .05 0 17 17 0 0 0-1.44 1.74 58.12 58.12 0 0 1-6.18 3.87.52.52 0 0 1-.51 0 .28.28 0 0 0-.1-.16.24.24 0 0 1-.1-.1.46.46 0 0 1 0-.38 6.52 6.52 0 0 1 2.18-1.82 1.47 1.47 0 0 1 .28-.18 2.8 2.8 0 0 0 1.08 0c.13 0 .13-.21 0-.29a3.12 3.12 0 0 0-.35-.2c.89-.64 1.79-1.23 2.69-1.8.56-.35 1.13-.69 1.69-1.07a3.14 3.14 0 0 0 .71.39zM24.61 130.37l-.62.39a13.17 13.17 0 0 1-2.64-2.69c-.69-.85-2.13-2.18-2.43-3.39a1.43 1.43 0 0 0 .2-.23c1.46 1.75 3.44 4.55 5.49 5.92zM23.76 134.3l-.31.3c-.05 0-.1-.13-.15-.18a.42.42 0 0 1 .59-.59c.05.06.1.08.15.16a3.46 3.46 0 0 0-.26.31z"/><path class="cls-5" d="M24 130.76c-.56.38-1.13.72-1.69 1.07-.9.57-1.8 1.16-2.69 1.8-.46-.28-1-.41-1.49-.67a13.54 13.54 0 0 1-2.67-1.82c-1.18-.95-2.15-2.1-3.25-3.15a27.64 27.64 0 0 0 3.43-1 9.42 9.42 0 0 0 3.29-2.31c.3 1.21 1.74 2.54 2.43 3.39a13.17 13.17 0 0 0 2.64 2.69z"/><path class="cls-1" d="M20.89 119.89a6.65 6.65 0 0 1-1.62 4.38 1.3 1.3 0 0 0-.25-.1.12.12 0 0 0-.16.1 1.93 1.93 0 0 0 .06.41 9.42 9.42 0 0 1-3.29 2.32 27.64 27.64 0 0 1-3.43 1l-.3-.31s-.06 0-.08-.05a19.19 19.19 0 0 0 5.33-2.13c2.51-1.74 3.56-3.94 3.2-6.35.15.24.36.5.54.73z"/><path class="cls-1" d="M20.32 119.15l-.69-.93a14.29 14.29 0 0 0-.41-2.07c0-.08.08-.13.1-.08s.26.33.39.49a5.85 5.85 0 0 1 1.18 3.33c-.18-.23-.39-.49-.57-.74z"/><path class="cls-1" d="M20.32 119.15c.36 2.41-.69 4.61-3.2 6.35a19.19 19.19 0 0 1-5.33 2.13h-.08a9.11 9.11 0 0 1-4.38.18c-.33-.41-.69-.85-1-1.29 1.18.23 1.87 1 3.26.82a18.91 18.91 0 0 0 4.79-1.2 9.73 9.73 0 0 0 4.13-2.69 6.23 6.23 0 0 0 1.15-5.26zM19.3 133.83a1 1 0 0 1 .31-.2 3.12 3.12 0 0 1 .35.2c.11.08.11.26 0 .29a2.8 2.8 0 0 1-1.08 0 4.73 4.73 0 0 1 .42-.29z"/><path class="cls-3" d="M19.63 118.22a6.23 6.23 0 0 1-1.15 5.26 9.73 9.73 0 0 1-4.13 2.69 18.91 18.91 0 0 1-4.79 1.2c-1.39.16-2.08-.59-3.26-.82a32.93 32.93 0 0 1-4.94-9 11.62 11.62 0 0 1 2.05-3.67 22 22 0 0 0 2 5c.79 1.71 2.53 4.71 4.92 4.17 6.66-1.51.54-10.76-1.51-13.79 1-.71 2.12-1.35 3.2-2 2.48 3.43 4.98 7.27 7.61 10.96z"/><path class="cls-1" d="M19.71 116.56c-.13-.16-.26-.34-.39-.49s-.1 0-.1.08a14.29 14.29 0 0 1 .41 2.07c-2.66-3.69-5.13-7.53-7.61-11a3.48 3.48 0 0 0 .38-.2c2.6 3.05 4.95 6.31 7.31 9.54zM19.61 133.63a1 1 0 0 0-.31.2c-2.69-.74-5.77-3.66-7.36-5.79a.59.59 0 0 0 .23 0c1.1 1 2.07 2.2 3.25 3.15a13.54 13.54 0 0 0 2.7 1.81c.51.22 1.03.35 1.49.63z"/><path class="cls-1" d="M19.3 133.83a4.73 4.73 0 0 0-.44.29 10.45 10.45 0 0 1-3.51-2 12.9 12.9 0 0 1-3.64-4 .69.69 0 0 0 .21-.05c1.61 2.1 4.69 5.02 7.38 5.76zM19.12 124.45a1.43 1.43 0 0 1-.2.23 1.93 1.93 0 0 1-.06-.41.12.12 0 0 1 .16-.1 1.3 1.3 0 0 1 .25.1 1 1 0 0 1-.15.18z"/><path class="cls-3" d="M18.86 134.12a1.47 1.47 0 0 0-.28.18 6.52 6.52 0 0 0-2.18 1.82.46.46 0 0 0 0 .38 67.27 67.27 0 0 1-8.4-7.92 18.67 18.67 0 0 0 3.72-.49 12.9 12.9 0 0 0 3.64 4 10.45 10.45 0 0 0 3.5 2.03z"/><path class="cls-1" d="M6.71 128.4a3.84 3.84 0 0 0 1.28.18 67.27 67.27 0 0 0 8.39 7.92.31.31 0 0 0 .2.26c.11.28-.28.62-.59.46C9.66 134.24.92 125.5.51 117.86a.48.48 0 0 0 .46.08c.57 3 2.41 6.26 4.79 9.31a1.12 1.12 0 0 0 .95 1.15z"/><path class="cls-1" d="M16.48 136.6a.28.28 0 0 1 .1.16.31.31 0 0 1-.2-.26.24.24 0 0 0 .1.1zM13 99.56a1.6 1.6 0 0 1-.44-.31 2 2 0 0 1 .54-.07 2.21 2.21 0 0 0 .41.31.26.26 0 0 1-.1.23v.05a2.48 2.48 0 0 1-.41-.21z"/><path class="cls-1" d="M13.53 99.49a2.21 2.21 0 0 1-.41-.31.09.09 0 0 1 .08 0 .32.32 0 0 1 .33.31zM13 99.56a2.48 2.48 0 0 0 .36.23c-1.85 1.77-4.51 2.62-5.67 5.13a1.9 1.9 0 0 0 .18 2.23 3.28 3.28 0 0 1 .57.64c-.18.13-.36.23-.54.36-3.9-2.97 2.73-7.51 5.1-8.59z"/><path class="cls-1" d="M12.58 99.25a1.6 1.6 0 0 0 .44.31c-2.39 1.08-9 5.62-5.1 8.59l-.59.41a.74.74 0 0 1-.21-.13c-1.74-1.79-1.1-4.07.52-5.74 1.18-1.21 3.12-3 4.94-3.44zM12.4 107a3.48 3.48 0 0 1-.38.2l-.18-.26a.3.3 0 0 1-.05-.3.44.44 0 0 1 .15-.1l.36-.24a.39.39 0 0 1 .21.13l.3.34z"/><path class="cls-1" d="M12.3 106.3l-.36.24a.44.44 0 0 0-.15.1.48.48 0 0 1 .51-.34zM12 117.48a1.12 1.12 0 0 1 .2 1l-.05.08c0-.36-.08-.72-.15-1.08z"/><path class="cls-1" d="M12.22 118.48a1.12 1.12 0 0 0-.2-1 11.66 11.66 0 0 0-.87-2.77c-.84-1.77-2-3.38-2.77-5.18a.9.9 0 0 1 .23-.15c1.49 2.72 6.8 9.92 2.7 12.64-1.7.98-3.14-.02-4.31-1.72a.49.49 0 0 0 .23-.33v-.29a3.88 3.88 0 0 0 2.36 2.11c2.26.36 2.74-1.34 2.56-3.23.05-.03.07-.05.07-.08z"/><path class="cls-3" d="M12.17 118.56c.18 1.89-.3 3.59-2.56 3.23a3.88 3.88 0 0 1-2.36-2.11c.16-1.15.46-2 1.8-2.31s1.84 1 3 1.26a.12.12 0 0 0 .12-.07z"/><path class="cls-1" d="M11.92 128a.69.69 0 0 1-.21.05c0-.07-.08-.13-.1-.2a.14.14 0 0 1 .1-.23h.08c.08 0 .05 0 .08.05l.3.31a.59.59 0 0 1-.23 0zM6.84 118.86a3.42 3.42 0 0 1-.31-.64 3.25 3.25 0 0 1 2.23-1.89 3.61 3.61 0 0 1 3.23 1.1c.05.36.13.72.15 1.08a.12.12 0 0 1-.15 0c-1.13-.28-1.62-1.54-3-1.26s-1.64 1.16-1.8 2.31a6.17 6.17 0 0 1-.41-.77zM11.84 106.94l.18.26c-1.08.62-2.15 1.26-3.2 2a.81.81 0 0 0-.08-.12c-.18-.29-.59 0-.46.28l.07.15a26.42 26.42 0 0 0-3.77 3 2.63 2.63 0 0 0-.35-.38h-.05a45.26 45.26 0 0 1 7.61-5.43.3.3 0 0 0 .05.24z"/><path class="cls-1" d="M11.61 127.89c0 .07.08.13.1.2a18.67 18.67 0 0 1-3.72.49c-.23-.23-.43-.49-.66-.74a9.11 9.11 0 0 0 4.38-.18.14.14 0 0 0-.1.23zM11.28 122c4.1-2.72-1.21-9.92-2.7-12.64a.67.67 0 0 1 .24-.16c2 3 8.17 12.28 1.51 13.79-2.39.54-4.13-2.46-4.92-4.17a22 22 0 0 1-2-5 6.08 6.08 0 0 1 .64-.77 29.17 29.17 0 0 0 2.28 6.13 2.49 2.49 0 0 0 .13.87.37.37 0 0 0 .54.23C8.17 122 9.61 123 11.28 122z"/><path class="cls-5" d="M11.12 114.66a11.66 11.66 0 0 1 .87 2.77 3.61 3.61 0 0 0-3.23-1.1 3.25 3.25 0 0 0-2.23 1.89c-.31-.74-.54-1.43-.75-1.92-.38-1-.53-2.82-1.18-3.79a26.42 26.42 0 0 1 3.77-3c.78 1.77 1.91 3.38 2.75 5.15z"/><path class="cls-1" d="M8.58 109.33a.9.9 0 0 0-.23.15l-.07-.15c-.13-.31.28-.57.46-.28a.81.81 0 0 1 .08.12.67.67 0 0 0-.24.16zM7.92 108.15c.18-.13.36-.23.54-.36a.91.91 0 0 1 .12.62c-.05.61-.82.43-1.25.15zM7.33 127.84c.23.25.43.51.66.74a3.84 3.84 0 0 1-1.28-.18c-.33-.38-.64-.77-1-1.15a1.76 1.76 0 0 1 .11-.47.35.35 0 0 1 .43-.23c.39.45.75.88 1.08 1.29zM6.84 118.89a6.17 6.17 0 0 0 .41.77v.29a.49.49 0 0 1-.23.33c-.23-.33-.44-.72-.67-1.1a2.93 2.93 0 0 1 .18-1 3.42 3.42 0 0 0 .31.64zM7 120.3a.37.37 0 0 1-.54-.23 2.49 2.49 0 0 1-.13-.87c.23.38.44.8.67 1.1z"/><path class="cls-1" d="M5.76 127.25c.31.38.62.77 1 1.15a1.12 1.12 0 0 1-1-1.15zM6.51 118.22a2.93 2.93 0 0 0-.18 1 29.17 29.17 0 0 1-2.28-6.13l.53-.56c.65 1 .8 2.84 1.18 3.79.24.47.44 1.16.75 1.9zM6.3 126.55a.35.35 0 0 0-.43.23 1.76 1.76 0 0 0-.11.47c-2.38-3-4.22-6.34-4.79-9.31a.41.41 0 0 0 .34-.29.19.19 0 0 1 .05-.1 32.93 32.93 0 0 0 4.94 9zM4.05 113.07a6.08 6.08 0 0 0-.64.77 6 6 0 0 1-.08-.9c.28-.3.56-.59.85-.87h.05a2.63 2.63 0 0 1 .35.38z"/><path class="cls-1" d="M3.48 112.17a.46.46 0 0 1 .7-.1c-.29.28-.57.57-.85.87a2 2 0 0 1 .15-.77z"/><path class="cls-1" d="M3.33 112.94a6 6 0 0 0 .08.9 11.62 11.62 0 0 0-2 3.67c-.08-.18-.13-.36-.21-.57a.34.34 0 0 0-.15-.18 10.48 10.48 0 0 1 2.28-3.82z"/><path class="cls-1" d="M1.15 116.94c.08.21.13.39.21.57a.19.19 0 0 0-.05.1.41.41 0 0 1-.34.29 2.7 2.7 0 0 1-.1-.59 2.65 2.65 0 0 1 .13-.54.34.34 0 0 1 .15.17z"/><path class="cls-1" d="M.87 117.33a2.7 2.7 0 0 0 .1.59.48.48 0 0 1-.46-.08 7.31 7.31 0 0 1 0-.81v-.13a.34.34 0 0 1 .49-.13 2.65 2.65 0 0 0-.13.54s-.03-.01 0 .02z"/><path class="cls-1" d="M.36 117.38l.15-.46v.13a7.31 7.31 0 0 0 0 .81.39.39 0 0 1-.15-.48z"/><path class="cls-4" d="M48.56 31.81c-4 1.05-8.6-3.35-8-7.34.84-5.66 7.13-7.76 12-7.76 4.61 0 11.12 2.94 9 8.81a6.8 6.8 0 0 1-5.25 4c2.31 2.52-.41 4.83-2.09 1.89a2.43 2.43 0 0 1-1.89 2.94"/><path class="cls-11" d="M48.56 31.81c-4 1.05-8.6-3.35-8-7.34.84-5.66 7.13-7.76 12-7.76 4.61 0 11.12 2.94 9 8.81a6.8 6.8 0 0 1-5.25 4c2.31 2.52-.41 4.83-2.09 1.89a2.43 2.43 0 0 1-1.89 2.94"/><path class="cls-4" d="M48.56 31.47c-4.57.41-8.53-3.21-7.54-8 .77-3.65 4.59-5.37 7.82-6.11a15.16 15.16 0 0 1 7.27.2A10 10 0 0 1 60 19.74c3.48 3 .94 9.12-3.69 9.37a.4.4 0 0 0-.34.59l-1.51 1.45a.35.35 0 0 0-.59.24c-.53 1-1.06 1.91-1.58 2.87a.08.08 0 0 0 .06.15c1.81-.56 1.54-2.36 3-1.36 1.1.73 2.54-.79 2.22-1.88-.66-2.26 1.2-2.26 2.84-3.44a5.48 5.48 0 0 0 1.75-3.19c.77-2.73-1.11-5-3.2-6.45C54.34 15 45.28 16 42 20.76c-3.47 5 .14 12.78 6.69 11.38a.34.34 0 0 0-.09-.67zM44.16 36.43c6.92 0 13.63.21 20.55.21"/><path class="cls-11" d="M44.16 36.43c6.92 0 13.63.21 20.55.21"/><path class="cls-4" d="M44.16 36.74c6.84.37 13.72.13 20.55.54.83 0 .83-1.33 0-1.28-6.84.38-13.71-.22-20.55.12a.31.31 0 0 0 0 .62zM63.25 29.71c-4.83 4.62-9.65 7.77-14.9 11.29"/><path class="cls-11" d="M63.25 29.71c-4.83 4.62-9.65 7.77-14.9 11.29"/><path class="cls-4" d="M63 29.43a101 101 0 0 1-14.9 11.1c-.66.41 0 1.47.59 1 5.1-3.76 10.29-7.14 14.88-11.55.37-.36-.19-.92-.57-.57zM104.58 66.63c-2.94 0-7.55-6.71-2.52-6.29 2.73.21 4.41 4.2 3.15 6.08"/><path class="cls-11" d="M104.58 66.63c-2.94 0-7.55-6.71-2.52-6.29 2.73.21 4.41 4.2 3.15 6.08"/><path class="cls-4" d="M104.58 65.92c-1.59-.09-4.25-2.65-4-4.35.21-1.36 2.72-.1 3.18.35a3.7 3.7 0 0 1 .87 4.18.65.65 0 0 0 1.13.65c1.14-1.71.27-4.1-.87-5.56-1-1.3-3.84-2.41-5.23-1-1.24 1.25-.36 3.12.49 4.32 1 1.39 2.63 2.79 4.42 2.84.92 0 .91-1.37 0-1.42zM110.87 66.42c-2.73-.84-3.77-6.5-.42-4.19 1.26.84 1.47 2.93 1 4.19"/><path class="cls-11" d="M110.87 66.42c-2.73-.84-3.77-6.5-.42-4.19 1.26.84 1.47 2.93 1 4.19"/><path class="cls-4" d="M111.13 66a4 4 0 0 1-2.22-3.44c0-1 1.57.36 1.75.58.76 1 .28 2.19.25 3.31a.59.59 0 0 0 1.1.3c.78-1.32.11-3.31-.76-4.44-.56-.71-2.09-1.53-2.92-.83-1.76 1.47.59 5.22 2.4 5.48a.53.53 0 0 0 .4-1z"/><path class="cls-12" d="M97.66 35.8c-4.19 1.26-.42-13.64 5-8.81 3.14 2.73-1.68 9.86-5.25 9"/><path class="cls-11" d="M97.66 35.8c-4.19 1.26-.42-13.64 5-8.81 3.14 2.73-1.68 9.86-5.25 9"/><path class="cls-12" d="M97.66 35.57c-.4 0 0 .17-.42-.14s-.46-.29-.59-.66a5.52 5.52 0 0 1 0-2.65c.32-1.92 1.21-4.28 3-5.3 1.07-.62 2.2 0 3 .77 1.26 1.19.42 3.39-.26 4.63a6.64 6.64 0 0 1-3.5 3.1c-.53.17-1.87 0-1.65.9a.61.61 0 0 0 .42.42c3.32.5 6.34-3.67 6.6-6.62s-2.36-5.47-5.16-4.17c-2.38 1.1-3.43 4.54-3.73 6.9-.23 1.87.5 4.27 2.48 3.25a.23.23 0 0 0-.12-.43z"/></g></g></svg>