<svg id="レイヤー_1" xmlns="http://www.w3.org/2000/svg" viewBox="0 0 328.6 212"><style>.st0{fill:#1d3033;stroke:#1d3033;stroke-width:.66;stroke-linecap:round;stroke-linejoin:round}.st2{fill:#dadada}.st3{fill:#9fb05a}.st4{fill:#f1f1f1}.st5{fill:#f7e5d7}.st6{fill:#989898}.st7{fill:#fff}.st8{fill:none}</style><g id="レイヤー_1-2"><g id="レイヤー_3"><path class="st0" d="M255.4 137.9c.9-3.3 1.4-6.7 1.2-10.1-.3-6.9-1.9-13.6-4.9-19.8-1.9-4.2-4.6-9.9-8.5-13.5.2.2.5.2.7 0v-.1c6.1 5.3 9.9 15.1 11.7 22 2 7.9 4.3 24.4-4.3 29.7.1-.1.1-.3 0-.4 2.4-1.6 3.3-5.3 4.1-7.8z"/><path class="st0" d="M243.2 94.5c3.9 3.6 6.5 9.3 8.5 13.5 3 6.2 4.6 13 4.9 19.8.1 3.4-.3 6.8-1.2 10.1-.7 2.5-1.7 6.2-4 7.7-.1-.1-.1-.2-.2-.3-.1 0-.1 0-.1-.1 7.6-6.3 5.2-22.8 2.5-30.7-2.9-8.4-6.9-18.2-15-22.8-.1-.1-.2-.2-.1-.3.1-.1.2-.2.3-.1 1.6.5 3 1.3 4.3 2.3 0 .2 0 .3.1.5-.1.2-.1.3 0 .4z"/><path d="M253.5 114.6c2.7 7.8 5 24.3-2.5 30.7-3.3-2.2-4.8-5.1-6.1-8.8-.6-2.1-1.5-4.2-2.6-6.1 0-.4-.1-.8-.1-.9 0-.2-.1-.3-.3-.3-.1 0-.3.1-.3.2-.4 1.2-.6 2.4-.6 3.7 0 1-.1 2-.2 3-.2 1.1-2.9-2.3-3.1-2.6-3.1-4.5-4.7-9.2-6.4-14.3.9-.4 1.7-.9 2.5-1.4 1.4-1 3.1-3.6 1.2-4.7-.7-1.4-1.6-2.7-2.5-3.9 0-10-1.6-20.6-7.6-28.9-3.3-4.2-7.5-7.5-12.3-9.7 14.9-1.5 28.8 7.5 30.4 23.3-1.3-1-2.8-1.8-4.4-2.3-.1 0-.2 0-.3.1 0 .1 0 .2.1.3 8.2 4.3 12.2 14.2 15.1 22.6z" fill="#d93933"/><path class="st0" d="M251.3 145.7c.1.1.1.3 0 .4-.1.1-.3.2-.5.3H250.5c-.2-.1-.3-.3-.2-.5 0-.1.1-.1.1-.2.2-.1.3-.3.5-.4 0 .1.1.1.1.1.2.1.3.2.3.3z"/><path class="st0" d="M250.8 146.3c.1-.1.3-.2.5-.3-.1.3-.4.4-.6.3 0 .1.1.1.1 0zM250.9 145.2c-.2.1-.3.3-.5.4-5.3-3-5.8-9.8-8.2-14.9v-.5c1.1 1.9 2 4 2.6 6.1 1.3 3.9 2.9 6.7 6.1 8.9z"/><path class="st0" d="M250.4 145.7c-.2.1-.2.4-.1.6-4.8-2.4-6.6-9-8.1-14.2v-1.2c2.4 4.9 3 11.8 8.2 14.8zM211 69.7c15.3-3.6 33.2 7.8 33 24.5 0 .1 0 .2-.1.2-.1-.1-.3-.2-.4-.3.1-5-2.1-9.2-4.8-13.4-3.1-4.7-7.7-8.1-13-9.9-4.5-1.5-9.3-1.8-14-.8l-.7-.3z"/><path class="st0" d="M243.6 94c.1.1.3.2.4.3-.1.2-.4.3-.6.1h-.1c-.1-.1-.2-.2-.2-.3 0-.2 0-.3-.1-.5.2.2.4.3.6.4z"/><path class="st0" d="M238.8 80.7c2.7 4.2 4.9 8.4 4.8 13.4-.2-.1-.3-.3-.5-.4-1.6-15.8-15.5-24.8-30.5-23.3-.3-.2-.6-.3-.9-.4 4.7-1 9.5-.7 14 .8 5.3 1.7 9.9 5.2 13.1 9.9zM242.3 132c.1 3.3-.2 8.1-3.3 5.3-4.7-4.4-7.8-11.4-8.5-17.9.1 0 .3-.1.4-.2.9 5.1 2.9 9.9 5.9 14.1.8.9 2.9 4.8 4.3 3.7.9-.8.6-4.8.7-6.8.1.6.3 1.2.5 1.8z"/><path class="st0" d="M242.2 130.8v1.2c-.2-.6-.3-1.2-.5-1.8v-.3c.2.3.4.6.5.9z"/><path class="st0" d="M242.2 130.3v.5c-.1-.3-.3-.6-.4-.9v-.1c.1.1.3.3.4.5z"/><path class="st0" d="M241.8 129.7c-.1-.1-.1-.1-.2-.1v.1c.1.1.1.3.1.5-.1 2 .2 6.1-.7 6.8-1.4 1.1-3.5-2.8-4.3-3.7-3-4.2-5-9-5.9-14.1l.4-.2c1.7 5.1 3.3 9.8 6.4 14.3.2.3 2.9 3.7 3.1 2.6.1-1 .2-2 .2-3 0-1.2.2-2.5.5-3.6 0-.2.2-.3.4-.2.1 0 .2.2.2.3 0 .3 0 .6.1.9 0-.2-.1-.4-.3-.6z"/><path class="st0" d="M241.8 129.9v.3c0-.2-.1-.3-.1-.5v-.1h.1s0 .1.1.1l-.1.2zM235 113c1.9 1.1.2 3.7-1.2 4.7-.8.5-1.6 1-2.5 1.4l-.3-.9c2.6-1.1 5-2.9 3.8-4.6.2-.1.3-.4.2-.6z"/><path class="st0" d="M235 113c.1.2 0 .5-.1.6-.1-.2-.2-.3-.4-.4 0-.2-.1-.4-.2-.5h.1l.6.3zM235 112.9l-.6-.3h-.1c-.8-1.4-1.8-2.6-3-3.6l-1.1-1.2c-.1-.2-.3-.3-.4-.5-.5-.6-1-1.1-1.6-1.6l-.8-.8-2.4-2.4c-1-.9-2-1.8-3-2.6-.1-.2-.2-.4-.4-.6-.1-.1-.3-.1-.4 0-7.7-6.3-16.8-11.2-25.5-15.7-2.7-1.5-5.7-2.8-8.5-4-3.1-1.4-6.2-3.5-9.5-4.4-6.2-1.6-13.9 1.5-19.8 3.5-3.6 1.2-7.1 3-10.6 4.4.2-.2.4-.5.7-.7 7.7-3.3 15.2-6.8 23.6-8 7.1-1 13.9 3.7 20 6.6 9.2 4.3 18.6 9.2 26.7 15.4 4.2 3.2 9.6 7.2 13.3 11.6v1c0 .2.1.3.3.3.2 0 .3-.1.3-.3 1.2 1.2 2.1 2.5 2.8 3.9zM234.9 113.6c1.2 1.8-1.2 3.6-3.8 4.6-.1-.2-.1-.4-.2-.6 0-.1 0-.1-.1-.1.3-.1.6-.2.9-.4.9-.4 1.7-1 2.4-1.7.5-.4.6-1.2.2-1.7.2.1.4.1.6-.1z"/><path class="st0" d="M234.5 113.2c.2.1.3.2.4.4-.2.1-.4.2-.6.1 0-.2-.2-.3-.2-.5s0-.5.3-.5c0 .1.1.3.1.5z"/><path class="st2" d="M234.3 113.7c.4.5.3 1.3-.2 1.7-.7.7-1.5 1.3-2.4 1.7-.3.1-.6.3-.9.4-.1-.1-.2 0-.3.1v.1c-1.1.4-2.3.6-3.4 1-2.7-1.3-5.2-3.2-7.9-4.3-1.8-.8-3.6-1.7-5.4-2.5.4 0 .9-.1 1.3-.2 1.9-.4 3.8-1.3 5.2-2.6 2.6-2 3.4-5.5 2-8.4 1.7 1.3 3.4 2.8 5 4.3l.8.8 1.6 1.6c.2.1.3.3.4.5 1.5 1.7 2.8 3.6 3.9 5.6.1 0 .2.1.3.2z"/><path class="st0" d="M234.3 113.7c-.1 0-.2-.1-.2-.2-1.1-2-2.4-3.9-3.9-5.6l1.1 1.2c1.2 1 2.2 2.3 3 3.6-.3 0-.4.3-.3.5.1.1.2.3.3.5zM232.2 108.6l.3.4v.2c0 .2-.1.3-.3.3-.2 0-.3-.1-.3-.3v-1c0 .1.2.2.3.4z"/><path class="st0" d="M224.8 80.1c6.1 8.3 7.6 18.9 7.6 28.9l-.3-.4c0-7-1.2-13.9-3.6-20.5-2-5.6-5.8-10.4-10.7-13.6-2.1-1.4-4.3-2.8-6.6-3.9.4-.1.9-.1 1.3-.2 4.9 2.2 9.1 5.5 12.3 9.7z"/><path class="st0" d="M232.2 108.6c-.1-.2-.3-.3-.4-.4-.4-9.6-2-21.5-8.9-28.7-6.6-6.6-15-11.1-24.1-12.9-19-3.6-37.6 1.5-50.6 15.9l-1 .4c7.8-9.9 19.3-16.2 31.9-17.6 3.1-.3 6.2-.4 9.4-.4 7.6-.1 15.2 1.6 22 5-.1.2 0 .5.2.6h.3l.5-.1c2.3 1.2 4.5 2.5 6.6 3.9 5 3.3 8.7 8.1 10.7 13.7 2.2 6.7 3.4 13.6 3.4 20.6zM231.1 118.2l.3.9-.4.2c0-.3-.1-.6-.1-.9 0-.1.1-.1.2-.2z"/><path class="st0" d="M230.8 118.4l-.3.1v-.8-.1c.1 0 .2-.1.3-.1l.1.1c.1.2.1.4.2.6-.1.1-.2.1-.3.2z"/><path class="st0" d="M230.8 118.4c0 .3.1.6.1.9-.1.1-.2.1-.4.2 0-.3-.1-.6-.1-1l.4-.1zM230.8 117.5c-.1.1-.2.1-.3.1 0-.1.1-.2.3-.1-.1 0-.1 0 0 0-.1 0-.1 0 0 0z"/><path class="st0" d="M230.5 118.5c0 .3 0 .6.1 1-.4.2-.9.3-1.3.4 0-.1-.1-.2-.2-.2-.4-.1-.7-.3-1.1-.4.8-.3 1.7-.5 2.5-.8zM230.4 117.7v.8c-.8.3-1.6.5-2.5.7l-1-.5c1.1-.5 2.3-.7 3.5-1z"/><path class="st2" d="M222.9 79.5c6.9 7.2 8.6 19.1 8.9 28.7-3.7-4.5-9-8.4-13.3-11.6-8.1-6.2-17.5-11.1-26.7-15.4-6.1-2.9-12.9-7.6-20-6.6-8.4 1.2-15.9 4.7-23.6 8 12.9-14.4 31.5-19.6 50.6-15.9 9 1.7 17.4 6.2 24.1 12.8z"/><path class="st0" d="M230 156.7c0 8.6-2.2 16.9-3.5 25.4-.9 6.9-2.6 13.7-5.1 20.3l-.3-.3c.1-.4.2-1 .4-1.4l1.5-4.8c.5-1.4 1.2-2.8 1.5-4.3.4-1.7.5-3.6.8-5.3.5-2.9.9-5.8 1.3-8.8 1-6.8 3.1-13.6 3-20.5.2.1.3 0 .4-.3 0 .1 0 .1 0 0 0 .1 0 .1 0 0z"/><path class="st0" d="M230 156.7c0-.1 0-.1-.1-.2.1.1.1.2.1.2z"/><path class="st0" d="M229.6 157c-.1-.1-.2-.2-.4-.2v-.1c0-.1.1-.2.2-.3.1-.1.2-.1.4 0l.2.1s.1.1.1.2c-.1.3-.2.4-.5.3.1.1.1.1 0 0zM230 156.5l-.2-.1c.1 0 .2.1.2.1z"/><path class="st0" d="M229.4 156.4c-.1.1-.2.2-.2.3v.1c-2.6-1.6-6.2-1.9-9.1-2.8-3.7-1.2-7.4-2.1-11.2-2.7-7.7-1.2-15.3-2.3-23.1-3v-.1c0-.1-.1-.2-.2-.2s-.1 0-.2.1c0-.2.1-.3.2-.4h.1c6.6-.3 13.3.2 19.8 1.5 0 .1.3.1.3 0 1.9.3 3.8.7 5.7 1.1 5.6 1.1 13.6 2.5 18.2 6.1-.1-.1-.2 0-.3 0z"/><path class="st0" d="M229.6 157c.1 6.9-2 13.7-3 20.5-.4 2.9-.8 5.8-1.3 8.8-.3 1.8-.4 3.6-.8 5.3-.3 1.5-1 2.9-1.5 4.3l-1.5 4.8c-.1.4-.2.9-.4 1.4-.1-.1-.3-.1-.5 0 2.2-6.6 3.8-13.4 4.8-20.4 1.2-8.3 3.6-16.6 3.8-25 .1.1.3.2.4.3zM229.3 119.8c0 .1-.1.3-.2.3-.3 0-.5-.1-.8-.1.3 0 .7-.1 1-.2z"/><path class="st0" d="M227.2 119.3c.3 0 .5 0 .8-.1.4.2.7.3 1.1.4.1 0 .2.1.2.2-.3.1-.7.1-1 .1h-.3v-.1c0-.1-.1-.2-.2 0l-1.2-.3c-.1-.1-.1-.4 0-.5 0 0 0-.1.1-.1l.5.4zM228.3 120h-.3.3zM227.9 120h.1c.7 5.8-4.6 13.2-7.9 17.6-.1.1-.2.2-.4.2v-.1c0-.3-.1-.6-.2-.9 1.2-2.2 2.4-4.3 3.6-6.6.7-.7 1.2-1.7 1.3-2.7 1.1-2.5 1.8-5.3 3.2-7.6.1.1.2.1.3.1z"/><path class="st0" d="M228 119.9h-.1v-.1c0-.1.1.1.1.1zM227.9 119.9h-.1.1l.1.1c-.1 0-.1-.1-.1-.1z"/><path class="st0" d="M227.9 119.9v.1h-.2c-.1 0 0 0 0-.1h.2zM227.1 118.7c.3.2.7.3 1 .5-.3 0-.5 0-.8.1-.2 0-.4-.2-.6-.3l.4-.3zM227.7 119.9c-.4.1-.8-.1-1.1-.3l-.1-.1c.4.2.8.3 1.2.4z"/><path class="st3" d="M226.6 119.6c.3.2.7.3 1.1.3-1.5 2.3-2.1 5.1-3.2 7.6.4-2.3-.7-4.6-3.2-4.4l2.1-2.7c.2-.3-.3-.7-.6-.4-2.4 2.3-4.7 4.8-7.1 7-2.1 2-4.5 3.6-6.6 5.5-.7-2.4-1.6-4.8-2.7-7.2v-.2c.1-.2 0-.4-.2-.4s-.4 0-.4.2v.1c-.5 1.3-1.1 2.5-1.9 3.6-.3.6-.5 1.2-.6 1.8-1.5-3.5-3-7-4.3-10.7-1.1-3.4-1.6-7.2-3-10.6 5.9.1 11.6 1.4 16.9 3.8 4.2 2.1 8.9 5.3 13.7 6.7z"/><path class="st0" d="M227.1 118.7l-.5.2c-1.5-.8-3.1-1.9-4.2-2.4-2.4-1-4.8-2-7.1-3.2-.9-.5-1.9-1-2.9-1.5.5.1 1 .1 1.4 0 1.8.8 3.6 1.7 5.4 2.5 2.7 1.2 5.2 3.1 7.9 4.4zM227.4 104.9c-1.6-1.5-3.3-3-5-4.3-.1-.3-.3-.5-.4-.7 1 .8 2 1.7 3 2.6.7.8 1.6 1.6 2.4 2.4z"/><path class="st0" d="M226.5 118.9c-.2.1-.2.3-.1.5 0 0 0 .1.1.1-4.6-1.4-9.3-4.6-13.5-6.5-5.3-2.5-11.1-3.8-17-3.8-.1-.2-.1-.4-.2-.6 2.5 0 5.1.2 7.6.5 2.6.3 5.2 1 7.6 2.2.4.3.8.5 1.3.5h.1c1 .5 2 1 2.9 1.5 2.3 1.2 4.7 2.2 7.1 3.2 1.1.5 2.7 1.6 4.1 2.4z"/><path class="st4" d="M229.2 156.8c-.2 8.4-2.5 16.7-3.8 25-1 6.9-2.6 13.7-4.8 20.4-3.1 2.2-6.9 3.7-10.5 5.1-3.2 1.2-9.6 4.2-13 3.2h-.1c-3-3-5.9-6.2-9.1-9.1-1.6-1.4-3.3-2.8-4.9-4.2-1.3-1.2-2.2-2.6-3.6-3.6.2-.2-.2-.5-.4-.3 1.4-1.5.8-6 1-7.8.3-5.2 1.2-10.4 2-15.4 1.2-7.2 3.7-14.2 3.8-21.6 7.8.7 15.4 1.7 23.1 3 3.8.7 7.5 1.6 11.2 2.7 2.9.7 6.5 1.1 9.1 2.6z"/><path class="st0" d="M221.3 123.2c2.5-.2 3.6 2.1 3.2 4.4 0 .1-.1.2-.1.3l-1.2 2.4c-.1.1-.1.2-.2.2-2.2 2-8.9 4.9-11.2 1.8.1-.1.3-.1.4-.2 2.3 1.6 7.3.3 9.4-1.1 1.6-1.1 3-2.6 2.7-4.7-.1-1.5-1.5-2.7-3-2.5h-.3c0-.3.2-.5.3-.6z"/><path class="st0" d="M224.3 127.9c.1-.1.1-.2.1-.3-.1 1-.6 2-1.3 2.7.4-.8.9-1.6 1.2-2.4zM224.1 126.2c.3 2.1-1.1 3.6-2.7 4.7-2 1.4-7.1 2.7-9.4 1.1l.5-.4c2.7.4 5.1.6 7.7-.8 1.3-.7 3.1-1.9 3.3-3.5.3-2.4-1.1-3.2-3.1-3.2.1-.2.3-.3.4-.5 1.5-.3 3 .7 3.2 2.2.1.2.1.3.1.4z"/><path class="st5" d="M220.5 124.1c2 0 3.4.8 3.1 3.2-.2 1.6-2 2.8-3.3 3.5-2.6 1.4-5 1.2-7.7.8 2.9-2.1 5.6-4.6 7.9-7.5z"/><path class="st0" d="M220.3 123.3h-.2c-.2.1-.3.2-.3.4-3.2 3.5-6.7 6.6-10.6 9.3l-.1-.5c2.2-1.9 4.6-3.5 6.6-5.5 2.4-2.3 4.7-4.7 7.1-7 .3-.2.8.1.6.4-.6.9-1.3 1.8-2.1 2.7-.4.1-.7.1-1 .2z"/><path class="st3" d="M222.9 130.5c.1-.1.2-.1.2-.2-1.1 2.2-2.4 4.4-3.6 6.6-.2-.8-.5-1.6-1-2.4l.3-.3c.1-.1.1-.2 0-.3-.1-.1-.1-.1-.2-.1-2.8 1.2-4.2 4.3-6.5 6.4-.1-1.2-.4-2.4-.7-3.5-.1-.2-.3-.4-.6-.3-1.3.6-2.6 1.2-3.9 1.9.8-1.2 1.3-2.5 1.5-3.8h.1c.1-.1.2-.2.2-.4 1-.5 2-1 2.9-1.6 2.4 2.9 9 0 11.3-2z"/><path class="st0" d="M222.4 100.7c1.4 2.9.6 6.4-2 8.4-1.5 1.3-3.3 2.2-5.3 2.6-.4.1-.8.2-1.3.2-.6-.3-1.3-.6-1.9-.9 5.7 1.3 13.7-5 9.8-10.8.2.1.4.3.7.5zM221.6 100c-.2-.2-.5-.3-.7-.5 0-.1.1-.2.2-.2.3.2.5.4.8.6.2.2.3.5.4.7-.2-.2-.4-.4-.7-.6 0 .1 0 .1 0 0z"/><path class="st0" d="M221.5 99.3c.1.2.3.4.4.6-.2-.2-.5-.4-.8-.6.2-.1.3-.1.4 0zM221.6 100.1c3.9 5.8-4.1 12.1-9.8 10.8-.4-.2-.7-.3-1.1-.5.1-.1.2-.1.3-.2 1.3-.4 2.8.3 4.2 0 1.4-.3 2.8-.9 4-1.8 2.9-2.2 4-5.5 1.8-8.6v-.3c.2.3.5.5.6.6z"/><path class="st4" d="M221 99.8c2.2 3.1 1.1 6.4-1.8 8.6-1.2.9-2.6 1.5-4 1.8-1.4.3-2.9-.4-4.2 0-.1 0-.2.1-.3.2l-3-1.2c-6.8-2.3-15.4-2.1-22.4.1-.1-.1-.4-.2-.6-.1-3.8.7-7.5 1.6-11.1 2.7-3.2 1.1-2.9 2.2-7.5 2.7-2.7.3-6-1.9-8.3-3.2-5.7-3.3-11.4-4.3-17.8-5.2-.6-7.2-.7-16.5 5-21.8v-.1c7-2.3 13.6-5.6 20.7-7.8 10.4-3.1 18.4 2 27.6 6.3 7.3 3.5 14.3 7.5 21 11.9 2 1.3 4.2 2.9 6.5 4.6 0 .3.1.4.2.5z"/><path class="st0" d="M221.4 202.4c.1.2.1.5-.1.7-2.8 3.2-8.3 5-12.3 6.1-3.3 1-8.4 3.2-11.8 2 .1 0 .1-.1.1-.2 1.2.7 2.5-.1 3.7-.5 1.6-.4 3.2-.7 4.7-1.2 4.6-1.2 9-2.9 13.1-5.2.6-.3 1.1-.6 1.6-.9.2.2.4.2.6 0l.1-.1c.2-.3.3-.5.3-.7z"/><path class="st0" d="M220.9 202.7c.1-.2.2-.3.2-.5l.3.3c-.1.2-.1.4-.2.6-.1.2-.3.3-.5.2 0 0-.1 0-.1-.1.1-.2.2-.3.3-.5zM220.9 123.7c-.1.2-.3.3-.4.5h-.2c-.2 0-.4-.1-.4-.3.2-.1.3-.3.5-.5.3-.1.7-.2 1-.2-.2.2-.4.3-.5.5z"/><path class="st0" d="M220.7 202.2c.1-.1.3-.1.5 0 0 .2-.1.4-.2.5-.1.2-.2.3-.4.4-.1-.1-.1-.3-.1-.4.1-.2.1-.3.2-.5zM146.8 83.5c.2.1.3.1.5-.1l.2-.2c3.6-1.4 7-3.2 10.6-4.4 5.8-2 13.5-5 19.7-3.4 3.3.9 6.4 3 9.5 4.4 2.8 1.2 5.8 2.5 8.5 4 8.7 4.6 17.7 9.4 25.4 15.7-.1 0-.2.1-.2.2-2.3-1.7-4.5-3.3-6.5-4.6-6.7-4.5-13.7-8.4-21-11.9-9.2-4.4-17.1-9.5-27.6-6.4-7.1 2.1-13.7 5.4-20.7 7.8 0-.1 0-.2-.1-.2h-.1c-.1.1-.2.1-.3.2-.1-.2-.1-.4.1-.5 0 0 .1 0 .1-.1.6-.2 1.2-.5 1.8-.8-.2.1-.1.2.1.3z"/><path class="st0" d="M220.6 202.2c0 .2-.1.4-.2.6 0 .1 0 .3.1.4-.5.4-1 .7-1.6.9-4.1 2.3-8.5 4.1-13.1 5.3-1.6.4-3.2.8-4.7 1.2-1.3.3-2.5 1.1-3.7.5 0-.1 0-.2-.1-.2l-.3-.3h.1c3.4 1 9.8-2 13-3.2 3.6-1.5 7.4-3 10.5-5.2zM220.2 124.1h.2c-2.3 2.8-4.9 5.4-7.9 7.5h-.5c-.3-.1-.8.3-.5.6-.9.6-1.9 1.2-2.9 1.6 0-.1-.1-.1-.1-.2.3.1.5-.1.6-.3v-.2c3.9-2.7 7.5-5.8 10.6-9.3.2.3.3.4.5.3zM220.3 123.3c-.1.2-.3.3-.5.5 0-.2.1-.4.3-.4.1 0 .1 0 .2-.1zM219.7 137.7v.1c-.2 0-.4-.2-.4-.4 0-.1 0-.2.1-.2.1-.1.1-.2.2-.3 0 .2 0 .5.1.8z"/><path class="st0" d="M218.2 134.8l.3-.3c.5.7.8 1.5 1 2.4-.1.1-.1.2-.2.3-.1.2-.1.5.1.6.1 0 .2.1.2.1 0 .2-.2.5-.4.5s-.3-.1-.4-.2c-.5-.9-.9-1.9-.9-2.9l.3-.5z"/><path class="st0" d="M218.3 134.3c-.2-.1-.4 0-.4.2v.1c-2.2 1.8-3.4 4.4-5.6 6.2 0-.2 0-.5-.1-.7 2.2-2.1 3.6-5.2 6.5-6.4.1 0 .2 0 .3.2v.2l-.3.3c-.2 0-.3-.1-.4-.1z"/><path class="st0" d="M218.2 134.8l-.3.4c0-.2 0-.3-.1-.5v-.1c.1-.1.3-.2.4-.3.1 0 .2.1.2.2l-.2.3z"/><path class="st0" d="M218.3 134.3c-.2.1-.3.2-.4.3 0-.2.1-.3.3-.3h.1zM217.8 134.7c0 .2 0 .3.1.5-1.9 2.2-3.6 4.7-5.8 6.5-.2.2-.6.2-.8 0-.1-.1-.2-.2-.2-.3-.1-.6-.2-1.3-.3-1.9-.2-1.8-.3-2.2-1.9-1.3-.9.5-1.8.9-2.8 1.3.1-.2.2-.3.3-.5 1.5-.6 2.9-1.7 4.5-2.1.3 1.2.5 2.5.7 3.8l-.2.2c.1 0 .2.1.2.1 0 .1 0 .3.1.4.1-.1.2-.1.3-.2.1 0 .1.1.2.1 0-.1 0-.2-.1-.2 2.3-2 3.5-4.7 5.7-6.4zM211.9 110.9c.6.3 1.3.6 1.9.9-.5.1-1 .1-1.4 0h-.1l-1.3-.5-.3-.3c-.1-.2-.1-.4 0-.5.4 0 .8.2 1.2.4zM212 132.1c-.1.1-.3.2-.4.2-.3-.4.1-.7.5-.6h.5l-.6.4zM211.7 69.9c.3.1.6.3.9.4-.4 0-.9.1-1.3.2l-1-.5c0-.1.1-.2.3-.3h.4l.7.2z"/><path class="st0" d="M211 111.2l1.3.5c-.5.1-.9-.1-1.3-.5zM212.2 140.8v.2c-.1 0-.2-.1-.2-.1.1.1.1 0 .2-.1z"/><path class="st0" d="M212.1 140.1c0 .2.1.5.1.7 0 .1-.1.1-.2.1s-.3-.1-.4-.1v-.3c.2-.1.4-.2.5-.4z"/><path class="st0" d="M212.1 140.1c-.1.2-.3.3-.5.4-.1-1.3-.4-2.5-.7-3.8-1.5.5-2.9 1.5-4.5 2.1.2-.2.3-.5.4-.7 1.3-.7 2.6-1.3 3.9-1.9.2-.1.5.1.6.3.4 1.3.7 2.5.8 3.6zM212 141l-.3.3c0-.1 0-.3-.1-.4.2 0 .3.1.4.1zM211.6 140.6v.3c-.1 0-.1-.1-.2-.1l.2-.2zM211.3 70.5l-.5.1c-.2 0-.5-.1-.5-.3V70l1 .5z"/><path class="st0" d="M211 69.7c-.2 0-.3.1-.5.1-.1 0-.3.1-.3.3-6.8-3.4-14.4-5.1-22-5-3.1 0-6.2.1-9.4.4-12.5 1.3-24 7.6-31.8 17.5l-.6.2c-.1-.1-.1-.2 0-.3 12.3-16.1 35.3-22.4 54.5-16.9 3.5.9 6.9 2.2 10.1 3.7zM210.7 110.9l.3.3c-2.4-1.1-5-1.8-7.6-2.2-2.5-.3-5-.5-7.6-.5v-.1c0-.1-.2 0-.2.1-3.4-.1-6.7.3-10 1.2 0-.1-.1-.3-.2-.4 7-2.2 15.6-2.4 22.4-.1 1 .4 2 .7 3 1.2-.2.1-.2.3-.1.5zM209.2 133.1c.1.3-.1.5-.3.6H208.6l-.1-.1c.2-.1.4-.3.7-.5zM208.6 132.9l.4-.4.1.5c-.3.2-.5.4-.8.5-.1-.1-.2-.2-.2-.3.2 0 .4-.1.5-.3z"/><path class="st0" d="M209.1 132.6c-.2.1-.3.2-.4.4-.4-2.4-1.7-4.8-2.4-7.2 0-.1.1-.2.1-.3 1 2.2 1.9 4.6 2.7 7.1zM208.5 134.1h.3c.1.1 0 .3-.1.4h-.1c0-.2-.1-.3-.1-.4zM208.8 133.9h-.3c-.1-.1-.2-.2-.3-.2v-.1l.4-.1h.2c-.1.2 0 .3 0 .4z"/><path class="st0" d="M208.6 132.9l-.4.4c-.3-2.4-1.6-4.6-2.1-7 .1-.2.1-.3.2-.5.6 2.4 1.9 4.7 2.3 7.1zM208.4 133.7l-.4.2c-.1-.1 0-.3.1-.4h.1l.2.2zM208 134.5l-.6.2c0-.1.1-.2.1-.3.4-.1.7-.2 1-.4v.3l-.5.2z"/><path class="st0" d="M208.4 134c-.3.2-.6.3-1 .4 0-.1.1-.2.1-.3.1-.2.3-.3.5-.3.2.1.3.2.4.2zM208 134.5l.5-.2c-.2 1.4-.8 2.7-1.5 3.8-.4.2-.7.4-1 .5.9-1.1 1.6-2.5 2-4.1z"/><path class="st0" d="M208.1 133.9c.1 0 .2.1.3.2-.1-.1-.2-.1-.3-.2z"/><path class="st5" d="M208.2 133.3c-.2.1-.2.3-.1.4-7.4 1.5-16 .6-23.6 1-8.7.5-17.5.8-26.2 1.4h-.3c-4.7-.6-8.8-1.6-12.4-5-2.7-2.5 3.3-9.9 5.1-11.5.2-.2.2-.6.1-.8h-.1c.2 0 .3-.2.3-.4-.2-1.6-.5-3.2-.7-4.8-.1-.9-.1-1.9-.1-2.8.1-.5.1-1 .1-1.6.1 0 .3.1.4.1 4.4 1 7.5 4.8 11.7 6.1 2.6 1 5.4 1 8 0 4.6-2 10.5-2.2 14.6-5 3.4-.8 6.9-1.3 10.5-1.3.9 7.4 2.9 17.7 8.1 23.1.1.1.4 0 .3-.2s-.1-.3-.2-.5c.6-.9 1-2 1.4-3 .4-.7.7-1.5 1-2.3.5 2.5 1.8 4.6 2.1 7.1zm-18.1-9.4c.5-1.6.8-3.4.7-5.1-.1-1.2-1.1-4.3-3-3.3-2.5 1.4-3.7 10.1 0 10.6-.1.3.2.6.5.7.1 0 .3 0 .4-.1.8-.6 1.1-1.9 1.4-2.8zm-31.2 1.8c1.4-1.6 1.5-3.8 1.4-5.8-.1-1.3-.4-4.3-2.3-4.4-4-.3-2.9 8.2-.5 9.6.1.3.4.6.7.7.2.1.5.1.7-.1z"/><path class="st0" d="M208.1 133.8c-.2 0-.4.2-.5.4 0 .1-.1.2-.1.3-.8.1-1.6.2-2.3.1-2.5.1-5 0-7.4.2l-8.4.3c-10.1.4-20.4 1.3-30.6 1.4-.1-.1-.2-.2-.4-.2 8.7-.7 17.5-1 26.2-1.4 7.4-.5 16 .4 23.5-1.1zM205.3 139.7c.3-.1.6-.1.9-.2l-.1.3c-1.8 3.2-.7 6-.2 9.3 0 .1 0 .1-.1.1h-.4c-1.4-2.1-2.7-5.2-1.7-7.8.9-2.4 2.7-4.3 3.6-6.6l.6-.2c-.4 1.5-1.2 2.9-2.1 4.2-.3.1-.6.2-.9.4-.2.1-.2.2-.2.4.1.2.2.2.4.2.1-.1.2-.1.2-.1z"/><path class="st0" d="M207.4 134.4c0 .1-.1.2-.1.3-3.1.8-6.5.4-9.7.6-4.4.2-8.8.3-13.2.5-8.5.5-17.1 1.3-25.6.9-.1-.1-.1-.2-.2-.2v-.1c10.2 0 20.4-.9 30.6-1.4l8.4-.3c2.5-.1 5-.1 7.4-.2.9.1 1.7.1 2.4-.1zM206.9 138.2c-.1.2-.3.5-.4.7-.3.1-.7.3-1 .3.1-.2.2-.4.3-.5.4-.1.8-.3 1.1-.5z"/><path class="st0" d="M206.5 138.9c-.1.2-.2.3-.3.5-.3.1-.6.2-.9.2.1-.1.2-.3.2-.4.4 0 .7-.1 1-.3zM206 125.3c0 .1-.1.1-.1.2-.6 2-2.1 3.7-2.3 5.8-.1-.3-.2-.6-.3-.8.1-.6.3-1.2.6-1.8.7-1.2 1.3-2.4 1.9-3.7 0-.2.2-.3.4-.2.2 0 .3.2.3.4V125.5c0-.1-.2-.2-.3-.1-.1-.2-.2-.2-.2-.1z"/><path class="st0" d="M206.2 125.7c0 .2-.1.3-.2.5-.1-.2-.1-.5-.1-.7 0-.1 0-.2.1-.2.1-.1.2-.1.3 0 0 .1 0 .2-.1.4z"/><path class="st0" d="M205.9 125.5c0 .3.1.5.1.7-.3.8-.6 1.5-1 2.3-.3 1-.8 2.1-1.4 3l-.1-.3c.3-2 1.9-3.8 2.4-5.7zM205.5 139.3c-.1.1-.2.3-.2.4h-.1c-.1 0-.3 0-.4-.2 0-.2 0-.3.2-.4.3-.1.6-.2.9-.4-.1.2-.3.4-.4.6zM205.5 149.1c.1 0 .2 0 .4.1 0 .1-.2.1-.4-.1-.1-.1 0 .1 0 0z"/><path class="st4" d="M207.3 134.7c-.9 2.4-2.7 4.2-3.6 6.6-1 2.5.3 5.7 1.7 7.8-6.5-1.3-13.2-1.8-19.8-1.5-.2 0-.3.1-.3.3v.2h-.2c-2.7.4-4.9 1.8-7.3 3.1-1.4.8-2.6 1.8-3.9 2.5s-3.7-2.6-5-3.3c-.1 0-.1-.1-.2 0-3.6-4.3-7-8.9-10-13.7 8.5.4 17.1-.4 25.6-.9 4.4-.3 8.8-.4 13.2-.5 3.4-.1 6.7.2 9.8-.6z"/><path class="st0" d="M203.4 131.6c0 .1.1.1.2.1l.1-.1c.1.2.1.3.2.5s-.2.3-.3.2c-5.2-5.4-7.2-15.7-8.1-23.1h.2c.2.6.2 1.3.4 1.8.6 3 1.4 6 2.4 8.9 1.1 4.1 2.8 8 4.9 11.7z"/><path class="st0" d="M203.6 131.3l.1.3c0 .1-.1.1-.2.1l-.1-.1c-.2-.3-.2-.7-.1-1.1.1.2.2.5.3.8z"/><path class="st0" d="M203.3 130.4c-.1.4 0 .8.1 1.1-2.1-3.7-3.8-7.6-4.9-11.7-1-2.9-1.8-5.9-2.4-8.9-.1-.6-.2-1.2-.4-1.8h.2c1.4 3.3 2 7.2 3 10.6 1.3 3.7 2.9 7.2 4.4 10.7zM196.8 210.7c0-.1.1-.3.2-.3l.3.3c.1.1.1.2.1.2 0 .1 0 .2-.1.2s-.2-.1-.3-.1c-.2 0-.2-.1-.2-.3z"/><path class="st0" d="M197 211.1c.1 0 .2.1.3.1-.1.1-.3.1-.4 0-1.1-.6-2.1-1.3-3-2.1.1-.1.1-.1.1-.2.1-.2.1-.4 0-.5.9.8 1.7 1.7 2.7 2.3 0 .2.1.3.3.4zM197 210.4c-.1 0-.2.2-.2.3-.9-.7-1.8-1.6-2.7-2.3-.1-.2-.3-.3-.5-.4l-.3-.3c-1.9-1.5-3.2-3.4-4.9-5-.1-.1-.2-.2-.3-.2 0 0 0-.1-.1-.1-1.8-1.6-3.7-3.1-5.4-4.8-1.2-1.1-2.1-2.8-3.4-3.7.1-.1.2-.2.2-.3 1.4 1 2.3 2.4 3.6 3.6 1.6 1.5 3.2 2.8 4.9 4.2 3.2 2.8 6.1 6 9.1 9zM195.8 109.2h-.2c0-.2 0-.4-.1-.6h.3c.1.2.2.4.2.6h-.2zM195.7 108.5c-.1 0-.2 0-.3.1.1-.2.2-.2.3-.1z"/><path class="st0" d="M195.5 108.6c0 .2 0 .4.1.6-3.5 0-7.1.4-10.5 1.3l.2-.1c.2-.1.3-.4.2-.6 3.2-1 6.6-1.3 10-1.2zM193.4 208.7c-.2-.1-.3-.3-.5-.5.1-.1.2-.1.3-.2.1-.1.3-.1.5 0l.5.4c.1.2.1.4 0 .5 0 .1-.1.1-.1.2-.4-.1-.5-.2-.7-.4z"/><path class="st0" d="M193.4 208.7c.1.1.3.3.5.4-.7 1-2.4 3-3.6 2.1v-.1c.3.1.7 0 .9-.3.9-.3 1.6-1.5 2.2-2.1zM194.1 208.4l-.5-.4c.2.1.4.2.5.4zM193.6 208c-.1-.1-.3-.1-.5 0-.1.1-.2.1-.3.2-1.5-1.4-2.8-2.8-4.3-4.2-.1-.5-.3-1-.5-1.4.1.1.2.1.3.2 1.7 1.6 3 3.5 5 5l.3.2z"/><path class="st0" d="M192.9 208.2l.5.5c-.7.6-1.4 1.8-2.3 2.1.1-.1.1-.2 0-.3l-.3-.2c.4-.3.8-.6 1.1-.9.4-.5.7-.8 1-1.2z"/><path class="st2" d="M192.9 208.2c-.4.3-.7.7-1 1.1-.3.4-.7.7-1.1.9-1.6-1.5-1.7-4.1-2.2-6.2 1.5 1.4 2.8 2.9 4.3 4.2z"/><path class="st0" d="M190.4 210.6c.1-.1.2-.3.4-.4l.3.2c.1.1.2.2.1.3v.1c-.2.3-.5.4-.9.3 0-.1 0-.3.1-.5.1 0 0 0 0 0zM190.8 118.8c.1 1.7-.2 3.4-.7 5.1-.3.9-.6 2.3-1.4 2.8-.3.1-.7 0-.8-.2-.1-.1-.1-.3-.1-.4h.2c.1 0 .2 0 .2-.1l.2.2c1.3-1.5 3.2-8.1.9-10-2.8-2.4-4.9 8.3-1.4 9.6 0 .1-.1.1-.1.2-3.7-.5-2.5-9.1 0-10.6 1.9-1 3 2.1 3 3.4z"/><path class="st0" d="M190.8 210.2c-.1.1-.3.2-.4.4-1.5-.7-2-5.1-2.4-7.2.2.2.4.3.6.5.6 2.3.6 4.9 2.2 6.3z"/><path class="st0" d="M190.4 210.6l-.1.1c-.1.1-.1.3-.1.4-.9-.3-1.6-2-1.8-2.6-.4-1.8-.7-3.6-.8-5.5l.2.2.1.1c.5 2.1 1.1 6.6 2.5 7.3zM189.3 116.1c2.3 1.9.4 8.5-.9 10l-.2-.2c.1-.1.1-.3 0-.4l-.1-.1c.3-.5.6-1 .8-1.5.4-1 .7-2 .9-3 .3-1.2.3-2.4-.1-3.6-.4-1-1.3-1.6-2-.5-1.4 2.4-1.8 6.6.4 8.6-.1.1-.1.2-.1.3-3.6-1.3-1.5-12 1.3-9.6z"/><path class="st0" d="M189.6 117.3c.4 1.2.4 2.4.1 3.6-.2 1-.5 2-.9 3-.2.5-.5 1-.8 1.5-2.2-2-1.8-6.2-.4-8.6.7-1.1 1.6-.5 2 .5zM188 203.4l-.1-.1-.2-.2v-.4c0-.2.2-.3.4-.2l.1.1c.2.5.4.9.5 1.4-.3-.2-.5-.4-.7-.6zM188.2 125.6c.1.1.1.3 0 .4l-.2-.2h-.1c0-.1.1-.2.1-.3.1 0 .1 0 .2.1z"/><path class="st0" d="M188 125.8l.2.2c-.1 0-.1.1-.2.1h-.2c0-.1.1-.2.2-.3zM188 202.4c-.1-.1-.4 0-.4.2v.4c-2.4-2.2-4.6-4.5-6.8-6.8l.1-.3c.1-.3-.3-.4-.5-.2-.5-.6-1-1.1-1.6-1.7.1 0 .1-.1.2-.1l.1-.1c1.3 1 2.2 2.6 3.4 3.7 1.8 1.8 3.7 3.3 5.5 4.9zM185.8 148.3h-.1-.2l-.1-.1c.1-.1.2-.1.3-.1.1.1.1.1.1.2zM179 193.2c.2-.2.6.1.4.3-.1-.1-.2-.2-.3-.2h-.2c.5-4 .4-8.1.9-12.1.1-1 .3-2 .4-3 .4-.2.5-.6.4-.9 0-.1-.1-.1-.1-.2.2-1.7.4-3.3.7-5 1.1-7.9 3.9-15.4 4.5-23.4v-.1-.2h.2c0 7.4-2.6 14.4-3.8 21.6-.9 5.1-1.6 10.3-2 15.4-.2 1.8.3 6.3-1.1 7.8zM185.6 148.3v0c-.1-.1 0 0 0 0z"/><path class="st0" d="M185.6 148.4c0 .2 0 .2-.1.3l-.2.2c0-.3.1-.5.1-.7v-.1s0 .1.1.1c0 .1.1.2.1.2z"/><path class="st0" d="M185.5 148.7c.1-.1.1-.1.1-.2-.6 8-3.4 15.5-4.5 23.4-.2 1.7-.5 3.3-.7 5-.2-.2-.4-.4-.6-.5.2-1.5.4-3.1.6-4.6.1-.5.2-1 .2-1.4l.2.1c.2 0 .3 0 .4-.2 0-.1 0-.3-.1-.4l-.4-.2c1.2-7 3.1-13.8 4.4-20.7.2-.1.3-.2.4-.3zM185.5 109.7c.1.2 0 .5-.2.6l-.2.1c-.7.2-1.3.3-1.9.5-.2.1-.4 0-.4-.2.6-.2 1.2-.4 1.7-.7l1-.3z"/><path class="st0" d="M184.4 110c-.6.3-1.1.5-1.7.7-.1-.2 0-.4.2-.5h.1c.8-.3 1.6-.6 2.4-.8.1.1.2.2.2.4l-1.2.2zM169.3 151.1c0-.1 0-.1 0 0-.1-.2-.3-.4-.4-.6.1-.1.1 0 .2 0 1.2.7 3.6 4 5 3.3s2.6-1.8 4-2.5c2.4-1.3 4.6-2.8 7.3-3.1h.2v.1c-.1.3-.1.5-.1.7-1.4 1.2-3.4 1.7-4.9 2.7-1.9 1.2-3.8 2.4-5.7 3.4-2.7 1.4-4.1-1.5-5.5-3.5.2 0 .3-.2.2-.4-.2-.1-.2-.1-.3-.1z"/><path class="st0" d="M184.7 109.2c.2-.1.4 0 .6.1-.8.2-1.6.5-2.4.8-.2.1-.3.3-.3.5v.1c-2.2.7-4.5 1-6.7 1.5-2.9.6-5.2 2.5-8 3.1-5.5 1.2-10.6-4-15.3-5.9-2.7-.9-5.4-1.5-8.2-1.8-.2-.1-.3-.1-.5-.1-1.3-.2-2.6-.5-3.8-.9v-.4c6.5.8 12.1 1.8 17.8 5.2 2.3 1.3 5.6 3.6 8.3 3.2 4.6-.5 4.2-1.7 7.4-2.8 3.7-1 7.4-1.9 11.1-2.6z"/><path class="st0" d="M183.1 110.9c.6-.2 1.3-.4 1.9-.5-4.1 2.9-10 3.1-14.6 5-2.6 1-5.4 1-8 0-4.2-1.3-7.4-5-11.7-6.1-.1 0-.3-.1-.4-.1 0-.1 0-.3-.1-.4 0-.1-.1-.1-.2-.1-.1.1-.2.2-.3.4-1.7-.4-3.4-.6-5-.9v-.2c0-.2-.1-.3-.2-.4 2.8.3 5.6.9 8.3 1.8 4.7 1.9 9.8 7.1 15.3 5.9 2.7-.6 5.1-2.5 8-3.1 2.2-.5 4.5-.8 6.7-1.5 0 .1.2.2.3.2zM180.7 170v-.3l.4.2c.1.1.2.3.1.4-.1.1-.2.2-.3.1l-.2-.1v-.3z"/><path class="st2" d="M180.5 151.6c1.5-1 3.4-1.4 4.8-2.6-1.3 7-3.2 13.8-4.4 20.7-3.1-1.6-5.6-2.6-9.1-2-2.8.5-5.6 1.3-8.3 2.4-.3-.8-.4-1.6-.5-2.4h.1c.2-.3.2-.6-.1-.9.1-2.6.3-5.1.7-7.7.1-1.1.3-2.2.4-3.3.9-2 2.3-3.7 3.9-5.2l1 .9c.1.1.2.1.3.1 1.4 2 2.8 4.8 5.5 3.5 1.9-1.1 3.8-2.3 5.7-3.5z"/><path class="st0" d="M180.6 196l-.2-.2c.2-.2.5-.1.5.2l-.1.3-.2-.3z"/><path class="st0" d="M180.6 196l.2.2c-1.5 4.9-.4 10.6-3 15.1-.1.2-.4.3-.7.2-.1 0-.1-.1-.2-.2l-.4-.5.2.1c.1.1.2.1.2 0v-.1c.1.1.2.2.3.2.1-.1.1-.2.1-.4h.1v-.1c1.4-3 1.4-6.7 1.7-9.9.1-1 .6-1.8.7-2.7.3-.5.5-1.3.8-1.9zM180.8 169.7v.3c-1.9-.6-3.5-1.9-5.7-2-2.2 0-4.4.4-6.4 1.2-1.6.6-3.5 1-5.3 1.5.1-.1.1-.2.1-.3l-.1-.2c2.7-1.1 5.5-1.9 8.3-2.4 3.5-.7 6 .3 9.1 1.9z"/><path class="st0" d="M180.7 170c0 .1 0 .2-.1.3-1.5-.4-3-1.4-4.4-1.7-2.7-.5-5 .3-7.5 1-3 1-6.5 1.4-9.2 3.3l-.1-.4-.1-.1c1.2-.8 2.4-1.4 3.8-1.8.1 0 .2 0 .3-.1 1.8-.6 3.7-1 5.3-1.5 2-.8 4.2-1.2 6.4-1.1 2.1.2 3.7 1.5 5.6 2.1z"/><path class="st6" d="M180.6 170.4c-.1.5-.1.9-.2 1.4-.2 1.5-.4 3.1-.6 4.6-5.7-4.8-11.1.1-17.2 2.1-.6-.8-1.2-1.6-1.7-2.4-.5-1-.9-2-1.3-3.1 2.6-1.9 6.1-2.3 9.2-3.3 2.5-.8 4.8-1.5 7.5-1 1.4.2 2.9 1.2 4.3 1.7z"/><path class="st0" d="M180.4 195.8l.2.2c-.3.6-.5 1.3-.6 2-.1.9-.7 1.8-.7 2.7-.3 3.2-.3 6.9-1.7 9.9-.1-.1-.3-.2-.4-.4 1.1-3.9.8-8.5 2.2-12.4.2-.1.4-.1.5-.3.2-.1.2-.3.1-.5 0-.1-.1-.1-.2-.1.2-.3.4-.7.6-1.1zM180.4 177c.3.3.3.7 0 1-.1.1-.1.1-.2.1 0-.4.1-.7.2-1.1z"/><path class="st2" d="M178.9 194.1c.5.6 1 1.1 1.6 1.7-.3.4-.5.8-.7 1.3-1.4-.4-3.2 0-4.7 0-2.1.2-4.2.6-6.2 1.2-.3-.5-.5-1-.7-1.5-1.8-3.8-3.1-7.8-3.8-11.9.2-.2.1-.6-.1-.7-.2-1.6-.4-3.3-.6-5 1.5-.1 2.9-1.1 4.3-1.7 4.2-1.7 7.7-3.2 11.5.5.1.1.1.1.2.1-.5 5.2-.8 10.3-1.1 15.5v.2c-.1.3.1.4.3.3z"/><path class="st0" d="M179.7 177.3c0-.3.1-.6.1-.8.2.1.4.3.6.5-.1.4-.1.8-.2 1.2-.2.1-.4.1-.6 0 0-.3.1-.6.1-.9z"/><path class="st0" d="M180.2 178.1c-.1 1-.3 2-.4 3-.5 4-.4 8.1-.9 12.1-.2 0-.3.2-.3.4.3-5.2.5-10.4 1.1-15.5.1.1.3.1.5 0zM179.6 197.4c0-.1.1-.2.1-.3.2.1.3.2.2.4 0 .1-.1.1-.1.2-.2.1-.3.2-.5.3l.3-.6zM179.8 176.4c0 .3-.1.6-.1.8-1.9-2-4.7-2.9-7.4-2.2-2 .6-3.8 1.6-5.6 2.4-.9.4-2.1 1.1-3.1 1.4-.1-.2-.4-.3-.6-.1l-.1.1-.2-.3c6-2 11.4-6.8 17.1-2.1z"/><path class="st0" d="M179.8 197.1c-.1.1-.1.2-.1.3-1.5.2-3.1.3-4.6.3-2 .3-4 .6-6 1.1-.1-.2-.2-.3-.2-.5 2-.6 4.1-1 6.2-1.2 1.4-.1 3.3-.4 4.7 0zM179.7 177.2c0 .3-.1.6-.1.8-.1 0-.2-.1-.2-.1-3.8-3.7-7.2-2.2-11.5-.5-1.4.6-2.9 1.5-4.3 1.7v-.2c0-.1 0-.1-.1-.2 1.1-.4 2.1-.9 3.1-1.4 1.9-.8 3.7-1.7 5.6-2.4 2.8-.5 5.6.3 7.5 2.3z"/><path class="st0" d="M179.6 197.4l-.2.5c-1.3.5-3 .2-4.4.3-2 .1-3.8.7-5.8 1-.1-.1-.2-.3-.2-.5 2-.5 4-.8 6-1.1 1.6.1 3.1 0 4.6-.2zM179 193.7l-.2.2c0-.2 0-.4.1-.6.1 0 .1 0 .2.1s.2.1.3.2c-.1.1-.1.2-.2.3-.1-.1-.1-.2-.2-.2z"/><path class="st0" d="M179 193.7c.1 0 .1.1.2.2l-.1.1c0 .1-.1.1-.2.1l-.2-.3c-.1-.1-.1-.1-.1-.2 0-.2.2-.3.3-.4 0 .2 0 .4-.1.6.1 0 .1-.1.2-.1zM178.6 193.9l.2.3c-.2 0-.4 0-.4-.3v-.2c.1 0 .2.1.2.2z"/><path class="st2" d="M179.4 197.9c-1.4 3.8-1 8.5-2.2 12.4-.1-.1-.3-.1-.4 0-3.3-2.6-5.6-7.1-7.6-11.1 1.9-.2 3.8-.9 5.8-1 1.4-.1 3.1.3 4.4-.3z"/><path class="st0" d="M177.7 210.7l-.4.1c.1-.1.1-.2.1-.3l-.1-.1c0-.1.1-.1.1-.2 0 .2.1.4.3.5zM177.6 210.8c0 .1-.1.2-.1.4-.1 0-.2-.1-.3-.2l.4-.2zM177.1 210.5c.1.1.1.2.1.3l-.1.1-.1-.1c.1-.1.1-.2.1-.3zM177.2 210.3c0 .1 0 .2-.1.2-.1-.1-.2-.2-.3-.2.2-.1.3-.1.4 0z"/><path class="st0" d="M177.1 210.8l.1.1-.2.1c0-.1.1-.1.1-.2z"/><path class="st0" d="M177.1 210.8c0 .1 0 .1-.1.2l.2-.1c0 .1-.1.1-.2.1l-.1-.1-.2-.1v-.2c0-.1.1-.2.2-.3.1.1.2.1.3.2 0 .1-.1.2-.1.3zM176.6 210.6v.2c-5.1-3.3-8-10-10.4-15.4-1.4-3.3-2.4-6.8-3-10.3l.1.1c.1.1.3.1.4.1.8 4.6 2.3 9.1 4.5 13.2-.2.3 0 .9.4.8.2.5.5 1 .8 1.6 1.1 2 2.5 3.9 3.6 5.8.9 1.6 2.1 2.9 3.6 3.9z"/><path class="st0" d="M176.9 210.3c-.1 0-.2.1-.2.3-1.5-1-2.7-2.3-3.5-3.9-1.1-2-2.4-3.8-3.6-5.8-.3-.5-.6-1.1-.8-1.6.2 0 .4 0 .5-.1 1.9 4 4.3 8.6 7.6 11.1zM169.3 151c.1.2.1.4 0 .5l-.1.1c-.2-.2-.3-.5-.5-.7-.1-.1-.1-.3 0-.4 0 0 .1-.1.2-.1.1.3.2.4.4.6z"/><path class="st0" d="M169 198.8c.1.2.1.3.2.5-.2 0-.4.1-.5.1-.2-.3-.3-.5-.4-.8.1-.1.2-.2.3-.2h.2c0 .1.1.2.2.4zM169.2 151.6c-.1.1-.2.1-.3 0-.3-.3-.7-.6-1-.9 0-.1.1-.1.2-.2l.1-.1.6.6c.1.2.2.4.4.6z"/><path class="st0" d="M168.1 196.8c.2.5.5.9.7 1.5h-.2c-.1 0-.2.1-.3.2-2.2-4.2-3.7-8.6-4.5-13.2.2 0 .4-.2.5-.4.6 4.1 1.9 8.1 3.8 11.9zM168.9 150.5c-.1 0-.2.1-.2.3 0 .1 0 .1.1.2l-.6-.6c.3-.4-.2-.8-.7-.7-.8-.9-1.6-1.7-2.4-2.6v-.3c0-.2-.2-.4-.5-.4h-.2c-2.4-2.8-4.4-6-6-9.3.1-.1.1-.1.1-.2h.4c3 4.6 6.3 9.2 10 13.6zM168.3 198.5c.1.3.3.5.4.8-.4 0-.6-.5-.4-.8z"/><path class="st0" d="M167.4 149.6c.4-.1.9.3.7.7-.2-.2-.4-.5-.7-.7zM167.4 150.3l-.4-.4.2-.2c.1-.1.1-.1.2-.1l.7.7c0 .1-.1.1-.1.1-.1 0-.1.1-.2.2-.2-.1-.3-.2-.4-.3z"/><path class="st0" d="M167.4 150.3l.4.4c-1.6 1.5-3 3.2-3.9 5.2.1-.5.1-1 .2-1.4.9-1.7 2-3.1 3.3-4.2zM167.4 149.6c-.1 0-.2 0-.2.1l-.2.2c-.7-.6-1.4-1.3-2.1-2 0-.3.1-.6.1-1l2.4 2.7z"/><path class="st0" d="M167 149.9l.4.4c-1.3 1.2-2.4 2.6-3.3 4.1.1-.5.1-.9.2-1.4.8-1.2 1.7-2.2 2.7-3.1z"/><path class="st2" d="M164.9 147.9c.7.7 1.4 1.4 2.1 2-1 .9-1.9 1.9-2.7 3.1.3-1.7.5-3.3.6-5.1z"/><path class="st0" d="M164.4 146.3c.2-.1.5-.1.6.1 0 .1.1.1.1.2v.4l-.7-.7zM164.5 147.5l-.4-.4c0-.2.1-.4.1-.5 0-.1.1-.2.2-.3l.6.7c0 .3-.1.7-.1 1-.1-.2-.2-.3-.4-.5z"/><path class="st0" d="M164.5 147.5c.1.2.3.3.4.4-.1 1.7-.4 3.4-.6 5.1-.3.4-.5.8-.7 1.2.3-2.2.7-4.5.9-6.7z"/><path class="st0" d="M164.1 147.1l.4.4c-.3 2.3-.6 4.5-1 6.7-.4.7-.8 1.5-1.2 2.2-.2.5.4 1 .7.8-.5 3-.7 6.1-.6 9.1v.4c-.2 0-.3.1-.4.2-.1.1-.2.2-.4.3-1-6.4 1.5-14.5 2.5-20.1zM164.2 184.1c.2.2.3.5.1.7 0-.1-.1-.4-.1-.7z"/><path class="st0" d="M164.3 153c-.1.5-.1.9-.2 1.4-.3.5-.5.9-.8 1.3.1-.5.1-1 .2-1.5.3-.4.5-.8.8-1.2zM163.7 184.6c-.1-.3-.1-.7-.1-1l.6.6c0 .2.1.5.1.7-.1.2-.3.4-.5.4-.1-.2-.1-.5-.1-.7zM164.4 146.3c-.1.1-.2.1-.2.3 0 .2-.1.4-.1.5-2.7-2.9-4.8-6.3-6.3-9.9h.2c.2 0 .3-.1.4-.2 1.6 3.3 3.6 6.4 6 9.3zM164.2 184.1l-.6-.6c-.2-1.4-.4-2.9-.4-4.3h.4c.1 1.7.3 3.3.6 4.9z"/><path class="st0" d="M164.1 154.4c-.1.5-.1 1-.2 1.4-.1.4-.3.8-.6 1.1l-.2.2c0-.5.1-.9.2-1.4.3-.4.5-.9.8-1.3z"/><path class="st2" d="M157.8 137.1c1.5 3.7 3.6 7 6.3 9.9-1 5.7-3.5 13.8-2.4 20.1-3.7 3.5-8 6.3-12.6 8.3-4.2 1.9-9 4.6-13.8 4.1 0-.2-.1-.5-.2-.7v-.1c-.2-7.2-4-14.9-5.3-22.1-1.6-8.3-4.4-16.4-6.5-24.6-4.2-16.1-7.7-32.4-11.6-48.6 6.8 7.2 12.9 15.9 18.5 23.9 2.4 3.5 5.3 6.1 8.2 9.1 2.4 2.5 4.5 5.4 7.4 7.3-.3.4-.5.7-.8 1.1-1.4 1.7-2.5 3.3-2.1 5.5s3.7 3.9 5.4 4.9c2.8 1.9 6.3 2.1 9.5 1.9z"/><path class="st0" d="M163.8 185.3c-.1 0-.3 0-.4-.1l-.1-.1c0-.3-.1-.7-.1-1 .2.2.4.4.6.5-.1.3-.1.5 0 .7zM163.3 157c.2-.4.4-.7.6-1.1-.1 1.1-.3 2.2-.4 3.3-.4 2.5-.6 5.1-.7 7.7-.1-.1-.2-.1-.3-.1v-.3c-.1-3.1.1-6.1.6-9.1l.2-.4z"/><path class="st0" d="M163.6 183.6c0 .3 0 .7.1 1-.2-.1-.4-.3-.6-.5l-.1-1 .6.5zM163.2 179.2h-.4c.1-.1.1-.2.1-.3.2 0 .5 0 .7-.1 0 .1.1.1.1.2v.2h-.5zM163.3 155.7c-.1.5-.2.9-.2 1.4-.3.1-.6 0-.7-.3-.1-.2-.1-.3 0-.5.4-.7.8-1.5 1.2-2.2-.1.6-.2 1.1-.3 1.6z"/><path class="st0" d="M163.6 183.6l-.6-.6c-.1-1.3-.2-2.5-.2-3.8h.4c0 1.5.1 2.9.4 4.4zM163 170.2c.1-.1.2-.1.3-.1l.1.2c0 .1 0 .3-.1.3s-.2.1-.3.1c-.1 0-.2-.1-.3-.1 0-.1-.1-.2-.1-.3l.4-.1z"/><path class="st0" d="M163.3 170.1c-.1 0-.2.1-.3.1-.3-.7-.5-1.4-.5-2.1.1-.1.2-.3.3-.4.1.8.3 1.6.5 2.4zM162.8 178.8c.1-.2.4-.3.6-.1l.1.1c-.2.1-.4.1-.7.1v-.1c0-.1 0 0 0 0zM163.1 184.1c0 .3.1.7.1 1-1.9-1.3-3.4-3.8-4.7-5.6-1.1-1.6-3-3.7-3.2-5.7l.5-.3c-.1 1.2 5.1 8.5 7.3 10.6z"/><path class="st0" d="M162.8 166.8c.3.2.3.6.1.9h-.1v-.9zM163 183l.1 1.1c-2.2-2.1-7.5-9.5-7.3-10.5.1 0 .2-.1.3-.2 0 0 0 .1.1.1 1 1.9 2.2 3.7 3.5 5.4 1.1 1.5 2.1 2.8 3.3 4.1zM163 170.2l-.3.1c-.3-.5-.5-1.1-.6-1.7.1-.2.3-.4.5-.6-.1.9.1 1.6.4 2.2zM162.8 170.7c.1.1.2.2.3.1-1.3.4-2.6 1-3.8 1.8-.1 0-.3 0-.4.2v.5c-.4-.2-.5-.8 0-1 1.2-.6 2.4-1.2 3.8-1.7 0-.1.1 0 .1.1z"/><path class="st0" d="M162.9 167.7c-.1.1-.2.3-.3.4 0-.5 0-1-.1-1.5.1 0 .2 0 .3.1 0 .4 0 .7.1 1zM162.8 178.9c0 .1 0 .3-.1.3l.1-.3zM162.8 178.8c0 .1-.1.1-.1.1v-.1h.1z"/><path class="st6" d="M162.7 179.2c0 1.3.1 2.5.2 3.8-1.2-1.3-2.3-2.7-3.3-4.1-1.4-1.7-2.5-3.5-3.5-5.4l-.1-.1c2.2-1.3 4.2-2.9 6-4.8.1.6.4 1.1.6 1.7-1.3.5-2.6 1.1-3.8 1.7-.3.2-.4.5-.2.8.1.1.1.2.2.2.2 2.1 1.2 5.7 3.4 6.2.3.1.4.1.5 0z"/><path class="st0" d="M162.7 178.9v.3h-.2c-.2 0-.3-.2-.3-.3v-.1c0-.1.1-.2.2-.2l.1-.1.2.3c.1 0 0 .1 0 .1z"/><path class="st0" d="M162.7 179.2c-.1.1-.2.1-.3.1-2.2-.5-3.2-4.1-3.4-6.2.1.1.2.1.3 0 .5 1.9 1.4 4.5 3 5.6 0 .2.1.4.2.4h.1l.1.1z"/><path class="st0" d="M162.6 178.5l-.1.1c-.1 0-.2.1-.2.2-1.5-1.2-2.5-3.8-3-5.6.1 0 .1 0 .2-.1 0 0 .1 0 .1-.1.4 1 .8 2.1 1.3 3.1.5.8 1.1 1.7 1.7 2.4zM161.9 167.9c-.1-.3-.1-.5-.2-.8.1-.1.2-.2.4-.3.1-.1.3-.2.4-.2 0 .4 0 1 .1 1.5-.1.2-.3.4-.5.6-.1-.3-.2-.5-.2-.8z"/><path class="st0" d="M161.9 167.9c.1.3.1.5.2.8-1.8 1.9-3.8 3.5-6 4.8-.2-.2-.5-.2-.6 0-.1.1-.1.2-.1.3v.1c-2.5 1.4-5.1 2.7-7.8 3.8-3.4 1.5-8.1 4-11.9 2.9.2 0 .4-.2.4-.4 4 .6 12-3.5 15.2-5 3.9-1.7 7.5-4.2 10.6-7.3z"/><path class="st0" d="M161.7 167.1c0 .3.1.5.2.8-3 3.1-6.6 5.6-10.6 7.3-3.2 1.4-11.2 5.6-15.2 5v-.2c0-.2-.2-.4-.4-.4-.1 0-.2 0-.3.1v-.1c4.8.5 9.6-2.2 13.8-4.1 4.5-2.1 8.8-4.9 12.5-8.4zM160.2 119.8c.1 2 0 4.2-1.4 5.8-.2.2-.5.2-.7.1-.3-.2-.5-.4-.7-.7 0 0 .1.1.2.1.1.1.2-.1.1-.2l-.1-.1v-.4c.2.3.4.6.8.7 1.9-1.3 1.9-10.4-1.2-9.3-2.4.7-1.3 7.1.1 8.8v.1c0 .1.1.2.1.2-2.5-1.4-3.6-9.8.5-9.6 1.9.2 2.2 3.2 2.3 4.5z"/><path class="st0" d="M157.7 124.5v.4l-.3-.6c.1-.2.3-.3.5-.2.1 0 .1.1.1.1.7.6.8-.3 1-1 .2-.8.3-1.7.3-2.6 0-.8 0-4.8-1.6-4.3-1.9.6-1.3 3.7-1 5.2.2 1 .4 1.9.8 2.8-.1.1-.1.2-.1.3 0 .1 0 .1.1.2-1.5-1.8-2.6-8.1-.2-8.8 3-1.1 3 8 1.2 9.3-.4-.2-.7-.5-.8-.8zM159.3 173.2c-.1.1-.2.1-.3 0v-.4c0-.1.1-.3.3-.2h.1c.1 0 .1.1.1.1l.1.4-.1.1h-.2z"/><path class="st0" d="M159.2 120.5c0 .9-.1 1.7-.3 2.6-.2.8-.3 1.6-1 1-.1-.1-.4-.1-.5 0 0 0-.1 0-.1.1-.4-.9-.6-1.9-.8-2.8-.3-1.5-.8-4.6 1-5.2 1.7-.4 1.7 3.6 1.7 4.3zM158.7 136.5c0 .1.1.2.2.2h-.4c0-.1 0-.2-.1-.3.1.1.2.1.3.1z"/><path class="st0" d="M158.7 136.4h-.3c0-.1-.1-.2-.2-.2h.1c.1 0 .3.1.4.2zM157.7 136.7c0-.1 0-.2.1-.2h.5c.1.1.1.2.1.3-.2-.1-.5-.1-.7-.1z"/><path class="st0" d="M158.4 136.9c-.1.1-.2.2-.4.2h-.1c0-.1-.1-.1-.1-.2v-.2h.7c0 .1-.1.2-.1.2zM158.4 136.5h-.5c.1-.1.2-.2.3-.2l.2.2zM158.3 136.2h-.1.1z"/><path class="st0" d="M157.8 136.5c-.1 0-.1.1-.1.2h-.1c-.2 0-.2-.4.1-.4h.4c-.1 0-.2.1-.3.2z"/><path class="st0" d="M147.5 122.6c-.1-.3-.2-.6-.3-.8.8-1.1 1.7-2.1 2.7-3 .1 0 .1-.1.2-.1.1.2.3.2.5.2.2.2.3.6.1.8h-.1c-1.8 1.6-7.8 9-5.1 11.5 3.6 3.3 7.6 4.4 12.4 5h.1-.4c-.1 0-.2.1-.2.2s0 .1.1.2c-1.5 0-3.1-.2-4.6-.4-3.4-.7-6.5-2.5-8.8-5.1-2-2.3 1-5 2.4-6.9 0 0 0-.1.1-.1.1-.1.1-.2.2-.3.4.1.8-.2.8-.6 0-.1 0-.3-.1-.4.1-.1.1-.2 0-.2z"/><path class="st0" d="M157.8 137.1c-3.3.1-6.7 0-9.6-1.8-1.7-1-4.9-2.8-5.4-4.9s.7-3.8 2.1-5.5c.3-.3.5-.7.8-1.1.1.1.3.2.4.3.1.1.3.1.4 0-1.3 1.9-4.4 4.6-2.4 6.9 2.3 2.6 5.3 4.4 8.8 5.1 1.5.3 3.1.4 4.6.5v.2l.3.3zM157.8 124.9c.1.1 0 .2-.1.2s-.1-.1-.2-.1c0-.1-.1-.2-.1-.2.1.1.2.1.4.1l-.1-.1c0 .1 0 .1.1.1z"/><path class="st0" d="M157.7 124.8v.2c-.1-.1-.2-.2-.3-.2v-.1c0-.1 0-.1-.1-.2 0-.1 0-.2.1-.3l.3.6zM155.8 173.7l-.5.3v-.1c0-.3.2-.5.5-.4.1 0 .2 0 .3.1 0 0-.2 0-.3.1zM150 109.3h.3c0 .5 0 1-.1 1.6 0 .9 0 1.9.1 2.8.2 1.6.5 3.2.7 4.8 0 .2-.1.3-.3.4-.1-.2-.3-.2-.5-.1-.8-1.7-1.2-3.6-1.1-5.5 0-1.1-.1-2.9.6-3.9.1-.2.2-.1.3-.1z"/><path class="st0" d="M150.7 118.9c-.2.1-.4 0-.5-.2.2-.1.4 0 .5.2zM150 109.3l-.3-.1c.1-.1.2-.3.3-.4.1-.1.1-.1.2 0 0 .1.1.3.1.4-.1.1-.2.1-.3.1z"/><path class="st3" d="M150.2 118.7c-.1 0-.2 0-.2.1-1.1.9-2 1.9-2.7 3-1.6-4.3-2.5-8.8-2.6-13.4 1.7.3 3.4.5 5 .9-.7 1-.6 2.8-.6 3.9-.2 1.8.2 3.7 1.1 5.5z"/><path class="st0" d="M147.1 82.9l1-.4-.7.7-.6.3-.3-.3.6-.3zM147.6 122.8c.2.3 0 .8-.3.9-.1.1-.3.1-.4.1.2-.4.5-.7.7-1.1-.1 0 0 0 0 .1zM146.7 122.5c.2-.3.4-.5.5-.8.1.3.2.6.3.8-.2.4-.5.8-.7 1.1h-.2c0-.1 0-.1-.1-.1l-.3-.3c.2-.2.3-.4.5-.7z"/><path class="st0" d="M146.8 83.5l.6-.3-.2.2c-.1.1-.3.2-.4.1zM146.8 123.7c-.1.1-.1.2-.2.3v-.3h.2zM147.2 121.8c-.2.2-.4.5-.5.8-1.5-4.3-3.6-9.7-2.6-14.3.2 0 .4.1.6.1 0 4.5.9 9.1 2.5 13.4z"/><path class="st0" d="M146.7 122.5c-.2.3-.3.5-.5.7-1.6-4.6-4.3-10.3-2.7-15.1.2.1.4.1.6.1-1 4.6 1.1 10 2.6 14.3zM145.9 123.7l.2-.3c.1.2.3.3.5.4v.3l-.1.1c-.1.1-.3.1-.4 0-.1-.1-.3-.2-.4-.3l.2-.2zM146.5 123.5c.1 0 .1.1.1.1-.2-.1-.4-.2-.5-.4.2.2.3.3.4.3z"/><path class="st0" d="M146.2 123.3c0-.1 0-.1 0 0-.1 0-.1 0 0 0zM146.1 123.3l-.2.3c-.7-.5-1.7-1.7-2.2-2.2-1.7-1.7-3.3-3.5-4.8-5.3-1.8-2-3.9-3.6-5.6-5.7-2.5-3.2-4.7-6.7-7.2-10-3-3.8-6.1-7.4-9.1-11.2-1.7-2.2-3.4-4.8-5.5-6.7-.1-.2-.1-.5-.2-.8.1 0 .1.1.2.1 6.6 6.1 12.6 14.2 17.7 21.5 3.1 4.4 6.8 8.1 10.2 12.3 2 2.5 4.1 5.5 6.7 7.7 0-.1 0 0 0 0z"/><path class="st0" d="M145.9 123.7c0 .1-.1.2-.2.2-2.9-2-5-4.9-7.4-7.3-2.9-3-5.8-5.7-8.2-9.1-5.6-8-11.7-16.8-18.5-24-.1-.3-.2-.7-.2-1 2.1 2 3.7 4.6 5.5 6.7 3 3.8 6.2 7.4 9.1 11.2 2.6 3.2 4.7 6.7 7.2 10 1.7 2.1 3.8 3.7 5.6 5.7 1.5 1.9 3.1 3.7 4.8 5.3.6.5 1.6 1.7 2.3 2.3zM144.7 84.6c-.1 0-.2 0-.2-.1.1-.1.2-.2.3-.2.1 0 .2 0 .2.1v.1c-.1 0-.2.1-.3.1.1 0 .1 0 0 0zM144.8 84.6c.1 0 .2-.1.3-.1v.1c-5.7 5.3-5.6 14.6-5 21.8h-.4c-1.4-5.7.1-18.2 5-21.7l.1-.1zM144.1 108.2c-.2 0-.4-.1-.6-.1v-.2c.1-.2.2-.3.4-.4.2 0 .3.1.5.1.1.1.2.3.2.4v.3c-.2 0-.3 0-.5-.1z"/><path class="st0" d="M144.5 84.5c.1.1.1.1.2.1-5 3.5-6.5 16-5 21.7h-.1c-.1 0-.2 0-.3.1-2.4-6.1-.5-18.2 5.2-21.9zM144.4 107.7c-.2 0-.3-.1-.5-.1.2-.1.4 0 .5.1zM143.9 107.5c-.2.1-.3.2-.4.4v.2a15 15 0 0 1-3.6-1.1c.1 0 .2-.1.2-.2v-.2c1.3.5 2.5.8 3.8.9z"/><path class="st0" d="M139.8 106.7l.3.1c0 .1-.1.2-.2.3l-.1-.1-.2-.5c.1-.1.2-.1.3-.1h.1c-.2 0-.2.1-.2.3z"/><path class="st0" d="M140.1 106.3v.4h-.2c0-.1-.1-.3-.1-.4h.3zM139.7 106.9l.1.1s-.1 0-.1-.1zM139.7 106.9l-.2-.1c-.2-.1-.2-.3-.1-.5l.3.6zM135.5 180.1h-.1c0-.1-.1-.3-.1-.4.2-.1.5-.1.6.1.1.1.1.2.1.3v.2c-.2-.1-.3-.1-.5-.2z"/><path class="st0" d="M135.1 180c0-.1.1-.3.2-.3 0 .1.1.3.1.4v.1c.2.2.1 0 .1-.1.2.1.3.1.5.1 0 .2-.2.4-.4.4l-.5-.1c-.1-.2-.3-.3-.4-.5 0-.2.1-.4.3-.4l.1.4z"/><path class="st0" d="M135.2 180.5l.5.1h-.3c-.1 0-.2 0-.2-.1zM135.5 180.1c0 .1.1.3 0 0zM135.3 179.5v.1c-.1.1-.2.2-.2.3v-.5h.2zM135.1 180.5c-.2-.1-.3-.3-.3-.5.1.2.2.3.3.5z"/><path class="st0" d="M110.8 81.8c-.2.1-.3.4-.1.6 0 0 0 .1.1.1l.3.3c2.4 10.6 5 21.1 7.4 31.7 1.5 6.7 3 13.4 4.8 20 1.6 6.1 3.5 12.1 5.1 18.2 1.2 4.7 1.8 9.9 3.3 14.5 1.3 3.8 2.4 7.7 3.5 11.6V179.6c-.2 0-.3.2-.3.4-.4-1.3-.8-2.6-1-4-1.2-4.2-2.9-8.4-3.9-12.6-2-8.9-4.4-17.5-6.8-26.3-5-18.1-8.8-36.7-12.8-55.1-.1-.6.8-.8.9-.2v.2c-.2-.3-.4-.3-.5-.2z"/><path class="st0" d="M135.1 178.8c-1-3.9-2.1-7.8-3.5-11.6-1.6-4.6-2.1-9.7-3.3-14.5-1.5-6.1-3.5-12.1-5.1-18.2-1.8-6.6-3.3-13.4-4.8-20-2.4-10.6-5-21.1-7.4-31.7.2.2.4.4.6.7 4 16.2 7.5 32.5 11.7 48.6 2.1 8.2 4.9 16.3 6.5 24.6 1.3 7.1 5.1 14.9 5.3 22.1z"/><path class="st0" d="M111.4 82.5c.1.3.2.7.2 1-.2-.2-.4-.5-.7-.7-.1-.3-.2-.7-.2-1 .1-.1.3-.1.4 0 .2.2.3.5.3.7z"/><path class="st0" d="M111 82.8l-.3-.3c-.2-.2-.2-.4 0-.6 0 0 0-.1.1-.1.1.3.2.7.2 1z"/><path class="st7" d="M122.8 116.1c-1.5-2.5-4.2-10.5-2.1-12.8 3.2 2.1 4 10.1 3.2 13.4-.8 0-.6-.4-1-1"/><path class="st8" d="M122.8 116.1c-1.5-2.5-4.2-10.5-2.1-12.8 3.2 2.1 4 10.1 3.2 13.4-.8 0-.6-.4-1-1"/><path class="st7" d="M123.2 115.9a31 31 0 0 1-2.1-5.8c-.3-1.2-.5-2.4-.6-3.6 0-.4-.1-3.1.7-2.3 1.8 1.8 2.2 5 2.5 7.4.1 1.1.1 2.1 0 3.2-.1 1.4.2 1.5-.8.8-.1-.1-.2 0-.3 0v.1c0 .9.2 1.4 1.1 1.5.3.1.5-.1.6-.3.8-4.1.3-11-3.3-13.8-.1-.1-.4-.1-.5 0-2.7 3.3 0 10.1 2 13.2.1.2.4.3.6.1s.2-.3.1-.5zM188.3 160.1c-1-1.9.8-10.5 3.6-6.9 1.5 1.9-2.7 6.9-3.4 7.3"/><path class="st8" d="M188.3 160.1c-1-1.9.8-10.5 3.6-6.9 1.5 1.9-2.7 6.9-3.4 7.3"/><path class="st7" d="M188.9 160.1c-.1-1.2-.1-2.4 0-3.6.2-1.1.4-2.9 1.5-3.6.6-.4 1.2.9 1.2 1.3-.1.8-.4 1.6-.9 2.3-.7 1.2-1.6 2.3-2.6 3.3-.3.3-.3.8 0 1.2s.8.3 1.2 0c1.5-1.5 2.6-3.3 3.3-5.3.5-1.6 0-3.6-2-3.8-1.6-.2-2.5 2.4-2.8 3.5-.4 1.3-1.1 4.3.3 5.2.3.3.7-.1.8-.5zM148.9 88.8c-1 0-.8-.8-.2-2.1 1-1.7 5.9-4 7.8-3.2 4.8 1.9-6.7 5.5-7.6 6.1"/><path class="st8" d="M148.9 88.8c-1 0-.8-.8-.2-2.1 1-1.7 5.9-4 7.8-3.2 4.8 1.9-6.7 5.5-7.6 6.1"/><path class="st7" d="M149.1 88.6c-1.7-1.7 3.8-4 4.8-4.3.8-.2 4.2-.4 2.6 1-2.2 1.9-5.3 2.2-7.7 3.6-.3.2-.4.5-.3.8.1-.4.1-.5 0-.4-.2.3-.1.6.2.8.1 0 .2.1.3.1.2 0 .1-.1-.3-.2.2.2.5.3.7.2 1.6-.6 10.7-3.6 8.7-6.4-1.7-2.3-5.6-.6-7.5.5-1.3.6-2.3 1.7-2.9 3.1-.4 1 .2 2.4 1.4 1.7 0-.2.1-.3 0-.5zM174.4 71.6c-2.3-2.3 6.3-5 8.4-3.4-1.5 2.1-5.2 2.9-7.8 3.2"/><path class="st8" d="M174.4 71.6c-2.3-2.3 6.3-5 8.4-3.4-1.5 2.1-5.2 2.9-7.8 3.2"/><path class="st7" d="M174.6 71.5c-1.2-2.7 6.4-4 8-2.9 0-.2-.1-.5-.1-.7-1.8 2.2-5 2.5-7.6 2.9-.6.1-.5 1.1.1 1.1 2.9-.1 6.4-1.1 8.2-3.5.1-.2.1-.5-.2-.6-1.8-1.3-4.9-.4-6.8.4-1.1.5-4 2.2-1.9 3.5.2.1.3-.1.3-.2z"/><path class="st2" d="M161 88.2c-1 2.5-1.6 10.1.7 12.8"/><path class="st8" d="M161 88.2c-1 2.5-1.6 10.1.7 12.8"/><path class="st2" d="M159.8 88.2c-.2 1.2-.4 2.4-.8 3.5-.2 1.4-.2 2.7-.2 4.1.1 2 .4 5.2 2.6 5.9.4.1.8-.1.9-.5v-.2c0-1.9-1-3.8-1-5.8-.1-1.3-.4-5 .6-6.1 1.7-1.9-2.2-3.2-2.1-.9zM170.3 86.7c1.1 4.2-.8 9.7 1.3 13.8"/><path class="st8" d="M170.3 86.7c1.1 4.2-.8 9.7 1.3 13.8"/><path class="st2" d="M169.8 86.4c-.7.9-.5 1.6-.5 2.7 0 1.5-.1 3-.2 4.4-.1 2.5-.3 5.9 1.8 7.6.4.4.9.4 1.3 0 .2-.2.3-.4.2-.6-.1-1.4-.2-2.8-.5-4.2-.1-1.5-.1-3 0-4.5 0-1.8.4-4.6-1.4-5.6-.2-.1-.5 0-.7.2zM183.5 87.7c0 2.7-1.3 9.9.6 12.6"/><path class="st8" d="M183.5 87.7c0 2.7-1.3 9.9.6 12.6"/><path class="st2" d="M182.8 87.1c-1.3 1.5-1.1 5-1.2 6.9-.1 2.3-.4 5.8 2 7.1.5.2 1.1 0 1.3-.4.1-.1.1-.2.1-.4 0-2.3-.6-4.6-.5-7 0-1.8.8-4.7-.4-6.2-.3-.4-.9-.4-1.3 0 .1 0 .1 0 0 0zM171.1 139.8c0 2.9-.2 6.1.8 9"/><path class="st8" d="M171.1 139.8c0 2.9-.2 6.1.8 9"/><path class="st2" d="M170.4 139.6c-.5 3.1-.5 6.7 1 9.5.4.7 1.3.2 1.2-.5-.5-3-.3-6-.8-9-.1-.4-.5-.6-.9-.5-.2.1-.4.3-.5.5zM178 140.2c-.1 2.4-.1 4.8.2 7.1"/><path class="st8" d="M178 140.2c-.1 2.4-.1 4.8.2 7.1"/><path class="st2" d="M177.3 140c-.5 2.4-.9 5.5.3 7.7.2.3.6.5 1 .3.2-.1.3-.2.3-.4.2-1.2.2-2.5.1-3.8 0-1.3-.1-2.5-.3-3.8-.1-.4-.5-.6-.9-.5-.2.1-.4.3-.5.5zM185.6 140c.4 1.5.2 3.8.8 5.4"/><path class="st8" d="M185.6 140c.4 1.5.2 3.8.8 5.4"/><path class="st2" d="M185 139.7c-.7.9-.2 2.8-.2 3.8 0 .8.5 2.8 1.8 2.5 1.1-.3.7-2.1.6-2.8-.2-1.1 0-3.2-1.2-3.7-.4-.2-.8-.1-1 .2z"/><path class="st8" d="M193.3 153.4c-.7 8.3-3.1 16.3-4.9 24.3-.9 3.9-2.1 8.3-2 12.4.1 2.7 1.9 4.4 3.5 6.5s3.3 4 5 5.9 3.3 5 6.2 4.4c3.3-.7 6.7-3.1 9.7-4.6 1.2-.6 4.2-1.8 5.1-2.7 1.1-1.2 1.2-4.7 1.5-6.3 1-5 1.8-10 2.2-15 .3-3.3.8-6.6 1.5-9.9.4-1.6 2.8-6.3 1.8-7.9s-6.8-1.9-8.6-2.2c-2.7-.6-5.5-.9-8.2-1.3-4.3-.6-8.4-1.6-12.5-2.9"/><path class="st2" d="M192.8 153.2c-1.6 8.8-3.7 17.5-5.8 26.2-1.4 5.9-3 11.3 1 16.4 2.3 3 4.9 5.8 7.3 8.7 1 1.2 2.5 3.4 4.4 3.4 3.1 0 5.5-1.3 8.2-2.7s6.9-2.8 9.1-5c1.1-1.1 1.3-3.1 1.5-4.6.5-4.3 1.5-8.6 2.1-12.9.6-4.1.9-8.2 1.6-12.2.5-2.8 2.2-5.4 2.4-8.2.4-4-3.1-4.4-6.4-5-8.2-1.3-16.2-2.5-24.2-4.3-.6 0-1.1.4-1.1 1 0 .4.2.8.6 1 4.8 1.8 9.8 2.9 14.9 3.5 1.9.2 14.3.7 13.3 4.8-2.5 10.1-4 20.3-5.5 30.7-.9 6-4.8 6.6-9.6 9.3-4.3 2.4-7.9 1.9-10.8-1.6-2.4-2.9-5-5.6-7.2-8.6-3.5-4.6 1.2-16.4 2.4-21.6 1.4-5.9 2.8-11.9 2.9-18 0-.8-1-.9-1.1-.3z"/><path class="st8" d="M190.4 174c2.9.6 10.1.8 14.3 1.7 4.2.6 9 2.3 13.2 2.5"/><path class="st2" d="M190.1 175.2c4.2.8 8.6 1 12.9 1.6 5 .7 9.9 2.9 14.9 2.5.6 0 1.1-.5 1.1-1.2 0-.5-.3-.9-.8-1.1-9.1-2.5-18.2-2.9-27.4-4.3-1.7-.2-2.4 2.2-.7 2.5z"/><path class="st8" d="M205.7 157.6c.1 8.6-.3 17.2-1.3 25.8-.8 5-1 10.1-1.7 15.1-.4 2.5-1.5 6.1-1.3 8"/><path class="st2" d="M204.9 157.6c-.9 9.3-.7 18.7-2.1 28-.5 3.4-.7 7-1.1 10.4s-1.6 6.9-1.5 10.5c0 .7.6 1.3 1.3 1.3.7 0 1.3-.6 1.3-1.3.4-7.6 2.1-15.5 3-23.1 1.1-8.6 1.3-17.2.7-25.8 0-.4-.3-.8-.8-.8-.4.1-.7.4-.8.8.1 0 .1 0 0 0z"/><path class="st8" d="M134 113.8c0 6.9-1.9 14.3-7.1 19.1"/><path class="st6" d="M133.5 113.8c-.3 6.9-2.8 13.5-7 18.9-.2.3.2.7.5.5 5.8-4.2 7.7-12.7 7.4-19.4 0-.3-.2-.5-.5-.5-.2 0-.4.2-.4.5z"/><path class="st8" d="M136.3 123.4c-.8 3.8-1.7 8.2-4.6 10.7"/><path class="st6" d="M135.9 123.3c-.7 1.8-1 3.7-1.7 5.4-.7 1.8-1.7 3.6-2.9 5.2-.2.3.2.7.5.5 3.5-2 4.6-7.3 4.8-11 0-.2-.2-.4-.4-.4-.1 0-.3.1-.3.3z"/><path class="st8" d="M146.6 135.6c-.8 8.4-6.7 19.9-13.9 24.8"/><path class="st6" d="M146.1 135.5c-1.6 9.2-6.1 18.6-13.8 24.2-.8.6 0 2 .8 1.4 7.8-5.6 13.1-16 13.9-25.4 0-.6-.8-.7-.9-.2z"/><path class="st8" d="M157.5 138.3c-4.2 13.6-10.5 24.1-21.2 33.8"/><path class="st6" d="M157 138.2c-5.1 12.9-11.2 23.6-21.3 33.3-.8.8.4 1.9 1.2 1.2 10.3-9 17.7-21 21.1-34.2.1-.3-.1-.6-.4-.6-.2-.2-.5 0-.6.3z"/><path class="st8" d="M153.3 157.4c-1.5 3.4-3.8 7.1-6.9 9.4"/><path class="st6" d="M152.9 157.2c-1.1 1.6-2 3.3-3.1 4.9s-3.1 2.8-3.8 4.5c-.1.2 0 .6.2.7h.4c1.9-.3 3.3-2.5 4.3-3.9 1.3-1.8 2.3-3.8 2.9-5.9.1-.2-.1-.5-.3-.5-.3-.1-.5-.1-.6.2z"/><path class="st8" d="M200.7 67.4c-4.6 2.8-8 7.3-9.2 12.6"/><path class="st6" d="M200.5 67.1c-4.5 2.6-8.7 7.5-9.4 12.8-.1.2.1.4.3.5.2.1.4-.1.5-.3 2-5.1 4.2-9.4 9-12.4.2-.1.2-.3.1-.5-.2-.2-.4-.2-.5-.1z"/><path class="st8" d="M208.4 70.3c.2 6.1-1.5 11.5-2.5 17.4"/><path class="st6" d="M208 70.3c-.3 6-1.9 11.5-2.6 17.4-.1.5.8.6.9.1 1.5-5.6 2.9-11.8 2.5-17.5 0-.2-.3-.4-.5-.4-.1.1-.3.3-.3.4z"/><path class="st8" d="M217.4 75.6c3.4 6.5 3.4 14.5 2.7 21.6"/><path class="st6" d="M217.1 75.7c3 7.2 2.5 14 2.5 21.5 0 .6.9.7 1 .1 1.2-7.1.5-15.5-2.9-21.9-.2-.3-.8-.1-.6.3z"/><path class="st8" d="M169.1 156.7c-.4 2.3-1.1 5.9.2 7.6"/><path class="st6" d="M168.7 156.5c-.5 2.3-1.6 5.9.4 7.8.1.1.5 0 .4-.2-1-2.3-.4-5.1-.1-7.5 0-.2-.1-.3-.3-.3-.2 0-.3.1-.4.2z"/><path class="st8" d="M173.6 159.9c0 1.4 0 2.8.2 4.2"/><path class="st6" d="M172.3 159.9c.1 1.5.1 3.3 1.2 4.4.1.1.3.1.5 0l.1-.1c.8-1.2.6-3 .8-4.3.1-1.7-2.7-1.7-2.6 0z"/><path class="st8" d="M179.3 158.2c.2 2 0 4.1-.4 6.1"/><path class="st6" d="M178.3 158.2c.1 1 .1 2 0 3-.2 1-.2 2.1.1 3.1.1.2.3.4.5.3.1 0 .1-.1.2-.1 1.4-1.5 1.2-4.5 1-6.4 0-1.2-1.9-1.2-1.8.1z"/><path class="st8" d="M167.7 181.7c-.8 3.4 1.3 9.7 3.2 12.7"/><path class="st6" d="M167.3 181.5c-1.3 4 .9 9.8 3.2 13.1.1.2.5.3.7.2s.3-.5.2-.7c-2.1-3.8-3.2-8.1-3.2-12.4 0-.3-.2-.5-.5-.5-.2 0-.4.1-.4.3z"/><path class="st8" d="M172.8 183.7c.6 1.9.8 3.8 1.7 5.7"/><path class="st6" d="M172 184c.6 2 .8 4.2 2.3 5.7.1.1.4.2.5 0 .1-.1.1-.2.1-.2-.3-2-.7-4-1.2-5.9-.1-.5-.6-.8-1-.7-.5.1-.8.6-.7 1v.1z"/></g><path class="st7" d="M143.3 37.9c-.5-.4-.9-.9-1.3-1.5-.4-.7-.9-1.2-1.5-1.5l-2-1c-3-3.4-5.6-7-7.9-10.9-2.3-3.9-5.3-7.2-9-10v-.6l1-.2c2.1 1.9 4.1 3.8 6 5.8 1.9 2 3.6 4.3 5 6.8l2.4 3.8c.7.6 1.3 1.2 2 1.9.6.7 1.2 1.4 1.6 2.2v.3c.6.2 1.2.5 1.8.8.6.3 1.1.8 1.6 1.3l.5 1.3.6.2.1.8-.9.5zM154 35.4c-.5-.2-1-.3-1.5-.5s-.9-.6-1.3-1.1c-.5-1-.9-2.1-1.1-3.2-.2-1.2-.2-2.4-.1-3.6.3-1.1.7-2.2 1.3-3.3.6-1.1 1.2-2 2.1-2.9.7-.5 1.3-.9 2-1.3s1.5-.5 2.4-.2l1 1.6c.6.5 1.1 1 1.4 1.7.4.7.7 1.3.9 2 .2.9.3 1.8.3 2.7-.1.9-.2 1.9-.2 2.8-.3.8-.6 1.6-1.1 2.3-.5.7-1.1 1.3-1.9 1.9-.7.4-1.3.7-1.9 1.1-.7.2-1.5.3-2.3 0zm1.5-1.5c.7-.3 1.3-.6 1.8-1.1.6-.5 1.1-1 1.7-1.6.4-.7.6-1.5.7-2.4.1-.9.1-1.8.2-2.7 0-.7-.3-1.4-.7-2.1-.4-.7-.9-1.3-1.3-2l-1.9-1.4c-.9.5-1.6 1-2.2 1.7-.6.7-1.1 1.4-1.6 2.2-.3.6-.5 1.2-.6 1.8-.1.6-.2 1.2-.3 1.9 0 .9.1 1.9.2 2.8.1.9.5 1.7 1.2 2.4l2.6.7.2-.2zM164.8 36.4l-.2-1 .7-3.2-.1-.8.2-.2.7-9.2-.3-2.5 1-.2c.3.4.5.9.5 1.4.1.5.1 1 .2 1.5l-.6 7.8h.5c1.6-1 3.2-2.2 4.6-3.5 1.4-1.3 2.7-2.7 3.9-4.2l.4-.8.8-.1.2 1c-.9 1.6-2.1 3.1-3.7 4.4-1.6 1.3-2.7 2.8-3.3 4.5.3.8.8 1.5 1.3 2.2.5.7 1.1 1.4 1.8 2l.5.2.1.9-1 .2c-1-.6-1.8-1.4-2.5-2.4s-1.2-2-1.6-3.1v-.5h-.3l-1.7 1c-.2.7-.3 1.5-.4 2.3-.1.8-.4 1.5-.9 2.1l-.8.2zM199.5 39.5l-.4-.7.6-7-.1-.2.5-6.4-.1-.8c-.9-.2-1.9-.4-2.8-.5-.9-.2-1.8-.6-2.6-1.1l-.1-.8 1-.2c1.6.7 3.3 1.2 5.1 1.5 1.8.4 3.7.6 5.7.6l1.1-.2.2 1.1c-.9.5-1.9.6-2.9.5-1.1-.1-2.2-.2-3.2-.3l-.5 6.7.2.2-.6 7.5-1.1.1zM215.1 40.1l-1.8-.6c-.6-.3-1-.7-1.4-1.2-.3-.3-.4-.7-.4-1.2s.1-1 .1-1.5l2.7-4c.3-.3.7-.4 1.1-.5h1.4c.7 1 1.2 2.1 1.6 3.2.4 1.1.5 2.4.2 3.7-.1.3-.3.6-.6 1-.2.4-.5.6-.8.8-.3.2-.7.3-1.1.3-.2.1-.5.1-1 0zm1.4-1.4c.5-.3.8-.7.9-1.3 0-.6.1-1.2.1-1.7l-.9-2.4-.6-.1-1.3.2c-.5.6-.9 1.2-1.2 1.8s-.5 1.3-.5 2.2c.4.5.9.9 1.5 1.1.6.2 1.2.3 1.8.4l.2-.2zM227.3 41.4l-2.5-1.8c-.4-.5-.6-1-.7-1.6-.1-.6-.1-1.2.1-1.8l1.3-1.8c.7-.6 1.4-.9 2.2-.9.8 0 1.6 0 2.4.2l1.8.8c.1-1.5.3-2.9.7-4.4s.8-2.8 1.4-4l.8-.1c.2.2.3.5.3.7s0 .5-.1.7c-.8 1.6-1.2 3.4-1.4 5.2-.2 1.9-.5 3.7-.9 5.6l.4 1.1c.3.2.6.5.8.7.2.2.6.3 1 .2l.8-.1.2 1c-.2.3-.5.5-.8.5H234l-1.5-.7-.4.4h-.6l-1.1-.4c-.4.2-.9.3-1.4.4s-1.1.3-1.7.1zm3.2-1.8c.5-.5.8-1.1.9-1.8.1-.7.2-1.3.2-1.9-.6-.3-1.3-.5-2-.7s-1.5-.3-2.3-.2c-.3.2-.7.3-1 .5-.3.2-.6.5-.7.9l-.1 1.6 1.4 1.7 2 .5 1.6-.6zM248.3 43l-1.2-.9-.4-.8h-.3c-.7.4-1.4.5-2.3.5-.8 0-1.7 0-2.5-.1l-1.1-.7c-.3-.3-.5-.7-.5-1.1-.1-.4 0-.9.1-1.4l1.3-2.4c.8-.7 1.7-1.3 2.6-1.8.9-.5 2-.6 3.1-.2l1 .9c.4.7.5 1.4.4 2.1-.1.8-.2 1.5-.3 2.3l-.4 1.5.5.8 1.4.3.1.8c-.2.2-.5.3-.7.3-.2-.1-.5-.1-.8-.1zm-2.9-2.7c.9-.5 1.4-1.1 1.5-1.9.1-.8.2-1.7.3-2.5-.3-.3-.6-.5-1-.5s-.8-.1-1.2-.1l-3 2.4-.5 2.2c.2.3.5.5.9.5s.8.1 1.2.1l1.8-.2zM257 46.1l-.2-1.1 2.1-2.4c-.7-1-1.2-2.1-1.6-3.2-.4-1.1-.6-2.3-.8-3.4l.5-.6h.6c.1 1.1.4 2.1.7 3.1.3 1 .8 2 1.3 2.9l.6.2 2.2-3.4.8-.1.2 1c-.6 1.3-1.4 2.5-2.4 3.7-1 1.1-2.1 2.2-3.3 3.3h-.7zM281.3 40.1l-.6-1.6c.3-.7.4-1.5.5-2.3.1-.8.1-1.7.2-2.5l-.3-2.7.5-.6.6.1c.2 1.1.4 2.2.4 3.4.1 1.2 0 2.4-.2 3.7l-.3 1.6.1.8-.9.1zm.3 6l-.6-.3-.2-1.9 1-1.3.6.1.2 1 .5.2.2 1.6-1 .9-.7-.3zM300.7 51.2l-.2-1.1c2-1.3 3.8-2.8 5.5-4.4 1.7-1.6 3.3-3.4 4.7-5.1 1.4-2.6 3.3-5 5.7-7 2.4-2.1 4.7-4.2 6.7-6.5l.8-.1.2 1c-3.9 3.2-7.4 6.8-10.4 10.8-3 4-6.4 7.6-10.2 11-.5.3-.9.6-1.4 1-.4.3-.9.4-1.4.4z"/></g></svg>