<svg id="レイヤー_1" xmlns="http://www.w3.org/2000/svg" viewBox="0 0 347.6 266.6"><style>.st0{fill:#78573f}.st3{fill:#3a7035}.st4{fill:#d06b36}.st5{fill:#e7ac55}.st7{fill:#994f3f}.st9{fill:#523a20}.st10{fill:#e8d8cd}.st11{fill:#1d3033;stroke:#1d3033;stroke-width:.66;stroke-linecap:round;stroke-linejoin:round}.st12{fill:#818e30}.st13{fill:#74b65f}.st15{fill:#fff}.st16{fill:#dadada}.st17{fill:#2e5731}.st18{fill:#f7e5d7}.st19{fill:#e98d4b}.st21{fill:#ec7b7b}.st22{fill:#f9cfb3}.st23{fill:none}.st24{fill:#f2ede4;stroke:#5b4731;stroke-width:1.4173;stroke-miterlimit:10}.st26{fill:#afa850}</style><path class="st0" d="M191.3 254.4l14.8-1.7-11.6-87.7 30.5-62.5-6.6-2.9-35.3 63.1z"/><path class="st0" d="M190.2 151.9l9.2-5.7-7.9-47-6.3 1.7zM214.5 172.1l3.5 7.1 40.4-5.2-.7-4.7zM165.1 203.3l5.2-5.4-18.7-26.9-4.1 2.4zM186.6 172l6.8-7.5-46.6-30.7-1.4 5.5z"/><path class="st0" d="M196.1 202.8l54.3-49.1-3.9-6.9-55.9 43.7zM192.5 218l6.2-13.6-64.4-21.8.8 7.7z"/><path d="M228.4 128.9c3.9-1.9 5.6-6.4 3.8-9.9-1.8-3.6-6.1-5.1-10.2-3-5.6 2.8-7.4 10.5-6.9 11.5s7.7 4.2 13.3 1.4z" fill="#8e9e4f"/><path d="M177.4 138.4c1-4.2-1.3-8.4-5.1-9.3-3.9-1-7.8 1.3-8.9 5.8-1.5 6 3.2 12.4 4.3 12.7 1.1.3 8.2-3.2 9.7-9.2z" fill="#7a782d"/><path class="st3" d="M240 190.6c2.8 3.3 7.5 3.9 10.6 1.4 3.1-2.6 3.5-7.1.6-10.6-4-4.8-11.9-4.8-12.8-4-1 .7-2.4 8.5 1.6 13.2zM137.2 200c-3.2 3-3.5 7.7-.8 10.6 2.7 2.9 7.3 3.1 10.6-.1 4.5-4.3 4.1-12.1 3.3-13-.7-.8-8.6-1.8-13.1 2.5z"/><path class="st4" d="M180.5 99.6c-2.7-3.4-7.4-4.1-10.5-1.6-3.1 2.5-3.7 7-.8 10.6 3.9 4.9 11.8 5.1 12.7 4.3.9-.6 2.5-8.4-1.4-13.3z"/><path class="st5" d="M216.2 97.5c-.9-4.2-4.8-7-8.7-6.2-3.9.8-6.4 4.6-5.5 9.1 1.3 6.1 8.3 9.8 9.4 9.6 1.1-.2 6-6.4 4.8-12.5zM141.6 145.1c-4.1 1.5-6.3 5.7-4.9 9.4 1.3 3.8 5.4 5.7 9.8 4.2 5.9-2.1 8.6-9.5 8.2-10.6-.5-1.1-7.3-5.1-13.1-3z"/><path d="M170.9 174.8c.2-4.3-2.9-8-6.9-8.1-4-.2-7.4 2.8-7.6 7.5-.3 6.2 5.5 11.6 6.7 11.6 1.2 0 7.5-4.8 7.8-11z" fill="#ae2024"/><g><path class="st7" d="M208.1 61l-15.5 8.6-6.1-25.9 17.6-2.3zM305.6 249.1h-111L189 82.5l61.1-52.7 62.5 58.3z"/><path fill="#533a20" d="M169.3 119.9l-16.1-16.4 93.9-92.3 96.8 89.3-15.5 16.8-80.8-74.5z"/><path class="st9" d="M188.2 91.1h125.9v9.2H188.2z"/><path class="st9" d="M243 33.8h7.6v59.5H243z"/><path transform="rotate(-42.954 232.075 79.052)" class="st9" d="M228.3 58.9h7.6v40.3h-7.6z"/><path transform="rotate(-48.576 266.171 75.49)" class="st9" d="M243.1 71.7h46.1v7.6h-46.1z"/><path class="st9" d="M225.3 106.1l46.6 1.3-2.1 47.9-42.3 2.1z"/><path class="st10" d="M229.6 110.4l38 1.1-1.8 39.8-34.3 1.8z"/><path class="st9" d="M260.7 125.3l-12.3-.2.2-9.6 12.5.1zM260.2 136.5h-11.6v-9.8l12.1.1zM246 125.1l-11.4.2-.3-10.4 11.9.6-.2 9.6zm.3 1.6h-11.6v9.8h11.6v-9.8zm.5 11.6h-11.5l.1 10.1 10.8-.2.6-9.9zm13.4.2l-11.6-.1v9.9l12-.1-.4-9.7z"/><path class="st4" d="M248.7 249.1h-31.2l-2.4-52.5 34.5 1.2z"/><path class="st9" d="M205.4 41.4L184 47.2l-1.6-9.2 21.8-3.2zM243.8 201.7l-29-5.4 2 52.8 24.7 9.8z"/><g><path class="st9" d="M265.7 229.5l-1.8-57.4 37.6-1-1.4 58.4z"/><path class="st10" d="M268.2 176.1l29-.8-1.1 50h-26.4z"/></g><g><path class="st0" d="M269.9 183.2l.3-3.4c7.9-.1 18.1-1.9 26-2l-.4 3.7c-7.9.2-18 1.6-25.9 1.7zM270.8 188.2l1.5-3.1c7.9.2 16-.7 23.8-.5l-.1 3.8c-7.9-.2-17.4 0-25.2-.2zM270.6 194.4l.2-3.6c7.9 0 16.5.2 24.4.2l-.1 3.2c-7.9-.1-16.6.2-24.5.2zM270.7 200.7l1-3.6c8.1 0 15.8.1 23.9 0l.2 3.4c-8 .1-17.1.2-25.1.2zM270.6 208.4l-.1-3.7c7.9-.2 16.7.3 24.6.1l-.2 3.4c-8.1.3-16.4 0-24.3.2zM271.1 214.6l-.1-3.4c8-.2 15 .2 23 0l.4 3.2c-8 .1-15.4-.1-23.3.2zM271 221.8l-.1-3.4c8-.2 16.3.1 24.2-.2l-.3 3.4c-7.9.2-15.9 0-23.8.2z"/></g></g><g><g id="レイヤー_3"><path class="st11" d="M92 198.7v-.1c-.1 0-.1.1-.1.1-.2-.1-.4-.1-.6-.1v.6c-.1 0-.1.1-.2.2h.2c0 1.7-.1 3.4-.3 5.1l-.6-.6c.2-1.7.2-3.5.1-5.2 0-.4.3-.7.7-.7 2 .2 4.2 1.4 4.7 3.5.5 2-.7 3.5-2.7 3.8-.1 0-.3 0-.3-.2 0-.1 0-.2.1-.3 1.2-.9 2.3-2.1 1.2-3.6-.6-.8-1.4-1.3-2.3-1.6.1-.4.1-.7.1-.9zM86.3 174.7c4.8-.8 8.4 2.6 8.2 7.4-.2 4-4.5 7.6-8.4 8.1 0-.2 0-.3-.1-.4.7-.1 1.4-.3 2-.6l.2.1c.1.1.2 0 .3-.1v-.2-.1c.7-.3 1.4-.7 2-1.2h.3c.1 0 .1-.1.1-.1v-.1c1.1-.8 2-1.9 2.6-3.1 2.1-4.9-1.5-10.3-7-9.1 2 3.6-4 6.6-5.2 9.6-.7 1.9 1 4.3 3 5.1v.2l-.2.3c-1-.3-1.9-1-2.6-1.8 0-.1.1-.2.1-.3.1-.1 0-.3-.1-.4-.1-.1-.3 0-.4.1v.1c-.6-.8-.8-1.8-.6-2.8.9-3.5 7.1-5.9 5.4-9.9 0-.5.1-.8.4-.8z"/><path class="st11" d="M86.4 175.1c5.5-1.3 9.1 4.3 7 9.1-.6 1.2-1.5 2.3-2.6 3.1 0-.2 0-.3-.1-.4.7-.5 1.2-1.1 1.7-1.8.2 0 .4-.2.4-.4v-.2c.6-1 .8-2.1.8-3.2-.1-2.1-1-4.4-3-5.3-.2-.1-3.5-1-3.4-.4.1.2.1.5.1.7 0 1.9-1.1 3.4-2.4 4.7-1 1-2.3 2.1-2.9 3.4-1.1 2.4 1 4.1 2.9 4.8h-.2c-.2 0-.4.2-.4.4-2-.7-3.8-3.2-3-5.1 1.1-2.8 7-5.7 5.1-9.4z"/><path class="st12" d="M93.6 181.3c.1 1.1-.2 2.3-.8 3.2 0 0 0-.1-.1-.1-.2-.2-.4-.4-.7-.6-.3-.3-.5-.5-.8-.7-.1-.1-.3-.1-.4.1 0 .1-.1.2 0 .3.1.7 1 1.2 1.4 1.6.1.1.2.1.3.1-.5.7-1.1 1.3-1.7 1.8v-.1c-.1-.2-.7-.6-.7-.9 0-.4-.3-.8-.7-.8-.4 0-.8.3-.8.7 0 .4.2.7.6.8.3.1.5.5.8.7l.2.1c-.6.4-1.2.7-1.8.9-.1-.2-.3-.5-.4-.8-.1-.2-.4-.2-.6-.1-.2.1-.2.4-.1.6.1.2.3.4.5.6-.8.3-1.7.5-2.6.5-1.9-.8-4-2.4-2.9-4.8.6-1.3 2-2.4 2.9-3.4 1.3-1.3 2.4-2.8 2.4-4.7 0-.2-.1-.5-.1-.7-.1-.6 3.2.3 3.4.4 1.6.9 2.5 3.2 2.7 5.3z"/><path class="st11" d="M92.8 184.5c.1.2 0 .5-.2.6h-.2c.1-.1.3-.4.4-.6z"/><path class="st11" d="M92.7 184.4l.1.1c-.1.2-.2.4-.4.6-.1 0-.2-.1-.3-.1-.5-.4-1.3-.9-1.4-1.6 0-.2.1-.3.2-.4h.3c.3.2.6.5.8.7l.7.7zM92 198.5v.1h-.1l.1-.1zM92 198.7v.8c-.2-.1-.5-.1-.7-.2v-.2c.2-.2.4-.3.6-.4 0-.1 0 0 .1 0zM90.7 247.7c.2-.6.4-1.2.5-1.8v-.1c.1-.2.2-.3.2-.5h.2l-.1-.1v-.2h-.2l-.1-.1v.2c-.3.1-.6.2-.8.3h-.1c-1.2.4-2.3.8-3.4 1.3v-.1c1.6-.6 3-1.4 4.6-1.8.2 0 .3 0 .4.2v.2c-.2.9-1.1 1.8-.8 2.7.1.2-.2.3-.3.2 0 0-.1 0-.1-.1v-.3zM91.8 198.6c-.2.1-.4.3-.6.4v-.6c.2.1.4.2.6.2z"/><path class="st11" d="M91.6 245.2h-.2v-.2c.2.1.2.2.2.2zM91.6 244.9v.2l-.1-.1c-.1 0 0 0 .1-.1z"/><path class="st11" d="M91.4 245l.1.1v.2c-.1 0-.2.1-.4.1 0-.1.1-.2.1-.3l.2-.1zM91.3 199.3c.2 0 .5.1.7.2 0 2-.2 4-.6 6-.1-.4-.2-.7-.4-1 .2-1.8.3-3.5.3-5.2z"/><path class="st11" d="M91.1 245.4c.1 0 .2-.1.4-.1-.1.2-.2.4-.2.5 0-.2-.1-.3-.2-.4zM91.4 245h-.2v-.2c.1.1.2.1.2.2zM91.3 205.5c.2.9 0 1.9-.7 2.7-.4.4-.9.6-1.4.8.1-.1.2-.3.2-.4.9-.3 1.5-1 1.5-1.9.2-.5.3-.9.4-1.2 0-.1 0 0 0 0z"/><path class="st11" d="M91.3 205.4c-.1.4-.2.7-.3 1.1.1-.5 0-1-.2-1.4 0-.2.1-.5.1-.7.2.3.4.7.4 1zM91.1 245.4c.1.1.1.3.1.4v.1c-.4.7-.8 1.3-.5 1.8 0 .1 0 .1-.1.2-.1-.1-.2-.2-.2-.3.1-.5.2-.9.3-1.4h.2s-.1-.1-.2-.1c.2-.3.3-.5.4-.7zM91.3 199.1v.2h-.2c0-.1.1-.2.2-.2zM91.2 245c0 .1-.1.2-.1.3-.1-.1-.3-.1-.5-.1-.1 0-.2 0-.2.1.3-.1.5-.2.8-.3zM91.1 245.4s0-.1 0 0c0-.1 0-.1 0 0z"/><path class="st11" d="M91.1 245.3c-1.5.5-2.8 1.2-4.3 1.7v-.3c1.2-.4 2.3-1 3.5-1.5h.1c.1 0 .2-.1.2-.1.2.1.4.1.5.2zM90.7 206.3c.1-.4.1-.8.2-1.2.2.4.2.9.2 1.4-.1.2-.2.3-.4.2-.1-.1 0-.2 0-.4z"/><path class="st11" d="M91 206.6c-.1.9-.7 1.6-1.5 1.9v-.2-.1c.2-.1.3-.1.4-.2.4-.3.7-.6.8-1.1l.3-.3z"/><path class="st13" d="M91.1 245.4l-.3.6v-.3c-.1 0-.3 0-.4.1l-.1-.1v.1c-1.2.3-2.3 1.1-3.5 1.4v-.1c1.5-.5 2.8-1.3 4.3-1.7z"/><path class="st11" d="M90.9 204.4c0 .2-.1.5-.1.7-.1-.3-.3-.6-.5-.8v-.5c.2.1.4.3.6.6zM90.9 246.1h-.2v-.2c.1.2.2.2.2.2zM91.2 245.9c-.1.6-.3 1.2-.5 1.8-.3-.5.2-1.2.5-1.8z"/><path class="st11" d="M90.8 205.1c0 .4-.1.8-.2 1.2 0-.5-.1-.9-.4-1.3v-.7c.3.2.5.5.6.8zM90.8 187.3v.1c0 .1 0 .1-.1.1h-.3c.1-.1.2-.1.2-.2.1.1.2.1.2 0z"/><path class="st11" d="M90.8 187.3s-.1.1-.2.1l-.3-.3c.1-.1.3-.2.4-.3.1.2.1.4.1.5z"/><path class="st13" d="M90.8 245.7v.3l-.3-.2c.1-.1.2-.1.3-.1z"/><path class="st11" d="M90.7 246c.1 0 .1 0 0 0zM90.8 246v.2h-.1c0-.1 0-.2.1-.2z"/><path class="st13" d="M90.7 246c0 .1-.1.1-.1.2l-.4.1v-.6h.1l.4.3z"/><path class="st11" d="M90.7 246.2c-.1.5-.1.9-.3 1.4-.1-.5 0-1 .3-1.4zM90.3 187.2c-.1.1-.3.2-.4.3l-.2-.1c-.3-.2-.5-.6-.8-.7-.4-.1-.6-.5-.5-.9.1-.4.5-.6.9-.5.3.1.6.4.6.7 0 .3.6.7.7.9v.1s-.1.1-.3.2zM90.7 206.2c0 .2 0 .4-.1.6-.2 0-.3-.2-.3-.3V205c.2.3.4.8.4 1.2z"/><path class="st11" d="M90.3 187.2l.3.3c-.1.1-.2.1-.2.2-.2 0-.3-.1-.5-.2.2-.1.3-.2.4-.3z"/><path class="st13" d="M90.5 247.6c0 .1.1.2.2.3-.7 2-2.1 3.4-4.6 3.6-2.7.2-6.8.9-9.4-.6h.6c2 .7 5.6.3 7.3.3 3.2 0 5.1-1.1 5.9-3.6z"/><path class="st13" d="M90.5 247.6c-.8 2.5-2.7 3.6-5.8 3.6-1.7 0-5.3.3-7.3-.3l.9-.1c1.8.4 4.1.1 5.8.1 3.3-.1 5.8-1.2 6.2-4.5l.4-.1c-.4.3-.4.8-.2 1.3zM90.3 245.7s.1 0 0 0c.1 0 0 0 0 0z"/><path class="st11" d="M90.4 203.8v.5c-.7-.8-1.7-1.1-2.7-1-4.3.3-3 5.4.2 5.3 0 .1 0 .2.1.3.4.2.9.3 1.4.1-.2.3-.7.4-1 .2-.5-.3-1.1-.1-1.6-.3-.4-.2-.9-.4-1.2-.7-1.5-1.5-1.4-4 .6-4.9 1.3-.7 3-.5 4.2.5z"/><path class="st11" d="M90.3 206.5c0 .2.1.3.3.3-.1.4-.4.8-.8 1.1-.1.1-.3.2-.4.2-.2-.4-.6-.6-1-.4-.2.1-.4.3-.4.5-.1.3-1.6-.5-1.7-.7-.4-.4-.7-.9-.8-1.5-.3-1.6 1.4-2.4 2.7-2.4.9 0 1.8.5 2.2 1.3-.1.6-.1 1.1-.1 1.6z"/><path class="st11" d="M90.3 204.3v.7c-.4-.8-1.3-1.3-2.2-1.3-1.3 0-3 .7-2.7 2.4.1.6.4 1.1.8 1.5.1.1 1.7 1 1.7.7.1-.4.5-.6.9-.5.2.1.4.2.5.4-.5.1-1 .2-1.5.4l-.1.1c-3.2.1-4.5-5-.2-5.3 1.2-.3 2.2.1 2.8.9z"/><path class="st13" d="M90.3 245.8v.6c-1.3.4-2.5 1.2-3.9 1.5-.3 0-.6-.1-.6-.4v-.2c.1-.8.3-1.6.6-2.4.3-.4.6-.7.9-1.1-.4.9-.7 1.9-.9 2.9v.1h-.2l.1.1v.4c.1 0 .3 0 .4-.1 0 0 .1 0 .1.1v-.1c1.2-.3 2.3-1.2 3.5-1.4z"/><path class="st11" d="M89.9 187.5c.1.1.3.1.5.2-.6.5-1.3.9-2 1.2-.1-.2-.1-.3-.2-.4.5-.3 1.1-.6 1.7-1zM89.5 208.5c-.5.2-1 .2-1.5.2l.7-.2c-.3.1-.6.1-.9.1 0 0 0-.1.1-.1.5-.2 1-.3 1.5-.4v.1c0 .1.1.2.1.3z"/><path class="st11" d="M89.5 208.5c0 .2-.1.3-.2.4-.5.2-1 .1-1.4-.1-.1-.1-.1-.2-.1-.3.3 0 .6-.1.9-.1l-.7.2c.5.1 1 0 1.5-.1z"/><path d="M90.3 246.3c-.4 3.3-2.9 4.4-6.2 4.5-1.8 0-4 .4-5.8-.1 1.4-.1 2.8-.4 3.9-1.2 1.7-1.3 2.9-3.1 4.2-4.8-.3.8-.5 1.6-.6 2.4-.1.3.1.6.4.6h.2c1.4-.2 2.5-.9 3.9-1.4z" fill="#77be61"/><path class="st11" d="M88.7 241.4c.2 1.9-1.2 3.4-1.8 5.1.1-.5.3-1.1.4-1.6.6-1.2 1.4-2.3 1.2-3.5-.3.1-.6.3-.9.5l-.2.1c-2.1 1.3-3.9 3.6-5.1 5.7 0-.1-.1-.3-.2-.4.7-1.2 1.5-2.4 2.6-3.4s2.4-1.8 3.7-2.6c.2-.1.3 0 .3.1z"/><path class="st11" d="M88.6 241.4c.2 1.2-.6 2.3-1.2 3.5.2-.5.4-1 .5-1.4.1-.1.2-.3.2-.5 0-.1.1-.1.1-.2v-.1c0-.1.1-.2.1-.3.1-.1.1-.2 0-.3 0 0 0-.1-.1-.1-.1-.1-.3-.2-.5-.1.3-.2.6-.4.9-.5zM88.1 189l.2-.1v.1c.1.1 0 .2-.1.3H88l-.2-.1c.2-.1.2-.2.3-.2z"/><path class="st11" d="M88.1 188.5c.1.1.2.3.2.4l-.2.1-.4-.4c.2 0 .3-.1.4-.1zM88.3 242.1c.1.1.1.2 0 .3 0 .1-.1.2-.1.3 0-.1.1-.2.1-.3v-.3z"/><path class="st13" d="M88.3 242.1v.3c0 .1-.1.2-.1.3v.1c0 .1-.1.1-.1.2-.1.2-.1.3-.2.5-.2.3-.3.6-.5.8-.4.7-.8 1.5-1.1 2.2.2-1 .5-2 .9-2.9.3-.3.6-.7.9-.9-.1-.1-.2-.1-.4-.2v-.1l-.1.1-.3-.2c.2-.2.5-.2.7-.2.2-.1.3-.1.3 0z"/><path class="st11" d="M88.2 241.9c-.3 0-.5.1-.7.2h-.1v.1c-.1.1-.3.1-.4.2l.6-.6.2-.1c.1.1.3.1.4.2z"/><path class="st13" d="M87.8 242.4c.1.1.3.1.4.2l-.9.9c.2-.3.4-.7.5-1.1z"/><path class="st11" d="M88.1 189c-.1 0-.2.1-.3.1-.2-.1-.3-.2-.5-.4l.4-.1.4.4z"/><path class="st11" d="M87.8 188.6l-.4.1c-.2-.2-.3-.4-.5-.6-.1-.2 0-.5.2-.6.2-.1.4 0 .6.1.1.3.3.5.4.8-.1.1-.2.2-.3.2z"/><path class="st13" d="M87.9 242.3v.1c-.1 0-.1 0 0-.1zM87.8 242.4c-.1.4-.3.8-.4 1.2-.3.4-.6.7-.9 1.1l.6-1.5c.1-.3.4-.6.7-.8z"/><path class="st13" d="M87.5 242.2l.3.2c-.3.3-.6.5-.8.8.1-.3.2-.6.4-.9 0-.1 0-.1.1-.1z"/><path class="st11" d="M87.4 244.3c.2-.3.3-.5.5-.8-.2.5-.4 1-.5 1.4-.3.5-.6 1.1-.8 1.7 0 0-.1 0-.2.1l.1.1h-.2v-.1c.3-1 .7-1.7 1.1-2.4zM87.5 241.9l-.6.6c-.2.1-.4.3-.5.4-1.2 1.3-2.3 2.6-3.2 4.1-.2.3-.4.5-.7.7 0-.1 0-.1-.1-.2 1.2-2 3-4.3 5.1-5.6zM87.4 242.1v.1-.1zM87.4 188.8c.1.1.3.3.5.4-.6.3-1.3.5-2 .6 0-.1-.1-.1-.2-.1l-.9-.3c.9-.1 1.8-.3 2.6-.6zM86.9 246.6c1.1-.5 2.3-.9 3.4-1.3-1.2.4-2.3 1.1-3.5 1.5.1-.1.1-.2.1-.2z"/><path class="st13" d="M87.3 242.3c-.1.3-.2.6-.4.9-1.5 1.6-2.6 3.3-4 5l-.4.4v-.4l.6-1 .1-.1c1.1-1.6 2.4-3.1 3.7-4.5.2-.2.3-.2.4-.3z"/><path class="st11" d="M87.3 244.9c-.2.5-.3 1-.4 1.6-.1 0-.2.1-.3.1.2-.6.4-1.2.7-1.7z"/><path class="st11" d="M86.9 246.5v.1l-.3.1v-.1c.1-.1.2-.1.3-.1zM86.9 246.6v.2c0 .1 0 0 0 0-.1-.1 0-.2 0-.2z"/><path class="st11" d="M86.9 246.6c0 .1-.1.2-.1.2h-.2l-.1-.1v-.1h.4zM86.8 246.8v.3c-.1 0-.1.1-.2.1-.1-.1-.2-.1-.3-.2v-.2h.2v.1h.1l.1.1s0-.1.1-.2z"/><path class="st11" d="M86.8 246.8v.2l-.1-.1.1-.1z"/><path class="st13" d="M86.8 247.1v.1h-.1l-.1-.1h.2zM86.8 247.2s0 .1 0 0c0 .1-.1 0-.1 0h.1zM86.6 247.2c-.1.1-.2.1-.3.1v-.3c0 .1.2.2.3.2z"/><path class="st11" d="M86.6 246.9h-.1v-.1c.1 0 .1 0 .1.1zM86.4 246.6c.1 0 .1 0 .2-.1v.1c-.1.1-.1.1-.2 0zM86.3 246.9c.1.1.2.1.3.2-.1.1-.3 0-.3-.2zM86.6 246.7s-.1 0 0 0c-.1 0-.1 0 0 0z"/><path class="st13" d="M87 243.2l-.6 1.5c-1.3 1.7-2.6 3.5-4.2 4.8-1.1.8-2.5 1.1-3.9 1.2-.2 0-.4-.1-.6-.2.8-.2 1.5-.4 2.2-.6.5-.1 1.1-.3 1.5-.6.1 0 .1-.1.2-.1.1.1.2.1.3.1h.1c.3 0 .4-.3.4-.5v-.3l.4-.4c1.5-1.6 2.7-3.4 4.2-4.9z"/><path class="st11" d="M86.3 246.7zM86.3 246.7zM86.3 246.8v0z"/><path class="st13" d="M86.3 246.8v.2l-.1-.1.1-.1z"/><path class="st11" d="M86.3 246.9s0 .1 0 0c0 .1 0 0 0 0zM84.8 189.9c-.1-.1-.2-.1-.4-.1-.1 0-.1 0-.2-.1 0-.2.2-.4.4-.4h.2l.9.3c.1 0 .1.1.2.1.1.1.2.3.1.4-.4.1-.8.1-1.2.1.1-.1.1-.2 0-.3zM86 190.2c0 .1-.2.2-.3.2-.3.1-.6.1-1 0l.1-.1c.4 0 .8-.1 1.2-.1z"/><path class="st11" d="M84.5 190.2c-.1-.1-.2-.1-.2-.2l.1-.1.1-.1c.1 0 .2.1.4.1.1.1.1.2.1.3h-.5z"/><path class="st11" d="M84.8 190.2s0 .1-.1.1-.2 0-.4-.1l.1-.1c.1 0 .1.1.2 0l.2.1zM84.8 189.9c-.1 0-.2 0-.4-.1.1 0 .3 0 .4.1z"/><path class="st11" d="M84.5 190.2l-.1.1-.3-.1.2-.3c0 .2.1.2.2.3z"/><path class="st11" d="M84.4 189.8s0 .1 0 0c-.1.1-.1.1-.2.1v-.2c.1.1.2.1.2.1zM84.4 190.3c.1 0 .2 0 .4.1-1.8 2.1-3.4 4.3-5 6.5v-.1c0-.1-.1-.2-.2-.2 1.4-2.2 3-4.3 4.8-6.3z"/><path class="st11" d="M84 190.2l.3.1c-1.8 2-3.4 4-4.9 6.2-.1 0-.2.1-.2.2v.2c-1.2 1.8-2.4 3.7-3.6 5.5-3.2 4.8-7.2 9.1-10.7 13.7 0-.1-.1-.1-.1-.2 1.5-2.1 3-4.1 4.6-6.1 5.1-6.2 9.1-13.5 14.6-19.6zM83.2 247.1l-.6 1v-.3c.1-.2.4-.4.6-.7zM82.6 248.5c-.2.2-.3.3-.5.4 0-.1 0-.2-.1-.2 0-.1 0-.2-.1-.3.1.1.3.1.5 0v-.1l.1-.2c.1.2.1.3.1.4zM82 249.2c.1 0 .1-.1.1-.2.2-.1.3-.3.5-.4v.3c0 .2-.1.5-.4.5h-.1c-.1 0-.2 0-.3-.1l.2-.1z"/><path class="st11" d="M82.5 248.1l-.1.2c-.1.2-.3.2-.4.1h-.1v-.1c.1-.1.2-.1.2-.2.1-.1.3-.2.4-.3.1.1.1.2 0 .3z"/><path class="st11" d="M82.4 247.6c0 .1.1.1.1.2-.1.1-.2.2-.4.3l.3-.5z"/><path class="st11" d="M82.4 247.6l-.3.5-.2.2c0-.1 0-.2-.1-.3.1-.3.3-.5.5-.8 0 .1.1.3.1.4z"/><path class="st11" d="M78.3 243.7v-.5c1.4.9 3.3 2.3 4.1 3.9-.2.3-.3.5-.5.8-.1.1-.1.3 0 .4-.2.1-.3.2-.5.3-.3-1-.8-1.9-1.4-2.7-.7-.7-1.4-1.3-2.2-1.8.1 0 .2-.1.2-.1s.1 0 .1-.1h-.5c.1 0 .2.1.2.2-.4.1-.8-.2-.9-.6 0-.2 0-.5.2-.7.1-.1.2-.2.3-.2.1.3.2.6.5.8 0 .1.1.1.2 0 0-.1.1-.2.1-.3-.1.3 0 .5.1.6zM82.1 249c0 .1 0 .1-.1.2 0-.1 0-.1.1-.2-.1 0 0 0 0 0zM82.1 249s-.1 0 0 0c-.1 0-.1-.1-.1-.2.1 0 .1.1.1.2zM82 249.1v.1s0 .1-.1.1l-.2.1.3-.3z"/><path class="st11" d="M81.5 249.1s-.1-.2-.1-.3c.1 0 .2 0 .3-.1.1 0 .2 0 .3.1v.3l-.3.2c-.1-.1-.2-.1-.2-.2z"/><path class="st11" d="M81.9 248.4c0 .1.1.2.1.3-.1-.1-.2-.1-.3-.1-.1 0-.2 0-.3.1.1-.1.3-.2.5-.3zM81.9 248.3c0 .1 0 .1 0 0 0 .1 0 .1 0 0zM81.9 248.3c-.1-.1-.1-.2 0-.3v.3zM81.7 249.3c-.1 0-.1.1-.2.1 0 0 .1-.1.2-.1z"/><path class="st15" d="M81.4 188.4c.7.8 1.6 1.4 2.6 1.8-5.5 6-9.5 13.4-14.7 19.7-1.6 2-3.1 4-4.6 6.1-.2-.2-.5-.4-.7-.6-.4-.3-.7-.7-1-1.1 1.1-1.6 2.2-3.2 3.2-4.8 2.2-3.4 5.2-6.5 7.6-9.7 2.9-3.5 5.6-7.3 7.6-11.4z"/><path class="st11" d="M81.7 249.3c-.1 0-.1.1-.2.1l-1.5.6c-.9.2-1.9.3-2.8.4-.1 0-.2-.1-.3-.2 1.6-.3 3.1-.7 4.7-1.1-.1 0 0 .1.1.2zM81.2 188.2c-.1-.1-.1-.2-.2-.2v-.1c.1-.1.2-.2.4-.1s.2.2.1.4c0 .1-.1.2-.1.3l-.2-.3zM81.5 249c-1.5.5-3.1.9-4.7 1.1-.1 0-.1-.1-.2-.1 0 0-.1-.1-.2-.1.1-.1.2-.2.3-.2 1.7-.2 3.1-.4 4.4-1.1h.1c.2.3.2.3.3.4z"/><path class="st11" d="M81.2 188.2l.2.2c-2.1 4.1-4.7 7.8-7.5 11.5-2.4 3.2-5.4 6.3-7.6 9.7-1 1.6-2.1 3.2-3.2 4.8-.1-.1-.2-.1-.2-.2-.1 0-.1-.1-.2-.1 1.1-1.6 2.2-3.1 3.2-4.7 1.2-1.9 3-3.4 4.3-5.2 1.3-1.8 2.6-3.5 3.9-5.2.2 0 .4-.3.4-.5v-.1c2.5-3.2 4.8-6.6 6.7-10.2z"/><path class="st13" d="M81.3 248.7h-.1.1z"/><path class="st16" d="M81.3 248.7s-.1 0-.1.1c-4.4 1-8.9 1.6-13.5 1.7-4 .1-8.1-.3-12.2 0l.8-.8c.6-.6 1.1-1.2 1.6-1.8.7.3 1.4.5 2.1.6 1.4.3 2.9.4 4.4.1l.1.1c.2.2.4.2.7.1 1.3-.7 2-3.8 2.4-5.1.2-.7.4-1.4.5-2.2.4-.3.7-.6 1-.9 1.6.2 3.9.2 5.3-.9l.1-.1c.4-.3.7-.7 1-1.1 1 .4 1.6 1.4 1.6 2.4 0 .6 0 1.2.1 1.8-.1 0-.2.1-.3.2-.3.3-.3.8 0 1.1.2.2.4.2.7.2.8.5 1.5 1.1 2.2 1.8.8.8 1.3 1.7 1.5 2.7z"/><path class="st11" d="M81.1 188c0 .1.1.2.2.2-2 3.6-4.2 6.9-6.7 10.1v-1c2.3-2.9 4.5-6.1 6.5-9.3zM81.2 248.8c-1.3.7-2.7.9-4.4 1.1-.1 0-.3.1-.3.2-.1 0-.2.1-.3.2-6.9 1.1-14.6.6-21.1.6.2-.1.3-.3.4-.4 4-.3 8.1.1 12.2 0 4.6-.2 9.1-.7 13.5-1.7zM77.8 176.1c1.7-2.7 2.9-5.6 2.9-8.8 0-1-.1-2.5-1.1-3 0-.1 0-.3-.1-.3h-.3c0-.1.1-.1.2-.1 2.9 1.2 2 5.9 1.1 8.2-1.6 4.2-4.3 8.5-8.2 10.9 0-.1-.1-.1-.1-.1.2-.2.5-.3.7-.5.2 0 .3-.2.3-.3 1.7-1.7 3.3-4 4.6-6z"/><path class="st11" d="M80.6 167.3c.1 3.2-1.2 6.2-2.9 8.8-1.3 2-2.9 4.3-4.7 6 0 0 0-.1-.1-.1l-.1-.1c2.1-2.1 3.8-4.5 5.2-7 1.2-2.2 4-8.2 1.3-10.4.1 0 .2-.1.3-.2.9.5 1 2 1 3z"/><path class="st13" d="M81.4 249.4c-.5.3-1 .5-1.5.6l1.5-.6z"/><path class="st11" d="M77.6 203.8c.1 0 .2-.1.2-.2v-.1c.6.6 1.2 1.2 1.7 1.9.5.8 1.7 2.9.5 3.6-.1.1-.2 0-.2-.1.1-.1.1-.3.2-.4 0-.1 0-.1-.1-.2h-.1-.1c0-.4 0-.9-.1-1.3-.3-.7-.7-1.4-1.2-1.9-.8-.9-1.8-1.6-2.5-2.5l.1-.1c.4.3.9.7 1.5 1.2 0 0 0 .1.1.1-.1-.1-.1 0 0 0z"/><path class="st11" d="M79.7 208.5v-.2h.1c.1 0 .1 0 .2.1v.1c0 .1-.1.3-.2.4-.1-.1-.1-.2-.1-.4z"/><path class="st11" d="M79.8 208.8c-.5 1-1.8 1.7-2.6 2.3-1 .8-2.1 1.5-3.1 2.2 0-.1-.1-.2-.1-.3 2.1-1.4 4-2.9 5.8-4.5-.1.1-.1.2 0 .3zM79.4 197.3c-.1.2-.2.3-.3.5.1-.3.1-.5.2-.8.1-.1.2-.3.3-.4.1 0 .2.1.2.2v.1l-.4.4z"/><path class="st11" d="M79.4 197.3c.1-.1.2-.3.3-.4-.1 1.2-.4 2.4-.9 3.5-.4 1-.7 2-.9 3l-.2-.2c0-1 1.4-4.2 1.7-5.9zM79.7 208.3v.2c-1.8 1.7-3.8 3.2-5.8 4.5 0-.1-.1-.2-.2-.3l3.3-2.4c.8-.6 1.7-1.7 2.7-2z"/><path class="st17" d="M79.6 207c.1.4.1.9.1 1.3-1 .2-1.9 1.4-2.7 2l-3.3 2.4c-.6-1.4-1.7-2.4-3.1-2.9 1.9-2.3 3.6-4.8 5.3-7.3.7.9 1.7 1.6 2.5 2.5.5.6.9 1.3 1.2 2z"/><path class="st11" d="M79.5 164.2c0 .1-.1.2-.2.2l-.2-.2c-.1 0-.1-.1-.1-.1v-.2h.3c.2 0 .3.2.2.3zM79.5 196.6c-.1.1-.2.3-.3.4v-.2c0-.1.2-.2.3-.2zM79.1 197.8c.1-.2.2-.3.3-.5-.3 1.6-1.7 4.8-1.8 5.9-.1-.1-.3-.2-.4-.3.1-.6.3-1.2.6-1.8.5-1 .9-2.1 1.3-3.3z"/><path class="st12" d="M79.2 164.5c2.8 2.2-.1 8.2-1.3 10.4-1.4 2.6-3.1 5-5.2 7-.2-.1-.3-.2-.5-.3.1-.1.1-.2 0-.2-2.3-3.8-6.1-8-10.7-9 .2-.2.4-.3.6-.4 4.8-3 11.4-8.2 17.1-7.5z"/><path class="st11" d="M79 164.3c.1 0 .1.1.2.2-5.7-.6-12.3 4.5-16.9 7.5-.2.1-.4.3-.6.4-.1 0-.2-.1-.3-.1-.1 0-.2.1-.3.2 0 .1 0 .2.1.2-5.6 3.7-10.9 7.6-16 11.9l-.3.2c-.1-.1-.2-.2-.4-.3 1.5-1.2 3-2.3 4.4-3.5 5.2-4.3 10.7-8.2 16.6-11.5 3.3-1.8 9.1-6 13.4-5.3l.1.1zM64.5 216.7h.2c.1 0 .3-.1.3-.3v-.1l-.1-.2c3.5-4.6 7.4-8.9 10.7-13.7 1.2-1.8 2.4-3.6 3.6-5.5 0 .3-.1.6-.2.8l-3 4.5c-.1 0-.3.1-.2.2.1.1 0 0 0 .1-1.7 2.5-3.4 4.9-5.3 7.3-.1 0-.2-.1-.3-.1-.2 0-.2.2-.1.3 0 0 .1 0 .1.1-.1.2-.2.3-.4.5-5 6.2-9.2 13.2-14.9 18.8-.1.1-.2.1-.3 0l-.1-.1v-.2c3.6-3.8 6.5-8.2 9.5-12.5.4.1.5.1.5.1z"/><path class="st11" d="M79 163.9c-.1.1-.1.2 0 .2-4.3-.7-10.1 3.5-13.4 5.3-5.9 3.3-11.4 7.2-16.6 11.5-1.4 1.1-2.9 2.3-4.4 3.5v.1c-1.2 1-2.4 2-3.5 3.1-2.2 2.4-4.5 4.9-6.7 7.3-1.3 1.3-2.5 2.7-3.8 4.1-.1-.2-.4-.1-.3.1 0 .1 0 .1.1.2l-2.3 2.3-1 1c0-.1-.2-.1-.3-.1-.1 0-.1.1-.1.2v.3c-.6.5-1.1 1.1-1.7 1.6-3.1 2.7-6.6 4.6-10.2 6.5h-.1c-.1 0-.2 0-.3-.1l.1-.1c7.5-4 13-9.1 18.8-15.3 5.3-5.7 10.5-10.9 16.6-15.8 5.4-4.3 11.2-8.1 17.2-11.6 2-1.3 4.1-2.4 6.3-3.4l2.1-.4c.1 0 .1-.2.1-.3.8-.2 2.1-.3 3.4-.2zM78.2 243.3c0 .1.1.3 0 .5-.1-.2-.1-.3-.2-.5v-.1c.1 0 .1.1.2.1zM78.2 243.2s-.1 0-.1-.1v-.1l.1.2z"/><path class="st18" d="M76 202.3l3-4.5c-.4 1.1-.8 2.3-1.2 3.4-.3.6-.5 1.2-.6 1.8-.4-.3-.8-.5-1.2-.7z"/><path class="st11" d="M77.9 240.2c.3.9.4 1.9.2 2.8-.1-.1-.2-.2-.4-.3-.3-2.3.3-3.2-2.1-4.5l.1-.1c1 .5 1.9 1 2.2 2.1zM79.9 250c-.7.2-1.4.4-2.2.6-.2-.1-.4-.1-.6-.2.9-.1 1.8-.3 2.8-.4z"/><path class="st11" d="M77.8 242.7c.1.1.3.2.4.3v.1h-.1c.1.1.1.3 0 .4 0 .1-.1.1-.2 0-.2-.2-.4-.5-.5-.8 0-.1.2-.1.4 0z"/><path class="st11" d="M78 243.1c.1 0 .1.1.1.1s-.1 0-.1-.1zM78 244.1s-.1 0 0 0c-.2.1-.2.1-.3.2-.1 0-.1-.1-.2-.2h.5z"/><path class="st13" d="M77.7 250.6c.2.1.4.1.6.2l-.9.1c-.1 0-.2-.1-.2-.1l.5-.2z"/><path class="st11" d="M77.6 203.3c.1.1.2.1.2.2v.1c0 .1-.1.2-.2.2l-.2-.2c-.1-.2-.1-.4-.1-.6l.3.3zM77.8 242.7c-.1-.1-.3-.1-.5 0-.1-.6-.2-1.2-.1-1.8 0-1-.6-2-1.6-2.4l.1-.1c2.3 1.1 1.8 2 2.1 4.3zM77.6 203.8c-.1 0-.1 0 0 0-.1-.1-.2-.1-.2-.2l.2.2zM77.1 250.4c.2.1.4.2.6.2l-.6.1c-.2-.1-.4-.2-.6-.4h.3c.1.1.2.1.3.1z"/><path class="st13" d="M77.3 250.9h-.6-.1c.2 0 .3-.1.5-.1.1 0 .2.1.2.1z"/><path class="st11" d="M77.2 203c0 .2 0 .4.1.6-.5-.5-1.1-.9-1.5-1.2l.1-.1c.6.2 1 .4 1.3.7zM73.9 189.9s0 .1 0 0l-.1.2s-.1 0-.1-.1c-.1-.1-.1-.3.1-.3.9.1 1.7.2 2.5.4.2.1.3.3.5.4h.2v-.1c.1.1 0 .3-.1.4h-.1c-.9 0-1.9-.2-2.7-.6 0-.1 0-.2-.2-.3.1 0 .1 0 0 0 .1 0 0 0 0 0zM77.1 250.8c-.2 0-.3.1-.5.1-.1 0-.1-.1-.2-.1-.1-.1-.1-.3-.1-.4l.5-.1c.1.1.2.1.3.2h-.6c.2 0 .4.2.6.3z"/><path class="st11" d="M76.8 190.3h.1c.1 0 .1.1.1.1 0 .1 0 .1-.1.1h-.1c-.2-.1-.4-.2-.5-.4.2.1.4.2.5.2z"/><path class="st11" d="M77 190.4l-.1-.1h-.1c-1.2-1.3-1.9-3.2-3-4.5-1.1-1.5-2.3-2.9-3.7-4.2v-.2c.6.4 1.2.9 1.8 1.4l-.1.1c-.1.1-.1.1 0 .2 0 0 .1.1.2 0l.2-.1c2.1 2.1 3.6 5 4.8 7.4zM76.6 250.1c.1 0 .1.1.2.1l-.5.1c0-.1.1-.1.1-.2h.2z"/><path class="st11" d="M76.8 190.3c-.1 0-.3-.1-.4-.1-1.1-1-1.6-2.6-2.5-3.8-1.2-1.6-2.5-3.2-3.9-4.6.1 0 .1 0 .1-.1v-.1c1.4 1.2 2.7 2.6 3.7 4.2 1.1 1.3 1.8 3.2 3 4.5z"/><path class="st13" d="M76.7 250.9h-.1.1c-.1 0 0 0 0 0z"/><path class="st11" d="M76.4 250.7c.1.1.1.1.2.1-.1 0-.2 0-.2-.1z"/><path class="st11" d="M76.4 250.7c0 .1.1.1.1.2-7 1.5-15 1-21.6.4h-.2l.3-.3c6.5 0 14.1.5 21.1-.6 0 .1.1.2.3.3-.1 0 0 0 0 0z"/><path class="st11" d="M76.4 250.7s-.1 0 0 0c-.2-.1-.3-.3-.2-.4h.1c0 .1 0 .3.1.4zM76.4 250.1c0 .1-.1.1-.1.2h-.1c0-.1.1-.2.2-.2zM76 202.3c0 .1-.1.1-.1.1 0 .1 0 .1-.1.1v-.1c-.1 0 0-.2.2-.1zM74.4 223.9c1.3 3.3 3.4 10.3 1.3 14.2l-.2-.1c-.2-.1-.3.2-.1.2.1 0 .1.1.2.1-.2.4-.6.8-1 1.1.1-.1.2-.3.4-.4v-.1h-.1-.1c2.6-3.8.4-11.1-.5-15v-.2s.1.1.1.2z"/><path class="st11" d="M75.7 238.3s0 .1-.1.1-.1-.1-.2-.1c-.2-.1 0-.3.1-.2l.2.1v.1zM74.5 164.4c.2-.1.5-.2.7-.2.1.1.1.3-.1.3l-2.1.4c.5-.2 1-.4 1.5-.5z"/><path class="st11" d="M75.1 164.2h.1c-.2.1-.5.1-.7.2-3.3.4-6.7 1-10 1.7-2 .6-4 1.4-6 1.5h-.1l-.3-.1c0-.1.1-.2.3-.2 5.7-1.1 10.9-2.9 16.7-3.1zM74.2 224c1 3.9 3.1 11.2.5 15-.2 0-.4.1-.5.2 2.1-5.1.5-9.4-.2-14.5.1-.3.1-.5.2-.7zM74.4 239.3l.3-.3h.2v.1c-.1.2-.2.3-.4.4-.1 0-.1.1-.1.1s-.1 0-.1.1c-.1.1-.2 0-.3-.2.2 0 .3-.1.4-.2z"/><path class="st11" d="M74.2 239.2c.2 0 .3-.1.5-.2l-.3.3c-.1.1-.2.2-.3.2v-.1l.1-.2z"/><path class="st19" d="M76.4 190.2c-.8-.2-1.7-.4-2.5-.4-.2 0-.2.2-.1.3 0 0 .1 0 .1.1 0 1 .1 1.9 0 2.9-.1.9-.2 1.7-.3 2.5-.2-.3-.5-.5-.7-.7-.5-.4-1.1-.8-1.6-1.2-.5-.4-.9-.8-1.4-1.2.5-3.4-.4-6.8-1.3-10.1 0-.1-.2-.1-.2 0 .2 2.1.6 4.2.8 6.3.1 1 .1 1.9.1 2.9 0 2.3-1 .9-2.1 0-2.9-2.6-4.9-6.4-6.6-9.9-.1-1.3-.4-2.6-.9-3.9 0 0-.1-.1-.1 0v.1c.2 1.1.4 2.3.5 3.5v.1c0 3-.2 6.1-.7 9.1v.1c-.4-.4-.8-.7-1.3-.9-.6-.4-1.2-.7-1.9-1.1h-.1v-.3c0-.3-.3-.3-.4-.1-.3.8-.4 1.7-.3 2.6-1.3-2-2.4-4.1-3.8-6h-.1s-.1-.1-.2 0v.1c0 2.5-1.1 5-.7 7.5 0 0 0 .1.1.1-1.3-1.3-2.4-2.7-3.3-4.3-.7-1.1-1.3-2.7-2.2-3.6l.3-.2c5.1-4.2 10.4-8.2 15.9-11.9h.1c2.4.9 4.5 2.3 6.3 4 1.4 1.4 2.5 3 3.8 4.4-.5-.2-1.1-.4-1.7-.4l-.3-.3c-.3-.2-.6.3-.3.5.1.1.5.9.8.8 1.4 1.5 2.7 3 3.9 4.6.8 1.4 1.2 3 2.4 4z"/><path class="st11" d="M74 198c.2-.2.3-.4.5-.6 0 .3.1.6 0 1l-.4.6c-.2.1-.5 0-.6-.2.1-.3.3-.5.5-.8z"/><path class="st11" d="M74.5 198.4c0 .3-.2.5-.4.6l.4-.6zM74.5 239.7c-.1 0-.1 0 0 0-.1 0-.1 0 0 0zM74.5 197.4c-.2.2-.3.4-.5.6 0-.3 0-.6-.1-.9v-.1c0-.2.1-.5.2-.8.1.4.3.8.4 1.2z"/><path class="st17" d="M74 224.7c.7 5.1 2.3 9.4.2 14.5-.7.3-1.3.5-2 .7-.9.1-1.8.2-2.6.2.1-.2.2-.3.3-.5.7-1.1 1.3-2.2 1.7-3.4.1-.2-.2-.3-.3-.1-.7.9-1.2 1.9-1.8 2.9-.4.5-.7 1-1.1 1.5.2-1.3.1-2.6-.2-3.8 0 0 0-.1-.1-.1 2.1-2.8 3.9-5.9 5.2-9.1.2-1 .5-1.9.7-2.8z"/><path class="st11" d="M74.1 239.5c0 .1.1.3.3.2-1.4 1.1-3.6 1.1-5.3.9.1-.1.1-.2.2-.3 1.7 0 3.3.1 4.8-.8zM74.1 190.3c.8 1.8.3 4-.1 6-.1-.1-.1-.3-.2-.4.4-1.9.6-3.7.2-5.7 0 0 .1 0 .1.1zM70.6 231.8c2.5-4.1 3.8-8.1 3.7-13 0-1.8-.3-3.6-.7-5.4.1.1.3.1.4 0 0 0 .1 0 .1-.1 1.1 2.9.9 7.1.2 10.3-.2 0-.3 0-.3.2l.1.7c-.2.9-.5 1.8-.8 2.7-1.3 3.3-3.1 6.3-5.2 9.1-.1-.1-.2-.1-.3 0 0 0-.1.1-.1.2v.3c-3.1 4.1-7.3 7.4-12 9.5-.2-.1-.3-.2-.4-.3l.2-.1c6.7-2.8 11.3-7.8 15.1-14.1z"/><path class="st11" d="M74.3 218.8c.1 4.9-1.2 8.9-3.7 13-3.7 6.3-8.4 11.3-15.2 14.3l-.2.1c-.1-.1-.2-.2-.3-.2 1.6-.7 3.1-1.5 4.6-2.4 5.6-3.8 10.8-9.8 13-16.3 1.4-4.1 3.5-14.7-2.1-17.1l.1-.1c1.5.4 2.4 1.6 2.9 3.1 0 .1 0 .3.1.4.5 1.6.7 3.4.8 5.2z"/><path class="st11" d="M74.3 223.7v.2c-.1.2-.1.5-.2.7l-.1-.6c-.1-.2.1-.3.3-.3zM74.2 239.2l-.1.2v.1c-1.5.8-3.1.8-4.8.8.1-.1.1-.2.2-.3.9 0 1.8-.1 2.6-.2.7-.1 1.4-.4 2.1-.6zM74 190.2s-.1 0-.1-.1v-.1s0-.1.1-.1c.1.1.1.2.1.3H74zM73.4 198.7c.1.2.4.3.6.2-1.3 1.7-2.6 3.5-3.9 5.2-1.3 1.8-3.1 3.4-4.3 5.2-1 1.6-2.1 3.2-3.2 4.7-.2 0-.3.2-.2.4-2.5 3.5-4.9 6.9-7.8 10.1-.6.7-1.2 1.3-1.7 2.1 0 .1-.1.2-.2.3-.4-1.3 5.7-7.6 6.5-8.7 2.3-3.2 4.4-6.5 6.7-9.7h.1c.1 0 .2 0 .2-.1s0-.2-.1-.2l.1-.1c1-1.4 2.1-2.8 3.2-4.2.1 0 .1-.1.1-.2 1.3-1.7 2.7-3.3 3.9-5z"/><path class="st11" d="M74 190.2c.4 2 .2 3.8-.2 5.7-.1-.1-.1-.2-.2-.3.2-.8.3-1.7.3-2.5 0-1-.1-1.9 0-2.9 0-.1 0 0 .1 0zM74.1 196.2c-.1.3-.1.5-.2.8v.1c0-.2-.1-.4-.2-.5 0-.2.1-.5.1-.7l.3.3zM73.9 213.1c.1.1.1.2.1.3 0 0-.1 0-.1.1-.1.1-.3.1-.4 0 0-.1-.1-.2-.1-.4 0-.1.1-.2.2-.2l.2-.1c0 .1 0 .2.1.3z"/><path class="st11" d="M73.9 197.1c.1.3.1.6.1.9-.2.2-.3.4-.5.7 0-.1-.1-.2-.1-.3.2-1.7-.8-2.7-2-3.6-.6-.4-1.2-.9-1.7-1.5 0-.1.1-.3.1-.4.9 1.3 2.8 2 3.7 3.4 0 .2-.1.4-.1.7-.2.2.3.4.5.1z"/><path class="st11" d="M73.6 196.6c.1.2.2.3.2.5-.1.3-.6.1-.6-.3 0-.2.1-.4.1-.7.2.2.3.3.3.5zM73.6 195.5c.1.1.2.2.2.3 0 .2-.1.5-.1.7-.1-.1-.1-.3-.2-.4 0-.2 0-.4.1-.6zM73.7 212.7l-.2.1-.2.2c-.5-1.5-1.4-2.7-2.9-3.1l.1-.1c1.5.5 2.6 1.6 3.2 2.9zM74.5 164.4c-.5.1-.9.3-1.4.5-2.4.5-4.9.9-7.3 1.5-2.4.5-4.7 1.5-7.3 1.6-.1 0-.2 0-.2-.1h.1c.2.1.3-.2.2-.3 2-.1 4-.9 6-1.5 3.2-.7 6.5-1.3 9.9-1.7zM73.4 213.1c.1.1.1.2.1.4-.1-.1-.1-.3-.1-.4z"/><path class="st11" d="M73.6 195.5c0 .2-.1.4-.1.6-.9-1.4-2.8-2-3.7-3.3v-.3c.5.4.9.8 1.4 1.2.5.4 1.1.7 1.6 1.2.3.2.5.4.8.6z"/><path class="st18" d="M73.4 198.4c0 .1 0 .2.1.3-1.3 1.7-2.6 3.3-3.9 5 .1-.2 0-.3-.2-.4-8.4-1.4-18.9-.1-26.9 2.8 0-2.4-.6-4.7-.8-7.1-.1-1.1 0-2.3-.1-3.4.2.4.5.8.7 1.1.1.1.4.1.5 0 0 0 .1-.1.1-.2.5-2.2 1.1-4.3 1.8-6.5.4-1.1.6-2.3.6-3.4.5.9 1.1 1.8 1.5 2.7.9 1.6 1.9 3.1 3.6 3.9.2.1.4-.1.2-.3l-.2-.2c.1.1.2 0 .3 0v-.1c.5-2.2.7-4.5.7-6.8 1.2 2.2 2.3 4.4 3.8 6.3.2.2.5 0 .5-.2.1-.9.1-1.7.1-2.5.4.3.8.5 1.2.7.7.3 1.2.7 1.8 1.1.1.1.3 0 .4-.1v-.3c.1.1.2.1.3 0v-.1c.6-2.5.9-5.2.9-7.8 1.8 4.2 4.3 9 8.5 10.9.2.1.4 0 .4-.1v-.1c0-.1.1-.3.1-.4.5.6 1.1 1.1 1.7 1.5 1.5 1.1 2.4 2 2.3 3.7zm-5.9-3.5c.4.6 1.3 0 .9-.5-1.6-2.4-5.8-2.1-6.7.9 0 .2.1.4.3.4.1 0 .3 0 .3-.1 1.2-2 3.8-2.9 5.2-.7zm-16.2 2.8c.6.5 1.4-.3.9-.9-2.5-2.4-6.9-1.2-8 1.9-.2.5.6.7.7.2 1.1-2.7 4.4-3.1 6.4-1.2z"/><path class="st11" d="M73 182.1c.1.1-.1.3-.3.3l.3-.3zM72.6 182.1l.2-.2.1.1s.1 0 .1.1l-.3.3c-.1 0-.2 0-.3-.1.1-.1.2-.1.2-.2z"/><path class="st11" d="M72.8 181.9l-.2.2c-.9-.5-1.8-.8-2.7-1.1l-.2-.2c.6.1 1.1.2 1.7.4l.5.5c.1.1.3.1.4 0v-.1c.2.1.4.2.5.3zM72.7 182.4c-.2.2-.5.4-.7.5l-.1-.1c.2-.2.4-.3.5-.5.1 0 .2.1.3.1z"/><path class="st11" d="M72.6 182.1l-.2.2c-.8-.3-1.6-.6-2.3-1 0-.1-.1-.2-.2-.3 1 .2 1.9.6 2.7 1.1z"/><path class="st12" d="M70.3 210.1c5.6 2.3 3.5 13 2.1 17.1-2.3 6.5-7.4 12.5-13 16.3-1.4 1-3 1.8-4.6 2.4-.3-.1-.6 0-.8.3-1.2.5-2.4.9-3.6 1.2-2.9.9-6 .6-8.7-.8l-.2-.1c-1.7-.8-3.3-1.9-4.7-3.1-1.6-1.3-3-2.8-4.2-4.5 0-.1-.1-.2-.1-.2-.7-1-1.2-2.1-1.7-3.2-1.5-3.9-.3-9.7 2.9-12.5 0 .5 0 1.1.1 1.6-.1.1 0 .3.1.4h.1c1.8.2 3.7 0 5.5-.5v.1c.7 1 1.5 1.9 2.4 2.6.2.2.5.2.6 0 0 0 0-.1.1-.1.3-.6.4-1.3.4-1.9v-1.7c.6-.2 1.1-.6 1.5-1.1.2.2.4.2.6 0 .1-.1.2-.3.1-.4-.2-1-.5-1.9-.8-2.8 2.8-.1 4.4-1.5 6.1-3.7 3.6-4.9 9.2-8.3 15.4-6.9-2.3 3.2-4.4 6.5-6.7 9.7-.8 1.1-6.9 7.4-6.5 8.7-.1-.1-.4-.1-.5 0-2.8-1.3-5.3.6-6.5 3.5-.7 1.6-1.1 5 .4 6.1.3 2.7 5.5.2 6.5-.7 2.3-1.8 3.4-4.4 2.2-6.6 0 .1.1.2.3.1 0 0 .1 0 .1-.1 5.7-5.5 9.9-12.6 15-18.7-.1-.2 0-.3.1-.5zM72.4 182.3c-.2.2-.3.4-.5.5-.5-.5-1.1-1-1.8-1.4v-.1c.8.3 1.5.7 2.3 1z"/><path class="st11" d="M72.3 181.4c.1.1.1.2 0 .2s-.1-.1-.2-.1c-3-3.8-5.8-7.7-10.7-8.9.1-.1.2-.1.3-.2 4.5 1 8.3 5.2 10.6 9z"/><path class="st11" d="M72.3 181.6c-.1.1-.2.2-.3.1h-.1l-.5-.5c.2.1.4.2.7.3.1 0 .2 0 .2.1zM72 182.9c.1 0 .1.1.1.1l-.2.1h-.2v-.2h.3z"/><path class="st11" d="M72.1 181.5c-.2-.1-.4-.2-.7-.3-1.4-1.4-2.5-3-3.8-4.4-1.8-1.8-4-3.2-6.4-4h-.1c.1-.1.1-.1.2-.1 5 1.1 7.7 5 10.8 8.8zM69 240.1c-.1 0-.2.1-.2.2-.2.3-.4.5-.7.7 0-.2.1-.4.1-.6.4-.5.8-1 1.1-1.5.6-1 1.1-2 1.8-2.9.1-.1.4-.1.3.1-.4 1.2-1 2.4-1.7 3.4-.1.2-.2.3-.3.5 0 0-.2 0-.4.1.1-.1.1 0 0 0zM70.5 210l-.1.1-.1-.1c-.2-.1-.1-.3.1-.3.1 0 .2 0 .3.1-.2.1-.2.2-.2.2zM70.1 181.4v.2c-.1-.1-.2-.2-.3-.2 0-.1-.1-.2-.1-.2.1 0 .3.1.4.2z"/><path class="st11" d="M70.1 181.3v.1c-.2-.1-.3-.2-.5-.3.1 0 .3.1.5.2zM69.6 181.3l.2.3c0-.1-.1-.1-.1-.2.1.1.2.1.3.2v.1c0 .1-.1.1-.1.1l-.7-.7c-.1-.1 0-.2.1-.1l.3.3zM69.9 180.9c.1.1.1.2.2.3-.2-.1-.3-.2-.5-.2 0-.1-.1-.1-.2-.2.2 0 .4.1.5.1z"/><path class="st11" d="M69.9 181.7c-.3.1-.7-.7-.8-.8-.3-.2 0-.8.3-.5l.3.3c-.1 0-.3-.1-.4 0 0 0-.1.1 0 .2h.1c-.1 0-.2.1-.1.1.2.3.4.5.6.7z"/><path class="st11" d="M69.9 181.5l-.2-.3s.1 0 .1.1.1.2.1.2zM69.5 192.4c-.1 0-.1.1-.1.2v.2c0 .3-.1.5-.2.8-3.7-1.7-6.9-7.3-8.7-11.2v-.6c1.7 3.5 3.6 7.3 6.6 9.9 1.1 1 2.1 2.3 2.1 0 0-1 0-1.9-.1-2.9-.2-2.1-.6-4.2-.8-6.3 0-.1.2-.2.2 0 .9 3.3 1.7 6.7 1.3 10.1l-.1-.1c-.1-.2-.2-.2-.2-.1z"/><path class="st11" d="M69.8 192.8c0 .2-.1.3-.1.5-.1-.2-.2-.3-.2-.5 0-.1.1-.3.1-.4h.2l.1.1c-.1.1-.1.2-.1.3zM69.8 180.7l.2.2c-.2-.1-.4-.1-.5-.1 0-.1-.1-.1-.1-.1h.4zM69.8 181.3c-.1 0-.1 0 0 0l-.4-.4.2.1c.1.1.1.2.2.3z"/><path class="st11" d="M69.6 193.3c0 .1-.1.3-.1.4-.1.2-.2.3-.4.2H69c-4.2-1.9-6.7-6.7-8.5-10.9v-.6c1.8 3.9 5 9.5 8.7 11.2.1-.3.1-.5.2-.8.1.2.2.3.2.5zM69.6 181l-.2-.1.2.1zM69.4 180.8l.2.2-.2-.1c-.1-.1-.1-.2 0-.1 0-.1 0-.1 0 0zM42.4 206.4v-.3c8-2.9 18.6-4.2 26.9-2.8.2 0 .3.2.2.4-.1 0-.1.1-.1.2h-.2c-8.8-1.1-18.4.5-26.8 2.7v-.2z"/><path class="st11" d="M69.4 203.9c0-.1.1-.1.1-.2 0 .1 0 .1-.1.2zM69.3 240.3c-.1.1-.1.2-.2.3-.1 0-.2-.1-.2-.3l.2-.2h.5c-.1 0-.2.1-.3.2zM69.5 192.4c0 .1 0 .3-.1.4v-.2c0-.1 0-.2.1-.2z"/><path class="st17" d="M69.2 203.9h.2c-1.1 1.4-2.1 2.7-3.2 4.2l-.1.1c-2.5-1.8-7.4-.4-9.9.9-1.9.9-3.5 2.1-4.8 3.7-2.2 2.7-3.4 5.3-7.2 5.7-.4-1-.8-1.9-1.3-2.8.3 1 .4 2 .7 3 .3 1 .5 2 .8 3-1.5.7-3.1 1.4-4.7 1.8-1.7.4-3.5.6-5.2.7.5-2.1.7-4.1 1.4-6.1.9-2.2 2.1-4.3 3.5-6.2.1.1.2 0 .2-.1.1-1.2-1.2-2.4-2.2-3 0-.3-.1-.7-.2-1 .8 0 1.5-.2 2.3-.5.8.3 1.7.6 2.5.7.4.1.7-.5.3-.7v-.7c8.6-2.2 18.2-3.8 26.9-2.7z"/><path class="st11" d="M69.4 180.9s-.1 0 0 0c-.2-.1-.1-.2-.1-.2s0 .1.1.2zM69 240.1l-.2.2c.1-.1.1-.2.2-.2zM68.9 240.3c0 .1.1.3.2.3-.3.4-.6.7-1 .9 0-.1.1-.3.1-.4.2-.3.5-.5.7-.8zM68.4 194.3c.4.6-.6 1.1-.9.5-1.4-2.1-4-1.3-5.1.6-.1.2-.3.2-.5.1-.1-.1-.2-.2-.1-.3.8-3 5-3.3 6.6-.9zM68.1 236.6c.4 1.2.5 2.6.2 3.8-.2.2-.3.4-.5.6.3-1.4.3-2.9 0-4.4h.3c-.1-.1-.1-.1 0 0z"/><path class="st11" d="M68.2 241.1c0 .2 0 .3-.1.4l-.3.1h-.2c0-.2.1-.4.1-.6.2-.2.3-.4.5-.6.1.2 0 .5 0 .7z"/><path d="M65.8 166.4c2.4-.5 4.9-1 7.3-1.5-2.2 1-4.3 2.1-6.3 3.4-6 3.4-11.7 7.3-17.2 11.6-6.1 4.9-11.3 10.1-16.6 15.8-5.8 6.2-11.3 11.2-18.8 15.3l-.1.1c-.4-.6 1-3.6 1.2-3.8l2.1-3.6c1.5-2.6 3.2-5 4.8-7.5.1.3.3.5.5.8 0 0 0 .1.1.1h.1c1.5-.9 2.7-2.8 3.8-4.2s1.8-3.8 1.1-5.5c2.4 1.3 5.1 1.1 7.8.6.7-.2 3.4-1.4 1.9-2.6-2.4-2-6.1-1.8-8.9-.9h.1c2.3-1.4 3.7-3.6 4.6-6.2.4-1.2 1-4.8-.5-5.6-.9-.5-2.7 1.4-3.2 1.9-1.7 1.5-3 3.3-3.1 5.7 0 .7-.2 1.7-.2 2.6-.4-.7-1-1.2-1.7-1.6 0-1-.1-2-.1-3 .1-1.1.1-2.2 0-3.2 0-.1-.1-.1-.2-.1s-.1.1-.1.1c0 .3-.1.6-.1.9-1.3.5-2.7 1-4 1.6-1.9.9-3.6 2.3-5.5 3.3-.1.1-.2.2-.1.3-.8.2-1.6.6-2.3 1.1-.1.1-.1.2 0 .3.1.1.2.3.4.4-.1 0-.1 0-.2.1-.5.4-.9 1-1.3 1.5l-.3.3c1.5-4.4 3.5-8.5 6-12.3 1.5-2.3 3.4-4.4 5.5-6.2 0 0 .1-.1.1-.2 12.2-1.6 24.2-2.5 36 1.7.1.1.1.1.2.1 2.4-.1 4.7-1.1 7.2-1.6z" fill="#308d3a"/><path class="st11" d="M67.8 241.6l.3-.1c-.1.7-.3 1.4-.5 2.2-.4 1.3-1.1 4.4-2.4 5.1-.2.1-.4.1-.6-.1l-.1-.1h.2c.1 0 .2-.1.2-.2.1 0 .2 0 .3-.1 1.1-1.4 2.1-4 2.6-6.5-.1-.1 0-.1 0-.2zM67.8 236.7c-.1.1-.1.2-.2.3v-.3c0-.1.1-.2.2-.2s.1 0 .2.1c0 0-.1 0-.2.1z"/><path class="st11" d="M67.8 236.7c.3 1.4.3 2.9 0 4.4-.1.1-.2.2-.2.3-.1.1 0 .2.1.3-.5 2.5-1.5 5.1-2.6 6.5-.1.1-.2.1-.3.1.1-.2 0-.3-.2-.4 2.4-2.9 3.4-7.2 3.1-10.9 0-.1.1-.2.1-.3z"/><path class="st11" d="M67.8 241.1c0 .2-.1.4-.1.6-.1 0-.2-.1-.1-.3 0-.1.1-.2.2-.3z"/><path class="st17" d="M67.6 236.9c.3 3.7-.7 8-3.1 10.9-1.2-.2-2.4-.4-3.6-.4-1.3-.1-3.9-.2-5.3-1 4.8-2 8.9-5.3 12-9.5z"/><path class="st11" d="M66.1 208.2c.1.1.1.2 0 .3 0 .1-.1.1-.2.1h-.1l.3-.4z"/><path class="st11" d="M44.3 218.8c0-.1-.1-.2-.1-.3 3.8-.4 5.1-3 7.2-5.7 1.3-1.6 2.9-2.9 4.8-3.7 2.4-1.3 7.4-2.7 9.9-.9l-.2.3c-6.2-1.4-11.8 2-15.4 6.9-1.7 2.2-3.3 3.6-6.1 3.7 0-.1-.1-.2-.1-.3zM64.7 216.5c.1-.1.1-.2.2-.2l.1.2c0 .1 0 .3-.2.3H64.5c.1-.1.1-.2.2-.3zM64.9 216.2c-.1.1-.1.2-.2.2s-.1-.1-.2-.1c.1-.1.1-.2.2-.3l.2.2zM64.8 248.3c0 .1-.1.2-.2.2h-.2c-.1-.1-.1-.2-.1-.3l.1-.1.2-.2c.2 0 .3.2.2.4 0-.1 0-.1 0 0z"/><path class="st11" d="M64.8 216.1c-.1.1-.1.2-.2.3-.6-.5-1.2-1.1-1.7-1.7.1-.1.1-.2.2-.3.4.3.6.7 1 1.1.2.2.5.3.7.6zM64.5 216.4s.1.1.2.1c-.1.1-.1.2-.2.2h-.2l.2-.3zM64.5 247.8c0 .1-.1.2-.2.2l-.1.1c-2.1 0-4.1-.2-6.1-.6.1-.2-.2-.4-.4-.3-.1 0-.2.1-.3.2-.9-.2-1.8-.4-2.6-.7.2-.1.5-.2.7-.3 1.4.8 4 .9 5.3 1 1.3.1 2.5.2 3.7.4z"/><path class="st11" d="M64.5 216.4l-.2.3c-.3-.1-.5-.3-.7-.6 0-.1-.1-.1-.1-.1-.3-.3-.6-.6-.8-1 .1-.1.2-.2.2-.3.4.6 1 1.2 1.6 1.7zM64.4 248.5c-1.4.3-2.9.2-4.4-.1l-2.1-.6c.1-.1.1-.2.2-.3 2 .4 4.1.6 6.1.6 0 .2.1.3.2.4z"/><path class="st12" d="M64.3 216.7c-3 4.3-6 8.7-9.5 12.5-.1.1-.1.1 0 .2l-.6-.9c3-4.3 6.3-8.2 9.5-12.3.1.1.4.3.6.5z"/><path class="st11" d="M63.5 216c.1 0 .1.1.1.1l-.1-.1zM53.9 228.3c-.1-.1-.1-.2-.2-.2 2.9-4.3 6.1-8.3 9.7-12h.1l.1.1c-3.1 4.1-6.5 8-9.5 12.3l-.2-.2z"/><path class="st12" d="M63.5 216s-.1 0 0 0c-3.6 3.8-6.9 7.8-9.8 12.1-.1-.1-.3-.3-.5-.4-.1-.1-.2-.2-.3-.2 1.8-2.7 4.3-5 6.3-7.6 1.2-1.6 2.4-3.1 3.5-4.8.2.2.5.6.8.9z"/><path class="st11" d="M62.8 214.7c-.1.1-.1.2-.2.3-.1-.1-.2-.3-.2-.4v-.1s.1-.2.2-.3c.1-.1 0 0 0-.1.1 0 .1 0 .2.1s.2.1.2.2-.1.2-.2.3z"/><path class="st11" d="M62.6 214.1c-.1.1-.2.3-.2.4 0-.2.1-.4.2-.4zM62.4 214.6c.1.1.1.3.2.4-1.1 1.6-2.3 3.2-3.5 4.8-2 2.6-4.5 4.9-6.3 7.6l-.3-.2c.1-.1.1-.1.1-.2l.1.1v-.1c.1-.1.2-.2.2-.3.5-.7 1.1-1.4 1.7-2.1 2.9-3.2 5.3-6.6 7.8-10 0-.1 0-.1 0 0zM61.4 172.5c-.1 0-.2.1-.2.1-.1-.1-.1-.2 0-.3.1-.1.1-.1.2-.1s.2 0 .3.1c-.1.1-.2.2-.3.2zM60.3 182.2c.1.2.2.5.3.7 0 2.6-.3 5.2-.9 7.8 0 .1-.1.2-.2.2h-.1s0-.1-.1-.1v-.1c.5-3 .8-6 .7-9.1l.3.6z"/><path class="st11" d="M60.5 182.4v.6c-.1-.2-.2-.5-.3-.7v-.5c.1.1.2.3.3.6z"/><path class="st11" d="M60.5 181.8v.6c-.1-.2-.2-.5-.3-.7v-.4c.1 0 .1 0 .1.1.1.1.1.2.2.4z"/><path class="st11" d="M60.2 181.3c-.1 0-.2 0-.2.1-.1-1.2-.2-2.3-.5-3.5 0 0 0-.1.1-.1h.1c.5 1.2.8 2.6.9 3.9-.1-.1-.1-.3-.2-.4h-.2z"/><path class="st11" d="M60.2 181.7v.5c-.1-.2-.2-.5-.3-.7v-.1c.1-.1.2-.1.2-.1.1.1.1.3.1.4z"/><path class="st11" d="M60 181.4c-.1.1-.1 0 0 0zM55.9 189v-.3h.1c.6.3 1.3.7 1.9 1.1.5.3 1 .6 1.4 1 0 0 0 .1.1.1.1.1 0 .3-.1.4H59c-.6-.4-1.2-.8-1.8-1.1-.4-.2-.8-.4-1.2-.7-.1-.2-.1-.3-.1-.5zM59.2 190.8c.1 0 .1 0 0 0 .1 0 0 0 0 0zM58.2 167.7v-.2l.3.1h.1c.1.1 0 .3-.2.3h-.1c-.1 0-.1-.1-.1-.2z"/><path class="st11" d="M58.2 167.5v.2c-11.5-4.5-24.1-3.7-36-1.7-.1-.1-.2-.1-.3 0l-.2.1c0-.1.1-.1.1-.2 12-2.5 24.9-2.9 36.4 1.6z"/><path class="st11" d="M58.2 167.7c0 .1.1.2.1.2-11.9-4.3-23.8-3.3-36-1.7 0-.1 0-.1-.1-.2 11.9-2 24.5-2.8 36 1.7zM57.9 247.5l-.3-.1c.1-.1.2-.1.3-.2.2-.1.5.1.4.3h-.4z"/><path class="st11" d="M58.2 247.6c-.1.1-.1.2-.2.3l-.4-.1.3-.3c.1 0 .2 0 .3.1z"/><path class="st11" d="M57.9 247.5l-.3.3c-.1-.1-.3-.1-.4-.1.1-.1.2-.2.4-.2h.3zM57.6 247.8l.4.1c-.5.6-1.1 1.2-1.6 1.8l-.8.8H55c-.1 0-.1 0-.2.1.9-.9 1.8-1.9 2.8-2.8z"/><path class="st11" d="M57.2 247.7c.1 0 .3.1.4.1-1 .9-1.8 1.9-2.8 2.8-.1 0-.2.1-.2.2l-.4.4c-.1-.2-.1-.3-.2-.5.6-.5 1.1-1 1.6-1.6.5-.6 1-1 1.6-1.4zM57.5 247.4c-.1.1-.3.1-.4.2-.8-.3-1.6-.3-2.4-.2-.2.1-.4.1-.5 0 0-.1 0-.3.1-.4l.6-.2c.9.2 1.7.4 2.6.6z"/><path class="st11" d="M57.2 247.7c-.5.4-1 .9-1.5 1.4l-1.6 1.6c-.2-1 .1-2.1.2-3.2.2.1.4.1.5 0 .8-.2 1.6-.1 2.4.2zM55.7 188.7c-.1.1-.2.2-.1.4-.1.8-.1 1.6-.1 2.3-.1-.2-.2-.3-.3-.5-.1-.9 0-1.8.4-2.6.1-.2.5-.2.4.1v.3c-.1-.1-.2 0-.3 0z"/><path class="st11" d="M55.9 189v.4l-.3-.3v-.1c0-.1 0-.2.1-.4.1-.1.2-.1.3-.1-.1.3-.1.4-.1.5z"/><path class="st11" d="M55.6 189.2c.1.1.2.2.3.2 0 .8 0 1.7-.1 2.5 0 .2-.3.4-.5.2-1.5-1.9-2.6-4.2-3.8-6.3v-.4c1.3 2.1 2.3 4.2 3.7 6.2v.4l.2-.1v.1-.1c.1 0 .2 0 .2-.1-.1-.1-.2-.2-.2-.4 0-.7.1-1.5.2-2.2z"/><path class="st11" d="M55.5 191.5c.1.1.2.3.2.4-.1 0-.2 0-.2.1v-.5zM55.7 188.7c0 .1-.1.2-.1.4-.1-.1 0-.3.1-.4zM54.9 246.8l-.6.2v-.2c0-.1 0-.1-.1-.2.3-.1.6-.3.9-.4.1.1.3.2.4.3-.1.1-.4.2-.6.3zM55.1 250.9l-.3.3c-.2-.1-.3-.3-.2-.5l.2-.2h.7c-.1.2-.2.3-.4.4zM55.5 191.9zM55.5 191.5v.4l-.3-.3c-.1-.1 0-.4 0-.6.1.1.2.3.3.5z"/><path class="st11" d="M55.2 191.6l.3.3-.2.1c-.1-.2-.1-.3-.1-.4zM55.2 191v.6c-1.5-2-2.4-4.1-3.7-6.2v-.3s0-.1-.1-.1c1.4 1.9 2.5 4 3.8 6zM55.1 246.1c-.3.2-.6.3-.9.4-.1-.1-.2-.1-.3-.1 0-.1.1-.2.1-.3.3-.1.5-.2.8-.3.1.1.3.2.3.3zM53.9 228.7c4.1 4.5-5.2 10.5-7.4 8.1.3.1.7.2 1 .1 0 0 .1-.1 0-.1h-.1l-.1-.1c3.1 1.1 9.6-4.3 6.4-7.9l.2-.1z"/><path class="st11" d="M46.6 236.9c2.1 2.3 11.5-3.6 7.4-8.1 0-.1.1-.2.2-.3l.6.9c1.2 2.2.1 4.8-2.2 6.6-1 .8-6.2 3.4-6.5.7.1 0 .3.1.5.2zM54.8 245.9c-.2.1-.5.2-.8.3.2-.3.5-.4.8-.3zM54.8 250.6c-.1.1-.1.2-.2.2 0-.1.1-.2.2-.2z"/><path class="st11" d="M54.8 251.3l-.6.6c-.2.2-.5.2-.7 0l-.1-.1c-.1-.2-.2-.4-.2-.6.2 0 .2-.4 0-.4h-.1c-.1-1.1 0-2.3.4-3.3l.5-.2c-.3 1.2-.7 2.7-.3 3.8l-.2.1h.2c0 .1.1.2.2.3l.3-.3h.1v-.1c.1-.1.3-.2.4-.4-.1.3-.1.5.1.6zM53.9 247.1c-.1-.1-.1-.2-.1-.4l.4-.1c0 .1.1.1.1.2v.2l-.4.1c.1 0 .1 0 0 0zM54 247.1l.3-.1c0 .1 0 .3-.1.4-.1 0-.2-.1-.2-.3z"/><path class="st11" d="M54.3 246.6l-.4.1v-.2c.1 0 .3 0 .4.1zM54.2 251.1v.1h-.1l.1-.1zM54.2 251.1c-.3.1-.4 0-.6 0v-.2c.2-.1.3-.3.4-.4 0 .3.1.5.2.6zM54.1 251.2l-.3.3c-.1-.1-.1-.2-.2-.3h.5zM53.9 228.3c.1.1.2.1.2.2-.1.1-.1.2-.2.3-.1-.1-.1-.2-.2-.2 0-.2.1-.3.2-.3z"/><path class="st11" d="M54 247.1c0 .1.1.2.3.3-.2 1.1-.5 2.2-.2 3.2l-.4.4c-.4-1.1-.1-2.7.3-3.9zM53.7 229c3.1 3.6-3.3 9-6.4 7.9h-.1l-.5-.3c-.1-.1-.3-.2-.4-.4l-.1-.1c-1.7-2.9 1.1-10.9 6-8.3.4.2.8.5 1.1.8-.1.1-.1.2-.2.2-.2.3.3.7.5.3.1 0 .1-.1.1-.1zM54 247.1c-.1 0-.1 0 0 0-.1 0 0 0 0 0zM53.9 247.1l-.5.2c.1-.2.1-.4.2-.5.1 0 .1 0 .2-.1.1.1.1.3.1.4z"/><path class="st11" d="M54.1 246.2c-.1.1-.1.2-.1.3-.1 0-.1.1-.2.1 0 .1-.1.1-.1.2-2.2 1-4.6 1.5-7 1.6-1.4 0-2.7-.3-4-.7-.2-.4-.6-.8-1-1 2.7 1.4 5.8 1.6 8.7.8 1.2-.4 2.5-.8 3.7-1.3zM53.9 228.7l-.2.2c-.1-.1-.1-.2-.2-.2 0-.1.1-.2.2-.2l.2.2z"/><path class="st11" d="M53.9 246.5v.2c-.1 0-.1.1-.2.1 0-.1 0-.1.1-.2l.1-.1zM53.9 228.3c-.1.1-.1.2-.2.2l-.2-.2c.1-.1.1-.2.2-.3 0 .1.1.2.2.3zM53.5 228.7l.2.2s0 .1-.1.1c-.2.3-.8 0-.5-.3.1-.1.1-.2.2-.2l.2.2z"/><path class="st11" d="M53.7 228.5l-.2.2-.2-.2c0-.1.1-.1.2-.2 0 .1.1.1.2.2zM53.2 227.6c.2.1.3.3.5.4-.1.1-.1.2-.2.3-.3-.2-.5-.4-.8-.6l-.1-.1c.1 0 .2-.1.2-.1s0-.1.1-.1c0 .1.2.1.3.2zM53.6 251v.2h-.2l.2-.2zM53.7 246.8c-.1.2-.1.4-.2.5-3.4 1.3-7.2 2.2-10.7.8-.3-.1-.6-.2-.8-.4.2.1.5.1.7.1.1 0 .1-.1.1-.1 1.3.5 2.6.7 4 .7 2.3-.1 4.7-.6 6.9-1.6z"/><path class="st11" d="M53.5 228.3c0 .1-.1.1-.2.2-.3-.3-.7-.6-1.1-.8-4.8-2.6-7.7 5.4-6 8.2-.1 0-.2.1-.2.2-2-2.7 1-11.6 6.1-8.9v.2c.1.1.3.2.4.1l.1.1c.3.2.6.4.9.7zM53.1 250.9v-.3h.1c.2.1.2.4 0 .4-.1.1-.1 0-.1-.1z"/><path class="st11" d="M53.1 250.9v.2c-2.8.5-6 0-8.9-.4-1.3-.2-3.9-.1-4.9-1.2.1 0 .1-.1.1-.2v-.1s0-.1.1-.1c0 0 .1-.1.1 0 .4 1 4.6.9 5.6 1 2.5.2 5.4-.3 7.8.5 0 .2.1.2.1.3z"/><path class="st16" d="M53.5 247.3c-.4 1.1-.5 2.2-.4 3.3-2.4-.8-5.3-.3-7.8-.5-1-.1-5.2 0-5.6-1 0-.1-.1 0-.1 0s0 .1-.1.1c0-.1-.1-.2-.1-.2.4-.5.7-1.1 1-1.6v-.2c.5.2 1 .4 1.5.5.3.1.6.3.8.4 3.5 1.5 7.3.5 10.8-.8z"/><path class="st11" d="M52.5 227.2l.3.2-.1.1c0 .1-.1.1-.2.1-.2-.1-.3-.2-.5-.3-.1-.1 0-.3.1-.3l.4.2z"/><path class="st11" d="M52.1 227c.1-.1.4-.1.5 0 0 .1-.1.1-.1.2l-.4-.2zM52.5 227.6c-.2.1-.3 0-.4-.1v-.1-.1c.1.1.3.2.4.3zM51.8 197.3zm.4-.5c.6.6-.3 1.4-.9.9-2-1.9-5.3-1.5-6.3 1.3-.2.5-.9.3-.7-.2 1-3.2 5.4-4.4 7.9-2zM52.1 227c-.1.1-.1.2-.1.3-5.1-2.7-8.1 6.2-6.1 8.9v.4c-1.5-1.1-1-4.5-.4-6.1 1.3-2.9 3.9-4.8 6.6-3.5zM51.8 197.3c-.1 0 0 0 0 0zM51.3 185.5c.1.1.1.2.2.3 0 2.3-.2 4.5-.7 6.8 0 .1-.2.2-.3.1h-.1l-.1-.1c-.4-2.5.7-5 .7-7.5l.3.4z"/><path class="st11" d="M51.5 185.4v.4c-.1-.1-.1-.2-.2-.3-.1-.1 0-.3 0-.4 0 .1.1.1.2.3z"/><path class="st11" d="M51.5 185v.3c-.1-.1-.1-.2-.2-.3v.4l-.2-.3v-.1h.4zM51.4 184.9s-.1 0 0 0c-.1 0 0 0 0 0zM51.1 184.9zM51.1 185v0zM45.1 185.4c0-.1-.1-.2-.1-.3h-.1c0-.1-.1-.2-.1-.2 0-.1.1-.1.2-.1 1 1 1.6 2.5 2.2 3.6.9 1.6 2 3 3.3 4.3 0 .1.1.1.2.2.2.2 0 .4-.2.3-1.7-.8-2.8-2.3-3.6-3.9-.4-.8-1-1.7-1.5-2.7-.2-.4-.2-.8-.3-1.2zM47.6 237c-.3.1-.7 0-1-.1-.1-.1-.2-.2-.2-.3.3.2.7.4 1.2.4h-.1c0-.1.1 0 .1 0z"/><path class="st11" d="M47.5 236.9l.1.1c-.5 0-.9-.1-1.3-.4-.1-.1-.1-.2-.1-.4l.2.1c.3.3.7.6 1.1.6z"/><path class="st11" d="M47.3 236.8l.1.1c-.4-.1-.8-.3-1-.6l.3.2.6.3z"/><path class="st11" d="M46.7 236.5l.5.3c-.1-.1-.3-.2-.5-.3zM46.7 236.5l-.3-.2c-.1-.1-.2-.2-.2-.3.1 0 .1 0 .1.1l.4.4z"/><path class="st11" d="M46.4 236.3l-.2-.1c0 .1.1.2.1.4l-.3-.3c0-.1.1-.2.2-.2s.1.1.2.2z"/><path class="st11" d="M46.3 236.5c.1.1.1.2.2.3-.2-.1-.4-.1-.5-.3v-.4c.1.2.2.3.3.4zM42.2 196.1v.3c.1 0 .1 0 .2-.1 0 .1.1.1.1.2v-.2c.1 0 .1-.1.2-.1-.1-.1-.1-.2-.2-.2.6-3.3 2.3-6.9 2.4-9.9l.3.6c0 1.2-.2 2.3-.6 3.4-.6 2.2-1.3 4.3-1.8 6.5-.1.2-.3.3-.5.3-.1 0-.1 0-.2-.1-.3-.3-.5-.7-.7-1.1-.1-.8-.3-1.5-.7-2.2 0-.1-.1-.1-.2-.1l-.1.1c-.2-.8-.4-1.6-.4-2.4 0-.1 0-.1.1-.1 0 0 .1 0 .1.1.7 1.5 1.1 3.2 2 4.6.1 0 .1.2 0 .4zM44.8 221.8v-.1c0-.1 0-.1-.1-.1-.2-.8-.5-1.7-.7-2.6.1.1.2.1.3.1h.2c.3.9.6 1.8.8 2.8.1.2-.1.5-.3.5-.2 0-.3 0-.4-.1 0-.1.1-.3.2-.5zM45.1 185.4c.1.4.2.8.2 1.2l-.3-.6v-.8c0 .1 0 .2.1.2zM44.9 185.2c.1 0 .1 0 0 0 0 .1.1.2.1.3 0-.1 0-.2-.1-.3z"/><path class="st11" d="M45 186c0 3-1.8 6.7-2.4 9.9-.1-.1-.2-.3-.3-.4.3-1.7.9-3.3 1.4-5 .5-1.7.6-3.3 1.1-5 0 .2.1.4.2.5z"/><path class="st11" d="M44.9 185.2v.8c-.1-.1-.1-.3-.2-.4.1-.1.1-.3.2-.4zM44.9 184.8c-.1 0-.1.1-.2.1-.1-.1-.2-.3-.2-.4.2.1.3.2.4.3z"/><path class="st11" d="M44.9 185.2c0 .1-.1.3-.1.4-.1-.2-.1-.3-.2-.5 0-.1.1-.1.2-.1 0 0 .1.1.1.2zM44.7 221.6c.1 0 .1 0 .1.1v.1c-.1-.1-.1-.1-.1-.2zM44.4 222c0-.1-.1-.2-.1-.3l.3-.2c0 .1 0 .2.1.3-.1.2-.2.3-.3.5 0 0-.1-.1-.1-.2.1 0 .1 0 .1-.1zM44.5 184.5c.1.1.2.3.2.4-.1 0-.1.1-.2.1v-.5c0 .1 0 0 0 0z"/><path class="st11" d="M44.7 221.6l-.4.2c-.3-1-.5-2-.8-3-.3-1-.4-2-.7-3 .4 1 .7 2 1.1 3.1v.2c.3.8.6 1.6.8 2.5z"/><path class="st19" d="M44.6 185.1c0 .2.1.4.2.5-.4 1.6-.6 3.3-1.1 5-.5 1.6-1.1 3.3-1.4 5-.9-1.4-1.3-3.1-2-4.6 0 0-.1-.1-.1 0l-.1.1c.1.8.2 1.6.4 2.4v.1c.2 2.1.3 4.1.2 6.2.1 2.5.7 5 1.1 7.5-1-.2-1.9-.5-2.9-.9s-1.7-1.1-2.7-1.6c-.1-.2-.1-.5-.2-.7s-.3-.2-.3 0c0 1.5.5 2.9.9 4.4-2.4-2.7-4.4-5.7-6.1-9 4.8-4.9 9-10.2 14.1-14.4z"/><path class="st11" d="M44.5 184.6c0 .2.1.3.1.5-5.1 4.3-9.3 9.6-13.9 14.4-.1-.1-.1-.3-.2-.4 1.3-1.4 2.5-2.7 3.8-4.1 2.3-2.4 4.5-4.9 6.7-7.3 1.1-1.1 2.2-2.2 3.5-3.1zM44.5 184.5zM44.5 184.5c0 .1 0 0 0 0-.1 0-.1 0 0 0-.1 0 0 0 0 0zM44.4 222.1c0 .1 0 .1.1.2-.4.5-.9.9-1.5 1.1v-.3c0-.1-.1-.1-.2-.1h-.1c-.2.2-.3.4-.4.6-.6.2-1.3.4-1.9.6-.1 0-.2 0-.3.1-.1 0-.1-.1-.2-.1-.2-.1-.4.1-.4.3-1.8.5-3.6.7-5.5.5-.1 0-.2-.2-.2-.3v-.1.2c0 .2.4.2.5 0v-.1c2.5 0 8.1-.9 10-2.7.1 0 .1.1.1.1zM44.3 218.8c0 .1.1.2.1.3h-.2c-.1 0-.2 0-.3-.1v-.2c0-.2.1-.3.3-.3.1.1.1.2.1.3z"/><path class="st11" d="M44.3 221.7c0 .1 0 .2.1.3-2 1.8-7.5 2.7-10 2.7 0-.1 0-.2.1-.3 1.8-.1 3.5-.4 5.2-.7 1.5-.6 3.1-1.2 4.6-2zM44.2 218.5c-.2 0-.3.2-.3.3-.3-1.1-.7-2.1-1.1-3.1.6.9 1 1.8 1.4 2.8zM43.9 218.8v0zM41.9 226.6s.1 0 0 0c.2.1.3.2.4.3.1-.1.1-.2.1-.3h.2l-.1-.1c.3-.9.1-2 .3-2.9l.3-.1c.1.6.1 1.2 0 1.7 0 .7-.1 1.3-.4 1.9-.1.2-.4.3-.6.2 0 0-.1 0-.1-.1-1-.7-1.8-1.6-2.4-2.6v-.1c.2 0 .4-.1.6-.2.7.5 1.4 1.1 2 1.8-.1.2-.2.3-.3.5z"/><path class="st11" d="M42.7 223.5c-.1 0-.3.1-.4.2.1-.2.2-.4.4-.6.1-.1.2 0 .2 0v.4h-.2zM42.6 196c.1.1.1.2.2.2-.1 0-.1 0-.2.1v-.3zM42.3 247.5c.2.1.3.1.5.2 0 .1-.1.1-.1.2-.2 0-.5 0-.7-.1-.7-.3-1.4-.7-2.1-1.1.6.1 1.1.3 1.6.5h.1c.2.1.4.2.7.3-.1-.1-.1 0 0 0z"/><path class="st11" d="M42.7 247.6c-.2 0-.3-.1-.5-.1 0 0-.1-.1-.2-.1-.2-.1-.4-.2-.7-.3h-.1c-.6-.3-1.2-.6-1.8-1 .6.1 1.3.2 1.9.5l.2.1c.6.2 1 .5 1.2.9zM42.3 223.7c.1 0 .3-.1.4-.2-.2.9.1 1.9-.3 2.9-.1-.1-.3-.2-.4-.3.2-.8.1-1.7.3-2.4zM42.6 226.5h-.2s0-.1.1-.1l.1.1zM42.6 196v.3h-.1l-.2-.2c0-.2 0-.3.1-.5 0 .1.1.3.2.4zM42.5 196.3v.2s-.1-.1-.1-.2h.1z"/><path class="st11" d="M42.5 226.4s0 .1-.1.1H42c.1-.2.1-.3.2-.5 0 .2.1.3.3.4zM42.4 226.6c0 .1-.1.2-.1.3-.1-.1-.2-.2-.3-.2l.4-.1zM42.4 206.4v.2l-.3.1v-.2l.3-.1z"/><path class="st11" d="M42.4 206.1v.3l-.3.1v-.3c.1 0 .2-.1.3-.1zM42.4 196.3c-.1 0-.1 0-.2.1v-.3l.2.2zM42.1 206.7l.3-.1v.7h-.2c-.1-.2-.1-.4-.1-.6z"/><path class="st11" d="M42.4 206.1c-.1 0-.2.1-.3.1-.2-2.2-.7-4.3-.8-6.5-.1-1.4 0-3.5-.2-5 .1.3.3.6.5.9.1 1.2 0 2.4.1 3.4.1 2.4.7 4.7.7 7.1zM42.4 207.3c.3.2.1.8-.3.7-.9-.2-1.8-.4-2.6-.7.1 0 .2-.1.3-.2v-.1c.7.3 1.4.5 2.2.6v.1c0 .2.3.1.3 0 0-.2.1-.3.1-.4z"/><path class="st11" d="M42.4 207.3v.3c0 .1-.3.2-.3 0v-.1h.2v-.4l.1.2c-.1-.1-.1-.1 0 0z"/><path class="st18" d="M42.3 223.7c-.2.7-.1 1.6-.3 2.4-.6-.7-1.2-1.3-2-1.8.1 0 .2 0 .3-.1.7-.1 1.4-.3 2-.5z"/><path class="st11" d="M42.1 207.2v.4h-.2c0-.1 0-.3-.1-.4h.3zM42.1 206.7v.5h-.2c-.4-2.5-1-5-1.1-7.5 0-2.1 0-4.1-.3-6.2v-.1c.1.4.3.8.5 1.2.2 1.5.1 3.6.2 5 .1 2.2.7 4.3.8 6.5h-.1c-.1.1-.2.2-.1.3.1.3.2.3.3.3z"/><path class="st11" d="M42.1 206.5v.2c-.1 0-.3-.1-.3-.2s0-.2.1-.3h.1c.1.1.1.2.1.3zM41.9 207.2c0 .1 0 .3.1.4-.7-.1-1.5-.3-2.2-.6h-.1c-1.2-.5-2.3-1.2-3.2-2v-.2c.9.5 1.7 1.2 2.7 1.6.8.3 1.7.6 2.7.8zM42 226.6c-.1 0-.1 0 0 0-.1 0-.1 0 0 0zM41.5 247.1c.2.1.4.2.7.3-.3-.1-.5-.2-.7-.3zM41.5 246.6c-.6-.2-1.2-.4-1.9-.5-.5-.3-.9-.6-1.4-.9-2.2-1.6-4.1-3.5-5.7-5.6 0-.2.1-.3.1-.5v-.2c1.2 1.7 2.6 3.3 4.2 4.5 1.4 1.3 3 2.3 4.7 3.2zM41 194.6c-.2-.4-.3-.8-.4-1.2 0-.1.1-.1.1-.1s.1 0 .1.1c.4.7.7 1.4.7 2.2-.2-.3-.3-.6-.5-1zM41.9 247.7c-.5-.1-1-.3-1.5-.5 0-.2-.1-.3-.3-.3H40c-.1 0-.1.1-.2.1-.9-.2-1.8-.4-2.8-.4v-.3c0-.1-.1-.1-.2-.1 1 .1 2 .2 3 .4.7.4 1.4.8 2.1 1.1z"/><path class="st11" d="M37.3 250.9c-.1-.1-.1-.3-.2-.4 1-1 1.5-2.6 2.7-3.4l.3.1c.1 0 .2 0 .3.1v.2c-.3.5-.7 1.1-1 1.6v-.2c0-.1-.2-.1-.2 0v.5c-.5.8-1.2 1.5-1.9 2.1-.2.1-.4.1-.5-.1-.5-.8-.6-1.8-.6-2.7 0-.7.1-1.4.3-2.1h.3c-.3 1.1-.5 3 .1 4.1 0 0 0 .1-.1.1h.1c0 .1.1.2.1.3 0 0 .1-.1.3-.2zM40.4 247.2c-.1 0-.2-.1-.3-.1l-.3-.1c.1 0 .1-.1.2-.1.2-.1.4 0 .4.1v.2zM39.6 246.1c.6.4 1.2.7 1.8 1-.5-.2-1.1-.4-1.6-.5-.3-.2-.7-.4-1-.6l.8.1zM39.9 224.2c.1 0 .1.1.2.1-.2.1-.4.1-.6.2-.1-.2.2-.4.4-.3zM39.2 207.2l-.4-.2c.3-.1.6-.1.9 0h.1v.1c-.1.1-.2.1-.3.2-.1-.1-.2-.1-.3-.1zM39.8 207h-.1.1z"/><path class="st11" d="M38.8 246c.3.2.6.4 1 .6-1-.2-2-.3-3-.4h-.1c-2-.1-3.9-.1-5.4-.1v-.2c2.3-.3 4.7-.3 7 .1h.5zM37.4 208.8c1 .7 2.3 1.8 2.2 3 0 .1-.1.2-.2.1l.1-.1v-.1c.1-.2 0-.4-.1-.5h-.1c-.4-.8-1-1.5-1.7-2.1-.2 0-.2-.1-.2-.3zM39.7 207c-.3-.1-.6-.1-.9 0-.8-.4-1.6-.9-2.2-1.6 0-.1-.1-.3-.1-.4.9.8 2 1.5 3.2 2z"/><path class="st11" d="M39.2 211.3c.2 0 .3.2.3.4v.2l-.3-.6zM39.2 207.2c.1 0 .2.1.3.1-.7.3-1.5.5-2.3.5v-.1c.7-.2 1.3-.4 2-.5zM39.4 249.4c0 .1 0 .1-.1.2 0-.1 0-.2.1-.2-.1-.1 0-.1 0-.1v.1zM39.1 211.7c-.1-.1-.1-.2-.2-.3.1-.1.1-.1.2-.1.1.2.2.4.2.6l-.1.1c0-.1 0-.2-.1-.3z"/><path class="st11" d="M39.2 249.2c0-.1.1-.1.1-.2 0 .1 0 .2.1.2 0 0 0 .1-.1.1v.2c-.1 0-.2 0-.2-.1v-.1s.1 0 .1-.1z"/><path class="st11" d="M39.2 249.2c0 .1-.1.1-.1.2v-.5c0-.1.2-.1.2 0v.2l-.1.1zM39.3 212c-1.4 2-2.6 4-3.5 6.3-.7 2-.9 4-1.4 6.1h-.3c0-.6 0-1.3.1-1.9.1-.1.2-.1.3-.2.1-.1.1-.2 0-.2 0-.1-.1-.1-.2-.1.7-3.8 2.3-7.3 4.8-10.3 0 .1.1.2.2.3zM38.8 207l.4.2c-.7.1-1.3.3-2 .5v-.1c.5-.3 1-.5 1.6-.6zM38.4 210.6c0-.1 0-.1 0 0v-.2H38.1c-.2-.3-.5-.5-.7-.8.1 0 .1-.1.1-.2v-.1c.7.6 1.3 1.3 1.7 2.1-.1 0-.2 0-.2.1-.2-.2-.4-.5-.6-.7v-.2z"/><path class="st11" d="M38.9 211.5c.1.1.1.2.2.3-2.5 2.9-4.1 6.5-4.8 10.3-.2.1-.4.2-.6.4.3-4.1 2.7-8.3 5.2-11zM39.6 246.1l-.9-.1c-2.2-1.5-4.1-3.2-5.8-5.2-.2-.2-.4-.5-.5-.7 0-.2.1-.4.1-.5 1.6 2.2 3.5 4.1 5.7 5.6.5.3 1 .6 1.4.9z"/><path class="st17" d="M38.8 246h-.4c-2.3-.4-4.7-.4-7-.1.2-1.1.3-2.2.5-3.3.2-.8.4-1.6.5-2.5.2.2.3.5.5.7 1.8 2 3.7 3.7 5.9 5.2z"/><path class="st11" d="M38.4 210.6c0-.1 0-.1 0 0 0-.1 0-.1 0 0zM38.4 210.5c0 .1 0 .2-.1.2 0-.1-.1-.1-.1-.2 0 0 .1-.1.2 0 0-.1 0-.1 0 0z"/><path class="st11" d="M38.4 210.4c-.1 0-.1.1-.2.1 0-.1-.1-.1-.1-.2 0 0 .1 0 .3.1z"/><path class="st11" d="M38.2 210.5c.1.1.1.1.1.2-.6.6-1.3 1.2-2 1.8-.4.5-1 .9-1.6 1.2-.1 0-.3-.1-.3-.2v-.1c0-.1 0-.1.1-.2.1.1.2 0 .2-.1v-.1c.4-.5.8-.9 1.3-1.2.7-.5 1.3-1 2.1-1.4 0 0 0 .1.1.1zM27.8 187c-.1-.2-.3-.4-.5-.5h.1s.1-.3-.1-.2h-.2c-.3-.4-.4-.9-.5-1.5.1 0 .1-.1.2-.1v-.1c.6 2.6 3.3 3.6 5.8 3.4 1-.1 2-.2 3-.5 1.3-.1 1.3-.9 0-2.5-2.4-.7-4.5-.4-6.9-.1-.1 0-.2 0-.2-.1s0-.1.1-.2h.2c2.9-.9 6.5-1.1 8.9.9 1.5 1.2-1.2 2.4-1.9 2.6-2.6.6-5.4.8-7.8-.6-.1-.3-.2-.4-.2-.5zM37.2 209.3l.2-.2.1.1v.1c0 .1 0 .2-.1.2s-.2-.1-.2-.2z"/><path class="st11" d="M37.4 208.8c0 .1.1.3.1.4l-.1-.1c-.1-.1-.2-.2-.2-.3v-.3c0 .2.1.2.2.3z"/><path class="st19" d="M37.3 209.6c.2.3.5.5.7.8-.7.4-1.4.9-2.1 1.4-.5.3-1 .7-1.3 1.2-.3-.8-.7-1.5-1.1-2.2-.5-1-.9-2.1-1.3-3.1l.1-.1c.1-.1-.1-.3-.2-.2l-.1.1c-1.4 1.2-2.3 2.9-3.4 4.3-1.3-2.8-1.2-5.7-1.6-8.7.2-.2.5-.4.7-.6-.7 3.1 3.8 4.3 6.3 4.2h.2c.9 1.1 1.8 2.1 2.9 3 0-.1.1-.1.2-.1z"/><path class="st11" d="M37.2 208.9c.1.1.1.2.2.3-.1-.1-.1-.2-.2-.3z"/><path class="st11" d="M37.4 209.2c-.1 0-.1.1-.2.1v-.3l.2.2z"/><path class="st11" d="M37.2 209.3c.1.1.1.2.2.2-.1.1-.2.1-.3 0-1.1-.9-2-1.9-2.9-3 .1 0 .2-.2.2-.3.8 1 1.6 1.9 2.5 2.8 0 .1.1.3.1.4l.2-.1zM37 246.7c.9.1 1.9.2 2.8.4-1.2.8-1.7 2.4-2.7 3.4-.2-.7-.3-1.4-.3-2.1 0-.5.2-1.2.2-1.7zM37.3 250.9c-.1.1 0 0 0 0zM37.3 250.9h-.5s0-.1-.1-.1l.3-.3c.1.1.2.3.3.4zM37.2 207.8c.1.3.1.7.2 1-.1-.1-.2-.1-.3-.2-.2-1.3-.8-2.5-1-3.8.1.2.3.4.4.5.2.7.4 1.5.6 2.2H37c-.1 0 0 .2 0 .2l.2.1z"/><path class="st11" d="M37.2 250.9l-.2.2c-.1-.1-.1-.2-.1-.3.1.1.2.1.3.1zM37.2 207.7v.1h-.1c-.1 0-.1-.1 0-.2h.1c-.1 0 0 .1 0 .1zM37.2 209.3zM37.2 209v.3l-.1-.1c-.1-.1-.1-.2-.2-.2v-.2l.1-.1s.1.1.2.3zM37.1 209.2l.1.1-.1-.1zM37.2 208.9c-.1-.1-.2-.2-.2-.3H37.3c-.2.1-.2.2-.1.3z"/><path class="st11" d="M37.2 209.3l-.2.1c0-.1 0-.3-.1-.4l.1.1.2.2zM36.1 204.6c-.1 0-.1 0 0 0-.1.1 0 .2 0 .2.2 1.3.8 2.5 1 3.8H37h-.2l-.2-.2c-.4-1.4-.9-2.8-.9-4.4 0-.2.3-.3.3 0 0 .2.1.5.2.7.1 0 0-.1-.1-.1zM37.1 250.5l-.3.3c-.5-1.1-.4-3-.1-4.1h.3c0 .6-.2 1.2-.2 1.8 0 .6.1 1.3.3 2z"/><path class="st11" d="M36.9 208.9c0 .1.1.2.2.2l-.1-.1c-.1 0-.1 0-.1-.1zM36.7 246.6h-.3c.1-.1.1-.2.2-.3l.1-.1h.1c.1 0 .2.1.2.1v.3h-.3zM36.8 208.4c0 .1.1.1.2.2 0 0-.1 0-.1.1-.1-.1-.1-.2-.1-.3z"/><path class="st11" d="M36.9 208.9c0 .1 0 .1 0 0-.9-.8-1.7-1.7-2.5-2.7 0-.2-.1-.3-.3-.3-1.5-1.9-2.7-4-3.5-6.3l.2-.2c1.6 3.2 3.7 6.3 6.1 9 0 .1 0 .2.1.3-.2 0-.2.1-.1.2z"/><path class="st11" d="M36.9 208.9c-.1-.1-.1-.2 0-.2-.1.1 0 .1 0 .2zM36.8 250.9h-.1s.1-.1.1 0c0-.1 0-.1 0 0zM36.7 246.2s-.1 0-.1.1c-.1.1-.2.2-.2.3-1.7-.1-3.6 0-5.3-.3.1 0 .3 0 .3-.1 1.4-.1 3.4-.1 5.3 0zM36.4 205c0 .1.1.3.1.4-.1-.2-.3-.4-.4-.5v-.2l.3.3zM36.4 204.7v.2l-.3-.3v-.1c.1.1.2.2.3.2zM36.1 204.7v.2c0-.1-.1-.1-.1-.2s0-.1.1 0c0-.1 0-.1 0 0z"/><path class="st21" d="M35.5 184.8c1.3 1.6 1.3 2.4 0 2.5-1 .2-2 .4-3 .5-2.6.2-5.3-.7-5.8-3.4 0-.3 0-.6-.1-.8-.1-2.3.4-4.6 1.5-6.7.4-.8 4.2-4.5 4.7-3.2 1.5 3.6-1.4 8.3-4.2 10.4-.1.1-.1.1 0 .2 0 0 .1 0 .1.1h-.2c-.1 0-.1.1-.1.2s.1.1.2.1c2.5-.3 4.5-.5 6.9.1z"/><path class="st11" d="M34.5 213.1s0-.1.1-.1v.1c.1.1 0 .2-.1 0z"/><path class="st11" d="M34.6 213l-.1.1c-1.1-1.6-1.9-3.4-2.4-5.3l.1-.2c.4 1.1.8 2.1 1.3 3.1.4.8.8 1.6 1.1 2.3zM34.3 222.2v-.2c.1 0 .2 0 .2.1s0 .2-.1.2c-.1.1-.2.1-.3.2.2-.1.2-.2.2-.3z"/><path class="st11" d="M34.5 213.1c-1.4-1.2-2.1-3.3-2.6-5.1 0-.1.1-.1.1-.2.6 1.9 1.5 3.7 2.5 5.3zM34.4 224.3c0 .1 0 .2-.1.3h-.2v-.3c.1.1.2.1.3 0zM33.9 206.2c-.1-.1-.2-.3-.3-.4h.5l.3.3c0 .1-.1.3-.2.3-.2.1-.2 0-.3-.2z"/><path class="st11" d="M34.4 224.7c0 .3-.4.3-.5.1v-.2c.1-.1.2-.2.3-.2v.3h.2zM34.3 206.2l-.3-.3c.2 0 .3.1.3.3zM34.3 222v.2c-.2.1-.4.2-.6.4v-.2c.2-.1.4-.3.6-.4z"/><path class="st11" d="M34.3 222.2v.3c-.2.1-.4.3-.5.4v-.3c.1-.1.3-.3.5-.4zM34.2 206.6H34c-2.6.2-7-1-6.3-4.1.1 0 .1-.1.2-.2-.6 3.2 3.5 3.9 6 4 .1.1.1.2.3.3z"/><path class="st11" d="M34.2 222.5c-.1.6-.1 1.3-.1 1.9-.1 0-.2.1-.3.2-.1-.5-.1-1.1-.1-1.6l.5-.5zM34.1 205.9c-.1 0-.1 0 0 0h-.5c-1.4-1.8-2.4-3.9-3.2-6l.2-.2c.8 2.2 2 4.3 3.5 6.2z"/><path class="st11" d="M33.6 205.8c.1.2.2.3.3.4-2.5 0-6.6-.8-6-4 .1 0 .1-.1.2-.2-.3 3.2 3 3.6 5.5 3.8zM33.7 222.4v.2c-1.1.9-2 2.1-2.5 3.4-.5 1.3-.9 2.6-1.1 3.9-.5 3.1.2 6.2 1.9 8.8l-.1.1-.1.3c-3.2-5.1-3.3-13 1.9-16.7z"/><path class="st11" d="M33.7 222.6v.3c-3.2 2.9-4.4 8.7-2.9 12.5.4 1.1 1 2.2 1.7 3.2-.1-.1-.3-.1-.5 0-1.8-2.6-2.5-5.7-1.9-8.8.3-1.3.7-2.6 1.1-3.9.6-1.2 1.4-2.4 2.5-3.3zM26.5 183.2c-.1-.1-.1-.3-.2-.4 0-1 .2-1.9.2-2.6.1-2.4 1.4-4.1 3.1-5.7.5-.5 2.3-2.4 3.2-1.9 1.4.8.9 4.4.5 5.6-.8 2.5-2.2 4.8-4.6 6.2h-.1c-.1 0-.1-.1-.1-.2 2.8-2.1 5.7-6.8 4.2-10.4-.5-1.3-4.3 2.4-4.7 3.2-1.1 2.1-1.6 4.4-1.5 6.7.1-.2 0-.4 0-.5zM32.2 239.1c-.1-.1-.2-.2-.2-.4.1-.1.3-.1.5 0 0 .1.1.1.1.2v.2c0 .2 0 .3-.1.5-.1-.2-.2-.4-.3-.5z"/><path class="st11" d="M32.6 238.9c0-.1-.1-.1-.1-.2.1 0 .1.1.1.2zM32.2 239.1c.1.2.2.3.3.5 0 .2-.1.4-.1.5-.1-.1-.2-.3-.3-.5 0-.2.1-.4.1-.5zM32.1 207.5h-.2l.1-.1c.1-.1.3 0 .2.2 0 0 0 .1-.1.1.1-.1.1-.1 0-.2.1.1 0 0 0 0z"/><path class="st11" d="M32.2 239.1c0 .2-.1.4-.1.5-.1-.1-.2-.3-.3-.5l.1-.3c0-.1 0-.1.1-.1 0 .1.1.3.2.4zM32.1 239.6c.1.2.2.3.3.5-.2.8-.4 1.6-.5 2.5-.2 1.1-.2 2.2-.5 3.3h-.3c.1-2.1.4-4.3 1-6.3zM32.2 207.7l-.1.2c0-.1 0-.1-.1-.2l.1-.1c.1-.1.1-.1.1.1 0-.1 0-.1 0 0zM32.1 207.5l-.1.1-.1.1v-.1-.1h.2z"/><path class="st11" d="M32 207.6c0 .1 0 .1.1.2 0 .1-.1.1-.1.2 0-.1-.1-.2-.1-.2 0-.1.1-.1.1-.2zM31.8 239.1c.1.2.2.3.3.5-.6 2.1-.9 4.2-1 6.3-.1 0-.2.2-.1.3-.1 0-.1-.1-.1-.2-.5-2.1.2-4.8.9-6.9zM31.9 207.8c0 .1 0 .2.1.2-1 1.6-2.1 3.2-3.3 4.7-.1.1-.4.1-.5 0l-.1-.1c-1.4-2.8-2-5.9-1.7-9.1.1-.1.2-.2.3-.2 0 2.9.2 6.2 1.6 8.8l-.1.1h.1c0 .1.1.2.1.2.1 0 .1-.1.2-.2h.1s0-.1-.1-.1c1.3-1.3 2-3 3.3-4.3z"/><path class="st11" d="M31.9 207.5s-.1.1 0 .1v.1c-1.3 1.4-2 3-3.2 4.4-.1-.1-.1-.2-.2-.4 1.2-1.3 2-3 3.4-4.2zM31.3 246.1c-.1.1-.2.2-.3.1h-.1c-.1-.1 0-.2.1-.3h.3c.1 0 .1.1 0 .2zM30.7 199.4c0 .1-.1.1-.2.2-.1-.2-.1-.3-.2-.5.1 0 .1-.1.1-.1.1.2.2.3.3.4z"/><path class="st18" d="M30.4 199.8c.8 2.2 1.8 4.2 3.2 6-2.5-.2-5.8-.6-5.5-3.6.6-.6 1.3-1.2 1.9-1.9.1-.2.2-.3.4-.5z"/><path class="st11" d="M30.3 199.2c.1.2.1.3.2.5l-.2.2c-.1-.1-.1-.3-.2-.4.1-.2.2-.3.2-.3z"/><path class="st11" d="M30.3 199.2c0 .1-.1.1-.1.2 0-.1-.1-.1-.1-.2-.1-.2.3-.3.3-.1l-.1.1zM30.2 199.4c0 .2.1.3.2.4-.1.2-.3.3-.4.4-.6.7-1.3 1.3-1.9 1.9v-.3c0-.1-.1-.2-.2-.1.8-.8 1.5-1.6 2.3-2.3zM28.7 212.2s0 .1.1.1c-.1 0-.1 0-.1-.1zM28.5 211.8c.1.1.1.2.2.4v.1h-.3v-.1c0-.2.1-.3.1-.4zM28.6 212.3c0 .1-.1.1-.2.2-.1-.1-.1-.1-.1-.2h.3zM28.5 211.8c-.1.1-.1.2-.2.3-1.4-2.6-1.5-5.9-1.6-8.8.1-.1.2-.1.2-.2.4 3 .3 5.9 1.6 8.7z"/><path class="st11" d="M28.3 212.1v.1h-.1s.1 0 .1-.1zM27.9 202.3l-.2.2c.1-.3.2-.5.3-.8 0-.1.2 0 .2.1v.3c-.2.1-.3.1-.3.2zM27.9 187.3c.7 1.7 0 4.1-1.1 5.5-1.1 1.3-2.4 3.2-3.8 4.2.1 0 .2-.1.1-.3.7-.7 3.4-4 3.7-4.3.7-1.1 1.8-4.4.4-5.4-.1-.1-.2-.2-.3-.2l.2-.1c.2.3.5.5.8.7-.1-.1 0-.1 0-.1z"/><path class="st11" d="M27.8 187c.1.1.1.2.2.3h-.1c-.3-.2-.6-.4-.8-.7.1 0 .1-.1.2-.1.1.2.2.4.5.5z"/><path class="st11" d="M27.7 186.9c-.2-.1-.3-.3-.5-.5.3.2.4.4.5.5zM27.9 201.7c-.1.2-.2.5-.3.8-.2.2-.4.4-.7.6v-.3-.1l1-1zM27.2 186.9c1.4 1 .2 4.3-.4 5.4-.2.4-3 3.6-3.7 4.3 0-.1-.1-.1-.1-.2.7-.7 1.3-1.6 1.9-2.4.8-1 1.7-1.9 2.1-3.2.1-.4.3-.9.3-1.4.1-.5.3-2.8-1-2.5l.5-.2c.1.1.3.1.4.2z"/><path class="st11" d="M27.2 186.4s-.1-.1-.1-.2h.2c.1 0 .2.2.1.2-.1.1 0 0-.1 0 0 .1-.1 0-.1 0z"/><path class="st21" d="M26.3 187c1.3-.3 1 2 1 2.5-.1.5-.2.9-.3 1.4-.4 1.3-1.2 2.2-2.1 3.2-.6.8-1.2 1.7-1.9 2.4-1.1-2.4-.7-4.6.5-6.9.5-.9 1.2-1.7 2.1-2.2h.1c.2-.2.4-.3.6-.4z"/><path class="st11" d="M27.3 186.5c-.1 0-.1-.1-.1-.1s.1 0 .1.1z"/><path class="st11" d="M27.3 186.5c-.1 0-.1.1-.2.1 0-.1-.1-.1-.1-.2.1 0 .1 0 .2-.1 0 .1 0 .2.1.2zM27.2 186.4c-.1 0 0 0 0 0z"/><path class="st11" d="M27.1 186.2c0 .1.1.1.1.2-.1-.1-.2-.1-.3-.1v-.1h.2z"/><path class="st11" d="M27.1 186.4c-.1 0-.1 0-.2.1 0 0-.1-.1-.1-.2.1 0 .3 0 .3.1z"/><path class="st11" d="M27.1 186.6l-.2.1c-.7-.2-1.5.2-2.2.8-.2.1-.3.1-.5.1.3-.2.5-.5.8-.7.7-.1 1.3-.3 1.9-.5.1.1.1.2.2.2zM27 186.2h-.2c-.3-.5-.5-1.1-.5-1.6 0 .1.1.2.2.2.1.5.3 1 .5 1.4zM26.9 202.8v.3l-.2.2v-.5h.2c0-.1 0-.1 0 0z"/><path class="st11" d="M26.8 186.3c0 .1.1.1.1.2-.6.2-1.3.4-1.9.5.4-.3.9-.6 1.4-.7h.4zM26.7 202.9c-.1.1-.1.2-.2.2v-.3c0-.1.1-.2.2-.2s.1 0 .2.1l-.2.2zM26.8 186.2c0 .1 0 .1 0 0h-.3.3z"/><path class="st21" d="M26.8 186.2h-.3-.1c-2.7.3-5.1.9-7.9.2-1.8-.6-3.4-1.5-4.8-2.9-1.4-1.2-.6-1.6.7-2.1 2.1-.7 7.1-1.3 9.9.2l.1.2c0 .1.1.1.1.1s.1 0 .1-.1c.9.5 1.4 1.3 1.6 2.3v.5c.2.6.3 1.1.6 1.6z"/><path class="st11" d="M26.8 186.7l-.5.2c-.1 0-.1 0-.2.1-.2.1-.3.1-.5.2h-.1c-.3.1-.6.2-.9.2.7-.4 1.6-.9 2.2-.7zM26.7 202.9v.5c-.1.1-.2.2-.3.2v-.5c.2-.1.3-.2.3-.2zM26.7 184.4v.2c0 .1-.1.2-.1.2V184.5v-.2-.4-.7c0 .1.1.2.1.4v.1c-.1.2-.1.5 0 .7z"/><path class="st11" d="M26.6 183.6c.1.3.1.6.1.8-.1-.2-.1-.5-.1-.7v-.1zM26.5 184.5v.2c-.1 0-.2 0-.2-.1v-.5-.9c.1.2.2.4.2.6v.7zM26.5 203.1v.5a56.8 56.8 0 0 1-11.7 7.8c0-.1 0-.2-.1-.3 3.6-1.9 7.1-3.8 10.2-6.5.5-.5 1-1 1.6-1.5zM26.5 184.3v0z"/><path class="st11" d="M26.5 183.2v.7c0-.2-.1-.4-.2-.6v-.5c.1.1.1.3.2.4zM26.1 187.1c.1 0 .1 0 .2-.1-.2.1-.4.2-.7.3.2-.1.4-.2.5-.2zM26.3 182.8v.5c-.3-.7-.9-1.3-1.6-1.6v-.4c.7.3 1.2.8 1.6 1.5z"/><path class="st11" d="M26.3 183.3v.9c-.2-1-.8-1.8-1.6-2.2v-.1c.7.1 1.2.7 1.6 1.4zM26.4 186.3c-.5.1-1 .4-1.4.7-4.9 1.1-9.2-.3-12.8-4.6.7-.5 1.4-.9 2.3-1.1.1 0 .1.1.2 0 .2-.1.5-.1.7-.2h.2c2.7-.6 6.4-.5 8.7.5 0 .1 0 .1.1.2-2.8-1.4-7.7-.9-9.9-.2-1.4.5-2.1.8-.7 2.1 1.4 1.3 3 2.3 4.8 2.9 2.7.6 5.1 0 7.8-.3zM24.7 187.6c.3-.1.6-.1.9-.2-.9.5-1.6 1.3-2.1 2.2-1.2 2.3-1.5 4.6-.5 6.9 0 .1-.1.1-.2.2-.2-.3-.3-.5-.5-.8v-.2c-.8-2.2.1-5.3 1.4-7 .3-.5.7-.8 1-1.1zM24.7 181.7v.1l-.1-.1v-.2c0 .1 0 .1.1.2z"/><path class="st11" d="M24.6 181.3v.4c-.1 0-.1 0-.2-.1 0-.2-.1-.3-.1-.5.2.1.3.1.3.2zM24.5 181.8l.1.1c0 .1-.1.1-.1.1s-.1 0-.1-.1l-.1-.2c.1 0 .2 0 .2.1z"/><path class="st11" d="M24.3 175.8c-.1 0-.2.1-.3.1 0-.3.1-.6.1-.9 0-.1.1-.1.2-.1s.1.1.1.1c.1 1.1.1 2.2 0 3.2 0 1 .1 2 .1 3-.1-.1-.2-.1-.3-.1-.2-1.6-.2-3.2-.1-4.9l.2-.2c.2-.1.1-.2 0-.2zM24.5 181.6v.2c-.1 0-.1-.1-.2-.1 0-.1-.1-.1-.1-.2.1 0 .2 0 .3.1z"/><path class="st11" d="M24.3 176v-.2c.1 0 .2.2.2.3 0 .1-.1.1-.2.2v-.3zM24.4 181.1c0 .2.1.3.1.5-.1 0-.2-.1-.2-.1-.1-.2-.1-.3-.2-.5.1 0 .2 0 .3.1zM25 187c-.3.2-.5.4-.8.7-4.1.8-8.6-1.2-11.4-4.3.1-.2-.1-.4-.3-.4-.1-.1-.2-.3-.4-.4-.1-.1-.1-.2 0-.3.7-.5 1.5-.9 2.3-1.1 0 .1.1.1.1.1-.8.2-1.6.6-2.3 1.1 3.6 4.3 7.9 5.7 12.8 4.6zM24.2 187.7c.2 0 .3-.1.5-.1-.3.3-.7.7-1 1.1-1.3 1.7-2.2 4.8-1.4 7-.1-.1-.2-.1-.3-.1-.7-2.1.1-5 1.2-6.7.3-.5.6-.9 1-1.2z"/><path class="st11" d="M24.3 176l-.3.3v-.3c0-.1.2-.1.3-.1.1 0 0 0 0 0v.1z"/><path class="st11" d="M24.3 176v.3c-.1.1-.2.3-.4.4v-.4c.2-.1.3-.2.4-.3z"/><path class="st11" d="M24.3 176.3c-.1 1.6-.1 3.3.1 4.9-.1-.1-.2-.1-.3-.1-.3-1.4-.4-2.9-.2-4.3.2-.2.3-.4.4-.5z"/><path class="st11" d="M24.1 181c0 .2.1.3.2.5-2.3-1-6-1.1-8.7-.5.2-.1.5-.2.7-.3 2.5-.6 5.6-.6 7.8.3zM24 175.9v.3c-1.1.8-3 1.2-4.3 1.8-1.6.9-3.3 2.4-5 3l-.3.1c0-.1 0-.3.1-.3 1.9-1 3.5-2.4 5.5-3.3 1.3-.6 2.7-1.1 4-1.6z"/><path class="st11" d="M24 176.3v.4c-.9.7-2.2 1-3.2 1.3-1.6.6-2.9 1.8-4.5 2.7-.5.1-1.1.2-1.5.4 1.7-.6 3.4-2.1 5-3 1.2-.7 3-1 4.2-1.8zM23.1 196.7c0 .1 0 .2-.1.3h-.1l-.1-.1v-.2c0 .1.1.1.1.2.1-.1.1-.2.2-.2z"/><path class="st11" d="M23 196.5c0 .1 0 .1.1.2 0 .1-.1.1-.1.1s-.1-.1-.1-.2c0 0 0-.1.1-.1zM22.8 196.6c-.1.1-.1.2-.1.2-.2-.2-.4-.5-.5-.8 0-.1.1-.1.1-.2v-.1c.2.4.3.7.5.9z"/><path class="st11" d="M22.3 195.6s.1.1 0 .2v-.2zM22.1 195.8c0-.1-.1-.2-.1-.2.1-.1.2 0 .3.1V196c0 .1-.1.1-.1.2 0-.2-.1-.3-.1-.4zM22.2 166s.1.1.1.2H22c-.1 0-.2-.1-.2-.2l.2-.1s.1 0 .2.1z"/><path class="st11" d="M22 166.2h.3c0 .1 0 .1-.1.2-2.1 1.8-4 3.8-5.5 6.2l.6-.9c1.2-1.9 2.7-4.3 4.7-5.5zM22.1 195.8c0 .1.1.2.1.3-1.6 2.5-3.3 4.9-4.8 7.5l-2.1 3.6c-.2.2-1.6 3.2-1.2 3.8-.1.1 0 .3.1.4-.9.2-.6-1.2-.4-1.7.6-1.5 1.4-3 2.2-4.3 1.9-3.3 3.9-6.5 6.1-9.6z"/><path class="st11" d="M22 195.6c0 .1.1.2.1.2-2.2 3.1-4.2 6.3-6 9.6-.9 1.4-1.6 2.8-2.2 4.3-.2.6-.4 1.9.4 1.7.1.1.2.1.3 0 0 0 .1 0 .2-.1 0 .1-.1.1-.1.1-1.8.5-1.1-1.8-.6-2.8 2-4.5 4.7-8.9 7.9-13zM16.7 172.5c-2.5 3.8-4.6 8-6 12.3-.2.2-.3.4-.4.6-.1 0-.2-.1-.2-.3 1-4.3 3-8 5.5-11.6 1.8-2.7 3.5-5.7 6.3-7.5 0 .1.1.2.2.2-1.9 1.2-3.4 3.5-4.6 5.4-.4.3-.6.6-.8.9zM16.2 180.7c-.2.1-.5.2-.7.3h-.2c-.3.1-.6.1-.9.2-.1 0-.1-.1-.1-.1l.3-.1c.6-.1 1.1-.3 1.6-.3z"/><path class="st11" d="M15.4 181c-.2.1-.4.2-.7.2h-.2c.3 0 .6-.1.9-.2zM14.2 211.4c-.1-.1-.2-.2-.1-.4.1.1.2.1.3.1h.1c.1 0 .2.1.2.2 0 0-.1 0-.2.1 0 .1-.2.1-.3 0zM12.4 183c.2 0 .4.2.3.4-.1-.1-.2-.3-.3-.4z"/><path class="st11" d="M12.8 183.4s0 .1 0 0c-.5.6-.9 1.2-1.3 1.7-.3.4-.6.9-1.2 1-.1 0-.2-.1-.2-.1 0-.2 0-.3.1-.4.1 0 .3 0 .3-.2 0-.1.1-.2.1-.4l.3-.3c.4-.5.8-1 1.3-1.5 0-.1.1-.1.2-.1s.2.2.4.3z"/><path class="st11" d="M10.7 184.8c-.1.1-.1.3-.1.4 0 .1-.2.2-.3.2 0-.2.2-.4.4-.6z"/><path class="st22" d="M64.6 182c-1.2.2-2.7-3-1.3-3.5 1.4-.5 2.1 2.6 1.8 3.5"/><path class="st23" d="M64.6 182c-1.2.2-2.7-3-1.3-3.5 1.4-.5 2.1 2.6 1.8 3.5"/><path class="st22" d="M64.7 181.8c-.5-.2-.9-.6-1.2-1.2-.2-.3-.6-1.5 0-1.6.5-.1.8.9.9 1.3.1.6.2 1.1.1 1.7 0 .3.2.5.5.5.2 0 .3-.1.4-.2.8-1.3-.7-5.2-2.6-4.1-1.7 1 .1 5 1.8 4.1.1-.1.2-.3.1-.4.1-.1 0-.1 0-.1zM67.6 181.3c.6 0 .8-.7.4-1.5-1.1-1.7-1.1.9-.3 1.8"/><path class="st23" d="M67.6 181.3c.6 0 .8-.7.4-1.5-1.1-1.7-1.1.9-.3 1.8"/><path class="st22" d="M67.8 181.6c.5-.2.8-.8.6-1.3 0-.1-.1-.1-.1-.2-.2-.4-.6-1.2-1.1-1.1-.9.2-.3 2.8.5 2.8.1 0 .2-.1.1-.2.1-.2 0-.3-.1-.6-.2-.3-.3-.6-.3-.9v-.7c0 .2.3.4.4.5.2.3.2.8-.2 1 0 0-.1 0-.1.1-.2.1-.2.3-.1.5.1.1.3.1.4.1z"/></g></g><g><path class="st24" d="M125.2 58.2c-33.1 0-60 23.7-60 52.9 0 22.1 15.4 41 37.2 48.9-.3.8-.5 1.7-.5 2.6 0 4.7 4.3 8.5 9.6 8.5 4.8 0 8.8-3.2 9.5-7.3 1.4.1 2.8.1 4.2.1 33.1 0 60-23.7 60-52.9s-26.8-52.8-60-52.8z"/><ellipse class="st24" cx="103" cy="175.9" rx="5.7" ry="5"/></g><g id="レイヤー_3_1_"><path class="st11" d="M141.4 105.6c3.3-.6 5.8 1.8 5.7 5.1-.1 2.8-3.1 5.3-5.9 5.7 0-.1 0-.2-.1-.3.5-.1 1-.2 1.4-.4l.2.1c.1 0 .2 0 .2-.1v-.1-.1c.5-.2 1-.5 1.4-.8h.2l.1-.1v-.1c.8-.6 1.4-1.3 1.8-2.2 1.4-3.4-1-7.2-4.9-6.4 1.4 2.5-2.8 4.6-3.6 6.7-.5 1.3.7 3 2.1 3.5v.1l-.2.2c-.7-.2-1.3-.7-1.8-1.2 0-.1.1-.1.1-.2.1-.1 0-.2-.1-.3-.1-.1-.2 0-.3.1-.4-.6-.5-1.3-.4-1.9.6-2.5 5-4.1 3.8-6.9 0-.2.1-.3.3-.4z"/><path class="st11" d="M141.5 105.9c3.9-.9 6.4 3 4.9 6.4-.4.9-1.1 1.6-1.8 2.1 0-.1 0-.2-.1-.3.5-.4.9-.8 1.2-1.3.2 0 .3-.1.3-.3v-.1c.4-.7.6-1.5.5-2.3-.1-1.4-.7-3.1-2.1-3.7-.1-.1-2.5-.7-2.4-.3 0 .2.1.3.1.5 0 1.3-.8 2.4-1.7 3.3-.7.7-1.6 1.5-2 2.4-.8 1.7.7 2.8 2 3.4h-.1c-.2 0-.3.1-.3.3-1.4-.5-2.6-2.2-2.1-3.5.8-2 4.9-4 3.6-6.6z"/><path class="st12" d="M146.5 110.3c0 .8-.2 1.6-.5 2.3 0 0 0-.1-.1-.1-.1-.2-.3-.3-.5-.4-.2-.2-.4-.4-.6-.5-.1-.1-.2 0-.3.1v.2c.1.5.7.8 1 1.1.1.1.1.1.2.1-.3.5-.7.9-1.2 1.3-.1-.2-.5-.4-.5-.6 0-.3-.2-.5-.5-.6-.3 0-.5.2-.6.5 0 .2.2.5.4.5.2.1.4.4.5.5l.1.1c-.4.3-.8.5-1.2.7-.1-.2-.2-.3-.3-.5-.1-.1-.3-.2-.4-.1-.1.1-.2.3-.1.4.1.2.2.3.3.4-.6.2-1.2.3-1.8.4-1.3-.5-2.8-1.7-2-3.4.4-.9 1.4-1.7 2-2.4.9-.9 1.7-2 1.7-3.3 0-.2-.1-.3-.1-.5-.1-.4 2.3.2 2.4.3 1.4.4 2 2 2.1 3.5zM111.9 136.5l-6 2-1.2.8.4 1.2 6-2.4.9-.7z"/><path class="st11" d="M105.1 138.6s4.1-2.5 6.9-2.5c1.5 0 1.2.3-.2.3s-6.8 2.4-6.8 2.4l.1-.2zM145.9 112.5c.1.1 0 .3-.1.4h-.1c.1-.1.2-.3.2-.4z"/><path class="st11" d="M145.9 112.4s0 .1 0 0c0 .2-.1.4-.2.5-.1 0-.1 0-.2-.1-.3-.3-.9-.7-1-1.1 0-.1 0-.2.2-.3h.2c.2.2.4.3.6.5.1.2.2.4.4.5zM144.6 114.5c0 .1 0 .2-.1.2h-.2c.1 0 .1-.1.2-.1 0-.1 0-.1.1-.1z"/><path class="st11" d="M144.6 114.5l-.1.1-.2-.2c.1-.1.2-.1.3-.2-.1 0 0 .2 0 .3zM144.2 114.4c-.1.1-.2.1-.3.2l-.1-.1c-.2-.1-.3-.4-.5-.5-.3-.1-.5-.4-.4-.7.1-.3.4-.5.7-.4.2.1.4.3.4.5s.4.5.5.6c-.1.2-.2.3-.3.4z"/><path class="st11" d="M144.2 114.4l.2.2c-.1 0-.1.1-.2.1s-.2 0-.3-.1c.1-.1.2-.2.3-.2z"/><path class="st11" d="M143.9 114.6c.1.1.2.1.3.1-.4.3-.9.6-1.4.8 0-.1-.1-.2-.2-.3.5-.2.9-.4 1.3-.6zM142.7 115.6l.1-.1v.1c0 .1 0 .2-.1.2h-.1l-.2-.1c.2 0 .2-.1.3-.1z"/><path class="st11" d="M142.7 115.2c.1.1.1.2.2.3l-.1.1-.3-.3s.1 0 .2-.1z"/><path class="st11" d="M142.7 115.6c-.1 0-.1.1-.2.1-.1-.1-.2-.1-.3-.3l.3-.1c0 .1.1.2.2.3z"/><path class="st11" d="M142.4 115.3l-.3.1c-.1-.1-.2-.3-.3-.4-.1-.2 0-.3.1-.4.1-.1.3 0 .4.1.1.2.2.4.3.5 0 .1-.1.1-.2.1zM142.2 115.4l.3.3c-.4.2-.9.3-1.4.4l-.1-.1c-.2-.1-.4-.1-.6-.2.6 0 1.2-.1 1.8-.4z"/><path class="st11" d="M140.3 116.2c-.1-.1-.2-.1-.3-.1h-.1c0-.2.1-.3.3-.3h.1c.2.1.4.2.6.2 0 0 .1 0 .1.1.1.1.1.2.1.3-.3 0-.5.1-.8.1.1-.1.1-.2 0-.3z"/><path class="st11" d="M141.2 116.4c0 .1-.1.2-.2.2h-.7v-.1c.4 0 .6 0 .9-.1z"/><path class="st11" d="M140.1 116.4c-.1 0-.1-.1-.1-.2h.1c.1 0 .2 0 .3.1.1.1.1.2 0 .2h-.1c-.1 0-.1 0-.2-.1zM140.4 116.5l-.1.1h-.3l.1-.1H140.4zM140.3 116.2c-.1 0-.2 0-.3-.1.2 0 .3.1.3.1z"/><path class="st11" d="M140.1 116.4l-.1.1-.2-.1.2-.2c0 .1.1.2.1.2z"/><path class="st11" d="M140.1 116.2l-.1.1v-.1h.1zM140.1 116.5h.3c-1.3 1.5-2.4 3-3.5 4.6v-.1c0-.1-.1-.2-.1-.2.9-1.4 2-2.9 3.3-4.3z"/><path class="st11" d="M139.8 116.5l.2.1c-1.2 1.4-2.4 2.8-3.4 4.4-.1 0-.2.1-.2.2v.1c-.9 1.3-1.7 2.6-2.5 3.8-2.3 3.4-5 6.4-7.5 9.6 0 0 0-.1-.1-.1 1-1.5 2.1-2.9 3.2-4.2 3.7-4.6 6.5-9.7 10.3-13.9z"/><path class="st15" d="M138 115.2c.5.6 1.1 1 1.8 1.2-3.9 4.2-6.6 9.3-10.3 13.8-1.1 1.4-2.2 2.8-3.2 4.2-.1-.2-.3-.3-.5-.4-.3-.2-.5-.5-.7-.8.8-1.1 1.5-2.2 2.2-3.3 1.5-2.3 3.6-4.5 5.3-6.8 2.1-2.4 4-5 5.4-7.9z"/><path class="st11" d="M137.9 115.1c0-.1-.1-.1-.1-.2.1-.1.2-.1.3-.1.1.1.1.2.1.3 0 .1-.1.1-.1.2l-.2-.2zM137.9 115.1l.1.2c-1.4 2.9-3.3 5.5-5.2 8-1.7 2.2-3.8 4.4-5.3 6.8-.7 1.1-1.5 2.2-2.2 3.3-.1-.1-.1-.1-.2-.1h-.1c.8-1.1 1.5-2.2 2.2-3.3.8-1.3 2.1-2.4 3-3.6.9-1.3 1.8-2.4 2.7-3.6.2 0 .3-.2.3-.3 1.7-2.6 3.3-5 4.7-7.4z"/><path class="st11" d="M137.8 114.9c0 .1.1.1.1.2-1.4 2.5-2.9 4.8-4.7 7.1v-.7c1.6-2.1 3.2-4.3 4.6-6.6zM136.6 121.4c-.1.1-.2.2-.2.3.1-.2.1-.4.1-.6.1-.1.1-.2.2-.3.1 0 .1.1.1.2v.1c-.1.1-.1.2-.2.3z"/><path class="st11" d="M136.7 120.9c-.1.1-.1.2-.2.3v-.1c0-.1.1-.2.2-.2zM126.2 135h.2c.1 0 .2-.1.2-.2v-.1l-.1-.1c2.5-3.2 5.2-6.2 7.5-9.6.8-1.2 1.7-2.5 2.5-3.8 0 .2-.1.4-.1.6-.7 1-1.4 2.1-2.1 3.1-.1 0-.2.1-.1.2-1.2 1.7-2.4 3.4-3.7 5.1-.1 0-.1 0-.2-.1-.1 0-.2.1-.1.2h.1l-.3.3c-3.5 4.3-6.4 9.2-10.4 13.1 0 .1-.1.1-.2 0v-.1-.2c2.5-2.7 4.5-5.7 6.6-8.7.1.3.2.3.2.3z"/><path class="st11" d="M134.2 124.9s0 .1 0 0c-.1.1-.1.2-.1.2-.1-.1 0-.2.1-.2zM132.8 121.9c.1-.2.2-.3.3-.4v.7l-.3.4c-.2 0-.3 0-.4-.2.2-.2.3-.3.4-.5zM133.2 122.1c0 .2-.1.4-.3.4l.3-.4zM130.5 145.5c1.7-2.9 2.7-5.7 2.6-9.1 0-1.3-.2-2.5-.5-3.7.1.1.2.1.3 0h.1c.8 2.1.6 4.9.2 7.2-.1 0-.2 0-.2.2l.1.5c-.1.6-.3 1.3-.6 1.9-.9 2.3-2.1 4.4-3.6 6.4-.1-.1-.1-.1-.2 0 0 0-.1.1 0 .1v.2c-2.2 2.9-5.1 5.2-8.4 6.6-.1-.1-.2-.1-.3-.2l.1-.1c4.5-2.1 7.7-5.6 10.4-10z"/><path class="st11" d="M133 136.4c.1 3.4-.8 6.2-2.6 9.1-2.6 4.4-5.9 7.9-10.6 10l-.1.1-.2-.2c1.1-.5 2.2-1 3.2-1.7 3.9-2.7 7.5-6.8 9.1-11.4 1-2.8 2.4-10.3-1.5-11.9l.1-.1c1 .3 1.7 1.1 2 2.2 0 .1 0 .2.1.3.3 1.1.5 2.3.5 3.6z"/><path class="st11" d="M133 139.9v.2c0 .2-.1.3-.1.5l-.1-.5c0-.2.1-.3.2-.2zM132.4 122.4c.1.1.3.2.4.2l-2.7 3.6c-.9 1.2-2.2 2.3-3 3.6-.7 1.1-1.5 2.2-2.2 3.3-.1 0-.2.1-.2.3-1.7 2.4-3.4 4.8-5.4 7-.4.5-.8.9-1.2 1.4 0 0-.1.1-.1.2-.3-.9 4-5.3 4.5-6.1 1.6-2.2 3.1-4.6 4.7-6.8.1 0 .1 0 .2-.1v-.1s0-.1.1-.1c.7-1 1.5-1.9 2.2-2.9l.1-.1c.8-1.1 1.7-2.3 2.6-3.4zM132.7 132.4c0 .1.1.2.1.2h-.1c-.1.1-.2.1-.3 0 0-.1-.1-.2-.1-.3 0-.1.1-.1.1-.2l.1-.1c.2.3.2.3.2.4z"/><path class="st11" d="M132.6 132.2l-.1.1c-.1 0-.1.1-.1.2-.4-1-1-1.9-2-2.2l.1-.1c.9.3 1.7 1 2.1 2z"/><path class="st11" d="M132.4 132.4c0 .1.1.2.1.3-.1-.1-.1-.2-.1-.3z"/><path class="st12" d="M112.2 136.6c2-.1 3.1-1 4.2-2.6 2.5-3.4 6.4-5.8 10.7-4.8-1.6 2.2-3.1 4.6-4.7 6.8-.6.8-4.8 5.2-4.5 6.1-.1-.1-.3-.1-.4 0-1.9-.9-3.7.4-4.5 2.4-.5 1.1-.8 3.5.3 4.3.2 1.9 3.8.1 4.5-.5 1.6-1.3 2.4-3.1 1.5-4.6 0 .1.1.1.2.1h.1c4-3.9 6.9-8.8 10.4-13.1.1-.1.2-.2.2-.3 3.9 1.6 2.5 9.1 1.5 11.9-1.6 4.5-5.2 8.7-9.1 11.4-1 .7-2.1 1.2-3.2 1.7-.2-.1-.4 0-.5.2-.8.3-1.7.6-2.5.8-2 .6-4.2.4-6.1-.5l-.1-.1c-1.2-.6-2.3-1.3-3.3-2.2-1.1-.9-2.1-2-2.9-3.2 0-.1 0-.1-.1-.1-.5-.7-.8-1.5-1.2-2.2-1.1-2.7-.2-6.8 2-8.8"/><path class="st11" d="M130.4 130.3c-.1 0-.1 0 0 0-.1.1-.1.1-.2.1s-.1-.2.1-.2c0-.1.1-.1.1.1 0-.1 0-.1 0 0zM129.6 126l.1-.1s0 .1-.1.1zM128.5 148.9c0 .1-.1.1-.2.2v-.2c0-.1.1-.2.1-.2h.1c.1.1.1.1 0 .2zM127.3 129c.1 0 .1.1 0 .2 0 0-.1.1-.1 0l.1-.2zM112.1 136.4c0-.1 0-.1-.1-.2 2.7-.3 3.6-2.1 5-4 .9-1.1 2-2 3.3-2.6 1.7-.9 5.2-1.9 6.9-.6l-.2.2c-4.3-1-8.2 1.4-10.7 4.8-1.2 1.6-2.3 2.5-4.2 2.6.1-.1 0-.1 0-.2zM126.3 134.8c0-.1.1-.1.1-.2l.1.1c0 .1 0 .2-.1.2H126.1c.1 0 .2-.1.2-.1z"/><path class="st11" d="M126.5 134.6c-.1.1-.1.1-.1.2 0 0-.1 0-.1-.1l.2-.2c-.1 0 0 .1 0 .1zM126.4 134.5l-.2.2c-.4-.3-.8-.7-1.2-1.2.1-.1.1-.1.1-.2.3.2.4.5.7.8.3.1.5.2.6.4z"/><path class="st11" d="M126.2 134.7l.1.1c-.1.1-.1.1-.1.2h-.1l.1-.3z"/><path class="st11" d="M126.2 134.7l-.2.2c-.2-.1-.4-.2-.5-.4 0 0 0-.1-.1-.1-.2-.2-.4-.5-.6-.7l.2-.2c.4.5.8.9 1.2 1.2z"/><path class="st12" d="M126.1 134.9c-2.1 3-4.2 6-6.6 8.7 0 0-.1.1 0 .2-.1-.2-.3-.4-.4-.6 2.1-3 4.4-5.7 6.6-8.6 0 .1.2.2.4.3z"/><path class="st11" d="M125.5 134.4s.1.1 0 0c0 .1 0 0 0 0zM118.8 143c0-.1-.1-.1-.2-.2 2-3 4.3-5.8 6.8-8.4l.1.1c-2.2 2.9-4.6 5.6-6.6 8.6 0 0-.1 0-.1-.1z"/><path class="st12" d="M125.5 134.4s-.1 0 0 0c-2.5 2.6-4.8 5.4-6.8 8.4l-.3-.3c-.1-.1-.2-.1-.2-.2 1.3-1.9 3-3.5 4.4-5.3.8-1.1 1.7-2.2 2.4-3.3.1.3.3.5.5.7z"/><path class="st11" d="M125 133.5c0 .1-.1.1-.2.2-.1-.1-.1-.2-.2-.3v-.1c0-.1.1-.1.1-.2v-.1h.1c.1 0 .1.1.2.1.2.3.1.4 0 .4z"/><path class="st11" d="M124.9 133.1s0 .1 0 0c-.1.1-.1.2-.2.3 0-.1.1-.2.2-.3zM124.7 133.5c0 .1.1.2.2.3l-2.4 3.3c-1.4 1.8-3.2 3.4-4.4 5.3l-.2-.1s.1-.1.1-.2v-.1c.1-.1.1-.2.1-.2.4-.5.8-1 1.2-1.4 2-2.2 3.7-4.6 5.4-6.9 0-.1 0-.1 0 0zM119.5 155.9l-.4.2v-.2c0-.1 0-.1-.1-.1.2-.1.4-.2.7-.3.1.1.2.2.3.2-.1.1-.3.1-.5.2z"/><path class="st11" d="M119.7 155.5l-.6.3c-.1-.1-.1-.1-.2-.1 0-.1 0-.1.1-.2.2-.1.4-.1.5-.2 0 .1.1.1.2.2zM118.8 143.4c2.9 3.2-3.6 7.3-5.1 5.7.2.1.5.1.7.1h-.1l-.1-.1c2.2.8 6.7-3 4.5-5.5l.1-.2z"/><path class="st11" d="M113.7 149c1.5 1.6 8-2.5 5.1-5.7 0-.1.1-.1.1-.2.2.2.3.4.4.6.8 1.5.1 3.3-1.5 4.6-.7.6-4.3 2.4-4.5.5.1.1.2.2.4.2zM118.8 156.2c0-.1-.1-.2 0-.3l.3-.1.1.1v.2l-.4.1c.1 0 0 0 0 0z"/><path class="st11" d="M119.1 155.8l-.3.1v-.2c.1 0 .2 0 .3.1zM118.8 143c.1 0 .1.1.2.1 0 .1-.1.1-.1.2 0-.1-.1-.1-.2-.2l.1-.1zM118.7 143.5c2.2 2.5-2.3 6.3-4.5 5.5l-.4-.2-.3-.3-.1-.1c-1.2-2 .8-7.6 4.2-5.8.3.1.5.3.8.5 0 .1-.1.1-.1.2-.2.2.2.5.4.2 0 .1 0 0 0 0zM118.9 156.2c-.1 0-.1 0 0 0-.1 0-.1 0 0 0zM118.8 156.2l-.3.2c.1-.1.1-.3.2-.4 0 0 .1 0 .1-.1v.3z"/><path class="st11" d="M118.9 155.5c0 .1-.1.1-.1.2-.1 0-.1 0-.1.1v.1c-1.5.7-3.2 1.1-4.9 1.1-.9 0-1.9-.2-2.8-.5-.2-.3-.4-.5-.7-.7 1.9.9 4.1 1.1 6.1.5.8-.2 1.7-.4 2.5-.8zM118.8 143.4l-.1.2c0-.1-.1-.1-.1-.2s.1-.1.1-.2c0 0 .1.1.1.2z"/><path class="st11" d="M118.8 155.7v.2s-.1 0-.1.1v-.1c0-.1.1-.2.1-.2zM118.8 143c0 .1-.1.1-.1.2l-.2-.2c0-.1.1-.1.1-.2.1.1.1.2.2.2zM118.6 143.4c.1 0 .1.1.1.2 0 0 0 .1-.1.1-.2.2-.6 0-.4-.2 0-.1.1-.1.1-.2.1-.1.2 0 .3.1z"/><path class="st11" d="M118.7 143.2s-.1.1-.1.2l-.2-.2c0-.1.1-.1.1-.2l.2.2z"/><path class="st11" d="M118.3 142.6l.3.3c0 .1-.1.1-.1.2-.2-.2-.4-.3-.6-.4h-.1c.1 0 .1 0 .2-.1v-.1c.1 0 .2 0 .3.1zM118.6 155.9c-.1.1-.1.3-.2.4-2.4.9-5.1 1.6-7.5.6l-.6-.3c.2 0 .3.1.5.1.1 0 .1 0 .1-.1.9.3 1.8.5 2.8.5 1.8-.1 3.4-.5 4.9-1.2z"/><path class="st11" d="M118.5 143c0 .1-.1.1-.1.2-.2-.2-.5-.4-.8-.5-3.4-1.8-5.4 3.8-4.2 5.7-.1 0-.1.1-.1.1-1.4-1.9.7-8.1 4.2-6.2.1.1.2.1.3.1h.1c.2.3.4.5.6.6z"/><path class="st11" d="M117.8 142.3l.2.1v.1c0 .1-.1.1-.2.1-.1-.1-.2-.1-.3-.2v-.2l.3.1zM117.6 142.1c.1-.1.3-.1.4 0 0 .1-.1.1-.1.2l-.3-.2z"/><path class="st11" d="M117.9 142.5c-.1 0-.2 0-.3-.1 0 0 .1.1.3.1zM117.6 142.1c-.1.1-.1.2 0 .2-3.5-1.9-5.6 4.3-4.2 6.2v.3c-1.1-.8-.7-3.1-.3-4.3.8-1.9 2.5-3.3 4.5-2.4zM114.4 149.1c-.2.1-.5 0-.7-.1l-.2-.2c.3.2.6.3.9.3-.1 0 0 0 0 0z"/><path class="st11" d="M114.3 149.1c-.2.1-.6-.1-.8-.3 0-.1-.1-.2-.1-.3l.2.1c.2.3.4.4.7.5z"/><path class="st11" d="M114.2 149c-.2 0-.4-.1-.6-.4l.2.1c.1.1.2.2.4.3z"/><path class="st11" d="M113.8 148.8l.4.2c-.2-.1-.3-.2-.4-.2zM113.8 148.8l-.2-.1-.2-.2s.1 0 .1.1c.1 0 .2.1.3.2z"/><path class="st11" d="M113.6 148.6l-.2-.1c0 .1.1.2.1.3l-.2-.2c0-.1.1-.1.1-.1.1 0 .1.1.2.1z"/><path class="st11" d="M113.5 148.8c0 .1.1.2.2.2-.1 0-.3-.1-.4-.2v-.3c.1.1.1.2.2.3zM112.1 136.4c0 .1 0 .1.1.2h-.1c-.1 0-.1 0-.2-.1v-.1c0-.1.1-.2.2-.2v.2zM111.8 136.4v.1c.1 0 0 0 0-.1zM110.7 156.4c.1 0 .2.1.3.1 0 .1 0 .1-.1.1-.2 0-.3 0-.5-.1-.5-.2-1-.5-1.5-.8.4.1.8.2 1.1.3h.1c.1.1.3.1.5.2 0 .2.1.2.1.2z"/><path class="st11" d="M111 156.5c-.1 0-.2-.1-.3-.1 0 0-.1 0-.1-.1-.1-.1-.3-.2-.5-.2h-.1c-.4-.2-.8-.4-1.2-.7.4.1.9.2 1.3.3l.1.1c.4.2.7.4.8.7zM110.1 156.2c.2.1.3.1.5.2-.2-.1-.3-.1-.5-.2z"/><path class="st11" d="M110.2 155.8c-.4-.2-.9-.3-1.3-.3-.3-.2-.7-.4-1-.7-1.5-1.1-2.9-2.4-4-3.9 0-.1 0-.2.1-.3v-.1c.8 1.2 1.8 2.3 2.9 3.2 1 .8 2.1 1.5 3.3 2.1z"/><path class="st11" d="M108.9 155.5c.4.3.8.5 1.2.7-.4-.1-.8-.2-1.1-.3-.2-.1-.5-.3-.7-.4h.6z"/><path class="st11" d="M108.9 155.5l-.6-.1c-1.5-1-2.9-2.2-4.1-3.6-.1-.2-.3-.3-.4-.5 0-.1 0-.2.1-.4 1.1 1.5 2.5 2.8 4 3.9.3.2.6.4 1 .7zM105.1 138.8v-.1c.1 0 .1 0 .2.1v.1c-.1 0-.1.1-.2.1v-.2zM105.1 138.6v.1c-.1.1-.3.2-.4.3v-.1c.2-.1.3-.2.4-.3z"/><path class="st11" d="M105.1 138.8v.2c-.1.1-.3.2-.4.3v-.2c.1-.1.3-.2.4-.3zM104.7 138.9v.1c-.8.6-1.4 1.4-1.8 2.4-.3.9-.6 1.8-.8 2.7-.4 2.1.1 4.3 1.3 6.1 0 0 0 .1-.1.1l-.1.2c-2-3.5-2.1-9 1.5-11.6z"/><path class="st11" d="M104.7 139.1v.2c-2.2 2-3.1 6.1-2 8.8.3.8.7 1.5 1.2 2.2-.1-.1-.2-.1-.3 0-1.2-1.8-1.7-4-1.3-6.1.2-.9.5-1.8.8-2.7.3-1 .9-1.8 1.6-2.4z"/><path class="st11" d="M103.7 150.6c-.1-.1-.1-.2-.2-.3.1-.1.2-.1.3 0l.1.1v.1c0 .1 0 .2-.1.3 0 0-.1-.1-.1-.2z"/><path class="st11" d="M103.9 150.4l-.1-.1c.1 0 .1.1.1.1zM103.7 150.6c.1.1.1.2.2.3 0 .1 0 .3-.1.4-.1-.1-.2-.2-.2-.3 0-.2 0-.3.1-.4z"/><path class="st11" d="M103.7 150.6c0 .1-.1.3-.1.4-.1-.1-.1-.2-.2-.3l.1-.2s0-.1.1-.1c-.1 0 0 .1.1.2z"/></g><g id="coin" transform="translate(-50 -1393)"><g id="グループ_394"><g id="楕円形_38" transform="translate(50 1393)"><circle class="st23" cx="96.1" cy="92.7" r="10.8"/><circle cx="96.1" cy="92.7" r="10.5" fill="none" stroke="#afa850"/></g><g id="グループ_392"><g id="星型のアイコン" transform="translate(41.187 1397.561)"><path id="パス_512" class="st26" d="M105.4 80.4l.3-.5h-.6l-.3-.5-.3.5h-.5l.3.5-.3.5h.6l.3.5.3-.5h.6l-.4-.5z"/></g><g id="星型のアイコン-2" transform="translate(51.187 1400.561)"><path id="パス_512-2" class="st26" d="M99.9 78.8l.3-.5h-.6l-.3-.5-.3.5h-.6l.3.5-.3.5h.6l.3.5.3-.5h.6l-.3-.5z"/></g><g id="星型のアイコン-3" transform="translate(57.187 1410.561)"><path id="パス_512-3" class="st26" d="M96.6 73.2l.3-.5h-.6l-.3-.4-.3.5h-.6l.3.5-.3.5h.6l.3.5.3-.5h.6l-.3-.6z"/></g><g id="星型のアイコン-4" transform="translate(57.187 1420.561)"><path id="パス_512-4" class="st26" d="M96.6 67.7l.3-.5h-.6l-.3-.5-.3.5h-.6l.3.5-.3.5h.6l.3.5.3-.5h.6l-.3-.5z"/></g><g id="星型のアイコン-5" transform="translate(51.187 1430.561)"><path id="パス_512-5" class="st26" d="M99.9 62.2l.3-.5h-.6l-.3-.5-.3.5h-.6l.3.5-.3.5h.6l.3.5.3-.5h.6l-.3-.5z"/></g></g><g id="グループ_393" transform="rotate(180 73.952 1417.78)"><g id="星型のアイコン-6" transform="translate(41.187 1397.561)"><path id="パス_512-6" class="st26" d="M-38.7-56.1l.3-.5h-.6l-.3-.5-.3.5h-.6l.3.5-.3.5h.6l.3.5.3-.5h.6l-.3-.5z"/></g><g id="星型のアイコン-7" transform="translate(51.187 1400.561)"><path id="パス_512-7" class="st26" d="M-44.3-57.8l.3-.5h-.6l-.3-.5-.3.5h-.6l.3.5-.3.5h.6l.3.5.3-.5h.6l-.3-.5z"/></g><g id="星型のアイコン-8" transform="translate(57.187 1410.561)"><path id="パス_512-8" class="st26" d="M-47.6-63.3l.3-.5h-.6l-.3-.5-.3.5h-.5l.3.5-.3.5h.6l.3.5.3-.5h.6l-.4-.5z"/></g><g id="星型のアイコン-9" transform="translate(57.187 1420.561)"><path id="パス_512-9" class="st26" d="M-47.6-68.8l.3-.5h-.6l-.3-.5-.3.5h-.5l.3.5-.3.5h.6l.3.5.3-.5h.6l-.4-.5z"/></g><g id="星型のアイコン-10" transform="translate(51.187 1430.561)"><path id="パス_512-10" class="st26" d="M-44.3-74.3l.3-.5h-.6l-.3-.5-.3.5h-.6l.3.5-.3.5h.6l.3.5.3-.5h.6l-.3-.5z"/></g></g></g><text transform="translate(142.028 1489.285)" class="st26" font-size="9.416" font-family="ArialMT">W</text></g><g><path d="M118.3 102.6l-1.6-1-.2-1.2 1.5-1 1.4.8 2.3-2c.9-1.4 1.4-2.9 1.6-4.6l-.6-.7h-1l-2.3 1.3-1 1.2-1.2.2-1.6-1.2v-1.3l.2-.2V91l.2-.2v-2.5l.2-.2v-1.6l.2-.2v-1.9l.2-1-.2-.2V81l.2-.2h1.9l2.1.3.8-.3h3.5l1.2.7.2.7-2.3.7-1-.2-3.6 1.2-.2.2V86l-.2.2v2.1l-.4 1.8v1.8h.6l1.7-.6h2.1c.9.2 1.7.6 2.3 1.3l.6 2.1c-.4 2.8-1.9 5.2-4.5 7.2-.7.7-1.8.9-3.1.7zM138.3 103.1l-2.1-.8-1-1.6v-3.1l.2-.2v-1.8c.6-5.4 2.5-10.3 5.7-14.9l1.7-.2 1 .7.2.8 1.5.8c.6.9 1 1.8 1.1 2.9v3.2l-.2.2v1.6c-.9 4.2-2.9 8-6.1 11.5l-2 .9zm.2-2.4c1.4-1.3 2.5-2.7 3.3-4.4 1.3-2.3 2.1-4.7 2.4-7.5v-3.2l-.5-1-1.4-.5c-1.9 3.1-3.2 6.4-4 9.9v1.6l-.4 1.1v2.6l-.2.8.6.7.2-.1zM158.2 103.1l-2.1-.8-1-1.6v-3.1l.2-.2v-1.8c.6-5.4 2.5-10.3 5.7-14.9l1.7-.2 1 .7.2.8 1.5.8c.6.9 1 1.8 1.1 2.9v3.2l-.2.2v1.6c-.9 4.2-2.9 8-6.1 11.5l-2 .9zm.1-2.4c1.4-1.3 2.5-2.7 3.3-4.4 1.3-2.3 2.1-4.7 2.4-7.5v-3.2l-.5-1-1.4-.5c-1.9 3.1-3.2 6.4-4 9.9v1.6l-.4 1.1v2.6l-.2.8.6.7.2-.1z"/></g></svg>