<svg xmlns="http://www.w3.org/2000/svg" viewBox="0 0 140.54 140.54"><defs><style>.cls-1{fill:#999;fill-opacity:0;}.cls-2{fill:#fff;}</style></defs><title>アセット 6</title><g id="レイヤー_2" data-name="レイヤー 2"><g id="レイヤー_1-2" data-name="レイヤー 1"><g id="グループ化_979" data-name="グループ化 979"><rect id="長方形_137" data-name="長方形 137" class="cls-1" width="140.54" height="140.54"/><g id="グループ化_875" data-name="グループ化 875"><g id="グループ化_335" data-name="グループ化 335"><circle id="楕円形_5" data-name="楕円形 5" class="cls-2" cx="58.03" cy="65.87" r="4.49"/></g></g></g><polygon class="cls-2" points="92.08 89.08 38.63 89.08 38.63 46.86 95.52 46.86 95.52 68.66 97.62 68.66 97.62 44.63 36.73 44.63 36.73 91.19 92.08 91.19 92.08 89.08"/><polygon class="cls-2" points="108.02 81.6 97.59 81.6 97.59 71.16 94.49 71.16 94.49 81.6 84.05 81.6 84.05 84.69 94.49 84.69 94.49 95.13 97.59 95.13 97.59 84.69 108.02 84.69 108.02 81.6"/><path class="cls-2" d="M92.11,87.12H81.57V79.18l10.54-.05c-3.58-8.39-8.65-17.71-11.92-17.61-5.51.16-16.32,22.89-19.59,22.88s-7-9.49-10.08-9.49S38.66,90.67,38.66,90.67l53.45,0Z"/></g></g></svg>