<svg xmlns="http://www.w3.org/2000/svg" viewBox="0 0 147.2 149.88"><defs><style>.cls-1{fill:#473e8d}.cls-2{fill:#1d3033;stroke:#1d3033;stroke-linecap:round;stroke-linejoin:round;stroke-width:.66px}.cls-3{fill:#cfc338}.cls-4{fill:#a7b1d5}.cls-5{fill:#7e6e90}.cls-6{fill:#f7e5d7}.cls-7{fill:#514564}.cls-8{fill:#fff}.cls-9{fill:none}</style></defs><g id="レイヤー_2" data-name="レイヤー 2"><g id="レイヤー_3" data-name="レイヤー 3"><path class="cls-1" d="M140.62 108.4a69.61 69.61 0 0 1 4.3 36.83c-1-3.74-4.61-7.35-7.25-9.28-4-2.92-8.2-.59-11.2 2.49-.87-4.69-3.49-10.53-8-12.07v-.13a.55.55 0 0 0-1.07-.28.18.18 0 0 0 0 .12h-.12c-.34 0-.59.41-.26.59a.54.54 0 0 1 .18.1c-1.33 4.08-2.33 8.31-4.54 12.05-4.95 8.3-16.22 5-22.17 0-9.41-8-4.87-20.79-5.13-31.14a.66.66 0 0 0 .26-1c-3.18-5-3.18-11.64-2.9-17.53 1.16 2.72 1.93 5.59 3.18 8.28a60.48 60.48 0 0 0 5.17 8.57.51.51 0 0 0 .79.08 9.71 9.71 0 0 0 5.85-.77.64.64 0 0 0 .85-.18c2.58-3.51 4.94-7.2 7.43-10.77 2.18-3.1 4.69-5.89 6.94-8.89-2.46 7.89-6.58 18.38-1.53 25.78a.6.6 0 0 0 1.1-.18.53.53 0 0 0 .43-.07c8.13-4.8 15-14.31 12.87-24.12 8.2 3.12 11.69 13.98 14.82 21.52z"/><path class="cls-2" d="M144.92 145.23a69.61 69.61 0 0 0-4.3-36.83c-3.13-7.54-6.62-18.4-14.82-21.53 0-.13-.07-.26-.1-.39 6.31-.1 11.66 13.2 13.69 17.54a72.8 72.8 0 0 1 7.07 31.14 53.51 53.51 0 0 1-1.28 11.38 7.59 7.59 0 0 0-.26-1.31z"/><path class="cls-2" d="M145.18 146.54a53.51 53.51 0 0 0 1.28-11.38 72.8 72.8 0 0 0-7.07-31.16c-2-4.34-7.38-17.64-13.69-17.54a1 1 0 0 0 0-.2c7.53-1.62 13 14.63 15.25 19.5a66.12 66.12 0 0 1 4 43.55.25.25 0 0 1-.36.18.43.43 0 0 0 .31-.28 6.06 6.06 0 0 0 .28-2.67z"/><path class="cls-2" d="M144.39 148.56v-.07c.23-1.08.41-2.18.53-3.26a7.59 7.59 0 0 1 .26 1.31 6.06 6.06 0 0 1-.36 2.69.43.43 0 0 1-.31.28.33.33 0 0 1-.21-.36c.01-.15.06-.38.09-.59z"/><path class="cls-2" d="M144.92 145.23c-.12 1.08-.3 2.18-.53 3.26 0-4-2.31-7.49-5-10.23-5-4.77-8.59-3.59-12.77.82 0-.2-.08-.43-.1-.64 3-3.08 7.15-5.41 11.2-2.49 2.59 1.93 6.28 5.54 7.2 9.28z"/><path class="cls-2" d="M144.49 149.51a.42.42 0 0 1-.59-.28c-.74-2-.69-4.15-1.85-6.1a19.11 19.11 0 0 0-3.25-4.33c-2.23-2-5.28-4.15-8.33-2.23a22.67 22.67 0 0 0-3.82 3.2 5.4 5.4 0 0 0-.08-.69c4.18-4.41 7.77-5.59 12.77-.82 2.74 2.74 5 6.26 5 10.23v.07c0 .21-.08.39-.11.59a.33.33 0 0 0 .26.36z"/><path class="cls-2" d="M126.7 140.11c.08.64-.79.74-1.1.3-1.41-2.1-1.85-4.66-2.8-7a12.38 12.38 0 0 0-4.53-6 3.83 3.83 0 0 1 .1-.59c4.46 2 5.84 7.79 7.43 12.33-.1.1-.2.23-.31.33-.43.49.26 1.18.72.72l.44-.44a2 2 0 0 1 .05.35z"/><path class="cls-2" d="M126 139.72c.18-.23.39-.43.59-.64a5.4 5.4 0 0 1 .08.69l-.44.44c-.46.46-1.15-.23-.72-.72.11-.1.21-.23.31-.33a3 3 0 0 0 .18.56z"/><path class="cls-2" d="M126.47 138.44c0 .21.08.44.1.64-.2.21-.41.41-.59.64a3 3 0 0 1-.18-.56 9.2 9.2 0 0 1 .67-.72z"/><path class="cls-2" d="M126.47 138.44a9.2 9.2 0 0 0-.67.72c-1.59-4.54-3-10.31-7.43-12.33 0-.16 0-.31.08-.46 4.55 1.54 7.15 7.38 8.02 12.07zM125.16 86.48a.22.22 0 0 0 .1.11 2.09 2.09 0 0 1 .54.23c2.1 9.81-4.74 19.32-12.87 24.12a.53.53 0 0 1-.43.07v-.28l-.26-.79h.05c9.08-5.74 12.54-13.67 12.36-24.15 0-.49.69-.56.84-.1.06.2.11.38.16.59a1.07 1.07 0 0 0-.39.07.14.14 0 0 0-.1.13z"/><path class="cls-2" d="M125.7 86.48c0 .13.08.26.1.39a2.09 2.09 0 0 0-.54-.23.22.22 0 0 1-.1-.11.14.14 0 0 1 .1-.13 1.07 1.07 0 0 1 .39-.07 1 1 0 0 1 .05.15zM117.91 126.21a5.29 5.29 0 0 0-.54-.13.18.18 0 0 1 0-.12.55.55 0 0 1 1.07.28v.13a5.52 5.52 0 0 0-.53-.16z"/><path class="cls-2" d="M118.45 126.37c0 .15-.06.3-.08.46a2.2 2.2 0 0 0-.57-.23c0-.13.08-.26.11-.39a5.52 5.52 0 0 1 .54.16z"/><path class="cls-2" d="M118.37 126.83a3.83 3.83 0 0 0-.1.59 3.67 3.67 0 0 0-.57-.36 3.78 3.78 0 0 1 .1-.46 2.2 2.2 0 0 1 .57.23zM117.7 127.06a3.67 3.67 0 0 1 .57.36c-1 5.61-2.41 12.66-7.57 15.87s-11.84 2.92-17.19-.13a20.22 20.22 0 0 1-4.72-3.67.62.62 0 0 0-.13-1c-.36-.18-.77-.36-1.2-.54a21.4 21.4 0 0 1-3.1-5.59l.54-.23.07-.08a18.6 18.6 0 0 0 6.28 8.66c4 3.18 11.36 5.29 16.13 3.44 7.27-2.86 8.62-10.43 10.32-17.09zM117.91 126.21c0 .13-.08.26-.11.39a2.83 2.83 0 0 0-.56-.21 1.12 1.12 0 0 0 .1-.31 5.29 5.29 0 0 1 .57.13z"/><path class="cls-2" d="M117.8 126.6a3.78 3.78 0 0 0-.1.46c-.18-.1-.36-.21-.56-.31 0-.13.08-.25.1-.36a2.83 2.83 0 0 1 .56.21z"/><path class="cls-2" d="M117.14 126.75c.2.1.38.21.56.31-1.71 6.66-3 14.23-10.35 17-4.77 1.85-12.15-.26-16.13-3.44a18.6 18.6 0 0 1-6.28-8.62c.31-.2.11-.77-.28-.79-1.56-5-1.28-10.64-.66-16.15a.55.55 0 0 0 .1-1c.05-.48.1-1 .18-1.46a.49.49 0 0 0 .54-.59 10.35 10.35 0 0 0-.36-1c.15-1 .28-2.11.41-3.13a.7.7 0 0 0 .43-.15c.26 10.27-4.3 23.12 5.13 31.07 5.95 5 17.22 8.3 22.17 0 2.21-3.74 3.21-7.97 4.54-12.05z"/><path class="cls-2" d="M117.24 126.39c0 .11-.08.23-.1.36a.54.54 0 0 0-.18-.1c-.33-.18-.08-.64.26-.59h.12a1.12 1.12 0 0 1-.1.33zM98.14 104.68a.31.31 0 0 0-.33-.2h-.25c4.53-6.92 9.22-15.59 15.68-20.87.36-.28 1 .1.7.52-.19.25-.36.51-.57.74v-.49h-.1c-.1.33-.21.67-.31 1-2.25 3-4.76 5.79-6.94 8.89-2.49 3.57-4.85 7.26-7.43 10.77a.64.64 0 0 1-.85.18l.28-.16a.36.36 0 0 0 .15-.43z"/><path class="cls-2" d="M113.24 85.05a.46.46 0 0 0 .13-.18c0 4-1.23 7.69-2.05 11.53-1.1 5-.56 8.87.92 13.59a.61.61 0 0 0 .26 1.07.6.6 0 0 1-1.1.18c-5.05-7.4-.93-17.89 1.53-25.78a1.93 1.93 0 0 0 .31-.41z"/><path class="cls-2" d="M113.24 85.05a1.93 1.93 0 0 1-.28.36c.1-.36.21-.7.31-1h.1v.49a.46.46 0 0 1-.13.15zM112.5 110.78v.28a.61.61 0 0 1-.26-1.07zM109 41a.9.9 0 0 1-.64 1.1l-.89.26c-.29-.26-.57-.46-.83-.67a4.93 4.93 0 0 1 1.49-.46c-.43-2.2-2.89-3.13-5.07-3.82a5.94 5.94 0 0 0 1-.56c2.16.78 3.94 1.8 4.94 4.15zM107.48 42.37c1.71 1.49 3.1 3.69.84 5.36-1.61 1.2-.33 3-.31 4.61s-1.82 2-2.64 3a18.85 18.85 0 0 0-2.71 7.82 3.32 3.32 0 0 1-1.7 2.72 7.56 7.56 0 0 0-.3-1.06c1.12-.84 1.56-2 .07-3.79 3.72-.79 1.34-2.67 2.39-4a7.2 7.2 0 0 1 1.59-2.39c.79-1.3 1.84-.53 2.38-2.38.51-1.59-1.59-2.9-1-4.23.26-1 2.36-1 2.36-1.59a3.34 3.34 0 0 0-1.82-3.87c.26 0 .56-.1.85-.2z"/><path class="cls-2" d="M106.58 42.65a3.34 3.34 0 0 1 1.82 3.87c0 .54-2.1.54-2.36 1.59-.54 1.33 1.56 2.64 1 4.23-.54 1.85-1.59 1.08-2.38 2.38a7.2 7.2 0 0 0-1.59 2.39c-1.05 1.3 1.33 3.18-2.39 4 1.49 1.82 1 3-.07 3.79-.08-.28-.16-.56-.26-.82a.41.41 0 0 0-.36-.3 1.85 1.85 0 0 0-.13-2.18 1 1 0 0 1 .57-1.44c.72-.25 5.58-8.89 5.28-9.53-1.36-2.69 2.46-5.87-.72-7.8a.9.9 0 0 1 .23-1.64c3.56-1-2.41-2.89-3.69-3.3a.86.86 0 0 1-.64-.85 9.23 9.23 0 0 0 1.1-.82V37a1.89 1.89 0 0 1-.23 0l.23.08v.77a5.41 5.41 0 0 0 1-.44c2.18.69 4.64 1.62 5.07 3.82a4.93 4.93 0 0 0-1.49.46c-.25-.15-.46-.3-.69-.43 0 .23-.07.48-.1.71a1.8 1.8 0 0 1-.36.06l.33.18c0 .23-.07.46-.1.69zM107.58 13c1.38 5.49.64 14.61-3.13 20.35a7.74 7.74 0 0 0-.9-1c3.26-5.41 4.87-12.26 3.52-18.15a5.9 5.9 0 0 1 .43-.59l-.59-.08c0-.1 0-.2-.08-.31l-.2.29-.54-.08c0 .21.1.41.13.61-2.41 3.16-5.2 7-8.79 8.85a2.44 2.44 0 0 0-.52-.64c3.9-2 6.57-5.87 9.26-9.41a.77.77 0 0 1 1.41.16z"/><path class="cls-2" d="M107.5 13.61a5.9 5.9 0 0 0-.43.59 3 3 0 0 0-.16-.67zM107.48 42.37c-.29.1-.59.2-.9.28a4.47 4.47 0 0 0-.75-.43v-.24a3.41 3.41 0 0 0 .79-.28c.29.21.57.41.86.67zM107.07 14.2c1.35 5.89-.26 12.74-3.52 18.15-.28-.23-.56-.47-.87-.7a18.91 18.91 0 0 0 2.59-4.92A24.44 24.44 0 0 0 106.42 15c.21-.24.41-.52.65-.8z"/><path class="cls-2" d="M106.91 13.53a3 3 0 0 1 .16.67c-.24.28-.44.56-.65.84 0-.33-.12-.66-.2-1 .13-.17.26-.35.41-.53z"/><path class="cls-2" d="M106.83 13.22c0 .11.06.21.08.31h-.28zM106.63 13.51c-.15.18-.28.36-.41.53 0-.2-.08-.4-.13-.61zM106.58 42.65l-.85.26c0-.23.08-.46.1-.69a4.47 4.47 0 0 1 .75.43z"/><path class="cls-3" d="M106.42 15a24.44 24.44 0 0 1-1.15 11.69 18.91 18.91 0 0 1-2.59 4.92 7.5 7.5 0 0 0-.72-.48c1.59-.8 2.39-2.34.34-4.16-1.08-1-4-1.74-4.39-3.1a2.58 2.58 0 0 0-.2-.51c3.56-1.7 6.23-5.06 8.71-8.36z"/><path class="cls-2" d="M106 41.27c.23.13.44.28.69.43a3.41 3.41 0 0 1-.79.28c-.01-.23.04-.48.1-.71zM106.22 14c.08.34.15.67.2 1-2.48 3.26-5.15 6.62-8.71 8.36a2 2 0 0 0-.28-.51C101 21 103.81 17.2 106.22 14zM105.86 42v.24l-.36-.24a1.8 1.8 0 0 0 .36 0z"/><path class="cls-2" d="M105.76 50.6c.3.64-4.56 9.28-5.28 9.53a1 1 0 0 0-.57 1.44 1.85 1.85 0 0 1 .13 2.18.44.44 0 0 0-.61.43.77.77 0 0 1 0 .26 12 12 0 0 1-2.92 1.61c.67-1.94 2-3.69 2.84-5.51a.48.48 0 0 0-.07-.61c.15-2.39.3-4.74.46-7.1.41-.29.31-1-.28-1-2.88.17-4.26-2.21-3.55-4.83a.74.74 0 0 0-.53-.89c-1.46-.21-4.8-.44-4.67-2.72a.83.83 0 0 0-1-.8c-3 .39-4.62-.59-4.69-2.89a1 1 0 0 0-1.39-.57l-5-2.61a1 1 0 0 0-1.57-.41c-3.76 3.1-6.25-3.46-9.12-4.26a2.58 2.58 0 0 0-1.67.31c-2.38 1.39-4.33-.2-5.61-2.51A1.08 1.08 0 0 0 59 29.4c-3.1 2.74-7.79 6-10.87 1.59v-.31c0-.23-.2-.33-.36-.26a6 6 0 0 1-.41-.76c-.46-1-1.72-.36-1.82.48-.2 1.8-4.33 10.61-6.69 5.62-.46-1-1.92-.29-1.69.71 1.13 4.57-4.38 5-7 5a.9.9 0 0 0-.85.64c-1.49 1.31-2.95 2.62-4.41 3.92a.74.74 0 0 0-.61.75.53.53 0 0 0-.08.56c1.74 4.1-.77 6-4 7.18a.54.54 0 0 0-.26.89c.36 1.34.69 2.67 1.05 4a.54.54 0 0 0 0 .77c3.21 2.9-2.59 4.54-3.87 5.18a.59.59 0 0 0-.2.82 7.36 7.36 0 0 1 1.56 6.15.56.56 0 0 0 .38.69c2.57.9-2.48 2.82-2.89 2.9a.56.56 0 0 0-.18 1c-2.39-.71-3.28-2.71-4.74-4.51-.8-.94-5.39-5-2.08-5.15a.57.57 0 0 0 .28-1.05l-1.19-4.77a.52.52 0 0 0-.23-.87c-4.18-1.36-.46-4.82.72-5.77a.46.46 0 0 0 0-.69c-4.54-4.9-.36-5 1.15-7a2.4 2.4 0 0 0 0-1.9l.23.08a.3.3 0 0 0 .29-.51c-.11-.13-.24-.26-.34-.39a1.74 1.74 0 0 0 .36.08c1.59.18 3.54.1 4.8-1.1a18 18 0 0 0 2.12-2.62c1.18-1.66 2.41-1.89 4.18-2.56 3-1.13 2.85-6.15 2.33-8.59-.46-2.2-2.46-5-4.28-2.28a.45.45 0 0 0-.05.33l-3.54.83a.44.44 0 0 0-.35-.39 3.85 3.85 0 0 0-3.95 1.36.79.79 0 0 1-.16-.08c-1.57-1-1.18-2.84 1.1-5.59.38-.12.77-.25 1.15-.33l.36.39a3.83 3.83 0 0 0 2.57 2.07c4.89 1.41 11.38-4.41 16.5-3.95 4.18.23 6.28 3.26 10.92 2.57 4.18-.69 6.51-2.34 10.69-.69C59.31 25.4 63 28 68.39 27.73c3.48-.23 6.25-2.1 9.74-1.87 1.1 0 15.15 1.87 17.78-.74.29.26.59.49.88.74a.77.77 0 0 0 .56.57c1.9-.11 2.67 1.12 2.33 3.66-.74.05-1.25 1.2-.41 1.56a15.18 15.18 0 0 1 2.44 1.44 25.1 25.1 0 0 0-2.51 4.31.27.27 0 0 0 .35.38 12.4 12.4 0 0 0 1.39-.77.86.86 0 0 0 .64.85c1.28.41 7.25 2.25 3.69 3.3a.9.9 0 0 0-.27 1.64c3.22 1.93-.6 5.11.76 7.8z"/><path class="cls-2" d="M104.45 33.37a2.31 2.31 0 0 1-.38 3.49c-.26-.1-.54-.21-.85-.31 1.49-.67 1.51-1.64.82-2.59a5.13 5.13 0 0 0 .41-.59z"/><path class="cls-2" d="M104.45 33.37a5.13 5.13 0 0 1-.45.63 6.71 6.71 0 0 0-.9-1 5.43 5.43 0 0 0 .41-.61 7.74 7.74 0 0 1 .94.98zM104 34c.69.95.67 1.92-.82 2.59-.38-.13-.77-.26-1.18-.38.16-.13.33-.29.49-.44a1.8 1.8 0 0 1 .2-.18 1.46 1.46 0 0 0 .21-.23A11.45 11.45 0 0 0 104 34z"/><path class="cls-2" d="M103.22 36.55c.31.1.59.21.85.31a5.94 5.94 0 0 1-1 .56c-.36-.1-.7-.23-1-.33v-.16a5.85 5.85 0 0 0 1.15-.38zM104 34a11.45 11.45 0 0 1-1.1 1.36c.28-.46.07-1-.36-1.49.2-.28.38-.56.56-.87a6.71 6.71 0 0 1 .9 1zM103.55 32.35a5.43 5.43 0 0 1-.41.61c-.25-.23-.56-.43-.87-.66l.41-.65c.32.23.59.47.87.7z"/><path class="cls-2" d="M102 36.17c.41.12.8.25 1.18.38a5.85 5.85 0 0 1-1.18.38zM102.58 33.83c.43.52.64 1 .36 1.49a1.46 1.46 0 0 0-.21.23 1.8 1.8 0 0 0-.2.18 3.87 3.87 0 0 1-1 .44.82.82 0 0 0-.64.82 12.4 12.4 0 0 1-1.39.77.27.27 0 0 1-.35-.38 25.1 25.1 0 0 1 2.51-4.31 9.14 9.14 0 0 1 .92.76z"/><path class="cls-2" d="M102.73 35.55a1.46 1.46 0 0 1 .21-.23 1.46 1.46 0 0 1-.21.23zM102.3 27c2 1.82 1.25 3.36-.34 4.16a5.79 5.79 0 0 0-.64-.36c3.26-.82-.25-5.15-3.74-5.15a4.68 4.68 0 0 0-.67-1.93 6.38 6.38 0 0 0 .8-.33 2.58 2.58 0 0 1 .2.51c.39 1.37 3.31 2.1 4.39 3.1zM103.07 37.42a5.41 5.41 0 0 1-1 .44v-.77c.3.1.64.23 1 .33zM103.14 33c-.18.31-.36.59-.56.87a9.14 9.14 0 0 0-.87-.74l.56-.79c.31.19.62.39.87.66z"/><path class="cls-2" d="M97.58 25.66c3.49 0 7 4.33 3.74 5.15a13.29 13.29 0 0 0-1.2-.59c-.08.23-.13.46-.21.72h-.23l.21.07c-.08.23-.13.49-.21.74a5.61 5.61 0 0 0 1.36-.23c.41.23.82.49 1.2.75l-.56.79a15.18 15.18 0 0 0-2.44-1.44c-.84-.36-.33-1.51.41-1.56.34-2.54-.43-3.77-2.33-3.66a.77.77 0 0 1-.56-.57c-.29-.25-.59-.48-.88-.74a1.17 1.17 0 0 0 .45-1.09 2 2 0 0 0 .58-.23 4.68 4.68 0 0 1 .67 1.89zM102.53 35.73c-.16.15-.33.31-.49.44a9.23 9.23 0 0 1-1.1.82.82.82 0 0 1 .64-.82 3.87 3.87 0 0 0 .95-.44z"/><path class="cls-2" d="M102 31.17a7.5 7.5 0 0 1 .72.48l-.41.65c-.38-.26-.79-.52-1.2-.75a5.41 5.41 0 0 0 .89-.38zM102 37v.13l-.23-.08A1.89 1.89 0 0 0 102 37z"/><path class="cls-2" d="M102 31.17a5.41 5.41 0 0 1-.89.38 9.44 9.44 0 0 0-1.22-.55.1.1 0 0 0 0-.07 4.86 4.86 0 0 0 1.41-.13 5.79 5.79 0 0 1 .7.37zM101 65.93c1.82 6.63 1.65 15.22-1 21.35a.63.63 0 0 1-1.08 0c-1-2-2.89-6.28-2.66-8-.34 2.59-2 5.08-3.39 7.2a.51.51 0 0 1-.46.26l.16-.15a.52.52 0 0 0 0-.67c1.59-2.31 3.33-5.23 3.56-8.15 1.28 2.59 1.59 5.74 2.9 8.43l-.16.41h.39a1.47 1.47 0 0 0 .15.31 2 2 0 0 0 .13-.31h.46a3.05 3.05 0 0 1-.2-.46c1.94-5 1.79-14.2.64-20a4.74 4.74 0 0 0 .56-.22z"/><path class="cls-2" d="M100.66 64.87a7.56 7.56 0 0 1 .3 1.06 4.74 4.74 0 0 1-.53.3c-.08-.36-.16-.72-.23-1a5.27 5.27 0 0 0 .46-.36zM101.32 30.81a4.86 4.86 0 0 1-1.41.13c.08-.26.13-.49.21-.72a13.29 13.29 0 0 1 1.2.59zM99.4 85.36a30.61 30.61 0 0 0 1.23-11c-.08-1.9-.92-5.49-1.08-7.64.29-.18.59-.31.88-.49 1.15 5.77 1.3 15-.64 20a5.26 5.26 0 0 1-.39-.87z"/><path class="cls-4" d="M100.63 74.36a30.61 30.61 0 0 1-1.23 11c-1.05-2.57-1.64-5.26-3-7.69a.28.28 0 0 0-.49.07 20.66 20.66 0 0 1-3.79 8 .39.39 0 0 0-.18.06 4.47 4.47 0 0 0-1.82 1.64c-.75-.72-1.52-1.41-2.28-2.1-1.47-1.31-3-2.54-4.44-3.82-.18-.16-.36-.29-.56-.47h.07c2-.8 4.87-1.41 6.75-2.87a4.21 4.21 0 0 0 .12 2 .14.14 0 0 0 .23 0 1.29 1.29 0 0 0 .34-.64.21.21 0 0 0 .18 0c4.84-1.44 4.92-6.69 4.64-11a.85.85 0 0 0 .51-.13 35.2 35.2 0 0 1 3.89-1.74c.14 2.2.98 5.79 1.06 7.69z"/><path class="cls-2" d="M100.4 64.05c.1.26.18.54.26.82a5.27 5.27 0 0 1-.46.31c-.08-.36-.16-.69-.26-1h-.26a2.93 2.93 0 0 0 .36-.43.41.41 0 0 1 .36.3zM100.43 66.23c-.29.18-.59.31-.88.49a3.94 3.94 0 0 1 0-1.18 6.32 6.32 0 0 0 .65-.36c.07.33.15.69.23 1.05zM101 31.55a5.61 5.61 0 0 1-1.36.23c.08-.25.13-.51.21-.74a9.44 9.44 0 0 1 1.15.51z"/><path class="cls-2" d="M99.68 64.18h.26c.1.31.18.64.26 1a6.32 6.32 0 0 1-.65.36.38.38 0 0 1 0-.15c0 .12-.2 0-.2 0 0-.31.05-.59.05-.9a1.39 1.39 0 0 0 .28-.31z"/><path class="cls-2" d="M99.43 64.18a.44.44 0 0 1 .61-.43 2.93 2.93 0 0 1-.36.43 1.39 1.39 0 0 1-.28.26.77.77 0 0 0 .03-.26zM99.79 86.2a3.05 3.05 0 0 0 .2.46h-.41a4.69 4.69 0 0 0 .21-.46zM99.91 30.94a.1.1 0 0 1 0 .07l-.21-.07zM99.4 52.34c-4.48.54-5.54-1.31-4.2-5.54-2.64-.53-6.08.26-5.28-3.43-4 1.59-5 .25-5.82-3.44-2.87 2.62-5.31.93-6.15-2.15.15-.1.3-.23.46-.36l-.57-.15a4.18 4.18 0 0 1-.1-.51l-.38.38-.52-.14c.06.15.08.3.13.46-4.2 3.18-6-3.92-9.28-4.67-1.18-.23-1.92 1.67-3 1.85a.92.92 0 0 0 0-.28.07.07 0 0 0-.13 0c0 .1 0 .2-.07.3a.3.3 0 0 1-.13 0c-1.74-.21-3.13-2.05-4-3.57a1.7 1.7 0 0 0 .23-.17l-.36-.06c-.13-.25-.26-.48-.36-.69-.2.18-.41.36-.61.57l-.28-.06a1 1 0 0 0 .1.18c-3.13 2.62-7.79 4.93-10.74 2.05 0-.61 0-1.25-.08-1.89 3.08 4.38 7.77 1.15 10.87-1.59a1.08 1.08 0 0 1 1.64.23c1.28 2.31 3.23 3.9 5.61 2.51a2.58 2.58 0 0 1 1.62-.34c2.87.8 5.36 7.36 9.12 4.26a1 1 0 0 1 1.57.41l5 2.61a1 1 0 0 1 1.39.57c.07 2.3 1.64 3.28 4.69 2.89a.83.83 0 0 1 1 .8c-.13 2.28 3.21 2.51 4.67 2.72a.74.74 0 0 1 .53.89c-.71 2.64.67 5 3.52 4.82.59 0 .69.74.28 1-.16 2.36-.31 4.71-.46 7.1a.48.48 0 0 1 .07.61c-.84 1.82-2.17 3.57-2.84 5.51-.46.21-.87.39-1.2.57.41-2.13 2.51-4.54 3.64-6.33a4.52 4.52 0 0 1 .42-7.92z"/><path class="cls-2" d="M99.79 86.2a4.69 4.69 0 0 1-.21.46h-.28a2.82 2.82 0 0 1-.23-.41 8.24 8.24 0 0 0 .33-.89 5.26 5.26 0 0 0 .39.84zM99.58 86.66a2 2 0 0 1-.13.31 1.47 1.47 0 0 1-.15-.31zM99.55 65.39a.38.38 0 0 0 0 .15c-1 .54-2.33 1-3.31 1.49a6.09 6.09 0 0 1 .23-1 12 12 0 0 0 2.92-1.61c0 .31 0 .59-.05.9.01.12.19.19.21.07z"/><path class="cls-2" d="M99.53 65.54a3.94 3.94 0 0 0 0 1.18 35.2 35.2 0 0 0-3.89 1.74.85.85 0 0 1-.51.13c0-.41-.06-.79-.08-1.18a.4.4 0 0 0-.67-.28c.67-2.46 3.95-5.87 2.93-7.61s-1.72-3.9-.34-5.67c1.67-2.1-.56-.51-2.33-2.05-.85-.74-.33-4.38-.82-4.43-1.82-.16-4.18-.16-4.77-2.31-.1-.36-3.43-.36-4.2-1.13-.57-.56-1.05-2.66-1.82-2.15a3 3 0 0 1-2.16.36 5.36 5.36 0 0 1-3.69-3.9c.23-.13.49-.28.75-.46.84 3.08 3.28 4.77 6.15 2.15.79 3.69 1.84 5 5.82 3.44-.8 3.69 2.64 2.9 5.28 3.43-1.34 4.23-.28 6.08 4.2 5.54a4.52 4.52 0 0 0-.51 7.95c-1.13 1.79-3.23 4.2-3.64 6.33a1.62 1.62 0 0 0-.51.28 3.28 3.28 0 0 1 .43.26 2.8 2.8 0 0 0 0 .51 1.39 1.39 0 0 1 .38-.28 4.29 4.29 0 0 1 .51.28 3.46 3.46 0 0 1 .13-.64c1.03-.51 2.31-.95 3.36-1.49zM99.4 85.36a8.24 8.24 0 0 1-.33.89c-1.31-2.69-1.62-5.84-2.9-8.43-.23 2.92-2 5.84-3.56 8.15a.62.62 0 0 0-.49-.23 20.66 20.66 0 0 0 3.79-8 .28.28 0 0 1 .49-.07c1.36 2.43 1.95 5.12 3 7.69zM99.3 86.66h-.39l.16-.41a2.82 2.82 0 0 0 .23.41zM98.14 104.71a.36.36 0 0 1-.15.43l-.28.16a.56.56 0 0 1-.26-.36.55.55 0 0 1 .08-.41h.25a.31.31 0 0 1 .33.2zM97.43 22.89a2 2 0 0 1 .28.51 6.38 6.38 0 0 1-.8.33 2.25 2.25 0 0 0-.3-.46z"/><path class="cls-2" d="M97.56 104.5a.55.55 0 0 0-.08.41 22.1 22.1 0 0 1-5.53.54c-.06-.21-.11-.39-.18-.57a53.67 53.67 0 0 1 5.79-.38z"/><path class="cls-4" d="M97.33 59.52c1 1.74-2.26 5.15-2.93 7.61a.3.3 0 0 0-.13.25c-.28 4.18-.44 8.64-3.85 11.51a4.45 4.45 0 0 1 .29-1.72.35.35 0 0 1 0-.08c.2-.31-.18-.64-.49-.49-1.18.62-2.26 1.39-3.46 2s-2.26.93-3.36 1.36c6.1-7.87 3.54-22.35 1.85-31.12-.11-.54-.87-.31-.8.23.39 2.39.67 4.77.82 7.1-3.23-3.15-7-5.66-10.48-8.56-3.21-2.72-6.2-5.71-9.31-8.56a29.4 29.4 0 0 0-.59-3.28c1.65-.26 1.65-3.43 4.7-.46 2.71 2.66 4.43 4.82 7.58 3a5.36 5.36 0 0 0 3.69 3.9 3 3 0 0 0 2.16-.36c.77-.51 1.25 1.59 1.82 2.15.77.77 4.1.77 4.2 1.13.59 2.15 3 2.15 4.77 2.31.49.05 0 3.69.82 4.43 1.77 1.54 4 0 2.33 2.05-1.35 1.7-.63 3.93.37 5.6z"/><path class="cls-2" d="M97.45 104.94a.56.56 0 0 0 .26.36 9.71 9.71 0 0 1-5.85.77.45.45 0 0 0 .11-.46v-.13a22.1 22.1 0 0 0 5.48-.54zM97.43 22.89l-.82.38a5.38 5.38 0 0 0-.54-.64 6.23 6.23 0 0 0 .84-.38 2.44 2.44 0 0 1 .52.64zM96.61 23.27a2.25 2.25 0 0 1 .3.46 2 2 0 0 1-.58.23 1.11 1.11 0 0 0-.16-.51c.13-.05.28-.13.44-.18z"/><path class="cls-2" d="M96.61 23.27c-.16.05-.31.13-.44.18a2.63 2.63 0 0 0-.41-.69 2 2 0 0 0 .31-.13 5.38 5.38 0 0 1 .54.64zM96.33 24a1.17 1.17 0 0 1-.42 1.13l-.91-.78c.45-.1.89-.23 1.33-.35z"/><path class="cls-2" d="M96.33 24c-.44.13-.88.26-1.34.36-.18-.16-.33-.28-.51-.46a7.65 7.65 0 0 0 1.69-.44 1.11 1.11 0 0 1 .16.54zM96.45 66.05a6.09 6.09 0 0 0-.23 1 3.55 3.55 0 0 0-.64.36l-.41-.23c0-.18 0-.36.08-.54.33-.2.75-.38 1.2-.59z"/><path class="cls-2" d="M96.22 67a3.46 3.46 0 0 0-.13.64 4.29 4.29 0 0 0-.51-.28 3.55 3.55 0 0 1 .64-.36zM96.91 22.25a6.23 6.23 0 0 1-.84.38 4.33 4.33 0 0 0-.95-.74 2.45 2.45 0 0 0 .41-.69 4.9 4.9 0 0 1 1.38 1.05z"/><path class="cls-2" d="M96.07 22.63a2 2 0 0 1-.31.13 4.92 4.92 0 0 0-.67-.85 4.33 4.33 0 0 1 .98.72zM95.76 22.76a2.63 2.63 0 0 1 .41.69 7.65 7.65 0 0 1-1.69.44c-.23-.18-.43-.39-.66-.57a9 9 0 0 0 1.94-.56z"/><path class="cls-2" d="M95 24.35l.92.77c-2.63 2.61-16.68.74-17.78.74-3.49-.23-6.26 1.64-9.74 1.87-5.4.27-9.09-2.33-13.73-3.94-4.18-1.65-6.51 0-10.69.69-4.64.69-6.74-2.34-10.92-2.57-5.12-.46-11.61 5.36-16.5 3.95A3.83 3.83 0 0 1 14 23.79l-.36-.39c2.7-.64 5.59-.41 8.21-1.46.33-.15.59-.62.23-.9.13-5.38 1.82-6.82 5.07-4.28a.53.53 0 0 0 .9-.36c0-4.07 6.46-2.71 8.33-1.95A.44.44 0 0 0 37 14c1.36-4.33 3.15-5 5.38-2.13 0 .46.72.77.95.26.77-2.75 3.08-3 7-.9.11.51.72.49 1 .13.59-.77 5.16-5.64 6-1.69a.66.66 0 0 0 1 .38c1.63-1.13 8.17-5 8.5.26a.7.7 0 0 0 1.18.49c1.7-1.52 6.13-3.44 7.51 0a.78.78 0 0 0 1.11.44l2.89-.7a3 3 0 0 1 3.21 1.52c-.59.38-.41 1.46.38 1.4.1 0 6.69.16 4.1 2-.56.44-.43 1.49.41 1.47.57 0 7.92 1.17 4.1 3.28-.56.3-.51 1.36.18 1.46.67.56 1.31 1.13 2 1.66a9.48 9.48 0 0 1-1 .18c-.69.11-.71 1.13 0 1.11a12.51 12.51 0 0 0 2.1-.27z"/><path class="cls-2" d="M50.78 11.07c1.38-2.1 6.87-6 7.15-1.54 2.36-1.87 9.76-5.3 9.51.8 1.84-2.13 7.92-3.72 8.71.25 2.57-1.61 9.67-.58 8 1.31H83c0 .23.13.44.18.67l-.18.08h.21c0 .23.12.46.18.69a6.14 6.14 0 0 0 1-.74c2.85 0 7.07.46 4.18 2.79a5.15 5.15 0 0 0-1-.05c0 .21.11.44.18.64a.68.68 0 0 1-.18.13h.21c.05.23.13.48.18.71.33-.23.61-.48.87-.69 2.84.23 6.89 2.41 4.38 4.18a9.88 9.88 0 0 0-1-.18 4.76 4.76 0 0 0 .11.64l-.31.13a1.67 1.67 0 0 1 .31 0c0 .23.07.44.1.67.31-.18.59-.36.82-.51a4.68 4.68 0 0 1 1.87.82 4.92 4.92 0 0 1 .67.85 9 9 0 0 1-2 .56c-.67-.53-1.31-1.1-2-1.66-.69-.1-.74-1.16-.18-1.46 3.82-2.11-3.53-3.31-4.1-3.28-.84 0-1-1-.41-1.47 2.59-1.84-4-2-4.1-2-.79.06-1-1-.38-1.4a3 3 0 0 0-3.21-1.52l-2.89.7a.78.78 0 0 1-1.11-.44c-1.38-3.41-5.81-1.49-7.51 0a.7.7 0 0 1-1.18-.49c-.33-5.28-6.87-1.39-8.5-.26a.66.66 0 0 1-1-.38c-.87-3.95-5.44.92-6 1.69-.28.36-.89.38-1-.13-3.89-2.13-6.2-1.85-7 .9-.23.51-.92.2-.95-.26C40.11 9 38.32 9.69 37 14a.44.44 0 0 1-.59.43C34.5 13.69 28 12.33 28 16.4a.53.53 0 0 1-.9.36c-3.25-2.54-4.94-1.1-5.07 4.28.36.28.1.75-.23.9-2.62 1-5.51.82-8.21 1.46l-.33-.33a1 1 0 0 0 .28-.13c2.9-.57 6.33-.54 8.13-1.51-5.28-3.44 2.38-9 5.82-5-.8-4 6.58-3.71 9-2.38-.8-3.44 6.61-6.87 6.36-2.13 1.06-3.98 7.39-6.1 7.93-.85z"/><path class="cls-2" d="M94.86 18.2c.39 1.3 1 2 .67 3a8.87 8.87 0 0 0-1.64-.72c2.15-2.26-1.36-4.38-4.51-5 2.1-2.43-1.18-3.46-4.33-3.61 1.66-2.75-8.44-2.62-8.8-3-2.35-2.28-5.76-1.64-8.33.13 1.39-1.16-3-2.82-4.25-2.72a13 13 0 0 0-4.54 1.66c-1.54.82-.38 0-1.74-.82A2.89 2.89 0 0 0 55 7.1c-1.18.54-3.79 2.72-4 2.36-1.59-2.59-3.82-2.46-6.28-1a2.48 2.48 0 0 0-1.41 2.23 2.11 2.11 0 0 0-1.51-1.46 5.08 5.08 0 0 0-5.38 2.87c-.74 2.2-5.61-.08-8 1.33-2.92 1.72-.1 1.51-4 1.08-2-.23-5.44 1.94-5.05 4.25.28 1.67 1.94 2.38 0 2.85a45 45 0 0 1-4.79.71c1-1 .48-2.43-.8-3.89.49-.23 3-.93 3-1.16a5.34 5.34 0 0 0 .22-1.64c.95-1.61-.92-3.71 3-3.25 0-2.77 2.8-2.08 4.41-.92C23.76 8 27 8.2 29.35 8.66c0-2.07 2.3-2.54 3.94-1.61-3-2.34 3-6.28 3.49-1.87C38.16 4 40 1.46 41.42 3.33h.23c1.64-2.79 4.41-2.33 6.28 0C48.39.08 53-.85 54.44 2.15c2.31-2.54 4.87 0 5.79 2.1 1.41-.92 9.54-5.1 7.21-.23 1.18-.23 2.79-.92 3.94-.69 1.41.23 2.11 1.85 3 2.08 2.33.48 4.2-1.39 5.82 1.41 2.1-1.18 5.82-.93 5.82 2.07 2.3 0 2.53 1.87 3.94 3 .7.92 2.08 1.41 3.26 2.56.03.26 1.64 3.75 1.64 3.75zM95.17 67.16l.41.23a1.39 1.39 0 0 0-.38.28 2.8 2.8 0 0 1-.03-.51zM90.58 88.74c.13-.16.23-.31.36-.46a22.41 22.41 0 0 1 4.46 5.87c.08.2-.15.41-.31.23s-.33-.34-.46-.52c-1.54-1.61-3-3.2-4.56-4.74a.5.5 0 0 0 .44-.25c.02-.05.05-.08.07-.13z"/><path class="cls-2" d="M95.53 21.2a2.45 2.45 0 0 1-.41.69 4.68 4.68 0 0 0-1.87-.82 4.78 4.78 0 0 0 .64-.59 8.87 8.87 0 0 1 1.64.72zM95.25 66.62c0 .18 0 .36-.08.54a3.28 3.28 0 0 0-.43-.26 1.62 1.62 0 0 1 .51-.28zM94.66 68.41a1.08 1.08 0 0 0 .49.18c.28 4.31.2 9.56-4.64 11a.21.21 0 0 1-.18 0 2.27 2.27 0 0 0 .07-.59c3.41-2.87 3.57-7.33 3.85-11.51a.3.3 0 0 1 .13-.25c0 .17-.08.36-.11.51a.78.78 0 0 0 .39.66z"/><path class="cls-2" d="M94.66 68.41a.78.78 0 0 1-.39-.74c0-.15.06-.34.11-.51a.4.4 0 0 1 .67.28c0 .39.05.77.08 1.18a1.08 1.08 0 0 1-.47-.21zM94.38 101.17a4.64 4.64 0 0 1-.64 0 19.33 19.33 0 0 0-1.57-4c-.07-.18.08-.46.31-.39a1.39 1.39 0 0 1 .41.23.72.72 0 0 1 .15.11.35.35 0 0 1 .08 0l.08.07c1.15 1 1.48 3 1.89 4.34a.6.6 0 0 1-.56.76 9.88 9.88 0 0 1-4.38-.46c-.31-.48-.64-.94-1-1.43a7 7 0 0 0 4.72 1.41v.13a.44.44 0 0 0 .1-.15 1.43 1.43 0 0 0 .46 0c0-.13-.08-.28-.13-.44l.13-.15zM94.45 23.89c.18.18.33.3.51.46a12.51 12.51 0 0 1-2.18.26c-.71 0-.69-1 0-1.11a9.48 9.48 0 0 0 1-.18c.22.18.44.39.67.57z"/><path class="cls-2" d="M93.79 96.43a2.24 2.24 0 0 0-.34-.23 14.06 14.06 0 0 0 .41-2 .47.47 0 0 1 .72-.33.31.31 0 0 1 .13.33c-.08.87-.72 1.79-.41 2.69.15.39-.38.85-.74.56l-.36-.23-.08-.07a.35.35 0 0 0-.08 0 .72.72 0 0 0-.15-.11c-1-.71-2.51-1.43-3.15 0a8 8 0 0 0-.41 2.59l-.46-.18c0-2.82 1-5.15 4.48-2.71v.33l.28-.15a.83.83 0 0 1 .23.15 1.23 1.23 0 0 1 0-.28l.28-.16c-.14-.07-.25-.12-.35-.2z"/><path class="cls-5" d="M94.63 93.86v.06a.47.47 0 0 0-.72.33 14.06 14.06 0 0 1-.41 2c-1.2-.82-2.71-1.46-4-.44a4.44 4.44 0 0 0-1.13 3.49 14.61 14.61 0 0 1-.79-1.3c-2-3.59-2.71-7.74-4.87-11.28a.55.55 0 0 0-1 .26q.07 1.84 0 3.69a.57.57 0 0 0-.77.23c-1.67 3.13-4.84 5.72-3 9.59 1.23 2.56 2.43 5.07 3.41 7.76a9 9 0 0 0 2.08 3.75c-.13.67-.23 1.33-.33 2-6.85.8-10.95-3.59-13.66-9.17a.13.13 0 0 0 0-.06c.92-3.64.39-7.53.31-11.28-.1-4.12 0-8.22 0-12.38a60.89 60.89 0 0 0 6.48-3.35 1.51 1.51 0 0 0 .31.12c1.85.59 3.54 2.65 5 3.85s3 2.49 4.51 3.74a43.3 43.3 0 0 1 3.46 3.18.55.55 0 0 0 .51.51c1.59 1.5 3.07 3.09 4.61 4.7z"/><path class="cls-2" d="M94.53 101.17l-.13.15v-.15z"/><path class="cls-2" d="M94.4 101.32c0 .16.08.31.13.44a1.43 1.43 0 0 1-.46 0c.1-.13.23-.28.33-.44z"/><path class="cls-2" d="M94.38 101.17v.15c0 .05-.23.31-.33.47s-.07 0-.12 0c-.06-.2-.13-.41-.18-.61a4.64 4.64 0 0 0 .63-.01zM89.38 15.53c3.15.57 6.66 2.69 4.51 5-.26-.05-.49-.13-.72-.18 2.51-1.77-1.54-3.95-4.38-4.18a6.55 6.55 0 0 0 .59-.64zM94.07 96.63l-.28.16a.73.73 0 0 1 0-.36c.1.08.21.13.28.2z"/><path class="cls-2" d="M93.92 101.81h.12a.44.44 0 0 1-.1.15s-.02-.1-.02-.15zM93.74 101.2c.05.2.12.41.18.61a7 7 0 0 1-4.72-1.41 4 4 0 0 0 .13-.77 11.67 11.67 0 0 0 2.25 1.23 9 9 0 0 0 2.16.34zM93.17 20.3c.23.05.46.13.72.18a4.78 4.78 0 0 1-.64.59 3 3 0 0 0-.92-.16v-.15a6.34 6.34 0 0 0 .84-.46zM93.79 96.79a1.23 1.23 0 0 0 0 .28.83.83 0 0 0-.23-.15 2.39 2.39 0 0 1 .23-.13z"/><path class="cls-2" d="M93.79 96.43a.73.73 0 0 0 0 .36 2.39 2.39 0 0 0-.21.13 1 1 0 0 0-.23-.18c0-.18.08-.36.1-.54a2.24 2.24 0 0 1 .34.23z"/><path class="cls-2" d="M93.35 96.74a1 1 0 0 1 .23.18l-.28.15c.03-.07.03-.23.05-.33z"/><path class="cls-2" d="M93.45 96.2c0 .18-.07.36-.1.54-3.46-2.44-4.48-.11-4.48 2.71h-.08a.41.41 0 0 0-.31 0s-.08-.13-.13-.18a4.44 4.44 0 0 1 1.13-3.49c1.26-1.04 2.77-.4 3.97.42zM93.12 97.2a.35.35 0 0 0-.08 0 .35.35 0 0 1 .08 0zM92.22 20.12c.31.05.62.1 1 .18a6.34 6.34 0 0 1-.84.46 4.76 4.76 0 0 1-.16-.64zM92.33 20.91a3 3 0 0 1 .92.16c-.23.15-.51.33-.82.51-.03-.23-.08-.44-.1-.67z"/><path class="cls-6" d="M92.89 97a1.39 1.39 0 0 0-.41-.23c-.23-.07-.38.21-.31.39a19.33 19.33 0 0 1 1.57 4 9 9 0 0 1-2.16-.34 11.67 11.67 0 0 1-2.25-1.23 8 8 0 0 1 .41-2.59c.64-1.39 2.1-.67 3.15 0z"/><path class="cls-2" d="M91.89 86.46a.38.38 0 0 1 0-.46l.16-.24a.62.62 0 0 1 .49.23.52.52 0 0 1 0 .67l-.16.15a.62.62 0 0 1-.51-.31zM92.33 20.76v.15a1.67 1.67 0 0 0-.31 0z"/><path class="cls-2" d="M92.1 85.76l-.16.24a.38.38 0 0 0 0 .46 6.8 6.8 0 0 0-1.36 1.41 5.81 5.81 0 0 0-.43-.43 4.47 4.47 0 0 1 1.82-1.64.39.39 0 0 1 .13-.04z"/><path class="cls-2" d="M91.89 86.48a.62.62 0 0 0 .51.31 17.17 17.17 0 0 0-1.46 1.49 4.91 4.91 0 0 0-.41-.39 6.8 6.8 0 0 1 1.36-1.41zM91.17 105c0-.05.13-.05.18-.08a2.6 2.6 0 0 1 .39 0c.07.18.12.36.18.57v.13a.45.45 0 0 1-.11.46l-.51-.08a.54.54 0 0 1-.13-1z"/><path class="cls-2" d="M91.35 106l.51.08a.51.51 0 0 1-.79-.08 60.48 60.48 0 0 1-5.23-8.56c-1.25-2.69-2-5.56-3.18-8.28v-1.28c1.8 3.25 2.59 7.07 4.28 10.48 1.21 2.41 3.08 4.36 4.18 6.69a.54.54 0 0 0 .23.95z"/><path class="cls-2" d="M82.2 88.15c.18.33.31.67.46 1-.28 5.89-.28 12.58 2.9 17.53a.66.66 0 0 1-.26 1v-.06a.42.42 0 0 0-.82-.12 1.94 1.94 0 0 1 0 .2.57.57 0 0 1-.2-.23c-2.93-4.72-2.75-9.92-2.59-15.17a3.54 3.54 0 0 0 .38-.87.57.57 0 0 0-.33-.72q.07-1.84 0-3.69a.55.55 0 0 1 1-.26c2.16 3.54 2.88 7.69 4.87 11.28a14.61 14.61 0 0 0 .77 1.26.88.88 0 0 0 0 .23.51.51 0 0 0-.18.52 2.75 2.75 0 0 0 2 1.89 15.38 15.38 0 0 1 1.59 3 2.6 2.6 0 0 0-.39 0s-.13 0-.18.08c-1.1-2.33-3-4.28-4.18-6.69-1.69-3.41-2.48-7.23-4.28-10.48 0-.31 0-.62.06-.9l-.47.13s0-.08-.07-.13v.15c-.16.06-.31.08-.46.13.1.33.25.61.38.92zM90.94 88.28c-.13.15-.23.3-.36.46a2.39 2.39 0 0 0-.35-.36 1.8 1.8 0 0 1 .3-.49 4.91 4.91 0 0 1 .41.39zM90.4 77a2.26 2.26 0 0 1-.28-.21 2.3 2.3 0 0 0-.25.62c-2 1.51-4.64 2.25-7 3.2l.61-.69c1.1-.43 2.26-.84 3.36-1.36s2.28-1.33 3.46-2c.31-.15.69.18.49.49a.35.35 0 0 0 0 .08L90.4 77z"/><path class="cls-2" d="M90.69 77.18a5.3 5.3 0 0 1-.67.67 2.71 2.71 0 0 1 .38-.9z"/><path class="cls-2" d="M90 77.9a5.3 5.3 0 0 0 .67-.67 4.45 4.45 0 0 0-.29 1.72l-.17.15a.27.27 0 0 0 .1.46 1.29 1.29 0 0 1-.34.64.14.14 0 0 1-.23 0 4.21 4.21 0 0 1-.12-2zM90.23 88.38a2.39 2.39 0 0 1 .35.36c0 .05 0 .08-.07.13a.5.5 0 0 1-.44.25 3.07 3.07 0 0 0-.51-.51.52.52 0 0 1 .08-.26c.08-.12.13-.25.2-.38z"/><path class="cls-2" d="M90.1 87.46a5.81 5.81 0 0 1 .43.43 1.8 1.8 0 0 0-.3.49l-.42-.38c.11-.21.19-.39.29-.54zM90.4 77a2.71 2.71 0 0 0-.38.9l-.38.28a4 4 0 0 1 .2-.77c.16-.18.39-.31.56-.41z"/><path class="cls-2" d="M90.4 77c-.17.15-.36.28-.53.41a2.3 2.3 0 0 1 .25-.62 2.26 2.26 0 0 0 .28.21zM90.23 79.1l.17-.1a2.27 2.27 0 0 1-.07.61.27.27 0 0 1-.1-.51zM89.53 88.61a3.07 3.07 0 0 1 .51.51.55.55 0 0 1-.51-.51zM90.1 87.46c-.11.15-.18.33-.29.51-2.43-2.31-5.1-4.46-7.66-6.64a1.88 1.88 0 0 0 .33-.36.32.32 0 0 0 .31.1c.2.18.38.31.56.47 1.46 1.28 3 2.51 4.44 3.82.79.69 1.56 1.38 2.31 2.1z"/><path class="cls-2" d="M89.81 88c-.07.13-.12.26-.2.38a.52.52 0 0 0-.08.26 43.3 43.3 0 0 0-3.46-3.18c-1.48-1.25-3-2.48-4.51-3.74s-3.15-3.26-5-3.85a1.51 1.51 0 0 1-.31-.12l1.11-.64c1.38 1.35 2.87 2.66 4.41 3.94v.08c-.1.23.26.41.41.23 2.53 2.15 5.2 4.3 7.63 6.64zM89.84 77.41a4 4 0 0 0-.2.77c-1.88 1.46-4.7 2.07-6.75 2.87h-.07c-.08 0-.15-.12-.23-.18a1.17 1.17 0 0 0 .26-.28c2.35-.93 4.97-1.67 6.99-3.18zM85.05 11.92c3.15.15 6.43 1.18 4.33 3.61a5.14 5.14 0 0 0-.82-.13c2.89-2.33-1.33-2.84-4.18-2.79a2.87 2.87 0 0 0 .67-.69zM89.17 100.48c.34.49.67 1 1 1.43a2.75 2.75 0 0 1-2-1.89.51.51 0 0 1 .18-.52 3.69 3.69 0 0 0 .21 1c.13.24.54.29.61-.02zM89.33 99.63a4 4 0 0 1-.13.77 1 1 0 0 1-.18-.15.7.7 0 0 1-.1-.16v-.59z"/><path class="cls-2" d="M89.2 100.4l-.15-.23a1 1 0 0 0 .15.23zM88.89 100.09c0 .08.08.11.1.11l.15.23c-.07.31-.48.26-.61 0a3.69 3.69 0 0 1-.21-1h.13c.13.21.26.39.41.59.03-.02.01.05.03.07z"/><path class="cls-2" d="M89 100.2s-.07 0-.1-.11a.7.7 0 0 0 .1.11zM88.66 138.47a.62.62 0 0 1 .13 1 17.45 17.45 0 0 1-1.33-1.56c.43.2.84.38 1.2.56zM88.87 99.45v.59c-.15-.2-.28-.38-.41-.59a.41.41 0 0 1 .31 0zM89.38 15.53a6.55 6.55 0 0 1-.59.59 3.4 3.4 0 0 0-1.05 0 .15.15 0 0 1 0-.11 7.68 7.68 0 0 0 .85-.59 5.14 5.14 0 0 1 .79.11z"/><path class="cls-2" d="M87.74 16.1a3.4 3.4 0 0 1 1.05 0c-.26.21-.54.46-.87.69-.05-.21-.13-.46-.18-.69zM79.66 142.26a4.78 4.78 0 0 1-.36-.49c1-1.56 2.08-3.38 3.7-4.25 1.35-.75 3-.21 4.43.38a17.45 17.45 0 0 0 1.33 1.56.64.64 0 0 1-.82.13c-1.49-.82-3.8-2.23-5.28-.64a27.63 27.63 0 0 0-2.87 4.07.49.49 0 0 1-.31.24 1.91 1.91 0 0 0-.41-.8v-.05a2.74 2.74 0 0 0 .23.31 3.74 3.74 0 0 1 .26-.36.27.27 0 0 1 .15 0l-.08-.07zM88.35 99.27c.05 0 .08.13.13.18s-.08 0-.13 0a.88.88 0 0 1 0-.18zM87.53 15.35a5.15 5.15 0 0 1 1 .05 7.68 7.68 0 0 1-.85.59c-.04-.2-.1-.43-.15-.64z"/><path class="cls-2" d="M87.74 16.1h-.21a.68.68 0 0 0 .18-.13.15.15 0 0 0 .03.13zM82.64 80.2a.28.28 0 0 0 0 .08.32.32 0 0 0-.21.31 2.32 2.32 0 0 1-.3-.26 47.48 47.48 0 0 0 2.38-8 2.41 2.41 0 0 0 .44-1.34.51.51 0 0 0-.11-.3 57.93 57.93 0 0 0 .62-14c.23.05.43-.21.26-.38l-.29-.29a73.58 73.58 0 0 0-.82-7.1c-.07-.54.69-.77.8-.23 1.69 8.77 4.25 23.25-1.85 31.12-.25.08-.51.18-.77.28z"/><path class="cls-2" d="M85.33 56.52a1.71 1.71 0 0 0 0-.39l.29.29c.17.17 0 .43-.26.38a.57.57 0 0 0-.03-.28z"/><path class="cls-6" d="M85.33 56.8a57.93 57.93 0 0 1-.62 14 .49.49 0 0 0-.82.3c-.15 1.08-4.15 3-6.74 4.23a1.59 1.59 0 0 0-1.11.54 9.47 9.47 0 0 0-.84.44 45.61 45.61 0 0 1-11 4.64c-4.34 1.18-8.82-.18-13.15-.59-4.79-.47-9.46-.82-14.2-1.59a.32.32 0 0 0-.36.43h-.08a61.48 61.48 0 0 1-3.51-14.51h.05c6-6.63 11.51-14.94 13.48-23.81-.84 8.43-.87 17.2 4.62 23.66a.6.6 0 0 0 .08.08.43.43 0 0 0-.06.2c0 .57.82.64 1 .13a9.33 9.33 0 0 1 1.82-3.61c1.13 2 2.15 4.38 4.9 3.25s4.53-4.89 5.07-7.61a.32.32 0 0 0-.28-.41 36.11 36.11 0 0 0 2.1-16.05c5.44 6.23 12.23 13 19.64 16.31s.01-.03.01-.03zm-10 5.66a15.3 15.3 0 0 0-1.57-7.89.41.41 0 0 0-.59-.15c-2.07 1.25-2.69 3.89-3 6.15-.23 1.79-.25 5.71 1.9 6.48a.31.31 0 0 0 .33 0 .44.44 0 0 0 .18.13c2.03.49 2.62-3.36 2.73-4.72zm-29.17 3.13c.08-2.36-.33-6.87-2.56-8.33-2.67-1.77-3.44 2.26-3.46 4.08 0 2.12.41 7.71 3.1 8.35a.54.54 0 0 0 .49-.07 1.41 1.41 0 0 0 1.43-.39c.84-.87.95-2.51 1-3.64z"/><path class="cls-2" d="M85.33 56.52a.57.57 0 0 1 0 .26c-7.41-3.31-14.2-10.08-19.64-16.31a3.81 3.81 0 0 0-.07-.75 121.89 121.89 0 0 0 19.71 16.8z"/><path class="cls-2" d="M85.3 56.13a1.71 1.71 0 0 1 0 .39A121.89 121.89 0 0 1 65.57 39.7a5.36 5.36 0 0 0-.06-.69c3.11 2.85 6.1 5.84 9.31 8.56 3.43 2.9 7.25 5.43 10.48 8.56zM84.87 107.81a.55.55 0 0 1-.44-.13 1.94 1.94 0 0 0 0-.2.42.42 0 0 1 .82.12v.06a.7.7 0 0 1-.38.15zM67.92 9c2.57-1.77 6-2.41 8.33-.08.36.38 10.46.25 8.8 3a8.14 8.14 0 0 0-.85 0c1.62-1.89-5.48-2.92-8-1.31-.79-4-6.87-2.38-8.71-.25.25-6.1-7.15-2.67-9.51-.8-.28-4.48-5.77-.56-7.15 1.54-.54-5.25-6.87-3.13-7.92.82.25-4.74-7.16-1.31-6.36 2.13-2.39-1.33-9.77-1.59-9 2.38-3.44-4-11.1 1.59-5.82 5-1.8 1-5.23.94-8.13 1.51a2.4 2.4 0 0 0 1-.62 45 45 0 0 0 4.79-.71c2-.47.31-1.18 0-2.85-.39-2.31 3-4.48 5.05-4.25 3.87.43 1.05.64 4-1.08 2.41-1.41 7.28.87 8-1.33a5.08 5.08 0 0 1 5.36-2.87 2.11 2.11 0 0 1 1.44 1.51 2.48 2.48 0 0 1 1.41-2.23c2.46-1.51 4.69-1.64 6.28 1 .23.36 2.84-1.82 4-2.36a2.89 2.89 0 0 1 2.44 0c1.36.8.2 1.64 1.74.82a13 13 0 0 1 4.54-1.66c1.25-.13 5.66 1.53 4.27 2.69z"/><path class="cls-2" d="M84.2 11.89a8.14 8.14 0 0 1 .85 0 2.87 2.87 0 0 1-.67.69c-.44 0-.82 0-1.15.05v-.05a3.22 3.22 0 0 0 1-.72zM84.66 131.19c.39 0 .59.59.28.79-.1-.26-.18-.54-.28-.79z"/><path class="cls-5" d="M87.43 137.9c-1.41-.59-3.08-1.13-4.43-.38-1.62.87-2.67 2.69-3.7 4.25a44.12 44.12 0 0 1-3-4.87 33.71 33.71 0 0 1 8-4.59 21.4 21.4 0 0 0 3.13 5.59z"/><path class="cls-2" d="M84.15 131.75a3.8 3.8 0 0 1-.18-.54c.2 0 .44-.05.64-.05.1.25.18.53.28.79 0 .05 0 .05-.07.08l-.54.23c0-.15-.08-.33-.13-.51zM84.43 107.68a.55.55 0 0 0 .44.13c-.13 1-.26 2.08-.41 3.13-.13-.46-.31-1-.49-1.41.13-.62.28-1.23.46-1.85zM84.33 112.06c0-.38.1-.77.13-1.12a10.35 10.35 0 0 1 .36 1 .49.49 0 0 1-.54.59c.02-.13.02-.31.05-.47zM84.82 71.1a2.41 2.41 0 0 1-.44 1.34c.13-.57.23-1.11.33-1.64a.51.51 0 0 1 .11.3z"/><path class="cls-2" d="M84.66 131.16c-.2 0-.44 0-.64.05a36.49 36.49 0 0 1-1.08-15.86A9 9 0 0 0 84 115c-.62 5.52-.9 11.14.66 16.16zM77.84 75.77a.91.91 0 0 0-.69-.44c2.59-1.23 6.59-3.15 6.74-4.23a.49.49 0 0 1 .82-.3c-.1.53-.2 1.07-.33 1.64-1.13 1.79-4.38 3.15-6.13 4.12a1.13 1.13 0 0 1-.12-.28 1.48 1.48 0 0 0-.29-.51zM84.46 110.94c0 .35-.08.74-.13 1.12a4.94 4.94 0 0 1-.69-1 13.93 13.93 0 0 1 .33-1.53c.18.47.36.95.49 1.41zM84.33 132.29a33.71 33.71 0 0 0-8 4.59c-.11-.15-.18-.31-.29-.46a.39.39 0 0 0-.46-.2 18.84 18.84 0 0 1 8.59-4.49c.03.2.11.38.16.56z"/><path class="cls-2" d="M84.33 112.06v.49a.33.33 0 0 1-.16 0q-.37-.27-.69-.54c.08-.31.13-.59.21-.9a4.94 4.94 0 0 0 .64.95z"/><path class="cls-2" d="M84.12 112.5a.33.33 0 0 0 .16 0c-.08.49-.13 1-.18 1.46a.49.49 0 0 0-.44-.1 3.53 3.53 0 0 1-.56 0c.1-.67.2-1.33.33-2q.32.37.69.64zM84.1 114a.55.55 0 0 1-.1 1c0-.32.05-.65.1-1zM83 11.94h1.15a3.22 3.22 0 0 1-1 .72c0-.28-.08-.49-.15-.72zM84 131.21a3.8 3.8 0 0 0 .18.54 18.84 18.84 0 0 0-8.59 4.49.36.36 0 0 0-.33.28 17.4 17.4 0 0 0-1.64 1.79 1.13 1.13 0 0 0-.87 0c2.61-3.77 6.68-6.69 11.25-7.1z"/><path class="cls-2" d="M83 114.7c0-.25.08-.48.13-.74a3.53 3.53 0 0 0 .56 0 .49.49 0 0 1 .44.1c0 .34-.08.67-.1 1a9 9 0 0 1-1.08.34c-.03-.26-.01-.49.05-.7zM84.38 12.61a6.14 6.14 0 0 1-1 .74c-.06-.23-.13-.46-.18-.69.36-.03.74-.05 1.18-.05zM83.64 111.06c-.08.31-.13.59-.21.9a9 9 0 0 1-2.07-3.72c-1-2.69-2.18-5.2-3.41-7.76-1.87-3.87 1.3-6.46 3-9.59a.57.57 0 0 1 .77-.23v1.59c-.49 1-1.18 1.84-1.8 2.89-2 3.51 0 4.92 1.26 7.77.92 2.15 2 4.38 2.87 6.59a13.93 13.93 0 0 0-.41 1.56zM82.82 80.61a1.17 1.17 0 0 1-.26.28 1 1 0 0 0-.18-.15v-.1c.08-.1.13-.21.21-.31a.28.28 0 0 1 0-.08c.26-.1.52-.2.77-.28z"/><path class="cls-2" d="M83.23 12.66h-.21l.18-.08s0 .05.03.08zM83.1 114c0 .26-.08.49-.13.74-11.76 2.89-16.38-14.49-18.71-22.74-9.13 13.28-17.46 30.69-18.18 47.12a.44.44 0 0 0-.15.13c-.41.4.13 1 .59.82a.55.55 0 0 1-1.05-.21c0-1.79.13-3.59.33-5.36a5 5 0 0 0 .49-.44c.26-.26 0-.74-.36-.61 1.82-15.13 9.25-29.3 17.76-41.76a.68.68 0 0 1 1.25.16 86.82 86.82 0 0 0 4 11.79 7.65 7.65 0 0 0 .23 1.1.19.19 0 0 0 .34.06c2.64 5.57 6.74 9.96 13.59 9.2z"/><path class="cls-2" d="M83 114.7c0 .21 0 .44-.08.65-10 2.79-15.27-9.64-17.66-17.43-.46-1.57-.92-3.13-1.36-4.72.34 1.2-1.84 3.51-2.38 4.43-2.2 3.72-4.36 7.51-6.2 11.46a91.66 91.66 0 0 0-8.56 29.45 3.79 3.79 0 0 0-.65.57c.72-16.43 9.05-33.84 18.18-47.12 2.3 8.26 6.92 25.64 18.71 22.71zM82.79 81.07a.32.32 0 0 1-.31-.1c.06 0 .06 0 .08-.08s.15.11.23.18zM82.77 87c0 .28 0 .59-.06.9a4.41 4.41 0 0 0-.41-.77z"/><path class="cls-2" d="M82.3 87.1a4.41 4.41 0 0 1 .41.77v1.28c-.15-.33-.28-.67-.46-1v-1z"/><path class="cls-4" d="M84.38 72.44a47.48 47.48 0 0 1-2.38 8c-1.46-1.07-3.1-2.38-3.75-3.87 1.75-.98 5-2.34 6.13-4.13z"/><path class="cls-2" d="M82.38 80.74a1 1 0 0 1 .18.15s0 .06-.08.08a.33.33 0 0 1-.1-.23zM82.59 80.28c-.08.1-.13.21-.21.31a.32.32 0 0 1 .21-.31z"/><path class="cls-1" d="M82.89 115.35A36.49 36.49 0 0 0 84 131.21c-4.54.41-8.61 3.33-11.25 7.13a.1.1 0 0 0-.08 0 1.22 1.22 0 0 0-.61 1 14.42 14.42 0 0 0-1 1.93c-3.77-9.49-17.05-9.08-24.22-2.8a91.66 91.66 0 0 1 8.56-29.45c1.84-4 4-7.74 6.2-11.46.54-.92 2.72-3.23 2.38-4.43.44 1.59.9 3.15 1.36 4.72 2.28 7.86 7.56 20.29 17.55 17.5z"/><path class="cls-2" d="M82.3 80.69h.08a.33.33 0 0 0 .1.23 1.88 1.88 0 0 1-.33.36 2.72 2.72 0 0 1-.38-.31c.07-.2.15-.38.23-.59a2.32 2.32 0 0 0 .3.31z"/><path class="cls-2" d="M82.35 80.64v.1c0 .02 0 0-.08 0s.06-.08.08-.1zM82.23 87s0 .08.07.13h-.07zM82.23 87.12v1c-.13-.31-.28-.59-.43-.9.12-.02.27-.04.43-.1zM82.15 81.33c-.15.18-.51 0-.41-.23v-.08a2.72 2.72 0 0 0 .41.31zM81.69 90.66a.57.57 0 0 1 .33.72 3.54 3.54 0 0 1-.38.87c.02-.54.05-1.05.05-1.59zM82 80.43c-.08.21-.16.39-.23.59a84 84 0 0 1-4.41-3.94 3.89 3.89 0 0 1 .46-.29l.43-.23c.65 1.49 2.29 2.8 3.75 3.87zM79.66 142.29l.08.07a.27.27 0 0 0-.15 0 .29.29 0 0 1 .07-.07z"/><path class="cls-2" d="M79.3 141.77a4.78 4.78 0 0 0 .36.49.29.29 0 0 0-.07.1 2.46 2.46 0 0 0-.49.05.87.87 0 0 1-.13-.15 3.82 3.82 0 0 0 .33-.49zM79.59 142.39a3.74 3.74 0 0 0-.26.36 2.74 2.74 0 0 1-.23-.31 2.46 2.46 0 0 1 .49-.05zM79.51 143.29c.51 1.56-.36 3.92-.82 5.25-.18.51-1 .87-1.36.36a16.93 16.93 0 0 1-2.25-4c-.21-.52-1.36-4.18-1.82-4.18a.69.69 0 0 1-.26 0 4.6 4.6 0 0 1 .54-.79c1.31 1.95 2.2 5.2 3.77 7.56-.06.2-.11.41-.18.61l.56-.07a1.7 1.7 0 0 0 .21.28 2.07 2.07 0 0 0 .1-.31l.61-.08a3.77 3.77 0 0 1-.38-.57 15.56 15.56 0 0 0 .61-4.3c0 .05.06.08.08.13a.52.52 0 0 0 .59.11z"/><path class="cls-2" d="M78.84 143a2.17 2.17 0 0 1-.36-.44l.11-.1a.44.44 0 0 1 .31-.13.15.15 0 0 1-.06.1h.21v.05a1.91 1.91 0 0 1 .41.8.52.52 0 0 1-.59-.13s-.03-.07-.03-.15zM79.3 141.77a3.82 3.82 0 0 1-.33.49 25.4 25.4 0 0 1-3-5l.39-.31a44.12 44.12 0 0 0 2.94 4.82zM79.1 142.44a.74.74 0 0 0-.13-.08v-.07a.87.87 0 0 0 .13.15z"/><path class="cls-2" d="M79.05 142.44h-.21a.15.15 0 0 0 .06-.1.74.74 0 0 1 .15.1z"/><path class="cls-2" d="M79 142.26v.07a.44.44 0 0 0-.31.13l-.11.1a21.54 21.54 0 0 1-2.94-5 3.73 3.73 0 0 1 .38-.33 25.4 25.4 0 0 0 2.98 5.03zM78.48 142.59a2.17 2.17 0 0 0 .36.44 15.56 15.56 0 0 1-.61 4.3 10.84 10.84 0 0 1-.64-1A15.36 15.36 0 0 0 78 144a1.77 1.77 0 0 1 .48-1.41zM78.23 147.33a3.77 3.77 0 0 0 .38.57l-.61.1a3.37 3.37 0 0 0 .23-.67zM78.41 37.42c-.16.13-.31.26-.46.36a3.51 3.51 0 0 1-.11-.51zM77.36 77.08l-1.11.64a.94.94 0 0 1-.58-.67c.71-.41 1.46-.85 2.17-1.28a1.48 1.48 0 0 1 .29.51 1.13 1.13 0 0 0 .12.28l-.43.23a3.89 3.89 0 0 0-.46.29z"/><path class="cls-2" d="M78.23 147.33a3.37 3.37 0 0 1-.23.67c-.1 0-.21 0-.31.05a4 4 0 0 1-.38-.54 6.66 6.66 0 0 0 .28-1.13 10.84 10.84 0 0 0 .64.95z"/><path class="cls-7" d="M78.48 142.59A1.77 1.77 0 0 0 78 144a15.36 15.36 0 0 1-.41 2.38c-.46-.82-.9-1.69-1.31-2.54-.28-.64-.56-1.25-.87-1.89s-1.15-1.54-.92-2.1a1 1 0 0 0-.13-1 12.83 12.83 0 0 1 1.18-1.26 21.54 21.54 0 0 0 2.94 5z"/><path class="cls-2" d="M78 148a2.07 2.07 0 0 1-.1.33 1.7 1.7 0 0 1-.21-.28c.1-.05.21-.05.31-.05zM77.84 37.27a3.51 3.51 0 0 0 .11.51c-.26.18-.52.33-.75.46l-.2-.79a2.21 2.21 0 0 1 .39-.31 4.27 4.27 0 0 1 .45.13z"/><path class="cls-2" d="M77.74 36.76a4.18 4.18 0 0 0 .1.51 4.27 4.27 0 0 0-.48-.13zM77.31 147.49a4 4 0 0 0 .38.54l-.56.07c.07-.2.12-.41.18-.61z"/><path class="cls-2" d="M77.59 146.36a6.66 6.66 0 0 1-.28 1.13c-1.57-2.36-2.46-5.61-3.77-7.56a7.59 7.59 0 0 1 .82-1.05 1 1 0 0 1 .13 1c-.23.56.69 1.61.92 2.1s.59 1.25.87 1.89c.41.8.85 1.67 1.31 2.49zM77.15 75.33a.91.91 0 0 1 .69.44c-.71.43-1.46.87-2.17 1.28a1.37 1.37 0 0 1 .33-1.18c.31-.15.7-.33 1.11-.54zM76.84 37l.52.15a2.21 2.21 0 0 0-.39.31c-.05-.17-.07-.32-.13-.46z"/><path class="cls-2" d="M76 75.87a1.59 1.59 0 0 1 1.11-.54c-.39.21-.78.39-1.11.54zM77 37.45l.23.79c-3.15 1.85-4.87-.31-7.58-3-3.05-3-3.05.2-4.7.46-.07-.38-.15-.74-.25-1.1 1.1-.18 1.84-2.08 3-1.85 3.22.78 5.07 7.88 9.3 4.7zM75.92 137.21a3.73 3.73 0 0 0-.38.33c-.11-.21-.21-.44-.31-.67a.5.5 0 0 1 0-.38 2.73 2.73 0 0 1 .33-.28.39.39 0 0 1 .46.2c.11.15.18.31.29.46zM75.67 77.05a.94.94 0 0 0 .58.67 60.89 60.89 0 0 1-6.48 3.35v-.71a.31.31 0 0 0-.1-.26 56.93 56.93 0 0 0 6-3z"/><path class="cls-2" d="M46.08 80.89a12.82 12.82 0 0 0-1.25.7 23.6 23.6 0 0 1-7.64-2 .46.46 0 0 0-.54-.38h-.15a.32.32 0 0 1 .36-.43c4.74.77 9.41 1.12 14.2 1.59 4.33.41 8.81 1.77 13.15.59a45.61 45.61 0 0 0 11-4.64 9.47 9.47 0 0 1 .84-.44 1.37 1.37 0 0 0-.38 1.18 56.93 56.93 0 0 1-6 3 .49.49 0 0 0-.88.26v.1a3.91 3.91 0 0 0-.51.18.74.74 0 0 0-1.07-.08l-.9.75a24.6 24.6 0 0 1-3.82.87 18.49 18.49 0 0 1-5.3-.16 4.64 4.64 0 0 0-1.87-.36.15.15 0 0 0-.11 0 36.78 36.78 0 0 0-4.12-.51c-1.57-.08-3.16-.13-4.72-.26 0 0 0-.1-.07-.1l-.16.07zM75.56 136.24a2.73 2.73 0 0 0-.33.28.36.36 0 0 1 .33-.28z"/><path class="cls-2" d="M75.23 136.9c.1.23.2.46.31.67a12.83 12.83 0 0 0-1.18 1.26 1.34 1.34 0 0 0-.77-.52 17.4 17.4 0 0 1 1.64-1.79.5.5 0 0 0 0 .38zM73.74 54.57a15.3 15.3 0 0 1 1.57 7.89c-.11 1.36-.7 5.21-2.75 4.7a.44.44 0 0 1-.18-.13.44.44 0 0 0 .29-.26c3.28-1.66 2.12-9.41.71-12-3.07 1.64-3.53 9.86-1.18 11.74h.11v.07a.42.42 0 0 0 .1.39.31.31 0 0 1-.33 0c-2.15-.77-2.13-4.69-1.9-6.48.31-2.26.93-4.9 3-6.15a.41.41 0 0 1 .56.23z"/><path class="cls-2" d="M72.59 66.08a1 1 0 0 0-.28.49h-.11c-2.35-1.88-1.89-10.1 1.18-11.74 1.41 2.58 2.57 10.33-.71 12a.65.65 0 0 0 0-.51 1.42 1.42 0 0 1-.08-.24zm0 0a3.83 3.83 0 0 0 1-1.07 8.18 8.18 0 0 0 .72-3.59 16 16 0 0 0-1-5.85c-.18-.41-1.49 2.44-1.52 2.57a12 12 0 0 0-.41 3 11.16 11.16 0 0 0 1.21 4.91zM73.54 139.9a4.6 4.6 0 0 0-.54.79 1.18 1.18 0 0 1-.74-.46 16.08 16.08 0 0 1 1.33-1.92 1.34 1.34 0 0 1 .77.52 7.59 7.59 0 0 0-.82 1.07z"/><path class="cls-2" d="M74.26 61.39a8.18 8.18 0 0 1-.72 3.61 3.83 3.83 0 0 1-1 1.07 11.16 11.16 0 0 1-1.26-4.94 12 12 0 0 1 .41-3c0-.13 1.34-3 1.52-2.57a16 16 0 0 1 1.05 5.83zM72.72 138.34a1.13 1.13 0 0 1 .87 0 16.08 16.08 0 0 0-1.33 1.92 1.34 1.34 0 0 1-.26-.82 9.74 9.74 0 0 1 .69-1zM72.67 66.26a.65.65 0 0 1 0 .51l-.36-.2a1 1 0 0 1 .28-.49 1.42 1.42 0 0 0 .08.18z"/><path class="cls-2" d="M72.61 138.39a.1.1 0 0 1 .08 0 9.74 9.74 0 0 0-.69 1 1.22 1.22 0 0 1 .61-1zM72.31 66.57l.36.2a.44.44 0 0 1-.29.26.42.42 0 0 1-.1-.39s.03-.05.03-.07zM72.26 140.26a1.18 1.18 0 0 0 .74.46 17.34 17.34 0 0 0-1.41 3 .75.75 0 0 1-1.44 0 10.14 10.14 0 0 0-8.35-8.21.29.29 0 0 0-.21 0 15.4 15.4 0 0 0-6.12 0c0-.13-.1-.23-.15-.36a.62.62 0 0 0-.18-.23c6.43-1.33 13.61.56 15.45 7.2-.15.39-.28.8-.41 1.18h.7v.18a1.21 1.21 0 0 0 0-.18h.67a6.69 6.69 0 0 0-.31-1.07 11.86 11.86 0 0 1 1.02-1.97z"/><path class="cls-2" d="M72.26 140.23a11.86 11.86 0 0 0-1 2 4.84 4.84 0 0 0-.33-.95 14.42 14.42 0 0 1 1-1.93 1.34 1.34 0 0 0 .33.88zM71.28 142.29a6.69 6.69 0 0 1 .31 1.07h-.67a10.34 10.34 0 0 1 .36-1.07z"/><path class="cls-2" d="M71 141.34a4.84 4.84 0 0 1 .33.95 10.34 10.34 0 0 0-.36 1.07h-.07a9.24 9.24 0 0 0-.29-1.18z"/><path class="cls-2" d="M71 141.34l-.39.84c-1.84-6.64-9-8.53-15.45-7.2a.52.52 0 0 0-.87.21 13.76 13.76 0 0 0-3.05 1.05.12.12 0 0 0-.08 0 .61.61 0 0 0-.18.05.42.42 0 0 0-.13.11h-.08a14.09 14.09 0 0 0-4.07 2.8 2.74 2.74 0 0 1 .08-.7c7.12-6.24 20.4-6.65 24.22 2.84zM70.92 143.36a1.21 1.21 0 0 1 0 .18v-.18zM70.85 143.36h-.7c.13-.38.26-.79.41-1.18a9.24 9.24 0 0 1 .29 1.18zM69.77 93.45c.08 3.75.61 7.64-.31 11.28a.13.13 0 0 1 0 .06 1.53 1.53 0 0 1-.16-.26c0-4-.13-8-.2-11.94a.72.72 0 0 0 .15-1.21.65.65 0 0 0-.15-.1c0-3.31 0-6.59.15-10q.27-.12.54-.21c-.07 4.16-.12 8.26-.02 12.38z"/><path class="cls-2" d="M69.23 81.28l-.51.2a7 7 0 0 1 .07-1c.29-.1.57-.23.88-.33a.31.31 0 0 1 .1.26v.71q-.27.04-.54.16zM69.67 80.1c-.31.1-.59.23-.88.33v-.07a.49.49 0 0 1 .88-.26zM69.23 91.35a.72.72 0 0 1-.15 1.21v-1.31a.65.65 0 0 1 .15.1zM69.28 104.53a1.53 1.53 0 0 0 .16.26.19.19 0 0 1-.34-.06 7.65 7.65 0 0 1-.23-1.1c.13.28.26.59.41.87z"/><path class="cls-2" d="M69.28 104.5c-.15-.28-.28-.59-.41-.87-.64-3.29-.38-6.82-.43-10.16v-1.1a.48.48 0 0 1 .15.11.54.54 0 0 0 .49.1c.07 3.95.2 7.9.2 11.92zM68.72 81.48l.51-.2c-.2 3.36-.2 6.64-.15 10a8.55 8.55 0 0 1-.67-.52c0-3.12.03-6.2.31-9.28z"/><path class="cls-2" d="M68.49 91.61h-.08v-.85c.21.18.44.36.67.52v1.33a.54.54 0 0 1-.49-.1.48.48 0 0 0-.15-.11 6.53 6.53 0 0 0 0-.75zM68.79 80.46a7 7 0 0 0-.07 1l-.57.24a.7.7 0 0 0 .13-1.08 3.91 3.91 0 0 1 .51-.16z"/><path class="cls-8" d="M68.15 81.72l.57-.24c-.28 3.08-.31 6.16-.31 9.23-2.08-1.64-4-3.46-6.07-5.15a51.79 51.79 0 0 1 5.76-3.82z"/><path class="cls-2" d="M68.49 91.61h-.08s.05-.03.08 0z"/><path class="cls-8" d="M68.44 93.45c0 3.34-.21 6.87.43 10.16a86.82 86.82 0 0 1-4-11.79.68.68 0 0 0-1.25-.16c-8.51 12.46-15.94 26.63-17.76 41.76-2 .62-3.23 2-4.64 3.41-.26-.72-.47-1.46-.72-2.18 3.3-8.1 3.64-17.15 5.82-25.58 1.38-5.41 3.15-10.71 5-16a74 74 0 0 0 9.92-6.74l1.08.77.18.15c2 1.7 3.85 3.46 5.9 5v1.12z"/><path class="cls-2" d="M66.08 82.25l-.18.13c-.41.1-.82.21-1.23.28h-.08c.57-.43 1.13-.89 1.69-1.35.66-.21 1.33-.44 2-.67a.7.7 0 0 1-.13 1.08c-.74.25-1.46.48-2.2.66a.87.87 0 0 1 .13-.13zM68.41 91.58a6.53 6.53 0 0 1 0 .75c-2-1.57-3.93-3.33-5.9-5l5.64 4.08a1.21 1.21 0 0 1 .23.18zM68.41 90.71v.85a1.21 1.21 0 0 0-.23-.18c-1.77-1.44-4-3.56-6.33-5.44a4.1 4.1 0 0 1 .49-.36c2.05 1.67 3.99 3.49 6.07 5.13z"/><path class="cls-2" d="M68.18 91.38l-5.64-4.08-.18-.15c-.34-.28-.7-.56-1.05-.82.17-.13.38-.28.56-.39 2.29 1.88 4.54 4 6.31 5.44zM68.13 81.72a51.79 51.79 0 0 0-5.76 3.82l-.37-.26c1.15-.87 2.28-1.72 3.43-2.57.16-.1.31-.23.49-.33.75-.18 1.47-.38 2.21-.66zM67.21 80.56a.74.74 0 0 1 1.07.08c-.64.23-1.31.46-2 .67z"/><path class="cls-2" d="M66.08 82.25a.87.87 0 0 0-.15.13zM65.9 82.38c-.18.1-.33.23-.49.33l-3.59 2.47a1.12 1.12 0 0 0-.23-.21c1-.77 2-1.51 3-2.28h.08c.41-.1.82-.21 1.23-.31zM65.64 40.47a36.11 36.11 0 0 1-2.1 16.05.3.3 0 0 0-.38.13c2-5.54 1.76-11.82 1.53-17.31.29.36.59.72 1 1.11z"/><path class="cls-2" d="M65.57 39.7a3.81 3.81 0 0 1 .07.75c-.36-.39-.66-.75-1-1.11v-.59zM65.51 39a5.36 5.36 0 0 1 .06.69l-.93-1v-.56c.28.32.59.6.87.87z"/><path class="cls-2" d="M65.51 39c-.28-.28-.59-.56-.89-.82 0-.82-.08-1.62-.08-2.41a.7.7 0 0 0 .38 0 29.4 29.4 0 0 1 .59 3.23zM61.82 85.18l3.59-2.47c-1.15.85-2.28 1.7-3.43 2.57a.47.47 0 0 0-.16-.1zM66.28 81.31c-.56.46-1.12.92-1.69 1.35A24.62 24.62 0 0 1 59 83a9.9 9.9 0 0 0-1.82-1 18.49 18.49 0 0 0 5.3.16 24.6 24.6 0 0 0 3.8-.85zM64.67 34.63c.1.36.18.72.25 1.1a.7.7 0 0 1-.38 0v-1.11a.27.27 0 0 0 .13 0zM64.69 39.34c.23 5.49.52 11.77-1.53 17.31-.31.46-.59.95-.87 1.46a40.76 40.76 0 0 0 2.08-13.61c0-1.89-.26-3.89-.26-5.89.15.25.35.48.58.73z"/><path class="cls-2" d="M64.64 38.75v.59c-.23-.25-.43-.48-.61-.71a3.26 3.26 0 0 1 0-.54.32.32 0 0 1 .46 0l.11.08c.02.2.04.41.04.58zM64.51 34.65h-.12c0-.1 0-.2.07-.3a.07.07 0 0 1 .13 0 .92.92 0 0 1 0 .28.27.27 0 0 1-.08.02z"/><path class="cls-2" d="M64.62 38.17l-.11-.08a.32.32 0 0 0-.46 0 18.46 18.46 0 0 1 .16-2.36 1.55 1.55 0 0 0 .33.06c0 .76.05 1.56.08 2.38zM64.51 34.65v1.11a1.55 1.55 0 0 1-.33-.06c.05-.35.1-.69.18-1.05z"/><path class="cls-2" d="M64.26 34.63a.3.3 0 0 0 .13 0c-.08.36-.13.7-.18 1.05l-.21-.05a8.44 8.44 0 0 1-4.49-4 6.34 6.34 0 0 0 .77-.62c.85 1.57 2.24 3.41 3.98 3.62z"/><path class="cls-4" d="M64.34 44.52a40.76 40.76 0 0 1-2.08 13.61v.11c-.64 1.23-1.18 2.53-1.94 3.71-1 1.46-3 2.67-4.23.77-.59-.87-1.06-1.84-1.62-2.74a.57.57 0 0 0-.9-.1 9.47 9.47 0 0 0-2.17 3.64c-4.9-9.8-3-19.33-3.11-29.61 3.23 2.33 7.64.59 11.23-2.23a8.44 8.44 0 0 0 4.49 4l.23.07a18.46 18.46 0 0 0-.16 2.36.33.33 0 0 0 0 .49v.05c0 1.98.23 3.98.26 5.87z"/><path class="cls-2" d="M64.05 38.09a3.26 3.26 0 0 0 0 .54v-.05a.33.33 0 0 1 0-.49zM54.26 60.8l.1-.1h-.17l-.19-.41a3.84 3.84 0 0 0-.28.3.93.93 0 0 1-.23 0 .61.61 0 0 1 .1.18 8.09 8.09 0 0 0-1.87 3.48.37.37 0 0 0-.05-.18 4 4 0 0 1-.25-.51 9.47 9.47 0 0 1 2.17-3.64.57.57 0 0 1 .9.1c.56.9 1 1.87 1.62 2.74 1.23 1.9 3.25.69 4.23-.77.76-1.18 1.3-2.48 1.94-3.71a.61.61 0 0 1 0 .12.24.24 0 0 0 .44.18 17 17 0 0 0 .92-2 .32.32 0 0 1 .28.41c-.54 2.72-2.38 6.51-5.07 7.61s-3.77-1.23-4.9-3.25c.05-.24.16-.35.31-.55z"/><path class="cls-2" d="M63.13 56.67a.3.3 0 0 1 .38-.13 17 17 0 0 1-.92 2 .24.24 0 0 1-.44-.18.61.61 0 0 0 0-.12v-.11c.39-.51.67-1 .98-1.46z"/><path class="cls-8" d="M64.57 82.69c-1 .77-2 1.51-3 2.28-.75-.58-1.62-1.33-2.59-2a24.62 24.62 0 0 0 5.59-.28z"/><path class="cls-2" d="M62.34 85.56a4.1 4.1 0 0 0-.49.36 3.74 3.74 0 0 0-.36-.26 5.85 5.85 0 0 1 .49-.38zM62.34 87.15l-1.08-.77c.38.21.74.49 1.08.77z"/><path class="cls-2" d="M62 85.28a5.85 5.85 0 0 0-.49.38 1 1 0 0 0-.18-.15l.51-.33a.47.47 0 0 1 .16.1zM58.08 139.77l-.38-.56a15.4 15.4 0 0 1 3.74-3.64.3.3 0 0 1 .15 0 .75.75 0 0 1 .21 0 .39.39 0 0 1 .07.59 30.14 30.14 0 0 0-3.61 4.59.69.69 0 0 1-1.2 0c-1.06-1.43-2.54-3.05-2.8-4.87a1.47 1.47 0 0 1 .57-.13 12 12 0 0 0 2.41 4.05c-.06.08-.13.15-.18.23h.35c.08.1.16.23.24.33a2.39 2.39 0 0 1 .25-.33h.36z"/><path class="cls-2" d="M61.85 85.92c-.18.11-.39.26-.56.39l-.36-.26c.18-.15.38-.28.56-.41a3.74 3.74 0 0 1 .36.28zM61.59 85a1.12 1.12 0 0 1 .23.21l-.51.33c-.08-.05-.15-.13-.23-.18a3.11 3.11 0 0 0 .51-.36zM61.59 135.52a.29.29 0 0 1 .21 0 .75.75 0 0 0-.21 0zM61.57 84.94a3.11 3.11 0 0 1-.51.36 22.09 22.09 0 0 0-3.69-2.46c.54 0 1 .08 1.59.1 1.04.67 1.86 1.42 2.61 2z"/><path class="cls-5" d="M61.59 135.52a.3.3 0 0 0-.15 0 15.4 15.4 0 0 0-3.74 3.64 17.11 17.11 0 0 1-2.23-3.64 15.4 15.4 0 0 1 6.12 0z"/><path class="cls-2" d="M61.31 85.51a1 1 0 0 1 .18.15c-.18.13-.38.26-.56.41l-.18-.15z"/><path class="cls-2" d="M61.31 85.51l-.56.41a.64.64 0 0 0-.23-.16 4.25 4.25 0 0 0 .59-.43c.05.05.12.13.2.18zM61.29 86.33l-.39-.28h.06zM60.87 86.1l.39.28a74 74 0 0 1-9.92 6.74c.1-.26.2-.51.28-.77a76.5 76.5 0 0 0 9.25-6.25z"/><path class="cls-2" d="M61.08 85.33a4.25 4.25 0 0 1-.59.43c-.33-.25-.69-.48-1.05-.71l-.23-.16-3-2.15c.38 0 .76.08 1.15.13a22.09 22.09 0 0 1 3.72 2.46zM60.93 86.07h-.06l-.2-.13zM60.67 86l.2.13a76.5 76.5 0 0 1-9.25 6.25.49.49 0 0 0 .05-.2z"/><path class="cls-2" d="M60.72 85.92l-.21-.18a.64.64 0 0 1 .21.18zM60.46 85.79l.21.18-9 6.18a4 4 0 0 0 .23-.59c2.93-1.8 5.8-3.72 8.56-5.77zM60.49 85.76l-1-.74c.31.26.67.49 1 .74zM60.49 30.89a1.7 1.7 0 0 1-.23.17 1.86 1.86 0 0 0-.13-.23z"/><path class="cls-8" d="M59.44 85.05l1 .74c-2.76 2-5.63 4-8.56 5.77 1.05-3 2.16-6 3.21-9a3.15 3.15 0 0 0 .43 0c1.26.79 2.46 1.49 3.67 2.25z"/><path class="cls-2" d="M60.13 30.83a1.86 1.86 0 0 1 .13.23 6.34 6.34 0 0 1-.77.62 6.37 6.37 0 0 1-.51-.85.63.63 0 0 1 .18-.12c.33.02.64.07.97.12z"/><path class="cls-2" d="M60.13 30.83c-.33 0-.64-.1-1-.12.2-.21.41-.39.61-.57.13.21.26.44.39.69zM59 30.83a6.37 6.37 0 0 0 .51.85c-3.59 2.82-8 4.56-11.23 2.23v-1c2.91 2.85 7.57.54 10.72-2.08zM56.24 82.74l3 2.15c-1.21-.76-2.41-1.46-3.67-2.25.2.05.43.07.67.1z"/><path class="cls-2" d="M59.16 30.71a.63.63 0 0 0-.18.12 1 1 0 0 1-.1-.18zM58.08 139.77l.18.26h-.36a1.35 1.35 0 0 1 .18-.26z"/><path class="cls-2" d="M57.7 139.21l.38.56a1.35 1.35 0 0 0-.18.26h-.49a1.7 1.7 0 0 0-.17-.23c.15-.21.3-.41.46-.59zM55.34 82.07l.9.67c-.24 0-.47 0-.7-.1l-.38-.23a.69.69 0 0 1 .05-.13c.08-.21-.18-.33-.31-.26a.43.43 0 0 1 .28-.33c.67.13 1.31.23 2 .33A9.9 9.9 0 0 1 59 83c-.54 0-1-.08-1.59-.1a7.59 7.59 0 0 0-2.07-.83z"/><path class="cls-2" d="M57.9 140a2.39 2.39 0 0 0-.25.33c-.08-.1-.16-.23-.24-.33zM57.7 139.21c-.16.18-.31.38-.46.56a12 12 0 0 1-2.41-4.05 3.39 3.39 0 0 1 .61-.15 17.11 17.11 0 0 0 2.26 3.64zM57.24 139.8a1.7 1.7 0 0 1 .17.23h-.35c.05-.03.12-.15.18-.23zM57.39 82.87c-.39-.05-.77-.1-1.15-.13l-.9-.67a7.59 7.59 0 0 1 2.05.8zM55.29 81.66a4.64 4.64 0 0 1 1.87.36c-.67-.1-1.31-.2-2-.33a.15.15 0 0 1 .13-.03zM55.54 82.64a3.15 3.15 0 0 1-.43 0 1.21 1.21 0 0 1 0-.18z"/><path class="cls-2" d="M54.83 135.72a1.47 1.47 0 0 0-.57.13 1.61 1.61 0 0 1-.07-.49.21.21 0 0 1 .05-.17 4.1 4.1 0 0 1 .87-.21.62.62 0 0 1 .18.23c.05.13.1.23.15.36a3.39 3.39 0 0 0-.61.15zM55 82.25a.23.23 0 0 1-.1-.2c.13-.07.39 0 .31.26a.69.69 0 0 0-.05.13.35.35 0 0 0-.08 0s-.08-.13-.08-.19z"/><path class="cls-2" d="M55.16 82.41a1.21 1.21 0 0 0 0 .18.58.58 0 0 1-.23 0 1.51 1.51 0 0 1 .12-.31c0 .06 0 .08.08.11a.35.35 0 0 1 .03.02z"/><path class="cls-2" d="M54.88 82.56a.58.58 0 0 0 .23 0c-1 3-2.16 6-3.21 9l-.71.41c1.12-3.21 2.35-6.36 3.69-9.41zM55.11 135a4.1 4.1 0 0 0-.87.21.52.52 0 0 1 .87-.21zM55 82.25a1.51 1.51 0 0 0-.12.31h-.26a2.53 2.53 0 0 1 .21-.44s0-.08.07 0a.23.23 0 0 0 .1.13z"/><path class="cls-2" d="M55.18 81.69a.43.43 0 0 0-.28.33h-.07a2.53 2.53 0 0 0-.21.44c-1.85-.23-3.72-.49-5.64-.62l-3.25-.23c.23-.26.41-.51.61-.77 1.56.13 3.15.18 4.72.26a36.78 36.78 0 0 1 4.12.59zM54.62 82.54h.26c-1.34 3-2.57 6.2-3.69 9.41a6.59 6.59 0 0 1-.72.41 98.1 98.1 0 0 1 4.15-9.82zM54.36 60.7l-.1.1a.76.76 0 0 1-.07-.13z"/><path class="cls-2" d="M54.19 60.67a.76.76 0 0 0 .07.13c-.15.15-.28.31-.41.46a4.92 4.92 0 0 0-.31-.51 1.53 1.53 0 0 1 .13-.16zM54.19 135.36a1.61 1.61 0 0 0 .07.49 15.53 15.53 0 0 0-2.31.74.23.23 0 0 0-.15-.17l-.18-.11a.79.79 0 0 0-.43-.07 13.76 13.76 0 0 1 3.05-1.05.21.21 0 0 0-.05.17zM54 60.29l.24.38-.52-.08a3.84 3.84 0 0 1 .28-.3zM51.65 64.41a.65.65 0 0 1 0-.18 8.09 8.09 0 0 1 1.87-3.48 4.92 4.92 0 0 1 .31.51A9.33 9.33 0 0 0 52 64.9c-.13.51-1 .44-1-.13a.43.43 0 0 1 .06-.2.41.41 0 0 0 .59-.16zM53.44 60.57a.93.93 0 0 0 .23 0 1.53 1.53 0 0 0-.13.16.61.61 0 0 0-.1-.16zM52 136.59a.15.15 0 0 1 0 .11c0 .84-.72 1-1.28 1.54a16 16 0 0 0-2.26 3 27.77 27.77 0 0 1-3.69 5.51.77.77 0 0 1-1.2-.15c-1.64-2.34-1.72-6-1.31-8.85.2-.16.38-.33.59-.51 0 2.1-.28 6 1 8.3 0 .05-.08.08-.1.13s.12 0 .2 0a2.93 2.93 0 0 0 .33.53 5.6 5.6 0 0 0 .41-.43h.26a.86.86 0 0 1-.13-.2c2.18-2.62 3.77-7.08 6.56-8.74h.08a4 4 0 0 1 .54-.24z"/><path class="cls-2" d="M51.39 136.85h-.08a16.15 16.15 0 0 0-2.53 1.36 11.87 11.87 0 0 1 1.94-1.8h.08a.92.92 0 0 1 .31-.16.12.12 0 0 1 .08 0 .79.79 0 0 1 .43.07l.18.11a.23.23 0 0 1 .15.17 4 4 0 0 0-.56.25zM51.9 91.56a4 4 0 0 1-.23.59l-.72.48c.06-.2.13-.43.21-.64zM51.21 64.08a2.21 2.21 0 0 1 .16-.54 4 4 0 0 0 .25.51.37.37 0 0 1 .05.18.65.65 0 0 0 0 .18.41.41 0 0 1-.51.16 1.53 1.53 0 0 1 .05-.49zM51 92.63l.72-.48a.49.49 0 0 1-.05.2 3.85 3.85 0 0 1-.72.39z"/><path class="cls-2" d="M51.62 92.35c-.08.26-.18.51-.28.77s-.46.26-.69.39a7.32 7.32 0 0 1 .25-.75 3.85 3.85 0 0 0 .72-.41zM51.37 63.52a2.21 2.21 0 0 0-.16.54c-6.41-8.66-3.9-20.4-3.41-30.55a3.68 3.68 0 0 0 .46.38c.11 10.3-1.79 19.83 3.11 29.63z"/><path class="cls-2" d="M50.65 93.51c.23-.13.46-.23.69-.39-1.82 5.26-3.59 10.56-5 16-2.18 8.43-2.52 17.48-5.82 25.58l-.31-.95c2.9-7.74 3.21-16.64 5.51-24.79 1.51-5.1 3.1-10.3 4.87-15.38zM51.21 64.08a1.53 1.53 0 0 0-.07.49.6.6 0 0 1-.08-.08C45.57 58 45.6 49.26 46.44 40.83a.14.14 0 0 0 0-.1c.15-.59.26-1.21.36-1.8a.27.27 0 0 0-.16-.3c.24-1.9.47-3.75.67-5.54a4.78 4.78 0 0 0 .46.44c-.46 10.15-2.97 21.89 3.44 30.55z"/><path class="cls-2" d="M51.16 92c-.08.21-.15.44-.21.64v.06l-.59.38.56-.31a7.32 7.32 0 0 0-.25.75.51.51 0 0 1-.54 0l.38-1.08a6.59 6.59 0 0 0 .65-.44zM51.11 136.26a.92.92 0 0 0-.31.16.42.42 0 0 1 .13-.11.61.61 0 0 1 .18-.05z"/><path class="cls-5" d="M54.62 82.54a98.1 98.1 0 0 0-4.18 9.86 1.81 1.81 0 0 1-.36.23.5.5 0 0 0 0 .85c-1.54 4.31-2.87 8.69-4.23 13-2.67 8.59-3.44 17.61-6 26.22a3.4 3.4 0 0 0-.21-.56.56.56 0 0 0-.64-.26c-3.84 1.23-7.13 3.87-9.95 6.8 2.54-7.8 5.11-15.54 8-23.23 3.25-8.66 7.28-17.3 9.61-26.27.1-.41-.51-.69-.69-.31-2.05 4.51-4.05 9.18-6 13.92a.37.37 0 0 0-.51 0c-.18.16-1.62 1.87-2.13 2.39a4.74 4.74 0 0 0-.31-1.59 3.41 3.41 0 0 0-1.18-2.18c-1.33-.8-3.46-.18-5.18-.08a13.12 13.12 0 0 0 1.18-3.25.53.53 0 0 0-.51-.67l-1.56-.15a.15.15 0 0 0-.11 0c-1.66-.15-3.35-.31-5-.62 1-1.2 2.18-2.17 3.07-3.48 2.36 1.82 5.15 2.59 6.82-.36a.39.39 0 0 0 .28-.13c2.18-1.9 4.1-4 6.08-6.12 1.53-1.67 3.35-3.16 4.82-4.9l3.25.23c1.92.17 3.79.43 5.64.66z"/><path class="cls-2" d="M50.93 92.69l-.56.31zM50.6 93.53c-1.77 5.08-3.36 10.28-4.87 15.38-2.3 8.15-2.61 17-5.51 24.79-.13-.33-.23-.67-.38-1 2.53-8.61 3.3-17.63 6-26.22 1.36-4.33 2.69-8.71 4.23-13a.51.51 0 0 0 .53.05zM50.08 92.63a1.81 1.81 0 0 0 .36-.23l-.38 1.08a.5.5 0 0 1 .02-.85zM50.72 136.44a11.87 11.87 0 0 0-1.94 1.8 14.79 14.79 0 0 0-2.13 1.69.24.24 0 0 0-.1.1v-.18c0-.08 0-.38.08-.59a14.09 14.09 0 0 1 4.09-2.82zM48.78 138.24a16.15 16.15 0 0 1 2.53-1.36c-2.79 1.66-4.38 6.12-6.56 8.74a3.6 3.6 0 0 1-.43-.75c1.68-2.07 2.76-4.64 4.46-6.63zM48.26 33.91a3.68 3.68 0 0 1-.46-.38v-1.08a1.54 1.54 0 0 0 .41.43c.05.36.05.7.05 1.03z"/><path class="cls-2" d="M47.83 32.42a2 2 0 0 1-.39-.46c.06-.43.11-.87.13-1.28a.29.29 0 0 1 .23-.26c.13.21.23.39.36.57.05.64.08 1.28.08 1.89a1.54 1.54 0 0 1-.41-.43v-.03z"/><path class="cls-2" d="M48.16 30.68V31c-.13-.18-.23-.36-.36-.57.2-.08.34.02.36.25z"/><path class="cls-7" d="M46.65 139.93a14.79 14.79 0 0 1 2.13-1.69c-1.7 2-2.8 4.56-4.46 6.63-1.18-2.43-.7-5.35-1.08-8l2.56-2.36c-.2 1.77-.3 3.57-.33 5.36a.55.55 0 0 0 1.05.21.24.24 0 0 1 .13-.15z"/><path class="cls-2" d="M47.83 32.42v1.08a4.78 4.78 0 0 1-.46-.44c0-.38.08-.74.1-1.1a2 2 0 0 0 .36.46z"/><path class="cls-2" d="M38.11 36.27v.08c-.28.1-.54.23-.82.33a6.19 6.19 0 0 0 1.08 1.66c-.46 3.13-5.33 4.18-8.2 3.95A5.17 5.17 0 0 1 26 46.65h-1.34a.4.4 0 0 0-.3.13.74.74 0 0 1 .61-.75c1.46-1.3 2.92-2.61 4.41-3.92a.9.9 0 0 1 .85-.64c2.64 0 8.15-.38 7-5-.23-1 1.23-1.69 1.69-.71 2.36 5 6.49-3.82 6.69-5.62.1-.84 1.36-1.46 1.82-.48a6 6 0 0 0 .41.76.29.29 0 0 0-.23.26c0 .41-.07.85-.13 1.28-.07-.13-.18-.28-.25-.43a6.72 6.72 0 0 0 .33-1.39c-.28.08-.56.16-.87.23a.67.67 0 0 1-.1-.23.83.83 0 0 1 0 .26l-.82.23a8.21 8.21 0 0 0 .57 1c-1.13 3.37-4.95 8.3-7.2 6.37a5.36 5.36 0 0 0-.14-2c-.28.1-.56.23-.84.36-.02-.04-.05-.07-.05-.09z"/><path class="cls-2" d="M46.65 30.37c.31-.07.59-.15.87-.23a6.72 6.72 0 0 1-.33 1.39 5.66 5.66 0 0 1-.54-1.16zM47.19 31.53c.07.15.18.3.25.43 0 .36-.07.72-.1 1.1a5 5 0 0 1-.51-.53 6.47 6.47 0 0 0 .36-1z"/><path class="cls-4" d="M47.34 33.06c-.2 1.79-.43 3.64-.67 5.54a.25.25 0 0 0-.4.15 83 83 0 0 1-13.44 25.38l-.15-1.49c-.41-4.23 0-8.53-.74-12.71-.06-.18-.34-.18-.36 0a53.91 53.91 0 0 0 3.89 29.43 33.88 33.88 0 0 1-5.58-.16.64.64 0 0 0-.54 1 7.63 7.63 0 0 1 1.07 4.1c-3.38-1.41-5.64-4.61-7.3-7.79-.26-.49-.92 0-.72.41 1.72 3.85 4.28 7.41 8.38 8.84a.6.6 0 0 0 .77-.43 8 8 0 0 0-.64-4.72c2.13.28 4.61.9 6.15-.69a.41.41 0 0 0 .13-.28 23.6 23.6 0 0 0 7.64 2 25.76 25.76 0 0 0-4.13 3.66c-2.23 2.21-4.41 4.49-6.74 6.57a.52.52 0 0 0-.2.4c-2.21 1.7-4 1.26-6.13-.51a10.86 10.86 0 0 1-2.8-3.76c-.23-.51-.89-.28-1 .13-.48 1.33-1.05 2.66-1.53 4-2.93-3.76-2.28-8.71-3.1-13.25a.55.55 0 0 0 .12-.66A5.1 5.1 0 0 0 18 76.49c.13 0 .26-.13.44-.21.95-.43 3.43-1.41 3-3-.29-1-1.11-1.23-1.34-2.57-.12-.89-1.74-4.71-.71-5.1a12 12 0 0 0 3.28-1.46c.71-.56 1.79-1.61 1.1-2.69-1-1.49-.23-3-1-4.31-2-3.3 2-2.23 3.82-4.48.79-1-.41-4.85-.62-5.2.05 0 .11 0 .16-.06a5.75 5.75 0 0 0 3.58-2c1.36-2 1.93-2.12 4.29-2.53 2.64-.47 4.48-1.88 5-4 2.77 1.72 6.33-2.71 7.82-6.35a5 5 0 0 0 .52.53z"/><path class="cls-2" d="M46.65 30.37a5.66 5.66 0 0 0 .54 1.16 6.47 6.47 0 0 1-.36 1 5.68 5.68 0 0 1-.56-.85 5 5 0 0 0 .25-1.25.18.18 0 0 0 .13-.06z"/><path class="cls-2" d="M46.83 32.5c-1.49 3.64-5 8.07-7.82 6.35a3.3 3.3 0 0 0 .13-.89c2.25 1.94 6.07-3 7.13-6.34a5.68 5.68 0 0 0 .56.88zM46.67 38.63a.27.27 0 0 1 .16.3c-.1.59-.21 1.21-.36 1.8.05-.73.13-1.41.2-2.1zM46.65 139.26c0 .21 0 .38-.08.59s0 .13 0 .18c-.46.2-1-.42-.59-.82a.44.44 0 0 1 .15-.13 3.79 3.79 0 0 1 .65-.57 2.74 2.74 0 0 0-.08.7zM40.57 104.48a8.59 8.59 0 0 0-.36-1.41.43.43 0 0 0-.23-.26c1.93-4.74 3.93-9.41 6-13.92.18-.38.79-.1.69.31-2.33 9-6.36 17.61-9.61 26.27-2.87 7.69-5.44 15.43-8 23.23l-.84.87c3.13-11 7.64-22.79 11.79-33.66a.45.45 0 0 0 .72-.38 7 7 0 0 0-.16-1.05zM46.55 30.14a.67.67 0 0 0 .1.23.18.18 0 0 1-.13 0 .83.83 0 0 0 .03-.23z"/><path class="cls-2" d="M32.88 64.41c0-.07 0-.15-.05-.25a83 83 0 0 0 13.44-25.38.25.25 0 0 1 .4-.15c-.07.69-.15 1.38-.2 2.1a.14.14 0 0 1 0 .1C44.47 49.7 38.93 58 33 64.64h-.05a.61.61 0 0 1 0-.23zM45.7 30.63l.82-.23a5 5 0 0 1-.25 1.25 8.21 8.21 0 0 1-.57-1.02zM46.27 80.92a.29.29 0 0 1-.16 0l.16-.07s.12.07.07.1zM45.85 133.88a2.56 2.56 0 0 1 .06-.44c.34-.13.62.35.36.61a5 5 0 0 1-.49.44c.02-.2.05-.41.07-.61z"/><path class="cls-2" d="M46.34 80.92c-.2.26-.38.51-.61.77a3.48 3.48 0 0 0-.36 0 10.51 10.51 0 0 1 .9-.72zM46.27 80.92a10.51 10.51 0 0 0-.9.72h-.54a12.82 12.82 0 0 1 1.25-.7.29.29 0 0 0 .19-.02zM43.6 57.26c2.23 1.46 2.64 6 2.56 8.33 0 1.13-.13 2.77-1 3.64a1.41 1.41 0 0 1-1.43.39.55.55 0 0 0 .28-.49c3.13-.33 1.49-12.89-1.9-11.77C39.5 58.47 41.32 68 43.29 69a.24.24 0 0 0 0 .23.92.92 0 0 0 .44.36.54.54 0 0 1-.49.07c-2.69-.64-3.13-6.23-3.1-8.35.02-1.79.79-5.82 3.46-4.05zM45.91 133.44a2.56 2.56 0 0 0-.06.44 21.33 21.33 0 0 0-4.33 3.66 5.92 5.92 0 0 0-.25-.66c1.41-1.41 2.66-2.82 4.64-3.44z"/><path class="cls-2" d="M45.85 133.88c0 .2-.05.41-.05.59l-2.56 2.36a.45.45 0 0 0-.85 0c0 .28-.1.56-.15.87l-.77.7a.67.67 0 0 1-1.1-.31c-.54-1.46-.9-3-1.39-4.44-.4-1.2-3.74 1.26-4.07 1.54-2.39 1.82-4.41 4-6.67 6 .13-.39.26-.8.39-1.18 2.87-2.87 6.79-6.66 10.51-7.59a9.94 9.94 0 0 1 .43 1.18c-.07.25-.15.48-.23.74a.57.57 0 0 0 .72.72c.21.74.41 1.48.69 2.23a1 1 0 0 1-.2.2l.31.08a3 3 0 0 0 .14.43 3.88 3.88 0 0 1 .31-.26l.31.07c0-.07-.08-.17-.11-.25a21.33 21.33 0 0 1 4.34-3.68zM45.37 81.64a3.48 3.48 0 0 1 .36 0c-1.47 1.74-3.29 3.23-4.82 4.9-2 2.07-3.9 4.22-6.08 6.12a.39.39 0 0 1-.28.13 1.79 1.79 0 0 0 .21-.36.42.42 0 0 0-.06-.43c3.57-3.16 6.93-7.31 10.67-10.36zM42.11 57.36c3.39-1.12 5 11.44 1.9 11.77a.55.55 0 0 0-.21-.49 1.57 1.57 0 0 0 .85-.74 7.57 7.57 0 0 0 .54-3.1c0-2-.23-4.46-1.41-6.18-2.18-3.15-2.28 3.15-2.1 4.33.25 1.62.64 4.54 2 5.59.05 0 .07 0 .07.1a2.18 2.18 0 0 0-.46.28.27.27 0 0 0-.05.11C41.32 68 39.5 58.47 42.11 57.36z"/><path class="cls-2" d="M44.83 81.59h.54c-3.74 3-7.1 7.2-10.67 10.35a.43.43 0 0 0-.61 0 2.39 2.39 0 0 1-.33.25.52.52 0 0 1 .2-.4c2.33-2.08 4.51-4.36 6.74-6.57a25.76 25.76 0 0 1 4.13-3.63zM45.19 64.8a7.57 7.57 0 0 1-.54 3.1 1.57 1.57 0 0 1-.85.74s0-.07-.07-.1c-1.41-1.05-1.8-4-2-5.59-.18-1.18-.08-7.48 2.1-4.33 1.17 1.72 1.33 4.18 1.36 6.18zM44.75 145.62a.86.86 0 0 0 .13.2h-.26a.34.34 0 0 0 .13-.2z"/><path class="cls-2" d="M44.75 145.62a.34.34 0 0 1-.13.18 6.87 6.87 0 0 0-.74-.1.59.59 0 0 1-.1-.16 4.4 4.4 0 0 0 .54-.67 3.6 3.6 0 0 0 .43.75z"/><path class="cls-2" d="M44.62 145.8a5.6 5.6 0 0 1-.41.43 2.93 2.93 0 0 1-.33-.53 6.87 6.87 0 0 1 .74.1zM44.32 144.87a4.4 4.4 0 0 1-.54.67c-1.23-2.31-1-6.2-1-8.3l.41-.39c.43 2.67-.05 5.59 1.13 8.02zM43.8 68.64a.55.55 0 0 1 .21.49 1.08 1.08 0 0 1-.36 0h.1-.23a.43.43 0 0 1-.23-.07.27.27 0 0 1 .05-.11 2.18 2.18 0 0 1 .46-.31z"/><path class="cls-2" d="M43.65 69.13a1.08 1.08 0 0 0 .36 0 .55.55 0 0 1-.28.49.92.92 0 0 1-.44-.36.24.24 0 0 1 0-.23.43.43 0 0 0 .23.07s.08.03.13.03zM43.88 145.7h-.2c-.07 0 .07-.08.1-.13a.59.59 0 0 0 .1.13zM43.75 69.1h-.2zM42.83 137.24c-.21.18-.39.35-.59.51 0-.31.1-.59.15-.87a.45.45 0 0 1 .85 0zM41.52 137.57c0 .08.08.18.11.25l-.31-.07a1.08 1.08 0 0 1 .2-.18zM41.52 137.54a1.08 1.08 0 0 0-.2.18 3.66 3.66 0 0 0-.44-.13c0-.1-.08-.18-.11-.28l.52-.46a5.92 5.92 0 0 1 .23.69zM41.32 137.75a3.88 3.88 0 0 0-.32.25 3 3 0 0 1-.13-.39 3.66 3.66 0 0 1 .45.14zM41.27 136.85l-.52.46c-.28-.75-.48-1.49-.69-2.23a.53.53 0 0 0 .46-.39v-.05c.28.75.48 1.49.75 2.21zM40.75 137.34c0 .1.08.18.11.28l-.31-.08a1 1 0 0 0 .2-.2zM40.21 105.37c.13-.3.26-.61.36-.89a7 7 0 0 1 .16 1 .45.45 0 0 1-.72.38 3.93 3.93 0 0 0 .2-.49z"/><path class="cls-2" d="M40.57 104.48c-.1.28-.23.59-.36.89a6.21 6.21 0 0 0-.28-1.66 1.28 1.28 0 0 1 .16-.21 1.55 1.55 0 0 1-.23 0 1.42 1.42 0 0 1 0-.16c0-.16.1-.31.15-.44a.43.43 0 0 1 .23.26 8.59 8.59 0 0 1 .33 1.32zM40.24 133.72l.31.95v.05a.53.53 0 0 1-.46.39c-.15-.49-.31-1-.49-1.46.11-.31.21-.59.29-.9.15.31.25.65.38 1 0-.03-.03-.03-.03-.03z"/><path class="cls-2" d="M40.21 105.37a3.93 3.93 0 0 1-.2.54.51.51 0 0 1-.26-.38 7.42 7.42 0 0 0-.2-1.31c.13-.18.26-.36.38-.51a6.21 6.21 0 0 1 .28 1.66zM40.09 103.5a1.28 1.28 0 0 0-.16.21c0-.1 0-.18-.07-.26a1.55 1.55 0 0 0 .23.05zM40.06 135.11a.57.57 0 0 1-.72-.72c.08-.26.16-.49.23-.74.18.48.34.97.49 1.46zM37.24 105.37s.08-.05.08-.12c.51-.52 2-2.23 2.13-2.39a.37.37 0 0 1 .51 0c-.05.13-.1.28-.15.44a.76.76 0 0 0-.15.17l-.28-.07c0 .1 0 .2.07.31-.76.79-1.41 1.58-2.2 2.41H37c-.49-1.18-.49-3.31-1.41-4-.62-.41-3.61 0-5.23 0 .13-.23.23-.46.33-.67 1.72-.1 3.85-.72 5.18.08a3.41 3.41 0 0 1 1.13 2.13 4.74 4.74 0 0 1 .31 1.59z"/><path class="cls-2" d="M39.86 103.45c0 .08 0 .16.07.26s-.25.33-.38.51a.65.65 0 0 0 0-.2 3.12 3.12 0 0 1 .23-.62h.13zM39.65 132.16a3.4 3.4 0 0 1 .21.56c-.08.31-.18.59-.29.9a9.94 9.94 0 0 0-.43-1.18c-3.72.93-7.64 4.72-10.51 7.59.15-.44.28-.9.43-1.33 2.82-2.93 6.11-5.57 10-6.8a.56.56 0 0 1 .59.26z"/><path class="cls-2" d="M39.81 103.27a1.42 1.42 0 0 0 0 .16h-.13a.14.14 0 0 1 .13-.16zM39.75 105.53a.51.51 0 0 0 .26.38c-4.15 10.87-8.66 22.66-11.79 33.66-.23.28-.49.54-.69.82a252 252 0 0 1 11.66-35.63c.13-.21.26-.39.36-.54a7.42 7.42 0 0 1 .2 1.31z"/><path class="cls-2" d="M39.81 103.25a.14.14 0 0 0-.08.13h-.1a.76.76 0 0 1 .15-.17s0 .01.03.04z"/><path class="cls-2" d="M39.73 103.4a3.12 3.12 0 0 0-.23.62 1 1 0 0 0-.11-.41 2.25 2.25 0 0 1 .21-.24s.1.03.13.03z"/><path class="cls-2" d="M39.6 103.37a2.25 2.25 0 0 0-.21.24c0-.11 0-.21-.07-.31zM39.5 104a.65.65 0 0 1 0 .2c-.1.15-.23.33-.36.54a4.3 4.3 0 0 1 .36-.74z"/><path class="cls-2" d="M39.39 103.61a1 1 0 0 1 .11.41 4.3 4.3 0 0 0-.31.74c-.61.87-1.33 1.79-2.23 1.87a.64.64 0 0 1-.62-.46c-.51-1.69-.51-3.69-2.61-3.69h.05c.05 0 .16-.38-.05-.43a6.17 6.17 0 0 0-3.44.61h-.64a.62.62 0 0 1-.51-.9 19.6 19.6 0 0 0 1.39-2.79 3.9 3.9 0 0 0-1.08-.54c.13-.18.25-.36.38-.57.49 0 1 .13 1.49.21a11.42 11.42 0 0 1-1.32 3.36 1.42 1.42 0 0 1-.36 0 1.12 1.12 0 0 0 .18.28 2.29 2.29 0 0 0-.18.29 2.3 2.3 0 0 0 .39 0 3 3 0 0 0 .15.26c0-.08.08-.16.13-.23 1.62 0 4.61-.46 5.23 0 .92.69.92 2.82 1.41 4h.23c.82-.84 1.45-1.63 2.21-2.42zM39 36a5.36 5.36 0 0 1 .16 2 4 4 0 0 1-1-1.54v-.1c.26-.14.54-.27.84-.36z"/><path class="cls-2" d="M39.14 38a3.3 3.3 0 0 1-.13.89 3 3 0 0 1-.64-.54 3.59 3.59 0 0 0-.21-1.89 4 4 0 0 0 .98 1.54z"/><path class="cls-2" d="M38.37 38.34a3 3 0 0 0 .64.54c-.54 2.1-2.38 3.51-5 4-2.36.41-2.93.51-4.29 2.53a5.75 5.75 0 0 1-3.58 2 .42.42 0 0 0-.13-.79 5.17 5.17 0 0 0 4.18-4.36c2.81.26 7.72-.79 8.18-3.92zM38.16 36.45a3.59 3.59 0 0 1 .21 1.89 6.19 6.19 0 0 1-1.08-1.66c.28-.1.54-.23.82-.33s.05.07.05.1zM38.11 36.27v0zM37.32 105.25c0 .07 0 .12-.08.12zM30.63 79.89c-.05-.12-.13-.25-.18-.38a3.82 3.82 0 0 1-.21.36 1.46 1.46 0 0 0-.35 0l.15.34a1.91 1.91 0 0 1-.15.28h.3a7.1 7.1 0 0 1 .87 4 4.51 4.51 0 0 1-.64-.26 7.63 7.63 0 0 0-1.07-4.1.64.64 0 0 1 .54-1 33.88 33.88 0 0 0 5.58.16.62.62 0 0 1 .1.2c.24.46 1 .13.85-.36h.08a.63.63 0 0 0 .13.11 4.58 4.58 0 0 0 .56.25.41.41 0 0 1-.13.28c-1.54 1.59-4 1-6.15.69z"/><path class="cls-2" d="M37.19 79.56a4.58 4.58 0 0 1-.56-.25.63.63 0 0 1-.13-.11h.15a.46.46 0 0 1 .54.36zM36 79.28a1.46 1.46 0 0 0 .43-.08c.18.49-.61.82-.85.36a.62.62 0 0 0-.1-.2l.49-.08z"/><path class="cls-2" d="M36 79.28l-.49.08a53.91 53.91 0 0 1-3.89-29.43c0-.18.3-.18.36 0 .69 4.18.33 8.48.74 12.71l.15 1.49c-.07.07-.12.18-.2.25s.13.36.28.26a61.48 61.48 0 0 0 3.51 14.51 1.46 1.46 0 0 1-.43.08zM34.7 92a.42.42 0 0 1 .06.49 1.79 1.79 0 0 1-.21.36.6.6 0 0 1-.49-.1c.11-.16.23-.31.34-.46a2.69 2.69 0 0 0 .3-.29z"/><path class="cls-2" d="M34.7 92a2.69 2.69 0 0 1-.3.29c-.11.15-.23.3-.34.46a.62.62 0 0 1-.3-.52 2.39 2.39 0 0 0 .33-.25.43.43 0 0 1 .61.02z"/><path class="cls-2" d="M34.06 92.74a.6.6 0 0 0 .49.1c-1.67 3-4.46 2.18-6.82.36.05 0 .08-.13.13-.18a.52.52 0 0 0 .08-.26c2 1.49 4.35 2.11 6.12-.02zM32.37 102.55a16 16 0 0 1-2.08.08 6.17 6.17 0 0 1 3.44-.61c.21 0 .18.3.05.43s0 0-.05 0h-.23z"/><path class="cls-2" d="M33.76 92.22a.62.62 0 0 0 .3.52c-1.77 2.13-4.12 1.51-6.12 0a.36.36 0 0 0-.26-.23 12.41 12.41 0 0 1-2.92-3.46 4.92 4.92 0 0 0 .18-.59 3.59 3.59 0 0 1-.46.05.67.67 0 0 1-.1-.21c0 .08-.05.16-.08.23s-.28 0-.43 0a1.87 1.87 0 0 0 .28.49c-.44 1.28-.92 2.56-1.34 3.72a4.36 4.36 0 0 1-.53-.62c.48-1.36 1.05-2.69 1.53-4 .16-.41.82-.64 1-.13a10.86 10.86 0 0 0 2.8 3.69c2.15 1.8 3.94 2.24 6.15.54zM33.5 102.48h.23c-1.26.89-3.2 1.23-4.67 1.66a15.29 15.29 0 0 1-5 .7.49.49 0 0 1-.42-.72 32 32 0 0 1 4.95-6 3.85 3.85 0 0 1 .49.07 49.94 49.94 0 0 0-4.69 5.67H24a1.83 1.83 0 0 1 .15.25 1.91 1.91 0 0 0-.15.21 1 1 0 0 0 .25 0l.16.25a2.68 2.68 0 0 1 .17-.23c3 .06 5.1-1.1 7.77-1.82zM32.88 64.44a.61.61 0 0 0 0 .23c-.15.1-.41-.1-.28-.26s.13-.18.2-.25c0 .1 0 .18.05.25z"/><path class="cls-2" d="M30.29 102.63a16 16 0 0 0 2.08-.08c-2.67.72-4.79 1.88-7.77 1.82a3.38 3.38 0 0 1 .36-.51 17.33 17.33 0 0 0 4.95-1.07zM31.32 97.48a.53.53 0 0 1 .51.67 13.12 13.12 0 0 1-1.18 3.25 4.72 4.72 0 0 1-.64 0 11.42 11.42 0 0 0 1.31-3.4c-.49-.08-1-.16-1.49-.21a.57.57 0 0 0 .08-.13.22.22 0 0 0-.15-.35zM30.37 84.92h.05a3.8 3.8 0 0 0 .54.18 3.66 3.66 0 0 0 .1-.56h.06-.06a7.1 7.1 0 0 0-.87-4l.72.07a8 8 0 0 1 .64 4.72.6.6 0 0 1-.77.43c-4.1-1.43-6.66-5-8.38-8.84-.2-.46.46-.9.72-.41 1.66 3.18 3.92 6.38 7.3 7.79a5.29 5.29 0 0 1-.05.62zM31.12 84.53h-.06z"/><path class="cls-2" d="M31.06 84.51a6.74 6.74 0 0 0-.64.38h-.05a5.29 5.29 0 0 0 .05-.67 4.51 4.51 0 0 0 .64.29zM31.06 84.56a3.66 3.66 0 0 1-.1.56 3.8 3.8 0 0 1-.54-.18 6.74 6.74 0 0 1 .64-.38zM30.63 79.89l.28.67-.72-.07a2.58 2.58 0 0 1-.13-.31c.06-.11.13-.21.18-.31a2.55 2.55 0 0 1 .39.02zM30.65 101.4c-.1.21-.2.44-.33.67a.83.83 0 0 1-.28 0 2.43 2.43 0 0 0-.21-.31c.06-.07.11-.15.18-.25a4.72 4.72 0 0 0 .64-.11z"/><path class="cls-2" d="M30.63 79.89a2.55 2.55 0 0 0-.39 0 3.82 3.82 0 0 0 .21-.36c.05.11.13.24.18.36zM30.42 84.94h-.05zM30.32 102.07c-.05.07-.08.15-.13.23a3 3 0 0 1-.19-.3.83.83 0 0 0 .32.07z"/><path class="cls-6" d="M30.29 102.63l-.38.16a17.33 17.33 0 0 1-4.91 1.07c1.39-1.92 3.13-3.56 4.49-5.48a3.9 3.9 0 0 1 1.08.54 19.6 19.6 0 0 1-1.39 2.79.62.62 0 0 0 .51.9c.2.02.4.02.6.02z"/><path class="cls-2" d="M30.24 79.87c0 .1-.12.2-.18.31l-.15-.34a1.46 1.46 0 0 1 .33.03zM30.19 80.49h-.3a1.91 1.91 0 0 0 .15-.28 2.58 2.58 0 0 0 .15.28zM29.83 101.73a2.43 2.43 0 0 1 .17.27 2.3 2.3 0 0 1-.39 0 2.29 2.29 0 0 1 .22-.27zM30 101.43c-.07.1-.12.18-.18.25a1.12 1.12 0 0 1-.18-.28 1.42 1.42 0 0 0 .36.03zM29.47 97.76c-.12 0-.25 0-.41-.05.13-.13.29-.26.41-.36a.26.26 0 0 1 .18 0 .15.15 0 0 1 .11 0 .22.22 0 0 1 .15.35.57.57 0 0 1-.08.13 1.84 1.84 0 0 0-.36-.07z"/><path class="cls-2" d="M29.83 97.81c-.13.21-.25.39-.38.57l-.45-.16a4.6 4.6 0 0 0 .43-.46 1.84 1.84 0 0 1 .4.05zM29.65 97.3a.26.26 0 0 0-.18 0c-.12.1-.28.23-.41.36-1.61-.18-3.2-.26-4.81-.54a1.84 1.84 0 0 1 .41-.49c1.64.37 3.34.52 4.99.67z"/><path class="cls-2" d="M29.47 97.76a4.6 4.6 0 0 1-.43.46 3.85 3.85 0 0 0-.49-.07c.18-.16.34-.31.51-.44.16.03.29.03.41.05zM29 98.22l.41.16c-1.36 1.92-3.1 3.56-4.49 5.48a4.16 4.16 0 0 1-.61 0A49.94 49.94 0 0 1 29 98.22zM29.06 138.7c-.15.43-.28.89-.43 1.33-.26.26-.51.51-.75.77.11-.41.24-.82.34-1.23z"/><path class="cls-2" d="M27.88 140.8c.24-.26.49-.51.75-.77-.13.38-.26.79-.39 1.18a1.88 1.88 0 0 1-.36.33s-.07.05-.1.08a.44.44 0 0 1-.41-.56 5.09 5.09 0 0 1 .18-.67c.2-.28.46-.54.69-.82-.12.43-.24.82-.36 1.23zM29.06 97.71c-.17.13-.33.28-.51.44a5.22 5.22 0 0 0-1.13-.15c-1.28-.1-2.56-.25-3.87-.38a.61.61 0 0 1-.51-.9 18.11 18.11 0 0 1 4.1-4.05c.08.08.18.15.28.26-1 1.2-2.53 2.23-3.53 3.56a.55.55 0 0 1-.18 0c0 .07.05.12.07.2l-.23.36a2 2 0 0 0 .41.05 2.26 2.26 0 0 1 .11.26.61.61 0 0 1 .18-.21c1.61.3 3.2.38 4.81.56z"/><path class="cls-2" d="M27.88 141.54a1.88 1.88 0 0 0 .36-.33v.08a.46.46 0 0 1-.44.33s.06-.05.08-.08zM27.42 93c-.1-.11-.2-.18-.28-.26l.16-.13a.37.37 0 0 1 .35 0 1.79 1.79 0 0 0 .26.23.52.52 0 0 1-.08.26c-.05 0-.08.13-.13.18zM27.94 92.76a1.79 1.79 0 0 1-.26-.23.36.36 0 0 1 .26.23zM27.76 141.62a.52.52 0 0 1-.62-.82 4.91 4.91 0 0 1 .39-.41 5.09 5.09 0 0 0-.18.67.44.44 0 0 0 .41.56z"/><path class="cls-2" d="M27.65 92.53a.37.37 0 0 0-.35 0l-.16.13a15.15 15.15 0 0 1-2.61-2.95 3.59 3.59 0 0 0 .2-.69 12.41 12.41 0 0 0 2.92 3.51zM27.42 93l.31.23c-.89 1.31-2.1 2.28-3.07 3.48a3.39 3.39 0 0 1-.77-.15c1-1.36 2.51-2.39 3.53-3.56zM26 47.5c.21.35 1.41 4.22.62 5.2-1.82 2.25-5.8 1.18-3.82 4.48.77 1.29 0 2.82 1 4.31.69 1.08-.39 2.13-1.1 2.69a12 12 0 0 1-3.28 1.46c-1 .39.59 4.21.71 5.1.23 1.34 1.05 1.54 1.34 2.57.43 1.56-2.05 2.54-3 3-.18.08-.31.16-.44.21a1 1 0 0 0-.23-.18c-.15-.08-.77.38-.46.38a4.47 4.47 0 0 0-1.15-.28c2.12-.28 7.66-2.92 2.92-4 1.31-1.85-.28-4.77-1.59-6.62 2.1-1.3 9.25-2.1 3.95-6.07 2.12-1 .53-3.44-1.05-4.77 2.92-1.31 6.07-.79 6.07-3.95 0-1.15-1.18-2.3-1.67-3.46a.88.88 0 0 0 .59 0z"/><path class="cls-2" d="M9 66.62c-2.38-1.08-4.2-4-1.3-5.54-1.75-.31-2.36-1.18-2.36-2.18 0-1.61 1.59-3.64 2.9-4.43-1.06-.8-2.4-2.92-2.14-4.47.28-2.64 2.64-1.57 3.18-3.16a3.32 3.32 0 0 0 0-1.84 3.39 3.39 0 0 0 .53.2 2.4 2.4 0 0 1 0 1.9c-1.51 2-5.69 2.15-1.15 7a.46.46 0 0 1 0 .69c-1.18 1-4.9 4.41-.72 5.77a.52.52 0 0 1 .23.87l1.13 4.7a.57.57 0 0 1-.3 1.05c-3.31.18 1.28 4.21 2.08 5.15 1.46 1.8 2.35 3.8 4.74 4.51a.56.56 0 0 1 .18-1c.41-.08 5.46-2 2.89-2.9a.56.56 0 0 1-.38-.69A7.36 7.36 0 0 0 17 66.13a.59.59 0 0 1 .2-.82c1.28-.64 7.08-2.28 3.87-5.18a.54.54 0 0 1 0-.77c-.36-1.33-.69-2.66-1.05-4a.54.54 0 0 1 .26-.89c3.2-1.16 5.71-3.08 4-7.18a.53.53 0 0 1 .08-.56.89.89 0 0 0 .43.77l.05.07c.49 1.16 1.67 2.31 1.67 3.46 0 3.16-3.15 2.64-6.07 3.95 1.58 1.33 3.17 3.72 1.05 4.77 5.3 4-1.85 4.77-3.95 6.07 1.31 1.85 2.9 4.77 1.59 6.62 4.74 1-.8 3.69-2.92 4a4.47 4.47 0 0 1 1.15.28c.74.33.9.85 1.46 1.77a.14.14 0 0 0-.15.08c-4.13.61-6.46-4.28-8.8-6.9C8.74 70.05 4 66.39 9 66.62z"/><path class="cls-2" d="M26 46.65a.42.42 0 0 1 .13.79.38.38 0 0 1-.18 0l-.59.12a.88.88 0 0 1-.59 0l-.05-.07a2.83 2.83 0 0 1-.13-.44h1.34l-.8-.26a4.21 4.21 0 0 0 .87-.14z"/><path class="cls-2" d="M26.12 47.44c-.05 0-.11 0-.16.06a.38.38 0 0 0 .16-.06zM26 46.65a4.21 4.21 0 0 1-.85.15l.8.26H24.6a2.83 2.83 0 0 0 .13.44.89.89 0 0 1-.43-.77.4.4 0 0 1 .3-.13h1.34zM25 103.86a3.38 3.38 0 0 0-.36.51 1.83 1.83 0 0 1-.33 0 .51.51 0 0 0-.1-.21.76.76 0 0 1 .18-.25 4.16 4.16 0 0 0 .61-.05zM24.91 88.46a4.92 4.92 0 0 1-.18.59 2.78 2.78 0 0 1-.28-.54 3.59 3.59 0 0 0 .46-.05z"/><path class="cls-2" d="M24.73 89.07a3.59 3.59 0 0 1-.2.69 4.17 4.17 0 0 1-.41-.69l.15-.54h.18a2.78 2.78 0 0 0 .28.54zM24.66 96.68a1.84 1.84 0 0 0-.41.49 1 1 0 0 1-.29 0 1.89 1.89 0 0 0-.18-.41 1.46 1.46 0 0 0 .11-.18 3.39 3.39 0 0 0 .77.1zM24.6 104.37a2.68 2.68 0 0 0-.17.23l-.16-.25a1.83 1.83 0 0 0 .33.02zM24.35 88.3a.67.67 0 0 0 .1.21h-.18c.03-.05.05-.13.08-.21z"/><path class="cls-2" d="M24.12 89.07a4.17 4.17 0 0 0 .41.69c-.39 1.36-.87 2.7-1.33 4a.74.74 0 0 1-1.2.34c-3.61-3.72-4.41-10-3.56-15h.36c0 4.43.05 10.4 3.15 13.89-.05.13-.1.29-.16.41l.44-.12a3.84 3.84 0 0 0 .28.3c.05-.13.08-.25.13-.41a2.12 2.12 0 0 1 .36-.1 3 3 0 0 1-.24-.28c.44-1.16.92-2.44 1.36-3.72zM24.35 103.89a.76.76 0 0 0-.18.25 1.83 1.83 0 0 0-.15-.25z"/><path class="cls-2" d="M24.27 88.53l-.15.54a1.87 1.87 0 0 1-.28-.49c.16-.02.28-.02.43-.05zM24.17 104.14a.51.51 0 0 1 .1.21 1 1 0 0 1-.25 0 1.91 1.91 0 0 1 .15-.21zM24.25 97.17a.61.61 0 0 0-.18.21 2.26 2.26 0 0 0-.11-.26 1 1 0 0 0 .29.05zM23.78 96.71a1.89 1.89 0 0 1 .18.41 2 2 0 0 1-.41-.05z"/><path class="cls-2" d="M23.89 96.53a1.46 1.46 0 0 1-.11.18c0-.08-.05-.13-.07-.2a.55.55 0 0 0 .18.02zM23.73 29.55c.52 2.44.7 7.46-2.33 8.59-1.77.67-3 .9-4.18 2.56a18 18 0 0 1-2.12 2.62c-1.26 1.2-3.21 1.28-4.8 1.1a1.74 1.74 0 0 1-.36-.08c-.18-.2-.38-.41-.56-.64v-.05a6.61 6.61 0 0 0 4.62-.28c1.85-1.08 2.64-3.44 4.23-4.77 1.05-.54 2.9-.79 3.44-1.33 3.43-3.16 1.05-13-1.85-9.77l-.46.1a.45.45 0 0 1 .05-.33c1.86-2.72 3.86.08 4.32 2.28z"/><path class="cls-2" d="M19.86 27.5c2.9-3.18 5.28 6.61 1.85 9.77-.54.54-2.39.79-3.44 1.33-1.59 1.33-2.38 3.69-4.23 4.77a6.61 6.61 0 0 1-4.66.28 4.48 4.48 0 0 1-.08-.77 4.15 4.15 0 0 0 2.25.49 5.12 5.12 0 0 0 4.16-2.59c.84-1.21 1.61-2.56 3.07-3 3.1-1 4.26-3 3.92-6.2-.13-1.2-.69-4.77-2.66-3.66a.49.49 0 0 1-.67-.29zM22.78 92.79a3 3 0 0 0 .24.28 2.12 2.12 0 0 0-.36.1 2.07 2.07 0 0 1 .12-.38z"/><path class="cls-2" d="M22.73 31.55c.34 3.18-.82 5.23-3.92 6.2-1.46.47-2.23 1.82-3.07 3a5.12 5.12 0 0 1-4.16 2.59 4.15 4.15 0 0 1-2.25-.49c0-.74.46-1.28 1.79-1.41a.5.5 0 0 0 .26-.92c-4.85-3.72 4.23-7.33 6.35-8.36a.53.53 0 0 0-.12-1c-1.08-.28-2.16-.57-3.21-.87-.3-.1-.61-.21-.89-.29.23-.89.84-1.23 1.84-1a.51.51 0 0 0 .51-.66l3.54-.83a.49.49 0 0 0 .67.29c1.93-1.02 2.53 2.55 2.66 3.75zM22.78 92.79a2.07 2.07 0 0 0-.12.38l-.41.11a1.51 1.51 0 0 1-.28-.29c.1-.26.2-.54.31-.8a4.36 4.36 0 0 0 .5.6z"/><path class="cls-2" d="M22.63 93.17c-.05.16-.08.28-.13.41a3.84 3.84 0 0 1-.28-.3zM22.25 92.17c-.11.26-.21.54-.31.8-3.1-3.49-3.15-9.46-3.15-13.89a.6.6 0 0 0 .36-.16c.85 4.54.17 9.49 3.1 13.25zM22.22 93.28l-.44.12c.06-.12.11-.28.16-.41a1.51 1.51 0 0 0 .28.29zM19.27 78.26a.55.55 0 0 1-.12.66.61.61 0 0 0 0-.23.28.28 0 0 0-.36-.23c-.59-.92-.79-1.46-1.49-1.77a2.34 2.34 0 0 0 .69-.2 5.1 5.1 0 0 1 1.28 1.77z"/><path class="cls-2" d="M18.79 79.08h-.36a1.74 1.74 0 0 1 .05-.39.15.15 0 0 1 .13-.15h.18c.06 0 0 0 0-.05a.28.28 0 0 1 .36.23.61.61 0 0 1 0 .23.6.6 0 0 1-.36.13z"/><path class="cls-2" d="M18.76 78.46v.05c0 .05-.13 0-.18 0a.14.14 0 0 1 .18-.05z"/><path class="cls-2" d="M18.61 78.54a.15.15 0 0 0-.13.15 1.74 1.74 0 0 0-.05.39C14 79 12 75.26 9.4 72c-1.17-1.46-3.4-3-3.07-5.07a1.8 1.8 0 0 1 .28-.9c.74 1.61.38-.41 0 0a10.13 10.13 0 0 1-.46-1.18c-.74-2 .59-3.1-.92-4.56s.87-4.48 1.82-5.51c.43-.46-2-4.54-1-6.23.84-1.43 2.69-1.9 2.53-3.84a5.53 5.53 0 0 0 .65.28 3.32 3.32 0 0 1 0 1.84c-.54 1.59-2.9.52-3.18 3.16-.26 1.59 1.08 3.71 2.13 4.51-1.31.79-2.9 2.82-2.9 4.43 0 1 .61 1.87 2.36 2.18-2.9 1.56-1.08 4.46 1.3 5.54-5-.23-.25 3.43.82 5 2.39 2.61 4.72 7.5 8.85 6.89z"/><path class="cls-2" d="M17.76 76.31a1 1 0 0 1 .23.18 2.34 2.34 0 0 1-.69.2c-.3 0 .31-.46.46-.38zM17.61 31.22a.53.53 0 0 1 .12 1c-2.12 1-11.2 4.64-6.35 8.36a.5.5 0 0 1-.26.92c-1.33.13-1.77.67-1.79 1.41a1.55 1.55 0 0 1-.61-.61c.05-.77.66-1.29 2.43-1.29-6.33-3.71 3.72-7.94 6.36-9.25-1-.25-2.54-.61-4.08-1.13a2.71 2.71 0 0 1 .11-.54c.28.08.59.19.89.29 1.02.27 2.1.56 3.18.84zM15.86 28.43a.51.51 0 0 1-.51.66c-1-.26-1.61.08-1.84 1a1.69 1.69 0 0 0-.36-.12 5.91 5.91 0 0 1-1.15-.34v-.05a3.16 3.16 0 0 1 3.36-1z"/><path class="cls-2" d="M15.86 28.43l-.51.12a3.16 3.16 0 0 0-3.36 1 .31.31 0 0 0-.21-.13 1.46 1.46 0 0 0-.2-.05A3.85 3.85 0 0 1 15.51 28a.44.44 0 0 1 .35.43zM13.38 31.19c2.46.75 4.12-.1 1.1 1.41-.23.13-.49.23-.74.36a.42.42 0 0 0-.23-.36 6.66 6.66 0 0 1-.13-1.41z"/><path class="cls-2" d="M14.48 32.6c3-1.51 1.36-.66-1.1-1.41a5.34 5.34 0 0 1 0-.59c1.54.52 3.1.88 4.08 1.13C14.84 33 4.79 37.27 11.12 41c-1.77 0-2.38.52-2.43 1.29a1 1 0 0 1-.16-.77 1.46 1.46 0 0 1 .23-.52 3.82 3.82 0 0 1 .39-.46c.2.49.25-.05 0-.05a1.53 1.53 0 0 1 .18-.18.51.51 0 0 0-.23-.87l-.39-.08c-.62-2.72 1.82-4.59 4.12-5.87a.18.18 0 0 1 .11 0 .51.51 0 0 0 .77-.54c.29-.12.54-.22.77-.35z"/><path class="cls-2" d="M13.74 33a.51.51 0 0 1-.77.54 1.62 1.62 0 0 1 .1-.18c.23-.17.46-.27.67-.36zM14.56 22.32a2.4 2.4 0 0 1-1 .62c-1.84.36-3.46.95-4.3 2.18a2.39 2.39 0 0 0-.13 3.05 8.5 8.5 0 0 1-1.03-.87c-.28-1.69 1.43-3.64 2.87-4.16a18.42 18.42 0 0 1 3.59-.82zM13.51 32.6a.42.42 0 0 1 .23.36c-.21.13-.44.23-.67.36 0-.1.13-.18.18-.28s.18-.28.26-.44z"/><path class="cls-2" d="M13.63 23.4c-.38.08-.77.21-1.15.33-2.28 2.75-2.67 4.62-1.1 5.59a7.08 7.08 0 0 1-2.23-1.15 2.39 2.39 0 0 1 .13-3.05c.84-1.23 2.46-1.82 4.3-2.18a1 1 0 0 1-.28.13zM13.51 32.6c-.08.16-.18.28-.26.44a2.39 2.39 0 0 0-.56-.36A3.18 3.18 0 0 1 12 32a3.88 3.88 0 0 1 1.51.6zM13.15 29.94a1.69 1.69 0 0 1 .36.12 2.71 2.71 0 0 0-.11.54c-.48-.15-1-.33-1.38-.51a.39.39 0 0 0 0-.46 5.91 5.91 0 0 0 1.13.31z"/><path class="cls-2" d="M13.38 31.19a6.66 6.66 0 0 0 .13 1.41A3.88 3.88 0 0 0 12 32a2.06 2.06 0 0 1-.36-1.48l1.26.51z"/><path class="cls-2" d="M13.4 30.6a5.34 5.34 0 0 0 0 .59l-.54-.2-1.26-.51v-.13a.39.39 0 0 0 .15 0 .69.69 0 0 0 .26-.21c.44.13.91.31 1.39.46zM13.25 33c-.05.1-.13.18-.18.28a.67.67 0 0 1-.21.1 2.9 2.9 0 0 0-.33-.2 3.94 3.94 0 0 1-.88-.84 2.23 2.23 0 0 1 1.06.33 3.16 3.16 0 0 0 .54.33zM13.07 33.32a1.62 1.62 0 0 0-.1.18.18.18 0 0 0-.11 0 .67.67 0 0 0 .21-.18z"/><path class="cls-2" d="M12.86 33.42c-2.3 1.28-4.74 3.15-4.12 5.87-4.23-1.21.1-8 3.77-6.13a2.9 2.9 0 0 1 .35.26zM13.25 33a3.16 3.16 0 0 1-.56-.36 2.39 2.39 0 0 1 .56.36zM12 32a3.18 3.18 0 0 0 .72.69 2.23 2.23 0 0 0-1.06-.33 3.29 3.29 0 0 1-.28-.44 1.51 1.51 0 0 1 .59.05zM12 29.63a.39.39 0 0 1 0 .46 1.05 1.05 0 0 1-.26-.13.85.85 0 0 1 .26-.36.06.06 0 0 0 0 .03zM12 29.58v.05zM11.76 30a1.05 1.05 0 0 0 .26.13.69.69 0 0 1-.26.21.39.39 0 0 1-.15 0 .89.89 0 0 1 .15-.34zM12 29.58a2.44 2.44 0 0 1-.41-.18 1.46 1.46 0 0 1 .2.05.31.31 0 0 1 .21.13z"/><path class="cls-2" d="M11.58 29.89l-.23-.11a3.06 3.06 0 0 1 .23-.36 2.44 2.44 0 0 0 .41.18.85.85 0 0 0-.21.36.27.27 0 0 1-.2-.07zM11.63 32.35a3.94 3.94 0 0 0 .88.84c-3.67-1.87-8 4.92-3.77 6.13v.06c.05.2.11.35.16.51a.51.51 0 0 1-.21 0c0-.1-.05-.2-.07-.33a1.07 1.07 0 0 0-.26.26c-4.57-1.19-.52-8.01 3.27-7.47zM11.94 32a1.51 1.51 0 0 0-.59-.05 2.14 2.14 0 0 1-.2-1.43.49.49 0 0 0 .25-.08.48.48 0 0 1 .15.11 2.06 2.06 0 0 0 .39 1.45z"/><path class="cls-2" d="M11.76 30a.89.89 0 0 0-.15.36.55.55 0 0 1-.18 0c-.07 0-.15-.07-.23-.1a1.42 1.42 0 0 1 .11-.33 1.16 1.16 0 0 0 .28-.05.27.27 0 0 0 .17.12zM11.63 32.35c-3.79-.54-7.84 6.28-3.25 7.46a2 2 0 0 0-.39.38c-4.46-1.67-.89-8.46 3.36-8.31a3.29 3.29 0 0 0 .28.47z"/><path class="cls-2" d="M11.61 30.35v.13a.48.48 0 0 0-.15-.11.55.55 0 0 0 .15-.02zM11.4 29.32a.79.79 0 0 0 .16.08.59.59 0 0 1-.16-.08zM11.56 29.89a1.16 1.16 0 0 1-.28.05.33.33 0 0 1 .05-.16z"/><path class="cls-2" d="M11.4 29.32a.59.59 0 0 0 .16.1 3.06 3.06 0 0 0-.23.36 5.82 5.82 0 0 1-2.18-1.61 7.08 7.08 0 0 0 2.23 1.15zM11.4 30.37a.49.49 0 0 1-.25.08.55.55 0 0 1 0-.18c.1.03.18.08.25.1z"/><path class="cls-3" d="M11.35 31.88C7.1 31.73 3.53 38.52 8 40.19a2.88 2.88 0 0 0-.58 1c-4.3-5.92-6.7-12.79-4.88-20.1 1.43 4.29 4.76 10 8.61 9.36a2.14 2.14 0 0 0 .2 1.43z"/><path class="cls-2" d="M11.33 29.78a.33.33 0 0 0-.05.16 3.14 3.14 0 0 1-1-.16 8.12 8.12 0 0 1-1.62-1.38 2.31 2.31 0 0 1-.56-1.1 8.5 8.5 0 0 0 1.05.87 5.82 5.82 0 0 0 2.18 1.61z"/><path class="cls-2" d="M11.28 29.94a1.42 1.42 0 0 0-.11.33c-.3-.15-.59-.33-.87-.49a3.14 3.14 0 0 0 .98.16z"/><path class="cls-2" d="M11.17 30.27a.55.55 0 0 0 0 .18c-3.87.67-7.17-5.07-8.63-9.36.12-.46.25-.89.38-1.35 1 3.61 4.38 9.09 7.38 10 .28.2.57.38.87.53zM9.64 44.68a2.28 2.28 0 0 1-.11-.41 1.1 1.1 0 0 0 .41.07c.1.13.23.26.34.39a.3.3 0 0 1-.29.51l-.23-.08c-.05-.16-.07-.33-.12-.48z"/><path class="cls-2" d="M9.38 43.7c.18.23.38.44.56.64a1.1 1.1 0 0 1-.41-.07c-.07-.18-.1-.39-.15-.57zM9.76 45.16a3.39 3.39 0 0 1-.53-.2c-.06-.21-.11-.44-.18-.64.2.13.38.25.59.36.05.15.07.32.12.48z"/><path class="cls-2" d="M9.53 44.27a2.28 2.28 0 0 0 .11.41c-.21-.11-.39-.23-.59-.36a.38.38 0 0 0 0-.18 5.52 5.52 0 0 0 .48.13z"/><path class="cls-2" d="M9.53 44.27a5.52 5.52 0 0 1-.53-.16c-.07-.23-.12-.46-.18-.69a3 3 0 0 0 .52.2.1.1 0 0 0 .05.08c.04.18.07.39.14.57zM9.15 39.42a.51.51 0 0 1 .23.87 1.53 1.53 0 0 0-.18.18.09.09 0 0 0-.08 0 2 2 0 0 1-.18-.47S9 40 9 39.93s-.08 0-.1 0-.11-.31-.16-.51v-.06z"/><path class="cls-2" d="M9.38 43.65v.05a.1.1 0 0 1-.05-.08s.02.03.05.03z"/><path class="cls-2" d="M9.38 43.65h-.05a7.55 7.55 0 0 1-.64-.74 1.46 1.46 0 0 1 0-.59 1.55 1.55 0 0 0 .61.61 4.48 4.48 0 0 0 .08.72zM9.2 40.47c.2 0 .15.54 0 .05-.03-.02-.03-.05 0-.05z"/><path class="cls-2" d="M9.33 43.62a3 3 0 0 1-.52-.2 3.49 3.49 0 0 1-.12-.54 7.55 7.55 0 0 0 .64.74zM9.2 40.47v.05a.09.09 0 0 1 0-.05zM9.05 44.32c.07.2.12.43.18.64a5.53 5.53 0 0 1-.65-.28 2 2 0 0 0-.07-.52c0-.13 0-.23-.08-.33s0 0 .05 0c.18.15.36.3.54.43s.03.03.03.06zM9.12 40.5a3.82 3.82 0 0 0-.39.46c.19-.28.27-.41.39-.46z"/><path class="cls-2" d="M8.66 28.4a8.12 8.12 0 0 0 1.64 1.38c-3-1-6.41-6.43-7.38-10 .18-.52.36-1 .56-1.54l-.82-.11V18a.2.2 0 0 0 0 .1c-.28 0-.54-.07-.82-.1a7.66 7.66 0 0 0 .28 1.54C-.31 26.89 2 37.83 7.69 43.16a.13.13 0 0 1 0 .06 2.11 2.11 0 0 0 .7.58s.05.2.08.33a2 2 0 0 1 .07.52C0 40.6-1.21 25.27 1.84 17.76a.85.85 0 0 1 1.67.24 16.08 16.08 0 0 0 4.59 9.3 2.31 2.31 0 0 0 .56 1.1z"/><path class="cls-2" d="M9 44.11a.38.38 0 0 1 0 .18c-.18-.13-.36-.28-.54-.43a4 4 0 0 0 .54.25zM9 39.93s0 .07-.06.07a.13.13 0 0 1 0-.08l.06.01z"/><path class="cls-2" d="M9 44.11a4 4 0 0 1-.51-.25h-.05a3.3 3.3 0 0 1-.1-.67c.15.08.31.18.48.26s.1.43.18.66zM8.94 40a2 2 0 0 0 .18.49c-.1 0-.2.18-.36.48a1.46 1.46 0 0 0-.23.52 3.9 3.9 0 0 0-.23.87 6.7 6.7 0 0 1-.61-.82 2.43 2.43 0 0 1 .84-1.21l.34.08a2.81 2.81 0 0 1-.08-.31.65.65 0 0 1 .15-.1z"/><path class="cls-2" d="M8.94 40a.65.65 0 0 0-.15.1c0-.07 0-.15-.08-.23a.51.51 0 0 0 .21 0 .13.13 0 0 0 .02.13zM8.79 40.11a2.81 2.81 0 0 0 .08.31l-.34-.08zM8.69 42.88a3.49 3.49 0 0 0 .12.54c-.17-.08-.33-.18-.48-.26a2 2 0 0 1 0-.77 4 4 0 0 0 .39.49zM8.71 39.88c0 .08 0 .16.08.23l-.26.23-.53-.15a2 2 0 0 1 .39-.38z"/><path class="cls-2" d="M8.64 39.55c0 .13 0 .23.07.33l-.33-.07a1.07 1.07 0 0 1 .26-.26zM8.69 42.27a1.46 1.46 0 0 0 0 .59 4 4 0 0 1-.39-.49 3.9 3.9 0 0 1 .23-.87 1 1 0 0 0 .16.77zM8.43 43.83c-.24-.18-.47-.38-.7-.58a.13.13 0 0 0 0-.06 1.86 1.86 0 0 1-.28-2 1.4 1.4 0 0 0 .28.36 1.36 1.36 0 0 0 .64 1.59 3.3 3.3 0 0 0 .06.69z"/><path class="cls-2" d="M8.3 42.37a2 2 0 0 0 0 .77 1.36 1.36 0 0 1-.64-1.59 6.7 6.7 0 0 0 .64.82zM8 40.19l.54.15a2.43 2.43 0 0 0-.84 1.21 1.4 1.4 0 0 1-.28-.36 2.88 2.88 0 0 1 .58-1zM8.41 43.8a2.11 2.11 0 0 1-.7-.58c.23.2.46.4.7.58zM7.41 41.19a1.86 1.86 0 0 0 .28 2C2 37.83-.31 26.89 2.1 19.53a15.09 15.09 0 0 0 .44 1.56c-1.82 7.31.58 14.18 4.87 20.1zM6.61 66c.38-.38.74 1.64 0 0zM2.66 18.09l.82.11c-.2.51-.38 1-.56 1.54a7.43 7.43 0 0 1-.26-1.65z"/><path class="cls-2" d="M2.92 19.74c-.13.46-.26.89-.38 1.35a15.09 15.09 0 0 1-.44-1.56 7.85 7.85 0 0 1 .54-1.44 7.43 7.43 0 0 0 .28 1.65zM2.66 18v.1a.2.2 0 0 1 0-.1z"/><path class="cls-2" d="M2.64 18.09a7.85 7.85 0 0 0-.54 1.44A7.66 7.66 0 0 1 1.82 18c.28 0 .54.07.82.09z"/><path class="cls-8" d="M89.12 119.17c-1.41-3.53.94-8 2.11-2.59.24 1.41.24 4-1.64 3.76v-.94"/><path class="cls-9" d="M89.12 119.17c-1.41-3.53.94-8 2.11-2.59.24 1.41.24 4-1.64 3.76v-.94"/><path class="cls-8" d="M89.62 119a6.8 6.8 0 0 1-.39-2.86c0-.41.35-2.17.9-1.31a5.59 5.59 0 0 1 .65 3 4.33 4.33 0 0 1-.18 1.18c-.16.58-.5.46-1 .5l.76.58c-.1-.3-.25-.55-.35-.84a.43.43 0 0 0-.83 0c-.1.29-.25.54-.35.84a.79.79 0 0 0 .56 1c3.55.64 2.66-5.59 1.26-7.14-.72-.78-1.6-.17-2 .57a6.1 6.1 0 0 0 0 4.78c.22.62 1.23.35 1-.28zM103.92 119.4c-1.88 0-3.52-5.87-1.17-6.58 2.82-.7 2.11 5.64 1.88 6.82"/><path class="cls-9" d="M103.92 119.4c-1.88 0-3.52-5.87-1.17-6.58 2.82-.7 2.11 5.64 1.88 6.82"/><path class="cls-8" d="M103 118.5c0 .07-.11.13-.16.19l1-.13c-1-.5-1.44-2.06-1.56-3.12a2.76 2.76 0 0 1 .24-1.7.7.7 0 0 1 1.22 0c1.2 1.82-.08 4.13.3 6a.59.59 0 0 0 1.08.14 4.71 4.71 0 0 0 .35-2.25 12.93 12.93 0 0 0-.23-3.4c-.38-1.71-2.15-3-3.63-1.49s-.6 4.5.3 6a3.56 3.56 0 0 0 .95 1.09c-.53-.38.07.34.14.41a1.29 1.29 0 0 0 1.24.33c2.13-.59.09-3.67-1.24-2.13zM51.37 45c-1.23-2.92 1.69-6.61 2.93-2.77.92 2.92-2.93 5.69-2.93 2"/><path class="cls-9" d="M51.37 45c-1.23-2.92 1.69-6.61 2.93-2.77.92 2.92-2.93 5.69-2.93 2"/><path class="cls-8" d="M51.73 44.91a4.37 4.37 0 0 1 .27-3.08c.85-1.58 1.78.17 1.85 1.22a2.63 2.63 0 0 1-1 2.14c-.8.62-.9-.59-1.22-1.11a.32.32 0 0 0-.55 0 1.65 1.65 0 0 0 1.76 2.48c1.55-.37 2.27-2.38 2.14-3.77s-1.32-3.35-3-2.49-1.81 3.56-1 4.9a.37.37 0 0 0 .68-.29zM58.45 44.55c1.23 1.54 3.54-2.92.61-3.23-1.84-.16-1.84 2-.76 3.23"/><path class="cls-9" d="M58.45 44.55c1.23 1.54 3.54-2.92.61-3.23-1.84-.16-1.84 2-.76 3.23"/><path class="cls-8" d="M58.1 44.9c1.65 1.79 3.81-1.93 2.45-3.39-.77-.82-2.6-1-3.22.11-.45.84-.47 3.29 1 3.15a.24.24 0 0 0 .21-.16c.18-.52-.15-1-.32-1.45-.35-1 .64-1.82 1.54-1.08.72.59-.31 2.78-.93 2.12-.44-.46-1.12.23-.7.7z"/></g></g></svg>