<svg xmlns="http://www.w3.org/2000/svg" viewBox="0 0 142.81 148.32"><defs><style>.cls-1{fill:#1d3033;stroke:#1d3033;stroke-linecap:round;stroke-linejoin:round;stroke-width:.66px}.cls-2{fill:#433138}.cls-3{fill:#dc4846}.cls-4{fill:#3e3f3f}.cls-5{fill:#f3ed64}.cls-6{fill:#f7e5d7}.cls-7{fill:#9e7642}.cls-8{fill:#dadada}.cls-9{fill:#1a5486}.cls-10{fill:#a3a2a2}.cls-11{fill:#2268b2}.cls-12{fill:#fff}.cls-13{fill:none}.cls-14{fill:#6b6b6b}.cls-15{fill:#8d1d22}.cls-16{fill:#f9d9d9}</style></defs><g id="レイヤー_2" data-name="レイヤー 2"><g id="レイヤー_3" data-name="レイヤー 3"><path class="cls-1" d="M134.69 112.47c4.41 1.79 10.3 2.25 6.64 8.12-4.34 7-10.69 13.13-18.18 16.54-3.89 1.79-8.48 2.3-12.71 2.64-2.82.23-5.54-.21-8.31-.11-2.51.11-4.56 1-6.94 1.39v-.56c1.59-.06 3.25-1.11 4.87-1.31 2-.26 4 .23 6 .2a83.08 83.08 0 0 0 8.51-.82 29.68 29.68 0 0 0 11.89-3.92 43.87 43.87 0 0 0 9.59-8.54c1.54-1.63 6.79-7.48 5.51-10.07-.46-.92-2.82-1.15-3.87-1.51-1.64-.59-3.28-1.51-4.9-2.1a81 81 0 0 1-10.3-4.57 84.91 84.91 0 0 1-9.82-6.33c-3-2.35-6.61-3.94-9.56-6.35a.34.34 0 0 0 .33-.21 141.91 141.91 0 0 0 31.25 17.51z"/><path class="cls-1" d="M141.66 116c1.28 2.59-4 8.44-5.51 10.07a43.87 43.87 0 0 1-9.59 8.54 29.68 29.68 0 0 1-11.89 3.92 83.08 83.08 0 0 1-8.51.82c-2 0-4-.46-6-.2-1.62.2-3.28 1.25-4.87 1.31 0-.26.05-.52.08-.77a40.54 40.54 0 0 1 4.79-1.11c2-.05 4 .23 6 .11 4.77-.29 9.94-.59 14.48-2.18 7.38-2.59 15.71-9.49 19.46-16.69 2.2-4.23-4.21-5.54-7.39-6.82-1.46-.59-2.89-1.18-4.33-1.79a60.09 60.09 0 0 1-6-3 159.8 159.8 0 0 1-19.79-13.14.35.35 0 0 1 .08-.57.54.54 0 0 0 .54.62c3 2.41 6.51 4 9.56 6.35a84.91 84.91 0 0 0 9.82 6.33 81 81 0 0 0 10.3 4.57c1.62.59 3.26 1.51 4.9 2.1 1.05.41 3.41.64 3.87 1.53z"/><path class="cls-2" d="M132.71 113c3.18 1.28 9.59 2.59 7.39 6.82-3.75 7.2-12.08 14.1-19.46 16.69-4.54 1.59-9.71 1.89-14.48 2.18-2 .12-4-.16-6-.11a40.54 40.54 0 0 0-4.79 1.11c.28-3 .2-6.08.18-9 0-4 .35-8.66-.75-12.5 2.9-2.08 3.51-4.39 1.54-8.59.79 0 1.59.08 2.38.08.31 1.77 1.82 3.17 2.52 4.84s1.28 3.41 2 5.1c.67 1.49 2.36 4.69 4.49 3.59 1.71-.85 1.43-4.54 1.43-6a37.77 37.77 0 0 0-.49-7.28c9.62.33 18.92 1.41 27.66 7.4.21.16.39-.18.18-.33a41.87 41.87 0 0 0-8.53-4.77l.43-1c1.41.62 2.84 1.21 4.3 1.77z"/><path class="cls-1" d="M136.64 65.1c.48.41.1 1.41-.59 1.15-3.75-1.38-7.67-2.43-11.44-3.79a6.53 6.53 0 0 0-1.12-1c3.94 1 8 2.54 11.81 3.84a1.72 1.72 0 0 1 .11.29c.25.82 1.56.46 1.28-.34a.88.88 0 0 1-.05-.15z"/><path class="cls-1" d="M135.79 64.77a6.4 6.4 0 0 0 .62.2.63.63 0 0 1 .2.1.88.88 0 0 0 .05.15c.28.8-1 1.16-1.28.34a1.72 1.72 0 0 0-.11-.29c-.07-.25-.18-.53-.28-.79.29.13.54.21.8.29z"/><path class="cls-1" d="M119.64 37a19.81 19.81 0 0 0-3.74-3.66.12.12 0 0 1 .13-.19c4.38 1.85 7.89 8.34 10.4 12.28a99.87 99.87 0 0 1 10.18 19.66.63.63 0 0 0-.2-.1 6.4 6.4 0 0 1-.62-.2 34.48 34.48 0 0 0-2-5.41c-1.89-3.23-3.58-6.82-5.69-10.23a96.2 96.2 0 0 0-7.94-11.56c-.08-.1-.16-.18-.23-.28zM108.08 109H108c-1.64 0-3.28-.07-4.94-.07-2.21 0-4.59.15-7 .15a.78.78 0 0 0-1.28 0c-3.67-.07-7.33-.58-10.28-2.59a8.51 8.51 0 0 1-2.5-2.71 17.33 17.33 0 0 1-2-6.1 35.12 35.12 0 0 1-1.05-6 31.73 31.73 0 0 0 .05-3.49.38.38 0 0 0 .34 0c.66 7.51.74 18.3 10.45 19.87 5.8.92 11.62.2 17.44.38 7.35.26 14.25 1.23 20.71 3.87a41.87 41.87 0 0 1 8.53 4.77c.21.15 0 .49-.18.33-8.74-6-18-7.07-27.66-7.4a2.07 2.07 0 0 0-.07-.57.56.56 0 0 0-.48-.44z"/><path class="cls-1" d="M135.79 64.77c-.26-.08-.51-.16-.77-.26a88.74 88.74 0 0 0-8.46-16.87 115 115 0 0 0-6.66-10.35c.07.1.15.18.23.28a96.2 96.2 0 0 1 7.94 11.56c2.11 3.41 3.8 7 5.69 10.23a34.48 34.48 0 0 1 2.03 5.41z"/><path class="cls-1" d="M122.23 61.13a.32.32 0 0 0 .1.38l.16.16-.57-.24c-.36-.15-.36-.79.11-.74 4.43.41 8.74 2.41 13 3.82.1.26.21.54.28.79-3.82-1.3-7.87-2.79-11.81-3.84a4.37 4.37 0 0 0-.7-.54.38.38 0 0 0-.57.21zM132.89 78.66c.39.49-.25 1.41-1 1-4.23-2.12-9-1.64-13.38-3.1V76c4.1 1 8.56.77 12.53 2.46.1.2.23.38.33.58a.83.83 0 0 0 1.52-.38z"/><path class="cls-1" d="M131.05 78.51c-.15-.28-.31-.59-.46-.9a6.81 6.81 0 0 1 1.08.41 9.17 9.17 0 0 1 1 .41.74.74 0 0 1 .25.2.83.83 0 0 1-1.51.43c-.13-.17-.26-.35-.36-.55z"/><path class="cls-1" d="M132.89 78.63a.74.74 0 0 0-.25-.2 9.17 9.17 0 0 0-1-.41c-3-4.79-3.72-11.84-8-15.86.33.1.64.23 1 .33 4.16 4.23 4.64 11.07 8.16 15.82a.7.7 0 0 1 .09.32z"/><path class="cls-1" d="M131.64 78a6.81 6.81 0 0 0-1.08-.41C127.9 72.17 127 66 122.49 61.67l1.15.46c4.28 4.02 5 11.07 8 15.87z"/><path class="cls-1" d="M130.56 77.58c.15.31.31.62.46.9-4-1.69-8.43-1.46-12.53-2.46v-.36a.27.27 0 0 0 0-.15c3.97.41 8.25.69 12.07 2.07z"/><path class="cls-3" d="M128.38 111.24l-.43 1c-6.46-2.64-13.36-3.61-20.71-3.87-5.82-.18-11.64.54-17.44-.38-9.71-1.55-9.8-12.34-10.45-19.85a.37.37 0 0 0 .2-.28 69.52 69.52 0 0 1 3-10.1c1-3 10.94-.59 13.94-.15v1.69a.5.5 0 0 0 .85.33c.79-.61 1.56-1.23 2.28-1.84a.12.12 0 0 0 .05.1 1.26 1.26 0 0 0 .2.2h-.2c-.34 0-.34.42-.08.54 2.36 1 4.54 2.26 5.77 4.59a32.54 32.54 0 0 0-3 3.8 30.07 30.07 0 0 0-2.64 4 .44.44 0 0 0-.26.61c-.13.34.31.51.54.31 1.3.64 3 .36 2.64 2.43v.08a.35.35 0 0 0-.08.57 159.8 159.8 0 0 0 19.79 13.14 60.09 60.09 0 0 0 6.03 3.08z"/><path class="cls-4" d="M122.49 61.67c4.51 4.35 5.41 10.5 8.07 15.91-3.82-1.38-8.1-1.66-12.1-2.07-.13-1.08-2-.64-1.59.35a9.14 9.14 0 0 1 0 5.31c-2.49-.08-4.85-.82-7.28-1.08-1.28-.12-3.61-.48-4.56.65a9.73 9.73 0 0 0-2.41-1.82 27.72 27.72 0 0 0 3.67-.08c2.28-.18 4.66-.92 5.92-2.92 2.15-3.44-3.87-7.57-6.85-6a.67.67 0 0 0-.28.67 77.28 77.28 0 0 1-7.56 7.58c.18-5.25.67-10.51.54-15.76a.56.56 0 0 0-.31-.51 5.05 5.05 0 0 0 0-1.49.14.14 0 0 0-.28-.05c-.2.56-.38 1.13-.56 1.66v.08a.3.3 0 0 0-.08.21v.1a16.57 16.57 0 0 1-.83 2.1c-.49.95-1.16 1.74-1.54 2.69-4.49-4.2-6-9.74-7.51-15.53v-.05l.31-.49c.08-.1 0-.26-.15-.18-2.26 1.64-3.85 4.13-5.41 6.38-1.9 2.72-3.82 5.46-5.62 8.26a35 35 0 0 0-1.69-3.49 22.53 22.53 0 0 1-2-6.46c-.1-.56-.87-.36-.92.13V56a.18.18 0 0 0-.15 0 42.22 42.22 0 0 0-4.46 5.59c-.69 1-3.15-10.1-3.15-10.13-.67-5.94.18-11.94.77-17.84 0-.3-.44-.35-.52-.07a56.58 56.58 0 0 0-1.59 10.07c-1.71-.15-7.38 6.41-8.56 7.49a57.62 57.62 0 0 1-10.71 7.74 30.56 30.56 0 0 1 4.15-18.69c.34.2.85.15.93-.33s.15-1 .23-1.47c.34-.49.7-1 1.08-1.44a.35.35 0 0 0 .41 0c4.92-4.21 9.79-8.13 16-10.36 2.28-.82 4.23 1.16 5.84 3.95a1.09 1.09 0 0 1 .08.15c.54 1.21 1.15 2.41 1.74 3.62 1.13 2.69 2 5.35 2.54 6.69a.51.51 0 0 0 .72.31c2.33-1.24 3.9-3.26 5.82-5 1.3-1.18 7.59-6.74 9.92-3.3 1 1.51 2.15 3 3.25 4.48 2.67 3.56 4.21 7.59 6 11.64 2.49 5.84 6 11.35 6.33 17.86a.53.53 0 0 0 .69.47.71.71 0 0 0 .79-.29c6.41-8.66 7.18-24.55 1.72-34a6.86 6.86 0 0 1 4.74-.08v.1a.12.12 0 0 0-.13.19 19.81 19.81 0 0 1 3.69 3.65l.26.31a115 115 0 0 1 6.66 10.35A88.74 88.74 0 0 1 135 64.51c-4.25-1.41-8.56-3.41-13-3.82-.47 0-.47.59-.11.74z"/><path class="cls-1" d="M123.64 62.13l-1.15-.46-.16-.16a.32.32 0 0 1-.1-.38c.41.1.82.2 1.26.33a6.53 6.53 0 0 1 1.12 1c-.33-.1-.61-.23-.97-.33zM124.44 36.06l-.31.18v-.36a1.92 1.92 0 0 0 .31.18z"/><path class="cls-1" d="M124.13 36.24l.31-.18a1.92 1.92 0 0 1-.31-.18c0-5.13-2-10.84-3.23-15.74-1.21-4.13-.54-7.67-4.57-7.23a.38.38 0 0 0-.48-.2 7.87 7.87 0 0 0-1.31.51.56.56 0 0 1 .33-.57c3.75-1.48 5.36.59 6 4.11 1.18 6.71 3.92 13 3.92 19.86a.67.67 0 0 1-1 .57 26.34 26.34 0 0 0-7.74-4.19 6.86 6.86 0 0 0-4.74.08 1.38 1.38 0 0 0-.23-.38c3-1.85 9.28 1.51 12.35 3.46a2.08 2.08 0 0 1 0 .43 2.9 2.9 0 0 0 .33-.2 3.28 3.28 0 0 1 .31.2 1.63 1.63 0 0 1 .06-.35z"/><path class="cls-1" d="M124.13 35.88v.36a2.79 2.79 0 0 1-.34.18 2.48 2.48 0 0 0-.36-.23 3.76 3.76 0 0 0 0-.75c.24.18.47.31.7.44z"/><path class="cls-1" d="M124.13 36.24a1.63 1.63 0 0 0 0 .38 3.28 3.28 0 0 0-.31-.2 2.79 2.79 0 0 0 .31-.18zM124.13 35.88c-.23-.13-.46-.26-.72-.44-.21-4.71-1.56-9.15-2.79-13.69-.9-3.38-.72-7.46-4.72-8 .1-.06.18-.13.28-.18a.45.45 0 0 0 .15-.62c4-.44 3.36 3.1 4.57 7.23 1.25 4.82 3.23 10.57 3.23 15.7zM123.79 36.42a2.9 2.9 0 0 1-.33.2 2.08 2.08 0 0 0 0-.43 2.48 2.48 0 0 1 .33.23zM122.79 60.92a4.37 4.37 0 0 1 .7.54c-.44-.13-.85-.23-1.26-.33a.38.38 0 0 1 .56-.21z"/><path class="cls-1" d="M123.41 35.44a3.76 3.76 0 0 1 0 .75c-3.07-1.95-9.35-5.31-12.35-3.46 0-.06 0-.11-.08-.16a.11.11 0 0 0-.1-.08c3.76-2.23 8.97.88 12.53 2.95z"/><path class="cls-5" d="M120.62 21.75c1.23 4.54 2.58 9 2.79 13.69-3.56-2.07-8.77-5.18-12.51-2.95-.08 0-.18 0-.18.11a.6.6 0 0 0-.21.13.35.35 0 0 0 .36.61c3.08 10.33 4.61 22.76-1.87 32.12-.59-6.15-3.69-11.41-6.13-17-2.61-6-5.64-13.41-10.74-17.79-2.18-1.87-7.38 2.46-8.64 3.51-.84.69-6.23 6.79-7.3 4.44-2.08-4.52-4.36-8.85-6.2-13.44a.43.43 0 0 0-.52-.3c-7.89 1.69-14 6.33-20 11.53a.26.26 0 0 0-.07.38c-.29.29-.54.59-.8.9A33.58 33.58 0 0 1 59.15 19a2.83 2.83 0 0 0 1-4.7 9.31 9.31 0 0 0-5.35-2c2.87-2 5.79-3.9 8.61-5.95s5.89-4.74 9.36-5.12C71 4.48 72.73 11 76.42 12.09 83.19 14.17 89.29 7.81 94.06 4c.85 2.76.31 5.69 1.31 8.56a12.46 12.46 0 0 0 4.43 5.92c5.18 3.84 11.87-1.95 16.1-4.74 4 .55 3.82 4.63 4.72 8.01z"/><path class="cls-1" d="M118.49 76.58a20.08 20.08 0 0 1-.31 5.51.74.74 0 0 1-.69.54 33.47 33.47 0 0 1-6.59-.95 14.33 14.33 0 0 0-4.07-.35c-.62.07-.9.17-1.13.17a3.29 3.29 0 0 0-.39-.48c3.41-1.23 8.51 1.07 12.18.87a14.11 14.11 0 0 0 .31-5.56l.69.23zM118.49 76v.54l-.69-.23c0-.18-.06-.34-.08-.49a4.29 4.29 0 0 0 .77.18z"/><path class="cls-1" d="M117.72 75.84c0 .15 0 .31.08.49a1.58 1.58 0 0 0-.23-.11c-.39-.15-.39-.84.1-.79l.79.08a.27.27 0 0 1 0 .15V76a4.29 4.29 0 0 1-.74-.16z"/><path class="cls-1" d="M118.46 75.51l-.79-.08c-.49-.05-.49.64-.1.79a1.58 1.58 0 0 1 .23.11 14.11 14.11 0 0 1-.31 5.56c-3.67.2-8.77-2.1-12.18-.87-.07-.11-.18-.18-.25-.28 1-1.13 3.28-.77 4.56-.65 2.43.26 4.79 1 7.28 1.08-.05.18-.08.36-.13.54.23-.18.46-.36.72-.54h-.59a9.14 9.14 0 0 0 0-5.31c-.44-.99 1.43-1.43 1.56-.35z"/><path class="cls-1" d="M117.49 81.17c-.26.18-.49.36-.72.54 0-.18.08-.36.13-.54zM116.33 12.91a.45.45 0 0 1-.15.62c-.1.05-.18.12-.28.18a4 4 0 0 0-.87-.08.41.41 0 0 1-.44-.38 7.87 7.87 0 0 1 1.31-.51.38.38 0 0 1 .43.17z"/><path class="cls-1" d="M115 13.6a4 4 0 0 1 .87.08c-4.23 2.79-10.92 8.58-16.1 4.74a12.46 12.46 0 0 1-4.43-5.92c-1-2.87-.46-5.8-1.31-8.56.08-.06.15-.13.23-.18a.39.39 0 0 0 0-.59.5.5 0 0 1 .56 0c1.08.72 1.21 1.56 1.24 2.87 0 3.31.74 7.1 3.17 9.59 5.26 5.38 10.2-.1 15.28-2.41a.41.41 0 0 0 .49.38zM106 70.41a.34.34 0 0 0-.56-.13c-.1.13-.21.23-.31.36a.67.67 0 0 1 .28-.67c3-1.62 9 2.51 6.85 6-1.26 2-3.64 2.74-5.92 2.92a27.72 27.72 0 0 1-3.67.08 6.65 6.65 0 0 0-2.75-.83 1.26 1.26 0 0 1-.2-.2.12.12 0 0 1-.05-.1 2.43 2.43 0 0 0 .28-.2c1.23-.44 2.77.16 4 .18 1.87 0 4.1 0 5.74-1 2.44-1.54 1.33-4.18-.9-5.3a3.35 3.35 0 0 0-2.89-.26.3.3 0 0 1-.29 0c.13-.16.24-.31.34-.46a.26.26 0 0 0 .05-.39zM111.31 33.11c5.46 9.46 4.69 25.35-1.72 34a.71.71 0 0 1-.79.29.46.46 0 0 0 .28-.47 1.83 1.83 0 0 0 0-.33c6.4-7.82 6.15-24.4 2-33.4a.54.54 0 0 1 .23-.09z"/><path class="cls-1" d="M111.11 33.21c4.1 9 4.35 25.58-2 33.4a8.89 8.89 0 0 0-.08-1.15c6.48-9.36 5-21.79 1.87-32.12zM111.31 33.11a.54.54 0 0 0-.2.1 3 3 0 0 0-.18-.36c0-.05.1-.07.15-.12a1.38 1.38 0 0 1 .23.38z"/><path class="cls-1" d="M111.11 33.21l-.26.13a1.71 1.71 0 0 0-.1-.36.49.49 0 0 1 .18-.13 3 3 0 0 1 .18.36z"/><path class="cls-1" d="M110.93 32.85a.49.49 0 0 0-.18.13l-.08-.28v-.1a.67.67 0 0 1 .18-.11.11.11 0 0 1 .1.08s0 .1.08.16-.03.07-.1.12z"/><path class="cls-1" d="M110.7 32.6c0-.08.1-.13.18-.11a.67.67 0 0 0-.18.11zM110.75 33a1.71 1.71 0 0 1 .1.36.35.35 0 0 1-.36-.61.6.6 0 0 1 .21-.13v.1z"/><path class="cls-6" d="M108.77 71.41c2.23 1.12 3.34 3.76.9 5.3-1.64 1-3.87 1-5.74 1-1.26 0-2.8-.62-4-.18a30.63 30.63 0 0 0 5.69-6.38.3.3 0 0 0 .29 0 3.35 3.35 0 0 1 2.86.26z"/><path class="cls-1" d="M109.13 117.24c0 1.48.28 5.17-1.43 6-2.13 1.1-3.82-2.1-4.49-3.59-.74-1.69-1.33-3.43-2-5.1s-2.21-3.07-2.52-4.84a1.57 1.57 0 0 0 .29 0A37.36 37.36 0 0 0 101 113c1.3 2.46 2.64 8.15 4.92 9.66 4 2.54 2.25-9.49 2.1-12.69a4.16 4.16 0 0 0 .61 0 37.77 37.77 0 0 1 .5 7.27zM108.57 66a5.75 5.75 0 0 0 .41-.56 8.89 8.89 0 0 1 .08 1.15 1.83 1.83 0 0 1 0 .33.46.46 0 0 1-.28.47c-.46-.11-.82-.57-.46-1a4.06 4.06 0 0 0 .25-.39z"/><path class="cls-1" d="M109 65.46a5.75 5.75 0 0 1-.41.56c-.08-3.59-1.82-7.89-3.41-11-2.46-4.74-4.15-9.84-6.61-14.58A77.51 77.51 0 0 0 94 34c-1.89-2.46-1.69-3.79-4.71-2.66-2.46.76-5 2.84-7 4.56-1.69 1.31-3.79 4.36-5.69 4.92-.87-2.26-1.94-4.41-3-6.56a33.53 33.53 0 0 0-1.74-3.62 1.09 1.09 0 0 0-.08-.15 47.54 47.54 0 0 1-2.18-5.2c-7.63 1.1-14 6.25-19.6 11.12a.15.15 0 0 1 0-.08c.07-.07 0-.18-.08-.1s-.38.36-.56.56a.26.26 0 0 1 .07-.38c6-5.2 12.13-9.84 20-11.53a.43.43 0 0 1 .52.3c1.84 4.59 4.12 8.92 6.2 13.44 1.07 2.35 6.46-3.75 7.3-4.44 1.26-1 6.46-5.38 8.64-3.51 5.1 4.38 8.13 11.79 10.74 17.79 2.46 5.59 5.56 10.85 6.17 17z"/><path class="cls-1" d="M108.77 67.41a.53.53 0 0 1-.69-.47c-.28-6.51-3.84-12-6.33-17.86-1.74-4-3.28-8.08-6-11.64-1.1-1.49-2.2-3-3.25-4.48-2.33-3.44-8.62 2.12-9.92 3.3-1.92 1.72-3.49 3.74-5.82 5a.51.51 0 0 1-.72-.31c-.56-1.34-1.41-4-2.54-6.69 1.06 2.15 2.13 4.3 3 6.56 1.9-.56 4-3.61 5.69-4.92 2.08-1.72 4.57-3.8 7-4.56 3-1.13 2.82.2 4.71 2.66a77.51 77.51 0 0 1 4.57 6.44c2.46 4.74 4.15 9.84 6.61 14.58 1.59 3.13 3.33 7.43 3.41 11a4.06 4.06 0 0 1-.26.36c-.23.46.08.92.54 1.03zM108 109.93h-.64c0-.18 0-.34.08-.52a.51.51 0 0 1 .56-.41h.08a.56.56 0 0 1 .49.41 2.07 2.07 0 0 1 .07.57 4.16 4.16 0 0 1-.64-.05z"/><path class="cls-1" d="M108 109.93c.15 3.2 1.87 15.23-2.1 12.69-2.28-1.51-3.62-7.2-4.92-9.66a37.36 37.36 0 0 1-1.98-3.21h.41a24.2 24.2 0 0 1 3.71 7c.36.93 3.82 8.49 4.64 4.46.75-3.74-.79-7.61-.33-11.27.16-.01.4-.01.57-.01z"/><path class="cls-7" d="M107.39 109.91c-.46 3.66 1.08 7.53.33 11.27-.82 4-4.28-3.53-4.64-4.46a24.2 24.2 0 0 0-3.71-7c2.69.11 5.38.13 8.02.19z"/><path class="cls-1" d="M108 109a.51.51 0 0 0-.53.41c0 .18-.06.34-.08.52-2.64-.06-5.33-.08-8-.16a4.86 4.86 0 0 0-.54-.66.13.13 0 0 0-.23.07 2.07 2.07 0 0 0 .07.57c-.79 0-1.59 0-2.38-.08-.05-.16-.13-.31-.2-.49s-.06-.07-.06-.1c2.44 0 4.82-.15 7-.15 1.67-.02 3.31 0 4.95.07zM105.8 82.81c-.15.15-.28.31-.41.46-1.23-2.33-3.41-3.59-5.77-4.59-.26-.12-.26-.54.08-.54h.2a4.73 4.73 0 0 0 2.75.83 9.73 9.73 0 0 1 2.35 1.77 1.74 1.74 0 0 0-.2.3c-.08.13 0 .23.1.29a1.43 1.43 0 0 0 .77.17 4.6 4.6 0 0 1 .74 1.26.37.37 0 0 1 0 .23c-.08-.28-.41-.46-.64-.2zM106.47 83a.54.54 0 0 1-.11.33 37.27 37.27 0 0 0-3.48 4.67 33.8 33.8 0 0 1-1.88 3 4.18 4.18 0 0 0-.61-.05 72.51 72.51 0 0 1 5.36-7.51.63.63 0 0 0 .72-.44z"/><path class="cls-1" d="M105.7 83.48a.37.37 0 0 1-.31-.21c.13-.15.26-.31.41-.46.23-.26.56-.08.64.2a.63.63 0 0 1-.74.47zM106 70.41a.26.26 0 0 1 0 .28c-.1.15-.21.3-.34.46a.58.58 0 0 1-.35-.13l.3-.38a1.2 1.2 0 0 1 .39-.23z"/><path class="cls-1" d="M105.54 70.64l-.3.38a.32.32 0 0 1-.13-.28v-.07c.1-.13.21-.23.31-.36a.34.34 0 0 1 .56.13 1.2 1.2 0 0 0-.44.2zM105.31 81a3.29 3.29 0 0 1 .39.48 1.43 1.43 0 0 1-.77-.17c-.13-.06-.18-.16-.1-.29a1.74 1.74 0 0 1 .2-.3s.21.19.28.28zM105.39 83.27a.37.37 0 0 0 .31.21 72.51 72.51 0 0 0-5.36 7.52 3.47 3.47 0 0 0-.44 0 .25.25 0 0 0-.15.06 30.07 30.07 0 0 1 2.64-4 32.54 32.54 0 0 1 3-3.79z"/><path class="cls-1" d="M105.24 71a.58.58 0 0 0 .35.13 30.63 30.63 0 0 1-5.69 6.38.54.54 0 0 0-.21 0s-.07.08-.07.15c-.72.61-1.49 1.23-2.28 1.84a.5.5 0 0 1-.85-.33v-1.69H97v1l-.34.26.34.15v.21l.18-.15.33.15a2.82 2.82 0 0 1 0-.41 44.07 44.07 0 0 0 7.73-7.69z"/><path class="cls-1" d="M105.21 71a44.07 44.07 0 0 1-7.75 7.87 5 5 0 0 1 0-.67 77.28 77.28 0 0 0 7.56-7.58v.07a.32.32 0 0 0 .19.31zM100.47 91.6a3.11 3.11 0 0 0 .53-.6c1.8.31 3.34 1.84 2.75 3.74a.29.29 0 0 1-.13.18l-.56-.41a.26.26 0 0 0-.33 0v-.08c.27-2.03-1.42-1.75-2.73-2.43a3.81 3.81 0 0 0 .47-.4z"/><path class="cls-1" d="M103.19 95.17a.54.54 0 0 1-.54-.62.26.26 0 0 1 .33 0l.56.41a.34.34 0 0 1-.33.21zM100.34 91a4.18 4.18 0 0 1 .66 0 3.11 3.11 0 0 1-.48.56c-.16 0-.33-.07-.49-.1a5.3 5.3 0 0 0 .31-.46z"/><path class="cls-1" d="M100 91.5c.16 0 .33.08.49.1a3.81 3.81 0 0 1-.49.4 1.38 1.38 0 0 1-.34-.18.77.77 0 0 1-.18-.18c.08-.2.16-.41.26-.61a.25.25 0 0 1 .16-.03 3.47 3.47 0 0 1 .44 0 5.3 5.3 0 0 1-.34.5zM99.85 78.09a6.65 6.65 0 0 1 2.75.83 4.73 4.73 0 0 1-2.75-.83z"/><path class="cls-1" d="M100 92c-.23.2-.67 0-.54-.31a.77.77 0 0 0 .18.18 1.38 1.38 0 0 0 .36.13zM99.67 77.61a.54.54 0 0 1 .21 0 2.43 2.43 0 0 1-.28.2c0-.12.02-.18.07-.2zM99.75 91.07c-.1.2-.18.41-.26.61a.44.44 0 0 1 .26-.61zM99 109.75a1.57 1.57 0 0 1-.29 0 2.07 2.07 0 0 1-.07-.57.13.13 0 0 1 .23-.07 4.86 4.86 0 0 1 .54.66zM98.06 62.46c.13 5.25-.36 10.51-.54 15.76a4.71 4.71 0 0 1-.56.44v-1c.59 0 .57-.89 0-1.1.07-4.36.38-8.69.41-13a.06.06 0 0 0 0-.08 6.23 6.23 0 0 0 .38-1.48.56.56 0 0 1 .31.46zM97.42 61.87a.65.65 0 0 0-.46.2c.18-.53.36-1.1.56-1.66a.14.14 0 0 1 .28.05 5.05 5.05 0 0 1 0 1.49.7.7 0 0 0-.38-.08z"/><path class="cls-1" d="M97.42 63.41a.06.06 0 0 1 0 .08 9.38 9.38 0 0 1-.69 1.63v-1.38a10.59 10.59 0 0 0 .64-1.87.7.7 0 0 1 .33.08 6.23 6.23 0 0 1-.28 1.46zM97.52 78.22a5 5 0 0 0 0 .67l-.35.26c-.06 0-.13 0-.18-.06v-.43a4.71 4.71 0 0 0 .53-.44z"/><path class="cls-1" d="M97.49 78.89a2.82 2.82 0 0 0 0 .41l-.33-.15zM97.14 79.15l-.14.15v-.21c0 .03.08.03.14.06zM97 76.53c.54.21.56 1.08 0 1.1v-1.1zM97 62.07a.65.65 0 0 1 .46-.2 10.59 10.59 0 0 1-.64 1.87v-1.28-.1l.08-.21s.1-.05.1-.08zM97.42 63.49c0 4.35-.34 8.68-.41 13a.49.49 0 0 0-.16 0h-.41c0-3.77.13-7.54.29-11.31a9.38 9.38 0 0 0 .69-1.69z"/><path class="cls-1" d="M96.44 77v-.59h.41a.49.49 0 0 1 .16 0v1.1h-.54zM97 78.68v.41l-.34-.15zM96.93 62.15l-.08.21a.3.3 0 0 1 .08-.21zM96.83 62.46v1.28a16.47 16.47 0 0 1-2.16 3.67 1.37 1.37 0 0 1-.2-.21c.38-1 1-1.74 1.54-2.69a16.57 16.57 0 0 0 .82-2.05z"/><path class="cls-1" d="M96.78 63.74v1.38a7.53 7.53 0 0 1-1.93 2.52v-.08l-.16-.15a16.47 16.47 0 0 0 2.09-3.67zM96.29 109.65c2 4.2 1.36 6.51-1.54 8.59a1 1 0 0 0 0-.18.32.32 0 0 0-.62 0c0 .23-.12.48-.15.71a23.82 23.82 0 0 1-2.56 1.39 39.15 39.15 0 0 1-13.05 3.56c-.1-.2-.2-.43-.31-.64-.18-.44-.94-.13-.77.33l.18.41a38.61 38.61 0 0 1-5.56.23.34.34 0 0 0-.36-.2 5.13 5.13 0 0 0-.77.18c-1.56 0-3.07-.13-4.53-.28a49.17 49.17 0 0 1-9.72-1.54v-.67a.46.46 0 0 0-.92 0 1.31 1.31 0 0 1 0 .34 6.88 6.88 0 0 1-3.61-2.72c-2.25-4 3.1-4.82 5.28-7a1.94 1.94 0 0 0 .49.41c-1.13 1.74-6.41 2.67-5.59 5.33.54 1.49 2.79 2.57 5.08 3.28a.7.7 0 0 0 .82.23c1.54.44 3 .74 3.92.92a57.49 57.49 0 0 0 19.54-.13c.56-.07 1.12-.2 1.69-.3a.61.61 0 0 0 .82-.21 32.56 32.56 0 0 0 10.23-4.15c3.74-2.36 2.81-4.56 1.07-7.95.32.03.65.06.94.06z"/><path class="cls-6" d="M96.73 65.12c-.16 3.77-.29 7.54-.29 11.31-2.53-.31-5-.64-7.56-.85-1.82-.15-5.28-.61-6.94.39-1 .59-1.57 3.69-2 4.74-.16.38-.28.77-.41 1.15a.49.49 0 0 0-.34 0c-6.71 1.36-13.35-1.49-19.61-3.54C54 76.45 37.46 69 47.49 62.05a.5.5 0 0 0 0-.8 17.67 17.67 0 0 1 .15-3.84c5.28-3.61 9.92-8.12 14.49-12.63-.28 6.51.69 13.12 3.64 18.76a.45.45 0 0 0 .77 0 78.24 78.24 0 0 1 4.74-6.82c0 3.59 2.46 7.54 4.43 10.31.21.25.67.15.69-.13a77 77 0 0 0 4.92-7.17c1.59-2.49 3.46-4.82 5-7.28C87 58 89.6 64.28 94.21 67.74a.16.16 0 0 0 .23.15h.06a.21.21 0 0 0 .3-.3 7.53 7.53 0 0 0 1.93-2.47zm-13.59 7.26c4.69-1.26 3.92-9.69 1.59-12.61a.6.6 0 0 0-.74-.08c-3.75 2.18-4.52 9.69-1.54 12.82a.38.38 0 0 0 .59-.1.14.14 0 0 0 .1-.03zm-24.43-6c1.54-2.52 2.77-6.46 1.49-9.31s-3.26-1.2-4.2.93a15.41 15.41 0 0 0-1.49 7.75.33.33 0 0 0-.1.33c.07 1 .56 2.28 1.76 2.31s1.98-1.06 2.54-1.98z"/><path class="cls-1" d="M96.44 77v.59c-3-.44-12.89-2.85-13.94.15a69.52 69.52 0 0 0-3 10.1.37.37 0 0 1-.2.28v-.3a.34.34 0 0 0-.23-.34 20 20 0 0 1 .9-4.66.46.46 0 0 0 .07-.26c.67-2.08 1.52-4.1 2.16-6.1 4.68-1.11 9.58.07 14.24.54z"/><path class="cls-1" d="M96.44 76.43V77c-4.66-.49-9.56-1.67-14.22-.54-.64 2-1.49 4-2.16 6.1a.68.68 0 0 0-.48-.72c.13-.38.25-.77.41-1.15.38-1 .92-4.15 2-4.74 1.66-1 5.12-.54 6.94-.39 2.49.23 4.98.56 7.51.87zM96.09 109.16c.07.18.15.33.2.49h-1a7.86 7.86 0 0 1-.84 0 .73.73 0 0 1 .23-.54h1.28s.1 0 .13.05zM96 109.06h-1.28a.78.78 0 0 1 1.28 0z"/><path class="cls-1" d="M95.34 109.62c1.74 3.39 2.67 5.59-1.07 7.95A32.56 32.56 0 0 1 84 121.72a.2.2 0 0 0 0-.13 3 3 0 0 0 0-.79c7.41-1.51 13.54-4.59 10.51-10.74a.87.87 0 0 1-.07-.49 7.86 7.86 0 0 0 .84 0zM94.75 118.24c1.1 3.84.72 8.51.75 12.5 0 2.9.1 6-.18 9l-.57.15a.21.21 0 0 0-.13 0c.59-7.69-.15-18.74-.23-21.43z"/><path class="cls-1" d="M95.24 140.49v.56a2.74 2.74 0 0 1-.28 0 .69.69 0 0 1-.41 0c0-.36.07-.74.12-1.15a.21.21 0 0 1 .13 0l.57-.15c-.08.25-.11.48-.13.74z"/><path class="cls-1" d="M94.91 141.1a2.74 2.74 0 0 0 .28 0 26.52 26.52 0 0 1-1.13 5c-1.1 3.12-2.72 1.95-4.41.2a20.32 20.32 0 0 1-2.65-3.64c.54-.3.18-1.25-.51-1.12h-.13c-1.49-2.61-2.72-5.48-4-7.84-1.75-3.26-3.51-6.51-5-9.9a1.24 1.24 0 0 0 .44 0c1.38 3.26 3.28 6.56 5 9.69 2.43 4.18 4.48 8.49 7.23 12.41.46.64 1.25 1.07 1.56 1.74 1.61.26 2.48-2.56 2.9-6.56a.69.69 0 0 0 .42.02z"/><path class="cls-8" d="M94.57 110.06c3 6.15-3.1 9.23-10.51 10.74-.23-1.9-2.15-3.87-3.23-5.18-1.36-1.61-.15-3 .44-5a20 20 0 0 0 .77-6.35c1.96 2.79 4.96 4.73 9.51 5.1 1 .07 2 .15 3 .2a.87.87 0 0 0 .02.49z"/><path class="cls-1" d="M94.8 67.64a.21.21 0 0 1-.3.3h-.06a2.39 2.39 0 0 0 .36-.3zM94.44 67.61a.68.68 0 0 0 .18-.2l.16.15v.08a2.39 2.39 0 0 1-.33.25l-.23-.15.08-.21a.58.58 0 0 0 .14.08zM94.39 118.47l-.46.3c0-.23.1-.48.15-.71a.32.32 0 0 1 .62 0 1 1 0 0 1 0 .18z"/><path class="cls-1" d="M94.39 118.47c.08 2.69.82 13.74.23 21.43a.61.61 0 0 0-.12 1.15c-.42 4-1.29 6.82-2.9 6.56-.31-.67-1.1-1.1-1.56-1.74-2.75-3.92-4.8-8.23-7.23-12.41-1.67-3.13-3.57-6.43-5-9.69a1.44 1.44 0 0 0 .46 0 181.57 181.57 0 0 0 10 18.43c.23.36.46.75.72 1.1a.52.52 0 0 0 .23.8 1.28 1.28 0 0 0 .44.15c1.48 2 3.1 3.15 3.79-.2a.73.73 0 0 0 .23-1.34 44.78 44.78 0 0 0 .41-4.89c.21-5.85-1.46-13.23-.18-19zM94.62 67.41a.68.68 0 0 1-.18.2.58.58 0 0 1-.15-.13 1.2 1.2 0 0 1 .13-.28 1.37 1.37 0 0 0 .2.21zM94.73 109a.73.73 0 0 0-.23.54c-1 0-2-.13-3-.2-4.5-.34-7.5-2.28-9.5-5.02a1.93 1.93 0 0 0 0-.34.25.25 0 0 0-.08-.2 8.51 8.51 0 0 0 2.49 2.66c2.99 2.01 6.65 2.56 10.32 2.56z"/><path class="cls-1" d="M94.62 139.9c-.05.41-.07.79-.12 1.15a.61.61 0 0 1 .12-1.15zM94.44 67.89a.16.16 0 0 1-.23-.15zM94.42 67.2a1.2 1.2 0 0 0-.13.28C89.86 64 87.57 57.43 86.65 52a1 1 0 0 0 .23-.33v.05c1.59 5.74 3.05 11.28 7.54 15.48zM94.29 3.2a.39.39 0 0 1 0 .59c-.08 0-.15.12-.23.18a1.42 1.42 0 0 1 0-.16.5.5 0 0 1 .23-.61z"/><path class="cls-1" d="M94.29 67.48l-.08.21C89.6 64.28 87 58 86.4 52.39a1.61 1.61 0 0 0 .25-.44c.92 5.48 3.21 12.05 7.64 15.53z"/><path class="cls-9" d="M93.93 118.77c-1.28 5.77.39 13.15.18 19a44.78 44.78 0 0 1-.41 4.89.57.57 0 0 0-.36-.1 36.34 36.34 0 0 0-3.77.26.69.69 0 0 0-.56.43c-.26-.35-.49-.74-.72-1.1a181.57 181.57 0 0 1-10-18.43 39.15 39.15 0 0 0 13.05-3.56 23.82 23.82 0 0 0 2.59-1.39z"/><path class="cls-1" d="M93.78 3.12a.39.39 0 0 1 .51.08.5.5 0 0 0-.28.61 1.42 1.42 0 0 0 0 .16c-4.77 3.84-10.87 10.2-17.64 8.12C72.73 11 71 4.48 72.79 1.2a.41.41 0 0 0 .28-.52.7.7 0 0 1 1.28.54c-.9 5.05.36 11.25 7.18 9.2 4.69-1.42 8.33-4.61 12.25-7.3zM93.7 142.66a.73.73 0 0 1-.23 1.34c0-.13 0-.26.08-.39z"/><path class="cls-1" d="M93.7 142.66l-.15 1c0 .13 0 .26-.08.39a.25.25 0 0 1-.13 0c-1.15.08-2.51.49-3.66.18-.23-.31-.46-.61-.67-.95a.69.69 0 0 1 .56-.43 36.34 36.34 0 0 1 3.77-.26.57.57 0 0 1 .36.07z"/><path class="cls-10" d="M93.34 144a.25.25 0 0 0 .13 0c-.69 3.35-2.31 2.18-3.79.2 1.15.31 2.51-.1 3.66-.2z"/><path class="cls-1" d="M89.68 144.2a1.28 1.28 0 0 1-.44-.15.52.52 0 0 1-.23-.8c.21.34.44.64.67.95zM86.7 51.49a.28.28 0 0 0-.38.28.39.39 0 0 0 0 .15c-3.61 4.18-6.66 9.64-10.1 14.31a3.89 3.89 0 0 0-.23-.62c1.8-2.8 3.72-5.54 5.62-8.26 1.58-2.27 3.17-4.76 5.39-6.35.1-.08.23.08.15.18l-.31.49a.18.18 0 0 0-.14-.18zM86.5 141.54c.69-.13 1 .82.51 1.12a5.1 5.1 0 0 1-.33-.53 4.4 4.4 0 0 1-.31-.57z"/><path class="cls-1" d="M86.68 142.13a5.1 5.1 0 0 0 .33.53 1 1 0 0 0-.18.05c-8.35 1.85-17.79 3.16-25.76-.74a2 2 0 0 1 .15-.26 14.17 14.17 0 0 0 .72-1.31h.08c7.64 3.56 16.35 2.51 24.4 1.15a4.4 4.4 0 0 0 .26.58zM86.65 52a1.61 1.61 0 0 1-.25.44 2.52 2.52 0 0 1-.06-.47 5.12 5.12 0 0 1 .36-.43.18.18 0 0 1 .18.13 1 1 0 0 1-.23.33zM86.7 51.49a5.12 5.12 0 0 0-.36.43.39.39 0 0 1 0-.15.28.28 0 0 1 .36-.28z"/><path class="cls-1" d="M86.34 51.92a2.52 2.52 0 0 0 .06.47c-1.57 2.46-3.44 4.79-5 7.28a77 77 0 0 1-4.92 7.17v-.13c0-.06-.1-.33-.16-.48 3.36-4.67 6.41-10.13 10.02-14.31zM84.29 60.2c2.16 2.41 2.41 10.44-1.29 11.51v.08c-.08-.23-.13-.46-.21-.72 2-1 2.49-3 2.49-5.12 0-.42-.8-5-1-5-3.13 2.33-2.38 6.71-1.46 10.07 0 0-.08 0-.1.05a.66.66 0 0 0-.34.34c-1.57-3.24-1.52-9.49 1.91-11.21z"/><path class="cls-1" d="M83 71.71c3.74-1.07 3.49-9.1 1.33-11.51-3.43 1.72-3.48 8-2 11.26a.75.75 0 0 0 .75.93.38.38 0 0 1-.59.1c-3-3.13-2.21-10.64 1.54-12.82a.6.6 0 0 1 .74.08c2.33 2.92 3.1 11.35-1.59 12.61a.14.14 0 0 1-.1 0 .57.57 0 0 0 0-.26c0-.13-.08-.23-.1-.36z"/><path class="cls-1" d="M84.19 61c.23 0 1 4.53 1 5 0 2.1-.54 4.15-2.49 5.12-.89-3.41-1.64-7.79 1.49-10.12zM83.4 120.93a6.38 6.38 0 0 1 .66-.13 3 3 0 0 1 0 .79.2.2 0 0 1 0 .13 8.22 8.22 0 0 1-.82.21.37.37 0 0 1-.23-.21c-.11-.23-.23-.43-.36-.66a5 5 0 0 1 .75-.13z"/><path class="cls-1" d="M83.4 120.93a5 5 0 0 0-.77.13 29.63 29.63 0 0 0-3.72-5.93.57.57 0 0 1-.08-.64c1.88-3.23 2.34-6.87 2.64-10.51 0-.12.11-.23.21-.23a3.67 3.67 0 0 0 .36.57 20 20 0 0 1-.77 6.35c-.59 1.93-1.8 3.34-.44 5 1.08 1.31 3 3.28 3.23 5.18a6.38 6.38 0 0 0-.66.08zM83.22 121.93a8.22 8.22 0 0 0 .82-.21.61.61 0 0 1-.82.21z"/><path class="cls-1" d="M83 121.72a.37.37 0 0 0 .23.21c-.57.1-1.13.23-1.69.3a57.49 57.49 0 0 1-19.54.13c-.89-.18-2.38-.48-3.92-.92a.63.63 0 0 0 .28-.26c.11-.15.18-.3.29-.46A36.4 36.4 0 0 0 66.2 122a82.11 82.11 0 0 0 16.43-1c.13.29.25.49.37.72z"/><path class="cls-2" d="M82.4 133.72c1.25 2.36 2.48 5.23 4 7.84-8.05 1.36-16.76 2.41-24.4-1.15h-.08c3-5.33 5.43-12 9.9-16.07a.21.21 0 0 0 .07-.26 38.61 38.61 0 0 0 5.56-.23c1.44 3.36 3.2 6.61 4.95 9.87z"/><path class="cls-1" d="M83 72.15a.57.57 0 0 1 0 .26.75.75 0 0 1-.75-.93 6.17 6.17 0 0 0 .41.77l.24-.46c.1.13.1.21.1.36z"/><path class="cls-1" d="M82.94 71.79l-.24.46a6.17 6.17 0 0 1-.41-.77.66.66 0 0 1 .34-.34s.07 0 .1-.05c.08.24.13.47.21.7zM82 104a1.93 1.93 0 0 1 0 .34 3.67 3.67 0 0 1-.36-.57.2.2 0 0 1 .28 0 .25.25 0 0 1 .08.23z"/><path class="cls-1" d="M82 103.78a.2.2 0 0 0-.28 0c-2.67-4.25-3.1-10.28-3.1-15.91v-.06a.53.53 0 0 0 .43.41 31.73 31.73 0 0 1-.05 3.49 35.12 35.12 0 0 0 1.05 6 17.33 17.33 0 0 0 1.95 6.07z"/><path class="cls-8" d="M81.68 103.75c-.1 0-.18.11-.21.23-.3 3.64-.76 7.28-2.64 10.51a.57.57 0 0 0 .08.64 29.63 29.63 0 0 1 3.72 5.93 82.11 82.11 0 0 1-16.43 1 36.4 36.4 0 0 1-7.56-1.31 59 59 0 0 1 4.53-6.75.73.73 0 0 0 .1-.85c-4.28-9-3.87-22.58 1.44-31.2.56.16 1.15.29 1.72.44A51.34 51.34 0 0 0 70 88.86c-.26.28-.52.56-.77.85-.93 1-3.13 3-3 4.48a.72.72 0 0 0 .46.62c.69 1.87 1.69 3.72 2.51 5.54a1.09 1.09 0 0 0 .08.15 17.92 17.92 0 0 0-3.88 5 1 1 0 0 0 .36 1.13 6.88 6.88 0 0 0 1.08 2c.59.87 1.38 2.36 2.35 2.82a.81.81 0 0 0 1-.31h.05a3.09 3.09 0 0 0 .69-.93 7.32 7.32 0 0 1 1.31-1.48 10.6 10.6 0 0 0 2-2 .45.45 0 0 0-.07-.54c-.51-1.9-1.95-3.44-3.12-5.08.43-.51.82-1 1.2-1.59 1-1.41 2.59-3.07 2.61-4.94a.6.6 0 0 0-.56-.62 34.14 34.14 0 0 0-3-4.77c1.44-1.72 3-3.62 3.72-5.69a25.89 25.89 0 0 0 4-.29 14 14 0 0 0-.61 4.59v.11c.17 5.56.59 11.59 3.27 15.84z"/><path class="cls-1" d="M79.37 82.45c.08-.18.13-.38.21-.59a.68.68 0 0 1 .48.72.46.46 0 0 1-.07.26.54.54 0 0 1-.39.25 1.92 1.92 0 0 1-.41 0c.05-.18.13-.41.18-.64z"/><path class="cls-1" d="M79.6 83.09a.54.54 0 0 0 .39-.25 20 20 0 0 0-.9 4.66.37.37 0 0 0-.51.28 14 14 0 0 1 .61-4.59 1.92 1.92 0 0 0 .41-.1zM79.24 81.84a.49.49 0 0 1 .34 0c-.08.21-.13.41-.21.59a15.42 15.42 0 0 1-4.05.41.33.33 0 0 0-.62-.1.35.35 0 0 1-.05.08 38.71 38.71 0 0 1-11.48-2.49c-2.44-.95-5-1.64-7.49-2.56a14.7 14.7 0 0 1-2.1-.93.8.8 0 0 0-.9-.48c-1.41-.82-2.71-1.8-4.12-2.69a36 36 0 0 1-3.77-2.36.5.5 0 0 0-.13-.36 4.72 4.72 0 0 0-1.33-1.12 3.4 3.4 0 0 1-.59-2.11c.1-2 2.92-5.25 4.56-6.07.11.13.31 0 .29-.18s0-.13 0-.21a.5.5 0 0 1 0 .8c-10 7 6.53 14.4 12.14 16.25 6.16 2.04 12.8 4.89 19.51 3.53z"/><path class="cls-1" d="M79.09 87.5a.34.34 0 0 1 .23.34v.3a.38.38 0 0 1-.34 0 .53.53 0 0 1-.43-.41.37.37 0 0 1 .54-.23zM79.37 82.45c-.05.23-.13.46-.18.69a25.89 25.89 0 0 1-4 .29 3.84 3.84 0 0 0 .11-.43.47.47 0 0 0 0-.16 15.42 15.42 0 0 0 4.07-.39zM77.86 123.77a1.24 1.24 0 0 1-.44 0l-.18-.41c-.17-.46.59-.77.77-.33.11.21.21.44.31.64a1.44 1.44 0 0 1-.46.1zM75.68 66.07c.1-.15.21-.3.33-.46a3.89 3.89 0 0 1 .23.62c.06.15.11.33.16.48s0 .08 0 .13c-.38.43-1.15-.16-.82-.67a.91.91 0 0 0 .1-.1z"/><path class="cls-1" d="M75.68 66.07a.91.91 0 0 1-.08.13c-.33.51.44 1.1.82.67 0 .28-.48.38-.69.13-2-2.77-4.38-6.72-4.43-10.31l.25-.33c.13-.18-.07-.36-.23-.36v-.23c.05-.49.82-.69.92-.13a22.53 22.53 0 0 0 2 6.46A35 35 0 0 1 76 65.59l-.32.48zM74.76 83.43a2.22 2.22 0 0 1-.44 0 2.57 2.57 0 0 0 .31-.56h.67a.47.47 0 0 1 0 .16 3.84 3.84 0 0 1-.13.41zM75.3 82.86h-.67a.35.35 0 0 0 .05-.08.33.33 0 0 1 .62.08z"/><path class="cls-1" d="M74.76 83.43h.41c-.67 2.07-2.28 4-3.72 5.69a6.75 6.75 0 0 0-.41-.57c1.31-1.55 2.96-3.38 3.72-5.12z"/><path class="cls-1" d="M74.32 83.4a2.22 2.22 0 0 0 .44 0C74 85.17 72.35 87 71 88.55l-.31-.46a25 25 0 0 0 3.63-4.69zM74.63 82.84a2.57 2.57 0 0 1-.31.56 35 35 0 0 1-6.74-.79c-.13-.23-.26-.49-.39-.74a.41.41 0 0 0-.43-.21s-.11-.1-.13 0a.07.07 0 0 0 0 .07.44.44 0 0 0-.18.59v.08c-.57-.15-1.16-.28-1.72-.44l.23-.39c.13-.2-.18-.38-.31-.17l-.3.46c-.82-.23-1.64-.52-2.46-.8l.15-.28c.28-.51-.49-1-.77-.46-.08.15-.18.28-.26.43a64.39 64.39 0 0 1-7.46-3.28.55.55 0 0 0 0-.54 14.7 14.7 0 0 0 2.1.93c2.46.92 5.05 1.61 7.49 2.56a38.71 38.71 0 0 0 11.49 2.42zM74.3 94.73a.57.57 0 0 0 .2-.72v-.1a.6.6 0 0 1 .56.62c0 1.87-1.58 3.53-2.61 4.94-.38.54-.77 1.08-1.2 1.59-.16-.25-.34-.49-.49-.74a10.33 10.33 0 0 0 1-1.26c.56-.82 2.41-3.12 2.54-4.33z"/><path class="cls-1" d="M74.3 94.73a.46.46 0 0 1-.69-.15 1.06 1.06 0 0 0 0-.23.46.46 0 0 1 .23-.36.59.59 0 0 1 .56-.1v.1a.57.57 0 0 1-.1.74zM74.35 106.14a.45.45 0 0 1 .07.54 10.6 10.6 0 0 1-2 2 7.32 7.32 0 0 0-1.31 1.48 3.09 3.09 0 0 1-.69.93h-.05a.52.52 0 0 0 0-.49l-.23-.46a12.45 12.45 0 0 1 3.44-3.38.51.51 0 0 0 .82-.51 1.21 1.21 0 0 1-.05-.11z"/><path class="cls-1" d="M74.45 93.89a.59.59 0 0 0-.56.1A36.46 36.46 0 0 0 71 89.58a5.87 5.87 0 0 1 .41-.46 34.14 34.14 0 0 1 3.04 4.77zM73.71 106.11a.62.62 0 0 1 .2-.1.36.36 0 0 1 .41.13 1.21 1.21 0 0 0 .05.18.51.51 0 0 1-.82.51 8.73 8.73 0 0 1-.41-.43 1.81 1.81 0 0 1 .57-.29zM73.61 94.58a.46.46 0 0 0 .69.15c-.13 1.21-2 3.51-2.62 4.33a10.33 10.33 0 0 1-1 1.26c-.13-.18-.23-.39-.34-.57a.94.94 0 0 1-.1-.23c.26-.28.49-.59.72-.87.93-1.2 2.29-2.56 2.65-4.07z"/><path class="cls-1" d="M74.32 106.14a.36.36 0 0 0-.41-.13.62.62 0 0 0-.2.1c-.85-1.56-2-3-2.95-4.48.15-.18.31-.39.44-.57 1.17 1.64 2.61 3.18 3.12 5.08zM73.89 94a.46.46 0 0 0-.23.36 1.06 1.06 0 0 1 0 .23c-.92-1.56-1.9-3.07-2.85-4.59a.72.72 0 0 1 .11-.15c.07-.08.12-.15.2-.23A36.46 36.46 0 0 1 73.89 94z"/><path class="cls-1" d="M73.71 106.11a1.81 1.81 0 0 0-.57.26 24.33 24.33 0 0 1-2.89-4.13c.18-.2.36-.41.51-.61.97 1.51 2.1 2.92 2.95 4.48z"/><path class="cls-11" d="M73.58 94.55c-.36 1.51-1.72 2.87-2.62 4.07-.23.28-.46.59-.72.87-.82-1.53-1.46-3.64-2.82-4.82a.21.21 0 0 0 .13-.13A27.66 27.66 0 0 1 70.73 90c.95 1.48 1.93 3 2.85 4.55z"/><path class="cls-1" d="M73.58 106.8a12.45 12.45 0 0 0-3.44 3.38 5.77 5.77 0 0 0-.53-.72 7.18 7.18 0 0 1 1.39-1.53 10.32 10.32 0 0 1 2.1-1.56c.13.15.29.31.41.43zM73.09.68a.41.41 0 0 1-.28.52 2.18 2.18 0 0 1 .28-.52z"/><path class="cls-1" d="M53.71 12.3a1.75 1.75 0 0 0-.51 0c-.28 0-.2.41 0 .49a3.33 3.33 0 0 0 .56.18s-.12.07-.17.13c-.67.48-1.34-.65-.65-1.11C57 9.27 61.05 6.5 65.12 3.79 67.2 2.4 70.17.07 72.86.48a.26.26 0 0 1 .23.2 2.18 2.18 0 0 0-.28.52c-3.47.38-6.64 3.12-9.36 5.12s-5.74 3.95-8.61 5.95a4.51 4.51 0 0 0-1.13.03zM61.35 140.38a.94.94 0 0 0-.72 1.1c-.1.15-.2.33-.33.54a.5.5 0 0 0-.36-.46c.11-.16.18-.28.28-.44 2.7-4.18 4.41-9 7.31-13 1.21-1.72 1.44-3.46 3.2-4.1a5.35 5.35 0 0 0 1.13 0 .21.21 0 0 1-.07.26c-4.47 4.1-6.9 10.74-9.9 16.07a.72.72 0 0 0-.54.03z"/><path class="cls-1" d="M71.86 124.05a5.35 5.35 0 0 1-1.13 0 5.13 5.13 0 0 1 .77-.18.34.34 0 0 1 .36.18z"/><path class="cls-11" d="M73.14 106.37a10.32 10.32 0 0 0-2.1 1.56 7.18 7.18 0 0 0-1.43 1.56 17.35 17.35 0 0 1-1.18-1.3c-.46-.62-.87-1.46-1.41-2.08 1-1.28 2.18-2.56 3.23-3.87a24.33 24.33 0 0 0 2.89 4.13z"/><path class="cls-1" d="M71.32 56.26V56c.16 0 .36.18.23.36l-.25.33a3.24 3.24 0 0 1 .02-.43z"/><path class="cls-11" d="M74.32 83.4a25 25 0 0 1-3.59 4.69c-.46-.66-.89-1.33-1.28-2-.64-1.13-1.28-2.28-1.87-3.46a35 35 0 0 0 6.74.77z"/><path class="cls-1" d="M71.45 89.12a5.87 5.87 0 0 0-.41.46 5.63 5.63 0 0 0-.36-.54c.11-.15.23-.33.36-.49a6.75 6.75 0 0 1 .41.57zM62.92 42.9c-.29 0-.59.05-.57.46v.34h-.16a56.58 56.58 0 0 1 1.62-10.1c.08-.28.54-.23.52.07-.59 5.9-1.44 11.9-.77 17.84 0 0 2.46 11.13 3.15 10.13a42.22 42.22 0 0 1 4.46-5.59.18.18 0 0 1 .15 0v.26a46.82 46.82 0 0 0-5.15 7c-2.9-5.33-3.61-12.46-3.3-19.22l.33-.34c.41-.41.07-.75-.28-.85z"/><path class="cls-1" d="M71.32 56.26a3.24 3.24 0 0 0 0 .43 78.24 78.24 0 0 0-4.74 6.82.45.45 0 0 1-.77 0c-3-5.64-3.92-12.25-3.64-18.76l.72-.69c-.31 6.76.4 13.89 3.3 19.22a46.82 46.82 0 0 1 5.13-7.02zM71.2 101.06c-.13.18-.29.39-.44.57a8.08 8.08 0 0 1-.49-.75 7 7 0 0 0 .44-.54c.15.23.29.47.49.72zM70.73 88.09l.31.46c-.13.16-.25.34-.36.49-.13-.18-.23-.36-.36-.51.16-.16.29-.31.41-.44zM71 89.58c-.08.08-.13.15-.2.23a.72.72 0 0 0-.11.15l-.36-.56a4.09 4.09 0 0 1 .28-.33 5.63 5.63 0 0 1 .39.51z"/><path class="cls-1" d="M70.76 101.63c-.15.2-.33.41-.51.61-.16-.28-.31-.56-.46-.84.15-.18.3-.34.48-.52a8.08 8.08 0 0 0 .49.75zM70.73 88.09c-.12.13-.25.28-.41.44-.46-.72-.92-1.44-1.33-2.21-.33-.56-1.46-2.69-2-3.87a3.41 3.41 0 0 0 .59.13c.59 1.18 1.23 2.33 1.87 3.46.39.72.82 1.39 1.28 2.05zM70.37 89.4l.36.56a27.66 27.66 0 0 0-3.15 4.59.21.21 0 0 1-.13.13 2.44 2.44 0 0 0-.45-.28c-.34-.82 2.53-4.05 3.37-5zM70.37 99.75c.11.18.21.39.34.57a7 7 0 0 1-.44.54.54.54 0 0 1-.1-.16 7.21 7.21 0 0 1-.33-.69c.15-.15.3-.33.43-.49a.94.94 0 0 0 .1.23z"/><path class="cls-1" d="M70.68 89a4.09 4.09 0 0 0-.28.33c-.12-.18-.25-.36-.35-.54a3.28 3.28 0 0 0 .3-.33c.1.22.2.4.33.54zM69.3 110.42a1.75 1.75 0 0 1 .31-.93 5.77 5.77 0 0 1 .53.72l.23.46a.52.52 0 0 1 0 .49.66.66 0 0 1-1.08-.51.61.61 0 0 1 .01-.23zM70 88.86c.1.18.23.36.35.54-.84.95-3.71 4.18-3.35 5a1.13 1.13 0 0 0-.31-.21.1.1 0 0 0-.15.11 4.12 4.12 0 0 0 .2.51.72.72 0 0 1-.46-.62c-.18-1.51 2-3.46 3-4.48.22-.29.48-.57.72-.85zM69.55 25.27a47.54 47.54 0 0 0 2.18 5.2c-1.61-2.79-3.56-4.77-5.84-3.95-6.18 2.23-11 6.15-16 10.36a.35.35 0 0 1-.41 0l.44-.51c5.64-4.85 12-10 19.63-11.1z"/><path class="cls-1" d="M70.32 88.53a3.28 3.28 0 0 1-.3.33 51.34 51.34 0 0 1-3.57-6.51 3.18 3.18 0 0 0 .52.1c.56 1.18 1.69 3.31 2 3.87.43.77.89 1.49 1.35 2.21zM70.27 100.86c-.18.18-.33.34-.48.52a8.67 8.67 0 0 1-.41-.88c.15-.15.3-.33.46-.51a7.21 7.21 0 0 0 .33.69.54.54 0 0 0 .1.18z"/><path class="cls-1" d="M70.27 99.52c-.13.16-.28.34-.43.49-.87-1.72-1.54-3.72-2.69-5.15a.34.34 0 0 0 .3-.16c1.36 1.18 2 3.3 2.82 4.82zM69.27 110.65a.66.66 0 0 0 1.08.51.81.81 0 0 1-1 .31c-1-.46-1.76-2-2.35-2.82a6.88 6.88 0 0 1-1.08-2 .75.75 0 0 0 .67 0 22.62 22.62 0 0 0 2.74 3.82.61.61 0 0 0-.06.18zM69.79 101.4c.15.28.3.56.46.84-1 1.31-2.18 2.59-3.23 3.87a2 2 0 0 0-.49-.48.28.28 0 0 0-.15-.08 30.79 30.79 0 0 1 3.41-4.15z"/><path class="cls-1" d="M69.38 100.52a8.67 8.67 0 0 0 .41.88 30.79 30.79 0 0 0-3.41 4.15.39.39 0 0 0-.54.25 1.8 1.8 0 0 0 0 .8 1 1 0 0 1-.36-1.13 17.92 17.92 0 0 1 3.9-4.95zM69.84 100c-.16.18-.31.36-.46.51a1.09 1.09 0 0 1-.08-.15c-.82-1.82-1.82-3.67-2.51-5.54a.42.42 0 0 0 .36 0c1.15 1.47 1.85 3.47 2.69 5.18zM69.61 109.49a1.75 1.75 0 0 0-.31.93 22.62 22.62 0 0 1-2.74-3.82.68.68 0 0 0 .2-.18l.26-.31c.54.62 1 1.46 1.41 2.08a17.35 17.35 0 0 0 1.18 1.3z"/><path class="cls-9" d="M70.73 124c-1.76.64-2 2.38-3.2 4.1-2.9 4.05-4.61 8.84-7.31 13-.1.16-.17.28-.28.44a.32.32 0 0 0-.18-.05c-1.41-.06-2.79-.06-4.18-.08-.12-1.69-.15-3.28-.12-3.59.18-5.23 1-10.43 1-15.66a49.17 49.17 0 0 0 9.72 1.54c1.48.2 2.99.3 4.55.3z"/><path class="cls-1" d="M67 82.45a3.18 3.18 0 0 1-.52-.1v-.08a.44.44 0 0 1 .18-.59.07.07 0 0 1 0-.07c0-.08.13 0 .13 0h-.06a.1.1 0 0 0 .06 0 .41.41 0 0 1 .43.21c.13.25.26.51.39.74a3.41 3.41 0 0 1-.61-.11zM67.15 94.86a.42.42 0 0 1-.36 0 4.12 4.12 0 0 1-.2-.51.1.1 0 0 1 .15-.11 1.13 1.13 0 0 1 .31.21 2.44 2.44 0 0 1 .43.28.34.34 0 0 1-.33.13zM67 106.11l-.26.31a.68.68 0 0 1-.2.18 3.13 3.13 0 0 1-.34-.77l.16-.25a.28.28 0 0 1 .15.08 2 2 0 0 1 .49.45z"/><path class="cls-1" d="M66.74 81.63a.1.1 0 0 1-.06 0zM66.22 105.8a3.13 3.13 0 0 0 .34.77.75.75 0 0 1-.67 0 1.8 1.8 0 0 1 0-.8.39.39 0 0 1 .54-.25zM64.48 81.84a.88.88 0 0 0-.15 0l.3-.46c.13-.21.44 0 .31.17l-.23.39a1.89 1.89 0 0 0-.23-.1z"/><path class="cls-1" d="M64.71 81.89c-5.31 8.62-5.72 22.2-1.44 31.2a.73.73 0 0 1-.1.85 59 59 0 0 0-4.53 6.76l-.7-.2a48.91 48.91 0 0 1 4.75-7c-2.8-4.79-2.93-10.54-2.57-16.15.34-4.74 1.54-11.46 4.36-15.48a1.89 1.89 0 0 1 .23.02z"/><path class="cls-1" d="M64.33 81.79a.88.88 0 0 1 .15 0c-2.82 4-4 10.74-4.36 15.48-.36 5.61-.23 11.36 2.57 16.15a48.91 48.91 0 0 0-4.75 7c-.2-.08-.41-.13-.61-.23 2.41-4.05 4.12-5.69 3-10.38a33 33 0 0 1-.9-10.49c.46-6.05 1.49-12.32 4.9-17.53zM62.92 42.9c.35.08.69.44.28.82l-.33.34c0-.39.02-.77.05-1.16z"/><path class="cls-1" d="M62.2 44a1.56 1.56 0 0 1 0-.31h.16v-.34c0-.41.28-.51.57-.46 0 .39-.05.77-.05 1.16l-.72.69a6.49 6.49 0 0 1 .04-.74z"/><path class="cls-8" d="M61.87 81c.82.28 1.64.57 2.46.8-3.41 5.2-4.44 11.47-4.93 17.62a33 33 0 0 0 .9 10.49c1.15 4.69-.56 6.33-3 10.38a23.45 23.45 0 0 1-2.31-.87c-4.54-2 2.33-5.46 3.21-6.44a.63.63 0 0 0-.18-1 55.86 55.86 0 0 1-2.31-12.82c-.48-6.22 3.23-12.79 6.16-18.16z"/><path class="cls-1" d="M62.2 44a6.49 6.49 0 0 0-.05.77c-4.57 4.51-9.21 9-14.49 12.63 0-.15-.25-.2-.35-.05a2.87 2.87 0 0 0-.26.49 61.5 61.5 0 0 1-3.38 2.1.55.55 0 0 1-.77-.18.24.24 0 0 0 .28-.26v-.66a57.62 57.62 0 0 0 10.56-7.69c1.18-1.08 6.85-7.64 8.56-7.49a1.56 1.56 0 0 0-.1.34zM61.43 80.84l-.43-.16c.08-.15.18-.28.26-.43.28-.51 1 0 .77.46l-.15.28zM61.89 140.38a14.17 14.17 0 0 1-.72 1.31 2 2 0 0 0-.17.31.75.75 0 0 1-.39-.44h.06c.23-.33.46-.69.66-1.05a.72.72 0 0 1 .56-.13zM61.43 80.84l.44.15c-2.93 5.38-6.64 12-6.13 18.15A55.86 55.86 0 0 0 58.05 112a.48.48 0 0 0-.54 0c-.64-1-.77-3-1-3.87a43.05 43.05 0 0 1-1.16-7.23 20.31 20.31 0 0 1 .21-6.92A51.14 51.14 0 0 1 58 87.84a72 72 0 0 1 3.43-7zM61.35 140.38c-.2.36-.43.72-.66 1.05h-.06a.94.94 0 0 1 .72-1.05z"/><path class="cls-1" d="M61 80.68l.44.16a72 72 0 0 0-3.41 7 51.14 51.14 0 0 0-2.46 6.1 20.31 20.31 0 0 0-.21 6.92 43.05 43.05 0 0 0 1.16 7.23c.23.87.36 2.84 1 3.87a.38.38 0 0 0-.18.12l-.08.08c-2.56-2.54-2.51-10-2.59-13a26.13 26.13 0 0 1 2.67-11.41c.61 0 1-.79.59-1.28.94-2.02 1.99-3.91 3.07-5.79zM60.63 141.51a.75.75 0 0 0 .37.49c-1.39 2.41-2.49 5.59-5.54 5.94-.3.05-.54-.28-.54-.54-.2-2.84-.25-5.61-.2-8.38a.25.25 0 0 0 .13 0 5.62 5.62 0 0 0 0 .71c0 2.57.54 5.13.64 7.69 1.93.23 3.41-2.69 4.46-4.66a.5.5 0 0 0 .36-.64c.12-.28.22-.46.32-.61zM54.2 12.68l.62-.41a9.31 9.31 0 0 1 5.35 2 2.83 2.83 0 0 1-1 4.7c.1-.08.18-.18.28-.26s0-.28-.18-.21-.43.21-.64.34a.46.46 0 0 1 0-.44c.37-.7 1.37-1.4 1.31-2.31s-.84-1.31-1.48-1.62a30.88 30.88 0 0 0-4.7-1.47c.16-.11.29-.22.44-.32zM60.2 57.1c1.28 2.85 0 6.79-1.49 9.31-.56.92-1.33 2-2.54 2s-1.69-1.34-1.76-2.31a.33.33 0 0 1 .1-.33 5.22 5.22 0 0 0 .49 1.66.41.41 0 0 0 .71.1c2 1.54 5.15-6.69 4.23-9.45-1.9-6.18-5.08 2.89-4.79 7.61a.59.59 0 0 0-.67.08A15.41 15.41 0 0 1 56 58c.94-2.13 2.92-3.79 4.2-.9z"/><path class="cls-1" d="M60.3 142.05a.5.5 0 0 1-.36.64c.13-.23.26-.44.36-.64zM60 58.08c.92 2.76-2.18 11-4.23 9.45a.6.6 0 0 0 .18-.51 1.65 1.65 0 0 1-.05-.38c.3.38.64.51 1.18-.1a9.92 9.92 0 0 0 1.64-3.08c.69-1.92 1.46-4.41.3-6.36s-2.44 2.9-2.64 3.62a16.48 16.48 0 0 0-.51 5.92c-.18-.23-.36-.52-.54-.8a.47.47 0 0 0-.15-.13C54.89 61 58.07 51.9 60 58.08z"/><path class="cls-1" d="M59.63 142.13c.11-.18.21-.36.31-.54a.5.5 0 0 1 .36.46c-.1.2-.23.41-.36.64a.47.47 0 0 1-.18 0c-.15 0-.3 0-.46-.05a2.92 2.92 0 0 0 .31-.53z"/><path class="cls-1" d="M59.76 141.54a.32.32 0 0 1 .18.05c-.1.18-.2.36-.31.54-1.33-.13-2.67-.13-4-.23 0-.16 0-.31-.06-.44 1.43.02 2.78.02 4.19.08z"/><path class="cls-1" d="M59.76 142.71a.47.47 0 0 0 .18 0c-1 2-2.53 4.89-4.46 4.66-.1-2.56-.64-5.12-.64-7.69a5.62 5.62 0 0 1 0-.71.35.35 0 0 0 0-.64C55.12 132.92 56 127.39 56 122a1.38 1.38 0 0 0 .46.15c0 5.23-.84 10.43-1 15.66 0 .31 0 1.9.12 3.59-.59 0-.54.79 0 .87h.13c.31 2.56 1 4.87 2.43 2.46.41-.69.8-1.44 1.18-2.16.14.12.29.12.44.14z"/><path class="cls-1" d="M59.61 142.13a2.92 2.92 0 0 1-.31.53c-1.2-.1-2.43-.18-3.61-.3v-.43c1.25.07 2.59.07 3.92.2zM58.76 19a.87.87 0 0 1-.13-.15c.21-.13.44-.23.64-.34s.31.11.18.21-.18.18-.28.26-.08 0-.1.05a.4.4 0 0 1-.31-.03zM59 57.1c1.16 1.95.39 4.44-.3 6.36a9.92 9.92 0 0 1-1.64 3.08c-.54.61-.88.48-1.18.1a16.48 16.48 0 0 1 .51-5.92c.19-.72 1.5-5.49 2.61-3.62z"/><path class="cls-1" d="M59.05 19s.07 0 .1-.05a33.58 33.58 0 0 0-10.59 18.72 12.26 12.26 0 0 0-.9 1.08c.59-6.59 5.67-16.17 11.08-19.74a.4.4 0 0 0 .31-.01z"/><path class="cls-1" d="M58.61 18.86a.87.87 0 0 0 .13.15c-5.41 3.57-10.49 13.15-11.08 19.74-.23.28-.46.59-.69.92-.13-7 5.1-17.53 11.64-20.81zM57.94 120.52l.7.2c-.11.16-.18.31-.29.46a.63.63 0 0 1-.28.26l-.82-.23a.61.61 0 0 1 0-.69 1.74 1.74 0 0 1 .13-.2c.15.07.36.12.56.2z"/><path class="cls-10" d="M59.3 142.66c-.38.72-.77 1.47-1.18 2.16-1.46 2.41-2.12.1-2.43-2.46 1.18.12 2.41.2 3.61.3z"/><path class="cls-1" d="M58.05 112a.63.63 0 0 1 .18 1c-.88 1-7.75 4.44-3.21 6.44a23.45 23.45 0 0 0 2.31.87 1.74 1.74 0 0 0-.13.2.61.61 0 0 0 0 .69c-2.29-.71-4.54-1.79-5.08-3.28-.82-2.66 4.46-3.59 5.59-5.33a.49.49 0 0 0 .18.13.2.2 0 0 0 .28-.23z"/><path class="cls-11" d="M61 80.68c-1.07 1.88-2.12 3.77-3.07 5.75a.88.88 0 0 0-.41-.29 43.2 43.2 0 0 1-4.28-1.94 10.57 10.57 0 0 0-3.09-1.2 49.84 49.84 0 0 0 3.36-5.57A64.39 64.39 0 0 0 61 80.68z"/><path class="cls-1" d="M57.51 112a.48.48 0 0 1 .54 0l.15.49a.2.2 0 0 1-.28.23.49.49 0 0 1-.18-.13 1.94 1.94 0 0 1-.49-.41l.08-.08a.38.38 0 0 1 .18-.1zM58.07 121.44a.7.7 0 0 1-.82-.23zM57.92 86.45c.36.49 0 1.33-.59 1.28.18-.43.38-.84.59-1.28zM53 84.86l.07-.08a.3.3 0 0 0-.43-.43c-.08.08-.16.13-.23.2a19.49 19.49 0 0 0-2.64-1 5.3 5.3 0 0 1 .36-.51 10.57 10.57 0 0 1 3.08 1.18 43.2 43.2 0 0 0 4.28 1.94.88.88 0 0 1 .41.29c-.21.44-.41.85-.59 1.28a.59.59 0 0 1-.23 0 31.72 31.72 0 0 1-4.1-2l-.44-.23c.17-.25.33-.43.46-.64z"/><path class="cls-2" d="M57.1 87.68a.59.59 0 0 0 .23 0 26.13 26.13 0 0 0-2.67 11.41c.08 3 0 10.48 2.59 13-2.18 2.18-7.53 3-5.28 7a6.88 6.88 0 0 0 3.56 2.72c-.2 5.53-.66 10.92-.79 16.38-6.46-.75-12-2-13.53-9.49-1.21-5.7-.31-12.08.79-17.82 1.72-9.38 4.74-17.88 10.56-25.43l.44.23a31.72 31.72 0 0 0 4.1 2z"/><path class="cls-1" d="M56 122c-.15 0-.33-.1-.49-.15a1.31 1.31 0 0 0 0-.34.46.46 0 0 1 .92 0v.64A1.38 1.38 0 0 1 56 122z"/><path class="cls-1" d="M55.53 121.88c.16.05.34.12.49.15-.05 5.36-.9 10.89-1.13 16.28a.3.3 0 0 0-.15-.05c.13-5.46.59-10.85.79-16.38zM55.41 67.12a5.06 5.06 0 0 1-.23-1.41.47.47 0 0 1 .15.13c.18.28.36.57.54.8a1.65 1.65 0 0 0 .05.38.6.6 0 0 1-.18.51 3 3 0 0 1-.82-1.43zM55.64 141.9v.43h-.13c-.54-.08-.59-.9 0-.87.1.13.1.28.13.44z"/><path class="cls-1" d="M55.71 67.53a.41.41 0 0 1-.71-.1 5.22 5.22 0 0 1-.49-1.66.59.59 0 0 1 .67-.08 5.06 5.06 0 0 0 .23 1.41l-.52-1a3 3 0 0 0 .82 1.43zM54.89 138.31a.35.35 0 0 1 0 .64c-.02-.21-.02-.41 0-.64z"/><path class="cls-1" d="M54.89 138.31v.64a.25.25 0 0 1-.13 0v-.71a.3.3 0 0 1 .13.07zM54.82 12.27l-.62.41c-.31 0-.61-.08-.92-.1a2.62 2.62 0 0 1 .43-.28 4.51 4.51 0 0 1 1.11-.03zM54.74 138.26v.35a37 37 0 0 1-5.61-.43 11.78 11.78 0 0 1-4.23-1c-4.18-2.33-4.8-8.66-5-12.89a58.82 58.82 0 0 1 1.72-15.86c1.79-7.9 4.69-17.26 10.53-23.18.15 0 .28.13.41.18C46.74 93 43.72 101.5 42 110.88c-1.1 5.74-2 12.12-.79 17.89 1.53 7.46 7.07 8.74 13.53 9.49z"/><path class="cls-1" d="M54.74 138.61v.39c-4.05.26-10.36.64-12.87-3.41-2.82-4.59-3.23-10.59-2.82-15.87.95-11.25 3.8-26.72 12.77-34.63a2.8 2.8 0 0 0 .33.18c-5.84 5.92-8.74 15.28-10.53 23.18a58.82 58.82 0 0 0-1.72 15.86c.2 4.23.82 10.56 5 12.89a11.78 11.78 0 0 0 4.23 1 37 37 0 0 0 5.61.41zM54.2 12.68c-.15.1-.28.21-.44.31a3.33 3.33 0 0 1-.56-.18c-.2-.08-.28-.44 0-.49a1.75 1.75 0 0 1 .51 0 2.62 2.62 0 0 0-.43.28c.31 0 .61.05.92.08zM53.56 76.86a.55.55 0 0 1 0 .54c-.23-.1-.46-.23-.66-.33s-.44-.23-.64-.36a.51.51 0 0 1 .43-.33c.25.15.56.33.87.48z"/><path class="cls-1" d="M53.53 77.4a49.84 49.84 0 0 1-3.38 5.6 2.57 2.57 0 0 0-.67-.06 21.07 21.07 0 0 0 3.41-5.89c.18.12.41.25.64.35zM52.71 84.71a.88.88 0 0 1-.3-.16c.07-.07.15-.12.23-.2a.3.3 0 0 1 .43.43l-.07.08a2 2 0 0 1-.29-.15zM52.66 76.38a.8.8 0 0 1 .9.48c-.31-.15-.62-.33-.9-.48z"/><path class="cls-1" d="M53 84.86c-.13.21-.29.39-.44.59-.13 0-.26-.13-.41-.18a7.4 7.4 0 0 1 .56-.56 2 2 0 0 0 .29.15zM52.23 76.71c.2.13.41.23.64.36A21.07 21.07 0 0 1 49.46 83h-.1a.42.42 0 0 0-.39.62 38.79 38.79 0 0 1-2.89 3.1 2.6 2.6 0 0 1-.47-.54h1a3.42 3.42 0 0 1-.46-.56c2.48-2.36 5.17-5.31 6-8.69.03-.12.03-.17.08-.22z"/><path class="cls-1" d="M52.71 84.71a7.4 7.4 0 0 0-.56.56 2.8 2.8 0 0 1-.33-.18 4.29 4.29 0 0 1 .59-.54.88.88 0 0 0 .3.16z"/><path class="cls-1" d="M52.41 84.55a4.29 4.29 0 0 0-.59.54A22.8 22.8 0 0 1 49.43 84c.11-.15.21-.28.34-.43a19.49 19.49 0 0 1 2.64.98zM52.66 76.38a.51.51 0 0 0-.43.33 74.24 74.24 0 0 1-4.13-2.28 15.33 15.33 0 0 1-3.59-2.72.4.4 0 0 0 .26-.38 36 36 0 0 0 3.77 2.36c1.46.89 2.71 1.87 4.12 2.69z"/><path class="cls-7" d="M52.23 76.71c0 .05 0 .1-.08.18-.85 3.38-3.54 6.33-6 8.69-.46-.59-.8-1.26-1.23-1.85a1 1 0 0 0 .82-.84.57.57 0 0 0 .36-.51c.3-3.82-.44-7.66-3.31-10.36-2.64-2.46-7-3.3-11-3.53a.44.44 0 0 0 0-.16c1.62-.72 4.36.28 5.87.66A15.43 15.43 0 0 1 44 71.64a.52.52 0 0 0 .56.07 15.33 15.33 0 0 0 3.59 2.72c1.28.79 2.67 1.57 4.08 2.28z"/><path class="cls-1" d="M49.77 83.53c-.13.15-.23.28-.34.43l-.3-.17a.46.46 0 0 1-.16-.21 7 7 0 0 0 .49-.62 2.57 2.57 0 0 1 .67.06 5.3 5.3 0 0 0-.36.51zM50 36.39l-.44.51h-.08c-.08 0 0-.05-.07-.08.18-.2.38-.38.56-.56s.15 0 .08.1a.15.15 0 0 0-.05.03z"/><path class="cls-1" d="M49.43 36.85h.08c-.38.46-.74 1-1.08 1.44a2.6 2.6 0 0 1 0-.39 9.53 9.53 0 0 1 1-1.05zM49.36 83h.1a7 7 0 0 1-.49.62.42.42 0 0 1 .39-.62z"/><path class="cls-1" d="M49.13 83.79l.3.17a36.79 36.79 0 0 1-2.84 3.24.74.74 0 0 1-1 0 10.28 10.28 0 0 1-2.1-3.47 2 2 0 0 0 .67.11c.38.59.92 1.61 1.46 2.33a2.6 2.6 0 0 0 .47.54A38.79 38.79 0 0 0 49 83.58a.46.46 0 0 0 .13.21zM49.36 36.77s0 .06.07.08a9.53 9.53 0 0 0-.92 1.08 1.47 1.47 0 0 1 .05-.26c.26-.31.51-.61.8-.9z"/><path class="cls-1" d="M48.56 37.67a1.47 1.47 0 0 0-.05.26 13.1 13.1 0 0 0-.84 1.18 1 1 0 0 1 0-.38 12.26 12.26 0 0 1 .89-1.06z"/><path class="cls-1" d="M48.48 38a2.6 2.6 0 0 0 0 .39c-.28.41-.54.8-.82 1.23a2.49 2.49 0 0 1 0-.46 13.1 13.1 0 0 1 .82-1.16z"/><path class="cls-1" d="M47.59 39.59c.28-.43.54-.82.82-1.23-.08.49-.16 1-.23 1.47s-.59.53-.93.33c.11-.16.24-.39.34-.57zM47.43 57.54a1.61 1.61 0 0 1-.38.28 2.87 2.87 0 0 1 .26-.49c.1-.15.35-.1.35.05a1 1 0 0 1-.23.16zM47.66 38.75a1 1 0 0 0 0 .38c-.21.29-.39.57-.57.85a.45.45 0 0 1-.1-.31c.21-.33.44-.67.67-.92z"/><path class="cls-1" d="M47.43 57.54a1 1 0 0 0 .23-.13 17.67 17.67 0 0 0-.15 3.84.42.42 0 0 0-.28-.1 5.67 5.67 0 0 1 .2-3.61zM47.64 39.13a2.49 2.49 0 0 0 0 .46c-.1.18-.23.36-.34.57a.51.51 0 0 1-.18-.18c.13-.28.31-.56.52-.85z"/><path class="cls-1" d="M47.23 61.15a.42.42 0 0 1 .28.1v.21c0 .08-.18.31-.29.18a1.62 1.62 0 0 1-.21-.36.46.46 0 0 1 .22-.13z"/><path class="cls-1" d="M47.05 57.82a1.61 1.61 0 0 0 .38-.28 5.67 5.67 0 0 0-.2 3.61.46.46 0 0 0-.21.08 4.11 4.11 0 0 1 0-3.38zM47.23 61.59c-1.64.82-4.46 4.07-4.56 6.07a3.4 3.4 0 0 0 .59 2.11l-.26-.13a4.68 4.68 0 0 1-.31-3.75 2.32 2.32 0 0 0 .38-.05.53.53 0 0 0 .13-.95 11.24 11.24 0 0 1 3.8-3.66 1.62 1.62 0 0 0 .23.36zM47.07 40a.51.51 0 0 0 .18.18 30.56 30.56 0 0 0-4.15 18.67h-.08a.63.63 0 0 0-.23.23c-1.64-5.39.77-13.54 4.28-19.08z"/><path class="cls-1" d="M47 39.67a.45.45 0 0 0 .1.31c-3.51 5.56-5.92 13.71-4.28 19.15a.55.55 0 0 0 .06.61.21.21 0 0 1-.16-.1c-.13-.28-.25-.56-.36-.85a.25.25 0 0 0-.1-.28C40.23 52.64 43.15 45 47 39.67z"/><path class="cls-4" d="M47 61.23a11.24 11.24 0 0 0-3.85 3.64.51.51 0 0 0-.28-.08 11 11 0 0 0-3.74 1c-.05-1.41.82-2.79 1.49-4a14.74 14.74 0 0 0 1.71-3v-.06c.11.29.23.57.36.85a.21.21 0 0 0 .16.1.55.55 0 0 0 .77.18 61.5 61.5 0 0 0 3.38-2.1 4.11 4.11 0 0 0 0 3.47z"/><path class="cls-1" d="M46.13 85.58a3.42 3.42 0 0 0 .46.56h-1a6.87 6.87 0 0 0 .54-.56zM42.77 72c2.87 2.7 3.61 6.54 3.31 10.36a.57.57 0 0 1-.36.51 2.62 2.62 0 0 0 0-.41.43.43 0 0 0-.25-.33c0-5-.67-9.05-5.75-11.25a27.51 27.51 0 0 0-8.35-1.82.65.65 0 0 0 .41-.59c4.04.22 8.35 1.06 10.99 3.53z"/><path class="cls-1" d="M46.13 85.58a6.87 6.87 0 0 1-.54.54c-.54-.72-1.08-1.74-1.46-2.33a1.94 1.94 0 0 0 .77-.06c.43.59.77 1.27 1.23 1.85zM45.49 82.12a.43.43 0 0 1 .25.33 2.62 2.62 0 0 1 0 .41.58.58 0 0 1-.59-.1.57.57 0 0 1-.2-.44v-.12a1.08 1.08 0 0 0 .38-.08.26.26 0 0 1 .16 0z"/><path class="cls-1" d="M45.13 82.79a.58.58 0 0 0 .59.1 1 1 0 0 1-.82.84 6.55 6.55 0 0 0-.49-.56.41.41 0 0 0-.28-.13 1.29 1.29 0 0 0 1-.25s0 .02 0 0zM45.61 86.14s-.02 0 0 0zM45.49 82.12a.26.26 0 0 0-.21 0 1.08 1.08 0 0 1-.38.08c-.36-3.92-.38-8.31-4.46-10.33s-8.36-2.23-12.71-2.54a2.13 2.13 0 0 0-.26-.44c1.06 0 2.11 0 3.16.11a.84.84 0 0 0 .8 0 27.51 27.51 0 0 1 8.35 1.82c5.04 2.25 5.68 6.35 5.71 11.3z"/><path class="cls-1" d="M44.9 82.35a.57.57 0 0 0 .2.44 1.29 1.29 0 0 1-1 .25.44.44 0 0 0-.1-.04c-2.2-.23-6.17-2.69-7.25-3.13-.36-.15-.74-.31-1.1-.44a.86.86 0 0 0-.39-.72q.93.32 1.77.69c2.23 1 5.26 3.36 7.87 2.8z"/><path class="cls-1" d="M44.13 83.79a2 2 0 0 1-.67-.11A.53.53 0 0 1 44 83a.44.44 0 0 1 .16 0 .41.41 0 0 1 .28.13 6.55 6.55 0 0 1 .49.56 1.94 1.94 0 0 1-.8.1zM43.64 70.71a5.79 5.79 0 0 1-.64-1l.33.18a5.69 5.69 0 0 0 1.46 1.48.4.4 0 0 1-.26.38 5.61 5.61 0 0 1-.89-1.04z"/><path class="cls-1" d="M44.64 70.94a.5.5 0 0 1 .13.36 5.69 5.69 0 0 1-1.46-1.48 4.72 4.72 0 0 1 1.33 1.12z"/><path class="cls-5" d="M44.87 82.2c-2.61.56-5.64-1.8-7.87-2.8q-.84-.37-1.77-.69a.07.07 0 0 0-.07 0 .26.26 0 0 0-.18-.07.43.43 0 0 0-.21 0 19.37 19.37 0 0 0-8.15-1 5.2 5.2 0 0 0 2-3.84 8 8 0 0 0-.95-4.36c4.35.31 8.71.56 12.71 2.54s4.13 6.3 4.49 10.22z"/><path class="cls-1" d="M44.51 71.71a.52.52 0 0 1-.56-.07 15.43 15.43 0 0 0-6.26-2.7c-1.51-.38-4.25-1.38-5.87-.66v-.44c2.2-.66 9.23 1.21 11.79 2.82a5.61 5.61 0 0 0 .9 1.05zM44 83a.53.53 0 0 0-.53.66 12.74 12.74 0 0 1-2.9-1.1c-1.64-.85-3.23-1.82-4.92-2.54v-.59c.36.13.74.29 1.1.44 1.05.46 5.02 2.92 7.25 3.13zM43.15 64.87a.53.53 0 0 1-.13.95 2.32 2.32 0 0 1-.38.05 4.5 4.5 0 0 1 .51-1z"/><path class="cls-1" d="M43 69.64a5.79 5.79 0 0 0 .64 1C41 69.05 34 67.18 31.8 67.84v-.43c1.82-.64 4.53.15 6.15.59A23.12 23.12 0 0 1 43 69.64zM42.79 59.13a.63.63 0 0 1 .21-.23h.08v.66a.24.24 0 0 1-.28.26.55.55 0 0 1-.01-.69zM38.67 66l-.18.08.18.08.07.33a1.52 1.52 0 0 1 .36-.18h.11c.03 0 0-.08 0-.1a1.4 1.4 0 0 1-.08-.49 11 11 0 0 1 3.74-1 .51.51 0 0 1 .28.08 4.5 4.5 0 0 0-.51 1 11.1 11.1 0 0 0-3.67 1 .49.49 0 0 1-.71-.3 6.3 6.3 0 0 1 .92-4.21 17.89 17.89 0 0 1 2.59-3.92.35.35 0 0 1 .44 0 1.83 1.83 0 0 1 .1.28v.06a14.74 14.74 0 0 1-1.71 3c-.67 1.18-1.54 2.56-1.49 4a4 4 0 0 0-.44.29z"/><path class="cls-1" d="M42.23 58.51a.25.25 0 0 1 .1.28 1.83 1.83 0 0 0-.1-.28zM39.21 66.28v.1c0 .03-.08 0-.11 0a.13.13 0 0 1 .11-.1zM39.21 66.28a.13.13 0 0 0-.11 0l-.43-.15V66a4 4 0 0 1 .46-.23 1.4 1.4 0 0 0 .08.51zM39.1 66.33a1.52 1.52 0 0 0-.36.18l-.07-.33zM38.67 66v.16l-.18-.08zM35.62 80c.23 17.9-1.82 35.84-1.92 53.78a.34.34 0 0 1-.11.26v-.1a.55.55 0 0 0-.41-.7c0-8.51-.31-16.79.2-25.32.54-9.44 1.28-18.84 1.31-28.28q.5.21.93.36z"/><path class="cls-1" d="M34.72 79.68a5.08 5.08 0 0 0-.51-.17 1.9 1.9 0 0 0-.39-.11 1 1 0 0 1 .18-.48c.54.15 1.08.33 1.62.53V80q-.43-.15-.9-.32z"/><path class="cls-1" d="M35.62 79.43c-.54-.2-1.08-.38-1.62-.53a.92.92 0 0 1 .77-.36.43.43 0 0 1 .21 0l.18.07a.07.07 0 0 1 .07 0 .86.86 0 0 1 .39.82z"/><path class="cls-1" d="M35.16 78.68l-.16-.07a.26.26 0 0 1 .16.07zM34.77 78.56a.92.92 0 0 0-.77.36 25.86 25.86 0 0 0-7.71-1.13.94.94 0 0 0 .33-.26 19.37 19.37 0 0 1 8.15 1.03zM34.21 79.51a5.08 5.08 0 0 1 .51.17c0 9.44-.77 18.84-1.31 28.28-.51 8.53-.2 16.81-.2 25.32a.47.47 0 0 0-.51.16c-.18-18.07.61-36 1.12-54a1.9 1.9 0 0 1 .39.07z"/><path class="cls-1" d="M34 78.92a1 1 0 0 0-.18.48c-2.56-.74-5.2-.92-7.79-1.46a.7.7 0 0 0 .26-.15A25.86 25.86 0 0 1 34 78.92z"/><path class="cls-8" d="M33.82 79.4c-.51 18-1.3 35.94-1.12 54-.06 0-.08.07-.11.1-1 1.67-2 3.28-3.05 4.84 3.23-8.22 2.46-19.81 2.44-26.94-.05-9.3 0-18.45.38-27.73.16-3.9-3.28-5.41-6.46-5.69a.46.46 0 0 0 .13-.08c2.59.58 5.23.76 7.79 1.5z"/><path class="cls-1" d="M33.21 133.28a.55.55 0 0 1 .41.7v.1a.19.19 0 0 1-.05.1.51.51 0 0 1-.61 0 .5.5 0 0 1-.23-.39v-.38a.47.47 0 0 1 .48-.13z"/><path class="cls-1" d="M32.93 134.21a.51.51 0 0 0 .61 0c-.77 2.69-2.74 4.92-4.36 7.18-1.43 2-2.41 4.33-4.41 5.82a.63.63 0 0 1-1-.36.72.72 0 0 0 .64-1.08.38.38 0 0 0-.1-.13c.05-.05.13-.1.15-.18a.58.58 0 0 0 .26-.13 15.49 15.49 0 0 0 4.77-6.87v-.05c1.1-1.56 2.1-3.17 3.05-4.84 0 0 0-.08.11-.1v.38a.5.5 0 0 0 .28.36z"/><path class="cls-10" d="M25.9 78c3.18.28 6.62 1.79 6.46 5.69-.36 9.31-.43 18.45-.36 27.75 0 7.13.79 18.72-2.44 26.94v.05c-.36.52-.72 1-1.11 1.52-1.35 1.79-2.43 3.76-3.92 5.48a.3.3 0 0 1-.2.08c-.46-.69-.95-1.36-1.46-2-.82-3.2-.11-6.69.05-10 .31-6.74.46-13.48.51-20.25.08-7.82.13-15.63.26-23.45.05-2.44.07-4.85.05-7.28v-2.28c-.16-.44-.13-.74.08-.9a.39.39 0 0 0 .2.16c.05.07.1.15.18.15.05 1.52.13 4.85.13 5.46 0 6.21-.16 12.44-.16 18.46 0 9.69-.15 19.35-.46 28.84 0 2.77-1.07 10 .46 12.25 5.52-3.61 5.82-13.46 6.44-19.69.74-7.4.43-15.17.31-22.61a125 125 0 0 1 .28-15c.15-2.77.77-4.84-1.05-6.74-1.54-1.72-3.23-1.72-5.36-1.72h-.18a.42.42 0 0 0-.41-.43 4.08 4.08 0 0 0 1.68-.48h.02z"/><path class="cls-1" d="M31.82 68.3a.44.44 0 0 1 0 .16h-.31.05l.28-.15zM31.8 67.84v.44l-.28.15h-.05a1.67 1.67 0 0 0-.38 0 .57.57 0 0 0-.1-.13.86.86 0 0 0 .01-.3.06.06 0 0 1 0-.06.58.58 0 0 1 .18-.23 2.51 2.51 0 0 1 .67-.3zM31.49 68.46h.31a.65.65 0 0 1-.41.59h-.8a.66.66 0 0 1-.41-.59h.92a.34.34 0 0 0 .39 0z"/><path class="cls-1" d="M31.82 37.42c-.18 10-.41 20 0 30a2.51 2.51 0 0 0-.67.3.58.58 0 0 0-.18.23c-.41-9.43-.07-20 .36-29.91a.72.72 0 0 0-.15-1.04.46.46 0 0 1 .64.42zM31.49 68.46a.34.34 0 0 1-.38 0 1.67 1.67 0 0 1 .38 0z"/><path class="cls-10" d="M30.11 80.66c1.82 1.9 1.2 4 1.05 6.74a125 125 0 0 0-.28 15c.12 7.44.43 15.21-.31 22.61-.62 6.23-.92 16.08-6.44 19.69-1.53-2.26-.46-9.48-.46-12.25.31-9.49.46-19.15.46-28.84 0-6 .16-12.25.16-18.46 0-.61-.08-3.94-.13-5.46a.78.78 0 0 0 .46.21c1.33 19.86-.79 39.83-.46 59.67a9.79 9.79 0 0 0 .46 3.64 11.86 11.86 0 0 0 2.82-4.56 37 37 0 0 0 1.64-7.65 145.38 145.38 0 0 0 1.05-15c0-6.2-.33-12.38-.31-18.58 0-5.28 2.9-17.28-5.07-17.49a.3.3 0 0 1-.13 0 6 6 0 0 0-.05-.74V79h.18c2.13-.06 3.82-.06 5.36 1.66z"/><path class="cls-1" d="M30.59 69h.8a.84.84 0 0 1-.8 0zM31.31 38a.51.51 0 0 1-.51.16 4.74 4.74 0 0 1 .05-.65v-.12a.53.53 0 0 1 .33-.44.72.72 0 0 1 .13 1.05z"/><path class="cls-1" d="M17 37a.31.31 0 0 0-.07.21c-.21 0-.18-.33 0-.41 4.18-1.51 9.72-.41 14 .13a.76.76 0 0 1 .3.1.53.53 0 0 0-.33.44v.12c-3.9-1-9.07-.84-13.28-.61A.38.38 0 0 0 17 37zM30.8 38.19a.51.51 0 0 0 .51-.16c-.43 9.87-.77 20.48-.36 29.91A.06.06 0 0 0 31 68a.38.38 0 0 0 0 .28.57.57 0 0 1 .1.13h-.92a.15.15 0 0 1 0-.11c-.33-7.71-.18-15.48.26-23.22.59 0 .79-.92.15-1h-.1c.05-2.02.15-3.97.31-5.89z"/><path class="cls-1" d="M31 68a.86.86 0 0 1 0 .28.38.38 0 0 1 0-.28zM30.85 37.54a4.74 4.74 0 0 0-.05.65h-.1a24.69 24.69 0 0 0-7.62-.9 39.09 39.09 0 0 1-5.41 0v-.1a.29.29 0 0 0-.1-.26c4.21-.23 9.43-.39 13.28.61z"/><path class="cls-5" d="M30.7 38.16h.1c-.16 1.92-.26 3.87-.36 5.81a64 64 0 0 0-12.53-.84c-.08-2-.16-3.92-.24-5.87a39.09 39.09 0 0 0 5.41 0 24.69 24.69 0 0 1 7.62.9z"/><path class="cls-1" d="M30.54 44c.64.13.44 1-.15 1 0-.36 0-.72.05-1.08.02.08.08.08.1.08z"/><path class="cls-1" d="M17.93 43.62a3.54 3.54 0 0 1 0-.46 64 64 0 0 1 12.51.84c0 .36-.05.72-.05 1.08h-.13a72.79 72.79 0 0 0-12.33-1z"/><path class="cls-2" d="M30.26 45.08h.13c-.44 7.74-.59 15.51-.26 23.22a.15.15 0 0 0 0 .11c-1.08 0-2.1 0-3 .07a5.05 5.05 0 0 0-5.1-2.1A4.92 4.92 0 0 0 18.65 69a3.64 3.64 0 0 0-.74 0c1-4 .46-8.52.44-12.59s-.21-8.2-.39-12.3a72.79 72.79 0 0 1 12.3.97z"/><path class="cls-1" d="M30.16 68.41a.66.66 0 0 0 .41.59c-1.05-.08-2.1-.11-3.16-.11a1.86 1.86 0 0 0-.28-.41c.93-.05 1.95-.07 3.03-.07z"/><path class="cls-10" d="M29.82 97.4c0 6.2.34 12.38.31 18.58a145.38 145.38 0 0 1-1.05 15 37 37 0 0 1-1.64 7.64 11.86 11.86 0 0 1-2.82 4.56 9.79 9.79 0 0 1-.46-3.64c-.33-19.84 1.79-39.81.46-59.67a.3.3 0 0 0 .13 0c7.97.25 5.1 12.25 5.07 17.53z"/><path class="cls-1" d="M28.41 140c.39-.52.75-1 1.11-1.52a15.49 15.49 0 0 1-4.77 6.87.58.58 0 0 1-.26.13c1.51-1.77 2.57-3.74 3.92-5.48zM27.7 69.33a8 8 0 0 1 .95 4.36 5.2 5.2 0 0 1-2 3.84c-.28 0-.56.08-.82.13a.12.12 0 0 0 0 .23 1.89 1.89 0 0 0 .23 0 .46.46 0 0 1-.13.08 9 9 0 0 0-1.13-.08 4.23 4.23 0 0 0 2.2-1.64 6.23 6.23 0 0 0 .06-7h.61z"/><path class="cls-1" d="M27.41 68.89a2.13 2.13 0 0 1 .26.44h-.61a6.08 6.08 0 0 0-.49-.62.39.39 0 0 1 .31-.18h.25a1.86 1.86 0 0 1 .28.36z"/><path class="cls-1" d="M27.06 69.3a6.23 6.23 0 0 1-.06 7 4.23 4.23 0 0 1-2.25 1.69 2.52 2.52 0 0 1-.46.1 3.47 3.47 0 0 1-1.36-.09c.08 0 .05-.13 0-.13a5.77 5.77 0 0 1-2.56-1.49c1.89.69 4.12 1.87 5.71 0a5.29 5.29 0 0 0 1.23-4.95c-.69-2.49-3.61-5.31-6.25-3.41a6 6 0 0 0-2 5.54 4.61 4.61 0 0 0 1.31 2.79c-.26-.1-.52-.18-.77-.25a.3.3 0 0 0-.29.07 6.65 6.65 0 0 1-.46-6.25.4.4 0 0 0 .26-.54 4.18 4.18 0 0 1 5.53-2.1 4.65 4.65 0 0 1 1.9 1.41.39.39 0 0 0 .31.62h.18z"/><path class="cls-3" d="M27.31 71.43a5.29 5.29 0 0 1-1.23 4.95c-1.59 1.84-3.82.66-5.71 0a4.61 4.61 0 0 1-1.31-2.79 6 6 0 0 1 2-5.54c2.64-1.93 5.56.89 6.25 3.38z"/><path class="cls-1" d="M27.13 68.48h-.25a.39.39 0 0 0-.31.18 4.65 4.65 0 0 0-1.9-1.41 4.18 4.18 0 0 0-5.53 2.1.61.61 0 0 0-.44-.35h-.05A4.92 4.92 0 0 1 22 66.38a5.05 5.05 0 0 1 5.13 2.1z"/><path class="cls-1" d="M27.06 69.28h-.18a.39.39 0 0 1-.31-.62 6.08 6.08 0 0 1 .49.62zM26.29 77.79a.7.7 0 0 1-.26.15 1.89 1.89 0 0 1-.23 0 .12.12 0 0 1 0-.23c.26 0 .54-.1.82-.13a.94.94 0 0 1-.33.21zM24.75 77.94a9 9 0 0 1 1.13.08 4.08 4.08 0 0 1-1.72.54.75.75 0 0 1-.21 0h-.1a.88.88 0 0 1 .44-.54 2.52 2.52 0 0 0 .46-.08z"/><path class="cls-10" d="M24.57 79.15a6 6 0 0 1 .05.74.78.78 0 0 1-.46-.21v-.15a.47.47 0 0 0 .41-.38z"/><path class="cls-10" d="M24.57 79.09v.06a.47.47 0 0 1-.41.38 1.34 1.34 0 0 0 0-.36 2 2 0 0 1 .41-.08z"/><path class="cls-10" d="M24.57 79v.1a2 2 0 0 0-.44.06v-.06z"/><path class="cls-10" d="M24.13 79.09v.08a.5.5 0 0 0-.28.1.9.9 0 0 1 0-.56.44.44 0 0 1 .1-.08.75.75 0 0 0 .21 0 .42.42 0 0 1 .41.43z"/><path class="cls-1" d="M24.44 145.74a.72.72 0 0 1-.64 1.08.68.68 0 0 1 .13-.75 5.87 5.87 0 0 0 .41-.46.38.38 0 0 1 .1.13z"/><path class="cls-1" d="M15.26 133.1a.09.09 0 0 0 0-.08v-.33a51.87 51.87 0 0 1 4.31 6.2 51.19 51.19 0 0 0 3.23 4.61 6.91 6.91 0 0 0 .56 1.64.74.74 0 0 0 .9.39.24.24 0 0 1 .05.1 5.87 5.87 0 0 1-.41.46.68.68 0 0 0-.13.75.51.51 0 0 1-.31-.11c-2.43-1.48-3.92-4.64-5.25-7.05-1.1-1.92-2.8-4.2-3.21-6.48a.15.15 0 0 0 .26-.1z"/><path class="cls-1" d="M24.29 145.51a.74.74 0 0 1-.9-.39 6.91 6.91 0 0 1-.56-1.64c.51.67 1 1.34 1.46 2.03zM22.93 78a3.47 3.47 0 0 0 1.36.07.88.88 0 0 0-.44.54 5.06 5.06 0 0 1-2.66-.51 4.43 4.43 0 0 0 1.71-.1z"/><path class="cls-10" d="M24.16 79.53v.13c-.08 0-.13-.08-.18-.15z"/><path class="cls-10" d="M24.13 79.17a1.34 1.34 0 0 1 0 .36h-.18a.92.92 0 0 1-.13-.24.5.5 0 0 1 .31-.12z"/><path class="cls-10" d="M23.85 79.27a.92.92 0 0 0 .13.24.39.39 0 0 1-.2-.16s.05-.08.07-.08zM24 78.58a.44.44 0 0 0-.1.08v-.08c0-.08.03 0 .1 0z"/><path class="cls-8" d="M23.85 78.66a.36.36 0 0 0-.13.28v.1a.34.34 0 0 0 .08.26c-.21.16-.24.46-.08.9v2.28c0 2.43 0 4.84-.05 7.28-.13 7.82-.18 15.63-.26 23.45-.05 6.77-.2 13.51-.51 20.25-.16 3.28-.87 6.77-.05 10a51.19 51.19 0 0 1-3.23-4.61 51.87 51.87 0 0 0-4.31-6.2c0-17.79.44-35.58.21-53.4a20 20 0 0 0 5-1.35l.65.15a5.06 5.06 0 0 0 2.66.51s0 .07.02.1z"/><path class="cls-10" d="M23.83 78.71a.9.9 0 0 0 0 .56s-.05 0-.07.08a.34.34 0 0 1-.08-.26V79a.36.36 0 0 1 .15-.29z"/><path class="cls-1" d="M22.6 77.89a.15.15 0 0 1-.11 0 4.22 4.22 0 0 1-3.18-1.66.3.3 0 0 1 .29-.07c.25.07.51.15.77.25a5.77 5.77 0 0 0 2.56 1.49c.05 0 .08.1 0 .13z"/><path class="cls-1" d="M22.6 77.89l.3.08a4.43 4.43 0 0 1-1.71.1c-.16-.08-.29-.18-.44-.26.12-.07 0-.3-.11-.3a2.17 2.17 0 0 0-.36 0 7.43 7.43 0 0 1-1-1 .32.32 0 0 1 0-.38 4.22 4.22 0 0 0 3.18 1.66.15.15 0 0 0 .14.1z"/><path class="cls-1" d="M20.54 77.69a1.88 1.88 0 0 0-.23-.16 2.17 2.17 0 0 1 .36 0c.16 0 .23.23.11.3z"/><path class="cls-1" d="M20.75 77.81c.15.08.28.18.44.26l-.65-.15a1.06 1.06 0 0 0 .21-.11z"/><path class="cls-1" d="M20.75 77.81a1.06 1.06 0 0 1-.21.11 1.68 1.68 0 0 1-.33-.16l.33-.07zM20.31 77.53a1.88 1.88 0 0 1 .23.16l-.33.07a2.6 2.6 0 0 1-.41-.2 3.09 3.09 0 0 1 .51-.03z"/><path class="cls-1" d="M20.21 77.76a1.68 1.68 0 0 0 .33.16 20 20 0 0 1-5 1.35v-.2a.46.46 0 0 0-.13-.31c1.59-.28 3.19-.59 4.8-1zM20.31 77.53a3.09 3.09 0 0 0-.51 0c-2.13-1.31-2.64-4.8-1.61-7.54a2.87 2.87 0 0 0 .64-.08 6.65 6.65 0 0 0 .46 6.25.32.32 0 0 0 0 .38 7.43 7.43 0 0 0 1.02.99z"/><path class="cls-1" d="M19.8 77.56a2.6 2.6 0 0 0 .41.2c-1.61.41-3.23.72-4.84 1a.48.48 0 0 0-.7.13C10.32 79.74 6 80.61 2 83.2c0-.15 0-.33-.05-.51C7 79.45 13.91 77.84 19.8 77.56zM19.14 69.35a.4.4 0 0 1-.26.54 2.22 2.22 0 0 1 .26-.54z"/><path class="cls-1" d="M18.39 69.51a3.17 3.17 0 0 1 .23-.49h.08a.61.61 0 0 1 .44.33 2.22 2.22 0 0 0-.26.54 2.87 2.87 0 0 1-.64.08 3.13 3.13 0 0 1 .15-.46z"/><path class="cls-1" d="M17.88 69a3.64 3.64 0 0 1 .74 0 3.17 3.17 0 0 0-.23.49h-.95a.45.45 0 0 0 .39-.31 1.23 1.23 0 0 0 .05-.18zM17.44 69.56h.95a3.13 3.13 0 0 0-.2.49c-4.19.59-9.19-.31-13.08 1.2S1.76 79 2 82.63a3.35 3.35 0 0 0-.52.3C1.12 79.84.6 73.4 3.37 71.35c1.74-1.3 5.15-1.18 7.13-1.3 2.25-.21 4.59-.39 6.84-.49z"/><path class="cls-1" d="M18.32 56.41c0 4.07.56 8.59-.44 12.59a.81.81 0 0 0-.46 0c0-3.64.33-9.84.23-14.35-.08-3.52-.21-7-.28-10.59a.3.3 0 0 0 .15 0 1.89 1.89 0 0 1 .41 0c.18 4.15.36 8.25.39 12.35z"/><path class="cls-1" d="M17.93 43.62v.49a1.89 1.89 0 0 0-.41 0 .3.3 0 0 1-.15 0 7.31 7.31 0 0 0 0-.82.32.32 0 0 1 .18-.05h.39a3.54 3.54 0 0 0-.01.38zM17.91 43.16h-.39a.32.32 0 0 0-.18.05c0-2-.05-4-.05-6a2.65 2.65 0 0 0 .38 0c.08 2.03.16 3.97.24 5.95zM17.42 69a.81.81 0 0 1 .46 0 1.23 1.23 0 0 1-.05.25.45.45 0 0 1-.39.31h-.1a.45.45 0 0 1-.36-.31 1.54 1.54 0 0 1-.05-.31 2.74 2.74 0 0 1 .49.06z"/><path class="cls-5" d="M18.19 70c-1 2.74-.52 6.23 1.61 7.54-5.89.3-12.8 1.91-17.8 5.09-.24-3.63-.83-9.87 3.11-11.38S14 70.64 18.19 70z"/><path class="cls-1" d="M17.29 37.24l-.38-.08A.31.31 0 0 1 17 37h.59a.29.29 0 0 1 .1.26v.1a2.65 2.65 0 0 1-.4-.12zM17.65 54.62c.1 4.51-.23 10.71-.23 14.35a2.74 2.74 0 0 0-.49 0c-.9-4 .08-8.46.08-12.53 0-6.41-.26-12.82-.1-19.22l.38.08c0 2 0 4 .05 6a.45.45 0 0 0 0 .82c.1 3.45.23 6.98.31 10.5zM17.57 36.93h-.59a.38.38 0 0 1 .59 0z"/><path class="cls-1" d="M17.34 43.21a7.31 7.31 0 0 1 0 .82.45.45 0 0 1 0-.82zM17 69.25a.45.45 0 0 0 .36.31c-2.25.1-4.59.28-6.84.49-2 .12-5.39 0-7.13 1.3C.6 73.4 1.12 79.84 1.47 83a.54.54 0 0 0-.15.72.42.42 0 0 1-.32-.42c-.58-3.39-1.65-9.3 1.4-12 1.77-1.56 4.12-1.71 6.4-1.77 2.7 0 5.41-.56 8.13-.59a1.54 1.54 0 0 0 .07.31zM15.5 79.27c.23 17.82-.21 35.61-.21 53.4l-.31-.39c0 .18 0 .36.05.56-.59-1 0-3.84-.05-4.79 0-2.21-.1-4.41-.18-6.61A118.86 118.86 0 0 1 15 108c.43-5.15.1-10.28.1-15.45V79.38a2.57 2.57 0 0 0 .4-.11z"/><path class="cls-1" d="M15.06 79.38l-.41.07v-.38a.39.39 0 0 1 0-.15c.24 0 .47-.08.7-.13a.46.46 0 0 1 .13.31v.2a2.57 2.57 0 0 1-.42.08zM15.37 78.76c-.23 0-.46.1-.7.13a.48.48 0 0 1 .7-.13zM15.29 132.67v.33a.09.09 0 0 1 0 .08 5.3 5.3 0 0 1-.3-.77zM15 132.87c0-.2-.05-.38-.05-.56a5.3 5.3 0 0 0 .3.77.15.15 0 0 1-.23.08 1.54 1.54 0 0 1-.02-.29z"/><path class="cls-1" d="M15.06 92.53c0 5.17.33 10.3-.1 15.45a118.86 118.86 0 0 0-.21 13.49c.08 2.2.16 4.4.18 6.61 0 .95-.54 3.82.05 4.79a1.54 1.54 0 0 0 0 .31.22.22 0 0 1-.15-.08c-1.44-2-.54-4.89-.59-7.23-.13-5.2-.44-10.45 0-15.66.77-10.22.28-20.5.41-30.76l.41-.07z"/><path class="cls-1" d="M14.67 78.92a.39.39 0 0 0 0 .15v.38c-.77.13-1.54.29-2.31.44A34.06 34.06 0 0 0 2 83.84a.48.48 0 0 1-.67-.16.55.55 0 0 0 .67-.46c4-2.61 8.32-3.48 12.67-4.3z"/><path class="cls-1" d="M1.47 83a3.35 3.35 0 0 1 .52-.3c0 .18.05.36.05.51a.55.55 0 0 1-.72.46.54.54 0 0 1 .15-.67z"/><path class="cls-12" d="M70.59 14.77a16.34 16.34 0 0 0-4.42 5.52c3 .37 5.16-2.21 6.26-4.78h-1.84"/><path class="cls-13" d="M70.59 14.77a16.34 16.34 0 0 0-4.42 5.52c3 .37 5.16-2.21 6.26-4.78h-1.84"/><path class="cls-12" d="M70.29 14.26a15.57 15.57 0 0 0-4.72 5.68.71.71 0 0 0 .6 1c3.31.29 5.45-2.54 6.75-5.2a.57.57 0 0 0-.34-.83 6 6 0 0 0-2.15 0 .61.61 0 0 0 0 1.18 6 6 0 0 0 2.15-.05l-.69-.69c-1 2.39-3 4.45-5.72 4.24l.61 1a20.23 20.23 0 0 1 4.22-5.4c.48-.46-.16-1.32-.72-.93zM78.32 15.51a4 4 0 0 0-1.84 4.41c2.21.37 3.68-1.84 3.68-4.41h-1.47"/><path class="cls-13" d="M78.32 15.51a4 4 0 0 0-1.84 4.41c2.21.37 3.68-1.84 3.68-4.41h-1.47"/><path class="cls-12" d="M78.21 15.11a4.25 4.25 0 0 0-2.37 5 .65.65 0 0 0 .64.49c2.9.08 3.93-2.64 4.12-5.08a.44.44 0 0 0-.32-.43 3.54 3.54 0 0 0-1.71 0 .48.48 0 0 0 0 .91 3.42 3.42 0 0 0 1.71 0l-.56-.42c0 1.73-.94 4.19-3.06 3.77l.49.64a4.2 4.2 0 0 1 1.46-4.12.41.41 0 0 0-.4-.69z"/><path class="cls-14" d="M86.67 47.36c-3.63 0-.12-13.58 3.28-7.84 1.28 2.1.93 8.89-2.81 7.6"/><path class="cls-13" d="M86.67 47.36c-3.63 0-.12-13.58 3.28-7.84 1.28 2.1.93 8.89-2.81 7.6"/><path class="cls-14" d="M86.79 46.91c-1.27-.24-1-2.82-.88-3.67.15-1.4.61-3.57 1.89-4.39 1.49-1 2 3 2 3.66a6.13 6.13 0 0 1-.7 3.2c-.55 1-1.48.48-2.25 1a.49.49 0 0 0-.17.65c.52 1.22 2.33.79 3.11.07a5.92 5.92 0 0 0 1.53-4c.15-1.91-.55-6.23-3.33-5.92-3.46.38-5.5 10.62-1.37 10.33.49 0 .66-.81.12-.91zM95.33 47.82c-2.46 1.06-2.46-4.68-1.17-5.61 2.34-1.41 3 4.21.7 5.5"/><path class="cls-13" d="M95.33 47.82c-2.46 1.06-2.46-4.68-1.17-5.61 2.34-1.41 3 4.21.7 5.5"/><path class="cls-14" d="M95.33 47.51c-1.89.22-1.53-3.51-1-4.55.63-1.38 1.33.69 1.37 1.22a4.19 4.19 0 0 1-1.06 3 .64.64 0 0 0 .78 1c3-1.32 1.24-8.59-1.61-6.32-1.83 1.46-1.21 8.23 1.72 6.27.23-.15.18-.61-.15-.58z"/><path class="cls-15" d="M23.92 76c-2.47.19-1.71-3.41 0-4 2.84-1 2.27 2.84.37 3.79"/><path class="cls-13" d="M23.92 76c-2.47.19-1.71-3.41 0-4 2.84-1 2.27 2.84.37 3.79"/><path class="cls-15" d="M24.28 75.67c-.53-.43-1.16-.32-1.2-1.13a2.11 2.11 0 0 1 1-1.82c.94-.55 1.26.19 1.07 1s-.82 1.28-1.16 2a.37.37 0 0 0 .31.54c2.61.2 3.38-5.49-.26-4.89-1.5.26-2.33 1.85-2.43 3.23s1.45 2.94 2.68 1.85a.52.52 0 0 0 0-.72z"/><path class="cls-16" d="M22.4 71.86c-1.33-.19-2.08-1.7-.76-2.65 1.71-1.33 2.46 1.33 1.52 2.46"/><path class="cls-13" d="M22.4 71.86c-1.33-.19-2.08-1.7-.76-2.65 1.71-1.33 2.46 1.33 1.52 2.46"/><path class="cls-16" d="M22.59 71.54c-.57-.33-1.55-.8-.85-1.7.46-.59 1-.53 1.25.14s-.29 1.18-.15 1.78a.32.32 0 0 0 .32.24c1.66-.2 1.08-3.74-.57-3.69-2.59.09-2.91 4.12-.19 3.92a.37.37 0 0 0 .19-.69z"/></g></g></svg>