<svg xmlns="http://www.w3.org/2000/svg" viewBox="0 0 71.29 50.5"><defs><style>.cls-1{fill:#fff;}</style></defs><title>icon_photoUploads</title><g id="レイヤー_2" data-name="レイヤー 2"><g id="レイヤー_1-2" data-name="レイヤー 1"><g id="レイヤー_1-2-2" data-name="レイヤー 1-2"><g id="グループ化_979" data-name="グループ化 979"><g id="グループ化_875" data-name="グループ化 875"><g id="グループ化_335" data-name="グループ化 335"><circle id="楕円形_5" data-name="楕円形 5" class="cls-1" cx="21.3" cy="21.24" r="4.49"/></g></g></g><polygon class="cls-1" points="55.35 44.45 1.9 44.45 1.9 2.23 58.79 2.23 58.79 24.03 60.89 24.03 60.89 0 0 0 0 46.56 55.35 46.56 55.35 44.45"/><polygon class="cls-1" points="71.29 36.97 60.86 36.97 60.86 26.53 57.76 26.53 57.76 36.97 47.32 36.97 47.32 40.06 57.76 40.06 57.76 50.5 60.86 50.5 60.86 40.06 71.29 40.06 71.29 36.97"/><path class="cls-1" d="M55.38,42.49H44.84V34.55l10.54,0c-3.58-8.39-8.65-17.71-11.92-17.61C38,17.05,27.14,39.78,23.87,39.77s-7-9.49-10.08-9.49S1.93,46,1.93,46H55.38Z"/></g></g></g></svg>