<svg id="レイヤー_1" xmlns="http://www.w3.org/2000/svg" viewBox="0 0 347.6 266.6"><style>.st3{fill:#503014}.st4{fill:#1d3033;stroke:#1d3033;stroke-width:.66;stroke-linecap:round;stroke-linejoin:round}.st5{fill:#433138}.st6{fill:#f3ed64}.st7{fill:#3e3f3f}.st8{fill:#f7e5d7}.st9{fill:#9e7642}.st10{fill:#dc4846}.st11{fill:#dadada}.st12{fill:#a3a2a2}.st13{fill:#1a5486}.st15{fill:#fff}.st16{fill:none}.st17{fill:#6b6b6b}.st18{fill:#8d1d22}.st19{fill:#f9d9d9}</style><g id="レイヤー_1-2"><path d="M265.2 178.1c.8-11.6 1.9-28 1.9-37.4v-77l-100.6-2.1c-1.5 11.9-1.8 23.9-.9 35.9 1.7 23 3.4 50.8 2.9 62.2-.9 21.3-5.7 27.3-5.7 27.3l82.9 3.6 19.5-12.5z" fill="#d1be96" stroke="#000" stroke-miterlimit="10"/><linearGradient id="SVGID_1_" gradientUnits="userSpaceOnUse" x1="157.058" y1="691.14" x2="272.706" y2="711.536" gradientTransform="translate(0 -576)"><stop offset="0" stop-color="#fff" stop-opacity="0"/><stop offset="1" stop-color="#452c11" stop-opacity=".3"/></linearGradient><path d="M265.2 178.1c.8-11.6 1.9-28 1.9-37.4v-77l-100.6-2.1c-1.5 11.9-1.8 23.9-.9 35.9 1.7 23 3.4 50.8 2.9 62.2-.9 21.3-5.7 27.3-5.7 27.3l82.9 3.6 19.5-12.5z" fill="url(#SVGID_1_)"/><path d="M247 178.1c5.3 4.4 17.7.3 17.7.3l-9 5.8-10 6.4s-.6-2.6 1.3-12.5z" fill="#d1be96" stroke="#000" stroke-linejoin="round"/><g id="旗のフリーアイコンその3"><path id="パス_510" class="st3" d="M211.1 105.9c7 1.2 23 10.3 20.9 16.9l-.6 2.9c2.2 5.5 7.7 8.8 13.6 8.3-2.1 6.9-8 9-15.2 9.4-10.9-.6-9.4-3.7-9.4-3.7s9-4.8-18.9-7.9l9.6-25.9z"/><path id="パス_511" class="st3" d="M187.7 153.2c-1.6 0-2.8-1.3-2.8-2.8 0-.3.1-.7.2-1l18.1-48.5c.5-1.5 2.1-2.3 3.6-1.8s2.3 2.1 1.8 3.6l-.1.2-18 48.5c-.6 1-1.6 1.8-2.8 1.8z"/></g><g id="レイヤー_3"><path class="st4" d="M94.2 224.6c0 .2.2.3.4.2.3-.1.6-.3.9-.5 0 .1 0 .2.1.2 0 .4-.3.8-.7.8-8.3.7-24.6 1.3-27.8 11.2 0 .1-.1.3-.2.4l-1-.4h-.1c-.1 0-.2.1-.2.2-.2-.3-.1-.7.1-1 6.7-8.4 18.1-12.4 28.8-11.9-.3.2-.3.5-.3.8 0-.1 0 0 0 0z"/><path class="st4" d="M66.1 237c-.2-.1-.3-.2-.5-.3 0-.1-.1-.1-.1-.2v-.1c.1-.1.2-.2.3-.1l1 .4c-.1.1-.1.2-.2.2-.2.2-.4.2-.5.1zm-.6-.4s.1.1.1.2c-.1-.1-.1-.2-.1-.2zm.1.2c.2.1.3.2.5.3-.1-.1-.3-.2-.5-.3z"/><path class="st4" d="M76.8 243c2.3 2.4 4.2 4.9 6.3 7.4 4.1 5 8.9 8.8 15.8 8.2 4-.3 7.6-1.9 11.6-1.7 2.3 0 4.8 1.1 7.1 1v.6c-2.4 0-4.6-.6-7.1-.9-3.6-.4-7.8 1.2-11.4 1.7-3.4.5-6.5-.6-9.5-2.1-4.2-2.2-7.2-6.6-10.1-10.1-4-4.8-8.1-7.3-13.4-10.1.1.1.3.1.4 0 3.6 1.7 7.6 3.2 10.3 6z"/><path class="st4" d="M75.7 241.4c3.9 3.4 6.7 7.7 10.3 11.4 5.6 5.9 12.1 5.4 19.5 3.9 4.3-.9 7.8.2 12 .7v.7c-2.3.1-4.8-1-7.1-1-4-.2-7.6 1.4-11.6 1.7-6.9.6-11.6-3.2-15.8-8.2-2.1-2.5-4.1-5-6.3-7.4-2.6-2.8-6.7-4.3-10.2-6 .1 0 .2-.1.2-.2 3.2 1.1 6.7 2.2 9 4.4z"/><path class="st5" d="M94.8 225.3h.2c.4-.1.6-.6.5-.9v-.1c1.3-.9 2.4-2.6 3.5-3.7 1.3-1.2 2.6-2.6 3.7-4 1 .3 2.1.4 3.2.5-1.5 4.8-2.5 10.2-1 14.7 0 .1.1.1.1.2.1.1.3 0 .3-.1 1.8 1.5 3.8 2.8 6 3.5 1.9.8 4.3 1.9 6.4 1.6.1.1.2.2.4.2.8.6 1.6 1.2 2.5 1.8-.5 2.4-2.7 11.2-3.1 18.2-4.2-.5-7.8-1.6-12-.7-7.3 1.6-13.8 2-19.5-3.9-3.5-3.7-6.4-8-10.3-11.4-2.4-2.2-5.9-3.3-9-4.6.1-.1.2-.2.2-.4 3.4-9.6 19.6-10.3 27.9-10.9z"/><path class="st4" d="M83.4 194.8c0 .1 0 .2.1.3h.1c-2.5 2.3-5.1 7.5-4.8 11.3-.2.2-.3.5-.2.7-.3-.1-.4-.3-.4-.6 0-2.5.7-5 1.8-7.2.5-1 1.9-4 3.4-4.5z"/><path class="st4" d="M79.4 206.4v.2c0 .2 0 .3-.2.4-.2.2-.4.2-.7.2-.1-.3 0-.5.2-.7.3-.2.5-.3.7-.1z"/><path class="st4" d="M86.1 210.1c0 .3.1.5.4.7.3.2.7 0 .9-.3 1.8.5 3.6 1 5.3 1.6 2.8.9 6.3 2.7 9.6 3.7-.2.1-.5.3-.6.5-3.1-.9-6.1-2.5-9.1-3.6-4.6-1.7-9.4-2.4-13.6-5.3-.1-.1-.2-.2-.2-.3.2.1.5 0 .7-.2 1.9 1.5 4.2 2.5 6.6 3.2zm-2.2-14.7c-.4 1.1-1.8 2.3-2.4 3.3-1.4 2.3-2.2 4.9-2.1 7.6-.2-.1-.5-.1-.6.1-.2-3.8 2.3-9 4.8-11.3l.3.3z"/><path class="st4" d="M79.4 206.4c2.1 1.3 4.4 2.4 6.9 3.1 0 .1-.1.2-.2.4v.3c-2.4-.7-4.7-1.7-6.8-3.1.1-.1.2-.3.2-.4l-.1-.3z"/><path class="st6" d="M83.9 195.4c2.2 1.5 4.7 2.7 7.3 3.3-3.4 2.3-3.4 7.2-4.9 10.7-2.4-.7-4.7-1.8-6.9-3.1-.1-2.7.7-5.3 2.1-7.6.6-1 2-2.2 2.4-3.3z"/><path class="st4" d="M83.6 195.1c-.2-.1-.2-.2-.2-.3.2-.1.4-.1.6-.1l.1.1v.1l-.1-.1c-.2.1-.3.2-.4.3z"/><path class="st4" d="M84 194.4c7.4 3.1 15.1 5.1 22.8 7.6 0 .1-.1.2-.1.3s0 .2.1.3c-3.3-.9-6.6-2.1-9.8-3.1-3.7-1.2-9.5-2.5-12.9-4.7v-.1c0-.1-.1-.1-.1-.1-.2 0-.4 0-.6.1 0-.2.2-.4.4-.4.1.1.2.1.2.1z"/><path class="st4" d="M83.9 194.9l.1.1c0 .2 0 .3-.1.4l-.3-.3c.1-.1.2-.1.3-.2zm13 4.7c3.1 1 6.5 2.1 9.8 3.1.2.3.6.4.9.2.5.2 1 .3 1.5.4-.1.1-.1.3-.1.5-5.1-.9-9.9-2.8-14.8-4.2-.7-.2-1.5-.4-2.2-.6.1-.1.1-.2 0-.3-.1-.2-.3-.2-.4-.1-.1.1-.2.1-.3.2-2.6-.6-5.1-1.8-7.3-3.3.1-.1.1-.3.1-.4 3.3 2 9.1 3.3 12.8 4.5zm-9.6 10.8c-.2.3-.5.5-.9.3-.2-.1-.4-.4-.4-.7.5.2.9.3 1.3.4zm.2-.6v.3c0 .1 0 .2-.1.3l-1.2-.4v-.3c.1-.1.1-.2.2-.4l.6.2c.1.1.3.2.5.3z"/><path class="st4" d="M91.2 198.7c.1.1.3.1.4.1-2.9 2.3-3.8 7.4-4.8 10.8l-.6-.2c1.6-3.4 1.7-8.4 5-10.7z"/><path class="st4" d="M91.6 198.8l.4.1v.1c-2.5 3.1-4 6.9-4.5 10.8-.2-.1-.4-.1-.6-.2 1-3.4 1.9-8.4 4.7-10.8zm-4.1 11c1.8.5 3.6 1 5.3 1.6 4.6 1.5 8.8 3.6 13.5 4.7l-.1.5c-1-.1-2-.3-3-.6.1-.1.1-.3 0-.4-.1-.2-.4-.3-.6-.2-.1.1-.3.2-.4.3-3.3-1.1-6.8-2.8-9.6-3.7-1.6-.6-3.5-1.1-5.3-1.6.1-.1.1-.2.1-.3s0-.2.1-.3z"/><path class="st5" d="M92 198.9c.8.2 1.5.4 2.2.6 4.9 1.4 9.8 3.2 14.8 4.2-.2 1-.2 1.9-.1 2.9 0 .1.1.2.1.3-2.3 1.3-2.4 3.6-1.4 5.7-.4 1.1-.9 2.2-1.3 3.5-4.7-1.1-8.9-3.2-13.5-4.7-1.8-.6-3.6-1.1-5.3-1.6.4-3.9 2-7.7 4.5-10.9 0 .1 0 .1 0 0z"/><path class="st4" d="M91.2 198.7c.1-.1.2-.2.3-.2.1-.1.2-.1.3 0 .2.1.2.3.1.4l-.4-.1s-.1-.1-.3-.1zm3.2 25.1h.7l-.5.7h-.3c-.1-.3 0-.5.1-.7z"/><path class="st4" d="M95 223.8c.2.1.4.2.5.5-.3.2-.6.4-.9.5h-.1c-.2 0-.3-.1-.3-.3h.4l.4-.7zm2.6-3.9c1.3-1.3 2.6-2.5 4-3.7l.6.2c-2.4 2.5-5 4.6-7.1 7.3h-.7c.5-1.5 2.1-2.7 3.2-3.8zm5.7-64.8v.1c-2.6 2.8-3.7 7.6-4.9 11.1-2.4 6.5-3.6 13.4-3.8 20.4-.2.3-.2.7-.3 1.1v-.1c-.1-6.6.8-13.2 2.9-19.5 1.5-4.5 2.6-9.7 6.1-13.1zM95 187.8v-.2c1.2-3.2 4.6-5.9 6.7-8.4-.1.2-.1.4-.1.6-.9 1.2-1.9 2.3-3 3.3-.9.9-1.7 1.9-2.4 3-.4.8-.8 1.6-1.4 2.3-.1.1-.3 0-.3-.1v-.5.1c.1.1.2.1.3 0 .1 0 .2-.1.2-.1z"/><path class="st4" d="M94.7 186.7c.1-.2.2-.5.3-.7-.1.5-.1 1-.1 1.5-.1.1-.1.2-.1.3h-.1c-.1 0-.2 0-.2-.1 0-.3.1-.7.2-1zm.2 1.1c0 .1-.1.1-.1.2.1-.1.1-.2.1-.3v.1z"/><path class="st4" d="M96.9 183.7c1.5-1.8 3.1-3.4 4.8-5 0 .1 0 .2-.1.4-2.1 2.6-5.5 5.3-6.7 8.4 0-.5.1-1 .1-1.5.6-.8 1.2-1.5 1.9-2.3z"/><path class="st4" d="M98.4 166.3c1.1-3.5 2.2-8.4 4.9-11.1v.4c-2.7 3.8-3.6 8.5-5 12.9-1.7 5.7-2.8 11.6-3.2 17.5-.1.2-.3.4-.3.7 0-7 1.3-13.9 3.6-20.4zm3.8 50.1l.6.1c-1.1 1.4-2.4 2.8-3.7 4-1.1 1.1-2.2 2.8-3.5 3.7-.1-.2-.2-.4-.5-.5 2-2.6 4.7-4.7 7.1-7.3zm1.8-87.7c-4.8 6.7-8.6 15.7-7.4 24.9v.6c0 .2.2.4.4.5l-.1.1c-.2 0-.3-.1-.4-.2-2-8.4 1.1-20 7.5-25.9z"/><path class="st4" d="M104.2 129c-1.7 4-4.1 7.5-5.5 11.7-1.2 3.9-1.7 7.9-1.6 11.9-.2.3-.3.6-.4 1-1.2-9.1 2.6-18.2 7.4-24.9 0 .1 0 .2.1.3z"/><path class="st7" d="M98.4 168.5c1.4-4.4 2.3-9.1 5-12.9-.5 3.6-.4 7.2 1 10.1.1.2.3.2.4.3.4 0 .7-.2.7-.6 1.6-3.5 3.4-7.4 6-10.1 5.6-6 12.7 3.6 16.4 7.1l.1.1c.3.2.7.1.9-.2 1.9-2.9 3.6-5.9 5.6-8.6 2.8-3.7 6.3-7.3 11.3-5.8 1.1.3 2.3.6 3.4.9 12.1 7.8 19 27 13.7 40.8l-.2.1c-.1 0-.2.1-.3.2-.2.3-.2.7 0 .9-.3.7-.6 1.3-1 1.9-2-1-4-1.8-6.1-2.6-4.1-9.9-8.5-19.4-10.3-30 .6-3 .4-6.1-.3-9.1 0-.1-.2-.2-.3-.1-.1 0-.1.1-.1.2.7 9.7-2.8 19.3-9.6 26.3-.1-2.8-.4-5.7-.9-8.5 0-.4-.7-.3-.7.1v.4c-.1 0-.2.1-.3.2-.9 1.8-2 3.5-3.1 5.1-.7.9-1.4 1.9-2 2.9-2.6-5.2-5.5-10.4-8.2-15.5 0-.2-.1-.4-.3-.5l-.5-.9c-.1-.1-.2-.2-.3-.1s-.2.2-.1.3l.3.9v.1c-1.7 5-4.2 9.2-6.7 13.8-.6-2.6-1.7-5-2-7.6-.1-.5-.7-.5-.7 0 .1 1.7.5 3.5 1 5.1-1 1.5-1.8 3.1-2.4 4.8-.9 1.9-1.7 3.9-2.3 6-.9.9-1.6 1.8-2.2 2.9-1-3.6-1.7-7.7-.6-11.3 0 0-.1-.1-.1 0-.5 1-.8 2.1-1 3.1-1.7 1.6-3.3 3.2-4.8 5-.7.7-1.3 1.5-1.8 2.3.4-5.9 1.6-11.8 3.4-17.5z"/><path class="st4" d="M97.1 152.6v1.8c0 .1 0 .2-.1.2-.2-.1-.3-.3-.4-.5v-.6c.1-.3.3-.6.5-.9z"/><path class="st4" d="M105.5 147.1c0-.1-.1-.3-.2-.3s-.3.1-.3.2v.1c0 .1-.1.2-.1.3-.1.2-.1.5-.2.8-1.1.7-2.2 1.4-3.3 2.2-.8.6-1.6 1.3-2.3 2-.6.6-1 1.5-1.6 2.1-.1.1-.3.2-.5.1.1-.1.1-.2.1-.2v-1.9c.7-1.1 1.6-2 2.7-2.7 1.7-1.3 3.6-2.3 5.5-3.2.6-.3 1.1.6.5.9l-.3.1v-.5z"/><path class="st6" d="M104.2 129c2.3 3.4 7.7 7.5 11.9 5.1 5.5-3.1 9-9.2 11.6-14.8 3.3 5.2 8.2 11 15 10.3 4.8-.5 10.3-3.4 10.6-8.8 6.7 4.5 10.9 12.4 13.1 20-2.3-2.4-5.4-3.8-8.6-4.1-.3 0-.5.2-.6.4-.6 4.2 1 8.1 2.3 12 1.5 4.4 1.8 9.1 3 13.6-2.8-5.7-7.2-10.6-12.5-14.1v-.1c.1-.2 0-.5-.3-.6-6.5-2.4-10.1-2-14.7 3.3-2.3 2.7-4 5.8-5.9 8.7-1 1.5-7.2-5.2-8.3-6.1-7.9-6.3-13 3-15.7 9.9-1.5-5.4.8-10.6.6-16.1l.2-.1c.6-.4.1-1.2-.5-.9-2 .8-3.8 1.9-5.5 3.2-1.1.7-2 1.7-2.7 2.7-.1-4 .4-8 1.6-11.9 1.3-4.1 3.7-7.6 5.4-11.6z"/><path class="st4" d="M102.2 178.7c.1-.1 0-.2-.1-.2h-.1l-.3.3c.2-1.1.5-2.2 1-3.1 0-.1.1-.1.1 0-1.1 3.6-.4 7.7.6 11.3-.3.4-.5.9-.7 1.4-.2 0-.4-.2-.5-.4-.8-2.7-1.1-5.5-.7-8.2.2-.3.3-.5.5-.8l.2-.3z"/><path class="st4" d="M102.1 178.6v.3c-.2.3-.3.5-.5.8 0-.2 0-.4.1-.6.1-.1.2-.3.4-.5zm.6 37.3c-.2.2-.3.4-.5.5l-.6-.2c.2-.2.4-.4.6-.5.1.1.3.2.5.2zm-.7-37.5h.1v.1c-.1.2-.3.4-.4.5 0-.1 0-.2.1-.4l.2-.2z"/><path class="st4" d="M102.1 178.4c.1 0 .1.1.1.2l-.1.3v-.3c-.1 0-.1-.1 0-.2zm1.1 37.7c-.1.2-.2.4-.4.5l-.6-.1c.2-.2.3-.4.5-.5l.5.1zm-1-.4c.1-.1.2-.2.4-.3.1-.1.3-.1.4 0 .2.1.3.4.2.6l-.5-.1c-.2 0-.3-.1-.5-.2zm1.1-27.4c-.6 1.4-.3 3.1.8 4.1 1.8 1.8 5.2 3 7.7 3.7l-.3.6c-3.1-.9-6.3-2.1-8.3-4.6-.8-1.1-.9-2.5-.4-3.7.2 0 .4 0 .5-.1z"/><path class="st4" d="M106.1 216.7c-.1.1-.1.3-.2.4-1.1-.1-2.2-.2-3.2-.5.1-.2.3-.3.4-.5l3 .6zm-2.6-29.7c.1.2.1.4.1.6-.1.2-.2.5-.3.7-.2.1-.4.1-.5.1.2-.5.4-1 .7-1.4z"/><path class="st4" d="M103.6 187.6c.6-1.1 1.3-2.2 2.1-3.2.1.1.2.1.2 0-1.9 2.6-4 5.8-.6 8.3 2.1 1.3 4.4 2.3 6.8 2.8l-.3.6c-2.5-.7-5.9-1.9-7.7-3.7-1.1-1.1-1.4-2.7-.8-4.1.3-.2.4-.4.3-.7zm-.4-32.1c.2-.3.5-.6.8-1 .1-.1 0-.1-.1-.1-.2.2-.4.3-.6.5.3-2.3.8-4.6 1.4-6.8.2-.1.3-.2.5-.2-.6 5-2.6 12-.6 16.8-.1.1-.1.2-.1.3-.1.5.8.9 1 .4v-.1c0 .2-.1.3-.3.4-.3.2-.7.1-.9-.2-1.3-2.7-1.4-6.4-1.1-10 .1.1.1.1 0 0z"/><path class="st4" d="M103.4 155c.2-.2.4-.4.6-.5.1 0 .1 0 .1.1-.3.3-.5.6-.8 1v-.4c.1-.1.1-.1.1-.2zm-.1 33.3c.1-.2.2-.5.3-.7.1.3 0 .6-.3.7zm2.4-4.2v.1c0 .1 0 .1.1.2-.9 1-1.6 2-2.1 3.2-.1-.2-.1-.4-.1-.6.5-1.1 1.2-2 2.1-2.9zm2.1-53.5c4.2 3.7 8.2 2.4 11.8-1.3 3-3.1 4.7-7.2 7.4-10.5.1-.1.2-.2.4-.1 0 .1.1.2.1.3.1.1.2.3.3.4-2.6 5.6-6.1 11.7-11.6 14.8-4.1 2.4-9.5-1.7-11.9-5.1.1-.1.1-.2.1-.3.1-.3-.1-.4-.3-.3l-.1.1-.1-.1c-.2-.3.2-.8.5-.5 1.2.7 2.3 1.6 3.4 2.6z"/><path class="st4" d="M103.9 128.5l.1-.1c.2-.1.4.2.3.3-.1.1-.1.2-.1.3-.1-.1-.1-.2-.2-.2l-.1-.3zm1.7 19.3c.2 5.5-2.1 10.7-.6 16.1-.1.3-.3.6-.4.9-2-4.8 0-11.8.6-16.8.1-.1.3-.2.4-.2z"/><path class="st4" d="M105.5 165.3v.3c-.3.5-1.2.1-1-.4 0-.1.1-.2.1-.3.1-.3.2-.6.4-.9.1.2.1.5.3.8 0 .1.1.3.2.5zm-.1 66.5l.1.1c-.1.1-.2.1-.4.1l-.1-.1c-1.5-4.5-.6-9.9 1-14.7h.7c-.4 1.2-.8 2.4-1.1 3.6-.6 3.5-.7 7.1-.4 10.7v.3c0-.1.1 0 .2 0zm-.1-84.5c-.1.2-.1.5-.1.7-.2.1-.3.2-.5.2.1-.3.2-.5.2-.8l.4-.1z"/><path class="st4" d="M105 147.5c0-.1.1-.2.1-.3s.1-.1.2-.2c.1 0 .3 0 .3.2l-.2.1-.4.2z"/><path class="st8" d="M106 184.4c1.3-1.4 2-3.5 2.6-5.2s1.3-3.4 1.9-5.1l.9 2.4c0 .1.1.2.2.2l-.1.1c-.1.2 0 .5.2.6s.5 0 .6-.1c3-4 6-8.7 7-13.7 2 5.4 4.2 11.1 7.9 15.4-.1.4.2.6.5.6.4.4.9-.1.8-.5 1.1-1.2 2.1-2.6 3-4 .7-1 1.3-2 1.7-3.1 0 2.1.4 4.3.6 6.4.1.2.2.3.3.3.3.1.6 0 .7-.3v-.1c4.5-3.2 8.1-9.2 9.8-15.4.5 9.3 5.4 18.9 9.7 26.9-5.5-1.9-11.3-3-17.1-3h-.2c-.1 0-.2.2-.1.3v.3c1.7 3.1 3.6 6.1 5.8 8.9-.6 0-1.1-.1-1.7-.1h-1.5c-.2-.3-.4-.6-.6-.8 0-.1-.1-.1-.1-.1 0-.2-.1-.3-.3-.3-.2-.2-.4-.3-.6-.5h-.1c-.2-.1-.4 0-.4.2-2.2-.3-4.5-.4-6.7-.3-1.4-.1-2.9.2-4.2.6.7-.7 1.5-1.5 2.3-2.1.2-.1 0-.4-.1-.4h.1c.1 0 .2-.2.1-.3-2.1-1.2-4.6-1.8-7-1.7-1.7-.1-4.4-.2-5.9.9-.2-.1-.4-.1-.5.1-1.2 1.2-2.3 2.5-3.2 4-2.4-.5-4.7-1.4-6.7-2.8-3.6-2.4-1.4-5.6.4-8.3zm10.8 2.5c.4.1.8-.3.7-.6.8-2 1.1-4.1.9-6.2-.1-1.1-1.1-3.9-2.7-3.1s-1.2 3.8-1 5.2c.2 1.2.6 4.5 2.1 4.7zm24.6-.6l.1.1c.4.2.9.1 1.1-.3v.4c.1.1.2.1.3.1 1.7-1.1 1.4-5.6 1.2-7.2-.1-1.5-1.5-4.5-3.5-2.7-1.8 1.7-1.1 5.4-.5 7.4.2.7.6 1.5 1.3 2.2z"/><path class="st4" d="M106.7 217.1c.1 0 .2-.1.3-.1.1-.2.1-.4-.1-.6.4-1 .7-2.1 1-3.1.1.2.2.3.3.5-.4 2-1.1 4-1.9 5.9-1.2 3.6-.7 7.5-.9 11.2-.2.1-.4.3-.4.6-.3-3.6-.2-7.2.4-10.7.5-1.3.8-2.5 1.3-3.7zm42.2-69.1c-.1 0-.2 0-.2.1-3.8-1.1-7.2-2.5-10.6.6-4 3.6-6.7 9-9.6 13.3-3.5-3.1-8.1-9-12.9-9.9-3.7-.6-8.6 8.5-10.3 12.5-.1-.3-.2-.5-.3-.8 2.7-6.9 7.7-16.2 15.7-9.9 1.1.9 7.3 7.6 8.3 6.1 1.9-2.9 3.6-6.1 5.9-8.7 4.6-5.3 8.2-5.7 14.7-3.3h.1c.2.1.3.4.1.6-.1-.1-.3-.2-.5-.3 0-.1-.2-.2-.4-.3zm-43.8 83.6v-.2.2z"/><path class="st4" d="M105.4 230.8v.9c0 .1 0 .1-.1.1l-.1-.1c-.1 0-.1-.1-.1-.2v-.3c.1 0 .2-.2.3-.4zm0-83.5l.2-.1v.6c-.1.1-.2.1-.4.2 0-.2.1-.5.2-.7zm10.2 4.9c4.9.9 9.5 6.7 13 9.9 2.9-4.3 5.7-9.7 9.7-13.3 3.4-3.1 6.8-1.7 10.6-.6-.1.1-.1.1 0 .2.2.1.4.3.6.4-1.1-.2-2.3-.6-3.4-.9-5-1.4-8.5 2.1-11.3 5.8-2.1 2.7-3.7 5.8-5.6 8.6l-.1.1c-.3.2-.7.2-.9 0-3.8-3.6-10.9-13.1-16.5-7.1-2.6 2.8-4.4 6.7-6 10.1v-.2c-.1-.2-.1-.4-.2-.6 1.5-3.9 6.3-13.1 10.1-12.4zm2.1 84.6c0 .1.1.2.1.3-2.1.3-4.5-.8-6.4-1.6-2.2-.8-4.2-2-6-3.5l.1-.1v-.9c.2-.1.4-.1.5.1 3.5 2.6 7.2 3.8 11.3 5 .1.2.1.4.2.6l.2.1z"/><path class="st6" d="M106.4 219.6c.8-1.9 1.4-3.9 1.9-6 1.7 2.4 4.9 4.2 8 3.1h.2c-2.5 5.7-.9 13.4.8 19.2-4.1-1.2-7.8-2.3-11.3-5-.1-.1-.3-.1-.5-.1.2-3.7-.3-7.6.9-11.2z"/><path class="st4" d="M105.7 184.1l.5-.5c-.1.2-.2.4-.3.5v.1l-.2.2c-.1 0-.1-.1-.1-.2s.1-.1.1-.1zm.6-.6l.2-.2c.1-.1.3 0 .2.1-.2.3-.5.7-.7 1-.1.1-.2.1-.2 0l.2-.2v-.1c0-.1.1-.3.3-.6z"/><path class="st4" d="M106.7 183.5c.1-.1-.1-.3-.2-.1l-.2.2c1.6-3.2 2.6-6.7 4.2-9.9.1.1.1.2.1.4-.6 1.8-1.3 3.3-1.9 5.1-.5 1.9-1.4 3.7-2.6 5.2.1-.3.4-.6.6-.9zm-.4 32.7c.2.1.4.1.6.1h.1c-.1.2-.2.5-.3.8h-.7c.1-.1.1-.3.2-.4 0-.2 0-.4.1-.5z"/><path class="st4" d="M108 178.2c.6-1.7 1.4-3.3 2.4-4.8 0 .1.1.2.1.3-1.6 3.2-2.6 6.7-4.2 9.9-.2.1-.4.3-.5.5.5-2 1.3-4 2.2-5.9zm-.3 34.5c.1.2.2.3.3.5-.3 1.1-.6 2.1-1 3.1h-.1l-.6-.1c.4-1.2.8-2.4 1.4-3.5zm.2-10.2v.1c0 .2-.2.3-.3.4-.3-.1-.6-.1-.9-.2 0-.1-.1-.2-.1-.3s.1-.2.1-.3c.2.1.4.1.6.2.2-.1.4 0 .6.1zm3.2-5.3l-.3.6c-1.7 1-3 2.5-3.6 4.4-.2-.1-.4-.1-.6-.2.8-2.2 2.4-3.9 4.5-4.8z"/><path class="st4" d="M106.7 202.7c.3.1.6.2.9.2-.3.2-.7.1-.9-.2zm.4 14c0 .2-.2.4-.4.4.1-.3.2-.5.3-.8.1.2.2.3.1.4zm3.8-18.8c-.1.2-.2.4-.3.7-1.3 1-2.2 2.4-2.6 3.9-.2-.1-.4-.2-.6-.2.5-1.9 1.8-3.5 3.5-4.4z"/><path class="st4" d="M107.9 202.6v-.1l1.2.4c0 .2-.1.3-.1.5-.5-.1-1-.2-1.5-.4.2-.1.4-.2.4-.4zm2 4.3v-.3c.2-.1.4-.1.6-.2 2.7-.6 5.5 0 7.6 1.8 0 .2-.1.4-.1.6-1.5-1.4-3.5-2.1-5.6-2.1-4.6.1-5.7 2.9-4.6 5.4l-.2.5c-1.1-2.1-1-4.5 1.4-5.7.2.4.8.4.9 0z"/><path class="st4" d="M108.1 212.6c-.1.2-.1.4-.1.6-.1-.2-.2-.3-.3-.5l.2-.5c0 .1.1.3.2.4z"/><path class="st4" d="M118 208.9c0 .1-.1.2-.1.3-.1.5.5.7.9.6.9 1 1.2 2.4.9 3.7l-.1.1-.9.8c.7-1 .8-2.4.2-3.5-1.5-3.2-5.9-4.2-8.9-3.2-2.6.9-2.3 3.6-1 5.4.9 1.3 2.2 2.2 3.7 2.6h-.6c-.1.1-.2.2-.1.4-1.6-.6-2.9-1.7-3.8-3.1 0-.4 0-.9-.1-1.3 0 0-.1-.1-.2 0s-.1.3-.2.5c-1.1-2.6 0-5.3 4.6-5.4 2.2 0 4.2.7 5.7 2.1z"/><path class="st4" d="M107.8 212.1c.1-.2.2-.4.2-.5s.2-.1.2 0c.1.4.1.9.1 1.3-.1-.1-.2-.3-.2-.4-.1 0-.2-.2-.3-.4z"/><path class="st4" d="M108.1 212.6c.1.1.1.3.2.4v.7c-.1-.1-.2-.3-.3-.5 0-.2 0-.4.1-.6z"/><path class="st9" d="M110.6 198.5c-.6 1.4-1.1 2.8-1.4 4.3l-1.2-.4c.4-1.5 1.3-2.9 2.6-3.9z"/><path class="st4" d="M112.1 216.1c1.3.7 2.8.9 4.2.6-3 1.1-6.3-.7-8-3.1v-.7c.9 1.6 2.2 2.7 3.8 3.2z"/><path class="st10" d="M118.9 210.9c.6 1.1.5 2.4-.2 3.5l-1.2 1h-.1c-.5.2-1 .4-1.5.4-1 .1-2.1-.1-3.1 0-1.5-.4-2.8-1.3-3.7-2.6-1.3-1.9-1.6-4.5 1-5.4 3-1.1 7.4-.1 8.8 3.1z"/><path class="st4" d="M109.8 203.4c.5-1.9 1.1-3.7 1.9-5.5.1-.1.2-.1.3-.1s.2-.1.3-.3v-.1c0-.1 0-.1-.1-.2 0-.1-.1-.1-.1-.1.1-.1.1-.2.1-.3.1 0 .3 0 .4-.1.3-.2.4-.6.2-.9v-.1c.7-1.3 1.6-2.5 2.6-3.6 0 .1.1.1.1.1h.6c-3.7 3.7-5.4 9.2-6.2 14.3-.3.1-.6.2-.9.4-.1-.1-.1-.2-.1-.3-.1-1 0-1.9.1-2.9h.2c.2.1.4 0 .6-.3 0 .1 0 .1 0 0z"/><path class="st4" d="M109.1 202.8l.3.1h.1c.2.1.3.4.2.6-.1.2-.3.3-.5.2h-.2c0-.2 0-.3.1-.5v-.4z"/><path class="st4" d="M110.6 198.5c.3-.2.7-.4 1.1-.6-.8 1.8-1.4 3.6-1.9 5.5 0-.2-.1-.4-.3-.4l-.3-.1c.3-1.5.7-3 1.4-4.4zm-.8 8.1v.3c-.1.5-.6.4-.9.1.3-.2.6-.3.9-.4zm.8-33.7c-.1.1-.2.3-.2.4-.5-1.7-.9-3.4-1-5.1 0-.5.7-.5.7 0 .4 2.6 1.5 5 2 7.6-.1.2-.2.3-.3.5-.3-.9-.7-2-1-3l.1-.2c0-.2-.1-.2-.2-.2h-.1z"/><path class="st6" d="M116.1 192.3c1.9.1 3.9-.6 5.8-.6 2.3.2 4.5.4 6.7.8-2.7.9-4.5 3.9-6 6.3-2 3.1-3.8 5.9-4.4 9.5-2.1-1.8-5-2.5-7.6-1.8-.2.1-.4.1-.6.2.7-5.2 2.3-10.7 6.1-14.4z"/><path class="st4" d="M110.6 172.9h.1v.1l-.3.6c0-.1-.1-.2-.1-.3.1-.1.2-.3.3-.4zm.2.4c-.1.3-.2.5-.2.8 0-.1-.1-.3-.1-.4s.2-.4.3-.6v.2z"/><path class="st4" d="M111.8 176.3l-.1.3c-.1 0-.2-.1-.2-.2l-.9-2.4c.1-.3.2-.5.2-.8.3 1.1.7 2.1 1 3.1z"/><path class="st4" d="M110.9 173.1l-.1.2c0-.1 0-.2-.1-.2v-.1c.1-.1.2 0 .2.1zm1 24.3c-.1.1-.1.3-.2.5-.4.1-.8.3-1.1.6.1-.2.2-.4.3-.7.3-.1.7-.3 1-.4zm-.2-.3h.3l-.2.3c-.4.1-.7.2-1 .4l.3-.6c.3-.1.5-.1.6-.1z"/><path class="st4" d="M111.5 196.7c.2.1.4.1.6.2h.1c0 .1-.1.2-.1.3-.1-.1-.2-.1-.3-.1-.2 0-.4.1-.6.2 0-.3.2-.4.3-.6zm8-33c-1.1 4.9-4.1 9.7-7.1 13.7-.1.2-.4.2-.6.1-.2-.1-.3-.4-.2-.6l.1-.1h.2c.2 0 .3-.2.3-.4 0-.1-.1-.3-.1-.4 2.4-4.6 5-8.8 6.7-13.8v-.2c.1.2.2.5.3.8s.2.6.4.9zm-7.3 31.7l.2.1c.1 0 .3.1.3.2l-.5 1.1h-.1c-.2-.1-.4-.1-.6-.2l.3-.6c.1-.2.3-.3.4-.6z"/><path class="st4" d="M111.8 176.3c.1-.2.2-.3.3-.5.1.1.1.3.1.4 0 .2-.1.4-.3.4h-.2l.1-.3zm.3 20.8c.1 0 .1.1.1.1 0 .1.1.1.1.2v.1c0 .1-.1.2-.3.3-.1 0-.2.1-.3.1.1-.2.1-.3.2-.5l.2-.3zm4.3 19.2c.1 0 .2.1.1.2v.1s-.1 0-.1.1l-.2.1c-1.4.2-2.8 0-4.1-.6-.1 0-.1-.1-.1-.1-.1-.1 0-.3.1-.4h.6c.9.3 1.8.5 2.8.6.3.1.6.1.9 0zm-1.1-24.8c.1-.2.4-.2.5-.1-.2.1-.4.3-.5.5-.1.1-.1.2 0 .3-1 1.1-1.9 2.3-2.6 3.6-.1-.1-.2-.2-.3-.2l-.2-.1c.8-1.5 1.9-2.8 3.1-4zm-2.5 4.3c.1.1.1.2.1.4 0 .4-.3.7-.7.7l.6-1.1z"/><path class="st4" d="M117.4 215.5l-.4.4c-.2.1-.3.3-.3.5-.4.1-.7.1-1.1.1-.9-.1-1.9-.3-2.8-.6 1-.1 2.1.1 3.1 0 .5-.1 1.1-.2 1.5-.4zm1.2-35.4c.2 2.1-.1 4.3-.9 6.2 0 0 0-.1-.1-.1 0-.1-.1-.1-.1-.1.5-2.4 1.5-8.2-1-8.6-2.3-.2-1.1 8.1.6 9v.2s0 .1.1.1c.1.1.2.1.2 0 .1-.1.1-.3.2-.4.1.4-.3.7-.7.6-1.6-.2-2-3.5-2.1-4.7-.2-1.4-.7-4.4 1-5.2s2.6 1.8 2.8 3z"/><path class="st4" d="M117 186.4c-1.6-.8-2.9-9.2-.6-9 2.5.4 1.5 6.2 1 8.6-.1-.1-.2-.3-.3-.4 0 .3 0 .6-.1.8zm.5-3.7c0-.5 0-5.8-1.3-4.7-.9.8-.4 3.5-.2 4.5.2 1.1.6 2.2 1.2 3.1 0-1 .2-1.9.3-2.9zm-1.9 9.3c-.1 0-.1.1-.1.1-.1-.1-.1-.2 0-.3.1-.2.3-.3.5-.5.2.1.3.2.3.4-.3.1-.5.2-.7.3z"/><path class="st4" d="M115.6 192c.2-.1.4-.2.6-.2.1.2 0 .3-.1.4h-.6l-.1-.1s.1-.1.2-.1zm1 24.2c0 .1-.1.2-.1.3 0-.1-.1-.1-.2-.1h-.9c.5-.1.9-.1 1.2-.2zm.9-33.5c-.1 1-.3 1.9-.3 2.9-.6-1-1-2-1.2-3.1-.2-.9-.8-3.7.2-4.5 1.3-1.1 1.3 4.2 1.3 4.7z"/><path class="st4" d="M116 191.4c1.5-1.1 4.3-.9 5.9-.9 2.4-.1 4.9.5 7 1.7.1.1 0 .3 0 .3h-.3c-2.2-.4-4.5-.7-6.7-.8-1.9 0-3.9.7-5.8.6.1-.1.2-.3.1-.4.1-.3 0-.5-.2-.5zm.8 30.3c-.2-.1-.4-.2-.5-.3-.2-.2-.1-.5.2-.4l.4.1v.3c-.1.1-.1.2-.1.3z"/><path class="st4" d="M116.8 221.8c-.1 1.3-.1 2.7 0 4 .2 1.7.4 3.5.9 5.2-.2.2-.4.5-.6.8-1-4.6-1.6-9.6-.4-14 .1.4.2.8.4 1.2-.1.7-.2 1.5-.2 2.2l-.4-.1c-.3-.1-.4.3-.2.4.2.1.3.2.5.3zm-.3-5c.1 0 .1-.1 0 0 0-.1 0 0 0 0h-.2.2z"/><path class="st4" d="M116.6 216.7c0 .3 0 .7.1 1-1.1 4.5-.6 9.4.4 14-.2.3-.2.7-.2 1 .1.2.3.4.5.4.2 1 .5 2 .8 3h-.1l-.8-.2c-1.7-5.8-3.3-13.5-.7-19.2zm0-.1v.1h-.1s0-.1.1-.1z"/><path class="st4" d="M117 216.6c-.1.4-.2.8-.3 1.1-.1-.3-.1-.7-.1-1 .2 0 .3 0 .4-.1z"/><path class="st4" d="M116.6 216.7v-.2l.1-.3c.2 0 .4-.1.6-.2.1 0 .1.1.1.2s-.1.2-.1.3l-.4.1c0 .1-.2.1-.3.1zm.1-.6l-.1.3s0-.1.1-.3z"/><path class="st4" d="M117.4 216.5l-.3 2.4c-.2-.4-.3-.8-.4-1.2.1-.4.2-.7.3-1.1l.4-.1zm-.4-.8c.1-.1.3-.4.4-.4h.1c.5-.2.9-.6 1.2-1l.9-.8.1-.1c-.1.3-.2.7-.4 1-.4.8-1.2 1.3-2 1.6l-.1-.1c-.1-.1-.3-.1-.4.1l-.1.1h-.1c.1-.1.2-.3.4-.4z"/><path class="st5" d="M119.8 223.2c-.7 1 .3 4.2.7 5.4-.8.4-1.6 1-2.3 1.6l-.6.6c-.4-1.7-.7-3.4-.9-5.2-.1-1.3-.1-2.7 0-4 1 .7 2.1 1.2 3.1 1.6z"/><path class="st4" d="M116.9 216c.1-.1.3-.1.4.1-.2.1-.4.1-.6.2l.2-.3c0 .1 0 0 0 0zm8.2 8.2c7.5 2.7 15 5.4 22.6 8-.1.2-.2.4-.4.5l-2-.7c-5.3-1.8-10.6-3.7-15.9-5.6-.2-.1-.4-.1-.5-.2-.2-.2-.4-.3-.6-.5-.2-.2-.5-.1-.6.1-2.4-.8-4.8-1.4-7.2-2.3v-.5c0-.1-.1-.1-.1-.1-.2 0-.5.1-.6.3-1.1-.4-2.1-.9-3-1.5v-.3c2.5 1.4 5.7 1.7 8.3 2.8z"/><path class="st4" d="M143.5 230l4.7 1.7c-.1.1-.3.3-.4.5-7.6-2.5-15.1-5.3-22.6-8-2.7-1-6-1.3-8.4-2.7v-.3c8.8 3.1 17.9 5.7 26.7 8.8zm-26 3.1c-.2 0-.4-.2-.5-.4-.1-.3 0-.7.2-1 0 .5.1 1 .3 1.4z"/><path class="st11" d="M117.1 218.9c.9 1.8 3.2 2.4 5.6 2.8 7.3 1.3 14.5 4.7 21.6 6.9 12.5 4 25.5 9.3 38.7 10.4-3.5.2-7.1.7-10.5 1.1-7.9-2.5-15.8-5.4-23.6-8.1 0-.1.1-.2.1-.3.1-.1.1-.3 0-.4-.1-.1-.3-.1-.4 0-.1.1-.2.2-.3.4l-4.8-1.7c-8.8-3.1-17.9-5.7-26.6-8.9 0-.7.1-1.5.2-2.2z"/><path class="st4" d="M117.3 186.6c.1-.2.1-.4.1-.6l.1.1.1.1c0 .2-.1.3-.2.4h-.1c-.1 0-.2-.1-.2-.1v-.1l.2.2z"/><path class="st4" d="M117.1 185.6l.2.4c0 .2-.1.4-.1.6l-.2-.1c.1-.3.1-.6.1-.9zm1.1 47.2l-.6.3h-.2l-.3-1.5c.1-.3.3-.6.6-.8.1.3.1.6.2.9s.2.8.3 1.1z"/><path class="st12" d="M117.5 216.5c-.9 4.6 5.8 4.1 9 5.3 4.7 1.6 9 3.5 13.7 4.9 17.2 5 33.8 12.6 52.1 12v.2c-3.1-.2-6.1-.1-9.2.1-13.3-1.1-26.2-6.4-38.7-10.3-7.1-2.2-14.3-5.6-21.6-6.9-2.4-.4-4.6-1-5.6-2.8l.3-2.4c-.1-.1 0-.1 0-.1z"/><path class="st4" d="M118.1 236.2c-.1.1-.2.2-.2.4h-.4c-.1-.2-.1-.4-.2-.6l.8.2z"/><path class="st12" d="M117.5 216.4c.3-.1.6-.2.8-.4.1 0 .2-.1.2-.1.2-.1.5-.3.7-.5.5-.4.8-.9 1-1.5 9.3 2.1 18.5 6 28 8.3 5.1 1.2 10.6 2.1 15.7 3.9 4.4 1.4 8.6 3.9 13.2 5.5 2.5.9 10.3 2.1 13.9 4.4.6.6 1.1 1.2 1.7 1.7.1.2.1.3.1.5h-.8c-1.2-3.6-9.7-4.8-12.5-5.5-5.6-1.3-10.5-4.4-15.8-6.2-6.6-2.2-13.5-3.1-20.1-4.9-7.2-2-14.2-4.8-21.5-6.6-2.1-.5-1.7.8-3.1 1.5-3.5 1.8 6.4 4.2 6.5 4.2 7.1 1.5 14.3 5 21.3 7.2 15.1 4.8 29.4 9.4 45.3 10.3 0 .1.1.3.1.4-18.3.6-34.9-7-52.1-12-4.7-1.4-9-3.2-13.7-4.9-3.2-1.1-9.8-.6-8.9-5.3z"/><path class="st4" d="M117.3 216.1c.8-.2 1.6-.8 2-1.6.2-.3.3-.7.4-1 .2-.2.5-.3.7-.2 0 .2-.1.5-.2.7-.2.6-.6 1.1-1 1.5-.2.2-.4.3-.7.5-.1 0-.2.1-.2.1-.3.2-.5.3-.8.4 0 0-.1.1-.1 0s.1-.2.1-.3c-.1-.1-.1-.1-.2-.1zm.9 42.3c.2-.2.3-.6.1-.8.1-1 .2-1.8.3-2.4.1-.7.2-1.5.3-2.2-.3 2.5-.4 5.1-.3 7.6-.2 0-.3.1-.4.3-.1.3-.1.6.2.7l.3.1c.3 2.1 1.1 3.6 2.6 3.9 0 .1.2.2.3.2 0 .2 0 .3-.2.4-3.1.8-4-2.8-3.9-7.7h.3c.1 0 .2 0 .4-.1zm0-25.7c.3 1.1.6 2.2.8 3.2-.3-.1-.6 0-.8.1-.3-1-.5-2-.8-3h.2c.2 0 .4-.1.6-.3z"/><path class="st4" d="M117.5 257.4h.3c.2 0 .3.1.4.2-.1.3-.1.6-.1.9-.1.1-.2.1-.3.1h-.3v-1.2zm0-40.9c.3-.1.6-.2.8-.4-.3.1-.5.3-.8.4zm.4 20.1c-.1.1-.1.3 0 .5h-.2c-.1-.1-.1-.2-.1-.3l-.1-.2h.4z"/><path class="st4" d="M120.6 239.1c.1.1.2.1.2.1-.4 3.1-.9 6.1-1.4 9.1-.3 1.5-.5 3.1-.7 4.6-.1.7-.2 1.5-.3 2.2-.1.6-.2 1.4-.3 2.4-.1-.1-.3-.2-.4-.2h-.3c.5-7 2.7-15.8 3.2-18.2z"/><path class="st10" d="M117.5 215.4c.4-.4.8-.7 1.2-1-.3.4-.7.7-1.2 1z"/><path class="st4" d="M118.1 237.2c-.1 0-.3-.1-.4-.2h.2c0 .1.1.2.2.2zm.2-6.9c.7-.7 1.4-1.2 2.3-1.6.1.1.1.3.1.4 0 .1 0 .1.1.2-1 .7-2 1.6-2.8 2.5-.1-.3-.2-.6-.2-.9.1-.2.3-.4.5-.6z"/><path class="st4" d="M118.2 236.3c0 .1.1.1 0 0 .2.1.2.2.2.3 0 .2-.1.4-.3.5h-.2c-.1-.1-.1-.3 0-.5 0-.1.1-.2.3-.3z"/><path class="st4" d="M118 237.2c-.1-.1-.2-.1-.2-.2h.2c.2-.1.3-.3.3-.5 0-.1-.1-.2-.1-.2v-.1c.2-.2.5-.3.8-.2.1.1.1.2.1.3.1.2 0 .4-.1.6-.3.3-.7.5-1 .3zm0-28.3c.3.3.6.6.8.9-.4.1-1-.1-.9-.6 0-.2.1-.2.1-.3z"/><path class="st4" d="M119.3 209.5c-.1.2-.3.3-.5.3-.3-.3-.5-.6-.8-.9 0-.2.1-.4.1-.6.2.2.4.3.6.5.2.2.4.4.6.7zm1.5 19.8c.2.2.4.3.7.2-.6.6-1.2 1.1-1.8 1.6-.5.5-1 1.2-1.5 1.7-.1-.4-.1-.7-.2-1 .8-.9 1.7-1.7 2.8-2.5zm-1.9 7.6c.6.5 1.3 1 2 1.5-.1 0-.2.1-.2.1 0 .1-.1.3-.1.5-.9-.5-1.7-1.1-2.5-1.8.3.1.7 0 .8-.3zm-.8-28.7c.7-3.6 2.4-6.5 4.4-9.5 1.5-2.3 3.2-5.4 6-6.3h.1c.1 0 .3.3.1.4-.8.6-1.6 1.3-2.3 2.1-.4.2-.8.5-1.1.9v.2h.1c-1.8 2.2-3.3 4.6-4.4 7.2-.1.1-.2.3-.2.5-.7 1.7-1.3 3.6-1.6 5.4v.1c-.2-.3-.4-.5-.6-.7-.1 0-.3-.1-.5-.3zm.1 28s.1.2 0 .1v-.1c-.1 0 0-.1 0 0zm.5 25.5l-.3-.1c-.1-.1-.2-.2-.3-.4-.1-.3.1-.6.4-.6.1.4.1.7.2 1.1zm-.4-4c.2.3.1.6-.2.8 0-.3.1-.6.2-.8zm.5-95.8l-.3-.9c-.1-.3.3-.5.5-.2l.5.9h-.3c-.3 0-.4.1-.4.2zm-.3 54.1c.2-.1.5-.3.7-.5-.3.2-.5.4-.7.5z"/><path class="st13" d="M119.5 248.3c.6-3.8 1.3-7.2 1.6-8.9 4.2 2.5 9 4 13.9 4.4-2.4 3.1-3.5 6.8-5.4 10.2-1.7 2.7-3.6 5.2-5.7 7.5-1.7.1-3.3-.2-4.8-1-.1-.1-.3-.1-.4 0-.1-2.5 0-5.1.3-7.6 0-1.5.2-3.1.5-4.6z"/><path class="st4" d="M122.9 262.6c-1.5 0-2.9-.3-4.3-.9-.1-.4-.1-.7-.1-1.1.1-.1.3-.1.4 0 1.5.7 3.2 1 4.8 1-.1.2-.3.3-.4.5s-.2.3-.4.5z"/><path class="st11" d="M119.6 231.1c.6-.5 1.2-1 1.8-1.6.2-.1.4-.3.4-.5-.2-1.9-1.2-3.5-1.3-5.4 2.3.9 4.8 1.5 7.2 2.3-.2.2-.2.6 0 .8 2.2 2.4 3.5 5.2 2.2 8.4-.5 1.2-1.2 2.3-2.2 3.2-.6.5-1 .8-1.2 1.5 0 .2.1.5.3.5v.1c-2.7-1-5.3-2.4-7.5-4.2l-.2-.2c-.3-1.1-.5-2.1-.8-3.2.4-.6.9-1.1 1.3-1.7z"/><path class="st4" d="M118.8 161.9c0-.1.1-.2.3-.2.2.4.4.8.5 1.1 0 .3 0 .5-.1.8-.1-.3-.2-.6-.4-.9-.1-.3-.2-.6-.3-.8z"/><path class="st12" d="M122.2 215.1c7.3 1.9 14.3 4.6 21.5 6.6 6.7 1.8 13.6 2.7 20.2 4.9 5.4 1.8 10.3 4.9 15.8 6.2 2.7.6 11.3 1.9 12.5 5.5-15.9-.9-30.1-5.5-45.3-10.3-6.9-2.2-14.2-5.7-21.3-7.2-.1 0-10-2.4-6.5-4.2 1.3-.7 1-2 3.1-1.5z"/><path class="st4" d="M119.3 236.2c2.2 1.8 4.8 3.3 7.5 4.2 6.7 2.5 14.4 2.4 21.8 1.2.2.1.4 0 .6-.1 4.5-.8 8.9-2.1 13.1-3.7l.6.2c-10.9 5.1-30.5 7.8-41.8.6 0-.1-.1-.1-.2-.1-.7-.4-1.3-.9-1.9-1.5.1-.2.2-.4.1-.6-.1-.1-.1-.2-.1-.3.1-.1.2 0 .3.1zm.1-74.5c.1.2.2.3.3.5v.1c0 .2-.1.4-.1.6-.2-.4-.3-.8-.5-1.1 0-.1.2-.1.3-.1zm.9 50c.1.5.2 1.1.1 1.6-.3-.1-.6 0-.7.2.3-1.3 0-2.7-.9-3.7.2 0 .4-.1.5-.3.5.6.8 1.4 1 2.2z"/><path class="st11" d="M120.9 203.9c0 .1.1.3.2.3 9.6 4.6 20.1 7 30.2 9.8 6.4 1.8 12.3 4.4 18.5 6.4 2.7.9 5.5 2.5 8.5 2.3 3.2 2.8 6.2 5.8 9 9 .9 1 1.7 2.1 2.6 3.1-.8-.4-1.6-.7-2.5-.9-6.1-1.9-11.8-3.2-17.8-5.9-7.6-3.4-15.5-4.7-23.5-7-8.6-2.5-17.1-5.6-25.8-7.8 0-.5 0-1.1-.1-1.6-.2-.8-.5-1.6-1-2.2v-.1c.5-1.9 1-3.7 1.7-5.4z"/><path class="st4" d="M119.7 162.2c-.1-.1-.2-.3-.3-.5.2.1.3.3.3.5zm7.9 16.2l-.3.6c-3.7-4.3-5.9-10.1-7.9-15.4 0-.2.1-.5.1-.8 2.5 5.4 4.8 10.7 8.1 15.6z"/><path class="st4" d="M119.6 162.2c2.8 5.1 5.7 10.3 8.2 15.5-.1.2-.3.4-.3.6-3.2-4.9-5.6-10.2-8-15.5.1-.1.1-.3.1-.6zm.5 61.2c-.4.9.6 3.6 1 5.1-.2 0-.4.1-.5.2-.4-1.3-1.4-4.4-.7-5.4 0 0 .1.1.2.1zm-.9-7.9c.4-.4.8-1 1-1.5-.2.5-.5 1.1-1 1.5z"/><path class="st4" d="M119.9 223.2c.1-.2.3-.3.6-.3.1 0 .1 0 .1.1v.5c-.1 0-.3-.1-.4-.2-.2.1-.3 0-.3-.1z"/><path class="st4" d="M120.5 223.6c.1 1.9 1.1 3.5 1.3 5.4 0 .2-.1.5-.4.5.1-.1.2-.2.2-.3.1-.1.1-.2.1-.4-.1-.3-.3-.5-.6-.4-.3-1.5-1.4-4.2-1-5.1.2.1.3.2.4.3z"/><path class="st12" d="M146.2 221.1c8 2.3 15.9 3.6 23.5 7 6 2.7 11.6 4 17.8 5.9.8.2 1.7.5 2.5.9.4.4.7.9 1.1 1.3-3.6-2.4-11.4-3.6-13.9-4.4-4.6-1.6-8.8-4.1-13.2-5.5-5.1-1.9-10.7-2.8-15.7-3.9-9.5-2.3-18.7-6.2-28-8.3.1-.2.2-.4.2-.7 8.6 2.1 17.1 5.2 25.7 7.7z"/><path class="st4" d="M121 239.3c-.3 1.8-1 5.2-1.6 9 .5-3.1 1-6.1 1.4-9.1.1.1.1.1.2.1z"/><path class="st4" d="M120.6 239.2c.1-.2.1-.3.1-.5 0-.1.1-.2.2-.1 0 .1.1.1.2.1-.1.2-.1.5-.1.7-.1 0-.1-.1-.2-.1l-.2-.1zm.6-10.7c0 .2 0 .3.1.5-.2.1-.3.2-.5.3 0-.1-.1-.1-.1-.2-.1-.1-.1-.3-.1-.4.2-.1.4-.2.6-.2z"/><path class="st4" d="M121.2 228.5c.1 0 .2 0 .3.1.2.1.3.4.2.7-.1.1-.1.2-.2.3-.3.1-.5 0-.7-.2.2-.1.3-.2.5-.3-.1-.3-.1-.5-.1-.6zm-.1 10.1c-.1 0-.1-.1-.2-.1.1-.1.2 0 .2.1zm-.2-34.7c0-.2.1-.4.2-.5 0 .2-.1.3-.2.5z"/><path class="st12" d="M122.9 262.6c-.6.8-1.2 1.7-1.7 2.6-.1.1-.1.3 0 .4-1.4-.3-2.2-1.8-2.6-3.9 1.4.6 2.9.9 4.3.9z"/><path class="st4" d="M149 212.7c0 .1.1.2.1.2.1.1.4.1.5 0 2.2.6 4.3 1.2 6.5 1.8 4.7 1.4 9.3 3.5 14 5.2 2.2.7 6.3 2.6 8.1 2.6 0 .1 0 .2.1.2l.1.1c-2.9.2-5.7-1.4-8.5-2.3-6.2-2.1-12.2-4.7-18.5-6.4-10.1-2.8-20.7-5.2-30.2-9.8-.1-.1-.2-.2-.2-.3.1-.1.1-.3.2-.5.1-.1.2-.1.4-.1 6 1.6 11.9 3.6 17.8 5.6 0 0 0 .1.1.1.1.2.4.2.5.1 3 1 6 2 9 2.8v.7zm-27.9 25.9c11.3 7.2 30.8 4.5 41.8-.6.2 0 .3.1.5.2l-.1.1c-.2.1-.5.2-.7.4v-.1c0-.1-.3-.1-.3 0v.3c-4.6 2.2-9.5 3.7-14.5 4.5 0 0 0-.1-.1-.1-.1-.2-.4-.3-.6-.2-.1.1-.2.2-.2.4-3.6.5-7.3.7-11 .3 0-.1.1-.2.1-.2.2-.3-.3-.5-.5-.4s-.3.4-.4.5c-4.9-.4-9.6-1.9-13.9-4.4-.1-.2 0-.5-.1-.7zm6.6 19.8c-.1.4.2.8.6.8-1.6 2.7-3.8 5-6.5 6.7h-.3c0-.1-.1-.2-.2-.2h-.1c-.1-.1-.1-.3 0-.4.5-.9 1.1-1.7 1.7-2.6.8.1 1.5-.3 1.9-1 0-.1 0-.2-.1-.2h-.9c2-2.4 4.2-4.7 5.7-7.5 1.9-3.4 2.9-7.1 5.4-10.2h.4c-2.9 3.8-3.8 8.9-6.4 12.9-.2.3-.4.5-.6.8-.4.2-.6.5-.6.9 0-.1 0 0 0 0z"/><path class="st9" d="M125.6 196.2c2.2.2 4.5-.5 6.7-.5 1.9.2 3.7.3 5.6.2 1.9 4.2 1.2 8.3 1.5 12.9v.1c-5.9-2-11.8-4-17.8-5.6-.1 0-.3 0-.4.1 1.1-2.6 2.6-5 4.4-7.2z"/><path class="st4" d="M121.6 265.9c-.1 0-.3-.1-.3-.2h.1c.1-.1.2 0 .2.2zm2.2-4.4h.9c.1 0 .1.1.1.2-.4.7-1.1 1.1-1.9 1 .1-.2.3-.4.4-.6.2-.2.4-.4.5-.6zm1.7-65.3c-.1-.1-.2-.1-.1-.2.3-.4.7-.7 1.1-.9-.2.3-.5.5-.7.9-.1 0-.2.1-.3.2z"/><path class="st4" d="M125.8 195.9c3-1.4 8.2-.7 11.8-.6.1.2.2.4.2.6-1.9.1-3.7 0-5.6-.2-2.2 0-4.5.7-6.7.5.1-.1.3-.2.3-.3z"/><path class="st4" d="M126.6 195c1.4-.5 2.8-.7 4.2-.6 2.2-.2 4.5-.1 6.7.3-.1.1-.1.3 0 .4.1.1.1.2.1.3-3.6-.1-8.8-.8-11.8.6.3-.4.5-.7.8-1zm1.2 43.2c1-.9 1.8-2 2.2-3.2 1.3-3.1.1-6-2.2-8.4-.2-.2-.2-.6 0-.8.4.1.9.3 1.3.4 2.3 2 3.4 5 2.8 8-.4 2-2.5 6.5-5 6-.2-.1-.4-.3-.3-.5.1-.7.5-1 1.2-1.5z"/><path class="st11" d="M131.8 234.3c.6-3-.4-6-2.8-8 .2 0 .4.1.5.2 5.3 1.9 10.5 3.8 15.9 5.6.6.2 1.3.5 2 .7-1.7 2.8-1.3 6.4 1 8.7l.1.1c-7.4 1.2-15.1 1.3-21.8-1.2v-.1c2.7.5 4.7-4.1 5.1-6z"/><path class="st4" d="M127.8 179.6c-.3 0-.6-.3-.5-.6.2.2.3.4.5.6z"/><path class="st4" d="M128.3 178.4l.3.6v.1c-.1.1-.2.3-.4.4-.1.1-.2.1-.4.1-.2-.2-.4-.4-.5-.6l.3-.6c.1.2.2.4.4.5 0-.2.1-.3.3-.5zm10.4-50.7c5.6 2 12.3-1.6 13.8-7.2.1-.2.2-.3.4-.2-.1 0-.2.2 0 .3.1.1.2.2.3.2-.2 5.3-5.7 8.3-10.5 8.7-6.9.7-11.8-5.1-15-10.3v-.2c0-.2-.1-.5-.4-.5 0-.2.1-.5.3-.6.3-.2.7-.1.9.2 2.6 4.3 5.5 7.9 10.2 9.6z"/><path class="st4" d="M127.5 118.6c.2.1.3.4.2.6-.1-.1-.2-.3-.3-.4 0-.1-.1-.2-.1-.3.1.1.1.1.2.1zm.4 59.1c.1.2.2.5.4.7-.1.1-.2.3-.3.5-.1-.2-.2-.4-.4-.5.1-.3.2-.5.3-.7zm.5 81.3c-.4-.1-.6-.4-.6-.8.2-.2.4-.5.6-.8h1c-.2.3-.3.6-.5.9s-.4.5-.5.7zm-.1-1.5c-.2.3-.4.5-.6.8 0-.3.2-.7.6-.8zm.7-31.3c-.4-.1-.9-.3-1.3-.4.1-.2.4-.2.6-.1.3.2.5.3.7.5zm1-51.4c1.1-1.6 2.2-3.4 3.1-5.1 0-.1.1-.2.3-.2v1.1c-1.3 3.1-3.2 5.3-5 7.9-.1-.2-.2-.5-.4-.7.6-1.1 1.3-2.1 2-3zm-1.8 4.7c.1-.1.3-.2.4-.4.1.4-.4.9-.8.5.2 0 .3 0 .4-.1z"/><path class="st4" d="M133.3 170.5c-.1.5-.1 1 0 1.5-.5 1.1-1.1 2.1-1.7 3.1-.9 1.4-1.9 2.8-3 4v-.1l-.3-.6c1.8-2.6 3.7-4.8 5-7.9zm2 73.4h.4c-2.6 4.2-4.1 9.2-6.4 13.6h-1c.2-.3.4-.5.6-.8 2.6-4 3.5-9.1 6.4-12.8zm-6.5 14.4c7.6 0 16.1-1.9 23.4-.3.1.1.1.3.2.4-8-1-15.9.6-23.9.7h-.1c.1-.3.2-.5.4-.8z"/><path class="st4" d="M152 257.5c.1.2.1.3.2.5-7.3-1.6-15.8.3-23.4.3.1-.3.3-.6.5-.9 7.5-.1 15.3-1.7 22.7.1z"/><path class="st5" d="M146.7 243.4c0 .1 0 .1 0 0 1.5 4.6 3.2 9.4 5.3 14-7.4-1.7-15.2-.2-22.8 0 2.4-4.4 3.9-9.4 6.4-13.6 3.8.3 7.5.2 11.1-.4z"/><path class="st4" d="M133.3 169.5h.4c0 .5 0 .9.1 1.4-.1.4-.3.8-.5 1.1-.1-.5-.1-1 0-1.5v-1z"/><path class="st4" d="M133.3 169.4v-.4c0-.4.7-.5.7-.1.5 2.8.8 5.6.9 8.5l-.6.6c-.1-2.4-.5-4.8-.6-7.1.1-.2.2-.5.3-.7.1-.3-.1-.5-.3-.6-.1-.2-.2-.2-.4-.2z"/><path class="st4" d="M134.3 178l-.2.2c-.2.2.2.5.3.4s.3-.2.4-.3v.1c-.1.2-.2.3-.3.3-.3.1-.6 0-.7-.3-.2-2.1-.6-4.3-.6-6.4.2-.4.3-.8.5-1.1.2 2.3.6 4.7.6 7.1zm-.3-7.9c-.1.3-.2.5-.3.7 0-.5-.1-.9-.1-1.4.3.1.5.4.4.7z"/><path class="st4" d="M134.3 178v.4c.2-.1.4-.3.5-.5v.4c-.1.1-.3.2-.4.3-.2.1-.5-.2-.3-.4l.2-.2z"/><path class="st4" d="M134.4 178l.6-.6v.5c-.2.2-.4.3-.5.5l-.1-.4z"/><path class="st4" d="M144.7 159.3c-.1 1.2-.1 2.4 0 3.5-1.6 6.2-5.2 12.2-9.8 15.4v-.4c4.6-3.6 8.5-11.4 9.8-18.5z"/><path class="st4" d="M144.7 159.2v.1c-1.3 7.1-5.2 14.9-9.8 18.6v-.5c6.8-7 10.2-16.6 9.6-26.3 0-.2.4-.3.4-.1.8 3 .9 6 .3 9.1l-.1-.9c0-.2-.3-.2-.4 0zm-9.8 84.5c.1-.2.2-.3.4-.5s.6.1.5.4c-.1.1-.1.1-.1.2h-.4c-.1 0-.3 0-.4-.1zm2.4-56.9c-.2 0-.4.1-.4.3v-.1c0-.1.1-.2.2-.2h.2z"/><path class="st4" d="M137.1 187.3l.4.1c4.5 6.8 10.3 12.7 14.2 19.9-.1.1-.1.2-.1.3.1.2.2.4.4.5-.1 0-.2-.1-.2-.1-.1-.1-.2-.3-.3-.4v-.1c-2.4-3.6-5.2-6.9-7.9-10.4.2 0 .3-.1.5-.2.3-.2.1-.7-.2-.7h-1.1c-2.2-2.8-4.1-5.7-5.8-8.9v-.3c-.1.2 0 .3.1.3z"/><path class="st4" d="M137 187.3c-.1 0-.1-.1-.1-.2.1-.2.2-.3.4-.3.1 0 .2 0 .3.1s.1.2.2.2l.5.5c-.3-.1-.5-.2-.8-.3h-.5z"/><path class="st4" d="M155 190.7c-5.6-1.6-11.4-2.8-17.1-3.6-.1-.1-.1-.2-.2-.2-.1-.1-.2-.1-.3-.1 5.8 0 11.6 1.1 17.1 3l.5.9zm-16.8 4.6h-.6c0-.1-.1-.2-.1-.3-.1-.1-.1-.3 0-.4.4.1.7.2 1.1.3l.3.3.1.1c0 .2-.1.4-.3.4h-.1c-.1-.1-.2-.3-.4-.4zm13.9 12.3c0-.1-.1-.2-.1-.2-.1-.1-.2-.1-.3 0-3.9-7.3-9.7-13.1-14.2-19.9.3.1.5.2.8.3 5.1 5.8 10.7 12.6 13.8 19.8z"/><path class="st4" d="M137.5 194.5c.1-.2.3-.2.5-.1s.4.3.6.5c-.4-.1-.7-.2-1.1-.4zm.8.8c.1.1.2.3.3.4-.2 0-.4.1-.7.1-.1-.2-.1-.4-.2-.6l.6.1zm16.7-4.5c0 .1.1.1.1.2l.1.1c.2.1.4.1.5-.1 2 .6 3.9 1.3 5.8 2.2v.1c.1.2.4.3.6.2l.1.1v.4c-3.7-1.4-7.5-2.6-11.4-3.6-4.1-1-8.5-1.4-12.6-2.7-.1-.2-.3-.4-.5-.5 6 .8 11.7 2 17.3 3.6zm-14.8 6.6c1 2.9 1.3 6.1.7 9.1-.2.1-.4.2-.6.4-.2.2-.2.4 0 .6.1.1.2.1.3.2-.1.4-.3.9-.6 1.3l-.1.1-.6-.2v-.1c-.2-4.6.4-8.7-1.5-12.9.2 0 .4-.1.7-.1l.3.6c-.1 0-.1 0-.2.1-.1 0-.1.1-.1.1-.1.2 0 .3.1.4l.6.3c.3.1.7.1 1 .1z"/><path class="st4" d="M138.6 195.7c.2-.1.3-.2.3-.4.3.2.5.5.6.8-.2 0-.5.1-.7.2 0-.2-.1-.4-.2-.6zm.7 1.5l-.6-.3c-.1 0-.1-.1-.1-.1-.1-.2 0-.3.1-.4.1 0 .1-.1.2-.1.1.1.1.2.2.4 0 .2 0 .4.2.5zm-.4-2l-.3-.3c.2 0 .3.2.3.3z"/><path class="st4" d="M139.6 196.1l.3.6h-.9c0-.1-.1-.2-.2-.4.3-.1.5-.2.8-.2zm.4.6c.1.2.2.4.3.7-.3 0-.7 0-1-.1-.1-.2-.1-.4-.2-.5l.9-.1zm-.2 12.4c-.2.1-.4-.1-.5-.2l.6.2h-.1z"/><path class="st4" d="M142.8 196.3l.4.5c-1.1 0-2.2 0-3.2-.1l-.3-.6h1.5c.4.1.9.2 1.6.2zm1.4-17.2c.2 1.7.5 6.1-1.2 7.2-.1.1-.2 0-.3 0v-.3l.1.2c1-1.5 1.9-10.9-1.5-9.6-2.6.8-.7 10.7 1 9l.3.4-.1.1c-.3.4-.8.4-1.1.2-.7-.6-1.2-1.5-1.3-2.4-.6-2-1.2-5.8.5-7.4 2-1.9 3.4 1.1 3.6 2.6z"/><path class="st11" d="M140.6 207.7c1.3.8 3.2.4 4.6.5 1.8.1 3.7.5 5.6.5.3 0 .6-.2.7-.5v-.2c0-.1 0-.2-.1-.3.1.1.2.3.3.4 0 .1.1.1.2.1.8 1.3 1.8 2.5 2.8 3.6.8.9 1.6 1.8 2.5 2.7-1.8-.7-3.6-1.3-5.5-1.8-.6-.2-1.3-.4-1.9-.6.2-1.1.1-2.2-.1-3.2 0-.1-.1-.2-.2-.2-.1-.1-.3 0-.4.2-.3 1-.4 2-.2 2.9-3-.8-6-1.8-9-2.8l.1-.1c.3-.3.5-.7.6-1.2z"/><path class="st4" d="M143.2 196.8c.1.1.2.3.3.4-.7.2-1.3.2-2 .2h-1.3c-.1-.2-.2-.5-.3-.7 1.1.1 2.2.1 3.3.1zm-.8-11.2c-1.6 1.7-3.5-8.2-1-9 3.4-1.3 2.5 8.2 1.5 9.6l-.1-.2-.4-.4zm.3.3v-.4c.4-2.4 1.4-8.8-1-8.4-2.1.3-1.2 8.1.7 8.2.1 0 .3.1.4.2 0 .1-.1.3-.1.4zm-2.1 21.8c-.1 0-.2-.1-.3-.2-.2-.2-.2-.4 0-.6.2-.2.4-.3.6-.4l-.2.7c0 .2 0 .4-.1.5z"/><path d="M143.5 197.3c2.7 3.4 5.5 6.8 7.9 10.4-.1-.1-.2-.2-.4-.3-1.9-.5-3.8-.8-5.8-.9-1.3-.1-3.1-.6-4.3 0 .6-3 .4-6.2-.7-9.1h1.3c.7.1 1.3 0 2-.1z" fill="#2268b2"/><path class="st4" d="M140.9 206.5c1.2-.5 3-.1 4.3 0 1.9.1 3.9.4 5.8.9.2 0 .3.1.4.3l.1.1c.1.1.1.2.1.3v.2c-.1.3-.4.5-.7.5-1.9 0-3.7-.3-5.6-.5-1.4-.1-3.4.2-4.6-.5.1-.1.1-.3.1-.5l.1-.8zm1.9-21.1c-.1-.1-.2-.2-.4-.2-1.9-.1-2.7-7.9-.7-8.2 2.4-.4 1.4 6 1.1 8.4z"/><path class="st4" d="M142.8 185.4v.1c0 .1 0 .2-.1.3.1-.1.1-.2.1-.4zm.3 11.5l-.4-.5h1.1c.3 0 .5.5.2.7-.2.1-.4.2-.6.2-.1-.2-.2-.3-.3-.4z"/><path class="st10" d="M150.9 190.4c3.8 1 7.6 2.1 11.3 3.5-.4 2.4-.3 5-.6 7.4v.1c0 .2.2.4.5.4 0 .1.1.3.3.3 1.7.4 3.1 1.8 3.5 3.5-.1 0-.2.1-.2.2-.2.3-.1.7.2.8 4.5 2.3 7.8 6.3 11 10 2.7 3.2 5.4 6.1 7.2 9.8-1.6-1.6-3.4-3.1-5.3-4.4-.1-.1-.2-.1-.3 0-6.9-1.6-13.5-4.7-20.2-7.2v-.2c-.7-1.3-1.7-2.6-2.8-3.6-1.1-1.2-2.1-2.3-3.2-3.5-3.2-7.2-8.7-13.9-13.9-19.9 4 1.4 8.3 1.7 12.5 2.8z"/><path class="st4" d="M144.7 162.8c-.1-1.2-.1-2.4 0-3.5v-.1c.1-.2.4-.2.4 0l.1.9c-.1.4-.1.9-.2 1.3s-.2 1-.3 1.4zm8.7 23.4c.6 1.2 1 2.5 1.6 3.8-.2-.1-.4-.2-.6-.2-4.4-8-9.2-17.5-9.7-26.9.1-.4.2-.9.3-1.4.6 8.5 4.9 17.2 8.4 24.7z"/><path class="st4" d="M155.5 190.1c-.2-.1-.3-.1-.5-.1-.6-1.2-1-2.5-1.6-3.8-3.5-7.5-7.7-16.2-8.4-24.8.1-.4.2-.9.2-1.3 1.8 10.6 6.3 20.1 10.3 30zm-7.9 53.3c-.3.1-.6.1-1 .1 0-.2.1-.3.2-.4.2-.1.5-.1.6.2.1 0 .2 0 .2.1z"/><path class="st4" d="M156.6 265c0 .4.3.8.6 1-.3.1-.7.1-.9-.2-1.5-2.3-2.8-4.8-4-7.3h.5c.2 0 .4-.1.4-.3 0-.2-.1-.3-.2-.4-.4-.1-.7-.2-1.1-.3-2.1-4.6-3.8-9.5-5.3-13.9v-.1c.3-.1.6-.1 1-.1 3.1 5.5 5.8 11.2 8.1 17h-.2c-.2.1-.3.4-.1.5l.6.2c.5 1.2.9 2.3 1.3 3.4h-.4c-.1 0-.3.1-.3.2.1.1 0 .2 0 .3zm-8.3-32c-1.2 2.6-1.5 5.1.8 7.6.2.2.2.6 0 .8l-.6.1-.1-.1c-2.3-2.3-2.7-5.9-1-8.7l.4.1.5.2z"/><path class="st4" d="M147.9 232.2c.1.1.3.1.4.1-.1.2-.3.4-.4.6l-.4-.1c.1-.2.2-.4.4-.6z"/><path class="st4" d="M148.3 231.7l.4.1c-.1.2-.3.3-.4.5-.1 0-.3-.1-.4-.1.1-.2.2-.3.4-.5zm0 .6l.4.1-.3.6-.5-.1c.1-.2.2-.4.4-.6z"/><path class="st11" d="M160.7 237.1c.5.2 1.1.4 1.6.6-4.3 1.6-8.7 2.8-13.1 3.6.2-.2.2-.5 0-.8-2.3-2.5-2.1-5-.8-7.6 4.1 1.4 8.3 2.7 12.3 4.2z"/><path class="st4" d="M148.3 231.7c.1-.1.2-.3.3-.4.1-.1.3-.1.4 0 .1.1.2.3.1.4 0 .1-.1.2-.1.3-.1-.1-.2-.1-.3-.1l-.4-.2z"/><path class="st4" d="M148.6 231.8c.1 0 .2.1.3.1l-.3.5-.4-.1c.2-.1.3-.3.4-.5zm8.4 3.4c4.8 1.5 10.1 4.4 15.1 5.1-.1 0-.1.1-.1.2-2.1-.1-4.1-.6-6.1-1.3-.1-.2-.3-.4-.4-.5s-.1-.1-.2-.1-.3.2-.2.3c-.6-.2-1.1-.4-1.7-.6.2-.3 0-.8-.4-.6l-.6.2c-.5-.2-1.1-.4-1.6-.6-4-1.6-8.2-2.8-12.3-4.1l.3-.6c2.6.8 5.4 1.7 8.2 2.6zm-8.4 6.4l.6-.1c-.2.1-.4.1-.6.1zm.7-92.8c-.2-.1-.4-.3-.6-.4-.1-.1-.1-.1 0-.2.2 0 .5.1.7.2.2.1.3.2.5.3l-.1.1h-.5z"/><path class="st4" d="M148.7 148.1c.1-.1.2-.1.2 0 .2.1.3.2.5.3-.2-.1-.5-.1-.7-.2v-.1zm23.9 92h-.2c-.1 0-.2 0-.3.1-5-.7-10.4-3.6-15.1-5.1-2.8-.9-5.5-1.8-8.3-2.7l.3-.5c7.8 2.9 15.6 5.7 23.6 8.2zM149 211.9c-.2-1-.1-2 .2-2.9 0-.1.1-.2.2-.2.1-.1.3 0 .4.2.3 1 .3 2.1.1 3.2l-.4-.1-.5-.2z"/><path class="st4" d="M149.9 212.2c0 .2-.1.4-.1.5s0 .1-.1.1l-.6-.2c-.1-.2-.1-.5-.1-.8l.5.2.4.2zm-.2.6s-.1.1-.2.1c-.2.1-.4 0-.4-.2l.6.1zm14-44.7c1.8 6 2.7 14.7.2 21.2l-.9.3c5.4-13.8-1.6-33-13.7-40.8.1 0 .3 0 .4-.1 7.1 4.2 11.8 11.7 14 19.4z"/><path class="st4" d="M149.9 212.2c.6.2 1.3.4 1.9.6 1.8.5 3.7 1.1 5.5 1.8.2.2.4.4.7.6.1.1.3 0 .3-.1v-.1c6.7 2.5 13.3 5.6 20.2 7.2-.2.1-.3.2-.3.4-1.8.1-5.9-1.9-8.1-2.6-4.7-1.7-9.4-3.8-14-5.2-2.1-.6-4.3-1.2-6.5-1.8.1 0 .1-.1.1-.1.1-.4.1-.5.2-.7zm12.5-49.5c.2.7.3 1.3.5 1.9.1.2.3.4.5.4 1.6 3.5 2.6 7.2 3 11-.1 0-.2.1-.4.1-.1.1-.2.2-.2.4s.2.4.4.4h.2c.4 4.1-.2 8.2-1.7 12.1-.3.1-.6.2-.8.4 2.5-6.5 1.5-15.2-.2-21.2-2.3-7.7-6.9-15.2-13.9-19.4l.1-.1c5.4 3.4 9.7 8.3 12.5 14zm-10.7 44.6c.1-.1.2 0 .3.1l.2.2h.1v.1c.1.1.1.3 0 .4 0 .1-.2.2-.3.1-.1-.2-.2-.4-.4-.5v-.1c-.1-.1 0-.2.1-.3 0 .1 0 .1 0 0z"/><path class="st4" d="M158 214.8c-.3-.1-.5-.2-.8-.3-.9-.9-1.7-1.8-2.5-2.7-1-1.1-1.9-2.3-2.8-3.6.1 0 .2 0 .3-.1 1.8 2.4 4.1 4.5 5.8 6.7zm-6 42.7c.4.1.7.1 1.1.3.1.1.2.2.2.4s-.2.3-.4.3h-.5c-.1-.1-.1-.3-.2-.4s-.1-.4-.2-.6z"/><path class="st4" d="M155.4 211.1c1.1 1 2.1 2.2 2.8 3.6v.2l-.3-.1c-1.8-2.2-4-4.3-5.8-6.7.1-.1.1-.3 0-.4v-.1c1.2 1.2 2.3 2.3 3.3 3.5zm-2.3-90.5v.2c-.1-.1-.2-.1-.3-.2-.2-.1-.1-.3 0-.3.2 0 .3.1.3.3 0 0 .1 0 0 0z"/><path class="st4" d="M167.2 141.5c0 .1-.1.2-.1.3 0-.1-.1-.2-.1-.3l-.1-.1c-.4-6.7-7.8-17.5-13.6-20.9 0-.1-.1-.2-.3-.2.1-.1.1-.1.2 0 6.4 3.5 14.6 13.3 14 21.2z"/><path class="st4" d="M153.1 120.5c5.8 3.4 13.2 14.2 13.6 20.8-.1-.2-.3-.4-.5-.5-2.2-7.6-6.4-15.5-13.1-20 .1 0 .1-.1 0-.3.1.1.1.1 0 0zm2.4 69.6c.1.2.2.4.2.6.1.1.1.2 0 .3-.2-.1-.5-.2-.7-.2l-.6-1c.2 0 .4.1.6.2.1 0 .3 0 .5.1z"/><path class="st4" d="M155.7 191l-.1.1c-.2.1-.4.1-.5-.1-.1-.1-.1-.2-.1-.2.2 0 .5.1.7.2zm.3 70.2l-.6-.2c-.2-.1-.1-.4.1-.5h.2c.1.1.1.2.1.3.1.1.2.2.2.4z"/><path class="st13" d="M162.1 238.8c-.7 4.4-.2 9 0 13.4.1 2.5 0 5-.3 7.5-2 .6-4.2 0-6.1.7-2.3-5.8-5-11.5-8.1-17 5.1-.9 9.9-2.4 14.5-4.6z"/><path class="st4" d="M161.6 192.7s-.1.1 0 .1c-.1.1-.1.2 0 .4-1.9-.8-3.8-1.6-5.8-2.2.1-.1.1-.2 0-.3-.1-.2-.2-.4-.2-.6 2 .8 4.1 1.6 6 2.6zm.3 67.1c0 .1-.1.3-.1.4-1.7.7-4.2.5-5.9.5 0-.1-.1-.2-.1-.3 1.8-.7 4.1-.1 6.1-.6z"/><path class="st4" d="M161.7 260.2v.5c-1.8.8-3.8 1-5.7.5 0-.1-.1-.3-.2-.4 1.8 0 4.2.1 5.9-.6z"/><path class="st12" d="M161.8 260.7c-.1 1.4-.4 2.8-.6 4.2-.7 0-1.3.1-2 .1-.6-.1-1.2-.2-1.8-.4-.4-1.1-.9-2.3-1.3-3.4 1.8.5 3.9.3 5.7-.5z"/><path class="st4" d="M157.4 266c-.4-.2-.6-.6-.6-1v-.2c0-.1.1-.3.3-.3h.4c.1.2.2.4.2.6v.1c0 .4-.1.7-.3.8zm9.1-124.1c.1.1.3.1.5 0 0 .1-.1.2-.1.3-.2.1-.4.1-.6 0-2.5-2-9.2-6.1-7.7.7.5 2.1 1.2 4.1 2 6.1 1.8 5 2.5 10.3 3.4 15.6 0 .3-.2.6-.5.6-.3-.8-.6-1.5-1-2.2v-.1c-1.1-4.5-1.5-9.2-3-13.6-1.3-3.9-2.9-7.8-2.3-12 .1-.2.3-.4.6-.4 3.3.3 6.3 1.7 8.6 4.1.1.3.1.5.2.7-.1 0-.1.1-.1.2zm-8.2 73c0 .2-.2.3-.4.2-.2-.2-.5-.4-.7-.6.3.1.5.2.8.3l.3.1z"/><path class="st4" d="M159 265c.7 0 1.4-.1 2-.1v.3c-1.1.4-2.3.5-3.5.1v-.1c-.1-.2-.1-.4-.2-.6.6.2 1.2.3 1.7.4z"/><path class="st4" d="M161 265.2v.3c-1 .4-2.7 1-3.7.4.2-.1.4-.4.3-.6 1.1.3 2.3.3 3.4-.1z"/><path class="st7" d="M166.9 142.1l.4-.1v.1c-.1.1 0 .3.1.3 12.2 8.7 23.5 19.9 28.1 34.5-3.1-2.6-7.9-4-11.5-5h-.1c-.2 0-.4.2-.4.4-.1.1-.2.2-.1.4 1.9 6.6 5.8 12.2 7 19-2.5-.9-4.5-2-7.3-2.5s-6.5-1.9-9.2-.9c-.1 0-.2.1-.2.2v.2c0 1.7.3 3.4.8 5.1.3 1.5.5 3.1.4 4.7-1-1-3.1-1.4-4.3-1.8-2.4-.9-4.7-2.4-7.4-2.3v-.5c.1-.2 0-.4-.1-.5l-.6-.3c.6-.8 1.1-1.6 1.5-2.5 3.8-1.2 9-4.8 8.5-9.1-.3-3-2.6-6.8-6-5.5-.4-3.8-1.4-7.5-3-11 .3 0 .5-.3.5-.6-.9-5.2-1.6-10.6-3.4-15.6-.8-2-1.5-4-2-6.1-1.5-6.7 5.2-2.7 7.7-.7.2.3.4.2.6.1z"/><path class="st4" d="M161.6 265.2c.1-.1.1-.2 0-.3.7-1.6 1.1-3.3 1.2-5.1 0 0 .1-.1 0-.2 0-.1.1-.3 0-.4.3.1.6.2.8.4-.1 2.2-.9 4.4-2.2 6.1-.2.3-.5 0-.5-.2.1 0 .3-.1.4-.2.2 0 .3-.1.3-.1z"/><path class="st4" d="M161.2 264.8h.3c.1 0 .1 0 .2.1 0 .1-.1.2-.2.4-.1.1-.3.1-.4.2v-.3c0-.2 0-.3.1-.4z"/><path class="st4" d="M161.8 260.7c.4-.2.8-.5 1.1-.8v-.1c-.1 1.8-.6 3.5-1.2 5.1 0-.1-.1-.1-.2-.1h-.3c.2-1.4.4-2.7.6-4.1zm-.1 4.3c0 .1 0 .2-.1.2l-.1.1c0-.1.1-.2.2-.3-.1 0 0 0 0 0zm.8-71.8l-.1.1c0 .1-.1.1-.2.2l-.6-.3c-.1-.1-.1-.2 0-.4 0 0-.1-.2 0-.1s.3.2.4.2l.5.3zm-.4.3c-.2.1-.5-.1-.6-.3l.6.3zm.7 1.7c.2.1.4.1.6.2.2 2 0 4-.6 5.9h-.4c-.2.1-.4.4-.3.6h-.1c-.2 0-.4-.3-.3-.5.3-2.4.2-5 .6-7.4l.5.1v.4c-.1 0-.2.1-.2.2-.1.2-.1.4.2.5-.1 0-.1 0 0 0zm-.2-4.4c.2.2.4.2.6.1h.1c-.3.7-.7 1.4-1.2 2-.1-.1-.3-.1-.4-.2.3-.6.6-1.3.9-1.9z"/><path class="st4" d="M161.9 259.7c.2-.1.5-.2.7-.2h.1c.1 0 .2.1.2.2v.3c-.3.3-.7.6-1.1.8v-.5c0-.2 0-.4.1-.6z"/><path class="st4" d="M162.2 252.2c-.2-4.4-.7-9.1 0-13.4.1 0 .1-.1.2-.1 0 2.6.3 5.1.3 7.7 0 3.4.5 7.9.3 11.9h-.3c-.2 0-.3.1-.4.3-.1.2 0 .5.3.5.1 0 .2.1.4.2 0 .1-.1.3 0 .4v-.1c-.1-.1-.2-.1-.3 0-.2.1-.5.2-.7.2.1-2.5.2-5 .2-7.6zm-.1-50.3v-.3c.1-.2.3-.4.6-.3h.1c0 .1 0 .1-.1.2 0 .1-.1.2-.1.2-.2.1-.3.2-.5.2zm1.2-11c.2-.1.5-.1.7-.2-.4.9-.9 1.7-1.5 2.5l-.4-.2 1.2-2.1z"/><path class="st4" d="M162.5 201.7c2.1.3 3.7 1.9 3.9 4-.2-.1-.4-.1-.6 0-.4-1.7-1.7-3.1-3.5-3.5-.1 0-.3-.1-.3-.3.3 0 .4-.1.5-.2zm-.3 37.1v-.3c0-.1.3-.1.3 0v.1l-.3.2zm.1-45.5c0-.1.1-.1.1-.1l.6.3h.1c.1.1.1.4 0 .5v-.4c0-.1-.1-.2-.2-.3-.2-.1-.4 0-.6.1l-.1-.1c0 .1.1.1.1 0z"/><path class="st4" d="M162.3 193.9v-.4c.1-.1.1-.2.2-.2.2-.1.4.1.5.3v.4c-.1.1-.2.1-.4.1h-.1l-.2-.2zm0 43.9l.6-.2c.4-.2.6.4.4.6-.1-.1-.3-.1-.5-.2l-.5-.2zm1.5 16c.1 1.4.1 3 .1 4.5-.3-.1-.6-.1-.9-.1.2-4-.3-8.5-.3-11.9 0-2.6-.3-5.1-.3-7.7l.2-.1c1 5.1.9 10.3 1.2 15.3zm-.9 5.4c-.1-.1-.2-.1-.4-.2s-.3-.3-.3-.5c.1-.2.2-.3.4-.3h.3v1zm.6-94.1c-.2 0-.4-.1-.5-.4-.2-.6-.4-1.2-.5-1.9.3.8.7 1.5 1 2.3z"/><path class="st5" d="M163.3 238.2c.6.2 1.1.4 1.7.6.7 2.6 1.6 5 1.9 7.7.1 1.3.2 2.7 0 4-.1.9-.6 1.8-.4 2.6.1.2.3.4.5.3.1 0 .2-.1.2-.1.1.1.2.2.4.2 7.6-.6 16 2.8 22.4 6.7 0 2.6-1.2 3.7-3.5 3.3h-2.3c-1.8-.1-3.7 0-5.5-.2-4.7-.6-8.6-2.4-13-4.2-.5-.3-1.1-.6-1.8-.7 0-1.5 0-3.1-.1-4.5-.3-5-.2-10.2-1.3-15.2.3-.2.5-.3.8-.5z"/><path class="st4" d="M162.7 195.1c-.1 0-.2-.1-.2-.2-.1-.2 0-.4.2-.4v.6zm.4-5.5c-.1.4-.3.8-.5 1.2-.1-.1-.1-.2-.2-.3-.1-.3.1-.7.4-.8l.3-.1zm-.3 11.7c2.3.5 4.3 2.2 4.2 4.7l-.5-.3c-.2-2.1-1.8-3.7-3.9-4 .1-.1.1-.1.1-.2s.1-.1.1-.2zm0-7.2c.1 0 .3 0 .4-.1v.4h-.3c-.1 0-.1 0-.2.1l.1-.4z"/><path class="st4" d="M163.3 195.3c-.2-.1-.4-.1-.6-.2v-.7s.1 0 .2-.1h.3c.1.1.1.3.1.5v.5zm0-4.4c-.3.1-.5 0-.7-.1.2-.4.3-.8.5-1.2l.9-.3c-.1.3-.2.6-.3.8l-.4.8zm-.4 68.7s.1.1 0 .2v-.2zm.9-.7c0 .2 0 .5-.1.7-.3-.2-.5-.3-.8-.4v-.5c.4 0 .6.1.9.2z"/><path class="st4" d="M163.9 258.4v.5c-.3-.1-.6-.2-.9-.2v-.4c.3 0 .6 0 .9.1zm-.8-64c2.7-.1 5 1.4 7.4 2.3 1.2.4 3.2.8 4.3 1.8v1.4c-.2.1-.3.1-.5 0-3.6-1.7-7.2-3.2-11-4.5-.1-.2-.1-.3-.1-.5s0-.4-.1-.5zm1.3-4.6c-.1.3-.3.6-.4.9-.2.1-.5.1-.7.2.1-.2.3-.5.4-.8.2-.1.5-.1.7-.3z"/><path class="st4" d="M164.8 188.9c-.1.3-.3.6-.4.9-.2.1-.5.2-.7.3.1-.3.2-.5.3-.8.3-.1.5-.2.8-.4zm-.9 69.5c.6.1 1.2.4 1.8.7-.2 0-.3.3-.2.4.5.4 1.1.8 1.6 1.1 0 .1-.1.2-.3.2-1.1-.2-2.2-.6-3.1-1.2 0-.2.1-.5.1-.7 0-.1 0-.3.1-.5z"/><path class="st4" d="M171.5 183.7c1.3-3.1-1.3-8.4-5-7.3v-.4c3.4-1.2 5.6 2.5 6 5.5.5 4.4-4.7 7.9-8.5 9.1.2-.3.3-.6.4-.9 3.1-.9 5.6-3.1 7.1-6z"/><path class="st4" d="M171 183.1c.2-.5.2-.9.2-1.4 0-2.6-2.1-4.7-4.7-4.8v-.4c3.7-1.1 6.4 4.2 5 7.3-1.5 2.8-4.1 5-7.1 6.1.2-.3.3-.6.4-.9 2.7-1.3 5.2-3.2 6.2-5.9zm-5.1 56c1.6 2.1 2 5.6 2.4 8 .1 1.1.5 3.7-.1 5.2-.3.1-.5.2-.7.4h-.1c-.2.2-.2.5 0 .7-.1.1-.1.1-.2.1-.2.1-.5-.1-.5-.3-.2-.8.3-1.7.4-2.6.1-1.3.1-2.7 0-4-.2-2.7-1.2-5.1-1.9-7.7.1 0 .2.1.3.1 0 0 .2.1.4.1z"/><path class="st4" d="M165 238.8c0-.1 0-.2.1-.2.1-.1.3-.1.4 0 .2.2.3.3.4.5-.2-.1-.4-.1-.6-.2-.1 0-.2-.1-.3-.1zm1.7 21.1c.2.1.3.3.4.4v.2c-.6-.3-1.1-.7-1.6-1.1-.1-.1 0-.4.2-.4.3.3.7.6 1 .9zm-.7-53.8v.1c.1.2.4.3.6.2 3.9 2.1 7.7 6.7 10.5 9.9s6.4 7 7.9 11.2l-1-1c-1.9-3.6-4.5-6.6-7.2-9.8-3.3-3.7-6.5-7.7-11-10-.3-.2-.4-.5-.2-.8.1-.1.1-.2.2-.2.1.1.2.3.2.4z"/><path class="st4" d="M178.7 263.1c1.9.2 3.7.2 5.5.2.8 0 1.5.1 2.3 0 2.3.4 3.5-.7 3.5-3.3-6.4-3.9-14.8-7.3-22.4-6.7-.1 0-.3 0-.4-.2.1-.1.3-.1.4-.3 3-1.3 8.7.7 11.7 1.6s5.6 2.5 8.4 4c1.1.6 3.3 1.1 3.9 2.2v.6c0 .1 0 .1.1.1 0 .3-.1.7-.4.9-1.6 2.3-6.8 1.5-9.2 1.5-5.5 0-10.9-1.3-15.6-4-.3-.3-.7-.6-1-.8 4.5 1.9 8.5 3.7 13.2 4.2zM167 206c0 .2-.1.3-.3.4h-.1c-.2.1-.5-.1-.5-.3s-.1-.3-.1-.5c.2-.1.4-.1.6 0l.4.4zm-.4-29.1h-.2c-.1 0-.3-.1-.4-.2-.1-.2 0-.4.1-.5s.2-.1.4-.1c0 .1.1.3 0 .4 0 .1.1.2.1.4zm-.1-35.3c-.1-.2-.1-.5-.2-.7.2.1.4.3.5.5l.1.1c.1.1.1.2.1.3-.1.1-.3.1-.5 0v-.2z"/><path class="st8" d="M168 177.1c2.5.8 3.8 3.5 3 6-1 2.8-3.5 4.6-6.2 5.9 1.5-3.8 2.1-7.9 1.7-12 .5-.1 1 0 1.5.1z"/><path class="st4" d="M182.3 264c2.4 0 7.6.8 9.2-1.5.2-.3.3-.6.4-.9h.1c.1 0 .2-.1.3-.2v-.7c.1.3.2.6.2.9 0 3.5-6.2 3.1-8.2 3-5.9-.3-12.1-.8-17.1-4v-.2c-.1-.2-.2-.3-.4-.4 4.7 2.6 10.1 4 15.5 4zM167 206c4.3 2.4 7.5 6.4 10.6 10s6.8 7.4 8 12.1l-.5-.6c-1.4-4.2-5.1-8.1-7.9-11.2s-6.6-7.9-10.5-9.9c.1 0 .3-.2.3-.4zm28.5-29.1c-4.6-14.6-15.9-25.8-28.1-34.6-.1-.1-.1-.2 0-.3s.2-.1.3 0c13.4 7.2 25.6 20.8 29.2 35.8 0 .2 0 .3-.1.4 0-.1-.1-.3-.2-.4l-.3-.3c-.3-.2-.5-.4-.8-.6zm-27.3 75.5c-.1.3-.2.5-.4.8-.1.1-.2.2-.4.3v-.1c-.1-.2-.1-.5.1-.7.2-.1.4-.2.7-.3z"/><path class="st4" d="M182.5 255.2c2.5 1.1 4.8 2.6 7.3 3.7.7.3 1.3.6 1.8 1 0 .3.1.7.1 1-.6-1.1-2.9-1.6-3.9-2.2-2.7-1.5-5.3-3.2-8.4-4s-8.7-2.9-11.7-1.6c.2-.2.4-.5.4-.8 4.3-1.6 10.7 1.3 14.4 2.9z"/><path class="st10" d="M172 240.4v.1c0 .2.2.4.4.4 5.5.4 11.1.2 16.5-.6 1 6.5 2.1 12.9 2.7 19.5-.6-.4-1.2-.7-1.8-1-2.5-1.1-4.8-2.6-7.3-3.7-3.7-1.6-10.1-4.4-14.3-2.8.6-1.5.2-4.1.1-5.2-.4-2.4-.8-5.9-2.4-8 2 .7 4 1.2 6.1 1.3z"/><path class="st4" d="M188.9 240.3c-5.5.8-11 1-16.5.6h-.1c-.2 0-.3-.2-.3-.4.3 0 .6.1.9.1.1 0 .1-.1.1-.1 0-.1-.1-.1-.1-.1-.1 0-.2-.1-.3-.1 3.4-.4 7-.9 10.5-1.1 1.9.2 3.8.2 5.7.2v.4s.1.3.1.5z"/><path class="st4" d="M172.3 240.1h.2c.1 0 .2.1.3.1.1 0 .1.1.1.1 0 .1-.1.1-.1.1-.3 0-.6 0-.9-.1 0-.1 0-.2.1-.2.2.1.2 0 .3 0zm1.3-51.5c0 .2.1.3.3.3h.2c.2 3.3 2.3 6.9 1.3 10.3-.1-.3-.3-.6-.5-.7 0-1.6-.1-3.1-.4-4.7-.5-1.7-.8-3.4-.8-5.1-.2 0-.1 0-.1-.1z"/><path class="st4" d="M173.9 188.8c-.2 0-.3-.1-.3-.3v-.1c.2-.3.7-.3.9 0l.1.1c0 .1.1.2.1.4h-.6c-.1 0-.1 0-.2-.1z"/><path class="st4" d="M173.7 188.5c0-.1.1-.2.2-.2 2.7-1 6.6.4 9.2.9s4.9 1.6 7.3 2.5c0 .1 0 .1.1.1.1.2.4.2.5.1.2 0 .3.2.3.3 0 .2-.2.4-.4.4-1.7-.1-3.5-1-5.2-1.5-1.9-.5-3.8-.8-5.7-.9-1.8-.3-3.6-.9-5.4-1.2-.1-.1-.1-.2-.1-.4 0-.1-.1-.1-.1-.1-.1-.2-.4-.3-.7 0z"/><path class="st4" d="M175.4 199.3c1-3.3-1.1-7-1.3-10.3h.6c.8 3.1 3.1 8.5.6 11.1-.1.2-.4 0-.4-.1v-.1c.1 0 .2-.1.3-.2.1-.1.1-.2.2-.4z"/><path class="st4" d="M174.8 198.5c.3.2.5.4.5.7-.1.1-.1.3-.2.5-.1.1-.2.2-.3.2v-1.4zm.5.8c0 .2-.1.3-.2.5.1-.2.2-.4.2-.5zm3.2 23.5l-.1-.1c-.1-.1-.1-.2-.1-.2 0-.2.1-.3.3-.4h.1c.2.1.2.3.1.4l-.3.3z"/><path class="st4" d="M184 226.6c.3.5.5 1 .7 1.5-1.9-2-3.9-3.8-6-5.5v-.1c0-.2-.1-.3-.3-.4.1-.1.2-.1.3 0 1.9 1.3 3.7 2.8 5.3 4.5z"/><path class="st4" d="M184.7 228.1c.2.3.3.7.4 1 0 .1.1.1.2.2.2.1.4 0 .4-.2 2.2 2.4 4.4 4.8 6.5 7.2-.7-.6-1.4-1.1-2.2-1.4-.9-1.1-1.7-2.1-2.6-3.1-2.8-3.2-5.8-6.1-9-9 .1 0 .2-.1.3-.2 2.1 1.6 4.1 3.5 6 5.5zm-.4-55.3c3.3 5.8 6.8 12 7 18.8 0 .1-.1.3-.2.3-.2-.1-.4-.1-.6-.2-1.2-6.9-5.2-12.4-7-19-.1-.1 0-.3.1-.4 0 .1.1.2.2.2l.5.3z"/><path class="st4" d="M195.9 178c0 .1.1.1.1.2.2.2.5.2.7 0 0 .1 0 .2-.1.3-.2.3-.5.4-.8.2-1.8-1.2-3.6-2.3-5.5-3.2-2-1-4.1-1.7-6.1-2.7-.1-.1-.1-.3-.2-.4-.1-.1-.3-.2-.5-.1v-.1c0-.2.2-.4.5-.3 3.6 1 8.4 2.5 11.5 5 .1.3.3.7.4 1.1z"/><path class="st4" d="M184 172.3c.1.1.1.3.2.4l-.5-.2-.2-.2c.2-.1.4-.1.5 0zm1.4 56.5c-.2-.2-.4-.5-.7-.7-.2-.5-.4-1-.7-1.5.3.3.7.6 1 1 .1.3.3.7.4 1.2z"/><path class="st4" d="M185.7 229c0 .1-.1.1-.2.2-.2.1-.4 0-.4-.2-.1-.3-.3-.7-.4-1l.7.7.3.3zm6.6 9.8v.1c-1 .1-2 .2-3.1.2 0-.1-.1-.2-.1-.3-.1-.2-.4 0-.4.1v.1c-1.9 0-3.8 0-5.7-.2 3.1-.1 6.2-.1 9.3 0z"/><path class="st4" d="M185.6 228.2c.1.2.1.5.2.8v.2c-.1-.1-.2-.3-.4-.4-.1-.4-.2-.8-.3-1.1l.5.5zm6.7 8c-2.1-2.4-4.3-4.9-6.5-7.2v-.2c0-.3-.1-.5-.2-.8.6.6 1.2 1.3 1.9 1.9 2.7 2.8 5.8 5.6 7.9 8.9.1.1.1.3 0 .4-.1.2-.3.3-.6.2.1-.1.1-.3 0-.4-.1-.1-.1-.1-.2-.1h-.6c-.1-.1-.3-.2-.4-.3 0-.1-.1-.2-.2-.2-.1-.6-.4-1.2-.8-1.7-.1-.2-.2-.3-.3-.5zm-3.6 3v-.1c0-.2.3-.4.4-.1.1.1.1.2.1.3h-.2c-.1-.1-.2-.1-.3-.1z"/><path class="st4" d="M189 239.2c0 .1.1.2.1.3h-.3v-.4c0 .1.1.1.2.1zm.1.3c.1.3.1.5.2.8h-.4c0-.3-.1-.5-.1-.8.1.1.2.1.3 0zm2.9 20.6l-.3-.3c-.7-6.6-1.7-13-2.7-19.5h.4c1.6 6.5 2.5 13.1 2.6 19.8z"/><path class="st4" d="M189.2 239.2c.1.1.1.2.1.3h-.3c0-.1-.1-.2-.1-.3h.3zm.2.3c.1.3.2.5.3.8h-.4c-.1-.3-.1-.5-.2-.8h.3z"/><path class="st4" d="M192.2 239v.4c-1 0-1.9.1-2.9.1 0-.1-.1-.2-.1-.3 1 0 2-.1 3-.2zm.1 21.7c-.1-.2-.2-.4-.3-.5-.1-6.7-1-13.4-2.7-19.9h.4c2.4 6.3 2.8 13.8 2.6 20.4z"/><path class="st4" d="M192.3 239.4c0 .2.1.4.4.5l-3 .4c-.1-.3-.2-.5-.3-.8.9-.1 1.9-.1 2.9-.1zm-1.4-47.5c-.2.1-.4-.1-.5-.3.2.1.4.2.6.2 0 .1-.1.1-.1.1zm1.4 44.4c.1.1.2.2.3.4.4.5.7 1.1.8 1.7h-.1c-.2-.2-.4-.3-.5-.5-.4-.7-1-1.3-1.7-1.7-.4-.4-.7-.9-1.1-1.3.8.3 1.6.8 2.3 1.4zm-.1 24.4v.8c-.1.1-.2.1-.3 0 0-.2 0-.5-.1-.7 0-.3-.1-.7-.1-1l.3.3c.1.2.2.4.2.6zm-.4.9l-.1-.1v-.6c.1.2.2.4.1.7z"/><path class="st12" d="M193 238.7h-.8c0-.1 0-.3-.1-.4h.8c0 .1 0 .2.1.4z"/><path class="st12" d="M192.9 238.8c-.2 0-.5-.1-.7-.1v-.2h.8c0 .2-.1.3-.1.3z"/><path class="st4" d="M192.9 239h-.7v-.1c.3 0 .5 0 .7.1zm0 0v.4l.2-.4h.3v.4h-1.2v-.4h.7zm.3.8l-.5.1h-.1c-.2-.1-.4-.3-.4-.5h1.2c.1.1 0 .3-.2.4zm-2.1-3.7c.7.4 1.3 1 1.7 1.7-.7-.5-1.1-1.1-1.7-1.7z"/><path class="st12" d="M193.2 239.8c-.1.1-.3.1-.5.1l.5-.1zm-.3-1.5c0-.2-.1-.3-.1-.5l.5.5h-.4z"/><path class="st4" d="M193.1 238.9l-.2.4v-.4h.2z"/><path class="st12" d="M193.5 238.5v.4l-.1.1h-.2l.2-.3h-.4c0-.1-.1-.2-.1-.3h.4c.1 0 .1.1.2.1z"/><path class="st4" d="M193.1 238.9h-.2.2z"/><path class="st12" d="M193.4 238.6l-.1.3h-.2v-.3h.3z"/><path class="st4" d="M193.5 239.3h1l.2.2-.1.1-1.4.2c.2-.1.3-.3.3-.5zm-.1-.9l.1.1-.1-.1z"/><path class="st12" d="M193.5 238.8v.1h-.1s.1 0 .1-.1z"/><path class="st4" d="M193.6 238.6c-.1 0-.1-.1-.2-.1v-.1c.1 0 .2.1.2.2z"/><path class="st12" d="M193.6 238.6c0 .1-.1.2-.1.2v-.4c0 .1 0 .2.1.2z"/><path class="st4" d="M194.1 239l.4.4h-1v-.4c.2-.1.4-.1.6 0z"/><path class="st4" d="M194 239h.6c.1 0 .2 0 .2.1.1.1.1.3 0 .4l-.2-.2c-.3-.1-.4-.2-.6-.3zm2.5-61.2c.1.1.2.2.2.4-.1.1-.1.1-.2.1-.3.1-.5 0-.6-.3-.1-.4-.2-.8-.4-1.1.3.2.5.4.7.6.1.1.3.2.3.3z"/><path class="st15" d="M148.7 133c-7.7.3 2.2 10.6 5.2 11-1.2-3.7-2.6-8.8-5.2-11.8"/><path class="st16" d="M148.7 133c-7.7.3 2.2 10.6 5.2 11-1.2-3.7-2.6-8.8-5.2-11.8"/><path class="st15" d="M149 131.9c-.4-.4-1 .2-.6.6 2.7 3.3 3.7 7.6 4.8 11.6l.8-.8c-2.1-.4-4.2-2.7-5.5-4.3-1.4-1.8-3.6-5 .1-5.3 1.1-.1 1.1-1.8 0-1.7-8.3.9.6 11.8 5 12.5h.4c.4-.1.6-.5.5-.8-1.3-4-2.6-8.4-5.5-11.8zm-9.1 2.2c-2.2 2.2 0 5.1 2.9 5.5-.4-2.2-1.5-4.2-2.9-5.9"/><path class="st16" d="M139.9 134.1c-2.2 2.2 0 5.1 2.9 5.5-.4-2.2-1.5-4.2-2.9-5.9"/><path class="st15" d="M140.1 133.6c-.1-.1-.2-.1-.2 0-.1.1-.1.2 0 .2 1.4 1.6 2.2 3.6 2.3 5.8l.9-.7c-2-.3-4.4-2.3-2.6-4.3.7-.7-.4-1.8-1.1-1.1-2.6 2.9 0 6.3 3.3 6.8.2 0 .4 0 .5-.1.4-.2.5-.6.3-1-1-2-1.7-4.1-3.4-5.6z"/><path class="st17" d="M178.3 164.1c-3.6 1.2-6.3-5.4-3.9-7.7 4.6-4.4 9.8 8.3 4.1 7.8"/><path class="st16" d="M178.3 164.1c-3.6 1.2-6.3-5.4-3.9-7.7 4.6-4.4 9.8 8.3 4.1 7.8"/><path class="st17" d="M178.2 164.2c0 .2.2.3.3.3 5.5.6 2.3-8.4-1.1-9.4-2.6-.8-4.7 1.7-4.5 4.2.3 2.3 2.3 6.6 5.3 5.5.3-.1.5-.3.5-.6 0-.4-.3-.7-.6-.7-1.2.1-2.3-.4-2.9-1.4-.7-1-1-2.2-1-3.4.1-1.8 1.9-3.6 3.7-2.4s4.8 7.6.7 7.6c-.3 0-.4.1-.4.3zm-8.8 4.6c-2-.6-4.1-4.8-1.1-4.9 2.1-.1 3.5 4.6 1.3 4.9"/><path class="st16" d="M169.4 168.8c-2-.6-4.1-4.8-1.1-4.9 2.1-.1 3.5 4.6 1.3 4.9"/><path class="st17" d="M169.4 168.5c-.1.1-.2.3-.1.4.1.1.2.2.3.2 3 .1 1.5-5.8-1.1-5.8-3.8-.1-2.1 5.3.5 5.9.3.1.5 0 .7-.3l.1-.1c.1-.3 0-.5-.3-.7-.8-.5-1.4-1.2-1.9-2-.3-.7-.4-2.2 1-1.7s2.4 3.3.8 4.1z"/><path class="st18" d="M113.5 214.4c-2.8.4-3-3 0-2.8 3.2.2 2.8 3.2-.2 3"/><path class="st16" d="M113.5 214.4c-2.8.4-3-3 0-2.8 3.2.2 2.8 3.2-.2 3"/><path class="st18" d="M113 214c-.1.1-.2.1-.2.2-.2.3-.1.7.2.9 1.3.6 2.8.1 3.5-1.1.1-.3.2-.5.3-.8.1-1.8-2.1-2.7-3.5-2.6s-3.2 1.2-2.7 2.9c.4 1.2 2.3 2.5 3.3 1.2.2-.2.2-.4 0-.6-.4-.4-1.4-.3-1.6-.9s.6-.8 1-.8c.2 0 1.9.3 1.6.8s-1.3.6-1.9.8z"/><path class="st19" d="M113.6 210.6c-1.7-.6-2.3-2.6-.2-2.3 1.4.2 2 1.3 1 1.9"/><path class="st16" d="M113.6 210.6c-1.7-.6-2.3-2.6-.2-2.3 1.4.2 2 1.3 1 1.9"/><path class="st19" d="M113.9 210.3c0 .3.2.5.4.6.7.1 1.4-.4 1.5-1.1.1-.3 0-.6-.2-.9-.6-1.1-1.9-1.5-3.1-1.1-2 .8-.5 3.9 1.3 3.4h.1c.2-.1.3-.4.2-.6-.2-.3-1.4-1.1-1.2-1.4.1-.1 1.1.4 1.2.5s-.2.4-.2.6z"/></g><path d="M66.7 50.5c-.7-.4-1.3-1-1.8-1.9-.6-.8-1.3-1.4-2.1-1.9l-2.7-1c-4.3-4.2-8.2-8.7-11.6-13.5-3.5-4.8-7.8-8.9-13-12.2v-.8l1.2-.4c2.9 2.2 5.8 4.6 8.5 7.1 2.8 2.5 5.2 5.3 7.3 8.5l3.5 4.8c1 .7 1.9 1.5 2.8 2.3.9.8 1.7 1.7 2.4 2.7v.4c.8.3 1.7.6 2.5.9.8.3 1.6.9 2.3 1.6l.9 1.7.8.2.2 1-1.2.5zM74.2 46.8l-.6-1.5c.3-3.5.5-7 .7-10.5.2-3.5.3-7.1.3-10.7l-.2-1 1.2-.4c.3 4 1.4 7.7 3.4 11.2 2 3.5 4.1 6.9 6.3 10.2l.6.2c.1-3.2.5-6.3 1-9.2.6-3 1.2-5.9 1.9-8.8l1-.2.4 1.6c-.7 3-1.3 6.1-1.8 9.1s-.9 6.2-1.4 9.4l-1 .4c-2.1-1.1-3.6-2.7-4.7-4.7-1-2-2-4-3-5.9l-1.7-3.5H76c-.2 2.4-.2 4.7-.2 7.2 0 2.4-.2 4.7-.6 7l-1 .1zM102.5 44.3l-3.8-1.9c-.7-.8-1.2-1.8-1.6-2.8s-.6-2.2-.6-3.4l-.7-.2-.2-1 1.2-.4c.2-.7.3-1.4.5-2.2.2-.8.6-1.4 1.3-2 .6-.4 1.2-.7 1.9-.7s1.5-.1 2.3-.1c.7.4 1.4.7 2.3.9.8.2 1.6.7 2.3 1.4.3.8.4 1.7.4 2.7v2.9c-.7.6-1.5.8-2.4.7-.9-.1-1.8-.1-2.6-.1l-4.4-1.2v1.7l1.7 2.7c.4.3.9.6 1.4.8.5.3 1 .4 1.6.4l3.3-1.2.4 1.2c-.6.5-1.2 1-2 1.2-.7.2-1.5.4-2.3.6zm3.5-8.1v-3.1c-.8-.7-1.7-1.2-2.6-1.5-.9-.3-1.9-.3-3-.2-.5.4-1 .9-1.2 1.6-.3.6-.4 1.3-.4 2 1.1.3 2.3.6 3.4.9 1.1.3 2.4.4 3.8.3zM116.7 46.5c-.5-1.8-.7-3.7-.6-5.7.1-2-.2-3.8-1.1-5.5l1.3-.4 1.2 1.2.4 6.2h.4l3.8-4.4h1c.4.7.7 1.5.7 2.4.1.9.2 1.8.3 2.6l.6.2c.4-1 .8-2 1-3 .2-1 .5-2 .9-3l1-.2.4 1.2-.9 3.9c-.3 1.3-.9 2.5-1.8 3.6l-1.5.2c-.7-.6-1.2-1.3-1.5-2.1-.3-.8-.4-1.7-.4-2.7h-.4l-4.1 5.4h-.7zM167.8 48.2c-.8-.1-1.6-.4-2.3-.9-.7-.5-1.4-.9-2.1-1.4-1 .5-2 1-2.9 1.2-1 .3-2.1.4-3.3.2-.6-.2-1.1-.3-1.6-.5s-.9-.6-1.3-1.1c-.7-1-1.2-2.1-1.6-3.3s-.5-2.5-.5-3.8c.3-2.8.8-5.4 1.7-7.8.8-2.4 2.2-4.7 4.1-6.7l.6-.2v-.4l-.2-1 1.2-.4 2.5 1 .4.9c1.1.5 2 1.4 2.6 2.5.6 1.1 1.2 2.1 1.8 3.1.5 1.4 1 2.9 1.2 4.4.3 1.5.3 3.1.2 4.8l-2.9 6.2c.6.6 1.2 1 1.8 1.2.6.2 1.3.4 2 .5l.2 1-1.6.5zm-5.4-3.5v-.4c-.3-.5-.6-1.1-.9-1.6-.3-.6-.4-1.2-.3-1.9l1.2-.4 1.2 2.5.6.2c1-1.2 1.6-2.6 2-4.1.3-1.5.4-3.1.3-4.8-.3-1.5-.8-2.9-1.5-4.2-.7-1.3-1.6-2.6-2.7-3.9l-2.1-1.2-3.7 4.1c-.9 1.8-1.5 3.6-1.9 5.5-.4 1.9-.6 3.8-.6 5.9.3.8.5 1.7.7 2.6.2.9.7 1.6 1.6 2.2.6.3 1.2.4 1.8.4h2l2.3-.9zM179.4 46.2l-2.1-1.3c-.4-.7-.7-1.4-.8-2.3-.1-.8-.2-1.7-.2-2.7l1-4 1-.2.4 1.7-.6 4.8 1 1.9.6.2 2.3-1.9c.7-.5 1.1-1.3 1.2-2.2.1-.9.4-1.7.8-2.4l1.5-.2.4 1.4-1 3.3c.1.4.4.8.8 1.1.4.3.6.8.4 1.3l-1.2.4-1.7-1.4c-.6.7-1.2 1.2-1.8 1.6-.4.7-1.2.9-2 .9zM201.7 44.3l-3.8-1.9c-.7-.8-1.2-1.8-1.6-2.8-.4-1-.6-2.2-.6-3.4l-.7-.2-.2-1 1.2-.4c.2-.7.3-1.4.5-2.2.2-.8.6-1.4 1.3-2 .6-.4 1.2-.7 1.9-.7s1.5-.1 2.3-.1c.7.4 1.4.7 2.3.9.8.2 1.6.7 2.3 1.4.3.8.4 1.7.4 2.7v2.9c-.7.6-1.5.8-2.4.7-.9-.1-1.8-.1-2.6-.1l-4.4-1.2v1.7l1.7 2.7c.4.3.9.6 1.4.8.5.3 1 .4 1.6.4l3.3-1.2.4 1.2c-.6.5-1.2 1-2 1.2-.7.2-1.5.4-2.3.6zm3.5-8.1v-3.1c-.8-.7-1.7-1.2-2.6-1.5-.9-.3-1.9-.3-3-.2-.5.4-1 .9-1.2 1.6s-.4 1.3-.4 2c1.1.3 2.3.6 3.4.9 1.2.3 2.4.4 3.8.3zM220.5 45.3c-.4-.1-.8-.4-1.2-.8-.4-.4-.7-.8-.9-1.3v-1l1.2-.4.9 1.2.6.2V42l-4.6-3.3-.9-2.9 1.5-2.9c.5-.5 1.2-.9 2-1.1.8-.2 1.6-.2 2.4-.1l2.3 1.5c.4.7 1 1.4 1.6 2s1 1.4 1 2.4l-1.2.4-4-4.3h-1.7c-.5.1-1 .4-1.2.9-.3.5-.6.9-.8 1.3v1c.7 1 1.6 1.8 2.6 2.4 1 .6 2 1.4 2.8 2.4v2.1l-1 1.2-1.4.3zM240.8 46.2l-.8-.7v-2.9l.2-2.9c-.7-.4-1.5-.7-2.4-.8s-1.8-.3-2.6-.4l-.2-1c.3-.3.6-.4.9-.5.3-.1.7-.1 1.2-.1l3.1.6v-8.9l.6-.9h.9l.4.4v9.8c.6.4 1.2.6 2 .6s1.5.1 2.2.4l.2 1-1.5.6-2.9-.4-.4 5.6-.9.5zM268.8 38.7l-1-2.1c.3-1 .4-2 .4-3.1v-3.3l-.6-3.5.6-.9h.9c.4 1.4.7 2.9.9 4.5.2 1.6.2 3.2.1 4.9l-.2 2.1.2 1-1.3.4zm1 7.9l-.8-.4-.4-2.5 1.2-1.9h.9l.4 1.2.6.2.4 2.1-1.2 1.2h-1.1zM295.6 51.2l-.4-1.5c2.5-1.9 4.8-4.1 6.8-6.4 2.1-2.4 3.9-4.8 5.6-7.3 1.5-3.6 3.8-6.9 6.8-9.9s5.7-6.1 8.2-9.2l1-.2.4 1.2c-4.9 4.7-9 9.8-12.6 15.4-3.5 5.5-7.6 10.7-12.3 15.6-.6.4-1.1.9-1.7 1.5-.5.5-1.1.8-1.8.8z"/></g></svg>