<svg xmlns="http://www.w3.org/2000/svg" viewBox="0 0 1002 1002"><defs><style>.cls-1{fill:#c181d7;}.cls-2{fill:#3c210c;}.cls-10,.cls-11,.cls-12,.cls-17,.cls-18,.cls-2,.cls-6,.cls-7,.cls-8,.cls-9{stroke:#000;}.cls-10,.cls-11,.cls-12,.cls-17,.cls-2,.cls-6,.cls-7,.cls-8,.cls-9{stroke-linecap:round;}.cls-10,.cls-11,.cls-12,.cls-17,.cls-2,.cls-6,.cls-9{stroke-linejoin:round;}.cls-10,.cls-11,.cls-12,.cls-2,.cls-6,.cls-9{stroke-width:7px;}.cls-3{fill:#cc926f;}.cls-4{fill:#754c24;}.cls-18,.cls-5,.cls-6{fill:#fff;}.cls-14,.cls-7{fill:#fae7e1;}.cls-18,.cls-7,.cls-8{stroke-miterlimit:10;}.cls-7{stroke-width:10px;}.cls-8{fill:#fb2c3b;stroke-width:6px;}.cls-9{fill:#424242;}.cls-10{fill:none;}.cls-11,.cls-15{fill:#7e4b5e;}.cls-12,.cls-13{fill:#4c82e5;}.cls-16,.cls-17{fill:#fd0;}.cls-17{stroke-width:3px;}.cls-18{opacity:0;}</style></defs><title>cha_203</title><g id="レイヤー_2" data-name="レイヤー 2"><g id="レイヤー_8" data-name="レイヤー 8"><path d="M161.5,265.5c15.81-7.68,31.87-14.72,48-21.54s32.39-13.38,48.72-19.72S291,211.77,307.51,206s33.13-11.48,50-16.45c-15.81,7.69-31.86,14.74-48,21.55s-32.39,13.38-48.73,19.71S228,243.22,211.48,249,178.36,260.52,161.5,265.5Z"/><path d="M142.5,262.5c15.81-7.68,31.87-14.72,48-21.54s32.39-13.38,48.72-19.72S272,208.77,288.51,203s33.13-11.48,50-16.45c-15.81,7.69-31.86,14.74-48,21.55s-32.39,13.38-48.73,19.71S209,240.22,192.48,246,159.36,257.52,142.5,262.5Z"/><path d="M131.5,290.5c15.81-7.68,31.87-14.72,48-21.54s32.39-13.38,48.72-19.72S261,236.77,277.51,231s33.13-11.48,50-16.45c-15.81,7.69-31.86,14.74-48,21.55s-32.39,13.38-48.73,19.71S198,268.22,181.48,274,148.36,285.52,131.5,290.5Z"/><path class="cls-1" d="M413,696s-47,25-40,54,17,46,50,41,91-44,129-52,110-9,130-9,37,1,37,0,8-16,5-25-98-58-98-58"/><path d="M413,696a126.43,126.43,0,0,0-15.19,10.53,97.42,97.42,0,0,0-13.33,12.66,49.28,49.28,0,0,0-9.33,15.45,28,28,0,0,0-1.52,8.71l0,1.1c0,.36.07.73.1,1.09a15.69,15.69,0,0,0,.27,2.17c.15.72.28,1.43.45,2.15l.59,2.23a110.48,110.48,0,0,0,6,17.22c2.54,5.42,5.84,10.52,10.39,14.09a27.85,27.85,0,0,0,7.49,4.19,34.59,34.59,0,0,0,8.49,1.86,50.63,50.63,0,0,0,8.88,0c.74,0,1.49-.14,2.23-.21s1.49-.15,2.23-.27,1.5-.2,2.23-.34l2.19-.47c1.46-.34,2.92-.58,4.37-1l4.34-1.3c.72-.22,1.45-.41,2.16-.67l2.15-.78,4.28-1.55c2.84-1.12,5.66-2.3,8.49-3.45l8.4-3.74c11.17-5.12,22.18-10.67,33.29-16.12s22.32-10.77,33.89-15.46c2.88-1.18,5.85-2.22,8.77-3.34s6-2,9-2.9a161.4,161.4,0,0,1,18.48-3.84c12.34-1.9,24.7-3.06,37.06-4s24.74-1.56,37.11-2,24.75-.63,37.13-.67c6.19,0,12.4,0,18.59.15l18.51.51c1.53,0,3.07.06,4.56,0,.74,0,1.5,0,2.1-.08l.3,0a1.35,1.35,0,0,0-.27.12c-.15.12-.53.16-1,1.2-.21,1.37,0,.12-.06.31a3.82,3.82,0,0,1,.09-.44,2.67,2.67,0,0,1,.1-.34l.13-.32.24-.59c1.24-2.88,2.4-5.61,3.33-8.45a37.39,37.39,0,0,0,1.86-8.53c.1-.71,0-1.39.06-2.09s-.09-1.35-.2-2l-.22-.94c0-.15-.08-.37-.1-.35s0,0,0-.06l-.09-.14a8.21,8.21,0,0,0-1.21-1.39,62.84,62.84,0,0,0-7-5.55c-2.49-1.75-5.05-3.45-7.63-5.12-5.17-3.32-10.44-6.52-15.72-9.7C669.25,670.91,647.6,659,626,647q8.32,4.05,16.62,8.2t16.5,8.44c11,5.69,21.91,11.46,32.73,17.46q8.11,4.51,16.08,9.33c2.65,1.61,5.28,3.26,7.89,5a65.79,65.79,0,0,1,7.65,5.74,11.61,11.61,0,0,1,1.84,2.07l.23.34.22.47a3.54,3.54,0,0,1,.26.75l.34,1.31a21.28,21.28,0,0,1,.34,2.6c0,.84.07,1.71,0,2.54a42.37,42.37,0,0,1-1.88,9.57c-.93,3.05-2.14,6-3.29,8.85l-.19.47-.08.23c0,.07,0,0,0-.07a.78.78,0,0,0,0-.16c0,.28.1-.86-.13.6a2.33,2.33,0,0,1-1.19,1.39,3.27,3.27,0,0,1-.82.31,7.29,7.29,0,0,1-.84.14c-.93.1-1.71.13-2.52.15-1.59,0-3.15,0-4.71,0-12.4-.1-24.67-.32-37-.1s-24.65.56-37,1.1-24.62,1.17-36.88,2.14-24.51,2.18-36.58,4.06a153.93,153.93,0,0,0-17.79,3.63c-2.89.88-5.78,1.78-8.65,2.75s-5.73,2.07-8.56,3.22c-11.35,4.53-22.46,9.82-33.6,15.12s-22.24,10.75-33.59,15.8-22.93,9.84-35.48,12.28l-2.35.45c-.78.14-1.57.21-2.36.32s-1.57.18-2.37.24-1.58.16-2.38.18a55.3,55.3,0,0,1-9.62-.22,38,38,0,0,1-9.51-2.28,30.73,30.73,0,0,1-8.49-5,34.06,34.06,0,0,1-6.5-7.29,53.25,53.25,0,0,1-4.55-8.43,110.3,110.3,0,0,1-5.67-17.9l-.52-2.28c-.16-.78-.28-1.6-.42-2.39a19.75,19.75,0,0,1-.21-2.43c0-.41-.06-.81-.06-1.22l.06-1.21a30.41,30.41,0,0,1,2-9.41,51.19,51.19,0,0,1,10.27-15.73,97.11,97.11,0,0,1,14-12.32A126.9,126.9,0,0,1,413,696Z"/><path class="cls-2" d="M476.5,770.5s38,34,44,29S511,754,511,754Z"/><path class="cls-2" d="M733.5,707.5s39,17,41,29-14,12-24,8-23.83-14-23.91-15,7.91-22,7.91-22"/><polygon class="cls-3" points="716.5 727.5 736.5 731.5 739.5 710.5 722.55 703.01 716.5 727.5"/><path d="M716.71,727.37c2.06.06,3.93.15,5.73.24s3.5.18,5.14.32,3.21.31,4.76.53a37.5,37.5,0,0,1,4.58.92l-2.56,1.81c.74-3.46,2-6.85,2.78-10.31a54.07,54.07,0,0,0,1.13-10.55l.73,1.3-4.47-1.34c-1.49-.45-3-1-4.41-1.5-2.89-1.08-5.78-2.18-8.65-3.34l3.66-1.8a58.07,58.07,0,0,1-1.51,5.61c-.58,1.86-1.26,3.73-2,5.65s-1.49,3.89-2.32,6Zm-.42.26c.06-1.78.21-3.71.39-5.73s.42-4.13.71-6.3.63-4.37,1.06-6.59.91-4.45,1.51-6.64l.87-3.14,2.8,1.35c2.78,1.33,5.54,2.73,8.29,4.14,1.38.71,2.74,1.45,4.08,2.24l4,2.41.93.56-.2.75a53.94,53.94,0,0,0-1.87,10.44c-.24,3.54,0,7.15-.22,10.69l-.16,2.13-2.4-.32a50,50,0,0,1-5.42-1.08c-1.78-.45-3.55-.93-5.24-1.47s-3.33-1.1-4.86-1.68S717.56,728.24,716.29,727.63Z"/><path class="cls-4" d="M620.5,665.5s35,2,79-13,42-75,42-75l-116,29Z"/><path d="M620.69,665.34a1,1,0,0,1,.19-.09l.3,0,.67,0,1.35-.06,2.68-.15c1.78-.12,3.57-.24,5.35-.41,3.56-.28,7.11-.72,10.66-1.15q10.62-1.37,21.1-3.48l5.23-1.08,5.2-1.24c1.74-.37,3.46-.83,5.18-1.28s3.45-.87,5.16-1.37l5.12-1.5c1.71-.46,3.4-1,5.1-1.56l5.07-1.62,2.43-.88,1.22-.45,1.17-.53,2.36-1.07,2.28-1.23,1.14-.61,1.09-.7,2.18-1.4a56.06,56.06,0,0,0,7.94-6.77,61.5,61.5,0,0,0,6.57-8.22,65.62,65.62,0,0,0,5.13-9.3,90,90,0,0,0,3.72-10,106,106,0,0,0,2.44-10.4,102.4,102.4,0,0,0,1.5-21.22l1.59,1.2c-9.6,2.68-19.18,5.46-28.8,8.06s-19.27,5.08-28.9,7.62l-14.47,3.78-14.49,3.65c-9.69,2.32-19.37,4.67-29.09,6.89l1.74-2c-.48,4.78-1,9.55-1.58,14.35s-1.15,9.62-1.74,14.48Zm-.38.32,1.21-29.18c.25-5,.46-10,.76-15s.56-10.09.92-15.15l.11-1.6,1.63-.45c9.62-2.62,19.27-5.1,28.91-7.61l14.51-3.6,14.53-3.47c9.7-2.3,19.39-4.64,29.1-6.88s19.47-4.29,29.2-6.44l1.61-.36,0,1.56a97.73,97.73,0,0,1-.77,10.88c-.45,3.6-1,7.18-1.71,10.72a109.36,109.36,0,0,1-6.19,20.76A72,72,0,0,1,723,638.62a59.9,59.9,0,0,1-7.92,7.76L712.86,648l-1.14.82-1.19.73L708.14,651l-2.5,1.25-1.25.62-1.3.53-2.59,1.05c-1.73.61-3.45,1.13-5.17,1.71-3.42,1.18-6.93,2.09-10.42,3.06-7,1.8-14.08,3.4-21.23,4.49a205.53,205.53,0,0,1-21.56,2.32c-3.6.21-7.21.29-10.82.26-1.81,0-3.61-.08-5.41-.16-.91,0-1.81-.09-2.71-.17l-1.34-.11-.68-.06-.37,0A2.25,2.25,0,0,1,620.31,665.66Z"/><path class="cls-5" d="M478.5,488.5s124-208,242-191,188,109,125,186-208,109-208,109"/><path d="M478.16,488.3A524.42,524.42,0,0,1,506,443.78q7.46-10.8,15.39-21.3c5.29-7,10.69-13.91,16.31-20.65s11.34-13.41,17.25-19.9,12-12.81,18.33-19,12.79-12.12,19.51-17.82,13.72-11.1,20.93-16.2c14.47-10.11,30-18.91,46.63-25.06a144.64,144.64,0,0,1,25.59-7,109.54,109.54,0,0,1,26.45-1.47c1.1.09,2.21.1,3.31.24l3.29.39,1.65.2,1.62.28,3.24.55c2.17.38,4.33.72,6.49,1.12l6.44,1.34c4.32.81,8.54,2,12.8,3.06,2.14.5,4.21,1.23,6.33,1.82s4.23,1.18,6.31,1.9c16.64,5.56,33,12.44,47.91,22,3.8,2.26,7.37,4.88,11,7.41,1.78,1.33,3.5,2.73,5.25,4.09.87.69,1.77,1.34,2.6,2.08l2.51,2.2,2.5,2.2c.42.37.84.73,1.25,1.11l1.19,1.17,4.75,4.71,4.45,5,1.11,1.26,1,1.32,2.07,2.65a111.36,111.36,0,0,1,13.77,23.16,94.82,94.82,0,0,1,7,26.23,89.73,89.73,0,0,1-1,27.26,99.81,99.81,0,0,1-9.12,25.67l-1.6,3c-.56,1-1,2-1.66,3l-3.67,5.72a31.42,31.42,0,0,1-2,2.76l-2,2.7-2,2.69c-.68.91-1.45,1.71-2.17,2.57l-4.39,5.08L838,498.16l-2.32,2.41-2.43,2.29c-1.63,1.53-3.24,3.07-4.9,4.56l-5.08,4.32c-.85.71-1.68,1.45-2.55,2.14l-2.63,2c-1.75,1.36-3.48,2.75-5.26,4.08l-5.38,3.9c-1.78,1.32-3.62,2.55-5.46,3.78s-3.66,2.49-5.52,3.69l-5.62,3.51c-1.87,1.18-3.78,2.29-5.69,3.39-7.59,4.52-15.41,8.59-23.26,12.58s-15.9,7.56-24,11-16.26,6.66-24.52,9.63-16.55,5.83-24.93,8.4-16.8,5-25.28,7.17-17,4.23-25.59,5.85a.4.4,0,0,1-.47-.32.4.4,0,0,1,.29-.46c4.21-1.13,8.39-2.39,12.57-3.64s8.34-2.55,12.48-3.91c8.29-2.7,16.51-5.59,24.69-8.56,16.34-6,32.46-12.6,48.2-19.92a444.2,444.2,0,0,0,45.81-24.44,285,285,0,0,0,41.5-30.58c12.6-11.54,24.3-24.27,32.14-39.1a91.72,91.72,0,0,0,8.74-23.39,82,82,0,0,0,1.31-24.86,89.45,89.45,0,0,0-6.09-24.3,110.51,110.51,0,0,0-12.4-22.07l-1.88-2.58-.94-1.29-1-1.23-4.09-4.93-4.37-4.69L833,351.45c-.38-.38-.77-.75-1.16-1.12l-2.32-2.22-2.33-2.22c-.77-.74-1.62-1.41-2.43-2.11-1.64-1.39-3.25-2.81-4.92-4.17C816.38,337,813,334.32,809.4,332c-28.56-19.4-62.73-30.8-97.14-34-1.08,0-2.15-.13-3.23-.14l-3.23,0c-2.16,0-4.3.21-6.45.33s-4.28.48-6.42.72c-2.12.39-4.26.67-6.36,1.15A134.62,134.62,0,0,0,662,308a180.46,180.46,0,0,0-23,11.86c-7.38,4.45-14.5,9.34-21.42,14.5A422,422,0,0,0,578.23,368q-9.37,9-18.28,18.51t-17.5,19.29c-5.69,6.58-11.32,13.2-16.81,20s-10.88,13.59-16.18,20.5c-10.57,13.85-20.85,27.95-30.62,42.41h0a.4.4,0,0,1-.68-.41Z"/><path class="cls-6" d="M404.5,669.5s-1,45-37,55-80,12-96-10,13-80,13-80l104,15Z"/><path class="cls-6" d="M348.5,643.5s66,27,69,36-11,16-11,16,10,13,65,15,88-6,110-25,35-49,35-49l-63-59Z"/><path class="cls-7" d="M425.5,639.5s13,18,32,26c0,0,11-33,14-37S425.5,639.5,425.5,639.5Z"/><path class="cls-8" d="M416,677a188.43,188.43,0,0,0,62,9c34-1,63-23,63-23l12,7S474,724,416,677Z"/><path d="M305.63,650c1.11.1,1.95.24,2.9.39s1.81.34,2.7.56,1.78.42,2.66.67,1.75.49,2.61.79a57.93,57.93,0,0,1,10,4.26,53.67,53.67,0,0,1,16.6,13.57l1.68,2.09c.51.73,1,1.48,1.49,2.22l1.46,2.22L349,679c1.76,3,3.43,6.05,5.05,9.12s3.11,6.21,4.45,9.42c.67,1.6,1.3,3.22,1.84,4.88a21.54,21.54,0,0,1,1.13,5.06,21.22,21.22,0,0,0-1.54-4.91c-.67-1.59-1.43-3.13-2.22-4.66-1.59-3-3.36-6-5.18-8.92s-3.75-5.77-5.74-8.57l-1.48-2.12-1.56-2c-.53-.65-1-1.32-1.57-2l-1.73-1.81a49.49,49.49,0,0,0-16.28-11.18,52.5,52.5,0,0,0-9.35-3.08c-.8-.21-1.6-.37-2.41-.51s-1.6-.29-2.41-.4-1.6-.19-2.4-.28S306,657,305.37,657h0a3.51,3.51,0,1,1,0-7Z"/><path class="cls-7" d="M288.5,680.5s-26,13-37-1,5-53,26-52,28,14,28,20S298.5,679.5,288.5,680.5Z"/><polyline class="cls-9" points="397.5 637.5 407.5 670.03 350.6 642.82 397.5 637.5"/><path class="cls-9" d="M483.5,599.5s16,34,42,53,95,34,95,34,27-12,36-46-7-73-7-73-35,11-45,7-42-16-42-16Z"/><path class="cls-7" d="M205.5,454.5s31,112,31,120-6,15-7,29,108,46,179,32,109-29,144-62,55-89,55-91-30-79-30-79-202-42-203-40S205.5,454.5,205.5,454.5Z"/><path class="cls-10" d="M386.5,493.5s11,4,16,2,40-52,40-52"/><ellipse cx="441.67" cy="498.22" rx="18.22" ry="33.4" transform="translate(-93.62 102.29) rotate(-11.95)"/><path d="M217,490s28-2,46-6,29-7,29-7l57-66,12,9-54,67s9,52-3,64-67.82,26.82-67.82,26.82Z"/><path class="cls-11" d="M379,411s49-9,93,0,104,38,104,38l11-47L221,310l-32,64,100,62Z"/><path class="cls-12" d="M635.5,346.5s22-25,43-27,28,9,50,0,34-22,34-22,8,45-30,73-99,19-99,16S635.5,346.5,635.5,346.5Z"/><path class="cls-12" d="M632.5,326.5s16-66,26-77,93-41,93-41-105,118-107,122S632.5,326.5,632.5,326.5Z"/><path class="cls-13" d="M200,307s52-187,269-154S631,413,631,413Z"/><path d="M200,307a139.78,139.78,0,0,1,6-20.86,201.45,201.45,0,0,1,8.59-20,211.29,211.29,0,0,1,23.21-37,221.1,221.1,0,0,1,66.27-56.95c25.68-14.39,54.44-22.84,83.5-26.29a277.74,277.74,0,0,1,43.81-1.54A349.8,349.8,0,0,1,474.84,149a261,261,0,0,1,42.5,10.84l5.17,1.91c.85.33,1.72.63,2.57,1l2.55,1.06,5.09,2.12,5,2.32,2.5,1.17,2.45,1.26,4.91,2.54,4.8,2.74c.79.47,1.6.9,2.39,1.39l2.34,1.47a168.48,168.48,0,0,1,18,12.87c1.42,1.19,2.87,2.33,4.24,3.56.69.63,1.38,1.24,2,1.88a26.09,26.09,0,0,1,1.88,2c1.16,1.46,2.1,3.13,3.18,4.64A36.87,36.87,0,0,0,590,208c5,5.29,10.09,10.6,14.79,16.28a112.58,112.58,0,0,1,12.45,18.27,174.8,174.8,0,0,1,16.21,41,241.58,241.58,0,0,1,7.2,43.28,299.28,299.28,0,0,1,.15,43.7c-.48,7.27-1.23,14.51-2.21,21.72q-.75,5.4-1.7,10.79c-.65,3.62-1.33,7.13-2.21,10.82l-.88,3.7-3.65-.94-108-27.77L414.52,361.32l-26.86-6.86-26.91-6.76-53.83-13.47L253,320.87a72.48,72.48,0,0,0-7.33-1.26c-2.57-.34-5.3-.56-8-.83a83.81,83.81,0,0,1-14.95-2.44,120.82,120.82,0,0,1-12.47-4.06A47.81,47.81,0,0,1,200,307Zm0,0a150.09,150.09,0,0,1,16.66,1.35c5.1.69,9.91,1.54,14.46,2.56a51.07,51.07,0,0,1,12,4.18c1.81.84,3.56,1.72,5.48,2.49a50.2,50.2,0,0,0,6.14,2.05l53.85,13.14,53.92,13,27,6.49,27,6.39,107.87,25.45,107.54,25.23-4.53,2.76c.73-3.31,1.37-6.86,1.92-10.34s1.05-7,1.48-10.52q1.28-10.56,1.81-21.2a291.62,291.62,0,0,0-.85-42.43,238.46,238.46,0,0,0-7.58-41.54,208.09,208.09,0,0,0-6.69-19.93c-1.24-3.28-2.63-6.49-4.05-9.68l-2.18-4.77-2.33-4.7c-3.27-6.18-6.67-12.28-10.27-18.33-.93-1.49-1.82-3-2.8-4.49s-2-2.91-3-4.36a92.17,92.17,0,0,0-6.75-8.16,25.36,25.36,0,0,0-1.85-1.89,19,19,0,0,0-2.13-1.62l-4.56-2.85a23.83,23.83,0,0,1-2.14-1.55c-.67-.56-1.31-1.14-2-1.72-1.31-1.16-2.7-2.23-4-3.34a156.34,156.34,0,0,0-17.14-12.07L550,185.25c-.74-.46-1.52-.86-2.28-1.3l-4.58-2.57L538.48,179l-2.35-1.19-2.39-1.09L529,174.54l-4.87-2-2.44-1c-.82-.32-1.65-.6-2.48-.91l-4.95-1.79a258.72,258.72,0,0,0-41-10.17A338.26,338.26,0,0,0,431,154.33a290.87,290.87,0,0,0-42.27,1.52c-7,.84-14,1.84-20.84,3.3-3.46.64-6.87,1.53-10.29,2.32s-6.81,1.77-10.15,2.85-6.68,2.16-10,3.3-6.59,2.43-9.81,3.83a205.34,205.34,0,0,0-19,9c-24.8,13.24-46.63,31.85-64.48,53.74a300,300,0,0,0-24.5,34.68c-3.66,6.09-7.19,12.29-10.45,18.65S202.78,300.34,200,307Z"/><line class="cls-14" x1="250" y1="289" x2="593" y2="371"/><path d="M250,289c29.06,4.82,57.9,10.6,86.65,16.72s57.42,12.6,86,19.42,57.1,14,85.5,21.57S564.9,362.14,593,371c-29.07-4.81-57.9-10.58-86.66-16.71s-57.42-12.6-86-19.43-57.1-14-85.49-21.58S278.1,297.85,250,289Z"/><path class="cls-15" d="M311.35,332.81C390.69,275.63,443,314,443,314c-22,4-36,73-36,73l18,38v4c-83,30-134,20-134,20l-58,5s-2,8-10,27,13,36,11,37-71-1-102-69,89-139,89-139l99,25"/><path d="M311.35,332.81A190.92,190.92,0,0,1,341.21,314a140.34,140.34,0,0,1,33.4-12,108,108,0,0,1,35.7-1.81A92.41,92.41,0,0,1,428,304a79.44,79.44,0,0,1,8.48,3.29c1.39.63,2.76,1.31,4.12,2,.67.38,1.35.74,2,1.15s1.3.78,2.06,1.3l5.28,3.62-6.43,1.33a14.85,14.85,0,0,0-7.33,4.62,43.62,43.62,0,0,0-5.81,7.91,116,116,0,0,0-8.51,18.58c-2.36,6.47-4.45,13.07-6.3,19.75s-3.49,13.47-4.84,20.17l-.29-2.37,18.38,37.83.39.81v1l0,4,0,3-2.81,1c-5.44,1.87-10.86,3.81-16.32,5.62l-8.27,2.52c-2.75.84-5.49,1.72-8.29,2.41-5.58,1.47-11.13,3-16.78,4.2-2.82.61-5.61,1.33-8.46,1.84l-8.51,1.6a292.4,292.4,0,0,1-34.49,3.95c-5.81.26-11.62.4-17.46.2-2.92-.05-5.85-.25-8.78-.45-1.48-.15-2.93-.24-4.42-.43s-2.9-.35-4.6-.65l1.36.07-58,5.11,4.4-3.75c-.17.66-.3,1.1-.45,1.63l-.45,1.49c-.31,1-.63,1.95-1,2.91-.64,1.92-1.32,3.82-2,5.7-1.4,3.76-2.87,7.47-4.38,11.16l-2.23,5.37a18,18,0,0,0-1.11,4.49,21,21,0,0,0,1.22,9.43,40.91,40.91,0,0,0,4.88,9.3c1,1.51,2.14,3,3.34,4.54.6.8,1.2,1.54,1.94,2.63a11.19,11.19,0,0,1,.66,1.11,3.36,3.36,0,0,1,.22.46l.12.29c0,.08.1.28.15.42s.08.26.13.5a5.57,5.57,0,0,1,.1.82,5.16,5.16,0,0,1-2.06,4.44,3.88,3.88,0,0,1-1,.56,7.1,7.1,0,0,1-.92.31l-.48.1-.37.06-.28,0c-.36,0-.82.07-1.08.06a58.36,58.36,0,0,1-6.51-.31c-2.07-.22-4.12-.48-6.15-.82a118.55,118.55,0,0,1-12-2.59,122.26,122.26,0,0,1-43.75-21.67,120,120,0,0,1-31.46-37.24l-1.46-2.69c-.49-.89-.9-1.82-1.35-2.73l-1.32-2.75-.66-1.38-.61-1.46a59.36,59.36,0,0,1-3.7-12.12,63,63,0,0,1,.56-25.11,87,87,0,0,1,8.85-23,135.57,135.57,0,0,1,13.56-20.1c10.09-12.56,21.8-23.51,34.09-33.6a316.61,316.61,0,0,1,39-27.32l.8-.46.84.22,24.64,6.69,24.63,6.74,24.61,6.8L320,335l-24.91-5.62-24.89-5.7-24.87-5.76-24.86-5.81,1.64-.24c-6.56,4.13-13,8.7-19.24,13.35s-12.38,9.56-18.29,14.66a233.81,233.81,0,0,0-32.29,33.5,128.56,128.56,0,0,0-12.46,19.28,79,79,0,0,0-7.68,21.12,54.64,54.64,0,0,0-.09,21.84A52.4,52.4,0,0,0,135.39,446l.54,1.26.63,1.28,1.27,2.56c.44.85.82,1.72,1.29,2.55l1.4,2.48A110.7,110.7,0,0,0,170,490.27a108.68,108.68,0,0,0,19.32,11.8c3.39,1.69,6.9,3.11,10.43,4.46S207,509,210.6,510a111.94,111.94,0,0,0,11.08,2.34c1.85.3,3.71.53,5.56.71a52.59,52.59,0,0,0,5.28.26,2.83,2.83,0,0,0,.4,0H233l-.19,0a2.47,2.47,0,0,0-.29.06,2.83,2.83,0,0,0-.57.23,5.52,5.52,0,0,0-.83.49,5,5,0,0,0-1.21,1.33,4.88,4.88,0,0,0-.59,1.53,4.7,4.7,0,0,0-.07,1.1,4.52,4.52,0,0,0,.08.63l.08.32.09.25,0,.11.06.13c0,.09,0,0-.1-.15-.37-.54-1-1.34-1.58-2.11-1.21-1.56-2.48-3.23-3.67-5a50.41,50.41,0,0,1-6.09-11.56,31,31,0,0,1-1.77-13.81,28.38,28.38,0,0,1,1.7-7l2.28-5.56c1.46-3.61,2.88-7.23,4.21-10.86.66-1.81,1.31-3.63,1.93-5.44.3-.9.6-1.81.89-2.7l.41-1.33.35-1.22,1-3.47,3.41-.28,58-4.89.65,0,.71.12c1.11.2,2.54.4,3.86.55s2.72.27,4.08.42c2.75.2,5.5.4,8.28.46,5.55.21,11.13.1,16.71-.13a303.45,303.45,0,0,0,33.41-3.5l8.3-1.45c2.77-.46,5.5-1.13,8.26-1.69,5.52-1.08,11-2.54,16.42-3.91,2.74-.64,5.43-1.47,8.13-2.25l8.12-2.38c5.37-1.71,10.7-3.54,16.05-5.31l-2.78,4,0-4,.4,1.79-17.62-38.17-.55-1.19.26-1.18c1.56-7,3.37-13.82,5.39-20.64s4.26-13.55,6.92-20.18a121.64,121.64,0,0,1,9.54-19.37,48.88,48.88,0,0,1,6.88-8.81,25.21,25.21,0,0,1,4.62-3.69,17.11,17.11,0,0,1,5.86-2.28l-1.15,5c-.44-.32-1.06-.74-1.63-1.1s-1.2-.72-1.79-1.07c-1.23-.69-2.47-1.36-3.75-2a74.65,74.65,0,0,0-7.87-3.3,88.07,88.07,0,0,0-16.62-4.23,104.19,104.19,0,0,0-34.47.56A138.23,138.23,0,0,0,342,315.55,195.46,195.46,0,0,0,311.35,332.81Z"/><path class="cls-15" d="M229.5,310.5s-46-28-103-9-58,91-58,91,33-11,58-6,32,13,32,13"/><path d="M229.5,310.5a133.21,133.21,0,0,0-26-8.63c-4.44-1-8.91-1.8-13.4-2.37s-9-1-13.49-1.12c-1.12-.06-2.25-.05-3.37-.07s-2.24,0-3.37,0l-3.36.07-3.36.19a129.16,129.16,0,0,0-13.31,1.57c-2.21.32-4.38.85-6.56,1.27l-3.25.78c-1.08.26-2.16.52-3.23.85l-3.21.92c-1.06.31-2.11.69-3.17,1s-2.14.67-3.13,1.08l-3,1.19a31.29,31.29,0,0,0-3,1.31c-1,.48-2,.91-2.92,1.41l-2.81,1.59c-.46.28-1,.52-1.4.81l-1.35.88a67.12,67.12,0,0,0-10.13,8A76.77,76.77,0,0,0,94,330.89l-1.9,2.64c-.62.89-1.18,1.83-1.79,2.73s-1.17,1.84-1.71,2.78-1.13,1.87-1.62,2.85a105.52,105.52,0,0,0-5.53,12,118.38,118.38,0,0,0-4.17,12.6,130.94,130.94,0,0,0-2.91,13q-.57,3.28-1,6.6c-.13,1.1-.26,2.2-.36,3.3s-.19,2.24-.24,3.19l-5.67-4.15c4-1.2,7.8-2.1,11.73-2.93s7.84-1.52,11.81-2a117.46,117.46,0,0,1,24-1,71.89,71.89,0,0,1,12,1.8c3.85,1,7.67,2.07,11.41,3.42a84,84,0,0,1,10.9,4.79,46.75,46.75,0,0,1,5.06,3.12,23,23,0,0,1,4.44,3.9,37.24,37.24,0,0,0-10.23-5.42,86,86,0,0,0-11.09-3.29c-3.73-.92-7.55-1.56-11.35-2.13a77.31,77.31,0,0,0-11.29-.6,126.66,126.66,0,0,0-22.65,2.64c-3.75.75-7.47,1.65-11.16,2.61s-7.41,2.1-10.87,3.28l-5.7,1.94,0-6.09c0-1.35.06-2.48.12-3.71s.15-2.39.24-3.58c.2-2.37.46-4.74.8-7.1a139.77,139.77,0,0,1,2.7-14,117.65,117.65,0,0,1,10.21-26.87,92,92,0,0,1,7.83-12.27c.7-1,1.52-1.9,2.28-2.86l1.16-1.42c.4-.46.82-.9,1.23-1.36.84-.89,1.65-1.81,2.51-2.68L95.92,314a76.06,76.06,0,0,1,11.73-8.87c2-1.38,4.28-2.41,6.43-3.58,1.1-.53,2.24-1,3.35-1.5s2.23-1,3.4-1.38c2.29-.82,4.59-1.68,6.88-2.28,1.14-.32,2.28-.68,3.44-1l3.47-.85c1.15-.3,2.32-.53,3.49-.75l3.5-.69c2.36-.34,4.7-.77,7.07-1a124.53,124.53,0,0,1,28.36,0,127.08,127.08,0,0,1,27.42,6.21,121.55,121.55,0,0,1,12.95,5.28c2.1,1,4.17,2.06,6.19,3.2A67.52,67.52,0,0,1,229.5,310.5Z"/><path class="cls-15" d="M184.5,397.5s22.55,70.65,92.28,83.33S391.5,460.5,391.5,460.5s-68-47-72-63"/><path d="M184.5,397.5a156,156,0,0,0,15.37,26.88,152.71,152.71,0,0,0,9.48,12.08A146.5,146.5,0,0,0,220,447.4l2.82,2.54,2.92,2.43c.95.83,2,1.57,3,2.34s2,1.56,3,2.26a122.37,122.37,0,0,0,12.77,7.95,110.5,110.5,0,0,0,28,10.24c2.46.45,4.85,1,7.38,1.34l3.76.58,3.76.45c5,.63,10.07.92,15.11,1.13a172.78,172.78,0,0,0,30.16-1.72c5-.76,9.94-1.7,14.84-2.88s9.73-2.62,14.5-4.24a145,145,0,0,0,14-5.63c2.28-1.05,4.54-2.16,6.73-3.35,1.1-.59,2.19-1.2,3.25-1.82s2.17-1.31,3-1.89l.1,6.8c-6.56-4.79-12.95-9.67-19.29-14.69s-12.56-10.15-18.65-15.46-12-10.81-17.7-16.6c-2.81-2.92-5.54-5.94-8.07-9.12a58.17,58.17,0,0,1-3.52-5,18.33,18.33,0,0,1-2.4-5.57c1.53,3.74,4.38,6.64,7.17,9.46s5.82,5.44,8.9,8c6.11,5.14,12.51,9.94,18.95,14.69s13,9.37,19.54,13.94,13.18,9.11,19.81,13.49l4.89,3.24L394,463.87c-1.25.93-2.32,1.63-3.49,2.39s-2.3,1.45-3.46,2.13c-2.32,1.38-4.69,2.66-7.08,3.87a143.32,143.32,0,0,1-14.73,6.43,157.83,157.83,0,0,1-31,8.07c-5.29.83-10.63,1.35-16,1.67s-10.69.3-16,.12-10.67-.68-16-1.41l-4-.55-3.94-.68c-2.62-.41-5.27-1.09-7.91-1.67-1.32-.26-2.61-.7-3.92-1.05s-2.6-.73-3.89-1.14l-3.83-1.35-1.91-.68-1.87-.79-3.74-1.57-3.65-1.76-1.82-.89c-.6-.31-1.18-.65-1.77-1l-3.53-2a116.66,116.66,0,0,1-25-20.12,134.87,134.87,0,0,1-10.2-12.23,146.36,146.36,0,0,1-8.59-13.31,137.08,137.08,0,0,1-7-14.1c-1-2.41-2-4.84-2.87-7.31S185.13,400,184.5,397.5Z"/><path d="M345.5,358.5a114.7,114.7,0,0,1,20.63,2.79,103.07,103.07,0,0,1,20,6.66,84,84,0,0,1,9.45,5.13,69.49,69.49,0,0,1,8.7,6.61,59.51,59.51,0,0,1,7.5,8.24,58.68,58.68,0,0,1,5.78,9.74l-9.3,3.66a49.85,49.85,0,0,0-3.78-8.58A50.88,50.88,0,0,0,399,385a62.92,62.92,0,0,0-7-6.82,77.47,77.47,0,0,0-8.14-5.77,99,99,0,0,0-18.36-8.68A113.58,113.58,0,0,0,345.5,358.5Z"/><path class="cls-7" d="M571.5,451.5s-4-61,36-65,48,37,40,60-48,42-48,42"/><path d="M593.5,445.5a51.46,51.46,0,0,1-.73-11.45,39.66,39.66,0,0,1,2.17-11.56,21.63,21.63,0,0,1,2.93-5.47,14.88,14.88,0,0,1,5-4.32A14.65,14.65,0,0,1,609.3,411a15.64,15.64,0,0,1,6.53,1.1,14,14,0,0,1,5.47,4,17.76,17.76,0,0,1,3.05,5.73,29.64,29.64,0,0,1,1,12.06,39.86,39.86,0,0,1-2.94,11.37,29.78,29.78,0,0,1-2.84,5.12,14,14,0,0,1-4.12,4,16.63,16.63,0,0,0,2.92-4.73,33.22,33.22,0,0,0,1.72-5.22,39.6,39.6,0,0,0,1-5.39,46.77,46.77,0,0,0,.34-5.41,29.11,29.11,0,0,0-1.59-10.27c-1.16-3.13-3.17-5.63-5.93-6.71a10.24,10.24,0,0,0-1.06-.37l-1.12-.27-1.18-.13a11.55,11.55,0,0,0-1.18,0,10.38,10.38,0,0,0-4.44.95c-2.74,1.26-4.89,4-6.43,7.11a45.27,45.27,0,0,0-3.35,10.33A98.64,98.64,0,0,0,593.5,445.5Z"/><path d="M659.5,682.5c15.81-7.68,31.87-14.72,48-21.54s32.39-13.38,48.72-19.72S789,628.77,805.51,623s33.13-11.48,50-16.45c-15.81,7.69-31.86,14.74-48,21.55s-32.39,13.38-48.73,19.71S726,660.22,709.48,666,676.36,677.52,659.5,682.5Z"/><path d="M652.5,270.5c15.81-7.68,31.87-14.72,48-21.54s32.39-13.38,48.72-19.72S782,216.77,798.51,211s33.13-11.48,50-16.45c-15.81,7.69-31.86,14.74-48,21.55s-32.39,13.38-48.73,19.71S719,248.22,702.48,254,669.36,265.52,652.5,270.5Z"/><path d="M593.5,309.5c15.81-7.68,31.87-14.72,48-21.54s32.39-13.38,48.72-19.72S723,255.77,739.51,250s33.13-11.48,50-16.45c-15.81,7.69-31.86,14.74-48,21.55s-32.39,13.38-48.73,19.71S660,287.22,643.48,293,610.36,304.52,593.5,309.5Z"/><path d="M671.5,691.5c11.24-6,22.74-11.42,34.32-16.59s23.26-10.11,35-14.84,23.6-9.24,35.55-13.47c3-1.05,6-2.15,9-3.17l9-3,9.07-2.94L808,636c1.51-.49,3.06-.9,4.51-1.51a88.76,88.76,0,0,1-8.31,4.73c-2.82,1.49-5.67,2.89-8.51,4.33l-8.59,4.12c-2.87,1.37-5.77,2.65-8.65,4-11.55,5.27-23.24,10.19-35,14.91s-23.62,9.21-35.6,13.39S683.81,688.17,671.5,691.5Z"/><path d="M659.5,708.5a236.42,236.42,0,0,1,22.21-12q11.34-5.46,23-10.2t23.53-8.81a233.09,233.09,0,0,1,24.29-7,233,233,0,0,1-22.21,12q-11.34,5.46-23,10.19t-23.53,8.8A236.32,236.32,0,0,1,659.5,708.5Z"/><path d="M341.5,780.5a236.42,236.42,0,0,1,22.21-12q11.34-5.46,23-10.2t23.53-8.81a233.09,233.09,0,0,1,24.29-7,233,233,0,0,1-22.21,12q-11.34,5.46-23,10.19t-23.53,8.8A236.32,236.32,0,0,1,341.5,780.5Z"/><path d="M333.5,799.5a236.42,236.42,0,0,1,22.21-12q11.34-5.46,23-10.2t23.53-8.81a233.09,233.09,0,0,1,24.29-7,233,233,0,0,1-22.21,12q-11.34,5.46-23,10.19t-23.53,8.8A236.32,236.32,0,0,1,333.5,799.5Z"/><path class="cls-6" d="M546.5,593.5a29.65,29.65,0,0,0-15,24c-1,17,28,43,46,48s47,8,58-2,23-38,11-58-55-23-55-23Z"/><path d="M566.91,608.72c.07.43.2,1,.33,1.58s.29,1.11.43,1.67l.5,1.67.56,1.65a48,48,0,0,0,2.84,6.39,33.8,33.8,0,0,0,8.77,10.74,26.4,26.4,0,0,0,6,3.6c2.21,1,4.55,1.8,6.86,2.59a60.41,60.41,0,0,0,7.09,1.93,26.16,26.16,0,0,0,3.63.49,12.43,12.43,0,0,0,1.83,0,3.84,3.84,0,0,0,1.75-.49,4,4,0,0,1-1.72.71,11.55,11.55,0,0,1-1.86.25,26.06,26.06,0,0,1-3.75-.05,61.76,61.76,0,0,1-7.42-1.11c-2.45-.53-4.86-1.07-7.29-1.81a29.45,29.45,0,0,1-7.11-3.19,38.24,38.24,0,0,1-11.24-10.85,53.21,53.21,0,0,1-4-6.74l-.85-1.77-.78-1.81c-.24-.62-.49-1.23-.72-1.86s-.44-1.22-.66-2l0,0a3.51,3.51,0,0,1,6.75-1.94A3.29,3.29,0,0,1,566.91,608.72Z"/><path class="cls-7" d="M557.5,610.5s8,9,23,5,20-27,18-38-19-22-29-25-32,0-36,7-9,34,2,40,17,1,18,4A32.17,32.17,0,0,0,557.5,610.5Z"/><path class="cls-5" d="M546,602s-22,18-19,38,7,27,14,30,15-2,18-7-1.22-3.87,7.89-3.44S582,658,582,654s-22.76-36.37-20.88-40.68"/><path d="M546.22,602.27q-3.4,4.26-6.43,8.64a86.56,86.56,0,0,0-5.36,9,46.15,46.15,0,0,0-3.62,9.39,33.28,33.28,0,0,0-1,9.59c0,.76.11,1.72.17,2.59l.21,2.68c.13,1.78.31,3.56.49,5.33A40.75,40.75,0,0,0,533,659.8a15.47,15.47,0,0,0,6.18,7.91l1.11.58,1.15.49,1.16.32c.38.08.78.11,1.17.18a10.49,10.49,0,0,0,4.63-.7,16,16,0,0,0,7.26-5.77c.2-.31.41-.61.57-.92s.34-.62.49-.95a7.34,7.34,0,0,0,.36-.93c.11-.33.12-.49.27-1.07l.07-.29,0-.07.06-.16.15-.32a3,3,0,0,1,.48-.76,3.59,3.59,0,0,1,1-.82,4.48,4.48,0,0,1,1-.39,1.5,1.5,0,0,1,.34-.07l.24,0a3.88,3.88,0,0,1,.48,0h.77l.38,0,.7,0c.89.06,1.74.09,2.61.12a50,50,0,0,0,5.08-.09,24.58,24.58,0,0,0,4.66-.72,12.54,12.54,0,0,0,1.87-.68,3.79,3.79,0,0,0,1-.67c.11-.17,0,0,0,0h0v.08a.92.92,0,0,0,0,.16l0,.15c0,.07,0,0,0,0l0-.11v-.06l-.05-.11-.18-.45-.23-.53c-.64-1.44-1.51-3-2.31-4.58l-2.53-4.73L570.36,639l-2.48-4.85c-.83-1.62-1.61-3.28-2.38-4.93s-1.53-3.34-2.22-5-1.35-3.44-1.91-5.23a24.54,24.54,0,0,1-.68-2.75,8.7,8.7,0,0,1-.16-1.46,3.31,3.31,0,0,1,.27-1.57.34.34,0,0,1,.45-.17.35.35,0,0,1,.2.33v.12a5.14,5.14,0,0,0,.73,2.27c.39.78.85,1.53,1.31,2.29.92,1.52,1.95,3,2.95,4.47l6.19,8.86,3.09,4.46,3,4.52c1,1.51,2,3,3,4.62s1.9,3.16,2.81,5l.34.7.33.81.08.2.09.27.17.53c0,.11,0,.14.08.32s.06.33.08.49,0,.33,0,.49l0,.25v.17a12.38,12.38,0,0,1-.15,1.35c-.11.45-.25.9-.4,1.34s-.41.81-.64,1.2-.52.67-.79,1a10.81,10.81,0,0,1-3.45,2.4,17,17,0,0,1-3.27,1,39.08,39.08,0,0,1-11.87.3c-.93-.1-1.88-.2-2.79-.33l-1.13-.14h-.07l.15,0h.07l.17,0a2.1,2.1,0,0,0,.65-.28,2.42,2.42,0,0,0,.71-.6,2.93,2.93,0,0,0,.31-.47,1.34,1.34,0,0,0,.07-.18l0-.08h0v0c-.11.28-.32,1-.55,1.51a15,15,0,0,1-2.73,4.16,18.69,18.69,0,0,1-4.89,3.84,18.93,18.93,0,0,1-5.74,2.09,15.15,15.15,0,0,1-6.11-.07c-.5-.15-1-.27-1.47-.44l-1.4-.59-1.3-.69-1.23-.79a22.37,22.37,0,0,1-6.94-9,90.1,90.1,0,0,1-4.06-10.39c-.56-1.76-1.11-3.53-1.6-5.31-.27-.89-.46-1.78-.68-2.68s-.47-1.73-.62-2.77a26,26,0,0,1,.79-11.9,38.43,38.43,0,0,1,4.92-10.5A49.17,49.17,0,0,1,537,608.5a45.32,45.32,0,0,1,8.83-6.77.35.35,0,0,1,.45.53Z"/><path class="cls-7" d="M559,593s0,9-15,9"/><path class="cls-16" d="M407.5,651.5s11,16,21,14-13-19-13-19"/><path d="M407.5,651.5a65.22,65.22,0,0,0,9.53,9.14,24.32,24.32,0,0,0,5.55,3.19,9.84,9.84,0,0,0,5.92.63,2.65,2.65,0,0,0,1.12-.47.82.82,0,0,0,.4-.72,4.87,4.87,0,0,0-.89-2.53,32.82,32.82,0,0,0-4-5c-3-3.19-6.3-6.19-9.59-9.2a69.83,69.83,0,0,1,10.69,8.09,29.68,29.68,0,0,1,4.55,5.15,6.39,6.39,0,0,1,1.23,3.67,3,3,0,0,1-.31,1.18,3,3,0,0,1-.79.94,4.53,4.53,0,0,1-1.89.87,11.55,11.55,0,0,1-7.11-.82,23,23,0,0,1-5.81-3.73A41.39,41.39,0,0,1,407.5,651.5Z"/><path class="cls-16" d="M395.5,641.5s11,16,21,14-13-19-13-19"/><path d="M395.5,641.5a65.22,65.22,0,0,0,9.53,9.14,24.32,24.32,0,0,0,5.55,3.19,9.84,9.84,0,0,0,5.92.63,2.65,2.65,0,0,0,1.12-.47.82.82,0,0,0,.4-.72,4.87,4.87,0,0,0-.89-2.53,32.82,32.82,0,0,0-4-5c-3-3.19-6.3-6.19-9.59-9.2a69.83,69.83,0,0,1,10.69,8.09,29.68,29.68,0,0,1,4.55,5.15,6.39,6.39,0,0,1,1.23,3.67,3,3,0,0,1-.31,1.18,3,3,0,0,1-.79.94,4.53,4.53,0,0,1-1.89.87,11.55,11.55,0,0,1-7.11-.82,23,23,0,0,1-5.81-3.73A41.39,41.39,0,0,1,395.5,641.5Z"/><path class="cls-17" d="M427.5,666.5s7,16,16,10S431,662.22,431,662.22"/><path class="cls-17" d="M444.5,675.5s8,7,14,5-12.92-8.12-12.92-8.12"/><path class="cls-17" d="M458.5,680.5s19,2,19-5-17-1-18,0"/><path class="cls-17" d="M477.5,675.5s12-10,9-15-12.94,11.65-12.94,11.65"/><path class="cls-17" d="M486.5,660.5s14-10,11-15-14.71,15-14.71,15"/><path class="cls-17" d="M497.5,649.5s6-8,4-16-7,6-7,11"/><rect class="cls-18" x="0.5" y="0.5" width="1001" height="1001"/></g></g></svg>