<svg xmlns="http://www.w3.org/2000/svg" viewBox="0 0 132.11 149.05"><defs><style>.cls-1{fill:#1d3033;stroke:#1d3033;stroke-linecap:round;stroke-linejoin:round;stroke-width:.66px}.cls-2{fill:#433138}.cls-3{fill:#f3ed64}.cls-4{fill:#3e3f3f}.cls-5{fill:#f7e5d7}.cls-6{fill:#9e7642}.cls-7{fill:#dc4846}.cls-8{fill:#dadada}.cls-9{fill:#a3a2a2}.cls-10{fill:#1a5486}.cls-12{fill:#fff}.cls-13{fill:none}.cls-14{fill:#6b6b6b}.cls-15{fill:#8d1d22}.cls-16{fill:#f9d9d9}</style></defs><g id="レイヤー_2" data-name="レイヤー 2"><g id="レイヤー_3" data-name="レイヤー 3"><path class="cls-1" d="M103 106.88a3.08 3.08 0 0 0-.18-.74c10.64-.49 22.1 3.49 28.76 11.87a.84.84 0 0 1 .13 1 .23.23 0 0 0-.33-.2l-1 .43a.68.68 0 0 1-.23-.36c-3.23-9.89-19.48-10.53-27.81-11.22a.74.74 0 0 1-.67-1 3.42 3.42 0 0 0 .92.54.32.32 0 0 0 .41-.32z"/><path class="cls-1" d="M130.6 119.39a.39.39 0 0 1-.25-.18l1-.43a.23.23 0 0 1 .33.2s-.08.1-.1.16c-.18.08-.33.18-.51.26a.52.52 0 0 1-.47-.01z"/><path class="cls-1" d="M131.58 119.14c0-.06.08-.11.1-.16a.19.19 0 0 1-.1.16zM131 119.42c.18-.08.33-.18.51-.26a1.08 1.08 0 0 1-.51.26z"/><path class="cls-1" d="M130.6 119.39a.52.52 0 0 0 .44 0c-5.33 2.82-9.43 5.28-13.38 10.1-2.9 3.53-5.89 7.92-10.07 10.1-2.93 1.53-6.08 2.61-9.46 2.15-3.59-.51-7.74-2.08-11.36-1.72-2.48.28-4.66.9-7.1.9v-.57c2.31.06 4.77-1 7.1-1 4-.18 7.59 1.39 11.56 1.72 6.85.59 11.64-3.25 15.79-8.23 2.08-2.51 4-5 6.26-7.43 2.62-2.79 6.71-4.3 10.22-6.02z"/><path class="cls-1" d="M130.35 119.21a.39.39 0 0 0 .25.18c-3.51 1.72-7.63 3.23-10.22 6-2.21 2.38-4.18 4.92-6.26 7.43-4.15 5-8.94 8.82-15.79 8.23-4-.33-7.58-1.9-11.56-1.72-2.33 0-4.79 1.11-7.1 1v-.66c4.18-.49 7.74-1.57 12-.67 7.33 1.57 13.84 2 19.48-3.87 3.54-3.69 6.38-8 10.26-11.35 2.38-2.13 5.86-3.29 8.94-4.57z"/><path class="cls-2" d="M130.12 118.85a.68.68 0 0 0 .23.36c-3.08 1.28-6.56 2.44-9 4.62-3.88 3.35-6.72 7.66-10.26 11.35-5.64 5.85-12.15 5.44-19.48 3.87-4.23-.9-7.79.18-12 .67-.38-7-2.54-15.82-3.07-18.23a24.36 24.36 0 0 0 2.51-1.79.92.92 0 0 0 .36-.23c2.1.28 4.49-.84 6.36-1.61a18.5 18.5 0 0 0 6-3.54.25.25 0 0 0 .46-.08c1.46-4.48.51-9.89-1-14.71a16.28 16.28 0 0 0 3.2-.49A31.85 31.85 0 0 0 98.1 103c1.1 1.1 2.21 2.77 3.54 3.69a.74.74 0 0 0 .67 1c8.33.63 24.58 1.31 27.81 11.16z"/><path class="cls-1" d="M117.2 81.76a16.34 16.34 0 0 1 1.8 7.18.62.62 0 0 1-.44.59.63.63 0 0 0-.18-.72c.26-3.77-2.33-9-4.79-11.28h.08a.32.32 0 0 0 .12-.28c1.49.49 2.87 3.44 3.41 4.51z"/><path class="cls-1" d="M118.35 88.81a.63.63 0 0 1 .18.72.69.69 0 0 1-.66-.18.51.51 0 0 1-.16-.41v-.18a.53.53 0 0 1 .64.05z"/><path class="cls-1" d="M117.87 89.35a.69.69 0 0 0 .66.18.44.44 0 0 1-.23.28c-4.13 2.85-9 3.59-13.58 5.28-3 1.08-6 2.62-9.13 3.57a2.81 2.81 0 0 0-.64-.52c3.31-1 6.82-2.77 9.59-3.69 1.64-.59 3.46-1.08 5.28-1.61a.65.65 0 0 0 1.23-.36 22.21 22.21 0 0 0 6.82-3.13zM113.56 77.53c2.46 2.29 5 7.51 4.79 11.28a.53.53 0 0 0-.64-.07 13.77 13.77 0 0 0-2.1-7.62c-.59-1-2-2.18-2.38-3.33a1.25 1.25 0 0 0 .33-.26z"/><path class="cls-1" d="M117.71 88.94a.51.51 0 0 0 .16.41 22.21 22.21 0 0 1-6.82 3.13.52.52 0 0 0 0-.26c-.06-.13-.11-.26-.16-.38a28.49 28.49 0 0 0 6.85-3.08z"/><path class="cls-3" d="M115.61 81.12a13.77 13.77 0 0 1 2.1 7.62 28.49 28.49 0 0 1-6.85 3.08c-1.49-3.49-1.54-8.44-4.92-10.74a21.59 21.59 0 0 0 7.31-3.31c.39 1.17 1.75 2.33 2.36 3.35z"/><path class="cls-1" d="M113.25 77.28l-.15.07a.27.27 0 0 1 0-.15s.05-.08.1-.1a1.1 1.1 0 0 1 .59.1.32.32 0 0 1-.12.28h-.08a2.27 2.27 0 0 0-.34-.2z"/><path class="cls-1" d="M113.76 77.2a1.1 1.1 0 0 0-.59-.1s-.1.05-.1.1a.27.27 0 0 0 0 .15c-3.34 2.16-9.18 3.49-12.87 4.67-3.13 1-6.46 2.13-9.77 3.08a.49.49 0 0 0 .06-.31c0-.11 0-.23-.06-.34 7.62-2.51 15.36-4.58 22.77-7.63.31-.13.54.12.56.38z"/><path class="cls-1" d="M113.56 77.53a1.25 1.25 0 0 1-.33.26.9.9 0 0 1-.13-.44l.15-.07a2.27 2.27 0 0 1 .31.25z"/><path class="cls-1" d="M113.1 77.35a.9.9 0 0 0 .13.44 21.59 21.59 0 0 1-7.31 3.31 1.65 1.65 0 0 0-.33-.23.34.34 0 0 0-.46.46c-.75.2-1.49.43-2.21.64-4.89 1.43-9.71 3.3-14.76 4.25a1.54 1.54 0 0 0-.08-.46c.51-.13 1-.25 1.51-.43a.66.66 0 0 0 .87-.23c3.31-.95 6.64-2.11 9.77-3.08 3.69-1.18 9.53-2.51 12.87-4.67zM111.05 92.48a.65.65 0 0 1-1.23.36q.62-.16 1.23-.36zM110.25 92l.59-.2c0 .12.1.25.16.38a.52.52 0 0 1 0 .26q-.61.19-1.23.36a.46.46 0 0 1-.08-.28v-.34a4 4 0 0 1 .56-.18z"/><path class="cls-1" d="M110.84 91.84l-.59.2c-1-3.41-1.87-8.48-4.77-10.82.16 0 .31-.07.44-.12 3.38 2.3 3.43 7.25 4.92 10.74z"/><path class="cls-1" d="M110.25 92a4 4 0 0 0-.56.18 21.9 21.9 0 0 0-4.54-10.82.1.1 0 0 1 0-.07l.35-.11c2.88 2.38 3.8 7.45 4.75 10.82zM109.74 92.56a.46.46 0 0 0 .08.28c-1.82.53-3.64 1-5.28 1.61-2.77.92-6.28 2.64-9.59 3.69a2 2 0 0 0-.36-.28.44.44 0 0 0-.61.59 19.05 19.05 0 0 1-3 .58q-.07-.25-.15-.48c4.71-1.1 8.94-3.21 13.51-4.74 1.77-.59 3.56-1.08 5.33-1.62.04.13.04.26.07.37z"/><path class="cls-2" d="M105.15 81.4a21.9 21.9 0 0 1 4.54 10.82c-1.77.54-3.56 1-5.33 1.62-4.57 1.53-8.8 3.64-13.51 4.74-.41-1.21-.87-2.36-1.31-3.46 1.08-2.1.95-4.46-1.36-5.72a.41.41 0 0 0 .13-.28 11 11 0 0 0-.15-2.9c5-1 9.87-2.82 14.76-4.25.72-.21 1.46-.44 2.21-.64a.1.1 0 0 0 .02.07z"/><path class="cls-1" d="M105.48 81.22l-.35.11a.34.34 0 0 1 .46-.46 1.65 1.65 0 0 1 .33.23c-.13.05-.28.07-.44.12zM103 106.88h-.33l-.54-.69a.43.43 0 0 1 .21 0 2.36 2.36 0 0 1 .46 0 3.08 3.08 0 0 1 .2.69z"/><path class="cls-1" d="M102.64 106.88h.36a.32.32 0 0 1-.41.31 3.42 3.42 0 0 1-.92-.54.65.65 0 0 1 .46-.46zM102.77 106.14a2.36 2.36 0 0 0-.46 0 .43.43 0 0 0-.21 0c-2.13-2.72-4.74-4.84-7.15-7.33l.64-.2a49.73 49.73 0 0 1 4 3.66c1.08 1.1 2.67 2.36 3.18 3.87zM99.87 50.67a59.12 59.12 0 0 1 2.85 19.46.07.07 0 0 1 0 .07 2.63 2.63 0 0 0-.26-1.07 63.21 63.21 0 0 0-3.76-20.38c-1.13-3.51-2.23-8.35-4.87-11.12s0-.08 0-.1c3.48 3.35 4.63 8.55 6.04 13.14zM102.36 70.31a.2.2 0 0 0 .33-.11 3.87 3.87 0 0 1 0 .49c0 .13-.21.15-.31.08a11.3 11.3 0 0 1-1.38-2.31 25.44 25.44 0 0 0-2.41-3 37.33 37.33 0 0 1-3-3.33 2.07 2.07 0 0 0-.08-.57c2.13 2.54 5.49 5.28 6.69 8.44v.16a.29.29 0 0 0 .16.15z"/><path class="cls-1" d="M102.43 69.13a2.63 2.63 0 0 1 .26 1.07.2.2 0 0 1-.33.11c0-.13-.08-.23-.13-.34 0-.52 0-1-.1-1.52a3 3 0 0 1 .33.67l-.03.01zM102.23 70c0 .11.08.21.13.34a.29.29 0 0 1-.13-.18zM102.1 68.43c.05.52.08 1 .1 1.52-1.2-3.11-4.56-5.85-6.69-8.44a1.56 1.56 0 0 0-.05-.36 51.49 51.49 0 0 1 4.82 5 17.25 17.25 0 0 1 1.82 2.28z"/><path class="cls-1" d="M102.43 69.1a3 3 0 0 0-.33-.67 78.26 78.26 0 0 0-3.23-17.5c-1.41-4.39-2.31-9.1-5-12.9v-.05a2.47 2.47 0 0 0 0-.38c2.64 2.77 3.74 7.61 4.87 11.12a63.21 63.21 0 0 1 3.69 20.38zM102.1 106.19a.65.65 0 0 0-.46.46c-1.33-.92-2.44-2.59-3.54-3.69A31.85 31.85 0 0 1 94.36 99l.59-.15c2.41 2.5 5.05 4.62 7.15 7.34zM93.26 10.94c6.35 6 9.48 17.58 7.46 26a.32.32 0 0 1-.52.16.61.61 0 0 0 .36-.47 1.55 1.55 0 0 0 0-.61c1.21-9.15-2.59-18.2-7.38-24.87z"/><path class="cls-1" d="M93.13 11.14c4.79 6.67 8.59 15.72 7.38 24.87a2.44 2.44 0 0 0-.38-1 36.93 36.93 0 0 0-1.64-11.9c-1.44-4.2-3.8-7.74-5.54-11.73a1.25 1.25 0 0 0 .18-.24z"/><path class="cls-4" d="M102.1 68.43a17.25 17.25 0 0 0-1.82-2.3 51.49 51.49 0 0 0-4.82-5 11.8 11.8 0 0 0-1-3.15c0-.08-.15 0-.13 0 1.08 3.59.41 7.74-.59 11.31a15.8 15.8 0 0 0-2.25-2.87 35.36 35.36 0 0 0-2.26-5.95 24.06 24.06 0 0 0-2.36-4.77 21.19 21.19 0 0 0 1-5.13c0-.49-.69-.46-.74 0-.31 2.64-1.41 5-2 7.61-2.44-4.56-5-8.79-6.67-13.79v-.13c.1-.3.23-.59.33-.87s-.33-.46-.46-.2l-.46.87a.48.48 0 0 0-.29.49c-2.79 5.13-5.69 10.31-8.25 15.51a32.91 32.91 0 0 0-2-2.9 43.94 43.94 0 0 1-3.1-5.15.39.39 0 0 0-.26-.23 2.17 2.17 0 0 0 0-.36c0-.36-.62-.51-.67-.1a58.37 58.37 0 0 0-.92 8.46 34.61 34.61 0 0 1-9.59-26.33c0-.23-.36-.28-.41-.05a20.86 20.86 0 0 0-.33 9.05c-1.72 10.61-6.21 20.12-10.26 30a60.41 60.41 0 0 0-6.12 2.58c-.36-.64-.69-1.28-1-1.94a.64.64 0 0 0-.23-1.08 1.3 1.3 0 0 1-.25-.1c-5.36-13.82 1.59-33 13.66-40.81 1.13-.25 2.28-.56 3.41-.89 5-1.44 8.53 2.1 11.33 5.82 2 2.74 3.74 5.76 5.61 8.63a.64.64 0 0 0 1 .13c3.68-3.5 10.8-13.11 16.42-7.09 2.59 2.79 4.41 6.69 6 10.15a.65.65 0 0 0 1.18.28c1.38-2.92 1.48-6.54 1-10.13 2.71 3.8 3.61 8.51 5 12.9a78.26 78.26 0 0 1 3.3 17.53z"/><path class="cls-1" d="M100.51 36a1.55 1.55 0 0 1 0 .61.61.61 0 0 1-.36.47.46.46 0 0 1-.08-.24V35a2.44 2.44 0 0 1 .44 1z"/><path class="cls-1" d="M91.62 29.55v.56l-.28-.11c-.62-.36-.08-1.2.53-.92a27.24 27.24 0 0 1 5.54 3.18 10.42 10.42 0 0 1 2.72 2.74v1.84a.46.46 0 0 0 .08.24.41.41 0 0 1-.49-.11c-.61-.66-1-1.48-1.64-2.12a21.18 21.18 0 0 0-2.33-2c-1.08-.77-2.21-1.49-3.33-2.21-.08-.28-.16-.54-.21-.79a1.81 1.81 0 0 1-.1-.34.24.24 0 0 0-.49.04z"/><path class="cls-3" d="M98.49 23.11A36.93 36.93 0 0 1 100.13 35a10.42 10.42 0 0 0-2.72-2.74 27.24 27.24 0 0 0-5.54-3.18c-.61-.28-1.15.56-.53.92l.23.15c-.21 5.51 2.05 10.72.56 16.15-2.74-6.92-7.79-16.22-15.74-9.94-1.1.87-7.3 7.58-8.3 6.07-1.93-2.92-3.62-6.07-5.92-8.74C57.58 28.34 54 28 47.48 30.37a.45.45 0 0 0-.23.67 36 36 0 0 0-12.54 14.14c1.16-4.48 1.51-9.17 3-13.61 1.36-3.89 2.9-7.76 2.34-12a.62.62 0 0 0-.57-.43 13.71 13.71 0 0 0-8.64 4.1c2.18-7.64 6.41-15.48 13.1-20 .26 5.32 5.77 8.29 10.56 8.76 6.82.67 11.74-5.1 15-10.3 2.62 5.56 6.1 11.71 11.61 14.81 4.15 2.36 9.54-1.72 11.87-5.12 1.71 3.98 4.07 7.52 5.51 11.72z"/><path class="cls-1" d="M95.1 61.31c.16.28.31.51.49.77a18.88 18.88 0 0 1-.74 8.23.64.64 0 0 1-.49.43 10.91 10.91 0 0 0-.67-1.38c1-3.57 1.67-7.72.59-11.31 0-.07.11-.13.13 0a11.8 11.8 0 0 1 1 3.15l-.3-.28a.18.18 0 0 0-.11 0c-.08 0-.15.07-.1.2z"/><path class="cls-1" d="M95.51 61.51a2.07 2.07 0 0 1 .08.57c-.18-.26-.33-.49-.49-.77a1.56 1.56 0 0 0 0-.31 3.88 3.88 0 0 0 .41.51zM95 98.14a2.81 2.81 0 0 1 .64.52l-.64.2c-.18-.18-.33-.36-.51-.54a3.45 3.45 0 0 0 .51-.18z"/><path class="cls-1" d="M95.46 61.15a1.56 1.56 0 0 1 .05.36 3.88 3.88 0 0 1-.43-.51.27.27 0 0 0 0-.15.18.18 0 0 1 .11 0z"/><path class="cls-1" d="M95.08 61a1.56 1.56 0 0 1 0 .31l-.08-.26c0-.13 0-.2.1-.2a.27.27 0 0 1-.02.15zM94.44 98.32c.18.18.33.36.51.54l-.59.15a5.82 5.82 0 0 1-.38-.53 4.61 4.61 0 0 0 .46-.16z"/><path class="cls-1" d="M94.44 98.32a4.61 4.61 0 0 1-.46.13.44.44 0 0 1 .61-.59 2 2 0 0 1 .36.28 3.45 3.45 0 0 1-.51.18zM94.36 70.74a3.72 3.72 0 0 1-.43 3.67c-2 2.59-5.26 3.76-8.31 4.64-.1-.21-.21-.39-.33-.59 2.53-.7 5.89-1.88 7.69-3.67a3.79 3.79 0 0 0 .84-4.13.65.65 0 0 0 .54.08zM94 98.48a5.82 5.82 0 0 0 .38.53 16.28 16.28 0 0 1-3.2.49c0-.15-.11-.31-.16-.44a19.05 19.05 0 0 0 2.98-.58z"/><path class="cls-1" d="M94.36 70.74a.65.65 0 0 1-.54-.08 3.62 3.62 0 0 0-.28-.71c0-.21.1-.39.15-.59a10.91 10.91 0 0 1 .67 1.38z"/><path class="cls-1" d="M93.82 70.66a3.79 3.79 0 0 1-.82 4.13c-1.8 1.79-5.16 3-7.69 3.67-.11-.21-.21-.39-.34-.59a20 20 0 0 0 6.77-2.75c3.44-2.51 1.33-5.66-.56-8.28a.16.16 0 0 0 .23 0A14.84 14.84 0 0 1 93.54 70a.57.57 0 0 0 .28.66zM93.85 38c.43 3.59.33 7.21-1 10.13a.65.65 0 0 1-1.18-.28v.07c.25.52 1.15.13 1-.41a1.94 1.94 0 0 0-.13-.3c2-4.8 0-11.85-.57-16.84.16.07.31.17.47.25a58.67 58.67 0 0 1 1.38 6.82 4.05 4.05 0 0 0-.56-.54c-.08 0-.16 0-.11.1.26.31.52.64.75.95-.03.05-.03.05-.05.05z"/><path class="cls-1" d="M93.8 37.57a2.47 2.47 0 0 1 0 .38c-.23-.31-.49-.64-.75-.95 0-.07 0-.12.11-.1a4.05 4.05 0 0 1 .56.54s.08.11.08.13zM93.54 70a3.62 3.62 0 0 1 .28.71.57.57 0 0 1-.28-.71zM93.69 69.36c0 .2-.1.38-.15.59a14.84 14.84 0 0 0-2.15-3.16s.07-.1.07-.16v-.12a15.8 15.8 0 0 1 2.23 2.85zM92.8 10.27c.33-.23.74.21.53.54 0 0 0 .08-.07.13l-.13-.13c-.18-.15-.39 0-.31.26s.08.2.13.31c-2.33 3.4-7.72 7.48-11.87 5.12-5.51-3.1-9-9.25-11.61-14.81.1-.13.18-.29.26-.41a2.77 2.77 0 0 1 .1-.26.3.3 0 0 1 .36.13c2.69 3.3 4.41 7.38 7.38 10.48 3.56 3.69 7.59 5 11.79 1.33a29.74 29.74 0 0 1 3.44-2.69z"/><path class="cls-1" d="M93.13 11.14a1.25 1.25 0 0 1-.18.24c0-.11-.08-.21-.13-.31s.13-.41.31-.26l.13.13zM91.92 30.4c.54 5 2.54 12 .57 16.84-.1-.29-.23-.59-.36-.93 1.49-5.43-.77-10.64-.56-16.15a1.46 1.46 0 0 1 .35.24z"/><path class="cls-1" d="M91.87 47.06c.11-.26.18-.52.26-.75.13.34.26.64.36.93a1.94 1.94 0 0 1 .13.3c.2.54-.7.93-1 .41v-.07a.41.41 0 0 1 0-.18 4.82 4.82 0 0 0 .25-.64zM92 114a.07.07 0 0 0 0-.07.55.55 0 0 0 0-.18 41.44 41.44 0 0 0-.41-10.69 34.18 34.18 0 0 0-1.15-3.56 5.86 5.86 0 0 0 .72 0c1.56 4.82 2.51 10.23 1 14.71a.25.25 0 0 1-.46.08s.07-.05.1-.08a.3.3 0 0 0 .2-.21zM92.18 29.86c0 .25.13.51.21.79-.16-.08-.31-.18-.47-.25 0-.24 0-.47-.07-.7z"/><path class="cls-1" d="M91.85 29.7l-.23-.13a.24.24 0 0 1 .46 0 1.81 1.81 0 0 0 .1.34z"/><path class="cls-5" d="M91.16 66.84c1.89 2.62 4 5.77.56 8.28A20 20 0 0 1 85 77.87a19.56 19.56 0 0 0-3.18-4 .42.42 0 0 0-.53-.07c-1.51-1.08-4.28-.93-5.95-.88-2.35.06-5 .39-7 1.72-.13.08-.1.29.05.26s.1 0 .15 0c-.17 0-.33.29-.15.41a24.67 24.67 0 0 1 2.28 2.11 11 11 0 0 0-4.23-.65 31.56 31.56 0 0 0-6.69.26.35.35 0 0 0-.53-.18 3.11 3.11 0 0 0-.57.46.33.33 0 0 0-.26.31s-.05 0-.05.08a4 4 0 0 0-.64.84 7.43 7.43 0 0 0-1.49 0c-.56.06-1.13.08-1.69.11a59.62 59.62 0 0 0 5.82-8.87.47.47 0 0 0 0-.33.23.23 0 0 0-.23-.31h-.18a52.78 52.78 0 0 0-17.09 3c4.38-8 9.2-17.53 9.74-26.86 1.61 6.2 5.25 12.2 9.76 15.43v.08a.53.53 0 0 0 1 0c.18-2.06.52-4.26.57-6.39a17.45 17.45 0 0 0 1.74 3.08 29.79 29.79 0 0 0 3 4c-.15.43.39.9.75.51.3 0 .64-.26.51-.61 3.66-4.29 5.87-10 7.89-15.38 1 5 4.03 9.69 7 13.67a.48.48 0 0 0 .82-.49l-.08-.13a.3.3 0 0 0 .18-.21c.31-.79.59-1.56.87-2.36.57 1.75 1.28 3.44 1.9 5.13s1.28 3.82 2.62 5.23h.05zm-8.77-2.2c.18-1.41.61-4.43-1-5.23s-2.56 1.9-2.67 3.05a12.73 12.73 0 0 0 .9 6.23c-.13.36.31.72.67.64 1.56-.23 1.95-3.49 2.1-4.69zM57 66.23c.61-2 1.23-5.77-.52-7.43-1.95-1.8-3.34 1.25-3.48 2.74-.16 1.66-.46 6.12 1.2 7.23a.19.19 0 0 0 .29-.21v-.18a.81.81 0 0 0 1.2.28A4.4 4.4 0 0 0 57 66.23z"/><path class="cls-1" d="M91.59 103.09a41.44 41.44 0 0 1 .41 10.69.76.76 0 0 0-.38-.57c-.18-3.74.3-7.61-.87-11.25a32 32 0 0 1-1.85-5.87 1.65 1.65 0 0 0 .33-.46 23.88 23.88 0 0 0 1 3.15.41.41 0 0 0 .21.75 34.18 34.18 0 0 1 1.15 3.56zM47.73 30.73a1.64 1.64 0 0 0-.48.31.45.45 0 0 1 .23-.67c6.53-2.39 10.1-2 14.69 3.33 2.3 2.67 4 5.82 5.92 8.74 1 1.51 7.2-5.2 8.3-6.07 8-6.28 13 3 15.74 9.94-.08.23-.15.49-.26.75-1.71-4-6.53-13.13-10.27-12.49-4.85.87-9.49 6.72-12.95 9.85C65.7 40.08 63 34.75 59 31.11c-3.39-3.05-6.77-1.74-10.56-.59a.15.15 0 0 0-.23-.07 3.87 3.87 0 0 0-.48.28zM92 113.78a.55.55 0 0 1 0 .18v-.18z"/><path class="cls-1" d="M92 113.78v.18a.07.07 0 0 1 0 .07.3.3 0 0 1-.1.18s-.08.08-.1.08a.19.19 0 0 1-.08-.15v-.93a.76.76 0 0 1 .28.57zM91.92 30.4a1.46 1.46 0 0 0-.35-.24v-.56l.23.13c.07.2.1.43.12.67zM91.87 47.06a4.82 4.82 0 0 1-.2.61.41.41 0 0 0 0 .18c-1.59-3.46-3.41-7.36-6-10.15-5.59-6-12.74 3.59-16.53 7.15a.64.64 0 0 1-1-.13c-1.87-2.87-3.56-5.89-5.61-8.63-2.8-3.72-6.31-7.26-11.33-5.82-1.13.33-2.28.64-3.41.89.21-.15.41-.28.62-.41a.14.14 0 0 0 0-.2c3.79-1.15 7.17-2.46 10.56.59 4 3.64 6.71 9 9.66 13.31 3.46-3.13 8.1-9 12.95-9.85 3.76-.67 8.58 8.51 10.29 12.46zM79.65 118.93c0-.2.13-.41.18-.61 4.07-1.23 7.81-2.39 11.3-5a.44.44 0 0 1 .49-.06v.93a.19.19 0 0 0 .08.15 18.5 18.5 0 0 1-6 3.54c-1.87.77-4.26 1.89-6.36 1.61a1 1 0 0 0 .13-.28z"/><path class="cls-3" d="M91.62 113.21a.44.44 0 0 0-.49.06c-3.49 2.66-7.23 3.82-11.3 5 1.71-5.8 3.28-13.49.82-19.18a.59.59 0 0 0 .23 0c3.07 1.11 6.33-.66 8-3.1a32 32 0 0 0 1.87 6.01c1.17 3.6.69 7.47.87 11.21z"/><path class="cls-1" d="M91.46 66.61c0 .06 0 .13-.07.16l-.16-.16v-.07c-.07-.18-.18-.36-.26-.54a3.94 3.94 0 0 1 .52.49c-.05.05-.03.07-.03.12z"/><path class="cls-1" d="M91.18 66.54v.07l.16.16a.16.16 0 0 1-.23 0c-.26-.33-.49-.66-.72-1-.1-.13.1-.28.23-.15l.25.25c.13.31.24.49.31.67z"/><path class="cls-1" d="M91.16 66.84c-1.34-1.41-2-3.44-2.62-5.23s-1.33-3.38-1.9-5.13a3.43 3.43 0 0 1 .13-.38c1.59 3.2 2.62 6.66 4.2 9.89l-.25-.25c-.13-.13-.33 0-.23.15.18.29.41.62.67.95zM91 99.06c0 .13.11.29.16.44a5.86 5.86 0 0 1-.72 0c-.08-.26-.18-.52-.26-.75a.31.31 0 0 1 .1 0 4 4 0 0 0 .57-.15q.08.21.15.46z"/><path class="cls-1" d="M91.44 66.49a3.94 3.94 0 0 0-.52-.49c-1.58-3.23-2.61-6.69-4.2-9.89a1.86 1.86 0 0 1 .1-.31 24.06 24.06 0 0 1 2.36 4.77 35.36 35.36 0 0 1 2.26 5.92zM90.85 98.58a4 4 0 0 1-.57.15.31.31 0 0 0-.1 0 23.88 23.88 0 0 1-1-3.15 4.92 4.92 0 0 0 .31-.51c.51 1.15.95 2.3 1.36 3.51zM89.85 84.66c.2-.08.41-.15.61-.21 0 .11 0 .23.06.34a.49.49 0 0 1-.06.31 7 7 0 0 1-.87.23.5.5 0 0 1-.33-.36v-.1a5 5 0 0 1 .59-.21z"/><path class="cls-1" d="M90.46 84.45c-.2.06-.41.13-.61.21a7.81 7.81 0 0 0-3.59-4.41l-.26-.61a7.53 7.53 0 0 1 4.46 4.81zM89.59 85.33a7 7 0 0 0 .87-.23.66.66 0 0 1-.87.23zM90.18 98.78c.08.23.18.49.26.75a.41.41 0 0 1-.26-.75z"/><path class="cls-1" d="M89.85 84.66a5 5 0 0 0-.62.21 7.29 7.29 0 0 0-2.64-3.93c-.1-.23-.21-.44-.31-.67a7.81 7.81 0 0 1 3.57 4.39zM89.59 85.33c-.51.18-1 .3-1.51.43a2.51 2.51 0 0 0-.08-.49l1.21-.38v.1a.5.5 0 0 0 .38.34zM88.18 89.4c2.31 1.26 2.44 3.62 1.36 5.72l-.23-.54c1.08-2.56 0-5.28-4.61-5.43a8.64 8.64 0 0 0-5.57 2.15 4.28 4.28 0 0 0-.1-.64 8.75 8.75 0 0 1 7.61-1.82 4.48 4.48 0 0 1 .62.2.8.8 0 0 1 0 .26c.1.41.67.38.92.1z"/><path class="cls-1" d="M89.31 94.58l.23.54a4.92 4.92 0 0 1-.31.51c0-.2-.1-.41-.13-.61a2.23 2.23 0 0 0 .21-.44zM84.7 89.12c4.64.15 5.69 2.87 4.61 5.43-.08-.18-.13-.33-.21-.48s-.17 0-.17 0a4.67 4.67 0 0 0-.06 1.34 7.7 7.7 0 0 1-3.79 3.12.28.28 0 0 0-.15-.36 2.28 2.28 0 0 0-.59 0 6.83 6.83 0 0 0 3.74-2.61c1.28-1.85 1.61-4.54-1-5.41-3-1-7.41 0-8.87 3.18a3.38 3.38 0 0 0 .23 3.46l-.92-.79-.08-.08a4.15 4.15 0 0 1 .87-3.74c.41.1 1-.15.88-.64a.82.82 0 0 0-.06-.26 8.64 8.64 0 0 1 5.57-2.16z"/><path class="cls-1" d="M89.1 95a4 4 0 0 1-.23.41 4.67 4.67 0 0 1 .06-1.34c0-.07.12-.1.17 0s.13.3.21.48a2.23 2.23 0 0 1-.21.45z"/><path class="cls-1" d="M89.23 95.63a1.65 1.65 0 0 1-.33.46 4.64 4.64 0 0 1 0-.66 4 4 0 0 0 .2-.43c.03.22.08.43.13.63z"/><path class="cls-6" d="M89.21 84.87l-1.21.38a20.75 20.75 0 0 0-1.43-4.31 7.29 7.29 0 0 1 2.64 3.93z"/><path class="cls-1" d="M88.87 95.43a4.64 4.64 0 0 0 0 .66c-1.69 2.44-5 4.21-8 3.1a6.77 6.77 0 0 0 4.1-.56l.07-.08a7.7 7.7 0 0 0 3.83-3.12z"/><path class="cls-7" d="M87.08 90.12c2.61.87 2.28 3.56 1 5.41a6.83 6.83 0 0 1-3.74 2.61c-1-.07-2.08.13-3.1 0a3.53 3.53 0 0 1-1.52-.41h-.1c-.38-.33-.79-.66-1.18-1a3.38 3.38 0 0 1-.23-3.46c1.46-3.15 5.85-4.18 8.87-3.15z"/><path class="cls-1" d="M87.39 86a.46.46 0 0 0 .54.25h.23a11 11 0 0 1 .15 2.9.41.41 0 0 1-.13.28 3.64 3.64 0 0 0-.92-.41c-.77-5.1-2.44-10.61-6.18-14.33a2.13 2.13 0 0 0 .57 0s.1 0 .1-.08a16.14 16.14 0 0 1 2.59 3.61.69.69 0 0 0 .56 1.08.77.77 0 0 0 .12.26.15.15 0 0 0-.12.11c-.05.07-.08.12-.05.2v.08a.38.38 0 0 0 .28.28 1.2 1.2 0 0 1 .28.13 29.51 29.51 0 0 1 1.9 5.48.43.43 0 0 0 .08.16z"/><path class="cls-1" d="M88.08 85.76a1.54 1.54 0 0 1 .08.46h-.23a.46.46 0 0 1-.54-.25.45.45 0 0 1 .28-.64l.33-.11a2.51 2.51 0 0 1 .08.54z"/><path class="cls-1" d="M88 85.25l-.33.11a.44.44 0 0 0-.33.43 29.51 29.51 0 0 0-1.9-5.48 5 5 0 0 1 1.13.59A20.75 20.75 0 0 1 88 85.25zM88.18 89.4c-.25.28-.82.31-.87-.15a.8.8 0 0 0 0-.26 3.64 3.64 0 0 1 .87.41zM86.44 55.31c-.1 0-.2 0-.18.18l.08.2c-.34 1-.7 2.06-1 3a4.59 4.59 0 0 1-.26-.49c.54-2.59 1.64-5 2-7.61 0-.46.77-.49.74 0a21.19 21.19 0 0 1-1 5.13 2.84 2.84 0 0 0-.25-.39s-.08-.02-.13-.02z"/><path class="cls-3" d="M87.26 89a4.48 4.48 0 0 0-.62-.2A8.75 8.75 0 0 0 79 90.61c-.67-3.59-2.41-6.41-4.43-9.46-1.54-2.31-3.28-5.36-6-6.26a65.76 65.76 0 0 1 6.71-.84c1.93 0 3.95.71 5.8.61 3.74 3.72 5.41 9.23 6.18 14.34z"/><path class="cls-1" d="M86.82 55.75a1.86 1.86 0 0 0-.1.31c-.1-.21-.2-.41-.31-.62v-.15c0-.05.1 0 .13 0a2.84 2.84 0 0 1 .28.46zM86.41 55.46c.11.21.21.41.31.62a3.43 3.43 0 0 0-.13.38 6.91 6.91 0 0 1-.25-.77.75.75 0 0 1 .07-.23z"/><path class="cls-1" d="M86.34 55.69a6.91 6.91 0 0 0 .25.77c-.28.8-.56 1.57-.87 2.36a.3.3 0 0 1-.18.21l-.15-.31c.25-.97.61-2 .95-3.03zM86.44 55.31v.15a.75.75 0 0 0-.07.23l-.08-.2c-.05-.13.05-.18.15-.18zM86.26 80.25c.1.23.21.44.31.67a5 5 0 0 0-1.13-.59c-.08-.16-.15-.34-.23-.49a3.7 3.7 0 0 1 1.05.41z"/><path class="cls-1" d="M86 79.64l.31.61a3.7 3.7 0 0 0-1.05-.41l-.16-.31a.39.39 0 0 1 .31-.05 5.55 5.55 0 0 1 .59.16z"/><path class="cls-1" d="M86 79.64a5.55 5.55 0 0 0-.59-.18.39.39 0 0 0-.31.05.77.77 0 0 1-.12-.26.25.25 0 0 0 .12 0c.18-.06.39-.11.57-.18a4.91 4.91 0 0 1 .33.57zM78.08 45.11c.11-.26.21-.52.31-.75v.13c1.69 5 4.23 9.23 6.67 13.79 0 .13-.06.28-.08.41a.37.37 0 0 0 .51.41l.08.13a.48.48 0 0 1-.82.49c-3-4-6-8.72-7.08-13.66.18-.36.33-.67.41-.95zM85.29 78.46c.12.2.23.38.33.59-.18.07-.39.12-.57.18a.25.25 0 0 1-.12 0l-.54-1.08a.49.49 0 0 1 .34-.23l.25-.07c.1.22.2.4.31.61z"/><path class="cls-1" d="M85.54 59a.37.37 0 0 1-.51-.41c0-.13 0-.28.08-.41a4.59 4.59 0 0 0 .26.49zM85.21 79.84c.08.15.15.33.23.49a1.2 1.2 0 0 0-.28-.13.38.38 0 0 1-.28-.28v-.08c0-.08 0-.13.05-.2a.15.15 0 0 1 .12-.11zM81.57 98.73a12.8 12.8 0 0 0 2.77-.59 2.28 2.28 0 0 1 .59 0 .28.28 0 0 1 .15.36s0 .08-.07.08a6.77 6.77 0 0 1-4.1.56l-.21-.07s0-.06-.07-.08a.09.09 0 0 1 0-.08.14.14 0 0 1 .15-.18c.22.03.51.03.79 0zM85 77.87l-.25.07a.49.49 0 0 0-.34.23 16.14 16.14 0 0 0-2.59-3.61.23.23 0 0 0 0-.28 2.24 2.24 0 0 0-.51-.46.42.42 0 0 1 .53.07A19.56 19.56 0 0 1 85 77.87zM84.9 79.25a.69.69 0 0 1-.56-1.08z"/><path class="cls-1" d="M81.24 98.19c1 .08 2.07-.12 3.1 0a12.8 12.8 0 0 1-2.77.59c-.39 0-.74 0-1.1-.1a.7.7 0 0 0-.34-.46c-.12-.1-.28-.23-.41-.36a3.53 3.53 0 0 0 1.52.33zM81.34 59.41c1.66.8 1.23 3.82 1 5.23-.15 1.2-.54 4.46-2.15 4.69-.36.08-.8-.28-.67-.64a1.41 1.41 0 0 0 .18.44.18.18 0 0 0 .31-.11v-.2c1.66-.85 2.92-9.23.61-9-2.46.38-1.48 6.25-1 8.61a1.3 1.3 0 0 0-.1.15c-.05 0-.05.1-.08.13a12.73 12.73 0 0 1-.9-6.23c.24-1.17 1-3.97 2.8-3.07z"/><path class="cls-1" d="M80 68a4.65 4.65 0 0 1-.26.41c-.51-2.36-1.49-8.23 1-8.61 2.31-.21 1 8.17-.61 9v.05c-.07-.26-.13-.54-.13-.85zm0 0a8.58 8.58 0 0 0 1.17-3.12c.18-.95.77-3.7-.17-4.46-1.34-1.08-1.39 4.25-1.34 4.71.12.95.27 1.87.34 2.87zM81.57 74.41a4.36 4.36 0 0 0-.64-.21.43.43 0 0 1 .28-.38 2.24 2.24 0 0 1 .51.46.23.23 0 0 1 0 .28.87.87 0 0 0-.15-.13z"/><path class="cls-1" d="M81.75 74.56l-.1.08a2.13 2.13 0 0 1-.57 0 .42.42 0 0 1-.13-.44 4.36 4.36 0 0 1 .64.21.87.87 0 0 1 .16.15zM81.57 98.73h-.85a.14.14 0 0 0-.15.18v-.07a.51.51 0 0 0-.07-.26c.33.1.68.13 1.07.15zM81 60.39c.94.76.35 3.51.17 4.46A8.58 8.58 0 0 1 80 68c-.08-1-.23-1.89-.34-2.87-.04-.49.01-5.82 1.34-4.74z"/><path class="cls-1" d="M80.93 74.2a.42.42 0 0 0 .13.44c-1.85.1-3.87-.66-5.8-.61a65.76 65.76 0 0 0-6.71.84h-.26c-.05 0-.18-.18-.05-.26 2-1.33 4.67-1.66 7-1.72 1.67 0 4.44-.2 5.95.88a.43.43 0 0 0-.26.43zM80.31 103.83a1.67 1.67 0 0 1 0-.33l.36-.13c.28-.1.41.28.2.44a2.26 2.26 0 0 1-.51.3.77.77 0 0 1-.05-.28z"/><path class="cls-1" d="M80.85 103.81c.21-.16.08-.54-.2-.44l-.36.13c-.05-.72-.13-1.44-.21-2.18a3.94 3.94 0 0 0 .39-1.2c1.13 4.43.59 9.38-.44 14a2.73 2.73 0 0 0-.59-.77 31.83 31.83 0 0 0 .87-5.18 28.55 28.55 0 0 0 0-4 2.26 2.26 0 0 0 .54-.36zM80.88 99.19a.59.59 0 0 1-.23 0 .16.16 0 0 1-.05-.1s0 .08.07.08z"/><path class="cls-1" d="M80.65 99.14c2.46 5.69.89 13.38-.82 19.18l-.77.23h-.08c-.08 0 0 0 0 0 .26-1 .54-2 .77-3a.54.54 0 0 0 .51-.41 1.47 1.47 0 0 0-.18-1c1-4.59 1.57-9.54.44-14a3.08 3.08 0 0 0 .07-1zM80.6 99a.16.16 0 0 0 .05.1h-.11V99a.09.09 0 0 0 .06 0z"/><path class="cls-1" d="M80.54 99.14a3.08 3.08 0 0 1-.07 1 8.76 8.76 0 0 0-.31-1.14c.13.06.26.12.38.14z"/><path class="cls-1" d="M80.16 99l-.38-.13c0-.1 0-.2-.06-.31a.21.21 0 0 1 .06-.18 4.27 4.27 0 0 0 .61.18l.15.34v.2c-.12.02-.25-.04-.38-.1zM80.54 98.89l-.15-.34h.08a.51.51 0 0 1 .07.34z"/><path class="cls-1" d="M80.16 99a8.76 8.76 0 0 1 .31 1.08 3.94 3.94 0 0 1-.39 1.2c-.08-.79-.18-1.59-.28-2.41zM80.47 98.6h-.08l-.08-.15a.32.32 0 0 0-.53 0 3.26 3.26 0 0 1-2-1.56 4 4 0 0 1-.36-1l.08.08.92.77a3.12 3.12 0 0 0 1.18 1h.1c.1 0 .29.26.41.36a.7.7 0 0 1 .36.5z"/><path class="cls-2" d="M80.34 104.11a28.55 28.55 0 0 1 0 4 31.83 31.83 0 0 1-.87 5.18c-.2-.21-.41-.41-.61-.59a9.48 9.48 0 0 0-2.26-1.64c.41-1.28 1.44-4.46.74-5.44a14.16 14.16 0 0 0 3-1.51z"/><path class="cls-1" d="M80.31 98.45l.08.15a4.27 4.27 0 0 1-.61-.18.32.32 0 0 1 .53.03zM80.31 103.83a.77.77 0 0 0 0 .28 14.16 14.16 0 0 1-3 1.54.55.55 0 0 0-.56-.28.12.12 0 0 0-.13.13 3.54 3.54 0 0 1 0 .46c-2.34.9-4.82 1.51-7.18 2.26a.46.46 0 0 0-.64-.08 3.83 3.83 0 0 0-.62.49 3.8 3.8 0 0 0-.54.18c-5.28 1.92-10.54 3.82-15.87 5.64-.69.23-1.36.46-2 .67-.13-.18-.23-.36-.38-.54 7.59-2.57 15.12-5.33 22.61-8 2.65-1.03 5.88-1.34 8.31-2.75z"/><path class="cls-1" d="M80.29 103.5a1.67 1.67 0 0 0 0 .33c-2.43 1.41-5.66 1.72-8.4 2.72-7.49 2.72-15 5.48-22.61 8a2.79 2.79 0 0 0-.39-.49l4.74-1.69c8.84-3.08 17.92-5.67 26.66-8.87zM80 114.09a1.47 1.47 0 0 1 .18 1 .54.54 0 0 1-.51.41c.16-.44.33-.93.33-1.41z"/><path class="cls-8" d="M80.08 101.32c.08.74.16 1.46.21 2.18-8.74 3.2-17.82 5.79-26.64 8.92l-4.74 1.69a2 2 0 0 0-.34-.38.31.31 0 0 0-.48.38 1.58 1.58 0 0 1 .13.26c-7.85 2.79-15.69 5.64-23.61 8.15-3.41-.44-6.95-.9-10.49-1.15C27.36 120.29 40.35 115 52.81 111c7.13-2.23 14.28-5.62 21.61-6.93 2.41-.43 4.69-1 5.64-2.79z"/><path class="cls-1" d="M80.06 68.87V69a.18.18 0 0 1-.31.11 1.41 1.41 0 0 1-.18-.44s0-.08.08-.13a1.3 1.3 0 0 1 .1-.15 3.18 3.18 0 0 0 .13.61z"/><path class="cls-1" d="M80.06 68.87l-.18.15a3.18 3.18 0 0 1-.13-.61A4.65 4.65 0 0 0 80 68c0 .31.06.59.06.87zM79.21 114.24c.08-.31.16-.62.23-.92a2.73 2.73 0 0 1 .59.77c-.08.48-.2 1-.33 1.46a.32.32 0 0 1-.16 0 2 2 0 0 1-.56-.33c.08-.34.15-.65.23-.98z"/><path class="cls-9" d="M79.78 98.91c.1.82.2 1.62.28 2.41-1 1.79-3.23 2.36-5.64 2.79-7.33 1.31-14.48 4.7-21.61 6.93-12.46 3.96-25.45 9.25-38.71 10.33a64.36 64.36 0 0 0-9.2-.13.32.32 0 0 1 0-.18c18.3.59 34.86-7 52.08-12 4.64-1.39 9-3.23 13.67-4.85 3.23-1.15 9.92-.69 9-5.28.07-.04.1-.02.13-.02z"/><path class="cls-1" d="M79.83 118.32c0 .2-.13.41-.18.61a1.71 1.71 0 0 1-.39 0 .71.71 0 0 0-.28-.36h.08z"/><path class="cls-9" d="M79.7 98.91c.9 4.59-5.79 4.13-9 5.28-4.64 1.62-9 3.46-13.67 4.85-17.22 5-33.78 12.61-52.08 12a2.66 2.66 0 0 1 .07-.39c15.92-.92 30.12-5.51 45.27-10.3 6.95-2.21 14.18-5.72 21.28-7.18.1 0 10-2.41 6.48-4.2-1.33-.67-1-2-3.07-1.49-7.28 1.85-14.26 4.64-21.51 6.61-6.66 1.8-13.59 2.67-20.15 4.9-5.38 1.82-10.28 4.9-15.84 6.2-2.72.64-11.28 1.9-12.46 5.46a6.47 6.47 0 0 1-.76 0 4.27 4.27 0 0 1 .15-.48c.56-.52 1.1-1.1 1.67-1.69 3.61-2.39 11.4-3.59 13.94-4.44 4.61-1.61 8.79-4.15 13.17-5.53 5.11-1.85 10.67-2.77 15.74-3.93 9.49-2.3 18.74-6.23 28-8.3a3.37 3.37 0 0 0 1 1.54 4.34 4.34 0 0 0 .67.48 1.1 1.1 0 0 0 .23.13 5.12 5.12 0 0 0 .82.39z"/><path class="cls-1" d="M79.72 98.6c0 .11 0 .21.06.31s-.06 0-.08 0a4.42 4.42 0 0 1-.82-.39 1.1 1.1 0 0 1-.23-.13 4.24 4.24 0 0 1-.67-.48 4.46 4.46 0 0 1-1-1.54 3.1 3.1 0 0 1-.21-.67.68.68 0 0 1 .72.23 4 4 0 0 0 .36 1 3.26 3.26 0 0 0 2 1.56.21.21 0 0 0-.13.11zM79 140.87a.57.57 0 0 0 .31.08h.33c.13 4.82-.74 8.43-3.87 7.66a.31.31 0 0 1-.2-.41.39.39 0 0 0 .3-.25c1.44-.28 2.23-1.75 2.57-3.85a1.93 1.93 0 0 0 .31-.13.54.54 0 0 0-.16-1 41.16 41.16 0 0 0-.28-7.61c.1.74.21 1.48.28 2.22.08.59.21 1.44.31 2.42a.59.59 0 0 0 .1.87zM79.54 115.52a.32.32 0 0 0 .16 0c-.23 1-.51 2-.77 3a.76.76 0 0 0-.77-.13c.26-1.07.54-2.15.82-3.25a2 2 0 0 0 .56.38z"/><path class="cls-1" d="M79.67 140.38v.62h-.33a.57.57 0 0 1-.31-.08c0-.3 0-.59-.1-.89a.68.68 0 0 1 .41-.21 1.16 1.16 0 0 0 .28-.05c.03.23.03.38.05.61zM78.85 98.5a4.42 4.42 0 0 0 .82.39 5.12 5.12 0 0 1-.82-.39zM79.65 118.93l-.08.23a1 1 0 0 1-.13.28.55.55 0 0 0-.18 0 .47.47 0 0 0 0-.46 1.71 1.71 0 0 0 .39-.05z"/><path class="cls-1" d="M79.62 139.72a1.16 1.16 0 0 1-.28.05.68.68 0 0 0-.41.21c-.1-1-.23-1.83-.31-2.42-.07-.74-.18-1.48-.28-2.22-.18-1.57-.41-3.13-.67-4.64-.46-3-1-6-1.36-9.08a.94.94 0 0 0 .24-.13c.53 2.41 2.69 11.26 3.07 18.23z"/><path class="cls-7" d="M78.44 96.76c.39.31.8.64 1.18 1a3.12 3.12 0 0 1-1.18-1z"/><path class="cls-1" d="M79.26 119.42a.55.55 0 0 1 .18 0 .92.92 0 0 1-.36.23.49.49 0 0 0 .18-.23zM79.44 113.32c-.07.3-.15.61-.23.92a15.48 15.48 0 0 0-2.84-2.54 1.13 1.13 0 0 0 .07-.18c0-.1.08-.23.13-.43a9.48 9.48 0 0 1 2.26 1.64c.17.18.41.38.61.59z"/><path class="cls-1" d="M79.26 119a.47.47 0 0 1 0 .46 1.46 1.46 0 0 0-.2 0 .4.4 0 0 1-.16-.7s0-.07.08-.07a.71.71 0 0 1 .28.31z"/><path class="cls-1" d="M78.21 119.37a.71.71 0 0 1-.13-.62c0-.1 0-.2.08-.31a.76.76 0 0 1 .77.13v.1a.4.4 0 0 0 .16.7 1.46 1.46 0 0 1 .2 0 .49.49 0 0 1-.18.25.75.75 0 0 1-.9-.25zM79.19 91.53c.07.49-.47.74-.88.64a8.55 8.55 0 0 1 .82-.9.82.82 0 0 1 .06.26z"/><path class="cls-1" d="M78.44 91.17a3.28 3.28 0 0 1 .59-.54 4.28 4.28 0 0 1 .1.64 8.55 8.55 0 0 0-.82.9.57.57 0 0 1-.46-.31 3.91 3.91 0 0 1 .59-.69zM79.21 114.24c-.08.33-.15.64-.23 1-.56-.46-1-1.18-1.51-1.69a14.41 14.41 0 0 1-1.8-1.59.64.64 0 0 0 .7-.21 15.48 15.48 0 0 1 2.84 2.49zM79.08 119.67a24.36 24.36 0 0 1-2.51 1.79c-.06-.23-.08-.41-.11-.51a.16.16 0 0 0-.18-.15 14.79 14.79 0 0 0 1.95-1.46.75.75 0 0 0 .85.33z"/><path class="cls-1" d="M78.44 91.17a3.91 3.91 0 0 0-.59.69.44.44 0 0 1 0-.15 24.52 24.52 0 0 0-1.61-5.44.51.51 0 0 0-.21-.46 30.59 30.59 0 0 0-4.38-7.25c.1 0 .18-.13.1-.23a2.74 2.74 0 0 0-1.1-.9 24.67 24.67 0 0 0-2.28-2.11c-.18-.12 0-.38.15-.41h.11c2.77.9 4.51 4 6 6.26 2 3 3.76 5.87 4.43 9.46a3.28 3.28 0 0 0-.62.54zM79 118.6l-.08.07c-.08.07 0-.07 0-.1s.08.03.08.03zM78.62 143a.54.54 0 0 1 .16 1 1.93 1.93 0 0 1-.31.13c.05-.39.1-.77.15-1.13zM78.93 140c0 .3.08.59.1.89a.59.59 0 0 1-.1-.89zM78.13 44.11a.62.62 0 0 0-.33 0l.46-.87c.13-.26.59-.08.46.2s-.23.57-.33.87a.38.38 0 0 0-.26-.2zM78 97.89a4.24 4.24 0 0 0 .67.48 4.34 4.34 0 0 1-.67-.48z"/><path class="cls-10" d="M78.34 135.34a41.16 41.16 0 0 1 .28 7.61.54.54 0 0 0-.43 0 9.87 9.87 0 0 1-4.82.95c-2-2.43-4.18-4.74-5.72-7.53-1.9-3.44-3-7.13-5.43-10.21a33.25 33.25 0 0 0 13.89-4.43c.26 1.79 1 5.18 1.56 8.95.26 1.53.49 3.09.67 4.66z"/><path class="cls-1" d="M73.78 144.44c-.13-.18-.29-.36-.41-.52a9.87 9.87 0 0 0 4.82-.95.54.54 0 0 1 .43 0c-.05.39-.1.77-.15 1.13a11.07 11.07 0 0 1-4.26.9c-.15-.18-.28-.39-.43-.56z"/><path class="cls-8" d="M79 115.19c-.28 1.1-.56 2.18-.82 3.25a.53.53 0 0 0-.26.13 24.88 24.88 0 0 1-7.51 4.23v-.15a.44.44 0 0 0 .31-.52c-.21-.76-.62-1-1.2-1.53a8 8 0 0 1-2.18-3.21c-1.31-3.15-.06-6 2.18-8.38a.58.58 0 0 0 0-.79c2.36-.75 4.84-1.36 7.18-2.26-.13 1.87-1.13 3.54-1.29 5.41a.53.53 0 0 0 .36.54 14.41 14.41 0 0 0 1.8 1.59c.43.5.85 1.23 1.43 1.69z"/><path class="cls-1" d="M78.08 45.06c-.13.28-.23.59-.36.9a6.5 6.5 0 0 1-.12-.75 11.78 11.78 0 0 1 .53-1.15.38.38 0 0 1 .26.2c-.1.28-.2.54-.31.8z"/><path class="cls-9" d="M78 99c3.54 1.79-6.38 4.18-6.48 4.2-7.1 1.46-14.33 5-21.28 7.18-15.15 4.79-29.35 9.38-45.27 10.3 1.18-3.56 9.74-4.82 12.46-5.46 5.56-1.3 10.46-4.38 15.84-6.2 6.56-2.23 13.49-3.1 20.15-4.9 7.25-2 14.23-4.76 21.51-6.61C77.06 97 76.7 98.32 78 99z"/><path class="cls-1" d="M78.16 118.44c0 .11 0 .21-.08.31a.71.71 0 0 0 .13.62 14.79 14.79 0 0 1-1.95 1.46.18.18 0 0 0-.18.13c-11.28 7.2-30.83 4.54-41.75-.56l.56-.23A77.82 77.82 0 0 0 48 123.83a.48.48 0 0 0 .56.13c7.38 1.28 15.1 1.3 21.81-1.16a24.88 24.88 0 0 0 7.51-4.23.53.53 0 0 1 .28-.13zM78.13 44.11a11.78 11.78 0 0 0-.53 1.15 5.54 5.54 0 0 1-.11-.56v-.08c.11-.15.18-.33.29-.49a.62.62 0 0 1 .35-.02zM77.85 91.86a.57.57 0 0 0 .46.31 4.15 4.15 0 0 0-.87 3.74.68.68 0 0 0-.72-.23 4.89 4.89 0 0 1 .11-1.59 6 6 0 0 1 1.02-2.23z"/><path class="cls-8" d="M77.8 91.71a.44.44 0 0 0 0 .15 6 6 0 0 0-1 2.23 4.89 4.89 0 0 0-.11 1.59C68 97.86 59.58 101 50.94 103.5c-8 2.28-15.92 3.56-23.53 7-6 2.67-11.64 4-17.79 5.87a21.81 21.81 0 0 0-2.46.9c.9-1 1.74-2.1 2.61-3.08 2.82-3.15 5.82-6.1 9-9h.05c2.92.18 5.74-1.41 8.46-2.33 6.23-2.08 12.17-4.67 18.53-6.44C55.88 93.6 66.45 91.17 76 86.58a.38.38 0 0 0 .23-.31 24.52 24.52 0 0 1 1.57 5.44z"/><path class="cls-1" d="M77.78 44.13c-.11.16-.18.34-.29.49a.48.48 0 0 1 .29-.49zM77.6 45.26a6.5 6.5 0 0 0 .12.75c-2 5.33-4.23 11.09-7.89 15.38a3.51 3.51 0 0 0-.26-.59c3.26-4.9 5.59-10.23 8.03-15.54z"/><path class="cls-1" d="M77.49 44.7a5.54 5.54 0 0 0 .11.56c-2.44 5.31-4.77 10.64-8 15.51a2.34 2.34 0 0 0-.33-.62c2.56-5.2 5.46-10.38 8.25-15.51zM77.31 105.65c.7 1-.33 4.16-.74 5.44a2 2 0 0 0-.54-.21c.36-1.46 1.41-4.18 1-5.1a.66.66 0 0 0 .28-.13zM76.93 96.35a4.46 4.46 0 0 0 1 1.54 3.37 3.37 0 0 1-1-1.54z"/><path class="cls-1" d="M77 105.78a1.89 1.89 0 0 1-.41.18 3.54 3.54 0 0 0 0-.46.12.12 0 0 1 .13-.13.55.55 0 0 1 .56.28.66.66 0 0 1-.28.13z"/><path class="cls-1" d="M77 105.78c.38.92-.67 3.64-1 5.1a.51.51 0 0 0-.54.75.86.86 0 0 0 .23.28.53.53 0 0 1-.36-.54c.16-1.87 1.16-3.54 1.29-5.41a1.89 1.89 0 0 0 .38-.18z"/><path class="cls-9" d="M76.72 95.68a3.1 3.1 0 0 0 .21.67c-9.28 2.07-18.53 6-28 8.3-5.07 1.16-10.63 2.08-15.74 3.93-4.4 1.42-8.58 3.92-13.19 5.53-2.54.85-10.33 2-13.94 4.44.35-.44.71-.85 1.07-1.29a21.81 21.81 0 0 1 2.46-.9c6.15-1.9 11.81-3.2 17.79-5.87 7.61-3.41 15.56-4.69 23.53-7C59.58 101 68 97.86 76.72 95.68z"/><path class="cls-1" d="M76.31 121.62c.39 3 .9 6 1.36 9.08-.59-3.77-1.3-7.16-1.56-8.95a.58.58 0 0 0 .2-.13z"/><path class="cls-1" d="M76.31 121.62a.58.58 0 0 1-.2.13c0-.28 0-.51-.08-.72a.38.38 0 0 0 .18-.13.16.16 0 0 1 .18.15c0 .1 0 .28.11.51a.94.94 0 0 1-.19.06zM76.57 111.09c0 .2-.1.33-.13.43a1.13 1.13 0 0 1-.07.18 4.48 4.48 0 0 0-.47-.33 4.56 4.56 0 0 0 .08-.49 2 2 0 0 1 .59.21z"/><path class="cls-1" d="M75.9 111.37a4.48 4.48 0 0 1 .47.33.64.64 0 0 1-.7.21.86.86 0 0 1-.23-.28.51.51 0 0 1 .54-.75 4.56 4.56 0 0 1-.08.49zM76.24 120.83a.38.38 0 0 1-.18.13.18.18 0 0 1 .18-.13zM76 85.81a.51.51 0 0 1 .21.46c-.08-.15-.15-.27-.21-.46z"/><path class="cls-9" d="M78.47 144.1c-.34 2.1-1.13 3.57-2.57 3.85a.34.34 0 0 0 0-.39 24.08 24.08 0 0 0-1.69-2.56 11.07 11.07 0 0 0 4.26-.9z"/><path class="cls-1" d="M48.09 95.07c0-.23.08-.49.11-.75 3-.87 6-1.84 9-2.84a.37.37 0 0 0 .59-.18c5.92-2 11.84-4 17.82-5.59a.4.4 0 0 1 .38.1c.08.16.15.31.21.46a.38.38 0 0 1-.23.31c-9.51 4.59-20.08 7-30.2 9.84-6.36 1.77-12.3 4.36-18.53 6.44-2.72.92-5.54 2.51-8.46 2.33h-.05a.63.63 0 0 0 .13-.11.38.38 0 0 0 .1-.25c1.82 0 5.92-1.93 8.1-2.59 4.66-1.72 9.33-3.8 14-5.18 2.15-.59 4.3-1.18 6.46-1.79a.36.36 0 0 0 .61-.13v-.05zM76 121c0 .21 0 .44.08.72a33.25 33.25 0 0 1-13.89 4.43c-.13-.17-.29-.35-.44-.53s-.64.07-.46.36a1 1 0 0 1 .13.23 47.45 47.45 0 0 1-11-.34.47.47 0 0 0-.87-.25.83.83 0 0 0-.08.12 52.92 52.92 0 0 1-14.47-4.5 1.14 1.14 0 0 0 0-.26c0-.15-.28-.13-.31 0a.12.12 0 0 1 0 .08c-.26-.13-.49-.23-.72-.36a.19.19 0 0 1-.1-.1 2.58 2.58 0 0 1 .46-.18c10.92 5.1 30.47 7.76 41.75.56zM69.42 140.74a.76.76 0 0 0-.56-.77 7.69 7.69 0 0 1-.57-.8c-2.66-4-3.56-9.17-6.43-12.94h.36c2.48 3.08 3.53 6.77 5.43 10.21 1.54 2.79 3.74 5.1 5.72 7.53h-.93c-.1 0-.12.1-.1.18a1.93 1.93 0 0 0 1.87.95 24.08 24.08 0 0 1 1.69 2.56.34.34 0 0 1 0 .39h-.1a.24.24 0 0 0-.2.23.48.48 0 0 1-.26 0 18.68 18.68 0 0 1-6.54-6.66.73.73 0 0 0 .62-.88z"/><path class="cls-6" d="M76 85.81a.4.4 0 0 0-.38-.1c-6 1.62-11.9 3.64-17.82 5.59a.18.18 0 0 0 0-.13c.25-4.56-.41-8.66 1.46-12.89a29.06 29.06 0 0 0 5.59-.21c2.25 0 4.53.67 6.71.49A30.59 30.59 0 0 1 76 85.81z"/><path class="cls-1" d="M75.8 148h.1a.39.39 0 0 1-.3.25.24.24 0 0 1 .2-.25zM73.78 144.44c.15.17.28.38.43.56a1.93 1.93 0 0 1-1.87-.95c0-.08 0-.18.1-.18h.93c.12.21.28.39.41.57zM71.37 78.3c-.25-.31-.51-.57-.74-.85a2.74 2.74 0 0 1 1.1.9c.08.1 0 .18-.1.23-.13-.12-.21-.2-.26-.28z"/><path class="cls-1" d="M71.37 78.3c0 .08.13.16.2.26-2.18.18-4.46-.54-6.71-.49a29.06 29.06 0 0 1-5.59.21c.08-.18.15-.39.25-.59 3.59-.13 8.74-.82 11.79.59z"/><path class="cls-1" d="M70.6 77.43c.23.28.49.54.74.85-3-1.41-8.2-.72-11.79-.59a1.43 1.43 0 0 1 .13-.28.41.41 0 0 0 0-.39 31.56 31.56 0 0 1 6.69-.26 11 11 0 0 1 4.23.65v.02zM70.65 122.13a.44.44 0 0 1-.31.52c-2.54.51-4.64-4-5-6a8.24 8.24 0 0 1 2.77-8c.41-.13.85-.29 1.26-.41a.58.58 0 0 1 0 .79c-2.24 2.33-3.49 5.23-2.18 8.38a8 8 0 0 0 2.18 3.21c.63.49 1.07.75 1.28 1.51z"/><path class="cls-8" d="M70.34 122.65v.15c-6.66 2.46-14.34 2.44-21.76 1.2a.87.87 0 0 0 .15-.13 7 7 0 0 0 1-8.69c.69-.21 1.36-.44 2-.67 5.33-1.82 10.59-3.72 15.87-5.64a3.8 3.8 0 0 1 .54-.18 8.24 8.24 0 0 0-2.77 8c.33 1.93 2.43 6.47 4.97 5.96z"/><path class="cls-1" d="M69.83 61.39c.13.35-.21.61-.51.61.18-.2.36-.41.51-.61zM69.21 61.31a5.63 5.63 0 0 0 .36-.54 3.51 3.51 0 0 1 .26.59c-.15.2-.33.41-.51.61a.59.59 0 0 1-.36-.13 2.52 2.52 0 0 1-.36-.38v-.05c.1-.21.18-.39.28-.59a3.54 3.54 0 0 1 .33.49zM68.63.64a.65.65 0 0 1 1.2.38.46.46 0 0 0-.36.67c-3.23 5.2-8.15 11-15 10.3C49.71 11.53 44.2 8.56 44 3.25a2.55 2.55 0 0 1 .27-.25c.16-.1.11-.33 0-.35a.32.32 0 0 1 .41.23c1.46 5.61 8.23 9.22 13.79 7.22 4.67-1.65 7.59-5.34 10.16-9.46z"/><path class="cls-1" d="M69.83 1a2.77 2.77 0 0 0-.1.26c-.08.12-.16.28-.26.41a.46.46 0 0 1 .36-.67zM69.57 60.77a5.63 5.63 0 0 1-.36.54 3.54 3.54 0 0 0-.33-.46c.13-.23.23-.46.36-.7a2.34 2.34 0 0 1 .33.62zM68.34 140.72c-.15-.28-.3-.57-.46-.85a6.61 6.61 0 0 0 .77 0 .46.46 0 0 1 .21 0 6.23 6.23 0 0 0 .56.77.73.73 0 0 1-.62.75c-.15-.16-.3-.39-.46-.67z"/><path class="cls-1" d="M69.42 140.72a6.23 6.23 0 0 1-.56-.77.76.76 0 0 1 .56.77zM68.78 108.14a.46.46 0 0 1 .64.08c-.41.12-.85.28-1.26.41a3.83 3.83 0 0 1 .62-.49zM69.24 60.13c-.13.24-.23.47-.36.7-1.82-2.64-3.72-4.85-5-7.9a8 8 0 0 0-.05-1.1.39.39 0 0 1 .26.23 43.94 43.94 0 0 0 3.1 5.15 32.91 32.91 0 0 1 2.05 2.92zM69.32 62c-.36.39-.9-.08-.75-.51a2.52 2.52 0 0 0 .36.38.59.59 0 0 0 .39.13z"/><path class="cls-1" d="M68.88 60.85c-.1.2-.18.38-.28.59v.05a29.79 29.79 0 0 1-3-4 17.45 17.45 0 0 1-1.74-3.08 7.14 7.14 0 0 0 0-1.46c1.3 3.05 3.2 5.26 5.02 7.9zM68.29 139.15a7.69 7.69 0 0 0 .57.8.46.46 0 0 0-.21 0 6.61 6.61 0 0 1-.77 0c-2.36-4.41-3.87-9.41-6.43-13.63a1.8 1.8 0 0 0 .41 0c2.87 3.68 3.77 8.81 6.43 12.83zM68.8 141.49a.39.39 0 0 1-.15 0c-8.05-.15-15.92-1.74-23.94-.71.08-.13.13-.29.2-.42 7.31-1.58 15.82.29 23.43.34.16.3.31.53.46.79z"/><path class="cls-1" d="M67.88 139.87c.16.28.31.57.46.85-7.61-.05-16.12-1.92-23.43-.34.06-.15.13-.3.21-.46 7.41-1.79 15.2-.23 22.76-.05z"/><path class="cls-2" d="M61.45 126.24c2.56 4.22 4.07 9.22 6.43 13.63-7.56-.18-15.35-1.74-22.76 0 2.08-4.58 3.79-9.46 5.33-13.94a.09.09 0 0 0 0-.08 47.45 47.45 0 0 0 11 .39z"/><path class="cls-1" d="M63.88 53a7.14 7.14 0 0 1 0 1.46 6.9 6.9 0 0 1-.46-1.15 12.75 12.75 0 0 0 .07-1.38.55.55 0 0 1 .36 0 8 8 0 0 1 .03 1.07z"/><path class="cls-1" d="M63.47 51.85a.53.53 0 0 0-.33.64 5.37 5.37 0 0 0 .26.74c-.16 2.38-.57 4.77-.62 7.15a3.7 3.7 0 0 1-.56-.56 58.37 58.37 0 0 1 .92-8.46c0-.41.64-.26.67.1a2.17 2.17 0 0 1 0 .36.55.55 0 0 0-.34.03z"/><path class="cls-1" d="M63.4 53.26a6.9 6.9 0 0 0 .46 1.15c0 2.13-.39 4.33-.57 6.39a.53.53 0 0 1-1 0v-.08c.13.13.28.2.41.31s.52-.21.31-.41l-.18-.18c0-2.44.41-4.8.57-7.18zM63.47 51.85a12.75 12.75 0 0 1-.07 1.38 5.37 5.37 0 0 1-.26-.74.53.53 0 0 1 .33-.64z"/><path class="cls-1" d="M63 60.62c.21.2-.08.56-.31.41s-.28-.18-.41-.31a1.27 1.27 0 0 1 0-.39 4.53 4.53 0 0 0 .54.47v-.36z"/><path class="cls-1" d="M62.78 60.44v.36a4.53 4.53 0 0 1-.54-.47 3.85 3.85 0 0 1 0-.48 3.7 3.7 0 0 0 .56.56zM62.24 60.33a1.27 1.27 0 0 0 0 .39c-4.51-3.23-8.15-9.23-9.76-15.43a29.86 29.86 0 0 0 0-3.54c1.28 7.08 5.2 14.87 9.76 18.58z"/><path class="cls-1" d="M52.45 41.6c-.08-.18-.38-.23-.41 0l-.15.92a20.86 20.86 0 0 1 .33-9.05c.05-.23.44-.18.41.05a34.61 34.61 0 0 0 9.59 26.33 3.85 3.85 0 0 0 0 .48c-4.56-3.71-8.48-11.5-9.76-18.58v-.1s.02-.05-.01-.05zM61.86 126.21a1.8 1.8 0 0 1-.41 0 1 1 0 0 0-.13-.23c-.18-.29.23-.62.46-.36s.31.36.44.53c-.13.03-.22.06-.36.06zM60 69.18a.23.23 0 0 1 .23.31.44.44 0 0 0-.41-.31zM60.24 69.49a.47.47 0 0 1 0 .33 59.62 59.62 0 0 1-5.82 8.87h-1.1c-.35 0-.54.49-.21.66a3 3 0 0 0 .56.24C51 83.07 48.14 86.45 45.79 90c0 0-.06 0-.06.07a4.73 4.73 0 0 0-.28.39.29.29 0 0 1-.23.15c.13-.18.23-.36.36-.54a.22.22 0 0 0-.1-.33c3.92-7.28 9.69-13.12 14.2-19.94a3 3 0 0 0 .39-.13.24.24 0 0 0 .17-.18z"/><path class="cls-1" d="M59.7 69.82c-.28.1-.54.2-.82.28a4.41 4.41 0 0 1 .46-.54 2.19 2.19 0 0 1 .2-.25.4.4 0 0 1 .31-.13.44.44 0 0 1 .41.31.24.24 0 0 1-.15.2 3 3 0 0 1-.41.13z"/><path class="cls-1" d="M42.74 72.15a52.78 52.78 0 0 1 17.09-3 .4.4 0 0 0-.31.13 2.19 2.19 0 0 0-.2.25 141.63 141.63 0 0 0-17.15 3.62c.18-.31.36-.64.57-1zM58.88 77.71a3.29 3.29 0 0 0-.28.44h-.07a.44.44 0 0 1-.31-.43l.05-.08c.05-.08.18-.2.28-.31a9.84 9.84 0 0 1 1.1-.28.41.41 0 0 1 0 .39 1.43 1.43 0 0 0-.13.28h-.61zM58.86 70.1c.28-.08.54-.18.82-.28-4.51 6.82-10.28 12.66-14.2 19.94a.23.23 0 0 0-.33 0A1.37 1.37 0 0 0 45 90c3.17-7.16 8.71-13.95 13.86-19.9zM59.65 77a9.84 9.84 0 0 0-1.1.28 3.11 3.11 0 0 1 .57-.46.35.35 0 0 1 .53.18z"/><path class="cls-1" d="M58.91 77.71h.61c-.1.2-.17.41-.25.59a6.63 6.63 0 0 1-.67-.13 3.29 3.29 0 0 1 .28-.44zM59.32 69.56a4.41 4.41 0 0 0-.46.54c-4.08 1.28-8.43 1.64-12.56 2.67a107.88 107.88 0 0 0-11.38 3.56 2.74 2.74 0 0 1-.05-.28.19.19 0 0 0 0-.11l.12-.07a.46.46 0 0 0 .64-.28 52.74 52.74 0 0 1 5.82-2.16.37.37 0 0 0 .61 0c.05-.08.08-.16.13-.23a141.63 141.63 0 0 1 17.13-3.64z"/><path class="cls-1" d="M57.89 79.64a2.85 2.85 0 0 0 .56-.26.31.31 0 0 0 0-.56.61.61 0 0 0-.18-.08 3.74 3.74 0 0 1 .33-.59 6.63 6.63 0 0 0 .67.13c-1.87 4.23-1.21 8.33-1.46 12.89a.18.18 0 0 1 0 .13l-.59.18a.22.22 0 0 1-.1-.11 7.69 7.69 0 0 1-.54-1.25 1 1 0 0 0 .31-.18.45.45 0 0 0 0-.62 2.39 2.39 0 0 0-.62-.41 16.89 16.89 0 0 1 .67-9.09 3 3 0 0 0 .95-.18z"/><path class="cls-1" d="M58.6 78.15a3.74 3.74 0 0 0-.33.59 1.73 1.73 0 0 0-.69-.21 4 4 0 0 1 .64-.84.44.44 0 0 0 .31.43z"/><path class="cls-1" d="M58.09 79.1a4 4 0 0 1 .18-.36.61.61 0 0 1 .18.08.31.31 0 0 1 0 .56 2.85 2.85 0 0 1-.56.26c.11-.18.11-.36.2-.54zM58.53 77.3c-.1.11-.2.21-.28.31a.33.33 0 0 1 .28-.31z"/><path class="cls-1" d="M58.27 78.74a4 4 0 0 0-.18.36h-.85a5.66 5.66 0 0 1 .34-.59 1.73 1.73 0 0 1 .69.23zM58.09 79.1c-.08.18-.13.36-.2.54a3 3 0 0 1-1 .15c.1-.23.2-.46.3-.67zM57.19 91.48l.59-.18a.37.37 0 0 1-.59.18z"/><path class="cls-1" d="M56.09 78.58a7.43 7.43 0 0 1 1.49 0 5.66 5.66 0 0 0-.34.59 24.49 24.49 0 0 1-3.25.11l.41-.54c.6-.08 1.13-.1 1.69-.16zM56.47 58.8c1.75 1.66 1.13 5.4.52 7.43a4.4 4.4 0 0 1-1.34 2.41.81.81 0 0 1-1.2-.28l.26-.39c1.69 1.69 3.58-8.17 1-9-3.36-1.29-2.51 8.17-1.46 9.63l.15-.23v.18a.19.19 0 0 1-.29.21c-1.66-1.11-1.36-5.57-1.2-7.23.23-1.48 1.62-4.53 3.56-2.73z"/><path class="cls-8" d="M57.09 91.37a.22.22 0 0 0 .1.11c-3 1-6 2-9 2.84a6.48 6.48 0 0 0-.19-2.95.3.3 0 0 0-.57 0 7.09 7.09 0 0 0-.15 3.21c-.64.2-1.26.38-1.9.56q-2.76.78-5.46 1.77a35.39 35.39 0 0 0 2.49-2.69 33.47 33.47 0 0 0 2.79-3.59.29.29 0 0 0 .23-.15 4.73 4.73 0 0 1 .28-.39.79.79 0 0 0-.1.34.23.23 0 0 0 0 .12v.06a.72.72 0 0 0 .69.51c1.85 0 3.72-.31 5.56-.46 1.44-.13 3.36.25 4.64-.54a7.69 7.69 0 0 0 .59 1.25z"/><path class="cls-1" d="M57.24 79.12c-.1.21-.2.44-.3.67h-1.26a6.67 6.67 0 0 1-2-.2 3.4 3.4 0 0 0 .31-.41 24.49 24.49 0 0 0 3.25-.06zM54.45 68.36l-.15.23c-1-1.46-1.9-10.92 1.46-9.63 2.53.82.64 10.68-1 9zm0-.08c0-.13-.05-.28-.07-.46a.51.51 0 0 1 .36-.23c1.87-.1 2.74-7.9.66-8.2-2.41-.39-1.41 6-1 8.43a.27.27 0 0 0 0 .15.75.75 0 0 0 .02.31zM56.4 89.63l-.16-.72a2.39 2.39 0 0 1 .62.41.45.45 0 0 1 0 .62 1 1 0 0 1-.31.18c-.05-.12-.1-.31-.15-.49z"/><path d="M55.65 79.84h1.26a16.89 16.89 0 0 0-.67 9.09c-1.25-.59-3-.15-4.33 0a31.24 31.24 0 0 0-5.76.9.52.52 0 0 0-.36.26c2.35-3.57 5.17-7 7.86-10.38a6.67 6.67 0 0 0 2 .13z" fill="#2268b2"/><path class="cls-1" d="M56.4 89.63c.05.18.1.34.15.49-1.28.79-3.2.41-4.64.54-1.84.15-3.71.48-5.56.46a.72.72 0 0 1-.69-.51v-.06a.23.23 0 0 1 0-.12.79.79 0 0 1 .1-.34l.06-.07a.52.52 0 0 1 .36-.26 31.24 31.24 0 0 1 5.76-.9c1.31-.1 3.08-.54 4.33 0zM55.37 59.39c2.08.3 1.21 8.1-.66 8.2a.51.51 0 0 0-.36.23C54 65.41 53 59 55.37 59.39zM54.42 68.28a.75.75 0 0 1-.1-.31.27.27 0 0 1 0-.15c.05.18.08.33.1.46zM54 79.23a3.4 3.4 0 0 1-.31.41 3 3 0 0 1-.56-.24c-.33-.17-.13-.64.21-.66s.74 0 1.1 0l-.41.54s-.03-.08-.03-.05z"/><path class="cls-7" d="M58.86 70.1C53.71 76.05 48.17 82.84 45 90h-.05c-1.08 1.18-2.18 2.3-3.23 3.46a14.12 14.12 0 0 0-2.82 3.59.18.18 0 0 0 0 .2c-6.72 2.49-13.3 5.59-20.2 7.18a.24.24 0 0 0-.26 0 40 40 0 0 0-5.28 4.43c1.85-3.64 4.49-6.63 7.23-9.79 3.25-3.74 6.51-7.69 11-10a.6.6 0 0 0 0-1.05 4.65 4.65 0 0 1 3.46-3.51.4.4 0 0 0 .29-.29.43.43 0 0 0 .48-.51c-.33-2.46-.2-5-.61-7.43a107.88 107.88 0 0 1 11.29-3.51c4.13-1.03 8.48-1.39 12.56-2.67z"/><path class="cls-1" d="M52.14 43.85c-.1-.43-.18-.89-.25-1.33l.11-.92c0-.23.33-.18.41 0v.1a29.86 29.86 0 0 1 0 3.54c-.06-.41-.16-.9-.27-1.39z"/><path class="cls-1" d="M52.14 43.85c.11.49.21 1 .34 1.44-.54 9.33-5.36 18.84-9.74 26.86a3.2 3.2 0 0 0-.57.21c.57-1.21 1-2.52 1.59-3.75 3.49-7.51 7.74-16.25 8.38-24.76z"/><path class="cls-1" d="M51.89 42.52c.07.44.15.9.25 1.33-.64 8.51-4.89 17.25-8.38 24.76-.56 1.23-1 2.54-1.59 3.75a3.8 3.8 0 0 0-.54.18c4.05-9.9 8.54-19.41 10.26-30.02zM49.61 125.65a.47.47 0 0 1 .87.25c-.31-.05-.64-.07-.95-.13a.83.83 0 0 1 .08-.12zM40.45 147.2a.27.27 0 0 0-.28-.25 1.65 1.65 0 0 0-.38.05c.41-1.13.87-2.28 1.33-3.44a5.15 5.15 0 0 0 .56-.2c.24-.1.11-.41-.07-.49a.61.61 0 0 0-.18-.05 146.57 146.57 0 0 1 8.1-17c.31.06.64.08.95.13a.09.09 0 0 1 0 .08c-1.54 4.48-3.25 9.36-5.33 13.94a10.58 10.58 0 0 0-1.08.26.36.36 0 0 0 .18.69 4.28 4.28 0 0 1 .49-.05 58.66 58.66 0 0 1-4 7.28.68.68 0 0 1-.87.23 1.3 1.3 0 0 0 .64-1 .3.3 0 0 0-.06-.18zM49.25 115.29l.43-.15a7 7 0 0 1-1 8.69.87.87 0 0 1-.15.13l-.56-.13a.54.54 0 0 1 0-.8c2.33-2.48 2.05-5 .84-7.59z"/><path class="cls-1" d="M49.68 115.14l-.43.15a4.48 4.48 0 0 0-.36-.56 2.46 2.46 0 0 0 .41-.13c.15.18.25.4.38.54z"/><path class="cls-1" d="M49.3 114.6a2.46 2.46 0 0 1-.41.13 5.6 5.6 0 0 0-.36-.49l.36-.13a2.79 2.79 0 0 1 .41.49zM49.25 115.29l-.47.15c-.1-.17-.2-.36-.3-.56l.41-.15a4.48 4.48 0 0 1 .36.56z"/><path class="cls-8" d="M48.78 115.44c1.21 2.62 1.49 5.11-.84 7.59a.54.54 0 0 0 0 .8 77.82 77.82 0 0 1-13.13-3.64c.54-.23 1.08-.44 1.62-.64 4.05-1.55 8.23-2.8 12.35-4.11z"/><path class="cls-1" d="M48.53 114.24a2.26 2.26 0 0 0-.33.13 1.58 1.58 0 0 0-.13-.26.31.31 0 0 1 .48-.38 2 2 0 0 1 .34.38z"/><path class="cls-1" d="M48.89 114.73l-.41.15-.28-.51a2.26 2.26 0 0 1 .33-.13 5.6 5.6 0 0 1 .36.49z"/><path class="cls-1" d="M48.48 114.88c.1.2.2.39.3.56-4.12 1.31-8.3 2.54-12.32 4.11-.54.2-1.08.41-1.62.64l-.61-.23c-.39-.16-.64.38-.41.64-.57.2-1.11.41-1.67.64a.27.27 0 0 0-.46-.23 2.69 2.69 0 0 0-.44.53 22.31 22.31 0 0 1-6.1 1.31.21.21 0 0 0-.1-.2c5-.72 10.36-3.59 15.12-5.08q4.16-1.3 8.31-2.69zM48 123.83l.56.13a.48.48 0 0 1-.56-.13zM47.35 31.11s-.08-.05-.1-.07a1.64 1.64 0 0 1 .48-.31c.24-.05.47-.13.7-.18a.14.14 0 0 1 0 .2c-.21.13-.41.26-.62.41a.4.4 0 0 1-.46-.05zM48.43 30.52c-.23.05-.46.13-.7.18a3.87 3.87 0 0 1 .47-.28.15.15 0 0 1 .23.1z"/><path class="cls-1" d="M48.2 114.37l.28.51q-4.15 1.38-8.31 2.69c-4.76 1.49-10.15 4.36-15.12 5.08a.39.39 0 0 0-.26-.11h-.2c7.92-2.54 15.76-5.38 23.61-8.17zM47.73 94.48a3.34 3.34 0 0 1-.43.1 7.09 7.09 0 0 1 .15-3.21.3.3 0 0 1 .57 0 6.48 6.48 0 0 1 .18 2.95z"/><path class="cls-1" d="M47.73 94.48l.47-.16c0 .26-.06.52-.11.75l-.61.16a.13.13 0 0 1-.1-.13c0-.18-.06-.36-.08-.54a3.34 3.34 0 0 0 .43-.08z"/><path class="cls-1" d="M48.09 95.09a.36.36 0 0 1-.61.13zM47.35 31.11a.4.4 0 0 0 .36.08C35.64 39 28.69 58.18 34.05 72c-.29-.08-.59-.21-.88-.31-2.46-6.54-1.53-15.2.24-21.2 2.28-7.69 6.92-15.22 13.94-19.38zM47.38 95.12a.13.13 0 0 0 .1.13c-2.16.61-4.31 1.2-6.46 1.79-4.64 1.38-9.31 3.46-14 5.18-2.18.66-6.28 2.64-8.1 2.59a.38.38 0 0 0-.26-.36c6.9-1.59 13.48-4.69 20.2-7.18 0 .18.21.33.38.21a5.3 5.3 0 0 0 .67-.57q2.7-1 5.46-1.77c.64-.18 1.26-.36 1.9-.56.05.18.08.36.11.54z"/><path class="cls-1" d="M47.25 31s.07.07.1.07c-7 4.16-11.66 11.69-13.94 19.38-1.77 6-2.7 14.66-.24 21.2-.28-.13-.56-.23-.84-.38a25.18 25.18 0 0 1-1.74-12.05 1.06 1.06 0 0 1 .25 0 .38.38 0 0 0 .21-.71 1.77 1.77 0 0 0-.36-.13 35.71 35.71 0 0 1 3-11 .49.49 0 0 0 .49-.36c.2-.62.38-1.23.54-1.85a.13.13 0 0 1 0-.08A36 36 0 0 1 47.25 31zM45.48 89.76a.22.22 0 0 1 .1.33c-.13.18-.23.36-.36.54a.23.23 0 0 1-.28-.13.28.28 0 0 1 0-.36.61.61 0 0 1 0-.12h.05a1.37 1.37 0 0 1 .16-.18.23.23 0 0 1 .33-.08z"/><path class="cls-1" d="M44.94 90.5a.23.23 0 0 0 .28.13 33.47 33.47 0 0 1-2.79 3.59 35.39 35.39 0 0 1-2.49 2.69 8.11 8.11 0 0 0-.79.28c1.74-2.19 3.97-4.33 5.79-6.69zM44.91 140.38c-.07.13-.12.29-.2.42a4.28 4.28 0 0 0-.49.05.36.36 0 0 1-.18-.69 10.58 10.58 0 0 1 1.08-.26c-.12.18-.12.33-.21.48z"/><path class="cls-1" d="M44.94 90a.61.61 0 0 0 0 .12.28.28 0 0 0 0 .36c-1.82 2.36-4 4.46-5.79 6.69l-.26.08a.18.18 0 0 1 0-.2 14.12 14.12 0 0 1 2.82-3.59c1.05-1.14 2.15-2.26 3.23-3.46zM44 2.94a.28.28 0 0 1 .26-.25c.13 0 .18.25 0 .35a2.55 2.55 0 0 0-.28.21A.9.9 0 0 1 44 3a.12.12 0 0 1 0-.06z"/><path class="cls-1" d="M44 2.66c.08-.05.16-.05.21 0a.28.28 0 0 0-.26.25C38.17 6.3 30.77 17.09 30.38 23.78a.57.57 0 0 0-.13.1.46.46 0 0 0-.13.29.36.36 0 0 1-.15-.26C29.35 16 37.53 6.25 44 2.66z"/><path class="cls-1" d="M44 3a.9.9 0 0 0 0 .23c-6.69 4.54-10.92 12.38-13.1 20a3.08 3.08 0 0 0-.51.51C30.77 17.09 38.17 6.3 44 2.94A.12.12 0 0 0 44 3zM42.17 72.36a3.2 3.2 0 0 1 .57-.21c-.21.36-.39.69-.57 1a7.16 7.16 0 0 0-.74.25.25.25 0 0 1 0-.3 4.35 4.35 0 0 1 .25-.59 3.8 3.8 0 0 1 .49-.15zM42.17 73.18c-.05.07-.08.15-.13.23a.37.37 0 0 1-.61 0 7.16 7.16 0 0 1 .74-.23zM41.3 143.13a2 2 0 0 1 .13-.31.61.61 0 0 1 .18.05c.18.08.31.39.07.49a5.15 5.15 0 0 1-.56.2 2.62 2.62 0 0 1 .18-.43z"/><path class="cls-10" d="M49.53 125.77a146.57 146.57 0 0 0-8.1 17c-1.92-.72-4.13-.1-6.13-.67a59.41 59.41 0 0 1-.28-7.48c.18-4.41.67-9.08 0-13.43a52.92 52.92 0 0 0 14.51 4.58z"/><path class="cls-1" d="M41.63 72.54a4.35 4.35 0 0 0-.25.59.25.25 0 0 0 0 .3 52.74 52.74 0 0 0-5.82 2.16.43.43 0 0 0 0-.36s0-.08-.05-.11a60.41 60.41 0 0 1 6.12-2.58zM41.43 142.82a2 2 0 0 0-.13.31c-1.74 0-4.2.2-5.92-.54 0-.15-.05-.28-.08-.44 2 .57 4.21-.05 6.13.67z"/><path class="cls-1" d="M41.3 143.13a2.62 2.62 0 0 0-.18.43 8 8 0 0 1-5.69-.48 4.28 4.28 0 0 1 0-.49c1.67.74 4.13.56 5.87.54z"/><path class="cls-9" d="M41.12 143.56c-.46 1.16-.92 2.31-1.33 3.44a12.75 12.75 0 0 1-1.8.38c-.66 0-1.33-.1-2-.13-.23-1.41-.44-2.79-.59-4.17a8 8 0 0 0 5.72.48z"/><path class="cls-1" d="M39.53 147.69v-.08c.07-.2.15-.41.23-.61a1.65 1.65 0 0 1 .38-.05.27.27 0 0 1 .28.25.3.3 0 0 1 0 .16 1.3 1.3 0 0 1-.64 1 .55.55 0 0 1-.25-.67zM30.66 24.06c.08-.25.13-.48.2-.74a13.71 13.71 0 0 1 8.64-4.1.62.62 0 0 1 .57.43c.56 4.21-1 8.08-2.34 12-1.54 4.44-1.89 9.13-3 13.61a.13.13 0 0 0 0 .08 23.28 23.28 0 0 0-1 2.21.54.54 0 0 1-.49-.62c.93-5.25 1.62-10.56 3.44-15.58a45.36 45.36 0 0 0 2-6.08c1.46-6.77-5.2-2.74-7.74-.72a.45.45 0 0 1-.59 0 .41.41 0 0 1-.13-.26.37.37 0 0 0 .47 0 .52.52 0 0 1-.03-.23zM39.15 97.19a8.11 8.11 0 0 1 .79-.28 5.3 5.3 0 0 1-.67.57c-.17.12-.35 0-.38-.21z"/><path class="cls-1" d="M39.79 147c-.08.2-.16.41-.23.61v.08a5.1 5.1 0 0 1-3.46-.15 1.92 1.92 0 0 0 0-.29c.64 0 1.31.13 2 .13a12.75 12.75 0 0 0 1.69-.38z"/><path class="cls-1" d="M39.53 147.69a.55.55 0 0 0 .31.64c-1 .54-2.67 0-3.72-.43v-.33a5.1 5.1 0 0 0 3.41.12z"/><path class="cls-4" d="M30.84 24.47c2.54-2 9.2-6 7.74.72a45.36 45.36 0 0 1-2 6.08c-1.82 5-2.51 10.33-3.44 15.58a.54.54 0 0 0 .49.62 35.71 35.71 0 0 0-3 11C27.3 57.21 25 61 24.67 64c-.54 4.36 4.71 7.92 8.5 9.15a19 19 0 0 0 1.49 2.46 4.87 4.87 0 0 0-.56.28.37.37 0 0 0-.08.57 1.58 1.58 0 0 0-.05.38c-2.67-.08-5 1.38-7.38 2.31-1.16.43-3.21.89-4.26 1.84a22.09 22.09 0 0 1 .44-4.69 19.36 19.36 0 0 0 .84-5.1.3.3 0 0 0-.05-.15v-.11c0-.03-.08-.17-.21-.23-2.74-1-6.43.41-9.25.88s-4.85 1.64-7.33 2.51c1.18-6.84 5.15-12.43 7-19a.3.3 0 0 0-.12-.36.4.4 0 0 0-.46-.44c-3.64 1.08-8.41 2.49-11.51 5.05 4.64-14.56 15.91-25.83 28.12-34.5a.24.24 0 0 0 .05-.38l.43.05a.45.45 0 0 0 .56-.05z"/><path class="cls-1" d="M35.71 147.69a3.31 3.31 0 0 0 .41.18c0 .25-.25.51-.48.25a10.68 10.68 0 0 1-2.23-6.12 4.83 4.83 0 0 1 .82-.41c0 .12 0 .28.05.41a.12.12 0 0 0 0 .17 15.78 15.78 0 0 0 1.25 5.11.18.18 0 0 0 0 .3.41.41 0 0 0 .18.11z"/><path class="cls-1" d="M36.07 147.54v.33a3.31 3.31 0 0 1-.41-.18 4.27 4.27 0 0 1-.18-.38.15.15 0 0 1 .16-.08 2 2 0 0 1 .33 0 1.92 1.92 0 0 1 .1.31z"/><path class="cls-1" d="M36 147.25a2 2 0 0 0-.33 0 .15.15 0 0 0-.16.08 15.78 15.78 0 0 1-1.25-5.11.07.07 0 0 0 0 .06 3.78 3.78 0 0 0 1.13.82c.19 1.36.4 2.74.61 4.15z"/><path class="cls-1" d="M35.53 147.31c0 .12.11.25.18.38a.41.41 0 0 1-.13-.08.18.18 0 0 1-.05-.3zM35.07 75.33c.13 0 .28-.13.44-.21s0 .08.05.11a.43.43 0 0 1 0 .36c-.2.1-.44.17-.64.28a.44.44 0 0 1-.18-.16 1.3 1.3 0 0 0-.1-.15zM35 75.87c.2-.11.44-.18.64-.28a.46.46 0 0 1-.64.28zM34.43 77.56a.35.35 0 0 0 0-.66v-.39l.46-.15c.41 2.43.28 5 .61 7.43a.43.43 0 0 1-.48.51.46.46 0 0 0-.54-.61.22.22 0 0 0-.11 0 14.33 14.33 0 0 1-.56-5.92 4.43 4.43 0 0 0 .58-.2z"/><path class="cls-1" d="M35.51 75.12c-.16.08-.31.16-.44.21a12.17 12.17 0 0 1-1.2-2 .07.07 0 0 0 .07 0 .59.59 0 0 0 .59-.15c.29.66.62 1.3.98 1.94zM35.38 142.59a4.28 4.28 0 0 0 0 .49 3.78 3.78 0 0 1-1.13-.82.07.07 0 0 1 0-.06v-.2a.19.19 0 0 1 .3-.13 6.13 6.13 0 0 0 .72.25c.06.19.08.32.11.47z"/><path class="cls-1" d="M35.3 142.15a6.13 6.13 0 0 1-.72-.25.19.19 0 0 0-.3.13c0-.13 0-.29-.05-.41a1.81 1.81 0 0 1 .35-.16.42.42 0 0 0-.1-.82 1.12 1.12 0 0 0-.31 0c-.18-4 .31-8.46.31-11.87 0-2.56.34-5.1.34-7.66a.48.48 0 0 0 .17.1c.7 4.35.21 9 0 13.43a59.41 59.41 0 0 0 .31 7.51zM34.61 84.1a.38.38 0 0 1-.15-.21.56.56 0 0 1-.06-.21.22.22 0 0 1 .11 0 .46.46 0 0 1 .54.61.63.63 0 0 1-.44-.19zM35.07 75.33l-.41.23a19 19 0 0 1-1.49-2.46 6.77 6.77 0 0 0 .7.2 12.17 12.17 0 0 0 1.2 2.03z"/><path class="cls-1" d="M35.05 84.27a.4.4 0 0 1-.29.29 4.65 4.65 0 0 0-3.46 3.51.67.67 0 0 0-.59 0 4.59 4.59 0 0 1 3.9-4 .63.63 0 0 0 .44.2zM34.82 121.14l-.18-.08a.12.12 0 0 0 0-.08c0-.13.28-.15.31 0a1.14 1.14 0 0 1 0 .26.48.48 0 0 1-.13-.1zM34.94 75.87l-.12.07a.41.41 0 0 0-.75.11 2.23 2.23 0 0 0 0 .36.37.37 0 0 1 .08-.57 4.87 4.87 0 0 1 .56-.28 1.3 1.3 0 0 1 .1.15.44.44 0 0 0 .13.16z"/><path class="cls-1" d="M34.46 76.48h-.06a.35.35 0 0 1-.38-.1 2.23 2.23 0 0 1 0-.36.41.41 0 0 1 .75-.11.19.19 0 0 1 0 .11 2.74 2.74 0 0 0 .05.28zM34.28 120.42a2.58 2.58 0 0 0-.46.18c-.23-.26 0-.8.41-.64l.61.23zM34.64 121.06l.18.08c0 2.56-.34 5.1-.34 7.66 0 3.41-.49 7.82-.31 11.87a5.53 5.53 0 0 0-.87.1c0-1.56 0-3.1.08-4.54.23-5.02.18-10.23 1.26-15.17zM34.2 141.1a2.08 2.08 0 0 1 0-.43 1.12 1.12 0 0 1 .31 0 .42.42 0 0 1 .1.82 1.81 1.81 0 0 0-.35.16c-.03-.21-.06-.37-.06-.55zM34.69 45.26c-.16.62-.34 1.23-.54 1.85a.49.49 0 0 1-.49.36 23.28 23.28 0 0 1 1.03-2.21z"/><path class="cls-2" d="M33.92 120.7c.23.13.46.23.72.36-1.08 5-1 10.15-1.26 15.17-.08 1.44-.13 3-.08 4.54a5.82 5.82 0 0 0-1.77.71h-.05c-4.38 1.72-8.33 3.51-13 4.16-1.85.23-3.7.17-5.54.25a22.65 22.65 0 0 1-2.33.05c-2.28.44-3.46-.66-3.51-3.28 6.38-3.92 14.81-7.3 22.4-6.69a.3.3 0 0 0 .36-.18.76.76 0 0 0 .23.13.44.44 0 0 0 .54-.31c.25-.84-.26-1.71-.36-2.59a20.75 20.75 0 0 1 .05-4c.23-2.74 1.18-5.15 1.87-7.74v-.05c.56-.23 1.1-.44 1.67-.64a.19.19 0 0 0 .06.11z"/><path class="cls-1" d="M34.46 76.87a.35.35 0 0 1 0 .66 4.64 4.64 0 0 0 0-.66zM34.3 72.1a.64.64 0 0 1 .23 1.08 7.7 7.7 0 0 1-.48-1.18 1.3 1.3 0 0 0 .25.1zM34.46 83.89a.38.38 0 0 0 .15.21 4.59 4.59 0 0 0-3.9 4l-.53.31c-.08-2.46 1.94-4.23 4.2-4.7a.56.56 0 0 0 .08.18zM34.46 76.48v.39a.37.37 0 0 0-.16-.05 1.23 1.23 0 0 0-.33 0 1.58 1.58 0 0 1 .05-.38.35.35 0 0 0 .38.1l.06-.06z"/><path class="cls-1" d="M33.89 77.25a1.48 1.48 0 0 1 .08-.46 1.23 1.23 0 0 1 .33 0 .37.37 0 0 1 .16.05 4.64 4.64 0 0 1 0 .66 4.43 4.43 0 0 1-.58.2c-.04-.12-.01-.29.01-.45zM33.48 72.51c-.1-.26-.23-.54-.31-.82.29.1.59.23.88.31a7.7 7.7 0 0 0 .48 1.18.59.59 0 0 1-.59.15.07.07 0 0 1-.07 0c-.13-.28-.26-.54-.39-.82zM34.28 142v.17a.12.12 0 0 1 0-.17zM34.2 141.1v.52a4.83 4.83 0 0 0-.82.41 2.76 2.76 0 0 1-.06-.7 4.22 4.22 0 0 1 .88-.23z"/><path class="cls-1" d="M34.17 140.67a2.08 2.08 0 0 0 0 .43 4.22 4.22 0 0 0-.85.23 5 5 0 0 1-.05-.53 5.53 5.53 0 0 1 .9-.13zM33.89 77.25c0 .16 0 .33-.07.51a135.71 135.71 0 0 0-11 4.52.69.69 0 0 1-.49 0v-1.36c1.05-1 3.1-1.41 4.26-1.84 2.41-.91 4.71-2.37 7.41-2.29a1.48 1.48 0 0 0-.11.46zM33.48 72.51c.13.28.26.54.39.79a6.77 6.77 0 0 1-.7-.2 7.53 7.53 0 0 1-.43-.85 5.88 5.88 0 0 0 .74.26z"/><path class="cls-1" d="M33.17 71.69c.08.28.21.56.31.82a5.88 5.88 0 0 1-.74-.26 7.66 7.66 0 0 1-.41-.94c.28.15.56.25.84.38zM33.35 141.33a2.76 2.76 0 0 0 .06.7 7.2 7.2 0 0 1-3.08 1.2.25.25 0 0 1-.28-.2 19.18 19.18 0 0 0 1.64-1.13c.15-.1 0-.39-.16-.39a5.82 5.82 0 0 1 1.77-.71 5 5 0 0 0 .05.53z"/><path class="cls-1" d="M32.74 72.25a7.53 7.53 0 0 0 .43.85c-3.79-1.23-9-4.79-8.5-9.15.35-3 2.63-6.74 6-5.51a1.21 1.21 0 0 0-.05.41c-3.69-1.13-6.33 4.25-5 7.3a13.08 13.08 0 0 0 7.12 6.1z"/><path class="cls-1" d="M32.33 71.31a7.66 7.66 0 0 0 .41.94 13.08 13.08 0 0 1-7.08-6.1c-1.35-3.05 1.29-8.43 5-7.3a2.08 2.08 0 0 0-.05.41 4.73 4.73 0 0 0-4.44 6.2c.98 2.79 3.49 4.64 6.16 5.85zM31.82 121.37a1.39 1.39 0 0 1 .33-.1v.05c-.69 2.59-1.64 5-1.87 7.74a20.75 20.75 0 0 0-.05 4c.1.88.61 1.75.36 2.59a.44.44 0 0 1-.54.31.76.76 0 0 1-.23-.13.48.48 0 0 0-.11-.72 7.23 7.23 0 0 0-.74-.35c-.59-1.54-.23-4.08-.08-5.21.34-2.38.75-5.89 2.36-8 .18-.08.39-.13.57-.18zM31.82 121.34c-.18 0-.39.1-.57.17a2.69 2.69 0 0 1 .44-.53.27.27 0 0 1 .46.23 1.39 1.39 0 0 0-.33.13zM30.48 142.33a6 6 0 0 1 1.05-.82c.18 0 .31.29.16.39a19.18 19.18 0 0 1-1.64 1.1.26.26 0 0 1 0-.24 2.23 2.23 0 0 1 .39-.43h.04zM31.3 88.07a.6.6 0 0 1 0 1.05c-4.46 2.33-7.72 6.28-11 10-2.74 3.16-5.38 6.15-7.23 9.79-.33.34-.69.67-1 1 1.44-4.13 5.08-7.92 7.87-11.18s6.57-7.87 10.51-9.92a.46.46 0 0 0 .67-.3 3.14 3.14 0 0 1 .18-.44z"/><path class="cls-1" d="M31.48 141.51h.05a6 6 0 0 0-1.05.82 31.83 31.83 0 0 1-15.64 4c-2.36 0-7.56.79-9.18-1.51a1.69 1.69 0 0 1-.35-.93.21.21 0 0 0 .07-.15v-.56c.59-1.11 2.85-1.64 3.93-2.21 2.74-1.46 5.38-3.15 8.38-4s8.74-2.9 11.69-1.57h.05a.71.71 0 0 0 .36.28.3.3 0 0 1-.36.18c-7.59-.61-16 2.77-22.4 6.69.05 2.62 1.23 3.72 3.51 3.28a22.65 22.65 0 0 0 2.33-.05c1.84-.08 3.69 0 5.54-.25 4.74-.53 8.69-2.3 13.07-4.02zM30.71 88.07a.67.67 0 0 1 .59 0 3.14 3.14 0 0 0-.15.49.46.46 0 0 1-.67.3.54.54 0 0 1-.3-.43v-.05zM30.64 58.85a1.21 1.21 0 0 1 .05-.41 1.77 1.77 0 0 1 .36.13.38.38 0 0 1-.21.71 1.06 1.06 0 0 0-.25 0 2.08 2.08 0 0 1 .05-.43zM30.59 24.17a.37.37 0 0 1-.47 0 .46.46 0 0 1 .13-.29.57.57 0 0 1 .13-.1 3.08 3.08 0 0 1 .51-.51c-.07.26-.12.49-.2.74a.52.52 0 0 0-.1.16z"/><path class="cls-5" d="M30.59 59.26a25.18 25.18 0 0 0 1.74 12.05c-2.67-1.21-5.18-3.06-6.18-5.85a4.73 4.73 0 0 1 4.44-6.2z"/><path class="cls-1" d="M30.46 142.36a2.23 2.23 0 0 0-.39.43.26.26 0 0 0 0 .24c-5.05 3.2-11.25 3.74-17.15 4-2.05.1-8.23.49-8.23-3.05a2 2 0 0 1 .21-.9v.72a.24.24 0 0 0 .39.15 1.69 1.69 0 0 0 .35.93c1.62 2.3 6.82 1.53 9.18 1.51a31.83 31.83 0 0 0 15.64-4.03zM30.18 88.43a.54.54 0 0 0 .3.43c-3.94 2-7.71 6.8-10.51 9.92s-6.43 7-7.87 11.18l-.53.56c1.2-4.71 4.89-8.53 8-12.12s6.31-7.59 10.59-10zM.93 59.92a2 2 0 0 0-.33.31.48.48 0 0 0-.16.36.49.49 0 0 1-.1-.44c3.56-15 15.79-28.6 29.17-35.8a.23.23 0 0 1 .31 0 .24.24 0 0 1-.05.38C17.56 33.45 6.29 44.72 1.65 59.28a8.87 8.87 0 0 0-.72.64zM29.71 135.1a.48.48 0 0 1 .11.72.71.71 0 0 1-.36-.28h-.05a1.8 1.8 0 0 1-.44-.76 7.23 7.23 0 0 1 .74.32z"/><path class="cls-1" d="M29 134.75a1.8 1.8 0 0 0 .44.76c-2.95-1.33-8.59.72-11.69 1.57s-5.64 2.51-8.38 4c-1.08.57-3.34 1.1-3.93 2.21 0-.34.08-.67.11-1a8.08 8.08 0 0 1 1.84-1c2.49-1.13 4.77-2.64 7.28-3.7 3.66-1.59 10.12-4.51 14.33-2.84z"/><path class="cls-7" d="M31.25 121.54c-1.61 2.11-2 5.62-2.36 8-.15 1.13-.51 3.67.08 5.21-4.18-1.67-10.64 1.2-14.33 2.76-2.51 1.06-4.79 2.57-7.28 3.7a8.08 8.08 0 0 0-1.84 1c.66-6.57 1.79-13 2.74-19.51a76 76 0 0 0 16.53.56.36.36 0 0 0 .36-.46 22.31 22.31 0 0 0 6.1-1.26z"/><path class="cls-1" d="M8.36 121.93a1.49 1.49 0 0 0 .05-.36 49.11 49.11 0 0 0 5.69-.2c3.54.25 7.08.71 10.49 1.15-.11 0-.23.08-.34.1a.14.14 0 0 0 0 .28 4.91 4.91 0 0 0 .87-.05.36.36 0 0 1-.36.46 76 76 0 0 1-16.53-.56c.06-.28.11-.54.13-.82z"/><path class="cls-1" d="M25.05 122.65a.21.21 0 0 1 .1.2 4.91 4.91 0 0 1-.87.05.14.14 0 0 1 0-.28c.11 0 .23-.08.34-.1h.2a.39.39 0 0 1 .23.13zM23.61 71.15a19.36 19.36 0 0 1-.84 5.1 22.09 22.09 0 0 0-.44 4.69 1.31 1.31 0 0 0-.54.72c-1-3.38 1.08-7 1.26-10.33a.71.71 0 0 1 .2 0 .33.33 0 0 0 .31-.31.3.3 0 0 1 .05.13z"/><path class="cls-1" d="M23.05 71.33h-.56c0-.13.05-.25.07-.36a.48.48 0 0 1 .11-.15c.15-.33.66-.28.87 0v.11a.33.33 0 0 1-.31.31.71.71 0 0 0-.18.09z"/><path class="cls-1" d="M22.67 70.87a.48.48 0 0 0-.11.15c0 .11 0 .23-.07.36-1.79.28-3.54.92-5.38 1.18a33.65 33.65 0 0 0-5.74.92C9.69 74 7.9 74.92 6.16 75a.35.35 0 0 1-.08-.69.39.39 0 0 0 .62-.2c2.48-.87 4.66-2.08 7.33-2.51s6.51-1.9 9.25-.88c.13.06.21.13.21.23-.16-.36-.67-.41-.82-.08z"/><path class="cls-1" d="M22 82.12a.47.47 0 0 0 .31.18v.08c0 .18-.26.31-.38.15-2.54-2.69-.21-8 .56-11.15h.56c-.18 3.36-2.23 7-1.26 10.33a.58.58 0 0 0 .21.41z"/><path class="cls-1" d="M22.33 80.94v1.36a.47.47 0 0 1-.31-.18c-.07-.15-.12-.31-.18-.46a1.31 1.31 0 0 1 .54-.72zM22 82.12a.58.58 0 0 1-.18-.46c.03.15.08.34.18.46zM18.44 104.93a.32.32 0 0 1 .23-.48.38.38 0 0 1 .26.36.38.38 0 0 1-.1.25.63.63 0 0 1-.13.11.38.38 0 0 1-.26-.24z"/><path class="cls-1" d="M18.41 104.5a.24.24 0 0 1 .26 0 .32.32 0 0 0-.23.48 57.39 57.39 0 0 0-6 5.49 11.11 11.11 0 0 1 .69-1.49 40 40 0 0 1 5.28-4.48z"/><path class="cls-1" d="M18.44 104.93a.38.38 0 0 0 .28.24c-3.13 2.89-6.13 5.84-8.95 9-.87 1-1.71 2-2.61 3.08a8.18 8.18 0 0 0-2.25 1.44c2.15-2.38 4.3-4.85 6.53-7.2a.32.32 0 0 0 .59 0 7.25 7.25 0 0 1 .44-1 57.39 57.39 0 0 1 5.97-5.56zM13.41 54.93a.52.52 0 0 0 .18-.23.3.3 0 0 1 .12.36c-1.84 6.56-5.81 12.15-7 19-.21.07-.41.15-.62.2a.33.33 0 0 1-.2-.33c.2-6.74 3.69-13 7-18.76z"/><path class="cls-1" d="M1.29 60.41c.1-.38.23-.77.36-1.13 3.1-2.56 7.87-4 11.51-5.05a.4.4 0 0 1 .46.44.34.34 0 0 0-.49.1 2.4 2.4 0 0 0-.2.39c-2 1-4.16 1.69-6.13 2.69a62.25 62.25 0 0 0-5.54 3.25.55.55 0 0 1-.82-.51.5.5 0 0 0 .85-.15z"/><path class="cls-1" d="M13.62 54.67a.52.52 0 0 1-.18.23l-.48.23a2.4 2.4 0 0 1 .2-.39.34.34 0 0 1 .46-.07zM12.1 110c.34-.36.7-.69 1-1a11.11 11.11 0 0 0-.69 1.49c-.23.23-.46.46-.67.69.11-.45.26-.84.36-1.18z"/><path class="cls-1" d="M11.77 111.11c.21-.23.44-.46.67-.69a7.25 7.25 0 0 0-.44 1 .32.32 0 0 1-.59 0 4.26 4.26 0 0 1 .36-.31zM14.1 121.37a49.11 49.11 0 0 1-5.69.2.21.21 0 0 0 0-.13c0-.2-.28-.38-.38-.15a1.08 1.08 0 0 0-.11.28 24.32 24.32 0 0 1-3.07-.18.39.39 0 0 1 0-.15 64.36 64.36 0 0 1 9.25.13z"/><path class="cls-1" d="M12.1 110c-.12.38-.25.77-.33 1.15a4.26 4.26 0 0 0-.36.39.29.29 0 0 1 0-.21 7.74 7.74 0 0 1 .18-.77z"/><path class="cls-1" d="M4.54 119.06a3.29 3.29 0 0 0-.82 1.72.25.25 0 0 0-.2.25 1.85 1.85 0 0 1-.41.34 3.66 3.66 0 0 0-.57 0 .31.31 0 0 0-.18.54.43.43 0 0 1-.53-.62c2.1-3.25 5.23-6.07 7.89-8.89.62-.65 1.21-1.29 1.85-1.93a7.74 7.74 0 0 0-.18.77.29.29 0 0 0 0 .21c-2.23 2.35-4.38 4.82-6.53 7.2-.09.18-.21.28-.32.41zM8.18 121.57a.3.3 0 0 1-.23 0 1.08 1.08 0 0 1 .11-.28c.1-.23.4-.05.38.15a.21.21 0 0 1 0 .13.3.3 0 0 1-.26 0z"/><path class="cls-1" d="M8.41 121.57a1.49 1.49 0 0 1-.05.36.89.89 0 0 1-.28 0c0-.1.08-.23.1-.33a.3.3 0 0 0 .23-.03z"/><path class="cls-1" d="M8.36 121.93c0 .28-.07.54-.1.82a2.55 2.55 0 0 1-.41 0c.08-.26.15-.54.23-.8a.89.89 0 0 0 .28-.02z"/><path class="cls-1" d="M7.85 122.7a2.55 2.55 0 0 0 .41 0c-1 6.51-2.08 12.94-2.74 19.51-.13.1-.23.2-.34.3a82.27 82.27 0 0 1 2.67-19.81zM8.18 121.57c0 .1-.07.23-.1.33a1.32 1.32 0 0 1-.28 0 1.47 1.47 0 0 1 .15-.31.3.3 0 0 0 .23-.02z"/><path class="cls-1" d="M8.08 121.9c-.08.26-.15.54-.23.8h-.36a8.12 8.12 0 0 1 .31-.79 1.32 1.32 0 0 0 .28-.01zM8 121.57a1.47 1.47 0 0 0-.15.31c-1 0-1.95-.08-2.92-.1v-.39a24.32 24.32 0 0 0 3.07.18z"/><path class="cls-1" d="M7.49 122.67h.36a82.27 82.27 0 0 0-2.67 19.86 2.06 2.06 0 0 0-.3.54c-.21-6.61.12-14.07 2.61-20.4z"/><path class="cls-1" d="M7.8 121.88a8.12 8.12 0 0 0-.31.79l-3-.38a.55.55 0 0 0 .36-.51c1 .02 1.97.05 2.95.1zM6.13 74.25c.21 0 .41-.13.62-.2a.39.39 0 0 1-.62.2zM7.13 117.26c-.36.44-.72.85-1.07 1.29a4.08 4.08 0 0 0-1.67 1.69 5.06 5.06 0 0 1-.54.51H3.8a.09.09 0 0 0-.08 0 3.29 3.29 0 0 1 .82-1.72c.11-.13.23-.23.34-.36a8.18 8.18 0 0 1 2.25-1.41zM5.18 142.56c.11-.1.21-.2.34-.3 0 .33-.08.66-.11 1a1 1 0 0 0-.12.71.24.24 0 0 1-.39-.15v-.72a2.06 2.06 0 0 1 .28-.54z"/><path class="cls-1" d="M5.41 143.26v.56a.21.21 0 0 1-.07.15 1 1 0 0 1 .07-.71z"/><path class="cls-9" d="M4.24 120.72a6.47 6.47 0 0 0 .76 0 2.66 2.66 0 0 0-.07.39 3.86 3.86 0 0 1-.75 0c.03-.18.03-.28.06-.39z"/><path class="cls-9" d="M4.18 121a3.86 3.86 0 0 0 .75 0 .32.32 0 0 0 0 .18 3.21 3.21 0 0 0-.69.05.69.69 0 0 1-.06-.23z"/><path class="cls-1" d="M4.9 121.24a.39.39 0 0 0 0 .15 3.12 3.12 0 0 1-.67 0 3.21 3.21 0 0 1 .67-.15z"/><path class="cls-1" d="M4.88 121.39v.39H3.65a1.61 1.61 0 0 1 0-.38.27.27 0 0 1 .15 0 .27.27 0 0 1 .18 0l.25.38a2.32 2.32 0 0 1 0-.38 3.12 3.12 0 0 0 .65-.01z"/><path class="cls-1" d="M3.65 121.75h1.23a.55.55 0 0 1-.36.51h-.11l-.48-.08a.52.52 0 0 1-.28-.43zM4.39 120.24a4.08 4.08 0 0 1 1.67-1.69c-.57.59-1.06 1.17-1.67 1.69z"/><path class="cls-9" d="M4.41 122.29a.56.56 0 0 1-.48-.08zM3.85 120.75a5.06 5.06 0 0 0 .54-.51 4.27 4.27 0 0 0-.15.48c-.13 0-.24.03-.39.03z"/><path class="cls-1" d="M4.21 121.34a2.32 2.32 0 0 0 0 .38l-.21-.38z"/><path class="cls-9" d="M3.85 120.75h.39c0 .11 0 .21-.06.31H3.8l.18.28a.27.27 0 0 0-.18 0 .15.15 0 0 1-.13-.07.84.84 0 0 1 0-.36.87.87 0 0 0 .18-.16z"/><path class="cls-1" d="M4.21 121.29H4a.37.37 0 0 1 .21 0z"/><path class="cls-9" d="M4.18 121a.69.69 0 0 0 0 .26.37.37 0 0 0-.23 0L3.8 121z"/><path class="cls-1" d="M3.93 122.21L2.54 122a.21.21 0 0 1-.15-.07 2.14 2.14 0 0 0 .25-.21h1a.52.52 0 0 0 .29.49zM3.85 120.75a.87.87 0 0 1-.15.13v-.1a.09.09 0 0 1 .08 0z"/><path class="cls-9" d="M3.8 121.31a.27.27 0 0 0-.15 0v-.1a.15.15 0 0 0 .15.1z"/><path class="cls-1" d="M3.72 120.78v.1a.32.32 0 0 1-.18.15.25.25 0 0 1 .18-.25z"/><path class="cls-9" d="M3.7 120.88a.84.84 0 0 0 0 .36.2.2 0 0 1-.15-.21.32.32 0 0 0 .15-.15z"/><path class="cls-1" d="M3.65 121.34a1.61 1.61 0 0 0 0 .38h-1a1.83 1.83 0 0 0 .44-.35 1.64 1.64 0 0 1 .56-.03z"/><path class="cls-1" d="M2.67 121.72a2.14 2.14 0 0 1-.25.21.31.31 0 0 1 .18-.54 3.66 3.66 0 0 1 .57 0 1.83 1.83 0 0 1-.5.33zM.93 59.92a8.87 8.87 0 0 1 .72-.64c-.13.36-.26.75-.36 1.13a.5.5 0 0 1-.85.15.48.48 0 0 1 .16-.36 2 2 0 0 1 .33-.28z"/><path class="cls-12" d="M48.43 14.61c-2.58 2.95-4 8.1-5.16 11.79 2.95-.37 12.89-10.68 5.16-11"/><path class="cls-13" d="M48.43 14.61c-2.58 2.95-4 8.1-5.16 11.79 2.95-.37 12.89-10.68 5.16-11"/><path class="cls-12" d="M48.11 14.3c-2.86 3.37-4.14 7.79-5.48 11.92a.67.67 0 0 0 .82.82c4.35-.72 13.27-11.67 5-12.52-1.06-.11-1.08 1.6 0 1.66 3.75.21 1.6 3.48.15 5.26-1.32 1.62-3.35 3.86-5.49 4.31l.82.82c1.11-4 2.17-8.32 4.83-11.64.36-.44-.25-1.08-.63-.63zM57.26 16.09A12.68 12.68 0 0 0 54.32 22c2.94-.37 5.15-3.32 2.94-5.52"/><path class="cls-13" d="M57.26 16.09A12.68 12.68 0 0 0 54.32 22c2.94-.37 5.15-3.32 2.94-5.52"/><path class="cls-12" d="M57.14 16c-1.79 1.54-2.47 3.58-3.45 5.64a.73.73 0 0 0 .82 1.06c3.27-.49 5.9-3.9 3.3-6.76-.67-.74-1.76.36-1.1 1.09 1.84 2-.61 3.95-2.59 4.28L55 22a10.23 10.23 0 0 1 2.34-5.77.17.17 0 0 0-.24-.24z"/><path class="cls-14" d="M18.65 46.6c-5.73.47-.47-12.28 4.09-7.84 2.46 2.34-.23 8.89-3.86 7.72"/><path class="cls-13" d="M18.65 46.6c-5.73.47-.47-12.28 4.09-7.84 2.46 2.34-.23 8.89-3.86 7.72"/><path class="cls-14" d="M18.65 46.26c-4.07 0-1.13-6.34.72-7.56s3.61.58 3.73 2.42a5.7 5.7 0 0 1-1 3.36 3.08 3.08 0 0 1-2.91 1.41.68.68 0 0 0-.19 1.33c3 1.09 5-3.21 5.26-5.47.25-2.53-1.84-5-4.49-4.25-3.42 1-6.63 10.06-1.12 9.44a.34.34 0 0 0 0-.68zM27.54 51.16c-2.22-.35-.82-5 1.29-4.91 3 .12.93 4.33-1.06 4.91"/><path class="cls-13" d="M27.54 51.16c-2.22-.35-.82-5 1.29-4.91 3 .12.93 4.33-1.06 4.91"/><path class="cls-14" d="M27.69 50.9c-1.54-.81-.51-3.65.89-4.08s1.29 1 1 1.74a5.08 5.08 0 0 1-1.87 2 .62.62 0 0 0-.27.66l.06.14a.59.59 0 0 0 .66.27c2.63-.63 4.34-6 .51-5.95-2.61 0-4.09 5.86-1.09 5.75a.3.3 0 0 0 .15-.56z"/><path class="cls-15" d="M83.84 97c-3 .19-3.41-2.84-.19-3 3-.19 2.84 3.22 0 2.84"/><path class="cls-13" d="M83.84 97c-3 .19-3.41-2.84-.19-3 3-.19 2.84 3.22 0 2.84"/><path class="cls-15" d="M84.17 96.45c-.53-.26-1.45-.25-1.79-.76s1.38-.79 1.59-.8c.37 0 1.22.2 1 .75s-1.2.52-1.6.89a.44.44 0 0 0 0 .61c1 1.31 2.91 0 3.31-1.17.57-1.73-1.27-2.77-2.68-2.89s-3.59.78-3.52 2.57 2.32 2.73 3.72 1.94a.66.66 0 0 0 0-1.14z"/><path class="cls-16" d="M82.7 92.67c-1-.57-.38-1.71 1-1.9 2.08-.38 1.51 1.71-.19 2.27"/><path class="cls-13" d="M82.7 92.67c-1-.57-.38-1.71 1-1.9 2.08-.38 1.51 1.71-.19 2.27"/><path class="cls-16" d="M83.27 92.67c0-.17-.22-.65-.16-.77s1.14-.63 1.19-.51c.15.37-1 1.13-1.22 1.44a.44.44 0 0 0 .26.63c1.79.54 3.35-2.58 1.31-3.35a2.63 2.63 0 0 0-3.11 1.14 1.31 1.31 0 0 0 1.31 2 .57.57 0 0 0 .42-.55z"/></g></g></svg>