<svg xmlns="http://www.w3.org/2000/svg" viewBox="0 0 147.83 148.3"><defs><style>.cls-1{fill:#1d3033;stroke:#1d3033;stroke-linecap:round;stroke-linejoin:round;stroke-width:.66px}.cls-3{fill:#dadada}.cls-4{fill:#9fb05a}.cls-5{fill:#f1f1f1}.cls-6{fill:#f7e5d7}.cls-7{fill:#989898}.cls-8{fill:#fff}.cls-9{fill:none}</style></defs><g id="レイヤー_2" data-name="レイヤー 2"><g id="レイヤー_3" data-name="レイヤー 3"><path class="cls-1" d="M145.35 74.26a33.45 33.45 0 0 0 1.25-10.1 51 51 0 0 0-4.89-19.84c-1.92-4.18-4.61-9.89-8.46-13.51a.48.48 0 0 0 .72-.1c6.12 5.28 9.87 15.12 11.66 22 2.05 7.9 4.26 24.43-4.33 29.69a.43.43 0 0 0 0-.41c2.38-1.53 3.33-5.24 4.05-7.73z"/><path class="cls-1" d="M133.25 30.81c3.85 3.62 6.54 9.33 8.46 13.51a51 51 0 0 1 4.89 19.84 33.45 33.45 0 0 1-1.25 10.1c-.72 2.49-1.67 6.2-4 7.72a.67.67 0 0 0-.25-.31s-.11 0-.13-.1c7.56-6.34 5.2-22.84 2.54-30.66-2.9-8.41-6.87-18.25-15-22.84a.22.22 0 0 1 .18-.41A14.65 14.65 0 0 1 133 30c0 .16 0 .34.05.49a.41.41 0 0 0 .2.32z"/><path d="M143.48 50.91c2.66 7.82 5 24.32-2.54 30.66-3.28-2.21-4.79-5.08-6.13-8.77a27.47 27.47 0 0 0-2.59-6.15c0-.44-.05-.77-.05-.92a.31.31 0 0 0-.61-.08 12.44 12.44 0 0 0-.54 3.64 26.13 26.13 0 0 1-.18 3c-.18 1.1-2.87-2.26-3.1-2.59-3.1-4.54-4.72-9.23-6.41-14.3a21 21 0 0 0 2.49-1.4c1.43-1 3.07-3.59 1.2-4.72a22.75 22.75 0 0 0-2.54-3.92c0-10-1.56-20.64-7.64-28.92a34.3 34.3 0 0 0-12.27-9.74C117.51 5.16 131.4 14.2 133 30a14.65 14.65 0 0 0-4.35-2.33.22.22 0 0 0-.18.41c8.14 4.58 12.11 14.42 15.01 22.83z" fill="#d93933"/><path class="cls-1" d="M141.32 82a.43.43 0 0 1 0 .41c-.15.1-.31.2-.46.28a.37.37 0 0 1-.21 0h-.13a.44.44 0 0 1-.15-.1.4.4 0 0 1 .08-.59 4.83 4.83 0 0 0 .49-.41c0 .05.08.07.13.1a.67.67 0 0 1 .25.31z"/><path class="cls-1" d="M140.84 82.67c.15-.08.31-.18.46-.28a.52.52 0 0 1-.67.33.37.37 0 0 0 .21-.05zM140.94 81.57a4.83 4.83 0 0 1-.49.41c-5.28-3-5.82-9.8-8.2-14.87a2.37 2.37 0 0 0 0-.46 27.47 27.47 0 0 1 2.59 6.15c1.31 3.69 2.82 6.56 6.1 8.77z"/><path class="cls-1" d="M140.45 82a.4.4 0 0 0-.08.59c-4.82-2.43-6.61-9-8.07-14.25v-1.23c2.33 5.07 2.87 11.89 8.15 14.89zM101 6c15.33-3.61 33.25 7.79 33 24.53a.61.61 0 0 1-.05.23 4.91 4.91 0 0 1-.41-.33c.1-5-2.1-9.2-4.8-13.36a25.36 25.36 0 0 0-13-9.92 26.4 26.4 0 0 0-14-.84z"/><path class="cls-1" d="M133.56 30.38a4.91 4.91 0 0 0 .41.33.48.48 0 0 1-.72.1.41.41 0 0 1-.16-.33c0-.15 0-.33-.05-.49.19.13.34.26.52.39zM128.76 17c2.7 4.16 4.9 8.36 4.8 13.36-.18-.13-.33-.26-.52-.39-1.64-15.77-15.53-24.81-30.47-23.28-.31-.15-.59-.3-.9-.43a26.4 26.4 0 0 1 14 .84 25.36 25.36 0 0 1 13.09 9.9zM132.28 68.34c.1 3.31-.24 8.1-3.26 5.31-4.74-4.39-7.82-11.41-8.48-17.87a2.58 2.58 0 0 0 .38-.18 34.42 34.42 0 0 0 5.87 14.12c.77.93 2.92 4.77 4.31 3.69.92-.79.61-4.81.69-6.84.15.57.33 1.16.49 1.77z"/><path class="cls-1" d="M132.25 67.11v1.23c-.16-.61-.34-1.2-.49-1.77a1.78 1.78 0 0 1 0-.34 8.34 8.34 0 0 1 .49.88z"/><path class="cls-1" d="M132.22 66.65a2.37 2.37 0 0 1 0 .46 8.34 8.34 0 0 0-.44-.9v-.15a3.45 3.45 0 0 1 .44.59z"/><path class="cls-1" d="M131.81 66.06a.35.35 0 0 0-.05-.08.07.07 0 0 0-.12.08c.05.15.1.31.15.49-.08 2 .23 6.05-.69 6.84-1.39 1.08-3.54-2.76-4.31-3.69a34.42 34.42 0 0 1-5.87-14.12l.41-.15c1.69 5.07 3.31 9.76 6.41 14.3.23.33 2.92 3.69 3.1 2.59a26.13 26.13 0 0 0 .18-3 12.44 12.44 0 0 1 .54-3.64.31.31 0 0 1 .61.08c0 .15 0 .48.05.92a3.45 3.45 0 0 0-.41-.62z"/><path class="cls-1" d="M131.81 66.21a1.78 1.78 0 0 0 0 .34c0-.18-.1-.34-.15-.49a.07.07 0 0 1 .12-.08.35.35 0 0 1 .05.08zM125 49.32c1.87 1.13.23 3.74-1.2 4.72a21 21 0 0 1-2.49 1.41c-.1-.28-.18-.57-.28-.87 2.64-1.08 5-2.88 3.84-4.64a.55.55 0 0 0 .13-.62z"/><path class="cls-1" d="M125 49.32a.55.55 0 0 1-.13.62 1.07 1.07 0 0 0-.36-.41 1.93 1.93 0 0 0-.2-.52.17.17 0 0 1 .1 0 2.71 2.71 0 0 1 .59.31z"/><path class="cls-1" d="M125 49.27a2.71 2.71 0 0 0-.59-.28.17.17 0 0 0-.1 0 12.83 12.83 0 0 0-3-3.64l-1.15-1.18a4.45 4.45 0 0 0-.43-.46 24 24 0 0 0-1.57-1.64c-.23-.25-.51-.54-.79-.82-.8-.82-1.62-1.61-2.44-2.38q-1.45-1.38-3-2.64a2.52 2.52 0 0 0-.36-.56.28.28 0 0 0-.39 0C103.44 29.33 94.42 24.51 85.7 20c-2.7-1.46-5.7-2.77-8.46-4-3.13-1.36-6.17-3.51-9.48-4.38C61.53 10 53.84 13.13 48 15.08c-3.64 1.2-7.05 3-10.58 4.45a8.81 8.81 0 0 1 .66-.71c7.67-3.26 15.2-6.82 23.61-8 7.15-1 13.89 3.74 20 6.64 9.21 4.31 18.64 9.23 26.74 15.4 4.25 3.21 9.56 7.16 13.3 11.64v1a.32.32 0 1 0 .64 0v-.2a22.75 22.75 0 0 1 2.63 3.97zM124.89 49.94c1.21 1.76-1.2 3.56-3.84 4.64-.08-.21-.13-.41-.21-.62 0-.05 0-.08-.07-.13a7.79 7.79 0 0 0 .92-.38 7.59 7.59 0 0 0 2.38-1.69 1.35 1.35 0 0 0 .21-1.72.61.61 0 0 0 .61-.1z"/><path class="cls-1" d="M124.53 49.53a1.07 1.07 0 0 1 .36.41.61.61 0 0 1-.61.1c0-.16-.16-.31-.23-.51s0-.52.28-.52a1.93 1.93 0 0 1 .2.52z"/><path class="cls-3" d="M124.28 50a1.35 1.35 0 0 1-.21 1.72 7.59 7.59 0 0 1-2.38 1.69 7.79 7.79 0 0 1-.92.38.22.22 0 0 0-.34.13c-1.13.38-2.3.62-3.38 1-2.67-1.31-5.18-3.15-7.87-4.33-1.82-.82-3.61-1.69-5.38-2.54a8.06 8.06 0 0 0 1.28-.18 11.08 11.08 0 0 0 5.23-2.61 6.87 6.87 0 0 0 2-8.38 73.86 73.86 0 0 1 5 4.3c.28.28.56.57.79.82l1.57 1.64a4.45 4.45 0 0 1 .43.46 27 27 0 0 1 3.9 5.62.4.4 0 0 0 .28.28z"/><path class="cls-1" d="M124.28 50a.4.4 0 0 1-.23-.23 27 27 0 0 0-3.9-5.62l1.15 1.18a12.83 12.83 0 0 1 3 3.64c-.26 0-.36.29-.28.52s.21.39.26.51zM122.18 44.94l.3.41v.2a.32.32 0 1 1-.64 0v-1c.08.11.21.23.34.39z"/><path class="cls-1" d="M114.84 16.43c6.08 8.28 7.64 18.9 7.64 28.92l-.3-.41a60.21 60.21 0 0 0-3.59-20.51 27 27 0 0 0-10.74-13.64 65.59 65.59 0 0 0-6.57-3.94 11.36 11.36 0 0 1 1.29-.16 34.3 34.3 0 0 1 12.27 9.74z"/><path class="cls-1" d="M122.18 44.94c-.13-.16-.26-.28-.39-.44-.38-9.59-2-21.53-8.94-28.68A47.43 47.43 0 0 0 88.7 2.9c-19-3.64-37.63 1.51-50.6 15.92l-1.05.43A47.08 47.08 0 0 1 68.91 1.67a88.69 88.69 0 0 1 9.36-.41 49 49 0 0 1 22 5.05.45.45 0 0 0 .51.61l.53-.07a65.59 65.59 0 0 1 6.57 3.94 27 27 0 0 1 10.74 13.64 60.21 60.21 0 0 1 3.56 20.51zM121.05 54.58c.1.3.18.59.28.87l-.41.15c0-.31-.1-.59-.15-.9.1-.05.23-.07.28-.12z"/><path class="cls-1" d="M120.77 54.7l-.31.11a6.78 6.78 0 0 1 0-.77.12.12 0 0 1 0-.08 2.11 2.11 0 0 0 .34-.13c0 .05.07.08.07.13.08.21.13.41.21.62-.08.05-.21.07-.31.12z"/><path class="cls-1" d="M120.77 54.7c0 .31.1.59.15.9a2.58 2.58 0 0 1-.38.18c0-.33-.08-.64-.08-1zM120.77 53.83a2.11 2.11 0 0 1-.34.13.22.22 0 0 1 .34-.13z"/><path class="cls-1" d="M120.46 54.81c0 .33.05.64.08 1-.44.15-.85.28-1.26.38a.22.22 0 0 0-.18-.23c-.36-.12-.74-.28-1.1-.43a13.81 13.81 0 0 0 2.46-.72z"/><path class="cls-1" d="M120.41 54a6.78 6.78 0 0 0 0 .77 13.81 13.81 0 0 1-2.46.69c-.31-.16-.64-.31-1-.49 1.08-.43 2.25-.67 3.38-1a.12.12 0 0 0 .08.03z"/><path class="cls-3" d="M112.85 15.82c6.92 7.15 8.56 19.09 8.94 28.68-3.74-4.48-9.05-8.43-13.3-11.64-8.1-6.17-17.53-11.09-26.74-15.4-6.15-2.9-12.89-7.64-20-6.64-8.41 1.18-15.94 4.74-23.61 8C51.07 4.41 69.65-.74 88.7 2.9a47.43 47.43 0 0 1 24.15 12.92z"/><path class="cls-1" d="M120 93.08c0 8.56-2.25 16.94-3.51 25.37a94.72 94.72 0 0 1-5.07 20.28.53.53 0 0 0-.29-.28c.13-.44.21-.95.36-1.36.49-1.59 1-3.21 1.49-4.8.46-1.43 1.18-2.82 1.51-4.3.41-1.72.51-3.56.8-5.31.46-2.92.87-5.84 1.3-8.76 1-6.8 3.13-13.64 3-20.54a.32.32 0 0 0 .41-.3zM120 93.05a.23.23 0 0 0-.07-.18.2.2 0 0 1 .07.18z"/><path class="cls-1" d="M119.61 93.38a1.42 1.42 0 0 0-.36-.21v-.07a.49.49 0 0 1 .18-.31.36.36 0 0 1 .36 0l.18.15a.23.23 0 0 1 .07.18.32.32 0 0 1-.43.26zM120 92.87l-.18-.15a.32.32 0 0 1 .18.15z"/><path class="cls-1" d="M119.38 92.77a.49.49 0 0 0-.18.31v.07c-2.64-1.56-6.18-1.92-9.07-2.79a87.94 87.94 0 0 0-11.2-2.74c-7.72-1.23-15.33-2.26-23.1-3v-.08a.23.23 0 0 0-.41-.15.31.31 0 0 1 .28-.39 80.65 80.65 0 0 1 19.79 1.48s.05 0 .05.05.26.11.31 0c1.92.34 3.79.72 5.67 1.11 5.56 1.15 13.58 2.51 18.22 6.1a.36.36 0 0 0-.36.03z"/><path class="cls-1" d="M119.61 93.38c.13 6.9-2 13.74-3 20.54-.43 2.92-.84 5.84-1.3 8.76-.29 1.75-.39 3.59-.8 5.31-.33 1.48-1.05 2.87-1.51 4.3-.51 1.59-1 3.21-1.49 4.8-.15.41-.23.92-.36 1.36a.42.42 0 0 0-.48.05 113.41 113.41 0 0 0 4.76-20.36c1.23-8.27 3.57-16.58 3.77-25a1.42 1.42 0 0 1 .36.21.08.08 0 0 1 .05.03zM119.28 56.16c0 .13-.08.29-.23.26a6.88 6.88 0 0 1-.77-.13 4.66 4.66 0 0 0 1-.13z"/><path class="cls-1" d="M117.18 55.6c.23 0 .51-.05.82-.1.36.15.74.31 1.1.43a.22.22 0 0 1 .18.23 4.66 4.66 0 0 1-1 .13h-.31v-.08c0-.1-.12-.15-.2 0a8.91 8.91 0 0 1-1.25-.33.37.37 0 0 1 .05-.59c.2.11.43.21.61.31zM118.28 56.29a1.05 1.05 0 0 1-.31 0zM117.85 56.29h.12c.67 5.82-4.64 13.22-7.87 17.63a.45.45 0 0 1-.41.21v-.1c0-.29-.1-.59-.18-.88 1.18-2.2 2.44-4.33 3.59-6.56a4.9 4.9 0 0 0 1.33-2.72c1.1-2.49 1.77-5.33 3.23-7.61.08.03.13.06.19.03z"/><path class="cls-1" d="M118 56.27h-.12c-.02 0 0 0 0-.07s.12.04.12.07z"/><path class="cls-1" d="M117.87 56.22a.26.26 0 0 1-.13 0h.2v.08s-.02-.06-.07-.08z"/><path class="cls-1" d="M117.87 56.22v.07c0 .02-.11 0-.16 0s0-.05 0-.08a.26.26 0 0 0 .16.01zM117.05 55c.31.18.64.33 1 .49-.31 0-.59.07-.82.1s-.41-.2-.64-.33z"/><path class="cls-1" d="M117.74 56.19v.08a2.45 2.45 0 0 1-1.13-.34l-.07-.07a8.91 8.91 0 0 0 1.2.33z"/><path class="cls-4" d="M116.56 55.93a2.45 2.45 0 0 0 1.13.34c-1.46 2.28-2.13 5.12-3.23 7.61.38-2.26-.72-4.59-3.2-4.38.74-.93 1.43-1.82 2.07-2.72.23-.33-.28-.69-.56-.44-2.38 2.31-4.67 4.75-7.08 7-2.07 2-4.46 3.64-6.63 5.53a58.31 58.31 0 0 0-2.7-7.17.3.3 0 0 0 0-.15.32.32 0 1 0-.61-.18A28.26 28.26 0 0 1 93.9 65a6.28 6.28 0 0 0-.61 1.77c-1.46-3.54-3.05-7-4.26-10.72-1.1-3.41-1.61-7.23-3-10.56a41.38 41.38 0 0 1 17 3.82c4.12 2 8.84 5.18 13.46 6.54z"/><path class="cls-1" d="M117.05 55l-.49.23c-1.49-.82-3.08-1.92-4.16-2.41-2.38-1-4.79-2-7.1-3.23-.94-.51-1.92-1-2.92-1.49a6.93 6.93 0 0 0 1.44 0c1.77.85 3.56 1.72 5.38 2.54 2.67 1.22 5.18 3.06 7.85 4.36zM117.36 41.27c-1.57-1.48-3.28-3-5-4.3a3.48 3.48 0 0 0-.44-.72q1.55 1.26 3 2.64c.82.77 1.64 1.56 2.44 2.38z"/><path class="cls-1" d="M116.54 55.27a.37.37 0 0 0-.05.59c-4.62-1.36-9.34-4.59-13.46-6.54A41.38 41.38 0 0 0 86 45.5c-.08-.2-.15-.41-.25-.61 2.56 0 5.1.25 7.61.51a25.34 25.34 0 0 1 7.64 2.15 2.19 2.19 0 0 0 1.26.54.1.1 0 0 0 .07 0c1 .49 2 1 2.92 1.49 2.31 1.2 4.72 2.18 7.1 3.23 1.11.54 2.7 1.64 4.19 2.46z"/><path class="cls-5" d="M119.2 93.15c-.2 8.41-2.54 16.72-3.77 25a113.41 113.41 0 0 1-4.76 20.36c-3.1 2.25-6.92 3.71-10.46 5.07-3.2 1.21-9.63 4.21-13 3.21a.24.24 0 0 0-.13 0c-3-3-5.92-6.23-9.12-9.05-1.62-1.41-3.28-2.79-4.87-4.25-1.31-1.18-2.18-2.59-3.62-3.57.18-.23-.2-.51-.38-.33 1.41-1.54.84-6 1-7.82.34-5.17 1.18-10.35 2-15.45 1.2-7.23 3.74-14.23 3.79-21.61 7.77.69 15.38 1.72 23.1 3a87.94 87.94 0 0 1 11.2 2.74c2.82.78 6.38 1.14 9.02 2.7z"/><path class="cls-1" d="M111.26 59.5c2.48-.21 3.58 2.12 3.2 4.38a1.37 1.37 0 0 1-.13.31c-.38.82-.79 1.61-1.2 2.41a1.25 1.25 0 0 1-.23.23c-2.25 2-8.89 4.85-11.23 1.77a2.65 2.65 0 0 0 .39-.23c2.26 1.59 7.33.26 9.38-1.15 1.61-1.13 3-2.64 2.74-4.72a2.79 2.79 0 0 0-3.31-2.5 3.29 3.29 0 0 0 .39-.5z"/><path class="cls-1" d="M114.33 64.19a1.37 1.37 0 0 0 .13-.31 4.9 4.9 0 0 1-1.33 2.72c.41-.8.87-1.6 1.2-2.41zM114.15 62.52c.29 2.08-1.13 3.59-2.74 4.72-2 1.41-7.12 2.74-9.38 1.15l.54-.38c2.71.38 5.12.56 7.69-.8 1.3-.69 3.1-1.92 3.3-3.53.34-2.39-1.15-3.21-3.1-3.21a4.63 4.63 0 0 0 .41-.49 2.79 2.79 0 0 1 3.28 2.54z"/><path class="cls-6" d="M110.46 60.47c2 0 3.44.82 3.1 3.21-.2 1.61-2 2.84-3.3 3.53-2.57 1.36-5 1.18-7.69.8a41.42 41.42 0 0 0 7.89-7.54z"/><path class="cls-1" d="M110.28 59.68a.45.45 0 0 0-.18 0 .41.41 0 0 0-.28.43 59.67 59.67 0 0 1-10.61 9.28l-.15-.54c2.17-1.89 4.56-3.53 6.63-5.53 2.41-2.28 4.7-4.72 7.08-7 .28-.25.79.11.56.44-.64.9-1.33 1.79-2.07 2.72a3.35 3.35 0 0 0-.98.2z"/><path class="cls-4" d="M112.87 66.85a1.25 1.25 0 0 0 .23-.23c-1.15 2.23-2.41 4.36-3.59 6.56a7.75 7.75 0 0 0-1-2.35 2.92 2.92 0 0 1 .29-.34.23.23 0 0 0-.23-.38c-2.83 1.18-4.23 4.3-6.46 6.36a16.92 16.92 0 0 0-.72-3.49.47.47 0 0 0-.57-.33 41.08 41.08 0 0 0-3.89 1.89 9.8 9.8 0 0 0 1.54-3.84h.1a.28.28 0 0 0 .16-.39 21.51 21.51 0 0 0 2.89-1.64c2.38 3.03 9 .13 11.25-1.82z"/><path class="cls-1" d="M112.36 37a6.87 6.87 0 0 1-2 8.38 11.08 11.08 0 0 1-5.28 2.62 8.06 8.06 0 0 1-1.28.18c-.64-.31-1.28-.61-1.93-.9 5.67 1.31 13.67-5 9.77-10.81.26.14.49.32.72.53zM111.61 36.38c-.23-.16-.46-.34-.69-.52a.47.47 0 0 1 .23-.25 8 8 0 0 1 .75.61 3.48 3.48 0 0 1 .44.72c-.23-.18-.46-.36-.72-.54.02 0 .02 0-.01-.02z"/><path class="cls-1" d="M111.54 35.66a2.52 2.52 0 0 1 .36.56 8 8 0 0 0-.75-.61.28.28 0 0 1 .39.05zM111.64 36.43c3.9 5.79-4.1 12.12-9.77 10.81-.36-.18-.74-.33-1.13-.51a.61.61 0 0 1 .28-.18c1.29-.44 2.77.3 4.18-.05a10.31 10.31 0 0 0 4-1.8c2.88-2.2 4-5.46 1.82-8.56a.35.35 0 0 1 0-.26c.23.18.46.36.69.52-.07 0-.07 0-.07.03z"/><path class="cls-5" d="M111 36.12c2.18 3.1 1.06 6.36-1.82 8.56a10.31 10.31 0 0 1-4 1.8c-1.41.35-2.89-.39-4.18.05a.61.61 0 0 0-.28.18c-1-.44-2-.82-3-1.18-6.77-2.31-15.44-2.08-22.41.13a.58.58 0 0 0-.56-.13 103.09 103.09 0 0 0-11.12 2.74c-3.23 1.08-2.9 2.23-7.46 2.73-2.66.33-6-1.9-8.28-3.23-5.69-3.33-11.38-4.33-17.84-5.18-.56-7.18-.67-16.48 5-21.76 0 0 .05-.05 0-.08 7-2.31 13.59-5.64 20.71-7.76 10.43-3.11 18.41 2 27.56 6.33a171.27 171.27 0 0 1 21 11.91c2 1.31 4.25 2.88 6.53 4.59a.35.35 0 0 0 .15.3z"/><path class="cls-1" d="M111.44 138.73a.58.58 0 0 1-.08.66c-2.77 3.18-8.31 5-12.28 6.1-3.31.95-8.35 3.21-11.76 2a.27.27 0 0 0 .12-.21c1.18.67 2.46-.15 3.72-.48 1.56-.41 3.18-.72 4.74-1.16a54.77 54.77 0 0 0 13.1-5.25 9.77 9.77 0 0 0 1.59-.94.42.42 0 0 0 .67-.16c.05-.18.12-.38.18-.56z"/><path class="cls-1" d="M110.92 139v-.05a2.34 2.34 0 0 0 .2-.53.53.53 0 0 1 .29.28c-.06.18-.13.38-.21.56a.42.42 0 0 1-.67.16 1.58 1.58 0 0 0 .39-.42zM110.87 60a4.63 4.63 0 0 1-.41.49h-.25a.38.38 0 0 1-.39-.31 2.31 2.31 0 0 0 .46-.48 3.35 3.35 0 0 1 1-.18 3.29 3.29 0 0 1-.41.48z"/><path class="cls-1" d="M110.67 138.5a.42.42 0 0 1 .48-.05 2.34 2.34 0 0 1-.2.53v.05a1.58 1.58 0 0 1-.36.42.35.35 0 0 1-.1-.39 4 4 0 0 0 .18-.56zM36.77 19.82a.37.37 0 0 0 .46-.08 1.29 1.29 0 0 1 .19-.21C41 18.1 44.38 16.28 48 15.08c5.82-1.95 13.51-5.05 19.74-3.44 3.31.87 6.35 3 9.48 4.38C80 17.23 83 18.54 85.7 20c8.72 4.56 17.74 9.38 25.45 15.66a.47.47 0 0 0-.23.25c-2.28-1.71-4.53-3.28-6.53-4.59a171.27 171.27 0 0 0-21-11.91C74.22 15.05 66.24 9.92 55.81 13c-7.12 2.12-13.71 5.45-20.71 7.76a.18.18 0 0 0-.26-.2 1.23 1.23 0 0 0-.33.23.38.38 0 0 1 .16-.59c.61-.23 1.2-.49 1.82-.75a.49.49 0 0 0 .28.37z"/><path class="cls-1" d="M110.64 138.5a4 4 0 0 1-.18.56.35.35 0 0 0 .1.39 9.77 9.77 0 0 1-1.59.94 54.77 54.77 0 0 1-13.07 5.28c-1.56.44-3.18.75-4.74 1.16-1.26.33-2.54 1.15-3.72.48a.31.31 0 0 0-.1-.25 3.92 3.92 0 0 1-.28-.31.24.24 0 0 1 .13 0c3.36 1 9.79-2 13-3.21 3.53-1.33 7.35-2.79 10.45-5.04zM110.21 60.47h.25a41.42 41.42 0 0 1-7.89 7.53 3.41 3.41 0 0 1-.46-.05c-.34-.06-.75.28-.49.64a21.51 21.51 0 0 1-2.89 1.64.42.42 0 0 0-.13-.18.49.49 0 0 0 .59-.61 59.67 59.67 0 0 0 10.61-9.28.38.38 0 0 0 .41.31zM110.28 59.68a2.31 2.31 0 0 1-.46.48.41.41 0 0 1 .28-.43.45.45 0 0 1 .18-.05zM109.69 74.06v.1a.43.43 0 0 1-.36-.67 3.49 3.49 0 0 1 .18-.31c.08.29.13.59.18.88z"/><path class="cls-1" d="M108.23 71.11l.28-.28a7.75 7.75 0 0 1 1 2.35 3.49 3.49 0 0 0-.18.31.43.43 0 0 0 .36.67.45.45 0 0 1-.84.25 6.81 6.81 0 0 1-.95-2.89z"/><path class="cls-1" d="M108.26 70.62a.33.33 0 0 0-.44.33c-2.2 1.77-3.43 4.44-5.61 6.21 0-.23 0-.46-.1-.69 2.23-2.06 3.63-5.18 6.46-6.36a.23.23 0 0 1 .23.38 2.92 2.92 0 0 0-.29.34.27.27 0 0 0-.25-.21z"/><path class="cls-1" d="M108.23 71.11l-.33.41c0-.16-.05-.31-.08-.46V71a2 2 0 0 1 .44-.33.27.27 0 0 1 .23.16zM108.26 70.62a2 2 0 0 0-.44.33.33.33 0 0 1 .44-.33zM107.82 71.06c0 .15.05.3.08.46-1.87 2.2-3.59 4.66-5.79 6.46a.58.58 0 0 1-1-.26c-.13-.64-.23-1.28-.31-1.92-.18-1.82-.26-2.18-1.85-1.33a19.31 19.31 0 0 1-2.79 1.28 4.08 4.08 0 0 0 .28-.49c1.54-.64 2.92-1.66 4.46-2.15a26.59 26.59 0 0 1 .67 3.79.61.61 0 0 1-.21.18.94.94 0 0 1 .23.1c0 .13 0 .26.08.39a3.56 3.56 0 0 0 .31-.26.77.77 0 0 0 .23.1 2.21 2.21 0 0 1-.05-.25c2.18-1.77 3.41-4.44 5.61-6.21zM101.85 47.22c.65.29 1.29.59 1.93.9a6.93 6.93 0 0 1-1.44 0 .1.1 0 0 1-.07 0l-1.27-.54a.94.94 0 0 1-.28-.31.41.41 0 0 1 0-.53c.39.15.77.26 1.13.48zM102 68.39a2.65 2.65 0 0 1-.39.23c-.26-.36.15-.7.49-.64a3.41 3.41 0 0 0 .46.05zM101.67 6.26c.31.13.59.28.9.43a11.36 11.36 0 0 0-1.29.16l-1-.54a.3.3 0 0 1 .28-.26A4.1 4.1 0 0 1 101 6zM101 47.58l1.26.54a2.19 2.19 0 0 1-1.26-.54z"/><path class="cls-1" d="M102.21 77.16a2.21 2.21 0 0 0 .05.25.77.77 0 0 1-.23-.1.48.48 0 0 0 .18-.15z"/><path class="cls-1" d="M102.11 76.47c0 .23.07.46.1.69a.48.48 0 0 1-.18.15c-.13 0-.26-.1-.39-.13a1.19 1.19 0 0 1 0-.28 2.8 2.8 0 0 0 .47-.43z"/><path class="cls-1" d="M102.11 76.47a2.8 2.8 0 0 1-.49.43 26.59 26.59 0 0 0-.67-3.79c-1.54.49-2.92 1.51-4.46 2.15.16-.23.31-.49.44-.72a41.08 41.08 0 0 1 3.89-1.89.47.47 0 0 1 .57.33 16.92 16.92 0 0 1 .72 3.49zM102 77.31a3.56 3.56 0 0 1-.31.26c0-.13 0-.26-.08-.39.16.03.29.11.39.13zM101.62 76.9a1.19 1.19 0 0 0 0 .28.94.94 0 0 0-.23-.1.61.61 0 0 0 .23-.18zM101.28 6.85l-.53.07a.45.45 0 0 1-.51-.61z"/><path class="cls-1" d="M101 6a4.1 4.1 0 0 0-.48.1.3.3 0 0 0-.28.26 49 49 0 0 0-22-5 88.69 88.69 0 0 0-9.36.41 47.08 47.08 0 0 0-31.83 17.48l-.56.23a.25.25 0 0 1 0-.3C48.76 3.08 71.76-3.2 91 2.26A65.7 65.7 0 0 1 101 6zM100.7 47.24a.94.94 0 0 0 .28.31 25.34 25.34 0 0 0-7.64-2.15c-2.51-.26-5-.49-7.61-.51v-.06c0-.06-.23 0-.23.06a34.39 34.39 0 0 0-10 1.15.51.51 0 0 0-.18-.38c7-2.21 15.64-2.44 22.41-.13 1 .36 2 .74 3 1.18a.41.41 0 0 0-.03.53zM99.21 69.47a.49.49 0 0 1-.59.61.3.3 0 0 0-.13 0l-.07-.08c.28-.18.53-.36.79-.54zM98.62 69.26a3.13 3.13 0 0 1 .44-.36l.15.54c-.26.18-.51.36-.79.54a.42.42 0 0 1-.24-.33c.13-.13.29-.26.44-.39z"/><path class="cls-1" d="M99.06 68.9a3.13 3.13 0 0 0-.44.36c-.41-2.43-1.74-4.77-2.38-7.2a.81.81 0 0 0 .07-.35 58.31 58.31 0 0 1 2.75 7.19zM98.47 70.39a.41.41 0 0 0 .18 0h.13a.28.28 0 0 1-.16.39h-.1a.44.44 0 0 0-.05-.39zM98.75 70.26h-.13a.41.41 0 0 1-.18 0 .46.46 0 0 0-.33-.17v-.06l.37-.07h.07a.3.3 0 0 1 .13 0 .42.42 0 0 1 .07.3z"/><path class="cls-1" d="M98.62 69.26c-.15.13-.31.26-.44.39v-.05c-.28-2.44-1.56-4.64-2.1-7a2.54 2.54 0 0 0 .16-.51c.64 2.4 1.97 4.74 2.38 7.17zM98.42 70l.07.08h-.07l-.37.07a.34.34 0 0 1 .08-.43h.05a.42.42 0 0 0 .24.28zM98 70.88l-.64.18a1.16 1.16 0 0 0 .1-.28 2.66 2.66 0 0 0 1-.39.44.44 0 0 1 0 .26z"/><path class="cls-1" d="M98.44 70.36a2.66 2.66 0 0 1-1 .39.93.93 0 0 0 .1-.26.56.56 0 0 1 .54-.33.42.42 0 0 0 .36.2zM98 70.88l.49-.18a9.8 9.8 0 0 1-1.54 3.84c-.36.18-.69.36-1.05.52a12.85 12.85 0 0 0 2.1-4.18z"/><path class="cls-1" d="M98.11 70.19a.46.46 0 0 1 .33.17.42.42 0 0 1-.33-.17z"/><path class="cls-6" d="M98.18 69.6v.05h-.05a.34.34 0 0 0-.08.43c-7.43 1.54-16 .62-23.6 1-8.69.47-17.48.77-26.17 1.44h-.18a.19.19 0 0 0-.13 0c-4.74-.59-8.79-1.62-12.38-5-2.69-2.49 3.3-9.92 5.1-11.53a.57.57 0 0 0 0-.85.37.37 0 0 0 .29-.38c-.18-1.59-.49-3.18-.7-4.77a20.11 20.11 0 0 1-.07-2.8 8.34 8.34 0 0 0 .07-1.56c.16 0 .29.08.44.1 4.38 1 7.51 4.75 11.74 6.08a10.84 10.84 0 0 0 8 0c4.62-2 10.51-2.16 14.61-5.05a43.46 43.46 0 0 1 10.48-1.26c.9 7.38 2.89 17.66 8.12 23.1.1.1.36 0 .28-.18s-.12-.34-.2-.52a15.49 15.49 0 0 0 1.36-3 22 22 0 0 0 1-2.26c.51 2.36 1.79 4.52 2.07 6.96zm-18.07-9.41a14.19 14.19 0 0 0 .72-5.08c-.08-1.25-1.15-4.35-3-3.3-2.52 1.43-3.72 10.07 0 10.56a.6.6 0 0 0 .87.64c.82-.54 1.13-1.92 1.41-2.82zM48.87 62c1.35-1.57 1.46-3.85 1.35-5.82-.07-1.31-.43-4.28-2.28-4.38-4-.26-2.95 8.17-.46 9.58a1.81 1.81 0 0 0 .67.72.59.59 0 0 0 .72-.1z"/><path class="cls-1" d="M98.05 70.13v.06a.56.56 0 0 0-.54.33.93.93 0 0 1-.1.26 16.3 16.3 0 0 1-2.33.15c-2.49.1-5 0-7.44.18-2.79.13-5.58.18-8.38.31-10.15.43-20.4 1.33-30.6 1.35a.51.51 0 0 0-.41-.2c8.69-.67 17.48-1 26.17-1.44 7.58-.38 16.2.54 23.63-1zM95.29 76a6.51 6.51 0 0 0 .92-.23l-.15.28c-1.8 3.2-.7 6-.16 9.33a.18.18 0 0 1-.05.15 1.84 1.84 0 0 0-.36-.05c-1.43-2.07-2.71-5.25-1.74-7.79.9-2.38 2.67-4.26 3.59-6.61l.64-.18a12.85 12.85 0 0 1-2.1 4.18c-.29.15-.57.25-.87.38a.29.29 0 0 0 .17.56.22.22 0 0 0 .11-.02z"/><path class="cls-1" d="M97.44 70.78a1.16 1.16 0 0 1-.1.28c-3.1.82-6.49.43-9.67.56-4.4.18-8.81.28-13.22.54-8.49.49-17.1 1.33-25.58.92-.06-.07-.11-.18-.16-.25a.13.13 0 0 0 0-.06c10.2 0 20.45-.92 30.6-1.35 2.8-.13 5.59-.18 8.38-.31 2.46-.13 5-.08 7.44-.18a16.3 16.3 0 0 0 2.31-.15zM96.93 74.54c-.13.23-.28.49-.44.72a4.84 4.84 0 0 1-.95.33c.11-.17.21-.36.34-.53.36-.16.69-.34 1.05-.52z"/><path class="cls-1" d="M96.49 75.26a4.08 4.08 0 0 1-.28.49 6.51 6.51 0 0 1-.92.23 2.84 2.84 0 0 1 .25-.39 4.84 4.84 0 0 0 .95-.33zM96 61.62a.31.31 0 0 0-.07.21c-.57 2-2.13 3.74-2.31 5.77a8.26 8.26 0 0 0-.33-.82A6.28 6.28 0 0 1 93.9 65a28.26 28.26 0 0 0 1.85-3.69.32.32 0 1 1 .61.18.3.3 0 0 1 0 .15.2.2 0 0 0-.36-.02z"/><path class="cls-1" d="M96.24 62a2.54 2.54 0 0 1-.16.51 3.14 3.14 0 0 1-.15-.74.31.31 0 0 1 .07-.21.2.2 0 0 1 .31 0 .81.81 0 0 1-.07.44z"/><path class="cls-1" d="M95.93 61.83a3.14 3.14 0 0 0 .15.74 22 22 0 0 1-1 2.26 15.49 15.49 0 0 1-1.36 3l-.13-.28c.21-1.98 1.77-3.77 2.34-5.72zM95.54 75.59a2.84 2.84 0 0 0-.25.39.22.22 0 0 1-.11 0 .29.29 0 0 1-.17-.56c.3-.13.58-.23.87-.38-.13.19-.23.38-.34.55zM95.49 85.46a1.84 1.84 0 0 1 .36.05c0 .11-.2.13-.31 0s-.02-.02-.05-.05z"/><path class="cls-5" d="M97.34 71.06c-.92 2.35-2.69 4.23-3.59 6.61-1 2.54.31 5.72 1.74 7.79A80.65 80.65 0 0 0 75.7 84a.31.31 0 0 0-.28.46.62.62 0 0 0-.2 0c-2.72.36-4.93 1.82-7.28 3.12-1.39.75-2.59 1.77-3.95 2.52s-3.74-2.62-5-3.28c-.08 0-.12-.06-.18 0a125.47 125.47 0 0 1-10-13.72c8.48.41 17.09-.43 25.58-.92 4.41-.26 8.82-.36 13.22-.54 3.24-.15 6.63.24 9.73-.58z"/><path class="cls-1" d="M93.44 67.9a.16.16 0 0 0 .28 0c.08.18.13.34.2.52s-.18.28-.28.18c-5.23-5.44-7.22-15.72-8.12-23.1h.25c.18.62.21 1.28.36 1.85a72 72 0 0 0 2.36 8.87 49.19 49.19 0 0 0 4.9 11.66l.05.02z"/><path class="cls-1" d="M93.62 67.6l.13.28a.16.16 0 0 1-.28 0 1.6 1.6 0 0 1-.13-1.1 8.26 8.26 0 0 1 .28.82z"/><path class="cls-1" d="M93.29 66.78a1.6 1.6 0 0 0 .13 1.1 49.19 49.19 0 0 1-4.9-11.66 72 72 0 0 1-2.36-8.87c-.15-.57-.18-1.23-.36-1.85h.2c1.44 3.33 2 7.15 3 10.56 1.24 3.72 2.83 7.18 4.29 10.72zM86.78 147.06a.33.33 0 0 1 .25-.31 3.92 3.92 0 0 0 .28.31.31.31 0 0 1 .1.25.27.27 0 0 1-.12.21 1.6 1.6 0 0 1-.31-.1.38.38 0 0 1-.2-.36z"/><path class="cls-1" d="M87 147.42a1.6 1.6 0 0 0 .31.1.31.31 0 0 1-.39 0 19.31 19.31 0 0 1-3-2.1c.07-.08.1-.15.15-.21a.49.49 0 0 0 0-.53c.9.76 1.74 1.66 2.67 2.33a.38.38 0 0 0 .26.41z"/><path class="cls-1" d="M87 146.75a.33.33 0 0 0-.25.31c-.93-.67-1.77-1.57-2.67-2.33a.81.81 0 0 0-.46-.38l-.33-.26c-1.9-1.46-3.21-3.38-4.95-5a1.89 1.89 0 0 0-.28-.23s0-.08-.11-.11c-1.79-1.61-3.69-3.15-5.4-4.84-1.16-1.15-2.11-2.77-3.39-3.74a1.73 1.73 0 0 0 .23-.29c1.44 1 2.31 2.39 3.62 3.57 1.59 1.46 3.25 2.84 4.87 4.25 3.23 2.82 6.12 6.03 9.12 9.05zM85.8 45.5h-.25c0-.2 0-.38-.08-.59a.39.39 0 0 1 .26 0c.1.2.17.41.25.61z"/><path class="cls-1" d="M85.7 44.83v.06a.39.39 0 0 0-.26 0c.03-.11.21-.16.26-.06z"/><path class="cls-1" d="M85.47 44.91c0 .21 0 .39.08.59a43.46 43.46 0 0 0-10.49 1.26l.16-.11a.57.57 0 0 0 .25-.61 34.39 34.39 0 0 1 10-1.15zM83.42 145c-.18-.15-.33-.3-.49-.46a1 1 0 0 1 .26-.2.54.54 0 0 1 .46-.05l.46.38a.49.49 0 0 1 0 .53c0 .06-.08.13-.15.21-.23-.09-.39-.25-.54-.41z"/><path class="cls-1" d="M83.42 145c.15.13.31.29.49.44-.7 1-2.36 3-3.59 2.08a.15.15 0 0 1 0-.08.81.81 0 0 0 .87-.28c.87-.36 1.56-1.49 2.23-2.16zM84.11 144.7l-.46-.38a.81.81 0 0 1 .46.38zM83.65 144.32a.54.54 0 0 0-.46.05 1 1 0 0 0-.26.2c-1.48-1.36-2.84-2.84-4.33-4.25a6.87 6.87 0 0 0-.49-1.43 1.89 1.89 0 0 1 .28.23c1.74 1.59 3 3.51 4.95 5z"/><path class="cls-1" d="M82.93 144.57c.16.16.31.31.49.46-.67.64-1.36 1.77-2.26 2.13a.23.23 0 0 0-.07-.36 2 2 0 0 1-.26-.23 5.38 5.38 0 0 0 1.1-.92 5.19 5.19 0 0 1 1-1.08z"/><path class="cls-3" d="M82.93 144.57a5.19 5.19 0 0 0-1 1.08 5.38 5.38 0 0 1-1.1.92c-1.61-1.46-1.67-4.07-2.23-6.25 1.49 1.41 2.85 2.89 4.33 4.25z"/><path class="cls-1" d="M80.45 146.93a1.61 1.61 0 0 1 .38-.36 2 2 0 0 0 .26.23.23.23 0 0 1 .07.36.81.81 0 0 1-.87.28.53.53 0 0 1 .08-.44.46.46 0 0 1 .1-.1s-.05.01-.02.03zM80.83 55.11a14.19 14.19 0 0 1-.72 5.08c-.28.9-.59 2.28-1.43 2.82a.6.6 0 0 1-.87-.64.5.5 0 0 0 .17 0 .3.3 0 0 0 .21-.07l.18.15c1.33-1.51 3.23-8.13.95-10-2.82-2.44-4.9 8.33-1.41 9.64a.67.67 0 0 0-.1.23c-3.72-.49-2.52-9.13 0-10.56 1.87-1 2.94 2.1 3.02 3.35z"/><path class="cls-1" d="M80.83 146.57a1.61 1.61 0 0 0-.38.36c-1.46-.69-2-5.15-2.41-7.18a5.73 5.73 0 0 1 .57.54c.55 2.21.61 4.82 2.22 6.28z"/><path class="cls-1" d="M80.42 146.93a.46.46 0 0 0-.1.1.53.53 0 0 0-.08.44c-.87-.26-1.61-2-1.77-2.59a31.15 31.15 0 0 1-.84-5.49l.23.21.15.15c.38 2.03.99 6.49 2.41 7.18zM79.32 52.45c2.28 1.89.38 8.51-.95 10l-.18-.15a.27.27 0 0 0 0-.41.8.8 0 0 1-.13-.13 12.59 12.59 0 0 0 .82-1.49 13.76 13.76 0 0 0 .87-3 6.71 6.71 0 0 0-.1-3.56c-.41-1-1.33-1.62-2-.49-1.41 2.36-1.8 6.59.38 8.59a.69.69 0 0 0-.15.31c-3.46-1.34-1.38-12.12 1.44-9.67z"/><path class="cls-1" d="M79.65 53.68a6.71 6.71 0 0 1 .1 3.56 13.76 13.76 0 0 1-.87 3 12.59 12.59 0 0 1-.82 1.49c-2.18-2-1.79-6.23-.38-8.59.64-1.08 1.56-.49 1.97.54zM78 139.75l-.15-.15-.23-.21v-.41c0-.13.23-.3.38-.23s.08.08.11.11a6.87 6.87 0 0 1 .49 1.43 5.73 5.73 0 0 0-.6-.54zM78.19 61.91a.27.27 0 0 1 0 .41l-.19-.21h-.07a.69.69 0 0 1 .15-.31.8.8 0 0 0 .11.11z"/><path class="cls-1" d="M78 62.11l.21.21a.3.3 0 0 1-.21.07.5.5 0 0 1-.17 0 .67.67 0 0 1 .1-.23zM78 138.75c-.15-.07-.41 0-.38.23s0 .29 0 .41c-2.44-2.2-4.59-4.48-6.77-6.81l.08-.31c.07-.26-.31-.41-.47-.18-.51-.56-1-1.13-1.56-1.69a.36.36 0 0 0 .18-.13c.05 0 .07-.1.12-.15 1.28 1 2.23 2.59 3.39 3.74 1.7 1.74 3.6 3.28 5.41 4.89zM75.83 84.59h-.13a.11.11 0 0 1-.1 0h-.1c-.02 0 0 0-.08-.08a.23.23 0 0 1 .41.08zM69 129.55c.18-.18.56.1.38.33a1.61 1.61 0 0 0-.33-.23.31.31 0 0 0-.2-.05c.53-4 .43-8.07.94-12.12.13-1 .26-2 .41-3a.71.71 0 0 0 .21-1.15c.2-1.67.43-3.33.67-5 1.12-7.87 3.92-15.43 4.51-23.4v-.08a.55.55 0 0 0 0-.18.11.11 0 0 0 .1 0h.13c0 7.38-2.59 14.38-3.79 21.61-.85 5.1-1.69 10.28-2 15.45-.15 1.8.42 6.27-1.03 7.82z"/><path class="cls-1" d="M75.6 84.59a.55.55 0 0 1 0 .18.43.43 0 0 0-.08-.23s.03.08.08.05zM75.58 84.77v.08a.33.33 0 0 1-.11.2.92.92 0 0 1-.25.23c0-.25.1-.48.15-.74v-.08c0-.03 0 .08.08.08a.43.43 0 0 1 .13.23z"/><path class="cls-1" d="M75.47 85.05a.33.33 0 0 0 .11-.2c-.59 8-3.39 15.53-4.51 23.4-.24 1.67-.47 3.33-.67 5-.21-.18-.39-.36-.59-.51.18-1.54.38-3.11.61-4.64.08-.47.16-.95.23-1.41l.24.07a.31.31 0 0 0 .25-.56 3 3 0 0 0-.36-.18c1.23-7 3.13-13.79 4.44-20.74a.92.92 0 0 0 .25-.23zM75.47 46a.57.57 0 0 1-.25.61l-.16.11c-.66.15-1.3.33-1.94.51a.33.33 0 0 1-.44-.2 15.9 15.9 0 0 0 1.72-.7z"/><path class="cls-1" d="M74.45 46.35a15.9 15.9 0 0 1-1.72.7.4.4 0 0 1 .23-.57c.77-.31 1.56-.59 2.38-.84a.51.51 0 0 1 .18.38zM59.33 87.39a.09.09 0 0 0 0-.06c-.15-.18-.31-.36-.44-.53.06-.06.1 0 .18 0 1.21.66 3.59 4 5 3.28s2.56-1.77 3.95-2.52c2.35-1.3 4.56-2.76 7.28-3.12a.62.62 0 0 1 .2 0v.08c-.05.26-.1.49-.15.74-1.44 1.23-3.35 1.74-4.88 2.66-1.87 1.18-3.76 2.41-5.74 3.44-2.73 1.38-4.12-1.49-5.53-3.46a.3.3 0 0 0 .13-.51z"/><path class="cls-1" d="M74.73 45.53a.58.58 0 0 1 .56.13c-.82.25-1.61.53-2.38.84a.4.4 0 0 0-.23.57c-2.18.71-4.49 1-6.72 1.51-2.87.64-5.23 2.51-8 3.1-5.51 1.2-10.58-4-15.28-5.92A36.1 36.1 0 0 0 34.44 44a.65.65 0 0 0-.52-.1 21.33 21.33 0 0 1-3.84-.9 1.89 1.89 0 0 1 0-.41c6.46.85 12.15 1.85 17.84 5.18 2.28 1.33 5.62 3.56 8.28 3.23 4.56-.54 4.23-1.69 7.44-2.77a103.09 103.09 0 0 1 11.09-2.7z"/><path class="cls-1" d="M73.12 47.27c.64-.18 1.28-.36 1.94-.51-4.1 2.89-10 3.1-14.61 5.05a10.84 10.84 0 0 1-8 0c-4.23-1.33-7.36-5-11.74-6.08-.15 0-.28-.07-.44-.1a1.38 1.38 0 0 0-.07-.43.14.14 0 0 0-.21-.06 1 1 0 0 0-.3.36c-1.67-.36-3.36-.56-5-.87v-.23a.5.5 0 0 0-.2-.44 36.1 36.1 0 0 1 8.27 1.8c4.7 1.92 9.77 7.12 15.28 5.92 2.74-.59 5.1-2.46 8-3.1 2.23-.49 4.54-.8 6.72-1.51a.33.33 0 0 0 .36.2zM70.73 106.35a2.42 2.42 0 0 1 0-.33 3 3 0 0 1 .36.18.31.31 0 0 1-.25.56l-.24-.07c.08-.11.11-.23.13-.34z"/><path class="cls-3" d="M70.47 87.92c1.54-1 3.44-1.43 4.75-2.64-1.31 7-3.21 13.79-4.44 20.74-3.07-1.61-5.61-2.56-9.15-2a38.57 38.57 0 0 0-8.3 2.41 10.4 10.4 0 0 1-.47-2.41h.06a.62.62 0 0 0-.11-.9 64.6 64.6 0 0 1 .67-7.67c.1-1.1.26-2.17.41-3.28a16.54 16.54 0 0 1 3.9-5.2q.51.47 1 .9a.35.35 0 0 0 .34.05c1.41 2 2.84 4.84 5.53 3.46 2.05-1.05 3.94-2.28 5.81-3.46z"/><path class="cls-1" d="M70.65 132.35l-.2-.21c.16-.23.54-.08.47.18l-.08.31z"/><path class="cls-1" d="M70.65 132.35l.21.23c-1.49 4.92-.39 10.56-3 15.15a.49.49 0 0 1-.84 0l-.39-.52v-.05l.24.15a.18.18 0 0 0 .3-.05 1 1 0 0 0 .29.21 2.75 2.75 0 0 0 .15-.36h.07v-.05c1.39-3 1.36-6.67 1.67-9.9.07-1 .61-1.77.74-2.71a4.47 4.47 0 0 1 .56-2.1zM70.78 106a2.42 2.42 0 0 0 0 .33c-1.89-.64-3.54-1.87-5.69-2a17 17 0 0 0-6.41 1.23c-1.64.57-3.51 1-5.3 1.52a.32.32 0 0 0 .07-.34l-.07-.25a38.57 38.57 0 0 1 8.3-2.41c3.49-.62 6.03.33 9.1 1.92z"/><path class="cls-1" d="M70.73 106.35c0 .11 0 .23-.08.34-1.46-.44-3-1.44-4.43-1.69-2.69-.47-5 .3-7.46 1-3 1-6.54 1.38-9.18 3.3l-.15-.38a.22.22 0 0 0-.13-.1 14.16 14.16 0 0 1 3.77-1.75.51.51 0 0 0 .26-.07c1.79-.57 3.66-1 5.3-1.52A17 17 0 0 1 65 104.3c2.19.18 3.84 1.41 5.73 2.05z"/><path class="cls-7" d="M70.65 106.69c-.07.46-.15.94-.23 1.41-.23 1.53-.43 3.1-.61 4.64-5.74-4.77-11.1.07-17.18 2.12a24.81 24.81 0 0 1-1.71-2.43c-.54-1-.9-2.05-1.34-3.08 2.64-1.92 6.13-2.33 9.18-3.3 2.46-.75 4.77-1.52 7.46-1 1.44.2 2.97 1.2 4.43 1.64z"/><path class="cls-1" d="M70.45 132.14l.2.21a4.47 4.47 0 0 0-.56 2.05c-.13.94-.67 1.76-.74 2.71-.31 3.23-.28 6.87-1.67 9.9-.13-.13-.29-.23-.44-.36 1.15-3.92.79-8.54 2.18-12.38a1.89 1.89 0 0 0 .51-.26.34.34 0 0 0-.08-.61 8 8 0 0 1 .6-1.26zM70.45 113.3a.71.71 0 0 1-.21 1.15c.05-.41.11-.79.16-1.2z"/><path class="cls-3" d="M68.89 130.45c.53.56 1 1.13 1.56 1.69a8 8 0 0 0-.67 1.26c-1.43-.41-3.25-.05-4.74 0a36.19 36.19 0 0 0-6.25 1.16c-.26-.52-.49-1-.72-1.47a41.39 41.39 0 0 1-3.77-11.89.54.54 0 0 0-.1-.74c-.23-1.62-.43-3.28-.56-5 1.48-.15 2.92-1.1 4.33-1.67 4.25-1.74 7.72-3.25 11.48.46a.46.46 0 0 0 .21.13c-.54 5.16-.79 10.31-1.08 15.51a.9.9 0 0 0 0 .23c-.08.3.12.38.31.33z"/><path class="cls-1" d="M69.71 113.61a8 8 0 0 1 .1-.84c.2.15.38.33.59.51-.05.41-.11.79-.16 1.2a.56.56 0 0 1-.61 0 8 8 0 0 1 .08-.87z"/><path class="cls-1" d="M70.24 114.45c-.15 1-.28 2-.41 3-.51 4-.41 8.07-.94 12.12a.38.38 0 0 0-.34.36c.29-5.2.54-10.35 1.08-15.51a.56.56 0 0 0 .61.03zM69.63 133.73a.77.77 0 0 1 .15-.33.34.34 0 0 1 .08.61 1.89 1.89 0 0 1-.51.26zM69.81 112.74a8 8 0 0 0-.1.84 7.54 7.54 0 0 0-7.41-2.2c-2 .64-3.77 1.59-5.64 2.36-.95.35-2.08 1.1-3.15 1.38a.43.43 0 0 0-.72 0l-.16-.26c6.08-2.05 11.44-6.86 17.18-2.12z"/><path class="cls-1" d="M69.78 133.4a.77.77 0 0 0-.15.33A38.39 38.39 0 0 1 65 134a58.06 58.06 0 0 0-6 1.1 4.77 4.77 0 0 1-.25-.51 36.19 36.19 0 0 1 6.25-1.17c1.53-.07 3.35-.42 4.78-.02zM69.71 113.58a8 8 0 0 0-.08.84.46.46 0 0 1-.21-.13c-3.76-3.71-7.23-2.2-11.48-.46-1.41.57-2.85 1.52-4.33 1.67a.51.51 0 0 1 0-.21.29.29 0 0 0-.07-.2c1.07-.28 2.2-1 3.15-1.38 1.87-.77 3.66-1.72 5.64-2.36a7.54 7.54 0 0 1 7.38 2.23z"/><path class="cls-1" d="M69.63 133.73l-.23.54c-1.31.54-3 .2-4.36.31-2 .12-3.84.74-5.77 1a4.93 4.93 0 0 1-.23-.46 58.06 58.06 0 0 1 6-1.1 38.39 38.39 0 0 0 4.59-.29zM69 130a.72.72 0 0 1-.2.18c0-.2 0-.38.08-.59a.31.31 0 0 1 .2.05 1.61 1.61 0 0 1 .33.23 1.73 1.73 0 0 1-.23.29.67.67 0 0 0-.18-.16z"/><path class="cls-1" d="M69 130a.67.67 0 0 1 .18.16c0 .05-.07.1-.12.15a.36.36 0 0 1-.18.13l-.24-.26a.46.46 0 0 1-.1-.23.38.38 0 0 1 .34-.36c0 .21 0 .39-.08.59a.72.72 0 0 0 .2-.18z"/><path class="cls-1" d="M68.65 130.19l.24.26c-.19.05-.39 0-.36-.26a.9.9 0 0 1 0-.23.46.46 0 0 0 .12.23z"/><path class="cls-3" d="M69.4 134.27c-1.39 3.84-1 8.46-2.18 12.38a.3.3 0 0 0-.36 0c-3.28-2.56-5.64-7.1-7.59-11.1 1.93-.23 3.8-.85 5.77-1 1.38-.08 3.05.26 4.36-.28z"/><path class="cls-1" d="M67.73 147.06h-.07v-.07zM67.66 147v.07l-.44.15a.23.23 0 0 0 0-.38.46.46 0 0 0 .08-.23c.07.17.23.27.36.39zM67.63 147.11a2.75 2.75 0 0 1-.15.36 1 1 0 0 1-.29-.21z"/><path class="cls-1" d="M67.14 146.88a.23.23 0 0 1 0 .38.31.31 0 0 0-.1-.12.64.64 0 0 0 .1-.26zM67.22 146.65a.46.46 0 0 1-.08.23c-.1-.08-.18-.16-.28-.23a.3.3 0 0 1 .36 0z"/><path class="cls-1" d="M67.09 147.14a.31.31 0 0 1 .1.12l-.17.08c-.02-.08.05-.13.07-.2z"/><path class="cls-1" d="M67.09 147.11c0 .07 0 .12-.07.2l.17-.08a.18.18 0 0 1-.3.05l-.24-.15a.27.27 0 0 1 0-.25.42.42 0 0 1 .23-.26c.1.07.18.15.28.23a.64.64 0 0 1-.07.26z"/><path class="cls-1" d="M66.63 146.91a.27.27 0 0 0 0 .25c-5.07-3.33-8-10-10.38-15.38a41.29 41.29 0 0 1-3-10.3l.1.07a.55.55 0 0 0 .44.06 46 46 0 0 0 4.51 13.22c-.18.31 0 .85.41.8.25.51.54 1.05.82 1.56 1.13 2 2.49 3.85 3.56 5.84a10.3 10.3 0 0 0 3.54 3.88z"/><path class="cls-1" d="M66.86 146.65a.42.42 0 0 0-.23.26 10.3 10.3 0 0 1-3.54-3.91c-1.07-2-2.43-3.84-3.56-5.84-.28-.51-.57-1.05-.82-1.56a4.68 4.68 0 0 0 .54-.08c1.97 4.03 4.33 8.57 7.61 11.13zM59.3 87.33a.09.09 0 0 1 0 .06.3.3 0 0 1-.13.51c-.16-.23-.34-.46-.49-.67a.25.25 0 0 1 .15-.43c.17.2.32.35.47.53z"/><path class="cls-1" d="M59 135.09a4.93 4.93 0 0 0 .23.46 4.68 4.68 0 0 1-.54.08 6.78 6.78 0 0 1-.41-.8.37.37 0 0 1 .28-.2 1.6 1.6 0 0 1 .21 0 4.77 4.77 0 0 0 .23.46zM59.2 87.9a.35.35 0 0 1-.34-.05q-.54-.43-1-.9a1 1 0 0 1 .18-.18s.1-.1.1-.15l.62.61c.1.21.24.44.44.67z"/><path class="cls-1" d="M58.07 133.11c.23.47.46.95.72 1.47a1.6 1.6 0 0 0-.21 0 .37.37 0 0 0-.28.2 46 46 0 0 1-4.51-13.22.65.65 0 0 0 .51-.39 41.39 41.39 0 0 0 3.77 11.94zM58.86 86.8a.25.25 0 0 0-.15.43l-.62-.61c.26-.36-.23-.82-.66-.7-.82-.87-1.62-1.74-2.41-2.64v-.33c0-.33-.39-.49-.65-.36a40.72 40.72 0 0 1-6-9.33.3.3 0 0 0 .08-.2 3.17 3.17 0 0 0 .44 0 125.47 125.47 0 0 0 9.97 13.74zM58.3 134.83a6.78 6.78 0 0 0 .41.8c-.44.05-.59-.49-.41-.8z"/><path class="cls-1" d="M57.43 85.92c.43-.12.92.34.66.7-.2-.23-.43-.47-.66-.7z"/><path class="cls-1" d="M57.38 86.59c-.13-.13-.26-.23-.39-.36a1.92 1.92 0 0 1 .23-.2.33.33 0 0 1 .21-.11c.23.23.46.47.66.7 0 0-.05.1-.1.15a1 1 0 0 0-.18.18c-.18-.13-.3-.26-.43-.36z"/><path class="cls-1" d="M57.38 86.59c.13.1.25.23.41.36a16.54 16.54 0 0 0-3.9 5.2c.08-.48.13-1 .21-1.43a16.1 16.1 0 0 1 3.28-4.13zM57.43 85.92a.33.33 0 0 0-.21.11 1.92 1.92 0 0 0-.23.2c-.69-.61-1.38-1.28-2.05-2 0-.31.05-.64.08-1 .79.95 1.59 1.82 2.41 2.69z"/><path class="cls-1" d="M57 86.23c.13.13.26.23.39.36a16.1 16.1 0 0 0-3.28 4.13c.07-.46.12-.93.2-1.39a14.29 14.29 0 0 1 2.69-3.1z"/><path class="cls-3" d="M54.94 84.26c.67.69 1.36 1.36 2.05 2a14.29 14.29 0 0 0-2.69 3.1c.26-1.72.49-3.36.64-5.1z"/><path class="cls-1" d="M54.4 82.59c.26-.13.67 0 .65.36v.33z"/><path class="cls-1" d="M54.53 83.82l-.41-.43a3.41 3.41 0 0 0 .1-.54.34.34 0 0 1 .18-.26l.62.69c0 .34-.05.67-.08 1-.13-.18-.28-.28-.41-.46z"/><path class="cls-1" d="M54.53 83.82c.13.16.28.28.41.44-.15 1.72-.38 3.38-.64 5.07-.26.41-.49.82-.74 1.23.36-2.23.71-4.48.97-6.74z"/><path class="cls-1" d="M54.12 83.39l.41.43c-.26 2.26-.61 4.51-1 6.74-.41.72-.8 1.46-1.18 2.18-.23.49.36 1 .74.75a47.31 47.31 0 0 0-.64 9.15v.36a.61.61 0 0 0-.44.18c-.12.1-.23.23-.35.31-1.05-6.31 1.49-14.41 2.46-20.1zM54.2 120.48a.54.54 0 0 1 .1.74c-.03-.22-.08-.49-.1-.74z"/><path class="cls-1" d="M54.3 89.33c-.08.46-.13.93-.2 1.39-.29.46-.54.89-.77 1.33.07-.51.15-1 .23-1.49.25-.41.44-.82.74-1.23zM53.69 120.94a4.34 4.34 0 0 1-.13-1 6.54 6.54 0 0 0 .61.57c0 .25.07.48.1.74a.65.65 0 0 1-.51.39 5.43 5.43 0 0 1-.07-.7zM54.4 82.59a.34.34 0 0 0-.18.26 3.41 3.41 0 0 1-.1.54 31.79 31.79 0 0 1-6.28-9.92H48a.41.41 0 0 0 .38-.21 40.72 40.72 0 0 0 6.02 9.33zM54.17 120.48a6.54 6.54 0 0 1-.61-.57 29.18 29.18 0 0 1-.36-4.33 2.08 2.08 0 0 0 .41 0c.13 1.62.33 3.28.56 4.9z"/><path class="cls-1" d="M54.1 90.72c-.08.46-.13 1-.21 1.43s-.41.75-.59 1.13a2 2 0 0 1-.18.21c.05-.49.13-.95.21-1.41.23-.47.48-.9.77-1.36z"/><path class="cls-3" d="M47.84 73.47a31.79 31.79 0 0 0 6.28 9.92c-1 5.69-3.51 13.79-2.43 20.07a44.16 44.16 0 0 1-12.64 8.28c-4.18 1.92-9 4.58-13.79 4.1a4.7 4.7 0 0 0-.18-.67.06.06 0 0 0 0-.08c-.21-7.2-4-14.94-5.31-22.06-1.56-8.34-4.36-16.41-6.46-24.61C9.16 52.29 5.62 36 1.68 19.82 8.47 27 14.62 35.76 20.18 43.73c2.39 3.46 5.26 6.13 8.18 9.13 2.41 2.48 4.51 5.38 7.38 7.35-.26.36-.51.72-.79 1.06-1.39 1.71-2.51 3.28-2.08 5.53s3.69 3.92 5.36 4.92c2.89 1.75 6.33 1.9 9.61 1.75z"/><path class="cls-1" d="M53.79 121.61a.55.55 0 0 1-.44-.06l-.1-.07c0-.36-.1-.7-.13-1a2.72 2.72 0 0 0 .57.49 5.43 5.43 0 0 0 .1.64zM53.3 93.28c.18-.38.39-.74.59-1.13-.15 1.11-.31 2.18-.41 3.28a64.6 64.6 0 0 0-.67 7.67.51.51 0 0 0-.33-.13v-.33a47.31 47.31 0 0 1 .64-9.15 2 2 0 0 0 .18-.21zM53.56 119.91a4.34 4.34 0 0 0 .13 1 2.72 2.72 0 0 1-.57-.49l-.12-1.04zM53.2 115.58a3.24 3.24 0 0 1-.44 0 .32.32 0 0 0 .08-.34 2 2 0 0 0 .67-.1.29.29 0 0 1 .07.2.51.51 0 0 0 0 .21 2.08 2.08 0 0 1-.38.03zM53.33 92.08c-.08.46-.16.92-.21 1.41-.38.23-1-.26-.74-.75.38-.72.77-1.46 1.18-2.18-.08.49-.16 1-.23 1.49z"/><path class="cls-1" d="M53.56 119.91l-.59-.53c-.13-1.26-.21-2.54-.23-3.8a3.24 3.24 0 0 0 .44 0 29.18 29.18 0 0 0 .38 4.33zM53 106.58a1.14 1.14 0 0 1 .34-.12l.07.25a.32.32 0 0 1-.07.34.51.51 0 0 1-.26.07.29.29 0 0 1-.26-.15c-.05-.08-.07-.18-.13-.26a2.58 2.58 0 0 1 .31-.13z"/><path class="cls-1" d="M53.33 106.46a1.14 1.14 0 0 0-.34.12 5.11 5.11 0 0 1-.46-2.12 2.58 2.58 0 0 0 .33-.41 10.4 10.4 0 0 0 .47 2.41zM52.79 115.12a.43.43 0 0 1 .72 0 2 2 0 0 1-.67.1v-.07c0-.07-.03-.03-.05-.03zM53.12 120.45c0 .33.08.67.13 1-1.9-1.26-3.41-3.75-4.67-5.57-1.1-1.56-3-3.66-3.2-5.66l.46-.26c-.18 1.04 5.08 8.36 7.28 10.49zM52.81 103.1a.62.62 0 0 1 .11.9h-.06c-.02-.26-.05-.59-.05-.9z"/><path class="cls-1" d="M53 119.38l.15 1.07c-2.2-2.13-7.46-9.46-7.28-10.46a1.47 1.47 0 0 0 .28-.16c.05 0 .05.06.08.08a30.17 30.17 0 0 0 3.51 5.36 45.44 45.44 0 0 0 3.26 4.11zM53 106.58a2.58 2.58 0 0 0-.31.13 9.71 9.71 0 0 1-.61-1.69c.15-.18.31-.36.46-.56a5.11 5.11 0 0 0 .46 2.12zM52.81 107a.29.29 0 0 0 .26.15 14.16 14.16 0 0 0-3.77 1.75.27.27 0 0 0-.36.23 1.73 1.73 0 0 0 0 .38c-.36-.2-.54-.82 0-1 1.18-.59 2.43-1.18 3.76-1.72.04 0 .06.1.11.21zM52.86 104.05a2.58 2.58 0 0 1-.33.41c0-.54 0-1-.05-1.49a.51.51 0 0 1 .33.13c0 .31.03.64.05.95zM52.84 115.22a.32.32 0 0 1-.08.34v-.31a.14.14 0 0 0 .08-.03zM52.81 115.15v.07a.14.14 0 0 1-.1 0 .69.69 0 0 1 0-.13l.1.06z"/><path class="cls-7" d="M52.74 115.58c0 1.26.1 2.54.23 3.8a45.44 45.44 0 0 1-3.26-4.13 30.17 30.17 0 0 1-3.51-5.36l-.08-.08c-.08-.08 0 0 0 0a26 26 0 0 0 6-4.77 9.71 9.71 0 0 0 .61 1.69c-1.33.54-2.58 1.13-3.76 1.72-.49.23-.31.85 0 1 .23 2.1 1.25 5.72 3.43 6.18a.42.42 0 0 0 .34-.05z"/><path class="cls-1" d="M52.74 115.25v.31a.43.43 0 0 1-.16 0 .33.33 0 0 1-.3-.41c0-.11.07-.18.23-.23l.12-.06.16.26a.69.69 0 0 0-.05.13z"/><path class="cls-1" d="M52.74 115.56a.42.42 0 0 1-.34.08c-2.18-.46-3.2-4.08-3.43-6.18a.39.39 0 0 0 .33 0c.46 1.89 1.44 4.48 3 5.64a.33.33 0 0 0 .3.41.43.43 0 0 0 .14.05z"/><path class="cls-1" d="M52.63 114.86l-.12.06c-.16 0-.23.12-.23.23-1.54-1.16-2.52-3.75-3-5.64a.23.23 0 0 0 .18-.08s.08-.05.1-.08c.44 1 .8 2.1 1.34 3.08a24.81 24.81 0 0 0 1.73 2.43zM51.87 104.25a6.1 6.1 0 0 1-.18-.79c.12-.08.23-.21.35-.31a.61.61 0 0 1 .44-.18c0 .44 0 1 .05 1.49-.15.2-.31.38-.46.56a7.27 7.27 0 0 1-.2-.77z"/><path class="cls-1" d="M51.87 104.25a7.27 7.27 0 0 0 .2.77 26 26 0 0 1-6 4.77.46.46 0 0 0-.76.33.3.3 0 0 0 0 .13 79.71 79.71 0 0 1-7.82 3.84c-3.43 1.52-8.07 4-11.94 2.9a.42.42 0 0 0 .38-.43c4 .58 12-3.54 15.25-5a33 33 0 0 0 10.69-7.31z"/><path class="cls-1" d="M51.69 103.46a6.1 6.1 0 0 0 .18.79 33 33 0 0 1-10.62 7.33C38 113 30 117.14 26 116.56v-.21a.43.43 0 0 0-.69-.36.88.88 0 0 1 0-.15c4.77.48 9.61-2.18 13.79-4.1a44.16 44.16 0 0 0 12.59-8.28zM50.22 56.14c.11 2 0 4.25-1.35 5.82a.59.59 0 0 1-.72.1 1.81 1.81 0 0 1-.67-.72.47.47 0 0 0 .16.1c.12.06.23-.07.12-.17a.52.52 0 0 1-.07-.11v-.36a1.4 1.4 0 0 0 .77.72c1.89-1.31 1.89-10.4-1.16-9.28-2.43.72-1.33 7.08.06 8.8v.05a.82.82 0 0 0 .1.25c-2.49-1.41-3.56-9.84.46-9.58 1.87.1 2.23 3.07 2.3 4.38z"/><path class="cls-1" d="M47.69 60.8v.36a1.83 1.83 0 0 1-.31-.59.37.37 0 0 1 .62-.07c.67.59.77-.29 1-1a12.58 12.58 0 0 0 .33-2.59c0-.77 0-4.77-1.61-4.28-1.85.61-1.34 3.71-1 5.17a14.26 14.26 0 0 0 .77 2.82.33.33 0 0 0-.08.31s0 .1.06.16c-1.47-1.77-2.6-8.09-.17-8.85 3.05-1.12 3.05 8 1.16 9.28a1.4 1.4 0 0 1-.77-.72zM49.3 109.51a.39.39 0 0 1-.33 0 1.73 1.73 0 0 1 0-.38.27.27 0 0 1 .36-.23.22.22 0 0 1 .13.1l.15.38s-.07.05-.1.08a.23.23 0 0 1-.21.05z"/><path class="cls-1" d="M49.25 56.86a12.58 12.58 0 0 1-.33 2.59c-.18.76-.28 1.64-1 1a.37.37 0 0 0-.59.07 14.26 14.26 0 0 1-.77-2.82c-.31-1.46-.82-4.56 1-5.17 1.67-.44 1.69 3.56 1.69 4.33zM48.71 72.83c0 .07.1.18.16.25a3.17 3.17 0 0 1-.44 0 .52.52 0 0 0-.08-.26 1.31 1.31 0 0 0 .34 0 .13.13 0 0 1 .02.01zM48.69 72.77a1.31 1.31 0 0 1-.34 0 .29.29 0 0 0-.18-.2.15.15 0 0 1 .11 0 .51.51 0 0 1 .41.2z"/><path class="cls-1" d="M47.74 73a.2.2 0 0 1 .08-.21h.53a.52.52 0 0 1 .08.26 5.78 5.78 0 0 1-.72 0z"/><path class="cls-1" d="M48.35 73.26a.41.41 0 0 1-.38.21h-.13a.89.89 0 0 1-.1-.23.51.51 0 0 1 0-.21 5.78 5.78 0 0 0 .72 0 .3.3 0 0 1-.11.23zM48.35 72.8h-.53a.43.43 0 0 1 .33-.2.29.29 0 0 1 .2.2zM48.28 72.57a.15.15 0 0 0-.11 0s.06-.03.11 0z"/><path class="cls-1" d="M47.82 72.8a.2.2 0 0 0-.08.21h-.08c-.2 0-.18-.36.08-.38h.41a.43.43 0 0 0-.33.17z"/><path class="cls-1" d="M37.54 58.93c-.07-.28-.18-.56-.28-.84a13.1 13.1 0 0 1 2.74-3 .43.43 0 0 1 .2-.09.41.41 0 0 0 .46.15.57.57 0 0 1 0 .85c-1.8 1.61-7.79 9-5.1 11.53 3.59 3.33 7.64 4.36 12.38 5a.19.19 0 0 1 .13 0h-.41c-.26 0-.28.33-.08.38a31.3 31.3 0 0 1-4.58-.39 15.61 15.61 0 0 1-8.77-5.15c-2-2.31 1-5 2.36-6.9a.36.36 0 0 1 .08-.13 1.35 1.35 0 0 0 .18-.26.71.71 0 0 0 .77-1 .41.41 0 0 1-.08-.15z"/><path class="cls-1" d="M47.84 73.47c-3.28.15-6.72 0-9.61-1.75-1.67-1-4.95-2.82-5.36-4.92s.69-3.8 2.13-5.53c.28-.34.53-.7.79-1.06a3.27 3.27 0 0 0 .39.29.34.34 0 0 0 .43 0c-1.31 1.9-4.35 4.59-2.36 6.9A15.61 15.61 0 0 0 43 72.52a31.3 31.3 0 0 0 4.64.46.51.51 0 0 0 0 .21.89.89 0 0 0 .2.28zM47.76 61.27c.11.1 0 .23-.12.17a.47.47 0 0 1-.16-.1.82.82 0 0 1-.1-.25 1.36 1.36 0 0 0 .31.25v-.18a.52.52 0 0 0 .07.11zM47.74 73z"/><path class="cls-1" d="M47.69 61.16v.18a1.36 1.36 0 0 1-.31-.25v-.05c0-.05 0-.11-.06-.16a.33.33 0 0 1 .08-.31 1.83 1.83 0 0 0 .29.59zM45.84 110l-.46.26a.3.3 0 0 1 0-.13.46.46 0 0 1 .76-.33 1.47 1.47 0 0 1-.3.2zM40 45.63a1.57 1.57 0 0 1 .3 0 8.34 8.34 0 0 1-.07 1.56 20.11 20.11 0 0 0 .07 2.8c.21 1.59.52 3.18.7 4.77a.37.37 0 0 1-.29.38.46.46 0 0 0-.51-.14 11.36 11.36 0 0 1-1.13-5.54c0-1.07-.1-2.94.62-3.92a1.72 1.72 0 0 1 .31.09z"/><path class="cls-1" d="M40.66 55.19a.41.41 0 0 1-.46-.19.46.46 0 0 1 .46.19zM40 45.63a1.72 1.72 0 0 0-.28-.08 1 1 0 0 1 .3-.36.14.14 0 0 1 .21.06 1.38 1.38 0 0 1 .07.43 1.57 1.57 0 0 0-.3-.05z"/><path class="cls-4" d="M40.18 55a.43.43 0 0 0-.23.07 13.1 13.1 0 0 0-2.74 3 39.06 39.06 0 0 1-2.59-13.41c1.67.31 3.36.51 5 .87-.72 1-.6 2.85-.62 3.92A11.36 11.36 0 0 0 40.18 55z"/><path class="cls-1" d="M37.05 19.25l1.05-.43a8.81 8.81 0 0 0-.66.71 6.17 6.17 0 0 1-.65.29.49.49 0 0 1-.28-.34zM37.59 59.11a.71.71 0 0 1-.77 1c.23-.38.46-.74.69-1.13a.41.41 0 0 0 .08.13zM36.69 58.88c.18-.26.36-.54.54-.79.1.28.21.56.28.84-.23.39-.46.75-.69 1.13h-.21s0-.08-.1-.13a2.73 2.73 0 0 1-.33-.28c.18-.28.33-.51.51-.77z"/><path class="cls-1" d="M36.79 19.82a6.17 6.17 0 0 0 .65-.29 1.29 1.29 0 0 0-.19.21.37.37 0 0 1-.46.08zM36.82 60.06a1.35 1.35 0 0 1-.18.26.4.4 0 0 0 0-.28zM37.23 58.09c-.18.25-.36.53-.54.79-1.51-4.33-3.61-9.71-2.64-14.3.21 0 .39.08.59.1a39.06 39.06 0 0 0 2.59 13.41z"/><path class="cls-1" d="M36.69 58.88c-.18.26-.33.49-.51.72v-.05c-1.64-4.55-4.31-10.31-2.69-15.1a5.66 5.66 0 0 0 .56.13c-.97 4.59 1.13 9.97 2.64 14.3zM35.92 60l.23-.31a.81.81 0 0 0 .46.36.4.4 0 0 1 0 .28.36.36 0 0 0-.08.13.34.34 0 0 1-.43 0 3.27 3.27 0 0 1-.39-.29.76.76 0 0 0 .21-.17z"/><path class="cls-1" d="M36.51 59.88c.05 0 .1.08.1.13a.81.81 0 0 1-.46-.36 2.73 2.73 0 0 0 .36.23zM36.18 59.6a.1.1 0 0 1 0-.07c-.05.07-.03.07 0 .07z"/><path class="cls-1" d="M36.15 59.62l-.23.31c-.67-.51-1.74-1.74-2.25-2.21a54.78 54.78 0 0 1-4.82-5.35c-1.77-2-3.92-3.62-5.59-5.72-2.54-3.25-4.67-6.74-7.23-10-3-3.79-6.13-7.38-9.1-11.15-1.74-2.18-3.36-4.79-5.48-6.74a7.74 7.74 0 0 1-.18-.77.44.44 0 0 1 .15.1C8 24.23 14 32.3 19.13 39.63c3.1 4.44 6.77 8.13 10.18 12.28 2.1 2.56 4.15 5.56 6.79 7.61a.1.1 0 0 0 .05.1z"/><path class="cls-1" d="M35.92 60a.76.76 0 0 1-.18.25c-2.87-2-5-4.87-7.38-7.35-2.92-3-5.79-5.67-8.18-9.13C14.62 35.76 8.47 27 1.68 19.82c-.08-.34-.16-.67-.23-1 2.12 1.95 3.74 4.56 5.48 6.74 3 3.77 6.15 7.36 9.1 11.15 2.56 3.23 4.69 6.72 7.23 10 1.67 2.1 3.82 3.69 5.59 5.72a54.78 54.78 0 0 0 4.82 5.35c.51.44 1.58 1.67 2.25 2.22zM34.72 20.92a.26.26 0 0 1-.21-.1 1.23 1.23 0 0 1 .33-.23.18.18 0 0 1 .26.2.93.93 0 0 1-.26.1.18.18 0 0 1-.12.03z"/><path class="cls-1" d="M34.84 20.89a.93.93 0 0 0 .26-.1v.08c-5.7 5.28-5.59 14.58-5 21.76a2.23 2.23 0 0 1-.36-.05c-1.43-5.69.06-18.15 5-21.66a.18.18 0 0 0 .1-.03zM34.05 44.58a5.66 5.66 0 0 1-.56-.13.46.46 0 0 1 0-.2.73.73 0 0 1 .36-.39 3.64 3.64 0 0 0 .52.1.5.5 0 0 1 .2.44v.28c-.13-.02-.31-.08-.52-.1z"/><path class="cls-1" d="M34.51 20.82a.26.26 0 0 0 .21.1c-5 3.51-6.46 16-5 21.66h-.05a.49.49 0 0 0-.26.1c-2.54-6.05-.61-18.15 5.1-21.86zM34.44 44a3.64 3.64 0 0 1-.52-.1.65.65 0 0 1 .52.1zM33.9 43.86a.73.73 0 0 0-.36.39.46.46 0 0 0 0 .2 19 19 0 0 1-3.64-1.1c.13 0 .25-.1.23-.26V43a21.33 21.33 0 0 0 3.77.86z"/><path class="cls-1" d="M29.8 43l.28.08v.05c0 .16-.1.23-.23.26l-.15-.08-.05-.05-.24-.54a.49.49 0 0 1 .26-.1h.05a2.38 2.38 0 0 0 .08.38z"/><path class="cls-1" d="M30.05 42.63a1.89 1.89 0 0 0 0 .41L29.8 43a2.38 2.38 0 0 1-.11-.38 2.23 2.23 0 0 0 .36.01zM29.67 43.27l.15.08a.18.18 0 0 1-.15-.08zM29.67 43.27a1.8 1.8 0 0 1-.21-.08c-.18-.07-.18-.33-.08-.51l.24.54zM25.51 116.43a.14.14 0 0 1-.1 0c0-.13-.08-.28-.1-.41a.43.43 0 0 1 .69.36v.21a3.51 3.51 0 0 1-.49-.16z"/><path class="cls-1" d="M25.1 116.32a.39.39 0 0 1 .21-.33c0 .13.08.28.1.41s0 .08 0 .1c.18.24.1 0 .07-.07a3.51 3.51 0 0 0 .49.13.42.42 0 0 1-.38.43l-.46-.15a3.21 3.21 0 0 1-.36-.51.38.38 0 0 1 .33-.41z"/><path class="cls-1" d="M25.16 116.84l.46.15a.42.42 0 0 1-.31 0 .65.65 0 0 1-.15-.15zM25.51 116.43c0 .1.11.31-.07.07v-.1a.14.14 0 0 0 .07.03zM25.26 115.84a.88.88 0 0 0 0 .15.39.39 0 0 0-.21.33v-.48h.16zM25.13 116.81a.53.53 0 0 1-.33-.51 3.21 3.21 0 0 0 .33.51zM.81 18.1a.44.44 0 0 0-.06.69 2.09 2.09 0 0 1 .29.31c2.4 10.58 5 21.09 7.4 31.65 1.51 6.69 3 13.41 4.77 20 1.62 6.07 3.54 12.09 5.08 18.22 1.2 4.72 1.77 9.9 3.33 14.46 1.31 3.82 2.41 7.66 3.46 11.58a.06.06 0 0 1 0 .08v.67a.38.38 0 0 0-.33.41 25.23 25.23 0 0 1-1-4c-1.23-4.2-2.9-8.36-3.85-12.64-2-8.89-4.38-17.53-6.79-26.32C8.14 55.14 4.29 36.56.34 18.15c-.13-.59.75-.82.88-.25v.15a.41.41 0 0 0-.41.05z"/><path class="cls-1" d="M25.08 115.09c-1-3.92-2.15-7.76-3.46-11.58-1.56-4.56-2.13-9.74-3.33-14.46-1.54-6.13-3.46-12.15-5.08-18.22-1.77-6.64-3.26-13.36-4.77-20-2.36-10.61-5-21.12-7.44-31.7a8.05 8.05 0 0 1 .64.69C5.62 36 9.16 52.29 13.31 68.42c2.1 8.2 4.9 16.27 6.46 24.61 1.34 7.12 5.1 14.86 5.31 22.06z"/><path class="cls-1" d="M1.45 18.82c.07.33.15.66.23 1a8.05 8.05 0 0 0-.68-.69c-.08-.34-.16-.67-.23-1a.41.41 0 0 1 .43-.05 7.74 7.74 0 0 0 .25.74z"/><path class="cls-1" d="M1 19.13a2.09 2.09 0 0 0-.29-.31.44.44 0 0 1 .06-.69c.11.33.23.66.23 1z"/><path class="cls-8" d="M12.84 52.39c-1.47-2.51-4.19-10.48-2.1-12.79 3.15 2.1 4 10.07 3.15 13.42-.84 0-.63-.42-1.05-1"/><path class="cls-9" d="M12.84 52.39c-1.47-2.51-4.19-10.48-2.1-12.79 3.15 2.1 4 10.07 3.15 13.42-.84 0-.63-.42-1.05-1"/><path class="cls-8" d="M13.19 52.19a33.59 33.59 0 0 1-2.09-5.76 18.67 18.67 0 0 1-.59-3.64c0-.38-.12-3.11.72-2.3 1.83 1.76 2.25 5 2.48 7.36a20.83 20.83 0 0 1 0 3.16c-.08 1.38.19 1.48-.79.8a.19.19 0 0 0-.29.17c-.05.94.16 1.36 1.11 1.5a.48.48 0 0 0 .58-.33c.82-4.13.26-11-3.34-13.8a.36.36 0 0 0-.51 0c-2.72 3.31 0 10.14 2 13.25a.4.4 0 0 0 .69-.41zM78.29 96.44c-1.05-1.88.84-10.48 3.56-6.92 1.47 1.89-2.72 6.92-3.35 7.34"/><path class="cls-9" d="M78.29 96.44c-1.05-1.88.84-10.48 3.56-6.92 1.47 1.89-2.72 6.92-3.35 7.34"/><path class="cls-8" d="M78.86 96.44a26.94 26.94 0 0 1 0-3.59c.19-1.14.39-2.94 1.47-3.62.64-.4 1.22.87 1.24 1.3a4.87 4.87 0 0 1-.89 2.33 16 16 0 0 1-2.64 3.32.79.79 0 0 0 1.16 1.12 13.21 13.21 0 0 0 3.29-5.3c.53-1.6 0-3.6-1.95-3.8-1.6-.17-2.46 2.38-2.82 3.5-.42 1.3-1.1 4.3.28 5.24.37.27.84-.1.86-.5zM38.85 25.13c-1.05 0-.84-.84-.21-2.1 1-1.68 5.87-4 7.76-3.15 4.83 1.89-6.71 5.46-7.55 6.08"/><path class="cls-9" d="M38.85 25.13c-1.05 0-.84-.84-.21-2.1 1-1.68 5.87-4 7.76-3.15 4.83 1.89-6.71 5.46-7.55 6.08"/><path class="cls-8" d="M39.06 24.92c-1.67-1.72 3.81-4 4.77-4.32.78-.24 4.2-.39 2.6 1-2.17 1.91-5.33 2.17-7.74 3.59a.77.77 0 0 0-.34.83c.09-.41.09-.54 0-.36a.58.58 0 0 0 .49.86c.18 0 .08-.07-.31-.18a.7.7 0 0 0 .71.19c1.65-.61 10.66-3.59 8.69-6.36-1.67-2.34-5.6-.57-7.46.46a6 6 0 0 0-2.87 3.06c-.42 1 .18 2.45 1.39 1.67a.3.3 0 0 0 .06-.46zM64.44 7.93c-2.31-2.31 6.3-5 8.39-3.36-1.47 2.1-5.24 2.94-7.76 3.15"/><path class="cls-9" d="M64.44 7.93c-2.31-2.31 6.3-5 8.39-3.36-1.47 2.1-5.24 2.94-7.76 3.15"/><path class="cls-8" d="M64.57 7.85c-1.25-2.73 6.42-4 8-2.88 0-.24-.07-.49-.1-.73-1.8 2.25-5 2.49-7.58 2.94-.63.1-.47 1.11.15 1.1 2.89-.06 6.37-1.09 8.17-3.47a.47.47 0 0 0-.17-.64c-1.82-1.26-4.92-.4-6.75.4-1.09.48-4 2.24-1.95 3.49.13.08.26-.08.2-.21z"/><path class="cls-3" d="M51 24.5c-1 2.5-1.65 10.07.66 12.79"/><path class="cls-9" d="M51 24.5c-1 2.5-1.65 10.07.66 12.79"/><path class="cls-3" d="M49.76 24.5A25.9 25.9 0 0 1 49 28a23.19 23.19 0 0 0-.18 4.08c.07 2 .35 5.24 2.6 5.94a.76.76 0 0 0 .95-.73c0-1.94-1-3.84-1-5.84-.07-1.33-.4-5 .57-6.05 1.67-1.83-2.21-3.2-2.17-.9zM60.26 23c1.05 4.19-.84 9.65 1.26 13.84"/><path class="cls-9" d="M60.26 23c1.05 4.19-.84 9.65 1.26 13.84"/><path class="cls-3" d="M59.8 22.76c-.68.91-.49 1.62-.49 2.74 0 1.49-.13 3-.21 4.45-.14 2.46-.3 5.86 1.78 7.56a.91.91 0 0 0 1.54-.64 26.4 26.4 0 0 0-.5-4.22 42.22 42.22 0 0 1 0-4.5c0-1.79.39-4.56-1.39-5.58a.56.56 0 0 0-.73.19zM73.47 24.08c0 2.72-1.26 9.86.63 12.58"/><path class="cls-9" d="M73.47 24.08c0 2.72-1.26 9.86.63 12.58"/><path class="cls-3" d="M72.84 23.45c-1.26 1.51-1.07 5-1.18 6.92-.14 2.34-.39 5.79 2 7.12a1 1 0 0 0 1.44-.83c0-2.34-.59-4.59-.54-7 0-1.8.76-4.74-.42-6.25a.89.89 0 0 0-1.26 0zM61.1 76.1c0 2.93-.21 6.08.84 9"/><path class="cls-9" d="M61.1 76.1c0 2.93-.21 6.08.84 9"/><path class="cls-3" d="M60.42 75.91c-.51 3.11-.47 6.68.95 9.54.35.72 1.32.18 1.2-.51-.52-3-.34-6-.8-9a.7.7 0 0 0-1.35 0zM68 76.52a40.48 40.48 0 0 0 .21 7.13"/><path class="cls-9" d="M68 76.52a40.48 40.48 0 0 0 .21 7.13"/><path class="cls-3" d="M67.3 76.32c-.54 2.36-.87 5.49.32 7.68a.71.71 0 0 0 1.29-.16 17.49 17.49 0 0 0 .09-3.76 20.57 20.57 0 0 0-.28-3.76.75.75 0 0 0-1.44 0zM75.57 76.31c.42 1.47.21 3.77.84 5.45"/><path class="cls-9" d="M75.57 76.31c.42 1.47.21 3.77.84 5.45"/><path class="cls-3" d="M75 76c-.66.9-.25 2.77-.19 3.82 0 .83.47 2.84 1.75 2.48 1.07-.29.7-2.07.59-2.8-.16-1.11 0-3.17-1.23-3.74A.7.7 0 0 0 75 76z"/><path class="cls-9" d="M83.33 89.73c-.7 8.27-3.07 16.26-4.86 24.33-.86 3.9-2.14 8.34-2 12.37.09 2.71 1.94 4.4 3.53 6.52s3.34 4 5 5.87 3.28 5 6.21 4.36c3.29-.71 6.74-3.11 9.72-4.63 1.24-.62 4.19-1.77 5.06-2.72 1.11-1.23 1.17-4.7 1.5-6.31a140.75 140.75 0 0 0 2.25-15 73.4 73.4 0 0 1 1.51-9.86c.38-1.64 2.78-6.33 1.81-7.87s-6.83-1.87-8.57-2.25c-2.71-.59-5.49-.85-8.22-1.26a79 79 0 0 1-12.54-2.89"/><path class="cls-3" d="M82.79 89.58c-1.64 8.82-3.73 17.47-5.78 26.19-1.38 5.88-3 11.32 1 16.44 2.33 3 4.88 5.79 7.28 8.73 1 1.21 2.54 3.38 4.37 3.4 3.07 0 5.47-1.26 8.16-2.68s6.87-2.78 9.07-5c1.13-1.12 1.33-3.14 1.51-4.6.54-4.33 1.51-8.61 2.11-12.94.57-4.08.86-8.16 1.6-12.22.51-2.78 2.18-5.41 2.42-8.21.35-4-3.12-4.41-6.4-5C100 92.37 92 91.14 84 89.34a1.06 1.06 0 0 0-.56 2 62.7 62.7 0 0 0 14.88 3.49c1.85.24 14.29.73 13.3 4.77-2.49 10.15-4 20.3-5.49 30.7-.88 6-4.82 6.56-9.57 9.26-4.3 2.43-7.85 1.92-10.75-1.62-2.39-2.92-5-5.6-7.23-8.64-3.48-4.65 1.16-16.42 2.36-21.62 1.36-5.94 2.8-11.89 2.92-18 0-.62-1-.78-1.1-.15z"/><path class="cls-9" d="M80.39 110.29c2.94.63 10.07.84 14.27 1.68 4.19.63 9 2.3 13.21 2.51"/><path class="cls-3" d="M80.06 111.52c4.24.83 8.59 1 12.87 1.61 5 .69 9.91 2.9 14.94 2.5a1.15 1.15 0 0 0 .31-2.25c-9.13-2.5-18.2-2.86-27.45-4.32-1.59-.25-2.3 2.13-.67 2.46z"/><path class="cls-9" d="M95.71 93.93a210.21 210.21 0 0 1-1.26 25.8c-.84 5-1 10.07-1.68 15.1-.42 2.52-1.47 6.08-1.26 8"/><path class="cls-3" d="M94.93 93.93c-.89 9.32-.73 18.67-2.15 28-.52 3.45-.74 7-1.08 10.42s-1.61 6.95-1.51 10.49a1.32 1.32 0 0 0 2.64 0c.35-7.59 2.11-15.5 3-23.07a130.16 130.16 0 0 0 .71-25.8.78.78 0 0 0-1.56 0z"/><path class="cls-9" d="M24 50.09c0 6.92-1.89 14.26-7.13 19.09"/><path class="cls-7" d="M23.51 50.09C22.92 57.58 21 63 16.51 69c-.23.3.22.74.52.52 5.75-4.17 7.73-12.67 7.4-19.41a.46.46 0 0 0-.92 0z"/><path class="cls-9" d="M26.28 59.74c-.84 3.77-1.68 8.18-4.62 10.69"/><path class="cls-7" d="M25.89 59.63c-.68 1.77-1 3.66-1.67 5.45a22.4 22.4 0 0 1-2.88 5.17c-.21.32.2.68.51.51 3.48-2 4.57-7.33 4.83-11 0-.49-.64-.5-.79-.11z"/><path class="cls-9" d="M36.56 71.9c-.84 8.39-6.72 19.93-13.85 24.75"/><path class="cls-7" d="M36.15 71.79C34.56 81 30 90.35 22.31 96c-.81.6 0 2 .8 1.37 7.77-5.61 13.11-16 13.87-25.44 0-.47-.75-.58-.83-.11z"/><path class="cls-9" d="M47.46 74.63C43.27 88.26 37 98.75 26.28 108.4"/><path class="cls-7" d="M47 74.5c-5.09 12.94-11.2 23.62-21.32 33.31-.79.75.39 1.9 1.19 1.19A68.14 68.14 0 0 0 48 74.77a.51.51 0 0 0-1-.27z"/><path class="cls-9" d="M43.27 93.72c-1.47 3.35-3.78 7.13-6.92 9.44"/><path class="cls-7" d="M42.89 93.5c-1.13 1.58-2 3.34-3.15 4.93s-3.05 2.8-3.83 4.48a.51.51 0 0 0 .57.73c1.85-.32 3.29-2.47 4.31-3.9a17 17 0 0 0 2.89-5.91.43.43 0 0 0-.79-.33z"/><path class="cls-9" d="M90.67 3.73a20.36 20.36 0 0 0-9.23 12.59"/><path class="cls-7" d="M90.49 3.41c-4.49 2.64-8.7 7.5-9.44 12.8a.41.41 0 0 0 .79.22c2-5.08 4.2-9.42 9-12.38a.37.37 0 0 0-.37-.64z"/><path class="cls-9" d="M98.44 6.67c.2 6.08-1.47 11.53-2.52 17.41"/><path class="cls-7" d="M98 6.67c-.26 5.95-1.89 11.53-2.55 17.41-.06.52.77.61.9.12 1.46-5.55 2.9-11.76 2.5-17.53a.43.43 0 0 0-.85 0z"/><path class="cls-9" d="M107.45 11.91c3.36 6.5 3.36 14.47 2.73 21.61"/><path class="cls-7" d="M107.12 12c3 7.18 2.5 14 2.53 21.52 0 .58.94.74 1 .14 1.2-7.11.52-15.52-2.93-21.93-.19-.34-.8-.1-.64.27z"/><path class="cls-9" d="M59.06 93c-.38 2.28-1.14 5.87.19 7.58"/><path class="cls-7" d="M58.74 92.88c-.52 2.32-1.62 5.9.35 7.82.15.15.46 0 .37-.21-1-2.33-.35-5.1-.07-7.52 0-.37-.57-.44-.65-.09z"/><path class="cls-9" d="M63.6 96.19a32.06 32.06 0 0 0 .19 4.17"/><path class="cls-7" d="M62.33 96.19c.15 1.46.1 3.32 1.22 4.41a.34.34 0 0 0 .53-.07c.78-1.21.65-3 .79-4.34.17-1.64-2.71-1.64-2.54 0z"/><path class="cls-9" d="M69.28 94.49a22.11 22.11 0 0 1-.37 6.06"/><path class="cls-7" d="M68.34 94.49a21.87 21.87 0 0 1 0 3 7.12 7.12 0 0 0 .1 3.15.45.45 0 0 0 .75.2c1.43-1.51 1.17-4.48 1-6.38-.1-1.2-2-1.21-1.88 0z"/><path class="cls-9" d="M57.73 118c-.76 3.4 1.32 9.66 3.22 12.69"/><path class="cls-7" d="M57.28 117.85c-1.33 4 .93 9.83 3.22 13.08a.52.52 0 0 0 .9-.53 26.18 26.18 0 0 1-3.2-12.4.47.47 0 0 0-.92-.13z"/><path class="cls-9" d="M62.84 120.06c.57 1.89.76 3.79 1.71 5.68"/><path class="cls-7" d="M62 120.29c.59 2 .76 4.16 2.28 5.71a.38.38 0 0 0 .64-.26 37.4 37.4 0 0 0-1.24-5.91.87.87 0 0 0-1.68.46z"/></g></g></svg>