<svg xmlns="http://www.w3.org/2000/svg" xmlns:xlink="http://www.w3.org/1999/xlink" viewBox="0 0 972 972"><defs><style>.cls-1,.cls-18,.cls-24,.cls-26,.cls-4{fill:#fff;}.cls-1,.cls-11,.cls-14,.cls-15,.cls-17,.cls-18,.cls-19,.cls-2,.cls-20,.cls-21,.cls-23,.cls-24,.cls-25,.cls-26,.cls-5,.cls-6,.cls-9{stroke:#000;}.cls-1,.cls-11,.cls-14,.cls-15,.cls-19,.cls-2,.cls-20,.cls-21,.cls-23,.cls-26,.cls-5,.cls-6{stroke-miterlimit:10;}.cls-1,.cls-19,.cls-20,.cls-21{stroke-width:5px;}.cls-2{fill:#404040;}.cls-2,.cls-6{stroke-width:6px;}.cls-3{fill:#c181d7;}.cls-11,.cls-16,.cls-5{fill:#fae7e1;}.cls-11,.cls-14,.cls-15,.cls-17,.cls-18,.cls-21,.cls-23,.cls-24,.cls-25,.cls-5,.cls-9{stroke-linecap:round;}.cls-15,.cls-17,.cls-18,.cls-5,.cls-9{stroke-width:7px;}.cls-6,.cls-7{fill:#db3a4b;}.cls-8{fill:#cc926f;}.cls-9{fill:#3c210c;}.cls-17,.cls-18,.cls-24,.cls-25,.cls-9{stroke-linejoin:round;}.cls-10,.cls-25{fill:#fd0;}.cls-11,.cls-14{stroke-width:10px;}.cls-12{fill:#4c82e5;}.cls-13{fill:#7e4b5e;}.cls-15,.cls-20,.cls-21,.cls-23{fill:none;}.cls-17{fill:#f6e2db;}.cls-19{fill:#a4633c;}.cls-22{clip-path:url(#clip-path);}.cls-23,.cls-25{stroke-width:3px;}.cls-24{stroke-width:3.86px;}.cls-26{opacity:0;}</style><clipPath id="clip-path"><path id="SVGID" class="cls-1" d="M571.5,702.5s7-26,14-30,11-2,11-2,5-15,15-21,22-3,22-3,19-16,27-19,15,3,15,3,43,17,47,22,4,17,4,18,19,22,20,24,0,18,0,18,9,18,10,23-12,19-12,19-23-5-41,0-36,16-44,16-22-7-23-9,5-13,3-19-16-16-20-15-7,11-13,15-26,7-30,4-2-10,1-14,12-9,12-15S582.5,701.5,571.5,702.5Z"/></clipPath></defs><title>cha_202</title><g id="レイヤー_2" data-name="レイヤー 2"><g id="レイヤー_18" data-name="レイヤー 18"><g id="レイヤー_16" data-name="レイヤー 16"><g id="レイヤー_19" data-name="レイヤー 19"><path class="cls-2" d="M695,544s-52,30-78,40-61,1-59,0,.5-69,.5-69H584Z"/><path class="cls-3" d="M379.5,665.5l-38,40,17,33s74,4,136-10,154-69,154-69v-24l-46-13"/><path d="M379.5,665.5q-9.18,10.31-18.43,20.54l-18.56,20.42.23-1.6,17.56,32.71-1.69-1.09c12.65.4,25.4.32,38.08-.08s25.39-1,38-2.11,25.24-2.58,37.74-4.59l9.35-1.62,9.27-1.92c3.12-.57,6.12-1.48,9.17-2.24l4.57-1.17c1.52-.38,3-.91,4.53-1.36,24.16-7.33,47.52-17.52,70.53-28.26,11.46-5.49,22.89-11.08,34.18-17q8.46-4.39,16.86-8.93c5.6-3,11.21-6.06,16.71-9.2l-.83,1.45q.19-12,.46-24l.9,1.19-22.85-7L613.9,626.1l-11.4-3.6,11.6,2.9,11.59,2.93,23.15,6,.88.22,0,1q.27,12,.46,24v.94l-.84.52c-10.92,6.69-22,13-33.19,19.2s-22.53,12.07-34,17.72c-5.75,2.79-11.5,5.6-17.34,8.23s-11.68,5.24-17.57,7.76c-3,1.26-6,2.39-8.93,3.59s-6,2.39-9,3.44l-9.06,3.27-9.21,2.92a265.08,265.08,0,0,1-37.69,8.4q-19,2.94-38.22,4.34a614.53,614.53,0,0,1-76.77.69l-1.18-.06-.51-1-16.44-33.29-.45-.91.68-.69L359.93,685Q369.67,675.18,379.5,665.5Z"/><path class="cls-4" d="M533,506.5s35,9,39,20,16,58,16,58,7,17,10,21,10,11,10,14-41,56-108,63S363,671,361,671s24-33.5,22-40.5-3-68-9-77,27-27,27-27Z"/><path d="M533,506l.12,0h.08l.1,0,.2.05.4.1.8.19,1.6.41,3.18.85c2.11.59,4.22,1.21,6.32,1.88a122.57,122.57,0,0,1,12.39,4.64,46.78,46.78,0,0,1,11.6,6.88,15.24,15.24,0,0,1,2.45,2.66,10.76,10.76,0,0,1,1,1.65c.3.65.44,1.12.64,1.66.4,1.05.76,2.1,1.1,3.14s.7,2.09,1,3.14c2.71,8.37,5.1,16.79,7.53,25.21s4.78,16.85,7.07,25.31l-.12-.37c1.94,4.49,4,9,6.11,13.35,1.07,2.15,2.2,4.36,3.36,6.2a26.87,26.87,0,0,0,2.06,2.57l2.42,2.78a63.54,63.54,0,0,1,4.87,6.12,17.18,17.18,0,0,1,1.15,2,9.17,9.17,0,0,1,.52,1.34,6.06,6.06,0,0,1,.2.88c0,.16,0,.37.06.55s0,.13,0,.35a4,4,0,0,1-.1.75,5,5,0,0,1-.38,1.1c-.11.24-.21.43-.31.61-.19.36-.38.68-.57,1-.37.6-.75,1.16-1.13,1.7a109.42,109.42,0,0,1-9.85,11.74,169.06,169.06,0,0,1-22.75,19.94,172.25,172.25,0,0,1-25.9,15.73,151.47,151.47,0,0,1-28.48,10.63,146.11,146.11,0,0,1-14.94,3.1c-2.51.38-5.06.71-7.56,1s-5,.51-7.5.67c-20,1.58-40.06.94-59.93-.81a495.73,495.73,0,0,1-59.06-9.1l-7.28-1.6-3.6-.81-.85-.19-.39-.08.16,0h.1c.36-.09-.07.28-2-.53a4.07,4.07,0,0,1-2-3.13,4.41,4.41,0,0,1,.06-1.18c0-.21.09-.4.12-.51l.12-.34a8,8,0,0,1,.34-.8c.21-.41.39-.73.57-1,1.41-2.38,2.78-4.36,4.17-6.44l4.14-6.14c2.74-4.08,5.42-8.17,7.88-12.31,1.22-2.07,2.39-4.16,3.39-6.23a27.47,27.47,0,0,0,1.26-3,10.55,10.55,0,0,0,.38-1.31c.08-.36.06-.69.08-.54l0,.09s0-.06,0-.11l0-.17c-.06-.24-.1-.43-.14-.62-.08-.39-.13-.74-.18-1.09-.11-.68-.18-1.33-.25-2-.14-1.28-.24-2.54-.34-3.79-.2-2.5-.35-5-.5-7.46l-.86-14.81c-.57-9.84-1.15-19.69-2.21-29.4-.26-2.42-.57-4.83-.93-7.21a61.86,61.86,0,0,0-1.41-6.9c-.15-.53-.31-1.06-.49-1.53a8,8,0,0,0-.54-1.18l-.28-.47a5,5,0,0,1-.35-.69,6.46,6.46,0,0,1-.47-1.49,7.65,7.65,0,0,1,0-2.94,12.25,12.25,0,0,1,1.88-4.42,25.53,25.53,0,0,1,2.58-3.29,71.33,71.33,0,0,1,11.92-9.8c4.19-2.84,8.44-5.43,12.9-7.87l.41-.22.43-.06,33.17-4.59,33.13-4.56L500,510.37Zm-.06,1-33,5.63-32.92,5.54-32.87,5.44L401.38,529l.84-.28c-4.17,2.38-8.33,5-12.26,7.81a65.86,65.86,0,0,0-10.79,9.18,20.92,20.92,0,0,0-1.95,2.56,6.84,6.84,0,0,0-1,2.36,2,2,0,0,0,0,.74.88.88,0,0,0,.1.27.42.42,0,0,0,.07.13l.2.33a12.5,12.5,0,0,1,1.06,2.15c.28.68.49,1.33.69,2a64.73,64.73,0,0,1,1.71,7.59c.44,2.5.8,5,1.12,7.47,1.26,9.93,2.05,19.82,2.8,29.7L385,615.79c.18,2.45.37,4.9.6,7.33.11,1.21.23,2.41.37,3.58.07.58.14,1.16.23,1.7,0,.27.09.52.14.74l.23,1a8.86,8.86,0,0,1-.07,3.15,17.59,17.59,0,0,1-.6,2.26,34.34,34.34,0,0,1-1.54,3.83c-1.11,2.4-2.34,4.65-3.6,6.85-2.53,4.39-5.23,8.6-7.94,12.77l-4.07,6.21c-1.33,2-2.74,4.15-3.82,6a5.9,5.9,0,0,0-.31.59c0,.06-.06.13,0,0l0-.12a2,2,0,0,0,.07-.29,3.11,3.11,0,0,0,0-.94,3.85,3.85,0,0,0-1.9-2.94c-1.82-.77-2.17-.41-1.72-.49l.32,0,.61.08.52.1,1,.2,3.65.77,7.21,1.49a547.76,547.76,0,0,0,58.2,8.4,379.17,379.17,0,0,0,58.55.81c2.43-.13,4.85-.39,7.27-.59s4.78-.51,7.16-.85a139.19,139.19,0,0,0,14.11-2.82,150.94,150.94,0,0,0,27.09-9.8,170.15,170.15,0,0,0,47.12-33.31,104.08,104.08,0,0,0,9.45-10.74c.34-.46.67-.93,1-1.37l.38-.61.11-.22s0-.09-.06.25a2.43,2.43,0,0,0-.06.51v.12a.78.78,0,0,0,0,.09s0,0,0,0a4.14,4.14,0,0,0-.14-.39,10.67,10.67,0,0,0-.68-1.23,60.63,60.63,0,0,0-4.25-5.56l-2.38-2.87a33.56,33.56,0,0,1-2.45-3.31,76.6,76.6,0,0,1-3.51-6.93c-2.08-4.58-4-9.15-5.84-13.79l-.08-.21,0-.16-6.21-25.47c-2.1-8.48-4.25-17-6.52-25.37-.29-1.05-.58-2.1-.88-3.14s-.6-2.08-.93-3.09c-.16-.5-.33-1.08-.47-1.43a8.11,8.11,0,0,0-.64-1.19,12.35,12.35,0,0,0-1.9-2.24,44.27,44.27,0,0,0-10.6-6.92c-3.87-1.93-7.89-3.59-12-5.14q-3-1.15-6.15-2.21l-3.1-1Z"/><path class="cls-5" d="M454.5,530s66,24,69,24,12-35,12-35Z"/><path class="cls-6" d="M386,620.5s58,3,105-7,97-29,97-29l10,21s-31,25-85,36-127,0-127,0Z"/><path class="cls-7" d="M385.5,631s49,11,109,0"/><path d="M386.16,628.07c4.25,1,8.76,1.84,13.2,2.58s8.95,1.34,13.46,1.84c9,1,18.08,1.68,27.17,1.87s18.2.13,27.3-.48,18.16-1.6,27.21-2.88c-9,1.77-18,3.39-27.08,4.37s-18.25,1.7-27.43,2-18.37.13-27.55-.39a241.32,241.32,0,0,1-27.6-3Z"/><path class="cls-2" d="M441.5,525.5s11,13,7,29-124,98-128,99-74-64-74-64,50-6,76-33,37-48,37-48Z"/><path class="cls-2" d="M558.5,518.5s94,50,112,58a104.8,104.8,0,0,1,29,19s3-13,3-22-3-28-3-28l-123-37Z"/><path class="cls-4" d="M558,495s56-48,72-61,29-40,29-40l31,14-3,17s-1,32-9,55-40.86,46.74-40.86,46.74Z"/><path d="M557.51,495.08a3.65,3.65,0,0,1,.47-.72,2.36,2.36,0,0,1,.31-.32l.2-.19.82-.78,1.64-1.55,3.28-3.1,6.59-6.14,13.27-12.21L597.44,458l13.46-12c4.49-4,9-7.93,13.59-11.88l3.44-2.94c1-1,2.1-1.85,3.09-2.88a85.76,85.76,0,0,0,5.73-6.41,133.87,133.87,0,0,0,10-14.32c1.53-2.5,3-5.05,4.42-7.62s2.83-5.2,4.06-7.73l1.76-3.62,3.69,1.64,15.55,6.89c5.18,2.3,10.36,4.6,15.51,7l3.06,1.41-.59,3.27-3,17,.06-.61c-.21,5.13-.62,10.08-1.18,15.09s-1.24,10-2.08,14.93-1.82,9.92-3.11,14.83c-.31,1.23-.63,2.46-1,3.68s-.69,2.45-1.1,3.67L681.56,481c-.47,1.23-1,2.47-1.55,3.7a30.87,30.87,0,0,1-1.79,3.54,35.35,35.35,0,0,1-2,3.39l-2.13,3.26-2.3,3.09a117.36,117.36,0,0,1-10.1,11.42q-5.34,5.39-11.1,10.24c-3.85,3.25-7.73,6.35-11.89,9.32l-1.24.88-1.35-.56c-6.72-2.83-13.46-5.67-20.1-8.58L596.18,512l-19.5-8.58Zm1-.16,20.4,7.55L599,509.76,618.68,517c6.54,2.37,13,4.82,19.46,7.29l-2.58.31c3.8-2.91,7.55-6.12,11.15-9.38s7.09-6.69,10.38-10.23a117.44,117.44,0,0,0,9.2-11.1l2.06-2.92,1.85-3a30.56,30.56,0,0,0,1.67-3.07,24.49,24.49,0,0,0,1.48-3.11c.41-1.06.84-2.09,1.24-3.18l1-3.42c.36-1.13.63-2.31.94-3.47s.6-2.33.85-3.5c1.09-4.7,2-9.47,2.66-14.28s1.28-9.65,1.71-14.5c.21-2.43.4-4.86.55-7.29s.32-4.89.4-7.23v-.31l0-.3,3-17,2.47,4.68c-5.19-2.3-10.34-4.67-15.49-7l-15.45-7.11,5.45-2a164.33,164.33,0,0,1-9.23,16,140.79,140.79,0,0,1-11,14.87,78.5,78.5,0,0,1-6.5,6.8c-1.14,1.09-2.42,2.08-3.62,3.11l-3.52,2.79-14,11.24-28.12,22.52-14.14,11.18-7.09,5.55-3.57,2.76L560.11,494l-.89.69-.23.17a.27.27,0,0,1-.11.05A1.78,1.78,0,0,0,558.49,494.92Z"/><path class="cls-5" d="M659.5,393.5s21-38,26-43,22-16,31-13,13,16,8,28-33,43-33,43Z"/><path class="cls-5" d="M680.5,388.5s2-6,0-10-3-4-5-7-9-17-14-16-2,13-2,17-3,20-3,20L667,397"/><path class="cls-8" d="M351.5,700.5l-27,23,9,21L367,739S374.5,700.5,351.5,700.5Z"/><path d="M351.59,700.73c-2.08,2.38-4.16,4.6-6.27,6.73s-4.2,4.22-6.33,6.23-4.27,4-6.45,5.88-4.39,3.75-6.71,5.5l.56-2.38c.63,1.8,1.25,3.61,1.83,5.43s1.18,3.64,1.8,5.44c1.22,3.62,2.63,7.16,4.19,10.64l-.83-.46c5.57-1,11.07-2.4,16.58-3.74,2.76-.67,5.53-1.26,8.3-1.82l8.33-1.63-2.06,2c.28-1.8.47-3.77.62-5.66s.27-3.82.32-5.73a61.1,61.1,0,0,0-.54-11.27,21.66,21.66,0,0,0-3.86-10,12.49,12.49,0,0,0-4.11-3.43,15.24,15.24,0,0,0-2.61-1A11.61,11.61,0,0,0,353,701Zm-.18-.46a15.77,15.77,0,0,1,3.15-.15,13.92,13.92,0,0,1,3.12.46,13.6,13.6,0,0,1,5.65,3.15,18.51,18.51,0,0,1,3.91,5.21,27,27,0,0,1,2.22,6,47.54,47.54,0,0,1,1.37,12.34,64.35,64.35,0,0,1-1.36,12.24l-.36,1.78-1.7.22-8.42,1.1c-2.81.36-5.63.68-8.45.92-5.66.48-11.32.89-16.92,1.73l-.6.09-.23-.55c-1.44-3.52-3-7-4.81-10.36-.88-1.7-1.8-3.37-2.7-5.06s-1.8-3.37-2.67-5.07l-.64-1.23,1.2-1.15q3.27-3.13,6.79-6c2.32-1.93,4.68-3.8,7.05-5.62s4.76-3.6,7.17-5.27S349,701.72,351.41,700.27Z"/><path class="cls-9" d="M332.5,725.5s-16-25-27-25-7,16-4,29,12,29,21,29,15-16,15-16Z"/><path class="cls-10" d="M450.5,542.5c0-1,22,3,16,13s-12,6-16,3"/><path d="M450.5,542.5c.12-.23.43-.21.64-.26a5.88,5.88,0,0,1,.71-.07c.48,0,.95,0,1.42,0a26,26,0,0,1,8.32,1.8,15.24,15.24,0,0,1,5.1,3.11,8,8,0,0,1,1.89,2.74,6.48,6.48,0,0,1,.35,3.51,8.42,8.42,0,0,1-1.25,3,20.9,20.9,0,0,1-1.73,2.38,11.16,11.16,0,0,1-4.89,3.66,7,7,0,0,1-1.56.38,6.59,6.59,0,0,1-1.6,0A8.7,8.7,0,0,1,455,562a15.81,15.81,0,0,1-4.47-3.51,24.39,24.39,0,0,0,5,2.13,6.44,6.44,0,0,0,4.68-.36,10.6,10.6,0,0,0,3.56-3.27,23.52,23.52,0,0,0,1.42-2.15,5.64,5.64,0,0,0,.82-2,4.24,4.24,0,0,0-1.31-3.75,16.34,16.34,0,0,0-4.06-3,39.33,39.33,0,0,0-4.89-2.2c-.85-.34-1.71-.62-2.58-.9-.44-.14-.88-.27-1.32-.37-.22-.06-.45-.11-.67-.15S450.66,542.35,450.5,542.5Z"/><path class="cls-10" d="M461.5,549.5s19-1,18,8-10,7-17,4"/><path d="M461.5,549.5a29.5,29.5,0,0,1,11-.22,14.25,14.25,0,0,1,5.5,2,7.35,7.35,0,0,1,2.27,2.42,6.41,6.41,0,0,1,.78,3.35,8.39,8.39,0,0,1-.21,1.56l-.14.75c-.08.25-.17.5-.25.75l-.28.74c-.1.24-.26.48-.39.72l-.42.7-.56.64a7.14,7.14,0,0,1-2.78,1.8,12.19,12.19,0,0,1-1.54.35,11,11,0,0,1-1.51.08,16.91,16.91,0,0,1-5.56-1.17,26.15,26.15,0,0,1-4.88-2.51c1.78.4,3.52.83,5.26,1.08a19.48,19.48,0,0,0,5.07.26,8.92,8.92,0,0,0,2.22-.56,4.82,4.82,0,0,0,1.6-1.24l.32-.39.24-.46c.07-.16.17-.3.24-.47l.16-.53.17-.52.1-.58A5.81,5.81,0,0,0,478,557a3.85,3.85,0,0,0-1.71-3.36,14.74,14.74,0,0,0-4.39-2.08A69.87,69.87,0,0,0,461.5,549.5Z"/><path class="cls-10" d="M474.5,554.5s16-3,17,5-13,5-17,3"/><path d="M474.5,554.5A24.57,24.57,0,0,1,484.65,553a11.47,11.47,0,0,1,5.33,1.59,6.77,6.77,0,0,1,2.2,2.25,6.68,6.68,0,0,1,.85,3,5.76,5.76,0,0,1-.75,3.24,5.43,5.43,0,0,1-2.56,2.13,11.5,11.5,0,0,1-5.55.61,22.69,22.69,0,0,1-5.08-1.13,17.58,17.58,0,0,1-4.59-2.28,35.26,35.26,0,0,0,4.91.84,34.46,34.46,0,0,0,4.84.23,11.16,11.16,0,0,0,4.28-.86,2.47,2.47,0,0,0,1.51-2.64,3.79,3.79,0,0,0-1.66-3.1,11.32,11.32,0,0,0-4.07-1.63A55.55,55.55,0,0,0,474.5,554.5Z"/><path class="cls-10" d="M487.5,556.5s19-1,19,5S489.06,564,489.06,564"/><path d="M487.5,556.5a37.45,37.45,0,0,1,10.14-.85,22.67,22.67,0,0,1,5.21.78,11.32,11.32,0,0,1,2.64,1.1,5.09,5.09,0,0,1,2.26,2.59,3.18,3.18,0,0,1,.21,1,3.43,3.43,0,0,1,0,1,3.89,3.89,0,0,1-.73,1.83,5.5,5.5,0,0,1-2.79,1.83,15.37,15.37,0,0,1-5.4.5,33.36,33.36,0,0,1-10-2.17c3.39,0,6.72.06,9.94-.18a17.32,17.32,0,0,0,4.49-.83,2.9,2.9,0,0,0,1.33-.88,1.17,1.17,0,0,0,.11-1c-.15-.69-1.54-1.52-2.95-2a30.77,30.77,0,0,0-4.61-1.17C494.16,557.38,490.86,557,487.5,556.5Z"/><path class="cls-10" d="M542.08,543.37c-3.13.44,9-13.41,15.22-7.58s-14.77,12.42-14.77,12.42"/><path d="M542.08,543.37a.81.81,0,0,1-.35,0,.38.38,0,0,1-.27-.3,1.52,1.52,0,0,1,.07-.74,6.45,6.45,0,0,1,.56-1.29,17,17,0,0,1,1.57-2.27,19.27,19.27,0,0,1,4.1-3.74,11.39,11.39,0,0,1,5.51-2.12,6.86,6.86,0,0,1,3.27.57,6.62,6.62,0,0,1,2.63,2.17,3.7,3.7,0,0,1,.46.86,3,3,0,0,1,.27,1,4.2,4.2,0,0,1-.24,2,7.08,7.08,0,0,1-2,2.65,19.06,19.06,0,0,1-4.81,3,38.42,38.42,0,0,1-10.35,3c3.16-1.7,6.31-3.3,9.25-5.1a24.21,24.21,0,0,0,4-3,4.45,4.45,0,0,0,1.14-1.61,1.16,1.16,0,0,0-.19-1.16,3.79,3.79,0,0,0-1.4-1.18,4.21,4.21,0,0,0-1.9-.41,10.89,10.89,0,0,0-4.45,1.28,25.42,25.42,0,0,0-4.25,2.78,19.74,19.74,0,0,0-1.93,1.72,6.87,6.87,0,0,0-.82,1,1.42,1.42,0,0,0-.25.53C541.64,543.25,541.85,543.37,542.08,543.37Z"/><path class="cls-10" d="M533.08,553.37c-3.13.44,9-13.41,15.22-7.58s-14.77,12.42-14.77,12.42"/><path d="M533.08,553.37a.81.81,0,0,1-.35,0,.38.38,0,0,1-.27-.3,1.52,1.52,0,0,1,.07-.74,6.45,6.45,0,0,1,.56-1.29,17,17,0,0,1,1.57-2.27,19.27,19.27,0,0,1,4.1-3.74,11.39,11.39,0,0,1,5.51-2.12,6.86,6.86,0,0,1,3.27.57,6.62,6.62,0,0,1,2.63,2.17,3.7,3.7,0,0,1,.46.86,3,3,0,0,1,.27,1,4.2,4.2,0,0,1-.24,2,7.08,7.08,0,0,1-2,2.65,19.06,19.06,0,0,1-4.81,3,38.42,38.42,0,0,1-10.35,3c3.16-1.7,6.31-3.3,9.25-5.1a24.21,24.21,0,0,0,4-3,4.45,4.45,0,0,0,1.14-1.61,1.16,1.16,0,0,0-.19-1.16,3.79,3.79,0,0,0-1.4-1.18,4.21,4.21,0,0,0-1.9-.41,10.89,10.89,0,0,0-4.45,1.28,25.42,25.42,0,0,0-4.25,2.78,19.74,19.74,0,0,0-1.93,1.72,6.87,6.87,0,0,0-.82,1,1.42,1.42,0,0,0-.25.53C532.64,553.25,532.85,553.37,533.08,553.37Z"/><path class="cls-10" d="M545.08,532.37c-3.13.44,9-13.41,15.22-7.58s-14.77,12.42-14.77,12.42"/><path d="M545.08,532.37a.81.81,0,0,1-.35,0,.38.38,0,0,1-.27-.3,1.52,1.52,0,0,1,.07-.74,6.45,6.45,0,0,1,.56-1.29,17,17,0,0,1,1.57-2.27,19.27,19.27,0,0,1,4.1-3.74,11.39,11.39,0,0,1,5.51-2.12,6.86,6.86,0,0,1,3.27.57,6.62,6.62,0,0,1,2.63,2.17,3.7,3.7,0,0,1,.46.86,3,3,0,0,1,.27,1,4.2,4.2,0,0,1-.24,2,7.08,7.08,0,0,1-2,2.65,19.06,19.06,0,0,1-4.81,3,38.42,38.42,0,0,1-10.35,3c3.16-1.7,6.31-3.3,9.25-5.1a24.21,24.21,0,0,0,4-3,4.45,4.45,0,0,0,1.14-1.61,1.16,1.16,0,0,0-.19-1.16,3.79,3.79,0,0,0-1.4-1.18,4.21,4.21,0,0,0-1.9-.41,10.89,10.89,0,0,0-4.45,1.28,25.42,25.42,0,0,0-4.25,2.78,19.74,19.74,0,0,0-1.93,1.72,6.87,6.87,0,0,0-.82,1,1.42,1.42,0,0,0-.25.53C544.64,532.25,544.85,532.37,545.08,532.37Z"/><path class="cls-10" d="M522.54,558.27c-3.14-.36,12.05-10.72,16.63-3.51s-17.42,8.31-17.42,8.31"/><path d="M522.54,558.27a.64.64,0,0,1-.35-.06.38.38,0,0,1-.18-.36,1.47,1.47,0,0,1,.25-.7,6.69,6.69,0,0,1,.87-1.1,15.62,15.62,0,0,1,2.09-1.8,19.3,19.3,0,0,1,4.9-2.59A11.35,11.35,0,0,1,536,551a6.78,6.78,0,0,1,3,1.37,6.54,6.54,0,0,1,2,2.77,3.5,3.5,0,0,1,.23.94,3.29,3.29,0,0,1,0,1,4.22,4.22,0,0,1-.74,1.89,7,7,0,0,1-2.57,2.07,19.28,19.28,0,0,1-5.4,1.66,39.07,39.07,0,0,1-10.79.33c3.49-.85,6.94-1.61,10.24-2.61a23.1,23.1,0,0,0,4.58-1.88,4.5,4.5,0,0,0,1.51-1.26,1.19,1.19,0,0,0,.11-1.17,3.73,3.73,0,0,0-1.06-1.5,4.16,4.16,0,0,0-1.74-.88,10.85,10.85,0,0,0-4.62.13,25.5,25.5,0,0,0-4.82,1.61,20,20,0,0,0-2.3,1.18,6.51,6.51,0,0,0-1,.74,1.32,1.32,0,0,0-.37.46C522.14,558.05,522.31,558.21,522.54,558.27Z"/><path class="cls-10" d="M506.5,559.5c-3-1,14-8,17,0S504.74,564,504.74,564"/><path d="M506.5,559.5a.62.62,0,0,1-.33-.13.37.37,0,0,1-.1-.39,1.5,1.5,0,0,1,.39-.63,7,7,0,0,1,1.07-.9,16.28,16.28,0,0,1,2.42-1.33,19.3,19.3,0,0,1,5.34-1.53,11.42,11.42,0,0,1,5.87.57,6.79,6.79,0,0,1,2.68,2,6.51,6.51,0,0,1,1.38,3.12,3.53,3.53,0,0,1,0,1,3,3,0,0,1-.2,1,4.22,4.22,0,0,1-1.12,1.7,7,7,0,0,1-2.94,1.5,19.52,19.52,0,0,1-5.63.5,38.41,38.41,0,0,1-10.62-1.9c3.59-.11,7.12-.14,10.55-.44a23.62,23.62,0,0,0,4.88-.89,4.38,4.38,0,0,0,1.73-.93,1.14,1.14,0,0,0,.35-1.12,3.66,3.66,0,0,0-.73-1.69,4.15,4.15,0,0,0-1.51-1.21,10.82,10.82,0,0,0-4.56-.83,25,25,0,0,0-5,.59,19.65,19.65,0,0,0-2.5.68,6.79,6.79,0,0,0-1.17.51,1.54,1.54,0,0,0-.46.36C506.16,559.2,506.29,559.39,506.5,559.5Z"/><path class="cls-11" d="M603,216s12,27,16,44,15,131,17,136,27,28,26,38-81,88-149,89-134,1-159-4-97-134-97-134S493,181,495,180,603,216,603,216Z"/><path class="cls-12" d="M210.5,423.5s-32-3-39,0-23,46-32,51-39,9-39,9,11,27,36,30,68-2,82-13,12-60,12-60Z"/><path d="M210.5,423.5c-5.83-.29-11.66-.43-17.49-.49-2.91,0-5.82,0-8.71.11a78.17,78.17,0,0,0-8.59.66c-.71.09-1.37.26-2.05.39a5.84,5.84,0,0,0-.92.28l-.45.15a1.3,1.3,0,0,0-.39.17,2.9,2.9,0,0,1-.29.19,4.28,4.28,0,0,0-.33.29,5.21,5.21,0,0,0-.65.67c-.22.23-.42.5-.63.77s-.42.53-.61.83a77,77,0,0,0-4.33,7.37c-2.68,5.12-5.17,10.38-7.73,15.64s-5.17,10.5-8.16,15.65a53.48,53.48,0,0,1-5.16,7.58,19.17,19.17,0,0,1-1.8,1.81,9.83,9.83,0,0,1-1.15.86,8.39,8.39,0,0,1-1.14.63,20.27,20.27,0,0,1-2.19,1c-.72.27-1.45.6-2.16.82a142,142,0,0,1-17.29,4.42c-5.79,1.17-11.55,2.16-17.4,3l2.28-3.93c.32.76.78,1.69,1.21,2.53s.92,1.71,1.41,2.55q1.48,2.52,3.19,4.89a52.57,52.57,0,0,0,7.72,8.64,40.18,40.18,0,0,0,4.51,3.52,36.07,36.07,0,0,0,15.66,6,153.07,153.07,0,0,0,24,.73,222.24,222.24,0,0,0,24-2.29,120.06,120.06,0,0,0,23.2-5.68,47.22,47.22,0,0,0,5.33-2.34c.85-.43,1.65-.93,2.45-1.42l1.13-.79c.35-.27.64-.55,1-.83a18.36,18.36,0,0,0,3.22-4.33,39.31,39.31,0,0,0,2.34-5.28c2.6-7.41,3.92-15.46,4.78-23.48a231.63,231.63,0,0,0,1.27-24.29l.33.68-9.65-8.78Zm0,0,10.27,8.06,10.35,8.22.3.24,0,.44c.25,4.12.35,8.2.36,12.31s-.08,8.22-.35,12.33-.64,8.22-1.25,12.32a77.71,77.71,0,0,1-2.73,12.25c-1.35,4-3,8.11-6.34,11.54-.44.4-.88.83-1.33,1.2l-1.34,1c-.92.61-1.85,1.21-2.8,1.73a51.78,51.78,0,0,1-5.78,2.77,88.68,88.68,0,0,1-12,3.86c-4,1-8.1,1.88-12.18,2.6a196.33,196.33,0,0,1-24.66,2.69,160,160,0,0,1-24.93-.61,39.54,39.54,0,0,1-12.63-3.71,42.11,42.11,0,0,1-5.67-3.3,46.4,46.4,0,0,1-5.1-4,58.83,58.83,0,0,1-8.51-9.63q-1.86-2.61-3.46-5.38c-.53-.93-1-1.86-1.53-2.82s-.94-1.88-1.41-3l-1.44-3.44,3.72-.49c5.7-.74,11.46-1.61,17.13-2.66a136,136,0,0,0,16.68-3.92c.68-.19,1.28-.47,1.93-.69a14.26,14.26,0,0,0,1.81-.76,4.42,4.42,0,0,0,.79-.4,3,3,0,0,0,.61-.43,13.64,13.64,0,0,0,1.32-1.24,50,50,0,0,0,4.87-6.73c3-4.85,5.75-10,8.51-15.12s5.49-10.3,8.45-15.39a67.14,67.14,0,0,1,4.89-7.49c.22-.3.48-.6.73-.9a10.86,10.86,0,0,1,.81-.87,7.59,7.59,0,0,1,.92-.85c.17-.13.33-.27.52-.4l.65-.36a2,2,0,0,1,.62-.24l.6-.18a9.21,9.21,0,0,1,1.18-.29c.76-.1,1.53-.25,2.27-.31a116.75,116.75,0,0,1,17.66.28C198.9,422.11,204.71,422.76,210.5,423.5Z"/><path class="cls-12" d="M489.5,184.5s-255,260-261,263-34,2-34-11,7-25,7-25-85-97,0-207,211-113,249-107,73,36,73,36Z"/><path d="M489.5,184.5l-38.13,39-38,39.15q-37.94,39.22-75.66,78.65t-75.8,78.55q-9.57,9.75-19.2,19.44c-3.25,3.23-6.42,6.42-9.88,9.65-.42.4-.91.82-1.48,1.3a8.7,8.7,0,0,1-.86.59l-.22.13-.16.08-.31.14a10.65,10.65,0,0,1-1.18.45,24.34,24.34,0,0,1-4,.88,45.72,45.72,0,0,1-7.44.36,49.18,49.18,0,0,1-14.66-2.45,23.82,23.82,0,0,1-7.26-3.92,15.1,15.1,0,0,1-3.15-3.59,12.79,12.79,0,0,1-1.71-4.85l-.1-1.27,0-.32v-.71l.05-1.9c.11-1.24.17-2.5.37-3.73a52.79,52.79,0,0,1,1.49-7.24A63.18,63.18,0,0,1,194.5,416c.45-1.13.92-2.25,1.44-3.36.26-.55.51-1.1.79-1.66s.55-1.07.92-1.73l.49,5.19c-.6-.7-1.09-1.28-1.6-1.92s-1-1.25-1.49-1.88a19.51,19.51,0,0,1-2.43-4.11l-1.83-4.46a28.77,28.77,0,0,0-2.28-4.11c-3.35-5.26-6.73-10.5-10-15.87A121.89,121.89,0,0,1,170,365.24a157,157,0,0,1-5.94-18c-.39-1.53-.82-3.06-1.18-4.6l-1-4.65c-.69-3.09-1-6.24-1.54-9.37-.27-1.56-.37-3.15-.53-4.72l-.45-4.73c-.18-3.16-.3-6.33-.4-9.5A155.83,155.83,0,0,1,163.38,272a161.83,161.83,0,0,1,13.15-35.38c.71-1.4,1.34-2.84,2.12-4.2l2.33-4.1c1.57-2.71,3-5.49,4.82-8.07l5.15-7.86,5.58-7.53a272.39,272.39,0,0,1,24.58-28.07c1.1-1.1,2.17-2.23,3.3-3.3l3.41-3.18,3.42-3.17L233,165.6l1.77-1.52,7.1-6,7.34-5.74a284.85,284.85,0,0,1,31.07-20.49,280.64,280.64,0,0,1,33.48-16.12A293.17,293.17,0,0,1,422.25,94.38c6.17,0,12.36.22,18.52.74,3.09.25,6.16.62,9.24,1.08,1.53.23,3.05.59,4.57.88s3.07.55,4.55,1A148.44,148.44,0,0,1,493.47,112c5.44,2.94,10.7,6.18,15.82,9.63a182.54,182.54,0,0,1,14.89,11l.72.6-.52.78-4.26,6.39a42.08,42.08,0,0,0-3.58,6.86c-2,4.84-3.48,10.11-6.09,14.58a39.14,39.14,0,0,1-4.45,6.3,47.89,47.89,0,0,1-5.66,5.35c-2,1.68-4.08,3.3-5.93,5.09A34.31,34.31,0,0,0,489.5,184.5Zm0,0a35.77,35.77,0,0,0,3.59-6.9c1-2.46,1.74-5.09,2.57-7.66a51.8,51.8,0,0,1,2.84-7.4,38.25,38.25,0,0,1,4.05-6.45c3.06-4,7.25-7.26,10.91-10.92a41.76,41.76,0,0,0,4.92-5.89l4.24-6.36.2,1.38c-4.67-3.87-9.66-7.47-14.72-10.87s-10.3-6.6-15.68-9.49a141,141,0,0,0-33.85-13.56c-1.46-.44-3-.64-4.45-.95s-3-.61-4.48-.82c-3-.43-6-.76-9.08-1q-9.12-.69-18.3-.57a270.44,270.44,0,0,0-36.51,3,292.43,292.43,0,0,0-70.32,19.79,268.42,268.42,0,0,0-62.56,37.22l-7.05,5.77L239,168.89l-1.7,1.51L235.68,172l-3.27,3.18-3.27,3.17c-1.07,1.07-2.09,2.2-3.14,3.29a279.33,279.33,0,0,0-23.41,27.81l-5.27,7.37-4.82,7.64c-1.68,2.51-3,5.2-4.49,7.83l-2.16,3.95c-.73,1.32-1.3,2.71-1.95,4.06A153,153,0,0,0,172,274.06a146,146,0,0,0-3.5,35.47c.15,3,.29,5.94.49,8.91l.49,4.44c.17,1.47.28,3,.55,4.42.51,2.94.87,5.89,1.56,8.8.32,1.45.59,2.91.89,4.37s.72,2.9,1.07,4.34c2.81,11.62,7.1,22.78,11.38,34.08A102.33,102.33,0,0,0,193,395.12c.4.64.79,1.29,1.25,1.89a17.43,17.43,0,0,0,1.49,1.73c1.05,1.11,2.28,2.09,3.4,3.13a24.18,24.18,0,0,1,3,3.3c.44.59.89,1.18,1.34,1.75s.93,1.17,1.32,1.64l2.07,2.47-1.57,2.72c-.19.33-.46.83-.69,1.27l-.7,1.41c-.46.95-.89,1.91-1.3,2.89a53.59,53.59,0,0,0-2.11,6,43.38,43.38,0,0,0-1.35,6.09c-.19,1-.24,2-.36,3l-.06,1.51,0,.38v.3c0,.14,0,.28,0,.43a4.29,4.29,0,0,0,.51,1.55,6.78,6.78,0,0,0,1.31,1.52,16.12,16.12,0,0,0,4.67,2.55,41.31,41.31,0,0,0,12.12,2.18,40.77,40.77,0,0,0,6.18-.17,16.3,16.3,0,0,0,2.63-.49,2.87,2.87,0,0,0,.42-.14l.08,0h0a.59.59,0,0,0-.17.1c.31-.25.7-.56,1.1-.93,3.27-2.9,6.59-6.09,9.86-9.19q9.82-9.4,19.58-18.94,39.14-38,78-76.29T412.66,262l38.52-38.65Z"/><path class="cls-13" d="M666,262s50-35,83-22c0,0-16-132-142-111,0,0-3-19,15-27,0,0-37-24-85,4s-47,78.18-47,78.18S246,392,238,404s0,49,0,49l62-27-9-29,79-89,196-44s88,36,90,81c0,0,19-7,11-81Z"/><path d="M665.71,261.93a1,1,0,0,1,.25-.28l.14-.11.28-.22.54-.43L668,260l2.25-1.66q2.26-1.62,4.59-3.18c3.1-2.06,6.29-4,9.52-5.87s6.57-3.57,10-5.21,6.86-3.07,10.39-4.41a95.48,95.48,0,0,1,10.84-3.43,80.64,80.64,0,0,1,11.32-2.09,56.63,56.63,0,0,1,11.72-.11c1,.06,2,.22,2.95.38a27.14,27.14,0,0,1,2.94.55c1,.25,2,.42,2.92.74l1.44.47.72.24c.12,0,.19.21.18.59l0,.65-.24,1.1h0l-1.75,1.36a158.41,158.41,0,0,0-6-24.52,167.14,167.14,0,0,0-9.53-23.37c-7.54-15-17.56-28.89-30.39-39.6a98.33,98.33,0,0,0-10.05-7.43,98.37,98.37,0,0,0-34.54-13.82c-16.36-3.26-33.34-2.63-49.82.22l-2.7.47-.38-2.69a21.72,21.72,0,0,1-.21-2.39c0-.76,0-1.51,0-2.26a33.93,33.93,0,0,1,.43-4.5,28.73,28.73,0,0,1,2.9-8.66A28.09,28.09,0,0,1,610,107.7a28.73,28.73,0,0,1,6.85-6.18,14.94,14.94,0,0,1,2-1.14l2-1.06-.41,5.14c-.63-.39-1.49-.85-2.27-1.25s-1.64-.8-2.47-1.18c-1.67-.75-3.39-1.42-5.12-2a75.87,75.87,0,0,0-10.68-2.89A78.86,78.86,0,0,0,577.8,96a86,86,0,0,0-10.93,1.72,93.35,93.35,0,0,0-10.64,3.13,103.19,103.19,0,0,0-19.92,9.87A89.32,89.32,0,0,0,506,142.27a92.5,92.5,0,0,0-10.83,31.12c-.3,1.81-.52,3.63-.69,5.45-.09.9-.15,1.81-.2,2.7l-.05,1.34c0,.42,0,.91,0,1.22l0,2-1.51,1.31L347.4,313q-36.27,31.45-72.29,63.17c-6,5.3-11.95,10.61-17.84,16q-4.44,4-8.75,8.08c-1.41,1.35-2.89,2.72-4.18,4.05a25.16,25.16,0,0,0-1.73,1.84c-.19.25-.48.44-.61.72a6.61,6.61,0,0,0-.47.84,18.84,18.84,0,0,0-1.4,4.49,42.6,42.6,0,0,0-.65,5.34,88.11,88.11,0,0,0,.09,11.36c.25,3.84.67,7.72,1.21,11.58s1.2,7.78,2,11.48l-6.68-3.42,62.07-26.84-2.6,5.68-8.91-29-.76-2.49,1.71-1.91,39.65-44.37L367,305.29l.89-1,1.27-.28,98.13-21.39,98.19-21.19.84-.18.72.31a295.07,295.07,0,0,1,28.41,14.35q6.9,4,13.55,8.32c4.44,2.9,8.78,5.95,13,9.2a151,151,0,0,1,12.18,10.3A104.23,104.23,0,0,1,645,315.52a68,68,0,0,1,8.39,13.73,42.3,42.3,0,0,1,3.81,15.69h0l-1.55-1a3.85,3.85,0,0,0,.39-.22,3,3,0,0,0,.45-.31,6.45,6.45,0,0,0,.9-.77A14.27,14.27,0,0,0,659,340.8c.52-.63.92-1.39,1.4-2.08s.78-1.5,1.19-2.24c.18-.39.4-.75.56-1.15l.47-1.2c.31-.8.64-1.59.93-2.4.47-1.66,1-3.29,1.43-5a112.8,112.8,0,0,0,2.78-20.69c.11-3.49.34-7,.24-10.49s0-7-.25-10.51l-.26-5.25-.13-2.62-.23-2.63-.92-10.48.09.28C666,263.46,665.86,262.61,665.71,261.93Zm.58.14a20,20,0,0,0,1.44,1.56l.07.07,0,.21,1,10.53.25,2.63.15,2.64.31,5.28c.26,3.52.26,7.05.33,10.58s-.08,7.07-.16,10.6A114,114,0,0,1,667,327.26c-.4,1.74-1,3.45-1.45,5.17-.29.85-.64,1.68-1,2.53l-.49,1.26c-.17.42-.39.82-.59,1.22-.42.81-.76,1.65-1.26,2.43s-.94,1.57-1.52,2.3a17.74,17.74,0,0,1-1.87,2.12,8.54,8.54,0,0,1-1.1.95,5,5,0,0,1-.63.43,5.29,5.29,0,0,1-.77.41l-1.38.56-.17-1.59h0a39.6,39.6,0,0,0-4-14.66,64.57,64.57,0,0,0-8.37-12.89,103.05,103.05,0,0,0-10.79-11.13,146.68,146.68,0,0,0-12.11-9.79c-4.18-3.08-8.52-6-12.94-8.73s-8.93-5.39-13.51-7.88A295,295,0,0,0,565,266.43l1.56.13-97.81,22.81L370.89,312l2.16-1.27-39.27,44.7L294.43,400l.95-4.4,9.09,29,1.25,4-3.85,1.69-61.93,27.16-5.47,2.39L233.26,454c-.86-4.13-1.53-8.09-2.11-12.17s-1-8.16-1.32-12.3a100.28,100.28,0,0,1-.12-12.64c.34-4.3.79-8.73,3-13.5a16.76,16.76,0,0,1,1-1.78A13.2,13.2,0,0,1,235,400a33.56,33.56,0,0,1,2.37-2.55c1.49-1.55,3-2.89,4.42-4.32,2.95-2.79,5.9-5.53,8.88-8.23,5.93-5.43,11.91-10.77,17.9-16.11,24-21.33,48.18-42.27,72.41-63.23s48.59-41.74,73-62.52q18.27-15.6,36.63-31.08l36.72-31-1.48,3.28c0-.65,0-1.12,0-1.65s0-1,.08-1.55c.07-1,.15-2,.26-3,.21-2,.48-4,.83-6a99.23,99.23,0,0,1,2.71-11.7,101,101,0,0,1,9.47-22,96.36,96.36,0,0,1,33.31-33.83,110.62,110.62,0,0,1,21.47-10.21,99.61,99.61,0,0,1,11.51-3.2,94.51,94.51,0,0,1,11.84-1.68A85.76,85.76,0,0,1,601.09,91a82.07,82.07,0,0,1,11.5,3.31c1.87.7,3.73,1.46,5.55,2.31.91.43,1.81.87,2.71,1.34s1.75,1,2.74,1.58l4.32,2.73-4.72,2.41-1.66.85a10.69,10.69,0,0,0-1.63.89,20.41,20.41,0,0,0-2.94,2.19,20.88,20.88,0,0,0-2.55,2.6,22.09,22.09,0,0,0-2,3,23.23,23.23,0,0,0-2.46,7,31,31,0,0,0-.42,3.74c0,.63,0,1.25,0,1.87s.07,1.29.12,1.75l-3.08-2.22a165,165,0,0,1,25.81-2.08,125.33,125.33,0,0,1,25.82,2.61,102.26,102.26,0,0,1,35.86,14.91,101.71,101.71,0,0,1,10.35,7.86,114.17,114.17,0,0,1,17.52,19.05,141.12,141.12,0,0,1,13.25,22.11,171.77,171.77,0,0,1,9.39,23.94,160.21,160.21,0,0,1,5.72,25.08l.29,2.06-2-.7h0l-.56,1-.38.53c-.23.31-.38.41-.47.37l-.6-.22-1.18-.43c-.78-.3-1.62-.46-2.43-.7a20.84,20.84,0,0,0-2.49-.55,24,24,0,0,0-2.54-.4c-.86-.09-1.71-.23-2.58-.27l-2.6-.13c-1.75,0-3.5,0-5.26.14a94.52,94.52,0,0,0-21.07,4,170,170,0,0,0-20.47,7.73c-3.36,1.48-6.67,3.08-10,4.73-1.65.82-3.28,1.69-4.91,2.56l-2.44,1.31-1.21.68-.6.34-.3.17-.15.08S666.32,262.1,666.29,262.07Z"/><path class="cls-14" d="M488,291l-50,70s-17-4-28-4-88,45-92,52,21,64,21,64l-11.3,22.2L335,504l20-29s79-26,90-42,8-60,8-60l44-71Z"/><path class="cls-13" d="M564,243s9,96-99,114c0,0,15-44,15-57s-.37-16.61-.37-16.61S449,349,370,361c0,0,17-57,11-70"/><path d="M564,243a82.69,82.69,0,0,1,.61,10.45,102.17,102.17,0,0,1-.5,10.49,110,110,0,0,1-3.88,20.75,105.29,105.29,0,0,1-7.85,19.78,101.13,101.13,0,0,1-12,17.79c-1.16,1.37-2.29,2.78-3.57,4s-2.47,2.62-3.79,3.85l-4,3.6a26.24,26.24,0,0,1-2.08,1.71l-2.13,1.67-2.13,1.66c-.74.52-1.49,1-2.23,1.52-1.5,1-3,2-4.49,3L511.3,346c-.78.44-1.54.94-2.35,1.33l-2.41,1.2a151.65,151.65,0,0,1-40.77,13.07L458.16,363l2.41-7.5c1.9-5.93,3.78-11.94,5.59-17.93s3.51-12,5.09-18c.78-3,1.53-6,2.17-9a80.3,80.3,0,0,0,1.47-8.7l.11-1.92v-2.35l0-4.68-.09-4.65L474.8,286l-.05-1.11-.06-1,9.44,1.59c-.4.83-.73,1.47-1.1,2.16l-1.11,2q-1.12,2-2.31,3.91c-1.58,2.56-3.24,5.07-5,7.5a154.65,154.65,0,0,1-11.22,14,158,158,0,0,1-12.75,12.61,163.33,163.33,0,0,1-14.11,11.05l-3.7,2.52-3.8,2.38c-1.25.81-2.56,1.53-3.86,2.27s-2.59,1.48-3.93,2.14a156.59,156.59,0,0,1-16.31,7.33l-4.21,1.49-2.1.74-2.14.65-4.26,1.29c-1.44.39-2.88.75-4.32,1.1-2.87.77-5.8,1.26-8.7,1.84-1.45.32-2.93.48-4.39.71l-4.39.65-4.63.68,1.43-4.37c1.83-5.59,3.5-11.31,5.19-17s3.23-11.42,4.64-17.18,2.76-11.55,3.69-17.39c.45-2.93.87-5.86,1-8.82A23.66,23.66,0,0,0,381,291a22.87,22.87,0,0,1,1.76,8.79,77.55,77.55,0,0,1-.18,9c-.21,3-.52,6-.9,9s-.8,6-1.31,8.9c-1,5.91-2.15,11.79-3.41,17.65s-2.67,11.66-4.19,17.51l-3.2-3.69,4.18-.86c1.39-.3,2.8-.54,4.17-.92,2.75-.73,5.52-1.35,8.22-2.24l4.07-1.23,4-1.4,2-.7,2-.79,3.94-1.58a151.74,151.74,0,0,0,29.32-16.79,149.32,149.32,0,0,0,24.76-22.9,147.66,147.66,0,0,0,10.37-13.29c1.61-2.3,3.11-4.66,4.58-7,.72-1.19,1.43-2.39,2.1-3.6.34-.6.67-1.2,1-1.8s.65-1.24.88-1.72l8-16.57,1.48,18.16.06.76,0,.64.07,1.25.09,2.44.11,4.8.05,4.78v2.39l-.17,2.79a85.48,85.48,0,0,1-1.7,9.95c-.69,3.18-1.48,6.3-2.31,9.39-1.64,6.19-3.49,12.28-5.38,18.35s-3.88,12.07-6,18.09l-5.2-6.13A146.54,146.54,0,0,0,503,341.1l2.31-1c.77-.34,1.49-.77,2.23-1.15l4.46-2.34c1.44-.85,2.85-1.75,4.29-2.63.71-.44,1.43-.87,2.13-1.33l2-1.46,2.05-1.46c.68-.49,1.38-1,2-1.52l3.88-3.2c1.27-1.09,2.44-2.29,3.69-3.42a49.82,49.82,0,0,0,3.54-3.58,94.74,94.74,0,0,0,12.22-16.09,109.06,109.06,0,0,0,8.81-18.39A121.27,121.27,0,0,0,562,263.66,112.37,112.37,0,0,0,564,243Z"/><path d="M547,400a88.94,88.94,0,0,1-2.68-15.27,101.67,101.67,0,0,1-.23-15.62A65.2,65.2,0,0,1,547,353.24a37.75,37.75,0,0,1,3.66-7.88,22,22,0,0,1,6.73-6.91,18.29,18.29,0,0,1,4.79-2.09,17.35,17.35,0,0,1,5.28-.61l.68,0,.69.1,1.37.25a21.69,21.69,0,0,1,2.62.86c.81.39,1.61.82,2.37,1.28a22.7,22.7,0,0,1,2,1.56,25.18,25.18,0,0,1,5.52,7.31,42.37,42.37,0,0,1,3,7.74,72.57,72.57,0,0,1,2.65,15.6A78.13,78.13,0,0,1,588,386c-1.46-5-2.84-9.84-4.38-14.62a121.05,121.05,0,0,0-5.18-13.75,47.11,47.11,0,0,0-3.31-6.06,18.45,18.45,0,0,0-4-4.46,6.24,6.24,0,0,0-4.06-1.49,7.75,7.75,0,0,0-2.23.32l-.55.19a1.84,1.84,0,0,0-.55.21c-.33.21-.71.32-1,.57-2.78,1.64-5.1,5.46-6.84,9.61a68.82,68.82,0,0,0-2.28,6.63c-.64,2.3-1.23,4.66-1.76,7C549.77,379.79,548.51,389.79,547,400Z"/><path class="cls-15" d="M572,302s-22,22-25,28"/><path class="cls-11" d="M305.5,426.5s-25-10-48-2-18,39,2,58,55.7,13.52,64.35,7.76,9.65-13.76,9.65-13.76"/><path class="cls-16" d="M286,437s-17-3-17,16,22,21,22,21"/><path d="M286,437a24.63,24.63,0,0,0-6.81,2.88,10.52,10.52,0,0,0-3.87,4.22,15,15,0,0,0-1.3,5.3c0,.5-.07,1-.07,1.51s0,1,0,1.56a25.43,25.43,0,0,0,.22,3,17.7,17.7,0,0,0,1.61,5.31,20.26,20.26,0,0,0,1.47,2.44,29.74,29.74,0,0,0,2,2.35c3,3.08,7.08,5.73,11.77,8.45a20.59,20.59,0,0,1-8.2.53,23.4,23.4,0,0,1-8.18-2.61,20.06,20.06,0,0,1-10.35-15.07,24.52,24.52,0,0,1-.18-4.59,21.28,21.28,0,0,1,.2-2.22,18.22,18.22,0,0,1,.41-2.26,19.06,19.06,0,0,1,1.61-4.49,15.57,15.57,0,0,1,2.88-4.06,13.69,13.69,0,0,1,8.59-4A13.94,13.94,0,0,1,286,437Z"/><path d="M461.5,171.5q-33.74,25.17-66.74,51t-64.67,53.31c-5.23,4.61-10.51,9.17-15.64,13.89s-10.28,9.42-15.41,14.15q-15.19,14.36-29.68,29.43l-7.1,7.66c-1.2,1.26-2.34,2.58-3.48,3.89l-3.46,3.91c-1.15,1.31-2.34,2.59-3.46,3.92l-3.33,4-3.35,4c-1.13,1.32-2.13,2.75-3.22,4.11A251.88,251.88,0,0,0,218.5,399.5c5.19-13.07,12.42-25.29,20.29-37a362.54,362.54,0,0,1,26-33.4c9.25-10.64,19-20.81,29.05-30.7,5.07-4.89,10.14-9.78,15.33-14.52s10.46-9.42,15.72-14.09C346.09,251.37,368.23,234,391,217.57q4.28-3.09,8.57-6.12c2.87-2,5.73-4.07,8.64-6,5.79-4,11.6-7.91,17.46-11.77C437.45,186,449.29,178.44,461.5,171.5Z"/><path d="M212.45,454.13c-.08.39-.15.66-.22.93s-.15.55-.23.81c-.17.51-.32,1-.51,1.53-.35,1-.76,2-1.19,2.93s-.94,1.87-1.4,2.79-1.08,1.79-1.61,2.67a39.81,39.81,0,0,1-8.33,9.08l-1.21.94-.6.48-.65.41-2.58,1.63c-.86.54-1.8.92-2.7,1.38a23.3,23.3,0,0,1-2.75,1.23,41.72,41.72,0,0,1-5.68,1.83l-2.89.7c-1,.21-1.94.29-2.91.44l-2.91.39c-1,.11-1.91.15-2.86.23-1.9.15-3.8.28-5.71.37-3.8.22-7.62.28-11.42.28s-7.62-.2-11.41-.57a51.58,51.58,0,0,1-11.18-2.11,51.77,51.77,0,0,0,11.24,1.11c3.76,0,7.53-.15,11.28-.43s7.49-.72,11.21-1.27c1.86-.25,3.72-.54,5.58-.85.92-.16,1.86-.29,2.77-.48l2.67-.6c7.09-1.65,13.79-4.75,18.77-9.64a32.83,32.83,0,0,0,6.27-8.17l1.13-2.3c.31-.8.67-1.57.93-2.38s.54-1.6.74-2.4c.13-.4.19-.8.28-1.19,0-.2.08-.39.11-.57a3,3,0,0,0,.07-.46,4,4,0,0,1,8,.33,5.6,5.6,0,0,1-.07.59Z"/><path class="cls-4" d="M310,474l-16,28,6,4s19.59,21.1,39.3,31.55S378,561,394,554s22-24,20-31-81-40-81-40l-21-9"/><path d="M310.43,474.25q-3.51,7.28-7.16,14.48c-2.43,4.8-4.86,9.6-7.35,14.37l-.69-2.94,6.17,3.75.15.09.29.29c3.82,3.73,7.88,7.38,12,10.84s8.34,6.85,12.7,9.94A120.67,120.67,0,0,0,340,533.51l7.27,3.8,7.23,3.83c4.79,2.52,9.58,4.93,14.39,6.89a45,45,0,0,0,14.38,3.61,22.44,22.44,0,0,0,6.74-.75,14.87,14.87,0,0,0,1.59-.54c.26-.1.52-.19.78-.31l.81-.39,1.62-.78,1.54-.93.78-.46.73-.52,1.46-1.05c.89-.81,1.88-1.52,2.69-2.42a30,30,0,0,0,4.51-5.69,27.89,27.89,0,0,0,3.07-6.52,17,17,0,0,0,1-6.47c0-.2-.07-.4-.1-.6l0-.16v0l0,.08a.44.44,0,0,0,.06.16l.14.26a5.19,5.19,0,0,0-.76-.77,33,33,0,0,0-3-2.16c-2.16-1.42-4.47-2.78-6.81-4.1-9.4-5.28-19.24-10.05-29-14.86s-19.69-9.48-29.6-14.09L334,485.1l-7.43-3.52c-4.94-2.36-9.89-4.71-14.81-7.12l.4-.92c20.48,7.73,41,15.47,61.17,24.09q7.58,3.21,15.08,6.64c5,2.28,10,4.62,14.94,7.16,2.47,1.29,4.93,2.6,7.4,4.1a41.8,41.8,0,0,1,3.75,2.56,12.1,12.1,0,0,1,2.13,2.13,5.46,5.46,0,0,1,.66,1.14l.16.39.07.2,0,.1.08.35.29,1.41a12.39,12.39,0,0,1,.12,1.33,9.54,9.54,0,0,1,.05,1.3c-.05.81,0,1.68-.16,2.46a30.14,30.14,0,0,1-1,4.63,35.72,35.72,0,0,1-3.64,8.4,38.81,38.81,0,0,1-5.47,7.29,43.15,43.15,0,0,1-3.32,3.16l-1.83,1.4c-.3.23-.6.47-.92.69l-1,.62-2,1.22-2.06,1-1,.51c-.35.16-.74.31-1.11.46-.75.32-1.53.56-2.3.81a29.29,29.29,0,0,1-9.48,1.15,43.08,43.08,0,0,1-9-1.43,69,69,0,0,1-8.27-2.89,149.07,149.07,0,0,1-15.06-7.56c-2.42-1.34-4.8-2.7-7.16-4.06l-7.14-4.06a112.88,112.88,0,0,1-14-9.58,193.71,193.71,0,0,1-24.14-23l.44.38-5.83-4.25L291,502.58l1.05-1.68c2.85-4.56,5.75-9.09,8.65-13.63s5.85-9,8.84-13.52Z"/><path class="cls-5" d="M310.5,472.5s-19-8-27-11-35-7-42,0-2,24,6,30,34,8,35,8,12,2,12,2Z"/><path class="cls-5" d="M292.5,479.5s-8-2-8-7-8-18-1-23,12,6,17,11a28.27,28.27,0,0,1,6.69,10.61"/><path class="cls-17" d="M519.5,723.5s21,8,26,20,1,50-3,56-56,41-46,85,94,63,129,66,126-9,153-20,52-44,55-64-34-70-50-80-29-7-34-22,7-59,7-59l-86-27-100,14-50,28"/><path class="cls-18" d="M624.5,661.5s-87,24-99,28-35,20-28,32,34,7,39,3,33-21,42-17,7,10,6,13-19,13-15,22,20,15,27,7,13-26,22-22,19,10,17,22,4,20,15,20,29-16,54-17,37,1,46-6,4-10,12-19,23-12,25-25-35-57-49-60-39,7-46,8S624.5,661.5,624.5,661.5Z"/><path class="cls-19" d="M617.16,810.07c-36.67,0-61.13-12-73.82-20.44a10.64,10.64,0,0,1-1.41-16.6h0a17.08,17.08,0,0,1,20.17-2.37c13.52,7.7,40.68,18.05,82.23,11,45.25-7.64,72.89-19.32,87.74-25.59,4.25-1.79,7.32-3.09,9.92-3.92,13-4.18,18.23,4.69,19.14,6.52a13,13,0,0,1-11,18.8,11,11,0,0,0-3.68.75c-1.34.55-2.87,1.2-4.31,1.81-14.7,6.2-45.28,19.12-93.51,27.27A189.54,189.54,0,0,1,617.16,810.07Zm120.73-39.71h0Zm0,0h0Zm0,0Z"/><path class="cls-20" d="M566.5,740.5s6,30.13,22.5,40.06"/><path class="cls-21" d="M613.5,736.5s-2,37-6,44"/><path class="cls-19" d="M664.5,805.5s19,8,24,37,14,84,21,90,46,5,49,10,4,12-2,13-49-4-59-14-15-59-19-74-7-44-12-49a50.36,50.36,0,0,0-13-9C651.5,808.5,658.5,804.5,664.5,805.5Z"/><path class="cls-19" d="M690.5,806.5s50,37,60,62,21,60,27,68,20,15,26,16,12-1,12-6-30-18-32-25-13-51-25-70-36-41-40-44S691.5,800.5,690.5,806.5Z"/><path id="SVGID-2" data-name="SVGID" class="cls-4" d="M571.5,702.5s7-26,14-30,11-2,11-2,5-15,15-21,22-3,22-3,19-16,27-19,15,3,15,3,43,17,47,22,4,17,4,18,19,22,20,24,0,18,0,18,9,18,10,23-12,19-12,19-23-5-41,0-36,16-44,16-22-7-23-9,5-13,3-19-16-16-20-15-7,11-13,15-26,7-30,4-2-10,1-14,12-9,12-15S582.5,701.5,571.5,702.5Z"/><g class="cls-22"><path class="cls-10" d="M580.5,704.5s13-25,17-26,9,0,11-3,16-16,22-16,32-3,39-5,29,2,29,6-4,11,0,12,12-4,15,7,1,16,3,19,12,8,17,15,1,27,0,33-7,19-19,23-63,12-70,11-34-9-42-11-45-19-45-23,4-24,6-26S580.5,704.5,580.5,704.5Z"/><path class="cls-1" d="M638.5,645.5s-8,10-7,18,18,1,24-6.51,18-24.49,18-24.49"/><path class="cls-21" d="M629.5,665.5s9,10,12,11,17-7,27-17,14-19,14-19"/><ellipse class="cls-4" cx="685" cy="697" rx="23.5" ry="12.5"/><path d="M708.75,697a10.55,10.55,0,0,1-3,6.73,23.38,23.38,0,0,1-6,4.71,25.13,25.13,0,0,1-7.18,2.64,31.07,31.07,0,0,1-7.57.51,44.09,44.09,0,0,1-14.45-3.88,27.36,27.36,0,0,1-6.44-3.82A12.92,12.92,0,0,1,661.5,701a9.26,9.26,0,0,1-1.37-4,10.32,10.32,0,0,1,3.19-7.74,21.16,21.16,0,0,1,6.64-4.41,36.35,36.35,0,0,1,15-3,39.83,39.83,0,0,1,7.61.89,26.48,26.48,0,0,1,7.16,2.78,23.49,23.49,0,0,1,6,4.74A10.4,10.4,0,0,1,708.75,697Zm-.5,0a7.39,7.39,0,0,0-3.39-5.76,18.05,18.05,0,0,0-6.33-2.66A60,60,0,0,0,685,687.17a66.19,66.19,0,0,0-6.76.51,34.69,34.69,0,0,0-6.51,1.55,21,21,0,0,0-5.69,3,7.47,7.47,0,0,0-3.17,4.78,7.05,7.05,0,0,0,2.39,5.64,15.94,15.94,0,0,0,5.89,3.57,24.46,24.46,0,0,0,6.88,1.33,62.14,62.14,0,0,0,7-.13,87,87,0,0,0,13.56-1.93,18.27,18.27,0,0,0,6.33-2.69A7.38,7.38,0,0,0,708.25,697Z"/><path class="cls-4" d="M655.5,735.5s38-17,45-7-13,15-13,15"/><path d="M655.5,735.5a85.79,85.79,0,0,1,16-8.13,81.32,81.32,0,0,1,8.63-2.82,50.51,50.51,0,0,1,9.13-1.6c3.14-.16,6.51-.22,10,1.53a6.38,6.38,0,0,1,1.24.8,6.52,6.52,0,0,1,1.13,1,9.16,9.16,0,0,1,1.54,2.42,8.14,8.14,0,0,1,.51,1.33,7.71,7.71,0,0,1,.29,1.46,7.24,7.24,0,0,1-.3,3,7.6,7.6,0,0,1-1.34,2.52,10.81,10.81,0,0,1-1.84,1.86,18.11,18.11,0,0,1-4.16,2.41,29.82,29.82,0,0,1-8.85,2.18,53.22,53.22,0,0,0,7.67-4.33,18.47,18.47,0,0,0,3.1-2.67,6.21,6.21,0,0,0,1.62-3,4.12,4.12,0,0,0-.64-2.82,4.31,4.31,0,0,0-2.14-2c-1.91-.88-4.73-1-7.45-.76a65.57,65.57,0,0,0-8.41,1.22c-2.83.57-5.67,1.24-8.51,1.94C667,732.51,661.35,734.09,655.5,735.5Z"/><path class="cls-4" d="M603.5,682.5s36-3,39,7-31,7-31,7-20-1-16-9"/><path d="M603.5,682.5a95.5,95.5,0,0,1,12.16-1.64,83.71,83.71,0,0,1,12.37,0,44.24,44.24,0,0,1,6.28.86,21.56,21.56,0,0,1,6.35,2.29,9.86,9.86,0,0,1,3,2.56c.21.3.42.6.62.91s.31.7.46,1.06a5.22,5.22,0,0,1,.3,1.13c0,.2.07.39.1.59v.65a4,4,0,0,1-.18,1.31,4.44,4.44,0,0,1-.48,1.23,5.55,5.55,0,0,1-.7,1,6.4,6.4,0,0,1-.81.83,11.45,11.45,0,0,1-3.36,1.94c-4.41,1.58-8.59,1.81-12.76,2a97.81,97.81,0,0,1-12.37-.53c-1-.11-2.07-.23-3.06-.36s-2.08-.25-3.09-.45a46.47,46.47,0,0,1-6.1-1.52,17.76,17.76,0,0,1-5.67-3,5.11,5.11,0,0,1-1.79-2.8,4.06,4.06,0,0,1,.75-3,3.79,3.79,0,0,0,0,2.83,4.14,4.14,0,0,0,1.88,1.91,17.22,17.22,0,0,0,5.47,1.71,71.39,71.39,0,0,0,11.84.81c4,0,8,0,12-.31,2-.13,3.92-.3,5.82-.6a25.77,25.77,0,0,0,5.34-1.28,6.73,6.73,0,0,0,1.91-1c.42-.39.48-.56.51-.82.08-.72-.6-1.84-2-2.7a18.9,18.9,0,0,0-5-2.07c-1.83-.51-3.74-.92-5.69-1.26-3.89-.64-7.88-1.08-11.9-1.39S607.58,682.75,603.5,682.5Z"/><line class="cls-23" x1="644.5" y1="693.5" x2="644.5" y2="707.5"/><path d="M593.5,705.5a24,24,0,0,0,5.51,2.8c.93.41,1.93.66,2.88,1s2,.52,3,.75a55,55,0,0,0,12.08,1.14c2,.06,4.06-.12,6.11-.22s4.07-.45,6.12-.58c2-.34,4.09-.59,6.15-.9s4.09-.73,6.2-1c-1.91.88-3.87,1.64-5.84,2.41s-4,1.23-6.09,1.78c-1,.21-2.08.42-3.12.6s-2.09.42-3.15.5l-3.18.3a31.2,31.2,0,0,1-3.21.08,51.1,51.1,0,0,1-6.41-.42l-3.17-.59c-1.05-.25-2.08-.57-3.11-.87s-2-.74-3-1.17a32.16,32.16,0,0,1-2.85-1.5A17.24,17.24,0,0,1,593.5,705.5Z"/></g><path id="SVGID-3" data-name="SVGID" class="cls-20" d="M571.5,702.5s7-26,14-30,11-2,11-2,5-15,15-21,22-3,22-3,19-16,27-19,15,3,15,3,43,17,47,22,4,17,4,18,19,22,20,24,0,18,0,18,9,18,10,23-12,19-12,19-23-5-41,0-36,16-44,16-22-7-23-9,5-13,3-19-16-16-20-15-7,11-13,15-26,7-30,4-2-10,1-14,12-9,12-15S582.5,701.5,571.5,702.5Z"/><path class="cls-10" d="M421.5,767.5l-9,17s4,7,20,19a62.47,62.47,0,0,0,34,12l11-15Z"/><path d="M421.5,767.5c-1.45,3-2.83,6-4.18,8.9s-2.68,5.73-4,8.53l0-.88a46.59,46.59,0,0,0,5.17,5.81c1.89,1.84,3.9,3.57,5.93,5.27s4.12,3.33,6.24,4.93c1.07.78,2.14,1.59,3.21,2.33s2.13,1.5,3.25,2.15a62.13,62.13,0,0,0,14.21,6.32,63.64,63.64,0,0,0,7.57,1.82,50.78,50.78,0,0,0,7.63.82l-1.61.82,11.06-15,.58,2.78-13.6-8.29-13.6-8.52-13.76-8.79Zm0,0L435.43,775l14.24,7.71,14.4,8,14.4,8.21a1.89,1.89,0,0,1,.71,2.58,1,1,0,0,1-.11.17l0,0-10.94,15,0,0a1.93,1.93,0,0,1-1.59.78c-1.51,0-2.84-.15-4.23-.32s-2.74-.38-4.1-.63a71.24,71.24,0,0,1-8-2,62,62,0,0,1-14.91-7.07c-1.18-.72-2.26-1.58-3.39-2.38s-2.12-1.68-3.18-2.52c-2.08-1.73-4.15-3.47-6.14-5.32s-3.93-3.74-5.76-5.75c-.91-1-1.81-2-2.66-3.11a26.86,26.86,0,0,1-2.4-3.44l0,0a.88.88,0,0,1,0-.85c1.67-2.86,3.32-5.72,5-8.47Z"/><ellipse class="cls-24" cx="451.22" cy="784.01" rx="10.54" ry="31.08" transform="translate(-453.35 779.12) rotate(-59.77)"/><path class="cls-25" d="M716.5,591.5s0,1-2-5,27-51,32-52,20,10,22,13-.82,22.76-7,31c-18,24-38,19-38,19Z"/><path class="cls-10" d="M748.5,537.5s9,3,3,19-21,28-25,30a9.66,9.66,0,0,1-8,0"/><path d="M748.5,537.5c2.84.81,4.92,3.64,5.54,6.59a19.68,19.68,0,0,1-.24,9,47,47,0,0,1-7.37,16.05A70.28,70.28,0,0,1,740.9,576a66.09,66.09,0,0,1-6.4,6,40.29,40.29,0,0,1-7.32,5,9.32,9.32,0,0,1-8.68-.46,9.41,9.41,0,0,0,8-.83,29.53,29.53,0,0,0,3.32-2.57c1.07-.92,2.13-1.86,3.14-2.86a85.7,85.7,0,0,0,11-12.84,58.19,58.19,0,0,0,4.36-7.2c.68-1.23,1.22-2.52,1.79-3.8.29-.63.49-1.3.75-1.95a25.51,25.51,0,0,0,1.73-10.1,12.33,12.33,0,0,0-.36-2l-.36-1c-.13-.32-.31-.61-.45-.92A7.6,7.6,0,0,0,748.5,537.5Z"/><path class="cls-4" d="M801.5,597.5c-6-17-18-23-18-23,14-6,18-31,18-31s7,27,19,31C820.5,574.5,800.5,576.5,801.5,597.5Z"/><path d="M801.56,597.79a15.25,15.25,0,0,0-1.11-1.48c-.22-.3-.44-.64-.65-1l-.3-.51-.26-.39c-.7-1-1.3-2.08-2-3l-1-1.48L795,588.48c-.35-.48-.74-.94-1.13-1.38s-.75-.93-1.15-1.36a52.9,52.9,0,0,0-5-4.92c-.44-.39-.89-.75-1.35-1.1s-.91-.7-1.37-1.05-.94-.65-1.4-.95l-.7-.45-.62-.36-.18-.11a2.68,2.68,0,0,1,.32-4.78,22.94,22.94,0,0,0,6.78-4.48,30.82,30.82,0,0,0,5.57-6.93,35.74,35.74,0,0,0,3.57-8.39,44.23,44.23,0,0,0,1.68-9,1.45,1.45,0,0,1,2.8-.39l.09.25c1.06,2.85,2.35,5.69,3.65,8.45s2.62,5.5,4.1,8.1a45.27,45.27,0,0,0,4.94,7.18,15.92,15.92,0,0,0,5.88,4.63l.21.07a3.15,3.15,0,0,1-.89,6.1l-.77.1-.88.16c-.59.11-1.19.25-1.78.41a26.11,26.11,0,0,0-3.45,1.21,19.65,19.65,0,0,0-6,4,18.52,18.52,0,0,0-4.13,6.18,24,24,0,0,0-1.22,3.76c-.18.65-.28,1.31-.43,2a8.9,8.9,0,0,1-.26,1.31C801.74,597.18,801.61,597.51,801.56,597.79Zm-.12-.58a3.18,3.18,0,0,0-.35-1,1.77,1.77,0,0,1-.27-.76c-.06-.71-.18-1.43-.19-2.15a21.47,21.47,0,0,1,.26-4.37,19.4,19.4,0,0,1,3.49-8.38,22.24,22.24,0,0,1,7-6.1,26.14,26.14,0,0,1,4.21-1.91c.72-.26,1.46-.49,2.21-.69.38-.1.76-.19,1.15-.27s.73-.14,1.27-.21l-.69,6.17a15.44,15.44,0,0,1-5.06-2.81,24.74,24.74,0,0,1-3.7-3.84,45,45,0,0,1-5.08-8.6,61.89,61.89,0,0,1-3.43-9,94.6,94.6,0,0,1-2.15-9.35l2.89-.14c-.43,1.59-.86,3.07-1.36,4.58s-1,3-1.46,4.47c-1,3-2.1,5.91-3.3,8.84-.59,1.48-1.23,2.94-2,4.39a32,32,0,0,1-2.5,4.24,19.28,19.28,0,0,1-7.82,6.73l.14-4.89a10.58,10.58,0,0,1,1,.56c.31.18.59.36.88.55.58.37,1.1.78,1.64,1.19a30.1,30.1,0,0,1,3,2.62,36.82,36.82,0,0,1,7,9.45l.86,1.74.73,1.8c.51,1.18.83,2.44,1.22,3.65l.12.46,0,.35c0,.24,0,.48,0,.76A7.16,7.16,0,0,0,801.44,597.21Z"/><path class="cls-4" d="M390.5,863.5c-.63,15,18-39,18-39-14-4-30-38-30-38s7,31-14,40C364.5,826.5,391.5,839.5,390.5,863.5Z"/><path d="M390.8,863.51a12,12,0,0,0,0,1.47,2.5,2.5,0,0,0,.13.65.27.27,0,0,0,.05.12s0,.06.05.06,0,0,0,0,0,0,0,0a3.22,3.22,0,0,0,.85-1,13.27,13.27,0,0,0,.73-1.28A44.08,44.08,0,0,0,395,858c1.34-3.78,2.37-7.68,3.47-11.55s2.22-7.72,3.52-11.51,2.7-7.55,4.2-11.26l1.67,3.2a18.79,18.79,0,0,1-6-3.6,38.73,38.73,0,0,1-4.48-4.69c-1.34-1.65-2.61-3.33-3.79-5.05s-2.38-3.42-3.52-5.16l-3.4-5.2-3.31-5.25c-2.17-3.53-4.36-7-6.44-10.68l3.35-1.15a56.36,56.36,0,0,1,1.87,11.78,46.29,46.29,0,0,1-1,12.08,33.32,33.32,0,0,1-1.91,6,29.35,29.35,0,0,1-3.2,5.58,25,25,0,0,1-4.58,4.67,26.51,26.51,0,0,1-5.64,3.26l.13-5.83c1.06.55,1.91,1,2.83,1.6s1.76,1.13,2.62,1.72a55.36,55.36,0,0,1,4.94,3.84,44.86,44.86,0,0,1,8.15,9.45,41.72,41.72,0,0,1,5,11.29A39.46,39.46,0,0,1,390.8,863.51Zm-.6,0a25.21,25.21,0,0,0-2.28-11.42,33.16,33.16,0,0,0-6.62-9.4c-1.32-1.38-2.75-2.64-4.18-3.88s-3-2.38-4.49-3.5-3.09-2.2-4.69-3.2l-2.43-1.44c-.8-.45-1.68-.93-2.4-1.26a3.2,3.2,0,0,1-1.52-4.25,3.17,3.17,0,0,1,1.49-1.51l.16-.07a23.87,23.87,0,0,0,4.24-2.5,21.77,21.77,0,0,0,3.52-3.4,25.61,25.61,0,0,0,4.54-9.1,36.21,36.21,0,0,0,1.09-5.23,54.22,54.22,0,0,0,.5-5.43c.1-1.83.09-3.67.05-5.52a51.71,51.71,0,0,0-.42-5.49l0-.26a1.76,1.76,0,0,1,3.38-.89,113.51,113.51,0,0,0,5.09,11.13c.95,1.81,1.95,3.6,3,5.34s2.18,3.46,3.37,5.12a56.34,56.34,0,0,0,8.06,9.07,34.63,34.63,0,0,0,4.67,3.57,15.86,15.86,0,0,0,4.86,2.14,2.32,2.32,0,0,1,1.79,2.74,1,1,0,0,1,0,.17l-.08.29c-1.14,3.89-2.43,7.7-3.89,11.47s-3.12,7.45-4.93,11.08-3.75,7.2-5.65,10.78c-1,1.78-1.92,3.57-3,5.31-.28.43-.54.87-.85,1.29a7.14,7.14,0,0,1-.5.62,1.93,1.93,0,0,1-.73.54.69.69,0,0,1-.84-.32,1,1,0,0,1-.11-.23,3.52,3.52,0,0,1-.16-.81A13.39,13.39,0,0,1,390.2,863.49Z"/><rect class="cls-26" x="0.5" y="0.5" width="971" height="971"/></g></g></g></g></svg>