<svg xmlns="http://www.w3.org/2000/svg" viewBox="0 0 129 121.1"><defs><style>.cls-1{fill:#1d3033;stroke:#1d3033;stroke-linecap:round;stroke-linejoin:round;stroke-width:.66px}.cls-2{fill:#d5ebe5}.cls-3{fill:#fff}.cls-4{fill:none}.cls-5{fill:#8cccba}</style></defs><g id="レイヤー_2" data-name="レイヤー 2"><g id="レイヤー_3" data-name="レイヤー 3"><path class="cls-1" d="M1.53 110.33c-.59.59-1.41 1.39-1.15 2.31 1.1 4 9.38 3.38 12.23 3.23 10-.51 19.6.36 29.06 3.82 8.44 3.07 14.61-1.39 23.15-1.13 9 .28 16.87 3.18 25.61.26 9.35-3.13 19.07-1.36 28.73-2.1a.92.92 0 0 0 .84-.72l-.82.07a.24.24 0 0 1-.28-.25c-7.13.66-14.28-.28-21.38.23-5.61.38-10.82 4.15-16.63 3.36-6.08-.85-12.1-2.13-18.38-1.77-4.51.25-8.54 2.12-12.9 2.56-5.4.57-10-3.15-15.17-4a96.18 96.18 0 0 0-19.76-1.41c-3.46.15-6.64.46-10-.44-6.25-1.66-2.33-3.54 1-5.28a18.76 18.76 0 0 0 8-8.3c3.72-7.18 4.16-15.64 5.06-23.54 1.79-16 5.46-32.27 17.66-43.8 10.27-9.72 25.07-11 37.57-4.79a46.74 46.74 0 0 1 9.39 6c3.51 3 3.51 3 7.89 3.1 7 .26 5.26 4.51 7.36 9.59 1.84 4.77 7 9.2 9.58 14.35a58.28 58.28 0 0 1 5.52 19.87c.74 5.15-.37 11.79 1.48 16.58 1.85 5.87 8.82 5.87 11.77 10.3 3.82 5.54-1.88 6.87-6.85 7.31a.71.71 0 0 1 0 .26c4.44-.41 11.82-2.18 7.25-7.92-1.94-2.44-4.43-3.44-7-5.1-5.18-3.29-5.56-8.36-5.59-14 0-7.92-1-16.07-4-23.45s-10.5-13.31-12.22-21.1c-.84-3.77-1.46-6.33-5.43-7.38-1.77-.46-3.85.15-5.56-.51-2-.77-3.77-2.62-5.39-3.93A45.07 45.07 0 0 0 72.56 27a36 36 0 0 0-19.22-2.74c-13.79 1.56-24.23 13.17-29.25 25.4a94.35 94.35 0 0 0-5.95 23.55c-1.2 9.28-.79 20.79-6.38 28.79a22.39 22.39 0 0 1-7.87 6.87 10.43 10.43 0 0 0-2.36 1.46z"/><path class="cls-2" d="M6.15 109.92A22.83 22.83 0 0 0 16.3 97c4.64-14.68 3-30.53 8.92-45C32 35.46 47.19 21.46 66.31 26.8c7.86 2.2 13 6.94 19.71 11 1.48.9 3.53.62 5.15.8 5.9.56 4.74 4 6 7.56 2.2 6.13 7.46 10.1 10.2 15.89 4 8.56 5.61 17.51 5.82 26.91.1 4.82.33 9.69 3.92 13.26 1.74 1.74 4.33 2.43 6.33 3.77 3 2 4.51 8-.12 8.87a22.93 22.93 0 0 1-3.39.51.74.74 0 0 0-.82-.54c-8.28.61-17.58-1.46-25.61.92-5 1.51-9.27 3.16-14.68 2.31-3.13-.46-6.26-1-9.41-1.28a35.91 35.91 0 0 0-11.61.54c-4.49 1.12-9.18 2.76-13.79 1.07a68.71 68.71 0 0 0-20.61-4.54c-4.31-.23-8.54.11-12.84.06a20.55 20.55 0 0 1-5.69-.59l-1.21-2.13c.85-.42 1.67-.86 2.49-1.27zm38.37-63c-14.18 1.38-7.38 30.09 4.15 27 9.33-1.32 7.97-28.21-4.15-27.05zM83 71.14c11.76-3.77 6.94-30.35-6.08-24.48-6.48 2.92-6.56 12-4.51 17.76 1.36 3.87 6.23 10.46 10.59 6.72z"/><path class="cls-1" d="M119.16 115.51a.29.29 0 0 0-.28.31c-7.13.66-14.28-.28-21.38.23-5.61.38-10.82 4.15-16.63 3.36-6.08-.85-12.1-2.13-18.38-1.77-4.51.25-8.54 2.12-12.9 2.56-5.4.57-10-3.15-15.17-4a96.18 96.18 0 0 0-19.76-1.41c-3.46.15-6.64.46-10-.44-6.25-1.66-2.33-3.54 1-5.28a18.76 18.76 0 0 0 8-8.3c3.72-7.18 4.16-15.64 5.06-23.54 1.79-16 5.46-32.27 17.66-43.8 10.27-9.72 25.07-11 37.57-4.79a46.74 46.74 0 0 1 9.39 6c3.51 3 3.51 3 7.89 3.1 7 .26 5.26 4.51 7.36 9.59 1.84 4.77 7 9.2 9.58 14.35a58.28 58.28 0 0 1 5.52 19.87c.74 5.15-.37 11.79 1.48 16.58 1.85 5.87 8.82 5.87 11.77 10.3 3.82 5.54-1.88 6.87-6.85 7.31a.7.7 0 0 0 0-.31zm4.21-.61c4.63-.9 3.1-6.85.12-8.87-2-1.34-4.59-2-6.33-3.77-3.59-3.57-3.82-8.44-3.92-13.26-.21-9.4-1.77-18.35-5.82-26.91-2.74-5.79-8-9.76-10.2-15.89-1.31-3.59-.15-7-6-7.56-1.62-.18-3.67.1-5.15-.8-6.74-4.1-11.85-8.84-19.71-11C47.19 21.46 32 35.46 25.22 52c-5.9 14.45-4.28 30.3-8.92 45a22.83 22.83 0 0 1-10.15 12.92c-.82.41-1.64.85-2.44 1.31l1.21 2.13a20.55 20.55 0 0 0 5.69.59c4.3 0 8.53-.29 12.84-.06a68.71 68.71 0 0 1 20.61 4.54c4.61 1.69 9.3 0 13.79-1.07a35.91 35.91 0 0 1 11.61-.54c3.15.23 6.28.82 9.41 1.28 5.41.85 9.64-.8 14.68-2.31 8-2.38 17.33-.31 25.61-.92a.74.74 0 0 1 .82.54 22.93 22.93 0 0 0 3.39-.51zM22.17 19.85C16.35 17 12.48 24 15 28.9a4.82 4.82 0 0 0 2.54 2.43 2.24 2.24 0 0 0 1.69 0 5.63 5.63 0 0 1-.92.1c-.36 0-.46-.59-.08-.67l.34-.07c-4.69-.7-4.82-11 1.23-10.64s4.38 9.18-.31 10.82a.55.55 0 0 1-.26.43c4.58-.97 8.01-9.02 2.94-11.45z"/><path class="cls-1" d="M17.09 28.92a5.75 5.75 0 0 1-1.07-4c.12-1.49.76-3.41 2.43-3.82s3.64.08 4.18 1.82a6.62 6.62 0 0 1-3.26 7.48.58.58 0 0 1 .1.36.44.44 0 0 1 0 .16c4.69-1.64 6.43-10.49.31-10.82s-5.94 9.9-1.25 10.62c.28-.11.54-.21.82-.34-.35-.66-1.8-.89-2.26-1.46z"/><path class="cls-2" d="M16 24.9a5.75 5.75 0 0 0 1.07 4c.46.57 1.9.8 2.28 1.46a6.62 6.62 0 0 0 3.26-7.48c-.54-1.74-2.62-2.23-4.18-1.82S16.14 23.41 16 24.9z"/><path class="cls-1" d="M19.45 30.9a.44.44 0 0 0 0-.16.58.58 0 0 0-.1-.36c-.28.13-.54.23-.82.34l-.34.07c-.38.08-.28.67.08.67a5.63 5.63 0 0 0 .92-.1.55.55 0 0 0 .26-.46z"/><path class="cls-3" d="M49.31 72c-6.15-.44-9.61-4.26-10.56-10.62-.74-4.84.31-13.74 7.23-13.2 8.87.76 9.13 18.47 3.33 23.82zm-1-9.28c0 .41.49.77.82.38 1-1.2 1.11-3.15 1-4.64 0-1.1-.1-3.15-1.28-3.74-1.38-.69-2.84 1-3.33 2.13A5 5 0 0 0 47.36 63a.66.66 0 0 0 1-.24z"/><path class="cls-1" d="M38.75 61.42c-.74-4.84.31-13.74 7.23-13.2 8.87.72 9.13 18.43 3.33 23.82a6.39 6.39 0 0 0 .64 0 .57.57 0 0 1 .39.18c6-5.62 4.23-28.53-7.39-24.22-9.38 3.48-5.63 25.29 5 25a4.85 4.85 0 0 0 1.36-1c-6.15-.4-9.61-4.22-10.56-10.58z"/><path class="cls-1" d="M48 73c-10.63.33-14.38-21.48-5-25 11.62-4.31 13.36 18.6 7.39 24.22a.59.59 0 0 1-.08 1 7.55 7.55 0 0 1-1.59.62c9.33-1.26 8-28.15-4.15-27-14.18 1.38-7.38 30.09 4.15 27a5.29 5.29 0 0 1-.56 0 .46.46 0 0 1-.23-.85s0 .01.07.01z"/><path class="cls-1" d="M47.36 63a5 5 0 0 1-1.74-6.15c.49-1.13 2-2.82 3.33-2.13 1.18.59 1.26 2.64 1.28 3.74.06 1.49 0 3.44-1 4.64-.33.39-.82 0-.82-.38a.66.66 0 0 1-1.05.28zm1-.39l.41.13c1.49-2.2 1.13-11.4-2.56-5.89a4.16 4.16 0 0 0 1.46 5.51l.67.23v.1c0 .02.05-.01.07-.04z"/><path class="cls-1" d="M48.41 62.53v.1l-.67-.23a4.16 4.16 0 0 1-1.46-5.51c3.69-5.51 4.05 3.69 2.56 5.89l-.41-.13a.43.43 0 0 0 .06-.21s-.05.06-.08.09zm.34-6.05c-.34-1.16-1-.64-1.56.07a3.41 3.41 0 0 0 .92 5.21.7.7 0 0 1 .36.61 9.5 9.5 0 0 0 .28-5.89z"/><path class="cls-1" d="M47.19 56.55a3.41 3.41 0 0 0 .92 5.21.7.7 0 0 1 .36.61 9.5 9.5 0 0 0 .28-5.89c-.34-1.16-.98-.64-1.56.07zM49.7 72.78A7.13 7.13 0 0 1 48 73h-.07a.46.46 0 0 0 .23.85 5.29 5.29 0 0 0 .56 0 7.55 7.55 0 0 0 1.59-.62.59.59 0 0 0 .08-1 4.34 4.34 0 0 1-.69.55zM48.39 62.63V62.65zM48.41 62.53v.1a.43.43 0 0 0 .06-.21s-.03.08-.06.11z"/><path class="cls-1" d="M48 73a7.13 7.13 0 0 0 1.75-.23 4.34 4.34 0 0 0 .64-.51.57.57 0 0 0-.39-.18 6.39 6.39 0 0 1-.64 0A4.85 4.85 0 0 1 48 73zM76.89 46.66c-6.48 2.92-6.56 12-4.51 17.76 1.39 3.87 6.26 10.46 10.59 6.72l-.51.15a.43.43 0 0 1-.52-.54c-8.74 4.13-14.2-18.53-5.48-23.07 12.22-6.3 16.84 16.67 7.46 22.43 0 0 0 .06-.06.08a7.39 7.39 0 0 1-.89 1c11.76-3.82 6.94-30.4-6.08-24.53z"/><path class="cls-3" d="M88.14 57.27c.42 4.82-.71 9.15-4.3 12a.44.44 0 0 0-.54-.1c-2.46 1-4.56 2-6.66-.36a14.59 14.59 0 0 1-3.21-6.46c-1.1-4.9-1.23-12.9 4.82-14.69s9.46 4.34 9.89 9.61zm-3.3 4.2v-.1c3.62-2.21.29-10-3.35-6.77-1.54 1.36-1 4.28-.34 6 .64 1.4 2.74 3.16 3.69.87z"/><path class="cls-1" d="M73.43 62.4c-1.1-4.9-1.23-12.9 4.82-14.69s9.46 4.31 9.89 9.56c.42 4.82-.71 9.15-4.3 12a.82.82 0 0 1 .08.79c9.38-5.76 4.76-28.73-7.46-22.43-8.72 4.54-3.26 27.2 5.48 23.07a.26.26 0 0 1 .18-.25 11.33 11.33 0 0 0 1.72-1.18.44.44 0 0 0-.54-.1c-2.46 1-4.56 2-6.66-.36a14.59 14.59 0 0 1-3.21-6.41z"/><path class="cls-1" d="M81.51 54.58c-1.54 1.36-1 4.28-.34 6 .62 1.51 2.72 3.23 3.67.94v-.1a4.48 4.48 0 0 1-.58.29.31.31 0 0 1-.19 0C81.74 63 80.25 56.43 82 55c3.13-2.41 5.28 3.64 2.72 5.92a.34.34 0 0 1 .17.39c3.59-2.17.26-9.96-3.38-6.73z"/><path class="cls-1" d="M82 55c-1.72 1.39-.23 7.92 2.1 6.62a.41.41 0 0 1-.18-.59c-1 0-1.41-.77-1.69-1.77s-.72-2.92.13-3.7c1.3-1.2 2.48.19 2.77 1.52A4 4 0 0 1 83.92 61a1.52 1.52 0 0 0 .54-.11.34.34 0 0 1 .2 0c2.59-2.21.44-8.26-2.66-5.89zM81.94 70.75a.43.43 0 0 0 .52.54l.51-.15a7.39 7.39 0 0 0 .89-1l.06-.08a.82.82 0 0 0-.08-.79 11.33 11.33 0 0 1-1.72 1.18.26.26 0 0 0-.18.3z"/><path class="cls-1" d="M82.33 55.6c-.85.78-.39 2.77-.13 3.7s.74 1.79 1.69 1.77a4 4 0 0 0 1.18-3.92c-.26-1.36-1.44-2.75-2.74-1.55zM82.15 5.21c-.15 2.51 2.13 4.26 4.51 4.23a.45.45 0 0 1-.1-.82c-7.44-.87-2-10.25 3.51-6.59 3.48 2.41 1.05 6.82-2.64 7a.8.8 0 0 1-.67.41h-.08a.1.1 0 0 0 .08 0c1.67.15 3.23 0 4.44-1.29a4.45 4.45 0 0 0 1.38-3.79C92.22 1.6 88.89-.25 86.22.49a5.57 5.57 0 0 0-4.07 4.72z"/><path class="cls-1" d="M87 7.9c-1.47-.38-3.46-.69-3.18-2.69a3.81 3.81 0 0 1 2.46-2.95c1.64-.53 4.13.18 4.54 2.11s-1.41 3.74-3.26 4.15a1.22 1.22 0 0 1-.1.51c3.69-.18 6.12-4.59 2.64-7-5.46-3.66-10.95 5.72-3.51 6.59a.32.32 0 0 1 .18 0 3.64 3.64 0 0 0 .74-.07.7.7 0 0 0-.51-.65z"/><path class="cls-2" d="M83.79 5.21c-.28 2 1.71 2.31 3.18 2.69a.7.7 0 0 1 .53.62c1.85-.41 3.69-2.26 3.26-4.15s-2.9-2.64-4.54-2.11a3.81 3.81 0 0 0-2.43 2.95z"/><path class="cls-1" d="M83.89 61.07a.41.41 0 0 0 .18.59 2.11 2.11 0 0 0 .47-.36h-.39a3.54 3.54 0 0 0 .49-.34.34.34 0 0 0-.2 0 1.52 1.52 0 0 1-.54.11z"/><path class="cls-1" d="M84.09 61.66a.31.31 0 0 0 .19 0 4.48 4.48 0 0 0 .58-.29.34.34 0 0 0-.17-.39 3.54 3.54 0 0 1-.49.34h.39a2.11 2.11 0 0 1-.5.34zM86.58 8.62a.45.45 0 0 0 .1.82h.1a.8.8 0 0 0 .65-.44 1.22 1.22 0 0 0 .1-.51 3.64 3.64 0 0 1-.74.07.32.32 0 0 0-.21.06zM94.94 13.11c-5.26 2.53-5.31 8.12-2.13 12.48 1.18 1.62 6 6.92 7.82 3.49-.28.07-.59.12-.9.18h-.15C96 30.46 85.17 17.46 96 13.44c9.87-3.87 13.33 12.2 4.85 15.15a.38.38 0 0 1 0 .18l-.15.31c10.03-2.41 5.3-21.3-5.76-15.97z"/><path class="cls-2" d="M96.14 14.11c-4.94 1.79-4.69 6.46-2.25 10.25.61.92 3.71 4.67 5.51 4.26a.16.16 0 0 1 .1-.05s.1 0 .13-.05a.35.35 0 0 0 .13-.08.7.7 0 0 0 .21-.21.4.4 0 0 1 .54-.1c7.49-3.56 4.63-17.25-4.37-14.02z"/><path class="cls-1" d="M93.89 24.36c-2.44-3.79-2.69-8.46 2.25-10.25 9-3.23 11.9 10.46 4.44 14a.67.67 0 0 1 .23.49c8.48-2.95 5-19-4.85-15.15-10.79 4 0 17 3.62 15.82a.37.37 0 0 1-.18-.64c-1.8.37-4.9-3.35-5.51-4.27z"/><path class="cls-1" d="M100.19 28.77a3.68 3.68 0 0 0 .59-.18.67.67 0 0 0-.23-.49 2.13 2.13 0 0 1-.75.31.35.35 0 0 1-.13.08.46.46 0 0 1-.23.1.37.37 0 0 0 .18.64 1 1 0 0 0 .57-.46z"/><path class="cls-1" d="M99.55 28.54a.16.16 0 0 0-.1.05.46.46 0 0 0 .23-.1s-.08.02-.13.05zM99.58 29.26h.15c.31-.06.62-.11.9-.18l.15-.31a.38.38 0 0 0 0-.18 3.68 3.68 0 0 1-.59.18 1 1 0 0 1-.61.49zM99.83 28.41a2.13 2.13 0 0 0 .75-.31.4.4 0 0 0-.54.1.7.7 0 0 1-.21.21zM118.88 115.82h.28c.28 0 .57-.05.87-.05a.7.7 0 0 0 0-.31l-.82.08a.29.29 0 0 0-.33.28z"/><path class="cls-1" d="M119.16 115.79h-.28a.24.24 0 0 0 .28.25l.84-.04a.71.71 0 0 0 0-.26c-.27 0-.56.03-.84.05z"/><path class="cls-3" d="M71.67 37c5.52-1.84-5.52-8.83-6.26-4.78-.37 3.31 6.26 4 6.63 4"/><path class="cls-4" d="M71.67 37c5.52-1.84-5.52-8.83-6.26-4.78-.37 3.31 6.26 4 6.63 4"/><path class="cls-3" d="M71.54 36.86c.5-.4 1.15-.79 1.15-1.5s-.69-1.27-1.09-1.67a7.5 7.5 0 0 0-4.38-2.1c-.6 0-1.13.17-1.16.84-.06 1 1.08 1.65 1.9 2a12.65 12.65 0 0 0 2.78.73 9 9 0 0 1 1 .16 1 1 0 0 1 .54.42c.28.48 0 .05-.14 0a.54.54 0 0 1 0 1c-.21.07.09 0 .14-.11a.9.9 0 0 1-.79.45 9.1 9.1 0 0 1-3.3-.85A6.11 6.11 0 0 1 65.17 34c-1.24-2 .27-3.88 2.39-3.63A8.49 8.49 0 0 1 73 33.56c1.1 1.47.87 3.57-1.33 3.6-.15 0-.26-.2-.13-.3z"/><path class="cls-5" d="M45.06 109.54c17.11-4.28 35.29 4.27 51.33-6.42-20.32-3.21-23.52-19.25-46-12.83-6.42 2.13-16-1.07-12.83 11.76 2.13 5.35 5.34 7.49 12.83 6.41"/><path class="cls-4" d="M45.06 109.54c17.11-4.28 35.29 4.27 51.33-6.42-20.32-3.21-23.52-19.25-46-12.83-6.42 2.13-16-1.07-12.83 11.76 2.13 5.35 5.34 7.49 12.83 6.41"/><path class="cls-5" d="M45 109.16c11.58-3.08 23.71-.28 35.49-1.22a36.66 36.66 0 0 0 11.76-3.13c4.63-2-.41-2-2.67-2.77A49.76 49.76 0 0 1 79 96.75c-9.47-5.81-17.1-8.84-28.39-5.88-3.15.83-6.43.87-9.58 1.7-5.28 1.4-3.46 8.57-1.65 11.8 2.33 4.13 7.06 3.92 11.07 3.51.75-.07.73 1.08 0 1.17-8 1-12.95-2.34-14-10.55-.81-6.3 4.75-7.42 9.67-8 8.88-1 15.7-3.73 24.44 0 9.13 3.86 15.9 10.23 26 12.06a.62.62 0 0 1 .14 1.12c-15.77 9.72-34.26 3.22-51.53 6.26-.5.09-.71-.62-.22-.75z"/><path class="cls-5" d="M72.87 92.42a27 27 0 0 0 16-2.13c-7.49-5.35-22.46-11.77-24.6 1.07"/><path class="cls-4" d="M72.87 92.42a27 27 0 0 0 16-2.13c-7.49-5.35-22.46-11.77-24.6 1.07"/><path class="cls-5" d="M72.87 92.08a32.68 32.68 0 0 0 13.36-1.3c2.78-.87.71-1.13-.85-2.06a40.87 40.87 0 0 0-3.72-1.92c-6.66-3.11-14.78-4.06-16.85 4.69-.15.66-1.12.38-1-.27C66.24 77.78 82 84.76 89.2 89.79a.59.59 0 0 1 0 1 25.85 25.85 0 0 1-16.42 2 .34.34 0 0 1 .09-.67z"/></g></g></svg>