<svg xmlns="http://www.w3.org/2000/svg" viewBox="0 0 148.79 146.19"><defs><style>.cls-1{fill:#1d3033;stroke:#1d3033;stroke-linecap:round;stroke-linejoin:round;stroke-width:.66px}.cls-2{fill:#382646}.cls-4{fill:#cfc338}</style></defs><g id="レイヤー_2" data-name="レイヤー 2"><g id="レイヤー_3" data-name="レイヤー 3"><path class="cls-1" d="M148.23 96.89c-.16.08-.31.13-.49.21 0-.26 0-.52-.05-.77.2.2.38.41.54.56z"/><path class="cls-1" d="M147.74 97.1c.18-.08.33-.13.49-.21-.16-.15-.34-.36-.54-.56-.21-4.87-1.82-9.51-1.82-14.41-2.08 2.08-5.62 2.72-8.67 1.92.16-.23.31-.46.49-.69 2.31.36 6.64.82 7.77-1.48.23-.47.87-.19.89.25.49 5.2 1.88 10.25 2.11 15.48a.73.73 0 0 1-1.23.49c-1.7-1.62-3.41-3.38-6-2.13-.59.28-1.39.8-2.08.57-2.36-.85-3.51-3.13-5-5a2.94 2.94 0 0 0 .43-.82c2 2.05 2.46 4.51 4.77 5.07.62.31 2.77-1.54 4-1.23s2.65 1.39 3.65 2.31a6.11 6.11 0 0 1 0 .74l.51-.2.21.2z"/><path class="cls-1" d="M147.74 97.1v.3l-.21-.2a1.25 1.25 0 0 1 .21-.1z"/><path class="cls-1" d="M147.69 96.33c0 .25.05.51.05.77a1.25 1.25 0 0 0-.21.1l-.54-.54c0-.36 0-.72-.05-1.08.29.26.52.52.75.75z"/><path class="cls-1" d="M147.53 97.2l-.51.2a6.11 6.11 0 0 0 0-.74zM147.69 96.33c-.23-.23-.46-.49-.75-.75-.18-2.31-.59-4.56-.95-6.84a33.72 33.72 0 0 1-.51-3.49c0-.33.31-3-.77-2.15a8.4 8.4 0 0 1-8 1.41.19.19 0 0 1-.1-.05.37.37 0 0 0 .33-.18 3 3 0 0 0 .28-.44c3.05.8 6.59.16 8.67-1.92-.02 4.9 1.59 9.54 1.8 14.41zM146.94 95.58c0 .36.05.72.05 1.08-1-.92-2.38-2.13-3.58-2.36s-3.41 1.54-4 1.23c-2.31-.56-2.74-3-4.77-5.07a1.66 1.66 0 0 0 .13-.8.33.33 0 0 0-.49-.28 3 3 0 0 0-.89.79.78.78 0 0 1 1.28-.76 17.11 17.11 0 0 1 2.82 3.51c1.56 2.28 3.15 1.15 5.15.61 1.46-.38 3.07.85 4.3 2.05z"/><path class="cls-2" d="M146 88.74c.36 2.28.77 4.53.95 6.84-1.23-1.2-2.84-2.43-4.33-2-2 .54-3.59 1.67-5.15-.61a17.11 17.11 0 0 0-2.82-3.51.78.78 0 0 0-1.28.76c-.87 1-1.77 2.52-3 1.52-1.39-1.13-1.67-3.31-2.23-4.87a.22.22 0 0 0-.21-.16c.49-.41 0-1.25-.59-.89a12.07 12.07 0 0 0-3.28 3.12c-1.1-2.79-3.28-4.41-6.07-3.17.51-4.13-.74-8.16-4.64-8.77a63.57 63.57 0 0 1 9-4.87c.56 4 1.41 11.84 6.46 11.51a.4.4 0 0 0 .23-.1.56.56 0 0 0 .46-.65 31.13 31.13 0 0 1-.26-6.15c1.08 1.69 1.87 3.56 3 5.23a.62.62 0 0 0 .87.23 39.33 39.33 0 0 1 6.61-3.82 15.59 15.59 0 0 0-3.36 4.9.74.74 0 0 0-.23.82.38.38 0 0 0 .39.39.19.19 0 0 0 .1.05 8.4 8.4 0 0 0 8-1.41c1.08-.82.75 1.82.77 2.15a33.72 33.72 0 0 0 .61 3.46z"/><path class="cls-1" d="M142.66 133.9a1 1 0 0 1-.69 1.67c-7.13-.1-15-1.15-21.38 2.9-3.92 2.48-8.1 6.17-12.81 7A18.05 18.05 0 0 1 96.06 144c-5.56-2.8-11.22-8.1-17.79-7.9-11.12.34-19.4 9.46-31.12 6.87-6-1.33-10.91-4.43-16.63-6.38-3.18-1.08-6.46-2.05-9-4.23a.33.33 0 0 0 .43-.07c2.87 2.25 8.31 3.1 11.51 4.66 7.84 3.82 15.69 7.05 24.69 4.72 7.86-2 13.38-7.62 22.09-6.44 8.08 1.08 13.54 8.33 21.61 9.49 7.64 1.07 12.28-3.54 18.25-7.18 6.46-3.95 13.3-3.13 20.46-3 .25.23.48.46.74.72.1-.23.18-.46.28-.69h.42a1.85 1.85 0 0 0-.28-.28c.1-.24.18-.47.28-.7h-1c-3.77-3.79-8.21-6.84-11.67-11.1a88.91 88.91 0 0 1-9.51-14.94c-5.43-10.64-9.28-22-14.27-32.84l.41-.15c5.41 10.61 9 22 14.61 32.55 3 5.69 6.33 11.77 10.89 16.38 3.59 3.67 7.61 6.8 11.2 10.41z"/><path class="cls-1" d="M142 133.62c-.1.23-.18.46-.28.7a9.17 9.17 0 0 0-.69-.7zM142 134.6h-.41l.13-.28a1.85 1.85 0 0 1 .28.28z"/><path class="cls-1" d="M141.69 134.32l-.13.28h-1c-.34-.33-.67-.67-1-1h1.46a9.17 9.17 0 0 1 .67.72zM141.05 77a.37.37 0 0 1 .51.51c-1.23 1.92-2.59 3.79-3.87 5.69a4.55 4.55 0 0 0-.59-.1 38.82 38.82 0 0 1 3.69-5.15 5.05 5.05 0 0 1 .59-.26c-.05-.1-.13-.21-.18-.31s0 0 .08-.08-.08 0-.11.06L141 77h.05z"/><path class="cls-1" d="M141.56 134.6c-.1.23-.18.46-.28.69-.26-.26-.49-.49-.74-.72.33.03.69.03 1.02.03zM141.15 77.33c0 .1.13.21.18.31a5.05 5.05 0 0 0-.59.26 4.05 4.05 0 0 0 .41-.57zM141.23 77.25s0 .06-.08.08.05-.05.08-.08z"/><path class="cls-1" d="M141.15 77.33a4.05 4.05 0 0 1-.41.57c-.33.13-.64.28-1 .43.21-.25.44-.48.64-.71l.69-.31s.08 0 .08.02z"/><path class="cls-1" d="M141 77l.15.31-.69.31zM141 133.62h-1.46c-4.18-4-8.64-7.59-12.21-12.18a78.17 78.17 0 0 1-8.22-13.44c-5.31-10.74-9.54-22-14-33.12h.08l.36-.13c5 10.85 8.84 22.2 14.27 32.84a88.91 88.91 0 0 0 9.51 14.94c3.46 4.25 7.9 7.3 11.67 11.09z"/><path class="cls-1" d="M141 77l-.54.62a41.17 41.17 0 0 0-7 3.61 5.22 5.22 0 0 1-.33-.54c2.43-1.62 5.15-2.49 7.87-3.69zM139.79 78.33c.31-.15.62-.3 1-.43a38.82 38.82 0 0 0-3.69 5.15.65.65 0 0 0-.62.18 15.59 15.59 0 0 1 3.31-4.9zM139.54 133.6c.33.3.66.64 1 1-7.16-.13-14-.95-20.46 3-6 3.64-10.61 8.25-18.25 7.18-8.07-1.16-13.53-8.41-21.61-9.49-8.71-1.18-14.23 4.41-22.09 6.44-9 2.33-16.85-.9-24.69-4.72-3.2-1.56-8.64-2.41-11.51-4.66a.37.37 0 0 0-.08-.54 10.79 10.79 0 0 0-1-.64.35.35 0 0 1 .44.05c3.71 3.33 9.94 4 14.48 6 6.82 3 14.59 5.77 22.07 3.51 7.82-2.33 15.79-8.79 24.43-6.12 4.87 1.51 8.69 4.56 13.2 6.81 7 3.52 13 2.59 19.4-1.66 8.41-5.58 15.26-6.24 24.67-6.16z"/><path class="cls-1" d="M140.43 77.62c-.2.23-.43.46-.64.71a39.33 39.33 0 0 0-6.61 3.82.62.62 0 0 1-.87-.23c-1.16-1.67-1.95-3.54-3-5.23a7.85 7.85 0 0 1 .16-1c1.2 1.76 2.07 4.12 3.43 6l.46-.34h.11a41.17 41.17 0 0 1 6.96-3.73z"/><path d="M139.54 133.6c-9.41-.08-16.26.58-24.64 6.15-6.41 4.25-12.4 5.18-19.4 1.66-4.51-2.25-8.33-5.3-13.2-6.81-8.64-2.67-16.61 3.79-24.43 6.12-7.48 2.26-15.25-.49-22.07-3.51-4.54-2-10.77-2.69-14.48-6a.35.35 0 0 0-.44-.05A31.26 31.26 0 0 0 6.63 126c-5.15-.64-4.56-2-2.9-6.61a142.92 142.92 0 0 1 6.56-14.69c7.9-15.74 16.69-31.45 26-46.42a.28.28 0 0 0 0-.23.62.62 0 0 0 .1-.41c-.74-4.95-3.18-9-2.46-14.1 3.92.1 7.38 1.31 11.15 2.16v.1c.08.28.52.46.72.2 0 0 .08-.13.13-.18a.4.4 0 0 0 .31-.49c.59-1 .92-2.25 1.46-3.33.82-1.59 2-3 2.67-4.64 1.87.72 2.3-3 0-2.44-5.41 1.26-6.44-7-6.51-10.09-.11-3.59 1.58-6.85 3.48-9.77 2.87-4.41 7.05-7.87 10.46-11.92.31 8.15-1.51 16.74 2.92 24a.59.59 0 0 0 1.08-.46 34.36 34.36 0 0 0 5.53-.44.55.55 0 0 0 .9-.13.56.56 0 0 0 .18-.92c.31-1.62.62-3.23 1-4.85 1.64 1.77 3.05 2.95 5.79 3 2.36.05 6.46-6.53 7.23-3.23 1.23 5.44 6.89 4.39 11.22 3.64a57.7 57.7 0 0 0-3.33 6.62.63.63 0 0 0 .18.69.25.25 0 0 0 .08.31 22.36 22.36 0 0 1 2.79 2.1A10.72 10.72 0 0 0 96 35.63a.62.62 0 0 0 .74-.13c9.92 1.33 17.23-6 20.38-14.77a24.89 24.89 0 0 0 .82-3.22c-.28 1.28 1.08 3.33 1.39 4.71a30.27 30.27 0 0 1-.13 12.43c-1.59 8-8.9 10.21-14.84 14.1l-.08-.36a.23.23 0 0 0-.46.06 4.86 4.86 0 0 0 0 .66.62.62 0 0 0 0 1.07c0 1.26.1 2.52.16 3.74 0 1.62-.18 3.31.33 4.85a.41.41 0 0 0 .31.28c0 .05 0 .1.12.13 4.18 1.87 8.23 3.15 11.85 6-3.69 3.31-8.69 4.93-12 8.44a.72.72 0 0 0 .64 1.2c4.46 11.13 8.69 22.38 14 33.12a78.17 78.17 0 0 0 8.22 13.43c3.45 4.63 7.91 8.23 12.09 12.23zM77 78a.57.57 0 0 0-.13-.49.43.43 0 0 0 0-.39c-1.64-4.07-2.85-9-5.41-12.61a.67.67 0 0 0-.74-.31 46.23 46.23 0 0 0-12 7c-.2-.2-.61 0-.51.31 2 5.23 3.59 11.13 6.66 15.84a.9.9 0 0 0 1.18.31C69.53 85.89 75.94 82 77 78zm-9.28 25.29a.37.37 0 0 0 .51-.36c-.15-2.61-.87-6.51-2.69-8.53a.27.27 0 0 0-.31-.05 31.5 31.5 0 0 0-4 3.46 26.38 26.38 0 0 0-2.57 3 .31.31 0 0 0-.43.23c-.41 2.59.87 5.56 1.59 8a.66.66 0 0 0 1.07.28c2.21-2 4.77-3.71 6.8-5.92-.03-.02 0-.05 0-.08z" fill="#332a3e"/><path class="cls-1" d="M137.05 83.05a4.55 4.55 0 0 1 .59.1c-.18.23-.33.46-.49.69a3 3 0 0 1-.28.44.37.37 0 0 1-.33.18.63.63 0 0 1-.39-.39V84a3.74 3.74 0 0 1 .23-.74.65.65 0 0 1 .67-.21z"/><path class="cls-1" d="M136.43 83.23a3.74 3.74 0 0 0-.23.74v.08a.74.74 0 0 1 .23-.82zM136.2 84.07a.63.63 0 0 0 .39.39.38.38 0 0 1-.39-.39zM134.18 90.05c-.16.23-.28.46-.44.66a1.62 1.62 0 0 1-.18-.2 1.21 1.21 0 0 1-.2-.34 3 3 0 0 1 .89-.79.33.33 0 0 1 .49.28 1.66 1.66 0 0 1-.13.8 2.38 2.38 0 0 0-.43-.41z"/><path class="cls-1" d="M134.18 90.05a2.38 2.38 0 0 1 .43.41 2.94 2.94 0 0 1-.43.82c-.13-.18-.28-.39-.44-.57.16-.2.26-.43.44-.66z"/><path class="cls-1" d="M133.74 90.71c.16.18.31.39.44.57-.87 1.33-2.69 2.38-4 1.64-1.92-1.08-2.62-4-2.49-6l.15-.11a.22.22 0 0 1 .21.16c.56 1.56.84 3.74 2.23 4.87 1.23 1 2.13-.47 3-1.52a1.21 1.21 0 0 0 .2.34 1.62 1.62 0 0 0 .26.05zM133.41 81.23h-.11a.12.12 0 0 1 .11 0z"/><path class="cls-1" d="M133.41 81.23a.12.12 0 0 0-.08 0l-.79-.2a5.63 5.63 0 0 1 .54-.36 5.22 5.22 0 0 0 .33.56z"/><path class="cls-1" d="M133.33 81.25l-.46.34c-1.36-1.85-2.23-4.21-3.43-6a5.42 5.42 0 0 1 .1-.65l-.46.13a3.55 3.55 0 0 1-.23-.31c0 .13 0 .26-.08.39l-.44.13a3.85 3.85 0 0 1 .31.43 18.07 18.07 0 0 0 .18 7 3.18 3.18 0 0 1-.84-.36 15.72 15.72 0 0 1 .18-7.74.74.74 0 0 1 1.33-.18c1.46 2 2.36 4.2 3.62 6.28a5.63 5.63 0 0 0-.54.36z"/><path class="cls-1" d="M129.54 82.84a.56.56 0 0 1-.46.65.42.42 0 0 0-.13-.75h-.13a18.07 18.07 0 0 1-.18-7c.23.31.44.62.64.93a31.13 31.13 0 0 0 .26 6.17zM129.54 75a5.42 5.42 0 0 0-.1.65 4 4 0 0 0-.36-.52z"/><path class="cls-1" d="M129.44 75.62a7.85 7.85 0 0 0-.16 1c-.2-.31-.41-.62-.64-.93.05-.2.08-.38.13-.56l.31-.08a4 4 0 0 1 .36.57zM128.21 83.07a3 3 0 0 1-.2-.69 3.18 3.18 0 0 0 .84.36h.13a.42.42 0 0 1 .13.75.79.79 0 0 1-.9-.42z"/><path class="cls-1" d="M129.08 75.1l-.31.08c0-.13 0-.26.08-.39a3.55 3.55 0 0 0 .23.31zM128.21 83.07a.79.79 0 0 0 .87.42.4.4 0 0 1-.23.1c-5 .33-5.9-7.51-6.46-11.51l.69-.31c.56 3.74 1.56 10.56 5.13 11.3zM128.77 75.18c-.05.18-.08.36-.13.56a3.85 3.85 0 0 0-.31-.43z"/><path class="cls-1" d="M124.23 89.46c0-.21-.13-.39-.18-.57a12.07 12.07 0 0 1 3.28-3.12c.57-.36 1.08.48.59.89a.21.21 0 0 0-.2.16 12.53 12.53 0 0 0-3.38 3.39.5.5 0 0 1-.9-.13c-.41-2.74-2.33-3.77-5.79-3.13a.48.48 0 0 1-.69-.54c.69-4-.36-9-5.56-8.23a.66.66 0 0 1-.52-1.2 66.39 66.39 0 0 1 11.74-6.54c.39-.18 1-.07 1 .41.57 3.41.9 9.51 4.31 11.46a3 3 0 0 0 .2.69c-3.57-.74-4.57-7.56-5.13-11.3.08 0 .15-.08.23-.1l-.28-.11c0-.18 0-.33-.08-.48l-.54.23a.5.5 0 0 0-.13 0 .17.17 0 0 0 0 .1 64 64 0 0 0-10.07 5.49 10.22 10.22 0 0 0-1.2.1 4.58 4.58 0 0 0 .25.56h-.07.07a4.8 4.8 0 0 1 .26.57c.36-.26.72-.49 1.1-.72 4.41 0 5.51 4.72 4.87 8.56a1.21 1.21 0 0 0-.36.18c.11.08.18.15.28.21v.18a.44.44 0 0 1 .15-.1l.31.23c0-.18.05-.33.08-.51 2.66-1.64 5 .51 5.79 3.18a3.75 3.75 0 0 0-.26.33 2.58 2.58 0 0 1 .36.05 1.6 1.6 0 0 1 .05.21c.06 0 .08-.13.13-.18a2.8 2.8 0 0 1 .36 0 2.84 2.84 0 0 0-.07-.22z"/><path class="cls-1" d="M127.92 86.66l-.15.11a.21.21 0 0 1 .15-.11zM124.23 89.46a2.84 2.84 0 0 1 .13.38 2.8 2.8 0 0 0-.36 0 .94.94 0 0 1 .23-.38z"/><path class="cls-1" d="M124.05 88.89c0 .18.13.36.18.57a.94.94 0 0 0-.23.33.42.42 0 0 0-.18 0 2 2 0 0 0-.1-.38 1.92 1.92 0 0 1 .33-.52z"/><path class="cls-1" d="M124.05 88.89a1.92 1.92 0 0 0-.33.47c-.77-2.67-3.13-4.82-5.79-3.18a3.8 3.8 0 0 0 0-.46c2.84-1.24 5.07.38 6.12 3.17zM124 89.79s-.07.13-.13.18a1.6 1.6 0 0 0-.05-.21.42.42 0 0 1 .18.03zM123.72 89.38a2 2 0 0 1 .1.38 2.58 2.58 0 0 0-.36-.05 3.75 3.75 0 0 1 .26-.33zM123.31 71.67c-.08 0-.15.08-.23.1a.63.63 0 0 1 0-.21zM123 71.56a.63.63 0 0 0 0 .21l-.69.31c0-.26 0-.52-.08-.72h.1a5.36 5.36 0 0 1 .67.2zM123 71.08c0 .15 0 .3.08.48a5.36 5.36 0 0 0-.62-.25zM122.41 71.31h-.1a.17.17 0 0 1 0-.1.5.5 0 0 1 .1.1z"/><path class="cls-1" d="M122.31 71.36c0 .2 0 .46.08.72a63.57 63.57 0 0 0-9 4.87 4.85 4.85 0 0 0-1.07-.1 64 64 0 0 1 9.99-5.49zM118.11 15.2c4.1 5.3 4.51 15 2.33 21.17-2.62 7.33-9 10.74-15.79 13.74a6.63 6.63 0 0 0-.13-.67c5.77-3.25 12-5.2 14.71-12.15 2.18-5.25 2.18-17.32-1.84-21.68-1.26 10.46-8.9 20.3-20.51 19.53a.73.73 0 0 0-.07-.31v-.07c11.25-1 18.12-8.26 19.79-19.36.07-.84 1.12-.71 1.51-.2z"/><path class="cls-1" d="M119.21 34.65a30.27 30.27 0 0 0 .13-12.43c-.31-1.38-1.67-3.43-1.39-4.71a24.89 24.89 0 0 1-.82 3.22c-3.13 8.75-10.46 16.1-20.38 14.77a.59.59 0 0 0 .13-.36c11.61.77 19.25-9.07 20.51-19.53 4 4.36 4 16.43 1.84 21.68-2.71 7-8.94 8.9-14.71 12.15a3.41 3.41 0 0 0-.15-.69c5.94-3.89 13.25-6.07 14.84-14.1zM118.7 64.49a1 1 0 0 1 0 1.39 37.9 37.9 0 0 1-12.7 8.71c-.08-.21-.21-.44-.31-.64a.4.4 0 0 0-.13-.13c3.92-2.46 8.54-4.74 11.79-7.94a8.6 8.6 0 0 0 .69-.67c-.23-.2-.46-.41-.69-.59v-.1.05a30.82 30.82 0 0 0-12.12-5.82 4.38 4.38 0 0 0 .12-.61 26.3 26.3 0 0 1 13.35 6.35zM113.34 77c3.9.61 5.15 4.64 4.64 8.77a2.06 2.06 0 0 0-.49.25c.64-3.84-.46-8.61-4.87-8.56a3.61 3.61 0 0 1 .69-.46s0-.08.03 0z"/><path class="cls-1" d="M118 65.18a8.6 8.6 0 0 1-.69.67v-1.26c.23.18.46.41.69.59zM118 85.72a3.8 3.8 0 0 1 0 .46 3.16 3.16 0 0 0-.39.28.74.74 0 0 1-.13-.08.91.91 0 0 0 .08-.39 2.06 2.06 0 0 1 .44-.27z"/><path class="cls-1" d="M117.93 86.18c0 .18-.05.33-.08.51l-.31-.23a3.16 3.16 0 0 1 .39-.28zM117.54 86.46a.44.44 0 0 0-.15.1v-.18a.74.74 0 0 0 .15.08zM117.49 86a.91.91 0 0 1-.08.39c-.1-.06-.17-.13-.28-.21a1.21 1.21 0 0 1 .36-.18zM117.31 64.59v1.29a7.53 7.53 0 0 0-.79-.65 5.94 5.94 0 0 0 .74-.69.05.05 0 0 1 .05.05zM117.31 64.49v.1z"/><path class="cls-1" d="M116.52 65.23a7.53 7.53 0 0 1 .79.65c-3.25 3.2-7.87 5.48-11.79 7.94-.26-.2-.77.08-.64.46l.23.59a.72.72 0 0 1-.64-1.2c3.36-3.51 8.36-5.13 12.05-8.44zM117.26 64.54a5.94 5.94 0 0 1-.74.69c-3.62-2.87-7.67-4.15-11.85-6-.07 0-.12-.08-.12-.13a.44.44 0 0 0 .56-.28v-.08a30.82 30.82 0 0 1 12.15 5.8zM113.31 77a3.61 3.61 0 0 0-.69.46 8.63 8.63 0 0 0-1.36.13c.31-.23.62-.43.95-.66a4.85 4.85 0 0 1 1.1.07z"/><path class="cls-1" d="M112.62 77.41c-.38.23-.74.46-1.1.72a4.8 4.8 0 0 0-.26-.57 8.63 8.63 0 0 1 1.36-.15zM112.21 76.85c-.33.23-.64.43-.95.66A4.58 4.58 0 0 1 111 77a10.22 10.22 0 0 1 1.21-.15zM111.26 77.54h-.07.07zM105.55 74.74l-.36.13h-.08l-.23-.59c-.13-.38.38-.66.64-.46a.4.4 0 0 1 .13.13c.1.2.23.43.31.64zM105.11 54a15.69 15.69 0 0 1 .15 4.16.92.92 0 0 0-.28 0 .57.57 0 0 0-.31.07c0-2.61-.23-5.25-.46-7.86a.18.18 0 0 0 .16 0l.28-.13a38 38 0 0 1 .46 3.76z"/><path class="cls-1" d="M104.67 58.13a.57.57 0 0 1 .31-.07.92.92 0 0 1 .28 0 4.38 4.38 0 0 1-.12.61v.08a.44.44 0 0 1-.56.28.63.63 0 0 1 .09-.9zM104.65 50.11l-.28.13a.18.18 0 0 1-.16 0 4.21 4.21 0 0 0 0-.62 2.24 2.24 0 0 1 .36-.21 6.63 6.63 0 0 1 .08.7z"/><path class="cls-1" d="M104.37 48.75a3.41 3.41 0 0 1 .15.69 2.24 2.24 0 0 0-.36.21v-.74a.87.87 0 0 1 .21-.16zM104.67 58.13a.63.63 0 0 0-.12.95.41.41 0 0 1-.31-.28c-.51-1.54-.28-3.23-.33-4.85-.06-1.22-.16-2.48-.16-3.74a.49.49 0 0 0 .46.06c.23 2.61.44 5.25.46 7.86zM104.11 48.91a2.29 2.29 0 0 0-.31.2 4.86 4.86 0 0 1 0-.66.23.23 0 0 1 .46-.06l.08.36a.87.87 0 0 0-.23.16z"/><path class="cls-1" d="M104.16 49.65a4.21 4.21 0 0 1 0 .62.49.49 0 0 1-.46-.06v-1.1a2.29 2.29 0 0 1 .31-.2c.1.25.13.48.15.74z"/><path class="cls-1" d="M103.8 49.11v1.1a.62.62 0 0 1 0-1.07s-.02-.03 0-.03zM96.88 35.14a.59.59 0 0 1-.13.36h-.23a.26.26 0 0 1-.23-.35.43.43 0 0 1 .34-.34.39.39 0 0 0 .15 0v.07a.73.73 0 0 1 .1.26z"/><path class="cls-1" d="M96.78 34.76a.39.39 0 0 1-.15 0 .43.43 0 0 0-.34.34c-1.53-1.54-3.33-3.34-5.46-4a.63.63 0 0 0 .7-.13 6.46 6.46 0 0 1 2.76 1.28 7.63 7.63 0 0 1 2.49 2.51z"/><path class="cls-1" d="M90.83 31.14c2.13.64 3.93 2.44 5.46 4a.26.26 0 0 0 .23.35h.23a.62.62 0 0 1-.74.13 10.72 10.72 0 0 1-2.59-2.23 22.36 22.36 0 0 0-2.79-2.1.25.25 0 0 1-.08-.31.55.55 0 0 0 .28.16zM94.6 23.56l.64-.08c-.13-.15-.23-.3-.36-.46 0-.07.1-.18.15-.25h-.3c-.11-.12-.21-.28-.31-.4a3.77 3.77 0 0 0-.26.48c-6.87.95-10.59 2.34-11.49-5.69-2.15.92-5.25 4.64-7.43 5.26h-.64c-2.33 0-3.31-1.35-4.92-3.07a2.36 2.36 0 0 1 .1-.46 3.48 3.48 0 0 1-.44.1l-.3-.29c0 .13-.06.26-.08.39a4.61 4.61 0 0 1-.46.13 5 5 0 0 0 .38.41c-.28 1.69-.69 3.51-1 5.33a4.87 4.87 0 0 0-.54 0c.29-2.08.75-4.16.88-6.26a.78.78 0 0 1 1.3-.54c1.34 1.34 3.87 4.67 6.23 3.1A27.2 27.2 0 0 0 79 18.89a22.55 22.55 0 0 1 3.35-2.33.72.72 0 0 1 1.05.41c.54 3.51 1.67 6.23 5.72 5.84 2-.2 4-.54 6-.79.59-.08.87.66.64 1.1a82.22 82.22 0 0 0-4 7.72.41.41 0 0 1-.12.17 4.17 4.17 0 0 0-.8-.12.19.19 0 0 0-.18.1.63.63 0 0 1-.18-.69 57.7 57.7 0 0 1 3.33-6.62c.19-.05.51-.1.79-.12z"/><path class="cls-1" d="M94.91 23c.13.16.23.31.36.46l-.64.08c.1-.19.18-.37.28-.54zM95.06 22.74c0 .07-.1.18-.15.25l-.15-.21z"/><path class="cls-1" d="M94.91 23c-.1.18-.18.36-.28.54-.28 0-.59.07-.9.12.16-.28.31-.53.47-.82l.57-.08z"/><path class="cls-1" d="M94.45 22.38c.1.12.2.28.31.4l-.57.08a3.77 3.77 0 0 1 .26-.48zM94.17 22.86c-.16.29-.31.54-.47.82-4.33.75-10 1.8-11.22-3.64-.77-3.3-4.87 3.28-7.23 3.23-2.74-.05-4.15-1.23-5.79-3a8.35 8.35 0 0 1 .23-.89c1.61 1.72 2.59 3.07 4.92 3.07h.64c2.18-.62 5.28-4.34 7.43-5.26.9 8.01 4.62 6.62 11.49 5.67zM90.73 30.89a4.17 4.17 0 0 1 .8.12.63.63 0 0 1-.7.13.55.55 0 0 1-.28-.15.19.19 0 0 1 .18-.1zM59 72.1h.1c.1-.08.23-.13.33-.21 3.18 3.93 4.21 9.41 6.61 13.85-.25.15-.51.28-.76.4l1.15.31c-.13-.23-.28-.48-.39-.71a29.49 29.49 0 0 0 6.16-4.36c1.33-1.21 2.46-2.87 4-3.85a.46.46 0 0 0 .61 0A.57.57 0 0 1 77 78c-1 3.94-7.44 7.86-10.9 9.58a.9.9 0 0 1-1.18-.31c-3.07-4.71-4.66-10.61-6.66-15.84-.1-.28.31-.51.51-.31a1.35 1.35 0 0 0-.26.18c-.38.37.05.93.49.8z"/><path class="cls-1" d="M59.07 71.54c-.1-.13-.2-.23-.3-.36a46.23 46.23 0 0 1 12-7 .67.67 0 0 1 .74.31c2.56 3.59 3.77 8.54 5.41 12.61a.43.43 0 0 1 0 .39.42.42 0 0 0-.56-.08.19.19 0 0 1-.1.05c-2.93-2.79-3.11-7-4.87-10.48-1.29-2.54-4.57.18-6.34 1.31s-3.66 2.43-5.56 3.53c-.21-.05-.31-.18-.42-.28z"/><path class="cls-1" d="M76.25 77.46a.42.42 0 0 1 .56.08.46.46 0 0 1-.61 0 .19.19 0 0 0 .05-.08z"/><path class="cls-4" d="M71.28 67c1.76 3.46 1.94 7.69 4.87 10.48-1.54 1-2.67 2.64-4 3.85A29.49 29.49 0 0 1 66 85.72c-2.4-4.44-3.43-9.92-6.61-13.85 1.9-1.1 3.69-2.38 5.56-3.53S70 64.49 71.28 67z"/><path class="cls-1" d="M69.79 18.92a2.36 2.36 0 0 0-.1.46c-.11-.13-.23-.23-.34-.36a3.48 3.48 0 0 0 .44-.1z"/><path class="cls-1" d="M69.35 19c.11.13.23.23.34.36a8.35 8.35 0 0 0-.23.89l-.57-.61a3.35 3.35 0 0 0 .08-.54 1.78 1.78 0 0 0 .38-.1z"/><path class="cls-1" d="M69.35 19a1.78 1.78 0 0 1-.38.1c0-.13 0-.26.08-.39zM68.89 19.66l.57.61c-.36 1.62-.67 3.23-1 4.85a.49.49 0 0 0-.36-.13h-.18c.28-1.82.69-3.64.97-5.33zM69 19.12a3.35 3.35 0 0 1-.08.54 5 5 0 0 1-.38-.41 4.61 4.61 0 0 0 .46-.13zM68.48 25.12a.56.56 0 0 1-.18.92v-.05z"/><path class="cls-1" d="M67.87 25.53c0-.18 0-.36.07-.54h.18a.49.49 0 0 1 .36.13l-.15.87v.05a.32.32 0 0 1-.18.05l-.72.08a.42.42 0 0 1-.1-.33v-.29z"/><path class="cls-1" d="M68.12 26.09a.32.32 0 0 0 .18-.09.55.55 0 0 1-.9.13zM68.2 103a.37.37 0 0 1-.51.36.54.54 0 0 0 .12-.36.32.32 0 0 0-.07-.23c-.87-2.74-1.18-5.71-2.41-8.12-2.54 1.41-4.85 4.92-6.41 6.46 0 0-.05-.11-.08-.16a.27.27 0 0 0-.23-.12 26.38 26.38 0 0 1 2.57-3 31.5 31.5 0 0 1 4-3.46.27.27 0 0 1 .31.05c1.84 2.03 2.56 5.93 2.71 8.58zM67.94 25c0 .18 0 .36-.07.54h-.54c0-.2 0-.41.07-.58a4.87 4.87 0 0 1 .54.04z"/><path class="cls-1" d="M67.74 102.73a.32.32 0 0 1 .07.23.54.54 0 0 1-.12.36.35.35 0 0 1-.21-.15c-.15-.25-.28-.51-.41-.77a.6.6 0 0 1 .67.33z"/><path class="cls-1" d="M60.94 108.4a4.61 4.61 0 0 1-.15-.72c2.05-1.64 4-3.41 6-5.15a.44.44 0 0 1 .31-.13c.13.26.26.52.41.77a.35.35 0 0 0 .21.15v.08c-2 2.21-4.59 3.9-6.8 5.92a.66.66 0 0 1-1.07-.28c-.72-2.46-2-5.43-1.59-8a.31.31 0 0 1 .43-.23 2.49 2.49 0 0 0-.31.51.25.25 0 0 0 .29.36c.36 2.07 1 4.38 1.61 6.51l-.28.23c.13 0 .26.08.38.1s.06.23.08.36l.31-.26.31.08a.94.94 0 0 1-.14-.3zM67.4 25c0 .17-.05.38-.07.58-1.82.11-3.82.54-5.64.59a2.72 2.72 0 0 1-.21-.46A39.21 39.21 0 0 1 67.4 25z"/><path class="cls-1" d="M67.74 102.73a.6.6 0 0 0-.67-.35 19.72 19.72 0 0 1-1.15-4.16c-.21-1-.59-2-.74-2.94-.06-.44-1.57 1-1.65 1.1-1.07 1.18-2.05 2.41-3.1 3.61a6.84 6.84 0 0 1-1.38 1.41c0-.13-.08-.23-.13-.33 1.56-1.54 3.87-5 6.41-6.46 1.23 2.39 1.54 5.39 2.41 8.12zM67.3 25.84a.42.42 0 0 0 .1.33 34.36 34.36 0 0 1-5.53.44.18.18 0 0 0 0-.16l-.15-.31c1.82-.05 3.82-.48 5.64-.59-.03.11-.06.18-.06.29z"/><path class="cls-4" d="M67.07 102.38a.44.44 0 0 0-.31.13c-2 1.74-3.92 3.51-6 5.15a35.91 35.91 0 0 0-1.74-6.28 6.84 6.84 0 0 0 1.41-1.38c1-1.2 2-2.43 3.1-3.61.08-.08 1.59-1.54 1.65-1.1.15 1 .53 2 .74 2.94a19.72 19.72 0 0 0 1.15 4.15z"/><path class="cls-1" d="M66 85.72c.11.23.26.48.39.71l-1.15-.31c.24-.12.5-.25.76-.4zM61.18 26.55h.12a3.63 3.63 0 0 0 .57 0 .59.59 0 0 1-1.08.46c-4.43-7.28-2.61-15.87-2.92-24 .26-.31.51-.62.74-.92C59.2 9.76 57 19.27 60.89 26a.58.58 0 0 0 .29.55z"/><path class="cls-1" d="M61.69 26.14l.15.31a.18.18 0 0 1 0 .16 3.63 3.63 0 0 1-.57 0h-.12a2.81 2.81 0 0 1-.29-.51.35.35 0 0 1 .31-.31 2.74 2.74 0 0 0 .28-.05 2.72 2.72 0 0 0 .24.4z"/><path class="cls-1" d="M57.82 2v1c-3.36 4.1-7.54 7.56-10.41 12-1.9 2.92-3.59 6.18-3.48 9.77.07 3.04 1.07 11.32 6.51 10.06 2.25-.51 1.82 3.16 0 2.44a.62.62 0 0 0-1.08-.59c-5-3-7.85-6.92-6.9-13.53C43.8 13.51 52.36 7.94 57.87.69a.76.76 0 0 1 1.41.36C60 9.3 57.87 18 61.48 25.68a2.74 2.74 0 0 1-.28.05.35.35 0 0 0-.31.31C57 19.27 59.2 9.76 58.61 2.13c.21-.23.39-.46.57-.7-.21-.05-.41-.1-.62-.17v-.21c0-.08-.08.13-.13.18a4.69 4.69 0 0 0-.61-.18c-.03.31 0 .64 0 .95z"/><path class="cls-1" d="M60.89 26a2.81 2.81 0 0 0 .29.51.58.58 0 0 1-.29-.51zM60.94 108.4a.94.94 0 0 0 .06.28l-.31-.08a1.22 1.22 0 0 1 .25-.2z"/><path class="cls-1" d="M60.94 108.4a1.22 1.22 0 0 0-.25.2 1.86 1.86 0 0 1-.39-.1 1.43 1.43 0 0 1-.1-.33c.21-.16.39-.31.59-.49a4.61 4.61 0 0 0 .15.72z"/><path class="cls-1" d="M60.79 107.68c-.2.18-.38.33-.59.49-.56-2.13-1.25-4.44-1.61-6.51a1.44 1.44 0 0 0 .46-.26 35.91 35.91 0 0 1 1.74 6.28zM60.69 108.6l-.31.26c0-.13-.05-.23-.08-.36a1.86 1.86 0 0 0 .39.1zM60.3 108.5c-.12 0-.25-.08-.38-.1l.28-.23a1.43 1.43 0 0 0 .1.33zM59.07 71.54c.11.1.21.23.31.33-.1.08-.23.13-.33.21h-.1c-.13-.25-.29-.48-.44-.72a1.35 1.35 0 0 1 .26-.18c.1.13.23.23.3.36zM59.18 1.43c-.18.24-.36.47-.57.7a8 8 0 0 0 0-.87c.16.07.39.12.57.17z"/><path class="cls-1" d="M59.05 101.4a1.44 1.44 0 0 1-.46.26v-.26c0-.08.23-.2.36-.33.05.1.05.2.1.33zM59 72.1c-.39.13-.82-.43-.44-.72.1.24.26.47.44.72z"/><path class="cls-1" d="M58.56 101.4v.26a.25.25 0 0 1-.29-.36 2.49 2.49 0 0 1 .31-.51.27.27 0 0 1 .23.12s0 .11.08.16c-.1.13-.23.23-.33.33zM58.56 1.26a8 8 0 0 1 0 .87c-.23.3-.48.61-.74.92v-1a7.48 7.48 0 0 0 .56-.77c.08-.05.13-.02.18-.02z"/><path class="cls-1" d="M58.54 1.05v.21c0 .08-.1 0-.15 0s.09-.16.15-.21zM58.38 1.23a7.48 7.48 0 0 1-.56.77v-.95a4.69 4.69 0 0 1 .56.18zM49.31 36.68a.62.62 0 0 1 1.08.59.52.52 0 0 1-.26-.1l-.28-.17c-.18-.08-.36-.18-.54-.28z"/><path class="cls-1" d="M50.39 37.27c-.72 1.62-1.85 3-2.67 4.64-.54 1.08-.87 2.28-1.46 3.33a.4.4 0 0 0-.21-.33 1.59 1.59 0 0 0-.3-.18c.76-3 2.69-5.23 4.1-7.77l.28.16a.52.52 0 0 0 .26.15z"/><path class="cls-1" d="M49.85 37c-1.41 2.54-3.34 4.82-4.1 7.77a3.43 3.43 0 0 0-.7-.41 9.31 9.31 0 0 1 1.36-3.18c.9-1.54 1.87-3 2.9-4.48.18.11.36.21.54.3zM46.26 45.29a.4.4 0 0 1-.31.49 2.13 2.13 0 0 0 .31-.49z"/><path class="cls-1" d="M45.62 45.29a1.42 1.42 0 0 1 .13-.51 1.59 1.59 0 0 1 .3.18.4.4 0 0 1 .21.33 2.13 2.13 0 0 1-.31.49.38.38 0 0 1-.26 0c-.2 0-.41-.07-.61-.12A2.87 2.87 0 0 1 45 45a5.36 5.36 0 0 1 .62.29z"/><path class="cls-1" d="M46 45.8c-.05.05-.08.13-.13.18-.2.26-.64.08-.72-.2v-.1c.2 0 .41.07.61.12a.38.38 0 0 0 .24 0zM45.75 44.78a1.42 1.42 0 0 0-.13.51A5.36 5.36 0 0 0 45 45v-.67a3.43 3.43 0 0 1 .75.45z"/><path class="cls-1" d="M45.05 44.37v.67a33.84 33.84 0 0 0-11.87-2.46c-1.25 5.22.9 10.5 2.75 15.12a.38.38 0 0 0-.31.18.91.91 0 0 1-.1.13 21.47 21.47 0 0 1-3.26-15.69.93.93 0 0 1 .92-.69c3.72.2 8.44.76 11.87 2.74z"/><path class="cls-1" d="M45 45a2.87 2.87 0 0 0 .08.64c-3.77-.85-7.23-2.06-11.15-2.16a5.46 5.46 0 0 1 .1-.69 15 15 0 0 0-.9.67h.8c-.72 5.1 1.72 9.15 2.46 14.1a.62.62 0 0 1-.1.41.37.37 0 0 0-.41-.33c-1.85-4.62-4-9.9-2.75-15.12A33.84 33.84 0 0 1 45 45zM39 12.22a.26.26 0 0 0-.43-.2 7.69 7.69 0 0 0-.8.82c-3.85 1.75-8 2.49-11.69 4.62 1.84 3.38.33 9.84-3.64 11.12a2.71 2.71 0 0 0-.1-.43c3-2.36 5.22-6.59 3.07-10.31a.77.77 0 0 1 .28-1 61.07 61.07 0 0 1 14-5.15.22.22 0 0 1 .2.38 10 10 0 0 1-1.46 1.08c.18-.26.36-.49.57-.75a.21.21 0 0 0 .07-.15z"/><path class="cls-1" d="M38.36 12.53a3.42 3.42 0 0 1-.64.31 7.69 7.69 0 0 1 .8-.82.26.26 0 0 1 .43.2 4.53 4.53 0 0 1-.59.31zM39 12.25a.21.21 0 0 1-.07.15c-.21.26-.39.49-.57.75a6 6 0 0 1-.92.51 10 10 0 0 1 1-1.13 4.53 4.53 0 0 0 .56-.28z"/><path class="cls-1" d="M30.62 33.14v.44l.38-.23a1 1 0 0 1 .28.23 1.71 1.71 0 0 1 0-.39 3.14 3.14 0 0 1 .32-.19l-.29-.15c.29-4.05 3.26-5.1 7.08-4.23-2-5.05-4.41-10.33-1-15a6 6 0 0 0 .92-.51c-3.46 5-1.38 10 .59 15.33.16.43-.28.74-.67.66-3.38-.61-6.1.57-6.3 4.44a.68.68 0 0 1-1 .59L28 33a.73.73 0 0 1-.43-.48c-.13-.47.23-1.05.79-.85.87.33 1.62.54 2.36.87-.05.22-.07.46-.1.6z"/><path class="cls-1" d="M37.72 12.84a3.42 3.42 0 0 0 .64-.31 10 10 0 0 0-1 1.13 4.63 4.63 0 0 1-.54.28 11.11 11.11 0 0 1 .85-1.08s.03-.02.05-.02z"/><path class="cls-1" d="M35.34 27.81c.46 0 2.33.51 2-.23-2-4.8-3.3-9.51-.51-13.64a4.63 4.63 0 0 0 .54-.28c-3.41 4.64-1 9.92 1 15-3.82-.87-6.79.18-7.08 4.23a3.51 3.51 0 0 0-.61-.31c.18-1.46.61-3 2-3.82a5.59 5.59 0 0 1 2.66-.95z"/><path class="cls-2" d="M37.36 27.58c.31.74-1.56.23-2 .23a5.59 5.59 0 0 0-2.67.92c-1.36.77-1.79 2.36-2 3.82-.74-.33-1.49-.54-2.36-.87-.56-.2-.92.38-.79.85a2.25 2.25 0 0 1-.08-.24.28.28 0 0 0-.36-.15c-1 .75-.92 2.08-1.08 3.26-.25 1.87-.33 3.77-.77 5.64a61.73 61.73 0 0 1-5.79-3.9c.13-.28-.18-.67-.46-.43a9.32 9.32 0 0 0-2.9 4.17c-1.69-3.12-5.76.82-8.22 3.72a99.53 99.53 0 0 0 1.6-14.2c1.84 2.31 4.4 4 7.53 3.56s0 0 .05 0c.38.2.92-.23.64-.64-.92-1.21-2-2.39-3-3.54a31.45 31.45 0 0 1 3.77 1.87.7.7 0 0 0 1-.38 44 44 0 0 0 .8-5.08 3.39 3.39 0 0 0 1.92 2.9c.1 0 .18 0 .18-.13 3.51-.49 4.87-4.85 5-7.92a12.13 12.13 0 0 0-.28-2.46c-.39-1.82 3.15-2.28 4.66-2.82a44.25 44.25 0 0 0 5-1.85c-2.69 4.16-1.34 8.87.61 13.67z"/><path class="cls-1" d="M37.7 12.86a11.11 11.11 0 0 0-.85 1.08 44.25 44.25 0 0 1-5 1.85c-1.51.54-5.05 1-4.66 2.82a12.13 12.13 0 0 1 .28 2.46c-.18 3.07-1.54 7.43-5 7.92a.2.2 0 0 0 0-.1c0-.1-.05-.21-.07-.29 4-1.28 5.48-7.74 3.64-11.12 3.66-2.13 7.81-2.87 11.66-4.62zM36.29 58a.28.28 0 0 1 0 .23c-9.26 15-18 30.68-25.95 46.42a142.92 142.92 0 0 0-6.56 14.69c-1.66 4.61-2.25 6 2.9 6.61a31.26 31.26 0 0 1 14.25 5.16.4.4 0 0 0-.26.3c-6.89-4.33-11.73-4.66-19.71-5.53 4-13.64 10.85-25.74 17.66-37.81 3.67-6.2 7-12.74 10.54-19.07s.12-.13.17-.18a.38.38 0 0 0 .08-.23c2-3.57 4.13-7 6.41-10.36a.4.4 0 0 0 .47-.23z"/><path class="cls-1" d="M35.8 58.21a.44.44 0 0 1-.33-.2.91.91 0 0 0 .1-.13.38.38 0 0 1 .31-.18.37.37 0 0 1 .41.33.4.4 0 0 1-.49.18z"/><path class="cls-1" d="M35.47 58a.44.44 0 0 0 .33.2c-2.28 3.31-4.41 6.79-6.41 10.36a.26.26 0 0 0-.2-.26 1.74 1.74 0 0 0-.49 0A113.49 113.49 0 0 1 35.47 58zM34 42.83a5.46 5.46 0 0 0-.1.69h-.8c.32-.25.62-.52.9-.69zM31.6 33a3.14 3.14 0 0 0-.31.18.74.74 0 0 1 0-.33z"/><path class="cls-1" d="M31.31 32.86a.74.74 0 0 0 0 .33l-.31.16a.88.88 0 0 0-.36-.21c0-.18.05-.38.08-.59a3.51 3.51 0 0 1 .59.31z"/><path class="cls-1" d="M31.29 33.19a1.71 1.71 0 0 0 0 .39 1 1 0 0 0-.28-.23zM31 33.35l-.38.23v-.44a.88.88 0 0 1 .38.21zM29.39 68.57a.38.38 0 0 1-.08.23s-.1.12-.17.18c.07-.13.17-.29.25-.41zM28.37 68.82a5.45 5.45 0 0 1 .33-.56 1.74 1.74 0 0 1 .49 0 .26.26 0 0 1 .2.26c-.08.12-.18.28-.25.41a3.27 3.27 0 0 1-1.23.59 9.06 9.06 0 0 1 .49-.77z"/><path class="cls-1" d="M28.7 68.26a5.45 5.45 0 0 0-.33.56A34.49 34.49 0 0 1 24.19 70c0-.1-.05-.23-.08-.33.82-.23 1.64-.46 2.44-.75a6.6 6.6 0 0 1 2.15-.66z"/><path class="cls-1" d="M28.37 68.85a9.06 9.06 0 0 0-.49.77c-.51.15-1 .23-1.49.33a16.26 16.26 0 0 1-2.25.41.37.37 0 0 0 .07-.33.12.12 0 0 0 0-.08 34.49 34.49 0 0 0 4.16-1.1zM27.88 69.62a3.27 3.27 0 0 0 1.23-.62c-3.54 6.36-6.87 12.9-10.54 19.1-6.81 12.07-13.63 24.17-17.66 37.81 8 .87 12.82 1.2 19.71 5.53a.41.41 0 0 0 .13.31 7.31 7.31 0 0 0 .72.64c-6.77-3.71-12.94-5.07-20.56-5.92a.6.6 0 0 1-.56-.72c3.61-12 9.25-23.07 15.38-34 .79-1.41 1.59-2.85 2.36-4.28a.7.7 0 0 0 .48-.82c3.05-5.65 6.05-11.45 9.31-17.03zM25.85 41.37c-.2-.1-.38-.21-.59-.33.44-1.87.52-3.77.77-5.64.16-1.18.08-2.51 1.08-3.26a.28.28 0 0 1 .36.15 2.25 2.25 0 0 0 .08.24 4.32 4.32 0 0 1-.16 1.74c-.18 1-.25 2-.36 3.1a28.92 28.92 0 0 1-.77 4.74.59.59 0 0 1-.87.34 19.15 19.15 0 0 1-6.25-4.69c.05-.11.13-.21.18-.34a22.77 22.77 0 0 0 5.82 4.21v.13a.88.88 0 0 1 .15-.05c.16.07.29.15.44.23a2.33 2.33 0 0 0 .1-.44l.18-.07z"/><path d="M26.39 70c.46-.1 1-.18 1.49-.33-3.26 5.58-6.26 11.35-9.33 17-.49-2.64-2-5.23-3-7.72a.77.77 0 0 0-1.39-.18c-.9 1.23-5.77 2.33-5.38-.15.43-2.82 4.56-1.87 5.28-4.08a.25.25 0 0 0-.08-.18l.15-.15.19.18a.28.28 0 0 0 .46-.26 29.18 29.18 0 0 0-2.52-5.33 51.43 51.43 0 0 1-2.76-6.51.16.16 0 0 0 .08-.13c.33-1.95.13-4 .33-6 .15-1.8.46-3.57.49-5.34 1.2 1.18 2.51 2.26 3.71 3.44s2.41 2.84 4 3.46c.66 2.41 1.46 4.77 2.2 7.15.57 1.74 1.21 4 2.72 5.2-.05.16 0 .34.2.34h.29a.65.65 0 0 0 .15.1.36.36 0 0 0 .49-.13 16.26 16.26 0 0 0 2.23-.38z" fill="#675872"/><path class="cls-1" d="M26 41.45l-.18.07a.3.3 0 0 0 .05-.15zM25.85 41.37a.3.3 0 0 1-.05.15 4 4 0 0 0-.54.21l-.12-.08a2.58 2.58 0 0 0 .12-.59c.21.1.39.21.59.31z"/><path class="cls-1" d="M25.8 41.52a2.33 2.33 0 0 1-.1.44c-.15-.08-.28-.16-.44-.23a4 4 0 0 1 .54-.21zM25.26 41a2.58 2.58 0 0 1-.12.59 22.77 22.77 0 0 1-5.82-4.21c.05-.07.1-.18.15-.25A61.73 61.73 0 0 0 25.26 41zM25.14 41.65l.12.08a.88.88 0 0 0-.15.05c0-.05.03-.08.03-.13zM23.78 70a1.11 1.11 0 0 0 .41-.08.12.12 0 0 1 0 .08.37.37 0 0 1-.07.33h-.64a2 2 0 0 1-.49-.34.36.36 0 0 1 .15-.15l.41-.13a2 2 0 0 0 .18.26l.05.03z"/><path class="cls-1" d="M24.11 69.62c0 .1.05.23.08.33a1.11 1.11 0 0 1-.41.08 2 2 0 0 1-.18-.26zM23.5 70.39h.64a.36.36 0 0 1-.49.13.65.65 0 0 1-.15-.13zM24.11 69.62l-.54.15c-2.43-3.23-3.15-8.13-5-11.92a.43.43 0 0 0 .36-.26 23 23 0 0 1 2.36 5.29c.8 2.25 2.23 4.45 2.82 6.74z"/><path class="cls-1" d="M23.57 69.77l-.41.13a.36.36 0 0 0-.15.15c-1.51-1.2-2.15-3.46-2.72-5.2-.74-2.38-1.54-4.74-2.2-7.15a1.05 1.05 0 0 0 .36.15.14.14 0 0 0 .15 0c1.82 3.79 2.54 8.69 4.97 11.92zM23.5 70.39h-.29c-.2 0-.25-.18-.2-.34a2 2 0 0 0 .49.34zM22.37 28.6c0 .08.05.19.07.29a.2.2 0 0 1 0 .1.21.21 0 0 1-.13 0 .35.35 0 0 1-.36-.49.46.46 0 0 1 .16-.23.44.44 0 0 1 .18-.13 2.71 2.71 0 0 1 .08.46z"/><path class="cls-1" d="M22.29 29a.21.21 0 0 0 .13 0c0 .1-.08.15-.18.13a3.39 3.39 0 0 1-1.92-2.9c.1-.87.2-1.74.38-2.61.16 1.72.18 3.59 1.23 5a.35.35 0 0 0 .36.38z"/><path class="cls-1" d="M22.27 28.17a.44.44 0 0 0-.18.13.46.46 0 0 0-.16.23c-1.05-1.36-1.07-3.23-1.23-5A15.59 15.59 0 0 1 21 22h-.59a.32.32 0 0 0 0-.18 1.21 1.21 0 0 0-.05.18h-.56a8.18 8.18 0 0 1 .2 1.66c-.41 2.25-.38 4.51-1 6.76a6.58 6.58 0 0 0-.59-.3c.64-2.8.64-5.69 1.35-8.46a.65.65 0 0 1 1.24 0 27.69 27.69 0 0 1 .41 3.2 21.07 21.07 0 0 0 .86 3.31zM21.52 132c-.31-.18-.61-.38-.9-.54a.4.4 0 0 1 .26-.3 10.79 10.79 0 0 1 1 .64.37.37 0 0 1 .08.54l-.28-.24a.76.76 0 0 1-.16-.1z"/><path class="cls-1" d="M21.65 132.08l.28.24a.33.33 0 0 1-.43.07 7.31 7.31 0 0 1-.72-.64.41.41 0 0 1-.13-.31c.29.16.59.36.9.54a.76.76 0 0 0 .1.1zM20.45 22H21a15.59 15.59 0 0 0-.34 1.57 7.58 7.58 0 0 0-.21-1.57z"/><path class="cls-1" d="M20.7 23.56c-.18.87-.28 1.74-.38 2.61a21.57 21.57 0 0 1-.32-2.51 13.81 13.81 0 0 1 .37-1.66h.08a7.58 7.58 0 0 1 .25 1.56zM20.42 21.81a.32.32 0 0 1 0 .18h-.08a1.21 1.21 0 0 1 .08-.18z"/><path class="cls-1" d="M19.8 22h.57a13.81 13.81 0 0 0-.37 1.66 8.18 8.18 0 0 0-.2-1.66zM20.32 26.19a44 44 0 0 1-.8 5.08.7.7 0 0 1-1 .38 31.45 31.45 0 0 0-3.77-1.87c-.3-.36-.64-.69-1-1a14.28 14.28 0 0 1 4.49 2 .29.29 0 0 1 0 .16l.18-.08c.15.1.31.18.46.26a4.94 4.94 0 0 0 .12-.52l.21-.07-.21-.11c.59-2.25.56-4.51 1-6.76a21.57 21.57 0 0 0 .32 2.53zM19 36.71c.28-.24.59.15.46.43a.38.38 0 0 0-.13-.1.18.18 0 0 0-.15 0 .34.34 0 0 0-.33.36 13.64 13.64 0 0 0-2.44 4.25 5.54 5.54 0 0 0-.31-.72 9.32 9.32 0 0 1 2.9-4.22z"/><path class="cls-1" d="M19.32 37.42c-.05.13-.13.23-.18.34a1.73 1.73 0 0 1-.23-.29.13.13 0 0 1-.05-.12 3.92 3.92 0 0 1 .33-.36.18.18 0 0 1 .15 0 .38.38 0 0 1 .13.1c-.05.15-.1.26-.15.33zM19.22 30.53l-.22.07a.25.25 0 0 0 0-.18z"/><path class="cls-1" d="M19.19 37a3.92 3.92 0 0 0-.33.36.34.34 0 0 1 .33-.36zM18.91 37.47a1.73 1.73 0 0 0 .23.29 27.24 27.24 0 0 0-2.51 5c-.18.49-1 .59-1.11 0-1-4.87-6.87 2.61-8.17 4.33.1-.43.2-.84.28-1.28 2.2-2.82 6.92-8.08 8.23-4.23-.13.28-.23.59-.34.87h.54v.16a.75.75 0 0 1 .05-.16h.49a5.32 5.32 0 0 0-.21-.79 13.64 13.64 0 0 1 2.44-4.25.13.13 0 0 0 .08.06zM19 30.42a.25.25 0 0 1 0 .18 4.56 4.56 0 0 0-.59.26l-.15-.08c.07-.23.13-.43.18-.66a6.58 6.58 0 0 1 .56.3z"/><path class="cls-1" d="M18.42 30.86a4.56 4.56 0 0 1 .58-.26 4.94 4.94 0 0 1-.13.52c-.14-.12-.3-.12-.45-.26zM19 57.34a.23.23 0 0 1 0 .23 8.22 8.22 0 0 0-.49-.67.27.27 0 0 0-.43 0c-2.41-2.18-5-5-7.67-7a2.94 2.94 0 0 0 0-.66 21.71 21.71 0 0 1 4.85 3.89c1.19 1.29 3.06 2.52 3.74 4.21z"/><path class="cls-1" d="M18.29 57.18a.7.7 0 0 1-.23-.2.27.27 0 0 1 .43 0 8.22 8.22 0 0 1 .49.67.43.43 0 0 1-.36.26 5.11 5.11 0 0 0-.33-.73z"/><path class="cls-1" d="M18.29 57.18a5.11 5.11 0 0 1 .31.67.14.14 0 0 1-.15 0 1.05 1.05 0 0 1-.36-.15c-.05-.16-.08-.34-.13-.49a.27.27 0 0 1 .08-.28.7.7 0 0 0 .23.2s.02.03.02.05zM18.57 86.69a.7.7 0 0 1-.48.82l.46-.87s.02.02.02.05z"/><path class="cls-1" d="M15.14 79.82h.1a.3.3 0 0 0-.15 0l-.23-.59-.44.33a1.69 1.69 0 0 0-.31-.13 1 1 0 0 0 .11.26c0 .18.13.38.2.56-2.2 1-6.1 3-7.15 0a3.67 3.67 0 0 1 1.64-4.41c1.26-.62 3.72-2 5.1-1.39a.25.25 0 0 1 .08.18c-.72 2.21-4.85 1.26-5.28 4.08-.39 2.48 4.48 1.38 5.38.15a.77.77 0 0 1 1.39.18c1 2.49 2.48 5.08 3 7.72l-.46.87a.63.63 0 0 1-.72-.31 39.26 39.26 0 0 1-3-7c.3-.32.53-.42.74-.5zM18.45 30.12c-.05.23-.11.43-.18.66a14.28 14.28 0 0 0-4.49-2c-.18-.21-.38-.44-.59-.64l-.23.54a.83.83 0 0 0-.28 0 1 1 0 0 1 .2.21 3.59 3.59 0 0 1-.2.51 6.22 6.22 0 0 1 .77.1c1.15 1.26 2.28 2.72 3.41 3.72a8.09 8.09 0 0 1-1.13-.22c-1.3-1.13-2.33-2.64-3.53-3.85a.72.72 0 0 1 .51-1.23c2.2.08 3.89 1.08 5.74 2.2z"/><path class="cls-1" d="M18.42 30.86l-.18.08a.29.29 0 0 0 0-.16zM18 57.21c.05.15.08.33.13.49-1.57-.62-2.82-2.34-4-3.46S11.6 52 10.4 50.8a7.58 7.58 0 0 0 0-.82c2.64 2 5.26 4.77 7.67 7a.27.27 0 0 0-.07.23zM17.73 33.35c.28.41-.26.84-.64.64h-.05a.39.39 0 0 0 0-.77.39.39 0 0 1-.15 0c-1.13-1-2.26-2.46-3.41-3.72a7.28 7.28 0 0 1 1.3.36c1 1.14 2.03 2.28 2.95 3.49z"/><path class="cls-1" d="M16.5 33.6a8.32 8.32 0 0 1-.74-.59 8.09 8.09 0 0 0 1.13.16.39.39 0 0 0 .15 0A.39.39 0 0 1 17 34a5.63 5.63 0 0 1-.5-.4z"/><path class="cls-1" d="M16.5 33.6a5.63 5.63 0 0 0 .5.4c-3.13.39-5.69-1.25-7.53-3.56v-.87c1.56 2.25 4.12 4.1 6.94 4.07zM16.63 42.42h-.49c.08-.26.18-.51.28-.79a5.32 5.32 0 0 1 .21.79z"/><path class="cls-1" d="M16.47 33.6c-2.82 0-5.38-1.82-6.94-4.07 0-.31 0-.59.05-.9l-.58.16v-.16.16l-.54.15c.16.23.31.49.49.72A91.51 91.51 0 0 1 7.09 45.6c-.33.41-.59.74-.79 1a3.59 3.59 0 0 1 .51.2v.08c0 .03 0 0 0 0a3.7 3.7 0 0 1 .52.2.74.74 0 0 1-.08.13.57.57 0 0 1-1-.44c1.47-5.94 1.77-12 2.11-18.12a.62.62 0 0 1 1.15-.31A9.37 9.37 0 0 0 15.7 33a8.32 8.32 0 0 0 .77.6zM16.42 41.6c-.1.28-.2.53-.28.79h-.08a7.08 7.08 0 0 0-.2-.87 6.07 6.07 0 0 1 .25-.67 5.54 5.54 0 0 1 .31.75zM16.14 42.42a.75.75 0 0 0-.05.16v-.16z"/><path class="cls-1" d="M16.11 40.88a6.07 6.07 0 0 0-.25.67c-1.31-3.85-6 1.41-8.23 4.23.1-.39.18-.77.26-1.18 2.46-2.9 6.53-6.84 8.22-3.72zM16.06 42.42h-.54c.11-.28.21-.59.34-.87a7.08 7.08 0 0 1 .2.87zM15.24 79.77h-.1a.29.29 0 0 1-.05-.1.3.3 0 0 1 .15.1zM15.09 79.72a.29.29 0 0 0 .05.1c-.21.08-.44.2-.72.33-.07-.18-.15-.38-.2-.56a.76.76 0 0 1 .2-.13 6.16 6.16 0 0 1 .67.26z"/><path class="cls-1" d="M15.09 79.72a6.16 6.16 0 0 0-.67-.26l.44-.33zM9.09 62.31a.3.3 0 0 0 .41 0 51.43 51.43 0 0 0 2.79 6.48 29.18 29.18 0 0 1 2.52 5.33.28.28 0 0 1-.46.26l-.19-.18c-3.22-3.23-4.81-9-5.81-13.25a.24.24 0 0 1 .05-.23 4.59 4.59 0 0 0 .6 1.52s0 .05.09.07zM14.11 79.33a1.69 1.69 0 0 1 .31.13.76.76 0 0 0-.2.13 1 1 0 0 1-.11-.26zM13.78 28.76c.33.36.67.69 1 1a7.28 7.28 0 0 0-1.3-.36c-.18-.2-.39-.43-.57-.61 0-.05 0-.13.08-.18a2.79 2.79 0 0 1 .79.15z"/><path class="cls-1" d="M13.19 28.12c.21.2.41.43.59.64a2.79 2.79 0 0 0-.82-.1zM13.45 29.45a6.22 6.22 0 0 0-.77-.1 3.59 3.59 0 0 0 .2-.51c.18.16.39.41.57.61z"/><path class="cls-1" d="M13 28.66c0 .05-.05.13-.08.18a1 1 0 0 0-.2-.21.83.83 0 0 1 .28.03zM10.37 50a7.58 7.58 0 0 1 0 .82c-.18-.18-.39-.36-.57-.56a2.77 2.77 0 0 0 0-.64c.2.11.42.23.57.38z"/><path class="cls-1" d="M9.83 50.24c.18.2.39.38.57.56 0 1.77-.34 3.54-.49 5.34-.2 2 0 4.07-.33 6a.16.16 0 0 1-.08.13c-.13-.34-.26-.67-.36-1-.54-3.47.51-7.34.69-11.03zM10.32 49.32a2.94 2.94 0 0 1 0 .66c-.15-.13-.33-.25-.51-.38a4.43 4.43 0 0 0 0-.51 1.43 1.43 0 0 1 .51.23z"/><path class="cls-1" d="M10.32 49.09a.59.59 0 0 1 0 .23 1.43 1.43 0 0 0-.44-.23s-.07 0-.1-.06a.35.35 0 0 0-.28 0c.08-.56.77-.38.82.06z"/><path class="cls-1" d="M9.86 49.6a2.77 2.77 0 0 1 0 .64 5 5 0 0 0-.46-.46c.05-.26.08-.49.13-.74a.35.35 0 0 1 .28 0s.08 0 .1.06a4.43 4.43 0 0 1-.05.5zM9.37 49.78a5 5 0 0 1 .46.46c-.18 3.69-1.23 7.56-.69 11a2.88 2.88 0 0 1-.14-.47.3.3 0 0 0-.56-.07 13.44 13.44 0 0 1 .08-4.56c.19-2.14.48-4.26.85-6.36zM9.58 28.63c0 .31 0 .59-.05.9a7.29 7.29 0 0 1-.53-.74z"/><path class="cls-1" d="M9.53 29.53v.87a8.09 8.09 0 0 1-.57-.74c0-.29 0-.59.05-.87H9a7.29 7.29 0 0 0 .53.74zM9.09 62.31c-.05 0-.05-.05-.08-.07a4.59 4.59 0 0 1-.61-1.54.3.3 0 0 1 .56.07 2.88 2.88 0 0 0 .18.49c.1.36.23.69.36 1a.3.3 0 0 1-.41.05zM9.5 49c-.05.25-.08.48-.13.74l-.08-.08A.39.39 0 0 1 9.5 49zM8.91 29.66a8.09 8.09 0 0 0 .57.74 99.53 99.53 0 0 1-1.59 14.2c-.29.36-.57.69-.8 1a91.51 91.51 0 0 0 1.82-15.94zM9 28.63l.08.16H9z"/><path class="cls-1" d="M8.42 28.94l.58-.15c0 .28 0 .58-.05.87-.22-.23-.37-.49-.53-.72zM7.89 44.6c-.08.41-.16.79-.26 1.18-.33.44-.62.79-.8 1.08.1-.41.2-.82.28-1.23.21-.34.49-.63.78-1.03z"/><path class="cls-1" d="M7.63 45.78c-.08.44-.18.85-.28 1.28a3.7 3.7 0 0 0-.52-.2c.17-.29.47-.64.8-1.08zM7.09 45.6c-.08.41-.18.82-.28 1.23a3.59 3.59 0 0 0-.51-.2c.2-.29.46-.63.79-1.03zM6.83 46.86v-.08z"/></g></g></svg>