<svg xmlns="http://www.w3.org/2000/svg" viewBox="0 0 140.54 140.54"><defs><style>.cls-2{fill:#fff}</style></defs><g id="レイヤー_2" data-name="レイヤー 2"><g id="レイヤー_1-2" data-name="レイヤー 1"><g id="グループ化_979" data-name="グループ化 979"><path id="長方形_137" data-name="長方形 137" fill="#999" fill-opacity="0" d="M0 0h140.54v140.54H0z"/><g id="グループ化_875" data-name="グループ化 875"><g id="グループ化_335" data-name="グループ化 335"><circle id="楕円形_5" data-name="楕円形 5" class="cls-2" cx="58.03" cy="65.87" r="4.49"/></g></g></g><path class="cls-2" d="M92.08 89.08H38.63V46.86h56.89v21.8h2.1V44.63H36.73v46.56h55.35v-2.11z"/><path class="cls-2" d="M108.02 81.6H97.59V71.16h-3.1V81.6H84.05v3.09h10.44v10.44h3.1V84.69h10.43V81.6z"/><path class="cls-2" d="M92.11 87.12H81.57v-7.94l10.54-.05c-3.58-8.39-8.65-17.71-11.92-17.61-5.51.16-16.32 22.89-19.59 22.88s-7-9.49-10.08-9.49-11.86 15.76-11.86 15.76h53.45z"/></g></g></svg>